# Blender 4.2.3 LTS
# www.blender.org
mtllib SM_Bedside_Table.mtl
o SM_Bedside_Drawer
v 0.190693 0.467187 0.200490
v 0.195460 0.474271 0.207574
v 0.197937 0.460582 0.061199
v 0.197937 0.460582 -0.061199
v 0.195460 0.474271 -0.207574
v 0.195460 0.368956 -0.207574
v 0.197937 0.440298 -0.061199
v 0.197937 0.440298 0.061199
v 0.195460 0.368956 0.207574
v 0.197937 0.471794 0.205097
v 0.197937 0.471794 -0.205097
v 0.197937 0.371433 -0.205097
v 0.197937 0.371433 0.205097
v 0.195937 0.457411 0.058028
v 0.195937 0.457411 -0.058028
v 0.195937 0.443469 -0.058028
v 0.195937 0.443469 0.058028
v 0.195937 0.460582 0.061199
v 0.195937 0.460582 -0.061199
v 0.195937 0.440298 -0.061199
v 0.195937 0.440298 0.061199
v 0.194535 0.457411 0.058028
v 0.194535 0.457411 -0.058028
v 0.194535 0.443469 -0.058028
v 0.194535 0.443469 0.058028
v 0.190693 0.474271 0.207574
v 0.190693 0.474271 -0.207574
v 0.190693 0.368956 -0.207574
v 0.190693 0.368956 0.207574
v 0.174879 0.435098 0.191722
v 0.174879 0.435098 -0.191722
v 0.190693 0.376040 -0.200490
v 0.190693 0.376040 0.200490
v -0.111973 0.435098 0.191722
v -0.111973 0.435098 -0.191722
v -0.120741 0.376040 -0.200490
v -0.120741 0.376040 0.200490
v 0.190693 0.467187 -0.200490
v -0.120741 0.467187 0.200490
v -0.120741 0.467187 -0.200490
v 0.174879 0.416696 0.191722
v 0.174879 0.416696 -0.191722
v -0.111973 0.416696 0.191722
v -0.111973 0.416696 -0.191722
v -0.111973 0.467187 0.191722
v -0.111973 0.467187 -0.191722
v 0.181926 0.467187 0.191722
v 0.181926 0.467187 -0.191722
v -0.111973 0.384607 0.191722
v -0.111973 0.384607 -0.191722
v 0.181926 0.384607 0.191722
v 0.181926 0.384607 -0.191722
v -0.112573 0.435098 -0.192322
v -0.112573 0.418157 -0.192322
v -0.112573 0.435098 0.192322
v -0.112573 0.416696 0.192322
v 0.173417 0.433637 0.192569
v 0.173417 0.433637 -0.192569
v 0.173417 0.418157 0.192569
v 0.173417 0.418157 -0.192569
v -0.112573 0.433637 0.192322
v -0.112573 0.433637 -0.192322
v 0.174879 0.435098 0.192570
v 0.174879 0.435098 -0.192570
v -0.112573 0.418157 0.192322
v -0.112573 0.416696 -0.192322
v 0.174879 0.416696 0.192570
v 0.174879 0.416696 -0.192570
v -0.113205 0.433637 -0.192953
v -0.113205 0.418157 -0.192953
v -0.113205 0.433637 0.192953
v -0.113205 0.418157 0.192953
v 0.173417 0.433637 0.193462
v 0.173417 0.433637 -0.193462
v 0.173417 0.418157 0.193462
v 0.173417 0.418157 -0.193462
vn -0.0000 -0.0000 -1.0000
vn -0.0000 -0.0000 1.0000
vn -0.0000 -1.0000 -0.0000
vn 0.7071 0.7071 -0.0000
vn 0.7071 -0.7071 -0.0000
vn 0.7071 -0.0000 0.7071
vn 0.7071 -0.0000 -0.7071
vn -0.0000 1.0000 -0.0000
vn 1.0000 -0.0000 -0.0000
vn -1.0000 -0.0000 -0.0000
vn -0.0001 1.0000 -0.0000
vn -1.0000 -0.0000 -0.0009
vn 0.0001 -1.0000 -0.0000
vn 0.0009 -0.0000 -1.0000
vn 0.0009 -0.0000 1.0000
vn 0.0018 -0.0000 1.0000
vn 0.0018 -0.0000 -1.0000
vn -1.0000 -0.0000 0.0009
vt 0.559478 0.521213
vt 0.612135 0.521213
vt 0.612136 0.728787
vt 0.559478 0.728787
vt 0.602473 0.719125
vt 0.569140 0.719125
vt 0.610897 0.727548
vt 0.610897 0.522452
vt 0.560716 0.522452
vt 0.560717 0.727548
vt 0.602473 0.530875
vt 0.569140 0.530875
vt 0.574351 0.535752
vt 0.597262 0.535752
vt 0.597262 0.714248
vt 0.574351 0.714248
vt 0.608593 0.524755
vt 0.608593 0.725245
vt 0.563020 0.725245
vt 0.563020 0.524755
vt 0.608593 0.720861
vt 0.608593 0.720861
vt 0.608593 0.529139
vt 0.608593 0.720861
vt 0.608593 0.720861
vt 0.608593 0.529139
vt 0.608593 0.529139
vt 0.608593 0.529139
vt 0.608593 0.720861
vt 0.608593 0.720861
s 0
usemtl M_Noir_Profond
f 16/13/2 15/14/2 23/14/2 24/13/2
f 14/15/9 15/14/9 19/11/9 18/5/9
f 16/13/9 17/16/9 21/6/9 20/12/9
f 17/16/9 14/15/9 18/5/9 21/6/9
f 15/14/9 16/13/9 20/12/9 19/11/9
f 17/16/8 16/13/8 24/13/8 25/16/8
f 14/15/1 17/16/1 25/16/1 22/15/1
f 15/14/3 14/15/3 22/15/3 23/14/3
f 51/24/8 52/23/8 50/26/8 49/25/8
f 57/22/12 59/29/12 75/29/12 73/22/12
f 62/26/13 61/30/13 71/30/13 69/26/13
f 58/23/3 62/26/3 69/26/3 74/23/3
f 61/30/9 62/26/9 53/26/9 55/21/9
f 57/22/14 61/30/14 55/21/14 63/22/14
f 62/26/15 58/23/15 64/28/15 53/26/15
f 54/26/9 65/24/9 56/24/9 66/26/9
f 65/24/14 59/29/14 67/29/14 56/24/14
f 60/27/15 54/26/15 66/26/15 68/27/15
f 58/23/15 60/27/15 68/27/15 64/28/15
f 59/29/14 57/22/14 63/22/14 67/29/14
f 54/26/8 60/27/8 76/27/8 70/26/8
f 65/24/8 54/26/8 70/26/8 72/24/8
f 61/30/3 57/22/3 73/22/3 71/30/3
f 60/27/18 58/23/18 74/23/18 76/27/18
f 59/29/8 65/24/8 72/24/8 75/29/8
usemtl M_Noir_Bleuté
f 28/1/1 27/2/1 5/2/1 6/1/1
f 26/3/2 29/4/2 9/4/2 2/3/2
f 3/5/1 8/6/1 21/6/1 18/5/1
f 29/4/3 28/1/3 6/1/3 9/4/3
f 10/7/4 11/8/4 5/2/4 2/3/4
f 12/9/5 13/10/5 9/4/5 6/1/5
f 13/10/6 10/7/6 2/3/6 9/4/6
f 11/8/7 12/9/7 6/1/7 5/2/7
f 27/2/8 26/3/8 2/3/8 5/2/8
f 3/5/9 4/11/9 11/8/9 10/7/9
f 7/12/9 8/6/9 13/10/9 12/9/9
f 8/6/9 3/5/9 10/7/9 13/10/9
f 4/11/9 7/12/9 12/9/9 11/8/9
f 4/11/3 3/5/3 18/5/3 19/11/3
f 7/12/2 4/11/2 19/11/2 20/12/2
f 8/6/8 7/12/8 20/12/8 21/6/8
f 38/17/10 1/18/10 26/3/10 27/2/10
f 33/19/10 32/20/10 28/1/10 29/4/10
f 1/18/10 33/19/10 29/4/10 26/3/10
f 32/20/10 38/17/10 27/2/10 28/1/10
f 33/19/2 1/18/2 39/18/2 37/19/2
f 39/18/10 40/17/10 36/20/10 37/19/10
f 34/21/3 30/22/3 63/22/3 55/21/3
f 38/17/1 32/20/1 36/20/1 40/17/1
f 32/20/3 33/19/3 37/19/3 36/20/3
f 48/23/8 47/24/8 1/18/8 38/17/8
f 45/25/8 46/26/8 40/17/8 39/18/8
f 47/24/8 45/25/8 39/18/8 1/18/8
f 46/26/8 48/23/8 38/17/8 40/17/8
f 43/24/11 44/26/11 66/26/11 56/24/11
f 44/26/8 42/27/8 68/27/8 66/26/8
f 47/24/10 48/23/10 52/23/10 51/24/10
f 34/21/9 35/26/9 46/26/9 45/25/9
f 30/22/1 34/21/1 45/25/1 47/24/1
f 35/26/2 31/28/2 48/23/2 46/26/2
f 44/26/9 43/24/9 49/25/9 50/26/9
f 43/24/1 41/29/1 51/24/1 49/25/1
f 42/27/2 44/26/2 50/26/2 52/23/2
f 31/28/2 42/27/2 52/23/2 48/23/2
f 41/29/1 30/22/1 47/24/1 51/24/1
f 42/27/10 31/28/10 64/28/10 68/27/10
f 41/29/8 43/24/8 56/24/8 67/29/8
f 31/28/3 35/26/3 53/26/3 64/28/3
f 35/26/3 34/21/3 55/21/3 53/26/3
f 30/22/10 41/29/10 67/29/10 63/22/10
usemtl M_Cyan
f 25/16/9 24/13/9 23/14/9 22/15/9
f 74/23/16 69/26/16 70/26/16 76/27/16
f 69/26/9 71/30/9 72/24/9 70/26/9
f 71/30/17 73/22/17 75/29/17 72/24/17
o SM_Bedside_Table
v -0.196377 0.139099 0.220124
v -0.196377 0.145580 0.220124
v -0.170124 0.145580 0.246377
v -0.170124 0.139099 0.246377
v 0.170124 0.139099 0.246377
v 0.170124 0.145580 0.246377
v 0.196377 0.145580 0.220124
v 0.196377 0.139099 0.220124
v 0.196377 0.109968 0.220124
v 0.196377 0.103487 0.220124
v 0.170124 0.103487 0.246377
v 0.170124 0.109968 0.246377
v -0.171625 0.000000 0.250000
v -0.200000 0.000000 0.221625
v -0.200000 0.000000 -0.221625
v -0.171625 0.000000 -0.250000
v 0.200000 0.000000 0.221625
v 0.171625 0.000000 0.250000
v 0.171625 0.000000 -0.250000
v 0.200000 0.000000 -0.221625
v 0.196079 0.103487 -0.157827
v 0.196079 0.103487 -0.151346
v 0.196079 0.109968 -0.154587
v 0.196079 0.109968 0.154587
v 0.196079 0.103487 0.151346
v 0.196079 0.103487 0.157827
v 0.121078 0.354905 0.246079
v 0.121078 0.348424 0.246079
v 0.114597 0.351665 0.246079
v 0.114597 0.322895 0.246079
v 0.121078 0.326136 0.246079
v 0.121078 0.319655 0.246079
v 0.121078 0.319655 -0.246079
v 0.121078 0.326136 -0.246079
v 0.114597 0.322895 -0.246079
v 0.114597 0.351665 -0.246079
v 0.121078 0.348424 -0.246079
v 0.121078 0.354905 -0.246079
v 0.039545 0.145580 0.246079
v 0.045120 0.488322 -0.250000
v 0.045120 0.488322 0.250000
v -0.025325 0.488322 0.250000
v -0.025325 0.488322 -0.250000
v -0.188322 0.500000 0.216787
v -0.200000 0.488322 0.221625
v -0.166787 0.500000 0.238322
v -0.171625 0.488322 0.250000
v -0.166787 0.500000 -0.238322
v -0.171625 0.488322 -0.250000
v -0.188322 0.500000 -0.216787
v -0.200000 0.488322 -0.221625
v 0.166787 0.500000 0.238322
v 0.171625 0.488322 0.250000
v 0.188322 0.500000 0.216787
v 0.200000 0.477928 0.211231
v 0.188322 0.500000 -0.216787
v 0.200000 0.477928 -0.211231
v 0.166787 0.500000 -0.238322
v 0.171625 0.488322 -0.250000
v 0.045120 0.139099 0.246079
v 0.039545 0.145580 -0.246079
v 0.045120 0.139099 -0.246079
v 0.045120 0.146118 -0.246079
v 0.117838 0.139099 -0.246079
v 0.121078 0.145580 -0.246079
v 0.114597 0.146097 -0.246079
v 0.121078 0.145580 0.246079
v 0.117838 0.139099 0.246079
v 0.121078 0.145580 0.250000
v 0.114597 0.146097 0.250000
v 0.121078 0.145580 -0.250000
v 0.114597 0.146097 -0.250000
v 0.039545 0.145580 -0.250000
v 0.045120 0.146118 -0.250000
v 0.045120 0.146118 0.250000
v 0.039545 0.145580 0.250000
v -0.025325 0.225123 -0.250000
v -0.024843 0.231893 -0.250000
v -0.024843 0.231893 0.250000
v -0.025325 0.225123 0.250000
v 0.127895 0.341725 -0.249138
v 0.121078 0.354905 -0.250000
v 0.127895 0.332835 -0.249138
v 0.121078 0.319655 -0.250000
v 0.127895 0.332835 0.249138
v 0.121078 0.319655 0.250000
v 0.127895 0.341725 0.249138
v 0.121078 0.354905 0.250000
v -0.171625 0.139099 0.250000
v -0.171625 0.145580 0.250000
v -0.200000 0.145580 0.221625
v -0.200000 0.139099 0.221625
v -0.200000 0.109968 0.221625
v -0.200000 0.103487 0.221625
v -0.171625 0.103487 0.250000
v -0.171625 0.109968 0.250000
v -0.171625 0.109968 -0.250000
v -0.171625 0.103487 -0.250000
v -0.200000 0.103487 -0.221625
v -0.200000 0.109968 -0.221625
v -0.200000 0.139099 -0.221625
v -0.200000 0.145580 -0.221625
v -0.171625 0.145580 -0.250000
v -0.171625 0.139099 -0.250000
v 0.200000 0.117150 -0.221625
v 0.200000 0.103487 -0.221625
v 0.171625 0.103487 -0.250000
v 0.171625 0.117150 -0.250000
v 0.171625 0.131917 -0.250000
v 0.171625 0.145580 -0.250000
v 0.191163 0.153138 -0.188694
v 0.200000 0.131917 -0.221625
v 0.171625 0.117150 0.250000
v 0.171625 0.103487 0.250000
v 0.200000 0.103487 0.221625
v 0.200000 0.117150 0.221625
v 0.200000 0.131917 0.221625
v 0.191163 0.153138 0.188694
v 0.171625 0.145580 0.250000
v 0.171625 0.131917 0.250000
v -0.171625 0.225162 0.250000
v -0.171625 0.231893 0.250000
v -0.200000 0.231893 0.221625
v -0.200000 0.225181 0.221625
v -0.200000 0.225181 -0.221625
v -0.200000 0.231893 -0.221625
v -0.171625 0.231893 -0.250000
v -0.171625 0.225162 -0.250000
v 0.200000 0.344934 0.221625
v 0.200000 0.365299 0.211231
v 0.171625 0.354905 0.250000
v 0.171625 0.344934 0.250000
v 0.171625 0.329626 0.250000
v 0.171625 0.319655 0.250000
v 0.191163 0.312097 0.188694
v 0.200000 0.329626 0.221625
v 0.171625 0.344934 -0.250000
v 0.171625 0.354905 -0.250000
v 0.200000 0.365299 -0.211231
v 0.200000 0.344934 -0.221625
v 0.200000 0.329626 -0.221625
v 0.191163 0.312097 -0.188694
v 0.171625 0.319655 -0.250000
v 0.171625 0.329626 -0.250000
v 0.114597 0.488322 0.250000
v 0.121078 0.488322 0.250000
v 0.121078 0.500000 0.238322
v 0.114597 0.500000 0.238322
v 0.114597 0.500000 -0.238322
v 0.121078 0.500000 -0.238322
v 0.121078 0.488322 -0.250000
v 0.114597 0.488322 -0.250000
v 0.200000 0.103487 0.151346
v 0.200000 0.103487 0.157827
v 0.200000 0.103487 -0.151346
v 0.200000 0.103487 -0.157827
v 0.200000 0.000000 -0.157827
v 0.200000 0.000000 -0.151346
v 0.200000 0.000000 0.151346
v 0.200000 -0.000000 0.157827
v -0.196377 0.109968 0.220124
v -0.196377 0.103487 0.220124
v -0.170124 0.103487 0.246377
v -0.170124 0.109968 0.246377
v 0.196377 0.109968 -0.220124
v 0.196377 0.103487 -0.220124
v 0.170124 0.103487 -0.246377
v 0.170124 0.109968 -0.246377
v 0.170124 0.139099 -0.246377
v 0.170124 0.145580 -0.246377
v 0.196377 0.145580 -0.220124
v 0.196377 0.139099 -0.220124
v -0.170124 0.109968 -0.246377
v -0.170124 0.103487 -0.246377
v -0.196377 0.103487 -0.220124
v -0.196377 0.109968 -0.220124
v -0.196377 0.139099 -0.220124
v -0.196377 0.145580 -0.220124
v -0.170124 0.145580 -0.246377
v -0.170124 0.139099 -0.246377
v -0.170124 0.225162 0.246377
v -0.170124 0.231893 0.246377
v -0.196377 0.231893 0.220124
v -0.196378 0.225181 0.220124
v -0.196378 0.225181 -0.220124
v -0.196377 0.231893 -0.220124
v -0.170124 0.231893 -0.246377
v -0.170124 0.225162 -0.246377
v 0.170124 0.348424 -0.246377
v 0.170124 0.354905 -0.246377
v 0.196377 0.354905 -0.220124
v 0.196377 0.348424 -0.220124
v 0.196377 0.326136 -0.220124
v 0.196377 0.319655 -0.220124
v 0.170124 0.319655 -0.246377
v 0.170124 0.326136 -0.246377
v 0.196377 0.348424 0.220124
v 0.196377 0.354905 0.220124
v 0.170124 0.354905 0.246377
v 0.170124 0.348424 0.246377
v 0.170124 0.326136 0.246377
v 0.170124 0.319655 0.246377
v 0.196377 0.319655 0.220124
v 0.196377 0.326136 0.220124
v -0.025325 0.225123 -0.246079
v -0.024843 0.231893 -0.246079
v -0.024843 0.231893 0.246079
v -0.025325 0.225123 0.246079
v 0.114597 0.496377 -0.236821
v 0.121078 0.496377 -0.236821
v 0.121078 0.486821 -0.246377
v 0.114597 0.486821 -0.246377
v 0.114597 0.486821 0.246377
v 0.121078 0.486821 0.246377
v 0.121078 0.496377 0.236821
v 0.114597 0.496377 0.236821
v 0.196079 -0.000000 0.157827
v 0.196079 0.000000 0.151346
v 0.196079 0.000000 -0.151346
v 0.196079 0.000000 -0.157827
v 0.200000 0.112808 -0.128773
v 0.200000 0.112808 0.128773
v 0.200000 0.136259 0.128773
v 0.200000 0.136259 -0.128773
v 0.200000 0.131917 -0.138795
v 0.200000 0.131917 0.138795
v 0.200000 0.117150 0.138795
v 0.200000 0.117150 -0.138795
v 0.199283 0.134970 -0.127483
v 0.199283 0.134970 0.127483
v 0.199283 0.114097 0.127483
v 0.199283 0.114097 -0.127483
v 0.199283 0.136259 -0.128773
v 0.199283 0.136259 0.128773
v 0.199283 0.112808 0.128773
v 0.199283 0.112808 -0.128773
v 0.203308 0.130730 -0.123243
v 0.203308 0.130730 0.123243
v 0.203308 0.118337 0.123243
v 0.203308 0.118337 -0.123243
v 0.203308 0.134970 -0.127483
v 0.203308 0.134970 0.127483
v 0.203308 0.114097 0.127483
v 0.203308 0.114097 -0.127483
v 0.202511 0.128931 -0.121444
v 0.202511 0.128931 0.121444
v 0.202511 0.120136 0.121444
v 0.202511 0.120136 -0.121444
v 0.202511 0.130730 -0.123243
v 0.202511 0.130730 0.123243
v 0.202511 0.118337 0.123243
v 0.202511 0.118337 -0.123243
v 0.201801 0.128931 -0.121444
v 0.201801 0.128931 0.121444
v 0.201801 0.120136 0.121444
v 0.201801 0.120136 -0.121444
v 0.075327 0.109968 0.250000
v 0.075327 0.109968 -0.250000
v 0.089607 0.117150 -0.250000
v 0.089607 0.131917 -0.250000
v 0.075327 0.139099 -0.250000
v 0.075327 0.139099 0.250000
v 0.089607 0.131917 0.250000
v 0.082425 0.109968 0.246377
v 0.082425 0.139099 0.246079
v 0.089607 0.117150 0.250000
v 0.075327 0.109968 0.246377
v 0.075327 0.139099 0.246079
v 0.114597 0.146097 0.246079
v 0.045120 0.146118 0.246079
v 0.071371 0.139099 0.246079
v 0.071371 0.109968 0.246377
v 0.075327 0.139099 -0.246079
v 0.075327 0.109968 -0.246377
v 0.082425 0.109968 -0.246377
v 0.082425 0.139099 -0.246079
v 0.200000 0.109968 0.221625
v 0.171625 0.109968 0.250000
v 0.171625 0.139099 0.250000
v 0.200000 0.139099 0.221625
v 0.171625 0.109968 -0.250000
v 0.200000 0.109968 -0.221625
v 0.200000 0.139099 -0.221625
v 0.171625 0.139099 -0.250000
v 0.200000 0.139099 0.131613
v 0.200000 0.109968 0.131613
v 0.200000 0.109968 -0.131613
v 0.200000 0.139099 -0.131613
v 0.082425 0.139099 -0.250000
v 0.082425 0.109968 -0.250000
v 0.082425 0.139099 0.250000
v 0.082425 0.109968 0.250000
v 0.197879 0.131917 -0.220746
v 0.197879 0.117150 -0.220746
v 0.197879 0.117150 0.220746
v 0.197879 0.131917 0.220746
v 0.170746 0.117150 0.247879
v 0.170746 0.131917 0.247879
v 0.170746 0.131917 -0.247879
v 0.170746 0.117150 -0.247879
v 0.197879 0.131917 0.138795
v 0.197879 0.117150 0.138795
v 0.197879 0.117150 -0.138795
v 0.197879 0.131917 -0.138795
v 0.089607 0.131917 -0.247879
v 0.089607 0.117150 -0.247879
v 0.089607 0.131917 0.247879
v 0.089607 0.117150 0.247879
v 0.200000 0.319655 0.221625
v 0.200000 0.319655 -0.221625
v 0.200000 0.145580 -0.221625
v 0.200000 0.145580 0.221625
v 0.200000 0.312097 0.188694
v 0.200000 0.312097 -0.188694
v 0.200000 0.153138 -0.188694
v 0.200000 0.153138 0.188694
v 0.121078 0.326136 0.250000
v 0.121078 0.348424 0.250000
v 0.121078 0.348424 -0.250000
v 0.121078 0.326136 -0.250000
v 0.200000 0.348424 -0.221625
v 0.171625 0.348424 -0.250000
v 0.171625 0.326136 -0.250000
v 0.200000 0.326136 -0.221625
v 0.171625 0.348424 0.250000
v 0.200000 0.348424 0.221625
v 0.200000 0.326136 0.221625
v 0.171625 0.326136 0.250000
v 0.124569 0.329626 0.250000
v 0.124569 0.344934 0.250000
v 0.124569 0.344934 -0.250000
v 0.124569 0.329626 -0.250000
v 0.199884 0.341725 -0.220860
v 0.171607 0.341725 -0.249138
v 0.171607 0.332835 -0.249138
v 0.199884 0.332835 -0.220860
v 0.171607 0.341725 0.249138
v 0.199884 0.341725 0.220860
v 0.199884 0.332835 0.220860
v 0.171607 0.332835 0.249138
v 0.200000 0.488322 0.221625
v 0.200000 0.488322 -0.221625
v 0.200000 0.354905 -0.221625
v 0.200000 0.354905 0.221625
v 0.190693 0.469890 0.203378
v 0.190693 0.469890 -0.203378
v 0.190693 0.373336 -0.203378
v 0.190693 0.373336 0.203378
v 0.190693 0.477928 0.211231
v 0.190693 0.477928 -0.211231
v 0.190693 0.365299 -0.211231
v 0.190693 0.365299 0.211231
v -0.158743 0.157442 0.184901
v -0.158743 0.307793 0.184901
v -0.158743 0.307793 -0.184901
v -0.158743 0.157442 -0.184901
v 0.191163 0.306826 -0.184048
v 0.191163 0.158409 -0.184048
v 0.191163 0.158409 0.184048
v 0.191163 0.306826 0.184048
v -0.124210 0.469890 0.203378
v -0.124210 0.469890 -0.203378
v -0.124210 0.373336 -0.203378
v -0.124210 0.373336 0.203378
vn -0.0000 -0.0000 1.0000
vn -1.0000 -0.0000 -0.0000
vn 0.7071 -0.0000 0.7071
vn -0.0000 -1.0000 -0.0000
vn -0.7071 -0.0000 0.7071
vn -0.0000 -0.0000 -1.0000
vn -0.7071 -0.0000 -0.7071
vn -0.0000 1.0000 -0.0000
vn 0.7071 -0.0000 -0.7071
vn 1.0000 -0.0000 -0.0000
vn -0.0000 0.7071 -0.7071
vn -0.0000 0.7071 0.7071
vn 0.5000 0.7071 -0.5000
vn 0.5000 0.7071 0.5000
vn -0.5000 0.7071 0.5000
vn -0.5000 0.7071 -0.5000
vn -0.7071 0.7071 -0.0000
vn 0.7071 0.7071 -0.0000
vn 0.7750 0.6320 -0.0000
vn 0.0003 1.0000 -0.0003
vn 0.0003 1.0000 -0.0001
vn 0.0003 1.0000 0.0003
vn -0.0003 -1.0000 -0.0000
vn 0.0014 0.0006 1.0000
vn 0.0014 0.0006 -1.0000
vn -0.0061 -0.0000 1.0000
vn -0.0061 -0.0000 -1.0000
vn 0.0021 -0.0001 1.0000
vn 0.0021 -0.0001 -1.0000
vn -0.0059 0.0015 -1.0000
vn -0.0059 0.0015 1.0000
vn 0.0006 -0.0022 1.0000
vn 0.0006 -0.0022 -1.0000
vn 1.0000 -0.0012 0.0047
vn 1.0000 -0.0012 -0.0047
vn -0.7749 -0.6321 -0.0000
vn 0.0003 1.0000 0.0001
vn -0.0000 0.0102 0.9999
vn -0.0000 0.0102 -0.9999
vn -0.0028 1.0000 -0.0000
vn -0.0028 -1.0000 -0.0000
vn 0.2508 -0.0000 0.9680
vn 0.2508 -0.0000 -0.9680
vn 0.6942 -0.1903 -0.6942
vn 0.6942 0.1903 -0.6942
vn 0.6942 -0.1903 0.6942
vn 0.6942 0.1903 0.6942
vn -0.0000 -0.2594 0.9658
vn -0.0000 -0.2594 -0.9658
vn -0.0000 0.2594 0.9658
vn -0.0000 0.2594 -0.9658
vn 0.9994 -0.0360 -0.0000
vn 0.9994 0.0360 -0.0000
vn -0.0024 -0.0000 -1.0000
vn -0.0024 -0.0000 1.0000
vt 0.557649 0.519385
vt 0.613964 0.519385
vt 0.490946 0.982265
vt 0.490946 0.890527
vt 0.619161 0.890828
vt 0.619161 0.982265
vt 0.448049 0.803377
vt 0.619161 0.803377
vt 0.619161 0.846800
vt 0.448059 0.846800
vt 0.447790 0.014188
vt 0.487590 0.014188
vt 0.487590 0.235812
vt 0.447790 0.235812
vt 0.447790 0.735812
vt 0.534827 0.735812
vt 0.534827 0.767735
vt 0.447790 0.767735
vt 0.440958 0.735812
vt 0.440958 0.767735
vt 0.375000 0.000000
vt 0.426744 0.000000
vt 0.426744 0.014188
vt 0.375000 0.014188
vt 0.545870 0.767735
vt 0.545870 0.795149
vt 0.541410 0.795149
vt 0.541410 0.767735
vt 0.447790 0.799326
vt 0.444550 0.801351
vt 0.426744 0.267735
vt 0.426744 0.482265
vt 0.375000 0.482265
vt 0.375000 0.267735
vt 0.490946 0.014188
vt 0.619161 0.014188
vt 0.619161 0.235812
vt 0.490946 0.235812
vt 0.375000 0.767735
vt 0.426744 0.767735
vt 0.426744 0.982265
vt 0.375000 0.982265
vt 0.552453 0.767735
vt 0.619161 0.767735
vt 0.619161 0.799326
vt 0.552453 0.799326
vt 0.490946 0.000000
vt 0.619161 0.000000
vt 0.375000 0.235812
vt 0.426744 0.235812
vt 0.447790 0.850285
vt 0.487562 0.890828
vt 0.487581 0.982265
vt 0.447790 0.982265
vt 0.534827 0.799326
vt 0.487562 0.359172
vt 0.447790 0.399715
vt 0.447790 0.267735
vt 0.487581 0.267735
vt 0.448059 0.403200
vt 0.490946 0.359473
vt 0.619161 0.359172
vt 0.619161 0.403200
vt 0.375000 0.735812
vt 0.426744 0.735812
vt 0.429984 0.982265
vt 0.429984 0.767735
vt 0.429984 0.823030
vt 0.429984 0.830571
vt 0.487590 0.014188
vt 0.447790 0.014188
vt 0.447790 0.000000
vt 0.487581 0.000000
vt 0.490946 0.890527
vt 0.619161 0.267735
vt 0.490946 0.267735
vt 0.552453 0.450674
vt 0.619161 0.450674
vt 0.619161 0.482265
vt 0.552452 0.482265
vt 0.545870 0.454851
vt 0.545870 0.482265
vt 0.541410 0.482265
vt 0.541410 0.454851
vt 0.448059 0.403200
vt 0.619161 0.446623
vt 0.448049 0.446623
vt 0.632299 0.516606
vt 0.645758 0.505839
vt 0.674326 0.505839
vt 0.674326 0.744161
vt 0.645758 0.744161
vt 0.632299 0.733394
vt 0.444550 0.014188
vt 0.444550 0.235812
vt 0.429984 0.235812
vt 0.429984 0.014188
vt 0.447790 0.235812
vt 0.444550 0.014188
vt 0.429984 0.000000
vt 0.444550 0.000000
vt 0.444550 0.267735
vt 0.429984 0.267735
vt 0.426744 0.514188
vt 0.375000 0.514188
vt 0.426744 0.482265
vt 0.433575 0.555603
vt 0.433575 0.514188
vt 0.426744 0.546086
vt 0.375000 0.546086
vt 0.429984 0.482265
vt 0.552452 0.482265
vt 0.619161 0.514188
vt 0.552452 0.514188
vt 0.541410 0.735812
vt 0.541410 0.514188
vt 0.545870 0.514188
vt 0.545870 0.735812
vt 0.625000 0.270758
vt 0.625000 0.446623
vt 0.619161 0.446623
vt 0.490946 0.359473
vt 0.490946 0.267735
vt 0.619161 0.767735
vt 0.552453 0.767735
vt 0.552453 0.735812
vt 0.619161 0.735812
vt 0.625000 0.450674
vt 0.625000 0.479242
vt 0.625000 0.803377
vt 0.625000 0.979242
vt 0.619161 0.803377
vt 0.625000 0.486113
vt 0.625000 0.510340
vt 0.625000 0.739660
vt 0.625000 0.763887
vt 0.625000 0.001710
vt 0.625000 0.012477
vt 0.625000 0.239660
vt 0.625000 0.263887
vt 0.625000 0.016606
vt 0.625000 0.233394
vt 0.625000 0.770758
vt 0.625000 0.799326
vt 0.447790 0.450674
vt 0.534827 0.450674
vt 0.534827 0.482265
vt 0.447790 0.482265
vt 0.375000 0.703914
vt 0.426744 0.703913
vt 0.536448 0.803377
vt 0.444550 0.448649
vt 0.444549 0.403200
vt 0.426744 0.700673
vt 0.375000 0.700673
vt 0.375000 0.549327
vt 0.426744 0.549327
vt 0.538068 0.735812
vt 0.538068 0.767735
vt 0.429984 0.735812
vt 0.678377 0.505839
vt 0.678377 0.744161
vt 0.549212 0.767735
vt 0.549212 0.735812
vt 0.433575 0.862128
vt 0.433575 0.767735
vt 0.550832 0.803377
vt 0.550832 0.446623
vt 0.536448 0.446623
vt 0.538068 0.482265
vt 0.538068 0.514188
vt 0.549212 0.450674
vt 0.538068 0.450674
vt 0.534827 0.514188
vt 0.538068 0.799326
vt 0.549212 0.799326
vt 0.549212 0.514188
vt 0.549212 0.482265
vt 0.444550 0.735812
vt 0.444550 0.690806
vt 0.444550 0.559194
vt 0.444550 0.514188
vt 0.444550 0.373283
vt 0.429984 0.373283
vt 0.433575 0.735812
vt 0.552453 0.735812
vt 0.552452 0.514188
vt 0.444550 0.982265
vt 0.444550 0.876717
vt 0.444550 0.876717
vt 0.550832 0.446623
vt 0.536448 0.446623
vt 0.429984 0.702293
vt 0.429984 0.547707
vt 0.444550 0.846800
vt 0.854242 0.505839
vt 0.867701 0.516606
vt 0.867701 0.733394
vt 0.854242 0.744161
vt 0.447790 0.482265
vt 0.447790 0.514188
vt 0.444549 0.767735
vt 0.429984 0.514188
vt 0.444550 0.482265
vt 0.447790 0.735812
vt 0.357265 0.750000
vt 0.429984 0.559194
vt 0.429984 0.690806
vt 0.431404 0.689386
vt 0.431404 0.560614
vt 0.440958 0.694397
vt 0.443130 0.689386
vt 0.443130 0.560614
vt 0.432049 0.688742
vt 0.432049 0.561258
vt 0.442485 0.688742
vt 0.442485 0.561258
vt 0.440365 0.563378
vt 0.440365 0.686622
vt 0.434169 0.686622
vt 0.434169 0.563378
vt 0.435068 0.685722
vt 0.435068 0.564278
vt 0.439465 0.685722
vt 0.439465 0.564278
vt 0.440958 0.862128
vt 0.429984 0.876717
vt 0.444550 0.823485
vt 0.444550 0.870394
vt 0.444550 0.830960
vt 0.429984 0.870394
vt 0.444550 0.379606
vt 0.429984 0.379606
vt 0.433575 0.482265
vt 0.440958 0.514188
vt 0.440958 0.482265
vt 0.433575 0.694397
vt 0.440958 0.555603
vt 0.440958 0.387872
vt 0.433575 0.387872
vt 0.531048 0.732033
vt 0.531048 0.517967
vt 0.451569 0.517967
vt 0.451569 0.732033
vt 0.451569 0.732033
vt 0.539813 0.797144
vt 0.547467 0.797144
vt 0.547467 0.452855
vt 0.539813 0.452855
vt 0.547467 0.514188
vt 0.547467 0.482265
vt 0.539813 0.482265
vt 0.539813 0.514188
vt 0.547467 0.767735
vt 0.547467 0.735812
vt 0.539813 0.735812
vt 0.539813 0.767735
vt 0.613964 0.730615
vt 0.557650 0.730615
vt 0.612136 0.728787
vt 0.612135 0.521213
vt 0.559478 0.521213
vt 0.559478 0.728787
s 0
usemtl M_Blanc
f 215/31/19 133/32/19 426/32/19 427/31/19
f 198/33/19 155/34/19 118/35/19 123/36/19
f 146/37/19 221/38/19 117/39/19 151/40/19
f 388/45/21 385/46/21 210/47/21 195/48/21
f 193/49/22 196/50/22 374/50/22 372/49/22
f 199/65/20 121/66/20 127/67/20 202/68/20
f 207/73/19 129/74/19 222/75/19 164/76/19
f 199/65/23 198/77/23 123/78/23 121/66/23
f 195/48/19 210/47/19 162/85/19 145/59/19
f 150/90/24 154/91/24 119/92/24 116/93/24
f 155/104/19 151/40/19 117/39/19 118/35/19
f 127/67/25 125/105/25 203/106/25 202/68/25
f 158/107/24 227/108/24 135/109/24 214/110/24
f 150/115/24 116/93/24 228/116/24 148/117/24
f 132/118/26 134/119/26 226/120/26 223/121/26 128/122/26 130/123/26
f 304/137/26 181/138/26 370/138/26 379/137/26
f 214/142/27 135/109/27 418/143/27 419/144/27
f 124/149/29 225/150/29 228/151/29 116/93/29 119/92/29 125/105/29
f 154/152/24 203/153/24 125/105/24 119/92/24
f 129/154/21 207/155/21 420/156/21 417/157/21
f 135/109/29 227/108/29 226/158/29 134/159/29
f 224/160/30 122/161/30 123/36/30 118/35/30 117/39/30 221/162/30
f 134/163/31 132/164/31 418/143/31 135/109/31
f 130/165/32 128/166/32 129/154/32 417/157/32
f 122/167/33 120/168/33 121/66/33 123/78/33
f 126/169/34 124/170/34 125/105/34 127/67/34
f 120/171/35 126/172/35 127/67/35 121/66/35
f 222/75/30 129/74/30 128/173/30 223/174/30
f 147/175/24 160/176/24 219/177/24 186/178/24
f 132/118/36 130/123/36 417/157/36 418/143/36
f 227/108/20 158/107/20 114/107/20 287/108/20
f 388/45/22 195/48/22 82/48/22 83/45/22
f 164/76/20 222/75/20 290/75/20 103/76/20
f 353/190/22 354/97/22 88/97/22 85/190/22
f 223/121/20 226/120/20 286/120/20 291/121/20
f 210/47/26 385/46/26 279/46/26 278/47/26
f 225/191/28 224/192/28 292/192/28 285/191/28
f 224/160/28 221/162/28 289/162/28 292/160/28
f 342/195/26 189/196/26 373/196/26 384/195/26
f 222/75/20 223/174/20 291/174/20 290/75/20
f 221/38/28 146/37/28 345/37/28 106/181/28 105/197/28 289/38/28
f 420/156/22 207/155/22 275/155/22 274/156/22
f 148/117/28 228/116/28 288/116/28 112/198/28 111/199/28 142/117/28
f 228/151/28 225/150/28 285/150/28 288/151/28
f 226/158/20 227/108/20 287/108/20 286/158/20
f 386/204/26 219/177/26 271/177/26 270/204/26
f 219/177/26 160/176/26 109/176/26 271/177/26
f 162/85/26 210/47/26 278/47/26 108/85/26
f 214/142/22 419/144/22 267/144/22 266/142/22
f 356/209/26 361/210/26 364/211/26 359/212/26 248/212/26 84/209/26
f 385/46/26 386/204/26 270/204/26 279/46/26
f 195/48/22 145/59/22 143/59/22 82/48/22
f 202/68/22 203/106/22 263/106/22 262/68/22
f 147/175/22 186/178/22 246/178/22 141/175/22
f 203/153/22 154/152/22 282/152/22 263/153/22
f 189/196/26 192/215/26 371/215/26 373/196/26
f 198/77/22 199/65/22 259/65/22 258/77/22
f 146/37/41 151/40/41 346/40/41 345/37/41
f 199/65/22 202/68/22 262/68/22 259/65/22
f 420/216/22 274/216/22 267/217/22 419/217/22
f 225/191/26 124/226/26 126/227/26 120/228/26 122/229/26 224/192/26
f 186/230/27 219/177/27 386/204/27 387/231/27
f 154/152/54 150/90/54 139/90/54 282/152/54
f 355/232/26 356/209/26 84/209/26 81/232/26
f 151/40/54 155/104/54 283/104/54 346/40/54
f 147/175/20 141/175/20 109/176/20 160/176/20
f 150/115/41 148/117/41 142/117/41 139/115/41
f 357/141/22 358/233/22 241/233/22 244/141/22
f 207/73/22 164/76/22 103/76/22 275/73/22
f 388/235/22 83/235/22 247/231/22 387/231/22
f 186/230/22 387/231/22 247/231/22 246/230/22
f 359/212/26 360/234/26 245/234/26 248/212/26
f 145/59/20 162/85/20 108/85/20 143/59/20
f 158/107/22 214/110/22 266/110/22 114/107/22
f 155/34/22 198/33/22 258/33/22 283/34/22
f 358/233/22 363/237/22 362/238/22 353/190/22 85/190/22 100/223/22 99/224/22 241/233/22
f 298/239/26 297/240/26 312/240/26 311/239/26
f 302/241/22 193/49/22 372/49/22 377/241/22
f 299/242/28 300/243/28 364/211/28 361/210/28
f 298/239/28 299/242/28 361/210/28 362/238/28
f 297/240/28 298/239/28 362/238/28 363/237/28
f 300/243/28 297/240/28 363/237/28 364/211/28
f 300/243/22 299/242/22 310/242/22 309/243/22
f 297/240/19 300/243/19 309/243/19 312/240/19
f 299/242/24 298/239/24 311/239/24 310/242/24
f 339/256/28 342/195/28 384/195/28 383/256/28
f 81/232/26 144/60/26 341/258/26 367/259/26 355/232/26
f 367/259/20 341/259/20 340/261/20 368/261/20
f 354/97/22 368/261/22 340/261/22 88/97/22
f 352/262/20 365/262/20 366/263/20 351/263/20
f 360/234/26 365/262/26 352/262/26 245/234/26
f 244/141/22 351/263/22 366/263/22 357/141/22
f 192/215/21 189/196/21 354/97/21 353/190/21
f 196/50/21 193/49/21 356/209/21 355/232/21
f 184/264/27 181/138/27 358/233/27 357/141/27
f 188/265/27 185/266/27 360/234/27 359/212/27
f 302/241/28 303/267/28 362/238/28 361/210/28
f 304/137/28 301/268/28 364/211/28 363/237/28
f 303/267/28 192/215/28 353/190/28 362/238/28
f 193/49/28 302/241/28 361/210/28 356/209/28
f 181/138/28 304/137/28 363/237/28 358/233/28
f 301/268/28 188/265/28 359/212/28 364/211/28
f 336/269/24 335/270/24 366/263/24 365/262/24
f 339/256/19 196/50/19 355/232/19 367/259/19
f 185/266/24 336/269/24 365/262/24 360/234/24
f 335/270/24 184/264/24 357/141/24 366/263/24
f 342/195/19 339/256/19 367/259/19 368/261/19
f 189/196/19 342/195/19 368/261/19 354/97/19
f 188/265/22 301/268/22 380/268/22 369/265/22
f 181/138/26 184/264/26 376/264/26 370/138/26
f 335/270/28 336/269/28 381/269/28 382/270/28
f 185/266/22 188/265/22 369/265/22 375/266/22
f 196/50/22 339/256/22 383/256/22 374/50/22
f 303/267/19 302/241/19 377/241/19 378/267/19
f 336/269/22 185/266/22 375/266/22 381/269/22
f 301/268/24 304/137/24 379/137/24 380/268/24
f 184/264/26 335/270/26 382/270/26 376/264/26
f 192/215/26 303/267/26 378/267/26 371/215/26
f 389/271/28 390/272/28 386/204/28 385/46/28
f 391/273/28 392/274/28 388/235/28 387/231/28
f 392/274/28 389/271/28 385/46/28 388/235/28
f 390/272/28 391/273/28 387/231/28 386/204/28
f 211/271/22 218/272/22 390/272/22 389/271/22
f 187/273/26 194/275/26 392/274/26 391/273/26
f 194/275/24 211/271/24 389/271/24 392/274/24
f 218/272/19 187/273/19 391/273/19 390/272/19
f 131/288/28 133/32/28 418/143/28 417/157/28
f 215/31/28 206/289/28 420/216/28 419/217/28
f 206/289/28 131/288/28 417/157/28 420/216/28
f 133/32/28 215/31/28 419/217/28 418/143/28
f 206/289/26 215/31/26 427/31/26 428/289/26
f 131/288/24 206/289/24 428/289/24 425/288/24
f 133/32/22 131/288/22 425/288/22 426/32/22
usemtl M_Noir_Profond
f 143/59/19 345/37/19 144/60/19
f 240/96/19 239/71/19 87/70/19 88/97/19 340/98/19 348/99/19
f 250/61/24 249/133/24 244/141/24 243/62/24
f 106/181/19 345/37/19 143/59/19 108/85/19
f 139/115/24 142/117/24 140/182/24 138/183/24 137/87/24
f 141/175/24 140/182/24 142/117/24
f 113/202/24 112/221/24 114/107/24
f 110/203/24 109/176/24 111/222/24
f 107/205/19 106/181/19 108/85/19
f 104/206/19 103/76/19 105/197/19
f 101/184/28 100/223/28 102/180/28
f 98/187/28 97/139/28 99/224/28
f 80/218/42 136/225/42 115/81/42 79/84/42
f 111/199/24 109/176/24 141/175/24 142/117/24
f 255/88/43 137/87/43 138/183/43 256/132/43
f 107/205/19 104/206/19 105/197/19 106/181/19
f 113/202/24 110/203/24 111/222/24 112/198/24
f 87/70/21 86/95/21 85/190/21 88/97/21
f 83/45/21 82/48/21 81/232/21 84/209/21
f 79/102/23 78/101/23 77/129/23 80/131/23
f 238/53/23 239/52/23 240/130/23 237/127/23
f 242/134/27 243/136/27 244/141/27 241/233/27
f 246/230/27 247/231/27 248/212/27 245/234/27
f 250/61/25 251/80/25 252/126/25 249/133/25
f 254/128/25 255/88/25 256/132/25 253/125/25
f 258/77/23 259/65/23 260/100/23 257/103/23
f 262/68/25 263/106/25 264/89/25 261/43/25
f 266/142/27 267/144/27 268/207/27 265/208/27
f 270/204/27 271/177/27 272/200/27 269/201/27
f 274/156/21 275/155/21 276/193/21 273/194/21
f 278/47/21 279/46/21 280/188/21 277/189/21
f 137/87/24 281/86/24 282/152/24 139/90/24
f 346/40/19 283/104/19 284/82/19 115/81/19
f 237/127/20 252/126/20 251/80/20 238/53/20
f 104/206/44 276/193/44 275/73/44 103/76/44
f 265/208/45 113/202/45 114/107/45 266/110/45
f 283/34/46 258/33/46 257/83/46 284/82/46
f 78/41/20 254/44/20 253/125/20 77/124/20
f 259/65/20 262/68/20 261/43/20 260/42/20
f 263/153/47 282/152/47 281/86/47 264/89/47
f 141/175/48 246/178/48 245/234/48 140/182/48
f 82/48/49 143/59/49 144/60/49 81/232/49
f 277/189/44 107/205/44 108/85/44 278/47/44
f 110/203/45 272/200/45 271/177/45 109/176/45
f 286/158/29 287/108/29 288/151/29 285/150/29
f 290/75/30 291/174/30 292/160/30 289/162/30
f 285/191/26 292/192/26 291/121/26 286/120/26
f 103/76/50 290/75/50 289/38/50 105/197/50
f 287/108/51 114/107/51 112/221/51 288/116/51
f 84/209/28 248/212/28 247/231/28 83/235/28
f 101/184/28 98/187/28 99/224/28 100/223/28
f 269/201/28 280/188/28 279/46/28 270/204/28
f 273/194/28 268/207/28 267/217/28 274/216/28
f 102/180/28 293/179/28 294/185/28 101/184/28
f 296/140/28 97/139/28 98/187/28 295/186/28
f 97/139/52 242/134/52 241/233/52 99/224/52
f 86/95/53 102/180/53 100/223/53 85/190/53
f 306/246/28 305/247/28 309/243/28 310/242/28
f 307/244/28 306/246/28 310/242/28 311/239/28
f 308/245/28 307/244/28 311/239/28 312/240/28
f 305/247/28 308/245/28 312/240/28 309/243/28
f 323/252/26 324/253/26 332/253/26 331/252/26
f 322/254/28 321/255/28 325/248/28 326/249/28
f 323/252/28 322/254/28 326/249/28 327/250/28
f 324/253/28 323/252/28 327/250/28 328/251/28
f 321/255/28 324/253/28 328/251/28 325/248/28
f 321/255/22 322/254/22 330/254/22 329/255/22
f 324/253/19 321/255/19 329/255/19 332/253/19
f 322/254/24 323/252/24 331/252/24 330/254/24
f 346/40/19 115/81/19 136/225/19 347/260/19 341/258/19 144/60/19 345/37/19
f 340/261/56 341/259/56 344/220/56 343/257/56
f 350/214/57 349/213/57 352/262/57 351/263/57
f 432/273/28 431/272/28 430/271/28 429/274/28
f 421/290/28 422/291/28 426/32/28 425/288/28
f 423/292/28 424/293/28 428/289/28 427/31/28
f 424/293/28 421/290/28 425/288/28 428/289/28
f 422/291/28 423/292/28 427/31/28 426/32/28
f 424/293/26 423/292/26 439/292/26 440/293/26
f 437/290/28 440/293/28 439/292/28 438/291/28
f 421/290/24 424/293/24 440/293/24 437/290/24
f 422/291/22 421/290/22 437/290/22 438/291/22
f 423/292/19 422/291/19 438/291/19 439/292/19
usemtl M_Orange
f 167/41/20 200/42/20 201/43/20 178/44/20
f 152/81/19 156/82/19 197/83/19 166/84/19
f 153/86/24 149/87/24 179/88/24 204/89/24
f 200/100/23 167/101/23 166/102/23 197/103/23
f 204/89/25 179/88/25 178/128/25 201/43/25
f 149/87/37 153/86/37 281/86/37 137/87/37
f 204/89/38 201/43/38 261/43/38 264/89/38
f 152/81/22 166/84/22 79/84/22 115/81/22
f 153/86/39 204/89/39 264/89/39 281/86/39
f 200/100/40 197/103/40 257/103/40 260/100/40
f 149/87/22 137/87/22 255/88/22 179/88/22
f 201/43/26 200/42/26 260/42/26 261/43/26
f 178/128/22 179/88/22 255/88/22 254/128/22
f 167/41/22 178/44/22 254/44/22 78/41/22
f 166/102/22 167/101/22 78/101/22 79/102/22
f 156/82/37 152/81/37 115/81/37 284/82/37
f 197/83/55 156/82/55 284/82/55 257/83/55
f 376/264/27 375/266/27 369/265/27 370/138/27
f 371/215/21 372/49/21 374/50/21 373/196/21
f 374/50/19 383/256/19 384/195/19 373/196/19
f 370/138/28 369/265/28 380/268/28 379/137/28
f 378/267/28 377/241/28 372/49/28 371/215/28
f 381/269/24 375/266/24 376/264/24 382/270/24
usemtl M_Noir_Bleuté
f 89/51/23 171/52/23 170/53/23 90/54/23
f 413/55/19 163/56/19 161/57/19 416/58/19
f 174/61/24 183/62/24 95/63/24 92/64/24
f 94/69/19 190/70/19 171/71/19 89/72/19
f 174/61/25 92/64/25 91/79/25 175/80/25
f 93/94/21 191/95/21 190/70/21 94/69/21
f 157/111/24 410/112/24 411/113/24 159/114/24
f 168/124/20 177/125/20 176/126/20 169/127/20
f 168/129/23 169/127/23 172/130/23 165/131/23
f 90/54/20 170/53/20 175/80/20 91/79/20
f 176/126/25 177/125/25 180/132/25 173/133/25
f 182/134/27 96/135/27 95/63/27 183/136/27
f 96/135/28 182/134/28 232/139/28 233/140/28
f 415/145/28 412/146/28 409/147/28 414/148/28
f 413/55/21 416/58/21 415/145/21 414/148/21
f 409/147/27 412/146/27 411/113/27 410/112/27
f 236/179/28 230/180/28 191/95/28 93/94/28
f 229/184/28 235/185/28 234/186/28 231/187/28
f 403/188/22 404/189/22 277/189/22 280/188/22
f 190/70/26 191/95/26 86/95/26 87/70/26
f 401/193/26 402/194/26 273/194/26 276/193/26
f 399/200/22 400/201/22 269/201/22 272/200/22
f 395/202/20 396/203/20 110/203/20 113/202/20
f 393/205/20 394/206/20 104/206/20 107/205/20
f 397/207/26 398/208/26 265/208/26 268/207/26
f 396/203/22 399/200/22 272/200/22 110/203/22
f 191/95/26 230/180/26 102/180/26 86/95/26
f 404/189/22 393/205/22 107/205/22 277/189/22
f 232/139/26 182/134/26 242/134/26 97/139/26
f 171/71/26 190/70/26 87/70/26 239/71/26
f 180/132/24 337/213/24 334/214/24 173/133/24
f 183/62/26 174/61/26 250/61/26 243/62/26
f 403/188/22 280/188/22 269/201/22 400/201/22
f 180/132/26 177/125/26 253/125/26 256/132/26
f 177/125/26 168/124/26 77/124/26 253/125/26
f 80/131/26 165/218/26 338/219/26 344/220/26
f 169/127/22 176/126/22 252/126/22 237/127/22
f 168/129/26 165/131/26 80/131/26 77/129/26
f 229/184/26 231/187/26 98/187/26 101/184/26
f 175/80/26 170/53/26 238/53/26 251/80/26
f 170/53/26 171/52/26 239/52/26 238/53/26
f 172/130/22 169/127/22 237/127/22 240/130/22
f 182/134/26 183/136/26 243/136/26 242/134/26
f 402/194/26 397/207/26 268/207/26 273/194/26
f 394/206/26 401/193/26 276/193/26 104/206/26
f 230/180/24 236/179/24 293/179/24 102/180/24
f 93/94/22 94/236/22 95/63/22 96/135/22 233/140/22 296/140/22 295/186/22 234/186/22 235/185/22 294/185/22 293/179/22 236/179/22
f 398/208/26 395/202/26 113/202/26 265/208/26
f 235/185/19 229/184/19 101/184/19 294/185/19
f 174/61/26 175/80/26 251/80/26 250/61/26
f 233/140/19 232/139/19 97/139/19 296/140/19
f 231/187/24 234/186/24 295/186/24 98/187/24
f 176/126/22 173/133/22 249/133/22 252/126/22
f 307/244/22 308/245/22 320/245/22 319/244/22
f 313/248/22 314/249/22 326/249/22 325/248/22
f 305/247/26 306/246/26 318/246/26 317/247/26
f 308/245/24 305/247/24 317/247/24 320/245/24
f 306/246/19 307/244/19 319/244/19 318/246/19
f 314/249/28 313/248/28 317/247/28 318/246/28
f 315/250/28 314/249/28 318/246/28 319/244/28
f 316/251/28 315/250/28 319/244/28 320/245/28
f 313/248/28 316/251/28 320/245/28 317/247/28
f 316/251/19 313/248/19 325/248/19 328/251/19
f 314/249/24 315/250/24 327/250/24 326/249/24
f 315/250/26 316/251/26 328/251/26 327/250/26
f 338/219/19 165/218/19 172/96/19 333/257/19
f 338/219/28 333/257/28 343/257/28 344/220/28
f 343/257/22 333/257/22 172/130/22 240/130/22
f 92/64/22 95/63/22 94/69/22 89/51/22
f 90/54/22 91/79/22 92/64/22 89/51/22
f 350/214/28 334/214/28 337/213/28 349/213/28
f 173/133/22 334/214/22 350/214/22 249/133/22
f 256/132/26 349/213/26 337/213/26 180/132/26
f 218/272/28 211/271/28 436/271/28 433/272/28
f 211/271/28 194/275/28 435/275/28 436/271/28
f 194/275/28 187/273/28 434/273/28 435/275/28
f 187/273/28 218/272/28 433/272/28 434/273/28
f 435/275/58 434/273/58 432/273/58 429/274/58
f 433/272/59 436/271/59 430/271/59 431/272/59
f 405/276/19 406/277/19 394/206/19 393/205/19
f 407/278/24 408/279/24 396/203/24 395/202/24
f 216/280/27 213/281/27 398/208/27 397/207/27
f 220/282/27 217/283/27 400/201/27 399/200/27
f 208/284/21 205/285/21 402/194/21 401/193/21
f 212/286/21 209/287/21 404/189/21 403/188/21
f 406/277/19 208/284/19 401/193/19 394/206/19
f 213/281/24 407/278/24 395/202/24 398/208/24
f 209/287/19 405/276/19 393/205/19 404/189/19
f 408/279/24 220/282/24 399/200/24 396/203/24
f 205/285/28 216/280/28 397/207/28 402/194/28
f 217/283/28 212/286/28 403/188/28 400/201/28
f 161/57/60 163/56/60 406/277/60 405/276/60
f 157/111/61 159/114/61 408/279/61 407/278/61
f 409/147/62 410/112/62 213/281/62 216/280/62
f 411/113/63 412/146/63 217/283/63 220/282/63
f 413/55/64 414/148/64 205/285/64 208/284/64
f 415/145/65 416/58/65 209/287/65 212/286/65
f 163/56/66 413/55/66 208/284/66 406/277/66
f 410/112/67 157/111/67 407/278/67 213/281/67
f 416/58/68 161/57/68 405/276/68 209/287/68
f 159/114/69 411/113/69 220/282/69 408/279/69
f 414/148/70 409/147/70 216/280/70 205/285/70
f 412/146/71 415/145/71 212/286/71 217/283/71
f 430/271/72 436/271/72 435/275/72 429/274/72
f 432/273/73 434/273/73 433/272/73 431/272/73
usemtl M_Cyan
f 330/254/28 331/252/28 332/253/28 329/255/28
