# Blender 4.2.3 LTS
# www.blender.org
mtllib SM_Bedside_Lamp.mtl
o SM_Bedside_Lamp
v 0.073006 0.010300 0.034151
v 0.073006 0.008603 0.034151
v 0.073006 0.008603 0.035849
v 0.073006 0.010300 0.035849
v 0.073006 0.010300 -0.034151
v 0.073006 0.010300 -0.035849
v 0.073006 0.008603 -0.035849
v 0.073006 0.008603 -0.034151
v -0.034151 0.001994 0.034151
v -0.035849 0.001994 0.034151
v -0.035849 0.001994 0.035849
v -0.034151 0.001994 0.035849
v 0.034151 0.001994 0.034151
v 0.034151 0.001994 0.035849
v 0.035849 0.001994 0.035849
v 0.035849 0.001994 0.034151
v -0.034151 0.001994 -0.034151
v -0.034151 0.001994 -0.035849
v -0.035849 0.001994 -0.035849
v -0.035849 0.001994 -0.034151
v 0.034151 0.001994 -0.034151
v 0.035849 0.001994 -0.034151
v 0.035849 0.001994 -0.035849
v 0.034151 0.001994 -0.035849
v 0.034151 0.036692 0.034151
v 0.035849 0.036692 0.034151
v 0.035849 0.036692 0.035849
v 0.034151 0.036692 0.035849
v -0.034151 0.036692 0.034151
v -0.034151 0.036692 0.035849
v -0.035849 0.036692 0.035849
v -0.035849 0.036692 0.034151
v -0.060113 0.001531 0.075000
v -0.075000 0.001531 0.060113
v -0.075000 0.001531 -0.060113
v -0.060113 0.001531 -0.075000
v 0.075000 0.001531 0.060113
v 0.060113 0.001531 0.075000
v 0.060113 0.001531 -0.075000
v 0.075000 0.001531 -0.060113
v 0.034151 0.036692 -0.034151
v 0.034151 0.036692 -0.035849
v 0.035849 0.036692 -0.035849
v 0.035849 0.036692 -0.034151
v -0.034151 0.036692 -0.034151
v -0.035849 0.036692 -0.034151
v -0.035849 0.036692 -0.035849
v -0.034151 0.036692 -0.035849
v -0.075000 0.000000 -0.034151
v -0.075000 0.001531 -0.037380
v -0.075000 0.001531 0.037380
v -0.075000 0.000000 0.034151
v 0.075000 0.001531 0.037380
v 0.075000 0.000000 0.034151
v 0.075000 0.000000 -0.034151
v 0.075000 0.001531 -0.037380
v 0.034151 0.000000 -0.075000
v 0.037380 0.001531 -0.075000
v -0.037380 0.001531 -0.075000
v -0.034151 0.000000 -0.075000
v -0.034151 0.000000 0.075000
v -0.037380 0.001531 0.075000
v 0.037380 0.001531 0.075000
v 0.034151 0.000000 0.075000
v -0.035849 0.038685 -0.035849
v -0.035849 0.038685 -0.034151
v -0.034151 0.038685 -0.034151
v -0.034151 0.038685 -0.035849
v 0.035849 0.038685 -0.035849
v 0.034151 0.038685 -0.035849
v 0.035849 0.038685 -0.034151
v -0.035849 0.038685 0.035849
v -0.034151 0.038685 0.035849
v -0.034151 0.038685 0.034151
v -0.035849 0.038685 0.034151
v 0.035849 0.038685 0.035849
v 0.035849 0.038685 0.034151
v 0.034151 0.038685 0.034151
v 0.034151 0.038685 0.035849
v 0.035849 0.000000 -0.035849
v 0.035849 0.000000 -0.034151
v 0.034151 0.000000 -0.034151
v 0.034151 0.000000 -0.035849
v -0.035849 0.000000 -0.035849
v -0.034151 0.000000 -0.035849
v -0.034151 0.000000 -0.034151
v -0.035849 0.000000 -0.034151
v 0.035849 0.000000 0.035849
v 0.034151 0.000000 0.035849
v 0.034151 0.000000 0.034151
v 0.035849 0.000000 0.034151
v -0.035849 0.000000 0.035849
v -0.035849 0.000000 0.034151
v -0.034151 0.000000 0.034151
v -0.034151 0.000000 0.035849
v 0.075000 0.007071 -0.037380
v 0.075000 0.010300 -0.035849
v 0.075000 0.018453 -0.032012
v 0.075000 0.008603 -0.034151
v 0.075000 0.007071 0.037380
v 0.075000 0.008603 0.034151
v 0.075000 0.018453 0.032012
v 0.075000 0.010300 0.035849
v -0.075000 0.007071 0.037380
v -0.075000 0.010300 0.035849
v -0.075000 0.018453 0.032012
v -0.075000 0.008603 0.034151
v -0.075000 0.007071 -0.037380
v -0.075000 0.008603 -0.034151
v -0.075000 0.018453 -0.032012
v -0.075000 0.010300 -0.035849
v 0.037380 0.007071 0.075000
v 0.035849 0.010300 0.075000
v 0.034151 0.010300 0.075000
v 0.034151 0.008603 0.075000
v -0.037380 0.007071 0.075000
v -0.034151 0.008603 0.075000
v -0.034151 0.010300 0.075000
v -0.035849 0.010300 0.075000
v -0.037380 0.007071 -0.075000
v -0.035849 0.010300 -0.075000
v -0.034151 0.010300 -0.075000
v -0.034151 0.008603 -0.075000
v 0.037380 0.007071 -0.075000
v 0.034151 0.008603 -0.075000
v 0.034151 0.010300 -0.075000
v 0.035849 0.010300 -0.075000
v -0.075000 0.010300 0.060113
v -0.075000 0.007071 0.060113
v -0.060113 0.007071 0.075000
v -0.060113 0.010300 0.075000
v -0.075000 0.007071 -0.060113
v -0.075000 0.010300 -0.060113
v -0.060113 0.010300 -0.075000
v -0.060113 0.007071 -0.075000
v 0.060113 0.007071 -0.075000
v 0.060113 0.010300 -0.075000
v 0.075000 0.010300 -0.060113
v 0.075000 0.007071 -0.060113
v 0.075000 0.007071 0.060113
v 0.075000 0.010300 0.060113
v 0.060113 0.010300 0.075000
v 0.060113 0.007071 0.075000
v -0.073006 0.008603 0.034151
v -0.073006 0.008603 0.035849
v -0.073006 0.010300 0.035849
v -0.073006 0.010300 0.034151
v -0.073006 0.010300 -0.035849
v -0.073006 0.008603 -0.035849
v -0.073006 0.008603 -0.034151
v -0.073006 0.010300 -0.034151
v 0.034151 0.008603 0.073006
v 0.035849 0.008603 0.073006
v 0.035849 0.010300 0.073006
v 0.034151 0.010300 0.073006
v -0.035849 0.010300 0.073006
v -0.035849 0.008603 0.073006
v -0.034151 0.008603 0.073006
v -0.034151 0.010300 0.073006
v -0.034151 0.008603 -0.073006
v -0.035849 0.008603 -0.073006
v -0.035849 0.010300 -0.073006
v -0.034151 0.010300 -0.073006
v 0.035849 0.010300 -0.073006
v 0.035849 0.008603 -0.073006
v 0.034151 0.008603 -0.073006
v 0.034151 0.010300 -0.073006
v -0.073590 0.001410 -0.034151
v -0.073590 0.001410 -0.035849
v -0.073590 0.001410 0.035849
v -0.073590 0.001410 0.034151
v 0.073590 0.001410 -0.034151
v 0.073590 0.001410 -0.035849
v 0.073590 0.001410 0.035849
v 0.073590 0.001410 0.034151
v -0.035849 0.001410 -0.073590
v -0.034151 0.001410 -0.073590
v 0.034151 0.001410 -0.073590
v 0.035849 0.001410 -0.073590
v -0.034151 0.001410 0.073590
v -0.035849 0.001410 0.073590
v 0.035849 0.001410 0.073590
v 0.034151 0.001410 0.073590
v -0.073158 0.010300 0.059350
v -0.073158 0.008603 0.059350
v -0.059350 0.008603 0.073158
v -0.059350 0.010300 0.073158
v -0.073158 0.008603 -0.059350
v -0.073158 0.010300 -0.059350
v -0.059350 0.010300 -0.073158
v -0.059350 0.008603 -0.073158
v 0.059350 0.008603 -0.073158
v 0.059350 0.010300 -0.073158
v 0.073158 0.010300 -0.059350
v 0.073158 0.008603 -0.059350
v 0.073158 0.008603 0.059350
v 0.073158 0.010300 0.059350
v 0.059350 0.010300 0.073158
v 0.059350 0.008603 0.073158
v -0.069854 0.038685 0.058671
v -0.075000 0.033631 0.060113
v -0.060113 0.033631 0.075000
v -0.058671 0.038685 0.069854
v -0.058671 0.038685 -0.069854
v -0.060113 0.033631 -0.075000
v -0.075000 0.033631 -0.060113
v -0.069854 0.038685 -0.058671
v 0.058671 0.038685 0.069854
v 0.060113 0.033631 0.075000
v 0.075000 0.033631 0.060113
v 0.069854 0.038685 0.058671
v 0.069854 0.038685 -0.058671
v 0.075000 0.033631 -0.060113
v 0.060113 0.033631 -0.075000
v 0.058671 0.038685 -0.069854
v -0.075000 0.025378 0.032012
v -0.069793 0.038685 0.034151
v -0.069835 0.038685 0.035849
v -0.075000 0.033599 0.035849
v -0.075000 0.033599 -0.035849
v -0.069835 0.038685 -0.035849
v -0.069793 0.038685 -0.034151
v -0.075000 0.025378 -0.032012
v 0.069793 0.038685 -0.034151
v 0.075000 0.025378 -0.032012
v 0.075000 0.033599 -0.035849
v 0.069835 0.038685 -0.035849
v 0.069835 0.038685 0.035849
v 0.075000 0.033599 0.035849
v 0.075000 0.025378 0.032012
v 0.069793 0.038685 0.034151
v -0.034151 0.038685 -0.069793
v -0.034151 0.033531 -0.075000
v -0.035849 0.033599 -0.075000
v -0.035849 0.038685 -0.069835
v 0.035849 0.038685 -0.069835
v 0.035849 0.033599 -0.075000
v 0.034151 0.033531 -0.075000
v 0.034151 0.038685 -0.069793
v 0.034151 0.038685 0.069793
v 0.034151 0.033531 0.075000
v 0.035849 0.033599 0.075000
v 0.035849 0.038685 0.069835
v -0.035849 0.038685 0.069835
v -0.035849 0.033599 0.075000
v -0.034151 0.033531 0.075000
v -0.034151 0.038685 0.069793
v 0.068313 0.037194 -0.034151
v 0.073477 0.032025 -0.034151
v 0.073477 0.032038 -0.035849
v 0.068321 0.037194 -0.035849
v 0.068321 0.037194 0.035849
v 0.073477 0.032038 0.035849
v 0.073477 0.032025 0.034151
v 0.068313 0.037194 0.034151
v -0.068321 0.037194 -0.035849
v -0.073477 0.032038 -0.035849
v -0.073477 0.032025 -0.034151
v -0.068313 0.037194 -0.034151
v -0.068313 0.037194 0.034151
v -0.073477 0.032025 0.034151
v -0.073477 0.032038 0.035849
v -0.068321 0.037194 0.035849
v 0.035849 0.032038 -0.073477
v 0.035849 0.037194 -0.068321
v 0.034151 0.037194 -0.068313
v 0.034151 0.032025 -0.073477
v -0.034151 0.032025 -0.073477
v -0.034151 0.037194 -0.068313
v -0.035849 0.037194 -0.068321
v -0.035849 0.032038 -0.073477
v 0.034151 0.032025 0.073477
v 0.034151 0.037194 0.068313
v 0.035849 0.037194 0.068321
v 0.035849 0.032038 0.073477
v -0.035849 0.032038 0.073477
v -0.035849 0.037194 0.068321
v -0.034151 0.037194 0.068313
v -0.034151 0.032025 0.073477
v -0.060113 0.000000 -0.075000
v -0.075000 0.000000 -0.060113
v 0.075000 0.000000 -0.060113
v 0.060113 0.000000 -0.075000
v 0.060113 0.000000 0.075000
v 0.075000 0.000000 0.060113
v -0.075000 0.000000 0.060113
v -0.060113 0.000000 0.075000
v 0.075000 0.000000 -0.035849
v 0.075000 0.008603 -0.035849
v 0.075000 0.008603 0.035849
v 0.075000 0.000000 0.035849
v -0.075000 0.000000 0.035849
v -0.075000 0.008603 0.035849
v -0.075000 0.008603 -0.035849
v -0.075000 0.000000 -0.035849
v 0.035849 0.000000 0.075000
v 0.035849 0.008603 0.075000
v -0.035849 0.008603 0.075000
v -0.035849 0.000000 0.075000
v -0.035849 0.000000 -0.075000
v -0.035849 0.008603 -0.075000
v 0.035849 0.008603 -0.075000
v 0.035849 0.000000 -0.075000
v -0.075000 0.008603 0.060113
v -0.060113 0.008603 0.075000
v -0.060113 0.008603 -0.075000
v -0.075000 0.008603 -0.060113
v 0.075000 0.008603 -0.060113
v 0.060113 0.008603 -0.075000
v 0.060113 0.008603 0.075000
v 0.075000 0.008603 0.060113
v -0.074669 0.007071 -0.059976
v -0.074669 0.001531 -0.059976
v -0.074669 0.001531 0.059976
v -0.074669 0.007071 0.059976
v 0.074669 0.007071 0.059976
v 0.074669 0.001531 0.059976
v 0.074669 0.001531 -0.059976
v 0.074669 0.007071 -0.059976
v 0.059976 0.007071 -0.074669
v 0.059976 0.001531 -0.074669
v -0.059976 0.001531 -0.074669
v -0.059976 0.007071 -0.074669
v -0.059976 0.007071 0.074669
v -0.059976 0.001531 0.074669
v 0.059976 0.001531 0.074669
v 0.059976 0.007071 0.074669
v 0.074669 0.001531 -0.037380
v 0.074669 0.007071 -0.037380
v 0.074669 0.007071 0.037380
v 0.074669 0.001531 0.037380
v -0.074669 0.001531 0.037380
v -0.074669 0.007071 0.037380
v -0.074669 0.007071 -0.037380
v -0.074669 0.001531 -0.037380
v 0.037380 0.001531 0.074669
v 0.037380 0.007071 0.074669
v -0.037380 0.007071 0.074669
v -0.037380 0.001531 0.074669
v -0.037380 0.001531 -0.074669
v -0.037380 0.007071 -0.074669
v 0.037380 0.007071 -0.074669
v 0.037380 0.001531 -0.074669
v -0.075000 0.010300 0.034151
v -0.075000 0.010300 -0.034151
v 0.075000 0.010300 -0.034151
v 0.075000 0.010300 0.034151
v -0.075000 0.033531 -0.034151
v -0.075000 0.033531 0.034151
v 0.075000 0.033531 0.034151
v 0.075000 0.033531 -0.034151
v -0.073223 0.019631 0.030835
v -0.073223 0.019631 -0.030835
v 0.073223 0.019631 -0.030835
v 0.073223 0.019631 0.030835
v -0.073223 0.024200 -0.030835
v -0.073223 0.024200 0.030835
v 0.073223 0.024200 0.030835
v 0.073223 0.024200 -0.030835
v -0.073223 0.018453 0.032012
v -0.073223 0.018453 -0.032012
v 0.073223 0.018453 -0.032012
v 0.073223 0.018453 0.032012
v -0.073223 0.025378 -0.032012
v -0.073223 0.025378 0.032012
v 0.073223 0.025378 0.032012
v 0.073223 0.025378 -0.032012
v -0.072502 0.019631 0.030835
v -0.072502 0.019631 -0.030835
v 0.072502 0.019631 -0.030835
v 0.072502 0.019631 0.030835
v -0.072502 0.024200 -0.030835
v -0.072502 0.024200 0.030835
v 0.072502 0.024200 0.030835
v 0.072502 0.024200 -0.030835
v 0.034151 0.038685 -0.034151
v -0.034151 0.225243 0.062788
v 0.034151 0.225243 0.062788
v -0.034151 0.038685 -0.016659
v 0.034151 0.038685 -0.016659
v -0.034151 0.243213 0.043529
v -0.034151 0.227026 0.050149
v 0.034151 0.227026 0.050149
v 0.034151 0.243213 0.043529
v -0.034151 0.087553 0.002716
v 0.034151 0.087553 0.002716
v -0.034151 0.243213 -0.089042
v -0.013321 0.243213 -0.109872
v -0.031361 0.243213 -0.099457
v -0.023736 0.243213 -0.107081
v 0.013321 0.243213 -0.109872
v 0.034151 0.243213 -0.089042
v 0.023736 0.243213 -0.107081
v 0.031361 0.243213 -0.099457
v 0.034151 0.038685 -0.025940
v 0.034151 0.038685 -0.024870
v -0.034151 0.038685 -0.024870
v -0.034151 0.038685 -0.025940
v -0.034151 0.225243 0.059537
v -0.034151 0.227026 0.057283
v 0.034151 0.225243 0.059537
v 0.034151 0.227026 0.057283
v -0.034151 0.247428 0.052920
v -0.034151 0.247529 0.047370
v 0.034151 0.247428 0.052920
v 0.034151 0.247529 0.047370
v -0.034151 0.087553 -0.001324
v 0.034151 0.087553 -0.001324
v -0.034151 0.247502 -0.089042
v -0.034151 0.249189 -0.089042
v -0.013321 0.249193 -0.109872
v -0.013322 0.247498 -0.109872
v -0.031361 0.247500 -0.099457
v -0.031361 0.249191 -0.099457
v -0.023736 0.247499 -0.107081
v -0.023736 0.249193 -0.107081
v 0.034151 0.249189 -0.089042
v 0.034151 0.247502 -0.089042
v 0.013322 0.247498 -0.109872
v 0.013321 0.249193 -0.109872
v 0.031361 0.249191 -0.099457
v 0.031361 0.247500 -0.099457
v 0.023736 0.249193 -0.107081
v 0.023736 0.247499 -0.107081
v 0.033228 0.249161 0.049841
v 0.033228 0.248292 0.049068
v -0.033228 0.227026 0.058376
v -0.033228 0.227026 0.057283
v 0.033228 0.227026 0.058376
v 0.033228 0.227026 0.057283
v -0.033228 0.249161 0.049841
v -0.033228 0.248292 0.049068
v -0.033228 0.038685 -0.025940
v -0.033228 0.038685 -0.024870
v -0.033228 0.085770 -0.004061
v 0.033228 0.038685 -0.024870
v 0.033228 0.038685 -0.025940
v 0.033228 0.085770 -0.004061
v -0.023258 0.248260 -0.106253
v -0.023258 0.249193 -0.106253
v -0.013200 0.249193 -0.108948
v -0.013200 0.248260 -0.108948
v -0.030533 0.248262 -0.098979
v -0.030533 0.249191 -0.098979
v -0.033228 0.248264 -0.088920
v -0.033228 0.249189 -0.088920
v 0.023258 0.249193 -0.106253
v 0.023258 0.248260 -0.106253
v 0.013200 0.248260 -0.108948
v 0.013200 0.249193 -0.108948
v 0.030533 0.249191 -0.098979
v 0.030533 0.248262 -0.098979
v 0.033228 0.249189 -0.088920
v 0.033228 0.248264 -0.088920
v -0.034151 0.229275 0.065103
v -0.034151 0.085770 0.003883
v 0.034151 0.229275 0.065103
v 0.034151 0.085770 0.003883
v -0.034151 0.229275 0.059920
v 0.034151 0.229275 0.059920
v -0.034151 0.085770 -0.004061
v 0.034151 0.085770 -0.004061
v -0.033052 0.224483 0.061626
v -0.033052 0.088313 0.002219
v 0.033052 0.224483 0.061626
v 0.033052 0.088313 0.002219
v -0.033052 0.224483 0.060032
v 0.033052 0.224483 0.060032
v -0.033052 0.088313 -0.000157
v 0.033052 0.088313 -0.000157
v -0.033052 0.225243 0.062788
v -0.033052 0.087553 0.002716
v 0.033052 0.225243 0.062788
v 0.033052 0.087553 0.002716
v -0.033052 0.225243 0.059537
v 0.033052 0.225243 0.059537
v -0.033052 0.087553 -0.001324
v 0.033052 0.087553 -0.001324
v -0.032622 0.224483 0.061626
v -0.032622 0.088313 0.002219
v 0.032622 0.224483 0.061626
v 0.032622 0.088313 0.002219
v -0.032622 0.224483 0.060032
v 0.032622 0.224483 0.060032
v -0.032622 0.088313 -0.000157
v 0.032622 0.088313 -0.000157
v -0.029509 0.255002 0.050396
v -0.034151 0.248223 0.057358
v 0.029509 0.255002 0.050396
v 0.034151 0.248223 0.057358
v -0.012710 0.255002 -0.105229
v -0.013321 0.250367 -0.109872
v -0.034151 0.250371 -0.089042
v -0.029509 0.255002 -0.088431
v -0.023736 0.250368 -0.107081
v -0.021333 0.255002 -0.102919
v -0.031361 0.250369 -0.099457
v -0.027198 0.255002 -0.097054
v 0.029509 0.255002 -0.088431
v 0.034151 0.250371 -0.089042
v 0.013321 0.250367 -0.109872
v 0.012710 0.255002 -0.105229
v 0.027198 0.255002 -0.097054
v 0.031361 0.250369 -0.099457
v 0.021333 0.255002 -0.102919
v 0.023736 0.250368 -0.107081
v -0.034151 0.242451 0.043871
v 0.034151 0.242451 0.043871
v -0.013321 0.242451 -0.109872
v -0.023736 0.242451 -0.107081
v -0.031361 0.242451 -0.099457
v -0.034151 0.242451 -0.089042
v 0.023736 0.242451 -0.107081
v 0.013321 0.242451 -0.109872
v 0.031361 0.242451 -0.099457
v 0.034151 0.242451 -0.089042
v 0.034151 0.248292 0.049068
v -0.034151 0.248292 0.049068
v -0.013321 0.248260 -0.109872
v -0.023736 0.248260 -0.107081
v -0.031361 0.248262 -0.099457
v -0.034151 0.248264 -0.089042
v 0.023736 0.248260 -0.107081
v 0.013321 0.248260 -0.109872
v 0.031361 0.248262 -0.099457
v 0.034151 0.248264 -0.089042
v 0.033556 0.243816 -0.088964
v 0.033556 0.246899 -0.088963
v -0.033556 0.246899 -0.088963
v -0.033556 0.243816 -0.088964
v -0.030827 0.247500 -0.099149
v -0.030827 0.243213 -0.099149
v -0.013243 0.247498 -0.109277
v -0.013243 0.243213 -0.109277
v -0.023428 0.243213 -0.106548
v -0.023428 0.247499 -0.106548
v 0.013243 0.246895 -0.109277
v 0.013243 0.243213 -0.109277
v 0.030827 0.243213 -0.099149
v 0.030827 0.246897 -0.099149
v 0.023429 0.246896 -0.106548
v 0.023428 0.243213 -0.106548
v -0.033556 0.243816 0.043258
v 0.033556 0.243816 0.043258
v 0.033556 0.246926 0.046025
v -0.033556 0.246926 0.046025
v -0.033556 0.243213 0.043529
v 0.033556 0.243213 0.043529
v -0.013243 0.243816 -0.109277
v -0.023428 0.243816 -0.106548
v -0.030827 0.243816 -0.099149
v -0.033556 0.243213 -0.088964
v 0.023428 0.243816 -0.106548
v 0.013243 0.243816 -0.109277
v 0.030827 0.243816 -0.099149
v 0.033556 0.243213 -0.088964
v 0.033556 0.247529 0.047370
v -0.033556 0.247529 0.047370
v -0.013243 0.246895 -0.109277
v -0.023429 0.246896 -0.106548
v -0.030827 0.246897 -0.099149
v -0.033556 0.247502 -0.088963
v 0.023428 0.247499 -0.106548
v 0.013243 0.247498 -0.109277
v 0.030827 0.247500 -0.099149
v 0.033556 0.247502 -0.088963
v 0.032689 0.243816 -0.088849
v 0.032689 0.246899 -0.088849
v -0.032689 0.246899 -0.088849
v -0.032689 0.243816 -0.088849
v -0.030050 0.246897 -0.098700
v -0.030050 0.243816 -0.098700
v -0.013129 0.246895 -0.108410
v -0.013129 0.243816 -0.108410
v -0.022980 0.243816 -0.105770
v -0.022980 0.246896 -0.105770
v 0.013129 0.246895 -0.108410
v 0.013129 0.243816 -0.108410
v 0.030050 0.243816 -0.098700
v 0.030050 0.246897 -0.098700
v 0.022980 0.246896 -0.105770
v 0.022980 0.243816 -0.105770
v -0.032689 0.243816 0.043258
v 0.032689 0.243816 0.043258
v 0.032689 0.246926 0.046025
v -0.032689 0.246926 0.046025
v -0.034151 0.227026 0.065510
v 0.034151 0.227026 0.065510
v 0.034151 0.249161 0.049841
v 0.034151 0.227026 0.058376
v -0.034151 0.227026 0.058376
v -0.034151 0.249161 0.049841
v -0.034151 0.250401 0.056761
v 0.034151 0.250401 0.056761
v 0.033924 0.229161 0.064823
v 0.033870 0.248129 0.057128
v -0.033870 0.248129 0.057128
v -0.033924 0.229161 0.064823
v 0.033887 0.247428 0.052920
v 0.033887 0.229275 0.059920
v -0.033887 0.229275 0.059920
v -0.033887 0.247428 0.052920
vn -0.0000 -1.0000 -0.0000
vn -0.0000 -0.0000 -1.0000
vn 0.7071 -0.0000 -0.7071
vn -0.0000 -0.0000 1.0000
vn -0.0000 1.0000 -0.0000
vn 0.7071 -0.0000 0.7071
vn -1.0000 -0.0000 -0.0000
vn -0.7071 -0.0000 -0.7071
vn 1.0000 -0.0000 -0.0000
vn 0.9998 -0.0216 -0.0000
vn -0.0155 0.9999 -0.0000
vn 0.0155 -0.9999 -0.0000
vn 0.9967 0.0809 -0.0000
vn -0.9967 0.0809 -0.0000
vn -0.9998 -0.0216 -0.0000
vn -0.0000 -0.0216 -0.9998
vn -0.0155 -0.9999 -0.0000
vn -0.0000 -0.9999 0.0155
vn -0.0000 0.9999 -0.0155
vn -0.0000 -0.0216 0.9998
vn -0.0000 -0.9999 -0.0155
vn -0.0000 0.0809 0.9967
vn -0.0000 0.0809 -0.9967
vn 0.0155 0.9999 -0.0000
vn -0.0000 0.9999 0.0155
vn -0.7071 -0.0000 0.7071
vn -1.0000 -0.0000 -0.0065
vn 0.0065 -0.0000 1.0000
vn -1.0000 -0.0000 0.0065
vn 0.0065 -0.0000 -1.0000
vn 1.0000 -0.0000 -0.0065
vn -0.0065 -0.0000 1.0000
vn -0.0065 -0.0000 -1.0000
vn 1.0000 -0.0000 0.0065
vn -0.7073 0.7069 -0.0045
vn 0.7073 0.7069 0.0045
vn -0.7073 0.7069 0.0045
vn -0.5200 0.6776 0.5200
vn -0.5200 0.6776 -0.5200
vn 0.5200 0.6776 -0.5200
vn 0.5200 0.6776 0.5200
vn 0.7073 0.7069 -0.0045
vn -0.7035 0.7107 -0.0000
vn -0.7013 0.7129 -0.0008
vn 0.0008 0.7129 0.7013
vn 0.0008 0.7129 -0.7013
vn -0.7013 0.7129 0.0008
vn 0.7035 0.7107 -0.0000
vn 0.7013 0.7129 0.0008
vn -0.0008 0.7129 -0.7013
vn 0.7013 0.7129 -0.0008
vn -0.0008 0.7129 0.7013
vn -0.0000 0.7107 -0.7035
vn -0.0000 0.7107 0.7035
vn -0.0045 0.7069 -0.7073
vn 0.0045 0.7069 -0.7073
vn -0.0045 0.7069 0.7073
vn 0.0045 0.7069 0.7073
vn -0.0000 0.9257 -0.3784
vn -0.0000 -1.0000 0.0002
vn -0.0000 0.3999 -0.9166
vn -0.0000 -0.3770 -0.9262
vn 0.9659 -0.0000 -0.2588
vn -0.0000 0.3598 0.9330
vn -0.0000 -0.4042 0.9147
vn -0.0000 0.5407 0.8412
vn -0.0000 -0.3999 0.9166
vn -0.2588 -0.0000 -0.9659
vn -0.2325 0.9725 0.0119
vn 0.0001 -1.0000 0.0002
vn -0.9659 -0.0000 -0.2588
vn 0.0001 -1.0000 0.0001
vn 0.0001 -1.0000 -0.0000
vn 0.2588 -0.0000 -0.9659
vn -0.0000 0.4042 -0.9147
vn -0.0000 1.0000 -0.0002
vn -0.0000 0.4043 -0.9146
vn -0.0000 -1.0000 -0.0002
vn -0.0001 -1.0000 -0.0001
vn -0.0001 1.0000 -0.0001
vn -0.0000 -0.3598 -0.9330
vn 0.0001 -1.0000 -0.0001
vn 0.0001 1.0000 -0.0001
vn -0.0000 0.3604 0.9328
vn -0.0001 -1.0000 -0.0000
vn -0.0000 -0.4043 0.9146
vn -0.0000 0.8104 0.5859
vn -0.7051 0.7091 -0.0001
vn 0.7051 0.7091 -0.0001
vn 0.1828 0.7077 -0.6824
vn 0.4995 0.7078 -0.4996
vn 0.6822 0.7079 -0.1829
vn -0.1828 0.7077 -0.6824
vn -0.4995 0.7078 -0.4996
vn -0.6822 0.7079 -0.1829
vn -0.0000 0.7077 -0.7065
vn -0.0000 0.6647 -0.7471
vn -0.0001 -1.0000 0.0001
vn -0.0001 -1.0000 0.0002
vn -0.0000 0.1781 0.9840
vn -0.0000 0.2645 0.9644
vn -1.0000 0.0005 -0.0023
vn 1.0000 0.0005 -0.0023
vn -0.0000 0.3759 0.9267
vn 0.0971 -0.9807 0.1699
vn -0.0000 -0.9257 0.3784
vn 0.2325 0.9725 0.0119
vn -0.0971 -0.9807 0.1699
vn -0.0000 0.4085 -0.9127
vt 0.293435 0.584344
vt 0.375000 0.584344
vt 0.375000 0.665656
vt 0.293435 0.665656
vt 0.420698 0.171625
vt 0.420698 0.218985
vt 0.441565 0.281015
vt 0.592333 0.281015
vt 0.592128 0.331565
vt 0.441565 0.331565
vt 0.592333 0.531015
vt 0.441565 0.531015
vt 0.441565 0.468985
vt 0.592333 0.468985
vt 0.125000 0.531015
vt 0.156015 0.500000
vt 0.206565 0.500000
vt 0.206565 0.581565
vt 0.125000 0.581565
vt 0.793435 0.665656
vt 0.864152 0.665656
vt 0.863595 0.665656
vt 0.793435 0.668435
vt 0.864240 0.668435
vt 0.864280 0.715982
vt 0.840982 0.739280
vt 0.793435 0.739240
vt 0.706565 0.584344
vt 0.635848 0.584344
vt 0.636405 0.584344
vt 0.293435 0.668435
vt 0.375000 0.668435
vt 0.375000 0.718985
vt 0.343985 0.750000
vt 0.293435 0.750000
vt 0.375000 0.834344
vt 0.430594 0.834344
vt 0.430594 0.915656
vt 0.375000 0.915656
vt 0.441565 0.781015
vt 0.592333 0.781015
vt 0.592128 0.831565
vt 0.441565 0.831565
vt 0.591687 0.084344
vt 0.441565 0.084344
vt 0.589293 0.084344
vt 0.384896 0.468985
vt 0.384896 0.421625
vt 0.420698 0.578375
vt 0.384896 0.578375
vt 0.441565 0.718985
vt 0.592333 0.718985
vt 0.420698 0.921625
vt 0.420698 0.968985
vt 0.635720 0.534018
vt 0.659018 0.510720
vt 0.706565 0.510760
vt 0.706565 0.581565
vt 0.635760 0.581565
vt 0.209344 0.584344
vt 0.290656 0.584344
vt 0.290656 0.665656
vt 0.209344 0.665656
vt 0.441565 0.418435
vt 0.592128 0.418435
vt 0.592333 0.468985
vt 0.441565 0.168435
vt 0.592128 0.168435
vt 0.592333 0.218985
vt 0.441565 0.218985
vt 0.441565 0.218985
vt 0.441565 0.668435
vt 0.592128 0.668435
vt 0.384896 0.531015
vt 0.384896 0.031015
vt 0.384896 0.000000
vt 0.375000 0.334344
vt 0.430594 0.334344
vt 0.430594 0.415656
vt 0.375000 0.415656
vt 0.592128 0.831565
vt 0.589382 0.831565
vt 0.375000 0.584344
vt 0.430594 0.584344
vt 0.430594 0.665656
vt 0.375000 0.665656
vt 0.592128 0.331565
vt 0.589382 0.331565
vt 0.209344 0.500000
vt 0.290656 0.500000
vt 0.290656 0.581565
vt 0.209344 0.581565
vt 0.125000 0.668435
vt 0.206565 0.668435
vt 0.206565 0.750000
vt 0.156015 0.750000
vt 0.125000 0.718985
vt 0.209344 0.668435
vt 0.290656 0.668435
vt 0.290656 0.750000
vt 0.209344 0.750000
vt 0.420698 0.031015
vt 0.420698 0.078375
vt 0.125000 0.584344
vt 0.206565 0.584344
vt 0.206565 0.665656
vt 0.125000 0.665656
vt 0.384896 0.828375
vt 0.384896 0.781015
vt 0.384896 0.718985
vt 0.441565 0.581565
vt 0.592128 0.581565
vt 0.589382 0.581565
vt 0.441565 0.918435
vt 0.592128 0.918435
vt 0.592333 0.968985
vt 0.441565 0.968985
vt 0.709344 0.668435
vt 0.709344 0.739152
vt 0.709344 0.738595
vt 0.293435 0.500000
vt 0.343985 0.500000
vt 0.375000 0.531015
vt 0.375000 0.581565
vt 0.293435 0.581565
vt 0.790656 0.581565
vt 0.790656 0.510848
vt 0.790656 0.511405
vt 0.793435 0.510760
vt 0.840982 0.510720
vt 0.864280 0.534018
vt 0.864240 0.581565
vt 0.793435 0.581565
vt 0.441565 0.531015
vt 0.592128 0.581565
vt 0.635760 0.668435
vt 0.706565 0.668435
vt 0.706565 0.739239
vt 0.659018 0.739280
vt 0.635720 0.715982
vt 0.793435 0.584344
vt 0.790656 0.584344
vt 0.441565 0.031015
vt 0.592333 0.031015
vt 0.592128 0.081565
vt 0.441565 0.081565
vt 0.420698 0.718985
vt 0.420698 0.781015
vt 0.384896 0.671625
vt 0.863612 0.668435
vt 0.430594 0.718985
vt 0.430594 0.668435
vt 0.709344 0.581565
vt 0.375000 0.331565
vt 0.430594 0.331565
vt 0.709344 0.584344
vt 0.430594 0.281015
vt 0.592128 0.168435
vt 0.589382 0.168435
vt 0.441565 0.165656
vt 0.591687 0.165656
vt 0.589293 0.165656
vt 0.430594 0.918435
vt 0.375000 0.918435
vt 0.430594 0.218985
vt 0.430594 0.168435
vt 0.375000 0.831565
vt 0.430594 0.831565
vt 0.375000 0.165656
vt 0.430594 0.165656
vt 0.430594 0.968985
vt 0.375000 0.168435
vt 0.375000 0.081565
vt 0.430594 0.081565
vt 0.430594 0.031015
vt 0.430594 0.084344
vt 0.375000 0.084344
vt 0.430594 0.781015
vt 0.430594 0.718985
vt 0.375000 0.668435
vt 0.375000 0.581565
vt 0.430594 0.581565
vt 0.589293 0.584344
vt 0.441565 0.584344
vt 0.430594 0.531015
vt 0.430594 0.468985
vt 0.441565 0.915656
vt 0.591687 0.915656
vt 0.589293 0.915656
vt 0.592128 0.918435
vt 0.589382 0.918435
vt 0.790656 0.668435
vt 0.790656 0.739152
vt 0.709344 0.739152
vt 0.430594 0.281015
vt 0.430594 0.218985
vt 0.709344 0.510848
vt 0.592128 0.418435
vt 0.589382 0.418435
vt 0.591687 0.334344
vt 0.441565 0.334344
vt 0.589293 0.334344
vt 0.441565 0.415656
vt 0.591687 0.415656
vt 0.589293 0.415656
vt 0.441565 0.000000
vt 0.591687 0.834344
vt 0.441565 0.834344
vt 0.589293 0.834344
vt 0.441565 0.665656
vt 0.591687 0.665656
vt 0.589293 0.665656
vt 0.430594 0.031015
vt 0.430594 0.000000
vt 0.592128 0.668435
vt 0.589382 0.668435
vt 0.790656 0.605915
vt 0.790656 0.625000
vt 0.790656 0.625000
vt 0.790656 0.605956
vt 0.635848 0.584344
vt 0.706565 0.665656
vt 0.635848 0.665656
vt 0.790656 0.603429
vt 0.790656 0.603225
vt 0.790656 0.665656
vt 0.709344 0.665656
vt 0.430594 0.418435
vt 0.636388 0.668435
vt 0.636405 0.665656
vt 0.589382 0.668435
vt 0.589382 0.168435
vt 0.589382 0.418435
vt 0.589293 0.415656
vt 0.589382 0.331565
vt 0.709344 0.738595
vt 0.706565 0.738612
vt 0.589382 0.918435
vt 0.375000 0.418435
vt 0.636388 0.581565
vt 0.863595 0.584344
vt 0.863612 0.581565
vt 0.863612 0.668435
vt 0.589293 0.084344
vt 0.589382 0.081565
vt 0.793435 0.738612
vt 0.790656 0.738595
vt 0.793435 0.511388
vt 0.790656 0.511405
vt 0.709344 0.511405
vt 0.706565 0.511388
vt 0.430594 0.781015
vt 0.430594 0.468985
vt 0.430594 0.531015
vt 0.592128 0.081565
vt 0.455387 0.086890
vt 0.577865 0.086890
vt 0.864152 0.584344
vt 0.864152 0.665656
vt 0.635760 0.581565
vt 0.636388 0.581565
vt 0.635761 0.668435
vt 0.636388 0.668435
vt 0.635848 0.665656
vt 0.455387 0.586890
vt 0.577865 0.586890
vt 0.863612 0.581565
vt 0.864152 0.584344
vt 0.591687 0.584344
vt 0.591687 0.834344
vt 0.793435 0.738612
vt 0.790656 0.738595
vt 0.793435 0.511388
vt 0.706565 0.510760
vt 0.706565 0.511388
vt 0.709344 0.510848
vt 0.625000 0.081565
vt 0.625000 0.084344
vt 0.625000 0.165656
vt 0.625000 0.168435
vt 0.625000 0.003858
vt 0.625000 0.027157
vt 0.592333 0.000000
vt 0.625000 0.226702
vt 0.625000 0.273298
vt 0.625000 0.476702
vt 0.625000 0.523298
vt 0.625000 0.726702
vt 0.625000 0.773298
vt 0.625000 0.915656
vt 0.625000 0.918435
vt 0.625000 0.831565
vt 0.625000 0.834344
vt 0.625000 0.334344
vt 0.625000 0.331565
vt 0.625000 0.418435
vt 0.625000 0.415656
vt 0.625000 0.034018
vt 0.625000 0.965982
vt 0.625000 0.284018
vt 0.625000 0.215982
vt 0.591687 0.665656
vt 0.625000 0.465982
vt 0.625000 0.784018
vt 0.384896 0.218985
vt 0.384896 0.281015
vt 0.375000 0.281015
vt 0.375000 0.218985
vt 0.375000 0.468985
vt 0.375000 0.781015
vt 0.375000 0.031015
vt 0.375000 0.000000
vt 0.420698 0.671625
vt 0.384896 0.078375
vt 0.384896 0.171625
vt 0.420698 0.828375
vt 0.384896 0.921625
vt 0.384896 0.328375
vt 0.420698 0.328375
vt 0.420698 0.421625
vt 0.420698 0.000000
vt 0.420698 0.281015
vt 0.420698 0.531015
vt 0.420698 0.468985
vt 0.384896 0.968985
vt 0.375000 0.968985
vt 0.455387 0.163110
vt 0.455387 0.663110
vt 0.577865 0.163110
vt 0.577865 0.663110
vt 0.476216 0.088292
vt 0.557036 0.088292
vt 0.476216 0.588292
vt 0.557036 0.588292
vt 0.476216 0.161708
vt 0.476216 0.661708
vt 0.557036 0.161708
vt 0.557036 0.661708
vt 0.790656 0.622793
vt 0.709344 0.622793
vt 0.709344 0.584344
vt 0.709344 0.584344
vt 0.709344 0.584344
vt 0.778257 0.584344
vt 0.778258 0.584344
vt 0.790574 0.584344
vt 0.790366 0.584344
vt 0.790656 0.619858
vt 0.790656 0.620326
vt 0.790656 0.584344
vt 0.790656 0.584344
vt 0.790656 0.584344
vt 0.709426 0.584344
vt 0.709634 0.584344
vt 0.790656 0.588952
vt 0.790656 0.609689
vt 0.709344 0.603225
vt 0.709344 0.603429
vt 0.709344 0.605915
vt 0.709344 0.625000
vt 0.790656 0.605915
vt 0.790656 0.603429
vt 0.790656 0.606119
vt 0.709344 0.611261
vt 0.709344 0.619858
vt 0.709344 0.625000
vt 0.790656 0.584344
vt 0.790656 0.584344
vt 0.765859 0.584344
vt 0.734141 0.584344
vt 0.765859 0.584344
vt 0.778258 0.584344
vt 0.709344 0.609689
vt 0.785129 0.584344
vt 0.714871 0.584344
vt 0.714607 0.584344
vt 0.716498 0.584344
vt 0.724271 0.584344
vt 0.734807 0.584344
vt 0.765193 0.584344
vt 0.775729 0.584344
vt 0.783502 0.584344
vt 0.785393 0.584344
vt 0.790656 0.584344
vt 0.789549 0.584344
vt 0.765859 0.584344
vt 0.721743 0.584344
vt 0.710451 0.584344
vt 0.709344 0.584344
vt 0.709560 0.584344
vt 0.790366 0.584344
vt 0.790656 0.584344
vt 0.721742 0.584344
vt 0.709634 0.584344
vt 0.709344 0.605956
vt 0.709344 0.605915
vt 0.709344 0.603225
vt 0.709344 0.606119
vt 0.790574 0.584344
vt 0.709344 0.620326
vt 0.790656 0.610634
vt 0.790656 0.611261
vt 0.709344 0.610634
vt 0.790656 0.617669
vt 0.790656 0.613453
vt 0.790656 0.612631
vt 0.790656 0.618332
vt 0.709344 0.618332
vt 0.709344 0.612632
vt 0.709344 0.617669
vt 0.709344 0.613453
vt 0.790656 0.591030
vt 0.709344 0.591031
vt 0.765859 0.584344
vt 0.789683 0.584344
vt 0.710317 0.584344
vt 0.778258 0.584344
vt 0.790440 0.584344
vt 0.778258 0.584344
vt 0.789790 0.584344
vt 0.790656 0.584344
vt 0.710210 0.584344
vt 0.778258 0.584344
vt 0.790333 0.584344
vt 0.709667 0.584344
vt 0.709344 0.584344
vt 0.709344 0.588952
vt 0.790656 0.593880
vt 0.709344 0.593880
vt 0.790656 0.591031
s 0
usemtl M_Noir_Bleuté
f 81/1/1 55/2/1 54/3/1 91/4/1
f 108/5/1 132/6/1 312/6/1 334/5/1
f 134/7/2 205/8/2 234/9/2 121/10/2
f 213/11/3 138/12/3 137/13/3 214/14/3
f 281/15/1 280/16/1 300/17/1 84/18/1 295/19/1
f 75/20/4 217/21/4 260/22/4 32/20/4
f 72/23/5 218/24/5 200/25/5 203/26/5 244/27/5
f 71/28/2 224/29/2 248/30/2 44/28/2
f 88/31/1 291/32/1 285/33/1 284/34/1 296/35/1
f 64/36/4 115/37/4 117/38/4 61/39/4
f 142/40/4 209/41/4 242/42/4 113/43/4
f 349/44/4 344/45/4 147/45/4 261/46/4
f 39/47/5 58/48/5 343/48/5 321/47/5
f 96/49/2 56/50/2 328/50/2 329/49/2
f 209/41/6 142/40/6 141/51/6 210/52/6
f 116/53/1 130/54/1 324/54/1 338/53/1
f 212/55/5 215/56/5 236/57/5 69/58/5 227/59/5
f 86/60/1 82/61/1 90/62/1 94/63/1
f 127/64/2 237/65/2 214/66/2 137/13/2
f 111/67/7 220/68/7 206/69/7 133/70/7
f 205/8/8 134/7/8 133/71/8 206/69/8
f 103/72/9 229/73/9 210/52/9 141/51/9
f 56/50/5 40/74/5 318/74/5 328/50/5
f 34/75/5 33/76/5 325/76/5 314/75/5
f 60/77/2 123/78/2 125/79/2 57/80/2
f 113/43/7 242/81/7 275/82/7 154/43/7
f 55/83/9 99/84/9 101/85/9 54/86/9
f 121/10/9 234/87/9 271/88/9 162/10/9
f 60/89/1 57/90/1 83/91/1 85/92/1
f 292/93/1 92/94/1 299/95/1 287/96/1 286/97/1
f 95/98/1 89/99/1 64/100/1 61/101/1
f 129/102/1 104/103/1 333/103/1 315/102/1
f 49/104/1 87/105/1 93/106/1 52/107/1
f 63/108/5 38/109/5 326/109/5 336/108/5
f 38/109/5 37/110/5 317/110/5 326/109/5
f 97/111/4 226/112/4 250/113/4 6/111/4
f 119/114/4 245/115/4 202/116/4 131/117/4
f 79/118/9 240/119/9 273/120/9 28/118/9
f 303/121/1 283/122/1 282/123/1 288/124/1 80/125/1
f 68/126/7 232/127/7 269/128/7 48/126/7
f 235/129/5 204/130/5 207/131/5 221/132/5 65/133/5
f 138/134/9 213/11/9 226/135/9 97/111/9
f 228/136/5 76/137/5 243/138/5 208/139/5 211/140/5
f 128/143/7 201/144/7 219/145/7 105/146/7
f 140/147/1 143/148/1 327/148/1 316/147/1
f 37/110/5 53/149/5 331/149/5 317/110/5
f 40/74/5 39/47/5 321/47/5 318/74/5
f 218/24/2 72/23/2 31/23/2 263/150/2
f 311/151/5 290/152/5 3/152/5 196/151/5
f 70/153/4 68/126/4 48/126/4 42/153/4
f 300/154/9 301/155/9 161/155/9 176/154/9
f 103/72/1 141/51/1 197/51/1 4/72/1
f 67/142/2 376/156/2 41/156/2 45/142/2
f 123/78/7 60/77/7 177/77/7 160/78/7
f 301/155/5 306/157/5 191/157/5 161/155/5
f 220/158/4 111/67/4 148/67/4 257/159/4
f 61/39/7 117/38/7 158/38/7 180/39/7
f 134/7/1 121/10/1 162/10/1 190/7/1
f 345/160/2 348/161/2 258/162/2 151/160/2
f 298/163/9 299/164/9 181/164/9 157/163/9
f 307/165/5 294/166/5 149/166/5 188/165/5
f 296/167/7 297/168/7 153/168/7 182/167/7
f 111/67/1 133/70/1 189/70/1 148/67/1
f 49/169/2 109/170/2 150/170/2 168/169/2
f 115/37/9 64/36/9 183/36/9 152/37/9
f 305/171/5 298/163/5 157/163/5 186/171/5
f 294/166/4 295/172/4 169/172/4 149/166/4
f 64/100/9 89/99/9 14/99/9 183/100/9
f 119/114/1 131/117/1 187/117/1 156/114/1
f 292/173/2 293/174/2 145/174/2 170/173/2
f 293/174/5 304/175/5 185/175/5 145/174/5
f 107/176/4 52/177/4 171/177/4 144/176/4
f 88/31/7 296/35/7 182/35/7 15/31/7
f 128/143/1 105/146/1 146/146/1 184/143/1
f 54/86/4 101/85/4 2/85/4 175/86/4
f 299/95/9 92/94/9 11/94/9 181/95/9
f 310/178/5 311/179/5 196/179/5 199/178/5
f 290/152/2 291/180/2 174/180/2 3/152/2
f 95/98/7 61/101/7 180/101/7 12/98/7
f 141/51/1 142/40/1 198/40/1 197/51/1
f 288/181/4 289/182/4 7/182/4 173/181/4
f 308/185/5 309/186/5 192/186/5 195/185/5
f 99/84/2 55/83/2 172/83/2 8/84/2
f 118/187/7 246/188/7 279/189/7 159/187/7
f 52/107/4 93/106/4 10/106/4 171/107/4
f 245/190/9 119/114/9 156/114/9 276/191/9
f 137/13/1 138/12/1 194/12/1 193/13/1
f 92/94/2 292/93/2 170/93/2 11/94/2
f 79/118/5 73/192/5 247/193/5 240/194/5
f 306/195/5 307/196/5 188/196/5 191/195/5
f 295/19/4 84/18/4 19/18/4 169/19/4
f 239/197/5 232/127/5 68/126/5 70/153/5
f 237/198/7 127/64/7 164/64/7 264/199/7
f 133/71/1 134/7/1 190/7/1 189/71/1
f 87/105/2 49/104/2 168/104/2 20/105/2
f 233/200/7 122/201/7 163/201/7 268/202/7
f 126/203/9 238/204/9 267/205/9 167/203/9
f 131/206/1 128/143/1 184/143/1 187/206/1
f 241/207/9 114/208/9 155/208/9 272/209/9
f 347/210/4 350/211/4 254/212/4 1/210/4
f 304/213/5 305/214/5 186/214/5 185/213/5
f 229/215/2 103/72/2 4/72/2 253/216/2
f 66/141/9 75/20/9 32/20/9 46/141/9
f 101/85/5 99/84/5 8/84/5 2/85/5
f 224/221/5 71/28/5 77/222/5 231/223/5
f 77/222/7 71/28/7 44/28/7 26/222/7
f 346/184/1 347/210/1 1/210/1 5/184/1
f 398/224/7 400/225/7 382/142/7 67/142/7
f 109/170/5 107/176/5 144/176/5 150/170/5
f 83/91/9 57/90/9 178/90/9 24/91/9
f 344/45/1 345/160/1 151/160/1 147/45/1
f 303/121/7 80/125/7 23/125/7 179/121/7
f 117/38/5 115/37/5 152/37/5 158/38/5
f 114/208/1 118/187/1 159/187/1 155/208/1
f 84/18/9 300/17/9 176/17/9 19/18/9
f 125/79/5 123/78/5 160/78/5 166/79/5
f 60/89/7 85/92/7 18/92/7 177/89/7
f 122/201/1 126/203/1 167/203/1 163/201/1
f 52/177/7 107/176/7 109/170/7 49/169/7
f 302/228/7 303/239/7 179/239/7 165/228/7
f 142/40/1 113/43/1 154/43/1 198/40/1
f 57/80/9 125/79/9 166/79/9 178/80/9
f 105/146/2 219/255/2 262/245/2 146/146/2
f 297/168/5 310/252/5 199/252/5 153/168/5
f 106/256/2 216/257/2 365/257/2 360/256/2
f 66/141/5 222/258/5 217/259/5 75/20/5
f 127/64/1 137/13/1 193/13/1 164/64/1
f 227/260/4 69/58/4 43/58/4 251/261/4
f 73/192/2 79/118/2 28/118/2 30/192/2
f 309/253/5 302/228/5 165/228/5 192/253/5
f 76/137/2 228/262/2 252/263/2 27/137/2
f 78/227/4 74/226/4 29/226/4 25/227/4
f 138/134/1 97/111/1 6/111/1 194/134/1
f 231/264/4 77/222/4 26/222/4 255/230/4
f 55/2/2 81/1/2 22/1/2 172/2/2
f 289/182/5 308/254/5 195/254/5 7/182/5
f 98/265/4 225/266/4 367/266/4 362/265/4
f 80/125/4 288/124/4 173/124/4 23/125/4
f 65/133/4 221/132/4 256/267/4 47/133/4
f 82/61/2 86/60/2 17/60/2 21/61/2
f 222/268/2 66/141/2 46/141/2 259/241/2
f 85/92/4 83/91/4 24/91/4 18/92/4
f 351/269/2 346/184/2 5/184/2 249/183/2
f 291/32/2 88/31/2 15/31/2 174/32/2
f 114/208/4 241/270/4 246/188/4 118/187/4
f 91/4/4 54/3/4 175/3/4 16/4/4
f 243/138/7 76/137/7 27/137/7 274/237/7
f 89/99/2 95/98/2 12/98/2 14/99/2
f 72/23/9 244/27/9 277/271/9 31/23/9
f 94/63/4 90/62/4 13/62/4 9/63/4
f 247/193/7 73/192/7 30/192/7 278/272/7
f 86/60/7 94/63/7 9/63/7 17/60/7
f 122/201/2 233/200/2 238/204/2 126/203/2
f 93/106/9 87/105/9 20/105/9 10/106/9
f 235/129/9 65/133/9 47/133/9 270/273/9
f 81/1/7 91/4/7 16/4/7 22/1/7
f 69/58/7 236/274/7 265/275/7 43/58/7
f 90/62/9 82/61/9 21/61/9 13/62/9
f 239/276/9 70/153/9 42/153/9 266/250/9
f 203/281/38 200/282/38 201/144/38 202/283/38
f 207/284/39 204/285/39 205/8/39 206/69/39
f 215/286/40 212/287/40 213/11/40 214/14/40
f 211/288/41 208/289/41 209/41/41 210/52/41
f 279/189/7 246/188/7 247/290/7 278/290/7
f 245/190/9 276/191/9 277/291/9 244/291/9
f 275/82/7 242/81/7 243/292/7 274/292/7
f 241/207/9 272/209/9 273/293/9 240/293/9
f 233/200/7 268/202/7 269/294/7 232/294/7
f 271/88/9 234/87/9 235/295/9 270/295/9
f 254/212/4 350/211/4 231/264/4 255/230/4
f 237/198/7 264/199/7 265/296/7 236/296/7
f 267/205/9 238/204/9 239/297/9 266/297/9
f 229/215/2 253/216/2 252/263/2 228/262/2
f 250/113/4 226/112/4 227/260/4 251/261/4
f 351/269/2 249/183/2 248/30/2 224/29/2
f 217/278/43 222/279/43 348/161/43 349/44/43
f 200/298/44 218/277/44 219/145/44 201/144/44
f 202/116/45 245/115/45 244/291/45 203/299/45
f 234/9/46 205/8/46 204/300/46 235/295/46
f 206/69/47 220/68/47 221/280/47 207/301/47
f 350/302/48 351/269/48 224/221/48 231/223/48
f 212/55/49 227/59/49 226/135/49 213/11/49
f 214/66/50 237/65/50 236/296/50 215/303/50
f 210/52/51 229/73/51 228/136/51 211/140/51
f 242/42/52 209/41/52 208/304/52 243/292/52
f 232/294/53 239/297/53 238/204/53 233/200/53
f 240/293/54 247/290/54 246/188/54 241/270/54
f 258/162/2 348/161/2 222/279/2 259/279/2
f 220/158/4 257/159/4 256/280/4 221/280/4
f 262/245/2 219/255/2 218/277/2 263/277/2
f 349/44/4 261/46/4 260/278/4 217/278/4
f 131/206/26 202/283/26 201/144/26 128/143/26
f 35/305/8 36/306/8 280/307/8 281/308/8
f 39/47/3 40/74/3 282/123/3 283/309/3
f 37/110/6 38/109/6 284/310/6 285/33/6
f 33/76/26 34/75/26 286/311/26 287/312/26
f 56/50/9 96/49/9 289/182/9 288/181/9
f 100/313/9 53/149/9 291/180/9 290/152/9
f 51/314/7 104/103/7 293/174/7 292/173/7
f 108/5/7 50/315/7 295/172/7 294/166/7
f 63/108/4 112/316/4 297/168/4 296/167/4
f 116/53/4 62/317/4 299/164/4 298/163/4
f 59/318/2 120/319/2 301/155/2 300/154/2
f 124/320/2 58/48/2 303/239/2 302/228/2
f 129/102/26 130/321/26 305/214/26 304/213/26
f 135/322/8 132/6/8 307/196/8 306/195/8
f 139/323/3 136/324/3 309/186/3 308/185/3
f 143/148/6 140/147/6 311/179/6 310/178/6
f 104/103/7 129/102/7 304/175/7 293/174/7
f 130/54/4 116/53/4 298/163/4 305/171/4
f 132/6/7 108/5/7 294/166/7 307/165/7
f 120/319/2 135/322/2 306/157/2 301/155/2
f 140/147/9 100/313/9 290/152/9 311/151/9
f 112/316/4 143/148/4 310/252/4 297/168/4
f 136/324/2 124/320/2 302/228/2 309/253/2
f 96/49/9 139/323/9 308/254/9 289/182/9
f 50/315/7 35/305/7 281/308/7 295/172/7
f 36/306/2 59/318/2 300/154/2 280/307/2
f 34/75/7 51/314/7 292/173/7 286/311/7
f 62/317/4 33/325/4 287/326/4 299/164/4
f 53/149/9 37/110/9 285/33/9 291/180/9
f 38/109/4 63/108/4 296/167/4 284/310/4
f 40/74/9 56/50/9 288/181/9 282/123/9
f 58/48/2 39/47/2 283/309/2 303/239/2
f 53/149/4 100/313/4 330/313/4 331/149/4
f 135/322/1 120/319/1 341/319/1 323/322/1
f 104/103/4 51/314/4 332/314/4 333/103/4
f 100/313/1 140/147/1 316/147/1 330/313/1
f 50/315/2 108/5/2 334/5/2 335/315/2
f 143/148/1 112/316/1 337/316/1 327/148/1
f 112/316/9 63/108/9 336/108/9 337/316/9
f 124/320/1 136/324/1 320/324/1 342/320/1
f 62/317/7 116/53/7 338/53/7 339/317/7
f 139/323/1 96/49/1 329/49/1 319/323/1
f 120/319/7 59/318/7 340/318/7 341/319/7
f 35/305/5 50/315/5 335/315/5 313/305/5
f 58/48/9 124/320/9 342/320/9 343/48/9
f 59/318/5 36/306/5 322/306/5 340/318/5
f 130/321/1 129/102/1 315/102/1 324/321/1
f 51/314/5 34/75/5 314/75/5 332/314/5
f 132/6/1 135/322/1 323/322/1 312/6/1
f 36/306/5 35/305/5 313/305/5 322/306/5
f 33/325/5 62/317/5 339/317/5 325/325/5
f 136/324/1 139/323/1 319/323/1 320/324/1
f 106/256/7 110/327/7 345/160/7 344/45/7
f 98/265/9 102/328/9 347/210/9 346/184/9
f 223/329/7 216/257/7 349/44/7 348/161/7
f 230/330/9 225/266/9 351/269/9 350/302/9
f 216/257/7 106/256/7 344/45/7 349/44/7
f 110/327/7 223/329/7 348/161/7 345/160/7
f 225/266/9 98/265/9 346/184/9 351/269/9
f 102/328/9 230/330/9 350/302/9 347/210/9
f 216/257/1 223/329/1 364/329/1 365/257/1
f 110/327/5 106/256/5 360/256/5 361/327/5
f 230/330/2 102/328/2 363/328/2 366/330/2
f 223/329/4 110/327/4 361/327/4 364/329/4
f 225/266/1 230/330/1 366/330/1 367/266/1
f 102/328/5 98/265/5 362/265/5 363/328/5
f 379/218/7 74/226/7 456/219/7
f 406/341/60 557/341/60 566/342/60 418/342/60
f 507/350/62 508/156/62 383/343/62 382/142/62
f 518/351/7 507/350/7 382/352/7 400/225/7
f 383/343/9 508/156/9 517/156/9 402/357/9
f 376/156/9 395/358/9 396/359/9 380/360/9 78/227/9 25/227/9 41/156/9
f 74/226/7 379/218/7 397/361/7 398/362/7 67/142/7 45/142/7 29/226/7
f 398/224/65 433/224/65 428/225/65 400/225/65
f 74/226/66 78/227/66 458/366/66 456/219/66
f 412/369/1 419/370/1 564/370/1 533/369/1
f 507/350/1 512/384/1 511/385/1 510/372/1 509/386/1 514/370/1 513/387/1 515/388/1 516/389/1 508/156/1
f 384/341/5 392/156/5 556/156/5 548/341/5
f 422/390/70 418/342/70 566/342/70 565/390/70
f 424/393/72 422/390/72 565/390/72 563/393/72
f 381/367/5 547/367/5 552/368/5 387/368/5
f 419/370/73 424/393/73 563/393/73 564/370/73
f 518/351/76 432/351/76 445/368/76 522/368/76
f 396/359/5 395/358/5 437/358/5 436/359/5
f 524/370/5 519/369/5 442/369/5 449/370/5
f 383/156/9 402/397/9 395/358/9 376/156/9
f 526/343/76 525/353/76 452/353/76 454/343/76
f 525/353/80 523/387/80 448/387/80 452/353/80
f 395/358/65 402/397/65 430/397/65 437/358/65
f 526/343/76 454/343/76 426/156/76 517/156/76
f 519/369/5 520/345/5 439/345/5 442/369/5
f 520/372/83 521/346/83 443/346/83 439/372/83
f 402/357/84 517/156/84 426/156/84 430/357/84
f 518/351/84 400/225/84 428/225/84 432/351/84
f 521/399/76 522/368/76 445/368/76 443/399/76
f 523/387/5 524/370/5 449/370/5 448/387/5
f 398/362/5 397/361/5 434/361/5 433/362/5
f 458/366/9 78/227/9 380/360/9
f 392/156/9 384/341/9 508/156/9 516/156/9
f 390/372/68 388/414/68 509/369/68 510/372/68
f 389/415/8 390/372/8 510/372/8 511/385/8
f 387/368/71 389/415/71 511/385/71 512/142/71
f 391/370/74 393/387/74 513/387/74 514/370/74
f 393/387/3 394/416/3 515/388/3 513/387/3
f 394/416/63 392/156/63 516/156/63 515/388/63
f 388/414/2 391/370/2 514/370/2 509/369/2
f 381/367/7 387/368/7 512/142/7 507/384/7
f 404/350/7 518/351/7 522/368/7 409/350/7
f 412/369/68 415/417/68 520/345/68 519/369/68
f 415/417/8 413/418/8 521/346/8 520/372/8
f 413/418/71 409/350/71 522/368/71 521/399/71
f 424/393/74 419/370/74 524/370/74 523/387/74
f 422/390/3 424/393/3 523/387/3 525/353/3
f 418/342/63 422/390/63 525/353/63 526/343/63
f 419/370/2 412/369/2 519/369/2 524/370/2
f 406/341/9 418/342/9 526/343/9 517/156/9
f 404/350/7 381/367/7 507/384/7 518/351/7
f 384/341/9 406/341/9 517/156/9 508/156/9
f 381/367/97 404/350/97 558/350/97 547/367/97
f 388/414/5 390/372/5 535/372/5 534/414/5
f 406/341/97 384/341/97 548/341/97 557/341/97
f 390/372/5 389/415/5 532/415/5 535/372/5
f 404/350/60 409/350/60 562/350/60 558/350/60
f 389/415/5 387/368/5 552/368/5 532/415/5
f 393/387/5 391/370/5 538/370/5 542/387/5
f 415/417/1 412/369/1 533/369/1 536/417/1
f 394/416/5 393/387/5 542/387/5 539/416/5
f 413/418/98 415/417/98 536/417/98 531/418/98
f 392/156/5 394/416/5 539/416/5 556/156/5
f 409/350/99 413/418/99 531/418/99 562/350/99
f 391/370/5 388/414/5 534/414/5 538/370/5
f 382/142/109 383/343/109 376/156/109 67/142/109
usemtl M_Noir_Profond
f 47/133/5 46/141/5 45/142/5 48/126/5
f 249/183/10 5/184/10 6/111/10 250/113/10
f 43/58/5 42/153/5 41/156/5 44/28/5
f 31/23/5 30/192/5 29/226/5 32/20/5
f 27/137/5 26/222/5 25/227/5 28/118/5
f 23/125/1 22/1/1 21/61/1 24/91/1
f 19/18/1 18/92/1 17/60/1 20/105/1
f 15/31/1 14/99/1 13/62/1 16/4/1
f 11/94/1 10/106/1 9/63/1 12/98/1
f 7/182/9 6/111/9 5/184/9 8/84/9
f 3/152/9 2/85/9 1/210/9 4/72/9
f 145/174/7 146/146/7 147/45/7 144/176/7
f 149/166/7 150/170/7 151/160/7 148/67/7
f 153/168/4 154/43/4 155/208/4 152/37/4
f 157/163/4 158/38/4 159/187/4 156/114/4
f 161/155/2 162/10/2 163/201/2 160/78/2
f 165/228/2 166/79/2 167/203/2 164/64/2
f 27/137/11 252/229/11 255/230/11 26/222/11
f 253/231/10 4/72/10 1/210/10 254/212/10
f 20/105/12 168/104/12 169/19/12 19/18/12
f 11/94/12 170/93/12 171/107/12 10/106/12
f 8/84/13 172/83/13 173/181/13 7/182/13
f 3/152/13 174/180/13 175/86/13 2/85/13
f 144/176/14 171/177/14 170/173/14 145/174/14
f 149/166/14 169/172/14 168/169/14 150/170/14
f 257/232/15 148/67/15 151/160/15 258/162/15
f 45/142/5 41/156/5 42/153/5 48/126/5
f 264/233/16 164/64/16 167/203/16 267/234/16
f 30/192/5 28/118/5 25/227/5 29/226/5
f 172/2/17 22/1/17 23/125/17 173/124/17
f 21/61/1 17/60/1 18/92/1 24/91/1
f 174/32/17 15/31/17 16/4/17 175/3/17
f 14/99/1 12/98/1 9/63/1 13/62/1
f 17/60/1 9/63/1 10/106/1 20/105/1
f 22/1/1 16/4/1 13/62/1 21/61/1
f 177/89/18 18/92/18 19/18/18 176/17/18
f 179/121/18 23/125/18 24/91/18 178/90/18
f 41/156/5 25/227/5 26/222/5 44/28/5
f 46/141/5 32/20/5 29/226/5 45/142/5
f 268/202/16 163/201/16 162/10/16 271/235/16
f 28/118/19 273/236/19 274/237/19 27/137/19
f 272/209/20 155/208/20 154/43/20 275/82/20
f 276/238/20 156/114/20 159/187/20 279/189/20
f 12/98/21 180/101/21 181/95/21 11/94/21
f 15/31/21 182/35/21 183/100/21 14/99/21
f 152/37/22 183/36/22 182/167/22 153/168/22
f 157/163/22 181/164/22 180/39/22 158/38/22
f 160/78/23 177/77/23 176/154/23 161/155/23
f 165/228/23 179/239/23 178/80/23 166/79/23
f 44/28/11 248/30/11 251/240/11 43/58/11
f 259/241/24 46/141/24 47/133/24 256/242/24
f 263/243/24 31/23/24 32/20/24 260/22/24
f 261/244/15 147/45/15 146/146/15 262/245/15
f 31/23/19 277/246/19 278/247/19 30/192/19
f 270/248/25 47/133/25 48/126/25 269/249/25
f 266/250/25 42/153/25 43/58/25 265/251/25
f 163/201/2 167/203/2 166/79/2 160/78/2
f 155/208/4 159/187/4 158/38/4 152/37/4
f 147/45/7 151/160/7 150/170/7 144/176/7
f 5/184/9 1/210/9 2/85/9 8/84/9
f 185/213/26 186/214/26 187/206/26 184/143/26
f 189/71/8 190/7/8 191/195/8 188/196/8
f 193/13/3 194/12/3 195/185/3 192/186/3
f 197/51/6 198/40/6 199/178/6 196/179/6
f 184/143/27 146/146/27 145/174/27 185/175/27
f 156/114/28 187/117/28 186/171/28 157/163/28
f 148/67/29 189/70/29 188/165/29 149/166/29
f 190/7/30 162/10/30 161/155/30 191/157/30
f 4/72/31 197/51/31 196/151/31 3/152/31
f 198/40/32 154/43/32 153/168/32 199/252/32
f 164/64/33 193/13/33 192/253/33 165/228/33
f 194/134/34 6/111/34 7/182/34 195/254/34
f 261/244/35 262/245/35 263/277/35 260/278/35
f 249/183/36 250/113/36 251/240/36 248/30/36
f 257/232/37 258/162/37 259/279/37 256/280/37
f 253/231/42 254/212/42 255/230/42 252/229/42
f 264/233/55 267/234/55 266/297/55 265/296/55
f 268/202/56 271/235/56 270/295/56 269/294/56
f 272/209/57 275/82/57 274/292/57 273/293/57
f 276/238/58 279/189/58 278/290/58 277/291/58
f 352/331/2 357/332/2 373/332/2 368/331/2
f 354/333/4 359/334/4 375/334/4 370/333/4
f 352/331/7 353/335/7 361/327/7 360/256/7
f 354/333/9 355/336/9 363/328/9 362/265/9
f 356/337/7 357/332/7 365/257/7 364/329/7
f 358/338/9 359/334/9 367/266/9 366/330/9
f 357/332/7 352/331/7 360/256/7 365/257/7
f 353/335/7 356/337/7 364/329/7 361/327/7
f 359/334/9 354/333/9 362/265/9 367/266/9
f 355/336/9 358/338/9 366/330/9 363/328/9
f 357/332/1 356/337/1 372/337/1 373/332/1
f 353/335/5 352/331/5 368/331/5 369/335/5
f 358/338/2 355/336/2 371/336/2 374/338/2
f 356/337/4 353/335/4 369/335/4 372/337/4
f 359/334/1 358/338/1 374/338/1 375/334/1
f 355/336/5 354/333/5 370/333/5 371/336/5
f 434/217/7 435/220/7 427/363/7 428/225/7 433/224/7
f 425/156/9 429/398/9 430/357/9 426/156/9
f 432/351/7 428/225/7 427/363/7 431/351/7
f 437/358/9 430/397/9 429/398/9 438/395/9 436/396/9
f 426/156/9 454/343/9 453/343/9 425/156/9
f 431/351/7 446/368/7 445/368/7 432/351/7
f 440/372/68 441/371/68 442/369/68 439/345/68
f 444/346/8 440/345/8 439/372/8 443/346/8
f 446/368/71 444/346/71 443/399/71 445/368/71
f 448/387/74 449/370/74 450/370/74 447/387/74
f 452/353/3 448/387/3 447/387/3 451/353/3
f 454/343/63 452/353/63 451/353/63 453/343/63
f 449/370/2 442/369/2 441/371/2 450/370/2
f 463/404/1 467/405/1 483/405/1 479/404/1
f 469/406/5 464/407/5 480/407/5 485/406/5
f 466/408/5 470/409/5 486/409/5 482/408/5
f 463/404/7 464/407/7 472/349/7 471/348/7
f 465/410/9 473/365/9 474/400/9 466/408/9
f 469/406/7 467/405/7 475/402/7 477/401/7
f 468/411/9 470/409/9 478/403/9 476/364/9
f 470/409/9 466/408/9 474/400/9 478/403/9
f 464/407/7 469/406/7 477/401/7 472/349/7
f 467/405/7 463/404/7 471/348/7 475/402/7
f 465/410/9 468/411/9 476/364/9 473/365/9
f 467/405/86 469/406/86 485/406/86 483/405/86
f 468/411/1 465/410/1 481/410/1 484/411/1
f 463/404/61 479/404/61 480/407/61 464/407/61
f 470/409/86 468/411/86 484/411/86 486/409/86
f 465/410/61 466/408/61 482/408/61 481/410/61
f 550/419/5 551/420/5 572/420/5 575/419/5
f 545/341/97 544/341/97 584/341/97 585/341/97
f 549/414/5 550/419/5 575/419/5 574/414/5
f 543/367/97 546/352/97 586/352/97 583/367/97
f 559/369/1 537/370/1 577/370/1 573/369/1
f 544/341/5 527/156/5 567/156/5 584/341/5
f 527/156/9 544/341/9 548/341/9 556/156/9
f 550/419/68 549/414/68 534/414/68 535/372/68
f 551/420/8 550/419/8 535/372/8 532/415/8
f 530/421/71 551/420/71 532/415/71 552/368/71
f 554/370/74 553/387/74 542/387/74 538/370/74
f 553/387/3 555/422/3 539/416/3 542/387/3
f 555/422/63 527/156/63 556/156/63 539/416/63
f 549/414/2 554/370/2 538/370/2 534/414/2
f 530/421/7 552/368/7 547/367/7 543/367/7
f 546/352/7 558/350/7 562/350/7 529/350/7
f 559/369/68 560/423/68 536/417/68 533/369/68
f 560/423/8 561/424/8 531/418/8 536/417/8
f 561/424/71 529/350/71 562/350/71 531/418/71
f 541/393/74 537/370/74 564/370/74 563/393/74
f 540/425/3 541/393/3 563/393/3 565/390/3
f 528/426/63 540/425/63 565/390/63 566/342/63
f 537/370/2 559/369/2 533/369/2 564/370/2
f 528/426/9 566/342/9 557/341/9 545/341/9
f 546/352/7 543/367/7 547/367/7 558/350/7
f 544/341/9 545/341/9 557/341/9 548/341/9
f 546/352/60 529/350/60 569/350/60 586/352/60
f 551/420/5 530/421/5 570/421/5 572/420/5
f 553/387/5 554/370/5 578/370/5 582/387/5
f 560/423/85 559/369/85 573/369/85 576/423/85
f 555/422/5 553/387/5 582/387/5 579/422/5
f 561/424/98 560/423/98 576/423/98 571/424/98
f 527/156/5 555/422/5 579/422/5 567/156/5
f 528/426/60 545/341/60 585/341/60 568/426/60
f 529/350/99 561/424/99 571/424/99 569/350/99
f 554/370/5 549/414/5 574/414/5 578/370/5
f 537/370/73 541/393/73 581/393/73 577/370/73
f 530/421/5 543/367/5 583/367/5 570/421/5
f 541/393/72 540/425/72 580/425/72 581/393/72
f 540/425/70 528/426/70 568/426/70 580/425/70
usemtl M_Orange
f 397/217/7 379/218/7 456/219/7 461/220/7
f 322/306/2 323/322/2 341/319/2 340/318/2
f 335/315/7 334/5/7 312/6/7 313/305/7
f 325/76/26 324/321/26 315/102/26 314/75/26
f 343/48/2 342/320/2 320/324/2 321/47/2
f 326/109/4 327/148/4 337/316/4 336/108/4
f 339/317/4 338/53/4 324/54/4 325/325/4
f 318/74/9 319/323/9 329/49/9 328/50/9
f 314/75/7 315/102/7 333/103/7 332/314/7
f 331/149/9 330/313/9 316/147/9 317/110/9
f 323/322/8 322/306/8 313/305/8 312/6/8
f 319/323/3 318/74/3 321/47/3 320/324/3
f 327/148/6 326/109/6 317/110/6 316/147/6
f 380/360/9 396/396/9 462/395/9 458/366/9
f 597/428/102 602/355/102 601/356/102 598/339/102
f 600/373/103 599/427/103 596/429/103 595/340/103
f 595/340/104 596/429/104 597/428/104 598/339/104
usemtl M_Cyan
f 370/333/9 375/334/9 374/338/9 371/336/9
f 368/331/7 373/332/7 372/337/7 369/335/7
f 479/404/7 483/405/7 485/406/7 480/407/7
f 486/409/9 484/411/9 481/410/9 482/408/9
f 578/370/2 574/414/2 573/369/2 577/370/2
f 567/156/9 568/426/9 585/341/9 584/341/9
f 586/352/7 569/350/7 570/421/7 583/367/7
f 579/422/63 580/425/63 568/426/63 567/156/63
f 582/387/3 581/393/3 580/425/3 579/422/3
f 578/370/74 577/370/74 581/393/74 582/387/74
f 573/369/68 574/414/68 575/419/68 576/423/68
f 576/423/8 575/419/8 572/420/8 571/424/8
f 571/424/71 572/420/71 570/421/71 569/350/71
usemtl M_Blanc
f 455/339/59 457/340/59 595/340/59 598/339/59
f 589/156/9 417/343/9 500/343/9 594/156/9
f 495/344/8 416/345/8 414/346/8 497/347/8
f 377/348/61 471/348/61 472/349/61 385/349/61
f 421/353/63 504/354/63 500/341/63 417/343/63
f 403/355/64 459/356/64 601/356/64 602/355/64
f 401/364/1 378/365/1 473/365/1 476/364/1
f 588/360/67 587/218/67 456/219/67 458/366/67
f 593/367/7 493/368/7 410/368/7 592/351/7
f 492/371/68 411/371/68 416/372/68 495/372/68
f 457/340/69 460/373/69 600/373/69 595/340/69
f 487/374/5 489/375/5 499/376/5 503/377/5 505/378/5 502/379/5 491/380/5 496/381/5 498/382/5 494/383/5
f 497/391/71 414/346/71 410/368/71 493/392/71
f 420/370/2 411/371/2 492/386/2 501/370/2
f 423/387/3 506/387/3 504/394/3 421/353/3
f 420/370/74 501/370/74 506/387/74 423/387/74
f 462/395/75 396/396/75 436/396/75 438/395/75
f 411/371/1 420/370/1 450/370/1 441/371/1
f 591/363/77 427/363/77 435/220/77 461/220/77
f 421/353/78 417/343/78 453/343/78 451/353/78
f 592/351/78 410/368/78 446/368/78 431/351/78
f 423/387/79 421/353/79 451/353/79 447/387/79
f 416/372/73 411/371/73 441/371/73 440/372/73
f 589/156/81 590/398/81 429/398/81 425/156/81
f 414/346/82 416/345/82 440/345/82 444/346/82
f 410/368/78 414/346/78 444/346/78 446/368/78
f 591/363/81 592/351/81 431/351/81 427/363/81
f 589/156/78 425/156/78 453/343/78 417/343/78
f 590/398/77 462/395/77 438/395/77 429/398/77
f 420/370/85 423/387/85 447/387/85 450/370/85
f 397/217/75 461/220/75 435/220/75 434/217/75
f 377/348/7 385/349/7 456/219/7 587/218/7
f 378/365/9 588/360/9 458/366/9 386/400/9
f 407/401/7 399/402/7 591/363/7 461/220/7
f 401/364/9 408/403/9 462/395/9 590/398/9
f 408/403/9 386/400/9 458/366/9 462/395/9
f 385/349/7 407/401/7 461/220/7 456/219/7
f 399/402/7 377/348/7 587/218/7 591/363/7
f 378/365/9 401/364/9 590/398/9 588/360/9
f 407/401/86 477/401/86 475/402/86 399/402/86
f 378/365/61 386/400/61 474/400/61 473/365/61
f 386/400/5 408/403/5 478/403/5 474/400/5
f 407/401/5 385/349/5 472/349/5 477/401/5
f 408/403/86 401/364/86 476/364/86 478/403/86
f 377/348/1 399/402/1 475/402/1 471/348/1
f 593/412/87 594/413/87 489/375/87 487/374/87
f 487/374/88 494/383/88 493/368/88 593/367/88
f 594/156/89 500/343/89 499/376/89 489/375/89
f 502/379/90 505/378/90 506/387/90 501/370/90
f 505/378/91 503/377/91 504/394/91 506/387/91
f 503/377/92 499/376/92 500/341/92 504/354/92
f 496/381/93 491/380/93 492/371/93 495/372/93
f 498/382/94 496/381/94 495/344/94 497/347/94
f 494/383/95 498/382/95 497/391/95 493/392/95
f 501/370/96 492/386/96 491/380/96 502/379/96
f 457/340/100 455/339/100 587/218/100 588/360/100
f 405/427/9 460/373/9 590/398/9 589/156/9
f 459/356/7 403/355/7 592/351/7 591/363/7
f 455/339/7 459/356/7 591/363/7 587/218/7
f 460/373/9 457/340/9 588/360/9 590/398/9
f 488/428/101 490/429/101 594/413/101 593/412/101
f 403/355/7 488/428/7 593/430/7 592/351/7
f 490/429/9 405/427/9 589/156/9 594/413/9
f 405/427/105 490/429/105 596/429/105 599/427/105
f 490/429/106 488/428/106 597/428/106 596/429/106
f 459/356/107 455/339/107 598/339/107 601/356/107
f 460/373/64 405/427/64 599/427/64 600/373/64
f 488/428/108 403/355/108 602/355/108 597/428/108
