# Blender 4.2.3 LTS
# www.blender.org
mtllib SM_Bed_Single.mtl
o SM_Bed_Single
v -1.101313 -0.000688 -0.370387
v -1.101313 -0.000688 0.370387
v 1.185270 -0.000688 0.370387
v 1.185270 -0.000688 -0.370387
v -1.010574 0.332827 0.333566
v -1.010574 0.332827 -0.333566
v 1.104825 -0.000688 -0.591866
v 1.010574 0.332827 -0.333566
v 1.010574 0.332827 0.333566
v 0.961800 -0.000688 -0.591866
v -0.877843 -0.000688 -0.591866
v -0.877843 -0.000688 0.591866
v 0.961800 -0.000688 0.591866
v 0.947177 0.000000 -0.342223
v -0.863220 0.000000 -0.342223
v 0.947177 0.000000 0.342223
v -0.863220 0.000000 0.342223
v 0.921156 0.000000 -0.576177
v -0.837198 0.000000 -0.576177
v -0.837198 0.000000 0.576177
v 0.921156 0.000000 0.576177
v 0.921156 0.000000 -0.342223
v -0.837198 0.000000 -0.342223
v 0.921156 0.000000 0.342223
v -0.837198 0.000000 0.342223
v 1.166538 0.159888 -0.351773
v 1.166538 0.136451 -0.351773
v 1.166538 0.159888 0.351773
v 1.166538 0.136451 0.351773
v 1.185270 0.105291 0.370387
v -1.082581 0.159888 0.351773
v -1.101313 0.105291 0.370387
v -1.082581 0.136451 0.351773
v -1.082581 0.159888 -0.351773
v -1.082581 0.136451 -0.351773
v -1.101313 0.105291 -0.370387
v -1.082581 0.177027 0.333566
v -1.082581 0.177027 -0.333566
v 1.166538 0.177027 -0.333566
v 1.166538 0.177027 0.333566
v 0.961800 0.105291 0.591866
v -0.877843 0.105291 0.591866
v -0.877843 0.105291 -0.591866
v 0.961800 0.105291 -0.591866
v -0.837198 0.104603 -0.576177
v 0.921156 0.104603 -0.576177
v 0.921156 0.104603 0.576177
v -0.837198 0.104603 0.576177
v -1.020867 -0.000688 0.591866
v -1.101313 -0.000688 0.511420
v -1.101313 -0.000688 -0.511420
v -1.020867 -0.000688 -0.591866
v 1.185270 -0.000688 0.511420
v 1.104825 -0.000688 0.591866
v 1.185270 -0.000688 -0.511420
v -1.101313 0.105291 0.511420
v -1.020867 0.105291 0.591866
v -1.003614 0.136451 0.582500
v -1.082581 0.136451 0.503533
v -1.082581 0.159888 0.503533
v -1.003614 0.159888 0.582500
v -1.003614 0.159888 -0.582500
v -1.082581 0.159888 -0.503533
v -1.020867 0.105291 -0.591866
v -1.101313 0.105291 -0.511420
v -1.082581 0.136451 -0.503533
v -1.003614 0.136451 -0.582500
v 1.166538 0.159888 -0.503533
v 1.087571 0.159888 -0.582500
v 1.185270 0.105291 -0.511420
v 1.104825 0.105291 -0.591866
v 1.087571 0.136451 -0.582500
v 1.166538 0.136451 -0.503533
v 1.087571 0.159888 0.582500
v 1.166538 0.159888 0.503533
v 1.104825 0.105291 0.591866
v 1.185270 0.105291 0.511420
v 1.166538 0.136451 0.503533
v 1.087571 0.136451 0.582500
v -0.969408 0.320371 0.499919
v -1.000000 0.320371 0.469327
v -1.000000 0.320371 -0.469327
v -0.969408 0.320371 -0.499919
v 0.969408 0.320371 -0.499919
v 1.000000 0.320371 -0.469327
v 1.000000 0.320371 0.469327
v 0.969408 0.320371 0.499919
v -1.074211 0.008370 0.342223
v -1.074211 0.008370 -0.342223
v 1.167478 0.005553 -0.328013
v 1.018944 0.324457 0.342223
v 1.018944 0.320371 0.342223
v 1.018944 0.320371 0.333566
v 1.018944 0.324457 0.333566
v 1.018944 0.320371 -0.333566
v 1.018944 0.324457 -0.333566
v 1.018944 0.324457 -0.342223
v 1.018944 0.320371 -0.342223
v -1.018944 0.324457 -0.342223
v -1.018944 0.320371 -0.342223
v -1.018944 0.320371 -0.333566
v -1.018944 0.324457 -0.333566
v -1.018944 0.320371 0.333566
v -1.018944 0.324457 0.333566
v -1.018944 0.324457 0.342223
v -1.018944 0.320371 0.342223
v -0.837198 0.126901 0.574130
v 0.947177 0.126901 0.574130
v -0.863220 0.119312 -0.574130
v -0.863220 0.126901 -0.574130
v 0.947177 0.126901 -0.574130
v 0.947177 0.119312 -0.574130
v 1.158168 0.169437 -0.333566
v 1.158168 0.177027 -0.333566
v 1.158168 0.177027 0.333566
v 1.158168 0.169437 0.333566
v 1.158168 0.169437 -0.342223
v 1.158168 0.177027 -0.342223
v -1.074211 0.169437 0.333566
v -1.074211 0.177027 0.333566
v -1.074211 0.177027 -0.333566
v -1.074211 0.169437 -0.333566
v -1.074211 0.169437 0.342223
v -1.074211 0.177027 0.342223
v -1.074211 0.126901 -0.342223
v -1.074211 0.177027 -0.342223
v -1.074211 0.169437 -0.342223
v 1.158168 0.126901 0.342223
v 1.158168 0.177027 0.342223
v 1.158168 0.169437 0.342223
v -1.000147 0.119312 -0.574130
v -1.000147 0.169437 -0.574130
v -1.074211 0.169437 -0.500067
v -1.074211 0.177027 -0.500067
v -1.000147 0.177027 -0.574130
v 1.084104 0.119312 0.574130
v 1.084104 0.169437 0.574130
v 1.158168 0.169437 0.500067
v 1.158168 0.177027 0.500067
v 1.084104 0.177027 0.574130
v -1.000147 0.119312 0.574130
v -1.074211 0.169437 0.500067
v -1.000147 0.169437 0.574130
v -1.000147 0.177027 0.574130
v -1.074211 0.177027 0.500067
v 1.158168 0.119312 -0.500067
v 1.158168 0.126901 -0.500067
v 1.158168 0.169437 -0.500067
v 1.084104 0.169437 -0.574130
v 1.084104 0.177027 -0.574130
v 1.158168 0.177027 -0.500067
v -1.082581 0.169437 0.342223
v -1.082581 0.126901 0.342223
v -1.082581 0.126901 -0.342223
v -1.082581 0.169437 -0.342223
v 1.166538 0.169437 -0.342223
v 1.166538 0.126901 -0.342223
v 1.166538 0.126901 0.342223
v 1.166538 0.169437 0.342223
v -1.082581 0.126901 -0.503533
v -1.003614 0.126901 -0.582500
v -1.003614 0.169437 -0.582500
v -1.082581 0.169437 -0.503533
v 1.166538 0.126901 0.503533
v 1.087571 0.126901 0.582500
v 1.087571 0.169437 0.582500
v 1.166538 0.169437 0.503533
v -1.003614 0.126901 0.582500
v -1.082581 0.126901 0.503533
v -1.082581 0.169437 0.503533
v -1.003614 0.169437 0.582500
v 1.087571 0.126901 -0.582500
v 1.166538 0.126901 -0.503533
v 1.166538 0.169437 -0.503533
v 1.087571 0.169437 -0.582500
v -1.002789 0.136451 0.580509
v -1.002789 0.159888 0.580509
v -1.080589 0.159888 0.502709
v -1.080589 0.136451 0.502709
v -1.002789 0.159888 -0.580509
v -1.002789 0.136451 -0.580509
v -1.080589 0.136451 -0.502709
v -1.080589 0.159888 -0.502709
v 1.164547 0.159888 -0.502709
v 1.164547 0.136451 -0.502709
v 1.086747 0.136451 -0.580509
v 1.086747 0.159888 -0.580509
v 1.086747 0.159888 0.580509
v 1.086747 0.136451 0.580509
v 1.164547 0.136451 0.502709
v 1.164547 0.159888 0.502709
v -1.080425 0.159888 0.351773
v -1.080425 0.136451 0.351773
v -1.080425 0.136451 -0.351773
v -1.080425 0.159888 -0.351773
v 1.164383 0.159888 -0.351773
v 1.164383 0.136451 -0.351773
v 1.164383 0.136451 0.351773
v 1.164383 0.159888 0.351773
v -1.057680 0.323583 -0.320493
v -1.073337 0.307926 -0.320493
v 1.141637 0.323583 0.320493
v 1.157294 0.307926 0.320493
v -1.073337 0.307926 0.320493
v -1.057680 0.323583 0.320493
v 1.157294 0.307926 -0.320493
v 1.141637 0.323583 -0.320493
v -1.003614 0.300279 0.582500
v -0.990132 0.332827 0.549952
v -1.049748 0.332827 0.489934
v -1.082581 0.299994 0.503533
v -1.082581 0.299994 -0.503533
v -1.049748 0.332827 -0.489934
v -0.990132 0.332827 -0.549952
v -1.003614 0.300279 -0.582500
v 1.087571 0.300279 -0.582500
v 1.074090 0.332827 -0.549952
v 1.133705 0.332827 -0.489934
v 1.166538 0.299994 -0.503533
v 1.166538 0.299994 0.503533
v 1.133705 0.332827 0.489934
v 1.074090 0.332827 0.549952
v 1.087571 0.300279 0.582500
v -1.074211 0.290478 -0.333566
v -1.040231 0.324457 -0.333566
v -1.040407 0.324457 -0.342223
v -1.074211 0.290653 -0.342223
v 1.158168 0.290478 0.333566
v 1.124189 0.324457 0.333566
v 1.124364 0.324457 0.342223
v 1.158168 0.290653 0.342223
v -1.040407 0.324457 0.342223
v -1.074211 0.290653 0.342223
v -1.040231 0.324457 0.333566
v -1.074211 0.290478 0.333566
v 1.158168 0.290653 -0.342223
v 1.124364 0.324457 -0.342223
v 1.124189 0.324457 -0.333566
v 1.158168 0.290478 -0.333566
v 1.167478 0.163885 0.328013
v 1.167478 0.163885 -0.328013
v -1.083521 0.163885 -0.328013
v -1.083521 0.163885 0.328013
v -1.082581 0.298682 0.333566
v -1.048436 0.332827 0.333566
v -1.048436 0.332827 -0.333566
v -1.082581 0.298682 -0.333566
v 1.166538 0.298682 -0.333566
v 1.132393 0.332827 -0.333566
v 1.132393 0.332827 0.333566
v 1.166538 0.298682 0.333566
v -1.069476 0.308048 0.317677
v -1.057802 0.319723 0.317677
v -1.057802 0.319723 -0.317677
v -1.069476 0.308048 -0.317677
v 1.153433 0.308048 -0.317677
v 1.141759 0.319723 -0.317677
v 1.141759 0.319723 0.317677
v 1.153433 0.308048 0.317677
v -1.071467 0.306057 0.320493
v -1.055810 0.321714 0.320493
v -1.055810 0.321714 -0.320493
v -1.071467 0.306057 -0.320493
v 1.155425 0.306057 -0.320493
v 1.139768 0.321714 -0.320493
v 1.139768 0.321714 0.320493
v 1.155425 0.306057 0.320493
v -1.068479 0.307051 0.317677
v -1.056804 0.318725 0.317677
v -1.056804 0.318725 -0.317677
v -1.068479 0.307051 -0.317677
v 1.152436 0.307051 -0.317677
v 1.140762 0.318725 -0.317677
v 1.140762 0.318725 0.317677
v 1.152436 0.307051 0.317677
v -0.837198 0.119312 0.574130
v 0.947177 0.119312 0.574130
v 0.921156 0.119312 -0.574130
v -0.863220 0.119312 0.574130
v 1.158168 0.126901 -0.342223
v -1.074211 0.126901 -0.500067
v -1.074211 0.119312 0.500067
v -1.074211 0.008370 0.333566
v 1.167478 0.005553 0.328013
v -1.083521 0.005553 0.328013
v -1.083521 0.005553 -0.328013
v 1.158168 0.008370 -0.342223
v -1.074211 0.119312 0.342223
v 0.921156 0.119312 0.574130
v 0.921156 0.126901 0.574130
v -0.837198 0.119312 -0.574130
v -0.837198 0.126901 -0.574130
v -1.074211 0.126901 0.342223
v -1.074211 0.119312 -0.500067
v 1.158168 0.126901 0.500067
v -1.074211 0.126901 0.500067
v 1.185270 0.105291 -0.370387
v 1.158168 0.008370 -0.333566
v 1.158168 0.008370 0.342223
v 1.158168 0.119312 -0.342223
v 0.921156 0.126901 -0.574130
v -1.074211 0.119312 -0.342223
v -1.000147 0.126901 -0.574130
v 1.084104 0.126901 0.574130
v 1.084104 0.119312 -0.574130
v 1.084104 0.126901 -0.574130
v -1.074211 0.008370 -0.333566
v 1.158168 0.008370 0.333566
v -0.863220 0.126901 0.574130
v 1.158168 0.119312 0.342223
v 1.158168 0.119312 0.500067
v -1.000147 0.126901 0.574130
v -1.010574 0.320371 -0.333566
v -1.010574 0.320371 -0.342223
v 1.010574 0.320371 0.333566
v 1.010574 0.320371 0.342223
v -1.010574 0.320371 0.342223
v -1.010574 0.320371 0.333566
v 1.010574 0.320371 -0.342223
v 1.010574 0.320371 -0.333566
v -0.973788 0.320371 0.510493
v -1.010574 0.320371 0.473707
v -1.010574 0.320371 -0.473707
v -0.973788 0.320371 -0.510493
v 0.973788 0.320371 -0.510493
v 1.010574 0.320371 -0.473707
v 1.010574 0.320371 0.473707
v 0.973788 0.320371 0.510493
v -0.969408 0.438337 0.499919
v -0.964142 0.451050 0.487206
v -0.987287 0.451050 0.464061
v -1.000000 0.438337 0.469327
v -1.000000 0.438337 -0.469327
v -0.987287 0.451050 -0.464061
v -0.964142 0.451050 -0.487206
v -0.969408 0.438337 -0.499919
v 0.969408 0.438337 -0.499919
v 0.964142 0.451050 -0.487206
v 0.987287 0.451050 -0.464061
v 1.000000 0.438337 -0.469327
v 1.000000 0.438337 0.469327
v 0.987287 0.451050 0.464061
v 0.964142 0.451050 0.487206
v 0.969408 0.438337 0.499919
v -0.828589 0.328260 0.510493
v 0.886309 0.328260 0.510493
v 0.868069 0.305857 0.576922
v -0.810348 0.305857 0.576922
v 0.886309 0.332827 0.549952
v -0.836477 0.332827 0.549952
v 0.886309 0.328260 -0.510493
v -0.828589 0.328260 -0.510493
v -0.810348 0.305857 -0.576922
v 0.868069 0.305857 -0.576922
v -0.828589 0.332827 -0.549952
v 0.894198 0.332827 -0.549952
v -0.818041 0.300279 0.582500
v 0.875761 0.300279 0.582500
v 0.894198 0.332827 0.549952
v -0.828589 0.332827 0.549952
v 0.894198 0.320371 0.510493
v -0.836477 0.320371 0.510493
v 0.875761 0.300279 -0.582500
v -0.818041 0.300279 -0.582500
v -0.836477 0.332827 -0.549952
v 0.886309 0.332827 -0.549952
v -0.836477 0.320371 -0.510493
v 0.894198 0.320371 -0.510493
v 0.886309 0.331039 0.549211
v -0.827435 0.331039 0.549211
v 0.886309 0.331039 0.512281
v -0.827435 0.331039 0.512281
v -0.828589 0.331039 -0.549211
v 0.885156 0.331039 -0.549211
v -0.828589 0.331039 -0.512281
v 0.885156 0.331039 -0.512281
v -0.809223 0.305409 0.574842
v 0.866944 0.305409 0.574842
v 0.885156 0.329413 0.512281
v -0.827435 0.329413 0.512281
v 0.866944 0.305409 -0.574842
v -0.809223 0.305409 -0.574842
v -0.827435 0.329413 -0.512281
v 0.885156 0.329413 -0.512281
v -0.810348 0.304593 0.575658
v 0.868069 0.304593 0.575658
v 0.885156 0.331039 0.549211
v -0.828589 0.331039 0.549211
v 0.885156 0.331039 0.512281
v 0.886309 0.328260 0.512281
v -0.828589 0.328260 0.512281
v 0.868069 0.304593 -0.575658
v -0.810348 0.304593 -0.575658
v -0.827435 0.331039 -0.549211
v 0.886309 0.331039 -0.549211
v 0.886309 0.331039 -0.512281
v -0.827435 0.331039 -0.512281
v -0.828589 0.328260 -0.512281
v 0.886309 0.328260 -0.512281
v 0.863107 0.323651 0.559908
v -0.805387 0.323651 0.559908
v 0.885156 0.333378 0.509942
v -0.827435 0.333378 0.509942
v -0.805387 0.323651 -0.559908
v 0.863107 0.323651 -0.559908
v -0.827435 0.333378 -0.509942
v 0.885156 0.333378 -0.509942
v -0.800639 0.316791 0.566768
v 0.858360 0.316791 0.566768
v 0.885156 0.329413 0.509942
v -0.827435 0.329413 0.509942
v 0.858360 0.316791 -0.566768
v -0.800639 0.316791 -0.566768
v -0.827435 0.329413 -0.509942
v 0.885156 0.329413 -0.509942
v 1.167478 0.169437 0.333566
v 1.167478 0.169437 -0.333566
v -1.083521 0.169437 -0.333566
v -1.083521 0.169437 0.333566
v -1.083521 0.000000 -0.333566
v -1.083521 0.000000 0.333566
v 1.167478 0.000000 -0.333566
v 1.167478 0.000000 0.333566
v 1.163170 0.161079 0.325208
v 1.163170 0.161079 -0.325208
v -1.079212 0.161079 -0.325208
v -1.079212 0.161079 0.325208
v -1.079212 0.008358 -0.325208
v -1.079212 0.008358 0.325208
v 1.163170 0.008358 -0.325208
v 1.163170 0.008358 0.325208
v 1.163170 0.163885 0.328013
v 1.163170 0.163885 -0.328013
v -1.079212 0.163885 -0.328013
v -1.079212 0.163885 0.328013
v -1.079212 0.005553 -0.328013
v -1.079212 0.005553 0.328013
v 1.163170 0.005553 -0.328013
v 1.163170 0.005553 0.328013
v 1.165024 0.151669 0.315797
v 1.165024 0.151669 -0.315797
v -1.081067 0.151669 -0.315797
v -1.081067 0.151669 0.315797
v -1.081067 0.017768 -0.315797
v -1.081067 0.017768 0.315797
v 1.165024 0.017768 -0.315797
v 1.165024 0.017768 0.315797
v 0.885156 0.333378 0.550180
v -0.827435 0.333378 0.550180
v -0.827435 0.333378 -0.550180
v 0.885156 0.333378 -0.550180
v -0.809223 0.307063 0.576496
v 0.866944 0.307063 0.576496
v 0.866944 0.307063 -0.576496
v -0.809223 0.307063 -0.576496
v 0.860280 0.318014 0.556767
v 0.860280 0.318014 -0.556767
v -0.799538 0.313649 0.561132
v 0.863107 0.319262 0.555519
v -0.805387 0.319262 0.555519
v -0.805387 0.319262 -0.555519
v 0.863107 0.319262 -0.555519
v -0.800639 0.312402 0.562379
v 0.858360 0.312402 0.562379
v 0.858360 0.312402 -0.562379
v -0.800639 0.312402 -0.562379
v -0.802559 0.318014 0.556767
v -0.802559 0.318014 -0.556767
v 0.857259 0.313649 0.561132
v 0.857259 0.313649 -0.561132
v -0.799538 0.313649 -0.561132
v 0.860280 0.316050 0.554802
v -0.802559 0.316050 0.554802
v -0.802559 0.316050 -0.554802
v 0.860280 0.316050 -0.554802
v -0.799538 0.311685 0.559167
v 0.857259 0.311685 0.559167
v 0.857259 0.311685 -0.559167
v -0.799538 0.311685 -0.559167
v 1.165024 0.161079 0.325208
v 1.165024 0.161079 -0.325208
v -1.081067 0.161079 -0.325208
v -1.081067 0.161079 0.325208
v -1.081067 0.008358 -0.325208
v -1.081067 0.008358 0.325208
v 1.165024 0.008358 -0.325208
v 1.165024 0.008358 0.325208
v 1.159945 0.147009 0.311137
v 1.159945 0.147009 -0.311137
v -1.075988 0.147009 -0.311137
v -1.075988 0.147009 0.311137
v -1.075988 0.022429 -0.311137
v -1.075988 0.022429 0.311137
v 1.159945 0.022429 -0.311137
v 1.159945 0.022429 0.311137
v 1.159945 0.151669 0.315797
v 1.159945 0.151669 -0.315797
v -1.075988 0.151669 -0.315797
v -1.075988 0.151669 0.315797
v -1.075988 0.017768 -0.315797
v -1.075988 0.017768 0.315797
v 1.159945 0.017768 -0.315797
v 1.159945 0.017768 0.315797
v 1.160930 0.141380 -0.311137
v 1.165711 0.110716 -0.311137
v 1.165711 0.110716 0.311137
v 1.160930 0.141380 0.311137
v 1.160930 0.100970 -0.311137
v 1.165711 0.070306 -0.311137
v 1.165711 0.070306 0.311137
v 1.160930 0.100970 0.311137
v -1.076972 0.100970 0.311137
v -1.081754 0.070306 0.311137
v -1.081754 0.070306 -0.311137
v -1.076972 0.100970 -0.311137
v -1.075988 0.070306 -0.311137
v -1.075988 0.100970 -0.311137
v -1.075988 0.100970 0.311137
v -1.075988 0.070306 0.311137
v 1.159945 0.100970 -0.311137
v 1.159945 0.070306 -0.311137
v 1.159945 0.070306 0.311137
v 1.159945 0.100970 0.311137
v -1.075988 0.029897 -0.311137
v -1.075988 0.060561 -0.311137
v -1.075988 0.060561 0.311137
v -1.075988 0.029897 0.311137
v 1.159945 0.060561 -0.311137
v 1.159945 0.029897 -0.311137
v 1.159945 0.029897 0.311137
v 1.159945 0.060561 0.311137
v -1.075988 0.110716 -0.311137
v -1.075988 0.141380 -0.311137
v -1.075988 0.141380 0.311137
v -1.075988 0.110716 0.311137
v 1.159945 0.141380 -0.311137
v 1.159945 0.110716 -0.311137
v 1.159945 0.110716 0.311137
v 1.159945 0.141380 0.311137
v -1.076973 0.141380 -0.311137
v -1.081754 0.110716 -0.311137
v -1.081754 0.110716 0.311137
v -1.076973 0.141380 0.311137
v -1.076972 0.060561 -0.311137
v -1.081754 0.029897 -0.311137
v -1.081754 0.029897 0.311137
v -1.076972 0.060561 0.311137
v 1.160930 0.060561 0.311137
v 1.165711 0.029897 0.311137
v 1.165711 0.029897 -0.311137
v 1.160930 0.060561 -0.311137
v -1.013861 0.332827 0.345510
v -1.010574 0.329757 0.342223
v -1.013861 0.332827 -0.345510
v -1.010574 0.329757 -0.342223
v 1.014800 0.332827 0.345510
v 1.010574 0.329757 0.342223
v 1.166538 0.180314 -0.345510
v 1.163480 0.177027 -0.342223
v 1.166538 0.180314 0.345510
v 1.163480 0.177027 0.342223
v -1.082581 0.180314 0.345510
v -1.079523 0.177027 0.342223
v -1.082581 0.180314 -0.345510
v -1.079523 0.177027 -0.342223
v -1.010574 0.329716 0.473707
v -1.013861 0.332827 0.475069
v -0.975149 0.332827 0.513780
v -0.973788 0.329688 0.510493
v -0.973788 0.329688 -0.510493
v -0.975149 0.332827 -0.513780
v -1.013861 0.332827 -0.475069
v -1.010574 0.329716 -0.473707
v 0.973788 0.329688 0.510493
v 0.977353 0.332827 0.511896
v 1.014838 0.332827 0.474269
v 1.010574 0.329716 0.473707
v 1.010574 0.329716 -0.473707
v 1.014838 0.332827 -0.474269
v 0.977353 0.332827 -0.511896
v 0.973788 0.329688 -0.510493
v -1.002329 0.177027 0.579397
v -1.003614 0.180314 0.582500
v -1.082581 0.180314 0.503533
v -1.079492 0.177027 0.502254
v -1.079492 0.177027 -0.502254
v -1.082581 0.180314 -0.503533
v -1.003614 0.180314 -0.582500
v -1.002329 0.177027 -0.579397
v 1.086286 0.177027 -0.579397
v 1.087571 0.180314 -0.582500
v 1.166538 0.180314 -0.503533
v 1.163450 0.177027 -0.502254
v 1.163450 0.177027 0.502254
v 1.166538 0.180314 0.503533
v 1.087571 0.180314 0.582500
v 1.086286 0.177027 0.579397
v 1.014800 0.332827 -0.345510
v 1.010574 0.329757 -0.342223
v 1.133299 0.332827 -0.345510
v 1.130079 0.329816 -0.342223
v 1.163529 0.296370 -0.342223
v 1.166538 0.299588 -0.345510
v -1.082581 0.299588 -0.345510
v -1.079572 0.296370 -0.342223
v -1.046122 0.329816 -0.342223
v -1.049342 0.332827 -0.345510
v 1.166538 0.299588 0.345510
v 1.163529 0.296370 0.342223
v 1.130079 0.329816 0.342223
v 1.133299 0.332827 0.345510
v -1.079572 0.296370 0.342223
v -1.082581 0.299588 0.345510
v -1.049342 0.332827 0.345510
v -1.046122 0.329816 0.342223
v 0.894198 0.329672 0.510493
v 0.894198 0.332827 0.512095
v -0.836477 0.332827 0.513780
v -0.836477 0.329672 0.510493
v -0.836477 0.329672 -0.510493
v -0.836477 0.332827 -0.513780
v 0.894198 0.332827 -0.512095
v 0.894198 0.329672 -0.510493
v -0.828589 0.329667 0.510493
v -0.828589 0.332827 0.513780
v -0.828589 0.331074 0.512246
v 0.886309 0.332827 0.512160
v 0.886309 0.329667 0.510493
v 0.886309 0.329667 -0.510493
v 0.886309 0.332827 -0.512160
v -0.828589 0.332827 -0.513780
v -0.828589 0.329667 -0.510493
v 0.000000 0.451050 0.487206
v 0.000000 0.451050 -0.487206
v -0.544586 0.451050 -0.421314
v -0.551577 0.451050 -0.429852
v -0.551577 0.451050 0.429852
v -0.544586 0.451050 0.421314
v -0.093884 0.451050 0.430269
v -0.101595 0.451050 0.421314
v -0.101595 0.451050 -0.421314
v -0.093884 0.451050 -0.430269
v 0.065892 0.451050 -0.421314
v 0.051727 0.451050 -0.435480
v 0.051727 0.451050 0.435480
v 0.065892 0.451050 0.421314
v 0.912416 0.451050 0.435480
v 0.898250 0.451050 0.421314
v 0.898250 0.451050 -0.421314
v 0.912416 0.451050 -0.435480
v -0.551577 0.440226 0.429852
v -0.544586 0.440226 0.421314
v -0.544586 0.440226 -0.421314
v -0.551577 0.440226 -0.429852
v -0.101595 0.440226 -0.421314
v -0.093884 0.440226 -0.430269
v -0.093884 0.440226 0.430269
v -0.101595 0.440226 0.421314
v 0.051727 0.440226 0.435480
v 0.065892 0.440226 0.421314
v 0.065892 0.440226 -0.421314
v 0.051727 0.440226 -0.435480
v 0.898250 0.440226 -0.421314
v 0.912416 0.440226 -0.435480
v 0.912416 0.440226 0.435480
v 0.898250 0.440226 0.421314
v -0.950981 0.471968 -0.240320
v -0.936080 0.457067 -0.240320
v -0.936080 0.457067 0.240320
v -0.950981 0.471968 0.240320
v -0.950981 0.528011 0.240320
v -0.936080 0.542911 0.240320
v -0.936080 0.542911 -0.240320
v -0.950981 0.528011 -0.240320
v -0.603383 0.471968 0.240320
v -0.618283 0.457067 0.240320
v -0.618283 0.457067 -0.240320
v -0.603383 0.471968 -0.240320
v -0.603383 0.528011 -0.240320
v -0.618283 0.542911 -0.240320
v -0.618283 0.542911 0.240320
v -0.603383 0.528011 0.240320
v -0.906786 0.457542 0.334408
v -0.915647 0.477983 0.355799
v -0.930065 0.451052 0.303295
v -0.956996 0.477983 0.314450
v -0.935605 0.542436 0.305590
v -0.956996 0.521996 0.314450
v -0.904492 0.548926 0.328869
v -0.915647 0.521996 0.355799
v -0.935605 0.457542 -0.305590
v -0.956996 0.477983 -0.314450
v -0.904492 0.451052 -0.328869
v -0.915647 0.477983 -0.355799
v -0.906786 0.542436 -0.334408
v -0.915647 0.521996 -0.355799
v -0.930065 0.548926 -0.303295
v -0.956996 0.521996 -0.314450
v -0.618759 0.457542 0.305590
v -0.597368 0.477983 0.314450
v -0.649872 0.451052 0.328869
v -0.638717 0.477983 0.355799
v -0.647577 0.542436 0.334408
v -0.638717 0.521996 0.355799
v -0.624298 0.548926 0.303295
v -0.597368 0.521996 0.314450
v -0.647577 0.457542 -0.334408
v -0.638717 0.477983 -0.355799
v -0.624298 0.451052 -0.303295
v -0.597368 0.477983 -0.314450
v -0.618759 0.542436 -0.305590
v -0.597368 0.521996 -0.314450
v -0.649872 0.548926 -0.328869
v -0.638717 0.521996 -0.355799
v -0.956996 0.477983 -0.231814
v -0.930065 0.451052 -0.231814
v -0.930065 0.451052 0.231814
v -0.956996 0.477983 0.231814
v -0.956996 0.521996 0.231814
v -0.930065 0.548926 0.231814
v -0.930065 0.548926 -0.231814
v -0.956996 0.521996 -0.231814
v -0.597368 0.477983 0.231814
v -0.624298 0.451052 0.231814
v -0.624298 0.451052 -0.231814
v -0.597368 0.477983 -0.231814
v -0.597368 0.521996 -0.231814
v -0.624298 0.548926 -0.231814
v -0.624298 0.548926 0.231814
v -0.597368 0.521996 0.231814
v -0.935605 0.457542 0.305590
v -0.904492 0.451052 0.328869
v -0.913352 0.471493 0.350260
v -0.951456 0.471493 0.312156
v -0.906786 0.542436 0.334408
v -0.930065 0.548926 0.303295
v -0.951456 0.528486 0.312156
v -0.913352 0.528486 0.350260
v -0.935605 0.542436 -0.305590
v -0.904492 0.548926 -0.328869
v -0.913352 0.528486 -0.350260
v -0.951456 0.528486 -0.312156
v -0.906786 0.457542 -0.334408
v -0.930065 0.451052 -0.303295
v -0.951456 0.471493 -0.312156
v -0.913352 0.471493 -0.350260
v -0.647577 0.542436 -0.334408
v -0.624298 0.548926 -0.303295
v -0.602907 0.528486 -0.312156
v -0.641011 0.528486 -0.350260
v -0.618759 0.457542 -0.305590
v -0.649872 0.451052 -0.328869
v -0.641011 0.471493 -0.350260
v -0.602907 0.471493 -0.312156
v -0.618759 0.542436 0.305590
v -0.649872 0.548926 0.328869
v -0.641011 0.528486 0.350260
v -0.602907 0.528486 0.312156
v -0.647577 0.457542 0.334408
v -0.624298 0.451052 0.303295
v -0.602907 0.471493 0.312156
v -0.641011 0.471493 0.350260
v -0.950562 0.472642 0.311793
v -0.934711 0.458692 0.305227
v -0.906424 0.458707 0.333534
v -0.912990 0.472657 0.349385
v -0.912990 0.527322 0.349385
v -0.906424 0.541272 0.333534
v -0.934711 0.541287 0.305227
v -0.950562 0.527337 0.311793
v -0.950562 0.527337 -0.311793
v -0.934711 0.541287 -0.305227
v -0.906424 0.541272 -0.333534
v -0.912990 0.527322 -0.349385
v -0.912990 0.472657 -0.349385
v -0.906424 0.458707 -0.333534
v -0.934711 0.458692 -0.305227
v -0.950562 0.472642 -0.311793
v -0.641374 0.527322 -0.349385
v -0.647939 0.541272 -0.333534
v -0.619653 0.541287 -0.305227
v -0.603802 0.527337 -0.311793
v -0.603802 0.472642 -0.311793
v -0.619653 0.458692 -0.305227
v -0.647939 0.458707 -0.333534
v -0.641374 0.472657 -0.349385
v -0.603802 0.527337 0.311793
v -0.619653 0.541287 0.305227
v -0.647939 0.541272 0.333534
v -0.641374 0.527322 0.349385
v -0.641374 0.472657 0.349385
v -0.647939 0.458707 0.333534
v -0.619653 0.458692 0.305227
v -0.603802 0.472642 0.311793
v -0.949954 0.473062 -0.240320
v -0.935053 0.458162 -0.240320
v -0.935053 0.458162 0.240320
v -0.949954 0.473062 0.240320
v -0.949954 0.526916 0.240320
v -0.935053 0.541817 0.240320
v -0.935053 0.541817 -0.240320
v -0.949954 0.526916 -0.240320
v -0.604410 0.473062 0.240320
v -0.619310 0.458162 0.240320
v -0.619310 0.458162 -0.240320
v -0.604410 0.473062 -0.240320
v -0.604410 0.526916 -0.240320
v -0.619310 0.541817 -0.240320
v -0.619310 0.541817 0.240320
v -0.604410 0.526916 0.240320
vn -0.0000 -0.0000 -1.0000
vn -0.0000 -0.0000 1.0000
vn 1.0000 -0.0000 -0.0000
vn -0.0000 0.7845 0.6201
vn -0.0000 1.0000 -0.0000
vn -0.4595 0.8882 -0.0000
vn -0.7206 -0.0000 0.6934
vn 0.7071 -0.0000 -0.7071
vn -1.0000 -0.0000 -0.0000
vn -0.0101 -0.9999 0.0011
vn -0.0101 -0.9999 -0.0011
vn -0.0000 -1.0000 -0.0000
vn 0.0101 -0.9999 -0.0011
vn 0.2054 0.4820 0.8518
vn 0.0101 -0.9999 0.0011
vn -0.3601 -0.0000 0.9329
vn 0.3601 -0.0000 -0.9329
vn -0.3601 -0.0000 -0.9329
vn 0.3601 -0.0000 0.9329
vn 0.3240 0.8888 0.3240
vn 0.0015 -1.0000 -0.0015
vn -0.7071 -0.0000 -0.7071
vn -0.0015 -1.0000 -0.0015
vn -0.7206 -0.0000 -0.6934
vn -0.0015 -1.0000 0.0015
vn 0.0015 -1.0000 0.0015
vn -0.2054 0.4820 -0.8518
vn -0.3240 0.8888 -0.3240
vn 0.2054 0.4820 -0.8518
vn -0.0000 0.7071 0.7071
vn -0.7071 -0.0000 0.7071
vn 0.7071 -0.0000 0.7071
vn -0.0000 0.1379 -0.9905
vn -0.0000 0.7071 -0.7071
vn -0.3240 0.8888 0.3240
vn 0.7206 -0.0000 0.6934
vn -0.0000 0.7845 -0.6201
vn 0.3240 0.8888 -0.3240
vn 0.7206 -0.0000 -0.6934
vn -0.0000 0.1379 0.9905
vn 0.4595 0.8882 -0.0000
vn -0.2054 0.4820 0.8518
vn -1.0000 -0.0000 -0.0011
vn 1.0000 -0.0000 0.0011
vn 1.0000 -0.0000 -0.0011
vn -1.0000 -0.0000 0.0011
vn -0.7071 -0.7071 -0.0000
vn -0.5015 0.7071 0.4985
vn -0.5015 0.7071 -0.4985
vn 0.5015 0.7071 -0.4985
vn 0.5015 0.7071 0.4985
vn -0.7073 0.7069 -0.0019
vn -0.7070 0.7070 0.0143
vn 0.7070 0.7070 -0.0143
vn -0.7070 0.7070 -0.0143
vn 0.7070 0.7070 0.0143
vn -0.7073 0.7069 0.0019
vn 0.7073 0.7069 0.0019
vn 0.7073 0.7069 -0.0019
vn -0.7071 0.7071 -0.0000
vn 0.7071 0.7071 -0.0000
vn 0.7071 -0.7071 -0.0000
vn 0.0373 -0.9403 0.3383
vn 0.0373 -0.9403 -0.3383
vn -0.0373 -0.9403 -0.3383
vn -0.0373 -0.9403 0.3383
vn -0.5000 0.7071 0.5000
vn -0.5000 0.7071 -0.5000
vn 0.5000 0.7071 -0.5000
vn 0.5000 0.7071 0.5000
vn 0.8922 -0.2480 0.3776
vn -0.0000 -0.7071 -0.7071
vn -0.0000 -0.7071 0.7071
vn -1.0000 -0.0000 -0.0001
vn -0.8969 0.2428 -0.3697
vn 0.8969 0.2428 0.3697
vn 0.8969 0.2428 -0.3697
vn -0.8969 0.2428 0.3697
vn 0.0153 0.9999 0.0005
vn 0.0192 -0.0080 -0.9998
vn -0.8982 0.3108 0.3108
vn -0.8922 -0.2480 -0.3776
vn -0.8922 -0.2480 0.3776
vn 0.8922 -0.2480 -0.3775
vn -0.8982 0.3108 -0.3108
vn 0.8982 0.3108 0.3108
vn 0.8982 0.3108 -0.3108
vn -0.9881 0.1541 -0.0000
vn 0.9881 0.1541 -0.0000
vn 1.0000 -0.0000 0.0003
vn -1.0000 -0.0000 0.0001
vn 1.0000 0.0001 -0.0000
vn -0.5147 -0.6856 -0.5148
vn 0.5147 -0.6856 0.5148
vn -0.5147 -0.6856 0.5148
vn 0.5147 -0.6856 -0.5148
vn -0.7304 -0.6830 0.0001
vn -0.7304 -0.6830 -0.0001
vn 0.7304 -0.6830 0.0001
vn 0.7304 -0.6830 -0.0001
vn 0.4874 0.7247 -0.4871
vn 0.4874 0.7247 0.4871
vn -0.4742 0.7426 0.4730
vn -0.4742 0.7426 -0.4730
vn 0.6851 0.7285 0.0001
vn 0.6851 0.7285 -0.0001
vn -0.5887 0.8084 0.0002
vn -0.5887 0.8084 -0.0002
vn -0.4229 0.4229 -0.8014
vn -0.4229 0.4229 0.8014
vn 0.4229 0.4229 -0.8014
vn 0.4229 0.4229 0.8014
vn 0.7350 -0.0002 0.6781
vn -0.0002 0.7342 0.6790
vn -0.7349 -0.0002 0.6781
vn 0.0006 0.7344 0.6787
vn 0.7350 -0.0002 -0.6781
vn -0.0002 0.7342 -0.6790
vn 0.0006 0.7344 -0.6787
vn -0.7349 -0.0002 -0.6781
vn -0.0000 -0.6865 0.7271
vn -0.0000 -0.6865 -0.7271
vn -0.0000 0.7223 -0.6916
vn -0.0011 0.4314 -0.9022
vn -0.0011 0.4314 0.9022
vn -0.0000 0.7223 0.6916
vn 0.0002 0.7212 -0.6927
vn -0.0038 0.4597 -0.8880
vn -0.0038 0.4597 0.8880
vn 0.0002 0.7212 0.6927
vn 0.0009 -0.0000 1.0000
vn 0.0009 -0.0000 -1.0000
vn -0.7598 -0.6502 -0.0017
vn 0.5625 -0.6062 0.5622
vn -0.0000 0.6006 0.7995
vn -0.7597 0.6503 0.0003
vn -0.5626 0.6062 -0.5622
vn 0.7598 0.6502 0.0017
vn 0.7598 -0.6502 -0.0017
vn 0.5625 0.6062 0.5622
vn -0.7597 -0.6503 -0.0003
vn -0.0000 0.6006 0.7996
vn -0.5626 -0.6062 -0.5622
vn 0.7598 -0.6502 0.0017
vn -0.0000 -0.6006 -0.7995
vn 0.5625 0.6062 -0.5622
vn -0.7597 0.6503 -0.0003
vn -0.0000 -0.6006 0.7996
vn -0.5626 -0.6062 0.5622
vn -0.5625 -0.6062 -0.5622
vn -0.5378 -0.6492 0.5378
vn -0.5378 0.6492 0.5378
vn -0.5378 0.6492 -0.5378
vn -0.5378 -0.6492 -0.5378
vn 0.5378 0.6492 -0.5378
vn 0.5378 -0.6492 -0.5378
vn 0.5378 0.6492 0.5378
vn 0.5378 -0.6492 0.5378
vn -0.7323 -0.6809 0.0049
vn -0.7334 -0.6798 -0.0043
vn -0.7323 0.6809 0.0049
vn -0.7334 0.6798 -0.0043
vn -0.0000 -0.6492 0.7606
vn -0.0000 0.6492 0.7606
vn 0.7334 -0.6798 -0.0043
vn 0.7323 -0.6809 0.0049
vn 0.7334 0.6798 -0.0043
vn 0.7323 0.6809 0.0049
vn -0.0000 -0.6492 -0.7606
vn -0.0000 0.6492 -0.7606
vn -0.7334 -0.6798 0.0043
vn -0.7323 -0.6809 -0.0049
vn 0.7334 -0.6798 0.0043
vn 0.7323 -0.6809 -0.0049
vn -0.7323 0.6809 -0.0049
vn -0.7334 0.6798 0.0043
vn 0.7334 0.6798 0.0043
vn 0.7323 0.6809 -0.0049
vn -0.4671 -0.7507 0.4672
vn -0.4671 0.7507 0.4672
vn -0.4671 0.7507 -0.4672
vn -0.4671 -0.7507 -0.4672
vn 0.4671 0.7507 -0.4672
vn 0.4671 -0.7507 -0.4672
vn 0.4671 0.7507 0.4672
vn 0.4671 -0.7507 0.4672
vn -0.6843 -0.7292 -0.0007
vn -0.6843 0.7292 -0.0007
vn -0.0000 -0.7507 0.6607
vn -0.0000 0.7507 0.6607
vn 0.6843 -0.7292 -0.0007
vn 0.6843 0.7292 -0.0007
vn -0.0000 -0.7507 -0.6607
vn -0.0000 0.7507 -0.6607
vn -0.6843 -0.7292 0.0007
vn 0.6843 -0.7292 0.0007
vn -0.6843 0.7292 0.0007
vn 0.6843 0.7292 0.0007
vn -0.0000 -0.6006 -0.7996
vn 0.5626 -0.6062 -0.5622
vn 0.7597 0.6503 0.0003
vn -0.0000 -0.6006 0.7995
vn -0.5625 0.6062 0.5622
vn -0.7597 -0.6503 0.0003
vn -0.0000 0.6006 -0.7996
vn 0.5626 0.6062 -0.5622
vn 0.7598 0.6502 -0.0017
vn -0.7598 -0.6502 0.0017
vn -0.5625 -0.6062 0.5622
vn -0.7598 0.6502 -0.0017
vn 0.7597 0.6503 -0.0003
vn 0.5626 -0.6062 0.5622
vn 0.7597 -0.6503 0.0003
vn -0.7598 0.6502 0.0017
vn -0.5625 0.6062 -0.5622
vn -0.5626 0.6062 0.5622
vn 0.7597 -0.6503 -0.0003
vn 0.5626 0.6062 0.5622
vn 0.5625 -0.6062 -0.5622
vn -0.0000 0.6006 -0.7995
vt 0.652355 0.666667
vt 0.545759 0.583333
vt 0.597793 0.583333
vt 0.595965 0.583333
vt 0.375000 0.779999
vt 0.454241 0.779999
vt 0.454241 0.833333
vt 0.375000 0.833333
vt 0.375000 0.666667
vt 0.454241 0.666667
vt 0.454241 0.722613
vt 0.375000 0.722613
vt 0.847645 0.583333
vt 0.454241 0.970001
vt 0.454241 0.916667
vt 0.652355 0.583333
vt 0.617721 0.138166
vt 0.605391 0.138166
vt 0.674447 0.524974
vt 0.674447 0.524974
vt 0.666329 0.524974
vt 0.651839 0.712463
vt 0.666109 0.725513
vt 0.660120 0.738712
vt 0.637473 0.717896
vt 0.454241 0.083333
vt 0.454241 0.027387
vt 0.454241 0.166667
vt 0.375000 0.166667
vt 0.847645 0.712268
vt 0.833670 0.725026
vt 0.537574 0.779999
vt 0.537574 0.722613
vt 0.454241 0.222613
vt 0.375000 0.222613
vt 0.263889 0.500000
vt 0.291667 0.500000
vt 0.291667 0.583333
vt 0.263889 0.583333
vt 0.651839 0.537537
vt 0.651847 0.582193
vt 0.637627 0.582193
vt 0.637473 0.532104
vt 0.666109 0.524487
vt 0.660120 0.511288
vt 0.375000 0.916667
vt 0.375000 0.970001
vt 0.263889 0.666667
vt 0.291667 0.666667
vt 0.291667 0.750000
vt 0.263889 0.750000
vt 0.479297 0.722613
vt 0.479297 0.669979
vt 0.520703 0.470001
vt 0.520703 0.527387
vt 0.520703 0.669979
vt 0.520703 0.722613
vt 0.208333 0.666667
vt 0.236111 0.666667
vt 0.236111 0.750000
vt 0.208333 0.750000
vt 0.848894 0.537260
vt 0.834188 0.523834
vt 0.839880 0.511288
vt 0.862527 0.532104
vt 0.651847 0.667807
vt 0.651839 0.712463
vt 0.637473 0.717896
vt 0.637627 0.667807
vt 0.652355 0.638889
vt 0.652355 0.611111
vt 0.834188 0.726166
vt 0.848894 0.712740
vt 0.862527 0.717896
vt 0.839880 0.738712
vt 0.454241 0.888889
vt 0.208333 0.500000
vt 0.236111 0.500000
vt 0.236111 0.583333
vt 0.208333 0.583333
vt 0.125000 0.666667
vt 0.537574 0.166667
vt 0.462426 0.166667
vt 0.847645 0.611111
vt 0.462426 0.722613
vt 0.462426 0.779999
vt 0.848894 0.582193
vt 0.862373 0.582193
vt 0.847645 0.638889
vt 0.665413 0.721816
vt 0.834587 0.721816
vt 0.820587 0.725026
vt 0.674447 0.725026
vt 0.666329 0.725026
vt 0.375000 0.861111
vt 0.454241 0.861111
vt 0.375000 0.888889
vt 0.375000 0.361111
vt 0.454241 0.361111
vt 0.454241 0.388889
vt 0.375000 0.388889
vt 0.375000 0.333333
vt 0.454241 0.333333
vt 0.454241 0.388889
vt 0.454241 0.416667
vt 0.375000 0.416667
vt 0.375000 0.583333
vt 0.125000 0.583333
vt 0.860894 0.666667
vt 0.846415 0.666667
vt 0.847645 0.666667
vt 0.858268 0.666667
vt 0.846415 0.583333
vt 0.860894 0.583333
vt 0.858268 0.583333
vt 0.637971 0.638889
vt 0.641818 0.638889
vt 0.545759 0.166667
vt 0.545759 0.222613
vt 0.862029 0.611111
vt 0.858182 0.611111
vt 0.462426 0.666667
vt 0.154999 0.750000
vt 0.125000 0.722613
vt 0.547186 0.222613
vt 0.599145 0.222613
vt 0.599370 0.279999
vt 0.547189 0.279999
vt 0.834587 0.528184
vt 0.665413 0.528184
vt 0.820587 0.524974
vt 0.833671 0.524974
vt 0.479297 0.527387
vt 0.479297 0.470001
vt 0.375000 0.279999
vt 0.454241 0.279999
vt 0.345001 0.750000
vt 0.375000 0.083333
vt 0.345001 0.500000
vt 0.375000 0.527387
vt 0.537574 0.666667
vt 0.125000 0.527387
vt 0.154999 0.500000
vt 0.462426 0.083333
vt 0.537574 0.083333
vt 0.639106 0.583333
vt 0.652710 0.583333
vt 0.641732 0.583333
vt 0.462426 0.527387
vt 0.462426 0.583333
vt 0.537574 0.279999
vt 0.537574 0.222613
vt 0.537574 0.583333
vt 0.537574 0.527387
vt 0.462426 0.222613
vt 0.462426 0.279999
vt 0.479297 0.580021
vt 0.462426 0.470001
vt 0.462426 0.416667
vt 0.462426 0.388889
vt 0.462426 0.361111
vt 0.462426 0.333333
vt 0.520703 0.000000
vt 0.520703 0.027387
vt 0.520703 0.580021
vt 0.834587 0.721816
vt 0.664551 0.717875
vt 0.750000 0.717875
vt 0.835449 0.717875
vt 0.479297 0.027387
vt 0.479297 0.000000
vt 0.537574 0.027387
vt 0.462426 0.027387
vt 0.537574 0.470001
vt 0.375000 0.027387
vt 0.375000 0.000000
vt 0.454241 0.000000
vt 0.834188 0.523834
vt 0.820908 0.523834
vt 0.824439 0.511288
vt 0.520703 0.779999
vt 0.652355 0.537732
vt 0.652355 0.537732
vt 0.674578 0.725582
vt 0.677682 0.738712
vt 0.660120 0.738712
vt 0.599370 0.470001
vt 0.547189 0.470001
vt 0.547189 0.279999
vt 0.599370 0.297487
vt 0.599370 0.450336
vt 0.547186 0.527387
vt 0.599145 0.527387
vt 0.598825 0.582193
vt 0.547183 0.582193
vt 0.545759 0.111111
vt 0.598112 0.111111
vt 0.598112 0.138889
vt 0.545759 0.138889
vt 0.545759 0.611111
vt 0.598112 0.611111
vt 0.598112 0.638889
vt 0.545759 0.638889
vt 0.520703 0.279999
vt 0.520703 0.970001
vt 0.545759 0.279999
vt 0.545759 0.470001
vt 0.547186 0.722613
vt 0.599145 0.722613
vt 0.599370 0.779999
vt 0.547189 0.779999
vt 0.545759 0.722613
vt 0.545759 0.779999
vt 0.858268 0.583333
vt 0.599370 0.970001
vt 0.547189 0.970001
vt 0.599370 0.799664
vt 0.599370 0.952513
vt 0.598112 0.111111
vt 0.595815 0.111111
vt 0.847645 0.537732
vt 0.847645 0.583333
vt 0.652355 0.712268
vt 0.862029 0.611111
vt 0.862029 0.638889
vt 0.652355 0.712268
vt 0.639106 0.583333
vt 0.597793 0.583333
vt 0.545759 0.527387
vt 0.537574 0.638889
vt 0.375000 0.638889
vt 0.625000 0.447318
vt 0.625000 0.464880
vt 0.858182 0.638889
vt 0.641732 0.666667
vt 0.641818 0.611111
vt 0.641732 0.583333
vt 0.599370 0.952513
vt 0.625000 0.949439
vt 0.625000 0.964880
vt 0.537574 0.611111
vt 0.530271 0.611418
vt 0.530271 0.638582
vt 0.537574 0.138889
vt 0.537574 0.111111
vt 0.545759 0.222613
vt 0.537574 0.222613
vt 0.143534 0.590039
vt 0.143534 0.615038
vt 0.545759 0.666667
vt 0.545759 0.027387
vt 0.545759 0.083333
vt 0.537574 0.027387
vt 0.545759 0.779999
vt 0.537574 0.779999
vt 0.537574 0.000000
vt 0.545759 0.000000
vt 0.537574 0.470001
vt 0.545759 0.470001
vt 0.375000 0.138889
vt 0.125000 0.611111
vt 0.462426 0.000000
vt 0.547186 0.027387
vt 0.599145 0.027387
vt 0.598825 0.082193
vt 0.547183 0.082193
vt 0.454241 0.583333
vt 0.545759 0.970001
vt 0.454241 0.527387
vt 0.454241 0.470001
vt 0.597793 0.083333
vt 0.595965 0.083333
vt 0.597793 0.166667
vt 0.595965 0.166667
vt 0.637971 0.611111
vt 0.599145 0.527387
vt 0.547186 0.527387
vt 0.547183 0.667807
vt 0.598825 0.667807
vt 0.547186 0.722613
vt 0.597793 0.666667
vt 0.595965 0.666667
vt 0.595815 0.138889
vt 0.462426 0.970001
vt 0.462426 0.916667
vt 0.462426 0.888889
vt 0.462426 0.861111
vt 0.462426 0.833333
vt 0.862029 0.638889
vt 0.595815 0.638889
vt 0.848894 0.667807
vt 0.862373 0.667807
vt 0.862527 0.717896
vt 0.547183 0.167807
vt 0.598825 0.167807
vt 0.547186 0.222613
vt 0.545759 0.027387
vt 0.595815 0.611111
vt 0.537574 0.970001
vt 0.652710 0.666667
vt 0.639106 0.666667
vt 0.479297 0.080021
vt 0.520703 0.080021
vt 0.520703 0.169979
vt 0.479297 0.169979
vt 0.479297 0.222613
vt 0.479297 0.279999
vt 0.520703 0.222613
vt 0.479297 0.779999
vt 0.479297 0.970001
vt 0.675362 0.725605
vt 0.678463 0.738712
vt 0.617721 0.111834
vt 0.625000 0.003306
vt 0.625000 0.024052
vt 0.599145 0.027387
vt 0.599370 0.000000
vt 0.625000 0.229601
vt 0.625000 0.273071
vt 0.625000 0.476929
vt 0.625000 0.520399
vt 0.625000 0.729601
vt 0.625000 0.773071
vt 0.625000 0.083333
vt 0.625000 0.083333
vt 0.639106 0.666667
vt 0.597793 0.666667
vt 0.598825 0.082193
vt 0.625000 0.032104
vt 0.625000 0.082193
vt 0.625000 0.166667
vt 0.597793 0.166667
vt 0.625000 0.138889
vt 0.595965 0.166667
vt 0.625000 0.111111
vt 0.595815 0.111111
vt 0.595965 0.083333
vt 0.625000 0.167807
vt 0.625000 0.217896
vt 0.598825 0.167807
vt 0.598825 0.582193
vt 0.605391 0.111834
vt 0.627180 0.611834
vt 0.608903 0.611834
vt 0.627180 0.638166
vt 0.608903 0.638166
vt 0.606959 0.138010
vt 0.606959 0.111990
vt 0.616153 0.138010
vt 0.616153 0.111990
vt 0.624856 0.611990
vt 0.611228 0.611990
vt 0.624856 0.638010
vt 0.611228 0.638010
vt 0.375000 0.611111
vt 0.125000 0.638889
vt 0.462426 0.666667
vt 0.462426 0.916667
vt 0.462426 0.722613
vt 0.462426 0.416667
vt 0.462426 0.470001
vt 0.454241 0.470001
vt 0.462426 0.222613
vt 0.454241 0.222613
vt 0.462426 0.833333
vt 0.462426 0.333333
vt 0.462426 0.388889
vt 0.462426 0.888889
vt 0.462426 0.583333
vt 0.375000 0.111111
vt 0.462426 0.083333
vt 0.462426 0.166667
vt 0.462426 0.027387
vt 0.454241 0.027387
vt 0.462426 0.779999
vt 0.454241 0.779999
vt 0.375000 0.470001
vt 0.845185 0.711194
vt 0.845185 0.538806
vt 0.654814 0.538805
vt 0.654815 0.711194
vt 0.547189 0.000000
vt 0.547186 0.027387
vt 0.834587 0.528184
vt 0.625000 0.785120
vt 0.625000 0.802682
vt 0.599370 0.297487
vt 0.625000 0.285120
vt 0.625000 0.300561
vt 0.842528 0.540405
vt 0.842528 0.709595
vt 0.835449 0.532125
vt 0.845185 0.711195
vt 0.657472 0.540405
vt 0.657472 0.709595
vt 0.664551 0.532125
vt 0.545759 0.027387
vt 0.820907 0.726166
vt 0.834188 0.726166
vt 0.839880 0.738712
vt 0.824439 0.738712
vt 0.674578 0.524418
vt 0.666109 0.524487
vt 0.677682 0.511288
vt 0.750000 0.532125
vt 0.819808 0.524974
vt 0.675225 0.524974
vt 0.675225 0.725026
vt 0.819808 0.725026
vt 0.819809 0.524974
vt 0.675225 0.725026
vt 0.823658 0.511288
vt 0.820129 0.523834
vt 0.819809 0.524974
vt 0.675362 0.725605
vt 0.603762 0.800985
vt 0.603762 0.951183
vt 0.625000 0.803464
vt 0.625000 0.948658
vt 0.674447 0.725026
vt 0.820129 0.523834
vt 0.823658 0.738712
vt 0.820129 0.726166
vt 0.820907 0.726166
vt 0.603762 0.298817
vt 0.603762 0.449015
vt 0.625000 0.301342
vt 0.625000 0.446536
vt 0.819808 0.725026
vt 0.678463 0.511288
vt 0.675362 0.524395
vt 0.674578 0.524418
vt 0.604417 0.801178
vt 0.625000 0.803578
vt 0.604417 0.448822
vt 0.604417 0.299012
vt 0.819695 0.524974
vt 0.819695 0.524974
vt 0.604417 0.950988
vt 0.675339 0.725026
vt 0.675339 0.725026
vt 0.675339 0.524974
vt 0.675339 0.524974
vt 0.820129 0.726166
vt 0.675225 0.524974
vt 0.675362 0.524395
vt 0.625000 0.948544
vt 0.823543 0.738712
vt 0.819695 0.725026
vt 0.678578 0.738712
vt 0.819695 0.725026
vt 0.625000 0.301456
vt 0.625000 0.446422
vt 0.678578 0.511288
vt 0.823544 0.511288
vt 0.612026 0.446381
vt 0.612026 0.301469
vt 0.617391 0.445769
vt 0.519040 0.159961
vt 0.519040 0.134962
vt 0.382303 0.611418
vt 0.382303 0.638582
vt 0.152898 0.603000
vt 0.509676 0.146999
vt 0.526581 0.638426
vt 0.385993 0.638426
vt 0.526581 0.611573
vt 0.509676 0.170619
vt 0.152898 0.579381
vt 0.385993 0.611573
vt 0.517918 0.637906
vt 0.394656 0.637906
vt 0.487693 0.175311
vt 0.487693 0.195593
vt 0.617391 0.947907
vt 0.617391 0.804231
vt 0.617391 0.302093
vt 0.612026 0.803619
vt 0.612026 0.948531
vt 0.616416 0.947821
vt 0.616416 0.804319
vt 0.616416 0.445681
vt 0.616416 0.302179
vt 0.613002 0.803931
vt 0.613002 0.948217
vt 0.613002 0.301783
vt 0.613002 0.446069
vt 0.517919 0.612094
vt 0.174882 0.574689
vt 0.174882 0.554407
vt 0.394656 0.612094
vt 0.398946 0.637648
vt 0.408731 0.637648
vt 0.437842 0.637648
vt 0.446061 0.637648
vt 0.466513 0.637648
vt 0.474732 0.637648
vt 0.503843 0.637648
vt 0.513628 0.637648
vt 0.476805 0.189307
vt 0.451972 0.220996
vt 0.378096 0.315268
vt 0.357237 0.341885
vt 0.305337 0.408115
vt 0.284478 0.434732
vt 0.210602 0.529004
vt 0.185769 0.560693
vt 0.513628 0.612352
vt 0.476805 0.207985
vt 0.185769 0.542015
vt 0.305337 0.404784
vt 0.284478 0.428724
vt 0.284478 0.434732
vt 0.474732 0.637648
vt 0.466513 0.612352
vt 0.474732 0.612352
vt 0.437842 0.612352
vt 0.446061 0.612352
vt 0.210602 0.529004
vt 0.210602 0.513514
vt 0.398946 0.612352
vt 0.503843 0.612352
vt 0.437842 0.612352
vt 0.408731 0.612352
vt 0.357237 0.341885
vt 0.357237 0.345216
vt 0.284478 0.428724
vt 0.357237 0.345216
vt 0.378096 0.321276
vt 0.451972 0.236486
vt 0.378096 0.321276
vt 0.847645 0.666667
vt 0.830366 0.545287
vt 0.755046 0.545191
vt 0.745416 0.543995
vt 0.669135 0.543995
vt 0.829215 0.547246
vt 0.829215 0.702754
vt 0.756234 0.702754
vt 0.756234 0.547246
vt 0.755046 0.704809
vt 0.745416 0.706005
vt 0.830366 0.704713
vt 0.744160 0.547246
vt 0.744160 0.702754
vt 0.670391 0.702754
vt 0.670391 0.547246
vt 0.669135 0.706005
vt 0.669135 0.706004
vt 0.830366 0.545287
vt 0.443789 0.583333
vt 0.556211 0.583333
vt 0.556211 0.666667
vt 0.443789 0.666667
vt 0.143721 0.666667
vt 0.356279 0.666667
vt 0.356279 0.714029
vt 0.338501 0.731549
vt 0.161499 0.731549
vt 0.143721 0.714029
vt 0.443789 0.000000
vt 0.556211 0.000000
vt 0.556211 0.028329
vt 0.443789 0.028329
vt 0.556211 0.028329
vt 0.556211 0.083333
vt 0.443789 0.083333
vt 0.643721 0.535971
vt 0.661499 0.518451
vt 0.838501 0.518451
vt 0.856279 0.535971
vt 0.856279 0.583333
vt 0.643721 0.583333
vt 0.556211 0.778744
vt 0.443789 0.778744
vt 0.443789 0.721671
vt 0.556211 0.721671
vt 0.443789 0.528329
vt 0.556211 0.528329
vt 0.643721 0.666667
vt 0.856279 0.666667
vt 0.856279 0.714029
vt 0.838501 0.731549
vt 0.661499 0.731549
vt 0.643721 0.714029
vt 0.143721 0.535971
vt 0.161499 0.518451
vt 0.338501 0.518451
vt 0.356279 0.535971
vt 0.356279 0.583333
vt 0.143721 0.583333
vt 0.443789 0.166667
vt 0.556211 0.166667
vt 0.556211 0.221671
vt 0.443789 0.221671
vt 0.556211 0.721671
vt 0.443789 0.721671
vt 0.556211 0.278744
vt 0.443789 0.278744
vt 0.443789 0.221671
vt 0.556211 0.221671
vt 0.143721 0.583333
vt 0.356279 0.583333
vt 0.356279 0.666667
vt 0.143721 0.666667
vt 0.443789 0.778744
vt 0.556211 0.971256
vt 0.443789 0.971256
vt 0.556211 0.278744
vt 0.556211 0.471256
vt 0.443789 0.471256
vt 0.443789 0.471256
vt 0.643721 0.583333
vt 0.856279 0.583333
vt 0.856279 0.666667
vt 0.643721 0.666667
vt 0.424244 0.529905
vt 0.424244 0.577679
vt 0.129181 0.529905
vt 0.155339 0.504121
vt 0.159904 0.735670
vt 0.340096 0.735670
vt 0.129181 0.672321
vt 0.139540 0.672311
vt 0.139540 0.534395
vt 0.139540 0.577689
vt 0.159904 0.514330
vt 0.571575 0.077679
vt 0.571575 0.029905
vt 0.129181 0.577679
vt 0.571575 0.280339
vt 0.571575 0.220095
vt 0.609636 0.034395
vt 0.609636 0.077689
vt 0.571575 0.469661
vt 0.609636 0.230319
vt 0.609636 0.270096
vt 0.129181 0.720095
vt 0.609636 0.284904
vt 0.609636 0.465096
vt 0.571575 0.001112
vt 0.139540 0.715605
vt 0.344661 0.504121
vt 0.609636 0.004292
vt 0.609636 0.024036
vt 0.370915 0.719869
vt 0.344661 0.745879
vt 0.609636 0.172311
vt 0.571575 0.172321
vt 0.424244 0.672321
vt 0.375824 0.672311
vt 0.375824 0.577689
vt 0.575756 0.577679
vt 0.624176 0.577689
vt 0.624176 0.672311
vt 0.575756 0.672321
vt 0.155339 0.745879
vt 0.153744 0.750000
vt 0.125000 0.721671
vt 0.625000 0.005404
vt 0.625000 0.022925
vt 0.625000 0.232559
vt 0.625000 0.267857
vt 0.125000 0.528329
vt 0.153744 0.500000
vt 0.609636 0.519681
vt 0.609636 0.479904
vt 0.625000 0.482143
vt 0.625000 0.517441
vt 0.575756 0.529905
vt 0.340096 0.514330
vt 0.375824 0.534395
vt 0.370915 0.530131
vt 0.346256 0.500000
vt 0.375000 0.528329
vt 0.609636 0.770097
vt 0.609636 0.730319
vt 0.625000 0.732558
vt 0.625000 0.767857
vt 0.575756 0.720095
vt 0.571575 0.780339
vt 0.375824 0.715605
vt 0.375000 0.721671
vt 0.346256 0.750000
vt 0.625000 0.035971
vt 0.609636 0.965096
vt 0.609636 0.784904
vt 0.625000 0.786499
vt 0.625000 0.963501
vt 0.571575 0.969661
vt 0.424244 0.720095
vt 0.624176 0.715605
vt 0.625000 0.286499
vt 0.625000 0.463501
vt 0.609636 0.215605
vt 0.625000 0.214029
vt 0.624176 0.534395
s 0
usemtl M_Blanc
f 316/1/1 557/1/1 91/1/1 92/1/1
f 559/2/2 602/3/2 236/4/2 118/2/2
f 314/13/2 555/13/2 99/13/2 100/13/2
f 599/16/2 319/16/2 98/16/2 97/16/2
f 623/19/2 368/20/2 325/21/2 581/21/2
f 576/22/5 575/23/5 222/24/5 221/25/5
f 566/30/8 569/31/8 321/31/8 322/30/8
f 166/32/5 167/33/5 138/33/5 137/32/5
f 579/40/5 598/41/5 600/42/5 218/43/5
f 580/44/5 579/40/5 218/43/5 217/45/5
f 78/52/5 29/53/5 198/53/5 190/52/5
f 69/54/12 68/55/12 184/55/12 187/54/12
f 28/56/12 75/57/12 191/57/12 199/56/12
f 572/62/5 571/63/5 214/64/5 213/65/5
f 556/66/5 576/67/5 221/68/5 611/69/5
f 568/72/5 567/73/5 210/74/5 209/75/5
f 155/82/2 154/83/2 125/83/2 127/82/2
f 164/85/12 165/86/12 304/86/12 295/85/12
f 554/87/5 572/62/5 213/65/5 607/88/5
f 615/109/1 553/110/1 105/111/1 232/112/1
f 555/113/2 606/114/2 226/115/2 99/13/2
f 565/118/12 586/119/12 134/119/12 126/118/12
f 158/122/12 164/85/12 295/85/12 128/122/12
f 587/125/22 212/126/22 215/127/22 588/128/22
f 73/133/5 72/134/5 186/134/5 185/133/5
f 167/33/5 159/141/5 130/141/5 138/33/5
f 153/144/1 152/145/1 123/145/1 293/144/1
f 601/146/2 599/147/2 97/16/2 237/148/2
f 173/149/12 157/150/12 280/150/12 147/149/12
f 162/151/5 163/152/5 133/152/5 132/151/5
f 156/153/5 174/154/5 148/154/5 117/153/5
f 160/155/12 161/156/12 303/156/12 281/155/12
f 27/157/5 73/133/5 185/133/5 197/157/5
f 172/158/12 306/158/12 111/159/12 301/160/12 292/161/12 110/162/12 303/156/12 161/156/12
f 61/163/12 60/164/12 178/164/12 177/163/12
f 154/83/12 160/155/12 281/155/12 125/83/12
f 163/152/5 155/82/5 127/82/5 133/152/5
f 68/55/12 26/165/12 196/165/12 184/55/12
f 329/166/30 344/90/30 343/167/30 633/168/30 330/169/30
f 59/170/5 58/171/5 176/171/5 179/170/5
f 152/145/5 170/172/5 142/172/5 123/145/5
f 169/173/12 153/144/12 293/144/12 296/173/12
f 175/174/5 162/151/5 132/151/5 149/174/5
f 619/92/1 362/92/1 321/31/1 569/31/1
f 571/178/5 621/179/5 365/180/5 214/64/5
f 75/57/12 74/181/12 188/181/12 191/57/12
f 599/16/9 578/182/9 326/183/9 319/16/9
f 575/23/5 617/184/5 359/185/5 222/186/5
f 216/187/1 591/188/1 588/189/1 215/127/1 364/190/1 363/191/1
f 592/192/3 219/193/3 603/194/3 558/195/3
f 62/204/12 69/54/12 187/54/12 180/204/12
f 61/205/12 177/205/12 188/181/12 74/181/12
f 589/206/12 590/207/12 150/207/12 135/206/12
f 595/208/32 220/209/32 223/210/32 596/211/32
f 594/212/12 597/213/12 140/213/12 139/212/12
f 208/215/2 583/216/2 596/211/2 223/210/2 358/217/2 357/218/2
f 573/221/3 555/222/3 314/13/3 323/221/3
f 577/223/9 557/1/9 316/1/9 327/223/9
f 574/94/22 577/226/22 327/223/22 328/94/22
f 601/227/2 237/148/2 236/4/2 602/228/2
f 216/187/34 363/191/34 356/232/34 217/233/34
f 208/215/30 357/238/30 350/239/30 209/240/30
f 157/150/2 156/153/2 117/153/2 280/150/2
f 168/262/12 169/173/12 296/173/12 312/262/12
f 584/263/9 211/264/9 613/265/9 562/266/9
f 170/172/5 171/256/5 143/256/5 142/172/5
f 582/268/12 144/268/12 140/213/12 597/213/12
f 159/141/1 158/122/1 128/122/1 130/141/1
f 553/111/3 566/30/3 322/30/3 317/111/3
f 563/252/1 612/271/1 233/272/1 124/252/1
f 605/273/2 565/118/2 126/118/2 227/274/2
f 172/158/12 173/149/12 147/149/12 306/158/12
f 174/154/5 175/174/5 149/174/5 148/154/5
f 591/188/8 216/187/8 219/276/8 592/277/8
f 560/278/3 608/279/3 220/209/3 595/280/3
f 609/281/1 561/250/1 129/250/1 231/282/1
f 168/284/12 312/284/12 309/285/12 107/286/12 290/287/12 108/288/12 304/86/12 165/86/12
f 567/73/5 552/291/5 614/292/5 210/293/5
f 564/294/9 604/295/9 212/126/9 587/296/9
f 585/297/12 563/252/12 124/252/12 145/297/12
f 593/229/12 559/2/12 118/2/12 151/229/12
f 570/132/32 573/221/32 323/221/32 324/132/32
f 557/300/1 610/301/1 230/235/1 91/1/1
f 33/302/9 31/303/9 152/145/9 153/144/9
f 34/304/9 35/305/9 154/83/9 155/82/9
f 27/157/3 26/165/3 156/153/3 157/150/3
f 28/56/3 29/53/3 158/122/3 159/141/3
f 66/306/22 67/307/22 161/156/22 160/155/22
f 62/204/22 63/308/22 163/152/22 162/151/22
f 78/52/32 79/309/32 165/86/32 164/85/32
f 74/181/32 75/57/32 167/33/32 166/32/32
f 58/171/31 59/170/31 169/173/31 168/262/31
f 60/164/31 61/163/31 171/256/31 170/172/31
f 72/134/8 73/133/8 173/149/8 172/158/8
f 68/55/8 69/54/8 175/174/8 174/154/8
f 171/299/5 166/32/5 137/32/5 143/299/5
f 59/170/9 33/302/9 153/144/9 169/173/9
f 31/303/9 60/164/9 170/172/9 152/145/9
f 63/308/9 34/304/9 155/82/9 163/152/9
f 35/305/9 66/306/9 160/155/9 154/83/9
f 61/205/2 74/181/2 166/32/2 171/299/2
f 72/134/1 172/158/1 161/156/1 67/307/1
f 26/165/3 68/55/3 174/154/3 156/153/3
f 73/133/3 27/157/3 157/150/3 173/149/3
f 75/57/3 28/56/3 159/141/3 167/33/3
f 29/53/3 78/52/3 164/85/3 158/122/3
f 69/54/1 62/204/1 162/151/1 175/174/1
f 72/134/5 67/307/5 181/307/5 186/134/5
f 58/310/2 168/284/2 165/86/2 79/309/2
f 33/302/5 59/170/5 179/170/5 193/302/5
f 31/303/2 33/302/2 193/302/2 192/303/2
f 60/164/12 31/303/12 192/303/12 178/164/12
f 35/305/1 34/304/1 195/304/1 194/305/1
f 26/165/1 27/157/1 197/157/1 196/165/1
f 34/304/12 63/308/12 183/308/12 195/304/12
f 29/53/2 28/56/2 199/56/2 198/53/2
f 66/306/5 35/305/5 194/305/5 182/306/5
f 67/307/5 66/306/5 182/306/5 181/307/5
f 63/308/12 62/204/12 180/204/12 183/308/12
f 79/309/5 78/52/5 190/52/5 189/309/5
f 627/311/5 349/312/5 359/185/5 617/184/5
f 590/207/12 593/229/12 151/229/12 150/207/12
f 586/119/12 589/206/12 135/206/12 134/119/12
f 209/314/48 210/315/48 211/316/48 208/317/48
f 213/318/49 214/319/49 215/127/49 212/126/49
f 217/320/50 218/321/50 219/276/50 216/187/50
f 221/322/51 222/323/51 223/210/51 220/209/51
f 615/324/1 232/325/1 233/272/1 612/271/1
f 230/235/1 610/326/1 609/327/1 231/282/1
f 613/328/52 211/264/52 210/329/52 614/330/52
f 226/331/2 606/331/2 605/332/2 227/274/2
f 607/338/57 213/339/57 212/126/57 604/340/57
f 603/341/58 219/193/58 218/43/58 600/42/58
f 611/69/59 221/68/59 220/209/59 608/279/59
f 561/250/12 594/212/12 139/212/12 129/250/12
f 58/310/5 79/309/5 189/309/5 176/310/5
f 583/382/31 208/317/31 211/316/31 584/383/31
f 83/129/22 82/379/22 333/379/22 336/384/22
f 358/217/30 223/210/30 222/385/30 359/386/30
f 85/380/8 84/130/8 337/130/8 340/380/8
f 364/387/34 215/127/34 214/388/34 365/389/34
f 334/390/5 331/391/5 330/169/5 335/392/5
f 81/378/31 80/91/31 329/91/31 332/378/31
f 87/90/32 86/381/32 341/381/32 344/90/32
f 86/381/3 85/380/3 340/380/3 341/381/3
f 81/378/9 332/393/9 333/379/9 82/379/9
f 333/379/60 332/393/60 331/391/60 334/390/60
f 341/381/61 340/380/61 339/394/61 342/395/61
f 330/169/67 331/391/67 332/378/67 329/91/67
f 334/390/68 335/392/68 336/384/68 333/379/68
f 338/396/69 339/394/69 340/380/69 337/130/69
f 342/395/70 343/167/70 344/90/70 341/381/70
f 80/91/2 87/90/2 344/90/2 329/166/2
f 84/130/1 83/129/1 336/384/1 337/130/1
f 582/257/12 585/397/12 145/297/12 144/257/12
f 618/398/5 568/399/5 209/400/5 350/401/5
f 578/183/31 581/21/31 325/21/31 326/183/31
f 622/402/5 580/403/5 217/45/5 356/404/5
f 574/94/1 328/94/1 361/93/1 616/93/1
f 335/392/34 634/405/34 338/396/34 337/130/34 336/384/34
f 352/406/5 351/407/5 399/407/5 398/406/5
f 346/408/5 345/409/5 391/409/5 390/408/5
f 375/410/3 632/406/3 352/406/3 398/406/3
f 371/411/9 628/408/9 346/408/9 390/408/9
f 355/412/3 631/413/3 375/414/3 373/412/3
f 349/312/9 627/415/9 371/411/9 369/312/9
f 570/132/2 324/132/2 367/131/2 620/131/2
f 347/416/30 348/417/30 357/238/30 358/217/30
f 349/418/30 347/416/30 358/217/30 359/386/30
f 348/417/30 360/419/30 350/239/30 357/238/30
f 624/409/1 345/409/1 362/92/1 619/92/1
f 346/408/1 628/408/1 616/420/1 361/93/1
f 345/409/1 346/408/1 361/93/1 362/92/1
f 631/421/5 355/412/5 365/180/5 621/179/5
f 360/422/5 625/423/5 618/424/5 350/401/5
f 353/425/34 354/426/34 363/191/34 364/387/34
f 355/427/34 353/425/34 364/387/34 365/389/34
f 354/426/34 366/428/34 356/232/34 363/191/34
f 629/407/2 351/407/2 368/20/2 623/19/2
f 352/406/2 632/406/2 620/131/2 367/131/2
f 351/407/2 352/406/2 367/131/2 368/20/2
f 345/409/3 624/409/3 626/429/3 391/409/3
f 366/430/5 630/431/5 622/432/5 356/404/5
f 626/429/3 625/444/3 360/422/3 388/422/3
f 396/445/9 630/446/9 366/430/9 395/430/9
f 351/407/74 629/407/74 396/407/74 399/407/74
f 348/417/34 347/416/34 386/416/34 385/417/34
f 354/426/30 353/425/30 393/425/30 392/426/30
f 347/416/75 349/418/75 369/418/75 386/416/75
f 353/425/76 355/427/76 373/427/76 393/425/76
f 360/419/77 348/417/77 385/417/77 388/419/77
f 366/428/78 354/426/78 392/426/78 395/428/78
f 624/409/90 625/429/90 626/429/90
f 627/311/74 628/411/74 371/411/74
f 629/407/91 630/407/91 396/445/91
f 631/421/92 632/414/92 375/410/92
f 587/125/93 588/128/93 589/206/93 586/119/93
f 595/208/94 596/211/94 597/213/94 594/212/94
f 583/382/95 584/383/95 585/397/95 582/257/95
f 591/188/96 592/277/96 593/229/96 590/207/96
f 563/252/97 585/297/97 584/263/97 562/266/97
f 586/119/98 565/118/98 564/294/98 587/296/98
f 594/212/99 561/250/99 560/278/99 595/280/99
f 559/2/100 593/229/100 592/192/100 558/195/100
f 569/31/101 566/30/101 567/73/101 568/72/101
f 573/221/102 570/132/102 571/63/102 572/62/102
f 581/21/103 578/183/103 579/40/103 580/44/103
f 577/226/104 574/94/104 575/23/104 576/22/104
f 552/291/105 567/73/105 566/30/105 553/111/105
f 555/222/106 573/221/106 572/62/106 554/87/106
f 557/1/107 577/223/107 576/67/107 556/66/107
f 598/41/108 579/40/108 578/182/108 599/16/108
f 613/328/109 614/330/109 615/324/109 612/271/109
f 605/332/110 606/331/110 607/338/110 604/340/110
f 609/327/111 610/326/111 611/69/111 608/279/111
f 601/227/112 602/228/112 603/341/112 600/42/112
f 602/3/113 559/2/113 558/195/113 603/194/113
f 599/147/114 601/146/114 600/42/114 598/41/114
f 604/295/115 564/294/115 565/118/115 605/273/115
f 606/114/116 555/113/116 554/87/116 607/88/116
f 608/279/117 560/278/117 561/250/117 609/281/117
f 610/301/118 557/300/118 556/66/118 611/69/118
f 614/292/119 552/291/119 553/110/119 615/109/119
f 562/266/120 613/265/120 612/271/120 563/252/120
f 582/268/121 597/213/121 596/211/121 583/216/121
f 590/207/122 589/206/122 588/189/122 591/188/122
f 619/92/123 569/31/123 568/399/123 618/398/123
f 617/184/124 575/23/124 574/94/124 616/93/124
f 623/19/125 581/21/125 580/403/125 622/402/125
f 621/179/126 571/178/126 570/132/126 620/131/126
f 624/409/127 619/92/127 618/424/127 625/423/127
f 616/420/128 628/408/128 627/311/128 617/184/128
f 629/407/129 623/19/129 622/432/129 630/431/129
f 620/131/130 632/406/130 631/421/130 621/179/130
f 553/532/1 317/111/1 106/111/1 105/111/1
f 634/405/5 335/392/5 636/533/5 642/534/5
f 338/396/5 343/167/5 342/395/5 339/394/5
f 338/396/5 634/405/5 644/535/5 650/536/5
f 633/168/5 634/405/5 642/534/5 639/541/5
f 634/405/5 633/168/5 645/542/5 644/535/5
f 330/169/5 633/168/5 639/541/5 637/543/5
f 343/167/5 338/396/5 650/536/5 647/548/5
f 633/168/5 343/167/5 647/549/5 645/542/5
f 644/535/3 645/542/3 659/542/3 662/535/3
f 647/548/9 650/536/9 664/536/9 665/548/9
f 645/542/1 647/549/1 665/549/1 659/542/1
f 642/534/131 636/533/131 654/533/131 656/534/131
f 637/543/132 639/541/132 657/541/132 651/543/132
f 639/541/9 642/534/9 656/534/9 657/541/9
f 636/550/3 637/543/3 651/543/3 654/550/3
f 650/536/2 644/535/2 662/535/2 664/536/2
f 330/169/5 637/543/5 636/550/5 335/392/5
f 717/555/12 724/556/12 760/557/12 701/558/12 732/559/12 685/560/12
f 684/561/31 690/562/31 688/563/31 686/564/31
f 686/564/9 688/565/9 719/566/9 718/567/9
f 748/568/5 713/569/5 740/570/5 697/571/5 721/572/5 728/573/5
f 704/574/32 702/575/32 700/576/32 706/577/32
f 710/578/3 712/579/3 727/552/3 726/551/3
f 729/580/5 720/581/5 736/582/5 689/583/5 756/584/5 705/585/5
f 744/586/12 693/587/12 752/588/12 709/589/12 725/590/12 716/591/12
f 715/592/9 722/593/9 698/594/9 692/595/9
f 723/554/3 730/553/3 706/596/3 700/597/3
f 696/598/22 694/599/22 692/600/22 698/601/22
f 702/606/2 704/574/2 690/607/2 684/608/2
f 694/599/1 696/609/1 714/610/1 708/611/1
f 712/579/8 710/578/8 708/612/8 714/610/8
f 754/617/133 678/618/133 806/618/133 783/617/133
f 745/619/134 746/620/134 775/620/134 778/619/134
f 683/621/135 759/622/135 792/622/135 765/621/135
f 670/623/2 669/624/2 797/624/2 798/623/2
f 691/625/136 668/626/136 796/626/136 777/625/136
f 743/627/137 691/625/137 777/625/137 776/627/137
f 671/628/138 737/629/138 770/629/138 799/628/138
f 668/626/1 667/630/1 795/630/1 796/626/1
f 667/630/139 745/619/139 778/619/139 795/630/139
f 741/631/140 742/632/140 771/632/140 774/631/140
f 687/633/141 672/634/141 800/634/141 769/633/141
f 750/635/142 741/631/142 774/631/142 779/635/142
f 739/636/143 695/637/143 773/637/143 772/636/143
f 734/638/144 670/623/144 798/623/144 763/638/144
f 695/639/145 747/640/145 780/640/145 773/639/145
f 737/629/146 738/641/146 767/641/146 770/629/146
f 669/624/147 731/642/147 764/642/147 797/624/147
f 746/620/148 753/643/148 786/643/148 775/620/148
f 735/644/149 687/645/149 769/645/149 768/644/149
f 761/646/150 762/647/150 791/647/150 794/646/150
f 667/630/47 668/626/47 716/591/47 715/108/47
f 669/624/47 670/623/47 718/81/47 717/555/47
f 671/628/60 672/634/60 720/325/60 719/566/60
f 673/648/60 674/649/60 722/593/60 721/331/60
f 675/650/62 676/651/62 724/556/62 723/554/62
f 677/652/62 678/618/62 726/551/62 725/590/62
f 679/653/61 680/654/61 728/573/61 727/552/61
f 681/655/61 682/656/61 730/553/61 729/580/61
f 683/621/151 731/642/151 685/560/151 732/559/151
f 734/638/151 733/657/151 684/658/151 686/659/151
f 687/645/152 735/644/152 689/660/152 736/661/152
f 738/641/152 737/629/152 688/563/152 690/562/152
f 695/637/153 739/636/153 697/662/153 740/663/153
f 742/632/153 741/631/153 696/598/153 698/601/153
f 691/625/154 743/627/154 693/587/154 744/586/154
f 746/620/154 745/619/154 692/664/154 694/665/154
f 711/666/155 747/667/155 713/668/155 748/669/155
f 750/635/155 749/670/155 712/579/155 714/610/155
f 707/671/156 751/672/156 709/589/156 752/588/156
f 754/673/156 753/643/156 708/674/156 710/675/156
f 703/676/157 755/677/157 705/678/157 756/679/157
f 758/680/157 757/681/157 704/574/157 706/577/157
f 699/682/158 759/622/158 701/558/158 760/557/158
f 762/647/158 761/646/158 700/683/158 702/684/158
f 731/642/159 669/624/159 717/555/159 685/560/159
f 670/623/160 734/638/160 686/659/160 718/81/160
f 672/634/161 687/633/161 736/685/161 720/325/161
f 737/629/162 671/628/162 719/566/162 688/565/162
f 759/622/163 683/621/163 732/559/163 701/558/163
f 733/657/163 762/647/163 702/684/163 684/658/163
f 735/686/164 703/687/164 756/688/164 689/689/164
f 757/681/164 738/690/164 690/607/164 704/574/164
f 761/691/165 675/650/165 723/554/165 700/597/165
f 676/651/166 699/682/166 760/557/166 724/556/166
f 682/656/167 758/680/167 706/596/167 730/553/167
f 755/692/168 681/655/168 729/580/168 705/585/168
f 743/627/169 707/671/169 752/588/169 693/587/169
f 753/643/169 746/620/169 694/665/169 708/674/169
f 747/640/170 695/639/170 740/693/170 713/694/170
f 741/631/170 750/635/170 714/610/170 696/609/170
f 745/619/171 667/630/171 715/108/171 692/664/171
f 668/626/172 691/625/172 744/586/172 716/591/172
f 678/618/173 754/617/173 710/578/173 726/551/173
f 751/672/174 677/652/174 725/590/174 709/589/174
f 739/695/175 673/648/175 721/331/175 697/696/175
f 674/649/176 742/632/176 698/594/176 722/593/176
f 749/670/177 679/653/177 727/552/177 712/579/177
f 680/654/178 711/697/178 748/568/178 728/573/178
f 672/634/2 671/628/2 799/628/2 800/634/2
f 762/647/199 733/657/199 766/657/199 791/647/199
f 747/667/200 711/666/200 781/666/200 780/667/200
f 677/652/201 751/672/201 784/672/201 805/652/201
f 674/649/1 673/648/1 801/648/1 802/649/1
f 703/687/202 735/686/202 768/686/202 789/687/202
f 749/670/203 750/635/203 779/635/203 782/670/203
f 673/648/204 739/695/204 772/695/204 801/648/204
f 676/651/2 675/650/2 803/650/2 804/651/2
f 738/690/205 757/681/205 790/681/205 767/690/205
f 751/672/206 707/671/206 785/671/206 784/672/206
f 742/632/207 674/649/207 802/649/207 771/632/207
f 678/618/1 677/652/1 805/652/1 806/618/1
f 675/650/208 761/691/208 794/691/208 803/650/208
f 753/643/209 754/673/209 783/673/209 786/643/209
f 679/653/210 749/670/210 782/670/210 807/653/210
f 680/654/1 679/653/1 807/653/1 808/654/1
f 699/682/211 676/651/211 804/651/211 793/682/211
f 755/677/212 703/676/212 789/676/212 788/677/212
f 711/697/213 680/654/213 808/654/213 781/697/213
f 682/656/2 681/655/2 809/655/2 810/656/2
f 758/680/214 682/656/214 810/656/214 787/680/214
f 757/681/215 758/680/215 787/680/215 790/681/215
f 731/642/216 683/621/216 765/621/216 764/642/216
f 681/655/217 755/692/217 788/692/217 809/655/217
f 759/622/218 699/682/218 793/682/218 792/622/218
f 733/657/219 734/638/219 763/638/219 766/657/219
f 707/671/220 743/627/220 776/627/220 785/671/220
usemtl M_Noir_Profond
f 87/90/5 80/91/5 321/31/5 362/92/5 361/93/5 328/94/5
f 83/129/5 84/130/5 325/21/5 368/19/5 367/131/5 324/132/5
f 319/16/5 320/71/5 95/71/5 98/16/5
f 317/111/5 318/89/5 103/89/5 106/111/5
f 315/70/5 316/1/5 92/1/5 93/70/5
f 313/84/5 314/13/5 100/13/5 101/84/5
f 102/84/5 99/13/5 226/214/5 225/121/5
f 151/229/3 118/2/3 117/153/3 148/154/3
f 91/1/9 94/70/9 93/70/9 92/1/9
f 99/13/3 102/84/3 101/84/3 100/13/3
f 96/71/9 97/16/9 98/16/9 95/71/9
f 104/89/3 105/111/3 106/111/3 103/89/3
f 105/111/5 104/89/5 234/234/5 232/112/5
f 94/70/5 91/1/5 230/235/5 229/117/5
f 97/16/5 96/71/5 238/236/5 237/237/5
f 114/200/3 115/203/3 116/230/3 113/241/3
f 120/196/9 121/199/9 122/244/9 119/245/9
f 126/118/9 134/246/9 133/247/9 127/82/9
f 129/250/3 139/212/3 138/33/3 130/141/3
f 145/251/9 124/252/9 123/145/9 142/253/9
f 133/247/22 134/246/22 135/206/22 132/151/22
f 138/33/32 139/212/32 140/254/32 137/255/32
f 143/256/31 144/257/31 145/251/31 142/253/31
f 149/258/8 150/259/8 151/229/8 148/154/8
f 144/268/2 143/299/2 137/255/2 140/254/2
f 150/259/1 149/258/1 132/151/1 135/206/1
f 225/333/53 226/331/53 227/334/53 224/283/53
f 229/117/54 230/235/54 231/282/54 228/290/54
f 232/325/55 234/335/55 235/336/55 233/337/55
f 237/237/56 238/236/56 239/298/56 236/4/56
f 255/347/61 252/348/61 268/348/61 271/347/61
f 254/349/2 255/347/2 271/347/2 270/349/2
f 253/350/60 252/348/60 260/342/60 261/313/60
f 254/349/60 253/350/60 261/313/60 262/17/60
f 255/347/60 254/349/60 262/17/60 263/18/60
f 252/348/60 255/347/60 263/18/60 260/342/60
f 257/351/61 256/352/61 264/344/61 265/343/61
f 258/353/61 257/351/61 265/343/61 266/345/61
f 259/354/61 258/353/61 266/345/61 267/346/61
f 256/352/61 259/354/61 267/346/61 264/344/61
f 256/352/2 257/351/2 273/351/2 272/352/2
f 257/351/62 258/353/62 274/353/62 273/351/62
f 258/353/1 259/354/1 275/354/1 274/353/1
f 259/354/60 256/352/60 272/352/60 275/354/60
f 252/348/1 253/350/1 269/350/1 268/348/1
f 253/350/47 254/349/47 270/349/47 269/350/47
f 283/356/12 308/231/12 299/9/12 88/81/12
f 89/108/12 287/107/12 298/355/12 307/261/12
f 115/203/3 228/290/3 231/282/3 129/250/3 130/141/3 128/357/3 310/10/3 299/9/3 308/231/3 116/230/3
f 309/358/2 312/284/2 141/14/2 279/15/2
f 128/122/3 295/359/3 311/11/3 310/10/3
f 111/360/1 306/361/1 305/362/1 112/105/1
f 125/83/9 281/363/9 294/364/9 302/28/9
f 290/287/2 107/286/2 276/76/2 289/96/2
f 108/365/2 290/287/2 289/96/2 277/7/2
f 292/161/1 301/160/1 278/100/1 291/99/1
f 110/366/1 292/161/1 291/99/1 109/103/1
f 301/367/1 111/159/1 112/105/1 278/104/1
f 107/368/2 309/285/2 279/15/2 276/76/2
f 118/2/3 236/4/3 239/298/3 114/200/3 113/241/3 298/355/3 287/107/3 300/267/3 280/369/3 117/153/3
f 124/252/9 233/337/9 235/336/9 120/196/9 119/245/9 283/370/9 88/138/9 288/26/9 293/371/9 123/145/9
f 121/199/9 224/283/9 227/334/9 126/118/9 127/82/9 125/372/9 302/28/9 89/29/9 307/260/9 122/244/9
f 296/373/9 293/144/9 288/26/9 282/374/9
f 304/375/2 108/288/2 277/7/2 136/376/2
f 147/149/3 280/150/3 300/267/3 146/269/3
f 303/156/1 110/162/1 109/103/1 131/136/1
f 294/364/22 281/363/22 303/156/22 131/136/22
f 311/11/32 295/359/32 304/375/32 136/376/32
f 141/177/31 312/262/31 296/373/31 282/374/31
f 305/362/8 306/361/8 147/149/8 146/269/8
f 81/378/5 82/379/5 323/221/5 314/13/5 313/84/5 318/89/5 317/111/5 322/30/5
f 85/380/5 86/381/5 327/223/5 316/1/5 315/70/5 320/71/5 319/16/5 326/183/5
f 80/91/5 81/378/5 322/30/5 321/31/5
f 82/379/5 83/129/5 324/132/5 323/221/5
f 84/130/5 85/380/5 326/183/5 325/21/5
f 86/381/5 87/90/5 328/94/5 327/223/5
f 378/433/71 387/434/71 448/434/71 453/433/71
f 381/435/72 382/436/72 455/436/72 454/435/72
f 397/437/9 383/438/9 414/438/9 406/437/9
f 377/439/73 378/433/73 453/433/73 452/439/73
f 389/440/3 379/441/3 410/441/3 402/440/3
f 384/442/3 376/443/3 407/443/3 415/442/3
f 378/433/30 377/439/30 385/417/30 386/416/30
f 387/434/30 378/433/30 386/416/30 369/418/30
f 377/439/30 370/447/30 388/419/30 385/417/30
f 370/448/79 372/449/79 626/429/79 388/422/79
f 389/440/5 387/450/5 369/312/5 371/411/5
f 380/451/1 379/441/1 390/408/1 391/409/1
f 372/449/80 380/451/80 391/409/80 626/429/80
f 379/441/1 389/440/1 371/411/1 390/408/1
f 382/436/34 381/435/34 392/426/34 393/425/34
f 394/452/34 382/436/34 393/425/34 373/427/34
f 381/435/34 374/453/34 395/428/34 392/426/34
f 374/454/5 376/443/5 396/407/5 395/430/5
f 397/437/5 394/455/5 373/412/5 375/414/5
f 384/442/2 383/438/2 398/406/2 399/407/2
f 376/443/2 384/442/2 399/407/2 396/407/2
f 383/438/2 397/437/2 375/414/2 398/406/2
f 382/436/82 394/452/82 450/452/82 455/436/82
f 370/447/83 377/439/83 452/439/83 449/447/83
f 374/453/84 381/435/84 454/435/84 451/453/84
f 372/449/9 370/448/9 449/448/9 403/449/9
f 376/443/3 374/454/3 451/454/3 407/443/3
f 387/450/3 389/440/3 402/440/3 448/450/3
f 394/455/9 397/437/9 406/437/9 450/455/9
f 379/441/12 380/451/12 411/451/12 410/441/12
f 383/438/12 384/442/12 415/442/12 414/438/12
f 380/451/9 372/449/9 403/449/9 411/451/9
f 424/465/3 425/467/3 433/242/3 432/243/3
f 426/468/9 427/464/9 435/460/9 434/459/9
f 429/463/9 428/469/9 436/248/9 437/249/9
f 428/469/9 426/468/9 434/459/9 436/248/9
f 427/464/9 429/463/9 437/249/9 435/460/9
f 425/467/3 430/470/3 438/461/3 433/242/3
f 431/466/3 424/465/3 432/243/3 439/462/3
f 430/470/3 431/466/3 439/462/3 438/461/3
f 467/480/30 456/481/30 459/476/30 460/475/30
f 457/482/34 468/483/34 461/477/34 462/458/34
f 469/484/30 458/485/30 463/479/30 464/478/30
f 456/481/30 469/484/30 464/478/30 459/476/30
f 458/485/30 467/480/30 460/475/30 463/479/30
f 471/486/34 470/487/34 465/456/34 466/457/34
f 468/483/34 471/486/34 466/457/34 461/477/34
f 470/487/34 457/482/34 462/458/34 465/456/34
f 458/485/34 469/484/34 477/484/34 476/485/34
f 467/480/87 458/485/87 476/485/87 473/480/87
f 456/481/73 467/480/73 473/480/73 472/481/73
f 457/482/81 470/487/81 478/487/81 475/482/81
f 470/487/30 471/486/30 479/486/30 478/487/30
f 469/484/85 456/481/85 472/481/85 477/484/85
f 468/483/72 457/482/72 475/482/72 474/483/72
f 471/486/86 468/483/86 474/483/86 479/486/86
f 495/492/3 530/493/3 531/494/3 522/495/3 523/496/3 538/497/3 539/498/3 488/499/3 496/471/3 503/472/3
f 491/500/9 534/501/9 535/502/9 518/503/9 519/504/9 526/505/9 527/506/9 493/507/9 501/489/9 499/473/9
f 488/499/3 489/508/3 497/488/3 496/471/3
f 490/509/9 491/500/9 499/473/9 498/474/9
f 493/507/9 492/510/9 500/490/9 501/489/9
f 516/511/9 525/512/9 526/513/9 519/504/9
f 538/514/3 523/496/3 520/515/3 537/516/3
f 522/495/3 531/494/3 528/517/3 521/518/3
f 527/519/9 524/520/9 492/510/9 493/507/9
f 494/521/3 495/492/3 503/472/3 502/491/3
f 489/508/3 536/522/3 537/516/3 520/515/3 521/518/3 528/523/3 529/524/3 494/521/3 502/491/3 497/488/3
f 492/510/9 524/520/9 525/527/9 516/511/9 517/528/9 532/529/9 533/530/9 490/509/9 498/474/9 500/490/9
f 489/508/3 488/499/3 539/498/3 536/522/3
f 529/524/3 530/493/3 495/492/3 494/521/3
f 491/500/9 490/509/9 533/530/9 534/501/9
f 522/495/12 521/518/12 509/518/12 510/495/12
f 532/531/9 517/526/9 518/525/9 535/502/9
f 532/531/12 535/502/12 542/502/12 541/531/12
f 530/493/12 529/524/12 550/524/12 549/493/12
f 516/511/12 519/504/12 513/504/12 514/511/12
f 538/514/12 537/516/12 505/516/12 506/514/12
f 524/520/12 527/519/12 546/519/12 545/520/12
f 652/538/5 653/537/5 654/550/5 651/543/5
f 653/537/5 655/540/5 656/534/5 654/533/5
f 658/539/5 652/538/5 651/543/5 657/541/5
f 657/541/5 656/534/5 655/540/5 658/539/5
f 660/545/5 661/544/5 662/535/5 659/542/5
f 661/544/5 663/547/5 664/536/5 662/535/5
f 666/546/5 660/545/5 659/542/5 665/549/5
f 665/548/5 664/536/5 663/547/5 666/546/5
usemtl M_Noir_Bleuté
f 54/5/2 76/6/2 41/7/2 13/8/2
f 3/9/3 30/10/3 77/11/3 53/12/3
f 57/14/4 42/15/4 279/15/4 141/14/4
f 200/17/2 201/18/2 263/18/2 262/17/2
f 32/26/6 56/27/6 282/27/6 288/26/6
f 36/28/7 1/29/7 89/29/7 302/28/7
f 1/29/9 36/28/9 65/34/9 51/35/9
f 18/36/10 10/37/10 14/38/10 22/39/10
f 12/46/2 42/15/2 57/14/2 49/47/2
f 24/48/11 16/49/11 13/50/11 21/51/11
f 17/58/13 25/59/13 20/60/13 12/61/13
f 25/59/12 24/48/12 21/51/12 20/60/12
f 9/70/9 8/71/9 320/71/9 315/70/9
f 42/15/14 48/76/14 276/76/14 279/15/14
f 11/77/15 19/78/15 23/79/15 15/80/15
f 19/78/12 18/36/12 22/39/12 23/79/12
f 16/49/1 24/48/1 25/59/1 17/58/1 88/81/1 299/9/1
f 6/84/1 313/84/1 101/84/1 102/84/1
f 6/84/3 5/89/3 318/89/3 313/84/3
f 21/95/2 47/96/2 48/76/2 20/97/2
f 13/8/16 41/7/16 47/96/16 21/95/16
f 19/98/1 45/99/1 46/100/1 18/101/1
f 11/102/17 43/103/17 45/99/17 19/98/17
f 18/101/18 46/104/18 44/105/18 10/106/18
f 23/79/2 22/39/2 14/38/2 287/107/2 89/108/2 15/80/2
f 20/97/19 48/76/19 42/15/19 12/46/19
f 76/6/20 77/11/20 311/11/20 136/6/20
f 250/116/2 9/70/2 94/70/2 229/117/2
f 246/120/1 6/84/1 102/84/1 225/121/1
f 2/81/21 17/58/21 12/61/21 49/123/21 50/124/21
f 52/135/1 64/136/1 43/103/1 11/102/1
f 16/49/23 3/9/23 53/12/23 54/137/23 13/50/23
f 2/138/24 32/26/24 288/26/24 88/138/24
f 10/37/25 7/139/25 55/140/25 4/107/25 14/38/25
f 51/142/26 52/143/26 11/77/26 15/80/26 1/108/26
f 44/105/27 46/104/27 278/104/27 112/105/27
f 320/71/1 8/71/1 96/71/1 95/71/1
f 64/136/28 65/34/28 294/34/28 131/136/28
f 45/99/29 43/103/29 109/103/29 291/99/29
f 56/27/31 50/175/31 49/176/31 57/177/31
f 64/136/22 52/135/22 51/35/22 65/34/22
f 76/6/32 54/5/32 53/12/32 77/11/32
f 50/175/9 56/27/9 32/26/9 2/138/9
f 46/100/33 45/99/33 291/99/33 278/100/33
f 37/196/9 244/197/9 247/198/9 38/199/9
f 9/70/2 315/70/2 93/70/2 94/70/2
f 39/200/3 248/201/3 251/202/3 40/203/3
f 244/219/2 37/196/2 120/196/2 235/220/2
f 5/89/5 6/84/5 246/224/5 245/225/5
f 116/230/2 308/231/2 423/231/2 416/230/2
f 241/242/12 240/243/12 432/243/12 433/242/12
f 286/248/5 285/249/5 437/249/5 436/248/5
f 122/244/1 307/260/1 420/261/1 418/244/1
f 56/27/35 57/177/35 141/177/35 282/27/35
f 39/200/12 40/203/12 115/203/12 114/200/12
f 4/107/36 297/267/36 300/267/36 287/107/36
f 43/103/37 64/136/37 131/136/37 109/103/37
f 416/230/5 417/241/5 113/241/5 116/230/5
f 318/89/2 5/89/2 104/89/2 103/89/2
f 65/34/6 36/28/6 302/28/6 294/34/6
f 70/269/38 71/270/38 305/270/38 146/269/38
f 30/10/39 3/9/39 299/9/39 310/10/39
f 8/71/1 249/275/1 238/236/1 96/71/1
f 48/76/40 47/96/40 289/96/40 276/76/40
f 41/7/4 76/6/4 136/6/4 277/7/4
f 77/11/41 30/10/41 310/10/41 311/11/41
f 38/199/1 247/198/1 224/283/1 121/199/1
f 5/89/2 245/289/2 234/234/2 104/89/2
f 37/196/12 38/199/12 121/199/12 120/196/12
f 8/71/5 9/70/5 250/116/5 249/275/5
f 40/203/2 251/202/2 228/290/2 115/203/2
f 418/244/5 419/245/5 119/245/5 122/244/5
f 47/96/42 41/7/42 277/7/42 289/96/42
f 297/267/41 70/269/41 146/269/41 300/267/41
f 248/201/1 39/200/1 114/200/1 239/298/1
f 71/270/37 44/105/37 112/105/37 305/270/37
f 205/313/47 200/17/47 262/17/47 261/313/47
f 238/236/1 249/275/1 248/201/1 239/298/1
f 250/116/2 229/117/2 228/290/2 251/202/2
f 224/283/1 247/198/1 246/333/1 225/333/1
f 234/335/2 245/335/2 244/219/2 235/220/2
f 205/313/60 204/342/60 244/197/60 245/335/60
f 200/17/60 205/313/60 245/335/60 246/333/60
f 201/18/60 200/17/60 246/333/60 247/198/60
f 204/342/60 201/18/60 247/198/60 244/197/60
f 207/343/61 206/344/61 248/201/61 249/275/61
f 202/345/61 207/343/61 249/275/61 250/116/61
f 203/346/61 202/345/61 250/116/61 251/202/61
f 206/344/61 203/346/61 251/202/61 248/201/61
f 201/18/61 204/342/61 260/342/61 263/18/61
f 206/344/2 207/343/2 265/343/2 264/344/2
f 207/343/62 202/345/62 266/345/62 265/343/62
f 202/345/1 203/346/1 267/346/1 266/345/1
f 203/346/60 206/344/60 264/344/60 267/346/60
f 204/342/1 205/313/1 261/313/1 260/342/1
f 422/355/1 420/261/1 307/261/1 298/355/1
f 420/261/12 422/355/12 423/231/12 421/356/12
f 421/356/2 423/231/2 308/231/2 283/356/2
f 417/241/1 422/355/1 298/355/1 113/241/1
f 419/245/2 421/356/2 283/356/2 119/245/2
f 287/107/63 14/38/63 4/107/63
f 299/9/64 3/9/64 16/49/64
f 88/81/65 17/58/65 2/81/65
f 15/80/66 89/108/66 1/108/66
f 10/106/1 44/105/1 71/270/1 7/377/1
f 55/140/3 70/269/3 297/267/3 4/107/3
f 70/269/8 55/140/8 7/377/8 71/270/8
f 412/456/30 413/457/30 466/457/30 465/456/30
f 403/449/5 449/448/5 448/450/5 402/440/5
f 411/451/1 403/449/1 402/440/1 410/441/1
f 405/458/81 412/456/81 465/456/81 462/458/81
f 407/443/5 451/454/5 450/455/5 406/437/5
f 415/442/2 407/443/2 406/437/2 414/438/2
f 240/243/3 241/242/3 417/241/3 416/230/3
f 242/459/9 243/460/9 419/245/9 418/244/9
f 285/249/9 286/248/9 420/261/9 421/356/9
f 286/248/9 242/459/9 418/244/9 420/261/9
f 243/460/9 285/249/9 421/356/9 419/245/9
f 241/242/3 90/461/3 422/355/3 417/241/3
f 284/462/3 240/243/3 416/230/3 423/231/3
f 90/461/3 284/462/3 423/231/3 422/355/3
f 284/462/5 90/461/5 438/461/5 439/462/5
f 90/461/2 241/242/2 433/242/2 438/461/2
f 242/459/2 286/248/2 436/248/2 434/459/2
f 243/460/12 242/459/12 434/459/12 435/460/12
f 240/243/1 284/462/1 439/462/1 432/243/1
f 285/249/1 243/460/1 435/460/1 437/249/1
f 401/475/30 400/476/30 448/434/30 449/447/30
f 405/458/34 404/477/34 450/452/34 451/453/34
f 409/478/30 408/479/30 452/439/30 453/433/30
f 400/476/30 409/478/30 453/433/30 448/434/30
f 408/479/30 401/475/30 449/447/30 452/439/30
f 413/457/34 412/456/34 454/435/34 455/436/34
f 404/477/34 413/457/34 455/436/34 450/452/34
f 412/456/34 405/458/34 451/453/34 454/435/34
f 409/478/85 400/476/85 459/476/85 464/478/85
f 404/477/72 405/458/72 462/458/72 461/477/72
f 413/457/86 404/477/86 461/477/86 466/457/86
f 401/475/87 408/479/87 463/479/87 460/475/87
f 408/479/34 409/478/34 464/478/34 463/479/34
f 400/476/73 401/475/73 460/475/73 459/476/73
f 635/537/5 638/538/5 640/539/5 641/540/5
f 643/544/5 646/545/5 648/546/5 649/547/5
f 638/538/9 635/537/9 653/537/9 652/538/9
f 649/547/3 648/546/3 666/546/3 663/547/3
f 640/539/2 638/538/2 652/538/2 658/539/2
f 646/545/9 643/544/9 661/544/9 660/545/9
f 643/544/1 649/547/1 663/547/1 661/544/1
f 641/540/3 640/539/3 658/539/3 655/540/3
f 635/537/1 641/540/1 655/540/1 653/537/1
f 648/546/2 646/545/2 660/545/2 666/546/2
f 726/551/3 727/552/3 730/553/3 723/554/3
f 716/602/12 725/603/12 724/604/12 717/605/12
f 728/613/5 721/614/5 720/615/5 729/616/5
f 716/602/47 717/605/47 718/81/47 715/108/47
f 720/325/60 721/331/60 722/593/60 719/566/60
f 724/604/62 725/603/62 726/551/62 723/554/62
f 728/613/61 729/616/61 730/553/61 727/552/61
f 718/567/9 719/566/9 722/593/9 715/592/9
usemtl M_Orange
f 179/170/43 178/164/43 192/303/43 193/302/43
f 185/133/44 184/55/44 196/165/44 197/157/44
f 198/53/45 199/56/45 191/57/45 190/52/45
f 194/305/46 195/304/46 183/308/46 182/306/46
f 176/171/31 177/163/31 178/164/31 179/170/31
f 180/204/22 181/307/22 182/306/22 183/308/22
f 184/55/8 185/133/8 186/134/8 187/54/8
f 188/181/32 189/309/32 190/52/32 191/57/32
f 189/309/2 188/181/2 177/205/2 176/310/2
f 181/307/1 180/204/1 187/54/1 186/134/1
f 764/642/179 765/621/179 766/657/179 763/638/179
f 768/644/180 769/645/180 770/629/180 767/641/180
f 772/636/181 773/637/181 774/631/181 771/632/181
f 776/627/182 777/625/182 778/619/182 775/620/182
f 780/667/183 781/666/183 782/670/183 779/635/183
f 784/672/184 785/671/184 786/643/184 783/673/184
f 788/677/185 789/676/185 790/681/185 787/680/185
f 792/622/186 793/682/186 794/646/186 791/647/186
f 797/624/187 764/642/187 763/638/187 798/623/187
f 769/633/188 800/634/188 799/628/188 770/629/188
f 765/621/189 792/622/189 791/647/189 766/657/189
f 789/687/190 768/686/190 767/690/190 790/681/190
f 803/650/191 794/691/191 793/682/191 804/651/191
f 787/680/192 810/656/192 809/655/192 788/692/192
f 785/671/193 776/627/193 775/620/193 786/643/193
f 773/639/194 780/640/194 779/635/194 774/631/194
f 795/630/195 778/619/195 777/625/195 796/626/195
f 783/617/196 806/618/196 805/652/196 784/672/196
f 801/648/197 772/695/197 771/632/197 802/649/197
f 807/653/198 782/670/198 781/697/198 808/654/198
usemtl M_Cyan
f 269/350/60 270/349/60 271/347/60 268/348/60
f 273/351/61 274/353/61 275/354/61 272/352/61
f 477/484/30 472/481/30 473/480/30 476/485/30
f 479/486/34 474/483/34 475/482/34 478/487/34
usemtl M_Gris_Metal
f 429/463/2 427/464/2 483/464/2 485/463/2
f 424/465/2 431/466/2 487/466/2 480/465/2
f 440/471/1 447/472/1 503/472/1 496/471/1
f 443/473/12 442/474/12 498/474/12 499/473/12
f 428/469/12 429/463/12 485/463/12 484/469/12
f 425/467/5 424/465/5 480/465/5 481/467/5
f 431/466/12 430/470/12 486/470/12 487/466/12
f 430/470/1 425/467/1 481/467/1 486/470/1
f 426/468/1 428/469/1 484/469/1 482/468/1
f 427/464/5 426/468/5 482/468/5 483/464/5
f 440/471/3 441/488/3 481/467/3 480/465/3
f 442/474/9 443/473/9 483/464/9 482/468/9
f 445/489/9 444/490/9 484/469/9 485/463/9
f 444/490/9 442/474/9 482/468/9 484/469/9
f 443/473/9 445/489/9 485/463/9 483/464/9
f 441/488/3 446/491/3 486/470/3 481/467/3
f 447/472/3 440/471/3 480/465/3 487/466/3
f 446/491/3 447/472/3 487/466/3 486/470/3
f 445/489/1 443/473/1 499/473/1 501/489/1
f 444/490/5 445/489/5 501/489/5 500/490/5
f 441/488/12 440/471/12 496/471/12 497/488/12
f 447/472/5 446/491/5 502/491/5 503/472/5
f 446/491/2 441/488/2 497/488/2 502/491/2
f 442/474/2 444/490/2 500/490/2 498/474/2
f 514/511/88 513/504/88 512/525/88 515/526/88
f 533/530/1 532/529/1 541/529/1 540/530/1
f 526/513/5 525/512/5 544/512/5 547/513/5
f 523/496/2 522/495/2 510/495/2 511/496/2
f 536/522/5 539/498/5 507/498/5 504/522/5
f 527/506/2 526/505/2 547/505/2 546/506/2
f 510/495/89 509/518/89 508/515/89 511/496/89
f 506/514/89 505/516/89 504/522/89 507/498/89
f 541/531/88 542/502/88 543/501/88 540/530/88
f 545/520/88 546/519/88 547/513/88 544/512/88
f 549/493/89 550/524/89 551/517/89 548/494/89
f 531/494/2 530/493/2 549/493/2 548/494/2
f 521/518/1 520/515/1 508/515/1 509/518/1
f 535/502/2 534/501/2 543/501/2 542/502/2
f 520/515/5 523/496/5 511/496/5 508/515/5
f 529/524/1 528/523/1 551/523/1 550/524/1
f 517/528/1 516/511/1 514/511/1 515/528/1
f 534/501/5 533/530/5 540/530/5 543/501/5
f 539/498/2 538/497/2 506/497/2 507/498/2
f 528/517/5 531/494/5 548/494/5 551/517/5
f 525/527/1 524/520/1 545/520/1 544/527/1
f 519/504/2 518/503/2 512/503/2 513/504/2
f 537/516/1 536/522/1 504/522/1 505/516/1
f 518/525/5 517/526/5 515/526/5 512/525/5
