# Blender 4.2.3 LTS
# www.blender.org
mtllib SM_Chair_Room.mtl
o SM_Chair_Room
v -0.304039 -0.000000 0.166811
v -0.304039 0.000000 -0.166811
v 0.174209 0.368573 0.166811
v 0.174223 0.368394 -0.166811
v -0.185772 0.060593 0.166811
v -0.185779 0.060601 -0.166811
v -0.263110 0.438077 -0.225000
v -0.304616 0.068761 -0.166811
v -0.304607 0.068805 0.166811
v -0.263098 0.438174 0.225000
v 0.074813 0.386425 -0.166811
v 0.074818 0.386481 0.166811
v 0.136655 0.000000 0.134008
v 0.098830 -0.000000 0.166811
v 0.098830 -0.000000 -0.166811
v 0.136655 -0.000000 -0.134008
v 0.064037 0.060597 0.166811
v 0.101862 0.060597 0.134008
v 0.101862 0.060597 -0.134008
v 0.064037 0.060597 -0.166811
v -0.326668 1.012304 0.225000
v -0.347485 1.072905 0.147857
v -0.347493 1.072869 -0.147835
v -0.326698 1.012288 -0.225000
v -0.279674 0.071366 -0.225000
v -0.304039 0.000000 -0.225000
v 0.110051 0.437789 -0.225000
v -0.304039 0.000000 0.225000
v -0.279663 0.071420 0.225000
v 0.123430 0.408915 0.225000
v 0.194844 0.000000 -0.160568
v 0.120547 0.000000 -0.225000
v 0.120547 -0.000000 0.225000
v 0.194844 0.000000 0.160568
v 0.120626 0.463479 0.225000
v 0.154468 0.497303 0.201022
v 0.154467 0.497303 -0.201020
v 0.120605 0.463400 -0.225000
v -0.210867 0.500815 0.201736
v -0.242932 0.463586 0.225000
v -0.243153 0.463494 -0.225000
v -0.211074 0.500815 -0.201736
v -0.276083 1.048795 0.153448
v -0.302319 1.083610 0.164326
v -0.269252 0.991408 0.201736
v -0.306914 1.002438 0.225000
v -0.269295 0.991495 -0.201736
v -0.306948 1.002466 -0.225000
v -0.276093 1.048794 -0.153458
v -0.302321 1.083591 -0.164326
v 0.156699 0.403057 0.225000
v 0.218438 0.406403 0.201736
v -0.249596 0.055445 0.225000
v -0.185774 0.060596 0.201736
v 0.218438 0.406206 -0.201736
v 0.156666 0.402930 -0.225000
v -0.187716 0.059992 -0.207716
v -0.249734 0.055446 -0.225000
v 0.098359 0.038644 -0.225000
v 0.077072 0.060597 -0.201736
v 0.140561 0.057636 -0.151632
v 0.172609 0.038727 -0.160568
v 0.172609 0.038727 0.160568
v 0.136788 0.060597 0.149950
v 0.078462 0.057346 0.205218
v 0.098359 0.038644 0.225000
v -0.347490 1.072877 -0.138259
v -0.347488 1.072897 0.138290
v 0.174214 0.368513 0.140366
v 0.174219 0.368453 -0.140365
v -0.268920 0.988521 0.166819
v -0.269613 0.994353 0.164432
v -0.269265 0.991434 0.172810
v -0.268934 0.988549 -0.166817
v -0.269282 0.991468 -0.172807
v -0.269627 0.994381 -0.164432
v -0.300553 1.081252 -0.134425
v -0.304426 1.085301 -0.141891
v -0.304424 1.085308 0.141892
v -0.300553 1.081259 0.134424
v -0.276086 1.048794 0.125871
v -0.276086 1.048794 0.132181
v -0.276090 1.048794 -0.132206
v -0.276089 1.048794 -0.125894
v 0.216735 0.408728 0.166819
v 0.214730 0.409290 0.177541
v 0.216736 0.408664 -0.166817
v 0.214736 0.409205 -0.177538
v 0.152881 0.498422 -0.166817
v 0.154011 0.496983 -0.177540
v 0.148243 0.500815 -0.166817
v 0.152882 0.498423 0.166819
v 0.148243 0.500815 0.166819
v 0.154019 0.496988 0.177542
v -0.211351 0.503731 -0.166817
v -0.208068 0.500815 -0.166817
v -0.211012 0.500815 -0.172789
v -0.211283 0.503731 0.166819
v -0.210930 0.500815 0.172792
v -0.208000 0.500815 0.166819
v -0.271629 0.991153 0.172811
v -0.271284 0.988240 0.166819
v -0.271978 0.994072 0.164432
v -0.271991 0.994100 -0.164432
v -0.271299 0.988269 -0.166816
v -0.271646 0.991187 -0.172807
v 0.147581 0.498450 -0.166954
v 0.151324 0.496501 -0.166823
v 0.149973 0.498482 -0.172819
v 0.149974 0.498482 0.172822
v 0.151325 0.496501 0.166824
v 0.147581 0.498450 0.166956
v -0.213011 0.498565 -0.172515
v -0.213546 0.502419 -0.166596
v -0.209111 0.498480 -0.166597
v -0.209044 0.498480 0.166600
v -0.213479 0.502419 0.166601
v -0.212928 0.498564 0.172521
v -0.302371 1.079708 -0.134368
v -0.306251 1.083765 -0.141830
v -0.306249 1.083773 0.141831
v -0.302370 1.079714 0.134367
v 0.214469 0.407838 0.166685
v 0.215241 0.404173 0.172575
v 0.215239 0.404104 -0.172572
v 0.214470 0.407774 -0.166683
v -0.278327 1.047773 0.125799
v -0.278399 1.047942 0.132125
v -0.278402 1.047942 -0.132150
v -0.278330 1.047773 -0.125821
v -0.304614 0.068759 -0.225000
v 0.084049 0.423806 -0.189621
v 0.123412 0.408834 -0.225000
v -0.275646 0.424170 0.189620
v 0.084056 0.423866 0.189621
v 0.110062 0.437863 0.225000
v -0.275655 0.424079 -0.189621
v -0.304609 0.068808 0.225000
v -0.342009 1.023519 0.189621
v -0.342029 1.023452 -0.189620
v 0.145986 0.476710 -0.221498
v -0.230702 0.477502 -0.225000
v -0.230486 0.477593 0.225000
v 0.146012 0.476787 0.221494
v 0.191460 0.411256 0.220607
v -0.245806 0.039203 0.219023
v -0.247884 0.038593 -0.225000
v 0.188300 0.411544 -0.225000
v -0.293892 1.011596 0.225000
v -0.293925 1.011638 -0.225000
v -0.242932 0.463586 0.221796
v -0.263098 0.438174 0.221796
v -0.263110 0.438077 -0.221796
v -0.247506 0.458597 -0.221796
v 0.124805 0.403611 -0.221796
v -0.270954 0.072277 -0.221796
v 0.106784 0.442765 0.221796
v 0.106772 0.442690 -0.221796
v -0.270941 0.072333 0.221796
v 0.124826 0.403695 0.221796
v -0.320809 1.003902 0.221796
v -0.320841 1.003904 -0.221796
v 0.113289 0.458503 -0.221796
v 0.113307 0.458582 0.221796
v 0.145628 0.400032 0.221796
v -0.250245 0.061337 0.221796
v -0.250381 0.061338 -0.221796
v 0.145605 0.399918 -0.221796
v -0.311467 0.999236 0.221796
v -0.311501 0.999260 -0.221796
v 0.123412 0.408834 -0.221796
v -0.279674 0.071366 -0.221796
v 0.110062 0.437863 0.221796
v -0.258712 0.443069 0.221796
v -0.258723 0.442973 -0.221796
v 0.110051 0.437789 -0.221796
v -0.279663 0.071420 0.221796
v 0.123430 0.408915 0.221796
v -0.326668 1.012304 0.221796
v -0.326698 1.012288 -0.221796
v 0.120605 0.463400 -0.221796
v -0.243153 0.463494 -0.221796
v -0.247284 0.458688 0.221796
v 0.120626 0.463479 0.221796
v 0.156699 0.403057 0.221796
v -0.249596 0.055445 0.221796
v -0.249734 0.055446 -0.221796
v 0.156666 0.402930 -0.221796
v -0.306914 1.002438 0.221796
v -0.306948 1.002466 -0.221796
v -0.247284 0.458688 0.218588
v -0.258712 0.443069 0.218588
v -0.258723 0.442973 -0.218588
v -0.247506 0.458597 -0.218588
v 0.124805 0.403611 -0.218588
v -0.270954 0.072277 -0.218588
v 0.106784 0.442765 0.218588
v 0.106772 0.442690 -0.218588
v -0.270941 0.072333 0.218588
v 0.124826 0.403695 0.218588
v -0.320809 1.003902 0.218588
v -0.320841 1.003904 -0.218588
v 0.113289 0.458503 -0.218588
v 0.113307 0.458582 0.218588
v 0.145628 0.400032 0.218588
v -0.250245 0.061337 0.218588
v -0.250381 0.061338 -0.218588
v 0.145605 0.399918 -0.218588
v -0.311467 0.999236 0.218588
v -0.311501 0.999260 -0.218588
v 0.151179 0.500815 -0.201736
v 0.141532 0.477405 -0.225000
v 0.141557 0.477484 0.225000
v 0.151179 0.500815 0.201736
v 0.188363 0.411709 0.225000
v 0.191404 0.411088 -0.220611
v -0.247741 0.038593 0.225000
v -0.187709 0.059986 0.207713
v 0.215531 0.410208 0.203673
v 0.215537 0.410007 -0.203676
v -0.185777 0.060599 -0.201736
v -0.245945 0.039200 -0.219020
v 0.078462 0.057346 -0.205218
v 0.136788 0.060597 -0.149950
v 0.168835 0.041687 -0.158888
v 0.096967 0.041895 -0.221519
v 0.140561 0.057636 0.151632
v 0.077072 0.060597 0.201736
v 0.096967 0.041895 0.221519
v 0.168835 0.041687 0.158888
v 0.151179 0.500815 0.172781
v 0.217399 0.405278 0.172778
v 0.217397 0.405209 -0.172775
v 0.151179 0.500815 -0.172779
v 0.190261 0.411331 0.218692
v 0.213427 0.409356 0.202310
v 0.152739 0.496091 0.200355
v 0.152738 0.496092 -0.200351
v 0.213437 0.409158 -0.202310
v 0.190207 0.411164 -0.218694
v -0.246390 0.039005 0.216650
v -0.188276 0.059743 0.205341
v -0.188281 0.059748 -0.205344
v -0.246527 0.039003 -0.216648
v 0.096454 0.040229 -0.220326
v 0.078154 0.055808 -0.203796
v 0.139669 0.055816 -0.151159
v 0.167914 0.039862 -0.158505
v 0.167914 0.039862 0.158505
v 0.139669 0.055816 0.151159
v 0.078154 0.055808 0.203797
v 0.096454 0.040228 0.220326
v 0.144823 0.475883 -0.220053
v 0.144848 0.475957 0.220051
v 0.152352 0.495828 0.177613
v 0.213064 0.408130 0.177611
v 0.213069 0.408046 -0.177606
v 0.152344 0.495824 -0.177608
v 0.119436 0.423844 0.225000
v -0.275645 0.424174 0.225000
v -0.275656 0.424076 -0.225000
v 0.119428 0.423771 -0.225000
v -0.351379 1.108082 0.164326
v -0.343426 1.036335 0.225000
v -0.343450 1.036267 -0.225000
v -0.351387 1.108021 -0.164326
v -0.351382 1.108062 0.138275
v -0.351384 1.108042 -0.138274
v -0.270558 0.429847 0.189619
v -0.270568 0.429757 -0.189622
v 0.074499 0.429553 0.180058
v 0.074492 0.429497 -0.180061
v -0.340786 1.064024 0.143406
v -0.335979 1.020681 0.180059
v -0.335998 1.020615 -0.180060
v -0.340794 1.063995 -0.143378
v -0.340788 1.064020 0.138294
v -0.340791 1.063999 -0.138256
v 0.084060 0.429548 0.189619
v -0.270558 0.429846 0.180058
v -0.270567 0.429758 -0.180061
v 0.084053 0.429488 -0.189622
v -0.341838 1.073531 0.147856
v -0.336361 1.024145 0.189620
v -0.336382 1.024078 -0.189621
v -0.341846 1.073495 -0.147835
v -0.341841 1.073523 0.138290
v -0.341843 1.073502 -0.138260
v -0.271428 0.428875 0.180058
v -0.284598 0.414177 0.165212
v -0.284605 0.414094 -0.165208
v -0.271437 0.428787 -0.180061
v 0.059634 0.408749 0.165213
v 0.074494 0.423416 0.180060
v 0.074488 0.423360 -0.180059
v 0.059628 0.408696 -0.165207
v -0.346954 1.063341 0.143406
v -0.360069 1.046943 0.136494
v -0.356093 1.013010 0.165212
v -0.342150 1.019998 0.180060
v -0.342170 1.019931 -0.180059
v -0.356106 1.012945 -0.165210
v -0.360059 1.046927 -0.136455
v -0.346963 1.063312 -0.143378
v -0.346956 1.063337 0.138294
v -0.359941 1.046959 0.138297
v -0.359943 1.046939 -0.138253
v -0.346958 1.063316 -0.138255
vn -0.0000 1.0000 -0.0000
vn 0.3150 0.6330 -0.7072
vn -0.0000 -0.0000 -1.0000
vn -0.0000 -0.0000 1.0000
vn -0.1734 -0.9849 -0.0000
vn 0.9939 0.1101 -0.0000
vn 0.8672 0.4979 -0.0000
vn -0.5586 0.5207 -0.6457
vn 0.6501 -0.7599 -0.0001
vn 0.4405 0.8977 -0.0129
vn 0.0287 0.0198 0.9994
vn 0.3158 0.6328 0.7070
vn -0.9245 0.3813 -0.0000
vn -1.0000 -0.0084 -0.0000
vn 0.4695 0.8829 -0.0000
vn -0.6419 0.7668 -0.0001
vn -1.0000 -0.0083 -0.0000
vn -0.6420 0.7667 -0.0001
vn 0.6132 0.3521 -0.7071
vn -0.0000 -1.0000 -0.0000
vn 0.6132 0.3521 0.7071
vn 0.6498 -0.7601 -0.0001
vn -0.6132 -0.3521 0.7071
vn -0.6132 -0.3521 -0.7071
vn -0.8672 -0.4979 -0.0000
vn 0.0001 0.7056 -0.7086
vn 0.0001 0.7069 0.7073
vn 0.6670 0.4746 0.5744
vn 0.5446 -0.5512 0.6322
vn -0.0009 0.8863 0.4631
vn 0.6661 0.4749 -0.5752
vn -0.5586 0.5207 0.6457
vn -0.0079 -0.9044 -0.4266
vn 0.6970 -0.6259 -0.3498
vn 0.5722 -0.8201 0.0001
vn 0.5445 -0.5512 -0.6322
vn 0.7800 0.4543 0.4303
vn 0.7798 0.4545 -0.4304
vn 0.7191 0.0855 0.6896
vn 0.4410 0.8974 0.0119
vn 0.7190 0.0852 -0.6897
vn -0.9931 -0.1175 -0.0000
vn 0.9930 0.1179 -0.0012
vn 0.9930 0.1180 -0.0001
vn 0.9930 0.1179 -0.0002
vn 0.4360 0.9000 -0.0000
vn 0.7921 0.6102 0.0142
vn -0.1779 -0.9840 0.0003
vn -0.6419 0.7667 -0.0001
vn 0.8147 0.5798 -0.0001
vn 0.6488 -0.7610 -0.0006
vn 0.6472 -0.7623 0.0042
vn 0.6482 -0.7615 0.0002
vn 0.9930 0.1180 -0.0000
vn 0.9930 0.1181 -0.0002
vn 0.7986 0.6019 -0.0000
vn 0.7921 0.6102 -0.0145
vn 0.1101 -0.9939 0.0001
vn 0.0708 -0.6395 -0.7655
vn -0.1709 0.5589 -0.8114
vn -0.0455 -0.0056 0.9989
vn -0.6474 0.7621 -0.0000
vn -0.0217 -0.0162 -0.9996
vn 0.1461 -0.5624 0.8139
vn 0.0276 0.0204 0.9994
vn 0.6439 -0.7651 -0.0000
vn 0.1457 -0.5624 -0.8139
vn 0.0274 0.0203 -0.9994
vn -0.0215 -0.0161 0.9996
vn 0.1180 -0.9930 -0.0001
vn -0.1707 0.5590 0.8114
vn -0.0005 -0.0172 0.9999
vn -0.1180 0.9930 0.0001
vn -0.9130 0.4079 0.0002
vn 0.0004 0.0499 -0.9988
vn 0.5128 -0.8585 -0.0001
vn 0.0004 0.0507 0.9987
vn -0.7768 0.6297 -0.0000
vn -0.0005 -0.0174 -0.9998
vn 0.9630 -0.2696 -0.0000
vn 0.9930 0.1181 -0.0012
vn 0.9930 0.1180 -0.0002
vn 0.4484 0.8739 0.1877
vn 0.4483 0.8740 -0.1876
vn 0.6107 0.6877 -0.3926
vn 0.6112 0.6880 0.3912
vn 0.7228 0.6910 -0.0000
vn 0.9786 0.2057 -0.0000
vn 0.4618 0.8870 -0.0000
vn 0.6641 0.7477 -0.0001
vn 0.9927 0.1206 0.0039
vn 0.9927 0.1207 -0.0041
vn 0.7990 0.5997 -0.0452
vn 0.7990 0.5997 0.0450
vn 0.0002 1.0000 0.0099
vn 0.0002 1.0000 -0.0098
vn 0.8127 0.5701 0.1204
vn 0.8129 0.5698 -0.1207
vn 0.9930 0.1182 -0.0078
vn 0.9930 0.1181 0.0063
vn 0.0576 0.0072 -0.9983
vn 0.0898 -0.1916 -0.9774
vn -0.4558 0.8901 -0.0002
vn 0.0587 0.0073 0.9982
vn -0.0851 0.1955 0.9770
vn -0.0466 -0.0058 -0.9989
vn -0.0854 0.1958 -0.9769
vn 0.3657 -0.9307 0.0002
vn 0.0901 -0.1919 0.9773
vn 0.0008 1.0000 -0.0000
vn -0.6499 0.7600 -0.0000
vn -0.4468 -0.8946 -0.0000
vn -0.6501 0.7598 -0.0000
vn -0.1748 -0.9846 -0.0000
vn -0.0003 -1.0000 -0.0000
vn -0.9246 0.3810 -0.0000
vn 0.6419 -0.7668 -0.0000
vn -0.4453 -0.8954 -0.0000
vn -0.9930 -0.1179 -0.0000
vn 0.6420 -0.7667 -0.0000
vn 0.4692 0.8831 -0.0000
vn 0.6002 0.4258 -0.6771
vn 0.6005 0.4268 0.6761
vn 0.6718 0.4681 0.5741
vn 0.6716 0.4670 -0.5752
vn 0.6208 -0.7282 0.2902
vn 0.5350 -0.6173 0.5767
vn 0.5351 -0.6178 -0.5762
vn 0.6204 -0.7282 -0.2911
vn 0.4236 0.7608 -0.4918
vn 0.4262 0.7609 -0.4893
vn 0.4236 0.7608 0.4917
vn 0.4262 0.7609 0.4893
vn 0.0064 0.9257 0.3782
vn -0.0051 0.9259 0.3777
vn 0.6175 0.7866 -0.0000
vn 0.6173 0.7867 -0.0000
vn 0.0064 0.9258 -0.3779
vn -0.0051 0.9260 -0.3774
vn 0.8218 0.5693 -0.0258
vn 0.8220 0.5690 0.0246
vn 0.7928 0.6075 -0.0490
vn 0.7704 0.6375 -0.0104
vn 0.7940 0.6061 0.0464
vn 0.7710 0.6367 0.0106
vn 0.8206 0.5707 -0.0309
vn 0.8210 0.5702 0.0298
vn 0.5796 0.4091 0.7048
vn 0.5792 0.4080 -0.7057
vn 0.3789 -0.4389 0.8148
vn 0.3779 -0.4380 -0.8157
vn 0.3568 0.8385 -0.4119
vn 0.3568 0.8385 0.4119
vn -0.0001 0.6084 0.7936
vn 0.4918 0.8707 -0.0000
vn -0.0001 0.6083 -0.7937
vn 0.6299 -0.7384 -0.2409
vn 0.0277 0.0192 -0.9994
vn -0.0079 -0.9045 0.4264
vn -0.6358 0.7337 0.2395
vn -0.4636 0.8857 -0.0267
vn -0.0009 0.8863 -0.4632
vn -0.6357 0.7341 -0.2386
vn 0.5728 -0.8197 -0.0001
vn 0.8980 -0.4401 -0.0000
vn 0.6298 -0.7387 0.2403
vn -0.4642 0.8855 0.0227
vn 0.6970 -0.6255 0.3507
vn -0.8929 0.4503 -0.0000
vn -0.0008 -1.0000 0.0002
vn -0.9939 -0.1101 0.0001
vn -0.9939 -0.1100 0.0001
vn -0.9939 -0.1101 -0.0000
vn -0.9939 -0.1101 0.0002
vn -0.9939 -0.1100 0.0002
vn -0.1101 0.9939 -0.0008
vn 1.0000 -0.0008 -0.0000
vn 0.0001 -0.0000 1.0000
vn 0.0709 -0.6395 0.7655
vn -0.0000 -0.0002 -1.0000
vn -1.0000 0.0008 -0.0000
vn -0.0001 -0.0000 -1.0000
vn -0.0000 0.0002 1.0000
vn 0.1101 -0.9939 0.0008
vn -0.9939 -0.1102 0.0005
vn -0.9939 -0.1100 0.0005
vn -0.9930 -0.1183 0.0001
vn -0.0708 0.6395 0.7655
vn -0.1101 0.9939 -0.0001
vn -0.0709 0.6395 -0.7655
vn -0.0111 -0.7057 0.7084
vn -0.0111 -0.7060 -0.7081
vn -0.7552 0.3712 0.5402
vn -0.7556 0.3711 -0.5398
vn -0.7045 -0.0842 0.7047
vn -0.7791 0.6263 -0.0276
vn -0.7047 -0.0842 -0.7045
vn 0.7024 -0.7117 0.0001
vn -0.7795 0.6259 0.0250
vn -0.7836 0.6213 -0.0000
vn -0.0157 -0.9999 0.0002
vt 0.429345 0.569630
vt 0.429306 0.680370
vt 0.427197 0.675837
vt 0.427240 0.574163
vt 0.446662 0.532327
vt 0.431631 0.541293
vt 0.430856 0.516509
vt 0.446658 0.512924
vt 0.585432 0.259380
vt 0.502516 0.250000
vt 0.507156 0.177319
vt 0.586849 0.177319
vt 0.438781 0.032327
vt 0.530278 0.717673
vt 0.446695 0.717673
vt 0.419066 0.032327
vt 0.441104 1.000000
vt 0.510346 0.825945
vt 0.569258 0.825779
vt 0.490304 0.870822
vt 0.457300 0.954736
vt 0.494278 0.271214
vt 0.526522 0.253192
vt 0.407490 0.577182
vt 0.407461 0.672818
vt 0.375000 0.672818
vt 0.375000 0.577182
vt 0.413230 0.758684
vt 0.409701 0.673013
vt 0.540552 0.737076
vt 0.446699 0.737076
vt 0.431584 0.708706
vt 0.446699 0.737076
vt 0.430787 0.733491
vt 0.507166 0.142440
vt 0.583008 0.147282
vt 0.586849 0.177319
vt 0.765103 0.512924
vt 0.765068 0.580550
vt 0.625000 0.580575
vt 0.625000 0.512924
vt 0.543836 0.680538
vt 0.621530 0.680559
vt 0.375000 0.787232
vt 0.410238 0.763489
vt 0.420727 0.849800
vt 0.375000 1.000000
vt 0.502582 1.000000
vt 0.585448 0.990597
vt 0.586873 1.000000
vt 0.507229 1.000000
vt 0.475128 0.956540
vt 0.536182 0.874383
vt 0.510197 0.423902
vt 0.441067 0.250000
vt 0.569113 0.424039
vt 0.375000 0.250000
vt 0.420698 0.400132
vt 0.410291 0.486512
vt 0.375000 0.462768
vt 0.415337 0.368881
vt 0.419045 0.250000
vt 0.375000 0.217673
vt 0.419048 0.217673
vt 0.433864 0.387652
vt 0.424118 0.292466
vt 0.526572 0.996801
vt 0.494233 0.978822
vt 0.438755 0.217673
vt 0.375000 0.032327
vt 0.375000 0.000000
vt 0.419069 0.000000
vt 0.441104 0.000000
vt 0.415398 0.880819
vt 0.419069 1.000000
vt 0.407490 0.577182
vt 0.410290 0.486512
vt 0.345840 0.570014
vt 0.326886 0.541526
vt 0.337768 0.500000
vt 0.410238 0.763489
vt 0.407461 0.672818
vt 0.326885 0.708474
vt 0.345840 0.679986
vt 0.375000 0.672818
vt 0.337768 0.750000
vt 0.125000 0.717673
vt 0.125000 0.750000
vt 0.530199 0.532327
vt 0.540453 0.512924
vt 0.125000 0.532327
vt 0.125000 0.500000
vt 0.427240 0.574163
vt 0.625000 0.359895
vt 0.625000 0.500000
vt 0.569113 0.424039
vt 0.575813 0.326506
vt 0.625000 0.750000
vt 0.625000 0.889982
vt 0.575957 0.923316
vt 0.569258 0.825779
vt 0.514424 0.436689
vt 0.573755 0.437421
vt 0.424957 0.675644
vt 0.427796 0.738281
vt 0.413286 0.491316
vt 0.424803 0.415273
vt 0.573889 0.812410
vt 0.514570 0.813164
vt 0.409731 0.576987
vt 0.442547 0.497734
vt 0.427862 0.511718
vt 0.621530 0.735445
vt 0.621530 0.514561
vt 0.621530 0.569444
vt 0.424998 0.574356
vt 0.859496 0.732013
vt 0.870551 0.681037
vt 0.875000 0.677319
vt 0.862744 0.741442
vt 0.870553 0.568954
vt 0.859527 0.517991
vt 0.862768 0.508522
vt 0.875000 0.572681
vt 0.625000 0.889982
vt 0.625000 0.984494
vt 0.507176 0.107560
vt 0.507186 0.072681
vt 0.586860 0.072681
vt 0.583014 0.102718
vt 0.585432 0.259380
vt 0.625000 0.265471
vt 0.625000 0.359890
vt 0.559702 0.257365
vt 0.544827 0.305435
vt 0.765068 0.580550
vt 0.859518 0.582520
vt 0.765588 0.661706
vt 0.765626 0.588294
vt 0.858955 0.589943
vt 0.858945 0.660061
vt 0.859505 0.667488
vt 0.870552 0.648384
vt 0.583013 0.107104
vt 0.583009 0.142896
vt 0.875268 0.603707
vt 0.870553 0.601600
vt 0.530225 0.594109
vt 0.530251 0.655891
vt 0.542658 0.661712
vt 0.542625 0.588288
vt 0.622861 0.588288
vt 0.622861 0.661712
vt 0.540454 0.512924
vt 0.540222 0.579004
vt 0.763929 0.588288
vt 0.763891 0.661712
vt 0.626136 0.661712
vt 0.626136 0.588288
vt 0.765023 0.669453
vt 0.764988 0.737076
vt 0.625000 0.737076
vt 0.625000 0.669428
vt 0.540261 0.671005
vt 0.540552 0.737076
vt 0.540225 0.586976
vt 0.540259 0.663024
vt 0.860068 0.659146
vt 0.860078 0.590858
vt 0.870553 0.606784
vt 0.870552 0.643206
vt 0.859518 0.582520
vt 0.870553 0.601600
vt 0.874700 0.607897
vt 0.874700 0.642103
vt 0.870552 0.643206
vt 0.875268 0.646292
vt 0.870552 0.648384
vt 0.504917 0.082586
vt 0.504894 0.167387
vt 0.501750 0.027921
vt 0.504919 0.075581
vt 0.540296 0.580581
vt 0.540329 0.669419
vt 0.764988 0.737076
vt 0.859505 0.667488
vt 0.875000 0.607560
vt 0.875000 0.642440
vt 0.457232 0.295204
vt 0.463138 1.000000
vt 0.475066 0.293419
vt 0.463090 0.250000
vt 0.424145 0.957552
vt 0.536062 0.375480
vt 0.545076 0.944344
vt 0.433935 0.862032
vt 0.436856 0.819505
vt 0.490195 0.379076
vt 0.510197 0.423903
vt 0.436784 0.430196
vt 0.559731 0.992617
vt 0.486934 0.308452
vt 0.505186 0.278644
vt 0.483380 0.363443
vt 0.432792 0.372766
vt 0.550719 0.993405
vt 0.535017 0.995459
vt 0.505107 0.971406
vt 0.487004 0.941493
vt 0.432863 0.876913
vt 0.483476 0.886471
vt 0.462853 0.311002
vt 0.426017 0.307342
vt 0.426045 0.942682
vt 0.462932 0.938918
vt 0.534974 0.254531
vt 0.524551 0.358905
vt 0.533991 0.298056
vt 0.534276 0.951706
vt 0.524664 0.890973
vt 0.550684 0.256580
vt 0.437339 0.807579
vt 0.544037 0.741585
vt 0.442584 0.752261
vt 0.543934 0.508407
vt 0.437270 0.442146
vt 0.424836 0.834663
vt 0.543791 0.569462
vt 0.463135 0.019655
vt 0.443074 0.019655
vt 0.463138 0.000000
vt 0.443042 0.230345
vt 0.463093 0.230345
vt 0.502582 0.000000
vt 0.507186 0.072681
vt 0.501698 0.222081
vt 0.504892 0.174402
vt 0.504279 0.171513
vt 0.504278 0.174620
vt 0.443584 0.225033
vt 0.443614 0.024967
vt 0.463134 0.024967
vt 0.463094 0.225033
vt 0.504305 0.075356
vt 0.501520 0.035125
vt 0.501472 0.214878
vt 0.504303 0.078454
vt 0.463134 0.024967
vt 0.463096 0.216783
vt 0.463132 0.033217
vt 0.501183 0.045693
vt 0.503360 0.074218
vt 0.503360 0.073231
vt 0.503333 0.176734
vt 0.503334 0.175749
vt 0.501140 0.204310
vt 0.443584 0.225033
vt 0.501472 0.214878
vt 0.463132 0.033217
vt 0.444420 0.033217
vt 0.444392 0.216783
s 0
usemtl M_Blanc
f 19/1/1 18/2/1 64/3/1 224/4/1
f 6/5/1 20/6/1 60/7/1 221/8/1
f 150/9/2 265/10/2 266/11/2 50/12/2
f 12/13/3 3/14/3 5/15/3 9/16/3
f 259/17/4 215/18/4 213/19/4
f 51/20/5 30/21/5 178/21/5 185/20/5
f 7/22/6 24/23/6 180/23/6 153/22/6
f 62/24/7 63/25/7 34/26/7 31/27/7
f 229/28/8 230/29/8 249/29/8 252/28/8
f 5/15/9 3/14/9 52/30/9 54/31/9
f 17/32/1 5/15/1 54/33/1 228/34/1
f 266/11/10 268/35/10 78/36/10 50/37/10
f 42/38/1 97/39/1 234/40/1 211/41/1
f 86/42/11 94/43/11 255/43/11 256/42/11
f 33/44/4 66/45/4 217/46/4 28/47/4
f 264/48/12 149/49/12 44/50/12 263/51/12
f 136/52/13 35/53/13 184/53/13 173/52/13
f 148/54/3 262/55/3 212/56/3
f 26/57/3 147/58/3 59/59/3 32/60/3
f 147/61/3 26/57/3 131/62/3
f 2/63/14 8/64/14 131/62/14 26/57/14
f 58/65/15 25/66/15 172/66/15 187/65/15
f 21/67/6 10/68/6 152/68/6 179/67/6
f 8/64/16 11/69/16 262/55/16 131/62/16
f 9/16/17 1/70/17 28/71/17 138/72/17
f 12/13/18 9/16/18 138/72/18 259/73/18
f 28/47/4 217/74/4 138/75/4
f 62/76/19 31/27/19 32/60/19 59/77/19
f 16/78/20 15/79/20 32/80/20 31/27/20
f 66/81/21 33/44/21 34/26/21 63/82/21
f 14/83/20 13/84/20 34/85/20 33/86/20
f 1/87/20 14/83/20 33/86/20 28/88/20
f 4/89/22 6/5/22 221/8/22 55/90/22
f 13/84/20 16/78/20 31/27/20 34/85/20
f 18/2/1 17/32/1 228/34/1 64/3/1
f 15/79/20 2/91/20 26/92/20 32/80/20
f 20/6/1 19/1/1 224/93/1 60/7/1
f 15/79/23 16/78/23 19/1/23 20/6/23
f 2/91/4 15/79/4 20/6/4 6/5/4 8/64/4
f 14/83/3 1/70/3 9/16/3 5/15/3 17/32/3
f 11/69/4 8/64/4 6/5/4 4/89/4
f 14/83/24 17/32/24 18/2/24 13/84/24
f 16/78/25 13/84/25 18/2/25 19/1/25
f 42/94/26 211/95/26 212/96/26 142/97/26
f 214/98/27 39/99/27 143/100/27 213/101/27
f 216/102/28 141/103/28 253/103/28 240/102/28
f 227/104/29 65/105/29 251/105/29 250/104/29
f 226/106/30 222/107/30 244/107/30 245/106/30
f 144/108/31 145/109/31 235/109/31 254/108/31
f 225/110/32 226/106/32 245/106/32 248/110/32
f 57/111/33 223/112/33 246/112/33 243/111/33
f 36/113/34 144/108/34 254/108/34 237/113/34
f 37/114/35 90/115/35 258/115/35 238/114/35
f 223/112/36 61/116/36 247/116/36 246/112/36
f 45/117/37 43/118/37 44/119/37 149/120/37
f 49/121/38 47/122/38 150/123/38 50/124/38
f 39/125/39 45/126/39 149/49/39 143/100/39
f 267/127/40 263/128/40 44/129/40 79/130/40
f 142/97/41 150/131/41 47/132/41 42/133/41
f 48/134/42 41/135/42 182/135/42 190/134/42
f 97/136/43 42/38/43 47/122/43 75/137/43
f 45/117/45 73/142/45 82/143/45 43/118/45
f 268/35/46 267/127/46 79/144/46 78/145/46
f 50/124/47 78/146/47 83/147/47 49/121/47
f 70/148/48 69/149/48 3/14/48 12/13/48 11/69/48 4/89/48
f 11/69/49 12/13/49 259/73/49 262/55/49
f 70/148/51 4/89/51 55/154/51 233/155/51
f 99/160/1 39/161/1 214/162/1 231/163/1
f 3/14/52 69/149/52 232/164/52 52/165/52
f 69/149/53 70/148/53 233/166/53 232/167/53
f 75/172/55 47/122/55 49/121/55 83/173/55
f 79/177/57 44/119/57 43/118/57 82/178/57
f 68/179/58 67/180/58 288/180/58 287/179/58
f 139/181/59 22/182/59 283/182/59 284/181/59
f 75/172/64 83/173/64 129/173/64 106/172/64
f 233/183/65 234/40/65 109/40/65 125/183/65
f 78/145/66 79/144/66 121/144/66 120/145/66
f 82/143/67 73/142/67 101/142/67 128/143/67
f 231/163/68 232/184/68 124/184/68 110/163/68
f 99/160/75 231/163/75 110/163/75 118/160/75
f 234/40/77 97/39/77 113/39/77 109/40/77
f 39/185/81 99/160/81 73/186/81 45/117/81
f 73/186/101 99/160/101 118/160/101 101/186/101
f 232/167/103 233/166/103 125/166/103 124/167/103
f 97/136/104 75/137/104 106/137/104 113/136/104
f 83/147/105 78/146/105 120/146/105 129/147/105
f 79/177/107 82/178/107 128/178/107 121/177/107
f 133/189/3 25/66/3 131/62/3 262/55/3
f 136/52/4 10/68/4 260/190/4 259/17/4
f 7/22/3 27/191/3 262/55/3 261/192/3
f 29/193/4 30/21/4 259/17/4 138/75/4
f 10/68/4 21/67/4 264/48/4 260/190/4
f 24/23/3 7/22/3 261/192/3 265/10/3
f 38/194/3 41/135/3 142/97/3 212/96/3
f 40/195/4 35/53/4 213/101/4 143/100/4
f 51/20/4 53/196/4 217/197/4 215/18/4
f 58/65/3 56/198/3 148/199/3 147/200/3
f 46/201/4 40/195/4 143/100/4 149/49/4
f 41/135/3 48/134/3 150/131/3 142/97/3
f 35/53/4 136/52/4 259/17/4 213/101/4
f 30/21/4 51/20/4 215/18/4 259/17/4
f 27/191/3 38/194/3 212/96/3 262/55/3
f 56/198/3 133/189/3 262/55/3 148/199/3
f 21/67/4 46/201/4 149/49/4 264/48/4
f 48/134/3 24/23/3 265/10/3 150/131/3
f 53/196/4 29/193/4 138/75/4 217/197/4
f 25/66/3 58/65/3 147/200/3 131/62/3
f 41/135/115 38/194/115 181/194/115 182/135/115
f 38/194/116 27/191/116 176/191/116 181/194/116
f 35/53/115 40/195/115 151/195/115 184/53/115
f 25/66/117 133/189/117 171/189/117 172/66/117
f 133/189/114 56/198/114 188/198/114 171/189/114
f 53/196/113 51/20/113 185/20/113 186/196/113
f 10/68/110 136/52/110 173/52/110 152/68/110
f 46/201/112 21/67/112 179/67/112 189/201/112
f 56/198/111 58/65/111 187/65/111 188/198/111
f 27/191/110 7/22/110 153/22/110 176/191/110
f 24/23/118 48/134/118 190/134/118 180/23/118
f 40/195/119 46/201/119 189/201/119 151/195/119
f 30/21/120 29/193/120 177/193/120 178/21/120
f 29/193/121 53/196/121 186/196/121 177/193/121
f 37/114/122 141/103/122 212/56/122 211/41/122
f 144/108/123 36/113/123 214/162/123 213/19/123
f 145/109/124 144/108/124 213/19/124 215/18/124
f 141/103/125 216/102/125 148/54/125 212/56/125
f 146/222/126 145/109/126 215/18/126 217/197/126
f 219/223/127 218/224/127 54/31/127 52/30/127
f 57/111/128 220/225/128 55/90/128 221/8/128
f 216/102/129 222/226/129 147/200/129 148/199/129
f 61/116/130 223/112/130 60/7/130 224/93/130
f 226/106/131 225/110/131 62/76/131 59/77/131
f 65/105/132 227/104/132 64/3/132 228/34/132
f 230/29/133 229/28/133 66/81/133 63/82/133
f 218/224/134 65/105/134 228/34/134 54/33/134
f 229/28/135 146/227/135 217/46/135 66/45/135
f 227/104/136 61/116/136 224/4/136 64/3/136
f 225/110/137 230/29/137 63/25/137 62/24/137
f 223/112/138 57/111/138 221/8/138 60/7/138
f 222/107/139 226/106/139 59/59/139 147/58/139
f 94/43/140 86/42/140 232/184/140 231/163/140
f 88/228/141 90/115/141 234/40/141 233/183/141
f 86/42/142 219/223/142 52/165/142 232/184/142
f 36/113/143 94/43/143 231/163/143 214/162/143
f 220/225/144 88/228/144 233/183/144 55/154/144
f 90/115/145 37/114/145 211/41/145 234/40/145
f 145/109/157 146/222/157 241/222/157 235/109/157
f 90/115/158 88/228/158 257/228/158 258/115/158
f 65/105/159 218/224/159 242/224/159 251/105/159
f 218/224/160 219/223/160 236/223/160 242/224/160
f 219/223/161 86/42/161 256/42/161 236/223/161
f 146/227/162 229/28/162 252/28/162 241/227/162
f 220/225/163 57/111/163 243/111/163 239/225/163
f 94/43/164 36/113/164 237/113/164 255/43/164
f 61/116/165 227/104/165 250/104/165 247/116/165
f 222/226/166 216/102/166 240/102/166 244/226/166
f 88/228/167 220/225/167 239/225/167 257/228/167
f 141/103/168 37/114/168 238/114/168 253/103/168
f 230/29/169 225/110/169 248/110/169 249/29/169
f 134/229/170 135/230/170 259/73/170 260/231/170
f 132/232/170 137/233/170 261/192/170 262/55/170
f 22/182/171 139/181/171 264/234/171 263/235/171
f 140/236/172 23/237/172 266/11/172 265/10/172
f 139/181/173 134/229/173 260/231/173 264/234/173
f 68/179/174 22/182/174 263/235/174 267/127/174
f 137/233/173 140/236/173 265/10/173 261/192/173
f 135/230/170 132/232/170 262/55/170 259/73/170
f 23/237/175 67/180/175 268/35/175 266/11/175
f 67/180/173 68/179/173 267/127/173 268/35/173
f 278/238/176 276/239/176 304/239/176 308/238/176
f 272/240/177 271/241/177 294/241/177 295/240/177
f 140/236/178 137/233/178 270/233/178 285/236/178
f 23/237/179 140/236/179 285/236/179 286/237/179
f 135/230/180 134/229/180 269/229/180 279/230/180
f 132/232/181 135/230/181 279/230/181 282/232/181
f 134/229/182 139/181/182 284/181/182 269/229/182
f 137/233/183 132/232/183 282/232/183 270/233/183
f 67/180/184 23/237/184 286/237/184 288/180/184
f 22/182/184 68/179/184 287/179/184 283/182/184
f 280/242/178 274/245/178 300/245/178 289/242/178
f 271/241/183 280/242/183 289/248/183 294/241/183
f 291/249/187 290/250/187 299/251/187 298/252/187 306/253/187 307/254/187 303/255/187 302/256/187
f 274/245/188 273/244/188 297/244/188 300/245/188
f 281/243/180 272/240/180 295/257/180 292/243/180
f 275/246/182 281/243/182 292/243/182 301/246/182
f 277/247/189 278/238/189 308/238/189 305/247/189
f 276/239/190 275/246/190 301/258/190 304/239/190
f 273/244/176 277/247/176 305/247/176 297/244/176
f 294/241/191 289/248/191 290/259/191 293/260/191
f 292/243/192 295/257/192 296/261/192 291/249/192
f 298/252/193 299/251/193 300/245/193 297/244/193
f 302/256/194 303/255/194 304/239/194 301/258/194
f 299/251/195 290/250/195 289/242/195 300/245/195
f 306/253/196 298/252/196 297/244/196 305/247/196
f 291/249/197 302/256/197 301/246/197 292/243/197
f 293/260/198 296/261/198 295/240/198 294/241/198
f 303/255/199 307/254/199 308/238/199 304/239/199
f 307/254/200 306/253/200 305/247/200 308/238/200
f 290/259/201 291/249/201 296/261/201 293/260/201
usemtl M_Noir_Profond
f 102/141/82 103/168/82 101/186/82
f 105/140/82 106/172/82 104/169/82
f 108/152/83 109/40/83 107/159/83
f 111/153/84 112/158/84 110/163/84
f 114/139/85 115/156/85 113/136/85
f 117/138/86 118/160/86 116/157/86
f 102/141/54 105/140/54 104/169/54 103/168/54
f 120/187/87 121/188/87 122/175/87 119/174/87
f 124/167/88 125/166/88 126/151/88 123/150/88
f 107/159/89 112/158/89 111/153/89 108/152/89
f 114/139/90 117/138/90 116/157/90 115/156/90
f 103/168/91 127/171/91 128/143/91 101/142/91
f 106/172/92 129/173/92 130/170/92 104/169/92
f 119/174/93 130/170/93 129/147/93 120/146/93
f 121/177/94 128/178/94 127/176/94 122/175/94
f 115/156/95 107/159/95 109/40/95 113/39/95
f 118/160/96 110/163/96 112/158/96 116/157/96
f 123/150/97 111/153/97 110/163/97 124/184/97
f 125/183/98 109/40/98 108/152/98 126/151/98
f 117/138/99 102/141/99 101/186/99 118/160/99
f 113/136/100 106/137/100 105/140/100 114/139/100
f 158/202/110 175/203/110 193/203/110 198/202/110
f 168/204/111 167/205/111 207/205/111 208/204/111
f 169/206/112 161/207/112 201/207/112 209/206/112
f 174/208/110 157/209/110 197/209/110 192/208/110
f 166/210/113 165/211/113 205/211/113 206/210/113
f 155/212/114 168/204/114 208/204/114 195/212/114
f 155/212/3 156/213/3 172/66/3 171/189/3
f 157/209/4 174/208/4 152/68/4 173/52/4
f 175/203/3 158/202/3 176/191/3 153/22/3
f 159/214/4 160/215/4 178/21/4 177/193/4
f 174/208/4 161/207/4 179/67/4 152/68/4
f 162/216/3 175/203/3 153/22/3 180/23/3
f 163/217/3 154/218/3 182/135/3 181/194/3
f 183/219/4 164/220/4 184/53/4 151/195/4
f 165/211/4 166/210/4 186/196/4 185/20/4
f 167/205/3 168/204/3 188/198/3 187/65/3
f 169/206/4 183/219/4 151/195/4 189/201/4
f 154/218/3 170/221/3 190/134/3 182/135/3
f 164/220/4 157/209/4 173/52/4 184/53/4
f 160/215/4 165/211/4 185/20/4 178/21/4
f 158/202/3 163/217/3 181/194/3 176/191/3
f 168/204/3 155/212/3 171/189/3 188/198/3
f 161/207/4 169/206/4 189/201/4 179/67/4
f 170/221/3 162/216/3 180/23/3 190/134/3
f 166/210/4 159/214/4 177/193/4 186/196/4
f 156/213/3 167/205/3 187/65/3 172/66/3
f 162/216/118 170/221/118 210/221/118 202/216/118
f 183/219/119 169/206/119 209/206/119 191/219/119
f 160/215/120 159/214/120 199/214/120 200/215/120
f 159/214/121 166/210/121 206/210/121 199/214/121
f 170/221/42 154/218/42 194/218/42 210/221/42
f 161/207/6 174/208/6 192/208/6 201/207/6
f 167/205/15 156/213/15 196/213/15 207/205/15
f 157/209/13 164/220/13 204/220/13 197/209/13
f 175/203/6 162/216/6 202/216/6 193/203/6
f 165/211/5 160/215/5 200/215/5 205/211/5
f 154/218/115 163/217/115 203/217/115 194/218/115
f 163/217/116 158/202/116 198/202/116 203/217/116
f 164/220/115 183/219/115 191/219/115 204/220/115
f 156/213/117 155/212/117 195/212/117 196/213/117
f 280/242/170 271/241/170 279/230/170 269/229/170
f 272/240/170 281/243/170 270/233/170 282/232/170
f 273/244/171 274/245/171 284/181/171 283/182/171
f 275/246/172 276/239/172 286/237/172 285/236/172
f 274/245/173 280/242/173 269/229/173 284/181/173
f 277/247/185 273/244/185 283/182/185 287/179/185
f 281/243/173 275/246/173 285/236/173 270/233/173
f 271/241/170 272/240/170 282/232/170 279/230/170
f 276/239/186 278/238/186 288/180/186 286/237/186
f 278/238/173 277/247/173 287/179/173 288/180/173
usemtl M_Noir_Bleuté
f 98/138/44 95/139/44 74/140/44 71/141/44
f 85/150/50 87/151/50 89/152/50 92/153/50
f 96/156/1 100/157/1 93/158/1 91/159/1
f 72/168/54 76/169/54 84/170/54 81/171/54
f 77/174/56 80/175/56 81/176/56 84/170/56
f 84/170/60 76/169/60 104/169/60 130/170/60
f 98/138/61 71/141/61 102/141/61 117/138/61
f 80/175/62 77/174/62 119/174/62 122/175/62
f 89/152/63 87/151/63 126/151/63 108/152/63
f 85/150/69 92/153/69 111/153/69 123/150/69
f 76/169/70 72/168/70 103/168/70 104/169/70
f 72/168/71 81/171/71 127/171/71 103/168/71
f 93/158/72 100/157/72 116/157/72 112/158/72
f 71/141/73 74/140/73 105/140/73 102/141/73
f 100/157/74 96/156/74 115/156/74 116/157/74
f 95/139/76 98/138/76 117/138/76 114/139/76
f 92/153/78 89/152/78 108/152/78 111/153/78
f 96/156/79 91/159/79 107/159/79 115/156/79
f 91/159/80 93/158/80 112/158/80 107/159/80
f 77/174/102 84/170/102 130/170/102 119/174/102
f 74/140/106 95/139/106 114/139/106 105/140/106
f 87/151/108 85/150/108 123/150/108 126/151/108
f 81/176/109 80/175/109 122/175/109 127/176/109
usemtl M_Cyan
f 194/218/3 193/203/3 202/216/3 210/221/3
f 203/217/3 198/202/3 193/203/3 194/218/3
f 192/208/4 191/219/4 209/206/4 201/207/4
f 199/214/4 206/210/4 205/211/4 200/215/4
f 196/213/3 195/212/3 208/204/3 207/205/3
f 197/209/4 204/220/4 191/219/4 192/208/4
usemtl M_Orange
f 236/223/146 256/42/146 255/43/146 237/113/146
f 257/228/147 239/225/147 238/114/147 258/115/147
f 254/108/148 235/109/148 236/223/148 237/113/148
f 238/114/149 239/225/149 240/102/149 253/103/149
f 235/109/150 241/222/150 242/224/150 236/223/150
f 239/225/151 243/111/151 244/226/151 240/102/151
f 246/112/152 247/116/152 248/110/152 245/106/152
f 250/104/153 251/105/153 252/28/153 249/29/153
f 251/105/154 242/224/154 241/227/154 252/28/154
f 247/116/155 250/104/155 249/29/155 248/110/155
f 243/111/156 246/112/156 245/106/156 244/107/156
