# Blender 4.2.3 LTS
# www.blender.org
mtllib SM_Dresser_4Drawer.mtl
o SM_Drawer_Large_A
v 0.221041 0.398532 0.168379
v 0.221041 0.398532 -0.168379
v 0.221041 0.371603 -0.149711
v 0.221041 0.371603 0.149711
v 0.221041 0.374253 -0.148324
v 0.221041 0.395883 -0.163318
v 0.221041 0.395883 0.163318
v 0.221041 0.374253 0.148324
v 0.222541 0.374253 -0.148324
v 0.222541 0.395883 -0.163318
v 0.222541 0.374253 0.148324
v 0.222541 0.395883 0.163318
v 0.222541 0.379799 -0.145420
v 0.222541 0.390336 -0.152724
v 0.222541 0.390336 0.152724
v 0.222541 0.379799 0.145420
v 0.221329 0.379799 -0.145420
v 0.221329 0.390336 -0.152724
v 0.221329 0.379799 0.145420
v 0.221329 0.390336 0.152724
v 0.221329 0.381469 -0.144545
v 0.221329 0.388666 -0.149534
v 0.221329 0.388666 0.149534
v 0.221329 0.381469 0.144545
v 0.220815 0.381469 -0.144545
v 0.220815 0.388666 -0.149534
v 0.220815 0.381469 0.144545
v 0.220815 0.388666 0.149534
v 0.223504 0.395792 0.517763
v 0.220764 0.398532 0.520503
v 0.223504 0.271318 0.517763
v 0.220764 0.268578 0.520503
v 0.223504 0.271318 -0.517763
v 0.220764 0.268578 -0.520503
v 0.223504 0.395792 -0.517763
v 0.220764 0.398532 -0.520503
v 0.223504 0.371603 0.517763
v 0.220764 0.371603 0.520503
v 0.223504 0.371603 -0.517763
v 0.220764 0.371603 -0.520503
v 0.220764 0.268578 -0.168379
v 0.223504 0.271318 -0.167883
v 0.220764 0.268578 0.168379
v 0.223504 0.271318 0.167883
v 0.223504 0.395792 0.169813
v 0.220764 0.398532 0.168379
v 0.223504 0.395792 -0.169813
v 0.220764 0.398532 -0.168379
v 0.220764 0.371603 0.149711
v 0.223504 0.368863 0.151145
v 0.223504 0.368863 -0.151145
v 0.220764 0.371603 -0.149711
v 0.198549 0.392033 0.503104
v 0.209449 0.275078 0.514004
v 0.209449 0.275078 -0.514004
v 0.198549 0.392033 -0.503104
v 0.209449 0.398532 0.520503
v 0.209449 0.268578 0.520503
v 0.209449 0.268578 -0.520503
v 0.209449 0.398532 -0.520503
v 0.209449 0.398532 0.168382
v 0.209449 0.398532 -0.168379
v -0.129213 0.392033 0.503104
v -0.140113 0.275078 0.514004
v -0.140113 0.275078 -0.514004
v -0.129213 0.392033 -0.503104
v 0.209449 0.392033 -0.514004
v 0.209449 0.392033 0.514004
v -0.140113 0.392033 -0.514004
v -0.140113 0.392033 0.514004
v 0.198549 0.285262 -0.503104
v 0.198549 0.285262 0.503104
v -0.129213 0.285262 -0.503104
v -0.129213 0.285262 0.503104
vn -0.0000 1.0000 -0.0000
vn 1.0000 -0.0000 -0.0000
vn -0.0000 -0.0000 -1.0000
vn -0.0000 -0.5697 -0.8218
vn -0.0000 -0.5697 0.8218
vn -0.0000 -1.0000 -0.0000
vn -0.0000 0.5697 -0.8218
vn -0.0000 0.5697 0.8218
vn 0.7071 -0.0000 0.7071
vn 0.7071 -0.0000 -0.7071
vn 0.7071 0.7071 -0.0000
vn 0.7071 0.4029 0.5811
vn 0.7071 0.4029 -0.5811
vn 0.7071 -0.7071 -0.0000
vn -0.0000 -0.0000 1.0000
vn -1.0000 -0.0000 -0.0000
vt 0.485703 0.509115
vt 0.485703 0.587512
vt 0.485703 0.599328
vt 0.485703 0.596995
vt 0.485703 0.662488
vt 0.485703 0.650672
vt 0.467654 0.740218
vt 0.450085 0.740192
vt 0.450085 0.650672
vt 0.467174 0.650903
vt 0.485703 0.740885
vt 0.485703 0.740885
vt 0.485703 0.653005
vt 0.449605 0.509115
vt 0.485703 0.509115
vt 0.475341 0.509115
vt 0.483867 0.740194
vt 0.465818 0.651462
vt 0.483867 0.651502
vt 0.483867 0.598498
vt 0.465818 0.598538
vt 0.467654 0.509782
vt 0.483867 0.509806
vt 0.467174 0.599097
vt 0.450085 0.599328
vt 0.450085 0.509808
vt 0.467654 0.599328
vt 0.485703 0.599328
vt 0.467654 0.599328
vt 0.485703 0.650672
vt 0.467654 0.650672
vt 0.467654 0.650672
vt 0.467174 0.599178
vt 0.467174 0.650822
vt 0.449605 0.740885
vt 0.449605 0.509115
vt 0.449605 0.590907
vt 0.449605 0.659093
vt 0.469430 0.650153
vt 0.469430 0.599847
vt 0.483927 0.599827
vt 0.467654 0.650672
vt 0.467654 0.599328
vt 0.483927 0.650173
vt 0.473148 0.649077
vt 0.473148 0.600923
vt 0.480210 0.600889
vt 0.480210 0.649111
vt 0.474267 0.648755
vt 0.474267 0.601245
vt 0.479090 0.601217
vt 0.479090 0.648783
vt 0.475341 0.740885
vt 0.485703 0.740885
vt 0.483898 0.512989
vt 0.483898 0.512989
vt 0.483898 0.739438
vt 0.451411 0.739438
vt 0.451410 0.510562
vt 0.483898 0.510562
vt 0.483898 0.737011
vt 0.483898 0.737011
s 0
usemtl M_Blanc
f 36/1/1 60/1/1 62/2/1 2/3/1 48/4/1
f 37/7/2 31/8/2 44/9/2 50/10/2
f 1/6/1 61/5/1 57/11/1 30/12/1 46/13/1
f 34/14/3 59/14/3 60/1/3 36/15/3 40/16/3
f 29/17/2 37/7/2 50/18/2 45/19/2
f 47/20/2 51/21/2 39/22/2 35/23/2
f 51/24/2 42/25/2 33/26/2 39/22/2
f 52/27/4 48/28/4 2/3/4 3/29/4
f 46/30/5 49/31/5 4/32/5 1/6/5
f 42/25/2 51/33/2 50/34/2 44/9/2
f 32/35/6 58/35/6 59/14/6 34/36/6 41/37/6 43/38/6
f 49/42/6 52/43/6 3/29/6 4/32/6
f 38/53/9 32/35/9 31/8/9 37/7/9
f 40/16/10 36/15/10 35/23/10 39/22/10
f 30/54/9 38/53/9 37/7/9 29/17/9
f 34/14/10 40/16/10 39/22/10 33/26/10
f 50/34/11 51/33/11 52/43/11 49/42/11
f 51/21/12 47/20/12 48/28/12 52/27/12
f 45/19/13 50/18/13 49/31/13 46/30/13
f 43/38/14 41/37/14 42/25/14 44/9/14
f 33/26/14 42/25/14 41/37/14 34/36/14
f 44/9/14 31/8/14 32/35/14 43/38/14
f 46/13/11 30/12/11 29/17/11 45/19/11
f 47/20/11 35/23/11 36/1/11 48/4/11
f 68/57/16 54/58/16 58/35/16 57/11/16
f 54/58/16 55/59/16 59/14/16 58/35/16
f 55/59/16 67/60/16 60/1/16 59/14/16
f 67/60/16 68/57/16 57/11/16 61/5/16 62/2/16 60/1/16
f 30/54/15 57/11/15 58/35/15 32/35/15 38/53/15
usemtl M_Noir_Profond
f 2/3/1 62/2/1 61/5/1 1/6/1
f 3/29/2 2/3/2 6/41/2 5/40/2
f 2/3/2 1/6/2 7/44/2 6/41/2
f 1/6/2 4/32/2 8/39/2 7/44/2
f 4/32/2 3/29/2 5/40/2 8/39/2
f 24/49/1 21/50/1 25/50/1 27/49/1
f 17/46/2 18/47/2 22/51/2 21/50/2
f 18/47/2 20/48/2 23/52/2 22/51/2
f 20/48/2 19/45/2 24/49/2 23/52/2
f 19/45/2 17/46/2 21/50/2 24/49/2
f 22/51/6 23/52/6 28/52/6 26/51/6
f 23/52/7 24/49/7 27/49/7 28/52/7
f 21/50/8 22/51/8 26/51/8 25/50/8
f 72/61/1 71/55/1 73/56/1 74/62/1
usemtl M_Noir_Bleuté
f 56/55/15 66/56/15 73/56/15 71/55/15
f 70/57/16 69/60/16 65/59/16 64/58/16
f 67/60/3 55/59/3 65/59/3 69/60/3
f 54/58/15 68/57/15 70/57/15 64/58/15
f 55/59/6 54/58/6 64/58/6 65/59/6
f 56/55/1 53/61/1 68/57/1 67/60/1
f 63/62/1 66/56/1 69/60/1 70/57/1
f 66/56/1 56/55/1 67/60/1 69/60/1
f 53/61/1 63/62/1 70/57/1 68/57/1
f 53/61/16 56/55/16 71/55/16 72/61/16
f 63/62/3 53/61/3 72/61/3 74/62/3
f 66/56/2 63/62/2 74/62/2 73/56/2
usemtl M_Cyan
f 25/50/2 26/51/2 28/52/2 27/49/2
usemtl M_Orange
f 8/39/6 5/40/6 9/40/6 11/39/6
f 5/40/4 6/41/4 10/41/4 9/40/4
f 16/45/1 13/46/1 17/46/1 19/45/1
f 6/41/1 7/44/1 12/44/1 10/41/1
f 7/44/5 8/39/5 11/39/5 12/44/5
f 9/40/2 10/41/2 14/47/2 13/46/2
f 10/41/2 12/44/2 15/48/2 14/47/2
f 12/44/2 11/39/2 16/45/2 15/48/2
f 11/39/2 9/40/2 13/46/2 16/45/2
f 14/47/6 15/48/6 20/48/6 18/47/6
f 15/48/7 16/45/7 19/45/7 20/48/7
f 13/46/8 14/47/8 18/47/8 17/46/8
o SM_Drawer_Large_B
v 0.221041 0.217129 -0.149711
v 0.221041 0.217129 0.149711
v 0.221041 0.244058 -0.168379
v 0.221041 0.244058 0.168379
v 0.221041 0.241408 0.163318
v 0.221041 0.219778 0.148324
v 0.221041 0.219778 -0.148324
v 0.221041 0.241408 -0.163318
v 0.222541 0.241408 0.163318
v 0.222541 0.219778 0.148324
v 0.222541 0.241408 -0.163318
v 0.222541 0.219778 -0.148324
v 0.222541 0.235862 0.152724
v 0.222541 0.225325 0.145420
v 0.222541 0.225325 -0.145420
v 0.222541 0.235862 -0.152724
v 0.221329 0.235862 0.152724
v 0.221329 0.225325 0.145420
v 0.221329 0.235862 -0.152724
v 0.221329 0.225325 -0.145420
v 0.221329 0.234191 0.149534
v 0.221329 0.226995 0.144545
v 0.221329 0.226995 -0.144545
v 0.221329 0.234191 -0.149534
v 0.220815 0.234191 0.149534
v 0.220815 0.226995 0.144545
v 0.220815 0.234191 -0.149534
v 0.220815 0.226995 -0.144545
v 0.220764 0.217129 0.520503
v 0.223504 0.217129 0.517763
v 0.220764 0.217129 -0.520503
v 0.223504 0.217129 -0.517763
v 0.223504 0.241318 -0.517763
v 0.220764 0.244058 -0.520503
v 0.223504 0.241318 0.517763
v 0.220764 0.244058 0.520503
v 0.223504 0.116843 -0.517763
v 0.220764 0.114104 -0.520503
v 0.223504 0.116843 0.517763
v 0.220764 0.114104 0.520503
v 0.220764 0.114104 -0.168379
v 0.223504 0.116843 -0.167883
v 0.220764 0.114104 0.168379
v 0.223504 0.116843 0.167883
v 0.223504 0.241318 0.169813
v 0.220764 0.244058 0.168379
v 0.223504 0.241318 -0.169813
v 0.220764 0.244058 -0.168379
v 0.223504 0.214389 -0.151145
v 0.220764 0.217129 -0.149711
v 0.220764 0.217129 0.149711
v 0.223504 0.214389 0.151145
v 0.198549 0.237558 0.503104
v 0.209449 0.120603 -0.514004
v 0.198549 0.237558 -0.503104
v 0.209449 0.120603 0.514004
v 0.209449 0.244058 0.168379
v 0.209449 0.244058 0.520503
v 0.209449 0.114104 -0.520503
v 0.209449 0.244058 -0.520503
v 0.209449 0.114104 0.520503
v 0.209449 0.244058 -0.168379
v -0.129213 0.237558 0.503104
v -0.140113 0.120603 -0.514004
v -0.129213 0.237558 -0.503104
v -0.140113 0.120603 0.514004
v 0.209449 0.237558 -0.514004
v 0.209449 0.237558 0.514004
v -0.140113 0.237558 -0.514004
v -0.140113 0.237558 0.514004
v 0.198549 0.130787 -0.503104
v 0.198549 0.130787 0.503104
v -0.129213 0.130787 -0.503104
v -0.129213 0.130787 0.503104
vn 1.0000 -0.0000 -0.0000
vn -0.0000 -0.5697 0.8218
vn -0.0000 -0.0000 1.0000
vn -0.0000 -0.5697 -0.8218
vn -0.0000 -1.0000 -0.0000
vn -0.0000 1.0000 -0.0000
vn -0.0000 0.5697 -0.8218
vn -0.0000 0.5697 0.8218
vn -0.0000 -0.0000 -1.0000
vn 0.7071 -0.0000 0.7071
vn 0.7071 -0.0000 -0.7071
vn 0.7071 0.7071 -0.0000
vn 0.7071 -0.7071 -0.0000
vn 0.7071 0.4029 -0.5811
vn 0.7071 0.4029 0.5811
vn -1.0000 -0.0000 -0.0000
vt 0.440957 0.509806
vt 0.440957 0.598498
vt 0.422908 0.598538
vt 0.424745 0.509782
vt 0.424265 0.599097
vt 0.407175 0.599328
vt 0.407175 0.509808
vt 0.424265 0.650903
vt 0.424745 0.740218
vt 0.407176 0.740192
vt 0.407175 0.650672
vt 0.440957 0.651502
vt 0.440957 0.740194
vt 0.422908 0.651462
vt 0.424265 0.650822
vt 0.424265 0.599178
vt 0.442794 0.650672
vt 0.424745 0.650672
vt 0.442794 0.740885
vt 0.406696 0.740885
vt 0.432432 0.740885
vt 0.424745 0.599328
vt 0.442794 0.599328
vt 0.424745 0.599328
vt 0.424745 0.650672
vt 0.424745 0.650672
vt 0.426520 0.650153
vt 0.441018 0.650173
vt 0.426520 0.599847
vt 0.441018 0.599827
vt 0.430238 0.649077
vt 0.437300 0.649111
vt 0.430238 0.600923
vt 0.437300 0.600888
vt 0.431358 0.648755
vt 0.436181 0.648783
vt 0.431358 0.601245
vt 0.436181 0.601217
vt 0.442794 0.509115
vt 0.442794 0.587512
vt 0.442794 0.596995
vt 0.442794 0.662488
vt 0.442794 0.650672
vt 0.406695 0.509115
vt 0.432432 0.509115
vt 0.406696 0.659093
vt 0.406696 0.590907
vt 0.406695 0.509115
vt 0.442794 0.653005
vt 0.442794 0.740885
vt 0.440988 0.737011
vt 0.440988 0.739438
vt 0.440988 0.510562
vt 0.408501 0.510562
vt 0.408501 0.739438
vt 0.440988 0.512989
vt 0.440988 0.512989
s 0
usemtl M_Blanc
f 107/63/17 121/64/17 123/65/17 106/66/17
f 106/66/17 123/67/17 116/68/17 111/69/17
f 126/70/17 104/71/17 113/72/17 118/73/17
f 119/74/17 109/75/17 104/71/17 126/76/17
f 126/77/17 118/73/17 116/68/17 123/78/17
f 120/79/18 125/80/18 76/80/18 78/79/18
f 110/81/19 132/81/19 135/82/19 114/82/19 103/83/19
f 124/84/20 122/85/20 77/85/20 75/86/20
f 125/87/21 124/86/21 75/86/21 76/88/21
f 108/101/22 134/101/22 136/102/22 77/85/22 122/103/22
f 112/106/25 133/106/25 134/101/25 108/101/25 105/107/25
f 110/81/26 103/83/26 104/71/26 109/75/26
f 112/106/27 105/107/27 106/66/27 111/69/27
f 105/107/27 108/101/27 107/63/27 106/66/27
f 103/83/26 114/82/26 113/72/26 104/71/26
f 124/86/28 125/87/28 126/77/28 123/78/28
f 117/108/29 115/109/29 116/68/29 118/73/29
f 119/74/30 126/76/30 125/80/30 120/79/30
f 123/65/31 121/64/31 122/85/31 124/84/31
f 115/109/29 112/110/29 111/69/29 116/68/29
f 118/73/29 113/72/29 114/82/29 117/108/29
f 120/111/28 110/112/28 109/75/28 119/74/28
f 121/64/28 107/63/28 108/101/28 122/103/28
f 114/82/21 135/82/21 133/106/21 112/110/21 115/109/21 117/108/21
f 142/114/32 132/81/32 131/104/32 136/102/32 134/101/32 141/115/32
f 128/116/32 141/115/32 134/101/32 133/106/32
f 142/114/32 130/117/32 135/82/32 132/81/32
f 130/117/32 128/116/32 133/106/32 135/82/32
f 78/79/22 131/104/22 132/81/22 110/112/22 120/111/22
usemtl M_Noir_Profond
f 78/79/17 76/80/17 80/89/17 79/90/17
f 76/80/17 75/86/17 81/91/17 80/89/17
f 75/86/17 77/85/17 82/92/17 81/91/17
f 77/85/17 78/79/17 79/90/17 82/92/17
f 91/94/17 92/93/17 96/97/17 95/98/17
f 92/93/17 94/95/17 97/99/17 96/97/17
f 94/95/17 93/96/17 98/100/17 97/99/17
f 93/96/17 91/94/17 95/98/17 98/100/17
f 95/98/23 96/97/23 100/97/23 99/98/23
f 98/100/21 95/98/21 99/98/21 101/100/21
f 96/97/22 97/99/22 102/99/22 100/97/22
f 97/99/24 98/100/24 101/100/24 102/99/24
f 77/85/22 136/102/22 131/104/22 78/105/22
f 146/113/22 145/118/22 147/119/22 148/113/22
usemtl M_Noir_Bleuté
f 137/113/25 127/113/25 146/113/25 148/113/25
f 144/114/32 143/115/32 138/116/32 140/117/32
f 128/116/21 130/117/21 140/117/21 138/116/21
f 141/115/25 128/116/25 138/116/25 143/115/25
f 130/117/19 142/114/19 144/114/19 140/117/19
f 129/118/22 127/113/22 142/114/22 141/115/22
f 137/113/22 139/119/22 143/115/22 144/114/22
f 139/119/22 129/118/22 141/115/22 143/115/22
f 127/113/22 137/113/22 144/114/22 142/114/22
f 139/119/17 137/113/17 148/113/17 147/119/17
f 129/118/19 139/119/19 147/119/19 145/118/19
f 127/113/32 129/118/32 145/118/32 146/113/32
usemtl M_Cyan
f 99/98/17 100/97/17 102/99/17 101/100/17
usemtl M_Orange
f 79/90/18 80/89/18 84/89/18 83/90/18
f 82/92/22 79/90/22 83/90/22 85/92/22
f 80/89/21 81/91/21 86/91/21 84/89/21
f 81/91/20 82/92/20 85/92/20 86/91/20
f 83/90/17 84/89/17 88/93/17 87/94/17
f 84/89/17 86/91/17 89/95/17 88/93/17
f 86/91/17 85/92/17 90/96/17 89/95/17
f 85/92/17 83/90/17 87/94/17 90/96/17
f 87/94/23 88/93/23 92/93/23 91/94/23
f 90/96/21 87/94/21 91/94/21 93/96/21
f 88/93/22 89/95/22 94/95/22 92/93/22
f 89/95/24 90/96/24 93/96/24 94/95/24
o SM_Drawer_Small_A
v 0.221041 0.707481 -0.151076
v 0.221041 0.707481 -0.381688
v 0.221041 0.680552 -0.363143
v 0.221041 0.680552 -0.169620
v 0.221041 0.683202 -0.361751
v 0.221041 0.704832 -0.376646
v 0.221041 0.704832 -0.156117
v 0.221041 0.683202 -0.171012
v 0.222541 0.683202 -0.361751
v 0.222541 0.704832 -0.376646
v 0.222541 0.683202 -0.171012
v 0.222541 0.704832 -0.156117
v 0.222541 0.688748 -0.358836
v 0.222541 0.699285 -0.366092
v 0.222541 0.699285 -0.166671
v 0.222541 0.688748 -0.173927
v 0.221329 0.688748 -0.358836
v 0.221329 0.699285 -0.366092
v 0.221329 0.688748 -0.173927
v 0.221329 0.699285 -0.166671
v 0.221329 0.690418 -0.357958
v 0.221329 0.697615 -0.362914
v 0.221329 0.697615 -0.169849
v 0.221329 0.690418 -0.174805
v 0.220815 0.690418 -0.357958
v 0.220815 0.697615 -0.362914
v 0.220815 0.690418 -0.174805
v 0.220815 0.697615 -0.169849
v 0.223504 0.580267 -0.015000
v 0.220764 0.577527 -0.012260
v 0.223504 0.704741 -0.015000
v 0.220764 0.707481 -0.012260
v 0.223504 0.704741 -0.517763
v 0.220764 0.707481 -0.520503
v 0.223504 0.580267 -0.517763
v 0.220764 0.577527 -0.520503
v 0.220764 0.680552 -0.012260
v 0.223504 0.680552 -0.015000
v 0.220764 0.680552 -0.520503
v 0.223504 0.680552 -0.517763
v 0.223504 0.704741 -0.149636
v 0.220764 0.707481 -0.151076
v 0.223504 0.704741 -0.383128
v 0.220764 0.707481 -0.381688
v 0.220764 0.577527 -0.381688
v 0.223504 0.580267 -0.381195
v 0.220764 0.577527 -0.151076
v 0.223504 0.580267 -0.151569
v 0.220764 0.680552 -0.169620
v 0.223504 0.677812 -0.168180
v 0.223504 0.677812 -0.364583
v 0.220764 0.680552 -0.363143
v 0.209449 0.584027 -0.018760
v 0.198549 0.700982 -0.029660
v 0.198549 0.700982 -0.503104
v 0.209449 0.584027 -0.514004
v 0.209449 0.577527 -0.012260
v 0.209449 0.707481 -0.012260
v 0.209449 0.707481 -0.381687
v 0.209449 0.707481 -0.520503
v 0.209449 0.577527 -0.520503
v 0.209449 0.707481 -0.151074
v -0.140113 0.584027 -0.018760
v -0.129213 0.700982 -0.029660
v -0.129213 0.700982 -0.503104
v -0.140113 0.584027 -0.514004
v 0.209449 0.700982 -0.018760
v 0.209449 0.700982 -0.514004
v -0.140113 0.700982 -0.018760
v -0.140113 0.700982 -0.514004
v 0.198549 0.594211 -0.029660
v 0.198549 0.594211 -0.503104
v -0.129213 0.594211 -0.029660
v -0.129213 0.594211 -0.503104
vn 1.0000 -0.0000 -0.0000
vn -0.0000 -0.5672 -0.8236
vn -0.0000 -1.0000 -0.0000
vn -0.0000 1.0000 -0.0000
vn -0.0000 -0.0000 -1.0000
vn -0.0000 -0.5671 -0.8236
vn -0.0000 -0.5672 0.8236
vn -0.0000 0.5672 0.8236
vn -0.0000 0.5672 -0.8236
vn 0.7071 -0.0000 -0.7071
vn 0.7071 -0.0000 0.7071
vn 0.7071 0.7071 -0.0000
vn 0.7071 0.4010 0.5824
vn 0.7071 0.4010 -0.5824
vn 0.7071 -0.7071 -0.0000
vn -1.0000 -0.0000 -0.0000
vn -0.0000 -0.0000 1.0000
vt 0.552993 0.539830
vt 0.535904 0.540021
vt 0.535904 0.509710
vt 0.553473 0.509653
vt 0.553473 0.621732
vt 0.535904 0.621676
vt 0.535904 0.591365
vt 0.552993 0.591556
vt 0.569686 0.621682
vt 0.553473 0.621732
vt 0.551637 0.591979
vt 0.569686 0.592058
vt 0.555249 0.540799
vt 0.569747 0.540753
vt 0.535424 0.622270
vt 0.535424 0.509115
vt 0.535424 0.540021
vt 0.535424 0.591365
vt 0.571522 0.509115
vt 0.571522 0.540021
vt 0.571522 0.540021
vt 0.571522 0.540021
vt 0.561161 0.509115
vt 0.571522 0.591365
vt 0.571522 0.591365
vt 0.553473 0.540021
vt 0.553473 0.591365
vt 0.553473 0.591365
vt 0.553473 0.591365
vt 0.553473 0.540021
vt 0.552993 0.539792
vt 0.552993 0.591594
vt 0.571522 0.622270
vt 0.571522 0.622270
vt 0.571522 0.591365
vt 0.569747 0.590632
vt 0.555249 0.590586
vt 0.558967 0.542403
vt 0.566029 0.542324
vt 0.566029 0.589061
vt 0.558967 0.588982
vt 0.560086 0.542881
vt 0.564910 0.542817
vt 0.564910 0.588569
vt 0.560086 0.588504
vt 0.569686 0.539328
vt 0.551637 0.539406
vt 0.569686 0.509704
vt 0.561161 0.622270
vt 0.535424 0.622270
vt 0.569717 0.618397
vt 0.569717 0.512989
vt 0.569717 0.620823
vt 0.537230 0.620823
vt 0.569717 0.510562
vt 0.537230 0.510562
vt 0.569717 0.512989
s 0
usemtl M_Blanc
f 199/120/33 194/121/33 183/122/33 188/123/33
f 186/124/33 177/125/33 196/126/33 198/127/33
f 179/128/33 186/129/33 198/130/33 189/131/33
f 178/134/35 205/134/35 209/135/35 184/135/35 193/136/35 195/137/35
f 182/138/36 208/138/36 207/139/36 150/140/36 192/141/36
f 184/135/37 209/135/37 208/138/37 182/138/37 187/142/37
f 200/145/38 192/140/38 150/140/38 151/145/38
f 190/144/39 197/146/39 152/147/39 149/144/39
f 197/148/35 200/149/35 151/145/35 152/148/35
f 194/121/33 199/150/33 198/151/33 196/126/33
f 149/144/36 210/143/36 206/152/36 180/153/36 190/154/36
f 191/165/33 199/166/33 188/123/33 181/167/33
f 184/135/42 187/142/42 188/123/42 183/122/42
f 186/129/43 179/128/43 180/152/43 185/168/43
f 187/142/42 182/138/42 181/167/42 188/123/42
f 177/125/43 186/124/43 185/168/43 178/169/43
f 198/151/44 199/150/44 200/149/44 197/148/44
f 199/166/45 191/165/45 192/140/45 200/145/45
f 189/131/46 198/130/46 197/146/46 190/144/46
f 195/137/47 193/136/47 194/121/47 196/126/47
f 190/154/44 180/153/44 179/128/44 189/131/44
f 191/165/44 181/167/44 182/138/44 192/141/44
f 183/122/47 194/121/47 193/136/47 184/135/47
f 196/126/47 177/125/47 178/134/47 195/137/47
f 215/172/48 201/173/48 205/134/48 206/152/48
f 216/174/48 215/172/48 206/152/48 210/143/48 207/139/48 208/138/48
f 201/173/48 204/175/48 209/135/48 205/134/48
f 204/175/48 216/174/48 208/138/48 209/135/48
f 180/152/49 206/152/49 205/134/49 178/169/49 185/168/49
usemtl M_Noir_Profond
f 150/140/36 207/139/36 210/143/36 149/144/36
f 151/145/33 150/140/33 154/133/33 153/132/33
f 150/140/33 149/144/33 155/155/33 154/133/33
f 149/144/33 152/147/33 156/156/33 155/155/33
f 152/147/33 151/145/33 153/132/33 156/156/33
f 169/161/40 170/162/40 174/162/40 173/161/40
f 165/157/33 166/158/33 170/162/33 169/161/33
f 166/158/33 168/159/33 171/163/33 170/162/33
f 168/159/33 167/160/33 172/164/33 171/163/33
f 167/160/33 165/157/33 169/161/33 172/164/33
f 172/164/36 169/161/36 173/161/36 175/164/36
f 170/162/35 171/163/35 176/163/35 174/162/35
f 171/163/41 172/164/41 175/164/41 176/163/41
f 219/170/36 220/171/36 222/176/36 221/170/36
usemtl M_Noir_Bleuté
f 202/170/48 203/171/48 220/171/48 219/170/48
f 211/173/48 217/172/48 218/174/48 214/175/48
f 204/175/35 201/173/35 211/173/35 214/175/35
f 201/173/49 215/172/49 217/172/49 211/173/49
f 216/174/37 204/175/37 214/175/37 218/174/37
f 203/171/36 202/170/36 215/172/36 216/174/36
f 212/170/36 213/176/36 218/174/36 217/172/36
f 202/170/36 212/170/36 217/172/36 215/172/36
f 213/176/36 203/171/36 216/174/36 218/174/36
f 203/171/49 213/176/49 222/176/49 220/171/49
f 213/176/33 212/170/33 221/170/33 222/176/33
f 212/170/37 202/170/37 219/170/37 221/170/37
usemtl M_Cyan
f 173/161/33 174/162/33 176/163/33 175/164/33
usemtl M_Orange
f 153/132/34 154/133/34 158/133/34 157/132/34
f 161/157/40 162/158/40 166/158/40 165/157/40
f 156/156/35 153/132/35 157/132/35 159/156/35
f 154/133/36 155/155/36 160/155/36 158/133/36
f 155/155/39 156/156/39 159/156/39 160/155/39
f 157/132/33 158/133/33 162/158/33 161/157/33
f 158/133/33 160/155/33 163/159/33 162/158/33
f 160/155/33 159/156/33 164/160/33 163/159/33
f 159/156/33 157/132/33 161/157/33 164/160/33
f 164/160/36 161/157/36 165/157/36 167/160/36
f 162/158/35 163/159/35 168/159/35 166/158/35
f 163/159/41 164/160/41 167/160/41 168/159/41
o SM_Drawer_Small_B
v 0.221041 0.553007 -0.151076
v 0.221041 0.553007 -0.381688
v 0.221041 0.526078 -0.169620
v 0.221041 0.526078 -0.363143
v 0.221041 0.550357 -0.156117
v 0.221041 0.528727 -0.171012
v 0.221041 0.528727 -0.361751
v 0.221041 0.550357 -0.376646
v 0.222541 0.550357 -0.156117
v 0.222541 0.528727 -0.171012
v 0.222541 0.550357 -0.376646
v 0.222541 0.528727 -0.361751
v 0.222541 0.544811 -0.166671
v 0.222541 0.534274 -0.173927
v 0.222541 0.534274 -0.358836
v 0.222541 0.544811 -0.366092
v 0.221329 0.544811 -0.166671
v 0.221329 0.534274 -0.173927
v 0.221329 0.544811 -0.366092
v 0.221329 0.534274 -0.358836
v 0.221329 0.543140 -0.169849
v 0.221329 0.535944 -0.174805
v 0.221329 0.535944 -0.357958
v 0.221329 0.543140 -0.362914
v 0.220815 0.543140 -0.169849
v 0.220815 0.535944 -0.174805
v 0.220815 0.543140 -0.362914
v 0.220815 0.535944 -0.357958
v 0.223504 0.550267 -0.517763
v 0.220764 0.553007 -0.520503
v 0.223504 0.550267 -0.015000
v 0.220764 0.553007 -0.012260
v 0.223504 0.425792 -0.517763
v 0.220764 0.423053 -0.520503
v 0.223504 0.425792 -0.015000
v 0.220764 0.423053 -0.012260
v 0.223504 0.526078 -0.517763
v 0.220764 0.526078 -0.520503
v 0.223504 0.526078 -0.015000
v 0.220764 0.526078 -0.012260
v 0.223504 0.550267 -0.149636
v 0.220764 0.553007 -0.151076
v 0.223504 0.550267 -0.383128
v 0.220764 0.553007 -0.381688
v 0.220764 0.423053 -0.381688
v 0.223504 0.425792 -0.381195
v 0.220764 0.423053 -0.151076
v 0.223504 0.425792 -0.151569
v 0.223504 0.523338 -0.364583
v 0.220764 0.526078 -0.363143
v 0.220764 0.526078 -0.169620
v 0.223504 0.523338 -0.168180
v 0.198549 0.546507 -0.029660
v 0.209449 0.429552 -0.514004
v 0.198549 0.546507 -0.503104
v 0.209449 0.429552 -0.018760
v 0.209449 0.553007 -0.151075
v 0.209449 0.553007 -0.012260
v 0.209449 0.423053 -0.520503
v 0.209449 0.553007 -0.520503
v 0.209449 0.423053 -0.012260
v 0.209449 0.553007 -0.381688
v -0.129213 0.546507 -0.029660
v -0.140113 0.429552 -0.514004
v -0.129213 0.546507 -0.503104
v -0.140113 0.429552 -0.018760
v 0.209449 0.546507 -0.514004
v 0.209449 0.546507 -0.018760
v -0.140113 0.546507 -0.514004
v -0.140113 0.546507 -0.018760
v 0.198549 0.439736 -0.503104
v 0.198549 0.439736 -0.029660
v -0.129213 0.439736 -0.503104
v -0.129213 0.439736 -0.029660
vn 1.0000 -0.0000 -0.0000
vn -0.0000 -0.0000 -1.0000
vn -0.0000 1.0000 -0.0000
vn -0.0000 -0.0000 1.0000
vn -0.0000 -0.5671 0.8236
vn -0.0000 -0.5672 0.8236
vn -0.0000 -1.0000 -0.0000
vn -0.0000 -0.5672 -0.8236
vn -0.0000 0.5672 -0.8236
vn -0.0000 0.5672 0.8236
vn 0.7071 -0.0000 -0.7071
vn 0.7071 -0.0000 0.7071
vn 0.7071 0.7071 -0.0000
vn 0.7071 -0.7071 -0.0000
vn 0.7071 0.4010 -0.5824
vn 0.7071 0.4011 0.5824
vn -1.0000 -0.0000 -0.0000
vt 0.510564 0.509653
vt 0.510084 0.539829
vt 0.492995 0.540021
vt 0.492995 0.509710
vt 0.492515 0.509115
vt 0.528613 0.509115
vt 0.518251 0.509115
vt 0.528613 0.540021
vt 0.528613 0.540021
vt 0.528613 0.591365
vt 0.528613 0.591365
vt 0.526776 0.592058
vt 0.526776 0.621682
vt 0.510564 0.621732
vt 0.508727 0.591979
vt 0.510084 0.591556
vt 0.492995 0.621676
vt 0.492995 0.591365
vt 0.526776 0.509704
vt 0.526776 0.539328
vt 0.508727 0.539406
vt 0.528613 0.622270
vt 0.492515 0.622270
vt 0.492515 0.622270
vt 0.518251 0.622270
vt 0.510564 0.591365
vt 0.526837 0.590632
vt 0.512340 0.590586
vt 0.492515 0.622270
vt 0.492515 0.540021
vt 0.492515 0.591365
vt 0.510564 0.540021
vt 0.528613 0.540021
vt 0.510084 0.591594
vt 0.492995 0.540021
vt 0.510084 0.539792
vt 0.512340 0.540799
vt 0.526837 0.540753
vt 0.523120 0.542324
vt 0.523119 0.589061
vt 0.516057 0.588982
vt 0.516057 0.542403
vt 0.522000 0.542817
vt 0.522000 0.588569
vt 0.517177 0.588504
vt 0.517177 0.542881
vt 0.528613 0.591365
vt 0.528613 0.622270
vt 0.526807 0.618397
vt 0.526807 0.618397
vt 0.526808 0.510562
vt 0.526807 0.620823
vt 0.494320 0.510562
vt 0.494320 0.620823
vt 0.526808 0.512989
s 0
usemtl M_Blanc
f 259/177/50 271/178/50 268/179/50 255/180/50
f 256/181/51 281/181/51 282/182/51 252/182/51 260/183/51
f 252/182/52 282/182/52 284/184/52 224/185/52 266/185/52
f 263/188/50 253/189/50 261/190/50 274/191/50
f 274/192/50 261/190/50 257/193/50 270/194/50
f 251/195/50 265/196/50 271/197/50 259/177/50
f 254/198/53 280/198/53 283/199/53 258/200/53 262/201/53
f 264/187/54 273/202/54 225/202/54 223/187/54
f 258/205/56 283/199/56 281/181/56 256/181/56 267/206/56 269/207/56
f 272/208/57 266/209/57 224/185/57 226/208/57
f 274/210/50 270/194/50 268/211/50 271/212/50
f 273/202/56 272/208/56 226/208/56 225/202/56
f 260/183/60 252/182/60 251/195/60 259/177/60
f 262/201/61 258/200/61 257/193/61 261/190/61
f 256/181/60 260/183/60 259/177/60 255/180/60
f 254/198/61 262/201/61 261/190/61 253/189/61
f 272/208/62 273/202/62 274/210/62 271/212/62
f 269/207/63 267/206/63 268/211/63 270/194/63
f 263/188/64 274/191/64 273/202/64 264/187/64
f 271/197/65 265/196/65 266/209/65 272/208/65
f 264/223/62 254/224/62 253/189/62 263/188/62
f 265/196/62 251/195/62 252/182/62 266/185/62
f 255/180/63 268/179/63 267/206/63 256/181/63
f 270/194/63 257/193/63 258/205/63 269/207/63
f 289/227/66 290/228/66 280/198/66 279/186/66 284/184/66 282/182/66
f 276/229/66 289/227/66 282/182/66 281/181/66
f 290/228/66 278/230/66 283/199/66 280/198/66
f 278/230/66 276/229/66 281/181/66 283/199/66
f 223/187/52 279/186/52 280/198/52 254/224/52 264/223/52
usemtl M_Noir_Profond
f 224/185/52 284/184/52 279/186/52 223/187/52
f 223/187/50 225/202/50 228/204/50 227/203/50
f 225/202/50 226/208/50 229/213/50 228/204/50
f 226/208/50 224/185/50 230/214/50 229/213/50
f 224/185/50 223/187/50 227/203/50 230/214/50
f 246/219/56 243/220/56 247/220/56 249/219/56
f 243/220/58 244/221/58 248/221/58 247/220/58
f 239/216/50 240/217/50 244/221/50 243/220/50
f 240/217/50 242/218/50 245/222/50 244/221/50
f 242/218/50 241/215/50 246/219/50 245/222/50
f 241/215/50 239/216/50 243/220/50 246/219/50
f 244/221/52 245/222/52 250/222/52 248/221/52
f 245/222/59 246/219/59 249/219/59 250/222/59
f 294/226/52 293/231/52 295/231/52 296/225/52
usemtl M_Noir_Bleuté
f 285/225/51 275/226/51 294/226/51 296/225/51
f 292/228/66 291/227/66 286/229/66 288/230/66
f 278/230/53 290/228/53 292/228/53 288/230/53
f 276/229/56 278/230/56 288/230/56 286/229/56
f 289/227/51 276/229/51 286/229/51 291/227/51
f 277/231/52 275/226/52 290/228/52 289/227/52
f 285/225/52 287/231/52 291/227/52 292/228/52
f 287/231/52 277/231/52 289/227/52 291/227/52
f 275/226/52 285/225/52 292/228/52 290/228/52
f 287/231/50 285/225/50 296/225/50 295/231/50
f 277/231/53 287/231/53 295/231/53 293/231/53
f 275/226/66 277/231/66 293/231/66 294/226/66
usemtl M_Cyan
f 247/220/50 248/221/50 250/222/50 249/219/50
usemtl M_Orange
f 227/203/55 228/204/55 232/204/55 231/203/55
f 238/215/56 235/216/56 239/216/56 241/215/56
f 235/216/58 236/217/58 240/217/58 239/216/58
f 230/214/52 227/203/52 231/203/52 233/214/52
f 228/204/56 229/213/56 234/213/56 232/204/56
f 229/213/57 230/214/57 233/214/57 234/213/57
f 231/203/50 232/204/50 236/217/50 235/216/50
f 232/204/50 234/213/50 237/218/50 236/217/50
f 234/213/50 233/214/50 238/215/50 237/218/50
f 233/214/50 231/203/50 235/216/50 238/215/50
f 236/217/52 237/218/52 242/218/52 240/217/52
f 237/218/59 238/215/59 241/215/59 242/218/59
o SM_Dresser_4Drawer_Body
v -0.207763 0.000000 0.550000
v -0.225000 0.000000 0.532763
v -0.225000 0.000000 -0.532763
v -0.207763 0.000000 -0.550000
v 0.225000 0.000000 0.532763
v 0.207763 0.000000 0.550000
v 0.207763 0.000000 -0.550000
v 0.225000 0.000000 -0.532763
v -0.202323 0.884345 0.548148
v -0.208807 0.900000 0.532763
v -0.207763 0.876668 0.550000
v -0.225000 0.883807 0.532763
v -0.209345 0.877323 -0.548148
v -0.225000 0.883807 -0.532763
v -0.201668 0.882763 -0.550000
v -0.208807 0.900000 -0.532763
v 0.209345 0.877323 0.548148
v 0.225000 0.869689 0.518645
v 0.201668 0.882763 0.550000
v 0.208807 0.900000 0.532763
v 0.202323 0.884345 -0.548148
v 0.208807 0.900000 -0.532763
v 0.207763 0.876668 -0.550000
v 0.225000 0.869689 -0.518645
v -0.225000 0.000000 -0.328043
v -0.225000 0.000000 -0.322075
v -0.225000 0.000000 0.322075
v -0.225000 0.000000 0.328043
v 0.225000 0.000000 0.328043
v 0.225000 0.000000 0.322075
v 0.225000 0.000000 -0.322075
v 0.225000 0.000000 -0.328043
v 0.225000 0.095875 -0.322075
v 0.225000 0.095875 -0.328043
v 0.225000 0.095875 0.328043
v 0.225000 0.095875 0.322075
v -0.225000 0.095875 0.322075
v -0.225000 0.095875 0.328043
v -0.225000 0.095875 -0.328043
v -0.225000 0.095875 -0.322075
v -0.225000 0.742457 -0.532763
v -0.225000 0.748426 -0.532763
v -0.207763 0.748426 -0.550000
v -0.207763 0.742457 -0.550000
v -0.225000 0.748426 0.532763
v -0.225000 0.742457 0.532763
v -0.207763 0.742457 0.550000
v -0.207763 0.748426 0.550000
v 0.111388 0.000000 -0.550000
v 0.117357 0.000000 -0.550000
v -0.117357 0.000000 -0.550000
v -0.111388 0.000000 -0.550000
v -0.117357 0.000000 0.550000
v -0.111388 0.000000 0.550000
v 0.111388 0.000000 0.550000
v 0.117357 0.000000 0.550000
v 0.111388 0.095875 0.550000
v 0.117357 0.095875 0.550000
v 0.119785 0.104271 0.550000
v 0.111388 0.101843 0.550000
v -0.111388 0.095875 0.550000
v -0.111388 0.101843 0.550000
v -0.117357 0.101843 0.550000
v -0.117357 0.095875 0.550000
v -0.111388 0.095875 -0.550000
v -0.117357 0.095875 -0.550000
v -0.117357 0.101843 -0.550000
v -0.111388 0.101843 -0.550000
v 0.111388 0.095875 -0.550000
v 0.111388 0.101843 -0.550000
v 0.119785 0.104271 -0.550000
v 0.117357 0.095875 -0.550000
v 0.117357 0.000000 -0.328043
v 0.117357 0.000000 -0.322075
v 0.111388 0.000000 -0.322075
v 0.111388 0.000000 -0.328043
v -0.117357 0.000000 -0.328043
v -0.111388 0.000000 -0.328043
v -0.111388 0.000000 -0.322075
v -0.117357 0.000000 -0.322075
v 0.117357 0.000000 0.328043
v 0.111388 0.000000 0.328043
v 0.111388 0.000000 0.322075
v 0.117357 0.000000 0.322075
v -0.117357 0.000000 0.328043
v -0.117357 0.000000 0.322075
v -0.111388 0.000000 0.322075
v -0.111388 0.000000 0.328043
v 0.111388 0.719741 0.550000
v 0.119785 0.717313 0.550000
v -0.117357 0.719741 0.550000
v -0.111388 0.719741 0.550000
v -0.111388 0.719741 -0.550000
v -0.117357 0.719741 -0.550000
v 0.119785 0.717313 -0.550000
v 0.111388 0.719741 -0.550000
v 0.225000 0.762545 -0.518645
v 0.225000 0.742457 -0.532763
v 0.207763 0.742457 -0.550000
v 0.209480 0.750854 -0.548283
v 0.225000 0.742457 0.532763
v 0.225000 0.762545 0.518645
v 0.207763 0.742457 0.550000
v 0.209480 0.750854 0.548283
v -0.207763 0.095875 0.550000
v -0.207763 0.101843 0.550000
v -0.225000 0.101843 0.532763
v -0.225000 0.095875 0.532763
v -0.225000 0.095875 -0.532763
v -0.225000 0.101843 -0.532763
v -0.207763 0.101843 -0.550000
v -0.207763 0.095875 -0.550000
v 0.207763 0.095875 -0.550000
v 0.207763 0.104271 -0.550000
v 0.223283 0.104271 -0.534480
v 0.225000 0.095875 -0.532763
v 0.225000 0.095875 0.532763
v 0.223283 0.104271 0.534480
v 0.207763 0.104271 0.550000
v 0.207763 0.095875 0.550000
v -0.207763 0.719741 0.550000
v -0.207763 0.725710 0.550000
v -0.225000 0.725710 0.532763
v -0.225000 0.719741 0.532763
v -0.225000 0.719741 -0.532763
v -0.225000 0.725710 -0.532763
v -0.207763 0.725710 -0.550000
v -0.207763 0.719741 -0.550000
v 0.207763 0.717313 -0.550000
v 0.207763 0.725710 -0.550000
v 0.225000 0.725710 -0.532763
v 0.223283 0.717313 -0.534480
v 0.225000 0.705466 0.518488
v 0.225000 0.725710 0.532763
v 0.207763 0.725710 0.550000
v 0.207763 0.717313 0.550000
v 0.216104 0.095875 -0.328043
v 0.223283 0.565267 -0.534480
v 0.216104 0.095875 -0.322075
v 0.216104 0.095875 0.322075
v 0.216104 0.095875 0.328043
v -0.216104 0.095875 0.328043
v -0.216104 0.095875 0.322075
v -0.216104 0.095875 -0.322075
v -0.216104 0.095875 -0.328043
v 0.111388 0.101843 0.541104
v 0.111388 0.095875 0.541104
v 0.117357 0.095875 0.541104
v 0.117357 0.101843 0.541104
v -0.117357 0.095875 0.541104
v -0.111388 0.095875 0.541104
v -0.111388 0.101843 0.541104
v -0.117357 0.101843 0.541104
v -0.111388 0.101843 -0.541104
v -0.111388 0.095875 -0.541104
v -0.117357 0.095875 -0.541104
v -0.117357 0.101843 -0.541104
v 0.117357 0.095875 -0.541104
v 0.111388 0.095875 -0.541104
v 0.111388 0.101843 -0.541104
v 0.117357 0.101843 -0.541104
v 0.111388 0.008896 -0.328043
v 0.117357 0.008896 -0.328043
v 0.117357 0.008896 -0.322075
v 0.111388 0.008896 -0.322075
v -0.117357 0.008896 -0.322075
v -0.117357 0.008896 -0.328043
v -0.111388 0.008896 -0.328043
v -0.111388 0.008896 -0.322075
v 0.117357 0.008896 0.322075
v 0.117357 0.008896 0.328043
v 0.111388 0.008896 0.328043
v 0.111388 0.008896 0.322075
v -0.111388 0.008896 0.328043
v -0.117357 0.008896 0.328043
v -0.117357 0.008896 0.322075
v -0.111388 0.008896 0.322075
v 0.117357 0.719741 0.541104
v 0.111388 0.719741 0.541104
v -0.111388 0.719741 0.541104
v -0.117357 0.719741 0.541104
v -0.117357 0.719741 -0.541104
v -0.111388 0.719741 -0.541104
v 0.111388 0.719741 -0.541104
v 0.117357 0.719741 -0.541104
v -0.218710 0.006290 0.322075
v -0.218710 0.006290 0.328043
v -0.218710 0.006290 -0.328043
v -0.218710 0.006290 -0.322075
v 0.218710 0.006290 -0.322075
v 0.218710 0.006290 -0.328043
v 0.218710 0.006290 0.328043
v 0.218710 0.006290 0.322075
v -0.117357 0.006290 -0.543710
v -0.111388 0.006290 -0.543710
v 0.111388 0.006290 -0.543710
v 0.117357 0.006290 -0.543710
v -0.204359 0.742457 0.541781
v -0.204359 0.748426 0.541781
v -0.216781 0.748426 0.529359
v -0.216781 0.742457 0.529359
v 0.111388 0.006290 0.543710
v 0.117357 0.006290 0.543710
v -0.117357 0.006290 0.543710
v -0.111388 0.006290 0.543710
v 0.204359 0.742457 0.541781
v 0.204359 0.748426 0.541781
v -0.204359 0.748426 -0.541781
v -0.204359 0.742457 -0.541781
v -0.216781 0.742457 -0.529359
v -0.216781 0.748426 -0.529359
v 0.204359 0.742457 -0.541781
v 0.204359 0.748426 -0.541781
v 0.216781 0.748426 -0.529359
v 0.216781 0.742457 -0.529359
v 0.216781 0.742457 0.529359
v 0.216781 0.748426 0.529359
v -0.216781 0.095875 -0.529359
v -0.216781 0.101843 -0.529359
v -0.204359 0.101843 -0.541781
v -0.204359 0.095875 -0.541781
v 0.204359 0.095875 -0.541781
v 0.204359 0.101843 -0.541781
v 0.216781 0.101843 -0.529359
v 0.216781 0.095875 -0.529359
v 0.216781 0.095875 0.529359
v 0.216781 0.101843 0.529359
v 0.204359 0.101843 0.541781
v 0.204359 0.095875 0.541781
v -0.204359 0.095875 0.541781
v -0.204359 0.101843 0.541781
v -0.216781 0.101843 0.529359
v -0.216781 0.095875 0.529359
v -0.216781 0.719741 -0.529359
v -0.216781 0.725710 -0.529359
v -0.204359 0.725710 -0.541781
v -0.204359 0.719741 -0.541781
v 0.204359 0.719741 -0.541781
v 0.204359 0.725710 -0.541781
v 0.216781 0.725710 -0.529359
v 0.216781 0.719741 -0.529359
v 0.216781 0.719741 0.529359
v 0.216781 0.725710 0.529359
v 0.204359 0.725710 0.541781
v 0.204359 0.719741 0.541781
v -0.204359 0.719741 0.541781
v -0.204359 0.725710 0.541781
v -0.216781 0.725710 0.529359
v -0.216781 0.719741 0.529359
v 0.225000 0.883807 -0.532763
v 0.225000 0.883807 0.532763
v 0.223283 0.750854 -0.534480
v 0.223283 0.750854 0.534480
v 0.206461 0.856745 -0.512266
v 0.206461 0.856745 0.512266
v 0.206461 0.840879 -0.512266
v 0.206461 0.840879 0.512266
v 0.215807 0.869689 -0.518645
v 0.215807 0.869689 0.518645
v 0.215807 0.762545 -0.518645
v 0.215807 0.762545 0.518645
v -0.178735 0.856745 -0.512266
v -0.178735 0.856745 0.512266
v -0.178735 0.840879 -0.512266
v -0.178735 0.840879 0.512266
v 0.223283 0.410792 -0.534480
v 0.223283 0.256318 0.534480
v 0.225000 0.425068 0.518488
v 0.223283 0.256318 -0.534480
v 0.225000 0.705466 0.014276
v 0.225000 0.425068 0.014276
v 0.223283 0.717313 0.534480
v 0.223283 0.410792 0.534480
v 0.225000 0.410792 0.000000
v 0.225000 0.719741 0.000000
v 0.225000 0.565267 0.000000
v 0.215824 0.431829 0.511726
v 0.215824 0.431829 0.021037
v 0.202409 0.698704 0.035290
v 0.215824 0.705466 0.518488
v 0.215824 0.425068 0.518488
v 0.215824 0.425068 0.014276
v 0.215824 0.705466 0.014276
v -0.183715 0.431829 0.511726
v -0.183715 0.431829 0.021037
v 0.225000 0.246292 -0.522738
v 0.225000 0.246292 0.522738
v 0.225000 0.111869 0.522738
v 0.225000 0.111869 -0.522738
v 0.225000 0.709716 -0.010026
v 0.225000 0.575292 -0.010026
v 0.225000 0.575292 -0.522738
v 0.225000 0.709716 -0.522738
v 0.225000 0.555241 -0.522738
v 0.225000 0.555241 -0.010026
v 0.225000 0.420818 -0.010026
v 0.225000 0.420818 -0.522738
v 0.225000 0.400767 0.522738
v 0.225000 0.266343 0.522738
v 0.225000 0.266343 -0.522738
v 0.225000 0.400767 -0.522738
v 0.209307 0.239274 -0.515720
v 0.209307 0.239274 0.515720
v 0.209307 0.118887 -0.515720
v 0.209307 0.118887 0.515720
v 0.209307 0.582311 -0.017044
v 0.209307 0.702698 -0.017044
v 0.209307 0.702698 -0.515720
v 0.209307 0.582310 -0.515720
v 0.209307 0.548223 -0.515720
v 0.209307 0.548223 -0.017044
v 0.209307 0.427836 -0.515720
v 0.209307 0.427836 -0.017044
v 0.209307 0.393749 0.515720
v 0.209307 0.273362 0.515720
v 0.209307 0.273362 -0.515720
v 0.209307 0.393749 -0.515720
v 0.205930 0.880930 0.548283
v -0.205930 0.880930 0.548283
v 0.000000 0.884480 0.548283
v -0.084967 0.809712 -0.543094
v -0.083027 0.815448 -0.543094
v 0.209480 0.812580 -0.548283
v 0.000000 0.876668 -0.550000
v -0.205120 0.815448 -0.543619
v -0.205120 0.809712 -0.543619
v 0.209480 0.812580 0.548283
v -0.218619 0.809712 0.530120
v 0.000000 0.876668 0.550000
v -0.218619 0.815448 0.530120
v -0.205120 0.815448 0.543619
v -0.205120 0.809712 0.543619
v -0.004725 0.748426 -0.550000
v 0.004725 0.748426 -0.550000
v -0.207763 0.809712 -0.550000
v -0.209480 0.817876 -0.548283
v -0.083027 0.815448 -0.550000
v -0.084967 0.809712 -0.550000
v -0.223283 0.817876 -0.534480
v -0.225000 0.809712 -0.532763
v -0.207763 0.809712 0.550000
v -0.209480 0.817876 0.548283
v -0.083027 0.815448 0.550000
v -0.084967 0.809712 0.550000
v -0.223283 0.817876 0.534480
v -0.225000 0.809712 0.532763
v 0.004725 0.748426 0.550000
v -0.004725 0.748426 0.550000
v 0.004725 0.748426 -0.543094
v -0.004725 0.748426 -0.543094
v -0.218619 0.815448 -0.530120
v -0.218619 0.809712 -0.530120
v -0.083027 0.815448 0.543094
v -0.084967 0.809712 0.543094
v -0.004725 0.748426 0.543094
v 0.004725 0.748426 0.543094
v 0.004710 0.748426 0.541781
v -0.004726 0.748426 0.541781
v -0.004724 0.748426 -0.541781
v 0.004725 0.748426 -0.541781
v -0.202323 0.884345 -0.548148
v -0.207763 0.876668 -0.550000
v -0.223419 0.883152 -0.534616
v -0.208152 0.898419 -0.534616
v 0.204716 0.879716 0.550000
v 0.207763 0.876668 0.550000
v 0.223419 0.883152 0.534616
v 0.208152 0.898419 0.534616
v -0.204716 0.879716 0.550000
v -0.201668 0.882763 0.550000
v -0.208152 0.898419 0.534616
v -0.223419 0.883152 0.534616
v 0.209345 0.877323 -0.548148
v 0.201668 0.882763 -0.550000
v 0.208152 0.898419 -0.534616
v 0.223419 0.883152 -0.534616
v 0.000000 0.882763 0.550000
v 0.202323 0.884345 0.548148
v 0.117357 0.719741 -0.550000
v 0.117357 0.101843 -0.550000
v 0.117357 0.101843 0.550000
v 0.117357 0.719741 0.550000
v 0.207763 0.748426 -0.550000
v 0.225000 0.748426 -0.532763
v 0.225000 0.748426 0.532763
v 0.207763 0.748426 0.550000
v 0.225000 0.101843 -0.532763
v 0.225000 0.256318 -0.532763
v 0.207763 0.101843 -0.550000
v 0.225000 0.101843 0.532763
v 0.207763 0.101843 0.550000
v 0.225000 0.719741 -0.532763
v 0.207763 0.719741 -0.550000
v 0.207763 0.719741 0.550000
v 0.225000 0.719741 0.532763
v 0.225000 0.410792 0.532763
v 0.225000 0.256318 0.532763
v 0.225000 0.565267 -0.532763
v 0.207763 0.812580 -0.550000
v 0.207763 0.812580 0.550000
v 0.225000 0.410792 -0.532763
v -0.209345 0.877323 0.548148
v -0.207763 0.815448 0.550000
v -0.225000 0.815448 0.532763
v -0.225000 0.815448 -0.532763
v -0.207763 0.815448 -0.550000
v -0.207866 0.897728 -0.533774
v -0.202037 0.883654 -0.547306
v -0.208649 0.877036 -0.547309
v -0.222723 0.882866 -0.533777
v 0.207865 0.897724 0.533777
v 0.202036 0.883650 0.547308
v 0.208647 0.877035 0.547311
v 0.222721 0.882865 0.533779
v -0.222722 0.882865 0.533778
v -0.208648 0.877035 0.547310
v -0.202036 0.883650 0.547308
v -0.207865 0.897724 0.533777
v 0.222722 0.882866 -0.533778
v 0.208648 0.877036 -0.547310
v 0.202037 0.883654 -0.547306
v 0.207866 0.897728 -0.533774
v 0.207314 0.104271 0.548914
v 0.207314 0.717313 0.548914
v 0.207314 0.717313 -0.548914
v 0.207314 0.104271 -0.548914
v 0.205396 0.880396 0.547503
v -0.205396 0.880396 0.547503
v 0.000000 0.883724 0.547504
v 0.119785 0.717313 -0.548914
v 0.119785 0.104271 -0.548914
v 0.119785 0.104271 0.548914
v 0.119785 0.717313 0.548914
v 0.208718 0.750854 -0.547510
v 0.222521 0.750854 -0.533707
v 0.222521 0.750854 0.533707
v 0.208718 0.750854 0.547510
v 0.222515 0.104271 -0.533712
v 0.222515 0.256318 -0.533712
v 0.222515 0.104271 0.533712
v 0.222515 0.717313 -0.533712
v 0.222515 0.717313 0.533712
v 0.222515 0.410792 0.533712
v 0.222515 0.256318 0.533712
v 0.222515 0.565267 -0.533712
v 0.208718 0.812580 -0.547510
v 0.208718 0.812580 0.547510
v 0.222515 0.410792 -0.533712
v -0.208720 0.817876 0.547508
v -0.222523 0.817876 0.533705
v -0.222523 0.817876 -0.533705
v -0.208720 0.817876 -0.547508
v 0.215807 0.863310 -0.512266
v 0.215807 0.768923 -0.512266
v 0.215807 0.863310 0.512266
v 0.215807 0.768923 0.512266
v -0.188081 0.863310 -0.512266
v -0.188081 0.768923 -0.512266
v -0.188081 0.863310 0.512266
v -0.188081 0.768923 0.512266
v 0.203534 0.853818 -0.513677
v 0.203534 0.843806 -0.513677
v 0.203534 0.853818 0.513677
v 0.203534 0.843806 0.513677
v -0.175808 0.853818 -0.513677
v -0.175808 0.843806 -0.513677
v -0.175808 0.853818 0.513677
v -0.175808 0.843806 0.513677
v 0.206461 0.856745 -0.513677
v 0.206461 0.840879 -0.513677
v 0.206461 0.856745 0.513677
v 0.206461 0.840879 0.513677
v -0.178735 0.856745 -0.513677
v -0.178735 0.840879 -0.513677
v -0.178735 0.856745 0.513677
v -0.178735 0.840879 0.513677
v 0.203534 0.853818 -0.515936
v 0.203534 0.843806 -0.515936
v 0.203534 0.853818 0.515936
v 0.203534 0.843806 0.515936
v -0.175808 0.853818 -0.515936
v -0.175808 0.843806 -0.515936
v -0.175808 0.853818 0.515936
v -0.175808 0.843806 0.515936
v 0.215824 0.552519 0.511726
v 0.215824 0.578014 0.511726
v 0.215824 0.578014 0.021037
v 0.215824 0.552519 0.021037
v -0.183715 0.552519 0.511726
v -0.183715 0.578014 0.511726
v -0.183715 0.552519 0.021037
v -0.183715 0.578014 0.021037
v 0.157155 0.558003 0.021037
v 0.151671 0.552519 0.021037
v 0.162639 0.552519 0.021037
v 0.151671 0.578014 0.021037
v 0.157155 0.572530 0.021037
v 0.162639 0.578014 0.021037
v 0.151671 0.552519 0.511726
v 0.157155 0.558003 0.511726
v 0.162639 0.552519 0.511726
v 0.157155 0.572530 0.511726
v 0.151671 0.578014 0.511726
v 0.162639 0.578014 0.511726
v 0.215824 0.698704 0.511726
v 0.215824 0.698704 0.021037
v -0.183715 0.698704 0.511726
v -0.183715 0.698704 0.021037
v 0.173586 0.698704 0.497473
v 0.176891 0.700032 0.038595
v 0.173586 0.698704 0.035290
v 0.202409 0.698704 0.497473
v 0.176891 0.700032 0.494168
v 0.199104 0.700032 0.038595
v 0.199104 0.700032 0.494168
v 0.202409 0.700032 0.497473
v 0.173586 0.700032 0.497473
v 0.202409 0.700032 0.035290
v 0.173586 0.700032 0.035290
v 0.199104 0.701121 0.494168
v 0.176891 0.701121 0.494168
v 0.199104 0.701121 0.038595
v 0.176891 0.701121 0.038595
v 0.209307 0.111869 -0.522738
v 0.209307 0.246292 -0.522738
v 0.209307 0.246292 0.522738
v 0.209307 0.111869 0.522738
v 0.209307 0.575292 -0.010026
v 0.209307 0.709716 -0.010026
v 0.209307 0.575292 -0.522738
v 0.209307 0.709716 -0.522738
v 0.209307 0.555241 -0.522738
v 0.209307 0.555241 -0.010026
v 0.209307 0.420818 -0.522738
v 0.209307 0.420818 -0.010026
v 0.209307 0.400767 0.522738
v 0.209307 0.266343 0.522738
v 0.209307 0.266343 -0.522738
v 0.209307 0.400767 -0.522738
v -0.180358 0.118887 -0.515720
v -0.180358 0.239274 -0.515720
v -0.180358 0.239274 0.515720
v -0.180358 0.118887 0.515720
v -0.180358 0.582311 -0.017044
v -0.180358 0.702698 -0.017044
v -0.180358 0.582310 -0.515720
v -0.180358 0.702698 -0.515720
v -0.180358 0.548223 -0.515720
v -0.180358 0.548223 -0.017044
v -0.180358 0.427836 -0.515720
v -0.180358 0.427836 -0.017044
v -0.180358 0.393749 0.515720
v -0.180358 0.273362 0.515720
v -0.180358 0.273362 -0.515720
v -0.180358 0.393749 -0.515720
vn 0.7071 0.7071 -0.0000
vn 1.0000 -0.0000 -0.0000
vn 0.7071 -0.0000 -0.7071
vn -0.0000 -1.0000 -0.0000
vn -0.0000 -0.0000 -1.0000
vn -0.0000 -0.0000 1.0000
vn -1.0000 -0.0000 -0.0000
vn -0.0000 1.0000 -0.0000
vn 0.7124 -0.0000 0.7018
vn 0.5457 -0.5455 -0.6361
vn -0.7071 0.7071 -0.0000
vn -0.7071 -0.0000 0.7071
vn -0.5458 0.5454 0.6361
vn -0.7071 -0.0000 -0.7071
vn 0.7071 -0.0000 0.7071
vn 0.7409 -0.0006 -0.6716
vn 0.7414 -0.0006 0.6711
vn 0.9958 -0.0915 -0.0000
vn -0.9958 -0.0915 -0.0000
vn -0.0000 -0.0890 0.9960
vn -0.0000 -0.0890 -0.9960
vn -0.9996 0.0291 -0.0000
vn 0.9996 0.0291 -0.0000
vn 0.0257 -0.9997 -0.0000
vn -0.0257 -0.9997 -0.0000
vn -0.0000 0.0291 -0.9996
vn -0.0000 0.0291 0.9996
vn -0.0000 -0.7705 0.6374
vn 0.6070 0.7947 -0.0000
vn -0.6070 -0.7947 -0.0000
vn 0.0043 -0.0007 -1.0000
vn 0.0043 -0.0007 1.0000
vn -0.5378 0.5378 -0.6492
vn 0.5325 0.5033 0.6805
vn 0.5378 0.5378 0.6492
vn -0.5033 0.5325 0.6805
vn -0.5378 0.5378 0.6492
vn 0.5378 0.5378 -0.6492
vn -0.0000 0.7606 -0.6492
vn 0.0005 0.7344 0.6787
vn -0.0000 0.7606 0.6492
vn 0.7343 -0.0007 -0.6788
vn 0.7343 -0.0007 0.6788
vn 0.5033 0.5325 0.6805
vn -0.5325 0.5033 0.6805
vn -0.0005 0.7344 0.6787
vn 0.7343 0.0015 -0.6788
vn 0.7343 0.0015 0.6788
vn -0.7338 0.0016 -0.6794
vn -0.7341 -0.0014 -0.6790
vn -0.7341 -0.0014 0.6790
vn -0.7338 0.0016 0.6794
vn 0.7018 -0.0000 -0.7124
vn 0.7018 -0.0000 0.7124
vn -0.0000 0.6931 -0.7209
vn -0.0000 0.6966 0.7175
vn -0.4901 0.4901 -0.7209
vn 0.4916 0.4916 0.7188
vn -0.4916 0.4916 0.7188
vn 0.4901 0.4901 -0.7209
vn -0.7001 -0.0000 0.7140
vn -0.7001 -0.0000 -0.7140
vn -0.7426 -0.0006 0.6697
vn 0.5222 0.5310 -0.6674
vn 0.7124 -0.0000 -0.7018
vn 0.7426 0.0008 -0.6697
vn -0.5442 -0.5441 0.6386
vn -0.7414 0.0004 -0.6711
vn 0.7421 0.0008 0.6702
vn -0.5320 0.5227 -0.6661
vn -0.7409 0.0004 0.6716
vn -0.7421 -0.0006 -0.6703
vn 0.5444 -0.5443 0.6382
vn 0.5456 0.5452 0.6365
vn -0.5455 -0.5453 -0.6365
vn -0.0000 0.7730 0.6344
vn 0.5320 0.5227 -0.6661
vn -0.0000 -0.7730 -0.6344
vn -0.5224 0.5313 -0.6670
vn -0.0002 0.7446 -0.6675
vn 0.0002 0.7446 -0.6675
vn 0.7071 -0.7071 -0.0000
vt 0.637197 0.743614
vt 0.620502 0.743614
vt 0.620502 0.506386
vt 0.637197 0.506386
vt 0.375000 0.506386
vt 0.401632 0.506386
vt 0.401632 0.582228
vt 0.375000 0.582228
vt 0.578566 0.487016
vt 0.594329 0.487016
vt 0.595190 0.506386
vt 0.578696 0.506386
vt 0.209421 0.667772
vt 0.290579 0.667772
vt 0.290579 0.750000
vt 0.209421 0.750000
vt 0.293915 0.500000
vt 0.362016 0.500000
vt 0.375000 0.582228
vt 0.293915 0.582228
vt 0.403290 0.334421
vt 0.574928 0.334421
vt 0.574928 0.415579
vt 0.403290 0.415579
vt 0.403290 0.834421
vt 0.574928 0.834421
vt 0.574928 0.915579
vt 0.403290 0.915579
vt 0.375000 0.762984
vt 0.401632 0.762984
vt 0.401632 0.831085
vt 0.375000 0.831085
vt 0.375000 0.167772
vt 0.401632 0.167772
vt 0.401632 0.243614
vt 0.375000 0.243614
vt 0.375000 0.667772
vt 0.401632 0.667772
vt 0.401632 0.743614
vt 0.375000 0.743614
vt 0.594329 0.262984
vt 0.578566 0.487016
vt 0.578566 0.262984
vt 0.375000 0.262984
vt 0.401632 0.262984
vt 0.401632 0.331085
vt 0.375000 0.331085
vt 0.293915 0.667772
vt 0.362016 0.750000
vt 0.293915 0.750000
vt 0.862803 0.506386
vt 0.862802 0.743614
vt 0.608539 0.373872
vt 0.618519 0.375000
vt 0.618519 0.487016
vt 0.608071 0.487016
vt 0.598117 0.488945
vt 0.608163 0.488945
vt 0.403290 0.918915
vt 0.574928 0.918915
vt 0.574928 0.987016
vt 0.403290 0.987016
vt 0.209420 0.583716
vt 0.290579 0.583716
vt 0.290579 0.666284
vt 0.209421 0.666284
vt 0.403290 0.262984
vt 0.574928 0.262984
vt 0.574928 0.331085
vt 0.403290 0.331085
vt 0.620293 0.251263
vt 0.624523 0.262703
vt 0.125000 0.506386
vt 0.137984 0.500000
vt 0.206085 0.500000
vt 0.206085 0.582228
vt 0.125000 0.582228
vt 0.609027 0.261055
vt 0.609773 0.245544
vt 0.375000 0.006386
vt 0.401632 0.006386
vt 0.401632 0.082228
vt 0.375000 0.082228
vt 0.375000 0.418915
vt 0.401632 0.418915
vt 0.401632 0.487016
vt 0.375000 0.487016
vt 0.595190 0.743614
vt 0.578696 0.743614
vt 0.609473 0.243614
vt 0.609456 0.006386
vt 0.620502 0.006386
vt 0.620502 0.243614
vt 0.375000 0.083716
vt 0.401632 0.083716
vt 0.401632 0.166284
vt 0.375000 0.166284
vt 0.209421 0.500000
vt 0.290579 0.500000
vt 0.290579 0.582228
vt 0.209421 0.582228
vt 0.375000 0.583716
vt 0.401632 0.583716
vt 0.401632 0.666284
vt 0.375000 0.666284
vt 0.375000 0.918915
vt 0.401632 0.918915
vt 0.401632 0.987016
vt 0.375000 0.987016
vt 0.125000 0.667772
vt 0.206085 0.667772
vt 0.206085 0.750000
vt 0.137984 0.750000
vt 0.125000 0.743614
vt 0.375000 0.834421
vt 0.401632 0.834421
vt 0.401632 0.915579
vt 0.375000 0.915579
vt 0.598907 0.504456
vt 0.625000 0.243614
vt 0.620502 0.006386
vt 0.625000 0.006386
vt 0.403964 0.745544
vt 0.446199 0.745544
vt 0.620689 0.267070
vt 0.618707 0.261055
vt 0.574928 0.006386
vt 0.403290 0.006386
vt 0.401632 0.262984
vt 0.401632 0.243614
vt 0.401632 0.506386
vt 0.401632 0.487016
vt 0.401632 0.762984
vt 0.401632 0.743614
vt 0.403290 0.243614
vt 0.574928 0.243614
vt 0.609758 0.005750
vt 0.609025 0.000636
vt 0.574254 0.829256
vt 0.403964 0.829256
vt 0.574254 0.504456
vt 0.532018 0.504456
vt 0.618707 0.761055
vt 0.608163 0.761055
vt 0.403964 0.420744
vt 0.574254 0.420744
vt 0.574254 0.762984
vt 0.594329 0.762984
vt 0.594329 0.987016
vt 0.578566 0.987016
vt 0.578566 0.762984
vt 0.375000 0.334421
vt 0.401632 0.334421
vt 0.401632 0.415580
vt 0.375000 0.415579
vt 0.595191 0.006386
vt 0.595190 0.243614
vt 0.578696 0.243614
vt 0.578696 0.006386
vt 0.375000 0.000000
vt 0.401632 0.000000
vt 0.401632 0.006386
vt 0.600895 0.509529
vt 0.618219 0.509529
vt 0.293915 0.583716
vt 0.375000 0.583716
vt 0.293915 0.666284
vt 0.578566 0.762984
vt 0.578696 0.743614
vt 0.595190 0.743614
vt 0.618707 0.488945
vt 0.578566 0.262984
vt 0.578696 0.243614
vt 0.595190 0.243614
vt 0.618519 0.875000
vt 0.618519 0.987016
vt 0.608539 0.987016
vt 0.608539 0.876758
vt 0.618519 0.762984
vt 0.619365 0.765280
vt 0.620212 0.767576
vt 0.620212 0.875000
vt 0.620212 0.982424
vt 0.619365 0.984720
vt 0.578566 0.000000
vt 0.594329 0.000000
vt 0.403290 0.762984
vt 0.403290 0.831085
vt 0.597624 0.487016
vt 0.598612 0.506386
vt 0.598612 0.243614
vt 0.597624 0.262984
vt 0.608539 0.000000
vt 0.608529 0.006386
vt 0.607604 0.000000
vt 0.574928 0.000000
vt 0.125000 0.666284
vt 0.206085 0.666284
vt 0.403290 0.487016
vt 0.403290 0.506386
vt 0.403290 0.743614
vt 0.403290 0.506386
vt 0.206085 0.583716
vt 0.125000 0.583716
vt 0.598612 0.006386
vt 0.597624 0.000000
vt 0.403290 0.000000
vt 0.574928 0.743614
vt 0.574928 0.625000
vt 0.574928 0.506386
vt 0.574928 0.487016
vt 0.574928 0.506386
vt 0.574928 0.762984
vt 0.574928 0.831085
vt 0.403290 0.418915
vt 0.574928 0.418915
vt 0.597624 0.762984
vt 0.597624 0.872418
vt 0.597624 0.877590
vt 0.597624 0.987016
vt 0.598612 0.743614
vt 0.598612 0.506386
vt 0.598612 0.743614
vt 0.598612 0.006386
vt 0.598612 0.243614
vt 0.597624 0.372410
vt 0.597624 0.377590
vt 0.597624 0.487016
vt 0.608539 0.876128
vt 0.608072 0.762984
vt 0.607605 0.262984
vt 0.607604 0.371830
vt 0.597624 0.372453
vt 0.618219 0.740471
vt 0.620502 0.506386
vt 0.600895 0.740471
vt 0.615677 0.510949
vt 0.615677 0.510949
vt 0.617188 0.739051
vt 0.617188 0.510949
vt 0.601926 0.510949
vt 0.601926 0.739051
vt 0.615677 0.739051
vt 0.535559 0.629684
vt 0.569084 0.629684
vt 0.406075 0.508618
vt 0.443415 0.508618
vt 0.572143 0.622768
vt 0.534803 0.622768
vt 0.493074 0.740436
vt 0.570963 0.740436
vt 0.489109 0.743614
vt 0.493074 0.628178
vt 0.489109 0.625000
vt 0.570963 0.628178
vt 0.569085 0.738931
vt 0.535560 0.738931
vt 0.494953 0.629684
vt 0.494953 0.738931
vt 0.528477 0.629684
vt 0.532019 0.625000
vt 0.446199 0.506386
vt 0.446199 0.743614
vt 0.443414 0.741382
vt 0.406075 0.741382
vt 0.532018 0.506386
vt 0.534803 0.508618
vt 0.572143 0.508618
vt 0.529234 0.622768
vt 0.529234 0.508618
vt 0.491894 0.622768
vt 0.489109 0.506386
vt 0.491894 0.508618
vt 0.448984 0.741382
vt 0.486324 0.741382
vt 0.448984 0.508618
vt 0.486324 0.508618
vt 0.607605 0.878170
vt 0.607605 0.987016
vt 0.597624 0.877548
vt 0.618519 0.262984
vt 0.620212 0.267576
vt 0.620212 0.482424
vt 0.608546 0.243614
vt 0.607605 0.262984
vt 0.624523 0.762703
vt 0.624523 0.987297
vt 0.608539 0.873353
vt 0.597624 0.872453
vt 0.608545 0.243614
vt 0.608539 0.262984
vt 0.608539 0.373242
vt 0.608539 0.376647
vt 0.597624 0.377547
vt 0.609473 0.243614
vt 0.608539 0.262984
vt 0.620502 0.250000
vt 0.625000 0.262197
vt 0.619703 0.764365
vt 0.620293 0.751263
vt 0.620502 0.750000
vt 0.625000 0.762197
vt 0.620689 0.982930
vt 0.619703 0.985635
vt 0.620293 0.998737
vt 0.625000 0.987803
vt 0.620502 1.000000
vt 0.620689 0.482930
vt 0.620293 0.498737
vt 0.624523 0.487297
vt 0.625000 0.487803
vt 0.620502 0.500000
vt 0.620678 0.767010
vt 0.620689 0.875000
vt 0.598907 0.745544
vt 0.598117 0.761055
vt 0.403964 0.504456
vt 0.446199 0.504456
vt 0.403964 0.487016
vt 0.403964 0.762984
vt 0.574254 0.487016
vt 0.574254 0.745544
vt 0.489109 0.745544
vt 0.620314 0.504456
vt 0.620314 0.745544
vt 0.489109 0.504456
vt 0.618727 0.988279
vt 0.620314 0.245544
vt 0.620314 0.005750
vt 0.618707 0.000636
vt 0.618519 0.000000
vt 0.603438 0.510949
vt 0.603437 0.739051
vt 0.605695 0.510949
vt 0.613419 0.510949
vt 0.613419 0.510949
vt 0.605695 0.739051
vt 0.613419 0.739051
vt 0.613419 0.739051
vt 0.528478 0.738931
vt 0.535559 0.629684
vt 0.528478 0.738931
vt 0.528477 0.629684
vt 0.534036 0.738931
vt 0.530001 0.738931
vt 0.530001 0.629684
vt 0.534036 0.629684
vt 0.534036 0.629684
vt 0.569084 0.735757
vt 0.569084 0.632857
vt 0.569084 0.735757
vt 0.569085 0.735022
vt 0.569084 0.633593
vt 0.570194 0.621205
vt 0.536753 0.621205
vt 0.484375 0.739820
vt 0.450934 0.739820
vt 0.408024 0.739820
vt 0.408024 0.510180
vt 0.493843 0.621205
vt 0.493843 0.510180
vt 0.441465 0.510180
vt 0.441465 0.739820
vt 0.536753 0.510180
vt 0.570194 0.510180
vt 0.527284 0.621205
vt 0.527284 0.510180
vt 0.450934 0.510180
vt 0.484375 0.510180
s 0
usemtl M_Blanc
f 316/232/67 547/233/67 546/234/67 318/235/67
f 364/252/71 389/253/71 392/254/71 366/255/71
f 356/256/72 385/257/72 388/258/72 358/259/72
f 318/235/74 312/282/74 306/283/74 316/232/74
f 633/284/71 620/285/71 319/286/71 695/287/71
f 396/288/75 619/289/75 742/289/75 730/288/75
f 359/290/72 387/291/72 417/292/72 402/293/72
f 407/298/71 424/299/71 390/300/71 363/301/71
f 659/302/76 660/303/76 703/303/76 706/302/76
f 632/309/74 635/310/74 747/310/74 748/309/74
f 701/321/73 700/322/73 308/323/73 310/324/73
f 548/350/74 396/288/74 730/288/74 731/350/74
f 312/351/77 310/324/77 308/352/77 306/353/77
f 414/354/78 563/355/78 740/355/78 736/354/78
f 657/356/79 309/357/79 705/357/79 704/356/79
f 402/293/78 417/292/78 420/358/78 403/359/78
f 406/366/80 421/367/80 424/299/80 407/298/80
f 641/368/74 638/369/74 745/369/74 746/368/74
f 386/370/68 355/371/68 728/371/68 729/370/68
f 428/372/80 434/373/80 741/373/80 737/372/80
f 313/374/82 623/375/82 743/375/82 709/374/82
f 367/376/68 391/377/68 726/377/68 727/376/68
f 432/378/70 386/370/70 729/370/70 720/378/70
f 393/394/72 320/395/72 554/395/72 556/394/72
f 619/289/83 669/402/83 716/402/83 742/289/83
f 625/406/72 307/407/72 699/408/72 639/409/72
f 307/407/72 625/406/72 662/410/72 661/411/72 315/412/72 673/413/72 666/414/72 665/415/72
f 687/418/70 677/419/70 445/419/70 524/418/70
f 679/420/70 680/421/70 510/421/70 509/420/70
f 407/298/70 363/301/70 453/301/70 516/298/70
f 359/290/70 402/293/70 527/293/70 449/290/70
f 364/252/70 366/255/70 456/255/70 450/252/70
f 420/358/74 417/427/74 542/427/74 545/358/74
f 356/256/70 358/259/70 448/259/70 442/256/70
f 685/430/70 683/431/70 686/432/70 687/418/70 524/418/70 523/432/70 520/433/70 519/430/70
f 424/299/74 421/367/74 530/367/74 533/299/74
f 402/438/70 403/359/70 528/359/70 527/438/70
f 691/439/74 571/440/74 688/441/74 689/442/74 534/442/74 537/443/74 538/439/74 541/444/74 690/444/74
f 678/445/74 690/444/74 541/444/74 474/445/74
f 406/366/73 403/359/73 420/358/73 421/367/73
f 528/359/70 403/359/70 406/366/70 515/366/70
f 388/258/74 385/257/74 475/257/74 476/258/74
f 662/410/72 625/406/72 639/460/72 696/461/72
f 680/453/70 681/454/70 513/454/70 510/453/70
f 392/254/74 389/253/74 479/253/74 480/254/74
f 676/446/70 685/430/70 519/430/70 457/446/70
f 389/253/73 364/252/73 450/252/73 479/253/73
f 363/301/68 390/300/68 478/300/68 453/301/68
f 675/447/73 676/446/73 457/446/73 481/447/73
f 417/292/74 387/291/74 477/291/74 542/292/74
f 366/255/68 392/254/68 480/254/68 456/255/68
f 385/257/68 356/256/68 442/256/68 475/257/68
f 545/358/74 530/367/74 421/367/74 420/358/74
f 677/419/73 678/445/73 474/445/73 445/419/73
f 406/366/70 407/298/70 516/298/70 515/366/70
f 387/291/68 359/290/68 449/290/68 477/291/68
f 390/300/74 424/299/74 533/299/74 478/300/74
f 358/259/73 388/258/73 476/258/73 448/259/73
f 689/442/74 675/447/74 481/447/74 534/442/74
f 314/465/68 320/395/68 546/466/68 547/233/68
f 393/394/68 398/467/68 681/454/68 680/453/68
f 320/395/68 393/394/68 680/453/68 546/466/68
f 398/467/68 314/465/68 547/233/68 681/454/68
f 320/395/70 314/465/70 555/465/70 554/395/70
f 314/465/71 398/467/71 557/467/71 555/465/71
f 398/467/74 393/394/74 556/394/74 557/467/74
f 585/477/72 582/478/72 821/478/72 820/477/72
f 586/479/71 587/480/71 824/480/71 825/479/71
f 564/481/68 429/482/68 691/439/68 692/483/68
f 567/484/68 564/481/68 692/483/68 570/485/68
f 429/482/68 566/486/68 571/440/68 691/439/68
f 567/484/72 566/486/72 579/486/72 578/484/72
f 564/481/74 567/484/74 578/484/74 577/481/74
f 566/486/70 429/482/70 576/482/70 579/486/70
f 429/482/71 564/481/71 577/481/71 576/482/71
f 566/486/68 567/484/68 570/485/68 572/492/68 571/440/68
f 684/493/68 693/494/68 583/495/68 582/478/68
f 693/494/68 686/432/68 584/496/68 583/495/68
f 686/432/68 683/431/68 585/477/68 584/496/68
f 683/431/68 684/493/68 582/478/68 585/477/68
f 571/440/68 572/492/68 587/480/68 586/479/68
f 572/492/68 694/497/68 588/498/68 587/480/68
f 694/497/68 688/443/68 589/499/68 588/498/68
f 688/443/68 571/440/68 586/479/68 589/499/68
f 694/497/68 572/492/68 591/500/68 590/501/68
f 572/492/68 570/485/68 592/502/68 591/500/68
f 570/485/68 697/503/68 593/504/68 592/502/68
f 697/503/68 694/497/68 590/501/68 593/504/68
f 692/483/68 693/494/68 595/505/68 594/506/68
f 693/494/68 684/493/68 596/507/68 595/505/68
f 684/493/68 697/503/68 597/508/68 596/507/68
f 594/506/70 832/506/70 835/508/70 597/508/70
f 590/501/70 591/500/70 829/500/70 828/501/70
f 594/506/71 595/505/71 833/505/71 832/506/71
f 583/495/71 584/496/71 823/496/71 822/495/71
f 593/504/72 590/501/72 828/501/72 830/504/72
f 587/480/74 588/498/74 826/498/74 824/480/74
f 584/496/74 585/477/74 820/477/74 823/496/74
f 591/500/71 592/502/71 831/502/71 829/500/71
f 588/498/72 589/499/72 827/499/72 826/498/72
f 595/505/74 596/507/74 834/507/74 833/505/74
f 592/502/74 593/504/74 830/504/74 831/502/74
f 596/507/72 597/508/72 835/508/72 834/507/72
f 589/499/70 586/479/70 825/479/70 827/499/70
f 570/485/68 692/483/68 594/506/68 597/508/68 697/503/68
f 319/286/71 620/285/71 658/512/71 311/513/71 670/514/71
f 664/517/94 667/518/94 714/518/94 707/517/94
f 696/461/72 639/519/72 643/520/72 682/448/72
f 702/522/71 658/512/71 620/285/71 633/523/71
f 699/424/70 700/322/70 626/322/70 627/424/70
f 633/524/96 630/525/96 645/525/96 618/524/96
f 630/525/71 633/524/71 695/287/71 679/459/71
f 682/448/70 503/448/70 513/452/70 681/454/70
f 700/322/70 701/321/70 647/321/70 626/322/70
f 643/520/96 639/519/96 649/519/96 652/520/96
f 702/522/70 633/523/70 618/523/70 621/522/70
f 639/409/70 699/408/70 627/408/70 649/409/70
f 701/526/70 702/527/70 621/527/70 647/526/70
f 643/520/70 652/520/70 653/449/70 503/448/70 682/448/70
f 656/458/70 645/525/70 630/525/70 679/459/70 509/420/70
f 309/357/99 657/356/99 311/513/99 658/512/99
f 660/303/99 659/302/99 310/528/99 312/529/99
f 313/374/100 614/530/100 661/411/100 662/410/100
f 664/517/101 663/531/101 547/532/101 316/533/101
f 305/534/102 615/535/102 665/415/102 666/414/102
f 668/536/103 667/518/103 306/537/103 308/538/103
f 317/539/104 669/402/104 319/286/104 670/514/104
f 672/540/104 671/541/104 318/542/104 546/543/104
f 657/356/105 317/539/105 670/514/105 311/513/105
f 671/541/105 660/303/105 312/529/105 318/542/105
f 674/544/106 616/545/106 673/413/106 315/412/106
f 667/518/107 664/517/107 316/533/107 306/537/107
f 391/377/71 367/376/71 676/446/71 675/447/71
f 355/371/72 386/370/72 678/445/72 677/419/72
f 396/288/69 548/350/69 680/421/69 679/420/69
f 549/546/81 400/547/81 682/448/81 681/452/81
f 411/548/69 565/549/69 684/493/69 683/433/69
f 410/550/69 411/548/69 683/433/69 685/430/69
f 414/354/81 415/551/81 687/418/81 686/432/81
f 428/372/69 425/552/69 689/442/69 688/441/69
f 432/378/81 568/553/81 691/439/81 690/444/81
f 415/551/72 355/371/72 677/419/72 687/418/72
f 569/554/81 563/355/81 693/494/81 692/483/81
f 367/376/71 410/550/71 685/430/71 676/446/71
f 425/552/71 391/377/71 675/447/71 689/442/71
f 386/370/72 432/378/72 690/444/72 678/445/72
f 434/373/69 428/372/69 688/441/69 694/497/69
f 563/355/81 414/354/81 686/432/81 693/494/81
f 619/289/69 396/288/69 679/420/69 695/287/69
f 400/547/81 623/375/81 696/461/81 682/448/81
f 548/350/108 672/555/108 546/466/108 680/421/108
f 663/556/109 549/546/109 681/452/109 547/233/109
f 562/557/69 434/373/69 694/497/69 697/503/69
f 568/553/81 569/554/81 692/483/81 691/439/81
f 565/549/69 562/557/69 697/503/69 684/493/69
f 614/530/110 674/544/110 315/412/110 661/411/110
f 615/535/111 698/558/111 307/407/111 665/415/111
f 616/545/112 305/534/112 666/414/112 673/413/112
f 669/402/113 619/289/113 695/287/113 319/286/113
f 623/375/114 313/374/114 662/410/114 696/461/114
f 638/369/78 641/368/78 700/322/78 699/424/78
f 635/310/80 632/309/80 702/527/80 701/526/80
f 632/309/115 309/357/115 658/512/115 702/527/115
f 659/559/116 635/310/116 701/526/116 310/324/116
f 641/368/117 668/560/117 308/323/117 700/322/117
f 698/561/118 638/369/118 699/424/118 307/562/118
f 400/547/74 549/546/74 732/546/74 733/547/74
f 309/357/129 632/309/129 748/309/129 705/357/129
f 614/530/130 313/374/130 709/374/130 723/530/130
f 623/375/131 400/547/131 733/547/131 743/375/131
f 565/549/80 411/548/80 734/548/80 735/549/80
f 635/310/132 659/559/132 706/559/132 747/310/132
f 663/531/133 664/517/133 707/517/133 710/531/133
f 672/555/134 548/350/134 731/350/134 715/555/134
f 411/548/74 410/550/74 722/550/74 734/548/74
f 668/560/135 641/368/135 746/368/135 711/560/135
f 615/535/136 305/534/136 713/534/136 724/535/136
f 549/546/137 663/556/137 710/556/137 732/546/137
f 415/551/74 414/354/74 736/354/74 719/551/74
f 638/369/138 698/561/138 712/561/138 745/369/138
f 667/518/139 668/536/139 711/536/139 714/518/139
f 434/373/80 562/557/80 744/557/80 741/373/80
f 425/552/70 428/372/70 737/372/70 721/552/70
f 669/402/140 317/539/140 717/539/140 716/402/140
f 569/554/78 568/553/78 738/553/78 739/554/78
f 568/553/70 432/378/70 720/378/70 738/553/70
f 671/541/141 672/540/141 715/540/141 718/541/141
f 562/557/80 565/549/80 735/549/80 744/557/80
f 355/371/74 415/551/74 719/551/74 728/371/74
f 317/539/142 657/356/142 704/356/142 717/539/142
f 674/544/143 614/530/143 723/530/143 708/544/143
f 563/355/78 569/554/78 739/554/78 740/355/78
f 660/303/144 671/541/144 718/541/144 703/303/144
f 698/558/145 615/535/145 724/535/145 712/558/145
f 410/550/74 367/376/74 727/376/74 722/550/74
f 616/545/146 674/544/146 708/544/146 725/545/146
f 305/534/147 616/545/147 725/545/147 713/534/147
f 391/377/70 425/552/70 721/552/70 726/377/70
f 583/495/70 822/495/70 821/478/70 582/478/70
usemtl M_Noir_Profond
f 627/424/78 626/322/78 624/425/78 628/426/78
f 520/431/84 523/432/84 522/270/84 437/269/84 436/335/84 435/334/84 433/238/84 521/237/84
f 528/359/85 515/366/85 514/266/85 441/265/85 440/327/85 439/326/85 438/313/85 529/312/85
f 442/256/72 448/259/72 449/290/72 527/293/72 526/339/72 446/338/72 447/348/72 443/347/72 444/262/72 525/261/72 524/418/72 445/419/72
f 450/252/71 456/255/71 457/446/71 519/430/71 518/317/71 454/316/71 455/385/71 451/384/71 452/277/71 517/276/71 516/298/71 453/301/71
f 467/279/70 499/281/70 498/246/70 468/245/70 469/296/70 461/295/70 458/331/70 492/330/70 493/248/70 459/251/70 460/396/70 466/398/70
f 470/244/70 501/247/70 500/343/70 471/342/70 472/429/70 462/434/70 463/307/70 490/306/70 491/329/70 464/332/70 465/294/70 473/297/70
f 540/382/86 543/381/86 542/292/86 477/291/86 476/258/86 475/257/86 474/445/86 541/444/86
f 532/274/87 535/273/87 534/442/87 481/447/87 480/254/87 479/253/87 478/300/87 533/299/87
f 439/326/88 482/325/88 483/314/88 438/313/88
f 441/265/88 484/264/88 485/328/88 440/327/88
f 435/334/89 486/333/89 487/239/89 433/238/89
f 437/269/89 488/268/89 489/336/89 436/335/89
f 462/434/90 485/435/90 484/308/90 463/307/90
f 471/342/90 483/341/90 482/428/90 472/429/90
f 486/397/91 460/396/91 459/251/91 487/250/91
f 461/295/70 465/294/70 464/332/70 458/331/70
f 488/268/91 467/279/91 466/398/91 489/336/91
f 468/245/70 470/244/70 473/297/70 469/296/70
f 479/253/71 450/252/71 453/301/71 478/300/71
f 481/447/71 457/446/71 456/255/71 480/254/71
f 475/257/72 442/256/72 445/419/72 474/445/72
f 477/291/72 449/290/72 448/259/72 476/258/72
f 495/437/78 496/436/78 497/387/78 494/417/78
f 451/384/92 491/383/92 490/278/92 452/277/92
f 454/316/92 493/315/92 492/386/92 455/385/92
f 443/347/93 498/346/93 499/263/93 444/262/93
f 446/338/93 500/337/93 501/349/93 447/348/93
f 503/448/72 653/449/72 654/450/72 495/451/72 494/380/72 502/379/72
f 505/272/80 506/405/80 507/422/80 504/423/80
f 509/420/69 510/421/69 511/242/69 508/241/69
f 502/379/81 512/401/81 513/452/81 503/448/81
f 510/453/68 513/454/68 512/319/68 511/242/68
f 496/455/73 507/456/73 506/388/73 497/387/73
f 504/423/71 655/457/71 656/458/71 509/459/71 508/241/71 505/272/71
f 515/366/80 516/298/80 517/360/80 514/361/80
f 519/430/69 520/433/69 521/362/69 518/363/69
f 523/432/81 524/418/81 525/364/81 522/365/81
f 527/438/78 528/359/78 529/393/78 526/392/78
f 531/404/80 532/403/80 533/299/80 530/367/80
f 535/240/69 536/243/69 537/441/69 534/442/69
f 539/400/81 540/399/81 541/444/81 538/439/81
f 543/416/78 544/390/78 545/358/78 542/427/78
f 544/390/73 531/389/73 530/367/73 545/358/73
f 536/243/68 539/320/68 538/439/68 537/443/68
f 621/522/97 618/523/97 617/463/97 622/462/97
f 618/524/71 645/525/71 646/464/71 617/463/71
f 626/322/73 647/321/73 648/521/73 624/425/73
f 647/526/80 621/527/80 622/516/80 648/515/80
f 650/509/72 651/511/72 652/520/72 649/519/72
f 628/510/98 650/509/98 649/409/98 627/408/98
f 655/457/70 646/464/70 645/525/70 656/458/70
f 653/449/70 652/520/70 651/511/70 654/450/70
f 758/565/73 757/566/73 773/566/73 774/565/73
f 761/567/68 762/565/68 778/565/68 777/567/68
f 757/566/72 758/565/72 766/563/72 765/468/72
f 760/568/71 759/569/71 767/474/71 768/564/71
f 762/565/72 761/567/72 769/469/72 770/563/72
f 763/570/71 764/568/71 772/564/71 771/474/71
f 761/567/72 757/566/72 765/468/72 769/469/72
f 758/565/72 762/565/72 770/563/72 766/563/72
f 759/569/71 763/570/71 771/474/71 767/474/71
f 764/568/71 760/568/71 768/564/71 772/564/71
f 760/568/74 764/568/74 780/568/74 776/568/74
f 762/565/74 758/565/74 774/565/74 778/565/74
f 764/568/68 763/570/68 779/570/68 780/568/68
f 759/569/73 760/568/73 776/568/73 775/569/73
f 763/570/70 759/569/70 775/569/70 779/570/70
f 757/566/70 761/567/70 777/567/70 773/566/70
f 809/583/68 806/584/68 819/584/68 817/583/68
f 809/583/70 811/583/70 812/580/70 813/582/70
f 810/584/70 806/584/70 815/581/70 814/581/70
f 806/584/70 809/583/70 813/582/70 815/581/70
f 811/583/70 810/584/70 814/581/70 812/580/70
f 811/583/71 809/583/71 817/583/71 816/583/71
f 810/584/73 811/583/73 816/583/73 818/584/73
f 806/584/72 810/584/72 818/584/72 819/584/72
f 603/585/71 602/586/71 840/586/71 841/585/71
f 610/587/71 611/588/71 849/588/71 848/587/71
f 601/589/74 600/590/74 836/590/74 839/589/74
f 609/591/74 608/592/74 846/592/74 847/591/74
f 598/593/68 600/590/68 820/477/68 821/478/68
f 601/589/68 599/594/68 822/495/68 823/496/68
f 600/590/68 601/589/68 823/496/68 820/477/68
f 602/586/68 603/585/68 825/479/68 824/480/68
f 605/595/68 602/586/68 824/480/68 826/498/68
f 604/596/68 605/595/68 826/498/68 827/499/68
f 607/597/68 606/598/68 828/501/68 829/500/68
f 606/598/68 608/592/68 830/504/68 828/501/68
f 609/591/68 607/597/68 829/500/68 831/502/68
f 608/592/68 609/591/68 831/502/68 830/504/68
f 611/588/68 610/587/68 832/506/68 833/505/68
f 612/599/68 611/588/68 833/505/68 834/507/68
f 613/600/68 612/599/68 834/507/68 835/508/68
f 610/587/68 613/600/68 835/508/68 832/506/68
f 599/594/68 598/593/68 821/478/68 822/495/68
f 603/585/68 604/596/68 827/499/68 825/479/68
f 841/585/68 840/586/68 842/595/68 843/596/68
f 845/597/68 847/591/68 846/592/68 844/598/68
f 848/587/68 849/588/68 850/599/68 851/600/68
f 836/590/68 837/593/68 838/594/68 839/589/68
f 611/588/74 612/599/74 850/599/74 849/588/74
f 602/586/74 605/595/74 842/595/74 840/586/74
f 612/599/72 613/600/72 851/600/72 850/599/72
f 605/595/72 604/596/72 843/596/72 842/595/72
f 613/600/70 610/587/70 848/587/70 851/600/70
f 606/598/70 607/597/70 845/597/70 844/598/70
f 598/593/70 599/594/70 838/594/70 837/593/70
f 608/592/72 606/598/72 844/598/72 846/592/72
f 600/590/72 598/593/72 837/593/72 836/590/72
f 604/596/70 603/585/70 841/585/70 843/596/70
f 607/597/71 609/591/71 847/591/71 845/597/71
f 599/594/71 601/589/71 839/589/71 838/594/71
usemtl M_Noir_Bleuté
f 304/236/68 412/237/68 330/238/68 328/239/68
f 426/240/69 395/241/69 394/242/69 427/243/69
f 384/244/70 378/245/70 351/246/70 350/247/70
f 346/248/70 303/249/70 304/236/70 328/250/70 369/251/70
f 302/260/72 416/261/72 354/262/72 352/263/72
f 321/264/73 335/265/73 405/266/73 299/267/73
f 325/268/68 331/269/68 413/270/68 301/271/68
f 340/272/71 395/241/71 426/273/71 423/274/71
f 300/275/71 408/276/71 362/277/71 347/278/71
f 377/279/70 325/268/70 301/271/70 302/280/70 352/281/70
f 375/294/70 371/295/70 379/296/70 383/297/70
f 299/304/70 300/305/70 347/306/70 373/307/70 321/308/70
f 298/311/73 404/312/73 334/313/73 324/314/73
f 346/315/71 368/316/71 409/317/71 303/318/71
f 397/319/68 430/320/68 427/243/68 394/242/68
f 323/325/73 333/326/73 336/327/73 322/328/73
f 348/329/70 345/330/70 372/331/70 374/332/70
f 327/333/68 329/334/68 332/335/68 326/336/68
f 349/337/72 360/338/72 401/339/72 297/340/72
f 324/341/70 381/342/70 349/343/70 297/344/70 298/345/70
f 351/346/72 353/347/72 357/348/72 350/349/72
f 408/360/80 300/275/80 299/267/80 405/361/80
f 412/362/69 304/236/69 303/318/69 409/363/69
f 416/364/81 302/260/81 301/271/81 413/365/81
f 399/379/72 343/380/72 418/381/72 431/382/72
f 348/383/71 361/384/71 365/385/71 345/386/71
f 342/387/73 337/388/73 422/389/73 419/390/73
f 297/391/78 401/392/78 404/393/78 298/311/78
f 370/396/70 327/397/70 326/336/70 380/398/70
f 399/379/81 431/399/81 430/400/81 397/401/81
f 340/272/80 423/403/80 422/404/80 337/405/80
f 418/416/78 343/417/78 342/387/78 419/390/78
f 378/245/71 384/244/71 470/244/71 468/245/71
f 380/398/72 326/336/72 489/336/72 466/398/72
f 405/266/74 335/265/74 441/265/74 514/266/74
f 325/268/71 377/279/71 467/279/71 488/268/71
f 374/332/72 372/331/72 458/331/72 464/332/72
f 362/277/74 408/276/74 517/276/74 452/277/74
f 371/295/71 375/294/71 465/294/71 461/295/71
f 369/251/72 328/250/72 487/250/72 459/251/72
f 340/272/74 337/405/74 506/405/74 505/272/74
f 401/339/74 360/338/74 446/338/74 526/339/74
f 327/397/71 370/396/71 460/396/71 486/397/71
f 365/385/74 361/384/74 451/384/74 455/385/74
f 343/380/74 399/379/74 502/379/74 494/380/74
f 334/313/74 404/312/74 529/312/74 438/313/74
f 357/348/74 353/347/74 443/347/74 447/348/74
f 351/246/68 378/245/68 468/245/68 498/246/68
f 323/428/72 382/429/72 472/429/72 482/428/72
f 377/279/73 352/281/73 499/281/73 467/279/73
f 418/416/70 419/390/70 544/390/70 543/416/70
f 381/342/71 324/341/71 483/341/71 471/342/71
f 349/343/68 381/342/68 471/342/68 500/343/68
f 321/308/72 373/307/72 463/307/72 484/308/72
f 384/244/73 350/247/73 501/247/73 470/244/73
f 376/434/71 322/435/71 485/435/71 462/434/71
f 350/349/73 357/348/73 447/348/73 501/349/73
f 326/336/72 332/335/72 436/335/72 489/336/72
f 430/400/70 431/399/70 540/399/70 539/400/70
f 360/338/68 349/337/68 500/337/68 446/338/68
f 331/269/71 325/268/71 488/268/71 437/269/71
f 352/263/73 354/262/73 444/262/73 499/263/73
f 328/239/72 330/238/72 433/238/72 487/239/72
f 353/347/68 351/346/68 498/346/68 443/347/68
f 426/240/70 427/243/70 536/243/70 535/240/70
f 329/334/71 327/333/71 486/333/71 435/334/71
f 345/386/68 365/385/68 455/385/68 492/386/68
f 322/328/71 336/327/71 440/327/71 485/328/71
f 368/316/73 346/315/73 493/315/73 454/316/73
f 347/278/68 362/277/68 452/277/68 490/278/68
f 335/265/72 321/264/72 484/264/72 441/265/72
f 361/384/73 348/383/73 491/383/73 451/384/73
f 422/404/70 423/403/70 532/403/70 531/404/70
f 324/314/71 334/313/71 438/313/71 483/314/71
f 342/387/74 343/417/74 494/417/74 497/387/74
f 404/393/74 401/392/74 526/392/74 529/393/74
f 333/326/72 323/325/72 482/325/72 439/326/72
f 336/327/74 333/326/74 439/326/74 440/327/74
f 372/331/68 345/330/68 492/330/68 458/331/68
f 332/335/74 329/334/74 435/334/74 436/335/74
f 346/248/73 369/251/73 459/251/73 493/248/73
f 416/364/74 413/365/74 522/365/74 525/364/74
f 373/307/68 347/306/68 490/306/68 463/307/68
f 348/329/73 374/332/73 464/332/73 491/329/73
f 412/362/74 409/363/74 518/363/74 521/362/74
f 379/296/68 371/295/68 461/295/68 469/296/68
f 322/435/70 376/434/70 382/429/70 323/428/70
f 418/381/70 543/381/70 540/382/70 431/382/70
f 354/262/74 416/261/74 525/261/74 444/262/74
f 394/242/74 395/241/74 508/241/74 511/242/74
f 383/297/72 379/296/72 469/296/72 473/297/72
f 399/379/74 397/401/74 512/401/74 502/379/74
f 413/270/74 331/269/74 437/269/74 522/270/74
f 426/273/70 535/273/70 532/274/70 423/274/70
f 330/238/74 412/237/74 521/237/74 433/238/74
f 397/319/74 394/242/74 511/242/74 512/319/74
f 409/317/74 368/316/74 454/316/74 518/317/74
f 337/388/74 342/387/74 497/387/74 506/388/74
f 419/390/70 422/389/70 531/389/70 544/390/70
f 395/241/74 340/272/74 505/272/74 508/241/74
f 408/360/74 405/361/74 514/361/74 517/360/74
f 375/294/73 383/297/73 473/297/73 465/294/73
f 382/429/68 376/434/68 462/434/68 472/429/68
f 427/243/70 430/320/70 539/320/70 536/243/70
f 370/396/73 380/398/73 466/398/73 460/396/73
f 550/468/70 558/469/70 769/469/70 765/468/70
f 751/470/68 749/471/68 554/395/68 555/465/68
f 750/472/68 752/473/68 557/467/68 556/394/68
f 749/471/68 750/472/68 556/394/68 554/395/68
f 752/473/68 751/470/68 555/465/68 557/467/68
f 755/470/68 756/473/68 754/472/68 753/471/68
f 749/471/70 751/470/70 755/470/70 753/471/70
f 559/474/70 551/474/70 767/474/70 771/474/70
f 752/473/74 750/472/74 754/472/74 756/473/74
f 783/475/72 802/476/72 804/476/72 788/475/72
f 801/487/71 782/488/71 786/488/71 803/487/71
f 574/489/68 573/490/68 577/481/68 578/484/68
f 801/487/68 802/476/68 579/486/68 576/482/68
f 802/476/68 783/475/68 784/491/68 574/489/68 578/484/68 579/486/68
f 550/468/72 552/563/72 750/472/72 749/471/72
f 553/564/71 551/474/71 751/470/71 752/473/71
f 560/563/72 558/469/72 753/471/72 754/472/72
f 559/474/71 561/564/71 756/473/71 755/470/71
f 558/469/72 550/468/72 749/471/72 753/471/72
f 552/563/72 560/563/72 754/472/72 750/472/72
f 551/474/71 559/474/71 755/470/71 751/470/71
f 561/564/71 553/564/71 752/473/71 756/473/71
f 558/469/68 560/563/68 770/563/68 769/469/68
f 552/563/73 550/468/73 765/468/73 766/563/73
f 553/564/74 561/564/74 772/564/74 768/564/74
f 560/563/74 552/563/74 766/563/74 770/563/74
f 561/564/68 559/474/68 771/474/68 772/564/68
f 551/474/73 553/564/73 768/564/73 767/474/73
f 573/490/68 781/571/68 782/488/68 801/487/68 576/482/68 577/481/68
f 581/489/74 580/490/74 573/490/74 574/489/74
f 799/488/74 792/572/74 788/475/74 786/488/74
f 803/487/68 786/488/68 788/475/68 804/476/68
f 785/573/68 580/490/68 581/489/68 787/574/68
f 574/489/72 784/574/72 787/491/72 581/489/72
f 798/575/68 796/576/68 789/577/68 793/578/68
f 781/573/71 573/490/71 580/490/71 785/571/71
f 781/571/71 797/573/71 796/576/71 798/575/71 800/488/71 782/488/71
f 794/475/72 793/579/72 789/577/72 791/574/72 784/491/72 783/475/72
f 789/577/72 790/491/72 791/491/72
f 792/475/72 793/578/72 794/475/72
f 795/573/71 796/573/71 797/573/71
f 798/575/71 799/488/71 800/488/71
f 798/575/67 793/578/67 792/572/67 799/488/67
f 795/573/148 790/491/148 789/577/148 796/576/148
f 787/574/70 790/491/70 795/573/70 785/573/70
f 808/580/70 575/581/70 802/476/70 801/487/70
f 807/581/70 805/582/70 803/487/70 804/476/70
f 575/581/70 807/581/70 804/476/70 802/476/70
f 805/582/70 808/580/70 801/487/70 803/487/70
f 805/582/68 807/581/68 815/581/68 813/582/68
f 807/581/72 575/581/72 814/581/72 815/581/72
f 808/580/71 805/582/71 813/582/71 812/580/71
f 575/581/73 808/580/73 812/580/73 814/581/73
usemtl M_Cyan
f 774/565/72 773/566/72 777/567/72 778/565/72
f 775/569/71 776/568/71 780/568/71 779/570/71
f 817/583/70 819/584/70 818/584/70 816/583/70
usemtl M_Orange
f 338/422/70 339/423/70 504/423/70 507/422/70
f 496/436/70 495/437/70 344/437/70 341/436/70
f 341/455/70 338/456/70 507/456/70 496/455/70
f 339/423/71 631/462/71 634/463/71 629/464/71
f 640/509/72 637/510/72 344/451/72 644/511/72
f 636/515/80 631/516/80 339/423/80 338/422/80
f 344/437/78 637/426/78 642/425/78 341/436/78
f 341/455/73 642/425/73 636/521/73 338/456/73
f 629/464/95 634/463/95 617/463/95 646/464/95
f 640/509/95 644/511/95 651/511/95 650/509/95
f 504/423/70 339/423/70 629/464/70 646/464/70 655/457/70
f 631/516/74 636/515/74 648/515/74 622/516/74
f 634/463/74 631/462/74 622/462/74 617/463/74
f 642/425/74 637/426/74 628/426/74 624/425/74
f 637/510/74 640/509/74 650/509/74 628/510/74
f 636/521/74 642/425/74 624/425/74 648/521/74
f 654/450/70 651/511/70 644/511/70 344/451/70 495/437/70
f 727/376/71 726/377/71 721/552/71 722/550/71
f 719/551/72 720/378/72 729/370/72 728/371/72
f 730/288/119 742/289/119 716/402/119 715/555/119 731/350/119
f 709/374/120 743/375/120 733/547/120 732/546/120 710/556/120
f 737/372/69 741/373/69 744/557/69 735/549/69 734/548/69 722/550/69 721/552/69
f 720/378/81 719/551/81 736/354/81 740/355/81 739/554/81 738/553/81
f 717/539/121 704/356/121 703/303/121 718/541/121
f 713/534/122 725/545/122 708/544/122 707/517/122 714/518/122
f 704/356/123 705/357/123 706/302/123 703/303/123
f 708/544/124 723/530/124 709/374/124 710/531/124 707/517/124
f 712/558/125 724/535/125 713/534/125 714/518/125 711/536/125
f 716/402/126 717/539/126 718/541/126 715/540/126
f 746/368/127 745/369/127 712/561/127 711/560/127
f 705/357/128 748/309/128 747/310/128 706/559/128
