# Blender 4.2.3 LTS
# www.blender.org
mtllib SM_Desk_WallMounted.mtl
o SM_Desk_WallMounted
v 0.049015 0.750000 0.575985
v 0.049015 0.750000 -0.575985
v 0.620311 0.750000 0.575985
v 0.650985 0.750000 0.545311
v 0.650985 0.750000 -0.545311
v 0.620311 0.750000 -0.575985
v 0.053604 0.744000 0.571396
v 0.053604 0.744000 -0.571396
v 0.618410 0.744000 -0.571396
v 0.646396 0.744000 -0.543410
v 0.646396 0.744000 0.543410
v 0.618410 0.744000 0.571396
v 0.049015 0.744000 0.575985
v 0.049015 0.744000 -0.575985
v 0.620311 0.744000 -0.575985
v 0.650985 0.744000 -0.545311
v 0.650985 0.744000 0.545311
v 0.620311 0.744000 0.575985
v 0.147106 0.750000 0.438489
v 0.147106 0.750000 -0.438489
v 0.574996 0.750000 -0.438489
v 0.589485 0.750000 -0.424000
v 0.589485 0.750000 0.424000
v 0.574996 0.750000 0.438489
v 0.016294 0.713273 0.625000
v 0.000000 0.750000 0.614335
v 0.016294 0.713273 -0.625000
v 0.000000 0.750000 -0.614335
v 0.640613 0.713273 -0.625000
v 0.636196 0.750000 -0.614335
v 0.689335 0.750000 -0.561196
v 0.700000 0.713273 -0.565613
v 0.700000 0.713273 0.565613
v 0.689335 0.750000 0.561196
v 0.636196 0.750000 0.614335
v 0.640613 0.713273 0.625000
v 0.000000 0.683664 0.625000
v 0.016294 0.696509 0.625000
v 0.016294 0.696509 -0.625000
v 0.000000 0.683664 -0.625000
v 0.640613 0.683664 -0.625000
v 0.640613 0.696509 -0.625000
v 0.700000 0.696509 -0.565613
v 0.700000 0.683664 -0.565613
v 0.700000 0.683664 0.565613
v 0.700000 0.696509 0.565613
v 0.640613 0.696509 0.625000
v 0.640613 0.683664 0.625000
v 0.006190 0.683664 0.618810
v 0.006190 0.689985 0.618810
v 0.006190 0.689985 -0.618810
v 0.006190 0.683664 -0.618810
v 0.638049 0.683664 -0.618810
v 0.638049 0.689985 -0.618810
v 0.693810 0.689985 -0.563049
v 0.693810 0.683664 -0.563049
v 0.693810 0.683664 0.563049
v 0.693810 0.689985 0.563049
v 0.638049 0.689985 0.618810
v 0.638049 0.683664 0.618810
v 0.000000 0.640000 0.583996
v 0.000000 0.681004 0.625000
v 0.000000 0.681004 -0.625000
v 0.000000 0.640000 -0.583996
v 0.675988 0.656992 0.530627
v 0.683008 0.664012 0.533535
v 0.640613 0.681004 0.625000
v 0.623629 0.640000 0.583996
v 0.623629 0.640000 -0.583996
v 0.640613 0.681004 -0.625000
v 0.683008 0.664012 -0.533535
v 0.675988 0.656992 -0.530627
v 0.053604 0.750000 0.571396
v 0.053604 0.750000 -0.571396
v 0.618410 0.750000 -0.571396
v 0.646396 0.750000 -0.543410
v 0.646396 0.750000 0.543410
v 0.618410 0.750000 0.571396
v 0.150949 0.749091 0.434646
v 0.150949 0.749091 -0.434646
v 0.573404 0.749091 -0.434646
v 0.585641 0.749091 -0.422408
v 0.585641 0.749091 0.422408
v 0.573404 0.749091 0.434646
v 0.147106 0.749091 0.438489
v 0.147106 0.749091 -0.438489
v 0.574996 0.749091 -0.438489
v 0.589485 0.749091 -0.424000
v 0.589485 0.749091 0.424000
v 0.574996 0.749091 0.438489
v 0.150949 0.750000 0.434646
v 0.150949 0.750000 -0.434646
v 0.573404 0.750000 -0.434646
v 0.585641 0.750000 -0.422408
v 0.585641 0.750000 0.422408
v 0.573404 0.750000 0.434646
v 0.700000 0.681004 -0.565613
v 0.658996 0.640000 -0.548629
v 0.658996 0.640000 0.548629
v 0.700000 0.681004 0.565613
v 0.681013 0.663513 -0.531181
v 0.676487 0.658987 -0.529306
v 0.676487 0.658987 0.529306
v 0.681013 0.663513 0.531181
v 0.682260 0.664760 -0.533535
v 0.675240 0.657740 -0.530627
v 0.675240 0.657740 0.530627
v 0.682260 0.664760 0.533535
v 0.680390 0.664136 -0.531181
v 0.675864 0.659611 -0.529306
v 0.675864 0.659611 0.529306
v 0.680390 0.664136 0.531181
v 0.700000 0.713273 0.496905
v 0.700000 0.713273 -0.496905
v 0.700000 0.696509 -0.496905
v 0.700000 0.696509 0.496905
v 0.693810 0.689985 -0.478433
v 0.693810 0.689985 0.478433
v 0.700000 0.739335 -0.565613
v 0.640613 0.739335 -0.625000
v 0.640613 0.739335 0.625000
v 0.700000 0.739335 0.565613
v 0.700000 0.739335 -0.480611
v 0.000000 0.739335 -0.625000
v 0.000000 0.739335 0.625000
v 0.640613 0.689985 -0.625000
v 0.700000 0.689985 -0.565613
v 0.700000 0.689985 0.565613
v 0.640613 0.689985 0.625000
v 0.700000 0.689985 0.480611
v 0.000000 0.689985 0.625000
v 0.000000 0.689985 -0.625000
v 0.700000 0.739335 0.480611
v 0.700000 0.689985 -0.480611
v 0.639598 0.696509 0.622548
v 0.639598 0.713273 0.622548
v 0.639598 0.713273 -0.622548
v 0.639598 0.696509 -0.622548
v 0.697548 0.713273 -0.564598
v 0.697548 0.696509 -0.564598
v 0.697548 0.713273 0.564598
v 0.697548 0.696509 0.564598
v 0.697548 0.713273 -0.496905
v 0.016294 0.713273 -0.622548
v 0.016294 0.713273 0.622548
v 0.697548 0.696509 0.496905
v 0.016294 0.696509 0.622548
v 0.016294 0.696509 -0.622548
v 0.697548 0.713273 0.496905
v 0.697548 0.696509 -0.496905
v 0.000000 0.750000 0.000000
v 0.000000 0.750000 0.307168
v 0.000000 0.640000 0.548593
v 0.000000 0.640000 -0.548565
v 0.444280 0.640000 0.548620
v 0.444280 0.640000 -0.548613
v 0.424816 0.613639 -0.490525
v 0.424816 0.613639 -0.522308
v 0.019464 0.614543 0.502159
v 0.019464 0.614543 0.510653
v 0.019464 0.614543 -0.510621
v 0.019464 0.614543 -0.502127
v 0.424816 0.620536 -0.490531
v 0.424816 0.620536 -0.522314
v 0.424816 0.620536 0.522312
v 0.424816 0.620536 0.490529
v 0.424816 0.613639 0.490527
v 0.424816 0.613639 0.522310
v 0.019464 0.469049 0.502158
v 0.049970 0.463055 0.490527
v 0.019464 0.469049 0.510652
v 0.049970 0.463055 0.522311
v 0.019464 0.469049 -0.502124
v 0.019464 0.469049 -0.510618
v 0.049970 0.463055 -0.522310
v 0.049970 0.463055 -0.490526
v 0.444280 0.640000 -0.490531
v 0.000000 0.640000 -0.490477
v 0.000000 0.640000 -0.522261
v 0.444280 0.640000 -0.522314
v 0.444280 0.640000 0.522312
v 0.000000 0.640000 0.522297
v 0.000000 0.640000 0.490513
v 0.444280 0.640000 0.490529
v 0.444280 0.600482 0.490529
v 0.444280 0.600482 0.522312
v 0.444280 0.600482 -0.522314
v 0.444280 0.600482 -0.490531
v 0.000000 0.443592 0.490513
v 0.053734 0.443592 0.490529
v 0.000000 0.443592 -0.522261
v 0.053734 0.443592 -0.522314
v 0.053734 0.443592 -0.490531
v 0.000000 0.443592 -0.490477
v 0.053734 0.443592 0.522312
v 0.000000 0.443592 0.522297
v 0.019464 0.463055 -0.522261
v 0.019464 0.620536 -0.522268
v 0.019464 0.620536 0.522299
v 0.019464 0.463055 0.522297
v 0.019464 0.463055 0.490513
v 0.019464 0.620536 0.490515
v 0.019464 0.463055 -0.490477
v 0.019464 0.620536 -0.490484
v 0.018467 0.470645 -0.509022
v 0.018467 0.612947 -0.509025
v 0.018467 0.612947 0.509057
v 0.018467 0.470645 0.509056
v 0.018467 0.470645 0.503755
v 0.018467 0.612947 0.503755
v 0.018467 0.470645 -0.503720
v 0.018467 0.612947 -0.503723
v 0.018467 0.469049 -0.510618
v 0.018467 0.614543 -0.510621
v 0.018467 0.614543 0.510653
v 0.018467 0.469049 0.510652
v 0.018467 0.469049 0.502158
v 0.018467 0.614543 0.502159
v 0.018467 0.469049 -0.502124
v 0.018467 0.614543 -0.502127
v 0.017780 0.470645 -0.509022
v 0.017780 0.612947 -0.509025
v 0.017780 0.612947 0.509057
v 0.017780 0.470645 0.509056
v 0.017780 0.470645 0.503755
v 0.017780 0.612947 0.503755
v 0.017780 0.470645 -0.503720
v 0.017780 0.612947 -0.503723
vn -0.0000 0.7071 -0.7071
vn -0.0000 1.0000 -0.0000
vn -0.0000 -0.0000 1.0000
vn -0.0000 -0.0000 -1.0000
vn 0.7071 -0.0000 0.7071
vn 0.7071 -0.0000 -0.7071
vn -0.0000 -1.0000 -0.0000
vn -0.7071 -0.0000 -0.7071
vn 1.0000 -0.0000 -0.0000
vn -0.7071 -0.0000 0.7071
vn -1.0000 -0.0000 -0.0000
vn 0.5000 0.7071 -0.5000
vn 0.5000 0.7071 0.5000
vn 0.5000 -0.7071 -0.5000
vn 0.5000 -0.7071 0.5000
vn -0.0000 -0.7071 0.7071
vn -0.0000 -0.7071 -0.7071
vn 0.7071 -0.7071 -0.0000
vn 0.1988 0.1988 -0.9597
vn 0.1988 0.1988 0.9597
vn 0.1987 0.1987 0.9597
vn 0.1987 0.1987 -0.9597
vn -0.7071 -0.7071 -0.0000
vn 0.7071 0.7071 -0.0000
vn -0.0000 0.7071 0.7071
vn 0.3728 -0.9279 -0.0000
vn -0.3728 0.9279 -0.0000
vn 0.0001 -0.0002 1.0000
vn -0.0001 0.0002 -1.0000
vn -0.0000 0.0001 1.0000
vn -0.0000 -0.0001 -1.0000
vn -0.0001 -0.0001 -1.0000
vn 0.0001 0.0001 1.0000
vn 0.0004 -0.0002 -1.0000
vn -0.0012 0.0006 -1.0000
vn 0.0012 -0.0006 1.0000
vn -0.0004 0.0002 1.0000
vn -0.0002 -0.0000 -1.0000
vn -0.0001 -0.0000 1.0000
vn 0.0001 -0.0000 -1.0000
vn 0.0002 -0.0000 1.0000
vt 0.600762 0.478791
vt 0.600762 0.250000
vt 0.625000 0.250000
vt 0.625000 0.477213
vt 0.527941 0.771209
vt 0.527941 0.738123
vt 0.653461 0.509803
vt 0.857495 0.509803
vt 0.471401 0.250000
vt 0.477654 0.250000
vt 0.477654 0.478791
vt 0.471401 0.478791
vt 0.471401 0.771209
vt 0.477654 0.771209
vt 0.477654 1.000000
vt 0.471401 1.000000
vt 0.471401 0.738123
vt 0.477654 0.738123
vt 0.527941 0.572836
vt 0.527941 0.511877
vt 0.477654 0.511877
vt 0.471401 0.511877
vt 0.527941 0.478791
vt 0.564869 0.677164
vt 0.564869 0.738123
vt 0.564869 0.771209
vt 0.564869 0.994181
vt 0.642505 0.734062
vt 0.653460 0.740197
vt 0.647787 0.747867
vt 0.628809 0.737239
vt 0.642505 0.515938
vt 0.628809 0.512761
vt 0.647787 0.502133
vt 0.654139 0.510721
vt 0.855856 0.510721
vt 0.857495 0.740197
vt 0.855856 0.739279
vt 0.644144 0.516318
vt 0.644144 0.733682
vt 0.654139 0.739279
vt 0.849972 0.735984
vt 0.656576 0.735985
vt 0.875000 0.747867
vt 0.875000 0.502133
vt 0.647787 0.502133
vt 0.625000 0.480531
vt 0.625000 0.510137
vt 0.600762 0.511877
vt 0.600762 0.478791
vt 0.625000 0.739863
vt 0.625000 0.769469
vt 0.600762 0.771209
vt 0.600762 0.738123
vt 0.492047 0.000000
vt 0.600762 0.000000
vt 0.625000 0.002133
vt 0.625000 0.063566
vt 0.625000 0.125000
vt 0.625000 0.247867
vt 0.492047 0.250000
vt 0.492047 0.771209
vt 0.492047 1.000000
vt 0.477654 0.000000
vt 0.492047 0.250000
vt 0.492047 0.478791
vt 0.125000 0.508201
vt 0.347725 0.508201
vt 0.360356 0.515274
vt 0.301517 0.515277
vt 0.125000 0.515287
vt 0.492047 0.478791
vt 0.492047 0.511877
vt 0.492047 0.738123
vt 0.492047 0.771209
vt 0.492047 0.662708
vt 0.492047 0.738123
vt 0.353791 0.500000
vt 0.375000 0.511877
vt 0.347725 0.741799
vt 0.360356 0.734726
vt 0.375000 0.738123
vt 0.353791 0.750000
vt 0.125000 0.741799
vt 0.125000 0.750000
vt 0.125000 0.500000
vt 0.125000 0.571867
vt 0.301517 0.571861
vt 0.301517 0.678141
vt 0.125000 0.678139
vt 0.849972 0.514015
vt 0.656576 0.514016
vt 0.650028 0.517683
vt 0.650028 0.732317
vt 0.657296 0.514988
vt 0.848235 0.514988
vt 0.848235 0.735012
vt 0.651765 0.518086
vt 0.651765 0.731914
vt 0.657296 0.735012
vt 0.425383 0.518293
vt 0.406373 0.518875
vt 0.406373 0.731125
vt 0.425383 0.731707
vt 0.471401 0.738123
vt 0.422007 0.518764
vt 0.409750 0.519139
vt 0.409750 0.730861
vt 0.422007 0.731236
vt 0.492047 0.587292
vt 0.492047 0.587292
vt 0.477654 0.738123
vt 0.600762 0.662708
vt 0.600762 0.587292
vt 0.600762 0.511877
vt 0.628809 0.737239
vt 0.600762 0.738123
vt 0.527941 0.255819
vt 0.564869 0.255819
vt 0.564869 0.511877
vt 0.564869 0.478791
vt 0.564869 0.572836
vt 0.600762 0.771209
vt 0.600762 1.000000
vt 0.527941 0.677164
vt 0.527941 0.994181
vt 0.625000 0.772787
vt 0.875000 0.625000
vt 0.875000 0.686434
vt 0.125000 0.734719
vt 0.301517 0.734724
vt 0.301517 0.700523
vt 0.301517 0.678141
vt 0.301517 0.571861
vt 0.301517 0.549475
vt 0.301517 0.549475
vt 0.125000 0.549485
vt 0.375000 0.008201
vt 0.471401 0.000000
vt 0.375000 0.241799
vt 0.375000 0.234713
vt 0.375000 0.200515
vt 0.375000 0.178134
vt 0.375000 0.071861
vt 0.375000 0.049475
vt 0.375000 0.015281
vt 0.125000 0.700525
vt 0.297022 0.549475
vt 0.247246 0.549478
vt 0.247246 0.571862
vt 0.297022 0.571861
vt 0.297022 0.678141
vt 0.247246 0.678140
vt 0.247246 0.700523
vt 0.297022 0.700523
vt 0.296271 0.549475
vt 0.296271 0.571861
vt 0.296271 0.678141
vt 0.296271 0.700523
vt 0.137140 0.571866
vt 0.137140 0.549484
vt 0.137140 0.700525
vt 0.137140 0.678139
vt 0.169726 0.678139
vt 0.169726 0.549482
vt 0.169726 0.571865
vt 0.169726 0.700525
vt 0.168486 0.567644
vt 0.168486 0.553703
vt 0.138380 0.696304
vt 0.168486 0.696303
vt 0.138380 0.553704
vt 0.138380 0.682360
vt 0.168486 0.682361
vt 0.138380 0.567646
vt 0.168156 0.565025
vt 0.168156 0.556323
vt 0.138710 0.693684
vt 0.168156 0.693683
vt 0.138710 0.556324
vt 0.138710 0.684981
vt 0.168156 0.684981
vt 0.138710 0.565026
s 0
usemtl M_Blanc
f 120/1/1 124/2/1 28/3/1 30/4/1
f 47/5/2 46/6/2 142/6/2 135/5/2
f 6/7/3 2/8/3 14/8/3 15/7/3
f 115/19/2 43/20/2 140/20/2 150/19/2
f 43/20/2 42/23/2 138/23/2 140/20/2
f 113/24/7 33/25/7 141/25/7 149/24/7
f 36/26/7 25/27/7 145/27/7 136/26/7
f 4/28/2 3/29/2 35/30/2 34/31/2
f 6/7/2 5/32/2 31/33/2 30/34/2
f 3/29/8 4/28/8 17/28/8 18/29/8
f 2/8/9 1/37/9 13/37/9 14/8/9
f 1/37/4 3/29/4 18/29/4 13/37/4
f 5/32/10 6/7/10 15/7/10 16/32/10
f 1/37/2 26/44/2 35/30/2 3/29/2
f 28/45/2 2/8/2 6/7/2 30/46/2
f 30/47/12 31/48/12 119/49/12 120/50/12
f 34/51/13 35/52/13 121/53/13 122/54/13
f 131/55/11 125/56/11 26/57/11 152/58/11 151/59/11 28/60/11 124/2/11 132/61/11
f 129/62/7 131/63/7 50/63/7 59/62/7
f 132/65/7 126/66/7 54/66/7 51/65/7
f 131/55/7 132/61/7 51/61/7 50/55/7
f 126/72/7 127/73/7 55/73/7 54/72/7
f 130/76/7 128/77/7 58/77/7 118/76/7
f 128/74/7 129/75/7 59/75/7 58/74/7
f 127/73/7 134/110/7 117/111/7 55/73/7
f 134/110/7 130/76/7 118/76/7 117/111/7
f 133/113/24 123/114/24 119/115/24 31/33/24 34/116/24 122/117/24
f 4/28/11 5/32/11 16/32/11 17/28/11
f 39/118/9 27/119/9 144/119/9 148/118/9
f 134/110/9 123/114/9 133/113/9 130/76/9
f 5/32/2 4/28/2 34/116/2 31/33/2
f 32/120/6 29/121/6 120/50/6 119/49/6
f 36/26/5 33/25/5 122/54/5 121/53/5
f 114/122/9 32/120/9 119/115/9 123/114/9
f 29/121/4 27/119/4 124/2/4 120/1/4
f 25/27/3 36/26/3 121/123/3 125/124/3
f 42/23/6 43/20/6 127/73/6 126/72/6
f 46/6/5 47/5/5 129/75/5 128/74/5
f 116/125/9 46/6/9 128/77/9 130/76/9
f 47/5/3 38/126/3 131/63/3 129/62/3
f 39/118/4 42/23/4 126/66/4 132/65/4
f 38/126/3 25/27/3 125/124/3 131/63/3
f 27/119/4 39/118/4 132/65/4 124/2/4
f 33/25/9 113/24/9 133/113/9 122/117/9
f 43/20/9 115/19/9 134/110/9 127/73/9
f 115/19/9 114/122/9 123/114/9 134/110/9
f 113/24/9 116/125/9 130/76/9 133/113/9
f 114/122/4 115/19/4 150/19/4 143/122/4
f 46/6/2 116/125/2 146/125/2 142/6/2
f 29/121/7 32/120/7 139/120/7 137/121/7
f 116/125/3 113/24/3 149/24/3 146/125/3
f 38/126/2 47/5/2 135/5/2 147/126/2
f 33/25/7 36/26/7 136/26/7 141/25/7
f 42/23/2 39/118/2 148/118/2 138/23/2
f 32/120/7 114/122/7 143/122/7 139/120/7
f 25/27/9 38/126/9 147/126/9 145/27/9
f 27/119/7 29/121/7 137/121/7 144/119/7
f 125/124/25 121/123/25 35/127/25 26/44/25
f 26/44/2 1/37/2 2/8/2 28/45/2 151/128/2 152/129/2
usemtl M_Noir_Profond
f 9/35/4 8/36/4 74/36/4 75/35/4
f 7/38/2 8/36/2 14/8/2 13/37/2
f 9/35/2 10/39/2 16/32/2 15/7/2
f 11/40/2 12/41/2 18/29/2 17/28/2
f 8/36/2 9/35/2 15/7/2 14/8/2
f 12/41/2 7/38/2 13/37/2 18/29/2
f 12/41/5 11/40/5 77/40/5 78/41/5
f 8/36/11 7/38/11 73/38/11 74/36/11
f 7/38/3 12/41/3 78/41/3 73/38/3
f 10/39/6 9/35/6 75/35/6 76/39/6
f 50/55/11 51/61/11 52/10/11 49/64/11
f 54/72/6 55/73/6 56/21/6 53/11/6
f 58/74/5 59/75/5 60/14/5 57/18/5
f 59/62/3 50/63/3 49/15/3 60/14/3
f 51/65/4 54/66/4 53/11/4 52/10/4
f 101/106/18 102/107/18 106/102/18 105/101/18
f 103/108/18 104/109/18 108/104/18 107/103/18
f 102/107/21 101/106/21 109/106/21 110/107/21
f 104/109/22 103/108/22 111/108/22 112/109/22
f 101/106/23 104/109/23 112/109/23 109/106/23
f 104/109/18 101/106/18 105/101/18 108/104/18
f 102/107/18 103/108/18 107/103/18 106/102/18
f 103/108/24 102/107/24 110/107/24 111/108/24
f 117/111/9 118/76/9 58/77/9 57/112/9 56/21/9 55/73/9
f 11/40/9 10/39/9 76/39/9 77/40/9
f 10/39/2 11/40/2 17/28/2 16/32/2
f 211/176/2 205/177/2 221/177/2 227/176/2
f 207/178/4 208/179/4 224/179/4 223/178/4
f 206/180/9 205/177/9 213/169/9 214/172/9
f 208/179/9 207/178/9 215/170/9 216/171/9
f 210/181/9 209/182/9 217/174/9 218/173/9
f 211/176/9 212/183/9 220/175/9 219/168/9
f 209/182/9 208/179/9 216/171/9 217/174/9
f 207/178/9 210/181/9 218/173/9 215/170/9
f 205/177/9 211/176/9 219/168/9 213/169/9
f 212/183/9 206/180/9 214/172/9 220/175/9
f 208/179/2 209/182/2 225/182/2 224/179/2
f 209/182/3 210/181/3 226/181/3 225/182/3
f 205/177/3 206/180/3 222/180/3 221/177/3
f 206/180/7 212/183/7 228/183/7 222/180/7
f 210/181/7 207/178/7 223/178/7 226/181/7
f 212/183/4 211/176/4 227/176/4 228/183/4
usemtl M_Noir_Bleuté
f 63/9/4 40/10/4 41/11/4 70/12/4
f 67/13/3 48/14/3 37/15/3 62/16/3
f 48/14/5 67/13/5 100/17/5 45/18/5
f 44/21/6 97/22/6 70/12/6 41/11/6
f 19/42/4 24/43/4 90/43/4 85/42/4
f 44/21/2 41/11/2 53/11/2 56/21/2
f 41/11/2 40/10/2 52/10/2 53/11/2
f 40/10/2 37/64/2 49/64/2 52/10/2
f 64/67/7 69/68/7 98/69/7 156/70/7 154/71/7
f 48/14/2 45/18/2 57/18/2 60/14/2
f 37/15/2 48/14/2 60/14/2 49/15/2
f 98/69/14 69/68/14 70/78/14 97/79/14
f 68/80/15 99/81/15 100/82/15 67/83/15
f 61/84/16 68/80/16 67/83/16 62/85/16
f 63/86/17 70/78/17 69/68/17 64/67/17
f 178/87/7 177/88/7 184/89/7 183/90/7
f 19/42/2 20/91/2 74/36/2 73/38/2
f 21/92/2 22/93/2 76/39/2 75/35/2
f 23/94/2 24/43/2 78/41/2 77/40/2
f 20/91/2 21/92/2 75/35/2 74/36/2
f 24/43/2 19/42/2 73/38/2 78/41/2
f 81/95/4 80/96/4 92/96/4 93/95/4
f 22/93/10 21/92/10 87/92/10 88/93/10
f 21/92/3 20/91/3 86/91/3 87/92/3
f 24/43/8 23/94/8 89/94/8 90/43/8
f 20/91/9 19/42/9 85/42/9 86/91/9
f 94/98/2 93/95/2 92/96/2 91/97/2 96/100/2 95/99/2
f 84/100/5 83/99/5 95/99/5 96/100/5
f 80/96/11 79/97/11 91/97/11 92/96/11
f 79/97/3 84/100/3 96/100/3 91/97/3
f 82/98/6 81/95/6 93/95/6 94/98/6
f 71/101/18 72/102/18 98/69/18 97/22/18
f 65/103/18 66/104/18 100/105/18 99/81/18
f 66/104/19 65/103/19 107/103/19 108/104/19
f 72/102/20 71/101/20 105/101/20 106/102/20
f 65/103/24 72/102/24 106/102/24 107/103/24
f 66/104/18 71/101/18 97/22/18 100/105/18
f 72/102/18 65/103/18 99/81/18 98/69/18
f 83/99/9 82/98/9 94/98/9 95/99/9
f 23/94/11 22/93/11 88/93/11 89/94/11
f 22/93/2 23/94/2 77/40/2 76/39/2
f 71/101/23 66/104/23 108/104/23 105/101/23
f 45/112/2 44/21/2 56/21/2 57/112/2
f 44/21/9 45/112/9 100/105/9 97/22/9
f 153/130/7 155/131/7 99/81/7 68/80/7 61/84/7
f 99/81/7 155/131/7 181/132/7 184/133/7 177/134/7 180/135/7 156/70/7 98/69/7
f 154/71/7 156/70/7 180/136/7 179/137/7
f 185/133/26 186/132/26 195/132/26 190/133/26
f 61/138/11 62/139/11 37/64/11 40/10/11 63/9/11 64/140/11 154/141/11 179/142/11 178/143/11 183/144/11 182/145/11 153/146/11
f 183/144/11 189/144/11 196/145/11 182/145/11
f 182/147/7 181/132/7 155/131/7 153/130/7
f 158/148/27 175/149/27 176/150/27 157/151/27
f 167/152/27 170/153/27 172/154/27 168/155/27
f 179/142/11 191/142/11 194/143/11 178/143/11
f 184/133/9 181/132/9 186/132/9 185/133/9
f 164/156/11 158/148/11 157/151/11 163/157/11
f 180/135/9 177/134/9 188/134/9 187/135/9
f 193/88/7 194/87/7 191/137/7 192/136/7
f 195/132/7 196/147/7 189/90/7 190/89/7
f 187/135/26 188/134/26 193/134/26 192/135/26
f 166/158/11 167/152/11 168/155/11 165/159/11
f 204/160/28 163/157/28 177/88/28 178/87/28
f 164/156/29 198/161/29 179/137/29 180/136/29
f 199/162/30 165/159/30 181/132/30 182/147/30
f 166/158/31 202/163/31 183/90/31 184/89/31
f 167/152/4 166/158/4 184/89/4 185/89/4
f 165/159/3 168/155/3 186/132/3 181/132/3
f 158/148/32 164/156/32 180/136/32 187/136/32
f 163/157/33 157/151/33 188/88/33 177/88/33
f 201/164/34 170/153/34 190/89/34 189/90/34
f 197/165/35 175/149/35 192/136/35 191/137/35
f 176/150/36 203/166/36 194/87/36 193/88/36
f 172/154/37 200/167/37 196/147/37 195/132/37
f 175/149/29 158/148/29 187/136/29 192/136/29
f 198/161/38 197/165/38 191/137/38 179/137/38
f 168/155/30 172/154/30 195/132/30 186/132/30
f 170/153/31 167/152/31 185/89/31 190/89/31
f 200/167/39 199/162/39 182/147/39 196/147/39
f 157/151/28 176/150/28 193/88/28 188/88/28
f 202/163/40 201/164/40 189/90/40 183/90/40
f 203/166/41 204/160/41 178/87/41 194/87/41
f 170/153/2 201/164/2 200/167/2 172/154/2
f 173/168/2 174/169/2 213/169/2 219/168/2
f 202/163/7 166/158/7 165/159/7 199/162/7
f 175/149/2 197/165/2 203/166/2 176/150/2
f 160/170/4 171/171/4 216/171/4 215/170/4
f 198/161/7 164/156/7 163/157/7 204/160/7
f 161/172/9 174/169/9 197/165/9 198/161/9
f 171/171/9 160/170/9 199/162/9 200/167/9
f 159/173/9 169/174/9 201/164/9 202/163/9
f 173/168/9 162/175/9 204/160/9 203/166/9
f 169/174/9 171/171/9 200/167/9 201/164/9
f 160/170/9 159/173/9 202/163/9 199/162/9
f 174/169/9 173/168/9 203/166/9 197/165/9
f 162/175/9 161/172/9 198/161/9 204/160/9
f 171/171/2 169/174/2 217/174/2 216/171/2
f 169/174/3 159/173/3 218/173/3 217/174/3
f 174/169/3 161/172/3 214/172/3 213/169/3
f 161/172/7 162/175/7 220/175/7 214/172/7
f 159/173/7 160/170/7 215/170/7 218/173/7
f 162/175/4 173/168/4 219/168/4 220/175/4
usemtl M_Cyan
f 79/97/2 80/96/2 86/91/2 85/42/2
f 81/95/2 82/98/2 88/93/2 87/92/2
f 83/99/2 84/100/2 90/43/2 89/94/2
f 80/96/2 81/95/2 87/92/2 86/91/2
f 84/100/2 79/97/2 85/42/2 90/43/2
f 111/108/18 110/107/18 109/106/18 112/109/18
f 82/98/2 83/99/2 89/94/2 88/93/2
f 225/182/9 226/181/9 223/178/9 224/179/9
f 221/177/9 222/180/9 228/183/9 227/176/9
usemtl M_Orange
f 148/118/4 144/119/4 137/121/4 138/23/4
f 135/5/3 136/26/3 145/27/3 147/126/3
f 136/26/5 135/5/5 142/6/5 141/25/5
f 146/125/9 149/24/9 141/25/9 142/6/9
f 139/120/6 140/20/6 138/23/6 137/121/6
f 140/20/9 139/120/9 143/122/9 150/19/9
