# Blender 4.2.3 LTS
# www.blender.org
mtllib SM_Wall_Power_Console.mtl
o SM_Wall_Power_Console
v 0.000000 0.000000 -0.032038
v 0.000000 0.000000 0.032038
v 0.024112 0.215555 -0.032575
v 0.024186 0.215387 -0.031463
v 0.020488 0.219094 -0.031467
v 0.020489 0.219094 -0.032574
v 0.024066 0.016014 -0.042984
v 0.024066 0.015337 -0.044053
v 0.024066 0.011415 -0.032038
v 0.024066 0.010289 -0.032038
v 0.000000 0.015676 -0.055000
v 0.000000 0.015676 0.055000
v 0.024066 0.015337 0.044053
v 0.024066 0.016014 0.042984
v 0.024066 0.011415 0.032038
v 0.024066 0.010289 0.032038
v 0.000000 0.000000 0.047777
v 0.000000 0.007223 0.055000
v 0.000000 0.212777 0.055000
v 0.000000 0.220000 0.047777
v 0.000000 0.007223 -0.055000
v 0.000000 0.000000 -0.047777
v 0.000000 0.220000 -0.047777
v 0.000000 0.212777 -0.055000
v 0.020846 0.000000 0.032038
v 0.025000 0.006074 0.030117
v 0.020846 0.000000 -0.032038
v 0.025000 0.006074 -0.030117
v 0.024992 0.215846 -0.044394
v 0.021465 0.219381 -0.044394
v 0.021465 0.219381 0.044394
v 0.025000 0.215846 0.044394
v 0.025000 0.015676 -0.050846
v 0.020846 0.015676 -0.055000
v 0.020846 0.015676 0.055000
v 0.025000 0.015676 0.050846
v 0.020846 0.220000 0.047777
v 0.020846 0.212777 0.055000
v 0.020846 0.212777 -0.055000
v 0.020846 0.220000 -0.047777
v 0.000000 0.107593 0.055000
v 0.000000 0.112407 0.055000
v 0.000000 0.112407 -0.055000
v 0.000000 0.107593 -0.055000
v 0.025000 0.107593 0.044053
v 0.025000 0.107593 -0.044053
v 0.024361 0.113282 -0.051467
v 0.025000 0.107593 -0.050846
v 0.020846 0.107593 -0.055000
v 0.021485 0.113282 -0.054402
v 0.021465 0.113282 0.054381
v 0.020846 0.107593 0.055000
v 0.025000 0.107593 0.050846
v 0.024358 0.113282 0.051488
v 0.001346 0.111665 -0.053654
v 0.001346 0.107593 -0.053654
v 0.001346 0.108335 0.053654
v 0.001346 0.111665 0.053654
v 0.023654 0.111665 -0.050289
v 0.023654 0.108335 -0.050289
v 0.020289 0.108335 -0.053654
v 0.020289 0.112407 -0.053654
v 0.020289 0.112407 0.053654
v 0.020289 0.107593 0.053654
v 0.023654 0.108335 0.050289
v 0.023654 0.111665 0.050289
v 0.001346 0.112407 -0.053654
v 0.001346 0.108335 -0.053654
v 0.001346 0.112407 0.053654
v 0.001346 0.107593 0.053654
v 0.023654 0.107593 -0.050289
v 0.020289 0.107593 -0.053654
v 0.020289 0.111665 -0.053654
v 0.023654 0.112407 -0.050289
v 0.020289 0.108335 0.053654
v 0.023654 0.107593 0.050289
v 0.023654 0.112407 0.050289
v 0.020289 0.111665 0.053654
v 0.000102 0.111665 -0.054898
v 0.000102 0.108335 -0.054898
v 0.000102 0.108335 0.054898
v 0.000102 0.111665 0.054898
v 0.024898 0.111665 -0.050804
v 0.024898 0.108335 -0.050804
v 0.020804 0.108335 -0.054898
v 0.020804 0.111665 -0.054898
v 0.020804 0.111665 0.054898
v 0.020804 0.108335 0.054898
v 0.024898 0.108335 0.050804
v 0.024898 0.111665 0.050804
v 0.000000 0.219094 -0.032574
v 0.000534 0.220000 0.031468
v 0.000000 0.220000 0.032574
v 0.000534 0.220000 -0.031468
v 0.000000 0.220000 -0.032574
v 0.024999 0.204003 -0.044394
v 0.025000 0.197596 -0.038814
v 0.025000 0.123083 -0.038919
v 0.025000 0.201978 0.043399
v 0.025000 0.204003 0.044394
v 0.025000 0.118491 0.043519
v 0.025000 0.008369 -0.030117
v 0.025000 0.008369 0.030117
v 0.025000 0.016014 -0.042984
v 0.025000 0.015337 -0.044053
v 0.025000 0.016014 0.042984
v 0.025000 0.015337 0.044053
v 0.020846 0.220000 -0.032574
v 0.020846 0.220000 -0.031467
v 0.025000 0.215846 -0.031463
v 0.025000 0.215846 -0.032575
v 0.020846 0.220000 0.031467
v 0.020846 0.220000 0.032574
v 0.025000 0.215846 0.032575
v 0.025000 0.215846 0.031463
v 0.025000 0.201978 -0.050312
v 0.023994 0.204010 -0.051837
v 0.025000 0.118491 -0.050312
v 0.025000 0.201978 0.050312
v 0.024369 0.204000 0.051825
v 0.025000 0.118491 0.050312
v 0.025000 0.102615 -0.044053
v 0.025000 0.101546 -0.042984
v 0.025000 0.101546 0.042984
v 0.025000 0.102615 0.044053
v 0.020488 0.219094 0.031467
v 0.020489 0.219094 0.032574
v 0.024112 0.215555 0.032575
v 0.024186 0.215387 0.031463
v 0.023696 0.203045 -0.051127
v 0.024075 0.201909 -0.050201
v 0.024071 0.118489 -0.050213
v 0.024069 0.117421 -0.051138
v 0.023697 0.117506 0.051123
v 0.024075 0.118566 0.050201
v 0.024071 0.201979 0.050212
v 0.024069 0.203127 0.051143
v 0.024067 0.203070 -0.043509
v 0.024070 0.201887 -0.043384
v 0.024066 0.201978 0.043399
v 0.024066 0.203129 0.043519
v 0.024066 0.101546 0.042984
v 0.024066 0.102615 0.044053
v 0.024066 0.102615 -0.044053
v 0.024066 0.101546 -0.042984
v 0.000014 0.219094 0.032546
v 0.000534 0.219094 0.031468
v 0.000534 0.219094 -0.031468
v 0.025000 0.215846 -0.043519
v 0.020846 0.220000 -0.043519
v 0.020846 0.220000 0.043519
v 0.025000 0.215846 0.043519
v 0.021514 0.212541 -0.054430
v 0.021514 0.219430 -0.047541
v 0.021514 0.219430 0.047541
v 0.021520 0.212541 0.054439
v 0.020846 0.112407 -0.055000
v 0.025000 0.112407 -0.050846
v 0.025000 0.112407 0.050846
v 0.020846 0.112407 0.055000
v 0.025000 0.117422 -0.051224
v 0.024622 0.203126 -0.051224
v 0.025000 0.203126 0.051224
v 0.024622 0.117422 0.051224
v 0.025000 0.203129 -0.043519
v 0.025000 0.203129 0.043519
v 0.021305 0.219256 -0.047471
v 0.024746 0.215739 -0.046005
v 0.024746 0.211016 -0.050734
v 0.021305 0.212469 -0.054256
v 0.021314 0.212467 0.054262
v 0.024746 0.211012 0.050734
v 0.024746 0.215737 0.046007
v 0.021305 0.219256 0.047471
v 0.024739 0.215743 0.044391
v 0.024730 0.215745 -0.044388
v 0.023758 0.204015 -0.051685
v 0.024134 0.204001 0.051672
v 0.021265 0.219184 -0.044398
v 0.021265 0.219184 0.044398
v 0.021291 0.113284 -0.054199
v 0.024167 0.113285 -0.051263
v 0.024159 0.113282 0.051290
v 0.021266 0.113282 0.054183
v 0.024719 0.204016 -0.044379
v 0.024719 0.204012 0.044384
v 0.025000 0.197699 -0.036630
v 0.025000 0.123083 -0.036630
v 0.025000 0.118491 0.032038
v 0.025000 0.199868 -0.024881
v 0.025000 0.194813 -0.029937
v 0.025000 0.202473 -0.032006
v 0.025000 0.199191 -0.027409
v 0.025000 0.197341 -0.029260
v 0.025000 0.194813 0.029937
v 0.025000 0.199868 0.024881
v 0.025000 0.202473 0.032006
v 0.025000 0.197341 0.029260
v 0.025000 0.199191 0.027409
v 0.025000 0.132354 -0.029937
v 0.025000 0.127299 -0.024881
v 0.025000 0.122258 -0.030319
v 0.025000 0.129826 -0.029260
v 0.025000 0.127976 -0.027409
v 0.025000 0.127299 0.024881
v 0.025000 0.132354 0.029937
v 0.025000 0.122258 0.030319
v 0.025000 0.127976 0.027409
v 0.025000 0.129826 0.029260
v 0.020905 0.194589 -0.028233
v 0.020905 0.198165 -0.024657
v 0.020905 0.196459 -0.027732
v 0.020905 0.197664 -0.026527
v 0.020905 0.198165 0.024657
v 0.020905 0.194589 0.028233
v 0.020905 0.197664 0.026527
v 0.020905 0.196459 0.027732
v 0.020905 0.129002 -0.024657
v 0.020905 0.132578 -0.028233
v 0.020905 0.129504 -0.026527
v 0.020905 0.130708 -0.027732
v 0.020905 0.132578 0.028233
v 0.020905 0.129002 0.024657
v 0.020905 0.130708 0.027732
v 0.020905 0.129504 0.026527
v 0.020905 0.199868 -0.024881
v 0.020905 0.199191 -0.027409
v 0.020905 0.197341 -0.029260
v 0.020905 0.194813 -0.029937
v 0.020905 0.127976 -0.027409
v 0.020905 0.127299 -0.024881
v 0.020905 0.129826 -0.029260
v 0.020905 0.132354 -0.029937
v 0.020905 0.194813 0.029937
v 0.020905 0.197341 0.029260
v 0.020905 0.199191 0.027409
v 0.020905 0.199868 0.024881
v 0.020905 0.127299 0.024881
v 0.020905 0.127976 0.027409
v 0.020905 0.129826 0.029260
v 0.020905 0.132354 0.029937
v 0.023626 0.196614 -0.024453
v 0.023626 0.196273 -0.025725
v 0.023626 0.195656 -0.026342
v 0.023626 0.194385 -0.026682
v 0.023626 0.130894 -0.025725
v 0.023626 0.130553 -0.024453
v 0.023626 0.131511 -0.026342
v 0.023626 0.132782 -0.026682
v 0.023626 0.194385 0.026682
v 0.023626 0.195656 0.026342
v 0.023626 0.196273 0.025725
v 0.023626 0.196614 0.024453
v 0.023626 0.130553 0.024453
v 0.023626 0.130894 0.025725
v 0.023626 0.131511 0.026342
v 0.023626 0.132782 0.026682
v 0.023626 0.198165 -0.024657
v 0.023626 0.197664 -0.026527
v 0.023626 0.196459 -0.027732
v 0.023626 0.194589 -0.028233
v 0.023626 0.129504 -0.026527
v 0.023626 0.129002 -0.024657
v 0.023626 0.130708 -0.027732
v 0.023626 0.132578 -0.028233
v 0.023626 0.194589 0.028233
v 0.023626 0.196459 0.027732
v 0.023626 0.197664 0.026527
v 0.023626 0.198165 0.024657
v 0.023626 0.129002 0.024657
v 0.023626 0.129504 0.026527
v 0.023626 0.130708 0.027732
v 0.023626 0.132578 0.028233
v 0.022607 0.195158 -0.024261
v 0.022607 0.194902 -0.025036
v 0.022607 0.194193 -0.025226
v 0.022607 0.132199 -0.024971
v 0.022607 0.132009 -0.024261
v 0.022607 0.132974 -0.025226
v 0.022607 0.194193 0.025226
v 0.022607 0.194968 0.024971
v 0.022607 0.195158 0.024261
v 0.022607 0.132009 0.024261
v 0.022607 0.132199 0.024971
v 0.022607 0.132974 0.025226
v 0.022607 0.196614 -0.024453
v 0.022607 0.196273 -0.025725
v 0.022607 0.195656 -0.026342
v 0.022607 0.194385 -0.026682
v 0.022607 0.130894 -0.025725
v 0.022607 0.130553 -0.024453
v 0.022607 0.131511 -0.026342
v 0.022607 0.132782 -0.026682
v 0.022607 0.194385 0.026682
v 0.022607 0.195656 0.026342
v 0.022607 0.196273 0.025725
v 0.022607 0.196614 0.024453
v 0.022607 0.130553 0.024453
v 0.022607 0.130894 0.025725
v 0.022607 0.131511 0.026342
v 0.022607 0.132782 0.026682
v 0.021661 0.195158 -0.024261
v 0.021661 0.194968 -0.024971
v 0.021661 0.194193 -0.025226
v 0.021661 0.132199 -0.024971
v 0.021661 0.132009 -0.024261
v 0.021661 0.132974 -0.025226
v 0.021661 0.194193 0.025226
v 0.021661 0.194902 0.025036
v 0.021661 0.195158 0.024261
v 0.021661 0.132009 0.024261
v 0.021661 0.132265 0.025036
v 0.021661 0.132974 0.025226
v 0.025000 0.118491 -0.043519
v 0.025000 0.118491 -0.032038
v 0.025000 0.201978 -0.043399
v 0.024595 0.123083 -0.038919
v 0.024595 0.123648 -0.038353
v 0.024595 0.123648 -0.037195
v 0.024595 0.123083 -0.036630
v 0.024595 0.197596 -0.038814
v 0.024595 0.197057 -0.038250
v 0.024595 0.197699 -0.036630
v 0.024595 0.197107 -0.037195
v 0.025000 0.194138 0.032038
v 0.025000 0.179615 0.032038
v 0.025000 0.168091 0.032038
v 0.025000 0.153568 0.032038
v 0.025000 0.153568 0.043502
v 0.025000 0.168091 0.043478
v 0.025000 0.179615 0.043440
v 0.025000 0.194138 0.043416
v 0.026568 0.179615 0.043440
v 0.028178 0.181225 0.041827
v 0.028178 0.192528 0.041809
v 0.026568 0.194138 0.043416
v 0.028178 0.192528 0.033647
v 0.026568 0.194138 0.032038
v 0.026568 0.179615 0.032038
v 0.028178 0.181225 0.033647
v 0.026568 0.168091 0.043478
v 0.028178 0.166481 0.041871
v 0.026568 0.153568 0.043502
v 0.028178 0.155178 0.041890
v 0.028178 0.155178 0.033647
v 0.026568 0.153568 0.032038
v 0.028178 0.166481 0.033647
v 0.026568 0.168091 0.032038
v 0.025000 0.011415 -0.032038
v 0.025000 0.011415 0.032038
v 0.025000 0.101546 0.032038
v 0.025000 0.101546 -0.032038
v 0.025000 0.052700 -0.025022
v 0.025000 0.032033 -0.004355
v 0.025000 0.012467 -0.031679
v 0.025000 0.042366 -0.022253
v 0.025000 0.034802 -0.014689
v 0.025000 0.032033 0.004355
v 0.025000 0.052700 0.025022
v 0.025000 0.012467 0.031679
v 0.025000 0.034802 0.014689
v 0.025000 0.042366 0.022253
v 0.025000 0.080928 -0.004355
v 0.025000 0.060261 -0.025022
v 0.025000 0.100494 -0.031679
v 0.025000 0.078159 -0.014689
v 0.025000 0.070594 -0.022253
v 0.025000 0.060261 0.025022
v 0.025000 0.080928 0.004355
v 0.025000 0.100494 0.031679
v 0.025000 0.070594 0.022253
v 0.025000 0.078159 0.014689
v 0.009223 0.034802 -0.014689
v 0.009223 0.042366 -0.022253
v 0.009223 0.042366 0.022253
v 0.009223 0.034802 0.014689
v 0.009223 0.080928 0.004355
v 0.009223 0.078159 0.014689
v 0.009223 0.070594 0.022253
v 0.009223 0.080928 -0.004355
v 0.009223 0.070594 -0.022253
v 0.009223 0.078159 -0.014689
v 0.009223 0.079544 -0.009522
v 0.009223 0.074377 -0.018471
v 0.009223 0.065428 -0.023638
v 0.009223 0.033417 -0.009522
v 0.009223 0.038584 -0.018471
v 0.009223 0.047533 -0.023638
v 0.009223 0.047533 0.023638
v 0.009223 0.038584 0.018471
v 0.009223 0.033417 0.009522
v 0.009223 0.079544 0.009522
v 0.009223 0.074377 0.018471
v 0.009223 0.065428 0.023638
v 0.009223 0.080928 -0.000000
v 0.009223 0.052700 -0.025022
v 0.009223 0.060261 0.025022
v 0.009223 0.060261 -0.025022
v 0.009223 0.052700 0.025022
v 0.009223 0.060261 -0.004355
v 0.009223 0.060261 0.004355
v 0.009223 0.055197 -0.019077
v 0.009223 0.053335 -0.017215
v 0.009223 0.053137 -0.020928
v 0.009223 0.053335 0.017215
v 0.009223 0.055197 0.019077
v 0.009223 0.053137 0.020928
v 0.009223 0.057764 0.019077
v 0.009223 0.059626 0.017215
v 0.009223 0.059824 0.020928
v 0.009223 0.059626 -0.017215
v 0.009223 0.057764 -0.019077
v 0.009223 0.059824 -0.020928
v 0.009223 0.057764 -0.012376
v 0.009223 0.059626 -0.014238
v 0.009223 0.059773 -0.010520
v 0.009223 0.053335 -0.014238
v 0.009223 0.055197 -0.012376
v 0.009223 0.053188 -0.010520
v 0.009223 0.055197 0.012376
v 0.009223 0.053335 0.014238
v 0.009223 0.053188 0.010520
v 0.009223 0.059626 0.014238
v 0.009223 0.057764 0.012376
v 0.009223 0.059773 0.010520
v 0.003149 0.053335 -0.017215
v 0.003149 0.055197 -0.019077
v 0.003149 0.059626 0.017215
v 0.003149 0.057764 0.019077
v 0.003149 0.057764 -0.019077
v 0.003149 0.059626 -0.017215
v 0.003149 0.055197 0.019077
v 0.003149 0.053335 0.017215
v 0.003149 0.059626 -0.014238
v 0.003149 0.057764 -0.012376
v 0.003149 0.055197 -0.012376
v 0.003149 0.053335 -0.014238
v 0.003149 0.053335 0.014238
v 0.003149 0.055197 0.012376
v 0.003149 0.057764 0.012376
v 0.003149 0.059626 0.014238
v 0.009223 0.032033 0.004355
v 0.009223 0.032033 -0.004355
v 0.009223 0.052700 0.004355
v 0.009223 0.052700 -0.004355
v 0.009223 0.039727 -0.002997
v 0.009223 0.037996 -0.001266
v 0.009223 0.036308 -0.003381
v 0.009223 0.037996 0.001266
v 0.009223 0.039727 0.002997
v 0.009223 0.036308 0.003381
v 0.009223 0.044179 -0.001265
v 0.009223 0.042448 -0.002997
v 0.009223 0.045889 -0.003269
v 0.009223 0.042448 0.002997
v 0.009223 0.044179 0.001266
v 0.009223 0.045889 0.003270
v 0.000000 -0.000968 -0.032038
v 0.000000 -0.000968 0.032038
v 0.000000 -0.000968 -0.048178
v 0.000000 0.006822 -0.055968
v 0.000000 0.006822 0.055968
v 0.000000 -0.000968 0.048178
v 0.000000 0.015676 0.055968
v 0.000000 0.015676 -0.055968
v 0.021247 -0.000968 0.032038
v 0.025968 0.003753 0.032038
v 0.021247 -0.000968 -0.032038
v 0.025968 0.003753 -0.032038
v 0.025965 0.015676 -0.051254
v 0.021247 0.015676 -0.055968
v 0.021247 0.015676 0.055968
v 0.025965 0.015676 0.051254
v 0.021260 0.006824 -0.055964
v 0.025954 0.008766 -0.051275
v 0.025954 0.003725 -0.046234
v 0.021260 -0.000964 -0.048176
v 0.021260 -0.000964 0.048176
v 0.025954 0.003725 0.046234
v 0.025954 0.008766 0.051275
v 0.021260 0.006824 0.055964
v 0.025968 0.015337 0.044053
v 0.025968 0.010289 0.032038
v 0.025968 0.010289 -0.032038
v 0.025968 0.015337 -0.044053
v 0.025000 0.004154 -0.032038
v 0.025000 0.004154 0.032038
v 0.025000 0.010289 0.032038
v 0.025000 0.010289 -0.032038
v 0.024659 0.006761 -0.029430
v 0.024659 0.006761 0.029430
v 0.024659 0.007682 0.029430
v 0.024659 0.007682 -0.029430
v 0.024659 0.006074 -0.030117
v 0.024659 0.006074 0.030117
v 0.024659 0.008369 0.030117
v 0.024659 0.008369 -0.030117
v 0.024419 0.006761 -0.029430
v 0.024419 0.006761 0.029430
v 0.024419 0.007682 0.029430
v 0.024419 0.007682 -0.029430
v 0.019529 0.040476 0.001191
v 0.017723 0.039727 0.002997
v 0.019529 0.039802 0.000518
v 0.017723 0.037996 0.001266
v 0.019529 0.039802 -0.000517
v 0.017723 0.037996 -0.001266
v 0.019529 0.040476 -0.001191
v 0.017723 0.039727 -0.002997
v 0.019529 0.042373 0.000518
v 0.017723 0.044179 0.001266
v 0.019529 0.041700 0.001191
v 0.017723 0.042448 0.002997
v 0.019529 0.041700 -0.001191
v 0.017723 0.042448 -0.002997
v 0.019529 0.042373 -0.000517
v 0.017723 0.044179 -0.001265
v 0.024448 0.123648 -0.038353
v 0.024448 0.123648 -0.037195
v 0.024448 0.197057 -0.038250
v 0.024448 0.197107 -0.037195
vn -0.0000 1.0000 -0.0000
vn -1.0000 -0.0000 -0.0000
vn 0.6789 0.0001 -0.7342
vn 0.0102 0.9988 -0.0484
vn -0.0000 -0.0000 -1.0000
vn 1.0000 -0.0000 -0.0000
vn 0.7071 0.7071 -0.0000
vn 0.0020 0.0011 1.0000
vn -0.0000 -1.0000 -0.0000
vn -0.0000 -0.0000 1.0000
vn 0.6735 -0.7392 -0.0047
vn 0.9993 0.0377 0.0018
vn 0.7069 -0.7074 -0.0005
vn -0.0000 0.7071 -0.7071
vn -0.0000 0.7071 0.7071
vn 0.0102 0.9988 0.0484
vn 0.7071 -0.0000 -0.7071
vn 0.7069 -0.7074 0.0005
vn 0.7071 -0.7071 -0.0000
vn -0.0008 -0.0022 -1.0000
vn 0.6737 -0.7390 0.0047
vn -0.6294 -0.0031 0.7770
vn -0.0000 0.9220 -0.3873
vn -0.0219 -0.0003 0.9998
vn -0.0000 0.9220 0.3873
vn 0.6450 -0.5402 -0.5405
vn -0.6381 -0.0061 -0.7699
vn 0.0448 0.9990 -0.0003
vn 0.7071 -0.0000 0.7071
vn 0.0006 -0.0005 1.0000
vn 0.0001 -0.0000 -1.0000
vn -0.1704 0.6494 0.7411
vn -0.0401 -0.9992 0.0004
vn -0.0000 -0.9219 0.3874
vn -0.0005 -1.0000 -0.0003
vn 0.0977 -0.0003 -0.9952
vn 0.9845 -0.1755 0.0019
vn 0.7031 0.7104 0.0304
vn 0.7031 0.7104 -0.0304
vn 0.9796 0.0022 -0.2009
vn 0.9796 -0.0022 0.2010
vn 0.9882 0.1510 -0.0251
vn 1.0000 0.0011 -0.0006
vn 0.9991 0.0240 0.0343
vn 0.9991 0.0246 -0.0350
vn 0.1042 -0.6531 -0.7500
vn 0.1291 -0.6502 0.7487
vn -0.1123 0.0001 -0.9937
vn -0.2092 0.6431 -0.7367
vn 0.0001 -0.0000 1.0000
vn 0.0979 0.0004 0.9952
vn -0.0000 -0.9219 -0.3874
vn -0.0858 0.9963 0.0016
vn 0.0750 -0.9972 -0.0018
vn -0.1126 -0.0001 0.9936
vn 0.0007 1.0000 -0.0001
vn 0.0006 -0.0005 -1.0000
vn 0.0007 0.0157 -0.9999
vn 0.7075 0.7067 -0.0029
vn 0.6665 -0.0002 -0.7455
vn 0.6744 -0.0004 0.7383
vn 0.6492 0.5378 -0.5378
vn 0.6455 0.5404 0.5398
vn 0.5617 -0.0011 -0.8273
vn 0.6811 0.7321 -0.0093
vn 0.6811 0.7321 0.0093
vn 0.7100 -0.0090 -0.7041
vn 0.7008 -0.0028 0.7134
vn 0.9591 0.2693 -0.0875
vn 0.9501 0.3093 0.0397
vn 1.0000 0.0003 -0.0051
vn 0.9977 -0.0483 -0.0480
vn 0.9991 -0.0305 0.0291
vn 0.6925 -0.0004 0.7214
vn 0.7182 -0.0005 -0.6958
vn 0.6837 0.0002 0.7298
vn 0.7152 0.4943 -0.4941
vn 0.7159 0.4941 0.4933
vn 0.7075 0.7065 -0.0170
vn 0.7076 0.7064 0.0182
vn 0.0335 0.9994 -0.0040
vn 0.0178 0.9998 0.0024
vn 0.0066 1.0000 -0.0065
vn -0.0363 -0.0004 -0.9993
vn 0.6386 -0.5442 0.5442
vn -0.0000 -0.9659 -0.2588
vn -0.0000 -0.9659 0.2588
vn -0.0000 -0.7071 0.7071
vn -0.0000 -0.2588 0.9659
vn -0.0000 0.9659 0.2588
vn -0.0000 0.2588 0.9659
vn -0.0000 -0.2588 -0.9659
vn -0.0000 -0.7071 -0.7071
vn -0.0000 0.9659 -0.2588
vn -0.0000 0.2588 -0.9659
vn -0.0000 0.3131 0.9497
vn -0.0231 -0.2874 -0.9575
vn -0.0231 -0.9575 0.2874
vn 0.0231 -0.9575 -0.2874
vn 0.0231 0.9575 -0.2874
vn 0.0231 -0.2874 0.9575
vn -0.0231 0.2874 -0.9575
vn -0.0000 -0.0014 1.0000
vn -0.0000 -0.9989 0.0470
vn -0.0000 0.0016 1.0000
vn 0.7072 0.7070 -0.0000
vn 0.7071 0.0011 0.7071
vn 0.7072 -0.7070 -0.0000
vn 1.0000 -0.0009 0.0007
vn 0.0002 -0.7071 0.7071
vn 0.0001 -0.0003 1.0000
vn 0.0001 -0.0003 -1.0000
vn 1.0000 -0.0009 -0.0007
vn 0.0002 -0.7071 -0.7071
vn 0.0001 -1.0000 0.0001
vn 0.0001 -1.0000 -0.0001
vn 0.7067 -0.5003 -0.5003
vn 0.7067 -0.5003 0.5003
vn 0.7067 0.0008 0.7075
vn 0.7067 0.0008 -0.7075
vn 0.7071 -0.5000 0.5000
vn 0.7071 0.5000 0.5000
vn 0.7071 0.5000 -0.5000
vn 0.7071 -0.5000 -0.5000
vt 0.875000 0.723785
vt 0.666538 0.723785
vt 0.666538 0.708333
vt 0.666538 0.668615
vt 0.875000 0.668614
vt 0.622774 0.081386
vt 0.622774 0.168614
vt 0.625000 0.168614
vt 0.625000 0.223785
vt 0.607789 0.250000
vt 0.505735 0.250000
vt 0.505735 0.000000
vt 0.607789 0.000000
vt 0.625000 0.026215
vt 0.625000 0.081386
vt 0.507819 0.783108
vt 0.607225 0.783106
vt 0.392428 0.710273
vt 0.392813 0.734925
vt 0.125000 0.666667
vt 0.333461 0.666667
vt 0.497265 0.734925
vt 0.491608 0.710273
vt 0.497265 0.720240
vt 0.392813 0.250000
vt 0.497265 0.250000
vt 0.497265 0.458461
vt 0.392813 0.458461
vt 0.541963 0.517014
vt 0.583036 0.517014
vt 0.583037 0.542101
vt 0.541963 0.541667
vt 0.666539 0.668615
vt 0.615103 0.708333
vt 0.615103 0.668616
vt 0.615103 0.711508
vt 0.658879 0.711508
vt 0.392813 0.515075
vt 0.666538 0.584075
vt 0.869656 0.584073
vt 0.869656 0.665927
vt 0.666538 0.665925
vt 0.584802 0.708333
vt 0.615103 0.668616
vt 0.577698 0.663934
vt 0.547598 0.663934
vt 0.547598 0.663934
vt 0.577698 0.663934
vt 0.333462 0.583333
vt 0.125000 0.583333
vt 0.658879 0.527071
vt 0.658879 0.538492
vt 0.393438 0.543606
vt 0.490403 0.543606
vt 0.490426 0.583333
vt 0.393419 0.583333
vt 0.505735 0.515075
vt 0.540393 0.513703
vt 0.540393 0.736297
vt 0.505735 0.734925
vt 0.491608 0.539727
vt 0.490403 0.706394
vt 0.375000 0.083333
vt 0.375000 0.026215
vt 0.498570 0.250000
vt 0.498570 0.000000
vt 0.875000 0.526215
vt 0.875000 0.581386
vt 0.666539 0.581385
vt 0.666538 0.541667
vt 0.666538 0.526215
vt 0.505735 0.791538
vt 0.607789 0.791538
vt 0.607789 1.000000
vt 0.505735 1.000000
vt 0.379720 0.666667
vt 0.379720 0.717541
vt 0.333461 0.723785
vt 0.333461 0.666667
vt 0.383208 0.000000
vt 0.392813 0.000000
vt 0.497265 0.000000
vt 0.383208 0.250000
vt 0.375000 0.223785
vt 0.375000 0.166667
vt 0.491608 0.539727
vt 0.497265 0.529761
vt 0.490040 0.583799
vt 0.448255 0.592457
vt 0.435590 0.592457
vt 0.393804 0.583799
vt 0.584803 0.541667
vt 0.615103 0.541667
vt 0.615103 0.581384
vt 0.393419 0.666667
vt 0.490426 0.666667
vt 0.393438 0.706394
vt 0.615103 0.585419
vt 0.583333 0.583333
vt 0.582060 0.542101
vt 0.666538 0.581385
vt 0.625000 0.250000
vt 0.625000 0.458461
vt 0.607789 0.458461
vt 0.625000 0.791538
vt 0.625000 1.000000
vt 0.607789 0.791539
vt 0.392428 0.539727
vt 0.497265 0.515075
vt 0.497265 0.458462
vt 0.379720 0.532459
vt 0.379720 0.583333
vt 0.333461 0.583333
vt 0.333461 0.526215
vt 0.666538 0.584075
vt 0.666538 0.665925
vt 0.615103 0.665919
vt 0.615103 0.584081
vt 0.615103 0.584081
vt 0.583333 0.666667
vt 0.615103 0.538491
vt 0.658879 0.722929
vt 0.507819 0.743671
vt 0.586879 0.738479
vt 0.391713 0.666667
vt 0.392276 0.710273
vt 0.392813 0.791538
vt 0.392813 1.000000
vt 0.586886 0.711508
vt 0.392276 0.539727
vt 0.391713 0.583333
vt 0.623560 0.722803
vt 0.607135 0.747821
vt 0.497265 1.000000
vt 0.497265 0.791538
vt 0.584165 0.501461
vt 0.507819 0.506487
vt 0.504430 0.791538
vt 0.504430 1.000000
vt 0.498570 1.000000
vt 0.498570 0.791538
vt 0.504430 0.250000
vt 0.504430 0.000000
vt 0.504430 0.458461
vt 0.505735 0.458461
vt 0.505735 0.458461
vt 0.504430 0.734925
vt 0.504430 0.515075
vt 0.498570 0.734925
vt 0.498570 0.515075
vt 0.498570 0.458462
vt 0.615103 0.664581
vt 0.582060 0.707899
vt 0.383474 0.585831
vt 0.387959 0.585831
vt 0.541963 0.583333
vt 0.541963 0.666667
vt 0.541963 0.708333
vt 0.541963 0.732986
vt 0.491608 0.710273
vt 0.584803 0.708333
vt 0.584795 0.736297
vt 0.583674 0.737500
vt 0.541370 0.740076
vt 0.393419 0.666667
vt 0.541370 0.512500
vt 0.583674 0.509924
vt 0.583037 0.732986
vt 0.584795 0.513703
vt 0.584802 0.541667
vt 0.583037 0.707899
vt 0.607789 0.458462
vt 0.625000 0.082673
vt 0.625000 0.084073
vt 0.625000 0.165927
vt 0.625000 0.167327
vt 0.666538 0.708333
vt 0.607227 0.466892
vt 0.507819 0.466893
vt 0.623560 0.527196
vt 0.607145 0.502193
vt 0.607789 0.500000
vt 0.625000 0.526215
vt 0.625000 0.723785
vt 0.607789 0.750000
vt 0.540393 0.512500
vt 0.586877 0.511434
vt 0.586886 0.538494
vt 0.603690 0.515075
vt 0.615103 0.532459
vt 0.615103 0.717541
vt 0.603690 0.734925
vt 0.547598 0.586066
vt 0.577698 0.586066
vt 0.577698 0.586065
vt 0.544560 0.592894
vt 0.544906 0.590381
vt 0.583316 0.666626
vt 0.582167 0.657360
vt 0.582167 0.592640
vt 0.543130 0.657360
vt 0.543130 0.592640
vt 0.583316 0.583374
vt 0.542918 0.585568
vt 0.542918 0.664432
vt 0.577387 0.666667
vt 0.569321 0.666667
vt 0.555975 0.666667
vt 0.547910 0.666667
vt 0.542918 0.585568
vt 0.582167 0.589353
vt 0.582167 0.586946
vt 0.582167 0.586065
vt 0.579932 0.663934
vt 0.581568 0.663934
vt 0.582167 0.663934
vt 0.545364 0.586066
vt 0.543729 0.586066
vt 0.543130 0.586066
vt 0.543130 0.660647
vt 0.543130 0.663054
vt 0.543130 0.663934
vt 0.581967 0.589353
vt 0.579932 0.586359
vt 0.579932 0.586065
vt 0.543130 0.589353
vt 0.543330 0.589353
vt 0.545364 0.586359
vt 0.579932 0.663641
vt 0.581967 0.660647
vt 0.582167 0.660647
vt 0.543330 0.660647
vt 0.545364 0.663641
vt 0.545364 0.663934
vt 0.580736 0.592894
vt 0.580391 0.590381
vt 0.579233 0.588678
vt 0.577525 0.588170
vt 0.546063 0.588678
vt 0.547771 0.588170
vt 0.577525 0.661830
vt 0.579233 0.661322
vt 0.580391 0.659619
vt 0.580736 0.657106
vt 0.544560 0.657106
vt 0.544906 0.659619
vt 0.546063 0.661322
vt 0.547771 0.661830
vt 0.579089 0.658579
vt 0.578526 0.659408
vt 0.579376 0.593120
vt 0.579089 0.591421
vt 0.578526 0.590592
vt 0.577371 0.590169
vt 0.546208 0.591421
vt 0.545920 0.593120
vt 0.546771 0.590593
vt 0.547926 0.590169
vt 0.577371 0.659831
vt 0.579376 0.656880
vt 0.545920 0.656880
vt 0.546208 0.658579
vt 0.546771 0.659407
vt 0.547926 0.659830
vt 0.547445 0.592325
vt 0.548082 0.592074
vt 0.578081 0.593348
vt 0.577911 0.592411
vt 0.577852 0.592325
vt 0.577215 0.592074
vt 0.547386 0.592411
vt 0.547216 0.593348
vt 0.577215 0.657926
vt 0.577852 0.657675
vt 0.577911 0.657589
vt 0.578081 0.656652
vt 0.547216 0.656652
vt 0.547386 0.657589
vt 0.547445 0.657675
vt 0.548081 0.657926
vt 0.544514 0.558359
vt 0.544514 0.566668
vt 0.580603 0.558740
vt 0.583036 0.542101
vt 0.580660 0.566668
vt 0.544828 0.564616
vt 0.544828 0.560414
vt 0.580304 0.560789
vt 0.580331 0.564616
vt 0.569173 0.708046
vt 0.569321 0.666667
vt 0.547761 0.708272
vt 0.583037 0.707899
vt 0.577239 0.707961
vt 0.555827 0.708187
vt 0.569173 0.708046
vt 0.577239 0.707961
vt 0.555827 0.708187
vt 0.555975 0.666667
vt 0.576472 0.672508
vt 0.576366 0.702129
vt 0.570088 0.702195
vt 0.570194 0.672508
vt 0.548676 0.702421
vt 0.548783 0.672508
vt 0.555060 0.672508
vt 0.554954 0.702355
vt 0.448255 0.592457
vt 0.425271 0.620440
vt 0.434168 0.623074
vt 0.448255 0.657543
vt 0.435590 0.657543
vt 0.448255 0.657543
vt 0.482875 0.619336
vt 0.482875 0.630664
vt 0.482875 0.625000
vt 0.393804 0.583799
vt 0.400969 0.619336
vt 0.400969 0.630664
vt 0.393804 0.666201
vt 0.490040 0.666201
vt 0.418279 0.592457
vt 0.405607 0.592457
vt 0.400969 0.592457
vt 0.400969 0.644103
vt 0.400969 0.653942
vt 0.400969 0.657543
vt 0.482875 0.605896
vt 0.482875 0.596058
vt 0.482875 0.592457
vt 0.465565 0.657543
vt 0.478237 0.657543
vt 0.482875 0.657543
vt 0.482102 0.612616
vt 0.481329 0.605896
vt 0.473447 0.599777
vt 0.465565 0.593657
vt 0.465565 0.592457
vt 0.456910 0.593057
vt 0.400969 0.605896
vt 0.402515 0.605896
vt 0.401742 0.612616
vt 0.418279 0.593657
vt 0.410397 0.599777
vt 0.426935 0.593057
vt 0.418279 0.657543
vt 0.418279 0.656343
vt 0.426935 0.656943
vt 0.402515 0.644103
vt 0.410397 0.650223
vt 0.401742 0.637384
vt 0.482875 0.644103
vt 0.481329 0.644103
vt 0.482102 0.637384
vt 0.465565 0.656343
vt 0.473447 0.650223
vt 0.456910 0.656943
vt 0.448255 0.630664
vt 0.456910 0.656943
vt 0.445248 0.639170
vt 0.445248 0.649037
vt 0.440565 0.594791
vt 0.443279 0.594791
vt 0.448255 0.619336
vt 0.435590 0.619336
vt 0.435590 0.630664
vt 0.438596 0.649037
vt 0.438596 0.639170
vt 0.437660 0.594064
vt 0.438596 0.600963
vt 0.438596 0.610830
vt 0.437901 0.617542
vt 0.443279 0.617002
vt 0.440565 0.617002
vt 0.440565 0.617002
vt 0.443279 0.617002
vt 0.437660 0.655936
vt 0.440565 0.655209
vt 0.443279 0.655209
vt 0.446184 0.655935
vt 0.440565 0.632999
vt 0.443279 0.632998
vt 0.440565 0.632998
vt 0.443279 0.655209
vt 0.445248 0.600963
vt 0.445248 0.610830
vt 0.438596 0.610830
vt 0.445944 0.632458
vt 0.437901 0.632458
vt 0.445944 0.617542
vt 0.437660 0.655935
vt 0.445944 0.617542
vt 0.446184 0.594064
vt 0.438596 0.594791
vt 0.438596 0.655209
vt 0.445248 0.655209
vt 0.445248 0.594791
vt 0.445248 0.617002
vt 0.438596 0.617002
vt 0.438596 0.632999
vt 0.445248 0.632998
vt 0.402391 0.623074
vt 0.402391 0.623074
vt 0.411288 0.620440
vt 0.434168 0.626926
vt 0.434168 0.626926
vt 0.425271 0.629560
vt 0.402391 0.626926
vt 0.411288 0.629560
vt 0.411673 0.624212
vt 0.411673 0.625787
vt 0.434453 0.629782
vt 0.434453 0.620218
vt 0.401988 0.629873
vt 0.401988 0.620127
vt 0.402391 0.620440
vt 0.402391 0.629560
vt 0.434168 0.620440
vt 0.434168 0.629560
vt 0.425270 0.629560
vt 0.434168 0.623074
vt 0.402391 0.623074
vt 0.415133 0.623188
vt 0.421426 0.623188
vt 0.424886 0.624213
vt 0.424886 0.625788
vt 0.421426 0.626812
vt 0.415133 0.626812
vt 0.385164 0.734925
vt 0.125000 0.723785
vt 0.333462 0.723785
vt 0.333461 0.750000
vt 0.125000 0.750000
vt 0.383208 0.791538
vt 0.383208 1.000000
vt 0.383208 0.250000
vt 0.392813 0.458462
vt 0.383208 0.458461
vt 0.385164 0.515075
vt 0.333461 0.526215
vt 0.125000 0.526215
vt 0.125000 0.500000
vt 0.333461 0.500000
vt 0.375000 0.504415
vt 0.375000 0.521799
vt 0.375000 0.728201
vt 0.375000 0.745585
vt 0.383474 0.664169
vt 0.387959 0.664169
vt 0.384817 0.586724
vt 0.386616 0.586724
vt 0.384817 0.663276
vt 0.386616 0.663276
s 0
usemtl M_Blanc
f 20/1/1 37/2/1 151/3/1 113/4/1 93/5/1
f 146/6/2 91/7/2 95/8/2 23/9/2 24/10/2 43/11/2 42/12/2 19/13/2 20/14/2 93/15/2
f 51/16/3 184/16/3 171/17/3 156/17/3
f 53/22/6 36/19/6 107/18/6 125/23/6 45/24/6
f 11/25/5 44/26/5 49/27/5 34/28/5
f 113/33/7 151/3/7 152/34/7 114/35/7
f 32/36/8 31/37/8 180/37/8 175/36/8
f 43/11/9 67/11/9 69/12/9 42/12/9
f 166/43/6 114/44/6 152/34/6
f 154/51/11 30/52/11 179/52/11 167/51/11
f 158/57/12 161/58/12 164/59/12 159/60/12
f 23/67/1 95/68/1 108/69/1 150/70/1 40/71/1
f 160/72/10 38/73/10 19/74/10 42/75/10
f 17/64/2 18/80/2 12/81/2 41/82/2 44/26/2 11/25/2 21/83/2 22/84/2 1/85/2 2/63/2
f 45/24/6 125/23/6 122/86/6 46/87/6
f 165/92/6 149/93/6 111/94/6
f 1/50/9 27/49/9 25/21/9 2/20/9
f 150/70/7 108/101/7 111/94/7 149/93/7
f 23/102/14 40/103/14 39/104/14 24/10/14
f 37/105/15 20/106/15 19/74/15 38/107/15
f 48/109/17 33/38/17 34/28/17 49/110/17
f 25/21/19 27/49/19 486/112/19 487/76/19
f 30/52/20 29/121/20 176/121/20 179/52/20
f 31/37/21 155/122/21 174/122/21 180/37/21
f 54/123/22 120/124/22 178/124/22 183/123/22
f 100/129/24 32/36/24 175/36/24 186/129/24
f 155/132/26 156/133/26 171/133/26 174/132/26
f 160/72/9 42/75/9 69/75/9 63/72/9
f 48/109/1 49/110/1 72/110/1 71/109/1
f 41/134/1 52/135/1 64/135/1 70/134/1
f 117/136/27 47/137/27 182/137/27 177/136/27
f 53/22/1 45/24/1 46/87/1 48/109/1 71/109/1 76/22/1
f 164/59/28 161/58/28 133/58/28 134/59/28
f 52/135/29 35/127/29 36/19/29 53/22/29
f 44/26/1 41/82/1 70/82/1 56/26/1
f 157/145/9 158/57/9 74/57/9 62/145/9
f 52/135/1 53/22/1 76/22/1 64/135/1
f 159/60/9 160/72/9 63/72/9 77/60/9
f 49/27/1 44/26/1 56/26/1 72/27/1
f 158/57/9 159/60/9 77/60/9 74/57/9
f 43/11/9 157/146/9 62/146/9 67/11/9
f 28/154/10 102/155/10 497/155/10 494/154/10
f 107/126/23 488/125/23 16/125/23 13/126/23
f 125/23/9 143/23/9 144/61/9 122/61/9
f 113/33/5 114/35/5 128/35/5 127/33/5
f 125/160/5 107/18/5 13/18/5 143/160/5
f 111/94/10 108/101/10 6/101/10 3/94/10
f 166/161/35 163/162/35 137/162/35 141/161/35
f 163/163/36 164/164/36 134/164/36 137/163/36
f 43/11/5 24/10/5 39/172/5 157/146/5
f 114/44/46 166/43/46 141/43/46 128/44/46
f 108/69/10 95/68/10 91/68/10 6/69/10
f 165/92/47 111/94/47 3/94/47 138/92/47
f 488/125/1 489/131/1 10/131/1 16/125/1
f 105/108/10 122/86/10 144/86/10 8/108/10
f 161/166/51 162/167/51 130/167/51 133/166/51
f 489/131/25 105/130/25 8/130/25 10/131/25
f 162/169/54 165/170/54 138/170/54 130/169/54
f 93/15/58 113/33/58 127/33/58 146/6/58
f 29/121/59 30/52/59 150/70/59 149/93/59
f 31/37/7 32/36/7 152/34/7 151/177/7
f 153/178/60 50/179/60 157/145/60 39/172/60
f 51/16/61 156/17/61 38/73/61 160/72/61
f 154/180/62 153/181/62 39/182/62 40/183/62
f 156/133/63 155/132/63 37/184/63 38/185/63
f 47/137/64 117/136/64 162/167/64 161/186/64 158/57/64
f 155/122/65 31/37/65 151/177/65 37/2/65
f 30/52/66 154/51/66 40/71/66 150/70/66
f 50/179/67 47/137/67 158/57/67 157/145/67
f 54/123/29 51/16/29 160/72/29 159/60/29
f 120/124/68 54/123/68 159/60/68 164/164/68 163/163/68
f 117/187/69 96/188/69 165/170/69 162/169/69
f 100/129/70 120/124/70 163/162/70 166/161/70
f 96/188/71 29/121/71 149/93/71 165/170/71
f 32/36/6 100/129/6 166/161/6 152/34/6
f 50/179/76 153/178/76 170/178/76 181/179/76
f 96/188/81 117/187/81 177/187/81 185/188/81
f 120/124/82 100/129/82 186/129/82 178/124/82
f 47/137/83 50/179/83 181/179/83 182/137/83
f 29/121/84 96/188/84 185/188/84 176/121/84
f 51/16/1 54/123/1 183/123/1 184/16/1
f 153/181/85 154/180/85 167/180/85 170/181/85
f 35/127/10 52/135/10 41/134/10 12/128/10
f 28/154/6 26/448/6 487/76/6 486/112/6
f 103/449/6 102/155/6 489/131/6 488/125/6
f 102/155/6 28/154/6 486/112/6 489/131/6
f 26/448/6 103/449/6 488/125/6 487/76/6
f 26/448/1 28/154/1 494/154/1 495/448/1
f 103/449/5 26/448/5 495/448/5 496/449/5
f 102/155/9 103/449/9 496/449/9 497/155/9
f 46/87/6 122/86/6 105/108/6 33/38/6 48/109/6
usemtl M_Noir_Profond
f 144/61/6 143/23/6 142/62/6 145/54/6
f 68/65/2 56/26/2 70/82/2 57/66/2
f 66/147/6 59/148/6 74/57/6 77/60/6
f 55/142/2 58/143/2 69/12/2 67/11/2
f 61/151/17 60/150/17 71/109/17 72/110/17
f 59/148/17 73/144/17 62/145/17 74/57/17
f 65/149/29 75/141/29 64/135/29 76/22/29
f 78/138/29 66/147/29 77/60/29 63/72/29
f 68/65/5 61/151/5 72/27/5 56/26/5
f 73/144/5 55/142/5 67/11/5 62/146/5
f 60/150/6 65/149/6 76/22/6 71/109/6
f 75/141/10 57/140/10 70/134/10 64/135/10
f 58/139/10 78/138/10 63/72/10 69/75/10
f 135/159/37 134/59/37 133/58/37 132/29/37
f 15/95/6 14/97/6 13/126/6 16/125/6
f 9/56/6 15/165/6 16/125/6 10/131/6
f 7/53/6 9/56/6 10/131/6 8/130/6
f 5/115/38 4/118/38 3/94/38 6/101/38
f 127/33/39 128/35/39 129/117/39 126/116/39
f 131/30/40 132/29/40 133/166/40 130/167/40
f 135/159/41 136/168/41 137/163/41 134/164/41
f 148/40/1 5/39/1 6/69/1 91/68/1
f 139/31/42 131/30/42 130/169/42 138/170/42
f 136/168/43 140/171/43 141/161/43 137/162/43
f 143/160/6 13/18/6 14/97/6 142/62/6
f 140/153/44 129/152/44 128/44/44 141/43/44
f 138/92/45 3/94/45 4/98/45 139/100/45
f 8/108/6 144/86/6 145/54/6 7/53/6
f 126/42/1 147/41/1 146/173/1 127/33/1
f 146/173/1 147/174/1 148/175/1 91/176/1
f 218/196/86 220/197/86 262/197/86 263/196/86
f 211/235/6 213/236/6 227/223/6 226/200/6
f 213/236/6 212/237/6 228/224/6 227/223/6
f 212/237/6 210/238/6 229/194/6 228/224/6
f 220/197/6 218/196/6 231/202/6 230/227/6
f 221/239/6 220/197/6 230/227/6 232/228/6
f 219/240/6 221/239/6 232/228/6 233/193/6
f 215/241/6 217/242/6 235/229/6 234/48/6
f 217/242/6 216/243/6 236/230/6 235/229/6
f 216/243/6 214/244/6 237/199/6 236/230/6
f 223/245/6 225/246/6 239/232/6 238/201/6
f 225/246/6 224/247/6 240/233/6 239/232/6
f 224/247/6 222/248/6 241/46/6 240/233/6
f 214/244/6 211/235/6 226/200/6 237/199/6
f 210/238/6 219/240/6 233/193/6 229/194/6
f 222/248/6 215/241/6 234/48/6 241/46/6
f 218/196/6 223/245/6 238/201/6 231/202/6
f 222/248/89 224/247/89 272/247/89 273/248/89
f 220/197/93 221/239/93 264/239/93 262/197/93
f 211/235/1 214/244/1 269/244/1 258/235/1
f 221/239/92 219/240/92 265/240/92 264/239/92
f 219/240/5 210/238/5 261/238/5 265/240/5
f 217/242/91 215/241/91 266/241/91 267/242/91
f 215/241/10 222/248/10 273/248/10 266/241/10
f 216/243/15 217/242/15 267/242/15 268/243/15
f 213/236/94 211/235/94 258/235/94 259/236/94
f 223/245/9 218/196/9 263/196/9 270/245/9
f 214/244/90 216/243/90 268/243/90 269/244/90
f 212/237/14 213/236/14 259/236/14 260/237/14
f 225/246/87 223/245/87 270/245/87 271/246/87
f 210/238/95 212/237/95 260/237/95 261/238/95
f 224/247/88 225/246/88 271/246/88 272/247/88
f 277/265/96 279/266/96 307/266/96 305/265/96
f 274/267/6 275/268/6 287/252/6 286/251/6
f 275/269/6 288/253/6 287/252/6
f 275/269/6 276/270/6 289/254/6 288/253/6
f 277/271/6 278/272/6 291/256/6 290/255/6
f 277/271/6 290/255/6 292/257/6
f 279/266/6 277/265/6 292/257/6 293/258/6
f 280/273/6 281/274/6 295/250/6 294/259/6
f 281/275/6 296/249/6 295/250/6
f 281/275/6 282/276/6 297/260/6 296/249/6
f 283/277/6 284/278/6 299/262/6 298/261/6
f 284/279/6 300/263/6 299/262/6
f 284/279/6 285/280/6 301/264/6 300/263/6
f 282/276/6 274/267/6 286/251/6 297/260/6
f 276/270/6 279/266/6 293/258/6 289/254/6
f 285/280/6 280/273/6 294/259/6 301/264/6
f 278/272/6 283/277/6 298/261/6 291/256/6
f 279/266/10 276/270/10 304/270/10 307/266/10
f 281/274/97 280/273/97 308/273/97 309/274/97
f 280/273/5 285/280/5 313/280/5 308/273/5
f 275/268/98 274/267/98 302/267/98 303/268/98
f 283/277/1 278/272/1 306/272/1 311/277/1
f 282/276/99 281/275/99 309/275/99 310/276/99
f 284/278/100 283/277/100 311/277/100 312/278/100
f 276/270/101 275/269/101 303/269/101 304/270/101
f 278/272/90 277/271/90 305/271/90 306/272/90
f 285/280/102 284/279/102 312/279/102 313/280/102
f 274/267/9 282/276/9 310/276/9 302/267/9
f 319/286/1 318/287/1 518/287/1 519/286/1
f 318/287/6 319/286/6 320/282/6 317/281/6
f 317/281/6 321/283/6 322/288/6 318/287/6
f 321/283/6 323/285/6 324/289/6 322/288/6
f 323/285/6 320/282/6 319/286/6 324/289/6
f 331/290/9 326/291/9 339/291/9 333/290/9
f 326/207/5 325/206/5 338/206/5 339/207/5
f 337/300/6 335/301/6 334/302/6 340/303/6
f 325/206/1 332/294/1 336/294/1 338/206/1
f 336/297/107 333/296/107 334/302/107 335/301/107
f 333/290/108 339/291/108 340/303/108 334/302/108
f 338/206/106 336/294/106 335/301/106 337/300/106
f 339/207/17 338/206/17 337/300/17 340/303/17
f 332/297/105 331/296/105 333/296/105 336/297/105
f 434/386/6 435/373/6 436/374/6 437/387/6 426/370/6 427/362/6 430/363/6 431/385/6
f 432/378/6 433/367/6 438/368/6 439/381/6 440/382/6 441/360/6 428/361/6 429/384/6
f 490/450/10 493/451/10 501/451/10 498/450/10
f 490/450/6 491/452/6 495/448/6 494/154/6
f 492/453/6 493/451/6 497/155/6 496/449/6
f 493/451/6 490/450/6 494/154/6 497/155/6
f 491/452/6 492/453/6 496/449/6 495/448/6
f 491/452/1 490/450/1 498/450/1 499/452/1
f 492/453/5 491/452/5 499/452/5 500/453/5
f 493/451/9 492/453/9 500/453/9 501/451/9
f 318/287/103 322/288/103 520/288/103 518/287/103
f 324/289/5 319/286/5 519/286/5 521/289/5
f 322/288/104 324/289/104 521/289/104 520/288/104
usemtl M_Noir_Bleuté
f 107/18/4 36/19/4 473/19/4 482/18/4
f 2/20/5 25/21/5 466/21/5 459/20/5
f 118/29/6 116/30/6 316/31/6 314/32/6
f 34/28/1 33/38/1 470/38/1 471/28/1
f 109/39/1 94/40/1 92/41/1 112/42/1
f 195/45/5 206/46/5 241/47/5 234/48/5
f 27/49/10 1/50/10 458/50/10 468/49/10
f 104/53/6 123/54/6 352/55/6 349/56/6
f 11/25/1 34/28/1 471/28/1 465/25/1
f 2/63/2 459/63/2 463/64/2 17/64/2
f 68/65/9 57/66/9 81/66/9 80/65/9
f 467/76/13 479/77/13 478/78/13 466/79/13
f 365/88/6 364/89/6 353/90/6 355/91/6 349/56/6 352/55/6
f 350/95/6 351/96/6 124/62/6 106/97/6
f 18/80/2 17/64/2 463/64/2 462/80/2
f 110/98/6 192/99/6 316/100/6
f 33/38/16 105/108/16 485/108/16 470/38/16
f 476/111/18 469/112/18 468/113/18 477/114/18
f 109/115/7 112/116/7 115/117/7 110/118/7
f 192/99/6 110/119/6 115/117/6 197/120/6
f 25/21/5 487/76/5 467/76/5 466/21/5
f 488/125/23 107/126/23 482/126/23 483/125/23
f 21/83/2 11/25/2 465/25/2 461/83/2
f 22/84/2 21/83/2 461/83/2 460/84/2
f 35/127/1 12/128/1 464/128/1 472/127/1
f 105/130/25 489/131/25 484/131/25 485/130/25
f 487/76/5 488/125/5 483/125/5 467/76/5
f 78/138/1 58/139/1 82/139/1 87/138/1
f 57/140/9 75/141/9 88/141/9 81/140/9
f 79/142/1 82/143/1 58/143/1 55/142/1
f 55/142/1 73/144/1 86/144/1 79/142/1
f 83/148/6 90/147/6 89/149/6 84/150/6
f 79/142/2 80/65/2 81/66/2 82/143/2
f 84/150/17 85/151/17 86/144/17 83/148/17
f 88/141/29 89/149/29 90/147/29 87/138/29
f 85/151/5 80/65/5 79/142/5 86/144/5
f 81/140/10 88/141/10 87/138/10 82/139/10
f 65/149/9 60/150/9 84/150/9 89/149/9
f 60/150/9 61/151/9 85/151/9 84/150/9
f 73/144/1 59/148/1 83/148/1 86/144/1
f 75/141/9 65/149/9 89/149/9 88/141/9
f 66/147/1 90/147/1 83/148/1 59/148/1
f 66/147/1 78/138/1 87/138/1 90/147/1
f 61/151/9 68/65/9 80/65/9 85/151/9
f 197/120/6 115/152/6 99/153/6
f 1/85/2 22/84/2 460/84/2 458/85/2
f 489/131/10 486/112/10 469/112/10 484/131/10
f 12/81/2 18/80/2 462/80/2 464/81/2
f 115/117/30 112/116/30 126/116/30 129/117/30
f 351/96/1 352/55/1 123/54/1 145/54/1 142/62/1 124/62/1
f 94/40/31 109/39/31 5/39/31 148/40/31
f 99/153/32 115/152/32 129/152/32 140/153/32
f 314/32/33 315/156/33 189/157/33 101/158/33 121/159/33 135/159/33 132/29/33 118/29/33
f 106/97/10 124/62/10 142/62/10 14/97/10
f 350/95/34 106/97/34 14/97/34 15/95/34
f 92/41/2 94/40/2 148/40/2 147/41/2
f 349/56/9 350/165/9 15/165/9 9/56/9
f 116/30/48 118/29/48 132/29/48 131/30/48
f 110/98/49 316/100/49 139/100/49 4/98/49
f 112/42/50 92/41/50 147/41/50 126/42/50
f 104/53/52 349/56/52 9/56/52 7/53/52
f 316/31/53 116/30/53 131/30/53 139/31/53
f 123/54/5 104/53/5 7/53/5 145/54/5
f 121/159/55 119/168/55 136/168/55 135/159/55
f 119/168/56 99/171/56 140/171/56 136/168/56
f 109/115/57 110/118/57 4/118/57 5/115/57
f 200/193/10 191/194/10 229/195/10 233/193/10
f 197/198/6 196/199/6 190/200/6 192/99/6
f 205/201/1 201/202/1 231/202/1 238/201/1
f 192/203/6 191/194/6 200/193/6 202/204/6 315/156/6
f 207/205/6 206/46/6 195/48/6 197/120/6 325/206/6 326/207/6 327/208/6 328/209/6 189/157/6
f 202/210/6 201/202/6 205/201/6 207/205/6 189/157/6 315/156/6
f 190/200/6 193/211/6 192/203/6
f 193/211/6 194/212/6 192/203/6
f 194/212/6 191/213/6 192/203/6
f 195/45/6 198/214/6 197/198/6
f 198/214/6 199/215/6 197/198/6
f 199/215/6 196/216/6 197/198/6
f 200/193/6 203/217/6 202/210/6
f 203/217/6 204/218/6 202/210/6
f 204/218/6 201/219/6 202/210/6
f 205/201/6 208/220/6 207/205/6
f 208/220/6 209/221/6 207/205/6
f 209/221/6 206/222/6 207/205/6
f 190/200/87 226/200/87 227/223/87 193/211/87
f 193/211/88 227/223/88 228/224/88 194/225/88
f 194/225/89 228/224/89 229/195/89 191/194/89
f 231/202/90 201/202/90 204/226/90 230/227/90
f 230/227/15 204/226/15 203/217/15 232/228/15
f 232/228/91 203/217/91 200/193/91 233/193/91
f 195/45/92 234/48/92 235/229/92 198/214/92
f 198/214/93 235/229/93 236/230/93 199/231/93
f 199/231/86 236/230/86 237/199/86 196/199/86
f 205/201/94 238/201/94 239/232/94 208/220/94
f 208/220/14 239/232/14 240/233/14 209/234/14
f 209/234/95 240/233/95 241/47/95 206/46/95
f 190/200/9 196/199/9 237/199/9 226/200/9
f 252/249/93 251/250/93 295/250/93 296/249/93
f 242/251/6 243/252/6 259/236/6 258/235/6
f 243/252/6 244/253/6 260/237/6 259/236/6
f 244/253/6 245/254/6 261/238/6 260/237/6
f 246/255/6 247/256/6 263/196/6 262/197/6
f 248/257/6 246/255/6 262/197/6 264/239/6
f 249/258/6 248/257/6 264/239/6 265/240/6
f 250/259/6 251/250/6 267/242/6 266/241/6
f 251/250/6 252/249/6 268/243/6 267/242/6
f 252/249/6 253/260/6 269/244/6 268/243/6
f 254/261/6 255/262/6 271/246/6 270/245/6
f 255/262/6 256/263/6 272/247/6 271/246/6
f 256/263/6 257/264/6 273/248/6 272/247/6
f 253/260/6 242/251/6 258/235/6 269/244/6
f 245/254/6 249/258/6 265/240/6 261/238/6
f 257/264/6 250/259/6 266/241/6 273/248/6
f 247/256/6 254/261/6 270/245/6 263/196/6
f 243/252/87 242/251/87 286/251/87 287/252/87
f 254/261/1 247/256/1 291/256/1 298/261/1
f 253/260/86 252/249/86 296/249/86 297/260/86
f 244/253/88 243/252/88 287/252/88 288/253/88
f 255/262/94 254/261/94 298/261/94 299/262/94
f 245/254/89 244/253/89 288/253/89 289/254/89
f 256/263/14 255/262/14 299/262/14 300/263/14
f 247/256/90 246/255/90 290/255/90 291/256/90
f 257/264/95 256/263/95 300/263/95 301/264/95
f 246/255/15 248/257/15 292/257/15 290/255/15
f 242/251/9 253/260/9 297/260/9 286/251/9
f 248/257/91 249/258/91 293/258/91 292/257/91
f 249/258/10 245/254/10 289/254/10 293/258/10
f 251/250/92 250/259/92 294/259/92 295/250/92
f 250/259/5 257/264/5 301/264/5 294/259/5
f 98/281/6 188/282/6 315/156/6 314/32/6
f 97/283/6 98/281/6 314/32/6 316/284/6
f 187/285/6 97/283/6 316/284/6 192/99/6
f 188/282/6 187/285/6 192/99/6 315/156/6
f 98/281/103 97/283/103 321/283/103 317/281/103
f 97/283/104 187/285/104 323/285/104 321/283/104
f 187/285/5 188/282/5 320/282/5 323/285/5
f 188/282/1 98/281/1 317/281/1 320/282/1
f 189/157/6 328/209/6 329/292/6 101/158/6
f 325/206/6 197/120/6 99/293/6 332/294/6
f 101/158/6 329/292/6 330/295/6 331/296/6 332/297/6 99/171/6 119/168/6 121/159/6
f 326/291/6 331/290/6 330/298/6 327/299/6
f 353/90/10 364/308/10 398/308/10 396/90/10
f 368/311/5 359/312/5 399/312/5 397/313/5
f 363/314/9 369/315/9 377/315/9 395/316/9 380/314/9
f 355/317/6 354/318/6 358/319/6 360/320/6 350/165/6 349/56/6
f 360/320/6 359/312/6 368/313/6 370/321/6 351/96/6 350/165/6
f 370/321/6 369/315/6 363/314/6 365/88/6 352/55/6 351/96/6
f 353/90/6 356/322/6 355/317/6
f 356/322/6 357/323/6 355/317/6
f 357/323/6 354/324/6 355/317/6
f 358/319/6 361/325/6 360/320/6
f 361/325/6 362/326/6 360/320/6
f 362/326/6 359/327/6 360/320/6
f 363/314/6 366/328/6 365/88/6
f 366/328/6 367/329/6 365/88/6
f 367/329/6 364/330/6 365/88/6
f 368/311/6 371/331/6 370/321/6
f 371/331/6 372/332/6 370/321/6
f 372/332/6 369/333/6 370/321/6
f 363/314/87 380/314/87 383/334/87 382/335/87 366/328/87
f 366/328/88 382/335/88 384/336/88 381/337/88 367/338/88
f 367/338/89 381/337/89 385/339/89 398/308/89 364/308/89
f 443/318/90 354/318/90 357/340/90 373/341/90 386/342/90
f 373/341/15 357/340/15 356/322/15 374/343/15 387/344/15
f 374/343/91 356/322/91 353/90/91 396/90/91 388/345/91
f 399/312/95 359/312/95 362/346/95 375/347/95 389/348/95
f 375/347/14 362/346/14 361/325/14 376/349/14 390/350/14
f 376/349/94 361/325/94 358/319/94 442/319/94 391/351/94
f 377/315/86 369/315/86 372/352/86 378/353/86 392/354/86
f 378/353/93 372/352/93 371/331/93 379/355/93 393/356/93
f 379/355/92 371/331/92 368/311/92 397/313/92 394/357/92
f 358/319/1 354/318/1 443/318/1 442/319/1
f 397/311/6 401/358/6 379/355/6 394/359/6
f 423/360/9 409/361/9 428/361/9 441/360/9
f 402/362/10 412/363/10 430/363/10 427/362/10
f 380/314/6 400/364/6 382/335/6 383/334/6
f 445/365/6 443/318/6 386/342/6 373/341/6
f 401/358/6 444/366/6 445/365/6 400/364/6
f 377/315/6 401/358/6 400/364/6 380/314/6 395/316/6
f 442/319/6 444/366/6 376/349/6 391/351/6
f 405/367/1 421/368/1 438/368/1 433/367/1
f 404/369/6 403/370/6 417/371/6 419/372/6 445/365/6 396/90/6
f 414/373/5 418/374/5 436/375/5 435/376/5
f 407/377/6 406/378/6 408/379/6 410/380/6 397/311/6 399/312/6
f 420/381/10 424/382/10 440/382/10 439/383/10
f 408/384/5 406/378/5 432/378/5 429/379/5
f 411/385/9 415/386/9 434/386/9 431/385/9
f 425/388/6 424/382/6 420/383/6 422/389/6 444/366/6 401/358/6
f 419/372/6 418/375/6 414/376/6 416/390/6 400/364/6 445/365/6
f 422/389/6 421/368/6 405/367/6 407/391/6 399/312/6 444/366/6
f 416/392/6 415/386/6 411/385/6 413/393/6 398/308/6 400/364/6
f 410/380/6 409/361/6 423/360/6 425/388/6 401/358/6 397/311/6
f 417/387/1 403/370/1 426/370/1 437/371/1
f 402/362/6 403/394/6 404/369/6
f 405/367/6 406/395/6 407/377/6
f 408/384/6 409/396/6 410/380/6
f 411/385/6 412/397/6 413/393/6
f 414/373/6 415/398/6 416/392/6
f 417/387/6 418/399/6 419/372/6
f 420/381/6 421/400/6 422/389/6
f 423/360/6 424/401/6 425/388/6
f 402/362/15 427/362/15 426/370/15 403/370/15
f 436/375/14 418/374/14 417/387/14 437/371/14
f 411/385/88 431/385/88 430/363/88 412/363/88
f 423/360/88 441/360/88 440/382/88 424/382/88
f 438/368/15 421/368/15 420/381/15 439/383/15
f 434/386/93 415/386/93 414/373/93 435/376/93
f 405/367/14 433/367/14 432/378/14 406/378/14
f 428/361/93 409/361/93 408/384/93 429/379/93
f 413/393/6 412/363/6 402/362/6 404/369/6 396/90/6 398/308/6
f 457/412/6 456/406/6 452/310/6 454/413/6 445/365/6 444/366/6
f 451/414/6 450/409/6 455/407/6 457/412/6 444/366/6 442/319/6
f 454/413/6 453/309/6 446/404/6 448/415/6 443/318/6 445/365/6
f 446/404/6 447/416/6 448/415/6
f 449/408/6 450/417/6 451/414/6
f 452/310/6 453/418/6 454/413/6
f 455/407/6 456/419/6 457/412/6
f 448/415/6 447/422/6 449/408/6 451/414/6 442/319/6 443/318/6
f 467/76/109 483/125/109 482/18/109 473/19/109 480/429/109 479/77/109
f 463/430/110 478/431/110 481/432/110 462/433/110
f 481/434/111 472/127/111 464/128/111 462/435/111
f 461/436/112 465/25/112 471/437/112 474/438/112
f 476/111/113 475/439/113 470/38/113 485/130/113 484/131/113 469/112/113
f 477/440/114 460/441/114 461/442/114 474/443/114
f 459/20/115 466/79/115 478/78/115 463/430/115
f 468/113/116 458/50/116 460/441/116 477/114/116
f 475/444/117 476/445/117 477/440/117 474/443/117
f 479/446/118 480/447/118 481/432/118 478/431/118
f 480/429/119 473/19/119 472/127/119 481/434/119
f 470/38/120 475/439/120 474/438/120 471/437/120
f 36/19/1 35/127/1 472/127/1 473/19/1
f 486/112/10 27/49/10 468/49/10 469/112/10
f 379/355/6 401/358/6 378/353/6 393/356/6
f 378/353/6 401/358/6 377/315/6 392/354/6
f 382/335/6 400/364/6 381/337/6 384/336/6
f 381/337/6 400/364/6 398/308/6 385/339/6
f 374/343/6 388/345/6 396/90/6 445/365/6
f 373/341/6 387/344/6 374/343/6 445/365/6
f 376/349/6 444/366/6 375/347/6 390/350/6
f 375/347/6 444/366/6 399/312/6 389/348/6
usemtl M_Orange
f 177/187/72 169/189/72 168/190/72 176/121/72 185/188/72
f 186/129/73 175/36/73 173/191/73 172/192/73 178/124/73
f 184/16/74 183/123/74 178/124/74 172/192/74 171/17/74
f 177/136/75 182/137/75 181/179/75 170/178/75 169/189/75
f 168/190/77 169/189/77 170/181/77 167/180/77
f 172/192/78 173/191/78 174/132/78 171/133/78
f 173/191/79 175/36/79 180/37/79 174/122/79
f 176/121/80 168/190/80 167/51/80 179/52/80
f 330/295/105 329/292/105 343/292/105 341/295/105
f 329/292/9 328/209/9 346/209/9 343/292/9
f 327/299/1 330/298/1 341/298/1 348/299/1
f 344/304/6 345/305/6 347/306/6 342/307/6
f 328/209/5 327/208/5 348/208/5 346/209/5
f 348/299/106 341/298/106 342/307/106 347/306/106
f 346/209/17 348/208/17 347/306/17 345/305/17
f 341/295/107 343/292/107 344/304/107 342/307/107
f 343/292/108 346/209/108 345/305/108 344/304/108
usemtl M_Cyan
f 306/272/6 305/265/6 307/266/6 304/270/6 303/268/6 302/267/6 310/276/6 309/274/6 308/273/6 313/280/6 312/278/6 311/277/6
f 498/450/6 501/451/6 500/453/6 499/452/6
f 518/287/6 520/288/6 521/289/6 519/286/6
usemtl M_Gris_Metal
f 515/309/14 453/309/14 452/310/14 517/310/14
f 507/402/93 447/403/93 446/404/93 509/404/93
f 511/405/15 456/406/15 455/407/15 513/407/15
f 449/408/88 505/408/88 503/409/88 450/409/88
f 506/410/19 504/411/19 505/408/19 507/402/19
f 455/407/10 450/409/10 503/409/10 513/420/10
f 452/310/1 456/406/1 511/405/1 517/421/1
f 446/404/5 453/309/5 515/309/5 509/404/5
f 506/410/6 508/423/6 514/424/6 516/425/6 510/426/6 512/427/6 502/428/6 504/411/6
f 504/411/121 502/428/121 503/409/121 505/408/121
f 512/427/122 510/426/122 511/405/122 513/407/122
f 516/425/123 514/424/123 515/309/123 517/310/123
f 508/423/124 506/410/124 507/402/124 509/404/124
f 449/408/9 447/403/9 507/402/9 505/408/9
f 514/424/17 508/423/17 509/404/17 515/309/17
f 502/428/29 512/427/29 513/420/29 503/409/29
f 510/426/7 516/425/7 517/421/7 511/405/7
