# Blender 4.2.3 LTS
# www.blender.org
mtllib SM_Wall_Shelf.mtl
o SM_Wall_Shelf
v 0.004623 -0.017031 0.400000
v 0.004623 -0.017031 -0.400000
v 0.004623 -0.002031 0.400000
v 0.004623 -0.002031 -0.400000
v 0.164623 -0.017031 0.380665
v 0.164623 -0.017031 -0.380665
v 0.164623 -0.017031 0.366422
v 0.164623 -0.017031 -0.366422
v 0.163458 0.006305 0.365828
v 0.163458 0.005116 0.365828
v 0.163458 0.006305 -0.365828
v 0.163458 0.005116 -0.365828
v 0.005788 -0.012969 -0.367016
v 0.005788 -0.012969 -0.365828
v 0.005788 -0.012969 0.365828
v 0.005788 -0.012969 0.367016
v 0.005788 -0.012950 -0.381260
v 0.005788 -0.012969 -0.380071
v 0.005788 -0.012969 0.380071
v 0.005788 -0.012950 0.381260
v 0.164623 -0.017031 0.390555
v 0.155178 -0.017031 0.400000
v 0.155178 -0.017031 -0.400000
v 0.164623 -0.017031 -0.390555
v 0.163458 -0.001437 0.365828
v 0.163458 -0.002626 0.365828
v 0.164623 -0.006870 -0.390555
v 0.164623 -0.006870 0.390555
v 0.004623 0.010395 0.400000
v 0.004623 0.012969 0.397426
v 0.004623 0.012969 -0.397426
v 0.004623 0.010395 -0.400000
v 0.163458 -0.002626 -0.365828
v 0.163458 -0.001437 -0.365828
v 0.163458 -0.002630 0.381260
v 0.163458 -0.001437 0.381260
v 0.163458 -0.001437 -0.381260
v 0.163458 -0.002630 -0.381260
v 0.034788 0.010395 -0.400000
v 0.034788 0.010395 0.400000
v 0.154112 0.012969 0.397426
v 0.155178 0.010395 0.400000
v 0.162049 0.012969 0.389489
v 0.164623 0.010395 0.390555
v 0.162049 0.012969 -0.389489
v 0.164623 0.010395 -0.390555
v 0.154112 0.012969 -0.397426
v 0.155178 0.010395 -0.400000
v 0.004623 0.012969 0.381260
v 0.004623 0.012969 0.380071
v 0.004623 0.012969 -0.380071
v 0.004623 0.012969 -0.381260
v 0.164623 -0.001437 -0.381260
v 0.164623 -0.002630 -0.381260
v 0.164623 -0.001437 0.381260
v 0.164623 -0.002630 0.381260
v 0.004623 0.012969 0.367016
v 0.004623 0.012969 0.365828
v 0.004623 0.012969 -0.365828
v 0.004623 0.012969 -0.367016
v 0.164623 -0.002626 -0.365828
v 0.164623 -0.000745 -0.365136
v 0.164623 -0.002626 0.365828
v 0.164623 -0.000745 0.365136
v 0.004623 -0.012949 -0.400000
v 0.004623 -0.014164 -0.400000
v 0.004623 -0.014164 0.400000
v 0.004623 -0.012949 0.400000
v 0.004623 -0.012950 0.381260
v 0.004623 -0.012969 0.380071
v 0.004623 -0.012950 -0.381260
v 0.004623 -0.012969 -0.380071
v 0.164623 -0.006276 -0.380071
v 0.164623 -0.007464 -0.381260
v 0.164623 -0.007464 0.381260
v 0.164623 -0.006276 0.380071
v 0.164623 -0.006276 -0.367016
v 0.164623 -0.007464 -0.365828
v 0.164623 -0.006276 0.367016
v 0.164623 -0.007464 0.365828
v 0.004623 -0.012969 0.367016
v 0.004623 -0.012969 0.365828
v 0.004623 -0.012969 -0.367016
v 0.004623 -0.012969 -0.365828
v 0.164623 0.006305 -0.365828
v 0.164623 0.004425 -0.365136
v 0.164623 0.004425 0.365136
v 0.164623 0.006305 0.365828
v 0.034788 -0.002632 0.400000
v 0.034735 -0.001437 0.400000
v 0.034735 -0.001437 -0.400000
v 0.034788 -0.002632 -0.400000
v 0.164623 -0.001437 -0.390555
v 0.164623 -0.002631 -0.390555
v 0.155178 -0.002631 -0.400000
v 0.155178 -0.001437 -0.400000
v 0.155178 -0.001437 0.400000
v 0.155178 -0.002631 0.400000
v 0.164623 -0.002631 0.390555
v 0.164623 -0.001437 0.390555
v 0.164623 0.010395 -0.380071
v 0.164623 0.010395 -0.381260
v 0.162049 0.012969 -0.381260
v 0.162049 0.012969 -0.380071
v 0.162049 0.012969 0.380071
v 0.162049 0.012969 0.381260
v 0.164623 0.010395 0.381260
v 0.164623 0.010395 0.380071
v 0.162049 0.012969 -0.367016
v 0.162049 0.012969 -0.365828
v 0.164623 0.010395 -0.365828
v 0.164623 0.010395 -0.367016
v 0.164623 0.010395 0.367016
v 0.164623 0.010395 0.365828
v 0.162049 0.012969 0.365828
v 0.162049 0.012969 0.367016
v 0.163458 -0.006276 -0.380071
v 0.163458 -0.007464 -0.381260
v 0.163458 -0.007464 0.381260
v 0.163458 -0.006276 0.380071
v 0.163458 -0.007464 -0.365828
v 0.163458 -0.006276 -0.367016
v 0.163458 -0.006276 0.367016
v 0.163458 -0.007464 0.365828
v 0.005547 -0.014164 0.399291
v 0.005357 -0.012949 0.399096
v 0.005357 -0.012949 -0.399096
v 0.005547 -0.014164 -0.399291
v 0.005447 0.012145 0.381260
v 0.005447 0.012145 0.380071
v 0.005447 0.012145 -0.380071
v 0.005447 0.012145 -0.381260
v 0.005447 0.012145 0.367016
v 0.005447 0.012145 0.365828
v 0.005447 0.012145 -0.365828
v 0.005447 0.012145 -0.367016
v 0.163547 -0.001437 -0.390110
v 0.163547 -0.002631 -0.390110
v 0.154733 -0.002631 -0.398924
v 0.154733 -0.001437 -0.398924
v 0.154733 -0.001437 0.398924
v 0.154733 -0.002631 0.398924
v 0.163547 -0.002631 0.390110
v 0.163547 -0.001437 0.390110
v 0.034788 -0.002632 0.398835
v 0.034735 -0.001437 0.398835
v 0.034735 -0.001437 -0.398835
v 0.034788 -0.002632 -0.398835
v 0.163547 0.009949 0.367016
v 0.163547 0.009949 0.365828
v 0.161604 0.011893 0.365828
v 0.161604 0.011893 0.367016
v 0.161604 0.011893 0.380071
v 0.161604 0.011893 0.381260
v 0.163547 0.009949 0.381260
v 0.163547 0.009949 0.380071
v 0.163547 0.009949 -0.380071
v 0.163547 0.009949 -0.381260
v 0.161604 0.011893 -0.381260
v 0.161604 0.011893 -0.380071
v 0.161604 0.011893 -0.367016
v 0.161604 0.011893 -0.365828
v 0.163547 0.009949 -0.365828
v 0.163547 0.009949 -0.367016
v 0.164623 -0.001437 -0.365828
v 0.164623 -0.001437 0.365828
v 0.164623 0.005116 -0.365828
v 0.164623 0.005116 0.365828
v 0.164154 -0.000141 -0.364532
v 0.164154 -0.000141 0.364532
v 0.164154 0.003820 -0.364532
v 0.164154 0.003820 0.364532
v 0.164154 -0.000745 -0.365136
v 0.164154 -0.000745 0.365136
v 0.164154 0.004425 -0.365136
v 0.164154 0.004425 0.365136
v 0.163739 -0.000141 -0.364532
v 0.163739 -0.000141 0.364532
v 0.163739 0.003820 -0.364532
v 0.163739 0.003820 0.364532
v 0.002788 -0.014275 0.323089
v 0.002788 -0.014275 0.249108
v 0.002788 0.014275 0.249108
v 0.002788 0.014275 0.323089
v 0.004623 -0.012969 -0.252492
v 0.004623 -0.012969 -0.319705
v 0.004623 0.012969 0.252492
v 0.004623 0.012969 0.319705
v 0.004623 -0.012969 0.319705
v 0.004623 -0.012969 0.252492
v 0.004623 0.012969 -0.319705
v 0.004623 0.012969 -0.252492
v 0.002788 0.014275 -0.249108
v 0.002788 0.014275 -0.323089
v 0.002788 -0.014275 -0.323089
v 0.002788 -0.014275 -0.249108
v 0.000000 -0.014275 -0.249108
v 0.000000 0.014275 -0.249108
v 0.000000 0.014275 -0.323089
v 0.000000 -0.014275 -0.323089
v 0.000000 -0.014275 0.323089
v 0.000000 0.014275 0.323089
v 0.000000 0.014275 0.249108
v 0.000000 -0.014275 0.249108
vn -0.0000 -0.0000 -1.0000
vn 1.0000 -0.0000 -0.0000
vn -0.0000 1.0000 -0.0000
vn -1.0000 -0.0000 -0.0000
vn -0.9819 0.1896 -0.0000
vn -0.0000 -1.0000 -0.0000
vn 0.0016 1.0000 -0.0000
vn 0.7071 -0.0000 0.7071
vn 0.7071 -0.0000 -0.7071
vn 0.7071 0.7071 -0.0000
vn 0.5000 0.7071 -0.5000
vn 0.5000 0.7071 0.5000
vn -0.0000 -0.0000 1.0000
vn -0.3574 0.9172 0.1762
vn -0.3574 0.9172 -0.1762
vn 0.3585 -0.9248 0.1271
vn 0.9999 -0.0053 0.0107
vn 0.9996 -0.0053 -0.0279
vn -0.9999 -0.0136 -0.0000
vn -0.9999 -0.0136 0.0001
vn -0.0000 0.7071 -0.7071
vn -0.0000 0.7071 0.7071
vn 0.9996 -0.0053 0.0279
vn 0.9999 -0.0053 -0.0107
vn -0.9999 -0.0136 -0.0001
vn -0.0188 0.0788 0.9967
vn -0.0188 0.0789 -0.9967
vn -0.0007 -0.0001 -1.0000
vn 0.9999 -0.0000 0.0100
vn -0.0007 -0.0001 1.0000
vn 0.9999 -0.0000 -0.0100
vn 0.3585 -0.9248 -0.1271
vn 0.8791 -0.0000 -0.4766
vn 0.8791 -0.0000 0.4766
vn 0.5799 -0.8147 -0.0000
vn 0.5799 0.8147 -0.0000
vt 0.504953 0.297050
vt 0.603553 0.297133
vt 0.603553 0.485243
vt 0.504953 0.485243
vt 0.375000 0.611111
vt 0.454725 0.611134
vt 0.454725 0.638866
vt 0.375000 0.638889
vt 0.375000 0.485243
vt 0.375000 0.250000
vt 0.445004 0.250000
vt 0.494992 0.297133
vt 0.495001 0.485243
vt 0.464630 0.640048
vt 0.603553 0.640048
vt 0.603553 0.665508
vt 0.464630 0.665508
vt 0.629021 0.545302
vt 0.641423 0.511093
vt 0.875000 0.511093
vt 0.875000 0.580772
vt 0.629021 0.580772
vt 0.625000 0.140048
vt 0.625000 0.165508
vt 0.461756 0.165508
vt 0.461755 0.140048
vt 0.454725 0.669228
vt 0.495008 0.669228
vt 0.495006 0.709293
vt 0.459677 0.709293
vt 0.464630 0.584492
vt 0.603553 0.584492
vt 0.603553 0.609952
vt 0.464630 0.609952
vt 0.629021 0.584492
vt 0.875000 0.584492
vt 0.875000 0.609952
vt 0.629021 0.609952
vt 0.569469 0.611133
vt 0.603553 0.611134
vt 0.603553 0.638866
vt 0.569469 0.638866
vt 0.875000 0.640048
vt 0.875000 0.665508
vt 0.629021 0.665508
vt 0.629021 0.640048
vt 0.553800 0.638840
vt 0.510716 0.638840
vt 0.504953 0.669228
vt 0.603553 0.669228
vt 0.603553 0.709293
vt 0.504953 0.709293
vt 0.461756 0.111134
vt 0.461755 0.138866
vt 0.461821 0.169228
vt 0.461824 0.250000
vt 0.445004 0.250000
vt 0.445004 0.000000
vt 0.461824 0.000000
vt 0.461821 0.080772
vt 0.461756 0.084492
vt 0.461756 0.109952
vt 0.500000 0.250000
vt 0.603553 0.250000
vt 0.504953 0.297050
vt 0.459677 0.540707
vt 0.495006 0.540707
vt 0.495008 0.580772
vt 0.454725 0.580772
vt 0.625000 0.084492
vt 0.625000 0.109952
vt 0.125000 0.500000
vt 0.360243 0.500000
vt 0.375000 0.540707
vt 0.375000 0.583333
vt 0.375000 0.666667
vt 0.375000 0.709293
vt 0.360243 0.750000
vt 0.125000 0.750000
vt 0.603553 0.540707
vt 0.603553 0.580772
vt 0.504953 0.580772
vt 0.504953 0.540707
vt 0.375000 0.000000
vt 0.454725 0.637730
vt 0.454725 0.667826
vt 0.375000 0.540707
vt 0.459677 0.540707
vt 0.454725 0.580772
vt 0.502078 0.297050
vt 0.454725 0.582174
vt 0.454725 0.612270
vt 0.500000 0.000000
vt 0.603553 0.000000
vt 0.625000 0.011093
vt 0.625000 0.080772
vt 0.454725 0.611134
vt 0.495047 0.611134
vt 0.495047 0.638866
vt 0.454725 0.638866
vt 0.629021 0.638866
vt 0.875000 0.638866
vt 0.625000 0.169228
vt 0.625000 0.238907
vt 0.625000 0.134856
vt 0.461755 0.134856
vt 0.875000 0.669228
vt 0.629021 0.669228
vt 0.875000 0.738907
vt 0.641423 0.738907
vt 0.629021 0.704698
vt 0.495001 0.764757
vt 0.375000 0.764757
vt 0.504953 0.485243
vt 0.603553 0.485243
vt 0.629021 0.580772
vt 0.629021 0.640048
vt 0.629021 0.665508
vt 0.603553 0.665508
vt 0.603553 0.640048
vt 0.625000 0.489669
vt 0.625000 0.536280
vt 0.625000 0.713720
vt 0.625000 0.760331
vt 0.603553 0.764757
vt 0.629021 0.611134
vt 0.603553 0.638866
vt 0.461824 1.000000
vt 0.502078 0.952950
vt 0.500000 1.000000
vt 0.445004 1.000000
vt 0.494992 0.952867
vt 0.625000 0.118881
vt 0.625000 0.131119
vt 0.461755 0.131119
vt 0.461755 0.118881
vt 0.625000 0.138866
vt 0.504953 0.764757
vt 0.495001 0.485243
vt 0.875000 0.611134
vt 0.629021 0.611133
vt 0.504952 0.638866
vt 0.559564 0.638866
vt 0.559564 0.611134
vt 0.504953 0.611134
vt 0.375000 1.000000
vt 0.625000 0.250000
vt 0.625000 0.483577
vt 0.603553 0.952867
vt 0.625000 0.766423
vt 0.625000 1.000000
vt 0.603553 1.000000
vt 0.625000 0.111134
vt 0.504953 0.952950
vt 0.504953 0.952950
vt 0.603553 0.952867
vt 0.510716 0.611160
vt 0.553800 0.611160
vt 0.515753 0.638817
vt 0.515753 0.611183
vt 0.548763 0.611183
vt 0.548763 0.638817
vt 0.875000 0.615144
vt 0.875000 0.618881
vt 0.875000 0.631119
vt 0.875000 0.634856
vt 0.625000 0.115144
vt 0.461755 0.115144
vt 0.461756 0.115144
vt 0.461755 0.131119
vt 0.461755 0.134856
s 0
usemtl M_Blanc
f 91/1/1 39/2/1 48/3/1 96/4/1
f 45/18/3 47/19/3 31/20/3 52/21/3 103/22/3
f 85/39/2 111/40/2 114/41/2 88/42/2
f 55/49/2 107/50/2 44/51/2 100/52/2
f 4/63/1 32/64/1 39/2/1 91/65/1
f 46/80/2 102/81/2 53/82/2 93/83/2
f 91/90/1 65/56/1 4/63/1
f 3/93/4 29/94/4 30/95/4 49/96/4 69/60/4 68/59/4
f 52/103/4 31/104/4 32/64/4 4/63/4 65/56/4 71/55/4
f 55/49/1 36/49/1 155/50/1 107/50/1
f 106/108/3 49/107/3 30/109/3 41/110/3 43/111/3
f 46/80/9 93/83/9 96/114/9 48/115/9
f 102/81/10 46/80/10 45/18/10 103/116/10
f 44/51/10 107/50/10 106/108/10 43/111/10
f 47/121/11 45/122/11 46/80/11 48/115/11
f 43/123/12 41/124/12 42/125/12 44/51/12
f 110/126/10 115/101/10 114/127/10 111/40/10
f 68/128/13 90/129/13 3/130/13
f 187/133/4 192/134/4 185/135/4 190/136/4
f 90/129/16 68/128/16 126/128/16 146/129/16
f 59/137/1 135/137/1 14/54/1 84/54/1
f 100/52/6 97/138/6 141/138/6 144/52/6
f 96/114/6 93/83/6 137/83/6 140/114/6
f 103/22/13 52/21/13 132/21/13 159/22/13
f 88/42/13 114/41/13 150/41/13 9/42/13
f 115/101/13 58/102/13 134/102/13 151/101/13
f 53/82/13 102/81/13 158/81/13 37/82/13
f 56/28/1 75/27/1 119/27/1 35/28/1
f 111/40/1 85/39/1 11/39/1 163/40/1
f 49/107/1 106/108/1 154/108/1 129/107/1
f 59/140/1 110/141/1 162/141/1 135/140/1
f 85/39/6 88/42/6 9/42/6 11/39/6
f 110/126/1 111/40/1 163/40/1 162/126/1
f 42/125/8 97/138/8 100/52/8 44/51/8
f 48/3/21 39/2/21 32/64/21 31/147/21 47/148/21
f 40/149/22 42/125/22 41/150/22 30/151/22 29/152/22
f 42/125/13 40/149/13 90/154/13 97/138/13
f 90/155/13 40/156/13 29/152/13 3/130/13
f 65/56/32 91/90/32 147/90/32 127/56/32
f 91/1/6 96/4/6 140/4/6 147/1/6
f 93/83/6 53/82/6 37/82/6 137/83/6
f 97/138/6 90/154/6 146/154/6 141/138/6
f 68/59/6 69/60/6 20/60/6 126/59/6
f 55/49/6 100/52/6 144/52/6 36/49/6
f 71/55/6 65/56/6 127/56/6 17/55/6
f 114/127/13 115/101/13 151/101/13 150/127/13
f 49/96/1 129/96/1 20/60/1 69/60/1
f 106/108/1 107/50/1 155/50/1 154/108/1
f 52/103/13 71/55/13 17/55/13 132/103/13
f 58/153/13 82/53/13 15/53/13 134/153/13
f 102/81/13 103/116/13 159/116/13 158/81/13
f 110/141/3 59/140/3 191/163/3 192/164/3 187/165/3 188/166/3 58/102/3 115/101/3
f 188/167/4 189/168/4 82/53/4 58/153/4
f 82/53/6 189/169/6 190/136/6 185/170/6 186/171/6 84/54/6 14/54/6 15/53/6
f 84/54/4 186/106/4 191/105/4 59/137/4
usemtl M_Noir_Profond
f 15/53/5 14/54/5 13/26/5 18/25/5 17/55/5 127/56/5 128/57/5 125/58/5 126/59/5 20/60/5 19/61/5 16/62/5
f 151/101/7 134/102/7 133/43/7 152/46/7
f 129/107/7 154/108/7 153/45/7 130/44/7
f 159/22/7 132/21/7 131/36/7 160/35/7
f 35/28/17 119/27/17 120/17/17 156/16/17 155/50/17 36/49/17
f 123/14/18 124/100/18 26/99/18 25/142/18 10/143/18 9/42/18 150/41/18 149/15/18
f 136/23/19 13/26/19 14/54/19 135/137/19
f 130/70/20 19/61/20 20/60/20 129/96/20
f 135/140/7 162/141/7 161/38/7 136/37/7
f 34/145/2 25/142/2 26/99/2 33/98/2
f 15/53/19 16/62/19 133/71/19 134/153/19
f 163/40/23 11/39/23 12/144/23 34/145/23 33/98/23 121/97/23 122/34/23 164/33/23
f 117/31/24 118/69/24 38/68/24 37/82/24 158/81/24 157/32/24
f 132/103/25 17/55/25 18/25/25 131/24/25
f 117/31/2 122/34/2 121/92/2 118/91/2
f 123/14/2 120/17/2 119/86/2 124/85/2
f 11/39/2 9/42/2 10/143/2 12/144/2
f 138/67/9 139/139/9 140/114/9 137/83/9
f 142/112/8 143/29/8 144/52/8 141/138/8
f 146/129/26 126/128/26 125/131/26 145/132/26
f 148/12/27 128/11/27 127/56/27 147/90/27
f 139/13/28 148/12/28 147/1/28 140/4/28
f 137/83/29 37/82/29 38/68/29 138/67/29
f 145/132/30 142/112/30 141/138/30 146/154/30
f 143/29/31 35/28/31 36/49/31 144/52/31
f 150/127/10 151/101/10 152/117/10 149/120/10
f 154/108/10 155/50/10 156/119/10 153/118/10
f 158/81/10 159/116/10 160/35/10 157/32/10
f 162/126/10 163/40/10 164/33/10 161/38/10
f 170/159/3 169/160/3 177/160/3 178/159/3
f 169/160/2 170/159/2 174/48/2 173/157/2
f 171/161/2 169/160/2 173/157/2 175/158/2
f 170/159/2 172/162/2 176/47/2 174/48/2
f 172/162/2 171/161/2 175/158/2 176/47/2
f 171/161/6 172/162/6 180/162/6 179/161/6
f 169/160/13 171/161/13 179/161/13 177/160/13
f 172/162/1 170/159/1 178/159/1 180/162/1
usemtl M_Orange
f 79/14/2 113/15/2 108/16/2 76/17/2
f 60/23/4 51/24/4 72/25/4 83/26/4
f 73/31/2 101/32/2 112/33/2 77/34/2
f 104/35/3 51/36/3 60/37/3 109/38/3
f 57/43/3 50/44/3 105/45/3 116/46/3
f 50/70/4 57/71/4 81/62/4 70/61/4
f 116/117/10 105/118/10 108/119/10 113/120/10
f 104/35/10 109/38/10 112/33/10 101/32/10
f 70/61/6 81/62/6 16/62/6 19/61/6
f 112/33/13 164/33/13 122/34/13 77/34/13
f 113/15/1 79/14/1 123/14/1 149/15/1
f 57/43/1 116/46/1 152/46/1 133/43/1
f 51/36/1 104/35/1 160/35/1 131/36/1
f 50/44/13 130/44/13 153/45/13 105/45/13
f 101/32/1 73/31/1 117/31/1 157/32/1
f 109/38/13 60/37/13 136/37/13 161/38/13
f 112/33/13 109/38/13 161/38/13 164/33/13
f 60/23/13 83/26/13 13/26/13 136/23/13
f 108/16/13 156/16/13 120/17/13 76/17/13
f 73/31/6 77/34/6 122/34/6 117/31/6
f 79/14/6 76/17/6 120/17/6 123/14/6
f 83/26/6 72/25/6 18/25/6 13/26/6
f 50/70/13 70/61/13 19/61/13 130/70/13
f 116/117/1 113/120/1 149/120/1 152/117/1
f 108/119/13 105/118/13 153/118/13 156/119/13
f 51/24/1 131/24/1 18/25/1 72/25/1
f 57/71/1 133/71/1 16/62/1 81/62/1
f 104/35/1 101/32/1 157/32/1 160/35/1
usemtl M_Noir_Bleuté
f 8/5/2 78/6/2 80/7/2 7/8/2
f 23/9/1 2/10/1 66/11/1 92/12/1 95/13/1
f 75/27/2 56/28/2 99/29/2 28/30/2
f 87/47/1 64/48/1 174/48/1 176/47/1
f 27/66/2 94/67/2 54/68/2 74/69/2
f 2/72/6 23/73/6 24/74/6 6/75/6 8/5/6 7/8/6 5/76/6 21/77/6 22/78/6 1/79/6
f 1/84/4 67/58/4 66/57/4 2/10/4
f 7/8/2 80/85/2 75/86/2 5/76/2
f 5/76/2 75/27/2 28/30/2 21/77/2
f 24/87/2 27/88/2 74/89/2 6/75/2
f 6/75/2 74/91/2 78/92/2 8/5/2
f 78/97/2 61/98/2 63/99/2 80/100/2
f 194/105/1 195/106/1 200/106/1 199/105/1
f 98/112/8 22/113/8 21/77/8 28/30/8 99/29/8
f 92/12/14 66/11/14 128/11/14 148/12/14
f 67/131/15 89/132/15 145/132/15 125/131/15
f 98/112/3 99/29/3 143/29/3 142/112/3
f 80/100/13 63/99/13 26/99/13 124/100/13
f 94/67/3 95/139/3 139/139/3 138/67/3
f 61/98/1 78/97/1 121/97/1 33/98/1
f 74/69/13 54/68/13 38/68/13 118/69/13
f 166/142/13 168/143/13 10/143/13 25/142/13
f 168/143/3 167/144/3 12/144/3 10/143/3
f 167/144/1 165/145/1 34/145/1 12/144/1
f 89/132/13 67/131/13 1/146/13 22/113/13 98/112/13
f 94/67/9 27/88/9 24/87/9 23/9/9 95/139/9
f 95/13/3 92/12/3 148/12/3 139/13/3
f 78/92/3 74/91/3 118/91/3 121/92/3
f 75/86/3 80/85/3 124/85/3 119/86/3
f 54/68/3 94/67/3 138/67/3 38/68/3
f 89/132/3 98/112/3 142/112/3 145/132/3
f 99/29/3 56/28/3 35/28/3 143/29/3
f 66/57/3 67/58/3 125/58/3 128/57/3
f 165/145/6 166/142/6 25/142/6 34/145/6
f 63/99/3 61/98/3 33/98/3 26/99/3
f 62/157/2 64/48/2 166/142/2 165/145/2
f 86/158/2 62/157/2 165/145/2 167/144/2
f 64/48/2 87/47/2 168/143/2 166/142/2
f 87/47/2 86/158/2 167/144/2 168/143/2
f 64/48/3 62/157/3 173/157/3 174/48/3
f 86/158/6 87/47/6 176/47/6 175/158/6
f 62/157/13 86/158/13 175/158/13 173/157/13
f 187/133/33 190/136/33 182/136/33 183/133/33
f 189/168/34 188/167/34 184/167/34 181/168/34
f 196/135/13 193/134/13 198/134/13 197/135/13
f 186/171/35 185/170/35 196/170/35 195/171/35
f 192/164/36 191/163/36 194/163/36 193/164/36
f 190/136/35 189/169/35 181/169/35 182/136/35
f 188/166/36 187/165/36 183/165/36 184/166/36
f 185/135/34 192/134/34 193/134/34 196/135/34
f 191/105/33 186/106/33 195/106/33 194/105/33
f 203/133/4 204/136/4 201/168/4 202/167/4
f 199/105/4 200/106/4 197/135/4 198/134/4
f 184/166/3 183/165/3 203/165/3 202/166/3
f 181/168/13 184/167/13 202/167/13 201/168/13
f 182/136/6 181/169/6 201/169/6 204/136/6
f 193/164/3 194/163/3 199/163/3 198/164/3
f 183/133/1 182/136/1 204/136/1 203/133/1
f 195/171/6 196/170/6 197/170/6 200/171/6
usemtl M_Cyan
f 177/160/2 179/161/2 180/162/2 178/159/2
