# Blender 4.2.3 LTS
# www.blender.org
mtllib SM_CableAdapter_Small.mtl
o SM_CableAdapter_Small
v -0.010208 0.214114 0.244352
v -0.010208 0.425886 0.244352
v -0.010208 0.425886 -0.244352
v -0.010208 0.214114 -0.244352
v -0.010208 0.099912 -0.105886
v -0.010208 0.099912 0.105886
v -0.010208 0.540088 0.105886
v -0.010208 0.540088 -0.105886
v -0.010208 0.214114 0.105886
v -0.010208 0.214114 -0.105886
v -0.010208 0.425886 0.105886
v -0.010208 0.425886 -0.105886
v 0.010208 0.425886 -0.244352
v -0.012643 0.320134 0.094369
v 0.024339 0.427059 -0.218395
v 0.024339 0.212941 -0.218395
v 0.010208 0.214114 -0.244352
v 0.024339 0.427059 0.189400
v 0.010208 0.425886 0.244352
v 0.010208 0.214114 0.244352
v 0.024339 0.212941 0.189400
v 0.024339 0.149406 0.107059
v 0.010208 0.099912 0.105886
v 0.010208 0.099912 -0.105886
v 0.024339 0.149406 -0.107059
v 0.024339 0.516709 -0.107059
v 0.010208 0.540088 -0.105886
v 0.010208 0.540088 0.105886
v 0.024339 0.490593 0.107059
v 0.024339 0.160328 0.189400
v 0.024339 0.149406 0.177275
v 0.024339 0.490593 0.177275
v 0.024339 0.479672 0.189400
v 0.024339 0.149406 -0.177275
v 0.024339 0.160328 -0.189400
v 0.024339 0.479672 -0.189400
v 0.024339 0.490593 -0.177275
v 0.024339 0.425886 -0.230221
v 0.024339 0.214114 -0.230221
v 0.024339 0.214114 0.230221
v 0.024339 0.425886 0.230221
v 0.024339 0.112639 -0.105886
v 0.024339 0.112639 0.105886
v 0.024339 0.527361 0.105886
v 0.024339 0.527361 -0.105886
v -0.010208 0.094058 -0.202728
v -0.010208 0.137402 -0.250851
v -0.010208 0.502598 -0.250851
v -0.010208 0.545942 -0.202728
v -0.010208 0.137402 0.250851
v -0.010208 0.094058 0.202728
v -0.010208 0.545942 0.202728
v -0.010208 0.502598 0.250851
v -0.010208 0.094058 0.105886
v -0.010208 0.214114 0.250851
v -0.010208 0.425886 0.250851
v -0.010208 0.545942 0.105886
v -0.010208 0.094058 -0.105886
v -0.010208 0.214114 -0.250851
v -0.010208 0.545942 -0.105886
v -0.010208 0.425886 -0.250851
v 0.012900 0.425886 -0.250851
v 0.030838 0.425886 -0.232913
v 0.030838 0.214114 -0.232913
v 0.012900 0.214114 -0.250851
v 0.030838 0.425886 0.232913
v 0.012900 0.425886 0.250851
v 0.012900 0.214114 0.250851
v 0.030838 0.214114 0.232913
v 0.030838 0.110214 0.105886
v 0.012900 0.094058 0.105886
v 0.012900 0.094058 -0.105886
v 0.030838 0.110214 -0.105886
v 0.030838 0.529786 -0.105886
v 0.012900 0.545942 -0.105886
v 0.012900 0.545942 0.105886
v 0.030838 0.529786 0.105886
v 0.012986 0.137414 -0.250820
v 0.030740 0.144024 -0.233100
v 0.030740 0.110046 -0.195376
v 0.012986 0.094086 -0.202715
v 0.012986 0.545914 -0.202715
v 0.030740 0.529954 -0.195376
v 0.030740 0.495976 -0.233100
v 0.012986 0.502586 -0.250820
v 0.012986 0.094086 0.202715
v 0.030740 0.110046 0.195376
v 0.030740 0.144024 0.233100
v 0.012986 0.137414 0.250820
v 0.012986 0.502586 0.250820
v 0.030740 0.495976 0.233100
v 0.030740 0.529954 0.195376
v 0.012986 0.545914 0.202715
v 0.030838 0.149073 -0.219568
v 0.030838 0.122234 -0.189771
v 0.030838 0.517766 -0.189771
v 0.030838 0.490927 -0.219568
v 0.030838 0.122234 0.189771
v 0.030838 0.149073 0.219568
v 0.030838 0.490927 0.219568
v 0.030838 0.517766 0.189771
v 0.030838 0.122234 0.105886
v 0.030838 0.214114 0.219568
v 0.030838 0.425886 0.219568
v 0.030838 0.517766 0.105886
v 0.030838 0.122234 -0.105886
v 0.030838 0.214114 -0.219568
v 0.030838 0.517766 -0.105886
v 0.030838 0.425886 -0.219568
v 0.024339 0.427059 -0.189400
v 0.024339 0.212941 -0.189400
v 0.024339 0.212941 0.218395
v 0.024339 0.427059 0.218395
v 0.024339 0.123291 -0.107059
v 0.024339 0.123291 0.107059
v 0.024339 0.516709 0.107059
v 0.024339 0.149511 -0.218395
v 0.024339 0.123291 -0.189285
v 0.024339 0.516709 -0.189285
v 0.024339 0.490489 -0.218395
v 0.024339 0.123291 0.189285
v 0.024339 0.149511 0.218395
v 0.024339 0.490489 0.218395
v 0.024339 0.516709 0.189285
v 0.062667 0.216254 0.170462
v 0.062667 0.211974 0.170462
v 0.049044 0.211974 0.184085
v 0.049044 0.216254 0.184085
v 0.024339 0.149073 -0.219568
v 0.024339 0.122234 -0.189771
v 0.024339 0.517766 -0.189771
v 0.024339 0.490927 -0.219568
v 0.024339 0.122234 0.189771
v 0.024339 0.149073 0.219568
v 0.024339 0.490927 0.219568
v 0.024339 0.517766 0.189771
v 0.024339 0.122234 0.105886
v 0.024339 0.214114 0.219568
v 0.024339 0.425886 0.219568
v 0.024339 0.517766 0.105886
v 0.024339 0.122234 -0.105886
v 0.024339 0.214114 -0.219568
v 0.024339 0.517766 -0.105886
v 0.024339 0.425886 -0.219568
v 0.038426 0.160766 -0.188228
v 0.038426 0.150463 -0.176789
v 0.038426 0.489537 -0.176789
v 0.038426 0.479234 -0.188228
v 0.038426 0.150463 0.176789
v 0.038426 0.160766 0.188228
v 0.038426 0.479234 0.188228
v 0.038426 0.489537 0.176789
v 0.049044 0.216254 -0.184085
v 0.049044 0.211974 -0.184085
v 0.062667 0.211974 -0.170462
v 0.062667 0.216254 -0.170462
v 0.062667 0.423746 -0.170462
v 0.062667 0.428026 -0.170462
v 0.049044 0.428026 -0.184085
v 0.049044 0.423746 -0.184085
v 0.035857 0.149511 -0.218395
v 0.035857 0.160328 -0.189400
v 0.035857 0.149406 -0.177275
v 0.035857 0.123291 -0.189285
v 0.035857 0.516709 -0.189285
v 0.035857 0.490593 -0.177275
v 0.035857 0.479672 -0.189400
v 0.035857 0.490489 -0.218395
v 0.035857 0.123291 0.189285
v 0.035857 0.149406 0.177275
v 0.035857 0.160328 0.189400
v 0.035857 0.149511 0.218395
v 0.035857 0.490489 0.218395
v 0.035857 0.479672 0.189400
v 0.035857 0.490593 0.177275
v 0.035857 0.516709 0.189285
v 0.035857 0.123291 0.107059
v 0.035857 0.212941 0.218395
v 0.035857 0.427059 0.218395
v 0.035857 0.516709 0.107059
v 0.035857 0.123291 -0.107059
v 0.035857 0.212941 -0.218395
v 0.035857 0.516709 -0.107059
v 0.035857 0.427059 -0.218395
v 0.035857 0.149406 0.107059
v 0.035857 0.212941 0.189400
v 0.035857 0.427059 0.189400
v 0.035857 0.490593 0.107059
v 0.035857 0.149406 -0.107059
v 0.035857 0.212941 -0.189400
v 0.035857 0.490593 -0.107059
v 0.035857 0.427059 -0.189400
v 0.024339 0.423746 -0.183743
v 0.024339 0.428026 -0.183743
v 0.024339 0.485498 -0.108026
v 0.024339 0.485498 -0.103746
v 0.024339 0.211974 -0.183743
v 0.024339 0.216254 -0.183743
v 0.024339 0.154502 -0.103746
v 0.024339 0.154502 -0.108026
v 0.024339 0.485498 0.103746
v 0.024339 0.485498 0.108026
v 0.024339 0.428026 0.183743
v 0.024339 0.423746 0.183743
v 0.024339 0.216254 0.183743
v 0.024339 0.211974 0.183743
v 0.024339 0.154502 0.108026
v 0.024339 0.154502 0.103746
v 0.066810 0.166753 -0.172178
v 0.048422 0.160766 -0.188228
v 0.066810 0.164919 -0.170141
v 0.048422 0.150463 -0.176789
v 0.048422 0.489537 -0.176789
v 0.066810 0.475081 -0.170141
v 0.066810 0.473247 -0.172178
v 0.048422 0.479234 -0.188228
v 0.066810 0.164919 0.170141
v 0.048422 0.150463 0.176789
v 0.066810 0.166753 0.172178
v 0.048422 0.160766 0.188228
v 0.066810 0.473247 0.172178
v 0.048422 0.479234 0.188228
v 0.066810 0.475081 0.170141
v 0.048422 0.489537 0.176789
v 0.066810 0.211974 -0.108026
v 0.068270 0.216254 -0.103746
v 0.066810 0.211974 0.108026
v 0.068270 0.216254 0.103746
v 0.066810 0.428026 -0.108026
v 0.068270 0.423746 -0.103746
v 0.066810 0.428026 0.108026
v 0.068270 0.423746 0.103746
v 0.024339 0.150463 0.103746
v 0.038426 0.150463 0.116846
v 0.024339 0.148535 0.105886
v 0.038426 0.200631 0.188228
v 0.024339 0.216254 0.188228
v 0.024339 0.214114 0.190367
v 0.024339 0.423746 0.188228
v 0.038426 0.439369 0.188228
v 0.024339 0.425886 0.190367
v 0.038426 0.489537 0.116846
v 0.024339 0.489537 0.103746
v 0.024339 0.491464 0.105886
v 0.038426 0.150463 -0.116846
v 0.024339 0.150463 -0.103746
v 0.024339 0.148535 -0.105886
v 0.024339 0.216254 -0.188228
v 0.038426 0.200631 -0.188228
v 0.024339 0.214114 -0.190367
v 0.024339 0.489537 -0.103746
v 0.038426 0.489537 -0.116846
v 0.024339 0.490562 -0.107023
v 0.024339 0.491464 -0.105886
v 0.038426 0.439369 -0.188228
v 0.024339 0.423746 -0.188228
v 0.024339 0.425886 -0.190367
v 0.068270 0.216254 -0.172178
v 0.066810 0.211974 -0.172178
v 0.048422 0.200631 -0.188228
v 0.050760 0.216254 -0.188228
v 0.050760 0.423746 -0.188228
v 0.048422 0.439369 -0.188228
v 0.066810 0.428026 -0.172178
v 0.068270 0.423746 -0.172178
v 0.068270 0.475081 -0.103746
v 0.066810 0.475081 -0.108026
v 0.048422 0.489537 -0.116846
v 0.050760 0.489537 -0.103746
v 0.050760 0.150463 -0.103746
v 0.048422 0.150463 -0.116846
v 0.066810 0.164919 -0.108026
v 0.068270 0.164919 -0.103746
v 0.050760 0.216254 0.188228
v 0.048422 0.200631 0.188228
v 0.066810 0.211974 0.172178
v 0.068270 0.216254 0.172178
v 0.068270 0.423746 0.172178
v 0.066810 0.428026 0.172178
v 0.048422 0.439369 0.188228
v 0.050760 0.423746 0.188228
v 0.050760 0.489537 0.103746
v 0.048422 0.489537 0.116846
v 0.066810 0.475081 0.108026
v 0.068270 0.475081 0.103746
v 0.068270 0.164919 0.103746
v 0.066810 0.164919 0.108026
v 0.048422 0.150463 0.116846
v 0.050760 0.150463 0.103746
v 0.062667 0.423746 0.170462
v 0.062667 0.428026 0.170462
v 0.049044 0.428026 0.184085
v 0.049044 0.423746 0.184085
v 0.049044 0.154194 -0.103746
v 0.049044 0.154194 -0.108026
v 0.062667 0.166464 -0.108026
v 0.062667 0.166464 -0.103746
v 0.062667 0.166464 0.103746
v 0.062667 0.166464 0.108026
v 0.049044 0.154194 0.108026
v 0.049044 0.154194 0.103746
v 0.049044 0.485806 0.103746
v 0.049044 0.485806 0.108026
v 0.062667 0.473536 0.108026
v 0.062667 0.473536 0.103746
v 0.062667 0.473536 -0.103746
v 0.062667 0.473536 -0.108026
v 0.049044 0.485806 -0.108026
v 0.049044 0.485806 -0.103746
v 0.062325 0.216254 -0.103746
v 0.062325 0.211974 -0.108026
v 0.062325 0.428026 -0.108026
v 0.062325 0.423746 -0.103746
v 0.062325 0.428026 0.108026
v 0.062325 0.423746 0.103746
v 0.062325 0.216254 0.103746
v 0.062325 0.211974 0.108026
v 0.068270 0.227617 -0.172178
v 0.068270 0.412383 -0.172178
v 0.068270 0.412383 0.172178
v 0.068270 0.227617 0.172178
v 0.024339 0.386230 0.188228
v 0.024339 0.253770 0.188228
v 0.050760 0.227617 0.188228
v 0.050760 0.412383 0.188228
v 0.024339 0.253770 -0.188228
v 0.024339 0.386230 -0.188228
v 0.050760 0.412383 -0.188228
v 0.050760 0.227617 -0.188228
v 0.025026 0.412383 0.188228
v 0.025026 0.227617 0.188228
v 0.068270 0.227617 0.112372
v 0.068270 0.412383 0.112372
v 0.025026 0.227617 -0.188228
v 0.025026 0.412383 -0.188228
v 0.068270 0.227617 -0.112372
v 0.068270 0.412383 -0.112372
v 0.071657 0.227617 0.174186
v 0.074787 0.231983 0.175483
v 0.048663 0.239519 0.196205
v 0.052768 0.227617 0.193075
v 0.074787 0.408017 0.175483
v 0.071657 0.412383 0.174186
v 0.052768 0.412383 0.193075
v 0.048663 0.400482 0.196205
v 0.025026 0.227617 -0.193075
v 0.033559 0.239519 -0.196205
v 0.048663 0.239519 -0.196205
v 0.052768 0.227617 -0.193075
v 0.033559 0.400482 -0.196205
v 0.025026 0.412383 -0.193075
v 0.052768 0.412383 -0.193075
v 0.048663 0.400482 -0.196205
v 0.071657 0.412383 -0.174186
v 0.074787 0.408017 -0.175483
v 0.074787 0.231983 -0.175483
v 0.071657 0.227617 -0.174186
v 0.025026 0.412383 0.193075
v 0.033559 0.400482 0.196205
v 0.033559 0.239519 0.196205
v 0.025026 0.227617 0.193075
v 0.071657 0.227617 0.112372
v 0.074787 0.231983 0.114921
v 0.074787 0.408017 0.114921
v 0.071657 0.412383 0.112372
v 0.074787 0.231983 -0.114921
v 0.071657 0.227617 -0.112372
v 0.074787 0.408017 -0.114921
v 0.071657 0.412383 -0.112372
v 0.028157 0.231983 -0.196205
v 0.054065 0.231983 -0.196205
v 0.054065 0.408017 -0.196205
v 0.028157 0.408017 -0.196205
v 0.028157 0.408017 0.196205
v 0.054065 0.408017 0.196205
v 0.054065 0.231983 0.196205
v 0.028157 0.231983 0.196205
v 0.037900 0.245574 -0.193953
v 0.044322 0.245574 -0.193953
v 0.044322 0.394426 -0.193953
v 0.037900 0.394426 -0.193953
v 0.037900 0.394426 0.193953
v 0.044322 0.394426 0.193953
v 0.044322 0.245574 0.193953
v 0.037900 0.245574 0.193953
v 0.033559 0.239519 -0.193953
v 0.048663 0.239519 -0.193953
v 0.048663 0.400482 -0.193953
v 0.033559 0.400482 -0.193953
v 0.033559 0.400482 0.193953
v 0.048663 0.400482 0.193953
v 0.048663 0.239519 0.193953
v 0.033559 0.239519 0.193953
v 0.037900 0.245574 -0.192235
v 0.044322 0.245574 -0.192235
v 0.044322 0.394426 -0.192235
v 0.037900 0.394426 -0.192235
v 0.037900 0.394426 0.192235
v 0.044322 0.394426 0.192235
v 0.044322 0.245574 0.192235
v 0.037900 0.245574 0.192235
v 0.024339 0.160766 -0.188228
v 0.024339 0.150463 -0.176789
v 0.024339 0.489537 -0.176789
v 0.024339 0.479234 -0.188228
v 0.024339 0.150463 0.176789
v 0.024339 0.160766 0.188228
v 0.024339 0.479234 0.188228
v 0.024339 0.489537 0.176789
v 0.050760 0.150463 -0.176789
v 0.050760 0.160766 -0.188228
v 0.050760 0.479234 -0.188228
v 0.050760 0.489537 -0.176789
v 0.050760 0.160766 0.188228
v 0.050760 0.150463 0.176789
v 0.050760 0.489537 0.176789
v 0.050760 0.479234 0.188228
v 0.050760 0.211974 -0.188228
v 0.024339 0.211974 -0.188228
v 0.024339 0.428026 -0.188228
v 0.050760 0.428026 -0.188228
v 0.050760 0.489537 -0.108026
v 0.024339 0.489537 -0.108026
v 0.024339 0.489537 0.108026
v 0.050760 0.489537 0.108026
v 0.050760 0.150463 0.108026
v 0.024339 0.150463 0.108026
v 0.024339 0.150463 -0.108026
v 0.050760 0.150463 -0.108026
v 0.050760 0.428026 0.188228
v 0.024339 0.428026 0.188228
v 0.024339 0.211974 0.188228
v 0.050760 0.211974 0.188228
v 0.048422 0.161311 -0.186765
v 0.038426 0.161311 -0.186765
v 0.038426 0.478689 -0.186765
v 0.048422 0.478689 -0.186765
v 0.048422 0.488220 -0.176183
v 0.038426 0.488220 -0.176183
v 0.038426 0.151780 -0.176183
v 0.048422 0.151780 -0.176183
v 0.038426 0.161311 0.186765
v 0.048422 0.161311 0.186765
v 0.048422 0.478689 0.186765
v 0.038426 0.478689 0.186765
v 0.038426 0.488220 0.176183
v 0.048422 0.488220 0.176183
v 0.048422 0.151780 0.176183
v 0.038426 0.151780 0.176183
v 0.048422 0.200631 -0.186644
v 0.038426 0.200631 -0.186644
v 0.038426 0.439369 -0.186644
v 0.048422 0.439369 -0.186644
v 0.048422 0.488111 -0.116846
v 0.038426 0.488111 -0.116846
v 0.038426 0.488111 0.116846
v 0.048422 0.488111 0.116846
v 0.048422 0.151889 0.116846
v 0.038426 0.151889 0.116846
v 0.038426 0.151889 -0.116846
v 0.048422 0.151889 -0.116846
v 0.048422 0.439369 0.186644
v 0.038426 0.439369 0.186644
v 0.038426 0.200631 0.186644
v 0.048422 0.200631 0.186644
v 0.068270 0.363029 0.082753
v 0.068270 0.375603 0.076346
v 0.068270 0.384758 0.067192
v 0.068270 0.414504 -0.000000
v 0.068270 0.396481 -0.055469
v 0.068270 0.387326 0.064623
v 0.068270 0.375603 -0.076346
v 0.068270 0.384758 -0.067192
v 0.068270 0.363029 -0.082753
v 0.068270 0.230384 -0.029162
v 0.068270 0.243788 -0.055469
v 0.068270 0.243788 0.055469
v 0.068270 0.225765 -0.000000
v 0.068270 0.255511 -0.067192
v 0.068270 0.320134 -0.094369
v 0.068270 0.349296 -0.089751
v 0.068270 0.264666 0.076346
v 0.068270 0.277240 0.082753
v 0.068270 0.349296 0.089750
v 0.068270 0.290973 0.089750
v 0.075165 0.290973 -0.089751
v 0.075165 0.320134 -0.094369
v 0.075165 0.264666 -0.076346
v 0.075165 0.225765 -0.000000
v 0.075165 0.230384 0.029162
v 0.075165 0.243788 0.055469
v 0.075165 0.290973 0.089750
v 0.075165 0.349296 0.089750
v 0.075165 0.375603 0.076346
v 0.075165 0.396481 0.055469
v 0.075165 0.414504 -0.000000
v 0.075165 0.396481 -0.055469
v 0.075165 0.375603 -0.076346
v 0.075165 0.349296 -0.089751
v 0.000472 0.296813 -0.071776
v 0.000472 0.320134 -0.075469
v 0.000472 0.275775 -0.061056
v 0.000472 0.259078 -0.044360
v 0.000472 0.248359 -0.023321
v 0.000472 0.244665 -0.000000
v 0.000472 0.248359 0.023321
v 0.000472 0.259078 0.044360
v 0.000472 0.275775 0.061056
v 0.000472 0.296813 0.071776
v 0.000472 0.320134 0.075469
v 0.000472 0.343456 0.071776
v 0.000472 0.364494 0.061056
v 0.000472 0.381190 0.044360
v 0.000472 0.391910 0.023321
v 0.000472 0.395604 -0.000000
v 0.000472 0.391910 -0.023321
v 0.000472 0.381190 -0.044360
v 0.000472 0.364494 -0.061056
v 0.000472 0.343456 -0.071776
v 0.037728 0.259078 -0.044360
v 0.053803 0.259078 -0.044360
v 0.053803 0.248359 -0.023321
v 0.037728 0.248359 -0.023321
v 0.037728 0.364494 -0.061056
v 0.053803 0.364494 -0.061056
v 0.053803 0.343456 -0.071776
v 0.037728 0.343456 -0.071776
v 0.037728 0.343456 0.071776
v 0.053803 0.343456 0.071776
v 0.053803 0.364494 0.061056
v 0.037728 0.364494 0.061056
v 0.053803 0.244665 -0.000000
v 0.037728 0.244665 -0.000000
v 0.053803 0.320134 -0.075469
v 0.037728 0.320134 -0.075469
v 0.053803 0.381190 0.044360
v 0.037728 0.381190 0.044360
v 0.053803 0.248359 0.023321
v 0.037728 0.248359 0.023321
v 0.053803 0.391910 0.023321
v 0.037728 0.391910 0.023321
v 0.053803 0.259078 0.044360
v 0.037728 0.259078 0.044360
v 0.053803 0.395604 -0.000000
v 0.037728 0.395604 -0.000000
v 0.053803 0.275775 0.061056
v 0.037728 0.275775 0.061056
v 0.053803 0.296813 -0.071776
v 0.037728 0.296813 -0.071776
v 0.053803 0.391910 -0.023321
v 0.037728 0.391910 -0.023321
v 0.053803 0.296813 0.071776
v 0.037728 0.296813 0.071776
v 0.053803 0.275775 -0.061056
v 0.037728 0.275775 -0.061056
v 0.053803 0.381190 -0.044360
v 0.037728 0.381190 -0.044360
v 0.053803 0.320134 0.075469
v 0.037728 0.320134 0.075469
v 0.053803 0.320134 0.076664
v 0.037728 0.320134 0.076664
v 0.037728 0.343825 0.072912
v 0.053803 0.343825 0.072912
v 0.053803 0.382157 -0.045062
v 0.037728 0.382157 -0.045062
v 0.037728 0.365196 -0.062022
v 0.053803 0.365196 -0.062022
v 0.053803 0.275073 -0.062022
v 0.037728 0.275073 -0.062022
v 0.037728 0.258112 -0.045062
v 0.053803 0.258112 -0.045062
v 0.053803 0.296444 0.072912
v 0.037728 0.296444 0.072912
v 0.053803 0.393046 -0.023690
v 0.037728 0.393046 -0.023690
v 0.053803 0.296444 -0.072912
v 0.037728 0.296444 -0.072912
v 0.053803 0.275073 0.062022
v 0.037728 0.275073 0.062022
v 0.053803 0.396798 -0.000000
v 0.037728 0.396798 -0.000000
v 0.053803 0.320134 -0.076664
v 0.037728 0.320134 -0.076664
v 0.053803 0.258112 0.045062
v 0.037728 0.258112 0.045062
v 0.053803 0.393046 0.023690
v 0.037728 0.393046 0.023690
v 0.053803 0.247223 0.023690
v 0.037728 0.247223 0.023690
v 0.053803 0.382157 0.045062
v 0.037728 0.382157 0.045062
v 0.053803 0.243471 -0.000000
v 0.037728 0.243471 -0.000000
v 0.053803 0.365196 0.062022
v 0.037728 0.365196 0.062022
v 0.053803 0.343825 -0.072912
v 0.037728 0.343825 -0.072912
v 0.053803 0.247223 -0.023690
v 0.037728 0.247223 -0.023690
v 0.070531 0.320134 -0.078594
v 0.064703 0.320134 -0.075469
v 0.064703 0.296813 -0.071776
v 0.070531 0.295848 -0.074747
v 0.064703 0.275775 -0.061056
v 0.070531 0.273938 -0.063584
v 0.064703 0.259078 -0.044360
v 0.070531 0.256551 -0.046196
v 0.064703 0.248359 -0.023321
v 0.070531 0.245387 -0.024287
v 0.064703 0.244665 -0.000000
v 0.070531 0.241541 -0.000000
v 0.064703 0.248359 0.023321
v 0.070531 0.245387 0.024287
v 0.064703 0.259078 0.044360
v 0.070531 0.256551 0.046196
v 0.064703 0.275775 0.061056
v 0.070531 0.273938 0.063584
v 0.064703 0.296813 0.071776
v 0.070531 0.295848 0.074747
v 0.064703 0.320134 0.075469
v 0.070531 0.320134 0.078594
v 0.064703 0.343456 0.071776
v 0.070531 0.344421 0.074747
v 0.064703 0.364494 0.061056
v 0.070531 0.366331 0.063584
v 0.064703 0.381190 0.044360
v 0.070531 0.383718 0.046196
v 0.064703 0.391910 0.023321
v 0.070531 0.394881 0.024287
v 0.064703 0.395604 -0.000000
v 0.070531 0.398728 -0.000000
v 0.064703 0.391910 -0.023321
v 0.070531 0.394881 -0.024287
v 0.064703 0.381190 -0.044360
v 0.070531 0.383718 -0.046196
v 0.064703 0.364494 -0.061056
v 0.070531 0.366331 -0.063584
v 0.064703 0.343456 -0.071776
v 0.070531 0.344421 -0.074747
v 0.011724 0.266508 -0.038864
v 0.011724 0.276403 -0.031675
v 0.011724 0.257116 -0.020432
v 0.011724 0.268749 -0.016652
v 0.011724 0.257116 0.020432
v 0.011724 0.266112 -0.000000
v 0.011724 0.281136 0.053492
v 0.011724 0.288325 0.043597
v 0.011724 0.299568 0.062884
v 0.011724 0.303348 0.051251
v 0.011724 0.320000 0.053888
v 0.011724 0.340432 0.062884
v 0.011724 0.336652 0.051251
v 0.011724 0.358864 0.053492
v 0.011724 0.351675 0.043597
v 0.011724 0.373492 0.038864
v 0.011724 0.363597 0.031675
v 0.004190 0.363597 0.031675
v 0.011724 0.371251 0.016652
v 0.004190 0.371251 0.016652
v 0.011724 0.373888 -0.000000
v 0.004190 0.373888 -0.000000
v 0.011724 0.371251 -0.016652
v 0.011724 0.363597 -0.031675
v 0.011724 0.382884 -0.020432
v 0.004190 0.371251 -0.016652
v 0.004190 0.353308 -0.010823
v 0.004190 0.363597 -0.031675
v 0.004190 0.348334 -0.020586
v 0.004190 0.351675 -0.043597
v 0.004190 0.340586 -0.028334
v 0.004190 0.336652 -0.051251
v 0.011724 0.351675 -0.043597
v 0.011724 0.336652 -0.051251
v 0.011724 0.358864 -0.053492
v 0.011724 0.320000 -0.066120
v 0.011724 0.320000 -0.053888
v 0.004190 0.320000 -0.053888
v 0.011724 0.303348 -0.051251
v 0.004190 0.303348 -0.051251
v 0.011724 0.288325 -0.043597
v 0.004190 0.288325 -0.043597
v 0.004190 0.276403 -0.031675
v 0.004190 0.299414 -0.028334
v -0.003345 0.299414 -0.028334
v 0.004190 0.291666 -0.020586
v 0.004190 0.309178 -0.033308
v 0.004190 0.320000 -0.035022
v -0.003345 0.309178 -0.033308
v 0.002500 0.309543 -0.032183
v -0.003345 0.320000 -0.035022
v -0.003345 0.330822 -0.033308
v 0.002500 0.320000 -0.033839
v 0.002500 0.330457 -0.032183
v 0.002500 0.320000 -0.028821
v -0.002571 0.320000 -0.028061
v 0.002500 0.311094 -0.027411
v 0.002500 0.328906 -0.027411
v -0.002571 0.328671 -0.026688
v 0.002500 0.336941 -0.023317
v 0.002500 0.343317 -0.016941
v -0.002571 0.336494 -0.022702
v 0.002500 0.339890 -0.027376
v -0.003345 0.340586 -0.028334
v 0.002500 0.347376 -0.019890
v -0.003345 0.348334 -0.020586
v 0.002500 0.352183 -0.010457
v 0.002500 0.353839 -0.000000
v 0.002500 0.347411 -0.008906
v -0.003345 0.353308 -0.010823
v -0.003345 0.355022 -0.000000
v -0.003345 0.353308 0.010823
v 0.004190 0.355022 -0.000000
v 0.004190 0.353308 0.010823
v 0.004190 0.348334 0.020586
v 0.004190 0.340586 0.028334
v -0.003345 0.348334 0.020586
v 0.002500 0.347376 0.019890
v -0.003345 0.340586 0.028334
v -0.003345 0.330822 0.033308
v 0.002500 0.339890 0.027376
v 0.002500 0.336941 0.023317
v 0.002500 0.330457 0.032183
v 0.002500 0.328906 0.027411
v 0.002500 0.320000 0.033839
v 0.002500 0.320000 0.028821
v -0.003345 0.320000 0.035022
v 0.002500 0.309543 0.032183
v 0.002500 0.300110 0.027376
v 0.002500 0.311094 0.027411
v -0.003345 0.309178 0.033308
v -0.003345 0.299414 0.028334
v 0.004190 0.309178 0.033308
v 0.004190 0.299414 0.028334
v 0.004190 0.303348 0.051251
v 0.004190 0.320000 0.035022
v 0.004190 0.320000 0.053888
v 0.004190 0.330822 0.033308
v 0.004190 0.336652 0.051251
v 0.004190 0.351675 0.043597
v 0.004190 0.288325 0.043597
v 0.004190 0.276403 0.031675
v 0.011724 0.276403 0.031675
v 0.004190 0.291666 0.020586
v 0.004190 0.268749 0.016652
v 0.011724 0.268749 0.016652
v 0.004190 0.286692 0.010822
v 0.004190 0.266112 -0.000000
v 0.004190 0.284978 -0.000000
v 0.004190 0.268749 -0.016652
v 0.004190 0.286692 -0.010822
v -0.003345 0.286692 -0.010822
v -0.003345 0.284978 -0.000000
v 0.002500 0.287817 -0.010457
v -0.003345 0.291666 -0.020586
v 0.002500 0.292624 -0.019890
v 0.002500 0.296683 -0.016941
v 0.002500 0.300110 -0.027376
v 0.002500 0.303059 -0.023317
v -0.002571 0.303506 -0.022702
v -0.002571 0.311329 -0.026688
v 0.002500 0.305599 -0.019821
v -0.002571 0.297298 -0.016494
v 0.002500 0.300179 -0.014401
v -0.002571 0.293312 -0.008671
v 0.002500 0.292589 -0.008906
v 0.002500 0.296699 -0.007571
v -0.002571 0.291939 -0.000000
v 0.002500 0.295499 -0.000000
v 0.002500 0.291179 -0.000000
v -0.002571 0.293312 0.008671
v -0.002571 0.297298 0.016494
v 0.002500 0.296699 0.007571
v 0.002500 0.292589 0.008906
v 0.002500 0.287817 0.010457
v 0.002500 0.296683 0.016941
v 0.002500 0.303059 0.023317
v 0.002500 0.292624 0.019890
v -0.003345 0.291666 0.020586
v -0.003345 0.286692 0.010822
v -0.002571 0.303506 0.022702
v -0.002571 0.311329 0.026688
v 0.002500 0.305599 0.019821
v 0.002500 0.312429 0.023301
v 0.002500 0.300179 0.014401
v 0.002500 0.320000 0.024501
v -0.002571 0.320000 0.028061
v 0.002500 0.327571 0.023301
v 0.002500 0.334401 0.019821
v -0.002571 0.328671 0.026688
v -0.002571 0.336494 0.022702
v -0.002571 0.342702 0.016494
v 0.002500 0.343317 0.016941
v 0.002500 0.339821 0.014401
v -0.002571 0.346688 0.008671
v 0.002500 0.347411 0.008906
v -0.002571 0.348061 -0.000000
v 0.002500 0.343301 0.007571
v 0.002500 0.344501 -0.000000
v 0.002500 0.343301 -0.007571
v -0.002571 0.346688 -0.008671
v 0.002500 0.339821 -0.014401
v 0.002500 0.334401 -0.019821
v -0.002571 0.342702 -0.016494
v 0.002500 0.327571 -0.023301
v 0.002500 0.320000 -0.024501
v 0.002500 0.312429 -0.023301
v 0.002500 0.348821 -0.000000
v 0.002500 0.352183 0.010457
v 0.002500 0.286161 -0.000000
v 0.004190 0.330822 -0.033308
v 0.000472 0.386399 -0.021531
v 0.000472 0.389809 -0.000000
v 0.000472 0.341688 0.066334
v 0.000472 0.298556 0.066413
v 0.000472 0.298428 0.066392
v 0.000472 0.278967 0.056477
v 0.000472 0.263523 0.041033
v 0.000472 0.250191 -0.000000
v 0.000472 0.279065 -0.056527
v 0.000472 0.278967 -0.056477
v 0.000472 0.320134 -0.069788
v 0.000472 0.341688 -0.066334
v 0.000472 0.341572 -0.066392
v 0.011724 0.320000 0.066120
v 0.000472 0.320000 0.069809
v 0.000472 0.341572 0.066392
v 0.000472 0.320134 0.069788
v 0.000472 0.376513 -0.040962
v 0.011724 0.373492 -0.038864
v 0.000472 0.376477 0.041033
v 0.011724 0.382884 0.020432
v 0.000472 0.386392 0.021572
v 0.011724 0.386120 -0.000000
v 0.011724 0.340432 -0.062884
v 0.000472 0.320000 -0.069809
v 0.000472 0.361033 0.056477
v 0.000472 0.253608 -0.021572
v 0.011724 0.253880 -0.000000
v 0.000472 0.263580 -0.041089
v 0.011724 0.281136 -0.053492
v 0.000472 0.361111 -0.056399
v 0.000472 0.361033 -0.056477
v 0.000472 0.361111 0.056399
v 0.000472 0.253608 0.021572
v 0.011724 0.266508 0.038864
v 0.000472 0.279065 0.056527
v 0.011724 0.299568 -0.062884
v 0.000472 0.298428 -0.066392
v 0.000472 0.298556 -0.066413
v -0.010208 0.320134 0.094369
v -0.010208 0.320943 0.094241
v 0.068270 0.387326 -0.064623
v 0.068270 0.252943 0.064624
v 0.068270 0.252943 -0.064624
v 0.068270 0.386829 -0.065120
v 0.068270 0.255511 0.067192
v 0.068270 0.350800 -0.088984
v 0.068270 0.350869 0.088949
v 0.068270 0.347006 0.090113
v 0.000472 0.264633 -0.076314
v 0.068270 0.264666 -0.076346
v 0.075165 0.243788 -0.055469
v 0.075165 0.230384 -0.029162
v 0.068270 0.230384 0.029162
v 0.075165 0.264666 0.076346
v 0.068270 0.396481 0.055469
v 0.075165 0.409885 0.029162
v 0.068270 0.409885 0.029162
v 0.075165 0.409885 -0.029162
v 0.068270 0.409885 -0.029162
v 0.068270 0.320134 0.094369
v 0.075165 0.320134 0.094369
v 0.068270 0.290973 -0.089751
v 0.068270 0.277240 -0.082754
vn -0.0000 -1.0000 -0.0000
vn -0.0000 -0.0000 1.0000
vn 1.0000 -0.0000 -0.0000
vn -0.0000 -0.0000 -1.0000
vn -1.0000 -0.0000 -0.0000
vn -0.0000 1.0000 -0.0000
vn -0.0000 -0.7430 -0.6693
vn 0.7071 -0.0000 -0.7071
vn 0.7071 -0.0000 0.7071
vn 0.6693 -0.7430 -0.0000
vn 0.6693 0.7430 -0.0000
vn -0.0000 0.7430 -0.6693
vn -0.0000 -0.7430 0.6693
vn -0.0000 0.7430 0.6693
vn 0.0007 -0.0002 1.0000
vn 0.0007 0.0002 1.0000
vn 0.0007 0.0002 -1.0000
vn 0.0006 1.0000 0.0001
vn 0.0006 -1.0000 -0.0001
vn 0.0007 -0.0002 -1.0000
vn 0.0006 1.0000 -0.0001
vn 0.0006 -1.0000 0.0001
vn 0.0013 -0.7430 0.6693
vn 0.0013 0.7430 -0.6693
vn 0.0013 0.7430 0.6693
vn 0.0013 -0.7430 -0.6693
vn 0.6867 -0.5402 -0.4865
vn 0.6867 0.5402 -0.4865
vn 0.6867 -0.5402 0.4865
vn 0.6867 0.5402 0.4865
vn 0.6688 -0.7434 -0.0005
vn 0.7067 0.0007 0.7075
vn 0.7067 -0.0007 0.7075
vn 0.6688 0.7434 -0.0005
vn 0.6688 -0.7434 0.0005
vn 0.7067 0.0007 -0.7075
vn 0.6688 0.7434 0.0005
vn 0.7067 -0.0007 -0.7075
vn 1.0000 -0.0057 -0.0051
vn 1.0000 0.0057 -0.0051
vn 1.0000 -0.0057 0.0051
vn 1.0000 0.0057 0.0051
vn 1.0000 -0.0039 0.0006
vn 1.0000 -0.0007 0.0035
vn 1.0000 0.0007 0.0035
vn 1.0000 0.0039 0.0006
vn 1.0000 -0.0039 -0.0006
vn 1.0000 -0.0007 -0.0035
vn 1.0000 0.0039 -0.0006
vn 1.0000 0.0007 -0.0035
vn 0.6757 -0.0000 -0.7372
vn 0.0010 0.0003 1.0000
vn 0.0014 -1.0000 -0.0002
vn 0.6874 -0.5397 -0.4861
vn 0.6874 0.5396 -0.4861
vn 0.6874 -0.5397 0.4861
vn 0.6874 0.5396 0.4861
vn 0.6757 -0.0000 0.7372
vn 0.6367 -0.7711 -0.0000
vn 0.6367 0.7711 -0.0000
vn 1.0000 -0.0026 0.0053
vn 1.0000 0.0026 0.0053
vn -0.0138 -0.0000 -0.9999
vn 1.0000 0.0072 -0.0036
vn 1.0000 -0.0072 -0.0036
vn -0.0124 0.9999 -0.0000
vn 1.0000 -0.0072 0.0036
vn -0.0124 -0.9999 -0.0000
vn 1.0000 0.0072 0.0036
vn -0.0138 -0.0000 0.9999
vn 1.0000 -0.0026 -0.0053
vn 1.0000 0.0026 -0.0053
vn 0.5747 -0.5826 0.5747
vn 0.5747 0.5826 0.5747
vn -0.0000 -0.5826 -0.8127
vn -0.0000 0.5826 -0.8127
vn 0.5747 0.5826 -0.5747
vn 0.5747 -0.5826 -0.5747
vn -0.0000 0.5826 0.8127
vn -0.0000 -0.5826 0.8127
vn 0.8127 -0.5826 -0.0000
vn 0.8127 0.5826 -0.0000
vn 0.6315 -0.0000 -0.7754
vn -0.7071 -0.0000 0.7071
vn 0.6315 -0.0000 0.7754
vn -0.7071 -0.0000 -0.7071
vn -0.0000 0.0031 1.0000
vn -0.0000 1.0000 -0.0018
vn -0.0000 -1.0000 0.0018
vn -0.0000 -0.0031 -1.0000
vn -0.0000 0.0031 -1.0000
vn -0.0000 -0.0031 1.0000
vn -0.0000 -1.0000 -0.0018
vn -0.0000 1.0000 0.0018
vn -0.0000 0.8910 0.4540
vn -0.0000 -0.1564 0.9877
vn 0.9585 0.2016 0.2016
vn -0.0000 0.7071 0.7071
vn -0.0000 0.9877 0.1564
vn -0.0000 0.9877 -0.1564
vn -0.0000 0.8910 -0.4540
vn -0.0000 0.7071 -0.7071
vn -0.0000 0.4540 -0.8910
vn -0.0000 0.1564 -0.9877
vn -0.0000 -0.1564 -0.9877
vn -0.0000 -0.4540 -0.8910
vn -0.0000 -0.7071 -0.7071
vn -0.0000 -0.8910 -0.4540
vn -0.0000 -0.9877 -0.1564
vn -0.0000 -0.9877 0.1564
vn -0.0000 -0.8910 0.4540
vn -0.0000 -0.7071 0.7071
vn -0.0000 -0.4540 0.8910
vn -0.0000 0.4540 0.8910
vn 0.9585 -0.2016 0.2016
vn 0.9585 -0.0446 -0.2816
vn 0.9585 0.2816 -0.0446
vn 0.9585 0.0446 0.2816
vn 0.9585 0.2540 -0.1294
vn 0.9585 -0.2816 -0.0446
vn 0.9585 0.2016 -0.2016
vn 0.9585 -0.2816 0.0446
vn 0.9585 -0.2540 -0.1294
vn 0.9585 0.1294 -0.2540
vn 0.9585 0.1294 0.2540
vn 0.9585 -0.2540 0.1294
vn 0.9585 0.0446 -0.2816
vn 0.9585 0.2540 0.1294
vn 0.9585 -0.1294 0.2540
vn 0.9585 -0.1294 -0.2540
vn 0.9585 -0.2016 -0.2016
vn 0.9585 -0.0446 0.2816
vn 0.9585 0.2816 0.0446
vn -0.0000 0.1564 0.9877
vn 0.4680 0.1382 0.8729
vn 0.4680 0.4012 0.7874
vn 0.4680 0.6249 0.6249
vn 0.4680 0.7874 0.4012
vn 0.4680 0.8729 0.1382
vn 0.4680 0.8729 -0.1382
vn 0.4680 0.7874 -0.4012
vn 0.4680 0.6249 -0.6249
vn 0.4680 0.4012 -0.7874
vn 0.4680 0.1382 -0.8729
vn 0.4680 -0.1382 -0.8729
vn 0.4680 -0.4012 -0.7874
vn 0.4680 -0.6249 -0.6249
vn 0.4680 -0.7874 -0.4012
vn 0.4680 -0.8729 -0.1382
vn 0.4680 -0.8729 0.1382
vn 0.4680 -0.7874 0.4012
vn 0.4680 -0.6249 0.6249
vn 0.4680 -0.4012 0.7874
vn 0.4680 -0.1382 0.8729
vn 0.9997 -0.0117 0.0234
vn 0.9992 -0.0011 -0.0392
vn 0.9993 0.0053 -0.0370
vn 0.9990 0.0432 0.0119
vn 0.9994 0.0333 0.0046
vn 0.9986 0.0082 0.0517
vn 0.9992 0.0212 0.0330
vn 0.9992 -0.0061 -0.0388
vn 0.9994 0.0293 0.0165
vn 0.9995 -0.0248 -0.0192
vn 0.9995 0.0192 -0.0249
vn 0.9986 0.0237 0.0466
vn 0.9992 0.0061 -0.0388
vn 0.9989 0.0471 -0.0000
vn 0.9994 -0.0138 0.0307
vn 0.9992 -0.0278 -0.0278
vn -0.0449 0.9867 0.1563
vn 0.0097 0.9825 0.1859
vn 0.0319 0.9888 0.1456
vn -0.0277 0.9925 0.1187
vn -0.0000 0.9105 0.4136
vn -0.0185 0.9021 0.4311
vn 0.0073 0.8663 0.4995
vn 0.0299 0.8950 0.4451
vn 0.9993 -0.0187 0.0323
vn 0.9989 0.0353 -0.0311
vn 0.9994 0.0318 0.0109
vn 0.9993 0.0326 0.0182
vn 0.2337 -0.4403 -0.8669
vn 0.1869 -0.4789 -0.8577
vn 0.2245 -0.5051 -0.8333
vn 0.2581 -0.3990 -0.8799
vn -0.0471 -0.9866 0.1563
vn -0.0750 -0.9878 0.1362
vn 0.0072 -0.9968 0.0796
vn -0.0000 -0.9808 0.1950
vn 0.1869 -0.6678 0.7205
vn 0.1335 -0.7321 0.6680
vn 0.2032 -0.7447 0.6357
vn 0.2306 -0.6774 0.6986
vn 0.1779 -0.7113 -0.6800
vn 0.1188 -0.7209 -0.6828
vn 0.1244 -0.6522 -0.7478
vn 0.2176 -0.6890 -0.6913
vn 0.5704 -0.8193 0.0579
vn 0.6260 -0.7683 0.1336
vn 0.5978 -0.7964 0.0920
vn 0.5712 -0.8038 0.1665
vn 0.6256 0.5413 0.5619
vn 0.5775 0.5877 0.5667
vn 0.5940 0.5977 0.5385
vn 0.5684 0.5284 0.6307
vn 0.2163 0.9639 -0.1550
vn 0.1847 0.9707 -0.1536
vn 0.1686 0.9664 -0.1943
vn 0.1519 0.9848 -0.0843
vn 0.1901 -0.8733 -0.4487
vn 0.1188 -0.8966 -0.4265
vn 0.1461 -0.8463 -0.5124
vn 0.2009 -0.8528 -0.4821
vn 0.5625 -0.7487 -0.3508
vn 0.5685 -0.6981 -0.4354
vn 0.6266 -0.6973 -0.3481
vn 0.5938 -0.7227 -0.3536
vn 0.5704 -0.7971 -0.1981
vn 0.6266 -0.7707 -0.1156
vn 0.5920 -0.7973 -0.1172
vn 0.5861 -0.8060 -0.0833
vn 0.2164 0.8706 -0.4418
vn 0.1646 0.8704 -0.4639
vn 0.1523 0.8626 -0.4825
vn 0.1519 0.9105 -0.3845
vn 0.2171 -0.1473 0.9650
vn 0.1819 -0.1393 0.9734
vn 0.1523 -0.1166 0.9814
vn 0.1461 -0.2236 0.9637
vn 0.0953 0.2026 -0.9746
vn 0.2137 0.1721 -0.9616
vn 0.1779 0.1321 -0.9751
vn 0.1203 0.1352 -0.9835
vn 0.6258 0.1158 -0.7713
vn 0.6047 0.1233 -0.7868
vn 0.5590 0.1181 -0.8207
vn 0.5766 0.1977 -0.7928
vn 0.1885 0.6811 -0.7075
vn 0.1280 0.6885 -0.7138
vn 0.1461 0.7479 -0.6475
vn 0.2176 0.6913 -0.6890
vn 0.1461 0.3835 0.9119
vn 0.2009 0.4065 0.8913
vn 0.1901 0.4428 0.8763
vn 0.1188 0.4747 0.8721
vn 0.1706 0.4271 -0.8879
vn 0.1188 0.4173 -0.9010
vn 0.1461 0.5124 -0.8463
vn 0.1995 0.4843 -0.8518
vn 0.1423 -0.6680 0.7304
vn 0.1253 -0.7470 0.6529
vn 0.2164 -0.6808 0.6998
vn 0.1847 -0.6950 0.6948
vn 0.6267 -0.1338 -0.7677
vn 0.5775 -0.1424 -0.8039
vn 0.5940 -0.1670 -0.7870
vn 0.5684 -0.0568 -0.8208
vn 0.9994 0.0138 -0.0307
vn 0.9995 0.0260 0.0176
vn 0.9995 -0.0105 0.0296
vn 0.9986 -0.0523 -0.0000
vn 0.9997 -0.0186 -0.0177
vn 0.9990 0.0208 -0.0387
vn 0.9990 0.0442 0.0029
vn 0.9989 0.0114 0.0451
vn 0.1197 0.4452 -0.8874
vn 0.1232 0.4726 -0.8726
vn 0.2388 0.4440 -0.8636
vn 0.1789 0.4239 -0.8878
vn 0.9995 0.0159 0.0271
vn 0.9992 -0.0278 0.0278
vn 0.9994 -0.0199 0.0271
vn 0.9986 0.0497 -0.0162
vn 0.9997 0.0153 -0.0196
vn 0.9989 -0.0240 0.0405
vn 0.9992 -0.0392 -0.0028
vn 0.9991 -0.0426 -0.0010
vn -0.0364 0.7169 -0.6962
vn 0.0196 0.7306 -0.6825
vn 0.0422 0.6915 -0.7211
vn -0.0146 0.6853 -0.7281
vn 0.1332 -0.9710 -0.1985
vn 0.1423 -0.9673 -0.2099
vn 0.2389 -0.9585 -0.1554
vn 0.1787 -0.9745 -0.1355
vn -0.0364 -0.4406 -0.8970
vn 0.0196 -0.4234 -0.9058
vn 0.0485 -0.4708 -0.8809
vn -0.0097 -0.4804 -0.8770
vn 0.9992 -0.0276 0.0279
vn 0.9995 -0.0193 -0.0248
vn 0.9992 -0.0380 -0.0100
vn 0.9992 0.0373 0.0121
vn 0.9990 -0.0070 0.0443
vn 0.9989 -0.0362 -0.0300
vn 0.9997 -0.0178 -0.0174
vn 0.9991 0.0202 -0.0376
vn 0.1934 -0.8932 -0.4059
vn 0.1423 -0.9059 -0.3988
vn 0.1206 -0.8784 -0.4626
vn 0.2307 -0.8737 -0.4283
vn 0.1934 -0.9612 0.1967
vn 0.1335 -0.9849 0.1101
vn 0.2459 -0.9647 0.0942
vn 0.2137 -0.9618 0.1708
vn 0.2388 0.9585 0.1554
vn 0.1967 0.9745 0.1076
vn 0.1195 0.9810 0.1525
vn 0.1233 0.9759 0.1798
vn 0.9990 0.0281 -0.0338
vn 0.9995 0.0010 0.0307
vn 0.9990 -0.0284 0.0340
vn 0.9992 -0.0300 -0.0245
vn -0.0392 -0.8903 0.4536
vn -0.0750 -0.8974 0.4348
vn 0.0040 -0.9235 0.3836
vn -0.0000 -0.8753 0.4837
vn 0.0364 -0.1708 -0.9846
vn -0.0196 -0.1899 -0.9816
vn -0.0422 -0.1356 -0.9899
vn 0.0146 -0.1264 -0.9919
vn -0.0422 -0.9833 -0.1769
vn 0.0196 -0.9816 -0.1899
vn 0.0319 -0.9888 -0.1456
vn -0.0146 -0.9919 -0.1264
vn -0.0364 -0.1708 0.9846
vn 0.0196 -0.1899 0.9816
vn 0.0376 -0.1454 0.9887
vn 0.0185 -0.1381 0.9902
vn 0.9997 -0.0197 -0.0172
vn 0.9990 0.0185 -0.0408
vn 0.9996 0.0209 0.0214
vn 0.9992 -0.0292 -0.0263
vn -0.0422 0.9899 -0.1356
vn 0.0146 0.9919 -0.1264
vn 0.0393 0.9869 -0.1563
vn -0.0196 0.9816 -0.1899
vn -0.0376 -0.8853 -0.4635
vn 0.0097 -0.8770 -0.4804
vn 0.0364 -0.8970 -0.4406
vn -0.0277 -0.9073 -0.4196
vn 0.9996 -0.0104 -0.0280
vn 0.9991 0.0384 -0.0185
vn 0.9990 -0.0364 0.0262
vn 0.9995 -0.0301 0.0088
vn 0.9992 -0.0279 -0.0276
vn 0.9989 0.0438 -0.0173
vn 0.9994 0.0300 0.0153
vn 0.9992 -0.0121 0.0373
vn 0.9993 -0.0360 0.0099
vn 0.9995 0.0284 -0.0134
vn 0.9992 0.0239 0.0311
vn 0.9990 0.0221 0.0390
vn 0.9992 0.0091 0.0382
vn 0.9990 -0.0400 0.0204
vn 0.9992 -0.0231 -0.0318
vn 0.9995 0.0308 -0.0059
vn 0.9995 -0.0099 0.0315
vn 0.9995 -0.0254 -0.0173
vn 0.9992 0.0165 -0.0351
vn 0.9989 0.0439 0.0156
vn 0.9993 -0.0373 0.0093
vn 0.9992 0.0009 -0.0388
vn 0.9992 0.0379 -0.0082
vn 0.9993 0.0113 0.0367
vn 0.9993 -0.0249 -0.0293
vn 0.9989 0.0420 -0.0200
vn 0.9994 0.0132 0.0305
vn 0.9989 -0.0189 0.0421
vn 0.9994 -0.0307 -0.0138
vn 0.9992 0.0278 -0.0278
vn 0.9992 0.0388 0.0061
vn 0.9989 0.0456 -0.0117
vn 0.9995 0.0307 -0.0019
vn 0.9993 0.0036 0.0383
vn 0.9992 -0.0385 -0.0049
vn 0.9990 -0.0156 -0.0415
vn 0.0073 -0.6695 -0.7427
vn 0.0299 -0.7136 -0.6999
vn -0.0041 -0.7341 -0.6790
vn -0.0299 -0.6999 -0.7136
vn 0.9994 -0.0238 -0.0238
vn 0.9992 0.0231 -0.0318
vn 0.9995 0.0177 0.0259
vn 0.9986 -0.0517 0.0082
vn 0.9994 0.0046 -0.0333
vn 0.9989 -0.0187 -0.0432
vn 0.9992 0.0330 -0.0212
vn 0.9992 -0.0373 -0.0121
vn 0.6256 0.1076 0.7727
vn 0.5995 0.1377 0.7884
vn 0.5803 0.1731 0.7958
vn 0.5533 0.0621 0.8306
vn 0.9992 0.0373 -0.0121
vn 0.9994 -0.0333 -0.0046
vn 0.9989 -0.0074 -0.0465
vn 0.0041 0.1178 0.9930
vn 0.0379 0.1663 0.9853
vn -0.0027 0.1950 0.9808
vn -0.0185 0.1747 0.9845
vn 0.0027 0.4188 0.9081
vn 0.0299 0.4624 0.8862
vn -0.0053 0.4932 0.8699
vn -0.0379 0.4446 0.8949
vn -0.0393 -0.1563 0.9869
vn -0.0756 -0.1730 0.9820
vn -0.0690 -0.1918 0.9790
vn -0.0150 -0.1205 0.9926
vn 0.9991 -0.0391 -0.0170
vn 0.9996 0.0281 -0.0101
vn 0.9995 0.0195 0.0246
vn 0.9990 -0.0427 -0.0139
vn -0.0364 0.8970 -0.4406
vn -0.0000 0.9081 -0.4187
vn 0.0364 0.8837 -0.4667
vn -0.0196 0.8749 -0.4839
vn 0.0248 -0.1958 -0.9803
vn -0.0336 -0.2250 -0.9738
vn -0.0763 -0.1414 -0.9870
vn 0.0393 -0.1563 -0.9869
vn 0.0078 -0.9078 -0.4194
vn -0.0389 -0.9188 -0.3928
vn -0.0777 -0.8900 -0.4493
vn -0.0000 -0.9081 -0.4187
vn -0.0364 -0.8970 0.4406
vn 0.0196 -0.9058 0.4234
vn 0.0485 -0.8809 0.4708
vn 0.0254 -0.8822 0.4702
vn 0.1779 0.1757 0.9682
vn 0.1311 0.1901 0.9730
vn 0.1496 0.0832 0.9852
vn 0.2176 0.1510 0.9643
vn 0.9994 0.0259 -0.0209
vn 0.9992 0.0268 0.0281
vn 0.9995 -0.0165 0.0260
vn 0.9989 -0.0445 -0.0120
vn 0.9992 0.0304 0.0248
vn 0.9992 -0.0000 -0.0393
vn 0.9992 0.0359 -0.0160
vn -0.0449 0.4535 0.8901
vn -0.0457 0.3969 0.9167
vn -0.0772 0.4601 0.8845
vn -0.0000 0.4886 0.8725
vn 0.9992 -0.0042 0.0385
vn 0.9992 -0.0362 -0.0140
vn 0.9995 0.0237 -0.0196
vn 0.9990 0.0304 0.0318
vn -0.0393 0.7066 0.7066
vn -0.0200 0.7580 0.6519
vn -0.0771 0.6993 0.7107
vn 0.0328 0.7120 0.7014
vn 0.2337 0.8669 -0.4403
vn 0.1789 0.8648 -0.4691
vn 0.1197 0.8818 -0.4562
vn 0.2167 0.9011 -0.3755
vn 0.1818 0.4779 0.8594
vn 0.1584 0.5076 0.8469
vn 0.1219 0.4328 0.8932
vn 0.2212 0.4611 0.8594
vn -0.0000 0.2006 0.9797
vn -0.0363 0.1415 0.9893
vn -0.0231 0.2295 0.9730
vn 0.0626 0.1109 0.9919
vn 0.9992 -0.0047 0.0390
vn 0.9992 -0.0378 -0.0107
vn 0.9990 -0.0139 -0.0427
vn 0.9992 0.0391 0.0030
vn 0.1244 -0.0881 -0.9883
vn 0.2137 -0.1335 -0.9677
vn 0.1885 -0.1721 -0.9669
vn 0.1188 -0.1820 -0.9761
vn 0.2076 -0.7437 -0.6355
vn 0.1222 -0.6869 -0.7164
vn 0.2336 -0.6867 -0.6884
vn 0.1823 -0.7202 -0.6694
vn 0.1220 0.8752 0.4682
vn 0.2285 0.8761 0.4246
vn 0.1934 0.8932 0.4059
vn 0.1733 0.9088 0.3795
vn 0.2383 0.9616 -0.1362
vn 0.1869 0.9637 -0.1905
vn 0.1194 0.9802 -0.1581
vn 0.2167 0.9731 -0.0786
vn 0.9997 -0.0027 0.0257
vn 0.9993 -0.0382 0.0045
vn 0.9990 -0.0117 -0.0424
vn 0.9992 0.0355 -0.0156
vn -0.0392 -0.9869 -0.1563
vn -0.0240 -0.9963 -0.0829
vn 0.0072 -0.9726 -0.2323
vn -0.0000 -0.9940 -0.1098
vn 0.1197 -0.8818 0.4562
vn 0.2419 -0.8909 0.3846
vn 0.2388 -0.8668 0.4377
vn 0.1823 -0.8592 0.4780
vn 0.2032 0.2289 -0.9520
vn 0.2203 0.1345 -0.9661
vn 0.1869 0.1167 -0.9754
vn 0.1423 0.0993 -0.9848
vn -0.0336 -0.7067 -0.7067
vn -0.0389 -0.7525 -0.6575
vn -0.0762 -0.6946 -0.7154
vn 0.0393 -0.7066 -0.7066
vn 0.1818 0.7201 0.6697
vn 0.1585 0.7445 0.6486
vn 0.1219 0.6877 0.7157
vn 0.2285 0.7020 0.6745
vn 0.0078 -0.4879 -0.8729
vn -0.0390 -0.5125 -0.8578
vn -0.0762 -0.4395 -0.8950
vn -0.0000 -0.4837 -0.8752
vn 0.9990 -0.0155 0.0411
vn 0.9990 -0.0404 -0.0183
vn 0.9997 0.0173 -0.0192
vn 0.9989 0.0459 0.0049
vn -0.0319 -0.9888 0.1456
vn 0.0146 -0.9919 0.1264
vn 0.0364 -0.9846 0.1708
vn -0.0196 -0.9816 0.1899
vn 0.0364 0.4406 -0.8970
vn -0.0196 0.4234 -0.9058
vn -0.0319 0.4634 -0.8856
vn 0.0277 0.4874 -0.8727
vn 0.0319 0.1456 -0.9888
vn -0.0277 0.1187 -0.9925
vn -0.0364 0.1708 -0.9846
vn 0.0196 0.1899 -0.9816
vn -0.0690 0.8718 0.4849
vn -0.0097 0.9041 0.4272
vn -0.0018 0.9058 0.4238
vn -0.0336 0.9200 0.3904
vn 0.1206 0.1421 0.9825
vn 0.2203 0.1706 0.9604
vn 0.1791 0.1816 0.9669
vn 0.1584 0.2211 0.9623
vn 0.2245 -0.3772 0.8985
vn 0.2419 -0.4947 0.8347
vn 0.2333 -0.4371 0.8686
vn 0.1967 -0.4035 0.8936
vn 0.2076 -0.0770 0.9752
vn 0.1221 -0.1759 0.9768
vn 0.2383 -0.1676 0.9566
vn 0.1789 -0.1288 0.9754
vn 0.9992 -0.0355 -0.0157
vn 0.9993 0.0024 -0.0384
vn 0.9993 0.0374 0.0090
vn 0.9992 -0.0106 0.0374
vn 0.9992 -0.0109 -0.0377
vn 0.9995 0.0010 -0.0314
vn 0.9993 0.0331 -0.0174
vn 0.9991 0.0057 0.0423
vn 0.2333 -0.1569 -0.9597
vn 0.1869 -0.1905 -0.9637
vn 0.1424 -0.0998 -0.9848
vn 0.1423 -0.0993 -0.9848
vn 0.5685 0.4346 -0.6985
vn 0.6236 0.3307 -0.7084
vn 0.5998 0.3646 -0.7123
vn 0.5715 0.3338 -0.7497
vn 0.1461 0.8469 0.5113
vn 0.2164 0.8692 0.4447
vn 0.1901 0.8733 0.4487
vn 0.1280 0.8917 0.4342
vn 0.6130 -0.1674 0.7721
vn 0.5938 -0.1130 0.7966
vn 0.5672 -0.0905 0.8186
vn 0.5534 -0.1976 0.8092
vn 0.1244 -0.3892 -0.9127
vn 0.2137 -0.4260 -0.8791
vn 0.1779 -0.4663 -0.8666
vn 0.1187 -0.4837 -0.8672
vn 0.1478 -0.9855 0.0832
vn 0.1995 -0.9738 0.1089
vn 0.1779 -0.9682 0.1757
vn 0.1280 -0.9766 0.1728
vn 0.9992 0.0279 0.0276
vn 0.9995 -0.0248 0.0193
vn 0.9992 -0.0350 -0.0178
vn 0.9992 0.0121 -0.0373
vn 0.9992 -0.0388 -0.0061
vn 0.9992 0.0164 -0.0356
vn 0.9992 0.0363 0.0149
vn 0.1934 0.6620 -0.7241
vn 0.1733 0.6418 -0.7471
vn 0.2032 0.7447 -0.6357
vn 0.2203 0.6767 -0.7025
vn -0.0000 0.9945 0.1045
vn -0.0299 0.9857 0.1659
vn -0.0231 0.9963 0.0825
vn 0.0547 0.9762 0.2100
vn 0.0078 0.6794 -0.7338
vn -0.0756 0.7172 -0.6928
vn 0.0379 0.7530 -0.6569
vn -0.0000 0.6829 -0.7305
vn 0.0041 0.9235 -0.3836
vn 0.0393 0.8903 -0.4536
vn 0.0078 0.8729 -0.4879
vn -0.0630 0.9091 -0.4119
vn 0.2163 0.9647 0.1504
vn 0.1900 0.9673 0.1680
vn 0.1423 0.9836 0.1111
vn 0.1461 0.9635 0.2245
vn 0.5803 0.7033 -0.4105
vn 0.5508 0.7714 -0.3186
vn 0.6130 0.7231 -0.3184
vn 0.5821 0.7174 -0.3828
vn 0.5291 -0.3395 -0.7777
vn 0.6276 -0.3592 -0.6907
vn 0.6020 -0.3331 -0.7257
vn 0.5712 -0.4067 -0.7130
vn 0.5701 0.7971 0.1991
vn 0.6172 0.7705 0.1593
vn 0.5998 0.7884 0.1365
vn 0.5712 0.8159 0.0901
vn 0.2154 -0.4448 0.8693
vn 0.1848 -0.4463 0.8756
vn 0.1523 -0.4142 0.8973
vn 0.1681 -0.5077 0.8449
vn 0.5269 0.8457 -0.0848
vn 0.6268 0.7677 -0.1329
vn 0.5998 0.7920 -0.1138
vn 0.5582 0.8168 -0.1459
vn 0.0953 -0.9076 0.4089
vn 0.2114 -0.8809 0.4235
vn 0.1901 -0.8763 0.4427
vn 0.1188 -0.8721 0.4747
vn 0.5269 -0.4285 0.7340
vn 0.6276 -0.3476 0.6966
vn 0.5958 -0.3600 0.7180
vn 0.5611 -0.3483 0.7509
vn 0.6266 -0.5466 0.5556
vn 0.5938 -0.5596 0.5780
vn 0.5653 -0.5604 0.6054
vn 0.5684 -0.6307 0.5284
vn 0.6256 0.3411 0.7016
vn 0.6090 0.3611 0.7062
vn 0.5590 0.3868 0.7334
vn 0.5534 0.3157 0.7708
vn 0.5684 -0.7626 0.3088
vn 0.6260 -0.6894 0.3645
vn 0.5998 -0.7181 0.3530
vn 0.5611 -0.7231 0.4028
vn 0.5685 -0.5294 -0.6298
vn 0.6172 -0.5297 -0.5818
vn 0.5998 -0.5576 -0.5738
vn 0.5611 -0.6065 -0.5633
vn 0.2164 0.6892 0.6915
vn 0.1646 0.7102 0.6845
vn 0.1423 0.7304 0.6680
vn 0.1054 0.6622 0.7419
vn 0.6020 0.6961 0.3913
vn 0.5712 0.7481 0.3378
vn 0.5291 0.7318 0.4296
vn 0.6276 0.6966 0.3476
vn 0.5702 0.5542 -0.6063
vn 0.5855 0.6201 -0.5222
vn 0.6238 0.5655 -0.5396
vn 0.6090 0.5601 -0.5617
vn 0.2173 -0.9644 -0.1509
vn 0.1646 -0.9769 -0.1363
vn 0.1423 -0.9836 -0.1111
vn 0.1054 -0.9718 -0.2109
vn 0.9993 0.0104 -0.0370
vn 0.9995 0.0189 0.0243
vn 0.9992 0.0079 0.0380
vn 0.9992 -0.0353 -0.0163
vn -0.0523 0.9863 -0.1562
vn -0.0547 0.9933 -0.1019
vn 0.0379 0.9953 -0.0888
vn 0.0392 0.9869 -0.1563
vn -0.0777 -0.7024 0.7076
vn -0.0000 -0.6788 0.7343
vn -0.0336 -0.7067 0.7067
vn -0.0756 -0.7172 0.6928
vn -0.0393 -0.4536 0.8903
vn -0.0241 -0.3867 0.9219
vn 0.0040 -0.5216 0.8532
vn -0.0000 -0.4187 0.9081
vn 0.9998 0.0176 -0.0011
vn 0.9998 0.0088 0.0197
vn 0.9998 -0.0144 0.0101
vn 0.9995 -0.0261 -0.0190
vn 0.9992 0.0226 -0.0321
vn 0.9989 0.0252 0.0398
vn 0.9993 0.0305 0.0215
vn 0.9990 -0.0350 0.0279
vn -0.0425 0.6962 0.7166
vn 0.0097 0.6856 0.7279
vn 0.0485 0.7199 0.6923
vn 0.0254 0.7198 0.6937
vn -0.0485 -0.4708 0.8809
vn 0.0097 -0.4804 0.8770
vn 0.0364 -0.4406 0.8970
vn -0.0196 -0.4234 0.9058
vn 0.9996 -0.0294 -0.0050
vn 0.9992 0.0390 0.0041
vn 0.9995 0.0122 0.0289
vn 0.9993 -0.0005 0.0373
vn 0.9994 -0.0275 0.0194
vn 0.9988 -0.0333 0.0370
vn 0.9996 -0.0043 -0.0295
vn 0.9992 0.0082 0.0384
vn 0.9995 -0.0259 0.0177
vn 0.9986 -0.0082 -0.0516
vn 0.9994 0.0238 -0.0238
vn 0.9992 0.0247 -0.0305
vn 0.9993 0.0377 -0.0076
vn 0.9989 0.0023 0.0461
vn 0.9997 -0.0234 -0.0111
vn 0.9992 0.0184 -0.0342
vn 0.9992 -0.0060 -0.0388
vn 0.9992 -0.0160 -0.0359
vn 0.9994 0.0198 0.0272
vn 0.9990 -0.0408 -0.0163
vn 0.9993 0.0320 -0.0214
vn 0.9997 0.0124 0.0227
vn 0.9990 -0.0244 0.0370
vn 0.9995 -0.0294 0.0110
vn 0.9986 0.0488 -0.0188
vn 0.9995 0.0269 -0.0173
vn 0.9993 0.0148 0.0343
vn 0.9991 -0.0125 -0.0408
vn 0.9992 -0.0041 0.0390
vn 0.9992 -0.0381 0.0095
vn 0.9996 -0.0296 -0.0037
vn 0.9992 -0.0365 0.0144
vn 0.9990 -0.0060 -0.0444
vn 0.9991 -0.0216 -0.0368
vn 0.9993 0.0368 0.0064
vn 0.9993 0.0330 -0.0197
vn 0.9990 0.0219 0.0386
vn 0.9997 -0.0253 0.0054
vn 0.9993 -0.0161 -0.0350
vn 0.9992 0.0386 0.0039
vn 0.9993 -0.0006 0.0384
vn 0.9995 -0.0320 -0.0078
vn 0.9989 0.0085 -0.0458
vn 0.9990 -0.0391 0.0210
vn 0.9993 -0.0096 -0.0372
vn 0.9993 0.0375 -0.0085
vn 0.9992 -0.0128 0.0366
vn 0.9997 0.0254 -0.0047
vn 0.9989 0.0132 0.0446
vn 0.9993 -0.0302 0.0238
vn 0.9993 -0.0104 -0.0370
vn 0.9995 -0.0308 -0.0088
vn 0.9989 0.0405 0.0240
vn 0.9992 -0.0028 0.0392
vn 0.9996 -0.0127 0.0270
vn 0.9995 0.0197 0.0252
vn 0.9986 -0.0262 -0.0453
vn 0.9992 0.0252 -0.0301
vn 0.9996 0.0262 -0.0144
vn 0.9997 0.0161 -0.0199
vn 0.9989 0.0428 -0.0183
vn 0.9992 0.0156 0.0355
vn 0.9990 -0.0439 -0.0010
vn 0.9991 0.0416 -0.0092
vn 0.9993 -0.0129 0.0350
vn 0.9994 0.0002 -0.0336
vn 0.9992 0.0379 0.0102
vn -0.0393 0.1563 -0.9869
vn -0.0200 0.0818 -0.9964
vn -0.0771 0.1640 -0.9835
vn 0.0448 0.1706 -0.9843
vn -0.0073 -0.6695 0.7428
vn -0.0185 -0.6888 0.7247
vn 0.0073 -0.7428 0.6695
vn 0.0299 -0.6999 0.7136
vn 0.9993 -0.0165 0.0335
vn 0.9988 -0.0418 -0.0271
vn 0.9994 0.0271 0.0199
vn 0.9992 -0.0305 0.0247
vn -0.0772 0.4451 -0.8921
vn -0.0000 0.4187 -0.9081
vn -0.0336 0.4537 -0.8905
vn -0.0630 0.4934 -0.8675
vn 0.9994 -0.0198 0.0272
vn 0.9989 -0.0103 -0.0459
vn 0.9992 0.0350 -0.0177
vn 0.9992 0.0292 -0.0263
vn 0.9992 -0.0388 0.0060
vn 0.9992 -0.0178 -0.0349
vn 0.9994 0.0272 -0.0197
vn 0.9986 -0.0000 0.0523
vn 0.9993 -0.0326 0.0204
vn 0.9992 -0.0112 -0.0372
vn 0.9990 0.0193 -0.0399
vn 0.9990 0.0350 0.0266
vn 0.9995 -0.0116 0.0298
vn 0.9993 -0.0321 -0.0190
vn 0.9992 0.0369 0.0133
vn 0.9989 -0.0300 0.0362
vn 0.9995 -0.0253 0.0200
vn 0.9995 -0.0287 -0.0147
vn 0.9996 0.0285 -0.0030
vn 0.9995 -0.0298 0.0123
vn 0.9993 -0.0361 -0.0141
vn 0.9996 0.0286 0.0015
vn 0.9993 -0.0314 0.0225
vn 0.9988 -0.0463 -0.0140
vn 0.9996 0.0281 0.0060
vn 0.9996 -0.0209 -0.0195
vn 0.9995 0.0051 -0.0318
vn 0.9998 -0.0034 0.0173
vn 0.9995 -0.0210 -0.0246
vn 0.9992 0.0022 -0.0387
vn 0.9998 -0.0061 0.0164
vn 0.9992 -0.0312 -0.0231
vn 0.9987 0.0016 -0.0516
vn 0.9998 -0.0086 0.0153
vn 0.9998 0.0146 -0.0097
vn 0.9991 0.0334 -0.0270
vn 0.9993 -0.0050 0.0366
vn 0.9993 0.0209 -0.0303
vn 0.9988 0.0483 -0.0028
vn 0.9998 -0.0215 0.0017
vn 0.9998 0.0194 0.0093
vn 0.9992 0.0272 0.0275
vn 0.9998 -0.0074 -0.0160
vn 0.9992 0.0375 -0.0097
vn 0.9992 0.0209 0.0326
vn 0.9998 -0.0048 -0.0169
vn 0.9992 0.0387 0.0003
vn 0.9987 0.0290 0.0427
vn 0.9998 -0.0021 -0.0175
vn 0.9998 -0.0061 0.0165
vn 0.9988 -0.0123 0.0468
vn 0.9992 -0.0145 -0.0359
vn 0.9992 -0.0267 0.0281
vn 0.9995 -0.0025 -0.0322
vn 0.9995 -0.0287 0.0146
vn 0.9995 0.0038 -0.0320
vn 0.9998 -0.0109 0.0138
vn 0.9998 0.0161 -0.0071
vn 0.9993 0.0365 -0.0050
vn 0.9998 -0.0201 0.0077
vn 0.9995 -0.0319 0.0050
vn 0.9996 -0.0010 -0.0286
vn 0.9998 0.0064 0.0164
vn 0.3081 -0.1488 0.9397
vn 0.3081 0.1488 0.9397
vn 0.3076 0.8479 -0.4317
vn 0.3081 0.8477 0.4319
vn 0.3081 0.9397 0.1488
vn 0.3081 0.1488 -0.9397
vn 0.3081 0.4319 0.8477
vn 0.3081 -0.9397 -0.1488
vn 0.3078 -0.8477 -0.4321
vn 0.3080 -0.8477 -0.4320
vn 0.3080 -0.8477 -0.4319
vn 0.3081 -0.6727 -0.6727
vn 0.3080 0.6727 -0.6727
vn 0.3081 0.6727 0.6727
vn 0.3081 -0.8477 0.4319
vn 0.3081 -0.9397 0.1488
vn 0.3081 -0.4319 0.8477
vn 0.3081 0.4319 -0.8477
vn 0.3081 -0.1488 -0.9397
vn 0.3081 -0.6727 0.6727
vn 0.3081 0.9397 -0.1488
vn 0.3081 -0.4319 -0.8477
vt 0.125000 0.583333
vt 0.272743 0.583333
vt 0.272743 0.666667
vt 0.125000 0.666667
vt 0.442299 0.533777
vt 0.442299 0.533777
vt 0.486392 0.716223
vt 0.486392 0.716223
vt 0.459175 0.716223
vt 0.459175 0.716223
vt 0.486392 0.716223
vt 0.875000 0.583333
vt 0.727257 0.583333
vt 0.542954 0.582045
vt 0.542954 0.543436
vt 0.580338 0.543436
vt 0.581564 0.544662
vt 0.581564 0.582045
vt 0.616496 0.666667
vt 0.727257 0.666667
vt 0.458333 0.852257
vt 0.541667 0.852257
vt 0.541667 1.000000
vt 0.458333 1.000000
vt 0.375000 0.026670
vt 0.375000 0.083333
vt 0.407849 0.735085
vt 0.458333 0.735085
vt 0.610085 0.666667
vt 0.458333 0.166667
vt 0.541667 0.166667
vt 0.541667 0.250000
vt 0.458333 0.250000
vt 0.458333 0.000000
vt 0.541667 0.000000
vt 0.541667 0.083333
vt 0.458333 0.083333
vt 0.408777 0.665825
vt 0.408777 0.584175
vt 0.375000 0.166667
vt 0.389915 0.583333
vt 0.390621 0.582627
vt 0.408093 0.582649
vt 0.407489 0.583333
vt 0.457045 0.706564
vt 0.419662 0.706564
vt 0.418436 0.705338
vt 0.418436 0.667955
vt 0.457045 0.667954
vt 0.541667 0.397743
vt 0.458333 0.397743
vt 0.541667 0.508504
vt 0.389915 0.666667
vt 0.389915 0.717151
vt 0.383504 0.666667
vt 0.401670 0.250000
vt 0.875000 0.666667
vt 0.616496 0.583333
vt 0.625000 0.083333
vt 0.625000 0.166667
vt 0.592151 0.735084
vt 0.610085 0.717151
vt 0.383504 0.583333
vt 0.625000 0.026670
vt 0.458333 0.508504
vt 0.458333 0.741496
vt 0.541667 0.741496
vt 0.541667 0.735085
vt 0.625000 0.223330
vt 0.610085 0.532848
vt 0.592151 0.514915
vt 0.375000 0.223330
vt 0.407848 0.514915
vt 0.389915 0.532848
vt 0.557701 0.716223
vt 0.584339 0.716223
vt 0.541667 0.514915
vt 0.458333 0.514915
vt 0.610085 0.583333
vt 0.401670 0.000000
vt 0.401670 0.852257
vt 0.401670 1.000000
vt 0.598330 0.852257
vt 0.598330 1.000000
vt 0.598330 0.250000
vt 0.598330 0.397743
vt 0.875000 0.723330
vt 0.727257 0.723330
vt 0.125000 0.526670
vt 0.272743 0.526670
vt 0.401670 0.397743
vt 0.727257 0.526670
vt 0.875000 0.526670
vt 0.272743 0.723330
vt 0.125000 0.723330
vt 0.272743 0.750000
vt 0.125000 0.750000
vt 0.625000 0.250000
vt 0.625000 0.397743
vt 0.625000 0.852257
vt 0.625000 1.000000
vt 0.125000 0.500000
vt 0.272743 0.500000
vt 0.375000 0.502491
vt 0.375000 0.524180
vt 0.616496 0.530193
vt 0.594807 0.508504
vt 0.598330 0.500000
vt 0.625000 0.526670
vt 0.375000 0.725820
vt 0.375000 0.747509
vt 0.594807 0.741496
vt 0.616496 0.719807
vt 0.625000 0.723330
vt 0.598330 0.750000
vt 0.383504 0.719807
vt 0.405193 0.741496
vt 0.383504 0.530193
vt 0.405193 0.508504
vt 0.598330 0.000000
vt 0.457627 0.533071
vt 0.457627 0.515621
vt 0.458333 0.532489
vt 0.591223 0.709339
vt 0.408071 0.667373
vt 0.390621 0.667373
vt 0.407489 0.666667
vt 0.591859 0.515621
vt 0.609379 0.533141
vt 0.408071 0.709631
vt 0.415369 0.716929
vt 0.542373 0.734379
vt 0.542372 0.716929
vt 0.390621 0.533141
vt 0.408141 0.515621
vt 0.591929 0.540369
vt 0.584631 0.533071
vt 0.457627 0.716929
vt 0.457627 0.734379
vt 0.415369 0.533071
vt 0.408071 0.540369
vt 0.542373 0.515621
vt 0.542372 0.533071
vt 0.609379 0.582627
vt 0.591223 0.584175
vt 0.591223 0.665825
vt 0.457649 0.716907
vt 0.458333 0.717511
vt 0.408777 0.709339
vt 0.408093 0.667351
vt 0.408777 0.667954
vt 0.609379 0.667373
vt 0.591907 0.667351
vt 0.592511 0.666667
vt 0.513608 0.716223
vt 0.540825 0.716223
vt 0.541667 0.717511
vt 0.542351 0.533093
vt 0.541667 0.532489
vt 0.581564 0.667955
vt 0.581564 0.705338
vt 0.580338 0.706564
vt 0.542954 0.706564
vt 0.542955 0.667955
vt 0.591223 0.540661
vt 0.591907 0.582649
vt 0.591223 0.582045
vt 0.415661 0.716223
vt 0.415661 0.533777
vt 0.457649 0.533093
vt 0.457045 0.533777
vt 0.442299 0.716223
vt 0.592511 0.583333
vt 0.584339 0.533777
vt 0.542955 0.533777
vt 0.390621 0.716859
vt 0.408141 0.734379
vt 0.591859 0.734379
vt 0.609379 0.716859
vt 0.408777 0.540661
vt 0.591929 0.709631
vt 0.584631 0.716928
vt 0.584339 0.716223
vt 0.542351 0.716907
vt 0.542955 0.716223
vt 0.408071 0.582627
vt 0.408777 0.582045
vt 0.486392 0.533777
vt 0.459175 0.533777
vt 0.540825 0.533777
vt 0.513608 0.533777
vt 0.591929 0.582627
vt 0.442299 0.716223
vt 0.486392 0.543436
vt 0.459175 0.543436
vt 0.459175 0.533777
vt 0.557701 0.533777
vt 0.457045 0.716223
vt 0.408777 0.682701
vt 0.591929 0.667373
vt 0.591223 0.667954
vt 0.557701 0.533777
vt 0.457045 0.543436
vt 0.419662 0.543436
vt 0.415661 0.533777
vt 0.542955 0.716223
vt 0.457045 0.716223
vt 0.591223 0.582045
vt 0.418436 0.544662
vt 0.542955 0.533777
vt 0.542954 0.543436
vt 0.540825 0.543436
vt 0.513608 0.706564
vt 0.540825 0.706564
vt 0.513608 0.716223
vt 0.418436 0.584175
vt 0.418436 0.665825
vt 0.418436 0.582045
vt 0.408777 0.582045
vt 0.581564 0.665825
vt 0.581564 0.584175
vt 0.457045 0.582045
vt 0.408777 0.667509
vt 0.459621 0.716223
vt 0.542509 0.716223
vt 0.591223 0.665379
vt 0.408777 0.584621
vt 0.457491 0.533777
vt 0.591223 0.582491
vt 0.540379 0.533777
vt 0.459175 0.665379
vt 0.459175 0.706564
vt 0.540825 0.584621
vt 0.459175 0.584621
vt 0.459175 0.543436
vt 0.457045 0.543436
vt 0.459621 0.665825
vt 0.540825 0.665825
vt 0.537948 0.665801
vt 0.540825 0.664264
vt 0.581564 0.667955
vt 0.581564 0.582045
vt 0.459621 0.584175
vt 0.540379 0.584175
vt 0.540379 0.665825
vt 0.540825 0.665379
vt 0.486392 0.706564
vt 0.513608 0.543436
vt 0.513608 0.686083
vt 0.513608 0.686083
vt 0.487035 0.687792
vt 0.512965 0.687792
vt 0.512965 0.706564
vt 0.487035 0.706564
vt 0.512965 0.543436
vt 0.512965 0.562209
vt 0.487035 0.562209
vt 0.487035 0.543436
vt 0.486392 0.716223
vt 0.486392 0.563917
vt 0.486392 0.563917
vt 0.512965 0.716223
vt 0.487035 0.716223
vt 0.488145 0.716223
vt 0.511855 0.716223
vt 0.511855 0.533777
vt 0.511855 0.533777
vt 0.513608 0.563917
vt 0.487035 0.533777
vt 0.512965 0.533777
vt 0.486392 0.686083
vt 0.486392 0.686083
vt 0.487035 0.533777
vt 0.512965 0.533777
vt 0.512965 0.716223
vt 0.487035 0.716223
vt 0.488145 0.533777
vt 0.488145 0.533777
vt 0.488145 0.716223
vt 0.489037 0.533777
vt 0.510963 0.533777
vt 0.510963 0.533777
vt 0.489037 0.533777
vt 0.510963 0.716223
vt 0.510963 0.716223
vt 0.489037 0.716223
vt 0.489037 0.716223
vt 0.591223 0.567299
vt 0.591223 0.567299
vt 0.591223 0.682701
vt 0.591223 0.682701
vt 0.408777 0.567299
vt 0.456106 0.316968
vt 0.425324 0.377380
vt 0.425324 0.377380
vt 0.456106 0.316968
vt 0.250000 0.466712
vt 0.183032 0.456106
vt 0.183032 0.456106
vt 0.250000 0.466713
vt 0.380957 0.430247
vt 0.430247 0.380957
vt 0.444164 0.391068
vt 0.391068 0.444164
vt 0.377380 0.425324
vt 0.377380 0.425324
vt 0.425324 0.377380
vt 0.466712 0.250000
vt 0.466712 0.250000
vt 0.456106 0.183032
vt 0.456106 0.183032
vt 0.425324 0.122620
vt 0.377380 0.074676
vt 0.425324 0.122620
vt 0.377380 0.074676
vt 0.316968 0.043894
vt 0.250000 0.033288
vt 0.316968 0.043894
vt 0.250000 0.033288
vt 0.183032 0.043894
vt 0.183032 0.043894
vt 0.122620 0.074676
vt 0.122620 0.074676
vt 0.074676 0.122620
vt 0.122620 0.074676
vt 0.043894 0.183032
vt 0.074676 0.122620
vt 0.043894 0.183032
vt 0.033288 0.250000
vt 0.043894 0.183032
vt 0.043894 0.316968
vt 0.043894 0.316968
vt 0.074676 0.377380
vt 0.122620 0.425324
vt 0.183032 0.456106
vt 0.377380 0.425324
vt 0.316968 0.456106
vt 0.316968 0.456106
vt 0.069753 0.380957
vt 0.119043 0.430247
vt 0.108932 0.444164
vt 0.055836 0.391068
vt 0.250000 0.027202
vt 0.181152 0.038106
vt 0.175836 0.021746
vt 0.250000 0.010000
vt 0.122620 0.425324
vt 0.472798 0.250000
vt 0.461893 0.181152
vt 0.478254 0.175836
vt 0.490000 0.250000
vt 0.250000 0.472798
vt 0.318848 0.461894
vt 0.324164 0.478254
vt 0.250000 0.490000
vt 0.461893 0.181152
vt 0.430247 0.119043
vt 0.444164 0.108932
vt 0.038106 0.181152
vt 0.027202 0.250000
vt 0.010000 0.250000
vt 0.021746 0.175836
vt 0.430247 0.119043
vt 0.380957 0.069753
vt 0.391068 0.055836
vt 0.038106 0.318848
vt 0.021746 0.324164
vt 0.069753 0.119043
vt 0.055836 0.108932
vt 0.380957 0.069753
vt 0.318848 0.038106
vt 0.324164 0.021746
vt 0.318848 0.461894
vt 0.380957 0.430247
vt 0.318848 0.038107
vt 0.250000 0.027202
vt 0.430247 0.380957
vt 0.461894 0.318848
vt 0.478254 0.324164
vt 0.119043 0.430247
vt 0.181152 0.461894
vt 0.175836 0.478254
vt 0.181152 0.038106
vt 0.119043 0.069753
vt 0.108932 0.055836
vt 0.119043 0.069753
vt 0.069753 0.119043
vt 0.181152 0.461894
vt 0.250000 0.472798
vt 0.425324 0.122620
vt 0.425324 0.122620
vt 0.456106 0.183032
vt 0.456106 0.183032
vt 0.466712 0.250000
vt 0.122620 0.074676
vt 0.347949 0.250000
vt 0.343155 0.219732
vt 0.364299 0.212862
vt 0.370181 0.250000
vt 0.250000 0.152051
vt 0.250000 0.186343
vt 0.230329 0.189458
vt 0.219732 0.156845
vt 0.287417 0.198500
vt 0.269671 0.189458
vt 0.280268 0.156845
vt 0.307573 0.170758
vt 0.230329 0.310542
vt 0.250000 0.313657
vt 0.250000 0.347949
vt 0.219732 0.343155
vt 0.212862 0.364299
vt 0.250000 0.370182
vt 0.308496 0.230993
vt 0.299760 0.213847
vt 0.301500 0.212583
vt 0.310542 0.230329
vt 0.269671 0.310542
vt 0.200240 0.213847
vt 0.198500 0.212583
vt 0.212583 0.198500
vt 0.213847 0.200240
vt 0.219208 0.292381
vt 0.207619 0.280792
vt 0.208737 0.279980
vt 0.220020 0.291264
vt 0.234239 0.201492
vt 0.250000 0.198995
vt 0.233812 0.200178
vt 0.250000 0.197614
vt 0.233812 0.299822
vt 0.234239 0.298508
vt 0.265761 0.201492
vt 0.279980 0.208737
vt 0.220020 0.208736
vt 0.219208 0.207619
vt 0.301004 0.250000
vt 0.302386 0.250000
vt 0.299822 0.266188
vt 0.298508 0.265761
vt 0.201492 0.234239
vt 0.198995 0.250000
vt 0.197614 0.250000
vt 0.200178 0.233812
vt 0.207619 0.219208
vt 0.208736 0.220020
vt 0.298508 0.234239
vt 0.291263 0.220020
vt 0.292381 0.219208
vt 0.299822 0.233812
vt 0.280792 0.292381
vt 0.279980 0.291264
vt 0.291263 0.279980
vt 0.292381 0.280792
vt 0.250000 0.188494
vt 0.269006 0.191504
vt 0.266188 0.200178
vt 0.310542 0.269671
vt 0.301500 0.287417
vt 0.299760 0.286153
vt 0.308496 0.269006
vt 0.329242 0.192427
vt 0.250000 0.129819
vt 0.212862 0.135701
vt 0.192427 0.170758
vt 0.170758 0.192427
vt 0.156845 0.280268
vt 0.170758 0.307573
vt 0.192427 0.329242
vt 0.212583 0.301500
vt 0.287138 0.135701
vt 0.286153 0.200240
vt 0.230993 0.191504
vt 0.230993 0.308496
vt 0.250000 0.311506
vt 0.286153 0.299760
vt 0.287417 0.301500
vt 0.152051 0.250000
vt 0.343155 0.280268
vt 0.364299 0.287138
vt 0.320641 0.152771
vt 0.347229 0.179359
vt 0.156845 0.219732
vt 0.189458 0.230329
vt 0.152771 0.320641
vt 0.179359 0.347229
vt 0.191504 0.269006
vt 0.188493 0.250000
vt 0.200178 0.266188
vt 0.200240 0.286153
vt 0.213848 0.299760
vt 0.191504 0.230994
vt 0.186343 0.250000
vt 0.269007 0.308496
vt 0.266188 0.299822
vt 0.329242 0.307573
vt 0.307573 0.329242
vt 0.189458 0.269671
vt 0.201492 0.265761
vt 0.280268 0.343155
vt 0.313657 0.250000
vt 0.198500 0.287417
vt 0.311507 0.250000
vt 0.250000 0.302386
vt 0.320641 0.347229
vt 0.287138 0.364299
vt 0.280792 0.207619
vt 0.250000 0.301005
vt 0.265761 0.298508
vt 0.135701 0.287138
vt 0.152771 0.179359
vt 0.179359 0.152771
vt 0.347229 0.320641
vt 0.129819 0.250000
vt 0.135701 0.212862
vt 0.552191 0.306999
vt 0.583674 0.275878
vt 0.583674 0.275878
vt 0.614908 0.241781
vt 0.501395 0.349337
vt 0.523447 0.332192
vt 0.612158 0.240623
vt 0.614908 0.241781
vt 0.643107 0.208162
vt 0.640067 0.206864
vt 0.665855 0.178602
vt 0.681227 0.156345
vt 0.662935 0.177437
vt 0.665855 0.178602
vt 0.687829 0.143845
vt 0.678746 0.155537
vt 0.687830 0.143845
vt 0.684922 0.142420
vt 0.685981 0.143479
vt 0.672512 0.152090
vt 0.672512 0.152090
vt 0.651467 0.171620
vt 0.651468 0.171620
vt 0.623602 0.198677
vt 0.591511 0.230403
vt 0.623957 0.198467
vt 0.592147 0.229881
vt 0.559346 0.262801
vt 0.558413 0.263615
vt 0.529094 0.294220
vt 0.527800 0.295196
vt 0.504689 0.321395
vt 0.503009 0.322341
vt 0.529094 0.294220
vt 0.488732 0.341997
vt 0.486753 0.342732
vt 0.488732 0.341997
vt 0.482800 0.354203
vt 0.480759 0.354627
vt 0.485533 0.356938
vt 0.487275 0.356807
vt 0.500358 0.349307
vt 0.135665 0.213085
vt 0.129856 0.250235
vt 0.320517 0.347292
vt 0.370144 0.250235
vt 0.135803 0.287340
vt 0.250000 0.129819
vt 0.287204 0.135734
vt 0.320740 0.152870
vt 0.347093 0.320777
vt 0.152907 0.320777
vt 0.212862 0.135701
vt 0.250000 0.129819
vt 0.152684 0.179530
vt 0.364197 0.287339
vt 0.364335 0.213085
vt 0.152771 0.179359
vt 0.287066 0.364311
vt 0.347316 0.179530
vt 0.513608 0.676639
vt 0.527694 0.673274
vt 0.537948 0.665402
vt 0.540379 0.585736
vt 0.540379 0.664264
vt 0.548886 0.658702
vt 0.561341 0.642718
vt 0.565633 0.625000
vt 0.561341 0.607282
vt 0.548886 0.591298
vt 0.537948 0.584598
vt 0.527693 0.576726
vt 0.513608 0.573361
vt 0.459621 0.664264
vt 0.459621 0.585736
vt 0.451114 0.591298
vt 0.438659 0.607282
vt 0.434367 0.625000
vt 0.438659 0.642718
vt 0.451114 0.658702
vt 0.540268 0.585438
vt 0.537948 0.584199
vt 0.540825 0.584175
vt 0.540825 0.585736
vt 0.462052 0.665801
vt 0.459175 0.665825
vt 0.459175 0.664264
vt 0.459175 0.584175
vt 0.462052 0.584199
vt 0.459175 0.585736
vt 0.509729 0.568942
vt 0.509252 0.568398
vt 0.500000 0.565122
vt 0.490748 0.568398
vt 0.486392 0.573361
vt 0.472306 0.576726
vt 0.462052 0.584598
vt 0.462052 0.665402
vt 0.472306 0.673274
vt 0.486392 0.676639
vt 0.509751 0.681033
vt 0.490748 0.681602
vt 0.500000 0.684878
vt 0.508525 0.681859
vt 0.509252 0.681602
vt 0.150000 1.000000
vt 0.871925 0.976639
vt 0.878075 0.976639
vt 0.900000 0.976639
vt 0.500000 0.500000
vt 0.498614 0.514341
vt 0.500000 0.514341
vt 0.900000 0.960737
vt 0.900000 1.000000
vt 0.850000 1.000000
vt 0.850000 0.960737
vt 0.871925 0.960737
vt 0.878075 0.960737
vt 0.800000 1.000000
vt 0.800000 0.960737
vt 0.850000 0.960737
vt 0.750000 1.000000
vt 0.750000 0.960737
vt 0.700000 1.000000
vt 0.700000 0.960737
vt 0.650000 1.000000
vt 0.650000 0.960737
vt 0.650000 0.960737
vt 0.600000 1.000000
vt 0.600000 0.960737
vt 0.621924 0.960737
vt 0.628075 0.960737
vt 0.350000 0.960737
vt 0.350000 1.000000
vt 0.300000 1.000000
vt 0.300000 0.960737
vt 0.250000 1.000000
vt 0.250000 0.960737
vt 0.200000 1.000000
vt 0.200000 0.960737
vt 0.150000 0.960737
vt 0.550000 0.960737
vt 0.550000 1.000000
vt 0.500000 1.000000
vt 0.500000 0.960737
vt 0.576100 0.960737
vt 0.600000 0.960737
vt 0.550000 0.960737
vt 0.950000 0.960737
vt 0.950000 1.000000
vt 0.900000 0.960737
vt 0.923900 0.960737
vt 1.000000 0.960737
vt 1.000000 1.000000
vt 0.950000 0.960737
s 0
usemtl M_Noir_Bleuté
f 5/1/1 24/2/1 23/3/1 6/4/1
f 331/7/2 323/8/2 237/9/2 274/10/2 324/11/2
f 8/12/2 27/13/2 75/13/2 60/12/2
f 44/19/4 28/20/4 76/20/4 77/19/4
f 20/21/2 19/22/2 2/23/2 1/24/2
f 51/25/5 6/26/5 54/26/5
f 134/27/4 138/28/4 103/28/4 99/27/4
f 140/29/4 44/19/4 77/19/4 105/29/4
f 10/30/5 12/31/5 3/32/5 4/33/5
f 1/34/5 2/35/5 11/36/5 9/37/5
f 233/38/1 246/39/1 270/39/1 289/38/1
f 6/26/5 9/37/5 10/30/5 5/40/5
f 141/41/3 114/42/3 25/43/3 247/44/3
f 4/33/4 3/32/4 13/50/4 17/51/4
f 38/52/1 13/50/1 62/50/1 63/52/1
f 137/53/6 133/54/6 98/54/6 102/53/6
f 43/55/4 137/53/4 102/53/4 70/55/4
f 47/56/5 4/33/5 59/33/5
f 27/13/6 8/12/6 7/57/6 28/20/6
f 27/13/2 45/58/2 74/58/2 75/13/2
f 11/36/5 7/59/5 8/60/5 12/31/5
f 135/61/7 136/62/7 101/62/7 100/61/7
f 13/50/1 3/32/1 61/32/1 62/50/1
f 141/41/2 42/63/2 73/63/2 106/41/2
f 52/64/5 57/59/5 7/59/5
f 38/52/8 39/65/8 17/51/8 13/50/8
f 19/22/9 20/21/9 40/66/9 41/67/9
f 23/3/10 24/2/10 42/63/10 43/55/10
f 27/13/11 28/20/11 44/19/11 45/58/11
f 6/4/4 23/3/4 71/3/4 54/4/4
f 133/54/12 134/27/12 99/27/12 98/54/12
f 4/33/6 17/51/6 65/51/6 59/33/6
f 41/67/1 139/68/1 104/68/1 66/67/1
f 49/69/5 8/60/5 60/60/5
f 24/2/2 5/1/2 58/1/2 72/2/2
f 42/63/2 24/2/2 72/2/2 73/63/2
f 131/70/13 132/71/13 97/71/13 96/70/13
f 138/28/6 40/66/6 69/66/6 103/28/6
f 5/40/5 4/33/5 47/56/5 46/72/5
f 129/73/14 130/74/14 95/74/14 94/73/14
f 144/77/3 142/78/3 39/65/3 38/52/3
f 138/28/3 139/68/3 41/67/3 40/66/3
f 141/41/3 137/53/3 43/55/3 42/63/3
f 140/29/3 143/79/3 45/58/3 44/19/3
f 39/65/6 142/78/6 107/78/6 64/65/6
f 50/80/5 55/34/5 1/34/5
f 23/3/4 43/55/4 70/55/4 71/3/4
f 144/77/1 38/52/1 63/52/1 109/77/1
f 46/72/5 58/40/5 5/40/5
f 132/71/2 144/77/2 109/77/2 97/71/2
f 1/34/5 6/26/5 51/25/5 50/80/5
f 40/66/6 20/21/6 68/21/6 69/66/6
f 143/79/1 131/70/1 96/70/1 108/79/1
f 2/23/1 19/22/1 67/22/1 56/23/1
f 142/78/2 129/73/2 94/73/2 107/78/2
f 89/81/15 68/21/15 55/24/15 50/82/15
f 67/22/16 90/83/16 53/84/16 56/23/16
f 61/32/17 48/85/17 85/86/17 62/50/17
f 76/20/18 57/57/18 52/87/18 93/88/18
f 46/89/19 81/90/19 72/2/19 58/1/19
f 47/56/20 59/33/20 65/51/20 78/91/20
f 82/92/21 49/93/21 60/12/21 75/13/21
f 54/4/22 71/3/22 86/94/22 51/95/22
f 51/95/23 86/94/23 89/96/23 50/97/23
f 49/98/24 82/99/24 85/86/24 48/85/24
f 93/100/25 52/101/25 53/84/25 90/83/25
f 81/90/26 46/89/26 47/102/26 78/103/26
f 79/104/27 80/105/27 81/90/27 78/103/27
f 83/106/28 84/107/28 85/108/28 82/109/28
f 87/110/29 88/111/29 89/96/29 86/94/29
f 91/112/30 92/113/30 93/114/30 90/115/30
f 70/55/31 87/116/31 86/94/31 71/3/31
f 88/117/32 69/66/32 68/21/32 89/81/32
f 66/67/33 91/112/33 90/83/33 67/22/33
f 92/113/34 77/19/34 76/20/34 93/88/34
f 80/118/35 73/63/35 72/2/35 81/90/35
f 64/65/36 79/119/36 78/91/36 65/51/36
f 74/58/37 83/106/37 82/92/37 75/13/37
f 84/107/38 63/52/38 62/50/38 85/86/38
f 94/73/39 95/74/39 80/118/39 79/119/39
f 96/70/40 97/71/40 84/107/40 83/106/40
f 98/54/41 99/27/41 88/117/41 87/116/41
f 100/61/42 101/62/42 92/113/42 91/112/42
f 102/53/43 98/54/43 87/116/43 70/55/43
f 99/27/44 103/28/44 69/66/44 88/117/44
f 104/68/45 100/61/45 91/112/45 66/67/45
f 101/62/46 105/29/46 77/19/46 92/113/46
f 95/74/47 106/41/47 73/63/47 80/118/47
f 107/78/48 94/73/48 79/119/48 64/65/48
f 108/79/49 96/70/49 83/106/49 74/58/49
f 97/71/50 109/77/50 63/52/50 84/107/50
f 45/58/2 143/79/2 108/79/2 74/58/2
f 53/120/5 2/35/5 56/35/5
f 139/68/4 135/61/4 100/61/4 104/68/4
f 28/20/4 7/57/4 57/57/4 76/20/4
f 17/51/6 39/65/6 64/65/6 65/51/6
f 3/32/5 48/85/5 61/32/5
f 136/62/1 140/29/1 105/29/1 101/62/1
f 48/85/5 3/32/5 8/60/5 49/69/5
f 130/74/6 141/41/6 106/41/6 95/74/6
f 19/22/1 41/67/1 66/67/1 67/22/1
f 20/21/6 1/24/6 55/24/6 68/21/6
f 7/59/5 2/35/5 53/120/5 52/64/5
f 111/121/3 16/122/3 142/78/3 250/123/3
f 22/125/3 115/126/3 137/53/3 235/127/3
f 120/128/12 119/129/12 165/129/12 168/128/12
f 31/130/12 30/131/12 171/131/12 170/130/12
f 113/132/1 18/133/1 187/133/1 179/132/1
f 118/134/7 117/135/7 161/135/7 164/134/7
f 37/136/13 36/137/13 167/137/13 166/136/13
f 21/138/6 112/139/6 178/139/6 186/138/6
f 35/140/14 34/141/14 163/141/14 162/140/14
f 16/122/6 111/121/6 190/121/6 182/122/6
f 15/142/4 120/128/4 168/128/4 184/142/4
f 110/143/1 15/142/1 184/142/1 192/143/1
f 119/129/6 26/144/6 183/144/6 165/129/6
f 36/137/2 110/143/2 192/143/2 167/137/2
f 251/145/6 243/146/6 282/146/6 269/145/6
f 138/28/3 112/139/3 21/147/3 238/148/3
f 406/149/3 31/130/3 22/150/3 427/151/3
f 140/29/3 116/152/3 29/153/3 244/154/3
f 322/155/3 239/156/3 241/157/3 139/68/3 138/28/3 238/148/3 237/9/3 323/8/3
f 144/77/3 15/142/3 110/158/3 257/159/3
f 404/165/3 37/136/3 253/166/3 423/167/3
f 402/169/3 35/140/3 111/170/3 419/171/3
f 254/173/3 143/79/3 140/29/3 244/154/3 243/146/3 251/145/3
f 110/143/3 36/137/3 405/174/3 420/175/3
f 117/135/3 118/134/3 130/74/3 129/73/3
f 119/129/3 120/128/3 132/71/3 131/70/3
f 121/176/3 122/177/3 134/27/3 133/54/3
f 123/178/3 124/179/3 136/62/3 135/61/3
f 115/126/3 121/176/3 133/54/3 137/53/3
f 122/177/3 112/139/3 138/28/3 134/27/3
f 113/132/3 123/178/3 135/61/3 139/68/3
f 124/179/3 116/152/3 140/29/3 136/62/3
f 118/134/3 114/42/3 141/41/3 130/74/3
f 16/122/3 117/135/3 129/73/3 142/78/3
f 26/144/3 119/129/3 131/70/3 143/79/3
f 120/128/3 15/142/3 144/77/3 132/71/3
f 34/141/3 35/140/3 402/169/3 403/180/3
f 36/137/3 37/136/3 404/165/3 405/174/3
f 30/131/3 31/130/3 406/149/3 407/168/3
f 32/181/3 33/182/3 408/183/3 409/124/3
f 246/39/3 233/38/3 235/127/3 137/53/3 141/41/3 247/44/3
f 408/183/3 33/182/3 18/184/3 431/185/3
f 18/133/3 113/132/3 139/68/3 241/157/3
f 25/186/3 34/141/3 403/180/3 428/187/3
f 326/188/3 248/189/3 250/123/3 142/78/3 144/77/3 257/159/3 256/190/3 327/191/3
f 253/192/3 26/144/3 143/79/3 254/173/3
f 318/194/51 258/195/51 261/196/51 329/188/51
f 21/138/3 30/131/3 407/168/3 432/198/3
f 335/191/4 327/191/4 256/190/4 262/190/4 328/191/4
f 29/200/3 32/181/3 409/124/3 424/201/3
f 162/140/3 163/141/3 164/134/3 161/135/3
f 166/136/3 167/137/3 168/128/3 165/129/3
f 170/130/3 171/131/3 172/177/3 169/176/3
f 174/182/3 175/181/3 176/179/3 173/178/3
f 185/125/3 170/130/3 169/176/3 177/126/3
f 171/131/3 186/138/3 178/139/3 172/177/3
f 187/133/3 174/182/3 173/178/3 179/132/3
f 175/181/3 188/200/3 180/152/3 176/179/3
f 163/141/3 189/186/3 181/42/3 164/134/3
f 190/121/3 162/140/3 161/135/3 182/122/3
f 191/192/3 166/136/3 165/129/3 183/144/3
f 167/137/3 192/143/3 184/142/3 168/128/3
f 25/186/2 114/42/2 181/42/2 189/186/2
f 33/182/7 32/181/7 175/181/7 174/182/7
f 122/177/13 121/176/13 169/176/13 172/177/13
f 115/126/4 22/125/4 185/125/4 177/126/4
f 22/125/6 31/130/6 170/130/6 185/125/6
f 124/179/14 123/178/14 173/178/14 176/179/14
f 29/200/4 116/152/4 180/152/4 188/200/4
f 30/131/4 21/138/4 186/138/4 171/131/4
f 121/176/1 115/126/1 177/126/1 169/176/1
f 26/144/52 253/192/52 191/192/52 183/144/52
f 18/133/4 33/182/4 174/182/4 187/133/4
f 112/139/2 122/177/2 172/177/2 178/139/2
f 32/181/1 29/200/1 188/200/1 175/181/1
f 123/178/2 113/132/2 179/132/2 173/178/2
f 34/141/6 25/186/6 189/186/6 163/141/6
f 116/152/6 124/179/6 176/179/6 180/152/6
f 111/121/2 35/140/2 162/140/2 190/121/2
f 114/42/1 118/134/1 164/134/1 181/42/1
f 253/192/53 37/136/53 166/136/53 191/192/53
f 117/135/4 16/122/4 182/122/4 161/135/4
f 320/213/58 278/214/58 281/156/58 325/215/58
f 273/216/59 286/217/59 289/38/59 270/39/59
f 285/220/60 266/221/60 269/145/60 282/146/60
f 233/38/3 427/223/3 22/150/3 235/127/3
f 432/198/3 237/224/3 238/148/3 21/147/3
f 239/156/3 431/225/3 18/184/3 241/157/3
f 424/201/3 243/226/3 244/154/3 29/153/3
f 428/187/3 246/227/3 247/44/3 25/43/3
f 248/189/3 419/228/3 111/170/3 250/123/3
f 251/145/3 423/229/3 253/166/3 254/173/3
f 420/175/3 256/230/3 257/159/3 110/158/3
f 248/189/1 261/196/1 153/189/1 198/196/1
f 228/231/1 277/232/1 125/232/1 316/231/1
f 246/227/3 428/187/3 200/219/3 199/227/3
f 277/232/1 274/10/1 128/9/1 125/232/1
f 230/233/6 265/212/6 157/212/6 313/233/6
f 274/10/1 237/9/1 205/9/1 128/9/1
f 239/156/6 281/156/6 293/156/6 204/156/6
f 258/195/1 226/234/1 310/234/1 156/235/1
f 243/226/3 424/201/3 202/201/3 201/226/3
f 261/196/1 258/195/1 156/235/1 153/189/1
f 286/217/2 228/237/2 316/237/2 298/217/2
f 269/145/4 266/221/4 306/221/4 309/145/4
f 270/39/4 246/39/4 199/39/4 294/39/4
f 232/238/3 468/239/3 471/240/3
f 278/214/6 232/246/6 315/246/6 290/214/6
f 262/190/6 256/190/6 193/190/6 160/190/6
f 281/156/6 278/214/6 290/214/6 293/156/6
f 419/228/3 248/189/3 198/196/3 197/228/3
f 226/243/4 273/216/4 297/216/4 310/243/4
f 266/221/4 230/244/4 313/244/4 306/221/4
f 273/216/4 270/39/4 294/39/4 297/216/4
f 423/229/3 251/145/3 196/145/3 195/229/3
f 251/145/4 269/145/4 309/145/4 196/145/4
f 427/223/3 233/38/3 208/38/3 207/223/3
f 282/146/2 243/146/2 201/146/2 302/146/2
f 289/38/2 286/217/2 298/217/2 301/38/2
f 256/230/3 420/175/3 194/210/3 193/230/3
f 237/224/3 432/198/3 206/207/3 205/224/3
f 232/245/2 285/220/2 305/220/2 315/245/2
f 285/220/2 282/146/2 302/146/2 305/220/2
f 233/38/2 289/38/2 301/38/2 208/38/2
f 265/212/6 262/190/6 160/190/6 157/212/6
f 431/225/3 239/156/3 204/156/3 203/225/3
f 277/232/58 321/247/58 324/11/58 274/10/58
f 334/188/4 329/188/4 261/196/4 248/189/4 326/188/4
f 265/212/51 319/248/51 328/191/51 262/190/51
f 318/194/1 329/188/1 349/188/1 357/194/1
f 330/155/2 325/215/2 281/156/2 239/156/2 322/155/2
f 333/249/6 320/213/6 343/213/6 365/250/6
f 323/8/2 331/7/2 330/155/2 322/155/2
f 329/188/1 334/188/1 346/188/1 349/188/1
f 363/251/3 364/252/3 342/253/3 339/254/3
f 327/191/4 335/191/4 334/188/4 326/188/4
f 355/255/3 368/256/3 366/257/3 356/258/3
f 334/188/5 335/191/5 351/191/5 346/188/5
f 320/213/6 325/215/6 344/215/6 343/213/6
f 331/7/1 324/11/1 341/11/1 361/259/1
f 336/260/1 318/194/1 357/194/1 367/261/1
f 335/191/6 328/191/6 352/191/6 351/191/6
f 339/254/9 342/253/9 375/262/9 376/263/9
f 340/264/5 345/265/5 391/265/5 392/264/5
f 350/266/1 353/267/1 388/267/1 389/266/1
f 324/11/1 321/247/1 338/247/1 341/11/1
f 328/191/6 319/248/6 354/248/6 352/191/6
f 325/215/6 330/155/6 358/155/6 344/215/6
f 319/248/6 337/268/6 369/268/6 354/248/6
f 355/255/8 356/258/8 371/269/8 372/270/8
f 337/268/2 336/260/2 367/261/2 369/268/2
f 330/155/5 331/7/5 361/259/5 358/155/5
f 332/271/4 333/249/4 365/250/4 362/272/4
f 339/254/73 376/263/73 341/11/73 338/247/73
f 343/213/74 344/215/74 375/262/74 342/253/74
f 370/273/75 371/269/75 349/188/75 346/188/75
f 351/191/76 352/191/76 372/270/76 373/274/76
f 355/255/77 372/270/77 352/191/77 354/248/77
f 357/194/78 349/188/78 371/269/78 356/258/78
f 374/275/79 375/262/79 344/215/79 358/155/79
f 361/259/80 341/11/80 376/263/80 377/276/80
f 363/251/81 339/254/81 338/247/81 362/272/81
f 365/250/82 343/213/82 342/253/82 364/252/82
f 364/252/83 363/251/83 362/272/83 365/250/83
f 377/276/84 374/275/84 358/155/84 361/259/84
f 356/258/81 366/257/81 367/261/81 357/194/81
f 354/248/82 369/268/82 368/256/82 355/255/82
f 369/268/85 367/261/85 366/257/85 368/256/85
f 373/274/86 370/273/86 346/188/86 351/191/86
f 321/247/1 332/271/1 362/272/1 338/247/1
f 347/277/4 348/278/4 371/269/4 370/273/4
f 353/267/4 350/266/4 373/274/4 372/270/4
f 359/265/2 345/265/2 375/262/2 374/275/2
f 340/264/2 360/279/2 377/276/2 376/263/2
f 360/279/2 359/265/2 374/275/2 377/276/2
f 350/266/4 347/277/4 370/273/4 373/274/4
f 345/265/2 340/264/2 376/263/2 375/262/2
f 348/278/4 353/267/4 372/270/4 371/269/4
f 359/265/3 360/279/3 393/279/3 390/265/3
f 345/265/1 359/265/1 390/265/1 391/265/1
f 348/278/6 347/277/6 386/277/6 387/278/6
f 353/267/5 348/278/5 387/278/5 388/267/5
f 347/277/3 350/266/3 389/266/3 386/277/3
f 360/279/6 340/264/6 392/264/6 393/279/6
f 608/293/95 606/294/95 521/295/95 522/296/95
f 601/297/96 638/298/96 526/299/96 534/300/96
f 605/301/97 607/302/97 862/303/97 488/304/97
f 606/294/98 604/305/98 554/306/98 521/307/98
f 610/308/99 608/293/99 522/296/99 532/309/99
f 612/310/100 610/308/100 532/309/100 538/311/100
f 614/312/101 612/311/101 538/311/101 542/312/101
f 616/313/102 614/314/102 542/312/102 546/315/102
f 618/316/103 616/315/103 546/315/103 552/316/103
f 620/317/104 618/318/104 552/318/104 558/319/104
f 622/320/105 620/317/105 558/319/105 529/321/105
f 624/322/106 622/320/106 529/320/106 530/323/106
f 626/324/107 624/325/107 530/323/107 536/324/107
f 628/326/108 626/327/108 536/324/108 540/328/108
f 630/329/109 628/330/109 540/330/109 544/329/109
f 632/331/110 630/329/110 544/329/110 550/332/110
f 634/333/111 632/332/111 550/332/111 556/333/111
f 636/334/112 634/333/112 556/333/112 525/334/112
f 638/335/113 636/334/113 525/334/113 526/335/113
f 604/336/114 602/337/114 548/338/114 554/305/114
f 635/339/115 637/340/115 498/341/115 497/342/115
f 621/343/116 623/344/116 493/345/116 872/346/116
f 524/334/112 557/333/112 517/333/112 518/347/112
f 528/320/105 559/319/105 510/317/105 511/320/105
f 611/348/117 613/349/117 490/350/117 489/351/117
f 600/352/118 603/353/118 486/354/118 487/355/118
f 613/356/119 615/357/119 491/358/119 490/350/119
f 629/359/120 631/360/120 496/361/120 867/362/120
f 615/363/121 617/364/121 865/365/121 491/358/121
f 631/360/122 633/366/122 869/367/122 496/361/122
f 627/368/123 629/359/123 867/362/123 495/369/123
f 617/370/124 619/371/124 492/372/124 865/365/124
f 603/373/125 605/374/125 488/304/125 486/354/125
f 633/366/126 635/339/126 497/342/126 869/367/126
f 619/375/127 621/376/127 872/346/127 492/372/127
f 607/377/128 609/378/128 863/379/128 862/303/128
f 637/380/129 639/381/129 499/382/129 498/341/129
f 623/383/130 625/384/130 494/385/130 493/345/130
f 625/386/131 627/387/131 495/369/131 494/385/131
f 639/388/132 600/389/132 487/355/132 499/382/132
f 609/378/133 611/348/133 489/351/133 863/379/133
f 559/319/104 553/318/104 509/316/104 510/317/104
f 557/333/111 551/332/111 516/331/111 517/333/111
f 555/306/114 549/338/114 500/338/114 502/336/114
f 553/318/103 547/315/103 508/315/103 509/316/103
f 551/332/110 545/329/110 515/329/110 516/331/110
f 549/338/134 535/300/134 501/297/134 500/338/134
f 547/315/102 543/390/102 507/391/102 508/315/102
f 545/329/109 541/330/109 514/326/109 515/329/109
f 543/312/101 539/392/101 506/393/101 507/391/101
f 541/330/108 537/324/108 513/327/108 514/326/108
f 539/311/100 533/309/100 505/394/100 506/393/100
f 537/324/107 531/323/107 512/395/107 513/327/107
f 535/297/96 527/299/96 519/335/96 501/297/96
f 533/309/99 523/296/99 504/293/99 505/394/99
f 531/323/106 528/320/106 511/320/106 512/395/106
f 527/299/113 524/334/113 518/347/113 519/335/113
f 523/296/95 520/307/95 503/307/95 504/293/95
f 524/334/3 527/299/3 597/299/3 566/334/3
f 548/338/5 534/297/5 582/297/5 576/338/5
f 530/323/5 529/320/5 563/320/5 594/323/5
f 535/300/3 549/338/3 577/338/3 583/300/3
f 559/319/3 528/320/3 562/320/3 561/319/3
f 540/328/5 536/324/5 590/324/5 586/328/5
f 558/319/5 552/318/5 572/318/5 560/319/5
f 528/320/3 531/323/3 595/323/3 562/320/3
f 537/324/3 541/330/3 587/330/3 591/324/3
f 553/318/3 559/319/3 561/319/3 573/318/3
f 532/309/5 522/296/5 598/296/5 592/309/5
f 550/332/5 544/329/5 580/329/5 574/332/5
f 523/296/3 533/309/3 593/309/3 599/296/3
f 545/329/3 551/332/3 575/332/3 581/329/3
f 542/312/5 538/311/5 588/311/5 584/312/5
f 521/307/5 554/306/5 568/306/5 571/307/5
f 539/392/3 543/312/3 585/312/3 589/392/3
f 534/300/5 526/299/5 596/299/5 582/300/5
f 552/316/5 546/315/5 578/315/5 572/316/5
f 555/306/3 520/307/3 570/307/3 569/306/3
f 520/307/98 555/306/98 502/336/98 503/307/98
f 551/332/3 557/333/3 565/333/3 575/332/3
f 533/309/3 539/311/3 589/311/3 593/309/3
f 529/321/5 558/319/5 560/319/5 563/321/5
f 526/335/5 525/334/5 567/334/5 596/335/5
f 556/333/5 550/332/5 574/332/5 564/333/5
f 538/311/5 532/309/5 592/309/5 588/311/5
f 543/390/3 547/315/3 579/315/3 585/390/3
f 520/307/3 523/296/3 599/296/3 570/307/3
f 557/333/3 524/334/3 566/334/3 565/333/3
f 546/315/5 542/312/5 584/312/5 578/315/5
f 522/296/5 521/295/5 571/295/5 598/296/5
f 549/338/3 555/306/3 569/306/3 577/338/3
f 531/323/3 537/324/3 591/324/3 595/323/3
f 554/305/5 548/338/5 576/338/5 568/305/5
f 536/324/5 530/323/5 594/323/5 590/324/5
f 525/334/5 556/333/5 564/333/5 567/334/5
f 541/330/3 545/329/3 581/329/3 587/330/3
f 544/329/5 540/330/5 586/330/5 580/329/5
f 547/315/3 553/318/3 573/318/3 579/315/3
f 527/299/3 535/297/3 583/297/3 597/299/3
f 603/353/135 600/352/135 601/297/135 602/338/135
f 605/374/136 603/373/136 602/337/136 604/336/136
f 607/302/137 605/301/137 604/305/137 606/294/137
f 609/378/138 607/377/138 606/294/138 608/293/138
f 611/348/139 609/378/139 608/293/139 610/308/139
f 613/349/140 611/348/140 610/308/140 612/310/140
f 615/357/141 613/356/141 612/311/141 614/312/141
f 617/364/142 615/363/142 614/314/142 616/313/142
f 619/371/143 617/370/143 616/315/143 618/316/143
f 621/376/144 619/375/144 618/318/144 620/317/144
f 623/344/145 621/343/145 620/317/145 622/320/145
f 625/384/146 623/383/146 622/320/146 624/322/146
f 627/387/147 625/386/147 624/325/147 626/324/147
f 629/359/148 627/368/148 626/327/148 628/326/148
f 631/360/149 629/359/149 628/330/149 630/329/149
f 633/366/150 631/360/150 630/329/150 632/331/150
f 635/339/151 633/366/151 632/332/151 634/333/151
f 637/340/152 635/339/152 634/333/152 636/334/152
f 639/381/153 637/380/153 636/334/153 638/335/153
f 600/389/154 639/388/154 638/298/154 601/297/154
f 602/338/134 601/297/134 534/297/134 548/338/134
f 747/400/159 748/401/160 746/402/161 744/403/162
f 685/404/163 750/405/164 749/406/165 682/407/166
f 713/408/167 712/409/168 661/410/169 659/411/170
f 712/409/187 710/409/188 709/418/189 666/418/190
f 770/427/199 767/428/200 768/428/201 772/427/202
f 790/425/203 788/425/204 793/426/205 791/426/206
f 766/433/215 764/433/216 762/434/217 763/434/218
f 767/428/219 764/433/220 766/433/221 768/428/222
f 698/440/235 804/440/236 805/437/237 695/437/238
f 695/437/255 805/437/256 806/447/257 760/447/258
f 747/400/259 749/406/260 750/405/261 748/401/262
f 681/462/271 683/416/272 685/404/273 682/407/274
f 659/411/291 657/469/292 714/470/293 713/408/294
f 666/418/315 709/418/316 705/477/317 668/477/318
f 734/483/347 740/466/348 733/420/349 732/484/350
f 679/397/355 686/417/356 683/416/357 681/462/358
f 736/478/371 734/483/372 732/484/373 735/493/374
f 668/477/383 670/459/384 669/496/385 667/497/386
f 736/478/387 735/493/388 737/498/389 738/467/390
f 786/442/391 785/442/392 787/499/393 789/499/394
f 666/418/395 665/500/350 661/410/396 712/409/397
f 810/458/406 691/458/407 690/501/408 687/501/409
f 735/493/418 726/493/419 719/498/420 737/498/421
f 714/470/422 716/470/423 711/408/424 713/408/425
f 743/421/438 741/465/439 744/403/395 746/402/440
f 686/417/441 688/417/442 684/416/443 683/416/444
f 683/416/449 684/416/450 754/404/451 685/404/452
f 686/417/461 687/501/462 690/501/463 688/417/464
f 677/396/465 687/501/466 686/417/467 679/397/468
f 713/408/489 711/408/490 710/409/491 712/409/492
f 715/502/501 718/502/502 716/470/503 714/470/504
f 737/498/509 719/498/510 718/502/511 715/502/512
f 751/405/529 750/405/530 685/404/531 754/404/532
f 698/440/557 701/453/558 802/453/559 804/440/560
f 781/441/565 783/441/566 785/442/567 786/442/568
f 671/479/577 669/496/578 670/459/579 810/458/580
f 810/458/581 687/501/582 677/396/583 671/479/272
f 748/401/588 750/405/589 751/405/590 752/401/591
f 743/421/592 778/421/593 731/420/594 733/420/595
f 778/421/596 743/421/597 746/402/598 779/402/599
f 801/452/604 803/452/605 800/509/606 799/509/607
f 759/448/608 760/447/609 806/447/610 761/448/611
f 796/508/612 794/432/613 797/432/614 798/508/615
f 800/509/620 796/508/621 798/508/622 799/509/623
f 781/441/628 780/446/629 782/446/630 783/441/631
f 771/435/632 784/435/633 782/446/634 780/446/635
f 789/499/636 787/499/637 788/425/638 790/425/639
f 771/435/640 770/427/641 772/427/642 784/435/643
f 762/434/644 759/448/645 761/448/646 763/434/647
f 793/426/652 797/432/653 794/432/654 791/426/655
f 802/453/656 701/453/657 803/452/658 801/452/659
f 748/401/668 752/401/669 779/402/670 746/402/671
f 703/459/672 670/459/673 668/477/674 705/477/675
f 670/459/676 703/459/677 691/458/678 810/458/679
f 805/437/680 799/509/681 788/425/682 782/446/683
f 657/469/704 739/468/705 715/502/706 714/470/707
f 738/467/712 737/498/713 715/502/714 739/468/262
f 732/484/763 730/484/764 726/493/765 735/493/766
f 730/484/775 732/484/776 733/420/777 731/420/778
f 733/420/779 740/466/780 741/465/781 743/421/782
f 665/500/783 666/418/784 668/477/785 667/497/786
f 782/446/795 784/435/796 766/433/797
f 784/435/798 772/427/799 766/433/800
f 772/427/801 768/428/802 766/433/803
f 766/433/804 763/434/805 805/437/806
f 763/434/807 761/448/808 805/437/809
f 761/448/810 806/447/811 805/437/812
f 805/437/813 804/440/814 802/453/815
f 802/453/816 801/452/817 799/509/818
f 799/509/819 798/508/820 788/425/821
f 798/508/822 797/432/823 788/425/824
f 797/432/825 793/426/826 788/425/827
f 788/425/828 787/499/829 785/442/830
f 785/442/831 783/441/832 788/425/812
f 783/441/833 782/446/834 788/425/835
f 805/437/836 802/453/837 799/509/838
f 782/446/839 766/433/840 805/437/841
f 232/246/3 278/214/3 320/213/3 333/249/3 466/576/3 467/577/3 468/578/3
f 852/579/3 230/244/3 266/221/3 285/220/3 232/245/3 471/580/3 866/581/3 868/582/3 469/583/3 870/584/3 470/585/3
f 337/268/3 319/248/3 265/212/3 230/233/3 473/586/3 472/587/3 474/588/3
f 853/589/3 228/237/3 286/217/3 273/216/3 226/243/3 854/590/3 476/591/3 475/592/3 478/593/3 864/594/3 477/595/3
f 855/596/3 473/597/3 230/598/3 852/599/3
f 856/600/3 228/601/3 853/602/3
f 226/603/3 479/604/3 854/605/3
f 336/260/3 337/268/3 474/588/3 857/606/3 481/607/3 480/608/3 873/609/3 874/610/3
f 226/234/3 258/195/3 318/194/3 336/260/3 874/610/3 861/611/3 479/612/3
f 332/271/3 321/247/3 277/232/3 228/231/3 856/613/3 482/614/3 483/615/3
f 858/616/3 466/576/3 333/249/3 332/271/3 483/615/3 485/617/3 871/618/3 859/619/3 484/620/3
f 473/597/102 855/596/102 852/599/102 470/585/102 497/621/102 498/341/102 472/587/102
f 854/622/3 479/623/3 861/624/3
f 14/625/105 851/626/105 850/627/105
f 861/628/107 488/629/107 862/630/107 476/631/107 854/632/107 479/633/107
f 862/630/108 863/634/108 475/635/108 476/636/108
f 863/634/109 489/637/109 478/638/109 475/635/109
f 489/637/110 490/639/110 864/640/110 478/638/110
f 490/639/111 491/641/111 477/642/111 864/640/111
f 477/643/112 491/641/112 865/644/112 482/645/112 856/646/112 853/647/112
f 866/648/95 495/649/95 867/650/95 868/651/95
f 868/651/99 867/650/99 496/652/99 469/653/99
f 469/653/100 496/652/100 869/654/100 870/655/100
f 870/655/101 869/654/101 497/621/101 470/656/101
f 485/657/96 492/658/96 872/659/96 871/660/96
f 483/661/113 482/662/113 865/644/113 492/658/113 485/663/113
f 873/664/106 486/665/106 488/629/106 861/666/106 874/667/106
f 480/668/105 487/669/105 486/665/105 873/670/105
f 474/588/103 472/587/103 498/341/103 499/382/103 481/607/103 857/606/103
f 481/607/104 499/382/104 487/355/104 480/668/104
f 859/619/134 871/618/134 872/659/134 493/345/134 484/620/134
f 466/576/114 858/616/114 484/620/114 493/345/114 494/385/114 467/577/114
f 468/239/98 467/577/98 494/385/98 495/649/98 866/581/98 471/240/98
f 12/31/5 10/30/5 9/37/5 11/36/5
f 6/26/5 1/34/5 9/37/5
f 2/35/5 7/59/5 11/36/5
f 3/32/5 12/31/5 8/60/5
f 4/33/5 5/40/5 10/30/5
usemtl M_Noir_Profond
f 159/210/8 158/211/8 157/212/8 160/190/8
f 155/236/8 154/171/8 153/189/8 156/235/8
f 127/198/9 126/45/9 125/232/9 128/9/9
f 291/163/9 292/206/9 293/156/9 290/214/9
f 295/219/10 296/218/10 297/216/10 294/39/10
f 299/48/10 300/151/10 301/38/10 298/217/10
f 303/201/11 304/241/11 305/220/11 302/146/11
f 307/242/11 308/208/11 309/145/11 306/221/11
f 311/222/61 155/236/61 156/235/61 310/234/61
f 158/211/62 312/14/62 313/233/62 157/212/62
f 198/196/63 153/189/63 154/171/63 197/171/63
f 194/210/63 159/210/63 160/190/63 193/190/63
f 310/243/64 297/216/64 296/218/64 311/222/64
f 306/221/65 313/244/65 312/14/65 307/242/65
f 196/145/66 309/145/66 308/208/66 195/208/66
f 202/201/66 303/201/66 302/146/66 201/146/66
f 304/241/67 314/164/67 315/245/67 305/220/67
f 300/151/68 207/151/68 208/38/68 301/38/68
f 200/219/68 295/219/68 294/39/68 199/39/68
f 317/49/69 299/48/69 298/217/69 316/237/69
f 292/206/70 203/206/70 204/156/70 293/156/70
f 206/207/70 127/198/70 128/9/70 205/9/70
f 316/231/71 125/232/71 126/45/71 317/49/71
f 314/164/72 291/163/72 290/214/72 315/246/72
f 378/280/3 381/281/3 397/281/3 394/280/3
f 380/282/5 379/283/5 395/283/5 396/282/5
f 378/280/4 379/283/4 387/278/4 386/277/4
f 380/282/4 381/281/4 389/266/4 388/267/4
f 382/284/2 383/285/2 391/265/2 390/265/2
f 384/286/2 385/287/2 393/279/2 392/264/2
f 385/287/2 382/284/2 390/265/2 393/279/2
f 381/281/4 378/280/4 386/277/4 389/266/4
f 383/285/2 384/286/2 392/264/2 391/265/2
f 379/283/4 380/282/4 388/267/4 387/278/4
f 385/287/6 384/286/6 400/286/6 401/287/6
f 381/281/1 380/282/1 396/282/1 397/281/1
f 384/286/5 383/285/5 399/285/5 400/286/5
f 382/284/3 385/287/3 401/287/3 398/284/3
f 383/285/1 382/284/1 398/284/1 399/285/1
f 379/283/6 378/280/6 394/280/6 395/283/6
f 832/516/3 514/326/3 513/327/3 830/517/3
f 830/518/3 513/327/3 512/395/3 843/519/3
f 811/520/3 516/331/3 515/329/3 812/521/3
f 515/329/3 514/326/3 832/516/3 812/521/3
f 836/522/3 843/523/3 512/395/3 511/320/3 813/524/3
f 826/525/3 813/524/3 511/320/3 510/317/3 827/526/3
f 510/317/3 509/316/3 814/527/3 825/528/3 827/529/3
f 814/527/3 509/316/3 508/315/3 846/530/3 815/531/3
f 846/532/3 508/315/3 507/391/3 817/533/3 816/534/3
f 817/533/3 507/391/3 506/393/3 844/535/3
f 844/536/3 506/393/3 505/394/3 818/537/3
f 818/538/3 505/394/3 504/293/3 837/539/3
f 504/293/3 503/307/3 839/540/3 837/541/3
f 839/542/3 503/307/3 502/336/3 819/543/3 820/544/3
f 502/336/3 500/338/3 849/545/3 848/546/3 819/543/3
f 500/338/3 501/297/3 821/547/3 835/548/3 849/549/3
f 821/547/3 501/297/3 519/335/3 822/550/3 823/551/3
f 822/552/3 519/335/3 518/347/3 841/553/3 842/554/3
f 841/553/3 518/347/3 517/333/3 828/555/3
f 828/556/3 517/333/3 516/331/3 811/557/3
usemtl M_Gris_Metal
f 249/5/1 260/6/1 450/6/1 451/5/1
f 229/14/3 264/15/3 215/16/3 214/17/3 267/18/3
f 276/45/3 219/46/3 217/47/3 287/48/3 227/49/3
f 280/75/5 222/76/5 444/76/5 462/75/5
f 222/76/5 224/124/5 447/124/5 444/76/5
f 151/76/3 240/75/3 463/75/3 445/76/3
f 284/160/3 223/161/3 221/162/3 279/163/3 231/164/3
f 218/149/5 220/168/5 443/168/5 448/149/5
f 220/168/5 275/172/5 465/172/5 443/168/5
f 213/165/5 216/174/5 437/174/5 438/165/5
f 236/193/3 150/168/3 442/168/3 464/193/3
f 216/174/5 263/197/5 453/197/5 437/174/5
f 210/169/5 212/180/5 441/180/5 434/169/5
f 288/199/5 218/149/5 448/149/5 458/199/5
f 255/202/3 148/174/3 436/174/3 452/202/3
f 259/203/8 209/204/8 411/205/8 418/171/8
f 279/163/9 221/162/9 417/76/9 430/206/9
f 219/46/9 276/45/9 433/207/9 414/168/9
f 267/18/11 214/17/11 413/165/11 422/208/11
f 209/204/54 211/209/54 410/180/54 411/205/54
f 214/17/55 215/16/55 412/174/55 413/165/55
f 217/47/56 219/46/56 414/168/56 415/149/56
f 221/162/57 223/161/57 416/124/57 417/76/57
f 223/161/11 284/160/11 425/201/11 416/124/11
f 287/48/10 217/47/10 415/149/10 426/151/10
f 215/16/8 264/15/8 421/210/8 412/174/8
f 211/209/10 272/218/10 429/219/10 410/180/10
f 272/218/3 211/209/3 209/204/3 259/203/3 225/222/3
f 231/164/1 279/163/1 291/163/1 314/164/1
f 279/163/1 430/206/1 292/206/1 291/163/1
f 418/171/6 419/171/6 197/171/6 154/171/6
f 276/45/6 227/49/6 317/49/6 126/45/6
f 432/198/6 433/207/6 127/198/6 206/207/6
f 433/207/6 276/45/6 126/45/6 127/198/6
f 264/15/1 229/14/1 312/14/1 158/211/1
f 430/206/1 431/185/1 203/206/1 292/206/1
f 225/222/6 259/203/6 155/236/6 311/222/6
f 227/49/4 287/48/4 299/48/4 317/49/4
f 259/203/6 418/171/6 154/171/6 155/236/6
f 420/175/1 421/210/1 159/210/1 194/210/1
f 272/218/2 225/222/2 311/222/2 296/218/2
f 429/219/2 272/218/2 296/218/2 295/219/2
f 229/14/2 267/18/2 307/242/2 312/14/2
f 422/208/2 423/167/2 195/208/2 308/208/2
f 287/48/4 426/151/4 300/151/4 299/48/4
f 424/201/4 425/201/4 303/201/4 202/201/4
f 284/160/4 231/164/4 314/164/4 304/241/4
f 425/201/4 284/160/4 304/241/4 303/201/4
f 426/151/4 427/151/4 207/151/4 300/151/4
f 421/210/1 264/15/1 158/211/1 159/210/1
f 428/187/2 429/219/2 295/219/2 200/219/2
f 267/18/2 422/208/2 308/208/2 307/242/2
f 145/205/7 146/180/7 403/180/7 402/169/7
f 147/165/12 148/174/12 405/174/12 404/165/12
f 149/149/13 150/168/13 407/168/13 406/149/13
f 151/76/14 152/124/14 409/124/14 408/183/14
f 212/180/7 210/169/7 411/205/7 410/180/7
f 216/174/12 213/165/12 413/165/12 412/174/12
f 220/168/13 218/149/13 415/149/13 414/168/13
f 224/124/14 222/76/14 417/76/14 416/124/14
f 260/6/4 249/5/4 419/171/4 418/171/4
f 255/202/4 263/197/4 421/210/4 420/175/4
f 268/288/6 252/289/6 423/167/6 422/208/6
f 242/290/6 283/291/6 425/201/6 424/201/6
f 288/199/1 234/199/1 427/151/1 426/151/1
f 245/292/1 271/292/1 429/219/1 428/187/1
f 280/75/2 240/75/2 431/185/2 430/206/2
f 236/193/2 275/172/2 433/207/2 432/198/2
f 234/199/1 149/149/1 406/149/1 427/151/1
f 218/149/1 288/199/1 426/151/1 415/149/1
f 150/168/2 236/193/2 432/198/2 407/168/2
f 275/172/2 220/168/2 414/168/2 433/207/2
f 240/75/2 151/76/2 408/183/2 431/185/2
f 222/76/2 280/75/2 430/206/2 417/76/2
f 152/124/6 242/290/6 424/201/6 409/124/6
f 283/291/6 224/124/6 416/124/6 425/201/6
f 146/180/1 245/292/1 428/187/1 403/180/1
f 271/292/1 212/180/1 410/180/1 429/219/1
f 249/5/4 145/205/4 402/169/4 419/171/4
f 210/169/4 260/6/4 418/171/4 411/205/4
f 252/289/6 147/165/6 404/165/6 423/167/6
f 213/165/6 268/288/6 422/208/6 413/165/6
f 148/174/4 255/202/4 420/175/4 405/174/4
f 263/197/4 216/174/4 412/174/4 421/210/4
f 242/290/3 152/124/3 446/124/3 456/290/3
f 263/197/6 255/202/6 452/202/6 453/197/6
f 224/124/5 283/291/5 457/291/5 447/124/5
f 252/289/4 268/288/4 454/288/4 455/289/4
f 245/292/3 146/180/3 440/180/3 460/292/3
f 283/291/2 242/290/2 456/290/2 457/291/2
f 212/180/5 271/292/5 461/292/5 441/180/5
f 234/199/2 288/199/2 458/199/2 459/199/2
f 145/205/3 249/5/3 451/5/3 435/205/3
f 271/292/4 245/292/4 460/292/4 461/292/4
f 146/180/3 145/205/3 435/205/3 440/180/3
f 260/6/5 210/169/5 434/169/5 450/6/5
f 240/75/6 280/75/6 462/75/6 463/75/6
f 148/174/3 147/165/3 439/165/3 436/174/3
f 147/165/3 252/289/3 455/289/3 439/165/3
f 275/172/1 236/193/1 464/193/1 465/172/1
f 150/168/3 149/149/3 449/149/3 442/168/3
f 268/288/5 213/165/5 438/165/5 454/288/5
f 149/149/3 234/199/3 459/199/3 449/149/3
f 152/124/3 151/76/3 445/76/3 446/124/3
f 676/396/155 678/397/156 847/398/157 675/399/158
f 643/406/171 749/406/172 747/400/173 645/400/174
f 643/406/175 641/407/176 682/407/177 749/406/178
f 831/412/179 658/411/180 660/410/181 833/413/182
f 838/463/275 645/400/276 745/403/277 644/464/278
f 742/465/279 741/465/280 740/466/281 647/466/282
f 652/467/287 738/467/288 739/468/289 654/468/290
f 643/406/295 645/400/296 838/463/297 642/471/298
f 738/467/319 652/467/320 650/478/321 736/478/322
f 658/411/323 659/411/324 661/410/325 660/410/326
f 673/479/327 671/479/328 677/396/329 676/396/330
f 676/396/331 675/399/332 834/480/333 673/479/334
f 645/400/335 747/400/336 744/403/337 745/403/338
f 656/469/339 657/469/340 659/411/341 658/411/342
f 640/481/343 840/482/344 680/462/345 641/407/346
f 653/485/351 654/468/352 656/469/353 655/486/354
f 739/468/379 657/469/380 656/469/381 654/468/382
f 677/396/398 679/397/399 678/397/400 676/396/401
f 679/397/402 681/462/403 680/462/404 678/397/405
f 642/471/410 640/481/411 641/407/412 643/406/413
f 745/403/414 744/403/415 741/465/416 742/465/417
f 662/500/426 665/500/427 667/497/428 663/497/429
f 660/410/517 661/410/518 665/500/519 662/500/520
f 734/483/521 649/483/522 647/466/523 740/466/524
f 736/478/525 650/478/526 649/483/527 734/483/528
f 662/500/549 663/497/550 829/505/551 664/506/552
f 656/469/684 658/411/685 831/412/686 655/486/687
f 680/462/688 681/462/689 682/407/690 641/407/691
f 672/496/692 669/496/693 671/479/694 673/479/695
f 651/510/696 652/467/697 654/468/698 653/485/699
f 647/466/700 646/511/701 845/512/702 742/465/703
f 663/497/719 672/496/720 674/513/721 829/505/722
f 644/464/723 745/403/724 742/465/725 845/512/726
f 678/397/727 680/462/728 840/482/729 847/398/730
f 824/514/747 650/478/748 652/467/749 651/510/750
f 674/513/751 672/496/752 673/479/753 834/480/754
f 664/506/759 833/413/760 660/410/761 662/500/762
f 672/496/767 663/497/768 667/497/769 669/496/770
f 648/515/771 646/511/772 647/466/773 649/483/774
f 824/514/791 648/515/792 649/483/793 650/478/794
f 815/515/842 648/515/842 824/514/842 825/514/842 814/558/842
f 825/514/843 824/514/843 651/510/843 826/510/843 827/559/843
f 811/506/844 664/506/844 829/505/844 828/560/844
f 830/486/845 655/486/845 831/412/845 832/412/845
f 831/412/846 833/413/846 812/413/846 832/412/846
f 823/480/847 834/480/847 675/399/847 835/399/847 821/561/847
f 826/510/848 651/510/848 653/485/848 836/485/848 813/562/848
f 837/471/849 642/471/849 838/463/849 818/563/849
f 640/481/850 642/471/851 837/564/852 839/481/850
f 820/482/853 840/482/853 640/481/853 839/565/853
f 828/505/854 829/505/854 674/513/854 842/513/854 841/566/854
f 836/485/855 653/485/855 655/486/855 830/486/855 843/567/855
f 644/464/856 845/512/856 817/512/856 844/568/856
f 838/463/857 644/464/857 844/464/857 818/569/857
f 816/511/858 646/511/858 648/515/858 815/515/858 846/570/858
f 842/513/859 674/513/859 834/480/859 823/480/859 822/571/859
f 675/399/860 847/398/860 848/398/860 849/572/860 835/399/860
f 845/512/861 646/511/861 816/573/861 817/512/861
f 833/413/862 664/506/862 811/574/862 812/413/862
f 848/398/863 847/398/863 840/482/863 820/482/863 819/575/863
usemtl M_Cyan
f 398/284/2 401/287/2 400/286/2 399/285/2
f 394/280/4 397/281/4 396/282/4 395/283/4
f 561/319/105 562/320/105 563/321/105 560/319/105
f 565/333/112 566/334/112 567/334/112 564/333/112
f 569/306/98 570/307/98 571/307/98 568/306/98
f 573/318/104 561/319/104 560/319/104 572/318/104
f 575/332/111 565/333/111 564/333/111 574/332/111
f 577/338/114 569/306/114 568/305/114 576/338/114
f 579/315/103 573/318/103 572/316/103 578/315/103
f 581/329/110 575/332/110 574/332/110 580/329/110
f 583/300/134 577/338/134 576/338/134 582/297/134
f 585/390/102 579/315/102 578/315/102 584/312/102
f 587/330/109 581/329/109 580/329/109 586/330/109
f 589/392/101 585/312/101 584/312/101 588/311/101
f 591/324/108 587/330/108 586/328/108 590/324/108
f 593/309/100 589/311/100 588/311/100 592/309/100
f 595/323/107 591/324/107 590/324/107 594/323/107
f 597/299/96 583/297/96 582/300/96 596/299/96
f 599/296/99 593/309/99 592/309/99 598/296/99
f 562/320/106 595/323/106 594/323/106 563/320/106
f 566/334/113 597/299/113 596/335/113 567/334/113
f 570/307/95 599/296/95 598/296/95 571/295/95
usemtl M_Orange
f 436/174/12 439/165/12 438/165/12 437/174/12
f 440/180/7 435/205/7 434/169/7 441/180/7
f 464/193/87 442/168/87 443/168/87 465/172/87
f 456/290/88 446/124/88 447/124/88 457/291/88
f 442/168/13 449/149/13 448/149/13 443/168/13
f 446/124/14 445/76/14 444/76/14 447/124/14
f 460/292/89 440/180/89 441/180/89 461/292/89
f 452/202/90 436/174/90 437/174/90 453/197/90
f 435/205/91 451/5/91 450/6/91 434/169/91
f 445/76/92 463/75/92 462/75/92 444/76/92
f 449/149/93 459/199/93 458/199/93 448/149/93
f 439/165/94 455/289/94 454/288/94 438/165/94
f 689/414/183 757/415/184 684/416/185 688/417/186
f 728/419/191 731/420/192 778/421/193 777/422/194
f 792/423/195 721/424/196 790/425/197 791/426/198
f 770/427/207 773/429/208 769/430/209 767/428/210
f 795/431/211 792/423/212 791/426/213 794/432/214
f 771/435/223 775/436/224 773/429/225 770/427/226
f 695/437/227 694/438/228 697/439/229 698/440/230
f 781/441/231 786/442/232 725/443/233 729/444/234
f 776/445/239 775/436/240 771/435/241 780/446/242
f 760/447/243 759/448/244 758/449/245 696/450/246
f 729/444/247 776/445/248 780/446/249 781/441/250
f 700/451/251 803/452/252 701/453/253 699/454/254
f 809/455/263 753/456/264 765/457/265 769/430/266
f 691/458/267 703/459/268 702/460/269 693/461/270
f 752/401/283 751/405/284 753/456/285 809/455/286
f 753/456/299 751/405/300 754/404/301 755/472/302
f 774/473/303 779/402/304 752/401/305 809/455/306
f 808/474/307 707/475/308 710/409/309 711/408/310
f 702/460/311 704/476/312 700/451/313 699/454/314
f 722/487/359 724/488/360 725/443/361 723/489/362
f 720/490/363 721/424/364 792/423/365 717/491/366
f 728/419/367 776/445/368 729/444/369 727/492/370
f 704/476/375 706/494/376 708/495/377 700/451/378
f 696/450/430 694/438/431 695/437/432 760/447/433
f 729/444/434 725/443/435 724/488/436 727/492/437
f 699/454/445 697/439/446 693/461/447 702/460/448
f 706/494/453 704/476/454 705/477/455 709/418/456
f 720/490/457 718/502/458 719/498/459 722/487/460
f 786/442/469 789/499/470 723/489/471 725/443/472
f 754/404/473 684/416/474 757/415/475 755/472/476
f 716/470/477 717/491/478 808/474/479 711/408/480
f 707/475/481 706/494/482 709/418/483 710/409/484
f 775/436/485 777/422/486 774/473/487 773/429/488
f 778/421/493 779/402/494 774/473/495 777/422/496
f 691/458/497 693/461/498 692/503/499 690/501/500
f 717/491/505 716/470/506 718/502/507 720/490/508
f 808/474/513 795/431/514 807/504/515 707/475/516
f 726/493/533 724/488/534 722/487/535 719/498/536
f 730/484/537 731/420/538 728/419/539 727/492/540
f 726/493/541 730/484/542 727/492/543 724/488/544
f 696/450/545 689/414/546 692/503/547 694/438/548
f 692/503/553 689/414/554 688/417/555 690/501/556
f 762/434/561 764/433/562 765/457/563 756/507/564
f 789/499/569 790/425/570 721/424/571 723/489/572
f 796/508/573 800/509/574 708/495/575 807/504/576
f 702/460/584 703/459/585 705/477/586 704/476/587
f 767/428/600 769/430/601 765/457/602 764/433/603
f 698/440/616 697/439/617 699/454/618 701/453/619
f 800/509/624 803/452/625 700/451/626 708/495/627
f 762/434/648 756/507/649 758/449/650 759/448/651
f 796/508/660 807/504/661 795/431/662 794/432/663
f 692/503/664 693/461/665 697/439/666 694/438/667
f 706/494/708 707/475/709 807/504/710 708/495/711
f 753/456/715 755/472/716 756/507/717 765/457/718
f 757/415/731 758/449/732 756/507/733 755/472/734
f 721/424/735 720/490/736 722/487/737 723/489/738
f 758/449/739 757/415/740 689/414/741 696/450/742
f 775/436/743 776/445/744 728/419/745 777/422/746
f 809/455/755 769/430/756 773/429/757 774/473/758
f 717/491/787 792/423/788 795/431/789 808/474/790
