# Blender 4.2.3 LTS
# www.blender.org
mtllib SM_CableAdapter_Large.mtl
o SM_CableAdapter_Large
v -0.011704 0.434114 0.244352
v -0.011704 0.645886 0.244352
v -0.011704 0.645886 -0.244352
v -0.011704 0.434114 -0.244352
v -0.011704 0.295648 -0.105886
v -0.011704 0.295648 0.105886
v -0.011704 0.784352 0.105886
v -0.011704 0.784352 -0.105886
v -0.011704 0.434114 0.105886
v -0.011704 0.434114 -0.105886
v -0.011704 0.645886 0.105886
v -0.011704 0.645886 -0.105886
v -0.011704 0.295648 0.200036
v -0.011704 0.339964 0.244352
v -0.011704 0.740036 0.244352
v -0.011704 0.784352 0.200036
v -0.011704 0.339964 -0.244352
v -0.011704 0.295648 -0.200036
v -0.011704 0.784352 -0.200036
v -0.011704 0.740036 -0.244352
v 0.008712 0.645886 -0.244352
v 0.022843 0.647059 -0.218395
v 0.022843 0.432941 -0.218395
v 0.008712 0.434114 -0.244352
v 0.008712 0.645886 0.244352
v 0.008712 0.434114 0.244352
v 0.022843 0.432941 0.189400
v 0.022843 0.350600 0.107059
v 0.008712 0.295648 0.105886
v 0.008712 0.295648 -0.105886
v 0.022843 0.350600 -0.107059
v 0.022843 0.758395 -0.107059
v 0.008712 0.784352 -0.105886
v 0.008712 0.784352 0.105886
v 0.022843 0.729401 0.107059
v 0.022843 0.362725 0.189400
v 0.022843 0.350600 0.177275
v 0.022843 0.729401 0.177275
v 0.022843 0.717275 0.189400
v 0.022843 0.350600 -0.177275
v 0.022843 0.362725 -0.189400
v 0.022843 0.717275 -0.189400
v 0.022843 0.729401 -0.177275
v 0.022843 0.645886 -0.230221
v 0.022843 0.434114 -0.230221
v 0.022843 0.434114 0.230221
v 0.022843 0.645886 0.230221
v 0.022843 0.309779 -0.105886
v 0.022843 0.309779 0.105886
v 0.022843 0.770221 0.105886
v 0.022843 0.770221 -0.105886
v -0.011704 0.289149 -0.202728
v -0.011704 0.337272 -0.250851
v -0.011704 0.742728 -0.250851
v -0.011704 0.790851 -0.202728
v -0.011704 0.337272 0.250851
v -0.011704 0.289149 0.202728
v -0.011704 0.790851 0.202728
v -0.011704 0.742728 0.250851
v -0.011704 0.289149 0.105886
v -0.011704 0.434114 0.250851
v -0.011704 0.645886 0.250851
v -0.011704 0.790851 0.105886
v -0.011704 0.289149 -0.105886
v -0.011704 0.434114 -0.250851
v -0.011704 0.790851 -0.105886
v -0.011704 0.645886 -0.250851
v 0.011404 0.645886 -0.250851
v 0.029342 0.645886 -0.232913
v 0.029342 0.434114 -0.232913
v 0.011404 0.434114 -0.250851
v 0.029342 0.645886 0.232913
v 0.011404 0.645886 0.250851
v 0.011404 0.434114 0.250851
v 0.029342 0.434114 0.232913
v 0.029342 0.307087 0.105886
v 0.011404 0.289149 0.105886
v 0.011404 0.289149 -0.105886
v 0.029342 0.307087 -0.105886
v 0.029342 0.772913 -0.105886
v 0.011404 0.790851 -0.105886
v 0.011404 0.790851 0.105886
v 0.029342 0.772913 0.105886
v 0.011490 0.337285 -0.250820
v 0.029244 0.344624 -0.233100
v 0.029244 0.306900 -0.195376
v 0.011490 0.289180 -0.202715
v 0.011490 0.790820 -0.202715
v 0.029244 0.773100 -0.195376
v 0.029244 0.735376 -0.233100
v 0.011490 0.742715 -0.250820
v 0.011490 0.289180 0.202715
v 0.029244 0.306900 0.195376
v 0.029244 0.344624 0.233100
v 0.011490 0.337285 0.250820
v 0.011490 0.742715 0.250820
v 0.029244 0.735376 0.233100
v 0.029244 0.773100 0.195376
v 0.011490 0.790820 0.202715
v 0.029342 0.350229 -0.219568
v 0.029342 0.320432 -0.189771
v 0.029342 0.759568 -0.189771
v 0.029342 0.729771 -0.219568
v 0.029342 0.320432 0.189771
v 0.029342 0.350229 0.219568
v 0.029342 0.729771 0.219568
v 0.029342 0.759568 0.189771
v 0.029342 0.320432 0.105886
v 0.029342 0.434114 0.219568
v 0.029342 0.645886 0.219568
v 0.029342 0.759568 0.105886
v 0.029342 0.320432 -0.105886
v 0.029342 0.434114 -0.219568
v 0.029342 0.759568 -0.105886
v 0.029342 0.645886 -0.219568
v 0.022843 0.432941 -0.189400
v 0.022843 0.432941 0.218395
v 0.022843 0.647059 0.218395
v 0.022843 0.321605 -0.107059
v 0.022843 0.321605 0.107059
v 0.022843 0.758395 0.107059
v 0.022843 0.350715 -0.218395
v 0.022843 0.321605 -0.189285
v 0.022843 0.758395 -0.189285
v 0.022843 0.729285 -0.218395
v 0.022843 0.321605 0.189285
v 0.022843 0.350715 0.218395
v 0.022843 0.729285 0.218395
v 0.022843 0.758395 0.189285
v 0.101412 0.436254 0.170462
v 0.101412 0.431974 0.170462
v 0.087789 0.431974 0.184085
v 0.087789 0.436254 0.184085
v 0.022843 0.350229 -0.219568
v 0.022843 0.320432 -0.189771
v 0.022843 0.759568 -0.189771
v 0.022843 0.729771 -0.219568
v 0.022843 0.320432 0.189771
v 0.022843 0.350229 0.219568
v 0.022843 0.729771 0.219568
v 0.022843 0.759568 0.189771
v 0.022843 0.320432 0.105886
v 0.022843 0.434114 0.219568
v 0.022843 0.645886 0.219568
v 0.022843 0.759568 0.105886
v 0.022843 0.320432 -0.105886
v 0.022843 0.434114 -0.219568
v 0.022843 0.759568 -0.105886
v 0.022843 0.645886 -0.219568
v 0.047346 0.363211 -0.188228
v 0.047346 0.351772 -0.176789
v 0.047346 0.728228 -0.176789
v 0.047346 0.716789 -0.188228
v 0.047346 0.351772 0.176789
v 0.047346 0.363211 0.188228
v 0.047346 0.716789 0.188228
v 0.047346 0.728228 0.176789
v 0.087789 0.436254 -0.184085
v 0.087789 0.431974 -0.184085
v 0.101412 0.431974 -0.170462
v 0.101412 0.436254 -0.170462
v 0.101412 0.643746 -0.170462
v 0.101412 0.648026 -0.170462
v 0.087789 0.648026 -0.184085
v 0.087789 0.643746 -0.184085
v 0.044776 0.350715 -0.218395
v 0.044776 0.362725 -0.189400
v 0.044776 0.350600 -0.177275
v 0.044776 0.321605 -0.189285
v 0.044776 0.758395 -0.189285
v 0.044776 0.729401 -0.177275
v 0.044776 0.717275 -0.189400
v 0.044776 0.729285 -0.218395
v 0.044776 0.321605 0.189285
v 0.044776 0.350600 0.177275
v 0.044776 0.362725 0.189400
v 0.044776 0.350715 0.218395
v 0.044776 0.729285 0.218395
v 0.044776 0.717275 0.189400
v 0.044776 0.729401 0.177275
v 0.044776 0.758395 0.189285
v 0.044776 0.321605 0.107059
v 0.044776 0.432941 0.218395
v 0.044776 0.647059 0.218395
v 0.044776 0.758395 0.107059
v 0.044776 0.321605 -0.107059
v 0.044776 0.432941 -0.218395
v 0.044776 0.758395 -0.107059
v 0.044776 0.647059 -0.218395
v 0.044776 0.350600 0.107059
v 0.044776 0.432941 0.189400
v 0.044776 0.647059 0.189400
v 0.044776 0.729401 0.107059
v 0.044776 0.350600 -0.107059
v 0.044776 0.432941 -0.189400
v 0.044776 0.729401 -0.107059
v 0.044776 0.647059 -0.189400
v 0.022843 0.643746 -0.183743
v 0.022843 0.648026 -0.183743
v 0.022843 0.723743 -0.108026
v 0.022843 0.723743 -0.103746
v 0.022843 0.431974 -0.183743
v 0.022843 0.436254 -0.183743
v 0.022843 0.356257 -0.103746
v 0.022843 0.356257 -0.108026
v 0.022843 0.723743 0.103746
v 0.022843 0.723743 0.108026
v 0.022843 0.648026 0.183743
v 0.022843 0.643746 0.183743
v 0.022843 0.436254 0.183743
v 0.022843 0.431974 0.183743
v 0.022843 0.356257 0.108026
v 0.022843 0.356257 0.103746
v 0.105554 0.369859 -0.172178
v 0.065002 0.363211 -0.188228
v 0.105554 0.367822 -0.170141
v 0.065002 0.351772 -0.176789
v 0.065002 0.728228 -0.176789
v 0.105554 0.712178 -0.170141
v 0.105554 0.710141 -0.172178
v 0.065002 0.716789 -0.188228
v 0.105554 0.367822 0.170141
v 0.065002 0.351772 0.176789
v 0.105554 0.369859 0.172178
v 0.065002 0.363211 0.188228
v 0.105554 0.710141 0.172178
v 0.065002 0.716789 0.188228
v 0.105554 0.712178 0.170141
v 0.065002 0.728228 0.176789
v 0.105554 0.431974 -0.108026
v 0.105554 0.436254 -0.103746
v 0.105554 0.431974 0.108026
v 0.105554 0.436254 0.103746
v 0.105554 0.648026 -0.108026
v 0.105554 0.643746 -0.103746
v 0.105554 0.648026 0.108026
v 0.105554 0.643746 0.103746
v 0.022843 0.351772 0.103746
v 0.047346 0.351772 0.132529
v 0.022843 0.349633 0.105886
v 0.047346 0.407471 0.188228
v 0.022843 0.436254 0.188228
v 0.022843 0.434114 0.190367
v 0.022843 0.643746 0.188228
v 0.047346 0.672529 0.188228
v 0.022843 0.647023 0.189365
v 0.022843 0.645886 0.190367
v 0.047346 0.728228 0.132529
v 0.022843 0.728228 0.103746
v 0.022843 0.730367 0.105886
v 0.047346 0.351772 -0.132529
v 0.022843 0.351772 -0.103746
v 0.022843 0.349633 -0.105886
v 0.022843 0.436254 -0.188228
v 0.047346 0.407471 -0.188228
v 0.022843 0.434114 -0.190367
v 0.022843 0.728228 -0.103746
v 0.047346 0.728228 -0.132529
v 0.022843 0.729365 -0.107023
v 0.022843 0.730367 -0.105886
v 0.047346 0.672529 -0.188228
v 0.022843 0.643746 -0.188228
v 0.022843 0.645886 -0.190367
v 0.022843 0.647023 -0.189365
v 0.105554 0.436254 -0.172178
v 0.105554 0.431974 -0.172178
v 0.065002 0.407471 -0.188228
v 0.089505 0.436254 -0.188228
v 0.089505 0.643746 -0.188228
v 0.065002 0.672529 -0.188228
v 0.105554 0.648026 -0.172178
v 0.105554 0.643746 -0.172178
v 0.105554 0.712178 -0.103746
v 0.105554 0.712178 -0.108026
v 0.065002 0.728228 -0.132529
v 0.089505 0.728228 -0.103746
v 0.089505 0.351772 -0.103746
v 0.065002 0.351772 -0.132529
v 0.105554 0.367822 -0.108026
v 0.105554 0.367822 -0.103746
v 0.089505 0.436254 0.188228
v 0.065002 0.407471 0.188228
v 0.105554 0.431974 0.172178
v 0.105554 0.436254 0.172178
v 0.105554 0.643746 0.172178
v 0.105554 0.648026 0.172178
v 0.065002 0.672529 0.188228
v 0.089505 0.643746 0.188228
v 0.089505 0.728228 0.103746
v 0.065002 0.728228 0.132529
v 0.105554 0.712178 0.108026
v 0.105554 0.712178 0.103746
v 0.105554 0.367822 0.103746
v 0.105554 0.367822 0.108026
v 0.065002 0.351772 0.132529
v 0.089505 0.351772 0.103746
v 0.101412 0.643746 0.170462
v 0.101412 0.648026 0.170462
v 0.087789 0.648026 0.184085
v 0.087789 0.643746 0.184085
v 0.087789 0.355915 -0.103746
v 0.087789 0.355915 -0.108026
v 0.101412 0.369538 -0.108026
v 0.101412 0.369538 -0.103746
v 0.101412 0.369538 0.103746
v 0.101412 0.369538 0.108026
v 0.087789 0.355915 0.108026
v 0.087789 0.355915 0.103746
v 0.087789 0.724085 0.103746
v 0.087789 0.724085 0.108026
v 0.101412 0.710462 0.108026
v 0.101412 0.710462 0.103746
v 0.101412 0.710462 -0.103746
v 0.101412 0.710462 -0.108026
v 0.087789 0.724085 -0.108026
v 0.087789 0.724085 -0.103746
v 0.101070 0.436254 -0.103746
v 0.101070 0.431974 -0.108026
v 0.101070 0.648026 -0.108026
v 0.101070 0.643746 -0.103746
v 0.101070 0.648026 0.108026
v 0.101070 0.643746 0.103746
v 0.101070 0.436254 0.103746
v 0.101070 0.431974 0.108026
v 0.105554 0.473770 -0.172178
v 0.105554 0.606230 -0.172178
v 0.105554 0.606230 0.172178
v 0.105554 0.473770 0.172178
v 0.022843 0.606230 0.188228
v 0.022843 0.473770 0.188228
v 0.089505 0.473770 0.188228
v 0.089505 0.606230 0.188228
v 0.022843 0.473770 -0.188228
v 0.022843 0.606230 -0.188228
v 0.089505 0.606230 -0.188228
v 0.089505 0.473770 -0.188228
v 0.040479 0.606230 0.188228
v 0.040479 0.473770 0.188228
v 0.105554 0.473770 0.148332
v 0.105554 0.606230 0.148332
v 0.040479 0.473770 -0.188228
v 0.040479 0.606230 -0.188228
v 0.105554 0.473770 -0.148332
v 0.105554 0.606230 -0.148332
v 0.110402 0.473770 0.174186
v 0.113532 0.476901 0.175483
v 0.087408 0.482303 0.196205
v 0.091513 0.473770 0.193075
v 0.113532 0.603099 0.175483
v 0.110402 0.606230 0.174186
v 0.091513 0.606230 0.193075
v 0.087408 0.597697 0.196205
v 0.040479 0.473770 -0.193075
v 0.049011 0.482303 -0.196205
v 0.087408 0.482303 -0.196205
v 0.091513 0.473770 -0.193075
v 0.049011 0.597697 -0.196205
v 0.040479 0.606230 -0.193075
v 0.091513 0.606230 -0.193075
v 0.087408 0.597697 -0.196205
v 0.110402 0.606230 -0.174186
v 0.113532 0.603099 -0.175483
v 0.113532 0.476901 -0.175483
v 0.110402 0.473770 -0.174186
v 0.040479 0.606230 0.193075
v 0.049011 0.597697 0.196205
v 0.049011 0.482303 0.196205
v 0.040479 0.473770 0.193075
v 0.110402 0.473770 0.148332
v 0.113532 0.476901 0.151698
v 0.113532 0.603099 0.151698
v 0.110402 0.606230 0.148332
v 0.113532 0.476901 -0.151698
v 0.110402 0.473770 -0.148332
v 0.113532 0.603099 -0.151698
v 0.110402 0.606230 -0.148332
v 0.043609 0.476901 -0.196205
v 0.092810 0.476901 -0.196205
v 0.092810 0.603099 -0.196205
v 0.043609 0.603099 -0.196205
v 0.043609 0.603099 0.196205
v 0.092810 0.603099 0.196205
v 0.092810 0.476901 0.196205
v 0.043609 0.476901 0.196205
v 0.053352 0.486644 -0.187963
v 0.083066 0.486644 -0.187963
v 0.083066 0.593356 -0.187963
v 0.053352 0.593356 -0.187963
v 0.053352 0.593356 0.187963
v 0.083066 0.593356 0.187963
v 0.083066 0.486644 0.187963
v 0.053352 0.486644 0.187963
v 0.049011 0.482303 -0.187963
v 0.087408 0.482303 -0.187963
v 0.087408 0.597697 -0.187963
v 0.049011 0.597697 -0.187963
v 0.049011 0.597697 0.187963
v 0.087408 0.597697 0.187963
v 0.087408 0.482303 0.187963
v 0.049011 0.482303 0.187963
v 0.053352 0.486644 -0.184775
v 0.083066 0.486644 -0.184775
v 0.083066 0.593356 -0.184775
v 0.053352 0.593356 -0.184775
v 0.053352 0.593356 0.184775
v 0.083066 0.593356 0.184775
v 0.083066 0.486644 0.184775
v 0.053352 0.486644 0.184775
v 0.022843 0.363211 -0.188228
v 0.022843 0.351772 -0.176789
v 0.022843 0.728228 -0.176789
v 0.022843 0.716789 -0.188228
v 0.022843 0.351772 0.176789
v 0.022843 0.363211 0.188228
v 0.022843 0.716789 0.188228
v 0.022843 0.728228 0.176789
v 0.089505 0.351772 -0.176789
v 0.089505 0.363211 -0.188228
v 0.089505 0.716789 -0.188228
v 0.089505 0.728228 -0.176789
v 0.089505 0.363211 0.188228
v 0.089505 0.351772 0.176789
v 0.089505 0.728228 0.176789
v 0.089505 0.716789 0.188228
v 0.089505 0.431974 -0.188228
v 0.022843 0.431974 -0.188228
v 0.022843 0.648026 -0.188228
v 0.089505 0.648026 -0.188228
v 0.089505 0.728228 -0.108026
v 0.022843 0.728228 -0.108026
v 0.022843 0.728228 0.108026
v 0.089505 0.728228 0.108026
v 0.089505 0.351772 0.108026
v 0.022843 0.351772 0.108026
v 0.022843 0.351772 -0.108026
v 0.089505 0.351772 -0.108026
v 0.089505 0.648026 0.188228
v 0.022843 0.648026 0.188228
v 0.022843 0.431974 0.188228
v 0.089505 0.431974 0.188228
v 0.065002 0.363817 -0.186765
v 0.047346 0.363817 -0.186765
v 0.047346 0.716183 -0.186765
v 0.065002 0.716183 -0.186765
v 0.065002 0.726765 -0.176183
v 0.047346 0.726765 -0.176183
v 0.047346 0.353235 -0.176183
v 0.065002 0.353235 -0.176183
v 0.047346 0.363817 0.186765
v 0.065002 0.363817 0.186765
v 0.065002 0.716183 0.186765
v 0.047346 0.716183 0.186765
v 0.047346 0.726765 0.176183
v 0.065002 0.726765 0.176183
v 0.065002 0.353235 0.176183
v 0.047346 0.353235 0.176183
v 0.065002 0.407471 -0.186644
v 0.047346 0.407471 -0.186644
v 0.047346 0.672529 -0.186644
v 0.065002 0.672529 -0.186644
v 0.065002 0.726644 -0.132529
v 0.047346 0.726644 -0.132529
v 0.047346 0.726644 0.132529
v 0.065002 0.726644 0.132529
v 0.065002 0.353356 0.132529
v 0.047346 0.353356 0.132529
v 0.047346 0.353356 -0.132529
v 0.065002 0.353356 -0.132529
v 0.065002 0.672529 0.186644
v 0.047346 0.672529 0.186644
v 0.047346 0.407471 0.186644
v 0.065002 0.407471 0.186644
v 0.105554 0.625645 0.117881
v 0.105554 0.639780 0.103746
v 0.105554 0.678577 -0.045026
v 0.105554 0.625645 -0.117881
v 0.105554 0.639780 -0.103746
v 0.105554 0.606230 -0.127774
v 0.105554 0.436254 0.099780
v 0.105554 0.401423 -0.045026
v 0.105554 0.422119 -0.085645
v 0.105554 0.436254 -0.099780
v 0.105554 0.422119 0.085645
v 0.105554 0.401423 0.045026
v 0.105554 0.440220 -0.103746
v 0.105554 0.440220 0.103746
v 0.105554 0.540000 -0.145709
v 0.105554 0.585027 -0.138577
v 0.105554 0.494974 -0.138577
v 0.105554 0.473770 -0.127774
v 0.105554 0.454355 -0.117881
v 0.105554 0.473770 0.127774
v 0.105554 0.585027 0.138577
v 0.105554 0.540000 0.145709
v 0.105554 0.494974 0.138577
v -0.001023 0.577290 0.114765
v -0.001023 0.610929 0.097625
v 0.111097 0.494974 -0.138577
v 0.111097 0.540000 -0.145709
v 0.111097 0.454355 -0.117881
v 0.111097 0.401423 -0.045026
v 0.111097 0.401423 0.045026
v 0.111097 0.422119 0.085645
v 0.111097 0.454355 0.117881
v 0.111097 0.494974 0.138577
v 0.111097 0.540000 0.145709
v 0.111097 0.585027 0.138577
v 0.111097 0.678577 0.045026
v 0.111097 0.625645 -0.117881
v 0.111097 0.585027 -0.138577
v -0.001023 0.501131 -0.119626
v -0.001023 0.540000 -0.125782
v -0.001023 0.466067 -0.101760
v -0.001023 0.438240 -0.073933
v -0.001023 0.420374 -0.038869
v -0.001023 0.414218 0.000000
v -0.001023 0.420374 0.038869
v -0.001023 0.438240 0.073933
v -0.001023 0.466067 0.101760
v -0.001023 0.501131 0.119626
v -0.001023 0.540000 0.125782
v -0.001023 0.578869 0.119626
v -0.001023 0.613933 0.101760
v -0.001023 0.641760 0.073933
v -0.001023 0.659626 0.038869
v -0.001023 0.665782 0.000000
v -0.001023 0.659626 -0.038869
v -0.001023 0.641760 -0.073933
v -0.001023 0.613933 -0.101760
v -0.001023 0.578869 -0.119626
v 0.060841 0.438240 -0.073933
v 0.082280 0.438240 -0.073933
v 0.082280 0.420374 -0.038869
v 0.060841 0.420374 -0.038869
v 0.060841 0.613933 -0.101760
v 0.082280 0.613933 -0.101760
v 0.082280 0.578869 -0.119626
v 0.060841 0.578869 -0.119626
v 0.060841 0.578869 0.119626
v 0.082280 0.578869 0.119626
v 0.082280 0.613933 0.101760
v 0.060841 0.613933 0.101760
v 0.082280 0.414218 0.000000
v 0.060841 0.414218 0.000000
v 0.082280 0.540000 -0.125782
v 0.060841 0.540000 -0.125782
v 0.082280 0.641760 0.073933
v 0.060841 0.641760 0.073933
v 0.082280 0.420374 0.038869
v 0.060841 0.420374 0.038869
v 0.082280 0.659626 0.038869
v 0.060841 0.659626 0.038869
v 0.082280 0.438240 0.073933
v 0.060841 0.438240 0.073933
v 0.082280 0.665782 0.000000
v 0.060841 0.665782 0.000000
v 0.082280 0.466067 0.101760
v 0.060841 0.466067 0.101760
v 0.082280 0.501131 -0.119626
v 0.060841 0.501131 -0.119626
v 0.082280 0.659626 -0.038869
v 0.060841 0.659626 -0.038869
v 0.082280 0.501131 0.119626
v 0.060841 0.501131 0.119626
v 0.082280 0.466067 -0.101760
v 0.060841 0.466067 -0.101760
v 0.082280 0.641760 -0.073933
v 0.060841 0.641760 -0.073933
v 0.082280 0.540000 0.125782
v 0.060841 0.540000 0.125782
v 0.082280 0.540000 0.127773
v 0.060841 0.540000 0.127773
v 0.060841 0.579484 0.121519
v 0.082280 0.579484 0.121519
v 0.082280 0.643371 -0.075103
v 0.060841 0.643371 -0.075103
v 0.060841 0.615103 -0.103371
v 0.082280 0.615103 -0.103371
v 0.082280 0.464897 -0.103371
v 0.060841 0.464897 -0.103371
v 0.060841 0.436629 -0.075103
v 0.082280 0.436629 -0.075103
v 0.082280 0.500516 0.121519
v 0.060841 0.500516 0.121519
v 0.082280 0.661519 -0.039484
v 0.060841 0.661519 -0.039484
v 0.082280 0.500516 -0.121519
v 0.060841 0.500516 -0.121519
v 0.082280 0.464897 0.103371
v 0.060841 0.464897 0.103371
v 0.082280 0.667773 0.000000
v 0.060841 0.667773 0.000000
v 0.082280 0.540000 -0.127773
v 0.060841 0.540000 -0.127773
v 0.082280 0.436629 0.075103
v 0.060841 0.436629 0.075103
v 0.082280 0.661519 0.039484
v 0.060841 0.661519 0.039484
v 0.082280 0.418481 0.039484
v 0.060841 0.418481 0.039484
v 0.082280 0.643371 0.075103
v 0.060841 0.643371 0.075103
v 0.082280 0.412227 0.000000
v 0.060841 0.412227 0.000000
v 0.082280 0.615103 0.103371
v 0.060841 0.615103 0.103371
v 0.082280 0.579484 -0.121519
v 0.060841 0.579484 -0.121519
v 0.082280 0.418481 -0.039484
v 0.060841 0.418481 -0.039484
v 0.109275 0.540000 -0.130990
v 0.103448 0.540000 -0.125782
v 0.103448 0.501131 -0.119626
v 0.109275 0.499522 -0.124578
v 0.103448 0.466067 -0.101760
v 0.109275 0.463006 -0.105973
v 0.103448 0.438240 -0.073933
v 0.109275 0.434027 -0.076994
v 0.103448 0.420374 -0.038869
v 0.109275 0.415422 -0.040478
v 0.103448 0.414218 0.000000
v 0.109275 0.409010 0.000000
v 0.103448 0.420374 0.038869
v 0.109275 0.415422 0.040478
v 0.103448 0.438240 0.073933
v 0.109275 0.434027 0.076994
v 0.103448 0.466067 0.101760
v 0.109275 0.463006 0.105973
v 0.103448 0.501131 0.119626
v 0.109275 0.499522 0.124578
v 0.103448 0.540000 0.125782
v 0.109275 0.540000 0.130990
v 0.103448 0.578869 0.119626
v 0.109275 0.580478 0.124578
v 0.103448 0.613933 0.101760
v 0.109275 0.616994 0.105973
v 0.103448 0.641760 0.073933
v 0.109275 0.645973 0.076994
v 0.103448 0.659626 0.038869
v 0.109275 0.664578 0.040478
v 0.103448 0.665782 0.000000
v 0.109275 0.670990 0.000000
v 0.103448 0.659626 -0.038869
v 0.109275 0.664578 -0.040478
v 0.103448 0.641760 -0.073933
v 0.109275 0.645973 -0.076994
v 0.103448 0.613933 -0.101760
v 0.109275 0.616994 -0.105973
v 0.103448 0.578869 -0.119626
v 0.109275 0.580478 -0.124578
v -0.001023 0.469071 -0.097626
v -0.001023 0.540000 -0.120672
v -0.001023 0.577290 -0.114766
v 0.010494 0.540000 -0.114155
v -0.001023 0.442375 -0.070929
v -0.001023 0.425234 -0.037290
v 0.010494 0.447647 -0.067099
v 0.010494 0.431432 -0.035276
v -0.001023 0.502710 -0.114766
v 0.010494 0.504724 -0.108568
v 0.010494 0.472901 -0.092353
v -0.001023 0.610929 -0.097626
v 0.010494 0.607098 -0.092353
v -0.001023 0.660672 -0.000000
v -0.001023 0.654765 0.037289
v 0.010494 0.632353 0.067098
v -0.001023 0.637625 0.070929
v -0.001023 0.637625 -0.070929
v -0.001023 0.502710 0.114765
v -0.001023 0.469071 0.097625
v 0.010494 0.648567 -0.035276
v -0.001023 0.654765 -0.037290
v 0.010494 0.431432 0.035276
v -0.001023 0.442375 0.070929
v -0.001023 0.425234 0.037289
v 0.010494 0.425845 -0.000000
v -0.001023 0.419328 -0.000000
v -0.001023 0.540000 0.120671
v 0.010494 0.575276 -0.108568
v 0.010494 0.594685 -0.075268
v 0.010494 0.632353 -0.067099
v 0.010494 0.615268 -0.054686
v 0.010494 0.628483 -0.028750
v 0.010494 0.654155 -0.000000
v 0.010494 0.633037 -0.000000
v 0.010494 0.648567 0.035276
v 0.010494 0.628483 0.028750
v 0.002957 0.628483 0.028750
v 0.010495 0.615268 0.054685
v 0.002957 0.615268 0.054685
v 0.010495 0.594685 0.075268
v 0.010494 0.568750 0.088483
v 0.010495 0.607098 0.092353
v 0.002957 0.594685 0.075268
v 0.002957 0.575540 0.048917
v 0.002957 0.568750 0.088483
v 0.002957 0.540000 0.093037
v 0.002957 0.558685 0.057505
v -0.004581 0.558685 0.057505
v 0.002957 0.540000 0.060465
v -0.004580 0.540000 0.060465
v 0.002957 0.521315 0.057505
v -0.004581 0.521315 0.057505
v 0.002957 0.504460 0.048917
v 0.002957 0.511250 0.088483
v 0.010495 0.511250 0.088483
v 0.002957 0.485314 0.075268
v 0.010494 0.485314 0.075268
v 0.002957 0.464732 0.054685
v 0.002957 0.451517 0.028750
v 0.010494 0.464732 0.054685
v 0.002957 0.491083 0.035540
v 0.002957 0.482494 0.018684
v -0.004581 0.491083 0.035540
v 0.001266 0.492735 0.034339
v -0.004581 0.482494 0.018684
v -0.004581 0.504460 0.048917
v 0.001266 0.505660 0.047264
v 0.001266 0.521947 0.055563
v 0.001266 0.510752 0.040256
v 0.001266 0.499744 0.029248
v -0.003806 0.511524 0.039194
v 0.001266 0.524624 0.047324
v 0.001266 0.540000 0.049759
v -0.003806 0.525029 0.046075
v -0.003806 0.540000 0.048447
v 0.001266 0.527420 0.038716
v 0.001266 0.516072 0.032934
v 0.001266 0.540000 0.040709
v 0.001266 0.552580 0.038716
v -0.003806 0.554971 0.046075
v 0.001266 0.563928 0.032934
v -0.003806 0.568476 0.039194
v 0.001266 0.572934 0.023928
v 0.001266 0.578717 0.012580
v -0.003806 0.586076 0.014971
v 0.001266 0.580709 -0.000000
v 0.001266 0.578717 -0.012580
v 0.001266 0.540000 -0.040709
v 0.001266 0.501283 -0.012580
v -0.003806 0.586076 -0.014971
v 0.001266 0.552580 -0.038717
v 0.001266 0.563928 -0.032934
v 0.001266 0.572934 -0.023928
v -0.003806 0.579194 -0.028476
v 0.001266 0.580256 -0.029248
v -0.003806 0.568476 -0.039194
v 0.001266 0.569248 -0.040256
v -0.003806 0.554971 -0.046076
v 0.001266 0.555376 -0.047324
v -0.003806 0.540000 -0.048447
v 0.001266 0.540000 -0.049759
v -0.003806 0.525029 -0.046076
v -0.003806 0.511524 -0.039194
v 0.001266 0.527420 -0.038717
v 0.001266 0.524624 -0.047324
v 0.001266 0.510752 -0.040256
v 0.001266 0.521947 -0.055563
v 0.001266 0.540000 -0.058422
v -0.004581 0.521315 -0.057506
v 0.001266 0.505660 -0.047265
v -0.004581 0.504460 -0.048917
v 0.001266 0.492735 -0.034340
v 0.001266 0.484437 -0.018054
v 0.001266 0.499744 -0.029248
v -0.004581 0.491083 -0.035541
v 0.002957 0.491083 -0.035541
v -0.004581 0.482494 -0.018685
v 0.002957 0.482494 -0.018685
v -0.004581 0.479535 -0.000000
v 0.002957 0.479535 -0.000000
v 0.001266 0.481578 -0.000000
v 0.001266 0.490241 -0.000000
v 0.001266 0.484437 0.018053
v 0.001266 0.492676 0.015376
v -0.003806 0.493924 0.014971
v -0.003806 0.491553 -0.000000
v -0.003806 0.500806 0.028476
v 0.001266 0.501283 0.012580
v 0.001266 0.507066 0.023928
v 0.001266 0.499291 -0.000000
v -0.003806 0.493924 -0.014971
v 0.001266 0.492676 -0.015377
v -0.003806 0.500806 -0.028476
v 0.001266 0.507066 -0.023928
v 0.001266 0.516072 -0.032934
v 0.002957 0.446963 -0.000000
v 0.002957 0.451517 -0.028750
v 0.010494 0.446963 -0.000000
v 0.010494 0.451517 -0.028750
v 0.010494 0.451517 0.028750
v 0.010494 0.464732 -0.054686
v 0.010494 0.485314 -0.075268
v 0.010494 0.511250 -0.088483
v 0.002957 0.511250 -0.088483
v 0.010494 0.540000 -0.093037
v 0.010494 0.568750 -0.088483
v 0.002957 0.540000 -0.093037
v 0.002957 0.540000 -0.060465
v 0.002957 0.568750 -0.088483
v 0.002957 0.558685 -0.057506
v 0.002957 0.594685 -0.075268
v 0.002957 0.575540 -0.048917
v 0.002957 0.615268 -0.054686
v 0.002957 0.588917 -0.035541
v 0.002957 0.628483 -0.028750
v 0.002957 0.597506 -0.018685
v 0.002957 0.633037 -0.000000
v 0.002957 0.600465 -0.000000
v 0.002957 0.597506 0.018685
v -0.004581 0.600465 -0.000000
v -0.004581 0.597506 -0.018685
v -0.004580 0.597506 0.018685
v 0.001266 0.598422 -0.000000
v 0.001266 0.595563 -0.018054
v 0.001266 0.589759 -0.000000
v 0.001266 0.595563 0.018053
v 0.001266 0.587264 0.034339
v 0.001266 0.587324 0.015376
v 0.001266 0.580256 0.029248
v -0.003806 0.579194 0.028476
v 0.001266 0.569248 0.040256
v 0.001266 0.574340 0.047264
v 0.001266 0.555376 0.047324
v 0.001266 0.558053 0.055563
v 0.001266 0.540000 0.058422
v -0.004580 0.575540 0.048917
v -0.004580 0.588917 0.035540
v 0.002957 0.588917 0.035540
v -0.003806 0.588447 -0.000000
v 0.001266 0.587324 -0.015377
v 0.001266 0.587264 -0.034340
v 0.001266 0.574340 -0.047265
v -0.004581 0.588917 -0.035541
v -0.004581 0.575540 -0.048917
v -0.004581 0.558685 -0.057506
v 0.001266 0.558053 -0.055563
v -0.004581 0.540000 -0.060465
v 0.002957 0.521315 -0.057506
v 0.002957 0.504460 -0.048917
v 0.002957 0.485314 -0.075268
v 0.002957 0.464732 -0.054686
v 0.010494 0.447647 0.067098
v 0.010494 0.472901 0.092353
v 0.010495 0.504724 0.108567
v 0.010495 0.540000 0.114155
v 0.010494 0.575276 0.108567
v 0.010495 0.540000 0.093037
v 0.105554 0.620351 0.120579
v 0.105554 0.643746 0.099780
v 0.105554 0.430493 -0.094020
v 0.105554 0.642819 0.100707
v 0.105554 0.642819 -0.100707
v 0.105554 0.438237 0.101763
v 0.105554 0.437062 -0.100588
v 0.105554 0.586455 -0.137849
v 0.105554 0.456039 -0.118739
v 0.105554 0.456039 0.118739
v 0.105554 0.454355 0.117881
v 0.105554 0.590809 0.135631
v 0.105554 0.582923 0.138910
v 0.105554 0.537896 0.145375
v 0.111097 0.422119 -0.085645
v 0.111097 0.394291 0.000000
v 0.105554 0.394291 0.000000
v 0.111097 0.625645 0.117881
v 0.105554 0.606230 0.127774
v 0.105554 0.657881 0.085645
v 0.111097 0.657881 0.085645
v 0.105554 0.678577 0.045026
v 0.111097 0.685709 0.000000
v 0.105554 0.685709 0.000000
v 0.111097 0.678577 -0.045026
v 0.111097 0.657881 -0.085645
v 0.105554 0.657881 -0.085645
v 0.105554 0.643746 -0.099780
vn -0.0000 -1.0000 -0.0000
vn -1.0000 -0.0000 -0.0000
vn -0.0000 -0.0000 1.0000
vn 1.0000 -0.0000 -0.0000
vn -0.0000 -0.0000 -1.0000
vn -0.0000 1.0000 -0.0000
vn -0.0000 -0.7071 -0.7071
vn 0.7071 -0.0000 -0.7071
vn 0.7071 -0.0000 0.7071
vn 0.7071 -0.7071 -0.0000
vn 0.7071 0.7071 -0.0000
vn -0.0000 0.7071 -0.7071
vn -0.0000 -0.7071 0.7071
vn -0.0000 0.7071 0.7071
vn 0.0007 -0.0002 1.0000
vn 0.0007 0.0002 1.0000
vn 0.0007 0.0002 -1.0000
vn 0.0007 1.0000 0.0002
vn 0.0007 -1.0000 -0.0002
vn 0.0007 -0.0002 -1.0000
vn 0.0007 1.0000 -0.0002
vn 0.0007 -1.0000 0.0002
vn 0.0014 -0.7071 0.7071
vn 0.0014 0.7071 -0.7071
vn 0.0014 0.7071 0.7071
vn 0.0014 -0.7071 -0.7071
vn 0.7064 -0.5005 -0.5005
vn 0.7064 0.5005 -0.5005
vn 0.7064 -0.5005 0.5005
vn 0.7064 0.5005 0.5005
vn 0.7067 -0.7075 -0.0005
vn 0.7067 0.0005 0.7075
vn 0.7067 -0.0005 0.7075
vn 0.7067 0.7075 -0.0005
vn 0.7067 -0.7075 0.0005
vn 0.7067 0.0005 -0.7075
vn 0.7067 0.7075 0.0005
vn 0.7067 -0.0005 -0.7075
vn 1.0000 -0.0051 -0.0051
vn 1.0000 0.0051 -0.0051
vn 1.0000 -0.0051 0.0051
vn 1.0000 0.0051 0.0051
vn 1.0000 -0.0035 0.0006
vn 1.0000 -0.0006 0.0035
vn 1.0000 0.0006 0.0035
vn 1.0000 0.0035 0.0006
vn 1.0000 -0.0035 -0.0006
vn 1.0000 -0.0006 -0.0035
vn 1.0000 0.0035 -0.0006
vn 1.0000 0.0006 -0.0035
vn -0.0001 -1.0000 -0.0001
vn -0.0001 -1.0000 0.0001
vn 0.0008 0.0006 1.0000
vn -0.0003 -1.0000 0.0001
vn 0.7071 -0.5000 -0.5000
vn 0.7071 0.5000 -0.5000
vn 0.7071 -0.5000 0.5000
vn 0.7071 0.5000 0.5000
vn 1.0000 -0.0026 0.0053
vn 1.0000 0.0026 0.0053
vn -0.0053 -0.0000 -1.0000
vn 1.0000 0.0053 -0.0026
vn 1.0000 -0.0053 -0.0026
vn -0.0053 1.0000 -0.0000
vn 1.0000 -0.0053 0.0026
vn -0.0053 -1.0000 -0.0000
vn 1.0000 0.0053 0.0026
vn -0.0053 -0.0000 1.0000
vn 1.0000 -0.0026 -0.0053
vn 1.0000 0.0026 -0.0053
vn 0.5000 -0.7071 0.5000
vn 0.5000 0.7071 0.5000
vn 0.5000 0.7071 -0.5000
vn 0.5000 -0.7071 -0.5000
vn 0.7322 -0.0000 -0.6810
vn -0.7071 -0.0000 0.7071
vn 0.7322 -0.0000 0.6810
vn -0.7071 -0.0000 -0.7071
vn -0.0000 0.0028 1.0000
vn -0.0000 1.0000 -0.0028
vn -0.0000 -1.0000 0.0028
vn -0.0000 -0.0028 -1.0000
vn -0.0000 0.0028 -1.0000
vn -0.0000 -0.0028 1.0000
vn -0.0000 -1.0000 -0.0028
vn -0.0000 1.0000 0.0028
vn -0.0000 0.8910 0.4540
vn -0.0000 -0.1564 0.9877
vn 0.9922 0.0879 0.0879
vn -0.0000 0.9877 0.1564
vn -0.0000 0.9877 -0.1564
vn -0.0000 0.8910 -0.4540
vn -0.0000 0.4540 -0.8910
vn -0.0000 0.1564 -0.9877
vn -0.0000 -0.1564 -0.9877
vn -0.0000 -0.4540 -0.8910
vn -0.0000 -0.8910 -0.4540
vn -0.0000 -0.9877 -0.1564
vn -0.0000 -0.9877 0.1564
vn -0.0000 -0.8910 0.4540
vn -0.0000 -0.4540 0.8910
vn -0.0000 0.4540 0.8910
vn 0.9922 -0.0879 0.0879
vn 0.9922 -0.0194 -0.1228
vn 0.9922 0.1228 -0.0194
vn 0.9922 0.0194 0.1228
vn 0.9922 0.1108 -0.0564
vn 0.9922 -0.1228 -0.0194
vn 0.9922 0.0879 -0.0879
vn 0.9922 -0.1228 0.0194
vn 0.9922 -0.1108 -0.0564
vn 0.9922 0.0564 -0.1108
vn 0.9922 0.0564 0.1108
vn 0.9922 -0.1108 0.0564
vn 0.9922 0.0194 -0.1228
vn 0.9922 0.1108 0.0564
vn 0.9922 -0.0564 0.1108
vn 0.9922 -0.0564 -0.1108
vn 0.9922 -0.0879 -0.0879
vn 0.9922 -0.0194 0.1228
vn 0.9922 0.1228 0.0194
vn -0.0000 0.1564 0.9877
vn 0.6617 0.1173 0.7405
vn 0.6617 0.3404 0.6681
vn 0.6617 0.5302 0.5302
vn 0.6617 0.6681 0.3404
vn 0.6617 0.7405 0.1173
vn 0.6617 0.7405 -0.1173
vn 0.6617 0.6681 -0.3404
vn 0.6617 0.5302 -0.5302
vn 0.6617 0.3404 -0.6681
vn 0.6617 0.1173 -0.7405
vn 0.6617 -0.1173 -0.7405
vn 0.6617 -0.3404 -0.6681
vn 0.6617 -0.5302 -0.5302
vn 0.6617 -0.6680 -0.3404
vn 0.6617 -0.7405 -0.1173
vn 0.6617 -0.7405 0.1173
vn 0.6617 -0.6680 0.3404
vn 0.6617 -0.5302 0.5302
vn 0.6617 -0.3404 0.6681
vn 0.6617 -0.1173 0.7405
vn 0.4878 0.3963 0.7778
vn 0.4878 0.1366 -0.8622
vn 0.4878 -0.7778 -0.3963
vn 0.4878 -0.3963 -0.7778
vn 0.4878 0.3963 -0.7778
vn 0.4878 0.8622 0.1366
vn 0.4878 0.6173 0.6173
vn 0.4878 0.6173 -0.6173
vn 0.4878 -0.3963 0.7778
vn 0.4878 0.8622 -0.1366
vn 0.4878 0.7778 -0.3963
vn 0.4878 -0.1366 -0.8622
vn 0.4878 -0.7778 0.3963
vn 0.4878 -0.8622 0.1366
vn 0.4878 0.7778 0.3963
vn 0.4878 -0.6173 -0.6173
vn 0.4878 0.1366 0.8622
vn 0.4878 -0.1366 0.8622
vn 0.4878 -0.8622 -0.1366
vn 0.4878 -0.6173 0.6173
vn 0.9997 -0.0232 0.0121
vn 0.9986 0.0407 -0.0329
vn 0.9997 0.0203 -0.0106
vn 0.9990 0.0383 0.0249
vn 0.9997 -0.0059 -0.0255
vn 0.9990 0.0306 -0.0340
vn 0.9996 0.0040 0.0271
vn 0.9992 -0.0082 -0.0383
vn 0.9992 0.0380 -0.0095
vn 0.9996 0.0272 0.0034
vn 0.9994 0.0035 0.0341
vn 0.9986 0.0055 -0.0520
vn 0.9994 -0.0025 -0.0335
vn 0.9986 0.0505 0.0135
vn 0.9994 0.0343 -0.0005
vn 0.9992 -0.0108 0.0397
vn 0.9994 0.0331 0.0055
vn 0.9992 0.0375 0.0169
vn 0.9996 -0.0220 0.0195
vn 0.9992 -0.0326 -0.0218
vn 0.9992 0.0241 -0.0310
vn 0.9992 0.0266 -0.0288
vn 0.9996 0.0171 0.0239
vn 0.9994 -0.0307 0.0152
vn -0.0012 -0.9924 -0.1232
vn -0.0150 -0.9926 -0.1205
vn 0.0025 -0.9808 -0.1950
vn 0.0278 -0.9826 -0.1837
vn -0.0355 -0.8827 -0.4685
vn -0.0000 -0.8687 -0.4954
vn 0.0372 -0.8961 -0.4424
vn 0.0363 -0.8971 -0.4403
vn 0.9994 0.0238 -0.0238
vn 0.9992 0.0141 0.0366
vn 0.9994 0.0161 0.0303
vn 0.9992 -0.0385 0.0145
vn -0.0336 -0.7067 -0.7067
vn 0.0196 -0.6826 -0.7306
vn 0.0471 -0.7063 -0.7063
vn -0.0196 -0.7306 -0.6825
vn -0.0473 -0.4336 -0.8999
vn -0.0185 -0.4374 -0.8991
vn 0.0355 -0.4685 -0.8828
vn -0.0000 -0.4837 -0.8753
vn 0.9994 0.0197 0.0272
vn 0.9992 0.0083 0.0403
vn 0.9996 -0.0287 -0.0063
vn 0.9986 0.0520 0.0055
vn 0.9994 0.0220 0.0254
vn 0.9989 -0.0333 0.0333
vn 0.9992 -0.0177 -0.0350
vn 0.9992 0.0384 -0.0082
vn 0.9992 0.0140 0.0367
vn 0.9992 -0.0392 -0.0000
vn 0.9997 -0.0250 -0.0075
vn -0.0044 -0.2077 -0.9782
vn -0.0185 -0.1814 -0.9832
vn 0.0044 -0.1048 -0.9945
vn 0.0185 -0.1381 -0.9902
vn 0.9997 0.0130 -0.0227
vn 0.9986 -0.0135 0.0505
vn 0.9997 -0.0130 0.0227
vn 0.9986 0.0237 -0.0466
vn -0.0482 -0.4354 -0.8989
vn -0.0540 -0.5007 -0.8639
vn 0.0761 -0.4571 -0.8861
vn -0.0196 -0.4839 -0.8749
vn -0.0065 -0.2075 -0.9782
vn -0.0185 -0.1747 -0.9845
vn -0.0000 -0.0806 -0.9967
vn -0.0539 -0.1027 -0.9932
vn 0.9997 0.0207 0.0160
vn 0.9986 -0.0423 -0.0307
vn 0.9994 0.0147 -0.0303
vn 0.9989 0.0311 0.0353
vn -0.0418 0.1776 -0.9832
vn 0.0066 0.2311 -0.9729
vn 0.0763 0.1560 -0.9848
vn 0.0185 0.1381 -0.9902
vn -0.0393 0.4536 -0.8903
vn 0.0236 0.5177 -0.8552
vn 0.0761 0.4482 -0.8907
vn -0.0277 0.4196 -0.9073
vn 0.9994 -0.0249 -0.0226
vn 0.9992 0.0350 -0.0178
vn 0.9992 0.0350 0.0178
vn 0.9989 -0.0398 0.0252
vn -0.0355 0.1728 -0.9843
vn 0.0146 0.1863 -0.9824
vn 0.0473 0.1343 -0.9898
vn 0.0254 0.1381 -0.9901
vn -0.0313 0.4647 -0.8849
vn 0.0196 0.4839 -0.8749
vn 0.0313 0.4427 -0.8961
vn -0.0196 0.4234 -0.9058
vn -0.0417 0.7180 -0.6948
vn -0.0363 0.7172 -0.6959
vn 0.0355 0.6948 -0.7184
vn -0.0146 0.6853 -0.7281
vn 0.9994 0.0167 0.0291
vn 0.9992 -0.0231 0.0318
vn 0.9992 -0.0180 -0.0349
vn 0.9992 -0.0106 -0.0378
vn -0.0032 0.8698 -0.4934
vn -0.0299 0.8950 -0.4452
vn -0.0000 0.9105 -0.4136
vn 0.0150 0.9068 -0.4213
vn 0.9994 -0.0309 0.0131
vn 0.9992 -0.0390 0.0046
vn 0.9990 0.0427 -0.0139
vn 0.9992 -0.0041 0.0390
vn -0.0362 0.8972 -0.4402
vn -0.0741 0.8961 -0.4376
vn 0.0756 0.8839 -0.4616
vn -0.0146 0.8768 -0.4807
vn -0.0317 0.7146 -0.6988
vn 0.0132 0.7582 -0.6519
vn 0.0746 0.6923 -0.7178
vn -0.0000 0.6788 -0.7343
vn 0.3221 -0.6389 0.6986
vn 0.3469 -0.7130 0.6094
vn 0.3962 -0.6393 0.6591
vn 0.3658 -0.6480 0.6681
vn 0.3374 -0.8701 0.3593
vn 0.3486 -0.8269 0.4412
vn 0.3181 -0.8240 0.4689
vn 0.3374 -0.8702 0.3590
vn 0.3266 -0.4957 0.8048
vn 0.3933 -0.3935 0.8309
vn 0.3657 -0.4275 0.8267
vn 0.3140 -0.4049 0.8588
vn 0.9993 0.0332 -0.0184
vn 0.9987 0.0473 0.0182
vn 0.9995 -0.0195 0.0251
vn 0.9991 -0.0293 -0.0307
vn 0.9991 -0.0272 0.0326
vn 0.9990 -0.0157 -0.0417
vn 0.9997 0.0249 -0.0046
vn 0.9993 0.0052 0.0376
vn 0.2784 0.6645 -0.6935
vn 0.2296 0.6759 -0.7004
vn 0.2490 0.7273 -0.6396
vn 0.3081 0.6745 -0.6710
vn 0.2922 0.4522 -0.8427
vn 0.2207 0.4193 -0.8806
vn 0.2471 0.4951 -0.8330
vn 0.2832 0.4703 -0.8358
vn 0.9997 0.0188 0.0170
vn 0.9993 -0.0181 0.0324
vn 0.9995 -0.0259 -0.0184
vn 0.9987 0.0105 -0.0496
vn 0.3093 0.1380 -0.9409
vn 0.2650 0.1332 -0.9550
vn 0.2514 0.1013 -0.9626
vn 0.2103 0.1910 -0.9588
vn 0.8075 -0.2955 0.5105
vn 0.8660 -0.2196 0.4492
vn 0.8406 -0.2387 0.4862
vn 0.8342 -0.2243 0.5037
vn 0.8534 -0.1188 0.5075
vn 0.8488 -0.0815 0.5224
vn 0.8373 -0.0580 0.5437
vn 0.8397 -0.1470 0.5227
vn 0.9996 0.0089 0.0275
vn 0.9996 -0.0225 0.0182
vn 0.9999 0.0110 -0.0113
vn 0.8119 0.0438 0.5821
vn 0.8651 0.1013 0.4913
vn 0.8480 0.0737 0.5249
vn 0.8340 0.1119 0.5403
vn 0.9997 0.0140 0.0220
vn 0.9996 -0.0182 0.0225
vn 0.9999 0.0091 -0.0129
vn 0.8087 0.2313 0.5408
vn 0.8619 0.2085 0.4622
vn 0.8466 0.2343 0.4779
vn 0.8282 0.2677 0.4923
vn 0.9998 0.0011 0.0173
vn 0.9997 -0.0120 0.0232
vn 0.9999 0.0070 -0.0141
vn 0.8572 0.3390 0.3877
vn 0.8407 0.3903 0.3754
vn 0.8439 0.3987 0.3589
vn 0.8315 0.3457 0.4348
vn 0.9999 0.0076 0.0123
vn 0.9994 0.0195 0.0287
vn 0.9998 -0.0098 -0.0144
vn 0.9999 0.0045 0.0138
vn 0.9998 -0.0119 0.0126
vn 0.9999 0.0027 -0.0155
vn 0.8087 0.5050 0.3015
vn 0.8661 0.4491 0.2196
vn 0.8472 0.4626 0.2611
vn 0.8281 0.5045 0.2444
vn 0.8572 0.5021 0.1144
vn 0.8386 0.5396 0.0749
vn 0.8439 0.5335 0.0560
vn 0.8315 0.5353 0.1486
vn 1.0000 0.0072 0.0064
vn 0.9994 0.0327 0.0118
vn 0.9999 -0.0123 -0.0076
vn 0.9999 -0.0149 -0.0053
vn 0.9999 0.0097 -0.0068
vn 1.0000 0.0054 0.0080
vn 0.9999 -0.0072 0.0125
vn 0.9998 0.0027 -0.0215
vn 0.9997 0.0233 -0.0117
vn 1.0000 -0.0096 0.0005
vn 0.9999 0.0030 -0.0115
vn 0.9998 0.0181 -0.0120
vn 1.0000 -0.0078 0.0057
vn 0.8075 0.5867 -0.0610
vn 0.8661 0.4924 -0.0863
vn 0.8472 0.5277 -0.0607
vn 0.8289 0.5516 -0.0932
vn 0.8534 0.4804 -0.2022
vn 0.8357 0.4854 -0.2568
vn 0.8439 0.4645 -0.2683
vn 0.8411 0.5063 -0.1900
vn 0.9997 0.0017 -0.0260
vn 0.9997 0.0252 -0.0066
vn 1.0000 -0.0096 -0.0010
vn 0.9997 0.0083 -0.0247
vn 0.9994 0.0334 -0.0097
vn 1.0000 -0.0093 -0.0025
vn 0.8326 0.4315 -0.3471
vn 0.8635 0.3384 -0.3740
vn 0.8472 0.3913 -0.3593
vn 0.8340 0.3713 -0.4081
vn 0.2407 -0.8445 0.4784
vn 0.2103 -0.8879 0.4091
vn 0.3068 -0.8420 0.4437
vn 0.2842 -0.8544 0.4350
vn 0.2502 -0.6573 0.7109
vn 0.2659 -0.7227 0.6380
vn 0.3050 -0.6724 0.6745
vn 0.2842 -0.6781 0.6778
vn 0.2502 -0.4054 0.8792
vn 0.2518 -0.4915 0.8337
vn 0.3050 -0.4310 0.8492
vn 0.2893 -0.4474 0.8463
vn 0.8326 0.3032 -0.4635
vn 0.8640 0.2178 -0.4539
vn 0.8466 0.2489 -0.4705
vn 0.8340 0.2270 -0.5029
vn 0.8326 0.1451 -0.5345
vn 0.8640 0.0668 -0.4990
vn 0.8466 0.0913 -0.5244
vn 0.8309 0.0659 -0.5525
vn 0.2651 -0.1094 0.9580
vn 0.2518 -0.2099 0.9447
vn 0.3050 -0.1475 0.9409
vn 0.2783 -0.1433 0.9498
vn 0.2423 0.1834 0.9527
vn 0.2518 0.0923 0.9634
vn 0.3027 0.1459 0.9418
vn 0.2893 0.1355 0.9476
vn 0.8312 -0.0298 -0.5552
vn 0.8640 -0.0906 -0.4952
vn 0.8450 -0.0836 -0.5282
vn 0.8295 -0.1078 -0.5480
vn 0.8633 -0.2348 -0.4467
vn 0.8439 -0.2515 -0.4739
vn 0.8373 -0.2727 -0.4739
vn 0.8411 -0.1901 -0.5063
vn 0.2651 0.4746 0.8394
vn 0.2463 0.3881 0.8881
vn 0.3068 0.4437 0.8420
vn 0.2842 0.4350 0.8544
vn 0.9993 -0.0284 0.0252
vn 0.9996 0.0037 -0.0294
vn 0.9993 0.0370 -0.0029
vn 0.9990 0.0299 0.0344
vn 0.9995 0.0078 0.0317
vn 0.9990 -0.0387 0.0242
vn 0.9993 -0.0015 -0.0371
vn 0.9993 0.0348 0.0128
vn 0.3374 -0.0728 -0.9385
vn 0.3582 -0.1605 -0.9197
vn 0.3165 -0.1836 -0.9307
vn 0.3469 -0.0739 -0.9350
vn 0.2541 -0.4480 -0.8572
vn 0.3933 -0.4409 -0.8068
vn 0.3610 -0.4260 -0.8296
vn 0.3105 -0.4534 -0.8355
vn 0.3374 -0.6106 -0.7165
vn 0.3486 -0.6751 -0.6501
vn 0.3324 -0.7006 -0.6314
vn 0.3434 -0.6093 -0.7147
vn 0.9995 -0.0227 0.0234
vn 0.9988 -0.0367 -0.0331
vn 0.9996 0.0294 -0.0037
vn 0.9993 0.0253 0.0284
vn 0.2654 -0.8395 -0.4740
vn 0.3947 -0.8288 -0.3965
vn 0.3686 -0.8190 -0.4398
vn 0.3106 -0.8579 -0.4094
vn 0.9995 0.0301 0.0123
vn 0.9993 -0.0138 0.0354
vn 0.9996 -0.0189 -0.0229
vn 0.9988 0.0269 -0.0415
vn -0.0048 0.9103 0.4138
vn -0.0252 0.8876 0.4598
vn 0.0049 0.8535 0.5211
vn 0.0534 0.8642 0.5003
vn -0.0362 0.6959 0.7173
vn -0.0741 0.6931 0.7170
vn 0.0755 0.7157 0.6943
vn -0.0067 0.7247 0.6890
vn -0.0423 0.9844 0.1710
vn -0.0534 0.9765 0.2088
vn 0.0746 0.9876 0.1382
vn -0.0277 0.9925 0.1187
vn 0.3753 -0.9055 -0.1981
vn 0.3486 -0.9283 -0.1291
vn 0.3165 -0.9418 -0.1130
vn 0.3469 -0.9121 -0.2186
vn -0.0418 0.9900 -0.1349
vn 0.0236 0.9962 -0.0839
vn 0.0088 0.9966 -0.0815
vn -0.0196 0.9816 -0.1898
vn 0.2541 -0.9536 0.1612
vn 0.3933 -0.9036 0.1701
vn 0.3610 -0.9206 0.1488
vn 0.3106 -0.9347 0.1730
vn 0.9991 0.0077 0.0427
vn 0.9996 -0.0268 -0.0126
vn 0.9993 0.0087 -0.0361
vn 0.9993 0.0366 0.0103
vn 0.9993 0.0372 -0.0076
vn 0.9993 -0.0159 0.0345
vn 0.9993 -0.0357 -0.0100
vn 0.9996 0.0234 -0.0182
vn 0.9997 -0.0027 0.0252
vn 0.9990 -0.0436 0.0090
vn 0.9996 0.0056 -0.0291
vn 0.9991 0.0425 -0.0087
vn 0.2407 0.8445 -0.4784
vn 0.2309 0.8901 -0.3930
vn 0.3070 0.8457 -0.4364
vn 0.2650 0.8509 -0.4536
vn 0.2891 0.9464 -0.1442
vn 0.2323 0.9546 -0.1863
vn 0.2490 0.9643 -0.0899
vn 0.2988 0.9454 -0.1305
vn 0.8651 -0.4932 0.0913
vn 0.8507 -0.5189 0.0833
vn 0.8321 -0.5431 0.1124
vn 0.8222 -0.5681 0.0356
vn 0.8623 -0.4566 0.2188
vn 0.8465 -0.4704 0.2494
vn 0.8321 -0.4818 0.2747
vn 0.8361 -0.5136 0.1927
vn 0.9997 -0.0228 0.0126
vn 0.9997 -0.0215 -0.0147
vn 0.9999 0.0093 0.0073
vn 0.9997 -0.0254 0.0060
vn 0.9995 -0.0275 -0.0175
vn 0.9999 0.0080 0.0087
vn 0.8639 -0.4993 -0.0657
vn 0.8366 -0.5426 -0.0758
vn 0.8380 -0.5430 -0.0544
vn 0.8361 -0.5288 -0.1460
vn 0.8651 -0.3454 0.3637
vn 0.8465 -0.3703 0.3826
vn 0.8289 -0.3857 0.4052
vn 0.8315 -0.4348 0.3458
vn 0.9999 -0.0152 0.0042
vn 0.9997 -0.0240 -0.0102
vn 0.9999 0.0103 0.0058
vn 0.3071 0.9407 0.1440
vn 0.2816 0.9498 0.1361
vn 0.2502 0.9615 0.1139
vn 0.2572 0.9435 0.2090
vn 0.2423 0.8786 0.4116
vn 0.2463 0.8360 0.4904
vn 0.3048 0.8513 0.4271
vn 0.2842 0.8541 0.4355
vn 0.8633 -0.4525 -0.2233
vn 0.8488 -0.4716 -0.2389
vn 0.8284 -0.5028 -0.2470
vn 0.8368 -0.4582 -0.2997
vn 0.8312 -0.3505 -0.4316
vn 0.8634 -0.3741 -0.3385
vn 0.8480 -0.3681 -0.3814
vn 0.8342 -0.4098 -0.3690
vn 0.2502 0.7109 0.6573
vn 0.2659 0.6380 0.7227
vn 0.3027 0.6716 0.6762
vn 0.2783 0.6842 0.6742
vn 0.9999 -0.0032 -0.0114
vn 0.9996 -0.0104 -0.0270
vn 0.9996 0.0286 0.0045
vn 0.9996 -0.0030 -0.0288
vn 0.9998 0.0141 0.0165
vn 0.9999 -0.0014 -0.0118
vn 0.9992 -0.0392 0.0019
vn 0.9990 -0.0070 -0.0443
vn 0.9994 0.0336 -0.0000
vn 0.9989 -0.0240 0.0405
vn 0.9990 -0.0183 0.0409
vn 0.9989 -0.0362 -0.0300
vn 0.9994 0.0053 -0.0332
vn 0.9995 0.0260 0.0176
vn -0.0417 0.9841 0.1725
vn 0.0097 0.9825 0.1859
vn 0.0336 0.9871 0.1563
vn -0.0407 0.9903 -0.1329
vn -0.0000 0.9924 -0.1231
vn 0.0449 0.9867 -0.1563
vn -0.0097 0.9825 -0.1859
vn 0.9990 -0.0141 0.0425
vn 0.9996 -0.0274 -0.0107
vn 0.9992 0.0186 -0.0345
vn 0.9995 -0.0313 0.0026
vn 0.9996 -0.0248 -0.0117
vn 0.9996 0.0081 -0.0282
vn 0.9992 0.0181 0.0348
vn 0.9990 -0.0310 -0.0324
vn 0.9992 -0.0359 -0.0156
vn 0.9994 0.0307 -0.0152
vn 0.9997 0.0043 0.0258
vn 0.9992 -0.0389 0.0051
vn 0.9994 -0.0161 -0.0303
vn 0.9994 0.0330 -0.0093
vn 0.9997 -0.0260 -0.0023
vn 0.9994 -0.0040 -0.0340
vn 0.9994 0.0341 -0.0035
vn 0.9989 -0.0419 0.0214
vn 0.9994 -0.0336 -0.0002
vn 0.9989 -0.0145 -0.0448
vn 0.9994 -0.0005 -0.0343
vn 0.9992 0.0397 0.0108
vn -0.0471 0.4535 0.8900
vn 0.0146 0.4267 0.9043
vn 0.0448 0.4535 0.8901
vn 0.0185 0.4703 0.8823
vn -0.0313 0.1442 0.9891
vn 0.0277 0.1187 0.9925
vn 0.0313 0.1685 0.9852
vn -0.0000 0.2027 0.9792
vn -0.0474 -0.1782 0.9829
vn -0.0185 -0.1747 0.9845
vn 0.0407 -0.1329 0.9903
vn -0.0146 -0.1264 0.9919
vn 0.9994 0.0109 -0.0318
vn 0.9992 0.0169 -0.0375
vn 0.9997 0.0128 0.0190
vn 0.9986 -0.0389 -0.0350
vn 0.9994 -0.0335 -0.0036
vn 0.9989 0.0174 -0.0437
vn 0.9994 0.0335 0.0036
vn 0.9989 -0.0252 0.0397
vn 0.9994 0.0076 -0.0328
vn 0.9989 0.0353 0.0311
vn 0.9997 0.0159 0.0208
vn 0.9995 -0.0249 -0.0191
vn 0.9997 0.0239 -0.0107
vn 0.9990 -0.0384 0.0230
vn -0.0044 -0.4069 0.9135
vn -0.0185 -0.4373 0.8991
vn 0.0032 -0.4934 0.8698
vn 0.0185 -0.4703 0.8823
vn 0.9994 -0.0238 -0.0238
vn 0.9995 0.0259 -0.0177
vn 0.9990 0.0223 0.0389
vn 0.9989 -0.0470 0.0030
vn -0.0355 -0.7183 0.6948
vn 0.0277 -0.7332 0.6794
vn 0.0417 -0.6948 0.7180
vn 0.0185 -0.6938 0.7200
vn 0.9994 0.0272 -0.0197
vn 0.9989 -0.0044 0.0469
vn 0.9995 -0.0306 0.0068
vn 0.9992 0.0041 -0.0390
vn -0.0473 -0.8999 0.4336
vn 0.0096 -0.9041 0.4272
vn 0.0407 -0.8793 0.4746
vn -0.0196 -0.8749 0.4839
vn 0.9992 0.0392 -0.0019
vn 0.9995 -0.0039 0.0311
vn 0.9992 -0.0223 0.0323
vn -0.0044 -0.9782 0.2077
vn -0.0328 -0.9883 0.1490
vn -0.0331 -0.9902 0.1355
vn 0.0298 -0.9857 0.1659
vn 0.9990 0.0449 -0.0000
vn 0.9992 0.0239 0.0311
vn 0.9992 -0.0356 -0.0165
vn 0.9992 0.0218 -0.0326
vn -0.0000 -0.9937 -0.1120
vn -0.0362 -0.9846 -0.1711
vn -0.0000 -0.9729 -0.2313
vn -0.0444 -0.9752 -0.2168
vn -0.0449 -0.9867 0.1563
vn -0.0615 -0.9779 0.1998
vn 0.0756 -0.9832 0.1659
vn -0.0196 -0.9816 0.1899
vn 0.2766 0.9563 -0.0951
vn 0.3658 0.9169 -0.1596
vn 0.3120 0.9324 -0.1821
vn 0.3374 0.9386 -0.0725
vn 0.3181 0.9422 0.1049
vn 0.2681 0.9576 0.1053
vn 0.3973 0.9070 0.1397
vn 0.3425 0.9305 0.1295
vn 0.9995 -0.0273 -0.0178
vn 0.9991 -0.0019 -0.0434
vn 0.9993 0.0368 0.0044
vn 0.9990 -0.0118 0.0429
vn 0.9995 0.0244 -0.0216
vn 0.9990 0.0405 0.0184
vn 0.9997 -0.0207 0.0135
vn 0.9990 -0.0315 -0.0330
vn 0.9995 -0.0117 -0.0304
vn 0.9990 0.0375 -0.0259
vn 0.9997 0.0118 0.0217
vn 0.9990 -0.0244 0.0372
vn 0.3253 0.8052 0.4959
vn 0.3967 0.8225 0.4076
vn 0.3645 0.8215 0.4386
vn 0.3103 0.8551 0.4153
vn 0.2885 -0.8605 -0.4199
vn 0.2222 -0.8775 -0.4251
vn 0.2471 -0.8330 -0.4951
vn 0.2895 -0.8353 -0.4674
vn 0.2713 -0.9537 -0.1295
vn 0.2205 -0.9684 -0.1167
vn 0.2054 -0.9600 -0.1904
vn 0.3081 -0.9393 -0.1513
vn 0.2713 -0.6955 -0.6653
vn 0.2207 -0.7079 -0.6709
vn 0.2054 -0.6647 -0.7183
vn 0.3081 -0.6710 -0.6745
vn 0.9995 0.0324 -0.0031
vn 0.9990 0.0330 0.0299
vn 0.9993 -0.0319 0.0190
vn 0.9993 0.0008 -0.0380
vn 0.9993 0.0378 0.0037
vn 0.9993 0.0092 0.0359
vn 0.9993 -0.0370 0.0029
vn 0.9990 0.0082 -0.0449
vn 0.2784 -0.4542 -0.8463
vn 0.2205 -0.4748 -0.8520
vn 0.2112 -0.4016 -0.8911
vn 0.2895 -0.4010 -0.8691
vn 0.9997 0.0109 -0.0229
vn 0.9990 0.0430 0.0151
vn 0.9993 0.0015 0.0371
vn 0.9993 -0.0348 -0.0128
vn 0.2504 -0.0869 -0.9642
vn 0.2960 -0.1177 -0.9479
vn 0.2885 -0.1661 -0.9430
vn 0.2296 -0.1694 -0.9584
vn 0.3266 0.3597 0.8740
vn 0.2756 0.3864 0.8802
vn 0.3610 0.4260 0.8296
vn 0.3181 0.4623 0.8277
vn 0.3165 0.1836 0.9307
vn 0.2756 0.2048 0.9392
vn 0.3973 0.1474 0.9058
vn 0.3582 0.1605 0.9197
vn 0.3253 -0.2228 0.9190
vn 0.3967 -0.1334 0.9082
vn 0.3557 -0.1414 0.9238
vn 0.3138 -0.1141 0.9426
vn 0.3265 0.6122 0.7201
vn 0.3967 0.6563 0.6418
vn 0.3609 0.6573 0.6616
vn 0.3272 0.6989 0.6360
vn -0.0362 -0.6959 -0.7173
vn 0.0066 -0.6513 -0.7588
vn 0.0761 -0.7086 -0.7015
vn -0.0146 -0.7281 -0.6853
vn -0.0317 -0.8854 -0.4637
vn 0.0066 -0.8539 -0.5204
vn 0.0763 -0.8884 -0.4527
vn -0.0150 -0.9068 -0.4213
vn 0.9994 0.0225 -0.0249
vn 0.9992 0.0288 0.0266
vn 0.9992 -0.0254 0.0300
vn 0.9989 -0.0381 -0.0277
vn 0.2891 -0.9464 0.1442
vn 0.2222 -0.9597 0.1718
vn 0.2471 -0.9649 0.0890
vn 0.2832 -0.9526 0.1108
vn 0.9991 -0.0367 0.0231
vn 0.9993 -0.0205 -0.0320
vn 0.9991 0.0359 -0.0226
vn 0.9993 -0.0063 0.0366
vn 0.3221 0.8235 -0.4670
vn 0.3469 0.8664 -0.3592
vn 0.3962 0.8117 -0.4293
vn 0.3562 0.8238 -0.4409
vn 0.2537 0.6919 -0.6759
vn 0.3933 0.6310 -0.6687
vn 0.3657 0.6621 -0.6542
vn 0.3181 0.6443 -0.6954
vn 0.9993 -0.0157 0.0346
vn 0.9993 -0.0294 -0.0241
vn 0.9993 0.0251 -0.0273
vn 0.9991 0.0184 0.0382
vn -0.0362 -0.8972 0.4401
vn 0.0132 -0.9225 0.3857
vn 0.0746 -0.8802 0.4687
vn -0.0000 -0.8753 0.4837
vn -0.0336 -0.7067 0.7067
vn 0.0236 -0.7566 0.6534
vn 0.0267 -0.7558 0.6543
vn -0.0097 -0.6856 0.7279
vn 0.2739 0.4831 -0.8316
vn 0.3591 0.4829 -0.7986
vn 0.3610 0.4261 -0.8296
vn 0.3140 0.4049 -0.8588
vn -0.0065 -0.4071 0.9134
vn -0.0299 -0.4624 0.8862
vn -0.0756 -0.4637 0.8828
vn 0.0612 -0.4926 0.8681
vn 0.2541 0.1414 -0.9568
vn 0.3850 0.1857 -0.9040
vn 0.3557 0.1414 -0.9238
vn 0.3138 0.1141 -0.9426
vn -0.0483 -0.1762 0.9832
vn -0.0448 -0.2165 0.9753
vn 0.0088 -0.2305 0.9730
vn -0.0317 0.1453 0.9889
vn -0.0741 0.1393 0.9875
vn 0.0746 0.1738 0.9820
vn -0.0277 0.1938 0.9806
vn 0.9995 -0.0323 -0.0046
vn 0.9993 0.0181 -0.0324
vn 0.9995 0.0259 0.0184
vn 0.9990 0.0039 0.0455
vn 0.9993 -0.0042 0.0378
vn 0.9990 -0.0455 -0.0032
vn 0.9995 0.0195 -0.0251
vn 0.9993 0.0245 0.0279
vn 0.9992 -0.0139 -0.0366
vn 0.9990 0.0399 -0.0203
vn 0.9994 0.0059 0.0331
vn 0.9989 -0.0459 -0.0103
vn -0.0418 0.4343 0.8998
vn 0.0236 0.3876 0.9215
vn 0.0088 0.3855 0.9227
vn -0.0196 0.4839 0.8749
vn 0.9997 -0.0189 -0.0180
vn 0.9989 0.0412 -0.0227
vn 0.9990 0.0263 0.0362
vn 0.9992 -0.0383 0.0082
vn 0.0331 0.7214 0.6917
vn -0.0185 0.7199 0.6938
vn -0.0000 0.6747 0.7381
vn 0.0448 0.7166 0.6961
vn -0.0032 0.9104 0.4137
vn -0.0277 0.9029 0.4289
vn 0.0024 0.8687 0.4954
vn 0.0299 0.8950 0.4452
vn 0.9997 -0.0153 0.0212
vn 0.9995 0.0191 -0.0249
vn 0.9989 0.0289 0.0372
vn 0.9990 -0.0429 0.0132
vn 0.9994 -0.0343 -0.0004
vn 0.9996 0.0046 -0.0270
vn 0.9995 0.0040 0.0311
vn 0.9994 -0.0275 0.0194
vn 0.9990 -0.0306 0.0340
vn 0.9994 -0.0092 -0.0330
vn 0.9990 0.0129 0.0430
vn 0.9994 0.0271 0.0199
vn 0.9992 -0.0305 0.0247
vn 0.9996 -0.0215 0.0170
vn 0.9990 -0.0383 -0.0249
vn 0.9992 0.0369 0.0133
vn 0.9995 0.0248 0.0192
vn 0.9994 -0.0150 0.0308
vn 0.9996 -0.0168 -0.0217
vn 0.9995 0.0084 -0.0302
vn 0.9996 -0.0093 0.0279
vn 0.9994 -0.0303 -0.0160
vn 0.9998 0.0099 -0.0193
vn 0.9998 0.0134 0.0171
vn 0.9999 0.0004 -0.0118
vn 0.8944 -0.0000 -0.4472
vt 0.125000 0.583333
vt 0.272743 0.583333
vt 0.272743 0.666667
vt 0.125000 0.666667
vt 0.625000 0.166667
vt 0.625000 0.223330
vt 0.598330 0.250000
vt 0.541667 0.250000
vt 0.541667 0.166667
vt 0.442299 0.533777
vt 0.442299 0.533777
vt 0.486392 0.716223
vt 0.486392 0.716223
vt 0.459175 0.716223
vt 0.459175 0.716223
vt 0.486392 0.716223
vt 0.598330 0.000000
vt 0.625000 0.026670
vt 0.625000 0.083333
vt 0.541667 0.083333
vt 0.541667 0.000000
vt 0.875000 0.583333
vt 0.727257 0.583333
vt 0.542954 0.582045
vt 0.542954 0.543436
vt 0.580338 0.543436
vt 0.581564 0.544662
vt 0.581564 0.582045
vt 0.616496 0.666667
vt 0.727257 0.666667
vt 0.458333 0.852257
vt 0.541667 0.852257
vt 0.541667 1.000000
vt 0.458333 1.000000
vt 0.375000 0.223330
vt 0.375000 0.166667
vt 0.458333 0.166667
vt 0.458333 0.250000
vt 0.401670 0.250000
vt 0.407849 0.735085
vt 0.458333 0.735085
vt 0.610085 0.666667
vt 0.458333 0.000000
vt 0.458333 0.083333
vt 0.408777 0.665825
vt 0.408777 0.584175
vt 0.375000 0.083333
vt 0.389915 0.583333
vt 0.390621 0.582627
vt 0.408093 0.582649
vt 0.407489 0.583333
vt 0.457045 0.706564
vt 0.419662 0.706564
vt 0.418436 0.705338
vt 0.418436 0.667955
vt 0.457045 0.667954
vt 0.541667 0.397743
vt 0.458333 0.397743
vt 0.541667 0.508504
vt 0.389915 0.666667
vt 0.389915 0.717151
vt 0.383504 0.666667
vt 0.875000 0.666667
vt 0.616496 0.583333
vt 0.592151 0.735084
vt 0.610085 0.717151
vt 0.383504 0.583333
vt 0.401670 0.000000
vt 0.375000 0.026670
vt 0.458333 0.508504
vt 0.458333 0.741496
vt 0.541667 0.741496
vt 0.541667 0.735085
vt 0.610085 0.532848
vt 0.592151 0.514915
vt 0.407848 0.514915
vt 0.389915 0.532848
vt 0.557701 0.716223
vt 0.584339 0.716223
vt 0.541667 0.514915
vt 0.458333 0.514915
vt 0.610085 0.583333
vt 0.401670 0.852257
vt 0.401670 1.000000
vt 0.598330 0.852257
vt 0.598330 1.000000
vt 0.598330 0.397743
vt 0.875000 0.723330
vt 0.727257 0.723330
vt 0.125000 0.526670
vt 0.272743 0.526670
vt 0.401670 0.397743
vt 0.727257 0.526670
vt 0.875000 0.526670
vt 0.272743 0.723330
vt 0.125000 0.723330
vt 0.272743 0.750000
vt 0.125000 0.750000
vt 0.625000 0.250000
vt 0.625000 0.397743
vt 0.625000 0.852257
vt 0.625000 1.000000
vt 0.125000 0.500000
vt 0.272743 0.500000
vt 0.375000 0.502491
vt 0.375000 0.524180
vt 0.616496 0.530193
vt 0.594807 0.508504
vt 0.598330 0.500000
vt 0.625000 0.526670
vt 0.375000 0.725820
vt 0.375000 0.747509
vt 0.594807 0.741496
vt 0.616496 0.719807
vt 0.625000 0.723330
vt 0.598330 0.750000
vt 0.383504 0.719807
vt 0.405193 0.741496
vt 0.383504 0.530193
vt 0.405193 0.508504
vt 0.457627 0.533071
vt 0.457627 0.515621
vt 0.458333 0.532489
vt 0.591223 0.709339
vt 0.408071 0.667373
vt 0.390621 0.667373
vt 0.407489 0.666667
vt 0.591859 0.515621
vt 0.609379 0.533141
vt 0.408071 0.709631
vt 0.415369 0.716929
vt 0.542373 0.734379
vt 0.542372 0.716929
vt 0.390621 0.533141
vt 0.408141 0.515621
vt 0.591929 0.540369
vt 0.584631 0.533071
vt 0.457627 0.716929
vt 0.457627 0.734379
vt 0.415369 0.533071
vt 0.408071 0.540369
vt 0.542373 0.515621
vt 0.542372 0.533071
vt 0.609379 0.582627
vt 0.591223 0.584175
vt 0.591223 0.665825
vt 0.457649 0.716907
vt 0.458333 0.717511
vt 0.408777 0.709339
vt 0.408093 0.667351
vt 0.408777 0.667954
vt 0.609379 0.667373
vt 0.591907 0.667351
vt 0.592511 0.666667
vt 0.513608 0.716223
vt 0.540825 0.716223
vt 0.541667 0.717511
vt 0.542351 0.533093
vt 0.541667 0.532489
vt 0.581564 0.667955
vt 0.581564 0.705338
vt 0.580338 0.706564
vt 0.542954 0.706564
vt 0.542955 0.667955
vt 0.591223 0.540661
vt 0.591907 0.582649
vt 0.591223 0.582045
vt 0.415661 0.716223
vt 0.415661 0.533777
vt 0.457649 0.533093
vt 0.457045 0.533777
vt 0.442299 0.716223
vt 0.592511 0.583333
vt 0.584339 0.533777
vt 0.542955 0.533777
vt 0.390621 0.716859
vt 0.408141 0.734379
vt 0.591859 0.734379
vt 0.609379 0.716859
vt 0.408777 0.540661
vt 0.591929 0.709631
vt 0.584631 0.716928
vt 0.584339 0.716223
vt 0.542351 0.716907
vt 0.542955 0.716223
vt 0.408071 0.582627
vt 0.408777 0.582045
vt 0.486392 0.533777
vt 0.459175 0.533777
vt 0.540825 0.533777
vt 0.513608 0.533777
vt 0.591929 0.582627
vt 0.442299 0.716223
vt 0.486392 0.543436
vt 0.459175 0.543436
vt 0.459175 0.533777
vt 0.557701 0.533777
vt 0.457045 0.716223
vt 0.408777 0.682701
vt 0.591929 0.667373
vt 0.591223 0.667954
vt 0.557701 0.533777
vt 0.457045 0.543436
vt 0.419662 0.543436
vt 0.415661 0.533777
vt 0.542955 0.716223
vt 0.457045 0.716223
vt 0.591223 0.582045
vt 0.418436 0.544662
vt 0.542955 0.533777
vt 0.542954 0.543436
vt 0.540825 0.543436
vt 0.513608 0.706564
vt 0.540825 0.706564
vt 0.513608 0.716223
vt 0.418436 0.584175
vt 0.418436 0.665825
vt 0.418436 0.582045
vt 0.408777 0.582045
vt 0.581564 0.665825
vt 0.581564 0.584175
vt 0.457045 0.582045
vt 0.408777 0.667509
vt 0.459621 0.716223
vt 0.542509 0.716223
vt 0.591223 0.665379
vt 0.408777 0.584621
vt 0.457491 0.533777
vt 0.591223 0.582491
vt 0.540379 0.533777
vt 0.459175 0.665379
vt 0.459175 0.706564
vt 0.540825 0.584621
vt 0.459175 0.584621
vt 0.459175 0.543436
vt 0.457045 0.543436
vt 0.459621 0.665825
vt 0.581564 0.667955
vt 0.581564 0.582045
vt 0.459621 0.584175
vt 0.540379 0.584175
vt 0.540379 0.665825
vt 0.540825 0.665379
vt 0.486392 0.706564
vt 0.513608 0.543436
vt 0.513608 0.686083
vt 0.513608 0.686083
vt 0.487035 0.687792
vt 0.512965 0.687792
vt 0.512965 0.706564
vt 0.487035 0.706564
vt 0.512965 0.543436
vt 0.512965 0.562209
vt 0.487035 0.562209
vt 0.487035 0.543436
vt 0.486392 0.716223
vt 0.486392 0.563917
vt 0.486392 0.563917
vt 0.512965 0.716223
vt 0.487035 0.716223
vt 0.488145 0.716223
vt 0.511855 0.716223
vt 0.511855 0.533777
vt 0.511855 0.533777
vt 0.513608 0.563917
vt 0.487035 0.533777
vt 0.512965 0.533777
vt 0.486392 0.686083
vt 0.486392 0.686083
vt 0.487035 0.533777
vt 0.512965 0.533777
vt 0.512965 0.716223
vt 0.487035 0.716223
vt 0.488145 0.533777
vt 0.488145 0.533777
vt 0.488145 0.716223
vt 0.489037 0.533777
vt 0.510963 0.533777
vt 0.510963 0.533777
vt 0.489037 0.533777
vt 0.510963 0.716223
vt 0.510963 0.716223
vt 0.489037 0.716223
vt 0.489037 0.716223
vt 0.591223 0.567299
vt 0.591223 0.567299
vt 0.591223 0.682701
vt 0.591223 0.682701
vt 0.408777 0.567299
vt 0.527694 0.673274
vt 0.537948 0.665402
vt 0.513608 0.676639
vt 0.523852 0.674192
vt 0.456106 0.316968
vt 0.425324 0.377380
vt 0.425324 0.377380
vt 0.456106 0.316968
vt 0.250000 0.466712
vt 0.183032 0.456106
vt 0.183032 0.456106
vt 0.250000 0.466713
vt 0.380957 0.430247
vt 0.430247 0.380957
vt 0.444164 0.391068
vt 0.391068 0.444164
vt 0.377380 0.425324
vt 0.377380 0.425324
vt 0.425324 0.377380
vt 0.466712 0.250000
vt 0.466712 0.250000
vt 0.456106 0.183032
vt 0.456106 0.183032
vt 0.425324 0.122620
vt 0.377380 0.074676
vt 0.425324 0.122620
vt 0.377380 0.074676
vt 0.316968 0.043894
vt 0.250000 0.033288
vt 0.316968 0.043894
vt 0.250000 0.033288
vt 0.183032 0.043894
vt 0.183032 0.043894
vt 0.122620 0.074676
vt 0.122620 0.074676
vt 0.074676 0.122620
vt 0.122620 0.074676
vt 0.043894 0.183032
vt 0.074676 0.122620
vt 0.043894 0.183032
vt 0.033288 0.250000
vt 0.043894 0.183032
vt 0.043894 0.316968
vt 0.043894 0.316968
vt 0.074676 0.377380
vt 0.122620 0.425324
vt 0.183032 0.456106
vt 0.377380 0.425324
vt 0.316968 0.456106
vt 0.316968 0.456106
vt 0.069753 0.380957
vt 0.119043 0.430247
vt 0.108932 0.444164
vt 0.055836 0.391068
vt 0.250000 0.027202
vt 0.181152 0.038106
vt 0.175836 0.021746
vt 0.250000 0.010000
vt 0.122620 0.425324
vt 0.472798 0.250000
vt 0.461893 0.181152
vt 0.478254 0.175836
vt 0.490000 0.250000
vt 0.250000 0.472798
vt 0.318848 0.461894
vt 0.324164 0.478254
vt 0.250000 0.490000
vt 0.461893 0.181152
vt 0.430247 0.119043
vt 0.444164 0.108932
vt 0.038106 0.181152
vt 0.027202 0.250000
vt 0.010000 0.250000
vt 0.021746 0.175836
vt 0.430247 0.119043
vt 0.380957 0.069753
vt 0.391068 0.055836
vt 0.038106 0.318848
vt 0.021746 0.324164
vt 0.069753 0.119043
vt 0.055836 0.108932
vt 0.380957 0.069753
vt 0.318848 0.038106
vt 0.324164 0.021746
vt 0.318848 0.461894
vt 0.380957 0.430247
vt 0.318848 0.038107
vt 0.250000 0.027202
vt 0.430247 0.380957
vt 0.461894 0.318848
vt 0.478254 0.324164
vt 0.119043 0.430247
vt 0.181152 0.461894
vt 0.175836 0.478254
vt 0.181152 0.038106
vt 0.119043 0.069753
vt 0.108932 0.055836
vt 0.119043 0.069753
vt 0.069753 0.119043
vt 0.181152 0.461894
vt 0.250000 0.472798
vt 0.425324 0.122620
vt 0.425324 0.122620
vt 0.456106 0.183032
vt 0.456106 0.183032
vt 0.466712 0.250000
vt 0.122620 0.074676
vt 0.864299 0.287138
vt 0.847229 0.320641
vt 0.635701 0.287138
vt 0.629818 0.250000
vt 0.679359 0.152771
vt 0.712862 0.135701
vt 0.820641 0.347229
vt 0.787138 0.364299
vt 0.635701 0.212862
vt 0.635701 0.212862
vt 0.652771 0.179359
vt 0.847229 0.320641
vt 0.652771 0.320641
vt 0.750000 0.370182
vt 0.712862 0.364299
vt 0.250000 0.457907
vt 0.314247 0.447732
vt 0.372205 0.418201
vt 0.787138 0.364299
vt 0.870182 0.250000
vt 0.864299 0.212862
vt 0.870182 0.250000
vt 0.679359 0.347229
vt 0.847229 0.179359
vt 0.820641 0.152771
vt 0.787138 0.135701
vt 0.750000 0.129819
vt 0.670758 0.307573
vt 0.656845 0.280268
vt 0.692427 0.329242
vt 0.719732 0.343155
vt 0.750000 0.347949
vt 0.780268 0.343155
vt 0.807573 0.329242
vt 0.829242 0.307573
vt 0.843155 0.280268
vt 0.787417 0.301500
vt 0.801500 0.287417
vt 0.810542 0.269671
vt 0.847948 0.250000
vt 0.813657 0.250000
vt 0.843155 0.219732
vt 0.810542 0.230329
vt 0.801500 0.212583
vt 0.829242 0.192427
vt 0.807573 0.170758
vt 0.787417 0.198500
vt 0.780268 0.156845
vt 0.769671 0.189458
vt 0.799760 0.213847
vt 0.786152 0.200240
vt 0.769007 0.191504
vt 0.808496 0.230993
vt 0.792381 0.219208
vt 0.799822 0.233812
vt 0.780792 0.207619
vt 0.779980 0.208736
vt 0.791263 0.220020
vt 0.798508 0.234239
vt 0.802386 0.250000
vt 0.811507 0.250000
vt 0.801005 0.250000
vt 0.798508 0.265761
vt 0.791263 0.279980
vt 0.779980 0.291264
vt 0.765761 0.298508
vt 0.750000 0.301004
vt 0.734239 0.298508
vt 0.734239 0.201492
vt 0.698995 0.250000
vt 0.701492 0.265761
vt 0.720020 0.291264
vt 0.708737 0.279980
vt 0.733812 0.299822
vt 0.719208 0.292381
vt 0.707619 0.280792
vt 0.700178 0.266188
vt 0.697614 0.250000
vt 0.701492 0.234239
vt 0.700178 0.233812
vt 0.708736 0.220020
vt 0.707619 0.219208
vt 0.700240 0.213847
vt 0.691504 0.230993
vt 0.688493 0.250000
vt 0.686343 0.250000
vt 0.689458 0.230329
vt 0.698500 0.212583
vt 0.713847 0.200240
vt 0.712583 0.198500
vt 0.719208 0.207619
vt 0.730329 0.189458
vt 0.730993 0.191504
vt 0.733812 0.200178
vt 0.750000 0.186343
vt 0.750000 0.188493
vt 0.766188 0.200178
vt 0.750000 0.197614
vt 0.765761 0.201492
vt 0.750000 0.198995
vt 0.720020 0.208736
vt 0.750000 0.152051
vt 0.719732 0.156845
vt 0.692427 0.170758
vt 0.670758 0.192427
vt 0.656845 0.219732
vt 0.652051 0.250000
vt 0.689458 0.269671
vt 0.698500 0.287417
vt 0.712583 0.301500
vt 0.730329 0.310542
vt 0.750000 0.313657
vt 0.769671 0.310542
vt 0.750000 0.311506
vt 0.730994 0.308496
vt 0.769007 0.308496
vt 0.750000 0.302386
vt 0.766188 0.299822
vt 0.780792 0.292381
vt 0.786153 0.299760
vt 0.792381 0.280792
vt 0.799760 0.286153
vt 0.808496 0.269007
vt 0.799822 0.266188
vt 0.713848 0.299760
vt 0.700240 0.286153
vt 0.691504 0.269006
vt 0.540379 0.585736
vt 0.540379 0.664264
vt 0.548886 0.658702
vt 0.561341 0.642718
vt 0.565633 0.625000
vt 0.561341 0.607282
vt 0.548886 0.591298
vt 0.513608 0.573361
vt 0.537948 0.584598
vt 0.527693 0.576726
vt 0.459621 0.664264
vt 0.459621 0.585736
vt 0.456154 0.588003
vt 0.451114 0.591298
vt 0.438659 0.607282
vt 0.434367 0.625000
vt 0.438659 0.642718
vt 0.451114 0.658702
vt 0.540153 0.664623
vt 0.540825 0.664264
vt 0.540825 0.665825
vt 0.537948 0.665801
vt 0.540152 0.585377
vt 0.537948 0.584199
vt 0.540825 0.584175
vt 0.540825 0.585736
vt 0.462052 0.665801
vt 0.459175 0.665825
vt 0.459175 0.664264
vt 0.460614 0.665033
vt 0.459762 0.585423
vt 0.459175 0.585736
vt 0.459175 0.584175
vt 0.462052 0.584199
vt 0.490748 0.568398
vt 0.486392 0.573361
vt 0.509545 0.568733
vt 0.509252 0.568398
vt 0.500000 0.565122
vt 0.462052 0.584598
vt 0.473529 0.576434
vt 0.472306 0.576726
vt 0.486392 0.676639
vt 0.462052 0.665402
vt 0.472306 0.673274
vt 0.473529 0.673566
vt 0.510440 0.680248
vt 0.490748 0.681602
vt 0.499568 0.684724
vt 0.500000 0.684878
vt 0.508819 0.681755
vt 0.509252 0.681602
vt 0.850000 0.976637
vt 0.850000 1.000000
vt 0.800000 1.000000
vt 0.800000 0.976637
vt 0.750000 1.000000
vt 0.750000 0.976637
vt 0.700000 1.000000
vt 0.700000 0.976637
vt 0.650000 1.000000
vt 0.650000 0.976637
vt 0.350000 1.000000
vt 0.300000 1.000000
vt 0.300000 0.976637
vt 0.350000 0.976637
vt 0.250000 1.000000
vt 0.250000 0.976637
vt 0.300000 0.976637
vt 0.200000 1.000000
vt 0.200000 0.976637
vt 0.250000 0.976637
vt 0.150000 1.000000
vt 0.150000 0.976637
vt 0.200000 0.976637
vt 0.000000 0.000000
s 0
usemtl M_Noir_Bleuté
f 5/1/1 30/2/1 29/3/1 6/4/1
f 8/5/2 19/6/2 20/7/2 3/8/2 12/9/2
f 338/12/3 330/13/3 242/14/3 281/15/3 331/16/3
f 15/17/2 16/18/2 7/19/2 11/20/2 2/21/2
f 8/22/3 33/23/3 81/23/3 66/22/3
f 50/29/5 34/30/5 82/30/5 83/29/5
f 26/31/3 25/32/3 2/33/3 1/34/3
f 18/35/2 5/36/2 10/37/2 4/38/2 17/39/2
f 139/40/5 143/41/5 109/41/5 105/40/5
f 145/42/5 50/29/5 83/29/5 111/42/5
f 10/37/2 12/9/2 3/8/2 4/38/2
f 1/43/2 2/21/2 11/20/2 9/44/2
f 238/45/1 252/46/1 277/46/1 296/45/1
f 6/47/2 9/44/2 10/37/2 5/36/2
f 146/48/4 119/49/4 31/50/4 253/51/4
f 4/38/5 3/8/5 21/57/5 24/58/5
f 44/59/1 21/57/1 68/57/1 69/59/1
f 142/60/6 138/61/6 104/61/6 108/60/6
f 49/62/5 142/60/5 108/60/5 76/62/5
f 3/8/2 20/7/2 54/7/2 67/8/2
f 33/23/6 8/22/6 7/63/6 34/30/6
f 33/23/3 51/64/3 80/64/3 81/23/3
f 11/20/2 7/19/2 8/5/2 12/9/2
f 140/65/7 141/66/7 107/66/7 106/65/7
f 21/57/1 3/8/1 67/8/1 68/57/1
f 146/48/3 48/67/3 79/67/3 112/48/3
f 14/68/2 1/43/2 9/44/2 6/47/2 13/69/2
f 44/59/8 45/70/8 24/58/8 21/57/8
f 25/32/9 26/31/9 46/71/9 47/72/9
f 29/3/10 30/2/10 48/67/10 49/62/10
f 33/23/11 34/30/11 50/29/11 51/64/11
f 19/6/2 8/5/2 66/5/2 55/6/2
f 6/4/5 29/3/5 77/3/5 60/4/5
f 138/61/12 139/40/12 105/40/12 104/61/12
f 4/38/6 24/58/6 71/58/6 65/38/6
f 47/72/1 144/73/1 110/73/1 72/72/1
f 17/39/2 4/38/2 65/38/2 53/39/2
f 30/2/3 5/1/3 64/1/3 78/2/3
f 48/67/3 30/2/3 78/2/3 79/67/3
f 136/74/13 137/75/13 103/75/13 102/74/13
f 143/41/6 46/71/6 75/71/6 109/41/6
f 5/36/2 18/35/2 52/35/2 64/36/2
f 134/76/14 135/77/14 101/77/14 100/76/14
f 149/80/4 147/81/4 45/70/4 44/59/4
f 143/41/4 144/73/4 47/72/4 46/71/4
f 146/48/4 142/60/4 49/62/4 48/67/4
f 145/42/4 148/82/4 51/64/4 50/29/4
f 45/70/6 147/81/6 113/81/6 70/70/6
f 7/19/2 16/18/2 58/18/2 63/19/2
f 29/3/5 49/62/5 76/62/5 77/3/5
f 149/80/1 44/59/1 69/59/1 115/80/1
f 15/17/2 2/21/2 62/21/2 59/17/2
f 137/75/3 149/80/3 115/80/3 103/75/3
f 1/43/2 14/68/2 56/68/2 61/43/2
f 46/71/6 26/31/6 74/31/6 75/71/6
f 148/82/1 136/74/1 102/74/1 114/82/1
f 13/69/2 6/47/2 60/47/2 57/69/2
f 2/33/1 25/32/1 73/32/1 62/33/1
f 147/81/3 134/76/3 100/76/3 113/81/3
f 95/83/15 74/31/15 61/34/15 56/84/15
f 73/32/16 96/85/16 59/86/16 62/33/16
f 67/8/17 54/7/17 91/87/17 68/57/17
f 82/30/18 63/63/18 58/88/18 99/89/18
f 52/90/19 87/91/19 78/2/19 64/1/19
f 53/39/20 65/38/20 71/58/20 84/92/20
f 88/93/21 55/94/21 66/22/21 81/23/21
f 60/4/22 77/3/22 92/95/22 57/96/22
f 57/96/23 92/95/23 95/97/23 56/98/23
f 55/99/24 88/100/24 91/87/24 54/7/24
f 99/101/25 58/102/25 59/86/25 96/85/25
f 87/91/26 52/90/26 53/103/26 84/104/26
f 85/105/27 86/106/27 87/91/27 84/104/27
f 89/107/28 90/108/28 91/109/28 88/110/28
f 93/111/29 94/112/29 95/97/29 92/95/29
f 97/113/30 98/114/30 99/115/30 96/116/30
f 76/62/31 93/117/31 92/95/31 77/3/31
f 94/118/32 75/71/32 74/31/32 95/83/32
f 72/72/33 97/113/33 96/85/33 73/32/33
f 98/114/34 83/29/34 82/30/34 99/89/34
f 86/119/35 79/67/35 78/2/35 87/91/35
f 70/70/36 85/120/36 84/92/36 71/58/36
f 80/64/37 89/107/37 88/93/37 81/23/37
f 90/108/38 69/59/38 68/57/38 91/87/38
f 100/76/39 101/77/39 86/119/39 85/120/39
f 102/74/40 103/75/40 90/108/40 89/107/40
f 104/61/41 105/40/41 94/118/41 93/117/41
f 106/65/42 107/66/42 98/114/42 97/113/42
f 108/60/43 104/61/43 93/117/43 76/62/43
f 105/40/44 109/41/44 75/71/44 94/118/44
f 110/73/45 106/65/45 97/113/45 72/72/45
f 107/66/46 111/42/46 83/29/46 98/114/46
f 101/77/47 112/48/47 79/67/47 86/119/47
f 113/81/48 100/76/48 85/120/48 70/70/48
f 114/82/49 102/74/49 89/107/49 80/64/49
f 103/75/50 115/80/50 69/59/50 90/108/50
f 51/64/3 148/82/3 114/82/3 80/64/3
f 18/35/2 17/39/2 53/39/2 52/35/2
f 144/73/5 140/65/5 106/65/5 110/73/5
f 34/30/5 7/63/5 63/63/5 82/30/5
f 24/58/6 45/70/6 70/70/6 71/58/6
f 20/7/2 19/6/2 55/6/2 54/7/2
f 141/66/1 145/42/1 111/42/1 107/66/1
f 14/68/2 13/69/2 57/69/2 56/68/2
f 135/77/6 146/48/6 112/48/6 101/77/6
f 25/32/1 47/72/1 72/72/1 73/32/1
f 26/31/6 1/34/6 61/34/6 74/31/6
f 16/18/2 15/17/2 59/17/2 58/18/2
f 116/121/4 23/122/4 147/81/4 256/123/4
f 28/125/4 120/126/4 142/60/4 240/127/4
f 125/128/12 124/129/12 170/129/12 173/128/12
f 37/130/12 36/131/12 176/131/12 175/130/12
f 118/132/51 246/133/51 192/133/51 184/132/51
f 123/134/7 122/135/7 166/135/7 169/134/7
f 43/136/13 42/137/13 172/137/13 171/136/13
f 27/138/6 117/139/6 183/139/6 191/138/6
f 41/140/14 40/141/14 168/141/14 167/140/14
f 23/122/6 116/121/6 195/121/6 187/122/6
f 22/142/5 125/128/5 173/128/5 189/142/5
f 264/143/52 22/142/52 189/142/52 197/143/52
f 124/129/6 32/144/6 188/144/6 170/129/6
f 42/137/3 264/143/3 197/143/3 172/137/3
f 257/145/6 249/146/6 289/146/6 276/145/6
f 143/41/4 117/139/4 27/147/4 243/148/4
f 413/149/4 37/130/4 28/150/4 434/151/4
f 145/42/4 121/152/4 35/153/4 250/154/4
f 329/155/4 244/156/4 247/157/4 144/73/4 143/41/4 243/148/4 242/14/4 330/13/4
f 149/80/4 22/142/4 264/158/4 263/159/4
f 411/165/4 43/136/4 259/166/4 430/167/4
f 409/169/4 41/140/4 116/170/4 426/171/4
f 260/173/4 148/82/4 145/42/4 250/154/4 249/146/4 257/145/4
f 264/143/4 42/137/4 412/174/4 427/175/4
f 122/135/4 123/134/4 135/77/4 134/76/4
f 124/129/4 125/128/4 137/75/4 136/74/4
f 126/176/4 127/177/4 139/40/4 138/61/4
f 128/178/4 129/179/4 141/66/4 140/65/4
f 120/126/4 126/176/4 138/61/4 142/60/4
f 127/177/4 117/139/4 143/41/4 139/40/4
f 118/132/4 128/178/4 140/65/4 144/73/4
f 129/179/4 121/152/4 145/42/4 141/66/4
f 123/134/4 119/49/4 146/48/4 135/77/4
f 23/122/4 122/135/4 134/76/4 147/81/4
f 32/144/4 124/129/4 136/74/4 148/82/4
f 125/128/4 22/142/4 149/80/4 137/75/4
f 40/141/4 41/140/4 409/169/4 410/180/4
f 42/137/4 43/136/4 411/165/4 412/174/4
f 36/131/4 37/130/4 413/149/4 414/168/4
f 38/181/4 39/182/4 415/183/4 416/124/4
f 252/46/4 238/45/4 240/127/4 142/60/4 146/48/4 253/51/4
f 415/183/4 39/182/4 246/184/4 438/185/4
f 246/133/4 118/132/4 144/73/4 247/157/4
f 31/186/4 40/141/4 410/180/4 435/187/4
f 333/188/4 254/189/4 256/123/4 147/81/4 149/80/4 263/159/4 262/190/4 334/191/4
f 259/192/4 32/144/4 148/82/4 260/173/4
f 325/194/8 265/195/8 268/196/8 336/188/8
f 27/138/4 36/131/4 414/168/4 439/198/4
f 342/191/5 334/191/5 262/190/5 269/190/5 335/191/5
f 35/200/4 38/181/4 416/124/4 431/201/4
f 167/140/4 168/141/4 169/134/4 166/135/4
f 171/136/4 172/137/4 173/128/4 170/129/4
f 175/130/4 176/131/4 177/177/4 174/176/4
f 179/182/4 180/181/4 181/179/4 178/178/4
f 190/125/4 175/130/4 174/176/4 182/126/4
f 176/131/4 191/138/4 183/139/4 177/177/4
f 192/133/4 179/182/4 178/178/4 184/132/4
f 180/181/4 193/200/4 185/152/4 181/179/4
f 168/141/4 194/186/4 186/49/4 169/134/4
f 195/121/4 167/140/4 166/135/4 187/122/4
f 196/192/4 171/136/4 170/129/4 188/144/4
f 172/137/4 197/143/4 189/142/4 173/128/4
f 31/186/3 119/49/3 186/49/3 194/186/3
f 39/182/7 38/181/7 180/181/7 179/182/7
f 127/177/13 126/176/13 174/176/13 177/177/13
f 120/126/5 28/125/5 190/125/5 182/126/5
f 28/125/6 37/130/6 175/130/6 190/125/6
f 129/179/14 128/178/14 178/178/14 181/179/14
f 35/200/5 121/152/5 185/152/5 193/200/5
f 36/131/5 27/138/5 191/138/5 176/131/5
f 126/176/1 120/126/1 182/126/1 174/176/1
f 32/144/53 259/192/53 196/192/53 188/144/53
f 246/133/5 39/182/5 179/182/5 192/133/5
f 117/139/3 127/177/3 177/177/3 183/139/3
f 38/181/1 35/200/1 193/200/1 180/181/1
f 128/178/3 118/132/3 184/132/3 178/178/3
f 40/141/6 31/186/6 194/186/6 168/141/6
f 121/152/6 129/179/6 181/179/6 185/152/6
f 116/121/3 41/140/3 167/140/3 195/121/3
f 119/49/1 123/134/1 169/134/1 186/49/1
f 259/192/54 43/136/54 171/136/54 196/192/54
f 122/135/5 23/122/5 187/122/5 166/135/5
f 327/213/9 285/214/9 288/156/9 332/215/9
f 280/216/10 293/217/10 296/45/10 277/46/10
f 292/220/11 273/221/11 276/145/11 289/146/11
f 238/45/4 434/223/4 28/150/4 240/127/4
f 439/198/4 242/224/4 243/148/4 27/147/4
f 244/156/4 438/225/4 246/184/4 247/157/4
f 431/201/4 249/226/4 250/154/4 35/153/4
f 435/187/4 252/227/4 253/51/4 31/50/4
f 254/189/4 426/228/4 116/170/4 256/123/4
f 257/145/4 430/229/4 259/166/4 260/173/4
f 427/175/4 262/230/4 263/159/4 264/158/4
f 254/189/1 268/196/1 158/189/1 203/196/1
f 233/231/1 284/232/1 130/232/1 323/231/1
f 252/227/4 435/187/4 205/219/4 204/227/4
f 284/232/1 281/15/1 133/14/1 130/232/1
f 235/233/6 272/212/6 162/212/6 320/233/6
f 281/15/1 242/14/1 210/14/1 133/14/1
f 244/156/6 288/156/6 300/156/6 209/156/6
f 265/195/1 231/234/1 317/234/1 161/235/1
f 249/226/4 431/201/4 207/201/4 206/226/4
f 268/196/1 265/195/1 161/235/1 158/189/1
f 293/217/3 233/237/3 323/237/3 305/217/3
f 276/145/5 273/221/5 313/221/5 316/145/5
f 277/46/5 252/46/5 204/46/5 301/46/5
f 285/214/6 237/243/6 322/243/6 297/214/6
f 269/190/6 262/190/6 198/190/6 165/190/6
f 288/156/6 285/214/6 297/214/6 300/156/6
f 426/228/4 254/189/4 203/196/4 202/228/4
f 231/240/5 280/216/5 304/216/5 317/240/5
f 273/221/5 235/241/5 320/241/5 313/221/5
f 280/216/5 277/46/5 301/46/5 304/216/5
f 430/229/4 257/145/4 201/145/4 200/229/4
f 257/145/5 276/145/5 316/145/5 201/145/5
f 434/223/4 238/45/4 213/45/4 212/223/4
f 289/146/3 249/146/3 206/146/3 309/146/3
f 296/45/3 293/217/3 305/217/3 308/45/3
f 262/230/4 427/175/4 199/210/4 198/230/4
f 242/224/4 439/198/4 211/207/4 210/224/4
f 237/242/3 292/220/3 312/220/3 322/242/3
f 292/220/3 289/146/3 309/146/3 312/220/3
f 238/45/3 296/45/3 308/45/3 213/45/3
f 272/212/6 269/190/6 165/190/6 162/212/6
f 438/225/4 244/156/4 209/156/4 208/225/4
f 284/232/9 328/244/9 331/16/9 281/15/9
f 341/188/5 336/188/5 268/196/5 254/189/5 333/188/5
f 272/212/8 326/245/8 335/191/8 269/190/8
f 325/194/1 336/188/1 356/188/1 364/194/1
f 337/155/3 332/215/3 288/156/3 244/156/3 329/155/3
f 340/246/6 327/213/6 350/213/6 372/247/6
f 330/13/3 338/12/3 337/155/3 329/155/3
f 336/188/1 341/188/1 353/188/1 356/188/1
f 370/248/4 371/249/4 349/250/4 346/251/4
f 334/191/5 342/191/5 341/188/5 333/188/5
f 362/252/4 375/253/4 373/254/4 363/255/4
f 341/188/2 342/191/2 358/191/2 353/188/2
f 327/213/6 332/215/6 351/215/6 350/213/6
f 338/12/1 331/16/1 348/16/1 368/256/1
f 343/257/1 325/194/1 364/194/1 374/258/1
f 342/191/6 335/191/6 359/191/6 358/191/6
f 346/251/9 349/250/9 382/259/9 383/260/9
f 347/261/2 352/262/2 398/262/2 399/261/2
f 357/263/1 360/264/1 395/264/1 396/263/1
f 331/16/1 328/244/1 345/244/1 348/16/1
f 335/191/6 326/245/6 361/245/6 359/191/6
f 332/215/6 337/155/6 365/155/6 351/215/6
f 326/245/6 344/265/6 376/265/6 361/245/6
f 362/252/8 363/255/8 378/266/8 379/267/8
f 344/265/3 343/257/3 374/258/3 376/265/3
f 337/155/2 338/12/2 368/256/2 365/155/2
f 339/268/5 340/246/5 372/247/5 369/269/5
f 346/251/71 383/260/71 348/16/71 345/244/71
f 350/213/72 351/215/72 382/259/72 349/250/72
f 377/270/7 378/266/7 356/188/7 353/188/7
f 358/191/12 359/191/12 379/267/12 380/271/12
f 362/252/73 379/267/73 359/191/73 361/245/73
f 364/194/74 356/188/74 378/266/74 363/255/74
f 381/272/14 382/259/14 351/215/14 365/155/14
f 368/256/13 348/16/13 383/260/13 384/273/13
f 370/248/10 346/251/10 345/244/10 369/269/10
f 372/247/11 350/213/11 349/250/11 371/249/11
f 371/249/75 370/248/75 369/269/75 372/247/75
f 384/273/76 381/272/76 365/155/76 368/256/76
f 363/255/10 373/254/10 374/258/10 364/194/10
f 361/245/11 376/265/11 375/253/11 362/252/11
f 376/265/77 374/258/77 373/254/77 375/253/77
f 380/271/78 377/270/78 353/188/78 358/191/78
f 328/244/1 339/268/1 369/269/1 345/244/1
f 354/274/5 355/275/5 378/266/5 377/270/5
f 360/264/5 357/263/5 380/271/5 379/267/5
f 366/262/3 352/262/3 382/259/3 381/272/3
f 347/261/3 367/276/3 384/273/3 383/260/3
f 367/276/3 366/262/3 381/272/3 384/273/3
f 357/263/5 354/274/5 377/270/5 380/271/5
f 352/262/3 347/261/3 383/260/3 382/259/3
f 355/275/5 360/264/5 379/267/5 378/266/5
f 366/262/4 367/276/4 400/276/4 397/262/4
f 352/262/1 366/262/1 397/262/1 398/262/1
f 355/275/6 354/274/6 393/274/6 394/275/6
f 360/264/2 355/275/2 394/275/2 395/264/2
f 354/274/4 357/263/4 396/263/4 393/274/4
f 367/276/6 347/261/6 399/261/6 400/276/6
f 473/290/4 474/291/4 237/243/4 285/214/4 327/213/4 340/246/4 867/292/4 849/293/4
f 619/294/87 617/295/87 532/296/87 533/297/87
f 612/298/88 649/299/88 537/300/88 545/301/88
f 616/302/89 618/303/89 863/304/89 500/305/89
f 617/295/14 615/306/14 565/307/14 532/308/14
f 621/309/90 619/294/90 533/297/90 543/310/90
f 623/311/91 621/309/91 543/310/91 549/312/91
f 625/313/92 623/312/92 549/312/92 553/313/92
f 627/314/12 625/315/12 553/313/12 557/316/12
f 629/317/93 627/316/93 557/316/93 563/317/93
f 631/318/94 629/319/94 563/319/94 569/320/94
f 633/321/95 631/318/95 569/320/95 540/322/95
f 635/323/96 633/321/96 540/321/96 541/324/96
f 637/325/7 635/326/7 541/324/7 547/325/7
f 639/327/97 637/328/97 547/325/97 551/329/97
f 641/330/98 639/331/98 551/331/98 555/330/98
f 643/332/99 641/330/99 555/330/99 561/333/99
f 645/334/100 643/333/100 561/333/100 567/334/100
f 647/335/13 645/334/13 567/334/13 536/335/13
f 649/336/101 647/335/101 536/335/101 537/336/101
f 615/337/102 613/338/102 559/339/102 565/306/102
f 646/340/103 648/341/103 509/342/103 874/343/103
f 632/344/104 634/345/104 507/346/104 506/347/104
f 535/335/13 568/334/13 528/334/13 529/348/13
f 539/321/95 570/320/95 521/318/95 522/321/95
f 622/349/105 624/350/105 502/351/105 864/352/105
f 611/353/106 614/354/106 498/355/106 499/356/106
f 624/357/107 626/358/107 503/359/107 502/351/107
f 640/360/108 642/361/108 871/362/108 508/363/108
f 626/364/109 628/365/109 504/366/109 503/359/109
f 642/361/110 644/367/110 873/368/110 871/362/110
f 638/369/111 640/360/111 508/363/111 869/370/111
f 628/371/112 630/372/112 505/373/112 504/366/112
f 614/374/113 616/375/113 500/305/113 498/355/113
f 644/367/114 646/340/114 874/343/114 873/368/114
f 630/376/115 632/377/115 506/347/115 505/373/115
f 618/378/116 620/379/116 501/380/116 863/304/116
f 648/381/117 650/382/117 510/383/117 509/342/117
f 634/384/118 636/385/118 866/386/118 507/346/118
f 636/387/119 638/388/119 869/370/119 866/386/119
f 650/389/120 611/390/120 499/356/120 510/383/120
f 620/379/121 622/349/121 864/352/121 501/380/121
f 570/320/94 564/319/94 520/317/94 521/318/94
f 568/334/100 562/333/100 527/332/100 528/334/100
f 566/307/102 560/339/102 511/339/102 513/337/102
f 564/319/93 558/316/93 519/316/93 520/317/93
f 562/333/99 556/330/99 526/330/99 527/332/99
f 560/339/122 546/301/122 512/298/122 511/339/122
f 558/316/12 554/391/12 518/392/12 519/316/12
f 556/330/98 552/331/98 525/327/98 526/330/98
f 554/313/92 550/393/92 517/394/92 518/392/92
f 552/331/97 548/325/97 524/328/97 525/327/97
f 550/312/91 544/310/91 516/395/91 517/394/91
f 548/325/7 542/324/7 523/396/7 524/328/7
f 546/298/88 538/300/88 530/336/88 512/298/88
f 544/310/90 534/297/90 515/294/90 516/395/90
f 542/324/96 539/321/96 522/321/96 523/396/96
f 538/300/101 535/335/101 529/348/101 530/336/101
f 534/297/87 531/308/87 514/308/87 515/294/87
f 535/335/4 538/300/4 608/300/4 577/335/4
f 559/339/2 545/298/2 593/298/2 587/339/2
f 541/324/2 540/321/2 574/321/2 605/324/2
f 546/301/4 560/339/4 588/339/4 594/301/4
f 570/320/4 539/321/4 573/321/4 572/320/4
f 551/329/2 547/325/2 601/325/2 597/329/2
f 569/320/2 563/319/2 583/319/2 571/320/2
f 539/321/4 542/324/4 606/324/4 573/321/4
f 548/325/4 552/331/4 598/331/4 602/325/4
f 564/319/4 570/320/4 572/320/4 584/319/4
f 543/310/2 533/297/2 609/297/2 603/310/2
f 561/333/2 555/330/2 591/330/2 585/333/2
f 534/297/4 544/310/4 604/310/4 610/297/4
f 556/330/4 562/333/4 586/333/4 592/330/4
f 553/313/2 549/312/2 599/312/2 595/313/2
f 532/308/2 565/307/2 579/307/2 582/308/2
f 550/393/4 554/313/4 596/313/4 600/393/4
f 545/301/2 537/300/2 607/300/2 593/301/2
f 563/317/2 557/316/2 589/316/2 583/317/2
f 566/307/4 531/308/4 581/308/4 580/307/4
f 531/308/14 566/307/14 513/337/14 514/308/14
f 562/333/4 568/334/4 576/334/4 586/333/4
f 544/310/4 550/312/4 600/312/4 604/310/4
f 540/322/2 569/320/2 571/320/2 574/322/2
f 537/336/2 536/335/2 578/335/2 607/336/2
f 567/334/2 561/333/2 585/333/2 575/334/2
f 549/312/2 543/310/2 603/310/2 599/312/2
f 554/391/4 558/316/4 590/316/4 596/391/4
f 531/308/4 534/297/4 610/297/4 581/308/4
f 568/334/4 535/335/4 577/335/4 576/334/4
f 557/316/2 553/313/2 595/313/2 589/316/2
f 533/297/2 532/296/2 582/296/2 609/297/2
f 560/339/4 566/307/4 580/307/4 588/339/4
f 542/324/4 548/325/4 602/325/4 606/324/4
f 565/306/2 559/339/2 587/339/2 579/306/2
f 547/325/2 541/324/2 605/324/2 601/325/2
f 536/335/2 567/334/2 575/334/2 578/335/2
f 552/331/4 556/330/4 592/330/4 598/331/4
f 555/330/2 551/331/2 597/331/2 591/330/2
f 558/316/4 564/319/4 584/319/4 590/316/4
f 538/300/4 546/298/4 594/298/4 608/300/4
f 614/354/123 611/353/123 612/298/123 613/339/123
f 616/375/124 614/374/124 613/338/124 615/337/124
f 618/303/125 616/302/125 615/306/125 617/295/125
f 620/379/126 618/378/126 617/295/126 619/294/126
f 622/349/127 620/379/127 619/294/127 621/309/127
f 624/350/128 622/349/128 621/309/128 623/311/128
f 626/358/129 624/357/129 623/312/129 625/313/129
f 628/365/130 626/364/130 625/315/130 627/314/130
f 630/372/131 628/371/131 627/316/131 629/317/131
f 632/377/132 630/376/132 629/319/132 631/318/132
f 634/345/133 632/344/133 631/318/133 633/321/133
f 636/385/134 634/384/134 633/321/134 635/323/134
f 638/388/135 636/387/135 635/326/135 637/325/135
f 640/360/136 638/369/136 637/328/136 639/327/136
f 642/361/137 640/360/137 639/331/137 641/330/137
f 644/367/138 642/361/138 641/330/138 643/332/138
f 646/340/139 644/367/139 643/333/139 645/334/139
f 648/341/140 646/340/140 645/334/140 647/335/140
f 650/382/141 648/381/141 647/335/141 649/336/141
f 611/390/142 650/389/142 649/299/142 612/298/142
f 613/339/122 612/298/122 545/298/122 559/339/122
f 513/337/4 511/339/4 512/298/4 652/412/4 659/413/4 651/414/4
f 829/433/211 690/430/212 694/431/213 695/434/214
f 695/434/215 694/431/216 696/432/217 698/435/210
f 700/437/222 698/435/223 696/432/224 697/436/225
f 698/435/226 699/435/227 827/434/228 695/434/229
f 698/435/230 700/437/231 701/437/232 699/435/233
f 700/437/234 697/436/235 705/438/236 702/439/237
f 702/439/238 703/439/239 701/437/240 700/437/241
f 704/440/242 717/440/243 703/439/244 702/439/245
f 705/438/246 707/441/247 704/440/248 702/439/249
f 712/443/262 704/440/263 707/441/264 709/442/265
f 712/443/270 709/442/271 710/444/272 713/445/273
f 713/445/274 716/445/275 714/443/276 712/443/277
f 712/443/278 714/443/279 717/440/280 704/440/281
f 725/455/318 722/454/319 728/454/320 727/455/321
f 725/455/322 727/455/323 729/458/324 726/458/325
f 729/458/326 727/455/327 728/454/328
f 731/459/329 726/458/330 729/458/331 730/459/332
f 730/459/333 729/458/334 728/454/335
f 733/460/336 731/459/337 730/459/338 732/460/339
f 732/460/340 730/459/341 728/454/342
f 733/460/343 732/460/344 734/461/345 821/461/346
f 735/462/347 734/461/348 732/460/349
f 735/462/350 732/460/351 728/454/352
f 736/462/353 821/461/354 734/461/355 735/462/356
f 736/462/357 735/462/358 737/463/359 830/463/360
f 738/464/361 737/463/362 735/462/363
f 728/454/364 740/465/365 738/464/366 735/462/367
f 739/466/368 742/467/369 738/464/370
f 740/465/371 739/466/372 738/464/373
f 741/464/374 830/463/375 737/463/376 738/464/377
f 741/464/378 738/464/379 744/468/380 745/468/381
f 742/467/382 743/469/383 738/464/384
f 743/469/385 744/468/386 738/464/387
f 747/469/388 745/468/389 744/468/390 743/469/391
f 749/467/404 747/469/405 743/469/406 742/467/407
f 751/466/408 749/467/409 742/467/410 739/466/411
f 753/475/420 751/466/421 739/466/422 755/475/423
f 753/475/424 755/475/425 786/477/426 754/477/427
f 769/488/464 767/486/465 766/486/466 768/488/467
f 840/484/468 762/484/469 766/486/470 767/486/471
f 769/488/472 768/488/473 770/491/474 771/491/475
f 771/491/480 770/491/481 716/445/482 713/445/483
f 777/496/508 781/496/509 779/495/510 776/495/511
f 776/495/512 779/495/513 780/453/514 778/453/515
f 780/453/516 779/495/517 740/465/518
f 779/495/519 781/496/520 740/465/521
f 782/465/522 740/465/523 781/496/524 777/496/525
f 778/453/526 780/453/527 728/454/528 722/454/529
f 728/454/530 780/453/531 740/465/532
f 784/497/541 785/497/542 740/465/543 782/465/544
f 784/497/545 754/477/546 786/477/547 785/497/548
f 740/465/553 785/497/554 786/477/555
f 786/477/556 755/475/557 740/465/558
f 713/445/559 710/444/560 787/498/561 771/491/562
f 769/488/563 771/491/564 787/498/565 788/499/566
f 799/482/612 839/483/613 795/502/614 798/503/615
f 799/482/616 798/503/617 800/425/618 801/504/611
f 803/505/619 801/504/164 800/425/620 802/424/621
f 805/506/626 803/505/627 802/424/628 804/426/629
f 805/506/634 804/426/635 806/427/636 807/507/637
f 807/507/642 806/427/643 808/428/644 809/508/560
f 809/508/649 808/428/650 688/429/651 810/509/652
f 809/508/653 810/509/654 813/509/655 811/508/656
f 809/508/657 811/508/658 812/507/659 807/507/660
f 695/434/733 827/434/734 828/433/735 829/433/736
f 829/433/737 828/433/738 813/509/739 810/509/740
f 829/433/741 810/509/742 688/429/743 690/430/744
f 807/507/765 812/507/766 834/506/767 805/506/768
f 805/506/769 834/506/770 835/505/771 803/505/772
f 801/504/777 803/505/778 835/505/779 836/504/780
f 801/504/785 836/504/786 838/482/787 799/482/607
f 799/482/788 838/482/789 760/483/790 839/483/791
f 840/484/800 841/501/801 795/502/802 839/483/803
f 839/483/804 760/483/805 762/484/806 840/484/807
f 767/486/808 842/500/809 841/501/810 840/484/811
f 767/486/820 769/488/581 788/499/821 842/500/822
f 755/475/842 739/466/843 740/465/844
f 876/524/4 235/241/4 273/221/4 292/220/4 237/242/4 850/525/4 868/526/4 870/527/4 872/528/4 475/529/4 875/530/4
f 478/531/4 344/265/4 326/245/4 272/212/4 235/233/4 477/532/4 476/533/4
f 479/534/4 233/237/4 293/217/4 280/216/4 231/240/4 482/535/4 851/536/4 481/537/4 480/538/4 865/539/4 484/540/4 483/541/4
f 852/542/4 850/543/4 237/544/4 474/545/4
f 853/546/4 477/547/4 235/548/4 876/549/4
f 486/550/4 233/551/4 479/552/4 854/553/4
f 855/554/4 482/555/4 231/556/4 485/557/4
f 489/558/4 490/559/4 343/257/4 344/265/4 478/531/4 856/560/4 488/561/4 487/562/4
f 485/563/4 231/234/4 265/195/4 325/194/4 343/257/4 490/559/4 857/564/4 491/565/4
f 492/566/4 339/268/4 328/244/4 284/232/4 233/231/4 486/567/4 859/568/4 858/569/4
f 860/570/4 867/292/4 340/246/4 339/268/4 492/566/4 495/571/4 862/572/4 494/573/4 861/574/4 493/575/4
f 481/576/97 863/577/97 501/578/97 480/579/97
f 480/579/98 501/578/98 864/580/98 865/581/98
f 865/581/99 864/580/99 502/582/99 484/583/99
f 484/583/100 502/582/100 503/584/100 483/585/100
f 507/346/102 866/386/102 473/290/102 493/575/102
f 506/347/88 494/573/88 862/572/88 495/571/88 505/373/88
f 869/586/87 508/587/87 870/588/87 868/589/87
f 508/587/90 871/590/90 872/591/90 870/592/90
f 871/590/91 873/593/91 475/594/91 872/595/91
f 873/593/92 874/596/92 875/597/92 475/598/92
f 492/566/101 858/569/101 859/568/101 504/599/101 505/373/101 495/571/101
f 477/547/12 853/546/12 876/549/12 875/530/12 874/596/12 509/342/12 476/533/12
f 854/599/13 479/599/13 483/599/13 503/599/13 504/599/13 859/599/13 486/599/13
f 507/346/122 493/575/122 861/574/122 494/573/122 506/347/122
f 849/293/845 860/570/845 493/575/845 473/290/845
f 474/545/14 473/290/14 866/386/14 869/586/14 868/526/14 850/543/14 852/542/14
f 491/565/7 500/305/7 863/304/7 481/576/7 851/536/7 482/535/7 855/554/7 485/557/7
f 489/558/96 498/355/96 500/305/96 491/565/96 857/564/96 490/559/96
f 487/562/95 499/356/95 498/355/95 489/558/95
f 488/561/94 510/383/94 499/356/94 487/562/94
f 476/533/93 509/342/93 510/383/93 488/561/93 856/560/93 478/531/93
f 12/9/2 10/37/2 9/44/2 11/20/2
usemtl M_Noir_Profond
f 164/210/8 163/211/8 162/212/8 165/190/8
f 160/236/8 159/171/8 158/189/8 161/235/8
f 132/198/9 131/52/9 130/232/9 133/14/9
f 298/163/9 299/206/9 300/156/9 297/214/9
f 302/219/10 303/218/10 304/216/10 301/46/10
f 306/55/10 307/151/10 308/45/10 305/217/10
f 310/201/11 311/238/11 312/220/11 309/146/11
f 314/239/11 315/208/11 316/145/11 313/221/11
f 318/222/59 160/236/59 161/235/59 317/234/59
f 163/211/60 319/24/60 320/233/60 162/212/60
f 203/196/61 158/189/61 159/171/61 202/171/61
f 199/210/61 164/210/61 165/190/61 198/190/61
f 317/240/62 304/216/62 303/218/62 318/222/62
f 313/221/63 320/241/63 319/24/63 314/239/63
f 201/145/64 316/145/64 315/208/64 200/208/64
f 207/201/64 310/201/64 309/146/64 206/146/64
f 311/238/65 321/164/65 322/242/65 312/220/65
f 307/151/66 212/151/66 213/45/66 308/45/66
f 205/219/66 302/219/66 301/46/66 204/46/66
f 324/56/67 306/55/67 305/217/67 323/237/67
f 299/206/68 208/206/68 209/156/68 300/156/68
f 211/207/68 132/198/68 133/14/68 210/14/68
f 323/231/69 130/232/69 131/52/69 324/56/69
f 321/164/70 298/163/70 297/214/70 322/243/70
f 385/277/4 388/278/4 404/278/4 401/277/4
f 387/279/2 386/280/2 402/280/2 403/279/2
f 385/277/5 386/280/5 394/275/5 393/274/5
f 387/279/5 388/278/5 396/263/5 395/264/5
f 389/281/3 390/282/3 398/262/3 397/262/3
f 391/283/3 392/284/3 400/276/3 399/261/3
f 392/284/3 389/281/3 397/262/3 400/276/3
f 388/278/5 385/277/5 393/274/5 396/263/5
f 390/282/3 391/283/3 399/261/3 398/262/3
f 386/280/5 387/279/5 395/264/5 394/275/5
f 392/284/6 391/283/6 407/283/6 408/284/6
f 388/278/1 387/279/1 403/279/1 404/278/1
f 391/283/2 390/282/2 406/282/2 407/283/2
f 389/281/4 392/284/4 408/284/4 405/281/4
f 390/282/1 389/281/1 405/281/1 406/282/1
f 386/280/6 385/277/6 401/277/6 402/280/6
f 667/403/4 665/404/4 525/327/4 524/328/4
f 524/328/4 523/396/4 497/408/4 667/403/4
f 664/410/4 672/411/4 527/332/4 526/330/4
f 665/404/4 664/410/4 526/330/4 525/327/4
f 523/396/4 522/321/4 496/397/4 497/398/4
f 522/321/4 521/318/4 678/416/4 496/397/4
f 521/318/4 520/317/4 669/417/4 678/418/4
f 520/317/4 519/316/4 670/420/4 669/417/4
f 519/316/4 518/392/4 674/421/4 670/420/4
f 518/392/4 517/394/4 675/422/4 674/421/4
f 517/394/4 516/395/4 677/423/4 675/422/4
f 516/395/4 515/294/4 656/402/4 677/423/4
f 515/294/4 514/308/4 655/401/4 656/402/4
f 514/308/4 513/337/4 651/407/4 655/401/4
f 513/337/4 511/339/4 659/406/4 651/407/4
f 511/339/4 512/298/4 652/400/4 659/406/4
f 512/298/4 530/336/4 653/399/4 652/400/4
f 530/336/4 529/348/4 662/409/4 653/399/4
f 668/419/4 662/409/4 529/348/4 528/334/4
f 672/411/4 668/419/4 528/334/4 527/332/4
usemtl M_Gris_Metal
f 255/10/1 267/11/1 457/11/1 458/10/1
f 234/24/4 271/25/4 220/26/4 219/27/4 274/28/4
f 283/52/4 224/53/4 222/54/4 294/55/4 232/56/4
f 287/78/2 227/79/2 451/79/2 469/78/2
f 227/79/2 229/124/2 454/124/2 451/79/2
f 156/79/4 245/78/4 470/78/4 452/79/4
f 291/160/4 228/161/4 226/162/4 286/163/4 236/164/4
f 223/149/2 225/168/2 450/168/2 455/149/2
f 225/168/2 282/172/2 472/172/2 450/168/2
f 218/165/2 221/174/2 444/174/2 445/165/2
f 241/193/4 155/168/4 449/168/4 471/193/4
f 221/174/2 270/197/2 460/197/2 444/174/2
f 215/169/2 217/180/2 448/180/2 441/169/2
f 295/199/2 223/149/2 455/149/2 465/199/2
f 261/202/4 153/174/4 443/174/4 459/202/4
f 266/203/8 214/204/8 418/205/8 425/171/8
f 286/163/9 226/162/9 424/79/9 437/206/9
f 224/53/9 283/52/9 440/207/9 421/168/9
f 274/28/11 219/27/11 420/165/11 429/208/11
f 214/204/55 216/209/55 417/180/55 418/205/55
f 219/27/56 220/26/56 419/174/56 420/165/56
f 222/54/57 224/53/57 421/168/57 422/149/57
f 226/162/58 228/161/58 423/124/58 424/79/58
f 228/161/11 291/160/11 432/201/11 423/124/11
f 294/55/10 222/54/10 422/149/10 433/151/10
f 220/26/8 271/25/8 428/210/8 419/174/8
f 216/209/10 279/218/10 436/219/10 417/180/10
f 279/218/4 216/209/4 214/204/4 266/203/4 230/222/4
f 236/164/1 286/163/1 298/163/1 321/164/1
f 286/163/1 437/206/1 299/206/1 298/163/1
f 425/171/6 426/171/6 202/171/6 159/171/6
f 283/52/6 232/56/6 324/56/6 131/52/6
f 439/198/6 440/207/6 132/198/6 211/207/6
f 440/207/6 283/52/6 131/52/6 132/198/6
f 271/25/1 234/24/1 319/24/1 163/211/1
f 437/206/1 438/185/1 208/206/1 299/206/1
f 230/222/6 266/203/6 160/236/6 318/222/6
f 232/56/5 294/55/5 306/55/5 324/56/5
f 266/203/6 425/171/6 159/171/6 160/236/6
f 427/175/1 428/210/1 164/210/1 199/210/1
f 279/218/3 230/222/3 318/222/3 303/218/3
f 436/219/3 279/218/3 303/218/3 302/219/3
f 234/24/3 274/28/3 314/239/3 319/24/3
f 429/208/3 430/167/3 200/208/3 315/208/3
f 294/55/5 433/151/5 307/151/5 306/55/5
f 431/201/5 432/201/5 310/201/5 207/201/5
f 291/160/5 236/164/5 321/164/5 311/238/5
f 432/201/5 291/160/5 311/238/5 310/201/5
f 433/151/5 434/151/5 212/151/5 307/151/5
f 428/210/1 271/25/1 163/211/1 164/210/1
f 435/187/3 436/219/3 302/219/3 205/219/3
f 274/28/3 429/208/3 315/208/3 314/239/3
f 150/205/7 151/180/7 410/180/7 409/169/7
f 152/165/12 153/174/12 412/174/12 411/165/12
f 154/149/13 155/168/13 414/168/13 413/149/13
f 156/79/14 157/124/14 416/124/14 415/183/14
f 217/180/7 215/169/7 418/205/7 417/180/7
f 221/174/12 218/165/12 420/165/12 419/174/12
f 225/168/13 223/149/13 422/149/13 421/168/13
f 229/124/14 227/79/14 424/79/14 423/124/14
f 267/11/5 255/10/5 426/171/5 425/171/5
f 261/202/5 270/197/5 428/210/5 427/175/5
f 275/285/6 258/286/6 430/167/6 429/208/6
f 248/287/6 290/288/6 432/201/6 431/201/6
f 295/199/1 239/199/1 434/151/1 433/151/1
f 251/289/1 278/289/1 436/219/1 435/187/1
f 287/78/3 245/78/3 438/185/3 437/206/3
f 241/193/3 282/172/3 440/207/3 439/198/3
f 239/199/1 154/149/1 413/149/1 434/151/1
f 223/149/1 295/199/1 433/151/1 422/149/1
f 155/168/3 241/193/3 439/198/3 414/168/3
f 282/172/3 225/168/3 421/168/3 440/207/3
f 245/78/3 156/79/3 415/183/3 438/185/3
f 227/79/3 287/78/3 437/206/3 424/79/3
f 157/124/6 248/287/6 431/201/6 416/124/6
f 290/288/6 229/124/6 423/124/6 432/201/6
f 151/180/1 251/289/1 435/187/1 410/180/1
f 278/289/1 217/180/1 417/180/1 436/219/1
f 255/10/5 150/205/5 409/169/5 426/171/5
f 215/169/5 267/11/5 425/171/5 418/205/5
f 258/286/6 152/165/6 411/165/6 430/167/6
f 218/165/6 275/285/6 429/208/6 420/165/6
f 153/174/5 261/202/5 427/175/5 412/174/5
f 270/197/5 221/174/5 419/174/5 428/210/5
f 248/287/4 157/124/4 453/124/4 463/287/4
f 270/197/6 261/202/6 459/202/6 460/197/6
f 229/124/2 290/288/2 464/288/2 454/124/2
f 258/286/5 275/285/5 461/285/5 462/286/5
f 251/289/4 151/180/4 447/180/4 467/289/4
f 290/288/3 248/287/3 463/287/3 464/288/3
f 217/180/2 278/289/2 468/289/2 448/180/2
f 239/199/3 295/199/3 465/199/3 466/199/3
f 150/205/4 255/10/4 458/10/4 442/205/4
f 278/289/5 251/289/5 467/289/5 468/289/5
f 151/180/4 150/205/4 442/205/4 447/180/4
f 267/11/2 215/169/2 441/169/2 457/11/2
f 245/78/6 287/78/6 469/78/6 470/78/6
f 153/174/4 152/165/4 446/165/4 443/174/4
f 152/165/4 258/286/4 462/286/4 446/165/4
f 282/172/1 241/193/1 471/193/1 472/172/1
f 155/168/4 154/149/4 456/149/4 449/168/4
f 275/285/2 218/165/2 445/165/2 461/285/2
f 154/149/4 239/199/4 466/199/4 456/149/4
f 157/124/4 156/79/4 452/79/4 453/124/4
f 496/397/143 847/397/143 693/398/143 497/398/143
f 653/399/144 679/399/144 654/400/144 652/400/144
f 657/401/145 658/402/145 656/402/145 655/401/145
f 659/405/146 660/406/146 661/407/146 651/407/146
f 662/409/147 663/409/147 679/399/147 653/399/147
f 686/415/148 684/410/148 664/410/148 665/404/148
f 497/408/149 693/398/149 666/403/149 667/403/149
f 681/419/150 663/409/150 662/409/150 668/419/150
f 670/420/151 844/420/151 845/417/151 669/417/151
f 684/410/152 671/411/152 672/411/152 664/410/152
f 671/411/153 681/419/153 668/419/153 672/411/153
f 652/400/154 654/400/154 660/406/154 659/406/154
f 673/422/155 843/421/155 674/421/155 675/422/155
f 676/423/156 673/422/156 675/422/156 677/423/156
f 666/403/157 686/415/157 665/415/157 667/403/157
f 651/407/158 661/407/158 657/401/158 655/401/158
f 678/416/159 846/418/159 847/397/159 496/397/159
f 669/417/160 845/417/160 846/418/160 678/418/160
f 656/402/161 658/402/161 676/423/161 677/423/161
f 843/421/162 844/420/162 670/420/162 674/421/162
f 680/424/163 797/425/164 679/399/165 663/409/166
f 680/424/167 663/409/168 681/419/169 682/426/170
f 682/426/171 681/419/172 671/411/173 683/427/174
f 685/428/175 683/427/176 671/411/177 684/410/178
f 685/428/179 684/410/180 686/415/181 687/429/182
f 689/430/183 687/429/184 686/415/185 666/403/186
f 685/428/187 687/429/188 688/429/189 808/428/190
f 689/430/191 690/430/192 688/429/193 687/429/194
f 691/431/195 689/430/196 666/403/197 693/398/198
f 691/431/199 694/431/200 690/430/201 689/430/202
f 692/432/203 696/432/204 694/431/205 691/431/206
f 691/431/207 693/398/208 847/397/209 692/432/210
f 692/432/218 848/436/219 697/436/220 696/432/221
f 706/438/250 705/438/251 697/436/252 848/436/253
f 708/441/254 707/441/255 705/438/256 706/438/257
f 711/442/258 709/442/259 707/441/260 708/441/261
f 711/442/266 791/444/267 710/444/268 709/442/269
f 790/499/567 788/499/568 787/498/569 789/498/475
f 789/498/570 787/498/571 710/444/572 791/444/573
f 790/499/574 789/498/564 676/423/575 658/402/576
f 791/444/577 673/422/578 676/423/579 789/498/562
f 792/500/580 790/499/581 658/402/582 657/401/583
f 793/501/584 792/500/585 657/401/586 661/407/587
f 793/501/588 661/407/589 660/406/590 794/502/591
f 796/503/592 794/502/593 660/406/594 654/400/595
f 794/502/596 795/502/597 841/501/598 793/501/599
f 796/503/600 798/503/601 795/502/602 794/502/603
f 797/425/604 800/425/605 798/503/606 796/503/607
f 796/503/608 654/400/609 679/399/610 797/425/611
f 797/425/622 680/424/623 802/424/624 800/425/625
f 682/426/630 804/426/631 802/424/632 680/424/633
f 683/427/638 806/427/639 804/426/640 682/426/641
f 683/427/645 685/428/646 808/428/647 806/427/648
f 792/500/812 793/501/813 841/501/814 842/500/815
f 790/499/816 792/500/817 842/500/818 788/499/819
f 711/442/823 843/421/824 673/422/825 791/444/826
f 708/441/827 844/420/828 843/421/829 711/442/830
f 708/441/831 706/438/832 845/417/833 844/420/834
f 706/438/835 848/436/836 846/418/837 845/417/838
f 848/436/839 692/432/223 847/397/840 846/418/841
usemtl M_Cyan
f 405/281/3 408/284/3 407/283/3 406/282/3
f 401/277/5 404/278/5 403/279/5 402/280/5
f 572/320/95 573/321/95 574/322/95 571/320/95
f 576/334/13 577/335/13 578/335/13 575/334/13
f 580/307/14 581/308/14 582/308/14 579/307/14
f 584/319/94 572/320/94 571/320/94 583/319/94
f 586/333/100 576/334/100 575/334/100 585/333/100
f 588/339/102 580/307/102 579/306/102 587/339/102
f 590/316/93 584/319/93 583/317/93 589/316/93
f 592/330/99 586/333/99 585/333/99 591/330/99
f 594/301/122 588/339/122 587/339/122 593/298/122
f 596/391/12 590/316/12 589/316/12 595/313/12
f 598/331/98 592/330/98 591/330/98 597/331/98
f 600/393/92 596/313/92 595/313/92 599/312/92
f 602/325/97 598/331/97 597/329/97 601/325/97
f 604/310/91 600/312/91 599/312/91 603/310/91
f 606/324/7 602/325/7 601/325/7 605/324/7
f 608/300/88 594/298/88 593/301/88 607/300/88
f 610/297/90 604/310/90 603/310/90 609/297/90
f 573/321/96 606/324/96 605/324/96 574/321/96
f 577/335/101 608/300/101 607/336/101 578/335/101
f 581/308/87 610/297/87 609/297/87 582/296/87
usemtl M_Bleu
f 443/174/12 446/165/12 445/165/12 444/174/12
f 447/180/7 442/205/7 441/169/7 448/180/7
f 471/193/79 449/168/79 450/168/79 472/172/79
f 463/287/80 453/124/80 454/124/80 464/288/80
f 449/168/13 456/149/13 455/149/13 450/168/13
f 453/124/14 452/79/14 451/79/14 454/124/14
f 467/289/81 447/180/81 448/180/81 468/289/81
f 459/202/82 443/174/82 444/174/82 460/197/82
f 442/205/83 458/10/83 457/11/83 441/169/83
f 452/79/84 470/78/84 469/78/84 451/79/84
f 456/149/85 466/199/85 465/199/85 455/149/85
f 446/165/86 462/286/86 461/285/86 445/165/86
f 718/446/282 717/440/283 714/443/284 715/447/285
f 716/445/286 774/448/287 715/447/288 714/443/289
f 703/439/290 717/440/291 718/446/292 719/449/293
f 720/450/294 723/451/295 719/449/296 718/446/297
f 718/446/298 715/447/299 721/452/300 720/450/301
f 720/450/302 721/452/303 778/453/304 722/454/305
f 723/451/306 720/450/307 722/454/308 725/455/309
f 724/456/310 826/457/311 719/449/312 723/451/313
f 726/458/314 724/456/315 723/451/316 725/455/317
f 831/470/392 741/464/393 745/468/394 746/471/395
f 746/471/396 745/468/397 747/469/398 748/472/399
f 748/472/400 747/469/401 749/467/402 750/473/403
f 750/473/412 749/467/413 751/466/414 752/474/415
f 752/474/416 751/466/417 753/475/418 756/476/419
f 756/476/428 753/475/429 754/477/430 757/478/431
f 757/478/432 761/479/433 758/480/434 756/476/435
f 752/474/436 756/476/437 758/480/438 759/481/439
f 838/482/440 759/481/441 758/480/442 760/483/443
f 762/484/444 760/483/445 758/480/446 761/479/447
f 762/484/448 761/479/449 763/485/450 766/486/451
f 765/487/452 763/485/453 761/479/454 757/478/455
f 768/488/456 766/486/457 763/485/458 764/489/459
f 765/487/460 783/490/461 764/489/462 763/485/463
f 768/488/476 764/489/477 772/492/478 770/491/479
f 716/445/484 770/491/485 772/492/486 774/448/487
f 775/493/488 774/448/489 772/492/490 773/494/491
f 783/490/492 773/494/493 772/492/494 764/489/495
f 721/452/496 715/447/497 774/448/498 775/493/499
f 775/493/500 776/495/501 778/453/502 721/452/503
f 775/493/504 773/494/505 777/496/506 776/495/507
f 777/496/533 773/494/534 783/490/535 782/465/536
f 765/487/537 784/497/538 782/465/539 783/490/540
f 757/478/549 754/477/550 784/497/551 765/487/552
f 811/508/661 814/510/662 815/511/663 812/507/664
f 814/510/665 811/508/666 813/509/667 817/512/668
f 816/513/669 831/470/670 815/511/671 814/510/672
f 816/513/673 814/510/674 817/512/675 819/514/676
f 820/515/677 819/514/678 817/512/679 818/516/680
f 813/509/681 828/433/682 818/516/683 817/512/684
f 819/514/685 820/515/686 821/461/687 736/462/688
f 816/513/689 819/514/690 736/462/691 830/463/692
f 820/515/693 822/517/694 733/460/695 821/461/696
f 820/515/697 818/516/698 823/518/699 822/517/700
f 822/517/701 823/518/702 825/519/703 824/520/704
f 822/517/705 824/520/706 731/459/707 733/460/708
f 724/456/709 824/520/710 825/519/711 826/457/712
f 726/458/713 731/459/714 824/520/715 724/456/716
f 827/434/717 699/435/718 825/519/719 823/518/720
f 825/519/721 699/435/722 701/437/723 826/457/724
f 701/437/725 703/439/726 719/449/727 826/457/728
f 828/433/729 827/434/730 823/518/731 818/516/732
f 831/470/745 816/513/746 830/463/747 741/464/748
f 831/470/749 746/471/750 832/521/751 815/511/752
f 832/521/753 834/506/754 812/507/755 815/511/756
f 835/505/757 834/506/758 832/521/759 833/522/760
f 746/471/761 748/472/762 833/522/763 832/521/764
f 836/504/773 835/505/774 833/522/775 837/523/776
f 838/482/781 836/504/782 837/523/783 759/481/784
f 752/474/792 759/481/793 837/523/794 750/473/795
f 748/472/796 750/473/797 837/523/798 833/522/799
