# Blender 4.2.3 LTS
# www.blender.org
mtllib SM_Chair.mtl
o SM_Chair
v -0.000000 0.059287 0.063540
v -0.000000 0.178424 0.046675
v -0.012396 0.059287 0.062319
v -0.009106 0.178424 0.045778
v -0.024316 0.059287 0.058703
v -0.017862 0.178424 0.043122
v -0.035301 0.059287 0.052831
v -0.025931 0.178424 0.038809
v -0.044929 0.059287 0.044929
v -0.033004 0.178424 0.033004
v -0.052831 0.059287 0.035301
v -0.038809 0.178424 0.025931
v -0.058703 0.059287 0.024316
v -0.043122 0.178424 0.017862
v -0.062319 0.059287 0.012396
v -0.045778 0.178424 0.009106
v -0.063540 0.059287 0.000000
v -0.046675 0.178424 0.000000
v -0.062319 0.059287 -0.012396
v -0.045778 0.178424 -0.009106
v -0.058703 0.059287 -0.024316
v -0.043122 0.178424 -0.017862
v -0.052831 0.059287 -0.035301
v -0.038809 0.178424 -0.025931
v -0.044929 0.059287 -0.044929
v -0.033004 0.178424 -0.033004
v -0.035301 0.059287 -0.052831
v -0.025931 0.178424 -0.038809
v -0.024316 0.059287 -0.058703
v -0.017862 0.178424 -0.043122
v -0.012396 0.059287 -0.062319
v -0.009106 0.178424 -0.045778
v -0.000000 0.059287 -0.063540
v -0.000000 0.178424 -0.046675
v 0.012396 0.059287 -0.062319
v 0.009106 0.178424 -0.045778
v 0.024316 0.059287 -0.058703
v 0.017862 0.178424 -0.043122
v 0.035301 0.059287 -0.052831
v 0.025931 0.178424 -0.038809
v 0.044929 0.059287 -0.044929
v 0.033004 0.178424 -0.033004
v 0.052831 0.059287 -0.035301
v 0.038808 0.178424 -0.025931
v 0.058703 0.059287 -0.024316
v 0.043122 0.178424 -0.017862
v 0.062319 0.059287 -0.012396
v 0.045778 0.178424 -0.009106
v 0.063540 0.059287 -0.000000
v 0.046675 0.178424 -0.000000
v 0.062319 0.059287 0.012396
v 0.045778 0.178424 0.009106
v 0.058703 0.059287 0.024316
v 0.043122 0.178424 0.017862
v 0.052831 0.059287 0.035301
v 0.038808 0.178424 0.025931
v 0.044929 0.059287 0.044929
v 0.033004 0.178424 0.033004
v 0.035301 0.059287 0.052831
v 0.025931 0.178424 0.038809
v 0.024316 0.059287 0.058703
v 0.017862 0.178424 0.043122
v 0.012396 0.059287 0.062319
v 0.009106 0.178424 0.045778
v -0.000000 0.066142 0.063540
v -0.012396 0.066142 0.062319
v -0.024316 0.066142 0.058703
v -0.035301 0.066142 0.052831
v -0.044929 0.066142 0.044929
v -0.052831 0.066142 0.035301
v -0.058703 0.066142 0.024316
v -0.062319 0.066142 0.012396
v -0.063540 0.066142 0.000000
v -0.062319 0.066142 -0.012396
v -0.058703 0.066142 -0.024316
v -0.052831 0.066142 -0.035301
v -0.044929 0.066142 -0.044929
v -0.035301 0.066142 -0.052831
v -0.024316 0.066142 -0.058703
v -0.012396 0.066142 -0.062319
v -0.000000 0.066142 -0.063540
v 0.012396 0.066142 -0.062319
v 0.024316 0.066142 -0.058703
v 0.035301 0.066142 -0.052831
v 0.044929 0.066142 -0.044929
v 0.052831 0.066142 -0.035301
v 0.058703 0.066142 -0.024316
v 0.062319 0.066142 -0.012396
v 0.063540 0.066142 -0.000000
v 0.062319 0.066142 0.012396
v 0.058703 0.066142 0.024316
v 0.052831 0.066142 0.035301
v 0.044929 0.066142 0.044929
v 0.035301 0.066142 0.052831
v 0.024316 0.066142 0.058703
v 0.012396 0.066142 0.062319
v -0.000000 0.131273 0.063540
v -0.012396 0.131273 0.062319
v -0.024316 0.131273 0.058703
v -0.035301 0.131273 0.052831
v -0.044929 0.131273 0.044929
v -0.052831 0.131273 0.035301
v -0.058703 0.131273 0.024316
v -0.062319 0.131273 0.012396
v -0.063540 0.131273 0.000000
v -0.062319 0.131273 -0.012396
v -0.058703 0.131273 -0.024316
v -0.052831 0.131273 -0.035301
v -0.044929 0.131273 -0.044929
v -0.035301 0.131273 -0.052831
v -0.024316 0.131273 -0.058703
v -0.012396 0.131273 -0.062319
v -0.000000 0.131273 -0.063540
v 0.012396 0.131273 -0.062319
v 0.024316 0.131273 -0.058703
v 0.035301 0.131273 -0.052831
v 0.044929 0.131273 -0.044929
v 0.052831 0.131273 -0.035301
v 0.058703 0.131273 -0.024316
v 0.062319 0.131273 -0.012396
v 0.063540 0.131273 -0.000000
v 0.062319 0.131273 0.012396
v 0.058703 0.131273 0.024316
v 0.052831 0.131273 0.035301
v 0.044929 0.131273 0.044929
v 0.035301 0.131273 0.052831
v 0.024316 0.131273 0.058703
v 0.012396 0.131273 0.062319
v -0.011650 0.085285 0.290815
v -0.011650 0.051878 0.290815
v -0.018473 0.085285 0.288984
v -0.018473 0.051878 0.288984
v -0.288984 0.085285 0.018473
v -0.288984 0.051878 0.018473
v -0.290815 0.085285 0.011650
v -0.290815 0.051878 0.011650
v -0.291963 0.085285 0.000000
v -0.291963 0.051878 0.000000
v -0.290815 0.085285 -0.011649
v -0.290815 0.051878 -0.011649
v -0.288984 0.085285 -0.018473
v -0.288984 0.051878 -0.018473
v -0.018473 0.085285 -0.288984
v -0.018473 0.051878 -0.288984
v -0.011650 0.085285 -0.290815
v -0.011650 0.051878 -0.290815
v -0.000000 0.085285 -0.291963
v -0.000000 0.051878 -0.291963
v 0.011649 0.085285 -0.290815
v 0.011649 0.051878 -0.290815
v 0.018473 0.085285 -0.288984
v 0.018473 0.051878 -0.288984
v 0.288984 0.085285 -0.018473
v 0.288984 0.051878 -0.018473
v 0.290815 0.085285 -0.011650
v 0.290815 0.051878 -0.011650
v 0.291962 0.085285 -0.000000
v 0.291962 0.051878 -0.000000
v 0.290815 0.085285 0.011649
v 0.290815 0.051878 0.011649
v 0.288984 0.085285 0.018473
v 0.288984 0.051878 0.018473
v 0.018473 0.085285 0.288984
v 0.018473 0.051878 0.288984
v 0.011649 0.085285 0.290815
v 0.011649 0.051878 0.290815
v -0.000000 0.051878 0.291963
v -0.000000 0.085285 0.291963
v -0.012396 0.178424 0.062319
v -0.000000 0.178424 0.063540
v -0.024316 0.178424 0.058703
v -0.035301 0.178424 0.052831
v -0.044929 0.178424 0.044929
v -0.052831 0.178424 0.035301
v -0.058703 0.178424 0.024316
v -0.062319 0.178424 0.012396
v -0.063540 0.178424 0.000000
v -0.062319 0.178424 -0.012396
v -0.058703 0.178424 -0.024316
v -0.052831 0.178424 -0.035301
v -0.044929 0.178424 -0.044929
v -0.035301 0.178424 -0.052831
v -0.024316 0.178424 -0.058703
v -0.012396 0.178424 -0.062319
v -0.000000 0.178424 -0.063540
v 0.012396 0.178424 -0.062319
v 0.024316 0.178424 -0.058703
v 0.035301 0.178424 -0.052831
v 0.044929 0.178424 -0.044929
v 0.052831 0.178424 -0.035301
v 0.058703 0.178424 -0.024316
v 0.062319 0.178424 -0.012396
v 0.063540 0.178424 -0.000000
v 0.062319 0.178424 0.012396
v 0.058703 0.178424 0.024316
v 0.052831 0.178424 0.035301
v 0.044929 0.178424 0.044929
v 0.035301 0.178424 0.052831
v 0.024316 0.178424 0.058703
v 0.012396 0.178424 0.062319
v -0.008682 0.155152 0.043646
v -0.000000 0.155152 0.044501
v -0.017030 0.155152 0.041113
v -0.024723 0.155152 0.037001
v -0.031467 0.155152 0.031467
v -0.037001 0.155152 0.024723
v -0.041113 0.155152 0.017030
v -0.043646 0.155152 0.008682
v -0.044501 0.155152 0.000000
v -0.043646 0.155152 -0.008682
v -0.041113 0.155152 -0.017030
v -0.037001 0.155152 -0.024723
v -0.031467 0.155152 -0.031467
v -0.024723 0.155152 -0.037001
v -0.017030 0.155152 -0.041113
v -0.008682 0.155152 -0.043646
v -0.000000 0.155152 -0.044501
v 0.008682 0.155152 -0.043646
v 0.017030 0.155152 -0.041113
v 0.024723 0.155152 -0.037001
v 0.031467 0.155152 -0.031467
v 0.037001 0.155152 -0.024723
v 0.041113 0.155152 -0.017030
v 0.043646 0.155152 -0.008682
v 0.044501 0.155152 -0.000000
v 0.043646 0.155152 0.008682
v 0.041113 0.155152 0.017030
v 0.037001 0.155152 0.024723
v 0.031467 0.155152 0.031467
v 0.024723 0.155152 0.037001
v 0.017030 0.155152 0.041113
v 0.008682 0.155152 0.043646
v -0.009106 0.155152 0.045778
v -0.000000 0.155152 0.046675
v -0.017862 0.155152 0.043122
v -0.025931 0.155152 0.038809
v -0.033004 0.155152 0.033004
v -0.038809 0.155152 0.025931
v -0.043122 0.155152 0.017862
v -0.045778 0.155152 0.009106
v -0.046675 0.155152 0.000000
v -0.045778 0.155152 -0.009106
v -0.043122 0.155152 -0.017862
v -0.038809 0.155152 -0.025931
v -0.033004 0.155152 -0.033004
v -0.025931 0.155152 -0.038809
v -0.017862 0.155152 -0.043122
v -0.009106 0.155152 -0.045778
v -0.000000 0.155152 -0.046675
v 0.009106 0.155152 -0.045778
v 0.017862 0.155152 -0.043122
v 0.025931 0.155152 -0.038809
v 0.033004 0.155152 -0.033004
v 0.038808 0.155152 -0.025931
v 0.043122 0.155152 -0.017862
v 0.045778 0.155152 -0.009106
v 0.046675 0.155152 -0.000000
v 0.045778 0.155152 0.009106
v 0.043122 0.155152 0.017862
v 0.038808 0.155152 0.025931
v 0.033004 0.155152 0.033004
v 0.025931 0.155152 0.038809
v 0.017862 0.155152 0.043122
v 0.009106 0.155152 0.045778
v -0.008682 0.444145 0.043646
v -0.000000 0.444145 0.044501
v -0.017030 0.444145 0.041113
v -0.024723 0.444145 0.037001
v -0.031467 0.444145 0.031467
v -0.037001 0.444145 0.024723
v -0.041113 0.444145 0.017030
v -0.043646 0.444145 0.008682
v -0.044501 0.444145 0.000000
v -0.043646 0.444145 -0.008682
v -0.041113 0.444145 -0.017030
v -0.037001 0.444145 -0.024723
v -0.031467 0.444145 -0.031467
v -0.024723 0.444145 -0.037001
v -0.017030 0.444145 -0.041113
v -0.008682 0.444145 -0.043646
v -0.000000 0.444145 -0.044501
v 0.008682 0.444145 -0.043646
v 0.017030 0.444145 -0.041113
v 0.024723 0.444145 -0.037001
v 0.031467 0.444145 -0.031467
v 0.037001 0.444145 -0.024723
v 0.041113 0.444145 -0.017030
v 0.043646 0.444145 -0.008682
v 0.044501 0.444145 -0.000000
v 0.043646 0.444145 0.008682
v 0.041113 0.444145 0.017030
v 0.037001 0.444145 0.024723
v 0.031467 0.444145 0.031467
v 0.024723 0.444145 0.037001
v 0.017030 0.444145 0.041113
v 0.008682 0.444145 0.043646
v 0.165833 0.435195 -0.206072
v 0.171104 0.447920 -0.218797
v 0.205197 0.435195 -0.166707
v 0.217922 0.447920 -0.171978
v 0.205197 0.501088 -0.166707
v 0.217922 0.488363 -0.171978
v 0.165833 0.501088 -0.206072
v 0.171104 0.488363 -0.218797
v 0.205197 0.435195 0.166707
v 0.217922 0.447920 0.171978
v 0.165833 0.435195 0.206072
v 0.171104 0.447920 0.218796
v 0.165833 0.501088 0.206072
v 0.171104 0.488363 0.218796
v 0.205197 0.501088 0.166707
v 0.217922 0.488363 0.171978
v -0.206946 0.435195 -0.166707
v -0.219671 0.447920 -0.171978
v -0.167582 0.435195 -0.206072
v -0.172853 0.447920 -0.218796
v -0.167582 0.501088 -0.206072
v -0.172853 0.488363 -0.218796
v -0.206946 0.501088 -0.166707
v -0.219671 0.488363 -0.171978
v -0.167582 0.435195 0.206072
v -0.172853 0.447920 0.218797
v -0.206946 0.435195 0.166707
v -0.219671 0.447920 0.171978
v -0.206946 0.501088 0.166707
v -0.219671 0.488363 0.171978
v -0.167582 0.501088 0.206072
v -0.172853 0.488363 0.218797
v -0.029538 0.447920 -0.218796
v 0.027788 0.447920 -0.218797
v 0.026910 0.435195 -0.206072
v -0.028659 0.435195 -0.206072
v -0.028659 0.501088 -0.206072
v 0.026910 0.501088 -0.206072
v 0.027788 0.488363 -0.218797
v -0.029538 0.488363 -0.218796
v 0.027789 0.447920 0.218796
v -0.029537 0.447920 0.218797
v -0.028659 0.435195 0.206072
v 0.026910 0.435195 0.206072
v -0.029537 0.488363 0.218797
v 0.027789 0.488363 0.218796
v 0.026910 0.501088 0.206072
v -0.028659 0.501088 0.206072
v 0.027788 0.488363 -0.262304
v -0.029538 0.488363 -0.262304
v -0.029537 0.488363 0.262304
v 0.027789 0.488363 0.262304
v -0.039844 0.655745 -0.262304
v -0.039844 0.655745 -0.218796
v -0.097170 0.655745 -0.218796
v -0.097170 0.655745 -0.262304
v -0.097170 0.655745 0.218797
v -0.039844 0.655745 0.218797
v -0.039843 0.655745 0.262304
v -0.097170 0.655745 0.262304
v -0.039844 0.685464 -0.218796
v -0.039844 0.687553 -0.230671
v -0.097170 0.687553 -0.230671
v -0.097170 0.685464 -0.218796
v -0.097170 0.685464 0.218797
v -0.097170 0.687553 0.230671
v -0.039844 0.687553 0.230671
v -0.039844 0.685464 0.218797
v -0.039844 0.687553 -0.250429
v -0.039844 0.685464 -0.262304
v -0.097170 0.685464 -0.262304
v -0.097170 0.687553 -0.250429
v -0.097170 0.687553 0.250429
v -0.097170 0.685464 0.262304
v -0.039843 0.685464 0.262304
v -0.039843 0.687553 0.250429
v -0.177530 0.685464 0.218797
v -0.169833 0.687553 0.230671
v -0.177530 0.685464 0.262304
v -0.169833 0.687553 0.250429
v -0.177530 0.685464 -0.262304
v -0.169834 0.687553 -0.250429
v -0.177530 0.685464 -0.218796
v -0.169834 0.687553 -0.230671
v 0.075348 0.655745 -0.262304
v 0.077437 0.655745 -0.260215
v -0.179619 0.655745 0.220886
v -0.177530 0.655745 0.218797
v -0.177530 0.655745 -0.218796
v -0.179619 0.655745 -0.220886
v 0.077437 0.655745 -0.220886
v 0.075348 0.655745 -0.218797
v -0.179619 0.655745 -0.260214
v -0.177530 0.655745 -0.262304
v 0.075348 0.655745 0.218796
v 0.077437 0.655745 0.220886
v 0.077437 0.655745 0.260215
v 0.075348 0.655745 0.262304
v -0.177530 0.655745 0.262304
v -0.179619 0.655745 0.260215
v 0.075348 0.667988 0.262304
v 0.077437 0.666765 0.260215
v 0.075960 0.670331 0.260215
v 0.057872 0.685464 0.262304
v 0.060215 0.686076 0.260215
v 0.046863 0.687553 0.250429
v 0.057872 0.685464 0.218796
v 0.046863 0.687553 0.230671
v 0.060214 0.686076 0.220886
v 0.077437 0.666765 0.220886
v 0.075348 0.667988 0.218796
v 0.075960 0.670331 0.220886
v 0.057872 0.685464 -0.262304
v 0.046862 0.687553 -0.250429
v 0.060214 0.686076 -0.260215
v 0.075348 0.667988 -0.262304
v 0.075959 0.670331 -0.260215
v 0.077437 0.666765 -0.260215
v 0.075348 0.667988 -0.218797
v 0.077437 0.666765 -0.220886
v 0.075959 0.670331 -0.220886
v 0.046863 0.687553 -0.230671
v 0.057872 0.685464 -0.218797
v 0.060214 0.686076 -0.220886
v -0.039844 0.687553 -0.220886
v -0.097170 0.687553 -0.220886
v -0.097170 0.687553 0.220886
v -0.039844 0.687553 0.220886
v -0.097170 0.687553 -0.260215
v -0.039844 0.687553 -0.260215
v -0.039843 0.687553 0.260215
v -0.097170 0.687553 0.260215
v -0.179619 0.687553 0.220886
v -0.179619 0.687553 0.260215
v -0.179619 0.687553 -0.260214
v -0.179619 0.687553 -0.220886
v 0.056648 0.687553 0.220886
v 0.056648 0.687553 0.260215
v 0.056648 0.687553 -0.260215
v 0.056648 0.687553 -0.220886
v -0.097170 0.686088 -0.250429
v -0.097170 0.686088 -0.230671
v -0.039844 0.686088 -0.230671
v -0.039844 0.686088 -0.250429
v -0.039843 0.686088 0.250429
v -0.039844 0.686088 0.230671
v -0.097170 0.686088 0.230671
v -0.097170 0.686088 0.250429
v -0.169833 0.686088 0.230671
v -0.169833 0.686088 0.250429
v -0.169834 0.686088 -0.250429
v -0.169834 0.686088 -0.230671
v 0.046863 0.686088 0.230671
v 0.046863 0.686088 0.250429
v 0.046862 0.686088 -0.250429
v 0.046863 0.686088 -0.230671
v -0.029538 0.470916 -0.262304
v -0.029538 0.447920 -0.239307
v 0.027788 0.447920 -0.239307
v 0.027788 0.470916 -0.262304
v 0.027789 0.470916 0.262304
v 0.027789 0.447920 0.239307
v -0.029537 0.447920 0.239307
v -0.029537 0.470916 0.262304
v -0.266395 1.030291 -0.206071
v -0.287688 1.033354 -0.218796
v -0.270509 1.069440 -0.166707
v -0.292580 1.079916 -0.171978
v -0.336041 1.062554 -0.166707
v -0.316629 1.077389 -0.171978
v -0.331927 1.023406 -0.206071
v -0.311737 1.030827 -0.218796
v -0.270509 1.069440 0.166708
v -0.292580 1.079916 0.171979
v -0.266395 1.030291 0.206072
v -0.287688 1.033354 0.218797
v -0.331927 1.023406 0.206072
v -0.311736 1.030827 0.218797
v -0.336041 1.062554 0.166708
v -0.316629 1.077389 0.171979
v -0.215755 0.548350 -0.166707
v -0.227081 0.534365 -0.171978
v -0.219869 0.587499 -0.206071
v -0.231973 0.580927 -0.218796
v -0.285401 0.580613 -0.206071
v -0.272195 0.576701 -0.218796
v -0.281287 0.541464 -0.166707
v -0.267302 0.530139 -0.171978
v -0.219869 0.587499 0.206072
v -0.231973 0.580927 0.218797
v -0.215755 0.548350 0.166708
v -0.227081 0.534365 0.171979
v -0.281287 0.541464 0.166708
v -0.267302 0.530139 0.171979
v -0.285401 0.580613 0.206072
v -0.272195 0.576701 0.218797
v -0.250435 0.678819 -0.218796
v -0.229174 0.676057 -0.206071
v -0.294706 0.669171 -0.206071
v -0.274484 0.676292 -0.218796
v -0.250435 0.678819 0.218797
v -0.229174 0.676057 0.206072
v -0.274484 0.676292 0.218797
v -0.294706 0.669171 0.206072
v -0.279602 1.034204 -0.218796
v -0.284494 1.080766 -0.171978
v -0.324715 1.076540 -0.171978
v -0.319823 1.029977 -0.218796
v -0.319823 1.029977 0.218797
v -0.324715 1.076540 0.171979
v -0.284494 1.080766 0.171979
v -0.279601 1.034204 0.218797
v -0.241499 0.671582 -0.218796
v -0.281720 0.667356 0.218797
v -0.281720 0.667356 -0.218796
v -0.241499 0.671582 0.218797
v -0.287547 1.032012 -0.215538
v -0.311596 1.029485 -0.215538
v -0.316289 1.074149 -0.170628
v -0.292240 1.076676 -0.170628
v -0.316288 1.074149 0.170629
v -0.292240 1.076676 0.170629
v -0.311595 1.029485 0.215539
v -0.287547 1.032012 0.215539
v -0.250435 0.678819 -0.215269
v -0.274484 0.676292 0.215270
v -0.274484 0.676292 -0.215269
v -0.250435 0.678819 0.215270
v -0.227081 0.534365 0.057327
v -0.227081 0.534365 -0.057325
v -0.215755 0.548350 -0.055569
v -0.215755 0.548350 0.055570
v -0.267302 0.530139 -0.057325
v -0.267302 0.530139 0.057327
v -0.281287 0.541464 0.055570
v -0.281287 0.541464 -0.055569
v -0.218019 0.448121 0.057327
v -0.218019 0.448121 -0.057325
v -0.225976 0.447285 -0.057325
v -0.261630 0.476158 -0.057325
v -0.261630 0.476158 0.057327
v -0.225976 0.447285 0.057327
v 0.014508 0.026521 -0.244486
v -0.014356 0.026521 -0.244486
v 0.014508 0.021347 -0.244995
v -0.014356 0.021347 -0.244995
v 0.014508 0.016372 -0.246504
v -0.014356 0.016372 -0.246504
v 0.014508 0.011787 -0.248955
v -0.014356 0.011787 -0.248955
v 0.014508 0.007768 -0.252253
v -0.014356 0.007768 -0.252253
v 0.014508 0.004470 -0.256272
v -0.014356 0.004470 -0.256272
v 0.014508 0.002019 -0.260857
v -0.014356 0.002019 -0.260857
v 0.014508 0.000510 -0.265833
v -0.014356 0.000510 -0.265833
v 0.014508 -0.000000 -0.271007
v -0.014356 -0.000000 -0.271007
v 0.014508 0.000510 -0.276181
v -0.014356 0.000510 -0.276181
v 0.014508 0.002019 -0.281156
v -0.014356 0.002019 -0.281156
v 0.014508 0.004470 -0.285741
v -0.014356 0.004470 -0.285741
v 0.014508 0.007768 -0.289760
v -0.014356 0.007768 -0.289760
v 0.014508 0.011787 -0.293058
v -0.014356 0.011787 -0.293058
v 0.014508 0.016372 -0.295509
v -0.014356 0.016372 -0.295509
v 0.014508 0.021347 -0.297018
v -0.014356 0.021347 -0.297018
v 0.014508 0.026521 -0.297528
v -0.014356 0.026521 -0.297528
v 0.014508 0.031695 -0.297018
v -0.014356 0.031695 -0.297018
v 0.014508 0.036670 -0.295509
v -0.014356 0.036670 -0.295509
v 0.014508 0.041255 -0.293058
v -0.014356 0.041255 -0.293058
v 0.014508 0.045274 -0.289760
v -0.014356 0.045274 -0.289760
v 0.014508 0.048572 -0.285741
v -0.014356 0.048572 -0.285741
v 0.014508 0.051023 -0.281156
v -0.014356 0.051023 -0.281156
v 0.014508 0.052532 -0.276181
v -0.014356 0.052532 -0.276181
v 0.014508 0.053042 -0.271007
v -0.014356 0.053042 -0.271007
v 0.014508 0.052532 -0.265833
v -0.014356 0.052532 -0.265833
v 0.014508 0.051023 -0.260857
v -0.014356 0.051023 -0.260857
v 0.014508 0.048572 -0.256272
v -0.014356 0.048572 -0.256272
v 0.014508 0.045274 -0.252253
v -0.014356 0.045274 -0.252253
v 0.014508 0.041255 -0.248955
v -0.014356 0.041255 -0.248955
v 0.014508 0.036670 -0.246504
v -0.014356 0.036670 -0.246504
v 0.014508 0.031695 -0.244995
v -0.014356 0.031695 -0.244995
v 0.014508 0.026521 0.301061
v -0.014356 0.026521 0.301061
v 0.014508 0.021347 0.300551
v -0.014356 0.021347 0.300551
v 0.014508 0.016372 0.299042
v -0.014356 0.016372 0.299042
v 0.014508 0.011787 0.296591
v -0.014356 0.011787 0.296591
v 0.014508 0.007768 0.293293
v -0.014356 0.007768 0.293293
v 0.014508 0.004470 0.289274
v -0.014356 0.004470 0.289274
v 0.014508 0.002019 0.284689
v -0.014356 0.002019 0.284689
v 0.014508 0.000510 0.279714
v -0.014356 0.000510 0.279714
v 0.014508 -0.000000 0.274540
v -0.014356 -0.000000 0.274540
v 0.014508 0.000510 0.269366
v -0.014356 0.000510 0.269366
v 0.014508 0.002019 0.264391
v -0.014356 0.002019 0.264391
v 0.014508 0.004470 0.259806
v -0.014356 0.004470 0.259806
v 0.014508 0.007768 0.255787
v -0.014356 0.007768 0.255787
v 0.014508 0.011787 0.252489
v -0.014356 0.011787 0.252489
v 0.014508 0.016372 0.250038
v -0.014356 0.016372 0.250038
v 0.014508 0.021347 0.248529
v -0.014356 0.021347 0.248529
v 0.014508 0.026521 0.248019
v -0.014356 0.026521 0.248019
v 0.014508 0.031695 0.248529
v -0.014356 0.031695 0.248529
v 0.014508 0.036670 0.250038
v -0.014356 0.036670 0.250038
v 0.014508 0.041255 0.252489
v -0.014356 0.041255 0.252489
v 0.014508 0.045274 0.255787
v -0.014356 0.045274 0.255787
v 0.014508 0.048572 0.259806
v -0.014356 0.048572 0.259806
v 0.014508 0.051023 0.264391
v -0.014356 0.051023 0.264391
v 0.014508 0.052532 0.269366
v -0.014356 0.052532 0.269366
v 0.014508 0.053042 0.274540
v -0.014356 0.053042 0.274540
v 0.014508 0.052532 0.279714
v -0.014356 0.052532 0.279714
v 0.014508 0.051023 0.284689
v -0.014356 0.051023 0.284689
v 0.014508 0.048572 0.289274
v -0.014356 0.048572 0.289274
v 0.014508 0.045274 0.293293
v -0.014356 0.045274 0.293293
v 0.014508 0.041255 0.296591
v -0.014356 0.041255 0.296591
v 0.014508 0.036670 0.299042
v -0.014356 0.036670 0.299042
v 0.014508 0.031695 0.300551
v -0.014356 0.031695 0.300551
v -0.241711 0.026521 -0.013616
v -0.241711 0.026521 0.015247
v -0.242221 0.021347 -0.013616
v -0.242221 0.021347 0.015247
v -0.243730 0.016372 -0.013616
v -0.243730 0.016372 0.015247
v -0.246181 0.011787 -0.013616
v -0.246181 0.011787 0.015247
v -0.249479 0.007768 -0.013616
v -0.249479 0.007768 0.015247
v -0.253498 0.004470 -0.013616
v -0.253498 0.004470 0.015247
v -0.258083 0.002019 -0.013616
v -0.258083 0.002019 0.015247
v -0.263058 0.000510 -0.013616
v -0.263058 0.000510 0.015247
v -0.268232 -0.000000 -0.013616
v -0.268232 -0.000000 0.015247
v -0.273406 0.000510 -0.013616
v -0.273406 0.000510 0.015247
v -0.278381 0.002019 -0.013616
v -0.278381 0.002019 0.015247
v -0.282966 0.004470 -0.013616
v -0.282966 0.004470 0.015247
v -0.286985 0.007768 -0.013616
v -0.286985 0.007768 0.015247
v -0.290283 0.011787 -0.013616
v -0.290283 0.011787 0.015247
v -0.292734 0.016372 -0.013616
v -0.292734 0.016372 0.015247
v -0.294243 0.021347 -0.013616
v -0.294243 0.021347 0.015247
v -0.294753 0.026521 -0.013616
v -0.294753 0.026521 0.015247
v -0.294243 0.031695 -0.013616
v -0.294243 0.031695 0.015247
v -0.292734 0.036670 -0.013616
v -0.292734 0.036670 0.015247
v -0.290283 0.041255 -0.013616
v -0.290283 0.041255 0.015247
v -0.286985 0.045274 -0.013616
v -0.286985 0.045274 0.015247
v -0.282966 0.048572 -0.013616
v -0.282966 0.048572 0.015247
v -0.278381 0.051023 -0.013616
v -0.278381 0.051023 0.015247
v -0.273406 0.052532 -0.013616
v -0.273406 0.052532 0.015247
v -0.268232 0.053042 -0.013616
v -0.268232 0.053042 0.015247
v -0.263058 0.052532 -0.013616
v -0.263058 0.052532 0.015247
v -0.258083 0.051023 -0.013616
v -0.258083 0.051023 0.015247
v -0.253498 0.048572 -0.013616
v -0.253498 0.048572 0.015247
v -0.249479 0.045274 -0.013616
v -0.249479 0.045274 0.015247
v -0.246181 0.041255 -0.013616
v -0.246181 0.041255 0.015247
v -0.243730 0.036670 -0.013616
v -0.243730 0.036670 0.015247
v -0.242221 0.031695 -0.013616
v -0.242221 0.031695 0.015247
v 0.303902 0.026521 -0.013617
v 0.303902 0.026521 0.015246
v 0.303392 0.021347 -0.013617
v 0.303392 0.021347 0.015246
v 0.301883 0.016372 -0.013617
v 0.301883 0.016372 0.015246
v 0.299432 0.011787 -0.013617
v 0.299432 0.011787 0.015246
v 0.296134 0.007768 -0.013617
v 0.296134 0.007768 0.015246
v 0.292115 0.004470 -0.013617
v 0.292115 0.004470 0.015246
v 0.287530 0.002019 -0.013617
v 0.287530 0.002019 0.015246
v 0.282555 0.000510 -0.013617
v 0.282555 0.000510 0.015246
v 0.277381 -0.000000 -0.013617
v 0.277381 -0.000000 0.015246
v 0.272207 0.000510 -0.013617
v 0.272207 0.000510 0.015246
v 0.267232 0.002019 -0.013617
v 0.267232 0.002019 0.015246
v 0.262647 0.004470 -0.013617
v 0.262647 0.004470 0.015246
v 0.258628 0.007768 -0.013617
v 0.258628 0.007768 0.015246
v 0.255330 0.011787 -0.013617
v 0.255330 0.011787 0.015246
v 0.252879 0.016372 -0.013617
v 0.252879 0.016372 0.015246
v 0.251370 0.021347 -0.013617
v 0.251370 0.021347 0.015246
v 0.250860 0.026521 -0.013617
v 0.250860 0.026521 0.015246
v 0.251370 0.031695 -0.013617
v 0.251370 0.031695 0.015246
v 0.252879 0.036670 -0.013617
v 0.252879 0.036670 0.015246
v 0.255330 0.041255 -0.013617
v 0.255330 0.041255 0.015246
v 0.258628 0.045274 -0.013617
v 0.258628 0.045274 0.015246
v 0.262647 0.048572 -0.013617
v 0.262647 0.048572 0.015246
v 0.267232 0.051023 -0.013617
v 0.267232 0.051023 0.015246
v 0.272207 0.052532 -0.013617
v 0.272207 0.052532 0.015246
v 0.277381 0.053042 -0.013617
v 0.277381 0.053042 0.015246
v 0.282555 0.052532 -0.013617
v 0.282555 0.052532 0.015246
v 0.287530 0.051023 -0.013617
v 0.287530 0.051023 0.015246
v 0.292115 0.048572 -0.013617
v 0.292115 0.048572 0.015246
v 0.296134 0.045274 -0.013617
v 0.296134 0.045274 0.015246
v 0.299432 0.041255 -0.013617
v 0.299432 0.041255 0.015246
v 0.301883 0.036670 -0.013617
v 0.301883 0.036670 0.015246
v 0.303392 0.031695 -0.013617
v 0.303392 0.031695 0.015246
vn -0.0980 -0.0000 0.9952
vn -0.2903 -0.0000 0.9569
vn -0.4714 -0.0000 0.8819
vn -0.6344 -0.0000 0.7730
vn -0.7730 -0.0000 0.6344
vn -0.8819 -0.0000 0.4714
vn -0.9569 -0.0000 0.2903
vn -0.9952 -0.0000 0.0980
vn -0.9952 -0.0000 -0.0980
vn -0.9569 -0.0000 -0.2903
vn -0.8819 -0.0000 -0.4714
vn -0.7730 -0.0000 -0.6344
vn -0.6344 -0.0000 -0.7730
vn -0.4714 -0.0000 -0.8819
vn -0.2903 -0.0000 -0.9569
vn -0.0980 -0.0000 -0.9952
vn 0.0980 -0.0000 -0.9952
vn 0.2903 -0.0000 -0.9569
vn 0.4714 -0.0000 -0.8819
vn 0.6344 -0.0000 -0.7730
vn 0.7730 -0.0000 -0.6344
vn 0.8819 -0.0000 -0.4714
vn 0.9569 -0.0000 -0.2903
vn 0.9952 -0.0000 -0.0980
vn 0.9952 -0.0000 0.0980
vn 0.9569 -0.0000 0.2903
vn 0.8819 -0.0000 0.4714
vn 0.7730 -0.0000 0.6344
vn 0.6344 -0.0000 0.7730
vn 0.4714 -0.0000 0.8819
vn 0.2903 -0.0000 0.9569
vn 0.0980 -0.0000 0.9952
vn -0.0000 -1.0000 -0.0000
vn -0.0623 -0.9979 0.0181
vn -0.9997 -0.0000 -0.0254
vn 0.0623 -0.9979 0.0181
vn -0.1970 0.9787 0.0573
vn -0.0623 -0.9980 0.0061
vn -0.1973 0.9801 0.0194
vn 0.0254 -0.0000 0.9997
vn -0.0623 -0.9980 -0.0061
vn -0.1973 0.9801 -0.0194
vn -0.0623 -0.9979 -0.0181
vn 0.1970 0.9787 -0.0573
vn -0.1970 0.9787 -0.0573
vn 0.1973 0.9801 -0.0194
vn -0.0254 -0.0000 -0.9997
vn 0.0061 -0.9980 -0.0623
vn 0.1973 0.9801 0.0194
vn 0.2592 -0.0000 0.9658
vn 0.9658 -0.0000 0.2592
vn 0.9658 -0.0000 -0.2592
vn 0.2592 -0.0000 -0.9658
vn -0.2592 -0.0000 -0.9658
vn -0.9658 -0.0000 -0.2592
vn -0.9658 -0.0000 0.2592
vn -0.2592 -0.0000 0.9658
vn 0.0623 -0.9980 0.0061
vn -0.9997 -0.0000 0.0254
vn 0.0194 0.9801 0.1973
vn 0.0623 -0.9980 -0.0061
vn 0.0573 0.9787 -0.1970
vn 0.0573 0.9787 0.1970
vn 0.9997 -0.0000 0.0254
vn 0.0623 -0.9979 -0.0181
vn 0.0194 0.9801 -0.1973
vn 0.9997 -0.0000 -0.0254
vn -0.0194 0.9801 -0.1973
vn -0.0061 -0.9980 -0.0623
vn -0.0573 0.9787 0.1970
vn -0.0573 0.9787 -0.1970
vn -0.0181 -0.9979 0.0623
vn -0.0254 -0.0000 0.9997
vn -0.0181 -0.9979 -0.0623
vn -0.0194 0.9801 0.1973
vn -0.0061 -0.9980 0.0623
vn 0.0061 -0.9980 0.0623
vn 0.1970 0.9787 0.0573
vn 0.0181 -0.9979 -0.0623
vn 0.0254 -0.0000 -0.9997
vn 0.0181 -0.9979 0.0623
vn -0.0000 1.0000 -0.0000
vn 1.0000 -0.0000 -0.0000
vn -0.7071 -0.0000 0.7071
vn 0.7071 -0.0000 0.7071
vn -0.7071 -0.0000 -0.7071
vn -0.0000 -0.0000 -1.0000
vn -0.0000 -0.0000 1.0000
vn -1.0000 -0.0000 -0.0000
vn 0.7071 -0.0000 -0.7071
vn 0.5000 -0.7071 -0.5000
vn 0.5000 0.7071 -0.5000
vn 0.5000 0.7071 0.5000
vn 0.5000 -0.7071 0.5000
vn -0.5000 0.7071 0.5000
vn -0.5000 -0.7071 0.5000
vn -0.5000 0.7071 -0.5000
vn -0.5000 -0.7071 -0.5000
vn 0.7071 -0.7071 -0.0000
vn -0.0000 -0.7071 0.7071
vn -0.7071 -0.7071 -0.0000
vn -0.0000 -0.7071 -0.7071
vn 0.7071 0.7071 -0.0000
vn -0.0000 0.7071 -0.7071
vn -0.7071 0.7071 -0.0000
vn -0.0000 0.7071 0.7071
vn -0.9272 -0.3746 -0.0000
vn 0.9272 0.3746 -0.0000
vn 0.7570 0.3136 0.5733
vn 0.3136 0.7570 0.5733
vn 0.3136 0.7570 -0.5733
vn 0.7570 0.3135 -0.5733
vn 0.7570 0.3135 0.5733
vn 0.5000 0.5000 0.7071
vn 0.9239 0.3827 -0.0000
vn 0.5000 0.5000 -0.7071
vn 0.3827 0.9239 -0.0000
vn -0.9945 -0.1045 -0.0000
vn 0.0739 -0.7032 0.7071
vn 0.0739 -0.7032 -0.7071
vn 0.9945 0.1045 -0.0000
vn 0.1045 -0.9945 -0.0000
vn -0.1045 0.9945 -0.0000
vn 0.6510 0.5712 -0.5000
vn -0.7555 0.4234 -0.5000
vn -0.7555 0.4234 0.5000
vn 0.6510 0.5712 0.5000
vn -0.6510 -0.5712 0.5000
vn 0.7555 -0.4234 0.5000
vn -0.6510 -0.5712 -0.5000
vn 0.7555 -0.4234 -0.5000
vn 0.6293 0.7771 -0.0000
vn 0.7032 0.0739 0.7071
vn 0.7771 -0.6293 -0.0000
vn 0.7032 0.0739 -0.7071
vn -0.7771 0.6293 -0.0000
vn -0.7032 -0.0739 -0.7071
vn -0.6293 -0.7771 -0.0000
vn -0.7032 -0.0739 0.7071
vn -0.0739 0.7032 -0.7071
vn -0.0739 0.7032 0.7071
vn 0.0001 -0.0008 -1.0000
vn 0.0001 -0.0008 1.0000
vn -0.0000 -0.0980 0.9952
vn -0.0000 -0.2903 0.9569
vn -0.0000 -0.4714 0.8819
vn -0.0000 -0.6344 0.7730
vn -0.0000 -0.7730 0.6344
vn -0.0000 -0.8819 0.4714
vn -0.0000 -0.9569 0.2903
vn -0.0000 -0.9952 0.0980
vn -0.0000 -0.9952 -0.0980
vn -0.0000 -0.9569 -0.2903
vn -0.0000 -0.8819 -0.4714
vn -0.0000 -0.7730 -0.6344
vn -0.0000 -0.6344 -0.7730
vn -0.0000 -0.4714 -0.8819
vn -0.0000 -0.2903 -0.9569
vn -0.0000 -0.0980 -0.9952
vn -0.0000 0.0980 -0.9952
vn -0.0000 0.2903 -0.9569
vn -0.0000 0.4714 -0.8819
vn -0.0000 0.6344 -0.7730
vn -0.0000 0.7730 -0.6344
vn -0.0000 0.8819 -0.4714
vn -0.0000 0.9569 -0.2903
vn -0.0000 0.9952 -0.0980
vn -0.0000 0.9952 0.0980
vn -0.0000 0.9569 0.2903
vn -0.0000 0.8819 0.4714
vn -0.0000 0.7730 0.6344
vn -0.0000 0.6344 0.7730
vn -0.0000 0.4714 0.8819
vn -0.0000 0.2903 0.9569
vn -0.0000 0.0980 0.9952
vn 0.9952 -0.0980 -0.0000
vn 0.9569 -0.2903 -0.0000
vn 0.8819 -0.4714 -0.0000
vn 0.7730 -0.6344 -0.0000
vn 0.6344 -0.7730 -0.0000
vn 0.4714 -0.8819 -0.0000
vn 0.2903 -0.9569 -0.0000
vn 0.0980 -0.9952 -0.0000
vn -0.0980 -0.9952 -0.0000
vn -0.2903 -0.9569 -0.0000
vn -0.4714 -0.8819 -0.0000
vn -0.6344 -0.7730 -0.0000
vn -0.7730 -0.6344 -0.0000
vn -0.8819 -0.4714 -0.0000
vn -0.9569 -0.2903 -0.0000
vn -0.9952 -0.0980 -0.0000
vn -0.9952 0.0980 -0.0000
vn -0.9569 0.2903 -0.0000
vn -0.8819 0.4714 -0.0000
vn -0.7730 0.6344 -0.0000
vn -0.6344 0.7730 -0.0000
vn -0.4714 0.8819 -0.0000
vn -0.2903 0.9569 -0.0000
vn -0.0980 0.9952 -0.0000
vn 0.0980 0.9952 -0.0000
vn 0.2903 0.9569 -0.0000
vn 0.4714 0.8819 -0.0000
vn 0.6344 0.7730 -0.0000
vn 0.7730 0.6344 -0.0000
vn 0.8819 0.4714 -0.0000
vn 0.9569 0.2903 -0.0000
vn 0.9952 0.0980 -0.0000
vt 1.000000 0.802115
vt 1.000000 1.000000
vt 0.968750 1.000000
vt 0.968750 0.802115
vt 0.937500 1.000000
vt 0.937500 0.802115
vt 0.906250 1.000000
vt 0.906250 0.802115
vt 0.875000 1.000000
vt 0.875000 0.802115
vt 0.843750 1.000000
vt 0.843750 0.802115
vt 0.812500 1.000000
vt 0.812500 0.802115
vt 0.781250 1.000000
vt 0.781250 0.802115
vt 0.750000 1.000000
vt 0.750000 0.802115
vt 0.718750 1.000000
vt 0.718750 0.802115
vt 0.687500 1.000000
vt 0.687500 0.802115
vt 0.656250 1.000000
vt 0.656250 0.802115
vt 0.625000 1.000000
vt 0.625000 0.802115
vt 0.593750 1.000000
vt 0.593750 0.802115
vt 0.562500 1.000000
vt 0.562500 0.802115
vt 0.531250 1.000000
vt 0.531250 0.802115
vt 0.500000 1.000000
vt 0.500000 0.802115
vt 0.468750 1.000000
vt 0.468750 0.802115
vt 0.437500 1.000000
vt 0.437500 0.802115
vt 0.406250 1.000000
vt 0.406250 0.802115
vt 0.375000 1.000000
vt 0.375000 0.802115
vt 0.343750 1.000000
vt 0.343750 0.802115
vt 0.312500 1.000000
vt 0.312500 0.802115
vt 0.281250 1.000000
vt 0.281250 0.802115
vt 0.250000 1.000000
vt 0.250000 0.802115
vt 0.218750 1.000000
vt 0.218750 0.802115
vt 0.187500 1.000000
vt 0.187500 0.802115
vt 0.156250 1.000000
vt 0.156250 0.802115
vt 0.125000 1.000000
vt 0.125000 0.802115
vt 0.093750 1.000000
vt 0.093750 0.802115
vt 0.062500 1.000000
vt 0.062500 0.802115
vt 0.422910 0.284394
vt 0.412878 0.317466
vt 0.031250 1.000000
vt 0.031250 0.802115
vt 0.000000 1.000000
vt 0.000000 0.802115
vt 0.750000 0.490000
vt 0.796822 0.485388
vt 0.841844 0.471731
vt 0.883337 0.449553
vt 0.919706 0.419706
vt 0.949553 0.383337
vt 0.971731 0.341844
vt 0.985388 0.296822
vt 0.990000 0.250000
vt 0.985388 0.203178
vt 0.971731 0.158156
vt 0.949553 0.116663
vt 0.919706 0.080294
vt 0.883337 0.050447
vt 0.841844 0.028269
vt 0.796822 0.014612
vt 0.750000 0.010000
vt 0.703178 0.014612
vt 0.658156 0.028269
vt 0.616663 0.050447
vt 0.580294 0.080294
vt 0.550447 0.116663
vt 0.528269 0.158156
vt 0.514612 0.203178
vt 0.510000 0.250000
vt 0.514612 0.296822
vt 0.528269 0.341844
vt 0.550447 0.383337
vt 0.580294 0.419706
vt 0.616663 0.449553
vt 0.658156 0.471731
vt 0.703178 0.485388
vt 0.031250 0.500000
vt 0.031250 0.528770
vt 0.000000 0.528770
vt 0.000000 0.500000
vt 0.062500 0.500000
vt 0.062500 0.528770
vt 0.093750 0.500000
vt 0.093750 0.528770
vt 0.125000 0.500000
vt 0.125000 0.528770
vt 0.156250 0.500000
vt 0.156250 0.528770
vt 0.187500 0.500000
vt 0.187500 0.528770
vt 0.218750 0.500000
vt 0.218750 0.528770
vt 0.250000 0.500000
vt 0.250000 0.528770
vt 0.281250 0.500000
vt 0.281250 0.528770
vt 0.312500 0.500000
vt 0.312500 0.528770
vt 0.343750 0.500000
vt 0.343750 0.528770
vt 0.375000 0.500000
vt 0.375000 0.528770
vt 0.406250 0.500000
vt 0.406250 0.528770
vt 0.437500 0.500000
vt 0.437500 0.528770
vt 0.468750 0.500000
vt 0.468750 0.528770
vt 0.500000 0.500000
vt 0.500000 0.528770
vt 0.531250 0.500000
vt 0.531250 0.528770
vt 0.562500 0.500000
vt 0.562500 0.528770
vt 0.593750 0.500000
vt 0.593750 0.528770
vt 0.625000 0.500000
vt 0.625000 0.528770
vt 0.656250 0.500000
vt 0.656250 0.528770
vt 0.687500 0.500000
vt 0.687500 0.528770
vt 0.718750 0.500000
vt 0.718750 0.528770
vt 0.750000 0.500000
vt 0.750000 0.528770
vt 0.781250 0.500000
vt 0.781250 0.528770
vt 0.812500 0.500000
vt 0.812500 0.528770
vt 0.843750 0.500000
vt 0.843750 0.528770
vt 0.875000 0.500000
vt 0.875000 0.528770
vt 0.906250 0.500000
vt 0.906250 0.528770
vt 0.937500 0.500000
vt 0.937500 0.528770
vt 0.968750 0.500000
vt 0.968750 0.528770
vt 1.000000 0.500000
vt 1.000000 0.528770
vt 0.250000 0.426298
vt 0.284394 0.422910
vt 0.296822 0.485388
vt 0.250000 0.490000
vt 0.317466 0.412878
vt 0.341844 0.471731
vt 0.347946 0.396586
vt 0.383337 0.449553
vt 0.374661 0.374661
vt 0.419706 0.419706
vt 0.396586 0.347946
vt 0.449553 0.383337
vt 0.471731 0.341844
vt 0.485388 0.296822
vt 0.426298 0.250000
vt 0.490000 0.250000
vt 0.422910 0.215606
vt 0.485388 0.203178
vt 0.412878 0.182534
vt 0.471731 0.158156
vt 0.396586 0.152054
vt 0.449553 0.116663
vt 0.374661 0.125339
vt 0.419706 0.080294
vt 0.347946 0.103414
vt 0.383337 0.050447
vt 0.317466 0.087122
vt 0.341844 0.028269
vt 0.284394 0.077090
vt 0.296822 0.014612
vt 0.250000 0.073702
vt 0.250000 0.010000
vt 0.215606 0.077090
vt 0.203178 0.014612
vt 0.182534 0.087122
vt 0.158156 0.028269
vt 0.152054 0.103414
vt 0.116663 0.050447
vt 0.125339 0.125339
vt 0.080294 0.080294
vt 0.103414 0.152054
vt 0.050447 0.116663
vt 0.087122 0.182534
vt 0.028269 0.158156
vt 0.077090 0.215606
vt 0.014612 0.203178
vt 0.073702 0.250000
vt 0.010000 0.250000
vt 0.077090 0.284394
vt 0.014612 0.296822
vt 0.087122 0.317466
vt 0.028269 0.341844
vt 0.103414 0.347946
vt 0.050447 0.383337
vt 0.125339 0.374661
vt 0.080294 0.419706
vt 0.152054 0.396586
vt 0.116663 0.449553
vt 0.182534 0.412878
vt 0.158156 0.471731
vt 0.215606 0.422910
vt 0.203178 0.485388
vt 0.250000 0.081913
vt 0.282792 0.085143
vt 0.250000 0.418087
vt 0.282792 0.414857
vt 0.314324 0.405292
vt 0.343384 0.389759
vt 0.368856 0.368856
vt 0.389759 0.343384
vt 0.405292 0.314324
vt 0.414857 0.282792
vt 0.418087 0.250000
vt 0.414857 0.217208
vt 0.405292 0.185676
vt 0.389759 0.156616
vt 0.368856 0.131144
vt 0.343384 0.110241
vt 0.314324 0.094708
vt 0.217208 0.085143
vt 0.185676 0.094708
vt 0.156616 0.110241
vt 0.131144 0.131144
vt 0.110241 0.156616
vt 0.094708 0.185676
vt 0.085143 0.217208
vt 0.081913 0.250000
vt 0.085143 0.282792
vt 0.094708 0.314324
vt 0.110241 0.343384
vt 0.131144 0.368856
vt 0.156616 0.389759
vt 0.185676 0.405292
vt 0.217208 0.414857
vt 0.423279 0.026748
vt 0.576721 0.026748
vt 0.576721 0.223252
vt 0.423279 0.223252
vt 0.576721 0.526748
vt 0.423279 0.526748
vt 0.423279 0.473252
vt 0.576721 0.473252
vt 0.576721 0.276748
vt 0.423279 0.276748
vt 0.423279 0.223252
vt 0.576721 0.223252
vt 0.632270 0.529759
vt 0.654759 0.507270
vt 0.718253 0.507270
vt 0.781747 0.507270
vt 0.845241 0.507270
vt 0.867730 0.529759
vt 0.867730 0.720241
vt 0.845241 0.742730
vt 0.781747 0.742730
vt 0.718253 0.742730
vt 0.654759 0.742730
vt 0.632270 0.720241
vt 0.576721 0.776748
vt 0.423279 0.776748
vt 0.423279 0.723252
vt 0.576721 0.723252
vt 0.423279 0.907751
vt 0.576721 0.907751
vt 0.576721 0.973252
vt 0.423279 0.973252
vt 0.423279 0.407751
vt 0.576721 0.407751
vt 0.423279 0.473252
vt 0.423279 0.526748
vt 0.423279 0.723252
vt 0.423279 0.000000
vt 0.576721 0.000000
vt 0.423279 0.026748
vt 0.132270 0.720241
vt 0.154759 0.742730
vt 0.151748 0.750000
vt 0.125000 0.723252
vt 0.875000 0.723252
vt 0.848252 0.750000
vt 0.848252 0.500000
vt 0.875000 0.526748
vt 0.154759 0.507270
vt 0.132270 0.529759
vt 0.125000 0.526748
vt 0.151748 0.500000
vt 0.625000 0.526748
vt 0.651748 0.500000
vt 0.367730 0.529759
vt 0.345241 0.507270
vt 0.348252 0.500000
vt 0.375000 0.526748
vt 0.651748 0.750000
vt 0.625000 0.723252
vt 0.345241 0.742730
vt 0.367730 0.720241
vt 0.375000 0.723252
vt 0.348252 0.750000
vt 0.282751 0.500000
vt 0.281747 0.507270
vt 0.217249 0.750000
vt 0.218253 0.742730
vt 0.782751 0.750000
vt 0.782751 0.500000
vt 0.218253 0.507270
vt 0.281747 0.742730
vt 0.717249 0.750000
vt 0.282751 0.750000
vt 0.423279 0.776748
vt 0.576721 0.842249
vt 0.423279 0.842249
vt 0.510528 0.407751
vt 0.717249 0.500000
vt 0.217249 0.500000
vt 0.423279 0.276748
vt 0.576721 0.342249
vt 0.423279 0.342249
vt 0.717249 0.750000
vt 0.510528 0.842249
vt 0.510528 0.342249
vt 0.510528 0.342249
vt 0.510528 0.842249
vt 0.510528 0.907751
vt 0.717249 0.500000
vt 0.782751 0.750000
vt 0.782751 0.750000
vt 0.576721 0.907751
vt 0.576721 0.907751
vt 0.576721 0.842249
vt 0.782751 0.500000
vt 0.576721 0.342249
vt 0.576721 0.342249
vt 0.576721 0.342249
vt 0.717249 0.750000
vt 0.717249 0.500000
vt 0.576721 0.907751
vt 0.576721 0.907751
vt 0.576721 0.907751
vt 0.782751 0.500000
vt 0.782751 0.750000
vt 0.782751 0.750000
vt 0.576721 0.342249
vt 0.782751 0.500000
vt 0.782751 0.500000
vt 0.782751 0.750000
vt 0.454128 0.430446
vt 0.454128 0.276748
vt 0.454128 0.223252
vt 0.692855 0.507270
vt 0.692855 0.742730
vt 0.632270 0.656747
vt 0.632270 0.593253
vt 0.545872 0.026748
vt 0.545872 0.223252
vt 0.423279 0.433951
vt 0.576721 0.433951
vt 0.423279 0.657751
vt 0.576721 0.657751
vt 0.454128 0.819554
vt 0.545872 0.819554
vt 0.308951 0.500000
vt 0.307145 0.507270
vt 0.367730 0.656747
vt 0.308951 0.750000
vt 0.307145 0.742730
vt 0.691049 0.750000
vt 0.576721 0.592249
vt 0.691049 0.500000
vt 0.367730 0.593253
vt 0.576721 0.816049
vt 0.423279 0.816049
vt 0.545872 0.276748
vt 0.454128 0.000000
vt 0.454128 0.026748
vt 0.545872 0.000000
vt 0.454128 0.973252
vt 0.545872 0.430446
vt 0.545872 0.973252
vt 0.423279 0.592249
vt 0.453637 0.592249
vt 0.453637 0.657751
vt 0.453637 0.657751
vt 0.080294 0.419706
vt 0.050447 0.383337
vt 0.028269 0.341844
vt 0.028269 0.158156
vt 0.050447 0.116663
vt 0.080294 0.080294
vt 0.116663 0.050447
vt 0.158156 0.028269
vt 0.341844 0.028269
vt 0.383337 0.050447
vt 0.419706 0.080294
vt 0.919706 0.080294
vt 0.883337 0.050447
vt 0.841844 0.028269
vt 0.658156 0.028269
vt 0.616663 0.050447
vt 0.580294 0.080294
s 0
usemtl M_Noir_Bleuté
f 97/1/1 170/2/1 169/3/1 98/4/1
f 98/4/2 169/3/2 171/5/2 99/6/2
f 99/6/3 171/5/3 172/7/3 100/8/3
f 100/8/4 172/7/4 173/9/4 101/10/4
f 101/10/5 173/9/5 174/11/5 102/12/5
f 102/12/6 174/11/6 175/13/6 103/14/6
f 103/14/7 175/13/7 176/15/7 104/16/7
f 104/16/8 176/15/8 177/17/8 105/18/8
f 105/18/9 177/17/9 178/19/9 106/20/9
f 106/20/10 178/19/10 179/21/10 107/22/10
f 107/22/11 179/21/11 180/23/11 108/24/11
f 108/24/12 180/23/12 181/25/12 109/26/12
f 109/26/13 181/25/13 182/27/13 110/28/13
f 110/28/14 182/27/14 183/29/14 111/30/14
f 111/30/15 183/29/15 184/31/15 112/32/15
f 112/32/16 184/31/16 185/33/16 113/34/16
f 113/34/17 185/33/17 186/35/17 114/36/17
f 114/36/18 186/35/18 187/37/18 115/38/18
f 115/38/19 187/37/19 188/39/19 116/40/19
f 116/40/20 188/39/20 189/41/20 117/42/20
f 117/42/21 189/41/21 190/43/21 118/44/21
f 118/44/22 190/43/22 191/45/22 119/46/22
f 119/46/23 191/45/23 192/47/23 120/48/23
f 120/48/24 192/47/24 193/49/24 121/50/24
f 121/50/25 193/49/25 194/51/25 122/52/25
f 122/52/26 194/51/26 195/53/26 123/54/26
f 123/54/27 195/53/27 196/55/27 124/56/27
f 124/56/28 196/55/28 197/57/28 125/58/28
f 125/58/29 197/57/29 198/59/29 126/60/29
f 126/60/30 198/59/30 199/61/30 127/62/30
f 16/63/23 14/64/23 239/64/23 240/63/23
f 127/62/31 199/61/31 200/65/31 128/66/31
f 128/66/32 200/65/32 170/67/32 97/68/32
f 1/69/33 3/70/33 5/71/33 7/72/33 9/73/33 11/74/33 13/75/33 15/76/33 17/77/33 19/78/33 21/79/33 23/80/33 25/81/33 27/82/33 29/83/33 31/84/33 33/85/33 35/86/33 37/87/33 39/88/33 41/89/33 43/90/33 45/91/33 47/92/33 49/93/33 51/94/33 53/95/33 55/96/33 57/97/33 59/98/33 61/99/33 63/100/33
f 63/101/32 96/102/32 65/103/32 1/104/32
f 61/105/31 95/106/31 96/102/31 63/101/31
f 59/107/30 94/108/30 95/106/30 61/105/30
f 57/109/29 93/110/29 94/108/29 59/107/29
f 55/111/28 92/112/28 93/110/28 57/109/28
f 53/113/27 91/114/27 92/112/27 55/111/27
f 51/115/26 90/116/26 91/114/26 53/113/26
f 49/117/25 89/118/25 90/116/25 51/115/25
f 47/119/24 88/120/24 89/118/24 49/117/24
f 45/121/23 87/122/23 88/120/23 47/119/23
f 43/123/22 86/124/22 87/122/22 45/121/22
f 41/125/21 85/126/21 86/124/21 43/123/21
f 39/127/20 84/128/20 85/126/20 41/125/20
f 37/129/19 83/130/19 84/128/19 39/127/19
f 35/131/18 82/132/18 83/130/18 37/129/18
f 33/133/17 81/134/17 82/132/17 35/131/17
f 31/135/16 80/136/16 81/134/16 33/133/16
f 29/137/15 79/138/15 80/136/15 31/135/15
f 27/139/14 78/140/14 79/138/14 29/137/14
f 25/141/13 77/142/13 78/140/13 27/139/13
f 23/143/12 76/144/12 77/142/12 25/141/12
f 21/145/11 75/146/11 76/144/11 23/143/11
f 19/147/10 74/148/10 75/146/10 21/145/10
f 17/149/9 73/150/9 74/148/9 19/147/9
f 15/151/8 72/152/8 73/150/8 17/149/8
f 13/153/7 71/154/7 72/152/7 15/151/7
f 11/155/6 70/156/6 71/154/6 13/153/6
f 9/157/5 69/158/5 70/156/5 11/155/5
f 7/159/4 68/160/4 69/158/4 9/157/4
f 5/161/3 67/162/3 68/160/3 7/159/3
f 3/163/2 66/164/2 67/162/2 5/161/2
f 1/165/1 65/166/1 66/164/1 3/163/1
f 88/120/34 87/122/34 154/122/34 156/120/34
f 79/138/35 111/30/35 143/30/35 144/138/35
f 94/108/30 126/60/30 127/62/30 95/106/30
f 93/110/29 125/58/29 126/60/29 94/108/29
f 92/112/28 124/56/28 125/58/28 93/110/28
f 91/114/27 123/54/27 124/56/27 92/112/27
f 75/146/36 74/148/36 140/148/36 142/146/36
f 103/14/37 104/16/37 135/16/37 133/14/37
f 89/118/38 88/120/38 156/120/38 158/118/38
f 104/16/39 105/18/39 137/18/39 135/16/39
f 86/124/22 118/44/22 119/46/22 87/122/22
f 85/126/21 117/42/21 118/44/21 86/124/21
f 84/128/20 116/40/20 117/42/20 85/126/20
f 83/130/19 115/38/19 116/40/19 84/128/19
f 123/54/40 91/114/40 162/114/40 161/54/40
f 90/116/41 89/118/41 158/118/41 160/116/41
f 105/18/42 106/20/42 139/20/42 137/18/42
f 91/114/43 90/116/43 160/116/43 162/114/43
f 78/140/14 110/28/14 111/30/14 79/138/14
f 77/142/13 109/26/13 110/28/13 78/140/13
f 76/144/12 108/24/12 109/26/12 77/142/12
f 75/146/11 107/22/11 108/24/11 76/144/11
f 119/46/44 120/48/44 155/48/44 153/46/44
f 106/20/45 107/22/45 141/22/45 139/20/45
f 120/48/46 121/50/46 157/50/46 155/48/46
f 107/22/47 75/146/47 142/146/47 141/22/47
f 70/156/6 102/12/6 103/14/6 71/154/6
f 69/158/5 101/10/5 102/12/5 70/156/5
f 68/160/4 100/8/4 101/10/4 69/158/4
f 67/162/3 99/6/3 100/8/3 68/160/3
f 66/164/48 65/166/48 167/166/48 130/164/48
f 121/50/49 122/52/49 159/52/49 157/50/49
f 166/102/32 165/66/32 168/68/32 167/103/32
f 164/106/50 163/62/50 165/66/50 166/102/50
f 160/116/51 159/52/51 161/54/51 162/114/51
f 158/118/25 157/50/25 159/52/25 160/116/25
f 156/120/24 155/48/24 157/50/24 158/118/24
f 154/122/52 153/46/52 155/48/52 156/120/52
f 150/132/53 149/36/53 151/38/53 152/130/53
f 148/134/17 147/34/17 149/36/17 150/132/17
f 146/136/16 145/32/16 147/34/16 148/134/16
f 144/138/54 143/30/54 145/32/54 146/136/54
f 140/148/55 139/20/55 141/22/55 142/146/55
f 138/150/9 137/18/9 139/20/9 140/148/9
f 136/152/8 135/16/8 137/18/8 138/150/8
f 134/154/56 133/14/56 135/16/56 136/152/56
f 130/164/57 129/4/57 131/6/57 132/162/57
f 167/166/1 168/1/1 129/4/1 130/164/1
f 74/148/58 73/150/58 138/150/58 140/148/58
f 99/6/59 67/162/59 132/162/59 131/6/59
f 128/66/60 97/68/60 168/68/60 165/66/60
f 73/150/61 72/152/61 136/152/61 138/150/61
f 114/36/62 115/38/62 151/38/62 149/36/62
f 127/62/63 128/66/63 165/66/63 163/62/63
f 95/106/64 127/62/64 163/62/64 164/106/64
f 72/152/65 71/154/65 134/154/65 136/152/65
f 113/34/66 114/36/66 149/36/66 147/34/66
f 115/38/67 83/130/67 152/130/67 151/38/67
f 112/32/68 113/34/68 147/34/68 145/32/68
f 65/103/69 96/102/69 166/102/69 167/103/69
f 98/4/70 99/6/70 131/6/70 129/4/70
f 111/30/71 112/32/71 145/32/71 143/30/71
f 83/130/72 82/132/72 150/132/72 152/130/72
f 71/154/73 103/14/73 133/14/73 134/154/73
f 96/102/74 95/106/74 164/106/74 166/102/74
f 97/1/75 98/4/75 129/4/75 168/1/75
f 82/132/76 81/134/76 148/134/76 150/132/76
f 81/134/77 80/136/77 146/136/77 148/134/77
f 122/52/78 123/54/78 161/54/78 159/52/78
f 67/162/79 66/164/79 130/164/79 132/162/79
f 87/122/80 119/46/80 153/46/80 154/122/80
f 80/136/81 79/138/81 144/138/81 146/136/81
f 2/167/82 4/168/82 169/169/82 170/170/82
f 4/168/82 6/171/82 171/172/82 169/169/82
f 6/171/82 8/173/82 172/174/82 171/172/82
f 8/173/82 10/175/82 173/176/82 172/174/82
f 10/175/82 12/177/82 174/178/82 173/176/82
f 12/177/82 14/64/82 175/179/82 174/178/82
f 14/64/82 16/63/82 176/180/82 175/179/82
f 16/63/82 18/181/82 177/182/82 176/180/82
f 18/181/82 20/183/82 178/184/82 177/182/82
f 20/183/82 22/185/82 179/186/82 178/184/82
f 22/185/82 24/187/82 180/188/82 179/186/82
f 24/187/82 26/189/82 181/190/82 180/188/82
f 26/189/82 28/191/82 182/192/82 181/190/82
f 28/191/82 30/193/82 183/194/82 182/192/82
f 30/193/82 32/195/82 184/196/82 183/194/82
f 32/195/82 34/197/82 185/198/82 184/196/82
f 34/197/82 36/199/82 186/200/82 185/198/82
f 36/199/82 38/201/82 187/202/82 186/200/82
f 38/201/82 40/203/82 188/204/82 187/202/82
f 40/203/82 42/205/82 189/206/82 188/204/82
f 42/205/82 44/207/82 190/208/82 189/206/82
f 44/207/82 46/209/82 191/210/82 190/208/82
f 46/209/82 48/211/82 192/212/82 191/210/82
f 48/211/82 50/213/82 193/214/82 192/212/82
f 50/213/82 52/215/82 194/216/82 193/214/82
f 52/215/82 54/217/82 195/218/82 194/216/82
f 54/217/82 56/219/82 196/220/82 195/218/82
f 56/219/82 58/221/82 197/222/82 196/220/82
f 58/221/82 60/223/82 198/224/82 197/222/82
f 60/223/82 62/225/82 199/226/82 198/224/82
f 62/225/82 64/227/82 200/228/82 199/226/82
f 64/227/82 2/167/82 170/170/82 200/228/82
f 44/207/5 42/205/5 253/205/5 254/207/5
f 18/181/24 16/63/24 240/63/24 241/181/24
f 46/209/6 44/207/6 254/207/6 255/209/6
f 20/183/25 18/181/25 241/181/25 242/183/25
f 48/211/7 46/209/7 255/209/7 256/211/7
f 22/185/26 20/183/26 242/183/26 243/185/26
f 50/213/8 48/211/8 256/211/8 257/213/8
f 24/187/27 22/185/27 243/185/27 244/187/27
f 52/215/9 50/213/9 257/213/9 258/215/9
f 26/189/28 24/187/28 244/187/28 245/189/28
f 54/217/10 52/215/10 258/215/10 259/217/10
f 28/191/29 26/189/29 245/189/29 246/191/29
f 56/219/11 54/217/11 259/217/11 260/219/11
f 30/193/30 28/191/30 246/191/30 247/193/30
f 4/168/17 2/167/17 234/167/17 233/168/17
f 58/221/12 56/219/12 260/219/12 261/221/12
f 32/195/31 30/193/31 247/193/31 248/195/31
f 6/171/18 4/168/18 233/168/18 235/171/18
f 60/223/13 58/221/13 261/221/13 262/223/13
f 34/197/32 32/195/32 248/195/32 249/197/32
f 8/173/19 6/171/19 235/171/19 236/173/19
f 62/225/14 60/223/14 262/223/14 263/225/14
f 36/199/1 34/197/1 249/197/1 250/199/1
f 10/175/20 8/173/20 236/173/20 237/175/20
f 64/227/15 62/225/15 263/225/15 264/227/15
f 38/201/2 36/199/2 250/199/2 251/201/2
f 12/177/21 10/175/21 237/175/21 238/177/21
f 2/167/16 64/227/16 264/227/16 234/167/16
f 40/203/3 38/201/3 251/201/3 252/203/3
f 14/64/22 12/177/22 238/177/22 239/64/22
f 42/205/4 40/203/4 252/203/4 253/205/4
f 300/261/83 302/262/83 312/263/83 306/264/83
f 326/265/84 324/266/84 322/267/84 328/268/84
f 310/269/85 308/270/85 306/271/85 312/272/85
f 325/273/82 327/274/82 344/275/82 343/276/82 309/277/82 311/278/82 301/279/82 303/280/82 334/281/82 333/282/82 317/283/82 319/284/82
f 318/285/86 316/286/86 314/287/86 320/288/86
f 330/289/87 335/290/87 304/291/87 298/292/87
f 338/293/88 341/294/88 328/268/88 322/295/88
f 324/296/89 326/265/89 320/288/89 314/297/89
f 298/298/90 304/299/90 302/262/90 300/300/90
f 299/301/91 297/302/91 298/303/91 300/304/91
f 303/280/92 301/279/92 302/305/92 304/306/92
f 311/278/93 309/277/93 310/307/93 312/308/93
f 307/309/94 305/310/94 306/311/94 308/312/94
f 327/274/95 325/273/95 326/313/95 328/314/95
f 323/315/96 321/316/96 322/317/96 324/318/96
f 319/284/97 317/283/97 318/319/97 320/320/97
f 315/321/98 313/322/98 314/323/98 316/324/98
f 300/304/99 306/311/99 305/310/99 299/301/99
f 338/325/100 322/317/100 321/316/100 339/326/100
f 324/296/101 314/297/101 313/322/101 323/315/101
f 330/327/102 298/303/102 297/302/102 331/328/102
f 301/279/103 311/278/103 312/308/103 302/305/103
f 334/281/104 303/280/104 304/306/104 335/329/104
f 320/288/105 326/265/105 325/273/105 319/284/105
f 342/330/106 310/307/106 309/277/106 343/276/106
f 305/310/33 307/309/33 340/331/33 339/326/33 321/316/33 323/315/33 313/322/33 315/321/33 332/332/33 331/328/33 297/302/33 299/301/33
f 317/283/104 333/282/104 336/333/104 318/319/104
f 333/282/104 334/281/104 335/329/104 336/333/104
f 316/324/102 329/334/102 332/332/102 315/321/102
f 329/334/102 330/327/102 331/328/102 332/332/102
f 316/335/87 318/285/87 336/336/87 329/337/87
f 328/314/106 341/339/106 344/275/106 327/274/106
f 341/339/106 342/330/106 343/276/106 344/275/106
f 308/312/100 337/340/100 340/331/100 307/309/100
f 337/340/100 338/325/100 339/326/100 340/331/100
f 308/341/88 310/269/88 342/342/88 337/343/88
f 378/344/83 380/333/83 448/333/83 447/344/83
f 349/290/87 352/336/87 367/336/87 366/290/87
f 361/339/87 353/339/87 384/339/87 373/350/87
f 357/329/88 350/329/88 388/329/88 415/351/88 419/329/88
f 368/333/88 378/344/88 447/344/88 437/333/88
f 356/294/88 370/294/88 375/294/88 395/294/88
f 358/329/87 418/352/87 452/352/87 439/329/87
f 376/339/87 369/339/87 444/339/87 446/339/87
f 349/290/87 366/290/87 409/353/87 412/290/87 381/354/87
f 367/336/87 352/336/87 390/336/87 377/355/87
f 383/294/89 396/294/89 430/294/89 429/294/89
f 350/290/33 349/290/33 381/290/33 382/290/33 387/290/33 388/354/33
f 389/336/89 386/336/89 432/336/89 431/336/89
f 354/330/87 353/339/87 361/339/87 364/356/87
f 356/294/88 355/342/88 371/342/88 370/294/88
f 371/342/88 355/342/88 394/342/88 397/342/88 400/357/88
f 399/342/103 408/358/103 405/357/103 401/359/103
f 352/336/33 351/336/33 385/336/33 386/336/33 389/336/33 390/336/33
f 353/294/33 356/294/33 395/294/33 396/294/33 383/294/33 384/294/33
f 410/329/88 365/351/88 440/351/88 451/329/88
f 351/333/88 360/333/88 379/333/88 385/360/88
f 355/342/33 354/342/33 391/342/33 392/342/33 393/342/33 394/342/33
f 393/342/83 392/342/83 406/342/83 398/342/83
f 362/339/88 374/361/88 445/361/88 443/339/88
f 387/290/83 382/290/83 414/290/83 416/290/83
f 411/362/103 420/354/103 417/363/103 413/364/103
f 354/330/87 364/330/87 403/365/87 407/330/87 391/330/87
f 397/342/109 398/342/109 399/342/109
f 400/357/110 401/359/110 434/342/110
f 403/365/111 433/330/111 405/330/111
f 406/342/112 407/342/112 408/342/112
f 409/353/111 435/290/111 411/290/111
f 412/290/112 413/364/112 414/290/112
f 415/290/113 416/290/113 417/290/113
f 436/366/110 419/329/110 420/367/110
f 421/351/106 422/333/106 360/333/106 357/329/106
f 423/339/104 424/330/104 364/356/104 361/339/104
f 366/290/104 367/336/104 425/336/104 426/290/104
f 370/294/106 371/342/106 427/342/106 428/294/106
f 383/339/86 429/339/86 373/350/86 384/339/86
f 385/360/84 379/333/84 432/333/84 386/333/84
f 377/355/86 390/336/86 389/336/86 431/336/86
f 430/294/84 396/294/84 395/294/84 375/294/84
f 429/339/104 423/339/104 361/339/104 373/350/104
f 375/294/106 370/294/106 428/294/106 430/294/106
f 431/336/104 425/336/104 367/336/104 377/355/104
f 422/333/106 432/333/106 379/333/106 360/333/106
f 400/357/114 397/342/114 399/342/114 401/359/114
f 398/342/115 406/342/115 408/358/115 399/342/115
f 407/368/116 403/342/116 405/357/116 408/358/116
f 433/342/117 434/342/117 401/359/117 405/357/117
f 412/290/116 409/353/116 411/362/116 413/364/116
f 435/290/117 436/290/117 420/354/117 411/362/117
f 419/290/114 415/290/114 417/363/114 420/354/114
f 416/290/115 414/290/115 413/364/115 417/363/115
f 403/365/104 364/330/104 424/365/104 433/369/104
f 371/342/106 400/357/106 434/342/106 427/342/106
f 397/342/85 394/342/85 393/342/85 398/342/85
f 391/342/90 407/342/90 406/342/90 392/342/90
f 409/353/104 366/290/104 426/290/104 435/290/104
f 357/329/106 419/329/106 436/351/106 421/329/106
f 415/290/85 388/290/85 387/290/85 416/290/85
f 381/354/90 412/290/90 414/290/90 382/290/90
f 351/333/88 350/329/88 357/329/88 360/333/88
f 358/329/82 359/333/82 422/333/82 421/351/82
f 362/339/82 363/365/82 424/330/82 423/339/82
f 368/333/82 365/351/82 426/329/82 425/333/82
f 372/330/82 369/339/82 428/339/82 427/365/82
f 374/361/82 362/339/82 423/339/82 429/339/82
f 369/339/82 376/339/82 430/339/82 428/339/82
f 378/344/82 368/333/82 425/333/82 431/333/82
f 359/333/82 380/333/82 432/333/82 422/333/82
f 404/330/82 402/370/82 434/365/82 433/369/82
f 410/329/82 418/352/82 436/351/82 435/371/82
f 363/365/82 404/330/82 433/369/82 424/365/82
f 402/370/82 372/330/82 427/330/82 434/365/82
f 365/351/82 410/329/82 435/371/82 426/351/82
f 418/352/82 358/329/82 421/329/82 436/351/82
f 380/333/82 378/344/82 431/333/82 432/333/82
f 376/339/82 374/361/82 429/339/82 430/339/82
f 380/333/87 359/333/87 438/333/87 448/333/87
f 359/333/87 358/329/87 439/329/87 438/333/87
f 374/361/83 376/339/83 446/339/83 445/361/83
f 402/370/89 404/330/89 449/330/89 450/370/89
f 363/365/88 362/339/88 443/339/88 442/365/88
f 418/352/89 410/329/89 451/329/89 452/352/89
f 365/351/88 368/333/88 437/333/88 440/351/88
f 404/330/88 363/365/88 442/365/88 449/330/88
f 369/339/87 372/330/87 441/330/87 444/339/87
f 372/330/87 402/370/87 450/370/87 441/330/87
f 497/372/118 472/373/118 520/373/118 524/372/118
f 490/265/119 488/266/119 486/267/119 492/268/119
f 472/373/118 470/374/118 518/374/118 520/373/118
f 489/273/118 491/274/118 500/375/118 473/277/118 475/278/118 465/279/118 467/280/118 495/376/118 481/283/118 483/284/118 532/377/118 531/378/118
f 482/285/120 480/286/120 478/287/120 484/288/120
f 466/379/121 476/380/121 517/380/121 515/379/121
f 512/381/88 510/382/88 492/268/88 486/295/88
f 526/383/122 529/384/122 484/288/122 478/297/122
f 493/385/123 496/386/123 523/386/123 521/385/123
f 463/301/124 461/302/124 501/303/124 502/304/124
f 467/280/125 465/279/125 503/305/125 504/306/125
f 475/278/126 473/277/126 505/307/126 506/308/126
f 471/309/127 469/310/127 507/311/127 508/312/127
f 491/274/128 489/273/128 490/313/128 492/314/128
f 487/315/129 485/316/129 486/317/129 488/318/129
f 483/284/130 481/283/130 482/319/130 484/320/130
f 479/321/131 477/322/131 478/323/131 480/324/131
f 502/304/132 507/311/132 469/310/132 463/301/132
f 512/387/133 486/317/133 485/316/133 498/388/133
f 526/383/134 478/297/134 477/322/134 527/389/134
f 509/390/135 501/303/135 461/302/135 494/391/135
f 465/279/136 475/278/136 506/308/136 503/305/136
f 495/376/137 467/280/137 504/306/137 511/392/137
f 530/393/138 490/265/138 489/273/138 531/378/138
f 510/394/139 505/307/139 473/277/139 500/375/139
f 469/310/121 471/309/121 498/388/121 485/316/121 487/315/121 528/395/121 527/389/121 477/322/121 479/321/121 494/391/121 461/302/121 463/301/121
f 481/283/137 495/376/137 511/392/137 482/319/137
f 480/324/135 509/390/135 494/391/135 479/321/135
f 480/335/87 482/285/87 511/396/87 509/397/87
f 492/314/139 510/394/139 500/375/139 491/274/139
f 508/312/133 512/387/133 498/388/133 471/309/133
f 476/380/121 474/398/121 519/398/121 517/380/121
f 462/399/140 464/400/140 502/300/140 501/298/140
f 466/379/140 468/401/140 504/299/140 503/262/140
f 474/398/141 476/380/141 506/272/141 505/269/141
f 470/374/141 472/373/141 508/270/141 507/271/141
f 464/400/123 470/374/123 507/264/123 502/261/123
f 493/385/87 462/402/87 501/292/87 509/397/87
f 476/380/123 466/379/123 503/262/123 506/263/123
f 499/403/88 474/398/88 505/269/88 510/382/88
f 468/404/87 496/386/87 511/396/87 504/291/87
f 496/386/87 493/385/87 509/397/87 511/396/87
f 472/373/88 497/372/88 512/381/88 508/341/88
f 497/372/88 499/403/88 510/382/88 512/381/88
f 464/400/118 462/399/118 513/399/118 516/400/118
f 474/398/121 499/403/121 522/403/121 519/398/121
f 470/374/118 464/400/118 516/400/118 518/374/118
f 499/403/123 497/372/123 524/372/123 522/403/123
f 468/401/121 466/379/121 515/379/121 514/401/121
f 496/386/121 468/404/121 514/404/121 523/386/121
f 462/402/118 493/385/118 521/385/118 513/402/118
f 484/288/138 529/384/138 532/377/138 483/284/138
f 529/384/138 530/393/138 531/378/138 532/377/138
f 488/296/134 525/405/134 528/395/134 487/315/134
f 525/405/134 526/383/134 527/389/134 528/395/134
f 488/296/122 490/265/122 530/393/122 525/405/122
f 525/405/88 530/393/88 537/393/88 538/406/88 533/405/88
f 529/384/87 526/383/87 534/383/87 535/407/87 536/384/87
f 533/405/122 538/406/122 535/408/122 534/383/122
f 526/383/121 525/405/121 533/405/121 534/383/121
f 535/408/138 538/406/138 537/393/138 536/384/138
f 530/393/118 529/384/118 536/384/118 537/393/118
usemtl M_Noir_Clair
f 217/229/16 216/230/16 280/230/16 281/229/16
f 202/231/82 201/232/82 233/168/82 234/167/82
f 201/232/82 203/233/82 235/171/82 233/168/82
f 203/233/82 204/234/82 236/173/82 235/171/82
f 204/234/82 205/235/82 237/175/82 236/173/82
f 205/235/82 206/236/82 238/177/82 237/175/82
f 206/236/82 207/237/82 239/64/82 238/177/82
f 207/237/82 208/238/82 240/63/82 239/64/82
f 208/238/82 209/239/82 241/181/82 240/63/82
f 209/239/82 210/240/82 242/183/82 241/181/82
f 210/240/82 211/241/82 243/185/82 242/183/82
f 211/241/82 212/242/82 244/187/82 243/185/82
f 212/242/82 213/243/82 245/189/82 244/187/82
f 213/243/82 214/244/82 246/191/82 245/189/82
f 214/244/82 215/245/82 247/193/82 246/191/82
f 215/245/82 216/230/82 248/195/82 247/193/82
f 216/230/82 217/229/82 249/197/82 248/195/82
f 217/229/82 218/246/82 250/199/82 249/197/82
f 218/246/82 219/247/82 251/201/82 250/199/82
f 219/247/82 220/248/82 252/203/82 251/201/82
f 220/248/82 221/249/82 253/205/82 252/203/82
f 221/249/82 222/250/82 254/207/82 253/205/82
f 222/250/82 223/251/82 255/209/82 254/207/82
f 223/251/82 224/252/82 256/211/82 255/209/82
f 224/252/82 225/253/82 257/213/82 256/211/82
f 225/253/82 226/254/82 258/215/82 257/213/82
f 226/254/82 227/255/82 259/217/82 258/215/82
f 227/255/82 228/256/82 260/219/82 259/217/82
f 228/256/82 229/257/82 261/221/82 260/219/82
f 229/257/82 230/258/82 262/223/82 261/221/82
f 230/258/82 231/259/82 263/225/82 262/223/82
f 231/259/82 232/260/82 264/227/82 263/225/82
f 232/260/82 202/231/82 234/167/82 264/227/82
f 265/232/82 266/231/82 296/260/82 295/259/82 294/258/82 293/257/82 292/256/82 291/255/82 290/254/82 289/253/82 288/252/82 287/251/82 286/250/82 285/249/82 284/248/82 283/247/82 282/246/82 281/229/82 280/230/82 279/245/82 278/244/82 277/243/82 276/242/82 275/241/82 274/240/82 273/239/82 272/238/82 271/237/82 270/236/82 269/235/82 268/234/82 267/233/82
f 204/234/3 203/233/3 267/233/3 268/234/3
f 231/259/30 230/258/30 294/258/30 295/259/30
f 218/246/17 217/229/17 281/229/17 282/246/17
f 205/235/4 204/234/4 268/234/4 269/235/4
f 232/260/31 231/259/31 295/259/31 296/260/31
f 219/247/18 218/246/18 282/246/18 283/247/18
f 206/236/5 205/235/5 269/235/5 270/236/5
f 202/231/32 232/260/32 296/260/32 266/231/32
f 220/248/19 219/247/19 283/247/19 284/248/19
f 207/237/6 206/236/6 270/236/6 271/237/6
f 221/249/20 220/248/20 284/248/20 285/249/20
f 208/238/7 207/237/7 271/237/7 272/238/7
f 222/250/21 221/249/21 285/249/21 286/250/21
f 209/239/8 208/238/8 272/238/8 273/239/8
f 223/251/22 222/250/22 286/250/22 287/251/22
f 210/240/9 209/239/9 273/239/9 274/240/9
f 224/252/23 223/251/23 287/251/23 288/252/23
f 211/241/10 210/240/10 274/240/10 275/241/10
f 225/253/24 224/252/24 288/252/24 289/253/24
f 212/242/11 211/241/11 275/241/11 276/242/11
f 226/254/25 225/253/25 289/253/25 290/254/25
f 213/243/12 212/242/12 276/242/12 277/243/12
f 227/255/26 226/254/26 290/254/26 291/255/26
f 214/244/13 213/243/13 277/243/13 278/244/13
f 228/256/27 227/255/27 291/255/27 292/256/27
f 215/245/14 214/244/14 278/244/14 279/245/14
f 201/232/1 202/231/1 266/231/1 265/232/1
f 229/257/28 228/256/28 292/256/28 293/257/28
f 216/230/15 215/245/15 279/245/15 280/230/15
f 203/233/2 201/232/2 265/232/2 267/233/2
f 230/258/29 229/257/29 293/257/29 294/258/29
f 341/294/89 338/293/89 459/293/89 460/338/89 347/294/89
f 329/337/89 336/336/89 346/336/89 453/345/89 454/337/89
f 337/343/83 342/342/83 348/342/83 457/346/83 458/343/83
f 457/347/88 348/342/88 347/294/88 460/338/88
f 338/325/33 337/340/33 458/340/33 459/325/33
f 453/348/87 346/336/87 345/290/87 456/349/87
f 335/290/83 330/289/83 455/289/83 456/349/83 345/290/83
f 345/290/87 346/336/87 352/336/87 349/290/87
f 336/333/88 335/329/88 350/329/88 351/333/88
f 346/336/107 336/336/107 351/336/107 352/336/107
f 335/290/108 345/290/108 349/290/108 350/290/108
f 341/294/107 347/294/107 356/294/107 353/294/107
f 347/294/88 348/342/88 355/342/88 356/294/88
f 348/342/108 342/342/108 354/342/108 355/342/108
f 342/330/87 341/339/87 353/339/87 354/330/87
f 453/334/102 456/327/102 455/327/102 454/334/102
f 457/340/100 460/325/100 459/325/100 458/340/100
f 330/327/33 329/334/33 454/334/33 455/327/33
f 539/165/144 540/2/144 542/3/144 541/163/144
f 541/163/145 542/3/145 544/5/145 543/161/145
f 543/161/146 544/5/146 546/7/146 545/159/146
f 545/159/147 546/7/147 548/9/147 547/157/147
f 547/157/148 548/9/148 550/11/148 549/155/148
f 549/155/149 550/11/149 552/13/149 551/153/149
f 551/153/150 552/13/150 554/15/150 553/151/150
f 553/151/151 554/15/151 556/17/151 555/149/151
f 555/149/152 556/17/152 558/19/152 557/147/152
f 557/147/153 558/19/153 560/21/153 559/145/153
f 559/145/154 560/21/154 562/23/154 561/143/154
f 561/143/155 562/23/155 564/25/155 563/141/155
f 563/141/156 564/25/156 566/27/156 565/139/156
f 565/139/157 566/27/157 568/29/157 567/137/157
f 567/137/158 568/29/158 570/31/158 569/135/158
f 569/135/159 570/31/159 572/33/159 571/133/159
f 571/133/160 572/33/160 574/35/160 573/131/160
f 573/131/161 574/35/161 576/37/161 575/129/161
f 575/129/162 576/37/162 578/39/162 577/127/162
f 577/127/163 578/39/163 580/41/163 579/125/163
f 579/125/164 580/41/164 582/43/164 581/123/164
f 581/123/165 582/43/165 584/45/165 583/121/165
f 583/121/166 584/45/166 586/47/166 585/119/166
f 585/119/167 586/47/167 588/49/167 587/117/167
f 587/117/168 588/49/168 590/51/168 589/115/168
f 589/115/169 590/51/169 592/53/169 591/113/169
f 591/113/170 592/53/170 594/55/170 593/111/170
f 593/111/171 594/55/171 596/57/171 595/109/171
f 595/109/172 596/57/172 598/59/172 597/107/172
f 597/107/173 598/59/173 600/61/173 599/105/173
f 542/169/89 540/170/89 602/228/89 600/226/89 598/224/89 596/409/89 594/410/89 592/411/89 590/216/89 588/214/89 586/212/89 584/412/89 582/413/89 580/414/89 578/415/89 576/416/89 574/200/89 572/198/89 570/196/89 568/417/89 566/418/89 564/419/89 562/188/89 560/186/89 558/184/89 556/182/89 554/180/89 552/179/89 550/178/89 548/176/89 546/174/89 544/172/89
f 599/105/174 600/61/174 602/65/174 601/101/174
f 601/101/175 602/65/175 540/67/175 539/104/175
f 539/69/83 541/70/83 543/71/83 545/72/83 547/73/83 549/74/83 551/75/83 553/76/83 555/77/83 557/78/83 559/79/83 561/80/83 563/420/83 565/421/83 567/422/83 569/84/83 571/85/83 573/86/83 575/423/83 577/424/83 579/425/83 581/90/83 583/91/83 585/92/83 587/93/83 589/94/83 591/95/83 593/96/83 595/97/83 597/98/83 599/99/83 601/100/83
f 603/165/144 604/2/144 606/3/144 605/163/144
f 605/163/145 606/3/145 608/5/145 607/161/145
f 607/161/146 608/5/146 610/7/146 609/159/146
f 609/159/147 610/7/147 612/9/147 611/157/147
f 611/157/148 612/9/148 614/11/148 613/155/148
f 613/155/149 614/11/149 616/13/149 615/153/149
f 615/153/150 616/13/150 618/15/150 617/151/150
f 617/151/151 618/15/151 620/17/151 619/149/151
f 619/149/152 620/17/152 622/19/152 621/147/152
f 621/147/153 622/19/153 624/21/153 623/145/153
f 623/145/154 624/21/154 626/23/154 625/143/154
f 625/143/155 626/23/155 628/25/155 627/141/155
f 627/141/156 628/25/156 630/27/156 629/139/156
f 629/139/157 630/27/157 632/29/157 631/137/157
f 631/137/158 632/29/158 634/31/158 633/135/158
f 633/135/159 634/31/159 636/33/159 635/133/159
f 635/133/160 636/33/160 638/35/160 637/131/160
f 637/131/161 638/35/161 640/37/161 639/129/161
f 639/129/162 640/37/162 642/39/162 641/127/162
f 641/127/163 642/39/163 644/41/163 643/125/163
f 643/125/164 644/41/164 646/43/164 645/123/164
f 645/123/165 646/43/165 648/45/165 647/121/165
f 647/121/166 648/45/166 650/47/166 649/119/166
f 649/119/167 650/47/167 652/49/167 651/117/167
f 651/117/168 652/49/168 654/51/168 653/115/168
f 653/115/169 654/51/169 656/53/169 655/113/169
f 655/113/170 656/53/170 658/55/170 657/111/170
f 657/111/171 658/55/171 660/57/171 659/109/171
f 659/109/172 660/57/172 662/59/172 661/107/172
f 661/107/173 662/59/173 664/61/173 663/105/173
f 606/169/89 604/170/89 666/228/89 664/226/89 662/224/89 660/409/89 658/410/89 656/411/89 654/216/89 652/214/89 650/212/89 648/412/89 646/413/89 644/414/89 642/415/89 640/416/89 638/200/89 636/198/89 634/196/89 632/417/89 630/418/89 628/419/89 626/188/89 624/186/89 622/184/89 620/182/89 618/180/89 616/179/89 614/178/89 612/176/89 610/174/89 608/172/89
f 663/105/174 664/61/174 666/65/174 665/101/174
f 665/101/175 666/65/175 604/67/175 603/104/175
f 603/69/83 605/70/83 607/71/83 609/72/83 611/73/83 613/74/83 615/75/83 617/76/83 619/77/83 621/78/83 623/79/83 625/80/83 627/420/83 629/421/83 631/422/83 633/84/83 635/85/83 637/86/83 639/423/83 641/424/83 643/425/83 645/90/83 647/91/83 649/92/83 651/93/83 653/94/83 655/95/83 657/96/83 659/97/83 661/98/83 663/99/83 665/100/83
f 667/165/176 668/2/176 670/3/176 669/163/176
f 669/163/177 670/3/177 672/5/177 671/161/177
f 671/161/178 672/5/178 674/7/178 673/159/178
f 673/159/179 674/7/179 676/9/179 675/157/179
f 675/157/180 676/9/180 678/11/180 677/155/180
f 677/155/181 678/11/181 680/13/181 679/153/181
f 679/153/182 680/13/182 682/15/182 681/151/182
f 681/151/183 682/15/183 684/17/183 683/149/183
f 683/149/184 684/17/184 686/19/184 685/147/184
f 685/147/185 686/19/185 688/21/185 687/145/185
f 687/145/186 688/21/186 690/23/186 689/143/186
f 689/143/187 690/23/187 692/25/187 691/141/187
f 691/141/188 692/25/188 694/27/188 693/139/188
f 693/139/189 694/27/189 696/29/189 695/137/189
f 695/137/190 696/29/190 698/31/190 697/135/190
f 697/135/191 698/31/191 700/33/191 699/133/191
f 699/133/192 700/33/192 702/35/192 701/131/192
f 701/131/193 702/35/193 704/37/193 703/129/193
f 703/129/194 704/37/194 706/39/194 705/127/194
f 705/127/195 706/39/195 708/41/195 707/125/195
f 707/125/196 708/41/196 710/43/196 709/123/196
f 709/123/197 710/43/197 712/45/197 711/121/197
f 711/121/198 712/45/198 714/47/198 713/119/198
f 713/119/199 714/47/199 716/49/199 715/117/199
f 715/117/200 716/49/200 718/51/200 717/115/200
f 717/115/201 718/51/201 720/53/201 719/113/201
f 719/113/202 720/53/202 722/55/202 721/111/202
f 721/111/203 722/55/203 724/57/203 723/109/203
f 723/109/204 724/57/204 726/59/204 725/107/204
f 725/107/205 726/59/205 728/61/205 727/105/205
f 670/169/88 668/170/88 730/228/88 728/226/88 726/224/88 724/409/88 722/410/88 720/411/88 718/216/88 716/214/88 714/212/88 712/412/88 710/413/88 708/414/88 706/415/88 704/416/88 702/200/88 700/198/88 698/196/88 696/417/88 694/418/88 692/419/88 690/188/88 688/186/88 686/184/88 684/182/88 682/180/88 680/179/88 678/178/88 676/176/88 674/174/88 672/172/88
f 727/105/206 728/61/206 730/65/206 729/101/206
f 729/101/207 730/65/207 668/67/207 667/104/207
f 667/69/87 669/70/87 671/71/87 673/72/87 675/73/87 677/74/87 679/75/87 681/76/87 683/77/87 685/78/87 687/79/87 689/80/87 691/420/87 693/421/87 695/422/87 697/84/87 699/85/87 701/86/87 703/423/87 705/424/87 707/425/87 709/90/87 711/91/87 713/92/87 715/93/87 717/94/87 719/95/87 721/96/87 723/97/87 725/98/87 727/99/87 729/100/87
f 731/165/176 732/2/176 734/3/176 733/163/176
f 733/163/177 734/3/177 736/5/177 735/161/177
f 735/161/178 736/5/178 738/7/178 737/159/178
f 737/159/179 738/7/179 740/9/179 739/157/179
f 739/157/180 740/9/180 742/11/180 741/155/180
f 741/155/181 742/11/181 744/13/181 743/153/181
f 743/153/182 744/13/182 746/15/182 745/151/182
f 745/151/183 746/15/183 748/17/183 747/149/183
f 747/149/184 748/17/184 750/19/184 749/147/184
f 749/147/185 750/19/185 752/21/185 751/145/185
f 751/145/186 752/21/186 754/23/186 753/143/186
f 753/143/187 754/23/187 756/25/187 755/141/187
f 755/141/188 756/25/188 758/27/188 757/139/188
f 757/139/189 758/27/189 760/29/189 759/137/189
f 759/137/190 760/29/190 762/31/190 761/135/190
f 761/135/191 762/31/191 764/33/191 763/133/191
f 763/133/192 764/33/192 766/35/192 765/131/192
f 765/131/193 766/35/193 768/37/193 767/129/193
f 767/129/194 768/37/194 770/39/194 769/127/194
f 769/127/195 770/39/195 772/41/195 771/125/195
f 771/125/196 772/41/196 774/43/196 773/123/196
f 773/123/197 774/43/197 776/45/197 775/121/197
f 775/121/198 776/45/198 778/47/198 777/119/198
f 777/119/199 778/47/199 780/49/199 779/117/199
f 779/117/200 780/49/200 782/51/200 781/115/200
f 781/115/201 782/51/201 784/53/201 783/113/201
f 783/113/202 784/53/202 786/55/202 785/111/202
f 785/111/203 786/55/203 788/57/203 787/109/203
f 787/109/204 788/57/204 790/59/204 789/107/204
f 789/107/205 790/59/205 792/61/205 791/105/205
f 734/169/88 732/170/88 794/228/88 792/226/88 790/224/88 788/409/88 786/410/88 784/411/88 782/216/88 780/214/88 778/212/88 776/412/88 774/413/88 772/414/88 770/415/88 768/416/88 766/200/88 764/198/88 762/196/88 760/417/88 758/418/88 756/419/88 754/188/88 752/186/88 750/184/88 748/182/88 746/180/88 744/179/88 742/178/88 740/176/88 738/174/88 736/172/88
f 791/105/206 792/61/206 794/65/206 793/101/206
f 793/101/207 794/65/207 732/67/207 731/104/207
f 731/69/87 733/70/87 735/71/87 737/72/87 739/73/87 741/74/87 743/75/87 745/76/87 747/77/87 749/78/87 751/79/87 753/80/87 755/420/87 757/421/87 759/422/87 761/84/87 763/85/87 765/86/87 767/423/87 769/424/87 771/425/87 773/90/87 775/91/87 777/92/87 779/93/87 781/94/87 783/95/87 785/96/87 787/97/87 789/98/87 791/99/87 793/100/87
usemtl M_Orange
f 442/365/82 441/330/82 450/370/82 449/330/82
f 438/333/82 437/333/82 447/344/82 448/333/82
f 444/339/82 443/339/82 445/361/82 446/339/82
f 438/333/82 439/329/82 440/351/82 437/333/82
f 442/365/82 443/339/82 444/339/82 441/330/82
f 440/351/82 439/329/82 452/352/82 451/329/82
f 516/400/123 515/379/123 517/380/123 518/374/123
f 519/398/141 520/373/141 518/374/141 517/380/141
f 521/385/142 523/386/142 514/404/142 513/402/142
f 513/399/140 514/401/140 515/379/140 516/400/140
f 520/373/143 519/398/143 522/403/143 524/372/143
