# Blender 4.2.3 LTS
# www.blender.org
mtllib SM_Computer.mtl
o SM_Computer
v 0.000000 0.198022 -0.317187
v 0.000000 0.198022 0.317187
v 0.000000 0.135148 -0.317187
v 0.000000 0.135148 0.317187
v 0.000000 0.697571 0.317187
v 0.000000 0.697571 -0.317187
v 0.000000 0.697571 -0.280925
v 0.000000 0.396044 -0.280925
v 0.097349 0.697571 -0.288761
v 0.093899 0.396044 -0.291546
v 0.097349 0.697571 0.288761
v 0.093899 0.396044 0.291546
v 0.000000 0.396044 0.280925
v 0.082180 0.670572 -0.244942
v 0.082180 0.451495 -0.244942
v 0.082180 0.670572 0.244942
v 0.082180 0.451495 0.244942
v 0.000000 0.697571 0.280925
v 0.453894 0.253283 -0.317187
v 0.453894 0.253283 0.317187
v 0.000000 0.000001 0.291764
v 0.000000 0.028054 0.317187
v 0.000000 0.028054 -0.317187
v 0.000000 0.000001 -0.291764
v 0.206526 0.028054 0.317187
v 0.204573 0.000001 0.291764
v 0.206526 0.028054 -0.317187
v 0.204573 0.000001 -0.291764
v 0.000000 0.367991 0.317187
v 0.000000 0.396044 0.291764
v 0.000000 0.367991 -0.317187
v 0.000000 0.396044 -0.291764
v 0.380239 0.135148 -0.317187
v 0.423290 0.135148 -0.291764
v 0.423290 0.135148 0.291764
v 0.380239 0.135148 0.317187
v 0.168576 0.367991 -0.317187
v 0.189300 0.386252 -0.266982
v 0.168576 0.367991 0.317187
v 0.189300 0.386252 0.266982
v 0.449319 0.258268 -0.317187
v 0.433881 0.281056 -0.266982
v 0.472522 0.225256 -0.291764
v 0.452255 0.248557 -0.317187
v 0.452255 0.248557 0.317187
v 0.472522 0.225256 0.291764
v 0.433881 0.281056 0.266982
v 0.449319 0.258268 0.317187
v 0.082180 0.867609 -0.244942
v 0.082180 0.920283 -0.197207
v 0.082180 0.920283 0.197207
v 0.082180 0.867609 0.244942
v 0.122193 0.718585 -0.290630
v 0.105329 0.697571 -0.317187
v 0.122193 0.718585 0.290630
v 0.105329 0.704508 0.317187
v 0.122193 0.711435 -0.271499
v 0.104689 0.670572 -0.244942
v 0.122193 0.711435 0.271499
v 0.104689 0.670572 0.244942
v 0.000000 1.000001 0.253589
v 0.000000 0.959705 -0.305970
v 0.000000 0.929824 -0.317187
v 0.122193 0.879747 0.271499
v 0.104689 0.867609 0.244942
v 0.122193 0.949587 0.208207
v 0.104689 0.920283 0.197207
v 0.122193 0.949587 -0.208207
v 0.104689 0.920283 -0.197207
v 0.122193 0.879747 -0.271499
v 0.104689 0.867609 -0.244942
v 0.122193 0.935190 -0.290630
v 0.104689 0.929824 -0.317187
v 0.122193 0.694981 0.260805
v 0.122193 0.710123 0.301324
v 0.122193 0.710123 -0.301324
v 0.122193 0.694981 -0.260805
v 0.122193 0.937787 0.203778
v 0.122193 0.874860 0.260805
v 0.122193 0.874860 -0.260805
v 0.122193 0.937787 -0.203778
v 0.117505 0.711435 0.271499
v 0.117505 0.718585 0.290630
v 0.117505 0.718585 -0.290630
v 0.117505 0.711435 -0.271499
v 0.117505 0.949587 0.208207
v 0.117505 0.879747 0.271499
v 0.117505 0.879747 -0.271499
v 0.117505 0.949587 -0.208207
v 0.117505 0.970698 -0.258452
v 0.117505 0.935190 -0.290630
v 0.066940 0.670572 -0.244942
v 0.066940 0.451495 -0.244942
v 0.066940 0.670572 0.244942
v 0.066940 0.451495 0.244942
v 0.066940 0.920283 -0.197207
v 0.066940 0.867609 -0.244942
v 0.066940 0.867609 0.244942
v 0.066940 0.920283 0.197207
v 0.000000 0.929824 0.317187
v 0.000000 0.959705 0.305970
v 0.000000 0.987624 0.280668
v 0.000000 1.000001 -0.253589
v 0.000000 0.987624 -0.280668
v 0.104689 0.959705 -0.305970
v 0.122193 0.970698 -0.258452
v 0.104689 0.987624 -0.280668
v 0.104689 1.000001 -0.253589
v 0.122193 0.970698 0.258452
v 0.104689 1.000001 0.253589
v 0.104689 0.987624 0.280668
v 0.122193 0.935190 0.290630
v 0.104689 0.959705 0.305970
v 0.104689 0.929824 0.317187
v 0.122193 0.982497 -0.262881
v 0.122193 0.940077 -0.301324
v 0.122193 0.940077 0.301324
v 0.122193 0.982497 0.262881
v 0.117505 0.935190 0.290630
v 0.117505 0.970698 0.258452
v 0.166535 0.396044 -0.291764
v 0.456646 0.271265 -0.291764
v 0.456646 0.271265 0.291764
v 0.166535 0.396044 0.291764
v 0.193944 0.373529 -0.257689
v 0.421451 0.275676 -0.257689
v 0.421451 0.275676 0.257689
v 0.193944 0.373529 0.257689
v 0.185407 0.377200 -0.266982
v 0.429988 0.272004 -0.266982
v 0.429988 0.272004 0.266982
v 0.185407 0.377200 0.266982
v 0.196197 0.378766 -0.257689
v 0.423703 0.280913 -0.257689
v 0.423703 0.280913 0.257689
v 0.196197 0.378766 0.257689
v 0.309950 0.329839 -0.257689
v 0.309950 0.329839 0.257689
v 0.196197 0.378766 0.000000
v 0.423703 0.280913 0.000000
v 0.366827 0.305376 -0.257689
v 0.253073 0.354303 0.257689
v 0.196197 0.378766 -0.128845
v 0.423703 0.280913 -0.128845
v 0.253073 0.354303 -0.257689
v 0.366827 0.305376 0.257689
v 0.196197 0.378766 0.128845
v 0.423703 0.280913 0.128845
v 0.309950 0.329839 0.128845
v 0.309950 0.329839 -0.128845
v 0.366827 0.305376 0.000000
v 0.253073 0.354303 0.000000
v 0.253073 0.354303 -0.128845
v 0.366827 0.305376 -0.128845
v 0.366827 0.305376 0.128845
v 0.253073 0.354303 0.128845
v 0.395265 0.293145 -0.257689
v 0.224635 0.366534 0.257689
v 0.196197 0.378766 -0.193267
v 0.423703 0.280913 -0.193267
v 0.281512 0.342071 -0.257689
v 0.338388 0.317608 0.257689
v 0.196197 0.378766 0.064422
v 0.423703 0.280913 0.064422
v 0.309950 0.329839 0.193267
v 0.309950 0.329839 -0.064422
v 0.281512 0.342071 0.000000
v 0.338388 0.317608 -0.257689
v 0.281512 0.342071 0.257689
v 0.196197 0.378766 -0.064422
v 0.423703 0.280913 -0.064422
v 0.224635 0.366534 -0.257689
v 0.395265 0.293145 0.257689
v 0.196197 0.378766 0.193267
v 0.423703 0.280913 0.193267
v 0.309950 0.329839 0.064422
v 0.309950 0.329839 -0.193267
v 0.224635 0.366534 0.000000
v 0.253073 0.354303 -0.064422
v 0.281512 0.342071 -0.128845
v 0.224635 0.366534 -0.128845
v 0.366827 0.305376 -0.064422
v 0.395265 0.293145 -0.128845
v 0.338388 0.317608 -0.128845
v 0.366827 0.305376 0.193267
v 0.366827 0.305376 0.064422
v 0.338388 0.317608 0.128845
v 0.253073 0.354303 0.193267
v 0.253073 0.354303 0.064422
v 0.281512 0.342071 0.128845
v 0.224635 0.366534 0.128845
v 0.281512 0.342071 0.064422
v 0.338388 0.317608 0.064422
v 0.395265 0.293145 0.064422
v 0.395265 0.293145 -0.193267
v 0.281512 0.342071 -0.193267
v 0.281512 0.342071 -0.064422
v 0.338388 0.317608 -0.064422
v 0.409484 0.287029 -0.257689
v 0.210416 0.372650 0.257689
v 0.196197 0.378766 -0.225478
v 0.423703 0.280913 -0.225478
v 0.295731 0.335955 -0.257689
v 0.324169 0.323724 0.257689
v 0.196197 0.378766 0.032211
v 0.423703 0.280913 0.032211
v 0.309950 0.329839 0.225478
v 0.309950 0.329839 -0.032211
v 0.409484 0.287029 0.000000
v 0.295731 0.335955 0.000000
v 0.352607 0.311492 -0.257689
v 0.267292 0.348187 0.257689
v 0.196197 0.378766 -0.096633
v 0.423703 0.280913 -0.096633
v 0.238854 0.360418 -0.257689
v 0.381046 0.299261 0.257689
v 0.196197 0.378766 0.161056
v 0.423703 0.280913 0.161056
v 0.309950 0.329839 -0.161056
v 0.352607 0.311492 0.000000
v 0.238854 0.360418 0.000000
v 0.253073 0.354303 -0.032211
v 0.253073 0.354303 -0.161056
v 0.295731 0.335955 -0.128845
v 0.238854 0.360418 -0.128845
v 0.366827 0.305376 -0.032211
v 0.366827 0.305376 -0.161056
v 0.409484 0.287029 -0.128845
v 0.352607 0.311492 -0.128845
v 0.366827 0.305376 0.225478
v 0.366827 0.305376 0.096633
v 0.409484 0.287029 0.128845
v 0.352607 0.311492 0.128845
v 0.253073 0.354303 0.225478
v 0.253073 0.354303 0.096633
v 0.295731 0.335955 0.128845
v 0.238854 0.360418 0.128845
v 0.381046 0.299261 -0.257689
v 0.238854 0.360418 0.257689
v 0.196197 0.378766 -0.161056
v 0.423703 0.280913 -0.161056
v 0.267292 0.348187 -0.257689
v 0.352607 0.311492 0.257689
v 0.196197 0.378766 0.096633
v 0.423703 0.280913 0.096633
v 0.309950 0.329839 0.161056
v 0.309950 0.329839 -0.096633
v 0.267292 0.348187 0.000000
v 0.324169 0.323724 -0.257689
v 0.295731 0.335955 0.257689
v 0.196197 0.378766 -0.032211
v 0.423703 0.280913 -0.032211
v 0.210416 0.372650 -0.257689
v 0.409484 0.287029 0.257689
v 0.196197 0.378766 0.225478
v 0.423703 0.280913 0.225478
v 0.309950 0.329839 0.032211
v 0.309950 0.329839 -0.225478
v 0.210416 0.372650 0.000000
v 0.253073 0.354303 -0.096633
v 0.253073 0.354303 -0.225478
v 0.267292 0.348187 -0.128845
v 0.210416 0.372650 -0.128845
v 0.366827 0.305376 -0.096633
v 0.366827 0.305376 -0.225478
v 0.381046 0.299261 -0.128845
v 0.324169 0.323724 -0.128845
v 0.366827 0.305376 0.161056
v 0.366827 0.305376 0.032211
v 0.381046 0.299261 0.128845
v 0.324169 0.323724 0.128845
v 0.253073 0.354303 0.161056
v 0.253073 0.354303 0.032211
v 0.267292 0.348187 0.128845
v 0.210416 0.372650 0.128845
v 0.238854 0.360418 0.064422
v 0.210416 0.372650 0.064422
v 0.281512 0.342071 0.096633
v 0.281512 0.342071 0.032211
v 0.295731 0.335955 0.064422
v 0.267292 0.348187 0.064422
v 0.281512 0.342071 0.225478
v 0.281512 0.342071 0.161056
v 0.267292 0.348187 0.193267
v 0.338388 0.317608 0.096633
v 0.338388 0.317608 0.032211
v 0.352607 0.311492 0.064422
v 0.324169 0.323724 0.064422
v 0.395265 0.293145 0.096633
v 0.395265 0.293145 0.032211
v 0.409484 0.287029 0.064422
v 0.381046 0.299261 0.064422
v 0.395265 0.293145 0.225478
v 0.409484 0.287029 0.193267
v 0.381046 0.299261 0.193267
v 0.338388 0.317608 -0.161056
v 0.338388 0.317608 -0.225478
v 0.324169 0.323724 -0.193267
v 0.395265 0.293145 -0.161056
v 0.395265 0.293145 -0.225478
v 0.409484 0.287029 -0.193267
v 0.381046 0.299261 -0.193267
v 0.409484 0.287029 -0.064422
v 0.224635 0.366534 -0.161056
v 0.224635 0.366534 -0.225478
v 0.210416 0.372650 -0.193267
v 0.281512 0.342071 -0.161056
v 0.281512 0.342071 -0.225478
v 0.267292 0.348187 -0.193267
v 0.281512 0.342071 -0.032211
v 0.281512 0.342071 -0.096633
v 0.295731 0.335955 -0.064422
v 0.267292 0.348187 -0.064422
v 0.224635 0.366534 -0.032211
v 0.238854 0.360418 -0.064422
v 0.210416 0.372650 -0.064422
v 0.338388 0.317608 -0.032211
v 0.338388 0.317608 -0.096633
v 0.352607 0.311492 -0.064422
v 0.324169 0.323724 -0.064422
v 0.338388 0.317608 0.225478
v 0.338388 0.317608 0.161056
v 0.324169 0.323724 0.193267
v 0.224635 0.366534 0.225478
v 0.224635 0.366534 0.161056
v 0.210416 0.372650 0.193267
v 0.210416 0.372650 0.161056
v 0.238854 0.360418 0.161056
v 0.238854 0.360418 0.225478
v 0.324169 0.323724 0.161056
v 0.352607 0.311492 0.161056
v 0.352607 0.311492 0.225478
v 0.324169 0.323724 -0.096633
v 0.352607 0.311492 -0.096633
v 0.352607 0.311492 -0.032211
v 0.210416 0.372650 -0.096633
v 0.238854 0.360418 -0.096633
v 0.238854 0.360418 -0.032211
v 0.267292 0.348187 -0.096633
v 0.295731 0.335955 -0.096633
v 0.295731 0.335955 -0.032211
v 0.267292 0.348187 -0.225478
v 0.295731 0.335955 -0.225478
v 0.295731 0.335955 -0.161056
v 0.210416 0.372650 -0.225478
v 0.238854 0.360418 -0.225478
v 0.238854 0.360418 -0.161056
v 0.409484 0.287029 -0.096633
v 0.409484 0.287029 -0.032211
v 0.381046 0.299261 -0.225478
v 0.409484 0.287029 -0.225478
v 0.409484 0.287029 -0.161056
v 0.324169 0.323724 -0.225478
v 0.352607 0.311492 -0.225478
v 0.352607 0.311492 -0.161056
v 0.381046 0.299261 0.161056
v 0.409484 0.287029 0.161056
v 0.409484 0.287029 0.225478
v 0.381046 0.299261 0.032211
v 0.409484 0.287029 0.032211
v 0.409484 0.287029 0.096633
v 0.324169 0.323724 0.032211
v 0.352607 0.311492 0.032211
v 0.267292 0.348187 0.161056
v 0.295731 0.335955 0.161056
v 0.295731 0.335955 0.225478
v 0.267292 0.348187 0.032211
v 0.295731 0.335955 0.032211
v 0.295731 0.335955 0.096633
v 0.210416 0.372650 0.032211
v 0.238854 0.360418 0.032211
v 0.238854 0.360418 0.096633
v 0.210416 0.372650 0.096633
v 0.267292 0.348187 0.096633
v 0.267292 0.348187 0.225478
v 0.324169 0.323724 0.096633
v 0.381046 0.299261 0.096633
v 0.381046 0.299261 0.225478
v 0.324169 0.323724 -0.161056
v 0.381046 0.299261 -0.161056
v 0.210416 0.372650 -0.161056
v 0.267292 0.348187 -0.161056
v 0.267292 0.348187 -0.032211
v 0.210416 0.372650 -0.032211
v 0.324169 0.323724 -0.032211
v 0.324169 0.323724 0.225478
v 0.210416 0.372650 0.225478
v 0.312145 0.334944 -0.028630
v 0.297926 0.341059 0.000000
v 0.312145 0.334944 0.125263
v 0.258559 0.357992 -0.028630
v 0.258559 0.357992 -0.003581
v 0.301216 0.339644 -0.125263
v 0.308855 0.336359 -0.125263
v 0.372312 0.309065 -0.032211
v 0.372312 0.309065 0.000000
v 0.365732 0.311896 0.096633
v 0.365732 0.311896 0.125263
v 0.354803 0.316596 0.125263
v 0.258559 0.357992 0.100215
v 0.258559 0.357992 0.125263
v 0.301216 0.339644 0.125263
v 0.308855 0.336359 0.164637
v 0.308855 0.336359 0.193267
v 0.308855 0.336359 -0.096633
v 0.308855 0.336359 -0.068004
v 0.269488 0.353291 -0.003581
v 0.280417 0.348590 -0.003581
v 0.308855 0.336359 -0.221897
v 0.308855 0.336359 -0.193267
v 0.215901 0.376339 0.003581
v 0.226830 0.371638 0.003581
v 0.258559 0.357992 -0.093052
v 0.258559 0.357992 -0.068004
v 0.255269 0.359407 -0.225478
v 0.215901 0.376339 -0.125263
v 0.226830 0.371638 -0.125263
v 0.372312 0.309065 -0.096633
v 0.372312 0.309065 -0.064422
v 0.369022 0.310481 -0.221897
v 0.383241 0.304365 -0.125263
v 0.397460 0.298249 -0.125263
v 0.329654 0.327413 -0.125263
v 0.337294 0.324127 -0.125263
v 0.365732 0.311896 0.164637
v 0.365732 0.311896 0.193267
v 0.383241 0.304365 0.128845
v 0.251979 0.360822 0.164637
v 0.251979 0.360822 0.193267
v 0.258559 0.357992 0.035792
v 0.258559 0.357992 0.060841
v 0.269488 0.353291 0.125263
v 0.280417 0.348590 0.125263
v 0.215901 0.376339 0.125263
v 0.226830 0.371638 0.125263
v 0.215901 0.376339 0.064422
v 0.280417 0.348590 0.100215
v 0.280417 0.348590 0.035792
v 0.280417 0.348590 0.060841
v 0.301216 0.339644 0.068004
v 0.312145 0.334944 0.068004
v 0.269488 0.353291 0.060841
v 0.283707 0.347175 0.161056
v 0.272778 0.351876 0.193267
v 0.343873 0.321297 0.096633
v 0.343873 0.321297 0.125263
v 0.354803 0.316596 0.068004
v 0.365732 0.311896 0.068004
v 0.397460 0.298249 0.100215
v 0.383241 0.304365 0.193267
v 0.340584 0.322712 -0.225478
v 0.326364 0.328828 -0.193267
v 0.400750 0.296834 -0.221897
v 0.400750 0.296834 -0.193267
v 0.226830 0.371638 -0.225478
v 0.212611 0.377754 -0.193267
v 0.286997 0.345760 -0.221897
v 0.286997 0.345760 -0.193267
v 0.280417 0.348590 -0.028630
v 0.280417 0.348590 -0.093052
v 0.280417 0.348590 -0.068004
v 0.301216 0.339644 -0.068004
v 0.269488 0.353291 -0.068004
v 0.215901 0.376339 -0.064422
v 0.340584 0.322712 -0.028630
v 0.337294 0.324127 -0.096633
v 0.337294 0.324127 -0.068004
v 0.329654 0.327413 -0.068004
v 0.340584 0.322712 0.161056
v 0.329654 0.327413 0.193267
v 0.226830 0.371638 0.161056
v 0.215901 0.376339 0.193267
v 0.308855 0.336359 0.221897
v 0.408389 0.293548 0.000000
v 0.308855 0.336359 -0.164637
v 0.351513 0.318011 0.000000
v 0.237760 0.366937 0.003581
v 0.255269 0.359407 -0.164637
v 0.237760 0.366937 -0.125263
v 0.369022 0.310481 -0.161056
v 0.408389 0.293548 -0.125263
v 0.365732 0.311896 0.221897
v 0.408389 0.293548 0.128845
v 0.251979 0.360822 0.221897
v 0.237760 0.366937 0.125263
v 0.312145 0.334944 0.028630
v 0.372312 0.309065 -0.125263
v 0.372312 0.309065 0.028630
v 0.323074 0.330243 0.125263
v 0.237760 0.366937 0.064422
v 0.283707 0.347175 0.221897
v 0.343873 0.321297 0.068004
v 0.340584 0.322712 0.028630
v 0.323074 0.330243 0.068004
v 0.397460 0.298249 0.028630
v 0.397460 0.298249 0.225478
v 0.411679 0.292133 0.193267
v 0.340584 0.322712 -0.161056
v 0.400750 0.296834 -0.164637
v 0.408389 0.293548 -0.193267
v 0.379951 0.305780 -0.193267
v 0.408389 0.293548 -0.064422
v 0.226830 0.371638 -0.164637
v 0.286997 0.345760 -0.164637
v 0.269488 0.353291 -0.193267
v 0.226830 0.371638 -0.035792
v 0.237760 0.366937 -0.064422
v 0.340584 0.322712 0.221897
v 0.226830 0.371638 0.221897
v 0.215901 0.376339 0.164637
v 0.241049 0.365522 0.161056
v 0.241049 0.365522 0.225478
v 0.329654 0.327413 0.164637
v 0.354803 0.316596 0.161056
v 0.354803 0.316596 0.225478
v 0.329654 0.327413 -0.096633
v 0.351513 0.318011 -0.028630
v 0.215901 0.376339 -0.096633
v 0.237760 0.366937 -0.096633
v 0.237760 0.366937 -0.035792
v 0.269488 0.353291 -0.093052
v 0.301216 0.339644 -0.096633
v 0.301216 0.339644 -0.028630
v 0.266198 0.354706 -0.221897
v 0.297926 0.341059 -0.225478
v 0.297926 0.341059 -0.161056
v 0.215901 0.376339 -0.221897
v 0.241049 0.365522 -0.225478
v 0.241049 0.365522 -0.164637
v 0.408389 0.293548 -0.096633
v 0.408389 0.293548 -0.032211
v 0.379951 0.305780 -0.221897
v 0.408389 0.293548 -0.221897
v 0.408389 0.293548 -0.164637
v 0.329654 0.327413 -0.221897
v 0.354803 0.316596 -0.225478
v 0.354803 0.316596 -0.161056
v 0.386531 0.302950 0.161056
v 0.408389 0.293548 0.161056
v 0.408389 0.293548 0.221897
v 0.383241 0.304365 0.028630
v 0.408389 0.293548 0.028630
v 0.408389 0.293548 0.100215
v 0.326364 0.328828 0.028630
v 0.351513 0.318011 0.028630
v 0.272778 0.351876 0.164637
v 0.297926 0.341059 0.161056
v 0.297926 0.341059 0.225478
v 0.269488 0.353291 0.032211
v 0.301216 0.339644 0.028630
v 0.301216 0.339644 0.096633
v 0.215901 0.376339 0.032211
v 0.237760 0.366937 0.032211
v 0.237760 0.366937 0.096633
v 0.215901 0.376339 0.096633
v 0.269488 0.353291 0.100215
v 0.272778 0.351876 0.221897
v 0.323074 0.330243 0.096633
v 0.386531 0.302950 0.100215
v 0.386531 0.302950 0.221897
v 0.329654 0.327413 -0.164637
v 0.379951 0.305780 -0.164637
v 0.215901 0.376339 -0.164637
v 0.266198 0.354706 -0.164637
v 0.269488 0.353291 -0.028630
v 0.215901 0.376339 -0.035792
v 0.326364 0.328828 -0.028630
v 0.329654 0.327413 0.221897
v 0.215901 0.376339 0.221897
v 0.255269 0.359407 -0.032211
v 0.255269 0.359407 0.000000
v 0.297926 0.341059 -0.128845
v 0.312145 0.334944 -0.128845
v 0.369022 0.310481 -0.032211
v 0.369022 0.310481 0.000000
v 0.369022 0.310481 0.096633
v 0.369022 0.310481 0.128845
v 0.354803 0.316596 0.128845
v 0.255269 0.359407 0.096633
v 0.255269 0.359407 0.128845
v 0.297926 0.341059 0.128845
v 0.312145 0.334944 0.128845
v 0.312145 0.334944 0.161056
v 0.312145 0.334944 0.193267
v 0.312145 0.334944 -0.096633
v 0.312145 0.334944 -0.064422
v 0.269488 0.353291 0.000000
v 0.283707 0.347175 0.000000
v 0.312145 0.334944 -0.225478
v 0.312145 0.334944 -0.193267
v 0.212611 0.377754 0.000000
v 0.226830 0.371638 0.000000
v 0.255269 0.359407 -0.096633
v 0.255269 0.359407 -0.064422
v 0.212611 0.377754 -0.128845
v 0.226830 0.371638 -0.128845
v 0.369022 0.310481 -0.096633
v 0.369022 0.310481 -0.064422
v 0.383241 0.304365 -0.128845
v 0.397460 0.298249 -0.128845
v 0.326364 0.328828 -0.128845
v 0.340584 0.322712 -0.128845
v 0.369022 0.310481 0.161056
v 0.369022 0.310481 0.193267
v 0.255269 0.359407 0.161056
v 0.255269 0.359407 0.193267
v 0.255269 0.359407 0.032211
v 0.255269 0.359407 0.064422
v 0.269488 0.353291 0.128845
v 0.283707 0.347175 0.128845
v 0.212611 0.377754 0.128845
v 0.226830 0.371638 0.128845
v 0.283707 0.347175 0.096633
v 0.283707 0.347175 0.032211
v 0.283707 0.347175 0.064422
v 0.297926 0.341059 0.064422
v 0.312145 0.334944 0.064422
v 0.269488 0.353291 0.064422
v 0.340584 0.322712 0.096633
v 0.340584 0.322712 0.128845
v 0.354803 0.316596 0.064422
v 0.369022 0.310481 0.064422
v 0.397460 0.298249 -0.225478
v 0.397460 0.298249 -0.193267
v 0.283707 0.347175 -0.225478
v 0.283707 0.347175 -0.193267
v 0.283707 0.347175 -0.032211
v 0.283707 0.347175 -0.096633
v 0.283707 0.347175 -0.064422
v 0.297926 0.341059 -0.064422
v 0.269488 0.353291 -0.064422
v 0.340584 0.322712 -0.096633
v 0.340584 0.322712 -0.064422
v 0.326364 0.328828 -0.064422
v 0.312145 0.334944 0.225478
v 0.312145 0.334944 -0.161056
v 0.241049 0.365522 0.000000
v 0.241049 0.365522 -0.128845
v 0.411679 0.292133 -0.128845
v 0.369022 0.310481 0.225478
v 0.255269 0.359407 0.225478
v 0.241049 0.365522 0.128845
v 0.369022 0.310481 -0.128845
v 0.369022 0.310481 0.032211
v 0.326364 0.328828 0.128845
v 0.340584 0.322712 0.064422
v 0.326364 0.328828 0.064422
v 0.397460 0.298249 -0.161056
v 0.283707 0.347175 -0.161056
v 0.212611 0.377754 0.161056
v 0.212611 0.377754 0.193267
v 0.226830 0.371638 0.164637
v 0.241049 0.365522 0.164637
v 0.241049 0.365522 0.221897
v 0.226830 0.371638 0.225478
v 0.326364 0.328828 0.161056
v 0.326364 0.328828 0.193267
v 0.340584 0.322712 0.164637
v 0.354803 0.316596 0.164637
v 0.354803 0.316596 0.221897
v 0.340584 0.322712 0.225478
v 0.326364 0.328828 -0.096633
v 0.354803 0.316596 -0.032211
v 0.354803 0.316596 0.000000
v 0.340584 0.322712 -0.032211
v 0.212611 0.377754 -0.096633
v 0.212611 0.377754 -0.064422
v 0.241049 0.365522 -0.096633
v 0.241049 0.365522 -0.064422
v 0.241049 0.365522 -0.032211
v 0.226830 0.371638 -0.032211
v 0.269488 0.353291 -0.096633
v 0.297926 0.341059 -0.096633
v 0.297926 0.341059 -0.032211
v 0.301216 0.339644 0.000000
v 0.312145 0.334944 -0.032211
v 0.269488 0.353291 -0.225478
v 0.266198 0.354706 -0.193267
v 0.255269 0.359407 -0.221897
v 0.297926 0.341059 -0.221897
v 0.297926 0.341059 -0.164637
v 0.212611 0.377754 -0.225478
v 0.215901 0.376339 -0.193267
v 0.226830 0.371638 -0.221897
v 0.241049 0.365522 -0.221897
v 0.241049 0.365522 -0.161056
v 0.255269 0.359407 -0.161056
v 0.226830 0.371638 -0.161056
v 0.411679 0.292133 -0.096633
v 0.411679 0.292133 -0.064422
v 0.411679 0.292133 -0.032211
v 0.411679 0.292133 0.000000
v 0.383241 0.304365 -0.225478
v 0.383241 0.304365 -0.193267
v 0.369022 0.310481 -0.225478
v 0.411679 0.292133 -0.225478
v 0.411679 0.292133 -0.193267
v 0.411679 0.292133 -0.161056
v 0.326364 0.328828 -0.225478
v 0.329654 0.327413 -0.193267
v 0.340584 0.322712 -0.221897
v 0.354803 0.316596 -0.221897
v 0.354803 0.316596 -0.164637
v 0.369022 0.310481 -0.164637
v 0.340584 0.322712 -0.164637
v 0.383241 0.304365 0.161056
v 0.386531 0.302950 0.193267
v 0.386531 0.302950 0.128845
v 0.411679 0.292133 0.161056
v 0.408389 0.293548 0.193267
v 0.411679 0.292133 0.128845
v 0.411679 0.292133 0.225478
v 0.397460 0.298249 0.221897
v 0.383241 0.304365 0.032211
v 0.397460 0.298249 0.032211
v 0.411679 0.292133 0.032211
v 0.411679 0.292133 0.096633
v 0.397460 0.298249 0.096633
v 0.326364 0.328828 0.032211
v 0.340584 0.322712 0.032211
v 0.312145 0.334944 0.032211
v 0.354803 0.316596 0.032211
v 0.269488 0.353291 0.161056
v 0.269488 0.353291 0.193267
v 0.283707 0.347175 0.164637
v 0.297926 0.341059 0.164637
v 0.297926 0.341059 0.221897
v 0.283707 0.347175 0.225478
v 0.269488 0.353291 0.035792
v 0.297926 0.341059 0.032211
v 0.297926 0.341059 0.096633
v 0.212611 0.377754 0.032211
v 0.212611 0.377754 0.064422
v 0.241049 0.365522 0.032211
v 0.241049 0.365522 0.064422
v 0.241049 0.365522 0.096633
v 0.212611 0.377754 0.096633
v 0.269488 0.353291 0.096633
v 0.269488 0.353291 0.225478
v 0.326364 0.328828 0.096633
v 0.383241 0.304365 0.096633
v 0.383241 0.304365 0.225478
v 0.326364 0.328828 -0.161056
v 0.383241 0.304365 -0.161056
v 0.212611 0.377754 -0.161056
v 0.269488 0.353291 -0.161056
v 0.269488 0.353291 -0.032211
v 0.212611 0.377754 -0.032211
v 0.326364 0.328828 -0.032211
v 0.326364 0.328828 0.225478
v 0.212611 0.377754 0.225478
v 0.311781 0.334096 -0.028630
v 0.311781 0.334096 0.000000
v 0.300852 0.338797 0.000000
v 0.311781 0.334096 0.096633
v 0.311781 0.334096 0.125263
v 0.382877 0.303518 0.000000
v 0.397096 0.297402 0.000000
v 0.326000 0.327981 0.000000
v 0.340219 0.321865 0.000000
v 0.254904 0.358560 -0.221897
v 0.254904 0.358560 -0.193267
v 0.368657 0.309633 -0.221897
v 0.368657 0.309633 -0.193267
v 0.386167 0.302103 0.128845
v 0.397096 0.297402 0.128845
v 0.226466 0.370791 0.096633
v 0.226466 0.370791 0.125263
v 0.226466 0.370791 0.032211
v 0.226466 0.370791 0.064422
v 0.215537 0.375492 0.064422
v 0.283343 0.346328 0.164637
v 0.283343 0.346328 0.193267
v 0.297562 0.340212 0.193267
v 0.308491 0.335511 0.193267
v 0.272413 0.351029 0.193267
v 0.397096 0.297402 0.100215
v 0.397096 0.297402 0.161056
v 0.397096 0.297402 0.193267
v 0.386167 0.302103 0.193267
v 0.340219 0.321865 -0.221897
v 0.340219 0.321865 -0.193267
v 0.354438 0.315749 -0.193267
v 0.329290 0.326566 -0.193267
v 0.397096 0.297402 -0.032211
v 0.397096 0.297402 -0.096633
v 0.397096 0.297402 -0.064422
v 0.382877 0.303518 -0.064422
v 0.226466 0.370791 -0.221897
v 0.226466 0.370791 -0.193267
v 0.240685 0.364675 -0.193267
v 0.215537 0.375492 -0.193267
v 0.297562 0.340212 -0.193267
v 0.308491 0.335511 -0.193267
v 0.226466 0.370791 -0.096633
v 0.226466 0.370791 -0.064422
v 0.215537 0.375492 -0.064422
v 0.340219 0.321865 -0.028630
v 0.340219 0.321865 0.164637
v 0.340219 0.321865 0.193267
v 0.354438 0.315749 0.193267
v 0.365368 0.311048 0.193267
v 0.329290 0.326566 0.193267
v 0.226466 0.370791 0.164637
v 0.226466 0.370791 0.193267
v 0.240685 0.364675 0.193267
v 0.251614 0.359975 0.193267
v 0.215537 0.375492 0.193267
v 0.408025 0.292701 0.000000
v 0.311781 0.334096 0.068004
v 0.351148 0.317164 0.000000
v 0.254904 0.358560 -0.164637
v 0.368657 0.309633 -0.164637
v 0.408025 0.292701 0.128845
v 0.371947 0.308218 0.000000
v 0.311781 0.334096 0.028630
v 0.226466 0.370791 0.003581
v 0.237395 0.366090 0.064422
v 0.283343 0.346328 0.221897
v 0.340219 0.321865 0.028630
v 0.397096 0.297402 0.028630
v 0.397096 0.297402 0.221897
v 0.408025 0.292701 0.193267
v 0.340219 0.321865 -0.164637
v 0.400386 0.295987 -0.193267
v 0.408025 0.292701 -0.193267
v 0.379587 0.304933 -0.193267
v 0.397096 0.297402 -0.125263
v 0.408025 0.292701 -0.064422
v 0.371947 0.308218 -0.064422
v 0.226466 0.370791 -0.164637
v 0.286632 0.344913 -0.193267
v 0.265833 0.353859 -0.193267
v 0.226466 0.370791 -0.035792
v 0.226466 0.370791 -0.125263
v 0.237395 0.366090 -0.064422
v 0.340219 0.321865 0.221897
v 0.226466 0.370791 0.221897
v 0.240685 0.364675 0.164637
v 0.240685 0.364675 0.221897
v 0.354438 0.315749 0.164637
v 0.354438 0.315749 0.221897
v 0.329290 0.326566 -0.096633
v 0.336929 0.323280 -0.096633
v 0.215537 0.375492 -0.096633
v 0.237395 0.366090 -0.096633
v 0.269123 0.352444 -0.093052
v 0.269123 0.352444 -0.068004
v 0.300852 0.338797 -0.096633
v 0.308491 0.335511 -0.096633
v 0.297562 0.340212 -0.221897
v 0.297562 0.340212 -0.164637
v 0.240685 0.364675 -0.221897
v 0.240685 0.364675 -0.164637
v 0.382877 0.303518 -0.096633
v 0.382877 0.303518 -0.125263
v 0.371947 0.308218 -0.096633
v 0.408025 0.292701 -0.096633
v 0.408025 0.292701 -0.032211
v 0.354438 0.315749 -0.221897
v 0.354438 0.315749 -0.164637
v 0.386167 0.302103 0.161056
v 0.408025 0.292701 0.161056
v 0.382877 0.303518 0.028630
v 0.326000 0.327981 0.028630
v 0.354438 0.315749 0.096633
v 0.354438 0.315749 0.125263
v 0.354438 0.315749 0.068004
v 0.365368 0.311048 0.096633
v 0.343509 0.320450 0.096633
v 0.297562 0.340212 0.164637
v 0.297562 0.340212 0.221897
v 0.269123 0.352444 0.035792
v 0.269123 0.352444 0.060841
v 0.300852 0.338797 0.096633
v 0.215537 0.375492 0.032211
v 0.237395 0.366090 0.032211
v 0.237395 0.366090 0.096633
v 0.215537 0.375492 0.096633
v 0.269123 0.352444 0.100215
v 0.269123 0.352444 0.125263
v 0.322710 0.329396 0.096633
v 0.382877 0.303518 -0.032211
v 0.371947 0.308218 -0.032211
v 0.269123 0.352444 -0.028630
v 0.269123 0.352444 -0.003581
v 0.326000 0.327981 -0.028630
v 0.258194 0.357145 -0.028630
v 0.258194 0.357145 -0.003581
v 0.300852 0.338797 -0.125263
v 0.308491 0.335511 -0.125263
v 0.365368 0.311048 0.125263
v 0.258194 0.357145 0.100215
v 0.258194 0.357145 0.125263
v 0.300852 0.338797 0.125263
v 0.308491 0.335511 0.164637
v 0.308491 0.335511 -0.068004
v 0.280053 0.347743 -0.003581
v 0.308491 0.335511 -0.221897
v 0.215537 0.375492 0.003581
v 0.258194 0.357145 -0.093052
v 0.258194 0.357145 -0.068004
v 0.215537 0.375492 -0.125263
v 0.329290 0.326566 -0.125263
v 0.336929 0.323280 -0.125263
v 0.365368 0.311048 0.164637
v 0.251614 0.359975 0.164637
v 0.258194 0.357145 0.035792
v 0.258194 0.357145 0.060841
v 0.280053 0.347743 0.125263
v 0.215537 0.375492 0.125263
v 0.280053 0.347743 0.100215
v 0.280053 0.347743 0.035792
v 0.280053 0.347743 0.060841
v 0.300852 0.338797 0.068004
v 0.343509 0.320450 0.125263
v 0.365368 0.311048 0.068004
v 0.400386 0.295987 -0.221897
v 0.286632 0.344913 -0.221897
v 0.280053 0.347743 -0.028630
v 0.280053 0.347743 -0.093052
v 0.280053 0.347743 -0.068004
v 0.300852 0.338797 -0.068004
v 0.336929 0.323280 -0.068004
v 0.329290 0.326566 -0.068004
v 0.308491 0.335511 0.221897
v 0.308491 0.335511 -0.164637
v 0.237395 0.366090 0.003581
v 0.237395 0.366090 -0.125263
v 0.408025 0.292701 -0.125263
v 0.365368 0.311048 0.221897
v 0.251614 0.359975 0.221897
v 0.237395 0.366090 0.125263
v 0.371947 0.308218 -0.125263
v 0.371947 0.308218 0.028630
v 0.322710 0.329396 0.125263
v 0.343509 0.320450 0.068004
v 0.322710 0.329396 0.068004
v 0.400386 0.295987 -0.164637
v 0.286632 0.344913 -0.164637
v 0.215537 0.375492 0.164637
v 0.329290 0.326566 0.164637
v 0.351148 0.317164 -0.028630
v 0.237395 0.366090 -0.035792
v 0.300852 0.338797 -0.028630
v 0.265833 0.353859 -0.221897
v 0.215537 0.375492 -0.221897
v 0.379587 0.304933 -0.221897
v 0.408025 0.292701 -0.221897
v 0.408025 0.292701 -0.164637
v 0.329290 0.326566 -0.221897
v 0.408025 0.292701 0.221897
v 0.408025 0.292701 0.028630
v 0.408025 0.292701 0.100215
v 0.351148 0.317164 0.028630
v 0.272413 0.351029 0.164637
v 0.300852 0.338797 0.028630
v 0.272413 0.351029 0.221897
v 0.386167 0.302103 0.100215
v 0.386167 0.302103 0.221897
v 0.329290 0.326566 -0.164637
v 0.379587 0.304933 -0.164637
v 0.215537 0.375492 -0.164637
v 0.265833 0.353859 -0.164637
v 0.215537 0.375492 -0.035792
v 0.329290 0.326566 0.221897
v 0.215537 0.375492 0.221897
v 0.066940 0.561034 -0.244942
v 0.066940 0.451495 0.000000
v 0.066940 0.670572 0.000000
v 0.066940 0.893946 -0.221075
v 0.066940 0.893946 0.221075
v 0.066940 0.920283 0.000000
v 0.066940 0.769091 0.244942
v 0.066940 0.769091 -0.244942
v 0.066940 0.561034 0.000000
v 0.066940 0.670572 0.122471
v 0.066940 0.880778 -0.233008
v 0.066940 0.907115 0.209141
v 0.066940 0.920283 -0.098604
v 0.066940 0.818350 0.244942
v 0.066940 0.719831 -0.244942
v 0.066940 0.670572 -0.122471
v 0.066940 0.907115 -0.209141
v 0.066940 0.880778 0.233008
v 0.066940 0.920283 0.098604
v 0.066940 0.719831 0.244942
v 0.066940 0.818350 -0.244942
v 0.066940 0.690927 -0.224587
v 0.066940 0.719831 -0.224587
v 0.066940 0.769091 -0.224587
v 0.066940 0.818350 -0.224587
v 0.066940 0.859758 -0.224587
v 0.066940 0.867109 -0.217926
v 0.066940 0.880277 -0.205992
v 0.066940 0.893446 -0.194058
v 0.066940 0.899928 -0.188184
v 0.066940 0.899928 -0.098604
v 0.066940 0.899928 0.000000
v 0.066940 0.899928 0.098604
v 0.066940 0.899928 0.188184
v 0.066940 0.893446 0.194058
v 0.066940 0.880277 0.205992
v 0.066940 0.867109 0.217926
v 0.066940 0.859758 0.224587
v 0.066940 0.818350 0.224587
v 0.066940 0.769091 0.224587
v 0.066940 0.719831 0.224587
v 0.066940 0.690927 0.224587
v 0.066940 0.690927 0.122471
v 0.066940 0.690927 0.000000
v 0.066940 0.690927 -0.122471
v 0.066940 0.471850 -0.224587
v 0.066940 0.540679 -0.224587
v 0.066940 0.540679 -0.020355
v 0.066940 0.471850 -0.020355
v 0.066940 0.581389 -0.224587
v 0.066940 0.650217 -0.224587
v 0.066940 0.650217 -0.122471
v 0.066940 0.650217 -0.020355
v 0.066940 0.581389 -0.020355
v 0.066940 0.561034 0.020355
v 0.066940 0.650217 0.020355
v 0.066940 0.650217 0.122471
v 0.066940 0.650217 0.224587
v 0.066940 0.471850 0.224587
v 0.066940 0.471850 0.020355
v 0.061165 0.719831 -0.224587
v 0.061165 0.690927 -0.224587
v 0.061165 0.690927 -0.122471
v 0.061165 0.769091 -0.224587
v 0.061165 0.818350 -0.224587
v 0.061165 0.859758 -0.224587
v 0.061165 0.867109 -0.217926
v 0.061165 0.880277 -0.205992
v 0.061165 0.893446 -0.194058
v 0.061165 0.899928 -0.188184
v 0.061165 0.899928 -0.098604
v 0.061165 0.899928 -0.000000
v 0.061165 0.899928 0.098604
v 0.061165 0.899928 0.188184
v 0.061165 0.893446 0.194058
v 0.061165 0.880277 0.205992
v 0.061165 0.867109 0.217926
v 0.061165 0.859758 0.224587
v 0.061165 0.818350 0.224587
v 0.061165 0.769091 0.224587
v 0.061165 0.719831 0.224587
v 0.061165 0.690927 0.224587
v 0.061165 0.690927 0.122471
v 0.061165 0.690927 -0.000000
v 0.061165 0.540679 -0.224587
v 0.061165 0.471850 -0.224587
v 0.061165 0.471850 -0.020355
v 0.061165 0.540679 -0.020355
v 0.061165 0.650217 -0.224587
v 0.061165 0.581389 -0.224587
v 0.061165 0.581389 -0.020355
v 0.061165 0.650217 -0.122471
v 0.061165 0.650217 -0.020355
v 0.061165 0.650217 0.020355
v 0.061165 0.561034 0.020355
v 0.061165 0.471850 0.020355
v 0.061165 0.650217 0.122471
v 0.061165 0.650217 0.224587
v 0.061165 0.471850 0.224587
v 0.459279 0.263636 -0.283693
v 0.459279 0.263636 0.283693
v 0.469890 0.232885 0.283693
v 0.469890 0.232885 -0.283693
v 0.457252 0.262937 0.283693
v 0.457252 0.262937 -0.283693
v 0.467863 0.232186 -0.283693
v 0.467863 0.232186 0.283693
vn -0.0000 -0.6715 0.7410
vn -0.0000 -0.0000 -1.0000
vn -0.0000 -0.0000 1.0000
vn -0.0000 -1.0000 -0.0000
vn -0.0000 1.0000 -0.0000
vn -1.0000 -0.0000 -0.0000
vn 0.5257 -0.8507 -0.0000
vn 0.0301 -0.9942 0.1029
vn 0.9578 -0.0079 0.2873
vn 0.9784 0.2068 -0.0000
vn 0.9578 -0.0079 -0.2873
vn -0.0961 0.0051 0.9954
vn -0.0000 -0.6715 -0.7410
vn -0.0961 0.0051 -0.9954
vn 0.9186 -0.3951 -0.0000
vn -0.4016 -0.8082 -0.4307
vn 0.8776 -0.4795 -0.0000
vn 0.3916 -0.6344 -0.6665
vn 0.3916 -0.6344 0.6665
vn -0.0000 0.6715 0.7410
vn -0.0000 0.6715 -0.7410
vn 0.8642 0.2918 -0.4099
vn 0.8642 0.2918 0.4099
vn 0.2987 0.7271 -0.6181
vn 0.5227 -0.3114 -0.7936
vn 0.5227 -0.3114 0.7936
vn 0.2987 0.7271 0.6181
vn -0.2527 -0.8421 0.4765
vn 0.6259 -0.7164 0.3083
vn 0.7104 -0.6606 -0.2428
vn 0.6886 -0.4869 -0.5373
vn 0.6886 -0.4869 0.5373
vn 0.6781 0.0010 0.7350
vn 0.6780 0.0009 -0.7351
vn 0.7071 -0.7071 -0.0000
vn 0.6715 -0.0000 -0.7410
vn 0.6715 -0.0000 0.7410
vn 1.0000 -0.0000 -0.0000
vn -0.0000 0.9367 -0.3501
vn -0.0000 0.9367 0.3501
vn 0.5406 0.2957 -0.7876
vn 0.5673 0.7490 -0.3423
vn 0.5673 0.7490 0.3423
vn 0.5406 0.2957 0.7876
vn 0.6886 0.4869 -0.5373
vn 0.6886 0.4869 0.5373
vn -0.0000 0.9095 -0.4157
vn -0.0000 0.3514 -0.9362
vn -0.0000 0.9095 0.4157
vn -0.0000 0.3514 0.9362
vn 0.7071 0.7071 -0.0000
vn 0.3951 0.9186 -0.0000
vn -0.9186 0.3951 -0.0000
vn 0.9453 0.3262 -0.0000
vn 0.3262 -0.9453 -0.0000
vn -0.3262 0.9453 -0.0000
vt 0.591902 0.528471
vt 0.605070 0.547283
vt 0.605070 0.547283
vt 0.575074 0.250000
vt 0.609255 0.250000
vt 0.609256 0.482496
vt 0.575074 0.483136
vt 0.380138 0.774731
vt 0.399753 0.771238
vt 0.399753 1.000000
vt 0.380138 1.000000
vt 0.575074 0.500000
vt 0.474011 0.739981
vt 0.474011 0.510019
vt 0.474011 0.500000
vt 0.474011 0.750000
vt 0.474011 1.000000
vt 0.474011 0.721680
vt 0.399753 0.250000
vt 0.424505 0.250000
vt 0.424505 0.484319
vt 0.426353 0.480165
vt 0.399753 0.478762
vt 0.424505 0.765681
vt 0.422443 0.771533
vt 0.465562 0.779434
vt 0.466997 1.000000
vt 0.424505 1.000000
vt 0.399753 0.000000
vt 0.424505 0.000000
vt 0.422416 0.477875
vt 0.424375 0.480039
vt 0.426353 0.769835
vt 0.380138 0.250000
vt 0.380138 0.475269
vt 0.466997 0.000000
vt 0.474011 0.010019
vt 0.474011 0.239981
vt 0.466997 0.250000
vt 0.375000 0.510019
vt 0.399753 0.510019
vt 0.399753 0.739981
vt 0.375000 0.739981
vt 0.125000 0.510019
vt 0.375000 0.739981
vt 0.125000 0.739981
vt 0.575074 0.766864
vt 0.575074 1.000000
vt 0.575074 0.750000
vt 0.474011 0.250000
vt 0.591902 0.721529
vt 0.568324 0.721529
vt 0.568324 0.528471
vt 0.591902 0.528471
vt 0.474011 0.528320
vt 0.493940 0.528471
vt 0.493940 0.721529
vt 0.605070 0.702717
vt 0.595194 0.716826
vt 0.598486 0.712123
vt 0.601778 0.707420
vt 0.470525 0.519785
vt 0.470525 0.730215
vt 0.574219 0.721529
vt 0.580113 0.721529
vt 0.586008 0.721529
vt 0.576095 0.766864
vt 0.609256 0.767504
vt 0.609255 1.000000
vt 0.465562 0.470566
vt 0.422443 0.478467
vt 0.424505 0.484319
vt 0.576683 0.493213
vt 0.427678 0.736801
vt 0.419972 0.736801
vt 0.426264 0.769961
vt 0.424754 0.772125
vt 0.418060 0.510019
vt 0.418060 0.739981
vt 0.399753 0.739981
vt 0.125000 0.500000
vt 0.375000 0.500000
vt 0.375000 0.750000
vt 0.125000 0.750000
vt 0.429590 0.500000
vt 0.424982 0.500000
vt 0.418060 0.750000
vt 0.423901 0.750000
vt 0.474011 0.510019
vt 0.429590 0.510019
vt 0.429590 0.739981
vt 0.474011 0.739981
vt 0.375000 0.010019
vt 0.380138 0.000000
vt 0.375000 0.239981
vt 0.591902 0.721529
vt 0.575074 0.000000
vt 0.609255 0.000000
vt 0.614926 0.004420
vt 0.621906 0.014392
vt 0.625000 0.025063
vt 0.625000 0.224937
vt 0.621906 0.235608
vt 0.614926 0.245580
vt 0.609256 0.250000
vt 0.577066 0.758404
vt 0.572240 0.727884
vt 0.576211 0.743852
vt 0.576256 0.506292
vt 0.572281 0.522264
vt 0.608514 0.707654
vt 0.596537 0.728601
vt 0.597019 0.522352
vt 0.609891 0.545074
vt 0.610275 0.745022
vt 0.611134 0.506298
vt 0.575047 0.732187
vt 0.576971 0.739732
vt 0.577069 0.510524
vt 0.575139 0.518067
vt 0.610787 0.710747
vt 0.599073 0.733256
vt 0.599849 0.518157
vt 0.612981 0.543509
vt 0.609274 0.741470
vt 0.610565 0.510558
vt 0.618303 0.523358
vt 0.614173 0.732966
vt 0.500852 0.633022
vt 0.531132 0.633022
vt 0.586008 0.528471
vt 0.580113 0.528471
vt 0.574219 0.528471
vt 0.605070 0.663859
vt 0.605070 0.625000
vt 0.605070 0.586141
vt 0.493940 0.625000
vt 0.531132 0.528471
vt 0.601778 0.542580
vt 0.598486 0.537877
vt 0.595194 0.533174
vt 0.621906 0.250000
vt 0.621906 0.482496
vt 0.614926 0.482496
vt 0.614926 0.250000
vt 0.642504 0.525063
vt 0.875000 0.525063
vt 0.875000 0.724937
vt 0.642504 0.724937
vt 0.621906 0.767504
vt 0.621906 1.000000
vt 0.614926 1.000000
vt 0.614926 0.767504
vt 0.609255 0.500000
vt 0.614926 0.504420
vt 0.625000 0.521401
vt 0.642504 0.518812
vt 0.625000 0.728599
vt 0.642504 0.731188
vt 0.613379 0.747790
vt 0.609255 0.750000
vt 0.621906 0.514392
vt 0.620930 0.521537
vt 0.616869 0.742804
vt 0.615904 0.735914
vt 0.875000 0.518812
vt 0.875000 0.731188
vt 0.433076 0.519785
vt 0.433076 0.730215
vt 0.469218 0.523447
vt 0.469218 0.726553
vt 0.469218 0.713858
vt 0.469218 0.701164
vt 0.469218 0.688470
vt 0.469218 0.675776
vt 0.469218 0.663082
vt 0.469218 0.650388
vt 0.469218 0.637694
vt 0.469218 0.625000
vt 0.469218 0.612306
vt 0.469218 0.599612
vt 0.469218 0.586918
vt 0.469218 0.574224
vt 0.469218 0.561530
vt 0.469218 0.548836
vt 0.469218 0.536142
vt 0.434383 0.523447
vt 0.434383 0.726552
vt 0.467041 0.713858
vt 0.467041 0.726552
vt 0.467041 0.523447
vt 0.464863 0.523447
vt 0.462686 0.523447
vt 0.460509 0.523447
vt 0.458332 0.523447
vt 0.456155 0.523447
vt 0.453978 0.523447
vt 0.451800 0.523447
vt 0.449623 0.523447
vt 0.447446 0.523447
vt 0.445269 0.523447
vt 0.443092 0.523447
vt 0.440915 0.523447
vt 0.438737 0.523447
vt 0.436560 0.523447
vt 0.434383 0.536142
vt 0.434383 0.548836
vt 0.434383 0.561530
vt 0.434383 0.574224
vt 0.434383 0.586918
vt 0.434383 0.599612
vt 0.434383 0.612306
vt 0.434383 0.625000
vt 0.434383 0.637694
vt 0.434383 0.650388
vt 0.434383 0.663082
vt 0.434383 0.675776
vt 0.434383 0.688470
vt 0.434383 0.701164
vt 0.434383 0.713858
vt 0.436560 0.726552
vt 0.438737 0.726552
vt 0.440915 0.726552
vt 0.443092 0.726552
vt 0.445269 0.726552
vt 0.447446 0.726552
vt 0.449623 0.726552
vt 0.451800 0.726552
vt 0.453978 0.726552
vt 0.456155 0.726552
vt 0.458332 0.726552
vt 0.460509 0.726552
vt 0.462686 0.726552
vt 0.464863 0.726552
vt 0.449623 0.713858
vt 0.451800 0.713858
vt 0.438737 0.561530
vt 0.436560 0.561530
vt 0.467041 0.612306
vt 0.467041 0.625000
vt 0.445269 0.675776
vt 0.443092 0.675776
vt 0.458332 0.561530
vt 0.460509 0.561530
vt 0.460509 0.574224
vt 0.458332 0.574224
vt 0.467041 0.561530
vt 0.467041 0.574224
vt 0.456155 0.688470
vt 0.458332 0.688470
vt 0.440915 0.561530
vt 0.443092 0.561530
vt 0.443092 0.574224
vt 0.440915 0.574224
vt 0.449623 0.561530
vt 0.451800 0.561530
vt 0.451800 0.574224
vt 0.449623 0.574224
vt 0.440915 0.713858
vt 0.443092 0.713858
vt 0.440915 0.663082
vt 0.443092 0.663082
vt 0.440915 0.675776
vt 0.451800 0.650388
vt 0.453978 0.650388
vt 0.458332 0.713858
vt 0.460509 0.713858
vt 0.456155 0.650388
vt 0.456155 0.637694
vt 0.467041 0.663082
vt 0.467041 0.675776
vt 0.449623 0.650388
vt 0.467041 0.637694
vt 0.467041 0.650388
vt 0.453978 0.663082
vt 0.456155 0.663082
vt 0.456155 0.675776
vt 0.453978 0.675776
vt 0.453978 0.637694
vt 0.436560 0.548836
vt 0.453978 0.713858
vt 0.456155 0.713858
vt 0.464863 0.688470
vt 0.467041 0.688470
vt 0.460509 0.688470
vt 0.460509 0.701164
vt 0.458332 0.701164
vt 0.445269 0.637694
vt 0.447446 0.637694
vt 0.447446 0.650388
vt 0.445269 0.650388
vt 0.449623 0.637694
vt 0.451800 0.637694
vt 0.436560 0.637694
vt 0.438737 0.637694
vt 0.438737 0.650388
vt 0.436560 0.650388
vt 0.440915 0.637694
vt 0.443092 0.637694
vt 0.443092 0.650388
vt 0.440915 0.650388
vt 0.436560 0.713858
vt 0.438737 0.713858
vt 0.453978 0.574224
vt 0.453978 0.586918
vt 0.440915 0.688470
vt 0.443092 0.688470
vt 0.443092 0.701164
vt 0.440915 0.701164
vt 0.445269 0.561530
vt 0.447446 0.561530
vt 0.447446 0.574224
vt 0.445269 0.574224
vt 0.449623 0.536142
vt 0.451800 0.536142
vt 0.451800 0.548836
vt 0.449623 0.548836
vt 0.438737 0.574224
vt 0.436560 0.574224
vt 0.449623 0.599612
vt 0.447446 0.599612
vt 0.453978 0.599612
vt 0.436560 0.536142
vt 0.438737 0.536142
vt 0.467041 0.701164
vt 0.462686 0.561530
vt 0.464863 0.561530
vt 0.464863 0.574224
vt 0.462686 0.574224
vt 0.458332 0.586918
vt 0.460509 0.586918
vt 0.467041 0.536142
vt 0.467041 0.548836
vt 0.453978 0.561530
vt 0.456155 0.561530
vt 0.456155 0.574224
vt 0.447446 0.663082
vt 0.449623 0.663082
vt 0.453978 0.612306
vt 0.456155 0.612306
vt 0.456155 0.625000
vt 0.453978 0.625000
vt 0.456155 0.586918
vt 0.456155 0.599612
vt 0.447446 0.586918
vt 0.462686 0.612306
vt 0.464863 0.612306
vt 0.464863 0.625000
vt 0.462686 0.625000
vt 0.467041 0.586918
vt 0.467041 0.599612
vt 0.449623 0.675776
vt 0.445269 0.586918
vt 0.445269 0.599612
vt 0.449623 0.586918
vt 0.451800 0.586918
vt 0.451800 0.599612
vt 0.445269 0.713858
vt 0.447446 0.713858
vt 0.464863 0.675776
vt 0.462686 0.675776
vt 0.449623 0.688470
vt 0.451800 0.688470
vt 0.451800 0.701164
vt 0.449623 0.701164
vt 0.462686 0.713858
vt 0.464863 0.713858
vt 0.443092 0.612306
vt 0.443092 0.625000
vt 0.460509 0.675776
vt 0.462686 0.688470
vt 0.447446 0.675776
vt 0.447446 0.688470
vt 0.451800 0.675776
vt 0.440915 0.536142
vt 0.443092 0.536142
vt 0.445269 0.688470
vt 0.458332 0.675776
vt 0.443092 0.586918
vt 0.443092 0.599612
vt 0.445269 0.612306
vt 0.445269 0.625000
vt 0.447446 0.612306
vt 0.462686 0.586918
vt 0.462686 0.599612
vt 0.460509 0.599612
vt 0.460509 0.612306
vt 0.460509 0.625000
vt 0.460509 0.637694
vt 0.460509 0.650388
vt 0.458332 0.650388
vt 0.451800 0.612306
vt 0.456155 0.536142
vt 0.458332 0.536142
vt 0.458332 0.548836
vt 0.456155 0.548836
vt 0.460509 0.536142
vt 0.458332 0.663082
vt 0.460509 0.663082
vt 0.453978 0.536142
vt 0.458332 0.599612
vt 0.440915 0.548836
vt 0.464863 0.536142
vt 0.462686 0.536142
vt 0.436560 0.586918
vt 0.436560 0.599612
vt 0.436560 0.612306
vt 0.436560 0.625000
vt 0.438737 0.548836
vt 0.447446 0.536142
vt 0.445269 0.536142
vt 0.449623 0.612306
vt 0.436560 0.688470
vt 0.436560 0.701164
vt 0.436560 0.675776
vt 0.436560 0.663082
vt 0.438737 0.663082
vt 0.453978 0.688470
vt 0.458332 0.625000
vt 0.458332 0.637694
vt 0.462686 0.637694
vt 0.462686 0.650388
vt 0.462686 0.663082
vt 0.458332 0.612306
vt 0.437064 0.688470
vt 0.437064 0.675776
vt 0.461013 0.701164
vt 0.461013 0.689882
vt 0.456658 0.613717
vt 0.458332 0.613717
vt 0.447446 0.689882
vt 0.449120 0.689882
vt 0.437064 0.701164
vt 0.443595 0.701164
vt 0.443595 0.689882
vt 0.460509 0.560118
vt 0.458836 0.560118
vt 0.449120 0.701164
vt 0.440411 0.675776
vt 0.440411 0.688470
vt 0.447950 0.575635
vt 0.449120 0.575635
vt 0.458836 0.548836
vt 0.464863 0.712447
vt 0.462686 0.712447
vt 0.440411 0.701164
vt 0.438737 0.575635
vt 0.440915 0.575635
vt 0.466537 0.560118
vt 0.464863 0.560118
vt 0.461013 0.712447
vt 0.447446 0.560118
vt 0.445269 0.560118
vt 0.442588 0.586918
vt 0.442588 0.599612
vt 0.466537 0.548836
vt 0.462686 0.689882
vt 0.464863 0.689882
vt 0.443092 0.560118
vt 0.464863 0.575635
vt 0.466537 0.575635
vt 0.441418 0.560118
vt 0.445269 0.537553
vt 0.447446 0.537553
vt 0.460005 0.588329
vt 0.460005 0.598201
vt 0.441418 0.548836
vt 0.466537 0.689882
vt 0.443092 0.537553
vt 0.464863 0.626411
vt 0.466537 0.626411
vt 0.449120 0.560118
vt 0.466537 0.701164
vt 0.449120 0.537553
vt 0.452304 0.548836
vt 0.452304 0.537553
vt 0.449120 0.548836
vt 0.447950 0.586918
vt 0.458332 0.623589
vt 0.456659 0.623589
vt 0.440411 0.712447
vt 0.438737 0.712447
vt 0.458332 0.598201
vt 0.438234 0.560118
vt 0.437064 0.560118
vt 0.452304 0.598201
vt 0.452304 0.586918
vt 0.455651 0.548836
vt 0.455651 0.560118
vt 0.437064 0.548836
vt 0.452304 0.701164
vt 0.452304 0.689882
vt 0.438737 0.664494
vt 0.440411 0.664494
vt 0.438234 0.548836
vt 0.437064 0.537553
vt 0.438234 0.537553
vt 0.453474 0.674365
vt 0.451800 0.674365
vt 0.450127 0.651799
vt 0.451800 0.651799
vt 0.460005 0.664494
vt 0.460005 0.674365
vt 0.450127 0.663082
vt 0.445269 0.651799
vt 0.446942 0.651799
vt 0.441418 0.537553
vt 0.445269 0.674365
vt 0.443595 0.674365
vt 0.450127 0.674365
vt 0.446942 0.663082
vt 0.443595 0.663082
vt 0.457828 0.712447
vt 0.456155 0.712447
vt 0.460005 0.648977
vt 0.458332 0.648977
vt 0.437064 0.612306
vt 0.437064 0.599612
vt 0.442588 0.612306
vt 0.442588 0.625000
vt 0.457828 0.701164
vt 0.458332 0.674365
vt 0.437064 0.625000
vt 0.452304 0.575635
vt 0.453474 0.575635
vt 0.458332 0.664494
vt 0.437064 0.586918
vt 0.437064 0.575635
vt 0.460005 0.613717
vt 0.460005 0.623589
vt 0.456658 0.664494
vt 0.442588 0.636283
vt 0.466537 0.650388
vt 0.466537 0.663082
vt 0.442588 0.575635
vt 0.462686 0.560118
vt 0.466537 0.674365
vt 0.463190 0.663082
vt 0.463190 0.650388
vt 0.462686 0.537553
vt 0.464863 0.537553
vt 0.463190 0.674365
vt 0.460509 0.537553
vt 0.463190 0.637694
vt 0.463190 0.626411
vt 0.464863 0.674365
vt 0.466537 0.537553
vt 0.466537 0.637694
vt 0.446942 0.674365
vt 0.453978 0.560118
vt 0.443595 0.651799
vt 0.452304 0.560118
vt 0.453474 0.651799
vt 0.453474 0.663082
vt 0.443595 0.712447
vt 0.453978 0.537553
vt 0.455651 0.537553
vt 0.460005 0.639105
vt 0.456658 0.674365
vt 0.456658 0.639105
vt 0.456658 0.648977
vt 0.456658 0.588329
vt 0.456658 0.598201
vt 0.453474 0.598201
vt 0.447950 0.598201
vt 0.449120 0.598201
vt 0.452304 0.712447
vt 0.463190 0.575635
vt 0.445269 0.689882
vt 0.445269 0.712447
vt 0.447446 0.712447
vt 0.449120 0.586918
vt 0.445773 0.613717
vt 0.445773 0.625000
vt 0.447446 0.613717
vt 0.466537 0.599612
vt 0.466537 0.586918
vt 0.463190 0.586918
vt 0.463190 0.599612
vt 0.463190 0.610895
vt 0.464863 0.610895
vt 0.458332 0.588329
vt 0.453474 0.586918
vt 0.453474 0.625000
vt 0.453474 0.613717
vt 0.451800 0.613717
vt 0.458836 0.537553
vt 0.437064 0.712447
vt 0.438737 0.636283
vt 0.440915 0.636283
vt 0.437064 0.636283
vt 0.437064 0.664494
vt 0.447446 0.636283
vt 0.449623 0.636283
vt 0.451800 0.636283
vt 0.445773 0.636283
vt 0.457828 0.689882
vt 0.456155 0.689882
vt 0.453978 0.689882
vt 0.453978 0.712447
vt 0.458332 0.639105
vt 0.453474 0.636283
vt 0.466537 0.610895
vt 0.449623 0.613717
vt 0.449120 0.712447
vt 0.466537 0.712447
vt 0.451800 0.625000
vt 0.449623 0.625000
vt 0.440915 0.612306
vt 0.440915 0.625000
vt 0.451800 0.663082
vt 0.464863 0.663082
vt 0.464863 0.637694
vt 0.464863 0.650388
vt 0.456155 0.701164
vt 0.453978 0.701164
vt 0.445269 0.663082
vt 0.438737 0.675776
vt 0.438737 0.688470
vt 0.438737 0.701164
vt 0.447446 0.548836
vt 0.445269 0.548836
vt 0.443092 0.548836
vt 0.438737 0.612306
vt 0.438737 0.625000
vt 0.438737 0.586918
vt 0.438737 0.599612
vt 0.440915 0.586918
vt 0.440915 0.599612
vt 0.464863 0.548836
vt 0.462686 0.548836
vt 0.453978 0.548836
vt 0.460509 0.548836
vt 0.464863 0.586918
vt 0.464863 0.599612
vt 0.447446 0.625000
vt 0.447446 0.701164
vt 0.445269 0.701164
vt 0.464863 0.701164
vt 0.462686 0.701164
vt 0.601204 0.699161
vt 0.599770 0.701476
vt 0.561413 0.633022
vt 0.601827 0.663859
vt 0.574467 0.536493
vt 0.570917 0.536493
vt 0.580490 0.536493
vt 0.586604 0.536493
vt 0.592158 0.536493
vt 0.595194 0.533174
vt 0.593745 0.539118
vt 0.598486 0.537877
vt 0.596748 0.543821
vt 0.601778 0.542580
vt 0.599770 0.548524
vt 0.601204 0.550839
vt 0.601828 0.586141
vt 0.601901 0.625000
vt 0.605070 0.702717
vt 0.601778 0.707420
vt 0.598486 0.712123
vt 0.596748 0.706179
vt 0.595194 0.716826
vt 0.593745 0.710882
vt 0.592159 0.713507
vt 0.586604 0.713507
vt 0.580490 0.713507
vt 0.574467 0.713507
vt 0.570917 0.713508
vt 0.568324 0.673265
vt 0.571106 0.673265
vt 0.568324 0.625000
vt 0.571161 0.625000
vt 0.568324 0.576735
vt 0.571106 0.576735
vt 0.524221 0.536493
vt 0.500852 0.536493
vt 0.531132 0.625000
vt 0.524221 0.616978
vt 0.500851 0.616978
vt 0.561413 0.536493
vt 0.538043 0.536493
vt 0.561413 0.576735
vt 0.561413 0.616978
vt 0.538043 0.616978
vt 0.561413 0.673265
vt 0.561413 0.713507
vt 0.500851 0.713507
vt 0.429590 0.739981
vt 0.427678 0.513199
vt 0.418060 0.739981
vt 0.419972 0.513199
s 0
usemtl M_Noir_Bleuté
f 49/1/1 71/1/1 69/2/1 50/3/1
f 6/4/2 63/5/2 73/6/2 54/7/2
f 25/8/3 36/9/3 4/10/3 22/11/3
f 6/4/4 54/7/4 9/12/4 7/4/4
f 124/13/5 121/14/5 10/15/5 12/16/5
f 30/17/5 124/18/5 12/16/5 13/17/5
f 3/19/2 1/20/2 19/21/2 44/22/2 33/23/2
f 20/24/3 48/25/3 39/26/3 29/27/3 2/28/3
f 4/29/6 2/30/6 1/20/6 3/19/6
f 41/31/3 44/32/3 19/21/3
f 36/9/3 45/33/3 20/24/3 2/28/3 4/10/3
f 23/34/2 3/19/2 33/23/2 27/35/2
f 2/30/6 29/36/6 30/37/6 32/38/6 31/39/6 1/20/6
f 28/40/7 34/41/7 35/42/7 26/43/7
f 24/44/4 28/40/4 26/45/4 21/46/4
f 56/47/8 5/48/8 18/48/8 11/49/8
f 18/48/6 7/4/6 8/50/6 13/17/6
f 65/51/2 60/52/2 16/52/2 52/51/2
f 58/53/3 71/54/3 49/1/3 14/53/3
f 121/55/5 32/50/5 8/50/5 10/15/5
f 14/53/9 15/56/9 10/15/9 9/12/9
f 15/56/10 17/57/10 12/16/10 10/15/10
f 17/57/11 16/52/11 11/49/11 12/16/11
f 12/16/12 11/49/12 18/48/12 13/17/12
f 51/58/13 52/51/13 98/51/13 985/59/13 972/60/13 979/61/13 99/58/13
f 8/50/14 7/4/14 9/12/14 10/15/14
f 38/62/15 40/63/15 132/63/15 129/62/15
f 52/51/2 16/52/2 94/52/2 987/64/2 974/65/2 981/66/2 98/51/2
f 56/67/3 114/68/3 100/69/3 5/48/3
f 1/20/2 31/39/2 37/70/2 41/71/2 19/72/2
f 54/73/16 58/53/16 14/53/16 9/12/16
f 1068/74/2 1069/75/2 1074/75/2 1071/74/2
f 45/76/2 48/77/2 20/24/2
f 34/41/17 43/78/17 46/79/17 35/80/17
f 28/40/13 24/44/13 23/81/13 27/82/13
f 34/41/18 28/40/18 27/35/18 33/23/18
f 36/9/19 25/8/19 26/43/19 35/42/19
f 21/46/1 26/45/1 25/83/1 22/84/1
f 124/18/20 30/17/20 29/27/20 39/26/20
f 32/50/21 121/55/21 37/70/21 31/39/21
f 122/85/22 43/86/22 44/32/22 41/31/22
f 46/87/23 123/88/23 48/77/23 45/76/23
f 121/89/24 122/90/24 41/71/24 37/70/24
f 33/23/25 44/22/25 43/78/25 34/41/25
f 45/33/26 36/9/26 35/80/26 46/79/26
f 39/26/27 48/25/27 123/91/27 124/92/27
f 21/93/6 22/94/6 4/29/6 3/19/6 23/34/6 24/95/6
f 65/96/13 52/51/13 51/58/13 67/58/13
f 5/97/6 100/98/6 101/99/6 102/100/6 61/101/6 103/102/6 104/103/6 62/104/6 63/105/6 6/4/6
f 69/2/4 67/58/4 51/58/4 50/3/4
f 60/52/28 56/106/28 11/49/28 16/52/28
f 74/107/29 75/108/29 56/106/29 60/52/29
f 58/53/30 54/73/30 76/109/30 77/110/30
f 65/96/31 67/58/31 78/111/31 79/112/31
f 69/2/32 71/1/32 80/113/32 81/114/32
f 75/108/33 117/115/33 114/68/33 56/67/33
f 116/116/34 76/109/34 54/7/34 73/6/34
f 81/114/35 78/111/35 67/58/35 69/2/35
f 60/52/36 65/51/36 79/112/36 74/107/36
f 71/54/37 58/53/37 77/110/37 80/113/37
f 59/117/38 55/118/38 75/108/38 74/107/38
f 53/119/38 57/120/38 77/110/38 76/109/38
f 66/121/38 64/122/38 79/112/38 78/111/38
f 70/123/38 68/124/38 81/114/38 80/113/38
f 55/118/38 112/125/38 117/115/38 75/108/38
f 72/126/38 53/119/38 76/109/38 116/116/38
f 68/124/38 66/121/38 78/111/38 81/114/38
f 64/122/38 59/117/38 74/107/38 79/112/38
f 57/120/38 70/123/38 80/113/38 77/110/38
f 64/122/20 66/121/20 86/121/20 87/122/20
f 66/121/5 68/124/5 89/124/5 86/121/5
f 112/125/2 55/118/2 83/118/2 119/125/2
f 68/124/21 70/123/21 88/123/21 89/124/21
f 59/117/3 64/122/3 87/122/3 82/117/3
f 55/118/39 59/117/39 82/117/39 83/118/39
f 70/123/2 57/120/2 85/120/2 88/123/2
f 57/120/40 53/119/40 84/119/40 85/120/40
f 53/119/3 72/126/3 91/126/3 84/119/3
f 16/52/2 17/57/2 95/57/2 94/52/2
f 14/53/3 49/1/3 97/1/3 988/131/3 975/132/3 982/133/3 92/53/3
f 50/3/4 51/58/4 99/58/4 986/134/4 973/135/4 980/136/4 96/3/4
f 17/57/5 15/56/5 93/56/5 969/137/5 95/57/5
f 15/56/3 14/53/3 92/53/3 968/138/3 93/56/3
f 49/1/1 50/3/1 96/3/1 984/139/1 971/140/1 978/141/1 97/1/1
f 104/142/21 107/143/21 105/144/21 62/145/21
f 108/146/5 103/147/5 61/148/5 110/149/5
f 111/150/20 102/151/20 101/152/20 113/153/20
f 116/116/41 73/154/41 105/155/41
f 115/156/42 107/157/42 108/146/42
f 118/158/43 110/149/43 111/159/43
f 117/115/44 113/160/44 114/161/44
f 105/155/45 107/162/45 115/163/45 116/116/45
f 111/164/46 113/160/46 117/115/46 118/165/46
f 103/147/47 108/146/47 107/157/47 104/166/47
f 73/6/48 63/5/48 62/145/48 105/144/48
f 110/149/49 61/148/49 102/167/49 111/159/49
f 100/69/50 114/68/50 113/153/50 101/152/50
f 118/158/51 115/156/51 108/146/51 110/149/51
f 109/128/13 112/125/13 119/125/13 120/128/13
f 106/127/38 72/126/38 116/116/38 115/163/38
f 112/125/38 109/128/38 118/165/38 117/115/38
f 109/128/38 106/127/38 115/163/38 118/165/38
f 106/127/4 109/128/4 120/128/4 90/127/4
f 72/126/1 106/127/1 90/127/1 91/126/1
f 38/62/52 42/168/52 122/90/52 121/89/52
f 47/169/52 40/63/52 124/92/52 123/91/52
f 40/63/52 38/62/52 121/89/52 124/92/52
f 42/168/52 47/169/52 123/91/52 122/90/52
f 42/168/3 38/62/3 129/62/3 130/168/3
f 47/169/53 42/168/53 130/168/53 131/169/53
f 40/63/2 47/169/2 131/169/2 132/63/2
f 122/90/54 123/689/54 1068/74/54 1067/690/54
f 123/689/54 46/691/54 1069/75/54 1068/74/54
f 46/691/54 43/78/54 1070/692/54 1069/75/54
f 43/78/54 122/90/54 1067/690/54 1070/692/54
f 1067/690/55 1068/74/55 1071/74/55 1072/690/55
f 1069/75/56 1070/692/56 1073/692/56 1074/75/56
f 1070/692/3 1067/690/3 1072/690/3 1073/692/3
usemtl M_Orange
f 87/122/38 86/121/38 89/124/38 88/123/38 85/120/38 84/119/38 91/126/38 90/127/38 120/128/38 119/125/38 83/118/38 82/117/38
usemtl M_Noir_Profond
f 1027/129/3 1022/130/3 1062/130/3 1063/129/3
f 125/170/52 126/187/52 130/168/52 129/62/52
f 127/188/52 128/171/52 132/63/52 131/169/52
f 128/171/52 125/170/52 129/62/52 132/63/52
f 126/187/52 127/188/52 131/169/52 130/168/52
f 539/425/53 483/426/53 814/426/53 863/425/53
f 429/427/53 428/428/53 907/428/53 807/427/53
f 459/429/3 565/430/3 885/430/3 920/429/3
f 658/431/3 513/432/3 942/432/3 799/431/3
f 710/433/53 539/425/53 863/425/53 823/433/53
f 426/434/53 425/435/53 906/435/53 802/434/53
f 478/436/2 564/437/2 964/437/2 812/436/2
f 513/432/15 470/438/15 803/438/15 942/432/15
f 708/439/15 538/440/15 862/440/15 765/439/15
f 424/441/3 423/442/3 904/442/3 905/441/3
f 564/437/53 678/443/53 833/443/53 964/437/53
f 509/444/2 654/445/2 840/445/2 838/444/2
f 538/440/15 707/446/15 780/446/15 862/440/15
f 422/447/3 421/448/3 856/448/3 828/447/3
f 563/449/2 503/450/2 831/450/2 963/449/2
f 654/445/2 484/451/2 932/451/2 840/445/2
f 705/452/2 703/453/2 861/453/2 824/452/2
f 418/454/15 419/455/15 830/455/15 857/454/15
f 683/456/15 563/449/15 963/449/15 792/456/15
f 653/457/3 652/458/3 804/458/3 839/457/3
f 703/453/2 704/459/2 813/459/2 861/453/2
f 417/460/3 416/461/3 903/461/3 835/460/3
f 704/459/2 562/462/2 962/462/2 813/459/2
f 428/428/3 653/457/3 839/457/3 907/428/3
f 702/463/3 701/464/3 781/464/3 860/463/3
f 413/465/15 414/466/15 902/466/15 901/465/15
f 562/462/53 501/467/53 827/467/53 962/462/53
f 652/458/3 510/468/3 941/468/3 804/458/3
f 420/469/3 702/463/3 860/463/3 763/469/3
f 412/470/3 411/471/3 900/471/3 817/470/3
f 561/472/2 705/452/2 824/452/2 961/472/2
f 510/468/15 472/473/15 808/473/15 941/468/15
f 701/464/3 535/474/3 951/474/3 781/464/3
f 410/475/53 409/476/53 899/476/53 794/475/53
f 700/477/15 561/472/15 961/472/15 784/477/15
f 466/478/53 424/441/53 905/441/53 844/478/53
f 535/474/15 700/477/15 784/477/15 951/474/15
f 407/479/2 408/480/2 898/480/2 886/479/2
f 560/481/2 713/482/2 822/482/2 960/481/2
f 414/466/2 463/483/2 848/483/2 902/466/2
f 499/484/2 534/485/2 950/485/2 939/484/2
f 406/486/53 405/487/53 850/487/53 897/486/53
f 707/446/15 560/481/15 960/481/15 780/446/15
f 458/488/15 504/489/15 940/489/15 832/488/15
f 534/485/53 500/490/53 826/490/53 950/485/53
f 404/491/53 403/492/53 896/492/53 775/491/53
f 449/493/3 559/494/3 959/494/3 777/493/3
f 454/495/15 499/484/15 939/484/15 825/495/15
f 533/496/3 453/497/3 918/497/3 949/496/3
f 402/498/2 390/499/2 756/499/2 895/498/2
f 559/494/15 708/439/15 765/439/15 959/494/15
f 494/500/3 441/501/3 810/501/3 938/500/3
f 500/490/53 533/496/53 949/496/53 826/490/53
f 400/502/15 401/503/15 894/503/15 893/502/15
f 558/504/53 494/500/53 938/500/53 882/504/53
f 447/505/3 492/506/3 937/506/3 868/505/3
f 532/507/3 420/469/3 763/469/3 948/507/3
f 399/508/2 398/509/2 892/509/2 867/508/2
f 489/510/53 558/504/53 882/504/53 936/510/53
f 492/506/15 445/511/15 870/511/15 937/506/15
f 501/467/53 532/507/53 948/507/53 827/467/53
f 398/509/53 397/512/53 869/512/53 892/509/53
f 557/513/2 491/514/2 819/514/2 958/513/2
f 431/515/2 442/516/2 874/516/2 909/515/2
f 531/517/53 502/518/53 829/518/53 859/517/53
f 395/519/15 396/520/15 815/520/15 884/519/15
f 444/521/15 557/513/15 958/513/15 776/521/15
f 401/503/2 432/522/2 881/522/2 894/503/2
f 474/523/53 531/517/53 859/517/53 809/523/53
f 394/524/3 393/525/3 890/525/3 891/524/3
f 556/526/3 400/502/3 893/502/3 880/526/3
f 390/499/2 489/510/2 936/510/2 756/499/2
f 530/527/53 481/528/53 930/528/53 858/527/53
f 391/529/15 392/530/15 889/530/15 888/529/15
f 437/531/3 556/526/3 880/526/3 912/531/3
f 396/520/15 488/532/15 935/532/15 815/520/15
f 502/518/53 530/527/53 858/527/53 829/518/53
f 436/533/15 555/534/15 879/534/15 771/533/15
f 421/448/3 487/535/3 934/535/3 856/448/3
f 503/450/2 529/536/2 854/536/2 831/450/2
f 555/534/15 434/537/15 911/537/15 879/534/15
f 487/535/15 418/454/15 857/454/15 934/535/15
f 529/536/2 478/436/2 812/436/2 854/536/2
f 554/538/53 490/539/53 818/539/53 878/538/53
f 392/530/2 407/479/2 886/479/2 889/530/2
f 685/540/3 684/541/3 789/541/3 853/540/3
f 485/542/53 554/538/53 878/538/53 933/542/53
f 405/487/53 394/524/53 891/524/53 850/487/53
f 679/543/3 685/540/3 853/540/3 761/543/3
f 553/544/53 477/545/53 928/545/53 877/544/53
f 435/546/2 485/542/2 933/542/2 768/546/2
f 684/541/3 527/547/3 947/547/3 789/541/3
f 490/539/53 553/544/53 877/544/53 818/539/53
f 484/451/53 429/427/53 807/427/53 932/451/53
f 527/547/15 683/456/15 792/456/15 947/547/15
f 411/471/15 552/548/15 876/548/15 900/471/15
f 446/549/2 399/508/2 867/508/2 916/549/2
f 504/489/2 681/550/2 852/550/2 940/489/2
f 552/548/15 436/533/15 771/533/15 876/548/15
f 397/512/53 448/551/53 917/551/53 869/512/53
f 681/550/2 475/552/2 927/552/2 852/550/2
f 440/553/15 551/554/15 875/554/15 915/553/15
f 482/555/53 426/434/53 802/434/53 931/555/53
f 680/556/3 457/557/3 919/557/3 851/556/3
f 551/554/15 402/498/15 895/498/15 875/554/15
f 392/530/52 391/529/52 570/387/52 571/388/52
f 393/525/52 394/524/52 573/257/52 572/304/52
f 396/520/52 395/519/52 574/368/52 575/369/52
f 397/512/52 398/509/52 577/242/52 576/262/52
f 398/509/52 399/508/52 578/241/52 577/242/52
f 401/503/52 400/502/52 579/399/52 580/370/52
f 390/499/52 402/498/52 581/278/52 582/374/52
f 403/492/52 404/491/52 584/364/52 583/363/52
f 405/487/52 406/486/52 586/357/52 585/356/52
f 408/480/52 407/479/52 587/419/52 588/341/52
f 409/476/52 410/475/52 590/316/52 589/315/52
f 411/471/52 412/470/52 592/348/52 591/240/52
f 414/466/52 413/465/52 593/331/52 594/386/52
f 416/461/52 417/460/52 596/328/52 595/248/52
f 419/455/52 418/454/52 597/379/52 598/380/52
f 421/448/52 422/447/52 600/318/52 599/254/52
f 423/442/52 424/441/52 602/312/52 601/258/52
f 425/435/52 426/434/52 604/308/52 603/307/52
f 428/428/52 429/427/52 606/286/52 605/285/52
f 431/515/52 430/558/52 607/389/52 608/390/52
f 433/559/52 432/522/52 609/378/52 610/277/52
f 435/546/52 434/537/52 611/271/52 612/360/52
f 437/531/52 433/559/52 610/277/52 613/276/52
f 438/560/52 439/561/52 615/268/52 614/269/52
f 440/553/52 441/501/52 617/264/52 616/265/52
f 439/561/52 442/516/52 618/391/52 615/268/52
f 446/549/52 445/511/52 619/337/52 620/372/52
f 447/505/52 448/551/52 622/300/52 621/291/52
f 454/495/52 453/497/52 623/324/52 624/409/52
f 458/488/52 457/557/52 625/393/52 626/396/52
f 459/429/52 408/480/52 588/341/52 627/340/52
f 460/562/52 461/563/52 629/344/52 628/343/52
f 406/486/52 462/564/52 630/322/52 586/357/52
f 461/563/52 463/483/52 631/401/52 629/344/52
f 466/478/52 467/565/52 633/321/52 632/345/52
f 467/565/52 468/566/52 634/320/52 633/321/52
f 404/491/52 473/567/52 635/236/52 584/364/52
f 410/475/52 475/552/52 636/256/52 590/316/52
f 412/470/52 477/545/52 637/349/52 592/348/52
f 417/460/52 479/568/52 638/329/52 596/328/52
f 395/519/52 419/455/52 598/380/52 574/368/52
f 422/447/52 481/528/52 639/319/52 600/318/52
f 426/434/52 482/555/52 640/260/52 604/308/52
f 448/551/52 397/512/52 576/262/52 622/300/52
f 399/508/52 446/549/52 620/372/52 578/241/52
f 429/427/52 484/451/52 641/267/52 606/286/52
f 485/542/52 435/546/52 612/360/52 642/361/52
f 394/524/52 405/487/52 585/356/52 573/257/52
f 407/479/52 392/530/52 571/388/52 587/419/52
f 418/454/52 487/535/52 643/253/52 597/379/52
f 487/535/52 421/448/52 599/254/52 643/253/52
f 488/532/52 396/520/52 575/369/52 644/299/52
f 489/510/52 390/499/52 582/374/52 645/352/52
f 432/522/52 401/503/52 580/370/52 609/378/52
f 442/516/52 431/515/52 608/390/52 618/391/52
f 445/511/52 492/506/52 646/290/52 619/337/52
f 492/506/52 447/505/52 621/291/52 646/290/52
f 441/501/52 494/500/52 647/272/52 617/264/52
f 499/484/52 454/495/52 624/409/52 648/237/52
f 504/489/52 458/488/52 626/396/52 649/335/52
f 463/483/52 414/466/52 594/386/52 631/401/52
f 424/441/52 466/478/52 632/345/52 602/312/52
f 472/473/52 510/468/52 650/284/52 651/325/52
f 510/468/52 652/458/52 471/283/52 650/284/52
f 653/457/52 428/428/52 605/285/52 511/371/52
f 652/458/52 653/457/52 511/371/52 471/283/52
f 484/451/52 654/445/52 512/366/52 641/267/52
f 654/445/52 509/444/52 655/367/52 512/366/52
f 470/438/52 513/432/52 656/362/52 657/365/52
f 513/432/52 658/431/52 469/373/52 656/362/52
f 659/569/52 425/435/52 603/307/52 514/377/52
f 658/431/52 659/569/52 514/377/52 469/373/52
f 482/555/52 660/570/52 515/358/52 640/260/52
f 660/570/52 508/571/52 661/359/52 515/358/52
f 468/566/52 516/572/52 662/355/52 634/320/52
f 516/572/52 423/442/52 601/258/52 662/355/52
f 517/573/52 476/574/52 664/382/52 663/381/52
f 465/575/52 517/573/52 663/381/52 665/383/52
f 464/576/52 518/577/52 666/350/52 667/351/52
f 518/577/52 416/461/52 595/248/52 666/350/52
f 519/578/52 507/579/52 669/385/52 668/384/52
f 479/568/52 519/578/52 668/384/52 638/329/52
f 507/579/52 520/580/52 670/346/52 669/385/52
f 520/580/52 506/581/52 671/347/52 670/346/52
f 521/582/52 460/562/52 628/343/52 672/330/52
f 413/465/52 521/582/52 672/330/52 593/331/52
f 462/564/52 522/583/52 673/305/52 630/322/52
f 522/583/52 393/525/52 572/304/52 673/305/52
f 675/584/52 523/585/52 674/339/52 389/342/52
f 523/585/52 388/586/52 676/392/52 674/339/52
f 524/587/52 678/443/52 505/395/52 677/394/52
f 679/543/52 524/587/52 677/394/52 415/397/52
f 680/556/52 409/476/52 589/315/52 525/400/52
f 457/557/52 680/556/52 525/400/52 625/393/52
f 475/552/52 681/550/52 526/334/52 636/256/52
f 681/550/52 504/489/52 649/335/52 526/334/52
f 683/456/52 527/547/52 682/332/52 456/333/52
f 527/547/52 684/541/52 455/403/52 682/332/52
f 685/540/52 679/543/52 415/397/52 528/404/52
f 684/541/52 685/540/52 528/404/52 455/403/52
f 478/436/52 529/536/52 686/326/52 687/244/52
f 529/536/52 503/450/52 688/327/52 686/326/52
f 530/527/52 502/518/52 690/406/52 689/405/52
f 481/528/52 530/527/52 689/405/52 639/319/52
f 531/517/52 474/523/52 692/408/52 691/407/52
f 502/518/52 531/517/52 691/407/52 690/406/52
f 532/507/52 501/467/52 694/402/52 693/375/52
f 420/469/52 532/507/52 693/375/52 695/376/52
f 533/496/52 500/490/52 697/280/52 696/323/52
f 453/497/52 533/496/52 696/323/52 623/324/52
f 500/490/52 534/485/52 698/238/52 697/280/52
f 534/485/52 499/484/52 648/237/52 698/238/52
f 700/477/52 535/474/52 699/314/52 452/317/52
f 535/474/52 701/464/52 451/410/52 699/314/52
f 702/463/52 420/469/52 695/376/52 536/411/52
f 701/464/52 702/463/52 536/411/52 451/410/52
f 704/459/52 703/453/52 537/310/52 480/252/52
f 703/453/52 705/452/52 498/311/52 537/310/52
f 707/446/52 538/440/52 706/306/52 450/309/52
f 538/440/52 708/439/52 427/263/52 706/306/52
f 539/425/52 710/433/52 497/414/52 709/413/52
f 483/426/52 539/425/52 709/413/52 711/415/52
f 710/433/52 540/588/52 712/302/52 497/414/52
f 540/588/52 713/482/52 496/303/52 712/302/52
f 495/589/52 541/590/52 714/298/52 715/295/52
f 541/590/52 488/532/52 644/299/52 714/298/52
f 474/523/52 542/591/52 716/294/52 692/408/52
f 542/591/52 495/589/52 715/295/52 716/294/52
f 543/592/52 483/426/52 711/415/52 717/416/52
f 449/493/52 543/592/52 717/416/52 718/417/52
f 493/593/52 544/594/52 719/292/52 720/289/52
f 544/594/52 486/595/52 721/293/52 719/292/52
f 476/574/52 545/596/52 722/288/52 664/382/52
f 545/596/52 493/593/52 720/289/52 722/288/52
f 444/521/52 546/597/52 723/250/52 724/287/52
f 546/597/52 725/598/52 443/249/52 723/250/52
f 726/599/52 403/492/52 583/363/52 547/418/52
f 725/598/52 726/599/52 547/418/52 443/249/52
f 473/567/52 727/600/52 548/281/52 635/236/52
f 727/600/52 491/514/52 728/282/52 548/281/52
f 729/601/52 438/560/52 614/269/52 549/420/52
f 430/558/52 729/601/52 549/420/52 607/389/52
f 550/602/52 675/584/52 389/342/52 730/279/52
f 486/595/52 550/602/52 730/279/52 721/293/52
f 402/498/52 551/554/52 731/275/52 581/278/52
f 551/554/52 440/553/52 616/265/52 731/275/52
f 436/533/52 552/548/52 732/273/52 733/274/52
f 552/548/52 411/471/52 591/240/52 732/273/52
f 553/544/52 490/539/52 735/422/52 734/421/52
f 477/545/52 553/544/52 734/421/52 637/349/52
f 554/538/52 485/542/52 642/361/52 736/423/52
f 490/539/52 554/538/52 736/423/52 735/422/52
f 434/537/52 555/534/52 737/270/52 611/271/52
f 555/534/52 436/533/52 733/274/52 737/270/52
f 556/526/52 437/531/52 613/276/52 738/398/52
f 400/502/52 556/526/52 738/398/52 579/399/52
f 557/513/52 444/521/52 724/287/52 739/266/52
f 491/514/52 557/513/52 739/266/52 728/282/52
f 558/504/52 489/510/52 645/352/52 740/338/52
f 494/500/52 558/504/52 740/338/52 647/272/52
f 708/439/52 559/494/52 741/261/52 427/263/52
f 559/494/52 449/493/52 718/417/52 741/261/52
f 560/481/52 707/446/52 450/309/52 742/259/52
f 713/482/52 560/481/52 742/259/52 496/303/52
f 561/472/52 700/477/52 452/317/52 743/255/52
f 705/452/52 561/472/52 743/255/52 498/311/52
f 501/467/52 562/462/52 744/251/52 694/402/52
f 562/462/52 704/459/52 480/252/52 744/251/52
f 563/449/52 683/456/52 456/333/52 745/247/52
f 503/450/52 563/449/52 745/247/52 688/327/52
f 678/443/52 564/437/52 746/243/52 505/395/52
f 564/437/52 478/436/52 687/244/52 746/243/52
f 565/430/52 459/429/52 627/340/52 747/424/52
f 391/529/52 565/430/52 747/424/52 570/387/52
f 566/603/52 464/576/52 667/351/52 748/239/52
f 506/581/52 566/603/52 748/239/52 671/347/52
f 567/604/52 465/575/52 665/383/52 749/412/52
f 388/586/52 567/604/52 749/412/52 676/392/52
f 568/605/52 470/438/52 657/365/52 750/235/52
f 508/571/52 568/605/52 750/235/52 661/359/52
f 569/606/52 472/473/52 651/325/52 751/189/52
f 509/444/52 569/606/52 751/189/52 655/367/52
f 425/435/3 659/569/3 841/569/3 906/435/3
f 565/430/3 391/529/3 888/529/3 885/430/3
f 430/558/15 431/515/15 909/515/15 908/558/15
f 540/588/53 710/433/53 823/433/53 952/588/53
f 659/569/3 658/431/3 799/431/3 841/569/3
f 464/576/15 566/603/15 965/603/15 797/576/15
f 432/522/2 433/559/2 910/559/2 881/522/2
f 713/482/2 540/588/2 952/588/2 822/482/2
f 660/570/2 482/555/2 931/555/2 842/570/2
f 566/603/2 506/581/2 834/581/2 965/603/2
f 434/537/2 435/546/2 768/546/2 911/537/2
f 541/590/2 495/589/2 821/589/2 864/590/2
f 508/571/2 660/570/2 842/570/2 837/571/2
f 465/575/3 567/604/3 887/604/3 798/575/3
f 433/559/53 437/531/53 912/531/53 910/559/53
f 488/532/2 541/590/2 864/590/2 935/532/2
f 516/572/15 468/566/15 925/566/15 843/572/15
f 567/604/3 388/586/3 752/586/3 887/604/3
f 439/561/53 438/560/53 913/560/53 914/561/53
f 542/591/53 474/523/53 809/523/53 953/591/53
f 423/442/15 516/572/15 843/572/15 904/442/15
f 470/438/15 568/605/15 966/605/15 803/438/15
f 441/501/3 440/553/3 915/553/3 810/501/3
f 495/589/2 542/591/2 953/591/2 821/589/2
f 476/574/53 517/573/53 943/573/53 811/574/53
f 568/605/2 508/571/2 837/571/2 966/605/2
f 442/516/2 439/561/2 914/561/2 874/516/2
f 483/426/53 543/592/53 954/592/53 814/426/53
f 517/573/3 465/575/3 798/575/3 943/573/3
f 472/473/15 569/606/15 967/606/15 808/473/15
f 445/511/15 446/549/15 916/549/15 870/511/15
f 543/592/3 449/493/3 777/493/3 954/592/3
f 518/577/15 464/576/15 797/576/15 845/577/15
f 569/606/2 509/444/2 838/444/2 967/606/2
f 448/551/3 447/505/3 868/505/3 917/551/3
f 544/594/2 493/593/2 820/593/2 865/594/2
f 416/461/15 518/577/15 845/577/15 903/461/15
f 453/497/15 454/495/15 825/495/15 918/497/15
f 486/595/2 544/594/2 865/594/2 816/595/2
f 507/579/53 519/578/53 846/578/53 836/579/53
f 457/557/15 458/488/15 832/488/15 919/557/15
f 545/596/53 476/574/53 811/574/53 955/596/53
f 519/578/53 479/568/53 929/568/53 846/578/53
f 408/480/53 459/429/53 920/429/53 898/480/53
f 493/593/2 545/596/2 955/596/2 820/593/2
f 520/580/53 507/579/53 836/579/53 944/580/53
f 461/563/53 460/562/53 921/562/53 922/563/53
f 546/597/15 444/521/15 776/521/15 956/597/15
f 506/581/2 520/580/2 944/580/2 834/581/2
f 462/564/2 406/486/2 897/486/2 923/564/2
f 725/598/3 546/597/3 956/597/3 772/598/3
f 460/562/3 521/582/3 847/582/3 921/562/3
f 463/483/2 461/563/2 922/563/2 848/483/2
f 403/492/3 726/599/3 871/599/3 896/492/3
f 521/582/3 413/465/3 901/465/3 847/582/3
f 467/565/53 466/478/53 844/478/53 924/565/53
f 726/599/3 725/598/3 772/598/3 871/599/3
f 522/583/15 462/564/15 923/564/15 849/583/15
f 468/566/2 467/565/2 924/565/2 925/566/2
f 727/600/2 473/567/2 926/567/2 872/600/2
f 393/525/15 522/583/15 849/583/15 890/525/15
f 473/567/53 404/491/53 775/491/53 926/567/53
f 491/514/2 727/600/2 872/600/2 819/514/2
f 523/585/15 675/584/15 754/584/15 945/585/15
f 475/552/53 410/475/53 794/475/53 927/552/53
f 438/560/3 729/601/3 873/601/3 913/560/3
f 388/586/3 523/585/3 945/585/3 752/586/3
f 477/545/3 412/470/3 817/470/3 928/545/3
f 729/601/3 430/558/3 908/558/3 873/601/3
f 678/443/53 524/587/53 946/587/53 833/443/53
f 479/568/3 417/460/3 835/460/3 929/568/3
f 675/584/15 550/602/15 957/602/15 754/584/15
f 524/587/3 679/543/3 761/543/3 946/587/3
f 419/455/15 395/519/15 884/519/15 830/455/15
f 550/602/2 486/595/2 816/595/2 957/602/2
f 409/476/3 680/556/3 851/556/3 899/476/3
f 481/528/3 422/447/3 828/447/3 930/528/3
f 1001/641/13 1002/642/13 1042/642/13 1041/641/13
f 1022/130/3 1023/643/3 1061/643/3 1062/130/3
f 1000/644/4 1001/641/4 1041/641/4 1040/644/4
f 92/53/38 982/133/38 990/645/38 989/646/38
f 982/133/38 975/132/38 991/647/38 990/645/38
f 975/132/38 988/131/38 992/648/38 991/647/38
f 988/131/38 97/1/38 993/649/38 992/648/38
f 97/1/38 978/650/38 994/651/38 993/649/38
f 978/650/38 971/652/38 995/653/38 994/651/38
f 971/652/38 984/654/38 996/655/38 995/653/38
f 984/654/38 96/2/38 997/656/38 996/655/38
f 96/2/38 980/136/38 998/657/38 997/656/38
f 980/136/38 973/135/38 999/658/38 998/657/38
f 973/135/38 986/134/38 1000/644/38 999/658/38
f 986/134/38 99/659/38 1001/641/38 1000/644/38
f 99/659/38 979/660/38 1002/642/38 1001/641/38
f 979/660/38 972/661/38 1003/662/38 1002/642/38
f 972/661/38 985/663/38 1004/664/38 1003/662/38
f 985/663/38 98/51/38 1005/665/38 1004/664/38
f 98/51/38 981/66/38 1006/666/38 1005/665/38
f 981/66/38 974/65/38 1007/667/38 1006/666/38
f 974/65/38 987/64/38 1008/668/38 1007/667/38
f 987/64/38 94/52/38 1009/669/38 1008/668/38
f 94/52/38 977/670/38 1010/671/38 1009/669/38
f 977/670/38 970/672/38 1011/673/38 1010/671/38
f 970/672/38 983/674/38 1012/675/38 1011/673/38
f 983/674/38 92/53/38 989/646/38 1012/675/38
f 93/56/38 968/138/38 1014/676/38 1013/677/38
f 968/138/38 976/678/38 1015/679/38 1014/676/38
f 976/678/38 969/137/38 1016/680/38 1015/679/38
f 969/137/38 93/56/38 1013/677/38 1016/680/38
f 968/138/38 92/53/38 1018/681/38 1017/682/38
f 92/53/38 983/674/38 1019/683/38 1018/681/38
f 983/674/38 970/672/38 1020/684/38 1019/683/38
f 970/672/38 976/678/38 1021/685/38 1020/684/38
f 976/678/38 968/138/38 1017/682/38 1021/685/38
f 976/678/38 970/672/38 1023/643/38 1022/130/38
f 970/672/38 977/670/38 1024/686/38 1023/643/38
f 977/670/38 94/52/38 1025/687/38 1024/686/38
f 94/52/38 95/57/38 1026/688/38 1025/687/38
f 95/57/38 969/137/38 1027/129/38 1026/688/38
f 969/137/38 976/678/38 1022/130/38 1027/129/38
f 989/646/3 990/645/3 1028/645/3 1029/646/3
f 1002/642/13 1003/662/13 1043/662/13 1042/642/13
f 1023/643/4 1024/686/4 1064/686/4 1061/643/4
f 1012/675/5 989/646/5 1029/646/5 1030/675/5
f 1003/662/13 1004/664/13 1044/664/13 1043/662/13
f 1024/686/4 1025/687/4 1065/687/4 1064/686/4
f 990/645/3 991/647/3 1031/647/3 1028/645/3
f 1017/682/3 1018/681/3 1056/681/3 1057/682/3
f 1004/664/13 1005/665/13 1045/665/13 1044/664/13
f 1025/687/2 1026/688/2 1066/688/2 1065/687/2
f 991/647/3 992/648/3 1032/648/3 1031/647/3
f 1021/685/5 1017/682/5 1057/682/5 1058/685/5
f 1005/665/2 1006/666/2 1046/666/2 1045/665/2
f 1026/688/5 1027/129/5 1063/129/5 1066/688/5
f 992/648/3 993/649/3 1033/649/3 1032/648/3
f 1018/681/4 1019/683/4 1059/683/4 1056/681/4
f 1006/666/2 1007/667/2 1047/667/2 1046/666/2
f 993/649/1 994/651/1 1034/651/1 1033/649/1
f 1019/683/4 1020/684/4 1060/684/4 1059/683/4
f 1007/667/2 1008/668/2 1048/668/2 1047/667/2
f 994/651/1 995/653/1 1035/653/1 1034/651/1
f 1020/684/2 1021/685/2 1058/685/2 1060/684/2
f 1008/668/2 1009/669/2 1049/669/2 1048/668/2
f 995/653/1 996/655/1 1036/655/1 1035/653/1
f 1009/669/5 1010/671/5 1050/671/5 1049/669/5
f 1013/677/3 1014/676/3 1052/676/3 1053/677/3
f 996/655/1 997/656/1 1037/656/1 1036/655/1
f 1010/671/5 1011/673/5 1051/673/5 1050/671/5
f 1016/680/5 1013/677/5 1053/677/5 1054/680/5
f 997/656/4 998/657/4 1038/657/4 1037/656/4
f 1011/673/5 1012/675/5 1030/675/5 1051/673/5
f 1014/676/4 1015/679/4 1055/679/4 1052/676/4
f 998/657/4 999/658/4 1039/658/4 1038/657/4
f 1015/679/2 1016/680/2 1054/680/2 1055/679/2
f 999/658/4 1000/644/4 1040/644/4 1039/658/4
usemtl M_Gris_Metal
f 1072/690/54 1071/74/54 1074/75/54 1073/692/54
usemtl M_Noir_Clair
f 125/170/53 128/171/53 136/171/53 255/172/53 174/173/53 217/174/53 147/175/53 244/176/53 163/177/53 205/178/53 139/179/53 251/180/53 170/181/53 213/182/53 143/183/53 240/184/53 159/185/53 201/186/53 133/170/53
f 387/189/52 255/172/52 136/171/52 200/190/52
f 126/187/2 125/170/2 133/170/2 253/191/2 172/192/2 215/193/2 145/194/2 242/195/2 161/196/2 203/197/2 137/198/2 249/199/2 168/200/2 211/201/2 141/202/2 238/203/2 157/204/2 199/205/2 134/187/2
f 127/188/15 126/187/15 134/187/15 202/206/15 160/207/15 241/208/15 144/209/15 214/210/15 171/211/15 252/212/15 140/213/15 206/214/15 164/215/15 245/216/15 148/217/15 218/218/15 175/219/15 256/220/15 135/188/15
f 128/171/3 127/188/3 135/188/3 254/221/3 173/222/3 216/223/3 146/224/3 243/225/3 162/226/3 204/227/3 138/228/3 250/229/3 169/230/3 212/231/3 142/232/3 239/233/3 158/234/3 200/190/3 136/171/3
f 386/235/52 207/236/52 138/228/52 204/227/52
f 299/237/3 352/238/3 698/238/3 648/237/3
f 384/239/52 251/180/52 139/179/52 259/240/52
f 233/241/3 155/242/3 577/242/3 578/241/3
f 382/243/52 223/244/52 153/245/52 262/246/52
f 381/247/52 240/184/52 143/183/52 263/248/52
f 283/249/2 364/250/2 723/250/2 443/249/2
f 380/251/52 227/252/52 154/253/52 266/254/52
f 379/255/52 219/256/52 150/257/52 267/258/52
f 378/259/52 230/260/52 146/224/52 216/223/52
f 377/261/52 231/262/52 155/242/52 270/263/52
f 176/264/2 280/265/2 616/265/2 617/264/2
f 375/266/52 234/267/52 142/232/52 212/231/52
f 192/268/15 279/269/15 614/269/15 615/268/15
f 373/270/52 244/176/52 147/175/52 275/271/52
f 288/272/2 176/264/2 617/264/2 647/272/2
f 377/261/53 270/263/53 427/263/53 741/261/53
f 370/273/52 205/178/52 163/177/52 277/274/52
f 369/275/52 278/276/52 190/277/52 236/278/52
f 368/279/52 279/269/52 192/268/52 280/265/52
f 352/238/15 301/280/15 697/280/15 698/238/15
f 366/281/52 282/282/52 169/230/52 250/229/52
f 325/283/2 327/284/2 650/284/2 471/283/2
f 364/250/52 272/285/52 188/286/52 284/287/52
f 155/242/15 231/262/15 576/262/15 577/242/15
f 363/288/52 286/289/52 193/290/52 287/291/52
f 362/292/52 257/293/52 176/264/52 288/272/52
f 364/250/53 284/287/53 724/287/53 723/250/53
f 360/294/52 290/295/52 194/296/52 291/297/52
f 359/298/52 269/299/52 186/300/52 292/301/52
f 358/302/52 293/303/52 173/222/52 254/221/52
f 224/304/53 340/305/53 673/305/53 572/304/53
f 356/306/52 268/307/52 185/308/52 295/309/52
f 355/310/52 296/311/52 184/312/52 229/313/52
f 190/277/15 278/276/15 613/276/15 610/277/15
f 353/314/52 258/315/52 177/316/52 298/317/52
f 352/238/52 299/237/52 183/318/52 228/319/52
f 287/291/2 193/290/2 646/290/2 621/291/2
f 320/320/3 198/321/3 633/321/3 634/320/3
f 340/305/53 312/322/53 630/322/53 673/305/53
f 351/323/2 300/324/2 623/324/2 696/323/2
f 327/284/53 326/325/53 651/325/53 650/284/53
f 347/326/52 304/327/52 181/328/52 225/329/52
f 339/330/2 260/331/2 593/331/2 672/330/2
f 345/332/52 201/186/52 159/185/52 306/333/52
f 344/334/52 307/335/52 180/336/52 224/304/52
f 193/290/53 285/337/53 619/337/53 646/290/53
f 376/338/15 288/272/15 647/272/15 740/338/15
f 341/339/52 310/340/52 167/341/52 210/342/52
f 340/305/52 311/343/52 197/344/52 312/322/52
f 198/321/15 318/345/15 632/345/15 633/321/15
f 338/346/52 314/347/52 178/348/52 221/349/52
f 311/343/2 339/330/2 672/330/2 628/343/2
f 336/350/52 213/182/52 170/181/52 316/351/52
f 271/352/15 376/338/15 740/338/15 645/352/15
f 334/353/52 318/345/52 198/321/52 319/354/52
f 333/355/52 247/356/52 166/357/52 320/320/52
f 332/358/52 321/359/52 162/226/52 243/225/52
f 191/360/3 237/361/3 642/361/3 612/360/3
f 330/362/52 246/363/52 165/364/52 323/365/52
f 329/366/52 324/367/52 158/234/52 239/233/52
f 301/280/15 351/323/15 696/323/15 697/280/15
f 327/284/52 217/174/52 174/173/52 326/325/52
f 226/368/53 151/369/53 575/369/53 574/368/53
f 191/360/52 275/271/52 327/284/52 325/283/52
f 275/271/52 147/175/52 217/174/52 327/284/52
f 387/189/3 324/367/3 655/367/3 751/189/3
f 156/370/52 237/361/52 328/371/52 272/285/52
f 237/361/52 191/360/52 325/283/52 328/371/52
f 234/267/52 329/366/52 239/233/52 142/232/52
f 286/289/3 363/288/3 722/288/3 720/289/3
f 275/271/3 191/360/3 612/360/3 611/271/3
f 375/266/3 282/282/3 728/282/3 739/266/3
f 187/372/52 271/352/52 330/362/52 322/373/52
f 271/352/52 149/374/52 246/363/52 330/362/52
f 350/375/2 265/376/2 695/376/2 693/375/2
f 155/242/52 233/241/52 331/377/52 268/307/52
f 233/241/52 187/372/52 322/373/52 331/377/52
f 230/260/52 332/358/52 243/225/52 146/224/52
f 326/325/53 387/189/53 751/189/53 651/325/53
f 314/347/3 338/346/3 670/346/3 671/347/3
f 274/378/3 190/277/3 610/277/3 609/378/3
f 284/287/53 375/266/53 739/266/53 724/287/53
f 267/258/52 150/257/52 247/356/52 333/355/52
f 264/379/52 334/353/52 319/354/52 182/380/52
f 154/253/52 229/313/52 334/353/52 264/379/52
f 229/313/52 184/312/52 318/345/52 334/353/52
f 226/368/52 335/381/52 220/382/52 151/369/52
f 182/380/52 319/354/52 335/381/52 226/368/52
f 319/354/52 198/321/52 317/383/52 335/381/52
f 150/257/2 224/304/2 572/304/2 573/257/2
f 234/267/15 188/286/15 606/286/15 641/267/15
f 263/248/52 143/183/52 213/182/52 336/350/52
f 260/331/52 337/384/52 315/385/52 179/386/52
f 153/245/52 225/329/52 337/384/52 260/331/52
f 363/288/15 220/382/15 664/382/15 722/288/15
f 222/387/52 338/346/52 221/349/52 152/388/52
f 179/386/52 315/385/52 338/346/52 222/387/52
f 273/389/53 189/390/53 608/390/53 607/389/53
f 189/390/3 281/391/3 618/391/3 608/390/3
f 180/336/52 262/246/52 339/330/52 311/343/52
f 262/246/52 153/245/52 260/331/52 339/330/52
f 187/372/3 233/241/3 578/241/3 620/372/3
f 188/286/15 272/285/15 605/285/15 606/286/15
f 224/304/52 180/336/52 311/343/52 340/305/52
f 338/346/15 315/385/15 669/385/15 670/346/15
f 166/357/52 312/322/52 341/339/52 208/392/52
f 312/322/52 197/344/52 310/340/52 341/339/52
f 308/393/52 342/394/52 309/395/52 196/396/52
f 161/196/52 242/195/52 342/394/52 308/393/52
f 242/195/52 145/194/52 261/397/52 342/394/52
f 374/398/2 235/399/2 579/399/2 738/398/2
f 137/198/52 203/197/52 343/400/52 258/315/52
f 203/197/52 161/196/52 308/393/52 343/400/52
f 219/256/52 344/334/52 224/304/52 150/257/52
f 313/401/3 197/344/3 629/344/3 631/401/3
f 302/402/15 350/375/15 693/375/15 694/402/15
f 222/387/53 152/388/53 571/388/53 570/387/53
f 172/192/52 253/191/52 345/332/52 305/403/52
f 253/191/52 133/170/52 201/186/52 345/332/52
f 386/235/3 321/359/3 661/359/3 750/235/3
f 145/194/52 215/193/52 346/404/52 261/397/52
f 215/193/52 172/192/52 305/403/52 346/404/52
f 223/244/52 347/326/52 225/329/52 153/245/52
f 257/293/3 362/292/3 719/292/3 721/293/3
f 278/276/2 374/398/2 738/398/2 613/276/2
f 312/322/3 166/357/3 586/357/3 630/322/3
f 323/365/53 386/235/53 750/235/53 657/365/53
f 231/262/15 186/300/15 622/300/15 576/262/15
f 214/210/52 348/405/52 303/406/52 171/211/52
f 144/209/52 228/319/52 348/405/52 214/210/52
f 362/292/3 286/289/3 720/289/3 719/292/3
f 252/212/52 349/407/52 209/408/52 140/213/52
f 171/211/52 303/406/52 349/407/52 252/212/52
f 197/344/15 311/343/15 628/343/15 629/344/15
f 300/324/52 350/375/52 302/402/52 195/409/52
f 157/204/52 238/203/52 350/375/52 300/324/52
f 238/203/52 141/202/52 265/376/52 350/375/52
f 202/206/52 351/323/52 301/280/52 160/207/52
f 134/187/52 199/205/52 351/323/52 202/206/52
f 199/205/52 157/204/52 300/324/52 351/323/52
f 241/208/52 352/238/52 228/319/52 144/209/52
f 160/207/52 301/280/52 352/238/52 241/208/52
f 230/260/15 185/308/15 604/308/15 640/260/15
f 167/341/15 310/340/15 627/340/15 588/341/15
f 168/200/52 249/199/52 353/314/52 297/410/52
f 249/199/52 137/198/52 258/315/52 353/314/52
f 349/407/15 303/406/15 690/406/15 691/407/15
f 141/202/52 211/201/52 354/411/52 265/376/52
f 211/201/52 168/200/52 297/410/52 354/411/52
f 227/252/52 355/310/52 229/313/52 154/253/52
f 385/412/2 208/392/2 676/392/2 749/412/2
f 185/308/15 268/307/15 603/307/15 604/308/15
f 337/384/15 225/329/15 638/329/15 668/384/15
f 209/408/15 349/407/15 691/407/15 692/408/15
f 270/263/52 155/242/52 268/307/52 356/306/52
f 218/218/52 357/413/52 294/414/52 175/219/52
f 148/217/52 232/415/52 357/413/52 218/218/52
f 318/345/15 184/312/15 602/312/15 632/345/15
f 256/220/52 358/302/52 254/221/52 135/188/52
f 175/219/52 294/414/52 358/302/52 256/220/52
f 317/383/2 385/412/2 749/412/2 665/383/2
f 290/295/52 359/298/52 292/301/52 194/296/52
f 228/319/2 183/318/2 600/318/2 639/319/2
f 361/416/2 289/417/2 718/417/2 717/416/2
f 206/214/52 360/294/52 291/297/52 164/215/52
f 140/213/52 209/408/52 360/294/52 206/214/52
f 315/385/15 337/384/15 668/384/15 669/385/15
f 245/216/52 361/416/52 232/415/52 148/217/52
f 164/215/52 291/297/52 361/416/52 245/216/52
f 291/297/52 194/296/52 289/417/52 361/416/52
f 286/289/52 362/292/52 288/272/52 193/290/52
f 184/312/2 267/258/2 601/258/2 602/312/2
f 183/318/2 266/254/2 599/254/2 600/318/2
f 269/299/52 363/288/52 287/291/52 186/300/52
f 151/369/52 220/382/52 363/288/52 269/299/52
f 277/274/53 373/270/53 737/270/53 733/274/53
f 308/393/53 196/396/53 626/396/53 625/393/53
f 182/380/53 226/368/53 574/368/53 598/380/53
f 373/270/53 275/271/53 611/271/53 737/270/53
f 348/405/15 228/319/15 639/319/15 689/405/15
f 190/277/52 274/378/52 364/250/52 283/249/52
f 274/378/52 156/370/52 272/285/52 364/250/52
f 225/329/2 181/328/2 596/328/2 638/329/2
f 149/374/52 236/278/52 365/418/52 246/363/52
f 236/278/52 190/277/52 283/249/52 365/418/52
f 207/236/52 366/281/52 250/229/52 138/228/52
f 232/415/15 361/416/15 717/416/15 711/415/15
f 263/248/53 336/350/53 666/350/53 595/248/53
f 264/379/53 182/380/53 598/380/53 597/379/53
f 167/341/52 248/419/52 367/420/52 279/269/52
f 248/419/52 152/388/52 273/389/52 367/420/52
f 257/293/52 368/279/52 280/265/52 176/264/52
f 156/370/3 274/378/3 609/378/3 580/370/3
f 210/342/52 167/341/52 279/269/52 368/279/52
f 303/406/15 348/405/15 689/405/15 690/406/15
f 384/239/3 314/347/3 671/347/3 748/239/3
f 280/265/52 192/268/52 278/276/52 369/275/52
f 290/295/3 360/294/3 716/294/3 715/295/3
f 336/350/53 316/351/53 667/351/53 666/350/53
f 259/240/52 139/179/52 205/178/52 370/273/52
f 273/389/52 371/421/52 276/422/52 189/390/52
f 152/388/52 221/349/52 371/421/52 273/389/52
f 181/328/2 263/248/2 595/248/2 596/328/2
f 235/399/52 372/423/52 237/361/52 156/370/52
f 189/390/52 276/422/52 372/423/52 235/399/52
f 316/351/53 384/239/53 748/239/53 667/351/53
f 335/381/2 317/383/2 665/383/2 663/381/2
f 372/423/15 276/422/15 735/422/15 736/423/15
f 277/274/52 163/177/52 244/176/52 373/270/52
f 179/386/3 313/401/3 631/401/3 594/386/3
f 192/268/52 281/391/52 374/398/52 278/276/52
f 281/391/52 189/390/52 235/399/52 374/398/52
f 282/282/52 375/266/52 212/231/52 169/230/52
f 360/294/15 209/408/15 692/408/15 716/294/15
f 284/287/52 188/286/52 234/267/52 375/266/52
f 285/337/52 376/338/52 271/352/52 187/372/52
f 193/290/52 288/272/52 376/338/52 285/337/52
f 149/374/3 271/352/3 645/352/3 582/374/3
f 237/361/15 372/423/15 736/423/15 642/361/15
f 194/296/52 292/301/52 377/261/52 289/417/52
f 292/301/52 186/300/52 231/262/52 377/261/52
f 293/303/52 378/259/52 216/223/52 173/222/52
f 383/424/2 222/387/2 570/387/2 747/424/2
f 295/309/52 185/308/52 230/260/52 378/259/52
f 296/311/52 379/255/52 267/258/52 184/312/52
f 221/349/2 178/348/2 592/348/2 637/349/2
f 298/317/52 177/316/52 219/256/52 379/255/52
f 299/237/52 380/251/52 266/254/52 183/318/52
f 195/409/52 302/402/52 380/251/52 299/237/52
f 260/331/53 179/386/53 594/386/53 593/331/53
f 310/340/2 383/424/2 747/424/2 627/340/2
f 269/299/3 359/298/3 714/298/3 644/299/3
f 220/382/15 335/381/15 663/381/15 664/382/15
f 304/327/52 381/247/52 263/248/52 181/328/52
f 178/348/2 259/240/2 591/240/2 592/348/2
f 306/333/52 159/185/52 240/184/52 381/247/52
f 307/335/52 382/243/52 262/246/52 180/336/52
f 196/396/52 309/395/52 382/243/52 307/335/52
f 151/369/53 269/299/53 644/299/53 575/369/53
f 304/327/3 347/326/3 686/326/3 688/327/3
f 197/344/52 313/401/52 383/424/52 310/340/52
f 313/401/52 179/386/52 222/387/52 383/424/52
f 314/347/52 384/239/52 259/240/52 178/348/52
f 219/256/15 177/316/15 590/316/15 636/256/15
f 316/351/52 170/181/52 251/180/52 384/239/52
f 359/298/3 290/295/3 715/295/3 714/298/3
f 198/321/52 320/320/52 385/412/52 317/383/52
f 320/320/52 166/357/52 208/392/52 385/412/52
f 321/359/52 386/235/52 204/227/52 162/226/52
f 371/421/15 221/349/15 637/349/15 734/421/15
f 323/365/52 165/364/52 207/236/52 386/235/52
f 324/367/52 387/189/52 200/190/52 158/234/52
f 347/326/3 223/244/3 687/244/3 686/326/3
f 326/325/52 174/173/52 255/172/52 387/189/52
f 289/417/2 377/261/2 741/261/2 718/417/2
f 281/391/3 192/268/3 615/268/3 618/391/3
f 341/339/53 210/342/53 389/342/53 674/339/53
f 353/314/53 298/317/53 452/317/53 699/314/53
f 235/399/53 156/370/53 580/370/53 579/399/53
f 272/285/2 328/371/2 511/371/2 605/285/2
f 208/392/2 341/339/2 674/339/2 676/392/2
f 236/278/3 149/374/3 582/374/3 581/278/3
f 328/371/2 325/283/2 471/283/2 511/371/2
f 297/410/2 353/314/2 699/314/2 451/410/2
f 295/309/53 378/259/53 742/259/53 450/309/53
f 246/363/2 365/418/2 547/418/2 583/363/2
f 247/356/15 150/257/15 573/257/15 585/356/15
f 378/259/3 293/303/3 496/303/3 742/259/3
f 309/395/15 342/394/15 677/394/15 505/395/15
f 365/418/2 283/249/2 443/249/2 547/418/2
f 285/337/53 187/372/53 620/372/53 619/337/53
f 152/388/3 248/419/3 587/419/3 571/388/3
f 329/366/3 234/267/3 641/267/3 512/366/3
f 324/367/3 329/366/3 512/366/3 655/367/3
f 265/376/2 354/411/2 536/411/2 695/376/2
f 298/317/53 379/255/53 743/255/53 452/317/53
f 186/300/2 287/291/2 621/291/2 622/300/2
f 342/394/2 261/397/2 415/397/2 677/394/2
f 366/281/3 207/236/3 635/236/3 548/281/3
f 330/362/53 323/365/53 657/365/53 656/362/53
f 354/411/2 297/410/2 451/410/2 536/411/2
f 379/255/3 296/311/3 498/311/3 743/255/3
f 282/282/3 366/281/3 548/281/3 728/282/3
f 322/373/2 330/362/2 656/362/2 469/373/2
f 258/315/2 343/400/2 525/400/2 589/315/2
f 355/310/3 227/252/3 480/252/3 537/310/3
f 380/251/15 302/402/15 694/402/15 744/251/15
f 195/409/53 299/237/53 648/237/53 624/409/53
f 343/400/2 308/393/2 625/393/2 525/400/2
f 279/269/2 367/420/2 549/420/2 614/269/2
f 296/311/3 355/310/3 537/310/3 498/311/3
f 367/420/2 273/389/2 607/389/2 549/420/2
f 165/364/15 246/363/15 583/363/15 584/364/15
f 356/306/53 295/309/53 450/309/53 706/306/53
f 227/252/3 380/251/3 744/251/3 480/252/3
f 268/307/2 331/377/2 514/377/2 603/307/2
f 166/357/15 247/356/15 585/356/15 586/357/15
f 270/263/53 356/306/53 706/306/53 427/263/53
f 207/236/15 165/364/15 584/364/15 635/236/15
f 344/334/3 219/256/3 636/256/3 526/334/3
f 210/342/53 368/279/53 730/279/53 389/342/53
f 331/377/2 322/373/2 469/373/2 514/377/2
f 307/335/3 344/334/3 526/334/3 649/335/3
f 368/279/3 257/293/3 721/293/3 730/279/3
f 248/419/3 167/341/3 588/341/3 587/419/3
f 345/332/53 306/333/53 456/333/53 682/332/53
f 294/414/15 357/413/15 709/413/15 497/414/15
f 369/275/53 236/278/53 581/278/53 731/275/53
f 332/358/3 230/260/3 640/260/3 515/358/3
f 357/413/15 232/415/15 711/415/15 709/413/15
f 305/403/2 345/332/2 682/332/2 455/403/2
f 280/265/53 369/275/53 731/275/53 616/265/53
f 321/359/3 332/358/3 515/358/3 661/359/3
f 306/333/53 381/247/53 745/247/53 456/333/53
f 333/355/53 320/320/53 634/320/53 662/355/53
f 381/247/3 304/327/3 688/327/3 745/247/3
f 267/258/53 333/355/53 662/355/53 601/258/53
f 370/273/53 277/274/53 733/274/53 732/273/53
f 358/302/15 294/414/15 497/414/15 712/302/15
f 300/324/53 195/409/53 624/409/53 623/324/53
f 261/397/2 346/404/2 528/404/2 415/397/2
f 259/240/53 370/273/53 732/273/53 591/240/53
f 154/253/53 264/379/53 597/379/53 643/253/53
f 382/243/15 309/395/15 505/395/15 746/243/15
f 196/396/53 307/335/53 649/335/53 626/396/53
f 346/404/2 305/403/2 455/403/2 528/404/2
f 293/303/3 358/302/3 712/302/3 496/303/3
f 266/254/2 154/253/2 643/253/2 599/254/2
f 223/244/3 382/243/3 746/243/3 687/244/3
f 276/422/15 371/421/15 734/421/15 735/422/15
f 177/316/15 258/315/15 589/315/15 590/316/15
usemtl M_Cyan
f 887/604/52 752/586/52 753/607/52 759/608/52
f 885/430/52 888/529/52 889/530/52 886/479/52
f 883/609/52 884/519/52 815/520/52 757/610/52
f 882/504/52 755/611/52 756/499/52 936/510/52
f 880/526/52 893/502/52 894/503/52 881/522/52
f 878/538/52 767/612/52 768/546/52 933/542/52
f 877/544/52 769/613/52 770/614/52 818/539/52
f 873/601/52 908/558/52 909/515/52 874/516/52
f 871/599/52 772/598/52 773/615/52 774/616/52
f 866/617/52 870/511/52 916/549/52 867/508/52
f 954/592/52 777/493/52 766/618/52 814/426/52
f 863/425/52 778/619/52 779/620/52 823/433/52
f 860/463/52 781/464/52 782/621/52 783/622/52
f 949/496/52 918/497/52 825/495/52 826/490/52
f 948/507/52 763/469/52 764/623/52 827/467/52
f 859/517/52 785/624/52 758/625/52 809/523/52
f 858/527/52 786/626/52 787/627/52 829/518/52
f 855/628/52 857/454/52 830/455/52 788/629/52
f 853/540/52 789/541/52 790/630/52 791/631/52
f 851/556/52 919/557/52 832/488/52 793/632/52
f 946/587/52 761/543/52 762/633/52 833/443/52
f 847/582/52 901/465/52 902/466/52 848/483/52
f 846/578/52 795/634/52 796/635/52 836/579/52
f 943/573/52 798/575/52 760/636/52 811/574/52
f 841/569/52 799/431/52 800/637/52 801/638/52
f 839/457/52 804/458/52 805/639/52 806/640/52
f 804/458/52 941/468/52 808/473/52 805/639/52
f 907/428/52 839/457/52 806/640/52 807/427/52
f 807/427/52 806/640/52 840/445/52 932/451/52
f 806/640/52 805/639/52 838/444/52 840/445/52
f 799/431/52 942/432/52 803/438/52 800/637/52
f 906/435/52 841/569/52 801/638/52 802/434/52
f 802/434/52 801/638/52 842/570/52 931/555/52
f 801/638/52 800/637/52 837/571/52 842/570/52
f 844/478/52 843/572/52 925/566/52 924/565/52
f 905/441/52 904/442/52 843/572/52 844/478/52
f 795/634/52 845/577/52 797/576/52 796/635/52
f 835/460/52 903/461/52 845/577/52 795/634/52
f 929/568/52 835/460/52 795/634/52 846/578/52
f 836/579/52 796/635/52 834/581/52 944/580/52
f 921/562/52 847/582/52 848/483/52 922/563/52
f 850/487/52 849/583/52 923/564/52 897/486/52
f 891/524/52 890/525/52 849/583/52 850/487/52
f 752/586/52 945/585/52 754/584/52 753/607/52
f 899/476/52 851/556/52 793/632/52 794/475/52
f 794/475/52 793/632/52 852/550/52 927/552/52
f 793/632/52 832/488/52 940/489/52 852/550/52
f 789/541/52 947/547/52 792/456/52 790/630/52
f 761/543/52 853/540/52 791/631/52 762/633/52
f 762/633/52 791/631/52 854/536/52 812/436/52
f 791/631/52 790/630/52 831/450/52 854/536/52
f 786/626/52 855/628/52 788/629/52 787/627/52
f 828/447/52 856/448/52 855/628/52 786/626/52
f 856/448/52 934/535/52 857/454/52 855/628/52
f 930/528/52 828/447/52 786/626/52 858/527/52
f 829/518/52 787/627/52 785/624/52 859/517/52
f 826/490/52 825/495/52 939/484/52 950/485/52
f 781/464/52 951/474/52 784/477/52 782/621/52
f 763/469/52 860/463/52 783/622/52 764/623/52
f 764/623/52 783/622/52 861/453/52 813/459/52
f 783/622/52 782/621/52 824/452/52 861/453/52
f 778/619/52 862/440/52 780/446/52 779/620/52
f 766/618/52 765/439/52 862/440/52 778/619/52
f 814/426/52 766/618/52 778/619/52 863/425/52
f 823/433/52 779/620/52 822/482/52 952/588/52
f 758/625/52 757/610/52 864/590/52 821/589/52
f 757/610/52 815/520/52 935/532/52 864/590/52
f 809/523/52 758/625/52 821/589/52 953/591/52
f 760/636/52 759/608/52 865/594/52 820/593/52
f 759/608/52 753/607/52 816/595/52 865/594/52
f 811/574/52 760/636/52 820/593/52 955/596/52
f 869/512/52 866/617/52 867/508/52 892/509/52
f 917/551/52 868/505/52 866/617/52 869/512/52
f 868/505/52 937/506/52 870/511/52 866/617/52
f 772/598/52 956/597/52 776/521/52 773/615/52
f 896/492/52 871/599/52 774/616/52 775/491/52
f 775/491/52 774/616/52 872/600/52 926/567/52
f 774/616/52 773/615/52 819/514/52 872/600/52
f 913/560/52 873/601/52 874/516/52 914/561/52
f 753/607/52 754/584/52 957/602/52 816/595/52
f 755/611/52 875/554/52 895/498/52 756/499/52
f 810/501/52 915/553/52 875/554/52 755/611/52
f 769/613/52 876/548/52 771/533/52 770/614/52
f 817/470/52 900/471/52 876/548/52 769/613/52
f 928/545/52 817/470/52 769/613/52 877/544/52
f 818/539/52 770/614/52 767/612/52 878/538/52
f 767/612/52 879/534/52 911/537/52 768/546/52
f 770/614/52 771/533/52 879/534/52 767/612/52
f 912/531/52 880/526/52 881/522/52 910/559/52
f 773/615/52 776/521/52 958/513/52 819/514/52
f 938/500/52 810/501/52 755/611/52 882/504/52
f 777/493/52 959/494/52 765/439/52 766/618/52
f 779/620/52 780/446/52 960/481/52 822/482/52
f 782/621/52 784/477/52 961/472/52 824/452/52
f 827/467/52 764/623/52 813/459/52 962/462/52
f 785/624/52 883/609/52 757/610/52 758/625/52
f 787/627/52 788/629/52 883/609/52 785/624/52
f 788/629/52 830/455/52 884/519/52 883/609/52
f 790/630/52 792/456/52 963/449/52 831/450/52
f 833/443/52 762/633/52 812/436/52 964/437/52
f 920/429/52 885/430/52 886/479/52 898/480/52
f 796/635/52 797/576/52 965/603/52 834/581/52
f 798/575/52 887/604/52 759/608/52 760/636/52
f 800/637/52 803/438/52 966/605/52 837/571/52
f 805/639/52 808/473/52 967/606/52 838/444/52
f 1029/646/38 1028/645/38 1031/647/38 1032/648/38 1033/649/38 1034/651/38 1035/653/38 1036/655/38 1037/656/38 1038/657/38 1039/658/38 1040/644/38 1041/641/38 1042/642/38 1043/662/38 1044/664/38 1045/665/38 1046/666/38 1047/667/38 1048/668/38 1049/669/38 1050/671/38 1051/673/38 1030/675/38
f 1053/677/38 1052/676/38 1055/679/38 1054/680/38
f 1057/682/38 1056/681/38 1059/683/38 1060/684/38 1058/685/38
f 1062/130/38 1061/643/38 1064/686/38 1065/687/38 1066/688/38 1063/129/38
