# Blender 4.2.3 LTS
# www.blender.org
mtllib SM_Camera.mtl
o SM_Camera
v 0.262537 0.209844 -0.262537
v 0.262537 0.209844 0.262537
v -0.262537 0.209845 -0.262537
v -0.262537 0.209845 0.262537
v 0.240477 0.192848 -0.240477
v 0.240477 0.192848 0.240477
v -0.240477 0.192848 -0.240477
v -0.240477 0.192848 0.240477
v 0.262537 0.192848 -0.262537
v 0.262537 0.192848 0.262537
v -0.262537 0.192848 -0.262537
v -0.262537 0.192848 0.262537
v 0.240477 0.223851 -0.240477
v 0.240477 0.223851 0.240477
v -0.240477 0.223851 -0.240477
v -0.240477 0.223851 0.240477
v -0.162313 0.201449 0.240477
v 0.162313 0.201449 0.240477
v 0.162313 0.215250 0.240477
v -0.162313 0.215250 0.240477
v 0.162313 0.201449 -0.240477
v -0.162313 0.201449 -0.240477
v -0.162313 0.215250 -0.240477
v 0.162313 0.215250 -0.240477
v -0.240477 0.201449 -0.162313
v -0.240477 0.201449 0.162313
v -0.240477 0.215250 0.162313
v -0.240477 0.215250 -0.162313
v 0.240477 0.201449 0.162313
v 0.240477 0.201449 -0.162313
v 0.240477 0.215250 -0.162313
v 0.240477 0.215250 0.162313
v 0.162313 0.201449 0.239644
v -0.162313 0.201449 0.239644
v -0.162313 0.215250 0.239644
v 0.162313 0.215250 0.239644
v -0.162313 0.201449 -0.239644
v 0.162313 0.201449 -0.239644
v 0.162313 0.215250 -0.239644
v -0.162313 0.215250 -0.239644
v -0.239644 0.201449 0.162313
v -0.239644 0.201449 -0.162313
v -0.239644 0.215250 -0.162313
v -0.239644 0.215250 0.162313
v 0.239644 0.201449 -0.162313
v 0.239644 0.201449 0.162313
v 0.239644 0.215250 0.162313
v 0.239644 0.215250 -0.162313
v 0.350000 0.051059 0.259180
v 0.259180 0.051059 0.350000
v 0.350000 -0.000000 0.259507
v 0.259507 -0.000000 0.350000
v 0.259180 0.051059 -0.350000
v 0.350000 0.051059 -0.259180
v 0.259507 -0.000000 -0.350000
v 0.350000 -0.000000 -0.259507
v -0.259180 0.051059 0.350000
v -0.350000 0.051059 0.259180
v -0.259507 0.000000 0.350000
v -0.350000 0.000000 0.259507
v -0.350000 0.051059 -0.259180
v -0.259180 0.051059 -0.350000
v -0.350000 0.000000 -0.259507
v -0.259507 0.000000 -0.350000
v 0.259180 0.076059 -0.350000
v 0.350000 0.076059 -0.259180
v 0.350000 0.076059 0.259180
v 0.259180 0.076059 0.350000
v -0.350000 0.076059 -0.259180
v -0.259180 0.076059 -0.350000
v -0.259180 0.076059 0.350000
v -0.350000 0.076059 0.259180
v 0.345866 0.051059 -0.254738
v 0.254738 0.051059 -0.345866
v 0.254738 0.051059 0.345866
v 0.345866 0.051059 0.254738
v -0.254738 0.051059 -0.345866
v -0.345866 0.051059 -0.254738
v -0.345866 0.051059 0.254738
v -0.254738 0.051059 0.345866
v 0.345866 0.076059 -0.254738
v 0.254738 0.076059 -0.345866
v 0.254738 0.076059 0.345866
v 0.345866 0.076059 0.254738
v -0.254738 0.076059 -0.345866
v -0.345866 0.076059 -0.254738
v -0.345866 0.076059 0.254738
v -0.254738 0.076059 0.345866
v 0.291785 0.209844 -0.291785
v 0.291785 0.209844 0.291785
v -0.291785 0.209845 -0.291785
v -0.291785 0.209845 0.291785
v 0.299894 0.209844 -0.287288
v 0.350000 0.167961 -0.259438
v 0.259438 0.167961 -0.350000
v 0.287289 0.209844 -0.299894
v 0.287289 0.209844 0.299894
v 0.259438 0.167961 0.350000
v 0.350000 0.167961 0.259438
v 0.299895 0.209844 0.287288
v -0.287288 0.209845 -0.299894
v -0.259438 0.167961 -0.350000
v -0.350000 0.167961 -0.259438
v -0.299894 0.209845 -0.287288
v -0.299894 0.209845 0.287288
v -0.350000 0.167961 0.259438
v -0.259438 0.167961 0.350000
v -0.287288 0.209845 0.299894
v 0.000000 0.377828 -0.153976
v 0.000000 0.425031 -0.083331
v -0.048455 0.223851 -0.212296
v -0.047524 0.266333 -0.208217
v -0.044767 0.307183 -0.196136
v -0.040289 0.344830 -0.176518
v -0.034263 0.377828 -0.150116
v -0.026920 0.404908 -0.117945
v -0.018543 0.425031 -0.081242
v -0.009453 0.437423 -0.041417
v -0.094480 0.223851 -0.196191
v -0.092665 0.266333 -0.192421
v -0.087289 0.307183 -0.181257
v -0.078558 0.344830 -0.163127
v -0.066808 0.377828 -0.138728
v -0.052490 0.404908 -0.108998
v -0.036156 0.425031 -0.075079
v -0.018432 0.437423 -0.038275
v -0.135768 0.223851 -0.170248
v -0.133159 0.266333 -0.166977
v -0.125433 0.307183 -0.157289
v -0.112887 0.344830 -0.141556
v -0.096003 0.377828 -0.120384
v -0.075429 0.404908 -0.094585
v -0.051956 0.425031 -0.065151
v -0.026487 0.437423 -0.033214
v -0.170248 0.223851 -0.135768
v -0.166977 0.266333 -0.133160
v -0.157289 0.307183 -0.125434
v -0.141556 0.344830 -0.112887
v -0.120383 0.377828 -0.096003
v -0.094585 0.404908 -0.075429
v -0.065151 0.425031 -0.051956
v -0.033214 0.437423 -0.026487
v -0.196191 0.223851 -0.094481
v -0.192421 0.266333 -0.092665
v -0.181257 0.307183 -0.087289
v -0.163127 0.344830 -0.078558
v -0.138728 0.377828 -0.066808
v -0.108998 0.404908 -0.052491
v -0.075079 0.425031 -0.036156
v -0.038275 0.437423 -0.018432
v -0.212296 0.223851 -0.048455
v -0.208217 0.266333 -0.047524
v -0.196136 0.307183 -0.044767
v -0.176517 0.344830 -0.040289
v -0.150116 0.377828 -0.034263
v -0.117945 0.404908 -0.026920
v -0.081242 0.425031 -0.018543
v -0.041417 0.437423 -0.009453
v -0.217755 0.223851 0.000000
v -0.213571 0.266333 0.000000
v -0.201180 0.307183 0.000000
v -0.181057 0.344830 0.000000
v -0.153976 0.377828 0.000000
v -0.120978 0.404908 -0.000000
v -0.083331 0.425031 0.000000
v -0.042482 0.437423 0.000000
v -0.212296 0.223851 0.048455
v -0.208217 0.266333 0.047524
v -0.196136 0.307183 0.044767
v -0.176518 0.344830 0.040289
v -0.150116 0.377828 0.034263
v -0.117945 0.404908 0.026920
v -0.081242 0.425031 0.018543
v -0.041417 0.437423 0.009453
v -0.196191 0.223851 0.094481
v -0.192421 0.266333 0.092665
v -0.181257 0.307183 0.087289
v -0.163127 0.344830 0.078558
v -0.138728 0.377828 0.066808
v -0.108998 0.404908 0.052491
v -0.075079 0.425031 0.036156
v -0.038275 0.437423 0.018432
v -0.170248 0.223851 0.135768
v -0.166977 0.266333 0.133160
v -0.157289 0.307183 0.125434
v -0.141556 0.344830 0.112887
v -0.120383 0.377828 0.096003
v -0.094585 0.404908 0.075429
v -0.065151 0.425031 0.051956
v -0.033214 0.437423 0.026487
v -0.135768 0.223851 0.170248
v -0.133159 0.266333 0.166977
v -0.125433 0.307183 0.157289
v -0.112887 0.344830 0.141556
v -0.096003 0.377828 0.120384
v -0.075429 0.404908 0.094585
v -0.051956 0.425031 0.065151
v -0.026487 0.437423 0.033214
v -0.094480 0.223851 0.196191
v -0.092665 0.266333 0.192421
v -0.087289 0.307183 0.181257
v -0.078558 0.344830 0.163127
v -0.066808 0.377828 0.138728
v -0.052490 0.404908 0.108998
v -0.036156 0.425031 0.075079
v -0.018432 0.437423 0.038275
v -0.048455 0.223851 0.212296
v -0.047524 0.266333 0.208217
v -0.044767 0.307183 0.196136
v -0.040289 0.344830 0.176518
v -0.034263 0.377828 0.150116
v -0.026920 0.404908 0.117945
v -0.018543 0.425031 0.081242
v -0.009453 0.437423 0.041417
v 0.000000 0.223851 0.217755
v 0.000000 0.266333 0.213571
v 0.000000 0.307183 0.201180
v 0.000000 0.344830 0.181057
v 0.000000 0.377828 0.153976
v 0.000000 0.404908 0.120979
v 0.000000 0.425031 0.083331
v 0.000000 0.437423 0.042482
v 0.048455 0.223851 0.212296
v 0.047524 0.266333 0.208217
v 0.044767 0.307183 0.196136
v 0.040289 0.344830 0.176518
v 0.034263 0.377828 0.150116
v 0.026920 0.404908 0.117945
v 0.018543 0.425031 0.081242
v 0.009453 0.437423 0.041417
v 0.094481 0.223851 0.196191
v 0.092665 0.266333 0.192421
v 0.087289 0.307183 0.181257
v 0.078558 0.344830 0.163127
v 0.066808 0.377828 0.138728
v 0.052491 0.404908 0.108998
v 0.036156 0.425031 0.075079
v 0.018432 0.437423 0.038275
v 0.135768 0.223851 0.170248
v 0.133160 0.266333 0.166977
v 0.125434 0.307183 0.157289
v 0.112887 0.344830 0.141556
v 0.096003 0.377828 0.120384
v 0.075429 0.404908 0.094585
v 0.051956 0.425031 0.065151
v 0.026487 0.437423 0.033214
v 0.170248 0.223851 0.135768
v 0.166977 0.266333 0.133160
v 0.157289 0.307183 0.125434
v 0.141556 0.344830 0.112887
v 0.120384 0.377828 0.096003
v 0.094585 0.404908 0.075429
v 0.065151 0.425031 0.051956
v 0.033214 0.437423 0.026487
v 0.000000 0.441607 0.000000
v 0.196191 0.223851 0.094481
v 0.192421 0.266333 0.092665
v 0.181257 0.307183 0.087289
v 0.163127 0.344830 0.078558
v 0.138728 0.377828 0.066808
v 0.108998 0.404908 0.052491
v 0.075079 0.425031 0.036156
v 0.038275 0.437423 0.018432
v 0.212296 0.223851 0.048455
v 0.208217 0.266333 0.047524
v 0.196136 0.307183 0.044767
v 0.176518 0.344830 0.040289
v 0.150116 0.377828 0.034263
v 0.117946 0.404908 0.026920
v 0.081242 0.425031 0.018543
v 0.041417 0.437423 0.009453
v 0.217756 0.223851 -0.000000
v 0.213572 0.266333 0.000000
v 0.201180 0.307183 0.000000
v 0.181057 0.344830 0.000000
v 0.153977 0.377828 -0.000000
v 0.120979 0.404908 0.000000
v 0.083332 0.425031 -0.000000
v 0.042482 0.437423 -0.000000
v 0.212296 0.223851 -0.048455
v 0.208217 0.266333 -0.047524
v 0.196136 0.307183 -0.044767
v 0.176518 0.344830 -0.040289
v 0.150116 0.377828 -0.034263
v 0.117946 0.404908 -0.026920
v 0.081242 0.425031 -0.018543
v 0.041417 0.437423 -0.009453
v 0.196191 0.223851 -0.094481
v 0.192421 0.266333 -0.092665
v 0.181257 0.307183 -0.087289
v 0.163127 0.344830 -0.078558
v 0.138728 0.377828 -0.066808
v 0.108998 0.404908 -0.052491
v 0.075079 0.425031 -0.036156
v 0.038275 0.437423 -0.018432
v 0.170248 0.223851 -0.135768
v 0.166977 0.266333 -0.133160
v 0.157289 0.307183 -0.125434
v 0.141556 0.344830 -0.112887
v 0.120384 0.377828 -0.096003
v 0.094585 0.404908 -0.075429
v 0.065151 0.425031 -0.051956
v 0.033214 0.437423 -0.026487
v 0.135768 0.223851 -0.170248
v 0.133160 0.266333 -0.166977
v 0.125434 0.307183 -0.157289
v 0.112887 0.344830 -0.141556
v 0.096003 0.377828 -0.120384
v 0.075429 0.404908 -0.094585
v 0.051956 0.425031 -0.065151
v 0.026487 0.437423 -0.033214
v 0.094481 0.223851 -0.196191
v 0.092665 0.266333 -0.192421
v 0.087289 0.307183 -0.181257
v 0.078558 0.344830 -0.163127
v 0.066808 0.377828 -0.138728
v 0.052491 0.404908 -0.108998
v 0.036156 0.425031 -0.075079
v 0.018432 0.437423 -0.038275
v 0.048455 0.223851 -0.212296
v 0.047524 0.266333 -0.208217
v 0.044767 0.307183 -0.196136
v 0.040289 0.344830 -0.176518
v 0.034263 0.377828 -0.150116
v 0.026920 0.404908 -0.117945
v 0.018543 0.425031 -0.081242
v 0.009453 0.437423 -0.041417
v 0.000000 0.223851 -0.217755
v 0.000000 0.266333 -0.213571
v 0.000000 0.307183 -0.201180
v 0.000000 0.344830 -0.181057
v 0.000000 0.404908 -0.120979
v 0.000000 0.437423 -0.042482
vn -0.0000 -0.0000 1.0000
vn -0.0000 1.0000 -0.0000
vn -0.0000 -1.0000 -0.0000
vn -0.0000 -0.0000 -1.0000
vn 1.0000 -0.0000 -0.0000
vn -1.0000 -0.0000 -0.0000
vn 0.7071 -0.0020 -0.7071
vn 0.7071 -0.0020 0.7071
vn -0.7071 -0.0020 -0.7071
vn -0.7071 -0.0020 0.7071
vn 0.7071 0.0045 0.7071
vn 0.7071 0.0045 -0.7071
vn -0.7071 0.0045 -0.7071
vn -0.7071 0.0045 0.7071
vn 0.7071 -0.0000 0.7071
vn -0.7071 -0.0000 0.7071
vn -0.7071 -0.0000 -0.7071
vn 0.7071 -0.0000 -0.7071
vn 0.6619 0.3517 -0.6619
vn 0.6619 0.3517 0.6619
vn -0.6619 0.3517 -0.6619
vn -0.6619 0.3517 0.6619
vn 0.6413 0.7672 -0.0000
vn -0.0000 0.7672 -0.6413
vn -0.0000 0.7672 0.6413
vn -0.6413 0.7672 -0.0000
vn -0.1072 0.2886 -0.9514
vn -0.0989 0.4691 -0.8776
vn -0.0868 0.6320 -0.7701
vn -0.0713 0.7710 -0.6328
vn -0.0530 0.8807 -0.4707
vn -0.0327 0.9564 -0.2901
vn -0.0110 0.9951 -0.0980
vn -0.1114 0.0974 -0.9890
vn -0.0326 0.9951 -0.0931
vn -0.3287 0.0974 -0.9394
vn -0.3162 0.2886 -0.9037
vn -0.2917 0.4691 -0.8336
vn -0.2560 0.6320 -0.7315
vn -0.2103 0.7710 -0.6010
vn -0.1565 0.8807 -0.4471
vn -0.0964 0.9564 -0.2756
vn -0.3388 0.7710 -0.5392
vn -0.2520 0.8807 -0.4011
vn -0.1553 0.9564 -0.2472
vn -0.0525 0.9951 -0.0835
vn -0.5295 0.0974 -0.8427
vn -0.5094 0.2886 -0.8107
vn -0.4699 0.4691 -0.7478
vn -0.4123 0.6320 -0.6562
vn -0.7037 0.0974 -0.7037
vn -0.6770 0.2886 -0.6770
vn -0.6245 0.4691 -0.6245
vn -0.5480 0.6320 -0.5480
vn -0.4503 0.7710 -0.4503
vn -0.3350 0.8807 -0.3350
vn -0.2064 0.9564 -0.2065
vn -0.0697 0.9951 -0.0697
vn -0.5392 0.7710 -0.3388
vn -0.4011 0.8807 -0.2520
vn -0.2472 0.9564 -0.1553
vn -0.0835 0.9951 -0.0525
vn -0.8427 0.0974 -0.5295
vn -0.8107 0.2886 -0.5094
vn -0.7478 0.4691 -0.4699
vn -0.6562 0.6320 -0.4123
vn -0.9037 0.2886 -0.3162
vn -0.8336 0.4691 -0.2917
vn -0.7315 0.6320 -0.2560
vn -0.6010 0.7710 -0.2103
vn -0.4471 0.8807 -0.1565
vn -0.2756 0.9564 -0.0964
vn -0.0931 0.9951 -0.0326
vn -0.9394 0.0974 -0.3287
vn -0.4707 0.8807 -0.0530
vn -0.2901 0.9564 -0.0327
vn -0.0980 0.9951 -0.0110
vn -0.9890 0.0974 -0.1114
vn -0.9514 0.2886 -0.1072
vn -0.8776 0.4691 -0.0989
vn -0.7701 0.6320 -0.0868
vn -0.6328 0.7710 -0.0713
vn -0.9514 0.2886 0.1072
vn -0.8776 0.4691 0.0989
vn -0.7701 0.6320 0.0868
vn -0.6328 0.7710 0.0713
vn -0.4707 0.8807 0.0530
vn -0.2901 0.9564 0.0327
vn -0.0980 0.9951 0.0110
vn -0.9890 0.0974 0.1114
vn -0.4471 0.8807 0.1565
vn -0.2756 0.9564 0.0964
vn -0.0931 0.9951 0.0326
vn -0.9394 0.0974 0.3287
vn -0.9037 0.2886 0.3162
vn -0.8336 0.4691 0.2917
vn -0.7315 0.6320 0.2560
vn -0.6010 0.7710 0.2103
vn -0.7478 0.4691 0.4699
vn -0.6562 0.6320 0.4123
vn -0.5392 0.7710 0.3388
vn -0.4011 0.8807 0.2520
vn -0.2472 0.9564 0.1553
vn -0.0835 0.9951 0.0525
vn -0.8427 0.0974 0.5295
vn -0.8107 0.2886 0.5094
vn -0.2064 0.9564 0.2065
vn -0.0697 0.9951 0.0697
vn -0.7037 0.0974 0.7037
vn -0.6770 0.2886 0.6770
vn -0.6245 0.4691 0.6245
vn -0.5480 0.6320 0.5480
vn -0.4503 0.7710 0.4503
vn -0.3350 0.8807 0.3350
vn -0.4123 0.6320 0.6562
vn -0.3388 0.7710 0.5392
vn -0.2520 0.8807 0.4011
vn -0.1553 0.9564 0.2472
vn -0.0525 0.9951 0.0835
vn -0.5295 0.0974 0.8427
vn -0.5094 0.2886 0.8107
vn -0.4699 0.4691 0.7478
vn -0.0326 0.9951 0.0931
vn -0.3287 0.0974 0.9394
vn -0.3162 0.2886 0.9037
vn -0.2917 0.4691 0.8336
vn -0.2560 0.6320 0.7315
vn -0.2103 0.7710 0.6010
vn -0.1565 0.8807 0.4471
vn -0.0964 0.9564 0.2756
vn -0.0868 0.6320 0.7701
vn -0.0713 0.7710 0.6328
vn -0.0530 0.8807 0.4707
vn -0.0327 0.9564 0.2901
vn -0.0110 0.9951 0.0980
vn -0.1114 0.0974 0.9890
vn -0.1072 0.2886 0.9514
vn -0.0989 0.4691 0.8776
vn 0.0110 0.9951 0.0980
vn 0.1114 0.0974 0.9890
vn 0.1072 0.2886 0.9514
vn 0.0989 0.4691 0.8776
vn 0.0868 0.6320 0.7701
vn 0.0713 0.7710 0.6328
vn 0.0530 0.8807 0.4707
vn 0.0327 0.9564 0.2901
vn 0.2103 0.7710 0.6010
vn 0.1565 0.8807 0.4471
vn 0.0964 0.9564 0.2756
vn 0.0326 0.9951 0.0931
vn 0.3287 0.0974 0.9394
vn 0.3162 0.2886 0.9037
vn 0.2917 0.4691 0.8336
vn 0.2560 0.6320 0.7315
vn 0.5295 0.0974 0.8427
vn 0.5094 0.2886 0.8107
vn 0.4699 0.4691 0.7478
vn 0.4123 0.6320 0.6562
vn 0.3388 0.7710 0.5392
vn 0.2520 0.8807 0.4011
vn 0.1553 0.9564 0.2472
vn 0.0525 0.9951 0.0835
vn 0.4503 0.7710 0.4503
vn 0.3350 0.8807 0.3350
vn 0.2065 0.9564 0.2065
vn 0.0697 0.9951 0.0697
vn 0.7037 0.0974 0.7037
vn 0.6770 0.2886 0.6770
vn 0.6245 0.4691 0.6245
vn 0.5480 0.6320 0.5480
vn 0.8107 0.2886 0.5094
vn 0.7478 0.4691 0.4699
vn 0.6562 0.6320 0.4123
vn 0.5392 0.7710 0.3388
vn 0.4011 0.8807 0.2520
vn 0.2472 0.9564 0.1553
vn 0.0835 0.9951 0.0525
vn 0.8427 0.0974 0.5295
vn 0.4471 0.8807 0.1565
vn 0.2756 0.9564 0.0964
vn 0.0931 0.9951 0.0326
vn 0.9394 0.0974 0.3287
vn 0.9037 0.2886 0.3162
vn 0.8336 0.4691 0.2917
vn 0.7315 0.6320 0.2560
vn 0.6010 0.7710 0.2103
vn 0.8776 0.4691 0.0989
vn 0.7701 0.6320 0.0868
vn 0.6328 0.7710 0.0713
vn 0.4707 0.8807 0.0530
vn 0.2901 0.9564 0.0327
vn 0.0980 0.9951 0.0110
vn 0.9890 0.0974 0.1114
vn 0.9514 0.2886 0.1072
vn 0.2901 0.9564 -0.0327
vn 0.0980 0.9951 -0.0110
vn 0.9890 0.0974 -0.1114
vn 0.9514 0.2886 -0.1072
vn 0.8776 0.4691 -0.0989
vn 0.7701 0.6320 -0.0868
vn 0.6328 0.7710 -0.0713
vn 0.4707 0.8807 -0.0530
vn 0.8336 0.4691 -0.2917
vn 0.7315 0.6320 -0.2560
vn 0.6010 0.7710 -0.2103
vn 0.4471 0.8807 -0.1565
vn 0.2756 0.9564 -0.0964
vn 0.0931 0.9951 -0.0326
vn 0.9394 0.0974 -0.3287
vn 0.9037 0.2886 -0.3162
vn 0.2472 0.9564 -0.1553
vn 0.0835 0.9951 -0.0525
vn 0.8427 0.0974 -0.5295
vn 0.8107 0.2886 -0.5094
vn 0.7478 0.4691 -0.4699
vn 0.6562 0.6320 -0.4123
vn 0.5392 0.7710 -0.3388
vn 0.4011 0.8807 -0.2520
vn 0.5480 0.6320 -0.5480
vn 0.4503 0.7710 -0.4503
vn 0.3350 0.8807 -0.3350
vn 0.2065 0.9564 -0.2065
vn 0.0697 0.9951 -0.0697
vn 0.7037 0.0974 -0.7037
vn 0.6770 0.2886 -0.6770
vn 0.6245 0.4691 -0.6245
vn 0.0525 0.9951 -0.0835
vn 0.5295 0.0974 -0.8427
vn 0.5094 0.2886 -0.8107
vn 0.4699 0.4691 -0.7478
vn 0.4123 0.6320 -0.6562
vn 0.3388 0.7710 -0.5392
vn 0.2520 0.8807 -0.4011
vn 0.1553 0.9564 -0.2472
vn 0.2560 0.6320 -0.7315
vn 0.2103 0.7710 -0.6010
vn 0.1565 0.8807 -0.4471
vn 0.0964 0.9564 -0.2756
vn 0.0326 0.9951 -0.0931
vn 0.3287 0.0974 -0.9394
vn 0.3162 0.2886 -0.9037
vn 0.2917 0.4691 -0.8336
vn 0.0110 0.9951 -0.0980
vn 0.1114 0.0974 -0.9890
vn 0.1072 0.2886 -0.9514
vn 0.0989 0.4691 -0.8776
vn 0.0868 0.6320 -0.7701
vn 0.0713 0.7710 -0.6328
vn 0.0530 0.8807 -0.4707
vn 0.0327 0.9564 -0.2901
vt 0.375000 0.782436
vt 0.625000 0.782319
vt 0.625000 0.967681
vt 0.375000 0.967564
vt 0.375000 0.282436
vt 0.375000 0.467564
vt 0.375000 0.467065
vt 0.375000 0.282935
vt 0.156237 0.531237
vt 0.156237 0.718763
vt 0.145791 0.729209
vt 0.142895 0.727603
vt 0.142895 0.522397
vt 0.145791 0.520791
vt 0.375000 0.782436
vt 0.375000 0.967065
vt 0.375000 0.782935
vt 0.375000 0.717564
vt 0.375000 0.532436
vt 0.375000 0.532935
vt 0.375000 0.717065
vt 0.625000 0.282319
vt 0.625000 0.467681
vt 0.375000 0.032935
vt 0.375000 0.217065
vt 0.375000 0.032935
vt 0.625000 0.532319
vt 0.657319 0.500000
vt 0.842681 0.500000
vt 0.875000 0.532319
vt 0.875000 0.717681
vt 0.842681 0.750000
vt 0.657319 0.750000
vt 0.625000 0.717681
vt 0.145146 0.729854
vt 0.354854 0.729854
vt 0.352603 0.732105
vt 0.354209 0.729209
vt 0.343763 0.531237
vt 0.343763 0.718763
vt 0.375000 0.217564
vt 0.375000 0.032436
vt 0.375000 0.782935
vt 0.147397 0.517895
vt 0.352603 0.517895
vt 0.354209 0.520791
vt 0.375000 0.717564
vt 0.352603 0.732105
vt 0.147397 0.732105
vt 0.625000 0.032319
vt 0.625000 0.217681
vt 0.375000 0.467657
vt 0.375000 0.282344
vt 0.354854 0.520146
vt 0.375000 0.717656
vt 0.375000 0.532344
vt 0.335885 0.542187
vt 0.335885 0.707813
vt 0.164115 0.539115
vt 0.164115 0.710885
vt 0.335885 0.539115
vt 0.335885 0.710885
vt 0.332813 0.710885
vt 0.332813 0.710885
vt 0.167187 0.539115
vt 0.332813 0.539115
vt 0.167187 0.710885
vt 0.167187 0.710885
vt 0.167187 0.539115
vt 0.164115 0.542187
vt 0.164115 0.707813
vt 0.164115 0.542187
vt 0.375000 0.217657
vt 0.375000 0.217564
vt 0.375000 0.000000
vt 0.375000 0.032436
vt 0.375000 0.032343
vt 0.375000 0.467656
vt 0.375000 0.782344
vt 0.625000 0.000000
vt 0.357105 0.522397
vt 0.357105 0.727603
vt 0.375000 0.217656
vt 0.375000 0.967656
vt 0.125000 0.532319
vt 0.141160 0.516160
vt 0.145146 0.520146
vt 0.142895 0.522397
vt 0.141160 0.733840
vt 0.125000 0.717681
vt 0.342681 0.500000
vt 0.358840 0.516160
vt 0.358840 0.733840
vt 0.342681 0.750000
vt 0.125000 0.717656
vt 0.125000 0.532344
vt 0.157344 0.500000
vt 0.342656 0.500000
vt 0.342656 0.750000
vt 0.157344 0.750000
vt 0.750000 0.375000
vt 0.750000 0.437500
vt 0.714286 0.437500
vt 0.714286 0.375000
vt 0.750000 0.312500
vt 0.714286 0.312500
vt 0.750000 0.250000
vt 0.714286 0.250000
vt 0.750000 0.187500
vt 0.714286 0.187500
vt 0.750000 0.125000
vt 0.714286 0.125000
vt 0.750000 0.062500
vt 0.714286 0.062500
vt 0.732143 0.000000
vt 0.750000 0.500000
vt 0.714286 0.500000
vt 0.696429 0.000000
vt 0.678571 0.062500
vt 0.678571 0.500000
vt 0.678571 0.437500
vt 0.678571 0.375000
vt 0.678571 0.312500
vt 0.678571 0.250000
vt 0.678571 0.187500
vt 0.678571 0.125000
vt 0.642857 0.250000
vt 0.642857 0.187500
vt 0.642857 0.125000
vt 0.642857 0.062500
vt 0.660714 0.000000
vt 0.642857 0.500000
vt 0.642857 0.437500
vt 0.642857 0.375000
vt 0.642857 0.312500
vt 0.607143 0.500000
vt 0.607143 0.437500
vt 0.607143 0.375000
vt 0.607143 0.312500
vt 0.607143 0.250000
vt 0.607143 0.187500
vt 0.607143 0.125000
vt 0.607143 0.062500
vt 0.571429 0.250000
vt 0.571429 0.187500
vt 0.571429 0.125000
vt 0.571429 0.062500
vt 0.589286 0.000000
vt 0.571429 0.500000
vt 0.571429 0.437500
vt 0.571429 0.375000
vt 0.571429 0.312500
vt 0.535714 0.437500
vt 0.535714 0.375000
vt 0.535714 0.312500
vt 0.535714 0.250000
vt 0.535714 0.187500
vt 0.535714 0.125000
vt 0.535714 0.062500
vt 0.553571 0.000000
vt 0.535714 0.500000
vt 0.500000 0.187500
vt 0.500000 0.125000
vt 0.500000 0.062500
vt 0.517857 0.000000
vt 0.500000 0.500000
vt 0.500000 0.437500
vt 0.500000 0.375000
vt 0.500000 0.312500
vt 0.500000 0.250000
vt 0.464286 0.437500
vt 0.464286 0.375000
vt 0.464286 0.312500
vt 0.464286 0.250000
vt 0.464286 0.187500
vt 0.464286 0.125000
vt 0.464286 0.062500
vt 0.482143 0.000000
vt 0.464286 0.500000
vt 0.428571 0.187500
vt 0.428571 0.125000
vt 0.428571 0.062500
vt 0.446429 0.000000
vt 0.428571 0.500000
vt 0.428571 0.437500
vt 0.428571 0.375000
vt 0.428571 0.312500
vt 0.428571 0.250000
vt 0.392857 0.375000
vt 0.392857 0.312500
vt 0.392857 0.250000
vt 0.392857 0.187500
vt 0.392857 0.125000
vt 0.392857 0.062500
vt 0.410714 0.000000
vt 0.392857 0.500000
vt 0.392857 0.437500
vt 0.357143 0.125000
vt 0.357143 0.062500
vt 0.357143 0.500000
vt 0.357143 0.437500
vt 0.357143 0.375000
vt 0.357143 0.312500
vt 0.357143 0.250000
vt 0.357143 0.187500
vt 0.321429 0.312500
vt 0.321429 0.250000
vt 0.321429 0.187500
vt 0.321429 0.125000
vt 0.321429 0.062500
vt 0.339286 0.000000
vt 0.321429 0.500000
vt 0.321429 0.437500
vt 0.321429 0.375000
vt 0.303571 0.000000
vt 0.285714 0.062500
vt 0.285714 0.500000
vt 0.285714 0.437500
vt 0.285714 0.375000
vt 0.285714 0.312500
vt 0.285714 0.250000
vt 0.285714 0.187500
vt 0.285714 0.125000
vt 0.250000 0.312500
vt 0.250000 0.250000
vt 0.250000 0.187500
vt 0.250000 0.125000
vt 0.250000 0.062500
vt 0.267857 0.000000
vt 0.250000 0.500000
vt 0.250000 0.437500
vt 0.250000 0.375000
vt 0.232143 0.000000
vt 0.214286 0.062500
vt 0.214286 0.500000
vt 0.214286 0.437500
vt 0.214286 0.375000
vt 0.214286 0.312500
vt 0.214286 0.250000
vt 0.214286 0.187500
vt 0.214286 0.125000
vt 0.178571 0.250000
vt 0.178571 0.187500
vt 0.178571 0.125000
vt 0.178571 0.062500
vt 0.196429 0.000000
vt 0.178571 0.500000
vt 0.178571 0.437500
vt 0.178571 0.375000
vt 0.178571 0.312500
vt 0.142857 0.500000
vt 0.142857 0.437500
vt 0.142857 0.375000
vt 0.142857 0.312500
vt 0.142857 0.250000
vt 0.142857 0.187500
vt 0.142857 0.125000
vt 0.142857 0.062500
vt 0.160714 0.000000
vt 0.107143 0.250000
vt 0.107143 0.187500
vt 0.107143 0.125000
vt 0.107143 0.062500
vt 0.125000 0.000000
vt 0.107143 0.500000
vt 0.107143 0.437500
vt 0.107143 0.375000
vt 0.107143 0.312500
vt 0.071429 0.437500
vt 0.071429 0.375000
vt 0.071429 0.312500
vt 0.071429 0.250000
vt 0.071429 0.187500
vt 0.071429 0.125000
vt 0.071429 0.062500
vt 0.089286 0.000000
vt 0.071429 0.500000
vt 0.035714 0.187500
vt 0.035714 0.125000
vt 0.035714 0.062500
vt 0.053571 0.000000
vt 0.035714 0.500000
vt 0.035714 0.437500
vt 0.035714 0.375000
vt 0.035714 0.312500
vt 0.035714 0.250000
vt 0.000000 0.375000
vt 0.000000 0.312500
vt 0.000000 0.250000
vt 0.000000 0.187500
vt 0.000000 0.125000
vt 0.000000 0.062500
vt 0.017857 0.000000
vt 0.000000 0.500000
vt 0.000000 0.437500
vt 1.000000 0.062500
vt 1.000000 0.125000
vt 0.964286 0.125000
vt 0.964286 0.062500
vt 0.982143 0.000000
vt 1.000000 0.437500
vt 1.000000 0.500000
vt 0.964286 0.500000
vt 0.964286 0.437500
vt 1.000000 0.375000
vt 0.964286 0.375000
vt 1.000000 0.312500
vt 0.964286 0.312500
vt 1.000000 0.250000
vt 0.964286 0.250000
vt 1.000000 0.187500
vt 0.964286 0.187500
vt 0.928571 0.375000
vt 0.928571 0.312500
vt 0.928571 0.250000
vt 0.928571 0.187500
vt 0.928571 0.125000
vt 0.928571 0.062500
vt 0.946429 0.000000
vt 0.928571 0.500000
vt 0.928571 0.437500
vt 0.892857 0.125000
vt 0.892857 0.062500
vt 0.910714 0.000000
vt 0.892857 0.500000
vt 0.892857 0.437500
vt 0.892857 0.375000
vt 0.892857 0.312500
vt 0.892857 0.250000
vt 0.892857 0.187500
vt 0.857143 0.312500
vt 0.857143 0.250000
vt 0.857143 0.187500
vt 0.857143 0.125000
vt 0.857143 0.062500
vt 0.875000 0.000000
vt 0.857143 0.500000
vt 0.857143 0.437500
vt 0.857143 0.375000
vt 0.839286 0.000000
vt 0.821429 0.062500
vt 0.821429 0.500000
vt 0.821429 0.437500
vt 0.821429 0.375000
vt 0.821429 0.312500
vt 0.821429 0.250000
vt 0.821429 0.187500
vt 0.821429 0.125000
vt 0.785714 0.312500
vt 0.785714 0.250000
vt 0.785714 0.187500
vt 0.785714 0.125000
vt 0.785714 0.062500
vt 0.803571 0.000000
vt 0.785714 0.500000
vt 0.785714 0.437500
vt 0.785714 0.375000
vt 0.767857 0.000000
s 0
usemtl M_Noir_Bleuté
f 57/1/1 59/2/1 52/3/1 50/4/1
f 53/5/2 62/6/2 77/7/2 74/8/2
f 1/9/2 2/10/2 90/11/2 100/12/2 93/13/2 89/14/2
f 57/15/2 50/4/2 75/16/2 80/17/2
f 72/18/3 69/19/3 86/20/3 87/21/3
f 53/5/4 55/22/4 64/23/4 62/6/4
f 63/27/3 64/28/3 55/29/3 56/30/3 51/31/3 52/32/3 59/33/3 60/34/3
f 97/35/2 100/12/2 90/11/2
f 105/36/2 108/37/2 92/38/2
f 3/39/5 4/40/5 12/40/5 11/39/5
f 66/41/3 67/42/3 84/24/3 81/25/3
f 68/4/3 71/1/3 88/43/3 83/16/3
f 70/6/3 65/5/3 82/8/3 85/7/3
f 3/39/2 1/9/2 89/14/2 96/44/2 101/45/2 91/46/2
f 61/19/2 58/47/2 79/21/2 78/20/2
f 2/10/2 4/40/2 92/38/2 108/48/2 97/49/2 90/11/2
f 49/42/5 51/50/5 56/51/5 54/41/5
f 61/19/6 63/27/6 60/34/6 58/18/6
f 65/5/4 70/6/4 102/52/4 95/53/4
f 101/45/2 104/54/2 91/46/2
f 69/19/6 72/47/6 106/55/6 103/56/6
f 25/57/2 26/58/2 41/58/2 42/57/2
f 2/10/6 1/9/6 9/9/6 10/10/6
f 4/40/4 2/10/4 10/10/4 12/40/4
f 1/9/1 3/39/1 11/39/1 9/9/1
f 13/59/2 15/61/2 16/62/2 14/60/2
f 20/63/5 17/64/5 34/64/5 35/63/5
f 21/65/2 22/66/2 37/66/2 38/65/2
f 17/64/2 18/67/2 33/67/2 34/64/2
f 8/62/1 6/60/1 18/67/1 17/64/1
f 6/60/1 14/60/1 19/68/1 18/67/1
f 14/60/1 16/62/1 20/63/1 19/68/1
f 16/62/1 8/62/1 17/64/1 20/63/1
f 5/59/4 7/61/4 22/66/4 21/65/4
f 7/61/4 15/61/4 23/66/4 22/66/4
f 15/61/4 13/59/4 24/69/4 23/66/4
f 13/59/4 5/59/4 21/65/4 24/69/4
f 7/61/6 8/62/6 26/58/6 25/57/6
f 8/62/6 16/62/6 27/58/6 26/58/6
f 16/62/6 15/61/6 28/57/6 27/58/6
f 15/61/6 7/61/6 25/57/6 28/57/6
f 6/60/5 5/59/5 30/70/5 29/71/5
f 5/59/5 13/59/5 31/72/5 30/70/5
f 13/59/5 14/60/5 32/71/5 31/72/5
f 14/60/5 6/60/5 29/71/5 32/71/5
f 24/69/6 21/65/6 38/65/6 39/69/6
f 29/71/2 30/70/2 45/70/2 46/71/2
f 18/67/6 19/68/6 36/68/6 33/67/6
f 28/57/1 25/57/1 42/57/1 43/57/1
f 22/66/5 23/66/5 40/66/5 37/66/5
f 32/71/4 29/71/4 46/71/4 47/71/4
f 19/68/3 20/63/3 35/63/3 36/68/3
f 26/58/4 27/58/4 44/58/4 41/58/4
f 23/66/3 24/69/3 39/69/3 40/66/3
f 30/70/1 31/72/1 48/72/1 45/70/1
f 27/58/3 28/57/3 43/57/3 44/58/3
f 31/72/3 32/71/3 47/71/3 48/72/3
f 65/5/7 95/53/7 94/73/7 66/74/7
f 98/75/8 68/75/8 67/76/8 99/77/8
f 102/78/9 70/6/9 69/19/9 103/56/9
f 71/15/10 107/79/10 106/55/10 72/47/10
f 50/75/11 52/80/11 51/50/11 49/42/11
f 55/22/12 53/5/12 54/41/12 56/51/12
f 63/27/13 61/19/13 62/6/13 64/23/13
f 59/2/14 57/1/14 58/18/14 60/34/14
f 82/8/3 65/5/3 66/41/3 81/25/3
f 68/75/3 83/75/3 84/24/3 67/42/3
f 88/43/3 71/1/3 72/18/3 87/21/3
f 70/6/3 85/7/3 86/20/3 69/19/3
f 4/40/2 3/39/2 91/46/2 104/81/2 105/82/2 92/38/2
f 67/76/5 66/74/5 94/83/5 99/77/5
f 71/15/1 68/4/1 98/84/1 107/79/1
f 49/76/2 76/26/2 75/75/2 50/75/2
f 79/21/2 58/47/2 57/15/2 80/17/2
f 61/19/2 78/20/2 77/7/2 62/6/2
f 73/25/2 54/74/2 53/5/2 74/8/2
f 49/76/2 54/74/2 73/25/2 76/26/2
f 94/85/19 95/86/19 96/87/19 93/88/19
f 98/89/20 99/90/20 100/12/20 97/35/20
f 102/91/21 103/92/21 104/54/21 101/45/21
f 106/93/22 107/94/22 108/37/22 105/36/22
f 93/13/23 100/12/23 99/95/23 94/96/23
f 101/45/24 96/44/24 95/97/24 102/98/24
f 97/49/25 108/48/25 107/99/25 98/100/25
f 105/82/26 104/81/26 103/56/26 106/55/26
f 93/88/2 96/87/2 89/14/2
usemtl M_Orange
f 76/24/5 73/25/5 81/25/5 84/26/5
f 78/20/6 79/21/6 87/21/6 86/20/6
f 80/43/1 75/16/1 83/16/1 88/17/1
f 74/8/4 77/7/4 85/7/4 82/8/4
f 76/24/15 84/26/15 83/75/15 75/75/15
f 87/21/16 79/21/16 80/43/16 88/17/16
f 78/20/17 86/20/17 85/7/17 77/7/17
f 81/25/18 73/25/18 74/8/18 82/8/18
usemtl M_Noir_Profond
f 5/59/2 6/60/2 10/10/2 9/9/2
f 7/61/2 5/59/2 9/9/2 11/39/2
f 8/62/2 7/61/2 11/39/2 12/40/2
f 6/60/2 8/62/2 12/40/2 10/10/2
usemtl M_Cyan
f 34/64/1 33/67/1 36/68/1 35/63/1
f 38/65/4 37/66/4 40/66/4 39/69/4
f 42/57/6 41/58/6 44/58/6 43/57/6
f 46/71/5 45/70/5 48/72/5 47/71/5
usemtl M_Noir_Clair
f 330/101/27 329/102/27 112/103/27 113/104/27
f 331/105/28 330/101/28 113/104/28 114/106/28
f 109/107/29 331/105/29 114/106/29 115/108/29
f 332/109/30 109/107/30 115/108/30 116/110/30
f 110/111/31 332/109/31 116/110/31 117/112/31
f 333/113/32 110/111/32 117/112/32 118/114/32
f 255/115/33 333/113/33 118/114/33
f 329/102/34 328/116/34 111/117/34 112/103/34
f 255/118/35 118/114/35 126/119/35
f 112/103/36 111/117/36 119/120/36 120/121/36
f 113/104/37 112/103/37 120/121/37 121/122/37
f 114/106/38 113/104/38 121/122/38 122/123/38
f 115/108/39 114/106/39 122/123/39 123/124/39
f 116/110/40 115/108/40 123/124/40 124/125/40
f 117/112/41 116/110/41 124/125/41 125/126/41
f 118/114/42 117/112/42 125/126/42 126/119/42
f 124/125/43 123/124/43 131/127/43 132/128/43
f 125/126/44 124/125/44 132/128/44 133/129/44
f 126/119/45 125/126/45 133/129/45 134/130/45
f 255/131/46 126/119/46 134/130/46
f 120/121/47 119/120/47 127/132/47 128/133/47
f 121/122/48 120/121/48 128/133/48 129/134/48
f 122/123/49 121/122/49 129/134/49 130/135/49
f 123/124/50 122/123/50 130/135/50 131/127/50
f 128/133/51 127/132/51 135/136/51 136/137/51
f 129/134/52 128/133/52 136/137/52 137/138/52
f 130/135/53 129/134/53 137/138/53 138/139/53
f 131/127/54 130/135/54 138/139/54 139/140/54
f 132/128/55 131/127/55 139/140/55 140/141/55
f 133/129/56 132/128/56 140/141/56 141/142/56
f 134/130/57 133/129/57 141/142/57 142/143/57
f 255/80/58 134/130/58 142/143/58
f 140/141/59 139/140/59 147/144/59 148/145/59
f 141/142/60 140/141/60 148/145/60 149/146/60
f 142/143/61 141/142/61 149/146/61 150/147/61
f 255/148/62 142/143/62 150/147/62
f 136/137/63 135/136/63 143/149/63 144/150/63
f 137/138/64 136/137/64 144/150/64 145/151/64
f 138/139/65 137/138/65 145/151/65 146/152/65
f 139/140/66 138/139/66 146/152/66 147/144/66
f 145/151/67 144/150/67 152/153/67 153/154/67
f 146/152/68 145/151/68 153/154/68 154/155/68
f 147/144/69 146/152/69 154/155/69 155/156/69
f 148/145/70 147/144/70 155/156/70 156/157/70
f 149/146/71 148/145/71 156/157/71 157/158/71
f 150/147/72 149/146/72 157/158/72 158/159/72
f 255/160/73 150/147/73 158/159/73
f 144/150/74 143/149/74 151/161/74 152/153/74
f 157/158/75 156/157/75 164/162/75 165/163/75
f 158/159/76 157/158/76 165/163/76 166/164/76
f 255/165/77 158/159/77 166/164/77
f 152/153/78 151/161/78 159/166/78 160/167/78
f 153/154/79 152/153/79 160/167/79 161/168/79
f 154/155/80 153/154/80 161/168/80 162/169/80
f 155/156/81 154/155/81 162/169/81 163/170/81
f 156/157/82 155/156/82 163/170/82 164/162/82
f 161/168/83 160/167/83 168/171/83 169/172/83
f 162/169/84 161/168/84 169/172/84 170/173/84
f 163/170/85 162/169/85 170/173/85 171/174/85
f 164/162/86 163/170/86 171/174/86 172/175/86
f 165/163/87 164/162/87 172/175/87 173/176/87
f 166/164/88 165/163/88 173/176/88 174/177/88
f 255/178/89 166/164/89 174/177/89
f 160/167/90 159/166/90 167/179/90 168/171/90
f 173/176/91 172/175/91 180/180/91 181/181/91
f 174/177/92 173/176/92 181/181/92 182/182/92
f 255/183/93 174/177/93 182/182/93
f 168/171/94 167/179/94 175/184/94 176/185/94
f 169/172/95 168/171/95 176/185/95 177/186/95
f 170/173/96 169/172/96 177/186/96 178/187/96
f 171/174/97 170/173/97 178/187/97 179/188/97
f 172/175/98 171/174/98 179/188/98 180/180/98
f 178/187/99 177/186/99 185/189/99 186/190/99
f 179/188/100 178/187/100 186/190/100 187/191/100
f 180/180/101 179/188/101 187/191/101 188/192/101
f 181/181/102 180/180/102 188/192/102 189/193/102
f 182/182/103 181/181/103 189/193/103 190/194/103
f 255/195/104 182/182/104 190/194/104
f 176/185/105 175/184/105 183/196/105 184/197/105
f 177/186/106 176/185/106 184/197/106 185/189/106
f 190/194/107 189/193/107 197/198/107 198/199/107
f 255/75/108 190/194/108 198/199/108
f 184/197/109 183/196/109 191/200/109 192/201/109
f 185/189/110 184/197/110 192/201/110 193/202/110
f 186/190/111 185/189/111 193/202/111 194/203/111
f 187/191/112 186/190/112 194/203/112 195/204/112
f 188/192/113 187/191/113 195/204/113 196/205/113
f 189/193/114 188/192/114 196/205/114 197/198/114
f 195/204/115 194/203/115 202/206/115 203/207/115
f 196/205/116 195/204/116 203/207/116 204/208/116
f 197/198/117 196/205/117 204/208/117 205/209/117
f 198/199/118 197/198/118 205/209/118 206/210/118
f 255/211/119 198/199/119 206/210/119
f 192/201/120 191/200/120 199/212/120 200/213/120
f 193/202/121 192/201/121 200/213/121 201/214/121
f 194/203/122 193/202/122 201/214/122 202/206/122
f 255/215/123 206/210/123 214/216/123
f 200/213/124 199/212/124 207/217/124 208/218/124
f 201/214/125 200/213/125 208/218/125 209/219/125
f 202/206/126 201/214/126 209/219/126 210/220/126
f 203/207/127 202/206/127 210/220/127 211/221/127
f 204/208/128 203/207/128 211/221/128 212/222/128
f 205/209/129 204/208/129 212/222/129 213/223/129
f 206/210/130 205/209/130 213/223/130 214/216/130
f 211/221/131 210/220/131 218/224/131 219/225/131
f 212/222/132 211/221/132 219/225/132 220/226/132
f 213/223/133 212/222/133 220/226/133 221/227/133
f 214/216/134 213/223/134 221/227/134 222/228/134
f 255/229/135 214/216/135 222/228/135
f 208/218/136 207/217/136 215/230/136 216/231/136
f 209/219/137 208/218/137 216/231/137 217/232/137
f 210/220/138 209/219/138 217/232/138 218/224/138
f 255/233/139 222/228/139 230/234/139
f 216/231/140 215/230/140 223/235/140 224/236/140
f 217/232/141 216/231/141 224/236/141 225/237/141
f 218/224/142 217/232/142 225/237/142 226/238/142
f 219/225/143 218/224/143 226/238/143 227/239/143
f 220/226/144 219/225/144 227/239/144 228/240/144
f 221/227/145 220/226/145 228/240/145 229/241/145
f 222/228/146 221/227/146 229/241/146 230/234/146
f 228/240/147 227/239/147 235/242/147 236/243/147
f 229/241/148 228/240/148 236/243/148 237/244/148
f 230/234/149 229/241/149 237/244/149 238/245/149
f 255/246/150 230/234/150 238/245/150
f 224/236/151 223/235/151 231/247/151 232/248/151
f 225/237/152 224/236/152 232/248/152 233/249/152
f 226/238/153 225/237/153 233/249/153 234/250/153
f 227/239/154 226/238/154 234/250/154 235/242/154
f 232/248/155 231/247/155 239/251/155 240/252/155
f 233/249/156 232/248/156 240/252/156 241/253/156
f 234/250/157 233/249/157 241/253/157 242/254/157
f 235/242/158 234/250/158 242/254/158 243/255/158
f 236/243/159 235/242/159 243/255/159 244/256/159
f 237/244/160 236/243/160 244/256/160 245/257/160
f 238/245/161 237/244/161 245/257/161 246/258/161
f 255/259/162 238/245/162 246/258/162
f 244/256/163 243/255/163 251/260/163 252/261/163
f 245/257/164 244/256/164 252/261/164 253/262/164
f 246/258/165 245/257/165 253/262/165 254/263/165
f 255/264/166 246/258/166 254/263/166
f 240/252/167 239/251/167 247/265/167 248/266/167
f 241/253/168 240/252/168 248/266/168 249/267/168
f 242/254/169 241/253/169 249/267/169 250/268/169
f 243/255/170 242/254/170 250/268/170 251/260/170
f 249/267/171 248/266/171 257/269/171 258/270/171
f 250/268/172 249/267/172 258/270/172 259/271/172
f 251/260/173 250/268/173 259/271/173 260/272/173
f 252/261/174 251/260/174 260/272/174 261/273/174
f 253/262/175 252/261/175 261/273/175 262/274/175
f 254/263/176 253/262/176 262/274/176 263/275/176
f 255/276/177 254/263/177 263/275/177
f 248/266/178 247/265/178 256/277/178 257/269/178
f 262/274/179 261/273/179 269/278/179 270/279/179
f 263/275/180 262/274/180 270/279/180 271/280/180
f 255/281/181 263/275/181 271/280/181
f 257/269/182 256/277/182 264/282/182 265/283/182
f 258/270/183 257/269/183 265/283/183 266/284/183
f 259/271/184 258/270/184 266/284/184 267/285/184
f 260/272/185 259/271/185 267/285/185 268/286/185
f 261/273/186 260/272/186 268/286/186 269/278/186
f 267/285/187 266/284/187 274/287/187 275/288/187
f 268/286/188 267/285/188 275/288/188 276/289/188
f 269/278/189 268/286/189 276/289/189 277/290/189
f 270/279/190 269/278/190 277/290/190 278/291/190
f 271/280/191 270/279/191 278/291/191 279/292/191
f 255/293/192 271/280/192 279/292/192
f 265/283/193 264/282/193 272/294/193 273/295/193
f 266/284/194 265/283/194 273/295/194 274/287/194
f 279/296/195 278/297/195 286/298/195 287/299/195
f 255/300/196 279/296/196 287/299/196
f 273/301/197 272/302/197 280/303/197 281/304/197
f 274/305/198 273/301/198 281/304/198 282/306/198
f 275/307/199 274/305/199 282/306/199 283/308/199
f 276/309/200 275/307/200 283/308/200 284/310/200
f 277/311/201 276/309/201 284/310/201 285/312/201
f 278/297/202 277/311/202 285/312/202 286/298/202
f 283/308/203 282/306/203 290/313/203 291/314/203
f 284/310/204 283/308/204 291/314/204 292/315/204
f 285/312/205 284/310/205 292/315/205 293/316/205
f 286/298/206 285/312/206 293/316/206 294/317/206
f 287/299/207 286/298/207 294/317/207 295/318/207
f 255/319/208 287/299/208 295/318/208
f 281/304/209 280/303/209 288/320/209 289/321/209
f 282/306/210 281/304/210 289/321/210 290/313/210
f 295/318/211 294/317/211 302/322/211 303/323/211
f 255/324/212 295/318/212 303/323/212
f 289/321/213 288/320/213 296/325/213 297/326/213
f 290/313/214 289/321/214 297/326/214 298/327/214
f 291/314/215 290/313/215 298/327/215 299/328/215
f 292/315/216 291/314/216 299/328/216 300/329/216
f 293/316/217 292/315/217 300/329/217 301/330/217
f 294/317/218 293/316/218 301/330/218 302/322/218
f 300/329/219 299/328/219 307/331/219 308/332/219
f 301/330/220 300/329/220 308/332/220 309/333/220
f 302/322/221 301/330/221 309/333/221 310/334/221
f 303/323/222 302/322/222 310/334/222 311/335/222
f 255/336/223 303/323/223 311/335/223
f 297/326/224 296/325/224 304/337/224 305/338/224
f 298/327/225 297/326/225 305/338/225 306/339/225
f 299/328/226 298/327/226 306/339/226 307/331/226
f 255/340/227 311/335/227 319/341/227
f 305/338/228 304/337/228 312/342/228 313/343/228
f 306/339/229 305/338/229 313/343/229 314/344/229
f 307/331/230 306/339/230 314/344/230 315/345/230
f 308/332/231 307/331/231 315/345/231 316/346/231
f 309/333/232 308/332/232 316/346/232 317/347/232
f 310/334/233 309/333/233 317/347/233 318/348/233
f 311/335/234 310/334/234 318/348/234 319/341/234
f 316/346/235 315/345/235 323/349/235 324/350/235
f 317/347/236 316/346/236 324/350/236 325/351/236
f 318/348/237 317/347/237 325/351/237 326/352/237
f 319/341/238 318/348/238 326/352/238 327/353/238
f 255/354/239 319/341/239 327/353/239
f 313/343/240 312/342/240 320/355/240 321/356/240
f 314/344/241 313/343/241 321/356/241 322/357/241
f 315/345/242 314/344/242 322/357/242 323/349/242
f 255/358/243 327/353/243 333/113/243
f 321/356/244 320/355/244 328/116/244 329/102/244
f 322/357/245 321/356/245 329/102/245 330/101/245
f 323/349/246 322/357/246 330/101/246 331/105/246
f 324/350/247 323/349/247 331/105/247 109/107/247
f 325/351/248 324/350/248 109/107/248 332/109/248
f 326/352/249 325/351/249 332/109/249 110/111/249
f 327/353/250 326/352/250 110/111/250 333/113/250
