# Blender 4.2.3 LTS
# www.blender.org
mtllib SM_Large_Screen_Pannel.mtl
o SM_Large_Screen_Pannel
v 0.049134 -0.459850 1.072089
v 0.049134 0.459850 1.072089
v 0.049134 -0.459850 -1.072089
v 0.049134 0.459850 -1.072089
v 0.049134 -0.459850 0.656158
v 0.049134 -0.459850 -0.656158
v 0.049134 0.459850 -0.656158
v 0.049134 0.459850 0.656158
v 0.049134 -0.459850 0.611661
v 0.049134 -0.459850 -0.611661
v 0.049134 0.459850 -0.611661
v 0.049134 0.459850 0.611661
v 0.049134 0.011161 -1.072089
v 0.049134 -0.011161 -1.072089
v 0.049134 0.011161 1.072089
v 0.049134 -0.011161 1.072089
v 0.049134 0.011161 -0.656158
v 0.049134 -0.011161 -0.656158
v 0.049134 0.011161 0.656158
v 0.049134 -0.011161 0.656158
v 0.049134 0.011161 -0.611661
v 0.049134 -0.011161 -0.611661
v 0.049134 0.011161 0.611661
v 0.049134 -0.011161 0.611661
v 0.049134 0.049649 0.696070
v 0.049134 0.421362 0.696070
v 0.049134 0.421362 1.041280
v 0.049134 0.049649 1.041280
v 0.049134 0.049649 -1.041280
v 0.049134 0.421362 -1.041280
v 0.049134 0.421362 -0.696070
v 0.049134 0.049649 -0.696070
v 0.049134 -0.011161 -0.573173
v 0.049134 0.011161 -0.573173
v 0.049134 0.421362 -0.573173
v 0.049134 0.421362 0.573174
v 0.049134 0.011161 0.573173
v 0.049134 -0.011161 0.573173
v 0.049134 -0.421362 0.573173
v 0.049134 -0.421362 -0.573174
v 0.049134 -0.421362 -1.041280
v 0.049134 -0.049648 -1.041280
v 0.049134 -0.049648 -0.696070
v 0.049134 -0.421362 -0.696070
v 0.049134 -0.421362 0.696070
v 0.049134 -0.049648 0.696070
v 0.049134 -0.049648 1.041280
v 0.049134 -0.421362 1.041280
v 0.037899 0.421362 0.696070
v 0.037899 0.049649 0.696070
v 0.037899 0.049649 1.041280
v 0.037899 0.421362 1.041280
v 0.037899 0.421362 -1.041280
v 0.037899 0.049649 -1.041280
v 0.037899 0.049649 -0.696070
v 0.037899 0.421362 -0.696070
v 0.037899 0.011161 -0.573173
v 0.037899 -0.011161 -0.573173
v 0.037899 -0.421362 -0.573174
v 0.037899 0.421362 -0.573173
v 0.037899 0.421362 0.573174
v 0.037899 0.011161 0.573173
v 0.037899 -0.011161 0.573173
v 0.037899 -0.421362 0.573173
v 0.037899 -0.049648 -1.041280
v 0.037899 -0.421362 -1.041280
v 0.037899 -0.421362 -0.696070
v 0.037899 -0.049648 -0.696070
v 0.037899 -0.049648 0.696070
v 0.037899 -0.421362 0.696070
v 0.037899 -0.421362 1.041280
v 0.037899 -0.049648 1.041280
v 0.030938 0.011161 1.126191
v 0.030938 0.459850 1.126191
v 0.030938 -0.011161 -1.126191
v 0.030938 -0.459850 -1.126191
v 0.030938 0.459850 -1.126191
v 0.030938 -0.011161 1.126191
v 0.030938 0.011161 -1.126191
v 0.030938 0.509847 -0.656158
v 0.030938 0.509847 -1.072089
v 0.030938 0.509847 1.072089
v 0.030938 0.509847 0.656158
v 0.030938 0.509847 -0.611661
v 0.030938 0.509847 0.611661
v -0.000000 -0.509847 0.656158
v -0.000000 -0.509847 1.072089
v -0.000000 -0.509847 -1.072089
v -0.000000 -0.509847 -0.656158
v -0.000000 -0.509847 0.611661
v -0.000000 -0.509847 -0.611661
v 0.067718 -0.011161 1.126191
v 0.067718 0.011161 1.126191
v 0.067718 -0.011161 -1.126191
v 0.067718 -0.459850 -1.126191
v 0.067718 0.459850 -1.126191
v 0.067718 0.011161 -1.126191
v 0.067718 0.459850 1.126191
v 0.067718 0.509847 0.656158
v 0.067718 0.509847 1.072089
v 0.067718 0.509847 -1.072089
v 0.067718 0.509847 -0.656158
v 0.067718 0.509847 0.611661
v 0.067718 0.509847 -0.611661
v 0.030938 0.509847 -1.097506
v 0.030938 0.474013 -1.126191
v 0.030938 0.474013 1.126191
v -0.000000 0.509847 1.097506
v 0.030938 -0.457314 -1.126191
v -0.000000 -0.509847 -1.097506
v -0.000000 -0.509847 1.097506
v 0.030938 -0.457314 1.126191
v 0.067718 0.509847 1.097506
v 0.067718 0.474013 1.126191
v 0.067718 0.474013 -1.126191
v 0.067718 -0.457314 -1.126191
v 0.067718 -0.457314 1.126191
v -0.000000 0.011161 1.126191
v -0.000000 0.459850 1.126191
v -0.000000 -0.011161 -1.126191
v -0.000000 -0.459850 -1.126191
v -0.000000 -0.459850 1.126191
v -0.000000 -0.011161 1.126191
v -0.000000 0.459850 -1.126191
v -0.000000 0.011161 -1.126191
v -0.000000 0.509847 -0.656158
v -0.000000 0.509847 -1.072089
v -0.000000 0.509847 1.072089
v -0.000000 0.509847 0.656158
v -0.000000 0.509847 -0.611661
v -0.000000 0.509847 0.611661
v -0.000000 -0.474013 1.126191
v -0.000000 0.474013 -1.126191
v -0.000000 0.509847 -1.097506
v 0.067718 0.509847 -1.097506
v -0.000000 -0.474013 -1.126191
v 0.030938 0.509847 1.097506
v -0.000000 0.474013 1.126191
v 0.030938 0.505842 -1.096179
v 0.067718 0.505842 -1.096179
v 0.067718 0.472354 -1.122985
v 0.030938 0.472354 -1.122985
v 0.067718 0.505842 1.096179
v 0.030938 0.505842 1.096179
v 0.030938 0.472354 1.122985
v 0.067718 0.472354 1.122985
v 0.030938 0.011161 1.122721
v 0.030938 0.459850 1.122721
v 0.030938 -0.011161 -1.122721
v 0.030938 -0.459850 1.126191
v 0.030938 -0.011161 1.122721
v 0.030938 0.459850 -1.122721
v 0.030938 0.011161 -1.122721
v 0.030938 0.505512 -0.656158
v 0.030938 0.505512 -1.072089
v 0.030938 0.505512 1.072089
v 0.030938 0.505512 0.656158
v 0.030938 0.505512 -0.611661
v 0.030938 0.505512 0.611661
v 0.067718 -0.011161 -1.122721
v 0.067718 -0.011161 1.122721
v 0.067718 -0.459850 1.126191
v 0.067718 0.459850 -1.122721
v 0.067718 0.011161 -1.122721
v 0.067718 0.459850 1.122721
v 0.067718 0.011161 1.122721
v 0.067718 0.505512 0.656158
v 0.067718 0.505512 1.072089
v 0.067718 0.505512 -1.072089
v 0.067718 0.505512 -0.656158
v 0.067718 0.505512 0.611661
v 0.067718 0.505512 -0.611661
v 0.067718 -0.457314 1.122721
v 0.030938 -0.457314 1.122721
v 0.030938 -0.457314 -1.122721
v 0.067718 -0.457314 -1.122721
v 0.033157 -0.459850 -0.611661
v 0.033157 -0.459850 -0.656158
v 0.033157 0.459850 0.611661
v 0.033157 0.459850 0.656158
v 0.033157 -0.011161 -0.656158
v 0.033157 -0.011161 0.656158
v 0.033157 -0.459850 0.656158
v 0.033157 -0.459850 0.611661
v 0.033157 0.459850 -0.656158
v 0.033157 0.459850 -0.611661
v 0.033157 -0.011161 -0.611661
v 0.033157 -0.011161 0.611661
v 0.033157 0.011161 -1.072089
v 0.033157 -0.011161 -1.072089
v 0.033157 0.011161 1.072089
v 0.033157 -0.011161 1.072089
v 0.033157 0.011161 -0.656158
v 0.033157 0.011161 0.656158
v 0.033157 0.011161 -0.611661
v 0.033157 0.011161 0.611661
v 0.088653 -0.509847 -0.656158
v 0.093478 -0.505022 -0.656158
v 0.088653 -0.509847 -0.611661
v 0.093478 -0.491251 -0.313582
v 0.088653 -0.509847 0.656158
v 0.093478 -0.505022 0.656158
v 0.088653 -0.509847 1.072089
v 0.093478 -0.505022 1.072089
v 0.088653 -0.509847 -1.072089
v 0.093478 -0.505022 -1.072089
v 0.088653 -0.509847 0.611661
v 0.093478 -0.491251 0.313582
v 0.088653 0.509847 -1.097506
v 0.093478 0.505022 -1.095907
v 0.093478 -0.505022 -1.095907
v 0.088653 -0.509847 -1.097506
v 0.093478 -0.505022 1.095907
v 0.088653 -0.509847 1.097506
v 0.088653 -0.011161 -1.126191
v 0.093478 -0.011161 -1.122328
v 0.093478 -0.459850 -1.122328
v 0.088653 -0.459850 -1.126191
v 0.093478 -0.011161 1.122328
v 0.088653 -0.011161 1.126191
v 0.088653 -0.459850 1.126191
v 0.093478 -0.459850 1.122328
v 0.088653 0.459850 -1.126191
v 0.093478 0.459850 -1.122328
v 0.093478 0.011161 -1.122328
v 0.088653 0.011161 -1.126191
v 0.093478 0.459850 1.122328
v 0.088653 0.459850 1.126191
v 0.088653 0.011161 1.126191
v 0.093478 0.011161 1.122328
v 0.093478 0.505022 0.656158
v 0.088653 0.509847 0.656158
v 0.088653 0.509847 1.072089
v 0.093478 0.505022 1.072089
v 0.093478 0.505022 -1.072089
v 0.088653 0.509847 -1.072089
v 0.088653 0.509847 -0.656158
v 0.093478 0.505022 -0.656158
v 0.093478 0.505022 0.611661
v 0.088653 0.509847 0.611661
v 0.088653 0.509847 -0.611661
v 0.093478 0.505022 -0.611661
v 0.093478 -0.472014 1.122328
v 0.088653 -0.474013 1.126191
v 0.093478 0.472014 -1.122328
v 0.088653 0.474013 -1.126191
v 0.093478 -0.472014 -1.122328
v 0.088653 -0.474013 -1.126191
v 0.088653 0.474013 1.126191
v 0.093478 0.472014 1.122328
v 0.093478 0.505022 1.095907
v 0.088653 0.509847 1.097506
v 0.087055 -0.459850 -0.656158
v 0.093478 -0.466273 -0.656158
v 0.093478 -0.011161 -1.077231
v 0.087055 -0.011161 -1.072089
v 0.087055 -0.459850 -1.072089
v 0.093478 -0.466273 -1.077231
v 0.087055 0.459850 0.656158
v 0.093478 0.466273 0.656158
v 0.093478 0.466273 1.077231
v 0.087055 0.459850 1.072089
v 0.087055 -0.011161 1.072089
v 0.093478 -0.011161 1.077231
v 0.093478 -0.466273 1.077231
v 0.087055 -0.459850 1.072089
v 0.087055 -0.459850 -0.611661
v 0.093478 -0.480044 -0.313582
v 0.093478 -0.466273 0.656158
v 0.087055 -0.459850 0.656158
v 0.087055 0.459850 -1.072089
v 0.093478 0.466273 -1.077231
v 0.093478 0.466273 -0.656158
v 0.087055 0.459850 -0.656158
v 0.087055 0.459850 0.611661
v 0.093478 0.466273 0.611661
v 0.093478 -0.480044 0.313582
v 0.087055 -0.459850 0.611661
v 0.093478 0.466273 -0.611661
v 0.087055 0.459850 -0.611661
v 0.087055 0.011161 -1.072089
v 0.093478 0.011161 -1.077231
v 0.093478 0.011161 1.077231
v 0.087055 0.011161 1.072089
v 0.093478 -0.505022 -0.611661
v 0.093478 -0.505022 0.611661
v 0.093478 -0.466273 0.611661
v 0.093478 -0.466273 -0.611661
v 0.091288 -0.491251 -0.313582
v 0.091288 -0.491251 0.313582
v 0.091288 -0.480044 0.313582
v 0.091288 -0.480044 -0.313582
vn -0.0000 -0.0000 1.0000
vn -0.0000 1.0000 -0.0000
vn 1.0000 -0.0000 -0.0000
vn -0.0000 -0.0000 -1.0000
vn -0.0000 -1.0000 -0.0000
vn -0.0000 0.6249 -0.7807
vn -1.0000 -0.0000 -0.0000
vn -0.0000 -0.6249 0.7807
vn -0.0000 0.6249 0.7807
vn -0.0000 -0.6249 -0.7807
vn -0.0000 -0.0003 1.0000
vn -0.0000 -0.0003 -1.0000
vn 0.6249 -0.0000 -0.7807
vn 0.6249 -0.0000 0.7807
vn 0.7071 0.7071 -0.0000
vn 0.7071 -0.7071 -0.0000
vn 0.6622 -0.4683 0.5850
vn 0.6622 0.4683 -0.5850
vn 0.6622 -0.4683 -0.5850
vn 0.6622 0.4683 0.5850
vt 0.375000 0.611424
vt 0.548815 0.578794
vt 0.548815 0.504539
vt 0.541667 0.500000
vt 0.458333 0.500000
vt 0.458333 0.500000
vt 0.541667 0.750000
vt 0.626193 0.750000
vt 0.625000 0.750000
vt 0.488100 0.611985
vt 0.511900 0.611985
vt 0.625000 0.611111
vt 0.541667 0.611111
vt 0.375000 0.638889
vt 0.375000 0.666667
vt 0.548815 0.745461
vt 0.548815 0.671206
vt 0.458333 0.666667
vt 0.375000 0.583333
vt 0.458333 0.583333
vt 0.458333 0.638889
vt 0.541667 0.666667
vt 0.541667 0.750000
vt 0.383258 0.638015
vt 0.383258 0.611985
vt 0.625000 0.666667
vt 0.617852 0.504539
vt 0.625000 0.638889
vt 0.626193 0.500000
vt 0.625000 0.500000
vt 0.373807 0.500000
vt 0.375000 0.500000
vt 0.617852 0.671206
vt 0.617852 0.745461
vt 0.625000 0.583333
vt 0.617852 0.578794
vt 0.541667 0.583333
vt 0.458333 0.611111
vt 0.616742 0.611985
vt 0.616742 0.638015
vt 0.541667 0.638889
vt 0.511900 0.638015
vt 0.488100 0.638015
vt 0.375000 0.611111
vt 0.451185 0.504539
vt 0.382148 0.504539
vt 0.451185 0.578794
vt 0.382148 0.578794
vt 0.451185 0.671206
vt 0.382148 0.671206
vt 0.458333 0.750000
vt 0.451185 0.745461
vt 0.375000 0.750000
vt 0.382148 0.745461
vt 0.375000 0.750758
vt 0.641852 0.622094
vt 0.634135 0.603703
vt 0.626711 0.722597
vt 0.628157 0.726042
vt 0.375000 0.499242
vt 0.375000 0.583333
vt 0.519114 0.571763
vt 0.481029 0.571743
vt 0.462584 0.716611
vt 0.537442 0.716615
vt 0.375000 0.750000
vt 0.375000 0.750000
vt 0.684487 0.590138
vt 0.684487 0.602500
vt 0.636142 0.609498
vt 0.636142 0.584608
vt 0.375000 0.611111
vt 0.375000 0.638889
vt 0.625000 0.440513
vt 0.684487 0.500000
vt 0.636142 0.500000
vt 0.625000 0.488858
vt 0.376586 0.440513
vt 0.480961 0.440513
vt 0.462572 0.488858
vt 0.375297 0.488858
vt 0.625000 0.499242
vt 0.623414 0.440513
vt 0.625000 0.488858
vt 0.624703 0.488858
vt 0.519039 0.440513
vt 0.537428 0.488858
vt 0.462572 0.488858
vt 0.684487 0.748717
vt 0.684487 0.750000
vt 0.636142 0.750000
vt 0.636142 0.749760
vt 0.684487 0.647500
vt 0.636142 0.640502
vt 0.636142 0.609498
vt 0.376902 0.571577
vt 0.376902 0.178499
vt 0.375000 0.000000
vt 0.375000 0.711287
vt 0.684487 0.501283
vt 0.636142 0.500240
vt 0.636142 0.500000
vt 0.684487 0.659862
vt 0.636142 0.665392
vt 0.625000 0.750758
vt 0.625000 0.666667
vt 0.125000 0.500000
vt 0.362096 0.500000
vt 0.362096 0.500507
vt 0.362096 0.586155
vt 0.362096 0.607670
vt 0.362096 0.642330
vt 0.362096 0.663845
vt 0.362096 0.749493
vt 0.362096 0.750000
vt 0.125000 0.750000
vt 0.125000 0.666667
vt 0.125000 0.638889
vt 0.125000 0.611111
vt 0.125000 0.583333
vt 0.625000 0.638889
vt 0.625000 0.638889
vt 0.458333 0.750000
vt 0.376586 0.309487
vt 0.480961 0.309487
vt 0.373807 0.750000
vt 0.458333 0.750000
vt 0.815513 0.750000
vt 0.678969 0.340369
vt 0.375000 0.500000
vt 0.375000 0.500000
vt 0.653638 0.269133
vt 0.519113 0.178683
vt 0.625000 0.000000
vt 0.695821 0.212463
vt 0.875000 0.750000
vt 0.875000 0.666667
vt 0.875000 0.638889
vt 0.875000 0.611111
vt 0.875000 0.583333
vt 0.875000 0.500000
vt 0.757548 0.382548
vt 0.625000 0.250000
vt 0.541667 0.250000
vt 0.458333 0.250000
vt 0.375000 0.250000
vt 0.304179 0.320821
vt 0.242452 0.397645
vt 0.375000 0.000000
vt 0.458333 0.000000
vt 0.541667 0.000000
vt 0.376598 0.178496
vt 0.481028 0.178663
vt 0.623414 0.309487
vt 0.519039 0.309487
vt 0.815513 0.590138
vt 0.815513 0.501283
vt 0.815513 0.748717
vt 0.815513 0.659862
vt 0.815513 0.602500
vt 0.815513 0.647500
vt 0.376889 0.440513
vt 0.375297 0.488858
vt 0.375374 0.488858
vt 0.376598 0.571574
vt 0.375377 0.716580
vt 0.375299 0.716580
vt 0.625000 0.750000
vt 0.375299 0.716579
vt 0.462584 0.716611
vt 0.625000 0.500000
vt 0.625000 0.611111
vt 0.376889 0.309487
vt 0.375000 0.487096
vt 0.625000 0.309487
vt 0.628156 0.726042
vt 0.636142 0.750000
vt 0.815513 0.500000
vt 0.537442 0.716615
vt 0.626711 0.722597
vt 0.636142 0.584608
vt 0.636142 0.500240
vt 0.362096 0.500000
vt 0.537428 0.488858
vt 0.636142 0.749760
vt 0.636142 0.665392
vt 0.375000 0.638576
vt 0.375000 0.638576
s 0
usemtl M_Noir_Clair
f 32/2/2 29/3/2 54/3/2 55/2/2
f 33/10/1 34/11/1 57/11/1 58/10/1
f 11/12/4 21/13/4 195/13/4 186/12/4
f 28/16/2 25/17/2 50/17/2 51/16/2
f 20/18/4 5/15/4 183/15/4 182/18/4
f 6/19/1 18/20/1 181/20/1 178/19/1
f 9/14/1 24/21/1 188/21/1 184/14/1
f 19/22/5 15/23/5 191/23/5 194/22/5
f 39/24/2 40/25/2 59/25/2 64/24/2
f 8/26/4 19/22/4 194/22/4 180/26/4
f 29/3/1 30/27/1 53/27/1 54/3/1
f 19/22/3 8/26/3 26/33/3 25/17/3
f 8/26/3 2/9/3 27/34/3 26/33/3
f 2/9/3 15/23/3 28/16/3 27/34/3
f 15/23/3 19/22/3 25/17/3 28/16/3
f 13/4/3 4/30/3 30/27/3 29/3/3
f 4/30/3 7/35/3 31/36/3 30/27/3
f 7/35/3 17/37/3 32/2/3 31/36/3
f 17/37/3 13/4/3 29/3/3 32/2/3
f 22/38/3 21/13/3 34/11/3 33/10/3
f 21/13/3 11/12/3 35/39/3 34/11/3
f 11/12/3 12/28/3 36/40/3 35/39/3
f 12/28/3 23/41/3 37/42/3 36/40/3
f 23/41/3 24/21/3 38/43/3 37/42/3
f 24/21/3 9/14/3 39/24/3 38/43/3
f 9/14/3 10/44/3 40/25/3 39/24/3
f 10/44/3 22/38/3 33/10/3 40/25/3
f 3/32/3 14/6/3 42/45/3 41/46/3
f 14/6/3 18/20/3 43/47/3 42/45/3
f 18/20/3 6/19/3 44/48/3 43/47/3
f 6/19/3 3/32/3 41/46/3 44/48/3
f 5/15/3 20/18/3 46/49/3 45/50/3
f 20/18/3 16/51/3 47/52/3 46/49/3
f 16/51/3 1/53/3 48/54/3 47/52/3
f 1/53/3 5/15/3 45/50/3 48/54/3
f 26/33/5 27/34/5 52/34/5 49/33/5
f 40/25/1 33/10/1 58/10/1 59/25/1
f 41/46/1 42/45/1 65/45/1 66/46/1
f 30/27/5 31/36/5 56/36/5 53/27/5
f 45/50/1 46/49/1 69/49/1 70/50/1
f 27/34/4 28/16/4 51/16/4 52/34/4
f 34/11/1 35/39/1 60/39/1 57/11/1
f 44/48/2 41/46/2 66/46/2 67/48/2
f 31/36/4 32/2/4 55/2/4 56/36/4
f 48/54/2 45/50/2 70/50/2 71/54/2
f 35/39/5 36/40/5 61/40/5 60/39/5
f 42/45/5 43/47/5 68/47/5 65/45/5
f 46/49/5 47/52/5 72/52/5 69/49/5
f 36/40/4 37/42/4 62/42/4 61/40/4
f 43/47/4 44/48/4 67/48/4 68/47/4
f 47/52/4 48/54/4 71/54/4 72/52/4
f 37/42/4 38/43/4 63/43/4 62/42/4
f 38/43/4 39/24/4 64/24/4 63/43/4
f 25/17/1 26/33/1 49/33/1 50/17/1
f 18/20/2 14/6/2 190/6/2 181/20/2
f 21/13/4 22/38/4 187/38/4 195/13/4
f 13/4/5 17/37/5 193/37/5 189/4/5
f 23/41/1 12/28/1 179/28/1 196/41/1
f 24/21/1 23/41/1 196/41/1 188/21/1
f 17/37/1 7/35/1 185/35/1 193/37/1
f 16/51/2 20/18/2 182/18/2 192/51/2
f 22/38/4 10/44/4 177/44/4 187/38/4
usemtl M_Noir_Profond
f 196/41/3 179/28/3 180/26/3 194/22/3
f 193/37/3 185/35/3 186/12/3 195/13/3
f 178/19/3 181/20/3 187/38/3 177/44/3
f 181/20/3 193/37/3 195/13/3 187/38/3
f 184/14/3 188/21/3 182/18/3 183/15/3
f 188/21/3 196/41/3 194/22/3 182/18/3
f 190/6/3 189/4/3 193/37/3 181/20/3
f 182/18/3 194/22/3 191/23/3 192/51/3
usemtl M_Noir_Bleuté
f 200/1/1 268/1/1 292/1/1 289/1/1
f 282/4/3 255/5/3 216/6/3 225/4/3
f 283/7/3 261/8/3 227/9/3 230/7/3
f 14/6/1 13/4/1 189/4/1 190/6/1
f 287/14/3 269/15/3 202/15/3 286/14/3
f 12/28/5 8/26/5 180/26/5 179/28/5
f 272/29/3 282/4/3 225/4/3 224/30/3
f 255/6/3 258/31/3 217/32/3 216/6/3
f 269/15/3 265/55/3 204/53/3 202/15/3
f 114/56/1 98/57/1 228/58/1 249/59/1
f 258/60/3 254/61/3 198/19/3 206/32/3
f 93/62/1 92/63/1 220/64/1 229/65/1
f 265/66/3 222/53/3 243/67/3 213/53/3 204/53/3
f 102/68/2 104/69/2 241/70/2 237/71/2
f 10/44/2 9/14/2 278/14/2 267/72/2
f 9/14/2 5/15/2 270/15/2 278/73/2
f 115/74/6 135/75/6 209/76/6 246/77/6
f 5/15/2 1/53/2 266/53/2 270/15/2
f 95/78/4 94/79/4 215/80/4 218/81/4
f 273/35/3 272/82/3 235/30/3 238/35/3
f 96/83/4 115/74/4 246/84/4 223/85/4
f 94/79/4 97/86/4 226/87/4 215/88/4
f 15/23/4 2/9/4 262/9/4 284/23/4
f 100/89/2 113/90/2 252/91/2 233/92/2
f 104/69/2 103/93/2 240/94/2 241/95/2
f 117/96/1 112/97/1 132/98/1 244/99/1
f 135/75/2 101/100/2 236/101/2 209/102/2
f 103/93/2 99/103/2 232/104/2 240/94/2
f 261/105/3 260/106/3 231/26/3 234/9/3
f 88/107/5 110/107/5 212/108/5 205/109/5 197/110/5 199/111/5 207/112/5 201/113/5 203/114/5 214/115/5 111/116/5 87/116/5 86/117/5 90/118/5 91/119/5 89/120/5
f 254/61/3 288/44/3 285/44/3 198/19/3
f 276/28/3 279/12/3 242/12/3 239/121/3
f 279/12/3 273/35/3 238/35/3 242/12/3
f 260/26/3 276/122/3 239/121/3 231/26/3
f 14/6/1 3/32/1 257/32/1 256/6/1
f 264/123/3 283/7/3 230/23/3 219/123/3
f 1/53/4 16/51/4 263/51/4 266/53/4
f 76/124/3 75/125/3 149/125/3
f 265/126/3 264/127/3 219/51/3 222/66/3
f 97/86/7 94/79/7 160/79/7 164/86/7
f 137/128/3 107/129/3 145/129/3 144/128/3
f 217/130/3 258/130/3 206/32/3 211/32/3 247/131/3
f 74/132/3 73/133/3 147/133/3 148/132/3
f 111/116/8 214/115/8 244/115/8 132/116/8
f 96/83/7 97/86/7 164/86/7 163/83/7
f 119/134/7 138/135/7 108/136/7 128/136/7 129/137/7 131/138/7 130/139/7 126/140/7 127/141/7 134/142/7 133/143/7 124/143/7 125/144/7 120/145/7 121/146/7 136/147/7 110/107/7 88/107/7 89/120/7 91/119/7 90/118/7 86/117/7 87/116/7 111/148/7 132/149/7 122/149/7 123/150/7 118/151/7
f 73/133/1 74/132/1 119/134/1 118/151/1
f 75/125/4 76/124/4 121/146/4 120/145/4
f 150/152/1 78/153/1 123/150/1 122/149/1
f 78/153/1 73/133/1 118/151/1 123/150/1
f 77/154/4 79/155/4 125/144/4 124/143/4
f 79/155/4 75/125/4 120/145/4 125/144/4
f 80/156/2 81/157/2 127/141/2 126/140/2
f 82/158/2 83/159/2 129/137/2 128/136/2
f 84/160/2 80/156/2 126/140/2 130/139/2
f 83/159/2 85/161/2 131/138/2 129/137/2
f 85/161/2 84/160/2 130/139/2 131/138/2
f 116/162/4 95/78/4 218/163/4 248/164/4
f 162/165/1 117/96/1 244/166/1 221/167/1
f 4/30/1 13/4/1 281/4/1 271/30/1
f 13/4/1 14/6/1 256/6/1 281/4/1
f 227/168/3 261/168/3 234/9/3 251/9/3 250/9/3
f 92/63/1 162/165/1 221/169/1 220/170/1
f 2/9/5 8/26/5 259/26/5 262/9/5
f 272/30/3 224/30/3 245/171/3 210/30/3 235/30/3
f 8/26/5 12/28/5 275/28/5 259/26/5
f 11/12/5 7/35/5 274/35/5 280/172/5
f 12/28/5 11/12/5 280/12/5 275/28/5
f 109/173/4 116/162/4 248/174/4 136/146/4
f 105/175/6 106/175/6 133/143/6 134/143/6
f 7/35/5 4/30/5 271/30/5 274/35/5
f 113/90/9 114/56/9 249/176/9 252/177/9
f 107/129/9 137/128/9 108/136/9 138/135/9
f 74/132/1 107/129/1 138/135/1 119/134/1
f 137/128/2 82/158/2 128/136/2 108/136/2
f 81/157/2 105/178/2 134/141/2 127/141/2
f 106/175/4 77/154/4 124/143/4 133/143/4
f 76/124/4 109/173/4 136/146/4 121/146/4
f 112/97/1 150/152/1 122/149/1 132/98/1
f 98/57/1 93/62/1 229/179/1 228/180/1
f 16/51/4 15/23/4 284/23/4 263/51/4
f 101/100/2 102/68/2 237/181/2 236/182/2
f 212/183/10 110/107/10 136/107/10 248/183/10
f 97/86/4 96/83/4 223/85/4 226/184/4
f 99/103/2 100/89/2 233/185/2 232/186/2
f 107/129/3 74/132/3 148/132/3 145/129/3
f 93/62/7 98/57/7 165/57/7 166/62/7
f 78/153/3 150/152/3 151/153/3
f 82/158/3 137/128/3 144/128/3 156/158/3
f 92/63/7 93/62/7 166/62/7 161/63/7
f 73/133/3 78/153/3 151/153/3 147/133/3
f 105/178/3 81/157/3 155/157/3 139/178/3
f 100/89/7 99/103/7 167/103/7 168/89/7
f 79/155/3 77/154/3 152/154/3 153/155/3
f 77/154/3 106/175/3 142/175/3 152/154/3
f 102/68/7 101/100/7 169/100/7 170/68/7
f 75/125/3 79/155/3 153/155/3 149/125/3
f 109/173/7 76/124/7 175/173/7
f 99/103/7 103/93/7 171/93/7 167/103/7
f 81/157/3 80/156/3 154/156/3 155/157/3
f 150/152/7 112/97/7 174/97/7
f 104/69/7 102/68/7 170/68/7 172/69/7
f 83/159/3 82/158/3 156/158/3 157/159/3
f 115/74/7 96/83/7 163/83/7 141/74/7
f 103/93/7 104/69/7 172/69/7 171/93/7
f 80/156/3 84/160/3 158/160/3 154/156/3
f 95/78/3 116/162/3 176/162/3
f 112/97/2 117/96/2 173/96/2 174/97/2
f 85/161/3 83/159/3 157/159/3 159/161/3
f 113/90/7 100/89/7 168/89/7 143/90/7
f 106/175/3 105/175/3 139/175/3 142/175/3
f 84/160/3 85/161/3 159/161/3 158/160/3
f 101/100/7 135/75/7 140/75/7 169/100/7
f 135/75/7 115/74/7 141/74/7 140/75/7
f 94/79/7 95/78/7 160/79/7
f 117/96/3 162/165/3 173/96/3
f 116/162/2 109/173/2 175/173/2 176/162/2
f 162/165/7 92/63/7 161/63/7
f 98/57/7 114/56/7 146/56/7 165/57/7
f 114/56/7 113/90/7 143/90/7 146/56/7
f 5/15/2 9/14/2 184/14/2 183/15/2
f 15/23/4 16/51/4 192/51/4 191/23/4
f 7/35/5 11/12/5 186/12/5 185/35/5
f 10/44/2 6/19/2 178/19/2 177/44/2
f 216/6/13 217/32/13 218/81/13 215/80/13
f 220/170/14 221/169/14 222/66/14 219/51/14
f 224/30/13 225/4/13 226/184/13 223/85/13
f 225/4/13 216/6/13 215/88/13 226/87/13
f 228/180/14 229/179/14 230/7/14 227/9/14
f 229/65/14 220/64/14 219/123/14 230/23/14
f 232/186/15 233/185/15 234/9/15 231/26/15
f 236/182/15 237/181/15 238/35/15 235/30/15
f 240/94/15 232/104/15 231/26/15 239/121/15
f 237/71/15 241/70/15 242/12/15 238/35/15
f 241/95/15 240/94/15 239/121/15 242/12/15
f 197/110/16 205/109/16 206/32/16 198/19/16
f 203/114/16 201/113/16 202/15/16 204/53/16
f 199/111/16 197/110/16 198/19/16 285/44/16
f 201/113/16 207/112/16 286/14/16 202/15/16
f 207/112/16 199/111/16 285/44/16 286/14/16
f 213/53/17 243/67/17 244/115/17 214/115/17
f 210/30/18 245/171/18 246/77/18 209/76/18
f 247/131/19 211/32/19 212/183/19 248/183/19
f 250/9/20 251/9/20 252/177/20 249/176/20
f 245/171/13 224/30/13 223/85/13 246/84/13
f 217/130/13 247/131/13 248/164/13 218/163/13
f 251/9/15 234/9/15 233/92/15 252/91/15
f 235/30/15 210/30/15 209/102/15 236/101/15
f 243/67/14 222/53/14 221/167/14 244/166/14
f 227/168/14 250/9/14 249/59/14 228/58/14
f 211/32/16 206/32/16 205/109/16 212/108/16
f 204/53/16 213/53/16 214/115/16 203/114/16
f 6/19/2 10/44/2 267/44/2 253/19/2
f 256/6/14 257/32/14 258/31/14 255/6/14
f 254/61/15 258/60/15 257/32/15 253/19/15
f 260/106/16 261/105/16 262/9/16 259/26/16
f 264/127/13 265/126/13 266/53/13 263/51/13
f 265/55/15 269/15/15 270/15/15 266/53/15
f 288/44/15 254/61/15 253/19/15 267/44/15
f 272/82/16 273/35/16 274/35/16 271/30/16
f 276/122/16 260/26/16 259/26/16 275/28/16
f 269/15/15 287/14/15 278/73/15 270/15/15
f 287/14/15 288/44/15 267/72/15 278/14/15
f 273/35/16 279/12/16 280/172/16 274/35/16
f 279/12/16 276/28/16 275/28/16 280/12/16
f 271/30/14 281/4/14 282/4/14 272/29/14
f 281/4/14 256/6/14 255/5/14 282/4/14
f 261/8/13 283/7/13 284/23/13 262/9/13
f 283/7/13 264/123/13 263/51/13 284/23/13
f 3/32/2 6/19/2 253/19/2 257/32/2
f 200/1/3 208/187/3 286/14/3 285/44/3
f 277/188/3 268/1/3 288/44/3 287/14/3
f 268/1/3 200/1/3 285/44/3 288/44/3
f 208/187/3 277/188/3 287/14/3 286/14/3
f 208/187/2 200/1/2 289/1/2 290/187/2
f 277/188/4 208/187/4 290/187/4 291/188/4
f 268/1/5 277/188/5 291/188/5 292/1/5
usemtl M_Cyan
f 50/17/3 49/33/3 52/34/3 51/16/3
f 54/3/3 53/27/3 56/36/3 55/2/3
f 58/10/3 57/11/3 60/39/3 61/40/3 62/42/3 63/43/3 64/24/3 59/25/3
f 66/46/3 65/45/3 68/47/3 67/48/3
f 70/50/3 69/49/3 72/52/3 71/54/3
f 292/1/3 291/188/3 290/187/3 289/1/3
usemtl M_Orange
f 148/132/11 147/133/11 151/153/11 150/152/11 174/97/11 173/96/11 162/165/11 161/63/11 166/62/11 165/57/11 146/56/11 145/129/11
f 139/178/2 155/157/2 154/156/2 158/160/2 159/161/2 157/159/2 156/158/2 144/128/2 143/90/2 168/89/2 167/103/2 171/93/2 172/69/2 170/68/2 169/100/2 140/75/2
f 76/124/12 149/125/12 153/155/12 152/154/12 142/175/12 141/74/12 163/83/12 164/86/12 160/79/12 95/78/12 176/162/12 175/173/12
f 139/175/6 140/75/6 141/74/6 142/175/6
f 143/90/9 144/128/9 145/129/9 146/56/9
