# Blender 4.2.3 LTS
# www.blender.org
mtllib SM_Light.mtl
o SM_Light
v 0.000000 0.250000 0.036737
v 0.000000 0.250000 -0.036736
v 0.000000 -0.250000 -0.036737
v 0.000000 -0.250000 0.036736
v 0.000000 0.083333 -0.110209
v 0.000000 -0.083333 -0.110209
v 0.000000 -0.083333 0.110209
v 0.000000 0.083333 0.110209
v 0.050000 -0.083330 0.060950
v 0.050000 -0.083330 -0.060950
v 0.050000 0.083330 -0.060950
v 0.000000 -0.083333 -0.036736
v 0.000000 0.083333 -0.036736
v 0.000000 -0.083333 0.036736
v 0.000000 0.083333 0.036736
v 0.067965 -0.083333 0.036736
v 0.120503 -0.030796 0.012716
v 0.120503 0.030796 0.012716
v 0.067965 0.083333 0.036736
v 0.120503 -0.030796 -0.012716
v 0.067965 -0.083333 -0.036736
v 0.067965 0.083333 -0.036736
v 0.120503 0.030796 -0.036736
v 0.467127 -0.211498 -0.036736
v 0.467127 -0.211498 0.036736
v 0.467127 0.211498 -0.036736
v 0.414590 0.264036 -0.036736
v 0.414590 -0.264036 0.036736
v 0.414590 -0.264036 -0.036737
v 0.414590 0.264036 0.036737
v 0.467127 0.211498 0.036736
v 0.194457 0.209825 0.036737
v 0.194457 0.209825 -0.036736
v 0.230010 0.140302 -0.012716
v 0.230010 0.140302 0.012716
v 0.194457 -0.209825 -0.036736
v 0.194457 -0.209825 0.036736
v 0.230010 -0.140302 -0.012716
v 0.230010 -0.140302 0.012716
v 0.305399 -0.201375 -0.036736
v 0.305399 -0.201375 0.036736
v 0.305399 0.201375 0.036736
v 0.305399 0.201375 -0.036736
v 0.254743 0.149540 -0.036736
v 0.254743 -0.149540 -0.036736
v 0.467127 -0.200541 -0.036736
v 0.467127 -0.200541 0.036736
v 0.467127 0.200541 0.036736
v 0.467127 0.200541 -0.036736
v 0.254743 0.149540 0.036736
v 0.254743 -0.149540 0.036736
v 0.256385 -0.171717 -0.051851
v 0.253476 -0.174856 -0.051851
v 0.248668 0.264036 -0.051851
v 0.251470 -0.248165 0.051851
v 0.248668 -0.264036 -0.051851
v 0.251470 0.248165 0.051851
v 0.253476 -0.174856 0.051851
v 0.256385 -0.171717 0.051851
v 0.213692 -0.209825 -0.051851
v 0.213692 0.209825 0.051851
v 0.253476 0.174856 -0.051851
v 0.433943 0.215336 -0.051851
v 0.398141 0.248165 -0.051851
v 0.433943 -0.215336 0.051851
v 0.398141 -0.248165 0.051851
v 0.398141 -0.248165 -0.051851
v 0.433943 -0.215336 -0.051851
v 0.398141 0.248165 0.051851
v 0.433943 0.215336 0.051851
v 0.213692 0.209825 -0.051851
v 0.253476 0.174856 0.051851
v 0.213692 -0.209825 0.051851
v 0.256385 0.171717 -0.051851
v 0.302566 0.214776 -0.051851
v 0.302566 -0.214776 -0.051851
v 0.433943 -0.213936 0.051851
v 0.302566 -0.214776 0.051851
v 0.433943 -0.213936 -0.051851
v 0.433943 0.213936 -0.051851
v 0.433943 0.213936 0.051851
v 0.302566 0.214776 0.051851
v 0.256385 0.171717 0.051851
v 0.254743 -0.149540 -0.051851
v 0.246995 -0.157288 -0.051851
v 0.246995 -0.157288 0.051851
v 0.254743 -0.149540 0.051851
v 0.194457 -0.209825 -0.051851
v 0.251470 -0.248165 -0.051851
v 0.194457 0.209825 0.051851
v 0.248668 0.264036 0.051851
v 0.248668 -0.264036 0.051851
v 0.251470 0.248165 -0.051851
v 0.194457 0.209825 -0.051851
v 0.246995 0.157288 0.051851
v 0.246995 0.157288 -0.051851
v 0.194457 -0.209825 0.051851
v 0.254743 0.149540 -0.051851
v 0.305399 0.201375 -0.051851
v 0.305399 -0.201375 -0.051851
v 0.305399 -0.201375 0.051851
v 0.305399 0.201375 0.051851
v 0.254743 0.149540 0.051851
v 0.301206 0.218227 -0.048822
v 0.251470 0.248165 -0.048822
v 0.301206 -0.218227 0.048822
v 0.251470 -0.248165 0.048822
v 0.251470 -0.248165 -0.048822
v 0.301206 -0.218227 -0.048822
v 0.251470 0.248165 0.048822
v 0.301206 0.218227 0.048822
v 0.253476 0.174856 -0.048822
v 0.253476 -0.174856 -0.048822
v 0.433943 -0.215336 0.048822
v 0.433943 -0.215336 -0.048822
v 0.433943 0.215336 -0.048822
v 0.433943 0.215336 0.048822
v 0.253476 0.174856 0.048822
v 0.253476 -0.174856 0.048822
v 0.302566 -0.214776 -0.048822
v 0.302566 0.214776 0.048822
v 0.302566 -0.214776 0.048822
v 0.302566 0.214776 -0.048822
v 0.256385 -0.171717 -0.048822
v 0.256385 -0.171717 0.048822
v 0.213692 -0.209825 -0.048822
v 0.213692 0.209825 0.048822
v 0.398141 0.248165 -0.048822
v 0.398141 -0.248165 0.048822
v 0.398141 -0.248165 -0.048822
v 0.398141 0.248165 0.048822
v 0.213692 0.209825 -0.048822
v 0.213692 -0.209825 0.048822
v 0.256385 0.171717 -0.048822
v 0.433943 -0.213936 0.048822
v 0.433943 -0.213936 -0.048822
v 0.433943 0.213936 -0.048822
v 0.433943 0.213936 0.048822
v 0.256385 0.171717 0.048822
v 0.237085 -0.292000 0.036736
v 0.237085 -0.292000 -0.036737
v 0.237085 0.292000 -0.036736
v 0.237085 0.292000 0.036737
v 0.173054 -0.231228 -0.036737
v 0.173054 0.231228 0.036737
v 0.339317 -0.294304 0.036736
v 0.339317 -0.294304 -0.036737
v 0.339317 0.294304 -0.036736
v 0.339317 0.294304 0.036737
v 0.173054 0.231228 -0.036736
v 0.173054 -0.231228 0.036736
v 0.050000 0.083333 0.060950
v 0.067965 0.083333 0.060950
v 0.120503 0.030796 0.060950
v 0.120503 0.030796 -0.060950
v 0.067965 0.083333 -0.060950
v 0.120503 -0.030796 0.060950
v 0.067965 -0.083333 0.060950
v 0.067965 -0.083333 -0.060950
v 0.120503 -0.030796 -0.060950
v 0.000000 0.250000 -0.077630
v 0.000000 0.217421 -0.110209
v 0.000000 -0.217421 -0.110209
v 0.000000 -0.250000 -0.077631
v 0.000000 0.217421 0.110209
v 0.000000 0.250000 0.077631
v 0.000000 -0.250000 0.077630
v 0.000000 -0.217421 0.110209
v 0.050000 0.217857 -0.036736
v 0.032552 0.250000 -0.036736
v 0.037123 0.245429 0.036737
v 0.050000 0.217857 0.036737
v 0.050000 -0.217857 0.036736
v 0.032552 -0.250000 0.036736
v 0.037123 -0.245429 -0.036737
v 0.050000 -0.217857 -0.036737
v 0.032552 -0.083333 0.110209
v 0.050000 -0.083333 0.078067
v 0.050000 0.083333 0.078067
v 0.032552 0.083333 0.110209
v 0.050000 -0.083333 -0.078067
v 0.032552 -0.083333 -0.110209
v 0.032552 0.083333 -0.110209
v 0.050000 0.083333 -0.078067
v 0.050000 0.204107 -0.078067
v 0.032552 0.217421 -0.110209
v 0.050000 0.217857 -0.064316
v 0.032552 0.250000 -0.077630
v 0.050000 -0.217857 -0.064317
v 0.032552 -0.250000 -0.077631
v 0.050000 -0.204107 -0.078067
v 0.032552 -0.217421 -0.110209
v 0.050000 0.217857 0.064317
v 0.032552 0.250000 0.077631
v 0.050000 0.204107 0.078067
v 0.032552 0.217421 0.110209
v 0.050000 -0.204107 0.078067
v 0.032552 -0.217421 0.110209
v 0.050000 -0.217857 0.064316
v 0.032552 -0.250000 0.077630
v 0.120503 -0.030796 0.036736
v 0.120503 0.030796 0.036736
v 0.120503 -0.030796 -0.036736
v 0.120503 0.030796 -0.012716
v 0.246995 0.157288 0.036736
v 0.246995 -0.157288 0.036736
v 0.246995 0.157288 -0.036736
v 0.246995 -0.157288 -0.036736
v 0.118434 0.031653 0.012716
v 0.118434 0.031653 -0.012716
v 0.118434 -0.031653 -0.012716
v 0.118434 -0.031653 0.012716
v 0.228426 0.141886 0.012716
v 0.228426 -0.141886 0.012716
v 0.228426 0.141886 -0.012716
v 0.228426 -0.141886 -0.012716
v 0.467127 0.211498 -0.042368
v 0.456047 0.212780 -0.051851
v 0.414590 0.264036 -0.042368
v 0.415063 0.253624 -0.051851
v 0.467127 -0.211498 0.042368
v 0.456047 -0.212780 0.051851
v 0.415063 -0.253624 0.051851
v 0.414590 -0.264036 0.042368
v 0.415063 -0.253624 -0.051851
v 0.414590 -0.264036 -0.042368
v 0.456047 -0.212780 -0.051851
v 0.467127 -0.211498 -0.042368
v 0.415063 0.253624 0.051851
v 0.414590 0.264036 0.042368
v 0.456047 0.212780 0.051851
v 0.467127 0.211498 0.042368
v 0.456108 -0.204989 0.051851
v 0.467127 -0.200541 0.042368
v 0.457644 -0.200590 0.051851
v 0.467127 -0.200541 -0.042368
v 0.456108 -0.204989 -0.051851
v 0.457644 -0.200590 -0.051851
v 0.456108 0.204989 -0.051851
v 0.467127 0.200541 -0.042368
v 0.457644 0.200590 -0.051851
v 0.467127 0.200541 0.042368
v 0.456108 0.204989 0.051851
v 0.457644 0.200590 0.051851
v 0.240975 -0.282609 0.051851
v 0.237085 -0.292000 0.042368
v 0.337570 -0.284786 0.051851
v 0.339317 -0.294304 0.042368
v 0.173054 0.231228 -0.042368
v 0.179767 0.224516 -0.051851
v 0.240975 0.282609 0.051851
v 0.237085 0.292000 0.042368
v 0.179767 0.224516 0.051851
v 0.173054 0.231228 0.042368
v 0.179767 -0.224516 -0.051851
v 0.173054 -0.231228 -0.042368
v 0.240975 -0.282609 -0.051851
v 0.237085 -0.292000 -0.042368
v 0.339317 0.294304 0.042368
v 0.337570 0.284786 0.051851
v 0.337570 0.284786 -0.051851
v 0.339317 0.294304 -0.042368
v 0.240975 0.282609 -0.051851
v 0.237085 0.292000 -0.042368
v 0.339317 -0.294304 -0.042368
v 0.337570 -0.284786 -0.051851
v 0.173054 -0.231228 0.042368
v 0.179767 -0.224516 0.051851
v 0.050000 -0.083333 0.036736
v 0.050000 0.083333 0.036736
v 0.050000 -0.083333 -0.036736
v 0.050000 0.083333 -0.036736
v 0.050000 0.232552 0.036737
v 0.050000 0.232552 -0.036736
v 0.050000 -0.232552 -0.036737
v 0.050000 -0.232552 0.036736
v 0.050000 -0.083333 0.092761
v 0.050000 0.083333 0.092761
v 0.050000 0.083333 -0.092761
v 0.050000 -0.083333 -0.092761
v 0.050000 0.210194 0.092761
v 0.045068 0.236762 0.072147
v 0.050000 -0.232552 0.070403
v 0.045068 -0.211938 0.096971
v 0.050000 0.232552 -0.070403
v 0.045068 0.211938 -0.096971
v 0.050000 -0.210194 -0.092761
v 0.045068 -0.236762 -0.072147
v 0.045502 0.217857 0.036737
v 0.045502 0.083330 0.060950
v 0.045502 0.083330 -0.060950
v 0.045502 0.217857 -0.036736
v 0.045502 0.083333 -0.078067
v 0.045502 0.083333 0.078067
v 0.045502 -0.083330 0.060950
v 0.045502 -0.217857 0.036736
v 0.045502 -0.217857 -0.036737
v 0.045502 -0.083330 -0.060950
v 0.045502 -0.083333 0.078067
v 0.045502 -0.083333 -0.078067
v 0.045502 0.204107 0.078067
v 0.045502 0.217857 0.064317
v 0.045502 -0.217857 0.064316
v 0.045502 -0.204107 0.078067
v 0.045502 0.217857 -0.064316
v 0.045502 0.204107 -0.078067
v 0.045502 -0.204107 -0.078067
v 0.045502 -0.217857 -0.064317
v 0.000000 -0.150377 0.110209
v 0.045429 -0.154244 0.097332
v 0.037123 -0.155964 0.105638
v 0.050000 -0.143720 0.078067
v 0.045502 -0.143720 0.078067
v 0.000000 -0.150377 -0.110209
v 0.045429 -0.154244 -0.097332
v 0.037123 -0.155964 -0.105638
v 0.050000 -0.143720 -0.078067
v 0.045502 -0.143720 -0.078067
v 0.000000 0.150377 0.110209
v 0.045429 0.154244 0.097332
v 0.037123 0.155964 0.105638
v 0.050000 0.143720 0.078067
v 0.045502 0.143720 0.078067
v 0.000000 0.150377 -0.110209
v 0.045429 0.154244 -0.097332
v 0.037123 0.155964 -0.105638
v 0.050000 0.143720 -0.078067
v 0.045502 0.143720 -0.078067
v 0.037123 0.245429 -0.036736
v 0.032552 0.250000 0.036737
v 0.045429 0.237123 0.036737
v 0.045429 0.237123 -0.036736
v 0.037123 -0.245429 0.036736
v 0.032552 -0.250000 -0.036737
v 0.045429 -0.237123 -0.036737
v 0.045429 -0.237123 0.036736
v 0.045068 0.211938 0.096971
v 0.050000 0.232552 0.070403
v 0.037484 0.245790 0.075887
v 0.037484 0.215677 0.105999
v 0.045068 -0.236762 0.072147
v 0.050000 -0.210194 0.092761
v 0.037484 -0.215677 0.105999
v 0.037484 -0.245790 0.075887
v 0.045068 0.236762 -0.072147
v 0.050000 0.210194 -0.092761
v 0.037484 0.215677 -0.105999
v 0.037484 0.245790 -0.075887
v 0.045068 -0.211938 -0.096971
v 0.050000 -0.232552 -0.070403
v 0.037484 -0.245790 -0.075887
v 0.037484 -0.215677 -0.105999
v 0.032552 0.150377 -0.110209
v 0.050000 -0.146764 -0.092761
v 0.050000 0.146764 0.092761
v 0.032552 -0.150377 0.110209
v 0.050000 -0.146764 0.092761
v 0.032552 -0.150377 -0.110209
v 0.032552 0.150377 0.110209
v 0.050000 0.146764 -0.092761
v 0.044029 0.235783 -0.036736
v 0.035723 0.244089 -0.036736
v 0.035723 0.244089 0.036737
v 0.044029 0.235783 0.036737
v 0.044029 -0.235783 0.036736
v 0.035723 -0.244089 0.036736
v 0.035723 -0.244089 -0.036737
v 0.044029 -0.235783 -0.036737
v 0.035979 0.215222 0.104867
v 0.043562 0.211482 0.095839
v 0.043562 0.235630 0.071691
v 0.035979 0.244658 0.075431
v 0.035979 -0.244658 0.075431
v 0.043562 -0.235630 0.071691
v 0.043562 -0.211482 0.095839
v 0.035979 -0.215222 0.104867
v 0.035979 0.244658 -0.075431
v 0.043562 0.235630 -0.071691
v 0.043562 0.211482 -0.095839
v 0.035979 0.215222 -0.104867
v 0.035979 -0.215222 -0.104867
v 0.043562 -0.211482 -0.095839
v 0.043562 -0.235630 -0.071691
v 0.035979 -0.244658 -0.075431
v 0.035694 0.155964 -0.104329
v 0.044000 -0.154244 -0.096023
v 0.044000 0.154244 0.096023
v 0.035694 -0.155964 0.104329
v 0.044000 -0.154244 0.096023
v 0.035694 -0.155964 -0.104329
v 0.035694 0.155964 0.104329
v 0.044000 0.154244 -0.096023
v 0.388239 0.179302 0.037346
v 0.388239 -0.179302 0.037346
v 0.395525 0.179302 0.036628
v 0.395525 -0.179302 0.036628
v 0.402530 0.179302 0.034503
v 0.402530 -0.179302 0.034503
v 0.408987 0.179302 0.031052
v 0.408987 -0.179302 0.031052
v 0.414646 0.179302 0.026407
v 0.414646 -0.179302 0.026407
v 0.419291 0.179302 0.020748
v 0.419291 -0.179302 0.020748
v 0.422742 0.179302 0.014292
v 0.422742 -0.179302 0.014291
v 0.424867 0.179302 0.007286
v 0.424867 -0.179302 0.007286
v 0.425585 0.179302 0.000000
v 0.425585 -0.179302 -0.000000
v 0.424867 0.179302 -0.007286
v 0.424867 -0.179302 -0.007286
v 0.422742 0.179302 -0.014291
v 0.422742 -0.179302 -0.014292
v 0.419291 0.179302 -0.020748
v 0.419291 -0.179302 -0.020748
v 0.414646 0.179302 -0.026407
v 0.414646 -0.179302 -0.026407
v 0.408987 0.179302 -0.031052
v 0.408987 -0.179302 -0.031052
v 0.402530 0.179302 -0.034503
v 0.402530 -0.179302 -0.034503
v 0.395525 0.179302 -0.036628
v 0.395525 -0.179302 -0.036628
v 0.388239 0.179302 -0.037346
v 0.388239 -0.179302 -0.037346
v 0.380953 0.179302 -0.036628
v 0.380953 -0.179302 -0.036628
v 0.373947 0.179302 -0.034503
v 0.373947 -0.179302 -0.034503
v 0.367491 0.179302 -0.031052
v 0.367491 -0.179302 -0.031052
v 0.361832 0.179302 -0.026407
v 0.361832 -0.179302 -0.026407
v 0.357187 0.179302 -0.020748
v 0.357187 -0.179302 -0.020748
v 0.353736 0.179302 -0.014291
v 0.353736 -0.179302 -0.014292
v 0.351611 0.179302 -0.007286
v 0.351611 -0.179302 -0.007286
v 0.350893 0.179302 0.000000
v 0.350893 -0.179302 -0.000000
v 0.351611 0.179302 0.007286
v 0.351611 -0.179302 0.007286
v 0.353736 0.179302 0.014292
v 0.353736 -0.179302 0.014291
v 0.357187 0.179302 0.020748
v 0.357187 -0.179302 0.020748
v 0.361832 0.179302 0.026407
v 0.361832 -0.179302 0.026407
v 0.367491 0.179302 0.031052
v 0.367491 -0.179302 0.031052
v 0.373947 0.179302 0.034503
v 0.373947 -0.179302 0.034503
v 0.380953 0.179302 0.036628
v 0.380953 -0.179302 0.036628
v 0.388239 0.186374 0.051799
v 0.398344 0.186374 0.050804
v 0.398344 -0.186374 0.050804
v 0.388239 -0.186374 0.051799
v 0.408062 0.186374 0.047856
v 0.408062 -0.186374 0.047856
v 0.417017 0.186374 0.043069
v 0.417017 -0.186374 0.043069
v 0.424866 0.186374 0.036627
v 0.424866 -0.186374 0.036627
v 0.431308 0.186374 0.028778
v 0.431308 -0.186374 0.028778
v 0.436095 0.186374 0.019823
v 0.436095 -0.186374 0.019823
v 0.439043 0.186374 0.010106
v 0.439043 -0.186374 0.010105
v 0.440038 0.186374 0.000000
v 0.440038 -0.186374 -0.000000
v 0.439043 0.186374 -0.010105
v 0.439043 -0.186374 -0.010106
v 0.436095 0.186374 -0.019823
v 0.436095 -0.186374 -0.019823
v 0.431308 0.186374 -0.028778
v 0.431308 -0.186374 -0.028778
v 0.424866 0.186374 -0.036627
v 0.424866 -0.186374 -0.036627
v 0.417017 0.186374 -0.043069
v 0.417017 -0.186374 -0.043069
v 0.408062 0.186374 -0.047856
v 0.408062 -0.186374 -0.047856
v 0.398344 0.186374 -0.050804
v 0.398344 -0.186374 -0.050804
v 0.388239 0.186374 -0.051799
v 0.388239 -0.186374 -0.051799
v 0.378133 0.186374 -0.050804
v 0.378133 -0.186374 -0.050804
v 0.368416 0.186374 -0.047856
v 0.368416 -0.186374 -0.047856
v 0.359461 0.186374 -0.043069
v 0.359461 -0.186374 -0.043069
v 0.351612 0.186374 -0.036627
v 0.351612 -0.186374 -0.036627
v 0.345170 0.186374 -0.028778
v 0.345170 -0.186374 -0.028778
v 0.340383 0.186374 -0.019823
v 0.340383 -0.186374 -0.019823
v 0.337435 0.186374 -0.010105
v 0.337435 -0.186374 -0.010106
v 0.336440 0.186374 0.000000
v 0.336440 -0.186374 -0.000000
v 0.337435 0.186374 0.010106
v 0.337435 -0.186374 0.010105
v 0.340383 0.186374 0.019823
v 0.340383 -0.186374 0.019823
v 0.345170 0.186374 0.028778
v 0.345170 -0.186374 0.028778
v 0.351612 0.186374 0.036627
v 0.351612 -0.186374 0.036627
v 0.359461 0.186374 0.043069
v 0.359461 -0.186374 0.043069
v 0.368416 0.186374 0.047856
v 0.368416 -0.186374 0.047856
v 0.378133 0.186374 0.050804
v 0.378133 -0.186374 0.050804
v 0.388239 0.200712 0.051799
v 0.398344 0.200712 0.050804
v 0.398344 -0.200712 0.050804
v 0.388239 -0.200712 0.051799
v 0.408062 0.200712 0.047856
v 0.408062 -0.200712 0.047856
v 0.417017 0.200712 0.043069
v 0.417017 -0.200712 0.043069
v 0.424866 0.200712 0.036627
v 0.424866 -0.200712 0.036627
v 0.431308 0.200712 0.028778
v 0.431308 -0.200712 0.028778
v 0.436095 0.200712 0.019823
v 0.436095 -0.200712 0.019823
v 0.439043 0.200712 0.010106
v 0.439043 -0.200712 0.010105
v 0.440038 0.200712 0.000000
v 0.440038 -0.200712 -0.000000
v 0.439043 0.200712 -0.010105
v 0.439043 -0.200712 -0.010106
v 0.436095 0.200712 -0.019823
v 0.436095 -0.200712 -0.019823
v 0.431308 0.200712 -0.028778
v 0.431308 -0.200712 -0.028778
v 0.424866 0.200712 -0.036627
v 0.424866 -0.200712 -0.036627
v 0.417017 0.200712 -0.043069
v 0.417017 -0.200712 -0.043069
v 0.408062 0.200712 -0.047856
v 0.408062 -0.200712 -0.047856
v 0.398344 0.200712 -0.050804
v 0.398344 -0.200712 -0.050804
v 0.388239 0.200712 -0.051799
v 0.388239 -0.200712 -0.051799
v 0.378133 0.200712 -0.050804
v 0.378133 -0.200712 -0.050804
v 0.368416 0.200712 -0.047856
v 0.368416 -0.200712 -0.047856
v 0.359461 0.200712 -0.043069
v 0.359461 -0.200712 -0.043069
v 0.351612 0.200712 -0.036627
v 0.351612 -0.200712 -0.036627
v 0.345170 0.200712 -0.028778
v 0.345170 -0.200712 -0.028778
v 0.340383 0.200712 -0.019823
v 0.340383 -0.200712 -0.019823
v 0.337435 0.200712 -0.010105
v 0.337435 -0.200712 -0.010106
v 0.336440 0.200712 0.000000
v 0.336440 -0.200712 -0.000000
v 0.337435 0.200712 0.010106
v 0.337435 -0.200712 0.010105
v 0.340383 0.200712 0.019823
v 0.340383 -0.200712 0.019823
v 0.345170 0.200712 0.028778
v 0.345170 -0.200712 0.028778
v 0.351612 0.200712 0.036627
v 0.351612 -0.200712 0.036627
v 0.359461 0.200712 0.043069
v 0.359461 -0.200712 0.043069
v 0.368416 0.200712 0.047856
v 0.368416 -0.200712 0.047856
v 0.378133 0.200712 0.050804
v 0.378133 -0.200712 0.050804
vn -0.0000 1.0000 -0.0000
vn -1.0000 -0.0000 -0.0000
vn -0.0000 -1.0000 -0.0000
vn -0.0000 0.7071 -0.7071
vn -0.0000 -0.0000 1.0000
vn -0.0000 -0.7071 0.7071
vn -0.0000 -0.0000 -1.0000
vn 1.0000 -0.0000 -0.0000
vn -0.0004 1.0000 -0.0000
vn -0.7071 -0.7071 -0.0000
vn 0.7071 -0.7071 -0.0000
vn -0.0001 -1.0000 0.0001
vn -0.0052 -1.0000 -0.0000
vn -0.0225 -0.9997 -0.0000
vn 0.3731 -0.9278 -0.0000
vn 0.7071 0.7071 -0.0000
vn 0.3731 0.9278 -0.0000
vn -0.7071 0.7071 -0.0000
vn -0.0052 1.0000 -0.0000
vn 0.7152 -0.6989 -0.0000
vn 0.7152 0.6989 -0.0000
vn 0.7334 -0.6798 -0.0000
vn 0.6602 0.7511 -0.0000
vn 0.7334 0.6798 -0.0000
vn 0.7123 -0.7019 -0.0000
vn -0.6820 -0.7314 -0.0000
vn -0.6820 0.7314 -0.0000
vn 0.0064 1.0000 -0.0000
vn 0.0064 -1.0000 -0.0000
vn -0.6884 0.7253 -0.0000
vn 0.7123 0.7019 -0.0000
vn 0.6602 -0.7511 -0.0000
vn -0.6758 -0.7370 -0.0000
vn -0.6758 0.7370 -0.0000
vn -0.6884 -0.7253 -0.0000
vn -0.0225 0.9997 -0.0000
vn -0.0001 1.0000 -0.0001
vn -0.0001 -1.0000 -0.0001
vn -0.0000 -0.7071 -0.7071
vn -0.0000 0.7071 0.7071
vn 0.5979 -0.5668 -0.5668
vn -0.6396 -0.0008 0.7687
vn 0.7071 -0.0000 0.7071
vn 0.7071 -0.0000 -0.7071
vn 0.0980 0.9894 0.1069
vn -0.5979 0.5668 0.5668
vn 0.6478 0.7618 -0.0040
vn -0.6396 -0.0008 -0.7687
vn -0.6916 -0.7223 -0.0000
vn -0.6479 -0.7617 0.0021
vn 0.0980 0.9894 -0.1069
vn 0.6916 0.7223 -0.0000
vn -0.6396 0.0008 -0.7687
vn 0.6395 0.0023 -0.7688
vn 0.7079 -0.7063 -0.0000
vn 0.7079 0.7063 -0.0000
vn 0.6871 -0.2399 0.6858
vn 0.6871 -0.2399 -0.6858
vn 0.6871 0.2399 -0.6858
vn 0.6871 0.2399 0.6858
vn 0.2638 0.6561 0.7071
vn 0.2638 0.6561 -0.7071
vn 0.2638 -0.6561 -0.7071
vn 0.5691 0.5700 -0.5927
vn 0.5691 -0.5700 0.5927
vn 0.5691 -0.5700 -0.5927
vn 0.5691 0.5700 0.5927
vn 0.6516 0.0021 0.7586
vn 0.6516 0.0021 -0.7586
vn 0.6516 -0.0021 0.7586
vn 0.6516 -0.0021 -0.7586
vn -0.4866 -0.5127 -0.7073
vn -0.4866 0.5127 0.7073
vn -0.0159 -0.7072 0.7069
vn -0.0159 0.7072 0.7069
vn -0.0159 0.7072 -0.7069
vn -0.0159 -0.7072 -0.7069
vn -0.4866 0.5127 -0.7073
vn -0.4866 -0.5127 0.7073
vn 0.2638 -0.6561 0.7071
vn -0.0001 -0.0000 1.0000
vn -0.6916 0.7223 -0.0000
vn 0.6395 0.0023 0.7688
vn 0.6492 0.5378 0.5378
vn 0.6492 -0.5378 0.5378
vn 0.6492 0.5378 -0.5378
vn 0.6492 -0.5378 -0.5378
vn 0.6794 0.7338 -0.0074
vn 0.6780 0.7350 0.0064
vn 0.6795 -0.0040 -0.7337
vn 0.6808 -0.0042 -0.7324
vn 0.6794 -0.7338 -0.0074
vn 0.6780 -0.7350 0.0064
vn 0.6808 0.0042 0.7324
vn 0.6794 0.7338 0.0074
vn 0.6780 0.7350 -0.0064
vn 0.6794 -0.7338 0.0074
vn 0.6780 -0.7350 -0.0064
vn 0.6795 0.0040 0.7337
vn 0.6808 -0.0042 0.7324
vn 0.6795 0.0040 -0.7336
vn 0.6795 -0.0040 0.7336
vn 0.6808 0.0042 -0.7324
vn 0.7657 0.4548 0.4548
vn 0.7657 -0.4548 0.4548
vn 0.7657 0.4548 -0.4548
vn 0.7657 -0.4548 -0.4548
vn 0.7370 0.6759 0.0017
vn 0.7370 0.0011 -0.6759
vn 0.7370 -0.6759 0.0017
vn 0.7370 -0.0011 0.6759
vn 0.7370 0.6759 -0.0017
vn 0.7370 -0.6759 -0.0017
vn 0.7370 0.0011 0.6759
vn 0.7370 -0.0011 -0.6759
vn -0.6479 0.7617 -0.0021
vn -0.5979 -0.5668 0.5668
vn 0.6478 -0.7618 0.0040
vn 0.5979 0.5668 -0.5668
vn -0.6479 -0.7617 -0.0021
vn -0.5979 0.5668 -0.5668
vn 0.6478 0.7618 0.0040
vn 0.5979 -0.5668 0.5668
vn 0.6395 -0.0023 -0.7688
vn -0.5979 -0.5668 -0.5668
vn -0.6396 0.0008 0.7687
vn 0.5979 0.5668 0.5668
vn 0.0980 -0.9894 -0.1069
vn -0.6479 0.7617 0.0021
vn 0.6395 -0.0023 0.7688
vn 0.6478 -0.7618 -0.0040
vn 0.6916 -0.7223 -0.0000
vn 0.0980 -0.9894 0.1069
vn 0.0980 -0.0000 0.9952
vn 0.2903 -0.0000 0.9569
vn 0.4714 -0.0000 0.8819
vn 0.6344 -0.0000 0.7730
vn 0.7730 -0.0000 0.6344
vn 0.8819 -0.0000 0.4714
vn 0.9569 -0.0000 0.2903
vn 0.9952 -0.0000 0.0980
vn 0.9952 -0.0000 -0.0980
vn 0.9569 -0.0000 -0.2903
vn 0.8819 -0.0000 -0.4714
vn 0.7730 -0.0000 -0.6344
vn 0.6344 -0.0000 -0.7730
vn 0.4714 -0.0000 -0.8819
vn 0.2903 -0.0000 -0.9569
vn 0.0980 -0.0000 -0.9952
vn -0.0980 -0.0000 -0.9952
vn -0.2903 -0.0000 -0.9569
vn -0.4714 -0.0000 -0.8819
vn -0.6344 -0.0000 -0.7730
vn -0.7730 -0.0000 -0.6344
vn -0.8819 -0.0000 -0.4714
vn -0.9569 -0.0000 -0.2903
vn -0.9952 -0.0000 -0.0980
vn -0.9952 -0.0000 0.0980
vn -0.9569 -0.0000 0.2903
vn -0.8819 -0.0000 0.4714
vn -0.7730 -0.0000 0.6344
vn -0.6344 -0.0000 0.7730
vn -0.4714 -0.0000 0.8819
vn 0.4391 -0.8974 0.0432
vn -0.2903 -0.0000 0.9569
vn -0.0980 -0.0000 0.9952
vn -0.4391 0.8974 0.0432
vn -0.0432 -0.8974 -0.4391
vn 0.4391 0.8974 0.0432
vn -0.4222 -0.8974 0.1281
vn -0.0432 0.8974 -0.4391
vn -0.4222 0.8974 0.1281
vn 0.4391 -0.8974 -0.0432
vn -0.1281 -0.8974 -0.4222
vn 0.4391 0.8974 -0.0432
vn 0.0432 -0.8974 0.4391
vn -0.3891 -0.8974 0.2080
vn -0.1281 0.8974 -0.4222
vn 0.0432 0.8974 0.4391
vn -0.3891 0.8974 0.2080
vn 0.4222 -0.8974 -0.1281
vn -0.2080 -0.8974 -0.3891
vn 0.4222 0.8974 -0.1281
vn -0.3411 -0.8974 0.2799
vn -0.2080 0.8974 -0.3891
vn 0.1281 -0.8974 0.4222
vn -0.3411 0.8974 0.2799
vn 0.3891 -0.8974 -0.2080
vn 0.1281 0.8974 0.4222
vn -0.2799 -0.8974 -0.3411
vn 0.3891 0.8974 -0.2080
vn -0.2799 -0.8974 0.3411
vn -0.2799 0.8974 -0.3411
vn 0.2080 -0.8974 0.3891
vn -0.2799 0.8974 0.3411
vn 0.3410 -0.8974 -0.2799
vn 0.2080 0.8974 0.3891
vn -0.3411 -0.8974 -0.2799
vn 0.3411 0.8974 -0.2799
vn -0.2080 -0.8974 0.3891
vn -0.3411 0.8974 -0.2799
vn 0.2799 -0.8974 0.3410
vn -0.2080 0.8974 0.3891
vn 0.2799 -0.8974 -0.3410
vn 0.2799 0.8974 0.3411
vn -0.3891 -0.8974 -0.2080
vn 0.2799 0.8974 -0.3411
vn -0.1281 -0.8974 0.4222
vn -0.3891 0.8974 -0.2080
vn 0.3410 -0.8974 0.2799
vn -0.1281 0.8974 0.4222
vn 0.2080 -0.8974 -0.3891
vn 0.3411 0.8974 0.2799
vn -0.4222 -0.8974 -0.1281
vn 0.2080 0.8974 -0.3891
vn -0.0432 -0.8974 0.4391
vn -0.4222 0.8974 -0.1281
vn 0.3891 -0.8974 0.2080
vn -0.0432 0.8974 0.4391
vn 0.1281 -0.8974 -0.4222
vn 0.3891 0.8974 0.2080
vn -0.4391 -0.8974 -0.0432
vn 0.1281 0.8974 -0.4222
vn -0.4391 0.8974 -0.0432
vn 0.4222 -0.8974 0.1281
vn 0.0432 -0.8974 -0.4391
vn 0.4222 0.8974 0.1281
vn -0.4391 -0.8974 0.0432
vn 0.0432 0.8974 -0.4391
vt 0.125000 0.666667
vt 0.287758 0.666667
vt 0.287758 0.713049
vt 0.125000 0.713049
vt 0.541667 0.166667
vt 0.625000 0.166667
vt 0.625000 0.213049
vt 0.608711 0.250000
vt 0.575189 0.250000
vt 0.541667 0.250000
vt 0.608929 0.552052
vt 0.608929 0.583333
vt 0.549014 0.683333
vt 0.549014 0.566667
vt 0.287758 0.750000
vt 0.125000 0.750000
vt 0.375000 0.166667
vt 0.458333 0.166667
vt 0.458333 0.250000
vt 0.424811 0.250000
vt 0.391289 0.250000
vt 0.375000 0.213049
vt 0.458333 0.412758
vt 0.424811 0.412758
vt 0.397946 0.713543
vt 0.391071 0.697948
vt 0.712242 0.666667
vt 0.875000 0.666667
vt 0.875000 0.713049
vt 0.712242 0.713049
vt 0.391071 0.583333
vt 0.391071 0.552052
vt 0.712242 0.583333
vt 0.875000 0.583333
vt 0.712242 0.666667
vt 0.424811 0.837242
vt 0.458333 0.837242
vt 0.458333 1.000000
vt 0.424811 1.000000
vt 0.541667 0.083333
vt 0.625000 0.083333
vt 0.375000 0.083333
vt 0.458333 0.083333
vt 0.125000 0.536951
vt 0.287758 0.536951
vt 0.287758 0.583333
vt 0.125000 0.583333
vt 0.458333 0.000000
vt 0.541667 0.000000
vt 0.484602 0.666667
vt 0.484602 0.583333
vt 0.712242 0.536951
vt 0.875000 0.536951
vt 0.712242 0.583333
vt 0.608711 0.412758
vt 0.575189 0.412758
vt 0.575189 0.000000
vt 0.608711 0.000000
vt 0.625000 0.036951
vt 0.575189 0.837242
vt 0.608711 0.837242
vt 0.608711 1.000000
vt 0.575189 1.000000
vt 0.541667 0.412758
vt 0.458333 0.412758
vt 0.541667 0.837242
vt 0.541667 1.000000
vt 0.450986 0.566667
vt 0.450986 0.683333
vt 0.602054 0.536456
vt 0.428140 0.536456
vt 0.458333 0.536456
vt 0.428140 0.536456
vt 0.541667 0.583333
vt 0.541667 0.666667
vt 0.484602 0.639422
vt 0.484602 0.610577
vt 0.515398 0.666667
vt 0.458333 0.666667
vt 0.458333 0.583333
vt 0.458333 0.583333
vt 0.458333 0.583333
vt 0.458333 0.666667
vt 0.484602 0.666667
vt 0.484602 0.666667
vt 0.461715 0.666667
vt 0.460725 0.666667
vt 0.460563 0.666667
vt 0.515398 0.666667
vt 0.515398 0.666667
vt 0.515398 0.583333
vt 0.515398 0.583333
vt 0.515398 0.610577
vt 0.515398 0.639422
vt 0.484602 0.610577
vt 0.484602 0.583333
vt 0.484602 0.583333
vt 0.458333 0.666667
vt 0.460725 0.666667
vt 0.460725 0.583333
vt 0.515398 0.583333
vt 0.538285 0.666667
vt 0.538285 0.666667
vt 0.461715 0.583333
vt 0.461715 0.583333
vt 0.539275 0.583333
vt 0.538285 0.583333
vt 0.484602 0.583333
vt 0.484602 0.666667
vt 0.537504 0.666667
vt 0.515398 0.583333
vt 0.539448 0.666667
vt 0.460552 0.583333
vt 0.539275 0.666667
vt 0.458333 0.583333
vt 0.458333 0.583333
vt 0.541667 0.666667
vt 0.541667 0.666667
vt 0.537504 0.583333
vt 0.484602 0.583333
vt 0.462496 0.666667
vt 0.462496 0.583333
vt 0.541667 0.583333
vt 0.539436 0.583333
vt 0.625000 0.250000
vt 0.625000 0.412758
vt 0.608711 0.412758
vt 0.625000 0.837242
vt 0.625000 1.000000
vt 0.608711 0.837242
vt 0.125000 0.500000
vt 0.287758 0.500000
vt 0.375000 0.036951
vt 0.391289 0.000000
vt 0.424811 0.000000
vt 0.312900 0.538929
vt 0.310614 0.501399
vt 0.422878 0.491749
vt 0.394031 0.491749
vt 0.541667 0.519790
vt 0.458333 0.519790
vt 0.458333 0.730210
vt 0.541667 0.730210
vt 0.422878 0.758251
vt 0.422018 0.809201
vt 0.352144 0.504398
vt 0.352144 0.532553
vt 0.687100 0.666667
vt 0.687100 0.711071
vt 0.394031 0.758251
vt 0.641418 0.666667
vt 0.641418 0.583333
vt 0.426618 0.730210
vt 0.641418 0.706830
vt 0.422018 0.440799
vt 0.687100 0.583333
vt 0.577122 0.758251
vt 0.605969 0.758251
vt 0.392161 0.440799
vt 0.573382 0.519790
vt 0.541667 0.519790
vt 0.541667 0.412758
vt 0.515398 0.639422
vt 0.391071 0.666667
vt 0.383724 0.666667
vt 0.383724 0.583333
vt 0.608929 0.666667
vt 0.616276 0.583333
vt 0.616276 0.666667
vt 0.541667 0.536456
vt 0.458333 0.713544
vt 0.541667 0.713543
vt 0.397946 0.536456
vt 0.383724 0.545148
vt 0.394903 0.519790
vt 0.605097 0.519790
vt 0.616276 0.545148
vt 0.394903 0.730210
vt 0.383724 0.704852
vt 0.602054 0.713544
vt 0.608929 0.697948
vt 0.616276 0.704852
vt 0.605097 0.730210
vt 0.428140 0.713543
vt 0.571860 0.713544
vt 0.573382 0.730210
vt 0.426618 0.519790
vt 0.383724 0.583333
vt 0.571860 0.536457
vt 0.571860 0.713544
vt 0.571860 0.536456
vt 0.358582 0.583333
vt 0.358582 0.666667
vt 0.458333 0.519790
vt 0.391289 0.412758
vt 0.392161 0.809201
vt 0.391289 0.837242
vt 0.391289 1.000000
vt 0.312900 0.583333
vt 0.312900 0.666667
vt 0.375000 0.505796
vt 0.375000 0.531155
vt 0.605969 0.491749
vt 0.641418 0.543170
vt 0.622767 0.539219
vt 0.607711 0.505065
vt 0.608711 0.500000
vt 0.625000 0.536951
vt 0.352144 0.745602
vt 0.352144 0.717447
vt 0.375000 0.718845
vt 0.375000 0.744204
vt 0.312900 0.711071
vt 0.310614 0.748601
vt 0.607711 0.744935
vt 0.622767 0.710781
vt 0.625000 0.713049
vt 0.608711 0.750000
vt 0.358582 0.706829
vt 0.358582 0.543170
vt 0.687100 0.538929
vt 0.607839 0.440799
vt 0.577982 0.440799
vt 0.577122 0.491749
vt 0.577982 0.809201
vt 0.607839 0.809201
vt 1.000000 0.500000
vt 1.000000 1.000000
vt 0.968750 1.000000
vt 0.968750 0.500000
vt 0.937500 1.000000
vt 0.937500 0.500000
vt 0.906250 1.000000
vt 0.906250 0.500000
vt 0.875000 1.000000
vt 0.875000 0.500000
vt 0.843750 1.000000
vt 0.843750 0.500000
vt 0.812500 1.000000
vt 0.812500 0.500000
vt 0.781250 1.000000
vt 0.781250 0.500000
vt 0.750000 1.000000
vt 0.750000 0.500000
vt 0.718750 1.000000
vt 0.718750 0.500000
vt 0.687500 1.000000
vt 0.687500 0.500000
vt 0.656250 1.000000
vt 0.656250 0.500000
vt 0.625000 0.500000
vt 0.593750 1.000000
vt 0.593750 0.500000
vt 0.562500 1.000000
vt 0.562500 0.500000
vt 0.531250 1.000000
vt 0.531250 0.500000
vt 0.500000 1.000000
vt 0.500000 0.500000
vt 0.468750 1.000000
vt 0.468750 0.500000
vt 0.437500 1.000000
vt 0.437500 0.500000
vt 0.406250 1.000000
vt 0.406250 0.500000
vt 0.375000 1.000000
vt 0.375000 0.500000
vt 0.343750 1.000000
vt 0.343750 0.500000
vt 0.312500 1.000000
vt 0.312500 0.500000
vt 0.281250 1.000000
vt 0.281250 0.500000
vt 0.250000 1.000000
vt 0.250000 0.500000
vt 0.218750 1.000000
vt 0.218750 0.500000
vt 0.187500 1.000000
vt 0.187500 0.500000
vt 0.156250 1.000000
vt 0.156250 0.500000
vt 0.125000 1.000000
vt 0.093750 1.000000
vt 0.093750 0.500000
vt 0.062500 1.000000
vt 0.062500 0.500000
vt 0.031250 1.000000
vt 0.031250 0.500000
vt 0.000000 1.000000
vt 0.000000 0.500000
vt 0.296822 0.485388
vt 0.250000 0.490000
vt 0.203178 0.485388
vt 0.158156 0.471731
vt 0.116663 0.449553
vt 0.080294 0.419706
vt 0.050447 0.383337
vt 0.028269 0.341844
vt 0.014612 0.296822
vt 0.010000 0.250000
vt 0.014612 0.203178
vt 0.028269 0.158156
vt 0.050447 0.116663
vt 0.080294 0.080294
vt 0.116663 0.050447
vt 0.158156 0.028269
vt 0.203178 0.014612
vt 0.250000 0.010000
vt 0.296822 0.014612
vt 0.341844 0.028269
vt 0.383337 0.050447
vt 0.419706 0.080294
vt 0.449553 0.116663
vt 0.471731 0.158156
vt 0.485388 0.203178
vt 0.490000 0.250000
vt 0.485388 0.296822
vt 0.471731 0.341844
vt 0.449553 0.383337
vt 0.419706 0.419706
vt 0.383337 0.449553
vt 0.341844 0.471731
vt 0.750000 0.490000
vt 0.796822 0.485388
vt 0.841844 0.471731
vt 0.883337 0.449553
vt 0.919706 0.419706
vt 0.949553 0.383337
vt 0.971731 0.341844
vt 0.985388 0.296822
vt 0.990000 0.250000
vt 0.985388 0.203178
vt 0.971731 0.158156
vt 0.949553 0.116663
vt 0.919706 0.080294
vt 0.883337 0.050447
vt 0.841844 0.028269
vt 0.796822 0.014612
vt 0.750000 0.010000
vt 0.703178 0.014612
vt 0.658156 0.028269
vt 0.616663 0.050447
vt 0.580294 0.080294
vt 0.550447 0.116663
vt 0.528269 0.158156
vt 0.514612 0.203178
vt 0.510000 0.250000
vt 0.514612 0.296822
vt 0.528269 0.341844
vt 0.550447 0.383337
vt 0.580294 0.419706
vt 0.616663 0.449553
vt 0.658156 0.471731
vt 0.703178 0.485388
s 0
usemtl M_Noir_Bleuté
f 2/1/1 170/2/1 188/3/1 161/4/1
f 14/5/2 4/6/2 167/7/2 168/8/2 309/9/2 7/10/2
f 199/11/1 173/12/1 296/12/1 303/11/1
f 10/13/3 9/14/3 295/14/3 298/13/3
f 161/4/4 188/3/4 186/15/4 162/16/4
f 1/17/2 15/18/2 8/19/2 319/20/2 165/21/2 166/22/2
f 319/20/5 8/19/5 180/23/5 359/24/5
f 185/25/6 187/26/6 305/26/6 306/25/6
f 334/27/3 3/28/3 164/29/3 190/30/3
f 172/31/3 193/32/3 302/32/3 289/31/3
f 174/33/3 4/34/3 3/28/3 334/35/3
f 353/36/7 183/37/7 5/38/7 324/39/7
f 12/40/2 3/41/2 4/6/2 14/5/2
f 2/42/2 13/43/2 15/18/2 1/17/2
f 13/43/2 12/40/2 14/5/2 15/18/2
f 166/44/1 194/45/1 330/46/1 1/47/1
f 5/48/2 6/49/2 12/40/2 13/43/2
f 1/47/1 330/46/1 170/2/1 2/1/1
f 26/50/8 31/51/8 48/51/8 49/50/8
f 200/52/3 167/53/3 4/34/3 174/54/3
f 309/9/5 168/8/5 198/55/5 356/56/5
f 6/49/2 314/57/2 163/58/2 164/59/2 3/41/2 12/40/2
f 358/60/7 192/61/7 163/62/7 314/63/7
f 8/19/5 7/10/5 177/64/5 180/65/5
f 183/37/7 182/66/7 6/67/7 5/38/7
f 152/68/9 11/69/9 291/69/9 290/68/9
f 197/70/4 199/11/4 303/11/4 304/70/4
f 322/71/7 179/72/7 294/72/7 323/73/7
f 15/18/2 14/5/2 7/10/2 8/19/2
f 269/74/3 271/75/3 21/75/3 16/74/3
f 203/78/11 21/75/11 159/75/11 160/78/11
f 272/79/1 270/80/1 19/81/1 22/79/1
f 33/79/10 32/82/10 145/82/10 150/79/10
f 54/83/7 94/79/7 250/79/7 263/83/7
f 269/74/12 16/74/12 158/74/12 9/74/12
f 75/84/7 80/85/7 239/84/7 241/84/7 99/84/7
f 205/51/10 207/84/10 44/84/10 50/51/10
f 49/50/13 43/50/13 99/50/13 241/50/13 240/50/13
f 147/75/14 141/75/14 258/75/14 265/75/14
f 28/74/15 224/74/15 248/74/15 146/74/15
f 64/86/7 93/87/7 54/83/7 220/88/7
f 79/89/7 76/90/7 100/78/7 238/78/7 237/78/7
f 31/51/16 26/50/16 27/79/16 30/81/16
f 28/74/11 29/75/11 24/78/11 25/91/11
f 30/81/17 27/79/17 148/79/17 149/81/17
f 208/90/18 206/92/18 51/92/18 45/90/18
f 88/75/7 56/75/7 257/75/7 255/75/7
f 208/90/18 45/90/18 84/90/18 85/90/18
f 31/51/16 30/81/16 230/82/16 232/51/16
f 27/79/17 219/79/17 262/79/17 148/79/17
f 40/78/19 41/91/19 47/91/19 46/78/19
f 50/51/20 44/84/20 43/50/20 42/51/20
f 45/90/21 51/92/21 41/91/21 40/78/21
f 42/51/13 43/50/13 49/50/13 48/51/13
f 70/96/5 81/97/5 243/51/5 231/97/5
f 45/90/21 40/78/21 100/78/21 84/90/21
f 220/98/7 54/83/7 263/83/7 261/79/7
f 205/51/10 50/51/10 103/51/10 95/51/10
f 207/84/10 33/79/10 94/79/10 96/84/10
f 29/75/15 28/74/15 146/74/15 147/75/15
f 25/91/8 24/78/8 46/78/8 47/91/8
f 43/50/20 44/84/20 98/84/20 99/50/20
f 59/92/22 58/92/22 119/92/22 125/92/22
f 62/84/23 71/99/23 132/99/23 112/84/23
f 72/51/24 83/51/24 139/51/24 118/51/24
f 53/90/22 52/90/22 124/90/22 113/90/22
f 61/100/23 72/51/23 118/51/23 127/100/23
f 74/84/24 62/84/24 112/84/24 134/84/24
f 71/99/25 93/87/25 105/87/25 132/99/25
f 78/101/26 59/92/26 125/92/26 122/101/26
f 67/102/1 89/103/1 108/103/1 130/102/1
f 83/51/27 82/97/27 121/97/27 139/51/27
f 93/87/3 64/86/3 128/86/3 105/87/3
f 82/97/28 81/97/28 138/97/28 121/97/28
f 69/104/3 57/105/3 110/105/3 131/104/3
f 80/85/28 75/84/28 123/84/28 137/85/28
f 55/106/1 66/107/1 129/107/1 107/106/1
f 76/90/29 79/89/29 136/89/29 120/90/29
f 81/97/5 82/97/5 102/51/5 244/51/5 243/108/5
f 80/85/7 63/109/7 218/84/7 239/84/7
f 230/82/17 30/81/17 149/81/17 259/82/17
f 67/102/7 68/89/7 227/78/7 225/110/7
f 50/51/20 42/51/20 102/51/20 103/51/20
f 51/92/18 206/92/18 86/92/18 87/92/18
f 77/111/5 65/92/5 222/92/5 233/92/5
f 206/92/18 37/74/18 97/74/18 86/92/18
f 89/103/7 67/102/7 225/112/7 56/75/7
f 36/75/18 208/90/18 85/90/18 88/75/18
f 150/79/30 142/79/30 264/79/30 249/79/30
f 41/91/21 51/92/21 87/92/21 101/91/21
f 57/105/5 69/104/5 229/113/5 91/80/5
f 32/82/10 205/51/10 95/51/10 90/82/10
f 44/84/10 207/84/10 96/84/10 98/84/10
f 52/90/7 53/90/7 85/90/7 84/90/7
f 58/92/5 59/92/5 87/92/5 86/92/5
f 60/114/7 89/103/7 56/75/7 88/75/7
f 61/100/5 57/105/5 91/80/5 90/82/5
f 26/50/8 49/50/8 240/50/8 217/50/8
f 28/74/11 25/91/11 221/91/11 224/74/11
f 68/89/7 79/89/7 237/78/7 227/78/7
f 91/80/5 229/115/5 260/116/5 251/81/5
f 56/75/7 225/117/7 266/118/7 257/75/7
f 48/51/8 31/51/8 232/51/8 242/51/8
f 65/92/5 66/107/5 223/119/5 222/92/5
f 226/75/15 29/75/15 147/75/15 265/75/15
f 93/87/7 71/99/7 94/79/7 54/83/7
f 72/51/5 61/100/5 90/82/5 95/51/5
f 71/99/7 62/84/7 96/84/7 94/79/7
f 55/106/5 73/106/5 97/74/5 92/74/5
f 73/106/5 58/92/5 86/92/5 97/74/5
f 53/90/7 60/114/7 88/75/7 85/90/7
f 74/84/7 75/84/7 99/84/7 98/84/7
f 76/90/7 52/90/7 84/90/7 100/78/7
f 47/91/19 41/91/19 101/91/19 235/91/19 234/91/19
f 40/78/19 46/78/19 236/78/19 238/78/19 100/78/19
f 42/51/13 48/51/13 242/51/13 244/120/13 102/51/13
f 140/74/14 146/74/14 248/74/14 246/74/14
f 82/97/5 83/51/5 103/51/5 102/51/5
f 59/92/5 78/101/5 101/92/5 87/92/5
f 62/84/7 74/84/7 98/84/7 96/84/7
f 83/51/5 72/51/5 95/51/5 103/51/5
f 78/101/5 77/111/5 233/92/5 235/92/5 101/92/5
f 63/109/7 64/86/7 220/121/7 218/84/7
f 25/91/8 47/91/8 234/91/8 221/91/8
f 46/78/8 24/78/8 228/78/8 236/78/8
f 81/97/2 70/96/2 117/96/2 138/97/2
f 73/106/31 55/106/31 107/106/31 133/106/31
f 89/103/31 60/114/31 126/114/31 108/103/31
f 63/109/2 80/85/2 137/85/2 116/109/2
f 58/92/32 73/106/32 133/106/32 119/92/32
f 57/105/25 61/100/25 127/100/25 110/105/25
f 65/92/2 77/111/2 135/111/2 114/92/2
f 60/114/32 53/90/32 113/90/32 126/114/32
f 64/86/33 63/109/33 116/109/33 128/86/33
f 79/89/2 68/89/2 115/89/2 136/89/2
f 75/84/27 74/84/27 134/84/27 123/84/27
f 66/107/34 65/92/34 114/92/34 129/107/34
f 52/90/26 76/90/26 120/90/26 124/90/26
f 68/89/34 67/102/34 130/102/34 115/89/34
f 77/111/29 78/101/29 122/101/29 135/111/29
f 70/96/33 69/104/33 131/104/33 117/96/33
f 150/79/30 145/82/30 143/81/30 142/79/30
f 151/74/35 144/75/35 141/75/35 140/74/35
f 97/74/18 37/74/18 151/74/18 267/74/18 268/74/18
f 92/74/5 97/74/5 268/74/5 245/74/5
f 142/79/36 143/81/36 149/81/36 148/79/36
f 143/81/30 145/82/30 254/82/30 252/82/30
f 140/74/14 141/75/14 147/75/14 146/74/14
f 151/74/35 140/74/35 246/74/35 267/74/35
f 32/82/10 90/82/10 253/82/10 254/82/10 145/82/10
f 142/79/36 148/79/36 262/79/36 264/79/36
f 90/82/5 91/80/5 251/80/5 253/82/5
f 36/75/18 88/75/18 255/75/18 256/75/18 144/75/18
f 69/104/5 70/96/5 231/97/5 229/122/5
f 37/74/18 36/75/18 144/75/18 151/74/18
f 223/123/5 92/74/5 245/74/5 247/74/5
f 141/75/35 144/75/35 256/75/35 258/75/35
f 24/78/11 29/75/11 226/75/11 228/78/11
f 66/107/5 55/106/5 92/74/5 223/124/5
f 149/81/36 143/81/36 252/82/36 259/82/36
f 94/79/10 33/79/10 150/79/10 249/79/10 250/79/10
f 10/75/7 11/79/7 156/83/7 155/84/7 160/78/7 159/75/7
f 152/80/5 9/74/5 158/74/5 157/92/5 154/51/5 153/80/5
f 272/79/37 22/79/37 156/79/37 11/79/37
f 270/80/2 269/74/2 9/74/2 152/80/2
f 201/91/8 202/51/8 154/51/8 157/91/8
f 202/51/16 19/80/16 153/80/16 154/51/16
f 16/74/11 201/92/11 157/92/11 158/74/11
f 23/50/8 203/78/8 160/78/8 155/50/8
f 19/81/1 270/80/1 152/80/1 153/81/1
f 21/75/38 271/75/38 10/75/38 159/75/38
f 22/83/16 23/84/16 155/84/16 156/83/16
f 167/125/6 200/126/6 198/127/6 168/8/6
f 190/128/39 164/129/39 163/62/39 192/130/39
f 194/45/40 166/44/40 165/131/40 196/132/40
f 161/133/2 162/134/2 324/135/2 5/48/2 13/43/2 2/42/2
f 339/136/41 340/137/41 369/137/41 372/136/41
f 320/138/42 337/139/42 370/139/42 387/138/42
f 277/140/43 278/141/43 180/65/43 177/64/43
f 182/66/44 183/37/44 279/142/44 280/143/44
f 325/144/45 326/145/45 385/145/45 392/144/45
f 337/146/46 282/147/46 371/147/46 370/146/46
f 175/148/47 351/149/47 384/149/47 367/148/47
f 286/150/48 325/144/48 392/144/48 379/150/48
f 335/151/49 336/152/49 365/152/49 368/151/49
f 360/153/44 279/142/44 183/37/44 353/36/44
f 288/154/50 335/151/50 368/151/50 383/154/50
f 321/155/51 320/138/51 387/138/51 391/155/51
f 333/156/52 175/148/52 367/148/52 366/156/52
f 315/157/53 349/158/53 382/158/53 386/157/53
f 340/159/54 321/155/54 391/155/54 369/159/54
f 357/160/43 277/161/43 177/162/43 356/56/43
f 11/69/7 10/13/7 298/13/7 291/69/7
f 233/92/57 234/92/57 235/91/57
f 236/78/58 237/78/58 238/78/58
f 239/84/59 240/84/59 241/50/59
f 242/51/60 243/97/60 244/51/60
f 230/82/61 259/82/61 260/116/61 229/115/61
f 220/98/62 261/79/62 262/79/62 219/79/62
f 266/118/63 225/117/63 226/75/63 265/75/63
f 218/84/64 220/121/64 219/79/64 217/50/64
f 222/92/65 223/119/65 224/74/65 221/91/65
f 225/110/66 227/78/66 228/78/66 226/75/66
f 229/122/67 231/97/67 232/51/67 230/82/67
f 231/97/68 243/51/68 242/51/68 232/51/68
f 239/84/69 218/84/69 217/50/69 240/50/69
f 221/91/70 234/91/70 233/92/70 222/92/70
f 236/78/71 228/78/71 227/78/71 237/78/71
f 255/75/72 257/75/72 258/75/72 256/75/72
f 253/82/73 251/80/73 252/82/73 254/82/73
f 246/74/74 248/74/74 247/74/74 245/74/74
f 251/81/75 260/116/75 259/82/75 252/82/75
f 261/79/76 263/83/76 264/79/76 262/79/76
f 265/75/77 258/75/77 257/75/77 266/118/77
f 263/83/78 250/79/78 249/79/78 264/79/78
f 245/74/79 268/74/79 267/74/79 246/74/79
f 223/123/80 247/74/80 248/74/80 224/74/80
f 27/79/16 26/50/16 217/50/16 219/79/16
f 10/13/8 11/69/8 272/79/8 271/75/8
f 11/69/2 152/68/2 270/80/2 272/79/2
f 9/14/2 10/13/2 271/75/2 269/74/2
f 172/31/8 169/164/8 274/165/8 273/166/8
f 176/167/8 173/12/8 276/168/8 275/169/8
f 178/170/8 179/72/8 278/141/8 277/140/8
f 184/171/8 181/172/8 280/143/8 279/142/8
f 195/173/8 193/32/8 338/174/8 281/175/8
f 199/11/8 197/70/8 342/176/8 283/177/8
f 187/26/8 185/25/8 346/178/8 285/179/8
f 191/180/8 189/181/8 350/182/8 287/183/8
f 169/164/8 187/26/8 285/179/8 274/165/8
f 327/184/8 184/171/8 279/142/8 360/153/8
f 317/185/8 191/180/8 287/183/8 354/186/8
f 189/181/8 176/167/8 275/169/8 350/182/8
f 322/71/8 195/173/8 281/175/8 355/187/8
f 193/32/8 172/31/8 273/188/8 338/174/8
f 173/12/8 199/11/8 283/177/8 276/168/8
f 312/189/8 178/170/8 277/161/8 357/160/8
f 189/181/40 191/180/40 307/180/40 308/181/40
f 169/164/3 172/31/3 289/31/3 292/164/3
f 312/189/7 197/70/7 304/70/7 313/191/7
f 187/26/3 169/164/3 292/164/3 305/26/3
f 173/12/1 176/167/1 297/167/1 296/12/1
f 327/184/5 185/25/5 306/25/5 328/184/5
f 179/72/7 178/170/7 299/170/7 294/72/7
f 317/185/5 181/172/5 300/172/5 318/190/5
f 181/172/5 184/171/5 293/171/5 300/172/5
f 9/14/81 152/68/81 290/68/81 295/14/81
f 176/167/1 189/181/1 308/181/1 297/167/1
f 193/32/39 195/173/39 301/173/39 302/32/39
f 178/170/7 312/189/7 313/191/7 299/170/7
f 197/70/8 312/189/8 357/160/8 342/176/8
f 331/192/82 332/193/82 361/193/82 364/192/82
f 7/10/5 309/9/5 356/56/5 177/162/5
f 191/180/5 317/185/5 318/190/5 307/180/5
f 181/172/8 317/185/8 354/186/8 280/143/8
f 280/143/44 354/186/44 358/60/44 182/66/44
f 182/66/7 358/60/7 314/63/7 6/67/7
f 179/72/8 322/71/8 355/187/8 278/194/8
f 278/194/43 355/187/43 359/24/43 180/23/43
f 195/173/7 322/71/7 323/73/7 301/173/7
f 165/21/5 319/20/5 359/24/5 196/195/5
f 184/171/5 327/184/5 328/184/5 293/171/5
f 185/25/8 327/184/8 360/153/8 346/178/8
f 326/145/83 347/196/83 380/196/83 385/145/83
f 186/197/7 353/36/7 324/39/7 162/198/7
f 171/199/16 329/200/16 170/2/16 330/46/16
f 332/193/16 331/192/16 273/166/16 274/165/16
f 175/148/11 333/156/11 174/33/11 334/35/11
f 336/152/11 335/151/11 275/169/11 276/168/11
f 282/147/84 337/146/84 281/201/84 338/202/84
f 340/137/84 339/136/84 194/45/84 196/132/84
f 284/203/85 341/204/85 283/177/85 342/176/85
f 344/205/85 343/206/85 198/207/85 200/208/85
f 286/209/86 345/210/86 285/211/86 346/212/86
f 348/213/86 347/214/86 186/15/86 188/3/86
f 288/154/87 349/158/87 287/183/87 350/182/87
f 352/215/87 351/216/87 190/217/87 192/218/87
f 345/219/88 332/193/88 274/165/88 285/179/88
f 329/200/89 348/213/89 188/3/89 170/2/89
f 347/196/90 326/145/90 353/36/90 186/197/90
f 349/158/91 315/157/91 354/186/91 287/183/91
f 335/151/92 288/154/92 350/182/92 275/169/92
f 351/149/93 175/148/93 334/27/93 190/30/93
f 337/139/94 320/138/94 355/187/94 281/175/94
f 331/192/95 282/220/95 338/174/95 273/188/95
f 339/136/96 171/199/96 330/46/96 194/45/96
f 341/204/97 336/152/97 276/168/97 283/177/97
f 333/156/98 344/221/98 200/52/98 174/54/98
f 343/222/99 311/223/99 356/56/99 198/55/99
f 310/224/100 284/203/100 342/176/100 357/160/100
f 311/223/43 310/224/43 357/160/43 356/56/43
f 316/225/101 352/226/101 192/61/101 358/60/101
f 315/157/44 316/225/44 358/60/44 354/186/44
f 321/155/102 340/159/102 196/195/102 359/24/102
f 320/138/43 321/155/43 359/24/43 355/187/43
f 325/144/103 286/150/103 346/178/103 360/153/103
f 326/145/44 325/144/44 360/153/44 353/36/44
f 282/220/116 331/192/116 364/192/116 371/220/116
f 341/204/117 284/203/117 375/203/117 374/204/117
f 171/199/118 339/136/118 372/136/118 363/199/118
f 343/206/119 344/205/119 373/205/119 376/206/119
f 336/152/120 341/204/120 374/204/120 365/152/120
f 345/210/121 286/209/121 379/209/121 378/210/121
f 344/221/122 333/156/122 366/156/122 373/221/122
f 347/214/123 348/213/123 377/213/123 380/214/123
f 311/223/124 343/222/124 376/222/124 388/223/124
f 349/158/125 288/154/125 383/154/125 382/158/125
f 284/203/126 310/224/126 389/224/126 375/203/126
f 351/216/127 352/215/127 381/215/127 384/216/127
f 310/224/128 311/223/128 388/223/128 389/224/128
f 332/193/129 345/219/129 378/219/129 361/193/129
f 352/226/130 316/225/130 390/225/130 381/226/130
f 348/213/131 329/200/131 362/200/131 377/213/131
f 329/200/132 171/199/132 363/199/132 362/200/132
f 316/225/133 315/157/133 386/157/133 390/225/133
f 407/242/164 409/244/164 473/244/164 471/242/164
f 444/276/167 442/274/167 506/274/167 508/276/167
f 516/283/162 514/282/162 578/282/162 580/283/162
f 461/232/136 463/234/136 527/234/136 525/232/136
f 425/259/168 427/261/168 491/261/168 489/259/168
f 410/243/169 408/241/169 472/241/169 474/243/169
f 443/277/170 445/279/170 509/279/170 507/277/170
f 428/260/171 426/258/171 490/258/171 492/260/171
f 446/278/172 444/276/172 508/276/172 510/278/172
f 409/244/173 411/246/173 475/246/173 473/244/173
f 427/261/174 429/263/174 493/263/174 491/261/174
f 412/245/175 410/243/175 474/243/175 476/245/175
f 393/227/176 395/230/176 458/230/176 457/227/176
f 445/279/177 447/281/177 511/281/177 509/279/177
f 430/262/178 428/260/178 492/260/178 494/262/178
f 396/229/179 394/228/179 460/228/179 459/229/179
f 448/280/180 446/278/180 510/278/180 512/280/180
f 411/246/181 413/248/181 477/248/181 475/246/181
f 429/263/182 431/265/182 495/265/182 493/263/182
f 414/247/183 412/245/183 476/245/183 478/247/183
f 447/281/184 449/131/184 513/131/184 511/281/184
f 432/264/185 430/262/185 494/262/185 496/264/185
f 395/230/186 397/232/186 461/232/186 458/230/186
f 450/282/187 448/280/187 512/280/187 514/282/187
f 413/248/188 415/250/188 479/250/188 477/248/188
f 398/231/189 396/229/189 459/229/189 462/231/189
f 431/265/190 433/267/190 497/267/190 495/265/190
f 416/249/191 414/247/191 478/247/191 480/249/191
f 449/131/192 451/284/192 515/284/192 513/131/192
f 434/266/193 432/264/193 496/264/193 498/266/193
f 397/232/194 399/234/194 463/234/194 461/232/194
f 452/283/195 450/282/195 514/282/195 516/283/195
f 415/250/196 417/251/196 481/251/196 479/250/196
f 400/233/197 398/231/197 462/231/197 464/233/197
f 433/267/198 435/269/198 499/269/198 497/267/198
f 418/129/199 416/249/199 480/249/199 482/129/199
f 451/284/200 453/286/200 517/286/200 515/284/200
f 436/268/201 434/266/201 498/266/201 500/268/201
f 399/234/202 401/236/202 465/236/202 463/234/202
f 454/285/203 452/283/203 516/283/203 518/285/203
f 417/251/204 419/253/204 483/253/204 481/251/204
f 402/235/205 400/233/205 464/233/205 466/235/205
f 435/269/206 437/271/206 501/271/206 499/269/206
f 420/252/207 418/129/207 482/129/207 484/252/207
f 453/286/208 455/288/208 519/288/208 517/286/208
f 438/270/209 436/268/209 500/268/209 502/270/209
f 401/236/210 403/238/210 467/238/210 465/236/210
f 456/287/211 454/285/211 518/285/211 520/287/211
f 419/253/212 421/255/212 485/255/212 483/253/212
f 404/237/213 402/235/213 466/235/213 468/237/213
f 437/271/214 439/273/214 503/273/214 501/271/214
f 422/254/215 420/252/215 484/252/215 486/254/215
f 455/288/216 393/290/216 457/290/216 519/288/216
f 440/272/217 438/270/217 502/270/217 504/272/217
f 403/238/218 405/240/218 469/240/218 467/238/218
f 394/289/219 456/287/219 520/287/219 460/289/219
f 421/255/220 423/257/220 487/257/220 485/255/220
f 406/239/221 404/237/221 468/237/221 470/239/221
f 439/273/222 441/275/222 505/275/222 503/273/222
f 424/256/223 422/254/223 486/254/223 488/256/223
f 442/274/224 440/272/224 504/272/224 506/274/224
f 405/240/225 407/242/225 471/242/225 469/240/225
f 423/257/226 425/259/226 489/259/226 487/257/226
f 408/241/227 406/239/227 470/239/227 472/241/227
f 441/275/228 443/277/228 507/277/228 505/275/228
f 426/258/229 424/256/229 488/256/229 490/258/229
f 523/291/3 524/292/3 584/293/3 582/294/3 580/295/3 578/296/3 576/297/3 574/298/3 572/299/3 570/300/3 568/301/3 566/302/3 564/303/3 562/304/3 560/305/3 558/306/3 556/307/3 554/308/3 552/309/3 550/310/3 548/311/3 546/312/3 544/313/3 542/314/3 540/315/3 538/316/3 536/317/3 534/318/3 532/319/3 530/320/3 528/321/3 526/322/3
f 521/323/1 522/324/1 525/325/1 527/326/1 529/327/1 531/328/1 533/329/1 535/330/1 537/331/1 539/332/1 541/333/1 543/334/1 545/335/1 547/336/1 549/337/1 551/338/1 553/339/1 555/340/1 557/341/1 559/342/1 561/343/1 563/344/1 565/345/1 567/346/1 569/347/1 571/348/1 573/349/1 575/350/1 577/351/1 579/352/1 581/353/1 583/354/1
f 490/258/149 488/256/149 552/256/149 554/258/149
f 464/233/136 462/231/136 526/231/136 528/233/136
f 515/284/163 517/286/163 581/286/163 579/284/163
f 489/259/150 491/261/150 555/261/150 553/259/150
f 463/234/137 465/236/137 529/236/137 527/234/137
f 518/285/163 516/283/163 580/283/163 582/285/163
f 492/260/150 490/258/150 554/258/150 556/260/150
f 466/235/137 464/233/137 528/233/137 530/235/137
f 517/286/165 519/288/165 583/288/165 581/286/165
f 491/261/151 493/263/151 557/263/151 555/261/151
f 465/236/138 467/238/138 531/238/138 529/236/138
f 520/287/165 518/285/165 582/285/165 584/287/165
f 494/262/151 492/260/151 556/260/151 558/262/151
f 468/237/138 466/235/138 530/235/138 532/237/138
f 519/288/166 457/290/166 521/290/166 583/288/166
f 493/263/152 495/265/152 559/265/152 557/263/152
f 467/238/139 469/240/139 533/240/139 531/238/139
f 460/289/166 520/287/166 584/287/166 524/289/166
f 496/264/152 494/262/152 558/262/152 560/264/152
f 470/239/139 468/237/139 532/237/139 534/239/139
f 495/265/153 497/267/153 561/267/153 559/265/153
f 469/240/140 471/242/140 535/242/140 533/240/140
f 498/266/153 496/264/153 560/264/153 562/266/153
f 472/241/140 470/239/140 534/239/140 536/241/140
f 497/267/154 499/269/154 563/269/154 561/267/154
f 471/242/141 473/244/141 537/244/141 535/242/141
f 500/268/154 498/266/154 562/266/154 564/268/154
f 474/243/141 472/241/141 536/241/141 538/243/141
f 499/269/155 501/271/155 565/271/155 563/269/155
f 473/244/142 475/246/142 539/246/142 537/244/142
f 502/270/155 500/268/155 564/268/155 566/270/155
f 476/245/142 474/243/142 538/243/142 540/245/142
f 501/271/156 503/273/156 567/273/156 565/271/156
f 475/246/143 477/248/143 541/248/143 539/246/143
f 504/272/156 502/270/156 566/270/156 568/272/156
f 478/247/143 476/245/143 540/245/143 542/247/143
f 503/273/157 505/275/157 569/275/157 567/273/157
f 477/248/144 479/250/144 543/250/144 541/248/144
f 506/274/157 504/272/157 568/272/157 570/274/157
f 480/249/144 478/247/144 542/247/144 544/249/144
f 505/275/158 507/277/158 571/277/158 569/275/158
f 479/250/145 481/251/145 545/251/145 543/250/145
f 508/276/158 506/274/158 570/274/158 572/276/158
f 482/129/145 480/249/145 544/249/145 546/129/145
f 507/277/159 509/279/159 573/279/159 571/277/159
f 481/251/146 483/253/146 547/253/146 545/251/146
f 510/278/159 508/276/159 572/276/159 574/278/159
f 484/252/146 482/129/146 546/129/146 548/252/146
f 509/279/160 511/281/160 575/281/160 573/279/160
f 483/253/147 485/255/147 549/255/147 547/253/147
f 457/227/134 458/230/134 522/230/134 521/227/134
f 512/280/160 510/278/160 574/278/160 576/280/160
f 486/254/147 484/252/147 548/252/147 550/254/147
f 459/229/134 460/228/134 524/228/134 523/229/134
f 511/281/161 513/131/161 577/131/161 575/281/161
f 485/255/148 487/257/148 551/257/148 549/255/148
f 458/230/135 461/232/135 525/232/135 522/230/135
f 514/282/161 512/280/161 576/280/161 578/282/161
f 488/256/148 486/254/148 550/254/148 552/256/148
f 462/231/135 459/229/135 523/229/135 526/231/135
f 513/131/162 515/284/162 579/284/162 577/131/162
f 487/257/149 489/259/149 553/259/149 551/257/149
usemtl M_Orange
f 106/92/5 107/106/5 129/107/5 114/92/5
f 126/114/7 113/90/7 109/78/7 108/103/7
f 119/92/5 133/106/5 107/106/5 106/92/5
f 112/84/7 132/99/7 105/87/7 104/84/7
f 127/100/5 118/51/5 111/51/5 110/105/5
f 109/78/7 113/90/7 124/90/7 120/90/7
f 108/103/7 109/78/7 115/89/7 130/102/7
f 104/84/7 105/87/7 128/86/7 116/109/7
f 110/105/5 111/51/5 117/96/5 131/104/5
f 111/51/5 118/51/5 139/51/5 121/97/5
f 106/92/5 114/92/5 135/111/5 122/101/5
f 104/84/7 116/109/7 137/85/7 123/84/7
f 112/84/7 104/84/7 123/84/7 134/84/7
f 119/92/5 106/92/5 122/101/5 125/92/5
f 115/89/7 109/78/7 120/90/7 136/89/7
f 117/96/5 111/51/5 121/97/5 138/97/5
f 362/200/16 363/199/16 364/192/16 361/193/16
f 366/156/11 367/148/11 368/151/11 365/152/11
f 370/146/104 371/147/104 372/136/104 369/137/104
f 374/204/105 375/203/105 376/206/105 373/205/105
f 378/210/106 379/209/106 380/214/106 377/213/106
f 382/158/107 383/154/107 384/216/107 381/215/107
f 361/193/108 378/219/108 377/213/108 362/200/108
f 386/157/109 382/158/109 381/226/109 390/225/109
f 383/154/110 368/151/110 367/148/110 384/149/110
f 387/138/111 370/139/111 369/159/111 391/155/111
f 371/220/112 364/192/112 363/199/112 372/136/112
f 365/152/113 374/204/113 373/221/113 366/156/113
f 375/203/114 389/224/114 388/223/114 376/222/114
f 379/150/115 392/144/115 385/145/115 380/196/115
usemtl M_Noir_Profond
f 34/76/10 35/77/10 213/77/10 215/76/10
f 19/80/5 202/51/5 205/51/5 32/82/5
f 23/84/7 22/83/7 33/79/7 207/84/7
f 39/93/18 38/94/18 216/94/18 214/93/18
f 22/79/18 19/81/18 32/82/18 33/79/18
f 18/95/7 17/93/7 212/93/7 209/95/7
f 201/92/5 16/74/5 37/74/5 206/92/5
f 21/75/7 203/78/7 208/90/7 36/75/7
f 16/74/10 21/75/10 36/75/10 37/74/10
f 17/93/8 18/95/8 202/51/8 201/91/8
f 204/76/8 20/163/8 203/78/8 23/50/8
f 18/95/11 35/77/11 205/51/11 202/51/11
f 39/93/16 17/93/16 201/91/16 206/92/16
f 34/76/11 204/76/11 23/50/11 207/84/11
f 35/77/11 34/76/11 207/84/11 205/51/11
f 20/163/16 38/94/16 208/90/16 203/78/16
f 38/94/16 39/93/16 206/92/16 208/90/16
f 17/93/7 39/93/7 214/93/7 212/93/7
f 20/163/5 204/76/5 210/76/5 211/163/5
f 38/94/5 20/163/5 211/163/5 216/94/5
f 204/76/5 34/76/5 215/76/5 210/76/5
f 35/77/7 18/95/7 209/95/7 213/77/7
f 295/14/8 296/12/8 297/167/8 298/13/8
f 298/13/8 297/167/8 308/181/8 307/180/8 318/190/8 300/172/8
f 299/170/8 313/191/8 304/70/8 303/11/8 296/12/8 295/14/8
f 292/164/8 291/69/8 293/171/8 328/184/8 306/25/8 305/26/8
f 302/32/8 301/173/8 323/73/8 294/72/8 290/68/8 289/31/8
f 294/72/8 299/170/8 295/14/8 290/68/8
f 291/69/8 298/13/8 300/172/8 293/171/8
f 289/31/8 290/68/8 291/69/8 292/164/8
usemtl M_Cyan
f 209/95/8 212/93/8 211/163/8 210/76/8
f 209/95/55 210/76/55 215/76/55 213/77/55
f 211/163/56 212/93/56 214/93/56 216/94/56
usemtl M_Light
f 393/227/134 394/228/134 396/229/134 395/230/134
f 395/230/135 396/229/135 398/231/135 397/232/135
f 397/232/136 398/231/136 400/233/136 399/234/136
f 399/234/137 400/233/137 402/235/137 401/236/137
f 401/236/138 402/235/138 404/237/138 403/238/138
f 403/238/139 404/237/139 406/239/139 405/240/139
f 405/240/140 406/239/140 408/241/140 407/242/140
f 407/242/141 408/241/141 410/243/141 409/244/141
f 409/244/142 410/243/142 412/245/142 411/246/142
f 411/246/143 412/245/143 414/247/143 413/248/143
f 413/248/144 414/247/144 416/249/144 415/250/144
f 415/250/145 416/249/145 418/129/145 417/251/145
f 417/251/146 418/129/146 420/252/146 419/253/146
f 419/253/147 420/252/147 422/254/147 421/255/147
f 421/255/148 422/254/148 424/256/148 423/257/148
f 423/257/149 424/256/149 426/258/149 425/259/149
f 425/259/150 426/258/150 428/260/150 427/261/150
f 427/261/151 428/260/151 430/262/151 429/263/151
f 429/263/152 430/262/152 432/264/152 431/265/152
f 431/265/153 432/264/153 434/266/153 433/267/153
f 433/267/154 434/266/154 436/268/154 435/269/154
f 435/269/155 436/268/155 438/270/155 437/271/155
f 437/271/156 438/270/156 440/272/156 439/273/156
f 439/273/157 440/272/157 442/274/157 441/275/157
f 441/275/158 442/274/158 444/276/158 443/277/158
f 443/277/159 444/276/159 446/278/159 445/279/159
f 445/279/160 446/278/160 448/280/160 447/281/160
f 447/281/161 448/280/161 450/282/161 449/131/161
f 449/131/162 450/282/162 452/283/162 451/284/162
f 451/284/163 452/283/163 454/285/163 453/286/163
f 453/286/165 454/285/165 456/287/165 455/288/165
f 455/288/166 456/287/166 394/289/166 393/290/166
