# Blender 4.2.3 LTS
# www.blender.org
mtllib SM_Server_V2.mtl
o SM_Server_V2
v -0.450000 0.000000 -0.440000
v -0.450000 0.000000 0.440000
v 0.450000 0.000000 0.440000
v 0.450000 0.000000 -0.440000
v -0.450000 0.000000 -0.364924
v -0.450000 0.000000 0.364924
v 0.418268 0.000000 0.364924
v 0.418268 0.000000 -0.364924
v -0.450000 0.146521 -0.440000
v 0.450000 0.201277 0.494755
v -0.450000 0.146521 0.440000
v -0.450000 0.146522 -0.364924
v 0.450000 0.201277 -0.494755
v 0.418268 0.179063 0.332383
v -0.450000 0.146522 0.364924
v 0.418268 0.179063 -0.332383
v 0.450000 0.241206 0.494755
v 0.450000 0.241206 -0.494755
v 0.418268 0.263420 0.332383
v -0.450000 0.295962 0.364924
v 0.418268 0.263420 -0.332383
v -0.411286 0.121521 -0.440000
v 0.411286 0.121521 0.440000
v -0.411286 0.121521 0.440000
v -0.411286 0.121521 -0.364924
v 0.411286 0.121521 -0.440000
v 0.411286 0.121521 0.364924
v 0.411286 0.146522 -0.364924
v 0.411286 0.121521 -0.364924
v 0.411286 0.146521 -0.440000
v -0.411286 0.121521 0.364924
v -0.411286 0.146522 0.364924
v -0.411286 0.146521 0.440000
v -0.411286 0.146521 -0.440000
v 0.411286 0.146521 0.440000
v -0.411286 0.146522 -0.364924
v 0.411286 0.146522 0.364924
v 0.450000 1.730647 0.454898
v -0.450000 1.675929 0.440000
v 0.450000 1.730647 -0.454898
v 0.450000 1.774802 0.379822
v 0.450000 1.774802 -0.379822
v 0.450000 1.836726 0.350026
v -0.450000 0.295962 -0.440000
v 0.450000 0.295962 0.440000
v -0.450000 0.295962 0.440000
v -0.450000 0.295962 -0.364924
v -0.450000 1.675929 -0.440000
v 0.450000 1.675929 0.440000
v -0.450000 1.720083 -0.364924
v -0.450000 1.720083 0.364924
v -0.398152 0.295962 -0.440000
v 0.398451 0.316730 0.460766
v -0.398152 0.295962 0.440000
v -0.398152 0.295962 -0.364924
v 0.398451 0.316730 -0.460766
v 0.398152 0.316730 0.344156
v 0.398152 1.699315 0.344156
v 0.398152 0.316730 -0.344156
v 0.398152 1.699315 -0.344156
v -0.398152 0.295962 0.364924
v 0.398451 1.655161 -0.460766
v -0.398152 1.675929 -0.440000
v 0.398451 1.655161 0.460766
v -0.398152 1.675929 0.440000
v -0.398152 1.720083 -0.364924
v -0.398152 1.720083 0.364924
v 0.450000 0.000000 -0.991754
v -0.450000 0.000000 -0.991754
v -0.450000 0.146522 -0.991754
v 0.450000 0.201277 -0.936998
v -0.450000 0.295962 -0.991754
v 0.450000 0.241206 -0.936998
v -0.416955 0.121521 -0.974124
v 0.416955 0.121521 -0.974124
v -0.416955 0.146522 -0.974124
v 0.416955 0.146522 -0.974124
v 0.450000 1.730647 -0.937035
v 0.450000 1.792571 -0.937035
v 0.450000 0.295962 -0.991754
v -0.450000 1.675929 -0.991754
v 0.450000 1.675929 -0.991754
v -0.405745 0.295962 -0.968144
v 0.405447 0.316730 -0.947378
v -0.405745 1.675929 -0.968144
v 0.405447 1.655161 -0.947378
v -0.450000 0.000000 0.991754
v 0.450000 0.000000 0.991754
v 0.450000 0.201277 0.936998
v -0.450000 0.146522 0.991754
v 0.450000 0.241206 0.936998
v -0.450000 0.295962 0.991754
v 0.416955 0.121521 0.974124
v -0.416955 0.121521 0.974124
v 0.416955 0.146522 0.974124
v -0.416955 0.146522 0.974124
v 0.450000 1.730647 0.937035
v 0.450000 1.792571 0.937035
v -0.450000 1.675929 0.991754
v 0.405447 0.316730 0.947378
v -0.405745 0.295962 0.968144
v 0.405447 1.655161 0.947378
v -0.405745 1.675929 0.968144
v -0.450000 0.000000 1.045877
v 0.450000 0.146521 1.045877
v 0.419790 0.121521 1.023375
v 0.419790 0.146521 1.023375
v 0.450000 0.364396 1.045877
v 0.450000 1.607495 1.045877
v 0.409542 0.364396 1.015741
v 0.409542 1.607495 1.015741
v 0.450000 0.000000 1.045877
v -0.450000 0.146521 1.045877
v -0.419790 0.121521 1.023375
v -0.419790 0.146521 1.023375
v -0.450000 0.364396 1.045877
v -0.450000 1.607495 1.045877
v -0.409542 0.364396 1.015741
v -0.409542 1.607495 1.015741
v 0.450000 0.000000 -1.045877
v -0.450000 0.146521 -1.045877
v -0.419790 0.121521 -1.023375
v -0.419790 0.146521 -1.023375
v -0.450000 1.607495 -1.045877
v -0.450000 0.364396 -1.045877
v -0.409542 0.364396 -1.015741
v -0.409542 1.607495 -1.015741
v -0.450000 0.000000 -1.045877
v 0.450000 0.146521 -1.045877
v 0.450000 0.364396 -1.045877
v 0.419790 0.121521 -1.023375
v 0.419790 0.146521 -1.023375
v 0.450000 1.607495 -1.045877
v 0.409542 0.364396 -1.015741
v 0.409542 1.607495 -1.015741
v 0.450000 0.146522 -0.991754
v 0.450000 0.146521 -0.440000
v 0.450000 0.295962 -0.440000
v 0.450000 0.146521 0.440000
v 0.450000 0.146522 0.991754
v 0.450000 0.295962 0.991754
v 0.445301 0.201277 -0.936998
v 0.445301 0.201277 -0.494755
v 0.445301 0.241206 -0.494755
v 0.445301 0.241206 -0.936998
v 0.445301 0.241206 0.494755
v 0.445301 0.201277 0.494755
v 0.445301 0.201277 0.936998
v 0.445301 0.241206 0.936998
v 0.450000 1.675929 -0.440000
v 0.450000 1.720083 0.364924
v 0.450000 1.720083 -0.364924
v 0.450000 1.792571 -0.425102
v 0.450000 1.792571 0.425102
v 0.450000 1.836726 -0.350026
v 0.450000 1.675929 0.991754
v 0.444003 1.730647 0.454898
v 0.444003 1.792571 0.425102
v 0.444003 1.836726 -0.350026
v 0.444003 1.774802 -0.379822
v 0.444003 1.730647 -0.454898
v 0.444003 1.792571 -0.425102
v 0.444003 1.836726 0.350026
v 0.444003 1.774802 0.379822
v 0.444003 1.730647 -0.937035
v 0.444003 1.792571 -0.937035
v 0.444003 1.730647 0.937035
v 0.444003 1.792571 0.937035
v 0.399486 0.364396 -1.016543
v 0.395690 0.295962 -0.968946
v 0.399486 1.607495 -1.016543
v 0.395690 1.675929 -0.968946
v 0.395690 0.295962 0.968946
v 0.395690 1.675929 0.968946
v 0.399486 0.364396 1.016543
v 0.399486 1.607495 1.016543
v -0.422535 0.000000 1.100000
v -0.450000 0.000000 1.073020
v -0.450000 0.000000 -1.073020
v -0.422535 0.000000 -1.100000
v 0.450000 0.000000 1.073020
v 0.422535 0.000000 1.100000
v 0.422535 0.000000 -1.100000
v 0.450000 0.000000 -1.073020
v -0.422143 0.146521 -1.100000
v -0.450000 0.146521 -1.072690
v 0.450000 0.146521 -1.072690
v 0.422143 0.146521 -1.100000
v 0.450000 0.146521 1.072690
v 0.422143 0.146521 1.100000
v -0.422143 0.146521 1.100000
v -0.450000 0.146521 1.072690
v -0.450000 0.364396 -1.072668
v -0.422123 0.364396 -1.100000
v 0.422123 0.364396 -1.100000
v 0.450000 0.364396 -1.072668
v 0.422123 0.364396 1.100000
v 0.450000 0.364396 1.072668
v -0.422123 0.364396 1.100000
v -0.450000 0.364396 1.072668
v -0.420968 0.121521 -1.043840
v -0.394893 0.121521 -1.072625
v 0.394893 0.121521 -1.072625
v 0.420968 0.121521 -1.043840
v 0.420968 0.121521 1.043840
v 0.394893 0.121521 1.072625
v -0.394893 0.121521 1.072625
v -0.420968 0.121521 1.043840
v -0.420965 0.146521 -1.043795
v -0.394838 0.146521 -1.072625
v 0.394838 0.146521 -1.072625
v 0.420965 0.146521 -1.043795
v 0.394838 0.146521 1.072625
v 0.420965 0.146521 1.043795
v -0.420965 0.146521 1.043795
v -0.394838 0.146521 1.072625
v -0.422384 1.607495 -1.100000
v -0.450000 1.607495 -1.072869
v 0.450000 1.607495 -1.072869
v 0.422384 1.607495 -1.100000
v 0.422384 1.607495 1.100000
v 0.450000 1.607495 1.072869
v -0.422384 1.607495 1.100000
v -0.450000 1.607495 1.072869
v -0.450000 0.364396 -1.072547
v -0.421953 0.364396 -1.100000
v 0.421953 0.364396 -1.100000
v 0.450000 0.364396 -1.072547
v 0.450000 0.364396 1.072547
v 0.421953 0.364396 1.100000
v -0.421953 0.364396 1.100000
v -0.450000 0.364396 1.072547
v 0.422116 1.607495 -1.100000
v 0.450000 1.607495 -1.072670
v -0.422116 1.607495 -1.100000
v -0.450000 1.607495 -1.072670
v 0.422116 1.607495 1.100000
v 0.450000 1.607495 1.072670
v -0.450000 1.607495 1.072670
v -0.422116 1.607495 1.100000
v -0.410974 0.364396 -1.033702
v -0.338445 0.411294 -1.063338
v 0.338445 0.411294 -1.063338
v 0.410974 0.364396 -1.033702
v 0.338445 0.411294 1.063338
v 0.410974 0.364396 1.033702
v -0.410974 0.364396 1.033702
v -0.338445 0.411294 1.063338
v 0.410976 1.607495 -1.033725
v 0.338474 1.560597 -1.063338
v -0.410976 1.607495 -1.033725
v -0.338474 1.560597 -1.063338
v 0.410976 1.607495 1.033725
v 0.338474 1.560597 1.063338
v -0.338474 1.560597 1.063338
v -0.410976 1.607495 1.033725
v -0.420770 1.847290 -0.440000
v -0.450000 1.817345 -0.440000
v 0.420770 1.847290 0.440000
v 0.450000 1.818059 0.432042
v -0.420770 1.847290 0.440000
v -0.450000 1.817345 0.440000
v -0.450000 1.861390 -0.364924
v -0.420770 1.891444 -0.364924
v 0.420770 1.847290 -0.440000
v 0.450000 1.818059 -0.432042
v -0.420770 1.891444 0.364924
v -0.450000 1.861390 0.364924
v 0.420770 1.891444 -0.364924
v 0.450000 1.862214 -0.356966
v -0.420770 1.847290 -0.991754
v -0.450000 1.817516 -0.991754
v -0.450000 1.817516 0.991754
v -0.420770 1.847290 0.991754
v 0.420770 1.847290 1.045877
v 0.450000 1.817905 1.045877
v -0.450000 1.817644 1.045877
v -0.420770 1.847290 1.045877
v -0.420770 1.847290 -1.045877
v -0.450000 1.817644 -1.045877
v 0.450000 1.817905 -1.045877
v 0.420770 1.847290 -1.045877
v 0.450000 1.817911 -0.991754
v 0.420770 1.847290 -0.991754
v 0.450000 1.862214 0.356966
v 0.420770 1.891444 0.364924
v 0.420770 1.847290 0.991754
v 0.450000 1.817911 0.991754
v -0.410535 1.847290 -1.070770
v -0.422483 1.817807 -1.100000
v -0.420770 1.847290 -1.060708
v -0.450000 1.817738 -1.072951
v 0.420770 1.847290 -1.060708
v 0.450000 1.817887 -1.072951
v 0.410535 1.847290 -1.070770
v 0.422483 1.817855 -1.100000
v 0.410535 1.847290 1.070770
v 0.422483 1.817855 1.100000
v 0.420770 1.847290 1.060708
v 0.450000 1.817887 1.072951
v -0.420770 1.847290 1.060708
v -0.450000 1.817738 1.072951
v -0.410535 1.847290 1.070770
v -0.422483 1.817807 1.100000
v -0.429132 0.121521 0.440000
v -0.450000 0.099365 0.440000
v -0.429132 0.121521 -0.440000
v -0.450000 0.099365 -0.440000
v 0.428895 0.121521 -0.440000
v 0.450000 0.099365 -0.440000
v 0.428895 0.121521 0.440000
v 0.450000 0.099365 0.440000
v -0.429036 0.121521 0.364924
v -0.450000 0.099365 0.364924
v -0.450000 0.099365 -0.364924
v -0.429036 0.121521 -0.364924
v 0.397010 0.121521 -0.364924
v 0.418268 0.099365 -0.364924
v 0.418268 0.099365 0.364924
v 0.397010 0.121521 0.364924
v -0.429330 0.121521 -0.980726
v -0.450000 0.099365 -0.991754
v 0.450000 0.099365 -0.991754
v 0.429168 0.121521 -0.980640
v 0.429168 0.121521 0.980640
v 0.450000 0.099365 0.991754
v -0.450000 0.099365 0.991754
v -0.429330 0.121521 0.980726
v 0.429547 0.121521 1.030642
v 0.450000 0.099365 1.045877
v -0.450000 0.099365 1.045877
v -0.429647 0.121521 1.030717
v -0.429647 0.121521 -1.030717
v -0.450000 0.099365 -1.045877
v 0.450000 0.099365 -1.045877
v 0.429547 0.121521 -1.030642
v -0.422445 0.099365 1.100000
v -0.402563 0.121521 1.080251
v -0.430109 0.121521 1.052999
v -0.450000 0.099365 1.072945
v -0.450000 0.099365 -1.072945
v -0.430109 0.121521 -1.052999
v -0.402563 0.121521 -1.080251
v -0.422445 0.099365 -1.100000
v 0.450000 0.099365 1.072945
v 0.430062 0.121521 1.052952
v 0.402541 0.121521 1.080229
v 0.422445 0.099365 1.100000
v 0.422445 0.099365 -1.100000
v 0.402541 0.121521 -1.080229
v 0.430062 0.121521 -1.052952
v 0.450000 0.099365 -1.072945
v 0.418268 0.295962 0.364924
v 0.418268 0.146522 0.364924
v 0.418268 0.146522 -0.364924
v 0.418268 0.295962 -0.364924
v 0.336707 0.263420 0.332383
v 0.336707 0.179063 0.332383
v 0.336707 0.179063 -0.332383
v 0.336707 0.263420 -0.332383
v 0.405745 0.295962 -0.968144
v 0.398152 1.720083 0.364924
v 0.398152 0.295962 -0.440000
v 0.398152 0.295962 0.364924
v 0.398152 0.295962 -0.364924
v 0.398152 1.720083 -0.364924
v 0.398152 1.675929 -0.440000
v 0.405745 1.675929 -0.968144
v 0.398152 1.675929 0.440000
v 0.405745 0.295962 0.968144
v 0.398152 0.295962 0.440000
v 0.405745 1.675929 0.968144
v 0.375769 0.331367 -0.933166
v 0.369194 0.331367 -0.475825
v 0.368682 1.684679 0.329520
v 0.368682 0.331367 0.329520
v 0.368682 0.331367 -0.329520
v 0.368682 1.684679 -0.329520
v 0.369194 1.640524 -0.475825
v 0.375769 1.640524 -0.933166
v 0.369194 1.640524 0.475825
v 0.369194 0.331367 0.475825
v 0.375769 0.331367 0.933166
v 0.375769 1.640524 0.933166
v 0.375980 0.316730 -0.947801
v 0.368984 0.316730 -0.461190
v 0.368682 1.699315 0.344156
v 0.368682 0.316730 0.344156
v 0.368682 0.316730 -0.344156
v 0.368682 1.699315 -0.344156
v 0.368984 1.655161 -0.461190
v 0.375980 1.655161 -0.947801
v 0.368984 1.655161 0.461190
v 0.368984 0.316730 0.461190
v 0.375980 0.316730 0.947801
v 0.375980 1.655161 0.947801
v 0.392501 0.331367 -0.932926
v 0.385926 0.331367 -0.475584
v 0.385415 1.684679 0.329520
v 0.385415 0.331367 0.329520
v 0.385415 0.331367 -0.329520
v 0.385415 1.684679 -0.329520
v 0.385926 1.640524 -0.475584
v 0.392501 1.640524 -0.932926
v 0.385926 1.640524 0.475584
v 0.385926 0.331367 0.475584
v 0.392501 0.331367 0.932926
v 0.392501 1.640524 0.932926
v 0.385341 0.364396 -1.063338
v 0.385373 1.607495 -1.063338
v 0.385373 1.607495 1.063338
v 0.385341 0.364396 1.063338
v -0.385341 0.364396 1.063338
v -0.385373 1.607495 1.063338
v -0.385373 1.607495 -1.063338
v -0.385341 0.364396 -1.063338
v 0.320902 0.428837 -1.026920
v 0.320930 1.543054 -1.026920
v 0.320930 1.543054 1.026920
v 0.320902 0.428837 1.026920
v -0.320902 0.428837 1.026920
v -0.320930 1.543054 1.026920
v -0.320930 1.543054 -1.026920
v -0.320902 0.428837 -1.026920
v 0.338445 0.411294 -1.026920
v 0.338474 1.560597 -1.026920
v 0.338474 1.560597 1.026920
v 0.338445 0.411294 1.026920
v -0.338445 0.411294 1.026920
v -0.338474 1.560597 1.026920
v -0.338474 1.560597 -1.026920
v -0.338445 0.411294 -1.026920
v 0.320902 0.428837 -1.067384
v 0.320930 1.543054 -1.067384
v 0.320930 1.543054 1.067384
v 0.320902 0.428837 1.067384
v -0.320902 0.428837 1.067384
v -0.320930 1.543054 1.067384
v -0.320930 1.543054 -1.067384
v -0.320902 0.428837 -1.067384
v 0.347126 0.295962 0.364924
v 0.347126 0.295962 0.440000
v 0.347126 1.720083 0.364924
v 0.347126 0.295962 -0.364924
v 0.347126 1.720083 -0.364924
v 0.347126 0.295962 -0.440000
v 0.347126 1.675929 -0.440000
v 0.347126 1.675929 0.440000
v 0.375854 1.013845 0.302656
v 0.375854 1.013845 -0.302656
v 0.375854 0.370810 0.000000
v 0.375854 1.656880 0.000000
v 0.375854 1.013845 0.000000
v 0.375854 0.799500 -0.302656
v 0.375854 0.585155 -0.302656
v 0.375854 0.585155 0.302656
v 0.375854 0.799500 0.302656
v 0.375854 0.799500 0.000000
v 0.375854 0.585155 0.000000
v 0.408801 0.585155 0.000000
v 0.408801 0.989227 0.265109
v 0.408801 0.824119 0.265109
v 0.408801 0.824119 -0.265109
v 0.408801 0.989227 -0.265109
v 0.408801 0.609774 -0.265109
v 0.408801 0.774882 -0.265109
v 0.408801 0.774882 0.265109
v 0.408801 0.609774 0.265109
v 0.408801 0.609774 0.000000
v 0.408801 0.395429 -0.265109
v 0.408801 0.560537 -0.265109
v 0.408801 0.560537 -0.024618
v 0.408801 0.395429 -0.024618
v 0.408801 0.395429 0.024618
v 0.408801 0.560537 0.024618
v 0.408801 0.560537 0.265109
v 0.408801 0.395429 0.265109
v 0.408801 1.038464 -0.278038
v 0.408801 1.632262 -0.278038
v 0.408801 1.632262 0.000000
v 0.408801 1.632262 0.278038
v 0.408801 1.038464 0.278038
v 0.412042 0.989227 0.265109
v 0.412042 0.824119 0.265109
v 0.412042 0.989227 -0.265109
v 0.412042 0.824119 -0.265109
v 0.412042 0.774882 -0.265109
v 0.412042 0.609774 -0.265109
v 0.412042 0.609774 0.000000
v 0.412042 0.774882 0.265109
v 0.412042 0.609774 0.265109
v 0.412042 0.560537 -0.265109
v 0.412042 0.395429 -0.265109
v 0.412042 0.395429 -0.024618
v 0.412042 0.560537 -0.024618
v 0.412042 0.560537 0.024618
v 0.412042 0.395429 0.024618
v 0.412042 0.395429 0.265109
v 0.412042 0.560537 0.265109
v 0.412042 1.632262 -0.278038
v 0.412042 1.038464 -0.278038
v 0.412042 1.038464 0.278038
v 0.412042 1.632262 0.000000
v 0.412042 1.632262 0.278038
v 0.412042 0.979924 0.256239
v 0.412042 0.833422 0.256239
v 0.412042 0.833422 -0.256239
v 0.412042 0.979924 -0.256239
v 0.412042 0.619077 -0.256239
v 0.412042 0.765579 -0.256239
v 0.412042 0.765579 0.256239
v 0.412042 0.619077 0.256239
v 0.412042 0.619077 0.000000
v 0.412042 0.404732 -0.256239
v 0.412042 0.551234 -0.256239
v 0.412042 0.551234 -0.033922
v 0.412042 0.404732 -0.033922
v 0.412042 0.404732 0.033922
v 0.412042 0.551234 0.033922
v 0.412042 0.551234 0.256239
v 0.412042 0.404732 0.256239
v 0.412042 1.047767 -0.268735
v 0.412042 1.622959 -0.268735
v 0.412042 1.622959 0.000000
v 0.412042 1.622959 0.268735
v 0.412042 1.047767 0.268735
v 0.407505 0.979924 0.256239
v 0.407505 0.833422 0.256239
v 0.407505 0.979924 -0.256239
v 0.407505 0.833422 -0.256239
v 0.407505 0.765579 -0.256239
v 0.407505 0.619077 -0.256239
v 0.407505 0.619077 0.000000
v 0.407505 0.765579 0.256239
v 0.407505 0.619077 0.256239
v 0.407505 0.551234 -0.256239
v 0.407505 0.404732 -0.256239
v 0.407505 0.404732 -0.033922
v 0.407505 0.551234 -0.033922
v 0.407505 0.551234 0.033922
v 0.407505 0.404732 0.033922
v 0.407505 0.404732 0.256239
v 0.407505 0.551234 0.256239
v 0.407505 1.622959 -0.268735
v 0.407505 1.047767 -0.268735
v 0.407505 1.047767 0.268735
v 0.407505 1.622959 0.000000
v 0.407505 1.622959 0.268735
v 0.375854 0.370810 0.282546
v 0.375854 0.390920 0.302656
v 0.375854 1.636771 0.302656
v 0.375854 1.656880 0.282546
v 0.375854 0.390920 -0.302656
v 0.375854 0.370810 -0.282546
v 0.375854 1.656880 -0.282546
v 0.375854 1.636771 -0.302656
v 0.408801 0.385030 0.288436
v 0.408801 1.642661 0.288436
v 0.408801 0.385030 -0.288436
v 0.408801 1.642661 -0.288436
v 0.400650 1.013845 -0.302656
v 0.408801 1.013845 -0.293613
v 0.408801 1.013845 0.293613
v 0.400650 1.013845 0.302656
v 0.400650 0.370810 0.000000
v 0.408801 0.379853 0.000000
v 0.408801 1.647838 0.000000
v 0.400650 1.656880 0.000000
v 0.408801 0.799500 -0.294505
v 0.400650 0.799500 -0.302656
v 0.408801 0.585155 -0.293613
v 0.400650 0.585155 -0.302656
v 0.400650 0.799500 0.302656
v 0.408801 0.799500 0.294505
v 0.400650 0.585155 0.302656
v 0.408801 0.585155 0.293613
v 0.408801 0.387160 0.293578
v 0.400650 0.390920 0.302656
v 0.400650 0.370810 0.282546
v 0.408801 0.379889 0.286307
v 0.408801 1.647802 0.286307
v 0.400650 1.656880 0.282546
v 0.400650 1.636771 0.302656
v 0.408801 1.640531 0.293578
v 0.408801 0.379889 -0.286307
v 0.400650 0.370810 -0.282546
v 0.400650 0.390920 -0.302656
v 0.408801 0.387160 -0.293578
v 0.408801 1.640531 -0.293578
v 0.400650 1.636771 -0.302656
v 0.400650 1.656880 -0.282546
v 0.408801 1.647802 -0.286307
v 0.372467 0.398265 0.907363
v 0.372467 0.688962 0.907363
v 0.372467 0.724312 0.907363
v 0.372467 1.147601 0.907363
v 0.372467 1.184982 0.907363
v 0.372467 1.318709 0.907363
v 0.372467 1.354058 0.907363
v 0.372467 1.601735 0.907363
v 0.372467 1.601735 0.498517
v 0.372467 1.354058 0.498517
v 0.372467 1.318709 0.498517
v 0.372467 1.184982 0.498517
v 0.372467 1.147601 0.498517
v 0.372467 0.724312 0.498517
v 0.372467 0.688962 0.498517
v 0.372467 0.398265 0.498517
v 0.409335 1.601735 0.498517
v 0.409335 1.354058 0.498517
v 0.409335 1.318709 0.498517
v 0.409335 1.184982 0.498517
v 0.409335 1.147601 0.498517
v 0.409335 0.724312 0.498517
v 0.409335 0.688962 0.498517
v 0.409335 0.398265 0.498517
v 0.409335 1.601735 0.907363
v 0.409335 1.354058 0.907363
v 0.409335 1.318709 0.907363
v 0.409335 1.184982 0.907363
v 0.409335 1.147601 0.907363
v 0.409335 0.724312 0.907363
v 0.409335 0.688962 0.907363
v 0.409335 0.398265 0.907363
v 0.372467 0.362695 0.550920
v 0.372467 0.362695 0.854961
v 0.372467 1.637305 0.854960
v 0.372467 1.637305 0.550920
v 0.409335 0.362695 0.854960
v 0.409335 0.362695 0.550920
v 0.409335 1.637305 0.550920
v 0.409335 1.637305 0.854961
v 0.372467 0.398265 0.854960
v 0.372467 0.398265 0.550920
v 0.372467 0.688962 0.854960
v 0.372467 0.688962 0.550920
v 0.372467 0.724312 0.854960
v 0.372467 0.724312 0.550920
v 0.372467 1.147601 0.854960
v 0.372467 1.147601 0.550920
v 0.372467 1.184982 0.854960
v 0.372467 1.184982 0.550920
v 0.372467 1.318709 0.854960
v 0.372467 1.318709 0.550920
v 0.372467 1.354058 0.854960
v 0.372467 1.354058 0.550920
v 0.372467 1.601735 0.854960
v 0.372467 1.601735 0.550920
v 0.398771 1.269082 0.580677
v 0.398771 1.288951 0.580677
v 0.398771 1.288951 0.825203
v 0.398771 1.269082 0.825203
v 0.398771 0.638299 0.580677
v 0.398771 0.659205 0.580677
v 0.398771 0.659205 0.825203
v 0.398771 0.638299 0.825203
v 0.395367 1.288951 0.580677
v 0.395367 1.269082 0.580677
v 0.395367 1.269082 0.825203
v 0.395367 1.288951 0.825203
v 0.395367 0.659205 0.580677
v 0.395367 0.638299 0.580677
v 0.395367 0.638299 0.825203
v 0.395367 0.659205 0.825203
v 0.395367 1.274516 0.586111
v 0.395367 1.283518 0.586111
v 0.395367 1.283518 0.819769
v 0.395367 1.274516 0.819769
v 0.395367 0.643733 0.586111
v 0.395367 0.653771 0.586111
v 0.395367 0.653771 0.819769
v 0.395367 0.643733 0.819769
v 0.393533 1.283518 0.586111
v 0.393533 1.274516 0.586111
v 0.393533 1.274516 0.819769
v 0.393533 1.283518 0.819769
v 0.393533 0.653771 0.586111
v 0.393533 0.643733 0.586111
v 0.393533 0.643733 0.819769
v 0.393533 0.653771 0.819769
v 0.409335 0.412482 0.550920
v 0.409335 0.398265 0.565138
v 0.409335 0.384047 0.550920
v 0.409335 0.398265 0.536702
v 0.409335 0.398265 0.840743
v 0.409335 0.412482 0.854961
v 0.409335 0.398265 0.869178
v 0.409335 0.384047 0.854961
v 0.409335 0.688962 0.565138
v 0.409335 0.674744 0.550920
v 0.409335 0.688962 0.536702
v 0.409335 0.703180 0.550920
v 0.409335 0.674744 0.854961
v 0.409335 0.688962 0.840743
v 0.409335 0.703180 0.854961
v 0.409335 0.688962 0.869178
v 0.409335 0.738529 0.550920
v 0.409335 0.724312 0.565138
v 0.409335 0.710094 0.550920
v 0.409335 0.724312 0.536702
v 0.409335 0.724312 0.840743
v 0.409335 0.738529 0.854961
v 0.409335 0.724312 0.869178
v 0.409335 0.710094 0.854961
v 0.409335 1.147601 0.565138
v 0.409335 1.133383 0.550920
v 0.409335 1.147601 0.536702
v 0.409335 1.161818 0.550920
v 0.409335 1.133383 0.854961
v 0.409335 1.147601 0.840743
v 0.409335 1.161818 0.854961
v 0.409335 1.147601 0.869178
v 0.409335 1.199200 0.550920
v 0.409335 1.184982 0.565138
v 0.409335 1.170764 0.550920
v 0.409335 1.184982 0.536702
v 0.409335 1.184982 0.840743
v 0.409335 1.199200 0.854961
v 0.409335 1.184982 0.869178
v 0.409335 1.170764 0.854961
v 0.409335 1.318709 0.565138
v 0.409335 1.304491 0.550920
v 0.409335 1.318709 0.536702
v 0.409335 1.332927 0.550920
v 0.409335 1.304491 0.854961
v 0.409335 1.318709 0.840743
v 0.409335 1.332927 0.854961
v 0.409335 1.318709 0.869178
v 0.409335 1.368276 0.550920
v 0.409335 1.354058 0.565138
v 0.409335 1.339841 0.550920
v 0.409335 1.354058 0.536702
v 0.409335 1.354058 0.840743
v 0.409335 1.368276 0.854961
v 0.409335 1.354058 0.869178
v 0.409335 1.339841 0.854961
v 0.409335 1.601735 0.565138
v 0.409335 1.587518 0.550920
v 0.409335 1.601735 0.536702
v 0.409335 1.615953 0.550920
v 0.409335 1.587518 0.854961
v 0.409335 1.601735 0.840743
v 0.409335 1.615953 0.854961
v 0.409335 1.601735 0.869178
v 0.398771 0.398265 0.565138
v 0.398771 0.412482 0.550920
v 0.398771 0.412374 0.552669
v 0.398771 0.412482 0.854961
v 0.398771 0.398265 0.840743
v 0.398771 0.412374 0.853211
v 0.398771 0.674744 0.550920
v 0.398771 0.688962 0.565138
v 0.398771 0.678909 0.560973
v 0.398771 0.688962 0.840743
v 0.398771 0.674744 0.854961
v 0.398771 0.678909 0.844907
v 0.398771 0.724312 0.565138
v 0.398771 0.738529 0.550920
v 0.398771 0.738529 0.854961
v 0.398771 0.724312 0.840743
v 0.398771 1.133383 0.550920
v 0.398771 1.147601 0.565138
v 0.398771 1.147601 0.840743
v 0.398771 1.133383 0.854961
v 0.398771 1.184982 0.565138
v 0.398771 1.199200 0.550920
v 0.398771 1.198385 0.555662
v 0.398771 1.199200 0.854961
v 0.398771 1.184982 0.840743
v 0.398771 1.198385 0.850218
v 0.398771 1.304491 0.550920
v 0.398771 1.318709 0.565138
v 0.398771 1.308655 0.560973
v 0.398771 1.318709 0.840743
v 0.398771 1.304491 0.854961
v 0.398771 1.308655 0.844907
v 0.398771 1.354058 0.565138
v 0.398771 1.368276 0.550920
v 0.398771 1.368276 0.854961
v 0.398771 1.354058 0.840743
v 0.398771 1.587518 0.550920
v 0.398771 1.601735 0.565138
v 0.398771 1.601735 0.840743
v 0.398771 1.587518 0.854961
v 0.372467 0.362695 0.886491
v 0.372467 0.383567 0.907363
v 0.372467 1.616433 0.907363
v 0.372467 1.637305 0.886491
v 0.372467 0.383567 0.498517
v 0.372467 0.362695 0.519389
v 0.372467 1.637305 0.519389
v 0.372467 1.616433 0.498517
v 0.409335 0.383567 0.907363
v 0.409335 0.362695 0.886491
v 0.409335 1.637305 0.886491
v 0.409335 1.616433 0.907363
v 0.409335 0.362695 0.519389
v 0.409335 0.383567 0.498517
v 0.409335 1.616433 0.498517
v 0.409335 1.637305 0.519389
v 0.372467 0.398265 -0.499105
v 0.372467 0.585095 -0.499105
v 0.372467 0.620445 -0.499105
v 0.372467 1.217095 -0.499105
v 0.372467 1.254477 -0.499105
v 0.372467 1.431088 -0.499105
v 0.372467 1.466437 -0.499105
v 0.372467 1.601735 -0.499105
v 0.372467 1.601735 -0.907950
v 0.372467 1.466437 -0.907950
v 0.372467 1.431088 -0.907950
v 0.372467 1.254477 -0.907950
v 0.372467 1.217095 -0.907950
v 0.372467 0.620445 -0.907950
v 0.372467 0.585095 -0.907950
v 0.372467 0.398265 -0.907950
v 0.409335 1.601735 -0.907950
v 0.409335 1.466437 -0.907950
v 0.409335 1.431088 -0.907950
v 0.409335 1.254477 -0.907950
v 0.409335 1.217095 -0.907950
v 0.409335 0.620445 -0.907950
v 0.409335 0.585095 -0.907950
v 0.409335 0.398265 -0.907950
v 0.409335 1.601735 -0.499105
v 0.409335 1.466437 -0.499105
v 0.409335 1.431088 -0.499105
v 0.409335 1.254477 -0.499105
v 0.409335 1.217095 -0.499105
v 0.409335 0.620445 -0.499105
v 0.409335 0.585095 -0.499105
v 0.409335 0.398265 -0.499105
v 0.372467 0.362695 -0.855548
v 0.372467 0.362695 -0.551507
v 0.372467 1.637305 -0.551507
v 0.372467 1.637305 -0.855548
v 0.409335 0.362695 -0.551507
v 0.409335 0.362695 -0.855548
v 0.409335 1.637305 -0.855548
v 0.409335 1.637305 -0.551507
v 0.372467 0.398265 -0.551507
v 0.372467 0.398265 -0.855548
v 0.372467 0.585095 -0.551507
v 0.372467 0.585095 -0.855548
v 0.372467 0.620445 -0.551507
v 0.372467 0.620445 -0.855548
v 0.372467 1.217095 -0.551507
v 0.372467 1.217095 -0.855548
v 0.372467 1.254477 -0.551507
v 0.372467 1.254477 -0.855548
v 0.372467 1.431088 -0.551507
v 0.372467 1.431088 -0.855548
v 0.372467 1.466437 -0.551507
v 0.372467 1.466437 -0.855548
v 0.372467 1.601735 -0.551507
v 0.372467 1.601735 -0.855548
v 0.398771 1.360148 -0.825790
v 0.398771 1.380017 -0.825790
v 0.398771 1.380017 -0.581265
v 0.398771 1.360148 -0.581265
v 0.398771 0.481327 -0.825790
v 0.398771 0.502233 -0.825790
v 0.398771 0.502233 -0.581265
v 0.398771 0.481327 -0.581265
v 0.395367 1.380017 -0.825790
v 0.395367 1.360148 -0.825790
v 0.395367 1.360148 -0.581265
v 0.395367 1.380017 -0.581265
v 0.395367 0.502233 -0.825790
v 0.395367 0.481327 -0.825790
v 0.395367 0.481327 -0.581265
v 0.395367 0.502233 -0.581265
v 0.395367 1.365581 -0.820357
v 0.395367 1.374583 -0.820357
v 0.395367 1.374583 -0.586698
v 0.395367 1.365581 -0.586698
v 0.395367 0.486761 -0.820357
v 0.395367 0.496799 -0.820357
v 0.395367 0.496799 -0.586698
v 0.395367 0.486761 -0.586698
v 0.393533 1.374583 -0.820357
v 0.393533 1.365581 -0.820357
v 0.393533 1.365581 -0.586698
v 0.393533 1.374583 -0.586698
v 0.393533 0.496799 -0.820357
v 0.393533 0.486761 -0.820357
v 0.393533 0.486761 -0.586698
v 0.393533 0.496799 -0.586698
v 0.409335 0.412482 -0.855548
v 0.409335 0.398265 -0.841330
v 0.409335 0.384047 -0.855548
v 0.409335 0.398265 -0.869766
v 0.409335 0.398265 -0.565725
v 0.409335 0.412482 -0.551507
v 0.409335 0.398265 -0.537289
v 0.409335 0.384047 -0.551507
v 0.409335 0.585095 -0.841330
v 0.409335 0.570877 -0.855548
v 0.409335 0.585095 -0.869766
v 0.409335 0.599313 -0.855548
v 0.409335 0.570877 -0.551507
v 0.409335 0.585095 -0.565725
v 0.409335 0.599313 -0.551507
v 0.409335 0.585095 -0.537289
v 0.409335 0.634662 -0.855548
v 0.409335 0.620445 -0.841330
v 0.409335 0.606227 -0.855548
v 0.409335 0.620445 -0.869766
v 0.409335 0.620445 -0.565725
v 0.409335 0.634662 -0.551507
v 0.409335 0.620445 -0.537289
v 0.409335 0.606227 -0.551507
v 0.409335 1.217095 -0.841330
v 0.409335 1.202878 -0.855548
v 0.409335 1.217095 -0.869766
v 0.409335 1.231313 -0.855548
v 0.409335 1.202878 -0.551507
v 0.409335 1.217095 -0.565725
v 0.409335 1.231313 -0.551507
v 0.409335 1.217095 -0.537289
v 0.409335 1.268694 -0.855548
v 0.409335 1.254477 -0.841330
v 0.409335 1.240259 -0.855548
v 0.409335 1.254477 -0.869766
v 0.409335 1.254477 -0.565725
v 0.409335 1.268694 -0.551507
v 0.409335 1.254477 -0.537289
v 0.409335 1.240259 -0.551507
v 0.409335 1.431088 -0.841330
v 0.409335 1.416870 -0.855548
v 0.409335 1.431088 -0.869766
v 0.409335 1.445305 -0.855548
v 0.409335 1.416870 -0.551507
v 0.409335 1.431088 -0.565725
v 0.409335 1.445305 -0.551507
v 0.409335 1.431088 -0.537289
v 0.409335 1.480655 -0.855548
v 0.409335 1.466437 -0.841330
v 0.409335 1.452219 -0.855548
v 0.409335 1.466437 -0.869766
v 0.409335 1.466437 -0.565725
v 0.409335 1.480655 -0.551507
v 0.409335 1.466437 -0.537289
v 0.409335 1.452219 -0.551507
v 0.409335 1.601735 -0.841330
v 0.409335 1.587518 -0.855548
v 0.409335 1.601735 -0.869766
v 0.409335 1.615953 -0.855548
v 0.409335 1.587518 -0.551507
v 0.409335 1.601735 -0.565725
v 0.409335 1.615953 -0.551507
v 0.409335 1.601735 -0.537289
v 0.398771 0.398265 -0.841330
v 0.398771 0.412482 -0.855548
v 0.398771 0.412374 -0.853799
v 0.398771 0.412482 -0.551507
v 0.398771 0.398265 -0.565725
v 0.398771 0.412374 -0.553256
v 0.398771 0.570877 -0.855548
v 0.398771 0.585095 -0.841330
v 0.398771 0.575042 -0.845494
v 0.398771 0.585095 -0.565725
v 0.398771 0.570877 -0.551507
v 0.398771 0.575042 -0.561560
v 0.398771 0.620445 -0.841330
v 0.398771 0.634662 -0.855548
v 0.398771 0.634662 -0.551507
v 0.398771 0.620445 -0.565725
v 0.398771 1.202878 -0.855548
v 0.398771 1.217095 -0.841330
v 0.398771 1.217095 -0.565725
v 0.398771 1.202878 -0.551507
v 0.398771 1.254477 -0.841330
v 0.398771 1.268694 -0.855548
v 0.398771 1.267880 -0.850805
v 0.398771 1.268694 -0.551507
v 0.398771 1.254477 -0.565725
v 0.398771 1.267880 -0.556250
v 0.398771 1.416870 -0.855548
v 0.398771 1.431088 -0.841330
v 0.398771 1.421034 -0.845494
v 0.398771 1.431088 -0.565725
v 0.398771 1.416870 -0.551507
v 0.398771 1.421034 -0.561560
v 0.398771 1.466437 -0.841330
v 0.398771 1.480655 -0.855548
v 0.398771 1.480655 -0.551507
v 0.398771 1.466437 -0.565725
v 0.398771 1.587518 -0.855548
v 0.398771 1.601735 -0.841330
v 0.398771 1.601735 -0.565725
v 0.398771 1.587518 -0.551507
v 0.372467 0.362695 -0.519977
v 0.372467 0.383567 -0.499105
v 0.372467 1.616433 -0.499105
v 0.372467 1.637305 -0.519977
v 0.372467 0.383567 -0.907950
v 0.372467 0.362695 -0.887078
v 0.372467 1.637305 -0.887078
v 0.372467 1.616433 -0.907950
v 0.409335 0.383567 -0.499105
v 0.409335 0.362695 -0.519977
v 0.409335 1.637305 -0.519977
v 0.409335 1.616433 -0.499105
v 0.409335 0.362695 -0.887078
v 0.409335 0.383567 -0.907950
v 0.409335 1.616433 -0.907950
v 0.409335 1.637305 -0.887078
v 0.398771 0.633306 -0.836002
v 0.398771 0.639990 -0.842686
v 0.398771 1.197550 -0.842686
v 0.398771 1.204234 -0.836002
v 0.398771 1.204234 -0.571052
v 0.398771 1.197550 -0.564369
v 0.398771 0.639990 -0.564369
v 0.398771 0.633306 -0.571052
v 0.410091 0.639990 -0.842686
v 0.410091 0.633306 -0.836002
v 0.410091 0.633306 -0.571052
v 0.410091 1.197550 -0.842686
v 0.410091 1.204234 -0.836002
v 0.410091 1.204234 -0.571052
v 0.410091 1.197550 -0.564369
v 0.410091 0.639990 -0.564369
v 0.410091 0.636648 -0.839344
v 0.410091 0.633306 -0.703527
v 0.410091 0.918770 -0.842686
v 0.410091 1.200892 -0.839344
v 0.410091 1.204234 -0.703527
v 0.410091 1.200892 -0.567710
v 0.410091 0.918770 -0.564369
v 0.410091 0.636648 -0.567710
v 0.410091 0.635534 -0.838230
v 0.410091 0.634420 -0.837116
v 0.410091 0.633306 -0.659369
v 0.410091 0.633306 -0.615211
v 0.410091 0.825843 -0.842686
v 0.410091 0.732917 -0.842686
v 0.410091 1.199778 -0.840458
v 0.410091 1.198664 -0.841572
v 0.410091 1.204234 -0.747686
v 0.410091 1.204234 -0.791844
v 0.410091 1.202006 -0.568824
v 0.410091 1.203120 -0.569938
v 0.410091 1.011697 -0.564369
v 0.410091 1.104623 -0.564369
v 0.410091 0.637762 -0.566597
v 0.410091 0.638876 -0.565483
v 0.410091 0.638876 -0.841572
v 0.410091 0.637762 -0.840458
v 0.410091 0.633306 -0.791844
v 0.410091 0.633306 -0.747686
v 0.410091 1.104623 -0.842686
v 0.410091 1.011697 -0.842686
v 0.410091 1.203120 -0.837116
v 0.410091 1.202006 -0.838230
v 0.410091 1.204234 -0.615211
v 0.410091 1.204234 -0.659369
v 0.410091 1.198664 -0.565483
v 0.410091 1.199778 -0.566597
v 0.410091 0.732917 -0.564369
v 0.410091 0.825843 -0.564369
v 0.410091 0.634420 -0.569938
v 0.410091 0.635534 -0.568824
vn -1.0000 -0.0000 -0.0000
vn -0.0000 -1.0000 -0.0000
vn 1.0000 -0.0000 -0.0000
vn -0.0000 -0.0000 1.0000
vn 0.9211 -0.0000 -0.3893
vn -0.0000 1.0000 -0.0000
vn 0.9211 -0.0000 0.3893
vn -0.9983 -0.0000 -0.0575
vn 0.9983 -0.0000 -0.0575
vn 0.9999 -0.0000 -0.0106
vn 0.9983 -0.0000 0.0575
vn -0.9999 -0.0000 0.0106
vn -0.0000 -0.0000 -1.0000
vn -0.0000 0.8620 0.5070
vn -0.7009 -0.0003 0.7132
vn -0.0000 0.8620 -0.5070
vn -0.0000 -0.8620 -0.5070
vn -0.0000 -0.8620 0.5070
vn -0.9983 -0.0000 0.0575
vn 0.7009 -0.0003 -0.7132
vn -0.9999 -0.0000 0.0144
vn -0.9968 -0.0000 -0.0795
vn -0.0144 -0.0000 -0.9999
vn 0.9968 -0.0000 -0.0795
vn 0.9968 -0.0000 0.0795
vn 0.0144 -0.0000 -0.9999
vn 0.0144 -0.0000 0.9999
vn -0.9968 -0.0000 0.0795
vn 0.4568 -0.5224 0.7200
vn -0.4568 0.5224 0.7200
vn 0.9999 -0.0000 0.0106
vn -0.4568 -0.5224 -0.7200
vn -0.0795 -0.0000 0.9968
vn -0.9999 -0.0000 -0.0144
vn 0.4568 0.5224 -0.7200
vn -0.9999 -0.0000 -0.0106
vn -0.4568 0.5224 -0.7200
vn 0.4568 -0.5224 -0.7200
vn -0.7007 0.0006 0.7135
vn -0.0652 0.5722 -0.8175
vn 0.4568 0.5224 0.7200
vn -0.4568 -0.5224 0.7200
vn -0.7009 -0.0003 -0.7132
vn -0.0652 -0.5722 0.8175
vn -0.0652 0.5722 0.8175
vn -0.0795 -0.0000 -0.9968
vn -0.0652 -0.5722 -0.8175
vn 0.0795 -0.0000 -0.9968
vn 0.0795 -0.0000 0.9968
vn 0.7007 0.0006 0.7135
vn 0.7007 0.0006 -0.7135
vn 0.7001 0.0001 -0.7141
vn -0.7007 0.0006 -0.7135
vn 0.0001 1.0000 -0.0000
vn 0.7001 0.0001 0.7141
vn -0.7001 0.0001 0.7141
vn -0.7001 0.0001 -0.7141
vn -0.7411 0.0015 0.6714
vn 0.7411 0.0015 0.6714
vn 0.7411 0.0015 -0.6714
vn -0.7411 0.0015 -0.6714
vn 0.7009 -0.0003 0.7132
vn 0.0003 -1.0000 -0.0000
vn -0.0003 -1.0000 -0.0000
vn 0.7564 -0.0000 -0.6541
vn 0.7564 -0.0000 0.6541
vn -0.7564 -0.0000 0.6541
vn -0.7564 -0.0000 -0.6541
vn -0.7146 0.6995 -0.0001
vn -0.6627 0.6457 -0.3793
vn 0.7080 0.7062 -0.0001
vn 0.7071 0.6095 0.3585
vn -0.6627 0.6457 0.3793
vn -0.7169 0.6972 -0.0000
vn 0.7071 0.6095 -0.3585
vn 0.7071 0.7071 -0.0000
vn -0.7146 0.6995 0.0001
vn 0.7089 0.7053 -0.0000
vn 0.7080 0.7062 0.0001
vn -0.7128 0.7013 -0.0008
vn -0.7128 0.7013 0.0008
vn 0.4971 0.7047 0.5063
vn 0.4971 0.7047 -0.5063
vn -0.4988 0.7035 0.5062
vn -0.4988 0.7035 -0.5062
vn -0.7117 0.7025 0.0016
vn -0.0000 0.7043 -0.7099
vn 0.7090 0.7052 -0.0003
vn 0.7090 0.7052 0.0003
vn -0.0000 0.7043 0.7099
vn -0.7117 0.7025 -0.0016
vn -0.7296 0.6839 -0.0001
vn -0.7272 0.6865 0.0005
vn 0.7263 0.6873 0.0002
vn 0.6911 0.6607 -0.2928
vn -0.7272 0.6865 -0.0005
vn -0.7264 0.6873 -0.0000
vn 0.6911 0.6607 0.2928
vn 0.7216 0.6923 -0.0000
vn -0.7296 0.6839 0.0001
vn 0.7325 0.6808 0.0027
vn 0.7263 0.6873 -0.0002
vn -0.7345 0.6786 -0.0022
vn 0.7325 0.6808 -0.0027
vn -0.7345 0.6786 0.0022
vn -0.4347 0.7852 0.4410
vn -0.4347 0.7852 -0.4410
vn 0.4344 0.7857 -0.4404
vn 0.4344 0.7857 0.4404
vn -0.7430 0.6693 -0.0069
vn -0.0000 0.6656 0.7463
vn -0.0000 0.6656 -0.7463
vn -0.7430 0.6693 0.0069
vn 0.7421 0.6703 -0.0077
vn 0.7421 0.6702 0.0077
vn 0.9999 -0.0000 0.0144
vn 0.9999 -0.0000 -0.0144
vn -0.0144 -0.0000 0.9999
vn -0.0000 -0.7071 0.7071
vn -0.0000 0.7071 0.7071
vn -0.0000 -0.7071 -0.7071
vn -0.0000 0.7071 -0.7071
vn 0.7257 0.0014 -0.6880
vn 0.7257 -0.0014 -0.6880
vn 0.7257 0.0014 0.6880
vn 0.7257 -0.0014 0.6880
vn 0.4189 -0.6421 0.6421
vn 0.4189 0.6421 0.6421
vn 0.4189 -0.6421 -0.6421
vn 0.4189 0.6421 -0.6421
vn 0.7434 -0.6688 -0.0000
vn 0.7434 -0.0001 0.6688
vn 0.7434 -0.0000 0.6688
vn 0.7434 0.6688 -0.0000
vn 0.7434 -0.0001 -0.6688
vn 0.7434 -0.0000 -0.6688
vt 0.375000 0.229167
vt 0.579419 0.229167
vt 0.579419 0.239586
vt 0.375000 0.239615
vt 0.125000 0.510385
vt 0.132629 0.500000
vt 0.367371 0.500000
vt 0.375000 0.510385
vt 0.375000 0.520833
vt 0.125000 0.520833
vt 0.375000 0.729167
vt 0.579419 0.729167
vt 0.579419 0.739586
vt 0.375000 0.739615
vt 0.125000 0.729167
vt 0.375000 0.739614
vt 0.367371 0.750000
vt 0.132629 0.750000
vt 0.125000 0.739615
vt 0.375000 0.757629
vt 0.579419 0.757654
vt 0.579419 0.992346
vt 0.375000 0.992371
vt 0.625000 0.138889
vt 0.625000 0.166667
vt 0.375000 0.638889
vt 0.579419 0.638889
vt 0.579419 0.666667
vt 0.375000 0.666667
vt 0.625000 0.111111
vt 0.125000 0.541667
vt 0.375000 0.541667
vt 0.375000 0.583333
vt 0.125000 0.583333
vt 0.125000 0.638889
vt 0.125000 0.666667
vt 0.579419 0.583333
vt 0.579419 0.611111
vt 0.375000 0.611111
vt 0.625000 0.708333
vt 0.625000 0.666667
vt 0.375000 0.083333
vt 0.579419 0.083333
vt 0.579419 0.111111
vt 0.375000 0.111111
vt 0.625000 0.208333
vt 0.625000 0.208333
vt 0.625000 0.111111
vt 0.625000 0.083333
vt 0.625000 0.638889
vt 0.625000 0.611111
vt 0.625000 0.611111
vt 0.625000 0.638889
vt 0.625000 0.611111
vt 0.625000 0.583333
vt 0.625000 0.229167
vt 0.625000 0.229167
vt 0.125000 0.611111
vt 0.625000 0.238376
vt 0.625000 0.229167
vt 0.625000 0.237824
vt 0.625000 0.010513
vt 0.625000 0.020833
vt 0.625000 0.020833
vt 0.625000 0.012195
vt 0.625000 0.612350
vt 0.625000 0.612350
vt 0.625000 0.510512
vt 0.625000 0.520833
vt 0.625000 0.520833
vt 0.625000 0.512195
vt 0.625000 0.041667
vt 0.625000 0.041667
vt 0.625000 0.239488
vt 0.625000 0.239479
vt 0.625000 0.729167
vt 0.625000 0.739488
vt 0.625000 0.737805
vt 0.625000 0.729167
vt 0.375000 0.166667
vt 0.579419 0.166667
vt 0.579419 0.208333
vt 0.375000 0.208333
vt 0.625000 0.992262
vt 0.625000 0.757738
vt 0.625000 0.757744
vt 0.625000 0.992256
vt 0.625000 0.020833
vt 0.625000 0.010521
vt 0.625000 0.010568
vt 0.625000 0.239479
vt 0.625000 0.239433
vt 0.625000 0.239488
vt 0.625000 0.237805
vt 0.625000 0.229167
vt 0.625000 0.579198
vt 0.625000 0.545802
vt 0.625000 0.020833
vt 0.625000 0.012176
vt 0.625000 0.012195
vt 0.625000 0.541667
vt 0.625000 0.737824
vt 0.625000 0.729167
vt 0.625000 0.708333
vt 0.625000 0.512176
vt 0.625000 0.512195
vt 0.375000 0.010385
vt 0.579419 0.010414
vt 0.579419 0.020833
vt 0.375000 0.020833
vt 0.579419 0.611111
vt 0.625000 0.541667
vt 0.625000 0.491948
vt 0.625000 0.258051
vt 0.625000 0.258202
vt 0.625000 0.491798
vt 0.625000 0.510513
vt 0.625000 0.510521
vt 0.375000 0.138889
vt 0.579419 0.138889
vt 0.579419 0.166667
vt 0.625000 0.166667
vt 0.625000 0.492262
vt 0.625000 0.257738
vt 0.625000 0.257744
vt 0.625000 0.492256
vt 0.579419 0.666667
vt 0.579419 0.708333
vt 0.375000 0.708333
vt 0.579419 0.111111
vt 0.579419 0.138889
vt 0.625000 0.729167
vt 0.625000 0.739556
vt 0.625000 0.739480
vt 0.625000 0.667792
vt 0.625000 0.639456
vt 0.625000 0.510444
vt 0.625000 0.510520
vt 0.625000 0.704201
vt 0.625000 0.704201
vt 0.625000 0.545799
vt 0.625000 0.588846
vt 0.625000 0.510568
vt 0.625000 0.010412
vt 0.625000 0.010444
vt 0.625000 0.000000
vt 0.625000 0.239432
vt 0.625000 0.229167
vt 0.625000 0.237029
vt 0.625000 0.665542
vt 0.625000 0.638322
vt 0.625000 0.638586
vt 0.625000 0.666066
vt 0.633120 0.666667
vt 0.866880 0.666667
vt 0.866880 0.708333
vt 0.633120 0.708333
vt 0.633120 0.541667
vt 0.866880 0.541667
vt 0.866880 0.583333
vt 0.633120 0.583333
vt 0.625000 0.541621
vt 0.625000 0.586278
vt 0.633120 0.583333
vt 0.866880 0.611111
vt 0.633120 0.611111
vt 0.625000 0.611678
vt 0.625000 0.239556
vt 0.625000 0.239588
vt 0.633120 0.611111
vt 0.866880 0.638889
vt 0.633120 0.638889
vt 0.625000 0.239480
vt 0.625000 0.512962
vt 0.625000 0.708333
vt 0.625000 0.737038
vt 0.625000 0.512972
vt 0.625000 0.739433
vt 0.625000 0.737028
vt 0.625000 0.237824
vt 0.625000 0.545799
vt 0.625000 0.739479
vt 0.625000 0.492329
vt 0.625000 0.492356
vt 0.625000 0.510412
vt 0.625000 0.010520
vt 0.625000 0.208333
vt 0.625000 0.012972
vt 0.625000 0.012961
vt 0.625000 0.020833
vt 0.625000 0.706695
vt 0.625000 0.706695
vt 0.625000 0.737028
vt 0.625000 0.512971
vt 0.625000 0.512961
vt 0.625000 0.581695
vt 0.625000 0.581695
vt 0.625000 0.010568
vt 0.625000 0.012972
vt 0.625000 0.757746
vt 0.625000 0.992254
vt 0.625000 0.991543
vt 0.625000 0.758457
vt 0.625000 0.257746
vt 0.625000 0.492254
vt 0.625000 0.491543
vt 0.625000 0.258457
vt 0.625000 0.010520
vt 0.625000 0.012961
vt 0.625000 0.041667
vt 0.625000 0.668305
vt 0.625000 0.668305
vt 0.625000 0.229167
vt 0.625000 0.541667
vt 0.633120 0.520833
vt 0.866880 0.520833
vt 0.633120 0.541667
vt 0.633120 0.708333
vt 0.866880 0.729167
vt 0.633120 0.729167
vt 0.625000 0.577821
vt 0.579419 0.541667
vt 0.625000 0.545802
vt 0.625000 0.041667
vt 0.625000 0.708333
vt 0.625000 0.666066
vt 0.633120 0.729167
vt 0.866880 0.734875
vt 0.864037 0.738748
vt 0.635963 0.738748
vt 0.633120 0.734876
vt 0.375000 0.041667
vt 0.579419 0.041667
vt 0.579419 0.083333
vt 0.625000 0.738374
vt 0.625000 0.737824
vt 0.125000 0.708333
vt 0.625000 0.638889
vt 0.625000 0.238376
vt 0.625000 0.010513
vt 0.625000 0.010521
vt 0.625000 0.757738
vt 0.625000 0.992262
vt 0.625000 0.991782
vt 0.625000 0.758218
vt 0.625000 0.991798
vt 0.625000 0.758202
vt 0.625000 0.520833
vt 0.625000 0.511626
vt 0.625000 0.512176
vt 0.625000 0.757671
vt 0.625000 0.992329
vt 0.625000 0.757791
vt 0.625000 0.992209
vt 0.633120 0.515124
vt 0.635963 0.511252
vt 0.864037 0.511252
vt 0.866880 0.515124
vt 0.633120 0.520833
vt 0.625000 0.758467
vt 0.625000 0.991533
vt 0.625000 0.977351
vt 0.625000 0.772649
vt 0.625000 0.237028
vt 0.625000 0.237039
vt 0.625000 0.729167
vt 0.579419 0.020833
vt 0.579419 0.041667
vt 0.579419 0.510414
vt 0.579419 0.520833
vt 0.375000 0.000000
vt 0.579419 0.000000
vt 0.579419 0.010414
vt 0.625000 0.257738
vt 0.625000 0.492262
vt 0.625000 0.491782
vt 0.625000 0.258218
vt 0.625000 0.738374
vt 0.625000 0.758051
vt 0.625000 0.258202
vt 0.625000 0.739488
vt 0.625000 0.739479
vt 0.625000 0.739556
vt 0.625000 0.739588
vt 0.625000 0.257671
vt 0.625000 0.492209
vt 0.625000 0.257791
vt 0.625000 0.258467
vt 0.625000 0.491533
vt 0.625000 0.239480
vt 0.625000 0.492256
vt 0.625000 0.772640
vt 0.625000 0.977360
vt 0.625000 0.670802
vt 0.625000 0.670802
vt 0.625000 0.704198
vt 0.625000 0.704198
vt 0.625000 0.610544
vt 0.625000 0.611414
vt 0.633120 0.638889
vt 0.633120 0.666667
vt 0.625000 0.257644
vt 0.625000 0.012176
vt 0.625000 0.011624
vt 0.375000 0.257629
vt 0.579419 0.257654
vt 0.579419 0.492346
vt 0.375000 0.492371
vt 0.625000 0.991949
vt 0.625000 0.758052
vt 0.579419 0.757654
vt 0.579419 0.739586
vt 0.579419 0.510414
vt 0.579419 0.492346
vt 0.579419 0.257654
vt 0.579419 0.239586
vt 0.625000 1.000000
vt 0.625000 0.757644
vt 0.625000 0.992356
vt 0.625000 0.257644
vt 0.625000 0.011624
vt 0.625000 0.745327
vt 0.625000 0.752043
vt 0.625000 0.497957
vt 0.625000 0.504673
vt 0.625000 0.003228
vt 0.625000 0.007101
vt 0.625000 0.245327
vt 0.625000 0.252043
vt 0.625000 0.234876
vt 0.625000 0.260963
vt 0.625000 0.489037
vt 0.625000 0.760963
vt 0.625000 0.989037
vt 0.625000 0.015124
vt 0.625000 0.083333
vt 0.625000 0.637650
vt 0.625000 0.543305
vt 0.625000 0.638098
vt 0.625000 0.638098
vt 0.625000 0.611901
vt 0.625000 0.611901
vt 0.625000 0.543305
vt 0.625000 0.580540
vt 0.625000 0.544460
vt 0.625000 0.669460
vt 0.625000 0.705540
vt 0.625000 0.637541
vt 0.625000 0.612458
vt 0.625000 0.637541
vt 0.625000 0.612459
vt 0.625000 0.580540
vt 0.625000 0.544460
vt 0.625000 0.669459
vt 0.625000 0.705540
vt 0.625000 0.477351
vt 0.625000 0.477360
vt 0.625000 0.272640
vt 0.625000 0.272649
vt 0.625000 0.472046
vt 0.625000 0.277954
vt 0.625000 0.277946
vt 0.625000 0.472054
vt 0.625000 0.777946
vt 0.625000 0.777954
vt 0.625000 0.972046
vt 0.625000 0.972054
vt 0.416667 0.746265
vt 0.416667 0.625000
vt 0.421452 0.625000
vt 0.421452 0.739832
vt 0.500000 0.125000
vt 0.625000 0.125000
vt 0.625000 0.241694
vt 0.621091 0.250000
vt 0.500000 0.250000
vt 0.463119 0.739832
vt 0.463119 0.510168
vt 0.622236 0.505873
vt 0.623235 0.506752
vt 0.623242 0.625000
vt 0.620214 0.625000
vt 0.620214 0.510168
vt 0.375000 0.746251
vt 0.375000 0.743248
vt 0.375000 0.744127
vt 0.458333 0.746633
vt 0.416667 0.746265
vt 0.453548 0.739832
vt 0.500000 0.746265
vt 0.458333 0.746634
vt 0.495214 0.739832
vt 0.458333 0.503367
vt 0.500000 0.503735
vt 0.495214 0.510168
vt 0.458333 0.125000
vt 0.458333 0.250000
vt 0.458333 0.000000
vt 0.500000 0.000000
vt 0.421452 0.510168
vt 0.375000 0.125000
vt 0.416667 0.125000
vt 0.416667 0.250000
vt 0.378909 0.250000
vt 0.375000 0.241694
vt 0.458333 0.811851
vt 0.500000 0.811851
vt 0.500000 1.000000
vt 0.458333 1.000000
vt 0.376758 0.625000
vt 0.376765 0.506752
vt 0.377764 0.505873
vt 0.379786 0.510168
vt 0.379786 0.614832
vt 0.416667 0.000000
vt 0.686851 0.625000
vt 0.875000 0.625000
vt 0.875000 0.741694
vt 0.686851 0.741695
vt 0.411881 0.614832
vt 0.453548 0.510168
vt 0.620214 0.739832
vt 0.504786 0.739832
vt 0.621091 0.000000
vt 0.625000 0.008306
vt 0.411881 0.739832
vt 0.411881 0.635168
vt 0.622236 0.744127
vt 0.621822 0.746251
vt 0.500000 0.746265
vt 0.416667 0.503735
vt 0.411881 0.510168
vt 0.504786 0.510168
vt 0.500000 0.438149
vt 0.458333 0.438149
vt 0.458333 0.438149
vt 0.416667 0.438149
vt 0.416667 0.811851
vt 0.416667 1.000000
vt 0.378909 0.811851
vt 0.378909 1.000000
vt 0.377764 0.505873
vt 0.378178 0.503749
vt 0.416667 0.503735
vt 0.686851 0.508305
vt 0.875000 0.508305
vt 0.377764 0.744127
vt 0.376765 0.743248
vt 0.376758 0.625000
vt 0.379786 0.635168
vt 0.379786 0.739832
vt 0.621091 0.811851
vt 0.621091 1.000000
vt 0.125000 0.508305
vt 0.313149 0.508305
vt 0.313149 0.625000
vt 0.125000 0.625000
vt 0.378178 0.746251
vt 0.313149 0.741694
vt 0.125000 0.741695
vt 0.416667 0.503735
vt 0.458333 0.503367
vt 0.623242 0.625000
vt 0.623235 0.743248
vt 0.416667 0.438149
vt 0.378909 0.438149
vt 0.500000 0.503735
vt 0.621822 0.503749
vt 0.618406 0.625000
vt 0.618406 0.735990
vt 0.410073 0.735990
vt 0.381594 0.735990
vt 0.618406 0.514010
vt 0.410073 0.610990
vt 0.381594 0.610990
vt 0.410073 0.639010
vt 0.464927 0.735990
vt 0.493406 0.735990
vt 0.464927 0.514010
vt 0.493406 0.514010
vt 0.451739 0.514010
vt 0.423261 0.514010
vt 0.451739 0.735990
vt 0.423261 0.735990
vt 0.423261 0.625000
vt 0.410073 0.514010
vt 0.381594 0.514010
vt 0.381594 0.639010
vt 0.506594 0.514010
vt 0.506594 0.735990
vt 0.313149 0.750000
vt 0.125000 0.750000
vt 0.625000 0.811851
vt 0.125000 0.500000
vt 0.313149 0.500000
vt 0.625000 0.250000
vt 0.625000 0.438149
vt 0.621091 0.438149
vt 0.622529 0.505251
vt 0.623235 0.750000
vt 0.621822 0.750000
vt 0.622236 0.750000
vt 0.375000 0.506752
vt 0.375000 0.503749
vt 0.375000 0.505873
vt 0.375000 0.008306
vt 0.378909 0.000000
vt 0.623752 0.500000
vt 0.622339 0.500000
vt 0.500000 0.438149
vt 0.621091 0.438149
vt 0.375000 0.666667
vt 0.391675 0.666667
vt 0.402778 0.689277
vt 0.402778 0.750000
vt 0.391300 0.750000
vt 0.375000 0.716808
vt 0.597222 0.166667
vt 0.625000 0.216808
vt 0.608700 0.250000
vt 0.597222 0.250000
vt 0.402945 0.666187
vt 0.402778 0.662770
vt 0.402778 0.587230
vt 0.402945 0.583813
vt 0.405621 0.591489
vt 0.405621 0.658510
vt 0.625000 0.666667
vt 0.875000 0.666667
vt 0.875000 0.716808
vt 0.625000 0.716808
vt 0.402778 1.000000
vt 0.391300 1.000000
vt 0.402778 0.166667
vt 0.402778 0.250000
vt 0.391300 0.250000
vt 0.375000 0.216808
vt 0.597222 0.000000
vt 0.608700 0.000000
vt 0.625000 0.033192
vt 0.597222 0.083333
vt 0.430556 0.750000
vt 0.430556 1.000000
vt 0.458333 0.750000
vt 0.458333 1.000000
vt 0.486111 0.750000
vt 0.486111 1.000000
vt 0.513889 0.750000
vt 0.513889 1.000000
vt 0.541667 0.750000
vt 0.541667 1.000000
vt 0.569444 0.750000
vt 0.569444 1.000000
vt 0.597222 0.750000
vt 0.597222 1.000000
vt 0.430556 0.500000
vt 0.458333 0.500000
vt 0.458333 0.560723
vt 0.447161 0.583333
vt 0.441728 0.583333
vt 0.430556 0.560723
vt 0.429197 0.666667
vt 0.404136 0.666667
vt 0.404136 0.666667
vt 0.486111 0.500000
vt 0.486111 0.560723
vt 0.485178 0.583333
vt 0.459266 0.583333
vt 0.458333 0.560723
vt 0.485178 0.666667
vt 0.459266 0.666667
vt 0.459266 0.666667
vt 0.485178 0.666667
vt 0.513889 0.500000
vt 0.541667 0.500000
vt 0.541667 0.560723
vt 0.538713 0.583333
vt 0.516842 0.583333
vt 0.513889 0.560723
vt 0.538713 0.666667
vt 0.516842 0.666667
vt 0.569444 0.500000
vt 0.597222 0.500000
vt 0.597222 0.560723
vt 0.595628 0.583333
vt 0.571039 0.583333
vt 0.569444 0.560723
vt 0.595628 0.666667
vt 0.571039 0.666667
vt 0.571039 0.666667
vt 0.595628 0.666667
vt 0.125000 0.533192
vt 0.375000 0.533192
vt 0.430556 0.250000
vt 0.402778 0.500000
vt 0.458333 0.250000
vt 0.486111 0.250000
vt 0.513889 0.250000
vt 0.541667 0.250000
vt 0.569444 0.250000
vt 0.391300 0.500000
vt 0.430556 0.166667
vt 0.458333 0.166667
vt 0.486111 0.166667
vt 0.513889 0.166667
vt 0.541667 0.166667
vt 0.569444 0.166667
vt 0.569444 0.000000
vt 0.569444 0.083333
vt 0.541667 0.000000
vt 0.541667 0.083333
vt 0.513889 0.000000
vt 0.513889 0.083333
vt 0.486111 0.000000
vt 0.486111 0.083333
vt 0.458333 0.000000
vt 0.458333 0.083333
vt 0.430556 0.000000
vt 0.430556 0.083333
vt 0.402778 0.000000
vt 0.402778 0.083333
vt 0.375000 0.716808
vt 0.125000 0.716808
vt 0.571039 0.583333
vt 0.595628 0.583333
vt 0.430556 0.689277
vt 0.541667 0.587230
vt 0.541667 0.662770
vt 0.541667 0.689277
vt 0.552839 0.666667
vt 0.558272 0.666667
vt 0.569444 0.689277
vt 0.516842 0.583333
vt 0.513889 0.662770
vt 0.513889 0.587230
vt 0.486111 0.587230
vt 0.486111 0.662770
vt 0.486111 0.689277
vt 0.496676 0.666667
vt 0.503324 0.666667
vt 0.513889 0.689277
vt 0.459266 0.583333
vt 0.597222 0.587230
vt 0.608325 0.583333
vt 0.625000 0.583333
vt 0.608325 0.666667
vt 0.597222 0.662770
vt 0.430556 0.587230
vt 0.430556 0.662770
vt 0.441728 0.666667
vt 0.447161 0.666667
vt 0.458333 0.689277
vt 0.391675 0.583333
vt 0.391675 0.666667
vt 0.496676 0.583333
vt 0.503324 0.583333
vt 0.496676 0.666667
vt 0.404136 0.583333
vt 0.429197 0.583333
vt 0.404136 0.583333
vt 0.608700 0.500000
vt 0.875000 0.583333
vt 0.625000 0.533192
vt 0.875000 0.533192
vt 0.375000 0.533192
vt 0.402778 0.560723
vt 0.391675 0.583333
vt 0.608700 0.750000
vt 0.608700 1.000000
vt 0.427712 0.658510
vt 0.514874 0.665367
vt 0.514874 0.584633
vt 0.520070 0.591490
vt 0.520070 0.658511
vt 0.535485 0.591489
vt 0.535486 0.658511
vt 0.402778 0.560723
vt 0.558272 0.583333
vt 0.552839 0.583333
vt 0.597222 0.689277
vt 0.625000 0.716808
vt 0.441728 0.583333
vt 0.447161 0.583333
vt 0.458333 0.587230
vt 0.458333 0.662770
vt 0.447161 0.666667
vt 0.441728 0.666667
vt 0.552839 0.583333
vt 0.558272 0.583333
vt 0.569444 0.587230
vt 0.569444 0.662770
vt 0.558272 0.666667
vt 0.552839 0.666667
vt 0.513889 0.560723
vt 0.496676 0.583333
vt 0.539578 0.663911
vt 0.539578 0.586089
vt 0.514874 0.584633
vt 0.429595 0.663911
vt 0.402945 0.666187
vt 0.429595 0.586089
vt 0.427712 0.591489
vt 0.402945 0.583813
vt 0.524286 0.657021
vt 0.524286 0.592979
vt 0.531270 0.657021
vt 0.531270 0.592979
vt 0.421971 0.592979
vt 0.411363 0.592979
vt 0.421970 0.657021
vt 0.411363 0.657021
vt 0.402778 0.583333
vt 0.402778 0.666667
vt 0.430556 0.583333
vt 0.430556 0.666667
vt 0.458333 0.583333
vt 0.458333 0.666667
vt 0.486111 0.583333
vt 0.486111 0.666667
vt 0.513889 0.583333
vt 0.513889 0.666667
vt 0.541667 0.583333
vt 0.541667 0.666667
vt 0.569444 0.583333
vt 0.569444 0.666667
vt 0.597222 0.583333
vt 0.608325 0.583333
vt 0.597222 0.666667
vt 0.625000 0.533192
vt 0.375000 0.500000
vt 0.625000 0.500000
vt 0.375000 0.750000
vt 0.625000 0.750000
vt 0.375000 0.033192
vt 0.391300 0.000000
vt 0.485422 0.588690
vt 0.485422 0.661309
vt 0.485422 0.649206
vt 0.485422 0.637103
vt 0.485422 0.625000
vt 0.485422 0.612897
vt 0.485422 0.600794
vt 0.459413 0.586858
vt 0.459022 0.588690
vt 0.485031 0.586858
vt 0.485031 0.663141
vt 0.459413 0.663141
vt 0.459022 0.661310
vt 0.459087 0.588385
vt 0.459153 0.588080
vt 0.459218 0.587774
vt 0.459283 0.587469
vt 0.459348 0.587164
vt 0.463683 0.586858
vt 0.467953 0.586858
vt 0.472222 0.586858
vt 0.476492 0.586858
vt 0.480762 0.586858
vt 0.485096 0.587164
vt 0.485162 0.587469
vt 0.485227 0.587774
vt 0.485292 0.588080
vt 0.485357 0.588385
vt 0.485357 0.661615
vt 0.485292 0.661920
vt 0.485227 0.662225
vt 0.485162 0.662531
vt 0.485096 0.662836
vt 0.480762 0.663141
vt 0.476492 0.663141
vt 0.472222 0.663141
vt 0.467953 0.663141
vt 0.463683 0.663141
vt 0.459348 0.662836
vt 0.459283 0.662531
vt 0.459218 0.662226
vt 0.459153 0.661920
vt 0.459088 0.661615
vt 0.459022 0.649206
vt 0.459022 0.637103
vt 0.459022 0.625000
vt 0.459022 0.612897
vt 0.459022 0.600794
s 0
usemtl M_Noir_Bleuté
f 128/1/1 334/2/1 341/3/1 179/4/1
f 179/5/2 180/6/2 183/7/2 184/8/2 120/9/2 128/10/2
f 112/11/3 330/12/3 345/13/3 181/14/3
f 104/15/2 112/11/2 181/16/2 182/17/2 177/18/2 178/19/2
f 182/20/4 348/21/4 337/22/4 177/23/4
f 12/24/2 9/25/2 34/25/2 36/24/2
f 7/26/5 319/27/5 312/28/5 3/29/5
f 316/24/6 313/30/6 31/30/6 25/24/6
f 69/31/2 68/32/2 4/33/2 1/34/2
f 6/35/2 7/26/2 3/29/2 2/36/2
f 4/33/7 310/37/7 318/38/7 8/39/7
f 325/40/6 311/41/6 23/41/6 93/40/6
f 2/42/1 306/43/1 314/44/1 6/45/1
f 321/46/6 307/25/6 22/25/6 74/47/6
f 313/48/6 305/49/6 24/49/6 31/30/6
f 320/50/2 317/51/2 29/52/2 27/53/2
f 317/54/6 309/55/6 26/55/6 29/52/6
f 333/56/6 321/46/6 74/47/6 122/57/6
f 1/34/2 4/33/2 8/39/2 5/58/2
f 5/58/2 8/39/2 7/26/2 6/35/2
f 137/55/2 355/52/2 28/52/2 30/55/2
f 342/59/6 333/60/6 122/57/6 201/61/6
f 70/46/1 9/25/1 44/25/1 72/46/1
f 15/30/1 11/49/1 46/49/1 20/30/1
f 192/62/2 113/63/2 115/64/2 215/65/2
f 16/66/4 21/67/4 360/67/4 359/66/4
f 187/68/2 129/69/2 132/70/2 212/71/2
f 90/72/2 11/49/2 33/49/2 96/73/2
f 186/74/1 121/57/1 125/60/1 193/75/1
f 15/30/2 12/24/2 36/24/2 32/30/2
f 105/76/2 189/77/2 214/78/2 107/79/2
f 11/49/2 15/30/2 32/30/2 33/49/2
f 1/80/1 308/81/1 322/82/1 69/83/1
f 191/84/4 190/85/4 197/86/4 199/87/4
f 116/88/1 200/89/1 232/90/1
f 139/41/5 354/53/5 353/53/5 45/41/5
f 193/91/6 125/60/6 225/92/6
f 12/24/1 15/30/1 20/30/1 47/24/1
f 121/57/2 186/93/2 209/94/2 123/95/2
f 9/25/1 12/24/1 47/24/1 44/25/1
f 355/52/7 137/55/7 138/55/7 356/52/7
f 13/96/6 71/97/6 142/97/6 143/96/6
f 82/101/3 133/70/3 281/70/3 283/101/3
f 178/107/1 340/108/1 331/109/1 104/110/1
f 355/52/2 354/53/2 37/53/2 28/52/2
f 8/39/3 318/111/3 319/27/3 7/26/3
f 136/112/2 137/55/2 30/55/2 77/101/2
f 354/53/2 139/41/2 35/41/2 37/53/2
f 350/113/6 343/114/6 202/115/6 203/116/6
f 129/69/3 187/117/3 196/118/3 130/70/3
f 5/119/1 315/120/1 308/121/1 1/80/1
f 307/122/6 316/24/6 25/24/6 22/25/6
f 188/123/13 185/124/13 194/125/13 195/126/13
f 3/29/3 312/127/3 326/128/3 88/129/3
f 6/45/1 314/130/1 315/131/1 5/119/1
f 109/132/1 222/133/1 238/134/1
f 38/135/14 41/136/14 164/136/14 157/135/14
f 219/137/6 133/70/6 234/138/6
f 98/139/13 97/140/13 167/140/13 168/139/13
f 79/141/2 153/142/2 162/142/2 166/141/2
f 130/70/3 196/118/3 228/143/3
f 302/144/15 224/145/15 223/146/15 304/146/15
f 225/147/6 125/148/6 126/95/6 241/149/6
f 154/150/3 43/151/3 285/152/3 260/153/3
f 259/154/6 261/155/6 274/156/6 287/157/6
f 284/158/6 271/159/6 257/160/6 265/161/6
f 153/142/3 79/141/3 283/162/3 266/163/3
f 50/24/1 51/30/1 268/30/1 263/24/1
f 265/164/16 257/160/16 264/165/16 269/166/16
f 155/167/2 43/151/2 163/151/2 159/167/2
f 218/168/1 124/60/1 280/60/1 292/169/1
f 269/170/6 264/165/6 267/171/6 286/172/6
f 124/148/3 218/168/3 236/173/3
f 81/46/1 48/25/1 258/25/1 272/46/1
f 20/30/6 46/49/6 54/49/6 61/30/6
f 234/138/2 133/70/2 135/70/2 249/174/2
f 141/175/6 45/41/6 371/41/6 370/104/6
f 39/49/17 51/30/17 67/30/17 65/49/17
f 109/132/2 238/134/2 253/176/2 111/132/2
f 130/70/6 228/143/6 244/177/6 134/70/6
f 151/53/17 49/41/17 369/41/17 362/53/17
f 72/46/6 44/25/6 52/25/6 83/46/6
f 82/101/2 150/55/2 367/55/2 368/101/2
f 353/53/6 356/52/6 365/52/6 364/53/6
f 50/24/18 48/25/18 63/25/18 66/24/18
f 229/178/6 108/132/6 110/79/6 246/179/6
f 45/41/6 353/53/6 364/53/6 371/41/6
f 79/141/3 78/181/3 82/101/3 283/101/3
f 198/182/6 108/132/6 229/178/6
f 220/183/20 296/184/20 294/185/20 219/137/20
f 224/145/6 117/64/6 239/186/6
f 83/46/21 52/25/21 63/25/21 85/187/21
f 61/30/1 54/49/1 65/49/1 67/30/1
f 118/64/22 247/188/22 256/189/22 119/190/22
f 102/191/23 100/192/23 395/192/23 396/191/23
f 246/193/24 110/79/24 111/132/24 253/176/24
f 362/53/17 369/41/17 448/41/17 443/53/17
f 55/24/1 61/30/1 67/30/1 66/24/1
f 134/70/25 244/194/25 249/195/25 135/70/25
f 52/25/1 55/24/1 66/24/1 63/25/1
f 366/52/13 365/52/13 444/52/13 445/52/13
f 62/196/26 56/197/26 386/197/26 391/196/26
f 51/30/2 50/24/2 66/24/2 67/30/2
f 116/88/6 232/198/6 247/199/6 118/64/6
f 237/200/2 240/201/2 414/202/2 411/203/2
f 47/24/6 20/30/6 61/30/6 55/24/6
f 150/55/18 152/52/18 366/52/18 367/55/18
f 235/204/2 233/205/2 410/206/2 415/207/2
f 239/208/2 117/88/2 119/190/2 256/209/2
f 356/52/6 138/55/6 363/55/6 365/52/6
f 152/52/2 151/53/2 362/53/2 366/52/2
f 44/25/6 47/24/6 55/24/6 52/25/6
f 99/73/2 39/49/2 65/49/2 103/210/2
f 53/211/27 64/212/27 393/212/27 394/211/27
f 126/95/28 83/46/28 85/187/28 127/213/28
f 138/55/6 80/101/6 361/214/6 363/55/6
f 133/70/29 82/101/29 368/101/29 135/70/29
f 125/148/30 72/46/30 83/46/30 126/95/30
f 48/25/2 81/46/2 85/187/2 63/25/2
f 282/215/6 279/216/6 271/159/6 284/217/6
f 287/218/6 274/156/6 278/219/6 275/220/6
f 40/221/6 78/181/6 165/181/6 161/221/6
f 9/25/2 70/46/2 76/46/2 34/25/2
f 129/69/2 136/112/2 77/101/2 132/70/2
f 69/83/1 322/82/1 334/2/1 128/1/1
f 68/32/3 323/222/3 310/37/3 4/33/3
f 73/223/2 18/96/2 144/96/2 145/223/2
f 121/57/1 70/46/1 72/46/1 125/60/1
f 329/132/6 325/40/6 93/40/6 106/103/6
f 128/10/2 120/9/2 68/32/2 69/31/2
f 309/55/6 324/101/6 75/101/6 26/55/6
f 117/88/32 99/73/32 103/210/32 119/190/32
f 46/49/6 92/73/6 101/224/6 54/49/6
f 49/41/2 156/175/2 372/225/2 369/41/2
f 134/70/33 135/70/33 171/70/33 169/70/33
f 54/49/34 101/224/34 103/210/34 65/49/34
f 108/132/35 141/175/35 370/104/35 110/79/35
f 51/30/1 39/49/1 262/49/1 268/30/1
f 98/139/3 154/150/3 260/226/3 288/40/3
f 275/227/6 278/219/6 301/228/6 303/229/6 297/230/6 299/231/6
f 88/129/3 326/128/3 330/12/3 112/11/3
f 87/232/1 327/233/1 306/234/1 2/42/1
f 105/76/3 140/104/3 141/104/3 108/132/3
f 11/49/1 90/72/1 92/73/1 46/49/1
f 139/41/2 140/104/2 95/104/2 35/41/2
f 113/63/2 90/72/2 96/73/2 115/64/2
f 346/235/6 329/103/6 106/103/6 205/236/6
f 2/36/2 3/29/2 88/129/2 87/237/2
f 311/41/6 320/238/6 27/53/6 23/41/6
f 202/115/6 343/114/6 342/239/6 201/61/6
f 113/63/1 192/240/1 200/241/1 116/64/1
f 190/242/2 191/243/2 216/244/2 213/245/2
f 336/248/6 351/249/6 204/250/6 131/69/6
f 221/251/2 223/252/2 240/201/2 237/200/2
f 199/87/6 197/86/6 230/253/6 231/254/6
f 293/255/6 295/256/6 289/257/6 291/258/6 279/216/6 282/259/6
f 231/254/6 230/253/6 412/260/6 413/261/6
f 248/262/6 245/263/6 428/263/6 429/262/6
f 241/264/28 126/95/28 127/213/28 251/265/28
f 92/73/37 116/88/37 118/64/37 101/224/37
f 156/175/38 109/132/38 111/132/38 372/225/38
f 101/224/22 118/64/22 119/190/22 103/210/22
f 109/132/3 156/104/3 288/175/3 276/266/3
f 99/73/1 117/64/1 277/64/1 273/72/1
f 104/110/1 331/267/1 327/268/1 87/232/1
f 90/72/1 113/63/1 116/64/1 92/73/1
f 140/104/2 105/76/2 107/79/2 95/104/2
f 87/237/2 88/129/2 112/11/2 104/15/2
f 328/210/6 332/190/6 114/98/6 94/210/6
f 184/8/3 352/269/3 335/270/3 120/9/3
f 177/271/39 337/272/39 340/273/39 178/107/39
f 185/274/2 188/275/2 211/276/2 210/277/2
f 346/278/6 205/236/6 206/247/6 347/279/6
f 189/281/3 105/76/3 108/132/3 198/282/3
f 222/283/3 109/132/3 276/132/3 300/284/3
f 217/285/2 220/183/2 233/205/2 235/204/2
f 227/286/6 226/287/6 416/288/6 409/289/6
f 124/148/2 236/290/2 251/265/2 127/213/2
f 117/64/1 224/145/1 302/144/1 277/190/1
f 195/291/6 194/125/6 226/287/6 227/286/6
f 254/292/2 255/293/2 430/293/2 427/292/2
f 110/79/40 370/104/40 173/104/40 175/79/40
f 80/101/41 130/70/41 134/70/41 361/214/41
f 81/46/42 124/148/42 127/213/42 85/187/42
f 133/70/3 219/137/3 294/185/3 281/69/3
f 70/46/2 121/57/2 123/95/2 76/46/2
f 120/9/3 335/270/3 323/222/3 68/32/3
f 136/112/3 129/69/3 130/70/3 80/101/3
f 324/101/6 336/248/6 131/69/6 75/101/6
f 71/97/3 13/96/3 137/55/3 136/112/3
f 13/96/3 18/96/3 138/55/3 137/55/3
f 18/96/3 73/223/3 80/101/3 138/55/3
f 17/294/3 10/295/3 139/41/3 45/41/3
f 73/223/3 71/97/3 136/112/3 80/101/3
f 10/295/3 89/296/3 140/104/3 139/41/3
f 91/297/3 17/294/3 45/41/3 141/104/3
f 89/296/3 91/297/3 141/104/3 140/104/3
f 91/297/13 89/296/13 148/296/13 149/297/13
f 89/296/6 10/295/6 147/295/6 148/296/6
f 10/295/4 17/294/4 146/294/4 147/295/4
f 18/96/13 13/96/13 143/96/13 144/96/13
f 17/294/2 91/297/2 149/297/2 146/294/2
f 71/97/4 73/223/4 145/223/4 142/97/4
f 78/181/3 40/221/3 150/55/3 82/101/3
f 41/136/3 38/135/3 49/41/3 151/53/3
f 40/221/3 42/298/3 152/52/3 150/55/3
f 42/298/3 41/136/3 151/53/3 152/52/3
f 155/167/3 153/142/3 266/163/3 270/299/3
f 286/300/14 267/171/14 261/155/14 259/301/14
f 43/151/3 155/167/3 270/299/3 285/152/3
f 124/60/1 81/46/1 272/46/1 280/60/1
f 97/140/3 98/139/3 288/175/3 156/104/3
f 38/135/3 97/140/3 156/104/3 49/41/3
f 39/49/1 99/73/1 273/73/1 262/49/1
f 290/302/43 217/285/43 218/168/43 292/169/43
f 78/181/4 79/141/4 166/141/4 165/181/4
f 43/151/17 154/150/17 158/150/17 163/151/17
f 42/298/16 40/221/16 161/221/16 160/298/16
f 97/140/6 38/135/6 157/135/6 167/140/6
f 153/142/18 155/167/18 159/167/18 162/142/18
f 41/136/6 42/298/6 160/298/6 164/136/6
f 154/150/2 98/139/2 168/139/2 158/150/2
f 135/70/44 368/101/44 172/101/44 171/70/44
f 361/214/45 134/70/45 169/70/45 170/214/45
f 111/132/46 110/79/46 175/79/46 176/132/46
f 372/225/47 111/132/47 176/132/47 174/225/47
f 368/101/48 361/214/48 170/214/48 172/101/48
f 370/104/49 372/225/49 174/225/49 173/104/49
f 208/303/6 339/304/6 338/146/6 207/146/6
f 180/305/13 344/306/13 349/307/13 183/308/13
f 350/113/6 203/116/6 204/250/6 351/249/6
f 338/309/6 347/310/6 206/247/6 207/246/6
f 348/311/50 182/20/50 181/14/50 345/312/50
f 352/313/51 184/8/51 183/308/51 349/314/51
f 188/123/52 195/126/52 196/118/52 187/117/52
f 192/62/2 215/65/2 216/146/2 191/146/2
f 344/315/53 180/305/53 179/4/53 341/316/53
f 190/242/2 213/245/2 214/78/2 189/77/2
f 230/253/54 197/86/54 198/182/54 229/178/54
f 189/281/55 198/282/55 197/86/55 190/85/55
f 200/241/56 192/240/56 191/146/56 199/146/56
f 194/125/57 185/124/57 186/74/57 193/75/57
f 211/276/2 188/275/2 187/68/2 212/71/2
f 185/274/2 210/277/2 209/94/2 186/93/2
f 223/252/4 221/251/4 298/318/4 304/319/4
f 228/143/6 196/118/6 195/291/6 227/286/6
f 193/91/6 225/92/6 226/287/6 194/125/6
f 238/134/2 222/133/2 221/251/2 237/200/2
f 224/145/2 239/186/2 240/146/2 223/146/2
f 298/318/62 221/251/62 222/283/62 300/284/62
f 220/183/13 217/285/13 290/320/13 296/184/13
f 416/288/6 226/287/6 225/147/6 241/149/6
f 410/206/2 233/205/2 234/138/2 249/174/2
f 227/286/6 409/289/6 244/177/6 228/143/6
f 232/90/6 200/89/6 199/146/6 231/146/6
f 233/205/63 220/183/63 219/137/63 234/138/63
f 217/285/64 235/204/64 236/173/64 218/168/64
f 409/289/65 410/206/65 249/195/65 244/194/65
f 246/193/66 253/176/66 411/203/66 412/260/66
f 256/189/67 247/188/67 413/146/67 414/146/67
f 415/207/68 416/288/68 241/264/68 251/265/68
f 235/204/2 415/207/2 251/265/2 236/290/2
f 412/260/6 230/253/6 229/178/6 246/179/6
f 247/199/6 232/198/6 231/146/6 413/146/6
f 237/200/2 411/203/2 253/176/2 238/134/2
f 239/208/2 256/209/2 414/146/2 240/146/2
f 332/190/6 339/321/6 208/303/6 114/98/6
f 274/73/69 261/49/69 262/49/69 273/73/69
f 264/24/70 257/25/70 258/25/70 263/24/70
f 284/158/71 265/161/71 266/163/71 283/162/71
f 286/300/72 259/301/72 260/153/72 285/152/72
f 261/49/73 267/30/73 268/30/73 262/49/73
f 267/30/74 264/24/74 263/24/74 268/30/74
f 265/164/75 269/166/75 270/299/75 266/163/75
f 269/170/76 286/172/76 285/152/76 270/299/76
f 257/25/77 271/46/77 272/46/77 258/25/77
f 282/215/78 284/217/78 283/101/78 281/70/78
f 259/154/79 287/157/79 288/40/79 260/226/79
f 278/64/80 274/73/80 273/72/80 277/64/80
f 287/218/78 275/220/78 276/266/78 288/175/78
f 271/46/81 279/60/81 280/60/81 272/46/81
f 299/322/82 297/323/82 298/318/82 300/284/82
f 295/324/83 293/325/83 294/185/83 296/184/83
f 303/326/84 301/327/84 302/144/84 304/146/84
f 291/328/85 289/329/85 290/302/85 292/169/85
f 279/60/86 291/330/86 292/169/86 280/60/86
f 289/331/87 295/332/87 296/184/87 290/320/87
f 293/255/88 282/259/88 281/69/88 294/185/88
f 275/227/89 299/231/89 300/284/89 276/132/89
f 297/333/90 303/334/90 304/319/90 298/318/90
f 301/335/91 278/64/91 277/190/91 302/144/91
f 48/25/1 50/24/1 263/24/1 258/25/1
f 328/73/92 305/336/92 306/234/92 327/233/92
f 316/24/93 307/122/93 308/121/93 315/120/93
f 324/101/94 309/55/94 310/37/94 323/222/94
f 320/238/95 311/41/95 312/28/95 319/27/95
f 305/49/96 313/48/96 314/44/96 306/43/96
f 313/30/97 316/24/97 315/131/97 314/130/97
f 309/55/98 317/54/98 318/38/98 310/37/98
f 317/51/99 320/50/99 319/27/99 318/111/99
f 307/25/100 321/46/100 322/82/100 308/81/100
f 336/248/101 324/101/101 323/222/101 335/270/101
f 311/41/102 325/40/102 326/128/102 312/127/102
f 332/190/103 328/210/103 327/268/103 331/267/103
f 325/40/104 329/132/104 330/12/104 326/128/104
f 321/46/105 333/56/105 334/2/105 322/82/105
f 338/146/106 339/304/106 340/273/106 337/272/106
f 342/239/107 343/114/107 344/315/107 341/316/107
f 350/113/108 351/249/108 352/313/108 349/314/108
f 346/278/109 347/279/109 348/311/109 345/312/109
f 339/321/110 332/190/110 331/109/110 340/108/110
f 347/310/111 338/309/111 337/22/111 348/21/111
f 343/114/112 350/113/112 349/307/112 344/306/112
f 333/60/113 342/59/113 341/3/113 334/2/113
f 329/103/114 346/235/114 345/13/114 330/12/114
f 351/249/115 336/248/115 335/270/115 352/269/115
f 305/336/6 328/73/6 94/210/6 24/49/6
f 14/337/3 19/337/3 353/53/3 354/53/3
f 21/67/3 16/66/3 355/52/3 356/52/3
f 16/66/3 14/337/3 354/53/3 355/52/3
f 19/337/3 21/67/3 356/52/3 353/53/3
f 14/337/6 16/66/6 359/66/6 358/337/6
f 19/337/13 14/337/13 358/337/13 357/337/13
f 21/67/2 19/337/2 357/337/2 360/67/2
f 84/338/116 56/197/116 363/55/116 361/214/116
f 57/339/3 58/340/3 362/53/3 364/53/3
f 60/341/3 59/342/3 365/52/3 366/52/3
f 59/342/3 57/339/3 364/53/3 365/52/3
f 56/197/116 62/196/116 367/55/116 363/55/116
f 62/196/116 86/343/116 368/101/116 367/55/116
f 58/340/3 60/341/3 366/52/3 362/53/3
f 64/212/117 53/211/117 371/41/117 369/41/117
f 86/343/116 84/338/116 361/214/116 368/101/116
f 53/211/117 100/192/117 370/104/117 371/41/117
f 102/191/117 64/212/117 369/41/117 372/225/117
f 100/192/117 102/191/117 372/225/117 370/104/117
f 58/340/13 57/339/13 388/339/13 387/340/13
f 84/338/118 86/343/118 392/343/118 385/338/118
f 86/343/2 62/196/2 391/196/2 392/343/2
f 59/342/4 60/341/4 390/341/4 389/342/4
f 100/192/6 53/211/6 394/211/6 395/192/6
f 60/341/2 58/340/2 387/340/2 390/341/2
f 57/339/6 59/342/6 389/342/6 388/339/6
f 64/212/2 102/191/2 396/191/2 393/212/2
f 56/197/6 84/338/6 385/338/6 386/197/6
f 243/356/13 250/357/13 410/206/13 409/289/13
f 254/292/4 245/263/4 412/260/4 411/203/4
f 248/262/4 255/293/4 414/202/4 413/261/4
f 252/358/13 242/359/13 416/288/13 415/207/13
f 242/359/13 243/356/13 409/289/13 416/288/13
f 245/263/4 248/262/4 413/261/4 412/260/4
f 250/357/13 252/358/13 415/207/13 410/206/13
f 255/293/4 254/292/4 411/203/4 414/202/4
f 417/360/2 424/361/2 440/361/2 433/360/2
f 423/362/6 418/363/6 434/363/6 439/362/6
f 242/359/3 252/358/3 431/358/3 432/359/3
f 245/263/1 254/292/1 427/292/1 428/263/1
f 252/358/2 250/357/2 426/357/2 431/358/2
f 243/356/6 242/359/6 432/359/6 425/356/6
f 255/293/3 248/262/3 429/262/3 430/293/3
f 250/357/1 243/356/1 425/356/1 426/357/1
f 437/366/4 436/365/4 435/364/4 438/367/4
f 433/360/13 440/361/13 439/362/13 434/363/13
f 422/367/1 421/366/1 437/366/1 438/367/1
f 418/363/3 417/360/3 433/360/3 434/363/3
f 419/364/6 422/367/6 438/367/6 435/364/6
f 421/366/2 420/365/2 436/365/2 437/366/2
f 424/361/1 423/362/1 439/362/1 440/361/1
f 420/365/3 419/364/3 435/364/3 436/365/3
f 371/41/6 364/53/6 441/53/6 442/41/6
f 363/55/4 367/55/4 447/55/4 446/55/4
f 365/52/6 363/55/6 446/55/6 444/52/6
f 367/55/18 366/52/18 445/52/18 447/55/18
f 364/53/4 362/53/4 443/53/4 441/53/4
f 369/41/13 371/41/13 442/41/13 448/41/13
f 576/368/3 460/369/3 469/370/3 468/371/3
f 453/372/1 452/373/1 555/374/1 556/375/1 450/376/1
f 560/379/3 592/380/3 567/381/3 480/382/3 479/383/3
f 577/384/3 580/385/3 557/386/3
f 574/387/3 576/388/3 468/371/3 467/389/3
f 563/390/3 574/391/3 462/377/3 461/392/3
f 569/393/3 562/394/3 464/395/3 463/378/3
f 458/396/1 453/372/1 450/376/1 454/397/1
f 457/398/1 449/399/1 453/372/1 458/396/1
f 562/394/3 563/390/3 461/392/3 464/395/3
f 451/401/1 459/402/1 455/403/1 553/404/1 554/405/1
f 573/406/4 564/407/4 449/408/4 457/409/4
f 566/410/3 585/411/3 559/412/3 470/413/3 473/414/3
f 456/415/1 457/398/1 458/396/1 459/402/1
f 568/416/6 452/417/6 552/418/6 582/419/6
f 459/402/1 458/396/1 454/397/1 455/403/1
f 460/369/3 566/410/3 473/414/3 472/420/3
f 569/393/3 574/391/3 467/389/3 466/421/3
f 449/399/1 551/424/1 552/425/1 452/373/1 453/372/1
f 460/369/3 576/368/3 476/426/3 475/427/3
f 558/428/3 584/429/3 563/430/3 482/423/3 481/422/3
f 571/431/3 460/369/3 472/420/3 471/432/3
f 563/430/3 562/394/3 478/433/3 482/423/3
f 454/397/13 450/376/13 561/434/13 570/435/13
f 455/403/13 454/397/13 570/436/13 572/437/13
f 574/387/3 569/393/3 463/378/3 462/377/3
f 575/438/4 573/406/4 457/409/4 456/439/4
f 578/440/4 575/438/4 456/439/4 550/441/4
f 559/442/3 588/443/3 571/444/3 471/432/3 470/413/3
f 591/445/6 555/446/6 452/417/6 568/416/6
f 460/369/3 571/431/3 465/400/3 469/370/3
f 557/447/3 580/448/3 566/449/3 474/450/3 477/451/3
f 564/407/4 583/452/4 551/453/4 449/408/4
f 554/454/2 586/455/2 565/456/2 451/457/2
f 576/368/3 577/458/3 557/447/3 477/451/3 476/426/3
f 451/457/2 565/456/2 579/459/2 549/460/2
f 571/461/3 569/462/3 466/421/3 465/400/3
f 567/463/3 581/464/3 558/428/3 481/422/3 480/382/3
f 566/410/3 460/369/3 475/427/3 474/450/3
f 553/404/13 455/403/13 572/465/13 587/466/13
f 562/467/3 589/468/3 560/379/3 479/383/3 478/433/3
f 549/460/119 579/459/119 578/491/119 550/492/119
f 582/493/120 552/317/120 551/453/120 583/452/120
f 586/455/121 554/454/121 553/494/121 587/495/121
f 555/496/122 591/497/122 590/498/122 556/375/122
f 589/499/3 592/380/3 560/379/3
f 581/500/3 584/501/3 558/502/3
f 585/503/3 588/504/3 559/505/3
f 549/506/1 550/507/1 456/415/1 459/402/1 451/401/1
f 562/394/123 569/393/123 570/435/123 561/434/123
f 569/462/124 571/461/124 572/437/124 570/436/124
f 564/407/125 573/406/125 574/391/125 563/390/125
f 573/406/126 575/438/126 576/388/126 574/387/126
f 578/491/127 579/459/127 580/385/127 577/384/127
f 582/493/128 583/452/128 584/501/128 581/500/128
f 586/455/129 587/495/129 588/504/129 585/503/129
f 590/498/130 591/497/130 592/508/130 589/509/130
f 566/449/131 580/448/131 579/459/131 565/456/131
f 577/458/132 576/368/132 575/438/132 578/440/132
f 563/430/133 584/429/133 583/452/133 564/407/133
f 581/464/134 567/463/134 568/416/134 582/419/134
f 571/444/135 588/443/135 587/466/135 572/465/135
f 585/411/131 566/410/131 565/456/131 586/455/131
f 567/381/134 592/380/134 591/445/134 568/416/134
f 589/468/136 562/467/136 561/510/136 590/511/136
f 450/376/13 556/375/13 590/511/13 561/510/13
f 629/512/3 688/513/3 687/514/3 624/515/3 793/516/3 794/517/3
f 648/518/1 628/25/1 791/519/1 792/520/1 601/521/1
f 750/522/3 749/523/3 745/524/3 747/525/3 653/526/3 656/527/3
f 632/528/6 627/529/6 788/530/6 795/531/6
f 793/516/4 624/515/4 593/532/4 786/533/4
f 625/80/1 634/534/1 608/535/1 789/536/1 790/537/1
f 600/538/1 787/539/1 788/540/1 627/49/1 647/541/1
f 624/515/4 623/542/4 594/543/4 593/532/4
f 623/542/4 622/544/4 595/545/4 594/543/4
f 622/544/4 621/546/4 596/547/4 595/545/4
f 621/546/4 620/548/4 597/549/4 596/547/4
f 620/548/4 619/550/4 598/551/4 597/549/4
f 619/550/4 618/552/4 599/553/4 598/551/4
f 618/552/4 617/554/4 600/555/4 599/553/4
f 615/556/3 614/557/3 700/558/3 699/559/3 692/560/3 691/561/3
f 693/562/13 686/563/13 748/564/13 755/562/13
f 614/557/3 613/565/3 707/566/3 706/567/3 697/568/3 700/569/3
f 709/570/13 702/571/13 759/572/13 764/573/13
f 612/574/3 611/575/3 723/576/3 722/577/3 713/578/3 716/579/3
f 725/580/13 718/581/13 768/581/13 775/580/13
f 610/582/3 609/583/3 739/584/3 738/585/3 729/586/3 732/587/3
f 741/588/13 734/589/13 779/590/13 784/591/13
f 790/592/2 797/593/2 630/33/2 625/34/2
f 608/535/13 607/594/13 615/556/13 616/595/13
f 607/594/13 606/596/13 614/557/13 615/556/13
f 606/596/13 605/597/13 613/565/13 614/557/13
f 605/597/13 604/598/13 612/574/13 613/565/13
f 604/598/13 603/599/13 611/575/13 612/574/13
f 603/599/13 602/600/13 610/582/13 611/575/13
f 602/600/13 601/521/13 609/583/13 610/582/13
f 789/536/13 608/535/13 616/595/13 798/601/13
f 634/534/1 636/602/1 607/594/1 608/535/1
f 636/602/1 638/603/1 606/596/1 607/594/1
f 638/603/1 640/604/1 605/597/1 606/596/1
f 640/604/1 642/605/1 604/598/1 605/597/1
f 642/605/1 644/606/1 603/599/1 604/598/1
f 644/606/1 646/607/1 602/600/1 603/599/1
f 646/607/1 648/518/1 601/521/1 602/600/1
f 599/608/1 600/538/1 647/541/1 645/609/1
f 645/609/1 647/541/1 648/518/1 646/607/1
f 598/610/1 599/608/1 645/609/1 643/611/1
f 643/611/1 645/609/1 646/607/1 644/606/1
f 597/612/1 598/610/1 643/611/1 641/613/1
f 641/613/1 643/611/1 644/606/1 642/605/1
f 596/614/1 597/612/1 641/613/1 639/615/1
f 639/615/1 641/613/1 642/605/1 640/604/1
f 595/616/1 596/614/1 639/615/1 637/617/1
f 637/617/1 639/615/1 640/604/1 638/603/1
f 594/618/1 595/616/1 637/617/1 635/619/1
f 635/619/1 637/617/1 638/603/1 636/602/1
f 593/620/1 594/618/1 635/619/1 633/621/1
f 633/621/1 635/619/1 636/602/1 634/534/1
f 626/36/2 629/512/2 794/622/2 785/623/2
f 626/42/1 633/621/1 634/534/1 625/80/1
f 729/624/4 738/625/4 781/585/4 778/586/4
f 687/514/3 686/564/3 693/562/3 696/626/3 623/542/3 624/515/3
f 721/627/2 726/628/2 774/628/2 772/627/2
f 728/629/3 727/630/3 736/631/3 735/632/3 618/552/3 619/550/3
f 713/633/4 722/577/4 771/577/4 766/578/4
f 717/634/6 714/635/6 765/635/6 769/634/6
f 705/636/2 710/637/2 763/637/2 762/636/2
f 712/638/3 711/639/3 720/640/3 719/641/3 620/548/3 621/546/3
f 697/642/4 706/567/4 761/567/4 758/568/4
f 737/643/3 740/644/3 631/645/3 632/528/3 743/646/3 742/647/3
f 689/648/2 694/649/2 754/649/2 752/648/2
f 696/626/3 695/650/3 704/651/3 703/652/3 622/544/3 623/542/3
f 630/33/3 683/653/3 682/524/3 685/523/3 688/654/3 629/512/3
f 705/636/3 708/655/3 715/656/3 714/635/3 717/634/3 720/640/3 711/657/3 710/637/3
f 685/523/6 682/524/6 745/524/6 749/523/6
f 681/658/4 690/659/4 751/659/4 746/660/4
f 601/521/13 792/520/13 799/661/13 609/583/13
f 631/645/6 628/662/6 627/529/6 632/528/6
f 800/663/6 791/664/6 628/662/6 631/645/6
f 625/34/2 630/33/2 629/512/2 626/36/2
f 737/643/2 742/647/2 783/647/2 782/643/2
f 797/665/3 798/601/3 616/595/3 684/666/3 683/667/3 630/33/3
f 617/554/4 796/668/4 787/669/4 600/555/4
f 647/541/1 627/49/1 628/25/1 648/518/1
f 655/670/13 656/527/13 663/527/13 664/670/13
f 770/671/3 769/634/3 765/635/3 767/672/3 649/673/3 652/674/3
f 650/675/2 651/676/2 660/676/2 657/675/2
f 616/595/3 615/556/3 691/561/3 690/659/3 681/660/3 684/677/3
f 611/575/3 610/582/3 732/587/3 731/678/3 724/679/3 723/576/3
f 719/641/3 718/581/3 725/580/3 728/629/3 619/550/3 620/548/3
f 744/680/3 743/646/3 632/528/3 795/681/3 796/668/3 617/554/3
f 689/648/3 692/682/3 699/683/3 698/684/3 701/685/3 704/686/3 695/687/3 694/649/3
f 721/627/3 724/688/3 731/689/3 730/690/3 733/691/3 736/692/3 727/693/3 726/628/3
f 733/691/6 730/690/6 777/690/6 780/691/6
f 701/685/6 698/684/6 757/684/6 760/685/6
f 703/652/3 702/572/3 709/573/3 712/638/3 621/546/3 622/544/3
f 613/565/3 612/574/3 716/694/3 715/656/3 708/695/3 707/566/3
f 735/632/3 734/590/3 741/591/3 744/680/3 617/554/3 618/552/3
f 776/696/3 775/580/3 768/581/3 770/671/3 652/674/3 651/676/3
f 777/690/3 778/624/3 781/625/3 782/643/3 783/647/3 784/588/3 779/589/3 780/691/3
f 773/697/3 772/627/3 774/628/3 776/696/3 651/676/3 650/675/3
f 767/698/3 766/633/3 771/577/3 773/697/3 650/675/3 649/673/3
f 756/699/3 755/562/3 748/563/3 750/700/3 656/527/3 655/670/3
f 757/684/3 758/642/3 761/567/3 762/636/3 763/637/3 764/570/3 759/571/3 760/685/3
f 753/701/3 752/648/3 754/649/3 756/699/3 655/670/3 654/702/3
f 747/703/3 746/658/3 751/659/3 753/701/3 654/702/3 653/526/3
f 649/673/4 650/675/4 657/675/4 658/673/4
f 656/527/6 653/526/6 662/526/6 663/527/6
f 651/676/13 652/674/13 659/674/13 660/676/13
f 652/674/6 649/673/6 658/673/6 659/674/6
f 654/702/2 655/670/2 664/670/2 661/702/2
f 653/526/4 654/702/4 661/702/4 662/526/4
f 681/658/3 682/712/3 683/653/3 684/666/3
f 685/523/3 686/713/3 687/514/3 688/513/3
f 689/648/3 690/714/3 691/561/3 692/560/3
f 693/562/3 694/715/3 695/687/3 696/626/3
f 697/642/3 698/716/3 699/683/3 700/558/3
f 701/685/3 702/717/3 703/652/3 704/651/3
f 705/636/3 706/718/3 707/566/3 708/695/3
f 709/570/3 710/719/3 711/657/3 712/638/3
f 713/633/3 714/720/3 715/656/3 716/694/3
f 717/634/3 718/721/3 719/641/3 720/640/3
f 721/627/3 722/722/3 723/576/3 724/679/3
f 725/580/3 726/723/3 727/693/3 728/629/3
f 729/624/3 730/724/3 731/689/3 732/587/3
f 733/691/3 734/725/3 735/632/3 736/631/3
f 737/643/3 738/726/3 739/584/3 740/727/3
f 741/588/3 742/728/3 743/646/3 744/680/3
f 745/524/3 746/712/3 747/703/3
f 748/564/3 749/713/3 750/522/3
f 751/659/3 752/714/3 753/701/3
f 754/649/3 755/715/3 756/699/3
f 765/635/3 766/720/3 767/698/3
f 768/581/3 769/721/3 770/671/3
f 771/577/3 772/722/3 773/697/3
f 774/628/3 775/723/3 776/696/3
f 709/570/121 764/573/121 763/637/121 710/637/121
f 761/567/119 706/567/119 705/636/119 762/636/119
f 741/588/121 784/591/121 783/647/121 742/647/121
f 781/585/119 738/625/119 737/643/119 782/643/119
f 721/627/119 772/627/119 771/577/119 722/577/119
f 765/635/120 714/635/120 713/633/120 766/578/120
f 689/648/119 752/648/119 751/659/119 690/659/119
f 745/524/120 682/524/120 681/658/120 746/660/120
f 748/564/122 686/563/122 685/523/122 749/523/122
f 717/634/122 769/634/122 768/581/122 718/581/122
f 774/628/121 726/628/121 725/580/121 775/580/121
f 754/649/121 694/649/121 693/562/121 755/562/121
f 777/690/120 730/690/120 729/624/120 778/586/120
f 757/684/120 698/684/120 697/642/120 758/568/120
f 733/691/122 780/691/122 779/590/122 734/589/122
f 759/572/122 702/571/122 701/685/122 760/685/122
f 609/583/3 799/661/3 800/729/3 631/645/3 740/727/3 739/584/3
f 797/593/121 790/592/121 789/494/121 798/730/121
f 791/496/122 800/731/122 799/661/122 792/520/122
f 785/623/119 794/622/119 793/732/119 786/492/119
f 795/733/120 788/317/120 787/669/120 796/668/120
f 785/734/1 786/735/1 593/620/1 633/621/1 626/42/1
f 837/512/3 896/513/3 895/514/3 832/515/3 1001/516/3 1002/517/3
f 856/518/1 836/25/1 999/519/1 1000/520/1 809/521/1
f 958/522/3 957/523/3 953/524/3 955/525/3 861/526/3 864/527/3
f 840/528/6 835/529/6 996/530/6 1003/531/6
f 1001/516/4 832/515/4 801/532/4 994/533/4
f 833/80/1 842/534/1 816/535/1 997/536/1 998/537/1
f 808/538/1 995/539/1 996/540/1 835/49/1 855/541/1
f 832/515/4 831/542/4 802/543/4 801/532/4
f 831/542/4 830/544/4 803/545/4 802/543/4
f 830/544/4 829/546/4 804/547/4 803/545/4
f 829/546/4 828/548/4 805/549/4 804/547/4
f 828/548/4 827/550/4 806/551/4 805/549/4
f 827/550/4 826/552/4 807/553/4 806/551/4
f 826/552/4 825/554/4 808/555/4 807/553/4
f 823/556/3 822/557/3 908/558/3 907/559/3 900/560/3 899/561/3
f 901/562/13 894/563/13 956/564/13 963/562/13
f 822/557/3 821/565/3 915/566/3 914/567/3 905/568/3 908/569/3
f 917/570/13 910/571/13 967/572/13 972/573/13
f 820/574/3 819/575/3 931/576/3 930/577/3 921/578/3 924/579/3
f 933/580/13 926/581/13 976/581/13 983/580/13
f 818/582/3 817/583/3 947/584/3 946/585/3 937/586/3 940/587/3
f 949/588/13 942/589/13 987/590/13 992/591/13
f 998/592/2 1005/593/2 838/33/2 833/34/2
f 816/535/13 815/594/13 823/556/13 824/595/13
f 815/594/13 814/596/13 822/557/13 823/556/13
f 814/596/13 813/597/13 821/565/13 822/557/13
f 813/597/13 812/598/13 820/574/13 821/565/13
f 812/598/13 811/599/13 819/575/13 820/574/13
f 811/599/13 810/600/13 818/582/13 819/575/13
f 810/600/13 809/521/13 817/583/13 818/582/13
f 997/536/13 816/535/13 824/595/13 1006/601/13
f 842/534/1 844/602/1 815/594/1 816/535/1
f 844/602/1 846/603/1 814/596/1 815/594/1
f 846/603/1 848/604/1 813/597/1 814/596/1
f 848/604/1 850/605/1 812/598/1 813/597/1
f 850/605/1 852/606/1 811/599/1 812/598/1
f 852/606/1 854/607/1 810/600/1 811/599/1
f 854/607/1 856/518/1 809/521/1 810/600/1
f 807/608/1 808/538/1 855/541/1 853/609/1
f 853/609/1 855/541/1 856/518/1 854/607/1
f 806/610/1 807/608/1 853/609/1 851/611/1
f 851/611/1 853/609/1 854/607/1 852/606/1
f 805/612/1 806/610/1 851/611/1 849/613/1
f 849/613/1 851/611/1 852/606/1 850/605/1
f 804/614/1 805/612/1 849/613/1 847/615/1
f 847/615/1 849/613/1 850/605/1 848/604/1
f 803/616/1 804/614/1 847/615/1 845/617/1
f 845/617/1 847/615/1 848/604/1 846/603/1
f 802/618/1 803/616/1 845/617/1 843/619/1
f 843/619/1 845/617/1 846/603/1 844/602/1
f 801/620/1 802/618/1 843/619/1 841/621/1
f 841/621/1 843/619/1 844/602/1 842/534/1
f 834/36/2 837/512/2 1002/622/2 993/623/2
f 834/42/1 841/621/1 842/534/1 833/80/1
f 937/624/4 946/625/4 989/585/4 986/586/4
f 895/514/3 894/564/3 901/562/3 904/626/3 831/542/3 832/515/3
f 929/627/2 934/628/2 982/628/2 980/627/2
f 936/629/3 935/630/3 944/631/3 943/632/3 826/552/3 827/550/3
f 921/633/4 930/577/4 979/577/4 974/578/4
f 925/634/6 922/635/6 973/635/6 977/634/6
f 913/636/2 918/637/2 971/637/2 970/636/2
f 920/638/3 919/639/3 928/640/3 927/641/3 828/548/3 829/546/3
f 905/642/4 914/567/4 969/567/4 966/568/4
f 945/643/3 948/644/3 839/645/3 840/528/3 951/646/3 950/647/3
f 897/648/2 902/649/2 962/649/2 960/648/2
f 904/626/3 903/650/3 912/651/3 911/652/3 830/544/3 831/542/3
f 838/33/3 891/653/3 890/524/3 893/523/3 896/654/3 837/512/3
f 913/636/3 916/655/3 923/656/3 922/635/3 925/634/3 928/640/3 919/657/3 918/637/3
f 893/523/6 890/524/6 953/524/6 957/523/6
f 889/658/4 898/659/4 959/659/4 954/660/4
f 809/521/13 1000/520/13 1007/661/13 817/583/13
f 839/645/6 836/662/6 835/529/6 840/528/6
f 1008/663/6 999/664/6 836/662/6 839/645/6
f 833/34/2 838/33/2 837/512/2 834/36/2
f 945/643/2 950/647/2 991/647/2 990/643/2
f 1005/665/3 1006/601/3 824/595/3 892/666/3 891/667/3 838/33/3
f 825/554/4 1004/668/4 995/669/4 808/555/4
f 855/541/1 835/49/1 836/25/1 856/518/1
f 863/670/13 864/527/13 871/527/13 872/670/13
f 978/671/3 977/634/3 973/635/3 975/672/3 857/673/3 860/674/3
f 858/675/2 859/676/2 868/676/2 865/675/2
f 824/595/3 823/556/3 899/561/3 898/659/3 889/660/3 892/677/3
f 819/575/3 818/582/3 940/587/3 939/678/3 932/679/3 931/576/3
f 927/641/3 926/581/3 933/580/3 936/629/3 827/550/3 828/548/3
f 952/680/3 951/646/3 840/528/3 1003/681/3 1004/668/3 825/554/3
f 897/648/3 900/682/3 907/683/3 906/684/3 909/685/3 912/686/3 903/687/3 902/649/3
f 929/627/3 932/688/3 939/689/3 938/690/3 941/691/3 944/692/3 935/693/3 934/628/3
f 941/691/6 938/690/6 985/690/6 988/691/6
f 909/685/6 906/684/6 965/684/6 968/685/6
f 911/652/3 910/572/3 917/573/3 920/638/3 829/546/3 830/544/3
f 821/565/3 820/574/3 924/694/3 923/656/3 916/695/3 915/566/3
f 943/632/3 942/590/3 949/591/3 952/680/3 825/554/3 826/552/3
f 984/696/3 983/580/3 976/581/3 978/671/3 860/674/3 859/676/3
f 985/690/3 986/624/3 989/625/3 990/643/3 991/647/3 992/588/3 987/589/3 988/691/3
f 981/697/3 980/627/3 982/628/3 984/696/3 859/676/3 858/675/3
f 975/698/3 974/633/3 979/577/3 981/697/3 858/675/3 857/673/3
f 964/699/3 963/562/3 956/563/3 958/700/3 864/527/3 863/670/3
f 1012/736/6 1013/737/6 1022/737/6 1057/738/6 1058/739/6 1029/740/6 1041/741/6 1042/742/6 1021/736/6
f 961/701/3 960/648/3 962/649/3 964/699/3 863/670/3 862/702/3
f 955/703/3 954/658/3 959/659/3 961/701/3 862/702/3 861/526/3
f 857/673/4 858/675/4 865/675/4 866/673/4
f 864/527/6 861/526/6 870/526/6 871/527/6
f 859/676/13 860/674/13 867/674/13 868/676/13
f 860/674/6 857/673/6 866/673/6 867/674/6
f 862/702/2 863/670/2 872/670/2 869/702/2
f 861/526/4 862/702/4 869/702/4 870/526/4
f 889/658/3 890/712/3 891/653/3 892/666/3
f 893/523/3 894/713/3 895/514/3 896/513/3
f 897/648/3 898/714/3 899/561/3 900/560/3
f 901/562/3 902/715/3 903/687/3 904/626/3
f 905/642/3 906/716/3 907/683/3 908/558/3
f 909/685/3 910/717/3 911/652/3 912/651/3
f 913/636/3 914/718/3 915/566/3 916/695/3
f 917/570/3 918/719/3 919/657/3 920/638/3
f 921/633/3 922/720/3 923/656/3 924/694/3
f 925/634/3 926/721/3 927/641/3 928/640/3
f 929/627/3 930/722/3 931/576/3 932/679/3
f 933/580/3 934/723/3 935/693/3 936/629/3
f 937/624/3 938/724/3 939/689/3 940/587/3
f 941/691/3 942/725/3 943/632/3 944/631/3
f 945/643/3 946/726/3 947/584/3 948/727/3
f 949/588/3 950/728/3 951/646/3 952/680/3
f 953/524/3 954/712/3 955/703/3
f 956/564/3 957/713/3 958/522/3
f 959/659/3 960/714/3 961/701/3
f 962/649/3 963/715/3 964/699/3
f 973/635/3 974/720/3 975/698/3
f 976/581/3 977/721/3 978/671/3
f 979/577/3 980/722/3 981/697/3
f 982/628/3 983/723/3 984/696/3
f 917/570/121 972/573/121 971/637/121 918/637/121
f 969/567/119 914/567/119 913/636/119 970/636/119
f 949/588/121 992/591/121 991/647/121 950/647/121
f 989/585/119 946/625/119 945/643/119 990/643/119
f 929/627/119 980/627/119 979/577/119 930/577/119
f 973/635/120 922/635/120 921/633/120 974/578/120
f 897/648/119 960/648/119 959/659/119 898/659/119
f 953/524/120 890/524/120 889/658/120 954/660/120
f 956/564/122 894/563/122 893/523/122 957/523/122
f 925/634/122 977/634/122 976/581/122 926/581/122
f 982/628/121 934/628/121 933/580/121 983/580/121
f 962/649/121 902/649/121 901/562/121 963/562/121
f 985/690/120 938/690/120 937/624/120 986/586/120
f 965/684/120 906/684/120 905/642/120 966/568/120
f 941/691/122 988/691/122 987/590/122 942/589/122
f 967/572/122 910/571/122 909/685/122 968/685/122
f 817/583/3 1007/661/3 1008/729/3 839/645/3 948/727/3 947/584/3
f 1005/593/121 998/592/121 997/494/121 1006/730/121
f 999/496/122 1008/731/122 1007/661/122 1000/520/122
f 993/623/119 1002/622/119 1001/732/119 994/492/119
f 1003/733/120 996/317/120 995/669/120 1004/668/120
f 993/734/1 994/735/1 801/620/1 841/621/1 834/42/1
f 1018/744/3 1034/749/3 1033/750/3 1025/751/3 1050/752/3 1049/753/3 1017/743/3 1038/754/3 1037/755/3 1027/756/3 1054/757/3 1053/758/3 1020/745/3 1040/759/3 1039/760/3 1028/761/3 1056/762/3 1055/763/3 1021/736/3 1042/742/3 1041/741/3 1029/740/3 1058/739/3 1057/738/3 1022/737/3 1044/764/3 1043/765/3 1030/766/3 1060/767/3 1059/768/3 1023/746/3 1046/769/3 1045/770/3 1031/771/3 1062/772/3 1061/773/3 1024/747/3 1048/774/3 1047/775/3 1032/776/3 1064/777/3 1063/778/3 1019/748/3 1036/779/3 1035/780/3 1026/781/3 1052/782/3 1051/783/3
f 1010/743/13 1011/745/13 1020/745/13 1053/758/13 1054/757/13 1027/756/13 1037/755/13 1038/754/13 1017/743/13
f 1009/744/121 1010/743/121 1017/743/121 1049/753/121 1050/752/121 1025/751/121 1033/750/121 1034/749/121 1018/744/121
f 1015/747/119 1016/748/119 1019/748/119 1063/778/119 1064/777/119 1032/776/119 1047/775/119 1048/774/119 1024/747/119
f 1013/737/120 1014/746/120 1023/746/120 1059/768/120 1060/767/120 1030/766/120 1043/765/120 1044/764/120 1022/737/120
f 1011/745/122 1012/736/122 1021/736/122 1055/763/122 1056/762/122 1028/761/122 1039/760/122 1040/759/122 1020/745/122
f 1016/748/2 1009/744/2 1018/744/2 1051/783/2 1052/782/2 1026/781/2 1035/780/2 1036/779/2 1019/748/2
f 1014/746/4 1015/747/4 1024/747/4 1061/773/4 1062/772/4 1031/771/4 1045/770/4 1046/769/4 1023/746/4
usemtl M_Noir_Profond
f 114/98/8 208/99/8 215/100/8 115/64/8
f 25/24/1 31/30/1 32/30/1 36/24/1
f 29/52/3 26/55/3 30/55/3 28/52/3
f 31/30/1 24/49/1 33/49/1 32/30/1
f 27/53/3 29/52/3 28/52/3 37/53/3
f 205/102/9 106/103/9 107/79/9 214/78/9
f 93/40/10 23/41/10 35/41/10 95/104/10
f 22/25/1 25/24/1 36/24/1 34/25/1
f 131/69/11 204/105/11 212/106/11 132/70/11
f 74/47/12 22/25/12 34/25/12 76/46/12
f 23/41/3 27/53/3 37/53/3 35/41/3
f 201/180/19 122/57/19 123/95/19 209/94/19
f 122/57/19 74/47/19 76/46/19 123/95/19
f 26/55/31 75/101/31 77/101/31 30/55/31
f 106/103/9 93/40/9 95/104/9 107/79/9
f 24/49/36 94/210/36 96/73/36 33/49/36
f 207/246/4 206/247/4 213/245/4 216/244/4
f 94/210/8 114/98/8 115/64/8 96/73/8
f 203/116/13 202/280/13 210/277/13 211/276/13
f 75/101/11 131/69/11 132/70/11 77/101/11
f 207/246/58 216/244/58 215/317/58 208/317/58
f 205/102/59 214/78/59 213/245/59 206/247/59
f 203/116/60 211/276/60 212/106/60 204/105/60
f 201/180/61 209/94/61 210/277/61 202/280/61
f 358/337/3 359/66/3 360/67/3 357/337/3
f 374/344/2 373/345/2 397/345/2 398/344/2
f 381/346/6 384/347/6 408/347/6 405/346/6
f 376/348/2 377/349/2 401/349/2 400/348/2
f 373/345/116 374/344/116 386/197/116 385/338/116
f 376/348/3 375/350/3 387/340/3 388/339/3
f 378/351/3 377/349/3 389/342/3 390/341/3
f 377/349/3 376/348/3 388/339/3 389/342/3
f 374/344/116 379/352/116 391/196/116 386/197/116
f 379/352/116 380/353/116 392/343/116 391/196/116
f 375/350/3 378/351/3 390/341/3 387/340/3
f 381/346/117 382/354/117 394/211/117 393/212/117
f 380/353/116 373/345/116 385/338/116 392/343/116
f 382/354/117 383/355/117 395/192/117 394/211/117
f 384/347/117 381/346/117 393/212/117 396/191/117
f 383/355/117 384/347/117 396/191/117 395/192/117
f 382/354/23 381/346/23 405/346/23 406/354/23
f 379/352/118 374/344/118 398/344/118 403/352/118
f 384/347/27 383/355/27 407/355/27 408/347/27
f 375/350/4 376/348/4 400/348/4 399/350/4
f 373/345/26 380/353/26 404/353/26 397/345/26
f 380/353/6 379/352/6 403/352/6 404/353/6
f 377/349/13 378/351/13 402/351/13 401/349/13
f 383/355/2 382/354/2 406/354/2 407/355/2
f 378/351/6 375/350/6 399/350/6 402/351/6
f 417/360/13 418/363/13 426/357/13 425/356/13
f 419/364/4 420/365/4 428/263/4 427/292/4
f 421/366/4 422/367/4 430/293/4 429/262/4
f 423/362/13 424/361/13 432/359/13 431/358/13
f 424/361/13 417/360/13 425/356/13 432/359/13
f 420/365/4 421/366/4 429/262/4 428/263/4
f 418/363/13 423/362/13 431/358/13 426/357/13
f 422/367/4 419/364/4 427/292/4 430/293/4
f 442/41/3 441/53/3 443/53/3 448/41/3
f 444/52/3 446/55/3 447/55/3 445/52/3
f 462/377/2 463/378/2 486/378/2 484/377/2
f 469/370/2 465/400/2 488/400/2 489/370/2
f 464/395/6 461/392/6 483/392/6 485/395/6
f 481/422/4 482/423/4 502/423/4 504/422/4
f 465/400/13 466/421/13 487/421/13 488/400/13
f 524/469/2 525/470/2 548/470/2 547/469/2
f 520/471/13 521/472/13 542/472/13 543/471/13
f 523/473/2 524/469/2 547/469/2 544/473/2
f 516/474/13 517/475/13 538/475/13 539/474/13
f 519/476/2 520/471/2 543/471/2 540/476/2
f 466/421/6 467/389/6 490/389/6 487/421/6
f 463/378/13 464/395/13 485/395/13 486/378/13
f 470/413/13 471/432/13 492/432/13 493/413/13
f 467/389/4 468/371/4 491/371/4 490/389/4
f 474/450/13 475/427/13 496/427/13 497/450/13
f 473/414/2 470/413/2 493/413/2 494/414/2
f 478/433/13 479/383/13 500/383/13 501/433/13
f 468/371/2 469/370/2 489/370/2 491/371/2
f 477/451/2 474/450/2 497/450/2 498/451/2
f 471/432/6 472/420/6 495/420/6 492/432/6
f 482/423/2 478/433/2 501/433/2 502/423/2
f 475/427/6 476/426/6 499/426/6 496/427/6
f 472/420/4 473/414/4 494/414/4 495/420/4
f 479/383/6 480/382/6 503/382/6 500/383/6
f 476/426/4 477/451/4 498/451/4 499/426/4
f 480/382/6 481/422/6 504/422/6 503/382/6
f 461/392/4 462/377/4 484/377/4 483/392/4
f 483/392/3 484/377/3 506/477/3 505/478/3
f 484/377/3 486/378/3 507/479/3 506/477/3
f 486/378/3 485/395/3 508/480/3 507/479/3
f 485/395/3 483/392/3 505/478/3 508/480/3
f 488/400/3 487/421/3 510/481/3 509/482/3
f 487/421/3 490/389/3 511/483/3 510/481/3
f 490/389/3 491/371/3 512/484/3 511/483/3
f 491/371/3 489/370/3 513/485/3 512/484/3
f 489/370/3 488/400/3 509/482/3 513/485/3
f 493/413/3 492/432/3 515/486/3 514/487/3
f 492/432/3 495/420/3 516/474/3 515/486/3
f 495/420/3 494/414/3 517/475/3 516/474/3
f 494/414/3 493/413/3 514/487/3 517/475/3
f 497/450/3 496/427/3 519/476/3 518/488/3
f 496/427/3 499/426/3 520/471/3 519/476/3
f 499/426/3 498/451/3 521/472/3 520/471/3
f 498/451/3 497/450/3 518/488/3 521/472/3
f 501/433/3 500/383/3 523/473/3 522/489/3
f 500/383/3 503/382/3 524/469/3 523/473/3
f 503/382/3 504/422/3 525/470/3 524/469/3
f 504/422/3 502/423/3 526/490/3 525/470/3
f 502/423/3 501/433/3 522/489/3 526/490/3
f 505/478/13 506/477/13 528/477/13 527/478/13
f 509/482/4 510/481/4 531/481/4 532/482/4
f 525/470/13 526/490/13 546/490/13 548/470/13
f 508/480/2 505/478/2 527/478/2 529/480/2
f 513/485/6 509/482/6 532/482/6 533/485/6
f 506/477/6 507/479/6 530/479/6 528/477/6
f 510/481/2 511/483/2 534/483/2 531/481/2
f 507/479/4 508/480/4 529/480/4 530/479/4
f 514/487/4 515/486/4 536/486/4 537/487/4
f 511/483/13 512/484/13 535/484/13 534/483/13
f 518/488/4 519/476/4 540/476/4 541/488/4
f 517/475/6 514/487/6 537/487/6 538/475/6
f 522/489/4 523/473/4 544/473/4 545/489/4
f 512/484/6 513/485/6 533/485/6 535/484/6
f 521/472/6 518/488/6 541/488/6 542/472/6
f 515/486/2 516/474/2 539/474/2 536/486/2
f 526/490/6 522/489/6 545/489/6 546/490/6
f 668/704/6 665/705/6 674/705/6 675/704/6
f 667/706/13 668/704/13 675/704/13 676/706/13
f 658/673/3 657/675/3 666/707/3 665/705/3
f 657/675/3 660/676/3 667/706/3 666/707/3
f 660/676/3 659/674/3 668/704/3 667/706/3
f 659/674/3 658/673/3 665/705/3 668/704/3
f 662/526/3 661/702/3 670/708/3 669/709/3
f 661/702/3 664/670/3 671/710/3 670/708/3
f 664/670/3 663/527/3 672/711/3 671/710/3
f 663/527/3 662/526/3 669/709/3 672/711/3
f 670/708/2 671/710/2 680/710/2 677/708/2
f 669/709/4 670/708/4 677/708/4 678/709/4
f 666/707/2 667/706/2 676/706/2 673/707/2
f 671/710/13 672/711/13 679/711/13 680/710/13
f 665/705/4 666/707/4 673/707/4 674/705/4
f 672/711/6 669/709/6 678/709/6 679/711/6
f 876/704/6 873/705/6 882/705/6 883/704/6
f 875/706/13 876/704/13 883/704/13 884/706/13
f 866/673/3 865/675/3 874/707/3 873/705/3
f 865/675/3 868/676/3 875/706/3 874/707/3
f 868/676/3 867/674/3 876/704/3 875/706/3
f 867/674/3 866/673/3 873/705/3 876/704/3
f 870/526/3 869/702/3 878/708/3 877/709/3
f 869/702/3 872/670/3 879/710/3 878/708/3
f 872/670/3 871/527/3 880/711/3 879/710/3
f 871/527/3 870/526/3 877/709/3 880/711/3
f 878/708/2 879/710/2 888/710/2 885/708/2
f 877/709/4 878/708/4 885/708/4 886/709/4
f 874/707/2 875/706/2 884/706/2 881/707/2
f 879/710/13 880/711/13 887/711/13 888/710/13
f 873/705/4 874/707/4 881/707/4 882/705/4
f 880/711/6 877/709/6 886/709/6 887/711/6
f 965/684/3 966/642/3 1010/743/3 1009/744/3
f 966/642/3 969/567/3 1011/745/3 1010/743/3
f 969/567/3 970/636/3 1012/736/3 1011/745/3
f 970/636/3 971/637/3 1013/737/3 1012/736/3
f 971/637/3 972/570/3 1014/746/3 1013/737/3
f 972/570/3 967/571/3 1015/747/3 1014/746/3
f 967/571/3 968/685/3 1016/748/3 1015/747/3
f 968/685/3 965/684/3 1009/744/3 1016/748/3
usemtl M_Orange
f 148/296/3 147/295/3 146/294/3 149/297/3
f 143/96/3 142/97/3 145/223/3 144/96/3
f 164/136/3 160/298/3 159/167/3 163/151/3
f 167/140/3 157/135/3 158/150/3 168/139/3
f 160/298/3 161/221/3 162/142/3 159/167/3
f 157/135/3 164/136/3 163/151/3 158/150/3
f 161/221/3 165/181/3 166/141/3 162/142/3
f 175/79/24 173/104/24 174/225/24 176/132/24
f 170/214/25 169/70/25 171/70/25 172/101/25
usemtl M_Noir_Clair
f 400/348/3 401/349/3 402/351/3 399/350/3
f 407/355/117 406/354/117 405/346/117 408/347/117
f 398/344/116 397/345/116 404/353/116 403/352/116
usemtl M_Cyan
f 527/478/3 528/477/3 530/479/3 529/480/3
f 532/482/3 531/481/3 534/483/3 535/484/3 533/485/3
f 537/487/3 536/486/3 539/474/3 538/475/3
f 541/488/3 540/476/3 543/471/3 542/472/3
f 545/489/3 544/473/3 547/469/3 548/470/3 546/490/3
f 674/705/3 673/707/3 676/706/3 675/704/3
f 678/709/3 677/708/3 680/710/3 679/711/3
f 882/705/3 881/707/3 884/706/3 883/704/3
f 886/709/3 885/708/3 888/710/3 887/711/3
