# Blender 4.2.3 LTS
# www.blender.org
mtllib SM_Tech Storage_Rack.mtl
o SM_Tech_Storage_Rack
v -0.200000 1.765168 0.590333
v -0.200000 1.765168 -0.590333
v 0.200000 1.765168 -0.590333
v 0.200000 1.765168 0.590333
v -0.144512 1.634512 0.700000
v -0.144512 1.634512 -0.700000
v 0.144512 1.634512 -0.700000
v 0.144512 1.634512 0.700000
v -0.144512 0.213643 -0.700000
v 0.144512 0.213643 -0.700000
v 0.200000 0.192987 -0.625165
v -0.200000 0.192987 -0.625165
v 0.144512 0.213643 0.700000
v 0.200000 0.192987 0.625165
v -0.200000 0.192987 0.625165
v -0.144512 0.213643 0.700000
v -0.200000 0.192987 0.665168
v -0.200000 1.690000 0.665168
v 0.200000 1.690000 0.665168
v -0.200000 1.690000 -0.665168
v 0.200000 1.690000 -0.665168
v -0.200000 0.192987 -0.665168
v 0.200000 0.192987 -0.665168
v 0.200000 0.192987 0.665168
v -0.144512 0.213643 0.674686
v -0.144512 1.634512 0.674686
v 0.144512 1.634512 0.674686
v -0.144512 1.634512 -0.674686
v 0.144512 1.634512 -0.674686
v -0.144512 0.213643 -0.674686
v 0.144512 0.213643 -0.674686
v 0.144512 0.213643 0.674686
v 0.188792 1.765168 -0.590333
v 0.188792 1.765168 0.590333
v -0.188792 1.765168 0.590333
v -0.188792 1.765168 -0.590333
v -0.188792 1.690000 0.665168
v 0.188792 1.690000 -0.665168
v 0.188792 1.690000 0.665168
v -0.188792 1.690000 -0.665168
v -0.188792 0.192987 0.665168
v -0.188792 0.192987 -0.665168
v 0.188792 0.192987 -0.665168
v 0.188792 0.192987 -0.625165
v -0.188792 0.192987 -0.625165
v 0.188792 0.192987 0.665168
v 0.188792 0.192987 0.625165
v -0.188792 0.192987 0.625165
v -0.200000 1.765168 0.641902
v -0.200000 1.741902 0.665168
v -0.200000 1.781620 0.681620
v -0.200000 1.741902 -0.665168
v -0.200000 1.765168 -0.641902
v -0.200000 1.781620 -0.681620
v 0.200000 1.741902 0.665168
v 0.200000 1.765168 0.641902
v 0.200000 1.781620 0.681620
v 0.200000 1.765168 -0.641902
v 0.200000 1.741902 -0.665168
v 0.200000 1.781620 -0.681620
v 0.200000 1.701566 -0.625165
v 0.200000 1.724832 -0.601899
v 0.200000 1.708380 -0.608714
v 0.200000 1.724832 0.601899
v 0.200000 1.701566 0.625165
v 0.200000 1.708380 0.608714
v -0.200000 1.701566 0.625165
v -0.200000 1.724832 0.601899
v -0.200000 1.708380 0.608714
v -0.200000 1.724832 -0.601899
v -0.200000 1.701566 -0.625165
v -0.200000 1.708380 -0.608714
v -0.200000 1.783548 0.683548
v -0.200000 1.783548 -0.683548
v 0.200000 1.783548 0.683548
v 0.200000 1.783548 -0.683548
v -0.200000 1.706452 0.606785
v -0.200000 1.706452 -0.606785
v 0.200000 1.706452 -0.606785
v 0.200000 1.706452 0.606785
v 0.188792 1.724832 -0.601899
v 0.188792 1.701566 -0.625165
v 0.188792 1.709553 -0.642712
v 0.188792 1.742441 -0.609959
v 0.188792 1.701566 0.625165
v 0.188792 1.724832 0.601899
v 0.188792 1.742441 0.609959
v 0.188792 1.709553 0.642712
v -0.188792 1.724832 0.601899
v -0.188792 1.701566 0.625165
v -0.188792 1.709553 0.642712
v -0.188792 1.742441 0.609959
v -0.188792 1.701566 -0.625165
v -0.188792 1.724832 -0.601899
v -0.188792 1.742441 -0.609959
v -0.188792 1.709553 -0.642712
v -0.188792 1.741902 0.665168
v -0.188792 1.765168 0.641902
v -0.188792 1.765168 -0.641902
v -0.188792 1.741902 -0.665168
v 0.188792 1.765168 0.641902
v 0.188792 1.741902 0.665168
v 0.188792 1.741902 -0.665168
v 0.188792 1.765168 -0.641902
v -0.213324 0.000000 0.717710
v -0.230000 0.000000 0.701240
v -0.230000 0.000000 -0.701240
v -0.213324 0.000000 -0.717710
v 0.230000 0.000000 0.701240
v 0.213324 0.000000 0.717710
v 0.213324 0.000000 -0.717710
v 0.230000 0.000000 -0.701240
v -0.213492 0.000000 -0.590333
v -0.230000 0.000000 -0.601697
v -0.230000 0.000000 0.601697
v -0.213492 0.000000 0.590333
v 0.213492 0.000000 0.590333
v 0.230000 0.000000 0.601697
v 0.230000 0.000000 -0.601697
v 0.213492 0.000000 -0.590333
v -0.230000 0.120516 -0.701213
v -0.213288 0.120516 -0.717710
v 0.213288 0.120516 -0.717710
v 0.230000 0.120516 -0.701213
v 0.230000 0.120516 -0.601520
v 0.213463 0.120516 -0.590333
v -0.213463 0.120516 -0.590333
v -0.230000 0.120516 -0.601520
v 0.230000 0.120516 0.701213
v 0.213288 0.120516 0.717710
v 0.213463 0.120516 0.590333
v 0.230000 0.120516 0.601520
v -0.230000 0.120516 0.601520
v -0.213463 0.120516 0.590333
v -0.230000 0.120516 0.701213
v -0.213288 0.120516 0.717710
v -0.183324 1.690000 0.700000
v -0.200000 1.690000 0.683388
v -0.184212 1.800000 -0.590333
v -0.200000 1.783208 -0.590333
v 0.184212 1.800000 0.590333
v 0.200000 1.783208 0.590333
v -0.200000 1.783208 0.590333
v -0.184212 1.800000 0.590333
v 0.200000 1.783208 -0.590333
v 0.184212 1.800000 -0.590333
v -0.200000 0.158154 0.683453
v -0.183288 0.158154 0.700000
v -0.200000 1.690000 -0.683388
v -0.183324 1.690000 -0.700000
v 0.183324 1.690000 -0.700000
v 0.200000 1.690000 -0.683388
v 0.200000 1.690000 0.683388
v 0.183324 1.690000 0.700000
v -0.183288 0.158154 -0.700000
v -0.200000 0.158154 -0.683453
v 0.200000 0.158154 -0.683453
v 0.183288 0.158154 -0.700000
v 0.200000 0.158154 -0.600975
v 0.183513 0.158154 -0.590333
v -0.183513 0.158154 -0.590333
v -0.200000 0.158154 -0.600975
v 0.183288 0.158154 0.700000
v 0.200000 0.158154 0.683453
v 0.183513 0.158154 0.590333
v 0.200000 0.158154 0.600975
v -0.200000 0.158154 0.600975
v -0.183513 0.158154 0.590333
v -0.200000 1.783669 0.683258
v -0.184212 1.776734 0.700000
v -0.184212 1.800000 0.676734
v -0.200000 1.783128 0.683722
v -0.200000 1.783128 -0.683722
v -0.184212 1.800000 -0.676734
v -0.184212 1.776734 -0.700000
v -0.200000 1.783669 -0.683258
v 0.200000 1.783128 0.683722
v 0.184212 1.800000 0.676734
v 0.184212 1.776734 0.700000
v 0.200000 1.783669 0.683258
v 0.200000 1.783669 -0.683258
v 0.184212 1.776734 -0.700000
v 0.184212 1.800000 -0.676734
v 0.200000 1.783128 -0.683722
v -0.200000 1.699605 0.590256
v -0.183652 1.690000 0.567067
v -0.183607 1.666734 0.590333
v -0.200000 1.690116 0.600019
v -0.200000 1.690116 -0.600019
v -0.183607 1.666734 -0.590333
v -0.183652 1.690000 -0.567067
v -0.200000 1.699605 -0.590256
v 0.200000 1.699605 -0.590256
v 0.183652 1.690000 -0.567067
v 0.183607 1.666734 -0.590333
v 0.200000 1.690116 -0.600019
v 0.200000 1.690116 0.600019
v 0.183607 1.666734 0.590333
v 0.183652 1.690000 0.567067
v 0.200000 1.699605 0.590256
v -0.175000 0.620871 0.355406
v -0.170000 0.600553 0.590333
v -0.170000 0.654553 0.590333
v -0.175000 0.634236 0.355406
v -0.170000 0.600553 -0.590333
v -0.175000 0.620871 -0.355406
v -0.175000 0.634236 -0.355406
v -0.170000 0.654553 -0.590333
v 0.170000 0.600553 0.590333
v 0.175000 0.620871 0.355406
v 0.175000 0.634236 0.355406
v 0.170000 0.654553 0.590333
v 0.175000 0.620871 -0.355406
v 0.170000 0.600553 -0.590333
v 0.170000 0.654553 -0.590333
v 0.175000 0.634236 -0.355406
v -0.175000 0.605553 0.590333
v -0.175000 0.605553 -0.590333
v -0.175000 0.649553 -0.590333
v -0.175000 0.649553 0.590333
v 0.175000 0.605553 -0.590333
v 0.175000 0.605553 0.590333
v 0.175000 0.649553 0.590333
v 0.175000 0.649553 -0.590333
v -0.171830 0.620871 0.355406
v -0.171830 0.620871 -0.355406
v -0.171830 0.634236 -0.355406
v -0.171830 0.634236 0.355406
v 0.171830 0.620871 -0.355406
v 0.171830 0.620871 0.355406
v 0.171830 0.634236 0.355406
v 0.171830 0.634236 -0.355406
v -0.175000 1.165757 0.355406
v -0.170000 1.145439 0.590333
v -0.170000 1.199439 0.590333
v -0.175000 1.179122 0.355406
v -0.170000 1.145439 -0.590333
v -0.175000 1.165757 -0.355406
v -0.175000 1.179122 -0.355406
v -0.170000 1.199439 -0.590333
v 0.170000 1.145439 0.590333
v 0.175000 1.165757 0.355406
v 0.175000 1.179122 0.355406
v 0.170000 1.199439 0.590333
v 0.175000 1.165757 -0.355406
v 0.170000 1.145439 -0.590333
v 0.170000 1.199439 -0.590333
v 0.175000 1.179122 -0.355406
v -0.175000 1.150439 0.590333
v -0.175000 1.150439 -0.590333
v -0.175000 1.194439 -0.590333
v -0.175000 1.194439 0.590333
v 0.175000 1.150439 -0.590333
v 0.175000 1.150439 0.590333
v 0.175000 1.194439 0.590333
v 0.175000 1.194439 -0.590333
v -0.171830 1.165757 0.355406
v -0.171830 1.165757 -0.355406
v -0.171830 1.179122 -0.355406
v -0.171830 1.179122 0.355406
v 0.171830 1.165757 -0.355406
v 0.171830 1.165757 0.355406
v 0.171830 1.179122 0.355406
v 0.171830 1.179122 -0.355406
v -0.200000 0.000000 0.590422
v -0.200000 0.000000 -0.590422
v 0.200000 0.000000 0.590422
v 0.200000 0.000000 -0.590422
v -0.200000 0.000000 -0.466980
v -0.200000 0.000000 0.468059
v 0.200000 0.000000 0.468059
v 0.200000 0.000000 -0.466980
v -0.200000 0.042805 -0.400945
v -0.200000 0.042805 0.402024
v 0.200000 0.042805 0.402024
v 0.200000 0.042805 -0.400945
v -0.196317 0.100000 0.590422
v -0.200000 0.096317 0.590422
v -0.200000 0.096317 -0.590422
v -0.196317 0.100000 -0.590422
v 0.200000 0.096317 0.590422
v 0.196317 0.100000 0.590422
v 0.196317 0.100000 -0.590422
v 0.200000 0.096317 -0.590422
v -0.196317 0.100000 0.468059
v -0.200000 0.096317 0.468059
v -0.200000 0.096317 -0.466980
v -0.196317 0.100000 -0.466980
v 0.196317 0.100000 -0.466980
v 0.200000 0.096317 -0.466980
v 0.200000 0.096317 0.468059
v 0.196317 0.100000 0.468059
v -0.196317 0.100000 0.402024
v -0.200000 0.096317 0.402024
v -0.200000 0.096317 -0.400945
v -0.196317 0.100000 -0.400945
v 0.196317 0.100000 -0.400945
v 0.200000 0.096317 -0.400945
v 0.200000 0.096317 0.402024
v 0.196317 0.100000 0.402024
vn -0.0000 -0.0000 1.0000
vn 1.0000 -0.0000 -0.0000
vn -1.0000 -0.0000 -0.0000
vn -0.0000 1.0000 -0.0000
vn -0.0000 0.4258 -0.9048
vn -0.0000 -1.0000 -0.0000
vn -0.0000 -0.0000 -1.0000
vn 0.7820 0.6233 -0.0000
vn -0.7820 0.6233 -0.0000
vn -0.0000 0.4258 0.9048
vn -0.0000 0.7071 0.7071
vn -0.0000 0.7071 -0.7071
vn -0.0000 -0.7071 -0.7071
vn -0.0000 -0.7071 0.7071
vn -0.7026 0.0002 -0.7116
vn 0.7026 0.0002 -0.7116
vn 0.7026 0.0002 0.7116
vn -0.7285 0.6850 -0.0000
vn 0.7285 0.6850 -0.0000
vn 0.5637 -0.0005 0.8260
vn 0.5637 -0.0005 -0.8260
vn -0.5637 -0.0005 -0.8260
vn -0.5637 -0.0005 0.8260
vn -0.7047 -0.0000 0.7095
vn -0.7047 -0.0000 -0.7095
vn 0.7047 -0.0000 -0.7095
vn 0.7047 -0.0000 0.7095
vn -0.5238 0.6671 0.5298
vn -0.5238 0.6671 -0.5298
vn 0.5238 0.6671 -0.5298
vn 0.5060 0.3974 0.7655
vn -0.5060 0.3974 0.7655
vn 0.5238 0.6671 0.5298
vn 0.5060 0.3974 -0.7655
vn -0.5060 0.3974 -0.7655
vn -0.7026 0.0002 0.7116
vn -0.4035 0.6481 0.6459
vn -0.4035 0.6481 -0.6459
vn 0.4035 0.6481 0.6459
vn 0.4035 0.6481 -0.6459
vn -0.8181 -0.4089 -0.4044
vn -0.8181 -0.4089 0.4044
vn 0.8181 -0.4089 0.4044
vn 0.8181 -0.4089 -0.4044
vn -0.7169 -0.0030 0.6972
vn -0.7293 0.6842 0.0003
vn -0.7293 0.6842 -0.0003
vn -0.7169 -0.0030 -0.6972
vn 0.7293 0.6842 0.0003
vn 0.7169 -0.0030 0.6972
vn 0.7293 0.6842 -0.0003
vn 0.7169 -0.0030 -0.6972
vn 0.5260 -0.0003 0.8505
vn 0.5066 -0.8622 -0.0000
vn 0.5260 -0.0003 -0.8505
vn -0.5066 -0.8622 -0.0000
vn -0.5260 -0.0003 -0.8505
vn -0.5260 -0.0003 0.8505
vn -0.7071 -0.7071 -0.0000
vn -0.7071 0.7071 -0.0000
vn 0.7071 -0.7071 -0.0000
vn 0.7071 0.7071 -0.0000
vn -0.0000 -0.8391 -0.5439
vn -0.0000 -0.8391 0.5439
vt 0.490058 0.526468
vt 0.600000 0.526468
vt 0.601350 0.680633
vt 0.600849 0.693135
vt 0.490058 0.693135
vt 0.487500 0.674753
vt 0.600009 0.674026
vt 0.601208 0.679168
vt 0.621242 0.012566
vt 0.621166 0.012369
vt 0.621261 0.012501
vt 0.617084 0.083333
vt 0.617084 0.044148
vt 0.620823 0.013967
vt 0.621166 0.012369
vt 0.621184 0.083333
vt 0.375000 0.759063
vt 0.431250 0.759082
vt 0.431250 0.990918
vt 0.375000 0.990937
vt 0.617084 0.666667
vt 0.617084 0.583333
vt 0.621184 0.583333
vt 0.621184 0.666667
vt 0.487500 0.512574
vt 0.600000 0.512623
vt 0.634867 0.517680
vt 0.865133 0.517680
vt 0.865133 0.583333
vt 0.634867 0.583333
vt 0.375000 0.674101
vt 0.431250 0.673986
vt 0.431250 0.739207
vt 0.375000 0.739225
vt 0.431250 0.259082
vt 0.487500 0.260445
vt 0.487500 0.489555
vt 0.431250 0.490918
vt 0.600000 0.223532
vt 0.490058 0.223532
vt 0.490058 0.056865
vt 0.600849 0.056865
vt 0.601350 0.069367
vt 0.601208 0.070832
vt 0.600009 0.075974
vt 0.487500 0.075247
vt 0.491575 0.465320
vt 0.595925 0.465320
vt 0.600000 0.489577
vt 0.487500 0.489555
vt 0.431250 0.104304
vt 0.431250 0.645696
vt 0.375000 0.645733
vt 0.375000 0.104267
vt 0.600009 0.674026
vt 0.600705 0.673965
vt 0.601208 0.679168
vt 0.490058 0.556865
vt 0.600849 0.556865
vt 0.601350 0.569367
vt 0.601208 0.570832
vt 0.600009 0.575974
vt 0.487500 0.575247
vt 0.600000 0.723532
vt 0.490058 0.723532
vt 0.617084 0.166667
vt 0.491575 0.784680
vt 0.595925 0.784680
vt 0.600009 0.174026
vt 0.600705 0.173966
vt 0.601208 0.179168
vt 0.431250 0.510793
vt 0.487500 0.575247
vt 0.431250 0.576014
vt 0.431250 0.173986
vt 0.487500 0.174753
vt 0.487500 0.237426
vt 0.431250 0.239207
vt 0.487500 0.183840
vt 0.431250 0.181645
vt 0.431250 0.568355
vt 0.487500 0.566160
vt 0.602558 0.559401
vt 0.608899 0.568420
vt 0.608899 0.681580
vt 0.602558 0.690599
vt 0.487500 0.107376
vt 0.487500 0.642624
vt 0.431250 0.104304
vt 0.487500 0.674753
vt 0.487500 0.737426
vt 0.431250 0.739207
vt 0.600000 0.026468
vt 0.490058 0.026468
vt 0.487500 0.012574
vt 0.600000 0.012623
vt 0.601350 0.069367
vt 0.602558 0.059401
vt 0.602558 0.190599
vt 0.601350 0.180633
vt 0.600705 0.173282
vt 0.600705 0.076718
vt 0.601208 0.070832
vt 0.431250 0.181645
vt 0.375000 0.181619
vt 0.375000 0.568381
vt 0.431250 0.568354
vt 0.125000 0.510775
vt 0.134063 0.500000
vt 0.365937 0.500000
vt 0.375000 0.510775
vt 0.375000 0.575899
vt 0.366028 0.583333
vt 0.133972 0.583333
vt 0.125000 0.575899
vt 0.375000 0.259063
vt 0.431250 0.490918
vt 0.375000 0.490937
vt 0.487500 0.760445
vt 0.487500 0.989555
vt 0.125000 0.674101
vt 0.133972 0.666667
vt 0.366028 0.666667
vt 0.375000 0.739225
vt 0.365937 0.750000
vt 0.134063 0.750000
vt 0.125000 0.739225
vt 0.375000 0.174101
vt 0.375000 0.239225
vt 0.375000 0.510775
vt 0.375000 0.575899
vt 0.431250 0.010793
vt 0.487500 0.012574
vt 0.487500 0.075247
vt 0.431250 0.076014
vt 0.600000 0.760423
vt 0.619712 0.759868
vt 0.619712 0.990133
vt 0.600000 0.989577
vt 0.621184 0.083333
vt 0.621184 0.166667
vt 0.600000 0.237377
vt 0.487500 0.237426
vt 0.611796 0.223532
vt 0.620823 0.236033
vt 0.621261 0.237499
vt 0.621288 0.237278
vt 0.600000 0.237377
vt 0.600000 0.737377
vt 0.487500 0.737426
vt 0.487500 0.512574
vt 0.611796 0.723532
vt 0.620823 0.736033
vt 0.621261 0.737499
vt 0.621288 0.737278
vt 0.487500 0.012574
vt 0.595925 0.965320
vt 0.491575 0.965320
vt 0.491575 0.284680
vt 0.595925 0.284680
vt 0.617084 0.205852
vt 0.620823 0.236033
vt 0.621184 0.166667
vt 0.621166 0.237631
vt 0.621261 0.237499
vt 0.611796 0.526468
vt 0.620823 0.736033
vt 0.617084 0.705852
vt 0.621166 0.737631
vt 0.621261 0.737499
vt 0.620823 0.013967
vt 0.611796 0.026468
vt 0.600000 0.012623
vt 0.621288 0.012722
vt 0.487500 0.989555
vt 0.600849 0.056865
vt 0.487500 0.260445
vt 0.600000 0.260423
vt 0.620823 0.513967
vt 0.621288 0.512722
vt 0.621261 0.512501
vt 0.602558 0.559401
vt 0.602558 0.690599
vt 0.600000 0.760423
vt 0.600000 0.989577
vt 0.598291 0.183743
vt 0.487500 0.183840
vt 0.598291 0.566257
vt 0.487500 0.760445
vt 0.602558 0.190599
vt 0.602558 0.059401
vt 0.490058 0.193135
vt 0.600849 0.193135
vt 0.598291 0.107240
vt 0.598291 0.642760
vt 0.487500 0.642624
vt 0.487500 0.107376
vt 0.600000 0.260423
vt 0.601436 0.206468
vt 0.601436 0.706468
vt 0.601436 0.543532
vt 0.617084 0.544148
vt 0.611918 0.568420
vt 0.604444 0.543532
vt 0.601436 0.043532
vt 0.611796 0.026468
vt 0.611918 0.068420
vt 0.604444 0.043532
vt 0.604444 0.206468
vt 0.611918 0.181580
vt 0.604444 0.706468
vt 0.611918 0.681580
vt 0.608899 0.068420
vt 0.608899 0.181580
vt 0.487500 0.989555
vt 0.601350 0.180633
vt 0.487500 0.174753
vt 0.600009 0.174026
vt 0.601208 0.179168
vt 0.619712 0.259868
vt 0.619712 0.490133
vt 0.600000 0.489577
vt 0.865133 0.666667
vt 0.634867 0.666667
vt 0.487500 0.737426
vt 0.487500 0.674753
vt 0.865133 0.732320
vt 0.634867 0.732320
vt 0.487500 0.237426
vt 0.487500 0.174753
vt 0.620823 0.513967
vt 0.621261 0.512501
vt 0.621165 0.512369
vt 0.621184 0.583333
vt 0.617084 0.026468
vt 0.617084 0.223532
vt 0.617084 0.723532
vt 0.617084 0.526468
vt 0.602558 0.556865
vt 0.602558 0.693135
vt 0.602558 0.056865
vt 0.602558 0.193135
vt 0.625000 0.759868
vt 0.625000 0.990132
vt 0.625000 0.259868
vt 0.625000 0.490132
vt 0.619712 0.490132
vt 0.619712 0.259868
vt 0.621288 0.500000
vt 0.621166 0.500000
vt 0.621261 0.500000
vt 0.600705 0.076718
vt 0.600711 0.075974
vt 0.598291 0.107240
vt 0.600000 0.108683
vt 0.600000 0.641317
vt 0.598291 0.183743
vt 0.598291 0.566257
vt 0.600000 0.567812
vt 0.600000 0.182188
vt 0.601350 0.680633
vt 0.600705 0.673282
vt 0.600705 0.576718
vt 0.621166 0.750000
vt 0.621288 0.750000
vt 0.621261 0.750000
vt 0.621233 0.237405
vt 0.621288 0.237278
vt 0.600705 0.576718
vt 0.600711 0.575974
vt 0.600000 0.182188
vt 0.600000 0.567812
vt 0.600000 0.641317
vt 0.600000 0.108683
vt 0.625000 0.083333
vt 0.625000 0.166667
vt 0.375000 0.075899
vt 0.487500 0.000000
vt 0.600000 0.000000
vt 0.441972 0.000000
vt 0.375000 0.000000
vt 0.431250 0.000000
vt 0.431250 0.010793
vt 0.375000 0.010775
vt 0.622356 0.008840
vt 0.625000 0.017680
vt 0.622356 0.241160
vt 0.619712 0.250000
vt 0.619712 1.000000
vt 0.600000 1.000000
vt 0.625000 0.232320
vt 0.375000 0.753571
vt 0.398148 0.750000
vt 0.601852 0.750000
vt 0.625000 0.753571
vt 0.625000 0.996429
vt 0.601852 1.000000
vt 0.398148 1.000000
vt 0.375000 0.996429
vt 0.530937 0.246757
vt 0.469062 0.246757
vt 0.628571 0.500000
vt 0.871429 0.500000
vt 0.871429 0.750000
vt 0.628571 0.750000
vt 0.469063 0.503243
vt 0.530937 0.503243
vt 0.375000 0.253571
vt 0.398148 0.250000
vt 0.601852 0.250000
vt 0.625000 0.253571
vt 0.625000 0.496429
vt 0.601852 0.500000
vt 0.398148 0.500000
vt 0.375000 0.496429
vt 0.128571 0.500000
vt 0.128571 0.750000
vt 0.125000 0.750000
vt 0.125000 0.500000
vt 0.625000 0.000000
vt 0.625000 0.250000
vt 0.601852 0.250000
vt 0.601852 0.000000
vt 0.371429 0.750000
vt 0.371429 0.500000
vt 0.398148 0.500000
vt 0.398148 0.750000
vt 0.601852 0.750000
vt 0.601852 0.500000
vt 0.469063 0.003243
vt 0.398148 0.250000
vt 0.398148 0.000000
vt 0.530937 0.003243
vt 0.469062 0.746757
vt 0.530937 0.746757
vt 0.375000 0.250000
vt 0.615792 0.250000
vt 0.625000 0.252302
vt 0.625000 0.497698
vt 0.615792 0.500000
vt 0.375000 0.500000
vt 0.375000 0.666782
vt 0.615792 0.666782
vt 0.615792 0.750000
vt 0.375000 0.750000
vt 0.615792 0.500000
vt 0.615792 0.583449
vt 0.375000 0.583449
vt 0.627302 0.666782
vt 0.872698 0.666782
vt 0.872698 0.750000
vt 0.627302 0.750000
vt 0.125000 0.666782
vt 0.627302 0.500000
vt 0.872698 0.500000
vt 0.872698 0.583449
vt 0.627302 0.583449
vt 0.375000 0.166551
vt 0.615792 0.166551
vt 0.615792 0.250000
vt 0.375000 0.083218
vt 0.615792 0.083218
vt 0.608900 0.110996
vt 0.375000 0.110996
vt 0.125000 0.583449
vt 0.125000 0.639004
vt 0.375000 0.639004
vt 0.627302 0.639004
vt 0.872698 0.639004
vt 0.872698 0.666782
vt 0.627302 0.666782
vt 0.627302 0.611227
vt 0.872698 0.611227
vt 0.872698 0.639004
vt 0.615792 0.750000
vt 0.625000 0.752302
vt 0.625000 0.997698
vt 0.615792 1.000000
vt 0.375000 1.000000
vt 0.615792 0.583449
vt 0.608900 0.611227
vt 0.375000 0.611227
vt 0.872698 0.583449
vt 0.872698 0.611227
vt 0.608900 0.639004
vt 0.615792 0.666782
vt 0.125000 0.611227
vt 0.375000 0.138773
vt 0.608900 0.138773
vt 0.615792 0.166551
vt 0.625000 0.166551
vt 0.625000 0.083218
vt 0.615792 0.083218
vt 0.615792 0.000000
vt 0.625000 0.138773
vt 0.625000 0.110996
s 0
usemtl M_Noir_Bleuté
f 23/1/1 21/2/1 38/2/1 43/1/1
f 66/3/2 65/4/2 14/5/2 166/6/2 197/7/2 80/8/2
f 169/9/3 172/10/3 73/11/3
f 1/12/3 49/13/3 51/14/3 73/11/3 172/15/3 143/16/3
f 110/17/1 130/18/1 136/19/1 105/20/1
f 4/21/2 3/22/2 145/23/2 142/24/2
f 21/2/2 23/1/2 157/25/2 152/26/2
f 183/27/4 174/28/4 139/29/4 146/30/4
f 118/31/2 132/32/2 129/33/2 109/34/2
f 122/35/5 155/36/5 158/37/5 123/38/5
f 3/22/6 4/21/6 34/21/6 33/22/6
f 20/39/1 22/40/1 42/40/1 40/39/1
f 15/41/3 67/42/3 69/43/3 77/44/3 188/45/3 167/46/3
f 10/47/7 7/48/7 151/49/7 158/50/7
f 134/51/7 131/52/7 117/53/7 116/54/7
f 197/55/2 200/56/2 80/57/2
f 11/58/2 61/59/2 63/60/2 79/61/2 196/62/2 159/63/2
f 19/64/7 24/65/7 46/65/7 39/64/7
f 7/48/3 10/47/3 31/47/3 29/48/3
f 1/12/6 2/66/6 36/66/6 35/12/6
f 13/67/3 8/68/3 27/68/3 32/67/3
f 189/69/3 192/70/3 78/71/3
f 124/72/8 157/25/8 159/73/8 125/74/8
f 128/75/9 162/76/9 156/77/9 121/78/9
f 161/79/1 127/80/1 126/81/1 160/82/1
f 168/87/7 165/88/7 131/52/7 134/89/7
f 132/32/8 166/90/8 164/91/8 129/92/8
f 18/93/3 17/94/3 147/95/3 138/96/3
f 69/97/3 68/98/3 70/99/3 72/100/3 78/71/3 192/101/3 185/102/3 77/103/3
f 127/104/1 113/105/1 120/106/1 126/107/1
f 107/108/6 108/109/6 111/110/6 112/111/6 119/112/6 120/113/6 113/114/6 114/115/6
f 108/116/7 122/35/7 123/117/7 111/118/7
f 130/18/10 163/119/10 148/120/10 136/19/10
f 115/121/6 116/122/6 117/123/6 118/31/6 109/124/6 110/125/6 105/126/6 106/127/6
f 114/128/3 128/75/3 121/78/3 107/129/3
f 112/130/2 124/72/2 125/74/2 119/131/2
f 135/132/9 147/133/9 167/134/9 133/135/9
f 154/136/1 179/137/1 170/138/1 137/139/1
f 2/66/3 1/12/3 143/140/3 140/141/3
f 22/40/3 20/39/3 149/142/3 156/143/3
f 20/39/3 52/144/3 54/145/3 74/146/3 176/147/3 149/148/3
f 24/65/2 19/64/2 153/149/2 164/150/2
f 23/1/2 11/58/2 159/63/2 157/151/2
f 19/64/2 55/152/2 57/153/2 75/154/2 180/155/2 153/149/2
f 17/94/3 15/41/3 167/46/3 147/156/3
f 32/67/1 27/68/1 26/157/1 25/158/1
f 30/159/7 28/160/7 29/48/7 31/47/7
f 6/160/6 7/48/6 29/48/6 28/160/6
f 5/157/2 16/158/2 25/158/2 26/157/2
f 16/158/4 13/67/4 32/67/4 25/158/4
f 10/47/4 9/159/4 30/159/4 31/47/4
f 9/159/2 6/160/2 28/160/2 30/159/2
f 8/68/6 5/157/6 26/157/6 27/68/6
f 49/13/6 1/12/6 35/12/6 98/13/6
f 52/144/1 20/39/1 40/39/1 100/144/1
f 55/152/7 19/64/7 39/64/7 102/152/7
f 2/66/6 53/161/6 99/161/6 36/66/6
f 54/162/3 53/161/3 2/66/3 140/163/3 173/164/3 74/165/3
f 21/2/1 59/166/1 103/166/1 38/2/1
f 57/167/2 56/168/2 4/21/2 142/24/2 177/169/2 75/170/2
f 51/171/3 50/172/3 18/93/3 138/173/3 169/174/3 73/11/3
f 4/21/6 56/168/6 101/168/6 34/21/6
f 61/59/7 11/58/7 44/58/7 82/59/7
f 13/67/1 16/158/1 148/175/1 163/119/1
f 67/176/1 15/41/1 48/41/1 90/42/1
f 14/5/1 65/4/1 85/4/1 47/5/1
f 6/160/7 9/159/7 155/177/7 150/178/7
f 60/179/2 59/166/2 21/2/2 152/26/2 181/180/2 76/181/2
f 64/86/4 62/83/4 81/182/4 86/183/4
f 5/157/1 8/68/1 154/184/1 137/185/1
f 9/159/7 10/47/7 158/37/7 155/36/7
f 190/186/1 161/187/1 160/82/1 195/188/1
f 8/68/1 13/67/1 163/189/1 154/136/1
f 70/190/4 68/191/4 89/98/4 94/99/4
f 12/192/7 71/193/7 93/193/7 45/192/7
f 187/194/7 198/195/7 165/196/7 168/197/7
f 7/48/7 6/160/7 150/198/7 151/49/7
f 17/94/7 18/93/7 37/93/7 41/94/7
f 24/65/4 14/5/4 47/5/4 46/65/4
f 16/158/1 5/157/1 137/185/1 148/215/1
f 72/216/3 71/193/3 12/192/3 162/217/3 189/218/3 78/219/3
f 150/178/7 175/220/7 182/221/7 151/222/7
f 15/41/4 17/94/4 41/94/4 48/41/4
f 146/30/4 139/29/4 144/223/4 141/224/4
f 14/5/2 24/65/2 164/225/2 166/226/2
f 58/202/6 3/22/6 33/22/6 104/202/6
f 141/224/4 144/223/4 171/227/4 178/228/4
f 22/40/4 12/192/4 45/192/4 42/40/4
f 12/192/3 22/40/3 156/229/3 162/230/3
f 3/22/2 58/202/2 60/231/2 76/232/2 184/233/2 145/234/2
f 11/58/4 23/1/4 43/1/4 44/58/4
f 49/13/3 50/235/3 51/171/3
f 52/144/3 53/236/3 54/162/3
f 55/152/2 56/237/2 57/167/2
f 58/202/2 59/238/2 60/179/2
f 61/59/2 62/239/2 63/60/2
f 64/86/2 65/240/2 66/3/2
f 67/176/3 68/241/3 69/97/3
f 70/190/3 71/242/3 72/216/3
f 178/243/11 171/244/11 170/138/11 179/137/11
f 174/245/12 183/246/12 182/247/12 175/248/12
f 181/249/2 184/250/2 76/251/2
f 185/252/3 188/253/3 77/44/3
f 198/195/13 187/254/13 186/255/13 199/256/13
f 190/257/14 195/258/14 194/259/14 191/260/14
f 63/60/2 62/182/2 64/183/2 66/261/2 80/57/2 200/262/2 193/263/2 79/61/2
f 177/264/2 180/265/2 75/266/2
f 173/267/3 176/268/3 74/146/3
f 193/269/2 196/270/2 79/61/2
f 191/271/6 194/272/6 199/273/6 186/274/6
f 85/4/11 65/4/11 64/86/11 86/183/11
f 61/59/12 82/59/12 81/182/12 62/83/12
f 93/193/12 71/193/12 70/190/12 94/99/12
f 67/176/11 90/42/11 89/98/11 68/191/11
f 103/166/14 59/166/14 58/202/14 104/202/14
f 49/13/13 98/13/13 97/172/13 50/206/13
f 99/161/14 53/161/14 52/144/14 100/144/14
f 55/152/13 102/152/13 101/168/13 56/168/13
f 18/93/7 50/206/7 97/172/7 37/93/7
f 122/35/15 108/116/15 107/129/15 121/78/15
f 124/72/16 112/130/16 111/118/16 123/117/16
f 130/18/17 110/17/17 109/34/17 129/33/17
f 144/275/18 139/276/18 140/141/18 143/140/18
f 146/30/19 141/224/19 142/24/19 145/23/19
f 126/107/20 120/106/20 119/131/20 125/74/20
f 132/32/21 118/31/21 117/53/21 131/52/21
f 134/51/22 116/54/22 115/277/22 133/135/22
f 128/75/23 114/128/23 113/105/23 127/104/23
f 148/278/24 137/279/24 138/96/24 147/95/24
f 150/178/25 155/177/25 156/143/25 149/142/25
f 152/26/26 157/25/26 158/50/26 151/49/26
f 154/136/27 163/189/27 164/150/27 153/149/27
f 136/280/28 148/278/28 147/133/28 135/132/28
f 155/36/29 122/35/29 121/78/29 156/77/29
f 157/25/30 124/72/30 123/38/30 158/37/30
f 160/82/31 126/81/31 125/74/31 159/73/31
f 162/76/32 128/75/32 127/80/32 161/79/32
f 163/119/33 130/18/33 129/92/33 164/91/33
f 166/90/34 132/32/34 131/52/34 165/88/34
f 168/87/35 134/89/35 133/135/35 167/134/35
f 105/281/36 136/282/36 135/283/36 106/284/36
f 170/285/37 171/286/37 172/10/37 169/9/37
f 174/287/38 175/288/38 176/268/38 173/267/38
f 178/243/39 179/137/39 180/265/39 177/264/39
f 182/247/40 183/246/40 184/250/40 181/249/40
f 186/255/41 187/254/41 188/253/41 185/252/41
f 190/257/42 191/260/42 192/70/42 189/69/42
f 194/259/43 195/258/43 196/270/43 193/269/43
f 198/195/44 199/256/44 200/56/44 197/55/44
f 137/139/45 170/138/45 169/289/45 138/290/45
f 171/286/46 144/275/46 143/16/46 172/15/46
f 139/276/47 174/291/47 173/164/47 140/163/47
f 175/220/48 150/178/48 149/148/48 176/147/48
f 141/224/49 178/228/49 177/169/49 142/24/49
f 179/137/50 154/136/50 153/149/50 180/155/50
f 183/27/51 146/30/51 145/234/51 184/233/51
f 151/222/52 182/221/52 181/180/52 152/26/52
f 195/188/53 160/82/53 159/63/53 196/62/53
f 199/273/54 194/272/54 193/263/54 200/262/54
f 165/196/55 198/195/55 197/7/55 166/6/55
f 191/271/56 186/274/56 185/102/56 192/101/56
f 187/194/57 168/197/57 167/46/57 188/45/57
f 161/187/58 190/186/58 189/218/58 162/217/58
f 106/284/3 135/283/3 133/135/3 115/277/3
f 209/292/1 222/293/1 223/294/1 212/295/1 203/296/1 220/297/1 217/298/1 202/299/1
f 207/300/1 206/301/1 226/301/1 227/300/1
f 215/302/4 208/303/4 203/304/4 212/305/4
f 213/306/1 216/307/1 232/307/1 229/306/1
f 205/308/7 218/309/7 219/310/7 208/311/7 215/312/7 224/313/7 221/314/7 214/315/7
f 205/316/59 202/317/59 217/318/59 218/319/59
f 203/320/60 208/321/60 219/322/60 220/323/60
f 209/324/61 214/325/61 221/326/61 222/327/61
f 215/302/62 212/305/62 223/328/62 224/329/62
f 205/316/6 214/325/6 209/324/6 202/317/6
f 201/330/3 206/301/3 218/331/3 217/332/3
f 207/300/3 204/333/3 220/323/3 219/322/3
f 213/306/2 210/334/2 222/327/2 221/326/2
f 211/335/2 216/307/2 224/329/2 223/328/2
f 204/333/3 201/330/3 217/332/3 220/323/3
f 206/301/3 207/300/3 219/322/3 218/331/3
f 210/334/2 211/335/2 223/328/2 222/327/2
f 216/307/2 213/306/2 221/326/2 224/329/2
f 216/307/6 211/335/6 231/335/6 232/307/6
f 204/333/6 207/300/6 227/300/6 228/333/6
f 211/335/7 210/334/7 230/334/7 231/335/7
f 201/330/7 204/333/7 228/333/7 225/330/7
f 210/334/4 213/306/4 229/306/4 230/334/4
f 206/301/4 201/330/4 225/330/4 226/301/4
f 241/292/1 254/293/1 255/294/1 244/295/1 235/296/1 252/297/1 249/298/1 234/299/1
f 239/300/1 238/301/1 258/301/1 259/300/1
f 247/302/4 240/303/4 235/304/4 244/305/4
f 245/306/1 248/307/1 264/307/1 261/306/1
f 237/308/7 250/309/7 251/310/7 240/311/7 247/312/7 256/313/7 253/314/7 246/315/7
f 237/316/59 234/317/59 249/318/59 250/319/59
f 235/320/60 240/321/60 251/322/60 252/323/60
f 241/324/61 246/325/61 253/326/61 254/327/61
f 247/302/62 244/305/62 255/328/62 256/329/62
f 237/316/6 246/325/6 241/324/6 234/317/6
f 233/330/3 238/301/3 250/331/3 249/332/3
f 239/300/3 236/333/3 252/323/3 251/322/3
f 245/306/2 242/334/2 254/327/2 253/326/2
f 243/335/2 248/307/2 256/329/2 255/328/2
f 236/333/3 233/330/3 249/332/3 252/323/3
f 238/301/3 239/300/3 251/322/3 250/331/3
f 242/334/2 243/335/2 255/328/2 254/327/2
f 248/307/2 245/306/2 253/326/2 256/329/2
f 248/307/6 243/335/6 263/335/6 264/307/6
f 236/333/6 239/300/6 259/300/6 260/333/6
f 243/335/7 242/334/7 262/334/7 263/335/7
f 233/330/7 236/333/7 260/333/7 257/330/7
f 242/334/4 245/306/4 261/306/4 262/334/4
f 238/301/4 233/330/4 257/330/4 258/301/4
f 266/336/7 279/337/7 280/338/7 283/339/7 284/340/7 268/341/7
f 271/342/2 291/343/2 281/344/2 267/345/2
f 268/341/2 284/346/2 290/347/2 272/348/2
f 292/349/4 285/350/4 277/351/4 282/352/4
f 270/353/6 271/342/6 267/345/6 265/318/6
f 283/354/4 280/355/4 288/356/4 289/357/4
f 269/358/3 287/359/3 279/360/3 266/336/3
f 270/361/3 286/362/3 294/363/3 274/364/3
f 266/319/6 268/341/6 272/348/6 269/365/6
f 274/366/63 275/367/63 271/342/63 270/353/63
f 300/368/4 293/369/4 285/370/4 292/371/4
f 297/372/4 296/373/4 293/374/4 300/368/4
f 267/345/1 281/375/1 282/376/1 277/377/1 278/378/1 265/379/1
f 272/348/2 290/380/2 298/381/2 276/382/2
f 289/357/4 288/383/4 296/384/4 297/372/4
f 276/382/2 298/381/2 299/385/2 275/367/2
f 275/367/2 299/385/2 291/386/2 271/342/2
f 269/365/64 272/348/64 276/382/64 273/387/64
f 273/387/6 276/382/6 275/367/6 274/366/6
f 273/388/3 295/389/3 287/390/3 269/358/3
f 274/364/3 294/363/3 295/389/3 273/388/3
f 288/391/60 280/321/60 279/360/60 287/359/60
f 292/349/62 282/352/62 281/344/62 291/343/62
f 277/320/60 285/392/60 286/393/60 278/394/60
f 296/395/60 288/391/60 287/390/60 295/389/60
f 283/354/62 289/357/62 290/347/62 284/346/62
f 300/368/62 292/371/62 291/386/62 299/385/62
f 285/392/60 293/396/60 294/363/60 286/362/60
f 293/396/60 296/395/60 295/389/60 294/363/60
f 289/357/62 297/372/62 298/381/62 290/380/62
f 297/372/62 300/368/62 299/385/62 298/381/62
f 265/281/3 278/394/3 286/393/3 270/361/3
usemtl M_Orange
f 81/83/2 84/84/2 33/22/2 34/21/2 87/85/2 86/86/2
f 45/192/3 93/193/3 96/199/3 40/39/3 42/40/3
f 47/5/2 85/4/2 88/200/2 39/64/2 46/65/2
f 43/1/2 38/2/2 83/201/2 82/59/2 44/58/2
f 38/2/2 103/166/2 104/202/2 33/22/2 84/203/2 83/204/2
f 41/94/3 37/93/3 91/205/3 90/176/3 48/41/3
f 37/93/3 97/206/3 98/13/3 35/12/3 92/207/3 91/208/3
f 96/209/3 95/210/3 36/66/3 99/161/3 100/144/3 40/39/3
f 88/211/2 87/212/2 34/21/2 101/168/2 102/152/2 39/64/2
f 89/191/3 92/213/3 35/12/3 36/66/3 95/214/3 94/190/3
f 81/239/2 82/59/2 83/201/2 84/239/2
f 85/4/2 86/240/2 87/240/2 88/200/2
f 89/241/3 90/176/3 91/205/3 92/241/3
f 93/193/3 94/242/3 95/242/3 96/199/3
usemtl M_Cyan
f 229/306/2 232/307/2 231/335/2 230/334/2
f 225/330/3 228/333/3 227/300/3 226/301/3
f 261/306/2 264/307/2 263/335/2 262/334/2
f 257/330/3 260/333/3 259/300/3 258/301/3
