# Blender 5.1.2
# www.blender.org
mtllib SM_Circuit_Board.mtl
o SM_Circuit_Board
v -0.140926 0.007464 -0.131908
v -0.132161 0.007464 -0.140673
v 0.132161 0.007464 -0.140673
v 0.140926 0.007464 -0.131908
v -0.132161 0.007464 0.141179
v -0.140926 0.007464 0.132413
v 0.140926 0.007464 0.132413
v 0.132161 0.007464 0.141179
v 0.140926 -0.007464 -0.131908
v 0.132161 -0.007464 -0.140673
v -0.132161 -0.007464 -0.140673
v -0.140926 -0.007464 -0.131908
v 0.132161 -0.007464 0.141179
v 0.140926 -0.007464 0.132413
v -0.140926 -0.007464 0.132413
v -0.132161 -0.007464 0.141179
v -0.121262 0.007464 -0.140673
v -0.112497 0.007464 -0.131908
v 0.112497 0.007464 -0.131908
v 0.121262 0.007464 -0.140673
v -0.112497 0.007464 0.132413
v -0.121262 0.007464 0.141179
v 0.121262 0.007464 0.141179
v 0.112497 0.007464 0.132413
v 0.121262 -0.007464 -0.140673
v 0.112497 -0.007464 -0.131908
v -0.112497 -0.007464 -0.131908
v -0.121262 -0.007464 -0.140673
v 0.112497 -0.007464 0.132413
v 0.121262 -0.007464 0.141179
v -0.121262 -0.007464 0.141179
v -0.112497 -0.007464 0.132413
v -0.140926 -0.007464 -0.121009
v -0.132161 -0.007464 -0.112244
v -0.132161 -0.007464 0.112750
v -0.140926 -0.007464 0.121515
v 0.132161 -0.007464 -0.112244
v 0.140926 -0.007464 -0.121009
v 0.140926 -0.007464 0.121515
v 0.132161 -0.007464 0.112750
v 0.140926 0.007464 -0.121009
v 0.132161 0.007464 -0.112244
v 0.132161 0.007464 0.112750
v 0.140926 0.007464 0.121515
v -0.132161 0.007464 -0.112244
v -0.140926 0.007464 -0.121009
v -0.140926 0.007464 0.121515
v -0.132161 0.007464 0.112750
v 0.121262 0.007464 -0.112244
v 0.112497 0.007464 -0.121009
v 0.112497 0.007464 0.121515
v 0.121262 0.007464 0.112750
v -0.112497 0.007464 -0.121009
v -0.121262 0.007464 -0.112244
v -0.121262 0.007464 0.112750
v -0.112497 0.007464 0.121515
v -0.121262 -0.007464 -0.112244
v -0.112497 -0.007464 -0.121009
v -0.112497 -0.007464 0.121515
v -0.121262 -0.007464 0.112750
v 0.112497 -0.007464 -0.121009
v 0.121262 -0.007464 -0.112244
v 0.121262 -0.007464 0.112750
v 0.112497 -0.007464 0.121515
v 0.123699 0.008171 -0.134790
v 0.118380 0.008171 -0.129471
v 0.135043 0.008171 -0.129471
v 0.129724 0.008171 -0.134790
v 0.118380 0.008171 0.129977
v 0.123699 0.008171 0.135295
v 0.129724 0.008171 0.135295
v 0.135043 0.008171 0.129977
v -0.123699 -0.008171 -0.134790
v -0.118380 -0.008171 -0.129471
v -0.135043 -0.008171 -0.129471
v -0.129724 -0.008171 -0.134790
v -0.118380 -0.008171 0.129977
v -0.123699 -0.008171 0.135295
v -0.129724 -0.008171 0.135295
v -0.135043 -0.008171 0.129977
v -0.135043 -0.008171 0.123952
v -0.129724 -0.008171 0.118633
v 0.129724 -0.008171 0.118633
v 0.135043 -0.008171 0.123952
v 0.135043 -0.008171 0.129977
v 0.129724 -0.008171 0.135295
v 0.135043 0.008171 0.123952
v 0.129724 0.008171 0.118633
v -0.129724 0.008171 0.118633
v -0.135043 0.008171 0.123952
v -0.135043 0.008171 0.129977
v -0.129724 0.008171 0.135295
v -0.129724 0.008171 -0.134790
v -0.135043 0.008171 -0.129471
v -0.118380 0.008171 -0.129471
v -0.123699 0.008171 -0.134790
v -0.123699 0.008171 0.135295
v -0.118380 0.008171 0.129977
v 0.129724 -0.008171 -0.134790
v 0.135043 -0.008171 -0.129471
v 0.118380 -0.008171 -0.129471
v 0.123699 -0.008171 -0.134790
v 0.123699 -0.008171 0.135295
v 0.118380 -0.008171 0.129977
v 0.123699 0.008171 0.118633
v 0.118380 0.008171 0.123952
v -0.118380 0.008171 0.123952
v -0.123699 0.008171 0.118633
v -0.123699 -0.008171 0.118633
v -0.118380 -0.008171 0.123952
v 0.118380 -0.008171 0.123952
v 0.123699 -0.008171 0.118633
v -0.129724 -0.008171 -0.118128
v -0.135043 -0.008171 -0.123446
v 0.135043 -0.008171 -0.123446
v 0.129724 -0.008171 -0.118128
v 0.129724 0.008171 -0.118128
v 0.135043 0.008171 -0.123446
v -0.135043 0.008171 -0.123446
v -0.129724 0.008171 -0.118128
v 0.118380 0.008171 -0.123446
v 0.123699 0.008171 -0.118128
v -0.123699 0.008171 -0.118128
v -0.118380 0.008171 -0.123446
v -0.118380 -0.008171 -0.123446
v -0.123699 -0.008171 -0.118128
v 0.123699 -0.008171 -0.118128
v 0.118380 -0.008171 -0.123446
v -0.137062 -0.007464 0.155831
v -0.137669 -0.005998 0.157297
v -0.155831 -0.007464 0.137062
v -0.157297 -0.005998 0.137669
v -0.155831 0.007464 0.137062
v -0.157297 0.005998 0.137669
v -0.137062 0.007464 0.155831
v -0.137669 0.005998 0.157297
v -0.155831 -0.007464 -0.137062
v -0.157297 -0.005998 -0.137669
v -0.137062 -0.007464 -0.155831
v -0.137669 -0.005998 -0.157297
v -0.137062 0.007464 -0.155831
v -0.137669 0.005998 -0.157297
v -0.155831 0.007464 -0.137062
v -0.157297 0.005998 -0.137669
v 0.155831 -0.007464 0.137062
v 0.157297 -0.005998 0.137669
v 0.137062 -0.007464 0.155831
v 0.137669 -0.005998 0.157297
v 0.137062 0.007464 0.155831
v 0.137669 0.005998 0.157297
v 0.155831 0.007464 0.137062
v 0.157297 0.005998 0.137669
v 0.137062 -0.007464 -0.155831
v 0.137669 -0.005998 -0.157297
v 0.155831 -0.007464 -0.137062
v 0.157297 -0.005998 -0.137669
v 0.155831 0.007464 -0.137062
v 0.157297 0.005998 -0.137669
v 0.137062 0.007464 -0.155831
v 0.137669 0.005998 -0.157297
v 0.121262 0.008171 -0.112244
v 0.112497 0.008171 -0.121009
v 0.112497 0.008171 -0.131908
v 0.121262 0.008171 -0.140673
v -0.112497 -0.008171 -0.131908
v -0.121262 -0.008171 -0.140673
v -0.132161 -0.008171 -0.140673
v -0.140926 -0.008171 -0.131908
v -0.140926 0.008171 -0.131908
v -0.132161 0.008171 -0.140673
v -0.121262 0.008171 -0.140673
v -0.112497 0.008171 -0.131908
v 0.140926 0.008171 -0.121009
v 0.132161 0.008171 -0.112244
v 0.112497 0.008171 0.121515
v 0.121262 0.008171 0.112750
v 0.132161 0.008171 0.112750
v 0.140926 0.008171 0.121515
v -0.112497 0.008171 -0.121009
v -0.121262 0.008171 -0.112244
v -0.140926 -0.008171 0.132413
v -0.132161 -0.008171 0.141179
v -0.121262 -0.008171 0.141179
v -0.112497 -0.008171 0.132413
v -0.112497 0.008171 0.132413
v -0.121262 0.008171 0.141179
v -0.132161 0.008171 0.141179
v -0.140926 0.008171 0.132413
v -0.132161 0.008171 -0.112244
v -0.140926 0.008171 -0.121009
v -0.132161 -0.008171 0.112750
v -0.140926 -0.008171 0.121515
v -0.140926 0.008171 0.121515
v -0.132161 0.008171 0.112750
v -0.121262 0.008171 0.112750
v -0.112497 0.008171 0.121515
v -0.121262 -0.008171 -0.112244
v -0.112497 -0.008171 -0.121009
v 0.132161 -0.008171 0.141179
v 0.140926 -0.008171 0.132413
v 0.140926 -0.008171 0.121515
v 0.132161 -0.008171 0.112750
v 0.140926 -0.008171 -0.131908
v 0.132161 -0.008171 -0.140673
v 0.121262 -0.008171 -0.140673
v 0.112497 -0.008171 -0.131908
v 0.121262 0.008171 0.141179
v 0.112497 0.008171 0.132413
v -0.140926 -0.008171 -0.121009
v -0.132161 -0.008171 -0.112244
v 0.112497 -0.008171 -0.121009
v 0.121262 -0.008171 -0.112244
v 0.112497 -0.008171 0.132413
v 0.121262 -0.008171 0.141179
v 0.132161 -0.008171 -0.112244
v 0.140926 -0.008171 -0.121009
v 0.140926 0.008171 0.132413
v 0.132161 0.008171 0.141179
v 0.121262 -0.008171 0.112750
v 0.112497 -0.008171 0.121515
v -0.112497 -0.008171 0.121515
v -0.121262 -0.008171 0.112750
v 0.132161 0.008171 -0.140673
v 0.140926 0.008171 -0.131908
v -0.108815 0.007464 -0.094278
v -0.108815 0.007464 0.046009
v -0.152267 0.007464 0.046009
v -0.152267 0.007464 -0.094278
v -0.152267 0.043642 -0.024134
v -0.134571 0.007464 -0.088075
v -0.152267 0.037692 0.046009
v -0.152267 0.037692 -0.094278
v -0.152267 0.007464 0.039807
v -0.152267 0.007464 -0.088075
v -0.134571 0.007464 0.039807
v -0.134571 0.024737 -0.088075
v -0.134571 0.020419 -0.088075
v -0.134571 0.020419 0.039807
v -0.134571 0.024737 0.039807
v -0.134571 0.007464 -0.069806
v -0.134571 0.007464 -0.051538
v -0.134571 0.007464 -0.033269
v -0.134571 0.007464 -0.015000
v -0.134571 0.007464 0.003269
v -0.134571 0.007464 0.021538
v -0.134571 0.037692 -0.069806
v -0.134571 0.037692 -0.051538
v -0.134571 0.037692 -0.033269
v -0.134571 0.037692 -0.015000
v -0.134571 0.037692 0.003269
v -0.134571 0.037692 0.021538
v -0.155572 0.019835 -0.073684
v -0.155572 0.019678 -0.065929
v -0.155572 0.019678 -0.055415
v -0.155572 0.019678 -0.047660
v -0.155572 0.019678 -0.037146
v -0.155572 0.019678 -0.029392
v -0.155572 0.019678 -0.018877
v -0.155572 0.019678 -0.011123
v -0.155572 0.019678 -0.000608
v -0.155572 0.019678 0.007146
v -0.155572 0.019678 0.017661
v -0.155572 0.019835 0.025415
v -0.134571 0.019835 0.025415
v -0.134571 0.019678 0.017661
v -0.134571 0.015800 0.021538
v -0.134571 0.019678 0.007146
v -0.134571 0.019678 -0.000608
v -0.134571 0.015800 0.003269
v -0.134571 0.019678 -0.011123
v -0.134571 0.019678 -0.018877
v -0.134571 0.015800 -0.015000
v -0.134571 0.019678 -0.029392
v -0.134571 0.019678 -0.037146
v -0.134571 0.015800 -0.033269
v -0.134571 0.019678 -0.047660
v -0.134571 0.019678 -0.055415
v -0.134571 0.015800 -0.051538
v -0.134571 0.019678 -0.065929
v -0.134571 0.019835 -0.073684
v -0.134571 0.015800 -0.069806
v -0.134571 0.025479 0.017661
v -0.134571 0.025321 0.025415
v -0.134571 0.029356 0.021538
v -0.134571 0.025479 -0.000608
v -0.134571 0.025479 0.007146
v -0.134571 0.029356 0.003269
v -0.134571 0.025479 -0.018877
v -0.134571 0.025479 -0.011123
v -0.134571 0.029356 -0.015000
v -0.134571 0.025479 -0.037146
v -0.134571 0.025479 -0.029392
v -0.134571 0.029356 -0.033269
v -0.134571 0.025479 -0.055415
v -0.134571 0.025479 -0.047660
v -0.134571 0.029356 -0.051538
v -0.134571 0.025321 -0.073684
v -0.134571 0.025479 -0.065929
v -0.134571 0.029356 -0.069806
v -0.155572 0.025479 0.017661
v -0.155572 0.025321 0.025415
v -0.155572 0.025479 -0.000608
v -0.155572 0.025479 0.007146
v -0.155572 0.025479 -0.018877
v -0.155572 0.025479 -0.011123
v -0.155572 0.025479 -0.037146
v -0.155572 0.025479 -0.029392
v -0.155572 0.025479 -0.055415
v -0.155572 0.025479 -0.047660
v -0.155572 0.025321 -0.073684
v -0.155572 0.025479 -0.065929
v -0.108815 0.037925 -0.094278
v -0.108815 0.043642 -0.088561
v -0.108815 0.043642 0.040292
v -0.108815 0.037925 0.046009
v -0.152267 0.043642 -0.088561
v -0.152267 0.037925 -0.094278
v -0.152267 0.037925 0.046009
v -0.152267 0.043642 0.040292
v -0.134571 0.031975 0.039807
v -0.134571 0.037692 0.034090
v -0.152267 0.031975 -0.088075
v -0.152267 0.037692 -0.082359
v -0.152267 0.037692 -0.093792
v -0.152267 0.037692 0.034090
v -0.152267 0.031975 0.039807
v -0.152267 0.037692 0.045523
v -0.134571 0.037692 -0.082359
v -0.134571 0.031975 -0.088075
v 0.054711 0.019600 0.054963
v -0.054711 0.019600 0.054963
v -0.054711 0.019600 -0.054458
v 0.054711 0.019600 -0.054458
v -0.108815 0.043642 0.000253
v 0.005153 0.007464 -0.145807
v -0.054711 0.007464 -0.054458
v -0.054711 0.007464 0.054963
v 0.054711 0.007464 0.054963
v 0.054711 0.007464 -0.054458
v -0.108815 0.031077 -0.094278
v 0.054711 0.017867 -0.054458
v -0.054711 0.017867 -0.054458
v -0.054711 0.017867 0.054963
v 0.054711 0.017867 0.054963
v -0.108815 0.031077 0.046009
v -0.108815 0.037925 -0.024134
v -0.112497 0.008171 0.121719
v -0.121100 0.008171 0.112912
v 0.035368 0.007464 -0.054458
v 0.042790 0.007464 -0.054458
v 0.019737 0.007464 -0.054458
v 0.027158 0.007464 -0.054458
v 0.004105 0.007464 -0.054458
v 0.011527 0.007464 -0.054458
v -0.011527 0.007464 -0.054458
v -0.004105 0.007464 -0.054458
v -0.027158 0.007464 -0.054458
v -0.019737 0.007464 -0.054458
v -0.042790 0.007464 -0.054458
v -0.035368 0.007464 -0.054458
v -0.054711 0.007464 -0.035115
v -0.054711 0.007464 -0.042537
v -0.054711 0.007464 -0.019484
v -0.054711 0.007464 -0.026905
v -0.054711 0.007464 -0.003852
v -0.054711 0.007464 -0.011274
v -0.054711 0.007464 0.011779
v -0.054711 0.007464 0.004358
v -0.054711 0.007464 0.027411
v -0.054711 0.007464 0.019989
v -0.054711 0.007464 0.043043
v -0.054711 0.007464 0.035621
v -0.035368 0.007464 0.054963
v -0.042790 0.007464 0.054963
v -0.019737 0.007464 0.054963
v -0.027158 0.007464 0.054963
v -0.004105 0.007464 0.054963
v -0.011527 0.007464 0.054963
v 0.011527 0.007464 0.054963
v 0.004105 0.007464 0.054963
v 0.027158 0.007464 0.054963
v 0.019737 0.007464 0.054963
v 0.042790 0.007464 0.054963
v 0.035368 0.007464 0.054963
v 0.054711 0.007464 0.035621
v 0.054711 0.007464 0.043043
v 0.054711 0.007464 0.019989
v 0.054711 0.007464 0.027411
v 0.054711 0.007464 0.004358
v 0.054711 0.007464 0.011779
v 0.054711 0.007464 -0.011274
v 0.054711 0.007464 -0.003852
v 0.054711 0.007464 -0.026905
v 0.054711 0.007464 -0.019484
v 0.054711 0.007464 -0.042537
v 0.054711 0.007464 -0.035115
v -0.042790 0.017867 0.054963
v -0.035368 0.017867 0.054963
v -0.027158 0.017867 0.054963
v -0.019737 0.017867 0.054963
v -0.011527 0.017867 0.054963
v -0.004105 0.017867 0.054963
v 0.004105 0.017867 0.054963
v 0.011527 0.017867 0.054963
v 0.019737 0.017867 0.054963
v 0.027158 0.017867 0.054963
v 0.035368 0.017867 0.054963
v 0.042790 0.017867 0.054963
v 0.054711 0.017867 0.043043
v 0.054711 0.017867 0.035621
v 0.054711 0.017867 0.027411
v 0.054711 0.017867 0.019989
v 0.054711 0.017867 0.011779
v 0.054711 0.017867 0.004358
v 0.054711 0.017867 -0.003852
v 0.054711 0.017867 -0.011274
v 0.054711 0.017867 -0.019484
v 0.054711 0.017867 -0.026905
v 0.054711 0.017867 -0.035115
v 0.054711 0.017867 -0.042537
v -0.054711 0.017867 -0.042537
v -0.054711 0.017867 -0.035115
v -0.054711 0.017867 -0.026905
v -0.054711 0.017867 -0.019484
v -0.054711 0.017867 -0.011274
v -0.054711 0.017867 -0.003852
v -0.054711 0.017867 0.004358
v -0.054711 0.017867 0.011779
v -0.054711 0.017867 0.019989
v -0.054711 0.017867 0.027411
v -0.054711 0.017867 0.035621
v -0.054711 0.017867 0.043043
v 0.042790 0.017867 -0.054458
v 0.035368 0.017867 -0.054458
v 0.027158 0.017867 -0.054458
v 0.019737 0.017867 -0.054458
v 0.011527 0.017867 -0.054458
v 0.004105 0.017867 -0.054458
v -0.004105 0.017867 -0.054458
v -0.011527 0.017867 -0.054458
v -0.019737 0.017867 -0.054458
v -0.027158 0.017867 -0.054458
v -0.035368 0.017867 -0.054458
v -0.042790 0.017867 -0.054458
v -0.042790 0.007464 0.062253
v -0.035368 0.007464 0.062253
v -0.027158 0.007464 0.062253
v -0.019737 0.007464 0.062253
v -0.011527 0.007464 0.062253
v -0.004105 0.007464 0.062253
v 0.004105 0.007464 0.062253
v 0.011527 0.007464 0.062253
v 0.019737 0.007464 0.062253
v 0.027158 0.007464 0.062253
v 0.035368 0.007464 0.062253
v 0.042790 0.007464 0.062253
v 0.062000 0.007464 0.043043
v 0.062000 0.007464 0.035621
v 0.062000 0.007464 0.027411
v 0.062000 0.007464 0.019989
v 0.062000 0.007464 0.011779
v 0.062000 0.007464 0.004358
v 0.062000 0.007464 -0.003852
v 0.062000 0.007464 -0.011274
v 0.062000 0.007464 -0.019484
v 0.062000 0.007464 -0.026905
v 0.062000 0.007464 -0.035115
v 0.062000 0.007464 -0.042537
v -0.062000 0.007464 -0.042537
v -0.062000 0.007464 -0.035115
v -0.062000 0.007464 -0.026905
v -0.062000 0.007464 -0.019484
v -0.062000 0.007464 -0.011274
v -0.062000 0.007464 -0.003852
v -0.062000 0.007464 0.004358
v -0.062000 0.007464 0.011779
v -0.062000 0.007464 0.019989
v -0.062000 0.007464 0.027411
v -0.062000 0.007464 0.035621
v -0.062000 0.007464 0.043043
v 0.042790 0.007464 -0.061747
v 0.035368 0.007464 -0.061747
v 0.027158 0.007464 -0.061747
v 0.019737 0.007464 -0.061747
v 0.011527 0.007464 -0.061747
v 0.004105 0.007464 -0.061747
v -0.004105 0.007464 -0.061747
v -0.011527 0.007464 -0.061747
v -0.019737 0.007464 -0.061747
v -0.027158 0.007464 -0.061747
v -0.035368 0.007464 -0.061747
v -0.042790 0.007464 -0.061747
v -0.042790 0.012734 0.062253
v -0.042790 0.017867 0.057119
v -0.035368 0.017867 0.057119
v -0.035368 0.012734 0.062253
v -0.027158 0.012734 0.062253
v -0.027158 0.017867 0.057119
v -0.019737 0.017867 0.057119
v -0.019737 0.012734 0.062253
v -0.011527 0.012734 0.062253
v -0.011527 0.017867 0.057119
v -0.004105 0.017867 0.057119
v -0.004105 0.012734 0.062253
v 0.004105 0.012734 0.062253
v 0.004105 0.017867 0.057119
v 0.011527 0.017867 0.057119
v 0.011527 0.012734 0.062253
v 0.019737 0.012734 0.062253
v 0.019737 0.017867 0.057119
v 0.027158 0.017867 0.057119
v 0.027158 0.012734 0.062253
v 0.035368 0.012734 0.062253
v 0.035368 0.017867 0.057119
v 0.042790 0.017867 0.057119
v 0.042790 0.012734 0.062253
v 0.062000 0.012734 0.043043
v 0.056867 0.017867 0.043043
v 0.056867 0.017867 0.035621
v 0.062000 0.012734 0.035621
v 0.062000 0.012734 0.027411
v 0.056867 0.017867 0.027411
v 0.056867 0.017867 0.019989
v 0.062000 0.012734 0.019989
v 0.062000 0.012734 0.011779
v 0.056867 0.017867 0.011779
v 0.056867 0.017867 0.004358
v 0.062000 0.012734 0.004358
v 0.062000 0.012734 -0.003852
v 0.056867 0.017867 -0.003852
v 0.056867 0.017867 -0.011274
v 0.062000 0.012734 -0.011274
v 0.062000 0.012734 -0.019484
v 0.056867 0.017867 -0.019484
v 0.056867 0.017867 -0.026905
v 0.062000 0.012734 -0.026905
v 0.062000 0.012734 -0.035115
v 0.056867 0.017867 -0.035115
v 0.056867 0.017867 -0.042537
v 0.062000 0.012734 -0.042537
v -0.062000 0.012734 -0.042537
v -0.056866 0.017867 -0.042537
v -0.056866 0.017867 -0.035115
v -0.062000 0.012734 -0.035115
v -0.062000 0.012734 -0.026905
v -0.056866 0.017867 -0.026905
v -0.056866 0.017867 -0.019484
v -0.062000 0.012734 -0.019484
v -0.062000 0.012734 -0.011274
v -0.056866 0.017867 -0.011274
v -0.056866 0.017867 -0.003852
v -0.062000 0.012734 -0.003852
v -0.062000 0.012734 0.004358
v -0.056866 0.017867 0.004358
v -0.056866 0.017867 0.011779
v -0.062000 0.012734 0.011779
v -0.062000 0.012734 0.019989
v -0.056866 0.017867 0.019989
v -0.056866 0.017867 0.027411
v -0.062000 0.012734 0.027411
v -0.062000 0.012734 0.035621
v -0.056866 0.017867 0.035621
v -0.056866 0.017867 0.043043
v -0.062000 0.012734 0.043043
v 0.042790 0.012734 -0.061747
v 0.042790 0.017867 -0.056614
v 0.035368 0.017867 -0.056614
v 0.035368 0.012734 -0.061747
v 0.027158 0.012734 -0.061747
v 0.027158 0.017867 -0.056614
v 0.019737 0.017867 -0.056614
v 0.019737 0.012734 -0.061747
v 0.011527 0.012734 -0.061747
v 0.011527 0.017867 -0.056614
v 0.004105 0.017867 -0.056614
v 0.004105 0.012734 -0.061747
v -0.004105 0.012734 -0.061747
v -0.004105 0.017867 -0.056614
v -0.011527 0.017867 -0.056614
v -0.011527 0.012734 -0.061747
v -0.019737 0.012734 -0.061747
v -0.019737 0.017867 -0.056614
v -0.027158 0.017867 -0.056614
v -0.027158 0.012734 -0.061747
v -0.035368 0.012734 -0.061747
v -0.035368 0.017867 -0.056614
v -0.042790 0.017867 -0.056614
v -0.042790 0.012734 -0.061747
v -0.108815 0.031077 0.034417
v -0.108815 0.031077 -0.082686
v 0.005153 0.007464 -0.115286
v -0.108815 0.007464 -0.082686
v -0.108815 0.007464 0.034417
v -0.097565 0.007464 0.034417
v -0.097565 0.007464 -0.082686
v -0.106128 0.031077 -0.082686
v -0.097565 0.022514 -0.082686
v -0.097565 0.022514 0.034417
v -0.106128 0.031077 0.034417
v 0.085960 0.007464 -0.115286
v -0.092879 0.007464 -0.121009
v -0.092879 0.007464 -0.140673
v 0.085960 0.007464 -0.145807
v 0.085960 0.015789 -0.115286
v 0.085960 0.015789 -0.145807
v 0.005153 0.015789 -0.145807
v 0.005153 0.015789 -0.115286
v -0.033283 0.007464 -0.107857
v -0.047524 0.007464 -0.107857
v -0.047524 0.007464 -0.146840
v -0.033283 0.007464 -0.146840
v -0.059520 0.007464 -0.107857
v -0.073762 0.007464 -0.107857
v -0.073762 0.007464 -0.146840
v -0.059520 0.007464 -0.146840
v -0.033283 0.031343 -0.146840
v -0.047524 0.031343 -0.146840
v -0.047524 0.031343 -0.107857
v -0.033283 0.031343 -0.107857
v -0.059520 0.031343 -0.146840
v -0.073762 0.031343 -0.146840
v -0.073762 0.031343 -0.107857
v -0.059520 0.031343 -0.107857
v 0.085960 0.015789 -0.126231
v 0.085960 0.015789 -0.134863
v 0.005153 0.015789 -0.134863
v 0.005153 0.015789 -0.126231
v 0.005153 0.015789 -0.120135
v 0.085960 0.015789 -0.120135
v 0.071634 0.015789 -0.145807
v 0.054249 0.015789 -0.145807
v 0.036864 0.015789 -0.145807
v 0.019479 0.015789 -0.145807
v 0.016991 0.019549 -0.128976
v 0.021968 0.019549 -0.128976
v 0.034376 0.019549 -0.128976
v 0.039353 0.019549 -0.128976
v 0.051760 0.019549 -0.128976
v 0.056738 0.019549 -0.128976
v 0.069145 0.019549 -0.128976
v 0.074123 0.019549 -0.128976
v 0.076868 0.015789 -0.126231
v 0.066400 0.015789 -0.126231
v 0.081414 0.015789 -0.134863
v 0.059483 0.015789 -0.126231
v 0.049015 0.015789 -0.126231
v 0.081414 0.015789 -0.126231
v 0.042098 0.015789 -0.126231
v 0.031631 0.015789 -0.126231
v 0.009700 0.015789 -0.145807
v 0.024713 0.015789 -0.126231
v 0.014246 0.015789 -0.126231
v 0.009700 0.015789 -0.120135
v 0.066400 0.015789 -0.134863
v 0.076868 0.015789 -0.134863
v 0.071634 0.015789 -0.140096
v 0.049015 0.015789 -0.134863
v 0.059483 0.015789 -0.134863
v 0.054249 0.015789 -0.140096
v 0.031631 0.015789 -0.134863
v 0.042098 0.015789 -0.134863
v 0.036864 0.015789 -0.140096
v 0.014246 0.015789 -0.134863
v 0.024713 0.015789 -0.134863
v 0.019479 0.015789 -0.140096
v 0.069145 0.019549 -0.132118
v 0.074123 0.019549 -0.132118
v 0.051760 0.019549 -0.132118
v 0.056738 0.019549 -0.132118
v 0.034376 0.019549 -0.132118
v 0.039353 0.019549 -0.132118
v 0.016991 0.019549 -0.132118
v 0.021968 0.019549 -0.132118
v 0.059483 0.018297 -0.126231
v 0.059483 0.018297 -0.134863
v 0.014246 0.018297 -0.134863
v 0.014246 0.018297 -0.126231
v 0.049015 0.018297 -0.126231
v 0.066400 0.018297 -0.134863
v 0.066400 0.018297 -0.126231
v 0.024713 0.018297 -0.134863
v 0.049015 0.018297 -0.134863
v 0.024713 0.018297 -0.126231
v 0.042098 0.018297 -0.126231
v 0.042098 0.018297 -0.134863
v 0.031631 0.018297 -0.134863
v 0.031631 0.018297 -0.126231
v 0.076868 0.018297 -0.126231
v 0.076868 0.018297 -0.134863
v 0.056738 0.040829 -0.128976
v 0.056738 0.040829 -0.132118
v 0.016991 0.040829 -0.132118
v 0.016991 0.040829 -0.128976
v 0.051760 0.040829 -0.128976
v 0.069145 0.040829 -0.132118
v 0.069145 0.040829 -0.128976
v 0.021968 0.040829 -0.132118
v 0.051760 0.040829 -0.132118
v 0.021968 0.040829 -0.128976
v 0.039353 0.040829 -0.128976
v 0.039353 0.040829 -0.132118
v 0.034376 0.040829 -0.132118
v 0.034376 0.040829 -0.128976
v 0.074123 0.040829 -0.128976
v 0.074123 0.040829 -0.132118
v 0.009700 0.015789 -0.126231
v 0.009700 0.015789 -0.134863
v 0.081414 0.015789 -0.145807
v 0.081414 0.015789 -0.120135
v 0.085960 0.022488 -0.115286
v 0.085960 0.022488 -0.120135
v 0.085960 0.022488 -0.126231
v 0.081414 0.022488 -0.120135
v 0.009700 0.022488 -0.120135
v 0.085960 0.022488 -0.134863
v 0.005153 0.022488 -0.134863
v 0.009700 0.022488 -0.126231
v 0.005153 0.022488 -0.120135
v 0.005153 0.022488 -0.115286
v 0.005153 0.022488 -0.126231
v 0.009700 0.022488 -0.134863
v 0.081414 0.022488 -0.126231
v 0.081414 0.022488 -0.134863
v 0.009700 0.016640 -0.145807
v 0.009700 0.022488 -0.139960
v 0.005153 0.022488 -0.139960
v 0.005153 0.016640 -0.145807
v 0.085960 0.016640 -0.145807
v 0.085960 0.022488 -0.139960
v 0.081414 0.022488 -0.139960
v 0.081414 0.016640 -0.145807
v 0.140926 0.007464 -0.094250
v 0.140926 0.007464 0.094756
v 0.121262 0.007464 0.094756
v 0.121262 0.007464 -0.094250
v 0.146191 0.020574 -0.044155
v 0.115603 0.007464 -0.044155
v 0.115603 0.007464 -0.068744
v 0.115603 0.007464 -0.006353
v 0.115603 0.007464 -0.030942
v 0.146191 0.007464 -0.030942
v 0.146191 0.007464 -0.006353
v 0.146191 0.007464 -0.068744
v 0.146191 0.007464 -0.044155
v 0.104166 0.007464 0.027960
v 0.104166 0.007464 0.010347
v 0.151155 0.007464 0.010347
v 0.151155 0.007464 0.027960
v 0.108842 0.007464 0.085207
v 0.108842 0.007464 0.045805
v 0.141694 0.007464 0.045805
v 0.141694 0.007464 0.085207
v 0.146191 0.020574 -0.068744
v 0.146191 0.020574 -0.006353
v 0.146191 0.020574 -0.030942
v 0.115603 0.020574 -0.068744
v 0.115603 0.020574 -0.044155
v 0.115603 0.020574 -0.030942
v 0.115603 0.020574 -0.006353
v 0.151155 0.031993 0.027960
v 0.151155 0.031993 0.010347
v 0.104166 0.031993 0.010347
v 0.104166 0.031993 0.027960
v 0.141694 0.017567 0.085207
v 0.141694 0.017567 0.045805
v 0.108842 0.017567 0.045805
v 0.108842 0.017567 0.085207
v 0.088651 0.007464 0.141179
v -0.088651 0.007464 0.141179
v -0.088651 0.007464 0.121515
v 0.088651 0.007464 0.121515
v 0.047963 0.007464 0.105872
v 0.063007 0.007464 0.105872
v 0.014511 0.007464 0.105872
v 0.029555 0.007464 0.105872
v 0.029555 0.007464 0.148214
v 0.014511 0.007464 0.148214
v 0.063007 0.007464 0.148214
v 0.047963 0.007464 0.148214
v -0.010940 0.007464 0.139979
v -0.069347 0.007464 0.139979
v -0.069347 0.007464 0.091461
v -0.010940 0.007464 0.091461
v 0.014511 0.036599 0.148214
v 0.029555 0.036599 0.148214
v 0.047963 0.036599 0.148214
v 0.063007 0.036599 0.148214
v 0.029555 0.036599 0.105872
v 0.014511 0.036599 0.105872
v 0.063007 0.036599 0.105872
v 0.047963 0.036599 0.105872
v -0.010940 0.015812 0.091461
v -0.069347 0.015812 0.091461
v -0.069347 0.015812 0.139979
v -0.010940 0.015812 0.139979
v -0.062000 0.007464 -0.041524
v -0.062000 0.007464 -0.020895
v -0.061064 0.007464 -0.026905
v -0.060931 0.007464 -0.019484
v -0.059804 0.007464 -0.011274
v -0.059814 0.007464 -0.003852
v -0.058961 0.007464 0.004358
v -0.059037 0.007464 0.011779
v -0.058358 0.007464 0.019989
v -0.058465 0.007464 0.027411
v -0.062000 0.007464 0.041881
v -0.060661 0.007464 -0.005215
v -0.057141 0.007464 0.022465
v -0.057395 0.007464 0.007092
v -0.061396 0.007464 -0.020098
v -0.058105 0.007464 -0.023449
v -0.058622 0.007464 -0.038554
v -0.061013 0.007464 0.042038
v -0.057709 0.007464 -0.008221
v -0.060071 0.007464 0.009816
v -0.059588 0.007464 0.024956
v 0.018100 0.007464 -0.054458
v 0.013727 0.007464 -0.054458
v 0.053861 0.007464 -0.115286
v 0.058233 0.007464 -0.115286
v 0.058233 0.007464 -0.085386
v 0.053861 0.007464 -0.089758
v 0.018100 0.007464 -0.085386
v 0.013727 0.007464 -0.089758
v -0.029157 0.007464 -0.054458
v -0.033530 0.007464 -0.054458
v 0.035522 0.007464 -0.115286
v 0.039894 0.007464 -0.115286
v 0.039894 0.007464 -0.097254
v 0.035522 0.007464 -0.101626
v -0.029157 0.007464 -0.097254
v -0.033530 0.007464 -0.101626
v -0.071038 0.007464 -0.017678
v -0.075410 0.007464 -0.013306
v -0.075407 0.007464 -0.057284
v -0.071034 0.007464 -0.061657
v -0.054711 0.007464 -0.017677
v -0.054711 0.007464 -0.013305
v -0.097565 0.007464 -0.057282
v -0.097565 0.007464 -0.061654
v -0.086309 0.007464 0.019443
v -0.081936 0.007464 0.015071
v -0.086309 0.007464 -0.031718
v -0.081937 0.007464 -0.036091
v -0.054711 0.007464 0.015071
v -0.054711 0.007464 0.019443
v -0.097565 0.007464 -0.031719
v -0.097565 0.007464 -0.036091
v -0.078035 0.007464 0.081494
v -0.073827 0.007464 0.076979
v -0.097565 0.007464 0.031117
v -0.097565 0.007464 0.026744
v -0.073826 0.007464 0.026744
v -0.078040 0.007464 0.031117
v 0.021421 0.007464 0.076976
v 0.019235 0.007464 0.081486
v 0.023607 0.007464 0.081485
v 0.023607 0.007464 0.105872
v 0.019235 0.007464 0.105872
v 0.058370 0.007464 0.105872
v 0.053997 0.007464 0.105872
v 0.039889 0.007464 0.077111
v 0.038494 0.007464 0.081484
v 0.058366 0.007464 0.090239
v 0.053994 0.007464 0.092497
v 0.072178 0.007464 -0.115286
v 0.076550 0.007464 -0.115286
v 0.072178 0.007464 -0.074575
v 0.076550 0.007464 -0.079610
v 0.115603 0.007464 -0.060970
v 0.115603 0.007464 -0.056597
v 0.076550 0.007464 -0.073421
v 0.072178 0.007464 -0.069625
v 0.076557 0.007464 -0.061007
v 0.072185 0.007464 -0.056639
v 0.054711 0.007464 0.018862
v 0.054711 0.007464 0.014490
v 0.115603 0.007464 -0.021340
v 0.115603 0.007464 -0.016967
v 0.080801 0.007464 -0.016979
v 0.076427 0.007464 -0.021353
v 0.080813 0.007464 0.018853
v 0.076439 0.007464 0.014482
v 0.104166 0.007464 0.016792
v 0.104166 0.007464 0.021164
v 0.108842 0.007464 0.064361
v 0.108842 0.007464 0.068733
v 0.095052 0.007464 0.021164
v 0.090679 0.007464 0.016792
v 0.095057 0.007464 0.064367
v 0.090685 0.007464 0.068742
v 0.054711 0.007464 0.033240
v 0.054711 0.007464 0.028867
v 0.090681 0.007464 0.033240
v 0.095053 0.007464 0.031053
v 0.090680 0.007464 0.028867
vn -0.0000 -1.0000 -0.0000
vn -0.0000 -0.0000 -1.0000
vn -0.0000 1.0000 -0.0000
vn -0.7071 -0.0000 0.7071
vn -0.7071 -0.0000 -0.7071
vn 0.7071 -0.0000 -0.7071
vn 0.7071 -0.0000 0.7071
vn -1.0000 -0.0000 -0.0000
vn 1.0000 -0.0000 -0.0000
vn -0.0000 -0.0000 1.0000
vn -0.0000 -0.7071 -0.7071
vn -0.0000 0.7071 -0.7071
vn -0.0000 -0.7071 0.7071
vn -0.0000 0.7071 0.7071
vn -0.7071 -0.7071 -0.0000
vn -0.7071 0.7071 -0.0000
vn 0.7071 -0.7071 -0.0000
vn 0.7071 0.7071 -0.0000
vn -0.5000 -0.7071 0.5000
vn -0.5000 0.7071 0.5000
vn -0.5000 0.7071 -0.5000
vn -0.5000 -0.7071 -0.5000
vn 0.5000 0.7071 -0.5000
vn 0.5000 -0.7071 -0.5000
vn 0.5000 0.7071 0.5000
vn 0.5000 -0.7071 0.5000
vn -0.0000 0.9998 -0.0203
vn -0.0000 0.9998 0.0203
vn -0.0000 -0.9998 0.0203
vn -0.0000 -0.9998 -0.0203
vn 0.4151 0.9098 -0.0000
vn -0.4151 0.9098 -0.0000
vn -0.0000 0.9098 0.4151
vn -0.0000 0.9098 -0.4151
vt 0.131297 0.683561
vt 0.208333 0.658303
vt 0.214757 0.666868
vt 0.190965 0.743649
vt 0.236111 0.604889
vt 0.263889 0.602747
vt 0.270312 0.611312
vt 0.272453 0.639090
vt 0.263889 0.645513
vt 0.236111 0.647654
vt 0.229688 0.639090
vt 0.227547 0.611312
vt 0.236111 0.592099
vt 0.263889 0.589958
vt 0.236111 0.660444
vt 0.263889 0.658303
vt 0.270312 0.666868
vt 0.227547 0.666868
vt 0.734693 0.583534
vt 0.748942 0.583534
vt 0.748037 0.583534
vt 0.746092 0.583534
vt 0.743242 0.583534
vt 0.740392 0.583534
vt 0.737543 0.583534
vt 0.735597 0.583534
vt 0.630306 0.684552
vt 0.708333 0.658303
vt 0.714757 0.666868
vt 0.655550 0.780633
vt 0.708333 0.589958
vt 0.630250 0.564438
vt 0.655444 0.469200
vt 0.716898 0.583534
vt 0.727547 0.611312
vt 0.727546 0.611312
vt 0.736111 0.602748
vt 0.736111 0.604889
vt 0.727546 0.583534
vt 0.729688 0.583534
vt 0.736111 0.592099
vt 0.736111 0.592099
vt 0.236111 0.592099
vt 0.227547 0.583534
vt 0.229688 0.583534
vt 0.208333 0.592099
vt 0.208333 0.589958
vt 0.216898 0.583534
vt 0.216898 0.583534
vt 0.791667 0.592099
vt 0.791667 0.592099
vt 0.783102 0.583534
vt 0.785243 0.583534
vt 0.763889 0.592099
vt 0.763889 0.589958
vt 0.772453 0.583534
vt 0.772453 0.583534
vt 0.708333 0.602747
vt 0.708333 0.602748
vt 0.716898 0.611312
vt 0.714757 0.611312
vt 0.708333 0.647654
vt 0.708333 0.645513
vt 0.716898 0.639090
vt 0.716898 0.639090
vt 0.772453 0.611312
vt 0.770312 0.611312
vt 0.763889 0.602747
vt 0.763889 0.602748
vt 0.208333 0.658303
vt 0.216898 0.666868
vt 0.236111 0.658303
vt 0.763889 0.658303
vt 0.772453 0.666868
vt 0.770312 0.666868
vt 0.791667 0.658303
vt 0.791667 0.660444
vt 0.783102 0.666868
vt 0.783102 0.666868
vt 0.791667 0.602748
vt 0.791667 0.604889
vt 0.783102 0.611312
vt 0.783102 0.611312
vt 0.216898 0.639090
vt 0.216898 0.639090
vt 0.208333 0.647654
vt 0.208333 0.645513
vt 0.791667 0.647654
vt 0.791667 0.647654
vt 0.783102 0.639090
vt 0.785243 0.639090
vt 0.763889 0.647654
vt 0.763889 0.645513
vt 0.772453 0.639090
vt 0.772295 0.639248
vt 0.227547 0.611312
vt 0.236111 0.602748
vt 0.283102 0.666868
vt 0.291667 0.658303
vt 0.291667 0.660444
vt 0.283102 0.639090
vt 0.285243 0.639090
vt 0.291667 0.647654
vt 0.291667 0.647654
vt 0.291667 0.592099
vt 0.291667 0.592099
vt 0.283102 0.583534
vt 0.285243 0.583534
vt 0.263889 0.592099
vt 0.272453 0.583534
vt 0.727547 0.666868
vt 0.736111 0.658303
vt 0.736111 0.660444
vt 0.216898 0.611312
vt 0.214757 0.611312
vt 0.208333 0.602747
vt 0.208333 0.602748
vt 0.272453 0.611312
vt 0.263889 0.602748
vt 0.272453 0.666868
vt 0.291667 0.602748
vt 0.291667 0.604889
vt 0.283102 0.611312
vt 0.716898 0.666868
vt 0.708333 0.658303
vt 0.263889 0.647654
vt 0.227547 0.639090
vt 0.708333 0.592099
vt 0.763889 0.647854
vt 0.736111 0.647654
vt 0.729688 0.639090
vt 0.727547 0.639090
vt 0.772453 0.639090
vt 0.269637 0.594480
vt 0.274835 0.589283
vt 0.725165 0.589283
vt 0.730362 0.594480
vt 0.280721 0.644839
vt 0.285918 0.650036
vt 0.714082 0.650036
vt 0.719279 0.644839
vt 0.780721 0.589283
vt 0.785918 0.594480
vt 0.214082 0.594480
vt 0.219279 0.589283
vt 0.774835 0.661119
vt 0.769637 0.655922
vt 0.230363 0.655922
vt 0.225165 0.661119
vt 0.274835 0.644838
vt 0.725165 0.644838
vt 0.780721 0.661119
vt 0.219279 0.661119
vt 0.774835 0.589283
vt 0.225165 0.589283
vt 0.269637 0.600366
vt 0.730362 0.600366
vt 0.187390 0.500000
vt 0.375680 0.458406
vt 0.338774 0.476521
vt 0.190910 0.506205
vt 0.625000 0.311996
vt 0.617161 0.458406
vt 0.600448 0.312390
vt 0.375680 0.791594
vt 0.187390 0.750000
vt 0.338615 0.773229
vt 0.625000 0.935679
vt 0.600448 0.937610
vt 0.617161 0.791594
vt 0.125000 0.687154
vt 0.125000 0.561943
vt 0.131257 0.565445
vt 0.625000 0.063131
vt 0.625000 0.188458
vt 0.600448 0.188057
vt 0.600448 0.062846
vt 0.399552 0.561943
vt 0.399552 0.687154
vt 0.369694 0.684552
vt 0.369750 0.564438
vt 0.600448 0.687154
vt 0.600448 0.561943
vt 0.625000 0.001375
vt 0.600448 0.000000
vt 0.399552 0.062846
vt 0.399552 0.188057
vt 0.791667 0.613903
vt 0.770715 0.616541
vt 0.399552 0.312390
vt 0.399552 0.937610
vt 0.809035 0.743650
vt 0.868703 0.683561
vt 0.868743 0.565445
vt 0.809090 0.506205
vt 0.399552 0.000000
vt 0.725165 0.605564
vt 0.230363 0.594480
vt 0.769637 0.594480
vt 0.714082 0.600366
vt 0.719279 0.605564
vt 0.769637 0.600366
vt 0.774835 0.605564
vt 0.214082 0.655922
vt 0.785918 0.655922
vt 0.780721 0.605564
vt 0.785918 0.600366
vt 0.219279 0.644839
vt 0.214082 0.650036
vt 0.785918 0.650036
vt 0.780721 0.644839
vt 0.774835 0.644838
vt 0.769637 0.650036
vt 0.225165 0.605564
vt 0.230363 0.600366
vt 0.280721 0.661119
vt 0.285918 0.655922
vt 0.285918 0.594480
vt 0.280721 0.589283
vt 0.725165 0.661119
vt 0.730363 0.655922
vt 0.214082 0.600366
vt 0.219279 0.605564
vt 0.274835 0.605564
vt 0.269637 0.655922
vt 0.274835 0.661119
vt 0.280721 0.605564
vt 0.285918 0.600366
vt 0.714082 0.655922
vt 0.719279 0.661119
vt 0.269637 0.650036
vt 0.230363 0.650035
vt 0.225165 0.644838
vt 0.719279 0.589283
vt 0.714082 0.594480
vt 0.730363 0.650035
vt 0.791667 0.638640
vt 0.772050 0.633861
vt 0.791667 0.637547
vt 0.791667 0.634325
vt 0.791667 0.631104
vt 0.791667 0.627882
vt 0.791667 0.624661
vt 0.791667 0.621439
vt 0.791667 0.618218
vt 0.791667 0.614997
vt 0.791667 0.617534
vt 0.791667 0.618902
vt 0.791667 0.623977
vt 0.791667 0.625345
vt 0.791667 0.625345
vt 0.791667 0.630420
vt 0.791667 0.631787
vt 0.791667 0.633641
vt 0.791667 0.635009
vt 0.791667 0.635009
vt 0.791667 0.622123
vt 0.791667 0.627199
vt 0.791667 0.628566
vt 0.791667 0.620756
vt 0.791667 0.628566
vt 0.791667 0.634325
vt 0.791667 0.631104
vt 0.791667 0.624661
vt 0.791667 0.621439
vt 0.791667 0.618218
vt 0.791667 0.621439
vt 0.791667 0.634325
vt 0.791667 0.624661
vt 0.791667 0.621439
vt 0.791667 0.614996
vt 0.791667 0.615753
vt 0.791667 0.613989
vt 0.791667 0.636539
vt 0.791667 0.637547
vt 0.791667 0.638555
vt 0.772050 0.633861
vt 0.771996 0.633155
vt 0.791667 0.637632
vt 0.791667 0.614911
vt 0.770770 0.617247
vt 0.791667 0.616004
vt 0.791667 0.636539
vt 0.759810 0.617341
vt 0.791667 0.626272
vt 0.771615 0.628212
vt 0.748510 0.603933
vt 0.756939 0.583534
vt 0.754109 0.603501
vt 0.741124 0.634312
vt 0.738533 0.604702
vt 0.736229 0.592001
vt 0.736997 0.596235
vt 0.737711 0.600168
vt 0.767448 0.583534
vt 0.761467 0.602934
vt 0.759932 0.634977
vt 0.740889 0.616325
vt 0.771383 0.625201
vt 0.757883 0.634904
vt 0.756607 0.634859
vt 0.755196 0.634809
vt 0.753920 0.634764
vt 0.752509 0.634714
vt 0.751234 0.634669
vt 0.749822 0.634620
vt 0.748547 0.634574
vt 0.747136 0.634525
vt 0.745860 0.634480
vt 0.744449 0.634430
vt 0.743173 0.634385
vt 0.741124 0.634312
vt 0.741099 0.632353
vt 0.741083 0.631133
vt 0.741065 0.629783
vt 0.741049 0.628563
vt 0.741031 0.627213
vt 0.741015 0.625993
vt 0.740998 0.624644
vt 0.740982 0.623424
vt 0.740964 0.622074
vt 0.740948 0.620854
vt 0.740930 0.619505
vt 0.740915 0.618285
vt 0.759810 0.617341
vt 0.759823 0.619263
vt 0.759831 0.620459
vt 0.759840 0.621782
vt 0.759849 0.622978
vt 0.759858 0.624301
vt 0.759866 0.625497
vt 0.759875 0.626821
vt 0.759884 0.628017
vt 0.759893 0.629340
vt 0.759901 0.630536
vt 0.759910 0.631859
vt 0.759919 0.633055
vt 0.742950 0.616436
vt 0.744233 0.616505
vt 0.745653 0.616581
vt 0.746936 0.616650
vt 0.748356 0.616726
vt 0.749640 0.616795
vt 0.751059 0.616871
vt 0.752342 0.616940
vt 0.753762 0.617017
vt 0.755045 0.617085
vt 0.756465 0.617162
vt 0.757748 0.617231
vt 0.752509 0.634714
vt 0.751234 0.634669
vt 0.746936 0.616650
vt 0.740964 0.622074
vt 0.740998 0.624644
vt 0.740982 0.623424
vt 0.749640 0.616795
vt 0.759840 0.621782
vt 0.759875 0.626821
vt 0.759901 0.630536
vt 0.759919 0.633055
vt 0.757883 0.634904
vt 0.756607 0.634859
vt 0.748547 0.634575
vt 0.743173 0.634385
vt 0.741015 0.625993
vt 0.748356 0.616726
vt 0.741065 0.629783
vt 0.741049 0.628563
vt 0.741031 0.627213
vt 0.756607 0.634859
vt 0.751234 0.634669
vt 0.748547 0.634575
vt 0.743173 0.634385
vt 0.740915 0.618285
vt 0.759831 0.620459
vt 0.759849 0.622978
vt 0.759858 0.624301
vt 0.759884 0.628017
vt 0.759884 0.628017
vt 0.746937 0.616650
vt 0.751059 0.616871
vt 0.759893 0.629340
vt 0.771940 0.632430
vt 0.770826 0.617972
vt 0.770826 0.617972
vt 0.748602 0.599563
vt 0.748682 0.595773
vt 0.748769 0.591694
vt 0.764077 0.583534
vt 0.759107 0.603116
vt 0.757348 0.603252
vt 0.761566 0.583534
vt 0.759451 0.583534
vt 0.755867 0.603366
vt 0.740086 0.596115
vt 0.738480 0.596176
vt 0.741198 0.594736
vt 0.741034 0.593216
vt 0.743589 0.594654
vt 0.743488 0.593145
vt 0.744274 0.594630
vt 0.747171 0.595835
vt 0.745642 0.595893
vt 0.745476 0.591777
vt 0.740499 0.591899
vt 0.742000 0.591860
vt 0.747177 0.591733
vt 0.743305 0.595986
vt 0.743007 0.591837
vt 0.737870 0.591963
vt 0.739492 0.591921
vt 0.744721 0.595932
vt 0.746756 0.594544
vt 0.746006 0.594570
vt 0.744508 0.591798
vt 0.737739 0.596206
vt 0.738323 0.600134
vt 0.738166 0.587920
vt 0.740837 0.587888
vt 0.743509 0.587856
vt 0.746180 0.587824
vt 0.740968 0.596078
vt 0.742384 0.596024
vt 0.737050 0.591982
vt 0.747973 0.591713
vt 0.747927 0.595804
vt 0.747989 0.599597
vt 0.746745 0.593050
vt 0.741883 0.594713
vt 0.739475 0.594796
vt 0.739257 0.593268
vt 0.745959 0.593073
vt 0.741736 0.593196
vt 0.744190 0.593124
vt 0.738488 0.593290
vt 0.738709 0.594822
vt 0.748038 0.583534
vt 0.748850 0.587894
vt 0.748003 0.587904
vt 0.734693 0.583534
vt 0.736373 0.588048
vt 0.735513 0.588058
vt 0.708333 0.616300
vt 0.728195 0.619718
vt 0.728320 0.621350
vt 0.708333 0.618630
vt 0.708333 0.622966
vt 0.728554 0.624385
vt 0.708333 0.640795
vt 0.708333 0.607466
vt 0.708333 0.611964
vt 0.727961 0.616683
vt 0.727718 0.613534
vt 0.728738 0.626765
vt 0.708333 0.626365
vt 0.708333 0.628562
vt 0.728856 0.628304
vt 0.708333 0.637603
vt 0.729344 0.634634
vt 0.729516 0.636868
vt 0.728969 0.629769
vt 0.708333 0.630655
vt 0.733297 0.666868
vt 0.739055 0.647427
vt 0.764562 0.666868
vt 0.760945 0.645740
vt 0.741959 0.666868
vt 0.745120 0.646960
vt 0.747584 0.646770
vt 0.745479 0.666868
vt 0.752380 0.666868
vt 0.752416 0.646398
vt 0.759738 0.645833
vt 0.762838 0.666868
vt 0.755900 0.666868
vt 0.757624 0.666868
vt 0.756087 0.646115
vt 0.754880 0.646208
vt 0.759824 0.619426
vt 0.759828 0.619905
vt 0.759848 0.622879
vt 0.759844 0.622339
vt 0.759847 0.622751
vt 0.759861 0.624793
vt 0.759865 0.625278
vt 0.759878 0.627261
vt 0.759881 0.627700
vt 0.759898 0.630140
vt 0.759893 0.629340
vt 0.759896 0.629739
vt 0.759917 0.632893
vt 0.759917 0.632868
vt 0.759901 0.630536
vt 0.738384 0.596180
vt 0.739872 0.596122
vt 0.742341 0.596024
vt 0.743324 0.595986
vt 0.744811 0.595927
vt 0.745794 0.595888
vt 0.748850 0.639712
vt 0.749777 0.640814
vt 0.749114 0.640792
vt 0.732982 0.629570
vt 0.731807 0.629096
vt 0.732910 0.628987
vt 0.740713 0.604534
vt 0.740301 0.609887
vt 0.740313 0.610695
vt 0.740079 0.604583
vt 0.747808 0.609212
vt 0.747143 0.610244
vt 0.747976 0.616706
vt 0.747220 0.616665
vt 0.744760 0.604222
vt 0.744870 0.607067
vt 0.743527 0.608083
vt 0.743979 0.604282
vt 0.754338 0.605379
vt 0.753841 0.606566
vt 0.756147 0.617145
vt 0.755391 0.617104
vt 0.764044 0.618684
vt 0.764209 0.624920
vt 0.763278 0.624045
vt 0.763122 0.617755
vt 0.768647 0.620363
vt 0.768617 0.619807
vt 0.766694 0.629864
vt 0.759892 0.629252
vt 0.759887 0.628547
vt 0.765700 0.629102
vt 0.766430 0.622942
vt 0.765492 0.622100
vt 0.768823 0.623616
vt 0.768793 0.623060
vt 0.759856 0.623974
vt 0.759851 0.623269
vt 0.769256 0.631613
vt 0.764795 0.631329
vt 0.763917 0.630670
vt 0.769226 0.631057
vt 0.762209 0.639890
vt 0.761241 0.638462
vt 0.753805 0.646291
vt 0.753068 0.646347
vt 0.746839 0.640645
vt 0.746045 0.639558
vt 0.745093 0.643142
vt 0.743952 0.642471
vt 0.746596 0.646846
vt 0.745879 0.646902
vt 0.739302 0.604643
vt 0.739445 0.612868
vt 0.739083 0.612003
vt 0.739058 0.604661
vt 0.737387 0.615009
vt 0.737326 0.616786
vt 0.736433 0.616343
vt 0.736511 0.614680
vt 0.728076 0.618182
vt 0.728034 0.617643
vt 0.728412 0.622535
vt 0.736369 0.622083
vt 0.735420 0.622732
vt 0.728453 0.623075
vt 0.736150 0.627286
vt 0.735137 0.627890
vt 0.741037 0.627659
vt 0.741047 0.628378
vt 0.728781 0.627328
vt 0.732695 0.627459
vt 0.731535 0.627908
vt 0.728811 0.627710
vt 0.733921 0.634139
vt 0.732714 0.633214
vt 0.729187 0.632600
vt 0.729146 0.632060
vt 0.741078 0.630741
vt 0.741068 0.630022
vt 0.761161 0.623272
vt 0.761387 0.623324
vt 0.761384 0.623104
vt 0.761374 0.622168
vt 0.761177 0.622117
vt 0.761358 0.620891
vt 0.761345 0.619898
vt 0.761343 0.619741
vt 0.768472 0.617130
vt 0.760803 0.628119
vt 0.761434 0.628188
vt 0.761425 0.627035
vt 0.760778 0.626945
vt 0.760949 0.625679
vt 0.761413 0.625758
vt 0.761401 0.624603
vt 0.760936 0.624510
vt 0.771909 0.632022
vt 0.771867 0.631482
vt 0.771311 0.624265
vt 0.771269 0.623725
vt 0.771067 0.621109
vt 0.771026 0.620569
vt 0.761442 0.633000
vt 0.761444 0.632825
vt 0.761448 0.631871
vt 0.760697 0.630576
vt 0.761446 0.630608
vt 0.761442 0.629461
vt 0.760667 0.629402
vt 0.769279 0.632033
s 0
usemtl M_PCB_Green
f 131/1/1 15/2/1 16/3/1 129/4/1
f 58/5/1 61/6/1 62/7/1 63/8/1 64/9/1 59/10/1 60/11/1 57/12/1
f 27/13/1 26/14/1 61/6/1 58/5/1
f 32/15/1 29/16/1 30/17/1 31/18/1
f 151/27/3 7/28/3 8/29/3 149/30/3
f 4/31/3 157/32/3 159/33/3 3/34/3
f 140/158/11 154/159/11 153/160/11 139/161/11
f 141/162/12 159/33/12 160/163/12 142/164/12
f 148/165/13 130/166/13 129/4/13 147/167/13
f 149/30/14 135/168/14 136/169/14 150/170/14
f 132/171/15 138/172/15 137/173/15 131/1/15
f 133/174/16 143/175/16 144/176/16 134/177/16
f 156/178/17 146/179/17 145/180/17 155/181/17
f 157/32/18 151/27/18 152/182/18 158/183/18
f 131/1/19 129/4/19 130/166/19 132/171/19
f 135/184/20 133/174/20 134/177/20 136/185/20
f 143/175/21 141/162/21 142/164/21 144/176/21
f 139/161/22 137/173/22 138/172/22 140/158/22
f 159/33/23 157/32/23 158/183/23 160/163/23
f 155/181/24 153/160/24 154/159/24 156/178/24
f 151/27/25 149/30/25 150/170/25 152/182/25
f 147/167/26 145/180/26 146/179/26 148/165/26
f 132/186/8 134/177/8 144/176/8 138/187/8
f 34/115/1 35/84/1 36/87/1 33/116/1
f 33/116/1 36/87/1 15/2/1 131/1/1 137/173/1 12/47/1
f 57/12/1 60/11/1 35/84/1 34/115/1
f 12/47/1 137/173/1 139/161/1 11/48/1
f 156/178/9 158/183/9 152/182/9 146/179/9
f 28/45/1 25/110/1 26/14/1 27/13/1
f 59/10/1 64/9/1 29/16/1 32/15/1
f 45/82/3 228/188/3 225/189/3 54/67/3
f 63/8/1 62/7/1 37/123/1 40/102/1
f 153/160/1 10/108/1 25/110/1 28/45/1 11/48/1 139/161/1
f 140/190/2 142/164/2 160/163/2 154/159/2
f 14/100/1 145/180/1 147/167/1 13/98/1
f 31/18/1 30/17/1 13/98/1 147/167/1 129/4/1 16/3/1
f 155/181/1 9/105/1 10/108/1 153/160/1
f 39/103/1 38/122/1 9/105/1 155/181/1 145/180/1 14/100/1
f 40/102/1 37/123/1 38/122/1 39/103/1
f 148/165/10 150/170/10 136/169/10 130/191/10
f 135/192/3 5/78/3 6/77/3 133/193/3
f 143/194/3 1/50/3 2/53/3 141/195/3
f 130/196/4 136/185/4 134/177/4 132/186/4
f 142/164/5 140/190/5 138/187/5 144/176/5
f 150/170/7 148/165/7 146/179/7 152/182/7
f 158/183/6 156/178/6 154/159/6 160/163/6
f 227/237/3 48/91/3 55/94/3 226/238/3
f 228/188/3 45/82/3 46/81/3
f 227/237/3 47/88/3 48/91/3
f 47/88/3 227/237/3 233/239/3 235/239/3 245/240/3 244/241/3 243/242/3 242/243/3 241/244/3 240/245/3 230/246/3 234/246/3 228/188/3 46/81/3 1/50/3 143/194/3 133/193/3 6/77/3
f 225/189/3 336/284/3 53/68/3 54/67/3
f 591/287/3 335/20/3 611/288/3 608/289/3
f 51/130/3 52/131/3 338/290/3
f 602/295/3 18/55/3 53/68/3 601/296/3
f 396/323/1 395/324/1 468/324/1 467/323/1
f 378/350/1 377/351/1 450/351/1 449/350/1
f 352/340/1 351/352/1 484/352/1 483/340/1
f 394/353/1 393/322/1 466/322/1 465/353/1
f 376/302/1 375/303/1 448/303/1 447/302/1
f 350/338/1 349/339/1 482/339/1 481/338/1
f 392/354/1 391/355/1 464/355/1 463/354/1
f 354/366/1 353/356/1 486/356/1 485/366/1
f 380/306/1 379/363/1 452/363/1 451/306/1
f 356/344/1 355/345/1 488/345/1 487/344/1
f 382/308/1 381/309/1 454/309/1 453/308/1
f 358/346/1 357/347/1 490/347/1 489/346/1
f 384/310/1 383/364/1 456/364/1 455/310/1
f 360/348/1 359/349/1 492/349/1 491/348/1
f 386/313/1 385/314/1 458/314/1 457/313/1
f 388/367/1 387/368/1 460/368/1 459/367/1
f 390/369/1 389/365/1 462/365/1 461/369/1
f 374/361/1 373/362/1 446/362/1 445/361/1
f 19/41/3 603/19/3 600/291/3 50/38/3
f 610/393/3 615/392/3 612/391/3 609/394/3
f 614/389/3 602/295/3 601/296/3 613/390/3
f 17/56/3 602/295/3 614/389/3 615/392/3 610/393/3 611/288/3 335/20/3 603/19/3 20/40/3 3/34/3 159/33/3 141/195/3 2/53/3
f 602/295/3 17/56/3 18/55/3
f 603/19/3 19/41/3 20/40/3
f 744/443/3 737/444/3 740/445/3 741/446/3
f 44/63/3 733/449/3 43/64/3
f 732/450/3 41/58/3 42/61/3
f 735/453/3 732/450/3 42/61/3 49/35/3
f 732/450/3 735/453/3 738/452/3 743/451/3
f 742/447/3 739/448/3 746/454/3 747/455/3
f 752/458/3 749/459/3 734/460/3 733/449/3
f 748/456/3 745/457/3 750/461/3 751/462/3
f 157/32/3 4/31/3 41/58/3 732/450/3 743/451/3 744/443/3 741/446/3 742/447/3 747/455/3 748/456/3 751/462/3 752/458/3 733/449/3 44/63/3 7/28/3 151/27/3
f 43/64/3 733/449/3 734/460/3 52/131/3
f 768/463/3 24/113/3 51/130/3 771/464/3
f 21/73/3 769/465/3 770/466/3 56/93/3
f 769/465/3 21/73/3 22/75/3
f 776/471/3 779/470/3 772/469/3 775/472/3
f 768/463/3 23/111/3 24/113/3
f 778/467/3 768/463/3 771/464/3 773/468/3
f 770/466/3 769/465/3 781/474/3 782/473/3
f 149/30/3 8/29/3 23/111/3 768/463/3 778/467/3 779/470/3 776/471/3 777/475/3 780/476/3 781/474/3 769/465/3 22/75/3 5/78/3 135/192/3
f 783/477/3 780/476/3 777/475/3 774/478/3
f 796/479/1 812/480/1 470/327/1
f 469/326/1 362/326/1 361/327/1 470/327/1 812/480/1 796/479/1
f 472/376/1 810/481/1 799/376/1
f 798/357/1 811/482/1 797/483/1 471/357/1
f 797/483/1 811/482/1 798/357/1 364/357/1 363/376/1 799/376/1 810/481/1 472/376/1
f 474/331/1 473/377/1 800/377/1 814/484/1 807/485/1 801/331/1
f 366/377/1 365/331/1 801/331/1 807/485/1 814/484/1 800/377/1
f 476/378/1 475/358/1 802/358/1 809/486/1 815/487/1 803/378/1
f 368/358/1 367/378/1 803/378/1 815/487/1 809/486/1 802/358/1
f 478/359/1 816/488/1 805/359/1
f 804/489/1 370/382/1 808/490/1
f 804/489/1 808/490/1 370/382/1 369/359/1 805/359/1 816/488/1 478/359/1 477/382/1
f 479/336/1 372/336/1 371/360/1 480/360/1 813/491/1 806/492/1
f 806/492/1 813/491/1 480/360/1
f 868/553/3 866/552/3 820/509/3 821/508/3 823/511/3 817/513/3 351/352/3 352/340/3 349/339/3 350/338/3 339/298/3
f 818/512/3 824/510/3 822/507/3 819/506/3 828/517/3 829/516/3 831/519/3 825/521/3 357/347/3 358/346/3 355/345/3 356/344/3 353/356/3 354/366/3
f 826/520/3 832/518/3 830/515/3 827/514/3 591/287/3 608/289/3 609/394/3 612/391/3 613/390/3 601/296/3 53/68/3 336/284/3 359/349/3 360/348/3
f 840/527/3 836/525/3 833/524/3 837/537/3 363/376/3 799/580/3 472/581/3 797/582/3 471/583/3 798/584/3 364/357/3 361/327/3 470/585/3 796/586/3 469/587/3 362/326/3 336/284/3 225/189/3 592/385/3 595/588/3
f 848/535/3 844/533/3 842/531/3 845/530/3 367/378/3 803/589/3 476/590/3 475/591/3 802/592/3 368/358/3 365/331/3 801/593/3 474/594/3 473/595/3 800/596/3 366/377/3 838/536/3 834/523/3 835/522/3 839/526/3
f 853/540/3 850/543/3 337/297/3 371/360/3 480/603/3 806/604/3 479/605/3 372/336/3 369/359/3 805/606/3 478/607/3 477/608/3 804/609/3 370/382/3 846/529/3 841/528/3 843/532/3 847/534/3 852/541/3
f 51/130/3 338/290/3 383/364/3 384/310/3 381/309/3 382/308/3 379/363/3 380/306/3 377/351/3 378/350/3 375/303/3 376/302/3 373/362/3 374/361/3 337/297/3 850/543/3 855/500/3 862/547/3 864/549/3 860/551/3 773/468/3 771/464/3
f 859/544/3 856/501/3 849/542/3 854/539/3 851/538/3 594/610/3 593/383/3 226/238/3 55/94/3 56/93/3 770/466/3 782/473/3 783/477/3 774/478/3
f 861/550/3 865/548/3 863/546/3 857/502/3 858/545/3 775/472/3 772/469/3
f 50/38/3 600/291/3 867/555/3 869/554/3
f 873/556/3 868/553/3 339/298/3
f 49/35/3 50/38/3 869/554/3 872/559/3
f 871/560/3 875/557/3 873/556/3 339/298/3 395/324/3 396/323/3 393/322/3 394/353/3 391/355/3 392/354/3 389/365/3 390/369/3 877/568/3 883/566/3 881/563/3 878/562/3 740/445/3 737/444/3
f 49/35/3 872/559/3 874/558/3 870/561/3 738/452/3 735/453/3
f 879/565/3 880/564/3 882/567/3 876/569/3 387/368/3 388/367/3 893/579/3 896/505/3 889/571/3 884/570/3 746/454/3 739/448/3
f 885/573/3 888/572/3 895/504/3 890/575/3 886/577/3 750/461/3 745/457/3
f 894/503/3 892/578/3 385/314/3 386/313/3 338/290/3 52/131/3 734/460/3 749/459/3 887/576/3 891/574/3
usemtl M_Gold_Contact
f 49/35/4 161/36/4 162/37/4 50/38/4
f 164/39/5 20/40/5 19/41/5 163/42/5
f 27/13/6 165/43/6 166/44/6 28/45/6
f 168/46/5 12/47/5 11/48/5 167/49/5
f 1/50/5 169/51/5 170/52/5 2/53/5
f 172/54/6 18/55/6 17/56/6 171/57/6
f 41/58/7 173/59/7 174/60/7 42/61/7
f 178/62/6 44/63/6 43/64/6 177/65/6
f 180/66/7 54/67/7 53/68/7 179/69/7
f 15/2/4 181/70/4 182/71/4 16/3/4
f 184/72/7 32/15/7 31/18/7 183/18/7
f 21/73/7 185/73/7 186/74/7 22/75/7
f 188/76/4 6/77/4 5/78/4 187/79/4
f 190/80/4 46/81/4 45/82/4 189/83/4
f 35/84/5 191/85/5 192/86/5 36/87/5
f 47/88/5 193/89/5 194/90/5 48/91/5
f 196/92/6 56/93/6 55/94/6 348/95/6
f 57/12/7 197/96/7 198/97/7 58/5/7
f 13/98/7 199/98/7 200/99/7 14/100/7
f 202/101/6 40/102/6 39/103/6 201/104/6
f 9/105/6 203/106/6 204/107/6 10/108/6
f 206/109/5 26/14/5 25/110/5 205/110/5
f 23/111/4 207/111/4 208/112/4 24/113/4
f 210/114/4 34/115/4 33/116/4 209/117/4
f 212/118/4 62/7/4 61/6/4 211/119/4
f 29/16/4 213/16/4 214/120/4 30/17/4
f 216/121/7 38/122/7 37/123/7 215/123/7
f 218/124/7 8/29/7 7/28/7 217/125/7
f 220/126/5 64/9/5 63/8/5 219/8/5
f 222/127/6 60/11/6 59/10/6 221/10/6
f 3/34/6 223/34/6 224/128/6 4/31/6
f 1/50/8 46/81/8 190/80/8 169/51/8
f 17/56/2 2/53/2 170/52/2 171/57/2
f 41/58/9 4/31/9 224/128/9 173/59/9
f 3/34/2 20/40/2 164/39/2 223/34/2
f 5/78/10 22/75/10 186/74/10 187/79/10
f 47/88/8 6/77/8 188/76/8 193/89/8
f 23/111/10 8/29/10 218/124/10 207/111/10
f 7/28/9 44/63/9 178/62/9 217/125/9
f 9/105/9 38/122/9 216/121/9 203/106/9
f 25/110/2 10/108/2 204/107/2 205/110/2
f 33/116/8 12/47/8 168/46/8 209/117/8
f 11/48/2 28/45/2 166/44/2 167/49/2
f 13/98/10 30/17/10 214/120/10 199/98/10
f 39/103/9 14/100/9 200/99/9 201/104/9
f 31/18/10 16/3/10 182/71/10 183/18/10
f 15/2/8 36/87/8 192/86/8 181/70/8
f 53/68/9 18/55/9 172/54/9 179/69/9
f 19/41/8 50/38/8 162/37/8 163/42/8
f 21/73/9 56/93/9 347/129/9 185/73/9
f 51/130/8 24/113/8 208/112/8 175/130/8
f 61/6/8 26/14/8 206/109/8 211/119/8
f 27/13/9 58/5/9 198/97/9 165/43/9
f 29/16/8 64/9/8 220/126/8 213/16/8
f 59/10/9 32/15/9 184/72/9 221/10/9
f 57/12/10 34/115/10 210/114/10 197/96/10
f 35/84/2 60/11/2 222/127/2 191/85/2
f 37/123/10 62/7/10 212/118/10 215/123/10
f 63/8/2 40/102/2 202/101/2 219/8/2
f 49/35/10 42/61/10 174/60/10 161/36/10
f 43/64/2 52/131/2 176/132/2 177/65/2
f 45/82/10 54/67/10 180/66/10 189/83/10
f 55/94/2 48/91/2 194/90/2 195/133/2
f 101/134/7 102/135/7 65/136/7 66/137/7
f 83/138/4 84/139/4 87/140/4 88/141/4
f 93/142/7 94/143/7 75/144/7 76/145/7
f 97/146/5 98/147/5 77/148/5 78/149/5
f 112/150/10 83/138/10 88/141/10 105/151/10
f 92/152/2 97/146/2 78/149/2 79/153/2
f 96/154/10 93/142/10 76/145/10 73/155/10
f 128/156/9 101/134/9 66/137/9 121/157/9
f 122/197/3 121/157/3 162/37/3 161/36/3
f 66/137/3 65/136/3 164/39/3 163/42/3
f 74/198/1 73/155/1 166/44/1 165/43/1
f 76/145/1 75/144/1 168/46/1 167/49/1
f 94/143/3 93/142/3 170/52/3 169/51/3
f 96/154/3 95/199/3 172/54/3 171/57/3
f 118/200/3 117/201/3 174/60/3 173/59/3
f 175/130/5 176/132/5 52/131/5 51/130/5
f 88/141/3 87/140/3 178/62/3 177/65/3
f 124/202/3 123/203/3 180/66/3 179/69/3
f 80/204/1 79/153/1 182/71/1 181/70/1
f 78/149/1 77/148/1 184/72/1 183/18/1
f 98/147/3 97/146/3 186/74/3 185/73/3
f 92/152/3 91/205/3 188/76/3 187/79/3
f 120/206/3 119/207/3 190/80/3 189/83/3
f 82/208/1 81/209/1 192/86/1 191/85/1
f 90/210/3 89/211/3 194/90/3 193/89/3
f 108/212/3 107/213/3 196/92/3 348/95/3 195/133/3
f 126/214/1 125/215/1 198/97/1 197/96/1
f 86/216/1 85/217/1 200/99/1 199/98/1
f 84/139/1 83/138/1 202/101/1 201/104/1
f 100/218/1 99/219/1 204/107/1 203/106/1
f 102/135/1 101/134/1 206/109/1 205/110/1
f 70/220/3 69/221/3 208/112/3 207/111/3
f 114/222/1 113/223/1 210/114/1 209/117/1
f 128/156/1 127/224/1 212/118/1 211/119/1
f 104/225/1 103/226/1 214/120/1 213/16/1
f 116/227/1 115/228/1 216/121/1 215/123/1
f 72/229/3 71/230/3 218/124/3 217/125/3
f 112/150/1 111/231/1 220/126/1 219/8/1
f 110/232/1 109/233/1 222/127/1 221/10/1
f 68/234/3 67/235/3 224/128/3 223/34/3
f 119/207/3 94/143/3 169/51/3 190/80/3
f 93/142/3 96/154/3 171/57/3 170/52/3
f 67/235/3 118/200/3 173/59/3 224/128/3
f 65/136/3 68/234/3 223/34/3 164/39/3
f 97/146/3 92/152/3 187/79/3 186/74/3
f 91/205/3 90/210/3 193/89/3 188/76/3
f 71/230/3 70/220/3 207/111/3 218/124/3
f 87/140/3 72/229/3 217/125/3 178/62/3
f 115/228/1 100/218/1 203/106/1 216/121/1
f 99/219/1 102/135/1 205/110/1 204/107/1
f 75/144/1 114/222/1 209/117/1 168/46/1
f 73/155/1 76/145/1 167/49/1 166/44/1
f 103/226/1 86/216/1 199/98/1 214/120/1
f 85/217/1 84/139/1 201/104/1 200/99/1
f 79/153/1 78/149/1 183/18/1 182/71/1
f 81/209/1 80/204/1 181/70/1 192/86/1
f 95/199/3 124/202/3 179/69/3 172/54/3
f 121/157/3 66/137/3 163/42/3 162/37/3
f 107/213/3 98/147/3 185/73/3 347/129/3 196/92/3
f 69/221/3 106/236/3 175/130/3 208/112/3
f 101/134/1 128/156/1 211/119/1 206/109/1
f 125/215/1 74/198/1 165/43/1 198/97/1
f 111/231/1 104/225/1 213/16/1 220/126/1
f 77/148/1 110/232/1 221/10/1 184/72/1
f 113/223/1 126/214/1 197/96/1 210/114/1
f 109/233/1 82/208/1 191/85/1 222/127/1
f 127/224/1 116/227/1 215/123/1 212/118/1
f 83/138/1 112/150/1 219/8/1 202/101/1
f 117/201/3 122/197/3 161/36/3 174/60/3
f 105/151/3 88/141/3 177/65/3 176/132/3
f 123/203/3 120/206/3 189/83/3 180/66/3
f 89/211/3 108/212/3 195/133/3 194/90/3
f 84/139/8 85/217/8 72/229/8 87/140/8
f 85/217/5 86/216/5 71/230/5 72/229/5
f 86/216/2 103/226/2 70/220/2 71/230/2
f 103/226/6 104/225/6 69/221/6 70/220/6
f 104/225/9 111/231/9 106/236/9 69/221/9
f 111/231/7 112/150/7 105/151/7 106/236/7
f 98/147/8 107/213/8 110/232/8 77/148/8
f 107/213/4 108/212/4 109/233/4 110/232/4
f 108/212/10 89/211/10 82/208/10 109/233/10
f 89/211/7 90/210/7 81/209/7 82/208/7
f 90/210/9 91/205/9 80/204/9 81/209/9
f 91/205/6 92/152/6 79/153/6 80/204/6
f 94/143/9 119/207/9 114/222/9 75/144/9
f 119/207/6 120/206/6 113/223/6 114/222/6
f 120/206/2 123/203/2 126/214/2 113/223/2
f 123/203/5 124/202/5 125/215/5 126/214/5
f 124/202/8 95/199/8 74/198/8 125/215/8
f 95/199/4 96/154/4 73/155/4 74/198/4
f 102/135/10 99/219/10 68/234/10 65/136/10
f 99/219/4 100/218/4 67/235/4 68/234/4
f 100/218/8 115/228/8 118/200/8 67/235/8
f 115/228/5 116/227/5 117/201/5 118/200/5
f 116/227/2 127/224/2 122/197/2 117/201/2
f 127/224/6 128/156/6 121/157/6 122/197/6
f 310/247/8 252/247/8 253/248/8 311/248/8
f 306/249/8 256/249/8 257/250/8 307/251/8
f 302/252/8 260/252/8 261/253/8 303/253/8
f 300/254/8 262/254/8 263/255/8 301/256/8
f 285/252/2 268/252/2 260/252/2 302/252/2
f 276/257/10 295/257/10 309/257/10 255/257/10
f 264/255/10 283/256/10 301/256/10 263/255/10
f 286/253/3 285/252/3 302/252/3 303/253/3
f 271/258/1 270/259/1 259/259/1 258/258/1
f 294/260/2 277/260/2 254/260/2 308/260/2
f 282/254/2 265/254/2 262/254/2 300/254/2
f 273/250/10 292/251/10 307/251/10 257/250/10
f 292/251/3 291/249/3 306/249/3 307/251/3
f 277/260/1 276/257/1 255/257/1 254/260/1
f 291/249/2 274/249/2 256/249/2 306/249/2
f 298/248/27 297/247/27 310/247/27 311/248/27
f 283/256/28 282/254/28 300/254/28 301/256/28
f 268/252/1 267/253/1 261/253/1 260/252/1
f 270/259/10 289/261/10 305/261/10 259/259/10
f 308/260/8 254/260/8 255/257/8 309/257/8
f 304/258/8 258/258/8 259/259/8 305/261/8
f 288/258/2 271/258/2 258/258/2 304/258/2
f 289/261/3 288/258/3 304/258/3 305/261/3
f 274/249/1 273/250/1 257/250/1 256/249/1
f 279/248/10 298/248/10 311/248/10 253/248/10
f 267/253/10 286/253/10 303/253/10 261/253/10
f 297/247/2 280/247/2 252/247/2 310/247/2
f 265/254/29 264/255/29 263/255/29 262/254/29
f 280/247/30 279/248/30 253/248/30 252/247/30
f 295/257/3 294/260/3 308/260/3 309/257/3
f 348/95/6 55/94/6 195/133/6
f 347/129/9 56/93/9 196/92/9
f 175/130/3 106/236/3 105/151/3 176/132/3
f 643/395/10 642/396/10 688/396/10 680/395/10
f 639/397/9 669/398/9 691/398/9 690/397/9
f 637/399/9 671/400/9 701/400/9 700/399/9
f 636/401/10 637/399/10 700/399/10 703/401/10
f 652/402/10 651/403/10 683/403/10 677/402/10
f 651/403/9 664/404/9 681/404/9 683/403/9
f 658/405/2 657/406/2 682/406/2 675/405/2
f 663/407/8 652/402/8 677/402/8 676/407/8
f 664/404/2 663/407/2 676/407/2 681/404/2
f 648/408/9 661/409/9 685/409/9 684/408/9
f 655/410/2 654/411/2 679/411/2 689/410/2
f 649/412/10 648/408/10 684/408/10 687/412/10
f 634/413/10 635/414/10 699/414/10 693/413/10
f 660/415/8 649/412/8 687/412/8 686/415/8
f 654/411/8 643/395/8 680/395/8 679/411/8
f 645/422/9 658/405/9 675/405/9 674/422/9
f 661/409/2 660/415/2 686/415/2 685/409/2
f 646/423/10 645/422/10 674/422/10 678/423/10
f 657/406/8 646/423/8 678/423/8 682/406/8
f 642/396/9 655/410/9 689/410/9 688/396/9
f 669/398/31 639/397/31 674/422/31 675/405/31
f 634/413/32 672/428/32 676/407/32 677/402/32
f 639/397/33 638/429/33 678/423/33 674/422/33
f 640/430/32 666/431/32 679/411/32 680/395/32
f 672/428/34 673/432/34 681/404/34 676/407/34
f 668/433/34 669/398/34 675/405/34 682/406/34
f 635/414/33 634/413/33 677/402/33 683/403/33
f 671/400/31 637/399/31 684/408/31 685/409/31
f 638/429/32 668/433/32 682/406/32 678/423/32
f 673/432/31 635/414/31 683/403/31 681/404/31
f 636/401/32 670/434/32 686/415/32 687/412/32
f 667/435/31 641/436/31 688/396/31 689/410/31
f 670/434/34 671/400/34 685/409/34 686/415/34
f 666/431/34 667/435/34 689/410/34 679/411/34
f 637/399/33 636/401/33 687/412/33 684/408/33
f 641/436/33 640/430/33 680/395/33 688/396/33
f 692/428/3 693/413/3 699/414/3 697/432/3
f 702/434/3 703/401/3 700/399/3 701/400/3
f 695/431/3 696/430/3 704/436/3 705/435/3
f 698/433/3 694/429/3 690/397/3 691/398/3
f 640/430/10 641/436/10 704/436/10 696/430/10
f 668/433/8 638/429/8 694/429/8 698/433/8
f 672/428/8 634/413/8 693/413/8 692/428/8
f 635/414/9 673/432/9 697/432/9 699/414/9
f 638/429/10 639/397/10 690/397/10 694/429/10
f 670/434/8 636/401/8 703/401/8 702/434/8
f 666/431/8 640/430/8 696/430/8 695/431/8
f 641/436/9 667/435/9 705/435/9 704/436/9
f 673/432/2 672/428/2 692/428/2 697/432/2
f 671/400/2 670/434/2 702/434/2 701/400/2
f 669/398/2 668/433/2 698/433/2 691/398/2
f 667/435/2 666/431/2 695/431/2 705/435/2
f 855/500/3 856/501/3 857/502/3
f 894/503/3 895/504/3 896/505/3
f 819/506/3 822/507/3 821/508/3 820/509/3
f 822/507/3 824/510/3 823/511/3 821/508/3
f 824/510/3 818/512/3 817/513/3 823/511/3
f 827/514/3 830/515/3 829/516/3 828/517/3
f 830/515/3 832/518/3 831/519/3 829/516/3
f 832/518/3 826/520/3 825/521/3 831/519/3
f 835/522/3 834/523/3 833/524/3 836/525/3
f 839/526/3 835/522/3 836/525/3 840/527/3
f 841/528/3 846/529/3 845/530/3 842/531/3
f 843/532/3 841/528/3 842/531/3 844/533/3
f 847/534/3 843/532/3 844/533/3 848/535/3
f 834/523/3 838/536/3 837/537/3 833/524/3
f 851/538/3 854/539/3 853/540/3 852/541/3
f 854/539/3 849/542/3 850/543/3 853/540/3
f 849/542/3 856/501/3 855/500/3 850/543/3
f 856/501/3 859/544/3 858/545/3 857/502/3
f 857/502/3 863/546/3 862/547/3 855/500/3
f 863/546/3 865/548/3 864/549/3 862/547/3
f 865/548/3 861/550/3 860/551/3 864/549/3
f 866/552/3 868/553/3 869/554/3 867/555/3
f 873/556/3 875/557/3 874/558/3 872/559/3
f 875/557/3 871/560/3 870/561/3 874/558/3
f 868/553/3 873/556/3 872/559/3 869/554/3
f 878/562/3 881/563/3 880/564/3 879/565/3
f 881/563/3 883/566/3 882/567/3 880/564/3
f 883/566/3 877/568/3 876/569/3 882/567/3
f 884/570/3 889/571/3 888/572/3 885/573/3
f 894/503/3 891/574/3 890/575/3 895/504/3
f 891/574/3 887/576/3 886/577/3 890/575/3
f 889/571/3 896/505/3 895/504/3 888/572/3
f 892/578/3 894/503/3 896/505/3 893/579/3
usemtl M_Anthracite_Steel
f 603/19/2 335/20/2 606/20/2 650/21/2 633/22/2 632/23/2 631/24/2 630/25/2 708/26/2 605/19/2
f 600/291/9 603/19/9 605/19/9 625/292/9 624/293/9 629/294/9 604/291/9
f 331/297/3 330/290/3 333/298/3 332/284/3
f 343/297/10 397/300/10 398/301/10 399/302/10 400/303/10 401/304/10 402/305/10 403/306/10 404/307/10 405/308/10 406/309/10 407/310/10 408/311/10 344/312/10 330/290/10 331/297/10
f 344/312/9 409/313/9 410/314/9 411/315/9 412/316/9 413/317/9 414/318/9 415/319/9 416/320/9 417/321/9 418/322/9 419/323/9 420/324/9 341/298/9 333/298/9 330/290/9
f 342/325/8 421/326/8 422/327/8 423/328/8 424/329/8 425/330/8 426/331/8 427/332/8 428/333/8 429/334/8 430/335/8 431/336/8 432/337/8 343/297/8 331/297/8 332/284/8
f 341/298/2 433/338/2 434/339/2 435/340/2 436/341/2 437/342/2 438/343/2 439/344/2 440/345/2 441/346/2 442/347/2 443/348/2 444/349/2 342/325/2 332/284/2 333/298/2
f 339/298/2 350/338/2 433/338/2 341/298/2
f 349/339/2 352/340/2 435/340/2 434/339/2
f 353/356/2 356/344/2 439/344/2 438/343/2
f 355/345/2 358/346/2 441/346/2 440/345/2
f 359/349/2 336/284/2 342/325/2 444/349/2
f 336/284/8 362/326/8 421/326/8 342/325/8
f 361/327/8 364/357/8 423/328/8 422/327/8
f 365/331/8 368/358/8 427/332/8 426/331/8
f 369/359/8 372/336/8 431/336/8 430/335/8
f 371/360/8 337/297/8 343/297/8 432/337/8
f 337/297/10 374/361/10 397/300/10 343/297/10
f 373/362/10 376/302/10 399/302/10 398/301/10
f 375/303/10 378/350/10 401/304/10 400/303/10
f 377/351/10 380/306/10 403/306/10 402/305/10
f 379/363/10 382/308/10 405/308/10 404/307/10
f 381/309/10 384/310/10 407/310/10 406/309/10
f 383/364/10 338/290/10 344/312/10 408/311/10
f 338/290/9 386/313/9 409/313/9 344/312/9
f 389/365/9 392/354/9 415/319/9 414/318/9
f 391/355/9 394/353/9 417/321/9 416/320/9
f 393/322/9 396/323/9 419/323/9 418/322/9
f 395/324/9 339/298/9 341/298/9 420/324/9
f 335/20/8 591/287/8 607/287/8 628/386/8 627/387/8 626/388/8 606/20/8
f 647/416/8 709/417/8 713/417/8 722/416/8
f 626/388/8 627/387/8 720/387/8 716/388/8
f 654/411/3 655/410/3 656/418/3
f 657/406/3 658/405/3 659/419/3
f 660/415/3 661/409/3 662/420/3
f 663/407/3 664/404/3 665/421/3
f 644/424/3 708/26/3 630/25/3 656/418/3 655/410/3
f 607/287/10 604/291/10 710/291/10 719/287/10
f 652/402/3 663/407/3 707/425/3 706/426/3
f 643/395/3 654/411/3 658/405/3 645/422/3
f 706/426/9 707/425/9 721/425/9 717/426/9
f 646/423/3 657/406/3 661/409/3 648/408/3
f 649/412/3 660/415/3 664/404/3 651/403/3
f 647/416/3 644/424/3 655/410/3 642/396/3
f 706/426/3 653/427/3 709/417/3 647/416/3
f 654/411/3 656/418/3 630/25/3 631/24/3 659/419/3 658/405/3
f 709/417/2 653/427/2 714/427/2 713/417/2
f 657/406/3 659/419/3 631/24/3 632/23/3 662/420/3 661/409/3
f 660/415/3 662/420/3 632/23/3 633/22/3 665/421/3 664/404/3
f 663/407/3 665/421/3 633/22/3 650/21/3 707/425/3
f 627/387/8 628/386/8 718/386/8 720/387/8
f 718/386/3 714/427/3 717/426/3 720/387/3
f 717/426/3 721/425/3 716/388/3 720/387/3
f 710/291/3 711/294/3 713/417/3 714/427/3 718/386/3 719/287/3
f 715/292/3 723/424/3 722/416/3 712/293/3
f 722/416/3 713/417/3 711/294/3 712/293/3
f 604/291/9 629/294/9 711/294/9 710/291/9
f 653/427/9 706/426/9 717/426/9 714/427/9
f 628/386/8 607/287/8 719/287/8 718/386/8
f 644/424/8 647/416/8 722/416/8 723/424/8
f 624/293/9 625/292/9 715/292/9 712/293/9
f 629/294/9 624/293/9 712/293/9 711/294/9
f 724/437/12 727/20/12 726/438/12 725/439/12
f 728/440/12 731/26/12 730/441/12 729/442/12
f 650/21/2 606/20/2 727/20/2 724/437/2
f 721/425/3 725/439/3 726/438/3 716/388/3
f 707/425/9 650/21/9 724/437/9 725/439/9 721/425/9
f 606/20/8 626/388/8 716/388/8 726/438/8 727/20/8
f 729/442/3 730/441/3 723/424/3 715/292/3
f 605/19/2 708/26/2 731/26/2 728/440/2
f 625/292/9 605/19/9 728/440/9 729/442/9 715/292/9
f 708/26/8 644/424/8 723/424/8 730/441/8 731/26/8
f 752/458/10 764/458/10 767/459/10 749/459/10
f 767/459/3 764/458/3 765/462/3 766/461/3
f 751/462/2 750/461/2 766/461/2 765/462/2
f 752/458/9 751/462/9 765/462/9 764/458/9
f 782/473/8 781/474/8 794/474/8 793/473/8
f 795/476/3 792/477/3 793/473/3 794/474/3
f 781/474/10 780/476/10 795/476/10 794/474/10
f 780/476/9 783/477/9 792/477/9 795/476/9
f 783/477/2 782/473/2 793/473/2 792/477/2
f 706/426/1 647/416/1 642/494/1 643/495/1 646/496/1
f 646/496/1 648/497/1 649/498/1 651/499/1 652/402/1
f 706/426/3 646/496/3 652/402/3
f 351/352/2 817/513/2 818/512/2 354/366/2 437/342/2 436/341/2
f 591/287/10 827/514/10 828/517/10 819/506/10 820/509/10 866/552/10 867/555/10 600/291/10 604/291/10 607/287/10
f 357/347/2 825/521/2 826/520/2 360/348/2 443/348/2 442/347/2
f 363/376/8 837/537/8 838/536/8 366/377/8 425/330/8 424/329/8
f 367/378/8 845/530/8 846/529/8 370/382/8 429/334/8 428/333/8
f 387/368/9 876/569/9 877/568/9 390/369/9 413/317/9 412/316/9
f 750/461/8 886/577/8 887/576/8 749/459/8 767/459/8 766/461/8
f 385/314/9 892/578/9 893/579/9 388/367/9 411/315/9 410/314/9
usemtl M_Steel
f 264/255/8 265/254/8 266/262/8
f 267/253/8 268/252/8 269/263/8
f 270/259/8 271/258/8 272/242/8
f 273/250/8 274/249/8 275/264/8
f 276/257/8 277/260/8 278/265/8
f 279/248/8 280/247/8 281/266/8
f 282/254/8 283/256/8 284/262/8
f 285/252/8 286/253/8 287/263/8
f 288/258/8 289/261/8 290/242/8
f 291/249/8 292/251/8 293/243/8
f 294/260/8 295/257/8 296/267/8
f 297/247/8 298/248/8 299/266/8
f 238/239/8 239/239/8 283/256/8 264/255/8
f 245/240/8 266/262/8 265/254/8 267/253/8 269/263/8 244/241/8
f 235/239/8 238/239/8 264/255/8 266/262/8 245/240/8
f 265/254/8 282/254/8 286/253/8 267/253/8
f 244/241/8 269/263/8 268/252/8 270/259/8 272/242/8 243/242/8
f 268/252/8 285/252/8 289/261/8 270/259/8
f 243/242/8 272/242/8 271/258/8 273/250/8 275/264/8 242/243/8
f 271/258/8 288/258/8 292/251/8 273/250/8
f 242/243/8 275/264/8 274/249/8 276/257/8 278/265/8 241/244/8
f 274/249/8 291/249/8 295/257/8 276/257/8
f 241/244/8 278/265/8 277/260/8 279/248/8 281/266/8 240/245/8
f 277/260/8 294/260/8 298/248/8 279/248/8
f 240/245/8 281/266/8 280/247/8 237/246/8 230/246/8
f 280/247/8 297/247/8 236/246/8 237/246/8
f 282/254/8 284/262/8 251/268/8 250/241/8 287/263/8 286/253/8
f 285/252/8 287/263/8 250/241/8 249/242/8 290/242/8 289/261/8
f 288/258/8 290/242/8 249/242/8 248/269/8 293/243/8 292/251/8
f 291/249/8 293/243/8 248/269/8 247/270/8 296/267/8 295/257/8
f 294/260/8 296/267/8 247/270/8 246/266/8 299/266/8 298/248/8
f 322/271/8 323/272/8 324/273/8
f 325/274/8 326/275/8 327/276/8
f 318/237/14 315/277/14 314/278/14 319/279/14
f 312/189/12 317/188/12 316/280/12 313/281/12
f 328/282/13 323/272/13 322/271/13 329/246/13
f 320/239/11 326/275/11 325/274/11 321/283/11
f 313/281/3 316/280/3 229/285/3 319/279/3 314/278/3 334/286/3
f 225/189/2 228/188/2 232/188/2 317/188/2 312/189/2 340/189/2
f 227/237/10 226/238/10 345/277/10 315/277/10 318/237/10 231/237/10
f 232/188/8 324/273/8 323/272/8 325/274/8 327/276/8 231/237/8 318/237/8 319/279/8 229/285/8 316/280/8 317/188/8
f 233/239/2 326/275/2 320/239/2 239/239/2 238/239/2 235/239/2
f 325/274/1 323/272/1 328/282/1 246/266/1 247/270/1 248/269/1 249/242/1 250/241/1 251/268/1 321/283/1
f 239/239/8 320/239/8 321/283/8 251/268/8 284/262/8 283/256/8
f 322/271/10 234/246/10 230/246/10 237/246/10 236/246/10 329/246/10
f 228/188/8 234/246/8 322/271/8 324/273/8 232/188/8
f 233/239/8 227/237/8 231/237/8 327/276/8 326/275/8
f 297/247/8 299/266/8 246/266/8 328/282/8 329/246/8 236/246/8
f 315/277/9 346/299/9 312/189/9 313/281/9 334/286/9 314/278/9
f 345/277/9 589/383/9 590/384/9 340/189/9 312/189/9 346/299/9 315/277/9
f 592/385/9 225/189/9 340/189/9 590/384/9
f 226/238/9 593/383/9 589/383/9 345/277/9
f 598/383/18 597/384/18 596/384/18 599/383/18
f 590/384/3 589/383/3 599/383/3 596/384/3
f 592/385/2 590/384/2 596/384/2 597/384/2 595/385/2
f 589/383/10 593/383/10 594/383/10 598/383/10 599/383/10
f 621/389/3 622/390/3 623/391/3 620/392/3
f 611/288/9 616/288/9 619/289/9 608/289/9
f 614/389/8 613/390/8 622/390/8 621/389/8
f 615/392/2 614/389/2 621/389/2 620/392/2
f 611/288/2 610/393/2 617/393/2 616/288/2
f 617/393/3 618/394/3 619/289/3 616/288/3
f 610/393/8 609/394/8 618/394/8 617/393/8
f 609/394/10 608/289/10 619/289/10 618/394/10
f 613/390/10 612/391/10 623/391/10 622/390/10
f 615/392/9 620/392/9 623/391/9 612/391/9
f 754/447/3 755/446/3 758/445/3 759/448/3
f 736/443/3 753/451/3 756/452/3 757/444/3
f 744/443/9 743/451/9 753/451/9 736/443/9
f 744/443/10 736/443/10 757/444/10 737/444/10
f 748/456/10 760/456/10 763/457/10 745/457/10
f 741/446/2 740/445/2 758/445/2 755/446/2
f 742/447/10 754/447/10 759/448/10 739/448/10
f 742/447/9 741/446/9 755/446/9 754/447/9
f 743/451/2 738/452/2 756/452/2 753/451/2
f 763/457/3 760/456/3 761/455/3 762/454/3
f 747/455/2 746/454/2 762/454/2 761/455/2
f 748/456/9 747/455/9 761/455/9 760/456/9
f 778/467/9 773/468/9 790/468/9 787/467/9
f 772/469/8 779/470/8 786/470/8 791/469/8
f 785/471/3 788/472/3 789/478/3 784/475/3
f 787/467/3 790/468/3 791/469/3 786/470/3
f 779/470/10 778/467/10 787/467/10 786/470/10
f 774/478/8 777/475/8 784/475/8 789/478/8
f 776/471/9 775/472/9 788/472/9 785/471/9
f 777/475/10 776/471/10 785/471/10 784/475/10
f 595/385/9 597/384/9 598/383/9 594/383/9 851/597/9 852/598/9 847/599/9 848/600/9 839/601/9 840/602/9
f 775/472/2 858/545/2 859/544/2 774/478/2 789/478/2 788/472/2
f 773/468/2 860/551/2 861/550/2 772/469/2 791/469/2 790/468/2
f 738/452/8 870/561/8 871/560/8 737/444/8 757/444/8 756/452/8
f 740/445/8 878/562/8 879/565/8 739/448/8 759/448/8 758/445/8
f 746/454/8 884/570/8 885/573/8 745/457/8 763/457/8 762/454/8
usemtl M_Gris_Metal
f 493/361/14 496/362/14 495/370/14 494/300/14
f 497/302/14 500/303/14 499/303/14 498/302/14
f 501/350/14 504/371/14 503/371/14 502/350/14
f 505/306/14 508/363/14 507/372/14 506/306/14
f 509/308/14 512/309/14 511/309/14 510/308/14
f 513/310/14 516/364/14 515/373/14 514/310/14
f 517/313/18 520/314/18 519/314/18 518/313/18
f 521/367/18 524/368/18 523/316/18 522/315/18
f 525/317/18 528/318/18 527/318/18 526/317/18
f 529/354/18 532/355/18 531/355/18 530/354/18
f 533/353/18 536/322/18 535/322/18 534/353/18
f 537/323/18 540/324/18 539/374/18 538/323/18
f 541/326/16 544/327/16 543/375/16 542/326/16
f 545/357/16 548/376/16 547/329/16 546/328/16
f 549/377/16 552/331/16 551/331/16 550/330/16
f 553/358/16 556/378/16 555/379/16 554/358/16
f 557/334/16 560/335/16 559/335/16 558/334/16
f 561/336/16 564/360/16 563/360/16 562/336/16
f 565/338/12 568/339/12 567/339/12 566/338/12
f 569/340/12 572/380/12 571/352/12 570/340/12
f 573/366/12 576/356/12 575/356/12 574/366/12
f 577/381/12 580/345/12 579/345/12 578/381/12
f 581/346/12 584/347/12 583/347/12 582/346/12
f 585/348/12 588/349/12 587/349/12 586/348/12
f 398/301/3 397/300/3 494/300/3 495/370/3
f 446/362/10 496/362/10 493/361/10 445/361/10
f 397/300/8 374/361/8 445/361/8 493/361/8 494/300/8
f 373/362/9 398/301/9 495/370/9 496/362/9 446/362/9
f 400/303/3 399/302/3 498/302/3 499/303/3
f 448/303/10 500/303/10 497/302/10 447/302/10
f 399/302/8 376/302/8 447/302/8 497/302/8 498/302/8
f 375/303/9 400/303/9 499/303/9 500/303/9 448/303/9
f 402/305/3 401/304/3 502/350/3 503/371/3
f 450/351/10 504/371/10 501/350/10 449/350/10
f 401/304/8 378/350/8 449/350/8 501/350/8 502/350/8
f 377/351/9 402/305/9 503/371/9 504/371/9 450/351/9
f 404/307/3 403/306/3 506/306/3 507/372/3
f 452/363/10 508/363/10 505/306/10 451/306/10
f 403/306/8 380/306/8 451/306/8 505/306/8 506/306/8
f 379/363/9 404/307/9 507/372/9 508/363/9 452/363/9
f 406/309/3 405/308/3 510/308/3 511/309/3
f 454/309/10 512/309/10 509/308/10 453/308/10
f 405/308/8 382/308/8 453/308/8 509/308/8 510/308/8
f 381/309/9 406/309/9 511/309/9 512/309/9 454/309/9
f 408/311/3 407/310/3 514/310/3 515/373/3
f 456/364/10 516/364/10 513/310/10 455/310/10
f 407/310/8 384/310/8 455/310/8 513/310/8 514/310/8
f 383/364/9 408/311/9 515/373/9 516/364/9 456/364/9
f 410/314/3 409/313/3 518/313/3 519/314/3
f 458/314/9 520/314/9 517/313/9 457/313/9
f 409/313/10 386/313/10 457/313/10 517/313/10 518/313/10
f 385/314/2 410/314/2 519/314/2 520/314/2 458/314/2
f 460/368/9 524/368/9 521/367/9 459/367/9
f 411/315/10 388/367/10 459/367/10 521/367/10 522/315/10
f 412/316/3 411/315/3 522/315/3 523/316/3
f 387/368/2 412/316/2 523/316/2 524/368/2 460/368/2
f 462/365/9 528/318/9 525/317/9 461/369/9
f 413/317/10 390/369/10 461/369/10 525/317/10 526/317/10
f 414/318/3 413/317/3 526/317/3 527/318/3
f 389/365/2 414/318/2 527/318/2 528/318/2 462/365/2
f 416/320/3 415/319/3 530/354/3 531/355/3
f 464/355/9 532/355/9 529/354/9 463/354/9
f 415/319/10 392/354/10 463/354/10 529/354/10 530/354/10
f 391/355/2 416/320/2 531/355/2 532/355/2 464/355/2
f 418/322/3 417/321/3 534/353/3 535/322/3
f 466/322/9 536/322/9 533/353/9 465/353/9
f 417/321/10 394/353/10 465/353/10 533/353/10 534/353/10
f 393/322/2 418/322/2 535/322/2 536/322/2 466/322/2
f 420/324/3 419/323/3 538/323/3 539/374/3
f 468/324/9 540/324/9 537/323/9 467/323/9
f 419/323/10 396/323/10 467/323/10 537/323/10 538/323/10
f 395/324/2 420/324/2 539/374/2 540/324/2 468/324/2
f 422/327/3 421/326/3 542/326/3 543/375/3
f 421/326/2 362/326/2 469/326/2 541/326/2 542/326/2
f 361/327/10 422/327/10 543/375/10 544/327/10 470/327/10
f 424/329/3 423/328/3 546/328/3 547/329/3
f 426/331/3 425/330/3 550/330/3 551/331/3
f 474/331/8 552/331/8 549/377/8 473/377/8
f 428/333/3 427/332/3 554/358/3 555/379/3
f 476/378/8 556/378/8 553/358/8 475/358/8
f 478/359/8 560/335/8 557/334/8 477/382/8
f 430/335/3 429/334/3 558/334/3 559/335/3
f 431/336/2 372/336/2 479/336/2 561/336/2 562/336/2
f 432/337/3 431/336/3 562/336/3 563/360/3
f 371/360/10 432/337/10 563/360/10 564/360/10 480/360/10
f 434/339/3 433/338/3 566/338/3 567/339/3
f 482/339/2 568/339/2 565/338/2 481/338/2
f 433/338/9 350/338/9 481/338/9 565/338/9 566/338/9
f 349/339/8 434/339/8 567/339/8 568/339/8 482/339/8
f 436/341/3 435/340/3 570/340/3 571/352/3
f 484/352/2 572/380/2 569/340/2 483/340/2
f 435/340/9 352/340/9 483/340/9 569/340/9 570/340/9
f 351/352/8 436/341/8 571/352/8 572/380/8 484/352/8
f 438/343/3 437/342/3 574/366/3 575/356/3
f 486/356/2 576/356/2 573/366/2 485/366/2
f 437/342/9 354/366/9 485/366/9 573/366/9 574/366/9
f 353/356/8 438/343/8 575/356/8 576/356/8 486/356/8
f 440/345/3 439/344/3 578/381/3 579/345/3
f 488/345/2 580/345/2 577/381/2 487/344/2
f 439/344/9 356/344/9 487/344/9 577/381/9 578/381/9
f 355/345/8 440/345/8 579/345/8 580/345/8 488/345/8
f 442/347/3 441/346/3 582/346/3 583/347/3
f 490/347/2 584/347/2 581/346/2 489/346/2
f 441/346/9 358/346/9 489/346/9 581/346/9 582/346/9
f 357/347/8 442/347/8 583/347/8 584/347/8 490/347/8
f 444/349/3 443/348/3 586/348/3 587/349/3
f 492/349/2 588/349/2 585/348/2 491/348/2
f 443/348/9 360/348/9 491/348/9 585/348/9 586/348/9
f 359/349/8 444/349/8 587/349/8 588/349/8 492/349/8
f 470/327/8 544/327/8 541/326/8 469/326/8 796/479/8
f 472/376/8 548/376/8 545/357/8 471/357/8 797/483/8
f 545/357/2 546/328/2 423/328/2 364/357/2 798/357/2 471/357/2
f 363/376/10 424/329/10 547/329/10 548/376/10 472/376/10 799/376/10
f 549/377/2 550/330/2 425/330/2 366/377/2 800/377/2 473/377/2
f 365/331/10 426/331/10 551/331/10 552/331/10 474/331/10 801/331/10
f 553/358/2 554/358/2 427/332/2 368/358/2 802/358/2 475/358/2
f 367/378/10 428/333/10 555/379/10 556/378/10 476/378/10 803/378/10
f 557/334/2 558/334/2 429/334/2 370/382/2 804/382/2 477/382/2
f 369/359/10 430/335/10 559/335/10 560/335/10 478/359/10 805/493/10
f 480/360/8 564/360/8 561/336/8 479/336/8 806/492/8
