# Blender 5.1.2
# www.blender.org
mtllib SM_Copper_Coil.mtl
o SM_Copper_Coil
v -0.067814 0.046969 -0.117458
v -0.067814 0.248326 -0.117458
v 0.000000 0.248326 -0.135629
v 0.000000 0.046969 -0.135629
v -0.117458 0.050053 -0.067814
v -0.117458 0.248326 -0.067814
v -0.135629 0.050053 0.000000
v -0.135629 0.248326 0.000000
v -0.117458 0.050053 0.067814
v -0.117458 0.251410 0.067814
v -0.067814 0.050053 0.117458
v -0.067814 0.251410 0.117458
v 0.000000 0.046969 0.135629
v 0.000000 0.251410 0.135629
v 0.067814 0.046969 0.117458
v 0.067814 0.248326 0.117458
v 0.117458 0.046969 0.067814
v 0.117458 0.248326 0.067814
v 0.135629 0.050053 0.000000
v 0.135629 0.251410 0.000000
v 0.117458 0.050053 -0.067814
v 0.117458 0.251410 -0.067814
v 0.067814 0.046969 -0.117458
v 0.067814 0.251410 -0.117458
v -0.067814 0.251410 -0.117458
v 0.000000 0.251410 -0.135629
v 0.000000 0.050053 -0.135629
v -0.067814 0.050053 -0.117458
v -0.117458 0.251410 -0.067814
v -0.117458 0.046969 -0.067814
v -0.135629 0.251410 0.000000
v -0.135629 0.046969 0.000000
v -0.117458 0.248326 0.067814
v -0.117458 0.046969 0.067814
v -0.067814 0.248326 0.117458
v -0.067814 0.046969 0.117458
v 0.000000 0.248326 0.135629
v 0.000000 0.050053 0.135629
v 0.067814 0.251410 0.117458
v 0.067814 0.050053 0.117458
v 0.117458 0.251410 0.067814
v 0.117458 0.050053 0.067814
v 0.135629 0.248326 0.000000
v 0.135629 0.046969 0.000000
v 0.117458 0.248326 -0.067814
v 0.117458 0.046969 -0.067814
v 0.067814 0.248326 -0.117458
v 0.067814 0.050053 -0.117458
v -0.063879 0.050053 -0.110642
v -0.063879 0.248326 -0.110642
v 0.000000 0.248326 -0.127758
v 0.000000 0.050053 -0.127758
v -0.110642 0.050053 -0.063879
v -0.110642 0.248326 -0.063879
v -0.127758 0.050053 0.000000
v -0.127758 0.248326 0.000000
v -0.110642 0.050053 0.063879
v -0.110642 0.248326 0.063879
v -0.063879 0.050053 0.110642
v -0.063879 0.248326 0.110642
v 0.000000 0.050053 0.127758
v 0.000000 0.248326 0.127758
v 0.063879 0.050053 0.110642
v 0.063879 0.248326 0.110642
v 0.110642 0.050053 0.063879
v 0.110642 0.248326 0.063879
v 0.127758 0.050053 0.000000
v 0.127758 0.248326 0.000000
v 0.110642 0.050053 -0.063879
v 0.110642 0.248326 -0.063879
v 0.063879 0.050053 -0.110642
v 0.063879 0.248326 -0.110642
v 0.000000 0.000000 -0.114802
v 0.000000 0.004884 -0.149190
v 0.000000 0.293495 -0.149190
v 0.000000 0.298379 -0.114802
v 0.074595 0.004884 -0.129202
v 0.057401 0.000000 -0.099422
v 0.057401 0.298379 -0.099422
v 0.074595 0.293495 -0.129202
v 0.129202 0.004884 -0.074595
v 0.099422 0.000000 -0.057401
v 0.099422 0.298379 -0.057401
v 0.129202 0.293495 -0.074595
v 0.149190 0.004884 0.000000
v 0.114802 0.000000 0.000000
v 0.114802 0.298379 0.000000
v 0.149190 0.293495 0.000000
v 0.129202 0.004884 0.074595
v 0.099422 0.000000 0.057401
v 0.099422 0.298379 0.057401
v 0.129202 0.293495 0.074595
v 0.074595 0.004884 0.129202
v 0.057401 0.000000 0.099422
v 0.057401 0.298379 0.099422
v 0.074595 0.293495 0.129202
v 0.000000 0.004884 0.149190
v 0.000000 0.000000 0.114802
v 0.000000 0.298379 0.114802
v 0.000000 0.293495 0.149190
v -0.074595 0.004884 0.129202
v -0.057401 0.000000 0.099422
v -0.057401 0.298379 0.099422
v -0.074595 0.293495 0.129202
v -0.129202 0.004884 0.074595
v -0.099422 0.000000 0.057401
v -0.099422 0.298379 0.057401
v -0.129202 0.293495 0.074595
v -0.149190 0.004884 0.000000
v -0.114802 0.000000 0.000000
v -0.114802 0.298379 0.000000
v -0.149190 0.293495 0.000000
v -0.129202 0.004884 -0.074595
v -0.099422 0.000000 -0.057401
v -0.099422 0.298379 -0.057401
v -0.129202 0.293495 -0.074595
v -0.074595 0.004884 -0.129202
v -0.057401 0.000000 -0.099422
v -0.057401 0.298379 -0.099422
v -0.074595 0.293495 -0.129202
v 0.000000 0.256294 -0.149190
v 0.000000 0.251410 -0.144133
v 0.000000 0.046969 -0.144133
v 0.000000 0.042085 -0.149190
v 0.074595 0.042085 -0.129202
v 0.072067 0.046969 -0.124823
v 0.072067 0.251410 -0.124823
v 0.074595 0.256294 -0.129202
v 0.129202 0.042085 -0.074595
v 0.124823 0.046969 -0.072067
v 0.124823 0.251410 -0.072067
v 0.129202 0.256294 -0.074595
v 0.149190 0.042085 0.000000
v 0.144133 0.046969 0.000000
v 0.144133 0.251410 0.000000
v 0.149190 0.256294 0.000000
v 0.129202 0.042085 0.074595
v 0.124823 0.046969 0.072067
v 0.124823 0.251410 0.072067
v 0.129202 0.256294 0.074595
v 0.074595 0.042085 0.129202
v 0.072067 0.046969 0.124823
v 0.072067 0.251410 0.124823
v 0.074595 0.256294 0.129202
v 0.000000 0.042085 0.149190
v 0.000000 0.046969 0.144133
v 0.000000 0.251410 0.144133
v 0.000000 0.256294 0.149190
v -0.074595 0.042085 0.129202
v -0.072067 0.046969 0.124823
v -0.072067 0.251410 0.124823
v -0.074595 0.256294 0.129202
v -0.129202 0.042085 0.074595
v -0.124823 0.046969 0.072067
v -0.124823 0.251410 0.072067
v -0.129202 0.256294 0.074595
v -0.149190 0.042085 0.000000
v -0.144133 0.046969 0.000000
v -0.144133 0.251410 0.000000
v -0.149190 0.256294 0.000000
v -0.129202 0.042085 -0.074595
v -0.124823 0.046969 -0.072067
v -0.124823 0.251410 -0.072067
v -0.129202 0.256294 -0.074595
v -0.074595 0.042085 -0.129202
v -0.072067 0.046969 -0.124823
v -0.072067 0.251410 -0.124823
v -0.074595 0.256294 -0.129202
v -0.065986 0.062445 -0.114292
v -0.063879 0.074837 -0.110642
v -0.065986 0.087229 -0.114292
v -0.063879 0.099621 -0.110642
v -0.065986 0.112013 -0.114292
v -0.063879 0.124405 -0.110642
v -0.065986 0.136798 -0.114292
v -0.063879 0.149190 -0.110642
v -0.065986 0.161566 -0.113967
v -0.063879 0.173974 -0.110642
v -0.065986 0.186366 -0.114292
v -0.063879 0.198758 -0.110642
v -0.065986 0.211150 -0.114292
v -0.063879 0.223542 -0.110642
v -0.065986 0.235934 -0.114292
v 0.000000 0.235934 -0.131973
v 0.000000 0.223542 -0.127758
v 0.000000 0.211150 -0.131973
v 0.000000 0.198758 -0.127758
v 0.000000 0.186366 -0.131973
v 0.000000 0.174367 -0.131648
v 0.000000 0.161566 -0.131648
v 0.000000 0.149190 -0.127758
v 0.000000 0.136798 -0.131973
v 0.000000 0.124405 -0.127758
v 0.000000 0.112013 -0.131973
v 0.000000 0.099621 -0.127758
v 0.000000 0.087229 -0.131973
v 0.000000 0.074837 -0.127758
v 0.000000 0.062445 -0.131973
v -0.114292 0.062445 -0.065986
v -0.110642 0.074837 -0.063879
v -0.114292 0.087229 -0.065986
v -0.110642 0.099621 -0.063879
v -0.114292 0.112013 -0.065986
v -0.110642 0.124405 -0.063879
v -0.114292 0.136798 -0.065986
v -0.110642 0.149190 -0.063879
v -0.114292 0.161566 -0.065662
v -0.110642 0.173974 -0.063879
v -0.114292 0.186366 -0.065986
v -0.110642 0.198758 -0.063879
v -0.114292 0.211150 -0.065986
v -0.110642 0.223542 -0.063879
v -0.114292 0.235934 -0.065986
v -0.131973 0.062445 0.000000
v -0.127758 0.074837 0.000000
v -0.131973 0.087229 0.000000
v -0.127758 0.099621 0.000000
v -0.131973 0.112013 0.000000
v -0.127758 0.124405 0.000000
v -0.131973 0.136798 0.000000
v -0.127758 0.149190 0.000000
v -0.131973 0.161566 0.000324
v -0.127758 0.173974 0.000000
v -0.131973 0.186366 0.000000
v -0.127758 0.198758 0.000000
v -0.131973 0.211150 0.000000
v -0.127758 0.223542 0.000000
v -0.131973 0.235934 0.000000
v -0.114292 0.062445 0.065986
v -0.110642 0.074837 0.063879
v -0.114292 0.087229 0.065986
v -0.110642 0.099621 0.063879
v -0.114292 0.112013 0.065986
v -0.110642 0.124405 0.063879
v -0.114292 0.136798 0.065986
v -0.110642 0.149190 0.063879
v -0.114292 0.161566 0.066310
v -0.110642 0.173974 0.063879
v -0.114292 0.186366 0.065986
v -0.110642 0.198758 0.063879
v -0.114292 0.211150 0.065986
v -0.110642 0.223542 0.063879
v -0.114292 0.235934 0.065986
v -0.065986 0.062445 0.114292
v -0.063879 0.074837 0.110642
v -0.065986 0.087229 0.114292
v -0.063879 0.099621 0.110642
v -0.065986 0.112013 0.114292
v -0.063879 0.124405 0.110642
v -0.065986 0.136798 0.114292
v -0.063879 0.149190 0.110642
v -0.065986 0.161566 0.114616
v -0.063879 0.173974 0.110642
v -0.065986 0.186366 0.114292
v -0.063879 0.198758 0.110642
v -0.065986 0.211150 0.114292
v -0.063879 0.223542 0.110642
v -0.065986 0.235934 0.114292
v 0.000000 0.062445 0.131973
v 0.000000 0.074837 0.127758
v 0.000000 0.087229 0.131973
v 0.000000 0.099621 0.127758
v 0.000000 0.112013 0.131973
v 0.000000 0.124405 0.127758
v 0.000000 0.136798 0.131973
v 0.000000 0.149190 0.127758
v 0.000000 0.161566 0.132297
v 0.000000 0.173974 0.127758
v 0.000000 0.186366 0.131973
v 0.000000 0.198758 0.127758
v 0.000000 0.211150 0.131973
v 0.000000 0.223542 0.127758
v 0.000000 0.235934 0.131973
v 0.065986 0.062445 0.114292
v 0.063879 0.074837 0.110642
v 0.065986 0.087229 0.114292
v 0.063879 0.099621 0.110642
v 0.065986 0.112013 0.114292
v 0.063879 0.124405 0.110642
v 0.065986 0.136798 0.114292
v 0.063879 0.149190 0.110642
v 0.065986 0.161566 0.114616
v 0.063879 0.173974 0.110642
v 0.065986 0.186366 0.114292
v 0.063879 0.198758 0.110642
v 0.065986 0.211150 0.114292
v 0.063879 0.223542 0.110642
v 0.065986 0.235934 0.114292
v 0.114292 0.062445 0.065986
v 0.110642 0.074837 0.063879
v 0.114292 0.087229 0.065986
v 0.110642 0.099621 0.063879
v 0.114292 0.112013 0.065986
v 0.110642 0.124405 0.063879
v 0.114292 0.136798 0.065986
v 0.110642 0.149190 0.063879
v 0.114292 0.161566 0.066310
v 0.110642 0.173974 0.063879
v 0.114292 0.186366 0.065986
v 0.110642 0.198758 0.063879
v 0.114292 0.211150 0.065986
v 0.110642 0.223542 0.063879
v 0.114292 0.235934 0.065986
v 0.131973 0.062445 0.000000
v 0.127758 0.074837 0.000000
v 0.131973 0.087229 0.000000
v 0.127758 0.099621 0.000000
v 0.131973 0.112013 0.000000
v 0.127758 0.124405 0.000000
v 0.131973 0.136798 0.000000
v 0.127758 0.149190 0.000000
v 0.131973 0.161566 0.000324
v 0.127758 0.173974 0.000000
v 0.131973 0.186366 0.000000
v 0.127758 0.198758 0.000000
v 0.131973 0.211150 0.000000
v 0.127758 0.223542 0.000000
v 0.131973 0.235934 0.000000
v 0.114292 0.062445 -0.065986
v 0.110642 0.074837 -0.063879
v 0.114292 0.087229 -0.065986
v 0.110642 0.099621 -0.063879
v 0.114292 0.112013 -0.065986
v 0.110642 0.124405 -0.063879
v 0.114292 0.136798 -0.065986
v 0.110642 0.149190 -0.063879
v 0.114292 0.161566 -0.065662
v 0.110642 0.173974 -0.063879
v 0.114292 0.186366 -0.065986
v 0.110642 0.198758 -0.063879
v 0.114292 0.211150 -0.065986
v 0.110642 0.223542 -0.063879
v 0.114292 0.235934 -0.065986
v 0.065986 0.062445 -0.114292
v 0.063879 0.074837 -0.110642
v 0.065986 0.087229 -0.114292
v 0.063879 0.099621 -0.110642
v 0.065986 0.112013 -0.114292
v 0.063879 0.124405 -0.110642
v 0.065986 0.136798 -0.114292
v 0.063879 0.149190 -0.110642
v 0.065986 0.161566 -0.113967
v 0.063879 0.173974 -0.110642
v 0.065986 0.186366 -0.114292
v 0.063879 0.198758 -0.110642
v 0.065986 0.211150 -0.114292
v 0.063879 0.223542 -0.110642
v 0.065986 0.235934 -0.114292
v 0.072067 0.000000 -0.124823
v 0.000000 0.000000 -0.144133
v 0.000000 0.298379 -0.144133
v 0.072067 0.298379 -0.124823
v 0.124823 0.000000 -0.072067
v 0.124823 0.298379 -0.072067
v 0.144133 0.000000 0.000000
v 0.144133 0.298379 0.000000
v 0.124823 0.000000 0.072067
v 0.124823 0.298379 0.072067
v 0.072067 0.000000 0.124823
v 0.072067 0.298379 0.124823
v 0.000000 0.000000 0.144133
v 0.000000 0.298379 0.144133
v -0.072067 0.000000 0.124823
v -0.072067 0.298379 0.124823
v -0.124823 0.000000 0.072067
v -0.124823 0.298379 0.072067
v -0.144133 0.000000 0.000000
v -0.144133 0.298379 0.000000
v -0.124823 0.000000 -0.072067
v -0.124823 0.298379 -0.072067
v -0.072067 0.000000 -0.124823
v -0.072067 0.298379 -0.124823
v 0.052645 0.007476 -0.091183
v 0.000000 0.007476 -0.105289
v 0.000000 0.290903 -0.105289
v 0.052645 0.290903 -0.091183
v 0.091183 0.007476 -0.052645
v 0.091183 0.290903 -0.052645
v 0.105289 0.007476 0.000000
v 0.105289 0.290903 0.000000
v 0.091183 0.007476 0.052645
v 0.091183 0.290903 0.052645
v 0.052645 0.007476 0.091183
v 0.052645 0.290903 0.091183
v 0.000000 0.007476 0.105289
v 0.000000 0.290903 0.105289
v -0.052645 0.007476 0.091183
v -0.052645 0.290903 0.091183
v -0.091183 0.007476 0.052645
v -0.091183 0.290903 0.052645
v -0.105289 0.007476 0.000000
v -0.105289 0.290903 0.000000
v -0.091183 0.007476 -0.052645
v -0.091183 0.290903 -0.052645
v -0.052645 0.007476 -0.091183
v -0.052645 0.290903 -0.091183
v 0.057401 0.007476 -0.099422
v 0.000000 0.007476 -0.114802
v 0.000000 0.290903 -0.114802
v 0.057401 0.290903 -0.099422
v 0.099422 0.007476 -0.057401
v 0.099422 0.290903 -0.057401
v 0.114802 0.007476 0.000000
v 0.114802 0.290903 0.000000
v 0.099422 0.007476 0.057401
v 0.099422 0.290903 0.057401
v 0.057401 0.007476 0.099422
v 0.057401 0.290903 0.099422
v 0.000000 0.007476 0.114802
v 0.000000 0.290903 0.114802
v -0.057401 0.007476 0.099422
v -0.057401 0.290903 0.099422
v -0.099422 0.007476 0.057401
v -0.099422 0.290903 0.057401
v -0.114802 0.007476 0.000000
v -0.114802 0.290903 0.000000
v -0.099422 0.007476 -0.057401
v -0.099422 0.290903 -0.057401
v -0.057401 0.007476 -0.099422
v -0.057401 0.290903 -0.099422
v 0.025649 0.003412 -0.051153
v 0.003364 0.003412 -0.057125
v 0.003364 0.294967 -0.057125
v 0.025649 0.294967 -0.051153
v 0.047236 0.003412 -0.027272
v 0.047236 0.294967 -0.027272
v 0.054544 0.003412 0.000000
v 0.054544 0.294967 0.000000
v 0.047236 0.003412 0.027272
v 0.047236 0.294967 0.027272
v 0.027272 0.003412 0.047236
v 0.027272 0.294967 0.047236
v 0.000000 0.003412 0.054544
v 0.000000 0.294967 0.054544
v -0.027272 0.003412 0.047236
v -0.027272 0.294967 0.047236
v -0.051153 0.003412 0.025649
v -0.051153 0.294967 0.025649
v -0.057125 0.003412 0.003364
v -0.057125 0.294967 0.003364
v -0.047790 0.003412 -0.031475
v -0.047790 0.294967 -0.031475
v -0.031475 0.003412 -0.047790
v -0.031475 0.294967 -0.047790
v 0.047540 0.003412 -0.089069
v 0.003364 0.003412 -0.100906
v 0.003364 0.294967 -0.100906
v 0.047540 0.294967 -0.089069
v 0.091183 0.003412 -0.052645
v 0.091183 0.294967 -0.052645
v 0.105289 0.003412 0.000000
v 0.105289 0.294967 0.000000
v 0.091183 0.003412 0.052645
v 0.091183 0.294967 0.052645
v 0.052645 0.003412 0.091183
v 0.052645 0.294967 0.091183
v 0.000000 0.003412 0.105289
v 0.000000 0.294967 0.105289
v -0.052645 0.003412 0.091183
v -0.052645 0.294967 0.091183
v -0.089069 0.003412 0.047540
v -0.089069 0.294967 0.047540
v -0.100906 0.003412 0.003364
v -0.100906 0.294967 0.003364
v -0.085705 0.003412 -0.053366
v -0.085705 0.294967 -0.053366
v -0.053366 0.003412 -0.085705
v -0.053366 0.294967 -0.085705
v 0.063989 0.296692 -0.110832
v 0.065479 0.296692 -0.113413
v 0.110832 0.296692 -0.063989
v 0.113413 0.296692 -0.065479
v 0.127978 0.296692 0.000000
v 0.130958 0.296692 0.000000
v 0.110832 0.296692 0.063989
v 0.113413 0.296692 0.065479
v 0.063989 0.296692 0.110832
v 0.065479 0.296692 0.113413
v 0.000000 0.296692 0.127978
v 0.000000 0.296692 0.130958
v -0.063989 0.296692 0.110832
v -0.065479 0.296692 0.113413
v -0.110832 0.296692 0.063989
v -0.113413 0.296692 0.065479
v -0.127978 0.296692 0.000000
v -0.130958 0.296692 0.000000
v -0.110832 0.296692 -0.063989
v -0.113413 0.296692 -0.065479
v -0.063989 0.296692 -0.110832
v -0.065479 0.296692 -0.113413
v 0.000000 0.296692 -0.130958
v 0.000000 0.296692 -0.127978
v 0.000000 0.298379 -0.127978
v 0.000000 0.298379 -0.130958
v 0.065479 0.298379 -0.113413
v 0.063989 0.298379 -0.110832
v 0.113413 0.298379 -0.065479
v 0.110832 0.298379 -0.063989
v 0.130958 0.298379 0.000000
v 0.127978 0.298379 0.000000
v 0.113413 0.298379 0.065479
v 0.110832 0.298379 0.063989
v 0.065479 0.298379 0.113413
v 0.063989 0.298379 0.110832
v 0.000000 0.298379 0.130958
v 0.000000 0.298379 0.127978
v -0.065479 0.298379 0.113413
v -0.063989 0.298379 0.110832
v -0.113413 0.298379 0.065479
v -0.110832 0.298379 0.063989
v -0.130958 0.298379 0.000000
v -0.127978 0.298379 0.000000
v -0.113413 0.298379 -0.065479
v -0.110832 0.298379 -0.063989
v -0.065479 0.298379 -0.113413
v -0.063989 0.298379 -0.110832
v 0.063989 0.000000 -0.110832
v 0.065479 0.000000 -0.113413
v 0.000000 0.000000 -0.130958
v 0.000000 0.000000 -0.127978
v 0.110832 0.000000 -0.063989
v 0.113413 0.000000 -0.065479
v 0.127978 0.000000 0.000000
v 0.130958 0.000000 0.000000
v 0.110832 0.000000 0.063989
v 0.113413 0.000000 0.065479
v 0.063989 0.000000 0.110832
v 0.065479 0.000000 0.113413
v 0.000000 0.000000 0.127978
v 0.000000 0.000000 0.130958
v -0.063989 0.000000 0.110832
v -0.065479 0.000000 0.113413
v -0.110832 0.000000 0.063989
v -0.113413 0.000000 0.065479
v -0.127978 0.000000 0.000000
v -0.130958 0.000000 0.000000
v -0.110832 0.000000 -0.063989
v -0.113413 0.000000 -0.065479
v -0.063989 0.000000 -0.110832
v -0.065479 0.000000 -0.113413
v -0.063989 0.001687 -0.110832
v -0.065479 0.001687 -0.113413
v 0.000000 0.001687 -0.130958
v 0.000000 0.001687 -0.127978
v -0.110832 0.001687 -0.063989
v -0.113413 0.001687 -0.065479
v -0.127978 0.001687 0.000000
v -0.130958 0.001687 0.000000
v -0.110832 0.001687 0.063989
v -0.113413 0.001687 0.065479
v -0.063989 0.001687 0.110832
v -0.065479 0.001687 0.113413
v 0.000000 0.001687 0.127978
v 0.000000 0.001687 0.130958
v 0.063989 0.001687 0.110832
v 0.065479 0.001687 0.113413
v 0.110832 0.001687 0.063989
v 0.113413 0.001687 0.065479
v 0.127978 0.001687 0.000000
v 0.130958 0.001687 0.000000
v 0.110832 0.001687 -0.063989
v 0.113413 0.001687 -0.065479
v 0.063989 0.001687 -0.110832
v 0.065479 0.001687 -0.113413
v 0.037198 0.003412 -0.091840
v 0.013706 0.003412 -0.098134
v 0.013706 0.294967 -0.098134
v 0.037198 0.294967 -0.091840
v -0.098134 0.003412 0.013706
v -0.091840 0.003412 0.037198
v -0.091840 0.294967 0.037198
v -0.098134 0.294967 0.013706
v -0.060937 0.003412 -0.078134
v -0.078134 0.003412 -0.060937
v -0.078134 0.294967 -0.060937
v -0.060937 0.294967 -0.078134
v 0.022604 0.003412 -0.051969
v 0.006409 0.003412 -0.056309
v 0.006409 0.294967 -0.056309
v 0.022604 0.294967 -0.051969
v -0.056309 0.003412 0.006409
v -0.051969 0.003412 0.022604
v -0.051969 0.294967 0.022604
v -0.056309 0.294967 0.006409
v -0.033705 0.003412 -0.045560
v -0.045560 0.003412 -0.033705
v -0.045560 0.294967 -0.033705
v -0.033705 0.294967 -0.045560
v 0.017548 0.003412 -0.100587
v 0.000000 0.003412 -0.105289
v 0.035096 0.294967 -0.095885
v 0.052645 0.294967 -0.091183
v -0.095885 0.003412 0.035096
v -0.091183 0.003412 0.052645
v -0.100587 0.294967 0.017548
v -0.105289 0.294967 0.000000
v -0.078337 0.003412 -0.065491
v -0.091183 0.003412 -0.052645
v -0.065491 0.294967 -0.078337
v -0.052645 0.294967 -0.091183
v 0.009091 0.003412 -0.052108
v 0.000000 0.003412 -0.054544
v 0.018181 0.294967 -0.049672
v 0.027272 0.294967 -0.047236
v -0.049672 0.003412 0.018181
v -0.047236 0.003412 0.027272
v -0.052108 0.294967 0.009091
v -0.054544 0.294967 0.000000
v -0.040581 0.003412 -0.033927
v -0.047236 0.003412 -0.027272
v -0.033927 0.294967 -0.040581
v -0.027272 0.294967 -0.047236
v 0.052645 0.003412 -0.091183
v 0.035096 0.003412 -0.095885
v 0.000000 0.294967 -0.105289
v 0.017548 0.294967 -0.100587
v -0.105289 0.003412 0.000000
v -0.100587 0.003412 0.017548
v -0.091183 0.294967 0.052645
v -0.095885 0.294967 0.035096
v -0.052645 0.003412 -0.091183
v -0.065491 0.003412 -0.078337
v -0.091183 0.294967 -0.052645
v -0.078337 0.294967 -0.065491
v 0.027272 0.003412 -0.047236
v 0.018181 0.003412 -0.049672
v 0.000000 0.294967 -0.054544
v 0.009091 0.294967 -0.052108
v -0.054544 0.003412 0.000000
v -0.052108 0.003412 0.009091
v -0.047236 0.294967 0.027272
v -0.049672 0.294967 0.018181
v -0.027272 0.003412 -0.047236
v -0.033927 0.003412 -0.040581
v -0.047236 0.294967 -0.027272
v -0.040581 0.294967 -0.033927
v 0.013706 0.004506 -0.098134
v 0.003364 0.004506 -0.100906
v 0.037198 0.293873 -0.091840
v 0.047540 0.293873 -0.089069
v -0.091840 0.004506 0.037198
v -0.089069 0.004506 0.047540
v -0.098134 0.293873 0.013706
v -0.100906 0.293873 0.003364
v -0.078134 0.004506 -0.060937
v -0.085705 0.004506 -0.053366
v -0.060937 0.293873 -0.078134
v -0.053366 0.293873 -0.085705
v 0.006409 0.004506 -0.056309
v 0.003364 0.004506 -0.057125
v 0.022604 0.293873 -0.051969
v 0.025649 0.293873 -0.051153
v -0.051969 0.004506 0.022604
v -0.051153 0.004506 0.025649
v -0.056309 0.293873 0.006409
v -0.057125 0.293873 0.003364
v -0.045560 0.004506 -0.033705
v -0.047790 0.004506 -0.031475
v -0.033705 0.293873 -0.045560
v -0.031475 0.293873 -0.047790
v 0.047540 0.004506 -0.089069
v 0.037198 0.004506 -0.091840
v 0.003364 0.293873 -0.100906
v 0.013706 0.293873 -0.098134
v -0.100906 0.004506 0.003364
v -0.098134 0.004506 0.013706
v -0.089069 0.293873 0.047540
v -0.091840 0.293873 0.037198
v -0.053366 0.004506 -0.085705
v -0.060937 0.004506 -0.078134
v -0.085705 0.293873 -0.053366
v -0.078134 0.293873 -0.060937
v 0.025649 0.004506 -0.051153
v 0.022604 0.004506 -0.051969
v 0.003364 0.293873 -0.057125
v 0.006409 0.293873 -0.056309
v -0.057125 0.004506 0.003364
v -0.056309 0.004506 0.006409
v -0.051153 0.293873 0.025649
v -0.051969 0.293873 0.022604
v -0.031475 0.004506 -0.047790
v -0.033705 0.004506 -0.045560
v -0.047790 0.293873 -0.031475
v -0.045560 0.293873 -0.033705
v 0.000000 0.001049 -0.054544
v 0.027272 0.297330 -0.047236
v 0.047236 0.001049 -0.027272
v 0.027272 0.001049 -0.047236
v 0.047236 0.297330 -0.027272
v 0.054544 0.001049 0.000000
v 0.054544 0.297330 0.000000
v 0.047236 0.001049 0.027272
v 0.047236 0.297330 0.027272
v 0.027272 0.001049 0.047236
v 0.027272 0.297330 0.047236
v 0.000000 0.001049 0.054544
v 0.000000 0.297330 0.054544
v -0.027272 0.001049 0.047236
v -0.027272 0.297330 0.047236
v -0.047236 0.001049 0.027272
v -0.047236 0.297330 0.027272
v -0.054544 0.297330 0.000000
v -0.047236 0.001049 -0.027272
v -0.054544 0.001049 0.000000
v -0.047236 0.297330 -0.027272
v -0.027272 0.297330 -0.047236
v -0.027272 0.001049 -0.047236
v 0.000000 0.297330 -0.054544
v 0.020673 0.001049 -0.035807
v 0.035807 0.001049 -0.020673
v -0.035807 0.297330 0.020673
v -0.041346 0.001049 0.000000
v 0.020673 0.297330 -0.035807
v -0.035807 0.001049 0.020673
v 0.000000 0.001049 -0.041346
v -0.020673 0.297330 0.035807
v 0.000000 0.297330 0.041346
v 0.000000 0.297330 -0.041346
v 0.000000 0.001049 0.041346
v -0.020673 0.001049 0.035807
v 0.035807 0.297330 -0.020673
v 0.041346 0.001049 0.000000
v 0.041346 0.297330 0.000000
v 0.035807 0.001049 0.020673
v 0.035807 0.297330 0.020673
v 0.020673 0.001049 0.035807
v 0.020673 0.297330 0.035807
v -0.041346 0.297330 0.000000
v -0.035807 0.001049 -0.020673
v -0.035807 0.297330 -0.020673
v -0.020673 0.297330 -0.035807
v -0.020673 0.001049 -0.035807
vn -0.0000 -1.0000 -0.0000
vn -0.0000 1.0000 -0.0000
vn -0.2588 -0.0000 -0.9659
vn -0.7071 -0.0000 -0.7071
vn -0.9659 -0.0000 -0.2588
vn -0.9659 -0.0000 0.2588
vn -0.7071 -0.0000 0.7071
vn -0.2588 -0.0000 0.9659
vn 0.2588 -0.0000 0.9659
vn 0.7071 -0.0000 0.7071
vn 0.9659 -0.0000 0.2588
vn 0.9659 -0.0000 -0.2588
vn 0.7071 -0.0000 -0.7071
vn 0.2588 -0.0000 -0.9659
vn -0.2459 -0.3121 -0.9177
vn -0.6718 -0.3121 -0.6718
vn -0.9177 -0.3121 -0.2459
vn -0.9177 -0.3121 0.2459
vn -0.6718 -0.3121 0.6718
vn -0.2459 -0.3121 0.9177
vn 0.2459 -0.3121 0.9177
vn 0.6718 -0.3121 0.6718
vn 0.9177 -0.3121 0.2459
vn 0.9177 -0.3121 -0.2459
vn 0.6718 -0.3121 -0.6718
vn 0.2459 -0.3121 -0.9177
vn 0.1830 -0.7071 -0.6830
vn 0.1830 0.7071 -0.6830
vn 0.5000 -0.7071 -0.5000
vn 0.5000 0.7071 -0.5000
vn 0.6830 -0.7071 -0.1830
vn 0.6830 0.7071 -0.1830
vn 0.6830 -0.7071 0.1830
vn 0.6830 0.7071 0.1830
vn 0.5000 -0.7071 0.5000
vn 0.5000 0.7071 0.5000
vn 0.1830 -0.7071 0.6830
vn 0.1830 0.7071 0.6830
vn -0.1830 -0.7071 0.6830
vn -0.1830 0.7071 0.6830
vn -0.5000 -0.7071 0.5000
vn -0.5000 0.7071 0.5000
vn -0.6830 -0.7071 0.1830
vn -0.6830 0.7071 0.1830
vn -0.6830 -0.7071 -0.1830
vn -0.6830 0.7071 -0.1830
vn -0.5000 -0.7071 -0.5000
vn -0.5000 0.7071 -0.5000
vn -0.1830 -0.7071 -0.6830
vn -0.1830 0.7071 -0.6830
vn 0.2459 0.3121 -0.9177
vn 0.2805 -0.1779 -0.9432
vn 0.2827 0.1487 -0.9476
vn 0.2477 -0.2905 -0.9243
vn 0.6718 0.3121 -0.6718
vn 0.6755 0.2958 -0.6755
vn 0.6753 -0.2965 -0.6753
vn 0.9177 0.3121 -0.2459
vn 0.9196 0.3059 -0.2464
vn 0.9194 -0.3066 -0.2464
vn 0.9177 0.3121 0.2459
vn 0.9159 0.3175 0.2454
vn 0.9157 -0.3183 0.2454
vn 0.6718 0.3121 0.6718
vn 0.6681 0.3275 0.6681
vn 0.6679 -0.3282 0.6679
vn 0.2459 0.3121 0.9177
vn 0.2440 0.3332 0.9107
vn 0.2440 -0.3339 0.9105
vn -0.2459 0.3121 0.9177
vn -0.2440 0.3332 0.9107
vn -0.2440 -0.3339 0.9105
vn -0.6718 0.3121 0.6718
vn -0.6681 0.3275 0.6681
vn -0.6679 -0.3282 0.6679
vn -0.9177 0.3121 0.2459
vn -0.9159 0.3175 0.2454
vn -0.9157 -0.3183 0.2454
vn -0.9177 0.3121 -0.2459
vn -0.9196 0.3059 -0.2464
vn -0.9194 -0.3066 -0.2464
vn -0.6718 0.3121 -0.6718
vn -0.6755 0.2958 -0.6755
vn -0.6753 -0.2965 -0.6753
vn -0.2459 0.3121 -0.9177
vn -0.2805 -0.1779 -0.9432
vn -0.2827 0.1487 -0.9476
vn -0.2477 -0.2905 -0.9243
vn 1.0000 -0.0000 -0.0000
vn -0.6414 -0.0000 0.7672
vn 0.7672 -0.0000 -0.6414
vn -0.8660 -0.0000 -0.5000
vn 0.3437 -0.0000 0.9391
vn -0.1719 -0.0000 -0.9851
vn -0.5000 -0.0000 -0.8660
vn -0.0000 -0.0000 1.0000
vn -0.9851 -0.0000 -0.1719
vn 0.9391 -0.0000 0.3437
vn 0.5000 -0.0000 -0.8660
vn -0.8660 -0.0000 0.5000
vt 0.083333 0.916125
vt 0.000000 0.916125
vt 1.000000 0.916125
vt 0.916667 0.916125
vt 0.250000 0.583875
vt 0.333333 0.583875
vt 0.666667 0.916125
vt 0.583333 0.916125
vt 0.833333 0.583875
vt 0.916667 0.583875
vt 0.333333 0.916125
vt 0.250000 0.916125
vt 0.500000 0.583875
vt 0.583333 0.583875
vt 0.833333 0.916125
vt 0.166667 0.583875
vt 0.500000 0.916125
vt 0.750000 0.583875
vt 0.166667 0.916125
vt 0.083333 0.921293
vt 0.000000 0.921293
vt 0.083333 0.583875
vt 0.000000 0.583875
vt 0.000000 0.578707
vt 0.083333 0.578707
vt 0.166667 0.921293
vt 0.166667 0.578707
vt 0.250000 0.921293
vt 0.250000 0.578707
vt 0.333333 0.921293
vt 0.333333 0.578707
vt 0.416667 0.916125
vt 0.416667 0.921293
vt 0.416667 0.583875
vt 0.416667 0.578707
vt 0.500000 0.921293
vt 0.500000 0.578707
vt 0.583333 0.921293
vt 0.583333 0.578707
vt 0.666667 0.921293
vt 0.666667 0.583875
vt 0.666667 0.578707
vt 0.750000 0.916125
vt 0.750000 0.921293
vt 0.750000 0.578707
vt 0.833333 0.921293
vt 0.833333 0.578707
vt 0.916667 0.921293
vt 0.916667 0.578707
vt 1.000000 0.921293
vt 1.000000 0.583875
vt 1.000000 0.578707
vt 0.083333 0.604641
vt 0.000000 0.604641
vt 0.166667 0.604641
vt 0.250000 0.604641
vt 0.333333 0.604641
vt 0.416667 0.604641
vt 0.500000 0.604641
vt 0.583333 0.604641
vt 0.666667 0.604641
vt 0.750000 0.604641
vt 0.833333 0.604641
vt 0.916667 0.604641
vt 1.000000 0.604641
vt 0.750000 0.490000
vt 0.870000 0.457846
vt 0.865933 0.450802
vt 0.750000 0.481866
vt 0.370000 0.457846
vt 0.250000 0.490000
vt 0.250000 0.481866
vt 0.365933 0.450802
vt 0.957846 0.370000
vt 0.950802 0.365933
vt 0.457846 0.370000
vt 0.450802 0.365933
vt 0.990000 0.250000
vt 0.981866 0.250000
vt 0.490000 0.250000
vt 0.481866 0.250000
vt 0.957846 0.130000
vt 0.950802 0.134067
vt 0.457846 0.130000
vt 0.450802 0.134067
vt 0.870000 0.042154
vt 0.865933 0.049198
vt 0.370000 0.042154
vt 0.365933 0.049198
vt 0.750000 0.010000
vt 0.750000 0.018134
vt 0.250000 0.010000
vt 0.250000 0.018134
vt 0.630000 0.042154
vt 0.634067 0.049198
vt 0.130000 0.042154
vt 0.134067 0.049198
vt 0.542154 0.130000
vt 0.549198 0.134067
vt 0.042154 0.130000
vt 0.049198 0.134067
vt 0.510000 0.250000
vt 0.518134 0.250000
vt 0.010000 0.250000
vt 0.018134 0.250000
vt 0.542154 0.370000
vt 0.549198 0.365933
vt 0.042154 0.370000
vt 0.049198 0.365933
vt 0.630000 0.457846
vt 0.634067 0.450802
vt 0.130000 0.457846
vt 0.134067 0.450802
vt 0.083333 0.929477
vt 0.000000 0.929477
vt 0.000000 0.570523
vt 0.083333 0.570523
vt 0.166667 0.929477
vt 0.166667 0.570523
vt 0.250000 0.929477
vt 0.250000 0.570523
vt 0.333333 0.929477
vt 0.333333 0.570523
vt 0.416667 0.929477
vt 0.416667 0.570523
vt 0.500000 0.929477
vt 0.500000 0.570523
vt 0.583333 0.929477
vt 0.583333 0.570523
vt 0.666667 0.929477
vt 0.666667 0.570523
vt 0.750000 0.929477
vt 0.750000 0.570523
vt 0.833333 0.929477
vt 0.833333 0.570523
vt 0.916667 0.929477
vt 0.916667 0.921293
vt 0.916667 0.570523
vt 1.000000 0.929477
vt 1.000000 0.570523
vt 1.000000 0.508184
vt 0.916667 0.508184
vt 0.434682 0.250000
vt 0.409939 0.342341
vt 0.083333 0.508184
vt 0.000000 0.508184
vt 1.000000 0.991816
vt 0.916667 0.991816
vt 0.750000 0.065318
vt 0.657659 0.090061
vt 0.083333 0.991816
vt 0.000000 0.991816
vt 0.833333 0.508184
vt 0.833333 0.991816
vt 0.750000 0.508184
vt 0.750000 0.991816
vt 0.666667 0.508184
vt 0.666667 0.991816
vt 0.583333 0.508184
vt 0.583333 0.991816
vt 0.500000 0.508184
vt 0.500000 0.991816
vt 0.416667 0.508184
vt 0.416667 0.991816
vt 0.333333 0.508184
vt 0.333333 0.991816
vt 0.250000 0.508184
vt 0.250000 0.991816
vt 0.166667 0.508184
vt 0.166667 0.991816
vt 0.916667 0.895359
vt 1.000000 0.895359
vt 0.916667 0.874593
vt 1.000000 0.874593
vt 0.916667 0.853828
vt 1.000000 0.853828
vt 0.916667 0.833062
vt 1.000000 0.833062
vt 0.916667 0.812297
vt 1.000000 0.812297
vt 0.916667 0.791531
vt 1.000000 0.791531
vt 0.916667 0.770766
vt 1.000000 0.770766
vt 0.916667 0.750000
vt 1.000000 0.750000
vt 0.916667 0.729234
vt 1.000000 0.729234
vt 0.916667 0.708469
vt 1.000000 0.708469
vt 0.916667 0.687703
vt 1.000000 0.687703
vt 0.916667 0.666938
vt 1.000000 0.666938
vt 0.916667 0.646172
vt 1.000000 0.646172
vt 0.916667 0.625407
vt 1.000000 0.625407
vt 0.833333 0.895359
vt 0.833333 0.874593
vt 0.833333 0.853828
vt 0.833333 0.833062
vt 0.833333 0.812297
vt 0.833333 0.791531
vt 0.833333 0.770766
vt 0.833333 0.750000
vt 0.833333 0.729234
vt 0.833333 0.708469
vt 0.833333 0.687703
vt 0.833333 0.666938
vt 0.833333 0.646172
vt 0.833333 0.625407
vt 0.750000 0.895359
vt 0.750000 0.874593
vt 0.750000 0.853828
vt 0.750000 0.833062
vt 0.750000 0.812297
vt 0.750000 0.791531
vt 0.750000 0.770766
vt 0.750000 0.750000
vt 0.750000 0.729234
vt 0.750000 0.708469
vt 0.750000 0.687703
vt 0.750000 0.666938
vt 0.750000 0.646172
vt 0.750000 0.625407
vt 0.666667 0.895359
vt 0.666667 0.874593
vt 0.666667 0.853828
vt 0.666667 0.833062
vt 0.666667 0.812297
vt 0.666667 0.791531
vt 0.666667 0.770766
vt 0.666667 0.750000
vt 0.666667 0.729234
vt 0.666667 0.708469
vt 0.666667 0.687703
vt 0.666667 0.666938
vt 0.666667 0.646172
vt 0.666667 0.625407
vt 0.583333 0.895359
vt 0.583333 0.874593
vt 0.583333 0.853828
vt 0.583333 0.833062
vt 0.583333 0.812297
vt 0.583333 0.791531
vt 0.583333 0.770766
vt 0.583333 0.750000
vt 0.583333 0.729234
vt 0.583333 0.708469
vt 0.583333 0.687703
vt 0.583333 0.666938
vt 0.583333 0.646172
vt 0.583333 0.625407
vt 0.500000 0.895359
vt 0.500000 0.874593
vt 0.500000 0.853828
vt 0.500000 0.833062
vt 0.500000 0.812297
vt 0.500000 0.791531
vt 0.500000 0.770766
vt 0.500000 0.750000
vt 0.500000 0.729234
vt 0.500000 0.708469
vt 0.500000 0.687703
vt 0.500000 0.666938
vt 0.500000 0.646172
vt 0.500000 0.625407
vt 0.416667 0.895359
vt 0.416667 0.874593
vt 0.416667 0.853828
vt 0.416667 0.833062
vt 0.416667 0.812297
vt 0.416667 0.791531
vt 0.416667 0.770766
vt 0.416667 0.750000
vt 0.416667 0.729234
vt 0.416667 0.708469
vt 0.416667 0.687703
vt 0.416667 0.666938
vt 0.416667 0.646172
vt 0.416667 0.625407
vt 0.333333 0.895359
vt 0.333333 0.874593
vt 0.333333 0.853828
vt 0.333333 0.833062
vt 0.333333 0.812297
vt 0.333333 0.791531
vt 0.333333 0.770766
vt 0.333333 0.750000
vt 0.333333 0.729234
vt 0.333333 0.708469
vt 0.333333 0.687703
vt 0.333333 0.666938
vt 0.333333 0.646172
vt 0.333333 0.625407
vt 0.250000 0.895359
vt 0.250000 0.874593
vt 0.250000 0.853828
vt 0.250000 0.833062
vt 0.250000 0.812297
vt 0.250000 0.791531
vt 0.250000 0.770766
vt 0.250000 0.750000
vt 0.250000 0.729234
vt 0.250000 0.708469
vt 0.250000 0.687703
vt 0.250000 0.666938
vt 0.250000 0.646172
vt 0.250000 0.625407
vt 0.166667 0.895359
vt 0.166667 0.874593
vt 0.166667 0.853828
vt 0.166667 0.833062
vt 0.166667 0.812297
vt 0.166667 0.791531
vt 0.166667 0.770766
vt 0.166667 0.750000
vt 0.166667 0.729234
vt 0.166667 0.708469
vt 0.166667 0.687703
vt 0.166667 0.666938
vt 0.166667 0.646172
vt 0.166667 0.625407
vt 0.083333 0.895359
vt 0.083333 0.874593
vt 0.083333 0.853828
vt 0.083333 0.833062
vt 0.083333 0.812297
vt 0.083333 0.791531
vt 0.083333 0.770766
vt 0.083333 0.750000
vt 0.083333 0.729234
vt 0.083333 0.708469
vt 0.083333 0.687703
vt 0.083333 0.666938
vt 0.083333 0.646172
vt 0.083333 0.625407
vt 0.000000 0.895359
vt 0.000000 0.874593
vt 0.000000 0.853828
vt 0.000000 0.833062
vt 0.000000 0.812297
vt 0.000000 0.791531
vt 0.000000 0.770766
vt 0.000000 0.750000
vt 0.000000 0.729234
vt 0.000000 0.708469
vt 0.000000 0.687703
vt 0.000000 0.666938
vt 0.000000 0.646172
vt 0.000000 0.625407
vt 0.432446 0.355335
vt 0.355335 0.432446
vt 0.352939 0.428295
vt 0.428295 0.352939
vt 0.432446 0.144665
vt 0.460671 0.250000
vt 0.455877 0.250000
vt 0.428295 0.147061
vt 0.250000 0.039329
vt 0.355335 0.067554
vt 0.352939 0.071705
vt 0.250000 0.044123
vt 0.067554 0.144665
vt 0.144665 0.067554
vt 0.147061 0.071705
vt 0.071705 0.147061
vt 0.067554 0.355335
vt 0.039329 0.250000
vt 0.044123 0.250000
vt 0.071705 0.352939
vt 0.250000 0.460671
vt 0.144665 0.432446
vt 0.147061 0.428295
vt 0.250000 0.455877
vt 0.932446 0.355335
vt 0.960671 0.250000
vt 0.571705 0.147061
vt 0.647061 0.071705
vt 0.644665 0.432446
vt 0.750000 0.460671
vt 0.644665 0.067554
vt 0.567554 0.144665
vt 0.928295 0.147061
vt 0.955877 0.250000
vt 0.932446 0.144665
vt 0.544123 0.250000
vt 0.539329 0.250000
vt 0.896685 0.334689
vt 0.919378 0.250000
vt 0.250000 0.080622
vt 0.334689 0.103315
vt 0.590061 0.342341
vt 0.657659 0.409939
vt 0.157659 0.090061
vt 0.250000 0.065318
vt 0.934682 0.250000
vt 0.909939 0.157659
vt 0.157659 0.409939
vt 0.090061 0.342341
vt 0.590061 0.157659
vt 0.409939 0.157659
vt 0.750000 0.434682
vt 0.842341 0.409939
vt 0.090061 0.157659
vt 0.842341 0.090061
vt 0.250000 0.434682
vt 0.342341 0.409939
vt 0.565318 0.250000
vt 0.342341 0.090061
vt 0.909939 0.342341
vt 0.065318 0.250000
vt 0.834689 0.396686
vt 0.750000 0.419378
vt 0.250000 0.419378
vt 0.334689 0.396685
vt 0.396686 0.334689
vt 0.419378 0.250000
vt 0.896685 0.165311
vt 0.396685 0.165311
vt 0.834689 0.103315
vt 0.750000 0.080622
vt 0.665311 0.103315
vt 0.165311 0.103315
vt 0.603314 0.165311
vt 0.103315 0.165311
vt 0.580622 0.250000
vt 0.080622 0.250000
vt 0.603315 0.334689
vt 0.103315 0.334689
vt 0.665311 0.396686
vt 0.165311 0.396686
vt 0.644646 0.376020
vt 0.623980 0.355354
vt 0.123980 0.355354
vt 0.144646 0.376020
vt 0.806459 0.404250
vt 0.778230 0.411814
vt 0.278230 0.411814
vt 0.306459 0.404250
vt 0.588186 0.221770
vt 0.595750 0.193541
vt 0.095750 0.193541
vt 0.088186 0.221770
vt 0.858555 0.312674
vt 0.812674 0.358555
vt 0.312674 0.358555
vt 0.358555 0.312674
vt 0.875349 0.250000
vt 0.375348 0.250000
vt 0.858555 0.187326
vt 0.358555 0.187326
vt 0.812674 0.141445
vt 0.312674 0.141445
vt 0.750000 0.124652
vt 0.250000 0.124652
vt 0.687326 0.141445
vt 0.187326 0.141445
vt 0.641445 0.187326
vt 0.141445 0.187326
vt 0.624652 0.250000
vt 0.124652 0.250000
vt 0.852938 0.071705
vt 0.855335 0.067554
vt 0.855335 0.432446
vt 0.852938 0.428295
vt 0.750000 0.455877
vt 0.928295 0.352939
vt 0.750000 0.039329
vt 0.750000 0.044123
vt 0.567554 0.355335
vt 0.571705 0.352939
vt 0.647062 0.428295
vt 0.187326 0.358555
vt 0.250000 0.375348
vt 0.750000 0.375348
vt 0.687326 0.358555
vt 0.272316 0.410377
vt 0.255519 0.414878
vt 0.156739 0.327968
vt 0.172032 0.343261
vt 0.257342 0.376403
vt 0.622268 0.349515
vt 0.649204 0.324560
vt 0.672032 0.343261
vt 0.656739 0.327968
vt 0.810862 0.400049
vt 0.827659 0.395548
vt 0.141445 0.312674
vt 0.641445 0.312674
vt 0.757342 0.376403
vt 0.755519 0.414878
vt 0.135847 0.208217
vt 0.130249 0.229109
vt 0.675440 0.350796
vt 0.650485 0.377732
vt 0.175440 0.350796
vt 0.180440 0.355797
vt 0.630249 0.229109
vt 0.635847 0.208217
vt 0.806843 0.363139
vt 0.150485 0.377732
vt 0.270891 0.369751
vt 0.291783 0.364153
vt 0.644203 0.319560
vt 0.144203 0.319560
vt 0.149204 0.324560
vt 0.791783 0.364153
vt 0.770891 0.369751
vt 0.122268 0.349515
vt 0.772316 0.410377
vt 0.310862 0.400049
vt 0.327659 0.395548
vt 0.599951 0.189138
vt 0.604452 0.172341
vt 0.089623 0.227684
vt 0.085122 0.244481
vt 0.609971 0.337218
vt 0.162782 0.390029
vt 0.764173 0.374572
vt 0.306843 0.363139
vt 0.300012 0.364969
vt 0.636861 0.193157
vt 0.635031 0.199988
vt 0.123597 0.242658
vt 0.125428 0.235827
vt 0.585122 0.244481
vt 0.589623 0.227684
vt 0.104452 0.172341
vt 0.099952 0.189138
vt 0.662782 0.390029
vt 0.109971 0.337218
vt 0.800012 0.364969
vt 0.264173 0.374572
vt 0.625428 0.235827
vt 0.623597 0.242658
vt 0.135031 0.199988
vt 0.136861 0.193157
vt 0.680440 0.355797
s 0
usemtl M_Steel
f 74/66/27 77/67/27 349/68/27 350/69/27
f 80/70/28 75/71/28 351/72/28 352/73/28
f 77/67/29 81/74/29 353/75/29 349/68/29
f 84/76/30 80/70/30 352/73/30 354/77/30
f 81/74/31 85/78/31 355/79/31 353/75/31
f 88/80/32 84/76/32 354/77/32 356/81/32
f 85/78/33 89/82/33 357/83/33 355/79/33
f 92/84/34 88/80/34 356/81/34 358/85/34
f 89/82/35 93/86/35 359/87/35 357/83/35
f 96/88/36 92/84/36 358/85/36 360/89/36
f 93/86/37 97/90/37 361/91/37 359/87/37
f 100/92/38 96/88/38 360/89/38 362/93/38
f 97/90/39 101/94/39 363/95/39 361/91/39
f 104/96/40 100/92/40 362/93/40 364/97/40
f 101/94/41 105/98/41 365/99/41 363/95/41
f 108/100/42 104/96/42 364/97/42 366/101/42
f 105/98/43 109/102/43 367/103/43 365/99/43
f 112/104/44 108/100/44 366/101/44 368/105/44
f 109/102/45 113/106/45 369/107/45 367/103/45
f 116/108/46 112/104/46 368/105/46 370/109/46
f 113/106/47 117/110/47 371/111/47 369/107/47
f 120/112/48 116/108/48 370/109/48 372/113/48
f 117/110/49 74/66/49 350/69/49 371/111/49
f 75/71/50 120/112/50 372/113/50 351/72/50
f 168/114/49 121/115/49 122/21/49 167/20/49
f 124/116/50 165/117/50 166/25/50 123/24/50
f 164/118/47 168/114/47 167/20/47 163/26/47
f 165/117/48 161/119/48 162/27/48 166/25/48
f 160/120/45 164/118/45 163/26/45 159/28/45
f 161/119/46 157/121/46 158/29/46 162/27/46
f 156/122/43 160/120/43 159/28/43 155/30/43
f 157/121/44 153/123/44 154/31/44 158/29/44
f 152/124/41 156/122/41 155/30/41 151/33/41
f 153/123/42 149/125/42 150/35/42 154/31/42
f 148/126/39 152/124/39 151/33/39 147/36/39
f 149/125/40 145/127/40 146/37/40 150/35/40
f 144/128/37 148/126/37 147/36/37 143/38/37
f 145/127/38 141/129/38 142/39/38 146/37/38
f 140/130/35 144/128/35 143/38/35 139/40/35
f 141/129/36 137/131/36 138/42/36 142/39/36
f 136/132/33 140/130/33 139/40/33 135/44/33
f 137/131/34 133/133/34 134/45/34 138/42/34
f 132/134/31 136/132/31 135/44/31 131/46/31
f 133/133/32 129/135/32 130/47/32 134/45/32
f 128/136/29 132/134/29 131/46/29 127/137/29
f 129/135/30 125/138/30 126/49/30 130/47/30
f 121/139/27 128/136/27 127/137/27 122/50/27
f 125/138/28 124/140/28 123/52/28 126/49/28
f 74/141/14 124/140/14 125/138/14 77/142/14
f 87/143/6 83/144/6 402/144/6 404/143/6
f 117/145/3 165/117/3 124/116/3 74/146/3
f 121/139/14 75/147/14 80/148/14 128/136/14
f 98/149/14 102/150/14 411/150/14 409/149/14
f 168/114/3 120/151/3 75/152/3 121/115/3
f 77/142/13 125/138/13 129/135/13 81/153/13
f 128/136/13 80/148/13 84/154/13 132/134/13
f 81/153/12 129/135/12 133/133/12 85/155/12
f 132/134/12 84/154/12 88/156/12 136/132/12
f 85/155/11 133/133/11 137/131/11 89/157/11
f 136/132/11 88/156/11 92/158/11 140/130/11
f 89/157/10 137/131/10 141/129/10 93/159/10
f 140/130/10 92/158/10 96/160/10 144/128/10
f 93/159/9 141/129/9 145/127/9 97/161/9
f 144/128/9 96/160/9 100/162/9 148/126/9
f 97/161/8 145/127/8 149/125/8 101/163/8
f 148/126/8 100/162/8 104/164/8 152/124/8
f 101/163/7 149/125/7 153/123/7 105/165/7
f 152/124/7 104/164/7 108/166/7 156/122/7
f 105/165/6 153/123/6 157/121/6 109/167/6
f 156/122/6 108/166/6 112/168/6 160/120/6
f 109/167/5 157/121/5 161/119/5 113/169/5
f 160/120/5 112/168/5 116/170/5 164/118/5
f 113/169/4 161/119/4 165/117/4 117/145/4
f 164/118/4 116/170/4 120/151/4 168/114/4
f 167/20/1 122/21/1 26/21/1 25/20/1
f 122/50/1 127/137/1 24/48/1 26/50/1
f 126/49/2 123/52/2 4/52/2 23/49/2
f 123/24/2 166/25/2 1/25/2 4/24/2
f 130/47/2 126/49/2 23/49/2 46/47/2
f 127/137/1 131/46/1 22/46/1 24/48/1
f 134/45/2 130/47/2 46/47/2 44/45/2
f 131/46/1 135/44/1 20/44/1 22/46/1
f 138/42/2 134/45/2 44/45/2 17/42/2
f 135/44/1 139/40/1 41/40/1 20/44/1
f 142/39/2 138/42/2 17/42/2 15/39/2
f 139/40/1 143/38/1 39/38/1 41/40/1
f 146/37/2 142/39/2 15/39/2 13/37/2
f 143/38/1 147/36/1 14/36/1 39/38/1
f 150/35/2 146/37/2 13/37/2 36/35/2
f 147/36/1 151/33/1 12/33/1 14/36/1
f 154/31/2 150/35/2 36/35/2 34/31/2
f 151/33/1 155/30/1 10/30/1 12/33/1
f 158/29/2 154/31/2 34/31/2 32/29/2
f 155/30/1 159/28/1 31/28/1 10/30/1
f 162/27/2 158/29/2 32/29/2 30/27/2
f 159/28/1 163/26/1 29/26/1 31/28/1
f 166/25/2 162/27/2 30/27/2 1/25/2
f 163/26/1 167/20/1 25/20/1 29/26/1
f 510/368/6 512/371/6 485/371/6 483/368/6
f 522/377/6 524/378/6 560/378/6 562/377/6
f 533/379/7 531/380/7 551/380/7 549/379/7
f 502/360/10 504/363/10 477/363/10 475/360/10
f 540/381/9 519/382/9 543/382/9 542/381/9
f 511/370/12 509/365/12 484/365/12 486/370/12
f 532/383/13 534/384/13 550/384/13 552/383/13
f 525/385/11 523/386/11 559/386/11 557/385/11
f 512/371/5 514/372/5 487/372/5 485/371/5
f 503/362/4 501/357/4 476/357/4 478/362/4
f 524/378/5 526/387/5 558/387/5 560/378/5
f 493/376/14 496/355/14 469/355/14 492/376/14
f 535/388/6 533/379/6 549/379/6 547/388/6
f 504/363/9 506/364/9 479/364/9 477/363/9
f 495/354/8 494/373/8 491/373/8 470/354/8
f 534/384/12 536/389/12 548/389/12 550/384/12
f 496/355/13 498/356/13 471/356/13 469/355/13
f 505/361/3 503/362/3 478/362/3 480/361/3
f 114/394/10 118/395/10 419/395/10 417/394/10
f 103/396/14 99/397/14 410/397/14 412/396/14
f 86/398/5 90/399/5 405/399/5 403/398/5
f 119/400/10 115/401/10 418/401/10 420/400/10
f 102/150/13 106/402/13 413/402/13 411/150/13
f 91/403/5 87/143/5 404/143/5 406/403/5
f 118/395/9 73/404/9 398/404/9 419/395/9
f 73/404/8 78/405/8 397/405/8 398/404/8
f 107/406/13 103/396/13 412/396/13 414/406/13
f 90/399/4 94/407/4 407/407/4 405/399/4
f 76/408/9 119/400/9 420/400/9 399/408/9
f 79/409/8 76/408/8 399/408/8 400/409/8
f 106/402/12 110/410/12 415/410/12 413/402/12
f 95/411/4 91/403/4 406/403/4 408/411/4
f 78/405/7 82/412/7 401/412/7 397/405/7
f 111/413/12 107/406/12 414/406/12 416/413/12
f 94/407/3 98/149/3 409/149/3 407/407/3
f 83/144/7 79/409/7 400/409/7 402/144/7
f 110/410/11 114/394/11 417/394/11 415/410/11
f 99/397/3 95/411/3 408/411/3 410/397/3
f 82/412/6 86/398/6 403/398/6 401/412/6
f 115/401/11 111/413/11 416/413/11 418/401/11
f 513/369/11 511/370/11 486/370/11 488/369/11
f 527/464/10 525/385/10 557/385/10 555/464/10
f 514/372/4 516/375/4 489/375/4 487/372/4
f 526/387/4 528/465/4 556/465/4 558/387/4
f 520/468/3 539/474/3 541/474/3 544/468/3
f 501/357/5 499/358/5 474/358/5 476/357/5
f 537/473/5 535/388/5 547/388/5 545/473/5
f 506/364/8 508/367/8 481/367/8 479/364/8
f 497/353/7 495/354/7 470/354/7 472/353/7
f 515/374/10 513/369/10 488/369/10 490/374/10
f 517/467/14 520/468/14 544/468/14 563/467/14
f 536/389/11 538/472/11 546/472/11 548/389/11
f 529/471/9 527/464/9 555/464/9 553/471/9
f 498/356/12 500/359/12 473/359/12 471/356/12
f 516/375/3 493/376/3 492/376/3 489/375/3
f 519/382/8 518/466/8 564/466/8 543/382/8
f 507/366/14 505/361/14 480/361/14 482/366/14
f 528/465/3 530/470/3 554/470/3 556/465/3
f 521/469/13 517/467/13 563/467/13 561/469/13
f 539/474/4 537/473/4 545/473/4 541/474/4
f 508/367/7 510/368/7 483/368/7 481/367/7
f 499/358/6 497/353/6 472/353/6 474/358/6
f 494/373/9 515/374/9 490/374/9 491/373/9
f 518/466/7 522/377/7 562/377/7 564/466/7
f 538/472/10 540/381/10 542/381/10 546/472/10
f 531/380/8 529/471/8 553/471/8 551/380/8
f 500/359/11 502/360/11 475/360/11 473/359/11
f 509/365/13 507/366/13 482/366/13 484/365/13
f 530/470/14 532/383/14 552/383/14 554/470/14
f 523/386/12 521/469/12 561/469/12 559/386/12
f 76/408/2 79/409/2 496/355/2 493/376/2
f 515/374/2 494/373/2 351/72/2 372/113/2
f 119/400/2 76/408/2 493/376/2 516/375/2
f 494/373/2 495/354/2 352/73/2 351/72/2
f 495/354/2 497/353/2 354/77/2 352/73/2
f 79/409/2 83/144/2 498/356/2 496/355/2
f 497/353/2 499/358/2 356/81/2 354/77/2
f 83/144/2 87/143/2 500/359/2 498/356/2
f 499/358/2 501/357/2 358/85/2 356/81/2
f 87/143/2 91/403/2 502/360/2 500/359/2
f 501/357/2 503/362/2 360/89/2 358/85/2
f 91/403/2 95/411/2 504/363/2 502/360/2
f 503/362/2 505/361/2 362/93/2 360/89/2
f 95/411/2 99/397/2 506/364/2 504/363/2
f 505/361/2 507/366/2 364/97/2 362/93/2
f 99/397/2 103/396/2 508/367/2 506/364/2
f 507/366/2 509/365/2 366/101/2 364/97/2
f 103/396/2 107/406/2 510/368/2 508/367/2
f 509/365/2 511/370/2 368/105/2 366/101/2
f 107/406/2 111/413/2 512/371/2 510/368/2
f 511/370/2 513/369/2 370/109/2 368/105/2
f 111/413/2 115/401/2 514/372/2 512/371/2
f 513/369/2 515/374/2 372/113/2 370/109/2
f 115/401/2 119/400/2 516/375/2 514/372/2
f 78/405/1 73/404/1 520/468/1 517/467/1
f 522/377/1 518/466/1 349/68/1 353/75/1
f 82/412/1 78/405/1 517/467/1 521/469/1
f 518/466/1 519/382/1 350/69/1 349/68/1
f 519/382/1 540/381/1 371/111/1 350/69/1
f 73/404/1 118/395/1 539/474/1 520/468/1
f 524/378/1 522/377/1 353/75/1 355/79/1
f 86/398/1 82/412/1 521/469/1 523/386/1
f 526/387/1 524/378/1 355/79/1 357/83/1
f 90/399/1 86/398/1 523/386/1 525/385/1
f 528/465/1 526/387/1 357/83/1 359/87/1
f 94/407/1 90/399/1 525/385/1 527/464/1
f 530/470/1 528/465/1 359/87/1 361/91/1
f 98/149/1 94/407/1 527/464/1 529/471/1
f 532/383/1 530/470/1 361/91/1 363/95/1
f 102/150/1 98/149/1 529/471/1 531/380/1
f 534/384/1 532/383/1 363/95/1 365/99/1
f 106/402/1 102/150/1 531/380/1 533/379/1
f 536/389/1 534/384/1 365/99/1 367/103/1
f 110/410/1 106/402/1 533/379/1 535/388/1
f 538/472/1 536/389/1 367/103/1 369/107/1
f 114/394/1 110/410/1 535/388/1 537/473/1
f 540/381/1 538/472/1 369/107/1 371/111/1
f 118/395/1 114/394/1 537/473/1 539/474/1
usemtl M_Copper_Base
f 169/53/15 198/54/15 52/23/15 49/22/15
f 199/55/16 169/53/16 49/22/16 53/16/16
f 214/56/17 199/55/17 53/16/17 55/5/17
f 229/57/18 214/56/18 55/5/18 57/6/18
f 244/58/19 229/57/19 57/6/19 59/34/19
f 259/59/20 244/58/20 59/34/20 61/13/20
f 274/60/21 259/59/21 61/13/21 63/14/21
f 289/61/22 274/60/22 63/14/22 65/41/22
f 304/62/23 289/61/23 65/41/23 67/18/23
f 319/63/24 304/62/24 67/18/24 69/9/24
f 334/64/25 319/63/25 69/9/25 71/10/25
f 198/65/26 334/64/26 71/10/26 52/51/26
f 51/3/51 72/4/51 348/171/51 184/172/51
f 184/172/26 348/171/26 347/173/26 185/174/26
f 185/174/51 347/173/51 346/175/51 186/176/51
f 186/176/26 346/175/26 345/177/26 187/178/26
f 187/178/51 345/177/51 344/179/51 188/180/51
f 188/180/52 344/179/52 343/181/52 189/182/52
f 189/182/53 343/181/53 342/183/53 190/184/53
f 190/184/54 342/183/54 341/185/54 191/186/54
f 191/186/51 341/185/51 340/187/51 192/188/51
f 192/188/26 340/187/26 339/189/26 193/190/26
f 193/190/51 339/189/51 338/191/51 194/192/51
f 194/192/26 338/191/26 337/193/26 195/194/26
f 195/194/51 337/193/51 336/195/51 196/196/51
f 196/196/26 336/195/26 335/197/26 197/198/26
f 197/198/51 335/197/51 334/64/51 198/65/51
f 72/4/55 70/15/55 333/199/55 348/171/55
f 348/171/25 333/199/25 332/200/25 347/173/25
f 347/173/55 332/200/55 331/201/55 346/175/55
f 346/175/25 331/201/25 330/202/25 345/177/25
f 345/177/55 330/202/55 329/203/55 344/179/55
f 344/179/25 329/203/25 328/204/25 343/181/25
f 343/181/56 328/204/56 327/205/56 342/183/56
f 342/183/57 327/205/57 326/206/57 341/185/57
f 341/185/55 326/206/55 325/207/55 340/187/55
f 340/187/25 325/207/25 324/208/25 339/189/25
f 339/189/55 324/208/55 323/209/55 338/191/55
f 338/191/25 323/209/25 322/210/25 337/193/25
f 337/193/55 322/210/55 321/211/55 336/195/55
f 336/195/25 321/211/25 320/212/25 335/197/25
f 335/197/55 320/212/55 319/63/55 334/64/55
f 70/15/58 68/43/58 318/213/58 333/199/58
f 333/199/24 318/213/24 317/214/24 332/200/24
f 332/200/58 317/214/58 316/215/58 331/201/58
f 331/201/24 316/215/24 315/216/24 330/202/24
f 330/202/58 315/216/58 314/217/58 329/203/58
f 329/203/24 314/217/24 313/218/24 328/204/24
f 328/204/59 313/218/59 312/219/59 327/205/59
f 327/205/60 312/219/60 311/220/60 326/206/60
f 326/206/58 311/220/58 310/221/58 325/207/58
f 325/207/24 310/221/24 309/222/24 324/208/24
f 324/208/58 309/222/58 308/223/58 323/209/58
f 323/209/24 308/223/24 307/224/24 322/210/24
f 322/210/58 307/224/58 306/225/58 321/211/58
f 321/211/24 306/225/24 305/226/24 320/212/24
f 320/212/58 305/226/58 304/62/58 319/63/58
f 68/43/61 66/7/61 303/227/61 318/213/61
f 318/213/23 303/227/23 302/228/23 317/214/23
f 317/214/61 302/228/61 301/229/61 316/215/61
f 316/215/23 301/229/23 300/230/23 315/216/23
f 315/216/61 300/230/61 299/231/61 314/217/61
f 314/217/23 299/231/23 298/232/23 313/218/23
f 313/218/62 298/232/62 297/233/62 312/219/62
f 312/219/63 297/233/63 296/234/63 311/220/63
f 311/220/61 296/234/61 295/235/61 310/221/61
f 310/221/23 295/235/23 294/236/23 309/222/23
f 309/222/61 294/236/61 293/237/61 308/223/61
f 308/223/23 293/237/23 292/238/23 307/224/23
f 307/224/61 292/238/61 291/239/61 306/225/61
f 306/225/23 291/239/23 290/240/23 305/226/23
f 305/226/61 290/240/61 289/61/61 304/62/61
f 66/7/64 64/8/64 288/241/64 303/227/64
f 303/227/22 288/241/22 287/242/22 302/228/22
f 302/228/64 287/242/64 286/243/64 301/229/64
f 301/229/22 286/243/22 285/244/22 300/230/22
f 300/230/64 285/244/64 284/245/64 299/231/64
f 299/231/22 284/245/22 283/246/22 298/232/22
f 298/232/65 283/246/65 282/247/65 297/233/65
f 297/233/66 282/247/66 281/248/66 296/234/66
f 296/234/64 281/248/64 280/249/64 295/235/64
f 295/235/22 280/249/22 279/250/22 294/236/22
f 294/236/64 279/250/64 278/251/64 293/237/64
f 293/237/22 278/251/22 277/252/22 292/238/22
f 292/238/64 277/252/64 276/253/64 291/239/64
f 291/239/22 276/253/22 275/254/22 290/240/22
f 290/240/64 275/254/64 274/60/64 289/61/64
f 64/8/67 62/17/67 273/255/67 288/241/67
f 288/241/21 273/255/21 272/256/21 287/242/21
f 287/242/67 272/256/67 271/257/67 286/243/67
f 286/243/21 271/257/21 270/258/21 285/244/21
f 285/244/67 270/258/67 269/259/67 284/245/67
f 284/245/21 269/259/21 268/260/21 283/246/21
f 283/246/68 268/260/68 267/261/68 282/247/68
f 282/247/69 267/261/69 266/262/69 281/248/69
f 281/248/67 266/262/67 265/263/67 280/249/67
f 280/249/21 265/263/21 264/264/21 279/250/21
f 279/250/67 264/264/67 263/265/67 278/251/67
f 278/251/21 263/265/21 262/266/21 277/252/21
f 277/252/67 262/266/67 261/267/67 276/253/67
f 276/253/21 261/267/21 260/268/21 275/254/21
f 275/254/67 260/268/67 259/59/67 274/60/67
f 62/17/70 60/32/70 258/269/70 273/255/70
f 273/255/20 258/269/20 257/270/20 272/256/20
f 272/256/70 257/270/70 256/271/70 271/257/70
f 271/257/20 256/271/20 255/272/20 270/258/20
f 270/258/70 255/272/70 254/273/70 269/259/70
f 269/259/20 254/273/20 253/274/20 268/260/20
f 268/260/71 253/274/71 252/275/71 267/261/71
f 267/261/72 252/275/72 251/276/72 266/262/72
f 266/262/70 251/276/70 250/277/70 265/263/70
f 265/263/20 250/277/20 249/278/20 264/264/20
f 264/264/70 249/278/70 248/279/70 263/265/70
f 263/265/20 248/279/20 247/280/20 262/266/20
f 262/266/70 247/280/70 246/281/70 261/267/70
f 261/267/20 246/281/20 245/282/20 260/268/20
f 260/268/70 245/282/70 244/58/70 259/59/70
f 60/32/73 58/11/73 243/283/73 258/269/73
f 258/269/19 243/283/19 242/284/19 257/270/19
f 257/270/73 242/284/73 241/285/73 256/271/73
f 256/271/19 241/285/19 240/286/19 255/272/19
f 255/272/73 240/286/73 239/287/73 254/273/73
f 254/273/19 239/287/19 238/288/19 253/274/19
f 253/274/74 238/288/74 237/289/74 252/275/74
f 252/275/75 237/289/75 236/290/75 251/276/75
f 251/276/73 236/290/73 235/291/73 250/277/73
f 250/277/19 235/291/19 234/292/19 249/278/19
f 249/278/73 234/292/73 233/293/73 248/279/73
f 248/279/19 233/293/19 232/294/19 247/280/19
f 247/280/73 232/294/73 231/295/73 246/281/73
f 246/281/19 231/295/19 230/296/19 245/282/19
f 245/282/73 230/296/73 229/57/73 244/58/73
f 58/11/76 56/12/76 228/297/76 243/283/76
f 243/283/18 228/297/18 227/298/18 242/284/18
f 242/284/76 227/298/76 226/299/76 241/285/76
f 241/285/18 226/299/18 225/300/18 240/286/18
f 240/286/76 225/300/76 224/301/76 239/287/76
f 239/287/18 224/301/18 223/302/18 238/288/18
f 238/288/77 223/302/77 222/303/77 237/289/77
f 237/289/78 222/303/78 221/304/78 236/290/78
f 236/290/76 221/304/76 220/305/76 235/291/76
f 235/291/18 220/305/18 219/306/18 234/292/18
f 234/292/76 219/306/76 218/307/76 233/293/76
f 233/293/18 218/307/18 217/308/18 232/294/18
f 232/294/76 217/308/76 216/309/76 231/295/76
f 231/295/18 216/309/18 215/310/18 230/296/18
f 230/296/76 215/310/76 214/56/76 229/57/76
f 56/12/79 54/19/79 213/311/79 228/297/79
f 228/297/17 213/311/17 212/312/17 227/298/17
f 227/298/79 212/312/79 211/313/79 226/299/79
f 226/299/17 211/313/17 210/314/17 225/300/17
f 225/300/79 210/314/79 209/315/79 224/301/79
f 224/301/17 209/315/17 208/316/17 223/302/17
f 223/302/80 208/316/80 207/317/80 222/303/80
f 222/303/81 207/317/81 206/318/81 221/304/81
f 221/304/79 206/318/79 205/319/79 220/305/79
f 220/305/17 205/319/17 204/320/17 219/306/17
f 219/306/79 204/320/79 203/321/79 218/307/79
f 218/307/17 203/321/17 202/322/17 217/308/17
f 217/308/79 202/322/79 201/323/79 216/309/79
f 216/309/17 201/323/17 200/324/17 215/310/17
f 215/310/79 200/324/79 199/55/79 214/56/79
f 54/19/82 50/1/82 183/325/82 213/311/82
f 213/311/16 183/325/16 182/326/16 212/312/16
f 212/312/82 182/326/82 181/327/82 211/313/82
f 211/313/16 181/327/16 180/328/16 210/314/16
f 210/314/82 180/328/82 179/329/82 209/315/82
f 209/315/16 179/329/16 178/330/16 208/316/16
f 208/316/83 178/330/83 177/331/83 207/317/83
f 207/317/84 177/331/84 176/332/84 206/318/84
f 206/318/82 176/332/82 175/333/82 205/319/82
f 205/319/16 175/333/16 174/334/16 204/320/16
f 204/320/82 174/334/82 173/335/82 203/321/82
f 203/321/16 173/335/16 172/336/16 202/322/16
f 202/322/82 172/336/82 171/337/82 201/323/82
f 201/323/16 171/337/16 170/338/16 200/324/16
f 200/324/82 170/338/82 169/53/82 199/55/82
f 50/1/85 51/2/85 184/339/85 183/325/85
f 183/325/15 184/339/15 185/340/15 182/326/15
f 182/326/85 185/340/85 186/341/85 181/327/85
f 181/327/15 186/341/15 187/342/15 180/328/15
f 180/328/85 187/342/85 188/343/85 179/329/85
f 179/329/86 188/343/86 189/344/86 178/330/86
f 178/330/87 189/344/87 190/345/87 177/331/87
f 177/331/88 190/345/88 191/346/88 176/332/88
f 176/332/85 191/346/85 192/347/85 175/333/85
f 175/333/15 192/347/15 193/348/15 174/334/15
f 174/334/85 193/348/85 194/349/85 173/335/85
f 173/335/15 194/349/15 195/350/15 172/336/15
f 172/336/85 195/350/85 196/351/85 171/337/85
f 171/337/15 196/351/15 197/352/15 170/338/15
f 170/338/85 197/352/85 198/54/85 169/53/85
usemtl M_Anthracite_Steel
f 2/1/1 3/2/1 51/2/1 50/1/1
f 3/3/1 47/4/1 72/4/1 51/3/1
f 7/5/2 9/6/2 57/6/2 55/5/2
f 18/7/1 16/8/1 64/8/1 66/7/1
f 21/9/2 48/10/2 71/10/2 69/9/2
f 33/11/1 8/12/1 56/12/1 58/11/1
f 38/13/2 40/14/2 63/14/2 61/13/2
f 47/4/1 45/15/1 70/15/1 72/4/1
f 5/16/2 7/5/2 55/5/2 53/16/2
f 16/8/1 37/17/1 62/17/1 64/8/1
f 19/18/2 21/9/2 69/9/2 67/18/2
f 8/12/1 6/19/1 54/19/1 56/12/1
f 3/2/3 2/1/3 25/20/3 26/21/3
f 28/22/3 27/23/3 4/24/3 1/25/3
f 2/1/4 6/19/4 29/26/4 25/20/4
f 5/16/4 28/22/4 1/25/4 30/27/4
f 6/19/5 8/12/5 31/28/5 29/26/5
f 7/5/5 5/16/5 30/27/5 32/29/5
f 8/12/6 33/11/6 10/30/6 31/28/6
f 9/6/6 7/5/6 32/29/6 34/31/6
f 33/11/7 35/32/7 12/33/7 10/30/7
f 11/34/7 9/6/7 34/31/7 36/35/7
f 35/32/8 37/17/8 14/36/8 12/33/8
f 38/13/8 11/34/8 36/35/8 13/37/8
f 37/17/9 16/8/9 39/38/9 14/36/9
f 40/14/9 38/13/9 13/37/9 15/39/9
f 16/8/10 18/7/10 41/40/10 39/38/10
f 42/41/10 40/14/10 15/39/10 17/42/10
f 18/7/11 43/43/11 20/44/11 41/40/11
f 19/18/11 42/41/11 17/42/11 44/45/11
f 43/43/12 45/15/12 22/46/12 20/44/12
f 21/9/12 19/18/12 44/45/12 46/47/12
f 45/15/13 47/4/13 24/48/13 22/46/13
f 48/10/13 21/9/13 46/47/13 23/49/13
f 47/4/14 3/3/14 26/50/14 24/48/14
f 27/51/14 48/10/14 23/49/14 4/52/14
f 40/14/2 42/41/2 65/41/2 63/14/2
f 35/32/1 33/11/1 58/11/1 60/32/1
f 48/10/2 27/51/2 52/51/2 71/10/2
f 27/23/2 28/22/2 49/22/2 52/23/2
f 43/43/1 18/7/1 66/7/1 68/43/1
f 9/6/2 11/34/2 59/34/2 57/6/2
f 6/19/1 2/1/1 50/1/1 54/19/1
f 42/41/2 19/18/2 67/18/2 65/41/2
f 37/17/1 35/32/1 60/32/1 62/17/1
f 28/22/2 5/16/2 53/16/2 49/22/2
f 45/15/1 43/43/1 68/43/1 70/15/1
f 11/34/2 38/13/2 61/13/2 59/34/2
f 377/390/12 379/391/12 451/391/12 449/390/12
f 386/392/9 384/393/9 456/393/9 458/392/9
f 394/431/5 392/429/5 596/429/5 623/431/5
f 385/423/8 387/424/8 459/424/8 457/423/8
f 380/419/12 378/418/12 450/418/12 452/419/12
f 393/430/4 395/432/4 621/432/4 622/434/4 597/435/4 598/430/4
f 388/425/8 386/392/8 458/392/8 460/425/8
f 379/391/11 381/420/11 453/420/11 451/391/11
f 396/433/4 394/431/4 623/431/4 624/436/4 599/437/4 600/433/4
f 387/424/7 389/426/7 594/426/7 459/424/7
f 382/421/11 380/419/11 452/419/11 454/421/11
f 395/432/3 374/415/3 590/415/3 621/432/3
f 374/415/14 373/414/14 613/414/14 614/438/14 589/439/14 590/415/14
f 390/427/7 388/425/7 460/425/7 619/427/7
f 381/420/10 383/422/10 455/422/10 453/420/10
f 375/416/3 396/433/3 600/433/3 615/416/3
f 376/417/14 375/416/14 615/416/14 616/440/14 591/441/14 592/417/14
f 389/426/6 391/428/6 617/428/6 618/442/6 593/443/6 594/426/6
f 384/393/10 382/421/10 454/421/10 456/393/10
f 373/414/13 377/390/13 449/390/13 613/414/13
f 392/429/6 390/427/6 619/427/6 620/444/6 595/445/6 596/429/6
f 383/422/9 385/423/9 457/423/9 455/422/9
f 378/418/13 376/417/13 592/417/13 450/418/13
f 391/428/5 393/430/5 598/430/5 617/428/5
f 425/446/1 625/447/1 613/414/1 449/390/1
f 604/448/2 426/449/2 450/418/2 592/417/2
f 427/450/1 425/446/1 449/390/1 451/391/1
f 426/449/2 428/451/2 452/419/2 450/418/2
f 429/452/1 427/450/1 451/391/1 453/420/1
f 428/451/2 430/453/2 454/421/2 452/419/2
f 431/454/1 429/452/1 453/420/1 455/422/1
f 430/453/2 432/455/2 456/393/2 454/421/2
f 433/456/1 431/454/1 455/422/1 457/423/1
f 432/455/2 434/457/2 458/392/2 456/393/2
f 435/458/1 433/456/1 457/423/1 459/424/1
f 434/457/2 436/459/2 460/425/2 458/392/2
f 606/460/1 435/458/1 459/424/1 594/426/1
f 436/459/2 631/461/2 619/427/2 460/425/2
f 428/451/12 426/449/12 689/449/12 691/451/12
f 425/446/12 427/450/12 690/450/12 687/446/12
f 426/449/13 604/448/13 686/448/13 689/449/13
f 714/460/12 712/462/12 728/463/12 711/461/12
f 716/459/13 720/458/13 714/460/13 711/461/13
f 625/447/13 425/446/13 687/446/13 688/447/13
f 612/475/2 627/476/2 615/416/2 600/433/2
f 602/477/1 633/478/1 621/432/1 590/415/1
f 567/479/8 447/480/8 663/480/8 664/479/8
f 636/481/2 611/482/2 599/437/2 624/436/2
f 447/480/89 423/483/89 675/483/89 663/480/89
f 574/484/90 586/485/90 657/485/90 645/484/90
f 634/486/1 609/487/1 597/435/1 622/434/1
f 565/488/8 445/489/8 661/489/8 662/488/8
f 608/463/2 635/490/2 623/431/2 596/429/2
f 610/491/1 629/462/1 617/428/1 598/430/1
f 422/492/89 446/493/89 638/493/89 650/492/89
f 632/494/2 607/495/2 595/445/2 620/444/2
f 585/496/91 573/497/91 670/497/91 682/496/91
f 588/498/4 444/499/4 660/499/4 659/498/4
f 630/500/1 605/501/1 593/443/1 618/442/1
f 445/489/92 421/502/92 673/502/92 661/489/92
f 576/503/91 588/498/91 659/498/91 647/503/91
f 628/504/2 603/505/2 591/441/2 616/440/2
f 586/485/4 441/506/4 658/506/4 657/485/4
f 442/507/4 587/508/4 684/508/4 683/507/4
f 626/509/1 601/510/1 589/439/1 614/438/1
f 587/508/90 575/511/90 672/511/90 684/508/90
f 717/457/14 719/456/14 720/458/14 716/459/14
f 566/512/1 446/493/1 590/415/1 589/439/1
f 568/513/2 448/514/2 592/417/2 591/441/2
f 570/515/1 461/516/1 594/426/1 593/443/1
f 572/517/2 464/518/2 596/429/2 595/445/2
f 574/484/1 465/519/1 598/430/1 597/435/1
f 576/503/2 468/520/2 600/433/2 599/437/2
f 422/492/1 578/521/1 601/510/1 602/477/1
f 424/522/2 580/523/2 603/505/2 604/448/2
f 437/524/1 582/525/1 605/501/1 606/460/1
f 440/526/2 584/527/2 607/495/2 608/463/2
f 441/506/1 586/485/1 609/487/1 610/491/1
f 444/499/2 588/498/2 611/482/2 612/475/2
f 445/489/1 565/488/1 614/438/1 613/414/1
f 447/480/2 567/479/2 616/440/2 615/416/2
f 463/528/1 569/529/1 618/442/1 617/428/1
f 462/530/2 571/531/2 620/444/2 619/427/2
f 467/532/1 573/497/1 622/434/1 621/432/1
f 466/533/2 575/511/2 624/436/2 623/431/2
f 577/534/1 421/502/1 625/447/1 626/509/1
f 579/535/2 423/483/2 627/476/2 628/504/2
f 581/536/1 439/537/1 629/462/1 630/500/1
f 583/538/2 438/539/2 631/461/2 632/494/2
f 585/496/1 443/540/1 633/478/1 634/486/1
f 587/508/2 442/507/2 635/490/2 636/481/2
f 421/502/1 445/489/1 613/414/1 625/447/1
f 446/493/1 422/492/1 602/477/1 590/415/1
f 423/483/2 447/480/2 615/416/2 627/476/2
f 448/514/2 424/522/2 604/448/2 592/417/2
f 461/516/1 437/524/1 606/460/1 594/426/1
f 438/539/2 462/530/2 619/427/2 631/461/2
f 439/537/1 463/528/1 617/428/1 629/462/1
f 464/518/2 440/526/2 608/463/2 596/429/2
f 465/519/1 441/506/1 610/491/1 598/430/1
f 442/507/2 466/533/2 623/431/2 635/490/2
f 443/540/1 467/532/1 621/432/1 633/478/1
f 468/520/2 444/499/2 612/475/2 600/433/2
f 575/511/2 587/508/2 636/481/2 624/436/2
f 588/498/2 576/503/2 599/437/2 611/482/2
f 573/497/1 585/496/1 634/486/1 622/434/1
f 586/485/1 574/484/1 597/435/1 609/487/1
f 571/531/2 583/538/2 632/494/2 620/444/2
f 584/527/2 572/517/2 595/445/2 607/495/2
f 569/529/1 581/536/1 630/500/1 618/442/1
f 582/525/1 570/515/1 593/443/1 605/501/1
f 567/479/2 579/535/2 628/504/2 616/440/2
f 580/523/2 568/513/2 591/441/2 603/505/2
f 565/488/1 577/534/1 626/509/1 614/438/1
f 578/521/1 566/512/1 589/439/1 601/510/1
f 583/538/93 571/531/93 668/531/93 680/538/93
f 446/493/8 566/512/8 637/512/8 638/493/8
f 424/522/92 448/514/92 640/514/92 652/522/92
f 569/529/12 463/528/12 665/528/12 666/529/12
f 572/517/94 584/527/94 655/527/94 643/517/94
f 448/514/8 568/513/8 639/513/8 640/514/8
f 437/524/95 461/516/95 642/516/95 654/524/95
f 571/531/12 462/530/12 667/530/12 668/531/12
f 581/536/94 569/529/94 666/529/94 678/536/94
f 461/516/12 570/515/12 641/515/12 642/516/12
f 462/530/95 438/539/95 679/539/95 667/530/95
f 573/497/10 467/532/10 669/532/10 670/497/10
f 570/515/93 582/525/93 653/525/93 641/515/93
f 464/518/12 572/517/12 643/517/12 644/518/12
f 463/528/96 439/537/96 677/537/96 665/528/96
f 575/511/10 466/533/10 671/533/10 672/511/10
f 579/535/97 567/479/97 664/479/97 676/535/97
f 465/519/10 574/484/10 645/484/10 646/519/10
f 440/526/96 464/518/96 644/518/96 656/526/96
f 421/502/14 577/534/14 674/534/14 673/502/14
f 568/513/98 580/523/98 651/523/98 639/513/98
f 468/520/10 576/503/10 647/503/10 648/520/10
f 441/506/99 465/519/99 646/519/99 658/506/99
f 423/483/14 579/535/14 676/535/14 675/483/14
f 577/534/98 565/488/98 662/488/98 674/534/98
f 578/521/14 422/492/14 650/492/14 649/521/14
f 466/533/99 442/507/99 683/507/99 671/533/99
f 439/537/6 581/536/6 678/536/6 677/537/6
f 566/512/97 578/521/97 649/521/97 637/512/97
f 580/523/14 424/522/14 652/522/14 651/523/14
f 467/532/100 443/540/100 681/540/100 669/532/100
f 438/539/6 583/538/6 680/538/6 679/539/6
f 582/525/6 437/524/6 654/524/6 653/525/6
f 444/499/100 468/520/100 648/520/100 660/499/100
f 443/540/4 585/496/4 682/496/4 681/540/4
f 584/527/6 440/526/6 656/526/6 655/527/6
f 732/478/9 715/477/9 718/476/9 731/475/9
f 712/462/11 729/491/11 730/490/11 728/463/11
f 727/455/3 726/454/3 719/456/3 717/457/3
f 725/453/4 724/452/4 726/454/4 727/455/4
f 723/451/5 722/450/5 724/452/5 725/453/5
f 721/449/6 710/446/6 722/450/6 723/451/6
f 709/447/7 710/446/7 721/449/7 713/448/7
f 715/477/8 709/447/8 713/448/8 718/476/8
f 729/491/10 732/478/10 731/475/10 730/490/10
f 610/491/4 609/487/4 634/486/4 633/478/4 707/478/4 703/491/4
f 608/463/6 607/495/6 632/494/6 631/461/6 701/461/6 702/463/6
f 627/476/3 612/475/3 706/475/3 708/476/3
f 633/478/3 602/477/3 685/477/3 707/478/3
f 606/460/6 605/501/6 630/500/6 629/462/6 704/462/6 700/460/6
f 701/461/2 711/461/2 728/463/2 702/463/2
f 687/446/1 690/450/1 722/450/1 710/446/1
f 689/449/2 686/448/2 713/448/2 721/449/2
f 700/460/1 704/462/1 712/462/1 714/460/1
f 688/447/1 687/446/1 710/446/1 709/447/1
f 701/461/2 699/459/2 716/459/2 711/461/2
f 686/448/2 708/476/2 718/476/2 713/448/2
f 698/458/1 700/460/1 714/460/1 720/458/1
f 685/477/1 688/447/1 709/447/1 715/477/1
f 699/459/2 697/457/2 717/457/2 716/459/2
f 696/456/1 698/458/1 720/458/1 719/456/1
f 704/462/1 703/491/1 729/491/1 712/462/1
f 691/451/2 689/449/2 721/449/2 723/451/2
f 703/491/1 707/478/1 732/478/1 729/491/1
f 705/490/2 702/463/2 728/463/2 730/490/2
f 690/450/1 692/452/1 724/452/1 722/450/1
f 693/453/2 691/451/2 723/451/2 725/453/2
f 706/475/2 705/490/2 730/490/2 731/475/2
f 601/510/14 626/509/14 625/447/14 688/447/14 685/477/14 602/477/14
f 692/452/1 694/454/1 726/454/1 724/452/1
f 707/478/1 685/477/1 715/477/1 732/478/1
f 695/455/2 693/453/2 725/453/2 727/455/2
f 708/476/2 706/475/2 731/475/2 718/476/2
f 694/454/1 696/456/1 719/456/1 726/454/1
f 697/457/2 695/455/2 727/455/2 717/457/2
f 427/450/11 429/452/11 692/452/11 690/450/11
f 430/453/11 428/451/11 691/451/11 693/453/11
f 429/452/10 431/454/10 694/454/10 692/452/10
f 432/455/10 430/453/10 693/453/10 695/455/10
f 431/454/9 433/456/9 696/456/9 694/454/9
f 434/457/9 432/455/9 695/455/9 697/457/9
f 433/456/8 435/458/8 698/458/8 696/456/8
f 436/459/8 434/457/8 697/457/8 699/459/8
f 435/458/7 606/460/7 700/460/7 698/458/7
f 631/461/7 436/459/7 699/459/7 701/461/7
f 603/505/14 628/504/14 627/476/14 708/476/14 686/448/14 604/448/14
f 629/462/5 610/491/5 703/491/5 704/462/5
f 635/490/5 608/463/5 702/463/5 705/490/5
f 636/481/4 635/490/4 705/490/4 706/475/4 612/475/4 611/482/4
usemtl M_Noir_Profond
f 472/353/2 470/354/2 469/355/2 471/356/2
f 476/357/2 474/358/2 473/359/2 475/360/2
f 480/361/2 478/362/2 477/363/2 479/364/2
f 484/365/2 482/366/2 481/367/2 483/368/2
f 488/369/2 486/370/2 485/371/2 487/372/2
f 491/373/2 490/374/2 489/375/2 492/376/2
f 373/414/1 374/415/1 398/404/1 397/405/1
f 375/416/2 376/417/2 400/409/2 399/408/2
f 377/390/1 373/414/1 397/405/1 401/412/1
f 376/417/2 378/418/2 402/144/2 400/409/2
f 379/391/1 377/390/1 401/412/1 403/398/1
f 378/418/2 380/419/2 404/143/2 402/144/2
f 381/420/1 379/391/1 403/398/1 405/399/1
f 380/419/2 382/421/2 406/403/2 404/143/2
f 383/422/1 381/420/1 405/399/1 407/407/1
f 382/421/2 384/393/2 408/411/2 406/403/2
f 385/423/1 383/422/1 407/407/1 409/149/1
f 384/393/2 386/392/2 410/397/2 408/411/2
f 387/424/1 385/423/1 409/149/1 411/150/1
f 386/392/2 388/425/2 412/396/2 410/397/2
f 389/426/1 387/424/1 411/150/1 413/402/1
f 388/425/2 390/427/2 414/406/2 412/396/2
f 391/428/1 389/426/1 413/402/1 415/410/1
f 390/427/2 392/429/2 416/413/2 414/406/2
f 393/430/1 391/428/1 415/410/1 417/394/1
f 392/429/2 394/431/2 418/401/2 416/413/2
f 395/432/1 393/430/1 417/394/1 419/395/1
f 394/431/2 396/433/2 420/400/2 418/401/2
f 374/415/1 395/432/1 419/395/1 398/404/1
f 396/433/2 375/416/2 399/408/2 420/400/2
f 543/382/1 564/466/1 563/467/1 544/468/1
f 564/466/1 562/377/1 561/469/1 563/467/1
f 562/377/1 560/378/1 559/386/1 561/469/1
f 560/378/1 558/387/1 557/385/1 559/386/1
f 558/387/1 556/465/1 555/464/1 557/385/1
f 556/465/1 554/470/1 553/471/1 555/464/1
f 554/470/1 552/383/1 551/380/1 553/471/1
f 552/383/1 550/384/1 549/379/1 551/380/1
f 550/384/1 548/389/1 547/388/1 549/379/1
f 548/389/1 546/472/1 545/473/1 547/388/1
f 546/472/1 542/381/1 541/474/1 545/473/1
f 542/381/1 543/382/1 544/468/1 541/474/1
f 470/354/2 491/373/2 492/376/2 469/355/2
f 474/358/2 472/353/2 471/356/2 473/359/2
f 478/362/2 476/357/2 475/360/2 477/363/2
f 482/366/2 480/361/2 479/364/2 481/367/2
f 486/370/2 484/365/2 483/368/2 485/371/2
f 490/374/2 488/369/2 487/372/2 489/375/2
usemtl M_Orange
f 683/507/2 684/508/2 672/511/2 671/533/2
f 659/498/2 660/499/2 648/520/2 647/503/2
f 681/540/1 682/496/1 670/497/1 669/532/1
f 657/485/1 658/506/1 646/519/1 645/484/1
f 679/539/2 680/538/2 668/531/2 667/530/2
f 655/527/2 656/526/2 644/518/2 643/517/2
f 677/537/1 678/536/1 666/529/1 665/528/1
f 653/525/1 654/524/1 642/516/1 641/515/1
f 675/483/2 676/535/2 664/479/2 663/480/2
f 651/523/2 652/522/2 640/514/2 639/513/2
f 673/502/1 674/534/1 662/488/1 661/489/1
f 649/521/1 650/492/1 638/493/1 637/512/1
