# Blender 5.1.2
# www.blender.org
mtllib SM_Electric_Motor.mtl
o SM_Electric_Motor
v 0.065966 0.318511 0.125626
v 0.159256 0.225221 0.125626
v 0.159256 0.093290 0.125626
v 0.065966 -0.000000 0.125626
v -0.065966 -0.000000 0.125626
v -0.159256 0.093290 0.125626
v -0.159256 0.225221 0.125626
v -0.065966 0.318511 0.125626
v 0.159256 0.225221 -0.137379
v 0.159256 0.093290 -0.137379
v -0.159256 0.093290 -0.137379
v -0.159256 0.225221 -0.137379
v -0.065966 0.318511 -0.137379
v 0.065966 0.318511 -0.137379
v 0.051073 0.282558 -0.256521
v 0.065966 0.318511 -0.220568
v 0.123302 0.210329 -0.256521
v 0.159256 0.225221 -0.220568
v 0.123302 0.108182 -0.256521
v 0.159256 0.093290 -0.220568
v 0.051073 0.035953 -0.256521
v 0.065966 0.000000 -0.220568
v -0.051073 0.035953 -0.256521
v -0.065966 0.000000 -0.220568
v -0.123302 0.108182 -0.256521
v -0.159256 0.093290 -0.220568
v -0.123302 0.210329 -0.256521
v -0.159256 0.225221 -0.220568
v -0.051073 0.282558 -0.256521
v -0.065966 0.318511 -0.220568
v 0.040009 0.255847 -0.256521
v 0.096591 0.199265 -0.256521
v 0.096591 0.119246 -0.256521
v 0.040009 0.062665 -0.256521
v -0.040009 0.062665 -0.256521
v -0.096591 0.119246 -0.256521
v -0.096591 0.199265 -0.256521
v -0.040009 0.255847 -0.256521
v 0.096591 0.199265 -0.254117
v 0.040009 0.255847 -0.254117
v -0.040009 0.255847 -0.254117
v 0.096591 0.119246 -0.254117
v 0.040009 0.062665 -0.254117
v -0.040009 0.062665 -0.254117
v -0.096591 0.119246 -0.254117
v -0.096591 0.199265 -0.254117
v 0.038920 0.253216 -0.254117
v 0.093960 0.198175 -0.254117
v 0.093960 0.120336 -0.254117
v 0.038920 0.065295 -0.254117
v -0.038920 0.065295 -0.254117
v -0.093960 0.120336 -0.254117
v -0.093960 0.198175 -0.254117
v -0.038920 0.253216 -0.254117
v 0.093960 0.198175 -0.256217
v 0.038920 0.253216 -0.256217
v -0.038920 0.253216 -0.256217
v 0.093960 0.120336 -0.256217
v 0.038920 0.065295 -0.256217
v -0.038920 0.065295 -0.256217
v -0.093960 0.120336 -0.256217
v -0.093960 0.198175 -0.256217
v 0.035005 0.243766 -0.256217
v 0.084510 0.194261 -0.256217
v 0.084510 0.124250 -0.256217
v 0.035005 0.074745 -0.256217
v -0.035005 0.074745 -0.256217
v -0.084510 0.124250 -0.256217
v -0.084510 0.194261 -0.256217
v -0.035005 0.243766 -0.256217
v -0.042443 0.082183 -0.256217
v -0.059044 0.098784 -0.256217
v -0.069952 0.109692 -0.256217
v -0.084510 0.126293 -0.256217
v -0.084510 0.137201 -0.256217
v -0.084510 0.153802 -0.256217
v -0.084510 0.164710 -0.256217
v -0.084510 0.181311 -0.256217
v -0.084510 0.192219 -0.256217
v -0.069952 0.208819 -0.256217
v -0.059044 0.219727 -0.256217
v -0.042443 0.236328 -0.256217
v 0.084510 0.164710 -0.251825
v 0.084510 0.153802 -0.251825
v 0.084510 0.137201 -0.251825
v 0.084510 0.126293 -0.251825
v 0.069952 0.109692 -0.251825
v 0.059044 0.098784 -0.251825
v 0.042443 0.082183 -0.251825
v -0.059044 0.098784 -0.251825
v -0.069952 0.109692 -0.251825
v -0.069952 0.208819 -0.251825
v -0.059044 0.219727 -0.251825
v -0.084510 0.153802 -0.251825
v -0.084510 0.164710 -0.251825
v -0.084510 0.126293 -0.251825
v -0.084510 0.137201 -0.251825
v 0.035005 0.074745 -0.251825
v -0.042443 0.236328 -0.251825
v -0.035005 0.243766 -0.251825
v -0.084510 0.181311 -0.251825
v -0.084510 0.192219 -0.251825
v -0.035005 0.074745 -0.251825
v -0.042443 0.082183 -0.251825
v 0.035005 0.243766 -0.251825
v 0.042443 0.236328 -0.251825
v 0.042443 0.082183 -0.256217
v 0.059044 0.098784 -0.256217
v 0.069952 0.109692 -0.256217
v 0.084510 0.126293 -0.256217
v 0.084510 0.137201 -0.256217
v 0.084510 0.153802 -0.256217
v 0.084510 0.164710 -0.256217
v 0.084510 0.181311 -0.256217
v 0.084510 0.192219 -0.256217
v 0.069952 0.208819 -0.256217
v 0.059044 0.219727 -0.256217
v 0.042443 0.236328 -0.256217
v 0.084510 0.181311 -0.251825
v 0.084510 0.192219 -0.251825
v 0.069952 0.208819 -0.251825
v 0.059044 0.219727 -0.251825
v 0.159256 0.225221 -0.175445
v 0.159256 0.225221 -0.172959
v 0.159256 0.093290 -0.175445
v 0.159256 0.093290 -0.172959
v 0.065966 0.000000 -0.175445
v -0.065966 0.000000 -0.175445
v -0.159256 0.093290 -0.175445
v -0.159256 0.093290 -0.172959
v -0.159256 0.225221 -0.175445
v -0.159256 0.225221 -0.172959
v -0.065966 0.318511 -0.175445
v -0.065966 0.318511 -0.172959
v 0.065966 0.318511 -0.172959
v 0.065966 0.318511 -0.175445
v 0.065966 0.318511 0.137705
v 0.065966 0.318511 0.135219
v 0.159256 0.225221 0.135219
v 0.159256 0.225221 0.137705
v 0.159256 0.093290 0.135219
v 0.159256 0.093290 0.137705
v 0.065966 -0.000000 0.135219
v -0.065966 -0.000000 0.135219
v -0.159256 0.093290 0.135219
v -0.159256 0.093290 0.137705
v -0.159256 0.225221 0.135219
v -0.159256 0.225221 0.137705
v -0.065966 0.318511 0.135219
v -0.065966 0.318511 0.137705
v -0.065172 0.316596 -0.175445
v -0.065172 0.316596 -0.172959
v 0.065172 0.316596 -0.172959
v 0.065172 0.316596 -0.175445
v -0.157340 0.224428 -0.175445
v -0.157340 0.224428 -0.172959
v -0.157340 0.094083 -0.175445
v -0.157340 0.094083 -0.172959
v -0.065172 0.001916 -0.175445
v -0.065172 0.001916 -0.172959
v 0.065172 0.001916 -0.175445
v 0.065172 0.001916 -0.172959
v 0.157340 0.094083 -0.175445
v 0.157340 0.094083 -0.172959
v 0.157340 0.224428 -0.175445
v 0.157340 0.224428 -0.172959
v -0.065172 0.316595 0.135219
v -0.065172 0.316595 0.137705
v 0.065172 0.316595 0.137705
v 0.065172 0.316595 0.135219
v -0.157340 0.224428 0.135219
v -0.157340 0.224428 0.137705
v -0.157340 0.094083 0.135219
v -0.157340 0.094083 0.137705
v -0.065172 0.001916 0.135219
v -0.065172 0.001916 0.137705
v 0.065172 0.001916 0.135219
v 0.065172 0.001916 0.137705
v 0.157340 0.094083 0.135219
v 0.157340 0.094083 0.137705
v 0.157340 0.224428 0.135219
v 0.157340 0.224428 0.137705
v -0.045339 0.299988 0.125626
v -0.032385 0.299988 0.125626
v 0.032385 0.299988 0.125626
v 0.045339 0.299988 0.125626
v -0.131573 0.226709 0.125626
v -0.122413 0.235869 0.125626
v -0.113253 0.245029 0.125626
v -0.104093 0.254189 0.125626
v -0.094933 0.263349 0.125626
v -0.085773 0.272508 0.125626
v -0.076613 0.281668 0.125626
v -0.067453 0.290828 0.125626
v -0.140733 0.113916 0.125626
v -0.140733 0.126870 0.125626
v -0.140733 0.139825 0.125626
v -0.140733 0.152779 0.125626
v -0.140733 0.165733 0.125626
v -0.140733 0.178687 0.125626
v -0.140733 0.191641 0.125626
v -0.140733 0.204595 0.125626
v -0.067453 0.027683 0.125626
v -0.076613 0.036843 0.125626
v -0.085773 0.046003 0.125626
v -0.094933 0.055163 0.125626
v -0.104093 0.064323 0.125626
v -0.113253 0.073483 0.125626
v -0.122413 0.082642 0.125626
v -0.131573 0.091802 0.125626
v 0.045339 0.018523 0.125626
v 0.032385 0.018523 0.125626
v 0.019431 0.018523 0.125626
v 0.006477 0.018523 0.125626
v -0.006477 0.018523 0.125626
v -0.019431 0.018523 0.125626
v -0.032385 0.018523 0.125626
v -0.045339 0.018523 0.125626
v 0.131573 0.091802 0.125626
v 0.122413 0.082642 0.125626
v 0.113253 0.073483 0.125626
v 0.104093 0.064323 0.125626
v 0.094933 0.055163 0.125626
v 0.085773 0.046003 0.125626
v 0.076613 0.036843 0.125626
v 0.067453 0.027683 0.125626
v 0.140733 0.204595 0.125626
v 0.140733 0.191641 0.125626
v 0.140733 0.178687 0.125626
v 0.140733 0.165733 0.125626
v 0.140733 0.152779 0.125626
v 0.140733 0.139825 0.125626
v 0.140733 0.126870 0.125626
v 0.140733 0.113916 0.125626
v 0.067453 0.290828 0.125626
v 0.076613 0.281668 0.125626
v 0.085773 0.272508 0.125626
v 0.094933 0.263349 0.125626
v 0.104093 0.254189 0.125626
v 0.113253 0.245029 0.125626
v 0.122413 0.235869 0.125626
v 0.131573 0.226709 0.125626
v 0.067453 0.290828 -0.137379
v 0.076613 0.281668 -0.137379
v 0.085773 0.272508 -0.137379
v 0.094933 0.263349 -0.137379
v 0.104093 0.254189 -0.137379
v 0.113253 0.245029 -0.137379
v 0.122413 0.235869 -0.137379
v 0.131573 0.226709 -0.137379
v 0.140733 0.204595 -0.137379
v 0.140733 0.191641 -0.137379
v 0.140733 0.178687 -0.137379
v 0.140733 0.165733 -0.137379
v 0.140733 0.152779 -0.137379
v 0.140733 0.139825 -0.137379
v 0.140733 0.126870 -0.137379
v 0.140733 0.113916 -0.137379
v 0.131573 0.091802 -0.137379
v 0.122413 0.082642 -0.137379
v 0.113253 0.073483 -0.137379
v 0.104093 0.064323 -0.137379
v 0.094933 0.055163 -0.137379
v 0.085773 0.046003 -0.137379
v 0.076613 0.036843 -0.137379
v 0.067453 0.027683 -0.137379
v 0.045339 0.018523 -0.137379
v 0.032385 0.018523 -0.137379
v 0.019431 0.018523 -0.137379
v 0.006477 0.018523 -0.137379
v -0.006477 0.018523 -0.137379
v -0.019431 0.018523 -0.137379
v -0.032385 0.018523 -0.137379
v -0.045339 0.018523 -0.137379
v -0.067453 0.027683 -0.137379
v -0.076613 0.036843 -0.137379
v -0.085773 0.046003 -0.137379
v -0.094933 0.055163 -0.137379
v -0.104093 0.064323 -0.137379
v -0.113253 0.073483 -0.137379
v -0.122413 0.082642 -0.137379
v -0.131573 0.091802 -0.137379
v -0.140733 0.113916 -0.137379
v -0.140733 0.126870 -0.137379
v -0.140733 0.139825 -0.137379
v -0.140733 0.152779 -0.137379
v -0.140733 0.165733 -0.137379
v -0.140733 0.178687 -0.137379
v -0.140733 0.191641 -0.137379
v -0.140733 0.204595 -0.137379
v -0.131573 0.226709 -0.137379
v -0.122413 0.235869 -0.137379
v -0.113253 0.245029 -0.137379
v -0.104093 0.254189 -0.137379
v -0.094933 0.263349 -0.137379
v -0.085773 0.272508 -0.137379
v -0.076613 0.281668 -0.137379
v -0.067453 0.290828 -0.137379
v -0.045339 0.299988 -0.137379
v -0.032385 0.299988 -0.137379
v 0.032385 0.299988 -0.137379
v 0.045339 0.299988 -0.137379
v 0.032385 0.310141 -0.137379
v -0.032385 0.310141 -0.137379
v -0.045339 0.310141 -0.137379
v -0.083792 0.288848 -0.137379
v -0.092952 0.279688 -0.137379
v -0.102112 0.270528 -0.137379
v -0.111272 0.261368 -0.137379
v -0.120432 0.252208 -0.137379
v -0.129592 0.243048 -0.137379
v -0.138752 0.233888 -0.137379
v -0.150886 0.191641 -0.137379
v -0.150886 0.178687 -0.137379
v -0.150886 0.165733 -0.137379
v -0.150886 0.152779 -0.137379
v -0.150886 0.139825 -0.137379
v -0.150886 0.126870 -0.137379
v -0.150886 0.113916 -0.137379
v -0.129592 0.075463 -0.137379
v -0.120432 0.066303 -0.137379
v -0.111272 0.057143 -0.137379
v -0.102112 0.047983 -0.137379
v -0.092952 0.038824 -0.137379
v -0.083792 0.029664 -0.137379
v -0.074633 0.020504 -0.137379
v -0.032385 0.008370 -0.137379
v -0.019431 0.008370 -0.137379
v -0.006477 0.008370 -0.137379
v 0.006477 0.008370 -0.137379
v 0.019431 0.008370 -0.137379
v 0.032385 0.008370 -0.137379
v 0.045339 0.008370 -0.137379
v 0.083792 0.029664 -0.137379
v 0.092952 0.038824 -0.137379
v 0.102112 0.047983 -0.137379
v 0.111272 0.057143 -0.137379
v 0.120432 0.066303 -0.137379
v 0.129592 0.075463 -0.137379
v 0.138752 0.084623 -0.137379
v 0.150886 0.126870 -0.137379
v 0.150886 0.139825 -0.137379
v 0.150886 0.152779 -0.137379
v 0.150886 0.165733 -0.137379
v 0.150886 0.178687 -0.137379
v 0.150886 0.191641 -0.137379
v 0.150886 0.204595 -0.137379
v 0.129592 0.243048 -0.137379
v 0.120432 0.252208 -0.137379
v 0.111272 0.261368 -0.137379
v 0.102112 0.270528 -0.137379
v 0.092952 0.279688 -0.137379
v 0.083792 0.288848 -0.137379
v 0.074633 0.298008 -0.137379
v 0.129592 0.243048 0.125626
v 0.120432 0.252208 0.125626
v 0.111272 0.261368 0.125626
v 0.102112 0.270528 0.125626
v 0.092952 0.279688 0.125626
v 0.083792 0.288848 0.125626
v 0.074633 0.298008 0.125626
v 0.150886 0.126870 0.125626
v 0.150886 0.139825 0.125626
v 0.150886 0.152779 0.125626
v 0.150886 0.165733 0.125626
v 0.150886 0.178687 0.125626
v 0.150886 0.191641 0.125626
v 0.150886 0.204595 0.125626
v 0.083792 0.029664 0.125626
v 0.092952 0.038824 0.125626
v 0.102112 0.047983 0.125626
v 0.111272 0.057143 0.125626
v 0.120432 0.066303 0.125626
v 0.129592 0.075463 0.125626
v 0.138752 0.084623 0.125626
v -0.032385 0.008370 0.125626
v -0.019431 0.008370 0.125626
v -0.006477 0.008370 0.125626
v 0.006477 0.008370 0.125626
v 0.019431 0.008370 0.125626
v 0.032385 0.008370 0.125626
v 0.045339 0.008370 0.125626
v -0.129592 0.075463 0.125626
v -0.120432 0.066303 0.125626
v -0.111272 0.057143 0.125626
v -0.102112 0.047983 0.125626
v -0.092952 0.038824 0.125626
v -0.083792 0.029664 0.125626
v -0.074633 0.020504 0.125626
v -0.150886 0.191641 0.125626
v -0.150886 0.178687 0.125626
v -0.150886 0.165733 0.125626
v -0.150886 0.152779 0.125626
v -0.150886 0.139825 0.125626
v -0.150886 0.126870 0.125626
v -0.150886 0.113916 0.125626
v -0.083792 0.288848 0.125626
v -0.092952 0.279688 0.125626
v -0.102112 0.270528 0.125626
v -0.111272 0.261368 0.125626
v -0.120432 0.252208 0.125626
v -0.129592 0.243048 0.125626
v -0.138752 0.233888 0.125626
v 0.032385 0.310141 0.125626
v -0.032385 0.310141 0.125626
v -0.045339 0.310141 0.125626
v 0.062179 0.309368 -0.137379
v 0.045339 0.310141 -0.137379
v -0.062179 0.309368 -0.137379
v -0.074633 0.298008 -0.137379
v -0.150113 0.221434 -0.137379
v -0.150886 0.204595 -0.137379
v -0.150113 0.097077 -0.137379
v -0.138752 0.084623 -0.137379
v -0.062179 0.009143 -0.137379
v -0.045339 0.008370 -0.137379
v 0.062179 0.009143 -0.137379
v 0.074633 0.020504 -0.137379
v 0.150113 0.097077 -0.137379
v 0.150886 0.113916 -0.137379
v 0.150113 0.221434 -0.137379
v 0.138752 0.233888 -0.137379
v 0.150113 0.221434 0.125626
v 0.138752 0.233888 0.125626
v 0.150113 0.097077 0.125626
v 0.150886 0.113916 0.125626
v 0.062179 0.009143 0.125626
v 0.074633 0.020504 0.125626
v -0.062179 0.009143 0.125626
v -0.045339 0.008370 0.125626
v -0.150113 0.097077 0.125626
v -0.138752 0.084623 0.125626
v -0.150113 0.221434 0.125626
v -0.150886 0.204595 0.125626
v -0.062179 0.309368 0.125626
v -0.074633 0.298008 0.125626
v 0.062179 0.309368 0.125626
v 0.045339 0.310141 0.125626
v 0.065966 0.318511 0.172632
v 0.061940 0.308792 0.182352
v 0.149537 0.221196 0.182352
v 0.159256 0.225221 0.172632
v 0.149537 0.097316 0.182352
v 0.159256 0.093290 0.172632
v 0.061940 0.009719 0.182352
v -0.149537 0.097316 0.182352
v -0.159256 0.093290 0.172632
v -0.149537 0.221196 0.182352
v -0.159256 0.225221 0.172632
v -0.061940 0.308792 0.182352
v -0.065966 0.318511 0.172632
v 0.135871 0.215535 0.182352
v 0.056280 0.295127 0.182352
v -0.056280 0.295127 0.182352
v -0.135871 0.215535 0.182352
v -0.135871 0.102976 0.182352
v 0.135871 0.102976 0.182352
v 0.056280 0.295127 0.209080
v 0.048997 0.277545 0.216837
v 0.118289 0.208253 0.216837
v 0.135871 0.215535 0.209080
v 0.118289 0.110259 0.216837
v 0.135871 0.102976 0.209080
v -0.056280 0.295127 0.209080
v -0.048997 0.277545 0.216837
v -0.135871 0.215535 0.209080
v -0.118289 0.208253 0.216837
v -0.135871 0.102976 0.209080
v -0.118289 0.110259 0.216837
v -0.048997 0.040966 0.216837
v 0.048997 0.040966 0.216837
v 0.101173 0.201163 0.216837
v 0.041907 0.260428 0.216837
v -0.041907 0.260428 0.216837
v -0.101173 0.201163 0.216837
v -0.101173 0.117349 0.216837
v -0.041907 0.058083 0.216837
v 0.041907 0.058083 0.216837
v 0.101173 0.117349 0.216837
v 0.041907 0.260428 0.211800
v 0.101173 0.201163 0.211800
v 0.101173 0.117349 0.211800
v -0.041907 0.260428 0.211800
v -0.101173 0.201163 0.211800
v -0.101173 0.117349 0.211800
v -0.041907 0.058083 0.211800
v 0.041907 0.058083 0.211800
v 0.098102 0.199891 0.211800
v 0.040635 0.257358 0.211800
v -0.040635 0.257358 0.211800
v -0.098102 0.199891 0.211800
v -0.098102 0.118620 0.211800
v -0.040635 0.061154 0.211800
v 0.040635 0.061154 0.211800
v 0.098102 0.118620 0.211800
v 0.040635 0.257358 0.214911
v 0.098102 0.199891 0.214911
v 0.098102 0.118620 0.214911
v -0.040635 0.257358 0.214911
v -0.098102 0.199891 0.214911
v -0.098102 0.118620 0.214911
v -0.040635 0.061154 0.214911
v 0.040635 0.061154 0.214911
v -0.024825 0.219188 0.214911
v 0.059932 0.184080 0.214911
v 0.024825 0.219188 0.214911
v 0.024825 0.219188 0.220404
v 0.059932 0.184080 0.220404
v 0.059932 0.134431 0.220404
v -0.024825 0.219188 0.220404
v -0.059932 0.184080 0.220404
v -0.059932 0.134431 0.220404
v -0.024825 0.099323 0.220404
v 0.024825 0.099323 0.220404
v 0.042176 0.176726 0.220404
v 0.017470 0.201432 0.220404
v -0.017470 0.201432 0.220404
v -0.042176 0.176726 0.220404
v -0.042176 0.141786 0.220404
v -0.017470 0.117079 0.220404
v 0.017470 0.117079 0.220404
v 0.042176 0.141786 0.220404
v 0.017470 0.201432 0.232748
v 0.042176 0.176726 0.232748
v 0.042176 0.141786 0.232748
v -0.017470 0.201432 0.232748
v -0.042176 0.176726 0.232748
v -0.042176 0.141786 0.232748
v -0.017470 0.117079 0.232748
v 0.017470 0.117079 0.232748
v 0.023494 0.168987 0.232764
v 0.009732 0.182750 0.232764
v -0.009732 0.182750 0.232764
v -0.023494 0.168987 0.232764
v -0.023494 0.149524 0.232764
v -0.009732 0.135762 0.232764
v 0.009731 0.135762 0.232764
v 0.023494 0.149524 0.232764
v 0.009731 0.182750 0.310310
v 0.007945 0.178435 0.314624
v 0.019180 0.167200 0.314624
v 0.023494 0.168987 0.310310
v 0.019180 0.151311 0.314624
v 0.023494 0.149524 0.310310
v -0.009732 0.182750 0.310310
v -0.007945 0.178435 0.314624
v -0.023494 0.168987 0.310310
v -0.019180 0.167200 0.314624
v -0.023494 0.149524 0.310310
v -0.019180 0.151311 0.314624
v -0.009732 0.135762 0.310310
v -0.007945 0.140076 0.314624
v 0.009731 0.135762 0.310310
v 0.007945 0.140076 0.314624
v 0.005146 0.161387 0.314624
v 0.002131 0.164401 0.314624
v -0.002131 0.164401 0.314624
v -0.005146 0.161387 0.314624
v -0.005146 0.157124 0.314624
v -0.002131 0.154110 0.314624
v 0.002131 0.154110 0.314624
v 0.005146 0.157124 0.314624
v 0.002131 0.164401 0.284985
v 0.005146 0.161387 0.284985
v 0.005146 0.157124 0.284985
v -0.002131 0.164401 0.284985
v -0.005146 0.161387 0.284985
v -0.005146 0.157124 0.284985
v -0.002131 0.154110 0.284985
v 0.002131 0.154110 0.284985
v -0.059932 0.134431 0.214911
v -0.059932 0.184080 0.214911
v -0.024825 0.099323 0.214911
v 0.059932 0.134431 0.214911
v 0.024825 0.099323 0.214911
v -0.037642 0.068379 0.214911
v -0.090876 0.121613 0.214911
v -0.090876 0.196898 0.214911
v -0.037642 0.250132 0.214911
v 0.037642 0.250132 0.214911
v 0.090876 0.196898 0.214911
v 0.037642 0.068379 0.214911
v 0.090876 0.121613 0.214911
v 0.031068 0.098081 0.214911
v 0.039501 0.077722 0.214911
v 0.081533 0.119755 0.214911
v 0.061174 0.128188 0.214911
v -0.021288 0.094031 0.214911
v -0.029721 0.073672 0.214911
v 0.029721 0.073672 0.214911
v 0.021288 0.094031 0.214911
v -0.061174 0.128188 0.214911
v -0.081533 0.119755 0.214911
v -0.039501 0.077722 0.214911
v -0.031068 0.098081 0.214911
v -0.031068 0.220430 0.214911
v -0.039501 0.240789 0.214911
v -0.081533 0.198756 0.214911
v -0.061174 0.190323 0.214911
v 0.021288 0.224481 0.214911
v 0.029721 0.244840 0.214911
v -0.029721 0.244840 0.214911
v -0.021288 0.224481 0.214911
v 0.061174 0.190323 0.214911
v 0.081533 0.198756 0.214911
v 0.039501 0.240789 0.214911
v 0.031068 0.220430 0.214911
v 0.039501 0.077722 0.212656
v 0.031068 0.098081 0.212656
v 0.061174 0.128188 0.212656
v 0.081533 0.119755 0.212656
v -0.029721 0.073672 0.212656
v -0.021288 0.094031 0.212656
v 0.021288 0.094031 0.212656
v 0.029721 0.073672 0.212656
v -0.081533 0.119755 0.212656
v -0.061174 0.128188 0.212656
v -0.031068 0.098081 0.212656
v -0.039501 0.077722 0.212656
v -0.039501 0.240789 0.212656
v -0.031068 0.220430 0.212656
v -0.061174 0.190323 0.212656
v -0.081533 0.198756 0.212656
v 0.029721 0.244840 0.212656
v 0.021288 0.224481 0.212656
v -0.021288 0.224481 0.212656
v -0.029721 0.244840 0.212656
v 0.061174 0.190323 0.212656
v 0.081533 0.198756 0.212656
v 0.031068 0.220430 0.212656
v 0.039501 0.240789 0.212656
v 0.093960 0.198175 -0.260455
v 0.038920 0.253216 -0.260455
v -0.038920 0.253216 -0.260455
v 0.093960 0.120336 -0.260455
v 0.038920 0.065295 -0.260455
v -0.038920 0.065295 -0.260455
v -0.093960 0.120336 -0.260455
v -0.093960 0.198175 -0.260455
v 0.042443 0.236328 -0.260455
v 0.035005 0.243766 -0.260455
v 0.084510 0.192219 -0.260455
v 0.084510 0.194261 -0.260455
v 0.069952 0.109692 -0.260455
v 0.084510 0.124250 -0.260455
v -0.042443 0.082183 -0.260455
v -0.035005 0.074745 -0.260455
v -0.084510 0.126293 -0.260455
v -0.084510 0.124250 -0.260455
v -0.069952 0.208819 -0.260455
v -0.084510 0.194261 -0.260455
v 0.035005 0.074745 -0.260455
v -0.035005 0.243766 -0.260455
v -0.084510 0.192219 -0.260455
v -0.084510 0.181311 -0.260455
v -0.042443 0.236328 -0.260455
v -0.069952 0.109692 -0.260455
v -0.084510 0.137201 -0.260455
v -0.084510 0.153802 -0.260455
v -0.084510 0.164710 -0.260455
v -0.059044 0.219727 -0.260455
v -0.059044 0.098784 -0.260455
v 0.042443 0.082183 -0.260455
v 0.059044 0.098784 -0.260455
v 0.084510 0.126293 -0.260455
v 0.084510 0.137201 -0.260455
v 0.084510 0.153802 -0.260455
v 0.084510 0.164710 -0.260455
v 0.084510 0.181311 -0.260455
v 0.069952 0.208819 -0.260455
v -0.010795 0.310141 0.125626
v 0.010795 0.310141 0.125626
v -0.032385 0.310141 -0.038519
v -0.032385 0.310141 0.101674
v 0.032385 0.310141 -0.038519
v 0.032385 0.310141 0.101674
v -0.010795 0.310141 -0.038519
v 0.010795 0.310141 -0.038519
v -0.010795 0.310141 0.101674
v 0.010795 0.310141 0.101674
v -0.008269 0.310141 -0.014009
v -0.008269 0.310141 0.030391
v 0.008269 0.310141 0.030391
v 0.008269 0.310141 -0.014009
v -0.008269 0.312583 0.019231
v -0.008269 0.312583 -0.002849
v 0.008269 0.312583 -0.002849
v 0.008269 0.312583 0.019231
v -0.008269 0.314493 0.019231
v -0.008269 0.314493 -0.002849
v 0.008269 0.314493 -0.002849
v 0.008269 0.314493 0.019231
v -0.008212 0.314493 0.020363
v -0.008164 0.326414 0.032284
v -0.008164 0.326414 -0.015902
v -0.008212 0.314493 -0.003981
v 0.008212 0.314493 -0.003981
v 0.008164 0.326414 -0.015902
v 0.008164 0.326414 0.032284
v 0.008212 0.314493 0.020363
v -0.008164 0.349771 0.032284
v -0.008164 0.361692 0.020363
v -0.008164 0.361692 -0.003981
v -0.008164 0.349771 -0.015902
v 0.008164 0.349771 -0.015902
v 0.008164 0.361692 -0.003981
v 0.008164 0.361692 0.020363
v 0.008164 0.349771 0.032284
v -0.008153 0.331262 -0.005618
v -0.008153 0.324849 0.000795
v -0.008153 0.324849 0.015587
v -0.008153 0.331262 0.022000
v -0.008153 0.344923 0.022000
v -0.008153 0.351336 0.015587
v -0.008153 0.351336 0.000795
v -0.008153 0.344923 -0.005618
v 0.008153 0.331262 0.022000
v 0.008153 0.324849 0.015587
v 0.008153 0.324849 0.000795
v 0.008153 0.331262 -0.005618
v 0.008153 0.344923 -0.005618
v 0.008153 0.351336 0.000795
v 0.008153 0.351336 0.015587
v 0.008153 0.344923 0.022000
v -0.032385 0.310141 -0.041207
v -0.032385 0.310141 -0.120151
v 0.032385 0.310141 -0.041207
v 0.032385 0.310141 -0.120151
v 0.113253 0.245029 -0.120151
v 0.113253 0.245029 -0.041207
v 0.104093 0.254189 -0.041207
v 0.104093 0.254189 -0.120151
v 0.094933 0.263349 -0.120151
v 0.094933 0.263349 -0.041207
v 0.085773 0.272508 -0.041207
v 0.085773 0.272508 -0.120151
v 0.076613 0.281668 -0.120151
v 0.076613 0.281668 -0.041207
v 0.067453 0.290828 -0.041207
v 0.067453 0.290828 -0.120151
v 0.045339 0.299988 -0.120151
v 0.045339 0.299988 -0.041207
v 0.032385 0.299988 -0.041207
v 0.032385 0.299988 -0.120151
v -0.032385 0.299988 -0.120151
v -0.032385 0.299988 -0.041207
v -0.045339 0.299988 -0.120151
v -0.045339 0.299988 -0.041207
v -0.120432 0.252208 -0.041207
v -0.120432 0.252208 -0.120151
v -0.111272 0.261368 -0.120151
v -0.111272 0.261368 -0.041207
v -0.102112 0.270528 -0.041207
v -0.102112 0.270528 -0.120151
v -0.092952 0.279688 -0.120151
v -0.092952 0.279688 -0.041207
v -0.083792 0.288848 -0.041207
v -0.083792 0.288848 -0.120151
v -0.074633 0.298008 -0.120151
v -0.074633 0.298008 -0.041207
v -0.067453 0.290828 -0.120151
v -0.067453 0.290828 -0.041207
v -0.076613 0.281668 -0.041207
v -0.076613 0.281668 -0.120151
v -0.085773 0.272508 -0.120151
v -0.085773 0.272508 -0.041207
v -0.094933 0.263349 -0.041207
v -0.094933 0.263349 -0.120151
v -0.104093 0.254189 -0.120151
v -0.104093 0.254189 -0.041207
v -0.113253 0.245029 -0.041207
v -0.113253 0.245029 -0.120151
v -0.045339 0.310141 -0.041207
v -0.045339 0.310141 -0.120151
v 0.045339 0.310141 -0.120151
v 0.045339 0.310141 -0.041207
v 0.074633 0.298008 -0.041207
v 0.074633 0.298008 -0.120151
v 0.083792 0.288848 -0.120151
v 0.083792 0.288848 -0.041207
v 0.092952 0.279688 -0.041207
v 0.092952 0.279688 -0.120151
v 0.102112 0.270528 -0.120151
v 0.102112 0.270528 -0.041207
v 0.111272 0.261368 -0.041207
v 0.111272 0.261368 -0.120151
v 0.120432 0.252208 -0.120151
v 0.120432 0.252208 -0.041207
v 0.062179 0.309368 -0.041207
v 0.062179 0.309368 -0.120151
v -0.062179 0.309368 -0.041207
v -0.062179 0.309368 -0.120151
v -0.062179 0.328001 -0.041207
v -0.062179 0.328001 -0.120151
v 0.062179 0.328001 -0.041207
v 0.062179 0.328001 -0.120151
v 0.120432 0.270841 -0.120151
v 0.120432 0.270841 -0.041207
v -0.120432 0.270841 -0.041207
v -0.120432 0.270841 -0.120151
v 0.065966 0.000000 -0.137379
v 0.065966 0.000000 -0.172959
v 0.065966 -0.000000 0.137705
v -0.096076 0.063180 0.209080
v -0.056280 0.023384 0.209080
v -0.065966 0.000000 -0.137379
v 0.065966 -0.000000 0.172632
v -0.056280 0.023384 0.182352
v -0.112611 0.046645 0.137705
v 0.056280 0.023384 0.209080
v 0.056280 0.023384 0.182352
v -0.061940 0.009719 0.182352
v -0.065966 0.000000 -0.172959
v -0.065966 -0.000000 0.137705
v -0.065966 -0.000000 0.172632
v 0.059892 0.026997 0.209080
v 0.081597 0.308948 -0.120151
v 0.101014 0.289895 -0.120151
v 0.081597 0.308948 -0.041207
v 0.101014 0.289895 -0.041207
v -0.081597 0.308948 -0.120151
v -0.101014 0.289895 -0.120151
v -0.081597 0.308948 -0.041207
v -0.101014 0.289895 -0.041207
v -0.067128 0.323145 -0.113217
v -0.076647 0.313805 -0.113217
v -0.076647 0.313805 -0.048142
v -0.067128 0.323145 -0.048142
v -0.086546 0.304092 -0.113217
v -0.096065 0.294751 -0.113217
v -0.096065 0.294751 -0.048142
v -0.086546 0.304092 -0.048142
v -0.105964 0.285038 -0.113217
v -0.115483 0.275698 -0.113217
v -0.115483 0.275698 -0.048142
v -0.105964 0.285038 -0.048142
v 0.115483 0.275698 -0.113217
v 0.105964 0.285038 -0.113217
v 0.105964 0.285038 -0.048142
v 0.115483 0.275698 -0.048142
v 0.096065 0.294751 -0.113217
v 0.086546 0.304092 -0.113217
v 0.086546 0.304092 -0.048142
v 0.096065 0.294751 -0.048142
v 0.076647 0.313805 -0.113217
v 0.067128 0.323145 -0.113217
v 0.067128 0.323145 -0.048142
v 0.076647 0.313805 -0.048142
v -0.066323 0.322325 -0.113217
v -0.075842 0.312984 -0.113217
v -0.066323 0.322325 -0.048142
v -0.075842 0.312984 -0.048142
v -0.085741 0.303271 -0.113217
v -0.095260 0.293931 -0.113217
v -0.085741 0.303271 -0.048142
v -0.095260 0.293931 -0.048142
v -0.105159 0.284218 -0.113217
v -0.114678 0.274877 -0.113217
v -0.105159 0.284218 -0.048142
v -0.114678 0.274877 -0.048142
v 0.105159 0.284218 -0.113217
v 0.114678 0.274877 -0.113217
v 0.114678 0.274877 -0.048142
v 0.105159 0.284218 -0.048142
v 0.085741 0.303271 -0.113217
v 0.095260 0.293931 -0.113217
v 0.095260 0.293931 -0.048142
v 0.085741 0.303271 -0.048142
v 0.066323 0.322325 -0.113217
v 0.075842 0.312984 -0.113217
v 0.075842 0.312984 -0.048142
v 0.066323 0.322325 -0.048142
v 0.004952 0.182750 0.240527
v -0.004952 0.182750 0.240527
v -0.004952 0.182750 0.302547
v 0.004952 0.182750 0.302547
v -0.004952 0.176263 0.240527
v 0.004952 0.176263 0.240527
v 0.004952 0.176263 0.302547
v -0.004952 0.176263 0.302547
v 0.114807 0.082025 0.112354
v 0.114807 0.236486 0.112354
v 0.114807 0.082025 -0.042107
v 0.114807 0.236486 -0.042107
v 0.158836 0.100253 0.094126
v 0.154258 0.082025 0.112354
v 0.154258 0.236486 0.112354
v 0.158836 0.218258 0.094126
v 0.158836 0.100253 -0.023879
v 0.154258 0.082025 -0.042107
v 0.158836 0.218258 -0.023879
v 0.154258 0.236486 -0.042107
v 0.158836 0.231908 -0.037528
v 0.158836 0.086604 -0.037528
v 0.158836 0.086604 0.107776
v 0.158836 0.231908 0.107776
v 0.177661 0.218258 -0.023879
v 0.185286 0.210633 -0.016253
v 0.185286 0.107879 -0.016253
v 0.177661 0.100253 -0.023879
v 0.185286 0.107879 0.086500
v 0.177661 0.100253 0.094126
v 0.177661 0.218258 0.094126
v 0.185286 0.210633 0.086500
vn 0.5000 0.5000 -0.7071
vn 0.7071 -0.0000 -0.7071
vn 0.5000 -0.5000 -0.7071
vn -0.0000 -0.7071 -0.7071
vn -0.5000 -0.5000 -0.7071
vn -0.7071 -0.0000 -0.7071
vn -0.5000 0.5000 -0.7071
vn -0.0000 0.7071 -0.7071
vn 1.0000 -0.0000 -0.0000
vn -0.0000 -0.0000 -1.0000
vn -0.7071 0.7071 -0.0000
vn -0.0000 1.0000 -0.0000
vn -1.0000 -0.0000 -0.0000
vn -0.7071 -0.7071 -0.0000
vn 0.7071 -0.7071 -0.0000
vn 0.7071 0.7071 -0.0000
vn -0.0000 -1.0000 -0.0000
vn -0.0000 -0.0000 1.0000
vn 0.5000 0.5000 0.7071
vn 0.7071 -0.0000 0.7071
vn -0.7071 -0.0000 0.7071
vn -0.5000 0.5000 0.7071
vn -0.0000 0.7071 0.7071
vn 0.2854 0.2854 0.9149
vn 0.4036 -0.0000 0.9149
vn -0.0000 0.4036 0.9149
vn -0.2854 0.2854 0.9149
vn -0.4036 -0.0000 0.9149
vn -0.2854 -0.2854 0.9149
vn -0.0000 -0.4036 0.9149
vn 0.0006 0.0006 1.0000
vn -0.0000 0.0008 1.0000
vn -0.0006 0.0006 1.0000
vn -0.0008 -0.0000 1.0000
vn -0.0006 -0.0006 1.0000
vn -0.0000 -0.0008 1.0000
vn 0.0006 -0.0006 1.0000
vn 0.0008 -0.0000 1.0000
vn -0.5000 -0.5000 0.7071
vn -0.0000 -0.7071 0.7071
vn 0.5000 -0.5000 0.7071
vn 0.3827 0.9239 -0.0000
vn 0.9239 -0.3827 -0.0000
vn -0.3827 0.9239 -0.0000
vn -0.9239 -0.3827 -0.0000
vn -0.9239 0.3827 -0.0000
vn 0.9239 0.3827 -0.0000
vn 0.3827 -0.9239 -0.0000
vn -0.3827 -0.9239 -0.0000
vn -0.0000 0.9769 0.2138
vn -0.0000 0.9769 -0.2138
vn -0.0004 1.0000 -0.0000
vn 0.0004 1.0000 -0.0000
vn -1.0000 0.0036 0.0010
vn -1.0000 0.0057 -0.0000
vn -1.0000 0.0036 -0.0010
vn -1.0000 -0.0000 -0.0011
vn -1.0000 -0.0007 -0.0007
vn -1.0000 -0.0011 -0.0000
vn -1.0000 -0.0007 0.0007
vn -1.0000 -0.0000 0.0011
vn 1.0000 0.0036 -0.0010
vn 1.0000 0.0057 -0.0000
vn 1.0000 0.0036 0.0010
vn 1.0000 -0.0000 0.0011
vn 1.0000 -0.0007 0.0007
vn 1.0000 -0.0011 -0.0000
vn 1.0000 -0.0007 -0.0007
vn 1.0000 -0.0000 -0.0011
vn -0.7388 -0.6739 -0.0000
vn -0.9989 0.0458 -0.0000
vn -0.0458 -0.9989 -0.0000
vn 0.6739 -0.7388 -0.0000
vn 0.7388 0.6739 -0.0000
vn 0.9989 -0.0458 -0.0000
vn 0.7388 -0.6739 -0.0000
vn 0.0458 -0.9989 -0.0000
vn -0.7388 0.6739 -0.0000
vn -0.9989 -0.0458 -0.0000
vn -0.6739 -0.7388 -0.0000
vn 0.9989 0.0458 -0.0000
vn -0.6739 0.7388 -0.0000
vn -0.0458 0.9989 -0.0000
vn 0.0458 0.9989 -0.0000
vn 0.6739 0.7388 -0.0000
vn 0.2854 -0.2854 0.9149
vn 0.9198 0.3923 -0.0000
vn -0.7138 0.7004 -0.0000
vn 0.7138 0.7004 -0.0000
vn -0.7138 -0.7004 -0.0000
vn -0.7004 0.7138 -0.0000
vn 0.7004 0.7138 -0.0000
vn 0.7138 -0.7004 -0.0000
vt 1.000000 0.540607
vt 0.875000 0.540607
vt 0.875000 0.500000
vt 0.985890 0.500000
vt 0.750000 0.540607
vt 0.750000 0.500000
vt 0.625000 0.540607
vt 0.625000 0.500000
vt 0.500000 0.540607
vt 0.500000 0.500000
vt 0.375000 0.540607
vt 0.375000 0.500000
vt 0.250000 0.540607
vt 0.250000 0.500000
vt 0.125000 0.540607
vt 0.125000 0.500000
vt 0.000000 0.540607
vt 0.014110 0.500000
vt 0.647071 0.147071
vt 0.604437 0.250000
vt 0.750000 0.435818
vt 0.881393 0.381393
vt 0.852929 0.352929
vt 0.750000 0.395564
vt 0.935818 0.250000
vt 0.895564 0.250000
vt 0.881393 0.118607
vt 0.852929 0.147071
vt 0.750000 0.064182
vt 0.750000 0.104436
vt 0.618607 0.118607
vt 0.564182 0.250000
vt 0.618607 0.381393
vt 0.647071 0.352929
vt 0.608401 0.250000
vt 0.649874 0.350126
vt 0.850126 0.350126
vt 0.750000 0.391599
vt 0.891600 0.250000
vt 0.850126 0.149874
vt 0.750000 0.108401
vt 0.649874 0.149874
vt 0.629542 0.233342
vt 0.638387 0.211988
vt 0.861613 0.288012
vt 0.855801 0.302043
vt 0.706271 0.140755
vt 0.736470 0.128246
vt 0.644199 0.197957
vt 0.653044 0.176603
vt 0.870458 0.266658
vt 0.686428 0.148974
vt 0.659944 0.340056
vt 0.750000 0.377358
vt 0.633612 0.276484
vt 0.641831 0.296327
vt 0.876270 0.252627
vt 0.841144 0.337429
vt 0.846956 0.323397
vt 0.793729 0.359245
vt 0.623730 0.247373
vt 0.658856 0.162572
vt 0.866388 0.223516
vt 0.858169 0.203673
vt 0.654340 0.326526
vt 0.763530 0.371754
vt 0.622642 0.250000
vt 0.813572 0.351026
vt 0.840056 0.340056
vt 0.659944 0.159944
vt 0.877358 0.250000
vt 0.845660 0.173474
vt 0.840056 0.159944
vt 0.750000 0.122642
vt 0.875000 0.955424
vt 0.750000 0.955424
vt 0.750000 0.594741
vt 0.625000 0.594741
vt 0.125000 0.952941
vt 0.250000 0.952941
vt 0.000000 0.591571
vt 0.125000 0.591571
vt 0.250000 0.955424
vt 0.125000 0.955424
vt 0.625000 0.952941
vt 0.750000 0.952941
vt 0.500000 0.591571
vt 0.625000 0.591571
vt 0.125000 0.594741
vt 0.000000 0.594741
vt 0.625000 0.955424
vt 0.500000 0.594741
vt 0.000000 0.952941
vt 0.500000 0.952941
vt 0.375000 0.591571
vt 0.000000 0.955424
vt 0.500000 0.955424
vt 0.375000 0.594741
vt 0.875000 0.594741
vt 0.875000 0.645266
vt 0.750000 0.645266
vt 0.875000 0.591571
vt 0.750000 0.591571
vt 1.000000 0.594741
vt 1.000000 0.645266
vt 1.000000 0.591571
vt 0.375000 0.645266
vt 0.250000 0.645266
vt 0.250000 0.594740
vt 0.250000 0.591571
vt 0.125000 0.645266
vt 0.000000 0.645266
vt 1.000000 0.943364
vt 1.000000 0.952941
vt 0.875000 0.952941
vt 0.875000 0.943364
vt 0.125000 0.943364
vt 0.000000 0.943364
vt 0.750000 0.943364
vt 0.625000 0.943364
vt 0.500000 0.943364
vt 0.375000 0.952941
vt 0.375000 0.943364
vt 0.250000 0.943364
vt 0.375000 0.955424
vt 1.000000 0.955424
vt 0.437500 0.955424
vt 0.208333 0.664792
vt 0.208333 0.735119
vt 0.236111 0.645266
vt 0.222222 0.645266
vt 0.208333 0.645266
vt 0.194444 0.645266
vt 0.180556 0.645266
vt 0.166667 0.645266
vt 0.152778 0.645266
vt 0.138889 0.645266
vt 0.361111 0.645266
vt 0.347222 0.645266
vt 0.333333 0.645266
vt 0.319444 0.645266
vt 0.305556 0.645266
vt 0.291667 0.645266
vt 0.277778 0.645266
vt 0.263889 0.645266
vt 0.500000 0.645266
vt 0.486111 0.645266
vt 0.472222 0.645266
vt 0.458333 0.645266
vt 0.444444 0.645266
vt 0.430556 0.645266
vt 0.416667 0.645266
vt 0.402778 0.645266
vt 0.388889 0.645266
vt 0.625000 0.645266
vt 0.611111 0.645266
vt 0.597222 0.645266
vt 0.583333 0.645266
vt 0.569445 0.645266
vt 0.555556 0.645266
vt 0.541667 0.645266
vt 0.527778 0.645266
vt 0.513889 0.645266
vt 0.736111 0.645266
vt 0.722222 0.645266
vt 0.708333 0.645266
vt 0.694444 0.645266
vt 0.680556 0.645266
vt 0.666667 0.645266
vt 0.652778 0.645266
vt 0.638889 0.645266
vt 0.861111 0.645266
vt 0.847222 0.645266
vt 0.833333 0.645266
vt 0.819445 0.645266
vt 0.805556 0.645266
vt 0.791667 0.645266
vt 0.777778 0.645266
vt 0.763889 0.645266
vt 0.050926 0.843998
vt 0.050926 0.943364
vt 0.027778 0.943364
vt 0.027778 0.843998
vt 0.111111 0.645266
vt 0.097222 0.645266
vt 0.027778 0.645266
vt 0.013889 0.645266
vt 0.875000 0.990296
vt 1.000000 0.990296
vt 0.996186 1.000000
vt 0.875000 1.000000
vt 0.750000 0.990296
vt 0.750000 1.000000
vt 0.250000 0.990296
vt 0.375000 0.990296
vt 0.375000 1.000000
vt 0.250000 1.000000
vt 0.125000 0.990296
vt 0.125000 1.000000
vt 0.000000 0.990296
vt 0.003814 1.000000
vt 0.394787 0.105213
vt 0.454760 0.250000
vt 0.397509 0.111785
vt 0.394787 0.105213
vt 0.409349 0.409349
vt 0.250000 0.475353
vt 0.250000 0.454760
vt 0.394787 0.394787
vt 0.090651 0.409349
vt 0.105213 0.394787
vt 0.024647 0.250000
vt 0.045240 0.250000
vt 0.090651 0.090651
vt 0.105213 0.105213
vt 0.475353 0.250000
vt 0.250000 0.449115
vt 0.390795 0.390795
vt 0.250000 0.454760
vt 0.449115 0.250000
vt 0.109205 0.390795
vt 0.105213 0.394787
vt 0.050885 0.250000
vt 0.045240 0.250000
vt 0.109205 0.109205
vt 0.250000 0.050885
vt 0.177606 0.075227
vt 0.250000 0.045240
vt 0.390795 0.109205
vt 0.250000 0.079698
vt 0.370422 0.129578
vt 0.250000 0.420302
vt 0.370422 0.370422
vt 0.129578 0.370422
vt 0.079698 0.250000
vt 0.129578 0.129578
vt 0.420302 0.250000
vt 0.250000 0.415134
vt 0.133233 0.366767
vt 0.366767 0.366767
vt 0.084866 0.250000
vt 0.133233 0.133233
vt 0.250000 0.084866
vt 0.366767 0.133233
vt 0.415134 0.250000
vt 0.363980 0.136020
vt 0.411192 0.250000
vt 0.250000 0.088808
vt 0.136020 0.136020
vt 0.088808 0.250000
vt 0.136020 0.363980
vt 0.250000 0.411192
vt 0.363980 0.363980
vt 0.179005 0.250000
vt 0.199799 0.199799
vt 0.321335 0.321335
vt 0.250000 0.350883
vt 0.250000 0.320995
vt 0.300201 0.300201
vt 0.178665 0.321335
vt 0.199799 0.300201
vt 0.149117 0.250000
vt 0.178665 0.178665
vt 0.250000 0.149117
vt 0.250000 0.179005
vt 0.321335 0.178665
vt 0.300201 0.199799
vt 0.350883 0.250000
vt 0.320995 0.250000
vt 0.250000 0.306081
vt 0.289655 0.289655
vt 0.210345 0.289655
vt 0.193919 0.250000
vt 0.210345 0.210345
vt 0.250000 0.193919
vt 0.289655 0.210345
vt 0.306081 0.250000
vt 0.250000 0.295783
vt 0.282373 0.282373
vt 0.295783 0.250000
vt 0.217627 0.282373
vt 0.204217 0.250000
vt 0.217627 0.217627
vt 0.250000 0.204217
vt 0.282373 0.217627
vt 0.262283 0.250000
vt 0.258686 0.258686
vt 0.220083 0.293689
vt 0.240262 0.302047
vt 0.250000 0.262283
vt 0.241314 0.258686
vt 0.237717 0.250000
vt 0.241315 0.241315
vt 0.250000 0.237717
vt 0.258686 0.241315
vt 0.259150 0.095485
vt 0.352789 0.134271
vt 0.149117 0.250000
vt 0.352789 0.365729
vt 0.259150 0.404515
vt 0.343715 0.141619
vt 0.260371 0.107096
vt 0.260371 0.392904
vt 0.343715 0.358382
vt 0.095485 0.259150
vt 0.107096 0.260371
vt 0.134271 0.352789
vt 0.352044 0.147956
vt 0.365729 0.147211
vt 0.358381 0.156285
vt 0.404515 0.240850
vt 0.394313 0.250000
vt 0.392904 0.239629
vt 0.250000 0.105688
vt 0.352044 0.147956
vt 0.147956 0.147956
vt 0.147211 0.134271
vt 0.156285 0.141619
vt 0.240850 0.095485
vt 0.239629 0.107096
vt 0.147956 0.352044
vt 0.141619 0.343715
vt 0.105687 0.250000
vt 0.250000 0.394313
vt 0.240850 0.404515
vt 0.239629 0.392904
vt 0.147212 0.365729
vt 0.147956 0.352044
vt 0.156285 0.358382
vt 0.352044 0.352044
vt 0.000000 0.000000
vt 0.138889 0.943364
vt 0.152778 0.943364
vt 0.166667 0.943364
vt 0.180556 0.943364
vt 0.194444 0.943364
vt 0.208333 0.943364
vt 0.222222 0.943364
vt 0.236111 0.943364
vt 0.263889 0.943364
vt 0.277778 0.943364
vt 0.291667 0.943364
vt 0.305556 0.943364
vt 0.319444 0.943364
vt 0.333333 0.943364
vt 0.347222 0.943364
vt 0.361111 0.943364
vt 0.388889 0.943364
vt 0.402778 0.943364
vt 0.416667 0.943364
vt 0.430556 0.943364
vt 0.444444 0.943364
vt 0.458333 0.943364
vt 0.472222 0.943364
vt 0.486111 0.943364
vt 0.513889 0.943364
vt 0.527778 0.943364
vt 0.541667 0.943364
vt 0.555556 0.943364
vt 0.569445 0.943364
vt 0.583333 0.943364
vt 0.597222 0.943364
vt 0.611111 0.943364
vt 0.638889 0.943364
vt 0.652778 0.943364
vt 0.666667 0.943364
vt 0.680556 0.943364
vt 0.694445 0.943364
vt 0.708333 0.943364
vt 0.722222 0.943364
vt 0.736111 0.943364
vt 0.763889 0.943364
vt 0.777778 0.943364
vt 0.791667 0.943364
vt 0.805556 0.943364
vt 0.819445 0.943364
vt 0.833333 0.943364
vt 0.847222 0.943364
vt 0.861111 0.943364
vt 0.777778 0.943364
vt 0.680556 0.943364
vt 0.583333 0.943364
vt 0.486111 0.943364
vt 0.291667 0.943364
vt 0.194444 0.943364
vt 0.097222 0.943364
vt 0.013889 0.943364
vt 0.074074 0.943364
vt 0.097222 0.943364
vt 0.111111 0.943364
vt 0.050926 0.744632
vt 0.027778 0.744632
vt 0.097222 0.656574
vt 0.027778 0.656574
vt 0.097222 0.744632
vt 0.097222 0.843998
vt 0.074074 0.843998
vt 0.074074 0.744632
vt 0.071365 0.841134
vt 0.053635 0.841134
vt 0.071365 0.747496
vt 0.053635 0.747496
vt 0.071391 0.747496
vt 0.053609 0.841134
vt 0.071365 0.768191
vt 0.053635 0.768191
vt 0.053635 0.747496
vt 0.053635 0.820439
vt 0.071365 0.820439
vt 0.053635 0.760905
vt 0.053635 0.773746
vt 0.071365 0.773746
vt 0.071365 0.760905
vt 0.053635 0.760906
vt 0.071365 0.760905
vt 0.071365 0.768191
vt 0.071365 0.773746
vt 0.071365 0.814884
vt 0.071365 0.827724
vt 0.071365 0.814884
vt 0.053635 0.820439
vt 0.053635 0.814884
vt 0.053635 0.827724
vt 0.053635 0.773746
vt 0.053635 0.814884
vt 0.053635 0.827724
vt 0.027778 0.697301
vt 0.097222 0.697301
vt 0.027778 0.664792
vt 0.097222 0.735119
vt 0.888889 0.645266
vt 0.902778 0.645266
vt 0.916667 0.645266
vt 0.894833 0.664792
vt 0.816193 0.735119
vt 0.250000 0.024647
vt 0.409349 0.090651
vt 0.796591 0.735119
vt 0.930556 0.645266
vt 0.901443 0.664792
vt 0.776989 0.735119
vt 0.757386 0.735119
vt 0.908054 0.664792
vt 0.944444 0.645266
vt 0.958333 0.645266
vt 0.914665 0.664792
vt 0.757386 0.735119
vt 0.737784 0.735119
vt 0.718181 0.735119
vt 0.737784 0.735119
vt 0.921276 0.664792
vt 0.972222 0.645266
vt 0.986111 0.645266
vt 0.927887 0.664792
vt 0.718182 0.735119
vt 0.013889 0.735119
vt 0.027778 0.735119
vt 0.013889 0.735119
vt 0.013889 0.664792
vt 0.111111 0.735119
vt 0.097222 0.664792
vt 0.111111 0.664792
vt 0.625000 0.990296
vt 0.500000 0.990296
vt 0.180556 0.735119
vt 0.194444 0.735119
vt 0.194444 0.664792
vt 0.194444 0.664792
vt 0.180556 0.664792
vt 0.180556 0.735119
vt 0.180556 0.664792
vt 0.152778 0.735119
vt 0.166667 0.735119
vt 0.166667 0.664792
vt 0.152778 0.664792
vt 0.166667 0.735119
vt 0.152778 0.664792
vt 0.125000 0.735119
vt 0.138889 0.735119
vt 0.138889 0.664792
vt 0.138889 0.664792
vt 0.125000 0.664792
vt 0.625000 1.000000
vt 0.500000 1.000000
vt 0.000000 0.735119
vt 0.000000 0.664792
vt 0.934498 0.664792
vt 0.698579 0.735119
vt 0.298278 0.664792
vt 0.152778 0.735119
vt 0.272064 0.735119
vt 0.397509 0.111785
vt 0.544129 0.735119
vt 0.752965 0.728942
vt 0.812687 0.670970
vt 0.173475 0.670970
vt 0.173475 0.728942
vt 0.516712 0.670970
vt 0.371213 0.670970
vt 0.596555 0.664792
vt 0.187636 0.728942
vt 0.187636 0.670970
vt 0.145698 0.670970
vt 0.145698 0.728942
vt 0.667188 0.670970
vt 0.132080 0.670969
vt 0.132080 0.728942
vt 0.159858 0.670970
vt 0.159858 0.728942
vt 0.201253 0.670970
vt 0.201253 0.728942
vt 0.618869 0.728942
vt 0.344502 0.728942
vt 0.478599 0.728942
vt 0.075238 0.670970
vt 0.220737 0.670970
vt 0.070135 0.728942
vt 0.204232 0.728942
vt 0.220083 0.293689
vt 0.240262 0.302047
vt 0.375000 0.000000
vt 0.625000 0.000000
vt 0.625000 0.250000
vt 0.375000 0.250000
vt 0.617590 0.507410
vt 0.382410 0.507411
vt 0.362001 0.487001
vt 0.637999 0.487001
vt 0.362001 0.762999
vt 0.382410 0.742590
vt 0.637999 0.762999
vt 0.617589 0.742590
vt 0.125000 0.750000
vt 0.875000 0.750000
vt 0.595497 0.529503
vt 0.404503 0.529503
vt 0.404503 0.720498
vt 0.595497 0.720497
vt 0.583155 0.541845
vt 0.416845 0.541845
vt 0.583155 0.708155
vt 0.416845 0.708155
s 0
usemtl M_Gris_Metal
f 16/1/1 18/2/1 17/3/1 15/4/1
f 18/2/2 20/5/2 19/6/2 17/3/2
f 20/5/3 22/7/3 21/8/3 19/6/3
f 22/7/4 24/9/4 23/10/4 21/8/4
f 24/9/5 26/11/5 25/12/5 23/10/5
f 26/11/6 28/13/6 27/14/6 25/12/6
f 28/13/7 30/15/7 29/16/7 27/14/7
f 30/15/8 16/17/8 15/18/8 29/16/8
f 36/19/9 37/20/9 46/20/9 45/19/9
f 15/21/10 17/22/10 32/23/10 31/24/10
f 17/22/10 19/25/10 33/26/10 32/23/10
f 19/25/10 21/27/10 34/28/10 33/26/10
f 21/27/10 23/29/10 35/30/10 34/28/10
f 23/29/10 25/31/10 36/19/10 35/30/10
f 25/31/10 27/32/10 37/20/10 36/19/10
f 27/32/10 29/33/10 38/34/10 37/20/10
f 29/33/10 15/21/10 31/24/10 38/34/10
f 34/28/12 35/30/12 44/30/12 43/28/12
f 32/23/13 33/26/13 42/26/13 39/23/13
f 31/24/14 32/23/14 39/23/14 40/24/14
f 37/20/15 38/34/15 41/34/15 46/20/15
f 35/30/16 36/19/16 45/19/16 44/30/16
f 33/26/11 34/28/11 43/28/11 42/26/11
f 38/34/17 31/24/17 40/24/17 41/34/17
f 140/75/10 142/76/10 180/76/10 182/75/10
f 126/77/10 802/78/10 162/78/10 164/77/10
f 149/79/18 147/80/18 171/80/18 167/79/18
f 136/81/18 133/82/18 151/82/18 154/81/18
f 148/83/10 150/84/10 168/84/10 172/83/10
f 143/85/18 141/86/18 179/86/18 177/85/18
f 128/87/18 127/88/18 161/88/18 159/87/18
f 134/89/10 135/90/10 153/90/10 152/89/10
f 142/76/10 803/91/10 178/91/10 180/76/10
f 802/78/10 813/92/10 160/92/10 162/78/10
f 138/93/18 149/79/18 167/79/18 170/93/18
f 144/94/18 143/85/18 177/85/18 175/94/18
f 129/95/18 128/87/18 159/87/18 157/95/18
f 150/84/10 137/96/10 169/96/10 168/84/10
f 803/91/10 814/97/10 176/97/10 178/91/10
f 813/92/10 130/98/10 158/98/10 160/92/10
f 124/99/9 9/100/9 10/101/9 126/77/9
f 18/2/9 123/102/9 125/103/9 20/5/9
f 135/104/16 14/105/16 9/100/16 124/99/16
f 16/1/16 136/106/16 123/102/16 18/2/16
f 20/5/15 125/103/15 127/88/15 22/7/15
f 22/7/17 127/88/17 128/87/17 24/9/17
f 24/9/14 128/87/14 129/95/14 26/11/14
f 130/98/13 11/107/13 12/108/13 132/109/13
f 26/11/13 129/95/13 131/110/13 28/13/13
f 132/109/11 12/108/11 13/111/11 134/89/11
f 28/13/11 131/110/11 133/82/11 30/15/11
f 134/89/12 13/111/12 14/112/12 135/90/12
f 30/15/12 133/82/12 136/81/12 16/17/12
f 1/113/16 138/114/16 139/115/16 2/116/16
f 8/117/12 149/79/12 138/93/12 1/118/12
f 2/116/9 139/115/9 141/86/9 3/119/9
f 3/119/15 141/86/15 143/85/15 4/120/15
f 4/120/17 143/85/17 144/94/17 5/121/17
f 5/121/14 144/94/14 145/122/14 6/123/14
f 6/123/13 145/122/13 147/80/13 7/124/13
f 7/124/11 147/80/11 149/79/11 8/117/11
f 127/88/18 125/103/18 163/103/18 161/88/18
f 141/86/18 139/115/18 181/115/18 179/86/18
f 132/109/10 134/89/10 152/89/10 156/109/10
f 146/125/10 148/83/10 172/83/10 174/125/10
f 137/126/10 140/75/10 182/75/10 169/126/10
f 133/82/18 131/110/18 155/110/18 151/82/18
f 147/80/18 145/122/18 173/122/18 171/80/18
f 124/99/10 126/77/10 164/77/10 166/99/10
f 139/115/18 138/114/18 170/114/18 181/115/18
f 125/103/18 123/102/18 165/102/18 163/103/18
f 130/98/10 132/109/10 156/109/10 158/98/10
f 814/97/10 809/127/10 146/125/10 174/125/10 176/97/10
f 135/104/10 124/99/10 166/99/10 153/104/10
f 131/110/18 129/95/18 157/95/18 155/110/18
f 145/122/18 144/94/18 175/94/18 173/122/18
f 123/102/18 136/106/18 154/106/18 165/102/18
f 13/111/18 12/108/18 411/108/18 312/130/18 291/130/18 292/131/18 311/131/18 310/132/18 293/132/18 294/133/18 309/133/18 308/134/18 295/134/18 296/135/18 307/135/18 306/136/18 297/136/18 298/137/18 410/137/18 409/111/18
f 12/108/18 11/107/18 413/107/18 319/138/18 283/138/18 284/139/18 318/139/18 317/140/18 285/140/18 286/141/18 316/141/18 315/142/18 287/142/18 288/143/18 314/143/18 313/144/18 289/144/18 290/145/18 412/145/18 411/108/18
f 11/107/18 806/146/18 415/146/18 326/147/18 275/147/18 276/148/18 325/148/18 324/149/18 277/149/18 278/150/18 323/150/18 322/151/18 279/151/18 280/152/18 321/152/18 320/153/18 281/153/18 282/154/18 414/154/18 413/107/18
f 806/146/18 801/155/18 417/155/18 333/156/18 267/156/18 268/157/18 332/157/18 331/158/18 269/158/18 270/159/18 330/159/18 329/160/18 271/160/18 272/161/18 328/161/18 327/162/18 273/162/18 274/163/18 416/163/18 415/146/18
f 801/155/18 10/101/18 419/101/18 340/164/18 259/164/18 260/165/18 339/165/18 338/166/18 261/166/18 262/167/18 337/167/18 336/168/18 263/168/18 264/169/18 335/169/18 334/170/18 265/170/18 266/171/18 418/171/18 417/155/18
f 10/101/18 9/100/18 421/100/18 347/172/18 251/172/18 252/173/18 346/173/18 345/174/18 253/174/18 254/175/18 344/175/18 343/176/18 255/176/18 256/177/18 342/177/18 341/178/18 257/178/18 258/179/18 420/179/18 419/101/18
f 407/112/18 14/112/18 13/111/18 409/111/18 305/184/18 299/184/18 300/185/18 304/185/18 303/186/18 301/186/18 302/187/18 408/187/18
f 442/188/19 439/189/19 440/190/19 441/191/19
f 444/192/20 442/188/20 441/191/20 443/193/20
f 449/194/21 447/195/21 446/196/21 448/197/21
f 451/198/22 449/194/22 448/197/22 450/199/22
f 439/200/23 451/198/23 450/199/23 440/201/23
f 137/126/16 439/189/16 442/188/16 140/75/16
f 150/84/12 451/198/12 439/200/12 137/96/12
f 140/75/9 442/188/9 444/192/9 142/76/9
f 146/125/13 447/195/13 449/194/13 148/83/13
f 148/83/11 449/194/11 451/198/11 150/84/11
f 441/206/18 440/207/18 453/208/18 452/209/18
f 440/207/18 450/210/18 454/211/18 453/208/18
f 450/210/18 448/212/18 455/213/18 454/211/18
f 448/212/18 446/214/18 456/215/18 455/213/18
f 443/216/18 441/206/18 452/209/18 457/203/18
f 116/331/14 118/331/14 640/331/14 670/331/14
f 8/117/10 435/117/10 436/332/10 194/332/10 193/333/10 397/333/10 398/334/10 192/334/10 191/335/10 399/335/10 400/336/10 190/336/10 189/337/10 401/337/10 402/338/10 188/338/10 187/339/10 403/339/10 433/124/10 7/124/10
f 7/124/10 433/124/10 434/340/10 202/340/10 201/341/10 390/341/10 391/342/10 200/342/10 199/343/10 392/343/10 393/344/10 198/344/10 197/345/10 394/345/10 395/346/10 196/346/10 195/347/10 396/347/10 431/123/10 6/123/10
f 6/123/10 431/123/10 432/348/10 210/348/10 209/349/10 383/349/10 384/350/10 208/350/10 207/351/10 385/351/10 386/352/10 206/352/10 205/353/10 387/353/10 388/354/10 204/354/10 203/355/10 389/355/10 429/121/10 5/121/10
f 5/121/10 429/121/10 430/356/10 218/356/10 217/357/10 376/357/10 377/358/10 216/358/10 215/359/10 378/359/10 379/360/10 214/360/10 213/361/10 380/361/10 381/362/10 212/362/10 211/363/10 382/363/10 427/120/10 4/120/10
f 4/120/10 427/120/10 428/364/10 226/364/10 225/365/10 369/365/10 370/366/10 224/366/10 223/367/10 371/367/10 372/368/10 222/368/10 221/369/10 373/369/10 374/370/10 220/370/10 219/371/10 375/371/10 425/119/10 3/119/10
f 3/119/10 425/119/10 426/372/10 234/372/10 233/373/10 362/373/10 363/374/10 232/374/10 231/375/10 364/375/10 365/376/10 230/376/10 229/377/10 366/377/10 367/378/10 228/378/10 227/379/10 368/379/10 423/116/10 2/116/10
f 2/116/10 423/116/10 424/380/10 242/380/10 241/381/10 355/381/10 356/382/10 240/382/10 239/383/10 357/383/10 358/348/10 238/348/10 237/384/10 359/384/10 360/385/10 236/385/10 235/386/10 361/386/10 437/118/10 1/113/10
f 1/113/10 437/118/10 438/387/10 186/387/10 185/182/10 404/182/10 672/181/10 671/388/10 405/389/10 184/389/10 183/390/10 406/390/10 435/117/10 8/117/10
f 812/436/18 445/437/18 811/202/18 808/228/18
f 803/91/17 807/463/17 815/464/17 814/97/17
f 802/78/17 801/155/17 806/146/17 813/92/17
f 443/216/18 457/203/18 811/202/18 445/437/18
f 815/464/40 807/463/40 445/483/40 812/484/40
f 807/463/41 444/192/41 443/193/41 445/483/41
f 446/196/39 447/195/39 815/464/39 812/484/39
f 447/195/14 146/125/14 809/127/14 814/97/14 815/464/14
f 456/215/18 446/214/18 812/436/18 808/228/18
f 130/98/14 813/92/14 806/146/14 11/107/14
f 801/155/15 802/78/15 126/77/15 10/101/15
f 421/100/18 9/100/18 14/112/18 407/105/18 354/453/18 422/431/18
f 354/453/18 243/453/18 244/452/18 353/452/18
f 350/439/18 247/439/18 248/433/18 349/433/18 348/432/18 249/432/18 250/431/18 422/431/18
f 352/445/18 245/445/18 246/444/18 351/444/18
f 422/431/87 354/453/87 353/452/87 350/439/87
f 444/192/15 807/463/15 803/91/15 142/76/15
f 881/521/13 882/522/13 884/523/13 883/524/13
f 893/525/2 894/526/2 890/527/2 892/528/2
f 886/529/15 890/527/15 894/526/15 895/530/15
f 892/528/16 887/531/16 896/532/16 893/525/16
f 887/531/20 886/529/20 895/530/20 896/532/20
f 883/16/17 890/527/17 886/529/17 881/533/17
f 886/529/18 887/531/18 882/483/18 881/196/18
f 892/528/12 884/3/12 882/534/12 887/531/12
f 883/524/10 884/523/10 892/528/10 890/527/10
f 891/535/9 889/536/9 894/526/9 893/525/9
f 889/536/9 885/537/9 895/530/9 894/526/9
f 888/538/9 891/535/9 893/525/9 896/532/9
f 885/537/9 888/538/9 896/532/9 895/530/9
f 898/539/2 899/540/2 900/536/2 897/535/2
f 904/541/16 898/539/16 897/535/16 903/538/16
f 901/542/20 904/541/20 903/538/20 902/537/20
f 889/536/10 891/535/10 897/535/10 900/536/10
f 891/535/12 888/538/12 903/538/12 897/535/12
f 885/537/17 889/536/17 900/536/17 902/537/17
f 888/538/18 885/537/18 902/537/18 903/538/18
f 899/540/15 901/542/15 902/537/15 900/536/15
f 898/539/9 904/541/9 901/542/9 899/540/9
usemtl M_Noir_Profond
f 40/24/10 39/23/10 48/37/10 47/38/10
f 39/23/10 42/26/10 49/39/10 48/37/10
f 42/26/10 43/28/10 50/40/10 49/39/10
f 43/28/10 44/30/10 51/41/10 50/40/10
f 44/30/10 45/19/10 52/42/10 51/41/10
f 45/19/10 46/20/10 53/35/10 52/42/10
f 46/20/10 41/34/10 54/36/10 53/35/10
f 41/34/10 40/24/10 47/38/10 54/36/10
f 104/48/10 89/72/10 98/73/10 103/74/10
f 121/68/10 92/55/10 93/56/10 122/60/10
f 106/66/10 99/65/10 100/53/10 105/54/10
f 119/59/10 101/43/10 102/61/10 120/58/10
f 84/45/10 94/49/10 95/44/10 83/46/10
f 86/57/10 96/62/10 97/50/10 85/51/10
f 88/64/10 90/47/10 91/52/10 87/63/10
f 152/89/12 153/90/12 154/81/12 151/82/12
f 156/109/11 152/89/11 151/82/11 155/110/11
f 158/98/13 156/109/13 155/110/13 157/95/13
f 160/92/14 158/98/14 157/95/14 159/87/14
f 162/78/17 160/92/17 159/87/17 161/88/17
f 164/77/15 162/78/15 161/88/15 163/103/15
f 166/99/9 164/77/9 163/103/9 165/102/9
f 153/104/16 166/99/16 165/102/16 154/106/16
f 168/84/12 169/96/12 170/93/12 167/79/12
f 172/83/11 168/84/11 167/79/11 171/80/11
f 174/125/13 172/83/13 171/80/13 173/122/13
f 176/97/14 174/125/14 173/122/14 175/94/14
f 178/91/17 176/97/17 175/94/17 177/85/17
f 180/76/15 178/91/15 177/85/15 179/86/15
f 182/75/9 180/76/9 179/86/9 181/115/9
f 169/126/16 182/75/16 181/115/16 170/114/16
f 481/233/18 480/232/18 489/238/18 488/240/18
f 480/232/18 483/234/18 490/239/18 489/238/18
f 483/234/18 484/235/18 491/241/18 490/239/18
f 484/235/18 485/236/18 492/242/18 491/241/18
f 485/236/18 486/230/18 493/243/18 492/242/18
f 486/230/18 487/231/18 494/244/18 493/243/18
f 487/231/18 482/237/18 495/245/18 494/244/18
f 482/237/18 481/233/18 488/240/18 495/245/18
usemtl M_Anthracite_Steel
f 53/35/11 54/36/11 57/36/11 62/35/11
f 51/41/14 52/42/14 61/42/14 60/41/14
f 49/39/15 50/40/15 59/40/15 58/39/15
f 54/36/12 47/38/12 56/38/12 57/36/12
f 52/42/13 53/35/13 62/35/13 61/42/13
f 50/40/17 51/41/17 60/41/17 59/40/17
f 48/37/9 49/39/9 58/39/9 55/37/9
f 47/38/16 48/37/16 55/37/16 56/38/16
f 78/43/9 77/44/9 660/44/9 655/43/9
f 112/45/13 113/46/13 668/46/13 667/45/13
f 72/47/16 71/48/16 646/48/16 662/47/16
f 77/44/9 76/49/9 659/49/9 660/44/9
f 76/49/9 75/50/9 658/50/9 659/49/9
f 111/51/13 112/45/13 667/45/13 666/51/13
f 73/52/16 72/47/16 662/47/16 657/52/16
f 70/53/17 63/54/17 105/54/17 100/53/17
f 75/50/17 111/51/17 85/51/17 97/50/17
f 80/55/15 81/56/15 93/56/15 92/55/15
f 111/51/13 110/57/13 86/57/13 85/51/13
f 115/58/13 114/59/13 119/59/13 120/58/13
f 81/56/17 117/60/17 122/60/17 93/56/17
f 78/43/9 79/61/9 102/61/9 101/43/9
f 110/57/12 74/62/12 96/62/12 86/57/12
f 109/63/11 108/64/11 88/64/11 87/63/11
f 117/60/10 81/56/10 82/65/10 118/66/10
f 115/58/10 79/61/10 69/67/10 80/55/10 116/68/10 64/69/10
f 113/46/10 77/44/10 78/43/10 114/59/10
f 111/51/10 75/50/10 76/49/10 112/45/10
f 109/63/10 73/52/10 68/70/10 74/62/10 110/57/10 65/71/10
f 107/72/10 71/48/10 72/47/10 108/64/10
f 117/60/14 116/68/14 121/68/14 122/60/14
f 113/46/13 112/45/13 84/45/13 83/46/13
f 66/73/12 67/74/12 103/74/12 98/73/12
f 71/48/17 107/72/17 89/72/17 104/48/17
f 116/68/12 80/55/12 92/55/12 121/68/12
f 77/44/17 113/46/17 83/46/17 95/44/17
f 114/59/12 78/43/12 101/43/12 119/59/12
f 76/49/9 77/44/9 95/44/9 94/49/9
f 63/54/14 118/66/14 106/66/14 105/54/14
f 112/45/12 76/49/12 94/49/12 84/45/12
f 108/64/12 72/47/12 90/47/12 88/64/12
f 118/66/12 82/65/12 99/65/12 106/66/12
f 79/61/17 115/58/17 120/58/17 102/61/17
f 72/47/16 73/52/16 91/52/16 90/47/16
f 82/65/15 70/53/15 100/53/15 99/65/15
f 74/62/9 75/50/9 97/50/9 96/62/9
f 73/52/17 109/63/17 87/63/17 91/52/17
f 107/72/11 66/73/11 98/73/11 89/72/11
f 67/74/16 71/48/16 104/48/16 103/74/16
f 750/128/13 749/129/13 799/129/13 800/128/13
f 489/238/12 490/239/12 499/239/12 496/238/12
f 488/240/16 489/238/16 496/238/16 497/240/16
f 494/244/15 495/245/15 498/245/15 503/244/15
f 492/242/14 493/243/14 502/243/14 501/242/14
f 490/239/11 491/241/11 500/241/11 499/239/11
f 495/245/9 488/240/9 497/240/9 498/245/9
f 493/243/17 494/244/17 503/244/17 502/243/17
f 491/241/13 492/242/13 501/242/13 500/241/13
f 582/246/18 503/244/18 498/245/18 583/247/18
f 576/248/18 502/243/18 503/244/18 582/246/18
f 577/249/18 501/242/18 502/243/18 576/248/18
f 578/250/18 500/241/18 501/242/18 577/249/18
f 579/251/18 499/239/18 500/241/18 578/250/18
f 580/252/18 496/238/18 499/239/18 579/251/18
f 581/253/18 497/240/18 496/238/18 580/252/18
f 75/50/9 74/62/9 648/62/9 658/50/9
f 583/247/18 498/245/18 497/240/18 581/253/18
f 589/296/12 590/297/12 615/297/12 612/296/12
f 605/299/14 606/300/14 631/300/14 629/299/14
f 591/301/17 588/302/17 613/302/17 614/301/17
f 607/303/16 604/304/16 628/304/16 630/303/16
f 598/305/42 599/306/42 622/306/42 623/305/42
f 588/302/43 589/296/43 612/296/43 613/302/43
f 604/304/44 605/299/44 629/299/44 628/304/44
f 597/307/15 598/305/15 623/305/15 620/307/15
f 575/308/18 582/246/18 585/309/18 584/310/18
f 582/246/18 583/247/18 586/311/18 585/309/18
f 583/247/18 574/312/18 587/313/18 586/311/18
f 574/312/18 575/308/18 584/310/18 587/313/18
f 573/314/18 576/248/18 589/296/18 588/302/18
f 576/248/18 582/246/18 590/297/18 589/296/18
f 582/246/18 575/315/18 591/301/18 590/297/18
f 575/315/18 573/314/18 588/302/18 591/301/18
f 571/316/18 577/249/18 593/317/18 592/318/18
f 577/249/18 576/248/18 594/319/18 593/317/18
f 576/248/18 573/314/18 595/320/18 594/319/18
f 573/314/18 571/316/18 592/318/18 595/320/18
f 577/249/18 571/316/18 572/298/18 578/250/18
f 504/321/18 579/251/18 597/307/18 596/322/18
f 579/251/18 578/250/18 598/305/18 597/307/18
f 578/250/18 572/323/18 599/306/18 598/305/18
f 572/323/18 504/321/18 596/322/18 599/306/18
f 506/324/18 580/252/18 601/325/18 600/326/18
f 580/252/18 579/251/18 602/327/18 601/325/18
f 579/251/18 504/328/18 603/329/18 602/327/18
f 504/328/18 506/324/18 600/326/18 603/329/18
f 505/330/18 581/253/18 605/299/18 604/304/18
f 581/253/18 580/252/18 606/300/18 605/299/18
f 580/252/18 506/324/18 607/303/18 606/300/18
f 506/324/18 505/330/18 604/304/18 607/303/18
f 583/247/18 581/253/18 505/330/18 574/268/18
f 606/300/43 607/303/43 630/303/43 631/300/43
f 590/297/45 591/301/45 614/301/45 615/297/45
f 600/326/46 601/325/46 624/325/46 625/326/46
f 584/310/47 585/309/47 608/309/47 609/310/47
f 603/329/12 600/326/12 625/326/12 626/329/12
f 587/313/15 584/310/15 609/310/15 610/313/15
f 601/325/17 602/327/17 627/327/17 624/325/17
f 585/309/11 586/311/11 611/311/11 608/309/11
f 592/318/48 593/317/48 616/317/48 617/318/48
f 602/327/47 603/329/47 626/329/47 627/327/47
f 586/311/49 587/313/49 610/313/49 611/311/49
f 595/320/14 592/318/14 617/318/14 618/320/14
f 593/317/16 594/319/16 619/319/16 616/317/16
f 596/322/45 597/307/45 620/307/45 621/322/45
f 594/319/46 595/320/46 618/320/46 619/319/46
f 599/306/11 596/322/11 621/322/11 622/306/11
f 632/37/10 635/39/10 645/71/10 665/57/10 666/51/10 667/45/10 668/46/10 669/59/10 642/58/10 643/69/10
f 635/39/10 636/40/10 652/73/10 663/72/10 664/64/10 644/63/10 645/71/10
f 636/40/10 637/41/10 647/74/10 652/73/10
f 637/41/10 638/42/10 649/70/10 657/52/10 662/47/10 646/48/10 647/74/10
f 638/42/10 639/35/10 651/67/10 654/61/10 655/43/10 660/44/10 659/49/10 658/50/10 648/62/10 649/70/10
f 639/35/10 634/36/10 653/53/10 656/65/10 661/56/10 650/55/10 651/67/10
f 634/36/10 633/38/10 641/54/10 653/53/10
f 641/54/10 633/38/10 632/37/10 643/69/10 670/68/10 640/66/10
f 69/67/9 79/61/9 654/61/9 651/67/9
f 56/38/16 55/37/16 632/37/16 633/38/16
f 66/73/11 107/72/11 663/72/11 652/73/11
f 113/46/13 114/59/13 669/59/13 668/46/13
f 57/36/12 56/38/12 633/38/12 634/36/12
f 81/56/15 80/55/15 650/55/15 661/56/15
f 55/37/9 58/39/9 635/39/9 632/37/9
f 107/72/11 108/64/11 664/64/11 663/72/11
f 118/66/14 63/54/14 641/54/14 640/66/14
f 114/59/13 115/58/13 642/58/13 669/59/13
f 58/39/15 59/40/15 636/40/15 635/39/15
f 79/61/9 78/43/9 655/43/9 654/61/9
f 115/58/13 64/69/13 643/69/13 642/58/13
f 82/65/15 81/56/15 661/56/15 656/65/15
f 59/40/17 60/41/17 637/41/17 636/40/17
f 108/64/11 109/63/11 644/63/11 664/64/11
f 70/53/15 82/65/15 656/65/15 653/53/15
f 109/63/11 65/71/11 645/71/11 644/63/11
f 64/69/14 116/68/14 670/68/14 643/69/14
f 60/41/14 61/42/14 638/42/14 637/41/14
f 63/54/17 70/53/17 653/53/17 641/54/17
f 71/48/16 67/74/16 647/74/16 646/48/16
f 61/42/13 62/35/13 639/35/13 638/42/13
f 65/71/13 110/57/13 665/57/13 645/71/13
f 67/74/12 66/73/12 652/73/12 647/74/12
f 74/62/9 68/70/9 649/70/9 648/62/9
f 62/35/11 57/36/11 634/36/11 639/35/11
f 80/55/15 69/67/15 651/67/15 650/55/15
f 110/57/13 111/51/13 666/51/13 665/57/13
f 68/70/16 73/52/16 657/52/16 649/70/16
f 413/107/70 414/154/70 432/348/70 431/123/70
f 276/148/14 275/147/14 203/355/14 204/354/14
f 278/150/14 277/149/14 205/353/14 206/352/14
f 280/152/14 279/151/14 207/351/14 208/350/14
f 282/154/14 281/153/14 209/349/14 210/348/14
f 226/364/16 428/364/16 418/171/16 266/171/16
f 411/108/71 412/145/71 434/340/71 433/124/71
f 415/146/72 416/163/72 430/356/72 429/121/72
f 417/155/73 418/171/73 428/364/73 427/120/73
f 421/100/74 422/431/74 424/380/74 423/116/74
f 419/101/75 420/179/75 426/372/75 425/119/75
f 341/178/9 342/177/9 363/374/9 362/373/9
f 343/176/9 344/175/9 365/376/9 364/375/9
f 345/174/9 346/173/9 367/378/9 366/377/9
f 348/432/16 349/433/16 787/434/16 788/435/16 356/382/16 355/381/16
f 340/164/76 419/101/76 425/119/76 375/371/76
f 334/170/15 335/169/15 370/366/15 369/365/15
f 336/168/15 337/167/15 372/368/15 371/367/15
f 338/166/15 339/165/15 374/370/15 373/369/15
f 333/156/77 417/155/77 427/120/77 382/363/77
f 327/162/17 328/161/17 377/358/17 376/357/17
f 331/158/17 332/157/17 381/362/17 380/361/17
f 312/130/78 411/108/78 433/124/78 403/339/78
f 750/128/11 310/132/11 311/131/11 402/338/11 401/337/11 749/129/11
f 319/138/79 413/107/79 431/123/79 396/347/79
f 313/144/13 314/143/13 391/342/13 390/341/13
f 315/142/13 316/141/13 393/344/13 392/343/13
f 326/147/80 415/146/80 429/121/80 389/355/80
f 320/153/14 321/152/14 384/350/14 383/349/14
f 322/151/14 323/150/14 386/352/14 385/351/14
f 324/149/14 325/148/14 388/354/14 387/353/14
f 242/380/11 424/380/11 422/431/11 250/431/11
f 202/340/17 434/340/17 412/145/17 290/145/17
f 249/432/15 348/432/15 355/381/15 241/381/15
f 289/144/12 313/144/12 390/341/12 201/341/12
f 282/154/15 210/348/15 432/348/15 414/154/15
f 198/344/17 393/344/17 316/141/17 286/141/17
f 209/349/11 281/153/11 320/153/11 383/349/11
f 285/140/12 317/140/12 394/345/12 197/345/12
f 287/142/12 315/142/12 392/343/12 199/343/12
f 196/346/17 395/346/17 318/139/17 284/139/17
f 347/172/81 421/100/81 423/116/81 368/379/81
f 329/160/17 330/159/17 379/360/17 378/359/17
f 394/345/13 317/140/13 318/139/13 395/346/13
f 200/342/17 391/342/17 314/143/17 288/143/17
f 196/346/13 284/139/13 283/138/13 195/347/13
f 198/344/13 286/141/13 285/140/13 197/345/13
f 265/170/14 334/170/14 369/365/14 225/365/14
f 200/342/13 288/143/13 287/142/13 199/343/13
f 202/340/13 290/145/13 289/144/13 201/341/13
f 224/366/16 370/366/16 335/169/16 264/169/16
f 195/347/12 283/138/12 319/138/12 396/347/12
f 280/152/15 208/350/15 384/350/15 321/152/15
f 207/351/11 279/151/11 322/151/11 385/351/11
f 278/150/15 206/352/15 386/352/15 323/150/15
f 234/372/12 426/372/12 420/179/12 258/179/12
f 205/353/11 277/149/11 324/149/11 387/353/11
f 257/178/17 341/178/17 362/373/17 233/373/17
f 276/148/15 204/354/15 388/354/15 325/148/15
f 232/374/12 363/374/12 342/177/12 256/177/12
f 203/355/11 275/147/11 326/147/11 389/355/11
f 255/176/17 343/176/17 364/375/17 231/375/17
f 230/376/12 365/376/12 344/175/12 254/175/12
f 253/174/17 345/174/17 366/377/17 229/377/17
f 228/378/12 367/378/12 346/173/12 252/173/12
f 188/338/14 402/338/14 311/131/14 292/131/14
f 291/130/16 312/130/16 403/339/16 187/339/16
f 218/356/9 430/356/9 416/163/9 274/163/9
f 269/158/13 331/158/13 380/361/13 213/361/13
f 216/358/9 377/358/9 328/161/9 272/161/9
f 212/362/9 381/362/9 332/157/9 268/157/9
f 267/156/13 333/156/13 382/363/13 211/363/13
f 214/360/9 379/360/9 330/159/9 270/159/9
f 273/162/13 327/162/13 376/357/13 217/357/13
f 271/160/13 329/160/13 378/359/13 215/359/13
f 251/172/17 347/172/17 368/379/17 227/379/17
f 188/338/11 292/131/11 291/130/11 187/339/11
f 263/168/14 336/168/14 371/367/14 223/367/14
f 222/368/16 372/368/16 337/167/16 262/167/16
f 212/362/17 268/157/17 267/156/17 211/363/17
f 214/360/17 270/159/17 269/158/17 213/361/17
f 261/166/14 338/166/14 373/369/14 221/369/14
f 216/358/17 272/161/17 271/160/17 215/359/17
f 218/356/17 274/163/17 273/162/17 217/357/17
f 220/370/16 374/370/16 339/165/16 260/165/16
f 220/370/15 260/165/15 259/164/15 219/371/15
f 222/368/15 262/167/15 261/166/15 221/369/15
f 219/371/14 259/164/14 340/164/14 375/371/14
f 224/366/15 264/169/15 263/168/15 223/367/15
f 226/364/15 266/171/15 265/170/15 225/365/15
f 242/380/16 250/431/16 249/432/16 241/381/16
f 228/378/9 252/173/9 251/172/9 227/379/9
f 230/376/9 254/175/9 253/174/9 229/377/9
f 232/374/9 256/177/9 255/176/9 231/375/9
f 234/372/9 258/179/9 257/178/9 233/373/9
f 240/382/16 730/435/16 731/438/16 239/383/16
f 730/435/11 240/382/11 356/382/11 788/435/11
f 729/434/16 248/433/16 247/439/16 732/440/16
f 248/433/11 729/434/11 787/434/11 349/433/11
f 239/383/15 731/438/15 785/438/15 357/383/15
f 238/348/16 734/441/16 735/442/16 237/384/16
f 734/441/11 238/348/11 358/348/11 784/441/11
f 733/443/16 246/444/16 245/445/16 736/446/16
f 246/444/11 733/443/11 783/443/11 351/444/11
f 237/384/15 735/442/15 781/447/15 359/384/15
f 236/385/16 738/448/16 739/449/16 235/386/16
f 738/448/11 236/385/11 360/385/11 780/450/11
f 737/451/16 244/452/16 243/453/16 740/454/16
f 244/452/11 737/451/11 779/451/11 353/452/11
f 740/454/15 243/453/15 354/453/15 778/454/15
f 235/386/15 739/449/15 777/455/15 361/386/15
f 186/387/12 742/456/12 743/457/12 185/182/12
f 742/456/13 186/387/13 438/387/13 776/458/13
f 741/459/12 302/187/12 301/186/12 744/429/12
f 302/187/13 741/459/13 775/459/13 408/187/13
f 184/389/12 746/430/12 748/460/12 183/390/12
f 745/461/12 300/185/12 299/184/12 747/462/12
f 183/390/9 748/460/9 773/460/9 406/390/9
f 747/462/9 299/184/9 305/184/9 774/462/9
f 189/337/16 771/129/16 749/129/16 401/337/16
f 772/128/16 293/132/16 310/132/16 750/128/16
f 399/335/11 753/465/11 752/466/11 400/336/11
f 294/133/14 769/467/14 751/468/14 309/133/14
f 754/469/11 308/134/11 309/133/11 751/468/11
f 770/466/14 190/336/14 400/336/14 752/466/14
f 191/335/16 767/470/16 753/465/16 399/335/16
f 768/471/16 295/134/16 308/134/16 754/469/16
f 397/333/11 757/472/11 756/473/11 398/334/11
f 296/135/14 765/474/14 755/474/14 307/135/14
f 758/475/11 306/136/11 307/135/11 755/474/11
f 766/476/14 192/334/14 398/334/14 756/473/14
f 193/333/16 763/472/16 757/472/16 397/333/16
f 764/477/16 297/136/16 306/136/16 758/475/16
f 435/117/82 791/478/82 760/479/82 436/332/82
f 298/137/14 761/480/14 759/481/14 410/137/14
f 792/482/82 409/111/82 410/137/82 759/481/82
f 762/479/14 194/332/14 436/332/14 760/479/14
f 194/332/11 762/479/11 763/472/11 193/333/11
f 761/480/11 298/137/11 297/136/11 764/477/11
f 192/334/11 766/476/11 767/470/11 191/335/11
f 765/474/11 296/135/11 295/134/11 768/471/11
f 190/336/11 770/466/11 771/129/11 189/337/11
f 769/467/11 294/133/11 293/132/11 772/128/11
f 774/462/83 305/184/83 409/111/83 792/482/83
f 406/390/83 773/460/83 791/478/83 435/117/83
f 437/118/84 789/485/84 776/458/84 438/387/84
f 790/486/84 407/112/84 408/187/84 775/459/84
f 778/454/85 354/453/85 407/105/85 790/487/85
f 361/386/85 777/455/85 789/488/85 437/118/85
f 359/384/16 781/447/16 780/450/16 360/385/16
f 782/446/16 352/445/16 353/452/16 779/451/16
f 357/383/16 785/438/16 784/441/16 358/348/16
f 786/440/16 350/439/16 351/444/16 783/443/16
f 736/446/15 245/445/15 352/445/15 782/446/15
f 732/440/15 247/439/15 350/439/15 786/440/15
f 788/435/9 787/434/9 797/434/9 798/435/9
f 823/490/18 819/491/18 795/485/18 793/478/18
f 725/428/10 727/427/10 743/457/10 742/456/10 776/458/10 789/485/10 777/455/10 739/449/10 738/448/10 780/450/10 781/447/10 735/442/10 734/441/10 784/441/10 785/438/10 731/438/10 730/435/10 788/435/10 798/435/10 820/493/10 824/470/10 799/129/10 749/129/10 771/129/10 770/466/10 752/466/10 753/465/10 767/470/10 766/476/10 756/473/10 757/472/10 763/472/10 762/479/10 760/479/10 791/478/10 773/460/10 748/460/10 746/430/10
f 824/470/18 820/493/18 819/491/18 823/490/18
f 840/494/88 837/495/88 862/495/88 863/494/88
f 830/496/89 831/497/89 856/497/89 854/496/89
f 841/498/18 842/499/18 865/499/18 866/498/18
f 836/501/90 833/502/90 857/502/90 859/501/90
f 826/503/89 827/504/89 852/504/89 850/503/89
f 837/495/18 838/505/18 861/505/18 862/495/18
f 796/486/12 794/482/12 793/478/12 795/485/12
f 794/482/91 821/477/91 826/503/91 825/506/91
f 821/477/91 823/490/91 827/504/91 826/503/91
f 823/490/91 793/478/91 828/507/91 827/504/91
f 793/478/91 794/482/91 825/506/91 828/507/91
f 821/477/91 822/471/91 830/496/91 829/508/91
f 822/471/91 824/470/91 831/497/91 830/496/91
f 824/470/91 823/490/91 832/509/91 831/497/91
f 823/490/91 821/477/91 829/508/91 832/509/91
f 822/471/91 800/128/91 834/510/91 833/502/91
f 800/128/91 799/129/91 835/511/91 834/510/91
f 799/129/91 824/470/91 836/501/91 835/511/91
f 824/470/91 822/471/91 833/502/91 836/501/91
f 797/434/92 818/500/92 838/505/92 837/495/92
f 818/500/92 820/493/92 839/512/92 838/505/92
f 820/493/92 798/435/92 840/494/92 839/512/92
f 798/435/92 797/434/92 837/495/92 840/494/92
f 818/500/92 817/489/92 842/499/92 841/498/92
f 817/489/92 819/491/92 843/513/92 842/499/92
f 819/491/92 820/493/92 844/514/92 843/513/92
f 820/493/92 818/500/92 841/498/92 844/514/92
f 817/489/92 796/486/92 846/515/92 845/516/92
f 796/486/92 795/485/92 847/517/92 846/515/92
f 795/485/92 819/491/92 848/518/92 847/517/92
f 819/491/92 817/489/92 845/516/92 848/518/92
f 845/516/18 846/515/18 869/515/18 870/516/18
f 827/504/10 828/507/10 851/507/10 852/504/10
f 834/510/89 835/511/89 860/511/89 858/510/89
f 844/514/88 841/498/88 866/498/88 867/514/88
f 831/497/10 832/509/10 855/509/10 856/497/10
f 838/505/93 839/512/93 864/512/93 861/505/93
f 848/518/88 845/516/88 870/516/88 871/518/88
f 835/511/10 836/501/10 859/501/10 860/511/10
f 842/499/93 843/513/93 868/513/93 865/499/93
f 839/512/10 840/494/10 863/494/10 864/512/10
f 846/515/93 847/517/93 872/517/93 869/515/93
f 843/513/10 844/514/10 867/514/10 868/513/10
f 847/517/10 848/518/10 871/518/10 872/517/10
f 825/506/18 826/503/18 850/503/18 849/506/18
f 829/508/18 830/496/18 854/496/18 853/508/18
f 828/507/90 825/506/90 849/506/90 851/507/90
f 833/502/18 834/510/18 858/510/18 857/502/18
f 832/509/90 829/508/90 853/508/90 855/509/90
f 878/520/12 877/519/12 880/288/12 879/289/12
usemtl M_Steel
f 680/180/12 672/181/12 404/182/12 676/183/12
f 811/202/15 457/203/15 463/203/15 816/204/15 810/205/15
f 459/217/24 460/218/24 461/209/24 458/219/24
f 460/218/25 462/220/25 463/203/25 461/209/25
f 465/221/26 459/217/26 458/219/26 464/222/26
f 467/223/27 465/221/27 464/222/27 466/224/27
f 469/225/28 467/223/28 466/224/28 468/215/28
f 470/226/29 469/225/29 468/215/29 804/227/29 805/228/29
f 471/229/30 470/226/30 805/228/30 810/205/30
f 452/209/16 453/208/16 458/219/16 461/209/16
f 477/230/12 478/231/12 487/231/12 486/230/12
f 453/208/12 454/211/12 464/222/12 458/219/12
f 457/203/9 452/209/9 461/209/9 463/203/9
f 454/211/11 455/213/11 466/224/11 464/222/11
f 455/213/13 456/215/13 468/215/13 466/224/13
f 460/218/18 459/217/18 473/232/18 472/233/18
f 459/217/18 465/221/18 474/234/18 473/232/18
f 465/221/18 467/223/18 475/235/18 474/234/18
f 467/223/18 469/225/18 476/236/18 475/235/18
f 469/225/18 470/226/18 477/230/18 476/236/18
f 470/226/18 471/229/18 478/231/18 477/230/18
f 471/229/18 462/220/18 479/237/18 478/231/18
f 462/220/18 460/218/18 472/233/18 479/237/18
f 475/235/9 476/236/9 485/236/9 484/235/9
f 473/232/17 474/234/17 483/234/17 480/232/17
f 472/233/14 473/232/14 480/232/14 481/233/14
f 478/231/11 479/237/11 482/237/11 487/231/11
f 476/236/16 477/230/16 486/230/16 485/236/16
f 474/234/15 475/235/15 484/235/15 483/234/15
f 479/237/13 472/233/13 481/233/13 482/237/13
f 518/254/13 519/255/13 528/255/13 527/254/13
f 508/256/18 507/257/18 516/258/18 515/259/18
f 507/257/18 510/260/18 517/261/18 516/258/18
f 510/260/18 511/262/18 518/254/18 517/261/18
f 511/262/18 512/263/18 519/255/18 518/254/18
f 512/263/18 513/264/18 520/265/18 519/255/18
f 513/264/18 514/266/18 521/267/18 520/265/18
f 514/266/18 509/268/18 522/269/18 521/267/18
f 509/268/18 508/256/18 515/259/18 522/269/18
f 516/258/12 517/261/12 526/261/12 523/258/12
f 515/259/16 516/258/16 523/258/16 524/259/16
f 521/267/15 522/269/15 525/269/15 530/267/15
f 519/255/14 520/265/14 529/265/14 528/255/14
f 517/261/11 518/254/11 527/254/11 526/261/11
f 522/269/9 515/259/9 524/259/9 525/269/9
f 520/265/17 521/267/17 530/267/17 529/265/17
f 524/259/31 523/258/31 532/270/31 531/271/31
f 523/258/32 526/261/32 533/272/32 532/270/32
f 526/261/33 527/254/33 534/273/33 533/272/33
f 527/254/34 528/255/34 535/274/34 534/273/34
f 528/255/35 529/265/35 536/275/35 535/274/35
f 529/265/36 530/267/36 537/276/36 536/275/36
f 530/267/37 525/269/37 538/277/37 537/276/37
f 525/269/38 524/259/38 531/271/38 538/277/38
f 575/266/17 514/266/17 513/264/17 573/264/17
f 512/263/13 511/262/13 572/298/13 571/263/13
f 504/260/12 510/260/12 507/257/12 506/257/12
f 507/257/16 508/256/16 505/256/16 506/257/16
f 509/268/15 514/266/15 575/266/15 574/268/15
f 573/264/14 513/264/14 512/263/14 571/263/14
f 572/298/11 511/262/11 510/260/11 504/260/11
f 505/256/9 508/256/9 509/268/9 574/268/9
f 678/391/12 680/180/12 676/183/12 675/392/12
f 726/393/12 728/394/12 303/186/12 304/185/12
f 673/395/12 674/396/12 679/397/12 677/398/12
f 682/399/50 683/400/50 688/400/50 685/399/50
f 674/396/12 405/389/12 671/388/12 679/397/12
f 679/397/12 671/388/12 672/181/12 680/180/12
f 677/398/12 679/397/12 682/399/12 681/401/12
f 679/397/12 680/180/12 683/400/12 682/399/12
f 680/180/12 678/391/12 684/402/12 683/400/12
f 678/391/12 677/398/12 681/401/12 684/402/12
f 688/400/9 687/402/9 691/402/9 692/400/9
f 681/401/13 682/399/13 685/399/13 686/401/13
f 683/400/9 684/402/9 687/402/9 688/400/9
f 684/402/51 681/401/51 686/401/51 687/402/51
f 687/402/10 686/401/10 690/401/10 691/402/10
f 685/399/18 688/400/18 692/400/18 689/399/18
f 686/401/13 685/399/13 689/399/13 690/401/13
f 695/401/4 698/402/4 697/402/4 696/403/4
f 693/399/40 700/404/40 699/400/40 694/399/40
f 703/405/8 706/406/8 705/407/8 704/401/8
f 701/399/23 708/400/23 707/408/23 702/409/23
f 721/410/40 722/411/40 715/412/40 716/413/40
f 690/401/52 689/399/52 693/409/52 696/403/52
f 694/399/18 699/400/18 708/400/18 701/399/18
f 689/399/17 692/400/17 700/404/17 693/399/17
f 691/402/17 690/401/17 696/403/17 697/402/17
f 698/402/10 695/401/10 704/401/10 705/407/10
f 692/400/53 691/402/53 697/406/53 700/404/53
f 720/414/18 721/410/18 716/413/18 709/415/18
f 703/405/12 702/409/12 707/408/12 706/406/12
f 695/401/54 696/416/54 710/417/54 709/415/54
f 696/416/55 693/409/55 711/418/55 710/417/55
f 693/409/56 694/399/56 712/419/56 711/418/56
f 694/399/57 701/399/57 713/419/57 712/419/57
f 701/399/58 702/409/58 714/420/58 713/419/58
f 702/409/59 703/405/59 715/412/59 714/420/59
f 703/405/60 704/401/60 716/413/60 715/412/60
f 704/401/61 695/401/61 709/415/61 716/413/61
f 699/400/62 700/421/62 718/422/62 717/423/62
f 700/421/63 697/406/63 719/424/63 718/422/63
f 697/406/64 698/402/64 720/414/64 719/424/64
f 698/402/65 705/407/65 721/410/65 720/414/65
f 705/407/66 706/406/66 722/411/66 721/410/66
f 706/406/67 707/408/67 723/425/67 722/411/67
f 707/408/68 708/400/68 724/426/68 723/425/68
f 708/400/69 699/400/69 717/423/69 724/426/69
f 722/411/17 723/425/17 714/420/17 715/412/17
f 723/425/4 724/426/4 713/419/4 714/420/4
f 724/426/10 717/423/10 712/419/10 713/419/10
f 717/423/8 718/422/8 711/418/8 712/419/8
f 718/422/12 719/424/12 710/417/12 711/418/12
f 719/424/23 720/414/23 709/415/23 710/417/23
f 727/427/12 725/428/12 673/395/12 677/398/12 678/391/12 675/392/12
f 728/394/9 744/429/9 301/186/9 303/186/9
f 725/428/13 746/430/13 184/389/13 405/389/13 674/396/13 673/395/13
f 185/182/9 743/457/9 727/427/9 675/392/9 676/183/9 404/182/9
f 300/185/13 745/461/13 726/393/13 304/185/13
f 808/228/17 811/202/17 810/205/17 805/228/17
f 456/215/14 808/228/14 805/228/14 804/227/14 468/215/14
f 816/492/86 463/203/86 462/220/86 471/229/86 810/205/86
usemtl M_Machined_Steel
f 540/278/19 541/279/19 542/271/19 539/270/19
f 541/279/20 543/280/20 544/277/20 542/271/20
f 546/281/23 540/278/23 539/270/23 545/272/23
f 548/282/22 546/281/22 545/272/22 547/273/22
f 550/283/21 548/282/21 547/273/21 549/274/21
f 552/284/39 550/283/39 549/274/39 551/275/39
f 554/285/40 552/284/40 551/275/40 553/276/40
f 543/280/41 554/285/41 553/276/41 544/277/41
f 531/271/16 532/270/16 539/270/16 542/271/16
f 562/286/13 555/287/13 564/287/13 565/286/13
f 875/288/10 876/289/10 879/289/10 880/288/10
f 538/277/9 531/271/9 542/271/9 544/277/9
f 537/276/15 538/277/15 544/277/15 553/276/15
f 533/272/11 534/273/11 547/273/11 545/272/11
f 534/273/13 535/274/13 549/274/13 547/273/13
f 535/274/14 536/275/14 551/275/14 549/274/14
f 536/275/17 537/276/17 553/276/17 551/275/17
f 541/279/18 540/278/18 556/290/18 555/287/18
f 540/278/18 546/281/18 557/291/18 556/290/18
f 546/281/18 548/282/18 558/292/18 557/291/18
f 548/282/18 550/283/18 559/293/18 558/292/18
f 550/283/18 552/284/18 560/294/18 559/293/18
f 552/284/18 554/285/18 561/295/18 560/294/18
f 554/285/18 543/280/18 562/286/18 561/295/18
f 543/280/18 541/279/18 555/287/18 562/286/18
f 564/287/18 563/290/18 566/291/18 567/292/18 568/293/18 569/294/18 570/295/18 565/286/18
f 560/294/12 561/295/12 570/295/12 569/294/12
f 558/292/9 559/293/9 568/293/9 567/292/9
f 556/290/17 557/291/17 566/291/17 563/290/17
f 555/287/14 556/290/14 563/290/14 564/287/14
f 561/295/11 562/286/11 565/286/11 570/295/11
f 559/293/16 560/294/16 569/294/16 568/293/16
f 557/291/15 558/292/15 567/292/15 566/291/15
f 817/489/10 821/477/10 794/482/10 796/486/10
f 726/393/18 745/461/18 747/462/18 774/462/18 792/482/18 759/481/18 761/480/18 764/477/18 758/475/18 755/474/18 765/474/18 768/471/18 754/469/18 751/468/18 769/467/18 772/128/18 750/128/18 800/128/18 822/471/18 818/500/18 797/434/18 787/434/18 729/434/18 732/440/18 786/440/18 783/443/18 733/443/18 736/446/18 782/446/18 779/451/18 737/451/18 740/454/18 778/454/18 790/487/18 775/459/18 741/459/18 744/429/18 728/394/18
f 818/500/10 822/471/10 821/477/10 817/489/10
f 532/270/12 533/272/12 874/519/12 873/520/12
f 533/272/12 545/272/12 875/288/12 874/519/12
f 545/272/12 539/270/12 876/289/12 875/288/12
f 539/270/12 532/270/12 873/520/12 876/289/12
f 876/289/13 873/520/13 878/520/13 879/289/13
f 874/519/9 875/288/9 880/288/9 877/519/9
f 873/520/18 874/519/18 877/519/18 878/520/18
usemtl M_Orange
f 609/310/18 608/309/18 611/311/18 610/313/18
f 613/302/18 612/296/18 615/297/18 614/301/18
f 617/318/18 616/317/18 619/319/18 618/320/18
f 621/322/18 620/307/18 623/305/18 622/306/18
f 625/326/18 624/325/18 627/327/18 626/329/18
f 628/304/18 629/299/18 631/300/18 630/303/18
f 849/506/91 850/503/91 852/504/91 851/507/91
f 853/508/91 854/496/91 856/497/91 855/509/91
f 857/502/91 858/510/91 860/511/91 859/501/91
f 862/495/92 861/505/92 864/512/92 863/494/92
f 866/498/92 865/499/92 868/513/92 867/514/92
f 870/516/92 869/515/92 872/517/92 871/518/92
