# Blender 5.1.2
# www.blender.org
mtllib SM_Gear.mtl
o SM_Gear
v 0.000000 -0.029197 -0.095176
v 0.000000 0.029197 -0.095176
v 0.026814 -0.029197 -0.091321
v 0.026814 0.029197 -0.091321
v 0.051456 -0.029197 -0.080067
v 0.051456 0.029197 -0.080067
v 0.071929 -0.029197 -0.062327
v 0.071929 0.029197 -0.062327
v 0.086575 -0.029197 -0.039537
v 0.086575 0.029197 -0.039537
v 0.094207 -0.029197 -0.013545
v 0.094207 0.029197 -0.013545
v 0.094207 -0.029197 0.013545
v 0.094207 0.029197 0.013545
v 0.086575 -0.029197 0.039537
v 0.086575 0.029197 0.039537
v 0.071929 -0.029197 0.062327
v 0.071929 0.029197 0.062327
v 0.051456 -0.029197 0.080067
v 0.051456 0.029197 0.080067
v 0.026814 -0.029197 0.091321
v 0.026814 0.029197 0.091321
v 0.000000 -0.029197 0.095176
v 0.000000 0.029197 0.095176
v -0.026814 -0.029197 0.091321
v -0.026814 0.029197 0.091321
v -0.051456 -0.029197 0.080067
v -0.051456 0.029197 0.080067
v -0.071929 -0.029197 0.062327
v -0.071929 0.029197 0.062327
v -0.086575 -0.029197 0.039537
v -0.086575 0.029197 0.039537
v -0.094207 -0.029197 0.013545
v -0.094207 0.029197 0.013545
v -0.094207 -0.029197 -0.013545
v -0.094207 0.029197 -0.013545
v -0.086575 -0.029197 -0.039537
v -0.086575 0.029197 -0.039537
v -0.071929 -0.029197 -0.062327
v -0.071929 0.029197 -0.062327
v -0.051456 -0.029197 -0.080067
v -0.051456 0.029197 -0.080067
v -0.026814 -0.029197 -0.091321
v -0.026814 0.029197 -0.091321
v -0.000000 -0.031152 -0.059668
v 0.016810 -0.031152 -0.057251
v 0.016810 0.031152 -0.057251
v -0.000000 0.031152 -0.059668
v 0.032259 -0.031152 -0.050196
v 0.032259 0.031152 -0.050196
v 0.045094 -0.031152 -0.039074
v 0.045094 0.031152 -0.039074
v 0.054276 -0.031152 -0.024787
v 0.054276 0.031152 -0.024787
v 0.059060 -0.031152 -0.008492
v 0.059060 0.031152 -0.008492
v 0.059060 -0.031152 0.008492
v 0.059060 0.031152 0.008492
v 0.054276 -0.031152 0.024787
v 0.054276 0.031152 0.024787
v 0.045094 -0.031152 0.039074
v 0.045094 0.031152 0.039074
v 0.032259 -0.031152 0.050196
v 0.032259 0.031152 0.050196
v 0.016810 -0.031152 0.057251
v 0.016810 0.031152 0.057251
v 0.000000 -0.031152 0.059668
v 0.000000 0.031152 0.059668
v -0.016810 -0.031152 0.057251
v -0.016810 0.031152 0.057251
v -0.032259 -0.031152 0.050196
v -0.032259 0.031152 0.050196
v -0.045094 -0.031152 0.039074
v -0.045094 0.031152 0.039074
v -0.054276 -0.031152 0.024787
v -0.054276 0.031152 0.024787
v -0.059060 -0.031152 0.008492
v -0.059060 0.031152 0.008492
v -0.059060 -0.031152 -0.008492
v -0.059060 0.031152 -0.008492
v -0.054276 -0.031152 -0.024787
v -0.054276 0.031152 -0.024787
v -0.045094 -0.031152 -0.039074
v -0.045094 0.031152 -0.039074
v -0.032259 -0.031152 -0.050196
v -0.032259 0.031152 -0.050196
v -0.016810 -0.031152 -0.057251
v -0.016810 0.031152 -0.057251
v -0.000000 -0.031152 -0.062993
v 0.017747 -0.031152 -0.060441
v 0.017747 0.031152 -0.060441
v -0.000000 0.031152 -0.062993
v 0.034056 -0.031152 -0.052993
v 0.034056 0.031152 -0.052993
v 0.047607 -0.031152 -0.041251
v 0.047607 0.031152 -0.041251
v 0.057300 -0.031152 -0.026168
v 0.057300 0.031152 -0.026168
v 0.062351 -0.031152 -0.008965
v 0.062351 0.031152 -0.008965
v 0.062351 -0.031152 0.008965
v 0.062351 0.031152 0.008965
v 0.057300 -0.031152 0.026168
v 0.057300 0.031152 0.026168
v 0.047607 -0.031152 0.041251
v 0.047607 0.031152 0.041251
v 0.034056 -0.031152 0.052993
v 0.034056 0.031152 0.052993
v 0.017747 -0.031152 0.060441
v 0.017747 0.031152 0.060441
v 0.000000 -0.031152 0.062993
v 0.000000 0.031152 0.062993
v -0.017747 -0.031152 0.060441
v -0.017747 0.031152 0.060441
v -0.034056 -0.031152 0.052993
v -0.034056 0.031152 0.052993
v -0.047607 -0.031152 0.041251
v -0.047607 0.031152 0.041251
v -0.057300 -0.031152 0.026168
v -0.057300 0.031152 0.026168
v -0.062351 -0.031152 0.008965
v -0.062351 0.031152 0.008965
v -0.062351 -0.031152 -0.008965
v -0.062351 0.031152 -0.008965
v -0.057300 -0.031152 -0.026168
v -0.057300 0.031152 -0.026168
v -0.047607 -0.031152 -0.041251
v -0.047607 0.031152 -0.041251
v -0.034056 -0.031152 -0.052993
v -0.034056 0.031152 -0.052993
v -0.017747 -0.031152 -0.060441
v -0.017747 0.031152 -0.060441
v 0.000000 -0.026879 -0.109271
v 0.001746 -0.029197 -0.107180
v 0.028520 -0.029197 -0.103331
v 0.030785 -0.026879 -0.104845
v 0.030785 0.026879 -0.104845
v 0.028520 0.029197 -0.103331
v 0.001746 0.029197 -0.107180
v 0.000000 0.026879 -0.109271
v 0.059076 -0.026879 -0.091924
v 0.059415 -0.029197 -0.089221
v 0.059415 0.029197 -0.089221
v 0.059076 0.026879 -0.091924
v 0.079858 -0.029197 -0.071508
v 0.082581 -0.026879 -0.071557
v 0.082581 0.026879 -0.071557
v 0.079858 0.029197 -0.071508
v 0.099396 -0.026879 -0.045393
v 0.098220 -0.029197 -0.042936
v 0.098220 0.029197 -0.042936
v 0.099396 0.026879 -0.045393
v 0.105841 -0.029197 -0.016982
v 0.108159 -0.026879 -0.015551
v 0.108159 0.026879 -0.015551
v 0.105841 0.029197 -0.016982
v 0.108159 -0.026879 0.015551
v 0.105841 -0.029197 0.016982
v 0.105841 0.029197 0.016982
v 0.108159 0.026879 0.015551
v 0.098220 -0.029197 0.042936
v 0.099396 -0.026879 0.045393
v 0.099396 0.026879 0.045393
v 0.098220 0.029197 0.042936
v 0.082581 -0.026879 0.071557
v 0.079858 -0.029197 0.071508
v 0.079858 0.029197 0.071508
v 0.082581 0.026879 0.071557
v 0.059415 -0.029197 0.089221
v 0.059076 -0.026879 0.091924
v 0.059076 0.026879 0.091924
v 0.059415 0.029197 0.089221
v 0.030785 -0.026879 0.104845
v 0.028520 -0.029197 0.103331
v 0.028520 0.029197 0.103331
v 0.030785 0.026879 0.104845
v 0.001746 -0.029197 0.107180
v 0.000000 -0.026879 0.109271
v 0.000000 0.026879 0.109271
v 0.001746 0.029197 0.107180
v -0.030785 -0.026879 0.104845
v -0.031872 -0.029197 0.102347
v -0.031872 0.029197 0.102347
v -0.030785 0.026879 0.104845
v -0.056477 -0.029197 0.091110
v -0.059076 -0.026879 0.091924
v -0.059076 0.026879 0.091924
v -0.056477 0.029197 0.091110
v -0.082581 -0.026879 0.071557
v -0.082145 -0.029197 0.068868
v -0.082145 0.029197 0.068868
v -0.082581 0.026879 0.071557
v -0.096769 -0.029197 0.046113
v -0.099396 -0.026879 0.045393
v -0.099396 0.026879 0.045393
v -0.096769 0.029197 0.046113
v -0.108159 -0.026879 0.015551
v -0.106338 -0.029197 0.013525
v -0.106338 0.029197 0.013525
v -0.108159 0.026879 0.015551
v -0.106338 -0.029197 -0.013525
v -0.108159 -0.026879 -0.015551
v -0.108159 0.026879 -0.015551
v -0.106338 0.029197 -0.013525
v -0.099396 -0.026879 -0.045393
v -0.096769 -0.029197 -0.046113
v -0.096769 0.029197 -0.046113
v -0.099396 0.026879 -0.045393
v -0.082145 -0.029197 -0.068868
v -0.082581 -0.026879 -0.071557
v -0.082581 0.026879 -0.071557
v -0.082145 0.029197 -0.068868
v -0.059076 -0.026879 -0.091924
v -0.056477 -0.029197 -0.091110
v -0.056477 0.029197 -0.091110
v -0.059076 0.026879 -0.091924
v -0.031872 -0.029197 -0.102347
v -0.030785 -0.026879 -0.104845
v -0.030785 0.026879 -0.104845
v -0.031872 0.029197 -0.102347
v 0.010233 -0.029197 -0.132644
v 0.008647 -0.026879 -0.135213
v 0.027551 -0.029197 -0.130154
v 0.029798 -0.026879 -0.132172
v 0.027551 0.029197 -0.130154
v 0.029798 0.026879 -0.132172
v 0.010233 0.029197 -0.132644
v 0.008647 0.026879 -0.135213
v 0.080321 0.029197 -0.106054
v 0.080376 0.026879 -0.109074
v 0.080321 -0.029197 -0.106054
v 0.080376 -0.026879 -0.109074
v 0.093544 -0.029197 -0.094597
v 0.096525 -0.026879 -0.095081
v 0.093544 0.029197 -0.094597
v 0.096525 0.026879 -0.095081
v 0.124908 0.029197 -0.045794
v 0.126586 0.026879 -0.048305
v 0.124908 -0.029197 -0.045794
v 0.126586 -0.026879 -0.048305
v 0.129837 -0.029197 -0.029006
v 0.132607 -0.026879 -0.027801
v 0.129837 0.029197 -0.029006
v 0.132607 0.026879 -0.027801
v 0.129837 0.029197 0.029006
v 0.132607 0.026879 0.027801
v 0.129837 -0.029197 0.029006
v 0.132607 -0.026879 0.027801
v 0.124908 -0.029197 0.045794
v 0.126586 -0.026879 0.048305
v 0.124908 0.029197 0.045794
v 0.126586 0.026879 0.048305
v 0.093544 0.029197 0.094597
v 0.096525 0.026879 0.095081
v 0.093544 -0.029197 0.094597
v 0.096525 -0.026879 0.095081
v 0.080321 -0.029197 0.106054
v 0.080376 -0.026879 0.109074
v 0.080321 0.029197 0.106054
v 0.080376 0.026879 0.109074
v 0.027551 0.029197 0.130154
v 0.029798 0.026879 0.132172
v 0.027551 -0.029197 0.130154
v 0.029798 -0.026879 0.132172
v 0.010233 -0.029197 0.132644
v 0.008647 -0.026879 0.135213
v 0.010233 0.029197 0.132644
v 0.008647 0.026879 0.135213
v -0.047189 0.029197 0.124388
v -0.046390 0.026879 0.127300
v -0.047189 -0.029197 0.124388
v -0.046390 -0.026879 0.127300
v -0.063104 -0.029197 0.117119
v -0.065828 -0.026879 0.118423
v -0.063104 0.029197 0.117119
v -0.065828 0.026879 0.118423
v -0.106947 0.029197 0.079129
v -0.107850 0.026879 0.082011
v -0.106947 -0.029197 0.079129
v -0.107850 -0.026879 0.082011
v -0.116406 -0.029197 0.064411
v -0.119403 -0.026879 0.064035
v -0.116406 0.029197 0.064411
v -0.119403 0.026879 0.064035
v -0.132750 0.029197 0.008748
v -0.135068 0.026879 0.010684
v -0.132750 -0.029197 0.008748
v -0.135068 -0.026879 0.010684
v -0.132750 -0.029197 -0.008748
v -0.135068 -0.026879 -0.010684
v -0.132750 0.029197 -0.008748
v -0.135068 0.026879 -0.010684
v -0.116406 0.029197 -0.064411
v -0.119403 0.026879 -0.064035
v -0.116406 -0.029197 -0.064411
v -0.119403 -0.026879 -0.064035
v -0.106947 -0.029197 -0.079129
v -0.107850 -0.026879 -0.082011
v -0.106947 0.029197 -0.079129
v -0.107850 0.026879 -0.082011
v -0.063104 0.029197 -0.117119
v -0.065828 0.026879 -0.118423
v -0.063104 -0.029197 -0.117119
v -0.065828 -0.026879 -0.118423
v -0.047189 -0.029197 -0.124388
v -0.046390 -0.026879 -0.127300
v -0.047189 0.029197 -0.124388
v -0.046390 0.026879 -0.127300
v -0.000000 -0.032526 -0.062993
v -0.000000 -0.033889 -0.064369
v 0.018135 -0.033889 -0.061762
v 0.017747 -0.032526 -0.060441
v 0.017747 0.032526 -0.060441
v 0.018135 0.033889 -0.061762
v -0.000000 0.033889 -0.064369
v -0.000000 0.032526 -0.062993
v 0.034801 -0.033889 -0.054151
v 0.034056 -0.032526 -0.052993
v 0.034056 0.032526 -0.052993
v 0.034801 0.033889 -0.054151
v 0.048647 -0.033889 -0.042153
v 0.047607 -0.032526 -0.041251
v 0.047607 0.032526 -0.041251
v 0.048647 0.033889 -0.042153
v 0.058552 -0.033889 -0.026740
v 0.057300 -0.032526 -0.026168
v 0.057300 0.032526 -0.026168
v 0.058552 0.033889 -0.026740
v 0.063714 -0.033889 -0.009161
v 0.062351 -0.032526 -0.008965
v 0.062351 0.032526 -0.008965
v 0.063714 0.033889 -0.009161
v 0.063714 -0.033889 0.009161
v 0.062351 -0.032526 0.008965
v 0.062351 0.032526 0.008965
v 0.063714 0.033889 0.009161
v 0.058552 -0.033889 0.026740
v 0.057300 -0.032526 0.026168
v 0.057300 0.032526 0.026168
v 0.058552 0.033889 0.026740
v 0.048647 -0.033889 0.042153
v 0.047607 -0.032526 0.041251
v 0.047607 0.032526 0.041251
v 0.048647 0.033889 0.042153
v 0.034801 -0.033889 0.054151
v 0.034056 -0.032526 0.052993
v 0.034056 0.032526 0.052993
v 0.034801 0.033889 0.054151
v 0.018135 -0.033889 0.061762
v 0.017747 -0.032526 0.060441
v 0.017747 0.032526 0.060441
v 0.018135 0.033889 0.061762
v 0.000000 -0.033889 0.064369
v 0.000000 -0.032526 0.062993
v 0.000000 0.032526 0.062993
v 0.000000 0.033889 0.064369
v -0.018135 -0.033889 0.061762
v -0.017747 -0.032526 0.060441
v -0.017747 0.032526 0.060441
v -0.018135 0.033889 0.061762
v -0.034801 -0.033889 0.054151
v -0.034056 -0.032526 0.052993
v -0.034056 0.032526 0.052993
v -0.034801 0.033889 0.054151
v -0.048647 -0.033889 0.042153
v -0.047607 -0.032526 0.041251
v -0.047607 0.032526 0.041251
v -0.048647 0.033889 0.042153
v -0.058552 -0.033889 0.026740
v -0.057300 -0.032526 0.026168
v -0.057300 0.032526 0.026168
v -0.058552 0.033889 0.026740
v -0.063714 -0.033889 0.009161
v -0.062351 -0.032526 0.008965
v -0.062351 0.032526 0.008965
v -0.063714 0.033889 0.009161
v -0.063714 -0.033889 -0.009161
v -0.062351 -0.032526 -0.008965
v -0.062351 0.032526 -0.008965
v -0.063714 0.033889 -0.009161
v -0.058552 -0.033889 -0.026740
v -0.057300 -0.032526 -0.026168
v -0.057300 0.032526 -0.026168
v -0.058552 0.033889 -0.026740
v -0.048647 -0.033889 -0.042153
v -0.047607 -0.032526 -0.041251
v -0.047607 0.032526 -0.041251
v -0.048647 0.033889 -0.042153
v -0.034801 -0.033889 -0.054151
v -0.034056 -0.032526 -0.052993
v -0.034056 0.032526 -0.052993
v -0.034801 0.033889 -0.054151
v -0.018135 -0.033889 -0.061762
v -0.017747 -0.032526 -0.060441
v -0.017747 0.032526 -0.060441
v -0.018135 0.033889 -0.061762
v -0.000000 -0.033889 -0.093799
v -0.000000 -0.032526 -0.095176
v 0.026814 -0.032526 -0.091321
v 0.026426 -0.033889 -0.090000
v 0.026426 0.033889 -0.090000
v 0.026814 0.032526 -0.091321
v -0.000000 0.032526 -0.095176
v -0.000000 0.033889 -0.093799
v 0.051456 -0.032526 -0.080067
v 0.050712 -0.033889 -0.078909
v 0.050712 0.033889 -0.078909
v 0.051456 0.032526 -0.080067
v 0.071929 -0.032526 -0.062327
v 0.070889 -0.033889 -0.061425
v 0.070889 0.033889 -0.061425
v 0.071929 0.032526 -0.062327
v 0.086575 -0.032526 -0.039537
v 0.085323 -0.033889 -0.038966
v 0.085323 0.033889 -0.038966
v 0.086575 0.032526 -0.039537
v 0.094207 -0.032526 -0.013545
v 0.092845 -0.033889 -0.013349
v 0.092845 0.033889 -0.013349
v 0.094207 0.032526 -0.013545
v 0.094207 -0.032526 0.013545
v 0.092845 -0.033889 0.013349
v 0.092845 0.033889 0.013349
v 0.094207 0.032526 0.013545
v 0.086575 -0.032526 0.039537
v 0.085323 -0.033889 0.038966
v 0.085323 0.033889 0.038966
v 0.086575 0.032526 0.039537
v 0.071929 -0.032526 0.062327
v 0.070889 -0.033889 0.061425
v 0.070889 0.033889 0.061425
v 0.071929 0.032526 0.062327
v 0.051456 -0.032526 0.080067
v 0.050712 -0.033889 0.078909
v 0.050712 0.033889 0.078909
v 0.051456 0.032526 0.080067
v 0.026814 -0.032526 0.091321
v 0.026426 -0.033889 0.090000
v 0.026426 0.033889 0.090000
v 0.026814 0.032526 0.091321
v -0.000000 -0.032526 0.095176
v 0.000000 -0.033889 0.093799
v 0.000000 0.033889 0.093799
v -0.000000 0.032526 0.095176
v -0.026814 -0.032526 0.091321
v -0.026426 -0.033889 0.090000
v -0.026426 0.033889 0.090000
v -0.026814 0.032526 0.091321
v -0.051456 -0.032526 0.080067
v -0.050712 -0.033889 0.078909
v -0.050712 0.033889 0.078909
v -0.051456 0.032526 0.080067
v -0.071929 -0.032526 0.062327
v -0.070889 -0.033889 0.061425
v -0.070889 0.033889 0.061425
v -0.071929 0.032526 0.062327
v -0.086575 -0.032526 0.039537
v -0.085323 -0.033889 0.038966
v -0.085323 0.033889 0.038966
v -0.086575 0.032526 0.039537
v -0.094207 -0.032526 0.013545
v -0.092845 -0.033889 0.013349
v -0.092845 0.033889 0.013349
v -0.094207 0.032526 0.013545
v -0.094207 -0.032526 -0.013545
v -0.092845 -0.033889 -0.013349
v -0.092845 0.033889 -0.013349
v -0.094207 0.032526 -0.013545
v -0.086575 -0.032526 -0.039537
v -0.085323 -0.033889 -0.038966
v -0.085323 0.033889 -0.038966
v -0.086575 0.032526 -0.039537
v -0.071929 -0.032526 -0.062327
v -0.070889 -0.033889 -0.061425
v -0.070889 0.033889 -0.061425
v -0.071929 0.032526 -0.062327
v -0.051456 -0.032526 -0.080067
v -0.050712 -0.033889 -0.078909
v -0.050712 0.033889 -0.078909
v -0.051456 0.032526 -0.080067
v -0.026814 -0.032526 -0.091321
v -0.026426 -0.033889 -0.090000
v -0.026426 0.033889 -0.090000
v -0.026814 0.032526 -0.091321
v -0.000000 -0.038248 -0.048860
v -0.000000 -0.039611 -0.050236
v 0.014153 -0.039611 -0.048201
v 0.013765 -0.038248 -0.046881
v 0.013765 0.038248 -0.046881
v 0.014153 0.039611 -0.048201
v -0.000000 0.039611 -0.050236
v -0.000000 0.038248 -0.048860
v 0.027160 -0.039611 -0.042262
v 0.026416 -0.038248 -0.041104
v 0.026416 0.038248 -0.041104
v 0.027160 0.039611 -0.042262
v 0.037966 -0.039611 -0.032898
v 0.036926 -0.038248 -0.031996
v 0.036926 0.038248 -0.031996
v 0.037966 0.039611 -0.032898
v 0.045697 -0.039611 -0.020869
v 0.044445 -0.038248 -0.020297
v 0.044445 0.038248 -0.020297
v 0.045697 0.039611 -0.020869
v 0.049725 -0.039611 -0.007149
v 0.048363 -0.038248 -0.006953
v 0.048363 0.038248 -0.006953
v 0.049725 0.039611 -0.007149
v 0.049725 -0.039611 0.007149
v 0.048363 -0.038248 0.006953
v 0.048363 0.038248 0.006953
v 0.049725 0.039611 0.007149
v 0.045697 -0.039611 0.020869
v 0.044445 -0.038248 0.020297
v 0.044445 0.038248 0.020297
v 0.045697 0.039611 0.020869
v 0.037966 -0.039611 0.032898
v 0.036926 -0.038248 0.031996
v 0.036926 0.038248 0.031996
v 0.037966 0.039611 0.032898
v 0.027160 -0.039611 0.042262
v 0.026416 -0.038248 0.041104
v 0.026416 0.038248 0.041104
v 0.027160 0.039611 0.042262
v 0.014153 -0.039611 0.048201
v 0.013765 -0.038248 0.046881
v 0.013765 0.038248 0.046881
v 0.014153 0.039611 0.048201
v 0.000000 -0.039611 0.050236
v 0.000000 -0.038248 0.048860
v 0.000000 0.038248 0.048860
v 0.000000 0.039611 0.050236
v -0.014153 -0.039611 0.048201
v -0.013765 -0.038248 0.046881
v -0.013765 0.038248 0.046881
v -0.014153 0.039611 0.048201
v -0.027160 -0.039611 0.042262
v -0.026416 -0.038248 0.041104
v -0.026416 0.038248 0.041104
v -0.027160 0.039611 0.042262
v -0.037966 -0.039611 0.032898
v -0.036926 -0.038248 0.031996
v -0.036926 0.038248 0.031996
v -0.037966 0.039611 0.032898
v -0.045697 -0.039611 0.020869
v -0.044445 -0.038248 0.020297
v -0.044445 0.038248 0.020297
v -0.045697 0.039611 0.020869
v -0.049725 -0.039611 0.007149
v -0.048363 -0.038248 0.006953
v -0.048363 0.038248 0.006953
v -0.049725 0.039611 0.007149
v -0.049725 -0.039611 -0.007149
v -0.048363 -0.038248 -0.006953
v -0.048363 0.038248 -0.006953
v -0.049725 0.039611 -0.007149
v -0.045697 -0.039611 -0.020869
v -0.044445 -0.038248 -0.020297
v -0.044445 0.038248 -0.020297
v -0.045697 0.039611 -0.020869
v -0.037966 -0.039611 -0.032898
v -0.036926 -0.038248 -0.031996
v -0.036926 0.038248 -0.031996
v -0.037966 0.039611 -0.032898
v -0.027160 -0.039611 -0.042262
v -0.026416 -0.038248 -0.041104
v -0.026416 0.038248 -0.041104
v -0.027160 0.039611 -0.042262
v -0.014153 -0.039611 -0.048201
v -0.013765 -0.038248 -0.046881
v -0.013765 0.038248 -0.046881
v -0.014153 0.039611 -0.048201
v -0.000000 -0.039611 -0.058291
v -0.000000 -0.038248 -0.059668
v 0.016810 -0.038248 -0.057251
v 0.016422 -0.039611 -0.055930
v 0.016422 0.039611 -0.055930
v 0.016810 0.038248 -0.057251
v -0.000000 0.038248 -0.059668
v -0.000000 0.039611 -0.058291
v 0.032259 -0.038248 -0.050196
v 0.031515 -0.039611 -0.049038
v 0.031515 0.039611 -0.049038
v 0.032259 0.038248 -0.050196
v 0.045094 -0.038248 -0.039074
v 0.044053 -0.039611 -0.038173
v 0.044053 0.039611 -0.038173
v 0.045094 0.038248 -0.039074
v 0.054276 -0.038248 -0.024787
v 0.053023 -0.039611 -0.024215
v 0.053023 0.039611 -0.024215
v 0.054276 0.038248 -0.024787
v 0.059060 -0.038248 -0.008492
v 0.057698 -0.039611 -0.008296
v 0.057698 0.039611 -0.008296
v 0.059060 0.038248 -0.008492
v 0.059060 -0.038248 0.008492
v 0.057698 -0.039611 0.008296
v 0.057698 0.039611 0.008296
v 0.059060 0.038248 0.008492
v 0.054276 -0.038248 0.024787
v 0.053023 -0.039611 0.024215
v 0.053023 0.039611 0.024215
v 0.054276 0.038248 0.024787
v 0.045094 -0.038248 0.039074
v 0.044053 -0.039611 0.038173
v 0.044053 0.039611 0.038173
v 0.045094 0.038248 0.039074
v 0.032259 -0.038248 0.050196
v 0.031515 -0.039611 0.049038
v 0.031515 0.039611 0.049038
v 0.032259 0.038248 0.050196
v 0.016810 -0.038248 0.057251
v 0.016422 -0.039611 0.055930
v 0.016422 0.039611 0.055930
v 0.016810 0.038248 0.057251
v 0.000000 -0.038248 0.059668
v 0.000000 -0.039611 0.058291
v 0.000000 0.039611 0.058291
v 0.000000 0.038248 0.059668
v -0.016810 -0.038248 0.057251
v -0.016422 -0.039611 0.055930
v -0.016422 0.039611 0.055930
v -0.016810 0.038248 0.057251
v -0.032259 -0.038248 0.050196
v -0.031515 -0.039611 0.049038
v -0.031515 0.039611 0.049038
v -0.032259 0.038248 0.050196
v -0.045094 -0.038248 0.039074
v -0.044053 -0.039611 0.038173
v -0.044053 0.039611 0.038173
v -0.045094 0.038248 0.039074
v -0.054276 -0.038248 0.024787
v -0.053023 -0.039611 0.024215
v -0.053023 0.039611 0.024215
v -0.054276 0.038248 0.024787
v -0.059060 -0.038248 0.008492
v -0.057698 -0.039611 0.008296
v -0.057698 0.039611 0.008296
v -0.059060 0.038248 0.008492
v -0.059060 -0.038248 -0.008492
v -0.057698 -0.039611 -0.008296
v -0.057698 0.039611 -0.008296
v -0.059060 0.038248 -0.008492
v -0.054276 -0.038248 -0.024787
v -0.053023 -0.039611 -0.024215
v -0.053023 0.039611 -0.024215
v -0.054276 0.038248 -0.024787
v -0.045094 -0.038248 -0.039074
v -0.044053 -0.039611 -0.038173
v -0.044053 0.039611 -0.038173
v -0.045094 0.038248 -0.039074
v -0.032259 -0.038248 -0.050196
v -0.031515 -0.039611 -0.049038
v -0.031515 0.039611 -0.049038
v -0.032259 0.038248 -0.050196
v -0.016810 -0.038248 -0.057251
v -0.016422 -0.039611 -0.055930
v -0.016422 0.039611 -0.055930
v -0.016810 0.038248 -0.057251
v 0.045117 -0.033889 -0.049158
v 0.042237 -0.033889 -0.051654
v 0.056061 -0.033889 -0.070327
v 0.061633 -0.033889 -0.065499
v 0.042237 0.033889 -0.051654
v 0.045117 0.033889 -0.049158
v 0.061633 0.033889 -0.065499
v 0.056061 0.033889 -0.070327
v 0.057139 -0.033889 -0.034456
v 0.055079 -0.033889 -0.037662
v 0.073604 -0.033889 -0.051684
v 0.077589 -0.033889 -0.045482
v 0.055079 0.033889 -0.037662
v 0.057139 0.033889 -0.034456
v 0.077589 0.033889 -0.045482
v 0.073604 0.033889 -0.051684
v 0.064532 -0.033889 -0.016962
v 0.063458 -0.033889 -0.020619
v 0.085183 -0.033889 -0.028854
v 0.087260 -0.033889 -0.021780
v 0.063458 0.033889 -0.020619
v 0.064532 0.033889 -0.016962
v 0.087260 0.033889 -0.021780
v 0.085183 0.033889 -0.028854
v -0.029440 -0.033889 0.059878
v -0.025974 -0.033889 0.061461
v -0.033977 -0.033889 0.083272
v -0.040683 -0.033889 0.080210
v -0.025974 0.033889 0.061461
v -0.029440 0.033889 0.059878
v -0.040683 0.033889 0.080210
v -0.033977 0.033889 0.083272
v -0.045117 -0.033889 0.049158
v -0.042237 -0.033889 0.051654
v -0.056061 -0.033889 0.070327
v -0.061633 -0.033889 0.065499
v -0.042237 0.033889 0.051654
v -0.045117 0.033889 0.049158
v -0.061633 0.033889 0.065499
v -0.056061 0.033889 0.070327
v -0.057139 -0.033889 0.034456
v -0.055079 -0.033889 0.037662
v -0.073604 -0.033889 0.051684
v -0.077589 -0.033889 0.045482
v -0.055079 0.033889 0.037662
v -0.057139 0.033889 0.034456
v -0.077589 0.033889 0.045482
v -0.073604 0.033889 0.051684
v -0.055079 -0.033889 -0.037662
v -0.057139 -0.033889 -0.034456
v -0.077589 -0.033889 -0.045482
v -0.073604 -0.033889 -0.051684
v -0.057139 0.033889 -0.034456
v -0.055079 0.033889 -0.037662
v -0.073604 0.033889 -0.051684
v -0.077589 0.033889 -0.045482
v -0.042237 -0.033889 -0.051654
v -0.045117 -0.033889 -0.049158
v -0.061633 -0.033889 -0.065499
v -0.056061 -0.033889 -0.070327
v -0.045117 0.033889 -0.049158
v -0.042237 0.033889 -0.051654
v -0.056061 0.033889 -0.070327
v -0.061633 0.033889 -0.065499
v -0.025974 -0.033889 -0.061461
v -0.029440 -0.033889 -0.059878
v -0.040683 -0.033889 -0.080210
v -0.033977 -0.033889 -0.083272
v -0.029440 0.033889 -0.059878
v -0.025974 0.033889 -0.061461
v -0.033977 0.033889 -0.083272
v -0.040683 0.033889 -0.080210
v 0.042237 -0.033373 -0.051654
v 0.045117 -0.033373 -0.049158
v 0.061633 -0.033373 -0.065499
v 0.056061 -0.033373 -0.070327
v 0.045117 0.033373 -0.049158
v 0.042237 0.033373 -0.051654
v 0.056061 0.033373 -0.070327
v 0.061633 0.033373 -0.065499
v 0.055079 -0.033373 -0.037662
v 0.057139 -0.033373 -0.034456
v 0.077589 -0.033373 -0.045482
v 0.073604 -0.033373 -0.051684
v 0.057139 0.033373 -0.034456
v 0.055079 0.033373 -0.037662
v 0.073604 0.033373 -0.051684
v 0.077589 0.033373 -0.045482
v 0.063458 -0.033373 -0.020619
v 0.064532 -0.033373 -0.016962
v 0.087260 -0.033373 -0.021780
v 0.085183 -0.033373 -0.028854
v 0.064532 0.033373 -0.016962
v 0.063458 0.033373 -0.020619
v 0.085183 0.033373 -0.028854
v 0.087260 0.033373 -0.021780
v -0.025974 -0.033373 0.061461
v -0.029440 -0.033373 0.059878
v -0.040683 -0.033373 0.080210
v -0.033977 -0.033373 0.083272
v -0.029440 0.033373 0.059878
v -0.025974 0.033373 0.061461
v -0.033977 0.033373 0.083272
v -0.040683 0.033373 0.080210
v -0.042237 -0.033373 0.051654
v -0.045117 -0.033373 0.049158
v -0.061633 -0.033373 0.065499
v -0.056061 -0.033373 0.070327
v -0.045117 0.033373 0.049158
v -0.042237 0.033373 0.051654
v -0.056061 0.033373 0.070327
v -0.061633 0.033373 0.065499
v -0.055079 -0.033373 0.037662
v -0.057139 -0.033373 0.034456
v -0.077589 -0.033373 0.045482
v -0.073604 -0.033373 0.051684
v -0.057139 0.033373 0.034456
v -0.055079 0.033373 0.037662
v -0.073604 0.033373 0.051684
v -0.077589 0.033373 0.045482
v -0.057139 -0.033373 -0.034456
v -0.055079 -0.033373 -0.037662
v -0.073604 -0.033373 -0.051684
v -0.077589 -0.033373 -0.045482
v -0.055079 0.033373 -0.037662
v -0.057139 0.033373 -0.034456
v -0.077589 0.033373 -0.045482
v -0.073604 0.033373 -0.051684
v -0.045117 -0.033373 -0.049158
v -0.042237 -0.033373 -0.051654
v -0.056061 -0.033373 -0.070327
v -0.061633 -0.033373 -0.065499
v -0.042237 0.033373 -0.051654
v -0.045117 0.033373 -0.049158
v -0.061633 0.033373 -0.065499
v -0.056061 0.033373 -0.070327
v -0.029440 -0.033373 -0.059878
v -0.025974 -0.033373 -0.061461
v -0.033977 -0.033373 -0.083272
v -0.040683 -0.033373 -0.080210
v -0.025974 0.033373 -0.061461
v -0.029440 0.033373 -0.059878
v -0.040683 0.033373 -0.080210
v -0.033977 0.033373 -0.083272
vn -0.0000 -1.0000 -0.0000
vn -0.0000 1.0000 -0.0000
vn 0.2937 -0.7071 -0.6432
vn 0.2937 0.7071 -0.6432
vn 0.5949 -0.7071 -0.3823
vn 0.5949 0.7071 -0.3823
vn 0.7071 -0.7071 -0.0000
vn 0.7071 0.7071 -0.0000
vn 0.5949 -0.7071 0.3823
vn 0.5949 0.7071 0.3823
vn 0.2937 -0.7071 0.6432
vn 0.2937 0.7071 0.6432
vn -0.1006 -0.7071 0.6999
vn -0.1006 0.7071 0.6999
vn -0.4631 -0.7071 0.5344
vn -0.4631 0.7071 0.5344
vn -0.6785 -0.7071 0.1992
vn -0.6785 0.7071 0.1992
vn -0.6785 -0.7071 -0.1992
vn -0.6785 0.7071 -0.1992
vn -0.4631 -0.7071 -0.5344
vn -0.4631 0.7071 -0.5344
vn -0.1006 -0.7071 -0.6999
vn -0.1006 0.7071 -0.6999
vn 0.1006 -0.7071 -0.6999
vn 0.1006 0.7071 -0.6999
vn 0.4631 -0.7071 -0.5344
vn 0.4631 0.7071 -0.5344
vn 0.6785 -0.7071 -0.1992
vn 0.6785 0.7071 -0.1992
vn 0.6785 -0.7071 0.1992
vn 0.6785 0.7071 0.1992
vn 0.4631 -0.7071 0.5344
vn 0.4631 0.7071 0.5344
vn 0.1006 -0.7071 0.6999
vn 0.1006 0.7071 0.6999
vn -0.2937 -0.7071 0.6432
vn -0.2937 0.7071 0.6432
vn -0.5949 -0.7071 0.3823
vn -0.5949 0.7071 0.3823
vn -0.7071 -0.7071 -0.0000
vn -0.7071 0.7071 -0.0000
vn -0.5949 -0.7071 -0.3823
vn -0.5949 0.7071 -0.3823
vn -0.2937 -0.7071 -0.6432
vn -0.2937 0.7071 -0.6432
vn 0.5807 0.7071 -0.4035
vn -0.6852 0.7071 0.1746
vn -0.1258 -0.7071 0.6958
vn -0.1258 -0.7071 -0.6958
vn 0.6083 -0.7071 0.3606
vn 0.6083 0.7071 0.3606
vn 0.5807 0.7071 0.4035
vn 0.5807 -0.7071 0.4035
vn 0.5807 -0.7071 -0.4035
vn -0.1258 0.7071 -0.6958
vn -0.1258 0.7071 0.6958
vn -0.6852 -0.7071 -0.1746
vn 0.6083 0.7071 -0.3606
vn 0.6083 -0.7071 -0.3606
vn -0.6852 0.7071 -0.1746
vn -0.4435 -0.7071 0.5508
vn -0.0753 0.7071 -0.7031
vn -0.0753 -0.7071 -0.7031
vn -0.4435 0.7071 0.5508
vn 0.3168 -0.7071 0.6322
vn -0.6708 -0.7071 -0.2236
vn 0.7066 -0.7071 -0.0255
vn -0.4821 0.7071 0.5173
vn -0.4821 -0.7071 0.5173
vn 0.3168 0.7071 0.6322
vn 0.7066 0.7071 -0.0255
vn -0.6708 0.7071 -0.2236
vn 0.2703 -0.7071 -0.6534
vn 0.2703 0.7071 0.6534
vn 0.2703 -0.7071 0.6534
vn 0.2703 0.7071 -0.6534
vn -0.4821 -0.7071 -0.5173
vn 0.7066 0.7071 0.0255
vn 0.7066 -0.7071 0.0255
vn -0.4821 0.7071 -0.5173
vn -0.6708 -0.7071 0.2236
vn 0.3168 0.7071 -0.6322
vn 0.3168 -0.7071 -0.6322
vn -0.6708 0.7071 0.2236
vn -0.0753 -0.7071 0.7031
vn -0.4435 0.7071 -0.5508
vn -0.4435 -0.7071 -0.5508
vn -0.6852 -0.7071 0.1746
vn -0.0753 0.7071 0.7031
vn -0.9487 -0.0000 -0.3162
vn -0.1423 -0.0000 -0.9898
vn 0.4154 -0.0000 -0.9096
vn 0.9993 -0.0000 -0.0361
vn -0.6271 -0.0000 -0.7789
vn 0.8413 -0.0000 -0.5406
vn 0.8602 -0.0000 0.5099
vn -0.1065 -0.0000 -0.9943
vn 1.0000 -0.0000 -0.0000
vn 0.4480 -0.0000 0.8940
vn 0.4480 -0.0000 -0.8940
vn 0.8413 -0.0000 0.5406
vn -0.1065 -0.0000 0.9943
vn 0.8602 -0.0000 -0.5099
vn -0.6271 -0.0000 0.7789
vn 0.4154 -0.0000 0.9096
vn 0.9993 -0.0000 0.0361
vn -0.1423 -0.0000 0.9898
vn -0.9487 -0.0000 0.3162
vn 0.8212 -0.0000 0.5707
vn -0.9690 -0.0000 -0.2469
vn -0.6549 -0.0000 0.7557
vn 0.3823 -0.0000 0.9240
vn -0.9595 -0.0000 0.2817
vn -0.6817 -0.0000 -0.7316
vn -0.1780 -0.0000 0.9840
vn -0.1780 -0.0000 -0.9840
vn -0.9595 -0.0000 -0.2817
vn -0.6817 -0.0000 0.7316
vn -0.6549 -0.0000 -0.7557
vn 0.3823 -0.0000 -0.9240
vn -0.9690 -0.0000 0.2469
vn 0.8212 -0.0000 -0.5707
vn 0.1423 -0.0000 -0.9898
vn 0.6549 -0.0000 -0.7557
vn 0.9595 -0.0000 -0.2817
vn 0.9595 -0.0000 0.2817
vn 0.6549 -0.0000 0.7557
vn 0.1423 -0.0000 0.9898
vn -0.4154 -0.0000 0.9096
vn -0.8413 -0.0000 0.5406
vn -1.0000 -0.0000 -0.0000
vn -0.8413 -0.0000 -0.5406
vn -0.4154 -0.0000 -0.9096
vn -0.8037 -0.0000 0.5950
vn 0.3544 -0.0000 0.9351
vn -0.9388 -0.0000 0.3445
vn -0.2074 -0.0000 -0.9783
vn 0.8751 -0.0000 -0.4839
vn 0.8751 -0.0000 0.4839
vn -0.9388 -0.0000 -0.3445
vn -0.6035 -0.0000 -0.7973
vn -0.6549 -0.0000 0.7558
vn 0.8037 -0.0000 0.5950
vn 0.7033 -0.0000 -0.7109
vn -0.7033 -0.0000 -0.7109
vn 0.4746 -0.0000 0.8802
vn 0.7033 -0.0000 0.7109
vn -0.8037 -0.0000 -0.5950
vn 0.6549 -0.0000 -0.7558
vn -0.4746 -0.0000 -0.8802
vn 0.6035 -0.0000 0.7973
vn 0.6549 -0.0000 0.7558
vn -0.6035 -0.0000 0.7973
vn 0.4746 -0.0000 -0.8802
vt 0.786922 0.375744
vt 0.750000 0.381053
vt 0.750000 0.388356
vt 0.788979 0.382751
vt 0.250000 0.381053
vt 0.286922 0.375744
vt 0.288979 0.382751
vt 0.250000 0.388356
vt 0.820852 0.360249
vt 0.824801 0.366392
vt 0.320852 0.360248
vt 0.324801 0.366392
vt 0.849043 0.335821
vt 0.854562 0.340604
vt 0.349043 0.335821
vt 0.354562 0.340604
vt 0.869210 0.304441
vt 0.875853 0.307475
vt 0.369210 0.304441
vt 0.375853 0.307475
vt 0.879719 0.268651
vt 0.886948 0.269690
vt 0.379719 0.268651
vt 0.386947 0.269690
vt 0.879719 0.231349
vt 0.886948 0.230310
vt 0.379719 0.231349
vt 0.386947 0.230310
vt 0.869210 0.195559
vt 0.875853 0.192525
vt 0.369209 0.195559
vt 0.375853 0.192525
vt 0.849043 0.164179
vt 0.854562 0.159396
vt 0.349043 0.164179
vt 0.354562 0.159396
vt 0.820852 0.139752
vt 0.824801 0.133608
vt 0.320852 0.139752
vt 0.324801 0.133608
vt 0.786922 0.124256
vt 0.788979 0.117249
vt 0.286922 0.124256
vt 0.288979 0.117249
vt 0.750000 0.118948
vt 0.750000 0.111644
vt 0.250000 0.118948
vt 0.250000 0.111644
vt 0.713078 0.124256
vt 0.711021 0.117249
vt 0.213078 0.124256
vt 0.211021 0.117249
vt 0.679148 0.139752
vt 0.675199 0.133608
vt 0.179148 0.139752
vt 0.175199 0.133608
vt 0.650957 0.164179
vt 0.645438 0.159396
vt 0.150957 0.164179
vt 0.145438 0.159396
vt 0.630790 0.195559
vt 0.624147 0.192525
vt 0.130791 0.195559
vt 0.124147 0.192525
vt 0.620281 0.231349
vt 0.613053 0.230310
vt 0.120282 0.231349
vt 0.113053 0.230310
vt 0.620281 0.268651
vt 0.613053 0.269690
vt 0.120282 0.268651
vt 0.113053 0.269690
vt 0.630790 0.304441
vt 0.624147 0.307475
vt 0.130791 0.304441
vt 0.124147 0.307475
vt 0.650957 0.335821
vt 0.645438 0.340604
vt 0.150957 0.335821
vt 0.145438 0.340604
vt 0.679148 0.360248
vt 0.675199 0.366392
vt 0.179148 0.360249
vt 0.175199 0.366392
vt 0.713078 0.375744
vt 0.711021 0.382751
vt 0.213078 0.375744
vt 0.211021 0.382751
vt 0.817616 0.480278
vt 0.879754 0.451901
vt 0.881585 0.447139
vt 0.812818 0.478544
vt 0.379754 0.451901
vt 0.317616 0.480278
vt 0.312818 0.478544
vt 0.381585 0.447139
vt 0.931380 0.407167
vt 0.968312 0.349700
vt 0.967278 0.344703
vt 0.926406 0.408302
vt 0.468312 0.349700
vt 0.431380 0.407167
vt 0.426406 0.408302
vt 0.467278 0.344703
vt 0.987557 0.284156
vt 0.987557 0.215844
vt 0.983986 0.212200
vt 0.983986 0.287800
vt 0.487557 0.215844
vt 0.487557 0.284156
vt 0.483986 0.287800
vt 0.483986 0.212200
vt 0.968312 0.150300
vt 0.931380 0.092833
vt 0.926406 0.091698
vt 0.967278 0.155297
vt 0.431380 0.092833
vt 0.468312 0.150300
vt 0.467278 0.155297
vt 0.426406 0.091698
vt 0.879754 0.048099
vt 0.817616 0.019722
vt 0.812818 0.021456
vt 0.881585 0.052861
vt 0.317616 0.019722
vt 0.379754 0.048099
vt 0.381585 0.052861
vt 0.312818 0.021456
vt 0.750000 0.010000
vt 0.682384 0.019722
vt 0.679285 0.023775
vt 0.754115 0.013016
vt 0.182384 0.019722
vt 0.250000 0.010000
vt 0.254115 0.013016
vt 0.179285 0.023775
vt 0.620246 0.048099
vt 0.568620 0.092833
vt 0.568204 0.097918
vt 0.625339 0.048411
vt 0.068620 0.092833
vt 0.120246 0.048099
vt 0.125339 0.048411
vt 0.068204 0.097919
vt 0.531688 0.150300
vt 0.512443 0.215844
vt 0.514842 0.220347
vt 0.536141 0.147810
vt 0.012443 0.215844
vt 0.031688 0.150300
vt 0.036141 0.147810
vt 0.014842 0.220347
vt 0.512443 0.284156
vt 0.531688 0.349700
vt 0.536141 0.352190
vt 0.514842 0.279653
vt 0.031688 0.349700
vt 0.012443 0.284156
vt 0.014842 0.279653
vt 0.036141 0.352190
vt 0.568620 0.407167
vt 0.620246 0.451901
vt 0.625339 0.451589
vt 0.568204 0.402082
vt 0.120246 0.451901
vt 0.068620 0.407167
vt 0.068204 0.402082
vt 0.125339 0.451589
vt 0.682384 0.480278
vt 0.750000 0.490000
vt 0.754115 0.486984
vt 0.679285 0.476225
vt 0.250000 0.490000
vt 0.182384 0.480278
vt 0.179285 0.476225
vt 0.254115 0.486984
vt 0.810801 0.481258
vt 0.756815 0.489020
vt 0.256815 0.489020
vt 0.310801 0.481258
vt 0.926177 0.411675
vt 0.884957 0.447392
vt 0.384957 0.447392
vt 0.426177 0.411675
vt 0.985618 0.290762
vt 0.970251 0.343094
vt 0.470251 0.343094
vt 0.485617 0.290762
vt 0.970251 0.156906
vt 0.985618 0.209238
vt 0.485617 0.209238
vt 0.470251 0.156906
vt 0.884957 0.052608
vt 0.926177 0.088325
vt 0.426177 0.088325
vt 0.384957 0.052608
vt 0.756815 0.010980
vt 0.810801 0.018742
vt 0.310801 0.018742
vt 0.256815 0.010980
vt 0.626509 0.045239
vt 0.676121 0.022582
vt 0.176122 0.022582
vt 0.126509 0.045239
vt 0.535411 0.144508
vt 0.564898 0.098625
vt 0.064898 0.098625
vt 0.035411 0.144508
vt 0.512443 0.277271
vt 0.512443 0.222729
vt 0.012443 0.222729
vt 0.012443 0.277271
vt 0.564898 0.401375
vt 0.535411 0.355492
vt 0.035411 0.355492
vt 0.064898 0.401375
vt 0.676121 0.477418
vt 0.626509 0.454761
vt 0.126509 0.454761
vt 0.176122 0.477418
vt 0.808894 0.450574
vt 0.750000 0.459042
vt -0.000000 0.519848
vt -0.000000 0.980152
vt -0.000000 0.980152
vt 0.045454 0.519848
vt 0.045454 0.980152
vt 0.691106 0.450574
vt 0.954545 0.519848
vt 0.954545 0.980152
vt 0.909091 0.980152
vt 0.909091 0.519848
vt 0.863017 0.425857
vt 0.250000 0.459042
vt 0.308894 0.450574
vt 0.363017 0.425857
vt 0.191106 0.450574
vt 0.907984 0.386893
vt 0.407983 0.386893
vt 0.863636 0.519848
vt 0.863636 0.980152
vt 0.818182 0.980152
vt 0.818182 0.519848
vt 0.940151 0.336839
vt 0.440151 0.336839
vt 0.956914 0.279750
vt 0.456914 0.279750
vt 0.772727 0.519848
vt 0.772727 0.980152
vt 0.727273 0.980152
vt 0.727273 0.519848
vt 0.956914 0.220250
vt 0.456914 0.220250
vt 0.940151 0.163161
vt 0.440151 0.163161
vt 0.681818 0.519848
vt 0.681818 0.980152
vt 0.636364 0.980152
vt 0.636364 0.519848
vt 0.907983 0.113107
vt 0.407983 0.113107
vt 0.863017 0.074143
vt 0.363017 0.074143
vt 0.590909 0.980152
vt 0.590909 0.519848
vt 0.545454 0.980152
vt 0.545454 0.519848
vt 0.808894 0.049426
vt 0.308894 0.049426
vt 0.750000 0.040958
vt 0.250000 0.040958
vt 0.500000 0.519848
vt 0.500000 0.980152
vt 0.454545 0.980152
vt 0.454545 0.519848
vt 0.691106 0.049426
vt 0.191106 0.049426
vt 0.454545 0.980152
vt 0.636983 0.074143
vt 0.136983 0.074143
vt 0.409091 0.980152
vt 0.409091 0.519848
vt 0.363636 0.980152
vt 0.363636 0.519848
vt 0.592017 0.113107
vt 0.092017 0.113107
vt 0.559849 0.163161
vt 0.059849 0.163161
vt 0.318182 0.519848
vt 0.318182 0.980152
vt 0.272727 0.980152
vt 0.272727 0.519848
vt 0.543086 0.220250
vt 0.043086 0.220250
vt 0.543086 0.279750
vt 0.043086 0.279750
vt 0.227272 0.980152
vt 0.227272 0.519848
vt 0.181818 0.980152
vt 0.181818 0.519848
vt 0.559849 0.336839
vt 0.059849 0.336839
vt 0.592017 0.386893
vt 0.092017 0.386893
vt 0.136363 0.519848
vt 0.136363 0.980152
vt 0.090909 0.980152
vt 0.090909 0.519848
vt 0.636983 0.425857
vt 0.136983 0.425857
vt 0.045454 0.980152
vt 1.000000 0.519848
vt 1.000000 0.980152
vt 0.808042 0.447673
vt 0.750000 0.456019
vt 0.250000 0.459042
vt 0.250000 0.456019
vt 0.308042 0.447673
vt 0.863017 0.425857
vt 0.861382 0.423314
vt 0.361382 0.423314
vt 0.905699 0.384914
vt 0.405699 0.384914
vt 0.937401 0.335583
vt 0.437401 0.335583
vt 0.953922 0.279320
vt 0.456914 0.279750
vt 0.453922 0.279320
vt 0.953922 0.220681
vt 0.456914 0.220250
vt 0.453922 0.220680
vt 0.940151 0.163161
vt 0.937401 0.164417
vt 0.437401 0.164417
vt 0.905699 0.115086
vt 0.405698 0.115086
vt 0.861382 0.076686
vt 0.361382 0.076686
vt 0.808042 0.052327
vt 0.308894 0.049426
vt 0.308042 0.052327
vt 0.750000 0.040958
vt 0.750000 0.043981
vt 0.250000 0.043981
vt 0.691958 0.052327
vt 0.191958 0.052327
vt 0.638618 0.076686
vt 0.138618 0.076686
vt 0.594302 0.115086
vt 0.094301 0.115086
vt 0.562599 0.164417
vt 0.062599 0.164417
vt 0.546078 0.220680
vt 0.046078 0.220681
vt 0.546078 0.279320
vt 0.046078 0.279320
vt 0.562599 0.335583
vt 0.059849 0.336839
vt 0.062599 0.335583
vt 0.594301 0.384914
vt 0.094302 0.384914
vt 0.638618 0.423314
vt 0.136983 0.425857
vt 0.138618 0.423314
vt 0.691958 0.447673
vt 0.191958 0.447673
vt 0.750000 0.391379
vt 0.789831 0.385652
vt 0.289831 0.385652
vt 0.250000 0.391379
vt 0.288979 0.382751
vt 0.826435 0.368936
vt 0.824801 0.366392
vt 0.326435 0.368936
vt 0.856847 0.342584
vt 0.854562 0.340604
vt 0.356847 0.342584
vt 0.878603 0.308731
vt 0.378603 0.308731
vt 0.889940 0.270120
vt 0.389940 0.270120
vt 0.889940 0.229880
vt 0.389940 0.229880
vt 0.386947 0.230310
vt 0.878603 0.191269
vt 0.875853 0.192525
vt 0.378603 0.191269
vt 0.856847 0.157416
vt 0.356847 0.157416
vt 0.354562 0.159396
vt 0.826435 0.131064
vt 0.824801 0.133608
vt 0.326435 0.131064
vt 0.789831 0.114348
vt 0.289831 0.114348
vt 0.288979 0.117249
vt 0.750000 0.108621
vt 0.750000 0.111644
vt 0.250000 0.108621
vt 0.250000 0.111644
vt 0.710169 0.114348
vt 0.210169 0.114348
vt 0.211021 0.117249
vt 0.673565 0.131064
vt 0.675199 0.133608
vt 0.173565 0.131064
vt 0.643153 0.157416
vt 0.143153 0.157416
vt 0.621397 0.191269
vt 0.624147 0.192525
vt 0.121397 0.191269
vt 0.124147 0.192525
vt 0.610060 0.229880
vt 0.110060 0.229880
vt 0.113053 0.230310
vt 0.610060 0.270120
vt 0.613053 0.269690
vt 0.110060 0.270120
vt 0.113053 0.269690
vt 0.621397 0.308731
vt 0.121397 0.308731
vt 0.643153 0.342584
vt 0.645438 0.340604
vt 0.143153 0.342584
vt 0.673565 0.368936
vt 0.173565 0.368936
vt 0.175199 0.366392
vt 0.710169 0.385652
vt 0.711021 0.382751
vt 0.210169 0.385652
vt 0.211021 0.382751
vt 0.750000 0.381053
vt 0.786070 0.372843
vt 0.750000 0.378029
vt 0.250000 0.378029
vt 0.286070 0.372843
vt 0.819218 0.357705
vt 0.319218 0.357705
vt 0.849043 0.335821
vt 0.846758 0.333841
vt 0.346758 0.333841
vt 0.869210 0.304441
vt 0.866460 0.303185
vt 0.366459 0.303185
vt 0.876726 0.268221
vt 0.376726 0.268220
vt 0.876726 0.231780
vt 0.376726 0.231780
vt 0.869210 0.195559
vt 0.866460 0.196815
vt 0.369209 0.195559
vt 0.366459 0.196815
vt 0.846758 0.166159
vt 0.346758 0.166159
vt 0.819218 0.142295
vt 0.319218 0.142295
vt 0.786070 0.127157
vt 0.286070 0.127157
vt 0.750000 0.118948
vt 0.750000 0.121971
vt 0.250000 0.118948
vt 0.250000 0.121971
vt 0.713078 0.124256
vt 0.713930 0.127157
vt 0.213930 0.127157
vt 0.680782 0.142295
vt 0.179148 0.139752
vt 0.180782 0.142295
vt 0.650957 0.164179
vt 0.653242 0.166159
vt 0.153242 0.166159
vt 0.633541 0.196815
vt 0.133541 0.196815
vt 0.623274 0.231780
vt 0.123274 0.231780
vt 0.623274 0.268220
vt 0.123274 0.268221
vt 0.633541 0.303185
vt 0.133541 0.303185
vt 0.650957 0.335821
vt 0.653242 0.333841
vt 0.150957 0.335821
vt 0.153242 0.333841
vt 0.679148 0.360248
vt 0.680782 0.357705
vt 0.180782 0.357705
vt 0.713078 0.375744
vt 0.713930 0.372843
vt 0.213930 0.372843
vt 0.750000 0.360338
vt 0.781086 0.355869
vt 0.771635 0.352968
vt 0.741401 0.357315
vt 0.281086 0.355869
vt 0.250000 0.360338
vt 0.258599 0.357315
vt 0.288834 0.352968
vt 0.809653 0.342822
vt 0.799420 0.340279
vt 0.309653 0.342822
vt 0.316618 0.340279
vt 0.833388 0.322256
vt 0.822504 0.320276
vt 0.333388 0.322256
vt 0.339702 0.320276
vt 0.850368 0.295836
vt 0.839018 0.294580
vt 0.350367 0.295836
vt 0.356216 0.294580
vt 0.859215 0.265703
vt 0.847623 0.265273
vt 0.359215 0.265703
vt 0.364822 0.265273
vt 0.859215 0.234297
vt 0.847623 0.234728
vt 0.359215 0.234297
vt 0.364822 0.234727
vt 0.850367 0.204164
vt 0.839018 0.205420
vt 0.350367 0.204164
vt 0.356216 0.205420
vt 0.833388 0.177744
vt 0.822504 0.179724
vt 0.333388 0.177744
vt 0.339703 0.179724
vt 0.809653 0.157178
vt 0.799420 0.159721
vt 0.309653 0.157178
vt 0.316618 0.159721
vt 0.781086 0.144131
vt 0.771635 0.147032
vt 0.281086 0.144131
vt 0.288833 0.147032
vt 0.750000 0.139662
vt 0.741401 0.142685
vt 0.250000 0.139662
vt 0.258599 0.142685
vt 0.718914 0.144131
vt 0.711167 0.147032
vt 0.218914 0.144131
vt 0.228365 0.147032
vt 0.690347 0.157178
vt 0.683382 0.159721
vt 0.190347 0.157178
vt 0.200581 0.159721
vt 0.666612 0.177744
vt 0.660298 0.179724
vt 0.166612 0.177744
vt 0.177496 0.179724
vt 0.649633 0.204164
vt 0.643784 0.205420
vt 0.149633 0.204164
vt 0.160982 0.205420
vt 0.640785 0.234297
vt 0.635178 0.234727
vt 0.140785 0.234297
vt 0.152377 0.234728
vt 0.640785 0.265703
vt 0.635178 0.265272
vt 0.140785 0.265703
vt 0.152377 0.265273
vt 0.649633 0.295836
vt 0.643784 0.294580
vt 0.149633 0.295836
vt 0.160982 0.294580
vt 0.666612 0.322256
vt 0.660298 0.320276
vt 0.166612 0.322256
vt 0.177496 0.320276
vt 0.690347 0.342822
vt 0.683382 0.340279
vt 0.190347 0.342822
vt 0.200581 0.340279
vt 0.718914 0.355869
vt 0.711167 0.352968
vt 0.218914 0.355869
vt 0.228365 0.352968
vt 0.925735 0.310038
vt 0.930297 0.294502
vt 0.634621 0.395517
vt 0.649478 0.372399
vt 0.350522 0.372399
vt 0.356847 0.366918
vt 0.180292 0.422128
vt 0.165563 0.415402
vt 0.900738 0.298622
vt 0.643153 0.366918
vt 0.188034 0.395761
vt 0.903096 0.290592
vt 0.165563 0.084598
vt 0.180292 0.077872
vt 0.180420 0.392284
vt 0.180420 0.107716
vt 0.188034 0.104239
vt 0.598298 0.142884
vt 0.589544 0.156505
vt 0.619066 0.160880
vt 0.865379 0.395517
vt 0.877615 0.384914
vt 0.850522 0.372399
vt 0.856847 0.366918
vt 0.377615 0.384914
vt 0.365379 0.395517
vt 0.880934 0.339121
vt 0.885459 0.332079
vt 0.901702 0.357116
vt 0.910456 0.343495
vt 0.385459 0.332079
vt 0.380934 0.339121
vt 0.410456 0.343495
vt 0.401702 0.357116
vt 0.403096 0.290592
vt 0.400738 0.298622
vt 0.430297 0.294502
vt 0.425735 0.310038
vt 0.688034 0.104239
vt 0.680420 0.107716
vt 0.680292 0.077872
vt 0.665563 0.084598
vt 0.649478 0.127601
vt 0.643153 0.133082
vt 0.634621 0.104483
vt 0.622385 0.115086
vt 0.143153 0.133082
vt 0.149478 0.127601
vt 0.122385 0.115086
vt 0.134621 0.104483
vt 0.614541 0.167921
vt 0.114541 0.167921
vt 0.119066 0.160880
vt 0.089544 0.156505
vt 0.098298 0.142884
vt 0.614541 0.332079
vt 0.619066 0.339121
vt 0.589544 0.343495
vt 0.598298 0.357116
vt 0.119066 0.339121
vt 0.114541 0.332079
vt 0.098298 0.357116
vt 0.089544 0.343495
vt 0.622384 0.384914
vt 0.149478 0.372399
vt 0.143153 0.366918
vt 0.134621 0.395517
vt 0.122385 0.384914
vt 0.680420 0.392284
vt 0.688034 0.395761
vt 0.665563 0.415402
vt 0.680292 0.422128
s 0
usemtl M_Steel
f 136/89/3 141/90/3 142/91/3 135/92/3
f 144/93/4 137/94/4 138/95/4 143/96/4
f 146/97/5 149/98/5 150/99/5 145/100/5
f 152/101/6 147/102/6 148/103/6 151/104/6
f 154/105/7 157/106/7 158/107/7 153/108/7
f 160/109/8 155/110/8 156/111/8 159/112/8
f 162/113/9 165/114/9 166/115/9 161/116/9
f 168/117/10 163/118/10 164/119/10 167/120/10
f 170/121/11 173/122/11 174/123/11 169/124/11
f 176/125/12 171/126/12 172/127/12 175/128/12
f 178/129/13 181/130/13 182/131/13 177/132/13
f 184/133/14 179/134/14 180/135/14 183/136/14
f 186/137/15 189/138/15 190/139/15 185/140/15
f 192/141/16 187/142/16 188/143/16 191/144/16
f 194/145/17 197/146/17 198/147/17 193/148/17
f 200/149/18 195/150/18 196/151/18 199/152/18
f 202/153/19 205/154/19 206/155/19 201/156/19
f 208/157/20 203/158/20 204/159/20 207/160/20
f 210/161/21 213/162/21 214/163/21 209/164/21
f 216/165/22 211/166/22 212/167/22 215/168/22
f 218/169/23 133/170/23 134/171/23 217/172/23
f 140/173/24 219/174/24 220/175/24 139/176/24
f 222/170/25 224/89/25 223/177/25 221/178/25
f 226/94/26 228/173/26 227/179/26 225/180/26
f 232/90/27 234/97/27 233/181/27 231/182/27
f 236/102/28 230/93/28 229/183/28 235/184/28
f 240/98/29 242/105/29 241/185/29 239/186/29
f 244/110/30 238/101/30 237/187/30 243/188/30
f 248/106/31 250/113/31 249/189/31 247/190/31
f 252/118/32 246/109/32 245/191/32 251/192/32
f 256/114/33 258/121/33 257/193/33 255/194/33
f 260/126/34 254/117/34 253/195/34 259/196/34
f 264/122/35 266/129/35 265/197/35 263/198/35
f 268/134/36 262/125/36 261/199/36 267/200/36
f 272/130/37 274/137/37 273/201/37 271/202/37
f 276/142/38 270/133/38 269/203/38 275/204/38
f 280/138/39 282/145/39 281/205/39 279/206/39
f 284/150/40 278/141/40 277/207/40 283/208/40
f 288/146/41 290/153/41 289/209/41 287/210/41
f 292/158/42 286/149/42 285/211/42 291/212/42
f 296/154/43 298/161/43 297/213/43 295/214/43
f 300/166/44 294/157/44 293/215/44 299/216/44
f 304/162/45 306/169/45 305/217/45 303/218/45
f 308/174/46 302/165/46 301/219/46 307/220/46
f 219/174/47 308/174/47 307/220/47 220/175/47
f 302/165/48 216/165/48 215/168/48 301/219/48
f 197/146/49 288/146/49 287/210/49 198/147/49
f 290/153/50 202/153/50 201/156/50 289/209/50
f 145/100/51 233/181/51 234/97/51 146/97/51
f 235/184/52 148/103/52 147/102/52 236/102/52
f 183/136/53 269/203/53 270/133/53 184/133/53
f 271/202/54 182/131/54 181/130/54 272/130/54
f 217/172/55 305/217/55 306/169/55 218/169/55
f 203/158/56 292/158/56 291/212/56 204/159/56
f 286/149/57 200/149/57 199/152/57 285/211/57
f 274/137/58 186/137/58 185/140/58 273/201/58
f 167/120/59 253/195/59 254/117/59 168/117/59
f 255/194/60 166/115/60 165/114/60 256/114/60
f 187/142/61 276/142/61 275/204/61 188/143/61
f 258/121/62 170/121/62 169/124/62 257/193/62
f 151/104/63 237/187/63 238/101/63 152/101/63
f 239/186/64 150/99/64 149/98/64 240/98/64
f 171/126/65 260/126/65 259/196/65 172/127/65
f 242/105/66 154/105/66 153/108/66 241/185/66
f 133/170/67 222/170/67 221/178/67 134/171/67
f 224/89/68 136/89/68 135/92/68 223/177/68
f 207/160/69 293/215/69 294/157/69 208/157/69
f 295/214/70 206/155/70 205/154/70 296/154/70
f 155/110/71 244/110/71 243/188/71 156/111/71
f 137/94/72 226/94/72 225/180/72 138/95/72
f 228/173/73 140/173/73 139/176/73 227/179/73
f 298/161/74 210/161/74 209/164/74 297/213/74
f 191/144/75 277/207/75 278/141/75 192/141/75
f 279/206/76 190/139/76 189/138/76 280/138/76
f 211/166/77 300/166/77 299/216/77 212/167/77
f 282/145/78 194/145/78 193/148/78 281/205/78
f 175/128/79 261/199/79 262/125/79 176/125/79
f 263/198/80 174/123/80 173/122/80 264/122/80
f 195/150/81 284/150/81 283/208/81 196/151/81
f 266/129/82 178/129/82 177/132/82 265/197/82
f 159/112/83 245/191/83 246/109/83 160/109/83
f 247/190/84 158/107/84 157/106/84 248/106/84
f 179/134/85 268/134/85 267/200/85 180/135/85
f 250/113/86 162/113/86 161/116/86 249/189/86
f 143/96/87 229/183/87 230/93/87 144/93/87
f 231/182/88 142/91/88 141/90/88 232/90/88
f 303/218/89 214/163/89 213/162/89 304/162/89
f 163/118/90 252/118/90 251/192/90 164/119/90
f 135/92/1 134/171/1 221/178/1 223/177/1
f 3/221/1 1/222/1 134/171/1 135/92/1
f 133/223/91 140/224/91 228/225/91 222/223/91
f 218/226/92 219/227/92 140/224/92 133/223/92
f 1/222/1 43/228/1 217/172/1 134/171/1
f 136/229/93 137/230/93 144/231/93 141/232/93
f 5/233/1 3/221/1 135/92/1 142/91/1
f 137/230/94 136/229/94 224/229/94 226/230/94
f 139/176/2 138/95/2 225/180/2 227/179/2
f 2/234/2 4/235/2 138/95/2 139/176/2
f 4/235/2 6/236/2 143/96/2 138/95/2
f 44/237/2 2/234/2 139/176/2 220/175/2
f 145/100/1 142/91/1 231/182/1 233/181/1
f 141/232/95 144/231/95 230/231/95 232/232/95
f 7/238/1 5/233/1 142/91/1 145/100/1
f 143/96/2 148/103/2 235/184/2 229/183/2
f 6/236/2 8/239/2 148/103/2 143/96/2
f 146/240/96 147/241/96 152/242/96 149/243/96
f 9/244/1 7/238/1 145/100/1 150/99/1
f 147/241/97 146/240/97 234/240/97 236/241/97
f 8/239/2 10/245/2 151/104/2 148/103/2
f 153/108/1 150/99/1 239/186/1 241/185/1
f 149/243/98 152/242/98 238/242/98 240/243/98
f 11/246/1 9/244/1 150/99/1 153/108/1
f 151/104/2 156/111/2 243/188/2 237/187/2
f 10/245/2 12/247/2 156/111/2 151/104/2
f 154/248/99 155/249/99 160/250/99 157/251/99
f 13/252/1 11/246/1 153/108/1 158/107/1
f 155/249/100 154/248/100 242/248/100 244/249/100
f 12/247/2 14/253/2 159/112/2 156/111/2
f 161/116/1 158/107/1 247/190/1 249/189/1
f 157/251/101 160/250/101 246/250/101 248/251/101
f 15/254/1 13/252/1 158/107/1 161/116/1
f 159/112/2 164/119/2 251/192/2 245/191/2
f 14/253/2 16/255/2 164/119/2 159/112/2
f 162/256/102 163/257/102 168/258/102 165/259/102
f 17/260/1 15/254/1 161/116/1 166/115/1
f 163/257/103 162/256/103 250/256/103 252/257/103
f 16/255/2 18/261/2 167/120/2 164/119/2
f 169/124/1 166/115/1 255/194/1 257/193/1
f 165/259/104 168/258/104 254/258/104 256/259/104
f 19/262/1 17/260/1 166/115/1 169/124/1
f 167/120/2 172/127/2 259/196/2 253/195/2
f 18/261/2 20/263/2 172/127/2 167/120/2
f 171/264/105 170/265/105 258/265/105 260/264/105
f 170/265/106 171/264/106 176/266/106 173/267/106
f 21/268/1 19/262/1 169/124/1 174/123/1
f 20/263/2 22/269/2 175/128/2 172/127/2
f 177/132/1 174/123/1 263/198/1 265/197/1
f 173/267/107 176/266/107 262/266/107 264/267/107
f 23/270/1 21/268/1 174/123/1 177/132/1
f 175/128/2 180/135/2 267/200/2 261/199/2
f 22/269/2 24/271/2 180/135/2 175/128/2
f 178/272/108 179/273/108 184/274/108 181/275/108
f 25/276/1 23/270/1 177/132/1 182/131/1
f 179/273/109 178/272/109 266/272/109 268/273/109
f 24/271/2 26/277/2 183/136/2 180/135/2
f 185/140/1 182/131/1 271/202/1 273/201/1
f 181/275/110 184/274/110 270/278/110 272/275/110
f 27/279/1 25/276/1 182/131/1 185/140/1
f 183/136/2 188/143/2 275/204/2 269/203/2
f 26/277/2 28/280/2 188/143/2 183/136/2
f 187/281/111 186/282/111 274/282/111 276/281/111
f 186/282/112 187/281/112 192/283/112 189/284/112
f 29/285/1 27/279/1 185/140/1 190/139/1
f 28/280/2 30/286/2 191/144/2 188/143/2
f 193/148/1 190/139/1 279/206/1 281/205/1
f 189/284/113 192/283/113 278/283/113 280/284/113
f 31/287/1 29/285/1 190/139/1 193/148/1
f 191/144/2 196/151/2 283/208/2 277/207/2
f 30/286/2 32/288/2 196/151/2 191/144/2
f 194/289/114 195/290/114 200/291/114 197/292/114
f 33/293/1 31/287/1 193/148/1 198/147/1
f 195/290/115 194/289/115 282/289/115 284/290/115
f 32/288/2 34/294/2 199/152/2 196/151/2
f 201/156/1 198/147/1 287/210/1 289/209/1
f 197/292/116 200/291/116 286/291/116 288/292/116
f 35/295/1 33/293/1 198/147/1 201/156/1
f 199/152/2 204/159/2 291/212/2 285/211/2
f 34/294/2 36/296/2 204/159/2 199/152/2
f 203/297/117 202/298/117 290/298/117 292/297/117
f 202/298/118 203/297/118 208/299/118 205/300/118
f 37/301/1 35/295/1 201/156/1 206/155/1
f 36/296/2 38/302/2 207/160/2 204/159/2
f 209/164/1 206/155/1 295/214/1 297/213/1
f 205/300/119 208/299/119 294/299/119 296/300/119
f 39/303/1 37/301/1 206/155/1 209/164/1
f 207/160/2 212/167/2 299/216/2 293/215/2
f 38/302/2 40/304/2 212/167/2 207/160/2
f 210/305/120 211/306/120 216/307/120 213/308/120
f 41/309/1 39/303/1 209/164/1 214/163/1
f 211/306/121 210/305/121 298/305/121 300/306/121
f 40/304/2 42/310/2 215/168/2 212/167/2
f 217/172/1 214/163/1 303/218/1 305/217/1
f 213/308/122 216/307/122 302/307/122 304/308/122
f 43/228/1 41/309/1 214/163/1 217/172/1
f 215/168/2 220/175/2 307/220/2 301/219/2
f 42/310/2 44/237/2 220/175/2 215/168/2
f 219/227/123 218/226/123 306/226/123 308/311/123
f 222/312/124 228/313/124 226/230/124 224/229/124
f 232/232/125 230/231/125 236/241/125 234/240/125
f 240/243/126 238/242/126 244/249/126 242/248/126
f 248/251/127 246/250/127 252/257/127 250/256/127
f 256/259/128 254/258/128 260/264/128 258/265/128
f 264/267/129 262/266/129 268/273/129 266/272/129
f 272/275/130 270/278/130 276/281/130 274/282/130
f 280/284/131 278/283/131 284/290/131 282/289/131
f 288/292/132 286/291/132 292/297/132 290/298/132
f 296/300/133 294/299/133 300/306/133 298/305/133
f 304/308/134 302/307/134 308/311/134 306/226/134
f 386/423/128 390/82/128 129/82/128 127/78/128
usemtl M_Orange
f 734/601/1 733/600/1 736/598/1 735/599/1
f 738/582/2 737/583/2 740/602/2 739/603/2
f 742/605/1 741/604/1 744/606/1 743/607/1
f 746/609/2 745/608/2 748/610/2 747/611/2
f 750/589/1 749/586/1 752/578/1 751/579/1
f 754/613/2 753/612/2 756/614/2 755/615/2
f 758/617/1 757/616/1 760/618/1 759/619/1
f 762/594/2 761/593/2 764/590/2 763/591/2
f 766/621/1 765/620/1 768/622/1 767/623/1
f 770/625/2 769/624/2 772/626/2 771/627/2
f 774/628/1 773/597/1 776/595/1 775/596/1
f 778/630/2 777/629/2 780/631/2 779/632/2
f 782/634/1 781/633/1 784/635/1 783/636/1
f 786/638/2 785/637/2 788/639/2 787/640/2
f 790/581/1 789/587/1 792/641/1 791/580/1
f 794/643/2 793/642/2 796/644/2 795/645/2
f 798/647/1 797/646/1 800/648/1 799/649/1
f 802/592/2 801/588/2 804/584/2 803/585/2
usemtl M_Anthracite_Steel
f 398/222/25 399/221/25 400/314/25 397/315/25
f 402/235/26 403/316/26 404/317/26 401/318/26
f 399/221/3 405/319/3 406/320/3 400/314/3
f 408/236/4 402/235/4 401/318/4 407/321/4
f 405/319/27 409/238/27 410/322/27 406/320/27
f 412/239/28 408/236/28 407/321/28 411/323/28
f 409/238/5 413/244/5 414/324/5 410/322/5
f 416/245/6 412/239/6 411/323/6 415/325/6
f 413/244/29 417/246/29 418/326/29 414/324/29
f 420/327/30 416/245/30 415/325/30 419/328/30
f 417/246/7 421/252/7 422/329/7 418/326/7
f 424/330/8 420/327/8 419/328/8 423/331/8
f 421/252/31 425/332/31 426/333/31 422/329/31
f 428/255/32 424/330/32 423/331/32 427/334/32
f 425/332/9 429/260/9 430/335/9 426/333/9
f 432/261/10 428/255/10 427/334/10 431/336/10
f 429/260/33 433/262/33 434/337/33 430/335/33
f 436/263/34 432/261/34 431/336/34 435/338/34
f 433/262/11 437/268/11 438/339/11 434/337/11
f 440/340/12 436/263/12 435/338/12 439/341/12
f 437/268/35 441/342/35 442/343/35 438/339/35
f 444/271/36 440/340/36 439/341/36 443/344/36
f 441/342/13 445/276/13 446/345/13 442/343/13
f 448/277/14 444/271/14 443/344/14 447/346/14
f 445/276/37 449/279/37 450/347/37 446/345/37
f 452/280/38 448/277/38 447/346/38 451/348/38
f 449/279/15 453/285/15 454/349/15 450/347/15
f 456/286/16 452/280/16 451/348/16 455/350/16
f 453/285/39 457/287/39 458/351/39 454/349/39
f 460/288/40 456/286/40 455/350/40 459/352/40
f 457/287/17 461/293/17 462/353/17 458/351/17
f 464/294/18 460/288/18 459/352/18 463/354/18
f 461/293/41 465/295/41 466/355/41 462/353/41
f 468/296/42 464/294/42 463/354/42 467/356/42
f 465/295/19 469/301/19 470/357/19 466/355/19
f 472/358/20 468/296/20 467/356/20 471/359/20
f 469/301/43 473/303/43 474/360/43 470/357/43
f 476/304/44 472/358/44 471/359/44 475/361/44
f 473/303/21 477/309/21 478/362/21 474/360/21
f 480/363/22 476/304/22 475/361/22 479/364/22
f 477/309/45 481/228/45 482/365/45 478/362/45
f 484/237/46 480/363/46 479/364/46 483/366/46
f 481/228/23 398/222/23 397/315/23 482/365/23
f 403/316/24 484/237/24 483/366/24 404/317/24
f 310/367/13 311/368/13 312/4/13 309/3/13
f 314/369/14 315/370/14 316/8/14 313/371/14
f 311/368/37 317/372/37 318/373/37 312/4/37
f 320/374/38 314/369/38 313/371/38 319/12/38
f 317/372/15 321/375/15 322/376/15 318/373/15
f 324/377/16 320/374/16 319/12/16 323/16/16
f 321/375/39 325/378/39 326/18/39 322/376/39
f 328/379/40 324/377/40 323/16/40 327/20/40
f 325/378/17 329/380/17 330/22/17 326/18/17
f 332/381/18 328/379/18 327/20/18 331/24/18
f 329/380/41 333/382/41 334/26/41 330/22/41
f 336/383/42 332/381/42 331/24/42 335/384/42
f 333/382/19 337/385/19 338/386/19 334/26/19
f 340/387/20 336/383/20 335/384/20 339/32/20
f 337/385/43 341/388/43 342/34/43 338/386/43
f 344/389/44 340/387/44 339/32/44 343/390/44
f 341/388/21 345/391/21 346/392/21 342/34/21
f 348/393/22 344/389/22 343/390/22 347/40/22
f 345/391/45 349/394/45 350/42/45 346/392/45
f 352/395/46 348/393/46 347/40/46 351/396/46
f 349/394/23 353/397/23 354/398/23 350/42/23
f 356/399/24 352/395/24 351/396/24 355/400/24
f 353/397/25 357/401/25 358/50/25 354/398/25
f 360/402/26 356/399/26 355/400/26 359/403/26
f 357/401/3 361/404/3 362/405/3 358/50/3
f 364/406/4 360/402/4 359/403/4 363/56/4
f 361/404/27 365/407/27 366/58/27 362/405/27
f 368/408/28 364/406/28 363/56/28 367/60/28
f 365/407/5 369/409/5 370/410/5 366/58/5
f 372/411/6 368/408/6 367/60/6 371/412/6
f 369/409/29 373/413/29 374/66/29 370/410/29
f 376/414/30 372/411/30 371/412/30 375/415/30
f 373/413/7 377/416/7 378/417/7 374/66/7
f 380/418/8 376/414/8 375/415/8 379/419/8
f 377/416/31 381/420/31 382/74/31 378/417/31
f 384/421/32 380/418/32 379/419/32 383/76/32
f 381/420/9 385/422/9 386/423/9 382/74/9
f 388/424/10 384/421/10 383/76/10 387/80/10
f 385/422/33 389/425/33 390/82/33 386/423/33
f 392/426/34 388/424/34 387/80/34 391/427/34
f 389/425/11 393/428/11 394/429/11 390/82/11
f 396/430/12 392/426/12 391/427/12 395/431/12
f 393/428/35 310/367/35 309/3/35 394/429/35
f 315/370/36 396/430/36 395/431/36 316/8/36
f 309/3/108 312/4/108 90/4/108 89/3/108
f 310/367/1 393/428/1 482/365/1 397/315/1
f 311/368/1 310/367/1 397/315/1 400/314/1
f 394/429/129 309/3/129 89/3/129 131/86/129
f 312/4/130 318/373/130 93/10/130 90/4/130
f 317/372/1 311/368/1 400/314/1 406/320/1
f 313/371/108 316/8/108 92/8/108 91/7/108
f 314/369/2 320/374/2 407/321/2 401/318/2
f 315/370/2 314/369/2 401/318/2 404/317/2
f 319/12/130 313/371/130 91/7/130 94/12/130
f 316/8/129 395/431/129 132/88/129 92/8/129
f 396/430/2 315/370/2 404/317/2 483/366/2
f 318/373/112 322/376/112 95/14/112 93/10/112
f 679/578/114 680/579/114 751/579/114 752/578/114
f 720/580/135 717/581/135 790/581/135 791/580/135
f 323/16/112 319/12/112 94/12/112 96/16/112
f 322/376/131 326/18/131 97/18/131 95/14/131
f 665/582/125 666/583/125 737/583/125 738/582/125
f 731/584/106 732/585/106 803/585/106 804/584/106
f 327/20/131 323/16/131 96/16/131 98/20/131
f 326/18/114 330/22/114 99/22/114 97/18/114
f 678/586/136 679/578/136 752/578/136 749/586/136
f 717/581/120 718/587/120 789/587/120 790/581/120
f 331/24/114 327/20/114 98/20/114 100/24/114
f 330/22/132 334/26/132 101/26/132 99/22/132
f 333/382/1 329/380/1 418/326/1 422/329/1
f 335/384/132 331/24/132 100/24/132 102/28/132
f 332/381/2 336/383/2 423/331/2 419/328/2
f 334/26/118 338/386/118 103/30/118 101/26/118
f 337/385/1 333/382/1 422/329/1 426/333/1
f 336/383/2 340/387/2 427/334/2 423/331/2
f 339/32/118 335/384/118 102/28/118 104/32/118
f 338/386/133 342/34/133 105/34/133 103/30/133
f 341/388/1 337/385/1 426/333/1 430/335/1
f 340/387/2 344/389/2 431/336/2 427/334/2
f 343/390/133 339/32/133 104/32/133 106/36/133
f 342/34/120 346/392/120 107/38/120 105/34/120
f 345/391/1 341/388/1 430/335/1 434/337/1
f 344/389/2 348/393/2 435/338/2 431/336/2
f 347/40/120 343/390/120 106/36/120 108/40/120
f 346/392/134 350/42/134 109/42/134 107/38/134
f 349/394/1 345/391/1 434/337/1 438/339/1
f 348/393/2 352/395/2 439/341/2 435/338/2
f 351/396/134 347/40/134 108/40/134 110/44/134
f 350/42/92 354/398/92 111/46/92 109/42/92
f 353/397/1 349/394/1 438/339/1 442/343/1
f 352/395/2 356/399/2 443/344/2 439/341/2
f 355/400/92 351/396/92 110/44/92 112/48/92
f 354/398/124 358/50/124 113/50/124 111/46/124
f 357/401/1 353/397/1 442/343/1 446/345/1
f 356/399/2 360/402/2 447/346/2 443/344/2
f 359/403/124 355/400/124 112/48/124 114/52/124
f 358/50/93 362/405/93 115/54/93 113/50/93
f 730/588/137 731/584/137 804/584/137 801/588/137
f 680/579/138 677/589/138 750/589/138 751/579/138
f 363/56/93 359/403/93 114/52/93 116/56/93
f 362/405/125 366/58/125 117/58/125 115/54/125
f 691/590/93 692/591/93 763/591/93 764/590/93
f 732/585/139 729/592/139 802/592/139 803/585/139
f 367/60/125 363/56/125 116/56/125 118/60/125
f 366/58/96 370/410/96 119/62/96 117/58/96
f 677/589/126 678/586/126 749/586/126 750/589/126
f 690/593/140 691/590/140 764/590/140 761/593/140
f 371/412/96 367/60/96 118/60/96 120/64/96
f 370/410/126 374/66/126 121/66/126 119/62/126
f 373/413/1 369/409/1 458/351/1 462/353/1
f 372/411/2 376/414/2 463/354/2 459/352/2
f 375/415/126 371/412/126 120/64/126 122/68/126
f 374/66/99 378/417/99 123/70/99 121/66/99
f 377/416/1 373/413/1 462/353/1 466/355/1
f 376/414/2 380/418/2 467/356/2 463/354/2
f 379/419/99 375/415/99 122/68/99 124/72/99
f 378/417/127 382/74/127 125/74/127 123/70/127
f 381/420/1 377/416/1 466/355/1 470/357/1
f 380/418/2 384/421/2 471/359/2 467/356/2
f 383/76/127 379/419/127 124/72/127 126/76/127
f 382/74/102 386/423/102 127/78/102 125/74/102
f 729/592/134 730/588/134 801/588/134 802/592/134
f 692/591/141 689/594/141 762/594/141 763/591/141
f 387/80/102 383/76/102 126/76/102 128/80/102
f 703/595/96 704/596/96 775/596/96 776/595/96
f 689/594/130 690/593/130 761/593/130 762/594/130
f 391/427/128 387/80/128 128/80/128 130/84/128
f 390/82/106 394/429/106 131/86/106 129/82/106
f 702/597/142 703/595/142 776/595/142 773/597/142
f 663/598/143 664/599/143 735/599/143 736/598/143
f 395/431/106 391/427/106 130/84/106 132/88/106
f 43/228/92 1/222/92 398/222/92 481/228/92
f 1/222/124 3/221/124 399/221/124 398/222/124
f 3/221/93 5/233/93 405/319/93 399/221/93
f 6/236/93 4/235/93 402/235/93 408/236/93
f 4/235/124 2/234/124 403/316/124 402/235/124
f 2/234/92 44/237/92 484/237/92 403/316/92
f 5/233/125 7/238/125 409/238/125 405/319/125
f 8/239/125 6/236/125 408/236/125 412/239/125
f 7/238/96 9/244/96 413/244/96 409/238/96
f 10/245/96 8/239/96 412/239/96 416/245/96
f 9/244/126 11/246/126 417/246/126 413/244/126
f 12/247/126 10/245/126 416/245/126 420/327/126
f 11/246/99 13/252/99 421/252/99 417/246/99
f 14/253/99 12/247/99 420/327/99 424/330/99
f 13/252/127 15/254/127 425/332/127 421/252/127
f 16/255/127 14/253/127 424/330/127 428/255/127
f 15/254/102 17/260/102 429/260/102 425/332/102
f 18/261/102 16/255/102 428/255/102 432/261/102
f 17/260/128 19/262/128 433/262/128 429/260/128
f 20/263/128 18/261/128 432/261/128 436/263/128
f 19/262/106 21/268/106 437/268/106 433/262/106
f 22/269/106 20/263/106 436/263/106 440/340/106
f 21/268/129 23/270/129 441/342/129 437/268/129
f 24/271/129 22/269/129 440/340/129 444/271/129
f 23/270/108 25/276/108 445/276/108 441/342/108
f 26/277/108 24/271/108 444/271/108 448/277/108
f 25/276/130 27/279/130 449/279/130 445/276/130
f 28/280/130 26/277/130 448/277/130 452/280/130
f 27/279/112 29/285/112 453/285/112 449/279/112
f 30/286/112 28/280/112 452/280/112 456/286/112
f 29/285/131 31/287/131 457/287/131 453/285/131
f 32/288/131 30/286/131 456/286/131 460/288/131
f 31/287/114 33/293/114 461/293/114 457/287/114
f 34/294/114 32/288/114 460/288/114 464/294/114
f 33/293/132 35/295/132 465/295/132 461/293/132
f 36/296/132 34/294/132 464/294/132 468/296/132
f 35/295/118 37/301/118 469/301/118 465/295/118
f 38/302/118 36/296/118 468/296/118 472/358/118
f 37/301/133 39/303/133 473/303/133 469/301/133
f 40/304/133 38/302/133 472/358/133 476/304/133
f 39/303/120 41/309/120 477/309/120 473/303/120
f 42/310/120 40/304/120 476/304/120 480/363/120
f 41/309/134 43/228/134 481/228/134 477/309/134
f 44/237/134 42/310/134 480/363/134 484/237/134
f 321/375/1 317/372/1 662/600/1 661/601/1
f 317/372/1 406/320/1 663/598/1 662/600/1
f 406/320/1 410/322/1 664/599/1 663/598/1
f 410/322/1 321/375/1 661/601/1 664/599/1
f 320/374/2 324/377/2 666/583/2 665/582/2
f 324/377/2 411/323/2 667/602/2 666/583/2
f 411/323/2 407/321/2 668/603/2 667/602/2
f 407/321/2 320/374/2 665/582/2 668/603/2
f 325/378/1 321/375/1 670/604/1 669/605/1
f 321/375/1 410/322/1 671/606/1 670/604/1
f 410/322/1 414/324/1 672/607/1 671/606/1
f 414/324/1 325/378/1 669/605/1 672/607/1
f 324/377/2 328/379/2 674/608/2 673/609/2
f 328/379/2 415/325/2 675/610/2 674/608/2
f 415/325/2 411/323/2 676/611/2 675/610/2
f 411/323/2 324/377/2 673/609/2 676/611/2
f 329/380/1 325/378/1 678/586/1 677/589/1
f 325/378/1 414/324/1 679/578/1 678/586/1
f 414/324/1 418/326/1 680/579/1 679/578/1
f 418/326/1 329/380/1 677/589/1 680/579/1
f 328/379/2 332/381/2 682/612/2 681/613/2
f 332/381/2 419/328/2 683/614/2 682/612/2
f 419/328/2 415/325/2 684/615/2 683/614/2
f 415/325/2 328/379/2 681/613/2 684/615/2
f 361/404/1 357/401/1 686/616/1 685/617/1
f 357/401/1 446/345/1 687/618/1 686/616/1
f 446/345/1 450/347/1 688/619/1 687/618/1
f 450/347/1 361/404/1 685/617/1 688/619/1
f 360/402/2 364/406/2 690/593/2 689/594/2
f 364/406/2 451/348/2 691/590/2 690/593/2
f 451/348/2 447/346/2 692/591/2 691/590/2
f 447/346/2 360/402/2 689/594/2 692/591/2
f 365/407/1 361/404/1 694/620/1 693/621/1
f 361/404/1 450/347/1 695/622/1 694/620/1
f 450/347/1 454/349/1 696/623/1 695/622/1
f 454/349/1 365/407/1 693/621/1 696/623/1
f 364/406/2 368/408/2 698/624/2 697/625/2
f 368/408/2 455/350/2 699/626/2 698/624/2
f 455/350/2 451/348/2 700/627/2 699/626/2
f 451/348/2 364/406/2 697/625/2 700/627/2
f 369/409/1 365/407/1 702/597/1 701/628/1
f 365/407/1 454/349/1 703/595/1 702/597/1
f 454/349/1 458/351/1 704/596/1 703/595/1
f 458/351/1 369/409/1 701/628/1 704/596/1
f 368/408/2 372/411/2 706/629/2 705/630/2
f 372/411/2 459/352/2 707/631/2 706/629/2
f 459/352/2 455/350/2 708/632/2 707/631/2
f 455/350/2 368/408/2 705/630/2 708/632/2
f 385/422/1 381/420/1 710/633/1 709/634/1
f 381/420/1 470/357/1 711/635/1 710/633/1
f 470/357/1 474/360/1 712/636/1 711/635/1
f 474/360/1 385/422/1 709/634/1 712/636/1
f 384/421/2 388/424/2 714/637/2 713/638/2
f 388/424/2 475/361/2 715/639/2 714/637/2
f 475/361/2 471/359/2 716/640/2 715/639/2
f 471/359/2 384/421/2 713/638/2 716/640/2
f 389/425/1 385/422/1 718/587/1 717/581/1
f 385/422/1 474/360/1 719/641/1 718/587/1
f 474/360/1 478/362/1 720/580/1 719/641/1
f 478/362/1 389/425/1 717/581/1 720/580/1
f 388/424/2 392/426/2 722/642/2 721/643/2
f 392/426/2 479/364/2 723/644/2 722/642/2
f 479/364/2 475/361/2 724/645/2 723/644/2
f 475/361/2 388/424/2 721/643/2 724/645/2
f 393/428/1 389/425/1 726/646/1 725/647/1
f 389/425/1 478/362/1 727/648/1 726/646/1
f 478/362/1 482/365/1 728/649/1 727/648/1
f 482/365/1 393/428/1 725/647/1 728/649/1
f 392/426/2 396/430/2 730/588/2 729/592/2
f 396/430/2 483/366/2 731/584/2 730/588/2
f 483/366/2 479/364/2 732/585/2 731/584/2
f 479/364/2 392/426/2 729/592/2 732/585/2
f 668/603/144 665/582/144 738/582/144 739/603/144
f 718/587/145 719/641/145 792/641/145 789/587/145
f 705/630/131 706/629/131 777/629/131 778/630/131
f 666/583/146 667/602/146 740/602/146 737/583/146
f 719/641/128 720/580/128 791/580/128 792/641/128
f 708/632/142 705/630/142 778/630/142 779/632/142
f 667/602/143 668/603/143 739/603/143 740/602/143
f 706/629/147 707/631/147 780/631/147 777/629/147
f 693/621/112 694/620/112 765/620/112 766/621/112
f 707/631/96 708/632/96 779/632/96 780/631/96
f 696/623/148 693/621/148 766/621/148 767/623/148
f 694/620/149 695/622/149 768/622/149 765/620/149
f 681/613/126 682/612/126 753/612/126 754/613/126
f 695/622/150 696/623/150 767/623/150 768/622/150
f 684/615/136 681/613/136 754/613/136 755/615/136
f 721/643/120 722/642/120 793/642/120 794/643/120
f 682/612/138 683/614/138 756/614/138 753/612/138
f 669/605/96 670/604/96 741/604/96 742/605/96
f 724/645/145 721/643/145 794/643/145 795/645/145
f 683/614/114 684/615/114 755/615/114 756/614/114
f 672/607/151 669/605/151 742/605/151 743/607/151
f 722/642/135 723/644/135 796/644/135 793/642/135
f 709/634/133 710/633/133 781/633/133 782/634/133
f 670/604/152 671/606/152 744/606/152 741/604/152
f 723/644/153 724/645/153 795/645/153 796/644/153
f 712/636/154 709/634/154 782/634/154 783/636/154
f 671/606/131 672/607/131 743/607/131 744/606/131
f 710/633/155 711/635/155 784/635/155 781/633/155
f 697/625/112 698/624/112 769/624/112 770/625/112
f 711/635/102 712/636/102 783/636/102 784/635/102
f 700/627/149 697/625/149 770/625/149 771/627/149
f 698/624/148 699/626/148 772/626/148 769/624/148
f 685/617/130 686/616/130 757/616/130 758/617/130
f 699/626/150 700/627/150 771/627/150 772/626/150
f 688/619/140 685/617/140 758/617/140 759/619/140
f 725/647/134 726/646/134 797/646/134 798/647/134
f 686/616/141 687/618/141 760/618/141 757/616/141
f 673/609/96 674/608/96 745/608/96 746/609/96
f 728/649/137 725/647/137 798/647/137 799/649/137
f 687/618/93 688/619/93 759/619/93 760/618/93
f 676/611/152 673/609/152 746/609/152 747/611/152
f 726/646/139 727/648/139 800/648/139 797/646/139
f 713/638/133 714/637/133 785/637/133 786/638/133
f 674/608/151 675/610/151 748/610/151 745/608/151
f 727/648/106 728/649/106 799/649/106 800/648/106
f 661/601/125 662/600/125 733/600/125 734/601/125
f 716/640/155 713/638/155 786/638/155 787/640/155
f 675/610/131 676/611/131 747/611/131 748/610/131
f 664/599/146 661/601/146 734/601/146 735/599/146
f 714/637/154 715/639/154 788/639/154 785/637/154
f 701/628/131 702/597/131 773/597/131 774/628/131
f 662/600/144 663/598/144 736/598/144 733/600/144
f 715/639/102 716/640/102 787/640/102 788/639/102
f 704/596/147 701/628/147 774/628/147 775/596/147
usemtl M_Noir_Profond
f 46/1/1 45/2/1 89/3/1 90/4/1
f 48/5/2 47/6/2 91/7/2 92/8/2
f 49/9/1 46/1/1 90/4/1 93/10/1
f 47/6/2 50/11/2 94/12/2 91/7/2
f 51/13/1 49/9/1 93/10/1 95/14/1
f 50/11/2 52/15/2 96/16/2 94/12/2
f 53/17/1 51/13/1 95/14/1 97/18/1
f 52/15/2 54/19/2 98/20/2 96/16/2
f 55/21/1 53/17/1 97/18/1 99/22/1
f 54/19/2 56/23/2 100/24/2 98/20/2
f 57/25/1 55/21/1 99/22/1 101/26/1
f 56/23/2 58/27/2 102/28/2 100/24/2
f 59/29/1 57/25/1 101/26/1 103/30/1
f 58/27/2 60/31/2 104/32/2 102/28/2
f 61/33/1 59/29/1 103/30/1 105/34/1
f 60/31/2 62/35/2 106/36/2 104/32/2
f 63/37/1 61/33/1 105/34/1 107/38/1
f 62/35/2 64/39/2 108/40/2 106/36/2
f 65/41/1 63/37/1 107/38/1 109/42/1
f 64/39/2 66/43/2 110/44/2 108/40/2
f 67/45/1 65/41/1 109/42/1 111/46/1
f 66/43/2 68/47/2 112/48/2 110/44/2
f 69/49/1 67/45/1 111/46/1 113/50/1
f 68/47/2 70/51/2 114/52/2 112/48/2
f 71/53/1 69/49/1 113/50/1 115/54/1
f 70/51/2 72/55/2 116/56/2 114/52/2
f 73/57/1 71/53/1 115/54/1 117/58/1
f 72/55/2 74/59/2 118/60/2 116/56/2
f 75/61/1 73/57/1 117/58/1 119/62/1
f 74/59/2 76/63/2 120/64/2 118/60/2
f 77/65/1 75/61/1 119/62/1 121/66/1
f 76/63/2 78/67/2 122/68/2 120/64/2
f 79/69/1 77/65/1 121/66/1 123/70/1
f 78/67/2 80/71/2 124/72/2 122/68/2
f 81/73/1 79/69/1 123/70/1 125/74/1
f 80/71/2 82/75/2 126/76/2 124/72/2
f 83/77/1 81/73/1 125/74/1 127/78/1
f 82/75/2 84/79/2 128/80/2 126/76/2
f 85/81/1 83/77/1 127/78/1 129/82/1
f 84/79/2 86/83/2 130/84/2 128/80/2
f 87/85/1 85/81/1 129/82/1 131/86/1
f 86/83/2 88/87/2 132/88/2 130/84/2
f 45/2/1 87/85/1 131/86/1 89/3/1
f 88/87/2 48/5/2 92/8/2 132/88/2
usemtl M_Machined_Steel
f 574/432/25 575/1/25 576/433/25 573/434/25
f 578/6/26 579/5/26 580/435/26 577/436/26
f 575/1/3 581/9/3 582/437/3 576/433/3
f 584/11/4 578/6/4 577/436/4 583/438/4
f 581/9/27 585/439/27 586/440/27 582/437/27
f 588/15/28 584/11/28 583/438/28 587/441/28
f 585/439/5 589/442/5 590/443/5 586/440/5
f 592/19/6 588/15/6 587/441/6 591/444/6
f 589/442/29 593/21/29 594/445/29 590/443/29
f 596/23/30 592/19/30 591/444/30 595/446/30
f 593/21/7 597/25/7 598/447/7 594/445/7
f 600/27/8 596/23/8 595/446/8 599/448/8
f 597/25/31 601/449/31 602/450/31 598/447/31
f 604/451/32 600/27/32 599/448/32 603/452/32
f 601/449/9 605/33/9 606/453/9 602/450/9
f 608/35/10 604/451/10 603/452/10 607/454/10
f 605/33/33 609/37/33 610/455/33 606/453/33
f 612/39/34 608/35/34 607/454/34 611/456/34
f 609/37/11 613/41/11 614/457/11 610/455/11
f 616/43/12 612/39/12 611/456/12 615/458/12
f 613/41/35 617/459/35 618/460/35 614/457/35
f 620/461/36 616/43/36 615/458/36 619/462/36
f 617/459/13 621/463/13 622/464/13 618/460/13
f 624/51/14 620/461/14 619/462/14 623/465/14
f 621/463/37 625/53/37 626/466/37 622/464/37
f 628/467/38 624/51/38 623/465/38 627/468/38
f 625/53/15 629/469/15 630/470/15 626/466/15
f 632/59/16 628/467/16 627/468/16 631/471/16
f 629/469/39 633/61/39 634/472/39 630/470/39
f 636/63/40 632/59/40 631/471/40 635/473/40
f 633/61/17 637/65/17 638/474/17 634/472/17
f 640/67/18 636/63/18 635/473/18 639/475/18
f 637/65/41 641/69/41 642/476/41 638/474/41
f 644/71/42 640/67/42 639/475/42 643/477/42
f 641/69/19 645/73/19 646/478/19 642/476/19
f 648/75/20 644/71/20 643/477/20 647/479/20
f 645/73/43 649/480/43 650/481/43 646/478/43
f 652/482/44 648/75/44 647/479/44 651/483/44
f 649/480/21 653/484/21 654/485/21 650/481/21
f 656/83/22 652/482/22 651/483/22 655/486/22
f 653/484/45 657/487/45 658/488/45 654/485/45
f 660/87/46 656/83/46 655/486/46 659/489/46
f 657/487/23 574/432/23 573/434/23 658/488/23
f 579/5/24 660/87/24 659/489/24 580/435/24
f 486/490/13 487/491/13 488/492/13 485/493/13
f 490/494/14 491/495/14 492/496/14 489/497/14
f 487/491/37 493/498/37 494/499/37 488/492/37
f 496/500/38 490/494/38 489/497/38 495/501/38
f 493/498/15 497/502/15 498/503/15 494/499/15
f 500/504/16 496/500/16 495/501/16 499/505/16
f 497/502/39 501/506/39 502/507/39 498/503/39
f 504/508/40 500/504/40 499/505/40 503/509/40
f 501/506/17 505/510/17 506/511/17 502/507/17
f 508/512/18 504/508/18 503/509/18 507/513/18
f 505/510/41 509/514/41 510/515/41 506/511/41
f 512/516/42 508/512/42 507/513/42 511/517/42
f 509/514/19 513/518/19 514/519/19 510/515/19
f 516/520/20 512/516/20 511/517/20 515/521/20
f 513/518/43 517/522/43 518/523/43 514/519/43
f 520/524/44 516/520/44 515/521/44 519/525/44
f 517/522/21 521/526/21 522/527/21 518/523/21
f 524/528/22 520/524/22 519/525/22 523/529/22
f 521/526/45 525/530/45 526/531/45 522/527/45
f 528/532/46 524/528/46 523/529/46 527/533/46
f 525/530/23 529/534/23 530/535/23 526/531/23
f 532/536/24 528/532/24 527/533/24 531/537/24
f 529/534/25 533/538/25 534/539/25 530/535/25
f 536/540/26 532/536/26 531/537/26 535/541/26
f 533/538/3 537/542/3 538/543/3 534/539/3
f 540/544/4 536/540/4 535/541/4 539/545/4
f 537/542/27 541/546/27 542/547/27 538/543/27
f 544/548/28 540/544/28 539/545/28 543/549/28
f 541/546/5 545/550/5 546/551/5 542/547/5
f 548/552/6 544/548/6 543/549/6 547/553/6
f 545/550/29 549/554/29 550/555/29 546/551/29
f 552/556/30 548/552/30 547/553/30 551/557/30
f 549/554/7 553/558/7 554/559/7 550/555/7
f 556/560/8 552/556/8 551/557/8 555/561/8
f 553/558/31 557/562/31 558/563/31 554/559/31
f 560/564/32 556/560/32 555/561/32 559/565/32
f 557/562/9 561/566/9 562/567/9 558/563/9
f 564/568/10 560/564/10 559/565/10 563/569/10
f 561/566/33 565/570/33 566/571/33 562/567/33
f 568/572/34 564/568/34 563/569/34 567/573/34
f 565/570/11 569/574/11 570/575/11 566/571/11
f 572/576/12 568/572/12 567/573/12 571/577/12
f 569/574/35 486/490/35 485/493/35 570/575/35
f 491/495/36 572/576/36 571/577/36 492/496/36
f 489/497/108 492/496/108 485/493/108 488/492/108
f 486/490/1 569/574/1 658/488/1 573/434/1
f 487/491/1 486/490/1 573/434/1 576/433/1
f 492/496/129 571/577/129 570/575/129 485/493/129
f 495/501/130 489/497/130 488/492/130 494/499/130
f 493/498/1 487/491/1 576/433/1 582/437/1
f 490/494/2 496/500/2 583/438/2 577/436/2
f 491/495/2 490/494/2 577/436/2 580/435/2
f 572/576/2 491/495/2 580/435/2 659/489/2
f 499/505/112 495/501/112 494/499/112 498/503/112
f 497/502/1 493/498/1 582/437/1 586/440/1
f 496/500/2 500/504/2 587/441/2 583/438/2
f 503/509/131 499/505/131 498/503/131 502/507/131
f 501/506/1 497/502/1 586/440/1 590/443/1
f 500/504/2 504/508/2 591/444/2 587/441/2
f 507/513/114 503/509/114 502/507/114 506/511/114
f 505/510/1 501/506/1 590/443/1 594/445/1
f 504/508/2 508/512/2 595/446/2 591/444/2
f 511/517/132 507/513/132 506/511/132 510/515/132
f 509/514/1 505/510/1 594/445/1 598/447/1
f 508/512/2 512/516/2 599/448/2 595/446/2
f 515/521/118 511/517/118 510/515/118 514/519/118
f 513/518/1 509/514/1 598/447/1 602/450/1
f 512/516/2 516/520/2 603/452/2 599/448/2
f 519/525/133 515/521/133 514/519/133 518/523/133
f 517/522/1 513/518/1 602/450/1 606/453/1
f 516/520/2 520/524/2 607/454/2 603/452/2
f 523/529/120 519/525/120 518/523/120 522/527/120
f 521/526/1 517/522/1 606/453/1 610/455/1
f 520/524/2 524/528/2 611/456/2 607/454/2
f 527/533/134 523/529/134 522/527/134 526/531/134
f 525/530/1 521/526/1 610/455/1 614/457/1
f 524/528/2 528/532/2 615/458/2 611/456/2
f 531/537/92 527/533/92 526/531/92 530/535/92
f 529/534/1 525/530/1 614/457/1 618/460/1
f 528/532/2 532/536/2 619/462/2 615/458/2
f 535/541/124 531/537/124 530/535/124 534/539/124
f 533/538/1 529/534/1 618/460/1 622/464/1
f 532/536/2 536/540/2 623/465/2 619/462/2
f 539/545/93 535/541/93 534/539/93 538/543/93
f 537/542/1 533/538/1 622/464/1 626/466/1
f 536/540/2 540/544/2 627/468/2 623/465/2
f 543/549/125 539/545/125 538/543/125 542/547/125
f 541/546/1 537/542/1 626/466/1 630/470/1
f 540/544/2 544/548/2 631/471/2 627/468/2
f 547/553/96 543/549/96 542/547/96 546/551/96
f 545/550/1 541/546/1 630/470/1 634/472/1
f 544/548/2 548/552/2 635/473/2 631/471/2
f 551/557/126 547/553/126 546/551/126 550/555/126
f 549/554/1 545/550/1 634/472/1 638/474/1
f 548/552/2 552/556/2 639/475/2 635/473/2
f 555/561/99 551/557/99 550/555/99 554/559/99
f 553/558/1 549/554/1 638/474/1 642/476/1
f 552/556/2 556/560/2 643/477/2 639/475/2
f 559/565/127 555/561/127 554/559/127 558/563/127
f 557/562/1 553/558/1 642/476/1 646/478/1
f 556/560/2 560/564/2 647/479/2 643/477/2
f 563/569/102 559/565/102 558/563/102 562/567/102
f 561/566/1 557/562/1 646/478/1 650/481/1
f 560/564/2 564/568/2 651/483/2 647/479/2
f 567/573/128 563/569/128 562/567/128 566/571/128
f 565/570/1 561/566/1 650/481/1 654/485/1
f 564/568/2 568/572/2 655/486/2 651/483/2
f 571/577/106 567/573/106 566/571/106 570/575/106
f 569/574/1 565/570/1 654/485/1 658/488/1
f 568/572/2 572/576/2 659/489/2 655/486/2
f 87/85/92 45/2/92 574/432/92 657/487/92
f 45/2/124 46/1/124 575/1/124 574/432/124
f 46/1/93 49/9/93 581/9/93 575/1/93
f 50/11/93 47/6/93 578/6/93 584/11/93
f 47/6/124 48/5/124 579/5/124 578/6/124
f 48/5/92 88/87/92 660/87/92 579/5/92
f 49/9/125 51/13/125 585/439/125 581/9/125
f 52/15/125 50/11/125 584/11/125 588/15/125
f 51/13/96 53/17/96 589/442/96 585/439/96
f 54/19/96 52/15/96 588/15/96 592/19/96
f 53/17/126 55/21/126 593/21/126 589/442/126
f 56/23/126 54/19/126 592/19/126 596/23/126
f 55/21/99 57/25/99 597/25/99 593/21/99
f 58/27/99 56/23/99 596/23/99 600/27/99
f 57/25/127 59/29/127 601/449/127 597/25/127
f 60/31/127 58/27/127 600/27/127 604/451/127
f 59/29/102 61/33/102 605/33/102 601/449/102
f 62/35/102 60/31/102 604/451/102 608/35/102
f 61/33/128 63/37/128 609/37/128 605/33/128
f 64/39/128 62/35/128 608/35/128 612/39/128
f 63/37/106 65/41/106 613/41/106 609/37/106
f 66/43/106 64/39/106 612/39/106 616/43/106
f 65/41/129 67/45/129 617/459/129 613/41/129
f 68/47/129 66/43/129 616/43/129 620/461/129
f 67/45/108 69/49/108 621/463/108 617/459/108
f 70/51/108 68/47/108 620/461/108 624/51/108
f 69/49/130 71/53/130 625/53/130 621/463/130
f 72/55/130 70/51/130 624/51/130 628/467/130
f 71/53/112 73/57/112 629/469/112 625/53/112
f 74/59/112 72/55/112 628/467/112 632/59/112
f 73/57/131 75/61/131 633/61/131 629/469/131
f 76/63/131 74/59/131 632/59/131 636/63/131
f 75/61/114 77/65/114 637/65/114 633/61/114
f 78/67/114 76/63/114 636/63/114 640/67/114
f 77/65/132 79/69/132 641/69/132 637/65/132
f 80/71/132 78/67/132 640/67/132 644/71/132
f 79/69/118 81/73/118 645/73/118 641/69/118
f 82/75/118 80/71/118 644/71/118 648/75/118
f 81/73/133 83/77/133 649/480/133 645/73/133
f 84/79/133 82/75/133 648/75/133 652/482/133
f 83/77/120 85/81/120 653/484/120 649/480/120
f 86/83/120 84/79/120 652/482/120 656/83/120
f 85/81/134 87/85/134 657/487/134 653/484/134
f 88/87/134 86/83/134 656/83/134 660/87/134
