# Blender 5.1.2
# www.blender.org
mtllib SM_Industrial_Bearing.mtl
o SM_Industrial_Bearing
v -0.027291 0.116313 -0.068742
v 0.027291 0.116313 -0.068742
v -0.027291 0.079474 -0.068742
v 0.027291 0.079474 -0.068742
v -0.027291 0.047571 -0.050323
v 0.027291 0.047571 -0.050323
v -0.027291 0.029151 -0.018419
v 0.027291 0.029151 -0.018419
v -0.027291 0.029151 0.018419
v 0.027291 0.029151 0.018419
v -0.027291 0.047571 0.050323
v 0.027291 0.047571 0.050323
v -0.027291 0.079474 0.068742
v 0.027291 0.079474 0.068742
v -0.027291 0.116313 0.068742
v 0.027291 0.116313 0.068742
v -0.027291 0.148217 0.050323
v 0.027291 0.148217 0.050323
v -0.027291 0.166636 0.018419
v 0.027291 0.166636 0.018419
v -0.027291 0.166636 -0.018419
v 0.027291 0.166636 -0.018419
v -0.027291 0.148217 -0.050323
v 0.027291 0.148217 -0.050323
v 0.018749 0.031202 -0.017870
v -0.018749 0.031202 -0.017870
v 0.027291 0.014992 0.022214
v -0.027291 0.014992 0.022214
v 0.018749 0.049072 -0.048822
v -0.018749 0.049072 -0.048822
v 0.027291 0.014992 -0.022214
v -0.027291 0.014992 -0.022214
v -0.017990 0.102802 -0.082902
v -0.017990 0.092986 -0.082902
v 0.017990 0.092986 -0.082902
v 0.017990 0.102802 -0.082902
v -0.027291 0.052520 -0.060688
v 0.027291 0.052520 -0.060688
v -0.027291 0.052520 0.060688
v 0.018749 0.115764 -0.066692
v 0.018749 0.080024 -0.066692
v -0.018749 0.080024 -0.066692
v -0.018749 0.115764 -0.066692
v 0.027291 0.052520 0.060688
v -0.017990 0.092986 0.082902
v -0.017990 0.102802 0.082902
v 0.017990 0.092986 0.082902
v 0.017990 0.102802 0.082902
v -0.018749 0.031202 0.017870
v 0.018749 0.031202 0.017870
v -0.018749 0.049072 0.048822
v 0.018749 0.049072 0.048822
v -0.018749 0.080024 0.066692
v 0.018749 0.080024 0.066692
v -0.018749 0.115764 0.066692
v 0.018749 0.115764 0.066692
v -0.018749 0.146716 0.048822
v 0.018749 0.146716 0.048822
v -0.018749 0.164586 0.017870
v 0.018749 0.164586 0.017870
v -0.018749 0.164586 -0.017870
v 0.018749 0.164586 -0.017870
v -0.018749 0.146716 -0.048822
v 0.018749 0.146716 -0.048822
v 0.018749 0.116313 -0.068742
v 0.018749 0.148217 -0.050323
v -0.018749 0.148217 -0.050323
v -0.018749 0.116313 -0.068742
v 0.018749 0.166636 -0.018419
v -0.018749 0.166636 -0.018419
v 0.018749 0.166636 0.018419
v -0.018749 0.166636 0.018419
v 0.018749 0.148217 0.050323
v -0.018749 0.148217 0.050323
v 0.018749 0.116313 0.068742
v -0.018749 0.116313 0.068742
v 0.018749 0.079474 0.068742
v -0.018749 0.079474 0.068742
v 0.018749 0.047571 0.050323
v -0.018749 0.047571 0.050323
v 0.018749 0.029151 0.018419
v -0.018749 0.029151 0.018419
v 0.018749 0.029151 -0.018419
v -0.018749 0.029151 -0.018419
v 0.018749 0.047571 -0.050323
v -0.018749 0.047571 -0.050323
v 0.018749 0.079474 -0.068742
v -0.018749 0.079474 -0.068742
v 0.022301 0.114298 -0.061223
v 0.022301 0.142712 -0.044818
v -0.022301 0.142712 -0.044818
v -0.022301 0.114298 -0.061223
v 0.022301 0.159116 -0.016405
v -0.022301 0.159116 -0.016405
v 0.022301 0.159116 0.016405
v -0.022301 0.159116 0.016405
v 0.022301 0.142712 0.044818
v -0.022301 0.142712 0.044818
v 0.022301 0.114298 0.061223
v -0.022301 0.114298 0.061223
v 0.022301 0.081489 0.061223
v -0.022301 0.081489 0.061223
v 0.022301 0.053076 0.044818
v -0.022301 0.053076 0.044818
v 0.022301 0.036671 0.016405
v -0.022301 0.036671 0.016405
v 0.022301 0.036671 -0.016405
v -0.022301 0.036671 -0.016405
v 0.022301 0.053076 -0.044818
v -0.022301 0.053076 -0.044818
v 0.022301 0.081489 -0.061223
v -0.022301 0.081489 -0.061223
v 0.022301 0.115764 -0.066692
v 0.022301 0.146716 -0.048822
v -0.022301 0.146716 -0.048822
v -0.022301 0.115764 -0.066692
v 0.022301 0.164586 -0.017870
v -0.022301 0.164586 -0.017870
v 0.022301 0.164586 0.017870
v -0.022301 0.164586 0.017870
v 0.022301 0.146716 0.048822
v -0.022301 0.146716 0.048822
v 0.022301 0.115764 0.066692
v -0.022301 0.115764 0.066692
v 0.022301 0.080024 0.066692
v -0.022301 0.080024 0.066692
v 0.022301 0.049072 0.048822
v -0.022301 0.049072 0.048822
v 0.022301 0.031202 0.017870
v -0.022301 0.031202 0.017870
v 0.022301 0.031202 -0.017870
v -0.022301 0.031202 -0.017870
v 0.022301 0.049072 -0.048822
v -0.022301 0.049072 -0.048822
v 0.022301 0.080024 -0.066692
v -0.022301 0.080024 -0.066692
v 0.012952 0.110981 -0.048841
v 0.012952 0.133648 -0.035754
v -0.012952 0.133648 -0.035754
v -0.012952 0.110981 -0.048841
v 0.012952 0.146735 -0.013087
v -0.012952 0.146735 -0.013087
v 0.012952 0.146735 0.013087
v -0.012952 0.146735 0.013087
v 0.012952 0.133648 0.035754
v -0.012952 0.133648 0.035754
v 0.012952 0.110981 0.048841
v -0.012952 0.110981 0.048841
v 0.012952 0.084807 0.048841
v -0.012952 0.084807 0.048841
v 0.012952 0.062139 0.035754
v -0.012952 0.062139 0.035754
v 0.012952 0.049052 0.013087
v -0.012952 0.049052 0.013087
v 0.012952 0.049052 -0.013087
v -0.012952 0.049052 -0.013087
v 0.012952 0.062139 -0.035754
v -0.012952 0.062139 -0.035754
v 0.012952 0.084807 -0.048841
v -0.012952 0.084807 -0.048841
v 0.012952 0.114298 -0.061223
v 0.012952 0.142712 -0.044818
v -0.012952 0.142712 -0.044818
v -0.012952 0.114298 -0.061223
v 0.012952 0.159116 -0.016405
v -0.012952 0.159116 -0.016405
v 0.012952 0.159116 0.016405
v -0.012952 0.159116 0.016405
v 0.012952 0.142712 0.044818
v -0.012952 0.142712 0.044818
v 0.012952 0.114298 0.061223
v -0.012952 0.114298 0.061223
v 0.012952 0.081489 0.061223
v -0.012952 0.081489 0.061223
v 0.012952 0.053076 0.044818
v -0.012952 0.053076 0.044818
v 0.012952 0.036671 0.016405
v -0.012952 0.036671 0.016405
v 0.012952 0.036671 -0.016405
v -0.012952 0.036671 -0.016405
v 0.012952 0.053076 -0.044818
v -0.012952 0.053076 -0.044818
v 0.012952 0.081489 -0.061223
v -0.012952 0.081489 -0.061223
v 0.027734 0.106518 -0.032188
v 0.029795 0.107001 -0.033988
v 0.029795 0.122775 -0.024881
v 0.027734 0.121457 -0.023563
v -0.027734 0.121457 -0.023563
v -0.029795 0.122775 -0.024881
v -0.029795 0.107001 -0.033988
v -0.027734 0.106518 -0.032188
v 0.029795 0.131882 -0.009107
v 0.027734 0.130082 -0.008625
v -0.027734 0.130082 -0.008625
v -0.029795 0.131882 -0.009107
v 0.029795 0.131882 0.009107
v 0.027734 0.130082 0.008625
v -0.027734 0.130082 0.008625
v -0.029795 0.131882 0.009107
v 0.029795 0.122775 0.024881
v 0.027734 0.121457 0.023563
v -0.027734 0.121457 0.023563
v -0.029795 0.122775 0.024881
v 0.029795 0.107001 0.033988
v 0.027734 0.106518 0.032188
v -0.027734 0.106518 0.032188
v -0.029795 0.107001 0.033988
v 0.029795 0.088787 0.033988
v 0.027734 0.089269 0.032188
v -0.027734 0.089269 0.032188
v -0.029795 0.088786 0.033988
v 0.029795 0.073012 0.024881
v 0.027734 0.074330 0.023563
v -0.027734 0.074330 0.023563
v -0.029795 0.073012 0.024881
v 0.029795 0.063905 0.009107
v 0.027734 0.065706 0.008625
v -0.027734 0.065706 0.008625
v -0.029795 0.063905 0.009107
v 0.029795 0.063905 -0.009107
v 0.027734 0.065706 -0.008625
v -0.027734 0.065706 -0.008625
v -0.029795 0.063905 -0.009107
v 0.029795 0.073012 -0.024881
v 0.027734 0.074330 -0.023563
v -0.027734 0.074330 -0.023563
v -0.029795 0.073012 -0.024881
v 0.029795 0.088787 -0.033988
v 0.027734 0.089269 -0.032188
v -0.027734 0.089269 -0.032188
v -0.029795 0.088786 -0.033988
v 0.029795 0.110429 -0.046781
v 0.027735 0.110981 -0.048841
v 0.027735 0.133648 -0.035754
v 0.029795 0.132140 -0.034246
v -0.029795 0.132140 -0.034246
v -0.027735 0.133648 -0.035754
v -0.027735 0.110981 -0.048841
v -0.029795 0.110429 -0.046781
v 0.027735 0.146735 -0.013087
v 0.029795 0.144675 -0.012535
v -0.029795 0.144674 -0.012535
v -0.027735 0.146735 -0.013087
v 0.027735 0.146735 0.013087
v 0.029795 0.144675 0.012535
v -0.029795 0.144675 0.012535
v -0.027735 0.146735 0.013087
v 0.027735 0.133648 0.035754
v 0.029795 0.132140 0.034246
v -0.029795 0.132140 0.034246
v -0.027735 0.133648 0.035754
v 0.027735 0.110981 0.048841
v 0.029795 0.110429 0.046781
v -0.029795 0.110429 0.046781
v -0.027735 0.110981 0.048841
v 0.027735 0.084807 0.048841
v 0.029795 0.085359 0.046781
v -0.029795 0.085359 0.046781
v -0.027735 0.084807 0.048841
v 0.027735 0.062139 0.035754
v 0.029795 0.063648 0.034246
v -0.029795 0.063648 0.034246
v -0.027735 0.062139 0.035754
v 0.027735 0.049052 0.013087
v 0.029795 0.051113 0.012535
v -0.029795 0.051113 0.012535
v -0.027735 0.049052 0.013087
v 0.027735 0.049052 -0.013087
v 0.029795 0.051113 -0.012535
v -0.029795 0.051113 -0.012535
v -0.027735 0.049052 -0.013087
v 0.027735 0.062139 -0.035754
v 0.029795 0.063648 -0.034246
v -0.029795 0.063648 -0.034246
v -0.027735 0.062139 -0.035754
v 0.027735 0.084807 -0.048841
v 0.029795 0.085359 -0.046781
v -0.029795 0.085359 -0.046781
v -0.027735 0.084807 -0.048841
v -0.000000 0.158582 0.060688
v -0.000000 0.180796 0.022214
v -0.000000 0.169689 0.041451
v -0.000000 0.174807 0.032587
v -0.007238 0.173308 0.035183
v -0.010235 0.169689 0.041451
v -0.007238 0.166070 0.047719
v -0.000000 0.164571 0.050315
v 0.007238 0.166070 0.047719
v 0.010235 0.169689 0.041451
v 0.007238 0.173308 0.035183
v -0.031022 0.048014 -0.088251
v -0.031029 0.048014 -0.135343
v 0.031029 0.048014 -0.135343
v -0.000000 0.048014 0.088110
v 0.031019 0.048014 0.088110
v -0.031019 0.048014 0.088110
v 0.031027 0.048014 0.135346
v -0.031023 0.048014 0.116470
v -0.031027 0.048014 0.135346
v 0.031023 0.048014 0.116470
v 0.011096 -0.000000 0.127565
v -0.031026 0.048014 -0.116538
v -0.015692 0.000000 -0.116538
v -0.027291 0.000000 -0.060688
v -0.000000 0.048014 -0.088251
v 0.031022 0.048014 -0.088251
v 0.031026 0.048014 -0.116538
v -0.000000 0.175573 0.037536
v -0.004478 0.174646 0.039143
v -0.006332 0.172407 0.043020
v -0.004478 0.170168 0.046898
v -0.000000 0.169241 0.048504
v 0.004478 0.170168 0.046898
v 0.006332 0.172407 0.043020
v 0.004478 0.174646 0.039143
v -0.007238 0.176026 0.036752
v -0.000000 0.177525 0.034156
v -0.010235 0.172407 0.043020
v -0.007238 0.168788 0.049288
v -0.000000 0.167289 0.051884
v 0.007238 0.168788 0.049288
v 0.010235 0.172407 0.043020
v 0.007238 0.176026 0.036752
v -0.004478 0.176050 0.039954
v -0.000000 0.176978 0.038347
v -0.006332 0.173812 0.043831
v -0.004478 0.171573 0.047709
v -0.000000 0.170646 0.049315
v 0.004478 0.171573 0.047709
v 0.006332 0.173812 0.043831
v 0.004478 0.176050 0.039954
v -0.005164 0.177259 0.039859
v -0.000000 0.178329 0.038007
v -0.007303 0.174677 0.044331
v -0.005164 0.172095 0.048803
v -0.000000 0.171026 0.050656
v 0.005164 0.172095 0.048803
v 0.007303 0.174677 0.044331
v 0.005164 0.177259 0.039859
v -0.005164 0.184565 0.044077
v -0.001608 0.184643 0.048228
v -0.000000 0.184976 0.047651
v -0.000000 0.185634 0.042224
v -0.007303 0.181983 0.048549
v -0.002274 0.183839 0.049620
v -0.005164 0.179401 0.053021
v -0.001608 0.183035 0.051013
v -0.000000 0.178331 0.054873
v -0.000000 0.182702 0.051590
v 0.005164 0.179401 0.053021
v 0.001608 0.183035 0.051013
v 0.007303 0.181983 0.048549
v 0.002274 0.183839 0.049620
v 0.005164 0.184565 0.044077
v 0.001608 0.184643 0.048228
v -0.003523 0.185601 0.046569
v -0.000000 0.186330 0.045305
v -0.004983 0.183839 0.049620
v -0.003523 0.182077 0.052672
v -0.000000 0.181347 0.053936
v 0.003523 0.182077 0.052672
v 0.004983 0.183839 0.049620
v 0.003523 0.185601 0.046569
v -0.001290 0.183216 0.047771
v -0.000000 0.183483 0.047308
v -0.001825 0.182571 0.048888
v -0.001290 0.181925 0.050006
v -0.000000 0.181658 0.050469
v 0.001290 0.181925 0.050006
v 0.001825 0.182571 0.048888
v 0.001290 0.183216 0.047771
v -0.017990 0.102802 -0.081871
v -0.017990 0.092986 -0.081871
v 0.017990 0.092986 -0.081871
v 0.017990 0.102802 -0.081871
v 0.017990 0.092986 0.081871
v -0.017990 0.092986 0.081871
v -0.017990 0.102802 0.081871
v 0.017990 0.102802 0.081871
v 0.027291 0.000000 -0.022214
v -0.027291 0.000000 -0.022214
v 0.027291 -0.000000 0.022214
v -0.027291 -0.000000 0.022214
v 0.027291 0.000000 -0.060688
v 0.027291 -0.000000 0.060688
v -0.027291 -0.000000 0.060688
v 0.022944 -0.000000 0.149864
v -0.034344 0.052520 0.066304
v -0.034344 0.052520 -0.066304
v 0.034344 0.052520 -0.066304
v 0.034344 0.052520 0.066304
v -0.034344 -0.000000 0.066304
v 0.034344 -0.000000 0.066304
v 0.034344 0.000000 -0.066304
v -0.034344 0.000000 -0.066304
v 0.034344 -0.000000 0.136616
v -0.022944 -0.000000 0.149864
v -0.034344 -0.000000 0.136616
v 0.022944 0.000000 -0.149864
v 0.034344 0.000000 -0.136616
v -0.034344 0.000000 -0.136616
v -0.022944 0.000000 -0.149864
v -0.024173 0.158582 0.060688
v -0.027291 0.156300 0.058406
v 0.027291 0.156300 0.058406
v 0.024173 0.158582 0.060688
v -0.024173 0.180796 0.022214
v -0.027291 0.177678 0.021378
v 0.024173 0.180796 0.022214
v 0.027291 0.177678 0.021378
v -0.024173 0.180796 -0.022213
v -0.027291 0.177678 -0.021378
v 0.027291 0.177678 -0.021378
v 0.024173 0.180796 -0.022213
v -0.024173 0.158582 -0.060688
v -0.027291 0.156300 -0.058406
v 0.027291 0.156300 -0.058406
v 0.024173 0.158582 -0.060688
v -0.027291 0.166989 0.039892
v -0.024173 0.169689 0.041451
v 0.027291 0.166989 0.039892
v 0.024173 0.169689 0.041451
v -0.027291 0.119272 -0.079784
v -0.024173 0.120107 -0.082902
v -0.023935 0.075680 -0.082902
v -0.027291 0.075680 -0.079597
v 0.027291 0.075680 -0.079597
v 0.023935 0.075680 -0.082902
v 0.024173 0.120107 -0.082902
v 0.027291 0.119272 -0.079784
v 0.023932 0.075680 0.082902
v 0.027291 0.075680 0.079603
v -0.027291 0.075680 0.079603
v -0.023932 0.075680 0.082902
v -0.024173 0.120107 0.082902
v -0.027291 0.119272 0.079784
v 0.027291 0.119272 0.079784
v 0.024173 0.120107 0.082902
v -0.027291 0.052520 0.079596
v -0.023922 0.052520 0.082902
v -0.023926 0.052520 -0.082902
v -0.027291 0.052520 -0.079590
v 0.027291 0.052520 -0.079590
v 0.023926 0.052520 -0.082902
v 0.023922 0.052520 0.082902
v 0.027291 0.052520 0.079596
v -0.034344 0.052520 -0.084938
v -0.030997 0.052520 -0.088251
v 0.030997 0.052520 -0.088251
v 0.034344 0.052520 -0.084938
v -0.034344 0.052520 0.084805
v -0.030995 0.052520 0.088110
v 0.030995 0.052520 0.088110
v 0.034344 0.052520 0.084805
v -0.034344 0.044896 0.084812
v -0.034344 0.044896 -0.084946
v 0.034344 0.044896 -0.084946
v -0.011096 0.000000 -0.105443
v 0.034344 0.044896 0.084812
v -0.034344 0.044896 0.136616
v -0.021652 0.048014 0.146241
v -0.022944 0.044896 0.149864
v -0.021652 0.048014 -0.146241
v -0.022944 0.044896 -0.149864
v -0.034344 0.044896 -0.136616
v 0.034344 0.044896 -0.136616
v 0.021652 0.048014 -0.146241
v 0.022944 0.044896 -0.149864
v 0.021652 0.048014 0.146241
v 0.022944 0.044896 0.149864
v 0.034344 0.044896 0.136616
v -0.027291 0.014992 -0.007405
v -0.027291 0.014992 0.007405
v 0.027291 0.014992 0.007405
v 0.027291 0.014992 -0.007405
v -0.027291 0.000000 -0.007405
v -0.027291 0.000000 0.007405
v -0.027291 0.013288 0.012632
v -0.027291 0.013288 0.009199
v -0.027291 0.001704 0.009199
v -0.027291 0.001704 0.012632
v -0.027291 0.013288 0.001717
v -0.027291 0.013288 -0.001717
v -0.027291 0.001704 -0.001717
v -0.027291 0.001704 0.001717
v -0.027291 0.013288 -0.009199
v -0.027291 0.013288 -0.012632
v -0.027291 0.001704 -0.012632
v -0.027291 0.001704 -0.009199
v 0.027291 0.013288 -0.012632
v 0.027291 0.013288 -0.009199
v 0.027291 0.001704 -0.009199
v 0.027291 0.001704 -0.012632
v 0.027291 0.013288 -0.001717
v 0.027291 0.013288 0.001717
v 0.027291 0.001704 0.001717
v 0.027291 0.001704 -0.001717
v 0.027291 0.013288 0.009199
v 0.027291 0.013288 0.012632
v 0.027291 0.001704 0.012632
v 0.027291 0.001704 0.009199
v -0.026823 0.013288 0.009199
v -0.026823 0.013288 0.012632
v -0.026823 0.001704 0.012632
v -0.026823 0.001704 0.009199
v -0.026823 0.013288 -0.001717
v -0.026823 0.013288 0.001717
v -0.026823 0.001704 0.001717
v -0.026823 0.001704 -0.001717
v -0.026823 0.013288 -0.012632
v -0.026823 0.013288 -0.009199
v -0.026823 0.001704 -0.009199
v -0.026823 0.001704 -0.012632
v 0.026823 0.013288 -0.009199
v 0.026823 0.013288 -0.012632
v 0.026823 0.001704 -0.012632
v 0.026823 0.001704 -0.009199
v 0.026823 0.013288 0.001717
v 0.026823 0.013288 -0.001717
v 0.026823 0.001704 -0.001717
v 0.026823 0.001704 0.001717
v 0.026823 0.013288 0.012632
v 0.026823 0.013288 0.009199
v 0.026823 0.001704 0.009199
v 0.026823 0.001704 0.012632
v -0.012937 0.159997 -0.007486
v -0.012937 0.156563 -0.009781
v -0.012937 0.152512 -0.010587
v -0.012937 0.148460 -0.009781
v -0.012937 0.145026 -0.007486
v -0.012937 0.159997 0.007486
v -0.012937 0.156563 0.009781
v -0.012937 0.152512 0.010587
v -0.012937 0.148460 0.009781
v -0.012937 0.145026 0.007486
v -0.018620 0.159997 0.005293
v -0.020242 0.156563 0.006916
v -0.020812 0.152512 0.007486
v -0.020242 0.148460 0.006916
v -0.018620 0.145026 0.005293
v -0.020812 0.159997 0.000000
v -0.023107 0.156563 0.000000
v -0.023913 0.152512 0.000000
v -0.023107 0.148460 0.000000
v -0.020812 0.145026 0.000000
v -0.018620 0.159997 -0.005293
v -0.020242 0.156563 -0.006916
v -0.020812 0.152512 -0.007486
v -0.020242 0.148460 -0.006916
v -0.018620 0.145026 -0.005293
v 0.012937 0.159997 -0.007486
v 0.012937 0.156563 -0.009781
v 0.012937 0.152512 -0.010587
v 0.012937 0.148460 -0.009781
v 0.012937 0.145026 -0.007486
v 0.012937 0.159997 0.007486
v 0.012937 0.156563 0.009781
v 0.012937 0.152512 0.010587
v 0.012937 0.148460 0.009781
v 0.012937 0.145026 0.007486
v 0.018620 0.159997 0.005293
v 0.020242 0.156563 0.006916
v 0.020812 0.152512 0.007486
v 0.020242 0.148460 0.006916
v 0.018620 0.145026 0.005293
v 0.020812 0.159997 0.000000
v 0.023107 0.156563 0.000000
v 0.023913 0.152512 0.000000
v 0.023107 0.148460 0.000000
v 0.020812 0.145026 0.000000
v 0.018620 0.159997 -0.005293
v 0.020242 0.156563 -0.006916
v 0.020812 0.152512 -0.007486
v 0.020242 0.148460 -0.006916
v 0.018620 0.145026 -0.005293
v -0.012937 0.035790 -0.007486
v -0.012937 0.039224 -0.009781
v -0.012937 0.043276 -0.010587
v -0.012937 0.047327 -0.009781
v -0.012937 0.050762 -0.007486
v -0.012937 0.035790 0.007486
v -0.012937 0.039224 0.009781
v -0.012937 0.043276 0.010587
v -0.012937 0.047327 0.009781
v -0.012937 0.050762 0.007486
v -0.018620 0.035790 0.005293
v -0.020242 0.039224 0.006916
v -0.020812 0.043276 0.007486
v -0.020242 0.047327 0.006916
v -0.018620 0.050762 0.005293
v -0.020812 0.035790 0.000000
v -0.023107 0.039224 0.000000
v -0.023913 0.043276 0.000000
v -0.023107 0.047327 0.000000
v -0.020812 0.050762 0.000000
v -0.018620 0.035790 -0.005293
v -0.020242 0.039224 -0.006916
v -0.020812 0.043276 -0.007486
v -0.020242 0.047327 -0.006916
v -0.018620 0.050762 -0.005293
v 0.012937 0.035790 -0.007486
v 0.012937 0.039224 -0.009781
v 0.012937 0.043276 -0.010587
v 0.012937 0.047327 -0.009781
v 0.012937 0.050762 -0.007486
v 0.012937 0.035790 0.007486
v 0.012937 0.039224 0.009781
v 0.012937 0.043276 0.010587
v 0.012937 0.047327 0.009781
v 0.012937 0.050762 0.007486
v 0.018620 0.035790 0.005293
v 0.020242 0.039224 0.006916
v 0.020812 0.043276 0.007486
v 0.020242 0.047327 0.006916
v 0.018620 0.050762 0.005293
v 0.020812 0.035790 0.000000
v 0.023107 0.039224 0.000000
v 0.023913 0.043276 0.000000
v 0.023107 0.047327 0.000000
v 0.020812 0.050762 0.000000
v 0.018620 0.035790 -0.005293
v 0.020242 0.039224 -0.006916
v 0.020812 0.043276 -0.007486
v 0.020242 0.047327 -0.006916
v 0.018620 0.050762 -0.005293
v -0.012937 0.135429 0.050041
v -0.012937 0.135699 0.045919
v -0.012937 0.134371 0.042007
v -0.012937 0.131647 0.038902
v -0.012937 0.127943 0.037075
v -0.012937 0.122463 0.057526
v -0.012937 0.118758 0.055699
v -0.012937 0.116034 0.052594
v -0.012937 0.114706 0.048682
v -0.012937 0.114977 0.044560
v -0.018620 0.124361 0.056430
v -0.020242 0.121239 0.054267
v -0.020812 0.118720 0.051043
v -0.020242 0.117187 0.047250
v -0.018620 0.116875 0.043464
v -0.020812 0.128946 0.053783
v -0.023107 0.127228 0.050809
v -0.023913 0.125203 0.047301
v -0.023107 0.123177 0.043792
v -0.020812 0.121460 0.040818
v -0.018620 0.133530 0.051137
v -0.020242 0.133218 0.047351
v -0.020812 0.131686 0.043558
v -0.020242 0.129166 0.040334
v -0.018620 0.126044 0.038171
v 0.012937 0.135429 0.050041
v 0.012937 0.135699 0.045919
v 0.012937 0.134371 0.042007
v 0.012937 0.131647 0.038902
v 0.012937 0.127943 0.037075
v 0.012937 0.122463 0.057526
v 0.012937 0.118758 0.055699
v 0.012937 0.116034 0.052594
v 0.012937 0.114706 0.048682
v 0.012937 0.114977 0.044560
v 0.018620 0.124361 0.056430
v 0.020242 0.121239 0.054267
v 0.020812 0.118720 0.051043
v 0.020242 0.117187 0.047250
v 0.018620 0.116875 0.043464
v 0.020812 0.128946 0.053783
v 0.023107 0.127228 0.050809
v 0.023913 0.125203 0.047301
v 0.023107 0.123177 0.043792
v 0.020812 0.121460 0.040818
v 0.018620 0.133530 0.051137
v 0.020242 0.133218 0.047351
v 0.020812 0.131686 0.043558
v 0.020242 0.129166 0.040334
v 0.018620 0.126044 0.038171
v -0.012937 0.073325 -0.057526
v -0.012937 0.077029 -0.055699
v -0.012937 0.079753 -0.052594
v -0.012937 0.081081 -0.048682
v -0.012937 0.080811 -0.044560
v -0.012937 0.060359 -0.050041
v -0.012937 0.060089 -0.045919
v -0.012937 0.061416 -0.042007
v -0.012937 0.064140 -0.038902
v -0.012937 0.067845 -0.037075
v -0.018620 0.062258 -0.051137
v -0.020242 0.062570 -0.047351
v -0.020812 0.064102 -0.043558
v -0.020242 0.066621 -0.040334
v -0.018620 0.069743 -0.038171
v -0.020812 0.066842 -0.053783
v -0.023107 0.068559 -0.050809
v -0.023913 0.070585 -0.047300
v -0.023107 0.072610 -0.043792
v -0.020812 0.074328 -0.040818
v -0.018620 0.071426 -0.056430
v -0.020242 0.074549 -0.054267
v -0.020812 0.077068 -0.051043
v -0.020242 0.078600 -0.047250
v -0.018620 0.078912 -0.043464
v 0.012937 0.073325 -0.057526
v 0.012937 0.077029 -0.055699
v 0.012937 0.079753 -0.052594
v 0.012937 0.081081 -0.048682
v 0.012937 0.080811 -0.044560
v 0.012937 0.060359 -0.050041
v 0.012937 0.060089 -0.045919
v 0.012937 0.061416 -0.042007
v 0.012937 0.064140 -0.038902
v 0.012937 0.067845 -0.037075
v 0.018620 0.062258 -0.051137
v 0.020242 0.062570 -0.047351
v 0.020812 0.064102 -0.043558
v 0.020242 0.066621 -0.040334
v 0.018620 0.069743 -0.038171
v 0.020812 0.066842 -0.053783
v 0.023107 0.068559 -0.050809
v 0.023913 0.070585 -0.047300
v 0.023107 0.072610 -0.043792
v 0.020812 0.074328 -0.040818
v 0.018620 0.071426 -0.056430
v 0.020242 0.074549 -0.054267
v 0.020812 0.077068 -0.051043
v 0.020242 0.078600 -0.047250
v 0.018620 0.078912 -0.043464
v -0.012937 0.073325 0.057526
v -0.012937 0.077029 0.055699
v -0.012937 0.079753 0.052594
v -0.012937 0.081081 0.048682
v -0.012937 0.080811 0.044560
v -0.012937 0.060359 0.050041
v -0.012937 0.060089 0.045919
v -0.012937 0.061416 0.042007
v -0.012937 0.064140 0.038902
v -0.012937 0.067845 0.037075
v -0.018620 0.062258 0.051137
v -0.020242 0.062570 0.047351
v -0.020812 0.064102 0.043558
v -0.020242 0.066621 0.040334
v -0.018620 0.069743 0.038171
v -0.020812 0.066842 0.053783
v -0.023107 0.068559 0.050809
v -0.023913 0.070585 0.047300
v -0.023107 0.072610 0.043792
v -0.020812 0.074328 0.040818
v -0.018620 0.071426 0.056430
v -0.020242 0.074549 0.054267
v -0.020812 0.077068 0.051043
v -0.020242 0.078600 0.047250
v -0.018620 0.078912 0.043464
v 0.012937 0.073325 0.057526
v 0.012937 0.077029 0.055699
v 0.012937 0.079753 0.052594
v 0.012937 0.081081 0.048682
v 0.012937 0.080811 0.044560
v 0.012937 0.060359 0.050041
v 0.012937 0.060089 0.045919
v 0.012937 0.061416 0.042007
v 0.012937 0.064140 0.038902
v 0.012937 0.067845 0.037075
v 0.018620 0.062258 0.051137
v 0.020242 0.062570 0.047351
v 0.020812 0.064102 0.043558
v 0.020242 0.066621 0.040334
v 0.018620 0.069743 0.038171
v 0.020812 0.066842 0.053783
v 0.023107 0.068559 0.050809
v 0.023913 0.070585 0.047300
v 0.023107 0.072610 0.043792
v 0.020812 0.074328 0.040818
v 0.018620 0.071426 0.056430
v 0.020242 0.074549 0.054267
v 0.020812 0.077068 0.051043
v 0.020242 0.078600 0.047250
v 0.018620 0.078912 0.043464
v -0.012937 0.135429 -0.050041
v -0.012937 0.135699 -0.045919
v -0.012937 0.134371 -0.042007
v -0.012937 0.131647 -0.038902
v -0.012937 0.127943 -0.037075
v -0.012937 0.122463 -0.057526
v -0.012937 0.118758 -0.055699
v -0.012937 0.116034 -0.052594
v -0.012937 0.114707 -0.048682
v -0.012937 0.114977 -0.044560
v -0.018620 0.124361 -0.056430
v -0.020242 0.121239 -0.054267
v -0.020812 0.118720 -0.051043
v -0.020242 0.117187 -0.047250
v -0.018620 0.116875 -0.043464
v -0.020812 0.128946 -0.053783
v -0.023107 0.127228 -0.050809
v -0.023913 0.125203 -0.047300
v -0.023107 0.123177 -0.043792
v -0.020812 0.121460 -0.040818
v -0.018620 0.133530 -0.051137
v -0.020242 0.133218 -0.047351
v -0.020812 0.131686 -0.043558
v -0.020242 0.129166 -0.040334
v -0.018620 0.126044 -0.038171
v 0.012937 0.135429 -0.050041
v 0.012937 0.135699 -0.045919
v 0.012937 0.134371 -0.042007
v 0.012937 0.131647 -0.038902
v 0.012937 0.127943 -0.037075
v 0.012937 0.122463 -0.057526
v 0.012937 0.118758 -0.055699
v 0.012937 0.116034 -0.052594
v 0.012937 0.114707 -0.048682
v 0.012937 0.114977 -0.044560
v 0.018620 0.124361 -0.056430
v 0.020242 0.121239 -0.054267
v 0.020812 0.118720 -0.051043
v 0.020242 0.117187 -0.047250
v 0.018620 0.116875 -0.043464
v 0.020812 0.128946 -0.053783
v 0.023107 0.127228 -0.050809
v 0.023913 0.125203 -0.047300
v 0.023107 0.123177 -0.043792
v 0.020812 0.121460 -0.040818
v 0.018620 0.133530 -0.051137
v 0.020242 0.133218 -0.047351
v 0.020812 0.131686 -0.043558
v 0.020242 0.129166 -0.040334
v 0.018620 0.126044 -0.038171
v -0.000000 0.048014 -0.146241
v 0.015692 0.000000 -0.116538
v -0.000000 0.048014 0.146241
v 0.011096 0.000000 -0.105443
v -0.000000 0.000000 -0.100846
v 0.011096 0.000000 -0.127634
v 0.015692 -0.000000 0.116470
v -0.011096 0.000000 -0.127634
v -0.011096 -0.000000 0.127565
v -0.000000 0.000000 -0.132230
v 0.011096 -0.000000 0.105374
v -0.000000 -0.000000 0.100778
v -0.011096 -0.000000 0.105374
v -0.015692 -0.000000 0.116470
v -0.000000 -0.000000 0.132161
v 0.015692 0.045096 -0.116538
v 0.018851 0.048014 -0.116538
v -0.018851 0.048014 -0.116538
v -0.015692 0.045096 -0.116538
v -0.000000 0.045095 0.100778
v -0.000000 0.048014 0.097619
v -0.013330 0.048014 0.103140
v -0.011096 0.045095 0.105374
v -0.018851 0.048014 0.116470
v -0.015692 0.045095 0.116470
v -0.013330 0.048014 0.129799
v -0.011096 0.045095 0.127565
v -0.000000 0.048014 0.135321
v -0.000000 0.045095 0.132161
v 0.013330 0.048014 0.129799
v 0.011096 0.045095 0.127565
v 0.018851 0.048014 0.116470
v 0.015692 0.045095 0.116470
v 0.013330 0.048014 0.103140
v 0.011096 0.045095 0.105374
v -0.000000 0.045096 -0.132230
v -0.000000 0.048014 -0.135389
v -0.013330 0.048014 -0.129868
v -0.011096 0.045096 -0.127634
v -0.013330 0.048014 -0.103209
v -0.011096 0.045096 -0.105443
v -0.000000 0.048014 -0.097687
v -0.000000 0.045096 -0.100846
v 0.011096 0.045096 -0.105443
v 0.013330 0.048014 -0.103209
v 0.013330 0.048014 -0.129868
v 0.011096 0.045096 -0.127634
vn 1.0000 -0.0000 -0.0000
vn -0.6229 -0.0000 -0.7823
vn -0.0000 -1.0000 -0.0000
vn -0.0000 -0.0000 1.0000
vn -0.0000 -0.5000 0.8660
vn -1.0000 -0.0000 -0.0000
vn -0.0000 0.8660 0.5000
vn -0.0000 -0.8660 -0.5000
vn -0.0000 0.8660 -0.5000
vn -0.0000 0.5000 0.8660
vn -0.0000 0.5000 -0.8660
vn -0.0000 -0.0000 -1.0000
vn -0.0000 -0.8660 0.5000
vn -0.0000 1.0000 -0.0000
vn -0.0000 -0.5000 -0.8660
vn 0.7071 0.3536 -0.6124
vn -0.7071 0.3536 -0.6124
vn 0.7071 0.6124 -0.3536
vn -0.7071 0.6124 -0.3536
vn 0.7071 0.7071 -0.0000
vn -0.7071 0.7071 -0.0000
vn 0.7071 0.6124 0.3536
vn -0.7071 0.6124 0.3536
vn 0.7071 0.3536 0.6124
vn -0.7071 0.3536 0.6124
vn 0.7071 -0.0000 0.7071
vn -0.7071 -0.0000 0.7071
vn 0.7071 -0.3536 0.6124
vn -0.7071 -0.3536 0.6124
vn 0.7071 -0.6124 0.3536
vn -0.7071 -0.6124 0.3536
vn 0.7071 -0.7071 -0.0000
vn -0.7071 -0.7071 -0.0000
vn 0.7071 -0.6124 -0.3536
vn -0.7071 -0.6124 -0.3536
vn 0.7071 -0.3536 -0.6124
vn -0.7071 -0.3536 -0.6124
vn 0.7071 -0.0000 -0.7071
vn -0.7071 -0.0000 -0.7071
vn 0.6580 -0.3765 0.6521
vn -0.6580 -0.3765 0.6521
vn 0.6580 -0.6521 0.3765
vn -0.6580 -0.6521 0.3765
vn 0.6580 -0.7530 -0.0000
vn -0.6580 -0.7530 -0.0000
vn 0.6580 -0.6521 -0.3765
vn -0.6580 -0.6521 -0.3765
vn 0.6580 -0.3765 -0.6521
vn -0.6580 -0.3765 -0.6521
vn 0.6580 -0.0000 -0.7530
vn -0.6580 -0.0000 -0.7530
vn 0.6580 0.3765 -0.6521
vn -0.6580 0.3765 -0.6521
vn 0.6580 0.6521 -0.3765
vn -0.6580 0.6521 -0.3765
vn 0.6580 0.7530 -0.0000
vn -0.6580 0.7530 -0.0000
vn 0.6580 0.6521 0.3765
vn -0.6580 0.6521 0.3765
vn 0.6580 0.3765 0.6521
vn -0.6580 0.3765 0.6521
vn 0.6580 -0.0000 0.7530
vn -0.6580 -0.0000 0.7530
vn -0.7048 0.0018 -0.7094
vn 0.5171 0.7312 -0.4449
vn 0.9239 -0.1913 0.3314
vn -0.2849 -0.2344 -0.9295
vn -0.3827 -0.4619 0.8001
vn -0.9239 0.1913 -0.3314
vn 0.9239 0.1913 -0.3314
vn 0.3827 -0.4619 0.8001
vn -0.9239 -0.1913 0.3314
vn -0.3827 0.4619 -0.8001
vn 0.3827 0.4619 -0.8001
vn 0.2849 -0.2344 -0.9295
vn 0.6877 -0.7207 -0.0872
vn -0.2849 -0.9221 0.2617
vn -0.6877 -0.4358 -0.5806
vn 0.6877 -0.4358 -0.5806
vn 0.2849 -0.9221 0.2617
vn -0.6877 -0.7207 -0.0872
vn -0.2706 0.9390 -0.2122
vn -0.6533 0.7477 0.1192
vn -0.6533 0.4771 0.5879
vn -0.2706 0.2857 0.9193
vn 0.2706 0.2857 0.9193
vn 0.6533 0.4771 0.5879
vn 0.6533 0.7477 0.1192
vn 0.2706 0.9390 -0.2122
vn -0.3682 -0.2082 0.9062
vn -0.8888 0.4203 -0.1825
vn 0.3682 0.6807 -0.6334
vn 0.8888 0.0522 0.4552
vn -0.8888 0.0522 0.4552
vn -0.3682 0.6807 -0.6334
vn 0.8888 0.4203 -0.1825
vn 0.3682 -0.2082 0.9061
vn 0.7580 -0.0000 -0.6522
vn 0.6229 -0.0000 0.7823
vn 0.6229 -0.0000 -0.7823
vn 0.7580 -0.0000 0.6522
vn -0.7580 -0.0000 0.6522
vn -0.7580 -0.0000 -0.6522
vn -0.7041 -0.0034 -0.7101
vn 0.7041 -0.0034 -0.7101
vn -0.7036 -0.0034 0.7106
vn 0.7036 -0.0034 0.7106
vn -0.7006 -0.0003 0.7136
vn -0.7016 -0.0003 -0.7126
vn 0.7016 -0.0003 -0.7126
vn 0.7006 -0.0003 0.7136
vn -0.5171 0.7312 -0.4449
vn -0.0000 0.7580 -0.6522
vn -0.0000 0.7580 0.6522
vn 0.6847 0.7288 0.0001
vn -0.3088 -0.5252 0.7930
vn -0.3597 0.1807 0.9154
vn -0.3597 -0.1807 0.9154
vn -0.3088 0.5252 0.7930
vn -0.7862 -0.5253 0.3256
vn -0.9087 0.1807 0.3764
vn -0.9087 -0.1807 0.3764
vn -0.7862 0.5253 0.3256
vn -0.9087 -0.1807 -0.3764
vn -0.7862 0.5253 -0.3256
vn -0.7862 -0.5253 -0.3256
vn -0.9087 0.1807 -0.3764
vn -0.3597 -0.1807 -0.9154
vn -0.3088 0.5252 -0.7930
vn -0.3088 -0.5252 -0.7930
vn -0.3597 0.1807 -0.9154
vn 0.3088 -0.5252 0.7930
vn 0.3597 0.1807 0.9154
vn 0.3597 -0.1807 0.9154
vn 0.3088 0.5252 0.7930
vn 0.7862 -0.5253 0.3256
vn 0.9087 0.1807 0.3764
vn 0.9087 -0.1807 0.3764
vn 0.7862 0.5253 0.3256
vn 0.9087 -0.1807 -0.3764
vn 0.7862 0.5253 -0.3256
vn 0.7862 -0.5253 -0.3256
vn 0.9087 0.1807 -0.3764
vn 0.3597 -0.1807 -0.9154
vn 0.3088 0.5252 -0.7930
vn 0.3088 -0.5252 -0.7930
vn 0.3597 0.1807 -0.9154
vn -0.3088 -0.9493 -0.0584
vn -0.3597 -0.7024 0.6142
vn -0.3597 -0.8831 0.3012
vn -0.3088 -0.4241 0.8513
vn -0.7862 -0.5447 -0.2921
vn -0.9087 -0.2356 0.3447
vn -0.9087 -0.4163 0.0317
vn -0.7862 -0.0194 0.6177
vn -0.9087 0.2356 -0.3447
vn -0.7862 0.5447 0.2921
vn -0.7862 0.0194 -0.6177
vn -0.9087 0.4163 -0.0317
vn -0.3597 0.7024 -0.6142
vn -0.3088 0.9493 0.0584
vn -0.3088 0.4241 -0.8513
vn -0.3597 0.8831 -0.3012
vn 0.3088 -0.9493 -0.0584
vn 0.3597 -0.7024 0.6142
vn 0.3597 -0.8831 0.3012
vn 0.3088 -0.4241 0.8513
vn 0.7861 -0.5447 -0.2921
vn 0.9087 -0.2356 0.3447
vn 0.9087 -0.4163 0.0317
vn 0.7862 -0.0194 0.6177
vn 0.9087 0.2356 -0.3447
vn 0.7861 0.5447 0.2921
vn 0.7862 0.0194 -0.6177
vn 0.9087 0.4163 -0.0317
vn 0.3597 0.7024 -0.6142
vn 0.3088 0.9493 0.0584
vn 0.3088 0.4241 -0.8513
vn 0.3597 0.8831 -0.3012
vn -0.3088 0.9493 0.0583
vn 0.7862 -0.5447 -0.2921
vn 0.7862 0.5447 0.2921
vn -0.3088 -0.4241 -0.8513
vn -0.3597 -0.8831 -0.3012
vn -0.3597 -0.7024 -0.6142
vn -0.3088 -0.9493 0.0583
vn -0.7862 -0.0194 -0.6177
vn -0.9087 -0.4163 -0.0317
vn -0.9087 -0.2356 -0.3447
vn -0.7862 -0.5447 0.2921
vn -0.9087 0.4163 0.0317
vn -0.7862 0.0194 0.6177
vn -0.7862 0.5447 -0.2921
vn -0.9087 0.2356 0.3447
vn -0.3597 0.8831 0.3012
vn -0.3088 0.4241 0.8513
vn -0.3088 0.9493 -0.0584
vn -0.3597 0.7024 0.6142
vn 0.3088 -0.4241 -0.8513
vn 0.3597 -0.8831 -0.3012
vn 0.3597 -0.7024 -0.6142
vn 0.3088 -0.9493 0.0583
vn 0.7862 -0.0194 -0.6177
vn 0.9087 -0.4163 -0.0317
vn 0.9087 -0.2356 -0.3447
vn 0.7862 -0.5447 0.2921
vn 0.9087 0.4163 0.0317
vn 0.7862 0.0194 0.6177
vn 0.7862 0.5447 -0.2921
vn 0.9087 0.2356 0.3447
vn 0.3597 0.8831 0.3012
vn 0.3088 0.4241 0.8513
vn 0.3088 0.9493 -0.0584
vn 0.3597 0.7024 0.6142
vn -0.3088 0.9493 -0.0583
vn 0.3088 0.9493 -0.0583
vn 0.6845 0.7290 -0.0001
vn -0.6845 0.7290 -0.0001
vn 0.5171 0.7312 0.4449
vn -0.5171 0.7312 0.4449
vn 0.7039 0.0018 0.7103
vn -0.7039 0.0018 0.7103
vn 0.7048 0.0018 -0.7094
vn -0.6229 -0.0000 0.7823
vn -0.6847 0.7288 0.0001
vn -0.6533 0.7071 0.2706
vn -0.6533 0.7071 -0.2706
vn 0.2706 0.7071 0.6533
vn 0.6533 0.7071 0.2706
vn 0.6533 0.7071 -0.2706
vn 0.2706 0.7071 -0.6533
vn -0.2706 0.7071 -0.6533
vn -0.2706 0.7071 0.6533
vn -0.9239 -0.0000 0.3827
vn -0.9239 -0.0000 -0.3827
vn 0.9239 -0.0000 -0.3827
vn 0.9239 -0.0000 0.3827
vn -0.3827 -0.0000 0.9239
vn 0.3827 -0.0000 0.9239
vn 0.3827 -0.0000 -0.9239
vn -0.3827 -0.0000 -0.9239
vt 0.434113 0.585204
vt 0.482554 0.585204
vt 0.870000 0.042154
vt 0.350596 0.047583
vt 0.434113 0.914796
vt 0.349504 0.422347
vt 0.250000 0.449009
vt 0.150496 0.422347
vt 0.000000 0.000000
vt 0.265979 0.290159
vt 0.229822 0.241715
vt 0.949009 0.250000
vt 0.922346 0.349504
vt 0.957846 0.370000
vt 0.990000 0.250000
vt 0.422347 0.349504
vt 0.449009 0.250000
vt 0.490000 0.250000
vt 0.457846 0.370000
vt 0.922346 0.150496
vt 0.979282 0.210000
vt 0.968564 0.170000
vt 0.957846 0.130000
vt 0.422347 0.150496
vt 0.457846 0.130000
vt 0.468564 0.170000
vt 0.479282 0.210000
vt 0.849504 0.077654
vt 0.349504 0.077654
vt 0.370000 0.042154
vt 0.056928 0.250000
vt 0.082795 0.153464
vt 0.846536 0.082795
vt 0.750000 0.056928
vt 0.577653 0.150496
vt 0.550991 0.250000
vt 0.849504 0.422347
vt 0.050991 0.250000
vt 0.077654 0.150496
vt 0.750000 0.050991
vt 0.577654 0.349504
vt 0.250000 0.050991
vt 0.077654 0.349504
vt 0.650496 0.077654
vt 0.650496 0.422347
vt 0.150496 0.077654
vt 0.750000 0.449009
vt 0.153464 0.417205
vt 0.250000 0.443072
vt 0.750000 0.443072
vt 0.653464 0.417205
vt 0.082795 0.346536
vt 0.582795 0.346536
vt 0.556928 0.250000
vt 0.582794 0.153464
vt 0.153464 0.082795
vt 0.653464 0.082795
vt 0.250000 0.056928
vt 0.346536 0.082795
vt 0.417205 0.153464
vt 0.917205 0.153464
vt 0.443072 0.250000
vt 0.943072 0.250000
vt 0.417205 0.346536
vt 0.917205 0.346536
vt 0.346536 0.417205
vt 0.846536 0.417205
vt 0.661381 0.403493
vt 0.750000 0.427239
vt 0.838619 0.403493
vt 0.161381 0.403493
vt 0.250000 0.427239
vt 0.096507 0.338619
vt 0.596507 0.338619
vt 0.072761 0.250000
vt 0.572761 0.250000
vt 0.096507 0.161381
vt 0.596507 0.161381
vt 0.161381 0.096507
vt 0.661381 0.096507
vt 0.250000 0.072761
vt 0.750000 0.072761
vt 0.338619 0.096507
vt 0.838619 0.096507
vt 0.403493 0.161381
vt 0.903493 0.161381
vt 0.427239 0.250000
vt 0.927238 0.250000
vt 0.403493 0.338619
vt 0.903493 0.338619
vt 0.338619 0.403493
vt 0.179302 0.372452
vt 0.250000 0.391395
vt 0.750000 0.391395
vt 0.679302 0.372452
vt 0.127548 0.320698
vt 0.627548 0.320698
vt 0.108605 0.250000
vt 0.608605 0.250000
vt 0.127548 0.179302
vt 0.627548 0.179302
vt 0.179302 0.127548
vt 0.679302 0.127548
vt 0.250000 0.108605
vt 0.750000 0.108605
vt 0.320698 0.127548
vt 0.820698 0.127548
vt 0.372452 0.179302
vt 0.872452 0.179302
vt 0.391395 0.250000
vt 0.891395 0.250000
vt 0.372452 0.320698
vt 0.872452 0.320698
vt 0.320698 0.372452
vt 0.820697 0.372452
vt 0.182285 0.367286
vt 0.250000 0.385430
vt 0.750000 0.391395
vt 0.750000 0.385430
vt 0.682285 0.367286
vt 0.127548 0.320698
vt 0.132714 0.317715
vt 0.627548 0.320698
vt 0.632714 0.317715
vt 0.114570 0.250000
vt 0.608605 0.250000
vt 0.614570 0.250000
vt 0.132714 0.182285
vt 0.632714 0.182285
vt 0.179302 0.127548
vt 0.182285 0.132714
vt 0.682285 0.132714
vt 0.250000 0.114570
vt 0.750000 0.108605
vt 0.750000 0.114570
vt 0.317715 0.132714
vt 0.817715 0.132714
vt 0.367286 0.182285
vt 0.867286 0.182285
vt 0.391395 0.250000
vt 0.385430 0.250000
vt 0.891395 0.250000
vt 0.885430 0.250000
vt 0.367286 0.317715
vt 0.867286 0.317715
vt 0.317715 0.367286
vt 0.817715 0.367286
vt 0.250000 0.362611
vt 0.193694 0.347524
vt 0.213966 0.342358
vt 0.267289 0.356646
vt 0.693694 0.347524
vt 0.750000 0.362611
vt 0.732711 0.356646
vt 0.679388 0.342358
vt 0.152476 0.306306
vt 0.174931 0.303323
vt 0.652476 0.306306
vt 0.640353 0.303323
vt 0.137389 0.250000
vt 0.160643 0.250000
vt 0.637389 0.250000
vt 0.626065 0.250000
vt 0.152476 0.193694
vt 0.174931 0.196677
vt 0.652476 0.193694
vt 0.640353 0.196677
vt 0.193694 0.152476
vt 0.213966 0.157642
vt 0.693694 0.152476
vt 0.679388 0.157642
vt 0.250000 0.137389
vt 0.267289 0.143354
vt 0.750000 0.137389
vt 0.732711 0.143354
vt 0.306306 0.152476
vt 0.320612 0.157642
vt 0.806306 0.152476
vt 0.786034 0.157642
vt 0.347524 0.193694
vt 0.359647 0.196677
vt 0.847524 0.193694
vt 0.825069 0.196677
vt 0.362611 0.250000
vt 0.373935 0.250000
vt 0.862611 0.250000
vt 0.839357 0.250000
vt 0.347524 0.306306
vt 0.359647 0.303323
vt 0.847524 0.306306
vt 0.825069 0.303323
vt 0.306306 0.347524
vt 0.320612 0.342358
vt 0.806306 0.347524
vt 0.786034 0.342358
vt 0.277345 0.137323
vt 0.429444 0.211233
vt 0.335523 0.189699
vt 0.267470 0.145893
vt 0.334158 0.330721
vt 0.324043 0.347615
vt 0.276449 0.276554
vt 0.267827 0.003660
vt 0.265662 0.003660
vt 0.183013 0.003660
vt 0.100364 0.003660
vt 0.098198 0.003660
vt 0.982554 0.585204
vt 0.982554 0.914796
vt 0.934113 0.914796
vt 0.934113 0.585204
vt 0.482554 0.914796
vt 0.167583 0.047583
vt 0.179352 0.091506
vt 0.128294 0.028328
vt 0.095656 0.008766
vt 0.150790 0.276554
vt 0.150790 0.301581
vt 0.217649 0.002902
vt 0.213672 0.003016
vt 0.216912 0.005569
vt 0.276449 0.175817
vt 0.276449 0.150790
vt 0.150790 0.175817
vt 0.276449 0.150790
vt 0.353984 0.366625
vt 0.075395 0.003016
vt 0.075395 0.003016
vt 0.750000 0.490000
vt 0.870000 0.457846
vt 0.867608 0.448920
vt 0.750000 0.480974
vt 0.914018 0.969263
vt 1.004109 0.971439
vt 0.998433 1.000000
vt 0.928799 1.000394
vt 0.750000 0.010000
vt 0.630000 0.042154
vt 0.634513 0.049971
vt 0.786803 0.017632
vt 0.130000 0.042154
vt 0.250000 0.010000
vt 0.267974 0.017632
vt 0.134513 0.049971
vt 0.542154 0.130000
vt 0.549971 0.134513
vt 0.042154 0.130000
vt 0.049971 0.134513
vt 0.526077 0.190000
vt 0.510000 0.250000
vt 0.519026 0.250000
vt 0.534498 0.192256
vt 0.026077 0.190000
vt 0.034498 0.192256
vt 0.542154 0.370000
vt 0.549971 0.365487
vt 0.042154 0.370000
vt 0.010000 0.250000
vt 0.019026 0.250000
vt 0.049971 0.365487
vt 0.630000 0.457846
vt 0.634513 0.450029
vt 0.130000 0.457846
vt 0.134513 0.450029
vt 0.250000 0.490000
vt 0.250000 0.480974
vt 0.363138 0.009389
vt 0.270754 0.018568
vt 0.915011 0.530737
vt 0.335523 0.194295
vt 0.428316 0.210894
vt 1.009250 0.527818
vt 0.353762 0.366618
vt 0.335523 0.354743
vt 0.091506 0.003660
vt 0.132952 0.009389
vt 0.364791 0.009496
vt 0.335456 0.191770
vt 0.335444 0.216742
vt 0.186777 0.347353
vt 0.183013 0.366025
vt 0.335523 0.359339
vt 0.334801 0.273732
vt 0.183013 0.335147
vt 0.183013 0.275987
vt 0.183013 0.216828
vt 0.414612 0.528561
vt 0.414612 0.971439
vt 0.333333 0.971439
vt 0.333333 0.750000
vt 0.333333 0.528561
vt 0.291667 0.750000
vt 0.291667 0.528561
vt 0.291667 0.971439
vt 0.250000 0.750000
vt 0.250000 0.528561
vt 0.250000 0.971439
vt 0.166667 0.971439
vt 0.166667 0.528561
vt 0.083333 0.971439
vt 0.083333 0.528561
vt 0.000000 0.971439
vt 0.000000 0.528561
vt 1.003082 0.528561
vt 0.367608 0.448920
vt 0.502210 0.969233
vt 0.502210 0.530767
vt 0.183013 0.194306
vt 0.295757 0.319700
vt 0.267470 0.291786
vt 0.486327 0.236291
vt 0.482955 0.223709
vt 0.972237 0.183709
vt 0.972237 0.183709
vt 0.982956 0.223709
vt 0.986327 0.236291
vt 0.750000 1.000000
vt 0.666667 1.000000
vt 0.666667 0.500000
vt 0.694445 0.500000
vt 0.722222 0.500000
vt 0.750000 0.500000
vt 0.961519 0.143709
vt 0.961520 0.143709
vt 0.975609 0.196291
vt 0.964891 0.156291
vt 0.982955 0.223709
vt 0.975609 0.196291
vt 0.964891 0.156291
vt 0.486327 0.236291
vt 0.464891 0.156291
vt 0.472237 0.183709
vt 0.475609 0.196291
vt 0.461520 0.143709
vt 0.472237 0.183709
vt 0.461520 0.143709
vt 0.482955 0.223709
vt 0.475609 0.196291
vt 0.250000 0.250000
vt 0.250000 0.375000
vt 0.125000 0.375000
vt 0.125000 0.250000
vt 0.250000 0.500000
vt 0.250000 0.625000
vt 0.125000 0.625000
vt 0.125000 0.500000
vt 0.250000 0.750000
vt 0.125000 0.750000
vt 0.000000 0.375000
vt 0.000000 0.250000
vt 0.000000 0.625000
vt 0.000000 0.500000
vt 0.000000 0.750000
vt 1.000000 0.375000
vt 1.000000 0.500000
vt 0.875000 0.500000
vt 0.875000 0.375000
vt 1.000000 0.625000
vt 1.000000 0.750000
vt 0.875000 0.750000
vt 0.875000 0.625000
vt 1.000000 0.250000
vt 0.875000 0.250000
vt 0.750000 0.500000
vt 0.750000 0.375000
vt 0.750000 0.750000
vt 0.750000 0.625000
vt 0.750000 0.250000
vt 0.100401 0.003660
vt 0.100438 0.003660
vt 0.260508 0.003535
vt 0.239673 0.003227
vt 0.218839 0.002918
vt 0.183013 0.363063
vt 0.251840 0.003645
vt 0.072946 0.002918
vt 0.335523 0.357174
vt 0.335523 0.274519
vt 0.335523 0.191864
vt 0.335490 0.191817
vt 0.329783 0.352395
vt 0.331259 0.270913
vt 0.330056 0.305425
vt 0.330903 0.320889
vt 0.333314 0.308190
vt 0.334560 0.273714
vt 0.334679 0.238295
vt 0.334370 0.223323
vt 0.333298 0.237122
vt 0.182587 0.003650
vt 0.263085 0.003598
vt 0.231169 0.003610
vt 0.217540 0.003636
vt 0.132316 0.003648
vt 0.147139 0.003651
vt 0.188815 0.003652
vt 0.182511 0.003614
vt 0.217567 0.003601
vt 0.125791 0.003659
vt 0.147043 0.003636
s 0
usemtl M_Anthracite_Steel
f 46/1/1 45/2/1 378/2/1 379/1/1
f 39/3/2 387/4/2 393/4/2 389/3/2
f 48/5/3 46/1/3 379/1/3 380/5/3
f 4/6/4 2/7/4 65/7/4 87/6/4
f 2/7/5 24/8/5 66/8/5 65/7/5
f 401/9/1 467/10/1 458/11/1
f 7/12/6 5/13/6 37/14/6 32/15/6
f 6/16/1 8/17/1 31/18/1 38/19/1
f 9/20/6 7/12/6 32/15/6 473/21/6 474/22/6 28/23/6
f 8/17/1 10/24/1 27/25/1 475/26/1 476/27/1 31/18/1
f 11/28/6 9/20/6 28/23/6 39/3/6
f 10/24/1 12/29/1 44/30/1 27/25/1
f 17/35/8 19/36/8 72/36/8 74/35/8
f 12/29/9 10/24/9 81/24/9 79/29/9
f 3/37/10 5/13/10 86/13/10 88/37/10
f 20/38/8 18/39/8 73/39/8 71/38/8
f 11/28/11 13/40/11 78/40/11 80/28/11
f 6/16/10 4/6/10 87/6/10 85/16/10
f 19/36/3 21/41/3 70/41/3 72/36/3
f 14/42/11 12/29/11 79/29/11 77/42/11
f 5/13/7 7/12/7 84/12/7 86/13/7
f 22/43/3 20/38/3 71/38/3 69/43/3
f 13/40/12 15/44/12 76/44/12 78/40/12
f 8/17/7 6/16/7 85/16/7 83/17/7
f 21/41/13 23/45/13 67/45/13 70/41/13
f 16/46/12 14/42/12 77/42/12 75/46/12
f 7/12/14 9/20/14 82/20/14 84/12/14
f 24/8/13 22/43/13 69/43/13 66/8/13
f 15/44/15 17/35/15 74/35/15 76/44/15
f 10/24/14 8/17/14 83/17/14 81/24/14
f 23/45/5 1/47/5 68/47/5 67/45/5
f 1/47/4 3/37/4 88/37/4 68/47/4
f 18/39/15 16/46/15 75/46/15 73/39/15
f 9/20/9 11/28/9 80/28/9 82/20/9
f 138/92/1 137/93/1 161/72/1 162/71/1
f 140/94/6 139/95/6 163/68/6 164/69/6
f 141/96/1 138/92/1 162/71/1 165/73/1
f 139/95/6 142/97/6 166/74/6 163/68/6
f 143/98/1 141/96/1 165/73/1 167/75/1
f 142/97/6 144/99/6 168/76/6 166/74/6
f 145/100/1 143/98/1 167/75/1 169/77/1
f 144/99/6 146/101/6 170/78/6 168/76/6
f 147/102/1 145/100/1 169/77/1 171/79/1
f 146/101/6 148/103/6 172/80/6 170/78/6
f 149/104/1 147/102/1 171/79/1 173/81/1
f 148/103/6 150/105/6 174/82/6 172/80/6
f 151/106/1 149/104/1 173/81/1 175/83/1
f 150/105/6 152/107/6 176/84/6 174/82/6
f 153/108/1 151/106/1 175/83/1 177/85/1
f 152/107/6 154/109/6 178/86/6 176/84/6
f 155/110/1 153/108/1 177/85/1 179/87/1
f 154/109/6 156/111/6 180/88/6 178/86/6
f 157/112/1 155/110/1 179/87/1 181/89/1
f 156/111/6 158/113/6 182/90/6 180/88/6
f 159/114/1 157/112/1 181/89/1 183/91/1
f 158/113/6 160/115/6 184/70/6 182/90/6
f 137/93/1 159/114/1 183/91/1 161/72/1
f 160/115/6 140/94/6 164/69/6 184/70/6
f 457/196/64 448/197/64 449/198/64 292/199/64
f 468/200/65 294/201/65 467/10/65 469/202/65
f 834/9/3 402/9/3 403/9/3
f 453/203/4 297/204/4 295/205/4 296/206/4 454/207/4
f 310/9/7 309/9/7 318/9/7 317/9/7
f 311/9/7 310/9/7 317/9/7 319/9/7
f 312/9/7 311/9/7 319/9/7 320/9/7
f 313/9/7 312/9/7 320/9/7 321/9/7
f 314/9/7 313/9/7 321/9/7 322/9/7
f 315/9/7 314/9/7 322/9/7 323/9/7
f 316/9/7 315/9/7 323/9/7 324/9/7
f 309/9/7 316/9/7 324/9/7 318/9/7
f 35/210/14 34/211/14 374/211/14 375/210/14
f 36/209/6 35/210/6 375/210/6 376/209/6
f 47/212/6 48/5/6 380/5/6 377/212/6
f 45/2/14 47/212/14 377/212/14 378/2/14
f 33/208/3 36/209/3 376/209/3 373/208/3
f 34/211/1 33/208/1 373/208/1 374/211/1
f 27/25/1 44/30/1 386/213/1 383/25/1
f 387/4/6 39/3/6 28/23/6 384/23/6
f 385/214/1 38/19/1 31/18/1 381/18/1
f 467/10/98 401/9/98 400/9/98 469/202/98
f 38/19/99 385/214/99 395/214/99 391/19/99
f 44/30/100 392/30/100 394/213/100 386/213/100
f 392/30/1 455/215/1 460/216/1 394/213/1
f 390/14/6 448/197/6 457/196/6 396/9/6
f 302/9/3 397/9/3 388/9/3
f 828/9/3 832/9/3 401/9/3 395/9/3 385/9/3 831/9/3 830/9/3
f 471/217/101 388/9/101 397/9/101 472/218/101
f 461/219/102 399/9/102 398/9/102 463/220/102
f 456/221/6 393/4/6 399/9/6 461/219/6
f 465/222/103 403/9/103 402/9/103 466/223/103
f 388/9/4 471/217/4 463/224/4 398/9/4
f 465/222/12 469/202/12 400/9/12 403/9/12
f 396/9/6 457/225/6 466/223/6 402/9/6
f 401/9/1 458/11/1 451/226/1 391/19/1 395/214/1
f 394/213/1 460/227/1 472/228/1 397/9/1
f 425/229/104 426/230/104 427/231/104 424/232/104
f 429/233/105 430/234/105 431/235/105 428/236/105
f 435/237/106 436/238/106 437/239/106 434/240/106
f 439/241/107 432/242/107 433/243/107 438/244/107
f 436/238/25 404/245/25 405/246/25 437/239/25
f 407/247/24 439/241/24 438/244/24 406/248/24
f 421/249/23 408/250/23 409/251/23 420/252/23
f 423/253/22 407/247/22 406/248/22 422/254/22
f 408/250/21 412/255/21 413/256/21 409/251/21
f 415/257/20 410/258/20 411/259/20 414/260/20
f 412/255/19 416/261/19 417/262/19 413/256/19
f 419/263/18 415/257/18 414/260/18 418/264/18
f 416/261/17 425/229/17 424/232/17 417/262/17
f 430/265/16 419/263/16 418/264/16 431/266/16
f 404/245/23 421/249/23 420/252/23 405/246/23
f 410/258/22 423/253/22 422/254/22 411/259/22
f 434/240/108 440/267/108 441/268/108 435/237/108
f 426/269/109 442/270/109 443/271/109 427/272/109
f 428/236/110 444/273/110 445/274/110 429/233/110
f 432/242/111 446/275/111 447/276/111 433/243/111
f 440/267/14 452/277/14 453/203/14 441/268/14
f 293/278/112 464/279/112 465/222/112 466/223/112
f 446/280/14 454/207/14 455/215/14 447/281/14
f 444/273/14 451/226/14 450/282/14 445/274/14
f 442/270/14 449/198/14 448/197/14 443/271/14
f 464/279/113 827/283/113 468/200/113 469/202/113 465/222/113
f 470/284/114 829/285/114 462/286/114 463/224/114 471/217/114
f 17/35/6 15/44/6 437/239/6 405/246/6
f 19/36/6 17/35/6 405/246/6 420/252/6 409/251/6
f 436/287/10 439/288/10 407/289/10 281/290/10 404/291/10
f 404/291/7 281/290/7 283/292/7 421/293/7
f 16/46/1 18/39/1 406/248/1 438/244/1
f 281/290/7 407/289/7 423/294/7 283/292/7
f 18/39/1 20/38/1 411/259/1 422/254/1 406/248/1
f 421/293/7 283/292/7 282/295/7 408/296/7
f 408/296/14 282/295/14 410/297/14 415/298/14 412/299/14
f 21/41/6 19/36/6 409/251/6 413/256/6
f 20/38/1 22/43/1 414/260/1 411/259/1
f 283/292/7 423/294/7 410/297/7 282/295/7
f 412/299/9 415/298/9 419/300/9 416/301/9
f 23/45/6 21/41/6 413/256/6 417/262/6
f 22/43/1 24/8/1 418/264/1 414/260/1
f 416/301/11 419/300/11 430/302/11 425/303/11
f 1/47/6 23/45/6 417/262/6 424/232/6
f 24/8/1 2/7/1 431/266/1 418/264/1
f 33/208/12 34/211/12 426/269/12 425/304/12
f 3/37/6 1/47/6 424/232/6 427/231/6
f 36/209/12 33/208/12 425/304/12 430/234/12
f 5/13/6 3/37/6 427/231/6 37/14/6
f 34/211/12 35/210/12 429/233/12 426/269/12
f 426/269/12 429/233/12 445/274/12 442/270/12
f 427/272/6 443/271/6 37/14/6
f 35/210/12 36/209/12 430/234/12 429/233/12
f 2/7/1 4/6/1 428/305/1 431/266/1
f 444/273/1 428/236/1 38/19/1
f 4/6/1 6/16/1 38/19/1 428/305/1
f 447/276/1 44/30/1 433/243/1
f 12/29/1 14/42/1 433/243/1 44/30/1
f 48/5/4 47/212/4 432/306/4 439/288/4
f 14/42/1 16/46/1 438/244/1 433/243/1
f 47/212/4 45/2/4 435/307/4 432/306/4
f 441/308/4 446/280/4 432/306/4 435/307/4
f 440/267/6 434/240/6 39/3/6
f 15/44/6 13/40/6 434/240/6 437/239/6
f 13/40/6 11/28/6 39/3/6 434/240/6
f 45/2/4 46/1/4 436/287/4 435/307/4
f 46/1/4 48/5/4 439/288/4 436/287/4
f 452/277/14 440/267/14 39/3/14 389/3/14
f 454/207/14 446/280/14 441/268/14 453/203/14
f 443/271/14 448/197/14 390/14/14 37/14/14
f 449/198/14 442/270/14 445/274/14 450/282/14
f 451/226/14 444/273/14 38/19/14 391/19/14
f 447/276/14 455/215/14 392/30/14 44/30/14
f 467/10/115 294/201/115 308/309/115 307/310/115 458/11/115
f 393/4/6 456/221/6 452/277/6 389/3/6
f 491/311/3 492/312/3 515/312/3 516/311/3
f 486/313/12 483/314/12 508/314/12 509/313/12
f 487/315/3 488/316/3 511/316/3 512/315/3
f 381/317/3 383/318/3 384/319/3 478/320/3 477/321/3 382/322/3
f 482/323/12 479/324/12 504/324/12 505/323/12
f 483/314/3 484/325/3 507/325/3 508/314/3
f 479/324/3 480/326/3 503/326/3 504/324/3
f 28/23/6 474/22/6 480/326/6 479/324/6
f 490/327/6 485/328/6 484/325/6 487/315/6
f 478/22/6 384/23/6 482/323/6 481/329/6
f 384/23/6 28/23/6 479/324/6 482/323/6
f 474/22/6 473/21/6 484/325/6 483/314/6
f 483/314/6 480/326/6 474/22/6
f 477/21/6 478/22/6 486/313/6 485/328/6
f 485/328/6 490/327/6 477/21/6
f 473/21/6 32/15/6 488/316/6 487/315/6
f 32/15/6 382/15/6 489/316/6 488/316/6
f 382/15/6 477/21/6 490/327/6 489/316/6
f 381/18/1 31/18/1 491/311/1 494/330/1
f 499/331/1 496/332/1 495/333/1 492/312/1 491/311/1 31/18/1 476/27/1 475/26/1 27/25/1 500/334/1
f 497/335/1 502/331/1 501/336/1 383/25/1 381/18/1 494/330/1 493/337/1 498/338/1
f 27/25/1 383/25/1 501/336/1 500/334/1
f 487/315/6 484/325/6 473/21/6
f 502/331/1 497/335/1 496/332/1 499/331/1
f 480/326/4 481/329/4 506/329/4 503/326/4
f 490/327/12 487/315/12 512/315/12 513/327/12
f 495/333/3 496/332/3 519/332/3 520/333/3
f 484/325/4 485/328/4 510/328/4 507/325/4
f 494/330/4 491/311/4 516/311/4 517/330/4
f 499/331/3 500/334/3 523/334/3 524/331/3
f 481/329/14 482/323/14 505/323/14 506/329/14
f 488/316/4 489/316/4 514/316/4 511/316/4
f 498/338/4 495/333/4 520/333/4 521/338/4
f 485/328/14 486/313/14 509/313/14 510/328/14
f 492/312/12 493/337/12 518/337/12 515/312/12
f 502/331/4 499/331/4 524/331/4 525/331/4
f 489/316/14 490/327/14 513/327/14 514/316/14
f 496/332/12 497/335/12 522/335/12 519/332/12
f 493/337/14 494/330/14 517/330/14 518/337/14
f 500/334/12 501/336/12 526/336/12 523/334/12
f 497/335/14 498/338/14 521/338/14 522/335/14
f 501/336/14 502/331/14 525/331/14 526/336/14
f 386/9/3 387/9/3 384/9/3 383/9/3
f 305/9/3 385/9/3 381/9/3 382/9/3
f 460/227/217 296/206/217 301/369/217 298/370/217 472/228/217
f 461/219/218 300/371/218 299/372/218 297/373/218 456/221/218
f 298/374/219 470/284/219 471/217/219 472/218/219
f 462/375/220 300/371/220 461/219/220 463/220/220
f 460/216/221 455/215/221 454/207/221 296/376/221
f 452/277/222 456/221/222 297/373/222 453/203/222
f 451/226/223 458/11/223 307/310/223 450/282/223
f 290/9/66 323/9/66 322/9/66 289/9/66
f 288/9/68 321/9/68 320/9/68 287/9/68
f 286/9/69 319/9/69 317/9/69 285/9/69
f 291/9/70 324/9/70 323/9/70 290/9/70
f 289/9/71 322/9/71 321/9/71 288/9/71
f 287/9/72 320/9/72 319/9/72 286/9/72
f 285/9/73 317/9/73 318/9/73 284/9/73
f 284/9/74 318/9/74 324/9/74 291/9/74
f 449/198/12 450/282/12 307/377/12 306/378/12 292/379/12
f 305/9/3 396/9/3 402/9/3 834/9/3 304/9/3 459/9/3 831/9/3
f 37/14/224 390/14/224 396/9/224 305/9/224
f 293/278/225 466/223/225 457/225/225 292/379/225 303/380/225
f 831/9/3 385/9/3 305/9/3
f 838/9/3 387/9/3 386/9/3
f 399/9/3 393/9/3 387/9/3 838/9/3 839/9/3 840/9/3 835/9/3
f 302/9/3 388/9/3 398/9/3 835/9/3 841/9/3
f 399/9/3 835/9/3 398/9/3
f 838/9/3 386/9/3 394/9/3 397/9/3 302/9/3 833/9/3 837/9/3
f 32/9/6 37/14/6 305/9/6 382/9/6
f 836/9/3 834/9/3 403/9/3 400/9/3 832/9/3
f 401/9/3 832/9/3 400/9/3
f 843/9/226 872/9/226 873/9/226 842/9/226
f 871/9/227 843/9/227 842/9/227 870/9/227
f 849/9/228 846/9/228 847/9/228 848/9/228
f 851/9/229 849/9/229 848/9/229 850/9/229
f 853/9/230 851/9/230 850/9/230 852/9/230
f 855/9/231 853/9/231 852/9/231 854/9/231
f 857/9/232 855/9/232 854/9/232 856/9/232
f 859/9/227 857/9/227 856/9/227 858/9/227
f 861/9/226 859/9/226 858/9/226 860/9/226
f 846/9/233 861/9/233 860/9/233 847/9/233
f 865/9/228 862/9/228 863/9/228 864/9/228
f 869/9/231 867/9/231 866/9/231 868/9/231
f 870/9/232 869/9/232 868/9/232 871/9/232
f 862/9/233 873/9/233 872/9/233 863/9/233
f 845/9/229 865/9/229 864/9/229 844/9/229
f 867/9/230 845/9/230 844/9/230 866/9/230
f 308/381/14 294/201/14 468/200/14 827/283/14 863/382/14 872/383/14 843/384/14
f 832/9/234 828/9/234 842/9/234 873/9/234
f 871/385/14 868/386/14 306/378/14 307/377/14 308/381/14 843/384/14
f 828/9/235 830/9/235 870/9/235 842/9/235
f 459/9/236 304/9/236 845/9/236 867/9/236
f 304/9/237 834/9/237 865/9/237 845/9/237
f 306/378/14 868/386/14 866/387/14 844/388/14 303/380/14 292/379/14
f 303/380/14 844/388/14 864/389/14 863/382/14 827/283/14 464/279/14 293/278/14
f 847/390/14 295/205/14 297/204/14 299/391/14 850/392/14 848/393/14
f 838/9/238 837/9/238 861/9/238 846/9/238
f 849/9/239 839/9/239 838/9/239 846/9/239
f 858/394/14 301/369/14 296/206/14 295/205/14 847/390/14 860/395/14
f 840/9/237 839/9/237 849/9/237 851/9/237
f 835/9/236 840/9/236 851/9/236 853/9/236
f 850/392/14 299/391/14 300/371/14 462/375/14 829/396/14 854/397/14 852/398/14
f 841/9/240 835/9/240 853/9/240 855/9/240
f 302/9/241 841/9/241 855/9/241 857/9/241
f 854/397/14 829/396/14 470/399/14 298/370/14 301/369/14 858/394/14 856/400/14
f 833/9/235 302/9/235 857/9/235 859/9/235
f 837/9/234 833/9/234 859/9/234 861/9/234
f 834/9/239 836/9/239 862/9/239 865/9/239
f 836/9/238 832/9/238 873/9/238 862/9/238
f 831/9/240 459/9/240 867/9/240 869/9/240
f 830/9/241 831/9/241 869/9/241 870/9/241
f 486/313/6 481/329/6 480/326/6 483/314/6
f 498/338/1 493/337/1 492/312/1 495/333/1
f 481/329/6 486/313/6 478/22/6
usemtl M_Noir_Profond
f 64/48/1 40/49/1 65/7/1 66/8/1
f 43/50/6 63/51/6 67/45/6 68/47/6
f 62/52/1 64/48/1 66/8/1 69/43/1
f 63/51/6 61/53/6 70/41/6 67/45/6
f 60/31/1 62/52/1 69/43/1 71/38/1
f 61/53/6 59/54/6 72/36/6 70/41/6
f 58/32/1 60/31/1 71/38/1 73/39/1
f 59/54/6 57/55/6 74/35/6 72/36/6
f 56/56/1 58/32/1 73/39/1 75/46/1
f 57/55/6 55/57/6 76/44/6 74/35/6
f 54/58/1 56/56/1 75/46/1 77/42/1
f 55/57/6 53/34/6 78/40/6 76/44/6
f 52/59/1 54/58/1 77/42/1 79/29/1
f 53/34/6 51/33/6 80/28/6 78/40/6
f 50/60/1 52/59/1 79/29/1 81/24/1
f 51/33/6 49/61/6 82/20/6 80/28/6
f 25/62/1 50/60/1 81/24/1 83/17/1
f 49/61/6 26/63/6 84/12/6 82/20/6
f 29/64/1 25/62/1 83/17/1 85/16/1
f 26/63/6 30/65/6 86/13/6 84/12/6
f 41/66/1 29/64/1 85/16/1 87/6/1
f 30/65/6 42/67/6 88/37/6 86/13/6
f 40/49/1 41/66/1 87/6/1 65/7/1
f 42/67/6 43/50/6 68/47/6 88/37/6
f 365/9/7 367/9/7 368/9/7 369/9/7 370/9/7 371/9/7 372/9/7 366/9/7
usemtl M_Steel
f 60/31/7 58/32/7 121/32/7 119/31/7
f 51/33/5 53/34/5 126/34/5 128/33/5
f 91/68/5 92/69/5 164/69/5 163/68/5
f 92/69/4 112/70/4 184/70/4 164/69/4
f 42/67/15 30/65/15 134/65/15 136/67/15
f 52/59/13 50/60/13 129/60/13 127/59/13
f 57/55/7 59/54/7 120/54/7 122/55/7
f 41/66/12 40/49/12 113/49/12 135/66/12
f 40/49/11 64/48/11 114/48/11 113/49/11
f 49/61/13 51/33/13 128/33/13 130/61/13
f 58/32/10 56/56/10 123/56/10 121/32/10
f 43/50/12 42/67/12 136/67/12 116/50/12
f 63/51/11 43/50/11 116/50/11 115/51/11
f 50/60/3 25/62/3 131/62/3 129/60/3
f 55/57/10 57/55/10 122/55/10 124/57/10
f 64/48/9 62/52/9 117/52/9 114/48/9
f 26/63/3 49/61/3 130/61/3 132/63/3
f 56/56/4 54/58/4 125/58/4 123/56/4
f 61/53/9 63/51/9 115/51/9 118/53/9
f 25/62/8 29/64/8 133/64/8 131/62/8
f 53/34/4 55/57/4 124/57/4 126/34/4
f 62/52/14 60/31/14 119/31/14 117/52/14
f 30/65/8 26/63/8 132/63/8 134/65/8
f 54/58/5 52/59/5 127/59/5 125/58/5
f 59/54/14 61/53/14 118/53/14 120/54/14
f 29/64/15 41/66/15 135/66/15 133/64/15
f 90/71/1 89/72/1 113/49/1 114/48/1
f 92/69/6 91/68/6 115/51/6 116/50/6
f 93/73/1 90/71/1 114/48/1 117/52/1
f 91/68/6 94/74/6 118/53/6 115/51/6
f 95/75/1 93/73/1 117/52/1 119/31/1
f 94/74/6 96/76/6 120/54/6 118/53/6
f 97/77/1 95/75/1 119/31/1 121/32/1
f 96/76/6 98/78/6 122/55/6 120/54/6
f 99/79/1 97/77/1 121/32/1 123/56/1
f 98/78/6 100/80/6 124/57/6 122/55/6
f 101/81/1 99/79/1 123/56/1 125/58/1
f 100/80/6 102/82/6 126/34/6 124/57/6
f 103/83/1 101/81/1 125/58/1 127/59/1
f 102/82/6 104/84/6 128/33/6 126/34/6
f 105/85/1 103/83/1 127/59/1 129/60/1
f 104/84/6 106/86/6 130/61/6 128/33/6
f 107/87/1 105/85/1 129/60/1 131/62/1
f 106/86/6 108/88/6 132/63/6 130/61/6
f 109/89/1 107/87/1 131/62/1 133/64/1
f 108/88/6 110/90/6 134/65/6 132/63/6
f 111/91/1 109/89/1 133/64/1 135/66/1
f 110/90/6 112/70/6 136/67/6 134/65/6
f 89/72/1 111/91/1 135/66/1 113/49/1
f 112/70/6 92/69/6 116/50/6 136/67/6
f 105/85/14 107/87/14 179/87/14 177/85/14
f 100/80/15 98/78/15 170/78/15 172/80/15
f 90/71/13 93/73/13 165/73/13 162/71/13
f 108/88/14 106/86/14 178/86/14 180/88/14
f 99/79/12 101/81/12 173/81/12 171/79/12
f 94/74/13 91/68/13 163/68/13 166/74/13
f 107/87/7 109/89/7 181/89/7 179/87/7
f 102/82/12 100/80/12 172/80/12 174/82/12
f 93/73/3 95/75/3 167/75/3 165/73/3
f 110/90/7 108/88/7 180/88/7 182/90/7
f 101/81/11 103/83/11 175/83/11 173/81/11
f 96/76/3 94/74/3 166/74/3 168/76/3
f 109/89/10 111/91/10 183/91/10 181/89/10
f 104/84/11 102/82/11 174/82/11 176/84/11
f 95/75/8 97/77/8 169/77/8 167/75/8
f 112/70/10 110/90/10 182/90/10 184/70/10
f 103/83/9 105/85/9 177/85/9 175/83/9
f 98/78/8 96/76/8 168/76/8 170/78/8
f 111/91/4 89/72/4 161/72/4 183/91/4
f 89/72/5 90/71/5 162/71/5 161/72/5
f 106/86/9 104/84/9 176/84/9 178/86/9
f 97/77/15 99/79/15 171/79/15 169/77/15
f 234/93/16 235/92/16 236/116/16 233/117/16
f 238/95/17 239/118/17 240/119/17 237/120/17
f 235/92/18 241/121/18 242/122/18 236/116/18
f 244/123/19 238/95/19 237/120/19 243/124/19
f 241/121/20 245/98/20 246/125/20 242/122/20
f 248/126/21 244/123/21 243/124/21 247/127/21
f 245/98/22 249/100/22 250/128/22 246/125/22
f 252/101/23 248/126/23 247/127/23 251/129/23
f 249/100/24 253/130/24 254/131/24 250/128/24
f 256/103/25 252/101/25 251/129/25 255/132/25
f 253/130/26 257/104/26 258/133/26 254/131/26
f 260/134/27 256/103/27 255/132/27 259/135/27
f 257/104/28 261/106/28 262/136/28 258/133/28
f 264/107/29 260/134/29 259/135/29 263/137/29
f 261/106/30 265/108/30 266/138/30 262/136/30
f 268/109/31 264/107/31 263/137/31 267/139/31
f 265/108/32 269/140/32 270/141/32 266/138/32
f 272/142/33 268/109/33 267/139/33 271/143/33
f 269/140/34 273/112/34 274/144/34 270/141/34
f 276/113/35 272/142/35 271/143/35 275/145/35
f 273/112/36 277/114/36 278/146/36 274/144/36
f 280/115/37 276/113/37 275/145/37 279/147/37
f 277/114/38 234/93/38 233/117/38 278/146/38
f 239/118/39 280/115/39 279/147/39 240/119/39
f 186/148/40 187/149/40 188/150/40 185/151/40
f 190/152/41 191/153/41 192/154/41 189/155/41
f 187/149/42 193/156/42 194/157/42 188/150/42
f 196/158/43 190/152/43 189/155/43 195/159/43
f 193/156/44 197/160/44 198/161/44 194/157/44
f 200/162/45 196/158/45 195/159/45 199/163/45
f 197/160/46 201/164/46 202/165/46 198/161/46
f 204/166/47 200/162/47 199/163/47 203/167/47
f 201/164/48 205/168/48 206/169/48 202/165/48
f 208/170/49 204/166/49 203/167/49 207/171/49
f 205/168/50 209/172/50 210/173/50 206/169/50
f 212/174/51 208/170/51 207/171/51 211/175/51
f 209/172/52 213/176/52 214/177/52 210/173/52
f 216/178/53 212/174/53 211/175/53 215/179/53
f 213/176/54 217/180/54 218/181/54 214/177/54
f 220/182/55 216/178/55 215/179/55 219/183/55
f 217/180/56 221/184/56 222/185/56 218/181/56
f 224/186/57 220/182/57 219/183/57 223/187/57
f 221/184/58 225/188/58 226/189/58 222/185/58
f 228/190/59 224/186/59 223/187/59 227/191/59
f 225/188/60 229/192/60 230/193/60 226/189/60
f 232/194/61 228/190/61 227/191/61 231/195/61
f 229/192/62 186/148/62 185/151/62 230/193/62
f 191/153/63 232/194/63 231/195/63 192/154/63
f 189/155/5 192/154/5 185/151/5 188/150/5
f 186/148/1 229/192/1 278/146/1 233/117/1
f 187/149/1 186/148/1 233/117/1 236/116/1
f 192/154/4 231/195/4 230/193/4 185/151/4
f 195/159/13 189/155/13 188/150/13 194/157/13
f 193/156/1 187/149/1 236/116/1 242/122/1
f 190/152/6 196/158/6 243/124/6 237/120/6
f 191/153/6 190/152/6 237/120/6 240/119/6
f 232/194/6 191/153/6 240/119/6 279/147/6
f 199/163/3 195/159/3 194/157/3 198/161/3
f 197/160/1 193/156/1 242/122/1 246/125/1
f 196/158/6 200/162/6 247/127/6 243/124/6
f 203/167/8 199/163/8 198/161/8 202/165/8
f 201/164/1 197/160/1 246/125/1 250/128/1
f 200/162/6 204/166/6 251/129/6 247/127/6
f 207/171/15 203/167/15 202/165/15 206/169/15
f 205/168/1 201/164/1 250/128/1 254/131/1
f 204/166/6 208/170/6 255/132/6 251/129/6
f 211/175/12 207/171/12 206/169/12 210/173/12
f 209/172/1 205/168/1 254/131/1 258/133/1
f 208/170/6 212/174/6 259/135/6 255/132/6
f 215/179/11 211/175/11 210/173/11 214/177/11
f 213/176/1 209/172/1 258/133/1 262/136/1
f 212/174/6 216/178/6 263/137/6 259/135/6
f 219/183/9 215/179/9 214/177/9 218/181/9
f 217/180/1 213/176/1 262/136/1 266/138/1
f 216/178/6 220/182/6 267/139/6 263/137/6
f 223/187/14 219/183/14 218/181/14 222/185/14
f 221/184/1 217/180/1 266/138/1 270/141/1
f 220/182/6 224/186/6 271/143/6 267/139/6
f 227/191/7 223/187/7 222/185/7 226/189/7
f 225/188/1 221/184/1 270/141/1 274/144/1
f 224/186/6 228/190/6 275/145/6 271/143/6
f 231/195/10 227/191/10 226/189/10 230/193/10
f 229/192/1 225/188/1 274/144/1 278/146/1
f 228/190/6 232/194/6 279/147/6 275/145/6
f 159/114/12 137/93/12 234/93/12 277/114/12
f 137/93/11 138/92/11 235/92/11 234/93/11
f 138/92/9 141/96/9 241/121/9 235/92/9
f 142/97/9 139/95/9 238/95/9 244/123/9
f 139/95/11 140/94/11 239/118/11 238/95/11
f 140/94/12 160/115/12 280/115/12 239/118/12
f 141/96/14 143/98/14 245/98/14 241/121/14
f 144/99/14 142/97/14 244/123/14 248/126/14
f 143/98/7 145/100/7 249/100/7 245/98/7
f 146/101/7 144/99/7 248/126/7 252/101/7
f 145/100/10 147/102/10 253/130/10 249/100/10
f 148/103/10 146/101/10 252/101/10 256/103/10
f 147/102/4 149/104/4 257/104/4 253/130/4
f 150/105/4 148/103/4 256/103/4 260/134/4
f 149/104/5 151/106/5 261/106/5 257/104/5
f 152/107/5 150/105/5 260/134/5 264/107/5
f 151/106/13 153/108/13 265/108/13 261/106/13
f 154/109/13 152/107/13 264/107/13 268/109/13
f 153/108/3 155/110/3 269/140/3 265/108/3
f 156/111/3 154/109/3 268/109/3 272/142/3
f 155/110/8 157/112/8 273/112/8 269/140/8
f 158/113/8 156/111/8 272/142/8 276/113/8
f 157/112/15 159/114/15 277/114/15 273/112/15
f 160/115/15 158/113/15 276/113/15 280/115/15
f 536/339/116 535/340/116 540/341/116 541/342/116
f 534/343/117 533/344/117 538/345/117 539/346/117
f 535/340/118 534/343/118 539/346/118 540/341/118
f 533/344/119 532/347/119 537/348/119 538/345/119
f 541/342/120 540/341/120 545/349/120 546/350/120
f 539/346/121 538/345/121 543/351/121 544/352/121
f 540/341/122 539/346/122 544/352/122 545/349/122
f 538/345/123 537/348/123 542/353/123 543/351/123
f 545/354/124 544/355/124 549/356/124 550/357/124
f 543/358/125 542/359/125 547/360/125 548/361/125
f 546/362/126 545/354/126 550/357/126 551/363/126
f 544/355/127 543/358/127 548/361/127 549/356/127
f 550/357/128 549/356/128 529/364/128 530/365/128
f 548/361/129 547/360/129 527/366/129 528/367/129
f 551/363/130 550/357/130 530/365/130 531/368/130
f 549/356/131 548/361/131 528/367/131 529/364/131
f 561/339/132 566/342/132 565/341/132 560/340/132
f 559/343/133 564/346/133 563/345/133 558/344/133
f 560/340/134 565/341/134 564/346/134 559/343/134
f 558/344/135 563/345/135 562/348/135 557/347/135
f 566/342/136 571/350/136 570/349/136 565/341/136
f 564/346/137 569/352/137 568/351/137 563/345/137
f 565/341/138 570/349/138 569/352/138 564/346/138
f 563/345/139 568/351/139 567/353/139 562/348/139
f 570/354/140 575/357/140 574/356/140 569/355/140
f 568/358/141 573/361/141 572/360/141 567/359/141
f 571/362/142 576/363/142 575/357/142 570/354/142
f 569/355/143 574/356/143 573/361/143 568/358/143
f 575/357/144 555/365/144 554/364/144 574/356/144
f 573/361/145 553/367/145 552/366/145 572/360/145
f 576/363/146 556/368/146 555/365/146 575/357/146
f 574/356/147 554/364/147 553/367/147 573/361/147
f 586/339/119 591/342/119 590/341/119 585/340/119
f 584/343/118 589/346/118 588/345/118 583/344/118
f 585/340/117 590/341/117 589/346/117 584/343/117
f 583/344/116 588/345/116 587/348/116 582/347/116
f 591/342/123 596/350/123 595/349/123 590/341/123
f 589/346/122 594/352/122 593/351/122 588/345/122
f 590/341/121 595/349/121 594/352/121 589/346/121
f 588/345/120 593/351/120 592/353/120 587/348/120
f 595/354/127 600/357/127 599/356/127 594/355/127
f 593/358/126 598/361/126 597/360/126 592/359/126
f 596/362/125 601/363/125 600/357/125 595/354/125
f 594/355/124 599/356/124 598/361/124 593/358/124
f 600/357/131 580/365/131 579/364/131 599/356/131
f 598/361/130 578/367/130 577/366/130 597/360/130
f 601/363/129 581/368/129 580/365/129 600/357/129
f 599/356/128 579/364/128 578/367/128 598/361/128
f 611/339/135 610/340/135 615/341/135 616/342/135
f 609/343/134 608/344/134 613/345/134 614/346/134
f 610/340/133 609/343/133 614/346/133 615/341/133
f 608/344/132 607/347/132 612/348/132 613/345/132
f 616/342/139 615/341/139 620/349/139 621/350/139
f 614/346/138 613/345/138 618/351/138 619/352/138
f 615/341/137 614/346/137 619/352/137 620/349/137
f 613/345/136 612/348/136 617/353/136 618/351/136
f 620/354/143 619/355/143 624/356/143 625/357/143
f 618/358/142 617/359/142 622/360/142 623/361/142
f 621/362/141 620/354/141 625/357/141 626/363/141
f 619/355/140 618/358/140 623/361/140 624/356/140
f 625/357/147 624/356/147 604/364/147 605/365/147
f 623/361/146 622/360/146 602/366/146 603/367/146
f 626/363/145 625/357/145 605/365/145 606/368/145
f 624/356/144 623/361/144 603/367/144 604/364/144
f 636/339/148 635/340/148 640/341/148 641/342/148
f 634/343/149 633/344/149 638/345/149 639/346/149
f 635/340/150 634/343/150 639/346/150 640/341/150
f 633/344/151 632/347/151 637/348/151 638/345/151
f 641/342/152 640/341/152 645/349/152 646/350/152
f 639/346/153 638/345/153 643/351/153 644/352/153
f 640/341/154 639/346/154 644/352/154 645/349/154
f 638/345/155 637/348/155 642/353/155 643/351/155
f 645/354/156 644/355/156 649/356/156 650/357/156
f 643/358/157 642/359/157 647/360/157 648/361/157
f 646/362/158 645/354/158 650/357/158 651/363/158
f 644/355/159 643/358/159 648/361/159 649/356/159
f 650/357/160 649/356/160 629/364/160 630/365/160
f 648/361/161 647/360/161 627/366/161 628/367/161
f 651/363/162 650/357/162 630/365/162 631/368/162
f 649/356/163 648/361/163 628/367/163 629/364/163
f 661/339/164 666/342/164 665/341/164 660/340/164
f 659/343/165 664/346/165 663/345/165 658/344/165
f 660/340/166 665/341/166 664/346/166 659/343/166
f 658/344/167 663/345/167 662/348/167 657/347/167
f 666/342/168 671/350/168 670/349/168 665/341/168
f 664/346/169 669/352/169 668/351/169 663/345/169
f 665/341/170 670/349/170 669/352/170 664/346/170
f 663/345/171 668/351/171 667/353/171 662/348/171
f 670/354/172 675/357/172 674/356/172 669/355/172
f 668/358/173 673/361/173 672/360/173 667/359/173
f 671/362/174 676/363/174 675/357/174 670/354/174
f 669/355/175 674/356/175 673/361/175 668/358/175
f 675/357/176 655/365/176 654/364/176 674/356/176
f 673/361/177 653/367/177 652/366/177 672/360/177
f 676/363/178 656/368/178 655/365/178 675/357/178
f 674/356/179 654/364/179 653/367/179 673/361/179
f 686/339/151 691/342/151 690/341/151 685/340/151
f 684/343/150 689/346/150 688/345/150 683/344/150
f 685/340/149 690/341/149 689/346/149 684/343/149
f 683/344/148 688/345/148 687/348/148 682/347/148
f 691/342/155 696/350/155 695/349/155 690/341/155
f 689/346/154 694/352/154 693/351/154 688/345/154
f 690/341/153 695/349/153 694/352/153 689/346/153
f 688/345/152 693/351/152 692/353/152 687/348/152
f 695/354/159 700/357/159 699/356/159 694/355/159
f 693/358/158 698/361/158 697/360/158 692/359/158
f 696/362/157 701/363/157 700/357/157 695/354/157
f 694/355/156 699/356/156 698/361/156 693/358/156
f 700/357/163 680/365/163 679/364/163 699/356/163
f 698/361/162 678/367/162 677/366/162 697/360/162
f 701/363/180 681/368/180 680/365/180 700/357/180
f 699/356/160 679/364/160 678/367/160 698/361/160
f 711/339/167 710/340/167 715/341/167 716/342/167
f 709/343/166 708/344/166 713/345/166 714/346/166
f 710/340/165 709/343/165 714/346/165 715/341/165
f 708/344/164 707/347/164 712/348/164 713/345/164
f 716/342/171 715/341/171 720/349/171 721/350/171
f 714/346/170 713/345/170 718/351/170 719/352/170
f 715/341/169 714/346/169 719/352/169 720/349/169
f 713/345/181 712/348/181 717/353/181 718/351/181
f 720/354/175 719/355/175 724/356/175 725/357/175
f 718/358/174 717/359/174 722/360/174 723/361/174
f 721/362/182 720/354/182 725/357/182 726/363/182
f 719/355/172 718/358/172 723/361/172 724/356/172
f 725/357/179 724/356/179 704/364/179 705/365/179
f 723/361/178 722/360/178 702/366/178 703/367/178
f 726/363/177 725/357/177 705/365/177 706/368/177
f 724/356/176 723/361/176 703/367/176 704/364/176
f 736/339/183 735/340/183 740/341/183 741/342/183
f 734/343/184 733/344/184 738/345/184 739/346/184
f 735/340/185 734/343/185 739/346/185 740/341/185
f 733/344/186 732/347/186 737/348/186 738/345/186
f 741/342/187 740/341/187 745/349/187 746/350/187
f 739/346/188 738/345/188 743/351/188 744/352/188
f 740/341/189 739/346/189 744/352/189 745/349/189
f 738/345/190 737/348/190 742/353/190 743/351/190
f 745/354/191 744/355/191 749/356/191 750/357/191
f 743/358/192 742/359/192 747/360/192 748/361/192
f 746/362/193 745/354/193 750/357/193 751/363/193
f 744/355/194 743/358/194 748/361/194 749/356/194
f 750/357/195 749/356/195 729/364/195 730/365/195
f 748/361/196 747/360/196 727/366/196 728/367/196
f 751/363/197 750/357/197 730/365/197 731/368/197
f 749/356/198 748/361/198 728/367/198 729/364/198
f 761/339/199 766/342/199 765/341/199 760/340/199
f 759/343/200 764/346/200 763/345/200 758/344/200
f 760/340/201 765/341/201 764/346/201 759/343/201
f 758/344/202 763/345/202 762/348/202 757/347/202
f 766/342/203 771/350/203 770/349/203 765/341/203
f 764/346/204 769/352/204 768/351/204 763/345/204
f 765/341/205 770/349/205 769/352/205 764/346/205
f 763/345/206 768/351/206 767/353/206 762/348/206
f 770/354/207 775/357/207 774/356/207 769/355/207
f 768/358/208 773/361/208 772/360/208 767/359/208
f 771/362/209 776/363/209 775/357/209 770/354/209
f 769/355/210 774/356/210 773/361/210 768/358/210
f 775/357/211 755/365/211 754/364/211 774/356/211
f 773/361/212 753/367/212 752/366/212 772/360/212
f 776/363/213 756/368/213 755/365/213 775/357/213
f 774/356/214 754/364/214 753/367/214 773/361/214
f 786/339/186 791/342/186 790/341/186 785/340/186
f 784/343/185 789/346/185 788/345/185 783/344/185
f 785/340/184 790/341/184 789/346/184 784/343/184
f 783/344/183 788/345/183 787/348/183 782/347/183
f 791/342/190 796/350/190 795/349/190 790/341/190
f 789/346/189 794/352/189 793/351/189 788/345/189
f 790/341/188 795/349/188 794/352/188 789/346/188
f 788/345/187 793/351/187 792/353/187 787/348/187
f 795/354/194 800/357/194 799/356/194 794/355/194
f 793/358/193 798/361/193 797/360/193 792/359/193
f 796/362/192 801/363/192 800/357/192 795/354/192
f 794/355/191 799/356/191 798/361/191 793/358/191
f 800/357/198 780/365/198 779/364/198 799/356/198
f 798/361/215 778/367/215 777/366/215 797/360/215
f 801/363/196 781/368/196 780/365/196 800/357/196
f 799/356/195 779/364/195 778/367/195 798/361/195
f 811/339/202 810/340/202 815/341/202 816/342/202
f 809/343/201 808/344/201 813/345/201 814/346/201
f 810/340/200 809/343/200 814/346/200 815/341/200
f 808/344/199 807/347/199 812/348/199 813/345/199
f 816/342/206 815/341/206 820/349/206 821/350/206
f 814/346/205 813/345/205 818/351/205 819/352/205
f 815/341/204 814/346/204 819/352/204 820/349/204
f 813/345/203 812/348/203 817/353/203 818/351/203
f 820/354/210 819/355/210 824/356/210 825/357/210
f 818/358/209 817/359/209 822/360/209 823/361/209
f 821/362/208 820/354/208 825/357/208 826/363/208
f 819/355/207 818/358/207 823/361/207 824/356/207
f 825/357/214 824/356/214 804/364/214 805/365/214
f 823/361/216 822/360/216 802/366/216 803/367/216
f 826/363/212 825/357/212 805/365/212 806/368/212
f 824/356/211 823/361/211 803/367/211 804/364/211
usemtl M_Orange
f 314/9/66 315/9/66 331/9/66 330/9/66
f 326/9/67 325/9/67 333/9/67 334/9/67
f 312/9/68 313/9/68 329/9/68 328/9/68
f 310/9/69 311/9/69 327/9/69 325/9/69
f 315/9/70 316/9/70 332/9/70 331/9/70
f 313/9/71 314/9/71 330/9/71 329/9/71
f 311/9/72 312/9/72 328/9/72 327/9/72
f 309/9/73 310/9/73 325/9/73 326/9/73
f 316/9/74 309/9/74 326/9/74 332/9/74
f 332/9/75 326/9/75 334/9/75 340/9/75
f 330/9/76 331/9/76 339/9/76 338/9/76
f 328/9/77 329/9/77 337/9/77 336/9/77
f 325/9/78 327/9/78 335/9/78 333/9/78
f 331/9/79 332/9/79 340/9/79 339/9/79
f 329/9/80 330/9/80 338/9/80 337/9/80
f 327/9/81 328/9/81 336/9/81 335/9/81
f 357/9/82 358/9/82 344/9/82 341/9/82
f 359/9/83 357/9/83 341/9/83 345/9/83
f 360/9/84 359/9/84 345/9/84 347/9/84
f 361/9/85 360/9/85 347/9/85 349/9/85
f 362/9/86 361/9/86 349/9/86 351/9/86
f 363/9/87 362/9/87 351/9/87 353/9/87
f 364/9/88 363/9/88 353/9/88 355/9/88
f 358/9/89 364/9/89 355/9/89 344/9/89
f 334/9/73 333/9/73 341/9/73 344/9/73
f 356/9/90 343/9/90 366/9/90 372/9/90
f 333/9/69 335/9/69 345/9/69 341/9/69
f 340/9/74 334/9/74 344/9/74 355/9/74
f 335/9/72 336/9/72 347/9/72 345/9/72
f 336/9/68 337/9/68 349/9/68 347/9/68
f 337/9/71 338/9/71 351/9/71 349/9/71
f 338/9/66 339/9/66 353/9/66 351/9/66
f 339/9/70 340/9/70 355/9/70 353/9/70
f 342/9/7 343/9/7 358/9/7 357/9/7
f 346/9/7 342/9/7 357/9/7 359/9/7
f 348/9/7 346/9/7 359/9/7 360/9/7
f 350/9/7 348/9/7 360/9/7 361/9/7
f 352/9/7 350/9/7 361/9/7 362/9/7
f 354/9/7 352/9/7 362/9/7 363/9/7
f 356/9/7 354/9/7 363/9/7 364/9/7
f 343/9/7 356/9/7 364/9/7 358/9/7
f 352/9/91 354/9/91 371/9/91 370/9/91
f 348/9/92 350/9/92 369/9/92 368/9/92
f 342/9/93 346/9/93 367/9/93 365/9/93
f 354/9/94 356/9/94 372/9/94 371/9/94
f 350/9/95 352/9/95 370/9/95 369/9/95
f 346/9/96 348/9/96 368/9/96 367/9/96
f 343/9/97 342/9/97 365/9/97 366/9/97
f 373/208/12 376/209/12 375/210/12 374/211/12
f 378/2/4 377/212/4 380/5/4 379/1/4
f 504/324/6 503/326/6 506/329/6 505/323/6
f 508/314/6 507/325/6 510/328/6 509/313/6
f 512/315/6 511/316/6 514/316/6 513/327/6
f 516/311/1 515/312/1 518/337/1 517/330/1
f 520/333/1 519/332/1 522/335/1 521/338/1
f 524/331/1 523/334/1 526/336/1 525/331/1
