# Blender 5.1.2
# www.blender.org
mtllib SM_Tube_Bundle.mtl
o SM_Tube_Bundle
v -0.318863 0.045000 0.099340
v -0.301840 0.045000 0.116363
v -0.301840 0.045000 -0.116363
v -0.318863 0.045000 -0.099340
v 0.301840 0.045000 0.116363
v 0.318863 0.045000 0.099340
v 0.318863 0.045000 -0.099340
v 0.301840 0.045000 -0.116363
v -0.324276 0.041222 0.101582
v -0.324276 0.039314 0.101582
v 0.324276 0.041222 -0.101582
v 0.324276 0.039314 -0.101582
v -0.301840 0.047386 0.116363
v -0.318863 0.047386 0.099340
v -0.318863 0.047386 -0.099340
v -0.301840 0.047386 -0.116363
v 0.301840 0.047386 -0.116363
v 0.318863 0.047386 -0.099340
v 0.318863 0.047386 0.099340
v 0.301840 0.047386 0.116363
v 0.325000 0.033348 -0.095916
v 0.325000 0.041222 -0.101882
v 0.325000 0.041222 0.101882
v 0.325000 0.033348 0.095916
v -0.311876 0.035447 -0.115006
v -0.304382 0.041222 -0.122500
v 0.304382 0.041222 -0.122500
v 0.311876 0.035447 -0.115006
v -0.325000 0.033348 0.095916
v -0.325000 0.041222 0.101882
v -0.325000 0.041222 -0.101882
v -0.325000 0.033348 -0.095916
v 0.311876 0.035447 0.115006
v 0.304382 0.041222 0.122500
v -0.304382 0.041222 0.122500
v -0.311876 0.035447 0.115006
v 0.324276 0.041222 0.101582
v 0.324276 0.039314 0.101582
v -0.324276 0.041222 -0.101582
v -0.324276 0.039314 -0.101582
v -0.304082 0.039314 -0.121776
v -0.304082 0.041222 -0.121776
v 0.304082 0.041222 -0.121776
v 0.304082 0.039314 -0.121776
v 0.304082 0.039314 0.121776
v 0.304082 0.041222 0.121776
v -0.304082 0.041222 0.121776
v -0.304082 0.039314 0.121776
v -0.099993 0.094419 0.115743
v -0.112081 0.094419 0.115743
v -0.124923 0.094419 0.109944
v -0.087151 0.094419 0.109944
v 0.112081 0.094419 0.115743
v 0.087151 0.094419 0.115743
v 0.087151 0.094419 0.109944
v 0.124923 0.094419 0.109944
v -0.112081 0.060098 -0.120674
v -0.099993 0.060098 -0.120674
v 0.099993 0.060098 -0.120674
v 0.112081 0.060098 -0.120674
v 0.112081 0.060098 0.120674
v 0.099993 0.060098 0.120674
v -0.099993 0.060098 0.120674
v -0.112081 0.060098 0.120674
v -0.087151 0.047386 -0.116363
v -0.124923 0.047386 -0.116363
v 0.124923 0.047386 -0.116363
v 0.087151 0.047386 -0.116363
v 0.087151 0.047386 0.116363
v 0.124923 0.047386 0.116363
v -0.124923 0.047386 0.116363
v -0.087151 0.047386 0.116363
v -0.124923 0.094419 -0.109944
v -0.087151 0.094419 -0.109944
v -0.087151 0.094419 -0.115743
v -0.124923 0.094419 -0.115743
v 0.087151 0.094419 -0.109944
v 0.124923 0.094419 -0.109944
v 0.124923 0.094419 -0.115743
v 0.099993 0.094419 -0.115743
v -0.087151 0.176389 0.051977
v -0.087151 0.176389 -0.051977
v -0.124923 0.176389 0.051977
v -0.124923 0.176389 -0.051977
v -0.112081 0.181669 0.054651
v -0.112081 0.181669 -0.054651
v -0.099993 0.181669 -0.054651
v -0.099993 0.181669 0.054651
v 0.124923 0.176389 -0.051977
v 0.124923 0.176389 0.051977
v 0.112081 0.181669 -0.054651
v 0.112081 0.181669 0.054651
v 0.099993 0.181669 -0.054651
v 0.099993 0.181669 0.054651
v 0.087151 0.176389 0.051977
v 0.087151 0.176389 -0.051977
v -0.099993 0.158557 0.076238
v -0.087151 0.155917 0.072447
v -0.124923 0.155917 0.072447
v -0.112081 0.158557 0.076238
v -0.112081 0.158557 -0.076238
v -0.124923 0.155917 -0.072447
v -0.087151 0.155917 -0.072447
v -0.099993 0.158557 -0.076238
v 0.099993 0.158557 0.076238
v 0.112081 0.158557 0.076238
v 0.124923 0.155917 0.072447
v 0.087151 0.155917 0.072447
v 0.087151 0.155917 -0.072447
v 0.124923 0.155917 -0.072447
v 0.112081 0.158557 -0.076238
v 0.099993 0.158557 -0.076238
v 0.124923 0.094419 0.115743
v -0.112081 0.094419 -0.115743
v -0.124923 0.094419 0.115743
v 0.112081 0.094419 -0.115743
v -0.087151 0.094419 0.115743
v 0.087151 0.094419 -0.115743
v 0.099993 0.094419 0.115743
v -0.099993 0.094419 -0.115743
v -0.087151 0.158557 0.076238
v -0.087151 0.181669 0.054651
v -0.124923 0.158557 -0.076238
v -0.124923 0.181669 -0.054651
v -0.124923 0.158557 0.076238
v -0.124923 0.181669 0.054651
v -0.087151 0.158557 -0.076238
v -0.087151 0.181669 -0.054651
v 0.087151 0.158557 0.076238
v 0.087151 0.181669 0.054651
v 0.124923 0.158557 0.076238
v 0.124923 0.181669 0.054651
v 0.124923 0.158557 -0.076238
v 0.124923 0.181669 -0.054651
v 0.087151 0.158557 -0.076238
v 0.087151 0.181669 -0.054651
v 0.112081 0.093991 -0.114560
v 0.099993 0.093991 -0.114560
v -0.099993 0.093991 -0.114560
v -0.112081 0.093991 -0.114560
v 0.099993 0.093991 0.114560
v 0.112081 0.093991 0.114560
v -0.112081 0.093991 0.114560
v -0.099993 0.093991 0.114560
v -0.099993 0.180515 -0.054150
v -0.112081 0.180515 -0.054150
v -0.099993 0.180515 0.054150
v -0.112081 0.180515 0.054150
v 0.099993 0.180515 0.054150
v 0.112081 0.180515 0.054150
v 0.099993 0.180515 -0.054150
v 0.112081 0.180515 -0.054150
v -0.112081 0.157794 0.075238
v -0.099993 0.157794 0.075238
v -0.112081 0.157794 -0.075238
v -0.099993 0.157794 -0.075238
v 0.112081 0.157794 0.075238
v 0.099993 0.157794 0.075238
v 0.112081 0.157794 -0.075238
v 0.099993 0.157794 -0.075238
v 0.099993 0.059919 0.119429
v 0.112081 0.059919 0.119429
v -0.112081 0.059919 0.119429
v -0.099993 0.059919 0.119429
v -0.099993 0.059919 -0.119429
v -0.112081 0.059919 -0.119429
v 0.112081 0.059919 -0.119429
v 0.099993 0.059919 -0.119429
v -0.325000 0.008537 -0.063698
v -0.322428 0.000000 -0.059603
v -0.325000 0.008537 0.063698
v -0.322428 0.000000 0.059603
v 0.325000 0.008537 0.063678
v 0.322428 0.000000 0.059603
v 0.325000 0.008537 -0.063678
v 0.322428 0.000000 -0.059603
v -0.322428 0.009879 -0.053028
v -0.325000 0.018973 -0.056734
v -0.325000 0.018973 0.056734
v -0.322428 0.009879 0.053028
v 0.322428 0.009879 0.053028
v 0.325000 0.018988 0.056704
v 0.325000 0.018988 -0.056704
v 0.322428 0.009879 -0.053028
v -0.303317 0.000000 0.119928
v -0.311876 0.006439 0.115006
v -0.325000 0.008537 0.095916
v -0.322428 0.000000 0.100817
v -0.322428 0.000000 -0.100817
v -0.325000 0.008537 -0.095916
v -0.311876 0.006439 -0.115006
v -0.303317 0.000000 -0.119928
v 0.322428 0.000000 0.100817
v 0.325000 0.008537 0.095916
v 0.311876 0.006439 0.115006
v 0.303317 0.000000 0.119928
v 0.303317 0.000000 -0.119928
v 0.311876 0.006439 -0.115006
v 0.325000 0.008537 -0.095916
v 0.322428 0.000000 -0.100817
v -0.304382 0.044055 0.122500
v -0.303002 0.047386 0.119169
v -0.321669 0.047386 0.100502
v -0.325000 0.044055 0.101882
v -0.325000 0.044055 -0.101882
v -0.321669 0.047386 -0.100502
v -0.303002 0.047386 -0.119169
v -0.304382 0.044055 -0.122500
v 0.304382 0.044055 -0.122500
v 0.303002 0.047386 -0.119169
v 0.321669 0.047386 -0.100502
v 0.325000 0.044055 -0.101882
v 0.325000 0.044055 0.101882
v 0.321669 0.047386 0.100502
v 0.303002 0.047386 0.119169
v 0.304382 0.044055 0.122500
v 0.087151 0.047386 0.119169
v 0.087151 0.044055 0.122500
v 0.124923 0.044055 0.122500
v 0.124923 0.047386 0.119169
v -0.124923 0.047386 0.119169
v -0.124923 0.044055 0.122500
v -0.087151 0.044055 0.122500
v -0.087151 0.047386 0.119169
v -0.087151 0.047386 -0.119169
v -0.087151 0.044055 -0.122500
v -0.124923 0.044055 -0.122500
v -0.124923 0.047386 -0.119169
v 0.124923 0.047386 -0.119169
v 0.124923 0.044055 -0.122500
v 0.087151 0.044055 -0.122500
v 0.087151 0.047386 -0.119169
v -0.315974 0.090611 -0.025754
v 0.315974 0.090612 -0.025754
v -0.315974 0.069276 -0.025754
v 0.315974 0.069276 -0.025754
v -0.315974 0.054189 -0.010668
v 0.315974 0.054189 -0.010668
v -0.315974 0.054189 0.010668
v 0.315974 0.054189 0.010668
v -0.315974 0.069276 0.025754
v 0.315974 0.069276 0.025754
v -0.315974 0.090611 0.025754
v 0.315974 0.090612 0.025754
v -0.315974 0.105698 0.010668
v 0.315974 0.105698 0.010668
v -0.315974 0.105698 -0.010668
v 0.315974 0.105698 -0.010668
v -0.315974 0.094418 -0.034944
v -0.315974 0.065470 -0.034944
v 0.315974 0.065470 -0.034944
v 0.315974 0.094418 -0.034944
v -0.315974 0.045000 -0.014474
v 0.315974 0.045000 -0.014474
v -0.315974 0.045000 0.014474
v 0.315974 0.045000 0.014474
v -0.315974 0.065470 0.034944
v 0.315974 0.065470 0.034944
v -0.315974 0.094418 0.034944
v 0.315974 0.094418 0.034944
v -0.315974 0.114887 0.014474
v 0.315974 0.114887 0.014474
v -0.315974 0.114887 -0.014474
v 0.315974 0.114887 -0.014474
v -0.315974 0.090611 0.049246
v 0.315974 0.090612 0.049246
v -0.315974 0.069276 0.049246
v 0.315974 0.069276 0.049246
v -0.315974 0.054189 0.064332
v 0.315974 0.054189 0.064332
v -0.315974 0.054189 0.085668
v 0.315974 0.054189 0.085668
v -0.315974 0.069276 0.100754
v 0.315974 0.069276 0.100754
v -0.315974 0.090611 0.100754
v 0.315974 0.090612 0.100754
v -0.315974 0.105698 0.085668
v 0.315974 0.105698 0.085668
v -0.315974 0.105698 0.064332
v 0.315974 0.105698 0.064332
v -0.315974 0.094418 0.040056
v -0.315974 0.065470 0.040056
v 0.315974 0.065470 0.040056
v 0.315974 0.094418 0.040056
v -0.315974 0.045000 0.060526
v 0.315974 0.045000 0.060526
v -0.315974 0.045000 0.089474
v 0.315974 0.045000 0.089474
v -0.315974 0.065470 0.109944
v 0.315974 0.065470 0.109944
v -0.315974 0.094418 0.109944
v 0.315974 0.094418 0.109944
v -0.315974 0.114887 0.089474
v 0.315974 0.114887 0.089474
v -0.315974 0.114887 0.060526
v 0.315974 0.114887 0.060526
v -0.315974 0.090611 -0.100754
v 0.315974 0.090612 -0.100754
v -0.315974 0.069276 -0.100754
v 0.315974 0.069276 -0.100754
v -0.315974 0.054189 -0.085668
v 0.315974 0.054189 -0.085668
v -0.315974 0.054189 -0.064332
v 0.315974 0.054189 -0.064332
v -0.315974 0.069276 -0.049246
v 0.315974 0.069276 -0.049246
v -0.315974 0.090611 -0.049246
v 0.315974 0.090612 -0.049246
v -0.315974 0.105698 -0.064332
v 0.315974 0.105698 -0.064332
v -0.315974 0.105698 -0.085668
v 0.315974 0.105698 -0.085668
v -0.315974 0.094418 -0.109944
v -0.315974 0.065470 -0.109944
v 0.315974 0.065470 -0.109944
v 0.315974 0.094418 -0.109944
v -0.315974 0.045000 -0.089474
v 0.315974 0.045000 -0.089474
v -0.315974 0.045000 -0.060526
v 0.315974 0.045000 -0.060526
v -0.315974 0.065470 -0.040056
v 0.315974 0.065470 -0.040056
v -0.315974 0.094418 -0.040056
v 0.315974 0.094418 -0.040056
v -0.315974 0.114887 -0.060526
v 0.315974 0.114887 -0.060526
v -0.315974 0.114887 -0.089474
v 0.315974 0.114887 -0.089474
v -0.315974 0.152111 0.011746
v 0.315974 0.152112 0.011746
v -0.315974 0.130776 0.011746
v 0.315974 0.130776 0.011746
v -0.315974 0.115689 0.026832
v 0.315974 0.115689 0.026832
v -0.315974 0.115689 0.048168
v 0.315974 0.115689 0.048168
v -0.315974 0.130776 0.063254
v 0.315974 0.130776 0.063254
v -0.315974 0.152111 0.063254
v 0.315974 0.152112 0.063254
v -0.315974 0.167198 0.048168
v 0.315974 0.167198 0.048168
v -0.315974 0.167198 0.026832
v 0.315974 0.167198 0.026832
v -0.315974 0.155918 0.002556
v -0.315974 0.126970 0.002556
v 0.315974 0.126970 0.002556
v 0.315974 0.155918 0.002556
v -0.315974 0.106500 0.023026
v 0.315974 0.106500 0.023026
v -0.315974 0.106500 0.051974
v 0.315974 0.106500 0.051974
v -0.315974 0.126970 0.072444
v 0.315974 0.126970 0.072444
v -0.315974 0.155918 0.072444
v 0.315974 0.155918 0.072444
v -0.315974 0.176387 0.051974
v 0.315974 0.176387 0.051974
v -0.315974 0.176387 0.023026
v 0.315974 0.176387 0.023026
v -0.315974 0.152111 -0.063254
v 0.315974 0.152112 -0.063254
v -0.315974 0.130776 -0.063254
v 0.315974 0.130776 -0.063254
v -0.315974 0.115689 -0.048168
v 0.315974 0.115689 -0.048168
v -0.315974 0.115689 -0.026832
v 0.315974 0.115689 -0.026832
v -0.315974 0.130776 -0.011746
v 0.315974 0.130776 -0.011746
v -0.315974 0.152111 -0.011746
v 0.315974 0.152112 -0.011746
v -0.315974 0.167198 -0.026832
v 0.315974 0.167198 -0.026832
v -0.315974 0.167198 -0.048168
v 0.315974 0.167198 -0.048168
v -0.315974 0.155918 -0.072444
v -0.315974 0.126970 -0.072444
v 0.315974 0.126970 -0.072444
v 0.315974 0.155918 -0.072444
v -0.315974 0.106500 -0.051974
v 0.315974 0.106500 -0.051974
v -0.315974 0.106500 -0.023026
v 0.315974 0.106500 -0.023026
v -0.315974 0.126970 -0.002556
v 0.315974 0.126970 -0.002556
v -0.315974 0.155918 -0.002556
v 0.315974 0.155918 -0.002556
v -0.315974 0.176387 -0.023026
v 0.315974 0.176387 -0.023026
v -0.315974 0.176387 -0.051974
v 0.315974 0.176387 -0.051974
v -0.124923 0.094419 0.112843
v -0.124923 0.094419 -0.112843
v -0.124923 0.179029 -0.053314
v -0.124923 0.179029 0.053314
v -0.124923 0.157237 0.074342
v -0.124923 0.157237 -0.074342
v 0.087151 0.094419 -0.112843
v 0.087151 0.094419 0.112843
v 0.087151 0.179029 0.053314
v 0.087151 0.179029 -0.053314
v 0.087151 0.157237 0.074342
v 0.087151 0.157237 -0.074342
v -0.087151 0.094419 0.112843
v -0.087151 0.094419 -0.112843
v -0.087151 0.179029 -0.053314
v -0.087151 0.179029 0.053314
v -0.087151 0.157237 0.074342
v -0.087151 0.157237 -0.074342
v 0.124923 0.094419 0.112843
v 0.124923 0.094419 -0.112843
v 0.124923 0.179029 0.053314
v 0.124923 0.179029 -0.053314
v 0.124923 0.157237 0.074342
v 0.124923 0.157237 -0.074342
v -0.128130 0.039314 0.122500
v -0.127097 0.039314 0.121776
v 0.077905 0.039314 -0.122500
v 0.080885 0.039314 -0.121776
v -0.074185 0.094419 0.112843
v -0.074185 0.094419 0.109944
v 0.137889 0.094419 0.112843
v 0.137889 0.094419 0.109944
v 0.074185 0.094419 -0.112843
v 0.074185 0.094419 -0.109944
v -0.137889 0.094419 -0.112843
v -0.137889 0.094419 -0.109944
v 0.137889 0.047386 0.116363
v -0.137889 0.047386 -0.116363
v -0.137889 0.047386 0.116363
v -0.137889 0.094419 0.109944
v -0.074185 0.047386 0.116363
v 0.137889 0.047386 -0.116363
v 0.137889 0.094419 -0.109944
v 0.074185 0.047386 -0.116363
v 0.074185 0.047386 0.116363
v 0.074185 0.094419 0.109944
v -0.074185 0.047386 -0.116363
v -0.074185 0.094419 -0.109944
v -0.137889 0.155917 -0.072447
v -0.137889 0.176389 -0.051977
v -0.074185 0.155917 -0.072447
v -0.074185 0.176389 -0.051977
v -0.074185 0.155917 0.072447
v -0.074185 0.176389 0.051977
v -0.137889 0.155917 0.072447
v -0.137889 0.176389 0.051977
v -0.137889 0.179029 -0.053314
v -0.137889 0.179029 0.053314
v 0.074185 0.155917 -0.072447
v 0.074185 0.176389 -0.051977
v 0.137889 0.155917 0.072447
v 0.137889 0.176389 0.051977
v 0.137889 0.155917 -0.072447
v 0.137889 0.176389 -0.051977
v 0.074185 0.155917 0.072447
v 0.074185 0.176389 0.051977
v 0.137889 0.179029 0.053314
v 0.137889 0.179029 -0.053314
v -0.074185 0.157237 0.074342
v -0.074185 0.157237 -0.074342
v 0.074185 0.157237 0.074342
v 0.074185 0.157237 -0.074342
v -0.137889 0.047386 0.119169
v -0.137889 0.047386 -0.119169
v 0.137889 0.047386 -0.119169
v 0.137889 0.047386 0.119169
v 0.074185 0.047386 0.119169
v -0.074185 0.047386 0.119169
v -0.074185 0.047386 -0.119169
v 0.074185 0.047386 -0.119169
v -0.137889 0.094419 0.112843
v -0.137889 0.157237 0.074342
v -0.137889 0.157237 -0.074342
v 0.074185 0.094419 0.112843
v 0.074185 0.179029 0.053314
v 0.074185 0.179029 -0.053314
v -0.074185 0.094419 -0.112843
v -0.074185 0.179029 -0.053314
v -0.074185 0.179029 0.053314
v 0.137889 0.094419 -0.112843
v 0.137889 0.157237 0.074342
v 0.137889 0.157237 -0.074342
v 0.317506 0.035447 0.109376
v 0.317506 0.035447 -0.109376
v -0.317506 0.035447 -0.109376
v -0.317506 0.035447 0.109376
v -0.325000 0.013007 -0.053543
v -0.325000 0.002572 -0.060507
v 0.325000 0.013022 0.053513
v 0.325000 0.002572 0.060487
v -0.325000 0.002572 0.060507
v -0.325000 0.013007 0.053543
v 0.325000 0.002572 -0.060487
v 0.325000 0.013022 -0.053513
v -0.317506 0.006439 0.109376
v -0.317506 0.006439 -0.109376
v 0.317506 0.006439 0.109376
v 0.317506 0.006439 -0.109376
v 0.323469 0.030508 0.092948
v 0.323469 0.030508 -0.092948
v -0.323469 0.030508 -0.092948
v -0.323469 0.030508 0.092948
v -0.323469 0.022826 -0.058594
v -0.323469 0.012913 -0.065786
v 0.323469 0.022839 0.058563
v 0.323469 0.012914 0.065766
v -0.323469 0.012913 0.065786
v -0.323469 0.022826 0.058594
v 0.323469 0.012914 -0.065766
v 0.323469 0.022839 -0.058563
v -0.323469 0.012913 0.092948
v -0.323469 0.012913 -0.092948
v 0.323469 0.012914 0.092948
v 0.323469 0.012914 -0.092948
v 0.304382 0.039314 0.122500
v 0.325000 0.039314 0.101882
v 0.325000 0.039314 -0.101882
v 0.304382 0.039314 -0.122500
v -0.304382 0.039314 -0.122500
v -0.325000 0.039314 -0.101882
v -0.325000 0.039314 0.101882
v -0.304382 0.039314 0.122500
v -0.325000 0.002572 -0.101882
v -0.304382 0.002572 -0.122500
v 0.304382 0.002572 -0.122500
v 0.325000 0.002572 -0.101882
v 0.325000 0.002572 0.101882
v 0.304382 0.002572 0.122500
v -0.304382 0.002572 0.122500
v -0.325000 0.002572 0.101882
v 0.311107 0.035447 0.114237
v 0.316737 0.035447 0.108607
v 0.316737 0.035447 -0.108607
v 0.311107 0.035447 -0.114237
v -0.311107 0.035447 -0.114237
v -0.316737 0.035447 -0.108607
v -0.316737 0.035447 0.108607
v -0.311107 0.035447 0.114237
v -0.316737 0.006439 -0.108607
v -0.311107 0.006439 -0.114237
v 0.311107 0.006439 -0.114237
v 0.316737 0.006439 -0.108607
v 0.316737 0.006439 0.108607
v 0.311107 0.006439 0.114237
v -0.311107 0.006439 0.114237
v -0.316737 0.006439 0.108607
v 0.181934 0.008531 0.122500
v 0.179857 0.010608 0.120423
v 0.036810 0.010608 0.120423
v 0.034733 0.008531 0.122500
v -0.034733 0.008531 0.122500
v -0.036810 0.010608 0.120423
v -0.179857 0.010608 0.120423
v -0.181934 0.008531 0.122500
v 0.034733 0.036469 0.122500
v 0.036810 0.034392 0.120423
v 0.179857 0.034392 0.120423
v 0.181934 0.036469 0.122500
v -0.181934 0.036469 0.122500
v -0.179857 0.034392 0.120423
v -0.036810 0.034392 0.120423
v -0.034733 0.036469 0.122500
v -0.181934 0.008531 -0.122500
v -0.179857 0.010608 -0.120423
v -0.036810 0.010608 -0.120423
v -0.034733 0.008531 -0.122500
v 0.034733 0.008531 -0.122500
v 0.036810 0.010608 -0.120423
v 0.179857 0.010608 -0.120423
v 0.181934 0.008531 -0.122500
v -0.034733 0.036469 -0.122500
v -0.036810 0.034392 -0.120423
v -0.179857 0.034392 -0.120423
v -0.181934 0.036469 -0.122500
v 0.181934 0.036469 -0.122500
v 0.179857 0.034392 -0.120423
v 0.036810 0.034392 -0.120423
v 0.034733 0.036469 -0.122500
vn -0.0000 -1.0000 -0.0000
vn -0.0000 1.0000 -0.0000
vn -0.0000 -0.0000 -1.0000
vn 1.0000 -0.0000 -0.0000
vn -0.7071 -0.0000 0.7071
vn 0.7071 -0.0000 -0.7071
vn -0.0000 -0.0000 1.0000
vn -1.0000 -0.0000 -0.0000
vn 0.7071 -0.0000 0.7071
vn -0.7071 -0.0000 -0.7071
vn -0.0000 -0.1352 0.9908
vn -0.0000 -0.1352 -0.9908
vn -0.0000 0.9898 0.1422
vn -0.0000 0.9898 -0.1422
vn -0.0000 -0.7071 0.7071
vn -0.0000 -0.5206 -0.8538
vn -0.0000 0.6944 0.7196
vn -0.0000 -0.7071 -0.7071
vn -0.0000 0.5226 -0.8526
vn -0.0000 0.6944 -0.7196
vn -0.0000 -0.5206 0.8538
vn -0.0000 0.6826 0.7308
vn -0.0000 0.6826 -0.7308
vn -0.0000 0.5244 0.8514
vn -0.0000 0.5244 -0.8514
vn -0.0000 0.1415 -0.9899
vn -0.0000 0.6803 0.7330
vn -0.0000 0.1415 0.9899
vn -0.0000 0.6803 -0.7330
vn -0.0000 0.5247 0.8513
vn -0.0000 0.5247 -0.8513
vn -0.6450 -0.4238 0.6359
vn 0.6422 -0.4251 -0.6379
vn -0.6450 -0.4238 -0.6359
vn -0.7724 -0.6351 -0.0000
vn 0.6422 -0.4251 0.6378
vn 0.7739 -0.6333 -0.0000
vn -0.5000 -0.7071 -0.5000
vn 0.5000 -0.7071 -0.5000
vn 0.5000 -0.7071 0.5000
vn -0.5000 -0.7071 0.5000
vn -0.7071 -0.7071 -0.0000
vn 0.7071 -0.7071 -0.0000
vn 0.8887 -0.0000 0.4584
vn -0.0000 -0.5540 0.8325
vn -0.0000 -0.5540 -0.8325
vn 0.8802 -0.4746 -0.0000
vn -0.7071 0.7071 -0.0000
vn 0.7071 0.7071 -0.0000
vn -0.5000 0.7071 0.5000
vn -0.5000 0.7071 -0.5000
vn 0.5000 0.7071 -0.5000
vn 0.5000 0.7071 0.5000
vn -0.0000 0.7071 -0.7071
vn -0.0000 0.7071 0.7071
vn -0.0150 0.1367 0.9905
vn -0.0000 0.1333 -0.9911
vn -0.0000 0.1131 0.9936
vn 0.0150 0.1367 0.9905
vn 0.0150 0.1367 -0.9905
vn -0.0000 0.5226 0.8526
vn -0.0000 0.1131 -0.9936
vn -0.0150 0.1367 -0.9905
vn -0.0000 0.1333 0.9911
vn -0.9439 0.3303 -0.0000
vn -0.8803 -0.4745 -0.0000
vn -0.9330 0.2055 -0.2954
vn 0.9439 0.3302 -0.0000
vn 0.9330 0.2055 0.2954
vn -0.9330 0.2055 0.2953
vn -0.8887 -0.0000 0.4584
vn -0.9293 0.3692 -0.0000
vn -0.8887 -0.0000 -0.4584
vn 0.9330 0.2055 -0.2954
vn 0.8887 -0.0000 -0.4584
vn 0.9293 0.3694 -0.0000
vt 0.584289 0.257930
vt 0.586071 0.494713
vt 0.872640 0.523633
vt 0.872640 0.726367
vt 0.866092 0.743738
vt 0.629627 0.748018
vt 0.626708 0.727020
vt 0.626708 0.522981
vt 0.629627 0.501982
vt 0.866092 0.506262
vt 0.575468 0.494713
vt 0.574895 0.407814
vt 0.573905 0.257930
vt 0.575078 0.521039
vt 0.575078 0.728961
vt 0.563719 0.728961
vt 0.563719 0.521039
vt 0.589669 0.755287
vt 0.579447 0.755287
vt 0.572979 0.796295
vt 0.577802 0.804776
vt 0.583451 0.021039
vt 0.583451 0.228961
vt 0.587812 0.844499
vt 0.583451 0.837301
vt 0.587812 0.992070
vt 0.577802 0.992070
vt 0.578281 0.923162
vt 0.625908 0.529745
vt 0.625908 0.434489
vt 0.626788 0.831884
vt 0.626788 0.762923
vt 0.572979 0.021039
vt 0.572979 0.228961
vt 0.700040 0.753688
vt 0.700580 0.749909
vt 0.700538 0.750207
vt 0.714911 0.496640
vt 0.715402 0.500386
vt 0.715364 0.500091
vt 0.701035 0.503275
vt 0.701035 0.746725
vt 0.715816 0.746458
vt 0.625908 0.339234
vt 0.625855 0.334528
vt 0.715364 0.708273
vt 0.714911 0.710573
vt 0.714911 0.667787
vt 0.715364 0.666636
vt 0.625855 0.528176
vt 0.625855 0.721824
vt 0.715816 0.503542
vt 0.779904 0.745298
vt 0.794684 0.745030
vt 0.779904 0.504702
vt 0.794684 0.504970
vt 0.626736 0.766061
vt 0.626736 0.836591
vt 0.625855 0.915472
vt 0.625908 0.910766
vt 0.794684 0.544980
vt 0.779904 0.544801
vt 0.779904 0.584901
vt 0.794684 0.584990
vt 0.779853 0.542592
vt 0.779802 0.540382
vt 0.779802 0.582691
vt 0.779853 0.583796
vt 0.779904 0.665099
vt 0.794684 0.665010
vt 0.794684 0.705020
vt 0.779904 0.705199
vt 0.794679 0.707210
vt 0.794679 0.666105
vt 0.625855 0.818648
vt 0.625908 0.339234
vt 0.779802 0.667309
vt 0.779853 0.666204
vt 0.779853 0.707408
vt 0.779802 0.709618
vt 0.779802 0.751927
vt 0.779853 0.748612
vt 0.701035 0.706150
vt 0.715816 0.705972
vt 0.715816 0.665486
vt 0.701035 0.665575
vt 0.794679 0.542790
vt 0.794679 0.501686
vt 0.626736 0.836591
vt 0.626788 0.831884
vt 0.625855 0.431352
vt 0.714911 0.582213
vt 0.715364 0.583364
vt 0.715364 0.541727
vt 0.714911 0.539427
vt 0.715816 0.584514
vt 0.701035 0.584425
vt 0.701035 0.543850
vt 0.715816 0.544028
vt 0.625855 0.334527
vt 0.779853 0.501388
vt 0.779802 0.498073
vt 0.625908 0.815511
vt 0.625908 0.720255
vt 0.715364 0.749909
vt 0.714911 0.753360
vt 0.625855 0.915473
vt 0.779857 0.501671
vt 0.625963 0.812177
vt 0.625963 0.718588
vt 0.625799 0.428018
vt 0.625799 0.526509
vt 0.625799 0.723491
vt 0.625799 0.821982
vt 0.625963 0.531411
vt 0.625963 0.437823
vt 0.626736 0.695530
vt 0.626680 0.697197
vt 0.626680 0.769394
vt 0.626788 0.693961
vt 0.626844 0.759589
vt 0.626844 0.692295
vt 0.626788 0.487077
vt 0.626788 0.556039
vt 0.626844 0.557705
vt 0.626844 0.490411
vt 0.626736 0.554470
vt 0.626736 0.483939
vt 0.626680 0.480606
vt 0.626680 0.552803
vt 0.625908 0.910766
vt 0.625963 0.905765
vt 0.625799 0.920473
vt 0.625799 0.329527
vt 0.625963 0.344234
vt 0.626680 0.841591
vt 0.626844 0.826884
vt 0.626788 0.418116
vt 0.626844 0.423116
vt 0.626736 0.413409
vt 0.626680 0.408409
vt 0.626788 0.418116
vt 0.626736 0.413409
vt 0.507344 0.185819
vt 0.150912 0.537575
vt 0.125989 0.564181
vt 0.500000 0.187316
vt 0.509221 0.685819
vt 0.398643 0.687701
vt 0.374505 0.684589
vt 0.500000 0.683360
vt 0.398842 0.062287
vt 0.509792 0.064181
vt 0.500000 0.066640
vt 0.375000 0.066640
vt 0.398643 0.562299
vt 0.509221 0.564181
vt 0.500000 0.562684
vt 0.374011 0.564181
vt 0.133351 0.502612
vt 0.125993 0.522122
vt 0.125000 0.521039
vt 0.132930 0.500000
vt 0.374314 0.521822
vt 0.371534 0.497751
vt 0.384471 0.494611
vt 0.387344 0.521039
vt 0.371534 0.752249
vt 0.374314 0.728178
vt 0.387344 0.728961
vt 0.384627 0.755389
vt 0.125993 0.727878
vt 0.133351 0.747388
vt 0.132930 0.750000
vt 0.125000 0.728961
vt 0.125000 0.686741
vt 0.125989 0.685819
vt 0.417263 0.527005
vt 0.536189 0.527047
vt 0.536189 0.722953
vt 0.438990 0.504235
vt 0.517723 0.504264
vt 0.516521 0.738541
vt 0.519576 0.745736
vt 0.441934 0.265218
vt 0.442323 0.267074
vt 0.520478 0.247393
vt 0.442632 0.247381
vt 0.611404 0.841646
vt 0.612463 0.905716
vt 0.610631 0.920412
vt 0.604903 0.965487
vt 0.607122 0.755287
vt 0.613248 0.826938
vt 0.602546 0.228961
vt 0.602546 0.021039
vt 0.625000 0.022447
vt 0.625000 0.228943
vt 0.598021 0.728961
vt 0.598021 0.521039
vt 0.625927 0.522093
vt 0.625927 0.727907
vt 0.866539 0.746601
vt 0.873719 0.727554
vt 0.875000 0.728961
vt 0.867070 0.750000
vt 0.625003 0.257512
vt 0.602999 0.257930
vt 0.628449 0.497538
vt 0.605177 0.494713
vt 0.628449 0.752462
vt 0.611039 0.329582
vt 0.611815 0.408360
vt 0.609336 0.344290
vt 0.610099 0.423055
vt 0.625006 0.991535
vt 0.873719 0.522447
vt 0.602546 0.912075
vt 0.794679 0.748034
vt 0.866539 0.503399
vt 0.794679 0.501967
vt 0.794674 0.498401
vt 0.700580 0.500091
vt 0.779857 0.748329
vt 0.715402 0.749614
vt 0.700538 0.499793
vt 0.574887 0.406623
vt 0.578279 0.923516
vt 1.000000 0.500000
vt 1.000000 1.000000
vt 0.875000 1.000000
vt 0.875000 0.500000
vt 0.750000 1.000000
vt 0.750000 0.500000
vt 0.625000 1.000000
vt 0.625000 0.500000
vt 0.500000 1.000000
vt 0.500000 0.500000
vt 0.375000 1.000000
vt 0.375000 0.500000
vt 0.250000 1.000000
vt 0.250000 0.500000
vt 0.124923 0.375077
vt 0.073115 0.250000
vt 0.573115 0.250000
vt 0.624923 0.375077
vt 0.125000 1.000000
vt 0.125000 0.500000
vt 0.000000 1.000000
vt 0.000000 0.500000
vt 0.250000 0.426885
vt 0.750000 0.426885
vt 0.875077 0.375077
vt 0.750000 0.490000
vt 0.919706 0.419706
vt 0.375077 0.375077
vt 0.419706 0.419706
vt 0.250000 0.490000
vt 0.926885 0.250000
vt 0.990000 0.250000
vt 0.426885 0.250000
vt 0.490000 0.250000
vt 0.875077 0.124923
vt 0.919706 0.080294
vt 0.375077 0.124923
vt 0.419706 0.080294
vt 0.750000 0.073115
vt 0.750000 0.010000
vt 0.250000 0.073115
vt 0.250000 0.010000
vt 0.624923 0.124923
vt 0.580294 0.080294
vt 0.124923 0.124923
vt 0.080294 0.080294
vt 0.510000 0.250000
vt 0.010000 0.250000
vt 0.580294 0.419706
vt 0.080294 0.419706
vt 0.794674 0.540601
vt 0.794674 0.667199
vt 0.794674 0.709399
vt 0.794679 0.748314
vt 0.794674 0.751598
vt 0.794674 0.582800
vt 0.794679 0.583895
vt 0.700040 0.582104
vt 0.700538 0.583264
vt 0.700538 0.541529
vt 0.700040 0.539208
vt 0.700538 0.708471
vt 0.700040 0.710792
vt 0.700040 0.496312
vt 0.700040 0.667896
vt 0.700538 0.666736
vt 0.543982 0.222976
vt 0.544004 0.030304
vt 0.502287 0.185705
vt 0.433336 0.191476
vt 0.398842 0.187713
vt 0.500103 0.685622
vt 0.432192 0.691431
vt 0.433655 0.060873
vt 0.503309 0.065925
vt 0.432192 0.558569
vt 0.500103 0.564378
vt 0.419231 0.045780
vt 0.387950 0.046394
vt 0.419219 0.223015
vt 0.387950 0.228961
vt 0.417263 0.722995
vt 0.515498 0.511459
vt 0.520119 0.239486
vt 0.520863 0.582825
vt 0.521877 0.584990
vt 0.442056 0.239480
vt 0.390450 0.257887
vt 0.438792 0.511444
vt 0.439272 0.738556
vt 0.439770 0.745765
vt 0.388266 0.052641
vt 0.458333 0.802758
vt 0.458333 0.856844
vt 0.445581 0.861462
vt 0.444606 0.804740
vt 0.458333 0.884679
vt 0.458333 0.938764
vt 0.445290 0.944920
vt 0.445687 0.888218
vt 0.541667 0.856844
vt 0.541667 0.802759
vt 0.553746 0.804554
vt 0.553122 0.861331
vt 0.541667 0.938764
vt 0.541667 0.884679
vt 0.553083 0.888112
vt 0.553472 0.944865
vt 0.458333 0.311235
vt 0.458333 0.365321
vt 0.445581 0.361784
vt 0.445147 0.305083
vt 0.458333 0.393156
vt 0.458333 0.447241
vt 0.444576 0.445260
vt 0.445493 0.388539
vt 0.541667 0.365321
vt 0.541667 0.311235
vt 0.552600 0.305135
vt 0.552253 0.361888
vt 0.541667 0.447241
vt 0.541667 0.393156
vt 0.552290 0.388669
vt 0.552856 0.445446
vt 0.391798 0.992134
s 0
usemtl M_Noir_Bleuté
f 26/1/1 27/2/1 43/2/1 42/1/1
f 4/3/4 15/3/4 14/4/4 1/4/4
f 23/15/1 34/18/1 46/18/1 37/15/1
f 517/19/2 518/16/2 38/16/2 45/19/2
f 523/20/2 524/21/2 48/21/2 10/20/2
f 22/14/1 23/15/1 37/15/1 11/14/1
f 30/22/1 31/23/1 39/23/1 9/22/1
f 35/24/1 30/25/1 9/25/1 47/24/1
f 87/29/8 104/30/8 156/30/8 145/29/8
f 6/7/8 19/7/8 18/8/8 7/8/8
f 53/31/8 106/32/8 157/32/8 142/31/8
f 523/33/2 10/33/2 40/34/2 522/34/2
f 2/5/6 1/4/6 14/4/6 13/5/6
f 4/3/9 3/10/9 16/10/9 15/3/9
f 219/35/4 220/36/4 411/37/4 113/35/4
f 8/9/5 7/8/5 18/8/5 17/9/5
f 6/7/10 5/6/10 20/6/10 19/7/10
f 518/16/2 519/17/2 12/17/2 38/16/2
f 521/13/2 522/34/2 40/34/2 41/13/2
f 34/18/1 35/26/1 47/26/1 46/18/1
f 31/23/1 26/1/1 42/1/1 39/23/1
f 519/17/2 520/11/2 44/11/2 12/17/2
f 231/38/8 232/39/8 399/40/8 118/38/8
f 27/2/1 22/14/1 11/14/1 43/2/1
f 78/41/11 67/41/11 434/41/11 435/41/11
f 70/42/12 69/43/12 55/43/12 56/42/12
f 58/44/13 57/45/13 166/45/13 165/44/13
f 403/46/8 129/47/8 130/48/8 401/49/8
f 86/50/4 85/51/4 148/51/4 146/50/4
f 68/52/11 67/41/11 78/41/11 77/52/11
f 72/53/12 71/54/12 51/54/12 52/53/12
f 8/9/7 17/9/7 67/41/7 68/52/7 65/55/7 66/56/7 16/10/7 3/10/7
f 2/5/3 13/5/3 71/54/3 72/53/3 69/43/3 70/42/3 20/6/3 5/6/3
f 66/56/11 65/55/11 74/55/11 73/56/11
f 105/57/4 119/58/4 141/58/4 158/57/4
f 64/59/14 63/60/14 164/60/14 163/59/14
f 102/61/15 103/62/15 82/63/15 84/64/15
f 410/65/4 127/66/4 128/67/4 407/68/4
f 84/64/1 82/63/1 81/69/1 83/70/1
f 99/71/16 98/72/16 52/53/16 51/54/16
f 397/73/17 396/74/17 450/74/17 474/73/17
f 232/39/1 68/52/1 436/52/1 472/39/1
f 85/51/4 100/75/4 153/75/4 148/51/4
f 104/30/8 120/76/8 139/76/8 156/30/8
f 407/68/4 128/67/4 122/77/4 408/78/4
f 409/79/4 121/80/4 117/81/4 405/82/4
f 72/53/12 52/53/12 422/53/12 433/53/12
f 107/83/18 108/84/18 95/85/18 90/86/18
f 398/87/19 394/88/19 427/88/19 475/87/19
f 410/65/20 407/68/20 480/68/20 462/65/20
f 62/89/14 61/90/14 162/90/14 161/89/14
f 101/91/4 86/50/4 146/50/4 155/91/4
f 401/49/8 130/48/8 136/92/8 402/93/8
f 404/94/8 135/95/8 118/38/8 399/40/8
f 90/86/1 95/85/1 96/96/1 89/97/1
f 110/98/21 109/99/21 77/52/21 78/41/21
f 408/78/4 122/77/4 121/80/4 409/79/4
f 114/100/4 101/91/4 155/91/4 140/100/4
f 51/54/12 71/54/12 431/54/12 432/54/12
f 83/70/18 81/69/18 98/72/18 99/71/18
f 406/101/4 75/102/4 127/66/4 410/65/4
f 73/56/21 74/55/21 103/62/21 102/61/21
f 97/103/8 88/104/8 147/104/8 154/103/8
f 109/99/15 96/96/15 452/96/15 451/99/15
f 56/42/16 55/43/16 108/84/16 107/83/16
f 407/68/2 408/78/2 481/78/2 480/68/2
f 400/105/8 54/106/8 129/47/8 403/46/8
f 100/75/4 50/107/4 143/107/4 153/75/4
f 89/97/15 96/96/15 109/99/15 110/98/15
f 402/93/8 136/92/8 135/95/8 404/94/8
f 120/76/8 58/44/8 165/44/8 139/76/8
f 65/55/1 225/108/1 471/108/1 439/55/1
f 88/104/22 97/103/22 121/109/22 122/110/22
f 86/50/23 101/91/23 123/111/23 124/112/23
f 100/75/22 85/51/22 126/113/22 125/114/22
f 85/51/2 86/50/2 124/112/2 126/113/2
f 104/30/23 87/29/23 128/115/23 127/116/23
f 87/29/2 88/104/2 122/110/2 128/115/2
f 105/57/22 94/117/22 130/118/22 129/119/22
f 92/120/22 106/32/22 131/121/22 132/122/22
f 111/123/23 91/124/23 134/125/23 133/126/23
f 91/124/2 92/120/2 132/122/2 134/125/2
f 93/127/23 112/128/23 135/129/23 136/130/23
f 94/117/2 93/127/2 136/130/2 130/118/2
f 97/103/24 49/131/24 117/132/24 121/109/24
f 50/107/24 100/75/24 125/114/24 115/133/24
f 101/91/25 114/100/25 76/134/25 123/111/25
f 120/76/25 104/30/25 127/116/25 75/135/25
f 119/58/24 105/57/24 129/119/24 54/136/24
f 106/32/24 53/31/24 113/137/24 131/121/24
f 116/138/25 111/123/25 133/126/25 79/139/25
f 112/128/25 80/140/25 118/141/25 135/129/25
f 60/142/13 59/143/13 168/143/13 167/142/13
f 111/123/8 116/138/8 137/138/8 159/123/8
f 88/104/8 87/29/8 145/29/8 147/104/8
f 61/90/8 53/31/8 142/31/8 162/90/8
f 80/140/4 112/128/4 160/128/4 138/140/4
f 94/117/4 105/57/4 158/57/4 149/117/4
f 57/45/4 114/100/4 140/100/4 166/45/4
f 106/32/8 92/120/8 150/120/8 157/32/8
f 50/107/4 64/59/4 163/59/4 143/107/4
f 91/124/8 111/123/8 159/123/8 152/124/8
f 116/138/8 60/142/8 167/142/8 137/138/8
f 92/120/8 91/124/8 152/124/8 150/120/8
f 63/60/8 49/131/8 144/131/8 164/60/8
f 112/128/4 93/127/4 151/127/4 160/128/4
f 59/143/4 80/140/4 138/140/4 168/143/4
f 93/127/4 94/117/4 149/117/4 151/127/4
f 119/58/4 62/89/4 161/89/4 141/58/4
f 49/131/8 97/103/8 154/103/8 144/131/8
f 489/144/32 490/145/32 170/146/32 177/147/32
f 491/148/33 492/149/33 174/150/33 181/151/33
f 493/152/34 494/153/34 180/154/34 172/155/34
f 177/147/35 180/154/35 494/153/35 489/144/35
f 495/156/36 496/157/36 184/158/36 176/159/36
f 181/151/37 184/158/37 496/157/37 491/148/37
f 192/160/38 189/161/38 525/162/38 526/163/38
f 200/164/39 197/165/39 527/166/39 528/167/39
f 196/168/40 193/169/40 529/170/40 530/171/40
f 188/172/41 185/173/41 531/174/41 532/175/41
f 532/175/42 493/176/42 172/177/42 188/172/42
f 530/171/15 531/174/15 185/173/15 196/168/15
f 490/145/42 525/162/42 189/161/42 170/146/42
f 492/149/43 529/170/43 193/169/43 174/150/43
f 526/163/18 527/166/18 197/165/18 192/160/18
f 528/167/43 495/156/43 176/159/43 200/164/43
f 199/178/44 21/179/44 502/179/44 516/178/44
f 177/147/45 170/146/45 176/159/45 184/158/45
f 189/161/1 192/160/1 197/165/1 200/164/1 176/159/1 170/146/1
f 172/177/1 174/150/1 193/169/1 196/168/1 185/173/1 188/172/1
f 181/151/46 174/150/46 172/155/46 180/154/46
f 21/179/47 24/180/47 501/180/47 502/179/47
f 177/147/1 184/158/1 181/151/1 180/154/1
f 198/181/9 28/182/9 536/182/9 543/181/9
f 485/183/1 33/184/1 533/184/1 534/183/1
f 497/185/2 186/186/2 547/186/2 548/185/2
f 25/187/5 191/188/5 542/188/5 537/187/5
f 218/189/7 223/190/7 222/191/7 201/192/7 35/26/7 34/18/7 216/193/7 219/194/7
f 205/195/48 204/196/48 203/197/48 206/198/48
f 213/199/49 212/200/49 211/201/49 214/202/49
f 202/203/50 203/204/50 204/205/50 201/206/50
f 206/198/51 207/207/51 208/208/51 205/195/51
f 210/209/52 211/201/52 212/200/52 209/210/52
f 214/202/53 215/211/53 216/193/53 213/199/53
f 227/212/54 208/208/54 207/207/54 228/134/54
f 225/135/54 232/141/54 231/213/54 226/214/54
f 229/139/54 210/209/54 209/210/54 230/215/54
f 219/194/55 216/193/55 215/211/55 220/137/55
f 217/136/55 224/132/55 223/190/55 218/189/55
f 221/133/55 202/216/55 201/192/55 222/191/55
f 31/23/8 30/22/8 204/196/8 205/195/8
f 15/3/2 206/217/2 203/204/2 14/4/2
f 23/15/4 22/14/4 212/200/4 213/199/4
f 19/7/2 214/202/2 211/201/2 18/8/2
f 30/25/5 35/24/5 201/192/5 204/218/5
f 13/5/2 14/4/2 203/204/2 202/203/2
f 71/54/2 13/5/2 202/203/2 221/219/2
f 26/1/10 31/23/10 205/195/10 208/208/10
f 15/3/2 16/10/2 207/220/2 206/217/2
f 16/10/2 66/56/2 228/221/2 207/220/2
f 227/222/8 228/221/8 394/88/8 76/222/8
f 22/14/6 27/2/6 209/210/6 212/200/6
f 17/9/2 18/8/2 211/201/2 210/209/2
f 67/41/2 17/9/2 210/209/2 229/223/2
f 34/18/9 23/15/9 213/199/9 216/193/9
f 19/7/2 20/6/2 215/211/2 214/202/2
f 20/6/2 70/42/2 220/36/2 215/211/2
f 54/136/56 218/189/56 62/89/56 119/58/56
f 225/135/57 406/101/57 479/101/57 471/135/57
f 69/43/2 72/53/2 224/224/2 217/225/2
f 61/90/58 62/89/58 218/189/58 219/194/58
f 219/35/59 113/137/59 53/31/59 61/90/59
f 66/56/11 73/56/11 428/56/11 430/56/11
f 63/60/58 64/59/58 222/191/58 223/190/58
f 115/133/56 222/191/56 64/59/56 50/107/56
f 223/81/59 117/132/59 49/131/59 63/60/59
f 75/135/60 226/214/60 58/44/60 120/76/60
f 409/79/61 405/82/61 421/82/61 461/79/61
f 65/55/2 68/52/2 232/39/2 225/108/2
f 57/45/62 58/44/62 226/214/62 227/212/62
f 227/222/63 76/134/63 114/100/63 57/45/63
f 229/139/57 412/226/57 482/226/57 467/139/57
f 59/143/62 60/142/62 230/215/62 231/213/62
f 79/139/60 230/215/60 60/142/60 116/138/60
f 230/215/3 209/210/3 27/2/3 26/1/3 208/208/3 227/212/3 226/214/3 231/213/3
f 231/38/63 118/141/63 80/140/63 59/143/63
f 44/11/2 520/11/2 419/227/2 420/12/2
f 223/81/4 224/224/4 405/82/4 117/81/4
f 48/27/2 524/27/2 417/228/2 418/28/2
f 76/222/8 394/88/8 398/87/8 123/279/8
f 126/280/8 396/74/8 397/73/8 125/281/8
f 125/281/8 397/73/8 393/282/8 115/283/8
f 124/284/8 395/285/8 396/74/8 126/280/8
f 123/279/8 398/87/8 395/285/8 124/284/8
f 70/42/12 56/42/12 424/42/12 429/42/12
f 408/78/17 409/79/17 461/79/17 481/78/17
f 406/101/19 410/65/19 462/65/19 479/101/19
f 399/40/57 232/39/57 472/39/57 425/40/57
f 99/71/16 51/54/16 432/54/16 447/71/16
f 52/53/16 98/72/16 445/72/16 422/53/16
f 224/224/1 72/53/1 433/53/1 470/224/1
f 394/88/57 228/221/57 466/221/57 427/88/57
f 110/98/21 78/41/21 435/41/21 455/98/21
f 69/43/1 217/225/1 469/225/1 437/43/1
f 134/286/4 414/287/4 416/288/4 133/289/4
f 113/35/4 411/37/4 415/290/4 131/291/4
f 133/289/4 416/288/4 412/226/4 79/292/4
f 132/293/4 413/294/4 414/287/4 134/286/4
f 131/291/4 415/290/4 413/294/4 132/293/4
f 217/136/64 400/105/64 476/105/64 469/136/64
f 77/52/21 109/99/21 451/99/21 426/52/21
f 393/282/8 221/133/8 222/191/8 115/283/8
f 418/28/2 417/228/2 517/19/2 45/19/2
f 400/105/8 217/136/8 218/189/8 54/106/8
f 220/36/1 70/42/1 429/42/1 468/36/1
f 221/133/64 393/282/64 473/282/64 465/133/64
f 420/12/2 419/227/2 521/13/2 41/13/2
f 412/226/4 229/139/4 230/215/4 79/292/4
f 406/101/4 225/135/4 226/214/4 75/102/4
f 475/87/8 441/61/8 442/64/8 449/285/8
f 449/285/8 442/64/8 448/70/8 450/74/8
f 474/73/8 447/71/8 432/54/8 473/282/8
f 483/290/4 453/83/4 454/86/4 459/294/4
f 459/294/4 454/86/4 456/97/4 460/287/4
f 484/288/4 455/98/4 435/41/4 482/226/4
f 450/74/8 448/70/8 447/71/8 474/73/8
f 427/88/8 428/56/8 441/61/8 475/87/8
f 423/37/4 424/42/4 453/83/4 483/290/4
f 460/287/4 456/97/4 455/98/4 484/288/4
f 465/133/8 473/282/8 432/54/8 431/54/8
f 469/136/8 476/105/8 438/43/8 437/43/8
f 467/139/4 482/226/4 435/41/4 434/41/4
f 471/135/4 479/101/4 440/55/4 439/55/4
f 452/96/8 478/93/8 464/94/8 451/99/8
f 438/43/8 476/105/8 463/46/8 457/84/8
f 451/99/8 464/94/8 425/40/8 426/52/8
f 458/85/8 477/49/8 478/93/8 452/96/8
f 457/84/8 463/46/8 477/49/8 458/85/8
f 440/55/4 479/101/4 462/65/4 443/62/4
f 446/69/4 481/78/4 461/79/4 445/72/4
f 445/72/4 461/79/4 421/82/4 422/53/4
f 444/63/4 480/68/4 481/78/4 446/69/4
f 443/62/4 462/65/4 480/68/4 444/63/4
f 423/37/4 468/36/4 429/42/4 424/42/4
f 421/82/4 470/224/4 433/53/4 422/53/4
f 427/88/8 466/221/8 430/56/8 428/56/8
f 425/40/8 472/39/8 436/52/8 426/52/8
f 73/56/21 102/61/21 441/61/21 428/56/21
f 107/83/18 90/86/18 454/86/18 453/83/18
f 393/282/61 397/73/61 474/73/61 473/282/61
f 68/52/11 77/52/11 426/52/11 436/52/11
f 103/62/21 74/55/21 440/55/21 443/62/21
f 89/97/15 110/98/15 455/98/15 456/97/15
f 396/74/2 395/285/2 449/285/2 450/74/2
f 55/43/12 69/43/12 437/43/12 438/43/12
f 90/86/1 89/97/1 456/97/1 454/86/1
f 395/285/20 398/87/20 475/87/20 449/285/20
f 74/55/11 65/55/11 439/55/11 440/55/11
f 416/288/20 414/287/20 460/287/20 484/288/20
f 71/54/1 221/219/1 465/219/1 431/54/1
f 102/61/15 84/64/15 442/64/15 441/61/15
f 415/290/61 411/37/61 423/37/61 483/290/61
f 82/63/15 103/62/15 443/62/15 444/63/15
f 412/226/19 416/288/19 484/288/19 482/226/19
f 95/85/18 108/84/18 457/84/18 458/85/18
f 98/72/18 81/69/18 446/69/18 445/72/18
f 414/287/2 413/294/2 459/294/2 460/287/2
f 228/221/1 66/56/1 430/56/1 466/221/1
f 96/96/1 95/85/1 458/85/1 452/96/1
f 81/69/1 82/63/1 444/63/1 446/69/1
f 413/294/17 415/290/17 483/290/17 459/294/17
f 56/42/16 107/83/16 453/83/16 424/42/16
f 402/93/20 404/94/20 464/94/20 478/93/20
f 83/70/18 99/71/18 447/71/18 448/70/18
f 411/37/64 220/36/64 468/36/64 423/37/64
f 108/84/16 55/43/16 438/43/16 457/84/16
f 400/105/61 403/46/61 463/46/61 476/105/61
f 84/64/1 83/70/1 448/70/1 442/64/1
f 405/82/64 224/224/64 470/224/64 421/82/64
f 404/94/19 399/40/19 425/40/19 464/94/19
f 401/49/2 402/93/2 478/93/2 477/49/2
f 67/41/1 229/223/1 467/223/1 434/41/1
f 403/46/17 401/49/17 477/49/17 463/46/17
f 24/180/4 21/179/4 519/17/4 518/16/4
f 32/295/8 29/296/8 523/33/8 522/34/8
f 178/297/8 169/298/8 490/299/8 489/144/8
f 182/300/4 173/301/4 492/149/4 491/148/4
f 171/302/8 179/303/8 494/153/8 493/152/8
f 179/303/8 178/297/8 489/144/8 494/153/8
f 175/304/4 183/305/4 496/157/4 495/156/4
f 183/305/4 182/300/4 491/148/4 496/157/4
f 187/306/8 171/302/8 493/152/8 532/307/8
f 169/298/8 190/308/8 525/309/8 490/299/8
f 173/301/4 194/310/4 529/170/4 492/149/4
f 199/178/4 175/304/4 495/156/4 528/167/4
f 190/308/8 32/295/8 522/34/8 525/309/8
f 29/296/8 187/306/8 532/307/8 523/33/8
f 194/310/4 24/180/4 518/16/4 529/170/4
f 21/179/4 199/178/4 528/167/4 519/17/4
f 171/302/65 187/306/65 513/306/65 509/302/65
f 29/296/66 32/295/66 503/295/66 504/296/66
f 190/308/65 169/298/65 506/298/65 514/308/65
f 169/298/67 178/297/67 505/297/67 506/298/67
f 194/310/68 173/301/68 508/301/68 515/310/68
f 173/301/69 182/300/69 507/300/69 508/301/69
f 175/304/68 199/178/68 516/178/68 511/304/68
f 179/303/70 171/302/70 509/302/70 510/303/70
f 32/295/71 190/308/71 514/308/71 503/295/71
f 178/297/72 179/303/72 510/303/72 505/297/72
f 187/306/73 29/296/73 504/296/73 513/306/73
f 183/305/74 175/304/74 511/304/74 512/305/74
f 24/180/75 194/310/75 515/310/75 501/180/75
f 182/300/76 183/305/76 512/305/76 507/300/76
f 33/184/9 485/183/9 518/16/9 517/19/9
f 486/311/6 28/182/6 520/11/6 519/17/6
f 25/187/10 487/312/10 522/34/10 521/13/10
f 488/313/5 36/314/5 524/21/5 523/20/5
f 498/315/10 191/188/10 526/316/10 525/309/10
f 198/181/6 500/317/6 528/167/6 527/166/6
f 499/318/9 195/319/9 530/171/9 529/170/9
f 186/186/5 497/185/5 532/307/5 531/320/5
f 487/312/10 498/315/10 525/309/10 522/34/10
f 497/185/5 488/313/5 523/20/5 532/307/5
f 485/183/9 499/318/9 529/170/9 518/16/9
f 500/317/6 486/311/6 519/17/6 528/167/6
f 36/314/5 186/186/5 531/320/5 524/21/5
f 195/319/9 33/184/9 517/19/9 530/171/9
f 191/188/10 25/187/10 521/13/10 526/316/10
f 28/182/6 198/181/6 527/166/6 520/11/6
f 498/315/6 487/312/6 538/312/6 541/315/6
f 28/182/1 486/311/1 535/311/1 536/182/1
f 488/313/9 497/185/9 548/185/9 539/313/9
f 487/312/1 25/187/1 537/187/1 538/312/1
f 499/318/5 485/183/5 534/183/5 545/318/5
f 36/314/1 488/313/1 539/313/1 540/314/1
f 486/311/10 500/317/10 544/317/10 535/311/10
f 191/188/2 498/315/2 541/315/2 542/188/2
f 186/186/10 36/314/10 540/314/10 547/186/10
f 500/317/2 198/181/2 543/181/2 544/317/2
f 33/184/6 195/319/6 546/319/6 533/184/6
f 195/319/2 499/318/2 545/318/2 546/319/2
f 550/321/55 551/322/55 552/323/55 549/324/55
f 554/325/55 555/326/55 556/327/55 553/328/55
f 566/337/54 567/338/54 568/339/54 565/340/54
f 570/341/54 571/342/54 572/343/54 569/344/54
f 557/332/9 552/323/9 551/322/9 558/329/9
f 549/324/5 560/331/5 559/330/5 550/321/5
f 561/336/9 556/327/9 555/326/9 562/333/9
f 553/328/5 564/335/5 563/334/5 554/325/5
f 573/348/10 568/339/10 567/338/10 574/345/10
f 565/340/6 576/347/6 575/346/6 566/337/6
f 577/352/10 572/343/10 571/342/10 578/349/10
f 569/344/6 580/351/6 579/350/6 570/341/6
f 549/324/7 552/323/7 553/328/7 556/327/7 531/353/7 530/171/7
f 530/171/7 517/19/7 560/331/7 549/324/7
f 550/321/2 571/342/2 570/341/2 551/322/2
f 552/323/7 557/332/7 564/335/7 553/328/7
f 554/325/2 567/338/2 566/337/2 555/326/2
f 561/336/7 524/27/7 531/353/7 556/327/7
f 560/331/7 517/19/7 417/228/7 524/27/7 561/336/7 564/335/7 557/332/7
f 526/316/3 565/340/3 568/339/3 569/344/3 572/343/3 527/166/3
f 521/13/3 576/347/3 565/340/3 526/316/3
f 568/339/3 573/348/3 580/351/3 569/344/3
f 527/166/3 572/343/3 577/352/3 520/11/3
f 520/11/3 577/352/3 580/351/3 573/348/3 576/347/3 521/13/3 419/227/3
usemtl M_Noir_Profond
f 4/3/2 1/4/2 2/5/2 5/6/2 6/7/2 7/8/2 8/9/2 3/10/2
f 42/1/3 43/2/3 44/11/3 420/12/3 41/13/3
f 11/14/4 37/15/4 38/16/4 12/17/4
f 47/24/5 9/25/5 10/20/5 48/21/5
f 43/2/6 11/14/6 12/17/6 44/11/6
f 46/18/7 47/26/7 48/27/7 418/28/7 45/19/7
f 9/22/8 39/23/8 40/34/8 10/33/8
f 39/23/10 42/1/10 41/13/10 40/34/10
f 45/19/9 38/16/9 37/15/9 46/18/9
f 504/296/8 503/295/8 514/308/8 506/298/8 505/297/8 510/303/8 509/302/8 513/306/8
f 502/179/4 501/180/4 515/310/4 508/301/4 507/300/4 512/305/4 511/304/4 516/178/4
f 558/329/15 559/330/15 560/331/15 557/332/15
f 562/333/15 563/334/15 564/335/15 561/336/15
f 574/345/18 575/346/18 576/347/18 573/348/18
f 578/349/18 579/350/18 580/351/18 577/352/18
f 578/349/8 571/342/8 550/321/8 559/330/8
f 579/350/4 558/329/4 551/322/4 570/341/4
f 574/345/8 567/338/8 554/325/8 563/334/8
f 575/346/4 562/333/4 555/326/4 566/337/4
f 579/350/1 578/349/1 559/330/1 558/329/1
f 575/346/1 574/345/1 563/334/1 562/333/1
usemtl M_Orange
f 167/142/26 168/143/26 138/140/26 137/138/26
f 158/57/27 157/32/27 150/120/27 149/117/27
f 163/59/28 164/60/28 144/131/28 143/107/28
f 156/30/29 155/91/29 146/50/29 145/29/29
f 161/89/28 162/90/28 142/31/28 141/58/28
f 165/44/26 166/45/26 140/100/26 139/76/26
f 145/29/2 146/50/2 148/51/2 147/104/2
f 154/103/30 153/75/30 143/107/30 144/131/30
f 149/117/2 150/120/2 152/124/2 151/127/2
f 160/128/31 159/123/31 137/138/31 138/140/31
f 147/104/27 148/51/27 153/75/27 154/103/27
f 139/76/31 140/100/31 155/91/31 156/30/31
f 141/58/30 142/31/30 157/32/30 158/57/30
f 151/127/29 152/124/29 159/123/29 160/128/29
f 547/186/5 540/314/5 539/313/5 548/185/5
f 542/188/10 541/315/10 538/312/10 537/187/10
f 545/318/9 534/183/9 533/184/9 546/319/9
f 543/181/6 536/182/6 535/311/6 544/317/6
usemtl M_Steel
f 249/229/3 252/230/3 251/231/3 250/232/3
f 250/232/18 251/231/18 254/233/18 253/234/18
f 253/234/1 254/233/1 256/235/1 255/236/1
f 255/236/15 256/235/15 258/237/15 257/238/15
f 257/238/7 258/237/7 260/239/7 259/240/7
f 259/240/55 260/239/55 262/241/55 261/242/55
f 248/243/1 246/244/1 245/245/1 247/246/1
f 261/242/2 262/241/2 264/247/2 263/248/2
f 263/248/54 264/247/54 252/249/54 249/250/54
f 234/251/15 248/243/15 247/246/15 233/252/15
f 235/253/8 233/252/8 249/254/8 250/255/8
f 234/251/4 236/256/4 251/257/4 252/258/4
f 237/259/8 235/253/8 250/255/8 253/260/8
f 236/256/4 238/261/4 254/262/4 251/257/4
f 239/263/8 237/259/8 253/260/8 255/264/8
f 238/261/4 240/265/4 256/266/4 254/262/4
f 241/267/8 239/263/8 255/264/8 257/268/8
f 240/265/4 242/269/4 258/270/4 256/266/4
f 243/271/8 241/267/8 257/268/8 259/272/8
f 242/269/4 244/273/4 260/274/4 258/270/4
f 245/245/8 243/271/8 259/272/8 261/275/8
f 244/273/4 246/244/4 262/276/4 260/274/4
f 247/246/8 245/245/8 261/275/8 263/277/8
f 246/244/4 248/243/4 264/278/4 262/276/4
f 233/252/8 247/246/8 263/277/8 249/254/8
f 248/243/4 234/251/4 252/258/4 264/278/4
f 246/244/18 244/273/18 243/271/18 245/245/18
f 244/273/3 242/269/3 241/267/3 243/271/3
f 242/269/54 240/265/54 239/263/54 241/267/54
f 240/265/2 238/261/2 237/259/2 239/263/2
f 238/261/55 236/256/55 235/253/55 237/259/55
f 236/256/7 234/251/7 233/252/7 235/253/7
f 281/229/3 284/230/3 283/231/3 282/232/3
f 282/232/18 283/231/18 286/233/18 285/234/18
f 285/234/1 286/233/1 288/235/1 287/236/1
f 287/236/15 288/235/15 290/237/15 289/238/15
f 289/238/7 290/237/7 292/239/7 291/240/7
f 291/240/55 292/239/55 294/241/55 293/242/55
f 280/243/1 278/244/1 277/245/1 279/246/1
f 293/242/2 294/241/2 296/247/2 295/248/2
f 295/248/54 296/247/54 284/249/54 281/250/54
f 266/251/15 280/243/15 279/246/15 265/252/15
f 267/253/8 265/252/8 281/254/8 282/255/8
f 266/251/4 268/256/4 283/257/4 284/258/4
f 269/259/8 267/253/8 282/255/8 285/260/8
f 268/256/4 270/261/4 286/262/4 283/257/4
f 271/263/8 269/259/8 285/260/8 287/264/8
f 270/261/4 272/265/4 288/266/4 286/262/4
f 273/267/8 271/263/8 287/264/8 289/268/8
f 272/265/4 274/269/4 290/270/4 288/266/4
f 275/271/8 273/267/8 289/268/8 291/272/8
f 274/269/4 276/273/4 292/274/4 290/270/4
f 277/245/8 275/271/8 291/272/8 293/275/8
f 276/273/4 278/244/4 294/276/4 292/274/4
f 279/246/8 277/245/8 293/275/8 295/277/8
f 278/244/4 280/243/4 296/278/4 294/276/4
f 265/252/8 279/246/8 295/277/8 281/254/8
f 280/243/4 266/251/4 284/258/4 296/278/4
f 278/244/18 276/273/18 275/271/18 277/245/18
f 276/273/3 274/269/3 273/267/3 275/271/3
f 274/269/54 272/265/54 271/263/54 273/267/54
f 272/265/2 270/261/2 269/259/2 271/263/2
f 270/261/55 268/256/55 267/253/55 269/259/55
f 268/256/7 266/251/7 265/252/7 267/253/7
f 313/229/3 316/230/3 315/231/3 314/232/3
f 314/232/18 315/231/18 318/233/18 317/234/18
f 317/234/1 318/233/1 320/235/1 319/236/1
f 319/236/15 320/235/15 322/237/15 321/238/15
f 321/238/7 322/237/7 324/239/7 323/240/7
f 323/240/55 324/239/55 326/241/55 325/242/55
f 312/243/1 310/244/1 309/245/1 311/246/1
f 325/242/2 326/241/2 328/247/2 327/248/2
f 327/248/54 328/247/54 316/249/54 313/250/54
f 298/251/15 312/243/15 311/246/15 297/252/15
f 299/253/8 297/252/8 313/254/8 314/255/8
f 298/251/4 300/256/4 315/257/4 316/258/4
f 301/259/8 299/253/8 314/255/8 317/260/8
f 300/256/4 302/261/4 318/262/4 315/257/4
f 303/263/8 301/259/8 317/260/8 319/264/8
f 302/261/4 304/265/4 320/266/4 318/262/4
f 305/267/8 303/263/8 319/264/8 321/268/8
f 304/265/4 306/269/4 322/270/4 320/266/4
f 307/271/8 305/267/8 321/268/8 323/272/8
f 306/269/4 308/273/4 324/274/4 322/270/4
f 309/245/8 307/271/8 323/272/8 325/275/8
f 308/273/4 310/244/4 326/276/4 324/274/4
f 311/246/8 309/245/8 325/275/8 327/277/8
f 310/244/4 312/243/4 328/278/4 326/276/4
f 297/252/8 311/246/8 327/277/8 313/254/8
f 312/243/4 298/251/4 316/258/4 328/278/4
f 310/244/18 308/273/18 307/271/18 309/245/18
f 308/273/3 306/269/3 305/267/3 307/271/3
f 306/269/54 304/265/54 303/263/54 305/267/54
f 304/265/2 302/261/2 301/259/2 303/263/2
f 302/261/55 300/256/55 299/253/55 301/259/55
f 300/256/7 298/251/7 297/252/7 299/253/7
f 345/229/3 348/230/3 347/231/3 346/232/3
f 346/232/18 347/231/18 350/233/18 349/234/18
f 349/234/1 350/233/1 352/235/1 351/236/1
f 351/236/15 352/235/15 354/237/15 353/238/15
f 353/238/7 354/237/7 356/239/7 355/240/7
f 355/240/55 356/239/55 358/241/55 357/242/55
f 344/243/1 342/244/1 341/245/1 343/246/1
f 357/242/2 358/241/2 360/247/2 359/248/2
f 359/248/54 360/247/54 348/249/54 345/250/54
f 330/251/15 344/243/15 343/246/15 329/252/15
f 331/253/8 329/252/8 345/254/8 346/255/8
f 330/251/4 332/256/4 347/257/4 348/258/4
f 333/259/8 331/253/8 346/255/8 349/260/8
f 332/256/4 334/261/4 350/262/4 347/257/4
f 335/263/8 333/259/8 349/260/8 351/264/8
f 334/261/4 336/265/4 352/266/4 350/262/4
f 337/267/8 335/263/8 351/264/8 353/268/8
f 336/265/4 338/269/4 354/270/4 352/266/4
f 339/271/8 337/267/8 353/268/8 355/272/8
f 338/269/4 340/273/4 356/274/4 354/270/4
f 341/245/8 339/271/8 355/272/8 357/275/8
f 340/273/4 342/244/4 358/276/4 356/274/4
f 343/246/8 341/245/8 357/275/8 359/277/8
f 342/244/4 344/243/4 360/278/4 358/276/4
f 329/252/8 343/246/8 359/277/8 345/254/8
f 344/243/4 330/251/4 348/258/4 360/278/4
f 342/244/18 340/273/18 339/271/18 341/245/18
f 340/273/3 338/269/3 337/267/3 339/271/3
f 338/269/54 336/265/54 335/263/54 337/267/54
f 336/265/2 334/261/2 333/259/2 335/263/2
f 334/261/55 332/256/55 331/253/55 333/259/55
f 332/256/7 330/251/7 329/252/7 331/253/7
f 377/229/3 380/230/3 379/231/3 378/232/3
f 378/232/18 379/231/18 382/233/18 381/234/18
f 381/234/1 382/233/1 384/235/1 383/236/1
f 383/236/15 384/235/15 386/237/15 385/238/15
f 385/238/7 386/237/7 388/239/7 387/240/7
f 387/240/55 388/239/55 390/241/55 389/242/55
f 376/243/1 374/244/1 373/245/1 375/246/1
f 389/242/2 390/241/2 392/247/2 391/248/2
f 391/248/54 392/247/54 380/249/54 377/250/54
f 362/251/15 376/243/15 375/246/15 361/252/15
f 363/253/8 361/252/8 377/254/8 378/255/8
f 362/251/4 364/256/4 379/257/4 380/258/4
f 365/259/8 363/253/8 378/255/8 381/260/8
f 364/256/4 366/261/4 382/262/4 379/257/4
f 367/263/8 365/259/8 381/260/8 383/264/8
f 366/261/4 368/265/4 384/266/4 382/262/4
f 369/267/8 367/263/8 383/264/8 385/268/8
f 368/265/4 370/269/4 386/270/4 384/266/4
f 371/271/8 369/267/8 385/268/8 387/272/8
f 370/269/4 372/273/4 388/274/4 386/270/4
f 373/245/8 371/271/8 387/272/8 389/275/8
f 372/273/4 374/244/4 390/276/4 388/274/4
f 375/246/8 373/245/8 389/275/8 391/277/8
f 374/244/4 376/243/4 392/278/4 390/276/4
f 361/252/8 375/246/8 391/277/8 377/254/8
f 376/243/4 362/251/4 380/258/4 392/278/4
f 374/244/18 372/273/18 371/271/18 373/245/18
f 372/273/3 370/269/3 369/267/3 371/271/3
f 370/269/54 368/265/54 367/263/54 369/267/54
f 368/265/2 366/261/2 365/259/2 367/263/2
f 366/261/55 364/256/55 363/253/55 365/259/55
f 364/256/7 362/251/7 361/252/7 363/253/7
