# Blender 4.2.3 LTS
# www.blender.org
mtllib SM_Angled_Control_Panel.mtl
o SM_Angled_Control_Panel
v 0.098647 0.000001 0.117428
v 0.113485 0.000001 0.121774
v 0.083034 0.015614 0.139508
v 0.093527 0.019960 0.150000
v 0.115450 0.048029 0.139508
v 0.111104 0.037536 0.150000
v 0.131062 0.032417 0.117428
v 0.131062 0.017578 0.121774
v -0.083034 0.181682 0.139508
v -0.078688 0.192175 0.150000
v -0.098647 0.197295 0.117428
v -0.098647 0.212133 0.121774
v -0.068271 0.229549 0.117979
v -0.081070 0.229710 0.121774
v -0.050619 0.214098 0.139508
v -0.061111 0.209751 0.150000
v 0.083034 0.015614 -0.139508
v 0.093527 0.019960 -0.150000
v 0.098647 0.000001 -0.117428
v 0.113485 0.000001 -0.121774
v 0.131062 0.032417 -0.117428
v 0.131062 0.017578 -0.121774
v 0.115450 0.048029 -0.139508
v 0.111104 0.037536 -0.150000
v -0.098647 0.197295 -0.117428
v -0.098647 0.212133 -0.121774
v -0.083034 0.181682 -0.139508
v -0.078688 0.192175 -0.150000
v -0.052109 0.213386 -0.140836
v -0.061111 0.209751 -0.150000
v -0.066231 0.229710 -0.117428
v -0.081070 0.229710 -0.121774
v -0.065371 0.178858 -0.150000
v -0.063313 0.176800 -0.150000
v 0.078152 0.035335 -0.150000
v 0.080210 0.033277 -0.150000
v 0.070224 0.028424 -0.139508
v 0.068176 0.030472 -0.139508
v -0.068176 0.166824 -0.139508
v -0.070224 0.168872 -0.139508
v 0.097795 0.050845 -0.150000
v 0.094904 0.055776 -0.148558
v -0.042872 0.193552 -0.148558
v -0.047917 0.198597 -0.148558
v -0.032042 0.195520 -0.131296
v -0.030013 0.193492 -0.131414
v 0.096872 0.066606 -0.131296
v 0.094844 0.068635 -0.131414
v 0.080210 0.033277 0.150000
v 0.078152 0.035335 0.150000
v -0.063313 0.176800 0.150000
v -0.065371 0.178858 0.150000
v -0.070224 0.168872 0.139508
v -0.068176 0.166824 0.139508
v 0.068176 0.030472 0.139508
v 0.070224 0.028424 0.139508
v 0.096872 0.066606 0.131296
v 0.094844 0.068635 0.131414
v -0.032042 0.195520 0.131296
v -0.030013 0.193492 0.131414
v -0.047917 0.198597 0.148558
v -0.042872 0.193552 0.148558
v 0.094904 0.055776 0.148558
v 0.097795 0.050845 0.150000
v -0.036700 0.200179 0.086346
v -0.043690 0.207168 0.089746
v 0.101531 0.061947 0.086367
v 0.108520 0.054958 0.089766
v 0.096872 0.066606 -0.106472
v 0.094846 0.068632 -0.107289
v 0.093484 0.069995 -0.097691
v -0.032042 0.195520 -0.106546
v -0.028654 0.192133 -0.097761
v -0.030016 0.193494 -0.107361
v -0.040690 0.202128 -0.140950
v -0.035629 0.197068 -0.140950
v 0.098420 0.063019 -0.140950
v 0.102666 0.060813 -0.139508
v 0.102666 0.060813 0.139508
v 0.098420 0.063019 0.140950
v -0.035629 0.197068 0.140950
v -0.040690 0.202128 0.140950
v 0.096872 0.066606 0.106530
v 0.093485 0.069994 0.097747
v 0.094846 0.068632 0.107346
v -0.032042 0.195520 0.106506
v -0.030016 0.193494 0.107322
v -0.028653 0.192132 0.097724
v -0.036700 0.200179 -0.086382
v -0.043690 0.207168 -0.089780
v 0.101531 0.061947 -0.086316
v 0.108520 0.054958 -0.089719
v 0.093088 0.065607 -0.104503
v 0.094481 0.064214 -0.106472
v 0.092455 0.066240 -0.107289
v -0.032407 0.191102 -0.107361
v -0.034434 0.193128 -0.106546
v -0.033041 0.191736 -0.104576
v 0.092455 0.066240 0.107346
v 0.094481 0.064214 0.106530
v 0.093088 0.065607 0.104560
v -0.033041 0.191736 0.104536
v -0.034434 0.193128 0.106506
v -0.032407 0.191102 0.107322
v 0.096886 0.049937 -0.146573
v 0.094662 0.051857 -0.146661
v 0.098093 0.060428 -0.138507
v 0.100485 0.058632 -0.137598
v -0.046791 0.193310 -0.146661
v -0.048711 0.195534 -0.146573
v -0.040016 0.199133 -0.137598
v -0.038219 0.196741 -0.138507
v -0.064463 0.179766 -0.146573
v -0.062253 0.177860 -0.146661
v -0.065753 0.169247 -0.138223
v -0.067863 0.171233 -0.138008
v 0.079212 0.036395 -0.146661
v 0.081118 0.034185 -0.146573
v 0.072585 0.030785 -0.138008
v 0.070599 0.032895 -0.138223
v 0.100485 0.058632 0.137598
v 0.098093 0.060428 0.138507
v 0.094662 0.051857 0.146661
v 0.096886 0.049937 0.146573
v -0.038219 0.196741 0.138507
v -0.040016 0.199133 0.137598
v -0.048711 0.195534 0.146573
v -0.046791 0.193310 0.146661
v 0.081118 0.034185 0.146573
v 0.079212 0.036395 0.146661
v 0.070599 0.032895 0.138223
v 0.072585 0.030785 0.138008
v -0.062253 0.177860 0.146661
v -0.064463 0.179766 0.146573
v -0.067863 0.171233 0.138008
v -0.065753 0.169247 0.138223
v 0.092452 0.066243 0.131414
v 0.094481 0.064214 0.131296
v -0.034434 0.193128 0.131296
v -0.032405 0.191100 0.131414
v -0.043910 0.202605 -0.089204
v -0.046081 0.204776 -0.089780
v -0.046081 0.204776 0.089746
v -0.043910 0.202605 0.089168
v 0.106128 0.052567 -0.089719
v 0.103957 0.054738 -0.089139
v 0.103957 0.054738 0.089190
v 0.106128 0.052567 0.089766
v 0.094481 0.064214 -0.131296
v 0.092452 0.066243 -0.131414
v -0.032405 0.191100 -0.131414
v -0.034434 0.193128 -0.131296
v -0.041518 0.204997 0.089168
v -0.041518 0.204997 -0.089204
v 0.106349 0.057130 -0.089139
v 0.106349 0.057130 0.089190
v 0.095480 0.067999 0.104560
v -0.030649 0.194128 0.104536
v -0.030649 0.194128 -0.104576
v 0.095480 0.067999 -0.104503
v -0.038471 0.198409 0.086346
v -0.038471 0.198409 -0.086382
v 0.099761 0.060177 -0.086316
v 0.099761 0.060177 0.086367
v 0.091714 0.068224 0.097747
v -0.030424 0.190362 0.097724
v -0.030425 0.190363 -0.097761
v 0.091714 0.068225 -0.097691
v 0.091731 0.068207 -0.086320
v 0.091715 0.068223 0.086446
v -0.030443 0.190381 0.086352
v -0.030447 0.190385 -0.086378
v 0.091723 0.068215 0.000063
v 0.030636 0.129302 0.086399
v 0.030642 0.129296 -0.086349
v -0.030445 0.190383 -0.000013
v 0.030639 0.129299 0.000025
v 0.091719 0.068219 0.043254
v 0.000097 0.159842 0.086375
v 0.000097 0.159841 -0.086364
v -0.030446 0.190384 -0.043196
v 0.091727 0.068211 -0.043129
v 0.061176 0.098762 0.086422
v 0.061187 0.098751 -0.086334
v -0.030444 0.190382 0.043169
v 0.061181 0.098757 0.000044
v 0.000097 0.159841 0.000006
v 0.030641 0.129298 -0.043162
v 0.030638 0.129300 0.043212
v 0.000097 0.159841 0.043191
v 0.000097 0.159841 -0.043179
v 0.061178 0.098760 0.043233
v 0.061184 0.098754 -0.043145
v 0.062448 0.097490 -0.041356
v 0.062446 0.097492 -0.001744
v 0.090459 0.069479 -0.001727
v 0.090462 0.069476 -0.041341
v 0.062443 0.097495 0.045022
v 0.062441 0.097498 0.084635
v 0.090451 0.069487 0.084656
v 0.090454 0.069484 0.045042
v 0.001362 0.158576 -0.041390
v 0.001362 0.158576 -0.001782
v 0.029374 0.130564 -0.001765
v 0.029376 0.130562 -0.041374
v 0.001361 0.158577 0.044980
v 0.001361 0.158577 0.084588
v 0.029371 0.130567 0.084609
v 0.029373 0.130565 0.044999
v 0.001362 0.158576 0.001795
v 0.001361 0.158577 0.041403
v 0.029373 0.130565 0.041422
v 0.029374 0.130564 0.001813
v -0.029180 0.189119 0.001776
v -0.029180 0.189118 0.041382
v -0.001168 0.161106 0.041401
v -0.001168 0.161106 0.001794
v -0.029179 0.189117 0.044959
v -0.029178 0.189117 0.084564
v -0.001168 0.161106 0.084586
v -0.001168 0.161106 0.044978
v 0.001362 0.158576 -0.084575
v 0.001362 0.158576 -0.044967
v 0.029376 0.130562 -0.044951
v 0.029377 0.130561 -0.084561
v -0.029183 0.189121 -0.084589
v -0.029182 0.189120 -0.044984
v -0.001168 0.161106 -0.044968
v -0.001167 0.161105 -0.084576
v -0.029182 0.189120 -0.041407
v -0.029181 0.189119 -0.001801
v -0.001168 0.161106 -0.001784
v -0.001168 0.161106 -0.041391
v 0.062446 0.097492 0.001833
v 0.062443 0.097495 0.041445
v 0.090455 0.069483 0.041465
v 0.090458 0.069480 0.001851
v 0.031904 0.128034 0.001814
v 0.031902 0.128036 0.041424
v 0.059914 0.100024 0.041444
v 0.059916 0.100022 0.001832
v 0.031902 0.128036 0.045001
v 0.031901 0.128037 0.084611
v 0.059911 0.100027 0.084633
v 0.059914 0.100024 0.045021
v 0.062451 0.097487 -0.084545
v 0.062449 0.097489 -0.044933
v 0.090463 0.069475 -0.044918
v 0.090466 0.069472 -0.084532
v 0.031907 0.128031 -0.084560
v 0.031905 0.128033 -0.044950
v 0.059919 0.100019 -0.044935
v 0.059922 0.100016 -0.084547
v 0.031905 0.128033 -0.041373
v 0.031904 0.128034 -0.001763
v 0.059917 0.100021 -0.001746
v 0.059919 0.100019 -0.041357
v 0.065984 0.101030 -0.001744
v 0.065987 0.101028 -0.041356
v 0.094000 0.073014 -0.041341
v 0.093997 0.073017 -0.001727
v 0.065979 0.101036 0.084635
v 0.065981 0.101033 0.045022
v 0.093993 0.073022 0.045042
v 0.093989 0.073025 0.084656
v 0.004900 0.162114 -0.001782
v 0.004900 0.162114 -0.041390
v 0.032914 0.134100 -0.041374
v 0.032912 0.134102 -0.001765
v 0.004899 0.162115 0.084588
v 0.004899 0.162115 0.044980
v 0.032911 0.134103 0.044999
v 0.032910 0.134105 0.084609
v 0.004899 0.162115 0.041403
v 0.004900 0.162115 0.001795
v 0.032912 0.134102 0.001813
v 0.032911 0.134103 0.041422
v -0.025641 0.192656 0.041382
v -0.025642 0.192657 0.001776
v 0.002370 0.164644 0.001794
v 0.002370 0.164644 0.041401
v -0.025640 0.192655 0.084564
v -0.025641 0.192656 0.044959
v 0.002370 0.164644 0.044978
v 0.002370 0.164644 0.084586
v 0.004900 0.162114 -0.044967
v 0.004900 0.162114 -0.084575
v 0.032915 0.134099 -0.084561
v 0.032914 0.134100 -0.044951
v -0.025644 0.192658 -0.044984
v -0.025644 0.192659 -0.084589
v 0.002371 0.164643 -0.084576
v 0.002371 0.164644 -0.044968
v -0.025643 0.192657 -0.001801
v -0.025643 0.192658 -0.041407
v 0.002370 0.164644 -0.041391
v 0.002370 0.164644 -0.001784
v 0.065981 0.101033 0.041445
v 0.065984 0.101030 0.001833
v 0.093997 0.073018 0.001851
v 0.093993 0.073021 0.041465
v 0.035440 0.131574 0.041424
v 0.035442 0.131572 0.001814
v 0.063454 0.103560 0.001832
v 0.063452 0.103562 0.041444
v 0.035439 0.131575 0.084611
v 0.035440 0.131574 0.045001
v 0.063452 0.103562 0.045021
v 0.063449 0.103565 0.084633
v 0.065987 0.101027 -0.044933
v 0.065989 0.101025 -0.084545
v 0.094004 0.073010 -0.084532
v 0.094001 0.073013 -0.044918
v 0.035443 0.131571 -0.044950
v 0.035445 0.131570 -0.084560
v 0.063460 0.103554 -0.084547
v 0.063457 0.103557 -0.044935
v 0.035442 0.131572 -0.001763
v 0.035443 0.131571 -0.041373
v 0.063457 0.103557 -0.041357
v 0.063455 0.103560 -0.001746
v 0.067696 0.099318 -0.038937
v 0.067694 0.099320 -0.004161
v 0.092287 0.074727 -0.004145
v 0.092291 0.074724 -0.038924
v 0.067691 0.099324 0.047441
v 0.067688 0.099326 0.082218
v 0.092279 0.074735 0.082237
v 0.092283 0.074732 0.047459
v 0.006610 0.160405 -0.038971
v 0.006609 0.160405 -0.004199
v 0.031203 0.135811 -0.004183
v 0.031204 0.135810 -0.038957
v 0.006609 0.160405 0.047399
v 0.006609 0.160405 0.082171
v 0.031200 0.135814 0.082190
v 0.031201 0.135813 0.047416
v 0.006609 0.160405 0.004214
v 0.006609 0.160405 0.038986
v 0.031201 0.135813 0.039003
v 0.031203 0.135812 0.004229
v -0.023933 0.190947 0.004195
v -0.023932 0.190946 0.038965
v 0.000660 0.166354 0.038982
v 0.000661 0.166354 0.004210
v -0.023932 0.190946 0.047378
v -0.023931 0.190945 0.082148
v 0.000660 0.166354 0.082167
v 0.000660 0.166354 0.047395
v 0.006610 0.160404 -0.082156
v 0.006610 0.160405 -0.047384
v 0.031204 0.135810 -0.047370
v 0.031205 0.135809 -0.082144
v -0.023935 0.190949 -0.082170
v -0.023934 0.190948 -0.047401
v 0.000661 0.166353 -0.047387
v 0.000661 0.166353 -0.082159
v -0.023934 0.190948 -0.038988
v -0.023933 0.190947 -0.004218
v 0.000661 0.166354 -0.004203
v 0.000661 0.166353 -0.038974
v 0.067693 0.099321 0.004252
v 0.067691 0.099323 0.039029
v 0.092283 0.074731 0.039046
v 0.092287 0.074728 0.004267
v 0.037151 0.129863 0.004233
v 0.037150 0.129864 0.039007
v 0.061742 0.105272 0.039024
v 0.061745 0.105270 0.004248
v 0.037150 0.129864 0.047420
v 0.037149 0.129865 0.082195
v 0.061740 0.105274 0.082213
v 0.061742 0.105272 0.047437
v 0.067699 0.099315 -0.082127
v 0.067697 0.099318 -0.047350
v 0.092291 0.074723 -0.047337
v 0.092294 0.074720 -0.082115
v 0.037154 0.129860 -0.082141
v 0.037153 0.129861 -0.047367
v 0.061748 0.105266 -0.047353
v 0.061750 0.105264 -0.082129
v 0.037153 0.129861 -0.038954
v 0.037152 0.129863 -0.004180
v 0.061745 0.105269 -0.004164
v 0.061747 0.105267 -0.038941
v 0.066962 0.098589 -0.004161
v 0.066965 0.098587 -0.038937
v 0.091559 0.073992 -0.038924
v 0.091556 0.073995 -0.004145
v 0.066957 0.098594 0.082218
v 0.066959 0.098592 0.047441
v 0.091551 0.074000 0.047459
v 0.091548 0.074003 0.082237
v 0.005878 0.159673 -0.004199
v 0.005878 0.159673 -0.038971
v 0.030473 0.135079 -0.038957
v 0.030471 0.135080 -0.004183
v 0.005878 0.159674 0.082171
v 0.005878 0.159674 0.047399
v 0.030470 0.135082 0.047416
v 0.030468 0.135083 0.082190
v 0.005878 0.159674 0.038986
v 0.005878 0.159673 0.004214
v 0.030471 0.135080 0.004229
v 0.030470 0.135081 0.039003
v -0.024663 0.190215 0.038965
v -0.024664 0.190215 0.004195
v -0.000071 0.165622 0.004210
v -0.000071 0.165622 0.038982
v -0.024662 0.190213 0.082148
v -0.024663 0.190214 0.047378
v -0.000071 0.165622 0.047395
v -0.000071 0.165623 0.082167
v 0.005878 0.159673 -0.047384
v 0.005878 0.159673 -0.082156
v 0.030474 0.135077 -0.082144
v 0.030473 0.135078 -0.047370
v -0.024665 0.190217 -0.047401
v -0.024666 0.190217 -0.082170
v -0.000070 0.165622 -0.082159
v -0.000071 0.165622 -0.047387
v -0.024664 0.190216 -0.004218
v -0.024665 0.190216 -0.038988
v -0.000071 0.165622 -0.038974
v -0.000071 0.165622 -0.004203
v 0.066960 0.098592 0.039029
v 0.066962 0.098589 0.004252
v 0.091555 0.073996 0.004267
v 0.091552 0.073999 0.039046
v 0.036419 0.129133 0.039007
v 0.036420 0.129131 0.004233
v 0.061013 0.104538 0.004248
v 0.061011 0.104540 0.039024
v 0.036417 0.129134 0.082195
v 0.036418 0.129133 0.047420
v 0.061010 0.104541 0.047437
v 0.061008 0.104543 0.082213
v 0.066965 0.098586 -0.047350
v 0.066967 0.098584 -0.082127
v 0.091563 0.073988 -0.082115
v 0.091560 0.073991 -0.047337
v 0.036422 0.129130 -0.047367
v 0.036423 0.129128 -0.082141
v 0.061019 0.104533 -0.082129
v 0.061016 0.104535 -0.047353
v 0.036420 0.129131 -0.004180
v 0.036421 0.129130 -0.038954
v 0.061016 0.104535 -0.038941
v 0.061014 0.104538 -0.004164
v -0.052109 0.213386 0.140836
v -0.066231 0.229710 0.117428
v -0.079030 0.229871 0.121224
v -0.059622 0.210463 0.148672
v -0.068271 0.229549 -0.117979
v -0.050619 0.214098 -0.139508
v -0.059622 0.210463 -0.148672
v -0.079030 0.229871 -0.121224
v 0.095723 0.052917 -0.150000
v 0.100572 0.062907 -0.139508
v -0.047803 0.196443 -0.150000
v -0.037835 0.201313 -0.139508
v -0.035741 0.199220 -0.139508
v -0.045730 0.194370 -0.150000
v 0.100572 0.062907 0.139508
v 0.095723 0.052917 0.150000
v -0.037835 0.201313 0.139508
v -0.047803 0.196443 0.150000
v -0.045730 0.194370 0.150000
v -0.035741 0.199220 0.139508
v -0.059974 0.209756 0.148060
v -0.052460 0.212679 0.140224
v -0.068376 0.228588 0.117728
v -0.079134 0.228910 0.120973
v -0.079134 0.228910 -0.120973
v -0.068376 0.228588 -0.117728
v -0.052460 0.212679 -0.140224
v -0.059974 0.209756 -0.148060
v 0.094405 0.055276 -0.147851
v 0.097921 0.062519 -0.140244
v -0.048424 0.198090 -0.147862
v -0.041196 0.201621 -0.140254
v -0.036129 0.196569 -0.140244
v -0.043371 0.193053 -0.147851
v 0.097921 0.062519 0.140244
v 0.094405 0.055276 0.147851
v -0.041196 0.201621 0.140254
v -0.048424 0.198090 0.147862
v -0.043371 0.193053 0.147851
v -0.036129 0.196569 0.140244
v -0.068176 0.166824 0.000000
v 0.068176 0.030472 -0.000000
v -0.060712 0.159360 -0.062325
v -0.060712 0.159360 -0.077182
v 0.060712 0.037935 -0.077182
v 0.060712 0.037935 -0.062325
v -0.060712 0.159360 0.077182
v -0.060712 0.159360 0.062325
v 0.060712 0.037935 0.062325
v 0.060712 0.037935 0.077182
v -0.040804 0.000000 -0.077182
v -0.040804 -0.000000 -0.062325
v 0.040804 -0.000000 -0.062325
v 0.040804 -0.000000 -0.077182
v -0.040804 0.000000 0.062325
v -0.040804 -0.000000 0.077182
v 0.040804 -0.000000 0.077182
v 0.040804 -0.000000 0.062325
v -0.037415 0.111721 0.066938
v 0.039586 0.034720 0.066938
v 0.030399 0.017212 0.066938
v -0.025608 0.017212 0.066938
v -0.037415 0.111721 -0.072570
v 0.039586 0.034720 -0.072570
v 0.030399 0.017212 -0.072570
v -0.025608 0.017212 -0.072570
v 0.039586 0.034720 0.072570
v -0.037415 0.111721 0.072570
v -0.025608 0.017212 0.072570
v 0.030399 0.017212 0.072570
v 0.039586 0.034720 -0.066938
v -0.037415 0.111721 -0.066938
v -0.025608 0.017212 -0.066938
v 0.030399 0.017212 -0.066938
v -0.037415 0.111721 0.062325
v 0.039586 0.034720 0.062325
v -0.025608 0.017212 0.062325
v 0.030399 0.017212 0.062325
v 0.039586 0.034720 -0.077182
v -0.037415 0.111721 -0.077182
v -0.025608 0.017212 -0.077182
v 0.030399 0.017212 -0.077182
v -0.037415 0.111721 0.077182
v 0.039586 0.034720 0.077182
v 0.030399 0.017212 0.077182
v -0.025608 0.017212 0.077182
v -0.037415 0.111721 -0.062325
v 0.039586 0.034720 -0.062325
v 0.030399 0.017212 -0.062325
v -0.025608 0.017212 -0.062325
v -0.037775 0.112457 0.066938
v -0.037775 0.112457 0.072570
v -0.026151 0.016598 0.072570
v -0.026151 0.016598 0.066938
v 0.030823 0.016511 0.072570
v 0.030823 0.016511 0.066938
v 0.040396 0.034843 0.072570
v 0.040396 0.034843 0.066938
v -0.037775 0.112457 -0.072570
v -0.037775 0.112457 -0.066938
v -0.026151 0.016598 -0.066938
v -0.026151 0.016598 -0.072570
v 0.030823 0.016511 -0.066938
v 0.030823 0.016511 -0.072570
v 0.040396 0.034843 -0.066938
v 0.040396 0.034843 -0.072570
vn -0.5000 0.5000 -0.7071
vn -0.5000 0.5000 0.7071
vn -0.7071 -0.7071 -0.0000
vn 0.5000 -0.5000 -0.7071
vn 0.5000 -0.5000 0.7071
vn -0.1464 -0.8536 0.5000
vn 0.8536 0.1464 0.5000
vn -0.5709 0.8034 -0.1694
vn -0.8536 -0.1464 0.5000
vn 0.4683 0.4727 -0.7465
vn -0.8536 -0.1464 -0.5000
vn 0.8536 0.1464 -0.5000
vn -0.1464 -0.8536 -0.5000
vn -0.0000 -0.0000 1.0000
vn -0.0000 -0.0000 -1.0000
vn -0.8335 -0.0563 -0.5497
vn 0.7071 0.7071 -0.0000
vn -0.8058 0.5679 0.1682
vn 0.5000 0.5000 -0.7071
vn -0.5000 -0.5000 -0.7071
vn 0.5000 0.5000 0.7071
vn -0.5000 -0.5000 0.7071
vn 0.8335 0.0563 -0.5497
vn -1.0000 -0.0000 -0.0000
vn -0.7071 0.7071 -0.0000
vn 1.0000 -0.0000 -0.0000
vn -0.0000 -1.0000 -0.0000
vn 0.7071 -0.7071 -0.0000
vn 0.5678 -0.8058 -0.1682
vn 0.5557 -0.4068 -0.7251
vn -0.6092 0.3031 0.7328
vn 0.5432 -0.8237 -0.1624
vn -0.5480 0.8172 0.1786
vn 0.5557 -0.4068 0.7251
vn 0.7071 -0.7071 0.0001
vn -0.6092 0.3031 -0.7328
vn -0.8237 0.5432 -0.1624
vn 0.5569 -0.8086 -0.1896
vn -0.4068 0.5557 0.7251
vn 0.5043 -0.5043 -0.7010
vn 0.3031 -0.6092 -0.7328
vn 0.8044 -0.5595 0.1997
vn -0.5595 0.8044 -0.1997
vn 0.4999 -0.4999 -0.7073
vn 0.0003 -0.0003 -1.0000
vn -0.0003 0.0003 1.0000
vn 0.5432 -0.8237 0.1624
vn -0.7071 0.7071 -0.0001
vn -0.8237 0.5432 0.1624
vn 0.8044 -0.5595 -0.1997
vn 0.7071 -0.7071 -0.0001
vn -0.4999 0.4999 0.7072
vn 0.7074 -0.7068 -0.0000
vn 0.5342 0.4758 -0.6988
vn 0.4758 0.5342 -0.6988
vn -0.0213 0.0213 -0.9995
vn 0.0213 -0.0213 -0.9995
vn 0.5342 0.4758 0.6988
vn 0.4758 0.5342 0.6988
vn 0.0213 -0.0213 0.9995
vn -0.0213 0.0213 0.9995
vn -0.7283 -0.6853 -0.0000
vn -0.6853 -0.7283 -0.0000
vn 0.7477 0.6612 -0.0613
vn 0.6612 0.7477 -0.0613
vn 0.6612 0.7477 0.0613
vn 0.7477 0.6612 0.0613
vn 0.5044 -0.5044 0.7008
vn 0.8172 -0.5480 0.1786
vn -0.5595 0.8044 0.1997
vn 0.3031 -0.6092 0.7328
vn -0.4068 0.5557 -0.7251
vn -0.7071 0.7071 0.0001
vn -0.8086 0.5569 -0.1896
vn -0.8086 0.5569 0.1896
vn -0.7068 0.7075 -0.0000
vn 0.8172 -0.5480 -0.1786
vn 0.7075 -0.7068 -0.0000
vn -0.7068 0.7074 -0.0000
vn -0.5480 0.8172 -0.1786
vn -0.5042 0.5042 0.7011
vn 0.5569 -0.8086 0.1896
vn -0.0001 0.0001 1.0000
vn -0.5044 0.5044 -0.7009
vn 0.0001 -0.0001 -1.0000
vn -0.4999 0.4999 0.7073
vn 0.4999 -0.4999 -0.7072
vn 0.0002 -0.0002 -1.0000
vn -0.0004 0.0004 1.0000
vn -0.0002 0.0002 1.0000
vn 0.0004 -0.0004 -1.0000
vn 0.0788 0.8394 0.5378
vn 0.0788 0.8394 -0.5378
vn -0.0788 0.9969 -0.0000
vn 0.4837 0.4773 -0.7337
vn 0.4784 0.4851 -0.7320
vn 0.4837 0.4773 0.7337
vn 0.4784 0.4851 0.7320
vn 0.1719 0.8576 0.4848
vn 0.1719 0.8576 -0.4848
vn 0.5087 0.5056 -0.6969
vn 0.0299 0.9996 -0.0000
vn 0.5087 0.5056 0.6969
vn 0.8335 0.0563 0.5497
vn 0.5678 -0.8058 0.1682
vn 0.9941 -0.1081 -0.0000
vn -0.4691 -0.4720 0.7464
vn 0.4683 0.4727 0.7465
vn -0.9941 0.1081 -0.0000
vn -0.8058 0.5679 -0.1682
vn -0.5709 0.8034 0.1694
vn -0.8335 -0.0563 0.5497
vn -0.4691 -0.4720 -0.7464
vn -0.9923 -0.1240 -0.0000
vn 0.8855 -0.4647 -0.0000
vn 0.9923 0.1240 -0.0000
vn -0.8855 0.4647 -0.0000
vn -0.0000 1.0000 -0.0000
vn 0.0015 1.0000 -0.0000
vn 0.9927 0.1204 -0.0000
vn -0.8864 0.4629 -0.0000
vn -0.7046 -0.7096 -0.0000
vt 0.592211 0.523521
vt 0.407789 0.523521
vt 0.407789 0.476479
vt 0.592211 0.476479
vt 0.592211 0.273521
vt 0.407789 0.273521
vt 0.407789 0.226479
vt 0.592211 0.226479
vt 0.347857 0.508744
vt 0.366256 0.527143
vt 0.366256 0.587533
vt 0.133744 0.587533
vt 0.133744 0.527143
vt 0.152143 0.508744
vt 0.592211 0.773521
vt 0.407789 0.773521
vt 0.407789 0.726479
vt 0.592211 0.726479
vt 0.407789 0.000000
vt 0.592211 0.000000
vt 0.592211 0.023521
vt 0.407789 0.023521
vt 0.133744 0.722857
vt 0.152143 0.741256
vt 0.148521 0.750000
vt 0.125000 0.726479
vt 0.847857 0.741256
vt 0.866256 0.722857
vt 0.875000 0.726479
vt 0.851479 0.750000
vt 0.873798 0.579420
vt 0.867458 0.580253
vt 0.125000 0.523521
vt 0.148521 0.500000
vt 0.873798 0.523862
vt 0.351479 0.500000
vt 0.375000 0.523521
vt 0.633744 0.722857
vt 0.652143 0.741256
vt 0.648521 0.750000
vt 0.625000 0.726479
vt 0.347857 0.741256
vt 0.366256 0.722857
vt 0.375000 0.726479
vt 0.351479 0.750000
vt 0.407789 0.163702
vt 0.592211 0.163741
vt 0.592211 0.226479
vt 0.407789 0.663702
vt 0.592211 0.663741
vt 0.651685 0.507542
vt 0.628034 0.526803
vt 0.838775 0.655385
vt 0.859414 0.655385
vt 0.866256 0.662592
vt 0.633744 0.658116
vt 0.640586 0.655385
vt 0.661273 0.655385
vt 0.685298 0.677241
vt 0.814739 0.677241
vt 0.133744 0.662467
vt 0.366256 0.662467
vt 0.873798 0.657474
vt 0.867458 0.656596
vt 0.873798 0.592526
vt 0.407789 0.591656
vt 0.592211 0.591659
vt 0.592211 0.658341
vt 0.407789 0.658344
vt 0.407789 0.586298
vt 0.366256 0.657138
vt 0.366256 0.592861
vt 0.866256 0.662592
vt 0.875000 0.663741
vt 0.407789 0.091656
vt 0.592211 0.091659
vt 0.592211 0.158341
vt 0.407789 0.158344
vt 0.125000 0.663702
vt 0.125000 0.658344
vt 0.125000 0.591656
vt 0.133744 0.592862
vt 0.133744 0.657138
vt 0.125000 0.586298
vt 0.669730 0.594157
vt 0.683079 0.583635
vt 0.839455 0.654430
vt 0.839435 0.595570
vt 0.859512 0.595571
vt 0.866256 0.592871
vt 0.866256 0.657129
vt 0.859512 0.654429
vt 0.851020 0.501202
vt 0.592211 0.976479
vt 0.407789 0.976479
vt 0.682381 0.578925
vt 0.662854 0.595271
vt 0.640488 0.595571
vt 0.660533 0.595570
vt 0.660592 0.654430
vt 0.640488 0.654429
vt 0.633744 0.657129
vt 0.633744 0.592871
vt 0.592211 0.663741
vt 0.633744 0.662592
vt 0.597921 0.592526
vt 0.628034 0.593404
vt 0.859414 0.594615
vt 0.838755 0.594615
vt 0.814723 0.572758
vt 0.685251 0.572758
vt 0.661212 0.594615
vt 0.640586 0.594615
vt 0.633744 0.587408
vt 0.633744 0.527143
vt 0.652143 0.508744
vt 0.847857 0.508744
vt 0.866256 0.527143
vt 0.866256 0.591884
vt 0.592211 0.023521
vt 0.592211 0.086259
vt 0.407789 0.086298
vt 0.859512 0.654429
vt 0.866256 0.658116
vt 0.592211 0.586259
vt 0.633744 0.587408
vt 0.837134 0.654729
vt 0.817607 0.671075
vt 0.633744 0.591884
vt 0.592211 0.658341
vt 0.875000 0.591659
vt 0.866256 0.592871
vt 0.682433 0.671075
vt 0.662914 0.654729
vt 0.250000 0.592862
vt 0.866256 0.587408
vt 0.875000 0.586259
vt 0.875000 0.658341
vt 0.640488 0.654429
vt 0.837114 0.595271
vt 0.817590 0.578925
vt 0.250000 0.657138
vt 0.592211 0.586259
vt 0.633744 0.592871
vt 0.592211 0.591659
vt 0.859512 0.595571
vt 0.685251 0.572759
vt 0.814739 0.677241
vt 0.685298 0.677241
vt 0.816892 0.583634
vt 0.683132 0.666365
vt 0.816909 0.666365
vt 0.830258 0.655843
vt 0.830239 0.594158
vt 0.669788 0.655842
vt 0.683082 0.588437
vt 0.751532 0.588998
vt 0.782281 0.588914
vt 0.683129 0.661560
vt 0.717653 0.660218
vt 0.752177 0.658877
vt 0.786700 0.657535
vt 0.821224 0.656194
vt 0.820208 0.639172
vt 0.819192 0.622151
vt 0.818175 0.605130
vt 0.817159 0.588109
vt 0.783640 0.588191
vt 0.750120 0.588273
vt 0.716601 0.588355
vt 0.715222 0.589104
vt 0.715456 0.605591
vt 0.683093 0.606717
vt 0.683105 0.624998
vt 0.683117 0.643279
vt 0.684490 0.605946
vt 0.684472 0.589188
vt 0.784486 0.639521
vt 0.753059 0.640455
vt 0.783791 0.623613
vt 0.819755 0.655542
vt 0.788096 0.656764
vt 0.752581 0.624274
vt 0.715961 0.641548
vt 0.684534 0.642482
vt 0.818829 0.639922
vt 0.715727 0.625062
vt 0.787388 0.640872
vt 0.783731 0.622172
vt 0.752534 0.622817
vt 0.684517 0.625723
vt 0.717390 0.642252
vt 0.751662 0.641226
vt 0.750263 0.642001
vt 0.718822 0.642951
vt 0.750728 0.658199
vt 0.719069 0.659421
vt 0.785935 0.640199
vt 0.716864 0.606321
vt 0.750634 0.605924
vt 0.749255 0.606673
vt 0.718275 0.607046
vt 0.751148 0.623575
vt 0.749720 0.622871
vt 0.717127 0.624286
vt 0.718523 0.623515
vt 0.784405 0.605527
vt 0.816817 0.605853
vt 0.785837 0.606226
vt 0.817743 0.621473
vt 0.785170 0.622863
vt 0.786545 0.622118
vt 0.783036 0.606263
vt 0.752056 0.606636
vt 0.782976 0.604823
vt 0.752010 0.605179
vt 0.815811 0.588819
vt 0.785062 0.588903
vt 0.816737 0.604439
vt 0.785770 0.604795
vt 0.715474 0.607083
vt 0.684494 0.607455
vt 0.715709 0.623569
vt 0.684512 0.624214
vt 0.748751 0.589009
vt 0.718002 0.589093
vt 0.749216 0.605207
vt 0.718250 0.605563
vt 0.784546 0.640962
vt 0.753105 0.641912
vt 0.785241 0.656870
vt 0.753583 0.658093
vt 0.817823 0.622888
vt 0.786613 0.623549
vt 0.818749 0.638507
vt 0.787321 0.639441
vt 0.715979 0.643041
vt 0.684539 0.643991
vt 0.716214 0.659527
vt 0.684556 0.660750
vt 0.749759 0.624337
vt 0.718548 0.624998
vt 0.750224 0.640535
vt 0.718796 0.641468
vt 0.753979 0.607597
vt 0.781185 0.607260
vt 0.713595 0.608115
vt 0.713793 0.622599
vt 0.686412 0.623155
vt 0.686389 0.608452
vt 0.783269 0.655971
vt 0.755484 0.657034
vt 0.782667 0.641994
vt 0.748769 0.657282
vt 0.720984 0.658345
vt 0.755056 0.642838
vt 0.714270 0.658593
vt 0.686485 0.659655
vt 0.748369 0.643051
vt 0.714072 0.644108
vt 0.720758 0.643895
vt 0.815784 0.620556
vt 0.788404 0.621112
vt 0.686461 0.644952
vt 0.816964 0.640937
vt 0.789353 0.641781
vt 0.817768 0.654660
vt 0.789983 0.655723
vt 0.747390 0.607688
vt 0.720184 0.608025
vt 0.747790 0.621918
vt 0.720410 0.622474
vt 0.814980 0.606833
vt 0.787774 0.607170
vt 0.781787 0.621237
vt 0.754407 0.621793
vt 0.780444 0.589894
vt 0.753441 0.589977
vt 0.781046 0.603870
vt 0.753868 0.604173
vt 0.813988 0.589781
vt 0.786985 0.589864
vt 0.814792 0.603504
vt 0.787615 0.603806
vt 0.713356 0.590119
vt 0.686353 0.590202
vt 0.713554 0.604603
vt 0.686376 0.604905
vt 0.746900 0.590006
vt 0.719897 0.590090
vt 0.747300 0.604237
vt 0.720122 0.604539
vt 0.781926 0.624627
vt 0.754517 0.625218
vt 0.782528 0.638604
vt 0.754945 0.639413
vt 0.815972 0.623885
vt 0.788564 0.624475
vt 0.816776 0.637608
vt 0.789194 0.638417
vt 0.713833 0.626112
vt 0.686425 0.626702
vt 0.714031 0.640596
vt 0.686448 0.641405
vt 0.747880 0.625370
vt 0.720471 0.625960
vt 0.748280 0.639600
vt 0.720697 0.640409
vt 0.848316 0.507542
vt 0.867458 0.526802
vt 0.851479 0.500000
vt 0.875000 0.523521
vt 0.648980 0.501202
vt 0.626174 0.524047
vt 0.625000 0.523521
vt 0.648521 0.500000
vt 0.597921 0.657474
vt 0.628034 0.656596
vt 0.597921 0.579420
vt 0.628034 0.580253
vt 0.867458 0.593404
vt 0.597921 0.523862
vt 0.142540 0.596380
vt 0.241204 0.596380
vt 0.326828 0.605930
vt 0.326828 0.645190
vt 0.357460 0.596380
vt 0.258796 0.596380
vt 0.357460 0.653620
vt 0.258796 0.653620
vt 0.241204 0.653620
vt 0.142540 0.653620
vt 0.173172 0.607411
vt 0.173172 0.643368
vt 0.210572 0.643368
vt 0.210572 0.607411
vt 0.173172 0.605930
vt 0.241204 0.645189
vt 0.241204 0.605930
vt 0.241204 0.643368
vt 0.241204 0.607411
vt 0.357460 0.645189
vt 0.357460 0.605930
vt 0.357460 0.643368
vt 0.357460 0.607411
vt 0.142540 0.605930
vt 0.142540 0.645189
vt 0.142540 0.607411
vt 0.142540 0.643368
vt 0.258796 0.605930
vt 0.258796 0.645190
vt 0.258796 0.607411
vt 0.258796 0.643368
vt 0.210572 0.645189
vt 0.173172 0.645189
vt 0.210572 0.605930
vt 0.326828 0.607411
vt 0.326828 0.643368
vt 0.289428 0.605930
vt 0.289428 0.645190
vt 0.289428 0.643368
vt 0.289428 0.607411
s 0
usemtl M_Noir_Bleuté
f 30/1/1 28/2/1 26/3/1 32/4/1
f 14/5/2 12/6/2 10/7/2 16/8/2
f 25/9/3 27/10/3 40/11/3 53/12/3 9/13/3 11/14/3
f 22/15/4 20/16/4 18/17/4 24/18/4
f 2/19/5 8/20/5 6/21/5 4/22/5
f 3/23/6 1/24/6 2/25/6 4/26/6
f 7/27/7 5/28/7 6/29/7 8/30/7
f 61/31/8 82/32/8 486/32/8 487/31/8
f 11/14/9 9/13/9 10/33/9 12/34/9
f 453/35/10 61/31/10 487/31/10 470/35/10
f 27/10/11 25/9/11 26/36/11 28/37/11
f 23/38/12 21/39/12 22/40/12 24/41/12
f 19/42/13 17/43/13 18/44/13 20/45/13
f 52/46/14 467/47/14 16/48/14 10/7/14
f 36/49/15 41/50/15 24/18/15 18/17/15
f 454/51/16 29/52/16 476/52/16 475/51/16
f 83/53/17 57/54/17 79/55/17 5/28/17 7/27/17 21/39/17 23/38/17 78/56/17 47/57/17 69/58/17 92/59/17 68/60/17
f 56/61/3 37/62/3 17/43/3 19/42/3 1/24/3 3/23/3
f 63/63/18 80/64/18 484/64/18 485/63/18
f 62/65/19 63/63/19 485/63/19 488/65/19
f 34/66/15 463/67/15 458/68/15 35/69/15
f 28/2/20 33/70/20 40/11/20 27/10/20
f 34/66/20 35/69/20 38/71/20 39/72/20
f 36/49/20 18/17/20 17/43/20 37/62/20
f 5/28/21 79/73/21 64/74/21 6/29/21
f 50/75/14 465/76/14 468/77/14 51/78/14
f 4/26/22 49/79/22 56/61/22 3/23/22
f 50/80/22 51/81/22 54/82/22 55/83/22
f 52/84/22 10/33/22 9/13/22 53/12/22
f 73/85/5 89/86/5 162/86/5 167/85/5
f 85/87/17 87/88/17 60/89/17 469/90/17 464/91/17 58/92/17
f 452/93/23 453/35/23 470/35/23 473/93/23
f 12/34/24 26/36/24 25/9/24 11/14/24
f 14/5/25 32/4/25 26/3/25 12/6/25
f 21/39/26 7/27/26 8/30/26 22/40/26
f 20/45/27 2/25/27 1/24/27 19/42/27
f 22/15/28 8/94/28 2/95/28 20/16/28
f 154/96/1 159/97/1 98/97/1 141/96/1
f 46/98/17 74/99/17 70/100/17 48/101/17 459/102/17 462/103/17
f 24/18/19 41/104/19 78/105/19 23/38/19
f 43/106/29 76/107/29 482/107/29 483/106/29
f 59/108/17 86/109/17 66/110/17 90/111/17 72/112/17 45/113/17 461/114/17 455/115/17 31/116/17 451/117/17 15/118/17 466/119/17
f 4/22/14 6/120/14 64/121/14 49/122/14
f 58/123/30 464/91/30 122/91/30 137/123/30
f 57/54/25 83/53/25 100/53/25 138/54/25
f 79/124/31 57/54/31 138/54/31 121/124/31
f 460/125/32 461/126/32 111/126/32 110/125/32
f 56/61/33 49/79/33 129/79/33 132/61/33
f 459/102/34 48/101/34 150/101/34 107/102/34
f 85/87/35 58/92/35 137/92/35 99/87/35
f 47/57/36 78/56/36 108/56/36 149/57/36
f 78/105/37 41/104/37 105/104/37 108/105/37
f 50/80/38 55/83/38 131/83/38 130/80/38
f 157/127/5 101/127/5 147/128/5 156/128/5
f 46/98/39 462/103/39 112/103/39 151/98/39
f 66/110/40 86/109/40 103/109/40 143/110/40
f 56/61/25 132/61/25 119/62/25 37/62/25
f 461/129/41 45/113/41 152/113/41 111/129/41
f 458/130/42 459/102/42 107/102/42 106/130/42
f 468/131/43 469/132/43 125/132/43 128/131/43
f 155/133/44 146/133/44 93/134/44 160/134/44
f 159/97/45 160/134/45 93/134/45 98/97/45
f 54/82/25 136/82/25 115/72/25 39/72/25 490/135/25
f 70/100/46 74/99/46 96/99/46 95/100/46
f 466/136/47 467/137/47 127/137/47 126/136/47
f 53/12/28 40/11/28 116/11/28 135/12/28
f 74/99/48 46/98/48 151/98/48 96/99/48
f 45/113/28 72/112/28 97/112/28 152/113/28
f 64/74/49 79/73/49 121/73/49 124/74/49
f 69/58/25 47/57/25 149/57/25 94/58/25
f 464/91/50 465/138/50 123/138/50 122/91/50
f 48/139/51 70/100/51 95/100/51 150/139/51
f 158/140/52 153/141/52 144/141/52 102/140/52
f 55/83/28 491/142/28 38/71/28 120/71/28 131/83/28
f 35/69/53 458/68/53 106/68/53 117/69/53
f 28/2/15 30/1/15 460/143/15 33/70/15
f 90/111/68 142/111/68 97/112/68 72/112/68
f 86/109/28 59/108/28 139/108/28 103/109/28
f 52/84/69 53/12/69 135/12/69 134/84/69
f 462/144/70 463/145/70 109/145/70 112/144/70
f 59/108/71 466/119/71 126/119/71 139/108/71
f 469/90/72 60/89/72 140/89/72 125/90/72
f 60/146/73 87/88/73 104/88/73 140/146/73
f 54/82/74 51/81/74 133/81/74 136/82/74
f 34/66/75 39/72/75 115/72/75 114/66/75
f 465/76/53 50/75/53 130/75/53 123/76/53
f 90/147/28 66/110/28 143/110/28 142/147/28
f 49/122/76 64/121/76 124/121/76 129/122/76
f 40/11/77 33/70/77 113/70/77 116/11/77
f 467/47/78 52/46/78 134/46/78 127/47/78
f 153/141/25 154/96/25 141/96/25 144/141/25
f 51/78/79 468/77/79 128/77/79 133/78/79
f 36/49/80 37/62/80 119/62/80 118/49/80
f 155/133/28 156/128/28 147/128/28 146/133/28
f 92/149/81 69/58/81 94/58/81 145/149/81
f 38/71/82 35/69/82 117/69/82 120/71/82
f 463/67/79 34/66/79 114/66/79 109/67/79
f 68/148/25 92/59/25 145/59/25 148/148/25
f 33/70/78 460/143/78 110/143/78 113/70/78
f 157/127/83 158/140/83 102/140/83 101/127/83
f 83/53/84 68/60/84 148/60/84 100/53/84
f 41/50/76 36/49/76 118/49/76 105/50/76
f 87/88/85 85/87/85 99/87/85 104/88/85
f 65/150/17 89/86/17 154/96/17 153/141/17
f 91/151/17 67/152/17 156/128/17 155/133/17
f 84/153/17 88/154/17 158/140/17 157/127/17
f 73/85/17 71/155/17 160/134/17 159/97/17
f 88/154/17 65/150/17 153/141/17 158/140/17
f 67/152/17 84/153/17 157/127/17 156/128/17
f 71/155/17 91/151/17 155/133/17 160/134/17
f 89/86/17 73/85/17 159/97/17 154/96/17
f 84/153/1 67/152/1 164/152/1 165/153/1
f 71/155/46 73/85/46 167/85/46 168/155/46
f 67/152/25 91/151/25 163/151/25 164/152/25
f 91/151/86 71/155/86 168/155/86 163/151/86
f 65/150/87 88/154/87 166/154/87 161/150/87
f 88/154/85 84/153/85 165/153/85 166/154/85
f 89/86/28 65/150/28 161/150/28 162/86/28
f 214/157/25 215/158/25 278/158/25 279/157/25
f 227/171/46 228/172/46 293/172/46 290/171/46
f 229/176/88 226/177/88 291/177/88 292/176/88
f 240/178/35 241/179/35 304/179/35 305/178/35
f 226/177/25 227/171/25 290/171/25 291/177/25
f 239/180/46 240/178/46 305/178/46 302/180/46
f 200/181/35 201/182/35 264/182/35 265/181/35
f 241/179/45 238/183/45 303/183/45 304/179/45
f 252/184/35 253/185/35 316/185/35 317/184/35
f 199/186/89 200/181/89 265/181/89 262/186/89
f 238/183/25 239/180/25 302/180/25 303/183/25
f 251/187/46 252/184/46 317/184/46 314/187/46
f 201/182/45 198/188/45 263/188/45 264/182/45
f 212/189/28 213/190/28 276/190/28 277/189/28
f 253/185/88 250/191/88 315/191/88 316/185/88
f 198/188/48 199/186/48 262/186/48 263/188/48
f 338/245/28 339/246/28 402/246/28 403/245/28
f 351/247/45 352/248/45 417/248/45 414/247/45
f 353/249/90 350/250/90 415/250/90 416/249/90
f 364/251/48 365/252/48 428/252/48 429/251/48
f 350/250/28 351/247/28 414/247/28 415/250/28
f 363/253/45 364/251/45 429/251/45 426/253/45
f 324/254/48 325/255/48 388/255/48 389/254/48
f 365/252/46 362/256/46 427/256/46 428/252/46
f 376/257/48 377/258/48 440/258/48 441/257/48
f 323/259/45 324/254/45 389/254/45 386/259/45
f 362/256/35 363/253/35 426/253/35 427/256/35
f 375/260/45 376/257/45 441/257/45 438/260/45
f 325/255/46 322/261/46 387/261/46 388/255/46
f 336/262/25 337/263/25 400/263/25 401/262/25
f 377/258/90 374/264/90 439/264/90 440/258/90
f 322/261/35 323/259/35 386/259/35 387/261/35
f 228/172/28 229/176/28 292/176/28 293/172/28
f 217/216/45 214/157/45 279/157/45 280/216/45
f 254/242/25 255/241/25 318/241/25 319/242/25
f 215/158/46 216/215/46 281/215/46 278/158/46
f 202/202/25 203/201/25 266/201/25 267/202/25
f 257/244/45 254/242/45 319/242/45 320/244/45
f 216/215/28 217/216/28 280/216/28 281/215/28
f 205/206/45 202/202/45 267/202/45 268/206/45
f 255/241/46 256/243/46 321/243/46 318/241/46
f 242/234/25 243/233/25 306/233/25 307/234/25
f 203/201/46 204/204/46 269/204/46 266/201/46
f 256/243/35 257/244/35 320/244/35 321/243/35
f 245/236/45 242/234/45 307/234/45 308/236/45
f 204/204/28 205/206/28 268/206/28 269/204/28
f 243/233/89 244/235/89 309/235/89 306/233/89
f 230/226/25 231/225/25 294/225/25 295/226/25
f 244/235/35 245/236/35 308/236/35 309/235/35
f 233/228/45 230/226/45 295/226/45 296/228/45
f 231/225/46 232/227/46 297/227/46 294/225/46
f 218/218/25 219/217/25 282/217/25 283/218/25
f 232/227/28 233/228/28 296/228/28 297/227/28
f 221/220/45 218/218/45 283/218/45 284/220/45
f 219/217/89 220/219/89 285/219/89 282/217/89
f 206/209/25 207/208/25 270/208/25 271/209/25
f 220/219/28 221/220/28 284/220/28 285/219/28
f 209/212/45 206/209/45 271/209/45 272/212/45
f 246/238/48 247/237/48 310/237/48 311/238/48
f 207/208/89 208/210/89 273/210/89 270/208/89
f 194/195/48 195/194/48 258/194/48 259/195/48
f 249/240/88 246/238/88 311/238/88 312/240/88
f 208/210/28 209/212/28 272/212/28 273/210/28
f 197/197/45 194/195/45 259/195/45 260/197/45
f 247/237/46 248/239/46 313/239/46 310/237/46
f 234/230/48 235/229/48 298/229/48 299/230/48
f 195/194/46 196/196/46 261/196/46 258/194/46
f 248/239/35 249/240/35 312/240/35 313/239/35
f 237/232/45 234/230/45 299/230/45 300/232/45
f 196/196/35 197/197/35 260/197/35 261/196/35
f 235/229/46 236/231/46 301/231/46 298/229/46
f 222/222/25 223/221/25 286/221/25 287/222/25
f 236/231/35 237/232/35 300/232/35 301/231/35
f 225/224/88 222/222/88 287/222/88 288/224/88
f 223/221/46 224/223/46 289/223/46 286/221/46
f 210/214/25 211/213/25 274/213/25 275/214/25
f 224/223/28 225/224/28 288/224/28 289/223/28
f 213/190/45 210/214/45 275/214/45 276/190/45
f 250/191/25 251/187/25 314/187/25 315/191/25
f 211/213/46 212/189/46 277/189/46 274/213/46
f 259/195/17 258/194/17 323/259/17 322/261/17
f 258/194/17 261/196/17 324/254/17 323/259/17
f 261/196/17 260/197/17 325/255/17 324/254/17
f 260/197/17 259/195/17 322/261/17 325/255/17
f 263/188/17 262/186/17 327/265/17 326/266/17
f 262/186/17 265/181/17 328/267/17 327/265/17
f 265/181/17 264/182/17 329/268/17 328/267/17
f 264/182/17 263/188/17 326/266/17 329/268/17
f 267/202/17 266/201/17 331/269/17 330/270/17
f 266/201/17 269/204/17 332/271/17 331/269/17
f 269/204/17 268/206/17 333/272/17 332/271/17
f 268/206/17 267/202/17 330/270/17 333/272/17
f 271/209/17 270/208/17 335/273/17 334/274/17
f 270/208/17 273/210/17 336/262/17 335/273/17
f 273/210/17 272/212/17 337/263/17 336/262/17
f 272/212/17 271/209/17 334/274/17 337/263/17
f 275/214/17 274/213/17 339/246/17 338/245/17
f 274/213/17 277/189/17 340/275/17 339/246/17
f 277/189/17 276/190/17 341/276/17 340/275/17
f 276/190/17 275/214/17 338/245/17 341/276/17
f 279/157/17 278/158/17 343/277/17 342/278/17
f 278/158/17 281/215/17 344/279/17 343/277/17
f 281/215/17 280/216/17 345/280/17 344/279/17
f 280/216/17 279/157/17 342/278/17 345/280/17
f 283/218/17 282/217/17 347/281/17 346/282/17
f 282/217/17 285/219/17 348/283/17 347/281/17
f 285/219/17 284/220/17 349/284/17 348/283/17
f 284/220/17 283/218/17 346/282/17 349/284/17
f 287/222/17 286/221/17 351/247/17 350/250/17
f 286/221/17 289/223/17 352/248/17 351/247/17
f 289/223/17 288/224/17 353/249/17 352/248/17
f 288/224/17 287/222/17 350/250/17 353/249/17
f 291/177/17 290/171/17 355/285/17 354/286/17
f 290/171/17 293/172/17 356/287/17 355/285/17
f 293/172/17 292/176/17 357/288/17 356/287/17
f 292/176/17 291/177/17 354/286/17 357/288/17
f 295/226/17 294/225/17 359/289/17 358/290/17
f 294/225/17 297/227/17 360/291/17 359/289/17
f 297/227/17 296/228/17 361/292/17 360/291/17
f 296/228/17 295/226/17 358/290/17 361/292/17
f 299/230/17 298/229/17 363/253/17 362/256/17
f 298/229/17 301/231/17 364/251/17 363/253/17
f 301/231/17 300/232/17 365/252/17 364/251/17
f 300/232/17 299/230/17 362/256/17 365/252/17
f 303/183/17 302/180/17 367/293/17 366/294/17
f 302/180/17 305/178/17 368/295/17 367/293/17
f 305/178/17 304/179/17 369/296/17 368/295/17
f 304/179/17 303/183/17 366/294/17 369/296/17
f 307/234/17 306/233/17 371/297/17 370/298/17
f 306/233/17 309/235/17 372/299/17 371/297/17
f 309/235/17 308/236/17 373/300/17 372/299/17
f 308/236/17 307/234/17 370/298/17 373/300/17
f 311/238/17 310/237/17 375/260/17 374/264/17
f 310/237/17 313/239/17 376/257/17 375/260/17
f 313/239/17 312/240/17 377/258/17 376/257/17
f 312/240/17 311/238/17 374/264/17 377/258/17
f 315/191/17 314/187/17 379/301/17 378/302/17
f 314/187/17 317/184/17 380/303/17 379/301/17
f 317/184/17 316/185/17 381/304/17 380/303/17
f 316/185/17 315/191/17 378/302/17 381/304/17
f 319/242/17 318/241/17 383/305/17 382/306/17
f 318/241/17 321/243/17 384/307/17 383/305/17
f 321/243/17 320/244/17 385/308/17 384/307/17
f 320/244/17 319/242/17 382/306/17 385/308/17
f 352/248/25 353/249/25 416/249/25 417/248/25
f 341/276/46 338/245/46 403/245/46 404/276/46
f 378/302/28 379/301/28 442/301/28 443/302/28
f 339/246/45 340/275/45 405/275/45 402/246/45
f 326/266/35 327/265/35 390/265/35 391/266/35
f 381/304/90 378/302/90 443/302/90 444/304/90
f 340/275/25 341/276/25 404/276/25 405/275/25
f 329/268/46 326/266/46 391/266/46 392/268/46
f 379/301/45 380/303/45 445/303/45 442/301/45
f 366/294/28 367/293/28 430/293/28 431/294/28
f 327/265/91 328/267/91 393/267/91 390/265/91
f 380/303/48 381/304/48 444/304/48 445/303/48
f 369/296/46 366/294/46 431/294/46 432/296/46
f 328/267/48 329/268/48 392/268/48 393/267/48
f 367/293/45 368/295/45 433/295/45 430/293/45
f 354/286/28 355/285/28 418/285/28 419/286/28
f 368/295/48 369/296/48 432/296/48 433/295/48
f 357/288/90 354/286/90 419/286/90 420/288/90
f 355/285/45 356/287/45 421/287/45 418/285/45
f 342/278/28 343/277/28 406/277/28 407/278/28
f 356/287/25 357/288/25 420/288/25 421/287/25
f 345/280/46 342/278/46 407/278/46 408/280/46
f 382/306/28 383/305/28 446/305/28 447/306/28
f 343/277/45 344/279/45 409/279/45 406/277/45
f 330/270/28 331/269/28 394/269/28 395/270/28
f 385/308/46 382/306/46 447/306/46 448/308/46
f 344/279/25 345/280/25 408/280/25 409/279/25
f 333/272/46 330/270/46 395/270/46 396/272/46
f 383/305/45 384/307/45 449/307/45 446/305/45
f 370/298/28 371/297/28 434/297/28 435/298/28
f 331/269/45 332/271/45 397/271/45 394/269/45
f 384/307/48 385/308/48 448/308/48 449/307/48
f 373/300/46 370/298/46 435/298/46 436/300/46
f 332/271/25 333/272/25 396/272/25 397/271/25
f 371/297/91 372/299/91 437/299/91 434/297/91
f 358/290/28 359/289/28 422/289/28 423/290/28
f 372/299/48 373/300/48 436/300/48 437/299/48
f 361/292/46 358/290/46 423/290/46 424/292/46
f 359/289/45 360/291/45 425/291/45 422/289/45
f 346/282/28 347/281/28 410/281/28 411/282/28
f 360/291/25 361/292/25 424/292/25 425/291/25
f 349/284/46 346/282/46 411/282/46 412/284/46
f 347/281/91 348/283/91 413/283/91 410/281/91
f 334/274/28 335/273/28 398/273/28 399/274/28
f 348/283/25 349/284/25 412/284/25 413/283/25
f 337/263/46 334/274/46 399/274/46 400/263/46
f 374/264/35 375/260/35 438/260/35 439/264/35
f 335/273/91 336/262/91 401/262/91 398/273/91
f 13/309/92 450/310/92 15/118/92 451/117/92
f 453/35/92 452/93/92 14/311/92 16/312/92
f 29/52/93 454/51/93 31/116/93 455/115/93
f 457/313/93 456/314/93 30/315/93 32/316/93
f 452/93/94 457/313/94 32/316/94 14/311/94
f 454/51/94 13/309/94 451/117/94 31/116/94
f 42/317/19 77/318/19 459/102/19 458/130/19
f 44/319/19 75/320/19 461/126/19 460/125/19
f 76/107/19 43/106/19 463/145/19 462/144/19
f 80/64/21 63/63/21 465/138/21 464/91/21
f 82/32/21 61/31/21 467/137/21 466/136/21
f 62/65/21 81/321/21 469/132/21 468/131/21
f 456/322/95 44/319/95 460/125/95 30/1/95
f 43/106/19 42/317/19 458/130/19 463/145/19
f 77/318/19 76/107/19 462/144/19 459/102/19
f 75/320/96 29/52/96 455/115/96 461/126/96
f 63/63/21 62/65/21 468/131/21 465/138/21
f 61/31/97 453/35/97 16/312/97 467/137/97
f 81/321/21 80/64/21 464/91/21 469/132/21
f 450/310/98 82/32/98 466/136/98 15/118/98
f 456/314/104 457/313/104 474/313/104 477/314/104
f 80/64/22 81/321/22 489/321/22 484/64/22
f 81/321/105 62/65/105 488/65/105 489/321/105
f 457/313/106 452/93/106 473/93/106 474/313/106
f 82/32/107 450/310/107 471/310/107 486/32/107
f 44/319/108 456/322/108 477/322/108 480/319/108
f 13/309/109 454/51/109 475/51/109 472/309/109
f 42/317/21 43/106/21 483/106/21 478/317/21
f 77/318/110 42/317/110 478/317/110 479/318/110
f 76/107/20 77/318/20 479/318/20 482/107/20
f 75/320/111 44/319/111 480/319/111 481/320/111
f 450/310/112 13/309/112 472/309/112 471/310/112
f 29/52/113 75/320/113 481/320/113 476/52/113
f 496/323/114 497/324/114 504/324/114 505/323/114
f 512/325/14 513/326/14 555/326/14 548/325/14
f 490/135/3 39/72/3 493/327/3 492/328/3
f 39/72/3 38/71/3 494/329/3 493/327/3
f 38/71/3 491/142/3 495/330/3 494/329/3
f 491/142/3 490/135/3 492/328/3 495/330/3
f 54/82/3 490/135/3 497/324/3 496/323/3
f 490/135/3 491/142/3 498/331/3 497/324/3
f 491/142/3 55/83/3 499/332/3 498/331/3
f 55/83/3 54/82/3 496/323/3 499/332/3
f 501/328/27 500/327/27 503/329/27 502/330/27
f 505/323/27 504/324/27 507/331/27 506/332/27
f 518/333/15 519/334/15 544/334/15 542/333/15
f 498/331/115 499/332/115 506/332/115 507/331/115
f 492/328/114 493/327/114 500/327/114 501/328/114
f 510/335/14 511/336/14 543/336/14 545/335/14
f 494/329/115 495/330/115 502/330/115 503/329/115
f 517/337/15 518/333/15 542/333/15 541/337/15
f 497/324/15 498/331/15 525/338/15 524/339/15
f 498/331/15 507/331/15 527/340/15 525/338/15
f 507/331/15 504/324/15 526/341/15 527/340/15
f 504/324/15 497/324/15 524/339/15 526/341/15
f 493/327/15 494/329/15 528/342/15 529/343/15
f 494/329/15 503/329/15 531/344/15 528/342/15
f 503/329/15 500/327/15 530/345/15 531/344/15
f 500/327/15 493/327/15 529/343/15 530/345/15
f 499/332/14 496/323/14 532/346/14 533/347/14
f 496/323/14 505/323/14 535/348/14 532/346/14
f 505/323/14 506/332/14 534/349/14 535/348/14
f 506/332/14 499/332/14 533/347/14 534/349/14
f 495/330/14 492/328/14 536/350/14 537/351/14
f 492/328/14 501/328/14 539/352/14 536/350/14
f 501/328/14 502/330/14 538/353/14 539/352/14
f 502/330/14 495/330/14 537/351/14 538/353/14
f 509/354/14 510/335/14 545/335/14 547/354/14
f 519/334/15 516/355/15 546/355/15 544/334/15
f 511/336/14 508/356/14 540/356/14 543/336/14
f 516/355/15 517/337/15 541/337/15 546/355/15
f 509/354/3 508/356/3 524/339/3 525/338/3
f 508/356/116 511/336/116 526/341/116 524/339/116
f 510/335/117 509/354/117 525/338/117 527/340/117
f 511/336/118 510/335/118 527/340/118 526/341/118
f 513/326/3 512/325/3 529/343/3 528/342/3
f 512/325/116 515/357/116 530/345/116 529/343/116
f 514/358/117 513/326/117 528/342/117 531/344/117
f 515/357/118 514/358/118 531/344/118 530/345/118
f 517/337/3 516/355/3 533/347/3 532/346/3
f 516/355/117 519/334/117 534/349/117 533/347/117
f 518/333/116 517/337/116 532/346/116 535/348/116
f 519/334/118 518/333/118 535/348/118 534/349/118
f 521/359/3 520/360/3 537/351/3 536/350/3
f 520/360/117 523/361/117 538/353/117 537/351/117
f 522/362/116 521/359/116 536/350/116 539/352/116
f 523/361/118 522/362/118 539/352/118 538/353/118
f 520/360/15 521/359/15 549/359/15 554/360/15
f 515/357/14 512/325/14 548/325/14 551/357/14
f 523/361/15 520/360/15 554/360/15 552/361/15
f 513/326/14 514/358/14 553/358/14 555/326/14
f 521/359/15 522/362/15 550/362/15 549/359/15
f 514/358/14 515/357/14 551/357/14 553/358/14
f 508/356/14 509/354/14 547/354/14 540/356/14
f 522/362/15 523/361/15 552/361/15 550/362/15
usemtl M_Noir_Profond
f 94/58/17 95/100/17 93/134/17
f 97/112/17 98/97/17 96/99/17
f 100/53/17 101/127/17 99/87/17
f 103/109/17 104/88/17 102/140/17
f 106/130/54 107/102/54 108/105/54 105/104/54
f 110/125/55 111/126/55 112/144/55 109/145/55
f 114/66/20 115/72/20 116/11/20 113/70/20
f 118/49/20 119/62/20 120/71/20 117/69/20
f 109/67/56 114/66/56 113/70/56 110/143/56
f 105/50/57 118/49/57 117/69/57 106/68/57
f 122/91/58 123/138/58 124/74/58 121/73/58
f 126/136/59 127/137/59 128/131/59 125/132/59
f 130/80/22 131/83/22 132/61/22 129/79/22
f 134/84/22 135/12/22 136/82/22 133/81/22
f 123/76/60 130/75/60 129/122/60 124/121/60
f 127/47/61 134/46/61 133/78/61 128/77/61
f 132/61/62 131/83/62 120/71/62 119/62/62
f 100/53/17 148/60/17 147/128/17 101/127/17
f 136/82/63 135/12/63 116/11/63 115/72/63
f 99/87/17 137/92/17 138/54/17 100/53/17
f 103/109/17 139/108/17 140/146/17 104/88/17
f 142/147/17 143/110/17 144/141/17 141/96/17
f 146/133/17 147/128/17 148/148/17 145/59/17
f 101/127/17 102/140/17 104/88/17 99/87/17
f 150/139/17 95/100/17 94/58/17 149/57/17
f 152/113/17 97/112/17 96/99/17 151/98/17
f 95/100/17 96/99/17 98/97/17 93/134/17
f 111/129/64 152/113/64 151/98/64 112/103/64
f 149/57/65 108/56/65 107/102/65 150/101/65
f 121/124/66 138/54/66 137/123/66 122/91/66
f 139/108/67 126/119/67 125/90/67 140/89/67
f 143/110/17 103/109/17 102/140/17 144/141/17
f 141/96/17 98/97/17 97/112/17 142/111/17
f 93/134/17 146/133/17 145/149/17 94/58/17
f 162/86/17 172/156/17 167/85/17
f 163/151/17 169/159/17 182/160/17 173/161/17 178/162/17 170/163/17 164/152/17
f 165/153/17 170/163/17 183/164/17 174/165/17 179/166/17 171/167/17 166/154/17
f 168/155/17 169/159/17 163/151/17
f 164/152/17 170/163/17 165/153/17
f 161/150/17 171/167/17 185/168/17 176/169/17 181/170/17 172/156/17 162/86/17
f 167/85/17 172/156/17 180/173/17 175/174/17 184/175/17 169/159/17 168/155/17
f 166/154/17 171/167/17 161/150/17
f 193/192/17 186/193/17 195/194/17 194/195/17
f 186/193/17 173/161/17 196/196/17 195/194/17
f 173/161/17 182/160/17 197/197/17 196/196/17
f 182/160/17 193/192/17 194/195/17 197/197/17
f 192/198/17 183/164/17 199/186/17 198/188/17
f 183/164/17 170/163/17 200/181/17 199/186/17
f 170/163/17 178/162/17 201/182/17 200/181/17
f 178/162/17 192/198/17 198/188/17 201/182/17
f 191/199/17 187/200/17 203/201/17 202/202/17
f 187/200/17 177/203/17 204/204/17 203/201/17
f 177/203/17 188/205/17 205/206/17 204/204/17
f 188/205/17 191/199/17 202/202/17 205/206/17
f 190/207/17 179/166/17 207/208/17 206/209/17
f 179/166/17 174/165/17 208/210/17 207/208/17
f 174/165/17 189/211/17 209/212/17 208/210/17
f 189/211/17 190/207/17 206/209/17 209/212/17
f 187/200/17 190/207/17 211/213/17 210/214/17
f 190/207/17 189/211/17 212/189/17 211/213/17
f 189/211/17 177/203/17 213/190/17 212/189/17
f 177/203/17 187/200/17 210/214/17 213/190/17
f 176/169/17 185/168/17 215/158/17 214/157/17
f 185/168/17 190/207/17 216/215/17 215/158/17
f 190/207/17 187/200/17 217/216/17 216/215/17
f 187/200/17 176/169/17 214/157/17 217/216/17
f 185/168/17 171/167/17 219/217/17 218/218/17
f 171/167/17 179/166/17 220/219/17 219/217/17
f 179/166/17 190/207/17 221/220/17 220/219/17
f 190/207/17 185/168/17 218/218/17 221/220/17
f 180/173/17 191/199/17 223/221/17 222/222/17
f 191/199/17 188/205/17 224/223/17 223/221/17
f 188/205/17 175/174/17 225/224/17 224/223/17
f 175/174/17 180/173/17 222/222/17 225/224/17
f 172/156/17 181/170/17 227/171/17 226/177/17
f 181/170/17 191/199/17 228/172/17 227/171/17
f 191/199/17 180/173/17 229/176/17 228/172/17
f 180/173/17 172/156/17 226/177/17 229/176/17
f 181/170/17 176/169/17 231/225/17 230/226/17
f 176/169/17 187/200/17 232/227/17 231/225/17
f 187/200/17 191/199/17 233/228/17 232/227/17
f 191/199/17 181/170/17 230/226/17 233/228/17
f 186/193/17 192/198/17 235/229/17 234/230/17
f 192/198/17 178/162/17 236/231/17 235/229/17
f 178/162/17 173/161/17 237/232/17 236/231/17
f 173/161/17 186/193/17 234/230/17 237/232/17
f 177/203/17 189/211/17 239/180/17 238/183/17
f 189/211/17 192/198/17 240/178/17 239/180/17
f 192/198/17 186/193/17 241/179/17 240/178/17
f 186/193/17 177/203/17 238/183/17 241/179/17
f 189/211/17 174/165/17 243/233/17 242/234/17
f 174/165/17 183/164/17 244/235/17 243/233/17
f 183/164/17 192/198/17 245/236/17 244/235/17
f 192/198/17 189/211/17 242/234/17 245/236/17
f 184/175/17 193/192/17 247/237/17 246/238/17
f 193/192/17 182/160/17 248/239/17 247/237/17
f 182/160/17 169/159/17 249/240/17 248/239/17
f 169/159/17 184/175/17 246/238/17 249/240/17
f 175/174/17 188/205/17 251/187/17 250/191/17
f 188/205/17 193/192/17 252/184/17 251/187/17
f 193/192/17 184/175/17 253/185/17 252/184/17
f 184/175/17 175/174/17 250/191/17 253/185/17
f 188/205/17 177/203/17 255/241/17 254/242/17
f 177/203/17 186/193/17 256/243/17 255/241/17
f 186/193/17 193/192/17 257/244/17 256/243/17
f 193/192/17 188/205/17 254/242/17 257/244/17
usemtl M_Cyan
f 387/261/17 386/259/17 389/254/17 388/255/17
f 391/266/17 390/265/17 393/267/17 392/268/17
f 395/270/17 394/269/17 397/271/17 396/272/17
f 399/274/17 398/273/17 401/262/17 400/263/17
f 403/245/17 402/246/17 405/275/17 404/276/17
f 407/278/17 406/277/17 409/279/17 408/280/17
f 411/282/17 410/281/17 413/283/17 412/284/17
f 415/250/17 414/247/17 417/248/17 416/249/17
f 419/286/17 418/285/17 421/287/17 420/288/17
f 423/290/17 422/289/17 425/291/17 424/292/17
f 427/256/17 426/253/17 429/251/17 428/252/17
f 431/294/17 430/293/17 433/295/17 432/296/17
f 435/298/17 434/297/17 437/299/17 436/300/17
f 439/264/17 438/260/17 441/257/17 440/258/17
f 443/302/17 442/301/17 445/303/17 444/304/17
f 447/306/17 446/305/17 449/307/17 448/308/17
f 542/333/119 544/334/119 545/335/119 543/336/119
f 550/362/119 552/361/119 553/358/119 551/357/119
f 541/337/120 542/333/120 543/336/120 540/356/120
f 549/359/120 550/362/120 551/357/120 548/325/120
f 544/334/121 546/355/121 547/354/121 545/335/121
f 546/355/122 541/337/122 540/356/122 547/354/122
f 552/361/121 554/360/121 555/326/121 553/358/121
f 554/360/122 549/359/122 548/325/122 555/326/122
usemtl M_Orange
f 471/310/99 472/309/99 473/93/99 470/35/99
f 475/51/100 476/52/100 477/314/100 474/313/100
f 484/64/21 489/321/21 488/65/21 485/63/21
f 478/317/19 483/106/19 482/107/19 479/318/19
f 480/319/101 477/322/101 476/52/101 481/320/101
f 474/313/102 473/93/102 472/309/102 475/51/102
f 486/32/103 471/310/103 470/35/103 487/31/103
