# Blender 4.2.3 LTS
# www.blender.org
mtllib SM_Cable_Distribution_Node.mtl
o SM_Cable_Distribution_Node
v -0.099116 0.000000 0.111015
v -0.104908 0.013985 0.125000
v -0.111015 0.000000 0.099116
v -0.125000 0.013985 0.104908
v -0.111015 0.100000 0.099116
v -0.125000 0.086015 0.104908
v -0.099116 0.100000 0.111015
v -0.104908 0.086015 0.125000
v -0.111015 0.000000 -0.099116
v -0.125000 0.013985 -0.104908
v -0.099116 0.000000 -0.111015
v -0.104908 0.013985 -0.125000
v -0.099116 0.100000 -0.111015
v -0.104908 0.086015 -0.125000
v -0.111015 0.100000 -0.099116
v -0.125000 0.086015 -0.104908
v 0.111015 0.000000 0.099116
v 0.125000 0.013985 0.104908
v 0.099116 0.000000 0.111015
v 0.104908 0.013985 0.125000
v 0.099116 0.100000 0.111015
v 0.104908 0.086015 0.125000
v 0.111015 0.100000 0.099116
v 0.125000 0.086015 0.104908
v 0.099116 0.000000 -0.111015
v 0.104908 0.013985 -0.125000
v 0.111015 0.000000 -0.099116
v 0.125000 0.013985 -0.104908
v 0.111015 0.100000 -0.099116
v 0.125000 0.086015 -0.104908
v 0.099116 0.100000 -0.111015
v 0.104908 0.086015 -0.125000
v 0.104908 0.072912 -0.125000
v 0.104908 0.027532 -0.125000
v -0.104908 0.027532 -0.125000
v -0.104908 0.072912 -0.125000
v -0.104908 0.072912 0.125000
v -0.104908 0.027532 0.125000
v 0.104908 0.027532 0.125000
v 0.104908 0.072912 0.125000
v -0.125000 0.072912 -0.104908
v -0.125000 0.027532 -0.104908
v -0.125000 0.027532 0.104908
v -0.125000 0.072912 0.104908
v 0.125000 0.072912 0.104908
v 0.125000 0.027532 0.104908
v 0.125000 0.027532 -0.104908
v 0.125000 0.072912 -0.104908
v 0.084557 0.100000 -0.082109
v 0.084628 0.100000 -0.084557
v 0.082038 0.100000 -0.084557
v 0.082109 0.100000 -0.082109
v 0.084557 0.100000 0.082109
v 0.082109 0.100000 0.082109
v 0.082038 0.100000 0.084557
v 0.084628 0.100000 0.084557
v -0.084557 0.100000 -0.082109
v -0.082109 0.100000 -0.082109
v -0.082038 0.100000 -0.084557
v -0.084628 0.100000 -0.084557
v -0.084557 0.100000 0.082109
v -0.084628 0.100000 0.084557
v -0.082038 0.100000 0.084557
v -0.082109 0.100000 0.082109
v -0.084557 0.000000 -0.082109
v -0.084628 0.000000 -0.084557
v -0.082039 0.000000 -0.084557
v -0.082109 0.000000 -0.082109
v -0.084557 0.000000 0.082109
v -0.082109 0.000000 0.082109
v -0.082039 0.000000 0.084557
v -0.084628 0.000000 0.084557
v 0.084557 0.000000 -0.082109
v 0.082109 0.000000 -0.082109
v 0.082039 0.000000 -0.084557
v 0.084628 0.000000 -0.084557
v 0.084557 0.000000 0.082109
v 0.084628 0.000000 0.084557
v 0.082039 0.000000 0.084557
v 0.082109 0.000000 0.082109
v 0.082027 0.013985 -0.125000
v 0.084640 0.013985 -0.125000
v 0.084631 0.000000 -0.111015
v 0.082036 0.000000 -0.111015
v -0.082036 0.000000 -0.111015
v -0.084631 0.000000 -0.111015
v -0.084640 0.013985 -0.125000
v -0.082027 0.013985 -0.125000
v -0.082027 0.086015 -0.125000
v -0.084640 0.086015 -0.125000
v -0.084631 0.100000 -0.111015
v -0.082035 0.100000 -0.111015
v 0.082035 0.100000 -0.111015
v 0.084631 0.100000 -0.111015
v 0.084640 0.086015 -0.125000
v 0.082027 0.086015 -0.125000
v -0.082027 0.013985 0.125000
v -0.084640 0.013985 0.125000
v -0.084631 0.000000 0.111015
v -0.082036 0.000000 0.111015
v 0.082036 0.000000 0.111015
v 0.084631 0.000000 0.111015
v 0.084640 0.013985 0.125000
v 0.082027 0.013985 0.125000
v 0.082027 0.086015 0.125000
v 0.084640 0.086015 0.125000
v 0.084631 0.100000 0.111015
v 0.082035 0.100000 0.111015
v -0.082035 0.100000 0.111015
v -0.084631 0.100000 0.111015
v -0.084640 0.086015 0.125000
v -0.082027 0.086015 0.125000
v -0.125000 0.013985 -0.082109
v -0.125000 0.013985 -0.084557
v -0.111015 0.000000 -0.084557
v -0.111015 0.000000 -0.082109
v -0.111015 0.000000 0.082109
v -0.111015 0.000000 0.084557
v -0.125000 0.013985 0.084557
v -0.125000 0.013985 0.082109
v -0.125000 0.086015 0.082109
v -0.125000 0.086015 0.084557
v -0.111015 0.100000 0.084557
v -0.111015 0.100000 0.082109
v -0.111015 0.100000 -0.082109
v -0.111015 0.100000 -0.084557
v -0.125000 0.086015 -0.084557
v -0.125000 0.086015 -0.082109
v 0.125000 0.013985 0.082109
v 0.125000 0.013985 0.084557
v 0.111015 0.000000 0.084557
v 0.111015 0.000000 0.082109
v 0.111015 0.000000 -0.082109
v 0.111015 0.000000 -0.084557
v 0.125000 0.013985 -0.084557
v 0.125000 0.013985 -0.082109
v 0.125000 0.086015 -0.082109
v 0.125000 0.086015 -0.084557
v 0.111015 0.100000 -0.084557
v 0.111015 0.100000 -0.082109
v 0.111015 0.100000 0.082109
v 0.111015 0.100000 0.084557
v 0.125000 0.086015 0.084557
v 0.125000 0.086015 0.082109
v -0.097147 0.027532 -0.125000
v -0.094519 0.027532 -0.125000
v -0.097148 0.072912 -0.125000
v 0.097148 0.072912 -0.125000
v 0.094519 0.072912 -0.125000
v 0.097147 0.027532 -0.125000
v 0.097147 0.027532 0.125000
v 0.094519 0.072912 0.125000
v 0.097148 0.072912 0.125000
v -0.097148 0.072912 0.125000
v -0.094519 0.027532 0.125000
v -0.097147 0.027532 0.125000
v -0.125000 0.027532 0.084557
v -0.125000 0.027532 0.082109
v -0.125000 0.072912 0.082109
v -0.125000 0.072912 0.084557
v -0.125000 0.072912 -0.084557
v -0.125000 0.072912 -0.082109
v -0.125000 0.027532 -0.082109
v -0.125000 0.027532 -0.084557
v 0.125000 0.027532 -0.084557
v 0.125000 0.027532 -0.082109
v 0.125000 0.072912 -0.082109
v 0.125000 0.072912 -0.084557
v 0.125000 0.072912 0.084557
v 0.125000 0.072912 0.082109
v 0.125000 0.027532 0.082109
v 0.125000 0.027532 0.084557
v 0.082109 0.097453 -0.082109
v 0.084557 0.097453 -0.082109
v 0.084628 0.097453 -0.084557
v 0.082038 0.097453 -0.084557
v 0.084628 0.097453 0.084557
v 0.084557 0.097453 0.082109
v 0.082109 0.097453 0.082109
v 0.082038 0.097453 0.084557
v -0.084628 0.097453 -0.084557
v -0.084557 0.097453 -0.082109
v -0.082109 0.097453 -0.082109
v -0.082038 0.097453 -0.084557
v -0.082109 0.097453 0.082109
v -0.084557 0.097453 0.082109
v -0.084628 0.097453 0.084557
v -0.082038 0.097453 0.084557
v -0.082109 0.002547 -0.082109
v -0.084557 0.002547 -0.082109
v -0.084628 0.002547 -0.084557
v -0.082039 0.002547 -0.084557
v -0.084628 0.002547 0.084557
v -0.084557 0.002547 0.082109
v -0.082109 0.002547 0.082109
v -0.082039 0.002547 0.084557
v 0.084628 0.002547 -0.084557
v 0.084557 0.002547 -0.082109
v 0.082109 0.002547 -0.082109
v 0.082039 0.002547 -0.084557
v 0.082109 0.002547 0.082109
v 0.084557 0.002547 0.082109
v 0.084628 0.002547 0.084557
v 0.082039 0.002547 0.084557
v 0.082027 0.015349 -0.122622
v 0.084640 0.014833 -0.122383
v 0.084631 0.002547 -0.109960
v 0.082036 0.002547 -0.109960
v -0.082036 0.002547 -0.109960
v -0.084631 0.002547 -0.109960
v -0.084640 0.014833 -0.122383
v -0.082027 0.015349 -0.122622
v -0.082027 0.084643 -0.122628
v -0.084640 0.085171 -0.122382
v -0.084631 0.097453 -0.109960
v -0.082035 0.097453 -0.109960
v 0.082035 0.097453 -0.109960
v 0.084631 0.097453 -0.109960
v 0.084640 0.085171 -0.122382
v 0.082027 0.084643 -0.122628
v -0.082027 0.015349 0.122622
v -0.084640 0.014833 0.122383
v -0.084631 0.002547 0.109960
v -0.082036 0.002547 0.109960
v 0.082036 0.002547 0.109960
v 0.084631 0.002547 0.109960
v 0.084640 0.014833 0.122383
v 0.082027 0.015349 0.122622
v 0.082027 0.084643 0.122628
v 0.084640 0.085171 0.122382
v 0.084631 0.097453 0.109960
v 0.082035 0.097453 0.109960
v -0.082035 0.097453 0.109960
v -0.084631 0.097453 0.109960
v -0.084640 0.085171 0.122382
v -0.082027 0.084643 0.122628
v -0.122453 0.015040 -0.082109
v -0.122453 0.015040 -0.084557
v -0.109960 0.002547 -0.084557
v -0.109960 0.002547 -0.082109
v -0.109960 0.002547 0.082109
v -0.109960 0.002547 0.084557
v -0.122453 0.015040 0.084557
v -0.122453 0.015040 0.082109
v -0.122453 0.084960 0.082109
v -0.122453 0.084960 0.084557
v -0.109960 0.097453 0.084557
v -0.109960 0.097453 0.082109
v -0.109960 0.097453 -0.082109
v -0.109960 0.097453 -0.084557
v -0.122453 0.084960 -0.084557
v -0.122453 0.084960 -0.082109
v 0.122453 0.015040 0.082109
v 0.122453 0.015040 0.084557
v 0.109960 0.002547 0.084557
v 0.109960 0.002547 0.082109
v 0.109960 0.002547 -0.082109
v 0.109960 0.002547 -0.084557
v 0.122453 0.015040 -0.084557
v 0.122453 0.015040 -0.082109
v 0.122453 0.084960 -0.082109
v 0.122453 0.084960 -0.084557
v 0.109960 0.097453 -0.084557
v 0.109960 0.097453 -0.082109
v 0.109960 0.097453 0.082109
v 0.109960 0.097453 0.084557
v 0.122453 0.084960 0.084557
v 0.122453 0.084960 0.082109
v -0.094519 0.072912 -0.122453
v -0.097148 0.072912 -0.122453
v 0.094519 0.027532 -0.122453
v 0.097147 0.027532 -0.122453
v 0.094519 0.072912 0.122453
v 0.097148 0.072912 0.122453
v -0.094519 0.027532 0.122453
v -0.097147 0.027532 0.122453
v -0.122453 0.072912 0.082109
v -0.122453 0.072912 0.084557
v -0.122453 0.027532 -0.082109
v -0.122453 0.027532 -0.084557
v 0.122453 0.072912 -0.082109
v 0.122453 0.072912 -0.084557
v 0.122453 0.027532 0.082109
v 0.122453 0.027532 0.084557
v -0.097147 0.027532 -0.122453
v -0.094519 0.027532 -0.122453
v 0.097148 0.072912 -0.122453
v 0.094519 0.072912 -0.122453
v 0.097147 0.027532 0.122453
v 0.094519 0.027532 0.122453
v -0.097148 0.072912 0.122453
v -0.094519 0.072912 0.122453
v -0.122453 0.027532 0.084557
v -0.122453 0.027532 0.082109
v -0.122453 0.072912 -0.084557
v -0.122453 0.072912 -0.082109
v 0.122453 0.027532 -0.084557
v 0.122453 0.027532 -0.082109
v 0.122453 0.072912 0.084557
v 0.122453 0.072912 0.082109
v -0.125000 0.028661 0.077351
v -0.125000 0.071783 0.077351
v -0.125000 0.071783 -0.077351
v -0.125000 0.028661 -0.077351
v 0.125000 0.028661 -0.077351
v 0.125000 0.071783 -0.077351
v 0.125000 0.071783 0.077351
v 0.125000 0.028661 0.077351
v -0.121392 0.065623 0.077351
v -0.121392 0.034821 0.077351
v -0.121392 0.034821 -0.077351
v -0.121392 0.065623 -0.077351
v 0.121392 0.065623 -0.077351
v 0.121392 0.034821 -0.077351
v 0.121392 0.034821 0.077351
v 0.121392 0.065623 0.077351
v -0.121392 0.048040 0.047830
v -0.121392 0.063432 0.047830
v -0.121392 0.063432 -0.047830
v -0.121392 0.048040 -0.047830
v 0.121392 0.048040 -0.047830
v 0.121392 0.063432 -0.047830
v 0.121392 0.063432 0.047830
v 0.121392 0.048040 0.047830
v -0.119647 0.063432 0.047830
v -0.119647 0.048040 0.047830
v -0.119647 0.048040 -0.047830
v -0.119647 0.063432 -0.047830
v 0.119647 0.063432 -0.047830
v 0.119647 0.048040 -0.047830
v 0.119647 0.048040 0.047830
v 0.119647 0.063432 0.047830
v 0.077634 0.100000 -0.077634
v -0.077634 0.100000 -0.077634
v -0.077634 0.100000 0.077634
v 0.077634 0.100000 0.077634
v 0.077634 0.097072 0.045717
v -0.077634 0.097072 0.045717
v -0.077634 0.097072 -0.045717
v 0.077634 0.097072 -0.045717
v 0.077634 0.097072 -0.031917
v -0.077634 0.097072 -0.031917
v -0.077634 0.097072 -0.006900
v 0.077634 0.097072 -0.006900
v 0.077634 0.097072 0.006900
v -0.077634 0.097072 0.006900
v -0.077634 0.097072 0.072262
v 0.077634 0.097072 0.072262
v 0.077634 0.097072 -0.072262
v -0.077634 0.097072 -0.072262
v 0.077634 0.100000 -0.002222
v 0.077634 0.100000 0.002222
v -0.077634 0.100000 0.002222
v -0.077634 0.100000 -0.002222
v 0.077634 0.100000 0.036595
v 0.077634 0.100000 0.041039
v -0.077634 0.100000 -0.036595
v -0.077634 0.100000 -0.041039
v 0.077634 0.100000 -0.041039
v 0.077634 0.100000 -0.036595
v -0.077634 0.100000 0.041039
v -0.077634 0.100000 0.036595
v 0.077634 0.100000 0.056004
v 0.077634 0.100000 0.060447
v -0.077634 0.100000 -0.056004
v -0.077634 0.100000 -0.060447
v 0.077634 0.100000 -0.021630
v 0.077634 0.100000 -0.017187
v -0.077634 0.100000 0.021630
v -0.077634 0.100000 0.017187
v 0.077634 0.100000 0.017187
v 0.077634 0.100000 0.021630
v -0.077634 0.100000 -0.017187
v -0.077634 0.100000 -0.021630
v 0.077634 0.100000 -0.060447
v 0.077634 0.100000 -0.056004
v -0.077634 0.100000 0.060447
v -0.077634 0.100000 0.056004
v 0.077634 0.097072 0.031917
v -0.077634 0.097072 0.031917
v -0.077634 0.097072 0.026308
v 0.077634 0.097072 0.026308
v 0.077634 0.097072 0.012509
v -0.077634 0.097072 0.012509
v -0.077634 0.097072 -0.051326
v 0.077634 0.097072 -0.051326
v 0.077634 0.097072 -0.065820
v -0.077634 0.097072 -0.065820
v -0.077634 0.097072 -0.012509
v 0.077634 0.097072 -0.012509
v 0.077634 0.097072 -0.026308
v -0.077634 0.097072 -0.026308
v -0.077634 0.097072 0.065820
v 0.077634 0.097072 0.065820
v 0.077634 0.097072 0.051326
v -0.077634 0.097072 0.051326
v 0.077634 0.090298 0.031917
v -0.077634 0.090298 0.031917
v 0.077634 0.090298 -0.045717
v -0.077634 0.090298 -0.045717
v 0.077634 0.090298 -0.031917
v 0.077634 0.090298 -0.026308
v 0.077634 0.090298 0.012509
v 0.077634 0.090298 0.006900
v -0.077634 0.090298 -0.012509
v -0.077634 0.090298 -0.006900
v -0.077634 0.090298 0.065820
v 0.077634 0.090298 0.065820
v 0.077634 0.090298 -0.065820
v -0.077634 0.090298 -0.065820
v -0.077634 0.090298 0.012509
v 0.077634 0.090298 -0.006900
v 0.077634 0.090298 -0.012509
v -0.077634 0.090298 -0.026308
v -0.077634 0.090298 -0.051326
v 0.077634 0.090298 -0.051326
v -0.077634 0.090298 0.026308
v 0.077634 0.090298 0.026308
v 0.077634 0.090298 -0.072262
v -0.077634 0.090298 0.006900
v 0.077634 0.090298 0.072262
v -0.077634 0.090298 0.072262
v -0.077634 0.090298 -0.072262
v 0.077634 0.090298 0.051326
v -0.077634 0.090298 0.051326
v -0.077634 0.090298 -0.031917
v -0.077634 0.090298 0.045717
v 0.077634 0.090298 0.045717
v -0.094519 0.072912 -0.125000
v 0.094519 0.027532 -0.125000
v 0.094519 0.027532 0.125000
v -0.094519 0.072912 0.125000
v -0.018812 0.027532 -0.125000
v 0.018812 0.027532 -0.125000
v 0.018812 0.072912 -0.125000
v -0.018812 0.072912 -0.125000
v 0.018812 0.027532 0.125000
v -0.018812 0.027532 0.125000
v -0.018812 0.072912 0.125000
v 0.018812 0.072912 0.125000
v 0.037272 0.027532 -0.125000
v 0.074896 0.027532 -0.125000
v -0.037272 0.072912 -0.125000
v -0.074896 0.072912 -0.125000
v -0.037272 0.027532 0.125000
v -0.074896 0.027532 0.125000
v 0.037272 0.072912 0.125000
v 0.074896 0.072912 0.125000
v -0.074896 0.027532 -0.125000
v -0.037272 0.027532 -0.125000
v 0.074896 0.072912 -0.125000
v 0.037272 0.072912 -0.125000
v 0.074896 0.027532 0.125000
v 0.037272 0.027532 0.125000
v -0.074896 0.072912 0.125000
v -0.037272 0.072912 0.125000
v 0.018812 0.072912 0.122179
v -0.018812 0.072912 0.122179
v -0.018812 0.027532 0.122179
v 0.018812 0.027532 0.122179
v -0.018812 0.072912 -0.122179
v 0.018812 0.072912 -0.122179
v 0.018812 0.027532 -0.122179
v -0.018812 0.027532 -0.122179
v -0.074896 0.072912 -0.122179
v -0.037272 0.072912 -0.122179
v -0.037272 0.027532 -0.122179
v -0.074896 0.027532 -0.122179
v 0.074896 0.072912 0.122179
v 0.037272 0.072912 0.122179
v 0.037272 0.027532 0.122179
v 0.074896 0.027532 0.122179
v -0.037272 0.072912 0.122179
v -0.074896 0.072912 0.122179
v -0.074896 0.027532 0.122179
v -0.037272 0.027532 0.122179
v 0.037272 0.072912 -0.122179
v 0.074896 0.072912 -0.122179
v 0.074896 0.027532 -0.122179
v 0.037272 0.027532 -0.122179
v -0.018812 0.044761 0.122179
v 0.018812 0.044761 0.122179
v 0.018812 0.044761 -0.122179
v -0.018812 0.044761 -0.122179
v -0.037272 0.044761 -0.122179
v -0.074896 0.044761 -0.122179
v 0.037272 0.044761 0.122179
v 0.074896 0.044761 0.122179
v -0.074896 0.044761 0.122179
v -0.037272 0.044761 0.122179
v 0.074896 0.044761 -0.122179
v 0.037272 0.044761 -0.122179
v -0.016877 0.070977 0.122179
v -0.016877 0.046696 0.122179
v 0.016877 0.046696 0.122179
v 0.016877 0.070977 0.122179
v 0.016877 0.070977 -0.122179
v 0.016877 0.046696 -0.122179
v -0.016877 0.046696 -0.122179
v -0.016877 0.070977 -0.122179
v -0.039206 0.070977 -0.122179
v -0.039207 0.046696 -0.122179
v -0.072961 0.046696 -0.122179
v -0.072961 0.070977 -0.122179
v 0.039206 0.070977 0.122179
v 0.039207 0.046696 0.122179
v 0.072961 0.046696 0.122179
v 0.072961 0.070977 0.122179
v -0.072961 0.070977 0.122179
v -0.072961 0.046696 0.122179
v -0.039207 0.046696 0.122179
v -0.039206 0.070977 0.122179
v 0.072961 0.070977 -0.122179
v 0.072961 0.046696 -0.122179
v 0.039207 0.046696 -0.122179
v 0.039206 0.070977 -0.122179
v -0.016877 0.070977 0.124525
v -0.016877 0.046696 0.124525
v 0.016877 0.070977 0.124525
v 0.016877 0.046696 0.124525
v 0.016877 0.070977 -0.124525
v 0.016877 0.046696 -0.124525
v -0.016877 0.070977 -0.124525
v -0.016877 0.046696 -0.124525
v -0.039206 0.070977 -0.124525
v -0.039207 0.046696 -0.124525
v -0.072961 0.070977 -0.124525
v -0.072961 0.046696 -0.124525
v 0.039206 0.070977 0.124525
v 0.039207 0.046696 0.124525
v 0.072961 0.070977 0.124525
v 0.072961 0.046696 0.124525
v -0.072961 0.070977 0.124525
v -0.072961 0.046696 0.124525
v -0.039206 0.070977 0.124525
v -0.039207 0.046696 0.124525
v 0.072961 0.070977 -0.124525
v 0.072961 0.046696 -0.124525
v 0.039206 0.070977 -0.124525
v 0.039207 0.046696 -0.124525
v -0.014413 0.068513 0.124525
v -0.014413 0.049160 0.124525
v 0.014413 0.049160 0.124525
v 0.014413 0.068513 0.124525
v 0.014413 0.068513 -0.124525
v 0.014413 0.049160 -0.124525
v -0.014413 0.049160 -0.124525
v -0.014413 0.068513 -0.124525
v -0.041670 0.068513 -0.124525
v -0.041671 0.049160 -0.124525
v -0.070497 0.049160 -0.124525
v -0.070497 0.068513 -0.124525
v 0.041670 0.068513 0.124525
v 0.041671 0.049160 0.124525
v 0.070497 0.049160 0.124525
v 0.070497 0.068513 0.124525
v -0.070497 0.068513 0.124525
v -0.070497 0.049160 0.124525
v -0.041671 0.049160 0.124525
v -0.041670 0.068513 0.124525
v 0.070497 0.068513 -0.124525
v 0.070497 0.049160 -0.124525
v 0.041671 0.049160 -0.124525
v 0.041670 0.068513 -0.124525
v -0.014413 0.068513 0.121634
v -0.014413 0.049160 0.121634
v 0.014413 0.068513 0.121634
v 0.014413 0.049160 0.121634
v 0.014413 0.068513 -0.121634
v 0.014413 0.049160 -0.121634
v -0.014413 0.068513 -0.121634
v -0.014413 0.049160 -0.121634
v -0.041670 0.068513 -0.121634
v -0.041671 0.049160 -0.121634
v -0.070497 0.068513 -0.121634
v -0.070497 0.049160 -0.121634
v 0.041670 0.068513 0.121634
v 0.041671 0.049160 0.121634
v 0.070497 0.068513 0.121634
v 0.070497 0.049160 0.121634
v -0.070497 0.068513 0.121634
v -0.070497 0.049160 0.121634
v -0.041670 0.068513 0.121634
v -0.041671 0.049160 0.121634
v 0.070497 0.068513 -0.121634
v 0.070497 0.049160 -0.121634
v 0.041670 0.068513 -0.121634
v 0.041671 0.049160 -0.121634
v -0.012897 0.066997 0.121634
v -0.012897 0.050676 0.121634
v 0.012897 0.050676 0.121634
v 0.012897 0.066997 0.121634
v 0.012897 0.066997 -0.121634
v 0.012897 0.050676 -0.121634
v -0.012897 0.050676 -0.121634
v -0.012897 0.066997 -0.121634
v -0.043187 0.066997 -0.121634
v -0.043187 0.050676 -0.121634
v -0.068981 0.050676 -0.121634
v -0.068981 0.066997 -0.121634
v 0.043187 0.066997 0.121634
v 0.043187 0.050676 0.121634
v 0.068981 0.050676 0.121634
v 0.068981 0.066997 0.121634
v -0.068981 0.066997 0.121634
v -0.068981 0.050676 0.121634
v -0.043187 0.050676 0.121634
v -0.043187 0.066997 0.121634
v 0.068981 0.066997 -0.121634
v 0.068981 0.050676 -0.121634
v 0.043187 0.050676 -0.121634
v 0.043187 0.066997 -0.121634
v -0.012897 0.066997 0.120441
v -0.012897 0.050676 0.120441
v 0.012897 0.066997 0.120441
v 0.012897 0.050676 0.120441
v 0.012897 0.066997 -0.120441
v 0.012897 0.050676 -0.120441
v -0.012897 0.066997 -0.120441
v -0.012897 0.050676 -0.120441
v -0.043187 0.066997 -0.120441
v -0.043187 0.050676 -0.120441
v -0.068981 0.066997 -0.120441
v -0.068981 0.050676 -0.120441
v 0.043187 0.066997 0.120441
v 0.043187 0.050676 0.120441
v 0.068981 0.066997 0.120441
v 0.068981 0.050676 0.120441
v -0.068981 0.066997 0.120441
v -0.068981 0.050676 0.120441
v -0.043187 0.066997 0.120441
v -0.043187 0.050676 0.120441
v 0.068981 0.066997 -0.120441
v 0.068981 0.050676 -0.120441
v 0.043187 0.066997 -0.120441
v 0.043187 0.050676 -0.120441
v 0.072310 0.042176 -0.122179
v 0.072310 0.030118 -0.122179
v 0.039858 0.030118 -0.122179
v 0.039858 0.042176 -0.122179
v -0.072310 0.042176 0.122179
v -0.072310 0.030118 0.122179
v -0.039858 0.030118 0.122179
v -0.039858 0.042176 0.122179
v 0.039858 0.042176 0.122179
v 0.039858 0.030118 0.122179
v 0.072310 0.030118 0.122179
v 0.072310 0.042176 0.122179
v -0.039858 0.042176 -0.122179
v -0.039858 0.030118 -0.122179
v -0.072310 0.030118 -0.122179
v -0.072310 0.042176 -0.122179
v 0.016226 0.042176 -0.122179
v 0.016226 0.030118 -0.122179
v -0.016226 0.030118 -0.122179
v -0.016226 0.042176 -0.122179
v -0.016226 0.042176 0.122179
v -0.016226 0.030118 0.122179
v 0.016226 0.030118 0.122179
v 0.016226 0.042176 0.122179
v 0.072310 0.042176 -0.113732
v 0.072310 0.030118 -0.113732
v 0.039858 0.042176 -0.113732
v 0.039858 0.030118 -0.113732
v -0.072310 0.042176 0.113732
v -0.072310 0.030118 0.113732
v -0.039858 0.042176 0.113732
v -0.039858 0.030118 0.113732
v 0.039858 0.042176 0.113732
v 0.039858 0.030118 0.113732
v 0.072310 0.042176 0.113732
v 0.072310 0.030118 0.113732
v -0.039858 0.042176 -0.113732
v -0.039858 0.030118 -0.113732
v -0.072310 0.042176 -0.113732
v -0.072310 0.030118 -0.113732
v 0.016226 0.042176 -0.113732
v 0.016226 0.030118 -0.113732
v -0.016226 0.042176 -0.113732
v -0.016226 0.030118 -0.113732
v -0.016226 0.042176 0.113732
v -0.016226 0.030118 0.113732
v 0.016226 0.042176 0.113732
v 0.016226 0.030118 0.113732
vn -0.0000 1.0000 -0.0000
vn -0.0000 0.7071 0.7071
vn -0.0000 -1.0000 -0.0000
vn -0.0000 -0.7071 -0.7071
vn 0.7071 0.7071 -0.0000
vn -0.7071 0.7071 -0.0000
vn -0.7071 -0.7071 -0.0000
vn -0.0000 -0.7071 0.7071
vn 0.7071 -0.7071 -0.0000
vn -0.7071 -0.0000 0.7071
vn -0.0000 0.7071 -0.7071
vn -0.0000 -0.0000 -1.0000
vn -0.7071 -0.0000 -0.7071
vn 0.7071 -0.0000 0.7071
vn 0.7071 -0.0000 -0.7071
vn -0.0000 -0.0000 1.0000
vn -1.0000 -0.0000 -0.0000
vn 1.0000 -0.0000 -0.0000
vn -0.5000 -0.7071 0.5000
vn -0.5000 0.7071 0.5000
vn -0.5000 0.7071 -0.5000
vn -0.5000 -0.7071 -0.5000
vn 0.5000 0.7071 -0.5000
vn 0.5000 -0.7071 -0.5000
vn 0.5000 0.7071 0.5000
vn 0.5000 -0.7071 0.5000
vn 0.8629 -0.5054 -0.0000
vn 1.0000 -0.0000 -0.0001
vn -0.7194 0.6854 0.1126
vn 1.0000 -0.0003 0.0004
vn -1.0000 -0.0000 -0.0001
vn -1.0000 -0.0003 0.0003
vn 0.6909 0.6964 0.1942
vn 0.7038 -0.6846 0.1896
vn 1.0000 0.0003 0.0003
vn -0.7194 0.6854 -0.1126
vn -0.7075 -0.6975 -0.1140
vn -1.0000 0.0003 0.0003
vn -0.6909 0.6964 0.1942
vn 0.7075 -0.6975 -0.1140
vn -0.7038 -0.6846 0.1896
vn 0.7194 0.6854 -0.1126
vn 1.0000 -0.0003 -0.0004
vn -1.0000 -0.0003 -0.0003
vn -1.0000 -0.0003 -0.0004
vn 1.0000 -0.0003 -0.0003
vn -1.0000 0.0003 -0.0003
vn 1.0000 0.0003 -0.0003
vn -1.0000 -0.0000 0.0001
vn 1.0000 -0.0000 0.0001
vn -0.0000 0.8780 -0.4786
vn -0.0375 -0.7066 -0.7066
vn 0.0375 -0.7066 -0.7066
vn 0.0382 0.7066 -0.7066
vn -0.0382 0.7066 -0.7066
vn 0.0375 -0.7066 0.7066
vn -0.0375 -0.7066 0.7066
vn -0.0382 0.7066 0.7066
vn 0.0382 0.7066 0.7066
vn -0.0428 0.0403 -0.9983
vn 0.0418 -0.0380 -0.9984
vn 0.0428 0.0403 0.9983
vn -0.0418 -0.0380 0.9984
vn -0.0418 -0.0380 -0.9984
vn 0.0428 0.0403 -0.9983
vn 0.0418 -0.0380 0.9984
vn -0.0428 0.0403 0.9983
vn 1.0000 -0.0003 0.0003
vn 0.7038 -0.6846 -0.1896
vn -1.0000 -0.0003 0.0004
vn 0.7075 -0.6975 0.1140
vn -0.6909 0.6964 -0.1942
vn -0.7075 -0.6975 0.1140
vn 0.6909 0.6964 -0.1942
vn 0.7194 0.6854 0.1126
vn -0.7038 -0.6846 -0.1896
vn -0.8629 -0.5054 -0.0000
vn 0.8629 0.5054 -0.0000
vn -0.8629 0.5054 -0.0000
vn -0.0000 0.8476 0.5306
vn -0.0000 0.8476 -0.5306
vn -0.0000 0.8780 0.4786
vt 0.652970 0.583945
vt 0.705885 0.583945
vt 0.705885 0.666055
vt 0.652970 0.666055
vt 0.625000 0.919262
vt 0.625000 0.948231
vt 0.590037 0.959817
vt 0.590037 0.919280
vt 0.152970 0.583945
vt 0.205885 0.583945
vt 0.205886 0.666055
vt 0.152970 0.666055
vt 0.294279 0.500000
vt 0.334817 0.500000
vt 0.323231 0.527970
vt 0.294262 0.527970
vt 0.652970 0.583945
vt 0.652970 0.666055
vt 0.590037 0.666055
vt 0.590037 0.583945
vt 0.208981 0.669114
vt 0.291019 0.669114
vt 0.291018 0.722030
vt 0.208982 0.722030
vt 0.708981 0.669115
vt 0.791019 0.669114
vt 0.791018 0.722030
vt 0.708982 0.722030
vt 0.794114 0.583945
vt 0.847030 0.583945
vt 0.847030 0.666055
vt 0.794114 0.666055
vt 0.625000 0.169115
vt 0.625000 0.198231
vt 0.590037 0.209817
vt 0.590037 0.169115
vt 0.125000 0.580886
vt 0.125000 0.540183
vt 0.152970 0.551769
vt 0.152970 0.580886
vt 0.625000 0.833982
vt 0.625000 0.916018
vt 0.590037 0.916013
vt 0.590037 0.833987
vt 0.152970 0.669114
vt 0.205744 0.669114
vt 0.205738 0.722030
vt 0.176769 0.722030
vt 0.152970 0.698231
vt 0.652970 0.551769
vt 0.676769 0.527970
vt 0.705737 0.527970
vt 0.705743 0.580885
vt 0.652970 0.580886
vt 0.205738 0.722030
vt 0.205721 0.750000
vt 0.165183 0.750000
vt 0.294256 0.669114
vt 0.347030 0.669114
vt 0.347030 0.698231
vt 0.323231 0.722030
vt 0.294262 0.722030
vt 0.208982 0.527970
vt 0.291018 0.527970
vt 0.291019 0.580886
vt 0.208981 0.580886
vt 0.625000 0.083945
vt 0.625000 0.166055
vt 0.590037 0.166055
vt 0.590037 0.083945
vt 0.409963 0.669114
vt 0.409963 0.709817
vt 0.794257 0.669114
vt 0.847030 0.669114
vt 0.847030 0.698231
vt 0.823231 0.722030
vt 0.794262 0.722030
vt 0.708982 0.527970
vt 0.791018 0.527970
vt 0.791019 0.580885
vt 0.708981 0.580886
vt 0.530567 0.000000
vt 0.590037 0.000000
vt 0.590037 0.040183
vt 0.530567 0.040183
vt 0.652970 0.669114
vt 0.705743 0.669114
vt 0.705737 0.722030
vt 0.676769 0.722030
vt 0.652970 0.698231
vt 0.590037 0.709817
vt 0.590037 0.669114
vt 0.625000 0.333982
vt 0.625000 0.416018
vt 0.590037 0.416013
vt 0.590037 0.333987
vt 0.470543 0.290183
vt 0.530567 0.290183
vt 0.530567 0.327084
vt 0.470543 0.327085
vt 0.625000 0.419262
vt 0.625000 0.448231
vt 0.590037 0.459817
vt 0.590037 0.419280
vt 0.347030 0.551769
vt 0.347030 0.580886
vt 0.294256 0.580886
vt 0.294115 0.583945
vt 0.347030 0.583945
vt 0.347030 0.666055
vt 0.294115 0.666055
vt 0.208945 0.583945
vt 0.291055 0.583945
vt 0.291055 0.666055
vt 0.208945 0.666055
vt 0.409963 0.290183
vt 0.409963 0.209817
vt 0.470543 0.209817
vt 0.470543 0.790183
vt 0.409963 0.790183
vt 0.470543 0.709817
vt 0.470543 0.540183
vt 0.409963 0.540183
vt 0.409963 0.459817
vt 0.470543 0.459817
vt 0.794262 0.527970
vt 0.823231 0.527970
vt 0.847030 0.551769
vt 0.847030 0.580886
vt 0.794257 0.580885
vt 0.409963 0.333986
vt 0.470543 0.333905
vt 0.470543 0.416095
vt 0.409963 0.416014
vt 0.530567 0.333905
vt 0.530567 0.416095
vt 0.409963 0.833986
vt 0.470543 0.833905
vt 0.470543 0.916095
vt 0.409963 0.916014
vt 0.530567 0.833905
vt 0.590037 0.833987
vt 0.590037 0.916013
vt 0.530567 0.916095
vt 0.409963 0.083945
vt 0.470543 0.083945
vt 0.470543 0.166055
vt 0.409963 0.166055
vt 0.530567 0.083945
vt 0.590037 0.083945
vt 0.590037 0.166055
vt 0.530567 0.166055
vt 0.409963 0.583945
vt 0.470543 0.583945
vt 0.470543 0.666055
vt 0.409963 0.666055
vt 0.530567 0.583945
vt 0.590037 0.666055
vt 0.530567 0.666055
vt 0.125000 0.709817
vt 0.625000 0.008192
vt 0.625000 0.031991
vt 0.625000 0.226201
vt 0.625000 0.273799
vt 0.590037 0.290183
vt 0.176769 0.527970
vt 0.165183 0.500000
vt 0.625000 0.476201
vt 0.625000 0.523799
vt 0.590037 0.540183
vt 0.375000 0.540183
vt 0.625000 0.726201
vt 0.625000 0.773799
vt 0.590037 0.790183
vt 0.375000 0.709817
vt 0.334817 0.750000
vt 0.409963 0.040183
vt 0.470543 0.040183
vt 0.470543 0.080885
vt 0.409963 0.080886
vt 0.590037 0.040183
vt 0.590037 0.080886
vt 0.530567 0.080886
vt 0.409963 0.919279
vt 0.470543 0.922915
vt 0.470543 0.959817
vt 0.409963 0.959817
vt 0.530567 0.922916
vt 0.530567 0.959817
vt 0.409963 0.330721
vt 0.590037 0.330720
vt 0.409963 0.169114
vt 0.470543 0.169115
vt 0.530567 0.169114
vt 0.590037 0.169115
vt 0.530567 0.209817
vt 0.470543 0.827085
vt 0.409963 0.830721
vt 0.530567 0.790183
vt 0.590037 0.830720
vt 0.530567 0.827084
vt 0.470543 0.669114
vt 0.530567 0.669114
vt 0.530567 0.709817
vt 0.470543 0.580886
vt 0.409963 0.580886
vt 0.530567 0.540183
vt 0.590037 0.580886
vt 0.530567 0.580886
vt 0.409963 0.419279
vt 0.470543 0.422915
vt 0.409963 0.459817
vt 0.530567 0.422916
vt 0.530567 0.459817
vt 0.205738 0.527970
vt 0.205744 0.580886
vt 0.205721 0.500000
vt 0.470543 0.422915
vt 0.347030 0.666055
vt 0.409963 0.583945
vt 0.409963 0.666055
vt 0.625000 0.301769
vt 0.625000 0.330738
vt 0.470543 0.381892
vt 0.530567 0.381892
vt 0.530567 0.388655
vt 0.470543 0.388656
vt 0.347030 0.580885
vt 0.470543 0.669114
vt 0.409963 0.000000
vt 0.470543 0.000000
vt 0.152970 0.583945
vt 0.152970 0.666055
vt 0.125000 0.666055
vt 0.125000 0.583945
vt 0.470543 0.580886
vt 0.625000 0.051769
vt 0.625000 0.080886
vt 0.470543 0.169114
vt 0.530567 0.169115
vt 0.291018 0.527970
vt 0.208986 0.500000
vt 0.291014 0.500000
vt 0.625000 0.801769
vt 0.625000 0.830737
vt 0.590037 0.830720
vt 0.470543 0.922915
vt 0.291018 0.722030
vt 0.291014 0.750000
vt 0.208986 0.750000
vt 0.476837 0.586325
vt 0.524273 0.586325
vt 0.125000 0.669114
vt 0.530567 0.080885
vt 0.470543 0.080886
vt 0.524273 0.663675
vt 0.294279 0.750000
vt 0.470543 0.827085
vt 0.470543 0.416095
vt 0.470543 0.333905
vt 0.470543 0.666055
vt 0.530567 0.666055
vt 0.530567 0.583945
vt 0.708945 0.666055
vt 0.791055 0.666055
vt 0.788817 0.594776
vt 0.711183 0.594776
vt 0.708945 0.583945
vt 0.791055 0.583945
vt 0.530567 0.833905
vt 0.470543 0.833905
vt 0.470543 0.916095
vt 0.530567 0.083945
vt 0.470543 0.166055
vt 0.530567 0.166055
vt 0.524273 0.086325
vt 0.476837 0.086325
vt 0.524273 0.163675
vt 0.476837 0.163675
vt 0.476837 0.663675
vt 0.510734 0.591442
vt 0.510734 0.658558
vt 0.490376 0.158558
vt 0.490376 0.091442
vt 0.510734 0.091442
vt 0.510734 0.158558
vt 0.490376 0.591442
vt 0.490376 0.658558
vt 0.788817 0.586183
vt 0.711183 0.586183
vt 0.711183 0.594776
vt 0.711183 0.663817
vt 0.788817 0.663817
vt 0.788817 0.655223
vt 0.788817 0.653002
vt 0.788817 0.645519
vt 0.788817 0.643298
vt 0.788817 0.635815
vt 0.788817 0.633593
vt 0.788817 0.626111
vt 0.788817 0.623889
vt 0.788817 0.616407
vt 0.788817 0.614185
vt 0.788817 0.606702
vt 0.788817 0.604481
vt 0.788817 0.596998
vt 0.788817 0.594776
vt 0.711183 0.596998
vt 0.711183 0.604481
vt 0.711183 0.606702
vt 0.711183 0.614185
vt 0.711183 0.616407
vt 0.711183 0.623889
vt 0.711183 0.626111
vt 0.711183 0.633593
vt 0.711183 0.635815
vt 0.711183 0.643298
vt 0.711183 0.645519
vt 0.711183 0.653002
vt 0.711183 0.655224
vt 0.711183 0.623889
vt 0.711183 0.626111
vt 0.711183 0.604481
vt 0.788817 0.604481
vt 0.788817 0.655224
vt 0.711183 0.655224
vt 0.711183 0.653002
vt 0.788817 0.653002
vt 0.530567 0.407563
vt 0.530567 0.391205
vt 0.530567 0.383179
vt 0.530567 0.366821
vt 0.530567 0.358795
vt 0.530567 0.342437
vt 0.530567 0.907563
vt 0.530567 0.891205
vt 0.530567 0.883179
vt 0.530567 0.866821
vt 0.530567 0.858795
vt 0.530567 0.842437
vt 0.470543 0.405604
vt 0.530567 0.405604
vt 0.470543 0.881892
vt 0.530567 0.881892
vt 0.530567 0.888655
vt 0.470543 0.888656
vt 0.470543 0.861344
vt 0.530567 0.861344
vt 0.530567 0.868108
vt 0.470543 0.868108
vt 0.470543 0.342437
vt 0.470543 0.358795
vt 0.470543 0.366821
vt 0.470543 0.383179
vt 0.470543 0.391205
vt 0.470543 0.407563
vt 0.470543 0.905604
vt 0.530567 0.905604
vt 0.470543 0.842437
vt 0.470543 0.858795
vt 0.470543 0.866821
vt 0.470543 0.883179
vt 0.470543 0.891205
vt 0.470543 0.907563
vt 0.530567 0.844396
vt 0.470543 0.844396
vt 0.530567 0.344396
vt 0.470543 0.344395
vt 0.530567 0.361345
vt 0.470543 0.361344
vt 0.500555 0.361344
vt 0.500555 0.881892
vt 0.500555 0.388656
vt 0.500555 0.844396
vt 0.530567 0.368108
vt 0.470543 0.368108
vt 0.528505 0.360473
vt 0.502617 0.360473
vt 0.528505 0.868817
vt 0.528505 0.881183
vt 0.528505 0.381183
vt 0.502617 0.381183
vt 0.502617 0.881183
vt 0.502617 0.389527
vt 0.528505 0.389527
vt 0.500555 0.905604
vt 0.500555 0.868108
vt 0.500555 0.344396
vt 0.500555 0.888655
vt 0.500555 0.381892
vt 0.500555 0.861344
vt 0.500555 0.405604
vt 0.500555 0.368108
vt 0.496051 0.360180
vt 0.475046 0.360180
vt 0.496051 0.889820
vt 0.496051 0.904440
vt 0.496051 0.860180
vt 0.475046 0.860180
vt 0.496051 0.389820
vt 0.496051 0.404440
vt 0.475046 0.904440
vt 0.475046 0.404440
vt 0.502617 0.889527
vt 0.528505 0.889527
vt 0.502617 0.868817
vt 0.502617 0.368817
vt 0.528505 0.368817
vt 0.502617 0.345267
vt 0.528505 0.345267
vt 0.502617 0.860473
vt 0.528505 0.860473
vt 0.502617 0.845267
vt 0.528505 0.845267
vt 0.502617 0.904733
vt 0.528505 0.904733
vt 0.502617 0.404733
vt 0.528505 0.404733
vt 0.525878 0.859363
vt 0.505244 0.859363
vt 0.525878 0.369719
vt 0.525878 0.380281
vt 0.525878 0.359363
vt 0.505244 0.359363
vt 0.525878 0.869719
vt 0.525878 0.880281
vt 0.505244 0.380281
vt 0.505244 0.880281
vt 0.505244 0.869719
vt 0.505244 0.369719
vt 0.505244 0.346377
vt 0.525878 0.346377
vt 0.505244 0.846377
vt 0.525878 0.846377
vt 0.505244 0.903623
vt 0.525878 0.903623
vt 0.505244 0.890637
vt 0.525878 0.890637
vt 0.505244 0.403623
vt 0.525878 0.403623
vt 0.505244 0.390637
vt 0.525878 0.390637
vt 0.506861 0.858680
vt 0.506861 0.847060
vt 0.506861 0.370275
vt 0.524261 0.370275
vt 0.524261 0.891320
vt 0.524261 0.902940
vt 0.506861 0.358680
vt 0.506861 0.347060
vt 0.506861 0.870275
vt 0.524261 0.870275
vt 0.524261 0.402940
vt 0.506861 0.402940
vt 0.506861 0.879725
vt 0.524261 0.879725
vt 0.506861 0.379725
vt 0.524261 0.379725
vt 0.524261 0.358680
vt 0.524261 0.347060
vt 0.524261 0.858680
vt 0.524261 0.847060
vt 0.506861 0.902940
vt 0.506861 0.891320
vt 0.506861 0.391320
vt 0.524261 0.391320
vt 0.475046 0.389820
vt 0.475046 0.889820
vt 0.475046 0.845560
vt 0.496051 0.845560
vt 0.475046 0.345560
vt 0.496051 0.345560
vt 0.475046 0.380945
vt 0.496051 0.380945
vt 0.475046 0.369055
vt 0.496051 0.369055
vt 0.475046 0.880945
vt 0.496051 0.880945
vt 0.475046 0.869055
vt 0.496051 0.869055
s 0
usemtl M_Noir_Bleuté
f 140/1/1 49/2/1 53/3/1 141/4/1
f 110/5/2 7/6/2 8/7/2 111/8/2
f 116/9/3 65/10/3 69/11/3 117/12/3
f 82/13/4 26/14/4 25/15/4 83/16/4
f 140/17/5 141/18/5 144/19/5 137/20/5
f 71/21/3 79/22/3 101/23/3 100/24/3
f 55/25/1 63/26/1 109/27/1 108/28/1
f 57/29/1 125/30/1 124/31/1 61/32/1
f 126/33/6 15/34/6 16/35/6 127/36/6
f 114/37/7 10/38/7 9/39/7 115/40/7
f 108/41/2 109/42/2 112/43/2 105/44/2
f 118/45/3 72/46/3 99/47/3 1/48/3 3/49/3
f 29/50/1 31/51/1 94/52/1 50/53/1 139/54/1
f 1/48/8 99/55/8 98/56/8 2/57/8
f 78/58/3 131/59/3 17/60/3 19/61/3 102/62/3
f 85/63/3 84/64/3 75/65/3 67/66/3
f 124/67/6 125/68/6 128/69/6 121/70/6
f 130/71/9 18/72/9 17/60/9 131/59/9
f 62/73/1 123/74/1 5/75/1 7/76/1 110/77/1
f 93/78/1 92/79/1 59/80/1 51/81/1
f 37/82/10 8/83/10 6/84/10 44/85/10
f 142/86/1 56/87/1 107/88/1 21/89/1 23/90/1
f 142/86/5 23/90/5 24/91/5 143/92/5
f 92/93/11 93/94/11 96/95/11 89/96/11
f 35/97/12 36/98/12 147/99/12 145/100/12
f 94/101/11 31/102/11 32/103/11 95/104/11
f 83/16/3 25/15/3 27/105/3 134/106/3 76/107/3
f 73/108/3 133/109/3 132/110/3 77/111/3
f 68/112/3 74/113/3 80/114/3 70/115/3
f 35/97/13 12/116/13 10/117/13 42/118/13
f 39/119/14 20/120/14 18/72/14 46/121/14
f 47/122/15 28/123/15 26/124/15 34/125/15
f 91/126/1 13/127/1 15/128/1 126/129/1 60/130/1
f 88/131/12 146/132/12 430/133/12 81/134/12
f 429/135/12 89/96/12 96/95/12 149/136/12
f 104/137/16 431/138/16 155/139/16 97/140/16
f 152/141/16 105/142/16 112/143/16 432/144/16
f 120/145/17 158/146/17 163/147/17 113/148/17
f 159/149/17 121/150/17 128/151/17 162/152/17
f 136/153/18 166/154/18 171/155/18 129/156/18
f 167/157/18 137/20/18 144/158/18 170/159/18
f 3/49/19 1/48/19 2/57/19 4/160/19
f 7/161/20 5/162/20 6/84/20 8/83/20
f 15/163/21 13/164/21 14/165/21 16/35/21
f 11/166/22 9/39/22 10/38/22 12/167/22
f 31/168/23 29/169/23 30/170/23 32/103/23
f 27/105/24 25/15/24 26/14/24 28/171/24
f 23/172/25 21/173/25 22/174/25 24/91/25
f 19/61/26 17/60/26 18/175/26 20/176/26
f 4/177/17 43/178/17 157/179/17 119/180/17
f 44/85/17 6/181/17 122/182/17 160/183/17
f 98/184/16 156/185/16 38/186/16 2/187/16
f 154/188/16 111/8/16 8/7/16 37/189/16
f 12/116/12 35/97/12 145/100/12 87/190/12
f 36/98/12 14/165/12 90/191/12 147/99/12
f 114/192/17 164/193/17 42/118/17 10/117/17
f 161/194/17 127/195/17 16/35/17 41/196/17
f 20/120/16 39/119/16 151/197/16 103/198/16
f 40/199/16 22/174/16 106/200/16 153/201/16
f 130/71/18 172/202/18 46/121/18 18/72/18
f 169/203/18 143/92/18 24/91/18 45/204/18
f 28/123/18 47/122/18 165/205/18 135/206/18
f 48/207/18 30/170/18 138/208/18 168/209/18
f 82/210/12 150/211/12 34/125/12 26/212/12
f 148/213/12 95/104/12 32/103/12 33/214/12
f 9/39/3 11/166/3 86/215/3 66/216/3 115/40/3
f 30/170/15 48/207/15 33/214/15 32/103/15
f 48/207/15 47/122/15 34/125/15 33/214/15
f 22/174/14 40/199/14 45/204/14 24/91/14
f 40/199/14 39/119/14 46/121/14 45/204/14
f 14/165/13 36/98/13 41/196/13 16/35/13
f 36/98/13 35/97/13 42/118/13 41/196/13
f 86/215/4 11/166/4 12/167/4 87/217/4
f 150/218/12 148/213/12 33/214/12 34/125/12
f 132/219/9 133/109/9 136/220/9 129/221/9
f 13/222/11 91/223/11 90/191/11 14/165/11
f 434/224/12 435/225/12 452/226/12 441/227/12
f 134/228/9 27/105/9 28/123/9 135/206/9
f 172/229/18 169/203/18 45/204/18 46/121/18
f 2/230/10 38/231/10 43/178/10 4/177/10
f 38/231/10 37/82/10 44/85/10 43/178/10
f 116/232/7 117/233/7 120/234/7 113/235/7
f 47/122/18 48/207/18 168/209/18 165/236/18
f 5/237/6 123/238/6 122/182/6 6/181/6
f 164/239/17 161/240/17 41/196/17 42/118/17
f 84/241/4 85/63/4 88/242/4 81/243/4
f 21/244/2 107/245/2 106/246/2 22/174/2
f 156/247/16 154/188/16 37/189/16 38/186/16
f 100/24/8 101/248/8 104/249/8 97/250/8
f 305/251/16 306/252/16 313/252/16 314/251/16
f 118/45/7 3/49/7 4/160/7 119/253/7
f 43/178/17 44/85/17 160/254/17 157/255/17
f 29/50/5 139/54/5 138/208/5 30/170/5
f 306/252/27 307/256/27 316/256/27 313/252/27
f 102/62/8 19/61/8 20/176/8 103/257/8
f 39/119/16 40/199/16 153/201/16 151/258/16
f 91/126/28 60/130/28 181/130/28 215/126/28
f 93/78/28 51/81/28 176/81/28 217/78/28
f 103/198/29 151/197/29 289/197/29 227/198/29
f 108/41/30 105/44/30 229/44/30 232/41/30
f 50/53/31 94/52/31 218/52/31 175/53/31
f 430/259/18 149/136/18 288/136/18 271/259/18
f 115/40/16 66/216/16 191/216/16 239/40/16
f 148/213/17 150/218/17 272/218/17 287/213/17
f 106/246/32 107/245/32 231/245/32 230/246/32
f 65/10/12 116/9/12 240/9/12 190/10/12
f 149/136/33 96/95/33 220/95/33 288/136/33
f 81/134/34 430/133/34 271/133/34 205/134/34
f 104/249/35 101/248/35 225/248/35 228/249/35
f 150/211/36 82/210/36 206/210/36 272/211/36
f 95/104/37 148/213/37 287/213/37 219/104/37
f 429/135/17 146/260/17 286/260/17 269/135/17
f 102/62/38 103/257/38 227/257/38 226/62/38
f 89/96/39 429/135/39 269/135/39 213/96/39
f 145/100/18 147/99/18 270/99/18 285/100/18
f 147/99/40 90/191/40 214/191/40 270/99/40
f 146/132/41 88/131/41 212/131/41 286/132/41
f 100/24/38 97/250/38 221/250/38 224/24/38
f 76/107/16 134/106/16 258/106/16 197/107/16
f 87/190/42 145/100/42 285/100/42 211/190/42
f 98/56/35 99/55/35 223/55/35 222/56/35
f 133/109/12 73/108/12 198/108/12 257/109/12
f 129/156/16 171/155/16 283/155/16 253/156/16
f 75/65/28 84/64/28 208/64/28 200/65/28
f 172/202/12 130/71/12 254/71/12 284/202/12
f 96/95/43 93/94/43 217/94/43 220/95/43
f 83/16/31 76/107/31 197/107/31 207/16/31
f 85/63/31 67/66/31 192/66/31 209/63/31
f 137/20/12 167/157/12 281/157/12 261/20/12
f 94/101/44 95/104/44 219/104/44 218/101/44
f 66/216/28 86/215/28 210/215/28 191/216/28
f 168/209/16 138/208/16 262/208/16 282/209/16
f 144/19/16 141/18/16 265/18/16 268/19/16
f 92/93/45 89/96/45 213/96/45 216/93/45
f 113/148/12 163/147/12 279/147/12 237/148/12
f 142/86/12 143/92/12 267/92/12 266/86/12
f 164/193/16 114/192/16 238/192/16 280/193/16
f 90/191/46 91/223/46 215/223/46 214/191/46
f 140/17/12 137/20/12 261/20/12 264/17/12
f 121/150/16 159/149/16 277/149/16 245/150/16
f 88/242/47 85/63/47 209/63/47 212/242/47
f 160/183/12 122/182/12 246/182/12 278/183/12
f 138/208/16 139/54/16 263/54/16 262/208/16
f 86/215/48 87/217/48 211/217/48 210/215/48
f 171/261/16 170/262/16 300/262/16 283/261/16
f 123/74/12 62/73/12 187/73/12 247/74/12
f 169/203/12 172/229/12 284/229/12 299/203/12
f 136/220/12 133/109/12 257/109/12 260/220/12
f 61/32/16 124/31/16 248/31/16 186/32/16
f 84/241/48 81/243/48 205/243/48 208/241/48
f 170/159/16 144/158/16 268/158/16 300/159/16
f 56/87/12 142/86/12 266/86/12 177/87/12
f 134/228/16 135/206/16 259/206/16 258/228/16
f 141/4/16 53/3/16 178/3/16 265/4/16
f 82/13/47 83/16/47 207/16/47 206/13/47
f 143/92/12 169/203/12 299/203/12 267/92/12
f 109/27/49 63/26/49 188/26/49 233/27/49
f 167/263/12 166/154/12 298/154/12 281/263/12
f 132/219/16 129/221/16 253/221/16 256/219/16
f 62/73/50 110/77/50 234/77/50 187/73/50
f 165/236/16 168/209/16 282/209/16 297/236/16
f 55/25/50 108/28/50 232/28/50 180/25/50
f 63/26/12 55/25/12 180/25/12 188/26/12
f 166/154/12 136/153/12 260/153/12 298/154/12
f 130/71/12 131/59/12 255/59/12 254/71/12
f 107/88/49 56/87/49 177/87/49 231/88/49
f 51/81/16 59/80/16 184/80/16 176/81/16
f 110/5/68 111/8/68 235/8/68 234/5/68
f 431/138/69 104/137/69 228/137/69 290/138/69
f 59/80/31 92/79/31 216/79/31 184/80/31
f 151/258/17 153/201/17 274/201/17 289/258/17
f 125/30/12 57/29/12 182/29/12 249/30/12
f 112/43/70 109/42/70 233/42/70 236/43/70
f 152/270/18 431/271/18 290/271/18 273/270/18
f 60/130/16 126/129/16 250/129/16 181/130/16
f 111/8/71 154/188/71 291/188/71 235/8/71
f 49/2/12 140/1/12 264/1/12 174/2/12
f 114/37/16 115/40/16 239/40/16 238/37/16
f 139/54/16 50/53/16 175/53/16 263/54/16
f 432/144/72 112/143/72 236/143/72 292/144/72
f 116/232/12 113/235/12 237/235/12 240/232/12
f 154/188/18 156/247/18 276/247/18 291/188/18
f 153/201/73 106/200/73 230/200/73 274/201/73
f 155/272/17 432/144/17 292/144/17 275/272/17
f 53/3/17 49/2/17 174/2/17 178/3/17
f 105/142/74 152/141/74 273/141/74 229/142/74
f 118/45/12 119/253/12 243/253/12 242/45/12
f 119/180/12 157/179/12 293/179/12 243/180/12
f 57/29/18 61/32/18 186/32/18 182/29/18
f 156/185/75 98/184/75 222/184/75 276/185/75
f 120/234/16 117/233/16 241/233/16 244/234/16
f 158/146/16 120/145/16 244/145/16 294/146/16
f 68/112/17 70/115/17 195/115/17 189/112/17
f 97/140/76 155/139/76 275/139/76 221/140/76
f 157/255/12 160/254/12 278/254/12 293/255/12
f 69/11/18 65/10/18 190/10/18 194/11/18
f 99/47/50 72/46/50 193/46/50 223/47/50
f 122/182/12 123/238/12 247/238/12 246/182/12
f 159/273/16 158/146/16 294/146/16 277/273/16
f 73/108/17 77/111/17 202/111/17 198/108/17
f 71/21/49 100/24/49 224/24/49 196/21/49
f 127/195/16 161/194/16 295/194/16 251/195/16
f 80/114/18 74/113/18 199/113/18 201/114/18
f 78/58/49 102/62/49 226/62/49 203/58/49
f 124/67/16 121/70/16 245/70/16 248/67/16
f 74/113/12 68/112/12 189/112/12 199/113/12
f 101/23/50 79/22/50 204/22/50 225/23/50
f 162/152/12 128/151/12 252/151/12 296/152/12
f 67/66/16 75/65/16 200/65/16 192/66/16
f 117/12/16 69/11/16 194/11/16 241/12/16
f 126/33/16 127/36/16 251/36/16 250/33/16
f 161/240/16 164/239/16 280/239/16 295/240/16
f 79/22/12 71/21/12 196/21/12 204/22/12
f 72/46/12 118/45/12 242/45/12 193/46/12
f 163/274/12 162/275/12 296/275/12 279/274/12
f 70/115/16 80/114/16 201/114/16 195/115/16
f 77/111/16 132/110/16 256/110/16 202/111/16
f 128/69/12 125/68/12 249/68/12 252/69/12
f 135/206/16 165/205/16 297/205/16 259/206/16
f 131/59/12 78/58/12 203/58/12 255/59/12
f 158/146/17 159/273/17 302/276/17 301/277/17
f 159/273/17 162/275/17 303/278/17 302/276/17
f 162/275/17 163/274/17 304/279/17 303/278/17
f 163/274/17 158/146/17 301/277/17 304/279/17
f 166/154/18 167/263/18 306/252/18 305/251/18
f 167/263/18 170/262/18 307/256/18 306/252/18
f 170/262/18 171/261/18 308/280/18 307/256/18
f 171/261/18 166/154/18 305/251/18 308/280/18
f 302/276/77 303/278/77 312/278/77 309/276/77
f 307/256/12 308/280/12 315/280/12 316/256/12
f 301/277/12 302/276/12 309/276/12 310/277/12
f 308/280/78 305/251/78 314/251/78 315/280/78
f 303/278/16 304/279/16 311/279/16 312/278/16
f 304/279/79 301/277/79 310/277/79 311/279/79
f 429/135/3 149/136/3 451/329/3 452/330/3 435/331/3 436/332/3 443/333/3 444/334/3
f 152/141/3 432/144/3 455/335/3 456/336/3 439/337/3 440/338/3 447/339/3 448/340/3
f 442/341/12 451/342/12 149/136/12 430/259/12
f 438/343/16 439/344/16 456/345/16 445/346/16
f 454/347/16 447/348/16 440/349/16 437/350/16
f 430/133/3 146/132/3 449/351/3 450/352/3 433/353/3 434/354/3 441/355/3 442/356/3
f 446/357/16 455/358/16 432/144/16 155/272/16
f 155/139/3 431/138/3 453/359/3 454/360/3 437/361/3 438/362/3 445/363/3 446/364/3
f 431/271/16 152/270/16 448/365/16 453/366/16
f 146/260/12 429/135/12 444/367/12 449/368/12
f 443/369/17 450/370/17 467/370/17 485/371/17 466/369/17
f 456/336/3 455/335/3 474/335/3 473/336/3
f 439/344/18 438/343/18 459/343/18 481/372/18 458/344/18
f 441/227/18 452/226/18 477/226/18 492/373/18 480/227/18
f 444/334/3 443/333/3 466/333/3 465/334/3
f 453/366/17 448/365/17 469/365/17 488/374/17 472/366/17
f 450/370/12 443/369/12 436/375/12 433/376/12
f 438/362/1 437/361/1 460/361/1 459/362/1
f 455/358/18 446/357/18 475/357/18 489/386/18 474/358/18
f 450/352/1 449/351/1 468/351/1 467/352/1
f 437/350/17 440/349/17 457/349/17 482/387/17 460/350/17
f 446/364/1 445/363/1 476/363/1 475/364/1
f 449/368/18 444/367/18 465/367/18 486/388/18 468/368/18
f 436/332/3 435/331/3 462/331/3 461/332/3
f 445/346/17 456/345/17 473/345/17 490/389/17 476/346/17
f 448/340/3 447/339/3 470/339/3 469/340/3
f 435/225/17 434/224/17 463/224/17 483/390/17 462/225/17
f 452/330/3 451/329/3 478/329/3 477/330/3
f 447/348/18 454/347/18 471/347/18 487/391/18 470/348/18
f 434/354/1 433/353/1 464/353/1 463/354/1
f 451/342/17 442/341/17 479/341/17 491/392/17 478/342/17
f 454/360/1 453/359/1 472/359/1 471/360/1
f 433/376/18 436/375/18 461/375/18 484/393/18 464/376/18
f 442/356/1 441/355/1 480/355/1 479/356/1
f 440/338/3 439/337/3 458/337/3 457/338/3
f 645/398/18 646/399/18 670/399/18 669/398/18
f 641/397/18 642/402/18 666/402/18 665/397/18
f 553/419/18 554/420/18 578/420/18 577/419/18
f 548/421/3 545/422/3 569/422/3 571/421/3
f 549/423/17 550/424/17 574/424/17 573/423/17
f 544/425/3 541/426/3 565/426/3 567/425/3
f 545/422/17 546/427/17 570/427/17 569/422/17
f 541/426/18 542/428/18 566/428/18 565/426/18
f 517/380/16 518/383/16 542/428/16 541/426/16
f 518/383/16 520/406/16 543/429/16 542/428/16
f 520/406/16 519/379/16 544/425/16 543/429/16
f 519/379/16 517/380/16 541/426/16 544/425/16
f 521/381/12 522/382/12 546/427/12 545/422/12
f 522/382/12 524/407/12 547/430/12 546/427/12
f 524/407/12 523/408/12 548/421/12 547/430/12
f 523/408/12 521/381/12 545/422/12 548/421/12
f 525/377/12 526/378/12 550/424/12 549/423/12
f 526/378/12 528/409/12 551/431/12 550/424/12
f 528/409/12 527/410/12 552/432/12 551/431/12
f 527/410/12 525/377/12 549/423/12 552/432/12
f 529/412/16 530/411/16 554/420/16 553/419/16
f 530/411/16 532/413/16 555/433/16 554/420/16
f 532/413/16 531/414/16 556/434/16 555/433/16
f 531/414/16 529/412/16 553/419/16 556/434/16
f 533/416/16 534/415/16 558/435/16 557/436/16
f 534/415/16 536/404/16 559/437/16 558/435/16
f 536/404/16 535/405/16 560/438/16 559/437/16
f 535/405/16 533/416/16 557/436/16 560/438/16
f 537/418/12 538/417/12 562/439/12 561/440/12
f 538/417/12 540/384/12 563/441/12 562/439/12
f 540/384/12 539/385/12 564/442/12 563/441/12
f 539/385/12 537/418/12 561/440/12 564/442/12
f 542/428/1 543/429/1 568/429/1 566/428/1
f 552/432/3 549/423/3 573/423/3 575/432/3
f 557/436/18 558/435/18 582/435/18 581/436/18
f 546/427/1 547/430/1 572/430/1 570/427/1
f 556/434/3 553/419/3 577/419/3 579/434/3
f 561/440/17 562/439/17 586/439/17 585/440/17
f 543/429/17 544/425/17 567/425/17 568/429/17
f 550/424/1 551/431/1 576/431/1 574/424/1
f 560/438/3 557/436/3 581/436/3 583/438/3
f 547/430/18 548/421/18 571/421/18 572/430/18
f 554/420/1 555/433/1 580/433/1 578/420/1
f 564/442/3 561/440/3 585/440/3 587/442/3
f 551/431/18 552/432/18 575/432/18 576/431/18
f 558/435/1 559/437/1 584/437/1 582/435/1
f 555/433/17 556/434/17 579/434/17 580/433/17
f 562/439/1 563/441/1 588/441/1 586/439/1
f 559/437/17 560/438/17 583/438/17 584/437/17
f 563/441/18 564/442/18 587/442/18 588/441/18
f 491/392/12 479/341/12 638/403/12 637/401/12
f 479/341/12 480/227/12 639/467/12 638/403/12
f 480/227/12 492/373/12 640/400/12 639/467/12
f 492/373/12 491/392/12 637/401/12 640/400/12
f 489/386/16 475/357/16 642/402/16 641/397/16
f 475/357/16 476/346/16 643/468/16 642/402/16
f 476/346/16 490/389/16 644/396/16 643/468/16
f 490/389/16 489/386/16 641/397/16 644/396/16
f 487/391/16 471/347/16 646/399/16 645/398/16
f 471/347/16 472/366/16 647/469/16 646/399/16
f 472/366/16 488/374/16 648/470/16 647/469/16
f 488/374/16 487/391/16 645/398/16 648/470/16
f 485/371/12 467/370/12 650/395/12 649/394/12
f 467/370/12 468/368/12 651/471/12 650/395/12
f 468/368/12 486/388/12 652/472/12 651/471/12
f 486/388/12 485/371/12 649/394/12 652/472/12
f 483/390/12 463/224/12 654/473/12 653/474/12
f 463/224/12 464/376/12 655/475/12 654/473/12
f 464/376/12 484/393/12 656/476/12 655/475/12
f 484/393/12 483/390/12 653/474/12 656/476/12
f 481/372/16 459/343/16 658/477/16 657/478/16
f 459/343/16 460/350/16 659/479/16 658/477/16
f 460/350/16 482/387/16 660/480/16 659/479/16
f 482/387/16 481/372/16 657/478/16 660/480/16
f 642/402/1 643/468/1 668/468/1 666/402/1
f 657/478/18 658/477/18 682/477/18 681/478/18
f 646/399/1 647/469/1 672/469/1 670/399/1
f 658/477/1 659/479/1 684/479/1 682/477/1
usemtl M_Noir_Profond
f 174/2/1 175/53/1 176/81/1 173/268/1
f 178/3/1 179/264/1 180/25/1 177/87/1
f 182/29/1 183/269/1 184/80/1 181/130/1
f 186/32/1 187/73/1 188/26/1 185/265/1
f 190/10/3 191/216/3 192/66/3 189/112/3
f 194/11/3 195/115/3 196/21/3 193/46/3
f 198/108/3 199/113/3 200/65/3 197/107/3
f 202/111/3 203/58/3 204/22/3 201/114/3
f 173/268/1 179/264/1 178/3/1 174/2/1
f 182/29/1 186/32/1 185/265/1 183/269/1
f 189/112/3 195/115/3 194/11/3 190/10/3
f 198/108/3 202/111/3 201/114/3 199/113/3
f 199/113/3 189/112/3 192/66/3 200/65/3
f 204/22/3 196/21/3 195/115/3 201/114/3
f 183/269/1 173/268/1 176/81/1 184/80/1
f 188/26/1 180/25/1 179/264/1 185/265/1
f 206/13/52 207/16/52 208/241/52 205/243/52
f 210/215/53 211/217/53 212/242/53 209/63/53
f 214/191/54 215/223/54 216/93/54 213/96/54
f 218/101/55 219/104/55 220/95/55 217/94/55
f 222/56/56 223/55/56 224/24/56 221/250/56
f 226/62/57 227/257/57 228/249/57 225/248/57
f 230/246/58 231/245/58 232/41/58 229/44/58
f 234/5/59 235/8/59 236/43/59 233/42/59
f 238/37/7 239/40/7 240/232/7 237/235/7
f 242/45/7 243/253/7 244/234/7 241/233/7
f 246/182/6 247/238/6 248/67/6 245/70/6
f 250/33/6 251/36/6 252/69/6 249/68/6
f 254/71/9 255/59/9 256/219/9 253/221/9
f 258/228/9 259/206/9 260/220/9 257/109/9
f 262/208/5 263/54/5 264/17/5 261/20/5
f 266/86/5 267/92/5 268/19/5 265/18/5
f 191/216/3 210/215/3 209/63/3 192/66/3
f 207/16/3 197/107/3 200/65/3 208/64/3
f 257/109/3 198/108/3 197/107/3 258/106/3
f 270/99/60 214/191/60 213/96/60 269/135/60
f 272/211/61 206/210/61 205/134/61 271/133/61
f 190/10/3 240/9/3 239/40/3 191/216/3
f 175/53/1 218/52/1 217/78/1 176/81/1
f 215/126/1 181/130/1 184/80/1 216/79/1
f 249/30/1 182/29/1 181/130/1 250/129/1
f 174/2/1 264/1/1 263/54/1 175/53/1
f 274/201/62 230/200/62 229/142/62 273/141/62
f 276/185/63 222/184/63 221/140/63 275/139/63
f 223/47/3 193/46/3 196/21/3 224/24/3
f 203/58/3 226/62/3 225/23/3 204/22/3
f 241/12/3 194/11/3 193/46/3 242/45/3
f 202/111/3 256/110/3 255/59/3 203/58/3
f 231/88/1 177/87/1 180/25/1 232/28/1
f 187/73/1 234/77/1 233/27/1 188/26/1
f 265/4/1 178/3/1 177/87/1 266/86/1
f 186/32/1 248/31/1 247/74/1 187/73/1
f 278/183/17 246/182/17 245/150/17 277/149/17
f 280/193/17 238/192/17 237/148/17 279/147/17
f 282/209/18 262/208/18 261/20/18 281/157/18
f 284/202/18 254/71/18 253/156/18 283/155/18
f 211/190/64 285/100/64 286/132/64 212/131/64
f 285/100/12 270/99/12 269/135/12 286/260/12
f 219/104/65 287/213/65 288/136/65 220/95/65
f 287/213/12 272/218/12 271/259/12 288/136/12
f 227/198/66 289/197/66 290/138/66 228/137/66
f 289/258/16 274/201/16 273/270/16 290/271/16
f 235/8/67 291/188/67 292/144/67 236/143/67
f 291/188/16 276/247/16 275/272/16 292/144/16
f 243/180/17 293/179/17 294/146/17 244/145/17
f 293/255/17 278/254/17 277/273/17 294/146/17
f 251/195/17 295/194/17 296/152/17 252/151/17
f 295/240/17 280/239/17 279/274/17 296/275/17
f 259/206/18 297/205/18 298/154/18 260/153/18
f 297/236/18 282/209/18 281/263/18 298/154/18
f 267/92/18 299/203/18 300/159/18 268/158/18
f 299/203/18 284/229/18 283/261/18 300/262/18
f 322/281/3 323/282/3 332/282/3 329/281/3
f 320/283/1 317/284/1 326/284/1 327/283/1
f 310/277/17 309/276/17 318/285/17 317/284/17
f 309/276/17 312/278/17 319/286/17 318/285/17
f 312/278/17 311/279/17 320/283/17 319/286/17
f 311/279/17 310/277/17 317/284/17 320/283/17
f 314/251/18 313/252/18 322/281/18 321/287/18
f 313/252/18 316/256/18 323/282/18 322/281/18
f 316/256/18 315/280/18 324/288/18 323/282/18
f 315/280/18 314/251/18 321/287/18 324/288/18
f 321/287/16 322/281/16 329/281/16 330/287/16
f 318/285/3 319/286/3 328/286/3 325/285/3
f 323/282/12 324/288/12 331/288/12 332/282/12
f 317/284/12 318/285/12 325/285/12 326/284/12
f 324/288/1 321/287/1 330/287/1 331/288/1
f 319/286/16 320/283/16 327/283/16 328/286/16
f 347/293/12 348/292/12 421/292/12 422/293/12
f 383/315/17 345/314/17 404/314/17 403/315/17
f 395/319/17 337/318/17 428/318/17 424/319/17
f 346/300/18 384/299/18 411/299/18 420/300/18
f 391/311/17 341/310/17 401/310/17 402/311/17
f 379/317/17 382/316/17 418/316/17 397/317/17
f 387/291/17 349/290/17 419/290/17 409/291/17
f 340/309/17 386/308/17 416/308/17 399/309/17
f 348/292/17 394/320/17 408/320/17 421/292/17
f 389/302/18 343/301/18 406/301/18 405/302/18
f 349/290/16 350/289/16 423/289/16 419/290/16
f 393/294/18 347/293/18 422/293/18 407/294/18
f 394/326/16 393/325/16 407/325/16 408/326/16
f 390/312/16 389/302/16 405/302/16 413/312/16
f 338/296/18 396/295/18 425/295/18 427/296/18
f 388/266/12 387/267/12 409/267/12 410/266/12
f 396/328/12 395/327/12 424/327/12 425/328/12
f 381/298/18 380/297/18 398/297/18 417/298/18
f 384/299/12 383/315/12 403/315/12 411/299/12
f 345/322/16 346/300/16 420/300/16 404/322/16
f 342/304/18 392/303/18 414/303/18 426/304/18
f 341/310/16 342/304/16 426/304/16 401/310/16
f 385/306/18 339/305/18 400/305/18 415/306/18
f 344/313/17 390/312/17 413/312/17 412/313/17
f 380/297/12 379/317/12 397/317/12 398/297/12
f 343/301/12 344/321/12 412/321/12 406/301/12
f 350/289/18 388/307/18 410/307/18 423/289/18
f 392/303/12 391/311/12 402/311/12 414/303/12
f 339/324/12 340/323/12 399/323/12 400/324/12
f 337/318/16 338/296/16 427/296/16 428/318/16
f 386/308/16 385/306/16 415/306/16 416/308/16
f 382/316/16 381/298/16 417/298/16 418/316/16
f 501/377/18 502/378/18 526/378/18 525/377/18
f 496/379/1 493/380/1 517/380/1 519/379/1
f 497/381/18 498/382/18 522/382/18 521/381/18
f 493/380/17 494/383/17 518/383/17 517/380/17
f 515/384/17 516/385/17 539/385/17 540/384/17
f 649/394/17 650/395/17 674/395/17 673/394/17
f 644/396/3 641/397/3 665/397/3 667/396/3
f 640/400/3 637/401/3 661/401/3 663/400/3
f 637/401/17 638/403/17 662/403/17 661/401/17
f 511/404/18 512/405/18 535/405/18 536/404/18
f 458/344/16 481/372/16 494/383/16 493/380/16
f 481/372/16 482/387/16 495/406/16 494/383/16
f 482/387/16 457/349/16 496/379/16 495/406/16
f 457/349/16 458/344/16 493/380/16 496/379/16
f 462/225/12 483/390/12 498/382/12 497/381/12
f 483/390/12 484/393/12 499/407/12 498/382/12
f 484/393/12 461/375/12 500/408/12 499/407/12
f 461/375/12 462/225/12 497/381/12 500/408/12
f 466/369/12 485/371/12 502/378/12 501/377/12
f 485/371/12 486/388/12 503/409/12 502/378/12
f 486/388/12 465/367/12 504/410/12 503/409/12
f 465/367/12 466/369/12 501/377/12 504/410/12
f 470/348/16 487/391/16 506/411/16 505/412/16
f 487/391/16 488/374/16 507/413/16 506/411/16
f 488/374/16 469/365/16 508/414/16 507/413/16
f 469/365/16 470/348/16 505/412/16 508/414/16
f 474/358/16 489/386/16 510/415/16 509/416/16
f 489/386/16 490/389/16 511/404/16 510/415/16
f 490/389/16 473/345/16 512/405/16 511/404/16
f 473/345/16 474/358/16 509/416/16 512/405/16
f 478/342/12 491/392/12 514/417/12 513/418/12
f 491/392/12 492/373/12 515/384/12 514/417/12
f 492/373/12 477/226/12 516/385/12 515/384/12
f 477/226/12 478/342/12 513/418/12 516/385/12
f 500/408/1 497/381/1 521/381/1 523/408/1
f 505/412/17 506/411/17 530/411/17 529/412/17
f 494/383/3 495/406/3 520/406/3 518/383/3
f 504/410/1 501/377/1 525/377/1 527/410/1
f 509/416/17 510/415/17 534/415/17 533/416/17
f 498/382/3 499/407/3 524/407/3 522/382/3
f 508/414/1 505/412/1 529/412/1 531/414/1
f 513/418/18 514/417/18 538/417/18 537/418/18
f 495/406/18 496/379/18 519/379/18 520/406/18
f 502/378/3 503/409/3 528/409/3 526/378/3
f 512/405/1 509/416/1 533/416/1 535/405/1
f 499/407/17 500/408/17 523/408/17 524/407/17
f 506/411/3 507/413/3 532/413/3 530/411/3
f 516/385/1 513/418/1 537/418/1 539/385/1
f 503/409/17 504/410/17 527/410/17 528/409/17
f 510/415/3 511/404/3 536/404/3 534/415/3
f 507/413/18 508/414/18 531/414/18 532/413/18
f 514/417/3 515/384/3 540/384/3 538/417/3
f 602/443/1 603/444/1 628/444/1 626/443/1
f 595/445/18 596/446/18 619/446/18 620/445/18
f 608/447/3 605/448/3 629/448/3 631/447/3
f 598/449/1 599/450/1 624/450/1 622/449/1
f 591/451/17 592/452/17 615/452/17 616/451/17
f 609/453/17 610/454/17 634/454/17 633/453/17
f 565/426/16 566/428/16 590/455/16 589/456/16
f 566/428/16 568/429/16 591/451/16 590/455/16
f 568/429/16 567/425/16 592/452/16 591/451/16
f 567/425/16 565/426/16 589/456/16 592/452/16
f 569/422/12 570/427/12 594/457/12 593/458/12
f 570/427/12 572/430/12 595/445/12 594/457/12
f 572/430/12 571/421/12 596/446/12 595/445/12
f 571/421/12 569/422/12 593/458/12 596/446/12
f 573/423/12 574/424/12 598/449/12 597/459/12
f 574/424/12 576/431/12 599/450/12 598/449/12
f 576/431/12 575/432/12 600/460/12 599/450/12
f 575/432/12 573/423/12 597/459/12 600/460/12
f 577/419/16 578/420/16 602/443/16 601/461/16
f 578/420/16 580/433/16 603/444/16 602/443/16
f 580/433/16 579/434/16 604/462/16 603/444/16
f 579/434/16 577/419/16 601/461/16 604/462/16
f 581/436/16 582/435/16 606/463/16 605/448/16
f 582/435/16 584/437/16 607/464/16 606/463/16
f 584/437/16 583/438/16 608/447/16 607/464/16
f 583/438/16 581/436/16 605/448/16 608/447/16
f 585/440/12 586/439/12 610/454/12 609/453/12
f 586/439/12 588/441/12 611/465/12 610/454/12
f 588/441/12 587/442/12 612/466/12 611/465/12
f 587/442/12 585/440/12 609/453/12 612/466/12
f 612/466/3 609/453/3 633/453/3 635/466/3
f 599/450/18 600/460/18 623/460/18 624/450/18
f 606/463/1 607/464/1 632/464/1 630/463/1
f 603/444/17 604/462/17 627/462/17 628/444/17
f 610/454/1 611/465/1 636/465/1 634/454/1
f 607/464/17 608/447/17 631/447/17 632/464/17
f 611/465/18 612/466/18 635/466/18 636/465/18
f 589/456/18 590/455/18 614/455/18 613/456/18
f 593/458/17 594/457/17 618/457/17 617/458/17
f 592/452/3 589/456/3 613/456/3 615/452/3
f 597/459/17 598/449/17 622/449/17 621/459/17
f 596/446/3 593/458/3 617/458/3 619/446/3
f 601/461/18 602/443/18 626/443/18 625/461/18
f 590/455/1 591/451/1 616/451/1 614/455/1
f 600/460/3 597/459/3 621/459/3 623/460/3
f 605/448/18 606/463/18 630/463/18 629/448/18
f 594/457/1 595/445/1 620/445/1 618/457/1
f 604/462/3 601/461/3 625/461/3 627/462/3
f 661/401/12 662/403/12 664/467/12 663/400/12
f 665/397/16 666/402/16 668/468/16 667/396/16
f 669/398/16 670/399/16 672/469/16 671/470/16
f 673/394/12 674/395/12 676/471/12 675/472/12
f 677/474/12 678/473/12 680/475/12 679/476/12
f 681/478/16 682/477/16 684/479/16 683/480/16
f 638/403/1 639/467/1 664/467/1 662/403/1
f 648/470/3 645/398/3 669/398/3 671/470/3
f 653/474/17 654/473/17 678/473/17 677/474/17
f 652/472/3 649/394/3 673/394/3 675/472/3
f 639/467/18 640/400/18 663/400/18 664/467/18
f 656/476/3 653/474/3 677/474/3 679/476/3
f 643/468/17 644/396/17 667/396/17 668/468/17
f 650/395/1 651/471/1 676/471/1 674/395/1
f 660/480/3 657/478/3 681/478/3 683/480/3
f 647/469/17 648/470/17 671/470/17 672/469/17
f 654/473/1 655/475/1 680/475/1 678/473/1
f 651/471/18 652/472/18 675/472/18 676/471/18
f 655/475/18 656/476/18 679/476/18 680/475/18
f 659/479/17 660/480/17 683/480/17 684/479/17
usemtl M_Orange
f 326/284/17 325/285/17 328/286/17 327/283/17
f 330/287/18 329/281/18 332/282/18 331/288/18
usemtl M_Gris_Metal
f 54/264/16 64/265/16 185/265/16 179/264/16
f 366/266/51 375/267/51 387/267/51 388/266/51
f 52/268/18 54/264/18 179/264/18 173/268/18
f 64/265/17 58/269/17 183/269/17 185/265/17
f 58/269/12 52/268/12 173/268/12 183/269/12
f 52/268/1 58/269/1 334/289/1 333/290/1
f 375/291/17 333/290/17 349/290/17 387/291/17
f 64/265/1 54/264/1 336/292/1 335/293/1
f 58/269/1 64/265/1 335/293/1 377/294/1 378/295/1 361/296/1 362/297/1 369/298/1 370/299/1 353/300/1 354/301/1 373/302/1 374/303/1 357/304/1 358/305/1 365/306/1 366/307/1 334/289/1
f 54/264/1 52/268/1 333/290/1 375/291/1 376/308/1 359/309/1 360/310/1 367/311/1 368/312/1 351/313/1 352/314/1 371/315/1 372/316/1 355/317/1 356/318/1 363/319/1 364/320/1 336/292/1
f 360/310/80 357/304/80 342/304/80 341/310/80
f 371/315/17 352/314/17 345/314/17 383/315/17
f 376/308/80 365/306/80 385/306/80 386/308/80
f 353/300/18 370/299/18 384/299/18 346/300/18
f 354/301/81 351/321/81 344/321/81 343/301/81
f 353/300/1 352/322/1 351/321/1 354/301/1
f 357/304/1 360/310/1 359/323/1 358/324/1
f 361/296/1 356/318/1 355/317/1 362/297/1
f 369/298/1 372/316/1 371/315/1 370/299/1
f 365/306/1 376/308/1 375/267/1 366/266/1
f 373/302/1 368/312/1 367/311/1 374/303/1
f 377/325/1 364/326/1 363/327/1 378/328/1
f 334/289/18 366/307/18 388/307/18 350/289/18
f 359/309/17 376/308/17 386/308/17 340/309/17
f 358/324/81 359/323/81 340/323/81 339/324/81
f 367/311/17 360/310/17 341/310/17 391/311/17
f 368/312/80 373/302/80 389/302/80 390/312/80
f 355/317/17 372/316/17 382/316/17 379/317/17
f 356/318/80 361/296/80 338/296/80 337/318/80
f 363/319/17 356/318/17 337/318/17 395/319/17
f 374/303/81 367/311/81 391/311/81 392/303/81
f 333/290/82 334/289/82 350/289/82 349/290/82
f 336/292/17 364/320/17 394/320/17 348/292/17
f 362/297/81 355/317/81 379/317/81 380/297/81
f 377/294/18 335/293/18 347/293/18 393/294/18
f 364/326/82 377/325/82 393/325/82 394/326/82
f 361/296/18 378/295/18 396/295/18 338/296/18
f 335/293/51 336/292/51 348/292/51 347/293/51
f 372/316/80 369/298/80 381/298/80 382/316/80
f 369/298/18 362/297/18 380/297/18 381/298/18
f 378/328/81 363/327/81 395/327/81 396/328/81
f 357/304/18 374/303/18 392/303/18 342/304/18
f 352/322/80 353/300/80 346/300/80 345/322/80
f 351/313/17 368/312/17 390/312/17 344/313/17
f 370/299/81 371/315/81 383/315/81 384/299/81
f 365/306/18 358/305/18 339/305/18 385/306/18
f 373/302/18 354/301/18 343/301/18 389/302/18
usemtl M_Cyan
f 426/304/1 414/303/1 402/311/1 401/310/1
f 417/298/1 398/297/1 397/317/1 418/316/1
f 415/306/1 400/324/1 399/323/1 416/308/1
f 408/326/1 407/325/1 422/293/1 421/292/1
f 420/300/1 411/299/1 403/315/1 404/322/1
f 428/318/1 427/296/1 425/328/1 424/327/1
f 423/289/1 410/266/1 409/267/1 419/290/1
f 413/312/1 405/302/1 406/301/1 412/321/1
f 613/456/16 614/455/16 616/451/16 615/452/16
f 617/458/12 618/457/12 620/445/12 619/446/12
f 621/459/12 622/449/12 624/450/12 623/460/12
f 625/461/16 626/443/16 628/444/16 627/462/16
f 629/448/16 630/463/16 632/464/16 631/447/16
f 633/453/12 634/454/12 636/465/12 635/466/12
