# Blender 4.2.3 LTS
# www.blender.org
mtllib SM_Floor_Display_Module.mtl
o SM_Floor_Display_Module
v -0.123731 0.000000 0.140707
v -0.127580 0.009293 0.150000
v -0.140707 0.000000 0.123731
v -0.150000 0.009293 0.127580
v -0.111216 0.055606 0.104850
v -0.150000 0.046313 0.127580
v -0.104850 0.055606 0.111216
v -0.127580 0.046313 0.150000
v -0.140707 0.000000 -0.123731
v -0.150000 0.009293 -0.127580
v -0.123731 0.000000 -0.140707
v -0.127580 0.009293 -0.150000
v -0.104850 0.055606 -0.111216
v -0.127580 0.046313 -0.150000
v -0.111216 0.055606 -0.104850
v -0.150000 0.046313 -0.127580
v 0.140707 0.000000 0.123731
v 0.150000 0.009293 0.127580
v 0.123731 0.000000 0.140707
v 0.127580 0.009293 0.150000
v 0.104850 0.055606 0.111216
v 0.127580 0.046313 0.150000
v 0.111216 0.055606 0.104850
v 0.150000 0.046313 0.127580
v 0.123731 0.000000 -0.140707
v 0.127580 0.009293 -0.150000
v 0.140707 0.000000 -0.123731
v 0.150000 0.009293 -0.127580
v 0.111216 0.055606 -0.104850
v 0.150000 0.046313 -0.127580
v 0.104850 0.055606 -0.111216
v 0.127580 0.046313 -0.150000
v -0.123731 0.055606 0.140707
v -0.140707 0.055606 0.123731
v -0.140707 0.055606 -0.123731
v -0.123731 0.055606 -0.140707
v 0.123731 0.055606 -0.140707
v 0.140707 0.055606 -0.123731
v 0.140707 0.055606 0.123731
v 0.123731 0.055606 0.140707
v 0.095995 0.052454 0.095995
v -0.095995 0.052454 0.095995
v -0.104363 0.052454 0.110040
v 0.097171 0.052454 -0.097171
v -0.087766 0.000000 -0.089179
v -0.087766 0.000000 -0.087766
v -0.089179 0.000000 0.087766
v -0.087766 0.000000 0.087766
v -0.087766 0.000000 0.089179
v 0.089179 0.000000 -0.087766
v 0.089179 0.000000 -0.089179
v 0.087766 0.000000 0.089179
v 0.087766 0.000000 0.087766
v 0.082634 0.018848 -0.150000
v -0.082634 0.018848 -0.150000
v -0.082634 0.036759 -0.150000
v -0.089179 0.046313 -0.150000
v 0.089179 0.046313 -0.150000
v 0.082634 0.036759 -0.150000
v -0.082634 0.018848 0.150000
v -0.089179 0.009293 0.150000
v -0.087766 0.000000 0.140707
v 0.089179 0.009293 0.150000
v 0.082634 0.018848 0.150000
v 0.082634 0.036759 0.150000
v -0.082634 0.036759 0.150000
v -0.150000 0.021851 -0.083422
v -0.140707 0.000000 0.089179
v -0.150000 0.009293 0.089179
v -0.150000 0.021851 0.083422
v -0.150000 0.033756 0.083422
v -0.111216 0.055606 0.087766
v -0.111216 0.055606 0.089179
v -0.111216 0.055606 -0.089179
v -0.150000 0.033756 -0.083422
v 0.150000 0.021851 0.083422
v 0.150000 0.009293 0.089179
v 0.150000 0.009293 -0.089179
v 0.150000 0.021851 -0.083422
v 0.150000 0.033756 -0.083422
v 0.150000 0.046313 -0.089179
v 0.111216 0.055606 -0.089179
v 0.111216 0.055606 0.087766
v 0.150000 0.033756 0.083422
v -0.036768 0.055606 -0.121560
v 0.036769 0.055606 -0.121560
v 0.039749 0.055606 -0.124055
v 0.036770 0.055606 0.121560
v 0.039749 0.055606 0.124055
v -0.036768 0.055606 0.121560
v -0.039749 0.055606 0.124055
v -0.140707 0.055606 0.089179
v -0.140707 0.055606 -0.087766
v 0.140707 0.055606 -0.089179
v 0.140707 0.055606 -0.087766
v 0.140707 0.055606 0.087766
v 0.140707 0.055606 0.089179
v -0.089179 0.055606 -0.140707
v 0.087766 0.055606 -0.140707
v -0.087766 0.055606 0.140707
v -0.089179 0.055606 0.140707
v -0.087766 0.055606 -0.111216
v -0.089179 0.055606 0.111216
v -0.087766 0.055606 0.111216
v -0.036767 0.055606 0.112753
v -0.039743 0.055606 0.111216
v 0.039750 0.055606 0.111216
v 0.036773 0.055606 0.112753
v -0.039743 0.055606 -0.111216
v -0.036767 0.055606 -0.112753
v 0.036769 0.055606 -0.112753
v -0.039737 0.052454 -0.110040
v 0.039741 0.052454 -0.110040
v 0.038305 0.052454 -0.110040
v 0.039756 0.052454 0.110040
v -0.038299 0.052454 0.110040
v -0.110040 0.052454 -0.104363
v -0.104363 0.052454 -0.110040
v 0.110040 0.052454 0.104363
v 0.097171 0.052454 0.097171
v -0.097171 0.052454 -0.097171
v -0.097171 0.052454 0.097171
v -0.110040 0.052454 0.104363
v 0.104363 0.052454 -0.110040
v 0.110040 0.052454 -0.104363
v 0.104363 0.052454 0.110040
v -0.089179 0.000000 -0.087766
v -0.089179 0.000000 -0.089179
v -0.089179 0.000000 0.089179
v 0.087766 0.000000 -0.087766
v 0.087766 0.000000 -0.089179
v 0.089179 0.000000 0.087766
v 0.089179 0.000000 0.089179
v 0.087766 0.009293 -0.150000
v 0.089179 0.009293 -0.150000
v 0.089179 0.000000 -0.140707
v 0.087766 0.000000 -0.140707
v -0.087766 0.000000 -0.140707
v -0.089179 0.000000 -0.140707
v -0.089179 0.009293 -0.150000
v -0.087766 0.009293 -0.150000
v -0.087766 0.046313 -0.150000
v -0.087766 0.055606 -0.140707
v 0.089179 0.055606 -0.140707
v 0.087766 0.046313 -0.150000
v -0.089179 0.000000 0.140707
v 0.087766 0.000000 0.140707
v 0.089179 0.000000 0.140707
v 0.087766 0.009293 0.150000
v 0.089179 0.046313 0.150000
v 0.089179 0.055606 0.140707
v 0.087766 0.055606 0.140707
v -0.089179 0.046313 0.150000
v -0.150000 0.009293 -0.089179
v -0.140707 0.000000 -0.089179
v -0.140707 0.000000 -0.087766
v -0.140707 0.000000 0.087766
v -0.150000 0.046313 0.087766
v -0.150000 0.046313 0.089179
v -0.140707 0.055606 0.087766
v -0.140707 0.055606 -0.089179
v -0.150000 0.046313 -0.089179
v -0.150000 0.046313 -0.087766
v 0.150000 0.009293 0.087766
v 0.140707 0.000000 0.089179
v 0.140707 0.000000 0.087766
v 0.140707 0.000000 -0.087766
v 0.140707 0.000000 -0.089179
v 0.150000 0.046313 0.089179
v -0.111216 0.052454 -0.087766
v -0.111216 0.052454 -0.089179
v -0.111216 0.055606 -0.087766
v -0.087766 0.052454 0.111216
v -0.089179 0.052454 0.111216
v 0.087766 0.055606 0.111216
v 0.089179 0.055606 0.111216
v 0.089179 0.052454 0.111216
v 0.087766 0.052454 0.111216
v -0.111216 0.052454 0.089179
v -0.111216 0.052454 0.087766
v 0.087766 0.052454 -0.111216
v 0.089179 0.052454 -0.111216
v 0.089179 0.055606 -0.111216
v 0.087766 0.055606 -0.111216
v -0.089179 0.055606 -0.111216
v -0.089179 0.052454 -0.111216
v -0.087766 0.052454 -0.111216
v 0.111216 0.052454 -0.089179
v 0.111216 0.052454 -0.087766
v 0.111216 0.055606 -0.087766
v 0.111216 0.055606 0.089179
v 0.111216 0.052454 0.087766
v 0.111216 0.052454 0.089179
v -0.039749 0.055606 -0.124055
v -0.038305 0.055606 -0.123096
v -0.038303 0.055606 -0.111216
v -0.038303 0.055606 0.111216
v 0.039745 0.055606 -0.111216
v -0.039738 0.052454 -0.111216
v -0.038301 0.052454 -0.111216
v 0.038305 0.052454 -0.111216
v 0.039742 0.052454 -0.111216
v 0.039757 0.052454 0.111216
v 0.038320 0.052454 0.111216
v -0.038299 0.052454 0.111216
v -0.039736 0.052454 0.111216
v -0.039735 0.052454 0.110040
v -0.038301 0.052454 -0.110040
v 0.038320 0.052454 0.110040
v 0.095995 0.051545 -0.095995
v 0.095995 0.051545 0.095995
v -0.095995 0.051545 -0.095995
v -0.095995 0.051545 0.095995
v 0.097171 0.051545 -0.097171
v 0.097171 0.051545 0.097171
v -0.097171 0.051545 -0.097171
v -0.097171 0.051545 0.097171
v -0.087766 0.000909 -0.087766
v -0.089179 0.000909 -0.087766
v -0.089179 0.000909 -0.089179
v -0.087766 0.000909 -0.089179
v -0.089179 0.000909 0.089179
v -0.089179 0.000909 0.087766
v -0.087766 0.000909 0.087766
v -0.087766 0.000909 0.089179
v 0.089179 0.000909 -0.089179
v 0.089179 0.000909 -0.087766
v 0.087766 0.000909 -0.087766
v 0.087766 0.000909 -0.089179
v 0.087766 0.000909 0.087766
v 0.089179 0.000909 0.087766
v 0.089179 0.000909 0.089179
v 0.087766 0.000909 0.089179
v 0.087766 0.009670 -0.149091
v 0.089179 0.009670 -0.149091
v 0.089179 0.000909 -0.140330
v 0.087766 0.000909 -0.140330
v -0.087766 0.000909 -0.140330
v -0.089179 0.000909 -0.140330
v -0.089179 0.009670 -0.149091
v -0.087766 0.009670 -0.149091
v -0.087766 0.045937 -0.149091
v -0.089179 0.045937 -0.149091
v -0.089179 0.054698 -0.140330
v -0.087766 0.054698 -0.140330
v 0.087766 0.054698 -0.140330
v 0.089179 0.054698 -0.140330
v 0.089179 0.045937 -0.149091
v 0.087766 0.045937 -0.149091
v -0.087766 0.009670 0.149091
v -0.089179 0.009670 0.149091
v -0.089179 0.000909 0.140330
v -0.087766 0.000909 0.140330
v 0.087766 0.000909 0.140330
v 0.089179 0.000909 0.140330
v 0.089179 0.009670 0.149091
v 0.087766 0.009670 0.149091
v 0.087766 0.045937 0.149091
v 0.089179 0.045937 0.149091
v 0.089179 0.054698 0.140330
v 0.087766 0.054698 0.140330
v -0.087766 0.054698 0.140330
v -0.089179 0.054698 0.140330
v -0.089179 0.045937 0.149091
v -0.087766 0.045937 0.149091
v -0.149091 0.009670 -0.087766
v -0.149091 0.009670 -0.089179
v -0.140330 0.000909 -0.089179
v -0.140330 0.000909 -0.087766
v -0.140330 0.000909 0.087766
v -0.140330 0.000909 0.089179
v -0.149091 0.009670 0.089179
v -0.149091 0.009670 0.087766
v -0.149091 0.045937 0.087766
v -0.149091 0.045937 0.089179
v -0.140330 0.054698 0.089179
v -0.140330 0.054698 0.087766
v -0.140330 0.054698 -0.087766
v -0.140330 0.054698 -0.089179
v -0.149091 0.045937 -0.089179
v -0.149091 0.045937 -0.087766
v 0.149091 0.009670 0.087766
v 0.149091 0.009670 0.089179
v 0.140330 0.000909 0.089179
v 0.140330 0.000909 0.087766
v 0.140330 0.000909 -0.087766
v 0.140330 0.000909 -0.089179
v 0.149091 0.009670 -0.089179
v 0.149091 0.009670 -0.087766
v 0.149091 0.045937 -0.087766
v 0.149091 0.045937 -0.089179
v 0.140330 0.054698 -0.089179
v 0.140330 0.054698 -0.087766
v 0.140330 0.054698 0.087766
v 0.140330 0.054698 0.089179
v 0.149091 0.045937 0.089179
v 0.149091 0.045937 0.087766
v -0.112125 0.054698 -0.089179
v -0.112125 0.054698 -0.087766
v -0.089179 0.054698 0.112125
v -0.087766 0.054698 0.112125
v 0.087766 0.054698 0.112125
v 0.089179 0.054698 0.112125
v -0.112125 0.054698 0.087766
v -0.112125 0.054698 0.089179
v 0.089179 0.054698 -0.112125
v 0.087766 0.054698 -0.112125
v -0.087766 0.054698 -0.112125
v -0.089179 0.054698 -0.112125
v 0.112125 0.054698 -0.087766
v 0.112125 0.054698 -0.089179
v 0.112125 0.054698 0.089179
v 0.112125 0.054698 0.087766
v -0.039749 0.054698 -0.124055
v -0.038305 0.054698 -0.123096
v 0.038305 0.054698 -0.123096
v 0.039749 0.054698 -0.124055
v 0.039749 0.054698 0.124055
v 0.038305 0.054698 0.123096
v -0.038305 0.054698 0.123096
v -0.039749 0.054698 0.124055
v -0.039743 0.054697 -0.112125
v -0.038303 0.054698 -0.112126
v -0.038303 0.054698 0.112126
v -0.039743 0.054697 0.112125
v 0.039750 0.054698 0.112126
v 0.038310 0.054697 0.112124
v 0.038306 0.054698 -0.112125
v 0.039745 0.054697 -0.112125
v -0.104850 0.051673 0.111216
v -0.111216 0.051673 0.104850
v -0.111216 0.051673 -0.104850
v -0.104850 0.051673 -0.111216
v 0.104850 0.051673 -0.111216
v 0.111216 0.051673 -0.104850
v 0.111216 0.051673 0.104850
v 0.104850 0.051673 0.111216
v -0.104363 0.051673 0.110040
v -0.110040 0.051673 0.104363
v -0.110040 0.051673 -0.104363
v -0.104363 0.051673 -0.110040
v 0.104363 0.051673 -0.110040
v 0.110040 0.051673 -0.104363
v 0.110040 0.051673 0.104363
v 0.104363 0.051673 0.110040
v 0.111216 0.051673 0.089179
v 0.112125 0.051673 0.089179
v 0.111216 0.051673 0.087766
v 0.112125 0.051673 0.087766
v -0.039736 0.051673 0.111216
v -0.039736 0.051673 0.112125
v -0.038299 0.051673 0.111216
v -0.038299 0.051673 0.112125
v 0.112125 0.051673 -0.089179
v 0.111216 0.051673 -0.089179
v 0.111216 0.051673 -0.087766
v 0.112125 0.051673 -0.087766
v -0.111216 0.051673 -0.087766
v -0.111216 0.051673 -0.089179
v 0.038320 0.051673 0.111216
v 0.038320 0.051673 0.112125
v -0.087766 0.051673 0.111216
v -0.089179 0.051673 0.111216
v 0.089179 0.051673 0.111216
v 0.087766 0.051673 0.111216
v -0.111216 0.051673 0.089179
v -0.111216 0.051673 0.087766
v 0.087766 0.051673 -0.111216
v 0.089179 0.051673 -0.111216
v 0.039757 0.051673 0.111216
v 0.039757 0.051673 0.112125
v -0.089179 0.051673 -0.111216
v -0.087766 0.051673 -0.111216
v -0.089179 0.051673 -0.112125
v -0.087766 0.051673 -0.112125
v 0.039742 0.051673 -0.112125
v 0.039742 0.051673 -0.111216
v -0.039738 0.051673 -0.111216
v -0.038301 0.051673 -0.111216
v 0.038305 0.051673 -0.111216
v -0.112125 0.051673 -0.087766
v -0.112125 0.051673 -0.089179
v -0.087766 0.051673 0.112125
v -0.089179 0.051673 0.112125
v 0.089179 0.051673 0.112125
v 0.087766 0.051673 0.112125
v -0.112125 0.051673 0.089179
v -0.112125 0.051673 0.087766
v 0.087766 0.051673 -0.112125
v 0.089179 0.051673 -0.112125
v -0.039738 0.051673 -0.112125
v -0.038301 0.051673 -0.112125
v 0.038305 0.051673 -0.112125
v 0.038305 0.055606 -0.123096
v 0.038305 0.055606 0.123096
v -0.038305 0.055606 0.123096
v 0.038310 0.055606 0.111216
v 0.038306 0.055606 -0.111216
v -0.036768 0.055082 -0.121560
v 0.036769 0.055082 -0.121560
v 0.036770 0.055082 0.121560
v -0.036768 0.055082 0.121560
v -0.036767 0.055082 -0.112753
v -0.036767 0.055082 0.112753
v 0.036773 0.055082 0.112753
v 0.036769 0.055082 -0.112753
v -0.085372 0.049192 0.066516
v -0.066516 0.049192 0.085372
v -0.082786 0.049192 0.076167
v -0.076167 0.049192 0.082786
v -0.066516 0.049192 -0.085372
v -0.085372 0.049192 -0.066516
v -0.076167 0.049192 -0.082786
v -0.082786 0.049192 -0.076167
v 0.066516 0.049192 0.085372
v 0.085372 0.049192 0.066516
v 0.076167 0.049192 0.082786
v 0.082786 0.049192 0.076167
v 0.085372 0.049192 -0.066516
v 0.066516 0.049192 -0.085372
v 0.082786 0.049192 -0.076167
v 0.076167 0.049192 -0.082786
v 0.067125 0.052454 -0.090000
v 0.090000 0.052454 -0.067125
v 0.095959 0.052454 -0.095959
v 0.078562 0.052454 -0.086935
v 0.086935 0.052454 -0.078562
v 0.090000 0.052454 0.067125
v 0.067125 0.052454 0.090000
v 0.086935 0.052454 0.078562
v 0.078562 0.052454 0.086935
v -0.090000 0.052454 -0.067125
v -0.067125 0.052454 -0.090000
v -0.095959 0.052454 -0.095959
v -0.086935 0.052454 -0.078562
v -0.078562 0.052454 -0.086935
v -0.067125 0.052454 0.090000
v -0.090000 0.052454 0.067125
v -0.078562 0.052454 0.086935
v -0.086935 0.052454 0.078562
v 0.086935 0.049192 -0.078562
v 0.090000 0.049192 -0.067125
v 0.078562 0.049192 -0.086935
v 0.067125 0.049192 -0.090000
v -0.078562 0.049192 -0.086935
v -0.067125 0.049192 -0.090000
v -0.086935 0.049192 -0.078562
v -0.090000 0.049192 -0.067125
v -0.086935 0.049192 0.078562
v -0.090000 0.049192 0.067125
v -0.078562 0.049192 0.086935
v -0.067125 0.049192 0.090000
v 0.090000 0.049192 0.067125
v 0.086935 0.049192 0.078562
v 0.078562 0.049192 0.086935
v 0.067125 0.049192 0.090000
v 0.082786 0.047565 -0.076167
v 0.085372 0.047565 -0.066516
v 0.076167 0.047565 -0.082786
v 0.066516 0.047565 -0.085372
v -0.076167 0.047565 -0.082786
v -0.066516 0.047565 -0.085372
v -0.082786 0.047565 -0.076167
v -0.085372 0.047565 -0.066516
v -0.082786 0.047565 0.076167
v -0.085372 0.047565 0.066516
v -0.076167 0.047565 0.082786
v -0.066516 0.047565 0.085372
v 0.085372 0.047565 0.066516
v 0.082786 0.047565 0.076167
v 0.076167 0.047565 0.082786
v 0.066516 0.047565 0.085372
v -0.150000 0.009293 0.087766
v -0.150000 0.009293 -0.087766
v 0.150000 0.046313 -0.087766
v 0.150000 0.009293 -0.087766
v 0.150000 0.046313 0.087766
v -0.148599 0.031616 0.081282
v -0.148599 0.023991 0.081282
v -0.148599 0.023991 -0.081282
v -0.148599 0.031616 -0.081282
v 0.148599 0.031616 -0.081282
v 0.148599 0.023991 -0.081282
v 0.148599 0.023991 0.081282
v 0.148599 0.031616 0.081282
v -0.148599 0.033756 0.083422
v -0.148599 0.021851 0.083422
v -0.148599 0.021851 -0.083422
v -0.148599 0.033756 -0.083422
v 0.148599 0.033756 -0.083422
v 0.148599 0.021851 -0.083422
v 0.148599 0.021851 0.083422
v 0.148599 0.033756 0.083422
v -0.147595 0.031616 0.081282
v -0.147595 0.023991 0.081282
v -0.147595 0.023991 -0.081282
v -0.147595 0.031616 -0.081282
v 0.147595 0.031616 -0.081282
v 0.147595 0.023991 -0.081282
v 0.147595 0.023991 0.081282
v 0.147595 0.031616 0.081282
v 0.087766 0.046313 0.150000
v -0.087766 0.009293 0.150000
v -0.087766 0.046313 0.150000
v 0.000000 0.018848 -0.150000
v 0.000000 0.036759 -0.150000
v 0.000000 0.018848 0.150000
v 0.000000 0.036759 0.150000
v 0.041317 0.018848 -0.150000
v 0.041317 0.036759 -0.150000
v -0.041317 0.018848 0.150000
v -0.041317 0.036759 0.150000
v -0.041317 0.018848 -0.150000
v -0.041317 0.036759 -0.150000
v 0.041317 0.018848 0.150000
v 0.041317 0.036759 0.150000
v 0.002952 0.021800 -0.150000
v 0.002952 0.033806 -0.150000
v 0.038365 0.033806 -0.150000
v 0.038365 0.021800 -0.150000
v -0.002952 0.021800 0.150000
v -0.002952 0.033806 0.150000
v -0.038365 0.033806 0.150000
v -0.038365 0.021800 0.150000
v -0.038365 0.021800 -0.150000
v -0.038365 0.033806 -0.150000
v -0.002952 0.033806 -0.150000
v -0.002952 0.021800 -0.150000
v -0.079682 0.021800 -0.150000
v -0.079682 0.033806 -0.150000
v -0.044269 0.033806 -0.150000
v -0.044269 0.021800 -0.150000
v 0.038365 0.021800 0.150000
v 0.038365 0.033806 0.150000
v 0.002952 0.033806 0.150000
v 0.002952 0.021800 0.150000
v 0.079682 0.021800 0.150000
v 0.079682 0.033806 0.150000
v 0.044269 0.033806 0.150000
v 0.044269 0.021800 0.150000
v -0.044269 0.021800 0.150000
v -0.044269 0.033806 0.150000
v -0.079682 0.033806 0.150000
v -0.079682 0.021800 0.150000
v 0.044269 0.021800 -0.150000
v 0.044269 0.033806 -0.150000
v 0.079682 0.033806 -0.150000
v 0.079682 0.021800 -0.150000
v 0.002952 0.033806 -0.146569
v 0.002952 0.021800 -0.146569
v 0.038365 0.021800 -0.146569
v 0.038365 0.033806 -0.146569
v -0.002952 0.033806 0.146569
v -0.002952 0.021800 0.146569
v -0.038365 0.021800 0.146569
v -0.038365 0.033806 0.146569
v -0.038365 0.033806 -0.146569
v -0.038365 0.021800 -0.146569
v -0.002952 0.021800 -0.146569
v -0.002952 0.033806 -0.146569
v -0.079682 0.033806 -0.146569
v -0.079682 0.021800 -0.146569
v -0.044269 0.021800 -0.146569
v -0.044269 0.033806 -0.146569
v 0.038365 0.033806 0.146569
v 0.038365 0.021800 0.146569
v 0.002952 0.021800 0.146569
v 0.002952 0.033806 0.146569
v 0.079682 0.033806 0.146569
v 0.079682 0.021800 0.146569
v 0.044269 0.021800 0.146569
v 0.044269 0.033806 0.146569
v -0.044269 0.033806 0.146569
v -0.044269 0.021800 0.146569
v -0.079682 0.021800 0.146569
v -0.079682 0.033806 0.146569
v 0.044269 0.033806 -0.146569
v 0.044269 0.021800 -0.146569
v 0.079682 0.021800 -0.146569
v 0.079682 0.033806 -0.146569
vn 1.0000 -0.0000 -0.0000
vn -0.0000 -0.7071 0.7071
vn -0.0000 -0.0000 -1.0000
vn -0.0000 -0.7071 -0.7071
vn 0.7071 0.7071 -0.0000
vn -0.0000 -1.0000 -0.0000
vn 0.7071 -0.0000 0.7071
vn -0.0000 1.0000 -0.0000
vn -0.7071 -0.7071 -0.0000
vn -0.0000 0.7071 0.7071
vn -0.7071 0.7071 -0.0000
vn -0.0000 -0.0000 1.0000
vn -0.7071 -0.0000 0.7071
vn 0.7071 -0.7071 -0.0000
vn -0.0000 0.7071 -0.7071
vn -0.7071 -0.0000 -0.7071
vn 0.7071 -0.0000 -0.7071
vn -1.0000 -0.0000 -0.0000
vn -0.5000 -0.7071 0.5000
vn -0.5000 0.7071 0.5000
vn -0.5000 0.7071 -0.5000
vn -0.5000 -0.7071 -0.5000
vn 0.5000 0.7071 -0.5000
vn 0.5000 -0.7071 -0.5000
vn 0.5000 0.7071 0.5000
vn 0.5000 -0.7071 0.5000
vn -1.0000 -0.0000 0.0001
vn -1.0000 -0.0020 -0.0019
vn 1.0000 -0.0001 0.0001
vn 0.0004 -0.0001 -1.0000
vn -1.0000 -0.0006 0.0006
vn 1.0000 0.0020 0.0018
vn 1.0000 0.0014 -0.0013
vn -1.0000 -0.0012 -0.0011
vn -1.0000 0.0009 -0.0008
vn 1.0000 0.0028 0.0026
vn 0.0006 -0.0001 -1.0000
vn -0.0001 -0.0001 1.0000
vn 0.0003 -0.0001 1.0000
vn -0.0003 1.0000 -0.0000
vn -0.0004 1.0000 -0.0000
vn -0.0006 1.0000 -0.0000
vn 0.0001 1.0000 -0.0000
vn 0.9998 0.0194 -0.0001
vn -0.9998 0.0194 -0.0001
vn -0.0000 0.0389 -0.9992
vn 1.0000 0.0003 -0.0005
vn -1.0000 -0.0001 0.0001
vn -1.0000 -0.0001 -0.0002
vn 1.0000 0.0003 0.0005
vn 1.0000 0.0002 0.0004
vn 1.0000 -0.0000 -0.0001
vn -1.0000 0.0002 -0.0003
vn 1.0000 -0.0000 0.0001
vn -1.0000 -0.0000 -0.0004
vn -0.9659 -0.0000 0.2588
vn -0.2588 -0.0000 0.9659
vn 0.2588 -0.0000 0.9659
vn 0.9659 -0.0000 0.2588
vn 0.9659 -0.0000 -0.2588
vn 0.2588 -0.0000 -0.9659
vn -0.9659 -0.0000 -0.2588
vn -0.2588 -0.0000 -0.9659
vt 0.791667 0.593924
vt 0.791667 0.656076
vt 0.791667 0.593924
vt 0.292605 0.737092
vt 0.338515 0.737092
vt 0.343861 0.750000
vt 0.292610 0.750000
vt 0.731953 0.713649
vt 0.768037 0.713649
vt 0.768039 0.713649
vt 0.731958 0.713649
vt 0.292610 0.500000
vt 0.343861 0.500000
vt 0.338515 0.512908
vt 0.292605 0.512908
vt 0.637908 0.536485
vt 0.637908 0.582395
vt 0.583218 0.582390
vt 0.583218 0.531139
vt 0.208666 0.667619
vt 0.291334 0.667619
vt 0.291334 0.737092
vt 0.208666 0.737092
vt 0.838649 0.546196
vt 0.828804 0.536351
vt 0.838649 0.581731
vt 0.862092 0.536485
vt 0.862092 0.582394
vt 0.137908 0.667605
vt 0.137908 0.713515
vt 0.125000 0.718861
vt 0.125000 0.667610
vt 0.291334 0.737092
vt 0.291334 0.750000
vt 0.208666 0.750000
vt 0.625000 0.786485
vt 0.625000 0.832395
vt 0.583218 0.832390
vt 0.583218 0.781139
vt 0.207382 0.667618
vt 0.207395 0.737092
vt 0.161485 0.737092
vt 0.661351 0.583666
vt 0.661351 0.666334
vt 0.637908 0.666334
vt 0.637908 0.583666
vt 0.291334 0.512908
vt 0.208666 0.512908
vt 0.208666 0.500000
vt 0.291334 0.500000
vt 0.292618 0.667618
vt 0.362092 0.667605
vt 0.362092 0.713515
vt 0.292605 0.737092
vt 0.291334 0.582381
vt 0.208666 0.582381
vt 0.625000 0.036485
vt 0.625000 0.082395
vt 0.583218 0.082390
vt 0.583218 0.031139
vt 0.137908 0.583666
vt 0.137908 0.666334
vt 0.125000 0.666334
vt 0.125000 0.583666
vt 0.791334 0.536351
vt 0.768715 0.536351
vt 0.768717 0.536351
vt 0.791334 0.536351
vt 0.838649 0.666334
vt 0.838649 0.583666
vt 0.862092 0.583666
vt 0.862092 0.666334
vt 0.416782 0.000000
vt 0.583218 0.000000
vt 0.416782 0.031139
vt 0.731960 0.536351
vt 0.768039 0.536351
vt 0.768038 0.536351
vt 0.731960 0.536351
vt 0.362092 0.582395
vt 0.362092 0.536485
vt 0.416782 0.531138
vt 0.416782 0.582390
vt 0.625000 0.286485
vt 0.625000 0.332395
vt 0.583218 0.332390
vt 0.583218 0.281139
vt 0.362092 0.666334
vt 0.362092 0.583666
vt 0.416782 0.583666
vt 0.416782 0.666334
vt 0.207395 0.512908
vt 0.161485 0.512908
vt 0.156139 0.500000
vt 0.207390 0.500000
vt 0.362092 0.582394
vt 0.292618 0.582382
vt 0.292619 0.583666
vt 0.292619 0.666334
vt 0.208666 0.583666
vt 0.291334 0.583666
vt 0.291334 0.666334
vt 0.208666 0.666334
vt 0.416782 0.281139
vt 0.416782 0.218861
vt 0.583218 0.218861
vt 0.416782 0.781139
vt 0.416782 0.718861
vt 0.583218 0.718861
vt 0.416782 0.468861
vt 0.583218 0.468861
vt 0.768714 0.713649
vt 0.791334 0.713649
vt 0.768717 0.713649
vt 0.459682 0.895849
vt 0.540318 0.895849
vt 0.625000 0.417605
vt 0.625000 0.463515
vt 0.583218 0.417610
vt 0.540318 0.856932
vt 0.540318 0.873609
vt 0.625000 0.917605
vt 0.625000 0.963515
vt 0.583218 0.968861
vt 0.583218 0.917610
vt 0.563688 0.664288
vt 0.436312 0.664288
vt 0.563688 0.085712
vt 0.563688 0.164288
vt 0.156139 0.750000
vt 0.625000 0.003781
vt 0.625000 0.027358
vt 0.625000 0.226423
vt 0.625000 0.273577
vt 0.137908 0.536485
vt 0.125000 0.531139
vt 0.625000 0.476423
vt 0.625000 0.523577
vt 0.375000 0.531139
vt 0.625000 0.726423
vt 0.625000 0.773577
vt 0.375000 0.718861
vt 0.416782 0.082390
vt 0.625000 0.083666
vt 0.625000 0.166334
vt 0.583218 0.166334
vt 0.583218 0.083666
vt 0.416782 0.917610
vt 0.416782 0.968861
vt 0.125000 0.582390
vt 0.137908 0.582395
vt 0.416782 0.332390
vt 0.625000 0.333666
vt 0.625000 0.416334
vt 0.583218 0.416334
vt 0.583218 0.333666
vt 0.416782 0.167610
vt 0.583218 0.167610
vt 0.416782 0.667610
vt 0.416782 0.781138
vt 0.583218 0.832390
vt 0.416782 0.832390
vt 0.625000 0.833666
vt 0.625000 0.916334
vt 0.583218 0.916334
vt 0.583218 0.833666
vt 0.583218 0.667610
vt 0.730323 0.533822
vt 0.715670 0.519322
vt 0.416782 0.582390
vt 0.637908 0.666334
vt 0.583218 0.666334
vt 0.583218 0.583666
vt 0.416782 0.417610
vt 0.416782 0.468862
vt 0.207395 0.737092
vt 0.207390 0.750000
vt 0.207382 0.582382
vt 0.137908 0.582395
vt 0.838649 0.703804
vt 0.838649 0.668269
vt 0.862092 0.667605
vt 0.862092 0.713515
vt 0.671196 0.713649
vt 0.706731 0.713649
vt 0.706731 0.713649
vt 0.731283 0.536351
vt 0.708666 0.536351
vt 0.708666 0.536351
vt 0.731282 0.536351
vt 0.661351 0.546196
vt 0.661351 0.581731
vt 0.637908 0.582395
vt 0.661351 0.703804
vt 0.637908 0.667605
vt 0.637908 0.713515
vt 0.671196 0.536351
vt 0.790078 0.734411
vt 0.768717 0.713649
vt 0.791680 0.737264
vt 0.709922 0.734411
vt 0.791334 0.737092
vt 0.708666 0.737092
vt 0.661351 0.668269
vt 0.828804 0.713649
vt 0.838515 0.737092
vt 0.838515 0.512908
vt 0.661485 0.512908
vt 0.661485 0.737092
vt 0.838649 0.581731
vt 0.793269 0.536351
vt 0.793269 0.536351
vt 0.706731 0.536351
vt 0.707395 0.512908
vt 0.625000 0.167605
vt 0.625000 0.213515
vt 0.583218 0.167610
vt 0.793269 0.713649
vt 0.792605 0.737092
vt 0.707395 0.737092
vt 0.700519 0.690110
vt 0.700565 0.560028
vt 0.708333 0.593924
vt 0.708333 0.656076
vt 0.708333 0.593924
vt 0.718924 0.583333
vt 0.781076 0.583333
vt 0.711105 0.589587
vt 0.714587 0.586105
vt 0.700519 0.559890
vt 0.799435 0.560028
vt 0.799481 0.690110
vt 0.700565 0.689972
vt 0.718924 0.666667
vt 0.781076 0.666667
vt 0.799481 0.559890
vt 0.799435 0.689972
vt 0.709922 0.515589
vt 0.731282 0.536351
vt 0.708666 0.536351
vt 0.708319 0.512736
vt 0.731280 0.713649
vt 0.709922 0.734411
vt 0.708319 0.737264
vt 0.708666 0.713649
vt 0.790078 0.515589
vt 0.709922 0.515589
vt 0.708666 0.512908
vt 0.791334 0.512908
vt 0.730321 0.716178
vt 0.769676 0.716178
vt 0.768717 0.536351
vt 0.790078 0.515589
vt 0.791681 0.512736
vt 0.791334 0.536351
vt 0.708666 0.713649
vt 0.731276 0.713649
vt 0.793269 0.713649
vt 0.663329 0.702461
vt 0.683784 0.691216
vt 0.672539 0.711671
vt 0.792605 0.512908
vt 0.816216 0.691216
vt 0.827461 0.711671
vt 0.768853 0.711831
vt 0.768167 0.711830
vt 0.731823 0.711830
vt 0.731141 0.711830
vt 0.700259 0.691929
vt 0.663329 0.547539
vt 0.672539 0.538329
vt 0.731144 0.538169
vt 0.731829 0.538170
vt 0.768168 0.538170
vt 0.768850 0.538170
vt 0.827461 0.538329
vt 0.799741 0.558071
vt 0.700259 0.558071
vt 0.836671 0.547539
vt 0.836671 0.702461
vt 0.799741 0.691929
vt 0.816216 0.558784
vt 0.207381 0.583666
vt 0.207381 0.666334
vt 0.137908 0.666334
vt 0.661351 0.581731
vt 0.416782 0.166334
vt 0.583218 0.166334
vt 0.416782 0.083666
vt 0.416782 0.916334
vt 0.416782 0.833666
vt 0.416782 0.416334
vt 0.416782 0.333666
vt 0.788223 0.516793
vt 0.711776 0.516793
vt 0.711776 0.733207
vt 0.788224 0.733207
vt 0.768037 0.713649
vt 0.731953 0.713649
vt 0.731283 0.536351
vt 0.768038 0.536351
vt 0.791334 0.713649
vt 0.708666 0.713649
vt 0.784330 0.519322
vt 0.715669 0.730678
vt 0.784330 0.730678
vt 0.769676 0.533822
vt 0.713628 0.583333
vt 0.709752 0.583333
vt 0.708333 0.583333
vt 0.708333 0.661371
vt 0.708333 0.665248
vt 0.708333 0.666667
vt 0.791667 0.588628
vt 0.791667 0.584752
vt 0.791667 0.583333
vt 0.786371 0.666667
vt 0.790248 0.666667
vt 0.791667 0.666667
vt 0.708333 0.588628
vt 0.708806 0.588628
vt 0.713628 0.583806
vt 0.786372 0.583333
vt 0.786371 0.583806
vt 0.791194 0.588628
vt 0.791667 0.661371
vt 0.791194 0.661371
vt 0.786371 0.666194
vt 0.708806 0.661371
vt 0.713628 0.666194
vt 0.713628 0.666667
vt 0.710333 0.594174
vt 0.719174 0.585333
vt 0.785413 0.586105
vt 0.780826 0.585333
vt 0.788895 0.589587
vt 0.789667 0.594174
vt 0.788895 0.660413
vt 0.789667 0.655826
vt 0.785413 0.663895
vt 0.780826 0.664667
vt 0.710333 0.655826
vt 0.711105 0.660413
vt 0.714587 0.663895
vt 0.719174 0.664667
vt 0.436312 0.085712
vt 0.436312 0.164288
vt 0.563688 0.585712
vt 0.436312 0.585712
vt 0.459206 0.163280
vt 0.459206 0.086720
vt 0.459206 0.663280
vt 0.459206 0.586720
vt 0.540794 0.086720
vt 0.540794 0.163280
vt 0.540794 0.586720
vt 0.540794 0.663280
vt 0.560147 0.336083
vt 0.439853 0.336083
vt 0.439853 0.413917
vt 0.560147 0.413917
vt 0.560147 0.836083
vt 0.439853 0.836083
vt 0.439853 0.913917
vt 0.560147 0.913917
vt 0.439853 0.355541
vt 0.439853 0.375000
vt 0.439853 0.394459
vt 0.560147 0.394459
vt 0.560147 0.375000
vt 0.560147 0.355541
vt 0.439853 0.855541
vt 0.439853 0.875000
vt 0.439853 0.894459
vt 0.560147 0.894459
vt 0.560147 0.875000
vt 0.560147 0.855541
vt 0.459682 0.873610
vt 0.459682 0.856932
vt 0.540318 0.373610
vt 0.459682 0.373610
vt 0.540318 0.412527
vt 0.459682 0.412527
vt 0.540318 0.356932
vt 0.540318 0.395849
vt 0.540318 0.376390
vt 0.459682 0.376390
vt 0.540318 0.393068
vt 0.459682 0.393068
vt 0.540318 0.876390
vt 0.459682 0.876390
vt 0.540318 0.893068
vt 0.459682 0.893068
vt 0.459682 0.356932
vt 0.540318 0.337473
vt 0.459682 0.337473
vt 0.540318 0.354151
vt 0.459682 0.354151
vt 0.540318 0.837473
vt 0.459682 0.837473
vt 0.540318 0.854151
vt 0.459682 0.854151
vt 0.540318 0.912527
vt 0.459682 0.912527
vt 0.459682 0.395849
s 0
usemtl M_Noir_Bleuté
f 432/1/1 438/2/1 450/2/1 448/3/1
f 148/4/2 19/5/2 20/6/2 63/7/2
f 204/8/3 360/8/3 352/9/3 205/9/3 197/10/3 397/11/3
f 135/12/4 26/13/4 25/14/4 136/15/4
f 38/16/5 94/17/5 81/18/5 30/19/5
f 49/20/6 52/21/6 147/22/6 62/23/6
f 15/24/7 332/24/7 333/25/7 13/25/7
f 74/26/8 15/24/8 35/27/8 161/28/8
f 68/29/9 3/30/9 4/31/9 69/32/9
f 62/23/2 147/33/2 149/34/2 503/35/2
f 40/36/10 151/37/10 150/38/10 22/39/10
f 68/29/6 129/40/6 146/41/6 1/42/6 3/30/6
f 190/43/8 83/44/8 96/45/8 95/46/8
f 137/47/4 138/48/4 141/49/4 134/50/4
f 133/51/6 165/52/6 17/53/6 19/5/6 148/54/6
f 138/48/6 137/47/6 131/55/6 45/56/6
f 34/57/11 92/58/11 159/59/11 6/60/11
f 156/61/9 157/62/9 473/63/9 474/64/9
f 187/65/12 373/65/12 378/66/12 199/66/12 109/67/12 102/68/12
f 72/69/8 172/70/8 93/71/8 160/72/8
f 2/73/13 8/74/13 6/60/13 4/75/13
f 398/76/12 196/77/12 200/78/12 379/78/12 380/79/12 201/79/12
f 168/80/14 27/81/14 28/82/14 78/83/14
f 36/84/15 98/85/15 57/86/15 14/87/15
f 166/88/14 167/89/14 476/90/14 164/91/14
f 139/92/4 11/93/4 12/94/4 140/95/4
f 136/15/6 25/14/6 27/81/6 168/96/6 51/97/6
f 50/98/6 167/89/6 166/88/6 132/99/6
f 46/100/6 130/101/6 53/102/6 48/103/6
f 14/87/16 12/104/16 10/105/16 16/106/16
f 22/39/7 20/107/7 18/108/7 24/109/7
f 30/19/17 28/82/17 26/110/17 32/111/17
f 206/112/3 350/112/3 362/113/3 173/113/3 104/113/3 106/114/3
f 541/115/18 542/116/18 573/116/18 574/115/18
f 144/117/15 37/118/15 32/111/15 58/119/15
f 534/120/6 535/121/6 568/121/6 565/120/6
f 101/122/10 33/123/10 8/124/10 153/125/10
f 84/126/3 76/127/3 492/127/3 493/126/3
f 180/69/1 367/69/1 358/70/1 170/70/1 172/70/1 72/69/1
f 71/128/6 75/129/6 489/129/6 486/128/6
f 189/43/18 356/43/18 348/44/18 192/44/18 83/44/18 190/43/18
f 3/30/19 1/42/19 2/130/19 4/31/19
f 33/131/20 34/132/20 6/60/20 8/74/20
f 35/133/21 36/134/21 14/87/21 16/106/21
f 11/93/22 9/135/22 10/136/22 12/94/22
f 37/137/23 38/138/23 30/19/23 32/111/23
f 27/81/24 25/14/24 26/13/24 28/139/24
f 39/140/25 40/141/25 22/39/25 24/109/25
f 19/5/26 17/53/26 18/142/26 20/6/26
f 4/75/18 6/60/18 159/59/18 69/143/18
f 160/144/11 93/145/11 163/146/11 158/147/11
f 61/148/12 153/125/12 8/124/12 2/149/12
f 154/150/9 10/136/9 9/135/9 155/151/9
f 12/104/3 14/87/3 57/86/3 140/152/3
f 143/153/15 99/154/15 145/155/15 142/156/15
f 154/157/18 162/158/18 16/106/18 10/105/18
f 77/159/14 18/108/14 17/53/14 165/52/14
f 20/160/12 22/39/12 150/161/12 63/162/12
f 152/163/10 100/164/10 504/165/10 502/166/10
f 77/159/1 169/167/1 24/109/1 18/108/1
f 111/168/27 86/169/27 400/169/27 406/168/27
f 28/82/1 30/19/1 81/18/1 78/170/1
f 95/46/5 96/171/5 477/172/5 475/173/5
f 135/174/3 58/119/3 32/111/3 26/175/3
f 1/42/2 146/176/2 61/177/2 2/130/2
f 9/135/6 11/93/6 139/92/6 128/178/6 155/179/6
f 5/180/8 73/181/8 92/182/8 34/183/8
f 21/184/3 337/184/3 364/185/3 177/185/3 176/186/3
f 202/187/12 377/187/12 368/188/12 181/188/12 184/189/12 198/190/12
f 5/180/1 331/180/1 366/181/1 179/181/1 73/181/1
f 29/191/8 82/192/8 94/193/8 38/16/8
f 23/194/16 336/194/16 337/184/16 21/184/16
f 97/195/5 39/196/5 24/109/5 169/167/5
f 31/197/13 334/197/13 335/191/13 29/191/13
f 91/198/8 106/199/8 104/113/8 100/200/8
f 89/201/8 91/198/8 100/202/8 152/203/8
f 193/204/18 346/204/18 336/194/18 23/194/18 191/204/18
f 191/204/8 23/194/8 39/196/8 97/195/8
f 7/205/8 5/180/8 34/183/8 33/206/8
f 15/24/8 13/25/8 36/207/8 35/27/8
f 31/197/8 29/191/8 38/16/8 37/208/8
f 23/194/8 21/184/8 40/209/8 39/196/8
f 171/26/1 359/26/1 332/24/1 15/24/1 74/210/1
f 13/25/12 333/25/12 372/211/12 186/211/12 185/212/12
f 183/213/8 31/197/8 37/208/8 144/214/8
f 161/215/11 35/216/11 16/106/11 162/217/11
f 103/218/8 7/205/8 33/206/8 101/219/8
f 182/213/12 369/213/12 334/197/12 31/197/12 183/213/12
f 21/184/8 176/185/8 151/220/8 40/209/8
f 41/221/8 425/222/8 424/223/8 428/224/8
f 428/224/18 424/223/18 442/225/18 453/224/18
f 423/226/12 433/227/12 446/227/12 444/226/12
f 425/230/8 434/231/8 433/227/8 423/226/8
f 42/232/8 41/233/8 429/234/8 437/235/8
f 434/236/8 42/237/8 438/2/8 432/3/8
f 87/238/8 198/239/8 184/240/8 99/241/8
f 107/242/8 89/243/8 152/244/8 175/245/8
f 194/246/8 87/247/8 99/248/8 143/249/8
f 108/250/12 105/251/12 404/251/12 405/250/12
f 109/252/8 194/253/8 143/254/8 102/255/8
f 178/256/3 365/256/3 370/257/3 203/257/3 107/242/3 175/245/3
f 174/218/3 363/218/3 330/205/3 7/205/3 103/258/3
f 119/259/8 120/260/8 126/261/8
f 13/25/8 185/211/8 98/262/8 36/207/8
f 122/263/8 43/264/8 207/265/8 116/266/8 209/267/8 115/268/8 126/261/8 120/269/8
f 120/260/8 119/259/8 125/270/8 124/271/8 113/272/8 114/273/8 208/274/8 112/275/8 118/276/8 121/277/8 44/278/8
f 121/277/8 117/279/8 123/280/8 122/281/8
f 118/276/8 117/279/8 121/282/8
f 312/204/3 347/204/3 346/204/3 193/204/3 191/204/3
f 156/61/6 127/283/6 47/284/6 157/285/6
f 203/257/28 370/257/28 371/257/28 326/242/28 107/242/28
f 29/191/18 335/191/18 355/192/18 188/192/18 82/286/18
f 188/192/12 355/192/12 354/192/12 311/286/12 82/286/12
f 300/258/1 384/218/1 363/218/1 174/218/1 103/258/1
f 96/45/12 83/44/12 313/44/12 294/45/12
f 474/287/3 163/288/3 281/288/3 266/287/3
f 191/204/3 97/195/3 295/195/3 312/204/3
f 473/63/12 157/62/12 270/62/12 273/63/12
f 398/76/29 201/79/29 380/79/29 393/79/29 328/76/29
f 172/70/3 170/70/3 358/70/3 381/70/3 299/70/3
f 200/78/31 196/77/31 323/77/31 392/78/31 379/78/31
f 123/280/18 117/279/18 340/279/18 339/280/18
f 325/114/32 351/112/32 350/112/32 206/112/32 106/114/32
f 109/67/33 199/66/33 378/66/33 391/66/33 322/67/33
f 162/158/12 154/157/12 267/157/12 280/158/12
f 190/43/3 95/46/3 293/46/3 310/43/3
f 158/147/12 473/289/12 273/289/12 274/147/12
f 94/193/12 82/192/12 311/192/12 292/193/12
f 68/29/3 69/32/3 272/32/3 271/29/3
f 69/143/3 159/59/3 275/59/3 272/143/3
f 93/71/3 172/70/3 299/70/3 278/71/3
f 165/52/3 133/51/3 232/51/3 284/52/3
f 74/26/12 161/28/12 279/28/12 298/26/12
f 156/61/3 474/64/3 266/64/3 269/61/3
f 132/99/12 166/88/12 285/88/12 231/99/12
f 72/69/12 160/72/12 277/72/12 304/69/12
f 129/40/3 68/29/3 271/29/3 222/40/3
f 92/182/3 73/181/3 305/181/3 276/182/3
f 154/150/12 155/151/12 268/151/12 267/150/12
f 157/285/12 47/284/12 223/284/12 270/285/12
f 100/200/18 104/113/18 301/113/18 262/200/18
f 147/22/1 52/21/1 233/21/1 254/22/1
f 103/218/1 101/219/1 263/219/1 300/218/1
f 504/165/18 100/164/18 262/164/18 265/165/18
f 133/51/18 148/54/18 255/54/18 232/51/18
f 175/245/1 152/244/1 261/244/1 302/245/1
f 49/20/18 62/23/18 253/23/18 225/20/18
f 151/220/18 176/185/18 303/185/18 260/220/18
f 101/122/1 153/125/1 264/125/1 263/122/1
f 146/41/1 129/40/1 222/40/1 252/41/1
f 99/241/1 184/240/1 307/240/1 246/241/1
f 503/290/18 504/165/18 265/165/18 250/290/18
f 183/213/18 144/214/18 247/214/18 306/213/18
f 152/163/1 502/166/1 258/166/1 261/163/1
f 153/125/1 61/148/1 251/148/1 264/125/1
f 102/255/18 143/254/18 245/254/18 308/255/18
f 502/166/1 149/291/1 257/291/1 258/166/1
f 98/262/1 185/211/1 309/211/1 244/262/1
f 150/38/18 151/37/18 260/37/18 259/38/18
f 63/162/18 150/161/18 259/161/18 256/162/18
f 83/44/12 192/44/12 348/44/12 349/44/12 313/44/12
f 155/179/12 128/178/12 220/178/12 268/179/12
f 149/34/1 147/33/1 254/33/1 257/34/1
f 127/283/3 156/61/3 269/61/3 219/283/3
f 134/292/1 145/155/1 249/155/1 234/292/1
f 148/4/18 63/7/18 256/7/18 255/4/18
f 197/10/34 205/9/34 352/9/34 353/9/34 324/10/34
f 58/119/18 135/174/18 235/174/18 248/119/18
f 310/43/3 357/43/3 356/43/3 189/43/3 190/43/3
f 376/187/35 377/187/35 202/187/35 198/190/35 329/190/35
f 142/156/18 141/293/18 241/293/18 242/156/18
f 62/23/18 503/35/18 250/35/18 253/23/18
f 140/152/1 57/86/1 243/86/1 240/152/1
f 204/8/36 397/11/36 327/11/36 361/8/36 360/8/36
f 51/97/12 168/96/12 287/96/12 226/97/12
f 61/177/1 146/176/1 252/176/1 251/177/1
f 184/189/1 181/188/1 368/188/1 389/188/1 307/189/1
f 167/89/3 50/98/3 227/98/3 286/89/3
f 185/212/1 186/211/1 372/211/1 374/211/1 309/212/1
f 131/55/1 137/47/1 237/47/1 229/55/1
f 145/155/1 99/154/1 246/154/1 249/155/1
f 136/15/18 51/97/18 226/97/18 236/15/18
f 187/65/18 102/68/18 308/68/18 375/65/18 373/65/18
f 182/213/18 183/213/18 306/213/18 390/213/18 369/213/18
f 43/264/8 122/263/8 123/280/8
f 171/26/12 74/210/12 298/210/12 382/26/12 359/26/12
f 78/170/12 81/18/12 291/18/12 288/170/12
f 159/59/3 92/58/3 276/58/3 275/59/3
f 475/173/3 476/90/3 289/90/3 290/173/3
f 195/294/3 394/295/3 316/295/3 315/294/3
f 169/167/3 77/159/3 283/159/3 296/167/3
f 425/230/44 41/221/44 211/221/44 210/230/44
f 160/144/12 158/147/12 274/147/12 277/144/12
f 46/100/18 48/103/18 224/103/18 218/100/18
f 164/91/12 477/172/12 297/172/12 282/91/12
f 42/232/45 434/236/45 212/236/45 213/232/45
f 87/247/12 194/246/12 314/246/12 317/247/12
f 47/284/1 127/283/1 219/283/1 223/284/1
f 434/236/46 425/230/46 210/230/46 212/236/46
f 161/215/12 162/217/12 280/217/12 279/215/12
f 50/98/18 132/99/18 231/99/18 227/98/18
f 41/221/12 42/232/12 213/232/12 211/221/12
f 395/296/12 396/297/12 320/297/12 319/296/12
f 53/102/1 130/101/1 228/101/1 230/102/1
f 163/146/3 93/145/3 278/145/3 281/146/3
f 130/101/3 46/100/3 218/100/3 228/101/3
f 91/198/3 89/201/3 318/201/3 321/198/3
f 45/56/12 131/55/12 229/55/12 221/56/12
f 73/181/3 179/181/3 366/181/3 387/181/3 305/181/3
f 77/159/3 165/52/3 284/52/3 283/159/3
f 194/253/47 109/252/47 322/252/47 314/253/47
f 52/21/3 49/20/3 225/20/3 233/21/3
f 173/113/18 362/113/18 383/113/18 301/113/18 104/113/18
f 48/103/12 53/102/12 230/102/12 224/103/12
f 120/269/18 44/278/18 214/278/18 215/269/18
f 166/88/12 164/91/12 282/91/12 285/88/12
f 196/77/48 195/294/48 315/294/48 323/77/48
f 177/185/18 364/185/18 385/185/18 303/186/18 176/186/18
f 121/277/1 122/281/1 217/281/1 216/277/1
f 396/297/49 197/10/49 324/10/49 320/297/49
f 135/12/18 136/15/18 236/15/18 235/12/18
f 44/278/12 121/277/12 216/277/12 214/278/12
f 168/80/12 78/83/12 288/83/12 287/80/12
f 386/256/1 365/256/1 178/256/1 175/245/1 302/245/1
f 122/281/3 120/269/3 215/269/3 217/281/3
f 106/199/50 91/198/50 321/198/50 325/199/50
f 137/47/1 134/50/1 234/50/1 237/47/1
f 476/90/3 167/89/3 286/89/3 289/90/3
f 89/243/18 107/242/18 326/242/18 318/243/18
f 180/69/12 72/69/12 304/69/12 388/69/12 367/69/12
f 139/92/1 140/95/1 240/95/1 239/92/1
f 114/273/3 113/272/3 124/271/3 342/271/3 341/276/3 118/276/3 112/275/3 208/274/3
f 81/18/12 94/17/12 292/17/12 291/18/12
f 397/11/51 395/296/51 319/296/51 327/11/51
f 394/295/52 398/76/52 328/76/52 316/295/52
f 141/49/18 138/48/18 238/48/18 241/49/18
f 95/46/3 475/173/3 290/173/3 293/46/3
f 198/239/53 87/238/53 317/238/53 329/239/53
f 57/86/1 98/85/1 244/85/1 243/86/1
f 97/195/3 169/167/3 296/167/3 295/195/3
f 143/153/18 142/156/18 242/156/18 245/153/18
f 477/172/12 96/171/12 294/171/12 297/172/12
f 128/178/1 139/92/1 239/92/1 220/178/1
f 144/117/18 58/119/18 248/119/18 247/117/18
f 138/48/18 45/56/18 221/56/18 238/48/18
f 125/270/1 119/259/1 344/259/1 343/270/1
f 126/261/12 115/268/12 209/267/12 116/266/12 207/265/12 43/264/12 338/264/12 345/261/12
f 43/264/13 123/280/13 339/280/13 338/264/13
f 117/279/16 118/276/16 341/276/16 340/279/16
f 124/271/17 125/270/17 343/270/17 342/271/17
f 119/259/7 126/261/7 345/261/7 344/259/7
f 7/205/17 330/205/17 331/180/17 5/180/17
f 85/304/8 86/169/8 394/295/8 195/294/8
f 88/305/8 90/306/8 396/297/8 395/296/8
f 110/307/8 85/304/8 195/294/8 196/77/8
f 90/306/8 105/251/8 197/10/8 396/297/8
f 108/250/8 88/305/8 395/296/8 397/11/8
f 86/169/8 111/168/8 398/76/8 394/295/8
f 111/168/8 110/307/8 196/77/8 398/76/8
f 105/251/8 108/250/8 397/11/8 197/10/8
f 105/251/54 90/306/54 402/306/54 404/251/54
f 90/306/3 88/305/3 401/305/3 402/306/3
f 110/307/3 111/168/3 406/168/3 403/307/3
f 88/305/55 108/250/55 405/250/55 401/305/55
f 85/304/52 110/307/52 403/307/52 399/304/52
f 86/169/12 85/304/12 399/304/12 400/169/12
f 423/226/8 426/308/8 425/222/8
f 426/308/8 427/309/8 425/222/8
f 427/309/8 424/310/8 425/222/8
f 428/224/8 430/311/8 41/233/8
f 430/311/8 431/312/8 41/233/8
f 431/312/8 429/313/8 41/233/8
f 432/1/8 435/314/8 434/231/8
f 435/314/8 436/315/8 434/231/8
f 436/315/8 433/316/8 434/231/8
f 437/235/8 439/317/8 42/237/8
f 439/317/8 440/318/8 42/237/8
f 440/318/8 438/319/8 42/237/8
f 442/225/56 424/223/56 427/320/56 441/321/56
f 441/321/13 427/320/13 426/308/13 443/322/13
f 443/322/57 426/308/57 423/226/57 444/226/57
f 446/227/58 433/227/58 436/323/58 445/324/58
f 445/324/7 436/323/7 435/314/7 447/325/7
f 447/325/59 435/314/59 432/1/59 448/3/59
f 450/2/60 438/2/60 440/326/60 449/327/60
f 449/327/17 440/326/17 439/317/17 451/328/17
f 451/328/61 439/317/61 437/235/61 452/235/61
f 428/224/62 453/224/62 454/329/62 430/311/62
f 430/311/16 454/329/16 455/330/16 431/331/16
f 431/331/63 455/330/63 456/234/63 429/234/63
f 437/235/3 429/234/3 456/234/3 452/235/3
f 71/128/18 70/346/18 473/289/18 158/147/18
f 67/347/18 75/129/18 163/288/18 474/287/18
f 80/348/1 79/349/1 476/90/1 475/173/1
f 76/127/1 84/126/1 477/172/1 164/91/1
f 70/346/18 67/347/18 474/287/18 473/289/18
f 75/129/18 71/128/18 158/147/18 163/288/18
f 79/349/1 76/127/1 164/91/1 476/90/1
f 84/126/1 80/348/1 475/173/1 477/172/1
f 75/129/12 67/347/12 488/347/12 489/129/12
f 76/127/8 79/349/8 491/349/8 492/127/8
f 67/347/8 70/346/8 487/346/8 488/347/8
f 79/349/12 80/348/12 490/348/12 491/349/12
f 70/346/3 71/128/3 486/128/3 487/346/3
f 80/348/6 84/126/6 493/126/6 490/348/6
f 56/358/3 55/359/3 141/293/3 142/156/3
f 54/360/3 59/361/3 145/155/3 134/292/3
f 65/362/12 64/363/12 149/291/12 502/166/12
f 60/364/12 66/365/12 504/165/12 503/290/12
f 55/359/3 513/366/3 505/367/3 509/368/3 54/360/3 134/292/3 141/293/3
f 59/361/3 510/369/3 506/370/3 514/371/3 56/358/3 142/156/3 145/155/3
f 64/363/12 515/372/12 507/373/12 511/374/12 60/364/12 503/290/12 149/291/12
f 66/365/12 512/375/12 508/376/12 516/377/12 65/362/12 502/166/12 504/165/12
f 536/378/8 533/379/8 566/379/8 567/378/8
f 527/380/18 528/381/18 559/381/18 560/380/18
f 547/382/18 548/383/18 579/383/18 580/382/18
f 533/379/18 534/120/18 565/120/18 566/379/18
f 526/384/6 527/380/6 560/380/6 557/384/6
f 546/385/6 547/382/6 580/382/6 577/385/6
f 505/367/3 506/370/3 518/386/3 517/387/3
f 506/370/3 510/369/3 519/388/3 518/386/3
f 510/369/3 509/368/3 520/389/3 519/388/3
f 509/368/3 505/367/3 517/387/3 520/389/3
f 507/373/12 508/376/12 522/390/12 521/391/12
f 508/376/12 512/375/12 523/392/12 522/390/12
f 512/375/12 511/374/12 524/393/12 523/392/12
f 511/374/12 507/373/12 521/391/12 524/393/12
f 513/366/3 514/371/3 526/384/3 525/394/3
f 514/371/3 506/370/3 527/380/3 526/384/3
f 506/370/3 505/367/3 528/381/3 527/380/3
f 505/367/3 513/366/3 525/394/3 528/381/3
f 55/359/3 56/358/3 530/395/3 529/396/3
f 56/358/3 514/371/3 531/397/3 530/395/3
f 514/371/3 513/366/3 532/398/3 531/397/3
f 513/366/3 55/359/3 529/396/3 532/398/3
f 515/372/12 516/377/12 534/120/12 533/379/12
f 516/377/12 508/376/12 535/121/12 534/120/12
f 508/376/12 507/373/12 536/378/12 535/121/12
f 507/373/12 515/372/12 533/379/12 536/378/12
f 64/363/12 65/362/12 538/399/12 537/400/12
f 65/362/12 516/377/12 539/401/12 538/399/12
f 516/377/12 515/372/12 540/402/12 539/401/12
f 515/372/12 64/363/12 537/400/12 540/402/12
f 511/374/12 512/375/12 542/116/12 541/115/12
f 512/375/12 66/365/12 543/403/12 542/116/12
f 66/365/12 60/364/12 544/404/12 543/403/12
f 60/364/12 511/374/12 541/115/12 544/404/12
f 509/368/3 510/369/3 546/385/3 545/405/3
f 510/369/3 59/361/3 547/382/3 546/385/3
f 59/361/3 54/360/3 548/383/3 547/382/3
f 54/360/3 509/368/3 545/405/3 548/383/3
f 521/391/18 522/390/18 553/390/18 554/391/18
f 535/121/1 536/378/1 567/378/1 568/121/1
f 544/404/8 541/115/8 574/115/8 575/404/8
f 524/393/8 521/391/8 554/391/8 555/393/8
f 542/116/6 543/403/6 576/403/6 573/116/6
f 522/390/6 523/392/6 556/392/6 553/390/6
f 529/396/1 530/395/1 561/395/1 562/396/1
f 543/403/1 544/404/1 575/404/1 576/403/1
f 523/392/1 524/393/1 555/393/1 556/392/1
f 532/398/8 529/396/8 562/396/8 563/398/8
f 530/395/6 531/397/6 564/397/6 561/395/6
f 537/400/18 538/399/18 569/399/18 570/400/18
f 517/387/1 518/386/1 549/386/1 550/387/1
f 531/397/18 532/398/18 563/398/18 564/397/18
f 540/402/8 537/400/8 570/400/8 571/402/8
f 520/389/8 517/387/8 550/387/8 551/389/8
f 538/399/6 539/401/6 572/401/6 569/399/6
f 518/386/6 519/388/6 552/388/6 549/386/6
f 545/405/1 546/385/1 577/385/1 578/405/1
f 525/394/1 526/384/1 557/384/1 558/394/1
f 539/401/1 540/402/1 571/402/1 572/401/1
f 519/388/18 520/389/18 551/389/18 552/388/18
f 548/383/8 545/405/8 578/405/8 579/383/8
f 528/381/8 525/394/8 558/394/8 559/381/8
usemtl M_Noir_Profond
f 421/228/13 422/229/13 459/229/13 457/228/13
f 313/44/18 349/44/18 347/204/18 312/204/18
f 324/10/30 353/9/30 351/112/30 325/114/30
f 310/43/18 311/286/18 354/192/18 357/43/18
f 326/242/37 371/257/37 361/8/37 327/11/37
f 328/76/38 393/79/38 376/187/38 329/190/38
f 299/70/1 381/70/1 382/26/1 298/210/1
f 215/269/8 214/278/8 210/230/8 211/221/8
f 216/277/8 217/281/8 213/232/8 212/236/8
f 214/278/8 216/277/8 212/236/8 210/230/8
f 217/281/8 215/269/8 211/221/8 213/232/8
f 219/283/6 220/178/6 221/56/6 218/100/6
f 223/284/6 224/103/6 225/20/6 222/40/6
f 227/98/6 228/101/6 229/55/6 226/97/6
f 231/99/6 232/51/6 233/21/6 230/102/6
f 218/100/6 224/103/6 223/284/6 219/283/6
f 227/98/6 231/99/6 230/102/6 228/101/6
f 228/101/6 218/100/6 221/56/6 229/55/6
f 233/21/6 225/20/6 224/103/6 230/102/6
f 235/12/4 236/15/4 237/47/4 234/50/4
f 239/92/4 240/95/4 241/49/4 238/48/4
f 243/86/15 244/85/15 245/153/15 242/156/15
f 247/117/15 248/119/15 249/155/15 246/154/15
f 251/177/2 252/176/2 253/23/2 250/35/2
f 255/4/2 256/7/2 257/34/2 254/33/2
f 259/38/10 260/37/10 261/163/10 258/166/10
f 263/122/10 264/125/10 265/165/10 262/164/10
f 267/150/9 268/151/9 269/61/9 266/64/9
f 271/29/9 272/32/9 273/63/9 270/62/9
f 275/59/11 276/58/11 277/144/11 274/147/11
f 279/215/11 280/217/11 281/146/11 278/145/11
f 283/159/14 284/52/14 285/88/14 282/91/14
f 287/80/14 288/83/14 289/90/14 286/89/14
f 291/18/5 292/17/5 293/46/5 290/173/5
f 295/195/5 296/167/5 297/172/5 294/171/5
f 220/178/6 239/92/6 238/48/6 221/56/6
f 236/15/6 226/97/6 229/55/6 237/47/6
f 286/89/6 227/98/6 226/97/6 287/96/6
f 240/152/3 243/86/3 242/156/3 241/293/3
f 248/119/3 235/174/3 234/292/3 249/155/3
f 219/283/6 269/61/6 268/179/6 220/178/6
f 256/162/12 259/161/12 258/166/12 257/291/12
f 264/125/12 251/148/12 250/290/12 265/165/12
f 252/41/6 222/40/6 225/20/6 253/23/6
f 232/51/6 255/54/6 254/22/6 233/21/6
f 270/285/6 223/284/6 222/40/6 271/29/6
f 231/99/6 285/88/6 284/52/6 232/51/6
f 272/143/18 275/59/18 274/147/18 273/289/18
f 280/158/18 267/157/18 266/287/18 281/288/18
f 288/170/1 291/18/1 290/173/1 289/90/1
f 296/167/1 283/159/1 282/91/1 297/172/1
f 301/113/3 383/113/3 384/218/3 300/258/3
f 303/186/3 385/185/3 386/256/3 302/245/3
f 387/181/1 388/69/1 304/69/1 305/181/1
f 389/188/12 390/213/12 306/213/12 307/189/12
f 309/212/12 374/211/12 375/65/12 308/68/12
f 322/67/39 391/66/39 392/78/39 323/77/39
f 244/262/8 309/211/8 308/255/8 245/254/8
f 306/213/8 247/214/8 246/241/8 307/240/8
f 260/220/8 303/185/8 302/245/8 261/244/8
f 300/218/8 263/219/8 262/200/8 301/113/8
f 276/182/8 305/181/8 304/69/8 277/72/8
f 298/26/8 279/28/8 278/71/8 299/70/8
f 292/193/8 311/192/8 310/43/8 293/46/8
f 312/204/8 295/195/8 294/45/8 313/44/8
f 315/294/8 316/295/8 317/247/8 314/246/8
f 319/296/8 320/297/8 321/198/8 318/201/8
f 314/253/40 322/252/40 323/77/40 315/294/40
f 320/297/41 324/10/41 325/199/41 321/198/41
f 318/243/42 326/242/42 327/11/42 319/296/42
f 316/295/43 328/76/43 329/239/43 317/238/43
f 359/210/8 358/70/8 367/69/8 366/181/8 331/180/8 339/280/8 340/279/8 332/24/8
f 346/204/8 348/44/8 356/43/8 355/286/8 335/191/8 343/270/8 344/259/8 336/194/8
f 338/264/8 339/280/8 331/180/8 330/205/8
f 340/279/8 341/276/8 333/25/8 332/24/8
f 342/271/8 343/270/8 335/191/8 334/197/8
f 344/259/8 345/261/8 337/184/8 336/194/8
f 348/44/8 346/204/8 347/204/8 349/44/8
f 352/298/8 350/112/8 351/112/8 353/298/8
f 355/286/8 356/43/8 357/43/8 354/286/8
f 370/257/8 360/299/8 361/299/8 371/257/8
f 372/212/8 373/255/8 375/255/8 374/212/8
f 342/271/8 334/197/8 369/213/8 368/188/8 377/300/8 380/79/8 379/301/8 378/66/8 373/255/8 372/212/8 333/25/8 341/276/8
f 338/264/8 330/205/8 363/258/8 362/302/8 350/112/8 352/298/8 360/299/8 370/257/8 365/303/8 364/186/8 337/184/8 345/261/8
f 358/70/8 359/210/8 382/210/8 381/70/8
f 362/302/8 363/258/8 384/258/8 383/302/8
f 364/186/8 365/303/8 386/303/8 385/186/8
f 366/181/8 367/69/8 388/69/8 387/181/8
f 368/188/8 369/213/8 390/213/8 389/188/8
f 378/66/8 379/301/8 392/301/8 391/66/8
f 380/79/8 377/300/8 376/300/8 393/79/8
f 421/228/8 419/332/8 442/223/8 441/321/8
f 422/229/8 421/228/8 441/321/8 443/322/8
f 420/333/8 422/229/8 443/322/8 444/226/8
f 413/334/8 411/335/8 446/227/8 445/324/8
f 414/336/8 413/334/8 445/324/8 447/325/8
f 412/337/8 414/336/8 447/325/8 448/3/8
f 409/338/8 407/339/8 450/2/8 449/327/8
f 410/340/8 409/338/8 449/327/8 451/328/8
f 408/341/8 410/340/8 451/328/8 452/235/8
f 416/342/8 418/343/8 454/329/8 453/224/8
f 418/343/8 417/344/8 455/330/8 454/329/8
f 417/344/8 415/345/8 456/234/8 455/330/8
f 415/345/8 408/341/8 452/235/8 456/234/8
f 419/332/8 416/342/8 453/224/8 442/223/8
f 411/335/8 420/333/8 444/226/8 446/227/8
f 407/339/8 412/337/8 448/3/8 450/2/8
f 418/343/62 416/342/62 469/342/62 470/343/62
f 422/229/57 420/333/57 460/333/57 459/229/57
f 417/344/16 418/343/16 470/343/16 471/344/16
f 411/335/58 413/334/58 461/334/58 462/335/58
f 415/345/63 417/344/63 471/344/63 472/345/63
f 413/334/7 414/336/7 463/336/7 461/334/7
f 408/341/3 415/345/3 472/345/3 468/341/3
f 414/336/59 412/337/59 464/337/59 463/336/59
f 416/342/18 419/332/18 458/332/18 469/342/18
f 407/339/60 409/338/60 465/338/60 466/339/60
f 420/333/12 411/335/12 462/335/12 460/333/12
f 409/338/17 410/340/17 467/340/17 465/338/17
f 419/332/56 421/228/56 457/228/56 458/332/56
f 412/337/1 407/339/1 466/339/1 464/337/1
f 410/340/61 408/341/61 468/341/61 467/340/61
f 480/350/8 479/351/8 495/351/8 496/350/8
f 484/352/8 483/353/8 499/353/8 500/352/8
f 478/354/18 479/351/18 487/346/18 486/128/18
f 480/350/18 481/355/18 489/129/18 488/347/18
f 482/356/1 483/353/1 491/349/1 490/348/1
f 484/352/1 485/357/1 493/126/1 492/127/1
f 479/351/18 480/350/18 488/347/18 487/346/18
f 481/355/18 478/354/18 486/128/18 489/129/18
f 483/353/1 484/352/1 492/127/1 491/349/1
f 485/357/1 482/356/1 490/348/1 493/126/1
f 483/353/12 482/356/12 498/356/12 499/353/12
f 479/351/3 478/354/3 494/354/3 495/351/3
f 482/356/6 485/357/6 501/357/6 498/356/6
f 478/354/6 481/355/6 497/355/6 494/354/6
f 485/357/3 484/352/3 500/352/3 501/357/3
f 481/355/12 480/350/12 496/350/12 497/355/12
f 562/396/3 561/395/3 564/397/3 563/398/3
f 570/400/12 569/399/12 572/401/12 571/402/12
usemtl M_Orange
f 406/168/8 400/169/8 399/304/8 403/307/8
f 404/251/8 402/306/8 401/305/8 405/250/8
usemtl M_Cyan
f 472/345/8 471/344/8 470/343/8 469/342/8 458/332/8 457/228/8 459/229/8 460/333/8 462/335/8 461/334/8 463/336/8 464/337/8 466/339/8 465/338/8 467/340/8 468/341/8
f 495/351/18 494/354/18 497/355/18 496/350/18
f 499/353/1 498/356/1 501/357/1 500/352/1
f 550/387/3 549/386/3 552/388/3 551/389/3
f 554/391/12 553/390/12 556/392/12 555/393/12
f 558/394/3 557/384/3 560/380/3 559/381/3
f 566/379/12 565/120/12 568/121/12 567/378/12
f 574/115/12 573/116/12 576/403/12 575/404/12
f 578/405/3 577/385/3 580/382/3 579/383/3
