# Blender 4.2.3 LTS
# www.blender.org
mtllib SM_Tabletop_Control_Terminal.mtl
o SM_Tabletop_Control_Terminal
v -0.057334 0.183474 0.110000
v -0.047322 0.200000 0.101621
v -0.057334 0.183474 -0.110000
v -0.047322 0.200000 -0.101621
v 0.016984 0.070165 -0.110000
v 0.027094 0.070165 -0.101621
v 0.027094 0.070165 0.101621
v 0.011499 0.063351 0.110000
v -0.073474 0.022160 0.110000
v -0.067840 0.016526 0.110000
v -0.090000 0.010349 0.101621
v -0.079651 0.000000 0.101621
v -0.070945 0.191991 0.109630
v -0.073474 0.177840 0.110000
v -0.078636 0.199630 0.101991
v -0.090000 0.189651 0.101621
v -0.067840 0.016526 -0.110000
v -0.073474 0.022160 -0.110000
v -0.079651 0.000000 -0.101621
v -0.090000 0.010349 -0.101621
v -0.073474 0.177840 -0.110000
v -0.070945 0.191991 -0.109630
v -0.090000 0.189651 -0.101621
v -0.078636 0.199630 -0.101991
v 0.066466 0.016526 0.110000
v 0.080736 0.018997 0.109657
v 0.079515 0.000000 0.101621
v 0.089604 0.011253 0.101964
v 0.080736 0.018997 -0.109657
v 0.066466 0.016526 -0.110000
v 0.089604 0.011253 -0.101964
v 0.079515 0.000000 -0.101621
v 0.070116 0.053693 -0.109533
v 0.080670 0.040676 -0.109612
v 0.079771 0.053467 -0.101621
v 0.089643 0.040442 -0.102009
v 0.089643 0.040442 0.102009
v 0.079597 0.053261 0.102088
v 0.080670 0.040676 0.109612
v 0.070116 0.053693 0.109533
v -0.046266 0.198157 -0.075497
v -0.047322 0.200000 -0.079849
v -0.049447 0.200000 -0.075497
v -0.046266 0.198157 0.075497
v -0.049447 0.200000 0.075497
v -0.047322 0.200000 0.079849
v 0.026038 0.072008 -0.075497
v 0.029535 0.069391 -0.077621
v 0.027094 0.070165 -0.079942
v 0.027094 0.070165 0.079942
v 0.029535 0.069391 0.077621
v 0.026038 0.072008 0.075497
v -0.090000 0.010298 -0.075497
v -0.090000 0.010303 -0.079800
v -0.079697 0.000000 -0.079805
v -0.079702 0.000000 -0.075497
v -0.079702 0.000000 0.075497
v -0.079697 0.000000 0.079805
v -0.090000 0.010303 0.079800
v -0.090000 0.010298 0.075497
v -0.090000 0.189702 0.075497
v -0.090000 0.189697 0.079814
v -0.079697 0.200000 0.079828
v -0.079702 0.200000 0.075497
v -0.079702 0.200000 -0.075497
v -0.079697 0.200000 -0.079828
v -0.090000 0.189697 -0.079814
v -0.090000 0.189702 -0.075497
v 0.090000 0.010235 0.075497
v 0.090000 0.010239 0.079828
v 0.079570 0.000000 0.079814
v 0.079576 0.000000 0.075497
v 0.079576 0.000000 -0.075497
v 0.079570 0.000000 -0.079814
v 0.090000 0.010239 -0.079828
v 0.090000 0.010235 -0.075497
v 0.090000 0.040558 -0.075497
v 0.090000 0.040558 -0.079849
v 0.079840 0.053445 -0.079878
v 0.077405 0.054217 -0.077621
v 0.081162 0.051774 -0.075497
v 0.077405 0.054217 0.077621
v 0.079840 0.053445 0.079878
v 0.081162 0.051774 0.075497
v 0.090000 0.040558 0.079849
v 0.090000 0.040558 0.075497
v -0.038616 0.184810 -0.075497
v -0.039054 0.185574 -0.079878
v 0.018826 0.084591 -0.079942
v 0.018388 0.085354 -0.075497
v -0.039054 0.185574 0.079878
v -0.038616 0.184810 0.075497
v 0.018388 0.085354 0.075497
v 0.018826 0.084591 0.079942
v 0.031722 0.068698 -0.079899
v 0.031290 0.068835 -0.084332
v 0.075210 0.054912 -0.079899
v 0.075630 0.054780 -0.084320
v 0.075210 0.054912 0.079899
v 0.075630 0.054780 0.084320
v 0.031722 0.068698 0.079899
v 0.031290 0.068835 0.084332
v -0.036427 0.180991 0.079899
v -0.036865 0.181755 0.084320
v 0.016199 0.089173 0.079899
v 0.016637 0.088410 0.084332
v -0.036427 0.180991 -0.079899
v -0.036865 0.181755 -0.084320
v 0.016199 0.089173 -0.079899
v 0.016637 0.088410 -0.084332
v -0.051177 0.194442 -0.075854
v -0.050227 0.193892 -0.075854
v -0.050469 0.194574 -0.080281
v -0.050469 0.194574 0.080281
v -0.050227 0.193892 0.075854
v -0.051177 0.194442 0.075854
v 0.023805 0.065254 -0.079490
v 0.021911 0.067986 -0.075288
v 0.026968 0.064322 -0.077204
v 0.021911 0.067986 0.075288
v 0.023805 0.065254 0.079490
v 0.026968 0.064322 0.077204
v 0.077475 0.047418 -0.075664
v 0.076890 0.048456 -0.080252
v 0.075013 0.049091 -0.077956
v 0.077475 0.047418 0.075664
v 0.075013 0.049091 0.077956
v 0.076890 0.048456 0.080252
v 0.013961 0.081803 -0.079942
v 0.013524 0.082566 -0.075497
v 0.013524 0.082566 0.075497
v 0.013961 0.081803 0.079942
v -0.084394 0.012622 -0.075495
v -0.084393 0.012624 -0.079798
v -0.077376 0.005607 -0.079802
v -0.077378 0.005606 -0.075495
v -0.077378 0.005606 0.075495
v -0.077376 0.005607 0.079802
v -0.084393 0.012624 0.079798
v -0.084394 0.012622 0.075495
v -0.084394 0.187378 0.075495
v -0.084393 0.187375 0.079811
v -0.077377 0.194392 0.079826
v -0.077378 0.194394 0.075495
v -0.077378 0.194394 -0.075495
v -0.077377 0.194392 -0.079826
v -0.084393 0.187375 -0.079811
v -0.084394 0.187378 -0.075495
v 0.084394 0.012589 0.075494
v 0.084392 0.012589 0.079825
v 0.077279 0.005607 0.079811
v 0.077282 0.005606 0.075494
v 0.077282 0.005606 -0.075494
v 0.077279 0.005607 -0.079811
v 0.084392 0.012589 -0.079825
v 0.084394 0.012589 -0.075494
v 0.084393 0.038614 -0.075496
v 0.084394 0.038613 -0.079848
v 0.084394 0.038613 0.079848
v 0.084393 0.038614 0.075496
v -0.043480 0.182022 -0.075497
v -0.043918 0.182786 -0.079878
v -0.043918 0.182786 0.079878
v -0.043480 0.182022 0.075497
v 0.029596 0.063490 -0.084332
v 0.030028 0.063353 -0.079899
v 0.073516 0.049568 -0.079899
v 0.073935 0.049435 -0.084320
v 0.030028 0.063353 0.079899
v 0.029596 0.063490 0.084332
v 0.073935 0.049435 0.084320
v 0.073516 0.049568 0.079899
v -0.041292 0.178203 0.079899
v -0.041729 0.178967 0.084320
v 0.011772 0.085622 0.084332
v 0.011335 0.086385 0.079899
v -0.041729 0.178967 -0.084320
v -0.041292 0.178203 -0.079899
v 0.011335 0.086385 -0.079899
v 0.011772 0.085622 -0.084332
v -0.036700 0.181468 -0.071644
v -0.036700 0.181468 0.071644
v 0.016472 0.088697 0.071644
v 0.016472 0.088697 -0.071644
v -0.040312 0.179397 0.071644
v -0.040312 0.179397 -0.071644
v 0.012860 0.086627 -0.071644
v 0.012860 0.086627 0.071644
v -0.038912 0.176955 -0.068829
v -0.038912 0.176955 0.068829
v 0.011460 0.089069 0.068829
v 0.011460 0.089069 -0.068829
v -0.040608 0.175983 0.068829
v -0.040608 0.175983 -0.068829
v 0.009764 0.088097 -0.068829
v 0.009764 0.088097 0.068829
v 0.029535 0.069391 0.000000
v 0.077405 0.054217 0.000000
v 0.053470 0.061804 -0.077621
v 0.053470 0.061804 0.077621
v 0.053470 0.061804 0.000000
v 0.029535 0.069391 -0.038811
v 0.077405 0.054217 0.038811
v 0.041502 0.065598 -0.077621
v 0.065437 0.058010 0.077621
v 0.029535 0.069391 0.038811
v 0.077405 0.054217 -0.038811
v 0.065437 0.058010 -0.077621
v 0.041502 0.065598 0.077621
v 0.053470 0.061804 0.038811
v 0.053470 0.061804 -0.038811
v 0.065437 0.058010 0.000000
v 0.041502 0.065598 0.000000
v 0.041502 0.065598 -0.038811
v 0.065437 0.058010 -0.038811
v 0.065437 0.058010 0.038811
v 0.041502 0.065598 0.038811
v 0.029535 0.069391 -0.058216
v 0.077405 0.054217 0.058216
v 0.035518 0.067494 -0.077621
v 0.071421 0.056114 0.077621
v 0.029535 0.069391 0.019405
v 0.077405 0.054217 -0.019405
v 0.059453 0.059907 -0.077621
v 0.047486 0.063701 0.077621
v 0.053470 0.061804 0.058216
v 0.053470 0.061804 -0.019405
v 0.071421 0.056114 0.000000
v 0.047486 0.063701 0.000000
v 0.029535 0.069391 -0.019405
v 0.077405 0.054217 0.019405
v 0.047486 0.063701 -0.077621
v 0.059453 0.059907 0.077621
v 0.029535 0.069391 0.058216
v 0.077405 0.054217 -0.058216
v 0.071421 0.056114 -0.077621
v 0.035518 0.067494 0.077621
v 0.053470 0.061804 0.019405
v 0.053470 0.061804 -0.058216
v 0.059453 0.059907 0.000000
v 0.035518 0.067494 0.000000
v 0.041502 0.065598 -0.019405
v 0.041502 0.065598 -0.058216
v 0.047486 0.063701 -0.038811
v 0.035518 0.067494 -0.038811
v 0.065437 0.058010 -0.019405
v 0.065437 0.058010 -0.058216
v 0.071421 0.056114 -0.038811
v 0.059453 0.059907 -0.038811
v 0.065437 0.058010 0.058216
v 0.065437 0.058010 0.019405
v 0.071421 0.056114 0.038811
v 0.059453 0.059907 0.038811
v 0.041502 0.065598 0.058216
v 0.041502 0.065598 0.019405
v 0.047486 0.063701 0.038811
v 0.035518 0.067494 0.038811
v 0.035518 0.067494 0.019405
v 0.047486 0.063701 0.019405
v 0.047486 0.063701 0.058216
v 0.059453 0.059907 0.019405
v 0.071421 0.056114 0.019405
v 0.071421 0.056114 0.058216
v 0.059453 0.059907 -0.058216
v 0.071421 0.056114 -0.058216
v 0.071421 0.056114 -0.019405
v 0.035518 0.067494 -0.058216
v 0.047486 0.063701 -0.058216
v 0.047486 0.063701 -0.019405
v 0.035518 0.067494 -0.019405
v 0.059453 0.059907 -0.019405
v 0.059453 0.059907 0.058216
v 0.035518 0.067494 0.058216
v 0.058543 0.060196 -0.057261
v 0.054380 0.061515 -0.057261
v 0.054380 0.061515 -0.039766
v 0.058543 0.060196 -0.039766
v 0.052559 0.062093 0.059171
v 0.048396 0.063412 0.059171
v 0.048396 0.063412 0.076666
v 0.052559 0.062093 0.076666
v 0.046575 0.063989 0.039766
v 0.042413 0.065309 0.039766
v 0.042413 0.065309 0.057261
v 0.046575 0.063989 0.057261
v 0.064527 0.058299 0.020361
v 0.060364 0.059619 0.020361
v 0.060364 0.059619 0.037856
v 0.064527 0.058299 0.037856
v 0.058543 0.060196 0.000955
v 0.054380 0.061515 0.000955
v 0.054380 0.061515 0.018450
v 0.058543 0.060196 0.018450
v 0.064527 0.058299 -0.057261
v 0.060364 0.059619 -0.057261
v 0.060364 0.059619 -0.039766
v 0.064527 0.058299 -0.039766
v 0.070510 0.056402 -0.076666
v 0.066348 0.057722 -0.076666
v 0.066348 0.057722 -0.059171
v 0.070510 0.056402 -0.059171
v 0.076494 0.054505 -0.018450
v 0.072331 0.055825 -0.018450
v 0.072331 0.055825 -0.000955
v 0.076494 0.054505 -0.000955
v 0.046575 0.063989 -0.076666
v 0.042413 0.065309 -0.076666
v 0.042413 0.065309 -0.059171
v 0.046575 0.063989 -0.059171
v 0.040592 0.065886 -0.018450
v 0.036429 0.067206 -0.018450
v 0.036429 0.067206 -0.000955
v 0.040592 0.065886 -0.000955
v 0.040592 0.065886 -0.037856
v 0.036429 0.067206 -0.037856
v 0.036429 0.067206 -0.020361
v 0.040592 0.065886 -0.020361
v 0.040592 0.065886 0.039766
v 0.036429 0.067206 0.039766
v 0.036429 0.067206 0.057261
v 0.040592 0.065886 0.057261
v 0.054259 0.061135 -0.057261
v 0.058422 0.059815 -0.057261
v 0.058422 0.059815 -0.039766
v 0.054259 0.061135 -0.039766
v 0.048276 0.063032 0.059171
v 0.052438 0.061712 0.059171
v 0.052438 0.061712 0.076666
v 0.048276 0.063032 0.076666
v 0.042292 0.064929 0.039766
v 0.046455 0.063609 0.039766
v 0.046455 0.063609 0.057261
v 0.042292 0.064929 0.057261
v 0.060243 0.059238 0.020361
v 0.064406 0.057919 0.020361
v 0.064406 0.057919 0.037856
v 0.060243 0.059238 0.037856
v 0.054259 0.061135 0.000955
v 0.058422 0.059815 0.000955
v 0.058422 0.059815 0.018450
v 0.054259 0.061135 0.018450
v 0.060243 0.059238 -0.057261
v 0.064406 0.057919 -0.057261
v 0.064406 0.057919 -0.039766
v 0.060243 0.059238 -0.039766
v 0.070390 0.056022 -0.076666
v 0.066227 0.057341 -0.076666
v 0.070390 0.056022 -0.059171
v 0.066227 0.057341 -0.059171
v 0.072211 0.055445 -0.018450
v 0.076373 0.054125 -0.018450
v 0.076373 0.054125 -0.000955
v 0.072211 0.055445 -0.000955
v 0.046455 0.063609 -0.076666
v 0.042292 0.064929 -0.076666
v 0.046455 0.063609 -0.059171
v 0.042292 0.064929 -0.059171
v 0.036308 0.066825 -0.018450
v 0.040471 0.065506 -0.018450
v 0.040471 0.065506 -0.000955
v 0.036308 0.066825 -0.000955
v 0.036308 0.066825 -0.037856
v 0.040471 0.065506 -0.037856
v 0.040471 0.065506 -0.020361
v 0.036308 0.066825 -0.020361
v 0.036308 0.066825 0.039766
v 0.040471 0.065506 0.039766
v 0.040471 0.065506 0.057261
v 0.036308 0.066825 0.057261
v 0.058592 0.060180 -0.018501
v 0.054331 0.061531 -0.018501
v 0.054331 0.061531 -0.000904
v 0.058592 0.060180 -0.000904
v 0.046624 0.063974 -0.057312
v 0.042364 0.065324 -0.057312
v 0.042364 0.065324 -0.039715
v 0.046624 0.063974 -0.039715
v 0.040640 0.065871 0.020309
v 0.036380 0.067221 0.020309
v 0.036380 0.067221 0.037907
v 0.040640 0.065871 0.037907
v 0.052608 0.062077 0.000904
v 0.048348 0.063428 0.000904
v 0.048348 0.063428 0.018501
v 0.052608 0.062077 0.018501
v 0.070559 0.056387 0.039715
v 0.066299 0.057737 0.039715
v 0.066299 0.057737 0.057312
v 0.070559 0.056387 0.057312
v 0.064575 0.058284 -0.076717
v 0.060315 0.059634 -0.076717
v 0.060315 0.059634 -0.059120
v 0.064575 0.058284 -0.059120
v 0.076543 0.054490 -0.037907
v 0.072283 0.055840 -0.037907
v 0.072283 0.055840 -0.020309
v 0.076543 0.054490 -0.020309
v 0.040640 0.065871 -0.057312
v 0.036380 0.067221 -0.057312
v 0.036380 0.067221 -0.039715
v 0.040640 0.065871 -0.039715
v 0.064575 0.058284 0.039715
v 0.060315 0.059634 0.039715
v 0.060315 0.059634 0.057312
v 0.064575 0.058284 0.057312
v 0.040640 0.065871 0.059120
v 0.036380 0.067221 0.059120
v 0.036380 0.067221 0.076717
v 0.040640 0.065871 0.076717
v 0.054188 0.061077 -0.018501
v 0.058448 0.059727 -0.018501
v 0.058448 0.059727 -0.000904
v 0.054188 0.061077 -0.000904
v 0.042220 0.064871 -0.057312
v 0.046480 0.063521 -0.057312
v 0.046480 0.063521 -0.039715
v 0.042220 0.064871 -0.039715
v 0.036236 0.066768 0.020309
v 0.040497 0.065417 0.020309
v 0.040497 0.065417 0.037907
v 0.036236 0.066768 0.037907
v 0.048204 0.062974 0.000904
v 0.052464 0.061624 0.000904
v 0.052464 0.061624 0.018501
v 0.048204 0.062974 0.018501
v 0.066155 0.057284 0.039715
v 0.070415 0.055933 0.039715
v 0.070415 0.055933 0.057312
v 0.066155 0.057284 0.057312
v 0.064432 0.057830 -0.076717
v 0.060171 0.059181 -0.076717
v 0.064432 0.057830 -0.059120
v 0.060171 0.059181 -0.059120
v 0.072139 0.055387 -0.037907
v 0.076399 0.054037 -0.037907
v 0.076399 0.054037 -0.020309
v 0.072139 0.055387 -0.020309
v 0.036236 0.066768 -0.057312
v 0.040497 0.065417 -0.057312
v 0.040497 0.065417 -0.039715
v 0.036236 0.066768 -0.039715
v 0.060171 0.059181 0.039715
v 0.064432 0.057830 0.039715
v 0.064432 0.057830 0.057312
v 0.060171 0.059181 0.057312
v 0.036236 0.066768 0.059120
v 0.040497 0.065417 0.059120
v 0.040497 0.065417 0.076717
v 0.036236 0.066768 0.076717
v 0.058529 0.060200 0.059186
v 0.054394 0.061511 0.059186
v 0.054394 0.061511 0.076652
v 0.058529 0.060200 0.076652
v 0.070496 0.056407 -0.057246
v 0.066362 0.057717 -0.057246
v 0.066362 0.057717 -0.039780
v 0.070496 0.056407 -0.039780
v 0.040578 0.065891 0.000970
v 0.036443 0.067201 0.000970
v 0.036443 0.067201 0.018436
v 0.040578 0.065891 0.018436
v 0.034594 0.067787 0.000970
v 0.030459 0.069098 0.000970
v 0.030459 0.069098 0.018436
v 0.034594 0.067787 0.018436
v 0.052545 0.062097 0.020375
v 0.048410 0.063408 0.020375
v 0.048410 0.063408 0.037841
v 0.052545 0.062097 0.037841
v 0.064513 0.058303 0.000970
v 0.060378 0.059614 0.000970
v 0.060378 0.059614 0.018436
v 0.064513 0.058303 0.018436
v 0.076480 0.054510 0.020375
v 0.072345 0.055821 0.020375
v 0.072345 0.055821 0.037841
v 0.076480 0.054510 0.037841
v 0.070496 0.056407 0.000970
v 0.066362 0.057717 0.000970
v 0.066362 0.057717 0.018436
v 0.070496 0.056407 0.018436
v 0.058529 0.060200 -0.076652
v 0.054394 0.061511 -0.076652
v 0.054394 0.061511 -0.059186
v 0.058529 0.060200 -0.059186
v 0.040578 0.065891 -0.076652
v 0.036443 0.067201 -0.076652
v 0.036443 0.067201 -0.059186
v 0.040578 0.065891 -0.059186
v 0.052545 0.062097 -0.037841
v 0.048410 0.063408 -0.037841
v 0.048410 0.063408 -0.020375
v 0.052545 0.062097 -0.020375
v 0.034594 0.067787 0.039780
v 0.030459 0.069098 0.039780
v 0.030459 0.069098 0.057246
v 0.034594 0.067787 0.057246
v 0.054266 0.061108 0.059186
v 0.058401 0.059797 0.059186
v 0.058401 0.059797 0.076652
v 0.054266 0.061108 0.076652
v 0.066234 0.057314 -0.057246
v 0.070369 0.056004 -0.057246
v 0.070369 0.056004 -0.039780
v 0.066234 0.057314 -0.039780
v 0.036315 0.066798 0.000970
v 0.040450 0.065488 0.000970
v 0.040450 0.065488 0.018436
v 0.036315 0.066798 0.018436
v 0.030331 0.068695 0.000970
v 0.034466 0.067385 0.000970
v 0.034466 0.067385 0.018436
v 0.030331 0.068695 0.018436
v 0.048283 0.063005 0.020375
v 0.052417 0.061694 0.020375
v 0.052417 0.061694 0.037841
v 0.048283 0.063005 0.037841
v 0.060250 0.059211 0.000970
v 0.064385 0.057901 0.000970
v 0.064385 0.057901 0.018436
v 0.060250 0.059211 0.018436
v 0.072218 0.055418 0.020375
v 0.076352 0.054107 0.020375
v 0.076352 0.054107 0.037841
v 0.072218 0.055418 0.037841
v 0.066234 0.057314 0.000970
v 0.070369 0.056004 0.000970
v 0.070369 0.056004 0.018436
v 0.066234 0.057314 0.018436
v 0.058401 0.059797 -0.076652
v 0.054266 0.061108 -0.076652
v 0.058401 0.059797 -0.059186
v 0.054266 0.061108 -0.059186
v 0.040450 0.065488 -0.076652
v 0.036315 0.066798 -0.076652
v 0.040450 0.065488 -0.059186
v 0.036315 0.066798 -0.059186
v 0.048283 0.063005 -0.037841
v 0.052417 0.061694 -0.037841
v 0.052417 0.061694 -0.020375
v 0.048283 0.063005 -0.020375
v 0.030331 0.068695 0.039780
v 0.034466 0.067385 0.039780
v 0.034466 0.067385 0.057246
v 0.030331 0.068695 0.057246
v 0.026885 0.069970 -0.102088
v -0.052424 0.191941 -0.109580
v 0.017192 0.070360 0.109533
v -0.047511 0.199680 0.102041
v 0.065136 0.046459 -0.110000
v 0.072171 0.037690 -0.110000
v 0.072171 0.037690 0.110000
v 0.065136 0.046459 0.110000
v -0.067840 0.183474 0.110000
v -0.079651 0.200000 0.101621
v 0.079597 0.053261 -0.102088
v 0.090000 0.040558 -0.101621
v 0.072189 0.022134 -0.110000
v 0.090000 0.010281 -0.101621
v 0.090000 0.040558 0.101621
v 0.079771 0.053467 0.101621
v 0.090000 0.010281 0.101621
v 0.072189 0.022134 0.110000
v -0.079651 0.200000 -0.101621
v -0.067840 0.183474 -0.110000
v -0.047511 0.199680 -0.102041
v 0.026885 0.069970 0.102088
v -0.052424 0.191941 0.109580
v 0.017192 0.070360 -0.109533
v -0.047658 0.199430 -0.101694
v -0.052566 0.191688 -0.109233
v -0.052566 0.191688 0.109233
v -0.047658 0.199430 0.101694
v 0.016947 0.070127 -0.109233
v 0.026699 0.069617 -0.101869
v 0.026699 0.069617 0.101869
v 0.016947 0.070127 0.109233
v 0.069944 0.053334 -0.109335
v 0.079366 0.052999 -0.101816
v 0.089366 0.040360 -0.101683
v 0.080399 0.040559 -0.109292
v 0.079366 0.052999 0.101816
v 0.069944 0.053334 0.109335
v 0.080399 0.040559 0.109292
v 0.089366 0.040360 0.101683
v -0.070945 0.191693 0.109328
v -0.078636 0.199332 0.101690
v 0.080460 0.018997 -0.109335
v 0.089328 0.011253 -0.101642
v 0.089328 0.011253 0.101642
v 0.080460 0.018997 0.109335
v -0.078636 0.199332 -0.101690
v -0.070945 0.191693 -0.109328
v -0.052612 0.191621 -0.110000
v 0.016984 0.070165 0.110000
v 0.069942 0.053487 -0.110000
v 0.080314 0.040558 -0.110000
v 0.080314 0.040558 0.110000
v 0.069942 0.053487 0.110000
v -0.081621 0.181215 0.110000
v -0.071215 0.191621 0.110000
v -0.081621 0.018785 -0.110000
v -0.071215 0.008379 -0.110000
v 0.069792 0.008379 -0.110000
v 0.080340 0.018715 -0.110000
v 0.080340 0.018715 0.110000
v 0.069792 0.008379 0.110000
v -0.071215 0.191621 -0.110000
v -0.081621 0.181215 -0.110000
v -0.071215 0.008379 0.110000
v -0.081621 0.018785 0.110000
v -0.052612 0.191621 0.110000
v 0.011499 0.063351 -0.110000
v 0.011499 0.063351 0.107379
v 0.011499 0.063351 -0.107379
v -0.058888 0.180793 -0.107379
v 0.063553 0.044146 -0.107379
v 0.069490 0.036746 -0.107379
v 0.069490 0.036746 0.107379
v 0.063553 0.044146 0.107379
v -0.070793 0.176730 0.107379
v -0.066730 0.180793 0.107379
v -0.070793 0.023270 -0.107379
v -0.066730 0.019207 -0.107379
v 0.065371 0.019207 -0.107379
v 0.069506 0.023259 -0.107379
v 0.069506 0.023259 0.107379
v 0.065371 0.019207 0.107379
v -0.066730 0.180793 -0.107379
v -0.070793 0.176730 -0.107379
v -0.066730 0.019207 0.107379
v -0.070793 0.023270 0.107379
v -0.058888 0.180793 0.107379
v -0.057334 0.183474 -0.107379
v 0.009693 0.061108 0.107379
v 0.065136 0.046459 -0.107379
v 0.072171 0.037690 -0.107379
v 0.072171 0.037690 0.107379
v 0.065136 0.046459 0.107379
v -0.073474 0.177840 0.107379
v -0.067840 0.183474 0.107379
v -0.073474 0.022160 -0.107379
v -0.067840 0.016526 -0.107379
v 0.066466 0.016526 -0.107379
v 0.072189 0.022134 -0.107379
v 0.072189 0.022134 0.107379
v 0.066466 0.016526 0.107379
v -0.067840 0.183474 -0.107379
v -0.073474 0.177840 -0.107379
v -0.067840 0.016526 0.107379
v -0.073474 0.022160 0.107379
v -0.057334 0.183474 0.107379
v 0.009693 0.061108 -0.107379
v 0.006877 0.057007 0.110845
v 0.006877 0.057007 -0.110845
v -0.060326 0.176731 -0.110845
v 0.059908 0.042333 -0.110845
v 0.065593 0.035901 -0.110845
v 0.065593 0.035901 0.110845
v 0.059908 0.042333 0.110845
v -0.068738 0.172840 0.110845
v -0.064847 0.176731 0.110845
v -0.068738 0.025892 -0.110845
v -0.064847 0.022001 -0.110845
v 0.061649 0.022001 -0.110845
v 0.065608 0.025881 -0.110845
v 0.065608 0.025881 0.110845
v 0.061649 0.022001 0.110845
v -0.064847 0.176731 -0.110845
v -0.068738 0.172840 -0.110845
v -0.064847 0.022001 0.110845
v -0.068738 0.025892 0.110845
v -0.060326 0.176731 0.110845
vn 0.7845 0.6201 -0.0009
vn 0.7003 -0.7138 -0.0016
vn -0.7071 -0.0000 0.7071
vn 0.4178 0.8348 -0.3586
vn -1.0000 -0.0000 -0.0000
vn -0.0000 1.0000 -0.0000
vn 0.7188 0.4116 -0.5603
vn -1.0000 -0.0000 0.0002
vn -0.7071 -0.7071 -0.0015
vn 0.8676 0.4973 -0.0000
vn 0.7006 -0.7135 -0.0000
vn 0.1770 0.5577 -0.8110
vn -0.7071 -0.7071 0.0015
vn -0.5464 -0.4363 0.7149
vn -0.0000 -0.7071 -0.7071
vn 0.1770 0.5577 0.8110
vn 0.4178 0.8348 0.3586
vn 0.7071 -0.7071 -0.0000
vn -0.3004 -0.9538 -0.0000
vn -0.0000 -0.7071 0.7071
vn -0.6999 0.7143 -0.0000
vn -0.0014 0.7625 0.6470
vn -0.5464 -0.4363 -0.7149
vn 0.7609 0.0009 0.6489
vn -0.7071 0.7071 0.0015
vn -0.0000 -1.0000 -0.0000
vn -0.7071 0.7071 -0.0015
vn 1.0000 -0.0000 -0.0000
vn 0.3022 0.9533 -0.0000
vn -0.4073 0.4073 0.8174
vn -0.4073 -0.4073 -0.8174
vn 0.8146 0.4128 -0.4074
vn 0.3836 -0.3914 -0.8364
vn -0.0014 0.7625 -0.6470
vn 0.3836 -0.3914 0.8364
vn -0.4073 0.4073 -0.8174
vn -0.4073 -0.4073 0.8174
vn -0.7071 0.7071 -0.0000
vn -0.7071 -0.7071 -0.0000
vn 0.7003 -0.7138 0.0016
vn 0.7854 0.6189 -0.0000
vn 0.4863 0.3950 -0.7794
vn 0.7609 0.0009 -0.6489
vn -0.6017 -0.3442 0.7208
vn 0.4863 0.3950 0.7794
vn 0.7845 0.6201 0.0009
vn -0.4973 0.8676 -0.0000
vn -0.3516 0.6135 -0.7071
vn 0.0003 0.0003 1.0000
vn -0.0000 0.0005 -1.0000
vn -0.0000 -0.0000 -1.0000
vn 0.0001 -0.0001 1.0000
vn 0.0001 -0.0005 1.0000
vn -0.0001 -0.0006 -1.0000
vn 0.0154 0.0037 0.9999
vn 0.0355 0.0061 0.9994
vn 0.0003 0.0003 -1.0000
vn -0.0361 -0.0090 -0.9993
vn -0.0433 -0.0103 -0.9990
vn -0.3512 0.6127 -0.7080
vn -0.7634 0.6460 -0.0000
vn -0.0433 -0.0103 0.9990
vn 0.3516 -0.6135 0.7071
vn -0.0001 -0.0006 1.0000
vn 0.9063 -0.4227 -0.0000
vn 0.3532 -0.6162 -0.7040
vn 0.0154 0.0037 -0.9999
vn 0.0355 0.0061 -0.9994
vn -0.3516 0.6135 0.7071
vn -0.8922 0.4517 -0.0000
vn -0.0361 -0.0090 0.9993
vn -0.0004 -0.0000 1.0000
vn -0.0000 -0.0000 1.0000
vn 0.6980 -0.7161 -0.0000
vn 0.0004 0.0008 -1.0000
vn -0.0123 -0.0145 0.9998
vn -0.0003 0.0003 -1.0000
vn -0.0004 -0.0000 -1.0000
vn 0.0001 -0.0001 -1.0000
vn 0.0268 0.0303 -0.9992
vn 0.0004 0.0008 1.0000
vn 0.0012 0.0005 1.0000
vn -0.0064 0.0314 0.9995
vn -0.6306 0.2283 0.7418
vn 0.0268 0.0303 0.9992
vn 0.0081 -0.0395 -0.9992
vn 0.6096 -0.2633 -0.7477
vn -0.0123 -0.0145 -0.9998
vn -0.0003 0.0003 1.0000
vn -0.0064 0.0314 -0.9995
vn 0.6936 -0.2490 0.6760
vn 0.4986 0.8604 0.1055
vn 0.4986 0.8604 -0.1055
vn 0.4733 0.8207 -0.3201
vn 0.4733 0.8207 0.3201
vn 0.5014 0.8652 -0.0000
vn 0.8623 0.5056 0.0282
vn 0.8623 0.5056 -0.0282
vn 0.5867 0.8098 -0.0000
vn -0.7071 -0.7071 -0.0005
vn -0.7071 -0.7071 0.0005
vn -0.7071 0.7071 0.0005
vn -0.7071 0.7071 -0.0005
vn 0.7006 -0.7136 0.0005
vn 0.7006 -0.7136 -0.0005
vn 0.7906 0.6121 0.0193
vn 0.7906 0.6121 -0.0193
vn -0.0000 -1.0000 -0.0003
vn -0.0000 -1.0000 0.0003
vn -1.0000 -0.0000 -0.0002
vn -0.0004 0.0001 -1.0000
vn -0.0041 0.9999 0.0146
vn -0.0041 0.9999 -0.0146
vn 1.0000 -0.0000 -0.0001
vn 1.0000 -0.0000 0.0001
vn 0.8715 0.4903 0.0133
vn 0.8715 0.4903 -0.0133
vn 0.4412 0.8974 -0.0000
vn 0.2919 0.9564 -0.0040
vn 0.2919 0.9564 0.0040
vn 0.0001 -0.0005 -1.0000
vn 0.9548 -0.2973 -0.0000
vn 0.3532 -0.6162 0.7040
vn -0.0003 0.0001 1.0000
vn -0.0000 0.0005 1.0000
vn 0.0005 0.0011 -1.0000
vn -0.7327 0.6805 -0.0000
vn -0.3512 0.6127 0.7080
vn -0.6306 0.2283 -0.7418
vn 0.0004 -0.0000 1.0000
vn 0.3516 -0.6135 -0.7071
vn 0.6096 -0.2633 0.7477
vn -0.0004 0.0001 1.0000
vn 0.0003 -0.0003 1.0000
vn -0.6928 0.2875 0.6614
vn 0.0004 -0.0000 -1.0000
vn 0.6936 -0.2490 -0.6760
vn 0.0005 0.0011 1.0000
vn -0.0003 0.0001 -1.0000
vn 0.0003 -0.0003 -1.0000
vn 0.0012 0.0005 -1.0000
vn -0.6928 0.2875 -0.6614
vn 0.0081 -0.0395 0.9992
vn 0.4973 -0.8676 -0.0000
vn -0.9533 0.3022 -0.0000
vn 0.9533 -0.3022 -0.0000
vn -0.9532 0.3022 -0.0000
vn 0.3022 0.9532 -0.0000
vn 0.7184 0.4120 -0.5605
vn 0.7188 0.4116 0.5603
vn 0.6308 0.5105 -0.5844
vn 0.6308 0.5105 0.5844
vn -0.0000 0.7071 0.7071
vn 0.6379 0.5009 -0.5850
vn 0.6554 0.0003 -0.7552
vn 0.6379 0.5009 0.5850
vn 0.6554 0.0003 0.7552
vn -0.0000 0.7071 -0.7071
vn -0.0011 0.7525 0.6586
vn -0.0011 0.7525 -0.6586
vn 0.6958 -0.0010 0.7183
vn 0.6958 -0.0010 -0.7183
vn 0.2668 0.8416 -0.4697
vn 0.2668 0.8416 0.4697
vn 0.6964 0.0022 0.7177
vn 0.0019 0.7525 0.6586
vn 0.6964 0.0022 -0.7177
vn 0.0019 0.7525 -0.6586
vn 0.2652 0.8420 -0.4698
vn 0.2652 0.8420 0.4698
vn 0.5851 0.3354 -0.7384
vn 0.7184 0.4120 0.5605
vn 0.6512 0.0003 0.7589
vn 0.2858 0.9044 0.3169
vn -0.0000 0.7024 0.7118
vn 0.2858 0.9044 -0.3169
vn 0.6512 0.0003 -0.7589
vn -0.0000 0.7024 -0.7118
vn 0.5731 0.4565 -0.6806
vn 0.5731 0.4565 0.6806
vn 0.5851 0.3354 0.7384
vn -0.6017 -0.3442 -0.7208
vn 0.6476 0.3707 0.6657
vn 0.8146 0.4128 0.4074
vn 0.0013 -0.7646 0.6445
vn 0.0013 -0.7646 -0.6445
vn -0.7604 -0.0000 0.6495
vn 0.6476 0.3707 -0.6657
vn -0.7604 -0.0000 -0.6495
vn -0.1708 -0.5414 -0.8232
vn -0.1708 -0.5414 0.8232
vn -0.8676 -0.4972 -0.0000
vn 0.5203 0.4371 -0.7336
vn -0.8602 -0.0000 0.5099
vn 0.5809 0.3294 0.7444
vn -0.0000 0.6492 0.7606
vn 0.7071 0.7071 -0.0000
vn -1.0000 -0.0012 -0.0000
vn -0.7800 -0.6257 -0.0000
vn 0.5809 0.3294 -0.7444
vn -0.8602 -0.0000 -0.5099
vn -0.0000 -0.7786 -0.6275
vn 0.5203 0.4371 0.7336
vn 0.6647 0.0009 -0.7471
vn -0.4499 0.4499 0.7715
vn -0.5117 -0.5117 -0.6902
vn -0.0000 0.6492 -0.7606
vn 0.4212 -0.4298 -0.7986
vn 0.1926 0.6507 -0.7345
vn 0.4212 -0.4298 0.7986
vn 0.1926 0.6507 0.7345
vn -0.4499 0.4499 -0.7715
vn -0.5117 -0.5117 0.6902
vn -0.0000 -0.7786 0.6275
vn 0.6647 0.0009 0.7471
vn -0.7071 -0.0000 -0.7071
vt 0.441833 0.521565
vt 0.441806 0.577524
vt 0.425698 0.577600
vt 0.425698 0.521565
vt 0.387851 0.521565
vt 0.387799 0.577654
vt 0.360515 0.577691
vt 0.360438 0.521565
vt 0.398482 0.000000
vt 0.601518 0.000000
vt 0.612064 0.021565
vt 0.387936 0.021565
vt 0.398746 0.761984
vt 0.389067 0.729867
vt 0.387878 0.172274
vt 0.612121 0.172309
vt 0.612064 0.228435
vt 0.387936 0.228435
vt 0.625000 0.521565
vt 0.814378 0.521565
vt 0.814647 0.577654
vt 0.625000 0.577600
vt 0.625000 0.672400
vt 0.814647 0.672346
vt 0.814378 0.728435
vt 0.625000 0.728435
vt 0.614989 0.455081
vt 0.463012 0.480248
vt 0.462706 0.478414
vt 0.614526 0.453277
vt 0.387878 0.077726
vt 0.612121 0.077691
vt 0.612127 0.084474
vt 0.387873 0.084474
vt 0.139373 0.521565
vt 0.139309 0.577715
vt 0.125000 0.577726
vt 0.125000 0.521565
vt 0.465010 0.584474
vt 0.481693 0.584474
vt 0.481693 0.665526
vt 0.465010 0.665526
vt 0.360522 0.665526
vt 0.360522 0.584474
vt 0.387794 0.584474
vt 0.387794 0.665526
vt 0.606013 0.584474
vt 0.622696 0.584474
vt 0.622696 0.665526
vt 0.606013 0.665526
vt 0.387936 0.021566
vt 0.612064 0.021565
vt 0.612127 0.165526
vt 0.387873 0.165526
vt 0.625000 0.728434
vt 0.462706 0.728435
vt 0.462706 0.672639
vt 0.480739 0.672639
vt 0.485512 0.683938
vt 0.602194 0.683906
vt 0.606967 0.672476
vt 0.625000 0.672400
vt 0.462866 0.769093
vt 0.442026 0.762668
vt 0.139309 0.672285
vt 0.139373 0.728435
vt 0.125000 0.728435
vt 0.125000 0.672274
vt 0.425553 0.729866
vt 0.441666 0.730567
vt 0.360438 0.521565
vt 0.151091 0.500000
vt 0.346933 0.500000
vt 0.442026 0.487332
vt 0.389067 0.520133
vt 0.398746 0.488016
vt 0.597301 0.327516
vt 0.604343 0.360300
vt 0.433074 0.771518
vt 0.454189 0.794772
vt 0.139373 0.728435
vt 0.360438 0.728435
vt 0.346933 0.750000
vt 0.151091 0.750000
vt 0.395657 0.780223
vt 0.402668 0.772401
vt 0.614989 0.352232
vt 0.441666 0.519433
vt 0.425553 0.520134
vt 0.425845 0.487978
vt 0.625000 0.021565
vt 0.625000 0.077654
vt 0.612121 0.077691
vt 0.139303 0.584474
vt 0.360522 0.584474
vt 0.139303 0.665526
vt 0.612121 0.172309
vt 0.625000 0.172346
vt 0.625000 0.228435
vt 0.387794 0.584474
vt 0.425698 0.584474
vt 0.425698 0.665526
vt 0.461043 0.566062
vt 0.443474 0.566094
vt 0.441806 0.577524
vt 0.462706 0.521565
vt 0.462706 0.577361
vt 0.614526 0.000000
vt 0.620688 0.012687
vt 0.129791 0.512687
vt 0.136638 0.500000
vt 0.624537 0.933873
vt 0.614989 0.897768
vt 0.361601 0.500000
vt 0.370057 0.513609
vt 0.614961 0.793771
vt 0.370057 0.736391
vt 0.361601 0.750000
vt 0.601519 0.290607
vt 0.620688 0.254907
vt 0.614526 0.292736
vt 0.136638 0.750000
vt 0.129791 0.737313
vt 0.139309 0.672285
vt 0.360515 0.672309
vt 0.360438 0.728434
vt 0.387799 0.672346
vt 0.425698 0.672400
vt 0.425698 0.728434
vt 0.387851 0.728434
vt 0.625000 0.084474
vt 0.625000 0.165526
vt 0.612127 0.165526
vt 0.139303 0.584474
vt 0.125000 0.665526
vt 0.125000 0.584474
vt 0.387799 0.577654
vt 0.387799 0.672346
vt 0.360515 0.672309
vt 0.439718 0.584474
vt 0.439718 0.665526
vt 0.425845 0.762022
vt 0.462400 0.730284
vt 0.624565 0.731386
vt 0.462706 0.728434
vt 0.441833 0.728435
vt 0.441806 0.672476
vt 0.443474 0.683906
vt 0.461043 0.683938
vt 0.462706 0.672639
vt 0.461739 0.583333
vt 0.459368 0.583333
vt 0.456997 0.583333
vt 0.454626 0.583333
vt 0.452255 0.583333
vt 0.449884 0.583333
vt 0.447513 0.583333
vt 0.445142 0.583333
vt 0.442771 0.583333
vt 0.443641 0.577472
vt 0.460872 0.577472
vt 0.459368 0.656250
vt 0.461739 0.656250
vt 0.461739 0.666667
vt 0.459368 0.666667
vt 0.441806 0.672476
vt 0.425698 0.672400
vt 0.442771 0.666667
vt 0.445142 0.666667
vt 0.447513 0.666667
vt 0.449884 0.666667
vt 0.452255 0.666667
vt 0.454626 0.666667
vt 0.456997 0.666667
vt 0.460872 0.672528
vt 0.443641 0.672528
vt 0.606013 0.588801
vt 0.481693 0.588801
vt 0.486467 0.577472
vt 0.601239 0.577472
vt 0.485872 0.663458
vt 0.485872 0.586542
vt 0.481693 0.661199
vt 0.606013 0.661199
vt 0.601239 0.672528
vt 0.486467 0.672528
vt 0.485512 0.566062
vt 0.602194 0.566094
vt 0.485512 0.683938
vt 0.606967 0.577524
vt 0.625000 0.577600
vt 0.442771 0.593750
vt 0.442771 0.604167
vt 0.442771 0.614583
vt 0.442771 0.625000
vt 0.442771 0.635417
vt 0.442771 0.645833
vt 0.442771 0.656250
vt 0.606967 0.672476
vt 0.461739 0.645833
vt 0.461739 0.635417
vt 0.461739 0.625000
vt 0.461739 0.614583
vt 0.461739 0.604167
vt 0.461739 0.593750
vt 0.461739 0.583333
vt 0.480739 0.672639
vt 0.637444 0.665526
vt 0.814675 0.665526
vt 0.462706 0.577361
vt 0.480739 0.577361
vt 0.814675 0.584474
vt 0.637444 0.584474
vt 0.402700 0.274912
vt 0.398482 0.261638
vt 0.606013 0.584474
vt 0.606013 0.665526
vt 0.601835 0.663458
vt 0.601834 0.586542
vt 0.481693 0.665526
vt 0.481693 0.584474
vt 0.488924 0.661947
vt 0.488924 0.588053
vt 0.598782 0.661947
vt 0.598782 0.588053
vt 0.452621 0.614063
vt 0.452621 0.604687
vt 0.454967 0.603681
vt 0.454967 0.594235
vt 0.459368 0.614583
vt 0.459368 0.625000
vt 0.454626 0.614583
vt 0.456997 0.614583
vt 0.456997 0.625000
vt 0.454626 0.625000
vt 0.443112 0.614098
vt 0.443113 0.604652
vt 0.459368 0.593750
vt 0.459368 0.604167
vt 0.445142 0.614583
vt 0.447513 0.614583
vt 0.447513 0.625000
vt 0.445142 0.625000
vt 0.461373 0.634896
vt 0.459734 0.634896
vt 0.454987 0.583846
vt 0.456636 0.583846
vt 0.445142 0.656250
vt 0.447513 0.656250
vt 0.445142 0.635417
vt 0.447513 0.635417
vt 0.447513 0.645833
vt 0.445142 0.645833
vt 0.449884 0.635417
vt 0.452255 0.635417
vt 0.452255 0.645833
vt 0.449884 0.645833
vt 0.454626 0.656250
vt 0.456997 0.656250
vt 0.454626 0.635417
vt 0.456997 0.635417
vt 0.456997 0.645833
vt 0.454626 0.645833
vt 0.459368 0.635417
vt 0.459368 0.645833
vt 0.447172 0.655765
vt 0.445484 0.655765
vt 0.450250 0.656771
vt 0.451889 0.656771
vt 0.451889 0.593229
vt 0.450250 0.593229
vt 0.447879 0.625521
vt 0.449518 0.625521
vt 0.456656 0.594235
vt 0.454265 0.656763
vt 0.454265 0.666154
vt 0.452255 0.656250
vt 0.447152 0.583846
vt 0.447152 0.593237
vt 0.459007 0.646346
vt 0.459007 0.655737
vt 0.454260 0.604687
vt 0.452616 0.666154
vt 0.452616 0.656763
vt 0.461373 0.625521
vt 0.451889 0.583854
vt 0.459027 0.666181
vt 0.457338 0.666181
vt 0.445503 0.593237
vt 0.445503 0.583846
vt 0.444801 0.604652
vt 0.459734 0.625521
vt 0.445142 0.593750
vt 0.445142 0.604167
vt 0.457358 0.655737
vt 0.457358 0.646346
vt 0.451894 0.634904
vt 0.450245 0.634904
vt 0.447172 0.646319
vt 0.447513 0.604167
vt 0.459027 0.656735
vt 0.450250 0.583854
vt 0.452255 0.593750
vt 0.454626 0.593750
vt 0.454626 0.604167
vt 0.452255 0.604167
vt 0.454626 0.583333
vt 0.452255 0.614583
vt 0.452255 0.625000
vt 0.447147 0.603646
vt 0.445508 0.603646
vt 0.456997 0.604167
vt 0.459007 0.624487
vt 0.457358 0.624487
vt 0.449884 0.614583
vt 0.449884 0.625000
vt 0.449884 0.604167
vt 0.449884 0.656250
vt 0.445484 0.646319
vt 0.457338 0.656735
vt 0.444776 0.645313
vt 0.443137 0.645313
vt 0.449884 0.593750
vt 0.451894 0.594263
vt 0.450245 0.594263
vt 0.451894 0.603654
vt 0.450245 0.603654
vt 0.456636 0.646346
vt 0.454987 0.646346
vt 0.456636 0.655737
vt 0.454987 0.655737
vt 0.449523 0.635929
vt 0.447874 0.635929
vt 0.449523 0.645321
vt 0.447874 0.645321
vt 0.451894 0.625513
vt 0.450245 0.625513
vt 0.447513 0.593750
vt 0.449523 0.594263
vt 0.447874 0.594263
vt 0.449523 0.603654
vt 0.447874 0.603654
vt 0.444781 0.615096
vt 0.443132 0.615096
vt 0.444781 0.624487
vt 0.443132 0.624487
vt 0.456997 0.583333
vt 0.456997 0.593750
vt 0.456636 0.593237
vt 0.454987 0.593237
vt 0.459007 0.615096
vt 0.457358 0.615096
vt 0.459007 0.604679
vt 0.457358 0.604679
vt 0.459007 0.614071
vt 0.457358 0.614071
vt 0.451914 0.615069
vt 0.450225 0.615069
vt 0.451914 0.624515
vt 0.450225 0.624515
vt 0.456656 0.603681
vt 0.459027 0.635902
vt 0.457338 0.635902
vt 0.459027 0.645348
vt 0.457338 0.645348
vt 0.454285 0.625485
vt 0.452596 0.625485
vt 0.454285 0.634931
vt 0.452596 0.634931
vt 0.449543 0.583819
vt 0.447854 0.583819
vt 0.449543 0.593265
vt 0.447854 0.593265
vt 0.444801 0.614098
vt 0.459027 0.594235
vt 0.457338 0.594235
vt 0.459027 0.603681
vt 0.457338 0.603681
vt 0.449543 0.646319
vt 0.447854 0.646319
vt 0.449543 0.655765
vt 0.447854 0.655765
vt 0.451889 0.666146
vt 0.450250 0.666146
vt 0.447147 0.594271
vt 0.445508 0.594271
vt 0.459002 0.625521
vt 0.457363 0.625521
vt 0.459002 0.634896
vt 0.457363 0.634896
vt 0.454260 0.635937
vt 0.452621 0.635937
vt 0.454260 0.645313
vt 0.452621 0.645313
vt 0.449518 0.634896
vt 0.447879 0.634896
vt 0.444776 0.635937
vt 0.443137 0.635937
vt 0.447147 0.625521
vt 0.445508 0.625521
vt 0.447147 0.634896
vt 0.445508 0.634896
vt 0.459002 0.583854
vt 0.457363 0.583854
vt 0.459002 0.593229
vt 0.457363 0.593229
vt 0.454260 0.614063
vt 0.461373 0.646354
vt 0.459734 0.646354
vt 0.461373 0.655729
vt 0.459734 0.655729
vt 0.462546 0.519070
vt 0.624565 0.518614
vt 0.614526 0.796723
vt 0.462706 0.771586
vt 0.425698 0.486547
vt 0.441858 0.485202
vt 0.441858 0.764797
vt 0.425698 0.763453
vt 0.625000 0.939378
vt 0.614526 0.899674
vt 0.398394 0.486583
vt 0.425698 0.728434
vt 0.441833 0.728435
vt 0.398394 0.763417
vt 0.624537 0.316127
vt 0.614526 0.350326
vt 0.625000 0.310622
vt 0.624537 0.751802
vt 0.625000 0.750000
vt 0.624537 0.498198
vt 0.625000 0.500000
vt 0.462706 0.478414
vt 0.462706 0.771586
vt 0.454189 0.461992
vt 0.604343 0.413697
vt 0.604343 0.836303
vt 0.422113 0.479997
vt 0.433074 0.478483
vt 0.422113 0.770004
vt 0.441858 0.764798
vt 0.597301 0.922484
vt 0.604343 0.889700
vt 0.601519 0.959393
vt 0.395657 0.282799
vt 0.385474 0.276091
vt 0.395657 0.469777
vt 0.402667 0.477599
vt 0.398394 0.486583
vt 0.385474 0.471933
vt 0.385474 0.778067
vt 0.395657 0.967201
vt 0.402700 0.975088
vt 0.398482 0.988362
vt 0.385474 0.973909
vt 0.430183 0.476025
vt 0.420933 0.477476
vt 0.595912 0.910589
vt 0.404088 0.970572
vt 0.451385 0.802366
vt 0.600991 0.848063
vt 0.600991 0.887021
vt 0.451385 0.456675
vt 0.600991 0.401951
vt 0.595912 0.339426
vt 0.404088 0.279482
vt 0.399009 0.964960
vt 0.399009 0.780967
vt 0.404074 0.775217
vt 0.420933 0.772571
vt 0.430183 0.774135
vt 0.399009 0.285096
vt 0.399009 0.469088
vt 0.404074 0.474830
vt 0.600991 0.362993
s 0
usemtl M_Noir_Bleuté
f 35/1/1 79/2/1 78/3/1 557/4/1
f 559/5/2 75/6/2 74/7/2 32/8/2
f 611/9/3 600/10/3 16/11/3 11/12/3
f 26/13/4 28/14/4 590/14/4 591/13/4
f 54/15/5 67/16/5 23/17/5 20/18/5
f 4/19/6 564/20/6 66/21/6 42/22/6
f 46/23/6 63/24/6 555/25/6 2/26/6
f 547/27/7 569/28/7 5/29/7 594/30/7
f 19/35/9 55/36/9 54/37/9 20/38/9
f 47/39/10 90/40/10 93/41/10 52/42/10
f 72/43/11 73/44/11 76/45/11 69/46/11
f 87/47/10 41/48/10 44/49/10 92/50/10
f 11/51/5 16/52/5 62/32/5 59/31/5
f 60/34/5 61/33/5 68/53/5 53/54/5
f 2/55/10 7/56/10 50/57/10 94/58/10 106/59/10 104/60/10 91/61/10 46/62/10
f 548/63/12 40/64/12 583/64/12 577/63/12
f 58/65/13 12/66/13 11/67/13 59/68/13
f 37/69/14 38/70/14 582/70/14 585/69/14
f 32/71/15 19/35/15 603/72/15 604/73/15
f 33/74/16 569/28/16 574/28/16 578/74/16
f 31/75/17 29/76/17 588/76/17 589/75/17
f 21/77/18 565/78/18 648/78/18 649/77/18
f 553/79/19 8/80/19 614/80/19 639/79/19
f 12/81/20 27/82/20 607/83/20 610/84/20
f 25/85/21 563/86/21 646/86/21 647/85/21
f 547/27/22 22/87/22 593/87/22 571/27/22
f 556/88/23 36/89/23 580/89/23 579/88/23
f 29/76/24 34/90/24 581/90/24 588/76/24
f 555/91/25 63/92/25 62/93/25 16/52/25
f 56/94/26 73/95/26 72/43/26 57/96/26
f 23/17/27 67/97/27 66/98/27 564/99/27
f 76/100/28 77/101/28 86/102/28 69/46/28
f 96/103/29 98/104/29 79/105/29 35/1/29 6/106/29 49/107/29
f 601/108/30 555/109/30 16/11/30 600/10/30
f 603/72/31 19/35/31 20/110/31 602/111/31
f 15/112/32 13/113/32 586/113/32 587/112/32
f 32/71/33 604/73/33 605/114/33 559/115/33
f 13/113/34 568/116/34 572/116/34 586/113/34
f 607/83/35 27/82/35 562/117/35 606/118/35
f 609/119/36 23/17/36 564/120/36 608/121/36
f 611/122/37 11/123/37 12/81/37 610/84/37
f 58/124/26 71/125/26 27/126/26 12/66/26
f 70/127/28 85/128/28 560/129/28 562/130/28
f 64/131/38 65/132/38 68/133/38 61/33/38
f 56/134/39 57/96/39 60/135/39 53/136/39
f 559/5/28 557/4/28 78/3/28 75/137/28
f 70/138/40 562/130/40 27/126/40 71/139/40
f 81/140/41 84/141/41 86/102/41 77/101/41
f 19/35/26 32/8/26 74/7/26 55/36/26
f 40/64/42 39/142/42 584/142/42 583/64/42
f 39/142/43 26/13/43 591/13/43 584/142/43
f 567/143/44 549/144/44 573/144/44 576/143/44
f 34/90/45 33/74/45 578/74/45 581/90/45
f 7/145/29 561/146/29 83/147/29 100/148/29 102/149/29 50/150/29
f 48/151/29 220/152/29 204/153/29 232/154/29 199/155/29 224/156/29 208/157/29 236/158/29 80/159/29 97/160/29 95/161/29
f 273/162/29 234/163/29 51/164/29 237/165/29
f 83/166/46 561/146/46 560/129/46 85/167/46
f 82/168/29 221/169/29 205/170/29 233/171/29 200/172/29 225/173/29 209/174/29 237/165/29 51/164/29 101/175/29 99/176/29
f 87/177/10 90/178/10 109/179/10 107/180/10
f 183/181/47 184/182/47 187/182/47 188/181/47
f 93/183/10 92/184/10 103/185/10 105/186/10
f 87/177/48 107/180/48 178/180/48 161/177/48
f 60/135/49 57/96/49 137/96/49 140/135/49
f 73/95/50 56/94/50 136/94/50 153/95/50
f 95/161/51 97/160/51 167/160/51 166/161/51
f 110/187/52 108/188/52 177/188/52 180/187/52
f 55/36/53 74/7/53 154/7/53 135/36/53
f 58/65/54 59/68/54 139/68/54 138/65/54
f 86/102/55 84/141/55 126/141/55 160/102/55
f 92/50/56 44/49/56 115/49/56 164/50/56
f 107/180/51 109/179/51 179/179/51 178/180/51
f 56/134/57 53/136/57 133/136/57 136/134/57
f 83/166/58 85/167/58 159/167/58 128/166/58
f 46/62/59 91/61/59 163/61/59 114/62/59
f 106/189/60 94/58/60 132/58/60 175/189/60
f 84/141/61 81/140/61 123/140/61 126/141/61
f 88/190/62 42/191/62 113/191/62 162/190/62
f 93/183/63 105/186/63 176/186/63 131/183/63
f 54/37/64 55/36/64 135/36/64 134/37/64
f 80/159/65 235/192/65 207/193/65 223/194/65 198/195/65 231/196/65 203/197/65 219/198/65 82/168/65 127/168/65 125/159/65
f 91/199/66 104/60/66 174/60/66 163/199/66
f 81/140/67 77/101/67 157/101/67 123/140/67
f 41/48/68 87/47/68 161/47/68 112/48/68
f 103/185/69 92/184/69 164/184/69 173/185/69
f 51/164/70 234/163/70 206/200/70 222/201/70 197/202/70 230/203/70 202/204/70 218/205/70 48/206/70 119/206/70 122/164/70
f 78/3/71 79/2/71 124/2/71 158/3/71
f 69/46/72 86/102/72 160/102/72 149/46/72
f 105/186/73 103/185/73 173/185/73 176/186/73
f 47/39/74 52/42/74 120/42/74 118/39/74
f 85/128/75 70/127/75 150/127/75 159/128/75
f 52/42/76 93/41/76 131/41/76 120/42/76
f 76/45/77 73/44/77 153/44/77 156/45/77
f 77/101/78 76/100/78 156/100/78 157/101/78
f 104/60/79 106/59/79 175/59/79 174/60/79
f 94/207/80 50/57/80 121/57/80 132/207/80
f 75/137/81 78/3/81 158/3/81 155/137/81
f 74/7/82 75/6/82 155/6/82 154/7/82
f 45/208/83 64/209/83 144/209/83 116/208/83
f 101/175/84 51/164/84 122/164/84 169/175/84
f 49/210/85 89/211/85 129/211/85 117/210/85
f 63/24/86 46/23/86 114/23/86 143/24/86
f 50/150/87 102/149/87 170/149/87 121/150/87
f 90/40/88 47/39/88 118/39/88 130/40/88
f 72/43/89 69/46/89 149/46/89 152/43/89
f 65/212/90 43/213/90 111/213/90 145/212/90
f 82/168/91 99/176/91 172/176/91 127/168/91
f 43/213/6 65/212/6 64/209/6 45/208/6
f 59/31/111 62/32/111 142/32/111 139/31/111
f 71/125/121 58/124/121 138/124/121 151/125/121
f 43/213/122 45/208/122 116/208/122 111/213/122
f 108/188/123 88/190/123 162/190/123 177/188/123
f 98/104/124 96/103/124 165/103/124 168/104/124
f 57/96/125 72/43/125 152/43/125 137/96/125
f 62/93/126 63/92/126 143/92/126 142/93/126
f 44/49/127 41/48/127 112/48/127 115/49/127
f 89/211/128 110/187/128 180/187/128 129/211/128
f 48/151/129 95/161/129 166/161/129 119/151/129
f 61/33/130 60/34/130 140/34/130 141/33/130
f 109/179/131 90/178/131 130/178/131 179/179/131
f 96/103/132 49/107/132 117/107/132 165/103/132
f 67/16/133 54/15/133 134/15/133 147/16/133
f 64/131/134 61/33/134 141/33/134 144/131/134
f 79/105/135 98/104/135 168/104/135 124/105/135
f 53/54/136 68/53/136 148/53/136 133/54/136
f 97/160/137 80/159/137 125/159/137 167/160/137
f 21/77/51 18/214/51 602/215/51 609/119/51
f 66/98/138 67/97/138 147/97/138 146/98/138
f 102/149/139 100/148/139 171/148/139 170/149/139
f 68/133/140 65/132/140 145/132/140 148/133/140
f 99/176/73 101/175/73 169/175/73 172/176/73
f 70/138/141 71/139/141 151/139/141 150/138/141
f 100/148/142 83/147/142 128/147/142 171/148/142
f 42/22/143 66/21/143 146/21/143 113/22/143
f 87/216/10 92/217/10 182/218/10 181/219/10
f 92/217/10 93/220/10 183/181/10 182/218/10
f 93/220/10 90/221/10 184/182/10 183/181/10
f 90/221/10 87/216/10 181/219/10 184/182/10
f 184/182/73 181/219/73 186/219/73 187/182/73
f 182/218/51 183/181/51 188/181/51 185/218/51
f 181/219/144 182/218/144 185/218/144 186/219/144
f 493/226/145 490/227/145 539/227/145 540/226/145
f 377/228/145 374/229/145 415/229/145 416/228/145
f 270/230/29 230/203/29 197/202/29 241/231/29
f 269/232/29 242/233/29 213/234/29 229/235/29
f 397/236/145 394/237/145 435/237/145 436/236/145
f 267/238/29 218/205/29 202/204/29 245/239/29
f 266/240/29 246/241/29 212/242/29 228/243/29
f 464/244/51 465/245/51 512/245/51 513/244/51
f 306/246/73 307/247/73 355/247/73 354/246/73
f 263/248/29 250/249/29 205/170/29 221/169/29
f 262/250/29 251/251/29 216/252/29 252/253/29
f 261/254/29 238/255/29 210/256/29 253/257/29
f 260/258/29 254/259/29 209/174/29 225/173/29
f 259/260/29 255/261/29 217/262/29 256/263/29
f 258/264/29 222/201/29 206/200/29 257/265/29
f 388/266/51 389/267/51 428/267/51 429/266/51
f 450/268/73 451/269/73 498/269/73 499/268/73
f 484/270/51 485/271/51 532/271/51 533/270/51
f 470/272/73 471/273/73 518/273/73 519/272/73
f 374/229/73 375/274/73 414/274/73 415/229/73
f 229/235/29 213/234/29 255/261/29 259/260/29
f 279/275/146 280/276/146 329/276/146 326/275/146
f 210/256/29 256/263/29 260/258/29 226/277/29
f 299/278/146 300/279/146 349/279/146 347/278/146
f 319/280/146 320/281/146 369/281/146 366/280/146
f 490/227/73 491/282/73 538/282/73 539/227/73
f 281/283/145 278/284/145 327/284/145 328/283/145
f 463/285/146 464/244/146 513/244/146 510/285/146
f 198/195/29 228/243/29 262/250/29 231/196/29
f 483/286/146 484/270/146 533/270/146 531/286/146
f 219/198/29 263/248/29 221/169/29 82/168/29
f 203/197/29 252/253/29 263/248/29 219/198/29
f 408/287/51 409/288/51 448/288/51 449/287/51
f 301/289/145 298/290/145 346/290/145 348/289/145
f 394/237/73 395/291/73 434/291/73 435/237/73
f 465/245/145 462/292/145 511/292/145 512/245/145
f 235/192/29 265/293/29 248/294/29 207/193/29
f 80/159/29 236/158/29 265/293/29 235/192/29
f 321/295/145 318/296/145 367/296/145 368/295/145
f 292/297/51 293/298/51 340/298/51 341/297/51
f 387/299/146 388/266/146 429/266/146 426/299/146
f 248/294/29 215/300/29 246/241/29 266/240/29
f 407/301/146 408/287/146 449/287/146 446/301/146
f 485/271/145 482/302/145 530/302/145 532/271/145
f 220/152/29 48/206/29 218/205/29 267/238/29
f 239/303/29 268/304/29 244/305/29 211/306/29
f 199/155/29 232/307/29 268/304/29 239/303/29
f 278/284/73 279/275/73 326/275/73 327/284/73
f 227/308/29 269/232/29 229/235/29 201/309/29
f 456/310/51 457/311/51 504/311/51 505/310/51
f 244/305/29 214/312/29 242/233/29 269/232/29
f 312/313/51 313/314/51 360/314/51 361/313/51
f 298/290/73 299/278/73 347/278/73 346/290/73
f 245/239/29 202/204/29 230/203/29 270/230/29
f 246/241/29 271/315/29 240/316/29 212/242/29
f 215/300/29 249/317/29 271/315/29 246/241/29
f 249/317/29 211/306/29 227/308/29 271/315/29
f 250/249/29 272/318/29 233/171/29 205/170/29
f 389/267/145 386/319/145 427/319/145 428/267/145
f 253/257/29 210/256/29 226/277/29 272/318/29
f 409/288/145 406/320/145 447/320/145 448/288/145
f 318/296/73 319/280/73 366/280/73 367/296/73
f 476/321/51 477/322/51 524/322/51 525/321/51
f 264/323/29 239/303/29 275/324/29 274/325/29
f 239/303/29 211/306/29 276/326/29 275/324/29
f 211/306/29 249/317/29 277/327/29 276/326/29
f 249/317/29 264/323/29 274/325/29 277/327/29
f 226/277/29 260/258/29 279/275/29 278/284/29
f 260/258/29 225/173/29 280/276/29 279/275/29
f 225/173/29 200/172/29 281/283/29 280/276/29
f 200/172/29 226/277/29 278/284/29 281/283/29
f 256/263/29 217/262/29 283/328/29 282/329/29
f 217/262/29 254/259/29 284/330/29 283/328/29
f 254/259/29 260/258/29 285/331/29 284/330/29
f 260/258/29 256/263/29 282/329/29 285/331/29
f 251/251/29 261/254/29 287/332/29 286/333/29
f 261/254/29 253/257/29 288/334/29 287/332/29
f 253/257/29 216/252/29 289/335/29 288/334/29
f 216/252/29 251/251/29 286/333/29 289/335/29
f 240/316/29 201/309/29 291/336/29 290/337/29
f 201/309/29 238/255/29 292/297/29 291/336/29
f 238/255/29 261/254/29 293/298/29 292/297/29
f 261/254/29 240/316/29 290/337/29 293/298/29
f 247/338/29 264/323/29 295/339/29 294/340/29
f 264/323/29 249/317/29 296/341/29 295/339/29
f 249/317/29 215/300/29 297/342/29 296/341/29
f 215/300/29 247/338/29 294/340/29 297/342/29
f 236/158/29 208/157/29 299/278/29 298/290/29
f 208/157/29 247/338/29 300/279/29 299/278/29
f 247/338/29 265/293/29 301/289/29 300/279/29
f 265/293/29 236/158/29 298/290/29 301/289/29
f 223/194/29 266/240/29 303/343/29 302/344/29
f 266/240/29 228/243/29 304/345/29 303/343/29
f 228/243/29 198/195/29 305/346/29 304/345/29
f 198/195/29 223/194/29 302/344/29 305/346/29
f 232/307/29 204/347/29 307/247/29 306/246/29
f 204/347/29 243/348/29 308/349/29 307/247/29
f 243/348/29 268/304/29 309/350/29 308/349/29
f 268/304/29 232/307/29 306/246/29 309/350/29
f 242/233/29 270/230/29 311/351/29 310/352/29
f 270/230/29 241/231/29 312/313/29 311/351/29
f 241/231/29 213/234/29 313/314/29 312/313/29
f 213/234/29 242/233/29 310/352/29 313/314/29
f 214/312/29 245/239/29 315/353/29 314/354/29
f 245/239/29 270/230/29 316/355/29 315/353/29
f 270/230/29 242/233/29 317/356/29 316/355/29
f 242/233/29 214/312/29 314/354/29 317/356/29
f 217/262/29 257/265/29 319/280/29 318/296/29
f 257/265/29 273/162/29 320/281/29 319/280/29
f 273/162/29 254/259/29 321/295/29 320/281/29
f 254/259/29 217/262/29 318/296/29 321/295/29
f 320/281/51 321/295/51 368/295/51 369/281/51
f 286/333/73 287/332/73 334/332/73 335/333/73
f 300/279/51 301/289/51 348/289/51 349/279/51
f 280/276/51 281/283/51 328/283/51 329/276/51
f 309/350/145 306/246/145 354/246/145 356/350/145
f 289/335/147 286/333/147 335/333/147 336/335/147
f 307/247/146 308/349/146 357/349/146 355/247/146
f 287/332/146 288/334/146 337/334/146 334/332/146
f 314/354/73 315/353/73 362/353/73 363/354/73
f 294/340/73 295/339/73 342/339/73 343/340/73
f 308/349/51 309/350/51 356/350/51 357/349/51
f 274/325/73 275/324/73 322/324/73 323/325/73
f 288/334/51 289/335/51 336/335/51 337/334/51
f 317/356/145 314/354/145 363/354/145 364/356/145
f 297/342/147 294/340/147 343/340/147 344/342/147
f 277/327/145 274/325/145 323/325/145 324/327/145
f 315/353/146 316/355/146 365/355/146 362/353/146
f 295/339/146 296/341/146 345/341/146 342/339/146
f 275/324/146 276/326/146 325/326/146 322/324/146
f 302/344/73 303/343/73 350/343/73 351/344/73
f 316/355/51 317/356/51 364/356/51 365/355/51
f 282/329/73 283/328/73 330/328/73 331/329/73
f 296/341/51 297/342/51 344/342/51 345/341/51
f 276/326/51 277/327/51 324/327/51 325/326/51
f 305/346/145 302/344/145 351/344/145 352/346/145
f 285/331/145 282/329/145 331/329/145 332/331/145
f 303/343/146 304/345/146 353/345/146 350/343/146
f 283/328/146 284/330/146 333/330/146 330/328/146
f 310/352/73 311/351/73 358/351/73 359/352/73
f 290/337/73 291/336/73 338/336/73 339/337/73
f 304/345/51 305/346/51 352/346/51 353/345/51
f 284/330/51 285/331/51 332/331/51 333/330/51
f 313/314/145 310/352/145 359/352/145 360/314/145
f 293/298/145 290/337/145 339/337/145 340/298/145
f 311/351/146 312/313/146 361/313/146 358/351/146
f 291/336/146 292/297/146 341/297/146 338/336/146
f 271/315/29 227/308/29 371/357/29 370/358/29
f 227/308/29 201/309/29 372/359/29 371/357/29
f 201/309/29 240/316/29 373/360/29 372/359/29
f 240/316/29 271/315/29 370/358/29 373/360/29
f 268/304/29 243/348/29 375/274/29 374/229/29
f 243/348/29 214/312/29 376/361/29 375/274/29
f 214/312/29 244/305/29 377/228/29 376/361/29
f 244/305/29 268/304/29 374/229/29 377/228/29
f 255/261/29 258/264/29 379/362/29 378/363/29
f 258/264/29 257/265/29 380/364/29 379/362/29
f 257/265/29 217/262/29 381/365/29 380/364/29
f 217/262/29 255/261/29 378/363/29 381/365/29
f 201/309/29 229/235/29 383/366/29 382/367/29
f 229/235/29 259/260/29 384/368/29 383/366/29
f 259/260/29 238/255/29 385/369/29 384/368/29
f 238/255/29 201/309/29 382/367/29 385/369/29
f 252/253/29 216/252/29 387/299/29 386/319/29
f 216/252/29 250/249/29 388/266/29 387/299/29
f 250/249/29 263/248/29 389/267/29 388/266/29
f 263/248/29 252/253/29 386/319/29 389/267/29
f 208/157/29 224/156/29 391/370/29 390/371/29
f 224/156/29 264/323/29 392/372/29 391/370/29
f 264/323/29 247/338/29 393/373/29 392/372/29
f 247/338/29 208/157/29 390/371/29 393/373/29
f 207/193/29 248/294/29 395/291/29 394/237/29
f 248/294/29 266/240/29 396/374/29 395/291/29
f 266/240/29 223/194/29 397/236/29 396/374/29
f 223/194/29 207/193/29 394/237/29 397/236/29
f 243/348/29 267/238/29 399/375/29 398/376/29
f 267/238/29 245/239/29 400/377/29 399/375/29
f 245/239/29 214/312/29 401/378/29 400/377/29
f 214/312/29 243/348/29 398/376/29 401/378/29
f 216/252/29 253/257/29 403/379/29 402/380/29
f 253/257/29 272/318/29 404/381/29 403/379/29
f 272/318/29 250/249/29 405/382/29 404/381/29
f 250/249/29 216/252/29 402/380/29 405/382/29
f 254/259/29 273/162/29 407/301/29 406/320/29
f 273/162/29 237/165/29 408/287/29 407/301/29
f 237/165/29 209/174/29 409/288/29 408/287/29
f 209/174/29 254/259/29 406/320/29 409/288/29
f 395/291/146 396/374/146 437/374/146 434/291/146
f 375/274/146 376/361/146 417/361/146 414/274/146
f 402/380/73 403/379/73 442/379/73 443/380/73
f 382/367/73 383/366/73 422/366/73 423/367/73
f 396/374/51 397/236/51 436/236/51 437/374/51
f 376/361/51 377/228/51 416/228/51 417/361/51
f 405/382/145 402/380/145 443/380/145 444/382/145
f 385/369/145 382/367/145 423/367/145 424/369/145
f 403/379/146 404/381/146 445/381/146 442/379/146
f 383/366/146 384/368/146 425/368/146 422/366/146
f 390/371/73 391/370/73 431/370/73 430/371/73
f 404/381/51 405/382/51 444/382/51 445/381/51
f 370/358/73 371/357/73 410/357/73 411/358/73
f 384/368/51 385/369/51 424/369/51 425/368/51
f 393/373/145 390/371/145 430/371/145 432/373/145
f 373/360/145 370/358/145 411/358/145 412/360/145
f 391/370/146 392/372/146 433/372/146 431/370/146
f 371/357/146 372/359/146 413/359/146 410/357/146
f 398/376/73 399/375/73 438/375/73 439/376/73
f 378/363/73 379/362/73 418/362/73 419/363/73
f 392/372/51 393/373/51 432/373/51 433/372/51
f 372/359/51 373/360/51 412/360/51 413/359/51
f 401/378/145 398/376/145 439/376/145 440/378/145
f 381/365/145 378/363/145 419/363/145 420/365/145
f 399/375/146 400/377/146 441/377/146 438/375/146
f 379/362/146 380/364/146 421/364/146 418/362/146
f 406/320/73 407/301/73 446/301/73 447/320/73
f 386/319/73 387/299/73 426/299/73 427/319/73
f 400/377/51 401/378/51 440/378/51 441/377/51
f 380/364/51 381/365/51 420/365/51 421/364/51
f 272/318/29 226/277/29 451/269/29 450/268/29
f 226/277/29 200/172/29 452/383/29 451/269/29
f 200/172/29 233/171/29 453/384/29 452/383/29
f 233/171/29 272/318/29 450/268/29 453/384/29
f 265/293/29 247/338/29 455/385/29 454/386/29
f 247/338/29 215/300/29 456/310/29 455/385/29
f 215/300/29 248/294/29 457/311/29 456/310/29
f 248/294/29 265/293/29 454/386/29 457/311/29
f 213/234/29 241/231/29 459/387/29 458/388/29
f 241/231/29 258/264/29 460/389/29 459/387/29
f 258/264/29 255/261/29 461/390/29 460/389/29
f 255/261/29 213/234/29 458/388/29 461/390/29
f 241/231/29 197/202/29 463/285/29 462/292/29
f 197/202/29 222/201/29 464/244/29 463/285/29
f 222/201/29 258/264/29 465/245/29 464/244/29
f 258/264/29 241/231/29 462/292/29 465/245/29
f 238/255/29 259/260/29 467/391/29 466/392/29
f 259/260/29 256/263/29 468/393/29 467/391/29
f 256/263/29 210/256/29 469/394/29 468/393/29
f 210/256/29 238/255/29 466/392/29 469/394/29
f 212/242/29 240/316/29 471/273/29 470/272/29
f 240/316/29 261/254/29 472/395/29 471/273/29
f 261/254/29 251/251/29 473/396/29 472/395/29
f 251/251/29 212/242/29 470/272/29 473/396/29
f 231/196/29 262/250/29 475/397/29 474/398/29
f 262/250/29 252/253/29 476/321/29 475/397/29
f 252/253/29 203/197/29 477/322/29 476/321/29
f 203/197/29 231/196/29 474/398/29 477/322/29
f 228/243/29 212/242/29 479/399/29 478/400/29
f 212/242/29 251/251/29 480/401/29 479/399/29
f 251/251/29 262/250/29 481/402/29 480/401/29
f 262/250/29 228/243/29 478/400/29 481/402/29
f 224/156/29 199/155/29 483/286/29 482/302/29
f 199/155/29 239/303/29 484/270/29 483/286/29
f 239/303/29 264/323/29 485/271/29 484/270/29
f 264/323/29 224/156/29 482/302/29 485/271/29
f 204/347/29 220/152/29 487/403/29 486/404/29
f 220/152/29 267/238/29 488/405/29 487/403/29
f 267/238/29 243/348/29 489/406/29 488/405/29
f 243/348/29 204/347/29 486/404/29 489/406/29
f 211/306/29 244/305/29 491/282/29 490/227/29
f 244/305/29 269/232/29 492/407/29 491/282/29
f 269/232/29 227/308/29 493/226/29 492/407/29
f 227/308/29 211/306/29 490/227/29 493/226/29
f 257/265/29 206/200/29 495/408/29 494/409/29
f 206/200/148 234/163/148 496/410/148 495/408/148
f 234/163/29 273/162/29 497/411/29 496/410/29
f 273/162/29 257/265/29 494/409/29 497/411/29
f 473/396/145 470/272/145 519/272/145 520/396/145
f 453/384/145 450/268/145 499/268/145 500/384/145
f 491/282/146 492/407/146 541/407/146 538/282/146
f 471/273/146 472/395/146 521/395/146 518/273/146
f 451/269/146 452/383/146 501/383/146 498/269/146
f 478/400/73 479/399/73 526/399/73 527/400/73
f 492/407/51 493/226/51 540/226/51 541/407/51
f 458/388/73 459/387/73 506/387/73 507/388/73
f 472/395/51 473/396/51 520/396/51 521/395/51
f 452/383/51 453/384/51 500/384/51 501/383/51
f 481/402/145 478/400/145 527/400/145 528/402/145
f 461/390/145 458/388/145 507/388/145 508/390/145
f 479/399/146 480/401/146 529/401/146 526/399/146
f 459/387/146 460/389/146 509/389/146 506/387/146
f 486/404/73 487/403/73 535/403/73 534/404/73
f 466/392/73 467/391/73 514/391/73 515/392/73
f 480/401/51 481/402/51 528/402/51 529/401/51
f 460/389/51 461/390/51 508/390/51 509/389/51
f 489/406/145 486/404/145 534/404/145 536/406/145
f 469/394/145 466/392/145 515/392/145 516/394/145
f 487/403/146 488/405/146 537/405/146 535/403/146
f 467/391/146 468/393/146 517/393/146 514/391/146
f 494/409/73 495/408/73 542/408/73 543/409/73
f 474/398/73 475/397/73 522/397/73 523/398/73
f 488/405/51 489/406/51 536/406/51 537/405/51
f 454/386/73 455/385/73 502/385/73 503/386/73
f 468/393/51 469/394/51 516/394/51 517/393/51
f 497/411/145 494/409/145 543/409/145 544/411/145
f 477/322/145 474/398/145 523/398/145 524/322/145
f 457/311/145 454/386/145 503/386/145 504/311/145
f 495/408/146 496/410/146 545/410/146 542/408/146
f 475/397/146 476/321/146 525/321/146 522/397/146
f 455/385/146 456/310/146 505/310/146 502/385/146
f 482/302/73 483/286/73 531/286/73 530/302/73
f 496/410/51 497/411/51 544/411/51 545/410/51
f 462/292/73 463/285/73 510/285/73 511/292/73
f 546/412/149 566/413/149 4/19/149 6/106/149
f 548/63/150 568/116/150 612/414/150 595/415/150
f 33/74/151 34/90/151 597/416/151 596/417/151
f 39/142/152 40/64/152 599/418/152 598/419/152
f 13/113/153 15/112/153 555/420/153 601/421/153
f 36/89/154 556/88/154 35/1/154 557/4/154
f 29/76/155 31/75/155 559/5/155 605/422/155
f 38/70/156 37/69/156 560/423/156 561/424/156
f 28/14/157 26/13/157 606/425/157 562/130/157
f 24/426/158 22/87/158 608/427/158 564/428/158
f 15/112/159 549/429/159 2/430/159 555/420/159
f 566/431/160 24/426/160 564/428/160 4/432/160
f 37/69/161 28/14/161 562/130/161 560/423/161
f 31/75/162 36/89/162 557/4/162 559/5/162
f 556/88/163 546/412/163 6/106/163 35/1/163
f 567/143/164 38/70/164 561/424/164 7/145/164
f 26/13/165 39/142/165 598/419/165 606/425/165
f 568/116/166 13/113/166 601/421/166 612/414/166
f 34/90/167 29/76/167 605/422/167 597/416/167
f 22/87/168 547/27/168 594/30/168 608/427/168
f 569/28/169 33/74/169 596/417/169 5/433/169
f 40/64/170 548/63/170 595/434/170 599/418/170
f 549/144/172 567/143/172 7/56/172 2/55/172
f 546/412/182 575/412/182 570/413/182 566/413/182
f 569/28/183 547/27/183 571/27/183 574/28/183
f 22/87/184 24/426/184 592/426/184 593/87/184
f 549/429/185 15/112/185 587/112/185 573/429/185
f 24/426/186 566/431/186 570/431/186 592/426/186
f 28/14/187 37/69/187 585/69/187 590/14/187
f 613/435/51 3/436/51 594/30/51 5/29/51
f 568/116/188 548/63/188 577/63/188 572/116/188
f 36/89/189 31/75/189 589/75/189 580/89/189
f 546/412/190 556/88/190 579/88/190 575/412/190
f 38/70/191 567/143/191 576/143/191 582/70/191
f 3/436/192 613/435/192 615/435/192 634/436/192
f 1/437/73 8/80/73 595/415/73 612/414/73
f 551/438/51 550/439/51 596/417/51 597/416/51
f 553/79/73 552/440/73 598/419/73 599/441/73
f 14/442/73 554/443/73 601/421/73 600/444/73
f 18/214/51 17/445/51 603/446/51 602/215/51
f 30/447/51 558/448/51 605/449/51 604/450/51
f 563/86/73 25/85/73 607/451/73 606/425/73
f 565/78/51 21/77/51 609/119/51 608/427/51
f 10/452/73 9/453/73 611/454/73 610/455/73
f 14/442/28 9/453/28 651/453/28 640/442/28
f 25/85/73 10/452/73 610/455/73 607/451/73
f 552/440/73 563/86/73 606/425/73 598/419/73
f 554/443/73 1/437/73 612/414/73 601/421/73
f 9/453/73 14/442/73 600/444/73 611/454/73
f 17/445/51 30/447/51 604/450/51 603/446/51
f 558/448/51 551/438/51 597/416/51 605/449/51
f 3/436/51 565/78/51 608/427/51 594/30/51
f 550/439/51 613/435/51 5/433/51 596/417/51
f 8/80/73 553/79/73 599/441/73 595/434/73
f 9/453/197 10/452/197 650/452/197 651/453/197
f 18/214/28 21/77/28 649/77/28 642/214/28
f 8/80/192 1/437/192 652/437/192 614/80/192
f 10/452/6 25/85/6 647/85/6 650/452/6
f 563/86/198 552/440/198 638/440/198 646/86/198
f 1/437/26 554/443/26 641/443/26 652/437/26
f 550/439/199 551/438/199 637/438/199 636/439/199
f 30/447/6 17/445/6 643/445/6 644/447/6
f 552/440/199 553/79/199 639/79/199 638/440/199
f 551/438/198 558/448/198 645/448/198 637/438/198
f 554/443/18 14/442/18 640/442/18 641/443/18
f 17/445/197 18/214/197 642/214/197 643/445/197
f 565/78/26 3/436/26 634/436/26 648/78/26
f 558/448/21 30/447/21 644/447/21 645/448/21
f 613/435/19 550/439/19 636/439/19 615/435/19
f 20/18/216 23/17/216 609/119/216 602/215/216
f 6/106/10 4/19/10 42/191/10 88/190/10 108/188/10 110/187/10 89/211/10 49/210/10
usemtl M_Noir_Profond
f 139/31/8 142/32/8 141/33/8 140/34/8
f 112/48/92 113/22/92 111/213/92
f 115/49/93 116/208/93 114/62/93
f 118/39/94 119/151/94 117/210/94
f 121/150/95 122/164/95 120/42/95
f 111/213/96 116/208/96 115/49/96 112/48/96
f 130/40/97 118/39/97 117/210/97 129/211/97
f 132/207/98 121/57/98 120/42/98 131/41/98
f 118/39/99 120/42/99 122/164/99 119/206/99
f 134/37/100 135/36/100 136/134/100 133/136/100
f 138/65/101 139/68/101 140/135/101 137/96/101
f 142/93/102 143/92/102 144/131/102 141/33/102
f 146/98/103 147/97/103 148/133/103 145/132/103
f 150/138/104 151/139/104 152/43/104 149/46/104
f 154/7/105 155/6/105 156/45/105 153/44/105
f 158/3/106 124/2/106 123/140/106 157/101/106
f 128/166/107 159/167/107 160/102/107 126/141/107
f 135/36/108 154/7/108 153/95/108 136/94/108
f 151/125/109 138/124/109 137/96/109 152/43/109
f 147/16/110 134/15/110 133/54/110 148/53/110
f 113/22/112 146/21/112 145/212/112 111/213/112
f 143/24/113 114/23/113 116/208/113 144/209/113
f 155/137/114 158/3/114 157/101/114 156/100/114
f 159/128/115 150/127/115 149/46/115 160/102/115
f 112/48/116 161/47/116 162/190/116 113/191/116
f 114/62/117 163/61/117 164/50/117 115/49/117
f 124/105/118 168/104/118 165/103/118 166/161/118 167/160/118 125/159/118 127/168/118 172/176/118 169/175/118 170/149/118 171/148/118 128/166/118 126/141/118 123/140/118
f 119/151/119 166/161/119 165/103/119 117/107/119
f 121/150/120 170/149/120 169/175/120 122/164/120
f 174/60/10 175/59/10 176/186/10 173/185/10
f 173/185/10 164/184/10 163/199/10 174/60/10
f 131/183/10 176/186/10 175/189/10 132/58/10
f 178/180/10 179/179/10 180/187/10 177/188/10
f 161/177/10 178/180/10 177/188/10 162/190/10
f 129/211/10 180/187/10 179/179/10 130/178/10
f 191/222/47 192/223/47 195/223/47 196/222/47
f 186/219/10 185/218/10 190/224/10 189/225/10
f 185/218/10 188/181/10 191/222/10 190/224/10
f 188/181/10 187/182/10 192/223/10 191/222/10
f 187/182/10 186/219/10 189/225/10 192/223/10
f 192/223/73 189/225/73 194/225/73 195/223/73
f 190/224/51 191/222/51 196/222/51 193/224/51
f 189/225/144 190/224/144 193/224/144 194/225/144
f 499/268/29 498/269/29 501/383/29 500/384/29
f 503/386/29 502/385/29 505/310/29 504/311/29
f 507/388/29 506/387/29 509/389/29 508/390/29
f 511/292/29 510/285/29 513/244/29 512/245/29
f 515/392/29 514/391/29 517/393/29 516/394/29
f 519/272/29 518/273/29 521/395/29 520/396/29
f 523/398/29 522/397/29 525/321/29 524/322/29
f 527/400/29 526/399/29 529/401/29 528/402/29
f 530/302/29 531/286/29 533/270/29 532/271/29
f 534/404/29 535/403/29 537/405/29 536/406/29
f 539/227/29 538/282/29 541/407/29 540/226/29
f 543/409/29 542/408/29 545/410/29 544/411/29
f 653/463/51 616/464/51 634/436/51 615/435/51
f 630/465/51 623/466/51 642/214/51 649/77/51
f 633/461/73 635/460/73 614/80/73 652/437/73
f 618/457/51 617/456/51 636/439/51 637/438/51
f 620/471/73 619/470/73 638/440/73 639/79/73
f 621/458/73 622/462/73 641/443/73 640/442/73
f 623/466/51 624/472/51 643/445/51 642/214/51
f 625/473/51 626/474/51 645/448/51 644/447/51
f 627/469/73 628/468/73 647/85/73 646/86/73
f 629/475/51 630/465/51 649/77/51 648/78/51
f 631/467/73 632/459/73 651/453/73 650/452/73
f 628/468/73 631/467/73 650/452/73 647/85/73
f 619/470/73 627/469/73 646/86/73 638/440/73
f 622/462/73 633/461/73 652/437/73 641/443/73
f 632/459/73 621/458/73 640/442/73 651/453/73
f 624/472/51 625/473/51 644/447/51 643/445/51
f 626/474/51 618/457/51 637/438/51 645/448/51
f 616/464/51 629/475/51 648/78/51 634/436/51
f 617/456/51 653/463/51 615/435/51 636/439/51
f 635/460/73 620/471/73 639/79/73 614/80/73
usemtl M_Cyan
f 194/225/10 193/224/10 196/222/10 195/223/10
f 411/358/29 410/357/29 413/359/29 412/360/29
f 415/229/29 414/274/29 417/361/29 416/228/29
f 419/363/29 418/362/29 421/364/29 420/365/29
f 423/367/29 422/366/29 425/368/29 424/369/29
f 427/319/29 426/299/29 429/266/29 428/267/29
f 430/371/29 431/370/29 433/372/29 432/373/29
f 435/237/29 434/291/29 437/374/29 436/236/29
f 439/376/29 438/375/29 441/377/29 440/378/29
f 443/380/29 442/379/29 445/381/29 444/382/29
f 447/320/29 446/301/29 449/287/29 448/288/29
usemtl M_Orange
f 323/325/29 322/324/29 325/326/29 324/327/29
f 327/284/29 326/275/29 329/276/29 328/283/29
f 331/329/29 330/328/29 333/330/29 332/331/29
f 335/333/29 334/332/29 337/334/29 336/335/29
f 339/337/29 338/336/29 341/297/29 340/298/29
f 343/340/29 342/339/29 345/341/29 344/342/29
f 346/290/29 347/278/29 349/279/29 348/289/29
f 351/344/29 350/343/29 353/345/29 352/346/29
f 354/246/29 355/247/29 357/349/29 356/350/29
f 359/352/29 358/351/29 361/313/29 360/314/29
f 363/354/29 362/353/29 365/355/29 364/356/29
f 367/296/29 366/280/29 369/281/29 368/295/29
f 570/413/171 575/412/171 574/28/171 571/27/171
f 584/142/173 591/13/173 590/14/173 585/69/173
f 577/63/174 583/64/174 582/70/174 576/143/174
f 573/429/175 587/112/175 586/113/175 572/116/175
f 575/412/176 579/88/176 578/74/176 574/28/176
f 580/89/177 589/75/177 588/76/177 581/90/177
f 592/426/178 570/431/178 571/27/178 593/87/178
f 578/74/179 579/88/179 580/89/179 581/90/179
f 582/70/180 583/64/180 584/142/180 585/69/180
f 572/116/181 577/63/181 576/143/181 573/144/181
usemtl M_Gris_Metal
f 617/456/193 618/457/193 658/457/193 657/456/193
f 621/458/194 632/459/194 672/459/194 661/458/194
f 635/460/195 633/461/195 673/461/195 654/460/195
f 633/461/196 622/462/196 662/462/196 673/461/196
f 654/460/73 673/461/73 662/462/73 661/458/73 672/459/73 671/467/73 668/468/73 667/469/73 659/470/73 660/471/73
f 616/464/200 653/463/200 655/463/200 656/464/200
f 623/466/201 630/465/201 670/465/201 663/466/201
f 657/456/51 658/457/51 666/474/51 665/473/51 664/472/51 663/466/51 670/465/51 669/475/51 656/464/51 655/463/51
f 625/473/202 624/472/202 664/472/202 665/473/202
f 619/470/203 620/471/203 660/471/203 659/470/203
f 618/457/204 626/474/204 666/474/204 658/457/204
f 622/462/205 621/458/205 661/458/205 662/462/205
f 624/472/206 623/466/206 663/466/206 664/472/206
f 629/475/207 616/464/207 656/464/207 669/475/207
f 626/474/208 625/473/208 665/473/208 666/474/208
f 653/463/209 617/456/209 657/456/209 655/463/209
f 628/468/210 627/469/210 667/469/210 668/468/210
f 620/471/211 635/460/211 654/460/211 660/471/211
f 630/465/212 629/475/212 669/475/212 670/465/212
f 632/459/213 631/467/213 671/467/213 672/459/213
f 631/467/214 628/468/214 668/468/214 671/467/214
f 627/469/215 619/470/215 659/470/215 667/469/215
