# Blender 4.2.3 LTS
# www.blender.org
mtllib SM_Wall_Storage.mtl
o SM_Wall_Storage_Drawer
v 0.180000 -0.062126 -0.529515
v 0.180000 -0.062126 0.529515
v 0.180000 -0.000916 0.209974
v 0.180000 -0.000916 -0.209974
v 0.180000 -0.062126 0.176505
v 0.180000 -0.062126 -0.176505
v 0.177242 -0.000916 0.209974
v 0.177242 -0.000916 -0.209974
v 0.177242 -0.062126 0.176505
v 0.177242 -0.062126 -0.176505
v 0.177242 -0.015027 0.186176
v 0.177242 -0.048015 0.168138
v 0.177242 -0.048015 -0.168138
v 0.177242 -0.015027 -0.186176
v 0.176494 -0.048015 0.168138
v 0.176494 -0.015027 0.186176
v 0.176494 -0.015027 -0.186176
v 0.176494 -0.048015 -0.168138
v 0.180000 -0.184545 -0.514218
v 0.180000 -0.169248 -0.529515
v 0.180000 -0.016214 -0.529515
v 0.180000 -0.000916 -0.514218
v 0.180000 -0.000916 0.514218
v 0.180000 -0.016214 0.529515
v 0.180000 -0.169248 0.529515
v 0.180000 -0.184545 0.514218
v 0.173790 -0.169248 -0.529515
v 0.173790 -0.184545 -0.514218
v 0.173790 -0.000916 -0.514218
v 0.173790 -0.016214 -0.529515
v 0.173790 -0.016214 0.529515
v 0.173790 -0.000916 0.514218
v 0.173790 -0.184545 0.514218
v 0.173790 -0.169248 0.529515
v 0.180501 -0.048015 0.168138
v 0.180501 -0.015027 0.186176
v 0.180501 -0.015027 -0.186176
v 0.180501 -0.048015 -0.168138
v 0.180501 -0.027918 0.164434
v 0.180501 -0.035124 0.160495
v 0.180501 -0.035124 -0.160495
v 0.180501 -0.027918 -0.164434
v 0.179748 -0.035124 0.160495
v 0.179748 -0.027918 0.164434
v 0.179748 -0.027918 -0.164434
v 0.179748 -0.035124 -0.160495
v 0.173790 -0.164971 -0.519191
v 0.173790 -0.174221 -0.509942
v 0.173790 -0.174221 0.509942
v 0.173790 -0.164971 0.519191
v 0.173790 -0.020490 0.519191
v 0.173790 -0.032458 0.509942
v 0.173790 -0.032458 -0.509942
v 0.173790 -0.020490 -0.519191
v 0.173790 -0.032458 0.000000
v 0.005042 -0.032458 0.000000
v 0.173790 -0.032458 -0.254971
v 0.005042 -0.032458 -0.254971
v 0.029650 -0.174221 0.509942
v 0.005042 -0.174221 0.485333
v 0.005042 -0.174221 -0.485333
v 0.029650 -0.174221 -0.509942
v 0.029650 -0.032458 -0.509942
v 0.005042 -0.032458 -0.485333
v 0.005042 -0.032458 0.485333
v 0.029650 -0.032458 0.509942
v 0.168514 -0.032458 -0.504666
v 0.031835 -0.032458 -0.504666
v 0.010318 -0.032458 -0.483148
v 0.010318 -0.032458 -0.260247
v 0.168514 -0.032458 -0.260247
v 0.168514 -0.032458 -0.249695
v 0.010318 -0.032458 -0.249695
v 0.010318 -0.032458 -0.005276
v 0.168514 -0.032458 -0.005276
v 0.010318 -0.032458 0.005276
v 0.010318 -0.032458 0.483148
v 0.031835 -0.032458 0.504666
v 0.168514 -0.032458 0.504666
v 0.168514 -0.032458 0.005276
v 0.010318 -0.168873 0.483148
v 0.010318 -0.168873 0.005276
v 0.168514 -0.168873 0.005276
v 0.031835 -0.168873 0.504666
v 0.168514 -0.168873 0.504666
v 0.031835 -0.103558 -0.504666
v 0.168514 -0.103558 -0.504666
v 0.168514 -0.103558 -0.260247
v 0.010318 -0.103558 -0.483148
v 0.010318 -0.103558 -0.260247
v 0.168514 -0.075715 -0.249695
v 0.010318 -0.075715 -0.249695
v 0.168514 -0.075715 -0.005276
v 0.010318 -0.075715 -0.005276
v 0.010318 -0.050029 -0.236764
v 0.010318 -0.050029 -0.018207
v 0.010318 -0.058144 -0.018207
v 0.010318 -0.058144 -0.236764
v 0.009926 -0.050029 -0.236764
v 0.009926 -0.050029 -0.018207
v 0.009926 -0.058144 -0.236764
v 0.009926 -0.058144 -0.018207
vn -0.0000 1.0000 -0.0000
vn 1.0000 -0.0000 -0.0000
vn -0.0000 -0.0000 -1.0000
vn -0.0000 -0.0000 1.0000
vn -0.0000 0.4798 0.8774
vn -0.0000 0.4798 -0.8774
vn -0.0000 -1.0000 -0.0000
vn -0.0000 0.7071 -0.7071
vn -0.0000 -0.7071 -0.7071
vn -0.0000 0.7071 0.7071
vn -0.0000 -0.7071 0.7071
vn -0.0000 -0.4798 0.8774
vn -0.0000 -0.4798 -0.8774
vn -1.0000 -0.0000 -0.0000
vn 0.7071 -0.0000 0.7071
vn -0.7071 -0.0000 -0.7071
vn -0.7071 -0.0000 0.7071
vn 0.7071 -0.0000 -0.7071
vt 0.499996 0.584840
vt 0.499996 0.584715
vt 0.499996 0.665285
vt 0.499996 0.665160
vt 0.499996 0.638828
vt 0.499996 0.611172
vt 0.449347 0.666484
vt 0.444744 0.665285
vt 0.444744 0.584715
vt 0.449347 0.583516
vt 0.481579 0.583516
vt 0.481579 0.611172
vt 0.481579 0.638828
vt 0.481579 0.666484
vt 0.495394 0.583516
vt 0.495393 0.666484
vt 0.449347 0.666484
vt 0.495393 0.666484
vt 0.485825 0.637678
vt 0.495750 0.637734
vt 0.485825 0.612322
vt 0.495750 0.612266
vt 0.489704 0.613344
vt 0.491872 0.613318
vt 0.489704 0.636656
vt 0.491872 0.636682
vt 0.450634 0.584325
vt 0.447851 0.585050
vt 0.496890 0.585050
vt 0.494107 0.584325
vt 0.447851 0.664950
vt 0.450634 0.665675
vt 0.494107 0.665675
vt 0.496890 0.664950
vt 0.496890 0.605025
vt 0.496890 0.625000
vt 0.447851 0.664950
vt 0.447851 0.585050
vt 0.496890 0.585050
vt 0.496890 0.586978
vt 0.447851 0.586977
vt 0.447851 0.663022
vt 0.496890 0.663022
vt 0.496890 0.585463
vt 0.496890 0.587149
vt 0.496890 0.623573
vt 0.496890 0.623574
vt 0.447851 0.663022
vt 0.447851 0.586977
vt 0.496890 0.664537
vt 0.496890 0.625413
vt 0.496890 0.585463
vt 0.496890 0.586978
vt 0.496890 0.604612
vt 0.496890 0.604612
vt 0.496890 0.605438
vt 0.496890 0.605438
vt 0.496890 0.624587
vt 0.496890 0.624587
vt 0.496890 0.663022
vt 0.496890 0.662851
vt 0.496890 0.625413
vt 0.496890 0.664537
vt 0.496890 0.606451
vt 0.496890 0.606451
s 0
usemtl M_Noir_Bleuté
f 22/1/1 29/2/1 32/3/1 23/4/1 3/5/1 7/5/1 8/6/1 4/6/1
f 25/7/2 26/8/2 19/9/2 20/10/2 1/11/2 6/12/2 5/13/2 2/14/2
f 4/6/2 6/12/2 1/11/2 21/15/2 22/1/2
f 21/15/3 1/11/3 20/10/3 27/10/3 30/15/3
f 23/4/2 24/16/2 2/14/2 5/13/2 3/5/2
f 25/17/4 2/14/4 24/16/4 31/18/4 34/7/4
f 6/12/5 4/6/5 8/6/5 10/12/5
f 5/13/1 6/12/1 10/12/1 9/13/1
f 3/5/6 5/13/6 9/13/6 7/5/6
f 21/15/8 30/15/8 29/2/8 22/1/8
f 27/10/9 20/10/9 19/9/9 28/9/9
f 31/18/10 24/16/10 23/4/10 32/3/10
f 25/17/11 34/7/11 33/8/11 26/8/11
f 26/8/7 33/8/7 28/9/7 19/9/7
f 47/27/14 48/28/14 53/29/14 54/30/14
f 27/10/14 28/9/14 48/28/14 47/27/14
f 28/9/14 33/8/14 49/31/14 48/28/14
f 33/8/14 34/7/14 50/32/14 49/31/14
f 34/7/14 31/18/14 51/33/14 50/32/14
f 31/18/14 32/3/14 52/34/14 51/33/14
f 32/3/14 29/2/14 53/29/14 57/35/14 55/36/14 52/34/14
f 29/2/14 30/15/14 54/30/14 53/29/14
f 30/15/14 27/10/14 47/27/14 54/30/14
f 49/31/4 52/34/4 66/34/4 59/37/4
f 52/34/14 49/31/14 50/32/14 51/33/14
f 53/29/3 48/28/3 62/38/3 63/39/3
f 64/40/14 61/41/14 60/42/14 65/43/14 56/36/14 58/35/14
f 68/44/15 69/45/15 89/45/15 86/44/15
f 96/46/3 97/47/3 102/47/3 100/46/3
f 63/39/16 62/38/16 61/41/16 64/40/16
f 65/43/17 60/42/17 59/37/17 66/34/17
f 48/28/7 49/31/7 59/37/7 60/48/7 61/49/7 62/38/7
f 79/50/14 80/51/14 83/51/14 85/50/14
f 53/29/1 63/29/1 68/44/1 67/52/1
f 63/29/1 64/53/1 69/45/1 68/44/1
f 64/53/1 58/35/1 70/54/1 69/45/1
f 58/35/1 57/35/1 71/55/1 70/54/1
f 57/35/1 53/29/1 67/52/1 71/55/1
f 57/35/1 58/35/1 73/56/1 72/57/1
f 58/35/1 56/36/1 74/58/1 73/56/1
f 56/36/1 55/36/1 75/59/1 74/58/1
f 55/36/1 57/35/1 72/57/1 75/59/1
f 56/36/1 65/60/1 77/61/1 76/62/1
f 65/60/1 66/34/1 78/63/1 77/61/1
f 66/34/1 52/34/1 79/50/1 78/63/1
f 52/34/1 55/36/1 80/51/1 79/50/1
f 55/36/1 56/36/1 76/62/1 80/51/1
f 77/61/18 78/63/18 84/63/18 81/61/18
f 76/62/2 77/61/2 81/61/2 82/62/2
f 78/63/3 79/50/3 85/50/3 84/63/3
f 80/51/4 76/62/4 82/62/4 83/51/4
f 74/58/3 75/59/3 93/59/3 94/58/3
f 69/45/2 70/54/2 90/54/2 89/45/2
f 72/57/4 73/56/4 92/56/4 91/57/4
f 67/52/4 68/44/4 86/44/4 87/52/4
f 70/54/3 71/55/3 88/55/3 90/54/3
f 75/59/14 72/57/14 91/57/14 93/59/14
f 71/55/14 67/52/14 87/52/14 88/55/14
f 73/56/2 74/58/2 96/46/2 95/64/2
f 74/58/2 94/58/2 97/47/2 96/46/2
f 94/58/2 92/56/2 98/65/2 97/47/2
f 92/56/2 73/56/2 95/64/2 98/65/2
f 95/64/7 96/46/7 100/46/7 99/64/7
f 97/47/1 98/65/1 101/65/1 102/47/1
f 98/65/4 95/64/4 99/64/4 101/65/4
usemtl M_Noir_Profond
f 7/5/2 9/13/2 12/19/2 11/20/2
f 9/13/2 10/12/2 13/21/2 12/19/2
f 10/12/2 8/6/2 14/22/2 13/21/2
f 8/6/2 7/5/2 11/20/2 14/22/2
f 82/62/1 81/61/1 84/63/1 85/50/1 83/51/1
f 87/52/1 86/44/1 89/45/1 90/54/1 88/55/1
f 91/57/1 92/56/1 94/58/1 93/59/1
usemtl M_Cyan
f 44/26/2 43/25/2 46/23/2 45/24/2
f 99/64/2 100/46/2 102/47/2 101/65/2
usemtl M_Gris_Metal
f 15/19/7 18/21/7 38/21/7 35/19/7
f 41/23/5 42/24/5 45/24/5 46/23/5
f 16/20/12 15/19/12 35/19/12 36/20/12
f 18/21/13 17/22/13 37/22/13 38/21/13
f 17/22/1 16/20/1 36/20/1 37/22/1
f 36/20/2 35/19/2 40/25/2 39/26/2
f 35/19/2 38/21/2 41/23/2 40/25/2
f 38/21/2 37/22/2 42/24/2 41/23/2
f 37/22/2 36/20/2 39/26/2 42/24/2
f 42/24/7 39/26/7 44/26/7 45/24/7
f 40/25/1 41/23/1 46/23/1 43/25/1
f 39/26/6 40/25/6 43/25/6 44/26/6
o SM_Wall_Storage_Module
v 0.000000 -0.250000 0.603796
v 0.000000 -0.203796 0.650000
v 0.000000 0.203796 0.650000
v 0.000000 0.250000 0.603796
v 0.000000 -0.203796 -0.650000
v 0.000000 -0.250000 -0.603796
v 0.000000 0.250000 -0.603796
v 0.000000 0.203796 -0.650000
v 0.180000 -0.194115 0.626629
v 0.156629 -0.203796 0.650000
v 0.180000 -0.226629 0.594115
v 0.156629 -0.250000 0.603796
v 0.180000 0.226629 0.594115
v 0.156629 0.250000 0.603796
v 0.180000 0.194115 0.626629
v 0.156629 0.203796 0.650000
v 0.180000 -0.226629 -0.594115
v 0.156629 -0.250000 -0.603796
v 0.180000 -0.194115 -0.626629
v 0.156629 -0.203796 -0.650000
v 0.180000 0.194115 -0.626629
v 0.156629 0.203796 -0.650000
v 0.180000 0.226629 -0.594115
v 0.156629 0.250000 -0.603796
v 0.000000 -0.250000 -0.529515
v 0.000000 -0.250000 -0.534186
v 0.000000 -0.250000 0.534186
v 0.000000 -0.250000 0.529515
v 0.000000 0.250000 0.529515
v 0.000000 0.250000 0.534186
v 0.000000 0.250000 -0.534186
v 0.000000 0.250000 -0.529515
v 0.112029 0.250000 -0.534186
v 0.112029 0.250000 -0.529515
v 0.116699 0.250000 -0.534186
v 0.116699 0.250000 0.529515
v 0.112029 0.250000 0.529515
v 0.112029 0.250000 0.534186
v 0.116699 0.250000 0.534186
v 0.112029 -0.250000 -0.534186
v 0.116699 -0.250000 -0.534186
v 0.116699 -0.250000 -0.529515
v 0.112029 -0.250000 -0.529515
v 0.116699 -0.250000 0.529515
v 0.116699 -0.250000 0.534186
v 0.112029 -0.250000 0.534186
v 0.112029 -0.250000 0.529515
v 0.112029 0.250000 -0.219794
v 0.112029 0.250000 -0.215123
v 0.116699 0.250000 -0.215123
v 0.000000 0.250000 -0.219794
v 0.000000 0.250000 -0.215123
v 0.112029 -0.203796 -0.650000
v 0.116699 -0.203796 -0.650000
v 0.116699 -0.250000 -0.603796
v 0.112029 -0.250000 -0.603796
v 0.116699 0.203796 -0.650000
v 0.112029 0.203796 -0.650000
v 0.112029 0.250000 -0.603796
v 0.116699 0.250000 -0.603796
v 0.116699 -0.203796 0.650000
v 0.112029 -0.203796 0.650000
v 0.112029 -0.250000 0.603796
v 0.116699 -0.250000 0.603796
v 0.112029 0.203796 0.650000
v 0.116699 0.203796 0.650000
v 0.116699 0.250000 0.603796
v 0.112029 0.250000 0.603796
v 0.180000 -0.226629 0.529515
v 0.180000 -0.226629 0.534186
v 0.156629 -0.250000 0.534186
v 0.156629 -0.250000 0.529515
v 0.156629 -0.250000 -0.529515
v 0.156629 -0.250000 -0.534186
v 0.180000 -0.226629 -0.534186
v 0.180000 -0.226629 -0.529515
v 0.180000 0.226629 -0.534186
v 0.156629 0.250000 -0.534186
v 0.156629 0.250000 0.529515
v 0.156629 0.250000 0.534186
v 0.180000 0.226629 0.534186
v 0.180000 0.226629 0.529515
v 0.156629 0.250000 -0.215123
v 0.180000 0.226629 -0.215123
v 0.180000 0.003754 -0.215123
v 0.000000 0.191953 -0.219794
v 0.000000 0.191953 -0.215123
v 0.000000 0.191953 0.534186
v 0.000000 0.191953 0.529515
v 0.000000 -0.189216 0.534186
v 0.000000 -0.189216 0.529515
v 0.000000 0.191953 -0.534186
v 0.000000 0.191953 -0.529515
v 0.000000 -0.189216 -0.534186
v 0.000000 -0.189216 -0.529515
v 0.000000 -0.189216 0.650000
v 0.000000 -0.184545 0.650000
v 0.000000 0.187282 0.650000
v 0.000000 0.191953 0.650000
v 0.112029 -0.189216 0.650000
v 0.116699 -0.189216 0.650000
v 0.116699 -0.184545 0.650000
v 0.112029 -0.184545 0.650000
v 0.112029 0.191953 0.650000
v 0.112029 0.187282 0.650000
v 0.116699 0.187282 0.650000
v 0.116699 0.191953 0.650000
v 0.000000 -0.184545 -0.650000
v 0.000000 -0.189216 -0.650000
v 0.000000 0.191953 -0.650000
v 0.000000 0.187282 -0.650000
v 0.112029 0.191953 -0.650000
v 0.116699 0.191953 -0.650000
v 0.116699 0.187282 -0.650000
v 0.112029 0.187282 -0.650000
v 0.112029 -0.189216 -0.650000
v 0.112029 -0.184545 -0.650000
v 0.116699 -0.184545 -0.650000
v 0.116699 -0.189216 -0.650000
v 0.180000 -0.184545 0.626629
v 0.180000 -0.189216 0.626629
v 0.180000 0.191953 0.626629
v 0.180000 0.187282 0.626629
v 0.156629 0.191953 0.650000
v 0.156629 0.187282 0.650000
v 0.156629 -0.184545 0.650000
v 0.156629 -0.189216 0.650000
v 0.156629 -0.189216 -0.650000
v 0.156629 -0.184545 -0.650000
v 0.156629 0.187282 -0.650000
v 0.156629 0.191953 -0.650000
v 0.180000 0.187282 -0.626629
v 0.180000 0.191953 -0.626629
v 0.180000 -0.189216 -0.626629
v 0.180000 -0.184545 -0.626629
v 0.180000 -0.189216 -0.534186
v 0.180000 -0.184545 -0.534186
v 0.180000 -0.189216 -0.529515
v 0.180000 0.191953 -0.534186
v 0.180000 0.187282 -0.534186
v 0.180000 0.191953 0.534186
v 0.180000 0.187282 0.534186
v 0.180000 0.003754 0.529515
v 0.180000 -0.189216 0.534186
v 0.180000 -0.189216 0.529515
v 0.180000 -0.184545 0.534186
v 0.180000 0.208510 -0.215123
v 0.180000 0.213181 -0.215123
v 0.180000 0.208510 0.529515
v 0.180000 0.213181 0.529515
v 0.116699 0.246483 -0.534186
v 0.112029 0.246483 -0.534186
v 0.112029 0.246483 -0.529515
v 0.116699 0.246483 -0.529515
v 0.116699 0.246483 0.534186
v 0.116699 0.246483 0.529515
v 0.112029 0.246483 0.529515
v 0.112029 0.246483 0.534186
v 0.112029 -0.246483 -0.529515
v 0.112029 -0.246483 -0.534186
v 0.116699 -0.246483 -0.534186
v 0.116699 -0.246483 -0.529515
v 0.112029 -0.246483 0.529515
v 0.116699 -0.246483 0.529515
v 0.116699 -0.246483 0.534186
v 0.112029 -0.246483 0.534186
v 0.116699 0.246483 -0.215123
v 0.116699 0.246483 -0.219794
v 0.112029 0.246483 -0.219794
v 0.112029 0.246483 -0.215123
v 0.176483 0.003754 -0.219794
v 0.176483 0.003754 -0.215123
v 0.003517 0.191953 -0.215123
v 0.003517 0.191953 -0.219794
v 0.003517 0.191953 0.534186
v 0.003517 0.191953 0.529515
v 0.003517 -0.189216 0.529515
v 0.003517 -0.189216 0.534186
v 0.003517 0.191953 -0.529515
v 0.003517 0.191953 -0.534186
v 0.003517 -0.189216 -0.534186
v 0.003517 -0.189216 -0.529515
v 0.112029 -0.184545 0.646483
v 0.112029 -0.189216 0.646483
v 0.116699 -0.189216 0.646483
v 0.116699 -0.184545 0.646483
v 0.116699 0.191953 0.646483
v 0.112029 0.191953 0.646483
v 0.112029 0.187282 0.646483
v 0.116699 0.187282 0.646483
v 0.112029 0.187282 -0.646483
v 0.112029 0.191953 -0.646483
v 0.116699 0.191953 -0.646483
v 0.116699 0.187282 -0.646483
v 0.116699 -0.189216 -0.646483
v 0.112029 -0.189216 -0.646483
v 0.112029 -0.184545 -0.646483
v 0.116699 -0.184545 -0.646483
v 0.176483 -0.189216 -0.534186
v 0.176483 -0.184545 -0.534186
v 0.180000 0.208510 0.077857
v 0.180000 0.003754 0.077857
v 0.176483 0.003754 -0.529515
v 0.176483 0.187282 -0.534186
v 0.176483 0.191953 -0.534186
v 0.176483 0.191953 0.534186
v 0.176483 0.187282 0.534186
v 0.176483 -0.184545 0.534186
v 0.176483 -0.189216 0.534186
v 0.176483 0.213181 -0.215123
v 0.176483 0.208510 -0.215123
v 0.176483 0.208510 0.529515
v 0.176483 0.213181 0.529515
v 0.155172 0.246483 -0.215123
v 0.155172 0.246483 -0.219794
v 0.176483 0.225172 -0.215123
v 0.176483 0.225172 -0.219794
v 0.003517 -0.246483 -0.529515
v 0.003517 -0.246483 -0.534186
v 0.003517 -0.246483 0.534186
v 0.003517 -0.246483 0.529515
v 0.003517 0.246483 -0.534186
v 0.003517 0.246483 -0.529515
v 0.003517 0.246483 0.529515
v 0.003517 0.246483 0.534186
v 0.003517 0.246483 -0.219794
v 0.003517 0.246483 -0.215123
v 0.112029 -0.202339 -0.646483
v 0.116699 -0.202339 -0.646483
v 0.116699 -0.246483 -0.602339
v 0.112029 -0.246483 -0.602339
v 0.116699 0.202339 -0.646483
v 0.112029 0.202339 -0.646483
v 0.112029 0.246483 -0.602339
v 0.116699 0.246483 -0.602339
v 0.116699 -0.202339 0.646483
v 0.112029 -0.202339 0.646483
v 0.112029 -0.246483 0.602339
v 0.116699 -0.246483 0.602339
v 0.112029 0.202339 0.646483
v 0.116699 0.202339 0.646483
v 0.116699 0.246483 0.602339
v 0.112029 0.246483 0.602339
v 0.176483 -0.225172 0.529515
v 0.176483 -0.225172 0.534186
v 0.155172 -0.246483 0.534186
v 0.155172 -0.246483 0.529515
v 0.155172 -0.246483 -0.529515
v 0.155172 -0.246483 -0.534186
v 0.176483 -0.225172 -0.534186
v 0.176483 -0.225172 -0.529515
v 0.176483 0.225172 -0.529515
v 0.176483 0.225172 -0.534186
v 0.155172 0.246483 -0.534186
v 0.155172 0.246483 -0.529515
v 0.155172 0.246483 0.529515
v 0.155172 0.246483 0.534186
v 0.176483 0.225172 0.534186
v 0.176483 0.225172 0.529515
v 0.176483 -0.184545 0.625172
v 0.176483 -0.189216 0.625172
v 0.176483 0.191953 0.625172
v 0.176483 0.187282 0.625172
v 0.176483 0.187282 -0.625172
v 0.176483 0.191953 -0.625172
v 0.176483 -0.189216 -0.625172
v 0.176483 -0.184545 -0.625172
v 0.003517 0.187282 0.646483
v 0.003517 0.191953 0.646483
v 0.003517 -0.189216 0.646483
v 0.003517 -0.184545 0.646483
v 0.155172 -0.189216 -0.646483
v 0.155172 -0.184545 -0.646483
v 0.155172 0.187282 -0.646483
v 0.155172 0.191953 -0.646483
v 0.155172 -0.184545 0.646483
v 0.155172 -0.189216 0.646483
v 0.155172 0.191953 0.646483
v 0.155172 0.187282 0.646483
v 0.003517 -0.184545 -0.646483
v 0.003517 -0.189216 -0.646483
v 0.003517 0.191953 -0.646483
v 0.003517 0.187282 -0.646483
v 0.180000 -0.169760 -0.611850
v 0.180000 0.172497 -0.611850
v 0.180000 0.172497 -0.589386
v 0.180000 -0.169760 -0.589386
v 0.180000 0.172497 0.611850
v 0.180000 -0.169760 0.611850
v 0.180000 -0.169760 0.589386
v 0.180000 0.172497 0.589386
v 0.175304 0.172497 -0.611850
v 0.175304 -0.169760 -0.611850
v 0.175304 -0.169760 -0.589386
v 0.175304 0.172497 -0.589386
v 0.175304 -0.169760 0.611850
v 0.175304 0.172497 0.611850
v 0.175304 0.172497 0.589386
v 0.175304 -0.169760 0.589386
v 0.176483 -0.189166 -0.529515
v 0.176483 0.003704 0.529515
v 0.176483 -0.189166 0.529515
v 0.180000 0.013253 0.087356
v 0.180000 0.199011 0.087356
v 0.180000 0.199011 0.520016
v 0.180000 0.013253 0.520016
v 0.173729 0.199011 0.087356
v 0.173729 0.013253 0.087356
v 0.173729 0.013253 0.520016
v 0.173729 0.199011 0.520016
v 0.173729 0.018757 0.092859
v 0.173729 0.193507 0.092859
v 0.173729 0.193507 0.514512
v 0.173729 0.018757 0.514512
v 0.170828 0.193507 0.092859
v 0.170828 0.018757 0.092859
v 0.170828 0.018757 0.514512
v 0.170828 0.193507 0.514512
v 0.159008 0.255742 -0.219794
v 0.116699 0.255742 -0.219794
v 0.185742 0.229008 -0.219794
v 0.116699 0.255742 -0.529515
v 0.159008 0.255742 -0.529515
v 0.185742 0.229008 -0.529515
v 0.185742 0.003754 -0.219794
v 0.185742 0.003754 -0.529515
v 0.180000 0.010469 -0.208408
v 0.180000 0.201795 -0.208408
v 0.180000 0.201795 0.071142
v 0.180000 0.010469 0.071142
v 0.175186 0.201795 -0.208408
v 0.175186 0.010469 -0.208408
v 0.175186 0.010469 0.071142
v 0.175186 0.201795 0.071142
v 0.175186 0.106132 -0.208408
v 0.175186 0.106132 0.071142
v 0.175186 0.058301 -0.208408
v 0.175186 0.058301 0.071142
v 0.175186 0.153964 -0.208408
v 0.175186 0.153964 0.071142
v 0.175186 0.150001 -0.204445
v 0.175186 0.150001 0.067179
v 0.175186 0.110095 0.067179
v 0.175186 0.110095 -0.204445
v 0.175186 0.054338 -0.204445
v 0.175186 0.054338 0.067179
v 0.175186 0.014432 0.067179
v 0.175186 0.014432 -0.204445
v 0.175186 0.102169 -0.204445
v 0.175186 0.102169 0.067179
v 0.175186 0.062264 0.067179
v 0.175186 0.062264 -0.204445
v 0.175186 0.197832 0.067179
v 0.175186 0.157927 0.067179
v 0.175186 0.157927 -0.204445
v 0.175186 0.197832 -0.204445
v 0.180550 0.150001 -0.204445
v 0.180550 0.150001 0.067179
v 0.180550 0.110095 -0.204445
v 0.180550 0.110095 0.067179
v 0.180550 0.054338 -0.204445
v 0.180550 0.054338 0.067179
v 0.180550 0.014432 -0.204445
v 0.180550 0.014432 0.067179
v 0.180550 0.102169 -0.204445
v 0.180550 0.102169 0.067179
v 0.180550 0.062264 -0.204445
v 0.180550 0.062264 0.067179
v 0.180550 0.197832 0.067179
v 0.180550 0.157927 0.067179
v 0.180550 0.197832 -0.204445
v 0.180550 0.157927 -0.204445
v 0.180550 0.145895 -0.200339
v 0.180550 0.145895 0.063073
v 0.180550 0.114201 0.063073
v 0.180550 0.114201 -0.200339
v 0.180550 0.050232 -0.200339
v 0.180550 0.050232 0.063073
v 0.180550 0.018538 0.063073
v 0.180550 0.018538 -0.200339
v 0.180550 0.098063 -0.200339
v 0.180550 0.098063 0.063073
v 0.180550 0.066369 0.063073
v 0.180550 0.066369 -0.200339
v 0.180550 0.193727 0.063073
v 0.180550 0.162033 0.063073
v 0.180550 0.162033 -0.200339
v 0.180550 0.193727 -0.200339
v 0.180550 0.145895 -0.068633
v 0.180550 0.114201 -0.068633
v 0.180550 0.193727 -0.068633
v 0.180550 0.162033 -0.068633
v 0.180550 0.050232 -0.002780
v 0.180550 0.018538 -0.002780
v 0.180550 0.098063 -0.002780
v 0.180550 0.066369 -0.002780
v 0.180550 0.193727 -0.134486
v 0.180550 0.162033 -0.002780
v 0.180550 0.145895 -0.134486
v 0.180550 0.114201 -0.134486
v 0.180550 0.050232 -0.134486
v 0.180550 0.018538 -0.134486
v 0.180550 0.193727 -0.002780
v 0.180550 0.162033 -0.134486
v 0.180550 0.047189 -0.005822
v 0.180550 0.021580 -0.005822
v 0.180550 0.021580 -0.131444
v 0.180550 0.047189 -0.131444
v 0.180550 0.190684 -0.071675
v 0.180550 0.165075 -0.071675
v 0.180550 0.165075 -0.131444
v 0.180550 0.190684 -0.131444
v 0.180550 0.142853 -0.137529
v 0.180550 0.117243 -0.137529
v 0.180550 0.117243 -0.197297
v 0.180550 0.142853 -0.197297
v 0.180550 0.142853 -0.071675
v 0.180550 0.117243 -0.071675
v 0.180550 0.117243 -0.131444
v 0.180550 0.142853 -0.131444
v 0.180550 0.047189 -0.137529
v 0.180550 0.021580 -0.137529
v 0.180550 0.021580 -0.197297
v 0.180550 0.047189 -0.197297
v 0.180550 0.142853 0.060031
v 0.180550 0.117243 0.060031
v 0.180550 0.117243 -0.065591
v 0.180550 0.142853 -0.065591
v 0.180550 0.095021 -0.005822
v 0.180550 0.069412 -0.005822
v 0.180550 0.069412 -0.197297
v 0.180550 0.095021 -0.197297
v 0.180550 0.190684 -0.005822
v 0.180550 0.165075 -0.005822
v 0.180550 0.165075 -0.065591
v 0.180550 0.190684 -0.065591
v 0.180550 0.190684 0.060031
v 0.180550 0.165075 0.060031
v 0.180550 0.165075 0.000262
v 0.180550 0.190684 0.000262
v 0.180550 0.190684 -0.137529
v 0.180550 0.165075 -0.137529
v 0.180550 0.165075 -0.197297
v 0.180550 0.190684 -0.197297
v 0.180550 0.095021 0.060031
v 0.180550 0.069412 0.060031
v 0.180550 0.069412 0.000262
v 0.180550 0.095021 0.000262
v 0.180550 0.047189 0.060031
v 0.180550 0.021580 0.060031
v 0.180550 0.021580 0.000262
v 0.180550 0.047189 0.000262
v 0.178970 0.047189 -0.005822
v 0.178970 0.021580 -0.005822
v 0.178970 0.047189 -0.131444
v 0.178970 0.021580 -0.131444
v 0.178970 0.165075 -0.071675
v 0.178970 0.190684 -0.071675
v 0.178970 0.190684 -0.131444
v 0.178970 0.165075 -0.131444
v 0.178970 0.142853 -0.137529
v 0.178970 0.117243 -0.137529
v 0.178970 0.142853 -0.197297
v 0.178970 0.117243 -0.197297
v 0.178970 0.142853 -0.071675
v 0.178970 0.117243 -0.071675
v 0.178970 0.142853 -0.131444
v 0.178970 0.117243 -0.131444
v 0.178970 0.047189 -0.137529
v 0.178970 0.021580 -0.137529
v 0.178970 0.047189 -0.197297
v 0.178970 0.021580 -0.197297
v 0.178970 0.142853 0.060031
v 0.178970 0.117243 0.060031
v 0.178970 0.142853 -0.065591
v 0.178970 0.117243 -0.065591
v 0.178970 0.095021 -0.005822
v 0.178970 0.069412 -0.005822
v 0.178970 0.095021 -0.197297
v 0.178970 0.069412 -0.197297
v 0.178970 0.165075 -0.005822
v 0.178970 0.190684 -0.005822
v 0.178970 0.190684 -0.065591
v 0.178970 0.165075 -0.065591
v 0.178970 0.190684 0.060031
v 0.178970 0.165075 0.060031
v 0.178970 0.190684 0.000262
v 0.178970 0.165075 0.000262
v 0.178970 0.165075 -0.137529
v 0.178970 0.190684 -0.137529
v 0.178970 0.190684 -0.197297
v 0.178970 0.165075 -0.197297
v 0.178970 0.095021 0.060031
v 0.178970 0.069412 0.060031
v 0.178970 0.095021 0.000262
v 0.178970 0.069412 0.000262
v 0.178970 0.047189 0.060031
v 0.178970 0.021580 0.060031
v 0.178970 0.047189 0.000262
v 0.178970 0.021580 0.000262
v 0.003719 -0.169248 -0.529515
v 0.003719 -0.184545 -0.514218
v 0.003719 -0.000916 -0.514218
v 0.003719 -0.016214 -0.529515
v 0.003719 -0.016214 0.529515
v 0.003719 -0.000916 0.514218
v 0.003719 -0.184545 0.514218
v 0.003719 -0.169248 0.529515
v 0.176483 -0.166026 -0.521738
v 0.176483 -0.176768 -0.510997
v 0.176483 -0.021963 -0.510997
v 0.176483 -0.032705 -0.521738
v 0.176483 -0.032705 0.521738
v 0.176483 -0.021963 0.510997
v 0.176483 -0.176768 0.510997
v 0.176483 -0.166026 0.521738
v 0.003719 -0.166026 -0.521738
v 0.003719 -0.176768 -0.510997
v 0.003719 -0.021963 -0.510997
v 0.003719 -0.032705 -0.521738
v 0.003719 -0.032705 0.521738
v 0.003719 -0.021963 0.510997
v 0.003719 -0.176768 0.510997
v 0.003719 -0.166026 0.521738
vn -0.0000 -1.0000 -0.0000
vn 1.0000 -0.0000 -0.0000
vn -0.0000 0.7071 0.7071
vn -0.0000 1.0000 -0.0000
vn -0.0000 -0.7071 -0.7071
vn -0.0000 0.7071 -0.7071
vn -1.0000 -0.0000 -0.0000
vn -0.0000 -0.7071 0.7071
vn 0.7071 0.7071 -0.0000
vn -0.0000 -0.0000 1.0000
vn -0.0000 -0.0000 -1.0000
vn 0.7071 -0.7071 -0.0000
vn 0.7071 0.5000 -0.5000
vn 0.7071 -0.5000 0.5000
vn 0.7071 -0.5000 -0.5000
vn 0.7071 0.5000 0.5000
vn 0.7071 -0.0000 0.7071
vn 0.7071 -0.0000 -0.7071
vn 0.0071 -1.0000 -0.0000
vn 0.0142 0.9999 -0.0000
vt 0.342540 0.583516
vt 0.342540 0.666484
vt 0.287082 0.666484
vt 0.287082 0.583516
vt 0.440672 0.666484
vt 0.386685 0.666484
vt 0.386686 0.583516
vt 0.440672 0.583516
vt 0.625000 0.844405
vt 0.625000 1.000000
vt 0.601898 1.000000
vt 0.601898 0.844405
vt 0.719405 0.608147
vt 0.875000 0.608147
vt 0.875000 0.666484
vt 0.719405 0.666484
vt 0.342540 0.532589
vt 0.287082 0.532589
vt 0.287082 0.500000
vt 0.342540 0.500000
vt 0.625000 0.412082
vt 0.625000 0.467540
vt 0.601898 0.467540
vt 0.601898 0.412082
vt 0.657460 0.668314
vt 0.712918 0.668314
vt 0.712918 0.717411
vt 0.657460 0.717411
vt 0.625000 0.217411
vt 0.601898 0.250000
vt 0.559866 0.250000
vt 0.565658 0.168314
vt 0.625000 0.168314
vt 0.442559 0.000000
vt 0.435930 0.081686
vt 0.375000 0.081686
vt 0.375000 0.032589
vt 0.398102 0.000000
vt 0.565658 0.142219
vt 0.625000 0.142219
vt 0.625000 0.166484
vt 0.565658 0.166484
vt 0.125000 0.668314
vt 0.280595 0.668314
vt 0.280595 0.717411
vt 0.125000 0.717411
vt 0.657460 0.608147
vt 0.712918 0.608147
vt 0.712918 0.666484
vt 0.657460 0.666484
vt 0.565658 0.083516
vt 0.625000 0.083516
vt 0.625000 0.141853
vt 0.565658 0.141853
vt 0.280595 0.717411
vt 0.280595 0.750000
vt 0.125000 0.750000
vt 0.613314 0.666484
vt 0.613315 0.608147
vt 0.287082 0.668314
vt 0.342540 0.668314
vt 0.342540 0.717411
vt 0.287082 0.717411
vt 0.559866 0.782460
vt 0.601898 0.782460
vt 0.601898 0.837918
vt 0.559866 0.837918
vt 0.398102 0.250000
vt 0.442559 0.250000
vt 0.442559 0.405595
vt 0.398102 0.405595
vt 0.625000 0.782460
vt 0.625000 0.837918
vt 0.601898 0.782460
vt 0.559866 0.844405
vt 0.601898 0.844405
vt 0.559866 1.000000
vt 0.601898 0.405595
vt 0.559866 0.405595
vt 0.559866 0.412082
vt 0.559866 0.467540
vt 0.398102 0.782460
vt 0.442559 0.782460
vt 0.442559 0.837918
vt 0.398102 0.837918
vt 0.280595 0.532589
vt 0.125000 0.532589
vt 0.125000 0.500000
vt 0.280595 0.500000
vt 0.719405 0.583516
vt 0.875000 0.583516
vt 0.875000 0.607781
vt 0.719405 0.607781
vt 0.342540 0.581686
vt 0.386685 0.539417
vt 0.386685 0.581686
vt 0.613314 0.710583
vt 0.613314 0.668314
vt 0.613315 0.539417
vt 0.597058 0.516484
vt 0.601898 0.500000
vt 0.625000 0.532589
vt 0.375000 0.722239
vt 0.375000 0.745172
vt 0.342540 0.750000
vt 0.375000 0.504828
vt 0.375000 0.527761
vt 0.597058 0.733516
vt 0.625000 0.717411
vt 0.601898 0.750000
vt 0.436212 0.516484
vt 0.440672 0.581686
vt 0.402942 0.516484
vt 0.590767 0.666484
vt 0.591844 0.608147
vt 0.436212 0.733516
vt 0.402942 0.733516
vt 0.386685 0.710583
vt 0.386685 0.668314
vt 0.440672 0.668314
vt 0.452673 0.733516
vt 0.548526 0.733516
vt 0.550946 0.782460
vt 0.450312 0.782460
vt 0.560697 0.668314
vt 0.574014 0.733516
vt 0.657460 0.532589
vt 0.657460 0.581686
vt 0.613315 0.581686
vt 0.574014 0.516484
vt 0.560887 0.581686
vt 0.719405 0.668314
vt 0.875000 0.668314
vt 0.875000 0.717411
vt 0.719405 0.717411
vt 0.342540 0.581686
vt 0.287082 0.581686
vt 0.719405 0.532589
vt 0.875000 0.532589
vt 0.875000 0.581686
vt 0.719405 0.581686
vt 0.435930 0.083516
vt 0.435930 0.166484
vt 0.375000 0.166484
vt 0.375000 0.083516
vt 0.712918 0.532589
vt 0.712918 0.581686
vt 0.550946 0.000000
vt 0.550946 0.250000
vt 0.450312 0.250000
vt 0.450312 0.000000
vt 0.398102 0.467540
vt 0.442559 0.467540
vt 0.436212 0.516484
vt 0.559866 0.000000
vt 0.601898 0.000000
vt 0.625000 0.032589
vt 0.625000 0.081686
vt 0.565658 0.081686
vt 0.450312 0.782460
vt 0.550946 0.837918
vt 0.450312 0.837918
vt 0.450312 0.844405
vt 0.550946 0.844405
vt 0.550946 1.000000
vt 0.450312 1.000000
vt 0.386685 0.668314
vt 0.342540 0.668314
vt 0.442559 0.250000
vt 0.375000 0.217411
vt 0.375000 0.168314
vt 0.435930 0.168314
vt 0.625000 0.250000
vt 0.625000 0.405595
vt 0.436212 0.733516
vt 0.442559 0.782460
vt 0.398102 0.844405
vt 0.442559 0.844405
vt 0.442559 1.000000
vt 0.398102 1.000000
vt 0.550946 0.405595
vt 0.450312 0.405595
vt 0.450312 0.250000
vt 0.550946 0.412082
vt 0.550946 0.467540
vt 0.450312 0.467540
vt 0.450312 0.412082
vt 0.280595 0.532589
vt 0.280595 0.581686
vt 0.125000 0.581686
vt 0.450312 0.467540
vt 0.550946 0.467540
vt 0.548526 0.516484
vt 0.452673 0.516484
vt 0.287082 0.750000
vt 0.450265 0.678742
vt 0.551101 0.678742
vt 0.545817 0.526912
vt 0.551101 0.571258
vt 0.398102 0.412082
vt 0.442559 0.412082
vt 0.501402 0.666484
vt 0.583606 0.666484
vt 0.386686 0.583516
vt 0.342540 0.583516
vt 0.501402 0.583516
vt 0.501402 0.607781
vt 0.613315 0.583516
vt 0.125000 0.666484
vt 0.280595 0.666484
vt 0.342540 0.666484
vt 0.280595 0.583516
vt 0.125000 0.583516
vt 0.548526 0.733516
vt 0.556653 0.668314
vt 0.452673 0.733516
vt 0.444744 0.668314
vt 0.548526 0.516484
vt 0.556653 0.581686
vt 0.712918 0.607781
vt 0.712918 0.583516
vt 0.501402 0.608147
vt 0.501402 0.637315
vt 0.452673 0.516484
vt 0.444744 0.581686
vt 0.613315 0.607781
vt 0.657460 0.607781
vt 0.657460 0.583516
vt 0.584732 0.608147
vt 0.440715 0.666484
vt 0.501387 0.583516
vt 0.499996 0.584715
vt 0.499996 0.583516
vt 0.504119 0.636647
vt 0.504132 0.608815
vt 0.657460 0.607781
vt 0.657460 0.583516
vt 0.584169 0.637315
vt 0.455414 0.526912
vt 0.450265 0.571258
vt 0.455414 0.723088
vt 0.545817 0.723088
vt 0.501387 0.666484
vt 0.495393 0.666484
vt 0.499996 0.666484
vt 0.579802 0.665870
vt 0.505218 0.665870
vt 0.580321 0.637929
vt 0.505239 0.637929
vt 0.578091 0.638284
vt 0.577597 0.665515
vt 0.507461 0.638284
vt 0.507430 0.665515
vt 0.581989 0.608815
vt 0.581465 0.636647
vt 0.562525 0.608815
vt 0.543061 0.608815
vt 0.523596 0.608815
vt 0.523456 0.636647
vt 0.542792 0.636647
vt 0.562129 0.636647
vt 0.525060 0.636252
vt 0.525206 0.609210
vt 0.563737 0.636252
vt 0.564131 0.609210
vt 0.505722 0.636252
vt 0.505744 0.609209
vt 0.541193 0.636252
vt 0.560532 0.636252
vt 0.560907 0.609210
vt 0.544398 0.636252
vt 0.544669 0.609210
vt 0.521855 0.636252
vt 0.521982 0.609210
vt 0.541445 0.609210
vt 0.579870 0.636252
vt 0.580370 0.609210
vt 0.577099 0.629590
vt 0.576992 0.635540
vt 0.566929 0.616477
vt 0.577332 0.616477
vt 0.558877 0.635843
vt 0.559054 0.622731
vt 0.559143 0.616174
vt 0.559231 0.609618
vt 0.546063 0.635843
vt 0.546335 0.609618
vt 0.546267 0.616175
vt 0.546199 0.622731
vt 0.520196 0.635843
vt 0.520225 0.629287
vt 0.520282 0.616175
vt 0.520310 0.609618
vt 0.507382 0.635843
vt 0.507414 0.609618
vt 0.507406 0.616174
vt 0.507390 0.629287
vt 0.539537 0.635843
vt 0.539595 0.629287
vt 0.539771 0.609618
vt 0.526723 0.635843
vt 0.526874 0.609618
vt 0.526761 0.629287
vt 0.565403 0.635843
vt 0.578217 0.635843
vt 0.565796 0.609618
vt 0.565698 0.616175
vt 0.565599 0.622731
vt 0.565501 0.629287
vt 0.578692 0.609618
vt 0.578336 0.629287
vt 0.578455 0.622731
vt 0.578573 0.616175
vt 0.528110 0.609921
vt 0.538530 0.609921
vt 0.557824 0.622428
vt 0.547436 0.622428
vt 0.508622 0.629590
vt 0.518992 0.629590
vt 0.566638 0.635540
vt 0.566838 0.622428
vt 0.527995 0.628984
vt 0.508613 0.635540
vt 0.577226 0.622428
vt 0.538366 0.628984
vt 0.518968 0.635540
vt 0.508623 0.628984
vt 0.518994 0.628984
vt 0.508641 0.616477
vt 0.519045 0.616477
vt 0.547506 0.615872
vt 0.557911 0.615872
vt 0.547570 0.609921
vt 0.557989 0.609921
vt 0.547500 0.616477
vt 0.557903 0.616477
vt 0.508642 0.615872
vt 0.519047 0.615872
vt 0.508651 0.609921
vt 0.519071 0.609921
vt 0.547296 0.635540
vt 0.557651 0.635540
vt 0.547430 0.623034
vt 0.557816 0.623034
vt 0.566738 0.628984
vt 0.577109 0.628984
vt 0.566829 0.623034
vt 0.577215 0.623034
vt 0.566728 0.629590
vt 0.566938 0.615872
vt 0.577343 0.615872
vt 0.567029 0.609921
vt 0.577449 0.609921
vt 0.527955 0.635540
vt 0.538309 0.635540
vt 0.527991 0.629590
vt 0.538361 0.629590
vt 0.449347 0.583516
vt 0.495394 0.583516
vt 0.499996 0.665285
vt 0.449347 0.666484
vt 0.444744 0.665285
vt 0.444744 0.584715
vt 0.444744 0.666484
vt 0.444744 0.583516
vt 0.440716 0.583516
s 0
usemtl M_Noir_Bleuté
f 175/66/19 174/67/19 146/68/19 144/69/19
f 247/70/20 171/71/20 178/72/20 240/73/20
f 170/74/21 106/75/21 105/76/21 167/77/21
f 151/78/22 154/79/22 131/80/22 139/81/22
f 120/82/23 157/83/23 156/84/23 122/85/23
f 162/86/24 126/87/24 124/88/24 159/89/24
f 182/90/22 141/91/22 169/92/22 116/93/22
f 109/94/25 110/95/25 212/96/25 194/97/25 133/98/25
f 198/99/25 192/100/25 129/101/25 103/102/25 104/103/25
f 188/104/25 153/105/25 134/106/25 195/107/25
f 129/108/19 148/109/19 165/110/19 103/111/19
f 185/112/22 152/113/22 138/114/22 181/115/22
f 191/116/25 131/117/25 154/118/25 189/119/25
f 103/111/26 165/120/26 164/121/26 104/122/26
f 185/112/27 181/115/27 184/123/27 186/124/27
f 147/125/19 173/126/19 114/127/19 166/128/19
f 226/129/28 118/130/28 168/131/28 209/132/28
f 107/133/29 211/134/29 218/135/29 155/136/29
f 116/137/21 169/138/21 168/131/21 118/139/21
f 206/140/28 167/141/28 105/76/28 201/142/28
f 212/96/29 110/95/29 160/143/29 214/144/29
f 215/145/29 159/89/29 124/88/29 233/146/29
f 112/147/28 229/148/28 203/149/28 163/150/28
f 158/151/23 108/152/23 107/153/23 155/154/23
f 136/155/22 134/156/22 153/157/22 150/158/22
f 176/159/30 120/82/30 119/160/30 177/161/30
f 182/90/27 116/93/27 115/162/27 183/163/27
f 125/164/31 123/165/31 124/166/31 126/167/31
f 113/168/32 111/169/32 112/170/32 114/127/32
f 121/171/33 119/172/33 120/82/33 122/85/33
f 117/173/34 115/162/34 116/174/34 118/175/34
f 236/176/20 238/177/20 177/161/20 119/160/20 121/178/20
f 252/179/20 250/180/20 186/124/20 184/123/20
f 223/181/20 111/182/20 113/183/20 172/184/20 246/185/20
f 222/186/35 225/187/35 227/188/35 228/189/35
f 243/190/20 183/163/20 115/162/20 117/173/20 224/191/20
f 126/192/27 180/193/27 179/194/27 125/164/27
f 235/195/20 123/165/20 125/164/20 179/194/20 241/196/20
f 140/197/22 132/198/22 106/199/22 170/200/22
f 157/83/19 120/82/19 176/201/19 143/202/19
f 161/203/22 109/204/22 133/205/22 135/206/22
f 193/207/25 197/208/25 127/209/25 130/210/25
f 126/192/22 162/211/22 137/212/22 180/193/22
f 200/213/25 213/214/25 210/215/25 199/216/25
f 122/217/36 230/218/36 236/219/36 121/178/36
f 201/220/25 105/221/25 106/222/25 132/223/25 190/224/25
f 228/225/28 227/188/28 208/226/28 204/227/28
f 205/228/28 207/229/28 200/230/28 199/231/28
f 172/232/30 113/183/30 114/127/30 173/233/30
f 233/146/36 124/88/36 123/165/36 235/195/36
f 224/191/35 117/173/35 118/130/35 226/129/35
f 211/234/25 107/133/25 108/235/25 128/236/25 196/237/25
f 212/96/19 384/96/19 282/97/19 194/97/19
f 109/238/24 161/239/24 160/143/24 110/95/24
f 111/182/35 223/240/35 229/241/35 112/147/35
f 164/242/28 202/243/28 198/244/28 104/245/28
f 213/214/29 217/246/29 219/247/29 210/248/29
f 216/249/29 232/250/29 231/251/29 220/252/29
f 108/152/19 158/253/19 142/254/19 128/255/19
f 231/256/36 232/257/36 234/258/36 237/259/36
f 166/128/26 114/127/26 112/170/26 163/260/26
f 392/261/28 393/262/28 400/262/28 401/261/28
f 387/263/19 388/264/19 397/264/19 394/263/19
f 156/265/29 221/266/29 230/218/29 122/217/29
f 229/241/22 223/240/22 363/240/22 379/241/22
f 252/179/28 184/123/28 361/123/28 315/179/28
f 245/267/28 251/268/28 314/268/28 403/267/28
f 134/156/29 136/155/29 255/155/29 325/156/29
f 178/269/29 175/270/29 350/270/29 353/269/29
f 183/163/29 243/190/29 308/190/29 360/163/29
f 222/186/19 228/189/19 378/189/19 362/186/19
f 130/274/28 149/275/28 265/275/28 323/274/28
f 234/258/22 232/257/22 376/257/22 366/258/22
f 176/159/28 177/161/28 352/161/28 351/159/28
f 186/124/29 250/180/29 312/180/29 318/124/29
f 233/146/19 235/195/19 367/195/19 377/146/19
f 217/246/22 213/214/22 385/214/22 293/246/22
f 148/109/29 129/108/29 322/108/29 268/109/29
f 174/276/28 171/71/28 346/71/28 349/276/28
f 212/96/19 214/144/19 294/144/19 384/96/19
f 240/73/29 178/72/29 353/72/29 402/73/29
f 128/255/28 142/254/28 262/254/28 321/255/28
f 236/219/22 230/218/22 374/218/22 368/219/22
f 218/135/22 211/134/22 383/134/22 298/135/22
f 177/161/28 238/177/28 301/177/28 352/161/28
f 231/256/19 237/259/19 369/259/19 375/256/19
f 172/232/29 173/233/29 348/233/29 347/232/29
f 210/248/19 219/247/19 299/247/19 382/248/19
f 211/234/22 196/237/22 283/237/22 383/234/22
f 145/277/29 127/278/29 320/278/29 261/277/29
f 225/279/22 244/280/22 309/280/22 365/279/22
f 144/69/25 146/68/25 266/68/25 264/69/25
f 224/191/19 364/191/19 308/190/19 243/190/19
f 161/203/20 135/206/20 254/206/20 336/203/20
f 217/246/20 293/246/20 299/247/20 219/247/20
f 137/212/25 162/211/25 337/211/25 253/212/25
f 222/281/19 362/281/19 310/282/19 248/282/19
f 142/254/20 158/253/20 333/253/20 262/254/20
f 216/249/25 220/252/25 300/252/25 296/249/25
f 138/114/25 152/113/25 269/113/25 258/114/25
f 234/283/22 366/283/22 306/284/22 242/284/22
f 157/83/25 143/202/25 263/202/25 332/83/25
f 214/144/20 160/143/20 335/143/20 294/144/20
f 151/78/20 139/81/20 259/81/20 272/78/20
f 155/136/20 218/135/20 298/135/20 330/136/20
f 223/181/22 246/185/22 311/185/22 363/181/22
f 159/89/25 215/145/25 295/145/25 334/89/25
f 187/287/37 304/288/37 245/267/37 403/267/37 274/287/37
f 221/266/25 156/265/25 331/265/25 297/266/25
f 247/70/38 240/73/38 402/73/38 404/70/38
f 235/195/19 241/196/19 307/196/19 367/195/19
f 140/197/20 170/200/20 345/200/20 260/197/20
f 237/289/19 239/290/19 302/290/19 369/289/19
f 185/112/29 186/124/29 318/124/29 316/112/29
f 169/92/25 141/91/25 257/91/25 344/92/25
f 205/228/20 285/228/20 291/229/20 207/229/20
f 165/110/20 148/109/20 268/109/20 340/110/20
f 192/100/22 198/99/22 372/99/22 280/100/22
f 236/176/22 368/176/22 301/177/22 238/177/22
f 147/125/25 166/128/25 341/128/25 267/125/25
f 204/227/25 208/226/25 292/226/25 288/227/25
f 152/113/29 185/112/29 316/112/29 269/113/29
f 191/116/19 189/119/19 275/119/19 278/116/19
f 167/141/20 206/140/20 290/140/20 342/141/20
f 202/243/20 164/242/20 339/242/20 286/243/20
f 201/220/19 190/224/19 277/224/19 371/220/19
f 209/132/25 168/131/25 343/131/25 289/132/25
f 200/230/22 207/229/22 291/229/22 370/230/22
f 163/150/25 203/149/25 287/149/25 338/150/25
f 206/140/19 201/142/19 371/142/19 290/140/19
f 195/107/29 134/106/29 325/106/29 281/107/29
f 136/155/20 150/158/20 271/158/20 255/155/20
f 198/244/22 202/243/22 286/243/22 372/244/22
f 133/98/28 194/97/28 282/97/28 324/98/28
f 149/275/20 145/277/20 261/277/20 265/275/20
f 205/228/19 199/231/19 373/231/19 285/228/19
f 190/224/29 132/223/29 327/223/29 277/224/29
f 131/117/28 191/116/28 278/116/28 326/117/28
f 197/208/22 193/207/22 279/207/22 284/208/22
f 170/74/20 167/77/20 342/77/20 345/74/20
f 188/104/19 195/107/19 281/107/19 276/104/19
f 189/119/29 154/118/29 329/118/29 275/119/29
f 153/105/28 188/104/28 276/104/28 328/105/28
f 168/131/25 169/138/25 344/138/25 343/131/25
f 199/216/19 210/215/19 382/215/19 373/216/19
f 249/294/29 187/287/29 274/287/29 313/294/29
f 127/278/19 145/277/19 149/275/19 130/274/19
f 432/299/22 429/300/22 434/300/22 435/299/22
f 239/290/28 242/284/28 306/284/28 302/290/28
f 135/206/28 133/205/28 324/205/28 254/206/28
f 244/280/29 248/282/29 310/282/29 309/280/29
f 251/268/22 303/303/22 249/294/22 313/294/22 314/268/22
f 179/194/28 180/193/28 356/193/28 355/194/28
f 224/191/19 226/129/19 380/129/19 364/191/19
f 200/213/22 370/213/22 385/214/22 213/214/22
f 250/180/19 252/179/19 315/179/19 312/180/19
f 132/198/29 140/197/29 260/197/29 327/198/29
f 227/188/22 225/187/22 365/187/22 381/188/22
f 139/81/28 131/80/28 326/80/28 259/81/28
f 182/90/29 183/163/29 360/163/29 359/90/29
f 154/79/29 151/78/29 272/78/29 329/79/29
f 150/158/28 153/157/28 328/157/28 271/158/28
f 184/123/28 181/115/28 358/115/28 361/123/28
f 193/207/28 130/210/28 323/210/28 279/207/28
f 241/196/28 179/194/28 355/194/28 307/196/28
f 220/252/19 231/251/19 375/251/19 300/252/19
f 129/101/29 192/100/29 280/100/29 322/101/29
f 230/218/22 221/266/22 297/266/22 374/218/22
f 196/237/28 128/236/28 321/236/28 283/237/28
f 246/185/29 172/184/29 347/184/29 311/185/29
f 215/145/19 233/146/19 377/146/19 295/145/19
f 127/209/29 197/208/29 284/208/29 320/209/29
f 171/71/28 247/70/28 404/70/28 346/71/28
f 232/250/22 216/249/22 296/249/22 376/250/22
f 143/202/28 176/201/28 351/201/28 263/202/28
f 228/225/19 204/227/19 288/227/19 378/225/19
f 156/84/25 157/83/25 332/83/25 331/84/25
f 175/66/29 144/69/29 264/69/29 350/66/29
f 203/149/22 229/148/22 379/148/22 287/149/22
f 173/126/29 147/125/29 267/125/29 348/126/29
f 226/129/19 209/132/19 289/132/19 380/129/19
f 158/151/20 155/154/20 330/154/20 333/151/20
f 146/68/28 174/67/28 349/67/28 266/68/28
f 208/226/22 227/188/22 381/188/22 292/226/22
f 180/193/28 137/212/28 253/212/28 356/193/28
f 160/143/20 161/239/20 336/239/20 335/143/20
f 141/91/29 182/90/29 359/90/29 257/91/29
f 162/86/25 159/89/25 334/89/25 337/86/25
f 181/115/28 138/114/28 258/114/28 358/115/28
f 164/121/20 165/120/20 340/120/20 339/121/20
f 166/128/25 163/260/25 338/260/25 341/128/25
f 175/270/30 178/269/30 171/71/30 174/276/30
f 237/289/20 234/283/20 387/263/20 386/304/20
f 234/283/20 242/284/20 388/264/20 387/263/20
f 242/284/20 239/290/20 389/305/20 388/264/20
f 239/290/20 237/289/20 386/304/20 389/305/20
f 225/279/20 222/281/20 391/306/20 390/307/20
f 222/281/20 248/282/20 392/261/20 391/306/20
f 248/282/20 244/280/20 393/262/20 392/261/20
f 244/280/20 225/279/20 390/307/20 393/262/20
f 386/304/28 387/263/28 394/263/28 395/304/28
f 393/262/19 390/307/19 399/307/19 400/262/19
f 388/264/29 389/305/29 396/305/29 397/264/29
f 389/305/22 386/304/22 395/304/22 396/305/22
f 391/306/22 392/261/22 401/261/22 398/306/22
f 390/307/29 391/306/29 398/306/29 399/307/29
f 407/311/29 408/312/29 411/312/29 412/311/29
f 304/288/20 303/303/20 406/313/20 405/314/20
f 303/303/20 251/268/20 407/311/20 406/313/20
f 251/268/20 245/267/20 408/312/20 407/311/20
f 245/267/20 304/288/20 405/314/20 408/312/20
f 408/312/22 405/314/22 410/314/22 411/312/22
f 406/313/19 407/311/19 412/311/19 409/313/19
f 405/314/28 406/313/28 409/313/28 410/314/28
f 187/287/20 249/294/20 430/319/20 429/300/20
f 249/294/20 303/303/20 431/320/20 430/319/20
f 303/303/20 304/288/20 432/299/20 431/320/20
f 304/288/20 187/287/20 429/300/20 432/299/20
f 430/319/19 431/320/19 436/320/19 433/319/19
f 429/300/28 430/319/28 433/319/28 441/321/28 437/322/28 439/323/28 434/300/28
f 431/320/29 432/299/29 435/299/29 440/324/29 438/325/29 442/326/29 436/320/29
f 453/327/19 454/328/19 469/328/19 470/327/19
f 456/329/19 457/330/19 474/330/19 472/329/19
f 449/331/19 450/332/19 465/332/19 466/331/19
f 452/333/28 453/327/28 470/327/28 468/333/28
f 542/343/19 539/344/19 587/344/19 589/343/19
f 513/345/28 514/346/28 561/346/28 562/345/28
f 457/330/29 458/342/29 473/342/29 474/330/29
f 443/335/22 444/334/22 460/334/22 459/335/22
f 447/339/22 448/338/22 464/338/22 463/339/22
f 446/337/29 443/335/29 459/335/29 461/337/29
f 451/340/22 452/333/22 468/333/22 467/340/22
f 450/332/29 447/339/29 463/339/29 465/332/29
f 455/341/28 456/329/28 472/329/28 471/341/28
f 444/334/28 445/336/28 462/336/28 460/334/28
f 454/328/29 451/340/29 467/340/29 469/328/29
f 448/338/28 449/331/28 466/331/28 464/338/28
f 458/342/22 455/341/22 471/341/22 473/342/22
f 445/336/19 446/337/19 461/337/19 462/336/19
f 459/335/20 460/334/20 476/347/20 491/348/20 501/349/20 475/350/20
f 460/334/20 462/336/20 477/351/20 476/347/20
f 462/336/20 461/337/20 478/352/20 502/353/20 492/354/20 477/351/20
f 461/337/20 459/335/20 475/350/20 478/352/20
f 463/339/20 464/338/20 480/355/20 495/356/20 503/357/20 479/358/20
f 464/338/20 466/331/20 481/359/20 480/355/20
f 466/331/20 465/332/20 482/360/20 504/361/20 496/362/20 481/359/20
f 465/332/20 463/339/20 479/358/20 482/360/20
f 467/340/20 468/333/20 484/363/20 497/364/20 483/365/20
f 468/333/20 470/327/20 485/366/20 484/363/20
f 470/327/20 469/328/20 486/367/20 498/368/20 485/366/20
f 469/328/20 467/340/20 483/365/20 486/367/20
f 471/341/20 472/329/20 488/369/20 487/370/20
f 472/329/20 474/330/20 489/371/20 506/372/20 494/373/20 500/374/20 488/369/20
f 474/330/20 473/342/20 490/375/20 489/371/20
f 473/342/20 471/341/20 487/370/20 505/376/20 493/377/20 499/378/20 490/375/20
f 533/379/28 534/380/28 581/380/28 582/379/28
f 519/381/29 520/382/29 568/382/29 567/381/29
f 553/383/28 554/384/28 601/384/28 602/383/28
f 539/344/29 540/385/29 588/385/29 587/344/29
f 512/386/22 513/345/22 562/345/22 559/386/22
f 532/387/22 533/379/22 582/379/22 580/387/22
f 552/388/22 553/383/22 602/383/22 600/388/22
f 514/346/19 511/389/19 560/389/19 561/346/19
f 534/380/19 531/390/19 579/390/19 581/380/19
f 554/384/19 551/391/19 599/391/19 601/384/19
f 495/356/20 496/362/20 508/392/20 507/393/20
f 496/362/20 504/361/20 509/394/20 508/392/20
f 504/361/20 503/357/20 510/395/20 509/394/20
f 503/357/20 495/356/20 507/393/20 510/395/20
f 493/377/20 494/373/20 512/386/20 511/389/20
f 494/373/20 506/372/20 513/345/20 512/386/20
f 506/372/20 499/378/20 514/346/20 513/345/20
f 499/378/20 493/377/20 511/389/20 514/346/20
f 501/349/20 502/353/20 516/396/20 515/397/20
f 502/353/20 478/352/20 517/398/20 516/396/20
f 478/352/20 475/350/20 518/399/20 517/398/20
f 475/350/20 501/349/20 515/397/20 518/399/20
f 491/348/20 492/354/20 520/382/20 519/381/20
f 492/354/20 502/353/20 521/400/20 520/382/20
f 502/353/20 501/349/20 522/401/20 521/400/20
f 501/349/20 491/348/20 519/381/20 522/401/20
f 503/357/20 504/361/20 524/402/20 523/403/20
f 504/361/20 482/360/20 525/404/20 524/402/20
f 482/360/20 479/358/20 526/405/20 525/404/20
f 479/358/20 503/357/20 523/403/20 526/405/20
f 476/347/20 477/351/20 528/406/20 527/407/20
f 477/351/20 492/354/20 529/408/20 528/406/20
f 492/354/20 491/348/20 530/409/20 529/408/20
f 491/348/20 476/347/20 527/407/20 530/409/20
f 497/364/20 498/368/20 532/387/20 531/390/20
f 498/368/20 486/367/20 533/379/20 532/387/20
f 486/367/20 483/365/20 534/380/20 533/379/20
f 483/365/20 497/364/20 531/390/20 534/380/20
f 505/376/20 500/374/20 536/410/20 535/411/20
f 500/374/20 494/373/20 537/412/20 536/410/20
f 494/373/20 493/377/20 538/413/20 537/412/20
f 493/377/20 505/376/20 535/411/20 538/413/20
f 487/370/20 488/369/20 540/385/20 539/344/20
f 488/369/20 500/374/20 541/414/20 540/385/20
f 500/374/20 505/376/20 542/343/20 541/414/20
f 505/376/20 487/370/20 539/344/20 542/343/20
f 499/378/20 506/372/20 544/415/20 543/416/20
f 506/372/20 489/371/20 545/417/20 544/415/20
f 489/371/20 490/375/20 546/418/20 545/417/20
f 490/375/20 499/378/20 543/416/20 546/418/20
f 484/363/20 485/366/20 548/419/20 547/420/20
f 485/366/20 498/368/20 549/421/20 548/419/20
f 498/368/20 497/364/20 550/422/20 549/421/20
f 497/364/20 484/363/20 547/420/20 550/422/20
f 480/355/20 481/359/20 552/388/20 551/391/20
f 481/359/20 496/362/20 553/383/20 552/388/20
f 496/362/20 495/356/20 554/384/20 553/383/20
f 495/356/20 480/355/20 551/391/20 554/384/20
f 522/401/19 519/381/19 567/381/19 569/401/19
f 540/385/22 541/414/22 590/414/22 588/385/22
f 520/382/22 521/400/22 570/400/22 568/382/22
f 547/420/29 548/419/29 596/419/29 595/420/29
f 527/407/29 528/406/29 576/406/29 575/407/29
f 541/414/28 542/343/28 589/343/28 590/414/28
f 507/393/29 508/392/29 556/392/29 555/393/29
f 521/400/28 522/401/28 569/401/28 570/400/28
f 550/422/19 547/420/19 595/420/19 597/422/19
f 530/409/19 527/407/19 575/407/19 577/409/19
f 510/395/19 507/393/19 555/393/19 557/395/19
f 548/419/22 549/421/22 598/421/22 596/419/22
f 528/406/22 529/408/22 578/408/22 576/406/22
f 508/392/22 509/394/22 558/394/22 556/392/22
f 535/411/29 536/410/29 583/410/29 584/411/29
f 549/421/28 550/422/28 597/422/28 598/421/28
f 515/397/29 516/396/29 564/396/29 563/397/29
f 529/408/28 530/409/28 577/409/28 578/408/28
f 509/394/28 510/395/28 557/395/28 558/394/28
f 538/413/19 535/411/19 584/411/19 585/413/19
f 518/399/19 515/397/19 563/397/19 565/399/19
f 536/410/22 537/412/22 586/412/22 583/410/22
f 516/396/22 517/398/22 566/398/22 564/396/22
f 543/416/29 544/415/29 591/415/29 592/416/29
f 523/403/29 524/402/29 572/402/29 571/403/29
f 537/412/28 538/413/28 585/413/28 586/412/28
f 517/398/28 518/399/28 565/399/28 566/398/28
f 546/418/19 543/416/19 592/416/19 593/418/19
f 526/405/19 523/403/19 571/403/19 573/405/19
f 544/415/22 545/417/22 594/417/22 591/415/22
f 524/402/22 525/404/22 574/404/22 572/402/22
f 551/391/29 552/388/29 600/388/29 599/391/29
f 531/390/29 532/387/29 580/387/29 579/390/29
f 545/417/28 546/418/28 593/418/28 594/417/28
f 511/389/29 512/386/29 559/386/29 560/389/29
f 525/404/28 526/405/28 573/405/28 574/404/28
usemtl M_Noir_Profond
f 254/206/22 255/155/22 256/286/22 253/212/22
f 258/114/22 259/81/22 260/197/22 257/91/22
f 262/254/19 263/202/19 264/69/19 261/277/19
f 266/68/19 267/125/19 268/109/19 265/275/19
f 270/285/22 271/158/22 272/78/22 269/113/22
f 311/185/20 347/184/20 346/71/20 404/295/20 403/267/20 314/268/20 315/179/20 361/123/20 360/163/20 308/190/20 309/280/20 310/282/20
f 338/150/28 287/149/28 288/227/28 292/226/28 289/132/28 343/131/28 342/141/28 290/140/28 291/229/28 285/228/28 286/243/28 339/242/28
f 334/89/29 295/145/29 296/249/29 300/252/29 297/266/29 331/265/29 330/136/29 298/135/29 299/247/29 293/246/29 294/144/29 335/143/29
f 305/296/20 613/297/20 614/298/20
f 269/113/22 316/112/22 317/301/22 270/285/22
f 316/112/27 318/124/27 319/291/27 317/292/27
f 272/78/22 259/81/22 258/114/22 269/113/22
f 313/294/20 274/287/20 273/272/20 319/291/20 318/124/20 312/180/20
f 261/277/19 320/278/19 321/255/19 262/254/19
f 268/109/19 322/108/19 323/274/19 265/275/19
f 325/156/22 255/155/22 254/206/22 324/205/22
f 327/198/22 260/197/22 259/81/22 326/80/22
f 329/79/22 272/78/22 271/158/22 328/157/22
f 279/207/25 323/210/25 322/101/25 280/100/25
f 283/237/25 321/236/25 320/209/25 284/208/25
f 331/84/23 332/83/23 333/151/23 330/154/23
f 335/143/24 336/239/24 337/86/24 334/89/24
f 339/121/26 340/120/26 341/128/26 338/260/26
f 343/131/21 344/138/21 345/74/21 342/77/21
f 255/155/22 271/158/22 270/285/22 256/286/22
f 267/125/19 341/128/19 340/110/19 268/109/19
f 344/92/22 257/91/22 260/197/22 345/200/22
f 332/83/19 263/202/19 262/254/19 333/253/19
f 253/212/22 337/211/22 336/203/22 254/206/22
f 347/232/30 348/233/30 349/276/30 346/71/30
f 351/159/30 352/161/30 353/269/30 350/270/30
f 355/194/27 356/193/27 357/293/27 354/273/27
f 359/90/27 360/163/27 361/123/27 358/115/27
f 263/202/19 351/201/19 350/66/19 264/69/19
f 348/126/19 267/125/19 266/68/19 349/67/19
f 356/193/22 253/212/22 256/286/22 357/302/22
f 257/91/22 359/90/22 358/115/22 258/114/22
f 328/105/25 276/104/25 275/119/25 329/118/25
f 326/117/25 278/116/25 277/224/25 327/223/25
f 324/98/25 282/97/25 281/107/25 325/106/25
f 310/282/20 362/281/20 363/181/20 311/185/20
f 308/190/20 364/191/20 365/279/20 309/280/20
f 367/195/20 307/196/20 306/284/20 366/283/20
f 369/289/20 302/290/20 301/177/20 368/176/20
f 373/216/25 382/215/25 383/234/25 283/237/25 284/208/25 279/207/25 280/100/25 372/99/25
f 375/256/36 369/259/36 368/219/36 374/218/36
f 377/146/36 367/195/36 366/258/36 376/257/36
f 362/186/35 378/189/35 379/241/35 363/240/35
f 364/191/35 380/129/35 381/188/35 365/187/35
f 300/252/29 375/251/29 374/218/29 297/266/29
f 295/145/29 377/146/29 376/250/29 296/249/29
f 378/225/28 288/227/28 287/149/28 379/148/28
f 380/129/28 289/132/28 292/226/28 381/188/28
f 282/97/25 384/96/25 385/214/25 370/213/25 371/220/25 277/224/25 278/116/25 275/119/25 276/104/25 281/107/25
f 285/228/28 373/231/28 372/244/28 286/243/28
f 290/140/28 371/142/28 370/230/28 291/229/28
f 382/248/29 299/247/29 298/135/29 383/134/29
f 384/96/29 294/144/29 293/246/29 385/214/29
f 264/69/19 266/68/19 265/275/19 261/277/19
f 314/268/20 313/294/20 312/180/20 315/179/20
f 352/161/20 301/177/20 302/290/20 306/284/20 307/196/20 355/194/20 354/273/20 305/296/20 402/73/20 353/72/20
f 403/308/20 615/309/20 616/310/20
f 414/315/19 415/316/19 420/316/19 417/315/19
f 410/314/20 409/313/20 414/315/20 413/317/20
f 409/313/20 412/311/20 415/316/20 414/315/20
f 412/311/20 411/312/20 416/318/20 415/316/20
f 411/312/20 410/314/20 413/317/20 416/318/20
f 413/317/28 414/315/28 417/315/28 418/317/28
f 415/316/29 416/318/29 419/318/29 420/316/29
f 416/318/22 413/317/22 418/317/22 419/318/22
f 441/321/20 442/326/20 444/334/20 443/335/20
f 442/326/20 438/325/20 445/336/20 444/334/20
f 438/325/20 437/322/20 446/337/20 445/336/20
f 437/322/20 441/321/20 443/335/20 446/337/20
f 439/323/20 440/324/20 448/338/20 447/339/20
f 440/324/20 435/299/20 449/331/20 448/338/20
f 435/299/20 434/300/20 450/332/20 449/331/20
f 434/300/20 439/323/20 447/339/20 450/332/20
f 437/322/20 438/325/20 452/333/20 451/340/20
f 438/325/20 440/324/20 453/327/20 452/333/20
f 440/324/20 439/323/20 454/328/20 453/327/20
f 439/323/20 437/322/20 451/340/20 454/328/20
f 436/320/20 442/326/20 456/329/20 455/341/20
f 442/326/20 441/321/20 457/330/20 456/329/20
f 441/321/20 433/319/20 458/342/20 457/330/20
f 433/319/20 436/320/20 455/341/20 458/342/20
f 579/390/20 580/387/20 582/379/20 581/380/20
f 603/423/20 606/424/20 605/297/20 608/425/20 607/309/20 610/426/20 609/427/20 604/428/20
f 608/425/25 605/297/25 621/297/25 624/425/25
f 606/424/25 603/423/25 619/423/25 622/424/25
f 604/428/25 609/427/25 625/427/25 620/428/25
f 403/308/20 616/425/20 613/297/20 305/271/20 273/272/20 274/287/20
f 609/427/25 610/426/25 626/426/25 625/427/25
f 617/427/22 612/428/22 620/428/22 625/427/22
f 618/429/24 617/427/24 625/427/24 626/429/24
f 615/309/29 618/426/29 626/426/29 623/309/29
f 611/423/28 614/424/28 622/424/28 619/423/28
f 616/310/23 615/309/23 623/309/23 624/310/23
f 614/298/26 613/297/26 621/297/26 622/298/26
f 613/297/19 616/425/19 624/425/19 621/297/19
f 612/430/21 611/423/21 619/423/21 620/430/21
f 402/431/20 612/428/20 617/427/20 404/70/20
f 610/426/25 607/309/25 623/309/25 626/426/25
f 603/423/25 604/428/25 620/428/25 619/423/25
f 605/297/25 606/424/25 622/424/25 621/297/25
f 607/309/25 608/425/25 624/425/25 623/309/25
f 618/429/20 404/295/20 617/427/20
f 615/309/20 403/308/20 404/295/20 618/426/20
f 305/296/20 614/424/20 611/423/20 402/431/20
f 402/431/20 611/423/20 612/430/20
usemtl M_Orange
f 395/304/20 394/263/20 397/264/20 396/305/20
f 399/307/20 398/306/20 401/261/20 400/262/20
f 555/393/20 556/392/20 558/394/20 557/395/20
f 560/389/20 559/386/20 562/345/20 561/346/20
f 563/397/20 564/396/20 566/398/20 565/399/20
f 571/403/20 572/402/20 574/404/20 573/405/20
f 575/407/20 576/406/20 578/408/20 577/409/20
f 584/411/20 583/410/20 586/412/20 585/413/20
f 587/344/20 588/385/20 590/414/20 589/343/20
usemtl M_Cyan
f 418/317/20 417/315/20 420/316/20 419/318/20
f 567/381/20 568/382/20 570/400/20 569/401/20
f 592/416/20 591/415/20 594/417/20 593/418/20
f 595/420/20 596/419/20 598/421/20 597/422/20
f 599/391/20 600/388/20 602/383/20 601/384/20
usemtl M_Gris_Metal
f 305/271/19 428/271/19 427/272/19 273/272/19
f 354/273/29 426/273/29 428/271/29 305/271/29
f 270/285/25 422/285/25 424/286/25 256/286/25
f 319/291/28 423/291/28 421/292/28 317/292/28
f 357/293/29 425/293/29 426/273/29 354/273/29
f 256/286/29 424/286/29 425/302/29 357/302/29
f 273/272/28 427/272/28 423/291/28 319/291/28
f 425/302/22 424/286/22 422/285/22 421/301/22
f 428/271/20 426/273/20 423/291/20 427/272/20
f 425/293/27 421/292/27 423/291/27 426/273/27
f 317/301/28 421/301/28 422/285/28 270/285/28
