# Blender 4.2.3 LTS
# www.blender.org
mtllib SM_Borne_002.mtl
o SM_Borne_02
v 0.000000 0.124585 -0.185886
v 0.131441 0.124585 -0.131441
v 0.185886 0.124585 -0.000000
v 0.131441 0.124585 0.131441
v 0.000000 0.124585 0.185886
v -0.131441 0.124585 0.131441
v -0.185886 0.124585 -0.000000
v -0.131441 0.124585 -0.131441
v 0.150161 0.134342 -0.150161
v 0.000000 0.134342 -0.212359
v 0.212359 0.134342 -0.000000
v 0.150161 0.134342 0.150160
v 0.000000 0.134342 0.212359
v -0.150161 0.134342 0.150160
v -0.212359 0.134342 -0.000000
v -0.150161 0.134342 -0.150161
v 0.150161 0.515074 -0.150161
v 0.000000 0.515074 -0.212359
v 0.212359 0.515074 -0.000000
v 0.150161 0.515074 0.150160
v 0.000000 0.515074 0.212359
v -0.150161 0.515074 0.150160
v -0.212359 0.515074 -0.000000
v -0.150161 0.515074 -0.150161
v 0.118701 0.524868 -0.118701
v 0.000000 0.524868 -0.167868
v 0.167868 0.524868 -0.000000
v 0.118701 0.524868 0.118701
v 0.000000 0.524868 0.167868
v -0.118701 0.524868 0.118701
v -0.167868 0.524868 -0.000000
v -0.118701 0.524868 -0.118701
v 0.204737 0.551801 -0.204737
v 0.000000 0.551801 -0.289542
v 0.289542 0.551801 -0.000000
v 0.204737 0.551801 0.204737
v 0.000000 0.551801 0.289542
v -0.204737 0.551801 0.204737
v -0.289542 0.551801 -0.000000
v -0.204737 0.551801 -0.204737
v 0.119283 0.810111 -0.119283
v 0.000000 0.810111 -0.168692
v 0.168692 0.810111 -0.000000
v 0.119283 0.810111 0.119283
v 0.000000 0.810111 0.168692
v -0.119283 0.810111 0.119283
v -0.168692 0.810111 -0.000000
v -0.119283 0.810111 -0.119283
v -0.150161 0.300895 0.150160
v -0.150161 0.348522 0.150160
v -0.212359 0.348522 -0.000000
v -0.212359 0.300895 -0.000000
v 0.150161 0.300895 0.150160
v 0.150161 0.348522 0.150160
v 0.000000 0.348522 0.212359
v 0.000000 0.300895 0.212359
v 0.150161 0.300895 -0.150161
v 0.150161 0.348522 -0.150161
v 0.212359 0.348522 -0.000000
v 0.212359 0.300895 -0.000000
v -0.150161 0.348522 -0.150161
v -0.150161 0.300895 -0.150161
v 0.000000 0.300895 -0.212359
v 0.000000 0.348522 -0.212359
v -0.145870 0.310293 0.145870
v -0.145870 0.339123 0.145870
v -0.206292 0.339123 -0.000000
v -0.206292 0.310293 -0.000000
v 0.145870 0.310293 0.145870
v 0.145870 0.339123 0.145870
v 0.000000 0.339123 0.206292
v 0.000000 0.310293 0.206292
v 0.145870 0.310293 -0.145871
v 0.145870 0.339123 -0.145871
v 0.206292 0.339123 -0.000000
v 0.206292 0.310293 -0.000000
v -0.145870 0.339123 -0.145871
v -0.145870 0.310293 -0.145871
v 0.000000 0.310293 -0.206292
v 0.000000 0.339123 -0.206292
v -0.141302 0.309869 0.141302
v -0.141302 0.339547 0.141302
v -0.199831 0.339547 -0.000000
v -0.199831 0.309869 -0.000000
v 0.141302 0.309869 0.141302
v 0.141302 0.339547 0.141302
v 0.000000 0.339547 0.199831
v 0.000000 0.309869 0.199831
v 0.141302 0.309869 -0.141302
v 0.141302 0.339547 -0.141302
v 0.199831 0.339547 -0.000000
v 0.199831 0.309869 -0.000000
v -0.141302 0.339547 -0.141302
v -0.141302 0.309869 -0.141302
v 0.000000 0.309869 -0.199832
v 0.000000 0.339547 -0.199832
v -0.000000 0.000000 -0.411568
v 0.000000 0.004673 -0.413827
v 0.291022 0.000000 -0.291022
v 0.292620 0.004673 -0.292620
v 0.411568 0.000000 -0.000000
v 0.413827 0.004673 -0.000000
v 0.291022 0.000000 0.291022
v 0.292620 0.004673 0.292620
v 0.000000 0.000000 0.411567
v 0.000000 0.004673 0.413827
v -0.291022 0.000000 0.291022
v -0.292620 0.004673 0.292620
v -0.411568 0.000000 -0.000000
v -0.413827 0.004673 -0.000000
v -0.291022 0.000000 -0.291022
v -0.292620 0.004673 -0.292620
v 0.205604 0.124585 -0.205605
v 0.213609 0.119913 -0.213609
v 0.000000 0.119913 -0.302089
v 0.000000 0.124585 -0.290769
v 0.290769 0.124585 -0.000000
v 0.302089 0.119913 -0.000000
v 0.205604 0.124585 0.205604
v 0.213609 0.119913 0.213609
v 0.000000 0.124585 0.290768
v 0.000000 0.119913 0.302089
v -0.205604 0.124585 0.205604
v -0.213609 0.119913 0.213609
v -0.290769 0.124585 -0.000000
v -0.302089 0.119913 -0.000000
v -0.205604 0.124585 -0.205605
v -0.213609 0.119913 -0.213609
v 0.153527 0.810111 -0.153527
v 0.162140 0.801092 -0.162140
v 0.000000 0.801092 -0.229301
v 0.000000 0.810111 -0.217120
v 0.217120 0.810111 -0.000000
v 0.229301 0.801092 -0.000000
v 0.153527 0.810111 0.153527
v 0.162140 0.801092 0.162140
v 0.000000 0.810111 0.217119
v 0.000000 0.801092 0.229301
v -0.153527 0.810111 0.153527
v -0.162140 0.801092 0.162140
v -0.217120 0.810111 -0.000000
v -0.229301 0.801092 -0.000000
v -0.153527 0.810111 -0.153527
v -0.162140 0.801092 -0.162140
v 0.059211 0.898255 -0.059212
v 0.070653 0.890988 -0.070653
v 0.000000 0.890988 -0.099919
v 0.000000 0.898255 -0.083738
v 0.083738 0.898255 -0.000000
v 0.099919 0.890988 -0.000000
v 0.059211 0.898255 0.059211
v 0.070653 0.890988 0.070653
v 0.000000 0.898255 0.083737
v 0.000000 0.890988 0.099918
v -0.059211 0.898255 0.059211
v -0.070653 0.890988 0.070653
v -0.083738 0.898255 -0.000000
v -0.099919 0.890988 -0.000000
v -0.059211 0.898255 -0.059212
v -0.070653 0.890988 -0.070653
vn -0.2850 0.6672 -0.6881
vn 0.6881 0.6672 0.2850
vn 0.2850 0.6672 0.6881
vn -0.2850 0.6672 0.6881
vn -0.6881 0.6672 0.2850
vn -0.6881 0.6672 -0.2850
vn -0.3423 -0.9288 -0.1418
vn -0.0000 1.0000 -0.0000
vn 0.6881 0.6672 -0.2850
vn 0.2850 0.6672 -0.6881
vn -0.9239 -0.0000 0.3827
vn -0.1418 -0.9288 0.3423
vn 0.3423 -0.9288 0.1418
vn 0.1418 -0.9288 -0.3423
vn -0.1418 -0.9288 -0.3423
vn -0.3423 -0.9288 0.1418
vn 0.1418 -0.9288 0.3423
vn 0.3423 -0.9288 -0.1418
vn 0.0887 0.9728 -0.2141
vn 0.3827 -0.0000 0.9239
vn 0.9239 -0.0000 -0.3827
vn -0.9239 -0.0000 -0.3827
vn -0.3827 -0.0000 0.9239
vn 0.9239 -0.0000 0.3827
vn 0.3827 -0.0000 -0.9239
vn -0.3827 -0.0000 -0.9239
vn -0.2153 -0.9725 -0.0892
vn -0.0887 0.9728 -0.2141
vn -0.2141 0.9728 0.0887
vn 0.0887 0.9728 0.2141
vn 0.2141 0.9728 -0.0887
vn -0.2141 0.9728 -0.0887
vn -0.0887 0.9728 0.2141
vn 0.2141 0.9728 0.0887
vn 0.3735 0.2179 -0.9017
vn -0.0892 -0.9725 0.2153
vn 0.2153 -0.9725 0.0892
vn 0.0892 -0.9725 -0.2153
vn -0.0892 -0.9725 -0.2153
vn -0.2153 -0.9725 0.0892
vn 0.0892 -0.9725 0.2153
vn 0.2153 -0.9725 -0.0892
vn -0.3009 0.6178 -0.7265
vn 0.9017 0.2179 -0.3735
vn 0.9017 0.2179 0.3735
vn 0.3735 0.2179 0.9017
vn -0.3735 0.2179 0.9017
vn -0.9017 0.2179 0.3735
vn -0.9017 0.2179 -0.3735
vn -0.3735 0.2179 -0.9017
vn 0.7265 0.6178 -0.3009
vn 0.7265 0.6178 0.3009
vn -0.7265 0.6178 -0.3009
vn -0.3009 0.6178 0.7265
vn 0.3009 0.6178 -0.7265
vn -0.7265 0.6178 0.3009
vn 0.3009 0.6178 0.7265
vn -0.3287 -0.5122 -0.7935
vn 0.3287 -0.5122 -0.7935
vn 0.7935 -0.5122 0.3287
vn -0.3287 -0.5122 0.7935
vn -0.7935 -0.5122 -0.3287
vn 0.7935 -0.5122 -0.3287
vn 0.3287 -0.5122 0.7935
vn -0.7935 -0.5122 0.3287
vn -0.7935 0.5122 0.3287
vn 0.0655 -0.9975 0.0271
vn 0.3287 0.5122 0.7935
vn 0.0271 0.9975 0.0655
vn 0.7935 0.5122 -0.3287
vn 0.0655 0.9975 0.0271
vn -0.7935 0.5122 -0.3287
vn -0.0271 -0.9975 0.0655
vn -0.3287 0.5122 0.7935
vn -0.0655 -0.9975 0.0271
vn 0.7935 0.5122 0.3287
vn -0.0271 0.9975 0.0655
vn 0.3287 0.5122 -0.7935
vn -0.0655 0.9975 0.0271
vn -0.3287 0.5122 -0.7935
vn -0.0655 -0.9975 -0.0271
vn 0.0655 0.9975 -0.0271
vn 0.0271 -0.9975 0.0655
vn 0.0271 0.9975 -0.0655
vn 0.0655 -0.9975 -0.0271
vn 0.0271 -0.9975 -0.0655
vn -0.0271 0.9975 -0.0655
vn -0.0655 0.9975 -0.0271
vn -0.0271 -0.9975 -0.0655
vn 0.3494 -0.4079 -0.8435
vn 0.1561 0.9130 -0.3769
vn 0.8435 -0.4079 -0.3494
vn 0.3769 0.9130 -0.1561
vn 0.8435 -0.4079 0.3494
vn 0.3769 0.9130 0.1561
vn 0.3494 -0.4079 0.8435
vn 0.1561 0.9130 0.3769
vn -0.3494 -0.4079 0.8435
vn -0.1561 0.9130 0.3769
vn -0.8435 -0.4079 0.3494
vn -0.3769 0.9130 0.1561
vn -0.8435 -0.4079 -0.3494
vn -0.3769 0.9130 -0.1561
vn -0.3494 -0.4079 -0.8435
vn -0.1561 0.9130 -0.3769
vn -0.0000 -1.0000 -0.0000
vn 0.2393 0.7803 -0.5777
vn 0.5777 0.7803 -0.2393
vn 0.5777 0.7803 0.2393
vn 0.2393 0.7803 0.5777
vn -0.2393 0.7803 0.5777
vn -0.5777 0.7803 0.2393
vn -0.5777 0.7803 -0.2393
vn -0.2393 0.7803 -0.5777
vn 0.1673 0.8994 -0.4039
vn 0.4039 0.8994 -0.1673
vn 0.4039 0.8994 0.1673
vn 0.1673 0.8994 0.4039
vn -0.1673 0.8994 0.4039
vn -0.4039 0.8994 0.1673
vn -0.4039 0.8994 -0.1673
vn -0.1673 0.8994 -0.4039
vt 0.125000 0.518752
vt 0.125000 0.981248
vt 0.000000 0.981248
vt 0.000000 0.518752
vt 0.750000 0.518752
vt 0.750000 0.981248
vt 0.625000 0.981248
vt 0.625000 0.518752
vt 0.500000 0.981248
vt 0.500000 0.518752
vt 0.375000 0.981248
vt 0.375000 0.518752
vt 0.250000 0.981248
vt 0.250000 0.518752
vt 0.143984 0.356016
vt 0.100071 0.250000
vt 0.250000 0.399929
vt 0.356016 0.356016
vt 0.415833 0.415833
vt 0.250000 0.484524
vt 0.875000 0.518752
vt 0.875000 0.981248
vt 0.750000 0.518752
vt 1.000000 0.518752
vt 1.000000 0.981248
vt 0.399929 0.250000
vt 0.484524 0.250000
vt 0.084167 0.415833
vt 0.356016 0.143984
vt 0.250000 0.100071
vt 0.250000 0.015477
vt 0.415833 0.084167
vt 0.143984 0.143984
vt 0.084167 0.084167
vt 0.250000 0.015477
vt 0.015477 0.250000
vt 0.015477 0.250000
vt 0.399929 0.250000
vt 0.250000 0.361358
vt 0.171258 0.328742
vt 0.320340 0.320340
vt 0.250000 0.349476
vt 0.179660 0.320340
vt 0.150524 0.250000
vt 0.179660 0.179660
vt 0.250000 0.150524
vt 0.320340 0.179660
vt 0.349476 0.250000
vt 0.171258 0.171258
vt 0.138642 0.250000
vt 0.106674 0.250000
vt 0.148653 0.148653
vt 0.328742 0.171258
vt 0.250000 0.138642
vt 0.250000 0.106674
vt 0.351347 0.148653
vt 0.328742 0.328742
vt 0.361358 0.250000
vt 0.393326 0.250000
vt 0.351347 0.351347
vt 0.351347 0.148653
vt 0.148653 0.351347
vt 0.148653 0.148653
vt 0.250000 0.393326
vt 0.328742 0.171258
vt 0.750919 0.489619
vt 0.918787 0.420086
vt 0.916951 0.416951
vt 0.750000 0.486105
vt 0.419706 0.419706
vt 0.250000 0.490000
vt 0.920086 0.418787
vt 0.989619 0.250919
vt 0.986105 0.250000
vt 0.490000 0.250000
vt 0.989619 0.249081
vt 0.920086 0.081213
vt 0.916951 0.083049
vt 0.419706 0.080294
vt 0.918787 0.079914
vt 0.750919 0.010381
vt 0.750000 0.013895
vt 0.250000 0.010000
vt 0.749081 0.010381
vt 0.581213 0.079914
vt 0.583049 0.083049
vt 0.080294 0.080294
vt 0.579914 0.081213
vt 0.510381 0.249081
vt 0.513895 0.250000
vt 0.010000 0.250000
vt 0.510381 0.250919
vt 0.579914 0.418787
vt 0.583049 0.416951
vt 0.080294 0.419706
vt 0.581213 0.420086
vt 0.749081 0.489619
vt 0.351347 0.351347
s 0
usemtl Noir_Light
f 112/1/1 128/2/1 115/3/1 98/4/1
f 102/5/2 118/6/2 120/7/2 104/8/2
f 104/8/3 120/7/3 122/9/3 106/10/3
f 106/10/4 122/9/4 124/11/4 108/12/4
f 108/12/5 124/11/5 126/13/5 110/14/5
f 110/14/6 126/13/6 128/2/6 112/1/6
f 8/15/7 7/16/7 15/16/7 16/15/7
f 1/17/8 2/18/8 113/19/8 116/20/8
f 100/21/9 114/22/9 118/6/9 102/23/9
f 98/24/10 115/25/10 114/22/10 100/21/10
f 2/18/8 3/26/8 117/27/8 113/19/8
f 8/15/8 1/17/8 116/20/8 127/28/8
f 4/29/8 5/30/8 121/31/8 119/32/8
f 5/30/8 6/33/8 123/34/8 121/35/8
f 6/33/8 7/16/8 125/36/8 123/34/8
f 7/16/8 8/15/8 127/28/8 125/37/8
f 3/26/8 4/29/8 119/32/8 117/27/8
f 51/16/11 50/33/11 22/33/11 23/16/11
f 6/33/12 5/30/12 13/30/12 14/33/12
f 4/29/13 3/26/13 11/26/13 12/29/13
f 2/18/14 1/17/14 10/17/14 9/18/14
f 1/17/15 8/15/15 16/15/15 10/17/15
f 7/16/16 6/33/16 14/33/16 15/16/16
f 5/30/17 4/29/17 12/29/17 13/30/17
f 3/26/18 2/18/18 9/18/18 11/26/18
f 17/18/19 18/17/19 26/17/19 25/18/19
f 55/30/20 54/29/20 20/29/20 21/30/20
f 59/38/21 58/18/21 17/18/21 19/26/21
f 61/15/22 51/16/22 23/16/22 24/15/22
f 50/33/23 55/30/23 21/30/23 22/33/23
f 54/29/24 59/38/24 19/26/24 20/29/24
f 58/18/25 64/17/25 18/17/25 17/18/25
f 64/17/26 61/15/26 24/15/26 18/17/26
f 32/15/27 31/16/27 39/16/27 40/15/27
f 18/17/28 24/15/28 32/15/28 26/17/28
f 23/16/29 22/33/29 30/33/29 31/16/29
f 21/30/30 20/29/30 28/29/30 29/30/30
f 19/26/31 17/18/31 25/18/31 27/26/31
f 24/15/32 23/16/32 31/16/32 32/15/32
f 22/33/33 21/30/33 29/30/33 30/33/33
f 20/29/34 19/26/34 27/26/34 28/29/34
f 33/18/35 34/17/35 131/17/35 130/18/35
f 30/33/36 29/30/36 37/30/36 38/33/36
f 28/29/37 27/26/37 35/26/37 36/29/37
f 25/18/38 26/17/38 34/17/38 33/18/38
f 26/17/39 32/15/39 40/15/39 34/17/39
f 31/16/40 30/33/40 38/33/40 39/16/40
f 29/30/41 28/29/41 36/29/41 37/30/41
f 27/26/42 25/18/42 33/18/42 35/26/42
f 42/39/43 48/40/43 160/40/43 147/39/43
f 145/41/8 148/42/8 159/43/8 157/44/8 155/45/8 153/46/8 151/47/8 149/48/8
f 46/49/8 47/50/8 141/51/8 139/52/8
f 44/53/8 45/54/8 137/55/8 135/56/8
f 41/57/8 43/58/8 133/59/8 129/60/8
f 43/58/8 44/53/8 135/61/8 133/59/8
f 47/50/8 48/40/8 143/62/8 141/51/8
f 45/54/8 46/49/8 139/63/8 137/55/8
f 35/26/44 33/18/44 130/18/44 134/26/44
f 48/40/8 42/39/8 132/64/8 143/62/8
f 36/29/45 35/26/45 134/26/45 136/29/45
f 37/30/46 36/29/46 136/29/46 138/30/46
f 38/33/47 37/30/47 138/30/47 140/33/47
f 39/16/48 38/33/48 140/33/48 142/16/48
f 40/15/49 39/16/49 142/16/49 144/15/49
f 34/17/50 40/15/50 144/15/50 131/17/50
f 43/58/51 41/57/51 146/57/51 150/58/51
f 44/53/52 43/58/52 150/58/52 152/53/52
f 48/40/53 47/50/53 158/50/53 160/40/53
f 46/49/54 45/54/54 154/54/54 156/49/54
f 41/57/55 42/39/55 147/39/55 146/57/55
f 47/50/56 46/49/56 156/49/56 158/50/56
f 45/54/57 44/53/57 152/65/57 154/54/57
f 10/17/26 16/15/26 62/15/26 63/17/26
f 80/17/58 77/15/58 61/15/58 64/17/58
f 9/18/25 10/17/25 63/17/25 57/18/25
f 74/18/59 80/17/59 64/17/59 58/18/59
f 12/29/24 11/26/24 60/26/24 53/29/24
f 70/29/60 75/38/60 59/38/60 54/29/60
f 14/33/23 13/30/23 56/30/23 49/33/23
f 66/33/61 71/30/61 55/30/61 50/33/61
f 16/15/22 15/16/22 52/16/22 62/15/22
f 77/15/62 67/16/62 51/16/62 61/15/62
f 11/26/21 9/18/21 57/18/21 60/26/21
f 75/38/63 74/18/63 58/18/63 59/38/63
f 13/30/20 12/29/20 53/29/20 56/30/20
f 71/30/64 70/29/64 54/29/64 55/30/64
f 15/16/11 14/33/11 49/33/11 52/16/11
f 67/16/65 66/33/65 50/33/65 51/16/65
f 52/16/66 49/33/66 65/33/66 68/16/66
f 67/16/67 77/15/67 93/15/67 83/16/67
f 56/30/68 53/29/68 69/29/68 72/30/68
f 79/17/69 78/15/69 94/15/69 95/17/69
f 60/26/70 57/18/70 73/18/70 76/26/70
f 78/15/71 68/16/71 84/16/71 94/15/71
f 62/15/72 52/16/72 68/16/72 78/15/72
f 80/17/73 74/18/73 90/18/73 96/17/73
f 49/33/74 56/30/74 72/30/74 65/33/74
f 74/18/75 75/38/75 91/38/75 90/18/75
f 53/29/76 60/26/76 76/26/76 69/29/76
f 73/18/77 79/17/77 95/17/77 89/18/77
f 57/18/78 63/17/78 79/17/78 73/18/78
f 76/26/79 73/18/79 89/18/79 92/26/79
f 63/17/80 62/15/80 78/15/80 79/17/80
f 75/38/81 70/29/81 86/29/81 91/38/81
f 68/16/82 65/33/82 81/33/82 84/16/82
f 77/15/83 80/17/83 96/17/83 93/15/83
f 65/33/84 72/30/84 88/30/84 81/33/84
f 66/33/85 67/16/85 83/16/85 82/33/85
f 71/30/86 66/33/86 82/33/86 87/30/86
f 72/30/87 69/29/87 85/29/87 88/30/87
f 69/29/88 76/26/88 92/26/88 85/29/88
f 70/29/89 71/30/89 87/30/89 86/29/89
f 98/66/90 100/67/90 99/68/90 97/69/90
f 114/70/91 115/71/91 116/20/91 113/19/91
f 100/72/92 102/73/92 101/74/92 99/68/92
f 118/75/93 114/70/93 113/19/93 117/27/93
f 102/76/94 104/77/94 103/78/94 101/74/94
f 120/79/95 118/75/95 117/27/95 119/32/95
f 104/80/96 106/81/96 105/82/96 103/78/96
f 122/83/97 120/79/97 119/32/97 121/31/97
f 106/84/98 108/85/98 107/86/98 105/82/98
f 124/87/99 122/83/99 121/35/99 123/34/99
f 108/88/100 110/89/100 109/90/100 107/86/100
f 126/91/101 124/87/101 123/34/101 125/36/101
f 110/92/102 112/93/102 111/94/102 109/90/102
f 128/95/103 126/91/103 125/37/103 127/28/103
f 112/96/104 98/97/104 97/69/104 111/94/104
f 115/71/105 128/95/105 127/28/105 116/20/105
f 97/69/106 99/68/106 101/74/106 103/78/106 105/82/106 107/86/106 109/90/106 111/94/106
f 130/18/107 131/17/107 132/64/107 129/98/107
f 134/26/108 130/18/108 129/60/108 133/59/108
f 136/29/109 134/26/109 133/59/109 135/61/109
f 138/30/110 136/29/110 135/56/110 137/55/110
f 140/33/111 138/30/111 137/55/111 139/63/111
f 142/16/112 140/33/112 139/52/112 141/51/112
f 144/15/113 142/16/113 141/51/113 143/62/113
f 131/17/114 144/15/114 143/62/114 132/64/114
f 146/57/115 147/39/115 148/42/115 145/41/115
f 150/58/116 146/57/116 145/41/116 149/48/116
f 152/53/117 150/58/117 149/48/117 151/47/117
f 154/54/118 152/65/118 151/47/118 153/46/118
f 156/49/119 154/54/119 153/46/119 155/45/119
f 158/50/120 156/49/120 155/45/120 157/44/120
f 160/40/121 158/50/121 157/44/121 159/43/121
f 147/39/122 160/40/122 159/43/122 148/42/122
f 42/39/8 41/57/8 129/98/8 132/64/8
usemtl Bleu_Neon
f 84/16/11 81/33/11 82/33/11 83/16/11
f 88/30/20 85/29/20 86/29/20 87/30/20
f 92/26/21 89/18/21 90/18/21 91/38/21
f 94/15/22 84/16/22 83/16/22 93/15/22
f 81/33/23 88/30/23 87/30/23 82/33/23
f 85/29/24 92/26/24 91/38/24 86/29/24
f 89/18/25 95/17/25 96/17/25 90/18/25
f 95/17/26 94/15/26 93/15/26 96/17/26
