# Blender 4.2.3 LTS
# www.blender.org
mtllib Caisse.mtl
o Caisse
v -0.400000 0.000000 0.400000
v -0.400000 0.000000 -0.400000
v 0.400000 0.000000 0.400000
v 0.400000 0.000000 -0.400000
v -0.500000 0.100000 0.400000
v -0.500000 0.100000 -0.400000
v -0.400000 0.100000 0.500000
v -0.400000 0.900000 0.500000
v -0.500000 0.900000 0.400000
v -0.400000 1.000000 0.400000
v -0.400000 1.000000 -0.400000
v -0.500000 0.900000 -0.400000
v -0.400000 0.900000 -0.500000
v -0.400000 0.100000 -0.500000
v 0.400000 0.100000 -0.500000
v 0.400000 1.000000 -0.400000
v 0.400000 0.900000 -0.500000
v 0.500000 0.900000 -0.400000
v 0.500000 0.100000 -0.400000
v 0.500000 0.100000 0.400000
v 0.400000 1.000000 0.400000
v 0.500000 0.900000 0.400000
v 0.400000 0.900000 0.500000
v 0.400000 0.100000 0.500000
v -0.224005 0.175995 0.500000
v -0.324005 0.275995 0.500000
v -0.394716 0.105284 0.500000
v -0.500000 0.275995 0.324005
v -0.500000 0.175995 0.224005
v -0.500000 0.105284 0.394716
v -0.324005 0.724005 0.500000
v -0.224005 0.824005 0.500000
v -0.394716 0.894716 0.500000
v -0.224005 1.000000 0.324005
v -0.324005 1.000000 0.224005
v -0.394716 1.000000 0.394716
v -0.500000 0.824005 0.224005
v -0.500000 0.724005 0.324005
v -0.500000 0.894716 0.394716
v -0.500000 0.175995 -0.224005
v -0.500000 0.275995 -0.324005
v -0.500000 0.105284 -0.394716
v -0.324005 0.275995 -0.500000
v -0.224005 0.175995 -0.500000
v -0.394716 0.105284 -0.500000
v -0.324005 1.000000 -0.224005
v -0.224005 1.000000 -0.324005
v -0.394716 1.000000 -0.394716
v -0.224005 0.824005 -0.500000
v -0.324005 0.724005 -0.500000
v -0.394716 0.894716 -0.500000
v -0.500000 0.724005 -0.324005
v -0.500000 0.824005 -0.224005
v -0.500000 0.894716 -0.394716
v 0.500000 0.175995 0.224005
v 0.500000 0.275995 0.324005
v 0.500000 0.105284 0.394716
v 0.324005 0.275995 0.500000
v 0.224005 0.175995 0.500000
v 0.394716 0.105284 0.500000
v 0.324005 1.000000 0.224005
v 0.224005 1.000000 0.324005
v 0.394716 1.000000 0.394716
v 0.224005 0.824005 0.500000
v 0.324005 0.724005 0.500000
v 0.394716 0.894716 0.500000
v 0.500000 0.724005 0.324005
v 0.500000 0.824005 0.224005
v 0.500000 0.894716 0.394716
v 0.224005 0.175995 -0.500000
v 0.324005 0.275995 -0.500000
v 0.394716 0.105284 -0.500000
v 0.500000 0.275995 -0.324005
v 0.500000 0.175995 -0.224005
v 0.500000 0.105284 -0.394716
v 0.224005 1.000000 -0.324005
v 0.324005 1.000000 -0.224005
v 0.394716 1.000000 -0.394716
v 0.500000 0.824005 -0.224005
v 0.500000 0.724005 -0.324005
v 0.500000 0.894716 -0.394716
v 0.324005 0.724005 -0.500000
v 0.224005 0.824005 -0.500000
v 0.394716 0.894716 -0.500000
v -0.454855 0.208395 0.201605
v -0.454855 0.298395 0.291605
v -0.454855 0.298395 -0.291605
v -0.454855 0.208395 -0.201605
v -0.291605 0.298395 0.454855
v -0.201605 0.208395 0.454855
v -0.201605 0.791605 0.454855
v -0.291605 0.701605 0.454855
v -0.454855 0.701605 0.291605
v -0.454855 0.791605 0.201605
v -0.291605 0.954855 0.201605
v -0.201605 0.954855 0.291605
v -0.201605 0.954855 -0.291605
v -0.291605 0.954855 -0.201605
v -0.454855 0.791605 -0.201605
v -0.454855 0.701605 -0.291605
v -0.291605 0.701605 -0.454855
v -0.201605 0.791605 -0.454855
v -0.201605 0.208395 -0.454855
v -0.291605 0.298395 -0.454855
v 0.291605 0.298395 -0.454855
v 0.201605 0.208395 -0.454855
v 0.291605 0.954855 -0.201605
v 0.201605 0.954855 -0.291605
v 0.201605 0.791605 -0.454855
v 0.291605 0.701605 -0.454855
v 0.454855 0.701605 -0.291605
v 0.454855 0.791605 -0.201605
v 0.454855 0.208395 -0.201605
v 0.454855 0.298395 -0.291605
v 0.454855 0.298395 0.291605
v 0.454855 0.208395 0.201605
v 0.201605 0.954855 0.291605
v 0.291605 0.954855 0.201605
v 0.454855 0.791605 0.201605
v 0.454855 0.701605 0.291605
v 0.291605 0.701605 0.454855
v 0.201605 0.791605 0.454855
v 0.201605 0.208395 0.454855
v 0.291605 0.298395 0.454855
vn -0.0000 -0.0000 -1.0000
vn 1.0000 -0.0000 -0.0000
vn 0.8124 0.5831 -0.0000
vn -0.5831 -0.0000 0.8124
vn 0.5831 -0.0000 0.8124
vn -0.5774 -0.5774 0.5774
vn -0.5774 0.5774 0.5774
vn -0.5774 -0.5774 -0.5774
vn -0.5774 0.5774 -0.5774
vn 0.5774 -0.5774 0.5774
vn 0.5774 0.5774 0.5774
vn 0.5774 -0.5774 -0.5774
vn 0.5774 0.5774 -0.5774
vn -0.7071 -0.7071 -0.0000
vn -0.7071 -0.0000 0.7071
vn -0.7071 0.7071 -0.0000
vn -0.7071 -0.0000 -0.7071
vn -0.0000 -0.7071 -0.7071
vn -0.0000 0.7071 -0.7071
vn 0.7071 -0.0000 -0.7071
vn 0.7071 -0.7071 -0.0000
vn 0.7071 0.7071 -0.0000
vn 0.7071 -0.0000 0.7071
vn -0.0000 -0.7071 0.7071
vn -0.0000 0.7071 0.7071
vn -0.0000 -1.0000 -0.0000
vn -0.5831 -0.0000 -0.8124
vn -0.0000 0.8124 0.5831
vn -0.0000 -0.0000 1.0000
vn -0.0000 0.5831 -0.8124
vn -0.5831 -0.8124 -0.0000
vn -0.0000 0.8124 -0.5831
vn -0.0000 0.5831 0.8124
vn -0.0000 -0.8124 -0.5831
vn -1.0000 -0.0000 -0.0000
vn -0.8124 -0.0000 -0.5831
vn 0.5831 -0.0000 -0.8124
vn 0.5831 -0.8124 -0.0000
vn -0.8124 0.5831 -0.0000
vn -0.8124 -0.0000 0.5831
vn -0.5831 0.8124 -0.0000
vn -0.0000 -0.8124 0.5831
vn -0.0000 1.0000 -0.0000
vn 0.8124 -0.0000 -0.5831
vn 0.5831 0.8124 -0.0000
vn -0.5366 0.5366 -0.6513
vn -0.5366 -0.5366 -0.6513
vn -0.6513 -0.5366 0.5366
vn -0.6513 -0.5366 -0.5366
vn 0.5366 -0.5366 0.6513
vn -0.5366 -0.5366 0.6513
vn 0.6513 0.5366 0.5366
vn 0.6513 0.5366 -0.5366
vn 0.5366 -0.5366 -0.6513
vn 0.5366 0.5366 -0.6513
vn -0.5366 0.6513 0.5366
vn -0.5366 0.6513 -0.5366
vn -0.6513 0.5366 0.5366
vn 0.6513 -0.5366 -0.5366
vn 0.6513 -0.5366 0.5366
vn -0.6513 0.5366 -0.5366
vn -0.5366 0.5366 0.6513
vn 0.5366 0.6513 0.5366
vn 0.5366 0.5366 0.6513
vn 0.5366 0.6513 -0.5366
vn 0.8124 -0.0000 0.5831
vt 0.401321 0.276321
vt 0.418999 0.318999
vt 0.418999 0.431001
vt 0.401321 0.473679
vt 0.400000 0.475000
vt 0.400000 0.275000
vt 0.401321 0.723679
vt 0.443999 0.706001
vt 0.556001 0.706001
vt 0.598679 0.723679
vt 0.600000 0.725000
vt 0.400000 0.725000
vt 0.831001 0.568999
vt 0.831001 0.681001
vt 0.831001 0.568999
vt 0.556001 0.206001
vt 0.443999 0.206001
vt 0.443999 0.206001
vt 0.556001 0.206001
vt 0.443999 0.543999
vt 0.556001 0.543999
vt 0.556001 0.543999
vt 0.443999 0.543999
vt 0.150000 0.725000
vt 0.150000 0.750000
vt 0.125000 0.725000
vt 0.600000 0.000000
vt 0.625000 0.025000
vt 0.600000 0.025000
vt 0.150000 0.525000
vt 0.125000 0.525000
vt 0.150000 0.500000
vt 0.625000 0.225000
vt 0.600000 0.250000
vt 0.600000 0.225000
vt 0.350000 0.725000
vt 0.375000 0.725000
vt 0.350000 0.750000
vt 0.625000 0.775000
vt 0.600000 0.775000
vt 0.600000 0.750000
vt 0.350000 0.525000
vt 0.350000 0.500000
vt 0.375000 0.525000
vt 0.625000 0.475000
vt 0.600000 0.500000
vt 0.600000 0.475000
vt 0.400000 0.000000
vt 0.400000 0.025000
vt 0.600000 0.275000
vt 0.400000 0.225000
vt 0.625000 0.275000
vt 0.600000 0.525000
vt 0.400000 0.525000
vt 0.650000 0.525000
vt 0.650000 0.725000
vt 0.400000 0.775000
vt 0.350000 0.750000
vt 0.625000 0.975000
vt 0.600000 0.975000
vt 0.443999 0.043999
vt 0.556001 0.043999
vt 0.556001 0.043999
vt 0.443999 0.043999
vt 0.418999 0.931001
vt 0.418999 0.818999
vt 0.418999 0.818999
vt 0.598679 0.973679
vt 0.581001 0.931001
vt 0.581001 0.818999
vt 0.598679 0.776321
vt 0.806001 0.706001
vt 0.693999 0.706001
vt 0.581001 0.068999
vt 0.581001 0.181001
vt 0.581001 0.181001
vt 0.581001 0.068999
vt 0.418999 0.431001
vt 0.598679 0.276321
vt 0.556001 0.293999
vt 0.443999 0.293999
vt 0.401321 0.276321
vt 0.693999 0.543999
vt 0.806001 0.543999
vt 0.581001 0.318999
vt 0.581001 0.431001
vt 0.581001 0.431001
vt 0.401321 0.526321
vt 0.418999 0.568999
vt 0.418999 0.681001
vt 0.401321 0.723679
vt 0.418999 0.068999
vt 0.418999 0.181001
vt 0.556001 0.456001
vt 0.443999 0.456001
vt 0.443999 0.456001
vt 0.556001 0.456001
vt 0.556001 0.706001
vt 0.443999 0.706001
vt 0.581001 0.568999
vt 0.581001 0.681001
vt 0.581001 0.568999
vt 0.401321 0.473679
vt 0.598679 0.473679
vt 0.668999 0.681001
vt 0.668999 0.568999
vt 0.668999 0.568999
vt 0.443999 0.793999
vt 0.556001 0.793999
vt 0.556001 0.793999
vt 0.443999 0.793999
vt 0.418999 0.068999
vt 0.418999 0.181001
vt 0.598679 0.223679
vt 0.598679 0.026321
vt 0.581001 0.818999
vt 0.443999 0.293999
vt 0.556001 0.293999
vt 0.556001 0.956001
vt 0.443999 0.956001
vt 0.418999 0.568999
vt 0.651321 0.526321
vt 0.651321 0.723679
vt 0.401321 0.223679
vt 0.598679 0.526321
vt 0.401321 0.026321
vt 0.401321 0.223679
vt 0.401321 0.776321
vt 0.848679 0.526321
vt 0.850000 0.525000
vt 0.401321 0.973679
vt 0.443999 0.956001
vt 0.556001 0.956001
vt 0.400000 0.975000
vt 0.401321 0.026321
vt 0.401321 0.776321
vt 0.401321 0.973679
vt 0.598679 0.526321
vt 0.401321 0.526321
vt 0.848679 0.723679
vt 0.848679 0.526321
vt 0.850000 0.725000
vt 0.418999 0.956001
vt 0.418999 0.043999
vt 0.581001 0.956001
vt 0.831001 0.706001
vt 0.581001 0.043999
vt 0.418999 0.206001
vt 0.418999 0.293999
vt 0.831001 0.543999
vt 0.581001 0.293999
vt 0.581001 0.206001
vt 0.418999 0.706001
vt 0.418999 0.793999
vt 0.668999 0.706001
vt 0.581001 0.793999
vt 0.581001 0.706001
vt 0.418999 0.456001
vt 0.418999 0.543999
vt 0.668999 0.543999
vt 0.581001 0.543999
vt 0.581001 0.456001
s 0
usemtl Noir_Light
f 45/1/1 44/2/1 70/3/1 72/4/1 15/5/1 14/6/1
f 57/7/2 56/8/2 67/9/2 69/10/2 22/11/2 20/12/2
f 1/24/6 7/25/6 5/26/6
f 8/27/7 10/28/7 9/29/7
f 2/30/8 6/31/8 14/32/8
f 11/33/9 13/34/9 12/35/9
f 3/36/10 20/37/10 24/38/10
f 21/39/11 23/40/11 22/41/11
f 4/42/12 15/43/12 19/44/12
f 16/45/13 18/46/13 17/47/13
f 2/30/14 1/24/14 5/26/14 6/31/14
f 7/48/15 8/27/15 9/29/15 5/49/15
f 10/28/16 11/33/16 12/35/16 9/29/16
f 13/50/17 14/6/17 6/51/17 12/35/17
f 4/42/18 2/30/18 14/32/18 15/43/18
f 11/52/19 16/45/19 17/47/19 13/50/19
f 18/53/20 19/54/20 15/5/20 17/47/20
f 3/36/21 4/42/21 19/54/21 20/12/21
f 16/55/22 21/56/22 22/11/22 18/53/22
f 23/40/23 24/57/23 20/12/23 22/11/23
f 1/24/24 3/36/24 24/58/24 7/25/24
f 21/39/25 10/59/25 8/60/25 23/40/25
f 2/30/26 4/42/26 3/36/26 1/24/26
f 33/68/29 32/69/29 64/70/29 66/71/29 23/40/29 8/60/29
f 51/79/1 50/80/1 43/81/1 45/82/1 14/6/1 13/50/1
f 75/88/2 74/89/2 55/90/2 57/91/2 20/12/2 19/54/2
f 85/92/35 86/61/35 93/62/35 94/74/35 99/75/35 100/16/35 87/17/35 88/93/35
f 72/103/1 71/96/1 82/97/1 84/104/1 17/47/1 15/5/1
f 54/114/35 53/76/35 37/77/35 39/115/35 9/29/35 12/35/35
f 107/106/43 108/83/43 97/84/43 98/13/43 95/14/43 96/72/43 117/73/43 118/105/43
f 103/2/1 104/117/1 101/118/1 102/85/1 109/86/1 110/94/1 105/95/1 106/78/1
f 123/66/29 124/108/29 121/109/29 122/116/29 91/69/29 92/119/29 89/120/29 90/65/29
f 113/121/2 114/20/2 111/21/2 112/100/2 119/101/2 120/98/2 115/99/2 116/90/2
f 78/122/43 77/107/43 61/105/43 63/123/43 21/56/43 16/55/43
f 42/124/35 41/18/35 52/19/35 54/114/35 12/35/35 6/51/35
f 69/10/2 68/101/2 79/102/2 81/125/2 18/53/2 22/11/2
f 30/126/35 29/112/35 40/113/35 42/127/35 6/51/35 5/49/35
f 66/71/29 65/110/29 58/111/29 60/128/29 24/57/29 23/40/29
f 48/129/43 47/84/43 76/83/43 78/122/43 16/55/43 11/130/43
f 27/131/29 26/132/29 31/133/29 33/68/29 8/60/29 7/134/29
f 84/104/1 83/87/1 49/85/1 51/79/1 13/50/1 17/47/1
f 39/115/35 38/63/35 28/64/35 30/135/35 5/49/35 9/29/35
f 60/136/29 59/67/29 25/65/29 27/137/29 7/134/29 24/57/29
f 81/138/2 80/22/2 73/23/2 75/139/2 19/54/2 18/53/2
f 36/140/43 35/14/43 46/15/43 48/141/43 11/130/43 10/142/43
f 63/123/43 62/73/43 34/72/43 36/140/43 10/142/43 21/56/43
f 25/65/29 26/143/29 27/131/29
f 28/61/35 29/144/35 30/126/35
f 31/119/29 32/145/29 33/68/29
f 34/72/43 35/146/43 36/140/43
f 37/74/35 38/147/35 39/115/35
f 40/93/35 41/148/35 42/124/35
f 43/117/1 44/149/1 45/1/1
f 46/13/43 47/150/43 48/129/43
f 49/85/1 50/151/1 51/79/1
f 52/16/35 53/152/35 54/114/35
f 55/90/2 56/153/2 57/7/2
f 58/108/29 59/154/29 60/136/29
f 61/105/43 62/155/43 63/123/43
f 64/116/29 65/156/29 66/71/29
f 67/98/2 68/157/2 69/10/2
f 70/78/1 71/158/1 72/103/1
f 73/20/2 74/159/2 75/88/2
f 76/83/43 77/160/43 78/122/43
f 79/100/2 80/161/2 81/138/2
f 82/94/1 83/162/1 84/104/1
usemtl Noir_Profond
f 46/13/3 35/14/3 95/14/3 98/15/3
f 52/16/4 41/17/4 87/18/4 100/19/4
f 73/20/5 80/21/5 111/22/5 114/23/5
f 28/61/27 38/62/27 93/63/27 86/64/27
f 25/65/28 59/66/28 123/67/28 90/65/28
f 34/72/30 62/73/30 117/73/30 96/72/30
f 37/74/31 53/75/31 99/76/31 94/77/31
f 70/78/32 44/2/32 103/2/32 106/3/32
f 76/83/33 47/84/33 97/84/33 108/83/33
f 49/85/34 83/86/34 109/87/34 102/85/34
f 82/94/36 71/95/36 105/96/36 110/97/36
f 67/98/37 56/99/37 115/8/37 120/9/37
f 79/100/38 68/101/38 119/101/38 112/102/38
f 61/105/39 77/106/39 107/107/39 118/105/39
f 58/108/40 65/109/40 121/110/40 124/111/40
f 40/93/41 29/92/41 85/112/41 88/113/41
f 64/116/42 32/69/42 91/69/42 122/70/42
f 43/117/44 50/118/44 101/80/44 104/81/44
f 55/90/45 74/121/45 113/89/45 116/90/45
f 70/78/46 106/3/46 105/96/46 71/95/46
f 109/87/47 83/86/47 82/94/47 110/97/47
f 52/16/48 100/19/48 99/76/48 53/75/48
f 93/63/49 38/62/49 37/74/49 94/77/49
f 31/119/50 92/133/50 91/69/50 32/69/50
f 121/110/51 65/109/51 64/116/51 122/70/51
f 73/20/52 114/23/52 113/89/52 74/121/52
f 115/8/53 56/99/53 55/90/53 116/90/53
f 49/85/54 102/85/54 101/80/54 50/118/54
f 103/2/55 44/2/55 43/117/55 104/81/55
f 76/83/56 108/83/56 107/107/56 77/106/56
f 117/73/57 62/73/57 61/105/57 118/105/57
f 40/93/58 88/113/58 87/18/58 41/17/58
f 67/98/59 120/9/59 119/101/59 68/101/59
f 111/22/60 80/21/60 79/100/60 112/102/60
f 28/61/61 86/64/61 85/112/61 29/92/61
f 123/67/62 59/66/62 58/108/62 124/111/62
f 46/13/63 98/15/63 97/84/63 47/84/63
f 25/65/64 90/65/64 89/132/64 26/120/64
f 34/72/65 96/72/65 95/14/65 35/14/65
f 31/119/66 26/120/66 89/132/66 92/133/66
