# Blender 4.2.3 LTS
# www.blender.org
mtllib Cellule.mtl
o Cellule
v 0.000000 0.047604 -0.148583
v 0.000000 0.452028 -0.148583
v 0.105064 0.452028 -0.105064
v 0.105064 0.047604 -0.105064
v 0.148583 0.452028 0.000000
v 0.148583 0.047604 0.000000
v 0.105064 0.452028 0.105064
v 0.105064 0.047604 0.105064
v 0.000000 0.452028 0.148583
v 0.000000 0.047604 0.148583
v -0.105064 0.452028 0.105064
v -0.105064 0.047604 0.105064
v -0.148583 0.452028 0.000000
v -0.148583 0.047604 0.000000
v -0.105064 0.452028 -0.105064
v -0.105064 0.047604 -0.105064
v -0.007803 0.077501 -0.126604
v -0.007803 0.422131 -0.126604
v 0.095040 0.422131 -0.084005
v 0.095040 0.077501 -0.084005
v 0.126604 0.422131 -0.007803
v 0.126604 0.077501 -0.007803
v 0.084005 0.422131 0.095040
v 0.084005 0.077501 0.095040
v 0.007803 0.422131 0.126604
v 0.007803 0.077501 0.126604
v -0.095040 0.422131 0.084005
v -0.095040 0.077501 0.084005
v -0.126604 0.422131 0.007803
v -0.126604 0.077501 0.007803
v -0.084005 0.422131 -0.095040
v -0.084005 0.077501 -0.095040
v 0.000000 0.000000 -0.088983
v 0.000000 0.016387 -0.148583
v 0.000000 0.499632 -0.088983
v 0.000000 0.483245 -0.148583
v 0.062920 0.000000 -0.062920
v 0.105064 0.016387 -0.105064
v 0.062920 0.499632 -0.062920
v 0.105064 0.483245 -0.105064
v 0.088983 0.000000 0.000000
v 0.148583 0.016387 0.000000
v 0.088983 0.499632 0.000000
v 0.148583 0.483245 0.000000
v 0.062920 0.000000 0.062920
v 0.105064 0.016387 0.105064
v 0.062920 0.499632 0.062920
v 0.105064 0.483245 0.105064
v 0.000000 0.000000 0.088983
v 0.000000 0.016387 0.148583
v 0.000000 0.499632 0.088983
v 0.000000 0.483245 0.148583
v -0.062920 0.000000 0.062920
v -0.105064 0.016387 0.105064
v -0.062920 0.499632 0.062920
v -0.105064 0.483245 0.105064
v -0.088983 0.000000 0.000000
v -0.148583 0.016387 0.000000
v -0.088983 0.499632 0.000000
v -0.148583 0.483245 0.000000
v -0.062920 0.000000 -0.062920
v -0.105064 0.016387 -0.105064
v -0.062920 0.499632 -0.062920
v -0.105064 0.483245 -0.105064
v 0.092522 0.000000 -0.092522
v 0.000000 0.000000 -0.130846
v 0.000000 0.499632 -0.130846
v 0.092522 0.499632 -0.092522
v 0.130846 0.000000 0.000000
v 0.130846 0.499632 0.000000
v 0.092522 0.000000 0.092522
v 0.092522 0.499632 0.092522
v 0.000000 0.000000 0.130846
v 0.000000 0.499632 0.130846
v -0.092522 0.000000 0.092522
v -0.092522 0.499632 0.092522
v -0.130846 0.000000 0.000000
v -0.130846 0.499632 0.000000
v -0.092522 0.000000 -0.092522
v -0.092522 0.499632 -0.092522
v 0.062920 0.013397 -0.062920
v 0.000000 0.013397 -0.088983
v 0.000000 0.486235 -0.088983
v 0.062920 0.486235 -0.062920
v 0.088983 0.013397 0.000000
v 0.088983 0.486235 0.000000
v 0.062920 0.013397 0.062920
v 0.062920 0.486235 0.062920
v 0.000000 0.013397 0.088983
v 0.000000 0.486235 0.088983
v -0.062920 0.013397 0.062920
v -0.062920 0.486235 0.062920
v -0.088983 0.013397 0.000000
v -0.088983 0.486235 0.000000
v -0.062920 0.013397 -0.062920
v -0.062920 0.486235 -0.062920
v 0.007803 0.077501 -0.126604
v 0.007803 0.422131 -0.126604
v 0.084005 0.422131 -0.095040
v 0.084005 0.077501 -0.095040
v 0.126604 0.422131 0.007803
v 0.126604 0.077501 0.007803
v 0.095040 0.422131 0.084005
v 0.095040 0.077501 0.084005
v -0.007803 0.422131 0.126604
v -0.007803 0.077501 0.126604
v -0.084005 0.422131 0.095040
v -0.084005 0.077501 0.095040
v -0.126604 0.422131 -0.007803
v -0.126604 0.077501 -0.007803
v -0.095040 0.422131 -0.084005
v -0.095040 0.077501 -0.084005
v 0.000000 0.069055 -0.129836
v 0.000000 0.430577 -0.129836
v 0.091808 0.430577 -0.091808
v 0.091808 0.069055 -0.091808
v 0.129836 0.430577 0.000000
v 0.129836 0.069055 0.000000
v 0.091808 0.430577 0.091808
v 0.091808 0.069055 0.091808
v 0.000000 0.430577 0.129836
v 0.000000 0.069055 0.129836
v -0.091808 0.430577 0.091808
v -0.091808 0.069055 0.091808
v -0.129836 0.430577 0.000000
v -0.129836 0.069055 0.000000
v -0.091808 0.430577 -0.091808
v -0.091808 0.069055 -0.091808
v -0.005103 0.077501 -0.120087
v -0.005103 0.422131 -0.120087
v 0.088523 0.422131 -0.081305
v 0.088523 0.077501 -0.081305
v 0.120087 0.422131 -0.005103
v 0.120087 0.077501 -0.005103
v 0.081305 0.422131 0.088523
v 0.081305 0.077501 0.088523
v 0.005103 0.422131 0.120087
v 0.005103 0.077501 0.120087
v -0.088523 0.422131 0.081305
v -0.088523 0.077501 0.081305
v -0.120087 0.422131 0.005103
v -0.120087 0.077501 0.005103
v -0.081305 0.422131 -0.088523
v -0.081305 0.077501 -0.088523
v 0.005103 0.077501 -0.120087
v 0.005103 0.422131 -0.120087
v 0.081305 0.422131 -0.088523
v 0.081305 0.077501 -0.088523
v 0.120087 0.422131 0.005103
v 0.120087 0.077501 0.005103
v 0.088523 0.422131 0.081305
v 0.088523 0.077501 0.081305
v -0.005103 0.422131 0.120087
v -0.005103 0.077501 0.120087
v -0.081305 0.422131 0.088523
v -0.081305 0.077501 0.088523
v -0.120087 0.422131 -0.005103
v -0.120087 0.077501 -0.005103
v -0.088523 0.422131 -0.081305
v -0.088523 0.077501 -0.081305
vn -0.3827 -0.0000 -0.9239
vn 0.9239 -0.0000 0.3827
vn 0.3827 -0.0000 0.9239
vn -0.3827 -0.0000 0.9239
vn -0.9239 -0.0000 0.3827
vn -0.9239 -0.0000 -0.3827
vn 0.3827 -0.0000 -0.9239
vn 0.9239 -0.0000 -0.3827
vn -0.2977 -0.6282 -0.7188
vn -0.7188 -0.6282 -0.2977
vn -0.7188 -0.6282 0.2977
vn -0.2977 -0.6282 0.7188
vn 0.2977 -0.6282 0.7188
vn 0.7188 -0.6282 0.2977
vn 0.7188 -0.6282 -0.2977
vn 0.2977 -0.6282 -0.7188
vn 0.2977 0.6282 -0.7188
vn 0.7188 0.6282 -0.2977
vn -0.0000 1.0000 -0.0000
vn 0.7188 0.6282 0.2977
vn 0.2977 0.6282 0.7188
vn -0.0000 -1.0000 -0.0000
vn -0.2977 0.6282 0.7188
vn -0.7188 0.6282 0.2977
vn -0.7188 0.6282 -0.2977
vn -0.2977 0.6282 -0.7188
vn 0.2706 -0.7071 -0.6533
vn 0.2706 0.7071 -0.6533
vn 0.6533 -0.7071 -0.2706
vn 0.6533 0.7071 -0.2706
vn 0.6533 -0.7071 0.2706
vn 0.6533 0.7071 0.2706
vn 0.2706 -0.7071 0.6533
vn 0.2706 0.7071 0.6533
vn -0.2706 -0.7071 0.6533
vn -0.2706 0.7071 0.6533
vn -0.6533 -0.7071 0.2706
vn -0.6533 0.7071 0.2706
vn -0.6533 -0.7071 -0.2706
vn -0.6533 0.7071 -0.2706
vn -0.2706 -0.7071 -0.6533
vn -0.2706 0.7071 -0.6533
vt 0.125000 0.833333
vt 0.125000 0.942627
vt 0.000000 0.942627
vt 0.000000 0.833333
vt 0.750000 0.557373
vt 0.750000 0.666667
vt 0.625000 0.666667
vt 0.625000 0.557373
vt 0.500000 0.666667
vt 0.500000 0.557373
vt 0.375000 0.666667
vt 0.375000 0.557373
vt 0.250000 0.666667
vt 0.250000 0.557373
vt 0.125000 0.666667
vt 0.125000 0.557373
vt 1.000000 0.833333
vt 1.000000 0.942627
vt 0.875000 0.942627
vt 0.875000 0.833333
vt 0.875000 0.557373
vt 0.875000 0.666667
vt 0.000000 0.666667
vt 0.000000 0.557373
vt 0.750000 0.393730
vt 0.851632 0.351632
vt 0.125000 0.777778
vt 0.000000 0.777778
vt 0.250000 0.833333
vt 0.250000 0.942627
vt 0.125000 0.942627
vt 0.250000 0.777778
vt 0.375000 0.833333
vt 0.375000 0.942627
vt 0.250000 0.942627
vt 0.375000 0.777778
vt 0.500000 0.833333
vt 0.500000 0.942627
vt 0.375000 0.942627
vt 0.500000 0.777778
vt 0.625000 0.833333
vt 0.625000 0.942627
vt 0.500000 0.942627
vt 0.625000 0.777778
vt 0.750000 0.833333
vt 0.750000 0.942627
vt 0.625000 0.942627
vt 0.750000 0.777778
vt 0.875000 0.942627
vt 0.750000 0.942627
vt 0.875000 0.777778
vt 0.250000 0.106270
vt 0.351632 0.148368
vt 1.000000 0.777778
vt 1.000000 0.666667
vt 1.000000 0.722222
vt 0.875000 0.722222
vt 0.510624 0.775767
vt 0.510624 0.724233
vt 0.750000 0.722222
vt 0.385624 0.724233
vt 0.489376 0.724233
vt 0.625000 0.722222
vt 0.614376 0.724233
vt 0.614376 0.775767
vt 0.500000 0.722222
vt 0.739376 0.775767
vt 0.635624 0.775767
vt 0.375000 0.722222
vt 0.760624 0.775767
vt 0.760624 0.724233
vt 0.250000 0.722222
vt 0.635624 0.724233
vt 0.739376 0.724233
vt 0.125000 0.722222
vt 0.114376 0.775767
vt 0.010624 0.775767
vt 0.000000 0.722222
vt 0.864376 0.724233
vt 0.864376 0.775767
vt 0.750000 0.490000
vt 0.919706 0.419706
vt 0.899447 0.399447
vt 0.750000 0.461350
vt 0.419706 0.419706
vt 0.250000 0.490000
vt 0.250000 0.461350
vt 0.399447 0.399447
vt 0.990000 0.250000
vt 0.961350 0.250000
vt 0.490000 0.250000
vt 0.461350 0.250000
vt 0.919706 0.080294
vt 0.899447 0.100553
vt 0.419706 0.080294
vt 0.399447 0.100553
vt 0.750000 0.010000
vt 0.750000 0.038650
vt 0.250000 0.010000
vt 0.250000 0.038650
vt 0.580294 0.080294
vt 0.600553 0.100553
vt 0.080294 0.080294
vt 0.100553 0.100553
vt 0.510000 0.250000
vt 0.538650 0.250000
vt 0.010000 0.250000
vt 0.038650 0.250000
vt 0.580294 0.419706
vt 0.600553 0.399447
vt 0.080294 0.419706
vt 0.100553 0.399447
vt 1.000000 0.557373
vt 0.250000 0.393730
vt 0.351632 0.351632
vt 0.893730 0.250000
vt 0.393730 0.250000
vt 0.851632 0.148368
vt 0.750000 0.106270
vt 0.648368 0.148368
vt 0.148368 0.148368
vt 0.606270 0.250000
vt 0.106270 0.250000
vt 0.648368 0.351632
vt 0.148368 0.351632
vt 0.010624 0.724233
vt 0.364376 0.775767
vt 0.364376 0.724233
vt 0.260624 0.724233
vt 0.260624 0.775767
vt 0.114376 0.724233
vt 0.989376 0.775767
vt 0.989376 0.724233
vt 0.885624 0.724233
vt 0.885624 0.775767
vt 0.489376 0.775767
vt 0.385624 0.775767
vt 0.239376 0.775767
vt 0.239376 0.724233
vt 0.135624 0.724233
vt 0.135624 0.775767
s 0
usemtl Noir_Light
f 15/1/1 64/2/1 36/3/1 2/4/1
f 42/5/2 6/6/2 8/7/2 46/8/2
f 46/8/3 8/7/3 10/9/3 50/10/3
f 50/10/4 10/9/4 12/11/4 54/12/4
f 54/12/5 12/11/5 14/13/5 58/14/5
f 58/14/6 14/13/6 16/15/6 62/16/6
f 2/17/7 36/18/7 40/19/7 3/20/7
f 38/21/8 4/22/8 6/6/8 42/5/8
f 62/16/1 16/15/1 1/23/1 34/24/1
f 33/25/4 37/26/4 81/26/4 82/25/4
f 127/27/9 15/1/9 2/4/9 114/28/9
f 13/29/6 60/30/6 64/31/6 15/1/6
f 125/32/10 13/29/10 15/1/10 127/27/10
f 11/33/5 56/34/5 60/35/5 13/29/5
f 123/36/11 11/33/11 13/29/11 125/32/11
f 9/37/4 52/38/4 56/39/4 11/33/4
f 121/40/12 9/37/12 11/33/12 123/36/12
f 7/41/3 48/42/3 52/43/3 9/37/3
f 119/44/13 7/41/13 9/37/13 121/40/13
f 5/45/2 44/46/2 48/47/2 7/41/2
f 117/48/14 5/45/14 7/41/14 119/44/14
f 3/20/8 40/49/8 44/50/8 5/45/8
f 115/51/15 3/20/15 5/45/15 117/48/15
f 51/52/1 47/53/1 88/53/1 90/52/1
f 114/54/16 2/17/16 3/20/16 115/51/16
f 1/55/17 113/56/17 116/57/17 4/22/17
f 25/58/8 26/59/8 138/59/8 137/58/8
f 4/22/18 116/57/18 118/60/18 6/6/18
f 108/61/19 106/62/19 154/62/19 156/61/19
f 6/6/20 118/60/20 120/63/20 8/7/20
f 24/64/5 23/65/5 135/65/5 136/64/5
f 8/7/21 120/63/21 122/66/21 10/9/21
f 101/67/22 103/68/22 151/68/22 149/67/22
f 10/9/23 122/66/23 124/69/23 12/11/23
f 21/70/1 22/71/1 134/71/1 133/70/1
f 12/11/24 124/69/24 126/72/24 14/13/24
f 104/73/19 102/74/19 150/74/19 152/73/19
f 14/13/25 126/72/25 128/75/25 16/15/25
f 31/76/22 18/77/22 130/77/22 143/76/22
f 16/15/26 128/75/26 113/78/26 1/23/26
f 20/79/3 19/80/3 131/80/3 132/79/3
f 34/81/27 38/82/27 65/83/27 66/84/27
f 40/85/28 36/86/28 67/87/28 68/88/28
f 38/82/29 42/89/29 69/90/29 65/83/29
f 44/91/30 40/85/30 68/88/30 70/92/30
f 42/89/31 46/93/31 71/94/31 69/90/31
f 48/95/32 44/91/32 70/92/32 72/96/32
f 46/93/33 50/97/33 73/98/33 71/94/33
f 52/99/34 48/95/34 72/96/34 74/100/34
f 50/97/35 54/101/35 75/102/35 73/98/35
f 56/103/36 52/99/36 74/100/36 76/104/36
f 54/101/37 58/105/37 77/106/37 75/102/37
f 60/107/38 56/103/38 76/104/38 78/108/38
f 58/105/39 62/109/39 79/110/39 77/106/39
f 64/111/40 60/107/40 78/108/40 80/112/40
f 62/109/41 34/81/41 66/84/41 79/110/41
f 36/86/42 64/111/42 80/112/42 67/87/42
f 34/113/7 1/55/7 4/22/7 38/21/7
f 37/26/22 33/25/22 66/84/22 65/83/22
f 35/114/19 39/115/19 68/88/19 67/87/19
f 41/116/22 37/26/22 65/83/22 69/90/22
f 39/115/19 43/117/19 70/92/19 68/88/19
f 45/118/22 41/116/22 69/90/22 71/94/22
f 43/117/19 47/53/19 72/96/19 70/92/19
f 49/119/22 45/118/22 71/94/22 73/98/22
f 47/53/19 51/52/19 74/100/19 72/96/19
f 53/120/22 49/119/22 73/98/22 75/102/22
f 51/52/19 55/121/19 76/104/19 74/100/19
f 57/122/22 53/120/22 75/102/22 77/106/22
f 55/121/19 59/123/19 78/108/19 76/104/19
f 61/124/22 57/122/22 77/106/22 79/110/22
f 59/123/19 63/125/19 80/112/19 78/108/19
f 33/25/22 61/124/22 79/110/22 66/84/22
f 63/125/19 35/114/19 67/87/19 80/112/19
f 35/114/3 63/125/3 96/125/3 83/114/3
f 49/119/7 53/120/7 91/120/7 89/119/7
f 39/115/4 35/114/4 83/114/4 84/115/4
f 55/121/7 51/52/7 90/52/7 92/121/7
f 37/26/5 41/116/5 85/116/5 81/26/5
f 53/120/8 57/122/8 93/122/8 91/120/8
f 43/117/5 39/115/5 84/115/5 86/117/5
f 59/123/8 55/121/8 92/121/8 94/123/8
f 41/116/6 45/118/6 87/118/6 85/116/6
f 57/122/2 61/124/2 95/124/2 93/122/2
f 47/53/6 43/117/6 86/117/6 88/53/6
f 63/125/2 59/123/2 94/123/2 96/125/2
f 45/118/1 49/119/1 89/119/1 87/118/1
f 61/124/3 33/25/3 82/25/3 95/124/3
f 17/126/1 18/77/1 114/28/1 113/78/1
f 19/80/8 20/79/8 116/57/8 115/51/8
f 22/71/8 21/70/8 117/48/8 118/60/8
f 23/65/3 24/64/3 120/63/3 119/44/3
f 26/59/3 25/58/3 121/40/3 122/66/3
f 27/127/5 28/128/5 124/69/5 123/36/5
f 30/129/5 29/130/5 125/32/5 126/72/5
f 31/76/1 32/131/1 128/75/1 127/27/1
f 20/79/8 22/71/8 118/60/8 116/57/8
f 21/70/8 19/80/8 115/51/8 117/48/8
f 24/64/3 26/59/3 122/66/3 120/63/3
f 25/58/3 23/65/3 119/44/3 121/40/3
f 28/128/5 30/129/5 126/72/5 124/69/5
f 29/130/5 27/127/5 123/36/5 125/32/5
f 32/131/1 17/126/1 113/78/1 128/75/1
f 18/77/1 31/76/1 127/27/1 114/28/1
f 98/132/7 97/133/7 113/56/7 114/54/7
f 100/134/7 99/135/7 115/51/7 116/57/7
f 101/67/2 102/74/2 118/60/2 117/48/2
f 104/73/2 103/68/2 119/44/2 120/63/2
f 105/136/4 106/62/4 122/66/4 121/40/4
f 108/61/4 107/137/4 123/36/4 124/69/4
f 109/138/6 110/139/6 126/72/6 125/32/6
f 112/140/6 111/141/6 127/27/6 128/75/6
f 97/133/7 100/134/7 116/57/7 113/56/7
f 99/135/7 98/132/7 114/54/7 115/51/7
f 102/74/2 104/73/2 120/63/2 118/60/2
f 103/68/2 101/67/2 117/48/2 119/44/2
f 106/62/4 108/61/4 124/69/4 122/66/4
f 107/137/4 105/136/4 121/40/4 123/36/4
f 110/139/6 112/140/6 128/75/6 126/72/6
f 111/141/6 109/138/6 125/32/6 127/27/6
f 105/136/22 107/137/22 155/137/22 153/136/22
f 28/128/1 27/127/1 139/127/1 140/128/1
f 97/133/2 98/132/2 146/132/2 145/133/2
f 112/140/19 110/139/19 158/139/19 160/140/19
f 29/130/3 30/129/3 142/129/3 141/130/3
f 99/135/6 100/134/6 148/134/6 147/135/6
f 109/138/22 111/141/22 159/141/22 157/138/22
f 32/131/8 31/76/8 143/76/8 144/131/8
f 102/74/4 101/67/4 149/67/4 150/74/4
f 22/71/19 20/79/19 132/79/19 134/71/19
f 103/68/7 104/73/7 152/73/7 151/68/7
f 19/80/22 21/70/22 133/70/22 131/80/22
f 106/62/6 105/136/6 153/136/6 154/62/6
f 26/59/19 24/64/19 136/64/19 138/59/19
f 107/137/2 108/61/2 156/61/2 155/137/2
f 23/65/22 25/58/22 137/58/22 135/65/22
f 110/139/7 109/138/7 157/138/7 158/139/7
f 30/129/19 28/128/19 140/128/19 142/129/19
f 111/141/4 112/140/4 160/140/4 159/141/4
f 27/127/22 29/130/22 141/130/22 139/127/22
f 100/134/19 97/133/19 145/133/19 148/134/19
f 18/77/5 17/126/5 129/126/5 130/77/5
f 17/126/19 32/131/19 144/131/19 129/126/19
f 98/132/22 99/135/22 147/135/22 146/132/22
usemtl Bleu_Neon
f 145/133/7 146/132/7 147/135/7 148/134/7
f 132/79/8 131/80/8 133/70/8 134/71/8
f 150/74/2 149/67/2 151/68/2 152/73/2
f 136/64/3 135/65/3 137/58/3 138/59/3
f 154/62/4 153/136/4 155/137/4 156/61/4
f 140/128/5 139/127/5 141/130/5 142/129/5
f 158/139/6 157/138/6 159/141/6 160/140/6
f 144/131/1 143/76/1 130/77/1 129/126/1
usemtl Noir_Profond
f 84/115/19 83/114/19 96/125/19 94/123/19 92/121/19 90/52/19 88/53/19 86/117/19
f 82/25/22 81/26/22 85/116/22 87/118/22 89/119/22 91/120/22 93/122/22 95/124/22
