# Blender 4.2.3 LTS
# www.blender.org
mtllib Pylonne.mtl
o Pylonne_Energie
v -0.250000 0.000000 -0.160000
v -0.250000 0.000000 0.160000
v -0.250000 0.100000 0.160000
v -0.250000 0.100000 -0.160000
v 0.250000 0.000000 0.160000
v 0.250000 0.000000 -0.160000
v 0.250000 0.100000 -0.160000
v 0.250000 0.100000 0.160000
v -0.223572 0.000002 -0.146836
v -0.223572 0.000002 0.146836
v -0.223572 0.099998 0.146836
v -0.223572 0.099998 -0.146836
v 0.223572 0.000002 0.146836
v 0.223572 0.000002 -0.146836
v 0.223572 0.099998 -0.146836
v 0.223572 0.099998 0.146836
v -0.125000 0.250000 -0.094283
v 0.125000 0.250000 0.094283
v -0.125000 0.250000 0.094283
v -0.111786 0.266538 -0.067034
v 0.125000 0.250000 -0.094283
v 0.111786 0.266538 0.067034
v -0.111786 0.266538 0.067034
v 0.111786 0.266538 -0.067034
v -0.125000 0.997518 -0.094283
v 0.125000 0.997518 0.094283
v -0.125000 0.997518 0.094283
v -0.118318 0.998109 -0.091582
v 0.125000 0.997518 -0.094283
v 0.118318 0.998109 0.091582
v -0.118318 0.998109 0.091582
v 0.118318 0.998109 -0.091582
v -0.062500 1.097518 -0.047142
v 0.062500 1.097518 0.047142
v -0.062500 1.097518 0.047142
v -0.059159 1.090533 -0.045791
v 0.062500 1.097518 -0.047142
v 0.059159 1.090533 0.045791
v -0.059159 1.090533 0.045791
v 0.059159 1.090533 -0.045791
v -0.125000 0.867096 0.094283
v 0.125000 0.867096 0.094283
v 0.118318 0.878466 0.091582
v -0.118318 0.878466 0.091582
v -0.118318 0.878466 -0.091582
v -0.125000 0.867096 -0.094283
v 0.125000 0.867096 -0.094283
v 0.118318 0.878466 -0.091582
v -0.125000 0.852241 0.094283
v 0.125000 0.852241 0.094283
v -0.111786 0.835701 -0.067034
v -0.125000 0.852241 -0.094283
v 0.111786 0.835701 -0.067034
v 0.111786 0.835701 0.067034
v -0.111786 0.835701 0.067034
v 0.125000 0.852241 -0.094283
v -0.111786 0.249999 0.086526
v -0.111786 0.249999 -0.086526
v 0.111786 0.249999 -0.086526
v 0.111786 0.249999 0.086526
v -0.111786 0.852240 -0.086526
v 0.111786 0.852240 -0.086526
v 0.111786 0.852240 0.086526
v -0.111786 0.852240 0.086526
v -0.104232 0.266538 0.067034
v -0.104232 0.266538 -0.067034
v 0.104232 0.266538 -0.067034
v 0.104232 0.266538 0.067034
v -0.104232 0.835701 -0.067034
v 0.104232 0.835701 -0.067034
v 0.104232 0.835701 0.067034
v -0.104232 0.835701 0.067034
v -0.239672 0.000000 0.400000
v -0.250000 0.000000 0.389295
v -0.239659 0.100000 0.400000
v -0.250000 0.100000 0.389266
v -0.250000 0.000000 -0.389295
v -0.239672 0.000000 -0.400000
v -0.250000 0.100000 -0.389266
v -0.239659 0.100000 -0.400000
v 0.250000 0.000000 0.389295
v 0.239672 0.000000 0.400000
v 0.250000 0.100000 0.389266
v 0.239659 0.100000 0.400000
v 0.239672 0.000000 -0.400000
v 0.250000 0.000000 -0.389295
v 0.239659 0.100000 -0.400000
v 0.250000 0.100000 -0.389266
v -0.125000 0.250000 -0.224970
v -0.114669 0.250000 -0.235709
v 0.114669 0.250000 -0.235709
v 0.125000 0.250000 -0.224970
v 0.125000 0.250000 0.224970
v 0.114669 0.250000 0.235709
v -0.114669 0.250000 0.235709
v -0.125000 0.250000 0.224970
v -0.114683 0.997518 -0.235709
v -0.125000 0.997518 -0.224862
v 0.125000 0.997518 -0.224862
v 0.114683 0.997518 -0.235709
v 0.114683 0.997518 0.235709
v 0.125000 0.997518 0.224862
v -0.114683 0.997518 0.235709
v -0.125000 0.997518 0.224862
v -0.052165 1.097518 -0.117854
v -0.062500 1.097518 -0.106881
v 0.062500 1.097518 -0.106881
v 0.052165 1.097518 -0.117854
v 0.052165 1.097518 0.117854
v 0.062500 1.097518 0.106881
v -0.062500 1.097518 0.106881
v -0.052165 1.097518 0.117854
v -0.125000 0.867096 0.224957
v -0.114702 0.867096 0.235709
v -0.114702 0.867096 -0.235709
v -0.125000 0.867096 -0.224957
v 0.125000 0.867096 -0.224957
v 0.114702 0.867096 -0.235709
v 0.114702 0.867096 0.235709
v 0.125000 0.867096 0.224957
v 0.114698 0.852241 -0.235709
v 0.125000 0.852241 -0.224992
v 0.125000 0.852241 0.224992
v 0.114698 0.852241 0.235709
v -0.125000 0.852241 0.224992
v -0.114698 0.852241 0.235709
v -0.114698 0.852241 -0.235709
v -0.125000 0.852241 -0.224992
vn -0.7682 0.6402 -0.0000
vn -0.0000 -1.0000 -0.0000
vn 0.7682 0.6402 -0.0000
vn -0.0000 0.7385 0.6743
vn 0.8018 0.5976 -0.0000
vn -0.0000 -0.0000 -1.0000
vn -1.0000 -0.0000 -0.0000
vn -0.0000 -1.0000 -0.0001
vn 0.4459 -0.0000 -0.8951
vn -0.0000 -0.0000 1.0000
vn -0.4459 -0.0000 0.8951
vn -0.4459 -0.0000 -0.8951
vn 0.4459 -0.0000 0.8951
vn 1.0000 -0.0000 -0.0000
vn -0.0000 -1.0000 0.0001
vn -0.8018 0.5976 -0.0000
vn 0.4667 -0.0031 0.8844
vn -0.3748 -0.0000 0.9271
vn -0.0000 0.7625 -0.6470
vn -0.8480 0.5300 -0.0000
vn 0.3748 -0.0000 -0.9271
vn -0.4667 -0.0031 0.8844
vn 0.4667 -0.0031 -0.8844
vn -0.0000 0.7385 -0.6743
vn -0.4667 -0.0031 -0.8844
vn 0.8480 0.5300 -0.0000
vn -0.8422 0.5391 -0.0000
vn -0.0000 1.0000 -0.0000
vn 0.4480 -0.1430 -0.8825
vn 0.3748 -0.0000 0.9271
vn -0.0000 0.7625 0.6470
vn -0.3748 -0.0000 -0.9271
vn -0.0000 0.1899 -0.9818
vn -0.0000 0.1899 0.9818
vn -0.4480 -0.1430 0.8825
vn 0.4480 -0.1430 0.8825
vn 0.8422 0.5391 -0.0000
vn -0.4480 -0.1430 -0.8825
vn -0.4792 0.0318 -0.8771
vn 0.9704 -0.2417 -0.0000
vn 0.4792 0.0318 0.8771
vn 0.4792 0.0318 -0.8771
vn -0.9704 -0.2417 -0.0000
vn -0.4792 0.0318 0.8771
vn -0.5063 -0.0000 0.8624
vn 0.5063 -0.0000 -0.8624
vn 0.5063 -0.0000 0.8624
vn -0.5063 -0.0000 -0.8624
vn -0.7199 0.0001 0.6941
vn -0.7199 0.0001 -0.6941
vn 0.7199 0.0001 -0.6941
vn 0.7199 0.0001 0.6941
vn -0.7234 0.0003 0.6904
vn -0.4268 0.8056 0.4109
vn 0.4268 0.8056 0.4109
vn 0.4268 0.8056 -0.4109
vn -0.4268 0.8056 -0.4109
vn -0.4505 0.7844 -0.4264
vn -0.7234 0.0003 -0.6904
vn 0.7208 -0.0000 -0.6932
vn 0.7208 -0.0000 0.6932
vn -0.4505 0.7844 0.4264
vn 0.4505 0.7844 -0.4264
vn 0.4505 0.7844 0.4264
vn -0.7216 0.0007 0.6924
vn -0.7216 0.0007 -0.6924
vn 0.7234 0.0003 -0.6904
vn 0.7234 0.0003 0.6904
vn 0.7216 0.0007 -0.6924
vn 0.7216 0.0007 0.6924
vn -0.7208 -0.0000 0.6932
vn -0.7208 -0.0000 -0.6932
vt 0.625000 0.246273
vt 0.625000 0.166667
vt 0.625000 0.243672
vt 0.125000 0.503717
vt 0.130164 0.500000
vt 0.369836 0.500000
vt 0.375000 0.503717
vt 0.375000 0.583333
vt 0.125000 0.583333
vt 0.625000 0.746273
vt 0.625000 0.666667
vt 0.625000 0.743672
vt 0.125000 0.666667
vt 0.375000 0.666667
vt 0.375000 0.746283
vt 0.369836 0.750000
vt 0.130164 0.750000
vt 0.125000 0.746283
vt 0.625000 0.994829
vt 0.625000 0.755171
vt 0.625000 0.760331
vt 0.625000 0.989669
vt 0.625000 0.638889
vt 0.625000 0.611111
vt 0.625000 0.083333
vt 0.625000 0.003727
vt 0.625000 0.006328
vt 0.375000 0.255164
vt 0.625000 0.255171
vt 0.625000 0.494829
vt 0.375000 0.494836
vt 0.375000 0.166667
vt 0.375000 0.246283
vt 0.125000 0.638889
vt 0.375000 0.638889
vt 0.625000 0.583333
vt 0.625000 0.503727
vt 0.625000 0.506328
vt 0.375000 0.755164
vt 0.375000 0.994836
vt 0.375000 0.138889
vt 0.625000 0.138889
vt 0.375000 0.083333
vt 0.625000 0.111111
vt 0.375000 0.111111
vt 0.375000 0.611111
vt 0.125000 0.611111
vt 0.625000 0.166667
vt 0.625000 0.489683
vt 0.625000 0.260317
vt 0.625000 0.270669
vt 0.625000 0.479331
vt 0.625000 0.111111
vt 0.625000 0.006391
vt 0.625000 0.012932
vt 0.625000 0.666667
vt 0.625000 0.243672
vt 0.625000 0.243685
vt 0.625000 0.746273
vt 0.375000 0.746283
vt 0.625000 0.260331
vt 0.625000 0.489669
vt 0.625000 0.506391
vt 0.625000 0.512932
vt 0.645669 0.500000
vt 0.854331 0.500000
vt 0.875000 0.512932
vt 0.875000 0.583333
vt 0.625000 0.489702
vt 0.625000 0.260298
vt 0.625000 0.083333
vt 0.625000 0.006335
vt 0.625000 0.006391
vt 0.625000 0.743609
vt 0.625000 0.737068
vt 0.625000 0.989683
vt 0.625000 0.760317
vt 0.625000 0.770669
vt 0.625000 0.979331
vt 0.625000 0.243609
vt 0.625000 0.237068
vt 0.625000 0.006315
vt 0.625000 0.006335
vt 0.875000 0.666667
vt 0.875000 0.737068
vt 0.854331 0.750000
vt 0.645669 0.750000
vt 0.875000 0.638889
vt 0.875000 0.611111
vt 0.625000 0.989702
vt 0.625000 0.760298
vt 0.625000 0.506335
vt 0.625000 0.743665
vt 0.625000 0.743609
vt 0.625000 0.583333
vt 0.625000 0.506315
vt 0.625000 0.489698
vt 0.625000 0.260302
vt 0.625000 0.260298
vt 0.625000 0.743685
vt 0.625000 0.989698
vt 0.625000 0.760302
vt 0.625000 0.243685
vt 0.625000 0.243665
vt 0.625000 0.135760
vt 0.625000 0.243609
vt 0.625000 0.989698
vt 0.625000 0.635760
vt 0.625000 0.635760
vt 0.625000 0.006328
vt 0.625000 0.006315
vt 0.625000 0.260302
vt 0.625000 0.114240
vt 0.625000 0.614240
vt 0.625000 0.614240
vt 0.625000 0.114240
vt 0.375000 0.000000
vt 0.625000 0.000000
vt 0.625000 0.003727
vt 0.375000 0.003717
s 0
usemtl Noir_Light
f 79/1/1 4/2/1 17/2/1 89/3/1
f 77/4/2 78/5/2 85/6/2 86/7/2 6/8/2 1/9/2
f 83/10/3 8/11/3 18/11/3 93/12/3
f 2/13/2 5/14/2 81/15/2 82/16/2 73/17/2 74/18/2
f 75/19/4 84/20/4 94/21/4 95/22/4
f 3/25/1 76/26/1 96/27/1 19/25/1
f 78/28/6 80/29/6 87/30/6 85/31/6
f 1/32/7 4/2/7 79/1/7 77/33/7
f 10/34/8 13/35/8 5/14/8 2/13/8
f 7/36/3 88/37/3 92/38/3 21/36/3
f 13/35/9 16/23/9 8/11/9 5/14/9
f 82/39/10 84/20/10 75/19/10 73/40/10
f 9/41/11 12/42/11 4/2/11 1/32/11
f 2/43/12 3/25/12 11/44/12 10/45/12
f 6/8/13 7/36/13 15/24/13 14/46/13
f 1/9/15 6/8/15 14/46/15 9/47/15
f 9/47/2 14/46/2 13/35/2 10/34/2
f 15/24/17 7/36/17 21/36/17 59/24/17
f 46/48/18 45/42/18 28/42/18 25/2/18
f 100/49/19 97/50/19 105/51/19 108/52/19
f 45/42/7 44/53/7 31/44/7 28/42/7
f 27/25/20 104/54/20 111/55/20 35/25/20
f 42/56/21 43/23/21 30/23/21 26/11/21
f 89/57/7 17/2/7 52/48/7 128/58/7
f 86/7/14 88/37/14 7/36/14 6/8/14
f 4/2/22 12/42/22 58/42/22 17/2/22
f 5/14/14 8/11/14 83/59/14 81/60/14
f 8/11/23 16/23/23 60/23/23 18/11/23
f 87/30/24 80/29/24 90/61/24 91/62/24
f 11/44/25 3/25/25 19/25/25 57/44/25
f 29/36/26 99/63/26 107/64/26 37/36/26
f 28/42/27 31/44/27 39/44/27 36/42/27
f 107/64/28 108/65/28 105/66/28 106/67/28 33/68/28 37/36/28
f 26/11/29 30/23/29 38/23/29 34/11/29
f 118/69/6 115/70/6 97/50/6 100/49/6
f 48/24/30 47/36/30 29/36/30 32/24/30
f 41/71/7 113/72/7 104/73/7 27/25/7
f 102/74/26 26/11/26 34/11/26 110/75/26
f 43/23/14 48/24/14 32/24/14 30/23/14
f 103/76/31 101/77/31 109/78/31 112/79/31
f 44/53/32 41/71/32 27/25/32 31/44/32
f 98/80/20 25/2/20 33/2/20 106/81/20
f 49/71/7 125/82/7 113/83/7 41/71/7
f 34/11/28 35/84/28 111/85/28 112/86/28 109/87/28 110/75/28
f 38/23/33 39/88/33 35/84/33 34/11/33
f 37/36/34 33/68/34 36/89/34 40/24/34
f 40/24/28 36/89/28 39/88/28 38/23/28
f 25/2/35 28/42/35 36/42/35 33/2/35
f 32/24/36 29/36/36 37/36/36 40/24/36
f 114/90/10 119/91/10 101/77/10 103/76/10
f 47/36/14 117/92/14 99/63/14 29/36/14
f 30/23/37 32/24/37 40/24/37 38/23/37
f 120/93/14 42/56/14 26/11/14 102/94/14
f 31/44/38 27/25/38 35/25/38 39/44/38
f 56/95/14 122/96/14 117/92/14 47/36/14
f 64/53/39 49/71/39 41/71/39 44/53/39
f 121/97/6 127/98/6 115/99/6 118/69/6
f 63/23/40 62/24/40 48/24/40 43/23/40
f 123/100/14 50/11/14 42/56/14 120/93/14
f 62/24/41 56/95/41 47/36/41 48/24/41
f 50/11/42 63/23/42 43/23/42 42/56/42
f 126/101/10 124/102/10 119/91/10 114/90/10
f 61/42/43 64/53/43 44/53/43 45/42/43
f 128/103/7 52/48/7 46/48/7 116/104/7
f 52/48/44 61/42/44 45/42/44 46/48/44
f 17/2/45 58/42/45 61/42/45 52/48/45
f 21/36/14 92/38/14 122/96/14 56/95/14
f 51/105/10 20/105/10 66/105/10 69/105/10
f 116/104/7 46/48/7 25/2/7 98/106/7
f 18/11/46 60/23/46 63/23/46 50/11/46
f 59/24/47 21/36/47 56/95/47 62/24/47
f 95/22/10 94/21/10 124/102/10 126/107/10
f 93/12/14 18/11/14 50/11/14 123/100/14
f 54/108/6 22/109/6 68/109/6 71/108/6
f 19/25/7 96/110/7 125/111/7 49/71/7
f 57/44/48 19/25/48 49/71/48 64/53/48
f 91/62/6 90/61/6 127/112/6 121/97/6
f 20/105/28 23/113/28 65/113/28 66/105/28
f 53/115/2 54/108/2 71/108/2 70/115/2
f 23/113/6 55/116/6 72/116/6 65/113/6
f 24/114/10 53/115/10 70/115/10 67/114/10
f 22/109/28 24/114/28 67/114/28 68/109/28
f 55/116/2 51/105/2 69/105/2 72/116/2
f 73/117/49 75/118/49 76/119/49 74/120/49
f 80/29/50 78/28/50 77/33/50 79/1/50
f 88/37/51 86/7/51 85/31/51 87/30/51
f 84/20/52 82/39/52 81/60/52 83/59/52
f 114/118/53 103/118/53 104/73/53 113/72/53
f 75/118/54 95/118/54 96/27/54 76/26/54
f 83/10/55 93/12/55 94/21/55 84/20/55
f 87/30/56 91/62/56 92/38/56 88/37/56
f 79/1/57 89/3/57 90/61/57 80/29/57
f 105/51/58 97/50/58 98/80/58 106/81/58
f 116/104/59 98/106/59 97/50/59 115/70/59
f 122/96/60 92/38/60 91/62/60 121/97/60
f 124/102/61 94/21/61 93/12/61 123/100/61
f 103/118/62 112/118/62 111/55/62 104/54/62
f 107/64/63 99/63/63 100/49/63 108/52/63
f 109/78/64 101/77/64 102/74/64 110/75/64
f 126/118/65 114/118/65 113/83/65 125/82/65
f 128/103/66 116/104/66 115/99/66 127/98/66
f 99/63/67 117/92/67 118/69/67 100/49/67
f 101/77/68 119/91/68 120/93/68 102/94/68
f 117/92/69 122/96/69 121/97/69 118/69/69
f 119/91/70 124/102/70 123/100/70 120/93/70
f 95/118/71 126/118/71 125/111/71 96/110/71
f 89/57/72 128/58/72 127/112/72 90/61/72
f 74/120/7 76/119/7 3/25/7 2/43/7
usemtl Bleu_Neon
f 66/105/7 65/113/7 72/116/7 69/105/7
f 68/109/14 67/114/14 70/115/14 71/108/14
usemtl Noir_Profond
f 16/23/5 15/24/5 59/24/5 60/23/5
f 10/45/7 11/44/7 12/42/7 9/41/7
f 14/46/14 15/24/14 16/23/14 13/35/14
f 12/42/16 11/44/16 57/44/16 58/42/16
f 23/113/7 20/105/7 58/42/7 57/44/7
f 24/114/14 22/109/14 60/23/14 59/24/14
f 20/105/7 51/105/7 61/42/7 58/42/7
f 53/115/14 24/114/14 59/24/14 62/24/14
f 22/109/14 54/108/14 63/23/14 60/23/14
f 55/116/7 23/113/7 57/44/7 64/53/7
f 51/105/7 55/116/7 64/53/7 61/42/7
f 54/108/14 53/115/14 62/24/14 63/23/14
