# Blender 4.2.3 LTS
# www.blender.org
mtllib Tonneau_Carburant.mtl
o Tonneau_Carburant
v 0.000000 0.000000 -0.350000
v 0.000000 0.899752 -0.316121
v 0.247487 0.000000 -0.247487
v 0.223531 0.899752 -0.223531
v 0.350000 0.000000 0.000000
v 0.316121 0.899752 0.000000
v 0.247487 0.000000 0.247487
v 0.223531 0.899752 0.223531
v 0.000000 0.000000 0.350000
v 0.000000 0.899752 0.316121
v -0.247487 0.000000 0.247487
v -0.223531 0.899752 0.223531
v -0.350000 0.000000 0.000000
v -0.316121 0.899752 0.000000
v -0.247487 0.000000 -0.247487
v -0.223531 0.899752 -0.223531
v 0.000000 0.141308 -0.350000
v 0.000000 0.758443 -0.350000
v 0.247487 0.758443 -0.247487
v 0.247487 0.141308 -0.247487
v 0.350000 0.758443 0.000000
v 0.350000 0.141308 0.000000
v 0.247487 0.758443 0.247487
v 0.247487 0.141308 0.247487
v 0.000000 0.758443 0.350000
v 0.000000 0.141308 0.350000
v -0.247487 0.758443 0.247487
v -0.247487 0.141308 0.247487
v -0.350000 0.758443 0.000000
v -0.350000 0.141308 0.000000
v -0.247487 0.758443 -0.247487
v -0.247487 0.141308 -0.247487
v 0.000000 0.000000 -0.396699
v 0.280508 0.000000 -0.280508
v 0.396699 0.000000 0.000000
v 0.280508 0.000000 0.280508
v 0.000000 0.000000 0.396699
v -0.280508 0.000000 0.280508
v -0.396699 0.000000 0.000000
v -0.280508 0.000000 -0.280508
v 0.247487 0.899752 -0.247487
v 0.000000 0.899752 -0.350000
v 0.350000 0.899752 0.000000
v 0.247487 0.899752 0.247487
v 0.000000 0.899752 0.350000
v -0.247487 0.899752 0.247487
v -0.350000 0.899752 0.000000
v -0.247487 0.899752 -0.247487
v 0.223531 0.864689 -0.223531
v 0.000000 0.864689 -0.316121
v 0.316121 0.864689 0.000000
v 0.223531 0.864689 0.223531
v 0.000000 0.864689 0.316121
v -0.223531 0.864689 0.223531
v -0.316121 0.864689 0.000000
v -0.223531 0.864689 -0.223531
v 0.000000 0.328811 -0.350000
v 0.000000 0.567939 -0.350000
v 0.247487 0.567939 -0.247487
v 0.247487 0.328811 -0.247487
v 0.350000 0.567939 0.000000
v 0.350000 0.328811 0.000000
v 0.247487 0.567939 0.247487
v 0.247487 0.328811 0.247487
v 0.000000 0.567939 0.350000
v 0.000000 0.328811 0.350000
v -0.247487 0.567939 0.247487
v -0.247487 0.328811 0.247487
v -0.350000 0.567939 0.000000
v -0.350000 0.328811 0.000000
v -0.247487 0.567939 -0.247487
v -0.247487 0.328811 -0.247487
v 0.000000 0.356709 -0.350000
v 0.000000 0.540040 -0.350000
v 0.247487 0.540040 -0.247487
v 0.247487 0.356709 -0.247487
v 0.350000 0.540040 0.000000
v 0.350000 0.356709 0.000000
v 0.247487 0.540040 0.247487
v 0.247487 0.356709 0.247487
v 0.000000 0.540040 0.350000
v 0.000000 0.356709 0.350000
v -0.247487 0.540040 0.247487
v -0.247487 0.356709 0.247487
v -0.350000 0.540040 0.000000
v -0.350000 0.356709 0.000000
v -0.247487 0.540040 -0.247487
v -0.247487 0.356709 -0.247487
v 0.000000 0.540040 -0.340462
v 0.000000 0.567939 -0.340462
v 0.240743 0.356709 -0.240743
v 0.240743 0.328811 -0.240743
v 0.340462 0.356709 0.000000
v 0.340462 0.328811 0.000000
v 0.240743 0.356709 0.240743
v 0.240743 0.328811 0.240743
v 0.000000 0.356709 0.340462
v 0.000000 0.328811 0.340462
v -0.240743 0.356709 0.240743
v -0.240743 0.328811 0.240743
v -0.340462 0.356709 0.000000
v -0.340462 0.328811 0.000000
v -0.240743 0.356709 -0.240743
v -0.240743 0.328811 -0.240743
v 0.000000 0.328811 -0.340462
v 0.240743 0.567939 -0.240743
v 0.340462 0.567939 0.000000
v 0.240743 0.567939 0.240743
v 0.000000 0.567939 0.340462
v -0.240743 0.567939 0.240743
v -0.340462 0.567939 0.000000
v -0.240743 0.567939 -0.240743
v 0.000000 0.356709 -0.340462
v 0.240743 0.540040 -0.240743
v 0.340462 0.540040 0.000000
v 0.240743 0.540040 0.240743
v 0.000000 0.540040 0.340462
v -0.240743 0.540040 0.240743
v -0.340462 0.540040 0.000000
v -0.240743 0.540040 -0.240743
v 0.272855 0.899752 -0.272855
v 0.280508 0.889752 -0.280508
v 0.000000 0.889752 -0.396699
v 0.000000 0.899752 -0.385875
v 0.000000 0.768443 -0.396699
v 0.000000 0.758443 -0.385875
v 0.280508 0.131308 -0.280508
v 0.272855 0.141308 -0.272855
v 0.385875 0.899752 0.000000
v 0.396699 0.889752 0.000000
v 0.396699 0.131308 0.000000
v 0.385875 0.141308 0.000000
v 0.272855 0.899752 0.272855
v 0.280508 0.889752 0.280508
v 0.280508 0.131308 0.280508
v 0.272855 0.141308 0.272855
v 0.000000 0.899752 0.385875
v 0.000000 0.889752 0.396699
v 0.000000 0.131308 0.396699
v 0.000000 0.141308 0.385875
v -0.272855 0.899752 0.272855
v -0.280508 0.889752 0.280508
v -0.280508 0.131308 0.280508
v -0.272855 0.141308 0.272855
v -0.385875 0.899752 0.000000
v -0.396699 0.889752 0.000000
v -0.396699 0.131308 0.000000
v -0.385875 0.141308 0.000000
v -0.272855 0.899752 -0.272855
v -0.280508 0.889752 -0.280508
v -0.280508 0.131308 -0.280508
v -0.272855 0.141308 -0.272855
v 0.000000 0.141308 -0.385875
v 0.000000 0.131308 -0.396699
v 0.272855 0.758443 -0.272855
v 0.280508 0.768443 -0.280508
v 0.385875 0.758443 0.000000
v 0.396699 0.768443 0.000000
v 0.272855 0.758443 0.272855
v 0.280508 0.768443 0.280508
v 0.000000 0.758443 0.385875
v 0.000000 0.768443 0.396699
v -0.272855 0.758443 0.272855
v -0.280508 0.768443 0.280508
v -0.385875 0.758443 0.000000
v -0.396699 0.768443 0.000000
v -0.272855 0.758443 -0.272855
v -0.280508 0.768443 -0.280508
vn -0.0000 -1.0000 -0.0000
vn -0.0000 1.0000 -0.0000
vn 0.3827 -0.0000 0.9239
vn 0.9239 -0.0000 -0.3827
vn 0.9239 -0.0000 0.3827
vn -0.3827 -0.0000 -0.9239
vn -0.9239 -0.0000 -0.3827
vn -0.9239 -0.0000 0.3827
vn -0.3827 -0.0000 0.9239
vn 0.3827 -0.0000 -0.9239
vn 0.2706 0.7071 -0.6533
vn 0.6533 0.7071 -0.2706
vn 0.6533 0.7071 0.2706
vn 0.2706 0.7071 0.6533
vn -0.2706 0.7071 0.6533
vn -0.6533 0.7071 0.2706
vn -0.6533 0.7071 -0.2706
vn -0.2706 0.7071 -0.6533
vn -0.2706 -0.7071 -0.6533
vn -0.6533 -0.7071 -0.2706
vn -0.6533 -0.7071 0.2706
vn -0.2706 -0.7071 0.6533
vn 0.2706 -0.7071 0.6533
vn 0.6533 -0.7071 0.2706
vn 0.6533 -0.7071 -0.2706
vn 0.2706 -0.7071 -0.6533
vt 0.750000 0.833333
vt 0.875000 0.833333
vt 0.875000 0.833333
vt 0.580294 0.080294
vt 0.750000 0.010000
vt 0.625000 0.833333
vt 0.750000 0.833333
vt 0.490000 0.250000
vt 0.419706 0.080294
vt 0.625000 0.845128
vt 0.625000 0.988205
vt 0.500000 0.988205
vt 0.500000 0.845128
vt 0.500000 0.833333
vt 0.625000 0.833333
vt 0.033231 0.250000
vt 0.096721 0.096721
vt 0.919706 0.080294
vt 0.750000 0.500000
vt 0.750000 0.654872
vt 0.625000 0.654872
vt 0.625000 0.500000
vt 0.750000 0.490000
vt 0.919706 0.419706
vt 0.990000 0.250000
vt 0.510000 0.250000
vt 0.580294 0.419706
vt 0.125000 0.845128
vt 0.125000 0.988205
vt 0.000000 0.988205
vt 0.000000 0.845128
vt 0.125000 0.777778
vt 0.125000 0.833333
vt 0.000000 0.833333
vt 0.000000 0.777778
vt 0.375000 0.833333
vt 0.500000 0.833333
vt 0.250000 0.777778
vt 0.250000 0.833333
vt 0.375000 0.777778
vt 0.750000 0.845128
vt 0.750000 0.988205
vt 0.500000 0.777778
vt 0.625000 0.654872
vt 0.500000 0.654872
vt 0.500000 0.500000
vt 0.625000 0.777778
vt 0.750000 0.777778
vt 0.375000 0.833333
vt 0.875000 0.777778
vt 0.250000 0.845128
vt 0.250000 0.988205
vt 1.000000 0.777778
vt 1.000000 0.833333
vt 0.419706 0.419706
vt 1.000000 0.845128
vt 1.000000 0.988205
vt 0.875000 0.988205
vt 0.875000 0.845128
vt 0.750000 0.666667
vt 0.625000 0.666667
vt 0.500000 0.666667
vt 0.375000 0.666667
vt 0.375000 0.500000
vt 0.375000 0.654872
vt 0.250000 0.654872
vt 0.250000 0.500000
vt 0.250000 0.654872
vt 0.125000 0.654872
vt 0.125000 0.500000
vt 0.125000 0.833333
vt 0.125000 0.666667
vt 0.000000 0.666667
vt 0.250000 0.666667
vt 0.080294 0.080294
vt 0.010000 0.250000
vt 0.250000 0.010000
vt 1.000000 0.666667
vt 0.875000 0.666667
vt 0.875000 0.500000
vt 0.875000 0.654872
vt 0.750000 0.654872
vt 0.375000 0.988205
vt 0.375000 0.845128
vt 1.000000 0.833333
vt 0.875000 0.845128
vt 0.875000 0.988205
vt 1.000000 0.500000
vt 1.000000 0.654872
vt 0.875000 0.654872
vt 0.125000 0.654872
vt 0.000000 0.654872
vt 0.000000 0.500000
vt 0.080294 0.419706
vt 0.250000 0.833333
vt 0.250000 0.490000
vt 0.500000 0.654872
vt 0.375000 0.654872
vt 0.250000 0.466769
vt 0.403279 0.403279
vt 0.466769 0.250000
vt 0.403279 0.096721
vt 0.250000 0.033231
vt 0.096721 0.403279
vt 1.000000 0.722222
vt 0.875000 0.722222
vt 0.375000 0.759259
vt 0.500000 0.759259
vt 0.750000 0.722222
vt 0.125000 0.722222
vt 0.250000 0.722222
vt 0.625000 0.722222
vt 0.500000 0.740741
vt 0.375000 0.740741
vt 0.500000 0.722222
vt 0.375000 0.722222
vt 0.250000 0.759259
vt 0.250000 0.740741
vt 0.000000 0.722222
vt 0.125000 0.759259
vt 0.125000 0.740741
vt 0.000000 0.759259
vt 0.000000 0.740741
vt 0.875000 0.759259
vt 1.000000 0.759259
vt 0.625000 0.740741
vt 0.625000 0.759259
vt 0.750000 0.740741
vt 0.750000 0.759259
vt 0.875000 0.740741
vt 1.000000 0.740741
s 0
usemtl Violet
f 71/32/6 31/33/6 18/34/6 58/35/6
f 69/38/7 29/39/7 31/33/7 71/32/7
f 67/40/8 27/36/8 29/39/8 69/38/8
f 65/43/9 25/14/9 27/36/9 67/40/9
f 63/47/3 23/6/3 25/14/3 65/43/3
f 61/48/5 21/1/5 23/6/5 63/47/5
f 59/50/4 19/2/4 21/1/4 61/48/4
f 58/53/10 18/54/10 19/2/10 59/50/10
f 49/100/2 50/99/2 56/104/2 55/16/2 54/17/2 53/103/2 52/102/2 51/101/2
f 17/78/10 57/105/10 60/106/10 20/79/10
f 83/107/2 81/108/2 117/108/2 118/107/2
f 20/79/4 60/106/4 62/109/4 22/60/4
f 72/110/2 70/111/2 102/111/2 104/110/2
f 22/60/5 62/109/5 64/112/5 24/61/5
f 82/113/1 84/114/1 99/114/1 97/113/1
f 24/61/3 64/112/3 66/115/3 26/62/3
f 67/40/1 69/38/1 111/38/1 110/40/1
f 26/62/9 66/115/9 68/116/9 28/63/9
f 85/117/2 83/107/2 118/107/2 119/117/2
f 28/63/8 68/116/8 70/111/8 30/74/8
f 70/111/2 68/116/2 100/116/2 102/111/2
f 30/74/7 70/111/7 72/110/7 32/72/7
f 84/114/1 86/118/1 101/118/1 99/114/1
f 32/72/6 72/110/6 57/119/6 17/73/6
f 65/43/1 67/40/1 110/40/1 109/43/1
f 87/120/2 85/117/2 119/117/2 120/120/2
f 88/121/6 87/120/6 74/122/6 73/123/6
f 68/116/2 66/115/2 98/115/2 100/116/2
f 86/118/7 85/117/7 87/120/7 88/121/7
f 86/118/1 88/121/1 103/121/1 101/118/1
f 84/114/8 83/107/8 85/117/8 86/118/8
f 63/47/1 65/43/1 109/43/1 108/47/1
f 82/113/9 81/108/9 83/107/9 84/114/9
f 75/124/2 74/125/2 89/125/2 114/124/2
f 80/126/3 79/127/3 81/108/3 82/113/3
f 74/122/2 87/120/2 120/120/2 89/122/2
f 78/128/5 77/129/5 79/127/5 80/126/5
f 66/115/2 64/112/2 96/112/2 98/115/2
f 76/130/4 75/124/4 77/129/4 78/128/4
f 73/131/1 76/130/1 91/130/1 113/131/1
f 73/131/10 74/125/10 75/124/10 76/130/10
f 69/38/1 71/32/1 112/32/1 111/38/1
f 80/126/1 82/113/1 97/113/1 95/126/1
f 60/106/2 57/105/2 105/105/2 92/106/2
f 57/119/2 72/110/2 104/110/2 105/119/2
f 81/108/2 79/127/2 116/127/2 117/108/2
f 58/53/1 59/50/1 106/50/1 90/53/1
f 71/32/1 58/35/1 90/35/1 112/32/1
f 78/128/1 80/126/1 95/126/1 93/128/1
f 62/109/2 60/106/2 92/106/2 94/109/2
f 79/127/2 77/129/2 115/129/2 116/127/2
f 59/50/1 61/48/1 107/48/1 106/50/1
f 76/130/1 78/128/1 93/128/1 91/130/1
f 64/112/2 62/109/2 94/109/2 96/112/2
f 77/129/2 75/124/2 114/124/2 115/129/2
f 61/48/1 63/47/1 108/47/1 107/48/1
f 88/121/1 73/123/1 113/123/1 103/121/1
usemtl Noir_Light
f 21/1/1 19/2/1 155/3/1 157/1/1
f 11/4/1 9/5/1 37/5/1 38/4/1
f 23/6/1 21/1/1 157/7/1 159/6/1
f 43/8/2 44/9/2 133/9/2 129/8/2
f 160/10/3 134/11/3 138/12/3 162/13/3
f 25/14/1 23/6/1 159/15/1 161/14/1
f 14/16/4 12/17/4 54/17/4 55/16/4
f 9/5/1 7/18/1 36/18/1 37/5/1
f 35/19/5 131/20/5 135/21/5 36/22/5
f 1/23/1 3/24/1 5/25/1 7/18/1 9/5/1 11/4/1 13/26/1 15/27/1
f 168/28/6 150/29/6 123/30/6 125/31/6
f 27/36/1 25/14/1 161/37/1 163/36/1
f 1/23/1 15/27/1 40/27/1 33/23/1
f 158/41/5 130/42/5 134/11/5 160/10/5
f 36/22/3 135/44/3 139/45/3 37/46/3
f 7/18/1 5/25/1 35/25/1 36/18/1
f 29/39/1 27/36/1 163/49/1 165/39/1
f 166/51/7 146/52/7 150/29/7 168/28/7
f 41/55/2 43/8/2 129/8/2 121/55/2
f 125/56/10 123/57/10 122/58/10 156/59/10
f 22/60/2 24/61/2 136/61/2 132/60/2
f 24/61/2 26/62/2 140/62/2 136/61/2
f 26/62/2 28/63/2 144/63/2 140/62/2
f 38/64/8 143/65/8 147/66/8 39/67/8
f 39/67/7 147/68/7 151/69/7 40/70/7
f 18/34/1 31/33/1 167/71/1 126/34/1
f 32/72/2 17/73/2 153/73/2 152/72/2
f 30/74/2 32/72/2 152/72/2 148/74/2
f 28/63/2 30/74/2 148/74/2 144/63/2
f 46/75/2 47/76/2 145/76/2 141/75/2
f 45/77/2 46/75/2 141/75/2 137/77/2
f 44/9/2 45/77/2 137/77/2 133/9/2
f 17/78/2 20/79/2 128/79/2 153/78/2
f 34/80/4 127/81/4 131/82/4 35/19/4
f 3/24/1 1/23/1 33/23/1 34/24/1
f 20/79/2 22/60/2 132/60/2 128/79/2
f 162/13/9 138/12/9 142/83/9 164/84/9
f 19/2/1 18/54/1 126/85/1 155/2/1
f 156/86/4 122/87/4 130/42/4 158/41/4
f 33/88/10 154/89/10 127/90/10 34/80/10
f 40/70/6 151/91/6 154/92/6 33/93/6
f 13/26/1 11/4/1 38/4/1 39/26/1
f 164/84/8 142/83/8 146/52/8 166/51/8
f 47/76/2 48/94/2 149/94/2 145/76/2
f 5/25/1 3/24/1 34/24/1 35/25/1
f 31/33/1 29/39/1 165/95/1 167/33/1
f 48/94/2 42/96/2 124/96/2 149/94/2
f 15/27/1 13/26/1 39/26/1 40/27/1
f 37/46/9 139/97/9 143/98/9 38/64/9
f 2/99/2 4/100/2 41/55/2 42/96/2
f 4/100/2 6/101/2 43/8/2 41/55/2
f 6/101/2 8/102/2 44/9/2 43/8/2
f 8/102/2 10/103/2 45/77/2 44/9/2
f 10/103/2 12/17/2 46/75/2 45/77/2
f 12/17/2 14/16/2 47/76/2 46/75/2
f 14/16/2 16/104/2 48/94/2 47/76/2
f 16/104/2 2/99/2 42/96/2 48/94/2
f 10/103/6 8/102/6 52/102/6 53/103/6
f 6/101/8 4/100/8 49/100/8 51/101/8
f 16/104/5 14/16/5 55/16/5 56/104/5
f 12/17/10 10/103/10 53/103/10 54/17/10
f 8/102/7 6/101/7 51/101/7 52/102/7
f 4/100/9 2/99/9 50/99/9 49/100/9
f 2/99/3 16/104/3 56/104/3 50/99/3
f 122/55/11 123/96/11 124/96/11 121/55/11
f 130/8/12 122/55/12 121/55/12 129/8/12
f 134/9/13 130/8/13 129/8/13 133/9/13
f 138/77/14 134/9/14 133/9/14 137/77/14
f 142/75/15 138/77/15 137/77/15 141/75/15
f 146/76/16 142/75/16 141/75/16 145/76/16
f 150/94/17 146/76/17 145/76/17 149/94/17
f 123/96/18 150/94/18 149/94/18 124/96/18
f 152/72/18 153/73/18 154/92/18 151/91/18
f 168/28/19 125/31/19 126/34/19 167/71/19
f 148/74/17 152/72/17 151/69/17 147/68/17
f 166/51/20 168/28/20 167/33/20 165/95/20
f 144/63/16 148/74/16 147/66/16 143/65/16
f 164/84/21 166/51/21 165/39/21 163/49/21
f 140/62/15 144/63/15 143/98/15 139/97/15
f 162/13/22 164/84/22 163/36/22 161/37/22
f 136/61/14 140/62/14 139/45/14 135/44/14
f 160/10/23 162/13/23 161/14/23 159/15/23
f 132/60/13 136/61/13 135/21/13 131/20/13
f 158/41/24 160/10/24 159/6/24 157/7/24
f 128/79/12 132/60/12 131/82/12 127/81/12
f 156/86/25 158/41/25 157/1/25 155/3/25
f 153/78/11 128/79/11 127/90/11 154/89/11
f 125/56/26 156/59/26 155/2/26 126/85/26
f 42/96/2 41/55/2 121/55/2 124/96/2
usemtl Bleu_Neon
f 89/125/10 90/53/10 106/50/10 114/124/10
f 114/124/4 106/50/4 107/48/4 115/129/4
f 115/129/5 107/48/5 108/47/5 116/127/5
f 116/127/3 108/47/3 109/43/3 117/108/3
f 117/108/9 109/43/9 110/40/9 118/107/9
f 118/107/8 110/40/8 111/38/8 119/117/8
f 119/117/7 111/38/7 112/32/7 120/120/7
f 120/120/6 112/32/6 90/35/6 89/122/6
f 104/110/6 103/121/6 113/123/6 105/119/6
f 102/111/7 101/118/7 103/121/7 104/110/7
f 100/116/8 99/114/8 101/118/8 102/111/8
f 98/115/9 97/113/9 99/114/9 100/116/9
f 96/112/3 95/126/3 97/113/3 98/115/3
f 94/109/5 93/128/5 95/126/5 96/112/5
f 92/106/4 91/130/4 93/128/4 94/109/4
f 105/105/10 113/131/10 91/130/10 92/106/10
