# Blender 4.2.3 LTS
# www.blender.org
mtllib SM_Tourelle.mtl
o SM_Tourelle_Base
v -0.000000 0.185544 -0.348077
v 0.246127 0.185544 -0.246127
v 0.348076 0.185544 0.000000
v 0.246127 0.185544 0.246127
v -0.000000 0.185544 0.348077
v -0.246128 0.185544 0.246127
v -0.348077 0.185544 0.000000
v -0.246128 0.185544 -0.246127
v 0.112673 0.281337 -0.112673
v -0.000000 0.281337 -0.159344
v 0.159344 0.281337 0.000000
v 0.112673 0.281337 0.112673
v -0.000000 0.281337 0.159344
v -0.112674 0.281337 0.112673
v -0.159344 0.281337 0.000000
v -0.112674 0.281337 -0.112673
v 0.071229 0.549476 -0.071229
v -0.000000 0.549476 -0.100734
v 0.100733 0.549476 0.000000
v 0.071229 0.549476 0.071229
v -0.000000 0.549476 0.100734
v -0.071230 0.549476 0.071229
v -0.100734 0.549476 0.000000
v -0.071230 0.549476 -0.071229
v -0.000000 0.061848 -0.518957
v -0.000000 0.123696 -0.481282
v 0.340317 0.123696 -0.340318
v 0.366958 0.061848 -0.366958
v 0.481281 0.123696 0.000000
v 0.518957 0.061848 0.000000
v 0.340317 0.123696 0.340318
v 0.366958 0.061848 0.366958
v -0.000000 0.123696 0.481282
v -0.000000 0.061848 0.518957
v -0.340318 0.123696 0.340318
v -0.366958 0.061848 0.366958
v -0.481282 0.123696 0.000000
v -0.518957 0.061848 0.000000
v -0.340318 0.123696 -0.340318
v -0.366958 0.061848 -0.366958
v -0.000000 0.061831 -0.512362
v -0.000000 0.123679 -0.474687
v 0.335654 0.123679 -0.335654
v 0.356845 0.076653 -0.356846
v 0.482393 0.108858 0.000000
v 0.504656 0.076653 0.000000
v 0.341103 0.108858 0.341104
v 0.362295 0.061831 0.362295
v -0.000000 0.123679 0.474687
v -0.000000 0.061831 0.512362
v -0.341104 0.108858 0.341104
v -0.356846 0.076653 0.356846
v -0.482394 0.108858 0.000000
v -0.504656 0.076653 0.000000
v -0.335655 0.123679 -0.335654
v -0.362295 0.061831 -0.362295
v -0.356846 0.076653 -0.356846
v -0.000000 0.076653 -0.504656
v -0.341104 0.108858 -0.341104
v -0.000000 0.108858 -0.482393
v -0.512362 0.061831 0.000000
v -0.474687 0.123679 0.000000
v -0.362295 0.061831 0.362295
v -0.335655 0.123679 0.335654
v -0.000000 0.076653 0.504656
v -0.000000 0.108858 0.482393
v 0.356845 0.076653 0.356846
v 0.335654 0.123679 0.335654
v 0.512362 0.061831 0.000000
v 0.474687 0.123679 0.000000
v 0.362295 0.061831 -0.362295
v 0.341103 0.108858 -0.341104
v -0.000000 0.076641 -0.502090
v -0.000000 0.108846 -0.479828
v 0.339289 0.108846 -0.339289
v 0.355031 0.076641 -0.355031
v 0.479827 0.108846 0.000000
v 0.502090 0.076641 0.000000
v 0.339289 0.108846 0.339289
v 0.355031 0.076641 0.355031
v -0.000000 0.108846 0.479828
v -0.000000 0.076641 0.502090
v -0.339290 0.108846 0.339289
v -0.355031 0.076641 0.355031
v -0.479828 0.108846 0.000000
v -0.502090 0.076641 0.000000
v -0.339290 0.108846 -0.339289
v -0.355031 0.076641 -0.355031
v -0.000000 0.000000 -0.548131
v -0.000000 0.006845 -0.552463
v 0.387587 0.000000 -0.387587
v 0.390650 0.006845 -0.390650
v 0.548131 0.000000 0.000000
v 0.552463 0.006845 0.000000
v 0.387587 0.000000 0.387587
v 0.390650 0.006845 0.390650
v -0.000000 0.000000 0.548131
v -0.000000 0.006845 0.552463
v -0.387587 0.000000 0.387587
v -0.390650 0.006845 0.390650
v -0.548131 0.000000 0.000000
v -0.552463 0.006845 0.000000
v -0.387587 0.000000 -0.387587
v -0.390650 0.006845 -0.390650
v 0.307665 0.185544 -0.307666
v 0.316625 0.178699 -0.316625
v -0.000000 0.178699 -0.447776
v -0.000000 0.185544 -0.435105
v 0.435105 0.185544 0.000000
v 0.447776 0.178699 0.000000
v 0.307665 0.185544 0.307666
v 0.316625 0.178699 0.316625
v -0.000000 0.185544 0.435105
v -0.000000 0.178699 0.447776
v -0.307666 0.185544 0.307666
v -0.316626 0.178699 0.316625
v -0.435105 0.185544 0.000000
v -0.447776 0.178699 0.000000
v -0.307666 0.185544 -0.307666
v -0.316626 0.178699 -0.316625
v 0.240116 0.279061 -0.240116
v 0.246127 0.271207 -0.246127
v -0.000000 0.271207 -0.348077
v -0.000000 0.279061 -0.339575
v 0.339575 0.279061 0.000000
v 0.348076 0.271207 0.000000
v 0.240116 0.279061 0.240116
v 0.246127 0.271207 0.246127
v -0.000000 0.279061 0.339575
v -0.000000 0.271207 0.348077
v -0.240116 0.279061 0.240116
v -0.246128 0.271207 0.246127
v -0.339575 0.279061 0.000000
v -0.348077 0.271207 0.000000
v -0.240116 0.279061 -0.240116
v -0.246128 0.271207 -0.246127
vn -0.3335 0.4905 -0.8051
vn -0.0000 1.0000 -0.0000
vn 0.0126 0.9999 -0.0052
vn 0.0052 0.9999 -0.0126
vn 0.8051 0.4905 -0.3335
vn 0.3335 0.4905 -0.8051
vn 0.8051 0.4905 0.3335
vn 0.3335 0.4905 0.8051
vn -0.3335 0.4905 0.8051
vn -0.8051 0.4905 0.3335
vn -0.8051 0.4905 -0.3335
vn -0.3751 0.1979 0.9056
vn 0.0126 0.9999 0.0052
vn -0.0126 0.9999 -0.0052
vn -0.0052 0.9999 0.0126
vn 0.3827 -0.0000 -0.9239
vn -0.0126 0.9999 0.0052
vn 0.0052 0.9999 0.0126
vn 0.9239 -0.0000 -0.3827
vn -0.0052 0.9999 -0.0126
vn 0.9239 -0.0000 0.3827
vn 0.3827 -0.0000 0.9239
vn -0.3827 -0.0000 0.9239
vn -0.9239 -0.0000 0.3827
vn -0.9239 -0.0000 -0.3827
vn -0.3827 -0.0000 -0.9239
vn 0.9056 0.1979 0.3751
vn 0.3751 0.1979 -0.9056
vn -0.3751 0.1979 -0.9056
vn -0.9056 0.1979 0.3751
vn 0.3751 0.1979 0.9056
vn 0.9056 0.1979 -0.3751
vn -0.9056 0.1979 -0.3751
vn -0.0010 -1.0000 0.0025
vn -0.0010 1.0000 0.0025
vn 0.0010 1.0000 -0.0025
vn 0.0025 -1.0000 -0.0010
vn -0.0025 -1.0000 0.0010
vn -0.0025 1.0000 0.0010
vn 0.0025 1.0000 -0.0010
vn -0.0000 -1.0000 -0.0000
vn 0.0025 -1.0000 0.0010
vn -0.0047 1.0000 0.0020
vn 0.0047 1.0000 -0.0020
vn 0.0047 -1.0000 0.0020
vn -0.0047 -1.0000 -0.0020
vn -0.0047 1.0000 -0.0020
vn 0.0047 1.0000 0.0020
vn 0.0020 -1.0000 0.0047
vn -0.0020 -1.0000 -0.0047
vn 0.0010 1.0000 0.0025
vn 0.0010 -1.0000 -0.0025
vn -0.0010 1.0000 -0.0025
vn -0.0010 -1.0000 -0.0025
vn 0.0010 -1.0000 0.0025
vn 0.0025 1.0000 0.0010
vn -0.0025 1.0000 -0.0010
vn -0.0025 -1.0000 -0.0010
vn -0.3449 0.4330 -0.8328
vn -0.8328 0.4330 -0.3449
vn -0.8328 0.4330 0.3449
vn -0.3449 0.4330 0.8328
vn 0.3449 0.4330 0.8328
vn 0.8328 0.4330 0.3449
vn 0.8328 0.4330 -0.3449
vn 0.3449 0.4330 -0.8328
vn -0.3225 0.5382 -0.7786
vn -0.7786 0.5382 -0.3225
vn -0.7786 0.5382 0.3225
vn -0.3225 0.5382 0.7786
vn 0.3225 0.5382 0.7786
vn 0.7786 0.5382 0.3225
vn 0.7786 0.5382 -0.3225
vn 0.3225 0.5382 -0.7786
vn -0.0047 -1.0000 0.0020
vn 0.0047 -1.0000 -0.0020
vn 0.0020 1.0000 -0.0047
vn -0.0020 1.0000 0.0047
vn -0.0020 -1.0000 0.0047
vn 0.0020 1.0000 0.0047
vn 0.0020 -1.0000 -0.0047
vn -0.0020 1.0000 -0.0047
vn 0.3304 -0.5048 -0.7976
vn 0.1932 0.8633 -0.4663
vn 0.7976 -0.5048 -0.3304
vn 0.4663 0.8633 -0.1932
vn 0.7976 -0.5048 0.3304
vn 0.4663 0.8633 0.1932
vn 0.3304 -0.5048 0.7976
vn 0.1932 0.8633 0.4663
vn -0.3304 -0.5048 0.7976
vn -0.1932 0.8633 0.4663
vn -0.7976 -0.5048 0.3304
vn -0.4663 0.8633 0.1932
vn -0.7976 -0.5048 -0.3304
vn -0.4663 0.8633 -0.1932
vn -0.3304 -0.5048 -0.7976
vn -0.1932 0.8633 -0.4663
vn 0.2706 0.7071 -0.6533
vn 0.6533 0.7071 -0.2706
vn 0.6533 0.7071 0.2706
vn 0.2706 0.7071 0.6533
vn -0.2706 0.7071 0.6533
vn -0.6533 0.7071 0.2706
vn -0.6533 0.7071 -0.2706
vn -0.2706 0.7071 -0.6533
vt 0.125000 0.833333
vt 0.125000 0.981555
vt 0.000000 0.981555
vt 0.000000 0.833333
vt 0.383160 0.383160
vt 0.438316 0.250000
vt 0.485401 0.250000
vt 0.416453 0.416453
vt 0.383160 0.116840
vt 0.250000 0.061684
vt 0.250000 0.014599
vt 0.416453 0.083547
vt 0.116840 0.116840
vt 0.083547 0.083547
vt 0.250000 0.014599
vt 0.061684 0.250000
vt 0.014599 0.250000
vt 0.116840 0.383160
vt 0.083547 0.416453
vt 0.014599 0.250000
vt 0.330102 0.330102
vt 0.363282 0.250000
vt 0.433717 0.250000
vt 0.379908 0.379908
vt 0.250000 0.363282
vt 0.250000 0.433717
vt 0.250000 0.438317
vt 0.250000 0.485401
vt 0.083547 0.416453
vt 0.125000 0.518445
vt 0.125000 0.666667
vt 0.000000 0.666667
vt 0.000000 0.518445
vt 0.875000 0.833333
vt 0.875000 0.981555
vt 0.750000 0.981555
vt 0.750000 0.833333
vt 1.000000 0.833333
vt 1.000000 0.981555
vt 0.875000 0.981555
vt 0.750000 0.981555
vt 0.625000 0.981555
vt 0.625000 0.833333
vt 0.625000 0.981555
vt 0.500000 0.981555
vt 0.500000 0.833333
vt 0.500000 0.981555
vt 0.375000 0.981555
vt 0.375000 0.833333
vt 0.375000 0.981555
vt 0.250000 0.981555
vt 0.250000 0.833333
vt 0.250000 0.981555
vt 0.125000 0.981555
vt 0.169898 0.169898
vt 0.250000 0.136718
vt 0.330102 0.169898
vt 0.379908 0.120092
vt 0.136718 0.250000
vt 0.169898 0.330102
vt 0.120092 0.379908
vt 0.066283 0.250000
vt 0.120092 0.120092
vt 0.250000 0.066283
vt 0.438316 0.250000
vt 0.875000 0.518445
vt 0.875000 0.666667
vt 0.750000 0.666667
vt 0.750000 0.518445
vt 0.416453 0.416453
vt 1.000000 0.666667
vt 0.250000 0.518445
vt 0.250000 0.666667
vt 0.375000 0.666667
vt 0.500000 0.666667
vt 0.375000 0.518445
vt 0.500000 0.518445
vt 0.625000 0.518445
vt 0.625000 0.666667
vt 0.750000 0.486335
vt 0.917114 0.417114
vt 0.986335 0.250000
vt 0.917114 0.082886
vt 0.750000 0.013666
vt 0.582886 0.082886
vt 0.513666 0.250000
vt 0.582886 0.417114
vt 0.749874 0.705201
vt 0.874874 0.705201
vt 0.249874 0.705201
vt 0.374874 0.705201
vt 0.750127 0.794800
vt 0.625127 0.794800
vt 0.250127 0.794800
vt 0.125127 0.794800
vt 0.624874 0.705201
vt 0.124874 0.705201
vt 0.500127 0.794800
vt 0.000127 0.794800
vt -0.000126 0.705201
vt 0.375127 0.794800
vt 0.499874 0.705201
vt 0.875127 0.794800
vt 1.000126 0.705201
vt 0.999873 0.794800
vt 0.750636 0.489737
vt 0.919070 0.419969
vt 0.419706 0.419706
vt 0.250000 0.490000
vt 0.919969 0.419070
vt 0.989737 0.250636
vt 0.490000 0.250000
vt 0.989737 0.249364
vt 0.919969 0.080930
vt 0.419706 0.080294
vt 0.919070 0.080031
vt 0.750636 0.010263
vt 0.250000 0.010000
vt 0.749364 0.010263
vt 0.580930 0.080031
vt 0.080294 0.080294
vt 0.580031 0.080930
vt 0.510263 0.249364
vt 0.010000 0.250000
vt 0.510263 0.250636
vt 0.580031 0.419070
vt 0.080294 0.419706
vt 0.580930 0.419969
vt 0.749364 0.489737
vt 1.000000 0.518445
vt 0.875000 0.518445
s 0
usemtl Noir_Light
f 39/1/1 120/2/1 107/3/1 26/4/1
f 2/5/2 3/6/2 109/7/2 105/8/2
f 4/9/2 5/10/2 113/11/2 111/12/2
f 5/10/2 6/13/2 115/14/2 113/15/2
f 6/13/2 7/16/2 117/17/2 115/14/2
f 7/16/2 8/18/2 119/19/2 117/20/2
f 9/21/3 11/22/3 125/23/3 121/24/3
f 10/25/4 9/21/4 121/24/4 124/26/4
f 8/18/2 1/27/2 108/28/2 119/29/2
f 104/30/1 40/31/1 25/32/1 90/33/1
f 27/34/5 106/35/5 110/36/5 29/37/5
f 26/38/6 107/39/6 106/40/6 27/34/6
f 29/37/7 110/41/7 112/42/7 31/43/7
f 31/43/8 112/44/8 114/45/8 33/46/8
f 33/46/9 114/47/9 116/48/9 35/49/9
f 35/49/10 116/50/10 118/51/10 37/52/10
f 37/52/11 118/53/11 120/54/11 39/1/11
f 3/6/2 4/9/2 111/12/2 109/7/2
f 14/55/12 13/56/12 21/56/12 22/55/12
f 11/22/13 12/57/13 127/58/13 125/23/13
f 15/59/14 16/60/14 135/61/14 133/62/14
f 13/56/15 14/55/15 131/63/15 129/64/15
f 2/5/16 1/27/16 123/27/16 122/5/16
f 14/55/17 15/59/17 133/62/17 131/63/17
f 12/57/18 13/56/18 129/64/18 127/58/18
f 3/6/19 2/5/19 122/5/19 126/6/19
f 16/60/20 10/25/20 124/26/20 135/61/20
f 4/9/21 3/6/21 126/65/21 128/9/21
f 5/10/22 4/9/22 128/9/22 130/10/22
f 6/13/23 5/10/23 130/10/23 132/13/23
f 7/16/24 6/13/24 132/13/24 134/16/24
f 8/18/25 7/16/25 134/16/25 136/18/25
f 1/27/26 8/18/26 136/18/26 123/27/26
f 17/21/2 18/25/2 24/60/2 23/59/2 22/55/2 21/56/2 20/57/2 19/22/2
f 12/57/27 11/22/27 19/22/27 20/57/27
f 9/21/28 10/25/28 18/25/28 17/21/28
f 10/25/29 16/60/29 24/60/29 18/25/29
f 15/59/30 14/55/30 22/55/30 23/59/30
f 13/56/31 12/57/31 20/57/31 21/56/31
f 11/22/32 9/21/32 17/21/32 19/22/32
f 16/60/33 15/59/33 23/59/33 24/60/33
f 92/66/5 28/67/5 30/68/5 94/69/5
f 33/46/34 35/49/34 64/49/34 49/46/34
f 1/27/2 2/5/2 105/70/2 108/28/2
f 28/67/35 25/71/35 41/71/35 71/67/35
f 102/72/11 38/73/11 40/31/11 104/30/11
f 36/74/36 34/75/36 50/75/36 63/74/36
f 100/76/10 36/74/10 38/73/10 102/72/10
f 27/34/37 29/37/37 70/37/37 43/34/37
f 98/77/9 34/75/9 36/74/9 100/76/9
f 35/49/38 37/52/38 62/52/38 64/49/38
f 96/78/8 32/79/8 34/75/8 98/77/8
f 30/68/39 28/67/39 71/67/39 69/68/39
f 94/69/7 30/68/7 32/79/7 96/78/7
f 38/73/40 36/74/40 63/74/40 61/73/40
f 89/80/41 91/81/41 93/82/41 95/83/41 97/84/41 99/85/41 101/86/41 103/87/41
f 29/37/42 31/43/42 68/43/42 70/37/42
f 25/32/51 40/31/51 56/31/51 41/32/51
f 26/38/52 27/34/52 43/34/52 42/38/52
f 34/75/53 32/79/53 48/79/53 50/75/53
f 39/1/54 26/4/54 42/4/54 55/1/54
f 31/43/55 33/46/55 49/46/55 68/43/55
f 40/31/56 38/73/56 61/73/56 56/31/56
f 32/79/57 30/68/57 69/68/57 48/79/57
f 37/52/58 39/1/58 55/1/58 62/52/58
f 90/106/83 92/107/83 91/81/83 89/80/83
f 106/108/84 107/109/84 108/28/84 105/70/84
f 92/110/85 94/111/85 93/82/85 91/81/85
f 110/112/86 106/108/86 105/8/86 109/7/86
f 94/113/87 96/114/87 95/83/87 93/82/87
f 112/115/88 110/112/88 109/7/88 111/12/88
f 96/116/89 98/117/89 97/84/89 95/83/89
f 114/118/90 112/115/90 111/12/90 113/11/90
f 98/119/91 100/120/91 99/85/91 97/84/91
f 116/121/92 114/118/92 113/15/92 115/14/92
f 100/122/93 102/123/93 101/86/93 99/85/93
f 118/124/94 116/121/94 115/14/94 117/17/94
f 102/125/95 104/126/95 103/87/95 101/86/95
f 120/127/96 118/124/96 117/20/96 119/19/96
f 104/128/97 90/129/97 89/80/97 103/87/97
f 107/109/98 120/127/98 119/29/98 108/28/98
f 122/5/99 123/27/99 124/26/99 121/24/99
f 126/6/100 122/5/100 121/24/100 125/23/100
f 128/9/101 126/65/101 125/23/101 127/58/101
f 130/10/102 128/9/102 127/58/102 129/64/102
f 132/13/103 130/10/103 129/64/103 131/63/103
f 134/16/104 132/13/104 131/63/104 133/62/104
f 136/18/105 134/16/105 133/62/105 135/61/105
f 123/27/106 136/18/106 135/61/106 124/26/106
f 90/130/6 25/71/6 28/67/6 92/131/6
usemtl Bleu_Neon
f 88/97/67 87/95/67 74/99/67 73/100/67
f 86/90/68 85/94/68 87/95/68 88/97/68
f 84/91/69 83/101/69 85/94/69 86/90/69
f 82/102/70 81/98/70 83/101/70 84/91/70
f 80/96/71 79/93/71 81/98/71 82/102/71
f 78/88/72 77/92/72 79/93/72 80/96/72
f 76/89/73 75/103/73 77/92/73 78/88/73
f 73/104/74 74/105/74 75/103/74 76/89/74
usemtl Noir_Profond
f 46/88/43 44/89/43 76/89/43 78/88/43
f 54/90/44 52/91/44 84/91/44 86/90/44
f 45/92/45 47/93/45 79/93/45 77/92/45
f 53/94/46 59/95/46 87/95/46 85/94/46
f 67/96/47 46/88/47 78/88/47 80/96/47
f 57/97/48 54/90/48 86/90/48 88/97/48
f 47/93/49 66/98/49 81/98/49 79/93/49
f 59/95/50 60/99/50 74/99/50 87/95/50
f 57/97/59 58/100/59 41/32/59 56/31/59
f 60/99/59 59/95/59 55/1/59 42/4/59
f 54/90/60 57/97/60 56/31/60 61/73/60
f 59/95/60 53/94/60 62/52/60 55/1/60
f 52/91/61 54/90/61 61/73/61 63/74/61
f 53/94/61 51/101/61 64/49/61 62/52/61
f 65/102/62 52/91/62 63/74/62 50/75/62
f 51/101/62 66/98/62 49/46/62 64/49/62
f 67/96/63 65/102/63 50/75/63 48/79/63
f 66/98/63 47/93/63 68/43/63 49/46/63
f 46/88/64 67/96/64 48/79/64 69/68/64
f 47/93/64 45/92/64 70/37/64 68/43/64
f 44/89/65 46/88/65 69/68/65 71/67/65
f 45/92/65 72/103/65 43/34/65 70/37/65
f 58/104/66 44/89/66 71/67/66 41/71/66
f 72/103/66 60/105/66 42/38/66 43/34/66
f 51/101/75 53/94/75 85/94/75 83/101/75
f 72/103/76 45/92/76 77/92/76 75/103/76
f 52/91/77 65/102/77 82/102/77 84/91/77
f 44/89/78 58/104/78 73/104/78 76/89/78
f 66/98/79 51/101/79 83/101/79 81/98/79
f 58/100/80 57/97/80 88/97/80 73/100/80
f 60/105/81 72/103/81 75/103/81 74/105/81
f 65/102/82 67/96/82 80/96/82 82/102/82
o SM_Tourelle_Gun
v -0.085027 0.607313 -0.389221
v -0.103795 0.545727 -0.317369
v -0.103872 0.632927 -0.389221
v -0.149181 0.704962 -0.203563
v -0.103872 0.864067 -0.389221
v -0.149181 0.792032 -0.203563
v -0.085027 0.889681 -0.389221
v -0.103795 0.951266 -0.317369
v 0.103872 0.632927 -0.389221
v 0.149181 0.704962 -0.203563
v 0.085027 0.607313 -0.389221
v 0.103795 0.545727 -0.317369
v 0.085027 0.889681 -0.389221
v 0.103795 0.951266 -0.317369
v 0.103872 0.864067 -0.389221
v 0.149181 0.792032 -0.203563
v -0.089420 0.640626 0.348932
v -0.149181 0.704962 0.229211
v -0.103795 0.545727 0.343016
v -0.081847 0.630646 0.348932
v -0.081847 0.866348 0.348932
v -0.103795 0.951266 0.343016
v -0.149181 0.792032 0.229211
v -0.089420 0.856368 0.348932
v 0.081847 0.630646 0.348932
v 0.103795 0.545727 0.343016
v 0.149181 0.704962 0.229211
v 0.089420 0.640626 0.348932
v 0.089420 0.856368 0.348932
v 0.149181 0.792032 0.229211
v 0.103795 0.951266 0.343016
v 0.081847 0.866348 0.348932
v -0.149181 0.607417 -0.317369
v -0.149181 0.889577 -0.317369
v 0.149181 0.889577 -0.317369
v 0.149181 0.607417 -0.317369
v -0.149181 0.889577 0.343016
v -0.149181 0.607417 0.343016
v 0.149181 0.607417 0.343016
v 0.149181 0.889577 0.343016
v -0.142283 0.725280 -0.179858
v -0.142283 0.771714 -0.179858
v 0.142283 0.771714 -0.179858
v 0.142283 0.725280 -0.179858
v -0.142283 0.771714 0.205505
v -0.142283 0.725280 0.205505
v 0.142283 0.725280 0.205505
v 0.142283 0.771714 0.205505
v -0.142283 0.704962 -0.203563
v -0.142283 0.792032 -0.203563
v 0.142283 0.792032 -0.203563
v 0.142283 0.704962 -0.203563
v -0.142283 0.792032 0.229211
v -0.142283 0.704962 0.229211
v 0.142283 0.704962 0.229211
v 0.142283 0.792032 0.229211
v -0.138777 0.725280 -0.179858
v -0.138777 0.771714 -0.179858
v 0.138777 0.771714 -0.179858
v 0.138777 0.725280 -0.179858
v -0.138777 0.771714 0.205505
v -0.138777 0.725280 0.205505
v 0.138777 0.725280 0.205505
v 0.138777 0.771714 0.205505
v 0.028342 0.889681 -0.389221
v -0.028342 0.889681 -0.389221
v -0.034598 0.951266 -0.317369
v 0.034598 0.951266 -0.317369
v 0.034598 0.951266 0.343016
v -0.034598 0.951266 0.343016
v -0.034083 0.914442 0.348932
v 0.034083 0.914442 0.348932
v -0.028342 0.607313 -0.389221
v 0.028342 0.607313 -0.389221
v 0.034598 0.545727 -0.317369
v -0.034598 0.545727 -0.317369
v 0.034083 0.582552 0.348932
v -0.034083 0.582552 0.348932
v -0.034598 0.545727 0.343016
v 0.034598 0.545727 0.343016
v -0.102250 0.550798 0.348932
v -0.145451 0.609518 0.348932
v -0.145451 0.887476 0.348932
v -0.102250 0.946196 0.348932
v 0.145451 0.609518 0.348932
v 0.102250 0.550798 0.348932
v 0.102250 0.946196 0.348932
v 0.145451 0.887476 0.348932
v -0.034083 0.550798 0.348932
v 0.034083 0.946196 0.348932
v -0.034083 0.946196 0.348932
v 0.034083 0.550798 0.348932
v -0.034083 0.914442 0.323708
v -0.034083 0.582552 0.323708
v 0.034083 0.582552 0.323708
v -0.083880 0.644514 0.323708
v 0.078216 0.637050 0.323708
v 0.078216 0.859944 0.323708
v -0.081847 0.630646 0.323708
v -0.089420 0.640626 0.323708
v -0.089420 0.856368 0.323708
v -0.081847 0.866348 0.323708
v 0.089420 0.640626 0.323708
v 0.081847 0.630646 0.323708
v 0.081847 0.866348 0.323708
v 0.089420 0.856368 0.323708
v -0.032133 0.590424 0.323708
v 0.034083 0.914442 0.323708
v -0.032133 0.906570 0.323708
v 0.032133 0.906570 0.323708
v 0.032133 0.590424 0.323708
v -0.078216 0.637050 0.323708
v -0.083880 0.852480 0.323708
v -0.078216 0.859944 0.323708
v 0.083880 0.644514 0.323708
v 0.083880 0.852480 0.323708
v 0.025229 0.878708 0.428638
v -0.065364 0.659716 0.428638
v -0.064272 0.658276 0.428638
v -0.064272 0.838718 0.428638
v -0.065364 0.837278 0.428638
v 0.064272 0.658276 0.428638
v 0.065364 0.659716 0.428638
v 0.065364 0.837278 0.428638
v 0.064272 0.838718 0.428638
v -0.025229 0.618286 0.428638
v -0.025229 0.878708 0.428638
v 0.025229 0.618286 0.428638
v -0.025229 0.878708 0.364372
v -0.025229 0.618286 0.364372
v 0.025229 0.878708 0.364372
v 0.025229 0.618286 0.364372
v -0.065364 0.659716 0.364372
v -0.064272 0.658276 0.364372
v -0.064272 0.838718 0.364372
v -0.065364 0.837278 0.364372
v 0.064272 0.658276 0.364372
v 0.065364 0.659716 0.364372
v 0.065364 0.837278 0.364372
v 0.064272 0.838718 0.364372
v -0.031346 0.903395 0.428638
v -0.032133 0.906570 0.425317
v -0.032133 0.590424 0.425317
v -0.031346 0.593598 0.428638
v 0.031346 0.593598 0.428638
v 0.032133 0.590424 0.425317
v -0.078216 0.637050 0.425317
v -0.076752 0.639632 0.428638
v -0.081646 0.646082 0.428638
v -0.083880 0.644514 0.425317
v -0.083880 0.852480 0.425317
v -0.081646 0.850912 0.428638
v -0.076752 0.857362 0.428638
v -0.078216 0.859944 0.425317
v 0.083880 0.644514 0.425317
v 0.081646 0.646082 0.428638
v 0.076752 0.639632 0.428638
v 0.078216 0.637050 0.425317
v 0.078216 0.859944 0.425317
v 0.076752 0.857362 0.428638
v 0.081646 0.850912 0.428638
v 0.083880 0.852480 0.425317
v 0.032133 0.906570 0.425317
v 0.031346 0.903395 0.428638
v 0.022263 0.868284 0.353678
v 0.022263 0.868284 0.626318
v 0.053748 0.836799 0.353678
v 0.053748 0.836799 0.626318
v 0.053748 0.792272 0.353678
v 0.053748 0.792272 0.626318
v 0.022263 0.760787 0.353678
v 0.022263 0.760787 0.626318
v -0.022263 0.760787 0.353678
v -0.022263 0.760787 0.626318
v -0.053748 0.792272 0.353678
v -0.053748 0.792272 0.626318
v -0.053748 0.836799 0.353678
v -0.053748 0.836799 0.626318
v -0.022263 0.868284 0.353678
v -0.022263 0.868284 0.626318
v 0.059811 0.839310 0.635085
v 0.024775 0.874346 0.635085
v 0.059811 0.789761 0.635085
v 0.024775 0.754725 0.635085
v -0.024775 0.754725 0.635085
v -0.059811 0.789761 0.635085
v -0.059811 0.839310 0.635085
v -0.024775 0.874347 0.635085
v 0.041329 0.831655 0.567626
v 0.017119 0.855865 0.567626
v 0.041329 0.797417 0.567626
v 0.017119 0.773207 0.567626
v -0.017119 0.773207 0.567626
v -0.041329 0.797417 0.567626
v -0.041329 0.831655 0.567626
v -0.017119 0.855865 0.567626
v 0.057799 0.838476 0.822507
v 0.059811 0.839310 0.820494
v 0.024775 0.874346 0.820494
v 0.023941 0.872334 0.822507
v 0.057799 0.790595 0.822507
v 0.059811 0.789761 0.820494
v 0.023941 0.756737 0.822507
v 0.024775 0.754725 0.820494
v -0.023941 0.756737 0.822507
v -0.024775 0.754725 0.820494
v -0.057799 0.790595 0.822507
v -0.059811 0.789761 0.820494
v -0.057799 0.838476 0.822507
v -0.059811 0.839310 0.820494
v -0.023941 0.872334 0.822507
v -0.024775 0.874347 0.820494
v 0.041329 0.831654 0.821651
v 0.042184 0.832009 0.822507
v 0.017473 0.856720 0.822507
v 0.017119 0.855864 0.821651
v 0.041329 0.797417 0.821651
v 0.042184 0.797062 0.822507
v 0.017119 0.773207 0.821651
v 0.017473 0.772351 0.822507
v -0.017119 0.773207 0.821651
v -0.017473 0.772351 0.822507
v -0.041329 0.797417 0.821651
v -0.042184 0.797062 0.822507
v -0.041329 0.831654 0.821651
v -0.042184 0.832009 0.822507
v -0.017119 0.855864 0.821651
v -0.017473 0.856720 0.822507
v 0.022263 0.738475 0.353678
v 0.022263 0.738475 0.626318
v 0.053748 0.706990 0.353678
v 0.053748 0.706990 0.626318
v 0.053748 0.662463 0.353678
v 0.053748 0.662463 0.626318
v 0.022263 0.630978 0.353678
v 0.022263 0.630978 0.626318
v -0.022263 0.630978 0.353678
v -0.022263 0.630978 0.626318
v -0.053748 0.662463 0.353678
v -0.053748 0.662463 0.626318
v -0.053748 0.706990 0.353678
v -0.053748 0.706990 0.626318
v -0.022263 0.738475 0.353678
v -0.022263 0.738475 0.626318
v 0.059811 0.709501 0.635085
v 0.024775 0.744537 0.635085
v 0.059811 0.659952 0.635085
v 0.024775 0.624915 0.635085
v -0.024775 0.624915 0.635085
v -0.059811 0.659952 0.635085
v -0.059811 0.709501 0.635085
v -0.024775 0.744537 0.635085
v 0.041329 0.701845 0.567626
v 0.017119 0.726055 0.567626
v 0.041329 0.667608 0.567626
v 0.017119 0.643398 0.567626
v -0.017119 0.643398 0.567626
v -0.041329 0.667608 0.567626
v -0.041329 0.701845 0.567626
v -0.017119 0.726055 0.567626
v 0.057799 0.708667 0.822507
v 0.059811 0.709501 0.820494
v 0.024775 0.744537 0.820494
v 0.023941 0.742525 0.822507
v 0.057799 0.660785 0.822507
v 0.059811 0.659952 0.820494
v 0.023941 0.626928 0.822507
v 0.024775 0.624915 0.820494
v -0.023941 0.626928 0.822507
v -0.024775 0.624915 0.820494
v -0.057799 0.660785 0.822507
v -0.059811 0.659952 0.820494
v -0.057799 0.708667 0.822507
v -0.059811 0.709501 0.820494
v -0.023941 0.742525 0.822507
v -0.024775 0.744537 0.820494
v 0.041329 0.701845 0.821651
v 0.042184 0.702200 0.822507
v 0.017473 0.726910 0.822507
v 0.017119 0.726055 0.821651
v 0.041329 0.667607 0.821651
v 0.042184 0.667253 0.822507
v 0.017119 0.643398 0.821651
v 0.017473 0.642542 0.822507
v -0.017119 0.643398 0.821651
v -0.017473 0.642542 0.822507
v -0.041329 0.667607 0.821651
v -0.042184 0.667253 0.822507
v -0.041329 0.701845 0.821651
v -0.042184 0.702200 0.822507
v -0.017119 0.726055 0.821651
v -0.017473 0.726911 0.822507
vn -0.0000 -0.0000 1.0000
vn -0.0000 -0.0000 -1.0000
vn -0.0000 1.0000 -0.0000
vn -0.0000 -1.0000 -0.0000
vn -0.8055 0.5926 -0.0000
vn 0.8055 -0.5926 -0.0000
vn 0.8055 0.5926 -0.0000
vn -0.6542 -0.4813 -0.5834
vn -0.6542 0.4813 -0.5834
vn 0.6542 -0.4813 -0.5834
vn 0.6542 0.4813 -0.5834
vn -0.0000 -0.7593 -0.6508
vn -0.8459 -0.0000 -0.5334
vn -0.0000 0.7593 -0.6508
vn 0.8459 -0.0000 -0.5334
vn -0.6542 -0.4813 0.5834
vn -0.6542 0.4813 0.5834
vn 0.6542 -0.4813 0.5834
vn 0.6542 0.4813 0.5834
vn -0.0000 -0.7593 0.6508
vn -0.8459 -0.0000 0.5334
vn 0.8459 -0.0000 0.5334
vn -0.0000 0.7593 0.6508
vn -0.8055 -0.5926 -0.0000
vn -1.0000 -0.0000 -0.0000
vn 1.0000 -0.0000 -0.0000
vn 0.7095 0.7047 -0.0000
vn -0.7095 -0.7047 -0.0000
vn 0.7966 -0.6045 -0.0000
vn 0.7095 -0.7047 -0.0000
vn -0.7966 0.6044 -0.0000
vn -0.7966 -0.6045 -0.0000
vn -0.7095 0.7047 -0.0000
vn 0.7966 0.6044 -0.0000
vn 0.7182 -0.6958 -0.0000
vn -0.7112 0.7030 -0.0000
vn -0.7966 -0.6044 -0.0000
vn 0.7966 -0.6044 -0.0000
vn 0.7112 0.7030 -0.0000
vn -0.7112 -0.7030 -0.0000
vn 0.7112 -0.7030 -0.0000
vn -0.7182 0.6958 -0.0000
vn -0.7182 -0.6958 -0.0000
vn 0.7182 0.6958 -0.0000
vn -0.6156 -0.4671 0.6347
vn -0.6156 0.4671 0.6347
vn 0.6156 -0.4671 0.6347
vn 0.6156 0.4671 0.6347
vn -0.5421 -0.5353 0.6477
vn -0.8297 -0.0000 0.5582
vn 0.8297 -0.0000 0.5582
vn 0.5421 0.5353 0.6477
vn -0.5421 0.5353 0.6477
vn -0.0000 0.7229 0.6910
vn 0.5421 -0.5353 0.6477
vn -0.0000 -0.7229 0.6910
vn 0.7071 0.7071 -0.0000
vn 0.7071 -0.7071 -0.0000
vn -0.7071 -0.7071 -0.0000
vn 0.8225 -0.0000 -0.5688
vn -0.7071 0.7071 -0.0000
vn -0.5816 -0.5816 -0.5688
vn -0.0000 0.8225 -0.5688
vn 0.5816 0.5816 -0.5688
vn 0.5816 -0.5816 -0.5688
vn -0.8225 -0.0000 -0.5688
vn -0.0000 -0.8225 -0.5688
vn -0.5816 0.5816 -0.5688
vn 0.5000 0.5000 0.7071
vn 0.7071 -0.0000 0.7071
vn 0.5000 -0.5000 0.7071
vn -0.0000 -0.7071 0.7071
vn -0.5000 -0.5000 0.7071
vn -0.7071 -0.0000 0.7071
vn -0.5000 0.5000 0.7071
vn -0.0000 0.7071 0.7071
vt 0.526838 0.187121
vt 0.473162 0.187121
vt 0.473162 0.040547
vt 0.526838 0.040547
vt 0.778990 0.524335
vt 0.836970 0.524335
vt 0.836970 0.747997
vt 0.778990 0.747997
vt 0.278990 0.524335
vt 0.336970 0.524335
vt 0.336970 0.747997
vt 0.278990 0.747997
vt 0.625000 0.002003
vt 0.625000 0.225665
vt 0.586970 0.225665
vt 0.586970 0.002004
vt 0.336970 0.747997
vt 0.336970 0.524335
vt 0.413030 0.524335
vt 0.413030 0.747997
vt 0.663030 0.524335
vt 0.663030 0.747997
vt 0.586970 0.747997
vt 0.586970 0.524335
vt 0.412965 0.303755
vt 0.428755 0.287965
vt 0.571245 0.287965
vt 0.587035 0.303755
vt 0.587035 0.351252
vt 0.587035 0.398748
vt 0.587035 0.446245
vt 0.571245 0.462035
vt 0.428755 0.462035
vt 0.412965 0.446245
vt 0.412965 0.398748
vt 0.412965 0.351252
vt 0.375000 0.288030
vt 0.413030 0.250000
vt 0.586970 0.250000
vt 0.625000 0.288030
vt 0.413030 0.500000
vt 0.375000 0.461970
vt 0.625000 0.461970
vt 0.586970 0.500000
vt 0.375000 0.403990
vt 0.413030 0.225665
vt 0.586970 0.225665
vt 0.625000 0.346010
vt 0.586970 0.524335
vt 0.413030 0.524335
vt 0.429768 0.903559
vt 0.429768 0.846441
vt 0.378126 0.960676
vt 0.414324 0.996874
vt 0.413030 1.000000
vt 0.375000 0.961970
vt 0.585676 0.996874
vt 0.621874 0.960676
vt 0.625000 0.961970
vt 0.586970 1.000000
vt 0.414324 0.753126
vt 0.378126 0.789324
vt 0.375000 0.788030
vt 0.413030 0.750000
vt 0.621874 0.789324
vt 0.585676 0.753126
vt 0.586970 0.750000
vt 0.625000 0.788030
vt 0.378126 0.903559
vt 0.375000 0.903990
vt 0.413030 0.747997
vt 0.586970 0.747997
vt 0.625000 0.903990
vt 0.621874 0.903558
vt 0.163030 0.524335
vt 0.163030 0.747997
vt 0.125000 0.747997
vt 0.125000 0.524335
vt 0.526838 0.562879
vt 0.473162 0.562879
vt 0.413030 0.002003
vt 0.586970 0.002003
vt 0.473162 0.709452
vt 0.526838 0.709453
vt 0.485687 0.570908
vt 0.514313 0.570908
vt 0.514313 0.701424
vt 0.485687 0.701424
vt 0.485687 0.179092
vt 0.514313 0.179092
vt 0.514313 0.048576
vt 0.485687 0.048576
vt 0.625000 0.846010
vt 0.621874 0.846441
vt 0.625000 0.403990
vt 0.721010 0.524335
vt 0.721010 0.747997
vt 0.378126 0.846441
vt 0.375000 0.846010
vt 0.375000 0.346010
vt 0.221010 0.524335
vt 0.221010 0.747997
vt 0.429768 0.939285
vt 0.570232 0.810715
vt 0.570232 0.846441
vt 0.435715 0.945232
vt 0.564285 0.945232
vt 0.570232 0.939285
vt 0.435715 0.804768
vt 0.429768 0.810715
vt 0.564285 0.804768
vt 0.570232 0.903558
vt 0.436460 0.936433
vt 0.439378 0.940881
vt 0.560621 0.940881
vt 0.563540 0.936433
vt 0.439379 0.809119
vt 0.436460 0.813567
vt 0.563540 0.813567
vt 0.560621 0.809119
vt 0.433099 0.901924
vt 0.566901 0.848076
vt 0.566901 0.901924
vt 0.433099 0.848076
vt 0.454631 0.823662
vt 0.444891 0.853861
vt 0.434443 0.848735
vt 0.438530 0.814717
vt 0.444891 0.896139
vt 0.434443 0.901265
vt 0.545674 0.925481
vt 0.454326 0.925481
vt 0.555109 0.896139
vt 0.545369 0.926338
vt 0.454326 0.824519
vt 0.441081 0.810874
vt 0.555109 0.853861
vt 0.565557 0.848735
vt 0.565557 0.901265
vt 0.561470 0.935283
vt 0.558918 0.939127
vt 0.545674 0.824519
vt 0.441082 0.810874
vt 0.558918 0.810874
vt 0.545369 0.823661
vt 0.561469 0.814717
vt 0.454631 0.926339
vt 0.441081 0.939126
vt 0.438530 0.935283
vt 0.441081 0.939126
vt 0.563540 0.936433
vt 0.566901 0.848076
vt 0.433099 0.901924
vt 0.436460 0.936433
vt 0.560621 0.940881
vt 0.558918 0.810873
vt 0.434443 0.901265
vt 0.561470 0.935283
vt 0.565557 0.901265
vt 1.000000 0.500000
vt 1.000000 1.000000
vt 0.875000 1.000000
vt 0.875000 0.500000
vt 0.750000 1.000000
vt 0.750000 0.500000
vt 0.625000 1.000000
vt 0.625000 0.500000
vt 0.500000 1.000000
vt 0.500000 0.500000
vt 0.375000 1.000000
vt 0.375000 0.500000
vt 0.250000 1.000000
vt 0.250000 0.500000
vt 0.125000 1.000000
vt 0.125000 0.500000
vt 0.000000 1.000000
vt 0.000000 0.500000
vt 0.750000 0.490000
vt 0.919706 0.419706
vt 0.990000 0.250000
vt 0.919706 0.080294
vt 0.750000 0.010000
vt 0.580294 0.080294
vt 0.510000 0.250000
vt 0.580294 0.419706
vt 0.132735 0.132735
vt 0.250000 0.084163
vt 0.084162 0.250000
vt 0.132735 0.367265
vt 0.367265 0.132735
vt 0.415838 0.250000
vt 0.367265 0.367265
vt 0.369692 0.130308
vt 0.250000 0.080730
vt 0.250000 0.018075
vt 0.413996 0.086004
vt 0.750000 1.000000
vt 0.375000 1.000000
vt 0.250000 0.415838
vt 0.132735 0.367265
vt 0.080730 0.250000
vt 0.130308 0.369692
vt 0.086004 0.413996
vt 0.018075 0.250000
vt 0.130308 0.130308
vt 0.086004 0.086004
vt 0.250000 0.018075
vt 0.419270 0.250000
vt 0.413996 0.086004
vt 0.481925 0.250000
vt 0.369692 0.369692
vt 0.413996 0.413996
vt 0.250000 0.419270
vt 0.250000 0.481925
vt 0.086004 0.413996
vt 0.130308 0.130308
vt 0.018075 0.250000
vt 0.086004 0.086004
vt 0.997897 1.000000
vt 0.877103 1.000000
vt 0.872897 1.000000
vt 0.752103 1.000000
vt 0.747897 1.000000
vt 0.627103 1.000000
vt 0.622897 1.000000
vt 0.502103 1.000000
vt 0.497897 1.000000
vt 0.377103 1.000000
vt 0.372897 1.000000
vt 0.252103 1.000000
vt 0.247897 1.000000
vt 0.127103 1.000000
vt 0.122897 1.000000
vt 0.002103 1.000000
vt 0.369692 0.369692
vt 0.250000 0.419270
s 0
usemtl Noir_Light
f 142/132/107 140/133/107 185/133/107 186/132/107
f 154/134/108 159/135/108 189/135/108 190/134/108
f 203/136/109 144/137/109 158/138/109 206/139/109
f 211/140/110 148/141/110 162/142/110 216/143/110
f 158/144/111 144/145/111 170/146/111 173/147/111
f 162/148/112 148/149/112 172/150/112 175/151/112
f 150/152/113 167/153/113 176/154/113 171/155/113
f 137/156/108 139/157/108 141/158/108 143/159/108 202/160/108 201/161/108 149/162/108 151/163/108 145/164/108 147/165/108 210/166/108 209/167/108
f 139/157/114 137/156/114 138/168/114 169/169/114
f 143/159/115 141/158/115 170/170/115 144/171/115
f 147/165/116 145/164/116 172/172/116 148/173/116
f 151/163/117 149/162/117 150/174/117 171/175/117
f 210/166/118 147/165/118 148/173/118 211/176/118
f 141/158/119 139/157/119 169/177/119 170/178/119
f 202/160/120 143/159/120 144/171/120 203/179/120
f 171/180/121 172/181/121 145/164/121 151/163/121
f 214/182/109 213/183/109 231/183/109 230/182/109
f 217/184/122 218/185/122 174/186/122 155/187/122
f 219/188/123 220/189/123 158/190/123 173/191/123
f 221/192/124 222/193/124 162/194/124 175/195/124
f 223/196/125 224/197/125 176/198/125 167/199/125
f 225/200/126 217/184/126 155/187/126 215/201/126
f 218/185/127 219/188/127 173/191/127 174/186/127
f 175/202/128 176/203/128 224/197/128 221/192/128
f 206/204/129 158/190/129 220/189/129 227/205/129
f 138/206/130 155/207/130 174/208/130 169/209/130
f 140/133/131 142/132/131 170/178/131 169/177/131
f 152/210/132 146/211/132 172/181/132 171/180/132
f 159/135/131 154/134/131 174/212/131 173/213/131
f 163/214/132 166/215/132 176/203/132 175/202/132
f 154/134/131 140/133/131 169/177/131 174/212/131
f 142/132/131 159/135/131 173/213/131 170/178/131
f 146/211/132 163/214/132 175/202/132 172/181/132
f 166/215/132 152/210/132 171/180/132 176/203/132
f 152/210/110 166/215/110 192/215/110 187/210/110
f 159/135/110 142/132/110 186/132/110 189/135/110
f 166/215/108 163/214/108 191/214/108 192/215/108
f 146/211/107 152/210/107 187/210/107 188/211/107
f 163/214/109 146/211/109 188/211/109 191/214/109
f 140/133/109 154/134/109 190/134/109 185/133/109
f 167/199/129 205/224/129 226/225/129 223/196/129
f 205/224/129 206/204/129 227/205/129 226/225/129
f 149/162/120 201/161/120 204/226/120 150/174/120
f 201/161/120 202/160/120 203/179/120 204/226/120
f 150/152/109 204/227/109 205/228/109 167/153/109
f 204/227/109 203/136/109 206/139/109 205/228/109
f 222/193/126 228/229/126 216/230/126 162/194/126
f 228/229/126 225/200/126 215/201/126 216/230/126
f 137/156/118 209/167/118 212/231/118 138/168/118
f 209/167/118 210/166/118 211/176/118 212/231/118
f 138/206/110 212/232/110 215/233/110 155/207/110
f 212/232/110 211/140/110 216/143/110 215/233/110
f 156/234/133 214/182/133 230/182/133 235/234/133
f 168/235/134 208/236/134 244/236/134 241/235/134
f 156/234/107 153/237/107 218/185/107 217/184/107
f 160/238/107 157/239/107 220/189/107 219/188/107
f 164/240/107 161/241/107 222/193/107 221/192/107
f 168/235/107 165/242/107 224/197/107 223/196/107
f 214/182/107 156/234/107 217/184/107 225/200/107
f 153/237/107 160/238/107 219/188/107 218/185/107
f 165/242/107 164/240/107 221/192/107 224/197/107
f 208/236/107 168/235/107 223/196/107 226/225/107
f 157/239/107 207/243/107 227/205/107 220/189/107
f 207/243/107 208/236/107 226/225/107 227/205/107
f 161/241/107 213/183/107 228/229/107 222/193/107
f 213/183/107 214/182/107 225/200/107 228/229/107
f 157/239/135 160/238/135 237/238/135 238/239/135
f 207/243/136 157/239/136 238/239/136 229/243/136
f 160/238/132 153/237/132 236/237/132 237/238/132
f 161/241/137 164/240/137 239/240/137 240/241/137
f 208/236/110 207/243/110 229/243/110 244/236/110
f 164/240/131 165/242/131 242/242/131 239/240/131
f 165/242/138 168/235/138 241/235/138 242/242/138
f 213/183/139 161/241/139 240/241/139 231/183/139
f 153/237/140 156/234/140 235/234/140 236/237/140
f 259/256/107 264/257/107 281/258/107 293/259/107
f 264/257/107 262/260/107 280/261/107 281/258/107
f 256/262/132 255/263/132 270/263/132 271/262/132
f 263/264/141 257/265/141 272/265/141 265/264/141
f 257/265/137 256/262/137 271/262/137 272/265/137
f 258/266/107 259/256/107 293/259/107 292/267/107
f 263/264/107 253/268/107 300/269/107 277/270/107
f 256/262/107 257/265/107 289/271/107 288/272/107
f 261/273/107 258/266/107 292/274/107 297/275/107
f 245/254/142 250/247/142 290/247/142 278/254/142
f 252/251/140 234/250/140 295/250/140 298/251/140
f 253/268/107 260/276/107 296/277/107 300/269/107
f 254/278/107 255/263/107 285/279/107 284/280/107
f 255/263/107 256/262/107 288/272/107 285/281/107
f 232/245/143 248/244/143 283/244/143 286/245/143
f 250/247/137 249/246/137 287/246/137 290/282/137
f 233/249/144 251/248/144 291/248/144 294/249/144
f 234/250/145 246/253/145 299/283/145 295/250/145
f 248/244/146 243/252/146 279/284/146 283/285/146
f 249/246/131 232/245/131 286/245/131 287/286/131
f 251/248/132 252/251/132 298/251/132 291/248/132
f 260/276/107 261/273/107 297/287/107 296/277/107
f 246/253/109 245/254/109 278/254/109 299/253/109
f 262/260/107 254/278/107 284/280/107 280/288/107
f 247/255/147 233/249/147 294/249/147 282/255/147
f 243/252/110 247/255/110 282/255/110 279/252/110
f 259/256/144 258/266/144 273/266/144 274/256/144
f 253/268/110 263/264/110 265/264/110 267/268/110
f 258/266/131 261/273/131 276/273/131 273/266/131
f 261/273/140 260/276/140 275/276/140 276/273/140
f 264/257/148 259/256/148 274/256/148 268/257/148
f 255/263/143 254/278/143 269/278/143 270/263/143
f 260/276/149 253/268/149 267/268/149 275/276/149
f 254/278/150 262/260/150 266/260/150 269/278/150
f 262/260/109 264/257/109 268/257/109 266/260/109
f 284/280/151 285/279/151 286/245/151 283/244/151
f 288/272/152 289/271/152 290/282/152 287/246/152
f 292/267/153 293/259/153 294/249/153 291/248/153
f 296/277/154 297/287/154 298/251/154 295/250/154
f 280/288/155 284/280/155 283/285/155 279/284/155
f 285/281/156 288/272/156 287/286/156 286/245/156
f 297/275/157 292/274/157 291/248/157 298/251/157
f 300/269/158 296/277/158 295/250/158 299/283/158
f 289/289/159 277/290/159 278/254/159 290/247/159
f 277/270/160 300/269/160 299/253/160 278/254/160
f 293/259/161 281/258/161 282/255/161 294/249/161
f 281/258/162 280/261/162 279/252/162 282/255/162
f 257/265/107 263/264/107 277/290/107 289/289/107
f 301/291/163 302/292/163 304/293/163 303/294/163
f 303/294/132 304/293/132 306/295/132 305/296/132
f 305/296/164 306/295/164 308/297/164 307/298/164
f 307/298/110 308/297/110 310/299/110 309/300/110
f 309/300/165 310/299/165 312/301/165 311/302/165
f 311/302/131 312/301/131 314/303/131 313/304/131
f 306/295/166 304/293/166 317/293/166 319/295/166
f 313/304/167 314/303/167 316/305/167 315/306/167
f 315/306/109 316/305/109 302/307/109 301/308/109
f 301/309/108 303/310/108 305/311/108 307/312/108 309/313/108 311/314/108 313/315/108 315/316/108
f 312/301/168 310/299/168 321/299/168 322/301/168
f 302/307/169 316/305/169 324/305/169 318/307/169
f 304/293/170 302/292/170 318/292/170 317/293/170
f 308/297/171 306/295/171 319/295/171 320/297/171
f 314/303/172 312/301/172 322/301/172 323/303/172
f 310/299/173 308/297/173 320/297/173 321/299/173
f 316/305/174 314/303/174 323/303/174 324/305/174
f 359/317/163 357/318/163 329/318/163 330/317/163
f 361/319/132 359/317/132 330/317/132 331/319/132
f 317/293/163 318/292/163 335/292/163 334/293/163
f 363/320/164 361/319/164 331/319/164 332/320/164
f 357/318/109 355/321/109 328/321/109 329/318/109
f 353/322/131 349/323/131 325/323/131 327/322/131
f 356/324/107 358/325/107 341/326/107 339/327/107
f 319/295/132 317/293/132 334/293/132 338/328/132
f 355/321/167 353/322/167 327/322/167 328/321/167
f 320/297/164 319/295/164 338/295/164 340/297/164
f 321/299/110 320/297/110 340/297/110 342/299/110
f 322/301/165 321/299/165 342/299/165 344/329/165
f 323/303/131 322/301/131 344/301/131 346/303/131
f 324/305/167 323/303/167 346/303/167 348/305/167
f 318/307/109 324/305/109 348/305/109 335/307/109
f 352/330/110 363/331/110 332/320/110 326/330/110
f 362/332/107 364/333/107 347/334/107 345/335/107
f 358/325/107 360/336/107 343/337/107 341/338/107
f 354/339/107 356/324/107 339/340/107 337/341/107
f 350/342/107 354/339/107 337/341/107 333/343/107
f 364/333/107 351/344/107 336/345/107 347/346/107
f 360/347/107 362/332/107 345/348/107 343/349/107
f 334/293/175 335/292/175 336/350/175 333/351/175
f 338/328/176 334/293/176 333/352/176 337/353/176
f 340/297/177 338/295/177 337/354/177 339/355/177
f 342/299/178 340/297/178 339/356/178 341/357/178
f 344/329/179 342/299/179 341/358/179 343/359/179
f 346/303/180 344/301/180 343/360/180 345/361/180
f 348/305/181 346/303/181 345/362/181 347/363/181
f 335/307/182 348/305/182 347/364/182 336/365/182
f 349/323/165 352/330/165 326/330/165 325/323/165
f 350/366/179 351/367/179 352/330/179 349/323/179
f 354/339/180 350/342/180 349/323/180 353/322/180
f 356/324/181 354/339/181 353/322/181 355/321/181
f 358/325/182 356/324/182 355/321/182 357/318/182
f 360/336/175 358/325/175 357/318/175 359/317/175
f 362/332/176 360/347/176 359/317/176 361/319/176
f 364/333/177 362/332/177 361/319/177 363/320/177
f 351/344/178 364/333/178 363/331/178 352/330/178
f 351/367/107 350/366/107 333/343/107 336/345/107
f 365/291/163 366/292/163 368/293/163 367/294/163
f 367/294/132 368/293/132 370/295/132 369/296/132
f 369/296/164 370/295/164 372/297/164 371/298/164
f 371/298/110 372/297/110 374/299/110 373/300/110
f 373/300/165 374/299/165 376/301/165 375/302/165
f 375/302/131 376/301/131 378/303/131 377/304/131
f 370/295/166 368/293/166 381/293/166 383/295/166
f 377/304/167 378/303/167 380/305/167 379/306/167
f 379/306/109 380/305/109 366/307/109 365/308/109
f 365/309/108 367/310/108 369/311/108 371/312/108 373/313/108 375/314/108 377/315/108 379/316/108
f 376/301/168 374/299/168 385/299/168 386/301/168
f 366/307/169 380/305/169 388/305/169 382/307/169
f 368/293/170 366/292/170 382/292/170 381/293/170
f 372/297/171 370/295/171 383/295/171 384/297/171
f 378/303/172 376/301/172 386/301/172 387/303/172
f 374/299/173 372/297/173 384/297/173 385/299/173
f 380/305/174 378/303/174 387/303/174 388/305/174
f 423/317/163 421/318/163 393/318/163 394/317/163
f 425/319/132 423/317/132 394/317/132 395/319/132
f 381/293/163 382/292/163 399/292/163 398/293/163
f 427/320/164 425/319/164 395/319/164 396/320/164
f 421/318/109 419/321/109 392/321/109 393/318/109
f 417/322/131 413/323/131 389/323/131 391/322/131
f 420/324/107 422/325/107 405/326/107 403/327/107
f 383/295/132 381/293/132 398/293/132 402/328/132
f 419/321/167 417/322/167 391/322/167 392/321/167
f 384/297/164 383/295/164 402/295/164 404/297/164
f 385/299/110 384/297/110 404/297/110 406/299/110
f 386/301/165 385/299/165 406/299/165 408/329/165
f 387/303/131 386/301/131 408/301/131 410/303/131
f 388/305/167 387/303/167 410/303/167 412/305/167
f 382/307/109 388/305/109 412/305/109 399/307/109
f 416/330/110 427/331/110 396/320/110 390/330/110
f 426/332/107 428/333/107 411/334/107 409/335/107
f 422/325/107 424/336/107 407/337/107 405/338/107
f 418/339/107 420/324/107 403/340/107 401/341/107
f 414/342/107 418/339/107 401/341/107 397/343/107
f 428/333/107 415/344/107 400/345/107 411/346/107
f 424/347/107 426/332/107 409/348/107 407/349/107
f 398/293/175 399/292/175 400/350/175 397/351/175
f 402/328/176 398/293/176 397/352/176 401/353/176
f 404/297/177 402/295/177 401/354/177 403/355/177
f 406/299/178 404/297/178 403/356/178 405/357/178
f 408/329/179 406/299/179 405/358/179 407/359/179
f 410/303/180 408/301/180 407/360/180 409/361/180
f 412/305/181 410/303/181 409/362/181 411/363/181
f 399/307/182 412/305/182 411/364/182 400/365/182
f 413/323/165 416/330/165 390/330/165 389/323/165
f 414/366/179 415/367/179 416/330/179 413/323/179
f 418/339/180 414/342/180 413/323/180 417/322/180
f 420/324/181 418/339/181 417/322/181 419/321/181
f 422/325/182 420/324/182 419/321/182 421/318/182
f 424/336/175 422/325/175 421/318/175 423/317/175
f 426/332/176 424/347/176 423/317/176 425/319/176
f 428/333/177 426/332/177 425/319/177 427/320/177
f 415/344/178 428/333/178 427/331/178 416/330/178
f 415/367/107 414/366/107 397/343/107 400/345/107
usemtl Noir_Profond
f 180/216/107 179/217/107 195/217/107 196/216/107
f 184/218/108 183/219/108 199/219/108 200/218/108
f 177/220/131 178/221/131 186/132/131 185/133/131
f 179/217/132 180/216/132 188/211/132 187/210/132
f 181/222/131 182/223/131 190/134/131 189/135/131
f 183/219/132 184/218/132 192/215/132 191/214/132
f 182/223/131 177/220/131 185/133/131 190/134/131
f 178/221/131 181/222/131 189/135/131 186/132/131
f 180/216/132 183/219/132 191/214/132 188/211/132
f 184/218/132 179/217/132 187/210/132 192/215/132
f 183/219/109 180/216/109 196/216/109 199/219/109
f 177/220/109 182/223/109 198/223/109 193/220/109
f 182/223/108 181/222/108 197/222/108 198/223/108
f 178/221/107 177/220/107 193/220/107 194/221/107
f 179/217/110 184/218/110 200/218/110 195/217/110
f 181/222/110 178/221/110 194/221/110 197/222/110
f 248/244/107 232/245/107 236/237/107 235/234/107
f 249/246/107 250/247/107 238/239/107 237/238/107
f 251/248/107 233/249/107 240/241/107 239/240/107
f 234/250/107 252/251/107 242/242/107 241/235/107
f 243/252/107 248/244/107 235/234/107 230/182/107
f 232/245/107 249/246/107 237/238/107 236/237/107
f 252/251/107 251/248/107 239/240/107 242/242/107
f 246/253/107 234/250/107 241/235/107 244/236/107
f 250/247/107 245/254/107 229/243/107 238/239/107
f 245/254/107 246/253/107 244/236/107 229/243/107
f 233/249/107 247/255/107 231/183/107 240/241/107
f 247/255/107 243/252/107 230/182/107 231/183/107
f 274/256/107 273/266/107 276/273/107 275/276/107 267/268/107 268/257/107
f 266/260/107 265/264/107 272/265/107 271/262/107 270/263/107 269/278/107
f 268/257/107 267/268/107 265/264/107 266/260/107
f 325/323/107 326/330/107 332/320/107 331/319/107 330/317/107 329/318/107 328/321/107 327/322/107
f 389/323/107 390/330/107 396/320/107 395/319/107 394/317/107 393/318/107 392/321/107 391/322/107
usemtl Bleu_Neon
f 198/223/131 197/222/131 194/221/131 193/220/131
f 196/216/132 195/217/132 200/218/132 199/219/132
