# Blender 4.2.3 LTS
# www.blender.org
mtllib SM_Pallet.mtl
o SM_Pallet
v -0.400080 0.009027 -0.360000
v -0.400080 0.019067 -0.075250
v -0.400080 0.019067 0.075250
v -0.400080 0.009027 0.360000
v 0.399920 0.009027 0.360000
v 0.399920 0.009027 0.085290
v 0.399920 0.009027 -0.085290
v 0.399920 0.009027 -0.360000
v -0.400080 0.010040 -0.026874
v -0.400080 0.010040 0.026874
v 0.399920 0.000000 0.028430
v 0.399920 0.000000 -0.028430
v -0.400080 0.000000 0.480000
v 0.399920 0.000000 0.480000
v 0.399920 0.000000 -0.480000
v -0.400080 0.000000 -0.480000
v 0.399920 0.000000 0.420000
v -0.400080 0.000000 0.420000
v -0.400080 0.000000 -0.419241
v 0.399920 0.000000 -0.419241
v -0.400080 0.019067 0.055304
v 0.399920 0.009027 0.056860
v 0.399920 0.009027 -0.056860
v -0.400080 0.019067 -0.055304
v -0.400080 0.009027 -0.388915
v 0.399920 0.009027 -0.388915
v 0.399920 0.009027 0.390000
v -0.400080 0.009027 0.390000
v -0.377834 0.000000 0.600000
v -0.400080 0.000000 0.577754
v -0.400080 0.000000 -0.577754
v -0.377834 0.000000 -0.600000
v 0.399920 0.000000 0.577754
v 0.377674 0.000000 0.600000
v 0.377674 0.000000 -0.600000
v 0.399920 0.000000 -0.577754
v -0.396543 0.023332 -0.336668
v -0.400080 0.021004 -0.340465
v -0.400080 0.021004 -0.104825
v -0.396543 0.023332 -0.108622
v -0.396543 0.023332 0.108622
v -0.400080 0.021004 0.104825
v -0.400080 0.021004 0.340465
v -0.396543 0.023332 0.336668
v -0.396543 0.096668 0.336668
v -0.400080 0.100446 0.340446
v -0.400080 0.100446 0.104844
v -0.396543 0.096668 0.108622
v -0.396543 0.096668 -0.108622
v -0.400080 0.100446 -0.104844
v -0.400080 0.100446 -0.340446
v -0.396543 0.096668 -0.336668
v 0.396383 0.023332 0.336668
v 0.399920 0.021004 0.340465
v 0.399920 0.021004 0.104825
v 0.396383 0.023332 0.108622
v 0.396383 0.023332 -0.108622
v 0.399920 0.021004 -0.104825
v 0.399920 0.021004 -0.340465
v 0.396383 0.023332 -0.336668
v 0.396383 0.096668 -0.336668
v 0.399920 0.100446 -0.340446
v 0.399920 0.100446 -0.104844
v 0.396383 0.096668 -0.108622
v 0.396383 0.096668 0.108622
v 0.399920 0.100446 0.104844
v 0.399920 0.100446 0.340446
v 0.396383 0.096668 0.336668
v -0.354992 0.120000 0.342506
v -0.400080 0.111297 0.360000
v -0.354992 0.120000 0.081150
v -0.400080 0.101256 0.075250
v -0.354992 0.120000 -0.081138
v -0.400080 0.101256 -0.075250
v -0.354992 0.120000 -0.342494
v -0.400080 0.111297 -0.360000
v 0.354832 0.120000 -0.342494
v 0.399920 0.111297 -0.360000
v 0.354832 0.120000 -0.081138
v 0.399920 0.111297 -0.085290
v 0.354832 0.120000 0.081150
v 0.399920 0.111297 0.085290
v 0.354832 0.120000 0.342506
v 0.399920 0.111297 0.360000
v -0.354992 0.120000 0.027054
v -0.400080 0.101256 0.028430
v -0.354992 0.120000 -0.027042
v -0.400080 0.101256 -0.028430
v 0.354832 0.120000 -0.027042
v 0.399920 0.111297 -0.028430
v 0.354832 0.120000 0.027054
v 0.399920 0.111297 0.028430
v 0.354832 0.120000 0.456673
v 0.399920 0.111297 0.480000
v -0.400080 0.111297 0.480000
v -0.354992 0.120000 0.456673
v -0.354992 0.120000 -0.456661
v -0.400080 0.111297 -0.480000
v 0.399920 0.111297 -0.480000
v 0.354832 0.120000 -0.456661
v -0.354992 0.120000 0.399589
v -0.400080 0.111297 0.420000
v 0.399920 0.111297 0.420000
v 0.354832 0.120000 0.399589
v 0.354832 0.120000 -0.398855
v 0.399920 0.111297 -0.419241
v -0.400080 0.111297 -0.419241
v -0.354992 0.120000 -0.398855
v 0.399920 0.111297 0.056860
v 0.354832 0.120000 0.054102
v -0.400080 0.101256 0.056860
v -0.354992 0.120000 0.054102
v -0.400080 0.101256 -0.056860
v -0.354992 0.120000 -0.054090
v 0.399920 0.111297 -0.056860
v 0.354832 0.120000 -0.054090
v 0.399920 0.111297 -0.388915
v 0.354832 0.120000 -0.370004
v -0.400080 0.111297 -0.388915
v -0.354992 0.120000 -0.370004
v -0.400080 0.111297 0.390000
v -0.354992 0.120000 0.371048
v 0.399920 0.111297 0.390000
v 0.354832 0.120000 0.371048
v -0.354992 0.120000 0.539053
v -0.348849 0.120000 0.545196
v -0.348849 0.120000 -0.545184
v -0.354992 0.120000 -0.539041
v 0.348689 0.120000 0.545196
v 0.354832 0.120000 0.539053
v 0.354832 0.120000 -0.539041
v 0.348689 0.120000 -0.545184
v -0.391377 0.120000 0.390000
v -0.391377 0.120000 0.360000
v -0.391377 0.120000 0.085290
v -0.391377 0.120000 -0.056860
v -0.391377 0.120000 -0.085290
v -0.391377 0.120000 -0.360000
v 0.391216 0.120000 -0.388915
v 0.391216 0.120000 -0.360000
v 0.391216 0.120000 -0.085290
v 0.391216 0.120000 0.056860
v 0.391216 0.120000 0.085290
v 0.391216 0.120000 0.360000
v -0.391377 0.120000 0.056860
v -0.391377 0.120000 0.028430
v -0.391377 0.120000 -0.028430
v 0.391216 0.120000 -0.056860
v 0.391216 0.120000 -0.028430
v 0.391216 0.120000 0.028430
v 0.391216 0.120000 0.420000
v 0.391216 0.120000 0.480000
v -0.391377 0.120000 -0.419241
v -0.391377 0.120000 -0.480000
v -0.391377 0.120000 0.480000
v -0.391377 0.120000 0.420000
v 0.391216 0.120000 0.390000
v 0.391216 0.120000 -0.480000
v 0.391216 0.120000 -0.419241
v -0.391377 0.120000 -0.388915
v 0.354832 0.115930 0.342506
v -0.354992 0.115930 0.342506
v -0.354992 0.115930 0.371048
v 0.354832 0.115930 0.371048
v 0.354832 0.115930 0.081150
v -0.354992 0.115930 0.081150
v 0.354832 0.115930 0.054102
v -0.354992 0.115930 0.054102
v 0.354832 0.115930 -0.081138
v -0.354992 0.115930 -0.081138
v -0.354992 0.115930 -0.054090
v 0.354832 0.115930 -0.054090
v 0.354832 0.115930 -0.342494
v -0.354992 0.115930 -0.342494
v 0.354832 0.115930 -0.370004
v -0.354992 0.115930 -0.370004
v 0.354832 0.115930 0.027054
v -0.354992 0.115930 0.027054
v 0.354832 0.115930 -0.027042
v -0.354992 0.115930 -0.027042
v 0.354832 0.115930 0.399589
v -0.354992 0.115930 0.399589
v -0.354992 0.115930 0.456673
v 0.354832 0.115930 0.456673
v 0.354832 0.115930 -0.456661
v -0.354992 0.115930 -0.456661
v -0.354992 0.115930 -0.398855
v 0.354832 0.115930 -0.398855
v -0.348849 0.115930 0.545196
v -0.354992 0.115930 0.539053
v -0.354992 0.115930 -0.539041
v -0.348849 0.115930 -0.545184
v 0.348689 0.115930 -0.545184
v 0.354832 0.115930 -0.539041
v 0.354832 0.115930 0.539053
v 0.348689 0.115930 0.545196
v 0.354832 0.113949 0.342506
v -0.354992 0.113949 0.342506
v -0.354992 0.113949 0.371048
v 0.354832 0.113949 0.371048
v 0.354832 0.113949 0.081150
v -0.354992 0.113949 0.081150
v 0.354832 0.113949 0.054102
v -0.354992 0.113949 0.054102
v 0.354832 0.113949 -0.081138
v -0.354992 0.113949 -0.081138
v -0.354992 0.113949 -0.054090
v 0.354832 0.113949 -0.054090
v 0.354832 0.113949 -0.342494
v -0.354992 0.113949 -0.342494
v 0.354832 0.113949 -0.370004
v -0.354992 0.113949 -0.370004
v 0.354832 0.113949 0.027054
v -0.354992 0.113949 0.027054
v 0.354832 0.113949 -0.027042
v -0.354992 0.113949 -0.027042
v 0.354832 0.113949 0.399589
v -0.354992 0.113949 0.399589
v -0.354992 0.113949 -0.398855
v 0.354832 0.113949 -0.398855
v -0.226486 0.000000 0.600000
v -0.182079 0.022266 0.600000
v 0.180872 0.022266 0.600000
v 0.226572 0.000000 0.600000
v 0.224409 0.120000 0.591297
v 0.074750 0.120000 0.591297
v -0.074910 0.120000 0.591297
v -0.224569 0.120000 0.591297
v -0.226733 0.111297 0.600000
v -0.075631 0.111297 0.600000
v 0.075471 0.111297 0.600000
v 0.226572 0.111297 0.600000
v 0.209181 0.120000 0.545196
v 0.069674 0.120000 0.545196
v -0.069834 0.120000 0.545196
v -0.209342 0.120000 0.545196
v 0.209181 0.115930 0.545196
v 0.069674 0.115930 0.545196
v -0.069834 0.115930 0.545196
v -0.209342 0.115930 0.545196
v 0.226572 0.000000 -0.600000
v 0.180872 0.022266 -0.600000
v -0.182079 0.022266 -0.600000
v -0.226486 0.000000 -0.600000
v -0.224569 0.120000 -0.591297
v -0.074910 0.120000 -0.591297
v 0.074750 0.120000 -0.591297
v 0.224409 0.120000 -0.591297
v 0.226572 0.111297 -0.600000
v 0.075471 0.111297 -0.600000
v -0.075631 0.111297 -0.600000
v -0.226733 0.111297 -0.600000
v -0.209342 0.120000 -0.545184
v -0.069834 0.120000 -0.545184
v 0.069674 0.120000 -0.545184
v 0.209181 0.120000 -0.545184
v -0.209342 0.115930 -0.545184
v -0.069834 0.115930 -0.545184
v 0.069674 0.115930 -0.545184
v 0.209181 0.115930 -0.545184
v -0.226486 0.000000 -0.419241
v -0.226486 0.009027 -0.360000
v -0.226486 0.000000 -0.480000
v -0.226486 0.009027 -0.085290
v -0.226486 0.000000 -0.028430
v -0.226486 0.009027 0.085290
v -0.226486 0.009027 -0.388915
v -0.226486 0.000000 0.028430
v -0.226486 0.009027 0.056860
v -0.226486 0.009027 0.360000
v -0.226486 0.000000 0.420000
v -0.226486 0.000000 0.480000
v -0.226486 0.009027 0.390000
v -0.226486 0.009027 -0.056860
v -0.182079 0.031293 0.056860
v -0.182079 0.022266 -0.480000
v -0.182079 0.014208 0.360000
v -0.182079 0.014208 -0.085290
v -0.182079 0.022266 0.420000
v -0.182079 0.022266 -0.028430
v -0.182079 0.022266 0.480000
v -0.182079 0.014208 0.085290
v -0.182079 0.031293 0.390000
v -0.182079 0.031293 -0.388915
v -0.182079 0.022266 -0.419241
v -0.182079 0.031293 -0.056860
v -0.182079 0.022266 0.028430
v -0.182079 0.014208 -0.360000
v 0.186522 0.031293 -0.056860
v 0.180992 0.022266 -0.028430
v 0.181028 0.022266 0.028430
v 0.181203 0.022266 0.480000
v 0.186353 0.031293 0.056860
v 0.186334 0.014208 -0.360000
v 0.186435 0.014208 0.085290
v 0.181148 0.022266 -0.480000
v 0.186525 0.031293 0.390000
v 0.186308 0.014208 0.360000
v 0.186523 0.031293 -0.388915
v 0.186474 0.014208 -0.085290
v 0.181052 0.022266 -0.419241
v 0.181221 0.022266 0.420000
v 0.226636 0.000000 -0.028430
v 0.229763 0.009027 0.390000
v 0.226656 0.000000 0.028430
v 0.229830 0.009027 0.360000
v 0.226656 0.000000 0.480000
v 0.229978 0.009027 -0.388915
v 0.229799 0.009027 0.056860
v 0.229841 0.009027 -0.085290
v 0.229646 0.009027 -0.360000
v 0.226708 0.000000 -0.419241
v 0.229686 0.009027 0.085290
v 0.229828 0.009027 -0.056860
v 0.226639 0.000000 0.420000
v 0.226727 0.000000 -0.480000
v -0.400080 0.009027 0.056860
v -0.400080 0.009027 0.085290
v -0.400080 0.009027 -0.056860
v -0.400080 0.000000 -0.028430
v -0.400080 0.000000 0.028430
v -0.400080 0.009027 -0.085290
v -0.400080 0.111297 -0.085290
v -0.400080 0.111297 -0.056860
v -0.400080 0.111297 0.028430
v -0.400080 0.111297 0.056860
v -0.400080 0.111297 -0.028430
v -0.400080 0.111297 0.085290
v -0.393228 0.101256 0.056860
v -0.393228 0.019067 0.055304
v -0.393228 0.024638 -0.054441
v -0.393228 0.101256 -0.056860
v -0.393228 0.010040 0.026874
v -0.393228 0.101256 0.028430
v -0.393228 0.101256 -0.028430
v -0.393228 0.015611 -0.026011
v -0.393228 0.024638 0.069679
v -0.393228 0.024638 -0.069679
v -0.393228 0.095685 -0.069679
v -0.393228 0.095685 0.069679
v -0.393228 0.024638 0.054441
v -0.393228 0.019067 0.075250
v -0.393228 0.019067 -0.055304
v -0.393228 0.010040 -0.026874
v -0.393228 0.015611 0.026011
v -0.393228 0.019067 -0.075250
v -0.393228 0.101256 -0.075250
v -0.393228 0.095685 -0.056860
v -0.393228 0.095685 0.028430
v -0.393228 0.095685 0.056860
v -0.393228 0.095685 -0.028430
v -0.393228 0.101256 0.075250
v -0.398079 0.065085 0.056860
v -0.398079 0.051628 0.052607
v -0.398079 0.024638 -0.054441
v -0.398079 0.095685 -0.056860
v -0.398079 0.051628 0.024177
v -0.398079 0.065085 0.028430
v -0.398079 0.095685 -0.028430
v -0.398079 0.015611 -0.026011
v -0.398079 0.051628 0.057841
v -0.398079 0.051628 -0.057841
v -0.398079 0.065085 -0.057841
v -0.398079 0.065085 0.057841
v -0.398079 0.024638 0.054441
v -0.398079 0.024638 0.069679
v -0.398079 0.051628 -0.052607
v -0.398079 0.051628 -0.024177
v -0.398079 0.015611 0.026011
v -0.398079 0.024638 -0.069679
v -0.398079 0.095685 -0.069679
v -0.398079 0.065085 -0.056860
v -0.398079 0.095685 0.028430
v -0.398079 0.095685 0.056860
v -0.398079 0.065085 -0.028430
v -0.398079 0.095685 0.069679
v -0.396352 0.065085 0.056860
v -0.396352 0.051628 0.052607
v -0.396352 0.051628 -0.052607
v -0.396352 0.063970 -0.056072
v -0.396352 0.052743 0.023842
v -0.396352 0.065085 0.028430
v -0.396352 0.063970 -0.028036
v -0.396352 0.052743 -0.023842
v -0.396352 0.052743 0.056811
v -0.396352 0.052743 -0.056811
v -0.396352 0.063970 -0.056811
v -0.396352 0.063970 0.056811
v -0.396352 0.052743 0.051878
v -0.396352 0.051628 0.057841
v -0.396352 0.052743 -0.051878
v -0.396352 0.051628 -0.024177
v -0.396352 0.051628 0.024177
v -0.396352 0.051628 -0.057841
v -0.396352 0.065085 -0.057841
v -0.396352 0.065085 -0.056860
v -0.396352 0.063970 0.028036
v -0.396352 0.063970 0.056072
v -0.396352 0.065085 -0.028430
v -0.396352 0.065085 0.057841
v -0.395226 0.063970 0.056072
v -0.395226 0.052743 0.051878
v -0.395226 0.052743 -0.051878
v -0.395226 0.063970 -0.056072
v -0.395226 0.052743 0.023842
v -0.395226 0.063970 0.028036
v -0.395226 0.063970 -0.028036
v -0.395226 0.052743 -0.023842
v -0.395226 0.052743 0.056811
v -0.395226 0.052743 -0.056811
v -0.395226 0.063970 -0.056811
v -0.395226 0.063970 0.056811
v -0.405491 0.000000 0.579995
v -0.380075 0.000000 0.605410
v -0.380075 0.000000 -0.605410
v -0.405491 0.000000 -0.579995
v 0.405330 0.000000 -0.579995
v 0.379915 0.000000 -0.605410
v 0.379915 0.000000 0.605410
v 0.405330 0.000000 0.579995
v -0.405491 0.000000 0.480000
v 0.226572 0.000000 0.605410
v 0.405330 0.000000 0.480000
v -0.226486 0.000000 -0.605410
v -0.405491 0.000000 -0.480000
v 0.405330 0.000000 -0.480000
v 0.393107 0.125534 0.480000
v 0.405330 0.113538 0.480000
v -0.393267 0.125534 -0.480000
v -0.405491 0.113538 -0.480000
v -0.405491 0.113538 0.480000
v -0.393267 0.125534 0.480000
v 0.405330 0.113538 -0.480000
v 0.393107 0.125534 -0.480000
v -0.380064 0.113609 0.605384
v -0.375222 0.125329 0.593694
v -0.393774 0.125329 0.575142
v -0.405465 0.113609 0.579984
v -0.405465 0.113609 -0.579984
v -0.393774 0.125329 -0.575142
v -0.375222 0.125329 -0.593694
v -0.380064 0.113609 -0.605384
v 0.379904 0.113609 -0.605384
v 0.375062 0.125329 -0.593694
v 0.393613 0.125329 -0.575142
v 0.405304 0.113609 -0.579984
v 0.405304 0.113609 0.579984
v 0.393613 0.125329 0.575142
v 0.375062 0.125329 0.593694
v 0.379904 0.113609 0.605384
v -0.224569 0.125532 0.593195
v 0.226572 0.113654 0.605360
v 0.224409 0.125532 -0.593195
v -0.226733 0.113653 -0.605360
v -0.348849 0.125410 0.545196
v -0.354992 0.125410 0.539053
v -0.354992 0.125410 -0.539041
v -0.348849 0.125410 -0.545184
v 0.348689 0.125410 -0.545184
v 0.354832 0.125410 -0.539041
v 0.354832 0.125410 0.539053
v 0.348689 0.125410 0.545196
v -0.354992 0.125410 0.456673
v -0.209342 0.125410 0.545196
v 0.354832 0.125410 0.456673
v 0.209181 0.125410 -0.545184
v -0.354992 0.125410 -0.456661
v 0.354832 0.125410 -0.456661
v -0.226486 0.000000 0.605410
v 0.224409 0.125532 0.593195
v -0.226733 0.113653 0.605360
v 0.209181 0.125410 0.545196
v 0.226572 0.000000 -0.605410
v -0.224569 0.125532 -0.593195
v 0.226572 0.113654 -0.605360
v -0.209342 0.125410 -0.545184
vn -1.0000 -0.0000 -0.0000
vn -0.0000 -1.0000 -0.0000
vn 0.7071 -0.0000 0.7071
vn 1.0000 -0.0000 -0.0000
vn -0.0000 -0.0000 -1.0000
vn -0.0000 -0.0000 1.0000
vn 0.7071 -0.0000 -0.7071
vn -0.0000 1.0000 -0.0000
vn -0.0000 0.9531 0.3026
vn -0.0000 -0.9531 -0.3026
vn 0.9500 -0.0534 0.3075
vn -0.0000 -0.9576 -0.2881
vn -0.5278 -0.0912 -0.8444
vn -0.0000 -0.9531 0.3026
vn -0.0000 -0.9584 0.2853
vn -0.9893 -0.0989 -0.1075
vn -0.5498 0.8353 -0.0000
vn -0.7300 -0.6835 -0.0000
vn 0.5498 0.8353 -0.0000
vn 0.7300 -0.6835 -0.0000
vn 0.7309 -0.0001 0.6825
vn 0.7309 -0.0001 -0.6825
vn -0.7308 -0.0001 -0.6825
vn -0.7309 -0.0001 0.6825
vn -0.7309 -0.0001 -0.6825
vn -0.7071 0.7071 -0.0000
vn 0.7071 0.7071 -0.0000
vn -0.5280 -0.0912 0.8443
vn -0.7071 -0.0000 -0.7071
vn -0.9500 -0.0534 0.3075
vn 0.5278 -0.0912 -0.8444
vn 0.9893 -0.0989 -0.1075
vn -0.7071 -0.0000 0.7071
vn -0.9501 -0.0534 -0.3075
vn 1.0000 0.0022 -0.0005
vn 0.9501 -0.0534 -0.3075
vn -0.0000 0.7071 0.7071
vn -0.0000 0.7071 -0.7071
vn 0.9893 -0.0989 0.1075
vn 0.4482 -0.8939 -0.0000
vn 0.4331 -0.8639 0.2571
vn 0.1159 -0.9933 -0.0000
vn 0.4312 -0.8600 0.2730
vn 0.2838 -0.9183 -0.2759
vn 0.2838 -0.9183 0.2759
vn 0.2849 -0.9219 0.2625
vn 0.4328 -0.8632 -0.2597
vn 0.2842 -0.9195 -0.2716
vn 0.4312 -0.8600 -0.2730
vn -0.0000 -0.8571 0.5151
vn -0.0000 -0.8571 -0.5151
vn -0.0000 -0.8609 -0.5087
vn -0.0000 -0.8690 0.4949
vn -0.4222 -0.8433 -0.3325
vn -0.4385 -0.8987 0.0002
vn -0.1186 -0.9929 -0.0000
vn -0.1187 -0.9929 0.0001
vn -0.4386 -0.8987 -0.0004
vn -0.2910 -0.9199 0.2627
vn -0.4260 -0.8481 -0.3150
vn -0.4244 -0.8493 0.3140
vn -0.2901 -0.9165 -0.2755
vn -0.4401 -0.8980 -0.0000
vn -0.4385 -0.8987 0.0008
vn -0.2901 -0.9171 -0.2735
vn -0.4220 -0.8441 0.3308
vn -0.2902 -0.9164 0.2755
vn -0.4390 -0.8985 -0.0008
vn -0.0000 0.9531 -0.3026
vn -1.0000 0.0001 0.0001
vn 0.7071 0.0002 0.7071
vn -0.7071 0.0002 -0.7071
vn 1.0000 0.0001 0.0001
vn -1.0000 0.0001 -0.0001
vn -0.7071 0.0002 0.7071
vn 1.0000 0.0001 -0.0001
vn 0.0001 0.0003 1.0000
vn -0.0001 0.0003 -1.0000
vn 0.7071 0.0002 -0.7071
vn -0.5006 0.7062 0.5006
vn -0.5006 0.7062 -0.5006
vn 0.5006 0.7062 -0.5006
vn 0.5006 0.7062 0.5006
vn -0.7043 0.7099 -0.0012
vn 0.0006 0.7108 0.7034
vn 0.7043 0.7099 -0.0012
vn -0.0006 0.7108 -0.7034
vn -0.7043 0.7099 0.0012
vn 0.7043 0.7099 0.0012
vn -0.0011 1.0000 0.0011
vn -0.0011 1.0000 -0.0011
vn 0.0011 1.0000 -0.0011
vn 0.0011 1.0000 0.0011
vn 0.0014 1.0000 0.0012
vn -0.0007 1.0000 -0.0007
vn -0.0014 1.0000 0.0012
vn 0.0007 1.0000 0.0007
vn 0.0015 1.0000 -0.0012
vn -0.0015 1.0000 -0.0012
vn 0.0007 1.0000 -0.0007
vn -0.0006 0.7108 0.7034
vn -0.0001 0.0003 1.0000
vn -0.0007 1.0000 0.0007
vn 0.0006 0.7108 -0.7034
vn 0.0001 0.0003 -1.0000
vn 1.0000 0.0022 0.0005
vn -0.9893 -0.0989 0.1075
vn 0.5280 -0.0912 0.8443
vt 0.375000 0.212342
vt 0.606868 0.212342
vt 0.606868 0.225000
vt 0.375000 0.225000
vt 0.125000 0.504635
vt 0.131952 0.500000
vt 0.179171 0.500000
vt 0.179168 0.525000
vt 0.125000 0.525000
vt 0.864559 0.505615
vt 0.866577 0.506961
vt 0.125000 0.725000
vt 0.179167 0.725000
vt 0.179171 0.750000
vt 0.131952 0.750000
vt 0.125000 0.745365
vt 0.633423 0.725000
vt 0.633423 0.743039
vt 0.415698 0.196444
vt 0.584262 0.196441
vt 0.605393 0.200000
vt 0.375000 0.200000
vt 0.582774 0.141667
vt 0.582774 0.147057
vt 0.415698 0.096444
vt 0.584262 0.096441
vt 0.605393 0.100000
vt 0.375000 0.100000
vt 0.375000 0.043750
vt 0.605393 0.043750
vt 0.605393 0.050000
vt 0.375000 0.050000
vt 0.125000 0.543976
vt 0.179321 0.543976
vt 0.179318 0.550000
vt 0.125000 0.550000
vt 0.179315 0.600000
vt 0.125000 0.600000
vt 0.125000 0.641667
vt 0.179330 0.641667
vt 0.179306 0.650000
vt 0.125000 0.650000
vt 0.179305 0.700000
vt 0.125000 0.700000
vt 0.584262 0.553559
vt 0.415698 0.553556
vt 0.375000 0.550000
vt 0.605393 0.550000
vt 0.415698 0.653556
vt 0.415698 0.696444
vt 0.375000 0.700000
vt 0.375000 0.650000
vt 0.584262 0.653559
vt 0.415698 0.653556
vt 0.605393 0.650000
vt 0.866577 0.700000
vt 0.866577 0.706250
vt 0.584262 0.053559
vt 0.415698 0.053556
vt 0.576392 0.692917
vt 0.423608 0.692917
vt 0.423608 0.057083
vt 0.576392 0.057083
vt 0.584262 0.153559
vt 0.415698 0.153556
vt 0.375000 0.150000
vt 0.605393 0.150000
vt 0.576392 0.593801
vt 0.423608 0.593801
vt 0.423608 0.156199
vt 0.576392 0.156199
vt 0.423608 0.552662
vt 0.576392 0.552662
vt 0.576392 0.197338
vt 0.423608 0.197338
vt 0.423608 0.651777
vt 0.576392 0.651777
vt 0.576392 0.098223
vt 0.423608 0.098223
vt 0.866577 0.525000
vt 0.866577 0.537658
vt 0.375000 0.641667
vt 0.605393 0.641667
vt 0.605393 0.700000
vt 0.605393 0.706250
vt 0.375000 0.706250
vt 0.375000 0.600000
vt 0.605393 0.600000
vt 0.605393 0.608333
vt 0.375000 0.608333
vt 0.584262 0.596441
vt 0.606868 0.550000
vt 0.606868 0.600000
vt 0.415698 0.553556
vt 0.415698 0.596444
vt 0.584262 0.696441
vt 0.606868 0.650000
vt 0.606868 0.700000
vt 0.866577 0.743039
vt 0.864559 0.744385
vt 0.415698 0.096444
vt 0.415698 0.153556
vt 0.415698 0.196444
vt 0.633423 0.712500
vt 0.605393 0.206024
vt 0.375000 0.206024
vt 0.633423 0.706250
vt 0.633423 0.700000
vt 0.582774 0.102943
vt 0.582774 0.108333
vt 0.633423 0.633333
vt 0.633423 0.616667
vt 0.397619 0.141211
vt 0.395918 0.132877
vt 0.375000 0.616667
vt 0.606868 0.616667
vt 0.606868 0.633333
vt 0.375000 0.633333
vt 0.125000 0.608333
vt 0.179344 0.608333
vt 0.179158 0.616667
vt 0.125000 0.616667
vt 0.179169 0.633333
vt 0.125000 0.633333
vt 0.605393 0.608333
vt 0.606868 0.616667
vt 0.397619 0.147057
vt 0.625000 0.025000
vt 0.606868 0.025000
vt 0.866577 0.712500
vt 0.125000 0.712500
vt 0.179158 0.712500
vt 0.820153 0.748187
vt 0.818735 0.744385
vt 0.375000 0.525000
vt 0.606868 0.525000
vt 0.606868 0.537658
vt 0.375000 0.537658
vt 0.633423 0.608333
vt 0.605393 0.543976
vt 0.375000 0.543976
vt 0.125000 0.706250
vt 0.179339 0.706250
vt 0.375000 0.037500
vt 0.606868 0.037500
vt 0.866577 0.543976
vt 0.866577 0.550000
vt 0.866577 0.725000
vt 0.872280 0.725000
vt 0.179155 0.537658
vt 0.125000 0.537658
vt 0.866577 0.616667
vt 0.866577 0.633333
vt 0.633423 0.543976
vt 0.633423 0.537658
vt 0.375000 0.712500
vt 0.606868 0.712500
vt 0.606868 0.725000
vt 0.375000 0.725000
vt 0.606868 0.150000
vt 0.606868 0.200000
vt 0.415698 0.596444
vt 0.633423 0.525000
vt 0.633423 0.506961
vt 0.866577 0.641667
vt 0.605393 0.206024
vt 0.606868 0.212342
vt 0.584262 0.096441
vt 0.606868 0.050000
vt 0.606868 0.100000
vt 0.415698 0.696444
vt 0.584262 0.696441
vt 0.606868 0.712500
vt 0.606868 0.445829
vt 0.625000 0.445153
vt 0.368048 0.750000
vt 0.375000 0.745365
vt 0.375000 0.025000
vt 0.606868 0.037500
vt 0.625000 0.043750
vt 0.625000 0.050000
vt 0.625000 0.100000
vt 0.625000 0.141667
vt 0.625000 0.150000
vt 0.605393 0.141667
vt 0.625000 0.200000
vt 0.627720 0.543976
vt 0.627720 0.550000
vt 0.627720 0.550000
vt 0.627720 0.600000
vt 0.627720 0.641667
vt 0.627720 0.650000
vt 0.627720 0.650000
vt 0.627720 0.700000
vt 0.625000 0.108333
vt 0.625000 0.116667
vt 0.606868 0.116667
vt 0.605393 0.108333
vt 0.625000 0.133333
vt 0.606868 0.133333
vt 0.606868 0.116667
vt 0.627720 0.608333
vt 0.627720 0.616667
vt 0.627720 0.616667
vt 0.627720 0.633333
vt 0.627720 0.712500
vt 0.627720 0.725000
vt 0.625000 0.212342
vt 0.625000 0.225000
vt 0.625000 0.037500
vt 0.627720 0.706250
vt 0.627720 0.712500
vt 0.627720 0.525000
vt 0.627720 0.537658
vt 0.625000 0.206024
vt 0.627720 0.633333
vt 0.627720 0.641667
vt 0.605393 0.108333
vt 0.627720 0.600000
vt 0.627720 0.608333
vt 0.627720 0.537658
vt 0.627720 0.543976
vt 0.627720 0.700000
vt 0.627720 0.706250
vt 0.872280 0.525000
vt 0.375000 0.504635
vt 0.368048 0.500000
vt 0.635441 0.744385
vt 0.681265 0.744385
vt 0.679847 0.748187
vt 0.625000 0.304847
vt 0.606868 0.304171
vt 0.633423 0.600000
vt 0.872280 0.700000
vt 0.872280 0.706250
vt 0.866577 0.650000
vt 0.872280 0.650000
vt 0.866577 0.608333
vt 0.866577 0.600000
vt 0.872280 0.600000
vt 0.872280 0.608333
vt 0.872280 0.550000
vt 0.633423 0.550000
vt 0.633423 0.641667
vt 0.633423 0.650000
vt 0.872280 0.633333
vt 0.872280 0.641667
vt 0.872280 0.616667
vt 0.872280 0.633333
vt 0.872280 0.537658
vt 0.872280 0.712500
vt 0.872280 0.537658
vt 0.872280 0.543976
vt 0.872280 0.641667
vt 0.872280 0.650000
vt 0.872280 0.706250
vt 0.635441 0.505615
vt 0.679847 0.501813
vt 0.681264 0.505615
vt 0.320829 0.500000
vt 0.375000 0.945829
vt 0.606868 0.945829
vt 0.818735 0.505615
vt 0.818736 0.744385
vt 0.772912 0.744385
vt 0.727088 0.744385
vt 0.681264 0.505615
vt 0.727088 0.505615
vt 0.772912 0.505615
vt 0.818736 0.505615
vt 0.772912 0.744385
vt 0.726616 0.748187
vt 0.773384 0.748187
vt 0.820153 0.501813
vt 0.625000 0.804847
vt 0.625000 0.851616
vt 0.606868 0.851390
vt 0.606868 0.804171
vt 0.625000 0.898384
vt 0.606868 0.898610
vt 0.625000 0.945153
vt 0.375000 0.804171
vt 0.375000 0.851390
vt 0.375000 0.898610
vt 0.773384 0.501813
vt 0.726616 0.501813
vt 0.625000 0.351616
vt 0.606868 0.351390
vt 0.625000 0.398384
vt 0.606868 0.398610
vt 0.375000 0.304171
vt 0.375000 0.351390
vt 0.375000 0.398610
vt 0.375000 0.445829
vt 0.226349 0.616667
vt 0.226346 0.633333
vt 0.226304 0.537658
vt 0.226877 0.543976
vt 0.226897 0.550000
vt 0.226848 0.600000
vt 0.226893 0.641667
vt 0.226887 0.650000
vt 0.226881 0.700000
vt 0.226325 0.525000
vt 0.226855 0.608333
vt 0.226333 0.712500
vt 0.226320 0.725000
vt 0.226905 0.706250
vt 0.226390 0.500000
vt 0.226390 0.750000
vt 0.274487 0.600000
vt 0.274498 0.608333
vt 0.273457 0.712500
vt 0.273445 0.725000
vt 0.273438 0.616667
vt 0.273440 0.633333
vt 0.274502 0.550000
vt 0.274532 0.706250
vt 0.273415 0.537658
vt 0.274513 0.543976
vt 0.274502 0.641667
vt 0.274508 0.650000
vt 0.273610 0.500000
vt 0.273442 0.525000
vt 0.273610 0.750000
vt 0.274488 0.700000
vt 0.321929 0.608333
vt 0.320748 0.616667
vt 0.320754 0.633333
vt 0.321896 0.650000
vt 0.321939 0.700000
vt 0.321888 0.550000
vt 0.321931 0.600000
vt 0.320768 0.525000
vt 0.320755 0.537658
vt 0.321927 0.706250
vt 0.320744 0.712500
vt 0.321984 0.543976
vt 0.321934 0.641667
vt 0.320744 0.725000
vt 0.320829 0.750000
vt 0.397619 0.102943
vt 0.398516 0.108789
vt 0.375000 0.108333
vt 0.375000 0.141667
vt 0.375000 0.133333
vt 0.396815 0.117123
vt 0.375000 0.116667
vt 0.585950 0.116667
vt 0.585950 0.133333
vt 0.574399 0.116667
vt 0.574325 0.133333
vt 0.411526 0.109042
vt 0.410400 0.104576
vt 0.570246 0.104576
vt 0.408878 0.117376
vt 0.570284 0.108333
vt 0.407536 0.132624
vt 0.410169 0.140958
vt 0.410169 0.145424
vt 0.570224 0.145424
vt 0.570202 0.141667
vt 0.437790 0.108046
vt 0.543806 0.108046
vt 0.434412 0.117913
vt 0.439047 0.109580
vt 0.543824 0.108333
vt 0.549932 0.116667
vt 0.549576 0.133333
vt 0.543436 0.141667
vt 0.432234 0.132087
vt 0.436833 0.140420
vt 0.436835 0.141954
vt 0.543540 0.141954
vt 0.436396 0.117913
vt 0.440851 0.109580
vt 0.542016 0.108333
vt 0.547946 0.116667
vt 0.547554 0.133333
vt 0.541594 0.141667
vt 0.434255 0.132087
vt 0.541682 0.141886
vt 0.439669 0.108114
vt 0.438667 0.140420
vt 0.438670 0.141886
vt 0.541992 0.108114
vt 0.375000 0.004635
vt 0.606868 0.004635
vt 0.606868 0.025000
vt 0.606868 0.756952
vt 0.375000 0.756952
vt 0.606868 0.745365
vt 0.606868 0.256952
vt 0.375000 0.256952
vt 0.375000 0.245365
vt 0.606868 0.245365
vt 0.606868 0.725000
vt 0.606868 0.745365
vt 0.606868 0.225000
vt 0.606868 0.245365
vt 0.375000 0.000000
vt 0.606868 0.000000
vt 0.606868 0.004635
vt 0.606868 0.504635
vt 0.606868 0.525000
vt 0.606868 0.993048
vt 0.375000 0.993048
vt 0.606868 0.493048
vt 0.375000 0.493048
vt 0.606868 0.504635
vt 0.606868 0.493048
vt 0.625000 0.000531
vt 0.625000 0.004103
vt 0.625000 0.246693
vt 0.625000 0.255624
vt 0.625000 0.494376
vt 0.625000 0.503307
vt 0.625000 0.746693
vt 0.625000 0.755624
vt 0.625000 0.005386
vt 0.625000 0.991922
vt 0.627720 0.725000
vt 0.627720 0.744614
vt 0.625000 0.491922
vt 0.625000 0.244614
vt 0.627720 0.505386
vt 0.627720 0.525000
vt 0.872280 0.744614
vt 0.866922 0.748187
vt 0.866922 0.501813
vt 0.872280 0.505386
vt 0.633078 0.501813
vt 0.633078 0.748187
vt 0.625000 0.758078
vt 0.606868 0.756952
vt 0.625000 0.258078
vt 0.606868 0.256952
s 0
usemtl M_Noir_Bleuté
f 19/1/1 107/2/1 98/3/1 16/4/1
f 31/5/2 32/6/2 244/7/2 263/8/2 16/9/2
f 127/10/3 128/11/3 191/11/3 192/10/3
f 13/12/2 272/13/2 221/14/2 29/15/2 30/16/2
f 13/12/2 30/16/2 413/16/2 421/12/2
f 38/19/1 51/20/1 76/21/1 1/22/1
f 113/23/2 74/24/2 347/24/2 332/23/2
f 42/25/1 47/26/1 328/27/1 318/28/1
f 28/29/1 121/30/1 70/31/1 4/32/1
f 25/33/2 267/34/2 262/35/2 1/36/2
f 1/36/2 262/35/2 264/37/2 322/38/2
f 317/39/2 269/40/2 266/41/2 318/42/2
f 318/42/2 266/41/2 270/43/2 4/44/2
f 62/45/4 59/46/4 8/47/4 78/48/4
f 55/49/4 54/50/4 5/51/4 6/52/4
f 66/53/4 55/54/4 6/52/4 82/55/4
f 69/56/4 122/57/4 163/57/4 162/56/4
f 46/58/1 43/59/1 4/32/1 70/31/1
f 50/64/1 39/65/1 322/66/1 323/67/1
f 97/80/4 108/81/4 187/81/4 186/80/4
f 22/82/4 109/83/4 82/55/4 6/52/4
f 5/51/4 84/84/4 123/85/4 27/86/4
f 7/87/4 80/88/4 115/89/4 23/90/4
f 63/91/4 62/45/4 78/92/4 80/93/4
f 59/94/4 58/95/4 7/87/4 8/47/4
f 67/96/4 66/53/4 82/97/4 84/98/4
f 125/99/7 126/100/7 189/100/7 190/99/7
f 43/59/1 42/101/1 318/28/1 4/32/1
f 39/102/1 38/103/1 1/22/1 322/66/1
f 93/17/1 104/104/1 181/104/1 184/17/1
f 1/22/1 76/21/1 119/105/1 25/106/1
f 124/107/1 83/108/1 161/108/1 164/107/1
f 72/109/2 111/110/2 329/110/2 352/109/2
f 91/111/1 89/112/1 179/112/1 177/111/1
f 24/113/9 9/114/9 344/114/9 343/113/9
f 12/115/4 90/116/4 92/117/4 11/118/4
f 11/118/4 92/117/4 109/83/4 22/82/4
f 319/119/10 274/120/10 265/121/10 320/122/10
f 320/122/2 265/121/2 268/123/2 321/124/2
f 23/90/4 115/125/4 90/126/4 12/115/4
f 74/24/6 2/127/6 346/127/6 347/24/6
f 122/57/4 101/130/4 182/130/4 163/57/4
f 18/131/2 271/132/2 272/13/2 13/12/2
f 15/135/4 99/136/4 106/137/4 20/138/4
f 89/112/1 116/139/1 172/139/1 179/112/1
f 20/138/4 106/137/4 117/140/4 26/141/4
f 28/142/12 273/143/12 271/132/12 18/131/12
f 18/144/1 102/145/1 121/30/1 28/29/1
f 120/146/4 75/147/4 174/147/4 176/146/4
f 29/15/2 221/14/2 469/14/2 414/15/2
f 16/9/2 263/8/2 261/150/2 19/151/2
f 87/152/4 85/153/4 178/153/4 180/152/4
f 118/154/1 105/155/1 188/155/1 175/154/1
f 17/156/4 103/157/4 94/158/4 14/159/4
f 321/124/14 268/123/14 269/40/14 317/39/14
f 2/127/8 24/113/8 343/113/8 346/127/8
f 51/20/1 50/64/1 323/160/1 76/161/1
f 322/38/2 264/37/2 274/120/2 319/119/2
f 58/162/4 63/91/4 80/88/4 7/87/4
f 100/163/1 131/164/1 194/164/1 185/163/1
f 26/141/4 117/140/4 78/48/4 8/47/4
f 85/153/4 112/165/4 168/165/4 178/153/4
f 19/151/15 261/150/15 267/34/15 25/33/15
f 25/106/1 119/166/1 107/167/1 19/1/1
f 47/168/1 46/58/1 70/169/1 328/170/1
f 4/44/2 270/43/2 273/143/2 28/142/2
f 54/171/4 67/172/4 84/84/4 5/51/4
f 27/86/4 123/85/4 103/173/4 17/156/4
f 34/176/2 33/177/2 420/177/2 419/176/2
f 13/178/1 95/129/1 102/179/1 18/144/1
f 38/103/17 39/102/17 40/70/17 37/75/17
f 42/101/17 43/59/17 44/62/17 41/79/17
f 46/58/18 47/168/18 48/78/18 45/63/18
f 50/64/18 51/20/18 52/74/18 49/71/18
f 54/50/19 55/49/19 56/76/19 53/61/19
f 58/95/19 59/94/19 60/72/19 57/69/19
f 62/45/20 63/91/20 64/68/20 61/73/20
f 66/53/20 67/96/20 68/60/20 65/77/20
f 61/73/21 60/72/21 59/46/21 62/45/21
f 63/91/22 58/162/22 57/69/22 64/68/22
f 65/77/21 56/76/21 55/54/21 66/53/21
f 67/172/22 54/171/22 53/61/22 68/60/22
f 45/63/23 44/62/23 43/59/23 46/58/23
f 47/26/24 42/25/24 41/79/24 48/78/24
f 49/71/25 40/70/25 39/65/25 50/64/25
f 51/20/24 38/19/24 37/75/24 52/74/24
f 133/180/26 134/181/26 70/31/26 121/30/26
f 134/181/26 135/182/26 328/170/26 70/169/26
f 136/183/26 137/184/26 323/67/26 324/185/26
f 137/184/26 138/186/26 76/161/26 323/160/26
f 139/187/27 140/188/27 78/48/27 117/140/27
f 140/189/27 141/190/27 80/93/27 78/92/27
f 142/191/27 143/192/27 82/55/27 109/83/27
f 143/193/27 144/194/27 84/98/27 82/97/27
f 145/195/26 146/196/26 325/197/26 326/198/26
f 146/196/26 147/199/26 327/200/26 325/201/26
f 148/202/27 149/203/27 90/126/27 115/125/27
f 149/204/27 150/205/27 92/117/27 90/116/27
f 151/206/27 152/207/27 94/158/27 103/157/27
f 153/208/26 154/209/26 98/3/26 107/2/26
f 155/128/26 156/210/26 102/179/26 95/129/26
f 157/211/27 151/212/27 103/173/27 123/85/27
f 158/213/27 159/214/27 106/137/27 99/136/27
f 160/215/26 153/208/26 107/167/26 119/166/26
f 150/216/27 142/217/27 109/83/27 92/117/27
f 135/182/26 145/195/26 326/218/26 328/27/26
f 147/199/26 136/183/26 324/185/26 327/200/26
f 141/219/27 148/220/27 115/89/27 80/88/27
f 159/221/27 139/222/27 117/140/27 106/137/27
f 138/186/26 160/215/26 119/105/26 76/21/26
f 156/210/26 133/180/26 121/30/26 102/145/26
f 144/223/27 157/224/27 123/85/27 84/84/27
f 36/226/2 35/227/2 418/227/2 417/226/2
f 32/6/2 31/5/2 416/5/2 415/6/2
f 116/139/1 79/233/1 169/233/1 172/139/1
f 122/57/8 69/56/8 134/234/8 133/235/8
f 69/56/8 71/236/8 135/237/8 134/234/8
f 114/238/8 73/239/8 137/240/8 136/241/8
f 73/239/8 75/147/8 138/242/8 137/240/8
f 118/154/8 77/243/8 140/188/8 139/187/8
f 77/243/8 79/233/8 141/190/8 140/189/8
f 110/244/8 81/245/8 143/192/8 142/191/8
f 81/245/8 83/108/8 144/194/8 143/193/8
f 112/165/8 85/153/8 146/246/8 145/247/8
f 85/153/8 87/152/8 147/248/8 146/249/8
f 116/139/8 89/112/8 149/203/8 148/202/8
f 89/112/8 91/111/8 150/205/8 149/204/8
f 104/104/8 93/17/8 152/207/8 151/206/8
f 108/81/8 97/80/8 154/225/8 153/250/8
f 96/148/8 101/130/8 156/251/8 155/149/8
f 124/107/8 104/104/8 151/212/8 157/211/8
f 100/163/8 105/155/8 159/214/8 158/213/8
f 120/146/8 108/81/8 153/252/8 160/253/8
f 91/111/8 110/244/8 142/217/8 150/216/8
f 71/236/8 112/165/8 145/254/8 135/255/8
f 87/152/8 114/238/8 136/241/8 147/248/8
f 79/233/8 116/139/8 148/220/8 141/219/8
f 105/155/8 118/154/8 139/222/8 159/221/8
f 75/147/8 120/146/8 160/253/8 138/242/8
f 101/130/8 122/57/8 133/256/8 156/251/8
f 83/108/8 124/107/8 157/224/8 144/223/8
f 30/16/2 29/15/2 414/15/2 413/16/2
f 35/227/2 241/260/2 473/260/2 418/227/2
f 164/107/1 161/108/1 197/108/1 200/107/1
f 179/112/1 172/139/1 208/139/1 215/112/1
f 187/81/4 176/146/4 212/146/4 219/81/4
f 170/239/4 171/238/4 207/238/4 206/239/4
f 163/57/4 182/130/4 218/130/4 199/57/4
f 101/130/4 96/148/4 183/148/4 182/130/4
f 71/236/4 69/56/4 162/56/4 166/236/4
f 131/164/33 132/257/33 193/257/33 194/164/33
f 104/104/1 124/107/1 164/107/1 181/104/1
f 73/239/4 114/238/4 171/238/4 170/239/4
f 129/228/29 130/18/29 195/18/29 196/228/29
f 105/155/1 100/163/1 185/163/1 188/155/1
f 75/147/4 73/239/4 170/239/4 174/147/4
f 96/148/4 125/99/4 190/99/4 183/148/4
f 108/81/4 120/146/4 176/146/4 187/81/4
f 77/243/1 118/154/1 175/154/1 173/243/1
f 233/229/5 129/228/5 196/228/5 237/229/5
f 110/244/1 91/111/1 177/111/1 167/244/1
f 79/233/1 77/243/1 173/243/1 169/233/1
f 130/18/1 93/17/1 184/17/1 195/18/1
f 112/165/4 71/236/4 166/236/4 168/165/4
f 81/245/1 110/244/1 167/244/1 165/245/1
f 253/263/6 127/10/6 192/10/6 257/270/6
f 114/238/4 87/152/4 180/152/4 171/238/4
f 83/108/1 81/245/1 165/245/1 161/108/1
f 128/11/4 97/80/4 186/80/4 191/11/4
f 200/107/8 199/57/8 218/130/8 217/104/8
f 213/111/8 214/153/8 204/165/8 203/244/8
f 211/154/8 212/146/8 210/147/8 209/243/8
f 203/244/8 204/165/8 202/236/8 201/245/8
f 205/233/8 206/239/8 207/238/8 208/139/8
f 208/139/8 207/238/8 216/152/8 215/112/8
f 220/155/8 219/81/8 212/146/8 211/154/8
f 197/108/8 198/56/8 199/57/8 200/107/8
f 167/244/1 177/111/1 213/111/1 203/244/1
f 173/243/1 175/154/1 211/154/1 209/243/1
f 168/165/4 166/236/4 202/236/4 204/165/4
f 171/238/4 180/152/4 216/152/4 207/238/4
f 165/245/1 167/244/1 203/244/1 201/245/1
f 172/139/1 169/233/1 205/233/1 208/139/1
f 175/154/1 188/155/1 220/155/1 211/154/1
f 162/56/4 163/57/4 199/57/4 198/56/4
f 181/104/1 164/107/1 200/107/1 217/104/1
f 178/153/4 168/165/4 204/165/4 214/153/4
f 176/146/4 174/147/4 210/147/4 212/146/4
f 126/100/5 236/134/5 240/264/5 189/100/5
f 236/134/5 235/271/5 239/265/5 240/264/5
f 235/271/5 234/266/5 238/266/5 239/265/5
f 234/266/5 233/229/5 237/229/5 238/266/5
f 233/229/8 234/266/8 226/272/8 225/230/8
f 234/266/8 235/271/8 227/273/8 226/272/8
f 235/271/8 236/134/8 228/133/8 227/273/8
f 225/275/37 226/276/37 231/277/37 232/278/37
f 226/276/37 227/279/37 230/280/37 231/277/37
f 227/279/37 228/281/37 229/262/37 230/280/37
f 15/135/2 36/226/2 417/226/2 426/135/2
f 224/282/6 232/278/6 231/277/6 223/283/6
f 223/283/6 231/277/6 230/280/6 222/284/6
f 222/284/6 230/280/6 229/262/6 221/261/6
f 132/257/6 256/259/6 260/267/6 193/257/6
f 256/259/6 255/268/6 259/268/6 260/267/6
f 255/268/6 254/269/6 258/269/6 259/268/6
f 254/269/6 253/263/6 257/270/6 258/269/6
f 253/263/8 254/269/8 246/285/8 245/274/8
f 254/269/8 255/268/8 247/286/8 246/285/8
f 255/268/8 256/259/8 248/258/8 247/286/8
f 31/5/2 16/9/2 425/9/2 416/5/2
f 245/231/38 246/287/38 251/288/38 252/232/38
f 246/287/38 247/289/38 250/290/38 251/288/38
f 247/289/38 248/175/38 249/174/38 250/290/38
f 244/291/5 252/232/5 251/288/5 243/292/5
f 243/292/5 251/288/5 250/290/5 242/293/5
f 242/293/5 250/290/5 249/174/5 241/294/5
f 268/123/40 265/121/40 280/295/40 287/296/40
f 267/34/41 261/150/41 285/297/41 284/298/41
f 264/37/42 262/35/42 288/299/42 278/300/42
f 269/40/43 268/123/43 287/296/43 275/301/43
f 266/41/44 269/40/44 275/301/44 282/302/44
f 270/43/42 266/41/42 282/302/42 277/303/42
f 261/150/40 263/8/40 276/304/40 285/297/40
f 274/120/45 264/37/45 278/300/45 286/305/45
f 272/13/40 271/132/40 279/306/40 281/307/40
f 273/143/46 270/43/46 277/303/46 283/308/46
f 271/132/47 273/143/47 283/308/47 279/306/47
f 263/8/40 244/7/40 243/309/40 276/304/40
f 262/35/48 267/34/48 284/298/48 288/299/48
f 221/14/40 272/13/40 281/307/40 222/310/40
f 265/121/49 274/120/49 286/305/49 280/295/49
f 286/305/50 278/300/50 300/311/50 289/312/50
f 281/307/2 279/306/2 302/313/2 292/314/2
f 287/296/2 280/295/2 290/315/2 291/316/2
f 278/300/2 288/299/2 294/317/2 300/311/2
f 279/306/12 283/308/12 297/318/12 302/313/12
f 284/298/15 285/297/15 301/319/15 299/320/15
f 282/302/51 275/301/51 293/321/51 295/322/51
f 276/304/2 243/309/2 242/323/2 296/324/2
f 288/299/52 284/298/52 299/320/52 294/317/52
f 275/301/14 287/296/14 291/316/14 293/321/14
f 222/310/2 281/307/2 292/314/2 223/325/2
f 280/295/10 286/305/10 289/312/10 290/315/10
f 277/303/2 282/302/2 295/322/2 298/326/2
f 283/308/53 277/303/53 298/326/53 297/318/53
f 285/297/2 276/304/2 296/324/2 301/319/2
f 290/315/54 289/312/54 314/327/54 303/328/54
f 291/316/55 290/315/55 303/328/55 305/329/55
f 298/326/56 295/322/56 313/330/56 306/331/56
f 300/311/57 294/317/57 311/332/57 310/333/57
f 301/319/58 296/324/58 316/334/58 312/335/58
f 297/318/59 298/326/59 306/331/59 304/336/59
f 302/313/60 297/318/60 304/336/60 315/337/60
f 299/320/61 301/319/61 312/335/61 308/338/61
f 295/322/62 293/321/62 309/339/62 313/330/62
f 292/314/63 302/313/63 315/337/63 307/340/63
f 296/324/64 242/323/64 241/260/64 316/334/64
f 294/317/65 299/320/65 308/338/65 311/332/65
f 293/321/66 291/316/66 305/329/66 309/339/66
f 289/312/67 300/311/67 310/333/67 314/327/67
f 223/325/68 292/314/68 307/340/68 224/341/68
f 224/341/2 307/340/2 14/159/2 33/177/2 34/176/2
f 304/336/2 306/331/2 5/51/2 27/86/2
f 315/337/12 304/336/12 27/86/12 17/156/12
f 308/338/15 312/335/15 20/138/15 26/141/15
f 313/330/2 309/339/2 22/82/2 6/52/2
f 307/340/2 315/337/2 17/156/2 14/159/2
f 316/334/2 241/260/2 35/227/2 36/226/2 15/135/2
f 305/329/2 303/328/2 12/115/2 11/118/2
f 303/328/10 314/327/10 23/90/10 12/115/10
f 311/332/2 308/338/2 26/141/2 8/47/2
f 306/331/2 313/330/2 6/52/2 5/51/2
f 309/339/14 305/329/14 11/118/14 22/82/14
f 310/333/2 311/332/2 8/47/2 7/87/2
f 312/335/2 316/334/2 15/135/2 20/138/2
f 314/327/2 310/333/2 7/87/2 23/90/2
f 3/342/1 21/343/1 317/344/1 318/28/1
f 9/114/1 24/113/1 319/345/1 320/346/1
f 10/347/1 9/114/1 320/346/1 321/348/1
f 21/343/1 10/347/1 321/348/1 317/344/1
f 24/113/1 2/127/1 322/66/1 319/345/1
f 74/24/1 113/23/1 324/185/1 323/67/1
f 86/349/1 111/110/1 326/198/1 325/197/1
f 88/350/1 86/349/1 325/201/1 327/200/1
f 111/110/1 72/109/1 328/27/1 326/218/1
f 113/23/1 88/350/1 327/200/1 324/185/1
f 72/109/1 3/342/1 318/28/1 328/27/1
f 2/127/1 74/24/1 323/67/1 322/66/1
f 9/114/8 10/347/8 333/347/8 344/114/8
f 88/350/2 113/23/2 332/23/2 335/350/2
f 111/110/2 86/349/2 334/349/2 329/110/2
f 10/347/69 21/343/69 330/343/69 333/347/69
f 3/342/5 72/109/5 352/109/5 342/342/5
f 21/343/8 3/342/8 342/342/8 330/343/8
f 86/349/2 88/350/2 335/350/2 334/349/2
f 224/341/2 34/176/2 419/176/2 422/341/2
f 33/177/2 14/159/2 423/159/2 420/177/2
f 244/7/2 32/6/2 415/6/2 424/7/2
usemtl M_Blanc
f 349/351/8 351/352/8 359/352/8 373/351/8
f 341/353/2 337/354/2 366/354/2 365/353/2
f 337/354/6 340/355/6 376/355/6 366/354/6
f 345/356/14 341/353/14 365/353/14 369/356/14
f 350/357/8 349/351/8 373/351/8 374/357/8
f 361/363/5 364/364/5 400/364/5 390/363/5
f 357/365/8 354/366/8 378/366/8 393/365/8
f 353/367/2 358/368/2 382/368/2 377/367/2
f 375/369/2 372/370/2 396/370/2 399/369/2
f 368/371/8 357/365/8 393/365/8 392/371/8
f 338/360/2 331/359/2 355/359/2 370/360/2
f 339/361/5 338/360/5 370/360/5 371/361/5
f 331/359/10 336/358/10 360/358/10 355/359/10
f 340/355/8 350/357/8 374/357/8 376/355/8
f 348/362/8 339/361/8 371/361/8 356/362/8
f 336/358/2 345/356/2 369/356/2 360/358/2
f 351/352/8 348/362/8 356/362/8 359/352/8
f 361/363/1 354/366/1 365/353/1 366/354/1
f 368/371/1 367/372/1 355/359/1 360/358/1
f 357/365/1 368/371/1 360/358/1 369/356/1
f 354/366/1 357/365/1 369/356/1 365/353/1
f 367/372/1 362/373/1 370/360/1 355/359/1
f 363/374/1 372/370/1 356/362/1 371/361/1
f 358/368/1 353/367/1 374/357/1 373/351/1
f 375/369/1 358/368/1 373/351/1 359/352/1
f 353/367/1 364/364/1 376/355/1 374/357/1
f 372/370/1 375/369/1 359/352/1 356/362/1
f 364/364/1 361/363/1 366/354/1 376/355/1
f 362/373/1 363/374/1 371/361/1 370/360/1
f 354/366/8 361/363/8 390/363/8 378/366/8
f 358/368/2 375/369/2 399/369/2 382/368/2
f 362/373/8 367/372/8 379/372/8 394/373/8
f 363/374/6 362/373/6 394/373/6 395/374/6
f 367/372/8 368/371/8 392/371/8 379/372/8
f 364/364/2 353/367/2 377/367/2 400/364/2
f 372/370/2 363/374/2 395/374/2 396/370/2
usemtl M_Noir_Profond
f 68/60/5 53/61/5 44/62/5 45/63/5
f 64/68/5 57/69/5 40/70/5 49/71/5
f 60/72/6 61/73/6 52/74/6 37/75/6
f 56/76/6 65/77/6 48/78/6 41/79/6
f 65/77/2 68/60/2 45/63/2 48/78/2
f 61/73/2 64/68/2 49/71/2 52/74/2
f 53/61/8 56/76/8 41/79/8 44/62/8
f 57/69/8 60/72/8 37/75/8 40/70/8
f 166/236/5 165/245/5 201/245/5 202/236/5
f 173/243/8 174/147/8 170/239/8 169/233/8
f 165/245/8 166/236/8 162/56/8 161/108/8
f 180/152/5 179/112/5 215/112/5 216/152/5
f 179/112/8 180/152/8 178/153/8 177/111/8
f 184/17/8 183/148/8 190/99/8 189/100/8 240/264/8 239/265/8 238/266/8 237/229/8 196/228/8 195/18/8
f 181/104/8 182/130/8 183/148/8 184/17/8
f 185/163/8 186/80/8 187/81/8 188/155/8
f 194/164/8 193/257/8 260/267/8 259/268/8 258/269/8 257/270/8 192/10/8 191/11/8 186/80/8 185/163/8
f 177/111/6 178/153/6 214/153/6 213/111/6
f 182/130/5 181/104/5 217/104/5 218/130/5
f 169/233/6 170/239/6 206/239/6 205/233/6
f 188/155/6 187/81/6 219/81/6 220/155/6
f 174/147/5 173/243/5 209/243/5 210/147/5
f 161/108/6 162/56/6 198/56/6 197/108/6
f 337/354/1 341/353/1 330/343/1 342/342/1
f 336/358/1 331/359/1 343/113/1 344/114/1
f 345/356/1 336/358/1 344/114/1 333/347/1
f 341/353/1 345/356/1 333/347/1 330/343/1
f 331/359/1 338/360/1 346/127/1 343/113/1
f 339/361/1 348/362/1 332/23/1 347/24/1
f 349/351/1 350/357/1 329/110/1 334/349/1
f 351/352/1 349/351/1 334/349/1 335/350/1
f 350/357/1 340/355/1 352/109/1 329/110/1
f 348/362/1 351/352/1 335/350/1 332/23/1
f 340/355/1 337/354/1 342/342/1 352/109/1
f 338/360/1 339/361/1 347/24/1 346/127/1
f 381/375/8 389/376/8 402/376/8 405/375/8
f 398/377/2 397/378/2 406/378/2 401/377/2
f 383/379/2 380/380/2 404/380/2 407/379/2
f 384/381/8 381/375/8 405/375/8 408/381/8
f 380/380/2 387/382/2 411/382/2 404/380/2
f 385/383/1 389/376/1 378/366/1 390/363/1
f 384/381/1 391/384/1 379/372/1 392/371/1
f 381/375/1 384/381/1 392/371/1 393/365/1
f 389/376/1 381/375/1 393/365/1 378/366/1
f 391/384/1 386/385/1 394/373/1 379/372/1
f 387/382/1 380/380/1 396/370/1 395/374/1
f 397/378/1 398/377/1 377/367/1 382/368/1
f 383/379/1 397/378/1 382/368/1 399/369/1
f 398/377/1 388/386/1 400/364/1 377/367/1
f 380/380/1 383/379/1 399/369/1 396/370/1
f 388/386/1 385/383/1 390/363/1 400/364/1
f 386/385/1 387/382/1 395/374/1 394/373/1
f 385/383/5 388/386/5 412/386/5 409/383/5
f 389/376/8 385/383/8 409/383/8 402/376/8
f 397/378/2 383/379/2 407/379/2 406/378/2
f 386/385/8 391/384/8 403/384/8 410/385/8
f 387/382/6 386/385/6 410/385/6 411/382/6
f 391/384/8 384/381/8 408/381/8 403/384/8
f 388/386/2 398/377/2 401/377/2 412/386/2
usemtl M_Cyan
f 403/384/1 404/380/1 411/382/1 410/385/1
f 409/383/1 412/386/1 401/377/1 402/376/1
f 402/376/1 401/377/1 406/378/1 405/375/1
f 408/381/1 407/379/1 404/380/1 403/384/1
f 405/375/1 406/378/1 407/379/1 408/381/1
usemtl M_Orange
f 93/17/1 130/18/1 461/18/1 465/17/1
f 155/128/5 95/129/5 431/129/5 432/128/5
f 228/133/11 236/134/11 464/134/11 451/133/11
f 16/4/6 98/3/6 430/3/6 425/4/6
f 96/148/13 155/149/13 432/149/13 463/148/13
f 249/174/16 248/175/16 453/175/16 475/174/16
f 236/134/5 126/100/5 455/100/5 464/134/5
f 154/225/28 97/80/28 467/80/28 429/225/28
f 125/99/4 96/148/4 463/148/4 456/99/4
f 129/228/5 233/229/5 472/229/5 462/228/5
f 98/3/6 154/209/6 429/209/6 430/3/6
f 130/18/29 129/228/29 462/228/29 461/18/29
f 233/229/30 225/230/30 470/230/30 472/229/30
f 152/207/31 93/17/31 465/17/31 427/207/31
f 245/231/32 252/232/32 454/232/32 474/231/32
f 132/257/33 131/164/33 460/164/33 459/257/33
f 248/258/34 256/259/34 466/259/34 453/258/34
f 128/11/3 127/10/3 458/10/3 457/11/3
f 95/129/5 13/178/5 421/178/5 431/129/5
f 126/100/7 125/99/7 456/99/7 455/100/7
f 221/261/35 229/262/35 471/262/35 469/261/35
f 127/10/6 253/263/6 476/263/6 458/10/6
f 94/158/5 152/207/5 427/207/5 428/158/5
f 158/213/6 99/136/6 433/136/6 434/213/6
f 253/263/36 245/274/36 474/274/36 476/263/36
f 232/278/1 224/282/1 422/282/1 452/278/1
f 229/262/39 228/281/39 451/281/39 471/262/39
f 413/387/70 438/388/70 431/389/70 421/178/70
f 450/390/71 419/391/71 420/177/71 447/392/71
f 442/393/72 415/394/72 416/395/72 439/396/72
f 423/159/73 428/397/73 447/398/73 420/177/73
f 425/4/74 430/399/74 439/400/74 416/395/74
f 414/401/75 435/402/75 438/403/75 413/387/75
f 417/226/76 446/404/76 433/405/76 426/135/76
f 469/261/77 471/262/77 435/406/77 414/407/77
f 473/294/78 475/174/78 443/408/78 418/409/78
f 446/410/79 417/226/79 418/409/79 443/411/79
f 436/412/80 437/413/80 438/403/80 435/402/80
f 440/414/81 441/415/81 442/393/81 439/396/81
f 444/416/82 445/417/82 446/410/82 443/411/82
f 448/418/83 449/419/83 450/390/83 447/392/83
f 437/420/84 432/128/84 431/389/84 438/388/84
f 451/281/85 436/421/85 435/406/85 471/262/85
f 447/398/86 428/397/86 427/422/86 448/423/86
f 453/175/87 444/424/87 443/408/87 475/174/87
f 429/209/88 440/425/88 439/400/88 430/399/88
f 433/405/89 446/404/89 445/426/89 434/427/89
f 455/100/90 456/99/90 437/428/90 436/429/90
f 457/11/91 458/10/91 441/430/91 440/431/91
f 459/257/92 460/164/92 445/426/92 444/432/92
f 461/18/93 462/228/93 449/433/93 448/423/93
f 456/99/94 463/148/94 432/149/94 437/428/94
f 464/134/95 455/100/95 436/429/95 451/133/95
f 465/17/96 461/18/96 448/423/96 427/422/96
f 466/259/97 459/257/97 444/432/97 453/258/97
f 467/80/98 457/11/98 440/431/98 429/225/98
f 460/164/99 468/163/99 434/427/99 445/426/99
f 462/228/100 472/229/100 470/230/100 449/433/100
f 449/434/101 470/275/101 452/278/101 450/435/101
f 419/391/102 450/435/102 452/278/102 422/282/102
f 458/10/103 476/263/103 474/274/103 441/430/103
f 441/436/104 474/231/104 454/232/104 442/437/104
f 415/394/105 442/437/105 454/232/105 424/291/105
f 252/232/106 244/291/106 424/291/106 454/232/106
f 225/275/107 232/278/107 452/278/107 470/275/107
f 256/259/6 132/257/6 459/257/6 466/259/6
f 99/136/6 15/135/6 426/135/6 433/136/6
f 97/80/4 128/11/4 457/11/4 467/80/4
f 100/163/108 158/213/108 434/213/108 468/163/108
f 14/159/5 94/158/5 428/158/5 423/159/5
f 131/164/1 100/163/1 468/163/1 460/164/1
f 241/294/1 249/174/1 475/174/1 473/294/1
