# Blender 4.2.3 LTS
# www.blender.org
mtllib SM_Door.mtl
o SM_Door
v -0.096185 0.012831 -0.840000
v -0.096185 0.012831 0.840000
v 0.096185 0.012831 0.840000
v 0.096185 0.012831 -0.840000
v 0.096185 1.738620 -0.840000
v 0.096185 1.738620 0.840000
v -0.096185 1.738620 0.840000
v -0.096185 1.738620 -0.840000
v -0.096185 1.754294 -0.855674
v 0.096185 1.754294 -0.855674
v 0.096185 1.754294 0.855674
v -0.096185 1.754294 0.855674
v 0.054631 0.054385 -0.862015
v -0.054631 0.054385 -0.862015
v 0.054631 0.054385 0.862015
v -0.054631 0.054385 0.862015
v 0.096185 0.012831 -0.862166
v -0.096185 0.012831 -0.862166
v 0.096185 0.012831 0.862166
v -0.096185 0.012831 0.862166
v 0.054631 1.754294 -0.855674
v 0.054631 1.754294 0.855674
v -0.054631 1.754294 0.855674
v -0.054631 1.754294 -0.855674
v -0.187217 -0.000068 1.200000
v -0.200000 -0.000068 1.187217
v -0.200000 -0.000068 -1.187217
v -0.187217 -0.000068 -1.200000
v 0.200000 -0.000068 1.187217
v 0.187217 -0.000068 1.200000
v 0.187217 -0.000068 -1.200000
v 0.200000 -0.000068 -1.187217
v -0.200000 2.055837 0.840000
v -0.187217 2.068620 0.840000
v -0.187217 2.068620 -0.840000
v -0.200000 2.055837 -0.840000
v 0.200000 2.055837 -0.840000
v 0.187217 2.068620 -0.840000
v 0.187217 2.068620 0.840000
v 0.200000 2.055837 0.840000
v -0.187217 1.738620 1.200000
v -0.200000 1.738620 1.187217
v -0.200000 1.738620 -1.187217
v -0.187217 1.738620 -1.200000
v 0.187217 1.738620 -1.200000
v 0.200000 1.738620 -1.187217
v 0.200000 1.738620 1.187217
v 0.187217 1.738620 1.200000
v 0.200000 1.751403 -0.852783
v 0.187217 1.738620 -0.840000
v 0.187217 1.738620 0.840000
v 0.200000 1.751403 0.852783
v -0.200000 1.751403 0.852783
v -0.187217 1.738620 0.840000
v -0.187217 1.738620 -0.840000
v -0.200000 1.751403 -0.852783
v 0.200000 -0.000068 -0.852783
v 0.187217 0.012716 -0.840000
v 0.187217 -0.000068 -0.840000
v -0.187217 0.012716 -0.840000
v -0.200000 -0.000068 -0.852783
v -0.187217 -0.000068 -0.840000
v 0.187217 0.012716 0.840000
v 0.200000 -0.000068 0.852783
v 0.187217 -0.000068 0.840000
v -0.200000 -0.000068 0.852783
v -0.187217 0.012716 0.840000
v -0.187217 -0.000068 0.840000
v -0.200000 1.987776 1.187217
v -0.187217 1.993071 1.200000
v -0.200000 2.055837 1.119155
v -0.187217 2.068620 1.124450
v -0.200000 2.055837 -1.119155
v -0.187217 2.068620 -1.124450
v -0.200000 1.987776 -1.187217
v -0.187217 1.993071 -1.200000
v 0.200000 2.055837 1.119155
v 0.187217 2.068620 1.124450
v 0.200000 1.987776 1.187217
v 0.187217 1.993071 1.200000
v 0.200000 1.987776 -1.187217
v 0.187217 1.993071 -1.200000
v 0.200000 2.055837 -1.119155
v 0.187217 2.068620 -1.124450
vn -0.0000 -0.0000 1.0000
vn 1.0000 -0.0000 -0.0000
vn -0.0000 1.0000 -0.0000
vn -1.0000 -0.0000 -0.0000
vn -0.0000 -0.0000 -1.0000
vn -0.0000 -1.0000 -0.0000
vn -0.0000 0.7071 0.7071
vn -0.0000 -0.0037 -1.0000
vn -0.0000 -0.0037 1.0000
vn -0.0000 -0.0036 1.0000
vn -0.0000 -0.0036 -1.0000
vn -0.0000 0.7071 -0.7071
vn 0.7071 -0.0000 0.7071
vn -0.7071 -0.0000 0.7071
vn 0.7071 -0.0000 -0.7071
vn -0.7071 -0.0000 -0.7071
vn -0.7071 0.7071 -0.0000
vn 0.7071 0.7071 -0.0000
vn -0.7071 -0.7071 -0.0000
vn 0.7071 -0.7071 -0.0000
vn -0.7071 0.5000 -0.5000
vn 0.7071 0.5000 -0.5000
vn 0.7071 0.5000 0.5000
vn -0.7071 0.5000 0.5000
vt 0.541667 0.757990
vt 0.605922 0.757990
vt 0.605922 0.992010
vt 0.541667 0.992010
vt 0.544895 0.582699
vt 0.621772 0.583333
vt 0.621772 0.666667
vt 0.544895 0.667301
vt 0.544895 0.669626
vt 0.621772 0.666667
vt 0.621772 0.731286
vt 0.604585 0.747041
vt 0.541667 0.747041
vt 0.632990 0.517488
vt 0.867010 0.517488
vt 0.867010 0.583333
vt 0.632990 0.583333
vt 0.375000 0.757990
vt 0.541667 0.757990
vt 0.541667 0.992010
vt 0.375000 0.992010
vt 0.544895 0.169626
vt 0.621772 0.166667
vt 0.621772 0.231286
vt 0.604585 0.247041
vt 0.541667 0.247041
vt 0.541667 0.475193
vt 0.384253 0.475193
vt 0.376139 0.570017
vt 0.541667 0.570017
vt 0.541667 0.002959
vt 0.604585 0.002959
vt 0.621772 0.018714
vt 0.621772 0.083333
vt 0.544895 0.080374
vt 0.375000 0.169626
vt 0.542806 0.169626
vt 0.375000 0.247041
vt 0.384253 0.234730
vt 0.541667 0.234730
vt 0.541667 0.502959
vt 0.604585 0.502959
vt 0.621772 0.518714
vt 0.621772 0.583333
vt 0.544895 0.580374
vt 0.541667 0.257990
vt 0.605922 0.257990
vt 0.605922 0.492010
vt 0.541667 0.492010
vt 0.632990 0.583333
vt 0.867010 0.666667
vt 0.632990 0.666667
vt 0.544895 0.082699
vt 0.621772 0.083333
vt 0.621772 0.166667
vt 0.544895 0.167301
vt 0.375000 0.257990
vt 0.541667 0.257990
vt 0.541667 0.492010
vt 0.375000 0.492010
vt 0.375000 0.502959
vt 0.542806 0.580374
vt 0.375000 0.580374
vt 0.125000 0.502959
vt 0.132990 0.500000
vt 0.367010 0.500000
vt 0.375000 0.502959
vt 0.375000 0.580374
vt 0.367010 0.583333
vt 0.132990 0.583333
vt 0.125000 0.580374
vt 0.375000 0.669626
vt 0.542806 0.669626
vt 0.375000 0.747041
vt 0.541667 0.274807
vt 0.384253 0.515270
vt 0.125000 0.669626
vt 0.132990 0.666667
vt 0.367010 0.666667
vt 0.375000 0.669626
vt 0.367010 0.750000
vt 0.132990 0.750000
vt 0.125000 0.747041
vt 0.376139 0.648024
vt 0.375000 0.648024
vt 0.375000 0.101976
vt 0.376139 0.101976
vt 0.625000 0.757990
vt 0.625000 0.992010
vt 0.605922 0.992010
vt 0.605922 0.757990
vt 0.541667 0.515270
vt 0.541667 0.570017
vt 0.541667 0.648024
vt 0.541667 0.101976
vt 0.541667 0.179983
vt 0.384253 0.274807
vt 0.376139 0.179983
vt 0.375000 0.179983
vt 0.375000 0.570017
vt 0.541667 0.648024
vt 0.376139 0.648024
vt 0.541667 0.295330
vt 0.541667 0.454670
vt 0.387924 0.454670
vt 0.387924 0.295330
vt 0.541667 0.318093
vt 0.541667 0.431907
vt 0.387924 0.318093
vt 0.387924 0.431907
vt 0.625000 0.257990
vt 0.625000 0.492010
vt 0.605922 0.492010
vt 0.605922 0.257990
vt 0.632990 0.666667
vt 0.867010 0.732512
vt 0.632990 0.732512
vt 0.375000 0.583333
vt 0.376139 0.166667
vt 0.375000 0.169626
vt 0.375000 0.166667
vt 0.375000 0.666667
vt 0.375570 0.657345
vt 0.375000 0.083333
vt 0.625000 0.083333
vt 0.625000 0.166667
vt 0.375000 0.000000
vt 0.541667 0.000000
vt 0.541667 0.002959
vt 0.375000 0.002959
vt 0.375000 0.080374
vt 0.542806 0.080374
vt 0.625000 0.232512
vt 0.605922 0.250000
vt 0.605922 0.500000
vt 0.625000 0.517488
vt 0.625000 0.732512
vt 0.605922 0.750000
vt 0.605922 0.000000
vt 0.625000 0.017488
vt 0.604585 1.000000
vt 0.541667 1.000000
s 0
usemtl Noir_Light
f 48/1/1 80/2/1 70/3/1 41/4/1
f 49/5/2 37/6/2 40/7/2 52/8/2
f 52/9/2 40/10/2 77/11/2 79/12/2 47/13/2
f 84/14/3 74/15/3 35/16/3 38/17/3
f 30/18/1 48/19/1 41/20/1 25/21/1
f 56/22/4 36/23/4 73/24/4 75/25/4 43/26/4
f 5/27/1 4/28/1 58/29/1 50/30/1
f 42/31/4 69/32/4 71/33/4 33/34/4 53/35/4
f 61/36/4 56/37/4 43/26/4 27/38/4
f 2/39/2 7/40/2 12/40/2 20/39/2
f 46/41/2 81/42/2 83/43/2 37/44/2 49/45/2
f 44/46/5 76/47/5 82/48/5 45/49/5
f 38/50/3 35/16/3 34/51/3 39/52/3
f 53/53/4 33/54/4 36/55/4 56/56/4
f 28/57/5 44/58/5 45/59/5 31/60/5
f 32/61/2 46/41/2 49/62/2 57/63/2
f 27/64/6 28/65/6 31/66/6 32/67/6 57/68/6 59/69/6 62/70/6 61/71/6
f 64/72/2 52/73/2 47/13/2 29/74/2
f 7/40/2 8/75/2 9/75/2 12/40/2
f 3/76/3 2/39/3 20/39/3 19/76/3
f 66/77/6 68/78/6 65/79/6 64/80/6 29/74/6 30/81/6 25/82/6 26/83/6
f 2/39/5 3/76/5 63/84/5 65/85/5 68/86/5 67/87/5
f 78/88/7 72/89/7 70/90/7 80/91/7
f 6/92/6 5/27/6 50/93/6 51/94/6
f 7/40/5 2/39/5 67/87/5 54/95/5
f 8/75/6 7/40/6 54/95/6 55/96/6
f 4/28/1 1/97/1 60/98/1 62/99/1 59/100/1 58/29/1
f 1/97/1 8/75/1 55/96/1 60/98/1
f 3/76/5 6/92/5 51/101/5 63/102/5
f 4/28/4 5/27/4 10/27/4 17/28/4
f 1/97/3 4/28/3 17/28/3 18/97/3
f 5/27/4 6/92/4 11/92/4 10/27/4
f 8/75/2 1/97/2 18/97/2 9/75/2
f 6/92/4 3/76/4 19/76/4 11/92/4
f 74/111/12 84/112/12 82/113/12 76/114/12
f 39/115/3 34/51/3 72/116/3 78/117/3
f 57/118/13 58/29/13 59/100/13
f 60/119/14 61/120/14 62/121/14
f 63/102/15 64/122/15 65/123/15
f 66/124/16 67/87/16 68/86/16
f 34/125/17 35/126/17 36/55/17 33/54/17
f 38/50/18 39/52/18 40/7/18 37/6/18
f 25/127/14 41/128/14 42/129/14 26/130/14
f 44/58/16 28/57/16 27/38/16 43/26/16
f 46/41/15 32/61/15 31/60/15 45/59/15
f 48/19/13 30/18/13 29/74/13 47/13/13
f 50/30/13 58/29/13 57/63/13 49/62/13
f 52/73/15 64/72/15 63/102/15 51/101/15
f 54/95/16 67/87/16 66/131/16 53/132/16
f 56/37/14 61/36/14 60/98/14 55/96/14
f 53/53/19 56/56/19 55/96/19 54/95/19
f 49/5/20 52/8/20 51/94/20 50/93/20
f 75/25/21 73/24/21 74/133/21 76/134/21
f 83/43/22 81/42/22 82/135/22 84/136/22
f 79/12/23 77/11/23 78/137/23 80/138/23
f 71/33/24 69/32/24 70/139/24 72/140/24
f 41/4/14 70/3/14 69/141/14 42/142/14
f 72/140/17 34/125/17 33/34/17 71/33/17
f 47/13/13 79/12/13 80/2/13 48/1/13
f 77/11/18 40/10/18 39/115/18 78/117/18
f 37/44/18 83/43/18 84/14/18 38/17/18
f 73/24/17 36/23/17 35/126/17 74/133/17
f 43/26/16 75/25/16 76/47/16 44/46/16
f 81/42/15 46/41/15 45/49/15 82/48/15
f 26/130/4 42/129/4 53/132/4 66/131/4
usemtl Noir_Profond
f 13/110/10 14/109/10 18/97/10 17/28/10
f 16/106/11 15/105/11 19/76/11 20/39/11
f 21/108/9 13/110/9 17/28/9 10/27/9
f 15/105/8 22/104/8 11/92/8 19/76/8
f 23/103/8 16/106/8 20/39/8 12/40/8
f 14/109/9 24/107/9 9/75/9 18/97/9
f 24/107/6 23/103/6 12/40/6 9/75/6
f 22/104/6 21/108/6 10/27/6 11/92/6
usemtl Bleu_Neon
f 23/103/8 22/104/8 15/105/8 16/106/8
f 24/107/6 21/108/6 22/104/6 23/103/6
f 24/107/9 14/109/9 13/110/9 21/108/9
