# Blender 4.2.3 LTS
# www.blender.org
mtllib SM_Sol_Simple.mtl
o SM_Sol_Simple
v 0.326667 0.029885 -0.326667
v 0.326667 0.029885 0.326667
v -0.326667 0.029885 -0.326667
v -0.326667 0.029885 0.326667
v -0.326667 -0.029885 -0.326667
v -0.326667 -0.029885 0.326667
v 0.326667 -0.029885 -0.326667
v 0.326667 -0.029885 0.326667
v -0.315778 -0.025000 -0.326667
v -0.315778 -0.025000 0.326667
v 0.315778 -0.025000 -0.326667
v 0.315778 -0.025000 0.326667
v 0.315778 0.025000 -0.326667
v 0.315778 0.025000 0.326667
v -0.315778 0.025000 -0.326667
v -0.315778 0.025000 0.326667
v 0.326667 0.025000 -0.315778
v 0.326667 0.025000 0.315778
v -0.326667 0.025000 -0.315778
v -0.326667 0.025000 0.315778
v -0.326667 -0.025000 -0.315778
v -0.326667 -0.025000 0.315778
v 0.326667 -0.025000 -0.315778
v 0.326667 -0.025000 0.315778
v -0.295731 -0.015128 -0.295731
v -0.295731 -0.015128 0.295731
v 0.295731 -0.015128 -0.295731
v 0.295731 -0.015128 0.295731
v 0.295731 0.015128 -0.295731
v 0.295731 0.015128 0.295731
v -0.295731 0.015128 -0.295731
v -0.295731 0.015128 0.295731
v 0.326667 -0.023213 -0.500000
v 0.326667 -0.029885 -0.493768
v -0.326667 -0.029885 -0.493768
v -0.326667 -0.023213 -0.500000
v -0.326667 0.023213 -0.500000
v -0.326667 0.029885 -0.493768
v 0.326667 0.029885 -0.493768
v 0.326667 0.023213 -0.500000
v -0.326667 -0.023213 0.500000
v -0.326667 -0.029885 0.493768
v 0.326667 -0.029885 0.493768
v 0.326667 -0.023213 0.500000
v 0.326667 0.023213 0.500000
v 0.326667 0.029885 0.493768
v -0.326667 0.029885 0.493768
v -0.326667 0.023213 0.500000
v 0.306116 -0.024999 -0.478238
v 0.305876 -0.019418 -0.484322
v -0.305876 -0.019418 -0.484322
v -0.306116 -0.024999 -0.478238
v -0.306116 0.024999 -0.478238
v -0.305876 0.019418 -0.484322
v 0.305876 0.019418 -0.484322
v 0.306116 0.024999 -0.478238
v -0.306116 -0.024999 0.478238
v -0.305876 -0.019418 0.484322
v 0.305876 -0.019418 0.484322
v 0.306116 -0.024999 0.478238
v 0.306116 0.024999 0.478238
v 0.305876 0.019418 0.484322
v -0.305876 0.019418 0.484322
v -0.306116 0.024999 0.478238
v -0.500000 -0.023213 -0.326667
v -0.493768 -0.029885 -0.326667
v -0.493768 -0.029885 0.326667
v -0.500000 -0.023213 0.326667
v -0.500000 0.023213 0.326667
v -0.493768 0.029885 0.326667
v -0.493768 0.029885 -0.326667
v -0.500000 0.023213 -0.326667
v 0.500000 -0.023213 0.326667
v 0.493768 -0.029885 0.326667
v 0.493768 -0.029885 -0.326667
v 0.500000 -0.023213 -0.326667
v 0.500000 0.023213 -0.326667
v 0.493768 0.029885 -0.326667
v 0.493768 0.029885 0.326667
v 0.500000 0.023213 0.326667
v -0.478238 -0.024999 -0.306116
v -0.484322 -0.019418 -0.305876
v -0.484322 -0.019418 0.305876
v -0.478238 -0.024999 0.306116
v -0.478238 0.024999 0.306116
v -0.484322 0.019418 0.305876
v -0.484322 0.019418 -0.305876
v -0.478238 0.024999 -0.306116
v 0.478238 -0.024999 0.306116
v 0.484322 -0.019418 0.305876
v 0.484322 -0.019418 -0.305876
v 0.478238 -0.024999 -0.306116
v 0.478238 0.024999 -0.306116
v 0.484322 0.019418 -0.305876
v 0.484322 0.019418 0.305876
v 0.478238 0.024999 0.306116
v -0.475613 -0.029885 0.493793
v -0.477299 -0.023213 0.500000
v -0.493793 -0.029885 0.475613
v -0.500000 -0.023213 0.477299
v -0.493793 0.029885 0.475613
v -0.500000 0.023213 0.477299
v -0.475613 0.029885 0.493793
v -0.477299 0.023213 0.500000
v -0.493793 -0.029885 -0.475613
v -0.500000 -0.023213 -0.477299
v -0.475613 -0.029885 -0.493793
v -0.477299 -0.023213 -0.500000
v -0.475613 0.029885 -0.493793
v -0.477299 0.023213 -0.500000
v -0.493793 0.029885 -0.475613
v -0.500000 0.023213 -0.477299
v 0.493793 -0.029885 0.475613
v 0.500000 -0.023213 0.477299
v 0.475613 -0.029885 0.493793
v 0.477299 -0.023213 0.500000
v 0.475613 0.029885 0.493793
v 0.477299 0.023213 0.500000
v 0.493793 0.029885 0.475613
v 0.500000 0.023213 0.477299
v 0.475613 -0.029885 -0.493793
v 0.477299 -0.023213 -0.500000
v 0.493793 -0.029885 -0.475613
v 0.500000 -0.023213 -0.477299
v 0.493793 0.029885 -0.475613
v 0.500000 0.023213 -0.477299
v 0.475613 0.029885 -0.493793
v 0.477299 0.023213 -0.500000
v -0.315778 -0.015128 -0.315778
v -0.315778 -0.015128 0.315778
v 0.315778 -0.015128 -0.315778
v 0.315778 -0.015128 0.315778
v 0.315778 0.015128 -0.315778
v 0.315778 0.015128 0.315778
v -0.315778 0.015128 -0.315778
v -0.315778 0.015128 0.315778
v -0.282893 -0.025000 -0.282893
v -0.282893 -0.025000 0.282893
v 0.282893 -0.025000 -0.282893
v 0.282893 -0.025000 0.282893
v 0.282892 0.025000 -0.282892
v 0.282892 0.025000 0.282892
v -0.282892 0.025000 -0.282892
v -0.282892 0.025000 0.282892
vn -0.2928 0.9561 0.0089
vn 0.2928 -0.9561 -0.0089
vn 0.2928 0.9561 -0.0089
vn -0.6021 -0.0000 0.7984
vn 0.7984 -0.0000 -0.6021
vn 0.2928 0.9561 0.0089
vn -0.0089 0.9561 0.2928
vn -0.0000 1.0000 -0.0000
vn -0.0000 -1.0000 -0.0000
vn -0.2928 0.9561 -0.0089
vn -0.0000 -0.0000 -1.0000
vn -0.2928 -0.9561 0.0089
vn -0.0000 -0.0000 1.0000
vn 0.0089 -0.9561 0.2928
vn -0.0000 0.7408 -0.6717
vn -0.4892 0.7220 -0.4892
vn -0.0000 -0.7408 -0.6717
vn 0.6021 -0.0000 -0.7984
vn 0.4892 -0.7220 -0.4892
vn -0.4892 -0.7220 -0.4892
vn -0.7984 -0.0000 0.6021
vn 0.0089 0.9561 -0.2928
vn 0.4892 0.7220 -0.4892
vn -0.2928 -0.9561 -0.0089
vn 0.0089 0.9561 0.2928
vn -0.6021 -0.0000 -0.7984
vn 1.0000 -0.0000 -0.0000
vn 0.2928 -0.9561 0.0089
vn -0.0089 -0.9561 0.2928
vn 0.6021 -0.0000 0.7984
vn -0.7984 -0.0000 -0.6021
vn -1.0000 -0.0000 -0.0000
vn 0.7984 -0.0000 0.6021
vn -0.0089 -0.9561 -0.2928
vn -0.0089 0.9561 -0.2928
vn -0.7071 -0.0000 0.7071
vn 0.4892 0.7220 0.4892
vn 0.6717 0.7408 -0.0000
vn -0.4892 -0.7220 0.4892
vn -0.6717 -0.7408 -0.0000
vn 0.4892 -0.7220 0.4892
vn 0.6717 -0.7408 -0.0000
vn -0.0000 -0.7408 0.6717
vn -0.0000 -0.7927 -0.6096
vn -0.4892 0.7220 0.4892
vn -0.6717 0.7408 -0.0000
vn -0.0000 0.7408 0.6717
vn -0.0000 0.7927 -0.6096
vn -0.7071 -0.0000 -0.7071
vn 0.7071 -0.0000 0.7071
vn 0.7071 -0.0000 -0.7071
vn 0.0089 -0.9561 -0.2928
vn 0.5610 -0.5923 -0.5783
vn -0.5610 0.5923 -0.5783
vn -0.5610 -0.5923 0.5783
vn 0.5610 0.5923 0.5783
vn -0.5610 -0.5923 -0.5783
vn -0.0000 -0.7369 -0.6760
vn 0.5610 0.5923 -0.5783
vn -0.0000 0.7369 -0.6760
vn 0.5610 -0.5923 0.5783
vn -0.0000 -0.7369 0.6760
vn -0.5610 0.5923 0.5783
vn -0.0000 0.7369 0.6760
vn -0.5783 -0.5923 -0.5610
vn -0.5783 0.5923 0.5610
vn 0.5783 -0.5923 0.5610
vn 0.5783 0.5923 -0.5610
vn -0.5783 -0.5923 0.5610
vn -0.6760 -0.7369 -0.0000
vn -0.5783 0.5923 -0.5610
vn -0.6760 0.7369 -0.0000
vn 0.5783 -0.5923 -0.5610
vn 0.6760 -0.7369 -0.0000
vn 0.5783 0.5923 0.5610
vn 0.6760 0.7369 -0.0000
vn -0.5424 -0.6416 0.5424
vn -0.5424 0.6416 0.5424
vn -0.5424 0.6416 -0.5424
vn -0.5424 -0.6416 -0.5424
vn 0.5424 0.6416 -0.5424
vn 0.5424 -0.6416 -0.5424
vn 0.5424 0.6416 0.5424
vn 0.5424 -0.6416 0.5424
vn -0.7314 -0.6819 -0.0001
vn -0.7314 0.6819 -0.0001
vn 0.0001 -0.6819 0.7314
vn 0.0001 0.6819 0.7314
vn 0.0001 -0.6819 -0.7314
vn 0.0001 0.6819 -0.7314
vn -0.7314 -0.6819 0.0001
vn -0.7314 0.6819 0.0001
vn -0.0001 -0.6819 0.7314
vn -0.0001 0.6819 0.7314
vn 0.7314 -0.6819 -0.0001
vn 0.7314 0.6819 -0.0001
vn 0.7314 -0.6819 0.0001
vn 0.7314 0.6819 0.0001
vn -0.0001 -0.6819 -0.7314
vn -0.0001 0.6819 -0.7314
vn 0.6096 0.7927 -0.0000
vn -0.6096 -0.7927 -0.0000
vn -0.0000 0.7927 0.6096
vn -0.0000 -0.7927 0.6096
vn -0.6096 0.7927 -0.0000
vn 0.6096 -0.7927 -0.0000
vt 0.708333 0.501948
vt 0.736111 0.502020
vt 0.736111 0.583333
vt 0.708333 0.583333
vt 0.208333 0.666667
vt 0.236111 0.666667
vt 0.236111 0.747980
vt 0.208333 0.748052
vt 0.763889 0.666667
vt 0.791667 0.666667
vt 0.791667 0.748052
vt 0.763889 0.747980
vt 0.402905 0.833333
vt 0.597095 0.833333
vt 0.597094 0.861111
vt 0.402906 0.861111
vt 0.402906 0.638889
vt 0.597094 0.638889
vt 0.597095 0.666667
vt 0.402905 0.666667
vt 0.763889 0.502020
vt 0.791667 0.501948
vt 0.791667 0.583333
vt 0.763889 0.583333
vt 0.626948 0.583333
vt 0.708333 0.611111
vt 0.627020 0.611111
vt 0.873052 0.666667
vt 0.873060 0.742379
vt 0.867379 0.748060
vt 0.236111 0.502020
vt 0.263889 0.502020
vt 0.263889 0.583333
vt 0.236111 0.583333
vt 0.291667 0.666667
vt 0.373052 0.666667
vt 0.373060 0.742379
vt 0.367379 0.748060
vt 0.291667 0.748052
vt 0.708333 0.666667
vt 0.736111 0.666667
vt 0.736111 0.747980
vt 0.708333 0.748052
vt 0.126948 0.666667
vt 0.132621 0.748060
vt 0.126940 0.742379
vt 0.402905 0.257094
vt 0.597095 0.257094
vt 0.597095 0.333333
vt 0.402905 0.333333
vt 0.263889 0.502020
vt 0.291667 0.501948
vt 0.291667 0.583333
vt 0.126940 0.507621
vt 0.132621 0.501940
vt 0.208333 0.501948
vt 0.208333 0.583333
vt 0.126948 0.583333
vt 0.736111 0.502020
vt 0.763889 0.502020
vt 0.402905 0.757094
vt 0.597095 0.757094
vt 0.597095 0.833333
vt 0.402905 0.833333
vt 0.763889 0.747980
vt 0.736111 0.747980
vt 0.402905 0.916667
vt 0.597095 0.916667
vt 0.597095 0.992906
vt 0.402905 0.992906
vt 0.597094 0.888889
vt 0.402906 0.888889
vt 0.626948 0.666667
vt 0.708333 0.748052
vt 0.632621 0.748060
vt 0.626940 0.742379
vt 0.126948 0.583333
vt 0.208333 0.611111
vt 0.127020 0.611111
vt 0.263889 0.666667
vt 0.263889 0.747980
vt 0.236111 0.747980
vt 0.736111 0.638889
vt 0.763889 0.638889
vt 0.626940 0.507621
vt 0.632621 0.501940
vt 0.708333 0.501948
vt 0.626948 0.583333
vt 0.708333 0.638889
vt 0.402906 0.361111
vt 0.597094 0.361111
vt 0.597094 0.388889
vt 0.402906 0.388889
vt 0.236111 0.638889
vt 0.263889 0.638889
vt 0.402905 0.333333
vt 0.208333 0.638889
vt 0.291667 0.501948
vt 0.367379 0.501940
vt 0.373060 0.507621
vt 0.373052 0.583333
vt 0.291667 0.638889
vt 0.402906 0.138889
vt 0.597094 0.138889
vt 0.597095 0.166667
vt 0.402905 0.166667
vt 0.791667 0.638889
vt 0.872980 0.638889
vt 0.791667 0.501948
vt 0.867379 0.501940
vt 0.873060 0.507621
vt 0.873052 0.583333
vt 0.127020 0.638889
vt 0.291667 0.748052
vt 0.263889 0.747980
vt 0.873052 0.583333
vt 0.872980 0.611111
vt 0.791667 0.611111
vt 0.597095 0.416667
vt 0.402905 0.416667
vt 0.402905 0.666667
vt 0.597095 0.742906
vt 0.402905 0.742906
vt 0.208333 0.501948
vt 0.236111 0.502020
vt 0.373052 0.583333
vt 0.372980 0.611111
vt 0.291667 0.611111
vt 0.402905 0.916667
vt 0.402905 0.083333
vt 0.597095 0.083333
vt 0.597094 0.111111
vt 0.402906 0.111111
vt 0.402905 0.007094
vt 0.597095 0.007094
vt 0.402905 0.083333
vt 0.402905 0.507094
vt 0.597095 0.507094
vt 0.597095 0.583333
vt 0.402905 0.583333
vt 0.627020 0.611111
vt 0.627020 0.638889
vt 0.402905 0.583333
vt 0.597095 0.583333
vt 0.597094 0.611111
vt 0.402906 0.611111
vt 0.372980 0.638889
vt 0.627020 0.638889
vt 0.626948 0.666667
vt 0.402905 0.000000
vt 0.597095 0.000000
vt 0.402905 0.007094
vt 0.763889 0.611111
vt 0.402905 0.166667
vt 0.597095 0.242906
vt 0.402905 0.242906
vt 0.263889 0.611111
vt 0.236111 0.611111
vt 0.236993 0.611993
vt 0.263007 0.611993
vt 0.736111 0.611111
vt 0.736993 0.611993
vt 0.763007 0.611993
vt 0.402905 0.257094
vt 0.402905 0.242906
vt 0.597095 0.242906
vt 0.597095 0.757094
vt 0.402905 0.757094
vt 0.402905 0.742906
vt 0.597095 0.742906
vt 0.402905 0.507094
vt 0.402905 0.492906
vt 0.597095 0.492906
vt 0.208333 0.500000
vt 0.236111 0.500000
vt 0.625000 0.388889
vt 0.625000 0.410846
vt 0.291667 0.750000
vt 0.263889 0.750000
vt 0.625000 0.888889
vt 0.625000 0.910846
vt 0.263889 0.500000
vt 0.291666 0.500000
vt 0.625000 0.339154
vt 0.625000 0.361111
vt 0.236111 0.750000
vt 0.208333 0.750000
vt 0.625000 0.839154
vt 0.625000 0.861111
vt 0.125000 0.666667
vt 0.125000 0.638889
vt 0.625000 0.138889
vt 0.625000 0.160846
vt 0.125000 0.611111
vt 0.125000 0.583333
vt 0.625000 0.089154
vt 0.625000 0.111111
vt 0.132094 0.750000
vt 0.125000 0.742906
vt 0.625000 0.000707
vt 0.625000 0.006388
vt 0.625000 0.244319
vt 0.625000 0.255681
vt 0.125000 0.507094
vt 0.132094 0.500000
vt 0.625000 0.494319
vt 0.625000 0.505681
vt 0.367906 0.500000
vt 0.375000 0.507094
vt 0.625000 0.744319
vt 0.625000 0.755681
vt 0.375000 0.742906
vt 0.367906 0.750000
vt 0.625000 0.007621
vt 0.625000 0.083333
vt 0.625000 0.916667
vt 0.625000 0.992379
vt 0.208333 0.500000
vt 0.625000 0.257621
vt 0.625000 0.333333
vt 0.125000 0.583333
vt 0.625000 0.166667
vt 0.625000 0.242379
vt 0.291667 0.750000
vt 0.625000 0.757621
vt 0.625000 0.833333
vt 0.291667 0.500000
vt 0.625000 0.416667
vt 0.625000 0.492379
vt 0.597095 0.492906
vt 0.597095 0.416667
vt 0.402905 0.416667
vt 0.402905 0.492906
vt 0.236993 0.638007
vt 0.263007 0.638007
vt 0.736993 0.638007
vt 0.763007 0.638007
s 0
usemtl Noir_Light
f 39/1/1 56/2/1 13/3/1 1/4/1
f 6/5/2 10/6/2 57/7/2 42/8/2
f 16/9/3 4/10/3 47/11/3 64/12/3
f 44/13/4 45/14/4 62/15/4 59/16/4
f 90/17/5 95/18/5 80/19/5 73/20/5
f 53/21/6 38/22/6 3/23/6 15/24/6
f 78/25/7 1/4/7 17/26/7 93/27/7
f 4/10/8 70/28/8 101/29/8 103/30/8 47/11/8
f 52/31/9 49/32/9 11/33/9 9/34/9
f 8/35/9 74/36/9 113/37/9 115/38/9 43/39/9
f 2/40/10 14/41/10 61/42/10 46/43/10
f 67/44/9 6/5/9 42/8/9 97/45/9 99/46/9
f 108/47/11 110/48/11 37/49/11 36/50/11
f 49/51/12 34/52/12 7/53/12 11/33/12
f 105/54/9 107/55/9 35/56/9 5/57/9 66/58/9
f 56/59/8 53/60/8 15/24/8 13/3/8
f 116/61/13 118/62/13 45/63/13 44/64/13
f 14/41/8 16/9/8 64/65/8 61/66/8
f 41/67/13 48/68/13 104/69/13 98/70/13
f 59/16/13 62/15/13 63/71/13 58/72/13
f 79/73/8 2/40/8 46/74/8 117/75/8 119/76/8
f 66/77/14 5/57/14 21/78/14 81/79/14
f 10/6/9 12/80/9 60/81/9 57/82/9
f 134/83/15 136/84/15 16/9/15 14/41/15
f 125/85/8 127/86/8 39/87/8 1/4/8 78/88/8
f 18/89/16 134/83/16 14/41/16 2/40/16
f 51/90/11 54/91/11 55/92/11 50/93/11
f 130/94/17 132/95/17 12/80/17 10/6/17
f 36/96/18 37/49/18 54/91/18 51/90/18
f 22/97/19 130/94/19 10/6/19 6/5/19
f 34/98/9 121/99/9 123/100/9 75/101/9 7/53/9
f 132/95/20 24/102/20 8/35/20 12/80/20
f 82/103/21 87/104/21 72/105/21 65/106/21
f 20/107/22 85/108/22 70/28/22 4/10/22
f 38/109/8 109/110/8 111/111/8 71/112/8 3/23/8
f 136/84/23 20/107/23 4/10/23 16/9/23
f 81/79/9 21/78/9 22/97/9 84/113/9
f 12/80/24 8/35/24 43/114/24 60/115/24
f 3/23/25 71/116/25 88/117/25 19/118/25
f 50/93/26 55/92/26 40/119/26 33/120/26
f 73/121/27 80/19/27 120/122/27 114/123/27
f 35/124/28 52/125/28 9/34/28 5/57/28
f 7/53/29 75/126/29 92/127/29 23/128/29
f 58/72/30 63/71/30 48/68/30 41/129/30
f 68/130/31 69/131/31 86/132/31 83/133/31
f 100/134/32 102/135/32 69/131/32 68/136/32
f 19/118/8 88/117/8 85/108/8 20/107/8
f 124/137/27 126/138/27 77/139/27 76/140/27
f 93/141/8 17/26/8 18/89/8 96/142/8
f 76/143/33 77/144/33 94/145/33 91/146/33
f 91/146/27 94/145/27 95/18/27 90/17/27
f 24/102/34 89/147/34 74/36/34 8/35/34
f 23/128/9 92/127/9 89/147/9 24/102/9
f 96/148/35 18/89/35 2/40/35 79/149/35
f 98/150/36 104/151/36 102/135/36 100/152/36
f 15/24/37 3/23/37 19/118/37 135/153/37
f 135/153/38 19/118/38 20/107/38 136/84/38
f 65/154/32 72/105/32 112/155/32 106/156/32
f 83/133/32 86/132/32 87/104/32 82/103/32
f 11/33/39 7/53/39 23/128/39 131/157/39
f 131/157/40 23/128/40 24/102/40 132/95/40
f 5/57/41 9/34/41 129/158/41 21/78/41
f 21/78/42 129/158/42 130/94/42 22/97/42
f 9/34/43 11/33/43 131/157/43 129/158/43
f 25/159/44 27/160/44 139/160/44 137/159/44
f 1/4/45 13/3/45 133/161/45 17/26/45
f 17/26/46 133/161/46 134/83/46 18/89/46
f 13/3/47 15/24/47 135/153/47 133/161/47
f 29/162/48 31/163/48 143/163/48 141/162/48
f 110/48/49 108/164/49 106/165/49 112/166/49
f 118/167/50 116/168/50 114/169/50 120/170/50
f 126/138/51 124/171/51 122/172/51 128/173/51
f 84/113/52 22/97/52 6/5/52 67/44/52
f 52/125/53 35/124/53 36/174/53 51/175/53
f 56/176/54 39/177/54 40/119/54 55/92/54
f 60/115/55 43/114/55 44/178/55 59/179/55
f 64/180/56 47/181/56 48/68/56 63/71/56
f 34/52/57 49/51/57 50/182/57 33/183/57
f 49/32/58 52/31/58 51/175/58 50/182/58
f 38/184/59 53/185/59 54/91/59 37/49/59
f 53/185/60 56/176/60 55/92/60 54/91/60
f 42/8/61 57/7/61 58/186/61 41/187/61
f 57/82/62 60/81/62 59/179/62 58/186/62
f 46/188/63 61/189/63 62/15/63 45/14/63
f 61/189/64 64/180/64 63/71/64 62/15/64
f 84/113/65 67/44/65 68/190/65 83/191/65
f 88/192/66 71/193/66 72/105/66 87/104/66
f 92/127/67 75/126/67 76/143/67 91/146/67
f 96/148/68 79/149/68 80/19/68 95/18/68
f 66/77/69 81/79/69 82/194/69 65/195/69
f 81/79/70 84/113/70 83/191/70 82/194/70
f 70/196/71 85/197/71 86/132/71 69/131/71
f 85/197/72 88/192/72 87/104/72 86/132/72
f 74/36/73 89/147/73 90/17/73 73/20/73
f 89/147/74 92/127/74 91/146/74 90/17/74
f 78/25/75 93/27/75 94/145/75 77/144/75
f 93/141/76 96/142/76 95/18/76 94/145/76
f 99/46/77 97/45/77 98/198/77 100/199/77
f 103/200/78 101/201/78 102/135/78 104/151/78
f 111/202/79 109/203/79 110/48/79 112/166/79
f 107/55/80 105/54/80 106/204/80 108/205/80
f 127/206/81 125/207/81 126/138/81 128/173/81
f 123/100/82 121/99/82 122/208/82 124/209/82
f 119/210/83 117/211/83 118/167/83 120/170/83
f 115/38/84 113/37/84 114/212/84 116/213/84
f 67/44/85 99/46/85 100/199/85 68/190/85
f 101/214/86 70/215/86 69/131/86 102/135/86
f 97/45/87 42/8/87 41/187/87 98/198/87
f 47/216/88 103/217/88 104/69/88 48/68/88
f 35/56/89 107/55/89 108/205/89 36/218/89
f 109/219/90 38/220/90 37/49/90 110/48/90
f 65/221/91 106/204/91 105/54/91 66/58/91
f 71/222/92 111/223/92 112/155/92 72/105/92
f 43/39/93 115/38/93 116/213/93 44/224/93
f 117/225/94 46/226/94 45/63/94 118/62/94
f 73/121/95 114/123/95 113/37/95 74/36/95
f 79/73/96 119/76/96 120/122/96 80/19/96
f 75/101/97 123/100/97 124/137/97 76/140/97
f 125/85/98 78/88/98 77/139/98 126/138/98
f 33/227/99 122/208/99 121/99/99 34/98/99
f 39/228/100 127/229/100 128/230/100 40/231/100
f 33/232/11 40/231/11 128/230/11 122/233/11
f 137/159/9 139/160/9 140/235/9 138/234/9
f 141/162/8 143/163/8 144/237/8 142/236/8
f 30/236/101 29/162/101 141/162/101 142/236/101
f 26/234/102 25/159/102 137/159/102 138/234/102
f 32/237/103 30/236/103 142/236/103 144/237/103
f 28/235/104 26/234/104 138/234/104 140/235/104
f 31/163/105 32/237/105 144/237/105 143/163/105
f 27/160/106 28/235/106 140/235/106 139/160/106
usemtl Noir_Profond
f 25/159/9 26/234/9 130/94/9 129/158/9
f 28/235/9 27/160/9 131/157/9 132/95/9
f 29/162/8 30/236/8 134/83/8 133/161/8
f 32/237/8 31/163/8 135/153/8 136/84/8
f 27/160/9 25/159/9 129/158/9 131/157/9
f 26/234/9 28/235/9 132/95/9 130/94/9
f 31/163/8 29/162/8 133/161/8 135/153/8
f 30/236/8 32/237/8 136/84/8 134/83/8
