# Blender 4.2.3 LTS
# www.blender.org
mtllib SM_Sol_Grille.mtl
o SM_Sol_Grille.001
v 0.326667 0.029885 -0.326667
v 0.326667 0.029885 0.326667
v -0.326667 0.029885 -0.326667
v -0.326667 0.029885 0.326667
v -0.326667 -0.029885 -0.326667
v -0.326667 -0.029885 0.326667
v 0.326667 -0.029885 -0.326667
v 0.326667 -0.029885 0.326667
v -0.315778 -0.025000 -0.326667
v -0.315778 -0.025000 0.326667
v 0.315778 -0.025000 -0.326667
v 0.315778 -0.025000 0.326667
v 0.315778 0.025000 -0.326667
v 0.315778 0.025000 0.326667
v -0.315778 0.025000 -0.326667
v -0.315778 0.025000 0.326667
v 0.326667 0.025000 -0.315778
v 0.326667 0.025000 0.315778
v -0.326667 0.025000 -0.315778
v -0.326667 0.025000 0.315778
v -0.326667 -0.025000 -0.315778
v -0.326667 -0.025000 0.315778
v 0.326667 -0.025000 -0.315778
v 0.326667 -0.025000 0.315778
v -0.295731 -0.015128 -0.295731
v -0.295731 -0.015128 0.295731
v 0.295731 -0.015128 -0.295731
v 0.295731 -0.015128 0.295731
v 0.295731 0.015128 -0.295731
v 0.295731 0.015128 0.295731
v -0.295731 0.015128 -0.295731
v -0.295731 0.015128 0.295731
v 0.326667 -0.023213 -0.500000
v 0.326667 -0.029885 -0.493768
v -0.326667 -0.029885 -0.493768
v -0.326667 -0.023213 -0.500000
v -0.326667 0.023213 -0.500000
v -0.326667 0.029885 -0.493768
v 0.326667 0.029885 -0.493768
v 0.326667 0.023213 -0.500000
v -0.326667 -0.023213 0.500000
v -0.326667 -0.029885 0.493768
v 0.326667 -0.029885 0.493768
v 0.326667 -0.023213 0.500000
v 0.326667 0.023213 0.500000
v 0.326667 0.029885 0.493768
v -0.326667 0.029885 0.493768
v -0.326667 0.023213 0.500000
v 0.306116 -0.024999 -0.478238
v 0.305876 -0.019418 -0.484322
v -0.305876 -0.019418 -0.484322
v -0.306116 -0.024999 -0.478238
v -0.306116 0.024999 -0.478238
v -0.305876 0.019418 -0.484322
v 0.305876 0.019418 -0.484322
v 0.306116 0.024999 -0.478238
v -0.306116 -0.024999 0.478238
v -0.305876 -0.019418 0.484322
v 0.305876 -0.019418 0.484322
v 0.306116 -0.024999 0.478238
v 0.306116 0.024999 0.478238
v 0.305876 0.019418 0.484322
v -0.305876 0.019418 0.484322
v -0.306116 0.024999 0.478238
v -0.500000 -0.023213 -0.326667
v -0.493768 -0.029885 -0.326667
v -0.493768 -0.029885 0.326667
v -0.500000 -0.023213 0.326667
v -0.500000 0.023213 0.326667
v -0.493768 0.029885 0.326667
v -0.493768 0.029885 -0.326667
v -0.500000 0.023213 -0.326667
v 0.500000 -0.023213 0.326667
v 0.493768 -0.029885 0.326667
v 0.493768 -0.029885 -0.326667
v 0.500000 -0.023213 -0.326667
v 0.500000 0.023213 -0.326667
v 0.493768 0.029885 -0.326667
v 0.493768 0.029885 0.326667
v 0.500000 0.023213 0.326667
v -0.478238 -0.024999 -0.306116
v -0.484322 -0.019418 -0.305876
v -0.484322 -0.019418 0.305876
v -0.478238 -0.024999 0.306116
v -0.478238 0.024999 0.306116
v -0.484322 0.019418 0.305876
v -0.484322 0.019418 -0.305876
v -0.478238 0.024999 -0.306116
v 0.478238 -0.024999 0.306116
v 0.484322 -0.019418 0.305876
v 0.484322 -0.019418 -0.305876
v 0.478238 -0.024999 -0.306116
v 0.478238 0.024999 -0.306116
v 0.484322 0.019418 -0.305876
v 0.484322 0.019418 0.305876
v 0.478238 0.024999 0.306116
v -0.475613 -0.029885 0.493793
v -0.477299 -0.023213 0.500000
v -0.493793 -0.029885 0.475613
v -0.500000 -0.023213 0.477299
v -0.493793 0.029885 0.475613
v -0.500000 0.023213 0.477299
v -0.475613 0.029885 0.493793
v -0.477299 0.023213 0.500000
v -0.493793 -0.029885 -0.475613
v -0.500000 -0.023213 -0.477299
v -0.475613 -0.029885 -0.493793
v -0.477299 -0.023213 -0.500000
v -0.475613 0.029885 -0.493793
v -0.477299 0.023213 -0.500000
v -0.493793 0.029885 -0.475613
v -0.500000 0.023213 -0.477299
v 0.493793 -0.029885 0.475613
v 0.500000 -0.023213 0.477299
v 0.475613 -0.029885 0.493793
v 0.477299 -0.023213 0.500000
v 0.475613 0.029885 0.493793
v 0.477299 0.023213 0.500000
v 0.493793 0.029885 0.475613
v 0.500000 0.023213 0.477299
v 0.475613 -0.029885 -0.493793
v 0.477299 -0.023213 -0.500000
v 0.493793 -0.029885 -0.475613
v 0.500000 -0.023213 -0.477299
v 0.493793 0.029885 -0.475613
v 0.500000 0.023213 -0.477299
v 0.475613 0.029885 -0.493793
v 0.477299 0.023213 -0.500000
v -0.315778 -0.015128 -0.315778
v -0.315778 -0.015128 0.315778
v 0.315778 -0.015128 -0.315778
v 0.315778 -0.015128 0.315778
v 0.315778 0.015128 -0.315778
v 0.315778 0.015128 0.315778
v -0.315778 0.015128 -0.315778
v -0.315778 0.015128 0.315778
v -0.282893 -0.025000 -0.282893
v -0.282893 -0.025000 0.282893
v 0.282893 -0.025000 -0.282893
v 0.282893 -0.025000 0.282893
v 0.282892 0.025000 -0.282892
v 0.282892 0.025000 0.282892
v -0.282892 0.025000 -0.282892
v -0.282892 0.025000 0.282892
v -0.282893 -0.025000 0.141446
v 0.282893 -0.025000 0.141446
v 0.282892 0.025000 0.141446
v -0.282892 0.025000 0.141446
v -0.141446 -0.025000 -0.282893
v -0.141446 -0.025000 0.282893
v 0.141446 0.025000 -0.282892
v 0.141446 0.025000 0.282892
v -0.282893 -0.025000 -0.141446
v 0.282893 -0.025000 -0.141446
v 0.282892 0.025000 -0.141446
v -0.282892 0.025000 -0.141446
v 0.141446 -0.025000 -0.282893
v 0.141446 -0.025000 0.282893
v -0.141446 0.025000 -0.282892
v -0.141446 0.025000 0.282892
v 0.141446 -0.025000 -0.141446
v -0.141446 -0.025000 -0.141446
v -0.141446 -0.025000 0.141446
v -0.141446 0.025000 -0.141446
v 0.141446 0.025000 -0.141446
v 0.141446 0.025000 0.141446
v -0.141446 0.025000 0.141446
v 0.141446 -0.025000 0.141446
v -0.282893 -0.025000 -0.070723
v 0.282893 -0.025000 -0.070723
v 0.282892 0.025000 -0.070723
v -0.282892 0.025000 -0.070723
v 0.070723 -0.025000 -0.282893
v 0.070723 -0.025000 0.282893
v -0.070723 0.025000 -0.282892
v -0.070723 0.025000 0.282892
v -0.282893 -0.025000 0.070723
v 0.282893 -0.025000 0.070723
v 0.282892 0.025000 0.070723
v -0.282892 0.025000 0.070723
v -0.070723 -0.025000 -0.282893
v -0.070723 -0.025000 0.282893
v 0.070723 0.025000 -0.282892
v 0.070723 0.025000 0.282892
v 0.141446 -0.025000 -0.070723
v 0.070723 -0.025000 -0.141446
v -0.141446 -0.025000 -0.070723
v -0.070723 -0.025000 -0.141446
v -0.141446 -0.025000 0.070723
v -0.070723 -0.025000 0.141446
v -0.141446 0.025000 -0.070723
v -0.070723 0.025000 -0.141446
v 0.141446 0.025000 -0.070723
v 0.070723 0.025000 -0.141446
v 0.141446 0.025000 0.070723
v 0.070723 0.025000 0.141446
v -0.141446 0.025000 0.070723
v -0.070723 0.025000 0.141446
v 0.141446 -0.025000 0.070723
v 0.070723 -0.025000 0.141446
v 0.070723 -0.025000 0.070723
v -0.070723 0.025000 0.070723
v 0.070723 0.025000 0.070723
v -0.070723 0.025000 -0.070723
v -0.070723 -0.025000 0.070723
v 0.070723 -0.025000 -0.070723
v -0.070723 -0.025000 -0.070723
v 0.070723 0.025000 -0.070723
v -0.282893 -0.025000 0.247531
v 0.282893 -0.025000 0.247531
v 0.282892 0.025000 0.247531
v -0.282892 0.025000 0.247531
v -0.247531 -0.025000 -0.282893
v -0.247531 -0.025000 0.282893
v 0.247531 0.025000 -0.282892
v 0.247531 0.025000 0.282892
v -0.282893 -0.025000 -0.035362
v 0.282893 -0.025000 -0.035362
v 0.282892 0.025000 -0.035362
v -0.282892 0.025000 -0.035362
v 0.035362 -0.025000 -0.282893
v 0.035362 -0.025000 0.282893
v -0.035362 0.025000 -0.282892
v -0.035362 0.025000 0.282892
v -0.282893 -0.025000 -0.176808
v 0.282893 -0.025000 -0.176808
v 0.282892 0.025000 -0.176808
v -0.282892 0.025000 -0.176808
v 0.176808 -0.025000 -0.282893
v 0.176808 -0.025000 0.282893
v -0.176808 0.025000 -0.282892
v -0.176808 0.025000 0.282892
v 0.141446 -0.025000 -0.035362
v 0.141446 -0.025000 -0.176808
v 0.035362 -0.025000 -0.141446
v 0.176808 -0.025000 -0.141446
v -0.141446 -0.025000 -0.035362
v -0.141446 -0.025000 -0.176808
v -0.247531 -0.025000 -0.141446
v -0.141446 -0.025000 0.247531
v -0.247531 -0.025000 0.141446
v -0.141446 0.025000 -0.035362
v -0.141446 0.025000 -0.176808
v -0.035362 0.025000 -0.141446
v -0.176808 0.025000 -0.141446
v 0.141446 0.025000 -0.035362
v 0.141446 0.025000 -0.176808
v 0.247531 0.025000 -0.141446
v 0.141446 0.025000 0.247531
v 0.247531 0.025000 0.141446
v -0.141446 0.025000 0.247531
v -0.035362 0.025000 0.141446
v -0.176808 0.025000 0.141446
v 0.141446 -0.025000 0.247531
v 0.035362 -0.025000 0.141446
v 0.176808 -0.025000 0.141446
v -0.282893 -0.025000 0.176808
v 0.282893 -0.025000 0.176808
v 0.282892 0.025000 0.176808
v -0.282892 0.025000 0.176808
v -0.176808 -0.025000 -0.282893
v -0.176808 -0.025000 0.282893
v 0.176808 0.025000 -0.282892
v 0.176808 0.025000 0.282892
v -0.282893 -0.025000 0.035362
v 0.282893 -0.025000 0.035362
v 0.282892 0.025000 0.035362
v -0.282892 0.025000 0.035362
v -0.035362 -0.025000 -0.282893
v -0.035362 -0.025000 0.282893
v 0.035362 0.025000 -0.282892
v 0.035362 0.025000 0.282892
v -0.282893 -0.025000 -0.247531
v 0.282893 -0.025000 -0.247531
v 0.282892 0.025000 -0.247531
v -0.282892 0.025000 -0.247531
v 0.247531 -0.025000 -0.282893
v 0.247531 -0.025000 0.282893
v -0.247531 0.025000 -0.282892
v -0.247531 0.025000 0.282892
v 0.141446 -0.025000 -0.247531
v 0.247531 -0.025000 -0.141446
v -0.141446 -0.025000 -0.247531
v -0.176808 -0.025000 -0.141446
v -0.035362 -0.025000 -0.141446
v -0.141446 -0.025000 0.176808
v -0.141446 -0.025000 0.035362
v -0.176808 -0.025000 0.141446
v -0.035362 -0.025000 0.141446
v -0.141446 0.025000 -0.247531
v -0.247531 0.025000 -0.141446
v 0.141446 0.025000 -0.247531
v 0.176808 0.025000 -0.141446
v 0.035362 0.025000 -0.141446
v 0.141446 0.025000 0.176808
v 0.141446 0.025000 0.035362
v 0.176808 0.025000 0.141446
v 0.035362 0.025000 0.141446
v -0.141446 0.025000 0.176808
v -0.141446 0.025000 0.035362
v -0.247531 0.025000 0.141446
v 0.141446 -0.025000 0.176808
v 0.141446 -0.025000 0.035362
v 0.247531 -0.025000 0.141446
v 0.176808 -0.025000 0.070723
v 0.247531 -0.025000 0.070723
v 0.070723 -0.025000 0.035362
v 0.035362 -0.025000 0.070723
v 0.070723 -0.025000 0.247531
v 0.070723 -0.025000 0.176808
v -0.176808 0.025000 0.070723
v -0.247531 0.025000 0.070723
v -0.070723 0.025000 0.035362
v -0.035362 0.025000 0.070723
v -0.070723 0.025000 0.247531
v -0.070723 0.025000 0.176808
v 0.070723 0.025000 0.035362
v 0.035362 0.025000 0.070723
v 0.247531 0.025000 0.070723
v 0.176808 0.025000 0.070723
v 0.070723 0.025000 -0.176808
v 0.070723 0.025000 -0.247531
v 0.247531 0.025000 -0.070723
v 0.176808 0.025000 -0.070723
v -0.070723 0.025000 -0.176808
v -0.070723 0.025000 -0.247531
v -0.070723 0.025000 -0.035362
v -0.035362 0.025000 -0.070723
v -0.070723 -0.025000 0.035362
v -0.035362 -0.025000 0.070723
v -0.247531 -0.025000 0.070723
v -0.176808 -0.025000 0.070723
v -0.070723 -0.025000 -0.176808
v -0.070723 -0.025000 -0.247531
v -0.247531 -0.025000 -0.070723
v -0.176808 -0.025000 -0.070723
v 0.070723 -0.025000 -0.176808
v 0.070723 -0.025000 -0.247531
v 0.070723 -0.025000 -0.035362
v 0.035362 -0.025000 -0.070723
v 0.176808 -0.025000 -0.070723
v 0.247531 -0.025000 -0.070723
v -0.070723 -0.025000 -0.035362
v -0.035362 -0.025000 -0.070723
v -0.070723 -0.025000 0.247531
v -0.070723 -0.025000 0.176808
v -0.176808 0.025000 -0.070723
v -0.247531 0.025000 -0.070723
v 0.070723 0.025000 -0.035362
v 0.035362 0.025000 -0.070723
v 0.070723 0.025000 0.247531
v 0.070723 0.025000 0.176808
v 0.247531 -0.025000 0.176808
v 0.176808 -0.025000 0.176808
v 0.176808 -0.025000 0.247531
v -0.247531 0.025000 0.176808
v -0.176808 0.025000 0.176808
v -0.176808 0.025000 0.247531
v 0.035362 0.025000 0.176808
v -0.176808 0.025000 -0.035362
v -0.035362 -0.025000 0.176808
v 0.176808 -0.025000 -0.035362
v 0.035362 -0.025000 -0.035362
v 0.035362 -0.025000 -0.247531
v 0.035362 -0.025000 -0.176808
v 0.247531 -0.025000 -0.247531
v 0.176808 -0.025000 -0.247531
v 0.176808 -0.025000 -0.176808
v -0.247531 -0.025000 -0.035362
v -0.176808 -0.025000 -0.247531
v -0.247531 -0.025000 -0.247531
v -0.247531 -0.025000 -0.176808
v -0.035362 -0.025000 -0.247531
v -0.176808 -0.025000 0.176808
v -0.247531 -0.025000 0.176808
v -0.247531 -0.025000 0.247531
v -0.176808 -0.025000 0.035362
v -0.247531 -0.025000 0.035362
v -0.035362 -0.025000 0.035362
v -0.035362 0.025000 -0.035362
v -0.035362 0.025000 -0.247531
v -0.035362 0.025000 -0.176808
v -0.247531 0.025000 -0.247531
v -0.176808 0.025000 -0.247531
v -0.176808 0.025000 -0.176808
v 0.247531 0.025000 -0.035362
v 0.176808 0.025000 -0.247531
v 0.247531 0.025000 -0.247531
v 0.247531 0.025000 -0.176808
v 0.035362 0.025000 -0.247531
v 0.176808 0.025000 0.176808
v 0.247531 0.025000 0.176808
v 0.247531 0.025000 0.247531
v 0.176808 0.025000 0.035362
v 0.247531 0.025000 0.035362
v 0.035362 0.025000 0.035362
v -0.035362 0.025000 0.176808
v -0.035362 0.025000 0.247531
v -0.035362 0.025000 0.035362
v -0.247531 0.025000 0.035362
v -0.176808 0.025000 0.035362
v 0.035362 -0.025000 0.176808
v 0.035362 -0.025000 0.247531
v 0.035362 -0.025000 0.035362
v 0.247531 -0.025000 0.035362
v 0.176808 -0.025000 0.035362
v 0.176808 0.025000 0.247531
v 0.035362 0.025000 -0.176808
v 0.176808 0.025000 -0.176808
v 0.176808 0.025000 -0.035362
v -0.247531 0.025000 -0.176808
v -0.176808 -0.025000 0.247531
v -0.035362 -0.025000 -0.176808
v -0.176808 -0.025000 -0.176808
v -0.176808 -0.025000 -0.035362
v 0.247531 -0.025000 -0.176808
v 0.247531 -0.025000 -0.035362
v -0.035362 -0.025000 -0.035362
v -0.035362 -0.025000 0.247531
v -0.247531 0.025000 -0.035362
v 0.035362 0.025000 -0.035362
v 0.035362 0.025000 0.247531
v -0.247531 0.025000 0.247531
v 0.247531 -0.025000 0.247531
vn -0.2928 0.9561 0.0089
vn 0.2928 -0.9561 -0.0089
vn 0.2928 0.9561 -0.0089
vn -0.6021 -0.0000 0.7984
vn 0.7984 -0.0000 -0.6021
vn 0.2928 0.9561 0.0089
vn -0.0089 0.9561 0.2928
vn -0.0000 1.0000 -0.0000
vn -0.0000 -1.0000 -0.0000
vn -0.2928 0.9561 -0.0089
vn -0.0000 -0.0000 -1.0000
vn -0.2928 -0.9561 0.0089
vn -0.0000 -0.0000 1.0000
vn 0.0089 -0.9561 0.2928
vn -0.0000 0.7408 -0.6717
vn -0.4892 0.7220 -0.4892
vn -0.0000 -0.7408 -0.6717
vn 0.6021 -0.0000 -0.7984
vn 0.4892 -0.7220 -0.4892
vn -0.4892 -0.7220 -0.4892
vn -0.7984 -0.0000 0.6021
vn 0.0089 0.9561 -0.2928
vn 0.4892 0.7220 -0.4892
vn -0.2928 -0.9561 -0.0089
vn 0.0089 0.9561 0.2928
vn -0.6021 -0.0000 -0.7984
vn 1.0000 -0.0000 -0.0000
vn 0.2928 -0.9561 0.0089
vn -0.0089 -0.9561 0.2928
vn 0.6021 -0.0000 0.7984
vn -0.7984 -0.0000 -0.6021
vn -1.0000 -0.0000 -0.0000
vn 0.7984 -0.0000 0.6021
vn -0.0089 -0.9561 -0.2928
vn -0.0089 0.9561 -0.2928
vn -0.7071 -0.0000 0.7071
vn 0.4892 0.7220 0.4892
vn 0.6717 0.7408 -0.0000
vn -0.4892 -0.7220 0.4892
vn -0.6717 -0.7408 -0.0000
vn 0.4892 -0.7220 0.4892
vn 0.6717 -0.7408 -0.0000
vn -0.0000 -0.7408 0.6717
vn -0.0000 -0.7927 -0.6096
vn -0.4892 0.7220 0.4892
vn -0.6717 0.7408 -0.0000
vn -0.0000 0.7408 0.6717
vn -0.0000 0.7927 -0.6096
vn -0.7071 -0.0000 -0.7071
vn 0.7071 -0.0000 0.7071
vn 0.7071 -0.0000 -0.7071
vn 0.0089 -0.9561 -0.2928
vn 0.5610 -0.5923 -0.5783
vn -0.5610 0.5923 -0.5783
vn -0.5610 -0.5923 0.5783
vn 0.5610 0.5923 0.5783
vn -0.5610 -0.5923 -0.5783
vn -0.0000 -0.7369 -0.6760
vn 0.5610 0.5923 -0.5783
vn -0.0000 0.7369 -0.6760
vn 0.5610 -0.5923 0.5783
vn -0.0000 -0.7369 0.6760
vn -0.5610 0.5923 0.5783
vn -0.0000 0.7369 0.6760
vn -0.5783 -0.5923 -0.5610
vn -0.5783 0.5923 0.5610
vn 0.5783 -0.5923 0.5610
vn 0.5783 0.5923 -0.5610
vn -0.5783 -0.5923 0.5610
vn -0.6760 -0.7369 -0.0000
vn -0.5783 0.5923 -0.5610
vn -0.6760 0.7369 -0.0000
vn 0.5783 -0.5923 -0.5610
vn 0.6760 -0.7369 -0.0000
vn 0.5783 0.5923 0.5610
vn 0.6760 0.7369 -0.0000
vn -0.5424 -0.6416 0.5424
vn -0.5424 0.6416 0.5424
vn -0.5424 0.6416 -0.5424
vn -0.5424 -0.6416 -0.5424
vn 0.5424 0.6416 -0.5424
vn 0.5424 -0.6416 -0.5424
vn 0.5424 0.6416 0.5424
vn 0.5424 -0.6416 0.5424
vn -0.7314 -0.6819 -0.0001
vn -0.7314 0.6819 -0.0001
vn 0.0001 -0.6819 0.7314
vn 0.0001 0.6819 0.7314
vn 0.0001 -0.6819 -0.7314
vn 0.0001 0.6819 -0.7314
vn -0.7314 -0.6819 0.0001
vn -0.7314 0.6819 0.0001
vn -0.0001 -0.6819 0.7314
vn -0.0001 0.6819 0.7314
vn 0.7314 -0.6819 -0.0001
vn 0.7314 0.6819 -0.0001
vn 0.7314 -0.6819 0.0001
vn 0.7314 0.6819 0.0001
vn -0.0001 -0.6819 -0.7314
vn -0.0001 0.6819 -0.7314
vn 0.6096 0.7927 -0.0000
vn -0.6096 -0.7927 -0.0000
vn -0.0000 0.7927 0.6096
vn -0.0000 -0.7927 0.6096
vn -0.6096 0.7927 -0.0000
vn 0.6096 -0.7927 -0.0000
vt 0.708333 0.501948
vt 0.736111 0.502020
vt 0.736111 0.583333
vt 0.708333 0.583333
vt 0.208333 0.666667
vt 0.236111 0.666667
vt 0.236111 0.747980
vt 0.208333 0.748052
vt 0.763889 0.666667
vt 0.791667 0.666667
vt 0.791667 0.748052
vt 0.763889 0.747980
vt 0.402905 0.833333
vt 0.597095 0.833333
vt 0.597094 0.861111
vt 0.402906 0.861111
vt 0.402906 0.638889
vt 0.597094 0.638889
vt 0.597095 0.666667
vt 0.402905 0.666667
vt 0.763889 0.502020
vt 0.791667 0.501948
vt 0.791667 0.583333
vt 0.763889 0.583333
vt 0.626948 0.583333
vt 0.708333 0.611111
vt 0.627020 0.611111
vt 0.873052 0.666667
vt 0.873060 0.742379
vt 0.867379 0.748060
vt 0.236111 0.502020
vt 0.263889 0.502020
vt 0.263889 0.583333
vt 0.236111 0.583333
vt 0.291667 0.666667
vt 0.373052 0.666667
vt 0.373060 0.742379
vt 0.367379 0.748060
vt 0.291667 0.748052
vt 0.708333 0.666667
vt 0.736111 0.666667
vt 0.736111 0.747980
vt 0.708333 0.748052
vt 0.126948 0.666667
vt 0.132621 0.748060
vt 0.126940 0.742379
vt 0.402905 0.257094
vt 0.597095 0.257094
vt 0.597095 0.333333
vt 0.402905 0.333333
vt 0.263889 0.502020
vt 0.291667 0.501948
vt 0.291667 0.583333
vt 0.126940 0.507621
vt 0.132621 0.501940
vt 0.208333 0.501948
vt 0.208333 0.583333
vt 0.126948 0.583333
vt 0.736111 0.502020
vt 0.763889 0.502020
vt 0.402905 0.757094
vt 0.597095 0.757094
vt 0.597095 0.833333
vt 0.402905 0.833333
vt 0.763889 0.747980
vt 0.736111 0.747980
vt 0.402905 0.916667
vt 0.597095 0.916667
vt 0.597095 0.992906
vt 0.402905 0.992906
vt 0.597094 0.888889
vt 0.402906 0.888889
vt 0.626948 0.666667
vt 0.708333 0.748052
vt 0.632621 0.748060
vt 0.626940 0.742379
vt 0.126948 0.583333
vt 0.208333 0.611111
vt 0.127020 0.611111
vt 0.263889 0.666667
vt 0.263889 0.747980
vt 0.236111 0.747980
vt 0.736111 0.638889
vt 0.763889 0.638889
vt 0.626940 0.507621
vt 0.632621 0.501940
vt 0.708333 0.501948
vt 0.626948 0.583333
vt 0.708333 0.638889
vt 0.402906 0.361111
vt 0.597094 0.361111
vt 0.597094 0.388889
vt 0.402906 0.388889
vt 0.236111 0.638889
vt 0.263889 0.638889
vt 0.402905 0.333333
vt 0.208333 0.638889
vt 0.291667 0.501948
vt 0.367379 0.501940
vt 0.373060 0.507621
vt 0.373052 0.583333
vt 0.291667 0.638889
vt 0.402906 0.138889
vt 0.597094 0.138889
vt 0.597095 0.166667
vt 0.402905 0.166667
vt 0.791667 0.638889
vt 0.872980 0.638889
vt 0.791667 0.501948
vt 0.867379 0.501940
vt 0.873060 0.507621
vt 0.873052 0.583333
vt 0.127020 0.638889
vt 0.291667 0.748052
vt 0.263889 0.747980
vt 0.873052 0.583333
vt 0.872980 0.611111
vt 0.791667 0.611111
vt 0.597095 0.416667
vt 0.402905 0.416667
vt 0.402905 0.666667
vt 0.597095 0.742906
vt 0.402905 0.742906
vt 0.208333 0.501948
vt 0.236111 0.502020
vt 0.373052 0.583333
vt 0.372980 0.611111
vt 0.291667 0.611111
vt 0.402905 0.916667
vt 0.402905 0.083333
vt 0.597095 0.083333
vt 0.597094 0.111111
vt 0.402906 0.111111
vt 0.402905 0.007094
vt 0.597095 0.007094
vt 0.402905 0.083333
vt 0.402905 0.507094
vt 0.597095 0.507094
vt 0.597095 0.583333
vt 0.402905 0.583333
vt 0.627020 0.611111
vt 0.627020 0.638889
vt 0.402905 0.583333
vt 0.597095 0.583333
vt 0.597094 0.611111
vt 0.402906 0.611111
vt 0.372980 0.638889
vt 0.627020 0.638889
vt 0.626948 0.666667
vt 0.402905 0.000000
vt 0.597095 0.000000
vt 0.402905 0.007094
vt 0.763889 0.611111
vt 0.402905 0.166667
vt 0.597095 0.242906
vt 0.402905 0.242906
vt 0.263889 0.611111
vt 0.236111 0.611111
vt 0.236993 0.611993
vt 0.263007 0.611993
vt 0.261381 0.611993
vt 0.258129 0.611993
vt 0.256504 0.611993
vt 0.253252 0.611993
vt 0.251626 0.611993
vt 0.248374 0.611993
vt 0.246748 0.611993
vt 0.243496 0.611993
vt 0.241870 0.611993
vt 0.238619 0.611993
vt 0.736111 0.611111
vt 0.736993 0.611993
vt 0.763007 0.611993
vt 0.761381 0.611993
vt 0.758129 0.611993
vt 0.756503 0.611993
vt 0.753252 0.611993
vt 0.751626 0.611993
vt 0.748374 0.611993
vt 0.746748 0.611993
vt 0.743496 0.611993
vt 0.741870 0.611993
vt 0.738619 0.611993
vt 0.402905 0.257094
vt 0.402905 0.242906
vt 0.597095 0.242906
vt 0.597095 0.757094
vt 0.402905 0.757094
vt 0.402905 0.742906
vt 0.597095 0.742906
vt 0.402905 0.507094
vt 0.402905 0.492906
vt 0.597095 0.492906
vt 0.208333 0.500000
vt 0.236111 0.500000
vt 0.625000 0.388889
vt 0.625000 0.410846
vt 0.291667 0.750000
vt 0.263889 0.750000
vt 0.625000 0.888889
vt 0.625000 0.910846
vt 0.263889 0.500000
vt 0.291666 0.500000
vt 0.625000 0.339154
vt 0.625000 0.361111
vt 0.236111 0.750000
vt 0.208333 0.750000
vt 0.625000 0.839154
vt 0.625000 0.861111
vt 0.125000 0.666667
vt 0.125000 0.638889
vt 0.625000 0.138889
vt 0.625000 0.160846
vt 0.125000 0.611111
vt 0.125000 0.583333
vt 0.625000 0.089154
vt 0.625000 0.111111
vt 0.132094 0.750000
vt 0.125000 0.742906
vt 0.625000 0.000707
vt 0.625000 0.006388
vt 0.625000 0.244319
vt 0.625000 0.255681
vt 0.125000 0.507094
vt 0.132094 0.500000
vt 0.625000 0.494319
vt 0.625000 0.505681
vt 0.367906 0.500000
vt 0.375000 0.507094
vt 0.625000 0.744319
vt 0.625000 0.755681
vt 0.375000 0.742906
vt 0.367906 0.750000
vt 0.625000 0.007621
vt 0.625000 0.083333
vt 0.625000 0.916667
vt 0.625000 0.992379
vt 0.208333 0.500000
vt 0.625000 0.257621
vt 0.625000 0.333333
vt 0.125000 0.583333
vt 0.625000 0.166667
vt 0.625000 0.242379
vt 0.291667 0.750000
vt 0.625000 0.757621
vt 0.625000 0.833333
vt 0.291667 0.500000
vt 0.625000 0.416667
vt 0.625000 0.492379
vt 0.597095 0.492906
vt 0.597095 0.416667
vt 0.402905 0.416667
vt 0.402905 0.492906
vt 0.236993 0.638007
vt 0.263007 0.638007
vt 0.736993 0.638007
vt 0.763007 0.638007
vt 0.261381 0.636381
vt 0.263007 0.636381
vt 0.261381 0.638007
vt 0.761381 0.636381
vt 0.763007 0.636381
vt 0.761381 0.638007
vt 0.736993 0.613619
vt 0.736993 0.616870
vt 0.736993 0.618496
vt 0.736993 0.621748
vt 0.736993 0.623374
vt 0.736993 0.626626
vt 0.736993 0.628252
vt 0.736993 0.631503
vt 0.736993 0.633129
vt 0.736993 0.636381
vt 0.236993 0.613619
vt 0.236993 0.616870
vt 0.236993 0.618496
vt 0.236993 0.621748
vt 0.236993 0.623374
vt 0.236993 0.626626
vt 0.236993 0.628252
vt 0.236993 0.631503
vt 0.236993 0.633129
vt 0.236993 0.636381
vt 0.738619 0.638007
vt 0.741870 0.638007
vt 0.743496 0.638007
vt 0.746748 0.638007
vt 0.748374 0.638007
vt 0.751626 0.638007
vt 0.753252 0.638007
vt 0.756503 0.638007
vt 0.758129 0.638007
vt 0.238619 0.638007
vt 0.241870 0.638007
vt 0.243496 0.638007
vt 0.246748 0.638007
vt 0.248374 0.638007
vt 0.251626 0.638007
vt 0.253252 0.638007
vt 0.256504 0.638007
vt 0.258129 0.638007
vt 0.763007 0.633129
vt 0.763007 0.631504
vt 0.763007 0.628252
vt 0.763007 0.626626
vt 0.763007 0.623374
vt 0.763007 0.621748
vt 0.763007 0.618496
vt 0.763007 0.616870
vt 0.763007 0.613619
vt 0.263007 0.633129
vt 0.263007 0.631504
vt 0.263007 0.628252
vt 0.263007 0.626626
vt 0.263007 0.623374
vt 0.263007 0.621748
vt 0.263007 0.618496
vt 0.263007 0.616870
vt 0.263007 0.613619
vt 0.738619 0.623374
vt 0.738619 0.626626
vt 0.251626 0.613619
vt 0.248374 0.613619
vt 0.238619 0.623374
vt 0.238619 0.626626
vt 0.253252 0.633129
vt 0.253252 0.636381
vt 0.251626 0.636381
vt 0.251626 0.633129
vt 0.253252 0.621748
vt 0.256504 0.621748
vt 0.256504 0.623374
vt 0.253252 0.623374
vt 0.261381 0.616870
vt 0.261381 0.618496
vt 0.751626 0.613619
vt 0.748374 0.613619
vt 0.241870 0.616870
vt 0.243496 0.616870
vt 0.243496 0.618496
vt 0.241870 0.618496
vt 0.251626 0.618496
vt 0.748374 0.618496
vt 0.751626 0.618496
vt 0.248374 0.618496
vt 0.241870 0.636381
vt 0.243496 0.636381
vt 0.253252 0.616870
vt 0.256504 0.616870
vt 0.256504 0.618496
vt 0.253252 0.618496
vt 0.241870 0.613619
vt 0.758129 0.613619
vt 0.761381 0.613619
vt 0.238619 0.613619
vt 0.761381 0.616870
vt 0.761381 0.618496
vt 0.251626 0.631503
vt 0.248374 0.633129
vt 0.248374 0.631503
vt 0.741870 0.616870
vt 0.743496 0.616870
vt 0.743496 0.618496
vt 0.741870 0.618496
vt 0.251626 0.616870
vt 0.248374 0.616870
vt 0.741870 0.636381
vt 0.743496 0.636381
vt 0.753252 0.621748
vt 0.756503 0.621748
vt 0.756503 0.623374
vt 0.753252 0.623374
vt 0.746748 0.628252
vt 0.748374 0.628252
vt 0.748374 0.631503
vt 0.746748 0.631503
vt 0.753252 0.636381
vt 0.756503 0.636381
vt 0.761381 0.628252
vt 0.761381 0.631504
vt 0.758129 0.616870
vt 0.758129 0.618496
vt 0.761381 0.626626
vt 0.758129 0.628252
vt 0.758129 0.626626
vt 0.261381 0.626626
vt 0.261381 0.628252
vt 0.256504 0.628252
vt 0.258129 0.628252
vt 0.258129 0.631504
vt 0.256504 0.631504
vt 0.251626 0.626626
vt 0.253252 0.626626
vt 0.253252 0.628252
vt 0.251626 0.628252
vt 0.253252 0.631503
vt 0.753252 0.633129
vt 0.751626 0.636381
vt 0.751626 0.633129
vt 0.741870 0.626626
vt 0.741870 0.628252
vt 0.738619 0.628252
vt 0.756503 0.628252
vt 0.758129 0.631504
vt 0.756503 0.631504
vt 0.751626 0.626626
vt 0.753252 0.626626
vt 0.753252 0.628252
vt 0.751626 0.628252
vt 0.753252 0.631503
vt 0.751626 0.631503
vt 0.738619 0.631503
vt 0.741870 0.631503
vt 0.741870 0.633129
vt 0.738619 0.633129
vt 0.756503 0.633129
vt 0.746748 0.623374
vt 0.748374 0.623374
vt 0.748374 0.626626
vt 0.746748 0.626626
vt 0.738619 0.636381
vt 0.743496 0.626626
vt 0.743496 0.628252
vt 0.741870 0.613619
vt 0.738619 0.613619
vt 0.738619 0.616870
vt 0.741870 0.621748
vt 0.741870 0.623374
vt 0.738619 0.621748
vt 0.738619 0.618496
vt 0.238619 0.616870
vt 0.238619 0.618496
vt 0.753252 0.613619
vt 0.753252 0.616870
vt 0.751626 0.616870
vt 0.753252 0.618496
vt 0.238619 0.631503
vt 0.241870 0.631503
vt 0.241870 0.633129
vt 0.238619 0.633129
vt 0.248374 0.621748
vt 0.251626 0.621748
vt 0.251626 0.623374
vt 0.248374 0.623374
vt 0.756503 0.613619
vt 0.751626 0.621748
vt 0.246748 0.623374
vt 0.248374 0.626626
vt 0.246748 0.626626
vt 0.238619 0.636381
vt 0.241870 0.626626
vt 0.243496 0.626626
vt 0.243496 0.628252
vt 0.241870 0.628252
vt 0.756503 0.616870
vt 0.756503 0.618496
vt 0.246748 0.616870
vt 0.246748 0.618496
vt 0.241870 0.621748
vt 0.241870 0.623374
vt 0.238619 0.621748
vt 0.258129 0.613619
vt 0.258129 0.616870
vt 0.256504 0.613619
vt 0.253252 0.613619
vt 0.261381 0.621748
vt 0.261381 0.623374
vt 0.258129 0.623374
vt 0.258129 0.621748
vt 0.748374 0.633129
vt 0.258129 0.618496
vt 0.246748 0.621748
vt 0.758129 0.621748
vt 0.746748 0.618496
vt 0.748374 0.621748
vt 0.746748 0.621748
vt 0.758129 0.633129
vt 0.758129 0.636381
vt 0.261381 0.631504
vt 0.261381 0.633129
vt 0.258129 0.633129
vt 0.258129 0.636381
vt 0.256504 0.636381
vt 0.256504 0.633129
vt 0.743496 0.631503
vt 0.746748 0.633129
vt 0.743496 0.633129
vt 0.751626 0.623374
vt 0.761381 0.633129
vt 0.743496 0.623374
vt 0.746748 0.636381
vt 0.743496 0.621748
vt 0.761381 0.621748
vt 0.243496 0.631503
vt 0.246748 0.631503
vt 0.246748 0.633129
vt 0.243496 0.633129
vt 0.258129 0.626626
vt 0.256504 0.626626
vt 0.758129 0.623374
vt 0.748374 0.636381
vt 0.243496 0.623374
vt 0.246748 0.636381
vt 0.243496 0.621748
vt 0.761381 0.623374
vt 0.261381 0.613619
vt 0.248374 0.636381
vt 0.246748 0.613619
vt 0.243496 0.613619
vt 0.756503 0.626626
vt 0.238619 0.628252
vt 0.246748 0.628252
vt 0.248374 0.628252
vt 0.746748 0.613619
vt 0.743496 0.613619
vt 0.746748 0.616870
vt 0.748374 0.616870
s 0
usemtl Noir_Light
f 39/1/1 56/2/1 13/3/1 1/4/1
f 6/5/2 10/6/2 57/7/2 42/8/2
f 16/9/3 4/10/3 47/11/3 64/12/3
f 44/13/4 45/14/4 62/15/4 59/16/4
f 90/17/5 95/18/5 80/19/5 73/20/5
f 53/21/6 38/22/6 3/23/6 15/24/6
f 78/25/7 1/4/7 17/26/7 93/27/7
f 4/10/8 70/28/8 101/29/8 103/30/8 47/11/8
f 52/31/9 49/32/9 11/33/9 9/34/9
f 8/35/9 74/36/9 113/37/9 115/38/9 43/39/9
f 2/40/10 14/41/10 61/42/10 46/43/10
f 67/44/9 6/5/9 42/8/9 97/45/9 99/46/9
f 108/47/11 110/48/11 37/49/11 36/50/11
f 49/51/12 34/52/12 7/53/12 11/33/12
f 105/54/9 107/55/9 35/56/9 5/57/9 66/58/9
f 56/59/8 53/60/8 15/24/8 13/3/8
f 116/61/13 118/62/13 45/63/13 44/64/13
f 14/41/8 16/9/8 64/65/8 61/66/8
f 41/67/13 48/68/13 104/69/13 98/70/13
f 59/16/13 62/15/13 63/71/13 58/72/13
f 79/73/8 2/40/8 46/74/8 117/75/8 119/76/8
f 66/77/14 5/57/14 21/78/14 81/79/14
f 10/6/9 12/80/9 60/81/9 57/82/9
f 134/83/15 136/84/15 16/9/15 14/41/15
f 125/85/8 127/86/8 39/87/8 1/4/8 78/88/8
f 18/89/16 134/83/16 14/41/16 2/40/16
f 51/90/11 54/91/11 55/92/11 50/93/11
f 130/94/17 132/95/17 12/80/17 10/6/17
f 36/96/18 37/49/18 54/91/18 51/90/18
f 22/97/19 130/94/19 10/6/19 6/5/19
f 34/98/9 121/99/9 123/100/9 75/101/9 7/53/9
f 132/95/20 24/102/20 8/35/20 12/80/20
f 82/103/21 87/104/21 72/105/21 65/106/21
f 20/107/22 85/108/22 70/28/22 4/10/22
f 38/109/8 109/110/8 111/111/8 71/112/8 3/23/8
f 136/84/23 20/107/23 4/10/23 16/9/23
f 81/79/9 21/78/9 22/97/9 84/113/9
f 12/80/24 8/35/24 43/114/24 60/115/24
f 3/23/25 71/116/25 88/117/25 19/118/25
f 50/93/26 55/92/26 40/119/26 33/120/26
f 73/121/27 80/19/27 120/122/27 114/123/27
f 35/124/28 52/125/28 9/34/28 5/57/28
f 7/53/29 75/126/29 92/127/29 23/128/29
f 58/72/30 63/71/30 48/68/30 41/129/30
f 68/130/31 69/131/31 86/132/31 83/133/31
f 100/134/32 102/135/32 69/131/32 68/136/32
f 19/118/8 88/117/8 85/108/8 20/107/8
f 124/137/27 126/138/27 77/139/27 76/140/27
f 93/141/8 17/26/8 18/89/8 96/142/8
f 76/143/33 77/144/33 94/145/33 91/146/33
f 91/146/27 94/145/27 95/18/27 90/17/27
f 24/102/34 89/147/34 74/36/34 8/35/34
f 23/128/9 92/127/9 89/147/9 24/102/9
f 96/148/35 18/89/35 2/40/35 79/149/35
f 98/150/36 104/151/36 102/135/36 100/152/36
f 15/24/37 3/23/37 19/118/37 135/153/37
f 135/153/38 19/118/38 20/107/38 136/84/38
f 65/154/32 72/105/32 112/155/32 106/156/32
f 83/133/32 86/132/32 87/104/32 82/103/32
f 11/33/39 7/53/39 23/128/39 131/157/39
f 131/157/40 23/128/40 24/102/40 132/95/40
f 5/57/41 9/34/41 129/158/41 21/78/41
f 21/78/42 129/158/42 130/94/42 22/97/42
f 9/34/43 11/33/43 131/157/43 129/158/43
f 25/159/44 27/160/44 139/160/44 277/161/44 229/162/44 157/163/44 173/164/44 221/165/44 269/166/44 181/167/44 149/168/44 261/169/44 213/170/44 137/159/44
f 1/4/45 13/3/45 133/171/45 17/26/45
f 17/26/46 133/171/46 134/83/46 18/89/46
f 13/3/47 15/24/47 135/153/47 133/171/47
f 29/172/48 31/173/48 143/173/48 279/174/48 231/175/48 159/176/48 175/177/48 223/178/48 271/179/48 183/180/48 151/181/48 263/182/48 215/183/48 141/172/48
f 110/48/49 108/184/49 106/185/49 112/186/49
f 118/187/50 116/188/50 114/189/50 120/190/50
f 126/138/51 124/191/51 122/192/51 128/193/51
f 84/113/52 22/97/52 6/5/52 67/44/52
f 52/125/53 35/124/53 36/194/53 51/195/53
f 56/196/54 39/197/54 40/119/54 55/92/54
f 60/115/55 43/114/55 44/198/55 59/199/55
f 64/200/56 47/201/56 48/68/56 63/71/56
f 34/52/57 49/51/57 50/202/57 33/203/57
f 49/32/58 52/31/58 51/195/58 50/202/58
f 38/204/59 53/205/59 54/91/59 37/49/59
f 53/205/60 56/196/60 55/92/60 54/91/60
f 42/8/61 57/7/61 58/206/61 41/207/61
f 57/82/62 60/81/62 59/199/62 58/206/62
f 46/208/63 61/209/63 62/15/63 45/14/63
f 61/209/64 64/200/64 63/71/64 62/15/64
f 84/113/65 67/44/65 68/210/65 83/211/65
f 88/212/66 71/213/66 72/105/66 87/104/66
f 92/127/67 75/126/67 76/143/67 91/146/67
f 96/148/68 79/149/68 80/19/68 95/18/68
f 66/77/69 81/79/69 82/214/69 65/215/69
f 81/79/70 84/113/70 83/211/70 82/214/70
f 70/216/71 85/217/71 86/132/71 69/131/71
f 85/217/72 88/212/72 87/104/72 86/132/72
f 74/36/73 89/147/73 90/17/73 73/20/73
f 89/147/74 92/127/74 91/146/74 90/17/74
f 78/25/75 93/27/75 94/145/75 77/144/75
f 93/141/76 96/142/76 95/18/76 94/145/76
f 99/46/77 97/45/77 98/218/77 100/219/77
f 103/220/78 101/221/78 102/135/78 104/151/78
f 111/222/79 109/223/79 110/48/79 112/186/79
f 107/55/80 105/54/80 106/224/80 108/225/80
f 127/226/81 125/227/81 126/138/81 128/193/81
f 123/100/82 121/99/82 122/228/82 124/229/82
f 119/230/83 117/231/83 118/187/83 120/190/83
f 115/38/84 113/37/84 114/232/84 116/233/84
f 67/44/85 99/46/85 100/219/85 68/210/85
f 101/234/86 70/235/86 69/131/86 102/135/86
f 97/45/87 42/8/87 41/207/87 98/218/87
f 47/236/88 103/237/88 104/69/88 48/68/88
f 35/56/89 107/55/89 108/225/89 36/238/89
f 109/239/90 38/240/90 37/49/90 110/48/90
f 65/241/91 106/224/91 105/54/91 66/58/91
f 71/242/92 111/243/92 112/155/92 72/105/92
f 43/39/93 115/38/93 116/233/93 44/244/93
f 117/245/94 46/246/94 45/63/94 118/62/94
f 73/121/95 114/123/95 113/37/95 74/36/95
f 79/73/96 119/76/96 120/122/96 80/19/96
f 75/101/97 123/100/97 124/137/97 76/140/97
f 125/85/98 78/88/98 77/139/98 126/138/98
f 33/247/99 122/228/99 121/99/99 34/98/99
f 39/248/100 127/249/100 128/250/100 40/251/100
f 33/252/11 40/251/11 128/250/11 122/253/11
f 424/258/9 210/259/9 140/255/9 278/260/9
f 423/261/8 212/262/8 144/257/8 280/263/8
f 30/256/101 29/172/101 141/172/101 275/264/101 227/265/101 155/266/101 171/267/101 219/268/101 267/269/101 179/270/101 147/271/101 259/272/101 211/273/101 142/256/101
f 26/254/102 25/159/102 137/159/102 273/274/102 225/275/102 153/276/102 169/277/102 217/278/102 265/279/102 177/280/102 145/281/102 257/282/102 209/283/102 138/254/102
f 32/257/103 30/256/103 142/256/103 216/284/103 264/285/103 152/286/103 184/287/103 272/288/103 224/289/103 176/290/103 160/291/103 232/292/103 280/263/103 144/257/103
f 28/255/104 26/254/104 138/254/104 214/293/104 262/294/104 150/295/104 182/296/104 270/297/104 222/298/104 174/299/104 158/300/104 230/301/104 278/260/104 140/255/104
f 31/173/105 32/257/105 144/257/105 212/262/105 260/302/105 148/303/105 180/304/105 268/305/105 220/306/105 172/307/105 156/308/105 228/309/105 276/310/105 143/173/105
f 27/160/106 28/255/106 140/255/106 210/259/106 258/311/106 146/312/106 178/313/106 266/314/106 218/315/106 170/316/106 154/317/106 226/318/106 274/319/106 139/160/106
f 386/320/8 395/321/8 267/269/8 219/268/8
f 269/166/9 221/165/9 364/322/9 373/323/9
f 369/324/9 378/325/9 265/279/9 217/278/9
f 310/326/9 309/327/9 403/328/9 402/329/9
f 206/330/9 185/331/9 233/332/9 339/333/9
f 416/334/9 226/318/9 154/317/9 282/335/9
f 271/179/8 223/178/8 381/336/8 390/337/8
f 414/338/9 238/339/9 162/340/9 284/341/9
f 235/342/13 294/343/13 244/344/13 285/345/13
f 412/346/9 240/347/9 150/295/9 262/294/9
f 337/348/9 234/349/9 161/350/9 186/351/9
f 370/352/13 384/353/13 383/354/13 371/355/13
f 411/356/8 228/309/8 156/308/8 291/357/8
f 255/358/9 402/329/9 361/359/9 289/360/9
f 409/361/8 247/362/8 165/363/8 293/364/8
f 365/365/9 235/342/9 285/345/9 413/366/9
f 407/367/8 249/368/8 152/286/8 264/285/8
f 204/369/8 191/370/8 242/371/8 327/372/8
f 203/373/8 318/374/8 298/375/8 196/376/8
f 315/377/8 251/378/8 160/291/8 176/290/8
f 312/379/8 180/304/8 148/303/8 301/380/8
f 385/381/8 411/356/8 291/357/8 245/382/8
f 400/383/8 312/379/8 311/384/8 401/385/8
f 405/386/9 266/314/9 178/313/9 306/387/9
f 199/388/9 305/389/9 256/390/9 168/391/9
f 404/392/9 307/393/9 201/394/9 308/395/9
f 308/395/9 201/394/9 200/396/9 255/358/9
f 403/328/9 309/327/9 174/299/9 222/298/9
f 316/397/8 315/377/8 398/398/8 397/399/8
f 394/400/8 320/401/8 319/402/8 395/321/8
f 400/383/8 268/305/8 180/304/8 312/379/8
f 197/403/8 311/384/8 253/404/8 167/405/8
f 399/406/8 313/407/8 202/408/8 314/409/8
f 314/409/8 202/408/8 198/410/8 252/411/8
f 398/398/8 315/377/8 176/290/8 224/289/8
f 250/412/8 297/413/8 391/414/8 392/415/8
f 198/410/8 167/405/8 299/416/8 316/397/8
f 349/417/8 421/418/8 396/419/8 317/420/8
f 393/421/8 407/367/8 264/285/8 216/284/8
f 394/400/8 296/422/8 195/423/8 320/401/8
f 392/415/8 393/421/8 211/273/8 259/272/8
f 215/183/8 263/182/8 387/424/8 388/425/8
f 179/270/8 319/402/8 250/412/8 147/271/8
f 388/425/8 389/426/8 227/265/8 275/264/8
f 324/427/8 410/428/8 386/320/8 323/429/8
f 155/266/8 248/430/8 323/429/8 171/267/8
f 372/431/9 414/338/9 284/341/9 239/432/9
f 326/433/8 325/434/8 382/435/8 381/336/8
f 382/435/8 325/434/8 192/436/8 244/344/8
f 241/437/9 288/438/9 374/439/9 375/440/9
f 344/441/9 340/442/9 363/443/9 418/444/9
f 175/177/8 159/176/8 290/445/8 326/433/8
f 244/344/8 192/436/8 204/369/8 328/446/8
f 343/447/9 418/444/9 379/448/9 329/449/9
f 376/450/9 412/346/9 262/294/9 214/293/9
f 377/451/9 287/452/9 189/453/9 332/454/9
f 375/440/9 376/450/9 209/283/9 257/282/9
f 213/170/9 261/169/9 370/352/9 371/355/9
f 325/434/8 243/455/8 164/456/8 192/436/8
f 238/339/9 333/457/9 188/458/9 162/340/9
f 336/459/9 415/460/9 369/324/9 335/461/9
f 153/276/9 239/432/9 335/461/9 169/277/9
f 367/462/9 368/463/9 234/349/9 281/464/9
f 338/465/9 337/348/9 365/365/9 364/322/9
f 365/365/9 337/348/9 186/351/9 235/342/9
f 342/466/9 417/467/9 362/468/9 341/469/9
f 252/411/8 397/399/8 359/470/8 298/375/8
f 173/164/9 157/163/9 281/464/9 338/465/9
f 161/350/9 236/471/9 341/469/9 185/331/9
f 188/458/9 285/345/9 344/441/9 207/472/9
f 164/456/8 245/382/8 347/473/8 191/370/8
f 194/474/8 294/343/8 350/475/8 208/476/8
f 357/477/8 358/478/8 251/378/8 299/416/8
f 256/390/9 304/479/9 353/480/9 354/481/9
f 354/481/9 355/482/9 254/483/9 302/484/9
f 166/485/8 196/376/8 352/486/8 295/487/8
f 258/311/9 210/259/9 424/258/9 353/480/9
f 304/479/9 146/312/9 258/311/9 353/480/9
f 350/475/8 328/446/8 380/488/8 421/418/8
f 168/391/9 256/390/9 354/481/9 302/484/9
f 254/483/9 355/482/9 230/301/9 158/300/9
f 260/302/8 212/262/8 423/261/8 356/489/8
f 301/380/8 148/303/8 260/302/8 356/489/8
f 355/482/9 424/258/9 278/260/9 230/301/9
f 167/405/8 253/404/8 357/477/8 299/416/8
f 251/378/8 358/478/8 232/292/8 160/291/8
f 358/478/8 423/261/8 280/263/8 232/292/8
f 196/376/8 298/375/8 359/470/8 352/486/8
f 246/490/8 296/422/8 394/400/8 410/428/8
f 249/368/8 351/491/8 184/287/8 152/286/8
f 193/492/8 208/476/8 349/417/8 246/490/8
f 291/357/8 156/308/8 172/307/8 348/493/8
f 163/494/9 190/495/9 346/496/9 286/497/9
f 362/468/9 406/498/9 303/499/9 233/332/9
f 191/370/8 347/473/8 360/500/8 242/371/8
f 253/404/8 301/380/8 356/489/8 357/477/8
f 359/470/8 422/501/8 351/491/8 352/486/8
f 190/495/9 289/360/9 361/359/9 346/496/9
f 237/502/9 287/452/9 377/451/9 415/460/9
f 240/347/9 345/503/9 182/296/9 150/295/9
f 187/504/9 207/472/9 343/447/9 237/502/9
f 282/335/9 154/317/9 170/316/9 342/466/9
f 235/342/9 186/351/9 206/330/9 340/442/9
f 396/419/8 399/406/8 314/409/8 318/374/8
f 185/331/9 341/469/9 362/468/9 233/332/9
f 348/493/8 420/505/8 360/500/8 347/473/8
f 339/333/9 307/393/9 404/392/9 363/443/9
f 340/442/9 206/330/9 339/333/9 363/443/9
f 284/341/9 162/340/9 187/504/9 336/459/9
f 218/315/9 266/314/9 405/386/9 417/467/9
f 221/165/9 173/164/9 338/465/9 364/322/9
f 186/351/13 161/350/13 165/363/13 194/474/13
f 274/319/9 226/318/9 416/334/9 366/506/9
f 277/161/9 139/160/9 274/319/9 366/506/9
f 361/359/9 419/507/9 345/503/9 346/496/9
f 157/163/9 229/162/9 367/462/9 281/464/9
f 234/349/9 368/463/9 236/471/9 161/350/9
f 149/168/9 181/167/9 334/508/9 283/509/9
f 360/500/8 401/385/8 300/510/8 242/371/8
f 169/277/9 335/461/9 369/324/9 217/278/9
f 229/162/9 277/161/9 366/506/9 367/462/9
f 283/509/9 238/339/9 414/338/9 370/352/9
f 261/169/9 149/168/9 283/509/9 370/352/9
f 368/463/9 416/334/9 282/335/9 236/471/9
f 137/159/9 213/170/9 371/355/9 273/274/9
f 225/275/9 372/431/9 239/432/9 153/276/9
f 371/355/9 372/431/9 225/275/9 273/274/9
f 181/167/9 269/166/9 373/323/9 334/508/9
f 177/280/9 331/511/9 241/437/9 145/281/9
f 381/336/13 373/323/13 364/322/13 390/337/13
f 286/497/9 240/347/9 412/346/9 374/439/9
f 288/438/9 163/494/9 286/497/9 374/439/9
f 373/323/9 413/366/9 333/457/9 334/508/9
f 145/281/9 241/437/9 375/440/9 257/282/9
f 209/283/9 376/450/9 214/293/9 138/254/9
f 265/279/9 378/325/9 331/511/9 177/280/9
f 287/452/9 329/449/9 205/512/9 189/453/9
f 329/449/9 379/448/9 330/513/9 205/512/9
f 405/386/9 306/387/9 305/389/9 406/498/9
f 327/372/8 313/407/8 399/406/8 380/488/8
f 328/446/8 204/369/8 327/372/8 380/488/8
f 293/364/8 165/363/8 193/492/8 324/427/8
f 220/306/8 268/305/8 400/383/8 420/505/8
f 223/178/8 175/177/8 326/433/8 381/336/8
f 293/364/13 236/471/13 282/335/13 248/430/13
f 276/310/8 228/309/8 411/356/8 383/354/8
f 279/174/8 143/173/8 276/310/8 383/354/8
f 377/451/9 332/454/9 331/511/9 378/325/9
f 159/176/8 231/175/8 384/353/8 290/445/8
f 243/455/8 385/381/8 245/382/8 164/456/8
f 151/181/8 183/180/8 322/514/8 292/515/8
f 403/328/9 222/298/9 270/297/9 419/507/9
f 171/267/8 323/429/8 386/320/8 219/268/8
f 231/175/8 279/174/8 383/354/8 384/353/8
f 292/515/8 247/362/8 409/361/8 387/424/8
f 263/182/8 151/181/8 292/515/8 387/424/8
f 384/353/8 385/381/8 243/455/8 290/445/8
f 141/172/8 215/183/8 388/425/8 275/264/8
f 227/265/8 389/426/8 248/430/8 155/266/8
f 389/426/8 409/361/8 293/364/8 248/430/8
f 183/180/8 271/179/8 390/337/8 322/514/8
f 247/362/8 321/516/8 194/474/8 165/363/8
f 295/487/8 249/368/8 407/367/8 391/414/8
f 297/413/8 166/485/8 295/487/8 391/414/8
f 390/337/8 408/517/8 321/516/8 322/514/8
f 147/271/8 250/412/8 392/415/8 259/272/8
f 211/273/8 393/421/8 216/284/8 142/256/8
f 267/269/8 395/321/8 319/402/8 179/270/8
f 296/422/8 317/420/8 203/373/8 195/423/8
f 317/420/8 396/419/8 318/374/8 203/373/8
f 379/448/9 404/392/9 308/395/9 330/513/9
f 313/407/8 300/510/8 197/403/8 202/408/8
f 252/411/8 198/410/8 316/397/8 397/399/8
f 300/510/8 401/385/8 311/384/8 197/403/8
f 200/396/9 168/391/9 302/484/9 310/326/9
f 307/393/9 303/499/9 199/388/9 201/394/9
f 255/358/9 200/396/9 310/326/9 402/329/9
f 303/499/9 406/498/9 305/389/9 199/388/9
f 309/327/9 254/483/9 158/300/9 174/299/9
f 291/357/13 239/432/13 284/341/13 245/382/13
f 320/401/8 195/423/8 166/485/8 297/413/8
f 420/505/13 369/324/13 415/460/13 360/500/13
f 343/447/13 327/372/13 242/371/13 237/502/13
f 321/516/8 408/517/8 294/343/8 194/474/8
f 324/427/8 193/492/8 246/490/8 410/428/8
f 366/506/13 388/425/13 387/424/13 367/462/13
f 326/433/13 290/445/13 283/509/13 334/508/13
f 205/512/9 330/513/9 289/360/9 190/495/9
f 380/488/13 418/444/13 363/443/13 421/418/13
f 332/454/9 189/453/9 163/494/9 288/438/9
f 349/417/13 339/333/13 233/332/13 246/490/13
f 362/468/13 417/467/13 386/320/13 410/428/13
f 333/457/9 413/366/9 285/345/9 188/458/9
f 322/514/13 338/465/13 281/464/13 292/515/13
f 336/459/9 187/504/9 237/502/9 415/460/9
f 382/435/8 244/344/8 294/343/8 408/517/8
f 306/387/9 178/313/9 146/312/9 304/479/9
f 164/456/13 162/340/13 188/458/13 192/436/13
f 342/466/9 170/316/9 218/315/9 417/467/9
f 207/472/9 344/441/9 418/444/9 343/447/9
f 345/503/9 419/507/9 270/297/9 182/296/9
f 348/493/8 172/307/8 220/306/8 420/505/8
f 208/476/8 350/475/8 421/418/8 349/417/8
f 351/491/8 422/501/8 272/288/8 184/287/8
f 398/398/8 224/289/8 272/288/8 422/501/8
f 312/379/13 331/511/13 332/454/13 311/384/13
f 197/403/13 189/453/13 205/512/13 202/408/13
f 314/409/13 330/513/13 308/395/13 318/374/13
f 199/388/13 195/423/13 203/373/13 201/394/13
f 306/387/13 319/402/13 320/401/13 305/389/13
f 353/480/13 392/415/13 391/414/13 354/481/13
f 352/486/13 310/326/13 302/484/13 295/487/13
f 397/399/13 361/359/13 402/329/13 359/470/13
f 346/496/13 316/397/13 299/416/13 286/497/13
f 356/489/13 375/440/13 374/439/13 357/477/13
f 389/426/32 388/425/32 366/506/32 416/334/32
f 393/421/32 392/415/32 353/480/32 424/258/32
f 407/367/11 393/421/11 424/258/11 355/482/11
f 248/430/32 282/335/32 342/466/32 323/429/32
f 395/321/32 386/320/32 417/467/32 405/386/32
f 250/412/32 319/402/32 306/387/32 304/479/32
f 292/515/32 281/464/32 234/349/32 247/362/32
f 165/363/32 161/350/32 185/331/32 193/492/32
f 296/422/32 246/490/32 233/332/32 303/499/32
f 166/485/32 195/423/32 199/388/32 168/391/32
f 249/368/32 295/487/32 302/484/32 254/483/32
f 390/337/32 364/322/32 365/365/32 408/517/32
f 350/475/32 294/343/32 235/342/32 340/442/32
f 404/392/32 396/419/32 421/418/32 363/443/32
f 255/358/32 298/375/32 318/374/32 308/395/32
f 403/328/32 422/501/32 359/470/32 402/329/32
f 325/434/32 326/433/32 334/508/32 333/457/32
f 204/369/32 192/436/32 188/458/32 207/472/32
f 313/407/32 327/372/32 343/447/32 329/449/32
f 198/410/32 202/408/32 205/512/32 190/495/32
f 315/377/32 316/397/32 346/496/32 345/503/32
f 385/381/32 384/353/32 370/352/32 414/338/32
f 284/341/32 336/459/32 347/473/32 245/382/32
f 401/385/32 360/500/32 415/460/32 377/451/32
f 253/404/32 311/384/32 332/454/32 288/438/32
f 358/478/32 357/477/32 374/439/32 412/346/32
f 351/491/11 249/368/11 254/483/11 309/327/11
f 403/328/11 419/507/11 398/398/11 422/501/11
f 345/503/11 240/347/11 251/378/11 315/377/11
f 412/346/11 376/450/11 423/261/11 358/478/11
f 288/438/11 241/437/11 301/380/11 253/404/11
f 190/495/11 163/494/11 167/405/11 198/410/11
f 255/358/11 289/360/11 252/411/11 298/375/11
f 196/376/11 166/485/11 168/391/11 200/396/11
f 297/413/11 250/412/11 304/479/11 256/390/11
f 394/400/11 395/321/11 405/386/11 406/498/11
f 317/420/11 296/422/11 303/499/11 307/393/11
f 399/406/11 396/419/11 404/392/11 379/448/11
f 329/449/11 287/452/11 300/510/11 313/407/11
f 377/451/11 378/325/11 400/383/11 401/385/11
f 336/459/11 335/461/11 348/493/11 347/473/11
f 191/370/11 204/369/11 207/472/11 187/504/11
f 340/442/11 344/441/11 328/446/11 350/475/11
f 185/331/11 206/330/11 208/476/11 193/492/11
f 324/427/11 323/429/11 342/466/11 341/469/11
f 409/361/11 389/426/11 416/334/11 368/463/11
f 321/516/11 247/362/11 234/349/11 337/348/11
f 382/435/11 408/517/11 365/365/11 413/366/11
f 333/457/11 238/339/11 243/455/11 325/434/11
f 411/356/11 385/381/11 414/338/11 372/431/11
f 368/463/27 367/462/27 387/424/27 409/361/27
f 236/471/27 293/364/27 324/427/27 341/469/27
f 406/498/27 362/468/27 410/428/27 394/400/27
f 256/390/27 305/389/27 320/401/27 297/413/27
f 355/482/27 354/481/27 391/414/27 407/367/27
f 309/327/27 310/326/27 352/486/27 351/491/27
f 200/396/27 201/394/27 203/373/27 196/376/27
f 307/393/27 339/333/27 349/417/27 317/420/27
f 194/474/27 208/476/27 206/330/27 186/351/27
f 338/465/27 322/514/27 321/516/27 337/348/27
f 373/323/27 381/336/27 382/435/27 413/366/27
f 344/441/27 285/345/27 244/344/27 328/446/27
f 399/406/27 379/448/27 418/444/27 380/488/27
f 252/411/27 289/360/27 330/513/27 314/409/27
f 398/398/27 419/507/27 361/359/27 397/399/27
f 240/347/27 286/497/27 299/416/27 251/378/27
f 163/494/27 189/453/27 197/403/27 167/405/27
f 287/452/27 237/502/27 242/371/27 300/510/27
f 162/340/27 164/456/27 191/370/27 187/504/27
f 238/339/27 283/509/27 290/445/27 243/455/27
f 372/431/27 371/355/27 383/354/27 411/356/27
f 291/357/27 348/493/27 335/461/27 239/432/27
f 378/325/27 369/324/27 420/505/27 400/383/27
f 241/437/27 331/511/27 312/379/27 301/380/27
f 376/450/27 375/440/27 356/489/27 423/261/27
usemtl Noir_Profond
f 25/159/9 26/254/9 130/94/9 129/158/9
f 28/255/9 27/160/9 131/157/9 132/95/9
f 29/172/8 30/256/8 134/83/8 133/171/8
f 32/257/8 31/173/8 135/153/8 136/84/8
f 27/160/9 25/159/9 129/158/9 131/157/9
f 26/254/9 28/255/9 132/95/9 130/94/9
f 31/173/8 29/172/8 133/171/8 135/153/8
f 30/256/8 32/257/8 136/84/8 134/83/8
