# Blender 4.2.3 LTS
# www.blender.org
mtllib SM_Sol_Light.mtl
o SM_Sol_Light
v 0.326667 0.029885 -0.326667
v 0.326667 0.029885 0.326667
v -0.326667 0.029885 -0.326667
v -0.326667 0.029885 0.326667
v -0.326667 -0.029885 -0.326667
v -0.326667 -0.029885 0.326667
v 0.326667 -0.029885 -0.326667
v 0.326667 -0.029885 0.326667
v -0.258247 -0.025000 -0.380647
v -0.258247 -0.025000 0.380647
v 0.258247 -0.025000 -0.380647
v 0.258247 -0.025000 0.380647
v 0.258247 0.025000 -0.380647
v 0.258247 0.025000 0.380647
v -0.258247 0.025000 -0.380647
v -0.258247 0.025000 0.380647
v 0.380647 0.025000 -0.258247
v 0.380647 0.025000 0.258247
v -0.380647 0.025000 -0.258247
v -0.380647 0.025000 0.258247
v -0.380647 -0.025000 -0.258247
v -0.380647 -0.025000 0.258247
v 0.380647 -0.025000 -0.258247
v 0.380647 -0.025000 0.258247
v -0.295731 -0.015128 -0.295731
v -0.295731 -0.015128 0.295731
v 0.295731 -0.015128 -0.295731
v 0.295731 -0.015128 0.295731
v 0.295731 0.015128 -0.295731
v 0.295731 0.015128 0.295731
v -0.295731 0.015128 -0.295731
v -0.295731 0.015128 0.295731
v 0.326667 -0.023213 -0.500000
v 0.326667 -0.029885 -0.493768
v -0.326667 -0.029885 -0.493768
v -0.326667 -0.023213 -0.500000
v -0.326667 0.023213 -0.500000
v -0.326667 0.029885 -0.493768
v 0.326667 0.029885 -0.493768
v 0.326667 0.023213 -0.500000
v -0.326667 -0.023213 0.500000
v -0.326667 -0.029885 0.493768
v 0.326667 -0.029885 0.493768
v 0.326667 -0.023213 0.500000
v 0.326667 0.023213 0.500000
v 0.326667 0.029885 0.493768
v -0.326667 0.029885 0.493768
v -0.326667 0.023213 0.500000
v 0.255467 -0.025000 -0.424258
v 0.305876 -0.019418 -0.484322
v -0.305876 -0.019418 -0.484322
v -0.255467 -0.025000 -0.424258
v -0.255467 0.025000 -0.424258
v -0.305876 0.019418 -0.484322
v 0.305876 0.019418 -0.484322
v 0.255467 0.025000 -0.424258
v -0.255467 -0.025000 0.424258
v -0.305876 -0.019418 0.484322
v 0.305876 -0.019418 0.484322
v 0.255467 -0.025000 0.424258
v 0.255467 0.025000 0.424258
v 0.305876 0.019418 0.484322
v -0.305876 0.019418 0.484322
v -0.255467 0.025000 0.424258
v -0.500000 -0.023213 -0.326667
v -0.493768 -0.029885 -0.326667
v -0.493768 -0.029885 0.326667
v -0.500000 -0.023213 0.326667
v -0.500000 0.023213 0.326667
v -0.493768 0.029885 0.326667
v -0.493768 0.029885 -0.326667
v -0.500000 0.023213 -0.326667
v 0.500000 -0.023213 0.326667
v 0.493768 -0.029885 0.326667
v 0.493768 -0.029885 -0.326667
v 0.500000 -0.023213 -0.326667
v 0.500000 0.023213 -0.326667
v 0.493768 0.029885 -0.326667
v 0.493768 0.029885 0.326667
v 0.500000 0.023213 0.326667
v -0.424258 -0.025000 -0.255467
v -0.484322 -0.019418 -0.305876
v -0.484322 -0.019418 0.305876
v -0.424258 -0.025000 0.255467
v -0.424258 0.025000 0.255467
v -0.484322 0.019418 0.305876
v -0.484322 0.019418 -0.305876
v -0.424258 0.025000 -0.255467
v 0.424258 -0.025000 0.255467
v 0.484322 -0.019418 0.305876
v 0.484322 -0.019418 -0.305876
v 0.424258 -0.025000 -0.255467
v 0.424258 0.025000 -0.255467
v 0.484322 0.019418 -0.305876
v 0.484322 0.019418 0.305876
v 0.424258 0.025000 0.255467
v -0.475613 -0.029885 0.493793
v -0.477299 -0.023213 0.500000
v -0.493793 -0.029885 0.475613
v -0.500000 -0.023213 0.477299
v -0.493793 0.029885 0.475613
v -0.500000 0.023213 0.477299
v -0.475613 0.029885 0.493793
v -0.477299 0.023213 0.500000
v -0.493793 -0.029885 -0.475613
v -0.500000 -0.023213 -0.477299
v -0.475613 -0.029885 -0.493793
v -0.477299 -0.023213 -0.500000
v -0.475613 0.029885 -0.493793
v -0.477299 0.023213 -0.500000
v -0.493793 0.029885 -0.475613
v -0.500000 0.023213 -0.477299
v 0.493793 -0.029885 0.475613
v 0.500000 -0.023213 0.477299
v 0.475613 -0.029885 0.493793
v 0.477299 -0.023213 0.500000
v 0.475613 0.029885 0.493793
v 0.477299 0.023213 0.500000
v 0.493793 0.029885 0.475613
v 0.500000 0.023213 0.477299
v 0.475613 -0.029885 -0.493793
v 0.477299 -0.023213 -0.500000
v 0.493793 -0.029885 -0.475613
v 0.500000 -0.023213 -0.477299
v 0.493793 0.029885 -0.475613
v 0.500000 0.023213 -0.477299
v 0.475613 0.029885 -0.493793
v 0.477299 0.023213 -0.500000
v -0.315778 -0.015128 -0.315778
v -0.315778 -0.015128 0.315778
v 0.315778 -0.015128 -0.315778
v 0.315778 -0.015128 0.315778
v 0.315778 0.015128 -0.315778
v 0.315778 0.015128 0.315778
v -0.315778 0.015128 -0.315778
v -0.315778 0.015128 0.315778
v -0.282893 -0.025000 -0.282893
v -0.282893 -0.025000 0.282893
v 0.282893 -0.025000 -0.282893
v 0.282893 -0.025000 0.282893
v 0.282892 0.025000 -0.282892
v 0.282892 0.025000 0.282892
v -0.282892 0.025000 -0.282892
v -0.282892 0.025000 0.282892
v -0.315778 0.025000 -0.326667
v 0.315778 0.025000 -0.326667
v -0.315778 0.025000 0.326667
v 0.315778 0.025000 0.326667
v 0.315778 -0.025000 -0.326667
v -0.315778 -0.025000 -0.326667
v 0.315778 -0.025000 0.326667
v -0.315778 -0.025000 0.326667
v 0.326667 0.025000 -0.315778
v 0.326667 0.025000 0.315778
v -0.326667 0.025000 -0.315778
v -0.326667 0.025000 0.315778
v -0.326667 -0.025000 -0.315778
v -0.326667 -0.025000 0.315778
v 0.326667 -0.025000 -0.315778
v 0.326667 -0.025000 0.315778
v 0.306116 -0.024999 -0.478238
v -0.306116 -0.024999 -0.478238
v -0.306116 0.024999 -0.478238
v 0.306116 0.024999 -0.478238
v -0.306116 -0.024999 0.478238
v 0.306116 -0.024999 0.478238
v 0.306116 0.024999 0.478238
v -0.306116 0.024999 0.478238
v -0.478238 -0.024999 -0.306116
v -0.478238 -0.024999 0.306116
v -0.478238 0.024999 0.306116
v -0.478238 0.024999 -0.306116
v 0.478238 -0.024999 0.306116
v 0.478238 -0.024999 -0.306116
v 0.478238 0.024999 -0.306116
v 0.478238 0.024999 0.306116
v -0.242260 0.020000 -0.395647
v 0.242260 0.020000 -0.395647
v -0.242260 0.020000 0.395647
v 0.242260 0.020000 0.395647
v 0.242260 -0.020000 -0.395647
v -0.242260 -0.020000 -0.395647
v 0.242260 -0.020000 0.395647
v -0.242260 -0.020000 0.395647
v 0.395647 0.020000 -0.242260
v 0.395647 0.020000 0.242260
v -0.395647 0.020000 -0.242260
v -0.395647 0.020000 0.242260
v -0.395647 -0.020000 -0.242260
v -0.395647 -0.020000 0.242260
v 0.395647 -0.020000 -0.242260
v 0.395647 -0.020000 0.242260
v 0.241393 -0.020000 -0.409258
v -0.241393 -0.020000 -0.409258
v -0.241393 0.020000 -0.409258
v 0.241393 0.020000 -0.409258
v -0.241393 -0.020000 0.409258
v 0.241393 -0.020000 0.409258
v 0.241393 0.020000 0.409258
v -0.241393 0.020000 0.409258
v -0.409258 -0.020000 -0.241393
v -0.409258 -0.020000 0.241393
v -0.409258 0.020000 0.241393
v -0.409258 0.020000 -0.241393
v 0.409258 -0.020000 0.241393
v 0.409258 -0.020000 -0.241393
v 0.409258 0.020000 -0.241393
v 0.409258 0.020000 0.241393
v -0.258247 0.020000 -0.380647
v 0.258247 0.020000 -0.380647
v -0.258247 0.020000 0.380647
v 0.258247 0.020000 0.380647
v 0.258247 -0.020000 -0.380647
v -0.258247 -0.020000 -0.380647
v 0.258247 -0.020000 0.380647
v -0.258247 -0.020000 0.380647
v 0.380647 0.020000 -0.258247
v 0.380647 0.020000 0.258247
v -0.380647 0.020000 -0.258247
v -0.380647 0.020000 0.258247
v -0.380647 -0.020000 -0.258247
v -0.380647 -0.020000 0.258247
v 0.380647 -0.020000 -0.258247
v 0.380647 -0.020000 0.258247
v 0.255467 -0.020000 -0.424258
v -0.255467 -0.020000 -0.424258
v -0.255467 0.020000 -0.424258
v 0.255467 0.020000 -0.424258
v -0.255467 -0.020000 0.424258
v 0.255467 -0.020000 0.424258
v 0.255467 0.020000 0.424258
v -0.255467 0.020000 0.424258
v -0.424258 -0.020000 -0.255467
v -0.424258 -0.020000 0.255467
v -0.424258 0.020000 0.255467
v -0.424258 0.020000 -0.255467
v 0.424258 -0.020000 0.255467
v 0.424258 -0.020000 -0.255467
v 0.424258 0.020000 -0.255467
v 0.424258 0.020000 0.255467
v -0.242260 0.017500 -0.395647
v 0.242260 0.017500 -0.395647
v -0.242260 0.017500 0.395647
v 0.242260 0.017500 0.395647
v 0.242260 -0.017500 -0.395647
v -0.242260 -0.017500 -0.395647
v 0.242260 -0.017500 0.395647
v -0.242260 -0.017500 0.395647
v 0.395647 0.017500 -0.242260
v 0.395647 0.017500 0.242260
v -0.395647 0.017500 -0.242260
v -0.395647 0.017500 0.242260
v -0.395647 -0.017500 -0.242260
v -0.395647 -0.017500 0.242260
v 0.395647 -0.017500 -0.242260
v 0.395647 -0.017500 0.242260
v 0.241393 -0.017500 -0.409258
v -0.241393 -0.017500 -0.409258
v -0.241393 0.017500 -0.409258
v 0.241393 0.017500 -0.409258
v -0.241393 -0.017500 0.409258
v 0.241393 -0.017500 0.409258
v 0.241393 0.017500 0.409258
v -0.241393 0.017500 0.409258
v -0.409258 -0.017500 -0.241393
v -0.409258 -0.017500 0.241393
v -0.409258 0.017500 0.241393
v -0.409258 0.017500 -0.241393
v 0.409258 -0.017500 0.241393
v 0.409258 -0.017500 -0.241393
v 0.409258 0.017500 -0.241393
v 0.409258 0.017500 0.241393
vn -0.2928 0.9561 0.0089
vn 0.2928 -0.9561 -0.0089
vn 0.2928 0.9561 -0.0089
vn -0.6021 -0.0000 0.7984
vn 0.7984 -0.0000 -0.6021
vn 0.2928 0.9561 0.0089
vn -0.0089 0.9561 0.2928
vn -0.0000 1.0000 -0.0000
vn -0.0000 -0.0000 -1.0000
vn -0.0000 -1.0000 -0.0000
vn -0.2928 0.9561 -0.0089
vn -0.2928 -0.9561 0.0089
vn 0.0636 -0.0000 0.9980
vn -0.0000 -0.0000 1.0000
vn 0.0089 -0.9561 0.2928
vn 0.9980 -0.0000 -0.0636
vn -0.0000 0.7408 -0.6717
vn -0.4892 0.7220 -0.4892
vn -0.0000 -0.7408 -0.6717
vn 0.6021 -0.0000 -0.7984
vn 0.4892 -0.7220 -0.4892
vn -0.4892 -0.7220 -0.4892
vn -0.7984 -0.0000 0.6021
vn 0.0089 0.9561 -0.2928
vn 0.4892 0.7220 -0.4892
vn -0.2928 -0.9561 -0.0089
vn 0.0089 0.9561 0.2928
vn -0.6021 -0.0000 -0.7984
vn 1.0000 -0.0000 -0.0000
vn 0.2928 -0.9561 0.0089
vn -0.0089 -0.9561 0.2928
vn 0.6021 -0.0000 0.7984
vn -0.7984 -0.0000 -0.6021
vn -1.0000 -0.0000 -0.0000
vn -0.9980 -0.0000 -0.0636
vn 0.7984 -0.0000 0.6021
vn -0.0089 -0.9561 -0.2928
vn -0.0089 0.9561 -0.2928
vn -0.7071 -0.0000 0.7071
vn 0.4892 0.7220 0.4892
vn 0.6717 0.7408 -0.0000
vn -0.4892 -0.7220 0.4892
vn -0.6717 -0.7408 -0.0000
vn 0.4892 -0.7220 0.4892
vn 0.6717 -0.7408 -0.0000
vn -0.0000 -0.7408 0.6717
vn -0.0000 -0.7927 -0.6096
vn -0.4892 0.7220 0.4892
vn -0.6717 0.7408 -0.0000
vn -0.0000 0.7408 0.6717
vn -0.0000 0.7927 -0.6096
vn -0.7071 -0.0000 -0.7071
vn 0.7071 -0.0000 0.7071
vn 0.7071 -0.0000 -0.7071
vn 0.0089 -0.9561 -0.2928
vn 0.5610 -0.5923 -0.5783
vn -0.5610 0.5923 -0.5783
vn -0.5610 -0.5923 0.5783
vn 0.5610 0.5923 0.5783
vn -0.5610 -0.5923 -0.5783
vn -0.0000 -0.7369 -0.6760
vn 0.5610 0.5923 -0.5783
vn -0.0000 0.7369 -0.6760
vn 0.5610 -0.5923 0.5783
vn -0.0000 -0.7369 0.6760
vn -0.5610 0.5923 0.5783
vn -0.0000 0.7369 0.6760
vn -0.5783 -0.5923 -0.5610
vn -0.5783 0.5923 0.5610
vn 0.5783 -0.5923 0.5610
vn 0.5783 0.5923 -0.5610
vn -0.5783 -0.5923 0.5610
vn -0.6760 -0.7369 -0.0000
vn -0.5783 0.5923 -0.5610
vn -0.6760 0.7369 -0.0000
vn 0.5783 -0.5923 -0.5610
vn 0.6760 -0.7369 -0.0000
vn 0.5783 0.5923 0.5610
vn 0.6760 0.7369 -0.0000
vn -0.5424 -0.6416 0.5424
vn -0.5424 0.6416 0.5424
vn -0.5424 0.6416 -0.5424
vn -0.5424 -0.6416 -0.5424
vn 0.5424 0.6416 -0.5424
vn 0.5424 -0.6416 -0.5424
vn 0.5424 0.6416 0.5424
vn 0.5424 -0.6416 0.5424
vn -0.7314 -0.6819 -0.0001
vn -0.7314 0.6819 -0.0001
vn 0.0001 -0.6819 0.7314
vn 0.0001 0.6819 0.7314
vn 0.0001 -0.6819 -0.7314
vn 0.0001 0.6819 -0.7314
vn -0.7314 -0.6819 0.0001
vn -0.7314 0.6819 0.0001
vn -0.0001 -0.6819 0.7314
vn -0.0001 0.6819 0.7314
vn 0.7314 -0.6819 -0.0001
vn 0.7314 0.6819 -0.0001
vn 0.7314 -0.6819 0.0001
vn 0.7314 0.6819 0.0001
vn -0.0001 -0.6819 -0.7314
vn -0.0001 0.6819 -0.7314
vn 0.6096 0.7927 -0.0000
vn -0.6096 -0.7927 -0.0000
vn -0.0000 0.7927 0.6096
vn -0.0000 -0.7927 0.6096
vn -0.6096 0.7927 -0.0000
vn 0.6096 -0.7927 -0.0000
vn -0.0636 -0.0000 0.9980
vn -0.0636 -0.0000 -0.9980
vn 0.0636 -0.0000 -0.9980
vn -0.9980 -0.0000 0.0636
vn 0.9980 -0.0000 0.0636
vt 0.708333 0.501948
vt 0.736111 0.502020
vt 0.736111 0.583333
vt 0.708333 0.583333
vt 0.208333 0.666667
vt 0.236111 0.666667
vt 0.236111 0.747980
vt 0.208333 0.748052
vt 0.763889 0.666667
vt 0.791667 0.666667
vt 0.791667 0.748052
vt 0.763889 0.747980
vt 0.402905 0.833333
vt 0.597095 0.833333
vt 0.597094 0.861111
vt 0.402906 0.861111
vt 0.402906 0.638889
vt 0.597094 0.638889
vt 0.597095 0.666667
vt 0.402905 0.666667
vt 0.763889 0.502020
vt 0.791667 0.501948
vt 0.791667 0.583333
vt 0.763889 0.583333
vt 0.626948 0.583333
vt 0.708333 0.611111
vt 0.627020 0.611111
vt 0.873052 0.666667
vt 0.873060 0.742379
vt 0.867379 0.748060
vt 0.761467 0.719021
vt 0.738533 0.719021
vt 0.291667 0.666667
vt 0.373052 0.666667
vt 0.373060 0.742379
vt 0.367379 0.748060
vt 0.291667 0.748052
vt 0.708333 0.666667
vt 0.736111 0.666667
vt 0.736111 0.747980
vt 0.708333 0.748052
vt 0.126948 0.666667
vt 0.132621 0.748060
vt 0.126940 0.742379
vt 0.402905 0.257094
vt 0.597095 0.257094
vt 0.597095 0.333333
vt 0.402905 0.333333
vt 0.263889 0.502020
vt 0.291667 0.501948
vt 0.291667 0.583333
vt 0.263889 0.583333
vt 0.126940 0.507621
vt 0.132621 0.501940
vt 0.208333 0.501948
vt 0.208333 0.583333
vt 0.126948 0.583333
vt 0.155979 0.613533
vt 0.179374 0.613519
vt 0.402905 0.757094
vt 0.597095 0.757094
vt 0.597095 0.833333
vt 0.402905 0.833333
vt 0.261467 0.719021
vt 0.238533 0.719021
vt 0.402905 0.916667
vt 0.597095 0.916667
vt 0.597095 0.992906
vt 0.402905 0.992906
vt 0.597094 0.888889
vt 0.402906 0.888889
vt 0.626948 0.666667
vt 0.708333 0.748052
vt 0.632621 0.748060
vt 0.626940 0.742379
vt 0.126948 0.583333
vt 0.208333 0.611111
vt 0.127020 0.611111
vt 0.761481 0.695625
vt 0.736111 0.638889
vt 0.763889 0.638889
vt 0.626940 0.507621
vt 0.632621 0.501940
vt 0.708333 0.501948
vt 0.626948 0.583333
vt 0.708333 0.638889
vt 0.402906 0.361111
vt 0.597094 0.361111
vt 0.597094 0.388889
vt 0.402906 0.388889
vt 0.236111 0.638889
vt 0.263889 0.638889
vt 0.263889 0.666667
vt 0.402905 0.333333
vt 0.208333 0.638889
vt 0.291667 0.501948
vt 0.367379 0.501940
vt 0.373060 0.507621
vt 0.373052 0.583333
vt 0.291667 0.638889
vt 0.402906 0.138889
vt 0.597094 0.138889
vt 0.597095 0.166667
vt 0.402905 0.166667
vt 0.791667 0.638889
vt 0.872980 0.638889
vt 0.791667 0.501948
vt 0.867379 0.501940
vt 0.873060 0.507621
vt 0.873052 0.583333
vt 0.738533 0.530979
vt 0.761467 0.530979
vt 0.291667 0.748052
vt 0.263889 0.747980
vt 0.873052 0.583333
vt 0.872980 0.611111
vt 0.791667 0.611111
vt 0.597095 0.416667
vt 0.402905 0.416667
vt 0.402905 0.666667
vt 0.597095 0.742906
vt 0.402905 0.742906
vt 0.208333 0.501948
vt 0.236111 0.502020
vt 0.236111 0.583333
vt 0.373052 0.583333
vt 0.372980 0.611111
vt 0.291667 0.611111
vt 0.402905 0.916667
vt 0.402905 0.083333
vt 0.597095 0.083333
vt 0.597094 0.111111
vt 0.402906 0.111111
vt 0.402905 0.007094
vt 0.597095 0.007094
vt 0.402905 0.083333
vt 0.738519 0.695625
vt 0.402905 0.507094
vt 0.597095 0.507094
vt 0.597095 0.583333
vt 0.402905 0.583333
vt 0.238533 0.530979
vt 0.261467 0.530979
vt 0.402905 0.583333
vt 0.597095 0.583333
vt 0.597094 0.611111
vt 0.402906 0.611111
vt 0.372980 0.638889
vt 0.261481 0.695625
vt 0.627020 0.638889
vt 0.626948 0.666667
vt 0.402905 0.000000
vt 0.597095 0.000000
vt 0.402905 0.007094
vt 0.763889 0.611111
vt 0.402905 0.166667
vt 0.597095 0.242906
vt 0.402905 0.242906
vt 0.263889 0.611111
vt 0.236111 0.611111
vt 0.236993 0.611993
vt 0.263007 0.611993
vt 0.736111 0.611111
vt 0.736993 0.611993
vt 0.763007 0.611993
vt 0.402905 0.257094
vt 0.402905 0.242906
vt 0.597095 0.242906
vt 0.597095 0.757094
vt 0.402905 0.757094
vt 0.402905 0.742906
vt 0.597095 0.742906
vt 0.402905 0.507094
vt 0.402905 0.492906
vt 0.597095 0.492906
vt 0.127020 0.638889
vt 0.208333 0.500000
vt 0.236111 0.500000
vt 0.625000 0.388889
vt 0.625000 0.410846
vt 0.291667 0.750000
vt 0.263889 0.750000
vt 0.625000 0.888889
vt 0.625000 0.910846
vt 0.263889 0.500000
vt 0.291666 0.500000
vt 0.263889 0.502020
vt 0.236111 0.502020
vt 0.625000 0.339154
vt 0.625000 0.361111
vt 0.236111 0.750000
vt 0.208333 0.750000
vt 0.236111 0.747980
vt 0.263889 0.747980
vt 0.625000 0.839154
vt 0.625000 0.861111
vt 0.125000 0.666667
vt 0.125000 0.638889
vt 0.625000 0.138889
vt 0.625000 0.160846
vt 0.125000 0.611111
vt 0.125000 0.583333
vt 0.625000 0.089154
vt 0.625000 0.111111
vt 0.627020 0.611111
vt 0.627020 0.638889
vt 0.132094 0.750000
vt 0.125000 0.742906
vt 0.625000 0.000707
vt 0.625000 0.006388
vt 0.625000 0.244319
vt 0.625000 0.255681
vt 0.125000 0.507094
vt 0.132094 0.500000
vt 0.625000 0.494319
vt 0.625000 0.505681
vt 0.367906 0.500000
vt 0.375000 0.507094
vt 0.625000 0.744319
vt 0.625000 0.755681
vt 0.375000 0.742906
vt 0.367906 0.750000
vt 0.625000 0.007621
vt 0.625000 0.083333
vt 0.625000 0.916667
vt 0.625000 0.992379
vt 0.208333 0.500000
vt 0.625000 0.257621
vt 0.625000 0.333333
vt 0.125000 0.583333
vt 0.625000 0.166667
vt 0.625000 0.242379
vt 0.291667 0.750000
vt 0.625000 0.757621
vt 0.625000 0.833333
vt 0.291667 0.500000
vt 0.625000 0.416667
vt 0.625000 0.492379
vt 0.597095 0.492906
vt 0.597095 0.416667
vt 0.402905 0.416667
vt 0.402905 0.492906
vt 0.236993 0.638007
vt 0.263007 0.638007
vt 0.736993 0.638007
vt 0.763007 0.638007
vt 0.738518 0.554374
vt 0.761481 0.554375
vt 0.238519 0.554374
vt 0.261481 0.554375
vt 0.238519 0.695625
vt 0.679374 0.636481
vt 0.679374 0.613519
vt 0.820625 0.613519
vt 0.820625 0.636481
vt 0.179374 0.636481
vt 0.320625 0.613519
vt 0.320625 0.636481
vt 0.736111 0.502020
vt 0.763889 0.502020
vt 0.763889 0.747980
vt 0.736111 0.747980
vt 0.155979 0.636467
vt 0.844021 0.636467
vt 0.844021 0.613533
vt 0.344021 0.636467
vt 0.344021 0.613533
vt 0.655979 0.613533
vt 0.655979 0.636467
vt 0.328672 0.614194
vt 0.335974 0.614200
vt 0.260806 0.546327
vt 0.239194 0.546327
vt 0.664026 0.635800
vt 0.664026 0.614200
vt 0.335974 0.635800
vt 0.328672 0.635806
vt 0.739194 0.703672
vt 0.760806 0.703672
vt 0.828672 0.614194
vt 0.835974 0.614200
vt 0.760806 0.546327
vt 0.739194 0.546327
vt 0.260806 0.703672
vt 0.239194 0.703672
vt 0.671327 0.635806
vt 0.671327 0.614194
vt 0.828672 0.635806
vt 0.171327 0.635806
vt 0.171327 0.614194
vt 0.260800 0.539026
vt 0.239200 0.539026
vt 0.760800 0.539026
vt 0.739200 0.539026
vt 0.239200 0.710974
vt 0.260800 0.710974
vt 0.739200 0.710974
vt 0.760800 0.710974
vt 0.164026 0.614200
vt 0.164026 0.635800
vt 0.835974 0.635800
s 0
usemtl Noir_Light
f 39/1/1 164/2/1 146/3/1 1/4/1
f 6/5/2 152/6/2 165/7/2 42/8/2
f 147/9/3 4/10/3 47/11/3 168/12/3
f 44/13/4 45/14/4 62/15/4 59/16/4
f 90/17/5 95/18/5 80/19/5 73/20/5
f 163/21/6 38/22/6 3/23/6 145/24/6
f 78/25/7 1/4/7 153/26/7 175/27/7
f 4/10/8 70/28/8 101/29/8 103/30/8 47/11/8
f 64/31/9 61/32/9 231/32/9 232/31/9
f 8/33/10 74/34/10 113/35/10 115/36/10 43/37/10
f 2/38/11 148/39/11 167/40/11 46/41/11
f 67/42/10 6/5/10 42/8/10 97/43/10 99/44/10
f 108/45/9 110/46/9 37/47/9 36/48/9
f 161/49/12 34/50/12 7/51/12 149/52/12
f 105/53/10 107/54/10 35/55/10 5/56/10 66/57/10
f 81/58/13 21/59/13 221/59/13 233/58/13
f 116/60/14 118/61/14 45/62/14 44/63/14
f 60/64/9 57/65/9 229/65/9 230/64/9
f 41/66/14 48/67/14 104/68/14 98/69/14
f 59/16/14 62/15/14 63/70/14 58/71/14
f 79/72/8 2/38/8 46/73/8 117/74/8 119/75/8
f 66/76/15 5/56/15 157/77/15 169/78/15
f 16/79/16 64/31/16 232/31/16 211/79/16
f 134/80/17 136/81/17 147/9/17 148/39/17
f 125/82/8 127/83/8 39/84/8 1/4/8 78/85/8
f 154/86/18 134/80/18 148/39/18 2/38/18
f 51/87/9 54/88/9 55/89/9 50/90/9
f 130/91/19 132/92/19 151/93/19 152/6/19
f 36/94/20 37/47/20 54/88/20 51/87/20
f 158/95/21 130/91/21 152/6/21 6/5/21
f 34/96/10 121/97/10 123/98/10 75/99/10 7/51/10
f 132/92/22 160/100/22 8/33/22 151/93/22
f 82/101/23 87/102/23 72/103/23 65/104/23
f 156/105/24 171/106/24 70/28/24 4/10/24
f 38/107/8 109/108/8 111/109/8 71/110/8 3/23/8
f 136/81/25 156/105/25 4/10/25 147/9/25
f 56/111/14 53/112/14 227/112/14 228/111/14
f 151/93/26 8/33/26 43/113/26 166/114/26
f 3/23/27 71/115/27 172/116/27 155/117/27
f 50/90/28 55/89/28 40/118/28 33/119/28
f 73/120/29 80/19/29 120/121/29 114/122/29
f 35/123/30 162/124/30 150/125/30 5/56/30
f 7/51/31 75/126/31 174/127/31 159/128/31
f 58/71/32 63/70/32 48/67/32 41/129/32
f 68/130/33 69/131/33 86/132/33 83/133/33
f 100/134/34 102/135/34 69/131/34 68/136/34
f 61/32/35 14/137/35 212/137/35 231/32/35
f 124/138/29 126/139/29 77/140/29 76/141/29
f 52/142/14 49/143/14 225/143/14 226/142/14
f 76/144/36 77/145/36 94/146/36 91/147/36
f 91/147/29 94/146/29 95/18/29 90/17/29
f 160/100/37 173/148/37 74/34/37 8/33/37
f 12/149/35 60/64/35 230/64/35 215/149/35
f 176/150/38 154/86/38 2/38/38 79/151/38
f 98/152/39 104/153/39 102/135/39 100/154/39
f 145/24/40 3/23/40 155/117/40 135/155/40
f 135/155/41 155/117/41 156/105/41 136/81/41
f 65/156/34 72/103/34 112/157/34 106/158/34
f 83/133/34 86/132/34 87/102/34 82/101/34
f 149/52/42 7/51/42 159/128/42 131/159/42
f 131/159/43 159/128/43 160/100/43 132/92/43
f 5/56/44 150/125/44 129/160/44 157/77/44
f 157/77/45 129/160/45 130/91/45 158/95/45
f 150/125/46 149/52/46 131/159/46 129/160/46
f 25/161/47 27/162/47 139/162/47 137/161/47
f 1/4/48 146/3/48 133/163/48 153/26/48
f 153/26/49 133/163/49 134/80/49 154/86/49
f 146/3/50 145/24/50 135/155/50 133/163/50
f 29/164/51 31/165/51 143/165/51 141/164/51
f 110/46/52 108/166/52 106/167/52 112/168/52
f 118/169/53 116/170/53 114/171/53 120/172/53
f 126/139/54 124/173/54 122/174/54 128/175/54
f 170/176/55 158/95/55 6/5/55 67/42/55
f 162/124/56 35/123/56 36/177/56 51/178/56
f 164/179/57 39/180/57 40/118/57 55/89/57
f 166/114/58 43/113/58 44/181/58 59/182/58
f 168/183/59 47/184/59 48/67/59 63/70/59
f 34/50/60 161/49/60 50/185/60 33/186/60
f 161/187/61 162/188/61 51/178/61 50/185/61
f 38/189/62 163/190/62 54/88/62 37/47/62
f 163/190/63 164/179/63 55/89/63 54/88/63
f 42/8/64 165/7/64 58/191/64 41/192/64
f 165/193/65 166/194/65 59/182/65 58/191/65
f 46/195/66 167/196/66 62/15/66 45/14/66
f 167/196/67 168/183/67 63/70/67 62/15/67
f 170/176/68 67/42/68 68/197/68 83/198/68
f 172/199/69 71/200/69 72/103/69 87/102/69
f 174/127/70 75/126/70 76/144/70 91/147/70
f 176/150/71 79/151/71 80/19/71 95/18/71
f 66/76/72 169/78/72 82/201/72 65/202/72
f 169/78/73 170/176/73 83/198/73 82/201/73
f 70/203/74 171/204/74 86/132/74 69/131/74
f 171/204/75 172/199/75 87/102/75 86/132/75
f 74/34/76 173/148/76 90/17/76 73/20/76
f 173/148/77 174/127/77 91/147/77 90/17/77
f 78/25/78 175/27/78 94/146/78 77/145/78
f 175/205/79 176/206/79 95/18/79 94/146/79
f 99/44/80 97/43/80 98/207/80 100/208/80
f 103/209/81 101/210/81 102/135/81 104/153/81
f 111/211/82 109/212/82 110/46/82 112/168/82
f 107/54/83 105/53/83 106/213/83 108/214/83
f 127/215/84 125/216/84 126/139/84 128/175/84
f 123/98/85 121/97/85 122/217/85 124/218/85
f 119/219/86 117/220/86 118/169/86 120/172/86
f 115/36/87 113/35/87 114/221/87 116/222/87
f 67/42/88 99/44/88 100/208/88 68/197/88
f 101/223/89 70/224/89 69/131/89 102/135/89
f 97/43/90 42/8/90 41/192/90 98/207/90
f 47/225/91 103/226/91 104/68/91 48/67/91
f 35/55/92 107/54/92 108/214/92 36/227/92
f 109/228/93 38/229/93 37/47/93 110/46/93
f 65/230/94 106/213/94 105/53/94 66/57/94
f 71/231/95 111/232/95 112/157/95 72/103/95
f 43/37/96 115/36/96 116/222/96 44/233/96
f 117/234/97 46/235/97 45/62/97 118/61/97
f 73/120/98 114/122/98 113/35/98 74/34/98
f 79/72/99 119/75/99 120/121/99 80/19/99
f 75/99/100 123/98/100 124/138/100 76/141/100
f 125/82/101 78/85/101 77/140/101 126/139/101
f 33/236/102 122/217/102 121/97/102 34/96/102
f 39/237/103 127/238/103 128/239/103 40/240/103
f 33/241/9 40/240/9 128/239/9 122/242/9
f 137/161/10 139/162/10 140/244/10 138/243/10
f 141/164/8 143/165/8 144/246/8 142/245/8
f 30/245/104 29/164/104 141/164/104 142/245/104
f 26/243/105 25/161/105 137/161/105 138/243/105
f 32/246/106 30/245/106 142/245/106 144/246/106
f 28/244/107 26/243/107 138/243/107 140/244/107
f 31/165/108 32/246/108 144/246/108 143/165/108
f 27/162/109 28/244/109 140/244/109 139/162/109
f 13/247/8 15/248/8 145/24/8 146/3/8
f 16/79/8 14/137/8 148/39/8 147/9/8
f 9/249/10 11/250/10 149/52/10 150/125/10
f 12/149/10 10/251/10 152/6/10 151/93/10
f 18/252/8 17/253/8 153/26/8 154/86/8
f 19/254/8 20/255/8 156/105/8 155/117/8
f 22/256/10 21/59/10 157/77/10 158/95/10
f 23/257/10 24/258/10 160/100/10 159/128/10
f 49/143/10 52/142/10 162/188/10 161/187/10
f 53/112/8 56/111/8 164/259/8 163/260/8
f 57/65/10 60/64/10 166/194/10 165/193/10
f 61/32/8 64/31/8 168/261/8 167/262/8
f 81/58/10 84/263/10 170/176/10 169/78/10
f 85/264/8 88/265/8 172/116/8 171/106/8
f 89/266/10 92/267/10 174/127/10 173/148/10
f 93/268/8 96/269/8 176/206/8 175/205/8
f 11/250/10 49/143/10 161/187/10 149/52/10
f 52/142/10 9/249/10 150/125/10 162/188/10
f 15/248/8 53/112/8 163/260/8 145/24/8
f 56/111/8 13/247/8 146/3/8 164/259/8
f 10/251/10 57/65/10 165/193/10 152/6/10
f 60/64/10 12/149/10 151/93/10 166/194/10
f 14/137/8 61/32/8 167/262/8 148/39/8
f 64/31/8 16/79/8 147/9/8 168/261/8
f 21/59/10 81/58/10 169/78/10 157/77/10
f 84/263/10 22/256/10 158/95/10 170/176/10
f 20/255/8 85/264/8 171/106/8 156/105/8
f 88/265/8 19/254/8 155/117/8 172/116/8
f 24/258/10 89/266/10 173/148/10 160/100/10
f 92/267/10 23/257/10 159/128/10 174/127/10
f 17/253/8 93/268/8 175/205/8 153/26/8
f 96/269/8 18/252/8 154/86/8 176/206/8
f 22/256/112 84/263/112 234/263/112 222/256/112
f 84/263/29 81/58/29 233/58/29 234/263/29
f 85/264/112 20/255/112 220/255/112 235/264/112
f 88/265/29 85/264/29 235/264/29 236/265/29
f 15/248/9 13/247/9 210/247/9 209/248/9
f 19/254/13 88/265/13 236/265/13 219/254/13
f 92/267/34 89/266/34 237/266/34 238/267/34
f 14/137/14 16/79/14 211/79/14 212/137/14
f 89/266/111 24/258/111 224/258/111 237/266/111
f 96/269/34 93/268/34 239/268/34 240/269/34
f 11/250/9 9/249/9 214/249/9 213/250/9
f 23/257/110 92/267/110 238/267/110 223/257/110
f 49/143/113 11/250/113 213/250/113 225/143/113
f 10/251/14 12/149/14 215/149/14 216/251/14
f 93/268/110 17/253/110 217/253/110 239/268/110
f 9/249/114 52/142/114 226/142/114 214/249/114
f 17/253/29 18/252/29 218/252/29 217/253/29
f 18/252/111 96/269/111 240/269/111 218/252/111
f 53/112/114 15/248/114 209/248/114 227/112/114
f 20/255/34 19/254/34 219/254/34 220/255/34
f 13/247/113 56/111/113 228/111/113 210/247/113
f 21/59/34 22/256/34 222/256/34 221/59/34
f 57/65/16 10/251/16 216/251/16 229/65/16
f 24/258/29 23/257/29 223/257/29 224/258/29
usemtl Noir_Profond
f 25/161/10 26/243/10 130/91/10 129/160/10
f 28/244/10 27/162/10 131/159/10 132/92/10
f 29/164/8 30/245/8 134/80/8 133/163/8
f 32/246/8 31/165/8 135/155/8 136/81/8
f 27/162/10 25/161/10 129/160/10 131/159/10
f 26/243/10 28/244/10 132/92/10 130/91/10
f 31/165/8 29/164/8 133/163/8 135/155/8
f 30/245/8 32/246/8 136/81/8 134/80/8
f 191/270/110 206/271/110 270/271/110 255/270/110
f 181/272/9 182/273/9 246/273/9 245/272/9
f 208/274/34 207/275/34 271/275/34 272/274/34
f 205/276/111 192/277/111 256/277/111 269/276/111
f 180/278/14 179/279/14 243/279/14 244/278/14
f 206/271/34 205/276/34 269/276/34 270/271/34
f 187/280/13 204/281/13 268/281/13 251/280/13
f 177/282/9 178/283/9 242/283/9 241/282/9
f 178/283/8 177/282/8 209/248/8 210/247/8
f 179/279/8 180/278/8 212/137/8 211/79/8
f 182/273/10 181/272/10 213/250/10 214/249/10
f 183/284/10 184/285/10 216/251/10 215/149/10
f 186/286/8 185/287/8 217/253/8 218/252/8
f 187/280/8 188/288/8 220/255/8 219/254/8
f 190/289/10 189/290/10 221/59/10 222/256/10
f 191/270/10 192/277/10 224/258/10 223/257/10
f 193/291/10 194/292/10 226/142/10 225/143/10
f 195/293/8 196/294/8 228/111/8 227/112/8
f 197/295/10 198/296/10 230/64/10 229/65/10
f 199/297/8 200/298/8 232/31/8 231/32/8
f 201/299/10 202/300/10 234/263/10 233/58/10
f 203/301/8 204/281/8 236/265/8 235/264/8
f 205/276/10 206/271/10 238/267/10 237/266/10
f 207/275/8 208/274/8 240/269/8 239/268/8
f 181/272/10 193/291/10 225/143/10 213/250/10
f 194/292/10 182/273/10 214/249/10 226/142/10
f 177/282/8 195/293/8 227/112/8 209/248/8
f 196/294/8 178/283/8 210/247/8 228/111/8
f 184/285/10 197/295/10 229/65/10 216/251/10
f 198/296/10 183/284/10 215/149/10 230/64/10
f 180/278/8 199/297/8 231/32/8 212/137/8
f 200/298/8 179/279/8 211/79/8 232/31/8
f 189/290/10 201/299/10 233/58/10 221/59/10
f 202/300/10 190/289/10 222/256/10 234/263/10
f 188/288/8 203/301/8 235/264/8 220/255/8
f 204/281/8 187/280/8 219/254/8 236/265/8
f 192/277/10 205/276/10 237/266/10 224/258/10
f 206/271/10 191/270/10 223/257/10 238/267/10
f 185/287/8 207/275/8 239/268/8 217/253/8
f 208/274/8 186/286/8 218/252/8 240/269/8
f 193/291/113 181/272/113 245/272/113 257/291/113
f 184/285/14 183/284/14 247/284/14 248/285/14
f 207/275/110 185/287/110 249/287/110 271/275/110
f 182/273/114 194/292/114 258/292/114 246/273/114
f 185/287/29 186/286/29 250/286/29 249/287/29
f 186/286/111 208/274/111 272/274/111 250/286/111
f 195/293/114 177/282/114 241/282/114 259/293/114
f 188/288/34 187/280/34 251/280/34 252/288/34
f 178/283/113 196/294/113 260/294/113 242/283/113
f 189/290/34 190/289/34 254/289/34 253/290/34
f 197/295/16 184/285/16 248/285/16 261/295/16
f 192/277/29 191/270/29 255/270/29 256/277/29
f 183/284/35 198/296/35 262/296/35 247/284/35
f 194/292/14 193/291/14 257/291/14 258/292/14
f 199/297/35 180/278/35 244/278/35 263/297/35
f 196/294/14 195/293/14 259/293/14 260/294/14
f 179/279/16 200/298/16 264/298/16 243/279/16
f 198/296/9 197/295/9 261/295/9 262/296/9
f 201/299/13 189/290/13 253/290/13 265/299/13
f 200/298/9 199/297/9 263/297/9 264/298/9
f 190/289/112 202/300/112 266/300/112 254/289/112
f 202/300/29 201/299/29 265/299/29 266/300/29
f 203/301/112 188/288/112 252/288/112 267/301/112
f 204/281/29 203/301/29 267/301/29 268/281/29
usemtl Bleu_Neon
f 258/292/10 257/291/10 245/272/10 246/273/10
f 260/294/8 259/293/8 241/282/8 242/283/8
f 244/278/8 243/279/8 264/298/8 263/297/8
f 248/285/10 247/284/10 262/296/10 261/295/10
f 265/299/10 253/290/10 254/289/10 266/300/10
f 251/280/8 268/281/8 267/301/8 252/288/8
f 271/275/8 249/287/8 250/286/8 272/274/8
f 255/270/10 270/271/10 269/276/10 256/277/10
