# Blender 4.2.3 LTS
# www.blender.org
mtllib SM_Barriere_001.mtl
o SM_Barriere_001
v -0.025000 0.530012 0.357300
v -0.025000 0.565462 0.357300
v -0.025000 0.530012 -0.357300
v -0.025000 0.565462 -0.357300
v 0.025000 0.530012 0.357300
v 0.025000 0.565462 0.357300
v 0.025000 0.530012 -0.357300
v 0.025000 0.565462 -0.357300
v -0.019665 0.542037 -0.343540
v -0.019665 0.542037 0.343540
v -0.019665 0.553437 0.343540
v -0.019665 0.553437 -0.343540
v 0.019665 0.553437 -0.343540
v 0.019665 0.542037 -0.343540
v 0.019665 0.542037 0.343540
v 0.019665 0.553437 0.343540
v -0.019665 0.530012 -0.357300
v -0.019665 0.530012 0.357300
v -0.019665 0.565462 0.357300
v -0.019665 0.565462 -0.357300
v 0.019665 0.565462 -0.357300
v 0.019665 0.530012 -0.357300
v 0.019665 0.530012 0.357300
v 0.019665 0.565462 0.357300
v -0.017145 0.542037 -0.343540
v -0.017145 0.542037 0.343540
v -0.017145 0.553437 0.343540
v -0.017145 0.553437 -0.343540
v 0.017145 0.553437 -0.343540
v 0.017145 0.542037 -0.343540
v 0.017145 0.542037 0.343540
v 0.017145 0.553437 0.343540
v -0.025000 0.513028 -0.375356
v -0.025000 0.513028 0.375356
v -0.025000 0.582446 0.375356
v -0.025000 0.582446 -0.375356
v 0.025000 0.582446 -0.375356
v 0.025000 0.513028 -0.375356
v 0.025000 0.513028 0.375356
v 0.025000 0.582446 0.375356
v -0.025000 0.517695 -0.383471
v -0.021667 0.519361 -0.389165
v -0.025000 0.501760 -0.368611
v -0.025000 0.501760 0.368611
v -0.021667 0.519361 0.389165
v -0.025000 0.517695 0.383471
v -0.025000 0.577779 0.383471
v -0.021667 0.576113 0.389165
v -0.021667 0.597737 0.366202
v -0.025000 0.593714 0.368611
v -0.025000 0.593714 -0.368611
v -0.021667 0.597737 -0.366202
v -0.021667 0.576113 -0.389165
v -0.025000 0.577779 -0.383471
v 0.025000 0.577779 -0.383471
v 0.021667 0.576113 -0.389165
v 0.021667 0.597737 -0.366202
v 0.025000 0.593714 -0.368611
v 0.025000 0.501760 -0.368611
v 0.021667 0.519361 -0.389165
v 0.025000 0.517695 -0.383471
v 0.025000 0.517695 0.383471
v 0.021667 0.519361 0.389165
v 0.025000 0.501760 0.368611
v 0.025000 0.593714 0.368611
v 0.021667 0.597737 0.366202
v 0.021667 0.576113 0.389165
v 0.025000 0.577779 0.383471
v -0.021667 0.497737 -0.366202
v -0.021667 0.497737 0.366202
v 0.021667 0.497737 0.366202
v 0.021667 0.497737 -0.366202
v -0.016048 -0.016680 -0.036212
v -0.016048 -0.016680 0.036212
v -0.016048 0.011858 0.036212
v -0.016048 0.011858 -0.036212
v -0.013233 0.497737 -0.036212
v -0.013854 0.497737 -0.035590
v -0.013877 0.497737 -0.036833
v -0.013854 0.497737 0.035590
v -0.013233 0.497737 0.036212
v -0.013877 0.497737 0.036833
v 0.013854 0.497737 -0.035590
v 0.013233 0.497737 -0.036212
v 0.013877 0.497737 -0.036833
v 0.013233 0.497737 0.036212
v 0.013854 0.497737 0.035590
v 0.013877 0.497737 0.036833
v -0.013854 -0.015703 -0.036212
v -0.013854 -0.016680 -0.035590
v -0.014476 -0.016680 -0.036212
v -0.013854 -0.016680 0.035590
v -0.013854 -0.015703 0.036212
v -0.014476 -0.016680 0.036212
v 0.013854 0.017515 0.035590
v 0.013233 0.017117 0.036212
v 0.013459 0.016414 0.035590
v 0.013854 0.017515 -0.035590
v 0.013459 0.016414 -0.035590
v 0.013233 0.017117 -0.036212
v -0.013233 0.012510 0.036212
v -0.013854 0.011858 0.035590
v -0.014476 0.011858 0.036212
v -0.013854 0.011237 0.036212
v 0.013233 0.040268 0.036212
v 0.013854 0.040920 0.035590
v 0.013854 0.040920 -0.035590
v 0.013233 0.040268 -0.036212
v -0.013854 0.011858 -0.035590
v -0.013233 0.012510 -0.036212
v -0.013854 0.011237 -0.036212
v -0.014476 0.011858 -0.036212
vn -0.0000 -1.0000 -0.0000
vn -1.0000 -0.0000 -0.0000
vn -0.0000 -0.0000 -1.0000
vn -0.0000 1.0000 -0.0000
vn 1.0000 -0.0000 -0.0000
vn -0.0000 -0.0000 1.0000
vn -0.0000 -0.7280 -0.6856
vn -0.0000 -0.7280 0.6856
vn -0.0000 0.7280 0.6856
vn -0.0000 0.7280 -0.6856
vn -0.5133 -0.6090 -0.6047
vn -0.5133 -0.6090 0.6047
vn -0.5133 0.6090 0.6047
vn -0.5133 0.6090 -0.6047
vn 0.5133 0.6090 -0.6047
vn 0.5133 -0.6090 -0.6047
vn 0.5133 -0.6090 0.6047
vn 0.5133 0.6090 0.6047
vn -0.7701 -0.6380 -0.0000
vn -0.8630 -0.0000 -0.5052
vn 0.8630 -0.0000 -0.5052
vn 0.7701 -0.6380 -0.0000
vn -0.8630 -0.0000 0.5052
vn 0.8630 -0.0000 0.5052
vn -0.7701 0.6379 -0.0000
vn 0.7701 0.6379 -0.0000
vn 0.7713 -0.6365 -0.0000
vn -0.0001 -1.0000 -0.0000
vn 0.0001 -1.0000 -0.0000
vn 0.6448 -0.4104 -0.6448
vn 0.6448 -0.4104 0.6448
vn 0.7621 -0.2739 0.5867
vn 0.7621 -0.2739 -0.5867
vn -0.3477 0.6630 0.6630
vn -0.3477 0.6630 -0.6630
vn 0.9411 -0.3382 -0.0000
vn 0.5454 -0.4501 -0.7071
vn 0.5454 -0.4501 0.7071
vn 0.7071 -0.0000 0.7071
vn 0.7071 -0.0000 -0.7071
vn -0.7071 -0.0000 -0.7071
vn -0.7071 -0.0000 0.7071
vt 0.544312 0.514671
vt 0.544312 0.735329
vt 0.404976 0.005450
vt 0.424894 0.001829
vt 0.413227 0.006950
vt 0.455688 0.014671
vt 0.544312 0.014671
vt 0.641665 0.509829
vt 0.858335 0.509829
vt 0.858335 0.740171
vt 0.641665 0.740171
vt 0.455688 0.235329
vt 0.413227 0.243050
vt 0.385058 0.240928
vt 0.385058 0.009072
vt 0.413227 0.006950
vt 0.586773 0.506950
vt 0.614942 0.509072
vt 0.614942 0.740928
vt 0.586773 0.743050
vt 0.544312 0.235329
vt 0.586773 0.243050
vt 0.575106 0.248171
vt 0.424894 0.248171
vt 0.413227 0.243050
vt 0.595024 0.005450
vt 0.614942 0.009072
vt 0.586773 0.006950
vt 0.595024 0.244550
vt 0.429061 0.766665
vt 0.570939 0.766665
vt 0.570939 0.983335
vt 0.429061 0.983335
vt 0.375000 0.509072
vt 0.375000 0.501829
vt 0.375000 0.506950
vt 0.614942 0.750000
vt 0.575106 0.750000
vt 0.586773 0.750000
vt 0.375000 0.748171
vt 0.375000 0.740928
vt 0.375000 0.743050
vt 0.485751 0.020137
vt 0.514249 0.020137
vt 0.514249 0.229863
vt 0.485751 0.229863
vt 0.455688 0.514671
vt 0.455688 0.735330
vt 0.514249 0.520137
vt 0.485751 0.520137
vt 0.485751 0.729864
vt 0.514249 0.729863
vt 0.358335 0.509829
vt 0.141665 0.509829
vt 0.141665 0.500000
vt 0.358335 0.500000
vt 0.141665 0.740171
vt 0.358335 0.740171
vt 0.358335 0.750000
vt 0.141665 0.750000
vt 0.625000 0.766665
vt 0.625000 0.983335
vt 0.570939 0.766665
vt 0.625000 0.266665
vt 0.625000 0.483335
vt 0.570939 0.483335
vt 0.570939 0.266665
vt 0.413227 0.506950
vt 0.424894 0.501829
vt 0.575106 0.501829
vt 0.413227 0.743050
vt 0.385058 0.740928
vt 0.385058 0.509072
vt 0.575106 0.748171
vt 0.424894 0.748171
vt 0.429061 0.266665
vt 0.570939 0.266665
vt 0.429061 0.483335
vt 0.595024 0.505450
vt 0.424894 0.001829
vt 0.575106 0.001829
vt 0.586773 0.006950
vt 0.614942 0.240928
vt 0.180729 0.736620
vt 0.180729 0.736620
vt 0.125000 0.509072
vt 0.125000 0.501829
vt 0.402030 0.004915
vt 0.429061 0.000000
vt 0.597970 0.004915
vt 0.625000 0.009829
vt 0.597970 0.245085
vt 0.570939 0.250000
vt 0.617888 0.500000
vt 0.578052 0.500000
vt 0.141665 0.509829
vt 0.141665 0.740171
vt 0.125000 0.740171
vt 0.125000 0.509829
vt 0.358335 0.740171
vt 0.358335 0.509829
vt 0.570939 0.000000
vt 0.625000 0.240171
vt 0.125000 0.506950
vt 0.183836 0.513380
vt 0.316164 0.513380
vt 0.316164 0.513381
vt 0.183836 0.513380
vt 0.180729 0.513380
vt 0.180729 0.515296
vt 0.180729 0.734704
vt 0.316164 0.736619
vt 0.183836 0.736620
vt 0.183836 0.736620
vt 0.316164 0.736619
vt 0.319271 0.515296
vt 0.319271 0.734704
vt 0.319271 0.734704
vt 0.316164 0.513380
vt 0.316164 0.513381
vt 0.180729 0.734704
vt 0.180729 0.515296
vt 0.180729 0.513381
vt 0.180617 0.513370
vt 0.180617 0.736630
vt 0.319383 0.513370
vt 0.183836 0.513380
vt 0.180617 0.513370
vt 0.319383 0.736630
vt 0.319271 0.734704
vt 0.319383 0.513370
vt 0.180617 0.736630
vt 0.183836 0.736620
vt 0.316164 0.736619
vt 0.319383 0.736630
vt 0.319271 0.734704
vt 0.319271 0.734704
vt 0.319271 0.515296
vt 0.317293 0.515296
vt 0.317293 0.734704
vt 0.180729 0.734704
vt 0.316164 0.736620
vt 0.319271 0.513380
vt 0.319271 0.736619
vt 0.183125 0.736620
vt 0.180729 0.734704
s 0
usemtl Noir_Light
f 8/1/1 6/2/1 24/2/1 21/1/1
f 44/3/2 46/4/2 34/5/2
f 1/6/3 2/7/3 19/7/3 18/6/3
f 57/8/4 52/9/4 49/10/4 66/11/4
f 1/6/2 3/12/2 33/13/2 43/14/2 44/15/2 34/16/2
f 6/2/5 8/1/5 37/17/5 58/18/5 65/19/5 40/20/5
f 3/12/2 4/21/2 36/22/2 54/23/2 41/24/2 33/25/2
f 47/26/2 50/27/2 35/28/2
f 51/29/2 54/23/2 36/22/2
f 63/30/6 67/31/6 48/32/6 45/33/6
f 59/34/5 61/35/5 38/36/5
f 65/37/5 68/38/5 40/39/5
f 62/40/5 64/41/5 39/42/5
f 7/47/6 8/1/6 21/1/6 22/47/6
f 2/7/1 4/21/1 20/21/1 19/7/1
f 3/12/4 1/6/4 18/6/4 17/12/4
f 6/2/3 5/48/3 23/48/3 24/2/3
f 5/48/4 7/47/4 22/47/4 23/48/4
f 4/21/6 3/12/6 17/12/6 20/21/6
f 72/53/7 69/54/7 42/55/7 60/56/7
f 70/57/8 71/58/8 63/59/8 45/60/8
f 66/61/9 49/62/9 48/32/9 67/63/9
f 52/64/10 57/65/10 56/66/10 53/67/10
f 8/1/5 7/47/5 38/68/5 61/69/5 55/70/5 37/17/5
f 7/47/5 5/48/5 39/71/5 64/72/5 59/73/5 38/68/5
f 5/48/5 6/2/5 40/20/5 68/74/5 62/75/5 39/71/5
f 42/76/3 53/77/3 56/66/3 60/78/3
f 55/79/5 58/18/5 37/17/5
f 2/7/2 1/6/2 34/5/2 46/80/2 47/81/2 35/82/2
f 4/21/2 2/7/2 35/28/2 50/27/2 51/83/2 36/22/2
f 94/84/6 93/84/6 104/85/6 103/85/6 75/85/6 74/84/6
f 42/55/11 69/54/11 43/86/11 41/87/11
f 70/88/12 45/89/12 46/4/12 44/3/12
f 48/90/13 49/91/13 50/27/13 47/26/13
f 52/92/14 53/93/14 54/23/14 51/29/14
f 56/66/15 57/65/15 58/94/15 55/95/15
f 72/53/16 60/56/16 61/35/16 59/34/16
f 63/59/17 71/58/17 64/41/17 62/40/17
f 66/61/18 67/63/18 68/38/18 65/37/18
f 69/96/19 70/97/19 44/98/19 43/99/19
f 41/24/20 54/23/20 53/77/20 42/76/20
f 55/70/21 61/69/21 60/78/21 56/66/21
f 59/73/22 64/72/22 71/100/22 72/101/22
f 45/89/23 48/102/23 47/81/23 46/80/23
f 62/75/24 68/74/24 67/31/24 63/30/24
f 49/91/25 52/103/25 51/83/25 50/27/25
f 65/19/26 58/18/26 57/8/26 66/11/26
f 41/87/2 43/86/2 33/104/2
f 77/105/3 84/106/3 108/107/3 110/108/3
f 91/109/1 90/110/1 92/111/1 94/84/1 74/84/1 73/109/1
f 86/112/6 81/113/6 101/114/6 105/115/6
f 83/116/5 87/117/5 106/118/5 107/116/5
f 111/109/3 110/105/3 108/119/3 100/120/3 89/109/3
f 103/85/4 102/121/4 109/122/4 112/109/4 76/109/4 75/85/4
f 112/109/3 111/123/3 89/109/3 91/109/3 73/109/3 76/109/3
f 79/124/1 78/110/1 80/111/1 82/125/1 70/97/1 69/96/1
f 85/126/1 84/119/1 77/127/1 79/128/1 69/96/1 72/101/1
f 88/129/1 87/130/1 83/116/1 85/131/1 72/101/1 71/100/1
f 82/132/1 81/133/1 86/134/1 88/135/1 71/100/1 70/97/1
f 75/85/2 76/109/2 73/109/2 74/84/2
f 107/116/5 106/136/5 95/137/5 98/138/5
f 90/122/27 99/139/27 97/140/27 92/141/27
f 105/112/6 101/114/6 104/85/6 93/84/6 96/142/6
f 77/105/1 78/109/1 79/124/1
f 80/141/28 81/84/28 82/132/28
f 83/116/29 84/143/29 85/126/29
f 86/112/1 87/144/1 88/129/1
f 89/109/30 90/109/30 91/109/30
f 92/141/31 93/145/31 94/84/31
f 95/137/32 96/142/32 97/140/32
f 98/138/33 99/139/33 100/120/33
f 101/114/34 102/85/34 103/85/34 104/85/34
f 109/110/35 110/109/35 111/109/35 112/109/35
f 97/140/36 99/139/36 98/138/36 95/137/36
f 99/139/37 90/122/37 89/109/37 100/120/37
f 96/142/38 93/84/38 92/141/38 97/140/38
f 106/118/39 87/117/39 86/112/39 105/115/39
f 108/107/40 84/106/40 83/116/40 107/116/40
f 109/110/41 78/122/41 77/105/41 110/108/41
f 80/141/42 102/146/42 101/114/42 81/113/42
f 95/137/39 106/136/39 105/112/39 96/142/39
f 100/120/40 108/119/40 107/116/40 98/138/40
f 80/141/2 78/122/2 109/110/2 102/146/2
usemtl Noir_Profond
f 10/43/3 11/44/3 27/44/3 26/43/3
f 12/45/6 9/46/6 25/46/6 28/45/6
f 10/43/2 9/46/2 17/12/2 18/6/2
f 11/44/2 10/43/2 18/6/2 19/7/2
f 12/45/2 11/44/2 19/7/2 20/21/2
f 9/46/2 12/45/2 20/21/2 17/12/2
f 13/49/5 14/50/5 22/47/5 21/1/5
f 14/50/5 15/51/5 23/48/5 22/47/5
f 16/52/5 13/49/5 21/1/5 24/2/5
f 15/51/5 16/52/5 24/2/5 23/48/5
f 13/49/1 16/52/1 32/52/1 29/49/1
f 14/50/6 13/49/6 29/49/6 30/50/6
f 11/44/1 12/45/1 28/45/1 27/44/1
f 9/46/4 10/43/4 26/43/4 25/46/4
f 16/52/3 15/51/3 31/51/3 32/52/3
f 15/51/4 14/50/4 30/50/4 31/51/4
usemtl Bleu_Neon
f 26/43/2 27/44/2 28/45/2 25/46/2
f 30/50/5 29/49/5 32/52/5 31/51/5
