# Blender 4.2.3 LTS
# www.blender.org
mtllib SM_Escalier.mtl
o SM_Escalier
v -0.310326 0.985133 0.295978
v -0.310326 0.985133 -0.295978
v -0.310326 1.014868 -0.295978
v -0.310326 1.014868 0.295978
v -0.489672 0.985133 -0.295978
v -0.489672 0.985133 0.295978
v -0.489672 1.014868 0.295978
v -0.489672 1.014868 -0.295978
v -0.313911 0.994328 0.286784
v -0.313911 0.994328 -0.286784
v -0.313911 1.005674 -0.286784
v -0.313911 1.005674 0.286784
v -0.486087 0.994328 -0.286784
v -0.486087 0.994328 0.286784
v -0.486087 1.005674 0.286784
v -0.486087 1.005674 -0.286784
v -0.313911 0.985133 0.295978
v -0.313911 0.985133 -0.295978
v -0.313911 1.014868 -0.295978
v -0.313911 1.014868 0.295978
v -0.486087 0.985133 -0.295978
v -0.486087 0.985133 0.295978
v -0.486087 1.014868 0.295978
v -0.486087 1.014868 -0.295978
v -0.315710 0.994328 0.286784
v -0.315710 0.994328 -0.286784
v -0.315710 1.005674 -0.286784
v -0.315710 1.005674 0.286784
v -0.484288 0.994328 -0.286784
v -0.484288 0.994328 0.286784
v -0.484288 1.005674 0.286784
v -0.484288 1.005674 -0.286784
v -0.307057 0.975001 0.316667
v -0.299999 0.981411 0.316667
v -0.299999 0.981411 -0.316667
v -0.307057 0.975001 -0.316667
v -0.307057 1.025001 -0.316667
v -0.299999 1.018590 -0.316667
v -0.299999 1.018590 0.316667
v -0.307057 1.025001 0.316667
v -0.492941 0.975001 -0.316667
v -0.499999 0.981411 -0.316667
v -0.499999 0.981411 0.316667
v -0.492941 0.975001 0.316667
v -0.492941 1.025001 0.316667
v -0.499999 1.018590 0.316667
v -0.499999 1.018590 -0.316667
v -0.492941 1.025001 -0.316667
v -0.317407 0.975001 0.306111
v -0.310326 0.981411 0.306111
v -0.310326 0.981411 -0.306111
v -0.317407 0.975001 -0.306111
v -0.317407 1.025001 -0.306111
v -0.310326 1.018590 -0.306111
v -0.310326 1.018590 0.306111
v -0.317407 1.025001 0.306111
v -0.482591 0.975001 -0.306111
v -0.489672 0.981411 -0.306111
v -0.489672 0.981411 0.306111
v -0.482591 0.975001 0.306111
v -0.482591 1.025001 0.306111
v -0.489672 1.018590 0.306111
v -0.489672 1.018590 -0.306111
v -0.482591 1.025001 -0.306111
v -0.490231 0.982061 -0.500000
v -0.492965 0.975001 -0.492940
v -0.492939 0.984529 -0.500000
v -0.499999 0.981411 -0.492940
v -0.492939 1.015473 -0.500000
v -0.499999 1.018590 -0.492940
v -0.490231 1.017941 -0.500000
v -0.492965 1.025001 -0.492940
v -0.307059 0.984529 -0.500000
v -0.299999 0.981411 -0.492940
v -0.309767 0.982061 -0.500000
v -0.307033 0.975001 -0.492940
v -0.309767 1.017941 -0.500000
v -0.307033 1.025001 -0.492940
v -0.307059 1.015473 -0.500000
v -0.299999 1.018590 -0.492940
v -0.492939 0.984529 0.500000
v -0.499999 0.981411 0.492940
v -0.490231 0.982061 0.500000
v -0.492965 0.975001 0.492940
v -0.490231 1.017941 0.500000
v -0.492965 1.025001 0.492940
v -0.492939 1.015473 0.500000
v -0.499999 1.018590 0.492940
v -0.309767 0.982061 0.500000
v -0.307033 0.975001 0.492940
v -0.307059 0.984529 0.500000
v -0.299999 0.981411 0.492940
v -0.307059 1.015473 0.500000
v -0.299999 1.018590 0.492940
v -0.309767 1.017941 0.500000
v -0.307033 1.025001 0.492940
v 0.589674 0.085133 0.295380
v 0.589674 0.085133 -0.296577
v 0.589674 0.114868 -0.296577
v 0.589674 0.114868 0.295380
v 0.410328 0.085133 -0.296577
v 0.410328 0.085133 0.295380
v 0.410328 0.114868 0.295380
v 0.410328 0.114868 -0.296577
v 0.586089 0.094328 0.286186
v 0.586089 0.094328 -0.287383
v 0.586089 0.105674 -0.287383
v 0.586089 0.105674 0.286186
v 0.413913 0.094328 -0.287383
v 0.413913 0.094328 0.286186
v 0.413913 0.105674 0.286186
v 0.413913 0.105674 -0.287383
v 0.586089 0.085133 0.295380
v 0.586089 0.085133 -0.296577
v 0.586089 0.114868 -0.296577
v 0.586089 0.114868 0.295380
v 0.413913 0.085133 -0.296577
v 0.413913 0.085133 0.295380
v 0.413913 0.114868 0.295380
v 0.413913 0.114868 -0.296577
v 0.584290 0.094328 0.286186
v 0.584290 0.094328 -0.287383
v 0.584290 0.105674 -0.287383
v 0.584290 0.105674 0.286186
v 0.415712 0.094328 -0.287383
v 0.415712 0.094328 0.286186
v 0.415712 0.105674 0.286186
v 0.415712 0.105674 -0.287383
v 0.592943 0.075001 0.316068
v 0.600001 0.081411 0.316068
v 0.600001 0.081411 -0.317265
v 0.592943 0.075001 -0.317265
v 0.592943 0.125001 -0.317265
v 0.600001 0.118590 -0.317265
v 0.600001 0.118590 0.316068
v 0.592943 0.125001 0.316068
v 0.407059 0.075001 -0.317265
v 0.400001 0.081411 -0.317265
v 0.400001 0.081411 0.316068
v 0.407059 0.075001 0.316068
v 0.407059 0.125001 0.316068
v 0.400001 0.118590 0.316068
v 0.400001 0.118590 -0.317265
v 0.407059 0.125001 -0.317265
v 0.582593 0.075001 0.305513
v 0.589674 0.081411 0.305513
v 0.589674 0.081411 -0.306709
v 0.582593 0.075001 -0.306709
v 0.582593 0.125001 -0.306709
v 0.589674 0.118590 -0.306709
v 0.589674 0.118590 0.305513
v 0.582593 0.125001 0.305513
v 0.417409 0.075001 -0.306709
v 0.410328 0.081411 -0.306709
v 0.410328 0.081411 0.305513
v 0.417409 0.075001 0.305513
v 0.417409 0.125001 0.305513
v 0.410328 0.118590 0.305513
v 0.410328 0.118590 -0.306709
v 0.417409 0.125001 -0.306709
v 0.409769 0.082061 -0.500598
v 0.407035 0.075001 -0.493538
v 0.407061 0.084529 -0.500598
v 0.400001 0.081411 -0.493538
v 0.407061 0.115473 -0.500598
v 0.400001 0.118590 -0.493538
v 0.409769 0.117941 -0.500598
v 0.407035 0.125001 -0.493538
v 0.592941 0.084529 -0.500598
v 0.600001 0.081411 -0.493538
v 0.590233 0.082061 -0.500598
v 0.592967 0.075001 -0.493538
v 0.590233 0.117941 -0.500598
v 0.592967 0.125001 -0.493538
v 0.592941 0.115473 -0.500598
v 0.600001 0.118590 -0.493538
v 0.407061 0.084529 0.499402
v 0.400001 0.081411 0.492342
v 0.409769 0.082061 0.499402
v 0.407035 0.075001 0.492342
v 0.409769 0.117941 0.499402
v 0.407035 0.125001 0.492342
v 0.407061 0.115473 0.499402
v 0.400001 0.118590 0.492342
v 0.590233 0.082061 0.499402
v 0.592967 0.075001 0.492342
v 0.592941 0.084529 0.499402
v 0.600001 0.081411 0.492342
v 0.592941 0.115473 0.499402
v 0.600001 0.118590 0.492342
v 0.590233 0.117941 0.499402
v 0.592967 0.125001 0.492342
v 0.489674 0.185133 0.295380
v 0.489674 0.185133 -0.296577
v 0.489674 0.214868 -0.296577
v 0.489674 0.214868 0.295380
v 0.310328 0.185133 -0.296577
v 0.310328 0.185133 0.295380
v 0.310328 0.214868 0.295380
v 0.310328 0.214868 -0.296577
v 0.486089 0.194327 0.286186
v 0.486089 0.194327 -0.287383
v 0.486089 0.205674 -0.287383
v 0.486089 0.205674 0.286186
v 0.313913 0.194327 -0.287383
v 0.313913 0.194327 0.286186
v 0.313913 0.205674 0.286186
v 0.313913 0.205674 -0.287383
v 0.486089 0.185133 0.295380
v 0.486089 0.185133 -0.296577
v 0.486089 0.214868 -0.296577
v 0.486089 0.214868 0.295380
v 0.313913 0.185133 -0.296577
v 0.313913 0.185133 0.295380
v 0.313913 0.214868 0.295380
v 0.313913 0.214868 -0.296577
v 0.484290 0.194327 0.286186
v 0.484290 0.194327 -0.287383
v 0.484290 0.205674 -0.287383
v 0.484290 0.205674 0.286186
v 0.315712 0.194327 -0.287383
v 0.315712 0.194327 0.286186
v 0.315712 0.205674 0.286186
v 0.315712 0.205674 -0.287383
v 0.492943 0.175001 0.316068
v 0.500001 0.181411 0.316068
v 0.500001 0.181411 -0.317265
v 0.492943 0.175001 -0.317265
v 0.492943 0.225001 -0.317265
v 0.500001 0.218590 -0.317265
v 0.500001 0.218590 0.316068
v 0.492943 0.225001 0.316068
v 0.307059 0.175001 -0.317265
v 0.300001 0.181411 -0.317265
v 0.300001 0.181411 0.316068
v 0.307059 0.175001 0.316068
v 0.307059 0.225001 0.316068
v 0.300001 0.218590 0.316068
v 0.300001 0.218590 -0.317265
v 0.307059 0.225001 -0.317265
v 0.482593 0.175001 0.305513
v 0.489674 0.181411 0.305513
v 0.489674 0.181411 -0.306709
v 0.482593 0.175001 -0.306709
v 0.482593 0.225001 -0.306709
v 0.489674 0.218590 -0.306709
v 0.489674 0.218590 0.305513
v 0.482593 0.225001 0.305513
v 0.317409 0.175001 -0.306709
v 0.310328 0.181411 -0.306709
v 0.310328 0.181411 0.305513
v 0.317409 0.175001 0.305513
v 0.317409 0.225001 0.305513
v 0.310328 0.218590 0.305513
v 0.310328 0.218590 -0.306709
v 0.317409 0.225001 -0.306709
v 0.309769 0.182061 -0.500598
v 0.307035 0.175001 -0.493538
v 0.307061 0.184529 -0.500598
v 0.300001 0.181411 -0.493538
v 0.307061 0.215473 -0.500598
v 0.300001 0.218590 -0.493538
v 0.309769 0.217941 -0.500598
v 0.307035 0.225001 -0.493538
v 0.492941 0.184529 -0.500598
v 0.500001 0.181411 -0.493538
v 0.490233 0.182061 -0.500598
v 0.492967 0.175001 -0.493538
v 0.490233 0.217941 -0.500598
v 0.492967 0.225001 -0.493538
v 0.492941 0.215473 -0.500598
v 0.500001 0.218590 -0.493538
v 0.307061 0.184529 0.499402
v 0.300001 0.181411 0.492342
v 0.309769 0.182061 0.499402
v 0.307035 0.175001 0.492342
v 0.309769 0.217941 0.499402
v 0.307035 0.225001 0.492342
v 0.307061 0.215473 0.499402
v 0.300001 0.218590 0.492342
v 0.490233 0.182061 0.499402
v 0.492967 0.175001 0.492342
v 0.492941 0.184529 0.499402
v 0.500001 0.181411 0.492342
v 0.492941 0.215473 0.499402
v 0.500001 0.218590 0.492342
v 0.490233 0.217941 0.499402
v 0.492967 0.225001 0.492342
v 0.389674 0.285133 0.295380
v 0.389674 0.285133 -0.296577
v 0.389674 0.314868 -0.296577
v 0.389674 0.314868 0.295380
v 0.210328 0.285133 -0.296577
v 0.210328 0.285133 0.295380
v 0.210328 0.314868 0.295380
v 0.210328 0.314868 -0.296577
v 0.386089 0.294327 0.286186
v 0.386089 0.294327 -0.287383
v 0.386089 0.305674 -0.287383
v 0.386089 0.305674 0.286186
v 0.213913 0.294327 -0.287383
v 0.213913 0.294327 0.286186
v 0.213913 0.305674 0.286186
v 0.213913 0.305674 -0.287383
v 0.386089 0.285133 0.295380
v 0.386089 0.285133 -0.296577
v 0.386089 0.314868 -0.296577
v 0.386089 0.314868 0.295380
v 0.213913 0.285133 -0.296577
v 0.213913 0.285133 0.295380
v 0.213913 0.314868 0.295380
v 0.213913 0.314868 -0.296577
v 0.384290 0.294327 0.286186
v 0.384290 0.294327 -0.287383
v 0.384290 0.305674 -0.287383
v 0.384290 0.305674 0.286186
v 0.215712 0.294327 -0.287383
v 0.215712 0.294327 0.286186
v 0.215712 0.305674 0.286186
v 0.215712 0.305674 -0.287383
v 0.392943 0.275001 0.316068
v 0.400001 0.281411 0.316068
v 0.400001 0.281411 -0.317265
v 0.392943 0.275001 -0.317265
v 0.392943 0.325001 -0.317265
v 0.400001 0.318590 -0.317265
v 0.400001 0.318590 0.316068
v 0.392943 0.325001 0.316068
v 0.207059 0.275001 -0.317265
v 0.200001 0.281411 -0.317265
v 0.200001 0.281411 0.316068
v 0.207059 0.275001 0.316068
v 0.207059 0.325001 0.316068
v 0.200001 0.318590 0.316068
v 0.200001 0.318590 -0.317265
v 0.207059 0.325001 -0.317265
v 0.382593 0.275001 0.305513
v 0.389674 0.281411 0.305513
v 0.389674 0.281411 -0.306709
v 0.382593 0.275001 -0.306709
v 0.382593 0.325001 -0.306709
v 0.389674 0.318590 -0.306709
v 0.389674 0.318590 0.305513
v 0.382593 0.325001 0.305513
v 0.217409 0.275001 -0.306709
v 0.210328 0.281411 -0.306709
v 0.210328 0.281411 0.305513
v 0.217409 0.275001 0.305513
v 0.217409 0.325001 0.305513
v 0.210328 0.318590 0.305513
v 0.210328 0.318590 -0.306709
v 0.217409 0.325001 -0.306709
v 0.209769 0.282061 -0.500598
v 0.207035 0.275001 -0.493538
v 0.207061 0.284529 -0.500598
v 0.200001 0.281411 -0.493538
v 0.207061 0.315473 -0.500598
v 0.200001 0.318590 -0.493538
v 0.209769 0.317941 -0.500598
v 0.207035 0.325001 -0.493538
v 0.392941 0.284529 -0.500598
v 0.400001 0.281411 -0.493538
v 0.390233 0.282061 -0.500598
v 0.392967 0.275001 -0.493538
v 0.390233 0.317941 -0.500598
v 0.392967 0.325001 -0.493538
v 0.392941 0.315473 -0.500598
v 0.400001 0.318590 -0.493538
v 0.207061 0.284529 0.499402
v 0.200001 0.281411 0.492342
v 0.209769 0.282061 0.499402
v 0.207035 0.275001 0.492342
v 0.209769 0.317941 0.499402
v 0.207035 0.325001 0.492342
v 0.207061 0.315473 0.499402
v 0.200001 0.318590 0.492342
v 0.390233 0.282061 0.499402
v 0.392967 0.275001 0.492342
v 0.392941 0.284529 0.499402
v 0.400001 0.281411 0.492342
v 0.392941 0.315473 0.499402
v 0.400001 0.318590 0.492342
v 0.390233 0.317941 0.499402
v 0.392967 0.325001 0.492342
v 0.289674 0.385133 0.295380
v 0.289674 0.385133 -0.296577
v 0.289674 0.414868 -0.296577
v 0.289674 0.414868 0.295380
v 0.110328 0.385133 -0.296577
v 0.110328 0.385133 0.295380
v 0.110328 0.414868 0.295380
v 0.110328 0.414868 -0.296577
v 0.286089 0.394328 0.286186
v 0.286089 0.394328 -0.287383
v 0.286089 0.405674 -0.287383
v 0.286089 0.405674 0.286186
v 0.113913 0.394328 -0.287383
v 0.113913 0.394328 0.286186
v 0.113913 0.405674 0.286186
v 0.113913 0.405674 -0.287383
v 0.286089 0.385133 0.295380
v 0.286089 0.385133 -0.296577
v 0.286089 0.414868 -0.296577
v 0.286089 0.414868 0.295380
v 0.113913 0.385133 -0.296577
v 0.113913 0.385133 0.295380
v 0.113913 0.414868 0.295380
v 0.113913 0.414868 -0.296577
v 0.284290 0.394328 0.286186
v 0.284290 0.394328 -0.287383
v 0.284290 0.405674 -0.287383
v 0.284290 0.405674 0.286186
v 0.115712 0.394328 -0.287383
v 0.115712 0.394328 0.286186
v 0.115712 0.405674 0.286186
v 0.115712 0.405674 -0.287383
v 0.292943 0.375001 0.316068
v 0.300001 0.381411 0.316068
v 0.300001 0.381411 -0.317265
v 0.292943 0.375001 -0.317265
v 0.292943 0.425001 -0.317265
v 0.300001 0.418590 -0.317265
v 0.300001 0.418590 0.316068
v 0.292943 0.425001 0.316068
v 0.107059 0.375001 -0.317265
v 0.100001 0.381411 -0.317265
v 0.100001 0.381411 0.316068
v 0.107059 0.375001 0.316068
v 0.107059 0.425001 0.316068
v 0.100001 0.418590 0.316068
v 0.100001 0.418590 -0.317265
v 0.107059 0.425001 -0.317265
v 0.282593 0.375001 0.305513
v 0.289674 0.381411 0.305513
v 0.289674 0.381411 -0.306709
v 0.282593 0.375001 -0.306709
v 0.282593 0.425001 -0.306709
v 0.289674 0.418590 -0.306709
v 0.289674 0.418590 0.305513
v 0.282593 0.425001 0.305513
v 0.117409 0.375001 -0.306709
v 0.110328 0.381411 -0.306709
v 0.110328 0.381411 0.305513
v 0.117409 0.375001 0.305513
v 0.117409 0.425001 0.305513
v 0.110328 0.418590 0.305513
v 0.110328 0.418590 -0.306709
v 0.117409 0.425001 -0.306709
v 0.109769 0.382061 -0.500598
v 0.107035 0.375001 -0.493538
v 0.107061 0.384529 -0.500598
v 0.100001 0.381411 -0.493538
v 0.107061 0.415473 -0.500598
v 0.100001 0.418590 -0.493538
v 0.109769 0.417941 -0.500598
v 0.107035 0.425001 -0.493538
v 0.292941 0.384529 -0.500598
v 0.300001 0.381411 -0.493538
v 0.290233 0.382061 -0.500598
v 0.292967 0.375001 -0.493538
v 0.290233 0.417941 -0.500598
v 0.292967 0.425001 -0.493538
v 0.292941 0.415473 -0.500598
v 0.300001 0.418590 -0.493538
v 0.107061 0.384529 0.499402
v 0.100001 0.381411 0.492342
v 0.109769 0.382061 0.499402
v 0.107035 0.375001 0.492342
v 0.109769 0.417941 0.499402
v 0.107035 0.425001 0.492342
v 0.107061 0.415473 0.499402
v 0.100001 0.418590 0.492342
v 0.290233 0.382061 0.499402
v 0.292967 0.375001 0.492342
v 0.292941 0.384529 0.499402
v 0.300001 0.381411 0.492342
v 0.292941 0.415473 0.499402
v 0.300001 0.418590 0.492342
v 0.290233 0.417941 0.499402
v 0.292967 0.425001 0.492342
v 0.189674 0.485133 0.295380
v 0.189674 0.485133 -0.296577
v 0.189674 0.514868 -0.296577
v 0.189674 0.514868 0.295380
v 0.010328 0.485133 -0.296577
v 0.010328 0.485133 0.295380
v 0.010328 0.514868 0.295380
v 0.010328 0.514868 -0.296577
v 0.186089 0.494327 0.286186
v 0.186089 0.494327 -0.287383
v 0.186089 0.505674 -0.287383
v 0.186089 0.505674 0.286186
v 0.013913 0.494327 -0.287383
v 0.013913 0.494327 0.286186
v 0.013913 0.505674 0.286186
v 0.013913 0.505674 -0.287383
v 0.186089 0.485133 0.295380
v 0.186089 0.485133 -0.296577
v 0.186089 0.514868 -0.296577
v 0.186089 0.514868 0.295380
v 0.013913 0.485133 -0.296577
v 0.013913 0.485133 0.295380
v 0.013913 0.514868 0.295380
v 0.013913 0.514868 -0.296577
v 0.184290 0.494327 0.286186
v 0.184290 0.494327 -0.287383
v 0.184290 0.505674 -0.287383
v 0.184290 0.505674 0.286186
v 0.015712 0.494327 -0.287383
v 0.015712 0.494327 0.286186
v 0.015712 0.505674 0.286186
v 0.015712 0.505674 -0.287383
v 0.192943 0.475001 0.316068
v 0.200001 0.481411 0.316068
v 0.200001 0.481411 -0.317265
v 0.192943 0.475001 -0.317265
v 0.192943 0.525001 -0.317265
v 0.200001 0.518590 -0.317265
v 0.200001 0.518590 0.316068
v 0.192943 0.525001 0.316068
v 0.007059 0.475001 -0.317265
v 0.000001 0.481411 -0.317265
v 0.000001 0.481411 0.316068
v 0.007059 0.475001 0.316068
v 0.007059 0.525001 0.316068
v 0.000001 0.518590 0.316068
v 0.000001 0.518590 -0.317265
v 0.007059 0.525001 -0.317265
v 0.182593 0.475001 0.305513
v 0.189674 0.481411 0.305513
v 0.189674 0.481411 -0.306709
v 0.182593 0.475001 -0.306709
v 0.182593 0.525001 -0.306709
v 0.189674 0.518590 -0.306709
v 0.189674 0.518590 0.305513
v 0.182593 0.525001 0.305513
v 0.017409 0.475001 -0.306709
v 0.010328 0.481411 -0.306709
v 0.010328 0.481411 0.305513
v 0.017409 0.475001 0.305513
v 0.017409 0.525001 0.305513
v 0.010328 0.518590 0.305513
v 0.010328 0.518590 -0.306709
v 0.017409 0.525001 -0.306709
v 0.009769 0.482061 -0.500598
v 0.007035 0.475001 -0.493538
v 0.007061 0.484529 -0.500598
v 0.000001 0.481411 -0.493538
v 0.007061 0.515473 -0.500598
v 0.000001 0.518590 -0.493538
v 0.009769 0.517941 -0.500598
v 0.007035 0.525001 -0.493538
v 0.192941 0.484529 -0.500598
v 0.200001 0.481411 -0.493538
v 0.190233 0.482061 -0.500598
v 0.192967 0.475001 -0.493538
v 0.190233 0.517941 -0.500598
v 0.192967 0.525001 -0.493538
v 0.192941 0.515473 -0.500598
v 0.200001 0.518590 -0.493538
v 0.007061 0.484529 0.499402
v 0.000001 0.481411 0.492342
v 0.009769 0.482061 0.499402
v 0.007035 0.475001 0.492342
v 0.009769 0.517941 0.499402
v 0.007035 0.525001 0.492342
v 0.007061 0.515473 0.499402
v 0.000001 0.518590 0.492342
v 0.190233 0.482061 0.499402
v 0.192967 0.475001 0.492342
v 0.192941 0.484529 0.499402
v 0.200001 0.481411 0.492342
v 0.192941 0.515473 0.499402
v 0.200001 0.518590 0.492342
v 0.190233 0.517941 0.499402
v 0.192967 0.525001 0.492342
v 0.089674 0.585133 0.295380
v 0.089674 0.585133 -0.296577
v 0.089674 0.614868 -0.296577
v 0.089674 0.614868 0.295380
v -0.089672 0.585133 -0.296577
v -0.089672 0.585133 0.295380
v -0.089672 0.614868 0.295380
v -0.089672 0.614868 -0.296577
v 0.086089 0.594328 0.286186
v 0.086089 0.594328 -0.287383
v 0.086089 0.605674 -0.287383
v 0.086089 0.605674 0.286186
v -0.086087 0.594328 -0.287383
v -0.086087 0.594328 0.286186
v -0.086087 0.605674 0.286186
v -0.086087 0.605674 -0.287383
v 0.086089 0.585133 0.295380
v 0.086089 0.585133 -0.296577
v 0.086089 0.614868 -0.296577
v 0.086089 0.614868 0.295380
v -0.086087 0.585133 -0.296577
v -0.086087 0.585133 0.295380
v -0.086087 0.614868 0.295380
v -0.086087 0.614868 -0.296577
v 0.084290 0.594328 0.286186
v 0.084290 0.594328 -0.287383
v 0.084290 0.605674 -0.287383
v 0.084290 0.605674 0.286186
v -0.084288 0.594328 -0.287383
v -0.084288 0.594328 0.286186
v -0.084288 0.605674 0.286186
v -0.084288 0.605674 -0.287383
v 0.092943 0.575001 0.316068
v 0.100001 0.581411 0.316068
v 0.100001 0.581411 -0.317265
v 0.092943 0.575001 -0.317265
v 0.092943 0.625001 -0.317265
v 0.100001 0.618590 -0.317265
v 0.100001 0.618590 0.316068
v 0.092943 0.625001 0.316068
v -0.092941 0.575001 -0.317265
v -0.099999 0.581411 -0.317265
v -0.099999 0.581411 0.316068
v -0.092941 0.575001 0.316068
v -0.092941 0.625001 0.316068
v -0.099999 0.618590 0.316068
v -0.099999 0.618590 -0.317265
v -0.092941 0.625001 -0.317265
v 0.082593 0.575001 0.305513
v 0.089674 0.581411 0.305513
v 0.089674 0.581411 -0.306709
v 0.082593 0.575001 -0.306709
v 0.082593 0.625001 -0.306709
v 0.089674 0.618590 -0.306709
v 0.089674 0.618590 0.305513
v 0.082593 0.625001 0.305513
v -0.082591 0.575001 -0.306709
v -0.089672 0.581411 -0.306709
v -0.089672 0.581411 0.305513
v -0.082591 0.575001 0.305513
v -0.082591 0.625001 0.305513
v -0.089672 0.618590 0.305513
v -0.089672 0.618590 -0.306709
v -0.082591 0.625001 -0.306709
v -0.090231 0.582061 -0.500598
v -0.092965 0.575001 -0.493538
v -0.092939 0.584529 -0.500598
v -0.099999 0.581411 -0.493538
v -0.092939 0.615473 -0.500598
v -0.099999 0.618590 -0.493538
v -0.090231 0.617941 -0.500598
v -0.092965 0.625001 -0.493538
v 0.092941 0.584529 -0.500598
v 0.100001 0.581411 -0.493538
v 0.090233 0.582061 -0.500598
v 0.092967 0.575001 -0.493538
v 0.090233 0.617941 -0.500598
v 0.092967 0.625001 -0.493538
v 0.092941 0.615473 -0.500598
v 0.100001 0.618590 -0.493538
v -0.092939 0.584529 0.499402
v -0.099999 0.581411 0.492342
v -0.090231 0.582061 0.499402
v -0.092965 0.575001 0.492342
v -0.090231 0.617941 0.499402
v -0.092965 0.625001 0.492342
v -0.092939 0.615473 0.499402
v -0.099999 0.618590 0.492342
v 0.090233 0.582061 0.499402
v 0.092967 0.575001 0.492342
v 0.092941 0.584529 0.499402
v 0.100001 0.581411 0.492342
v 0.092941 0.615473 0.499402
v 0.100001 0.618590 0.492342
v 0.090233 0.617941 0.499402
v 0.092967 0.625001 0.492342
v -0.010326 0.685133 0.295380
v -0.010326 0.685133 -0.296577
v -0.010326 0.714868 -0.296577
v -0.010326 0.714868 0.295380
v -0.189672 0.685133 -0.296577
v -0.189672 0.685133 0.295380
v -0.189672 0.714868 0.295380
v -0.189672 0.714868 -0.296577
v -0.013911 0.694328 0.286186
v -0.013911 0.694328 -0.287383
v -0.013911 0.705674 -0.287383
v -0.013911 0.705674 0.286186
v -0.186087 0.694328 -0.287383
v -0.186087 0.694328 0.286186
v -0.186087 0.705674 0.286186
v -0.186087 0.705674 -0.287383
v -0.013911 0.685133 0.295380
v -0.013911 0.685133 -0.296577
v -0.013911 0.714868 -0.296577
v -0.013911 0.714868 0.295380
v -0.186087 0.685133 -0.296577
v -0.186087 0.685133 0.295380
v -0.186087 0.714868 0.295380
v -0.186087 0.714868 -0.296577
v -0.015710 0.694328 0.286186
v -0.015710 0.694328 -0.287383
v -0.015710 0.705674 -0.287383
v -0.015710 0.705674 0.286186
v -0.184288 0.694328 -0.287383
v -0.184288 0.694328 0.286186
v -0.184288 0.705674 0.286186
v -0.184288 0.705674 -0.287383
v -0.007057 0.675001 0.316068
v 0.000001 0.681411 0.316068
v 0.000001 0.681411 -0.317265
v -0.007057 0.675001 -0.317265
v -0.007057 0.725001 -0.317265
v 0.000001 0.718590 -0.317265
v 0.000001 0.718590 0.316068
v -0.007057 0.725001 0.316068
v -0.192941 0.675001 -0.317265
v -0.199999 0.681411 -0.317265
v -0.199999 0.681411 0.316068
v -0.192941 0.675001 0.316068
v -0.192941 0.725001 0.316068
v -0.199999 0.718590 0.316068
v -0.199999 0.718590 -0.317265
v -0.192941 0.725001 -0.317265
v -0.017407 0.675001 0.305513
v -0.010326 0.681411 0.305513
v -0.010326 0.681411 -0.306709
v -0.017407 0.675001 -0.306709
v -0.017407 0.725001 -0.306709
v -0.010326 0.718590 -0.306709
v -0.010326 0.718590 0.305513
v -0.017407 0.725001 0.305513
v -0.182591 0.675001 -0.306709
v -0.189672 0.681411 -0.306709
v -0.189672 0.681411 0.305513
v -0.182591 0.675001 0.305513
v -0.182591 0.725001 0.305513
v -0.189672 0.718590 0.305513
v -0.189672 0.718590 -0.306709
v -0.182591 0.725001 -0.306709
v -0.190231 0.682061 -0.500598
v -0.192965 0.675001 -0.493538
v -0.192939 0.684529 -0.500598
v -0.199999 0.681411 -0.493538
v -0.192939 0.715473 -0.500598
v -0.199999 0.718590 -0.493538
v -0.190231 0.717941 -0.500598
v -0.192965 0.725001 -0.493538
v -0.007059 0.684529 -0.500598
v 0.000001 0.681411 -0.493538
v -0.009767 0.682061 -0.500598
v -0.007033 0.675001 -0.493538
v -0.009767 0.717941 -0.500598
v -0.007033 0.725001 -0.493538
v -0.007059 0.715473 -0.500598
v 0.000001 0.718590 -0.493538
v -0.192939 0.684529 0.499402
v -0.199999 0.681411 0.492342
v -0.190231 0.682061 0.499402
v -0.192965 0.675001 0.492342
v -0.190231 0.717941 0.499402
v -0.192965 0.725001 0.492342
v -0.192939 0.715473 0.499402
v -0.199999 0.718590 0.492342
v -0.009767 0.682061 0.499402
v -0.007033 0.675001 0.492342
v -0.007059 0.684529 0.499402
v 0.000001 0.681411 0.492342
v -0.007059 0.715473 0.499402
v 0.000001 0.718590 0.492342
v -0.009767 0.717941 0.499402
v -0.007033 0.725001 0.492342
v -0.110326 0.785133 0.295380
v -0.110326 0.785133 -0.296577
v -0.110326 0.814868 -0.296577
v -0.110326 0.814868 0.295380
v -0.289672 0.785133 -0.296577
v -0.289672 0.785133 0.295380
v -0.289672 0.814868 0.295380
v -0.289672 0.814868 -0.296577
v -0.113911 0.794327 0.286186
v -0.113911 0.794327 -0.287383
v -0.113911 0.805674 -0.287383
v -0.113911 0.805674 0.286186
v -0.286087 0.794327 -0.287383
v -0.286087 0.794327 0.286186
v -0.286087 0.805674 0.286186
v -0.286087 0.805674 -0.287383
v -0.113911 0.785133 0.295380
v -0.113911 0.785133 -0.296577
v -0.113911 0.814868 -0.296577
v -0.113911 0.814868 0.295380
v -0.286087 0.785133 -0.296577
v -0.286087 0.785133 0.295380
v -0.286087 0.814868 0.295380
v -0.286087 0.814868 -0.296577
v -0.115710 0.794327 0.286186
v -0.115710 0.794327 -0.287383
v -0.115710 0.805674 -0.287383
v -0.115710 0.805674 0.286186
v -0.284288 0.794327 -0.287383
v -0.284288 0.794327 0.286186
v -0.284288 0.805674 0.286186
v -0.284288 0.805674 -0.287383
v -0.107057 0.775001 0.316068
v -0.099999 0.781411 0.316068
v -0.099999 0.781411 -0.317265
v -0.107057 0.775001 -0.317265
v -0.107057 0.825001 -0.317265
v -0.099999 0.818590 -0.317265
v -0.099999 0.818590 0.316068
v -0.107057 0.825001 0.316068
v -0.292941 0.775001 -0.317265
v -0.299999 0.781411 -0.317265
v -0.299999 0.781411 0.316068
v -0.292941 0.775001 0.316068
v -0.292941 0.825001 0.316068
v -0.299999 0.818590 0.316068
v -0.299999 0.818590 -0.317265
v -0.292941 0.825001 -0.317265
v -0.117407 0.775001 0.305513
v -0.110326 0.781411 0.305513
v -0.110326 0.781411 -0.306709
v -0.117407 0.775001 -0.306709
v -0.117407 0.825001 -0.306709
v -0.110326 0.818590 -0.306709
v -0.110326 0.818590 0.305513
v -0.117407 0.825001 0.305513
v -0.282591 0.775001 -0.306709
v -0.289672 0.781411 -0.306709
v -0.289672 0.781411 0.305513
v -0.282591 0.775001 0.305513
v -0.282591 0.825001 0.305513
v -0.289672 0.818590 0.305513
v -0.289672 0.818590 -0.306709
v -0.282591 0.825001 -0.306709
v -0.290231 0.782061 -0.500598
v -0.292965 0.775001 -0.493538
v -0.292939 0.784529 -0.500598
v -0.299999 0.781411 -0.493538
v -0.292939 0.815473 -0.500598
v -0.299999 0.818590 -0.493538
v -0.290231 0.817941 -0.500598
v -0.292965 0.825001 -0.493538
v -0.107059 0.784529 -0.500598
v -0.099999 0.781411 -0.493538
v -0.109767 0.782061 -0.500598
v -0.107033 0.775001 -0.493538
v -0.109767 0.817941 -0.500598
v -0.107033 0.825001 -0.493538
v -0.107059 0.815473 -0.500598
v -0.099999 0.818590 -0.493538
v -0.292939 0.784529 0.499402
v -0.299999 0.781411 0.492342
v -0.290231 0.782061 0.499402
v -0.292965 0.775001 0.492342
v -0.290231 0.817941 0.499402
v -0.292965 0.825001 0.492342
v -0.292939 0.815473 0.499402
v -0.299999 0.818590 0.492342
v -0.109767 0.782061 0.499402
v -0.107033 0.775001 0.492342
v -0.107059 0.784529 0.499402
v -0.099999 0.781411 0.492342
v -0.107059 0.815473 0.499402
v -0.099999 0.818590 0.492342
v -0.109767 0.817941 0.499402
v -0.107033 0.825001 0.492342
v -0.210326 0.885133 0.295380
v -0.210326 0.885133 -0.296577
v -0.210326 0.914868 -0.296577
v -0.210326 0.914868 0.295380
v -0.389672 0.885133 -0.296577
v -0.389672 0.885133 0.295380
v -0.389672 0.914868 0.295380
v -0.389672 0.914868 -0.296577
v -0.213911 0.894327 0.286186
v -0.213911 0.894327 -0.287383
v -0.213911 0.905674 -0.287383
v -0.213911 0.905674 0.286186
v -0.386087 0.894327 -0.287383
v -0.386087 0.894327 0.286186
v -0.386087 0.905674 0.286186
v -0.386087 0.905674 -0.287383
v -0.213911 0.885133 0.295380
v -0.213911 0.885133 -0.296577
v -0.213911 0.914868 -0.296577
v -0.213911 0.914868 0.295380
v -0.386087 0.885133 -0.296577
v -0.386087 0.885133 0.295380
v -0.386087 0.914868 0.295380
v -0.386087 0.914868 -0.296577
v -0.215710 0.894327 0.286186
v -0.215710 0.894327 -0.287383
v -0.215710 0.905674 -0.287383
v -0.215710 0.905674 0.286186
v -0.384288 0.894327 -0.287383
v -0.384288 0.894327 0.286186
v -0.384288 0.905674 0.286186
v -0.384288 0.905674 -0.287383
v -0.207057 0.875001 0.316068
v -0.199999 0.881411 0.316068
v -0.199999 0.881411 -0.317265
v -0.207057 0.875001 -0.317265
v -0.207057 0.925001 -0.317265
v -0.199999 0.918590 -0.317265
v -0.199999 0.918590 0.316068
v -0.207057 0.925001 0.316068
v -0.392941 0.875001 -0.317265
v -0.399999 0.881411 -0.317265
v -0.399999 0.881411 0.316068
v -0.392941 0.875001 0.316068
v -0.392941 0.925001 0.316068
v -0.399999 0.918590 0.316068
v -0.399999 0.918590 -0.317265
v -0.392941 0.925001 -0.317265
v -0.217407 0.875001 0.305513
v -0.210326 0.881411 0.305513
v -0.210326 0.881411 -0.306709
v -0.217407 0.875001 -0.306709
v -0.217407 0.925001 -0.306709
v -0.210326 0.918590 -0.306709
v -0.210326 0.918590 0.305513
v -0.217407 0.925001 0.305513
v -0.382591 0.875001 -0.306709
v -0.389672 0.881411 -0.306709
v -0.389672 0.881411 0.305513
v -0.382591 0.875001 0.305513
v -0.382591 0.925001 0.305513
v -0.389672 0.918590 0.305513
v -0.389672 0.918590 -0.306709
v -0.382591 0.925001 -0.306709
v -0.390231 0.882061 -0.500598
v -0.392965 0.875001 -0.493538
v -0.392939 0.884529 -0.500598
v -0.399999 0.881411 -0.493538
v -0.392939 0.915473 -0.500598
v -0.399999 0.918590 -0.493538
v -0.390231 0.917941 -0.500598
v -0.392965 0.925001 -0.493538
v -0.207059 0.884529 -0.500598
v -0.199999 0.881411 -0.493538
v -0.209767 0.882061 -0.500598
v -0.207033 0.875001 -0.493538
v -0.209767 0.917941 -0.500598
v -0.207033 0.925001 -0.493538
v -0.207059 0.915473 -0.500598
v -0.199999 0.918590 -0.493538
v -0.392939 0.884529 0.499402
v -0.399999 0.881411 0.492342
v -0.390231 0.882061 0.499402
v -0.392965 0.875001 0.492342
v -0.390231 0.917941 0.499402
v -0.392965 0.925001 0.492342
v -0.392939 0.915473 0.499402
v -0.399999 0.918590 0.492342
v -0.209767 0.882061 0.499402
v -0.207033 0.875001 0.492342
v -0.207059 0.884529 0.499402
v -0.199999 0.881411 0.492342
v -0.207059 0.915473 0.499402
v -0.199999 0.918590 0.492342
v -0.209767 0.917941 0.499402
v -0.207033 0.925001 0.492342
v 0.525001 0.025001 -0.025598
v 0.525001 0.075001 -0.025598
v 0.575001 0.025001 -0.025598
v 0.575001 0.075001 -0.025598
v 0.525001 0.025001 0.024402
v 0.525001 0.075001 0.024402
v 0.575001 0.025001 0.024402
v 0.575001 0.075001 0.024402
v 0.425001 0.125001 -0.025598
v 0.425001 0.175001 -0.025598
v 0.475001 0.125001 -0.025598
v 0.475001 0.175001 -0.025598
v 0.425001 0.125001 0.024402
v 0.425001 0.175001 0.024402
v 0.475001 0.125001 0.024402
v 0.475001 0.175001 0.024402
v 0.325001 0.225001 -0.025598
v 0.325001 0.275001 -0.025598
v 0.375001 0.225001 -0.025598
v 0.375001 0.275001 -0.025598
v 0.325001 0.225001 0.024402
v 0.325001 0.275001 0.024402
v 0.375001 0.225001 0.024402
v 0.375001 0.275001 0.024402
v 0.225001 0.325001 -0.025598
v 0.225001 0.375001 -0.025598
v 0.275001 0.325001 -0.025598
v 0.275001 0.375001 -0.025598
v 0.225001 0.325001 0.024402
v 0.225001 0.375001 0.024402
v 0.275001 0.325001 0.024402
v 0.275001 0.375001 0.024402
v 0.125001 0.425001 -0.025598
v 0.125001 0.475001 -0.025598
v 0.175001 0.425001 -0.025598
v 0.175001 0.475001 -0.025598
v 0.125001 0.425001 0.024402
v 0.125001 0.475001 0.024402
v 0.175001 0.425001 0.024402
v 0.175001 0.475001 0.024402
v 0.025001 0.525001 -0.025598
v 0.025001 0.575001 -0.025598
v 0.075001 0.525001 -0.025598
v 0.075001 0.575001 -0.025598
v 0.025001 0.525001 0.024402
v 0.025001 0.575001 0.024402
v 0.075001 0.525001 0.024402
v 0.075001 0.575001 0.024402
v -0.074999 0.625001 -0.025598
v -0.074999 0.675001 -0.025598
v -0.024999 0.625001 -0.025598
v -0.024999 0.675001 -0.025598
v -0.074999 0.625001 0.024402
v -0.074999 0.675001 0.024402
v -0.024999 0.625001 0.024402
v -0.024999 0.675001 0.024402
v -0.174999 0.725001 -0.025598
v -0.174999 0.775001 -0.025598
v -0.124999 0.725001 -0.025598
v -0.124999 0.775001 -0.025598
v -0.174999 0.725001 0.024402
v -0.174999 0.775001 0.024402
v -0.124999 0.725001 0.024402
v -0.124999 0.775001 0.024402
v -0.274999 0.825001 -0.025598
v -0.274999 0.875001 -0.025598
v -0.224999 0.825001 -0.025598
v -0.224999 0.875001 -0.025598
v -0.274999 0.825001 0.024402
v -0.274999 0.875001 0.024402
v -0.224999 0.825001 0.024402
v -0.224999 0.875001 0.024402
v -0.374999 0.925001 -0.025598
v -0.374999 0.975001 -0.025598
v -0.324999 0.925001 -0.025598
v -0.324999 0.975001 -0.025598
v -0.374999 0.925001 0.024402
v -0.374999 0.975001 0.024402
v -0.324999 0.925001 0.024402
v -0.324999 0.975001 0.024402
vn -0.6730 0.7397 -0.0000
vn -0.0000 -1.0000 -0.0000
vn -0.0000 -0.0000 1.0000
vn 0.6730 -0.7397 -0.0000
vn 0.6730 0.7397 -0.0000
vn -0.0000 1.0000 -0.0000
vn -1.0000 -0.0000 -0.0000
vn 0.7148 -0.0000 -0.6993
vn -0.7148 -0.0000 -0.6993
vn -0.0000 -0.0000 -1.0000
vn 1.0000 -0.0000 -0.0000
vn 0.7148 -0.0000 0.6993
vn -0.7148 -0.0000 0.6993
vn 0.5612 -0.6189 0.5496
vn -0.6730 -0.7397 -0.0000
vn 0.5612 0.6189 -0.5496
vn -0.5612 -0.6189 -0.5496
vn -0.5612 0.6189 0.5496
vn 0.5612 -0.6189 -0.5496
vn 0.6711 -0.7413 -0.0000
vn 0.5612 0.6189 0.5496
vn 0.6711 0.7413 -0.0000
vn -0.5612 -0.6189 0.5496
vn -0.6711 -0.7413 -0.0000
vn -0.5612 0.6189 -0.5496
vn -0.6711 0.7413 -0.0000
vn 0.4763 -0.5226 -0.7071
vn 0.4763 0.5226 0.7071
vn -0.4763 -0.5226 0.7071
vn -0.4763 0.5226 -0.7071
vn 0.4763 -0.5226 0.7071
vn 0.4763 0.5226 -0.7071
vn -0.4763 -0.5226 -0.7071
vn -0.4763 0.5226 0.7071
vn -0.0000 -0.7071 -0.7071
vn -0.7071 -0.0000 -0.7071
vn -0.0000 0.7071 -0.7071
vn 0.7071 -0.0000 -0.7071
vn -0.0000 -0.7071 0.7071
vn 0.7071 -0.0000 0.7071
vn -0.0000 0.7071 0.7071
vn -0.7071 -0.0000 0.7071
vt 0.625000 0.916667
vt 0.625000 0.996791
vt 0.592947 0.996791
vt 0.592947 0.916667
vt 0.263889 0.509871
vt 0.291667 0.508823
vt 0.291667 0.741177
vt 0.263889 0.740129
vt 0.410299 0.512210
vt 0.422641 0.508825
vt 0.577359 0.508825
vt 0.589701 0.512210
vt 0.589701 0.737790
vt 0.577359 0.741175
vt 0.422641 0.741175
vt 0.410299 0.737790
vt 0.208333 0.508823
vt 0.128209 0.508793
vt 0.128209 0.500000
vt 0.208333 0.500000
vt 0.291667 0.508823
vt 0.371791 0.508793
vt 0.371791 0.741207
vt 0.625000 0.253209
vt 0.625000 0.333333
vt 0.592947 0.333333
vt 0.592947 0.253209
vt 0.625000 0.416667
vt 0.625000 0.496791
vt 0.592947 0.496791
vt 0.592947 0.416667
vt 0.708333 0.508823
vt 0.736111 0.509871
vt 0.736111 0.740129
vt 0.708333 0.741177
vt 0.407053 0.916667
vt 0.407053 0.996791
vt 0.407053 0.388889
vt 0.592947 0.388889
vt 0.407053 0.416667
vt 0.291667 0.500000
vt 0.371791 0.500000
vt 0.407053 0.833333
vt 0.592947 0.833333
vt 0.592947 0.861111
vt 0.407053 0.861111
vt 0.625000 0.753209
vt 0.625000 0.833333
vt 0.592947 0.753209
vt 0.236111 0.509871
vt 0.236111 0.740129
vt 0.208333 0.741177
vt 0.763889 0.509871
vt 0.791667 0.508823
vt 0.791667 0.741177
vt 0.763889 0.740129
vt 0.574337 0.388429
vt 0.425663 0.388429
vt 0.425663 0.361571
vt 0.407053 0.388889
vt 0.407053 0.361111
vt 0.574337 0.888429
vt 0.425663 0.888429
vt 0.407053 0.333333
vt 0.592947 0.361111
vt 0.407053 0.888889
vt 0.592947 0.888889
vt 0.425663 0.861571
vt 0.407053 0.888889
vt 0.263889 0.740129
vt 0.236111 0.740129
vt 0.763889 0.740129
vt 0.736111 0.740129
vt 0.574337 0.361571
vt 0.592947 0.361111
vt 0.592947 0.388889
vt 0.574337 0.861571
vt 0.592947 0.861111
vt 0.592947 0.888889
vt 0.471634 0.888012
vt 0.471633 0.861988
vt 0.471633 0.361988
vt 0.528366 0.361988
vt 0.471634 0.388012
vt 0.528366 0.388012
vt 0.528366 0.888012
vt 0.528366 0.861988
vt 0.407053 0.253209
vt 0.407053 0.753209
vt 0.592947 0.753209
vt 0.871791 0.508793
vt 0.871791 0.741207
vt 0.407053 0.496791
vt 0.236111 0.500000
vt 0.371791 0.750000
vt 0.291667 0.750000
vt 0.625000 0.388889
vt 0.625000 0.407382
vt 0.208333 0.741177
vt 0.128209 0.741207
vt 0.263889 0.750000
vt 0.628209 0.508793
vt 0.708333 0.741177
vt 0.628209 0.741207
vt 0.625000 0.888889
vt 0.625000 0.907382
vt 0.263889 0.500000
vt 0.625000 0.342618
vt 0.625000 0.361111
vt 0.236111 0.750000
vt 0.208333 0.750000
vt 0.625000 0.842618
vt 0.625000 0.861111
vt 0.410299 0.012210
vt 0.422641 0.008825
vt 0.577359 0.008825
vt 0.589701 0.012210
vt 0.589701 0.237790
vt 0.577359 0.241175
vt 0.422641 0.241175
vt 0.410299 0.237790
vt 0.407053 0.250000
vt 0.375000 0.241209
vt 0.592947 0.500000
vt 0.625000 0.508791
vt 0.407053 0.750000
vt 0.375000 0.741209
vt 0.592947 0.000000
vt 0.625000 0.008791
vt 0.375000 0.508791
vt 0.407053 0.500000
vt 0.625000 0.241209
vt 0.592947 0.250000
vt 0.375000 0.008791
vt 0.407053 0.000000
vt 0.625000 0.741209
vt 0.592947 0.750000
vt 0.375000 0.241207
vt 0.375000 0.008793
vt 0.625000 0.008793
vt 0.625000 0.241207
vt 0.128209 0.750000
vt 0.375000 0.000000
vt 0.625000 0.000000
vt 0.625000 0.250000
vt 0.375000 0.250000
vt 0.625000 0.500000
vt 0.375000 0.500000
vt 0.625000 0.750000
vt 0.375000 0.750000
vt 0.625000 1.000000
vt 0.375000 1.000000
vt 0.125000 0.500000
vt 0.125000 0.750000
vt 0.875000 0.500000
vt 0.875000 0.750000
s 0
usemtl Noir_Light
f 48/1/1 72/2/1 70/3/1 47/4/1
f 49/5/2 33/6/2 44/7/2 60/8/2
f 89/9/3 91/10/3 93/11/3 95/12/3 85/13/3 87/14/3 81/15/3 83/16/3
f 36/17/4 76/18/4 74/19/4 35/20/4
f 33/21/2 90/22/2 84/23/2 44/7/2
f 78/24/5 37/25/5 38/26/5 80/27/5
f 40/28/5 96/29/5 94/30/5 39/31/5
f 40/32/6 56/33/6 61/34/6 45/35/6
f 42/36/7 47/4/7 70/3/7 68/37/7
f 50/38/8 55/39/8 39/31/8 34/40/8
f 90/22/4 33/21/4 34/41/4 92/42/4
f 43/43/9 46/44/9 62/45/9 59/46/9
f 86/47/1 45/48/1 46/44/1 88/49/1
f 36/17/2 52/50/2 57/51/2 41/52/2
f 53/53/6 37/54/6 48/55/6 64/56/6
f 4/57/10 1/58/10 17/58/10 20/57/10
f 2/59/11 1/58/11 50/60/11 51/61/11
f 8/62/3 5/63/3 21/63/3 24/62/3
f 35/64/12 38/26/12 54/65/12 51/61/12
f 1/58/11 4/57/11 55/39/11 50/38/11
f 58/66/13 63/67/13 47/4/13 42/36/13
f 6/68/7 5/63/7 58/69/7 59/46/7
f 52/50/2 49/5/2 60/70/2 57/71/2
f 56/33/6 53/53/6 64/72/6 61/73/6
f 5/63/7 8/62/7 63/67/7 58/66/7
f 4/57/11 3/74/11 54/75/11 55/76/11
f 3/74/11 2/59/11 51/61/11 54/65/11
f 8/62/7 7/77/7 62/78/7 63/79/7
f 7/77/7 6/68/7 59/46/7 62/45/7
f 7/77/2 8/62/2 24/62/2 23/77/2
f 3/74/2 4/57/2 20/57/2 19/74/2
f 6/68/10 7/77/10 23/77/10 22/68/10
f 2/59/3 3/74/3 19/74/3 18/59/3
f 5/63/6 6/68/6 22/68/6 21/63/6
f 1/58/6 2/59/6 18/59/6 17/58/6
f 74/88/11 80/27/11 38/26/11 35/64/11
f 82/89/7 88/90/7 46/44/7 43/43/7
f 37/54/6 78/91/6 72/92/6 48/55/6
f 34/40/11 39/31/11 94/30/11 92/93/11
f 52/50/14 36/17/14 35/20/14 51/94/14
f 44/7/15 84/23/15 82/95/15 43/96/15
f 56/97/16 40/98/16 39/31/16 55/39/16
f 76/18/2 36/17/2 41/99/2 66/100/2
f 60/8/17 44/7/17 43/96/17 59/101/17
f 96/102/6 40/32/6 45/103/6 86/104/6
f 64/105/18 48/106/18 47/4/18 63/67/18
f 33/6/19 49/5/19 50/107/19 34/41/19
f 49/5/20 52/50/20 51/94/20 50/107/20
f 37/108/21 53/109/21 54/65/21 38/26/21
f 53/109/22 56/97/22 55/76/22 54/75/22
f 41/52/23 57/51/23 58/110/23 42/111/23
f 57/71/24 60/70/24 59/101/24 58/110/24
f 45/112/25 61/113/25 62/45/25 46/44/25
f 61/113/26 64/105/26 63/79/26 62/78/26
f 65/114/10 67/115/10 69/116/10 71/117/10 77/118/10 79/119/10 73/120/10 75/121/10
f 75/121/27 73/120/27 74/122/27 76/123/27
f 95/12/28 93/11/28 94/124/28 96/125/28
f 83/16/29 81/15/29 82/126/29 84/127/29
f 71/117/30 69/116/30 70/128/30 72/129/30
f 91/10/31 89/9/31 90/130/31 92/131/31
f 79/119/32 77/118/32 78/132/32 80/133/32
f 67/115/33 65/114/33 66/134/33 68/135/33
f 87/14/34 85/13/34 86/136/34 88/137/34
f 65/114/35 75/121/35 76/138/35 66/139/35
f 68/135/36 70/128/36 69/116/36 67/115/36
f 72/140/37 78/141/37 77/118/37 71/117/37
f 80/27/38 74/88/38 73/120/38 79/119/38
f 89/9/39 83/16/39 84/23/39 90/22/39
f 92/93/40 94/30/40 93/11/40 91/10/40
f 96/102/41 86/104/41 85/13/41 95/12/41
f 88/90/42 82/89/42 81/15/42 87/14/42
f 66/100/15 41/99/15 42/111/15 68/142/15
f 144/1/1 168/2/1 166/3/1 143/4/1
f 145/5/2 129/6/2 140/7/2 156/8/2
f 185/9/3 187/10/3 189/11/3 191/12/3 181/13/3 183/14/3 177/15/3 179/16/3
f 132/17/4 172/18/4 170/19/4 131/20/4
f 129/21/2 186/22/2 180/23/2 140/7/2
f 174/24/5 133/25/5 134/26/5 176/27/5
f 136/28/5 192/29/5 190/30/5 135/31/5
f 136/32/6 152/33/6 157/34/6 141/35/6
f 138/36/7 143/4/7 166/3/7 164/37/7
f 146/38/8 151/39/8 135/31/8 130/40/8
f 186/22/4 129/21/4 130/41/4 188/42/4
f 139/43/9 142/44/9 158/45/9 155/46/9
f 182/47/1 141/48/1 142/44/1 184/49/1
f 132/17/2 148/50/2 153/51/2 137/52/2
f 149/53/6 133/54/6 144/55/6 160/56/6
f 100/57/10 97/58/10 113/58/10 116/57/10
f 98/59/11 97/58/11 146/60/11 147/61/11
f 104/62/3 101/63/3 117/63/3 120/62/3
f 131/64/12 134/26/12 150/65/12 147/61/12
f 97/58/11 100/57/11 151/39/11 146/38/11
f 154/66/13 159/67/13 143/4/13 138/36/13
f 102/68/7 101/63/7 154/69/7 155/46/7
f 148/50/2 145/5/2 156/70/2 153/71/2
f 152/33/6 149/53/6 160/72/6 157/73/6
f 101/63/7 104/62/7 159/67/7 154/66/7
f 100/57/11 99/74/11 150/75/11 151/76/11
f 99/74/11 98/59/11 147/61/11 150/65/11
f 104/62/7 103/77/7 158/78/7 159/79/7
f 103/77/7 102/68/7 155/46/7 158/45/7
f 103/77/2 104/62/2 120/62/2 119/77/2
f 99/74/2 100/57/2 116/57/2 115/74/2
f 102/68/10 103/77/10 119/77/10 118/68/10
f 98/59/3 99/74/3 115/74/3 114/59/3
f 101/63/6 102/68/6 118/68/6 117/63/6
f 97/58/6 98/59/6 114/59/6 113/58/6
f 170/88/11 176/27/11 134/26/11 131/64/11
f 178/89/7 184/90/7 142/44/7 139/43/7
f 133/54/6 174/91/6 168/92/6 144/55/6
f 130/40/11 135/31/11 190/30/11 188/93/11
f 148/50/14 132/17/14 131/20/14 147/94/14
f 140/7/15 180/23/15 178/95/15 139/96/15
f 152/97/16 136/98/16 135/31/16 151/39/16
f 172/18/2 132/17/2 137/99/2 162/100/2
f 156/8/17 140/7/17 139/96/17 155/101/17
f 192/102/6 136/32/6 141/103/6 182/104/6
f 160/105/18 144/106/18 143/4/18 159/67/18
f 129/6/19 145/5/19 146/107/19 130/41/19
f 145/5/20 148/50/20 147/94/20 146/107/20
f 133/108/21 149/109/21 150/65/21 134/26/21
f 149/109/22 152/97/22 151/76/22 150/75/22
f 137/52/23 153/51/23 154/110/23 138/111/23
f 153/71/24 156/70/24 155/101/24 154/110/24
f 141/112/25 157/113/25 158/45/25 142/44/25
f 157/113/26 160/105/26 159/79/26 158/78/26
f 161/114/10 163/115/10 165/116/10 167/117/10 173/118/10 175/119/10 169/120/10 171/121/10
f 171/121/27 169/120/27 170/122/27 172/123/27
f 191/12/28 189/11/28 190/124/28 192/125/28
f 179/16/29 177/15/29 178/126/29 180/127/29
f 167/117/30 165/116/30 166/128/30 168/129/30
f 187/10/31 185/9/31 186/130/31 188/131/31
f 175/119/32 173/118/32 174/132/32 176/133/32
f 163/115/33 161/114/33 162/134/33 164/135/33
f 183/14/34 181/13/34 182/136/34 184/137/34
f 161/114/35 171/121/35 172/138/35 162/139/35
f 164/135/36 166/128/36 165/116/36 163/115/36
f 168/140/37 174/141/37 173/118/37 167/117/37
f 176/27/38 170/88/38 169/120/38 175/119/38
f 185/9/39 179/16/39 180/23/39 186/22/39
f 188/93/40 190/30/40 189/11/40 187/10/40
f 192/102/41 182/104/41 181/13/41 191/12/41
f 184/90/42 178/89/42 177/15/42 183/14/42
f 162/100/15 137/99/15 138/111/15 164/142/15
f 240/1/1 264/2/1 262/3/1 239/4/1
f 241/5/2 225/6/2 236/7/2 252/8/2
f 281/9/3 283/10/3 285/11/3 287/12/3 277/13/3 279/14/3 273/15/3 275/16/3
f 228/17/4 268/18/4 266/19/4 227/20/4
f 225/21/2 282/22/2 276/23/2 236/7/2
f 270/24/5 229/25/5 230/26/5 272/27/5
f 232/28/5 288/29/5 286/30/5 231/31/5
f 232/32/6 248/33/6 253/34/6 237/35/6
f 234/36/7 239/4/7 262/3/7 260/37/7
f 242/38/8 247/39/8 231/31/8 226/40/8
f 282/22/4 225/21/4 226/41/4 284/42/4
f 235/43/9 238/44/9 254/45/9 251/46/9
f 278/47/1 237/48/1 238/44/1 280/49/1
f 228/17/2 244/50/2 249/51/2 233/52/2
f 245/53/6 229/54/6 240/55/6 256/56/6
f 196/57/10 193/58/10 209/58/10 212/57/10
f 194/59/11 193/58/11 242/60/11 243/61/11
f 200/62/3 197/63/3 213/63/3 216/62/3
f 227/64/12 230/26/12 246/65/12 243/61/12
f 193/58/11 196/57/11 247/39/11 242/38/11
f 250/66/13 255/67/13 239/4/13 234/36/13
f 198/68/7 197/63/7 250/69/7 251/46/7
f 244/50/2 241/5/2 252/70/2 249/71/2
f 248/33/6 245/53/6 256/72/6 253/73/6
f 197/63/7 200/62/7 255/67/7 250/66/7
f 196/57/11 195/74/11 246/75/11 247/76/11
f 195/74/11 194/59/11 243/61/11 246/65/11
f 200/62/7 199/77/7 254/78/7 255/79/7
f 199/77/7 198/68/7 251/46/7 254/45/7
f 199/77/2 200/62/2 216/62/2 215/77/2
f 195/74/2 196/57/2 212/57/2 211/74/2
f 198/68/10 199/77/10 215/77/10 214/68/10
f 194/59/3 195/74/3 211/74/3 210/59/3
f 197/63/6 198/68/6 214/68/6 213/63/6
f 193/58/6 194/59/6 210/59/6 209/58/6
f 266/88/11 272/27/11 230/26/11 227/64/11
f 274/89/7 280/90/7 238/44/7 235/43/7
f 229/54/6 270/91/6 264/92/6 240/55/6
f 226/40/11 231/31/11 286/30/11 284/93/11
f 244/50/14 228/17/14 227/20/14 243/94/14
f 236/7/15 276/23/15 274/95/15 235/96/15
f 248/97/16 232/98/16 231/31/16 247/39/16
f 268/18/2 228/17/2 233/99/2 258/100/2
f 252/8/17 236/7/17 235/96/17 251/101/17
f 288/102/6 232/32/6 237/103/6 278/104/6
f 256/105/18 240/106/18 239/4/18 255/67/18
f 225/6/19 241/5/19 242/107/19 226/41/19
f 241/5/20 244/50/20 243/94/20 242/107/20
f 229/108/21 245/109/21 246/65/21 230/26/21
f 245/109/22 248/97/22 247/76/22 246/75/22
f 233/52/23 249/51/23 250/110/23 234/111/23
f 249/71/24 252/70/24 251/101/24 250/110/24
f 237/112/25 253/113/25 254/45/25 238/44/25
f 253/113/26 256/105/26 255/79/26 254/78/26
f 257/114/10 259/115/10 261/116/10 263/117/10 269/118/10 271/119/10 265/120/10 267/121/10
f 267/121/27 265/120/27 266/122/27 268/123/27
f 287/12/28 285/11/28 286/124/28 288/125/28
f 275/16/29 273/15/29 274/126/29 276/127/29
f 263/117/30 261/116/30 262/128/30 264/129/30
f 283/10/31 281/9/31 282/130/31 284/131/31
f 271/119/32 269/118/32 270/132/32 272/133/32
f 259/115/33 257/114/33 258/134/33 260/135/33
f 279/14/34 277/13/34 278/136/34 280/137/34
f 257/114/35 267/121/35 268/138/35 258/139/35
f 260/135/36 262/128/36 261/116/36 259/115/36
f 264/140/37 270/141/37 269/118/37 263/117/37
f 272/27/38 266/88/38 265/120/38 271/119/38
f 281/9/39 275/16/39 276/23/39 282/22/39
f 284/93/40 286/30/40 285/11/40 283/10/40
f 288/102/41 278/104/41 277/13/41 287/12/41
f 280/90/42 274/89/42 273/15/42 279/14/42
f 258/100/15 233/99/15 234/111/15 260/142/15
f 336/1/1 360/2/1 358/3/1 335/4/1
f 337/5/2 321/6/2 332/7/2 348/8/2
f 377/9/3 379/10/3 381/11/3 383/12/3 373/13/3 375/14/3 369/15/3 371/16/3
f 324/17/4 364/18/4 362/19/4 323/20/4
f 321/21/2 378/22/2 372/23/2 332/7/2
f 366/24/5 325/25/5 326/26/5 368/27/5
f 328/28/5 384/29/5 382/30/5 327/31/5
f 328/32/6 344/33/6 349/34/6 333/35/6
f 330/36/7 335/4/7 358/3/7 356/37/7
f 338/38/8 343/39/8 327/31/8 322/40/8
f 378/22/4 321/21/4 322/41/4 380/42/4
f 331/43/9 334/44/9 350/45/9 347/46/9
f 374/47/1 333/48/1 334/44/1 376/49/1
f 324/17/2 340/50/2 345/51/2 329/52/2
f 341/53/6 325/54/6 336/55/6 352/56/6
f 292/57/10 289/58/10 305/58/10 308/57/10
f 290/59/11 289/58/11 338/60/11 339/61/11
f 296/62/3 293/63/3 309/63/3 312/62/3
f 323/64/12 326/26/12 342/65/12 339/61/12
f 289/58/11 292/57/11 343/39/11 338/38/11
f 346/66/13 351/67/13 335/4/13 330/36/13
f 294/68/7 293/63/7 346/69/7 347/46/7
f 340/50/2 337/5/2 348/70/2 345/71/2
f 344/33/6 341/53/6 352/72/6 349/73/6
f 293/63/7 296/62/7 351/67/7 346/66/7
f 292/57/11 291/74/11 342/75/11 343/76/11
f 291/74/11 290/59/11 339/61/11 342/65/11
f 296/62/7 295/77/7 350/78/7 351/79/7
f 295/77/7 294/68/7 347/46/7 350/45/7
f 295/77/2 296/62/2 312/62/2 311/77/2
f 291/74/2 292/57/2 308/57/2 307/74/2
f 294/68/10 295/77/10 311/77/10 310/68/10
f 290/59/3 291/74/3 307/74/3 306/59/3
f 293/63/6 294/68/6 310/68/6 309/63/6
f 289/58/6 290/59/6 306/59/6 305/58/6
f 362/88/11 368/27/11 326/26/11 323/64/11
f 370/89/7 376/90/7 334/44/7 331/43/7
f 325/54/6 366/91/6 360/92/6 336/55/6
f 322/40/11 327/31/11 382/30/11 380/93/11
f 340/50/14 324/17/14 323/20/14 339/94/14
f 332/7/15 372/23/15 370/95/15 331/96/15
f 344/97/16 328/98/16 327/31/16 343/39/16
f 364/18/2 324/17/2 329/99/2 354/100/2
f 348/8/17 332/7/17 331/96/17 347/101/17
f 384/102/6 328/32/6 333/103/6 374/104/6
f 352/105/18 336/106/18 335/4/18 351/67/18
f 321/6/19 337/5/19 338/107/19 322/41/19
f 337/5/20 340/50/20 339/94/20 338/107/20
f 325/108/21 341/109/21 342/65/21 326/26/21
f 341/109/22 344/97/22 343/76/22 342/75/22
f 329/52/23 345/51/23 346/110/23 330/111/23
f 345/71/24 348/70/24 347/101/24 346/110/24
f 333/112/25 349/113/25 350/45/25 334/44/25
f 349/113/26 352/105/26 351/79/26 350/78/26
f 353/114/10 355/115/10 357/116/10 359/117/10 365/118/10 367/119/10 361/120/10 363/121/10
f 363/121/27 361/120/27 362/122/27 364/123/27
f 383/12/28 381/11/28 382/124/28 384/125/28
f 371/16/29 369/15/29 370/126/29 372/127/29
f 359/117/30 357/116/30 358/128/30 360/129/30
f 379/10/31 377/9/31 378/130/31 380/131/31
f 367/119/32 365/118/32 366/132/32 368/133/32
f 355/115/33 353/114/33 354/134/33 356/135/33
f 375/14/34 373/13/34 374/136/34 376/137/34
f 353/114/35 363/121/35 364/138/35 354/139/35
f 356/135/36 358/128/36 357/116/36 355/115/36
f 360/140/37 366/141/37 365/118/37 359/117/37
f 368/27/38 362/88/38 361/120/38 367/119/38
f 377/9/39 371/16/39 372/23/39 378/22/39
f 380/93/40 382/30/40 381/11/40 379/10/40
f 384/102/41 374/104/41 373/13/41 383/12/41
f 376/90/42 370/89/42 369/15/42 375/14/42
f 354/100/15 329/99/15 330/111/15 356/142/15
f 432/1/1 456/2/1 454/3/1 431/4/1
f 433/5/2 417/6/2 428/7/2 444/8/2
f 473/9/3 475/10/3 477/11/3 479/12/3 469/13/3 471/14/3 465/15/3 467/16/3
f 420/17/4 460/18/4 458/19/4 419/20/4
f 417/21/2 474/22/2 468/23/2 428/7/2
f 462/24/5 421/25/5 422/26/5 464/27/5
f 424/28/5 480/29/5 478/30/5 423/31/5
f 424/32/6 440/33/6 445/34/6 429/35/6
f 426/36/7 431/4/7 454/3/7 452/37/7
f 434/38/8 439/39/8 423/31/8 418/40/8
f 474/22/4 417/21/4 418/41/4 476/42/4
f 427/43/9 430/44/9 446/45/9 443/46/9
f 470/47/1 429/48/1 430/44/1 472/49/1
f 420/17/2 436/50/2 441/51/2 425/52/2
f 437/53/6 421/54/6 432/55/6 448/56/6
f 388/57/10 385/58/10 401/58/10 404/57/10
f 386/59/11 385/58/11 434/60/11 435/61/11
f 392/62/3 389/63/3 405/63/3 408/62/3
f 419/64/12 422/26/12 438/65/12 435/61/12
f 385/58/11 388/57/11 439/39/11 434/38/11
f 442/66/13 447/67/13 431/4/13 426/36/13
f 390/68/7 389/63/7 442/69/7 443/46/7
f 436/50/2 433/5/2 444/70/2 441/71/2
f 440/33/6 437/53/6 448/72/6 445/73/6
f 389/63/7 392/62/7 447/67/7 442/66/7
f 388/57/11 387/74/11 438/75/11 439/76/11
f 387/74/11 386/59/11 435/61/11 438/65/11
f 392/62/7 391/77/7 446/78/7 447/79/7
f 391/77/7 390/68/7 443/46/7 446/45/7
f 391/77/2 392/62/2 408/62/2 407/77/2
f 387/74/2 388/57/2 404/57/2 403/74/2
f 390/68/10 391/77/10 407/77/10 406/68/10
f 386/59/3 387/74/3 403/74/3 402/59/3
f 389/63/6 390/68/6 406/68/6 405/63/6
f 385/58/6 386/59/6 402/59/6 401/58/6
f 458/88/11 464/27/11 422/26/11 419/64/11
f 466/89/7 472/90/7 430/44/7 427/43/7
f 421/54/6 462/91/6 456/92/6 432/55/6
f 418/40/11 423/31/11 478/30/11 476/93/11
f 436/50/14 420/17/14 419/20/14 435/94/14
f 428/7/15 468/23/15 466/95/15 427/96/15
f 440/97/16 424/98/16 423/31/16 439/39/16
f 460/18/2 420/17/2 425/99/2 450/100/2
f 444/8/17 428/7/17 427/96/17 443/101/17
f 480/102/6 424/32/6 429/103/6 470/104/6
f 448/105/18 432/106/18 431/4/18 447/67/18
f 417/6/19 433/5/19 434/107/19 418/41/19
f 433/5/20 436/50/20 435/94/20 434/107/20
f 421/108/21 437/109/21 438/65/21 422/26/21
f 437/109/22 440/97/22 439/76/22 438/75/22
f 425/52/23 441/51/23 442/110/23 426/111/23
f 441/71/24 444/70/24 443/101/24 442/110/24
f 429/112/25 445/113/25 446/45/25 430/44/25
f 445/113/26 448/105/26 447/79/26 446/78/26
f 449/114/10 451/115/10 453/116/10 455/117/10 461/118/10 463/119/10 457/120/10 459/121/10
f 459/121/27 457/120/27 458/122/27 460/123/27
f 479/12/28 477/11/28 478/124/28 480/125/28
f 467/16/29 465/15/29 466/126/29 468/127/29
f 455/117/30 453/116/30 454/128/30 456/129/30
f 475/10/31 473/9/31 474/130/31 476/131/31
f 463/119/32 461/118/32 462/132/32 464/133/32
f 451/115/33 449/114/33 450/134/33 452/135/33
f 471/14/34 469/13/34 470/136/34 472/137/34
f 449/114/35 459/121/35 460/138/35 450/139/35
f 452/135/36 454/128/36 453/116/36 451/115/36
f 456/140/37 462/141/37 461/118/37 455/117/37
f 464/27/38 458/88/38 457/120/38 463/119/38
f 473/9/39 467/16/39 468/23/39 474/22/39
f 476/93/40 478/30/40 477/11/40 475/10/40
f 480/102/41 470/104/41 469/13/41 479/12/41
f 472/90/42 466/89/42 465/15/42 471/14/42
f 450/100/15 425/99/15 426/111/15 452/142/15
f 528/1/1 552/2/1 550/3/1 527/4/1
f 529/5/2 513/6/2 524/7/2 540/8/2
f 569/9/3 571/10/3 573/11/3 575/12/3 565/13/3 567/14/3 561/15/3 563/16/3
f 516/17/4 556/18/4 554/19/4 515/20/4
f 513/21/2 570/22/2 564/23/2 524/7/2
f 558/24/5 517/25/5 518/26/5 560/27/5
f 520/28/5 576/29/5 574/30/5 519/31/5
f 520/32/6 536/33/6 541/34/6 525/35/6
f 522/36/7 527/4/7 550/3/7 548/37/7
f 530/38/8 535/39/8 519/31/8 514/40/8
f 570/22/4 513/21/4 514/41/4 572/42/4
f 523/43/9 526/44/9 542/45/9 539/46/9
f 566/47/1 525/48/1 526/44/1 568/49/1
f 516/17/2 532/50/2 537/51/2 521/52/2
f 533/53/6 517/54/6 528/55/6 544/56/6
f 484/57/10 481/58/10 497/58/10 500/57/10
f 482/59/11 481/58/11 530/60/11 531/61/11
f 488/62/3 485/63/3 501/63/3 504/62/3
f 515/64/12 518/26/12 534/65/12 531/61/12
f 481/58/11 484/57/11 535/39/11 530/38/11
f 538/66/13 543/67/13 527/4/13 522/36/13
f 486/68/7 485/63/7 538/69/7 539/46/7
f 532/50/2 529/5/2 540/70/2 537/71/2
f 536/33/6 533/53/6 544/72/6 541/73/6
f 485/63/7 488/62/7 543/67/7 538/66/7
f 484/57/11 483/74/11 534/75/11 535/76/11
f 483/74/11 482/59/11 531/61/11 534/65/11
f 488/62/7 487/77/7 542/78/7 543/79/7
f 487/77/7 486/68/7 539/46/7 542/45/7
f 487/77/2 488/62/2 504/62/2 503/77/2
f 483/74/2 484/57/2 500/57/2 499/74/2
f 486/68/10 487/77/10 503/77/10 502/68/10
f 482/59/3 483/74/3 499/74/3 498/59/3
f 485/63/6 486/68/6 502/68/6 501/63/6
f 481/58/6 482/59/6 498/59/6 497/58/6
f 554/88/11 560/27/11 518/26/11 515/64/11
f 562/89/7 568/90/7 526/44/7 523/43/7
f 517/54/6 558/91/6 552/92/6 528/55/6
f 514/40/11 519/31/11 574/30/11 572/93/11
f 532/50/14 516/17/14 515/20/14 531/94/14
f 524/7/15 564/23/15 562/95/15 523/96/15
f 536/97/16 520/98/16 519/31/16 535/39/16
f 556/18/2 516/17/2 521/99/2 546/100/2
f 540/8/17 524/7/17 523/96/17 539/101/17
f 576/102/6 520/32/6 525/103/6 566/104/6
f 544/105/18 528/106/18 527/4/18 543/67/18
f 513/6/19 529/5/19 530/107/19 514/41/19
f 529/5/20 532/50/20 531/94/20 530/107/20
f 517/108/21 533/109/21 534/65/21 518/26/21
f 533/109/22 536/97/22 535/76/22 534/75/22
f 521/52/23 537/51/23 538/110/23 522/111/23
f 537/71/24 540/70/24 539/101/24 538/110/24
f 525/112/25 541/113/25 542/45/25 526/44/25
f 541/113/26 544/105/26 543/79/26 542/78/26
f 545/114/10 547/115/10 549/116/10 551/117/10 557/118/10 559/119/10 553/120/10 555/121/10
f 555/121/27 553/120/27 554/122/27 556/123/27
f 575/12/28 573/11/28 574/124/28 576/125/28
f 563/16/29 561/15/29 562/126/29 564/127/29
f 551/117/30 549/116/30 550/128/30 552/129/30
f 571/10/31 569/9/31 570/130/31 572/131/31
f 559/119/32 557/118/32 558/132/32 560/133/32
f 547/115/33 545/114/33 546/134/33 548/135/33
f 567/14/34 565/13/34 566/136/34 568/137/34
f 545/114/35 555/121/35 556/138/35 546/139/35
f 548/135/36 550/128/36 549/116/36 547/115/36
f 552/140/37 558/141/37 557/118/37 551/117/37
f 560/27/38 554/88/38 553/120/38 559/119/38
f 569/9/39 563/16/39 564/23/39 570/22/39
f 572/93/40 574/30/40 573/11/40 571/10/40
f 576/102/41 566/104/41 565/13/41 575/12/41
f 568/90/42 562/89/42 561/15/42 567/14/42
f 546/100/15 521/99/15 522/111/15 548/142/15
f 624/1/1 648/2/1 646/3/1 623/4/1
f 625/5/2 609/6/2 620/7/2 636/8/2
f 665/9/3 667/10/3 669/11/3 671/12/3 661/13/3 663/14/3 657/15/3 659/16/3
f 612/17/4 652/18/4 650/19/4 611/20/4
f 609/21/2 666/22/2 660/23/2 620/7/2
f 654/24/5 613/25/5 614/26/5 656/27/5
f 616/28/5 672/29/5 670/30/5 615/31/5
f 616/32/6 632/33/6 637/34/6 621/35/6
f 618/36/7 623/4/7 646/3/7 644/37/7
f 626/38/8 631/39/8 615/31/8 610/40/8
f 666/22/4 609/21/4 610/41/4 668/42/4
f 619/43/9 622/44/9 638/45/9 635/46/9
f 662/47/1 621/48/1 622/44/1 664/49/1
f 612/17/2 628/50/2 633/51/2 617/52/2
f 629/53/6 613/54/6 624/55/6 640/56/6
f 580/57/10 577/58/10 593/58/10 596/57/10
f 578/59/11 577/58/11 626/60/11 627/61/11
f 584/62/3 581/63/3 597/63/3 600/62/3
f 611/64/12 614/26/12 630/65/12 627/61/12
f 577/58/11 580/57/11 631/39/11 626/38/11
f 634/66/13 639/67/13 623/4/13 618/36/13
f 582/68/7 581/63/7 634/69/7 635/46/7
f 628/50/2 625/5/2 636/70/2 633/71/2
f 632/33/6 629/53/6 640/72/6 637/73/6
f 581/63/7 584/62/7 639/67/7 634/66/7
f 580/57/11 579/74/11 630/75/11 631/76/11
f 579/74/11 578/59/11 627/61/11 630/65/11
f 584/62/7 583/77/7 638/78/7 639/79/7
f 583/77/7 582/68/7 635/46/7 638/45/7
f 583/77/2 584/62/2 600/62/2 599/77/2
f 579/74/2 580/57/2 596/57/2 595/74/2
f 582/68/10 583/77/10 599/77/10 598/68/10
f 578/59/3 579/74/3 595/74/3 594/59/3
f 581/63/6 582/68/6 598/68/6 597/63/6
f 577/58/6 578/59/6 594/59/6 593/58/6
f 650/88/11 656/27/11 614/26/11 611/64/11
f 658/89/7 664/90/7 622/44/7 619/43/7
f 613/54/6 654/91/6 648/92/6 624/55/6
f 610/40/11 615/31/11 670/30/11 668/93/11
f 628/50/14 612/17/14 611/20/14 627/94/14
f 620/7/15 660/23/15 658/95/15 619/96/15
f 632/97/16 616/98/16 615/31/16 631/39/16
f 652/18/2 612/17/2 617/99/2 642/100/2
f 636/8/17 620/7/17 619/96/17 635/101/17
f 672/102/6 616/32/6 621/103/6 662/104/6
f 640/105/18 624/106/18 623/4/18 639/67/18
f 609/6/19 625/5/19 626/107/19 610/41/19
f 625/5/20 628/50/20 627/94/20 626/107/20
f 613/108/21 629/109/21 630/65/21 614/26/21
f 629/109/22 632/97/22 631/76/22 630/75/22
f 617/52/23 633/51/23 634/110/23 618/111/23
f 633/71/24 636/70/24 635/101/24 634/110/24
f 621/112/25 637/113/25 638/45/25 622/44/25
f 637/113/26 640/105/26 639/79/26 638/78/26
f 641/114/10 643/115/10 645/116/10 647/117/10 653/118/10 655/119/10 649/120/10 651/121/10
f 651/121/27 649/120/27 650/122/27 652/123/27
f 671/12/28 669/11/28 670/124/28 672/125/28
f 659/16/29 657/15/29 658/126/29 660/127/29
f 647/117/30 645/116/30 646/128/30 648/129/30
f 667/10/31 665/9/31 666/130/31 668/131/31
f 655/119/32 653/118/32 654/132/32 656/133/32
f 643/115/33 641/114/33 642/134/33 644/135/33
f 663/14/34 661/13/34 662/136/34 664/137/34
f 641/114/35 651/121/35 652/138/35 642/139/35
f 644/135/36 646/128/36 645/116/36 643/115/36
f 648/140/37 654/141/37 653/118/37 647/117/37
f 656/27/38 650/88/38 649/120/38 655/119/38
f 665/9/39 659/16/39 660/23/39 666/22/39
f 668/93/40 670/30/40 669/11/40 667/10/40
f 672/102/41 662/104/41 661/13/41 671/12/41
f 664/90/42 658/89/42 657/15/42 663/14/42
f 642/100/15 617/99/15 618/111/15 644/142/15
f 720/1/1 744/2/1 742/3/1 719/4/1
f 721/5/2 705/6/2 716/7/2 732/8/2
f 761/9/3 763/10/3 765/11/3 767/12/3 757/13/3 759/14/3 753/15/3 755/16/3
f 708/17/4 748/18/4 746/19/4 707/20/4
f 705/21/2 762/22/2 756/23/2 716/7/2
f 750/24/5 709/25/5 710/26/5 752/27/5
f 712/28/5 768/29/5 766/30/5 711/31/5
f 712/32/6 728/33/6 733/34/6 717/35/6
f 714/36/7 719/4/7 742/3/7 740/37/7
f 722/38/8 727/39/8 711/31/8 706/40/8
f 762/22/4 705/21/4 706/41/4 764/42/4
f 715/43/9 718/44/9 734/45/9 731/46/9
f 758/47/1 717/48/1 718/44/1 760/49/1
f 708/17/2 724/50/2 729/51/2 713/52/2
f 725/53/6 709/54/6 720/55/6 736/56/6
f 676/57/10 673/58/10 689/58/10 692/57/10
f 674/59/11 673/58/11 722/60/11 723/61/11
f 680/62/3 677/63/3 693/63/3 696/62/3
f 707/64/12 710/26/12 726/65/12 723/61/12
f 673/58/11 676/57/11 727/39/11 722/38/11
f 730/66/13 735/67/13 719/4/13 714/36/13
f 678/68/7 677/63/7 730/69/7 731/46/7
f 724/50/2 721/5/2 732/70/2 729/71/2
f 728/33/6 725/53/6 736/72/6 733/73/6
f 677/63/7 680/62/7 735/67/7 730/66/7
f 676/57/11 675/74/11 726/75/11 727/76/11
f 675/74/11 674/59/11 723/61/11 726/65/11
f 680/62/7 679/77/7 734/78/7 735/79/7
f 679/77/7 678/68/7 731/46/7 734/45/7
f 679/77/2 680/62/2 696/62/2 695/77/2
f 675/74/2 676/57/2 692/57/2 691/74/2
f 678/68/10 679/77/10 695/77/10 694/68/10
f 674/59/3 675/74/3 691/74/3 690/59/3
f 677/63/6 678/68/6 694/68/6 693/63/6
f 673/58/6 674/59/6 690/59/6 689/58/6
f 746/88/11 752/27/11 710/26/11 707/64/11
f 754/89/7 760/90/7 718/44/7 715/43/7
f 709/54/6 750/91/6 744/92/6 720/55/6
f 706/40/11 711/31/11 766/30/11 764/93/11
f 724/50/14 708/17/14 707/20/14 723/94/14
f 716/7/15 756/23/15 754/95/15 715/96/15
f 728/97/16 712/98/16 711/31/16 727/39/16
f 748/18/2 708/17/2 713/99/2 738/100/2
f 732/8/17 716/7/17 715/96/17 731/101/17
f 768/102/6 712/32/6 717/103/6 758/104/6
f 736/105/18 720/106/18 719/4/18 735/67/18
f 705/6/19 721/5/19 722/107/19 706/41/19
f 721/5/20 724/50/20 723/94/20 722/107/20
f 709/108/21 725/109/21 726/65/21 710/26/21
f 725/109/22 728/97/22 727/76/22 726/75/22
f 713/52/23 729/51/23 730/110/23 714/111/23
f 729/71/24 732/70/24 731/101/24 730/110/24
f 717/112/25 733/113/25 734/45/25 718/44/25
f 733/113/26 736/105/26 735/79/26 734/78/26
f 737/114/10 739/115/10 741/116/10 743/117/10 749/118/10 751/119/10 745/120/10 747/121/10
f 747/121/27 745/120/27 746/122/27 748/123/27
f 767/12/28 765/11/28 766/124/28 768/125/28
f 755/16/29 753/15/29 754/126/29 756/127/29
f 743/117/30 741/116/30 742/128/30 744/129/30
f 763/10/31 761/9/31 762/130/31 764/131/31
f 751/119/32 749/118/32 750/132/32 752/133/32
f 739/115/33 737/114/33 738/134/33 740/135/33
f 759/14/34 757/13/34 758/136/34 760/137/34
f 737/114/35 747/121/35 748/138/35 738/139/35
f 740/135/36 742/128/36 741/116/36 739/115/36
f 744/140/37 750/141/37 749/118/37 743/117/37
f 752/27/38 746/88/38 745/120/38 751/119/38
f 761/9/39 755/16/39 756/23/39 762/22/39
f 764/93/40 766/30/40 765/11/40 763/10/40
f 768/102/41 758/104/41 757/13/41 767/12/41
f 760/90/42 754/89/42 753/15/42 759/14/42
f 738/100/15 713/99/15 714/111/15 740/142/15
f 816/1/1 840/2/1 838/3/1 815/4/1
f 817/5/2 801/6/2 812/7/2 828/8/2
f 857/9/3 859/10/3 861/11/3 863/12/3 853/13/3 855/14/3 849/15/3 851/16/3
f 804/17/4 844/18/4 842/19/4 803/20/4
f 801/21/2 858/22/2 852/23/2 812/7/2
f 846/24/5 805/25/5 806/26/5 848/27/5
f 808/28/5 864/29/5 862/30/5 807/31/5
f 808/32/6 824/33/6 829/34/6 813/35/6
f 810/36/7 815/4/7 838/3/7 836/37/7
f 818/38/8 823/39/8 807/31/8 802/40/8
f 858/22/4 801/21/4 802/41/4 860/42/4
f 811/43/9 814/44/9 830/45/9 827/46/9
f 854/47/1 813/48/1 814/44/1 856/49/1
f 804/17/2 820/50/2 825/51/2 809/52/2
f 821/53/6 805/54/6 816/55/6 832/56/6
f 772/57/10 769/58/10 785/58/10 788/57/10
f 770/59/11 769/58/11 818/60/11 819/61/11
f 776/62/3 773/63/3 789/63/3 792/62/3
f 803/64/12 806/26/12 822/65/12 819/61/12
f 769/58/11 772/57/11 823/39/11 818/38/11
f 826/66/13 831/67/13 815/4/13 810/36/13
f 774/68/7 773/63/7 826/69/7 827/46/7
f 820/50/2 817/5/2 828/70/2 825/71/2
f 824/33/6 821/53/6 832/72/6 829/73/6
f 773/63/7 776/62/7 831/67/7 826/66/7
f 772/57/11 771/74/11 822/75/11 823/76/11
f 771/74/11 770/59/11 819/61/11 822/65/11
f 776/62/7 775/77/7 830/78/7 831/79/7
f 775/77/7 774/68/7 827/46/7 830/45/7
f 775/77/2 776/62/2 792/62/2 791/77/2
f 771/74/2 772/57/2 788/57/2 787/74/2
f 774/68/10 775/77/10 791/77/10 790/68/10
f 770/59/3 771/74/3 787/74/3 786/59/3
f 773/63/6 774/68/6 790/68/6 789/63/6
f 769/58/6 770/59/6 786/59/6 785/58/6
f 842/88/11 848/27/11 806/26/11 803/64/11
f 850/89/7 856/90/7 814/44/7 811/43/7
f 805/54/6 846/91/6 840/92/6 816/55/6
f 802/40/11 807/31/11 862/30/11 860/93/11
f 820/50/14 804/17/14 803/20/14 819/94/14
f 812/7/15 852/23/15 850/95/15 811/96/15
f 824/97/16 808/98/16 807/31/16 823/39/16
f 844/18/2 804/17/2 809/99/2 834/100/2
f 828/8/17 812/7/17 811/96/17 827/101/17
f 864/102/6 808/32/6 813/103/6 854/104/6
f 832/105/18 816/106/18 815/4/18 831/67/18
f 801/6/19 817/5/19 818/107/19 802/41/19
f 817/5/20 820/50/20 819/94/20 818/107/20
f 805/108/21 821/109/21 822/65/21 806/26/21
f 821/109/22 824/97/22 823/76/22 822/75/22
f 809/52/23 825/51/23 826/110/23 810/111/23
f 825/71/24 828/70/24 827/101/24 826/110/24
f 813/112/25 829/113/25 830/45/25 814/44/25
f 829/113/26 832/105/26 831/79/26 830/78/26
f 833/114/10 835/115/10 837/116/10 839/117/10 845/118/10 847/119/10 841/120/10 843/121/10
f 843/121/27 841/120/27 842/122/27 844/123/27
f 863/12/28 861/11/28 862/124/28 864/125/28
f 851/16/29 849/15/29 850/126/29 852/127/29
f 839/117/30 837/116/30 838/128/30 840/129/30
f 859/10/31 857/9/31 858/130/31 860/131/31
f 847/119/32 845/118/32 846/132/32 848/133/32
f 835/115/33 833/114/33 834/134/33 836/135/33
f 855/14/34 853/13/34 854/136/34 856/137/34
f 833/114/35 843/121/35 844/138/35 834/139/35
f 836/135/36 838/128/36 837/116/36 835/115/36
f 840/140/37 846/141/37 845/118/37 839/117/37
f 848/27/38 842/88/38 841/120/38 847/119/38
f 857/9/39 851/16/39 852/23/39 858/22/39
f 860/93/40 862/30/40 861/11/40 859/10/40
f 864/102/41 854/104/41 853/13/41 863/12/41
f 856/90/42 850/89/42 849/15/42 855/14/42
f 834/100/15 809/99/15 810/111/15 836/142/15
f 912/1/1 936/2/1 934/3/1 911/4/1
f 913/5/2 897/6/2 908/7/2 924/8/2
f 953/9/3 955/10/3 957/11/3 959/12/3 949/13/3 951/14/3 945/15/3 947/16/3
f 900/17/4 940/18/4 938/19/4 899/20/4
f 897/21/2 954/22/2 948/23/2 908/7/2
f 942/24/5 901/25/5 902/26/5 944/27/5
f 904/28/5 960/29/5 958/30/5 903/31/5
f 904/32/6 920/33/6 925/34/6 909/35/6
f 906/36/7 911/4/7 934/3/7 932/37/7
f 914/38/8 919/39/8 903/31/8 898/40/8
f 954/22/4 897/21/4 898/41/4 956/42/4
f 907/43/9 910/44/9 926/45/9 923/46/9
f 950/47/1 909/48/1 910/44/1 952/49/1
f 900/17/2 916/50/2 921/51/2 905/52/2
f 917/53/6 901/54/6 912/55/6 928/56/6
f 868/57/10 865/58/10 881/58/10 884/57/10
f 866/59/11 865/58/11 914/60/11 915/61/11
f 872/62/3 869/63/3 885/63/3 888/62/3
f 899/64/12 902/26/12 918/65/12 915/61/12
f 865/58/11 868/57/11 919/39/11 914/38/11
f 922/66/13 927/67/13 911/4/13 906/36/13
f 870/68/7 869/63/7 922/69/7 923/46/7
f 916/50/2 913/5/2 924/70/2 921/71/2
f 920/33/6 917/53/6 928/72/6 925/73/6
f 869/63/7 872/62/7 927/67/7 922/66/7
f 868/57/11 867/74/11 918/75/11 919/76/11
f 867/74/11 866/59/11 915/61/11 918/65/11
f 872/62/7 871/77/7 926/78/7 927/79/7
f 871/77/7 870/68/7 923/46/7 926/45/7
f 871/77/2 872/62/2 888/62/2 887/77/2
f 867/74/2 868/57/2 884/57/2 883/74/2
f 870/68/10 871/77/10 887/77/10 886/68/10
f 866/59/3 867/74/3 883/74/3 882/59/3
f 869/63/6 870/68/6 886/68/6 885/63/6
f 865/58/6 866/59/6 882/59/6 881/58/6
f 938/88/11 944/27/11 902/26/11 899/64/11
f 946/89/7 952/90/7 910/44/7 907/43/7
f 901/54/6 942/91/6 936/92/6 912/55/6
f 898/40/11 903/31/11 958/30/11 956/93/11
f 916/50/14 900/17/14 899/20/14 915/94/14
f 908/7/15 948/23/15 946/95/15 907/96/15
f 920/97/16 904/98/16 903/31/16 919/39/16
f 940/18/2 900/17/2 905/99/2 930/100/2
f 924/8/17 908/7/17 907/96/17 923/101/17
f 960/102/6 904/32/6 909/103/6 950/104/6
f 928/105/18 912/106/18 911/4/18 927/67/18
f 897/6/19 913/5/19 914/107/19 898/41/19
f 913/5/20 916/50/20 915/94/20 914/107/20
f 901/108/21 917/109/21 918/65/21 902/26/21
f 917/109/22 920/97/22 919/76/22 918/75/22
f 905/52/23 921/51/23 922/110/23 906/111/23
f 921/71/24 924/70/24 923/101/24 922/110/24
f 909/112/25 925/113/25 926/45/25 910/44/25
f 925/113/26 928/105/26 927/79/26 926/78/26
f 929/114/10 931/115/10 933/116/10 935/117/10 941/118/10 943/119/10 937/120/10 939/121/10
f 939/121/27 937/120/27 938/122/27 940/123/27
f 959/12/28 957/11/28 958/124/28 960/125/28
f 947/16/29 945/15/29 946/126/29 948/127/29
f 935/117/30 933/116/30 934/128/30 936/129/30
f 955/10/31 953/9/31 954/130/31 956/131/31
f 943/119/32 941/118/32 942/132/32 944/133/32
f 931/115/33 929/114/33 930/134/33 932/135/33
f 951/14/34 949/13/34 950/136/34 952/137/34
f 929/114/35 939/121/35 940/138/35 930/139/35
f 932/135/36 934/128/36 933/116/36 931/115/36
f 936/140/37 942/141/37 941/118/37 935/117/37
f 944/27/38 938/88/38 937/120/38 943/119/38
f 953/9/39 947/16/39 948/23/39 954/22/39
f 956/93/40 958/30/40 957/11/40 955/10/40
f 960/102/41 950/104/41 949/13/41 959/12/41
f 952/90/42 946/89/42 945/15/42 951/14/42
f 930/100/15 905/99/15 906/111/15 932/142/15
usemtl Noir_Profond
f 13/80/6 14/81/6 30/81/6 29/80/6
f 10/82/3 11/83/3 27/83/3 26/82/3
f 10/82/11 9/84/11 17/58/11 18/59/11
f 12/85/11 11/83/11 19/74/11 20/57/11
f 14/81/7 13/80/7 21/63/7 22/68/7
f 16/86/7 15/87/7 23/77/7 24/62/7
f 11/83/11 10/82/11 18/59/11 19/74/11
f 9/84/11 12/85/11 20/57/11 17/58/11
f 15/87/7 14/81/7 22/68/7 23/77/7
f 13/80/7 16/86/7 24/62/7 21/63/7
f 9/84/6 10/82/6 26/82/6 25/84/6
f 16/86/3 13/80/3 29/80/3 32/86/3
f 12/85/10 9/84/10 25/84/10 28/85/10
f 15/87/2 16/86/2 32/86/2 31/87/2
f 11/83/2 12/85/2 28/85/2 27/83/2
f 14/81/10 15/87/10 31/87/10 30/81/10
f 109/80/6 110/81/6 126/81/6 125/80/6
f 106/82/3 107/83/3 123/83/3 122/82/3
f 106/82/11 105/84/11 113/58/11 114/59/11
f 108/85/11 107/83/11 115/74/11 116/57/11
f 110/81/7 109/80/7 117/63/7 118/68/7
f 112/86/7 111/87/7 119/77/7 120/62/7
f 107/83/11 106/82/11 114/59/11 115/74/11
f 105/84/11 108/85/11 116/57/11 113/58/11
f 111/87/7 110/81/7 118/68/7 119/77/7
f 109/80/7 112/86/7 120/62/7 117/63/7
f 105/84/6 106/82/6 122/82/6 121/84/6
f 112/86/3 109/80/3 125/80/3 128/86/3
f 108/85/10 105/84/10 121/84/10 124/85/10
f 111/87/2 112/86/2 128/86/2 127/87/2
f 107/83/2 108/85/2 124/85/2 123/83/2
f 110/81/10 111/87/10 127/87/10 126/81/10
f 205/80/6 206/81/6 222/81/6 221/80/6
f 202/82/3 203/83/3 219/83/3 218/82/3
f 202/82/11 201/84/11 209/58/11 210/59/11
f 204/85/11 203/83/11 211/74/11 212/57/11
f 206/81/7 205/80/7 213/63/7 214/68/7
f 208/86/7 207/87/7 215/77/7 216/62/7
f 203/83/11 202/82/11 210/59/11 211/74/11
f 201/84/11 204/85/11 212/57/11 209/58/11
f 207/87/7 206/81/7 214/68/7 215/77/7
f 205/80/7 208/86/7 216/62/7 213/63/7
f 201/84/6 202/82/6 218/82/6 217/84/6
f 208/86/3 205/80/3 221/80/3 224/86/3
f 204/85/10 201/84/10 217/84/10 220/85/10
f 207/87/2 208/86/2 224/86/2 223/87/2
f 203/83/2 204/85/2 220/85/2 219/83/2
f 206/81/10 207/87/10 223/87/10 222/81/10
f 301/80/6 302/81/6 318/81/6 317/80/6
f 298/82/3 299/83/3 315/83/3 314/82/3
f 298/82/11 297/84/11 305/58/11 306/59/11
f 300/85/11 299/83/11 307/74/11 308/57/11
f 302/81/7 301/80/7 309/63/7 310/68/7
f 304/86/7 303/87/7 311/77/7 312/62/7
f 299/83/11 298/82/11 306/59/11 307/74/11
f 297/84/11 300/85/11 308/57/11 305/58/11
f 303/87/7 302/81/7 310/68/7 311/77/7
f 301/80/7 304/86/7 312/62/7 309/63/7
f 297/84/6 298/82/6 314/82/6 313/84/6
f 304/86/3 301/80/3 317/80/3 320/86/3
f 300/85/10 297/84/10 313/84/10 316/85/10
f 303/87/2 304/86/2 320/86/2 319/87/2
f 299/83/2 300/85/2 316/85/2 315/83/2
f 302/81/10 303/87/10 319/87/10 318/81/10
f 397/80/6 398/81/6 414/81/6 413/80/6
f 394/82/3 395/83/3 411/83/3 410/82/3
f 394/82/11 393/84/11 401/58/11 402/59/11
f 396/85/11 395/83/11 403/74/11 404/57/11
f 398/81/7 397/80/7 405/63/7 406/68/7
f 400/86/7 399/87/7 407/77/7 408/62/7
f 395/83/11 394/82/11 402/59/11 403/74/11
f 393/84/11 396/85/11 404/57/11 401/58/11
f 399/87/7 398/81/7 406/68/7 407/77/7
f 397/80/7 400/86/7 408/62/7 405/63/7
f 393/84/6 394/82/6 410/82/6 409/84/6
f 400/86/3 397/80/3 413/80/3 416/86/3
f 396/85/10 393/84/10 409/84/10 412/85/10
f 399/87/2 400/86/2 416/86/2 415/87/2
f 395/83/2 396/85/2 412/85/2 411/83/2
f 398/81/10 399/87/10 415/87/10 414/81/10
f 493/80/6 494/81/6 510/81/6 509/80/6
f 490/82/3 491/83/3 507/83/3 506/82/3
f 490/82/11 489/84/11 497/58/11 498/59/11
f 492/85/11 491/83/11 499/74/11 500/57/11
f 494/81/7 493/80/7 501/63/7 502/68/7
f 496/86/7 495/87/7 503/77/7 504/62/7
f 491/83/11 490/82/11 498/59/11 499/74/11
f 489/84/11 492/85/11 500/57/11 497/58/11
f 495/87/7 494/81/7 502/68/7 503/77/7
f 493/80/7 496/86/7 504/62/7 501/63/7
f 489/84/6 490/82/6 506/82/6 505/84/6
f 496/86/3 493/80/3 509/80/3 512/86/3
f 492/85/10 489/84/10 505/84/10 508/85/10
f 495/87/2 496/86/2 512/86/2 511/87/2
f 491/83/2 492/85/2 508/85/2 507/83/2
f 494/81/10 495/87/10 511/87/10 510/81/10
f 589/80/6 590/81/6 606/81/6 605/80/6
f 586/82/3 587/83/3 603/83/3 602/82/3
f 586/82/11 585/84/11 593/58/11 594/59/11
f 588/85/11 587/83/11 595/74/11 596/57/11
f 590/81/7 589/80/7 597/63/7 598/68/7
f 592/86/7 591/87/7 599/77/7 600/62/7
f 587/83/11 586/82/11 594/59/11 595/74/11
f 585/84/11 588/85/11 596/57/11 593/58/11
f 591/87/7 590/81/7 598/68/7 599/77/7
f 589/80/7 592/86/7 600/62/7 597/63/7
f 585/84/6 586/82/6 602/82/6 601/84/6
f 592/86/3 589/80/3 605/80/3 608/86/3
f 588/85/10 585/84/10 601/84/10 604/85/10
f 591/87/2 592/86/2 608/86/2 607/87/2
f 587/83/2 588/85/2 604/85/2 603/83/2
f 590/81/10 591/87/10 607/87/10 606/81/10
f 685/80/6 686/81/6 702/81/6 701/80/6
f 682/82/3 683/83/3 699/83/3 698/82/3
f 682/82/11 681/84/11 689/58/11 690/59/11
f 684/85/11 683/83/11 691/74/11 692/57/11
f 686/81/7 685/80/7 693/63/7 694/68/7
f 688/86/7 687/87/7 695/77/7 696/62/7
f 683/83/11 682/82/11 690/59/11 691/74/11
f 681/84/11 684/85/11 692/57/11 689/58/11
f 687/87/7 686/81/7 694/68/7 695/77/7
f 685/80/7 688/86/7 696/62/7 693/63/7
f 681/84/6 682/82/6 698/82/6 697/84/6
f 688/86/3 685/80/3 701/80/3 704/86/3
f 684/85/10 681/84/10 697/84/10 700/85/10
f 687/87/2 688/86/2 704/86/2 703/87/2
f 683/83/2 684/85/2 700/85/2 699/83/2
f 686/81/10 687/87/10 703/87/10 702/81/10
f 781/80/6 782/81/6 798/81/6 797/80/6
f 778/82/3 779/83/3 795/83/3 794/82/3
f 778/82/11 777/84/11 785/58/11 786/59/11
f 780/85/11 779/83/11 787/74/11 788/57/11
f 782/81/7 781/80/7 789/63/7 790/68/7
f 784/86/7 783/87/7 791/77/7 792/62/7
f 779/83/11 778/82/11 786/59/11 787/74/11
f 777/84/11 780/85/11 788/57/11 785/58/11
f 783/87/7 782/81/7 790/68/7 791/77/7
f 781/80/7 784/86/7 792/62/7 789/63/7
f 777/84/6 778/82/6 794/82/6 793/84/6
f 784/86/3 781/80/3 797/80/3 800/86/3
f 780/85/10 777/84/10 793/84/10 796/85/10
f 783/87/2 784/86/2 800/86/2 799/87/2
f 779/83/2 780/85/2 796/85/2 795/83/2
f 782/81/10 783/87/10 799/87/10 798/81/10
f 877/80/6 878/81/6 894/81/6 893/80/6
f 874/82/3 875/83/3 891/83/3 890/82/3
f 874/82/11 873/84/11 881/58/11 882/59/11
f 876/85/11 875/83/11 883/74/11 884/57/11
f 878/81/7 877/80/7 885/63/7 886/68/7
f 880/86/7 879/87/7 887/77/7 888/62/7
f 875/83/11 874/82/11 882/59/11 883/74/11
f 873/84/11 876/85/11 884/57/11 881/58/11
f 879/87/7 878/81/7 886/68/7 887/77/7
f 877/80/7 880/86/7 888/62/7 885/63/7
f 873/84/6 874/82/6 890/82/6 889/84/6
f 880/86/3 877/80/3 893/80/3 896/86/3
f 876/85/10 873/84/10 889/84/10 892/85/10
f 879/87/2 880/86/2 896/86/2 895/87/2
f 875/83/2 876/85/2 892/85/2 891/83/2
f 878/81/10 879/87/10 895/87/10 894/81/10
f 961/143/10 962/144/10 964/145/10 963/146/10
f 963/146/11 964/145/11 968/147/11 967/148/11
f 967/148/3 968/147/3 966/149/3 965/150/3
f 965/150/7 966/149/7 962/151/7 961/152/7
f 963/153/2 967/148/2 965/150/2 961/154/2
f 968/147/6 964/155/6 962/156/6 966/149/6
f 969/143/10 970/144/10 972/145/10 971/146/10
f 971/146/11 972/145/11 976/147/11 975/148/11
f 975/148/3 976/147/3 974/149/3 973/150/3
f 973/150/7 974/149/7 970/151/7 969/152/7
f 971/153/2 975/148/2 973/150/2 969/154/2
f 976/147/6 972/155/6 970/156/6 974/149/6
f 977/143/10 978/144/10 980/145/10 979/146/10
f 979/146/11 980/145/11 984/147/11 983/148/11
f 983/148/3 984/147/3 982/149/3 981/150/3
f 981/150/7 982/149/7 978/151/7 977/152/7
f 979/153/2 983/148/2 981/150/2 977/154/2
f 984/147/6 980/155/6 978/156/6 982/149/6
f 985/143/10 986/144/10 988/145/10 987/146/10
f 987/146/11 988/145/11 992/147/11 991/148/11
f 991/148/3 992/147/3 990/149/3 989/150/3
f 989/150/7 990/149/7 986/151/7 985/152/7
f 987/153/2 991/148/2 989/150/2 985/154/2
f 992/147/6 988/155/6 986/156/6 990/149/6
f 993/143/10 994/144/10 996/145/10 995/146/10
f 995/146/11 996/145/11 1000/147/11 999/148/11
f 999/148/3 1000/147/3 998/149/3 997/150/3
f 997/150/7 998/149/7 994/151/7 993/152/7
f 995/153/2 999/148/2 997/150/2 993/154/2
f 1000/147/6 996/155/6 994/156/6 998/149/6
f 1001/143/10 1002/144/10 1004/145/10 1003/146/10
f 1003/146/11 1004/145/11 1008/147/11 1007/148/11
f 1007/148/3 1008/147/3 1006/149/3 1005/150/3
f 1005/150/7 1006/149/7 1002/151/7 1001/152/7
f 1003/153/2 1007/148/2 1005/150/2 1001/154/2
f 1008/147/6 1004/155/6 1002/156/6 1006/149/6
f 1009/143/10 1010/144/10 1012/145/10 1011/146/10
f 1011/146/11 1012/145/11 1016/147/11 1015/148/11
f 1015/148/3 1016/147/3 1014/149/3 1013/150/3
f 1013/150/7 1014/149/7 1010/151/7 1009/152/7
f 1011/153/2 1015/148/2 1013/150/2 1009/154/2
f 1016/147/6 1012/155/6 1010/156/6 1014/149/6
f 1017/143/10 1018/144/10 1020/145/10 1019/146/10
f 1019/146/11 1020/145/11 1024/147/11 1023/148/11
f 1023/148/3 1024/147/3 1022/149/3 1021/150/3
f 1021/150/7 1022/149/7 1018/151/7 1017/152/7
f 1019/153/2 1023/148/2 1021/150/2 1017/154/2
f 1024/147/6 1020/155/6 1018/156/6 1022/149/6
f 1025/143/10 1026/144/10 1028/145/10 1027/146/10
f 1027/146/11 1028/145/11 1032/147/11 1031/148/11
f 1031/148/3 1032/147/3 1030/149/3 1029/150/3
f 1029/150/7 1030/149/7 1026/151/7 1025/152/7
f 1027/153/2 1031/148/2 1029/150/2 1025/154/2
f 1032/147/6 1028/155/6 1026/156/6 1030/149/6
f 1033/143/10 1034/144/10 1036/145/10 1035/146/10
f 1035/146/11 1036/145/11 1040/147/11 1039/148/11
f 1039/148/3 1040/147/3 1038/149/3 1037/150/3
f 1037/150/7 1038/149/7 1034/151/7 1033/152/7
f 1035/153/2 1039/148/2 1037/150/2 1033/154/2
f 1040/147/6 1036/155/6 1034/156/6 1038/149/6
usemtl Bleu_Neon
f 26/82/11 27/83/11 28/85/11 25/84/11
f 30/81/7 31/87/7 32/86/7 29/80/7
f 122/82/11 123/83/11 124/85/11 121/84/11
f 126/81/7 127/87/7 128/86/7 125/80/7
f 218/82/11 219/83/11 220/85/11 217/84/11
f 222/81/7 223/87/7 224/86/7 221/80/7
f 314/82/11 315/83/11 316/85/11 313/84/11
f 318/81/7 319/87/7 320/86/7 317/80/7
f 410/82/11 411/83/11 412/85/11 409/84/11
f 414/81/7 415/87/7 416/86/7 413/80/7
f 506/82/11 507/83/11 508/85/11 505/84/11
f 510/81/7 511/87/7 512/86/7 509/80/7
f 602/82/11 603/83/11 604/85/11 601/84/11
f 606/81/7 607/87/7 608/86/7 605/80/7
f 698/82/11 699/83/11 700/85/11 697/84/11
f 702/81/7 703/87/7 704/86/7 701/80/7
f 794/82/11 795/83/11 796/85/11 793/84/11
f 798/81/7 799/87/7 800/86/7 797/80/7
f 890/82/11 891/83/11 892/85/11 889/84/11
f 894/81/7 895/87/7 896/86/7 893/80/7
