# Blender 4.2.3 LTS
# www.blender.org
mtllib SM_Wall_Corner.mtl
o SM_Wall_Corner
v -0.050000 -1.014981 0.985002
v -0.050000 0.985019 0.985002
v -0.050000 -1.014981 -1.014998
v -0.050000 0.985019 -1.014998
v 0.050000 -1.014981 0.985002
v 0.050000 0.985019 0.985002
v 0.050000 -1.014981 -1.014998
v 0.050000 0.985019 -1.014998
v -0.050000 -0.614981 0.985002
v -0.050000 0.585019 0.985002
v -0.050000 0.585019 -1.014998
v -0.050000 -0.614981 -1.014998
v 0.050000 0.585019 -1.014998
v 0.050000 -0.614981 -1.014998
v 0.050000 0.585019 0.985002
v 0.050000 -0.614981 0.985002
v -0.049999 -0.580797 0.960547
v -0.049999 0.550835 0.960547
v -0.049999 0.550835 -0.990544
v -0.049999 -0.580798 -0.990544
v 0.049999 0.550835 -0.990544
v 0.049999 -0.580798 -0.990544
v 0.049999 0.550835 0.960547
v 0.049999 -0.580798 0.960547
v -0.050000 -1.014981 -0.614998
v -0.050000 -1.014981 0.585002
v -0.050000 0.985019 0.585002
v -0.050000 0.985019 -0.614998
v 0.050000 -1.014981 0.585002
v 0.050000 -1.014981 -0.614998
v 0.050000 0.985019 -0.614998
v 0.050000 0.985019 0.585002
v 0.050000 -0.917177 -0.917194
v 0.050000 -0.917177 0.887197
v 0.050000 0.887214 -0.917194
v 0.050000 0.887214 0.887197
v -0.050000 -0.917177 0.887197
v -0.050000 -0.917177 -0.917194
v -0.050000 0.887214 0.887197
v -0.050000 0.887214 -0.917194
v -0.049999 -0.990527 -0.580815
v -0.049999 -0.990527 0.550818
v -0.049999 0.960564 0.550818
v -0.049999 0.960564 -0.580815
v 0.049999 -0.990527 0.550818
v 0.049999 -0.990527 -0.580815
v 0.049999 0.960564 -0.580815
v 0.049999 0.960564 0.550818
v 0.040000 -0.917177 -0.917194
v 0.040000 -0.917177 0.887197
v 0.040000 0.887214 -0.917194
v 0.040000 0.887214 0.887197
v -0.040000 -0.917177 0.887197
v -0.040000 -0.917177 -0.917194
v -0.040000 0.887214 0.887197
v -0.040000 0.887214 -0.917194
v -0.017643 -0.566926 -0.990544
v 0.017643 -0.566926 -0.990544
v -0.017643 0.536963 -0.990544
v 0.017643 0.536963 -0.990544
v 0.017643 -0.566925 0.960547
v -0.017643 -0.566925 0.960547
v 0.017643 0.536963 0.960547
v -0.017643 0.536963 0.960547
v 0.017643 -0.990527 -0.566942
v -0.017643 -0.990527 -0.566942
v 0.017643 -0.990527 0.536946
v -0.017643 -0.990527 0.536946
v -0.017643 0.960564 -0.566942
v 0.017643 0.960564 -0.566942
v -0.017643 0.960564 0.536946
v 0.017643 0.960564 0.536946
v -0.006198 -0.544036 -0.970544
v 0.006198 -0.544036 -0.970544
v -0.006198 0.514073 -0.970544
v 0.006198 0.514073 -0.970544
v 0.006198 -0.544036 0.940547
v -0.006198 -0.544036 0.940547
v 0.006198 0.514073 0.940547
v -0.006198 0.514073 0.940547
v 0.006198 -0.970527 -0.544053
v -0.006198 -0.970527 -0.544053
v 0.006198 -0.970527 0.514056
v -0.006198 -0.970527 0.514056
v -0.006198 0.940564 -0.544053
v 0.006198 0.940564 -0.544053
v -0.006198 0.940564 0.514056
v 0.006198 0.940564 0.514056
v -0.017643 -0.566926 -0.970544
v 0.017643 -0.566926 -0.970544
v -0.017643 0.536963 -0.970544
v 0.017643 0.536963 -0.970544
v 0.017643 -0.566925 0.940547
v -0.017643 -0.566925 0.940547
v 0.017643 0.536963 0.940547
v -0.017643 0.536963 0.940547
v 0.017643 -0.970527 -0.566942
v -0.017643 -0.970527 -0.566942
v 0.017643 -0.970527 0.536946
v -0.017643 -0.970527 0.536946
v -0.017643 0.940564 -0.566942
v 0.017643 0.940564 -0.566942
v -0.017643 0.940564 0.536946
v 0.017643 0.940564 0.536946
v -0.006198 -0.544036 -0.960544
v 0.006198 -0.544036 -0.960544
v -0.006198 0.514073 -0.960544
v 0.006198 0.514073 -0.960544
v 0.006198 -0.544036 0.930547
v -0.006198 -0.544036 0.930547
v 0.006198 0.514073 0.930547
v -0.006198 0.514073 0.930547
v 0.006198 -0.960527 -0.544053
v -0.006198 -0.960527 -0.544053
v 0.006198 -0.960527 0.514056
v -0.006198 -0.960527 0.514056
v -0.006198 0.930564 -0.544053
v 0.006198 0.930564 -0.544053
v -0.006198 0.930564 0.514056
v 0.006198 0.930564 0.514056
v 0.040000 -0.189490 -0.917194
v 0.040000 0.159359 0.887197
v 0.040000 -0.189490 0.887197
v -0.040000 0.159359 0.887197
v -0.040000 -0.189490 0.887197
v -0.040000 -0.189490 -0.917194
v -0.040000 0.159359 0.857124
v -0.040000 -0.189490 0.857124
v 0.040000 0.159359 0.857124
v 0.040000 -0.189490 0.857124
v 0.040000 -0.917177 -0.189423
v 0.040000 0.887214 -0.189423
v 0.040000 0.887214 0.159426
v -0.040000 -0.917177 -0.189423
v -0.040000 0.887214 0.159426
v -0.040000 0.887214 -0.189423
v -0.040000 0.857141 0.159426
v -0.040000 0.857141 -0.189423
v 0.040000 0.857141 -0.189423
v 0.040000 0.857141 0.159426
v 0.040000 -0.189490 -0.189423
v 0.040000 0.159359 0.159426
v -0.040000 -0.189490 -0.189423
v -0.040000 0.159359 0.159426
v -0.030000 -0.099490 0.767124
v 0.030000 -0.099490 0.767124
v 0.030000 0.069359 0.069426
v 0.030000 0.069359 0.767124
v -0.030000 0.069359 0.767124
v -0.030000 0.767141 -0.099423
v 0.030000 0.767141 0.069426
v -0.030000 -0.099490 -0.099423
v -0.030000 0.069359 0.069426
v 0.030000 -0.099490 -0.099423
v 0.030000 0.767141 -0.099423
v -0.030000 0.767141 0.069426
v -0.030000 -0.189490 0.857124
v 0.030000 -0.189490 0.857124
v 0.030000 0.159359 0.159426
v 0.030000 0.159359 0.857124
v -0.030000 0.159359 0.857124
v -0.030000 0.857141 -0.189423
v 0.030000 0.857141 0.159426
v -0.030000 -0.189490 -0.189423
v -0.030000 0.159359 0.159426
v 0.030000 -0.189490 -0.189423
v 0.030000 0.857141 -0.189423
v -0.030000 0.857141 0.159426
v 0.020000 0.069359 0.069426
v -0.020000 0.069359 0.069426
v -0.020000 -0.099490 0.767124
v 0.020000 -0.099490 0.767124
v 0.020000 0.069359 0.767124
v -0.020000 0.069359 0.767124
v -0.020000 0.767141 -0.099423
v 0.020000 0.767141 0.069426
v -0.020000 -0.099490 -0.099423
v 0.020000 -0.099490 -0.099423
v 0.020000 0.767141 -0.099423
v -0.020000 0.767141 0.069426
vn -1.0000 -0.0000 -0.0000
vn 1.0000 -0.0000 -0.0000
vn -0.0000 -0.0000 -1.0000
vn -0.0000 0.8133 0.5818
vn -0.0000 -0.8133 0.5818
vn -0.0000 -0.8133 -0.5818
vn -0.0000 -1.0000 -0.0000
vn -0.0000 0.8133 -0.5818
vn -0.0000 1.0000 -0.0000
vn -0.0000 -0.0000 1.0000
vn -0.0000 0.5818 0.8133
vn -0.0000 0.5818 -0.8133
vn -0.0000 -0.5818 -0.8133
vn -0.0000 -0.5818 0.8133
vt 0.541667 0.166667
vt 0.625000 0.166667
vt 0.625000 0.250000
vt 0.504628 0.083333
vt 0.541667 0.083333
vt 0.541667 0.120370
vt 0.513889 0.120370
vt 0.504628 0.120370
vt 0.504628 0.111111
vt 0.541667 0.666667
vt 0.625000 0.666667
vt 0.625000 0.750000
vt 0.375000 0.666667
vt 0.458333 0.666667
vt 0.375000 0.750000
vt 0.375000 0.166667
vt 0.458333 0.166667
vt 0.375000 0.250000
vt 0.458333 0.500000
vt 0.486111 0.500000
vt 0.458333 0.583333
vt 0.458333 0.000000
vt 0.486111 0.000000
vt 0.458333 0.083333
vt 0.375000 0.000000
vt 0.375000 0.500000
vt 0.375000 0.583333
vt 0.541667 0.500000
vt 0.625000 0.500000
vt 0.541667 0.583333
vt 0.541667 0.000000
vt 0.625000 0.000000
vt 0.375000 0.611111
vt 0.375000 0.083333
vt 0.375000 0.111111
vt 0.495369 0.583333
vt 0.495369 0.620370
vt 0.458333 0.620370
vt 0.495369 0.111111
vt 0.495369 0.129630
vt 0.458333 0.129630
vt 0.495369 0.083333
vt 0.779908 0.638548
vt 0.720092 0.638548
vt 0.625000 0.583333
vt 0.875000 0.583333
vt 0.875000 0.611111
vt 0.625000 0.611111
vt 0.125000 0.583333
vt 0.125000 0.611111
vt 0.125000 0.638889
vt 0.375000 0.638889
vt 0.125000 0.666667
vt 0.125000 0.500000
vt 0.625000 0.638889
vt 0.875000 0.638889
vt 0.875000 0.666667
vt 0.875000 0.500000
vt 0.720092 0.611452
vt 0.779908 0.611452
vt 0.486111 0.750000
vt 0.486111 1.000000
vt 0.458333 1.000000
vt 0.458333 0.750000
vt 0.486111 0.250000
vt 0.458333 0.250000
vt 0.541667 0.250000
vt 0.513889 0.500000
vt 0.513889 0.250000
vt 0.541667 0.750000
vt 0.541667 1.000000
vt 0.513889 1.000000
vt 0.513889 0.750000
vt 0.375000 1.000000
vt 0.875000 0.750000
vt 0.125000 0.750000
vt 0.625000 1.000000
vt 0.486452 0.904908
vt 0.513548 0.904908
vt 0.513548 0.845092
vt 0.486452 0.845092
vt 0.625000 0.083333
vt 0.279908 0.638548
vt 0.279908 0.611452
vt 0.220092 0.611452
vt 0.739493 0.612013
vt 0.760507 0.612014
vt 0.260507 0.637987
vt 0.239493 0.637987
vt 0.486452 0.404908
vt 0.486452 0.345092
vt 0.513548 0.345092
vt 0.513548 0.404908
vt 0.220092 0.638548
vt 0.487013 0.364493
vt 0.487013 0.385507
vt 0.512987 0.385507
vt 0.512987 0.364493
vt 0.487013 0.864493
vt 0.487013 0.885507
vt 0.512986 0.885507
vt 0.512986 0.864493
vt 0.260507 0.612014
vt 0.239493 0.612013
vt 0.739493 0.637987
vt 0.760507 0.637987
vt 0.513889 0.629630
vt 0.504628 0.629630
vt 0.495369 0.166667
vt 0.513889 0.000000
vt 0.495369 0.666667
vt 0.504628 0.666667
vt 0.495369 0.638889
vt 0.504628 0.638889
vt 0.513889 0.620370
vt 0.513889 0.129630
vt 0.541667 0.620370
vt 0.541667 0.129630
vt 0.541667 0.629630
vt 0.625000 0.111111
vt 0.625000 0.138889
vt 0.375000 0.138889
vt 0.512694 0.123356
vt 0.512694 0.126644
vt 0.501642 0.112306
vt 0.498355 0.112306
vt 0.503434 0.123356
vt 0.512694 0.626643
vt 0.503434 0.626644
vt 0.498355 0.126644
vt 0.501642 0.637694
vt 0.498355 0.637694
vt 0.498355 0.623356
vt 0.512694 0.623356
s 0
usemtl Noir_Light
f 40/1/1 28/2/1 4/3/1
f 124/4/1 55/5/1 135/6/1 137/7/1 144/8/1 127/9/1
f 36/10/2 32/11/2 6/12/2
f 29/13/2 34/14/2 5/15/2
f 25/16/1 38/17/1 3/18/1
f 14/19/2 22/20/2 33/21/2
f 9/22/1 17/23/1 37/24/1
f 1/25/1 9/22/1 37/24/1
f 7/26/2 33/21/2 30/27/2
f 13/28/2 8/29/2 35/30/2
f 10/31/1 2/32/1 39/5/1
f 30/27/2 33/21/2 46/33/2
f 26/34/1 37/24/1 42/35/1
f 121/36/2 141/37/2 131/38/2 49/21/2
f 128/39/1 143/40/1 134/41/1 53/24/1 125/42/1
f 71/43/3 72/44/3 104/44/3 103/43/3
f 31/45/4 28/46/4 44/47/4 47/48/4
f 25/49/5 30/27/5 46/33/5 41/50/5
f 42/51/6 45/52/6 29/13/6 26/53/6
f 3/54/7 7/26/7 30/27/7 25/49/7
f 48/55/8 43/56/8 27/57/8 32/11/8
f 8/29/9 4/58/9 28/46/9 31/45/9
f 70/59/10 69/60/10 101/60/10 102/59/10
f 24/61/11 17/62/11 9/63/11 16/64/11
f 20/65/12 22/20/12 14/19/12 12/66/12
f 11/67/13 13/28/13 21/68/13 19/69/13
f 12/66/3 14/19/3 7/26/3 3/18/3
f 15/70/14 10/71/14 18/72/14 23/73/14
f 16/64/10 9/63/10 1/74/10 5/15/10
f 32/11/9 27/57/9 2/75/9 6/12/9
f 26/53/7 29/13/7 5/15/7 1/76/7
f 6/12/10 2/77/10 10/71/10 15/70/10
f 4/3/3 8/29/3 13/28/3 11/67/3
f 17/62/10 62/78/10 64/79/10 18/72/10
f 24/61/10 23/73/10 63/80/10 61/81/10
f 39/5/1 2/32/1 27/82/1
f 46/33/7 45/52/7 67/83/7 65/84/7
f 5/15/2 34/14/2 16/64/2
f 35/30/2 8/29/2 31/45/2
f 46/33/7 65/84/7 66/85/7 41/50/7
f 58/90/9 57/91/9 89/91/9 90/90/9
f 59/92/7 60/93/7 92/93/7 91/92/7
f 62/78/9 61/81/9 93/81/9 94/78/9
f 63/80/7 64/79/7 96/79/7 95/80/7
f 66/85/10 65/84/10 97/84/10 98/85/10
f 67/83/3 68/94/3 100/94/3 99/83/3
f 140/107/3 142/108/3 159/108/3 163/107/3
f 40/1/1 19/69/1 20/65/1 38/17/1
f 36/10/2 23/73/2 24/61/2 34/14/2
f 4/3/1 11/67/1 40/1/1
f 33/21/2 22/20/2 21/68/2 35/30/2
f 40/1/10 38/17/10 54/17/10 126/109/10 56/1/10
f 37/24/1 17/23/1 18/110/1 39/5/1
f 39/5/3 55/5/3 124/4/3 125/42/3 53/24/3 37/24/3
f 36/10/3 34/14/3 50/14/3 123/111/3 122/112/3 52/10/3
f 35/30/10 51/30/10 121/36/10 49/21/10 33/21/10
f 130/113/2 129/114/2 122/112/2 123/111/2
f 125/42/1 124/4/1 127/9/1 128/39/1
f 143/40/9 128/39/9 157/39/9 164/40/9
f 57/91/2 59/92/2 91/92/2 89/91/2
f 60/93/3 59/92/3 19/69/3 21/68/3
f 64/79/2 62/78/2 94/78/2 96/79/2
f 41/50/7 66/85/7 68/94/7 42/51/7
f 18/72/10 64/79/10 63/80/10 23/73/10
f 24/61/10 61/81/10 62/78/10 17/62/10
f 70/59/9 72/44/9 48/55/9 47/48/9
f 60/93/1 58/90/1 90/90/1 92/93/1
f 61/81/1 63/80/1 95/80/1 93/81/1
f 128/39/3 127/9/3 161/9/3 157/39/3
f 139/115/10 167/115/10 166/37/10 141/37/10
f 141/37/9 166/37/9 158/113/9 130/113/9
f 137/7/7 138/116/7 162/116/7 168/7/7
f 139/115/2 141/37/2 121/36/2 51/30/2 132/117/2
f 138/116/1 136/118/1 56/1/1 126/109/1 143/40/1
f 139/115/7 140/107/7 163/107/7 167/115/7
f 143/40/1 126/109/1 54/17/1 134/41/1
f 142/108/2 140/107/2 133/119/2 52/10/2 122/112/2 129/114/2
f 35/30/7 36/10/7 52/10/7 133/119/7 132/117/7 51/30/7
f 43/120/1 44/121/1 40/1/1 39/5/1
f 47/48/2 48/55/2 36/10/2 35/30/2
f 37/24/1 26/34/1 1/25/1
f 42/51/7 68/94/7 67/83/7 45/52/7
f 46/33/2 33/21/2 34/14/2 45/52/2
f 34/14/9 33/21/9 49/21/9 131/38/9 50/14/9
f 42/35/1 37/24/1 38/17/1 41/122/1
f 39/5/7 40/1/7 56/1/7 136/118/7 135/6/7 55/5/7
f 38/17/9 37/24/9 53/24/9 134/41/9 54/17/9
f 132/117/2 133/119/2 140/107/2 139/115/2
f 135/6/1 136/118/1 138/116/1 137/7/1
f 141/37/2 130/113/2 123/111/2 50/14/2 131/38/2
f 130/113/3 158/113/3 160/114/3 129/114/3
f 69/60/9 70/59/9 47/48/9 44/47/9
f 6/12/2 15/70/2 36/10/2
f 72/44/1 70/59/1 102/59/1 104/44/1
f 69/60/2 71/43/2 103/43/2 101/60/2
f 68/94/2 66/85/2 98/85/2 100/94/2
f 65/84/1 67/83/1 99/83/1 97/84/1
f 144/8/3 137/7/3 168/7/3 165/8/3
f 142/108/7 129/114/7 160/114/7 159/108/7
f 138/116/10 143/40/10 164/40/10 162/116/10
f 127/9/7 144/8/7 165/8/7 161/9/7
f 71/43/9 69/60/9 44/47/9 43/56/9
f 57/91/3 58/90/3 22/20/3 20/65/3
f 59/92/3 57/91/3 20/65/3 19/69/3
f 33/21/2 7/26/2 14/19/2
f 3/18/1 38/17/1 12/66/1
f 48/55/9 72/44/9 71/43/9 43/56/9
f 58/90/3 60/93/3 21/68/3 22/20/3
f 35/30/2 21/68/2 13/28/2
f 47/48/2 35/30/2 31/45/2
f 24/61/2 16/64/2 34/14/2
f 34/14/2 29/13/2 45/52/2
f 36/10/2 48/55/2 32/11/2
f 23/73/2 36/10/2 15/70/2
f 38/17/1 25/16/1 41/122/1
f 20/65/1 12/66/1 38/17/1
f 19/69/1 40/1/1 11/67/1
f 40/1/1 44/121/1 28/2/1
f 43/120/1 39/5/1 27/82/1
f 39/5/1 18/110/1 10/31/1
usemtl Noir_Profond
f 86/86/10 85/87/10 117/87/10 118/86/10
f 83/88/3 84/89/3 116/89/3 115/88/3
f 73/95/3 74/96/3 90/90/3 89/91/3
f 76/97/3 75/98/3 91/92/3 92/93/3
f 77/99/10 78/100/10 94/78/10 93/81/10
f 80/101/10 79/102/10 95/80/10 96/79/10
f 81/103/7 82/104/7 98/85/7 97/84/7
f 84/89/7 83/88/7 99/83/7 100/94/7
f 85/87/9 86/86/9 102/59/9 101/60/9
f 88/105/9 87/106/9 103/43/9 104/44/9
f 87/106/3 88/105/3 120/105/3 119/106/3
f 74/96/9 73/95/9 105/95/9 106/96/9
f 75/98/7 76/97/7 108/97/7 107/98/7
f 78/100/9 77/99/9 109/99/9 110/100/9
f 79/102/7 80/101/7 112/101/7 111/102/7
f 82/104/10 81/103/10 113/103/10 114/104/10
f 73/95/2 75/98/2 107/98/2 105/95/2
f 80/101/2 78/100/2 110/100/2 112/101/2
f 79/102/10 77/99/10 93/81/10 95/80/10
f 78/100/10 80/101/10 96/79/10 94/78/10
f 75/98/3 73/95/3 89/91/3 91/92/3
f 74/96/3 76/97/3 92/93/3 90/90/3
f 76/97/1 74/96/1 106/96/1 108/97/1
f 77/99/1 79/102/1 111/102/1 109/99/1
f 86/86/9 88/105/9 104/44/9 102/59/9
f 87/106/9 85/87/9 101/60/9 103/43/9
f 82/104/7 84/89/7 100/94/7 98/85/7
f 83/88/7 81/103/7 97/84/7 99/83/7
f 88/105/1 86/86/1 118/86/1 120/105/1
f 85/87/2 87/106/2 119/106/2 117/87/2
f 84/89/2 82/104/2 114/104/2 116/89/2
f 81/103/1 83/88/1 115/88/1 113/103/1
f 156/123/7 150/124/7 175/124/7 180/123/7
f 149/125/3 174/125/3 171/126/3 145/126/3
f 153/127/3 156/123/3 180/123/3 170/127/3
f 151/128/3 147/129/3 169/129/3 176/128/3
f 152/130/9 145/126/9 171/126/9 177/130/9
f 147/129/7 148/131/7 173/131/7 169/129/7
f 150/124/10 152/130/10 177/130/10 175/124/10
f 146/132/9 154/133/9 178/133/9 172/132/9
f 154/133/10 155/134/10 179/134/10 178/133/10
f 148/131/3 146/132/3 172/132/3 173/131/3
f 155/134/7 151/128/7 176/128/7 179/134/7
f 149/125/7 153/127/7 170/127/7 174/125/7
f 149/125/1 145/126/1 157/39/1 161/9/1
f 148/131/2 147/129/2 159/108/2 160/114/2
f 146/132/2 148/131/2 160/114/2 158/113/2
f 153/127/1 149/125/1 161/9/1 165/8/1
f 152/130/1 150/124/1 162/116/1 164/40/1
f 150/124/1 156/123/1 168/7/1 162/116/1
f 147/129/2 151/128/2 163/107/2 159/108/2
f 156/123/1 153/127/1 165/8/1 168/7/1
f 154/133/2 166/37/2 167/115/2 155/134/2
f 151/128/2 155/134/2 167/115/2 163/107/2
f 146/132/2 158/113/2 166/37/2 154/133/2
f 145/126/1 152/130/1 164/40/1 157/39/1
usemtl Bleu_Neon
f 109/99/10 111/102/10 112/101/10 110/100/10
f 105/95/3 107/98/3 108/97/3 106/96/3
f 117/87/9 119/106/9 120/105/9 118/86/9
f 113/103/7 115/88/7 116/89/7 114/104/7
f 170/127/1 180/123/1 175/124/1 177/130/1 171/126/1 174/125/1
f 179/134/2 176/128/2 169/129/2 173/131/2 172/132/2 178/133/2
