# Blender 4.2.3 LTS
# www.blender.org
mtllib SM_Wall_2x2.mtl
o SM_Wall_2x2
v -0.050000 -0.999987 1.000000
v -0.050000 1.000013 1.000000
v -0.050000 -0.999987 -1.000000
v -0.050000 1.000013 -1.000000
v 0.050000 -0.999987 1.000000
v 0.050000 1.000013 1.000000
v 0.050000 -0.999987 -1.000000
v 0.050000 1.000013 -1.000000
v -0.050000 -0.599987 1.000000
v -0.050000 0.600012 1.000000
v -0.050000 0.600012 -1.000000
v -0.050000 -0.599987 -1.000000
v 0.050000 0.600012 -1.000000
v 0.050000 -0.599987 -1.000000
v 0.050000 0.600012 1.000000
v 0.050000 -0.599987 1.000000
v -0.049999 -0.565804 0.975545
v -0.049999 0.565829 0.975545
v -0.049999 0.565829 -0.975545
v -0.049999 -0.565804 -0.975545
v 0.049999 0.565829 -0.975545
v 0.049999 -0.565804 -0.975545
v 0.049999 0.565829 0.975545
v 0.049999 -0.565804 0.975545
v -0.050000 -0.999987 -0.600000
v -0.050000 -0.999987 0.600000
v -0.050000 1.000013 0.600000
v -0.050000 1.000013 -0.600000
v 0.050000 -0.999987 0.600000
v 0.050000 -0.999987 -0.600000
v 0.050000 1.000013 -0.600000
v 0.050000 1.000013 0.600000
v 0.050000 -0.902183 -0.902196
v 0.050000 -0.902183 0.902196
v 0.050000 0.902208 -0.902196
v 0.050000 0.902208 0.902196
v -0.050000 -0.902183 0.902196
v -0.050000 -0.902183 -0.902196
v -0.050000 0.902208 0.902196
v -0.050000 0.902208 -0.902196
v -0.049999 -0.975533 -0.565816
v -0.049999 -0.975533 0.565816
v -0.049999 0.975558 0.565816
v -0.049999 0.975558 -0.565816
v 0.049999 -0.975533 0.565816
v 0.049999 -0.975533 -0.565816
v 0.049999 0.975558 -0.565816
v 0.049999 0.975558 0.565816
v 0.040000 -0.902183 -0.902196
v 0.040000 -0.902183 0.902196
v 0.040000 0.902208 -0.902196
v 0.040000 0.902208 0.902196
v -0.040000 -0.902183 0.902196
v -0.040000 -0.902183 -0.902196
v -0.040000 0.902208 0.902196
v -0.040000 0.902208 -0.902196
v -0.017643 -0.551932 -0.975545
v 0.017643 -0.551932 -0.975545
v -0.017643 0.551956 -0.975545
v 0.017643 0.551956 -0.975545
v 0.017643 -0.551931 0.975545
v -0.017643 -0.551931 0.975545
v 0.017643 0.551957 0.975545
v -0.017643 0.551957 0.975545
v 0.017643 -0.975533 -0.551944
v -0.017643 -0.975533 -0.551944
v 0.017643 -0.975533 0.551944
v -0.017643 -0.975533 0.551944
v -0.017643 0.975558 -0.551944
v 0.017643 0.975558 -0.551944
v -0.017643 0.975558 0.551944
v 0.017643 0.975558 0.551944
v -0.006198 -0.529042 -0.955545
v 0.006198 -0.529042 -0.955545
v -0.006198 0.529067 -0.955545
v 0.006198 0.529067 -0.955545
v 0.006198 -0.529042 0.955545
v -0.006198 -0.529042 0.955545
v 0.006198 0.529067 0.955545
v -0.006198 0.529067 0.955545
v 0.006198 -0.955533 -0.529055
v -0.006198 -0.955533 -0.529055
v 0.006198 -0.955533 0.529055
v -0.006198 -0.955533 0.529055
v -0.006198 0.955558 -0.529055
v 0.006198 0.955558 -0.529055
v -0.006198 0.955558 0.529055
v 0.006198 0.955558 0.529055
v -0.017643 -0.551932 -0.955545
v 0.017643 -0.551932 -0.955545
v -0.017643 0.551956 -0.955545
v 0.017643 0.551956 -0.955545
v 0.017643 -0.551931 0.955545
v -0.017643 -0.551931 0.955545
v 0.017643 0.551957 0.955545
v -0.017643 0.551957 0.955545
v 0.017643 -0.955533 -0.551944
v -0.017643 -0.955533 -0.551944
v 0.017643 -0.955533 0.551944
v -0.017643 -0.955533 0.551944
v -0.017643 0.955558 -0.551944
v 0.017643 0.955558 -0.551944
v -0.017643 0.955558 0.551944
v 0.017643 0.955558 0.551944
v -0.006198 -0.529042 -0.945545
v 0.006198 -0.529042 -0.945545
v -0.006198 0.529067 -0.945545
v 0.006198 0.529067 -0.945545
v 0.006198 -0.529042 0.945545
v -0.006198 -0.529042 0.945545
v 0.006198 0.529067 0.945545
v -0.006198 0.529067 0.945545
v 0.006198 -0.945533 -0.529055
v -0.006198 -0.945533 -0.529055
v 0.006198 -0.945533 0.529055
v -0.006198 -0.945533 0.529055
v -0.006198 0.945558 -0.529055
v 0.006198 0.945558 -0.529055
v -0.006198 0.945558 0.529055
v 0.006198 0.945558 0.529055
vn -1.0000 -0.0000 -0.0000
vn 1.0000 -0.0000 -0.0000
vn -0.0000 -1.0000 -0.0000
vn -0.0000 -0.0000 -1.0000
vn -0.0000 0.8133 0.5818
vn -0.0000 1.0000 -0.0000
vn -0.0000 -0.8133 0.5818
vn -0.0000 -0.8133 -0.5818
vn -0.0000 0.8133 -0.5818
vn -0.0000 -0.0000 1.0000
vn -0.0000 0.5818 0.8133
vn -0.0000 0.5818 -0.8133
vn -0.0000 -0.5818 -0.8133
vn -0.0000 -0.5818 0.8133
vt 0.541667 0.166667
vt 0.625000 0.166667
vt 0.625000 0.250000
vt 0.541667 0.666667
vt 0.625000 0.666667
vt 0.625000 0.750000
vt 0.375000 0.666667
vt 0.458333 0.666667
vt 0.375000 0.750000
vt 0.375000 0.166667
vt 0.458333 0.166667
vt 0.375000 0.250000
vt 0.458333 0.500000
vt 0.486111 0.500000
vt 0.458333 0.583333
vt 0.458333 0.000000
vt 0.486111 0.000000
vt 0.458333 0.083333
vt 0.375000 0.000000
vt 0.375000 0.500000
vt 0.375000 0.583333
vt 0.541667 0.500000
vt 0.625000 0.500000
vt 0.541667 0.583333
vt 0.541667 0.000000
vt 0.625000 0.000000
vt 0.541667 0.083333
vt 0.279908 0.638548
vt 0.279908 0.611452
vt 0.375000 0.611111
vt 0.375000 0.638889
vt 0.375000 0.083333
vt 0.375000 0.111111
vt 0.779908 0.638548
vt 0.720092 0.638548
vt 0.625000 0.583333
vt 0.875000 0.583333
vt 0.875000 0.611111
vt 0.625000 0.611111
vt 0.625000 0.638889
vt 0.720092 0.611452
vt 0.125000 0.583333
vt 0.125000 0.611111
vt 0.125000 0.638889
vt 0.125000 0.666667
vt 0.125000 0.500000
vt 0.875000 0.638889
vt 0.875000 0.666667
vt 0.875000 0.500000
vt 0.779908 0.611452
vt 0.486111 0.750000
vt 0.486111 1.000000
vt 0.458333 1.000000
vt 0.458333 0.750000
vt 0.486452 0.345092
vt 0.486111 0.250000
vt 0.513889 0.250000
vt 0.513548 0.345092
vt 0.458333 0.250000
vt 0.541667 0.250000
vt 0.513889 0.500000
vt 0.541667 0.750000
vt 0.541667 1.000000
vt 0.513889 1.000000
vt 0.513889 0.750000
vt 0.375000 1.000000
vt 0.875000 0.750000
vt 0.125000 0.750000
vt 0.625000 1.000000
vt 0.486452 0.404908
vt 0.625000 0.083333
vt 0.486452 0.845092
vt 0.486452 0.904908
vt 0.220092 0.638548
vt 0.220092 0.611452
vt 0.739493 0.612013
vt 0.760507 0.612014
vt 0.260507 0.637987
vt 0.239493 0.637987
vt 0.513548 0.404908
vt 0.513548 0.845092
vt 0.513548 0.904908
vt 0.487013 0.364493
vt 0.487013 0.385507
vt 0.512987 0.385507
vt 0.512987 0.364493
vt 0.487013 0.864493
vt 0.487013 0.885507
vt 0.512986 0.885507
vt 0.512986 0.864493
vt 0.260507 0.612014
vt 0.239493 0.612013
vt 0.739493 0.637987
vt 0.760507 0.637987
vt 0.513889 0.000000
vt 0.625000 0.111111
vt 0.625000 0.138889
vt 0.375000 0.138889
s 0
usemtl Noir_Light
f 40/1/1 28/2/1 4/3/1
f 36/4/2 32/5/2 6/6/2
f 29/7/2 34/8/2 5/9/2
f 25/10/1 38/11/1 3/12/1
f 14/13/2 22/14/2 33/15/2
f 9/16/1 17/17/1 37/18/1
f 1/19/1 9/16/1 37/18/1
f 7/20/2 33/15/2 30/21/2
f 13/22/2 8/23/2 35/24/2
f 10/25/1 2/26/1 39/27/1
f 67/28/3 65/29/3 46/30/3 45/31/3
f 30/21/2 33/15/2 46/30/2
f 26/32/1 37/18/1 42/33/1
f 71/34/4 72/35/4 104/35/4 103/34/4
f 31/36/5 28/37/5 44/38/5 47/39/5
f 72/35/6 48/40/6 47/39/6 70/41/6
f 25/42/7 30/21/7 46/30/7 41/43/7
f 42/44/8 45/31/8 29/7/8 26/45/8
f 3/46/3 7/20/3 30/21/3 25/42/3
f 48/40/9 43/47/9 27/48/9 32/5/9
f 8/23/6 4/49/6 28/37/6 31/36/6
f 70/41/10 69/50/10 101/50/10 102/41/10
f 24/51/11 17/52/11 9/53/11 16/54/11
f 57/55/4 20/56/4 19/57/4 59/58/4
f 20/56/12 22/14/12 14/13/12 12/59/12
f 11/60/13 13/22/13 21/61/13 19/57/13
f 12/59/4 14/13/4 7/20/4 3/12/4
f 15/62/14 10/63/14 18/64/14 23/65/14
f 16/54/10 9/53/10 1/66/10 5/9/10
f 32/5/6 27/48/6 2/67/6 6/6/6
f 26/45/3 29/7/3 5/9/3 1/68/3
f 6/6/10 2/69/10 10/63/10 15/62/10
f 4/3/4 8/23/4 13/22/4 11/60/4
f 20/56/4 57/55/4 58/70/4 22/14/4
f 39/27/1 2/26/1 27/71/1
f 24/51/10 61/72/10 62/73/10 17/52/10
f 33/15/2 7/20/2 14/13/2
f 3/12/1 38/11/1 12/59/1
f 42/44/3 68/74/3 67/28/3 45/31/3
f 35/24/2 8/23/2 31/36/2
f 48/40/6 72/35/6 71/34/6 43/47/6
f 68/74/3 42/44/3 41/43/3 66/75/3
f 58/70/6 57/55/6 89/55/6 90/70/6
f 59/58/3 60/80/3 92/80/3 91/58/3
f 62/73/6 61/72/6 93/72/6 94/73/6
f 63/81/3 64/82/3 96/82/3 95/81/3
f 66/75/10 65/29/10 97/29/10 98/75/10
f 67/28/4 68/74/4 100/74/4 99/28/4
f 61/72/10 24/51/10 23/65/10 63/81/10
f 62/73/10 64/82/10 18/64/10 17/52/10
f 58/70/4 60/80/4 21/61/4 22/14/4
f 40/1/1 19/57/1 20/56/1 38/11/1
f 36/4/2 23/65/2 24/51/2 34/8/2
f 33/15/2 22/14/2 21/61/2 35/24/2
f 40/1/10 38/11/10 54/11/10 56/1/10
f 37/18/1 17/17/1 18/95/1 39/27/1
f 39/27/4 55/27/4 53/18/4 37/18/4
f 36/4/4 34/8/4 50/8/4 52/4/4
f 35/24/10 51/24/10 49/15/10 33/15/10
f 57/55/2 59/58/2 91/58/2 89/55/2
f 64/82/2 62/73/2 94/73/2 96/82/2
f 60/80/1 58/70/1 90/70/1 92/80/1
f 61/72/1 63/81/1 95/81/1 93/72/1
f 5/9/2 34/8/2 16/54/2
f 71/34/6 69/50/6 44/38/6 43/47/6
f 4/3/1 11/60/1 40/1/1
f 65/29/3 66/75/3 41/43/3 46/30/3
f 35/24/3 36/4/3 52/4/3 51/24/3
f 43/96/1 44/97/1 40/1/1 39/27/1
f 47/39/2 48/40/2 36/4/2 35/24/2
f 46/30/2 33/15/2 34/8/2 45/31/2
f 34/8/6 33/15/6 49/15/6 50/8/6
f 42/33/1 37/18/1 38/11/1 41/98/1
f 39/27/3 40/1/3 56/1/3 55/27/3
f 38/11/6 37/18/6 53/18/6 54/11/6
f 51/24/2 52/4/2 50/8/2 49/15/2
f 55/27/1 56/1/1 54/11/1 53/18/1
f 72/35/1 70/41/1 102/41/1 104/35/1
f 69/50/2 71/34/2 103/34/2 101/50/2
f 68/74/2 66/75/2 98/75/2 100/74/2
f 65/29/1 67/28/1 99/28/1 97/29/1
f 24/51/2 16/54/2 34/8/2
f 34/8/2 29/7/2 45/31/2
f 36/4/2 48/40/2 32/5/2
f 23/65/2 36/4/2 15/62/2
f 35/24/2 21/61/2 13/22/2
f 47/39/2 35/24/2 31/36/2
f 19/57/1 40/1/1 11/60/1
f 40/1/1 44/97/1 28/2/1
f 43/96/1 39/27/1 27/71/1
f 39/27/1 18/95/1 10/25/1
f 38/11/1 25/10/1 41/98/1
f 20/56/1 12/59/1 38/11/1
f 64/82/10 63/81/10 23/65/10 18/64/10
f 6/6/2 15/62/2 36/4/2
f 69/50/6 70/41/6 47/39/6 44/38/6
f 60/80/4 59/58/4 19/57/4 21/61/4
f 37/18/1 26/32/1 1/19/1
usemtl Noir_Profond
f 86/76/10 85/77/10 117/77/10 118/76/10
f 83/78/4 84/79/4 116/79/4 115/78/4
f 73/83/4 74/84/4 90/70/4 89/55/4
f 76/85/4 75/86/4 91/58/4 92/80/4
f 77/87/10 78/88/10 94/73/10 93/72/10
f 80/89/10 79/90/10 95/81/10 96/82/10
f 81/91/3 82/92/3 98/75/3 97/29/3
f 84/79/3 83/78/3 99/28/3 100/74/3
f 85/77/6 86/76/6 102/41/6 101/50/6
f 88/93/6 87/94/6 103/34/6 104/35/6
f 87/94/4 88/93/4 120/93/4 119/94/4
f 74/84/6 73/83/6 105/83/6 106/84/6
f 75/86/3 76/85/3 108/85/3 107/86/3
f 78/88/6 77/87/6 109/87/6 110/88/6
f 79/90/3 80/89/3 112/89/3 111/90/3
f 82/92/10 81/91/10 113/91/10 114/92/10
f 73/83/2 75/86/2 107/86/2 105/83/2
f 80/89/2 78/88/2 110/88/2 112/89/2
f 79/90/10 77/87/10 93/72/10 95/81/10
f 78/88/10 80/89/10 96/82/10 94/73/10
f 75/86/4 73/83/4 89/55/4 91/58/4
f 74/84/4 76/85/4 92/80/4 90/70/4
f 76/85/1 74/84/1 106/84/1 108/85/1
f 77/87/1 79/90/1 111/90/1 109/87/1
f 86/76/6 88/93/6 104/35/6 102/41/6
f 87/94/6 85/77/6 101/50/6 103/34/6
f 82/92/3 84/79/3 100/74/3 98/75/3
f 83/78/3 81/91/3 97/29/3 99/28/3
f 88/93/1 86/76/1 118/76/1 120/93/1
f 85/77/2 87/94/2 119/94/2 117/77/2
f 84/79/2 82/92/2 114/92/2 116/79/2
f 81/91/1 83/78/1 115/78/1 113/91/1
usemtl Bleu_Neon
f 109/87/10 111/90/10 112/89/10 110/88/10
f 105/83/4 107/86/4 108/85/4 106/84/4
f 117/77/6 119/94/6 120/93/6 118/76/6
f 113/91/3 115/78/3 116/79/3 114/92/3
