# Blender 4.2.3 LTS
# www.blender.org
mtllib SM_Wall_T_Junction.mtl
o SM_Wall_T_Junction
v -0.050000 -1.014408 1.000000
v -0.050000 0.985592 1.000000
v -0.050000 -1.014408 -1.000000
v -0.050000 0.985592 -1.000000
v 0.050000 -1.014408 1.000000
v 0.050000 0.985592 1.000000
v 0.050000 -1.014408 -1.000000
v 0.050000 0.985592 -1.000000
v -0.050000 -0.614408 1.000000
v -0.050000 0.585592 1.000000
v -0.050000 0.585592 -1.000000
v -0.050000 -0.614408 -1.000000
v 0.050000 0.585592 -1.000000
v 0.050000 -0.614408 -1.000000
v 0.050000 0.585592 1.000000
v 0.050000 -0.614408 1.000000
v -0.049999 -0.580224 0.975545
v -0.049999 0.551409 0.975545
v -0.049999 0.551409 -0.975545
v -0.049999 -0.580224 -0.975545
v 0.049999 0.551409 -0.975545
v 0.049999 -0.580224 -0.975545
v 0.049999 0.551409 0.975545
v 0.049999 -0.580224 0.975545
v -0.050000 -1.014408 -0.600000
v -0.050000 -1.014408 0.600000
v -0.050000 0.985592 0.600000
v -0.050000 0.985592 -0.600000
v 0.050000 -1.014408 0.600000
v 0.050000 -1.014408 -0.600000
v 0.050000 0.985592 -0.600000
v 0.050000 0.985592 0.600000
v 0.050000 -0.916603 -0.902196
v 0.050000 -0.916603 0.902196
v 0.050000 0.887788 -0.902196
v 0.050000 0.887788 0.902196
v -0.050000 -0.916603 0.902196
v -0.050000 -0.916603 -0.902196
v -0.050000 0.887788 0.902196
v -0.050000 0.887788 -0.902196
v -0.049999 -0.989953 -0.565816
v -0.049999 -0.989953 0.565816
v -0.049999 0.961138 0.565816
v -0.049999 0.961138 -0.565816
v 0.049999 -0.989953 0.565816
v 0.049999 -0.989953 -0.565816
v 0.049999 0.961138 -0.565816
v 0.049999 0.961138 0.565816
v 0.040000 -0.916603 -0.902196
v 0.040000 -0.916603 0.902196
v 0.040000 0.887788 -0.902196
v 0.040000 0.887788 0.902196
v -0.040000 -0.916603 0.902196
v -0.040000 -0.916603 -0.902196
v -0.040000 0.887788 0.902196
v -0.040000 0.887788 -0.902196
v -0.017643 -0.566352 -0.975545
v 0.017643 -0.566352 -0.975545
v -0.017643 0.537536 -0.975545
v 0.017643 0.537536 -0.975545
v 0.017643 -0.566352 0.975545
v -0.017643 -0.566352 0.975545
v 0.017643 0.537536 0.975545
v -0.017643 0.537537 0.975545
v 0.017643 -0.989953 -0.551944
v -0.017643 -0.989953 -0.551944
v 0.017643 -0.989953 0.551944
v -0.017643 -0.989953 0.551944
v -0.017643 0.961138 -0.551944
v 0.017643 0.961138 -0.551944
v -0.017643 0.961138 0.551944
v 0.017643 0.961138 0.551944
v -0.006198 -0.543462 -0.955545
v 0.006198 -0.543462 -0.955545
v -0.006198 0.514647 -0.955545
v 0.006198 0.514647 -0.955545
v 0.006198 -0.543462 0.955545
v -0.006198 -0.543462 0.955545
v 0.006198 0.514647 0.955545
v -0.006198 0.514647 0.955545
v 0.006198 -0.969953 -0.529055
v -0.006198 -0.969953 -0.529055
v 0.006198 -0.969953 0.529055
v -0.006198 -0.969953 0.529055
v -0.006198 0.941138 -0.529055
v 0.006198 0.941138 -0.529055
v -0.006198 0.941138 0.529055
v 0.006198 0.941138 0.529055
v -0.017643 -0.566352 -0.955545
v 0.017643 -0.566352 -0.955545
v -0.017643 0.537536 -0.955545
v 0.017643 0.537536 -0.955545
v 0.017643 -0.566352 0.955545
v -0.017643 -0.566352 0.955545
v 0.017643 0.537536 0.955545
v -0.017643 0.537537 0.955545
v 0.017643 -0.969953 -0.551944
v -0.017643 -0.969953 -0.551944
v 0.017643 -0.969953 0.551944
v -0.017643 -0.969953 0.551944
v -0.017643 0.941138 -0.551944
v 0.017643 0.941138 -0.551944
v -0.017643 0.941138 0.551944
v 0.017643 0.941138 0.551944
v -0.006198 -0.543462 -0.945545
v 0.006198 -0.543462 -0.945545
v -0.006198 0.514647 -0.945545
v 0.006198 0.514647 -0.945545
v 0.006198 -0.543462 0.945545
v -0.006198 -0.543462 0.945545
v 0.006198 0.514647 0.945545
v -0.006198 0.514647 0.945545
v 0.006198 -0.959953 -0.529055
v -0.006198 -0.959953 -0.529055
v 0.006198 -0.959953 0.529055
v -0.006198 -0.959953 0.529055
v -0.006198 0.931138 -0.529055
v 0.006198 0.931138 -0.529055
v -0.006198 0.931138 0.529055
v 0.006198 0.931138 0.529055
v 0.040000 0.159932 -0.902196
v 0.040000 -0.188917 -0.902196
v 0.040000 0.159932 0.902196
v 0.040000 -0.188917 0.902196
v -0.040000 0.159933 0.902196
v -0.040000 -0.188916 0.902196
v -0.040000 0.159932 -0.902196
v -0.040000 -0.188916 -0.902196
v -0.040000 0.159933 0.872122
v -0.040000 -0.188916 0.872122
v -0.040000 0.159932 -0.872122
v -0.040000 -0.188916 -0.872122
v 0.040000 0.159932 -0.872122
v 0.040000 -0.188917 -0.872122
v 0.040000 0.159932 0.872122
v 0.040000 -0.188917 0.872122
v 0.040000 0.887788 -0.174424
v 0.040000 0.887788 0.174424
v -0.040000 0.887788 0.174424
v -0.040000 0.887788 -0.174424
v -0.040000 0.857715 0.174424
v -0.040000 0.857715 -0.174424
v 0.040000 0.857715 -0.174424
v 0.040000 0.857715 0.174424
v 0.040000 0.159932 -0.174424
v 0.040000 0.159932 0.174424
v -0.040000 0.159933 0.174424
v -0.040000 0.159933 -0.174424
v -0.030000 -0.098916 0.782122
v -0.030000 -0.098916 -0.782122
v 0.030000 -0.098917 -0.782122
v 0.030000 -0.098917 0.782122
v 0.030000 0.069932 0.084424
v 0.030000 0.069932 0.782122
v -0.030000 0.069933 -0.084424
v -0.030000 0.069933 -0.782122
v -0.030000 0.069933 0.782122
v 0.030000 0.069932 -0.782122
v -0.030000 0.767715 -0.084424
v 0.030000 0.767715 0.084424
v 0.030000 0.069932 -0.084424
v -0.030000 0.069933 0.084424
v 0.030000 0.767715 -0.084424
v -0.030000 0.767715 0.084424
v -0.030000 -0.188916 0.872122
v -0.030000 -0.188916 -0.872122
v 0.030000 -0.188917 -0.872122
v 0.030000 -0.188917 0.872122
v 0.030000 0.159932 0.174424
v 0.030000 0.159932 0.872122
v -0.030000 0.159933 -0.174424
v -0.030000 0.159932 -0.872122
v -0.030000 0.159933 0.872122
v 0.030000 0.159932 -0.872122
v -0.030000 0.857715 -0.174424
v 0.030000 0.857715 0.174424
v 0.030000 0.159932 -0.174424
v -0.030000 0.159933 0.174424
v 0.030000 0.857715 -0.174424
v -0.030000 0.857715 0.174424
v 0.020000 0.069932 0.084424
v -0.020000 0.069933 -0.084424
v -0.020000 0.069933 0.084424
v 0.020000 0.069932 -0.084424
v 0.050000 0.887788 0.898983
v -0.020000 -0.098916 0.782122
v -0.020000 -0.098916 -0.782122
v 0.020000 -0.098917 -0.782122
v 0.020000 -0.098917 0.782122
v 0.020000 0.069932 0.782122
v -0.020000 0.069933 -0.782122
v -0.020000 0.069933 0.782122
v 0.020000 0.069932 -0.782122
v -0.020000 0.767715 -0.084424
v 0.020000 0.767715 0.084424
v 0.020000 0.767715 -0.084424
v -0.020000 0.767715 0.084424
vn -1.0000 -0.0000 -0.0000
vn 1.0000 -0.0000 -0.0000
vn -0.0000 -0.0000 -1.0000
vn -0.0000 0.8133 0.5818
vn -0.0000 -0.8133 0.5818
vn -0.0000 -0.8133 -0.5818
vn -0.0000 -1.0000 -0.0000
vn -0.0000 0.8133 -0.5818
vn -0.0000 1.0000 -0.0000
vn -0.0000 -0.0000 1.0000
vn -0.0000 0.5818 0.8133
vn -0.0000 0.5818 -0.8133
vn -0.0000 -0.5818 -0.8133
vn -0.0000 -0.5818 0.8133
vt 0.541667 0.166667
vt 0.625000 0.166667
vt 0.625000 0.250000
vt 0.504628 0.083333
vt 0.541667 0.083333
vt 0.541667 0.120370
vt 0.513889 0.120370
vt 0.504628 0.120370
vt 0.504628 0.111111
vt 0.541667 0.666667
vt 0.625000 0.638889
vt 0.625000 0.666667
vt 0.375000 0.666667
vt 0.458333 0.666667
vt 0.375000 0.750000
vt 0.375000 0.166667
vt 0.458333 0.166667
vt 0.375000 0.250000
vt 0.458333 0.500000
vt 0.486111 0.500000
vt 0.458333 0.583333
vt 0.458333 0.000000
vt 0.486111 0.000000
vt 0.458333 0.083333
vt 0.375000 0.000000
vt 0.375000 0.500000
vt 0.375000 0.583333
vt 0.541667 0.500000
vt 0.625000 0.500000
vt 0.541667 0.583333
vt 0.541667 0.000000
vt 0.625000 0.000000
vt 0.375000 0.611111
vt 0.375000 0.083333
vt 0.375000 0.111111
vt 0.495369 0.611111
vt 0.495369 0.638889
vt 0.495369 0.666667
vt 0.495369 0.583333
vt 0.779908 0.638548
vt 0.720092 0.638548
vt 0.625000 0.583333
vt 0.875000 0.583333
vt 0.875000 0.611111
vt 0.625000 0.611111
vt 0.125000 0.583333
vt 0.125000 0.611111
vt 0.125000 0.638889
vt 0.375000 0.638889
vt 0.125000 0.666667
vt 0.125000 0.500000
vt 0.875000 0.638889
vt 0.875000 0.666667
vt 0.875000 0.500000
vt 0.720092 0.611452
vt 0.779908 0.611452
vt 0.486111 0.750000
vt 0.486111 1.000000
vt 0.458333 1.000000
vt 0.458333 0.750000
vt 0.486111 0.250000
vt 0.458333 0.250000
vt 0.541667 0.250000
vt 0.513889 0.500000
vt 0.513889 0.250000
vt 0.541667 0.750000
vt 0.541667 1.000000
vt 0.513889 1.000000
vt 0.513889 0.750000
vt 0.375000 1.000000
vt 0.875000 0.750000
vt 0.625000 0.750000
vt 0.125000 0.750000
vt 0.625000 1.000000
vt 0.541667 0.666518
vt 0.279908 0.611452
vt 0.220092 0.611452
vt 0.739493 0.612013
vt 0.760507 0.612014
vt 0.260507 0.637987
vt 0.239493 0.637987
vt 0.486452 0.404908
vt 0.486452 0.345092
vt 0.513548 0.345092
vt 0.513548 0.404908
vt 0.486452 0.904908
vt 0.486452 0.845092
vt 0.513548 0.845092
vt 0.513548 0.904908
vt 0.279908 0.638548
vt 0.220092 0.638548
vt 0.487013 0.364493
vt 0.487013 0.385507
vt 0.512987 0.385507
vt 0.512987 0.364493
vt 0.487013 0.864493
vt 0.487013 0.885507
vt 0.512986 0.885507
vt 0.512986 0.864493
vt 0.260507 0.612014
vt 0.239493 0.612013
vt 0.739493 0.637987
vt 0.760507 0.637987
vt 0.495369 0.166667
vt 0.504628 0.166667
vt 0.513889 0.000000
vt 0.495369 0.083333
vt 0.504628 0.666667
vt 0.504628 0.583333
vt 0.504628 0.638889
vt 0.495369 0.138889
vt 0.504628 0.138889
vt 0.495369 0.111111
vt 0.504628 0.611111
vt 0.513889 0.629630
vt 0.504628 0.629630
vt 0.504628 0.620370
vt 0.513889 0.620370
vt 0.541667 0.620370
vt 0.504628 0.129630
vt 0.513889 0.129630
vt 0.541667 0.129630
vt 0.541667 0.629630
vt 0.625000 0.111111
vt 0.625000 0.138889
vt 0.375000 0.138889
vt 0.498355 0.137694
vt 0.498355 0.112306
vt 0.503434 0.626644
vt 0.501642 0.637694
vt 0.512694 0.626643
vt 0.512694 0.623356
vt 0.512694 0.123356
vt 0.512694 0.126644
vt 0.498355 0.612305
vt 0.501642 0.612305
vt 0.498355 0.637694
vt 0.501642 0.137694
vt 0.503434 0.126644
vt 0.503434 0.123356
vt 0.503434 0.623356
vt 0.501642 0.112306
vt 0.625000 0.083333
s 0
usemtl Noir_Light
f 40/1/1 28/2/1 4/3/1
f 125/4/1 55/5/1 139/6/1 141/7/1 147/8/1 129/9/1
f 36/10/2 48/11/2 32/12/2
f 29/13/2 34/14/2 5/15/2
f 25/16/1 38/17/1 3/18/1
f 14/19/2 22/20/2 33/21/2
f 9/22/1 17/23/1 37/24/1
f 1/25/1 9/22/1 37/24/1
f 7/26/2 33/21/2 30/27/2
f 13/28/2 8/29/2 35/30/2
f 10/31/1 2/32/1 39/5/1
f 30/27/2 33/21/2 46/33/2
f 26/34/1 37/24/1 42/35/1
f 134/36/2 136/37/2 124/38/2 50/14/2 49/21/2 122/39/2
f 71/40/3 72/41/3 104/41/3 103/40/3
f 31/42/4 28/43/4 44/44/4 47/45/4
f 25/46/5 30/27/5 46/33/5 41/47/5
f 42/48/6 45/49/6 29/13/6 26/50/6
f 3/51/7 7/26/7 30/27/7 25/46/7
f 48/11/8 43/52/8 27/53/8 32/12/8
f 8/29/9 4/54/9 28/43/9 31/42/9
f 70/55/10 69/56/10 101/56/10 102/55/10
f 24/57/11 17/58/11 9/59/11 16/60/11
f 20/61/12 22/20/12 14/19/12 12/62/12
f 11/63/13 13/28/13 21/64/13 19/65/13
f 12/62/3 14/19/3 7/26/3 3/18/3
f 15/66/14 10/67/14 18/68/14 23/69/14
f 16/60/10 9/59/10 1/70/10 5/15/10
f 32/12/9 27/53/9 2/71/9 6/72/9
f 26/50/7 29/13/7 5/15/7 1/73/7
f 6/72/10 2/74/10 10/67/10 15/66/10
f 4/3/3 8/29/3 13/28/3 11/63/3
f 52/10/7 185/75/7 36/10/7
f 48/11/9 72/41/9 71/40/9 43/52/9
f 37/24/1 26/34/1 1/25/1
f 65/76/7 66/77/7 41/47/7 46/33/7
f 5/15/2 34/14/2 16/60/2
f 58/82/9 57/83/9 89/83/9 90/82/9
f 59/84/7 60/85/7 92/85/7 91/84/7
f 62/86/9 61/87/9 93/87/9 94/86/9
f 63/88/7 64/89/7 96/89/7 95/88/7
f 66/77/10 65/76/10 97/76/10 98/77/10
f 67/90/3 68/91/3 100/91/3 99/90/3
f 40/1/1 19/65/1 20/61/1 38/17/1
f 58/82/3 60/85/3 21/64/3 22/20/3
f 36/10/2 23/69/2 24/57/2 34/14/2
f 4/3/1 11/63/1 40/1/1
f 33/21/2 22/20/2 21/64/2 35/30/2
f 40/1/10 38/17/10 54/17/10 128/104/10 127/105/10 56/1/10
f 37/24/1 17/23/1 18/106/1 39/5/1
f 39/5/3 55/5/3 125/4/3 126/107/3 53/24/3 37/24/3
f 36/10/3 34/14/3 50/14/3 124/38/3 123/108/3 52/10/3
f 35/30/10 51/30/10 121/109/10 122/39/10 49/21/10 33/21/10
f 136/37/2 135/110/2 123/108/2 124/38/2
f 132/111/1 131/112/1 127/105/1 128/104/1
f 126/107/1 125/4/1 129/9/1 130/113/1
f 129/9/7 147/8/7 178/8/7 173/9/7
f 122/39/2 121/109/2 133/114/2 134/36/2
f 144/115/3 146/116/3 169/116/3 176/115/3
f 57/83/2 59/84/2 91/84/2 89/83/2
f 3/18/1 38/17/1 12/62/1
f 33/21/2 7/26/2 14/19/2
f 64/89/2 62/86/2 94/86/2 96/89/2
f 64/89/10 63/88/10 23/69/10 18/68/10
f 47/45/9 70/55/9 72/41/9 48/11/9
f 35/30/2 8/29/2 31/42/2
f 60/85/1 58/82/1 90/82/1 92/85/1
f 61/87/1 63/88/1 95/88/1 93/87/1
f 145/117/10 143/118/10 179/118/10 177/117/10
f 136/37/9 134/36/9 167/36/9 168/37/9
f 135/110/3 136/37/3 168/37/3 170/110/3
f 133/114/7 145/117/7 177/117/7 174/114/7
f 134/36/10 133/114/10 174/114/10 167/36/10
f 130/113/9 165/113/9 166/111/9 132/111/9
f 121/109/2 51/30/2 137/119/2 143/118/2 145/117/2 133/114/2
f 148/120/1 142/121/1 140/122/1 56/1/1 127/105/1 131/112/1
f 146/116/2 144/115/2 138/123/2 52/10/2 123/108/2 135/110/2
f 35/30/7 185/75/7 52/10/7 138/123/7 137/119/7 51/30/7
f 43/124/1 44/125/1 40/1/1 39/5/1
f 6/72/2 15/66/2 36/10/2
f 46/33/2 33/21/2 34/14/2 45/49/2
f 34/14/9 33/21/9 49/21/9 50/14/9
f 42/35/1 37/24/1 38/17/1 41/126/1
f 39/5/7 40/1/7 56/1/7 140/122/7 139/6/7 55/5/7
f 38/17/9 37/24/9 53/24/9 54/17/9
f 137/119/2 138/123/2 144/115/2 143/118/2
f 139/6/1 140/122/1 142/121/1 141/7/1
f 130/113/1 132/111/1 128/104/1 54/17/1 53/24/1 126/107/1
f 143/118/7 144/115/7 176/115/7 179/118/7
f 60/85/3 59/84/3 19/65/3 21/64/3
f 71/40/9 69/56/9 44/44/9 43/52/9
f 67/90/7 65/76/7 46/33/7 45/49/7
f 72/41/1 70/55/1 102/55/1 104/41/1
f 69/56/2 71/40/2 103/40/2 101/56/2
f 68/91/2 66/77/2 98/77/2 100/91/2
f 65/76/1 67/90/1 99/90/1 97/76/1
f 131/112/10 132/111/10 166/111/10 172/112/10
f 148/120/7 131/112/7 172/112/7 171/120/7
f 130/113/3 129/9/3 173/9/3 165/113/3
f 142/121/10 148/120/10 171/120/10 175/121/10
f 141/7/7 142/121/7 175/121/7 180/7/7
f 147/8/3 141/7/3 180/7/3 178/8/3
f 146/116/7 135/110/7 170/110/7 169/116/7
f 69/56/9 70/55/9 47/45/9 44/44/9
f 24/57/10 61/87/10 62/86/10 17/58/10
f 39/5/1 2/32/1 27/143/1
f 59/84/3 57/83/3 20/61/3 19/65/3
f 17/58/10 62/86/10 64/89/10 18/68/10
f 57/83/3 58/82/3 22/20/3 20/61/3
f 24/57/10 23/69/10 63/88/10 61/87/10
f 47/45/2 48/11/2 36/10/2 185/75/2 35/30/2
f 24/57/2 16/60/2 34/14/2
f 34/14/2 29/13/2 45/49/2
f 23/69/2 36/10/2 15/66/2
f 35/30/2 21/64/2 13/28/2
f 47/45/2 35/30/2 31/42/2
f 38/17/1 25/16/1 41/126/1
f 20/61/1 12/62/1 38/17/1
f 43/124/1 39/5/1 27/143/1
f 39/5/1 18/106/1 10/31/1
f 40/1/1 44/125/1 28/2/1
f 19/65/1 40/1/1 11/63/1
f 36/10/2 32/12/2 6/72/2
f 42/48/7 68/91/7 67/90/7 45/49/7
f 41/47/7 66/77/7 68/91/7 42/48/7
usemtl Noir_Profond
f 86/78/10 85/79/10 117/79/10 118/78/10
f 83/80/3 84/81/3 116/81/3 115/80/3
f 73/92/3 74/93/3 90/82/3 89/83/3
f 76/94/3 75/95/3 91/84/3 92/85/3
f 77/96/10 78/97/10 94/86/10 93/87/10
f 80/98/10 79/99/10 95/88/10 96/89/10
f 81/100/7 82/101/7 98/77/7 97/76/7
f 84/81/7 83/80/7 99/90/7 100/91/7
f 85/79/9 86/78/9 102/55/9 101/56/9
f 88/102/9 87/103/9 103/40/9 104/41/9
f 87/103/3 88/102/3 120/102/3 119/103/3
f 74/93/9 73/92/9 105/92/9 106/93/9
f 75/95/7 76/94/7 108/94/7 107/95/7
f 78/97/9 77/96/9 109/96/9 110/97/9
f 79/99/7 80/98/7 112/98/7 111/99/7
f 82/101/10 81/100/10 113/100/10 114/101/10
f 73/92/2 75/95/2 107/95/2 105/92/2
f 80/98/2 78/97/2 110/97/2 112/98/2
f 79/99/10 77/96/10 93/87/10 95/88/10
f 78/97/10 80/98/10 96/89/10 94/86/10
f 75/95/3 73/92/3 89/83/3 91/84/3
f 74/93/3 76/94/3 92/85/3 90/82/3
f 76/94/1 74/93/1 106/93/1 108/94/1
f 77/96/1 79/99/1 111/99/1 109/96/1
f 86/78/9 88/102/9 104/41/9 102/55/9
f 87/103/9 85/79/9 101/56/9 103/40/9
f 82/101/7 84/81/7 100/91/7 98/77/7
f 83/80/7 81/100/7 97/76/7 99/90/7
f 88/102/1 86/78/1 118/78/1 120/102/1
f 85/79/2 87/103/2 119/103/2 117/79/2
f 84/81/2 82/101/2 114/101/2 116/81/2
f 81/100/1 83/80/1 115/80/1 113/100/1
f 150/127/9 149/128/9 186/128/9 187/127/9
f 153/129/7 154/130/7 190/130/7 181/129/7
f 160/131/7 195/131/7 196/132/7 163/132/7
f 164/133/7 159/134/7 194/134/7 197/133/7
f 151/135/10 158/136/10 193/136/10 188/135/10
f 154/130/3 152/137/3 189/137/3 190/130/3
f 156/138/10 150/127/10 187/127/10 191/138/10
f 159/134/10 155/139/10 182/139/10 194/134/10
f 162/140/3 164/133/3 197/133/3 183/140/3
f 160/131/3 153/129/3 181/129/3 195/131/3
f 161/141/10 163/132/10 196/132/10 184/141/10
f 157/142/7 162/140/7 183/140/7 192/142/7
f 149/128/3 157/142/3 192/142/3 186/128/3
f 155/139/7 156/138/7 191/138/7 182/139/7
f 158/136/7 161/141/7 184/141/7 193/136/7
f 152/137/9 151/135/9 188/135/9 189/137/9
f 154/130/2 153/129/2 169/116/2 170/110/2
f 157/142/1 149/128/1 165/113/1 173/9/1
f 156/138/1 155/139/1 171/120/1 172/112/1
f 150/127/1 156/138/1 172/112/1 166/111/1
f 158/136/2 151/135/2 167/36/2 174/114/2
f 152/137/2 154/130/2 170/110/2 168/37/2
f 150/127/1 166/111/1 165/113/1 149/128/1
f 161/141/2 158/136/2 174/114/2 177/117/2
f 162/140/1 157/142/1 173/9/1 178/8/1
f 163/132/2 161/141/2 177/117/2 179/118/2
f 153/129/2 160/131/2 176/115/2 169/116/2
f 164/133/1 162/140/1 178/8/1 180/7/1
f 155/139/1 159/134/1 175/121/1 171/120/1
f 160/131/2 163/132/2 179/118/2 176/115/2
f 152/137/2 168/37/2 167/36/2 151/135/2
f 159/134/1 164/133/1 180/7/1 175/121/1
usemtl Bleu_Neon
f 109/96/10 111/99/10 112/98/10 110/97/10
f 105/92/3 107/95/3 108/94/3 106/93/3
f 117/79/9 119/103/9 120/102/9 118/78/9
f 113/100/7 115/80/7 116/81/7 114/101/7
f 184/141/2 196/132/2 195/131/2 181/129/2 190/130/2 189/137/2 188/135/2 193/136/2
f 183/140/1 197/133/1 194/134/1 182/139/1 191/138/1 187/127/1 186/128/1 192/142/1
