# Blender 4.2.3 LTS
# www.blender.org
mtllib SM_Wall_Straight_1x2.mtl
o SM_Wall_Straight_1x2
v -0.050000 -0.999983 0.984406
v -0.050000 1.000017 0.984406
v -0.050000 -0.999983 -1.015594
v -0.050000 1.000017 -1.015594
v 0.050000 -0.999983 0.984406
v 0.050000 1.000017 0.984406
v 0.050000 -0.999983 -1.015594
v 0.050000 1.000017 -1.015594
v -0.050000 -0.599983 0.984406
v -0.050000 0.600017 0.984406
v -0.050000 0.600017 -1.015594
v -0.050000 -0.599983 -1.015594
v 0.050000 0.600017 -1.015594
v 0.050000 -0.599983 -1.015594
v 0.050000 0.600017 0.984406
v 0.050000 -0.599983 0.984406
v -0.049999 -0.565799 0.959951
v -0.049999 0.565834 0.959951
v -0.049999 0.565834 -0.991140
v -0.049999 -0.565799 -0.991140
v 0.049999 0.565834 -0.991140
v 0.049999 -0.565799 -0.991140
v 0.049999 0.565834 0.959951
v 0.049999 -0.565799 0.959951
v -0.050000 -0.999983 -0.615594
v -0.050000 -0.999983 0.584406
v -0.050000 1.000017 0.584406
v -0.050000 1.000017 -0.615594
v 0.050000 -0.999983 0.584406
v 0.050000 -0.999983 -0.615594
v 0.050000 1.000017 -0.615594
v 0.050000 1.000017 0.584406
v 0.050000 -0.902178 -0.917790
v 0.050000 -0.902178 0.886601
v 0.050000 0.902213 -0.917790
v 0.050000 0.902213 0.886601
v -0.050000 -0.902178 0.886601
v -0.050000 -0.902178 -0.917790
v -0.050000 0.902213 0.886601
v -0.050000 0.902213 -0.917790
v -0.049999 -0.975528 -0.581411
v -0.049999 -0.975528 0.550222
v -0.049999 0.975563 0.550222
v -0.049999 0.975563 -0.581411
v 0.049999 -0.975528 0.550222
v 0.049999 -0.975528 -0.581411
v 0.049999 0.975563 -0.581411
v 0.049999 0.975563 0.550222
v 0.040000 -0.902178 -0.917790
v 0.040000 -0.902178 0.886601
v 0.040000 0.902213 -0.917790
v 0.040000 0.902213 0.886601
v -0.040000 -0.902178 0.886601
v -0.040000 -0.902178 -0.917790
v -0.040000 0.902213 0.886601
v -0.040000 0.902213 -0.917790
v -0.017643 -0.551927 -0.991140
v 0.017643 -0.551927 -0.991140
v -0.017643 0.551961 -0.991140
v 0.017643 0.551961 -0.991140
v 0.017643 -0.551927 0.959951
v -0.017643 -0.551927 0.959951
v 0.017643 0.551961 0.959951
v -0.017643 0.551962 0.959951
v 0.017643 -0.975528 -0.567538
v -0.017643 -0.975528 -0.567538
v 0.017643 -0.975528 0.536350
v -0.017643 -0.975528 0.536350
v -0.017643 0.975563 -0.567538
v 0.017643 0.975563 -0.567538
v -0.017643 0.975563 0.536350
v 0.017643 0.975563 0.536350
v -0.006198 -0.529037 -0.971140
v 0.006198 -0.529037 -0.971140
v -0.006198 0.529072 -0.971140
v 0.006198 0.529072 -0.971140
v 0.006198 -0.529037 0.939951
v -0.006198 -0.529037 0.939951
v 0.006198 0.529072 0.939951
v -0.006198 0.529072 0.939951
v 0.006198 -0.955528 -0.544649
v -0.006198 -0.955528 -0.544649
v 0.006198 -0.955528 0.513460
v -0.006198 -0.955528 0.513460
v -0.006198 0.955563 -0.544649
v 0.006198 0.955563 -0.544649
v -0.006198 0.955563 0.513460
v 0.006198 0.955563 0.513460
v -0.017643 -0.551927 -0.971140
v 0.017643 -0.551927 -0.971140
v -0.017643 0.551961 -0.971140
v 0.017643 0.551961 -0.971140
v 0.017643 -0.551927 0.939951
v -0.017643 -0.551927 0.939951
v 0.017643 0.551961 0.939951
v -0.017643 0.551962 0.939951
v 0.017643 -0.955528 -0.567538
v -0.017643 -0.955528 -0.567538
v 0.017643 -0.955528 0.536350
v -0.017643 -0.955528 0.536350
v -0.017643 0.955563 -0.567538
v 0.017643 0.955563 -0.567538
v -0.017643 0.955563 0.536350
v 0.017643 0.955563 0.536350
v -0.006198 -0.529037 -0.961140
v 0.006198 -0.529037 -0.961140
v -0.006198 0.529072 -0.961140
v 0.006198 0.529072 -0.961140
v 0.006198 -0.529037 0.929951
v -0.006198 -0.529037 0.929951
v 0.006198 0.529072 0.929951
v -0.006198 0.529072 0.929951
v 0.006198 -0.945528 -0.544649
v -0.006198 -0.945528 -0.544649
v 0.006198 -0.945528 0.513460
v -0.006198 -0.945528 0.513460
v -0.006198 0.945563 -0.544649
v 0.006198 0.945563 -0.544649
v -0.006198 0.945563 0.513460
v 0.006198 0.945563 0.513460
v 0.040000 0.174358 -0.917790
v 0.040000 -0.174491 -0.917790
v 0.040000 0.174358 0.886601
v 0.040000 -0.174491 0.886601
v -0.040000 0.174358 0.886601
v -0.040000 -0.174491 0.886601
v -0.040000 0.174358 -0.917790
v -0.040000 -0.174491 -0.917790
v -0.040000 0.174358 0.856528
v -0.040000 -0.174491 0.856528
v 0.040000 0.174358 0.856528
v 0.040000 -0.174491 0.856528
v 0.040000 -0.174491 -0.190019
v 0.040000 0.174358 -0.190019
v -0.040000 -0.174491 -0.190019
v -0.040000 0.174358 -0.190019
v -0.030000 -0.084491 0.766528
v 0.030000 -0.084491 0.766528
v 0.030000 0.084358 0.766528
v -0.030000 0.084358 0.766528
v -0.030000 -0.084491 -0.100019
v -0.030000 0.084358 -0.100019
v 0.030000 -0.084491 -0.100019
v 0.030000 0.084358 -0.100019
v -0.030000 -0.174491 0.856528
v 0.030000 -0.174491 0.856528
v 0.030000 0.174358 0.856528
v -0.030000 0.174358 0.856528
v -0.030000 -0.174491 -0.190019
v -0.030000 0.174358 -0.190019
v 0.030000 -0.174491 -0.190019
v 0.030000 0.174358 -0.190019
v 0.040000 -0.901484 0.886601
v -0.020000 -0.084491 0.766528
v 0.020000 -0.084491 0.766528
v 0.020000 0.084358 0.766528
v -0.020000 0.084358 0.766528
v -0.020000 -0.084491 -0.100019
v -0.020000 0.084358 -0.100019
v 0.020000 -0.084491 -0.100019
v 0.020000 0.084358 -0.100019
vn -1.0000 -0.0000 -0.0000
vn 1.0000 -0.0000 -0.0000
vn -0.0000 -0.0000 -1.0000
vn -0.0000 0.8133 0.5818
vn -0.0000 -0.8133 0.5818
vn -0.0000 -0.8133 -0.5818
vn -0.0000 -1.0000 -0.0000
vn -0.0000 0.8133 -0.5818
vn -0.0000 1.0000 -0.0000
vn -0.0000 -0.0000 1.0000
vn -0.0000 0.5818 0.8133
vn -0.0000 0.5818 -0.8133
vn -0.0000 -0.5818 -0.8133
vn -0.0000 -0.5818 0.8133
vt 0.541667 0.166667
vt 0.625000 0.166667
vt 0.625000 0.250000
vt 0.541667 0.666667
vt 0.625000 0.666667
vt 0.625000 0.750000
vt 0.375000 0.666667
vt 0.458333 0.666667
vt 0.375000 0.750000
vt 0.375000 0.166667
vt 0.458333 0.166667
vt 0.375000 0.250000
vt 0.458333 0.500000
vt 0.486111 0.500000
vt 0.458333 0.583333
vt 0.458333 0.000000
vt 0.486111 0.000000
vt 0.458333 0.083333
vt 0.375000 0.000000
vt 0.375000 0.500000
vt 0.375000 0.583333
vt 0.541667 0.500000
vt 0.625000 0.500000
vt 0.541667 0.583333
vt 0.541667 0.000000
vt 0.625000 0.000000
vt 0.541667 0.083333
vt 0.375000 0.611111
vt 0.375000 0.083333
vt 0.375000 0.111111
vt 0.779908 0.638548
vt 0.720092 0.638548
vt 0.625000 0.583333
vt 0.875000 0.583333
vt 0.875000 0.611111
vt 0.625000 0.611111
vt 0.125000 0.583333
vt 0.125000 0.611111
vt 0.125000 0.638889
vt 0.375000 0.638889
vt 0.125000 0.666667
vt 0.125000 0.500000
vt 0.625000 0.638889
vt 0.875000 0.638889
vt 0.875000 0.666667
vt 0.875000 0.500000
vt 0.720092 0.611452
vt 0.779908 0.611452
vt 0.486111 0.750000
vt 0.486111 1.000000
vt 0.458333 1.000000
vt 0.458333 0.750000
vt 0.486111 0.250000
vt 0.458333 0.250000
vt 0.541667 0.250000
vt 0.513889 0.500000
vt 0.513889 0.250000
vt 0.541667 0.750000
vt 0.541667 1.000000
vt 0.513889 1.000000
vt 0.513889 0.750000
vt 0.375000 1.000000
vt 0.875000 0.750000
vt 0.125000 0.750000
vt 0.625000 1.000000
vt 0.458369 0.666667
vt 0.279908 0.638548
vt 0.279908 0.611452
vt 0.739493 0.612013
vt 0.760507 0.612014
vt 0.260507 0.637987
vt 0.239493 0.637987
vt 0.486452 0.404908
vt 0.486452 0.345092
vt 0.513548 0.345092
vt 0.513548 0.404908
vt 0.486452 0.904908
vt 0.486452 0.845092
vt 0.513548 0.845092
vt 0.513548 0.904908
vt 0.220092 0.611452
vt 0.220092 0.638548
vt 0.487013 0.364493
vt 0.487013 0.385507
vt 0.512987 0.385507
vt 0.512987 0.364493
vt 0.487013 0.864493
vt 0.487013 0.885507
vt 0.512986 0.885507
vt 0.512986 0.864493
vt 0.260507 0.612014
vt 0.239493 0.612013
vt 0.739493 0.637987
vt 0.760507 0.637987
vt 0.625000 0.083333
vt 0.495369 0.166667
vt 0.504628 0.166667
vt 0.513889 0.000000
vt 0.504628 0.083333
vt 0.495369 0.083333
vt 0.495369 0.666667
vt 0.504628 0.666667
vt 0.504628 0.583333
vt 0.495369 0.583333
vt 0.495369 0.638889
vt 0.504628 0.638889
vt 0.504628 0.111111
vt 0.495369 0.111111
vt 0.504628 0.129630
vt 0.495369 0.129630
vt 0.495369 0.620370
vt 0.504628 0.620370
vt 0.625000 0.111111
vt 0.625000 0.138889
vt 0.375000 0.138889
vt 0.501642 0.126644
vt 0.498355 0.126644
vt 0.501642 0.637694
vt 0.498355 0.637694
vt 0.501642 0.623356
vt 0.498355 0.623356
vt 0.501642 0.112306
vt 0.498355 0.112306
s 0
usemtl Noir_Light
f 40/1/1 28/2/1 4/3/1
f 36/4/2 32/5/2 6/6/2
f 29/7/2 34/8/2 5/9/2
f 25/10/1 38/11/1 3/12/1
f 14/13/2 22/14/2 33/15/2
f 9/16/1 17/17/1 37/18/1
f 1/19/1 9/16/1 37/18/1
f 7/20/2 33/15/2 30/21/2
f 13/22/2 8/23/2 35/24/2
f 10/25/1 2/26/1 39/27/1
f 30/21/2 33/15/2 46/28/2
f 26/29/1 37/18/1 42/30/1
f 71/31/3 72/32/3 104/32/3 103/31/3
f 31/33/4 28/34/4 44/35/4 47/36/4
f 25/37/5 30/21/5 46/28/5 41/38/5
f 42/39/6 45/40/6 29/7/6 26/41/6
f 3/42/7 7/20/7 30/21/7 25/37/7
f 48/43/8 43/44/8 27/45/8 32/5/8
f 8/23/9 4/46/9 28/34/9 31/33/9
f 70/47/10 69/48/10 101/48/10 102/47/10
f 24/49/11 17/50/11 9/51/11 16/52/11
f 20/53/12 22/14/12 14/13/12 12/54/12
f 11/55/13 13/22/13 21/56/13 19/57/13
f 12/54/3 14/13/3 7/20/3 3/12/3
f 15/58/14 10/59/14 18/60/14 23/61/14
f 16/52/10 9/51/10 1/62/10 5/9/10
f 32/5/9 27/45/9 2/63/9 6/6/9
f 26/41/7 29/7/7 5/9/7 1/64/7
f 6/6/10 2/65/10 10/59/10 15/58/10
f 4/3/3 8/23/3 13/22/3 11/55/3
f 3/12/1 38/11/1 12/54/1
f 71/31/9 69/48/9 44/35/9 43/44/9
f 153/66/3 34/8/3 50/8/3
f 5/9/2 34/8/2 16/52/2
f 6/6/2 15/58/2 36/4/2
f 46/28/7 45/40/7 67/67/7 65/68/7
f 58/73/9 57/74/9 89/74/9 90/73/9
f 59/75/7 60/76/7 92/76/7 91/75/7
f 62/77/9 61/78/9 93/78/9 94/77/9
f 63/79/7 64/80/7 96/80/7 95/79/7
f 66/81/10 65/68/10 97/68/10 98/81/10
f 67/67/3 68/82/3 100/82/3 99/67/3
f 40/1/1 19/57/1 20/53/1 38/11/1
f 39/27/1 2/26/1 27/95/1
f 36/4/2 23/61/2 24/49/2 34/8/2
f 62/77/10 64/80/10 18/60/10 17/50/10
f 33/15/2 22/14/2 21/56/2 35/24/2
f 40/1/10 38/11/10 54/11/10 128/96/10 127/97/10 56/1/10
f 37/18/1 17/17/1 18/98/1 39/27/1
f 39/27/3 55/27/3 125/99/3 126/100/3 53/18/3 37/18/3
f 36/4/3 34/8/3 153/66/3 124/101/3 123/102/3 52/4/3
f 35/24/10 51/24/10 121/103/10 122/104/10 49/15/10 33/15/10
f 132/105/2 131/106/2 123/102/2 124/101/2
f 126/100/1 125/99/1 129/107/1 130/108/1
f 57/74/2 59/75/2 91/75/2 89/74/2
f 42/39/7 68/82/7 67/67/7 45/40/7
f 64/80/2 62/77/2 94/77/2 96/80/2
f 48/43/9 72/32/9 71/31/9 43/44/9
f 20/53/3 19/57/3 59/75/3 57/74/3
f 60/76/3 59/75/3 19/57/3 21/56/3
f 60/76/1 58/73/1 90/73/1 92/76/1
f 61/78/1 63/79/1 95/79/1 93/78/1
f 136/109/10 135/110/10 149/110/10 150/109/10
f 132/105/9 133/111/9 151/111/9 146/105/9
f 130/108/3 129/107/3 148/107/3 145/108/3
f 130/108/9 145/108/9 149/110/9 135/110/9
f 134/112/2 133/111/2 122/104/2 121/103/2
f 136/109/1 127/97/1 128/96/1 135/110/1
f 130/108/1 135/110/1 128/96/1 54/11/1 53/18/1 126/100/1
f 133/111/2 132/105/2 124/101/2 153/66/2 50/8/2 49/15/2 122/104/2
f 35/24/7 36/4/7 52/4/7 51/24/7
f 43/113/1 44/114/1 40/1/1 39/27/1
f 47/36/2 48/43/2 36/4/2 35/24/2
f 35/24/2 8/23/2 31/33/2
f 69/48/9 70/47/9 47/36/9 44/35/9
f 46/28/2 33/15/2 34/8/2 45/40/2
f 34/8/9 33/15/9 49/15/9 50/8/9
f 42/30/1 37/18/1 38/11/1 41/115/1
f 39/27/7 40/1/7 56/1/7 55/27/7
f 38/11/9 37/18/9 53/18/9 54/11/9
f 129/107/7 136/109/7 150/109/7 148/107/7
f 51/24/2 52/4/2 123/102/2 131/106/2 134/112/2 121/103/2
f 55/27/1 56/1/1 127/97/1 136/109/1 129/107/1 125/99/1
f 20/53/3 57/74/3 58/73/3 22/14/3
f 33/15/2 7/20/2 14/13/2
f 41/38/7 66/81/7 68/82/7 42/39/7
f 37/18/1 26/29/1 1/19/1
f 4/3/1 11/55/1 40/1/1
f 46/28/7 65/68/7 66/81/7 41/38/7
f 72/32/1 70/47/1 102/47/1 104/32/1
f 69/48/2 71/31/2 103/31/2 101/48/2
f 68/82/2 66/81/2 98/81/2 100/82/2
f 65/68/1 67/67/1 99/67/1 97/68/1
f 134/112/7 131/106/7 147/106/7 152/112/7
f 131/106/3 132/105/3 146/105/3 147/106/3
f 134/112/10 152/112/10 151/111/10 133/111/10
f 70/47/9 72/32/9 48/43/9 47/36/9
f 61/78/10 62/77/10 17/50/10 24/49/10
f 58/73/3 60/76/3 21/56/3 22/14/3
f 64/80/10 63/79/10 23/61/10 18/60/10
f 63/79/10 61/78/10 24/49/10 23/61/10
f 24/49/2 16/52/2 34/8/2
f 34/8/2 29/7/2 45/40/2
f 36/4/2 48/43/2 32/5/2
f 23/61/2 36/4/2 15/58/2
f 35/24/2 21/56/2 13/22/2
f 47/36/2 35/24/2 31/33/2
f 19/57/1 40/1/1 11/55/1
f 40/1/1 44/114/1 28/2/1
f 39/27/1 18/98/1 10/25/1
f 43/113/1 39/27/1 27/95/1
f 38/11/1 25/10/1 41/115/1
f 20/53/1 12/54/1 38/11/1
usemtl Noir_Profond
f 86/69/10 85/70/10 117/70/10 118/69/10
f 83/71/3 84/72/3 116/72/3 115/71/3
f 73/83/3 74/84/3 90/73/3 89/74/3
f 76/85/3 75/86/3 91/75/3 92/76/3
f 77/87/10 78/88/10 94/77/10 93/78/10
f 80/89/10 79/90/10 95/79/10 96/80/10
f 81/91/7 82/92/7 98/81/7 97/68/7
f 84/72/7 83/71/7 99/67/7 100/82/7
f 85/70/9 86/69/9 102/47/9 101/48/9
f 88/93/9 87/94/9 103/31/9 104/32/9
f 87/94/3 88/93/3 120/93/3 119/94/3
f 74/84/9 73/83/9 105/83/9 106/84/9
f 75/86/7 76/85/7 108/85/7 107/86/7
f 78/88/9 77/87/9 109/87/9 110/88/9
f 79/90/7 80/89/7 112/89/7 111/90/7
f 82/92/10 81/91/10 113/91/10 114/92/10
f 73/83/2 75/86/2 107/86/2 105/83/2
f 80/89/2 78/88/2 110/88/2 112/89/2
f 79/90/10 77/87/10 93/78/10 95/79/10
f 78/88/10 80/89/10 96/80/10 94/77/10
f 75/86/3 73/83/3 89/74/3 91/75/3
f 74/84/3 76/85/3 92/76/3 90/73/3
f 76/85/1 74/84/1 106/84/1 108/85/1
f 77/87/1 79/90/1 111/90/1 109/87/1
f 86/69/9 88/93/9 104/32/9 102/47/9
f 87/94/9 85/70/9 101/48/9 103/31/9
f 82/92/7 84/72/7 100/82/7 98/81/7
f 83/71/7 81/91/7 97/68/7 99/67/7
f 88/93/1 86/69/1 118/69/1 120/93/1
f 85/70/2 87/94/2 119/94/2 117/70/2
f 84/72/2 82/92/2 114/92/2 116/72/2
f 81/91/1 83/71/1 115/71/1 113/91/1
f 142/116/10 141/117/10 158/117/10 159/116/10
f 139/118/3 138/119/3 155/119/3 156/118/3
f 139/118/7 156/118/7 161/120/7 144/120/7
f 143/121/10 144/120/10 161/120/10 160/121/10
f 142/116/7 159/116/7 157/122/7 140/122/7
f 141/117/9 137/123/9 154/123/9 158/117/9
f 138/119/9 143/121/9 160/121/9 155/119/9
f 140/122/1 137/123/1 145/108/1 148/107/1
f 138/119/2 139/118/2 147/106/2 146/105/2
f 144/120/2 143/121/2 151/111/2 152/112/2
f 141/117/1 142/116/1 150/109/1 149/110/1
f 138/119/2 146/105/2 151/111/2 143/121/2
f 139/118/2 144/120/2 152/112/2 147/106/2
f 137/123/1 141/117/1 149/110/1 145/108/1
f 142/116/1 140/122/1 148/107/1 150/109/1
f 140/122/3 157/122/3 154/123/3 137/123/3
usemtl Bleu_Neon
f 109/87/10 111/90/10 112/89/10 110/88/10
f 105/83/3 107/86/3 108/85/3 106/84/3
f 117/70/9 119/94/9 120/93/9 118/69/9
f 113/91/7 115/71/7 116/72/7 114/92/7
f 157/122/1 159/116/1 158/117/1 154/123/1
f 161/120/2 156/118/2 155/119/2 160/121/2
