# Blender 4.2.3 LTS
# www.blender.org
mtllib SM_Control_Tablet.mtl
o SM_Control_Tablet
v -0.068414 0.000000 0.067770
v -0.068863 0.004555 0.072325
v -0.068586 0.000347 0.069513
v -0.068731 0.001334 0.070991
v -0.068829 0.002812 0.071978
v -0.085597 0.000000 0.050587
v -0.090152 0.004555 0.051036
v -0.087340 0.000347 0.050759
v -0.088818 0.001334 0.050904
v -0.089805 0.002812 0.051002
v -0.075232 0.000000 0.066414
v -0.077010 0.004555 0.070704
v -0.075913 0.000347 0.068056
v -0.076489 0.001334 0.069447
v -0.076874 0.002812 0.070378
v -0.080632 0.000000 0.062805
v -0.083916 0.004555 0.066089
v -0.081889 0.000347 0.064062
v -0.082954 0.001334 0.065127
v -0.083666 0.002812 0.065839
v -0.084241 0.000000 0.057406
v -0.088531 0.004555 0.059183
v -0.085882 0.000347 0.058086
v -0.087274 0.001334 0.058662
v -0.088204 0.002812 0.059047
v -0.082260 0.014686 0.050259
v -0.090152 0.010132 0.051036
v -0.087340 0.014340 0.050759
v -0.088818 0.013352 0.050904
v -0.089805 0.011875 0.051002
v -0.068086 0.014686 0.064433
v -0.068863 0.010132 0.072325
v -0.068586 0.014340 0.069513
v -0.068731 0.013352 0.070991
v -0.068829 0.011875 0.071978
v -0.081098 0.014686 0.056104
v -0.088531 0.010132 0.059183
v -0.085882 0.014340 0.058086
v -0.087274 0.013352 0.058662
v -0.088204 0.011875 0.059047
v -0.078227 0.014686 0.060400
v -0.083916 0.010132 0.066089
v -0.081889 0.014340 0.064062
v -0.082954 0.013352 0.065127
v -0.083666 0.011875 0.065839
v -0.073931 0.014686 0.063271
v -0.077010 0.010132 0.070704
v -0.075913 0.014340 0.068056
v -0.076489 0.013352 0.069447
v -0.076874 0.011875 0.070378
v -0.085597 0.000000 -0.050587
v -0.090152 0.004555 -0.051036
v -0.087340 0.000347 -0.050759
v -0.088818 0.001334 -0.050904
v -0.089805 0.002812 -0.051002
v -0.068414 0.000000 -0.067770
v -0.068863 0.004555 -0.072325
v -0.068586 0.000347 -0.069513
v -0.068731 0.001334 -0.070991
v -0.068829 0.002812 -0.071978
v -0.084241 0.000000 -0.057406
v -0.088531 0.004555 -0.059183
v -0.085882 0.000347 -0.058086
v -0.087274 0.001334 -0.058662
v -0.088204 0.002812 -0.059047
v -0.080632 0.000000 -0.062805
v -0.083916 0.004555 -0.066089
v -0.081889 0.000347 -0.064062
v -0.082954 0.001334 -0.065127
v -0.083666 0.002812 -0.065839
v -0.075232 0.000000 -0.066414
v -0.077010 0.004555 -0.070704
v -0.075913 0.000347 -0.068056
v -0.076489 0.001334 -0.069447
v -0.076874 0.002812 -0.070378
v -0.068086 0.014686 -0.064433
v -0.068863 0.010132 -0.072325
v -0.068586 0.014340 -0.069513
v -0.068731 0.013352 -0.070991
v -0.068829 0.011875 -0.071978
v -0.082260 0.014686 -0.050259
v -0.090152 0.010132 -0.051036
v -0.087340 0.014340 -0.050759
v -0.088818 0.013352 -0.050904
v -0.089805 0.011875 -0.051002
v -0.073931 0.014686 -0.063271
v -0.077010 0.010132 -0.070704
v -0.075913 0.014340 -0.068056
v -0.076489 0.013352 -0.069447
v -0.076874 0.011875 -0.070378
v -0.078227 0.014686 -0.060400
v -0.083916 0.010132 -0.066089
v -0.081889 0.014340 -0.064062
v -0.082954 0.013352 -0.065127
v -0.083666 0.011875 -0.065839
v -0.081098 0.014686 -0.056104
v -0.088531 0.010132 -0.059183
v -0.085882 0.014340 -0.058086
v -0.087274 0.013352 -0.058662
v -0.088204 0.011875 -0.059047
v 0.105811 0.005861 0.059183
v 0.103162 0.000347 0.058086
v 0.104554 0.001334 0.058662
v 0.105484 0.002812 0.059047
v 0.101196 0.005861 0.066089
v 0.099169 0.000347 0.064062
v 0.100234 0.001334 0.065127
v 0.100946 0.002812 0.065839
v 0.094290 0.005861 0.070704
v 0.093193 0.000347 0.068056
v 0.093769 0.001334 0.069447
v 0.094154 0.002812 0.070378
v 0.091211 0.014686 0.063271
v 0.094290 0.008826 0.070704
v 0.093193 0.014340 0.068056
v 0.093769 0.013352 0.069447
v 0.094154 0.011875 0.070378
v 0.095507 0.014686 0.060400
v 0.101196 0.008826 0.066089
v 0.099169 0.014340 0.064062
v 0.100234 0.013352 0.065127
v 0.100946 0.011875 0.065839
v 0.098378 0.014686 0.056104
v 0.105811 0.008826 0.059183
v 0.103162 0.014340 0.058086
v 0.104554 0.013352 0.058662
v 0.105484 0.011875 0.059047
v 0.094290 0.005861 -0.070704
v 0.093193 0.000347 -0.068056
v 0.093769 0.001334 -0.069447
v 0.094154 0.002812 -0.070378
v 0.101196 0.005861 -0.066089
v 0.099169 0.000347 -0.064062
v 0.100234 0.001334 -0.065127
v 0.100946 0.002812 -0.065839
v 0.105811 0.005861 -0.059183
v 0.103162 0.000347 -0.058086
v 0.104554 0.001334 -0.058662
v 0.105484 0.002812 -0.059047
v 0.098378 0.014686 -0.056104
v 0.105811 0.008826 -0.059183
v 0.103162 0.014340 -0.058086
v 0.104554 0.013352 -0.058662
v 0.105484 0.011875 -0.059047
v 0.095507 0.014686 -0.060400
v 0.101196 0.008826 -0.066089
v 0.099169 0.014340 -0.064062
v 0.100234 0.013352 -0.065127
v 0.100946 0.011875 -0.065839
v 0.091211 0.014686 -0.063271
v 0.094290 0.008826 -0.070704
v 0.093193 0.014340 -0.068056
v 0.093769 0.013352 -0.069447
v 0.094154 0.011875 -0.070378
v -0.068414 0.014686 0.067770
v -0.075232 0.014686 0.066414
v -0.080632 0.014686 0.062805
v -0.084241 0.014686 0.057406
v -0.085597 0.014686 0.050587
v -0.075232 0.014686 -0.066414
v -0.068414 0.014686 -0.067770
v -0.080632 0.014686 -0.062805
v -0.084241 0.014686 -0.057406
v -0.085597 0.014686 -0.050587
v 0.101521 0.014686 -0.057406
v 0.097912 0.014686 -0.062805
v 0.092513 0.014686 -0.066414
v 0.092513 0.014686 0.066414
v 0.097912 0.014686 0.062805
v 0.101521 0.014686 0.057406
v -0.067998 0.011776 0.063543
v -0.073583 0.011776 0.062432
v -0.077585 0.011776 0.059758
v -0.080259 0.011776 0.055756
v -0.081370 0.011776 0.050171
v -0.073583 0.011776 -0.062432
v -0.067998 0.011776 -0.063543
v -0.077585 0.011776 -0.059758
v -0.080259 0.011776 -0.055756
v -0.081370 0.011776 -0.050171
v 0.097539 0.011776 -0.055756
v 0.098650 0.011776 -0.050171
v 0.094865 0.011776 -0.059758
v 0.090863 0.011776 -0.062432
v 0.085278 0.011776 -0.063543
v 0.090863 0.011776 0.062432
v 0.085278 0.011776 0.063543
v 0.094865 0.011776 0.059758
v 0.097539 0.011776 0.055756
v 0.098650 0.011776 0.050171
v -0.068086 0.011776 0.064433
v -0.073931 0.011776 0.063271
v -0.078227 0.011776 0.060400
v -0.081098 0.011776 0.056104
v -0.082260 0.011776 0.050259
v -0.073931 0.011776 -0.063271
v -0.068086 0.011776 -0.064433
v -0.078227 0.011776 -0.060400
v -0.081098 0.011776 -0.056104
v -0.082260 0.011776 -0.050259
v -0.067998 0.013541 0.063543
v -0.073583 0.013541 0.062432
v -0.077585 0.013541 0.059758
v -0.080259 0.013541 0.055756
v -0.081370 0.013541 0.050171
v -0.073583 0.013541 -0.062432
v -0.067998 0.013541 -0.063543
v -0.077585 0.013541 -0.059758
v -0.080259 0.013541 -0.055756
v -0.081370 0.013541 -0.050171
v 0.097539 0.013541 -0.055756
v 0.098650 0.013541 -0.050171
v 0.094865 0.013541 -0.059758
v 0.090863 0.013541 -0.062432
v 0.085278 0.013541 -0.063543
v 0.090863 0.013541 0.062432
v 0.085278 0.013541 0.063543
v 0.094865 0.013541 0.059758
v 0.097539 0.013541 0.055756
v 0.098650 0.013541 0.050171
v -0.081370 0.011776 0.033640
v -0.081370 0.011776 -0.033640
v -0.081370 0.013541 0.033640
v -0.081370 0.013541 -0.033640
v -0.090152 0.004555 0.034559
v -0.090152 0.004555 0.033881
v -0.090152 0.004555 -0.033881
v -0.090152 0.004555 -0.034559
v -0.089805 0.002812 -0.033858
v -0.089805 0.002812 -0.034536
v -0.089805 0.002812 0.034536
v -0.089805 0.002812 0.033858
v -0.088818 0.001334 -0.033793
v -0.088818 0.001334 -0.034471
v -0.088818 0.001334 0.034471
v -0.088818 0.001334 0.033793
v -0.087340 0.000347 -0.033695
v -0.087340 0.000347 -0.034373
v -0.087340 0.000347 0.034373
v -0.087340 0.000347 0.033695
v -0.085929 0.000066 -0.033602
v -0.085597 0.000000 -0.034258
v -0.085929 0.000066 0.033602
v -0.085597 0.000000 0.034258
v -0.085597 0.014686 0.033580
v -0.085597 0.014686 0.034258
v -0.085597 0.014686 -0.034258
v -0.085597 0.014686 -0.033580
v -0.087340 0.014340 -0.033695
v -0.087340 0.014340 -0.034373
v -0.087340 0.014340 0.034373
v -0.087340 0.014340 0.033695
v -0.088818 0.013352 -0.033793
v -0.088818 0.013352 -0.034471
v -0.088818 0.013352 0.034471
v -0.088818 0.013352 0.033793
v -0.089805 0.011875 -0.033858
v -0.089805 0.011875 -0.034536
v -0.089805 0.011875 0.034536
v -0.089805 0.011875 0.033858
v -0.090152 0.010132 -0.034559
v -0.090152 0.010132 -0.033881
v -0.090152 0.010132 0.033881
v -0.090152 0.010132 0.034559
v -0.082260 0.014686 0.033360
v -0.082260 0.014686 0.034038
v -0.082260 0.014686 -0.034038
v -0.082260 0.014686 -0.033360
v -0.082260 0.011776 0.033360
v -0.082260 0.011776 0.034038
v -0.081922 0.011776 0.033677
v -0.082260 0.011776 -0.034038
v -0.082260 0.011776 -0.033360
v -0.081922 0.011776 -0.033677
v -0.081922 0.011483 0.033677
v -0.082647 0.011575 0.033360
v -0.082658 0.011586 0.034038
v -0.081922 0.011483 -0.033677
v -0.082658 0.011586 -0.034038
v -0.082647 0.011575 -0.033360
v -0.085872 0.000354 -0.033602
v -0.085540 0.000288 -0.034258
v -0.085540 0.000288 0.034258
v -0.085872 0.000354 0.033602
v -0.082548 0.014387 -0.034038
v -0.082560 0.014399 -0.033360
v -0.082560 0.014399 0.033360
v -0.082548 0.014387 0.034038
v -0.085569 0.014393 0.033580
v -0.085567 0.014393 0.034258
v -0.085567 0.014393 -0.034258
v -0.085569 0.014393 -0.033580
v -0.089528 0.011761 0.034536
v -0.089529 0.011759 0.033858
v -0.089858 0.010103 0.033881
v -0.089858 0.010103 0.034559
v -0.089529 0.011759 -0.033858
v -0.089528 0.011761 -0.034536
v -0.089858 0.010103 -0.034559
v -0.089858 0.010103 -0.033881
v -0.088605 0.013142 0.034471
v -0.088607 0.013139 0.033793
v -0.088607 0.013139 -0.033793
v -0.088605 0.013142 -0.034471
v -0.087223 0.014064 0.034373
v -0.087227 0.014062 0.033695
v -0.087227 0.014062 -0.033695
v -0.087223 0.014064 -0.034373
v -0.087223 0.000622 0.034373
v -0.087227 0.000624 0.033695
v -0.087227 0.000624 -0.033695
v -0.087223 0.000622 -0.034373
v -0.088605 0.001545 0.034471
v -0.088607 0.001547 0.033793
v -0.088607 0.001547 -0.033793
v -0.088605 0.001545 -0.034471
v -0.089528 0.002925 0.034536
v -0.089529 0.002927 0.033858
v -0.089529 0.002927 -0.033858
v -0.089528 0.002925 -0.034536
v -0.089858 0.004584 0.034559
v -0.089858 0.004584 0.033881
v -0.089858 0.004584 -0.033881
v -0.089858 0.004584 -0.034559
v 0.102877 0.000000 0.050356
v 0.103049 0.000043 0.050824
v 0.107432 0.005861 0.049504
v 0.107134 0.005861 0.052532
v 0.104620 0.000347 0.050530
v 0.104577 0.000347 0.050975
v 0.106098 0.001334 0.050677
v 0.106055 0.001334 0.051120
v 0.107085 0.002812 0.050775
v 0.107042 0.002812 0.051218
v 0.085463 0.000000 0.067770
v 0.085931 0.000043 0.067942
v 0.087639 0.005861 0.072027
v 0.085917 0.004555 0.072325
v 0.086082 0.000347 0.069470
v 0.085637 0.000347 0.069513
v 0.086227 0.001334 0.070948
v 0.085784 0.001334 0.070991
v 0.086325 0.002812 0.071935
v 0.085882 0.002812 0.071978
v 0.101557 0.000000 0.056955
v 0.101724 0.000043 0.057490
v 0.097754 0.000000 0.062647
v 0.098068 0.000043 0.062961
v 0.092062 0.000000 0.066450
v 0.092597 0.000043 0.066617
v 0.085582 0.014686 0.064390
v 0.085131 0.014686 0.064433
v 0.085917 0.010132 0.072325
v 0.087639 0.008826 0.072027
v 0.085637 0.014340 0.069513
v 0.086082 0.014340 0.069470
v 0.085784 0.013352 0.070991
v 0.086227 0.013352 0.070948
v 0.085882 0.011875 0.071978
v 0.086325 0.011875 0.071935
v 0.099540 0.014686 0.050024
v 0.099497 0.014686 0.050475
v 0.107134 0.008826 0.052532
v 0.107432 0.008826 0.049504
v 0.104577 0.014340 0.050975
v 0.104620 0.014340 0.050530
v 0.106055 0.013352 0.051120
v 0.106098 0.013352 0.050677
v 0.107042 0.011875 0.051218
v 0.107085 0.011875 0.050775
v 0.085463 0.000000 -0.067770
v 0.085931 0.000043 -0.067942
v 0.085917 0.004555 -0.072325
v 0.087639 0.005861 -0.072027
v 0.085637 0.000347 -0.069513
v 0.086082 0.000347 -0.069470
v 0.085784 0.001334 -0.070991
v 0.086227 0.001334 -0.070948
v 0.085882 0.002812 -0.071978
v 0.086325 0.002812 -0.071935
v 0.102877 0.000000 -0.050356
v 0.103049 0.000043 -0.050824
v 0.107134 0.005861 -0.052532
v 0.107432 0.005861 -0.049504
v 0.104577 0.000347 -0.050975
v 0.104620 0.000347 -0.050530
v 0.106055 0.001334 -0.051120
v 0.106098 0.001334 -0.050677
v 0.107042 0.002812 -0.051218
v 0.107085 0.002812 -0.050775
v 0.092062 0.000000 -0.066450
v 0.092597 0.000043 -0.066617
v 0.097754 0.000000 -0.062647
v 0.098068 0.000043 -0.062961
v 0.101557 0.000000 -0.056955
v 0.101724 0.000043 -0.057490
v 0.099497 0.014686 -0.050475
v 0.099540 0.014686 -0.050024
v 0.107432 0.008826 -0.049504
v 0.107134 0.008826 -0.052532
v 0.104620 0.014340 -0.050530
v 0.104577 0.014340 -0.050975
v 0.106098 0.013352 -0.050677
v 0.106055 0.013352 -0.051120
v 0.107085 0.011875 -0.050775
v 0.107042 0.011875 -0.051218
v 0.085131 0.014686 -0.064433
v 0.085582 0.014686 -0.064390
v 0.087639 0.008826 -0.072027
v 0.085917 0.010132 -0.072325
v 0.086082 0.014340 -0.069470
v 0.085637 0.014340 -0.069513
v 0.086227 0.013352 -0.070948
v 0.085784 0.013352 -0.070991
v 0.086325 0.011875 -0.071935
v 0.085882 0.011875 -0.071978
v 0.102834 0.014686 -0.050803
v 0.102877 0.014686 -0.050356
v 0.085463 0.014686 -0.067770
v 0.085910 0.014686 -0.067727
v 0.085910 0.014686 0.067727
v 0.085463 0.014686 0.067770
v 0.102877 0.014686 0.050356
v 0.102834 0.014686 0.050803
v 0.098378 0.011996 -0.056104
v 0.098317 0.011776 -0.056078
v 0.099540 0.011776 -0.050020
v 0.099497 0.011996 -0.050475
v 0.095507 0.011996 -0.060400
v 0.095456 0.011776 -0.060349
v 0.091211 0.011996 -0.063271
v 0.091185 0.011776 -0.063210
v 0.085582 0.011996 -0.064390
v 0.085127 0.011776 -0.064433
v 0.091211 0.011996 0.063271
v 0.091185 0.011776 0.063210
v 0.085127 0.011776 0.064433
v 0.085582 0.011996 0.064390
v 0.095507 0.011996 0.060400
v 0.095456 0.011776 0.060349
v 0.098378 0.011996 0.056104
v 0.098317 0.011776 0.056078
v 0.099497 0.011996 0.050475
v 0.099540 0.011776 0.050020
v 0.102798 0.014316 -0.050800
v 0.102841 0.014315 -0.050353
v 0.104476 0.013990 -0.050516
v 0.104433 0.013990 -0.050961
v 0.105832 0.013084 -0.050651
v 0.105789 0.013084 -0.051095
v 0.106737 0.011729 -0.050742
v 0.106694 0.011729 -0.051184
v 0.107062 0.010095 -0.050774
v 0.107019 0.010095 -0.051216
v 0.104433 0.000696 -0.050961
v 0.104476 0.000696 -0.050516
v 0.102810 0.000365 -0.050348
v 0.102985 0.000408 -0.050815
v 0.101506 0.000367 -0.056941
v 0.101688 0.000412 -0.057471
v 0.105789 0.001602 -0.051095
v 0.105832 0.001602 -0.050651
v 0.106694 0.002957 -0.051184
v 0.106737 0.002957 -0.050742
v 0.107019 0.004591 -0.051216
v 0.107062 0.004591 -0.050774
v 0.097729 0.000369 -0.062622
v 0.098043 0.000412 -0.062936
v 0.092048 0.000367 -0.066399
v 0.092578 0.000412 -0.066581
v 0.086068 0.013990 -0.069326
v 0.085623 0.013990 -0.069370
v 0.085460 0.014315 -0.067734
v 0.085907 0.014316 -0.067691
v 0.086202 0.013084 -0.070682
v 0.085758 0.013084 -0.070725
v 0.086291 0.011729 -0.071587
v 0.085849 0.011729 -0.071630
v 0.086323 0.010095 -0.071912
v 0.085881 0.010095 -0.071955
v 0.085455 0.000365 -0.067703
v 0.085922 0.000408 -0.067878
v 0.085623 0.000696 -0.069370
v 0.086068 0.000696 -0.069326
v 0.085758 0.001602 -0.070725
v 0.086202 0.001602 -0.070682
v 0.085849 0.002957 -0.071630
v 0.086291 0.002957 -0.071587
v 0.085881 0.004591 -0.071955
v 0.086323 0.004591 -0.071912
v 0.085907 0.014316 0.067691
v 0.085460 0.014315 0.067734
v 0.085623 0.013990 0.069370
v 0.086068 0.013990 0.069326
v 0.085758 0.013084 0.070725
v 0.086202 0.013084 0.070682
v 0.085849 0.011729 0.071630
v 0.086291 0.011729 0.071587
v 0.085881 0.010095 0.071955
v 0.086323 0.010095 0.071912
v 0.086068 0.000696 0.069326
v 0.085623 0.000696 0.069370
v 0.085455 0.000365 0.067703
v 0.085922 0.000408 0.067878
v 0.092048 0.000367 0.066399
v 0.092578 0.000412 0.066581
v 0.086202 0.001602 0.070682
v 0.085758 0.001602 0.070725
v 0.086291 0.002957 0.071587
v 0.085849 0.002957 0.071630
v 0.086323 0.004591 0.071912
v 0.085881 0.004591 0.071955
v 0.097729 0.000369 0.062622
v 0.098043 0.000412 0.062936
v 0.101506 0.000367 0.056941
v 0.101688 0.000412 0.057471
v 0.104433 0.013990 0.050961
v 0.104476 0.013990 0.050516
v 0.102841 0.014315 0.050353
v 0.102798 0.014316 0.050800
v 0.105789 0.013084 0.051095
v 0.105832 0.013084 0.050651
v 0.106694 0.011729 0.051184
v 0.106737 0.011729 0.050742
v 0.107019 0.010095 0.051216
v 0.107062 0.010095 0.050774
v 0.102810 0.000365 0.050348
v 0.102985 0.000408 0.050815
v 0.104476 0.000696 0.050516
v 0.104433 0.000696 0.050961
v 0.105832 0.001602 0.050651
v 0.105789 0.001602 0.051095
v 0.106737 0.002957 0.050742
v 0.106694 0.002957 0.051184
v 0.107062 0.004591 0.050774
v 0.107019 0.004591 0.051216
v 0.099866 0.014315 -0.050510
v 0.099910 0.014316 -0.050060
v 0.085167 0.014316 -0.064803
v 0.085617 0.014315 -0.064759
v 0.085617 0.014315 0.064759
v 0.085167 0.014316 0.064803
v 0.099910 0.014316 0.050060
v 0.099866 0.014315 0.050510
v 0.098713 0.011892 -0.056243
v 0.098652 0.011672 -0.056217
v 0.099910 0.011749 -0.050066
v 0.099864 0.011943 -0.050531
v 0.095762 0.011883 -0.060655
v 0.095711 0.011663 -0.060604
v 0.091350 0.011892 -0.063606
v 0.091324 0.011672 -0.063545
v 0.085638 0.011943 -0.064757
v 0.085173 0.011749 -0.064803
v 0.091350 0.011892 0.063606
v 0.091324 0.011672 0.063545
v 0.085173 0.011749 0.064803
v 0.085638 0.011943 0.064757
v 0.095762 0.011883 0.060655
v 0.095711 0.011663 0.060604
v 0.098713 0.011892 0.056243
v 0.098652 0.011672 0.056217
v 0.099864 0.011943 0.050531
v 0.099910 0.011749 0.050066
v 0.105811 0.010132 -0.059183
v 0.101196 0.010132 -0.066089
v 0.101196 0.004555 -0.066089
v 0.105811 0.004555 -0.059183
v 0.094290 0.010132 -0.070704
v 0.094290 0.004555 -0.070704
v 0.094290 0.010132 0.070704
v 0.101196 0.010132 0.066089
v 0.101196 0.004555 0.066089
v 0.094290 0.004555 0.070704
v 0.105811 0.010132 0.059183
v 0.105811 0.004555 0.059183
v 0.086359 0.004555 0.072282
v 0.086359 0.010132 0.072282
v 0.086359 0.010132 -0.072282
v 0.086359 0.004555 -0.072282
v 0.107432 0.004555 0.050810
v 0.107432 0.010132 0.050810
v 0.107389 0.010132 0.051252
v 0.107389 0.004555 0.051252
v 0.107389 0.004555 -0.051252
v 0.107389 0.010132 -0.051252
v 0.107432 0.010132 -0.050810
v 0.107432 0.004555 -0.050810
v 0.105388 0.008826 0.059008
v 0.105388 0.005861 0.059008
v 0.094115 0.005861 0.070281
v 0.094115 0.008826 0.070281
v 0.100873 0.008826 0.065766
v 0.100873 0.005861 0.065766
v 0.094115 0.008826 -0.070281
v 0.094115 0.005861 -0.070281
v 0.105388 0.005861 -0.059008
v 0.105388 0.008826 -0.059008
v 0.100873 0.008826 -0.065766
v 0.100873 0.005861 -0.065766
v 0.087550 0.005861 0.071578
v 0.087550 0.008826 0.071578
v 0.087550 0.008826 -0.071578
v 0.087550 0.005861 -0.071578
v 0.106974 0.005861 0.049504
v 0.106974 0.008826 0.049504
v 0.106685 0.008826 0.052443
v 0.106685 0.005861 0.052443
v 0.106685 0.005861 -0.052443
v 0.106685 0.008826 -0.052443
v 0.106974 0.008826 -0.049504
v 0.106974 0.005861 -0.049504
vn -0.9808 -0.0000 0.1951
vn 0.1084 -0.8315 0.5449
vn -0.9808 -0.0000 -0.1951
vn -0.5556 -0.0000 0.8315
vn -0.8315 -0.0000 -0.5556
vn 0.1913 -0.1951 0.9619
vn -0.8315 -0.0000 0.5556
vn -0.0000 1.0000 -0.0000
vn -0.8315 -0.5556 -0.0000
vn -0.0000 -1.0000 -0.0000
vn 0.5449 -0.8315 0.1084
vn -0.5556 -0.0000 -0.8315
vn -0.1951 -0.0000 -0.9808
vn -0.0000 -0.0000 1.0000
vn 0.5449 -0.8315 -0.1084
vn 0.1084 -0.8315 -0.5449
vn -0.1951 -0.0000 0.9808
vn -0.0381 -0.9808 0.1913
vn -0.1084 -0.8315 0.5449
vn -0.1622 -0.5556 0.8155
vn -0.1913 -0.1951 0.9619
vn -0.0381 0.9808 0.1913
vn -0.1084 0.8315 0.5449
vn -0.1622 0.5556 0.8155
vn -0.1913 0.1951 0.9619
vn -0.1084 -0.9808 0.1622
vn -0.3087 -0.8315 0.4619
vn -0.4619 -0.5556 0.6913
vn -0.5449 -0.1951 0.8155
vn -0.1084 0.9808 0.1622
vn -0.3087 0.8315 0.4619
vn -0.4619 0.5556 0.6913
vn -0.5449 0.1951 0.8155
vn -0.1622 -0.9808 0.1084
vn -0.4619 -0.8315 0.3087
vn -0.6913 -0.5556 0.4619
vn -0.8155 -0.1951 0.5449
vn -0.1622 0.9808 0.1084
vn -0.4619 0.8315 0.3087
vn -0.6913 0.5556 0.4619
vn -0.8155 0.1951 0.5449
vn -0.1913 -0.9808 0.0381
vn -0.5449 -0.8315 0.1084
vn -0.8155 -0.5556 0.1622
vn -0.9619 -0.1951 0.1913
vn -0.1913 0.9808 0.0381
vn -0.5449 0.8315 0.1084
vn -0.8155 0.5556 0.1622
vn -0.9619 0.1951 0.1913
vn -0.0381 0.9808 -0.1913
vn -0.1084 0.8315 -0.5449
vn -0.1622 0.5556 -0.8155
vn -0.1913 0.1951 -0.9619
vn -0.0381 -0.9808 -0.1913
vn -0.1084 -0.8315 -0.5449
vn -0.1622 -0.5556 -0.8155
vn -0.1913 -0.1951 -0.9619
vn -0.1084 0.9808 -0.1622
vn -0.3087 0.8315 -0.4619
vn -0.4619 0.5556 -0.6913
vn -0.5449 0.1951 -0.8155
vn -0.1084 -0.9808 -0.1622
vn -0.3087 -0.8315 -0.4619
vn -0.4619 -0.5556 -0.6913
vn -0.5449 -0.1951 -0.8155
vn -0.1622 0.9808 -0.1084
vn -0.4619 0.8315 -0.3087
vn -0.6913 0.5556 -0.4619
vn -0.8155 0.1951 -0.5449
vn -0.1622 -0.9808 -0.1084
vn -0.4619 -0.8315 -0.3087
vn -0.6913 -0.5556 -0.4619
vn -0.8155 -0.1951 -0.5449
vn -0.1913 0.9808 -0.0381
vn -0.5449 0.8315 -0.1084
vn -0.8155 0.5556 -0.1622
vn -0.9619 0.1951 -0.1913
vn -0.1913 -0.9808 -0.0381
vn -0.5449 -0.8315 -0.1084
vn -0.8155 -0.5556 -0.1622
vn -0.9619 -0.1951 -0.1913
vn 0.5449 0.8315 -0.1084
vn 0.8155 0.5556 -0.1622
vn 0.1913 0.9808 -0.0381
vn 0.9619 -0.1951 -0.1913
vn 0.8155 -0.5556 -0.1622
vn 0.1084 -0.9808 -0.1622
vn 0.1622 0.9808 -0.1084
vn 0.4619 0.8315 -0.3087
vn 0.6913 0.5556 -0.4619
vn 0.8155 0.1951 -0.5449
vn 0.4619 -0.8315 -0.3087
vn 0.6913 -0.5556 -0.4619
vn 0.8155 -0.1951 -0.5449
vn 0.1084 0.9808 -0.1622
vn 0.3087 0.8315 -0.4619
vn 0.4619 0.5556 -0.6913
vn 0.5449 0.1951 -0.8155
vn 0.1622 -0.9808 -0.1084
vn 0.3087 -0.8315 -0.4619
vn 0.4619 -0.5556 -0.6913
vn 0.5449 -0.1951 -0.8155
vn 0.1084 0.8315 -0.5449
vn -0.0000 0.8315 -0.5556
vn -0.0000 0.5556 -0.8315
vn -0.0000 0.9808 -0.1951
vn -0.0000 -0.9808 -0.1951
vn -0.0000 -0.8315 -0.5556
vn -0.0000 -0.5556 -0.8315
vn -0.0000 -0.0000 -1.0000
vn 0.1084 0.8315 0.5449
vn -0.0000 0.8315 0.5556
vn -0.0000 0.5556 0.8315
vn -0.0000 0.9808 0.1951
vn -0.0000 -0.1951 0.9808
vn -0.0000 -0.8315 0.5556
vn -0.0000 -0.5556 0.8315
vn 0.1084 0.9808 0.1622
vn 0.3087 0.8315 0.4619
vn 0.4619 0.5556 0.6913
vn 0.5449 0.1951 0.8155
vn 0.3087 -0.8315 0.4619
vn 0.4619 -0.5556 0.6913
vn 0.5449 -0.1951 0.8155
vn 0.1622 0.9808 0.1084
vn 0.4619 0.8315 0.3087
vn 0.6913 0.5556 0.4619
vn 0.8155 0.1951 0.5449
vn 0.1084 -0.9808 0.1622
vn 0.4619 -0.8315 0.3087
vn 0.6913 -0.5556 0.4619
vn 0.8155 -0.1951 0.5449
vn 0.5449 0.8315 0.1084
vn 0.5556 0.8315 -0.0000
vn 0.8315 0.5556 -0.0000
vn 0.1951 0.9808 -0.0000
vn 0.1951 -0.9808 -0.0000
vn 0.5556 -0.8315 -0.0000
vn 0.8315 -0.5556 -0.0000
vn -1.0000 -0.0000 -0.0000
vn -0.5556 -0.8315 -0.0000
vn -0.1951 -0.9808 -0.0000
vn 0.1913 -0.1951 -0.9619
vn 0.1913 -0.9808 -0.0381
vn 0.1622 -0.5556 -0.8155
vn -0.0000 -0.1951 -0.9808
vn 0.9619 -0.1951 0.1913
vn -0.0000 -0.9808 0.1951
vn 0.8155 -0.5556 0.1622
vn 0.9808 -0.1951 -0.0000
vn 0.1622 -0.9808 0.1084
vn 0.1622 -0.5556 0.8155
vn 0.0381 -0.9808 0.1913
vn -0.5556 0.8315 -0.0000
vn -0.8315 0.5556 -0.0000
vn -0.9808 0.1951 -0.0000
vn 0.0381 0.9808 0.1913
vn 0.1622 0.5556 0.8155
vn 0.1913 0.1951 0.9619
vn 0.9619 0.1951 0.1913
vn 0.0381 -0.9808 -0.1913
vn 0.8155 0.5556 0.1622
vn 0.1913 0.9808 0.0381
vn 0.1913 0.1951 -0.9619
vn 0.1622 0.5556 -0.8155
vn 0.0381 0.9808 -0.1913
vn -0.1951 0.9808 -0.0000
vn 0.9619 0.1951 -0.1913
vn 0.9808 0.1951 -0.0000
vn -0.0000 0.1951 -0.9808
vn 0.5556 -0.0000 0.8315
vn 0.8315 -0.0000 0.5556
vn 0.9808 -0.0000 0.1951
vn 0.1951 -0.0000 -0.9808
vn 0.5556 -0.0000 -0.8315
vn 1.0000 -0.0000 -0.0000
vn 0.8315 -0.0000 -0.5556
vn -0.0000 0.1951 0.9808
vn 0.9808 -0.0000 -0.1951
vn 0.1951 -0.0000 0.9808
vn 0.1913 -0.9808 0.0381
vn -0.9808 -0.1951 -0.0000
vn 0.0634 -0.0190 0.9978
vn -0.0209 0.0316 -0.9993
vn -0.0691 0.0300 0.9972
vn 0.0212 -0.0315 0.9993
vn -0.0209 -0.0316 -0.9993
vn -0.4557 0.3557 -0.8160
vn 0.0644 0.0158 -0.9978
vn -0.0691 0.0300 -0.9972
vn 0.0212 0.0315 0.9993
vn -0.0643 -0.0166 0.9978
vn 0.0474 -0.0312 -0.9984
vn -0.4856 0.3986 0.7780
vn -0.0643 -0.0166 -0.9978
vn 0.0693 -0.0324 0.9971
vn -0.0469 0.0318 0.9984
vn 0.0033 0.0128 -0.9999
vn -0.4856 0.3986 -0.7780
vn 0.0033 -0.0128 -0.9999
vn 0.0644 0.0158 0.9978
vn 0.1327 0.9911 -0.0139
vn 0.1327 0.9911 0.0139
vn 0.9994 -0.0348 0.0010
vn 0.9994 -0.0348 -0.0010
vn 0.0006 1.0000 0.0089
vn 0.0006 1.0000 -0.0089
vn -0.9808 0.1951 0.0003
vn -0.9808 0.1951 -0.0003
vn -0.8315 0.5556 0.0002
vn -0.8315 0.5556 -0.0002
vn -0.5556 0.8315 0.0002
vn -0.5556 0.8315 -0.0002
vn -0.1951 0.9808 -0.0005
vn -0.1951 0.9808 0.0005
vn -0.1951 -0.9808 -0.0007
vn -0.1951 -0.9808 0.0007
vn -0.5556 -0.8315 0.0002
vn -0.5556 -0.8315 -0.0002
vn -0.8315 -0.5556 0.0002
vn -0.8315 -0.5556 -0.0002
vn -0.9808 -0.1951 0.0003
vn -0.9808 -0.1951 -0.0003
vn -0.0209 -0.0316 0.9993
vn 0.0693 -0.0325 -0.9971
vn -0.0632 0.0195 -0.9978
vn 0.0212 0.0314 -0.9993
vn -0.0209 0.0316 0.9993
vn 0.0212 -0.0315 -0.9993
vn 0.0033 0.0128 0.9999
vn -0.0632 0.0195 0.9978
vn 0.0474 0.0312 0.9984
vn 0.0634 -0.0191 -0.9978
vn -0.0469 -0.0318 -0.9984
vn 0.0033 -0.0128 0.9999
vn -0.0032 -0.0128 -0.9999
vn -0.0032 0.0128 -0.9999
vn 0.0474 -0.0312 0.9984
vn -0.0469 -0.0318 0.9984
vn -0.4557 0.3557 0.8160
vn -0.0032 -0.0128 0.9999
vn -0.0469 0.0318 -0.9984
vn 0.0474 0.0312 -0.9984
vn -0.0032 0.0128 0.9999
vn 0.0970 0.0007 -0.9953
vn -0.9716 -0.1391 0.1913
vn 0.1210 -0.0042 -0.9926
vn 0.9952 0.0012 -0.0974
vn -0.1089 0.0005 0.9940
vn -0.9952 -0.0008 0.0975
vn -0.0973 -0.0012 0.9953
vn 0.9678 0.1625 -0.1924
vn -0.2067 -0.9773 -0.0458
vn 0.0975 0.0008 -0.9952
vn 0.0999 -0.0036 0.9950
vn 0.1725 0.9841 0.0413
vn 0.9952 0.0013 -0.0983
vn -0.9952 -0.0005 0.0980
vn -0.0983 -0.0013 0.9952
vn -0.1003 0.0015 -0.9950
vn -0.2434 -0.9560 -0.1637
vn 0.0999 -0.0036 -0.9950
vn 0.2432 0.9560 0.1640
vn 0.9951 0.0008 -0.0992
vn 0.0967 -0.0002 0.9953
vn -0.1003 0.0015 0.9950
vn -0.1637 -0.9560 -0.2434
vn -0.9953 0.0002 -0.0968
vn -0.9716 -0.1391 -0.1913
vn -0.0968 0.0005 -0.9953
vn 0.1640 0.9560 0.2433
vn 0.0970 -0.0007 0.9953
vn 0.9953 -0.0005 0.0968
vn 0.9678 0.1625 0.1924
vn -0.0458 -0.9773 -0.2067
vn -0.9953 0.0007 -0.0970
vn 0.0967 -0.0002 -0.9953
vn -0.0973 0.0012 -0.9953
vn -0.0968 0.0005 0.9953
vn 0.0975 -0.0008 0.9952
vn 0.0413 0.9841 0.1725
vn 0.9953 -0.0012 0.0973
vn -0.9952 0.0008 -0.0975
vn 0.0970 -0.0007 -0.9953
vn -0.0983 0.0013 -0.9952
vn -0.0458 -0.9773 0.2067
vn -0.0973 0.0012 0.9953
vn 0.0980 -0.0005 0.9952
vn 0.0413 0.9841 -0.1725
vn 0.9952 -0.0013 0.0983
vn -0.9950 -0.0036 -0.0999
vn 0.0975 -0.0008 -0.9952
vn -0.0992 0.0008 -0.9951
vn -0.1637 -0.9560 0.2434
vn -0.0983 0.0013 0.9952
vn 0.1640 0.9560 -0.2433
vn 0.9950 0.0015 0.1002
vn -0.1913 -0.1391 0.9716
vn 0.0980 -0.0005 -0.9952
vn -0.2434 -0.9560 0.1637
vn 0.2432 0.9560 -0.1640
vn 0.1924 0.1624 -0.9678
vn -0.0992 0.0008 0.9951
vn -0.9953 -0.0002 -0.0968
vn 0.1933 0.9810 -0.0186
vn 0.5511 0.8327 -0.0533
vn 0.8263 0.5574 -0.0802
vn 0.9760 0.1960 -0.0948
vn 0.1933 -0.9810 -0.0185
vn 0.1559 -0.9873 -0.0311
vn 0.5511 -0.8327 -0.0533
vn 0.8263 -0.5574 -0.0801
vn 0.9760 -0.1960 -0.0948
vn 0.0820 -0.9951 -0.0548
vn 0.0548 -0.9951 -0.0820
vn 0.0186 0.9810 -0.1933
vn 0.0533 0.8327 -0.5511
vn 0.0802 0.5574 -0.8263
vn 0.0948 0.1960 -0.9760
vn 0.0311 -0.9873 -0.1559
vn 0.0185 -0.9810 -0.1933
vn 0.0533 -0.8327 -0.5511
vn 0.0802 -0.5574 -0.8263
vn 0.0948 -0.1960 -0.9760
vn 0.0186 0.9810 0.1933
vn 0.0533 0.8327 0.5511
vn 0.0802 0.5574 0.8263
vn 0.0948 0.1960 0.9760
vn 0.0185 -0.9810 0.1933
vn 0.0311 -0.9873 0.1559
vn 0.0533 -0.8327 0.5511
vn 0.0802 -0.5574 0.8263
vn 0.0948 -0.1960 0.9760
vn 0.0548 -0.9951 0.0820
vn 0.0820 -0.9951 0.0548
vn 0.1933 0.9810 0.0186
vn 0.5511 0.8327 0.0533
vn 0.8263 0.5574 0.0802
vn 0.9760 0.1960 0.0948
vn 0.1559 -0.9873 0.0311
vn 0.1933 -0.9810 0.0185
vn 0.5511 -0.8327 0.0533
vn 0.8263 -0.5574 0.0802
vn 0.9760 -0.1960 0.0948
vn 0.0968 -0.0000 0.9953
vn 0.0968 -0.0000 -0.9953
vn 0.9953 -0.0000 0.0967
vn 0.9953 -0.0000 -0.0967
vn -0.0001 1.0000 -0.0011
vn 0.0011 1.0000 0.0001
vn 0.0011 1.0000 -0.0001
vn -0.0001 1.0000 0.0011
vn -0.9474 0.2578 0.1896
vn -0.7941 0.2951 0.5313
vn -0.5313 0.2951 0.7941
vn -0.1896 0.2578 0.9474
vn -0.1896 0.2578 -0.9474
vn -0.5313 0.2951 -0.7941
vn -0.7941 0.2951 -0.5313
vn -0.9474 0.2578 -0.1896
vn -0.9951 -0.0000 -0.0986
vn -0.9951 -0.0000 0.0986
vn -0.0986 -0.0000 -0.9951
vn -0.0986 -0.0000 0.9951
vn -0.1089 0.0005 -0.9940
vn -0.0968 -0.0005 0.9953
vn -0.9953 -0.0007 0.0970
vn 0.1210 -0.0042 0.9926
vn -0.0983 -0.0013 -0.9952
vn 0.9953 0.0005 -0.0968
vn -0.9926 -0.0042 0.1210
vn 0.0975 0.0008 0.9952
vn 0.0967 0.0002 -0.9953
vn 0.9941 0.0005 -0.1089
vn -0.9953 -0.0000 0.0967
vn -0.9953 -0.0002 0.0968
vn 0.9941 0.0005 0.1089
vn -0.0973 -0.0012 -0.9953
vn -0.9926 -0.0042 -0.1210
vn 0.0970 0.0007 0.9953
vn -0.9953 -0.0000 -0.0967
vn 0.9950 0.0015 -0.1003
vn -0.0968 -0.0005 -0.9953
vn -0.0967 -0.0000 0.9953
vn -0.9950 -0.0036 0.0999
vn 0.0967 0.0002 0.9953
vn 0.0967 -0.0000 -0.9953
vn 0.1924 0.1624 0.9678
vn 0.8266 0.1150 -0.5509
vn 0.0967 -0.0000 0.9953
vn -0.0967 -0.0000 -0.9953
vn -0.1913 -0.1391 -0.9716
vn -0.8274 -0.1008 0.5524
vn 0.5509 0.1150 -0.8266
vn -0.0992 -0.0022 -0.9951
vn 0.9952 -0.0013 -0.0983
vn 0.0982 0.0017 0.9952
vn -0.9952 0.0008 0.0975
vn -0.5524 -0.1008 0.8274
vn 0.9951 -0.0022 0.0992
vn 0.9953 -0.0012 -0.0973
vn 0.9951 0.0008 0.0992
vn -0.9952 0.0017 -0.0982
vn -0.9953 0.0007 0.0970
vn -0.9952 -0.0005 -0.0980
vn 0.9951 -0.0022 -0.0992
vn 0.9953 -0.0005 -0.0968
vn -0.9952 0.0017 0.0982
vn -0.9953 0.0002 0.0967
vn 0.9952 0.0013 0.0983
vn -0.0992 -0.0022 0.9951
vn 0.5509 0.1150 0.8266
vn -0.9952 -0.0008 -0.0975
vn 0.0982 0.0017 -0.9952
vn -0.5524 -0.1008 -0.8274
vn 0.9952 0.0012 0.0974
vn 0.8266 0.1150 0.5509
vn -0.9953 -0.0007 -0.0970
vn 0.1725 0.9841 -0.0413
vn -0.8274 -0.1008 -0.5524
vn 0.9953 0.0005 0.0968
vn -0.2067 -0.9773 0.0458
vn 0.1938 -0.0000 -0.9810
vn 0.9810 -0.0000 0.1938
vn 0.9810 -0.0000 -0.1938
vn 0.1938 -0.0000 0.9810
vt 0.452533 0.022713
vt 0.547467 0.022713
vt 0.547467 0.036794
vt 0.452533 0.036794
vt 0.347986 0.745066
vt 0.356984 0.742622
vt 0.358042 0.747289
vt 0.348500 0.749881
vt 0.547467 0.227287
vt 0.452533 0.227287
vt 0.452533 0.213206
vt 0.547467 0.213206
vt 0.452533 0.983372
vt 0.547467 0.983372
vt 0.547467 1.000000
vt 0.452533 1.000000
vt 0.547467 0.250000
vt 0.452533 0.250000
vt 0.452533 0.227287
vt 0.547467 0.227287
vt 0.422863 0.776621
vt 0.422863 0.766714
vt 0.452533 0.766628
vt 0.452533 0.776663
vt 0.452533 0.000000
vt 0.547467 0.000000
vt 0.547467 0.022713
vt 0.653031 0.734823
vt 0.846969 0.734823
vt 0.847080 0.736361
vt 0.653222 0.736361
vt 0.422863 0.155568
vt 0.422863 0.213147
vt 0.375000 0.212979
vt 0.375000 0.155512
vt 0.525239 0.474957
vt 0.525239 0.483372
vt 0.369598 0.725390
vt 0.371388 0.713101
vt 0.374965 0.713583
vt 0.374008 0.726837
vt 0.547467 0.266628
vt 0.452533 0.266628
vt 0.547467 0.276936
vt 0.452533 0.276936
vt 0.525239 0.727287
vt 0.525239 0.750000
vt 0.474761 0.539441
vt 0.525239 0.539441
vt 0.371388 0.536899
vt 0.369598 0.524610
vt 0.374008 0.523163
vt 0.374964 0.536417
vt 0.474761 0.483372
vt 0.474761 0.474957
vt 0.356984 0.507378
vt 0.347986 0.504934
vt 0.348500 0.500119
vt 0.358042 0.502711
vt 0.474761 0.766628
vt 0.474761 0.750000
vt 0.525239 0.534207
vt 0.474761 0.534207
vt 0.452533 0.973064
vt 0.547467 0.973064
vt 0.143877 0.739784
vt 0.152504 0.742128
vt 0.152287 0.745140
vt 0.143016 0.742622
vt 0.151773 0.749956
vt 0.141958 0.747289
vt 0.375000 0.983042
vt 0.375000 0.973227
vt 0.422863 0.973106
vt 0.422863 0.983286
vt 0.847496 0.742128
vt 0.856123 0.739784
vt 0.856984 0.742622
vt 0.847713 0.745140
vt 0.858042 0.747289
vt 0.848227 0.749956
vt 0.625000 0.973227
vt 0.625000 0.983042
vt 0.577137 0.983286
vt 0.577137 0.973106
vt 0.137044 0.733548
vt 0.135454 0.735720
vt 0.141349 0.746944
vt 0.133169 0.739478
vt 0.375000 0.999469
vt 0.375000 0.983903
vt 0.422863 0.983510
vt 0.422863 0.999862
vt 0.862955 0.733548
vt 0.864545 0.735720
vt 0.866831 0.739478
vt 0.858651 0.746944
vt 0.625000 0.983903
vt 0.625000 0.999469
vt 0.577137 0.999862
vt 0.577137 0.983510
vt 0.132479 0.724215
vt 0.130402 0.725390
vt 0.132703 0.738842
vt 0.127237 0.727668
vt 0.375000 0.021988
vt 0.375000 0.000726
vt 0.422863 0.000189
vt 0.422863 0.022525
vt 0.867521 0.724215
vt 0.869598 0.725390
vt 0.872763 0.727668
vt 0.867297 0.738842
vt 0.625000 0.000726
vt 0.625000 0.021988
vt 0.577137 0.022525
vt 0.577137 0.000189
vt 0.130763 0.712431
vt 0.128558 0.712728
vt 0.126985 0.726837
vt 0.125032 0.713429
vt 0.375000 0.036571
vt 0.375000 0.023163
vt 0.422863 0.022830
vt 0.422863 0.036736
vt 0.869237 0.712431
vt 0.871442 0.712728
vt 0.874968 0.713429
vt 0.873015 0.726837
vt 0.625000 0.023163
vt 0.625000 0.036571
vt 0.577137 0.036736
vt 0.577137 0.022830
vt 0.856123 0.510216
vt 0.847496 0.507872
vt 0.847713 0.504860
vt 0.856984 0.507378
vt 0.848227 0.500044
vt 0.858042 0.502711
vt 0.625000 0.266958
vt 0.625000 0.276773
vt 0.577137 0.276894
vt 0.577137 0.266714
vt 0.152504 0.507872
vt 0.143877 0.510216
vt 0.143016 0.507378
vt 0.152287 0.504860
vt 0.141958 0.502711
vt 0.151773 0.500044
vt 0.375000 0.276773
vt 0.375000 0.266958
vt 0.422863 0.266714
vt 0.422863 0.276894
vt 0.862955 0.516452
vt 0.864546 0.514280
vt 0.858651 0.503056
vt 0.866831 0.510522
vt 0.625000 0.250531
vt 0.625000 0.266097
vt 0.577137 0.266490
vt 0.577137 0.250138
vt 0.137044 0.516452
vt 0.135454 0.514280
vt 0.133169 0.510522
vt 0.141349 0.503056
vt 0.375000 0.266097
vt 0.375000 0.250531
vt 0.422863 0.250138
vt 0.422863 0.266490
vt 0.867521 0.525785
vt 0.869598 0.524610
vt 0.867297 0.511158
vt 0.872763 0.522332
vt 0.625000 0.228012
vt 0.625000 0.249274
vt 0.577137 0.249811
vt 0.577137 0.227475
vt 0.132479 0.525785
vt 0.130402 0.524610
vt 0.127237 0.522332
vt 0.132703 0.511158
vt 0.375000 0.249274
vt 0.375000 0.228012
vt 0.422863 0.227475
vt 0.422863 0.249811
vt 0.869237 0.537569
vt 0.871442 0.537272
vt 0.873015 0.523163
vt 0.874968 0.536571
vt 0.625000 0.213429
vt 0.625000 0.226837
vt 0.577137 0.227170
vt 0.577137 0.213264
vt 0.130763 0.537569
vt 0.128558 0.537272
vt 0.125032 0.536571
vt 0.126985 0.523163
vt 0.375000 0.226837
vt 0.375000 0.213429
vt 0.422863 0.213264
vt 0.422863 0.227170
vt 0.630402 0.524610
vt 0.628612 0.536899
vt 0.625035 0.536417
vt 0.625992 0.523163
vt 0.625036 0.536417
vt 0.577137 0.536420
vt 0.577137 0.522830
vt 0.645524 0.515648
vt 0.652647 0.513713
vt 0.652647 0.513713
vt 0.632479 0.525785
vt 0.630817 0.537196
vt 0.422863 0.536420
vt 0.422863 0.522830
vt 0.452533 0.522713
vt 0.452533 0.536421
vt 0.374965 0.536417
vt 0.422863 0.536420
vt 0.363152 0.516184
vt 0.356229 0.509865
vt 0.364546 0.514280
vt 0.525239 0.766628
vt 0.525239 0.775043
vt 0.637044 0.516452
vt 0.635454 0.514280
vt 0.627237 0.522332
vt 0.632703 0.511158
vt 0.625000 0.500726
vt 0.625000 0.521988
vt 0.577137 0.522525
vt 0.577137 0.500189
vt 0.547467 0.522713
vt 0.547467 0.500000
vt 0.635039 0.537764
vt 0.636456 0.528035
vt 0.635039 0.537764
vt 0.367297 0.511158
vt 0.372763 0.522332
vt 0.375000 0.521988
vt 0.375000 0.500726
vt 0.422863 0.500189
vt 0.422863 0.522525
vt 0.452533 0.500000
vt 0.643877 0.510216
vt 0.643017 0.507378
vt 0.633169 0.510522
vt 0.641349 0.503056
vt 0.625000 0.483903
vt 0.625000 0.499469
vt 0.577137 0.499862
vt 0.577137 0.483510
vt 0.547467 0.483372
vt 0.367778 0.525640
vt 0.363152 0.516184
vt 0.358651 0.503056
vt 0.366831 0.510522
vt 0.375000 0.499469
vt 0.375000 0.483903
vt 0.422863 0.483510
vt 0.422863 0.499862
vt 0.452533 0.483372
vt 0.652014 0.504934
vt 0.641958 0.502711
vt 0.651500 0.500118
vt 0.652390 0.500000
vt 0.847897 0.500000
vt 0.652576 0.504860
vt 0.577137 0.472734
vt 0.577137 0.276980
vt 0.625000 0.277103
vt 0.625000 0.472610
vt 0.652797 0.507872
vt 0.347423 0.504860
vt 0.347203 0.507872
vt 0.152103 0.500000
vt 0.347610 0.500000
vt 0.422863 0.276980
vt 0.422863 0.472734
vt 0.375000 0.472610
vt 0.375000 0.277103
vt 0.547467 0.472778
vt 0.452533 0.472778
vt 0.643016 0.742622
vt 0.652014 0.745066
vt 0.651500 0.749882
vt 0.641958 0.747289
vt 0.652577 0.745140
vt 0.847897 0.750000
vt 0.652390 0.750000
vt 0.625000 0.777390
vt 0.625000 0.972897
vt 0.577137 0.973020
vt 0.577137 0.777266
vt 0.652797 0.742128
vt 0.452533 0.777222
vt 0.422863 0.973020
vt 0.422863 0.777266
vt 0.347610 0.750000
vt 0.152103 0.750000
vt 0.347423 0.745140
vt 0.375000 0.972897
vt 0.375000 0.777390
vt 0.637044 0.733548
vt 0.643877 0.739784
vt 0.635454 0.735720
vt 0.641349 0.746944
vt 0.633169 0.739478
vt 0.625000 0.750531
vt 0.625000 0.766097
vt 0.577137 0.766490
vt 0.577137 0.750138
vt 0.547467 0.766628
vt 0.547467 0.750000
vt 0.652647 0.736287
vt 0.645524 0.734352
vt 0.652647 0.736287
vt 0.364546 0.735720
vt 0.366831 0.739478
vt 0.358651 0.746944
vt 0.375000 0.766097
vt 0.375000 0.750531
vt 0.422863 0.750138
vt 0.422863 0.766490
vt 0.452533 0.750000
vt 0.632479 0.724215
vt 0.630402 0.725390
vt 0.632703 0.738842
vt 0.627237 0.727668
vt 0.625000 0.728012
vt 0.625000 0.749274
vt 0.577137 0.749811
vt 0.577137 0.727475
vt 0.547467 0.727287
vt 0.356229 0.740135
vt 0.363152 0.733816
vt 0.372763 0.727668
vt 0.367297 0.738842
vt 0.375000 0.749274
vt 0.375000 0.728012
vt 0.422863 0.727475
vt 0.422863 0.749811
vt 0.452533 0.727287
vt 0.628612 0.713101
vt 0.625993 0.726837
vt 0.625036 0.713583
vt 0.625008 0.712810
vt 0.625008 0.537190
vt 0.628558 0.537668
vt 0.628558 0.712332
vt 0.577137 0.712814
vt 0.577137 0.537186
vt 0.630763 0.537969
vt 0.630763 0.712031
vt 0.371442 0.537668
vt 0.371442 0.712332
vt 0.369237 0.712031
vt 0.369237 0.537969
vt 0.374992 0.537190
vt 0.374992 0.712810
vt 0.422863 0.537186
vt 0.422863 0.712814
vt 0.374992 0.537190
vt 0.474761 0.715793
vt 0.525239 0.715793
vt 0.452533 0.155588
vt 0.547467 0.155588
vt 0.422863 0.095909
vt 0.422863 0.154091
vt 0.375000 0.154035
vt 0.375000 0.095965
vt 0.125000 0.654035
vt 0.125000 0.595965
vt 0.128558 0.596049
vt 0.128558 0.653951
vt 0.128558 0.653951
vt 0.128558 0.596049
vt 0.130343 0.596129
vt 0.130343 0.653871
vt 0.422863 0.483286
vt 0.422863 0.473379
vt 0.452533 0.473337
vt 0.369455 0.537159
vt 0.371388 0.536899
vt 0.375000 0.483042
vt 0.375000 0.473500
vt 0.452533 0.472778
vt 0.422863 0.727170
vt 0.422863 0.713580
vt 0.452533 0.713579
vt 0.452533 0.727287
vt 0.347203 0.742128
vt 0.374964 0.713583
vt 0.422863 0.713580
vt 0.452533 0.537184
vt 0.452533 0.712816
vt 0.452533 0.777222
vt 0.547467 0.777222
vt 0.363152 0.733816
vt 0.367778 0.724360
vt 0.375000 0.776500
vt 0.375000 0.766958
vt 0.347796 0.742426
vt 0.871442 0.594572
vt 0.875000 0.537021
vt 0.875000 0.594488
vt 0.871442 0.653951
vt 0.871442 0.596049
vt 0.875000 0.595965
vt 0.875000 0.654035
vt 0.625000 0.095965
vt 0.625000 0.154035
vt 0.577137 0.154091
vt 0.577137 0.095909
vt 0.547467 0.154111
vt 0.547467 0.095889
vt 0.652231 0.742054
vt 0.652014 0.745066
vt 0.625000 0.766958
vt 0.625000 0.776500
vt 0.577137 0.776621
vt 0.577137 0.766714
vt 0.636456 0.721965
vt 0.635039 0.712236
vt 0.577137 0.776621
vt 0.547467 0.776663
vt 0.577137 0.713580
vt 0.577137 0.727170
vt 0.547467 0.727287
vt 0.547467 0.713579
vt 0.356229 0.509865
vt 0.347796 0.507574
vt 0.347986 0.504934
vt 0.625035 0.713583
vt 0.577137 0.713580
vt 0.630817 0.712804
vt 0.628612 0.713101
vt 0.577137 0.473379
vt 0.577137 0.483286
vt 0.547467 0.473337
vt 0.637517 0.528635
vt 0.636111 0.538289
vt 0.634985 0.538549
vt 0.636533 0.528079
vt 0.625000 0.473500
vt 0.625000 0.483042
vt 0.652231 0.507946
vt 0.869237 0.655329
vt 0.871442 0.655428
vt 0.854476 0.734352
vt 0.859912 0.729391
vt 0.863544 0.721965
vt 0.865016 0.711863
vt 0.854476 0.515648
vt 0.847080 0.513639
vt 0.859912 0.520609
vt 0.863544 0.528035
vt 0.865016 0.538137
vt 0.577137 0.536420
vt 0.547467 0.536421
vt 0.640088 0.520609
vt 0.653216 0.513638
vt 0.653221 0.513638
vt 0.653216 0.736361
vt 0.640088 0.729390
vt 0.634985 0.711458
vt 0.634985 0.538542
vt 0.634985 0.538549
vt 0.634985 0.711451
vt 0.869237 0.594671
vt 0.652647 0.736287
vt 0.652231 0.742054
vt 0.547467 0.712816
vt 0.547467 0.537184
vt 0.577137 0.537186
vt 0.547467 0.472778
vt 0.645964 0.732903
vt 0.640900 0.728281
vt 0.636111 0.711712
vt 0.637517 0.721365
vt 0.636533 0.721921
vt 0.635039 0.712236
vt 0.630817 0.712804
vt 0.635039 0.537764
vt 0.630817 0.537196
vt 0.865016 0.596337
vt 0.865016 0.653663
vt 0.865016 0.653663
vt 0.865016 0.596337
vt 0.634985 0.711451
vt 0.547467 0.777222
vt 0.653031 0.515177
vt 0.645964 0.517097
vt 0.645556 0.515754
vt 0.630763 0.712031
vt 0.630763 0.537969
vt 0.652231 0.507946
vt 0.653216 0.736361
vt 0.854036 0.732903
vt 0.859100 0.728281
vt 0.862483 0.721365
vt 0.863889 0.711711
vt 0.854036 0.517097
vt 0.846969 0.515177
vt 0.859100 0.521719
vt 0.862483 0.528635
vt 0.863889 0.538289
vt 0.640900 0.521719
vt 0.640153 0.520698
vt 0.645556 0.734246
vt 0.640153 0.729302
vt 0.640088 0.729390
vt 0.640153 0.729302
vt 0.636533 0.721921
vt 0.640153 0.520698
vt 0.653222 0.736361
vt 0.863889 0.596096
vt 0.863889 0.653904
vt 0.863889 0.653904
vt 0.863889 0.596096
vt 0.864588 0.596065
vt 0.865016 0.596337
vt 0.864588 0.653935
vt 0.865016 0.594860
vt 0.864588 0.653935
vt 0.865016 0.655140
vt 0.865016 0.594860
vt 0.869237 0.653852
vt 0.869237 0.596148
vt 0.871442 0.596049
vt 0.871442 0.653951
vt 0.869237 0.594671
vt 0.865016 0.655140
vt 0.577137 0.036853
vt 0.577137 0.094432
vt 0.547467 0.094412
vt 0.577137 0.155568
vt 0.577137 0.213147
vt 0.625000 0.037021
vt 0.625000 0.094488
vt 0.625000 0.155512
vt 0.625000 0.212979
vt 0.875000 0.655512
vt 0.875000 0.712979
vt 0.869237 0.655329
vt 0.865016 0.653663
vt 0.367778 0.724360
vt 0.369455 0.712841
vt 0.371388 0.713101
vt 0.128558 0.655428
vt 0.130763 0.655330
vt 0.128558 0.594572
vt 0.130763 0.594671
vt 0.125000 0.712979
vt 0.125000 0.655512
vt 0.128558 0.655428
vt 0.125000 0.594488
vt 0.125000 0.537021
vt 0.422863 0.036853
vt 0.422863 0.094432
vt 0.375000 0.094488
vt 0.375000 0.037021
vt 0.452533 0.095889
vt 0.547467 0.154111
vt 0.452533 0.154111
vt 0.452533 0.036794
vt 0.452533 0.094412
vt 0.452533 0.154111
vt 0.130763 0.594671
vt 0.865016 0.654246
vt 0.865016 0.597231
vt 0.367567 0.526563
vt 0.367567 0.723437
vt 0.355553 0.510153
vt 0.362755 0.516726
vt 0.362755 0.733274
vt 0.355553 0.739847
vt 0.547467 0.776663
vt 0.547467 0.473337
vt 0.452533 0.473337
vt 0.452533 0.712816
vt 0.452533 0.536421
vt 0.547467 0.536421
vt 0.452533 0.537184
vt 0.525239 0.522713
vt 0.525239 0.500000
vt 0.474761 0.500000
vt 0.474761 0.522713
vt 0.474761 0.727287
vt 0.474761 0.775043
vt 0.474761 0.710559
vt 0.525239 0.710559
s 0
usemtl M_Noir_Bleuté
f 22/1/1 37/2/1 27/3/1 7/4/1
f 97/9/3 62/10/3 52/11/3 82/12/3
f 12/13/4 47/14/4 42/15/4 17/16/4
f 92/17/5 67/18/5 62/19/5 97/20/5
f 17/25/7 42/26/7 37/27/7 22/1/7
f 230/32/9 55/33/9 54/34/9 234/35/9
f 87/42/12 72/43/12 67/18/12 92/17/12
f 77/44/13 57/45/13 72/43/13 87/42/13
f 2/64/17 32/65/17 47/14/17 12/13/17
f 11/66/18 1/67/18 3/68/18 13/69/18
f 13/69/19 3/68/19 4/70/19 14/71/19
f 14/72/20 4/73/20 5/74/20 15/75/20
f 15/75/21 5/74/21 2/64/21 12/13/21
f 155/76/22 156/77/22 48/78/22 33/79/22
f 33/79/23 48/78/23 49/80/23 34/81/23
f 34/82/24 49/83/24 50/84/24 35/85/24
f 35/85/25 50/84/25 47/14/25 32/65/25
f 16/86/26 11/66/26 13/69/26 18/87/26
f 18/87/27 13/69/27 14/88/27 19/89/27
f 19/90/28 14/91/28 15/92/28 20/93/28
f 20/93/29 15/92/29 12/13/29 17/16/29
f 156/77/30 157/94/30 43/95/30 48/78/30
f 48/78/31 43/95/31 44/96/31 49/97/31
f 49/98/32 44/99/32 45/100/32 50/101/32
f 50/101/33 45/100/33 42/15/33 47/14/33
f 21/102/34 16/86/34 18/87/34 23/103/34
f 23/103/35 18/87/35 19/104/35 24/105/35
f 24/106/36 19/107/36 20/108/36 25/109/36
f 25/109/37 20/108/37 17/25/37 22/1/37
f 157/94/38 158/110/38 38/111/38 43/95/38
f 43/95/39 38/111/39 39/112/39 44/113/39
f 44/114/40 39/115/40 40/116/40 45/117/40
f 45/117/41 40/116/41 37/27/41 42/26/41
f 6/118/42 21/102/42 23/103/42 8/119/42
f 8/119/43 23/103/43 24/120/43 9/121/43
f 9/122/44 24/123/44 25/124/44 10/125/44
f 10/125/45 25/124/45 22/1/45 7/4/45
f 158/110/46 159/126/46 28/127/46 38/111/46
f 38/111/47 28/127/47 29/128/47 39/129/47
f 39/130/48 29/131/48 30/132/48 40/133/48
f 40/133/49 30/132/49 27/3/49 37/2/49
f 160/134/50 161/135/50 78/136/50 88/137/50
f 88/137/51 78/136/51 79/138/51 89/139/51
f 89/140/52 79/141/52 80/142/52 90/143/52
f 90/143/53 80/142/53 77/44/53 87/42/53
f 56/144/54 71/145/54 73/146/54 58/147/54
f 58/147/55 73/146/55 74/148/55 59/149/55
f 59/150/56 74/151/56 75/152/56 60/153/56
f 60/153/57 75/152/57 72/43/57 57/45/57
f 162/154/58 160/134/58 88/137/58 93/155/58
f 93/155/59 88/137/59 89/156/59 94/157/59
f 94/158/60 89/159/60 90/160/60 95/161/60
f 95/161/61 90/160/61 87/42/61 92/17/61
f 71/145/62 66/162/62 68/163/62 73/146/62
f 73/146/63 68/163/63 69/164/63 74/165/63
f 74/166/64 69/167/64 70/168/64 75/169/64
f 75/169/65 70/168/65 67/18/65 72/43/65
f 163/170/66 162/154/66 93/155/66 98/171/66
f 98/171/67 93/155/67 94/172/67 99/173/67
f 99/174/68 94/175/68 95/176/68 100/177/68
f 100/177/69 95/176/69 92/17/69 97/20/69
f 66/162/70 61/178/70 63/179/70 68/163/70
f 68/163/71 63/179/71 64/180/71 69/181/71
f 69/182/72 64/183/72 65/184/72 70/185/72
f 70/185/73 65/184/73 62/19/73 67/18/73
f 164/186/74 163/170/74 98/171/74 83/187/74
f 83/187/75 98/171/75 99/188/75 84/189/75
f 84/190/76 99/191/76 100/192/76 85/193/76
f 85/193/77 100/192/77 97/9/77 82/12/77
f 61/178/78 51/194/78 53/195/78 63/179/78
f 63/179/79 53/195/79 54/196/79 64/197/79
f 64/198/80 54/199/80 55/200/80 65/201/80
f 65/201/81 55/200/81 52/11/81 62/10/81
f 414/266/104 79/267/104 78/136/104 412/268/104
f 416/269/105 80/270/105 79/271/105 414/272/105
f 412/268/106 78/136/106 161/135/106 419/273/106
f 58/147/107 375/274/107 371/275/107 56/144/107
f 59/276/108 377/277/108 375/274/108 58/147/108
f 60/278/109 379/279/109 377/280/109 59/281/109
f 57/45/110 77/44/110 410/282/110 373/283/110
f 355/288/112 33/79/112 34/289/112 357/290/112
f 357/291/113 34/292/113 35/293/113 359/294/113
f 422/295/114 155/76/114 33/79/114 355/288/114
f 338/296/115 2/64/115 5/297/115 344/298/115
f 342/299/116 4/300/116 3/68/116 340/301/116
f 344/298/117 5/297/117 4/302/117 342/303/117
f 228/366/140 261/367/140 82/12/140 52/11/140
f 57/45/146 373/387/146 379/279/146 60/278/146
f 340/301/148 3/68/148 1/67/148 335/392/148
f 338/397/14 353/398/14 32/65/14 2/64/14
f 250/404/154 83/187/154 84/405/154 254/406/154
f 159/126/167 246/448/167 251/449/167 28/127/167
f 31/30/8 46/450/8 156/77/8 155/76/8
f 46/450/8 41/451/8 157/94/8 156/77/8
f 41/451/8 36/452/8 158/110/8 157/94/8
f 36/452/8 26/453/8 159/126/8 158/110/8
f 86/454/8 76/455/8 161/135/8 160/134/8
f 91/456/8 86/454/8 160/134/8 162/154/8
f 96/457/8 91/456/8 162/154/8 163/170/8
f 81/458/8 96/457/8 163/170/8 164/186/8
f 407/462/14 76/455/14 197/455/14 434/463/14
f 31/30/110 352/464/110 437/31/110 191/30/110
f 247/470/167 164/186/167 83/187/167 250/404/167
f 410/476/170 77/44/170 80/270/170 416/269/170
f 91/456/172 96/457/172 199/457/172 198/456/172
f 96/457/173 81/458/173 200/458/173 199/457/173
f 46/450/174 31/30/174 191/30/174 192/450/174
f 41/451/175 46/450/175 192/450/175 193/451/175
f 36/452/177 41/451/177 193/451/177 194/452/177
f 359/294/178 35/293/178 32/65/178 353/491/178
f 26/453/179 36/452/179 194/452/179 195/453/179
f 76/455/180 86/454/180 196/454/180 197/455/180
f 76/455/8 407/462/8 419/273/8 161/135/8
f 352/498/8 31/30/8 155/76/8 422/295/8
f 86/454/171 91/456/171 198/456/171 196/454/171
f 81/458/176 267/527/176 272/524/176 200/458/176
f 267/527/8 81/458/8 164/186/8 247/532/8
f 266/533/176 26/453/176 195/453/176 270/526/176
f 30/534/156 259/535/156 264/536/156 27/3/156
f 258/537/156 85/538/156 82/12/156 261/367/156
f 29/539/155 255/540/155 259/535/155 30/534/155
f 254/541/155 84/542/155 85/538/155 258/537/155
f 28/127/154 251/449/154 255/543/154 29/544/154
f 26/453/8 266/533/8 246/545/8 159/126/8
f 8/119/142 239/550/142 244/551/142 6/118/142
f 238/552/142 53/195/142 51/194/142 242/553/142
f 9/554/141 235/555/141 239/556/141 8/119/141
f 234/557/141 54/558/141 53/195/141 238/552/141
f 10/559/9 231/560/9 235/561/9 9/562/9
f 7/566/182 225/567/182 231/560/182 10/559/182
f 228/366/182 52/11/182 55/33/182 230/32/182
f 242/569/156 244/551/156 283/551/156 282/569/156
f 235/561/184 231/560/184 317/560/184 313/561/184
f 267/527/185 247/532/185 291/532/185 285/527/185
f 259/535/187 255/540/187 301/540/187 293/535/187
f 261/367/14 228/366/14 324/366/14 299/367/14
f 246/545/190 266/533/190 288/533/190 290/545/190
f 225/567/110 264/536/110 296/536/110 321/567/110
f 247/470/192 250/404/192 308/404/192 291/470/192
f 251/449/195 246/448/195 290/448/195 305/449/195
f 234/557/197 238/552/197 312/552/197 316/557/197
f 7/566/140 27/3/140 264/536/140 225/567/140
f 254/541/224 258/537/224 298/537/224 304/541/224
f 244/551/226 239/550/226 309/550/226 283/551/226
f 230/32/228 234/35/228 316/35/228 320/32/228
f 238/552/231 242/553/231 282/553/231 312/552/231
f 255/543/234 251/449/234 305/449/234 301/543/234
f 264/536/236 259/535/236 293/535/236 296/536/236
f 272/524/14 267/527/14 285/527/14 279/524/14
f 231/560/237 225/567/237 321/567/237 317/560/237
f 250/404/239 254/406/239 304/406/239 308/404/239
f 258/537/241 261/367/241 299/367/241 298/537/241
f 239/556/242 235/555/242 313/555/242 309/556/242
f 266/533/110 270/526/110 277/526/110 288/533/110
f 228/366/244 230/32/244 320/32/244 324/366/244
f 357/291/248 359/294/248 497/294/248 495/291/248
f 381/358/252 395/572/252 459/572/252 457/358/252
f 441/423/253 443/424/253 563/424/253 561/423/253
f 355/288/257 357/290/257 495/290/257 493/288/257
f 439/512/261 441/423/261 561/423/261 559/512/261
f 422/295/264 355/288/264 493/288/264 492/295/264
f 435/316/267 439/465/267 559/465/267 555/316/267
f 379/279/273 373/387/273 489/387/273 487/279/273
f 345/573/274 325/357/274 527/357/274 515/573/274
f 438/317/275 435/316/275 555/316/275 558/317/275
f 377/280/282 379/279/282 487/279/282 485/280/282
f 431/209/286 433/211/286 553/211/286 551/209/286
f 375/274/290 377/277/290 485/277/290 483/274/290
f 429/461/294 431/209/294 551/209/294 549/461/294
f 371/275/297 375/274/297 483/274/297 481/275/297
f 425/236/300 429/461/300 549/461/300 545/236/300
f 391/574/302 371/275/302 481/275/302 469/574/302
f 51/194/10 61/178/10 66/162/10 71/145/10 56/144/10 371/275/10 391/574/10 393/575/10 395/572/10 381/358/10 325/357/10 345/573/10 347/576/10 349/577/10 335/392/10 1/67/10 11/66/10 16/86/10 21/102/10 6/118/10 244/551/10 242/569/10
f 359/294/370 353/491/370 499/491/370 497/294/370
f 437/31/374 352/464/374 542/464/374 557/31/374
f 407/462/377 434/463/377 554/463/377 539/462/377
f 353/398/348 338/397/348 512/397/348 499/398/348
f 340/301/382 335/392/382 503/392/382 502/301/382
f 373/283/347 410/282/347 480/282/347 489/283/347
f 335/392/388 349/577/388 505/577/388 503/392/388
f 395/572/389 393/575/389 467/575/389 459/572/389
f 393/575/394 391/574/394 469/574/394 467/575/394
f 342/299/396 340/301/396 502/301/396 508/299/396
f 419/273/400 407/462/400 539/462/400 473/273/400
f 344/298/401 342/303/401 508/303/401 510/298/401
f 412/268/402 419/273/402 473/273/402 472/268/402
f 352/498/406 422/295/406 492/295/406 542/498/406
f 338/296/407 344/298/407 510/298/407 512/296/407
f 414/266/410 412/268/410 472/268/410 476/266/410
f 349/577/412 347/576/412 513/576/412 505/577/412
f 416/269/416 414/272/416 476/272/416 478/269/416
f 347/576/417 345/573/417 515/573/417 513/576/417
f 410/476/421 416/269/421 478/269/421 480/476/421
f 428/237/422 425/236/422 545/236/422 548/237/422
usemtl M_Noir_Profond
f 187/28/8 171/29/8 191/30/8 437/31/8
f 181/441/8 182/442/8 427/443/8 426/444/8
f 186/477/171 188/478/171 218/478/171 216/477/171
f 190/479/8 189/480/8 442/481/8 444/469/8
f 182/442/8 190/479/8 444/490/8 427/443/8
f 185/492/8 184/493/8 432/494/8 434/463/8
f 171/29/8 172/499/8 192/450/8 191/30/8
f 172/499/8 173/500/8 193/451/8 192/450/8
f 173/500/8 174/501/8 194/452/8 193/451/8
f 174/501/8 175/502/8 195/453/8 194/452/8
f 176/503/8 177/504/8 197/455/8 196/454/8
f 178/505/8 176/503/8 196/454/8 198/456/8
f 179/506/8 178/505/8 198/456/8 199/457/8
f 180/507/8 179/506/8 199/457/8 200/458/8
f 183/508/8 181/441/8 426/444/8 430/509/8
f 177/504/8 185/492/8 434/463/8 197/455/8
f 188/478/8 186/477/8 436/510/8 440/511/8
f 189/480/8 188/478/8 440/513/8 442/514/8
f 184/493/8 183/508/8 430/515/8 432/494/8
f 186/477/8 187/28/8 437/516/8 436/510/8
f 178/505/5 179/506/5 209/506/5 208/505/5
f 188/478/172 189/480/172 219/480/172 218/478/172
f 179/506/3 180/507/3 210/507/3 209/506/3
f 172/499/17 171/29/17 201/29/17 202/499/17
f 189/480/173 190/479/173 220/479/173 219/480/173
f 182/442/179 181/441/179 211/441/179 212/442/179
f 173/500/4 172/499/4 202/499/4 203/500/4
f 221/519/140 175/502/140 205/502/140 223/518/140
f 181/441/177 183/508/177 213/508/177 211/441/177
f 174/501/7 173/500/7 203/500/7 204/501/7
f 171/29/14 187/28/14 217/28/14 201/29/14
f 183/508/175 184/493/175 214/493/175 213/508/175
f 175/502/1 174/501/1 204/501/1 205/502/1
f 190/479/176 182/442/176 212/442/176 220/479/176
f 184/493/174 185/492/174 215/492/174 214/493/174
f 177/504/13 176/503/13 206/503/13 207/504/13
f 185/492/110 177/504/110 207/504/110 215/492/110
f 187/28/180 186/477/180 216/477/180 217/28/180
f 176/503/12 178/505/12 208/505/12 206/503/12
f 180/507/140 222/520/140 224/517/140 210/507/140
f 222/520/140 221/519/140 223/518/140 224/517/140
f 221/519/8 222/520/8 274/521/8 273/522/8 269/488/8 271/523/8
f 222/520/8 180/507/8 200/458/8 272/524/8 274/521/8
f 175/502/8 221/519/8 271/525/8 270/526/8 195/453/8
f 273/522/188 274/521/188 278/521/188 280/522/188
f 274/521/194 272/524/194 279/524/194 278/521/194
f 270/526/199 271/525/199 275/525/199 277/526/199
f 276/488/202 277/570/202 275/525/202
f 279/524/203 280/571/203 278/521/203
f 282/569/142 283/551/142 284/379/142 281/378/142
f 286/486/204 280/489/204 279/524/204 285/527/204
f 288/533/205 277/526/205 276/488/205 287/487/205
f 287/546/206 289/528/206 290/545/206 288/533/206
f 285/527/207 291/532/207 292/529/207 286/489/207
f 294/414/208 295/416/208 296/536/208 293/535/208
f 298/537/209 299/367/209 300/415/209 297/413/209
f 302/411/210 294/414/210 293/535/210 301/540/210
f 304/541/211 298/537/211 297/413/211 303/412/211
f 306/407/212 302/410/212 301/543/212 305/449/212
f 308/404/213 304/406/213 303/409/213 307/408/213
f 289/528/214 306/531/214 305/449/214 290/448/214
f 291/470/215 308/404/215 307/530/215 292/529/215
f 310/376/216 284/379/216 283/551/216 309/550/216
f 312/552/217 282/553/217 281/378/217 311/377/217
f 314/372/218 310/375/218 309/556/218 313/555/218
f 316/557/219 312/552/219 311/374/219 315/373/219
f 318/368/220 314/371/220 313/561/220 317/560/220
f 320/32/221 316/35/221 315/370/221 319/369/221
f 322/563/222 318/368/222 317/560/222 321/567/222
f 324/366/223 320/32/223 319/369/223 323/568/223
f 295/416/140 322/563/140 321/567/140 296/536/140
f 299/367/140 324/366/140 323/565/140 300/564/140
f 271/523/240 269/488/240 276/488/240 275/523/240
f 444/469/256 442/481/256 562/481/256 564/469/256
f 442/514/263 440/513/263 560/513/263 562/514/263
f 440/511/271 436/510/271 556/510/271 560/511/271
f 436/510/281 437/516/281 557/516/281 556/510/281
f 434/463/289 432/494/289 552/494/289 554/463/289
f 432/494/296 430/515/296 550/515/296 552/494/296
f 430/509/301 426/444/301 546/444/301 550/509/301
f 446/353/305 447/349/305 448/203/305 445/213/305
f 447/349/306 449/348/306 450/204/306 448/203/306
f 449/348/307 451/352/307 452/207/307 450/206/307
f 451/475/308 453/474/308 454/460/308 452/459/308
f 456/355/309 457/358/309 458/383/309 455/384/309
f 457/358/310 459/572/310 460/254/310 458/383/310
f 462/359/311 456/355/311 455/50/311 461/53/311
f 464/361/312 462/363/312 461/218/312 463/219/312
f 466/395/313 464/361/313 463/214/313 465/217/313
f 459/572/314 467/575/314 468/255/314 460/254/314
f 467/575/315 469/574/315 470/221/315 468/220/315
f 472/268/316 473/273/316 474/447/316 471/263/316
f 476/266/317 472/268/317 471/263/317 475/265/317
f 478/269/318 476/272/318 475/445/318 477/438/318
f 480/476/319 478/269/319 477/438/319 479/440/319
f 469/574/320 481/275/320 482/432/320 470/431/320
f 481/275/321 483/274/321 484/433/321 482/432/321
f 483/274/322 485/277/322 486/58/322 484/57/322
f 485/280/323 487/279/323 488/381/323 486/386/323
f 487/279/324 489/387/324 490/382/324 488/381/324
f 492/295/325 493/288/325 494/418/325 491/417/325
f 493/288/326 495/290/326 496/286/326 494/285/326
f 495/291/327 497/294/327 498/421/327 496/420/327
f 497/294/328 499/491/328 500/426/328 498/425/328
f 502/301/329 503/392/329 504/403/329 501/5/329
f 503/392/330 505/577/330 506/335/330 504/403/330
f 508/299/331 502/301/331 501/5/331 507/8/331
f 510/298/332 508/303/332 507/401/332 509/21/332
f 512/296/333 510/298/333 509/21/333 511/24/333
f 505/577/334 513/576/334 514/336/334 506/335/334
f 513/576/335 515/573/335 516/400/335 514/399/335
f 518/350/336 519/354/336 520/436/336 517/437/336
f 522/347/337 518/350/337 517/344/337 521/346/337
f 524/351/338 522/347/338 521/434/338 523/435/338
f 526/473/339 524/351/339 523/427/339 525/430/339
f 515/573/340 527/357/340 528/548/340 516/547/340
f 527/357/341 529/356/341 530/549/341 528/548/341
f 529/356/342 531/360/342 532/40/342 530/39/342
f 531/360/343 533/362/343 534/394/343 532/393/343
f 533/362/344 535/396/344 536/390/344 534/389/344
f 511/24/345 500/578/345 499/398/345 512/397/345
f 479/579/346 490/580/346 489/283/346 480/282/346
f 535/581/347 526/473/347 525/430/347 536/390/347
f 465/582/348 454/583/348 453/474/348 466/584/348
f 538/467/349 446/496/349 445/485/349 537/484/349
f 473/273/350 539/462/350 540/211/350 474/497/350
f 542/498/351 492/295/351 491/472/351 541/471/351
f 519/495/352 543/466/352 544/482/352 520/483/352
f 546/444/353 547/443/353 548/237/353 545/236/353
f 550/509/354 546/444/354 545/236/354 549/461/354
f 552/494/355 550/515/355 549/461/355 551/209/355
f 554/463/356 552/494/356 551/209/356 553/211/356
f 556/510/357 557/516/357 558/317/357 555/316/357
f 560/511/358 556/510/358 555/316/358 559/465/358
f 562/514/359 560/513/359 559/512/359 561/423/359
f 564/469/360 562/481/360 561/423/360 563/424/360
f 543/466/361 564/469/361 563/424/361 544/424/361
f 547/468/362 538/467/362 537/235/362 548/237/362
f 541/315/363 558/317/363 557/31/363 542/464/363
f 539/462/364 554/463/364 553/211/364 540/210/364
f 426/444/419 427/443/419 547/443/419 546/444/419
usemtl M_Cyan
f 212/442/8 211/441/8 213/508/8 214/493/8 215/492/8 207/504/8 206/503/8 208/505/8 209/506/8 210/507/8 224/517/8 223/518/8 205/502/8 204/501/8 203/500/8 202/499/8 201/29/8 217/28/8 216/477/8 218/478/8 219/480/8 220/479/8
usemtl M_Orange
f 232/368/9 229/369/9 233/370/9 236/371/9
f 236/372/141 233/373/141 237/374/141 240/375/141
f 240/376/142 237/377/142 241/378/142 243/379/142
f 252/407/154 249/408/154 253/409/154 256/410/154
f 256/411/155 253/412/155 257/413/155 260/414/155
f 260/414/156 257/413/156 262/415/156 263/416/156
f 268/486/176 265/487/176 269/488/176 273/489/176
f 245/528/167 248/529/167 249/530/167 252/531/167
f 265/546/8 268/489/8 248/529/8 245/528/8
f 226/563/140 263/416/140 262/564/140 227/565/140
f 226/563/182 227/568/182 229/369/182 232/368/182
f 240/376/183 243/379/183 284/379/183 310/376/183
f 227/565/110 262/564/110 300/564/110 323/565/110
f 232/368/186 236/371/186 314/371/186 318/368/186
f 249/530/189 248/529/189 292/529/189 307/530/189
f 256/411/191 260/414/191 294/414/191 302/411/191
f 237/374/193 233/373/193 315/373/193 311/374/193
f 263/416/14 226/563/14 322/563/14 295/416/14
f 265/546/196 245/528/196 289/528/196 287/546/196
f 262/415/198 257/413/198 297/413/198 300/415/198
f 229/369/200 227/568/200 323/568/200 319/369/200
f 245/528/201 252/531/201 306/531/201 289/528/201
f 269/488/14 265/487/14 287/487/14 276/488/14
f 248/529/225 268/489/225 286/489/225 292/529/225
f 257/413/227 253/412/227 303/412/227 297/413/227
f 243/379/150 241/378/150 281/378/150 284/379/150
f 233/370/229 229/369/229 319/369/229 315/370/229
f 260/414/230 263/416/230 295/416/230 294/414/230
f 252/407/232 256/410/232 302/410/232 306/407/232
f 241/378/233 237/377/233 311/377/233 281/378/233
f 268/486/110 273/489/110 280/489/110 286/486/110
f 226/563/235 232/368/235 318/368/235 322/563/235
f 236/372/238 240/375/238 310/375/238 314/372/238
f 253/409/243 249/408/243 307/408/243 303/409/243
f 595/37/423 596/54/423 604/55/423 603/36/423
f 599/586/175 600/587/175 596/54/175 595/37/175
f 598/585/177 597/588/177 600/587/177 599/586/177
f 593/47/172 594/61/172 590/589/172 589/46/172
f 592/223/171 591/60/171 594/61/171 593/47/171
f 589/46/424 590/589/424 608/364/424 607/365/424
f 610/62/425 609/63/425 597/588/425 598/585/425
f 602/224/426 601/590/426 591/60/426 592/223/426
f 612/48/176 611/49/176 606/592/176 605/591/176
usemtl M_Gris_Metal
f 339/5/2 110/6/2 111/7/2 341/8/2
f 343/21/6 112/22/6 574/23/6 577/24/6
f 409/36/10 151/37/10 595/37/10 603/36/10
f 102/38/11 330/39/11 332/40/11 103/41/11
f 124/46/10 119/47/10 593/47/10 589/46/10
f 384/48/14 399/49/14 611/49/14 612/48/14
f 385/50/15 137/51/15 138/52/15 387/53/15
f 128/54/8 374/55/8 604/55/8 596/54/8
f 129/56/16 376/57/16 378/58/16 130/59/16
f 109/60/8 105/61/8 594/61/8 591/60/8
f 400/62/13 383/63/13 609/63/13 610/62/13
f 142/202/82 402/203/82 404/204/82 143/205/82
f 143/205/83 404/206/83 406/207/83 144/208/83
f 150/209/17 408/210/17 433/211/17 431/209/17
f 165/212/84 417/213/84 402/203/84 142/202/84
f 389/214/85 139/215/85 568/216/85 585/217/85
f 387/218/86 138/52/86 139/215/86 389/219/86
f 394/220/87 392/221/87 129/56/87 133/222/87
f 114/223/10 354/224/10 602/224/10 592/223/10
f 166/225/88 165/212/88 142/202/88 147/226/88
f 147/226/89 142/202/89 143/227/89 148/228/89
f 148/229/90 143/230/90 144/231/90 149/232/90
f 149/232/91 144/231/91 565/233/91 566/234/91
f 397/235/1 140/236/1 425/236/1 428/237/1
f 137/51/92 133/222/92 134/238/92 138/239/92
f 138/240/93 134/241/93 135/242/93 139/243/93
f 139/243/94 135/242/94 567/244/94 568/216/94
f 167/245/95 166/225/95 147/226/95 152/246/95
f 152/246/96 147/226/96 148/247/96 153/248/96
f 153/249/97 148/250/97 149/251/97 154/252/97
f 154/252/98 149/251/98 566/234/98 569/253/98
f 396/254/99 394/255/99 133/222/99 137/51/99
f 133/222/100 129/56/100 130/256/100 134/257/100
f 134/258/101 130/259/101 131/260/101 135/261/101
f 135/261/102 131/260/102 570/262/102 567/244/102
f 411/263/103 152/246/103 153/264/103 413/265/103
f 115/284/111 356/285/111 358/286/111 116/287/111
f 119/47/10 114/223/10 592/223/10 593/47/10
f 169/304/118 168/305/118 115/284/118 120/306/118
f 120/306/119 115/284/119 116/307/119 121/308/119
f 121/309/120 116/310/120 117/311/120 122/312/120
f 122/312/121 117/311/121 571/313/121 572/314/121
f 351/315/13 113/316/13 435/316/13 438/317/13
f 110/6/122 106/318/122 107/319/122 111/320/122
f 111/321/123 107/322/123 108/323/123 112/324/123
f 112/324/124 108/323/124 573/325/124 574/23/124
f 170/326/125 169/304/125 120/306/125 125/327/125
f 125/327/126 120/306/126 121/328/126 126/329/126
f 126/330/127 121/331/127 122/332/127 127/333/127
f 127/333/128 122/332/128 572/314/128 575/334/128
f 350/335/129 348/336/129 106/318/129 110/6/129
f 106/318/130 102/38/130 103/337/130 107/338/130
f 107/339/131 103/340/131 104/341/131 108/342/131
f 108/342/132 104/341/132 576/343/132 573/325/132
f 365/344/133 125/327/133 126/345/133 367/346/133
f 368/347/134 403/348/134 401/349/134 366/350/134
f 370/351/135 405/352/135 403/348/135 368/347/135
f 366/350/136 401/349/136 418/353/136 423/354/136
f 386/355/137 329/356/137 325/357/137 381/358/137
f 388/359/138 331/360/138 329/356/138 386/355/138
f 390/361/139 333/362/139 331/360/139 388/363/139
f 328/364/17 363/365/17 607/365/17 608/364/17
f 131/380/143 380/381/143 580/382/143 570/262/143
f 382/383/144 396/254/144 137/51/144 385/384/144
f 130/385/145 378/386/145 380/381/145 131/380/145
f 104/388/147 334/389/147 584/390/147 576/391/147
f 103/41/149 332/393/149 334/394/149 104/388/149
f 588/395/150 581/396/150 333/362/150 390/361/150
f 348/399/151 346/400/151 102/38/151 106/318/151
f 341/401/152 111/402/152 112/22/152 343/21/152
f 336/403/153 350/335/153 110/6/153 339/5/153
f 168/305/157 421/417/157 356/418/157 115/284/157
f 116/419/158 358/420/158 360/421/158 117/422/158
f 123/423/3 362/424/3 443/424/3 441/423/3
f 117/422/159 360/425/159 578/426/159 571/313/159
f 369/427/160 127/428/160 575/429/160 583/430/160
f 392/431/161 372/432/161 376/433/161 129/56/161
f 367/434/162 126/345/162 127/428/162 369/435/162
f 424/436/163 170/326/163 125/327/163 365/437/163
f 415/438/164 154/439/164 569/253/164 579/440/164
f 413/445/165 153/446/165 154/439/165 415/438/165
f 420/447/166 167/245/166 152/246/166 411/263/166
f 144/208/168 406/459/168 586/460/168 565/233/168
f 145/461/8 140/236/8 165/212/8 166/225/8
f 150/209/8 145/461/8 166/225/8 167/245/8
f 118/465/8 113/316/8 168/305/8 169/304/8
f 123/423/8 118/465/8 169/304/8 170/326/8
f 361/466/140 398/467/140 427/468/140 444/469/140
f 113/316/8 351/471/8 421/472/8 168/305/8
f 582/473/169 587/474/169 405/475/169 370/351/169
f 362/482/8 123/423/8 170/326/8 424/483/8
f 140/236/8 397/484/8 417/485/8 165/212/8
f 398/467/8 361/466/8 423/495/8 418/496/8
f 408/211/8 150/209/8 167/245/8 420/497/8
f 140/236/7 145/461/7 429/461/7 425/236/7
f 145/461/4 150/209/4 431/209/4 429/461/4
f 113/316/12 118/465/12 439/465/12 435/316/12
f 118/465/5 123/423/5 441/423/5 439/512/5
f 346/547/181 326/548/181 330/549/181 102/38/181
f 334/394/245 332/393/245 532/393/245 534/394/245
f 396/254/246 382/383/246 458/383/246 460/254/246
f 443/424/247 362/424/247 544/424/247 563/424/247
f 361/466/249 444/469/249 564/469/249 543/466/249
f 358/286/250 356/285/250 494/285/250 496/286/250
f 331/360/251 333/362/251 533/362/251 531/360/251
f 332/40/254 330/39/254 530/39/254 532/40/254
f 382/383/255 385/384/255 455/384/255 458/383/255
f 356/418/258 421/417/258 491/417/258 494/418/258
f 329/356/259 331/360/259 531/360/259 529/356/259
f 386/355/260 381/358/260 457/358/260 456/355/260
f 330/549/262 326/548/262 528/548/262 530/549/262
f 586/460/265 406/459/265 452/459/265 454/460/265
f 325/357/266 329/356/266 529/356/266 527/357/266
f 580/382/268 380/381/268 488/381/268 490/382/268
f 326/548/269 346/547/269 516/547/269 528/548/269
f 405/475/270 587/474/270 453/474/270 451/475/270
f 406/207/272 404/206/272 450/206/272 452/207/272
f 380/381/276 378/386/276 486/386/276 488/381/276
f 369/427/277 583/430/277 525/430/277 523/427/277
f 403/348/278 405/352/278 451/352/278 449/348/278
f 582/473/279 370/351/279 524/351/279 526/473/279
f 404/204/280 402/203/280 448/203/280 450/204/280
f 378/58/283 376/57/283 484/57/283 486/58/283
f 367/434/284 369/435/284 523/435/284 521/434/284
f 401/349/285 403/348/285 449/348/285 447/349/285
f 370/351/287 368/347/287 522/347/287 524/351/287
f 402/203/288 417/213/288 445/213/288 448/203/288
f 376/433/291 372/432/291 482/432/291 484/433/291
f 365/344/292 367/346/292 521/346/292 517/344/292
f 418/353/293 401/349/293 447/349/293 446/353/293
f 368/347/295 366/350/295 518/350/295 522/347/295
f 372/432/298 392/431/298 470/431/298 482/432/298
f 424/436/299 365/437/299 517/437/299 520/436/299
f 366/350/303 423/354/303 519/354/303 518/350/303
f 415/438/304 579/440/304 479/440/304 477/438/304
f 427/468/365 398/467/365 538/467/365 547/468/365
f 333/362/366 581/396/366 535/396/366 533/362/366
f 360/421/367 358/420/367 496/420/367 498/421/367
f 397/235/368 428/237/368 548/237/368 537/235/368
f 388/359/369 386/355/369 456/355/369 462/359/369
f 351/315/371 438/317/371 558/317/371 541/315/371
f 385/50/372 387/53/372 461/53/372 455/50/372
f 584/390/373 334/389/373 534/389/373 536/390/373
f 577/24/375 578/578/375 500/578/375 511/24/375
f 578/426/376 360/425/376 498/425/376 500/426/376
f 390/361/378 388/363/378 462/363/378 464/361/378
f 433/211/379 408/210/379 540/210/379 553/211/379
f 387/218/380 389/219/380 463/219/380 461/218/380
f 579/579/381 580/580/381 490/580/381 479/579/381
f 588/395/383 390/361/383 464/361/383 466/395/383
f 581/581/384 582/473/384 526/473/384 535/581/384
f 336/403/385 339/5/385 501/5/385 504/403/385
f 389/214/386 585/217/386 465/217/386 463/214/386
f 583/430/387 584/390/387 536/390/387 525/430/387
f 585/582/390 586/583/390 454/583/390 465/582/390
f 587/474/391 588/584/391 466/584/391 453/474/391
f 350/335/392 336/403/392 504/403/392 506/335/392
f 394/255/393 396/254/393 460/254/393 468/255/393
f 398/467/395 418/496/395 446/496/395 538/467/395
f 417/485/397 397/484/397 537/484/397 445/485/397
f 339/5/398 341/8/398 507/8/398 501/5/398
f 392/221/399 394/220/399 468/220/399 470/221/399
f 408/211/403 420/497/403 474/497/403 540/211/403
f 341/401/404 343/21/404 509/21/404 507/401/404
f 420/447/405 411/263/405 471/263/405 474/447/405
f 421/472/408 351/471/408 541/471/408 491/472/408
f 343/21/409 577/24/409 511/24/409 509/21/409
f 423/495/411 361/466/411 543/466/411 519/495/411
f 411/263/413 413/265/413 475/265/413 471/263/413
f 362/482/414 424/483/414 520/483/414 544/482/414
f 348/336/415 350/335/415 506/335/415 514/336/415
f 413/445/418 415/438/418 477/438/418 475/445/418
f 346/400/420 348/399/420 514/399/420 516/400/420
f 141/585/177 146/586/177 566/234/177 565/233/177
f 132/587/177 136/588/177 568/216/177 567/244/177
f 146/586/175 151/37/175 569/253/175 566/234/175
f 128/54/175 132/587/175 567/244/175 570/262/175
f 114/223/171 119/47/171 572/314/171 571/313/171
f 105/61/171 109/60/171 574/23/171 573/325/171
f 119/47/172 124/46/172 575/334/172 572/314/172
f 101/589/172 105/61/172 573/325/172 576/343/172
f 337/590/180 354/224/180 578/578/180 577/24/180
f 409/36/174 374/55/174 580/580/174 579/579/174
f 327/591/176 364/592/176 582/473/176 581/581/176
f 363/365/173 328/364/173 584/390/173 583/430/173
f 383/63/179 400/62/179 586/583/179 585/582/179
f 399/49/176 384/48/176 588/584/176 587/474/176
f 384/48/176 327/591/176 581/581/176 588/584/176
f 328/364/173 101/589/173 576/391/173 584/390/173
f 364/592/176 399/49/176 587/474/176 582/473/176
f 124/46/173 363/365/173 583/430/173 575/429/173
f 109/60/180 337/590/180 577/24/180 574/23/180
f 354/224/180 114/223/180 571/313/180 578/578/180
f 374/55/174 128/54/174 570/262/174 580/580/174
f 151/37/174 409/36/174 579/579/174 569/253/174
f 136/588/179 383/63/179 585/582/179 568/216/179
f 400/62/179 141/585/179 565/233/179 586/583/179
f 327/591/8 384/48/8 612/48/8 605/591/8
f 105/61/8 101/589/8 590/589/8 594/61/8
f 383/63/8 136/588/8 597/588/8 609/63/8
f 146/586/10 141/585/10 598/585/10 599/586/10
f 101/589/8 328/364/8 608/364/8 590/589/8
f 354/224/179 337/590/179 601/590/179 602/224/179
f 141/585/10 400/62/10 610/62/10 598/585/10
f 136/588/8 132/587/8 600/587/8 597/588/8
f 399/49/10 364/592/10 606/592/10 611/49/10
f 374/55/173 409/36/173 603/36/173 604/55/173
f 151/37/10 146/586/10 599/586/10 595/37/10
f 363/365/10 124/46/10 589/46/10 607/365/10
f 364/592/110 327/591/110 605/591/110 606/592/110
f 132/587/8 128/54/8 596/54/8 600/587/8
f 337/590/8 109/60/8 591/60/8 601/590/8
