# Blender 4.2.3 LTS
# www.blender.org
mtllib SM_Floor_Marker_Circular.mtl
o SM_Floor_Marker_Circular
v 0.000000 0.000000 -0.069287
v 0.013517 0.000000 -0.067956
v 0.026515 0.000000 -0.064013
v 0.038494 0.000000 -0.057610
v 0.048993 0.000000 -0.048993
v 0.057610 0.000000 -0.038494
v 0.064013 0.000000 -0.026515
v 0.067956 0.000000 -0.013517
v 0.069287 0.000000 0.000000
v 0.067956 0.000000 0.013517
v 0.064013 0.000000 0.026515
v 0.057610 0.000000 0.038494
v 0.048993 0.000000 0.048993
v 0.038494 0.000000 0.057610
v 0.026515 0.000000 0.064013
v 0.013517 0.000000 0.067956
v 0.000000 0.000000 0.069287
v -0.013517 0.000000 0.067956
v -0.026515 0.000000 0.064013
v -0.038494 0.000000 0.057610
v -0.048993 0.000000 0.048993
v -0.057610 0.000000 0.038494
v -0.064013 0.000000 0.026515
v -0.067956 0.000000 0.013517
v -0.069287 0.000000 0.000000
v -0.067956 0.000000 -0.013517
v -0.064013 0.000000 -0.026515
v -0.057610 0.000000 -0.038494
v -0.048993 0.000000 -0.048993
v -0.038494 0.000000 -0.057610
v -0.026515 0.000000 -0.064013
v -0.013517 0.000000 -0.067956
v -0.012690 0.002191 -0.063799
v -0.024893 0.002191 -0.060097
v -0.036139 0.002191 -0.054086
v -0.045996 0.002191 -0.045996
v -0.054086 0.002191 -0.036139
v -0.060097 0.002191 -0.024893
v -0.060097 0.002191 0.024893
v -0.024893 0.002191 0.060097
v 0.000000 0.002191 0.065049
v 0.024893 0.002191 0.060097
v 0.036139 0.002191 0.054086
v 0.045996 0.002191 0.045996
v 0.060097 0.002191 0.024893
v 0.063799 0.002191 0.012690
v 0.060097 0.002191 -0.024893
v 0.054086 0.002191 -0.036139
v 0.045996 0.002191 -0.045996
v 0.024893 0.002191 -0.060097
v 0.000000 0.002191 -0.065049
v 0.012690 0.002191 -0.063799
v 0.000000 0.002191 -0.058924
v 0.000000 0.002191 -0.064423
v 0.065049 0.002191 0.000000
v 0.058924 0.002191 0.000000
v 0.041665 0.002191 0.041665
v -0.045554 0.002191 0.045554
v -0.041665 0.002191 0.041665
v -0.064423 0.002191 0.000000
v -0.058924 0.002191 0.000000
v 0.013225 0.003282 -0.066487
v 0.013517 0.001792 -0.067956
v 0.000000 0.001792 -0.069287
v 0.000000 0.003282 -0.067789
v 0.025942 0.003282 -0.062629
v 0.026515 0.001792 -0.064013
v 0.037662 0.003282 -0.056365
v 0.038494 0.001792 -0.057610
v 0.047934 0.003282 -0.047934
v 0.048993 0.001792 -0.048993
v 0.056365 0.003282 -0.037662
v 0.057610 0.001792 -0.038494
v 0.062629 0.003282 -0.025942
v 0.064013 0.001792 -0.026515
v 0.066487 0.003282 -0.013225
v 0.067956 0.001792 -0.013517
v 0.067789 0.003282 0.000000
v 0.069287 0.001792 0.000000
v 0.066487 0.003282 0.013225
v 0.067956 0.001792 0.013517
v 0.062629 0.003282 0.025942
v 0.064013 0.001792 0.026515
v 0.056365 0.003282 0.037662
v 0.057610 0.001792 0.038494
v 0.047934 0.003282 0.047934
v 0.048993 0.001792 0.048993
v 0.037662 0.003282 0.056365
v 0.038494 0.001792 0.057610
v 0.025942 0.003282 0.062629
v 0.026515 0.001792 0.064013
v 0.013225 0.003282 0.066487
v 0.013517 0.001792 0.067956
v 0.000000 0.003282 0.067789
v 0.000000 0.001792 0.069287
v -0.013225 0.003282 0.066487
v -0.013517 0.001792 0.067956
v -0.025942 0.003282 0.062629
v -0.026515 0.001792 0.064013
v -0.037662 0.003282 0.056365
v -0.038494 0.001792 0.057610
v -0.047934 0.003282 0.047934
v -0.048993 0.001792 0.048993
v -0.056365 0.003282 0.037662
v -0.057610 0.001792 0.038494
v -0.062629 0.003282 0.025942
v -0.064013 0.001792 0.026515
v -0.066487 0.003282 0.013225
v -0.067956 0.001792 0.013517
v -0.067789 0.003282 0.000000
v -0.069287 0.001792 0.000000
v -0.066487 0.003282 -0.013225
v -0.067956 0.001792 -0.013517
v -0.062629 0.003282 -0.025942
v -0.064013 0.001792 -0.026515
v -0.056365 0.003282 -0.037662
v -0.057610 0.001792 -0.038494
v -0.047934 0.003282 -0.047934
v -0.048993 0.001792 -0.048993
v -0.037662 0.003282 -0.056365
v -0.038494 0.001792 -0.057610
v -0.025942 0.003282 -0.062629
v -0.026515 0.001792 -0.064013
v -0.013225 0.003282 -0.066487
v -0.013517 0.001792 -0.067956
v 0.011244 0.002191 -0.056530
v 0.000000 0.002191 -0.057637
v 0.022057 0.002191 -0.053250
v 0.032022 0.002191 -0.047924
v 0.040756 0.002191 -0.040756
v 0.047924 0.002191 -0.032022
v 0.053250 0.002191 -0.022057
v 0.056530 0.002191 -0.011244
v 0.057637 0.002191 0.000000
v 0.056530 0.002191 0.011244
v 0.053250 0.002191 0.022057
v 0.047924 0.002191 0.032022
v 0.040756 0.002191 0.040756
v 0.032022 0.002191 0.047924
v 0.022057 0.002191 0.053250
v 0.011244 0.002191 0.056530
v 0.000000 0.002191 0.057637
v -0.011244 0.002191 0.056530
v -0.022057 0.002191 0.053250
v -0.032022 0.002191 0.047924
v -0.040756 0.002191 0.040756
v -0.047924 0.002191 0.032022
v -0.053250 0.002191 0.022057
v -0.056530 0.002191 0.011244
v -0.057637 0.002191 0.000000
v -0.056530 0.002191 -0.011244
v -0.053250 0.002191 -0.022057
v -0.047924 0.002191 -0.032022
v -0.040756 0.002191 -0.040756
v -0.032022 0.002191 -0.047924
v -0.022057 0.002191 -0.053250
v -0.011244 0.002191 -0.056530
v 0.010995 0.002191 -0.055275
v -0.000000 0.002191 -0.056358
v 0.021567 0.002191 -0.052068
v 0.031311 0.002191 -0.046860
v 0.039851 0.002191 -0.039851
v 0.046860 0.002191 -0.031311
v 0.052068 0.002191 -0.021567
v 0.055275 0.002191 -0.010995
v 0.056358 0.002191 0.000000
v 0.055275 0.002191 0.010995
v 0.052068 0.002191 0.021567
v 0.046860 0.002191 0.031311
v 0.039851 0.002191 0.039851
v 0.031311 0.002191 0.046860
v 0.021567 0.002191 0.052068
v 0.010995 0.002191 0.055275
v 0.000000 0.002191 0.056358
v -0.010995 0.002191 0.055275
v -0.021567 0.002191 0.052068
v -0.031311 0.002191 0.046860
v -0.039851 0.002191 0.039851
v -0.046860 0.002191 0.031311
v -0.052068 0.002191 0.021567
v -0.055275 0.002191 0.010995
v -0.056358 0.002191 0.000000
v -0.055275 0.002191 -0.010995
v -0.052068 0.002191 -0.021567
v -0.046860 0.002191 -0.031311
v -0.039851 0.002191 -0.039851
v -0.031311 0.002191 -0.046860
v -0.021567 0.002191 -0.052068
v -0.010995 0.002191 -0.055275
v -0.041665 0.002191 -0.041665
v 0.000000 0.002191 0.058924
v 0.041665 0.002191 -0.041665
v -0.045554 0.002191 -0.045554
v 0.000000 0.002191 0.064423
v 0.045554 0.002191 -0.045554
v -0.012690 0.002191 0.063799
v -0.045996 0.002191 0.045996
v -0.036139 0.002191 0.054086
v -0.065049 0.002191 0.000000
v 0.057178 0.002191 0.011373
v -0.011373 0.002191 0.057178
v 0.000000 0.002191 0.058298
v -0.032389 0.002191 0.048473
v -0.057178 0.002191 0.011373
v 0.000000 0.002191 -0.058298
v 0.032389 0.002191 -0.048473
v 0.036139 0.002191 -0.054086
v 0.011373 0.002191 0.057178
v -0.054086 0.002191 0.036139
v -0.063799 0.002191 0.012690
v 0.045554 0.002191 0.045554
v 0.064423 0.002191 0.000000
v 0.063799 0.002191 -0.012690
v 0.000000 0.001773 -0.064423
v 0.000000 0.001773 -0.058924
v 0.058924 0.001773 0.000000
v 0.064423 0.001773 0.000000
v 0.041665 0.001773 0.041665
v 0.045554 0.001773 0.045554
v -0.041665 0.001773 0.041665
v -0.045554 0.001773 0.045554
v -0.058924 0.001773 0.000000
v -0.064423 0.001773 0.000000
v -0.041665 0.001773 -0.041665
v -0.045554 0.001773 -0.045554
v 0.000000 0.001773 0.058924
v 0.000000 0.001773 0.064423
v 0.041665 0.001773 -0.041665
v 0.045554 0.001773 -0.045554
v 0.035456 0.002191 -0.051942
v 0.037416 0.002191 -0.052233
v 0.034360 0.002191 -0.047660
v 0.034040 0.002191 -0.049823
v 0.052233 0.002191 -0.037416
v 0.051942 0.002191 -0.035456
v 0.049823 0.002191 -0.034040
v 0.047660 0.002191 -0.034360
v 0.048480 0.002191 -0.032438
v 0.063391 0.002191 0.010477
v 0.061799 0.002191 0.011658
v 0.059300 0.002191 0.011161
v 0.057997 0.002191 0.009404
v 0.051942 0.002191 0.035456
v 0.052233 0.002191 0.037416
v 0.054037 0.002191 0.036146
v 0.047660 0.002191 0.034360
v 0.049823 0.002191 0.034040
v 0.011658 0.002191 0.061799
v 0.010477 0.002191 0.063391
v 0.012650 0.002191 0.063769
v 0.009404 0.002191 0.057997
v 0.011161 0.002191 0.059300
v -0.010477 0.002191 0.063391
v -0.011658 0.002191 0.061799
v -0.011161 0.002191 0.059300
v -0.009404 0.002191 0.057997
v -0.052233 0.002191 0.037416
v -0.051942 0.002191 0.035456
v -0.049823 0.002191 0.034040
v -0.047660 0.002191 0.034360
v -0.061799 0.002191 0.011658
v -0.063391 0.002191 0.010477
v -0.057997 0.002191 0.009404
v -0.059300 0.002191 0.011161
v -0.037416 0.002191 -0.052233
v -0.035456 0.002191 -0.051942
v -0.034040 0.002191 -0.049823
v -0.034360 0.002191 -0.047660
v -0.032438 0.002191 -0.048480
v -0.051942 0.002191 -0.035456
v -0.052233 0.002191 -0.037416
v -0.047660 0.002191 -0.034360
v -0.049823 0.002191 -0.034040
v -0.048480 0.002191 -0.032438
v -0.011658 0.002191 -0.061799
v -0.010477 0.002191 -0.063391
v -0.009404 0.002191 -0.057997
v -0.011161 0.002191 -0.059300
v -0.011344 0.002191 -0.057218
v -0.034360 0.002191 0.047660
v -0.034040 0.002191 0.049823
v 0.057997 0.002191 -0.009404
v 0.059300 0.002191 -0.011161
v -0.063391 0.002191 -0.010477
v -0.061799 0.002191 -0.011658
v -0.063769 0.002191 -0.012650
v -0.035456 0.002191 0.051942
v -0.037416 0.002191 0.052233
v 0.037416 0.002191 0.052233
v 0.035456 0.002191 0.051942
v 0.061799 0.002191 -0.011658
v 0.063391 0.002191 -0.010477
v -0.059300 0.002191 -0.011161
v -0.057997 0.002191 -0.009404
v -0.057218 0.002191 -0.011344
v 0.034040 0.002191 0.049823
v 0.034360 0.002191 0.047660
v 0.011161 0.002191 -0.059300
v 0.009404 0.002191 -0.057997
v 0.011344 0.002191 -0.057218
v 0.010477 0.002191 -0.063391
v 0.011658 0.002191 -0.061799
v -0.011658 0.001773 0.061799
v -0.010477 0.001773 0.063391
v -0.037416 0.001773 0.052233
v -0.035456 0.001773 0.051942
v -0.061799 0.001773 -0.011658
v -0.063391 0.001773 -0.010477
v -0.052233 0.001773 -0.037416
v -0.051942 0.001773 -0.035456
v -0.035456 0.001773 -0.051942
v -0.037416 0.001773 -0.052233
v -0.010477 0.001773 -0.063391
v -0.011658 0.001773 -0.061799
v 0.047660 0.001773 -0.034360
v 0.049823 0.001773 -0.034040
v 0.059300 0.001773 -0.011161
v 0.057997 0.001773 -0.009404
v 0.057997 0.001773 0.009404
v 0.059300 0.001773 0.011161
v 0.049823 0.001773 0.034040
v 0.047660 0.001773 0.034360
v -0.009404 0.001773 0.057997
v -0.011161 0.001773 0.059300
v -0.034040 0.001773 0.049823
v -0.034360 0.001773 0.047660
v -0.047660 0.001773 0.034360
v -0.049823 0.001773 0.034040
v -0.059300 0.001773 0.011161
v -0.057997 0.001773 0.009404
v -0.034360 0.001773 -0.047660
v -0.034040 0.001773 -0.049823
v -0.011161 0.001773 -0.059300
v -0.009404 0.001773 -0.057997
v 0.034040 0.001773 -0.049823
v 0.034360 0.001773 -0.047660
v 0.037416 0.001773 -0.052233
v 0.035456 0.001773 -0.051942
v 0.051942 0.001773 -0.035456
v 0.052233 0.001773 -0.037416
v 0.061799 0.001773 0.011658
v 0.063391 0.001773 0.010477
v 0.052233 0.001773 0.037416
v 0.051942 0.001773 0.035456
v 0.011161 0.001773 0.059300
v 0.009404 0.001773 0.057997
v 0.010477 0.001773 0.063391
v 0.011658 0.001773 0.061799
v -0.051942 0.001773 0.035456
v -0.052233 0.001773 0.037416
v -0.063391 0.001773 0.010477
v -0.061799 0.001773 0.011658
v -0.049823 0.001773 -0.034040
v -0.047660 0.001773 -0.034360
v 0.035456 0.001773 0.051942
v 0.037416 0.001773 0.052233
v 0.063391 0.001773 -0.010477
v 0.061799 0.001773 -0.011658
v -0.057997 0.001773 -0.009404
v -0.059300 0.001773 -0.011161
v 0.034360 0.001773 0.047660
v 0.034040 0.001773 0.049823
v 0.009404 0.001773 -0.057997
v 0.011161 0.001773 -0.059300
v 0.011658 0.001773 -0.061799
v 0.010477 0.001773 -0.063391
v -0.000000 0.002582 -0.055698
v -0.000000 0.003282 -0.044279
v 0.008638 0.003282 -0.043429
v 0.010866 0.002582 -0.054628
v 0.016945 0.003282 -0.040909
v 0.021315 0.002582 -0.051458
v 0.024600 0.003282 -0.036817
v 0.030944 0.002582 -0.046311
v 0.031310 0.003282 -0.031310
v 0.039384 0.002582 -0.039384
v 0.036817 0.003282 -0.024600
v 0.046311 0.002582 -0.030944
v 0.040909 0.003282 -0.016945
v 0.051458 0.002582 -0.021315
v 0.043429 0.003282 -0.008638
v 0.054628 0.002582 -0.010866
v 0.044279 0.003282 0.000000
v 0.055698 0.002582 0.000000
v 0.043429 0.003282 0.008638
v 0.054628 0.002582 0.010866
v 0.040909 0.003282 0.016945
v 0.051458 0.002582 0.021315
v 0.036817 0.003282 0.024600
v 0.046311 0.002582 0.030944
v 0.031310 0.003282 0.031310
v 0.039384 0.002582 0.039384
v 0.024600 0.003282 0.036817
v 0.030944 0.002582 0.046311
v 0.016945 0.003282 0.040909
v 0.021315 0.002582 0.051458
v 0.008638 0.003282 0.043429
v 0.010866 0.002582 0.054628
v 0.000000 0.003282 0.044279
v 0.000000 0.002582 0.055698
v -0.008638 0.003282 0.043429
v -0.010866 0.002582 0.054628
v -0.016945 0.003282 0.040909
v -0.021315 0.002582 0.051458
v -0.024600 0.003282 0.036817
v -0.030944 0.002582 0.046311
v -0.031310 0.003282 0.031310
v -0.039384 0.002582 0.039384
v -0.036817 0.003282 0.024600
v -0.046311 0.002582 0.030944
v -0.040909 0.003282 0.016945
v -0.051458 0.002582 0.021315
v -0.043429 0.003282 0.008638
v -0.054628 0.002582 0.010866
v -0.044279 0.003282 0.000000
v -0.055698 0.002582 0.000000
v -0.043429 0.003282 -0.008638
v -0.054628 0.002582 -0.010866
v -0.040909 0.003282 -0.016945
v -0.051458 0.002582 -0.021315
v -0.036817 0.003282 -0.024600
v -0.046311 0.002582 -0.030944
v -0.031310 0.003282 -0.031310
v -0.039384 0.002582 -0.039384
v -0.024600 0.003282 -0.036817
v -0.030944 0.002582 -0.046311
v -0.016945 0.003282 -0.040909
v -0.021315 0.002582 -0.051458
v -0.008638 0.003282 -0.043429
v -0.010866 0.002582 -0.054628
v 0.012690 0.002615 -0.063799
v 0.012821 0.003282 -0.064457
v 0.000000 0.003282 -0.065719
v 0.000000 0.002615 -0.065049
v 0.024893 0.002615 -0.060097
v 0.025150 0.003282 -0.060717
v 0.036139 0.002615 -0.054086
v 0.036512 0.003282 -0.054644
v 0.045996 0.002615 -0.045996
v 0.046471 0.003282 -0.046471
v 0.054086 0.002615 -0.036139
v 0.054644 0.003282 -0.036512
v 0.060097 0.002615 -0.024893
v 0.060717 0.003282 -0.025150
v 0.063799 0.002615 -0.012690
v 0.064457 0.003282 -0.012821
v 0.065049 0.002615 0.000000
v 0.065719 0.003282 0.000000
v 0.063799 0.002615 0.012690
v 0.064457 0.003282 0.012821
v 0.060097 0.002615 0.024893
v 0.060717 0.003282 0.025150
v 0.054086 0.002615 0.036139
v 0.054644 0.003282 0.036512
v 0.045996 0.002615 0.045996
v 0.046471 0.003282 0.046471
v 0.036139 0.002615 0.054086
v 0.036512 0.003282 0.054644
v 0.024893 0.002615 0.060097
v 0.025150 0.003282 0.060717
v 0.012690 0.002615 0.063799
v 0.012821 0.003282 0.064457
v 0.000000 0.002615 0.065049
v 0.000000 0.003282 0.065719
v -0.012690 0.002615 0.063799
v -0.012821 0.003282 0.064457
v -0.024893 0.002615 0.060097
v -0.025150 0.003282 0.060717
v -0.036139 0.002615 0.054086
v -0.036512 0.003282 0.054644
v -0.045996 0.002615 0.045996
v -0.046471 0.003282 0.046471
v -0.054086 0.002615 0.036139
v -0.054644 0.003282 0.036512
v -0.060097 0.002615 0.024893
v -0.060717 0.003282 0.025150
v -0.063799 0.002615 0.012690
v -0.064457 0.003282 0.012821
v -0.065049 0.002615 0.000000
v -0.065719 0.003282 0.000000
v -0.063799 0.002615 -0.012690
v -0.064457 0.003282 -0.012821
v -0.060097 0.002615 -0.024893
v -0.060717 0.003282 -0.025150
v -0.054086 0.002615 -0.036139
v -0.054644 0.003282 -0.036512
v -0.045996 0.002615 -0.045996
v -0.046471 0.003282 -0.046471
v -0.036139 0.002615 -0.054086
v -0.036512 0.003282 -0.054644
v -0.024893 0.002615 -0.060097
v -0.025150 0.003282 -0.060717
v -0.012690 0.002615 -0.063799
v -0.012821 0.003282 -0.064457
v -0.022310 0.002191 -0.053860
v -0.041223 0.002191 -0.041223
v -0.053860 0.002191 -0.022310
v -0.058298 0.002191 0.000000
v -0.053860 0.002191 0.022310
v -0.048473 0.002191 0.032389
v -0.041223 0.002191 0.041223
v -0.022310 0.002191 0.053860
v 0.022310 0.002191 0.053860
v 0.032389 0.002191 0.048473
v 0.041223 0.002191 0.041223
v 0.048473 0.002191 0.032389
v 0.053860 0.002191 0.022310
v 0.058298 0.002191 0.000000
v 0.057178 0.002191 -0.011373
v 0.053860 0.002191 -0.022310
v 0.041223 0.002191 -0.041223
v 0.022310 0.002191 -0.053860
v 0.010866 0.002191 -0.054628
v -0.000000 0.002191 -0.055698
v 0.021315 0.002191 -0.051458
v 0.030944 0.002191 -0.046311
v 0.039384 0.002191 -0.039384
v 0.046311 0.002191 -0.030944
v 0.051458 0.002191 -0.021315
v 0.054628 0.002191 -0.010866
v 0.055698 0.002191 0.000000
v 0.054628 0.002191 0.010866
v 0.051458 0.002191 0.021315
v 0.046311 0.002191 0.030944
v 0.039384 0.002191 0.039384
v 0.030944 0.002191 0.046311
v 0.021315 0.002191 0.051458
v 0.010866 0.002191 0.054628
v 0.000000 0.002191 0.055698
v -0.010866 0.002191 0.054628
v -0.021315 0.002191 0.051458
v -0.030944 0.002191 0.046311
v -0.039384 0.002191 0.039384
v -0.046311 0.002191 0.030944
v -0.051458 0.002191 0.021315
v -0.054628 0.002191 0.010866
v -0.055698 0.002191 0.000000
v -0.054628 0.002191 -0.010866
v -0.051458 0.002191 -0.021315
v -0.046311 0.002191 -0.030944
v -0.039384 0.002191 -0.039384
v -0.030944 0.002191 -0.046311
v -0.021315 0.002191 -0.051458
v -0.010866 0.002191 -0.054628
v 0.000000 0.002029 -0.057637
v -0.000000 0.002029 -0.056358
v 0.010995 0.002029 -0.055275
v 0.011244 0.002029 -0.056530
v 0.021567 0.002029 -0.052068
v 0.022057 0.002029 -0.053250
v 0.031311 0.002029 -0.046860
v 0.032022 0.002029 -0.047924
v 0.039851 0.002029 -0.039851
v 0.040756 0.002029 -0.040756
v 0.046860 0.002029 -0.031311
v 0.047924 0.002029 -0.032022
v 0.052068 0.002029 -0.021567
v 0.053250 0.002029 -0.022057
v 0.055275 0.002029 -0.010995
v 0.056530 0.002029 -0.011244
v 0.056358 0.002029 0.000000
v 0.057637 0.002029 0.000000
v 0.055275 0.002029 0.010995
v 0.056530 0.002029 0.011244
v 0.052068 0.002029 0.021567
v 0.053250 0.002029 0.022057
v 0.046860 0.002029 0.031311
v 0.047924 0.002029 0.032022
v 0.039851 0.002029 0.039851
v 0.040756 0.002029 0.040756
v 0.031311 0.002029 0.046860
v 0.032022 0.002029 0.047924
v 0.021567 0.002029 0.052068
v 0.022057 0.002029 0.053250
v 0.010995 0.002029 0.055275
v 0.011244 0.002029 0.056530
v 0.000000 0.002029 0.056358
v 0.000000 0.002029 0.057637
v -0.010995 0.002029 0.055275
v -0.011244 0.002029 0.056530
v -0.021567 0.002029 0.052068
v -0.022057 0.002029 0.053250
v -0.031311 0.002029 0.046860
v -0.032022 0.002029 0.047924
v -0.039851 0.002029 0.039851
v -0.040756 0.002029 0.040756
v -0.046860 0.002029 0.031311
v -0.047924 0.002029 0.032022
v -0.052068 0.002029 0.021567
v -0.053250 0.002029 0.022057
v -0.055275 0.002029 0.010995
v -0.056530 0.002029 0.011244
v -0.056358 0.002029 0.000000
v -0.057637 0.002029 0.000000
v -0.055275 0.002029 -0.010995
v -0.056530 0.002029 -0.011244
v -0.052068 0.002029 -0.021567
v -0.053250 0.002029 -0.022057
v -0.046860 0.002029 -0.031311
v -0.047924 0.002029 -0.032022
v -0.039851 0.002029 -0.039851
v -0.040756 0.002029 -0.040756
v -0.031311 0.002029 -0.046860
v -0.032022 0.002029 -0.047924
v -0.021567 0.002029 -0.052068
v -0.022057 0.002029 -0.053250
v -0.010995 0.002029 -0.055275
v -0.011244 0.002029 -0.056530
v -0.000000 0.003282 -0.054995
v 0.010729 0.003282 -0.053938
v 0.021046 0.003282 -0.050808
v 0.030553 0.003282 -0.045726
v 0.038887 0.003282 -0.038887
v 0.045726 0.003282 -0.030553
v 0.050808 0.003282 -0.021046
v 0.053938 0.003282 -0.010729
v 0.054995 0.003282 0.000000
v 0.053938 0.003282 0.010729
v 0.050808 0.003282 0.021046
v 0.045726 0.003282 0.030553
v 0.038887 0.003282 0.038887
v 0.030553 0.003282 0.045726
v 0.021046 0.003282 0.050808
v 0.010729 0.003282 0.053938
v 0.000000 0.003282 0.054995
v -0.010729 0.003282 0.053938
v -0.021046 0.003282 0.050808
v -0.030553 0.003282 0.045726
v -0.038887 0.003282 0.038887
v -0.045726 0.003282 0.030553
v -0.050808 0.003282 0.021046
v -0.053938 0.003282 0.010729
v -0.054995 0.003282 0.000000
v -0.053938 0.003282 -0.010729
v -0.050808 0.003282 -0.021046
v -0.045726 0.003282 -0.030553
v -0.038887 0.003282 -0.038887
v -0.030553 0.003282 -0.045726
v -0.021046 0.003282 -0.050808
v -0.010729 0.003282 -0.053938
v -0.000000 0.001284 -0.038920
v 0.007593 0.001284 -0.038173
v 0.014894 0.001284 -0.035958
v 0.021623 0.001284 -0.032361
v 0.027521 0.001284 -0.027521
v 0.032361 0.001284 -0.021623
v 0.035958 0.001284 -0.014894
v 0.038173 0.001284 -0.007593
v 0.038920 0.001284 0.000000
v 0.038173 0.001284 0.007593
v 0.035958 0.001284 0.014894
v 0.032361 0.001284 0.021623
v 0.027521 0.001284 0.027521
v 0.021623 0.001284 0.032361
v 0.014894 0.001284 0.035958
v 0.007593 0.001284 0.038173
v 0.000000 0.001284 0.038920
v -0.007593 0.001284 0.038173
v -0.014894 0.001284 0.035958
v -0.021623 0.001284 0.032361
v -0.027521 0.001284 0.027521
v -0.032361 0.001284 0.021623
v -0.035958 0.001284 0.014894
v -0.038173 0.001284 0.007593
v -0.038920 0.001284 0.000000
v -0.038173 0.001284 -0.007593
v -0.035958 0.001284 -0.014894
v -0.032361 0.001284 -0.021623
v -0.027521 0.001284 -0.027521
v -0.021623 0.001284 -0.032361
v -0.014894 0.001284 -0.035958
v -0.007593 0.001284 -0.038173
vn 0.1951 -0.0000 -0.9808
vn 0.1808 0.3756 -0.9090
vn 0.3547 0.3756 -0.8562
vn 0.3827 -0.0000 -0.9239
vn -0.3520 0.3925 0.8497
vn -0.1794 0.3925 0.9021
vn -0.1951 -0.0000 0.9808
vn -0.3827 -0.0000 0.9239
vn -0.6503 0.3926 0.6503
vn -0.5110 0.3926 0.7647
vn -0.5556 -0.0000 0.8315
vn -0.7071 -0.0000 0.7071
vn -0.7647 0.3925 0.5110
vn -0.8315 -0.0000 0.5556
vn -0.8497 0.3925 0.3520
vn -0.9239 -0.0000 0.3827
vn -0.9021 0.3925 0.1794
vn -0.9808 -0.0000 0.1951
vn -0.9197 0.3925 -0.0000
vn -1.0000 -0.0000 -0.0000
vn -0.9021 0.3925 -0.1794
vn -0.9808 -0.0000 -0.1951
vn -0.8453 0.4032 -0.3505
vn -0.9233 0.0238 -0.3833
vn -0.7586 0.4131 -0.5039
vn -0.8279 0.0435 -0.5592
vn -0.6478 0.4015 -0.6474
vn -0.7074 0.0199 -0.7065
vn -0.5110 0.3926 -0.7647
vn -0.5556 -0.0000 -0.8315
vn -0.3498 0.4032 -0.8456
vn -0.3819 0.0238 -0.9239
vn -0.1801 0.4131 -0.8927
vn -0.1900 0.0435 -0.9808
vn -0.0003 0.4015 -0.9159
vn -0.0006 0.0199 -0.9998
vn 0.1794 0.3925 -0.9021
vn 0.3520 0.3925 -0.8497
vn 0.5110 0.3926 -0.7647
vn 0.5556 -0.0000 -0.8315
vn 0.6503 0.3926 -0.6503
vn 0.7071 -0.0000 -0.7071
vn 0.7647 0.3925 -0.5110
vn 0.8315 -0.0000 -0.5556
vn 0.8497 0.3925 -0.3520
vn 0.9239 -0.0000 -0.3827
vn 0.9021 0.3925 -0.1794
vn 0.9808 -0.0000 -0.1951
vn 0.9159 0.4015 0.0003
vn 0.9998 0.0199 0.0006
vn 0.8927 0.4131 0.1801
vn 0.9808 0.0435 0.1900
vn 0.8456 0.4032 0.3498
vn 0.9239 0.0238 0.3819
vn 0.7647 0.3925 0.5110
vn 0.8315 -0.0000 0.5556
vn 0.6503 0.3926 0.6503
vn 0.7071 -0.0000 0.7071
vn 0.5110 0.3926 0.7647
vn 0.5556 -0.0000 0.8315
vn 0.3520 0.3925 0.8497
vn 0.3827 -0.0000 0.9239
vn 0.1794 0.3925 0.9021
vn 0.1951 -0.0000 0.9808
vn -0.1808 0.3756 -0.9090
vn -0.0000 0.3756 -0.9268
vn -0.0000 -0.0000 -1.0000
vn -0.1951 -0.0000 -0.9808
vn -0.0000 -1.0000 -0.0000
vn 0.5149 0.3756 -0.7706
vn 0.6553 0.3756 -0.6553
vn 0.7706 0.3756 -0.5149
vn 0.8562 0.3756 -0.3547
vn 0.9090 0.3756 -0.1808
vn 0.9268 0.3756 -0.0000
vn 1.0000 -0.0000 -0.0000
vn 0.9090 0.3756 0.1808
vn 0.9808 -0.0000 0.1951
vn 0.8562 0.3756 0.3547
vn 0.9239 -0.0000 0.3827
vn 0.7706 0.3756 0.5149
vn 0.6553 0.3756 0.6553
vn 0.5149 0.3756 0.7706
vn 0.3547 0.3756 0.8562
vn 0.1808 0.3756 0.9090
vn -0.0000 0.3756 0.9268
vn -0.0000 -0.0000 1.0000
vn -0.1808 0.3756 0.9090
vn -0.3547 0.3756 0.8562
vn -0.5149 0.3756 0.7706
vn -0.6553 0.3756 0.6553
vn -0.7706 0.3756 0.5149
vn -0.8562 0.3756 0.3547
vn -0.9090 0.3756 0.1808
vn -0.9268 0.3756 -0.0000
vn -0.9090 0.3756 -0.1808
vn -0.8562 0.3756 -0.3547
vn -0.9239 -0.0000 -0.3827
vn -0.7706 0.3756 -0.5149
vn -0.8315 -0.0000 -0.5556
vn -0.6553 0.3756 -0.6553
vn -0.7071 -0.0000 -0.7071
vn -0.5149 0.3756 -0.7706
vn -0.3547 0.3756 -0.8562
vn -0.3827 -0.0000 -0.9239
vn -0.0000 1.0000 -0.0000
vn -0.0000 0.3925 0.9197
vn -0.1941 0.9370 0.2906
vn -0.1337 0.9370 0.3228
vn -0.1941 0.9370 0.2905
vn -0.0000 0.7088 -0.7054
vn 0.1376 0.7088 -0.6918
vn 0.2699 0.7088 -0.6517
vn 0.3919 0.7088 -0.5865
vn 0.4988 0.7088 -0.4988
vn 0.5865 0.7088 -0.3919
vn 0.6517 0.7088 -0.2699
vn 0.6918 0.7088 -0.1376
vn 0.7054 0.7088 -0.0000
vn 0.6918 0.7088 0.1376
vn 0.6517 0.7088 0.2699
vn 0.5865 0.7088 0.3919
vn 0.4988 0.7088 0.4988
vn 0.3919 0.7088 0.5865
vn 0.2699 0.7088 0.6517
vn 0.1376 0.7088 0.6918
vn -0.0000 0.7088 0.7054
vn -0.1376 0.7088 0.6918
vn -0.2699 0.7088 0.6517
vn -0.3919 0.7088 0.5865
vn -0.4988 0.7088 0.4988
vn -0.5865 0.7088 0.3919
vn -0.6517 0.7088 0.2699
vn -0.6918 0.7088 0.1376
vn -0.7054 0.7088 -0.0000
vn -0.6918 0.7088 -0.1376
vn -0.6517 0.7088 -0.2699
vn -0.5865 0.7088 -0.3919
vn -0.4988 0.7088 -0.4988
vn -0.3919 0.7088 -0.5865
vn -0.2699 0.7088 -0.6517
vn -0.1376 0.7088 -0.6918
vn -0.4714 -0.0000 0.8819
vn 0.4714 -0.0000 0.8819
vn -0.7730 -0.0000 0.6344
vn 0.6344 -0.0000 0.7730
vn -0.8819 -0.0000 0.4714
vn 0.7730 -0.0000 0.6344
vn -0.9952 -0.0000 0.0980
vn 0.8819 -0.0000 0.4714
vn -0.9952 -0.0000 -0.0980
vn 0.9569 -0.0000 0.2903
vn -0.8819 -0.0000 -0.4714
vn 0.9952 -0.0000 0.0980
vn -0.7730 -0.0000 -0.6344
vn 0.9952 -0.0000 -0.0980
vn -0.4714 -0.0000 -0.8819
vn 0.9569 -0.0000 -0.2903
vn -0.2903 -0.0000 -0.9569
vn 0.8819 -0.0000 -0.4714
vn -0.0980 -0.0000 -0.9952
vn 0.0980 -0.0000 -0.9952
vn 0.7730 -0.0000 -0.6344
vn 0.2903 -0.0000 -0.9569
vn 0.6344 -0.0000 -0.7730
vn 0.4714 -0.0000 -0.8819
vn -0.6344 -0.0000 -0.7730
vn -0.0980 -0.0000 0.9952
vn -0.6344 -0.0000 0.7730
vn 0.0980 -0.0000 0.9952
vn 0.9892 -0.0000 -0.1467
vn -0.5957 -0.0000 0.8032
vn 0.5957 -0.0000 0.8032
vn -0.5957 -0.0000 -0.8032
vn 0.5957 -0.0000 -0.8032
vn 0.1467 -0.0000 0.9892
vn -0.9892 -0.0000 -0.1467
vn 0.1467 -0.0000 -0.9892
vn 0.9892 -0.0000 0.1467
vn -0.1467 -0.0000 0.9892
vn 0.8032 -0.0000 -0.5957
vn -0.9892 -0.0000 0.1467
vn 0.8032 -0.0000 0.5957
vn -0.8032 -0.0000 0.5957
vn -0.1467 -0.0000 -0.9892
vn -0.8032 -0.0000 -0.5957
vn 0.2903 -0.0000 0.9569
vn -0.2903 -0.0000 0.9569
vn -0.9569 -0.0000 0.2903
vn -0.9569 -0.0000 -0.2903
vn 0.1337 0.9370 0.3228
vn 0.1941 0.9370 0.2906
vn 0.0682 0.9370 -0.3427
vn -0.0000 0.9370 -0.3494
vn -0.2471 0.9370 0.2471
vn 0.0682 0.9370 0.3427
vn 0.1337 0.9370 -0.3228
vn -0.2905 0.9370 0.1941
vn -0.0000 0.9370 0.3494
vn 0.1941 0.9370 -0.2905
vn -0.3228 0.9370 0.1337
vn 0.2471 0.9370 -0.2471
vn -0.3427 0.9370 0.0682
vn 0.2905 0.9370 -0.1941
vn -0.3494 0.9370 -0.0000
vn 0.3228 0.9370 -0.1337
vn -0.3427 0.9370 -0.0682
vn 0.3427 0.9370 -0.0682
vn -0.3228 0.9370 -0.1337
vn 0.3494 0.9370 -0.0000
vn -0.2905 0.9370 -0.1941
vn 0.3427 0.9370 0.0682
vn -0.2471 0.9370 -0.2471
vn 0.3228 0.9370 0.1337
vn -0.1941 0.9370 -0.2906
vn -0.1941 0.9370 -0.2905
vn 0.2905 0.9370 0.1941
vn -0.1337 0.9370 -0.3228
vn -0.0682 0.9370 0.3427
vn 0.2471 0.9370 0.2471
vn -0.0682 0.9370 -0.3427
vt 0.968750 0.500000
vt 0.968750 0.772995
vt 0.937500 0.772995
vt 0.937500 0.500000
vt 0.336226 0.458168
vt 0.293958 0.470990
vt 0.336226 0.458168
vt 0.409325 0.409325
vt 0.375181 0.437346
vt 0.375181 0.437346
vt 0.437346 0.375181
vt 0.437346 0.375181
vt 0.458168 0.336226
vt 0.470990 0.293958
vt 0.475319 0.250000
vt 0.470990 0.206042
vt 0.475319 0.250000
vt 0.458168 0.163774
vt 0.437346 0.124819
vt 0.437346 0.124819
vt 0.409325 0.090675
vt 0.437346 0.124819
vt 0.409325 0.090675
vt 0.375181 0.062654
vt 0.336226 0.041832
vt 0.336226 0.041832
vt 0.293958 0.029010
vt 0.293958 0.029010
vt 0.250000 0.024681
vt 0.293958 0.029010
vt 0.206042 0.029010
vt 0.250000 0.024681
vt 0.163774 0.041832
vt 0.206042 0.029010
vt 0.124819 0.062654
vt 0.090675 0.090675
vt 0.062654 0.124819
vt 0.062654 0.124819
vt 0.041832 0.163774
vt 0.041832 0.163774
vt 0.029010 0.206042
vt 0.024681 0.250000
vt 0.029010 0.206042
vt 0.024681 0.250000
vt 0.029010 0.293958
vt 0.029010 0.293958
vt 0.041832 0.336226
vt 0.029010 0.293958
vt 0.041832 0.336226
vt 0.062654 0.375181
vt 0.062654 0.375181
vt 0.090675 0.409325
vt 0.124819 0.437346
vt 0.124819 0.437346
vt 0.163774 0.458168
vt 0.206042 0.470990
vt 0.212361 0.439222
vt 0.250000 0.442929
vt 0.250000 0.442929
vt 0.212361 0.439222
vt 0.750000 0.490000
vt 0.796822 0.485388
vt 0.841844 0.471731
vt 0.883337 0.449553
vt 0.919706 0.419706
vt 0.949553 0.383337
vt 0.971731 0.341844
vt 0.985388 0.296822
vt 0.990000 0.250000
vt 0.985388 0.203178
vt 0.971731 0.158156
vt 0.949553 0.116663
vt 0.919706 0.080294
vt 0.883337 0.050447
vt 0.841844 0.028269
vt 0.796822 0.014612
vt 0.750000 0.010000
vt 0.703178 0.014612
vt 0.658156 0.028269
vt 0.616663 0.050447
vt 0.580294 0.080294
vt 0.550447 0.116663
vt 0.528269 0.158156
vt 0.514612 0.203178
vt 0.510000 0.250000
vt 0.514612 0.296822
vt 0.528269 0.341844
vt 0.550447 0.383337
vt 0.580294 0.419706
vt 0.616663 0.449553
vt 0.658156 0.471731
vt 0.703178 0.485388
vt 1.000000 0.500000
vt 1.000000 0.772995
vt 0.031250 0.500000
vt 0.031250 0.772995
vt 0.000000 0.772995
vt 0.000000 0.500000
vt 0.906250 0.500000
vt 0.906250 0.772995
vt 0.875000 0.772995
vt 0.875000 0.500000
vt 0.843750 0.772995
vt 0.843750 0.500000
vt 0.812500 0.772995
vt 0.812500 0.500000
vt 0.781250 0.772995
vt 0.781250 0.500000
vt 0.750000 0.772995
vt 0.750000 0.500000
vt 0.718750 0.772995
vt 0.718750 0.500000
vt 0.687500 0.772995
vt 0.687500 0.500000
vt 0.656250 0.772995
vt 0.656250 0.500000
vt 0.625000 0.772995
vt 0.625000 0.500000
vt 0.593750 0.772995
vt 0.593750 0.500000
vt 0.562500 0.772995
vt 0.562500 0.500000
vt 0.531250 0.772995
vt 0.531250 0.500000
vt 0.500000 0.772995
vt 0.500000 0.500000
vt 0.468750 0.772995
vt 0.468750 0.500000
vt 0.437500 0.772995
vt 0.437500 0.500000
vt 0.406250 0.772995
vt 0.406250 0.500000
vt 0.375000 0.772995
vt 0.375000 0.500000
vt 0.343750 0.772995
vt 0.343750 0.500000
vt 0.312500 0.772995
vt 0.312500 0.500000
vt 0.281250 0.772995
vt 0.281250 0.500000
vt 0.250000 0.772995
vt 0.250000 0.500000
vt 0.218750 0.772995
vt 0.218750 0.500000
vt 0.187500 0.772995
vt 0.187500 0.500000
vt 0.156250 0.772995
vt 0.156250 0.500000
vt 0.125000 0.772995
vt 0.125000 0.500000
vt 0.093750 0.772995
vt 0.093750 0.500000
vt 0.062500 0.772995
vt 0.062500 0.500000
vt 0.287639 0.060778
vt 0.250000 0.057071
vt 0.439278 0.123528
vt 0.410968 0.089032
vt 0.416038 0.083962
vt 0.445240 0.119545
vt 0.323831 0.071756
vt 0.460315 0.162885
vt 0.445240 0.119545
vt 0.466939 0.160141
vt 0.473269 0.205589
vt 0.466939 0.160141
vt 0.480301 0.204190
vt 0.357186 0.089585
vt 0.477643 0.250000
vt 0.480301 0.204190
vt 0.484813 0.250000
vt 0.386422 0.113578
vt 0.473269 0.294411
vt 0.477643 0.250000
vt 0.484813 0.250000
vt 0.480301 0.295810
vt 0.410415 0.142814
vt 0.428244 0.176169
vt 0.428244 0.176169
vt 0.460315 0.337115
vt 0.466939 0.339859
vt 0.439222 0.212361
vt 0.439278 0.376472
vt 0.466939 0.339859
vt 0.445240 0.380455
vt 0.205589 0.473269
vt 0.250000 0.477643
vt 0.250000 0.484813
vt 0.204190 0.480301
vt 0.442929 0.250000
vt 0.410968 0.410968
vt 0.445240 0.380455
vt 0.416038 0.416038
vt 0.162885 0.460315
vt 0.160141 0.466939
vt 0.439222 0.287639
vt 0.439222 0.287639
vt 0.376472 0.439278
vt 0.380455 0.445240
vt 0.123528 0.439278
vt 0.162885 0.460315
vt 0.160141 0.466939
vt 0.119545 0.445240
vt 0.428244 0.323831
vt 0.428244 0.323831
vt 0.337115 0.460315
vt 0.376472 0.439278
vt 0.339859 0.466939
vt 0.089032 0.410968
vt 0.119545 0.445240
vt 0.083962 0.416038
vt 0.287639 0.439222
vt 0.323831 0.428244
vt 0.287639 0.439222
vt 0.410415 0.357186
vt 0.250000 0.475319
vt 0.250000 0.475319
vt 0.060722 0.376472
vt 0.054760 0.380455
vt 0.386422 0.386422
vt 0.294411 0.473269
vt 0.337115 0.460315
vt 0.339859 0.466939
vt 0.295810 0.480301
vt 0.039685 0.337115
vt 0.060722 0.376472
vt 0.054760 0.380455
vt 0.033061 0.339859
vt 0.176169 0.428244
vt 0.357186 0.410415
vt 0.026731 0.294411
vt 0.039685 0.337115
vt 0.033061 0.339859
vt 0.019699 0.295810
vt 0.142814 0.410415
vt 0.142814 0.410415
vt 0.022357 0.250000
vt 0.019699 0.295810
vt 0.015187 0.250000
vt 0.113578 0.386422
vt 0.335212 0.377529
vt 0.308695 0.391702
vt 0.026731 0.205589
vt 0.015187 0.250000
vt 0.019699 0.204190
vt 0.089585 0.357186
vt 0.039685 0.162885
vt 0.033061 0.160141
vt 0.071756 0.323831
vt 0.060722 0.123528
vt 0.054760 0.119545
vt 0.060778 0.287639
vt 0.089032 0.089032
vt 0.054760 0.119545
vt 0.083962 0.083962
vt 0.057071 0.250000
vt 0.123528 0.060722
vt 0.119545 0.054760
vt 0.060778 0.212361
vt 0.060778 0.212361
vt 0.162885 0.039685
vt 0.123528 0.060722
vt 0.119545 0.054760
vt 0.160141 0.033061
vt 0.071756 0.176169
vt 0.205589 0.026731
vt 0.162885 0.039685
vt 0.204190 0.019699
vt 0.089585 0.142814
vt 0.250000 0.022357
vt 0.204190 0.019699
vt 0.250000 0.015187
vt 0.113578 0.113578
vt 0.142814 0.089585
vt 0.294411 0.026731
vt 0.250000 0.015187
vt 0.295810 0.019699
vt 0.176169 0.071756
vt 0.337115 0.039685
vt 0.339859 0.033061
vt 0.212361 0.060778
vt 0.212361 0.060778
vt 0.376472 0.060722
vt 0.337115 0.039685
vt 0.380455 0.054760
vt 0.376472 0.060722
vt 0.380455 0.054760
vt 0.296822 0.485388
vt 0.250000 0.490000
vt 0.250000 0.484813
vt 0.341844 0.471731
vt 0.383337 0.449553
vt 0.419706 0.419706
vt 0.449553 0.383337
vt 0.471731 0.341844
vt 0.485388 0.296822
vt 0.490000 0.250000
vt 0.485388 0.203178
vt 0.471731 0.158156
vt 0.449553 0.116663
vt 0.419706 0.080294
vt 0.383337 0.050447
vt 0.341844 0.028269
vt 0.296822 0.014612
vt 0.250000 0.010000
vt 0.203178 0.014612
vt 0.158156 0.028269
vt 0.116663 0.050447
vt 0.080294 0.080294
vt 0.050447 0.116663
vt 0.028269 0.158156
vt 0.014612 0.203178
vt 0.010000 0.250000
vt 0.014612 0.296822
vt 0.028269 0.341844
vt 0.050447 0.383337
vt 0.080294 0.419706
vt 0.116663 0.449553
vt 0.158156 0.471731
vt 0.203178 0.485388
vt 0.293958 0.470990
vt 0.289396 0.448055
vt 0.327277 0.436564
vt 0.362189 0.417903
vt 0.417903 0.362189
vt 0.436564 0.327277
vt 0.448055 0.289396
vt 0.448055 0.210604
vt 0.436564 0.172723
vt 0.417903 0.137811
vt 0.362189 0.082097
vt 0.327277 0.063436
vt 0.289396 0.051945
vt 0.210604 0.051945
vt 0.172723 0.063436
vt 0.137811 0.082097
vt 0.082097 0.137811
vt 0.063436 0.172723
vt 0.051945 0.210604
vt 0.051945 0.289396
vt 0.063436 0.327277
vt 0.082097 0.362189
vt 0.137811 0.417903
vt 0.172723 0.436564
vt 0.210604 0.448055
vt 0.360918 0.416001
vt 0.326402 0.434450
vt 0.358457 0.087683
vt 0.324706 0.069643
vt 0.416001 0.360918
vt 0.391172 0.391172
vt 0.388039 0.111961
vt 0.434450 0.326402
vt 0.412317 0.141543
vt 0.449648 0.250000
vt 0.445811 0.288949
vt 0.430357 0.175294
vt 0.445812 0.211051
vt 0.441466 0.211915
vt 0.416001 0.139082
vt 0.434450 0.173598
vt 0.445217 0.250000
vt 0.391172 0.108828
vt 0.441466 0.288085
vt 0.326402 0.065550
vt 0.360918 0.083999
vt 0.430357 0.324706
vt 0.288949 0.054188
vt 0.412317 0.358457
vt 0.211915 0.441466
vt 0.250000 0.445217
vt 0.211051 0.054188
vt 0.250000 0.050352
vt 0.388039 0.388039
vt 0.175294 0.430357
vt 0.173598 0.065550
vt 0.358457 0.412317
vt 0.141543 0.412317
vt 0.108828 0.108828
vt 0.139082 0.083999
vt 0.324706 0.430357
vt 0.111961 0.388039
vt 0.083999 0.139082
vt 0.288085 0.441466
vt 0.087683 0.358457
vt 0.054188 0.211051
vt 0.065550 0.173598
vt 0.092208 0.092208
vt 0.120398 0.069073
vt 0.120398 0.069073
vt 0.217424 0.450894
vt 0.250000 0.454103
vt 0.415088 0.130981
vt 0.394323 0.105677
vt 0.454103 0.250000
vt 0.450894 0.217424
vt 0.450894 0.217424
vt 0.372813 0.429920
vt 0.367908 0.422579
vt 0.367908 0.422579
vt 0.124794 0.437175
vt 0.127187 0.429920
vt 0.132092 0.422579
vt 0.069073 0.120398
vt 0.394323 0.394323
vt 0.415088 0.369019
vt 0.407792 0.407792
vt 0.430927 0.379602
vt 0.084912 0.369019
vt 0.105677 0.394323
vt 0.049106 0.217424
vt 0.045897 0.250000
vt 0.375206 0.437175
vt 0.379602 0.430927
vt 0.470887 0.293819
vt 0.469577 0.286292
vt 0.473152 0.250000
vt 0.029113 0.293818
vt 0.035935 0.290381
vt 0.044594 0.288658
vt 0.286292 0.469577
vt 0.250000 0.473152
vt 0.286292 0.469577
vt 0.217424 0.450894
vt 0.250000 0.451935
vt 0.211342 0.044594
vt 0.209619 0.035935
vt 0.209619 0.035935
vt 0.211342 0.044594
vt 0.379602 0.069073
vt 0.407792 0.092208
vt 0.379602 0.069073
vt 0.044594 0.288658
vt 0.035935 0.290381
vt 0.044594 0.288658
vt 0.070080 0.372813
vt 0.077421 0.367908
vt 0.070080 0.372813
vt 0.127187 0.429920
vt 0.132092 0.422579
vt 0.209619 0.464064
vt 0.211342 0.455406
vt 0.211342 0.455406
vt 0.209619 0.464064
vt 0.470887 0.206181
vt 0.464064 0.209619
vt 0.455406 0.211342
vt 0.464065 0.290381
vt 0.455406 0.288658
vt 0.455406 0.288658
vt 0.464064 0.290381
vt 0.429920 0.127187
vt 0.422579 0.132092
vt 0.429920 0.127187
vt 0.290381 0.035935
vt 0.288658 0.044594
vt 0.288658 0.044594
vt 0.290381 0.035935
vt 0.077421 0.132092
vt 0.070080 0.127187
vt 0.070080 0.127187
vt 0.127187 0.070080
vt 0.132092 0.077421
vt 0.035935 0.209619
vt 0.044594 0.211342
vt 0.044594 0.211342
vt 0.092208 0.407792
vt 0.120398 0.430927
vt 0.062825 0.375206
vt 0.069073 0.379602
vt 0.130981 0.084912
vt 0.105677 0.105677
vt 0.379602 0.430927
vt 0.469577 0.213708
vt 0.469577 0.213708
vt 0.430927 0.120398
vt 0.430927 0.120398
vt 0.250000 0.026848
vt 0.286292 0.030422
vt 0.286292 0.030422
vt 0.213708 0.030422
vt 0.069073 0.120398
vt 0.026848 0.250000
vt 0.030422 0.213708
vt 0.130981 0.415088
vt 0.069073 0.379602
vt 0.213708 0.469577
vt 0.289292 0.051806
vt 0.288658 0.044594
vt 0.290381 0.035935
vt 0.367908 0.077421
vt 0.372813 0.070080
vt 0.372813 0.070080
vt 0.049106 0.282576
vt 0.422579 0.367908
vt 0.429920 0.372813
vt 0.429920 0.372813
vt 0.422579 0.367908
vt 0.369019 0.415088
vt 0.030422 0.286292
vt 0.107210 0.107210
vt 0.450894 0.282576
vt 0.451935 0.250000
vt 0.282576 0.450894
vt 0.206181 0.470887
vt 0.369019 0.084912
vt 0.213708 0.030422
vt 0.288658 0.455406
vt 0.290381 0.464064
vt 0.288658 0.455406
vt 0.437175 0.375206
vt 0.429920 0.372813
vt 0.422579 0.367908
vt 0.293819 0.470887
vt 0.290381 0.464064
vt 0.288658 0.455405
vt 0.051806 0.210707
vt 0.044594 0.211342
vt 0.035935 0.209619
vt 0.084912 0.130981
vt 0.084912 0.130981
vt 0.417929 0.137639
vt 0.429920 0.127187
vt 0.455406 0.211342
vt 0.464065 0.209619
vt 0.464065 0.209619
vt 0.455406 0.211342
vt 0.250000 0.045897
vt 0.217424 0.049106
vt 0.211342 0.044594
vt 0.209619 0.035935
vt 0.213708 0.030422
vt 0.282576 0.049106
vt 0.469577 0.286292
vt 0.464064 0.290381
vt 0.415088 0.130981
vt 0.077421 0.132092
vt 0.070080 0.127187
vt 0.282576 0.450894
vt 0.367908 0.077421
vt 0.372813 0.070080
vt 0.132092 0.077421
vt 0.127187 0.070080
vt 0.044594 0.288658
vt 0.035935 0.290381
vt 0.044594 0.211342
vt 0.049106 0.217424
vt 0.367908 0.422579
vt 0.369019 0.415088
vt 0.372813 0.429920
vt 0.077421 0.367908
vt 0.084912 0.369019
vt 0.070080 0.372813
vt 0.217424 0.450894
vt 0.430927 0.379602
vt 0.437175 0.124794
vt 0.469577 0.213708
vt 0.417929 0.362361
vt 0.415088 0.369019
vt 0.392790 0.392790
vt 0.293819 0.029113
vt 0.448194 0.289292
vt 0.469577 0.286292
vt 0.217424 0.049106
vt 0.217424 0.049106
vt 0.448194 0.210708
vt 0.030422 0.286292
vt 0.062825 0.124794
vt 0.392790 0.107210
vt 0.289292 0.448194
vt 0.029113 0.206181
vt 0.210708 0.051806
vt 0.250000 0.048065
vt 0.107210 0.392790
vt 0.137639 0.082071
vt 0.051806 0.289292
vt 0.049106 0.282576
vt 0.048065 0.250000
vt 0.082071 0.362361
vt 0.082071 0.137639
vt 0.210708 0.448194
vt 0.211342 0.455406
vt 0.049106 0.217424
vt 0.362361 0.082071
vt 0.369019 0.084912
vt 0.206181 0.029113
vt 0.211342 0.044594
vt 0.137639 0.417929
vt 0.130981 0.415088
vt 0.124794 0.062825
vt 0.375206 0.062825
vt 0.375374 0.433753
vt 0.364682 0.418648
vt 0.362361 0.417929
vt 0.433851 0.376039
vt 0.417914 0.364791
vt 0.469126 0.209121
vt 0.449902 0.212436
vt 0.433753 0.124626
vt 0.418648 0.135318
vt 0.291280 0.031415
vt 0.288160 0.049656
vt 0.209121 0.030874
vt 0.212436 0.050098
vt 0.066149 0.123961
vt 0.082086 0.135209
vt 0.031415 0.208720
vt 0.049655 0.211840
vt 0.123961 0.433851
vt 0.135209 0.417914
vt 0.066247 0.375374
vt 0.081352 0.364682
vt 0.208720 0.468585
vt 0.211840 0.450344
vt 0.135318 0.081352
vt 0.450344 0.288160
vt 0.030874 0.290879
vt 0.124626 0.066247
vt 0.376039 0.066149
vt 0.468585 0.291280
vt 0.050098 0.287564
vt 0.364791 0.082086
vt 0.287564 0.449902
vt 0.290879 0.469126
vt 0.250000 0.440493
vt 0.287164 0.436833
vt 0.322899 0.425993
vt 0.355833 0.408390
vt 0.384699 0.384699
vt 0.408390 0.355833
vt 0.425993 0.322899
vt 0.436833 0.287163
vt 0.440494 0.250000
vt 0.436833 0.212837
vt 0.425993 0.177101
vt 0.408390 0.144167
vt 0.384699 0.115301
vt 0.355833 0.091610
vt 0.322899 0.074007
vt 0.287163 0.063167
vt 0.250000 0.059506
vt 0.212837 0.063167
vt 0.177101 0.074007
vt 0.144168 0.091610
vt 0.115301 0.115301
vt 0.091610 0.144167
vt 0.074007 0.177101
vt 0.063167 0.212837
vt 0.059506 0.250000
vt 0.063167 0.287163
vt 0.074007 0.322899
vt 0.091610 0.355833
vt 0.115301 0.384699
vt 0.144167 0.408390
vt 0.177101 0.425993
vt 0.212837 0.436833
vt 0.250000 0.477643
vt 0.211051 0.445811
vt 0.250000 0.449648
vt 0.139082 0.416001
vt 0.173598 0.434450
vt 0.108828 0.391172
vt 0.065550 0.326402
vt 0.083999 0.360918
vt 0.054188 0.288949
vt 0.050352 0.250000
vt 0.288949 0.445811
vt 0.288085 0.058534
vt 0.250000 0.054783
vt 0.211915 0.058534
vt 0.175294 0.069643
vt 0.141543 0.087683
vt 0.111961 0.111961
vt 0.087683 0.141543
vt 0.069643 0.175294
vt 0.058534 0.211915
vt 0.054783 0.250000
vt 0.058534 0.288085
vt 0.069643 0.324706
vt 0.250000 0.403378
vt 0.279922 0.400430
vt 0.358454 0.358454
vt 0.377529 0.335212
vt 0.391702 0.308695
vt 0.400431 0.279922
vt 0.403378 0.250000
vt 0.400431 0.220078
vt 0.391703 0.191305
vt 0.377529 0.164788
vt 0.358454 0.141546
vt 0.335212 0.122471
vt 0.308695 0.108298
vt 0.279922 0.099569
vt 0.250000 0.096622
vt 0.220078 0.099569
vt 0.191305 0.108298
vt 0.164788 0.122471
vt 0.141546 0.141546
vt 0.122471 0.164788
vt 0.108298 0.191305
vt 0.099569 0.220077
vt 0.096622 0.250000
vt 0.099569 0.279922
vt 0.108298 0.308695
vt 0.122471 0.335212
vt 0.141546 0.358454
vt 0.164788 0.377529
vt 0.191305 0.391703
vt 0.220078 0.400430
s 1
usemtl M_Noir_Bleuté
f 2/1/1 63/2/2 67/3/3 3/4/4
f 435/5/5 431/6/6 52/6/7 50/7/8
f 439/8/9 437/9/10 207/10/11 49/8/12
f 441/11/13 439/8/9 49/8/12 48/12/14
f 443/13/15 441/11/13 48/12/14 47/13/16
f 445/14/17 443/13/15 47/13/16 213/14/18
f 447/15/19 445/14/17 213/14/18 55/15/20
f 449/16/21 447/17/19 55/15/20 46/16/22
f 451/18/23 449/16/21 46/16/22 45/18/24
f 453/19/25 451/18/23 45/18/24 245/20/26
f 455/21/27 453/22/25 245/20/26 44/23/28
f 457/24/29 455/23/27 44/23/28 43/24/30
f 459/25/31 457/24/29 43/24/30 42/26/32
f 461/27/33 459/26/31 42/26/32 250/28/34
f 463/29/35 461/30/33 250/28/34 41/29/36
f 465/31/37 463/32/35 41/29/36 196/31/1
f 467/33/38 465/34/37 196/31/1 40/33/4
f 469/35/39 467/33/38 40/33/4 198/35/40
f 471/36/41 469/35/39 198/35/40 197/36/42
f 473/37/43 471/36/41 197/36/42 209/38/44
f 475/39/45 473/37/43 209/38/44 39/40/46
f 477/41/47 475/40/45 39/40/46 210/41/48
f 479/42/49 477/43/47 210/41/48 199/44/50
f 481/45/51 479/44/49 199/44/50 286/46/52
f 483/47/53 481/48/51 286/46/52 38/49/54
f 485/50/55 483/49/53 38/49/54 37/51/56
f 487/52/57 485/51/55 37/51/56 36/52/58
f 489/53/59 487/52/57 36/52/58 35/54/60
f 491/55/61 489/53/59 35/54/60 34/55/62
f 493/56/63 491/55/61 34/55/62 33/56/64
f 430/57/65 367/58/66 514/59/67 544/60/68
f 437/9/10 435/5/5 50/7/8 207/10/11
s 0
f 1/61/69 2/62/69 3/63/69 4/64/69 5/65/69 6/66/69 7/67/69 8/68/69 9/69/69 10/70/69 11/71/69 12/72/69 13/73/69 14/74/69 15/75/69 16/76/69 17/77/69 18/78/69 19/79/69 20/80/69 21/81/69 22/82/69 23/83/69 24/84/69 25/85/69 26/86/69 27/87/69 28/88/69 29/89/69 30/90/69 31/91/69 32/92/69
s 1
f 1/93/67 64/94/66 63/2/2 2/1/1
f 32/95/68 125/96/65 64/97/66 1/98/67
f 4/99/40 69/100/70 71/101/71 5/102/42
f 5/102/42 71/101/71 73/103/72 6/104/44
f 6/104/44 73/103/72 75/105/73 7/106/46
f 7/106/46 75/105/73 77/107/74 8/108/48
f 8/108/48 77/107/74 79/109/75 9/110/76
f 9/110/76 79/109/75 81/111/77 10/112/78
f 10/112/78 81/111/77 83/113/79 11/114/80
f 11/114/80 83/113/79 85/115/81 12/116/56
f 12/116/56 85/115/81 87/117/82 13/118/58
f 13/118/58 87/117/82 89/119/83 14/120/60
f 14/120/60 89/119/83 91/121/84 15/122/62
f 15/122/62 91/121/84 93/123/85 16/124/64
f 16/124/64 93/123/85 95/125/86 17/126/87
f 17/126/87 95/125/86 97/127/88 18/128/7
f 18/128/7 97/127/88 99/129/89 19/130/8
f 19/130/8 99/129/89 101/131/90 20/132/11
f 20/132/11 101/131/90 103/133/91 21/134/12
f 21/134/12 103/133/91 105/135/92 22/136/14
f 22/136/14 105/135/92 107/137/93 23/138/16
f 23/138/16 107/137/93 109/139/94 24/140/18
f 24/140/18 109/139/94 111/141/95 25/142/20
f 25/142/20 111/141/95 113/143/96 26/144/22
f 26/144/22 113/143/96 115/145/97 27/146/98
f 27/146/98 115/145/97 117/147/99 28/148/100
f 28/148/100 117/147/99 119/149/101 29/150/102
f 29/150/102 119/149/101 121/151/103 30/152/30
f 30/152/30 121/151/103 123/153/104 31/154/105
f 31/154/105 123/153/104 125/96/65 32/95/68
f 3/4/4 67/3/3 69/100/70 4/99/40
f 398/155/85 400/156/86 529/156/87 528/155/64
s 0
f 454/157/106 456/158/106 86/159/106 84/160/106
s 1
f 396/161/84 398/155/85 528/155/64 527/161/62
s 0
f 452/162/106 454/157/106 84/163/106 82/164/106
f 450/165/106 452/162/106 82/166/106 80/167/106
s 1
f 394/168/83 396/161/84 527/161/62 526/168/60
s 0
f 448/169/106 450/165/106 80/170/106 78/171/106
s 1
f 392/172/82 394/168/83 526/168/60 525/172/58
s 0
f 446/173/106 448/174/106 78/175/106 76/176/106
s 1
f 390/177/81 392/172/82 525/172/58 524/177/56
f 388/178/79 390/177/81 524/177/56 523/179/80
s 0
f 444/180/106 446/173/106 76/176/106 74/181/106
s 1
f 386/182/77 388/178/79 523/179/80 522/182/78
s 0
f 442/183/106 444/180/106 74/184/106 72/185/106
f 494/186/106 433/187/106 65/188/106 124/189/106
s 1
f 384/190/75 386/182/77 522/182/78 521/190/76
s 0
f 440/191/106 442/183/106 72/192/106 70/193/106
f 492/194/106 494/186/106 124/189/106 122/195/106
s 1
f 382/196/74 384/190/75 521/190/76 520/197/48
s 0
f 438/198/106 440/191/106 70/193/106 68/199/106
f 490/200/106 492/201/106 122/202/106 120/203/106
s 1
f 380/204/73 382/196/74 520/197/48 519/205/46
s 0
f 436/206/106 438/207/106 68/199/106 66/208/106
f 488/209/106 490/200/106 120/210/106 118/211/106
s 1
f 370/212/2 372/213/3 515/213/4 513/214/1
f 378/215/72 380/204/73 519/205/46 518/215/44
f 434/216/107 493/56/63 33/56/64 51/217/87
s 0
f 486/218/106 488/209/106 118/211/106 116/219/106
s 1
f 376/220/71 378/215/72 518/215/44 517/220/42
s 0
f 432/221/106 436/222/106 66/223/106 62/224/106
f 484/225/106 486/226/106 116/227/106 114/228/106
s 1
f 428/229/104 430/60/65 544/60/68 543/229/105
f 374/230/70 376/220/71 517/220/42 516/230/40
s 0
f 482/231/106 484/232/106 114/233/106 112/234/106
s 1
f 426/235/103 428/229/104 543/229/105 542/236/30
f 372/213/3 374/230/70 516/230/40 515/213/4
s 0
f 480/237/106 482/231/106 112/238/106 110/239/106
s 1
f 424/240/101 426/235/103 542/236/30 541/240/102
f 373/241/108 371/242/109 643/242/109 644/241/110
s 0
f 478/243/106 480/237/106 110/244/106 108/245/106
s 1
f 422/246/99 424/240/101 541/240/102 540/246/100
s 0
f 476/247/106 478/243/106 108/245/106 106/248/106
s 1
f 420/249/97 422/246/99 540/246/100 539/249/98
s 0
f 474/250/106 476/247/106 106/248/106 104/251/106
s 1
f 418/252/96 420/249/97 539/249/98 538/252/22
s 0
f 472/253/106 474/250/106 104/254/106 102/255/106
s 1
f 416/256/95 418/252/96 538/252/22 537/256/20
s 0
f 470/257/106 472/253/106 102/255/106 100/258/106
s 1
f 414/259/94 416/256/95 537/256/20 536/260/18
s 0
f 468/261/106 470/262/106 100/263/106 98/264/106
s 1
f 412/265/93 414/260/94 536/260/18 535/265/16
s 0
f 466/266/106 468/267/106 98/264/106 96/268/106
s 1
f 410/269/92 412/265/93 535/265/16 534/269/14
s 0
f 464/270/106 466/266/106 96/271/106 94/272/106
s 1
f 408/273/91 410/269/92 534/269/14 533/273/12
f 406/274/90 408/273/91 533/273/12 532/274/11
s 0
f 462/275/106 464/270/106 94/276/106 92/277/106
s 1
f 404/278/89 406/274/90 532/274/11 531/278/8
s 0
f 460/279/106 462/275/106 92/277/106 90/280/106
s 1
f 402/281/88 404/278/89 531/278/8 530/282/7
s 0
f 458/283/106 460/284/106 90/280/106 88/285/106
s 1
f 400/156/86 402/281/88 530/282/7 529/156/87
s 0
f 456/158/106 458/286/106 88/287/106 86/159/106
s 1
f 63/288/2 64/289/66 65/290/111 62/224/112
f 67/291/3 63/288/2 62/224/112 66/223/113
f 69/292/70 67/291/3 66/208/113 68/199/114
f 71/293/71 69/292/70 68/199/114 70/193/115
f 73/294/72 71/293/71 70/193/115 72/192/116
f 75/295/73 73/294/72 72/185/116 74/184/117
f 77/296/74 75/295/73 74/181/117 76/176/118
f 79/297/75 77/296/74 76/176/118 78/175/119
f 81/298/77 79/297/75 78/171/119 80/170/120
f 83/299/79 81/298/77 80/167/120 82/166/121
f 85/300/81 83/299/79 82/164/121 84/163/122
f 87/301/82 85/300/81 84/160/122 86/159/123
f 89/302/83 87/301/82 86/159/123 88/287/124
f 91/303/84 89/302/83 88/285/124 90/280/125
f 93/304/85 91/303/84 90/280/125 92/277/126
f 95/305/86 93/304/85 92/277/126 94/276/127
f 97/306/88 95/305/86 94/272/127 96/271/128
f 99/307/89 97/306/88 96/268/128 98/264/129
f 101/308/90 99/307/89 98/264/129 100/263/130
f 103/309/91 101/308/90 100/258/130 102/255/131
f 105/310/92 103/309/91 102/255/131 104/254/132
f 107/311/93 105/310/92 104/251/132 106/248/133
f 109/312/94 107/311/93 106/248/133 108/245/134
f 111/313/95 109/312/94 108/245/134 110/244/135
f 113/314/96 111/313/95 110/239/135 112/238/136
f 115/315/97 113/314/96 112/234/136 114/233/137
f 117/316/99 115/315/97 114/228/137 116/227/138
f 119/317/101 117/316/99 116/219/138 118/211/139
f 121/318/103 119/317/101 118/211/139 120/210/140
f 123/319/104 121/318/103 120/203/140 122/202/141
f 125/320/65 123/319/104 122/195/141 124/189/142
f 64/289/66 125/320/65 124/189/142 65/188/111
f 431/321/6 434/217/107 51/217/87 52/6/7
s 0
f 300/322/106 512/323/106 50/7/106 52/6/106
f 512/323/106 206/324/106 207/10/106 50/7/106
f 238/325/106 510/326/106 47/13/106 48/12/106
f 510/326/106 509/327/106 213/14/106 47/13/106
f 200/328/106 507/329/106 45/18/106 46/16/106
f 507/329/106 506/330/106 245/20/106 45/18/106
f 504/331/106 503/332/106 42/26/106 43/24/106
f 503/332/106 208/333/106 250/28/106 42/26/106
f 201/334/106 502/335/106 40/33/106 196/31/106
f 502/335/106 203/336/106 198/35/106 40/33/106
f 500/337/106 499/338/106 39/40/106 209/38/106
f 499/338/106 204/339/106 210/41/106 39/40/106
f 295/340/106 497/341/106 38/49/106 286/46/106
f 497/341/106 274/342/106 37/51/106 38/49/106
f 269/343/106 495/344/106 34/55/106 35/54/106
f 495/344/106 279/345/106 33/56/106 34/55/106
f 35/401/106 266/402/106 267/403/106 269/343/106
f 58/388/106 257/404/106 209/38/106 197/36/106
f 195/407/106 234/408/106 48/12/106 49/8/106
f 207/413/106 231/414/106 195/407/106 49/8/106
f 213/415/106 292/416/106 212/417/106 55/15/106
f 286/418/106 285/419/106 293/420/106 295/340/106
f 53/392/106 277/424/106 279/345/106 205/425/106
f 46/445/106 240/446/106 241/447/106 200/328/106
f 193/467/106 265/468/106 35/54/106 36/52/106
f 37/469/106 271/470/106 193/467/106 36/52/106
f 194/478/106 253/481/106 196/31/106 41/29/106
f 208/488/106 252/489/106 248/490/106 250/28/106
f 60/483/106 284/500/106 286/46/106 199/44/106
f 59/472/106 280/471/106 203/336/106 501/501/106
f 211/431/106 289/430/106 43/24/106 44/23/106
f 56/395/106 282/502/106 509/327/106 508/503/106
f 33/505/106 276/487/106 54/422/106 51/217/106
f 48/511/106 235/512/106 236/513/106 238/325/106
f 52/514/106 302/515/106 298/516/106 300/322/106
f 204/517/106 264/518/106 261/519/106 210/41/106
f 506/522/106 247/453/106 243/523/106 245/20/106
f 245/556/106 244/476/106 211/431/106 44/23/106
f 212/417/106 239/557/106 46/16/106 55/15/106
f 238/558/106 237/559/106 192/405/106 511/560/106
f 250/561/106 249/480/106 194/478/106 41/29/106
f 54/422/106 301/421/106 52/6/106 51/217/106
f 509/562/106 283/449/106 291/448/106 213/14/106
f 200/566/106 242/397/106 56/395/106 508/503/106
f 209/568/106 258/538/106 259/537/106 500/337/106
f 57/394/106 246/393/106 506/330/106 505/569/106
f 300/570/106 299/539/106 53/392/106 205/425/106
f 210/571/106 262/484/106 60/483/106 199/44/106
f 201/572/106 256/529/106 191/528/106 202/573/106
f 190/410/106 272/409/106 274/342/106 496/574/106
f 203/575/106 281/542/106 287/543/106 198/35/106
f 295/576/106 294/577/106 61/412/106 498/578/106
f 274/579/106 273/551/106 270/553/106 37/51/106
f 500/580/106 260/521/106 59/472/106 501/501/106
f 191/528/106 251/533/106 208/333/106 202/573/106
f 279/581/106 278/582/106 275/444/106 33/56/106
f 61/412/106 263/583/106 204/339/106 498/578/106
f 504/584/106 297/585/106 57/394/106 505/569/106
f 196/586/106 254/531/106 255/587/106 201/334/106
f 269/588/106 268/589/106 190/410/106 496/574/106
f 192/405/106 232/499/106 206/324/106 511/560/106
f 198/590/106 288/389/106 58/388/106 197/36/106
f 43/591/106 290/541/106 296/540/106 504/331/106
f 230/398/106 231/592/106 207/413/106
f 232/499/106 233/593/106 206/594/106
f 234/408/106 235/595/106 48/511/106
f 236/495/106 237/596/106 238/558/106
f 239/474/106 240/597/106 46/445/106
f 241/524/106 242/598/106 200/566/106
f 243/452/106 244/599/106 245/556/106
f 246/393/106 247/600/106 506/522/106
f 248/455/106 249/601/106 250/561/106
f 251/533/106 252/602/106 208/488/106
f 253/507/106 254/603/106 196/586/106
f 255/426/106 256/604/106 201/572/106
f 257/404/106 258/605/106 209/568/106
f 259/459/106 260/606/106 500/580/106
f 261/464/106 262/607/106 210/571/106
f 263/411/106 264/608/106 204/517/106
f 265/468/106 266/609/106 35/401/106
f 267/403/106 268/610/106 269/588/106
f 270/436/106 271/611/106 37/469/106
f 272/409/106 273/612/106 274/579/106
f 275/441/106 276/613/106 33/505/106
f 277/391/106 278/614/106 279/581/106
f 280/471/106 281/615/106 203/575/106
f 282/502/106 283/616/106 509/562/106
f 284/567/106 285/617/106 286/418/106
f 287/462/106 288/618/106 198/590/106
f 289/430/106 290/619/106 43/591/106
f 291/448/106 292/620/106 213/415/106
f 293/433/106 294/621/106 295/576/106
f 296/491/106 297/622/106 504/584/106
f 298/508/106 299/623/106 300/570/106
f 301/421/106 302/624/106 52/514/106
f 206/594/106 233/548/106 230/550/106 207/10/106
s 1
f 370/214/2 367/58/66 609/625/111 610/626/112
f 372/213/3 370/212/2 610/626/112 611/627/113
f 374/230/70 372/213/3 611/627/113 612/628/114
f 376/220/71 374/230/70 612/628/114 613/629/115
f 378/215/72 376/220/71 613/629/115 614/630/116
f 380/204/73 378/215/72 614/630/116 615/631/117
f 382/196/74 380/204/73 615/631/117 616/632/118
f 384/190/75 382/196/74 616/632/118 617/633/119
f 386/182/77 384/190/75 617/633/119 618/634/120
f 388/178/79 386/182/77 618/634/120 619/635/121
f 390/177/81 388/178/79 619/635/121 620/636/122
f 392/172/82 390/177/81 620/636/122 621/637/123
f 394/168/83 392/172/82 621/637/123 622/638/124
f 396/161/84 394/168/83 622/638/124 623/639/125
f 398/155/85 396/161/84 623/639/125 624/640/126
f 400/156/86 398/155/85 624/640/126 625/641/127
f 402/281/88 400/156/86 625/641/127 626/642/128
f 404/278/89 402/281/88 626/642/128 627/643/129
f 406/274/90 404/278/89 627/643/129 628/644/130
f 408/273/91 406/274/90 628/644/130 629/645/131
f 410/269/92 408/273/91 629/645/131 630/646/132
f 412/265/93 410/269/92 630/646/132 631/647/133
f 414/260/94 412/265/93 631/647/133 632/648/134
f 416/256/95 414/259/94 632/648/134 633/649/135
f 418/252/96 416/256/95 633/649/135 634/650/136
f 420/249/97 418/252/96 634/650/136 635/651/137
f 422/246/99 420/249/97 635/651/137 636/652/138
f 424/240/101 422/246/99 636/652/138 637/653/139
f 426/235/103 424/240/101 637/653/139 638/654/140
f 428/229/104 426/235/103 638/654/140 639/655/141
f 430/60/65 428/229/104 639/655/141 640/656/142
f 367/58/66 430/57/65 640/656/142 609/625/111
f 367/58/66 370/214/2 513/214/1 514/59/67
f 432/221/128 433/657/127 434/217/107 431/321/6
f 436/222/129 432/221/128 431/6/6 435/5/5
f 438/207/130 436/206/129 435/5/5 437/9/10
f 440/191/131 438/198/130 437/9/10 439/8/9
f 442/183/132 440/191/131 439/8/9 441/11/13
f 444/180/133 442/183/132 441/11/13 443/13/15
f 446/173/134 444/180/133 443/13/15 445/14/17
f 448/174/135 446/173/134 445/14/17 447/15/19
f 450/165/136 448/169/135 447/17/19 449/16/21
f 452/162/137 450/165/136 449/16/21 451/18/23
f 454/157/138 452/162/137 451/18/23 453/19/25
f 456/158/139 454/157/138 453/22/25 455/21/27
f 458/286/140 456/158/139 455/23/27 457/24/29
f 460/284/141 458/283/140 457/24/29 459/25/31
f 462/275/142 460/279/141 459/26/31 461/27/33
f 464/270/111 462/275/142 461/30/33 463/29/35
f 466/266/112 464/270/111 463/32/35 465/31/37
f 468/267/113 466/266/112 465/34/37 467/33/38
f 470/262/114 468/261/113 467/33/38 469/35/39
f 472/253/115 470/257/114 469/35/39 471/36/41
f 474/250/116 472/253/115 471/36/41 473/37/43
f 476/247/117 474/250/116 473/37/43 475/39/45
f 478/243/118 476/247/117 475/40/45 477/41/47
f 480/237/119 478/243/118 477/43/47 479/42/49
f 482/231/120 480/237/119 479/44/49 481/45/51
f 484/232/121 482/231/120 481/48/51 483/47/53
f 486/226/122 484/225/121 483/49/53 485/50/55
f 488/209/123 486/218/122 485/51/55 487/52/57
f 490/200/124 488/209/123 487/52/57 489/53/59
f 492/201/125 490/200/124 489/53/59 491/55/61
f 494/186/126 492/194/125 491/55/61 493/56/63
f 433/187/127 494/186/126 493/56/63 434/216/107
s 0
f 433/657/106 432/221/106 62/224/106 65/290/106
f 368/680/106 369/681/106 610/626/106 609/625/106
f 369/681/106 371/242/106 611/627/106 610/626/106
f 371/242/106 373/241/106 612/628/106 611/627/106
f 373/241/106 375/682/106 613/629/106 612/628/106
f 375/682/106 377/683/106 614/630/106 613/629/106
f 377/683/106 379/684/106 615/631/106 614/630/106
f 379/684/106 381/685/106 616/632/106 615/631/106
f 381/685/106 383/686/106 617/633/106 616/632/106
f 383/686/106 385/687/106 618/634/106 617/633/106
f 385/687/106 387/688/106 619/635/106 618/634/106
f 387/688/106 389/689/106 620/636/106 619/635/106
f 389/689/106 391/690/106 621/637/106 620/636/106
f 391/690/106 393/691/106 622/638/106 621/637/106
f 393/691/106 395/692/106 623/639/106 622/638/106
f 395/692/106 397/693/106 624/640/106 623/639/106
f 397/693/106 399/694/106 625/641/106 624/640/106
f 399/694/106 401/695/106 626/642/106 625/641/106
f 401/695/106 403/696/106 627/643/106 626/642/106
f 403/696/106 405/697/106 628/644/106 627/643/106
f 405/697/106 407/698/106 629/645/106 628/644/106
f 407/698/106 409/699/106 630/646/106 629/645/106
f 409/699/106 411/700/106 631/647/106 630/646/106
f 411/700/106 413/701/106 632/648/106 631/647/106
f 413/701/106 415/702/106 633/649/106 632/648/106
f 415/702/106 417/703/106 634/650/106 633/649/106
f 417/703/106 419/704/106 635/651/106 634/650/106
f 419/704/106 421/705/106 636/652/106 635/651/106
f 421/705/106 423/706/106 637/653/106 636/652/106
f 423/706/106 425/707/106 638/654/106 637/653/106
f 425/707/106 427/708/106 639/655/106 638/654/106
f 427/708/106 429/709/106 640/656/106 639/655/106
f 429/709/106 368/680/106 609/625/106 640/656/106
f 642/681/106 641/680/106 672/709/106 671/708/106 670/707/106 669/706/106 668/705/106 667/704/106 666/703/106 665/702/106 664/701/106 663/700/106 662/699/106 661/698/106 660/697/106 659/696/106 658/695/106 657/694/106 656/693/106 655/692/106 654/691/106 653/690/106 652/689/106 651/688/106 650/687/106 649/686/106 648/685/106 647/684/106 646/683/106 645/682/106 644/241/106 643/242/106
s 1
f 427/708/191 425/707/192 670/707/192 671/708/191
f 401/695/193 399/694/194 657/694/194 658/695/193
f 375/682/195 373/241/108 644/241/110 645/682/195
f 429/709/196 427/708/191 671/708/191 672/709/196
f 403/696/197 401/695/193 658/695/193 659/696/197
f 377/683/198 375/682/195 645/682/195 646/683/198
f 368/680/199 429/709/196 672/709/196 641/680/199
f 405/697/200 403/696/197 659/696/197 660/697/200
f 379/684/201 377/683/198 646/683/198 647/684/201
f 407/698/202 405/697/200 660/697/200 661/698/202
f 381/685/203 379/684/201 647/684/201 648/685/203
f 409/699/204 407/698/202 661/698/202 662/699/204
f 383/686/205 381/685/203 648/685/203 649/686/205
f 411/700/206 409/699/204 662/699/204 663/700/206
f 385/687/207 383/686/205 649/686/205 650/687/207
f 413/701/208 411/700/206 663/700/206 664/701/208
f 387/688/209 385/687/207 650/687/207 651/688/209
f 415/702/210 413/701/208 664/701/208 665/702/210
f 389/689/211 387/688/209 651/688/209 652/689/211
f 417/703/212 415/702/210 665/702/210 666/703/212
f 391/690/213 389/689/211 652/689/211 653/690/213
f 419/704/214 417/703/212 666/703/212 667/704/214
f 393/691/215 391/690/213 653/690/213 654/691/216
f 421/705/217 419/704/214 667/704/214 668/705/217
f 395/692/218 393/691/215 654/691/216 655/692/218
f 369/681/219 368/680/199 641/680/199 642/681/219
f 423/706/220 421/705/217 668/705/217 669/706/220
f 397/693/221 395/692/218 655/692/218 656/693/221
f 371/242/109 369/681/219 642/681/219 643/242/109
f 425/707/192 423/706/220 669/706/220 670/707/192
f 399/694/194 397/693/221 656/693/221 657/694/194
s 0
usemtl M_Noir_Profond
f 129/346/143 128/347/143 550/347/143 552/346/143
f 171/348/144 172/349/144 573/349/144 571/348/144
f 131/350/145 130/351/145 554/351/145 556/350/145
f 170/352/146 171/348/146 571/348/146 569/352/146
f 132/353/147 131/350/147 556/350/147 558/353/147
f 169/354/148 170/352/148 569/352/148 567/354/148
f 134/355/149 133/356/149 560/356/149 562/355/149
f 168/357/150 169/354/150 567/354/150 565/357/150
f 135/358/151 134/355/151 562/355/151 564/358/151
f 167/359/152 168/357/152 565/357/152 563/359/152
f 137/360/153 136/361/153 566/361/153 568/360/153
f 166/362/154 167/359/154 563/359/154 561/362/154
f 138/363/155 137/360/155 568/360/155 570/363/155
f 165/364/156 166/362/156 561/362/156 559/364/156
f 140/365/157 139/366/157 572/366/157 574/365/157
f 164/367/158 165/364/158 559/364/158 557/367/158
f 141/368/159 140/365/159 574/365/159 576/368/159
f 163/369/160 164/367/160 557/367/160 555/369/160
f 189/370/161 159/371/161 546/371/161 607/370/161
f 143/372/162 142/373/162 578/373/162 580/372/162
f 162/374/163 163/369/163 555/369/163 553/374/163
f 188/375/159 189/370/159 607/370/159 605/375/159
f 144/376/164 143/372/164 580/372/164 582/376/164
f 161/377/165 162/374/165 553/374/165 551/377/165
f 187/378/157 188/375/157 605/375/157 603/378/157
f 146/379/165 145/380/165 584/380/165 586/379/165
f 160/381/166 161/377/166 551/377/166 549/381/166
f 186/382/167 187/378/167 603/378/167 601/382/167
f 147/383/163 146/379/163 586/379/163 588/383/163
f 158/384/164 160/381/164 549/381/164 547/384/164
f 185/385/155 186/382/155 601/382/155 599/385/155
f 149/386/158 148/387/158 590/387/158 592/386/158
f 58/388/165 288/389/165 305/390/165 221/388/165
f 277/391/161 53/392/161 215/392/161 334/391/161
f 246/393/148 57/394/148 218/394/148 322/393/148
f 56/395/154 242/396/154 319/397/154 216/395/154
f 230/398/56 233/399/56 335/400/56 338/398/56
f 192/405/163 237/406/163 315/406/163 228/405/163
f 272/409/155 190/410/155 224/410/155 354/409/155
f 263/411/149 61/412/149 222/412/149 330/411/149
f 301/421/168 54/422/168 214/422/168 366/423/168
f 255/426/78 254/427/78 303/428/78 324/429/78
f 289/430/167 211/431/167 219/431/167 356/432/167
f 293/433/7 285/434/7 307/434/7 360/435/7
f 270/436/40 273/437/40 353/437/40 310/438/40
f 267/403/14 266/439/14 311/439/14 332/440/14
f 275/441/48 278/442/48 333/443/48 314/444/48
f 291/448/64 283/449/64 317/450/64 358/451/64
f 243/452/11 247/453/11 321/453/11 344/454/11
f 248/455/18 252/456/18 345/457/18 348/458/18
f 259/459/60 258/460/60 349/461/60 328/459/60
f 287/462/100 281/463/100 325/463/100 306/462/100
f 261/464/68 264/465/68 329/466/68 352/464/68
f 280/471/169 59/472/169 220/472/169 326/471/169
f 195/407/169 231/473/169 337/414/169 229/407/169
f 234/408/145 195/407/145 229/407/145 340/408/145
f 239/474/151 212/417/151 217/417/151 342/475/151
f 211/431/155 244/476/155 343/477/155 219/431/155
f 194/478/161 249/479/161 347/480/161 227/478/161
f 257/404/163 58/388/163 221/388/163 350/482/163
f 60/483/156 262/484/156 351/484/156 223/483/156
f 190/410/167 268/485/167 331/485/167 224/410/167
f 193/467/148 271/470/148 309/486/148 225/467/148
f 54/422/170 276/487/170 313/487/170 214/422/170
f 296/491/44 290/492/44 355/493/44 362/491/44
f 61/412/151 294/494/151 359/494/151 222/412/151
f 236/495/30 235/496/30 339/497/30 316/498/30
f 232/499/165 192/405/165 228/405/165 336/499/165
f 53/392/162 299/504/162 363/504/162 215/392/162
f 57/394/146 297/506/146 361/506/146 218/394/146
f 253/507/162 194/478/162 227/478/162 304/507/162
f 298/508/22 302/509/22 365/509/22 364/510/22
f 59/472/145 260/520/145 327/521/145 220/472/145
f 241/524/1 240/525/1 341/526/1 320/527/1
f 282/502/156 56/395/156 216/395/156 318/502/156
f 212/417/149 292/563/149 357/563/149 217/417/149
f 191/528/168 256/564/168 323/565/168 226/528/168
f 284/567/154 60/483/154 223/483/154 308/500/154
f 265/468/146 193/467/146 225/467/146 312/468/146
f 251/533/170 191/528/170 226/528/170 346/533/170
f 232/499/171 336/499/171 335/400/171 233/399/171
f 291/448/172 358/451/172 357/563/172 292/563/172
f 307/434/173 285/434/173 284/567/173 308/500/173
f 298/508/174 364/510/174 363/504/174 299/504/174
f 333/443/175 278/442/175 277/391/175 334/391/175
f 337/414/176 231/473/176 230/398/176 338/398/176
f 261/464/175 352/464/175 351/484/175 262/484/175
f 270/436/171 310/438/171 309/486/171 271/470/171
f 339/497/177 235/496/177 234/408/177 340/408/177
f 315/406/178 237/406/178 236/495/178 316/498/178
f 349/461/179 258/460/179 257/404/179 350/482/179
f 311/439/180 266/439/180 265/468/180 312/468/180
f 239/474/174 342/475/174 341/526/174 240/525/174
f 319/397/181 242/396/181 241/524/181 320/527/181
f 243/452/182 344/454/182 343/477/182 244/476/182
f 275/441/183 314/444/183 313/487/183 276/487/183
f 359/494/184 294/494/184 293/433/184 360/435/184
f 246/393/176 322/393/176 321/453/176 247/453/176
f 280/471/182 326/471/182 325/463/182 281/463/182
f 305/390/185 288/389/185 287/462/185 306/462/185
f 251/533/172 346/533/172 345/457/172 252/456/172
f 347/480/186 249/479/186 248/455/186 348/458/186
f 365/509/184 302/509/184 301/421/184 366/423/184
f 317/450/183 283/449/183 282/502/183 318/502/183
f 289/430/178 356/432/178 355/493/178 290/492/178
f 361/506/179 297/506/179 296/491/179 362/491/179
f 253/507/181 304/507/181 303/428/181 254/427/181
f 323/565/173 256/564/173 255/426/173 324/429/173
f 327/521/180 260/520/180 259/459/180 328/459/180
f 263/411/186 330/411/186 329/466/186 264/465/186
f 353/437/185 273/437/185 272/409/185 354/409/185
f 331/485/177 268/485/177 267/403/177 332/440/177
f 157/658/106 127/659/106 205/425/106 279/345/106
f 155/660/106 156/661/106 495/344/106 269/343/106
f 154/662/106 155/660/106 269/343/106 496/574/106
f 152/663/106 153/664/106 274/342/106 497/341/106
f 151/665/106 152/663/106 497/341/106 295/340/106
f 149/386/106 150/666/106 498/578/106 204/339/106
f 148/387/106 149/386/106 204/339/106 499/338/106
f 146/379/106 147/383/106 500/337/106 501/501/106
f 145/380/106 146/379/106 501/501/106 203/336/106
f 143/372/106 144/376/106 502/335/106 201/334/106
f 142/373/106 143/372/106 201/334/106 202/573/106
f 140/365/106 141/368/106 208/333/106 503/332/106
f 139/366/106 140/365/106 503/332/106 504/331/106
f 137/360/106 138/363/106 505/569/106 506/330/106
f 136/361/106 137/360/106 506/330/106 507/329/106
f 134/355/106 135/358/106 200/328/106 508/503/106
f 133/356/106 134/355/106 508/503/106 509/327/106
f 131/350/106 132/353/106 510/326/106 238/325/106
f 130/351/106 131/350/106 238/325/106 511/560/106
f 128/347/106 129/346/106 206/324/106 512/323/106
f 126/667/106 128/347/106 512/323/106 300/322/106
f 156/661/106 157/658/106 279/345/106 495/344/106
f 153/664/106 154/662/106 496/574/106 274/342/106
f 150/666/106 151/665/106 295/340/106 498/578/106
f 147/383/106 148/387/106 499/338/106 500/337/106
f 144/376/106 145/380/106 203/336/106 502/335/106
f 141/368/106 142/373/106 202/573/106 208/333/106
f 138/363/106 139/366/106 504/331/106 505/569/106
f 135/358/106 136/361/106 507/329/106 200/328/106
f 132/353/106 133/356/106 509/327/106 510/326/106
f 129/346/106 130/351/106 511/560/106 206/324/106
f 127/659/106 126/667/106 300/322/106 205/425/106
f 158/384/106 159/371/106 514/59/106 513/214/106
f 160/381/106 158/384/106 513/214/106 515/213/106
f 161/377/106 160/381/106 515/213/106 516/230/106
f 162/374/106 161/377/106 516/230/106 517/220/106
f 163/369/106 162/374/106 517/220/106 518/215/106
f 164/367/106 163/369/106 518/215/106 519/205/106
f 165/364/106 164/367/106 519/205/106 520/197/106
f 166/362/106 165/364/106 520/197/106 521/190/106
f 167/359/106 166/362/106 521/190/106 522/182/106
f 168/357/106 167/359/106 522/182/106 523/179/106
f 169/354/106 168/357/106 523/179/106 524/177/106
f 170/352/106 169/354/106 524/177/106 525/172/106
f 171/348/106 170/352/106 525/172/106 526/168/106
f 172/349/106 171/348/106 526/168/106 527/161/106
f 173/668/106 172/349/106 527/161/106 528/155/106
f 174/669/106 173/668/106 528/155/106 529/156/106
f 175/670/106 174/669/106 529/156/106 530/282/106
f 176/671/106 175/670/106 530/282/106 531/278/106
f 177/672/106 176/671/106 531/278/106 532/274/106
f 178/673/106 177/672/106 532/274/106 533/273/106
f 179/674/106 178/673/106 533/273/106 534/269/106
f 180/675/106 179/674/106 534/269/106 535/265/106
f 181/676/106 180/675/106 535/265/106 536/260/106
f 182/677/106 181/676/106 536/260/106 537/256/106
f 183/678/106 182/677/106 537/256/106 538/252/106
f 184/679/106 183/678/106 538/252/106 539/249/106
f 185/385/106 184/679/106 539/249/106 540/246/106
f 186/382/106 185/385/106 540/246/106 541/240/106
f 187/378/106 186/382/106 541/240/106 542/236/106
f 188/375/106 187/378/106 542/236/106 543/229/106
f 189/370/106 188/375/106 543/229/106 544/60/106
f 159/371/106 189/370/106 544/60/106 514/59/106
f 172/349/187 173/668/187 575/668/187 573/349/187
f 128/347/188 126/667/188 548/667/188 550/347/188
f 173/668/170 174/669/170 577/669/170 575/668/170
f 157/658/187 156/661/187 606/661/187 608/658/187
f 174/669/168 175/670/168 579/670/168 577/669/168
f 154/662/148 153/664/148 600/664/148 602/662/148
f 175/670/188 176/671/188 581/671/188 579/670/188
f 151/665/154 150/666/154 594/666/154 596/665/154
f 176/671/143 177/672/143 583/672/143 581/671/143
f 148/387/160 147/383/160 588/383/160 590/387/160
f 177/672/169 178/673/169 585/673/169 583/672/169
f 145/380/166 144/376/166 582/376/166 584/380/166
f 178/673/145 179/674/145 587/674/145 585/673/145
f 142/373/161 141/368/161 576/368/161 578/373/161
f 127/659/170 157/658/170 608/658/170 545/659/170
f 179/674/147 180/675/147 589/675/147 587/674/147
f 139/366/167 138/363/167 570/363/167 572/366/167
f 156/661/144 155/660/144 604/660/144 606/661/144
f 180/675/189 181/676/189 591/676/189 589/675/189
f 136/361/190 135/358/190 564/358/190 566/361/190
f 155/660/146 154/662/146 602/662/146 604/660/146
f 181/676/149 182/677/149 593/677/149 591/676/149
f 133/356/189 132/353/189 558/353/189 560/356/189
f 153/664/150 152/663/150 598/663/150 600/664/150
f 182/677/151 183/678/151 595/678/151 593/677/151
f 130/351/169 129/346/169 552/346/169 554/351/169
f 152/663/152 151/665/152 596/665/152 598/663/152
f 183/678/190 184/679/190 597/679/190 595/678/190
f 126/667/168 127/659/168 545/659/168 548/667/168
f 150/666/156 149/386/156 592/386/156 594/666/156
f 184/679/153 185/385/153 599/385/153 597/679/153
f 159/371/162 158/384/162 547/384/162 546/371/162
usemtl M_Cyan
f 226/528/106 323/529/106 324/530/106 303/531/106 304/532/106 227/478/106
f 345/489/106 346/533/106 226/528/106 227/478/106 347/480/106 348/490/106
f 317/449/106 318/502/106 216/395/106 217/417/106 357/534/106 358/535/106
f 216/395/106 319/396/106 320/527/106 341/525/106 342/474/106 217/417/106
f 321/453/106 322/536/106 218/394/106 219/431/106 343/477/106 344/523/106
f 220/472/106 327/521/106 328/537/106 349/538/106 350/482/106 221/388/106
f 215/392/106 363/539/106 364/516/106 365/509/106 366/421/106 214/422/106
f 218/394/106 361/506/106 362/540/106 355/541/106 356/432/106 219/431/106
f 325/542/106 326/471/106 220/472/106 221/388/106 305/390/106 306/543/106
f 222/412/106 359/494/106 360/544/106 307/545/106 308/500/106 223/483/106
f 329/546/106 330/547/106 222/412/106 223/483/106 351/484/106 352/519/106
f 335/548/106 336/549/106 228/405/106 229/407/106 337/414/106 338/550/106
f 353/551/106 354/552/106 224/410/106 225/467/106 309/486/106 310/553/106
f 224/410/106 331/485/106 332/403/106 311/402/106 312/468/106 225/467/106
f 333/442/106 334/554/106 215/392/106 214/422/106 313/487/106 314/444/106
f 228/405/106 315/406/106 316/513/106 339/512/106 340/555/106 229/407/106
usemtl M_Orange
f 546/371/106 547/384/106 548/667/106 545/659/106
f 547/384/106 549/381/106 550/347/106 548/667/106
f 549/381/106 551/377/106 552/346/106 550/347/106
f 551/377/106 553/374/106 554/351/106 552/346/106
f 553/374/106 555/369/106 556/350/106 554/351/106
f 555/369/106 557/367/106 558/353/106 556/350/106
f 557/367/106 559/364/106 560/356/106 558/353/106
f 559/364/106 561/362/106 562/355/106 560/356/106
f 561/362/106 563/359/106 564/358/106 562/355/106
f 563/359/106 565/357/106 566/361/106 564/358/106
f 565/357/106 567/354/106 568/360/106 566/361/106
f 567/354/106 569/352/106 570/363/106 568/360/106
f 569/352/106 571/348/106 572/366/106 570/363/106
f 571/348/106 573/349/106 574/365/106 572/366/106
f 573/349/106 575/668/106 576/368/106 574/365/106
f 575/668/106 577/669/106 578/373/106 576/368/106
f 577/669/106 579/670/106 580/372/106 578/373/106
f 579/670/106 581/671/106 582/376/106 580/372/106
f 581/671/106 583/672/106 584/380/106 582/376/106
f 583/672/106 585/673/106 586/379/106 584/380/106
f 585/673/106 587/674/106 588/383/106 586/379/106
f 587/674/106 589/675/106 590/387/106 588/383/106
f 589/675/106 591/676/106 592/386/106 590/387/106
f 591/676/106 593/677/106 594/666/106 592/386/106
f 593/677/106 595/678/106 596/665/106 594/666/106
f 595/678/106 597/679/106 598/663/106 596/665/106
f 597/679/106 599/385/106 600/664/106 598/663/106
f 599/385/106 601/382/106 602/662/106 600/664/106
f 601/382/106 603/378/106 604/660/106 602/662/106
f 603/378/106 605/375/106 606/661/106 604/660/106
f 605/375/106 607/370/106 608/658/106 606/661/106
f 607/370/106 546/371/106 545/659/106 608/658/106
