# Blender 4.2.3 LTS
# www.blender.org
mtllib SM_Light_Bar.mtl
o SM_Light_Bar
v -0.026427 -0.000000 0.473989
v -0.026427 0.003164 0.477154
v -0.029592 0.003164 0.473989
v -0.026427 0.017916 0.477154
v -0.026427 0.021080 0.473989
v -0.029592 0.017916 0.473989
v -0.026427 -0.000000 -0.473990
v -0.029592 0.003164 -0.473990
v -0.026427 0.003164 -0.477154
v -0.026427 0.021080 -0.473990
v -0.026427 0.017916 -0.477154
v -0.029592 0.017916 -0.473990
v 0.026427 -0.000000 0.473989
v 0.029591 0.005860 0.471294
v 0.026427 0.003164 0.477154
v 0.026427 0.021080 0.473989
v 0.026427 0.017916 0.477154
v 0.029591 0.015221 0.471294
v 0.026427 -0.000000 -0.473990
v 0.026427 0.003164 -0.477154
v 0.029591 0.005860 -0.471295
v 0.026427 0.021080 -0.473990
v 0.029591 0.015221 -0.471295
v 0.026427 0.017916 -0.477154
v 0.029591 0.017916 -0.473990
v 0.029591 0.003164 -0.473990
v 0.029591 0.003164 0.473989
v 0.029591 0.017916 0.473989
v 0.028224 0.014362 -0.470436
v 0.028224 0.006718 -0.470436
v 0.028224 0.006718 0.470435
v 0.028224 0.014362 0.470435
v 0.028224 0.015221 -0.471295
v 0.028224 0.005860 -0.471295
v 0.028224 0.005860 0.471294
v 0.028224 0.015221 0.471294
v 0.027313 0.014362 -0.470436
v 0.027313 0.006718 -0.470436
v 0.027313 0.006718 0.470435
v 0.027313 0.014362 0.470435
vn -0.0000 -0.0000 1.0000
vn -0.0000 -0.0000 -1.0000
vn -0.0000 1.0000 -0.0000
vn -1.0000 -0.0000 -0.0000
vn -0.5774 -0.5773 0.5773
vn -0.5774 0.5773 0.5773
vn -0.5774 -0.5773 -0.5773
vn -0.5774 0.5773 -0.5773
vn 0.5774 -0.5773 0.5774
vn 0.5774 0.5773 0.5774
vn 0.5774 -0.5773 -0.5773
vn 0.5774 0.5773 -0.5774
vn -0.7071 -0.7071 -0.0000
vn -0.7071 -0.0000 0.7071
vn -0.7071 0.7071 -0.0000
vn -0.7071 -0.0000 -0.7071
vn -0.0000 -0.7071 -0.7071
vn -0.0000 0.7071 -0.7071
vn 0.7071 -0.0000 -0.7071
vn 0.7071 -0.7071 -0.0000
vn 0.7071 0.7071 -0.0000
vn 0.7071 -0.0000 0.7071
vn -0.0000 -0.7071 0.7071
vn -0.0000 0.7071 0.7071
vn -0.0000 -1.0000 -0.0000
vn 1.0000 -0.0000 -0.0000
vt 0.412529 0.763367
vt 0.587471 0.763367
vt 0.587471 0.986633
vt 0.412529 0.986633
vt 0.555510 0.748465
vt 0.444490 0.748465
vt 0.638367 0.500829
vt 0.861633 0.500829
vt 0.861633 0.749171
vt 0.638367 0.749171
vt 0.412529 0.000829
vt 0.587471 0.000829
vt 0.587471 0.249171
vt 0.412529 0.249171
vt 0.412529 0.263367
vt 0.587471 0.263367
vt 0.587471 0.486633
vt 0.412529 0.486633
vt 0.138367 0.749171
vt 0.138367 0.750000
vt 0.125000 0.749171
vt 0.625000 0.986633
vt 0.587471 1.000000
vt 0.138367 0.500829
vt 0.125000 0.500829
vt 0.138367 0.500000
vt 0.625000 0.263367
vt 0.587471 0.250000
vt 0.361633 0.749171
vt 0.375000 0.749171
vt 0.361633 0.750000
vt 0.625000 0.763367
vt 0.587471 0.750000
vt 0.361633 0.500829
vt 0.361633 0.500000
vt 0.375000 0.500829
vt 0.625000 0.500829
vt 0.587471 0.500829
vt 0.587471 0.500000
vt 0.412529 0.000000
vt 0.587471 0.000000
vt 0.625000 0.000829
vt 0.625000 0.249171
vt 0.625000 0.486633
vt 0.412529 0.500829
vt 0.412529 0.749171
vt 0.587471 0.749171
vt 0.555510 0.501535
vt 0.444490 0.501535
vt 0.545323 0.501760
vt 0.545323 0.748240
vt 0.454677 0.501760
vt 0.454677 0.748240
s 0
usemtl M_Noir_Bleuté
f 15/1/1 17/2/1 4/3/1 2/4/1
f 18/5/2 14/6/2 35/6/2 36/5/2
f 22/7/3 10/8/3 5/9/3 16/10/3
f 3/11/4 6/12/4 12/13/4 8/14/4
f 9/15/2 11/16/2 24/17/2 20/18/2
f 1/19/5 2/20/5 3/21/5
f 4/3/6 5/22/6 6/23/6
f 7/24/7 8/25/7 9/26/7
f 10/27/8 11/16/8 12/28/8
f 13/29/9 27/30/9 15/31/9
f 16/32/10 17/2/10 28/33/10
f 19/34/11 20/35/11 26/36/11
f 22/37/12 25/38/12 24/39/12
f 7/24/13 1/19/13 3/21/13 8/25/13
f 2/40/14 4/41/14 6/12/14 3/11/14
f 5/42/15 10/43/15 12/13/15 6/12/15
f 11/16/16 9/15/16 8/14/16 12/13/16
f 19/34/17 7/24/17 9/26/17 20/35/17
f 10/27/18 22/44/18 24/17/18 11/16/18
f 25/38/19 26/45/19 20/18/19 24/17/19
f 13/29/20 19/34/20 26/45/20 27/46/20
f 22/7/21 16/10/21 28/47/21 25/38/21
f 17/2/22 15/1/22 27/46/22 28/47/22
f 1/19/23 13/29/23 15/31/23 2/20/23
f 16/32/24 5/22/24 4/3/24 17/2/24
f 7/24/25 19/34/25 13/29/25 1/19/25
f 23/48/26 21/49/26 26/45/26 25/38/26
f 21/49/26 14/6/26 27/46/26 26/45/26
f 18/5/26 23/48/26 25/38/26 28/47/26
f 14/6/26 18/5/26 28/47/26 27/46/26
f 14/6/3 21/49/3 34/49/3 35/6/3
f 23/48/25 18/5/25 36/5/25 33/48/25
f 21/49/1 23/48/1 33/48/1 34/49/1
usemtl M_Noir_Profond
f 29/50/25 32/51/25 40/51/25 37/50/25
f 29/50/26 30/52/26 34/49/26 33/48/26
f 30/52/26 31/53/26 35/6/26 34/49/26
f 32/51/26 29/50/26 33/48/26 36/5/26
f 31/53/26 32/51/26 36/5/26 35/6/26
f 30/52/1 29/50/1 37/50/1 38/52/1
f 32/51/2 31/53/2 39/53/2 40/51/2
f 31/53/3 30/52/3 38/52/3 39/53/3
usemtl M_Cyan
f 38/52/26 37/50/26 40/51/26 39/53/26
