# Blender 4.2.3 LTS
# www.blender.org
mtllib SM_Operator_Command_Chair.mtl
o SM_Operator_Command_Chair
v -0.238891 0.000000 -0.137550
v -0.238891 0.000000 0.136912
v 0.239616 0.000000 0.136912
v 0.239616 0.000000 -0.137550
v -0.238891 0.000000 -0.128401
v -0.238891 0.000000 0.127763
v 0.239616 0.000000 0.127763
v 0.239616 0.000000 -0.128401
v 0.239616 0.022825 -0.137550
v 0.239616 0.022825 0.136912
v -0.238891 0.022825 0.136912
v -0.238891 0.022825 -0.137550
v -0.238224 0.029525 0.122362
v -0.238224 0.029525 -0.122999
v 0.238949 0.029525 -0.122999
v 0.238949 0.029525 0.122362
v -0.198429 0.102514 0.136912
v -0.238891 0.056091 0.136912
v -0.238891 0.056091 -0.137550
v -0.198429 0.102514 -0.137550
v 0.199153 0.102514 -0.137550
v 0.239616 0.056091 -0.137550
v 0.239616 0.056091 0.136912
v 0.199153 0.102514 0.136912
v -0.236226 0.049598 0.122362
v -0.236226 0.049598 -0.122999
v 0.236951 0.049598 -0.122999
v 0.236951 0.049598 0.122362
v -0.198703 0.000000 0.238935
v -0.238891 0.000000 0.199070
v -0.238891 0.000000 -0.199708
v -0.198703 0.000000 -0.239572
v 0.239616 0.000000 0.199070
v 0.199427 0.000000 0.238935
v 0.199427 0.000000 -0.239572
v 0.239616 0.000000 -0.199708
v -0.198616 0.022825 0.238935
v -0.238891 0.022825 0.198997
v -0.238891 0.022825 -0.199634
v -0.198616 0.022825 -0.239572
v 0.199341 0.022825 -0.239572
v 0.239616 0.022825 -0.199634
v 0.239616 0.022825 0.198997
v 0.199341 0.022825 0.238935
v -0.198476 0.102514 0.161352
v -0.157731 0.102514 0.201777
v -0.238891 0.056090 0.198771
v -0.198351 0.056089 0.238935
v -0.157731 0.102514 -0.202415
v -0.198476 0.102514 -0.161989
v -0.198351 0.056089 -0.239572
v -0.238891 0.056090 -0.199409
v 0.158455 0.102514 0.201777
v 0.199201 0.102514 0.161352
v 0.199076 0.056089 0.238935
v 0.239616 0.056090 0.198771
v 0.199201 0.102514 -0.161989
v 0.158455 0.102514 -0.202415
v 0.239616 0.056090 -0.199409
v 0.199076 0.056089 -0.239572
v 0.239616 0.022825 -0.128401
v 0.239616 0.022825 0.127763
v -0.238891 0.022825 0.127763
v -0.238891 0.022825 -0.128401
v -0.235559 0.056299 -0.128401
v -0.235559 0.056299 0.127763
v 0.236284 0.056299 0.127763
v 0.236284 0.056299 -0.128401
v 0.235807 0.030773 -0.121621
v 0.235807 0.030773 0.120983
v -0.235082 0.030773 0.120983
v -0.235082 0.030773 -0.121621
v -0.233425 0.047426 -0.121621
v -0.233425 0.047426 0.120983
v 0.234149 0.047426 0.120983
v 0.234149 0.047426 -0.121621
v 0.235977 0.029063 -0.122999
v 0.235977 0.029063 0.122362
v -0.235253 0.029063 0.122362
v -0.235253 0.029063 -0.122999
v -0.233254 0.049136 -0.122999
v -0.233254 0.049136 0.122362
v 0.233979 0.049136 0.122362
v 0.233979 0.049136 -0.122999
v 0.234816 0.030619 -0.121621
v 0.234816 0.030619 0.120983
v -0.234092 0.030619 0.120983
v -0.234092 0.030619 -0.121621
v -0.232434 0.047272 -0.121621
v -0.232434 0.047272 0.120983
v 0.233159 0.047272 0.120983
v 0.233159 0.047272 -0.121621
v -0.190391 0.102514 0.127763
v -0.190391 0.102514 -0.128401
v 0.191115 0.102514 -0.128401
v 0.191115 0.102514 0.127763
v -0.152829 0.102514 0.153653
v -0.164316 0.102514 0.142166
v -0.164316 0.102514 -0.142166
v -0.152829 0.102514 -0.153653
v 0.152829 0.102514 -0.153653
v 0.164316 0.102514 -0.142166
v 0.164316 0.102514 0.142166
v 0.152829 0.102514 0.153653
v -0.164316 0.117606 0.142166
v -0.152829 0.117606 0.153653
v -0.152829 0.129093 0.142166
v -0.152829 0.129093 -0.142166
v -0.152829 0.117606 -0.153653
v -0.164316 0.117606 -0.142166
v 0.164316 0.117606 -0.142166
v 0.152829 0.117606 -0.153653
v 0.152829 0.129093 -0.142166
v 0.152829 0.129093 0.142166
v 0.152829 0.117606 0.153653
v 0.164316 0.117606 0.142166
v -0.015488 0.414550 -0.119464
v -0.017575 0.414550 -0.119464
v -0.254702 0.503256 0.109753
v -0.254702 0.503256 -0.109753
v -0.187962 0.503256 -0.109753
v -0.187962 0.503256 0.109753
v -0.314107 0.863310 0.109753
v -0.314107 0.863310 -0.109753
v -0.247367 0.863310 0.109753
v -0.247367 0.863310 -0.109753
v -0.284405 0.683283 0.109753
v -0.217665 0.683283 -0.109753
v -0.284405 0.683283 -0.109753
v -0.217665 0.683283 0.109753
v -0.294619 0.681657 -0.110047
v -0.324322 0.861699 -0.110122
v -0.215329 0.684835 0.109104
v -0.245032 0.864861 0.109104
v -0.245032 0.864861 -0.109104
v -0.324322 0.861699 0.110122
v -0.294619 0.681657 0.110047
v -0.215329 0.684835 -0.109104
v 0.057955 0.414550 -0.119464
v 0.060349 0.414550 -0.119464
v 0.130126 0.419518 -0.106582
v 0.130126 0.419518 0.105607
v -0.254702 0.503256 0.105607
v -0.254702 0.503256 -0.106582
v -0.187962 0.503256 -0.106582
v -0.187962 0.503256 0.105607
v -0.247367 0.863310 -0.106582
v -0.247367 0.863310 0.105607
v -0.314107 0.863310 0.105607
v -0.314107 0.863310 -0.106582
v -0.284405 0.683283 0.105607
v -0.284405 0.683283 -0.106582
v -0.217665 0.683283 -0.106582
v -0.217665 0.683283 0.105607
v -0.324322 0.861699 0.105959
v -0.324322 0.861699 -0.106944
v -0.294619 0.681657 0.105888
v -0.294619 0.681657 -0.106871
v -0.330743 1.029527 -0.109753
v -0.264003 1.029527 0.109753
v -0.330743 1.029527 0.109753
v -0.264003 1.029527 -0.109753
v -0.264003 1.029527 0.105607
v -0.264003 1.029527 -0.106582
v -0.330743 1.029527 -0.106582
v -0.330743 1.029527 0.105607
v -0.331139 1.033006 -0.109753
v -0.264400 1.033006 0.109753
v -0.264400 1.033006 0.105607
v -0.264400 1.033006 -0.106582
v -0.331139 1.033006 -0.106582
v -0.331139 1.033006 0.105607
v -0.331139 1.033006 0.109753
v -0.264400 1.033006 -0.109753
v -0.246736 0.859485 0.109753
v -0.246736 0.859485 -0.109753
v -0.323691 0.857874 -0.110121
v -0.244401 0.861036 0.109104
v -0.323691 0.857874 0.110121
v -0.244401 0.861036 -0.109104
v -0.323691 0.857874 -0.106943
v -0.323691 0.857874 0.105958
v -0.246736 0.859485 0.105607
v -0.246736 0.859485 -0.106582
v -0.218243 0.686785 -0.109753
v -0.295197 0.685160 0.110049
v -0.215907 0.688337 -0.109104
v -0.218243 0.686785 0.109753
v -0.295197 0.685160 -0.110049
v -0.215907 0.688337 0.109104
v -0.295197 0.685160 -0.106872
v -0.295197 0.685160 0.105889
v -0.218243 0.686785 0.105607
v -0.218243 0.686785 -0.106582
v -0.256166 0.512130 0.109753
v -0.189426 0.512130 -0.109753
v -0.256166 0.512130 -0.109753
v -0.189426 0.512130 0.109753
v -0.189426 0.512130 0.105607
v -0.189426 0.512130 -0.106582
v -0.256166 0.512130 -0.106582
v -0.256166 0.512130 0.105607
v -0.256703 0.515382 -0.109753
v -0.189963 0.515382 0.109753
v -0.189963 0.515382 0.105607
v -0.189963 0.515382 -0.106582
v -0.256703 0.515382 -0.106582
v -0.256703 0.515382 0.105607
v -0.256703 0.515382 0.109753
v -0.189963 0.515382 -0.109753
v -0.017575 0.419518 -0.119464
v -0.034400 0.503256 -0.109753
v -0.034400 0.503256 0.109753
v -0.034400 0.503256 -0.106582
v -0.034400 0.503256 0.105607
v -0.015488 0.419518 -0.119464
v -0.030315 0.503256 -0.109753
v -0.030315 0.503256 0.109753
v -0.030315 0.503256 -0.106582
v -0.030315 0.503256 0.105607
v 0.130126 0.400762 0.095770
v 0.060349 0.419518 -0.119464
v 0.118124 0.503256 -0.109753
v 0.118124 0.503256 0.109753
v 0.118124 0.503256 -0.106582
v 0.118124 0.503256 0.105607
v -0.130126 0.400762 0.095770
v 0.057955 0.419518 -0.119464
v 0.113438 0.503256 -0.109753
v 0.113438 0.503256 0.109753
v 0.113438 0.503256 -0.106582
v 0.113438 0.503256 0.105607
v 0.237680 0.503256 -0.109753
v 0.237680 0.503256 0.109753
v 0.237680 0.503256 -0.106582
v 0.237680 0.503256 0.105607
v 0.233143 0.503256 -0.109753
v 0.233143 0.503256 0.109753
v 0.233143 0.503256 -0.106582
v 0.233143 0.503256 0.105607
v 0.130126 0.424065 0.105607
v 0.130126 0.424065 0.109753
v 0.130126 0.424065 -0.109753
v 0.237680 0.498710 -0.109753
v 0.237680 0.498710 0.109753
v -0.191820 0.498710 0.105607
v -0.191820 0.498710 0.109753
v -0.326623 1.033522 -0.109753
v -0.268916 1.032491 0.109753
v -0.193912 0.511390 -0.109753
v -0.191820 0.498710 -0.109753
v -0.251222 0.858745 0.109753
v -0.251877 0.862713 0.109753
v -0.268523 1.029043 -0.109753
v -0.251877 0.862713 -0.109753
v -0.251870 0.862665 0.105607
v -0.222728 0.686045 -0.109753
v -0.222150 0.682543 -0.109753
v -0.194448 0.514642 0.109753
v -0.222150 0.682543 0.109753
v -0.222150 0.682543 0.105607
v 0.130126 0.424065 -0.106582
v -0.191820 0.498710 -0.106582
v -0.251870 0.862665 -0.106582
v -0.222150 0.682543 -0.106582
v -0.194448 0.514642 0.105607
v -0.194448 0.514642 -0.106582
v -0.251222 0.858745 0.105607
v -0.251222 0.858745 -0.106582
v -0.268916 1.032491 0.105607
v -0.268916 1.032491 -0.106582
v -0.326623 1.033522 -0.106582
v -0.326623 1.033522 0.105607
v 0.237680 0.498710 -0.106582
v 0.237680 0.498710 0.105607
v -0.268523 1.029043 0.109753
v -0.326623 1.033522 0.109753
v -0.326226 1.030042 0.109753
v -0.268916 1.032491 -0.109753
v -0.268522 1.029032 0.105607
v -0.268522 1.029032 -0.106582
v -0.326226 1.030042 0.105607
v -0.326226 1.030042 -0.106582
v -0.326226 1.030042 -0.109753
v -0.222728 0.686045 0.109753
v -0.251222 0.858745 -0.109753
v -0.222728 0.686045 0.105607
v -0.222728 0.686045 -0.106582
v -0.194448 0.514642 -0.109753
v -0.193912 0.511390 0.109753
v -0.193912 0.511390 0.105607
v -0.193912 0.511390 -0.106582
v -0.034400 0.498710 -0.109753
v -0.034400 0.498710 0.109753
v -0.034400 0.498710 -0.106582
v -0.034400 0.498710 0.105607
v -0.030315 0.498710 -0.109753
v -0.030315 0.498710 0.109753
v -0.030315 0.498710 -0.106582
v -0.030315 0.498710 0.105607
v 0.113438 0.498710 -0.109753
v 0.118124 0.498710 -0.109753
v 0.113438 0.498710 0.109753
v 0.118124 0.498710 0.109753
v 0.113438 0.498710 -0.106582
v 0.118124 0.498710 -0.106582
v 0.113438 0.498710 0.105607
v 0.118124 0.498710 0.105607
v 0.233143 0.498710 -0.109753
v 0.233143 0.498710 0.109753
v 0.233143 0.498710 -0.106582
v 0.233143 0.498710 0.105607
v 0.228896 0.419518 0.198814
v 0.228896 0.419518 -0.198814
v -0.243844 0.503256 0.219547
v -0.254702 0.503256 0.208521
v -0.254702 0.430324 0.208530
v -0.242546 0.419518 0.209781
v -0.243846 0.430457 0.219547
v -0.242546 0.419518 -0.209781
v -0.254702 0.430324 -0.208530
v -0.243846 0.430457 -0.219547
v -0.254702 0.503256 -0.208521
v -0.243844 0.503256 -0.219547
v 0.254702 0.491799 -0.109753
v 0.242665 0.503256 -0.109753
v 0.242665 0.503256 0.109753
v 0.254702 0.491799 0.109753
v -0.254702 0.430324 0.109753
v -0.242727 0.419518 0.109753
v -0.242727 0.419518 -0.109753
v -0.254702 0.430324 -0.109753
v 0.242030 0.419518 -0.109753
v 0.254702 0.430968 -0.109753
v 0.254702 0.430968 0.109753
v 0.242030 0.419518 0.109753
v -0.187962 0.503256 0.208624
v -0.198192 0.492273 0.219547
v -0.187962 0.503256 -0.208624
v -0.198192 0.492273 -0.219547
v -0.187962 0.430463 0.219547
v -0.178762 0.419518 0.209531
v -0.187962 0.430463 -0.219547
v -0.178762 0.419518 -0.209531
v -0.337126 1.085480 0.109753
v -0.326712 1.097569 0.109753
v -0.283370 1.097569 0.109753
v -0.270417 1.085746 0.109753
v -0.326712 1.097569 -0.109753
v -0.337126 1.085480 -0.109753
v -0.270417 1.085746 -0.109753
v -0.283370 1.097569 -0.109753
v -0.302471 0.924543 0.219547
v -0.314107 0.918390 0.208515
v -0.314107 0.918390 -0.208515
v -0.302471 0.924543 -0.219547
v -0.258830 0.924543 -0.219547
v -0.247367 0.918523 -0.208753
v -0.247367 0.918523 0.208753
v -0.258830 0.924543 0.219547
v -0.272953 0.713900 -0.219547
v -0.284405 0.710788 -0.208389
v -0.217665 0.710846 -0.208598
v -0.229477 0.713900 -0.219547
v -0.229477 0.713900 0.219547
v -0.217665 0.710846 0.208598
v -0.272953 0.713900 0.219547
v -0.284405 0.710788 0.208389
v -0.282779 0.712826 0.229411
v -0.294380 0.709479 0.218249
v -0.322485 0.917527 0.219847
v -0.310795 0.923647 0.231400
v -0.239513 0.919977 -0.220859
v -0.250517 0.925475 -0.232506
v -0.250517 0.925475 0.232506
v -0.239513 0.919977 0.220859
v -0.310795 0.923647 -0.231400
v -0.322485 0.917527 -0.219847
v -0.294380 0.709479 -0.218249
v -0.282779 0.712826 -0.229411
v -0.206358 0.712738 -0.216759
v -0.217044 0.715324 -0.228589
v -0.217044 0.715324 0.228589
v -0.206358 0.712738 0.216759
v 0.254702 0.491468 -0.106582
v 0.242562 0.503256 -0.106582
v 0.242562 0.503256 0.105607
v 0.254702 0.491468 0.105607
v -0.254702 0.430324 0.105607
v -0.242813 0.419518 0.105607
v -0.242813 0.419518 -0.106582
v -0.254702 0.430324 -0.106582
v 0.242178 0.419518 -0.106582
v 0.254702 0.431303 -0.106582
v 0.254702 0.431303 0.105607
v 0.242178 0.419518 0.105607
v -0.337112 1.085357 0.105607
v -0.326435 1.097569 0.105607
v -0.326435 1.097569 -0.106582
v -0.337112 1.085357 -0.106582
v -0.270407 1.085663 -0.106582
v -0.283567 1.097569 -0.106582
v -0.283567 1.097569 0.105607
v -0.270407 1.085663 0.105607
v -0.321887 0.913133 0.219865
v -0.310223 0.919167 0.231357
v -0.310223 0.919167 -0.231357
v -0.321887 0.913133 -0.219865
v -0.238803 0.915627 -0.220883
v -0.249777 0.921011 -0.232424
v -0.249777 0.921011 0.232424
v -0.238803 0.915627 0.220883
v -0.294926 0.713532 -0.218303
v -0.283402 0.716925 -0.229450
v -0.217614 0.719415 -0.228665
v -0.207001 0.716777 -0.216870
v -0.207001 0.716777 0.216870
v -0.217614 0.719415 0.228665
v -0.294926 0.713532 0.218303
v -0.283402 0.716925 0.229450
v -0.256166 0.513487 -0.208495
v -0.245467 0.515148 -0.219547
v -0.245467 0.515148 0.219547
v -0.256166 0.513487 0.208495
v -0.256703 0.517236 0.208449
v -0.245495 0.519024 0.219547
v -0.256703 0.517236 -0.208450
v -0.245495 0.519024 -0.219547
v -0.032685 0.419518 0.209344
v -0.034400 0.430479 0.219547
v -0.034400 0.492266 0.219547
v -0.034400 0.503256 0.208649
v -0.034400 0.503256 -0.208649
v -0.034400 0.492266 -0.219547
v -0.034400 0.430479 -0.219547
v -0.032685 0.419518 -0.209344
v -0.030315 0.503256 -0.208667
v -0.030315 0.492244 -0.219547
v -0.030315 0.430508 -0.219547
v -0.028783 0.419518 -0.209205
v -0.028783 0.419518 0.209205
v -0.030315 0.430508 0.219547
v -0.030315 0.492244 0.219547
v -0.030315 0.503256 0.208667
v 0.118124 0.503256 -0.208685
v 0.118124 0.492148 -0.219547
v 0.118124 0.430614 -0.219547
v 0.112054 0.419518 -0.209031
v 0.112054 0.419518 0.209031
v 0.118124 0.430614 0.219547
v 0.118124 0.492148 0.219547
v 0.118124 0.503256 0.208685
v 0.107649 0.419518 0.209104
v 0.113438 0.430552 0.219547
v 0.113438 0.492206 0.219547
v 0.113438 0.503256 0.208678
v 0.113438 0.492206 -0.219547
v 0.113438 0.503256 -0.208678
v 0.107649 0.419518 -0.209104
v 0.113438 0.430552 -0.219547
v 0.238035 0.498710 0.105607
v 0.250156 0.486983 0.105607
v 0.250156 0.487048 0.109753
v 0.238055 0.498710 0.109753
v 0.250156 0.435787 0.105607
v 0.237605 0.424065 0.105607
v 0.237576 0.424065 0.109753
v 0.250156 0.435722 0.109753
v 0.250156 0.435722 -0.109753
v 0.237576 0.424065 -0.109753
v 0.238055 0.498710 -0.109753
v 0.250156 0.487048 -0.109753
v -0.332023 1.080855 0.109753
v -0.321441 1.093023 0.109753
v -0.274468 1.081149 0.109753
v -0.287547 1.093023 0.109753
v -0.332023 1.080855 -0.109753
v -0.321441 1.093023 -0.109753
v -0.274468 1.081149 -0.109753
v -0.287547 1.093023 -0.109753
v -0.321392 1.093023 -0.106582
v -0.332021 1.080834 -0.106582
v -0.287589 1.093023 0.105607
v -0.274466 1.081132 0.105607
v 0.250156 0.486983 -0.106582
v 0.238035 0.498710 -0.106582
v 0.237605 0.424065 -0.106582
v 0.250156 0.435787 -0.106582
v -0.332021 1.080834 0.105607
v -0.321392 1.093023 0.105607
v -0.274466 1.081132 -0.106582
v -0.287589 1.093023 -0.106582
v -0.337132 1.085532 -0.158014
v -0.326829 1.097569 -0.161208
v -0.330769 1.035145 -0.208494
v -0.320223 1.039231 -0.219547
v -0.264003 1.034916 -0.208723
v -0.276572 1.039231 -0.219547
v -0.270422 1.085788 -0.157758
v -0.283272 1.097569 -0.161208
v -0.270422 1.085788 0.157758
v -0.283272 1.097569 0.161208
v -0.264003 1.034916 0.208723
v -0.276572 1.039231 0.219547
v -0.330769 1.035145 0.208494
v -0.320223 1.039231 0.219547
v -0.337132 1.085532 0.158014
v -0.326829 1.097569 0.161208
v 0.217178 0.503256 0.208687
v 0.221599 0.492066 0.219547
v 0.242712 0.503256 0.183153
v 0.254702 0.491952 0.186444
v 0.241962 0.419518 0.192551
v 0.254702 0.430814 0.186444
v 0.221599 0.430699 0.219547
v 0.225317 0.419518 0.208981
v 0.242712 0.503256 -0.183153
v 0.254702 0.491952 -0.186444
v 0.217178 0.503256 -0.208687
v 0.221599 0.492066 -0.219547
v 0.225317 0.419518 -0.208981
v 0.221599 0.430699 -0.219547
v 0.254702 0.430814 -0.186444
v 0.241962 0.419518 -0.192551
v -0.102602 0.142881 0.119464
v -0.130126 0.142881 0.092133
v -0.139839 0.129093 0.129177
v -0.130126 0.142881 -0.092133
v -0.102602 0.142881 -0.119464
v -0.139839 0.129093 -0.129177
v 0.102602 0.142881 -0.119464
v 0.130126 0.142881 -0.092133
v 0.139839 0.129093 -0.129177
v 0.130126 0.142881 0.092133
v 0.102602 0.142881 0.119464
v 0.139839 0.129093 0.129177
v -0.130126 0.419518 0.109753
v -0.116390 0.419518 0.119464
v -0.140835 0.419518 0.128067
v -0.116390 0.419518 -0.119464
v -0.130126 0.419518 -0.109753
v -0.140835 0.419518 -0.128067
v 0.130126 0.419518 -0.109753
v 0.116390 0.419518 -0.119464
v 0.140835 0.419518 -0.128067
v 0.116390 0.419518 0.119464
v 0.130126 0.419518 0.109753
v 0.140835 0.419518 0.128067
v -0.102602 0.400762 0.119464
v -0.102602 0.400762 -0.119464
v -0.130126 0.400762 -0.095770
v 0.130126 0.400762 -0.095770
v 0.102602 0.400762 -0.119464
v 0.102602 0.400762 0.119464
v 0.116390 0.414550 0.119464
v -0.116390 0.414550 0.119464
v 0.116390 0.129093 0.119464
v 0.130126 0.414550 0.109753
v 0.130126 0.129093 0.105727
v 0.130126 0.414550 -0.109753
v 0.130126 0.129093 -0.105727
v -0.130126 0.129093 -0.105727
v -0.130126 0.414550 -0.109753
v -0.130126 0.414550 0.109753
v -0.116390 0.414550 -0.119464
v 0.116390 0.414550 -0.119464
v -0.130126 0.129093 0.105727
v -0.116390 0.129093 0.119464
v 0.116390 0.129093 -0.119464
v -0.116390 0.129093 -0.119464
v 0.098591 0.396751 0.109471
v -0.098591 0.396751 0.109471
v 0.098591 0.146892 0.109471
v 0.120134 0.396751 0.091701
v 0.120134 0.146892 0.088178
v 0.120134 0.396751 -0.091701
v 0.120134 0.146892 -0.088178
v -0.120134 0.146892 -0.088178
v -0.120134 0.396751 -0.091701
v -0.120134 0.396751 0.091701
v -0.098591 0.396751 -0.109471
v 0.098591 0.396751 -0.109471
v -0.120134 0.146892 0.088178
v -0.098591 0.146892 0.109471
v 0.098591 0.146892 -0.109471
v -0.098591 0.146892 -0.109471
v 0.102602 0.400762 0.109471
v -0.102602 0.400762 0.109471
v 0.102602 0.142881 0.109471
v 0.120134 0.400762 0.095770
v 0.120134 0.142881 0.092133
v 0.120134 0.400762 -0.095770
v 0.120134 0.142881 -0.092133
v -0.120134 0.142881 -0.092133
v -0.120134 0.400762 -0.095770
v -0.120134 0.400762 0.095770
v -0.102602 0.400762 -0.109471
v 0.102602 0.400762 -0.109471
v -0.120134 0.142881 0.092133
v -0.102602 0.142881 0.109471
v 0.102602 0.142881 -0.109471
v -0.102602 0.142881 -0.109471
v 0.098591 0.396751 0.116641
v -0.098591 0.396751 0.116641
v 0.098591 0.146892 0.116641
v 0.127303 0.396751 0.091701
v 0.127303 0.146892 0.088178
v 0.127303 0.396751 -0.091701
v 0.127303 0.146892 -0.088178
v -0.127303 0.146892 -0.088178
v -0.127303 0.396751 -0.091701
v -0.127303 0.396751 0.091701
v -0.098591 0.396751 -0.116641
v 0.098591 0.396751 -0.116641
v -0.127303 0.146892 0.088178
v -0.098591 0.146892 0.116641
v 0.098591 0.146892 -0.116641
v -0.098591 0.146892 -0.116641
v -0.238789 0.658473 -0.226357
v -0.238789 0.658473 -0.257181
v -0.133022 0.614126 -0.219747
v -0.133022 0.614126 -0.263791
v -0.177319 0.456669 -0.257300
v -0.133022 0.595820 -0.263791
v -0.133022 0.595820 -0.219747
v -0.177319 0.456669 -0.226238
v -0.238789 0.634313 -0.226178
v -0.232516 0.628040 -0.219747
v -0.232516 0.628040 -0.263791
v -0.238789 0.634313 -0.257360
v 0.169809 0.628040 -0.257076
v 0.127657 0.614126 -0.263791
v 0.127657 0.614126 -0.219747
v 0.169809 0.628040 -0.226462
v -0.177319 0.657771 -0.269890
v -0.177319 0.664572 -0.263232
v -0.177319 0.664572 -0.220306
v -0.177319 0.657771 -0.213648
v -0.238789 0.634313 -0.263286
v 0.168702 0.628040 -0.269890
v 0.175908 0.628040 -0.263025
v 0.175908 0.628040 -0.220513
v 0.168702 0.628040 -0.213648
v -0.162232 0.668179 -0.250890
v -0.169882 0.661377 -0.273497
v -0.169882 0.661377 -0.210041
v -0.162232 0.668179 -0.232648
v 0.151098 0.661398 -0.273497
v 0.147036 0.668129 -0.250898
v 0.157745 0.663693 -0.251104
v 0.172409 0.640088 -0.273497
v 0.175008 0.646460 -0.251104
v 0.176587 0.642648 -0.251000
v 0.172409 0.640088 -0.210041
v 0.176587 0.642648 -0.232538
v 0.175008 0.646460 -0.232434
v 0.147036 0.668129 -0.232640
v 0.151098 0.661398 -0.210041
v 0.157745 0.663693 -0.232434
v 0.111170 0.595820 -0.219747
v 0.099072 0.456669 -0.226289
v 0.127680 0.595820 -0.219747
v 0.169809 0.502510 -0.226362
v 0.127680 0.595820 -0.263791
v 0.169809 0.502510 -0.257176
v 0.111170 0.595820 -0.263791
v 0.099072 0.456669 -0.257249
v -0.232516 0.547615 -0.219747
v -0.238789 0.545016 -0.226184
v -0.195312 0.462943 -0.219747
v -0.197910 0.456669 -0.226203
v -0.195312 0.462943 -0.263791
v -0.197910 0.456669 -0.257335
v -0.232516 0.547615 -0.263791
v -0.238789 0.545016 -0.257354
v -0.227945 0.657790 -0.213648
v -0.232516 0.653128 -0.213648
v -0.234234 0.664572 -0.220268
v -0.238789 0.659925 -0.220263
v -0.232516 0.653128 -0.269890
v -0.227945 0.657790 -0.269890
v -0.238789 0.659925 -0.263275
v -0.234234 0.664572 -0.263270
v -0.177319 0.630409 -0.213648
v -0.177231 0.628040 -0.216172
v -0.176788 0.628040 -0.267581
v -0.177319 0.630362 -0.269890
v -0.168559 0.628040 -0.211966
v -0.169882 0.630394 -0.210041
v -0.168559 0.628040 -0.271572
v -0.169882 0.630364 -0.273497
v -0.232516 0.628040 -0.216180
v -0.232516 0.630428 -0.213648
v -0.238789 0.634313 -0.222797
v -0.238789 0.636718 -0.220253
v -0.232516 0.630361 -0.269890
v -0.232516 0.628040 -0.267581
v -0.233825 0.629350 -0.268511
v 0.170430 0.628040 -0.271587
v 0.172382 0.630366 -0.273497
v 0.179515 0.630370 -0.266649
v 0.177595 0.628040 -0.264716
v 0.177595 0.628040 -0.218822
v 0.179515 0.630376 -0.216889
v 0.172382 0.630384 -0.210041
v 0.170430 0.628040 -0.211951
v 0.146916 0.668179 -0.266831
v 0.157625 0.663743 -0.267223
v 0.175079 0.646289 -0.267223
v 0.179515 0.635580 -0.266664
v 0.179515 0.635580 -0.216874
v 0.175079 0.646289 -0.216315
v 0.157625 0.663743 -0.216315
v 0.146916 0.668179 -0.216707
v -0.169882 0.668179 -0.266815
v -0.169882 0.668179 -0.216723
v 0.146790 0.666902 -0.250898
v 0.146790 0.666902 -0.232640
v 0.157049 0.662653 -0.232434
v 0.157049 0.662653 -0.251104
v 0.173969 0.645762 -0.251104
v 0.173969 0.645762 -0.232434
v 0.175430 0.642169 -0.251000
v 0.175430 0.642169 -0.232538
v -0.162232 0.666927 -0.250890
v -0.162232 0.666927 -0.232648
v 0.162703 0.504275 -0.219747
v 0.096474 0.462943 -0.219747
v 0.096474 0.462943 -0.263791
v 0.162703 0.504275 -0.263791
v 0.162670 0.628040 -0.263791
v 0.162670 0.628040 -0.219747
v -0.177319 0.462943 -0.219747
v -0.177319 0.462943 -0.263791
v -0.177319 0.628040 -0.263791
v -0.177319 0.628040 -0.219747
v 0.125248 0.598250 -0.221771
v 0.111170 0.598250 -0.221771
v 0.111170 0.598250 -0.261767
v 0.125248 0.598250 -0.261767
v 0.125230 0.611697 -0.261767
v 0.125230 0.611697 -0.221771
v -0.130593 0.598250 -0.221771
v -0.130593 0.598250 -0.261767
v -0.130593 0.611697 -0.261767
v -0.130593 0.611697 -0.221771
v 0.127680 0.595820 -0.221771
v 0.111170 0.595820 -0.221771
v 0.111170 0.595820 -0.261767
v 0.127680 0.595820 -0.261767
v 0.127657 0.614126 -0.261767
v 0.127657 0.614126 -0.221771
v -0.133022 0.595820 -0.221771
v -0.133022 0.595820 -0.261767
v -0.133022 0.614126 -0.261767
v -0.133022 0.614126 -0.221771
v 0.125248 0.598250 -0.224399
v 0.111170 0.598250 -0.224399
v 0.111170 0.598250 -0.259139
v 0.125248 0.598250 -0.259139
v 0.125230 0.611697 -0.259139
v 0.125230 0.611697 -0.224399
v -0.130593 0.598250 -0.224399
v -0.130593 0.598250 -0.259139
v -0.130593 0.611697 -0.259139
v -0.130593 0.611697 -0.224399
v -0.238789 0.658473 0.226357
v -0.238789 0.658473 0.257181
v -0.133022 0.614126 0.219747
v -0.133022 0.614126 0.263791
v -0.177319 0.456669 0.257300
v -0.133022 0.595820 0.263791
v -0.133022 0.595820 0.219747
v -0.177319 0.456669 0.226238
v -0.238789 0.634313 0.226178
v -0.232516 0.628040 0.219747
v -0.232516 0.628040 0.263791
v -0.238789 0.634313 0.257360
v 0.169809 0.628040 0.257076
v 0.127657 0.614126 0.263791
v 0.127657 0.614126 0.219747
v 0.169809 0.628040 0.226462
v -0.177319 0.657771 0.269890
v -0.177319 0.664572 0.263232
v -0.177319 0.664572 0.220306
v -0.177319 0.657771 0.213648
v -0.238789 0.634313 0.263286
v 0.168702 0.628040 0.269890
v 0.175908 0.628040 0.263025
v 0.175908 0.628040 0.220513
v 0.168702 0.628040 0.213648
v -0.162232 0.668179 0.250890
v -0.169882 0.661377 0.273497
v -0.169882 0.661377 0.210041
v -0.162232 0.668179 0.232648
v 0.151098 0.661398 0.273497
v 0.147036 0.668129 0.250898
v 0.157745 0.663693 0.251104
v 0.172409 0.640088 0.273497
v 0.175008 0.646460 0.251104
v 0.176587 0.642648 0.251000
v 0.172409 0.640088 0.210041
v 0.176587 0.642648 0.232538
v 0.175008 0.646460 0.232434
v 0.147036 0.668129 0.232640
v 0.151098 0.661398 0.210041
v 0.157745 0.663693 0.232434
v 0.111170 0.595820 0.219747
v 0.099072 0.456669 0.226289
v 0.127680 0.595820 0.219747
v 0.169809 0.502510 0.226362
v 0.127680 0.595820 0.263791
v 0.169809 0.502510 0.257176
v 0.111170 0.595820 0.263791
v 0.099072 0.456669 0.257249
v -0.232516 0.547615 0.219747
v -0.238789 0.545016 0.226184
v -0.195312 0.462943 0.219747
v -0.197910 0.456669 0.226203
v -0.195312 0.462943 0.263791
v -0.197910 0.456669 0.257335
v -0.232516 0.547615 0.263791
v -0.238789 0.545016 0.257354
v -0.227945 0.657790 0.213648
v -0.232516 0.653128 0.213648
v -0.234234 0.664572 0.220268
v -0.238789 0.659925 0.220263
v -0.232516 0.653128 0.269890
v -0.227945 0.657790 0.269890
v -0.238789 0.659925 0.263275
v -0.234234 0.664572 0.263270
v -0.177319 0.630409 0.213648
v -0.177231 0.628040 0.216172
v -0.176788 0.628040 0.267581
v -0.177319 0.630362 0.269890
v -0.168559 0.628040 0.211966
v -0.169882 0.630394 0.210041
v -0.168559 0.628040 0.271572
v -0.169882 0.630364 0.273497
v -0.232516 0.628040 0.216180
v -0.232516 0.630428 0.213648
v -0.238789 0.634313 0.222797
v -0.238789 0.636718 0.220253
v -0.232516 0.630361 0.269890
v -0.232516 0.628040 0.267581
v -0.233825 0.629350 0.268511
v 0.170430 0.628040 0.271587
v 0.172382 0.630366 0.273497
v 0.179515 0.630370 0.266648
v 0.177595 0.628040 0.264716
v 0.177595 0.628040 0.218822
v 0.179515 0.630376 0.216889
v 0.172382 0.630384 0.210041
v 0.170430 0.628040 0.211951
v 0.146916 0.668179 0.266831
v 0.157625 0.663743 0.267223
v 0.175079 0.646289 0.267223
v 0.179515 0.635580 0.266664
v 0.179515 0.635580 0.216874
v 0.175079 0.646289 0.216315
v 0.157625 0.663743 0.216315
v 0.146916 0.668179 0.216707
v -0.169882 0.668179 0.266815
v -0.169882 0.668179 0.216723
v 0.146790 0.666902 0.250898
v 0.146790 0.666902 0.232640
v 0.157049 0.662653 0.232434
v 0.157049 0.662653 0.251104
v 0.173969 0.645762 0.251104
v 0.173969 0.645762 0.232434
v 0.175430 0.642169 0.251000
v 0.175430 0.642169 0.232538
v -0.162232 0.666927 0.250890
v -0.162232 0.666927 0.232648
v 0.162703 0.504275 0.219747
v 0.096474 0.462943 0.219747
v 0.096474 0.462943 0.263791
v 0.162703 0.504275 0.263791
v 0.162670 0.628040 0.263791
v 0.162670 0.628040 0.219747
v -0.177319 0.462943 0.219747
v -0.177319 0.462943 0.263791
v -0.177319 0.628040 0.263791
v -0.177319 0.628040 0.219747
v 0.125248 0.598250 0.221771
v 0.111170 0.598250 0.221771
v 0.111170 0.598250 0.261767
v 0.125248 0.598250 0.261767
v 0.125230 0.611697 0.261767
v 0.125230 0.611697 0.221771
v -0.130593 0.598250 0.221771
v -0.130593 0.598250 0.261767
v -0.130593 0.611697 0.261767
v -0.130593 0.611697 0.221771
v 0.127680 0.595820 0.221771
v 0.111170 0.595820 0.221771
v 0.111170 0.595820 0.261767
v 0.127680 0.595820 0.261767
v 0.127657 0.614126 0.261767
v 0.127657 0.614126 0.221771
v -0.133022 0.595820 0.221771
v -0.133022 0.595820 0.261767
v -0.133022 0.614126 0.261767
v -0.133022 0.614126 0.221771
v 0.125248 0.598250 0.224399
v 0.111170 0.598250 0.224399
v 0.111170 0.598250 0.259139
v 0.125248 0.598250 0.259139
v 0.125230 0.611697 0.259139
v 0.125230 0.611697 0.224399
v -0.130593 0.598250 0.224399
v -0.130593 0.598250 0.259139
v -0.130593 0.611697 0.259139
v -0.130593 0.611697 0.224399
vn -0.0000 0.6249 0.7807
vn 1.0000 -0.0000 -0.0000
vn -0.7541 0.6567 0.0004
vn -0.0000 -0.0000 1.0000
vn 0.7541 0.6567 -0.0004
vn -1.0000 -0.0000 -0.0000
vn -0.9827 0.0491 -0.1784
vn -0.0000 -1.0000 -0.0000
vn -0.0000 -0.0000 -1.0000
vn 0.9827 0.0491 0.1784
vn 0.9827 0.0491 -0.1784
vn -0.9827 0.0491 0.1784
vn -0.1537 0.9881 -0.0000
vn -0.0000 0.6249 -0.7807
vn 0.7541 0.6567 0.0004
vn -0.7541 0.6567 -0.0004
vn -0.6700 0.6193 0.4093
vn 0.6700 0.6193 -0.4093
vn -0.6700 0.6193 -0.4093
vn -0.7152 0.6990 -0.0000
vn 0.6700 0.6193 0.4093
vn 0.7152 0.6990 -0.0000
vn -0.7042 0.0025 -0.7100
vn 0.7042 0.0025 -0.7100
vn 0.7042 0.0025 0.7100
vn -0.7042 0.0025 0.7100
vn -0.4541 0.7642 -0.4580
vn 0.4541 0.7642 -0.4580
vn 0.4541 0.7642 0.4580
vn -0.4541 0.7642 0.4580
vn -0.7040 0.0052 0.7102
vn 0.7040 0.0052 0.7102
vn -0.7040 0.0052 -0.7102
vn 0.7040 0.0052 -0.7102
vn 0.9951 0.0991 -0.0000
vn -0.9951 0.0991 -0.0000
vn -0.1537 -0.9881 -0.0000
vn 0.1537 -0.9881 -0.0000
vn 0.1537 0.9881 -0.0000
vn -0.5772 -0.0000 0.8166
vn -0.0000 1.0000 -0.0000
vn 0.9882 0.1515 0.0211
vn -0.5774 0.5773 0.5774
vn -0.5774 0.5774 -0.5774
vn 0.5774 0.5773 -0.5774
vn 0.5774 0.5774 0.5774
vn -0.7071 -0.0000 -0.7071
vn 0.7071 -0.0000 -0.7071
vn 0.7071 -0.0000 0.7071
vn -0.7071 -0.0000 0.7071
vn -0.3805 0.8178 0.4317
vn -0.9885 -0.1515 0.0010
vn -0.0176 0.9998 0.0014
vn -0.1628 0.9867 -0.0000
vn -0.2427 -0.0400 -0.9693
vn 0.0230 -0.9996 0.0154
vn 0.0230 -0.9996 -0.0154
vn -0.9882 -0.1474 0.0406
vn -0.9882 -0.1515 -0.0225
vn -0.1557 0.9878 -0.0000
vn 0.1030 -0.9617 -0.2539
vn 0.2609 -0.9327 0.2492
vn -0.9885 -0.1515 -0.0010
vn -0.9867 -0.1628 -0.0000
vn -0.0175 -0.0166 -0.9997
vn 0.9788 0.1602 0.1273
vn -0.9849 -0.1471 -0.0908
vn -0.0175 -0.0166 0.9997
vn 0.0127 -0.0122 -0.9998
vn 0.9788 0.1602 -0.1273
vn -0.2427 -0.0400 0.9693
vn -0.0176 0.9998 -0.0014
vn -0.9882 -0.1515 0.0225
vn 0.1572 -0.9876 -0.0000
vn 0.2581 0.8531 0.4534
vn 0.1030 -0.9617 0.2539
vn 0.2581 0.8531 -0.4534
vn 0.2609 -0.9327 -0.2492
vn 0.9867 0.1628 -0.0000
vn -0.9936 -0.1134 -0.0000
vn 0.5773 -0.0000 0.8166
vn -0.7071 0.7071 -0.0000
vn 0.7071 0.7071 -0.0000
vn 0.5772 -0.0000 -0.8166
vn 0.9927 0.1169 -0.0288
vn -0.9950 -0.0996 -0.0000
vn 0.9950 0.0996 -0.0000
vn -0.3805 0.8178 -0.4317
vn 0.9936 0.1134 -0.0000
vn 0.1418 -0.9899 -0.0000
vn -0.9869 -0.1473 -0.0659
vn 0.9791 0.1602 0.1253
vn -0.0017 -0.0143 -0.9999
vn -0.9885 -0.1515 -0.0025
vn -0.9869 -0.1473 0.0659
vn 0.9791 0.1602 -0.1253
vn 0.9794 0.1603 -0.1232
vn -0.9849 -0.1471 0.0908
vn 0.0127 -0.0122 0.9998
vn 0.9794 0.1603 0.1232
vn -0.9882 -0.1474 -0.0406
vn 0.1628 -0.9867 -0.0000
vn -0.9885 -0.1515 0.0025
vn 0.6492 -0.0054 -0.7606
vn 0.9882 0.1515 -0.0211
vn -0.6492 -0.0054 0.7606
vn -0.0017 -0.0143 0.9999
vn -0.0000 0.7071 -0.7071
vn -0.0000 0.7071 0.7071
vn -0.1134 0.9936 -0.0000
vn 0.9866 0.1629 0.0002
vn 0.9866 0.1629 -0.0001
vn 0.9866 0.1630 -0.0000
vn 0.9950 0.0996 0.0003
vn 0.9950 0.0996 -0.0003
vn 0.9936 0.1133 -0.0000
vn 0.9927 0.1169 0.0288
vn 0.1134 -0.9936 -0.0000
vn -0.1133 0.9936 -0.0000
vn -0.9927 -0.1168 0.0288
vn -0.1088 0.9941 -0.0000
vn -0.9927 -0.1168 -0.0288
vn -0.5760 -0.5814 0.5746
vn -0.5760 -0.5814 -0.5746
vn 0.0016 -0.6702 -0.7422
vn 0.0005 -0.6781 0.7350
vn -0.0000 0.7047 0.7096
vn -0.7124 0.0001 0.7018
vn -0.7124 0.0001 -0.7018
vn -0.6671 -0.7449 -0.0006
vn 0.0016 -0.6702 0.7422
vn -0.6671 -0.7449 0.0006
vn -0.6712 -0.7412 -0.0092
vn -0.7083 -0.0980 -0.6990
vn 0.2387 0.9401 -0.2435
vn -0.3284 0.9298 -0.1660
vn 0.1968 -0.9772 -0.0795
vn -0.6866 -0.0974 0.7205
vn -0.6751 -0.0910 0.7321
vn -0.6744 -0.1052 -0.7308
vn 0.7498 0.0968 -0.6546
vn 0.7498 0.0967 0.6546
vn 0.1968 -0.9772 0.0795
vn -0.0226 -0.9754 0.2192
vn -0.3284 0.9298 0.1660
vn 0.2387 0.9401 0.2435
vn -0.0226 -0.9754 -0.2192
vn 0.6967 0.7174 -0.0000
vn -0.6712 -0.7412 0.0070
vn -0.6726 -0.7400 -0.0000
vn 0.6853 -0.7283 -0.0000
vn -0.7528 0.6582 -0.0000
vn 0.6709 0.7415 -0.0000
vn -0.6749 -0.0966 0.7315
vn -0.6751 -0.0910 -0.7321
vn 0.7479 0.1188 -0.6531
vn 0.7479 0.1188 0.6531
vn -0.6749 -0.0966 -0.7315
vn 0.7479 0.1067 -0.6552
vn 0.7479 0.1067 0.6552
vn -0.6744 -0.1052 0.7308
vn -0.7064 -0.0481 -0.7062
vn -0.7083 -0.0980 0.6990
vn -0.7064 -0.0481 0.7062
vn -0.6866 -0.0974 -0.7205
vn 0.6832 0.0971 -0.7237
vn 0.6832 0.0971 0.7237
vn 0.0152 -0.6821 0.7311
vn 0.0003 0.7035 0.7107
vn -0.0000 0.7047 -0.7096
vn 0.0005 -0.6781 -0.7350
vn 0.0003 0.7035 -0.7107
vn 0.0152 -0.6821 -0.7311
vn 0.0004 -0.6864 0.7272
vn 0.0001 0.7020 0.7122
vn 0.0038 0.7002 -0.7140
vn 0.0105 -0.6906 -0.7232
vn 0.0105 -0.6906 0.7232
vn 0.0038 0.7002 0.7140
vn 0.0001 0.7020 -0.7122
vn 0.0004 -0.6864 -0.7272
vn 0.6946 0.7193 -0.0073
vn 0.6811 -0.7322 -0.0034
vn -0.7541 0.6567 0.0084
vn 0.6718 0.7407 -0.0048
vn 0.6946 0.7193 0.0095
vn 0.6811 -0.7322 0.0044
vn -0.7541 0.6567 -0.0064
vn 0.6718 0.7407 0.0063
vn -0.7143 0.4506 -0.5354
vn 0.6460 0.5774 -0.4993
vn 0.6460 0.5774 0.4993
vn -0.7143 0.4506 0.5354
vn 0.6749 0.7379 0.0009
vn -0.7586 0.6516 0.0013
vn -0.6782 -0.1008 -0.7279
vn 0.6893 0.1026 -0.7172
vn -0.6782 -0.1008 0.7279
vn 0.6893 0.1026 0.7172
vn -0.7586 0.6516 -0.0013
vn 0.6749 0.7379 -0.0009
vn 0.6501 -0.3903 0.6520
vn 0.6501 -0.3903 -0.6520
vn 0.5106 0.6928 0.5092
vn 0.5106 0.6928 -0.5092
vn 0.0004 -0.6874 0.7263
vn 0.0003 0.6978 0.7163
vn 0.6669 -0.7452 -0.0004
vn 0.6878 0.7259 -0.0010
vn 0.0004 -0.6874 -0.7263
vn 0.0003 0.6978 -0.7163
vn 0.6669 -0.7452 0.0004
vn 0.6878 0.7259 0.0010
vn -0.5773 -0.0000 -0.8166
vn -0.6492 -0.0054 -0.7606
vn 0.6492 -0.0054 0.7606
vn -0.0000 0.0141 -0.9999
vn -0.0000 0.0141 0.9999
vn -0.0000 -0.0141 0.9999
vn -0.0000 -0.0141 -0.9999
vn -0.7071 -0.7071 -0.0000
vn 0.6925 -0.0020 -0.7214
vn -0.4364 -0.0000 -0.8998
vn -1.0000 -0.0013 -0.0000
vn 0.6925 -0.0020 0.7214
vn -0.3827 0.9239 -0.0000
vn 1.0000 -0.0001 -0.0000
vn -0.4364 0.8998 -0.0000
vn 0.5438 -0.8392 -0.0000
vn -0.7253 0.0002 0.6885
vn -0.9076 -0.4199 -0.0000
vn -0.4364 -0.0000 0.8998
vn 0.2917 0.7560 -0.5860
vn 0.7517 0.2802 -0.5970
vn 0.7517 0.2802 0.5970
vn 0.2917 0.7560 0.5860
vn -0.7252 0.0002 -0.6885
vn 0.0004 0.6991 0.7150
vn -0.5649 0.5777 -0.5891
vn -0.5649 0.5777 0.5891
vn 0.0004 0.6991 -0.7150
vn 0.5000 0.5000 -0.7071
vn -0.0124 0.0231 -0.9997
vn 0.5000 0.5000 0.7071
vn -0.0000 0.7009 -0.7133
vn -0.0000 0.7009 0.7133
vn 0.3971 -0.6233 0.6737
vn 0.3971 -0.6233 -0.6737
vn 0.6833 0.0004 -0.7301
vn 0.6833 0.0004 0.7301
vn 0.0001 -0.7204 0.6935
vn 0.0001 -0.7204 -0.6935
vn -0.6740 -0.3043 -0.6731
vn -0.6740 -0.3043 0.6731
vn -0.7160 -0.0000 0.6981
vn -0.7160 -0.0000 -0.6981
vn 0.0006 -0.7182 -0.6958
vn 0.0006 -0.7182 0.6958
vn -0.4156 0.4078 0.8130
vn -0.4156 0.4078 -0.8130
vn -0.7142 0.6999 -0.0000
vn -0.1977 -0.6913 -0.6950
vn -0.3125 -0.6991 0.6431
vn -0.3094 -0.7050 -0.6381
vn -0.8235 -0.4126 0.3894
vn 0.4498 -0.7604 -0.4685
vn 0.4507 -0.7588 0.4701
vn -0.0002 -0.7283 0.6852
vn -0.0000 -0.7052 -0.7090
vn -0.0000 -0.6362 -0.7715
vn 0.7722 -0.6354 -0.0000
vn -0.0000 -0.6323 0.7748
vn 0.3827 0.9239 -0.0000
vn 0.9239 0.3827 -0.0000
vn 0.7068 0.7074 -0.0037
vn 0.7068 0.7074 0.0037
vn 0.0001 1.0000 0.0015
vn 0.0001 1.0000 -0.0015
vn 0.7065 0.7077 -0.0000
vn 0.0001 1.0000 -0.0000
vn 0.9263 0.3768 -0.0000
vn 0.0167 -0.0070 -0.9998
vn 0.0167 -0.0070 0.9998
vn -0.0124 0.0231 0.9997
vn -0.7253 0.0002 -0.6885
vn -0.7252 0.0002 0.6885
vn -0.1977 -0.6913 0.6950
vn -0.3125 -0.6991 -0.6431
vn -0.3094 -0.7050 0.6381
vn -0.8235 -0.4126 -0.3894
vn 0.4498 -0.7604 0.4685
vn 0.4507 -0.7588 -0.4701
vn -0.0002 -0.7283 -0.6852
vn -0.0000 -0.7052 0.7090
vn -0.0000 -0.6362 0.7715
vn -0.0000 -0.6323 -0.7748
vn 0.3826 0.9239 -0.0000
vn 0.0167 -0.0069 -0.9998
vt 0.625000 0.792403
vt 0.625000 0.957597
vt 0.511785 0.978819
vt 0.511785 0.771181
vt 0.430663 0.532622
vt 0.511787 0.532806
vt 0.511790 0.583333
vt 0.430663 0.583333
vt 0.430663 0.666667
vt 0.511790 0.666667
vt 0.511787 0.717194
vt 0.430663 0.717378
vt 0.625000 0.166667
vt 0.625000 0.186629
vt 0.511787 0.217194
vt 0.511790 0.166667
vt 0.375000 0.770997
vt 0.430663 0.771042
vt 0.430663 0.978958
vt 0.375000 0.979003
vt 0.646140 0.666667
vt 0.646115 0.686629
vt 0.511787 0.717194
vt 0.430663 0.166667
vt 0.511787 0.217194
vt 0.430663 0.217378
vt 0.430663 0.083333
vt 0.511790 0.083333
vt 0.512296 0.111111
vt 0.430663 0.111111
vt 0.375000 0.666667
vt 0.375000 0.717438
vt 0.125000 0.638889
vt 0.375000 0.638889
vt 0.125000 0.666667
vt 0.430663 0.271042
vt 0.511785 0.271181
vt 0.511785 0.478819
vt 0.430663 0.478958
vt 0.511790 0.583333
vt 0.512296 0.611111
vt 0.430663 0.611111
vt 0.495956 0.638303
vt 0.447003 0.638303
vt 0.430663 0.638889
vt 0.512296 0.638889
vt 0.125000 0.583333
vt 0.375000 0.583333
vt 0.375000 0.611111
vt 0.125000 0.611111
vt 0.430663 0.138889
vt 0.512296 0.138889
vt 0.511790 0.166667
vt 0.447003 0.611697
vt 0.375000 0.111111
vt 0.375000 0.138889
vt 0.375000 0.083333
vt 0.375000 0.166667
vt 0.354003 0.750000
vt 0.145997 0.750000
vt 0.125000 0.717438
vt 0.430663 0.032622
vt 0.511787 0.032806
vt 0.375000 0.217438
vt 0.375000 0.532562
vt 0.125000 0.532562
vt 0.145997 0.500000
vt 0.354003 0.500000
vt 0.375000 0.270997
vt 0.430663 0.478958
vt 0.375000 0.479003
vt 0.625000 0.292403
vt 0.625000 0.457597
vt 0.511785 0.478819
vt 0.511785 0.271181
vt 0.646115 0.563371
vt 0.646140 0.583333
vt 0.511787 0.532806
vt 0.625000 0.063371
vt 0.625000 0.083333
vt 0.511787 0.032806
vt 0.625000 0.138889
vt 0.646922 0.638889
vt 0.625000 0.111111
vt 0.512296 0.138889
vt 0.512296 0.111111
vt 0.646922 0.611111
vt 0.375000 0.000000
vt 0.430663 0.000000
vt 0.375000 0.032562
vt 0.625000 0.219649
vt 0.553985 0.238687
vt 0.625000 0.478926
vt 0.550300 0.492831
vt 0.550300 0.757169
vt 0.625000 0.771074
vt 0.553985 0.011313
vt 0.625000 0.030351
vt 0.511785 1.000000
vt 0.430663 1.000000
vt 0.447003 0.111697
vt 0.447003 0.138303
vt 0.495956 0.138303
vt 0.495956 0.111697
vt 0.495956 0.611697
vt 0.451174 0.638154
vt 0.451174 0.611846
vt 0.491785 0.111846
vt 0.491785 0.138154
vt 0.451174 0.111846
vt 0.451174 0.138154
vt 0.491785 0.638154
vt 0.491785 0.611846
vt 0.656721 0.638329
vt 0.843279 0.638329
vt 0.678962 0.635364
vt 0.821038 0.635363
vt 0.829422 0.635363
vt 0.829422 0.628454
vt 0.835351 0.636206
vt 0.829422 0.634172
vt 0.829422 0.615828
vt 0.835351 0.613794
vt 0.843279 0.612667
vt 0.843279 0.637333
vt 0.808611 0.615324
vt 0.808611 0.615326
vt 0.808611 0.621545
vt 0.808611 0.621545
vt 0.664649 0.613794
vt 0.670578 0.615828
vt 0.670578 0.634172
vt 0.664649 0.636206
vt 0.656721 0.637333
vt 0.656721 0.612667
vt 0.670578 0.621546
vt 0.670578 0.614637
vt 0.670578 0.614637
vt 0.670578 0.615691
vt 0.670577 0.621545
vt 0.656721 0.611671
vt 0.649710 0.612667
vt 0.850290 0.637333
vt 0.843279 0.611671
vt 0.850290 0.612667
vt 0.649710 0.612667
vt 0.656721 0.637333
vt 0.649710 0.637333
vt 0.850290 0.612667
vt 0.649710 0.637333
vt 0.850290 0.637333
vt 0.713166 0.614637
vt 0.714627 0.614636
vt 0.714627 0.614636
vt 0.713166 0.614636
vt 0.812284 0.635363
vt 0.812295 0.635363
vt 0.825852 0.635363
vt 0.825858 0.635363
vt 0.826020 0.635363
vt 0.826037 0.635363
vt 0.829422 0.621545
vt 0.829422 0.615331
vt 0.829422 0.615284
vt 0.829422 0.615330
vt 0.829422 0.621545
vt 0.829422 0.615330
vt 0.670578 0.633280
vt 0.670578 0.628455
vt 0.829422 0.628454
vt 0.829422 0.634670
vt 0.829422 0.634668
vt 0.675885 0.626136
vt 0.675885 0.623833
vt 0.808611 0.614636
vt 0.826037 0.614637
vt 0.826037 0.614636
vt 0.811801 0.614637
vt 0.670578 0.635364
vt 0.675640 0.635363
vt 0.713166 0.635364
vt 0.714627 0.635364
vt 0.759453 0.635363
vt 0.760727 0.635363
vt 0.808611 0.635363
vt 0.829422 0.635363
vt 0.759453 0.626136
vt 0.759453 0.623833
vt 0.829422 0.626136
vt 0.829422 0.623833
vt 0.829422 0.621545
vt 0.829422 0.614636
vt 0.675886 0.628455
vt 0.674331 0.628455
vt 0.675726 0.628455
vt 0.713166 0.626136
vt 0.713166 0.623833
vt 0.760727 0.621545
vt 0.760727 0.615322
vt 0.808611 0.615324
vt 0.826020 0.614637
vt 0.825858 0.614637
vt 0.825852 0.614637
vt 0.812295 0.614637
vt 0.812284 0.614637
vt 0.829422 0.621545
vt 0.829422 0.623833
vt 0.829422 0.623833
vt 0.812531 0.614636
vt 0.679894 0.614636
vt 0.825745 0.628454
vt 0.812230 0.628454
vt 0.812848 0.628454
vt 0.825097 0.628454
vt 0.825794 0.614637
vt 0.812186 0.614637
vt 0.811504 0.614637
vt 0.826552 0.614637
vt 0.808611 0.626136
vt 0.808611 0.623833
vt 0.829422 0.628454
vt 0.829422 0.628454
vt 0.808611 0.628454
vt 0.808611 0.628454
vt 0.808611 0.628454
vt 0.812230 0.621545
vt 0.812199 0.618308
vt 0.825781 0.618308
vt 0.825745 0.621545
vt 0.677300 0.626136
vt 0.808611 0.628454
vt 0.811338 0.635363
vt 0.826715 0.635363
vt 0.812295 0.614637
vt 0.826715 0.614637
vt 0.811338 0.614637
vt 0.829422 0.634710
vt 0.829422 0.634711
vt 0.829422 0.628454
vt 0.812186 0.635363
vt 0.812185 0.635363
vt 0.825797 0.635363
vt 0.825794 0.635363
vt 0.829422 0.615335
vt 0.829422 0.615339
vt 0.829422 0.623833
vt 0.829422 0.623833
vt 0.808611 0.615326
vt 0.808611 0.615313
vt 0.829422 0.634661
vt 0.829422 0.615332
vt 0.760727 0.614637
vt 0.808611 0.614636
vt 0.811801 0.614637
vt 0.760727 0.614636
vt 0.829422 0.626136
vt 0.811493 0.614636
vt 0.826561 0.614637
vt 0.811504 0.614637
vt 0.829422 0.626136
vt 0.808611 0.615293
vt 0.808611 0.615299
vt 0.829422 0.615281
vt 0.829422 0.615284
vt 0.826561 0.635363
vt 0.811493 0.635363
vt 0.811504 0.635363
vt 0.826552 0.635363
vt 0.811338 0.614637
vt 0.826715 0.614637
vt 0.826730 0.614637
vt 0.811323 0.614637
vt 0.808611 0.634706
vt 0.808611 0.634700
vt 0.808611 0.621545
vt 0.812186 0.635363
vt 0.829422 0.634665
vt 0.825797 0.614637
vt 0.812185 0.614637
vt 0.829422 0.626136
vt 0.808611 0.615316
vt 0.808611 0.615299
vt 0.808611 0.634674
vt 0.808611 0.634687
vt 0.808611 0.634684
vt 0.808611 0.634700
vt 0.829422 0.615339
vt 0.829422 0.615290
vt 0.829422 0.623833
vt 0.829422 0.623833
vt 0.677300 0.623833
vt 0.808611 0.626136
vt 0.808611 0.623833
vt 0.829422 0.626136
vt 0.808611 0.628454
vt 0.674316 0.616927
vt 0.682279 0.615320
vt 0.713166 0.615320
vt 0.713166 0.621545
vt 0.677300 0.621546
vt 0.675885 0.621546
vt 0.674331 0.621546
vt 0.713166 0.628455
vt 0.677300 0.628455
vt 0.812291 0.626136
vt 0.825658 0.626136
vt 0.825079 0.626136
vt 0.812863 0.626136
vt 0.713166 0.634680
vt 0.682279 0.634680
vt 0.674316 0.633073
vt 0.829422 0.626136
vt 0.829422 0.623833
vt 0.678962 0.614637
vt 0.675640 0.614637
vt 0.670578 0.626136
vt 0.670578 0.623833
vt 0.678962 0.635363
vt 0.670578 0.628455
vt 0.821038 0.614637
vt 0.664649 0.613794
vt 0.656721 0.612667
vt 0.670577 0.623833
vt 0.670577 0.623833
vt 0.808611 0.631475
vt 0.808611 0.634683
vt 0.760727 0.623833
vt 0.760727 0.626136
vt 0.829422 0.634669
vt 0.829422 0.634716
vt 0.808611 0.626136
vt 0.670578 0.626136
vt 0.670578 0.623833
vt 0.808611 0.623833
vt 0.829422 0.623833
vt 0.829422 0.626136
vt 0.829422 0.621546
vt 0.829422 0.615289
vt 0.829423 0.615281
vt 0.808611 0.615311
vt 0.811322 0.614637
vt 0.826561 0.614637
vt 0.811493 0.614636
vt 0.829422 0.615332
vt 0.829422 0.615335
vt 0.829422 0.634719
vt 0.808611 0.634689
vt 0.829422 0.623833
vt 0.808611 0.634687
vt 0.808611 0.634689
vt 0.829422 0.634719
vt 0.829422 0.634716
vt 0.674363 0.623833
vt 0.674363 0.626136
vt 0.811323 0.635363
vt 0.826730 0.635363
vt 0.808611 0.615311
vt 0.829422 0.615290
vt 0.829422 0.615289
vt 0.825097 0.621545
vt 0.812848 0.621545
vt 0.808611 0.623833
vt 0.826037 0.635363
vt 0.811801 0.635363
vt 0.826037 0.635363
vt 0.670578 0.616720
vt 0.670578 0.616720
vt 0.760727 0.614637
vt 0.821038 0.614637
vt 0.760727 0.614637
vt 0.825658 0.623833
vt 0.812291 0.623833
vt 0.812863 0.623833
vt 0.825079 0.623833
vt 0.812291 0.623833
vt 0.829422 0.634668
vt 0.829422 0.634665
vt 0.714627 0.621545
vt 0.714627 0.615320
vt 0.759453 0.615321
vt 0.759453 0.621545
vt 0.808611 0.634674
vt 0.808611 0.634676
vt 0.760727 0.615322
vt 0.760727 0.634678
vt 0.760727 0.628454
vt 0.759453 0.614637
vt 0.759453 0.614637
vt 0.714627 0.614636
vt 0.759453 0.614636
vt 0.714627 0.614637
vt 0.714627 0.628454
vt 0.714627 0.614636
vt 0.714627 0.635363
vt 0.759453 0.635363
vt 0.714627 0.623833
vt 0.714627 0.626136
vt 0.759453 0.634679
vt 0.759453 0.628454
vt 0.759453 0.635363
vt 0.760727 0.635363
vt 0.820106 0.635363
vt 0.812531 0.635363
vt 0.760727 0.635363
vt 0.811801 0.635363
vt 0.670578 0.621546
vt 0.826730 0.635363
vt 0.826561 0.635363
vt 0.675726 0.621546
vt 0.675734 0.626136
vt 0.675726 0.628455
vt 0.714627 0.634679
vt 0.713166 0.634680
vt 0.829422 0.628220
vt 0.829422 0.621837
vt 0.759453 0.634679
vt 0.714627 0.634680
vt 0.670578 0.634309
vt 0.680900 0.614637
vt 0.713166 0.614637
vt 0.714627 0.614637
vt 0.713166 0.614637
vt 0.670577 0.626136
vt 0.670578 0.626136
vt 0.675734 0.623833
vt 0.713166 0.635363
vt 0.680900 0.635364
vt 0.680900 0.635363
vt 0.675726 0.621546
vt 0.825781 0.618308
vt 0.812199 0.618308
vt 0.825797 0.614637
vt 0.670578 0.628455
vt 0.825097 0.628454
vt 0.825781 0.631692
vt 0.812199 0.631692
vt 0.825745 0.628454
vt 0.808611 0.615317
vt 0.808611 0.618525
vt 0.829422 0.634669
vt 0.829422 0.631491
vt 0.829422 0.618509
vt 0.829422 0.615331
vt 0.829422 0.615331
vt 0.812199 0.631692
vt 0.825781 0.631692
vt 0.812185 0.635363
vt 0.680900 0.635364
vt 0.829422 0.621545
vt 0.680900 0.614637
vt 0.713166 0.635364
vt 0.829422 0.634670
vt 0.829422 0.615828
vt 0.820106 0.614636
vt 0.687469 0.635363
vt 0.679894 0.635363
vt 0.670578 0.632829
vt 0.670578 0.628175
vt 0.670578 0.621825
vt 0.670577 0.617171
vt 0.829422 0.617236
vt 0.829422 0.633898
vt 0.687468 0.614637
vt 0.689943 0.635364
vt 0.817395 0.635363
vt 0.810057 0.614636
vt 0.682605 0.614636
vt 0.810057 0.635363
vt 0.829422 0.628141
vt 0.829422 0.621933
vt 0.682605 0.635363
vt 0.670578 0.632448
vt 0.670578 0.628084
vt 0.670578 0.621916
vt 0.670577 0.617552
vt 0.829422 0.617635
vt 0.829422 0.633483
vt 0.817395 0.614636
vt 0.689943 0.614637
vt 0.581219 0.924647
vt 0.581219 0.753160
vt 0.581219 0.753133
vt 0.581219 0.924631
vt 0.592871 0.250000
vt 0.590391 0.250000
vt 0.583134 0.255898
vt 0.581219 0.257455
vt 0.420758 0.537549
vt 0.581219 0.538119
vt 0.581219 0.711881
vt 0.420758 0.712451
vt 0.198044 0.536842
vt 0.360838 0.537135
vt 0.360838 0.712865
vt 0.198044 0.713158
vt 0.583756 0.496900
vt 0.594360 0.496912
vt 0.589443 0.526919
vt 0.583761 0.526980
vt 0.584002 0.323044
vt 0.616849 0.323044
vt 0.617582 0.323044
vt 0.583753 0.323044
vt 0.625000 0.250000
vt 0.625000 0.000000
vt 0.625000 -0.015840
vt 0.625000 0.265840
vt 0.433808 0.036539
vt 0.590243 0.036503
vt 0.590243 0.213497
vt 0.433808 0.213461
vt 0.581219 0.530518
vt 0.581219 0.719482
vt 0.384025 0.301664
vt 0.437546 0.257455
vt 0.581219 0.323044
vt 0.384025 0.323044
vt 0.403752 0.767848
vt 0.431467 0.759270
vt 0.384025 0.926956
vt 0.581219 0.926956
vt 0.581219 0.992545
vt 0.437546 0.992545
vt 0.384025 0.948336
vt 0.561492 0.759282
vt 0.584058 0.926956
vt 0.616849 0.926956
vt 0.616872 0.987115
vt 0.611285 0.992545
vt 0.584080 0.992545
vt 0.581219 0.926851
vt 0.801956 0.529594
vt 0.869588 0.529426
vt 0.869588 0.720574
vt 0.801956 0.720406
vt 0.626453 0.250000
vt 0.584001 0.257455
vt 0.611285 0.257455
vt 0.616872 0.262885
vt 0.589443 0.723081
vt 0.583767 0.723020
vt 0.583775 0.753100
vt 0.594360 0.753089
vt 0.617604 0.762350
vt 0.617582 0.926956
vt 0.583787 0.926956
vt 0.581219 0.496840
vt 0.581219 0.325356
vt 0.581219 0.325369
vt 0.581219 0.496867
vt 0.617604 0.487649
vt 0.598425 0.694358
vt 0.598425 0.555642
vt 0.798563 0.556463
vt 0.798563 0.693536
vt 0.801956 0.723677
vt 0.801956 0.526323
vt 0.584080 0.000000
vt 0.611285 0.000000
vt 0.626453 0.000000
vt 0.593777 0.000000
vt 0.173576 0.536649
vt 0.173576 0.713351
vt 0.125000 0.713461
vt 0.125000 0.536539
vt 0.625000 0.485832
vt 0.620162 0.490486
vt 0.600359 0.500000
vt 0.603052 0.524716
vt 0.596286 0.526919
vt 0.594360 0.750000
vt 0.596286 0.725284
vt 0.625000 0.764168
vt 0.620162 0.759514
vt 0.581219 0.753179
vt 0.592872 0.000000
vt 0.591457 0.000000
vt 0.581219 0.496821
vt 0.625000 0.926956
vt 0.625000 0.994588
vt 0.625000 0.323044
vt 0.581219 0.323675
vt 0.581219 0.323279
vt 0.625000 0.255412
vt 0.581219 0.528876
vt 0.581219 0.721124
vt 0.632865 0.500000
vt 0.629675 0.524716
vt 0.603236 0.695143
vt 0.632865 0.750000
vt 0.600359 0.750000
vt 0.603052 0.725285
vt 0.629675 0.725284
vt 0.629546 0.695143
vt 0.415728 0.750000
vt 0.364299 0.750000
vt 0.364299 0.500000
vt 0.415728 0.500000
vt 0.423298 0.496836
vt 0.423298 0.753164
vt 0.359681 0.750000
vt 0.198044 0.750000
vt 0.198044 0.500000
vt 0.359681 0.500000
vt 0.127183 0.500000
vt 0.171392 0.500000
vt 0.171392 0.750000
vt 0.127183 0.750000
vt 0.581219 1.000000
vt 0.433808 1.000000
vt 0.176664 0.500000
vt 0.176664 0.750000
vt 0.623016 0.998180
vt 0.616874 0.992545
vt 0.629431 0.251649
vt 0.616874 0.257455
vt 0.625000 0.029426
vt 0.625000 0.220574
vt 0.581219 0.993458
vt 0.581219 0.926917
vt 0.639115 0.556403
vt 0.629546 0.554858
vt 0.639168 0.526261
vt 0.603236 0.554858
vt 0.639115 0.693597
vt 0.639168 0.723739
vt 0.384025 0.765319
vt 0.403752 0.482152
vt 0.431467 0.490730
vt 0.384025 0.484681
vt 0.561492 0.490718
vt 0.403752 0.920850
vt 0.403752 0.329150
vt 0.561492 0.329150
vt 0.561492 0.920850
vt 0.446066 0.489466
vt 0.426985 0.482152
vt 0.424687 0.919588
vt 0.426985 0.767848
vt 0.446066 0.760534
vt 0.543420 0.489457
vt 0.543420 0.760543
vt 0.424687 0.330412
vt 0.540560 0.330412
vt 0.540560 0.919588
s 0
usemtl M_Noir_Bleuté
f 53/1/1 46/2/1 48/3/1 55/4/1
f 42/5/2 59/6/2 22/7/2 9/8/2
f 10/9/2 23/10/2 56/11/2 43/12/2
f 20/13/3 50/14/3 52/15/3 19/16/3
f 34/17/4 44/18/4 37/19/4 29/20/4
f 24/21/5 54/22/5 56/23/5 23/10/5
f 12/24/6 19/16/6 52/25/6 39/26/6
f 11/27/7 18/28/7 66/29/7 63/30/7
f 3/31/2 10/9/2 43/12/2 33/32/2
f 6/33/8 7/34/8 3/31/8 2/35/8
f 40/36/9 51/37/9 60/38/9 41/39/9
f 9/8/10 22/40/10 68/41/10 61/42/10
f 28/43/9 16/44/9 78/44/9 83/43/9
f 62/45/11 67/46/11 23/10/11 10/9/11
f 1/47/8 4/48/8 8/49/8 5/50/8
f 5/50/8 8/49/8 7/34/8 6/33/8
f 64/51/12 65/52/12 19/53/12 12/24/12
f 16/44/13 15/54/13 77/54/13 78/44/13
f 8/49/2 61/42/2 62/45/2 7/34/2
f 4/48/2 9/8/2 61/42/2 8/49/2
f 6/55/6 63/30/6 64/51/6 5/56/6
f 2/57/6 11/27/6 63/30/6 6/55/6
f 5/56/6 64/51/6 12/24/6 1/58/6
f 2/35/8 3/31/8 33/32/8 34/59/8 29/60/8 30/61/8
f 7/34/2 62/45/2 10/9/2 3/31/2
f 38/62/6 47/63/6 18/28/6 11/27/6
f 1/58/6 12/24/6 39/26/6 31/64/6
f 36/65/2 42/5/2 9/8/2 4/48/2
f 31/66/8 32/67/8 35/68/8 36/65/8 4/48/8 1/47/8
f 32/69/9 40/36/9 41/70/9 35/71/9
f 49/72/14 58/73/14 60/74/14 51/75/14
f 57/76/15 21/77/15 22/7/15 59/78/15
f 45/79/16 17/80/16 18/28/16 47/81/16
f 94/82/17 20/82/17 19/53/17 65/52/17
f 96/83/18 24/21/18 23/10/18 67/46/18
f 17/84/19 93/84/19 66/29/19 18/28/19
f 93/84/20 94/82/20 65/85/20 66/86/20
f 21/77/21 95/87/21 68/41/21 22/40/21
f 95/87/22 96/83/22 67/46/22 68/41/22
f 44/18/4 55/4/4 48/3/4 37/19/4
f 40/36/23 32/69/23 31/64/23 39/26/23
f 42/5/24 36/65/24 35/71/24 41/70/24
f 44/18/25 34/17/25 33/32/25 43/12/25
f 29/88/26 37/89/26 38/62/26 30/90/26
f 49/91/27 51/92/27 52/15/27 50/14/27
f 57/93/28 59/94/28 60/74/28 58/73/28
f 53/1/29 55/4/29 56/95/29 54/96/29
f 45/79/30 47/81/30 48/97/30 46/98/30
f 37/19/31 48/3/31 47/99/31 38/100/31
f 43/12/32 56/11/32 55/4/32 44/18/32
f 39/26/33 52/25/33 51/37/33 40/36/33
f 59/6/34 42/5/34 41/39/34 60/38/34
f 30/90/6 38/62/6 11/27/6 2/57/6
f 15/54/35 16/44/35 62/45/35 61/42/35
f 13/101/36 14/102/36 64/51/36 63/30/36
f 26/103/36 25/104/36 66/86/36 65/85/36
f 28/43/35 27/105/35 68/41/35 67/46/35
f 25/104/36 13/101/36 63/30/36 66/86/36
f 14/102/36 26/103/36 65/85/36 64/51/36
f 27/105/35 15/54/35 61/42/35 68/41/35
f 16/44/35 28/43/35 67/46/35 62/45/35
f 26/103/4 14/102/4 80/102/4 81/103/4
f 27/105/38 28/43/38 83/43/38 84/105/38
f 14/102/39 13/101/39 79/101/39 80/102/39
f 15/54/4 27/105/4 84/105/4 77/54/4
f 13/101/9 25/104/9 82/104/9 79/101/9
f 25/104/37 26/103/37 81/103/37 82/104/37
f 104/114/4 115/114/4 106/115/4 97/115/4
f 527/120/41 567/121/41 562/122/41 530/123/41 108/124/41 107/125/41
f 533/130/41 561/131/41 559/132/41 536/133/41 114/134/41 113/135/41
f 57/93/41 58/73/41 101/141/41 102/142/41
f 105/143/43 106/115/43 107/125/43
f 108/124/44 109/144/44 110/145/44
f 111/146/45 112/141/45 113/135/45
f 114/147/46 115/114/46 116/148/46
f 50/14/41 20/82/41 99/149/41
f 99/149/47 110/145/47 109/144/47 100/144/47
f 111/146/48 102/142/48 101/141/48 112/141/48
f 115/114/49 104/114/49 103/150/49 116/148/49
f 105/143/50 98/151/50 97/115/50 106/115/50
f 236/173/6 235/174/6 274/174/6 275/173/6
f 220/187/6 219/188/6 299/188/6 300/187/6
f 541/162/8 537/119/8 330/170/8 390/189/8 391/190/8 331/191/8 320/192/8 542/192/8
f 234/193/9 327/194/9 464/195/9 245/193/9
f 226/196/6 225/197/6 306/197/6 308/196/6
f 332/206/6 392/207/6 144/208/6 120/162/6
f 550/209/8 553/210/8 598/210/8 597/209/8
f 346/211/9 347/212/9 476/213/9 474/214/9
f 154/219/54 153/220/54 265/220/54 261/219/54
f 173/221/9 345/221/9 473/222/9 277/221/9
f 174/128/4 351/129/4 479/128/4 279/128/4
f 348/223/9 168/224/9 249/224/9 475/225/9
f 352/226/41 500/227/41 494/228/41 349/229/41
f 240/230/4 226/196/4 308/196/4 312/230/4
f 196/128/4 210/128/4 289/128/4 250/128/4
f 360/240/4 504/241/4 506/242/4 353/243/4
f 208/256/64 209/221/64 127/221/64 151/189/64
f 161/170/9 173/221/9 277/221/9 278/170/9
f 356/215/9 496/278/9 498/279/9 357/216/9
f 225/197/9 239/291/9 311/291/9 306/197/9
f 205/292/79 206/293/79 153/220/79 154/219/79
f 203/166/64 207/247/64 152/246/64 129/162/64
f 207/247/64 208/256/64 151/189/64 152/246/64
f 121/129/4 196/128/4 250/128/4 251/129/4
f 160/295/9 125/223/9 253/223/9 276/295/9
f 224/303/9 238/304/9 310/304/9 304/303/9
f 103/150/2 102/142/2 111/146/2 116/148/2
f 142/316/8 141/317/8 393/317/8 396/316/8
f 570/320/41 569/314/41 533/321/41 113/322/41 108/124/41 530/123/41
f 107/125/82 108/124/82 110/145/82 105/143/82
f 113/135/83 114/134/83 116/148/83 111/146/83
f 99/149/6 98/151/6 105/143/6 110/145/6
f 237/300/4 223/299/4 302/299/4 309/300/4
f 385/323/9 394/324/9 488/317/9 485/323/9
f 544/138/84 543/136/84 560/136/84 566/138/84
f 160/295/85 168/224/85 348/225/85 501/325/85 503/326/85 359/285/85 125/223/85
f 393/317/9 141/317/9 262/317/9 487/317/9
f 130/223/9 204/223/9 259/223/9 260/223/9
f 214/327/41 145/220/41 146/292/41 215/328/41
f 150/246/86 149/294/86 166/294/86 165/246/86
f 124/162/86 150/246/86 165/246/86 159/162/86
f 148/292/87 147/220/87 164/220/87 163/292/87
f 168/224/9 160/295/9 276/295/9 249/224/9
f 547/319/2 142/316/2 241/316/2 242/319/2
f 149/294/86 123/170/86 161/170/86 166/294/86
f 392/207/6 389/189/6 143/256/6 144/208/6
f 204/223/9 198/223/9 290/223/9 259/223/9
f 167/162/4 159/162/4 284/162/4 248/162/4
f 395/332/2 394/324/2 385/333/2 388/316/2
f 193/219/79 194/334/79 184/220/79 183/292/79
f 147/220/90 148/292/90 256/292/90 264/220/90
f 386/353/41 235/174/41 236/173/41 387/354/41
f 352/226/4 349/229/4 478/360/4 480/361/4
f 194/334/102 193/219/102 287/219/102 288/334/102
f 144/208/64 143/256/64 202/256/64 201/247/64
f 120/162/64 144/208/64 201/247/64 197/162/64
f 146/292/79 145/220/79 200/362/79 199/292/79
f 142/316/4 396/316/4 466/332/4 241/316/4
f 143/256/64 119/170/64 195/170/64 202/256/64
f 201/247/64 202/256/64 208/256/64 207/247/64
f 197/162/64 201/247/64 207/247/64 203/166/64
f 202/256/64 195/170/64 209/221/64 208/256/64
f 560/136/104 561/138/104 569/314/104 566/138/104
f 568/117/106 556/118/106 564/119/106 567/118/106
f 101/141/9 100/144/9 109/144/9 112/141/9
f 230/392/9 224/303/9 304/303/9 303/392/9
f 568/117/41 527/120/41 107/125/41 114/147/41 536/133/41 557/318/41
f 49/91/41 50/14/41 99/149/41 100/144/41
f 141/317/2 543/136/2 243/136/2 262/317/2
f 231/396/41 219/188/41 220/187/41 232/397/41
f 549/402/2 525/403/2 600/403/2 588/402/2
f 93/84/41 98/151/41 99/149/41 94/82/41
f 239/291/41 225/197/41 226/196/41 240/230/41
f 95/87/41 102/142/41 103/150/41 96/83/41
f 543/136/4 333/136/4 470/406/4 243/136/4
f 24/21/41 103/150/41 54/22/41
f 326/302/4 233/301/4 244/301/4 471/409/4
f 53/1/41 54/22/41 103/150/41 104/114/41
f 113/322/108 112/141/108 109/144/108 108/124/108
f 24/21/41 96/83/41 103/150/41
f 227/414/8 551/415/8 595/415/8 596/414/8
f 114/147/109 107/125/109 106/115/109 115/114/109
f 141/317/2 142/316/2 547/319/2 558/319/2 560/136/2 543/136/2
f 223/299/4 229/378/4 301/378/4 302/299/4
f 239/291/2 240/230/2 312/230/2 311/291/2
f 231/396/2 232/397/2 307/397/2 305/396/2
f 58/73/41 49/91/41 100/144/41 101/141/41
f 389/189/6 329/222/6 119/170/6 143/256/6
f 20/82/41 94/82/41 99/149/41
f 395/423/4 388/316/4 462/332/4 465/424/4
f 235/174/9 386/353/9 486/425/9 274/174/9
f 93/84/41 17/84/41 98/151/41
f 53/1/41 104/114/41 97/115/41 46/2/41
f 95/87/41 21/77/41 102/142/41
f 57/93/41 102/142/41 21/77/41
f 328/169/9 335/319/9 468/319/9 463/319/9
f 336/169/9 547/319/9 242/319/9 467/319/9
f 45/79/41 46/2/41 97/115/41 98/151/41
f 334/136/4 325/140/4 472/140/4 469/136/4
f 17/84/41 45/79/41 98/151/41
f 387/354/4 236/173/4 275/173/4 461/410/4
f 166/294/110 161/170/110 278/170/110 282/294/110
f 494/430/108 500/431/108 498/279/108 496/432/108
f 508/435/41 502/436/41 347/212/41 346/437/41
f 198/223/9 122/223/9 247/223/9 290/223/9
f 162/128/4 174/128/4 279/128/4 254/128/4
f 146/292/4 199/292/4 291/292/4 246/292/4
f 193/219/4 183/292/4 268/292/4 287/219/4
f 210/128/4 128/128/4 258/128/4 289/128/4
f 148/292/4 163/292/4 280/292/4 256/292/4
f 200/362/9 145/220/9 263/220/9 292/362/9
f 184/220/9 194/334/9 288/334/9 269/220/9
f 212/198/4 121/129/4 251/129/4 293/198/4
f 358/281/117 497/438/117 499/439/117 351/129/117 174/128/117 162/128/117 126/128/117
f 229/378/4 217/381/4 297/381/4 301/378/4
f 164/220/9 147/220/9 264/220/9 281/220/9
f 183/292/54 184/220/54 269/220/54 268/292/54
f 122/223/9 213/386/9 294/386/9 247/223/9
f 218/399/9 230/392/9 303/392/9 298/399/9
f 126/128/4 162/128/4 254/128/4 255/128/4
f 145/220/9 214/327/9 295/327/9 263/220/9
f 219/188/9 231/396/9 305/396/9 299/188/9
f 206/293/102 205/292/102 266/292/102 267/293/102
f 217/381/4 212/198/4 293/198/4 297/381/4
f 233/301/4 237/300/4 309/300/4 244/301/4
f 215/328/4 146/292/4 246/292/4 296/328/4
f 232/397/4 220/187/4 300/187/4 307/397/4
f 165/246/110 166/294/110 282/294/110 283/246/110
f 205/292/4 154/219/4 261/219/4 266/292/4
f 213/386/9 218/399/9 298/399/9 294/386/9
f 238/304/9 234/193/9 245/193/9 310/304/9
f 214/327/2 215/328/2 296/328/2 295/327/2
f 159/162/119 165/246/119 283/246/119 284/162/119
f 199/292/54 200/362/54 292/362/54 291/292/54
f 354/329/120 505/440/120 507/441/120 345/221/120 173/221/120 161/170/120 123/170/120
f 153/220/9 206/293/9 267/293/9 265/220/9
f 163/292/121 164/220/121 281/220/121 280/292/121
f 159/162/122 167/162/122 350/162/122 493/442/122 495/443/122 355/444/122 124/162/122
f 502/445/109 508/446/109 506/242/109 504/447/109
f 350/449/4 167/162/4 248/162/4 477/162/4
f 392/207/133 332/206/133 331/162/133 391/190/133
f 476/213/9 347/212/9 348/223/9 475/225/9
f 386/353/148 387/354/148 388/316/148 385/333/148
f 329/222/149 389/189/149 390/189/149 330/170/149
f 389/189/150 392/207/150 391/190/150 390/189/150
f 394/324/151 395/332/151 396/316/151 393/317/151
f 478/360/4 349/229/4 350/449/4 477/162/4
f 334/136/4 469/136/4 470/406/4 333/136/4
f 468/319/9 335/319/9 336/169/9 467/319/9
f 328/169/9 463/319/9 464/195/9 327/194/9
f 486/425/9 386/353/9 385/323/9 485/323/9
f 393/317/9 487/317/9 488/317/9 394/324/9
f 472/140/4 325/140/4 326/302/4 471/409/4
f 466/332/4 396/316/4 395/423/4 465/424/4
f 387/354/4 461/410/4 462/332/4 388/316/4
f 346/211/9 474/214/9 473/222/9 345/221/9
f 352/226/4 480/361/4 479/128/4 351/129/4
f 495/443/190 493/442/190 494/430/190 496/432/190
f 499/439/191 497/438/191 498/279/191 500/431/191
f 503/326/192 501/325/192 502/445/192 504/447/192
f 507/441/193 505/440/193 506/242/193 508/446/193
f 351/129/194 499/439/194 500/227/194 352/226/194
f 493/442/195 350/162/195 349/229/195 494/228/195
f 496/278/196 356/215/196 355/444/196 495/443/196
f 497/438/197 358/281/197 357/216/197 498/279/197
f 505/440/198 354/329/198 353/243/198 506/242/198
f 359/285/199 503/326/199 504/241/199 360/240/199
f 345/221/200 507/441/200 508/435/200 346/437/200
f 501/325/201 348/225/201 347/212/201 502/436/201
f 568/117/41 567/118/41 527/120/41
f 562/453/41 570/192/41 530/123/41
f 569/314/41 561/138/41 533/130/41
f 559/132/41 557/179/41 536/133/41
f 537/119/8 538/118/8 539/118/8
f 540/369/8 541/192/8 542/192/8
f 543/136/8 544/138/8 545/138/8
f 546/318/8 547/179/8 548/179/8
f 563/162/6 564/119/6 537/119/6 541/162/6
f 541/192/214 540/369/214 565/369/214 563/192/214
f 562/453/215 563/192/215 565/369/215 570/192/215
f 557/179/216 559/132/216 558/319/216 555/318/216
f 544/138/9 566/138/9 565/369/9 540/369/9
f 529/454/2 550/209/2 597/209/2 602/454/2
f 554/455/4 535/456/4 557/179/4 555/318/4
f 534/457/2 221/458/2 558/319/2 559/132/2
f 552/459/2 532/460/2 561/131/2 560/136/2
f 221/458/2 552/459/2 560/136/2 558/319/2
f 528/461/6 551/415/6 563/162/6 562/122/6
f 551/415/6 227/414/6 564/119/6 563/162/6
f 553/210/9 550/209/9 565/369/9 566/138/9
f 526/462/6 528/461/6 562/122/6 567/118/6
f 529/454/9 531/463/9 569/314/9 570/192/9
f 532/460/2 534/457/2 559/132/2 561/131/2
f 531/463/9 553/210/9 566/138/9 569/314/9
f 550/209/9 529/454/9 570/192/9 565/369/9
f 525/403/4 549/402/4 556/118/4 568/117/4
f 227/414/6 526/462/6 567/118/6 564/119/6
f 572/465/6 584/468/6 616/468/6 604/465/6
f 526/462/217 227/414/217 596/414/217 599/462/217
f 528/461/41 526/462/41 599/462/41 594/461/41
f 535/456/6 554/455/6 587/455/6 589/456/6
f 221/458/217 534/457/217 591/457/217 590/458/217
f 531/463/41 529/454/41 602/454/41 601/463/41
f 532/460/218 552/459/218 592/459/218 593/460/218
f 553/210/6 531/463/6 601/463/6 598/210/6
f 551/415/218 528/461/218 594/461/218 595/415/218
f 571/464/4 573/471/4 589/456/4 587/455/4
f 575/472/2 574/473/2 590/458/2 591/457/2
f 576/474/2 577/475/2 593/460/2 592/459/2
f 578/476/6 579/470/6 595/415/6 594/461/6
f 585/479/9 582/467/9 598/210/9 601/463/9
f 581/466/9 586/478/9 602/454/9 597/209/9
f 584/468/4 572/465/4 588/402/4 600/403/4
f 580/469/6 583/477/6 599/462/6 596/414/6
f 607/472/2 609/475/2 608/474/2 606/473/2
f 611/470/6 610/476/6 615/477/6 612/469/6
f 603/464/4 604/465/4 616/468/4 605/471/4
f 613/466/9 614/467/9 617/479/9 618/478/9
f 583/477/219 580/469/219 612/469/219 615/477/219
f 573/471/2 571/464/2 603/464/2 605/471/2
f 574/473/219 575/472/219 607/472/219 606/473/219
f 577/475/220 576/474/220 608/474/220 609/475/220
f 582/467/2 585/479/2 617/479/2 614/467/2
f 579/470/220 578/476/220 610/476/220 611/470/220
f 586/478/6 581/466/6 613/466/6 618/478/6
f 685/480/8 643/481/8 706/482/8 688/483/8
f 630/484/221 639/485/221 698/486/221 697/487/221 629/487/221
f 700/496/222 651/497/222 710/498/222 701/499/222
f 687/500/223 635/501/223 645/502/223 691/503/223
f 620/504/6 619/505/6 679/506/6 682/507/6
f 634/490/8 631/489/8 641/512/8 642/513/8
f 684/526/4 638/527/4 676/528/4 677/529/4 693/530/4
f 628/522/8 736/521/8 685/531/8 692/522/8
f 636/532/41 683/533/41 678/534/41 637/535/41
f 630/484/6 620/504/6 682/536/6 639/485/6
f 696/537/9 680/538/9 681/539/9 635/501/9 687/500/9
f 701/499/2 710/498/2 711/540/2 704/541/2
f 705/542/4 654/543/4 658/544/4 646/545/4 689/546/4
f 640/547/8 686/548/8 690/549/8 699/550/8
f 654/543/225 705/542/225 704/541/225 711/540/225
f 691/503/9 645/502/9 648/551/9 651/497/9 700/496/9
f 655/552/226 653/553/226 723/553/226 724/552/226
f 644/554/227 647/555/227 726/555/227 725/554/227
f 636/532/228 637/535/228 716/556/228 715/557/228
f 693/558/230 677/559/230 679/560/230 695/561/230
f 638/527/232 684/526/232 689/546/232 646/545/232
f 627/509/6 619/505/6 620/504/6 630/510/6
f 648/551/233 707/566/233 708/567/233
f 651/568/234 709/569/234 710/570/234
f 654/571/235 711/540/235 712/572/235
f 714/573/236 658/544/236 713/574/236
f 643/481/8 732/575/8 634/490/8 642/513/8
f 680/538/237 696/537/237 698/486/237 639/485/237 682/536/237
f 619/505/6 627/576/6 694/577/6 695/561/6 679/560/6
f 641/512/8 631/489/8 731/578/8 640/547/8
f 637/579/238 678/580/238 676/528/238 638/527/238
f 645/502/239 635/501/239 636/581/239 715/581/239
f 716/579/240 637/579/240 638/527/240 646/545/240
f 735/516/8 629/487/8 697/487/8 686/582/8
f 731/578/8 735/516/8 686/583/8 640/547/8
f 683/584/241 636/581/241 635/501/241 681/539/241
f 642/513/8 641/512/8 702/585/8 703/586/8
f 651/568/242 648/587/242 708/588/242 709/569/242
f 656/589/243 655/552/243 724/552/243 722/589/243
f 658/590/244 654/591/244 712/592/244 713/593/244
f 659/594/9 656/589/9 722/589/9 719/594/9
f 648/551/245 645/502/245 715/581/245 707/566/245
f 646/545/246 658/544/246 714/573/246 716/579/246
f 702/585/8 641/512/8 640/547/8 699/550/8
f 706/482/8 643/481/8 642/513/8 703/586/8
f 676/528/259 678/580/259 679/613/259 677/614/259
f 680/538/260 682/536/260 683/615/260 681/616/260
f 678/617/261 683/618/261 682/507/261 679/506/261
f 694/609/221 627/609/221 628/522/221 692/522/221
f 696/537/262 697/487/262 698/486/262
f 685/480/263 688/483/263 689/546/263 684/526/263
f 687/500/264 691/503/264 690/549/264 686/548/264
f 693/619/265 695/609/265 694/609/265 692/522/265
f 700/496/266 701/499/266 702/585/266 699/550/266
f 704/541/267 705/542/267 706/482/267 703/586/267
f 684/526/268 693/530/268 692/522/268 685/531/268
f 696/537/269 687/500/269 686/582/269 697/487/269
f 691/503/270 700/496/270 699/550/270 690/549/270
f 701/499/271 704/541/271 703/586/271 702/585/271
f 705/542/272 689/546/272 688/483/272 706/482/272
f 736/521/8 732/575/8 643/481/8 685/620/8
f 649/621/273 650/622/273 708/588/273 707/623/273
f 652/624/274 653/553/274 710/498/274 709/569/274
f 655/552/274 656/589/274 712/592/274 711/540/274
f 659/594/273 657/625/273 714/626/273 713/593/273
f 650/622/275 652/624/275 709/569/275 708/588/275
f 656/589/276 659/594/276 713/593/276 712/592/276
f 653/553/274 655/552/274 711/540/274 710/498/274
f 644/554/277 649/621/277 707/623/277 715/557/277
f 657/625/278 647/555/278 716/556/278 714/626/278
f 647/555/41 644/554/41 715/557/41 716/556/41
f 657/625/282 659/594/282 719/594/282 718/625/282
f 650/622/283 649/621/283 717/621/283 720/622/283
f 649/621/4 644/554/4 725/554/4 717/621/4
f 652/624/4 650/622/4 720/622/4 721/624/4
f 653/553/284 652/624/284 721/624/284 723/553/284
f 647/555/9 657/625/9 718/625/9 726/555/9
f 833/480/8 836/483/8 854/482/8 791/481/8
f 778/484/221 777/487/221 845/487/221 846/486/221 787/485/221
f 848/496/225 849/499/225 858/498/225 799/497/225
f 835/500/232 839/503/232 793/502/232 783/501/232
f 768/504/6 830/507/6 827/506/6 767/505/6
f 782/490/8 790/513/8 789/512/8 779/489/8
f 832/526/9 841/530/9 825/529/9 824/528/9 786/527/9
f 776/522/8 840/522/8 833/531/8 884/521/8
f 784/532/41 785/535/41 826/534/41 831/533/41
f 778/484/6 787/485/6 830/536/6 768/504/6
f 844/537/4 835/500/4 783/501/4 829/539/4 828/538/4
f 849/499/2 852/541/2 859/540/2 858/498/2
f 853/542/9 837/546/9 794/545/9 806/544/9 802/543/9
f 788/547/8 847/550/8 838/549/8 834/548/8
f 802/543/222 859/540/222 852/541/222 853/542/222
f 839/503/4 848/496/4 799/497/4 796/551/4 793/502/4
f 803/552/226 872/552/226 871/553/226 801/553/226
f 792/554/227 873/554/227 874/555/227 795/555/227
f 784/532/228 863/557/228 864/556/228 785/535/228
f 841/558/285 843/561/285 827/560/285 825/559/285
f 786/527/223 794/545/223 837/546/223 832/526/223
f 775/509/6 778/510/6 768/504/6 767/505/6
f 796/551/236 856/567/236 855/566/236
f 799/568/235 858/570/235 857/569/235
f 802/571/234 860/572/234 859/540/234
f 862/573/233 861/574/233 806/544/233
f 791/481/8 790/513/8 782/490/8 880/575/8
f 828/538/286 830/536/286 787/485/286 846/486/286 844/537/286
f 767/505/6 827/560/6 843/561/6 842/577/6 775/576/6
f 789/512/8 788/547/8 879/578/8 779/489/8
f 785/579/241 786/527/241 824/528/241 826/580/241
f 793/502/240 863/581/240 784/581/240 783/501/240
f 864/579/239 794/545/239 786/527/239 785/579/239
f 883/516/8 834/582/8 845/487/8 777/487/8
f 879/578/8 788/547/8 834/583/8 883/516/8
f 831/584/238 829/539/238 783/501/238 784/581/238
f 790/513/8 851/586/8 850/585/8 789/512/8
f 799/568/244 857/569/244 856/588/244 796/587/244
f 804/589/284 870/589/284 872/552/284 803/552/284
f 806/590/242 861/593/242 860/592/242 802/591/242
f 807/594/4 867/594/4 870/589/4 804/589/4
f 796/551/246 855/566/246 863/581/246 793/502/246
f 794/545/245 864/579/245 862/573/245 806/544/245
f 850/585/8 847/550/8 788/547/8 789/512/8
f 854/482/8 851/586/8 790/513/8 791/481/8
f 824/528/260 825/614/260 827/613/260 826/580/260
f 828/538/259 829/616/259 831/615/259 830/536/259
f 826/617/261 827/506/261 830/507/261 831/618/261
f 842/609/221 840/522/221 776/522/221 775/609/221
f 844/537/287 846/486/287 845/487/287
f 833/480/288 832/526/288 837/546/288 836/483/288
f 835/500/289 834/548/289 838/549/289 839/503/289
f 841/619/290 840/522/290 842/609/290 843/609/290
f 848/496/291 847/550/291 850/585/291 849/499/291
f 852/541/292 851/586/292 854/482/292 853/542/292
f 832/526/293 833/531/293 840/522/293 841/530/293
f 844/537/294 845/487/294 834/582/294 835/500/294
f 839/503/295 838/549/295 847/550/295 848/496/295
f 849/499/271 850/585/271 851/586/271 852/541/271
f 853/542/296 854/482/296 836/483/296 837/546/296
f 884/521/8 833/620/8 791/481/8 880/575/8
f 797/621/273 855/623/273 856/588/273 798/622/273
f 800/624/274 857/569/274 858/498/274 801/553/274
f 803/552/274 859/540/274 860/592/274 804/589/274
f 807/594/273 861/593/273 862/626/273 805/625/273
f 798/622/276 856/588/276 857/569/276 800/624/276
f 804/589/275 860/592/275 861/593/275 807/594/275
f 801/553/274 858/498/274 859/540/274 803/552/274
f 792/554/278 863/557/278 855/623/278 797/621/278
f 805/625/277 862/626/277 864/556/277 795/555/277
f 795/555/41 864/556/41 863/557/41 792/554/41
f 805/625/283 866/625/283 867/594/283 807/594/283
f 798/622/298 868/622/298 865/621/298 797/621/298
f 797/621/9 865/621/9 873/554/9 792/554/9
f 800/624/9 869/624/9 868/622/9 798/622/9
f 801/553/243 871/553/243 869/624/243 800/624/243
f 795/555/4 874/555/4 866/625/4 805/625/4
usemtl M_Noir_Profond
f 70/106/13 69/107/13 85/107/13 86/106/13
f 74/108/37 73/109/37 89/109/37 90/108/37
f 69/107/35 70/106/35 78/44/35 77/54/35
f 71/110/36 72/111/36 80/102/36 79/101/36
f 73/109/36 74/108/36 82/104/36 81/103/36
f 75/112/35 76/113/35 84/105/35 83/43/35
f 74/108/36 71/110/36 79/101/36 82/104/36
f 72/111/36 73/109/36 81/103/36 80/102/36
f 76/113/35 69/107/35 77/54/35 84/105/35
f 70/106/35 75/112/35 83/43/35 78/44/35
f 75/112/9 70/106/9 86/106/9 91/112/9
f 73/109/4 72/111/4 88/111/4 89/109/4
f 76/113/38 75/112/38 91/112/38 92/113/38
f 72/111/39 71/110/39 87/110/39 88/111/39
f 69/107/4 76/113/4 92/113/4 85/107/4
f 71/110/9 74/108/9 90/108/9 87/110/9
f 461/410/41 275/173/41 245/193/41 464/411/41
f 296/328/41 246/292/41 247/223/41 294/386/41
f 488/317/2 469/136/2 472/140/2 485/323/2
f 471/429/41 244/301/41 274/174/41 486/425/41
f 273/312/80 277/221/80 473/170/80 489/294/80
f 249/224/89 270/331/89 484/331/89 475/225/89
f 269/220/111 286/129/111 255/128/111 264/220/111
f 267/293/79 289/128/79 258/128/79 265/220/79
f 259/223/79 266/292/79 261/219/79 260/223/79
f 252/231/112 268/292/112 256/292/112 253/223/112
f 268/292/113 269/220/113 264/220/113 256/292/113
f 480/361/41 478/360/41 481/374/41 492/373/41
f 271/220/89 279/128/89 479/128/89 491/220/89
f 248/162/80 272/246/80 482/246/80 477/162/80
f 242/319/8 241/316/8 466/316/8 467/433/8
f 262/317/8 243/136/8 470/136/8 487/317/8
f 293/198/41 251/129/41 263/220/41 295/327/41
f 253/223/114 256/292/114 280/292/114 276/295/114
f 264/220/115 255/128/115 254/128/115 281/220/115
f 283/246/80 282/294/80 273/312/80 272/246/80
f 284/162/80 283/246/80 272/246/80 248/162/80
f 280/292/116 281/220/116 271/220/116 270/331/116
f 276/295/116 280/292/116 270/331/116 249/224/116
f 281/220/116 254/128/116 279/128/116 271/220/116
f 282/294/80 278/170/80 277/221/80 273/312/80
f 285/224/79 287/219/79 268/292/79 252/231/79
f 288/334/79 257/275/79 286/129/79 269/220/79
f 265/220/79 258/128/79 257/275/79 288/334/79
f 260/223/79 261/219/79 287/219/79 285/224/79
f 261/219/79 265/220/79 288/334/79 287/219/79
f 247/223/79 246/292/79 291/292/79 290/223/79
f 263/220/79 251/129/79 250/128/79 292/362/79
f 291/292/79 292/362/79 267/293/79 266/292/79
f 290/223/79 291/292/79 266/292/79 259/223/79
f 292/362/79 250/128/79 289/128/79 267/293/79
f 299/188/41 295/327/41 296/328/41 300/187/41
f 297/381/41 293/198/41 295/327/41 299/188/41
f 300/187/41 296/328/41 294/386/41 298/399/41
f 307/397/41 300/187/41 298/399/41 303/392/41
f 301/378/41 297/381/41 299/188/41 305/396/41
f 309/300/41 302/299/41 306/197/41 311/291/41
f 312/230/41 308/196/41 304/303/41 310/304/41
f 306/197/41 305/396/41 307/397/41 308/196/41
f 302/299/41 301/378/41 305/396/41 306/197/41
f 308/196/41 307/397/41 303/392/41 304/303/41
f 468/319/2 465/316/2 462/316/2 463/319/2
f 483/308/41 490/307/41 474/434/41 476/213/41
f 275/173/41 312/230/41 310/304/41 245/193/41
f 244/301/41 309/300/41 311/291/41 274/174/41
f 274/174/41 311/291/41 312/230/41 275/173/41
f 461/410/182 464/411/182 463/319/182 462/316/182
f 465/316/183 468/319/183 467/433/183 466/316/183
f 481/374/184 478/360/184 477/162/184 482/246/184
f 483/308/185 476/213/185 475/225/185 484/331/185
f 471/429/186 486/425/186 485/323/186 472/140/186
f 469/136/187 488/317/187 487/317/187 470/136/187
f 474/434/188 490/307/188 489/294/188 473/170/188
f 480/361/189 492/373/189 491/220/189 479/128/189
f 571/464/41 572/465/41 604/465/41 603/464/41
f 581/466/41 582/467/41 614/467/41 613/466/41
f 580/469/41 579/470/41 611/470/41 612/469/41
f 572/465/4 571/464/4 587/455/4 588/402/4
f 574/473/2 576/474/2 592/459/2 590/458/2
f 579/470/6 580/469/6 596/414/6 595/415/6
f 582/467/9 581/466/9 597/209/9 598/210/9
f 583/477/6 578/476/6 594/461/6 599/462/6
f 573/471/4 584/468/4 600/403/4 589/456/4
f 586/478/9 585/479/9 601/463/9 602/454/9
f 577/475/2 575/472/2 591/457/2 593/460/2
f 578/476/8 583/477/8 615/477/8 610/476/8
f 584/468/8 573/471/8 605/471/8 616/468/8
f 585/479/8 586/478/8 618/478/8 617/479/8
f 575/472/8 577/475/8 609/475/8 607/472/8
f 576/474/41 574/473/41 606/473/41 608/474/41
f 740/636/41 739/637/41 759/637/41 760/636/41
f 743/638/41 738/639/41 758/639/41 763/638/41
f 737/640/4 738/639/4 748/518/4 747/519/4
f 739/637/9 740/636/9 750/629/9 749/628/9
f 740/636/9 741/641/9 751/631/9 750/629/9
f 742/642/4 737/640/4 747/519/4 752/525/4
f 738/639/4 743/638/4 753/632/4 748/518/4
f 744/643/9 739/637/9 749/628/9 754/633/9
f 745/644/9 744/643/9 754/633/9 755/634/9
f 741/641/9 745/644/9 755/634/9 751/631/9
f 746/645/4 742/642/4 752/525/4 756/635/4
f 743/638/4 746/645/4 756/635/4 753/632/4
f 742/642/8 746/645/8 766/645/8 762/642/8
f 739/637/41 744/643/41 764/643/41 759/637/41
f 741/641/224 740/636/224 760/636/224 761/641/224
f 746/645/2 743/638/2 763/638/2 766/645/2
f 744/643/2 745/644/2 765/644/2 764/643/2
f 737/640/224 742/642/224 762/642/224 757/640/224
f 738/639/41 737/640/41 757/640/41 758/639/41
f 745/644/8 741/641/8 761/641/8 765/644/8
f 888/636/41 908/636/41 907/637/41 887/637/41
f 891/638/41 911/638/41 906/639/41 886/639/41
f 885/640/9 895/519/9 896/518/9 886/639/9
f 887/637/4 897/628/4 898/629/4 888/636/4
f 888/636/4 898/629/4 899/631/4 889/641/4
f 890/642/9 900/525/9 895/519/9 885/640/9
f 886/639/9 896/518/9 901/632/9 891/638/9
f 892/643/4 902/633/4 897/628/4 887/637/4
f 893/644/4 903/634/4 902/633/4 892/643/4
f 889/641/4 899/631/4 903/634/4 893/644/4
f 894/645/9 904/635/9 900/525/9 890/642/9
f 891/638/9 901/632/9 904/635/9 894/645/9
f 890/642/8 910/642/8 914/645/8 894/645/8
f 887/637/41 907/637/41 912/643/41 892/643/41
f 889/641/224 909/641/224 908/636/224 888/636/224
f 894/645/2 914/645/2 911/638/2 891/638/2
f 892/643/2 912/643/2 913/644/2 893/644/2
f 885/640/224 905/640/224 910/642/224 890/642/224
f 886/639/41 906/639/41 905/640/41 885/640/41
f 893/644/8 913/644/8 909/641/8 889/641/8
usemtl M_Cyan
f 85/107/35 92/113/35 91/112/35 86/106/35
f 87/110/36 90/108/36 89/109/36 88/111/36
f 758/639/4 757/640/4 762/642/4 766/645/4 763/638/4
f 764/643/9 765/644/9 761/641/9 760/636/9 759/637/9
f 906/639/9 911/638/9 914/645/9 910/642/9 905/640/9
f 912/643/4 907/637/4 908/636/4 909/641/4 913/644/4
usemtl M_Gris_Metal
f 546/116/4 538/117/4 556/117/4 555/116/4
f 556/118/40 538/118/40 537/119/40 564/119/40
f 339/126/42 363/127/42 128/128/42 210/128/42 196/128/42 121/129/42
f 543/136/8 545/137/8 314/138/8 524/139/8 333/140/8
f 222/152/8 228/153/8 459/154/8 448/155/8
f 338/156/4 365/157/4 367/158/4 426/159/4 423/160/4 315/161/4
f 124/162/51 355/163/51 378/164/51 132/162/51
f 321/165/6 332/166/6 120/162/6 323/167/6
f 514/168/2 335/169/2 328/169/2 512/168/2
f 119/170/52 316/171/52 424/172/52 195/170/52
f 343/175/9 322/176/9 324/177/9 340/178/9
f 539/118/8 538/117/8 546/116/8 548/179/8 313/179/8 516/180/8 449/181/8 453/182/8 441/183/8 429/184/8 342/185/8 318/186/8
f 212/198/41 433/199/41 339/200/41 121/129/41
f 422/201/9 428/202/9 361/203/9 364/204/9 340/205/9 324/177/9
f 356/215/53 357/216/53 374/217/53 377/218/53
f 188/224/9 130/223/9 260/223/9 285/224/9
f 175/231/55 125/223/55 134/223/55 178/223/55
f 367/158/56 365/157/56 383/232/56 369/233/56
f 364/234/57 361/203/57 380/235/57 382/236/57
f 137/221/58 370/237/58 419/238/58 186/239/58
f 427/244/59 203/166/59 129/162/59 362/245/59
f 150/246/60 124/162/60 132/162/60 156/247/60
f 128/128/61 363/248/61 381/249/61 138/128/61
f 127/221/62 368/250/62 370/237/62 137/221/62
f 323/167/63 120/162/63 197/162/63 421/251/63
f 435/252/9 343/253/9 340/254/9 434/255/9
f 537/119/8 539/118/8 318/118/8 330/221/8
f 410/257/65 407/258/65 377/218/65 374/259/65
f 182/260/64 179/221/64 136/170/64 155/189/64
f 180/128/66 409/261/66 373/262/66 135/128/66
f 408/263/67 177/191/67 132/162/67 378/264/67
f 406/265/68 411/266/68 375/267/68 372/268/68
f 382/269/69 380/270/69 414/271/69 415/272/69
f 412/273/70 178/223/70 134/223/70 376/274/70
f 185/275/71 128/128/71 138/128/71 187/128/71
f 360/276/72 353/243/72 372/268/72 375/267/72
f 209/221/73 425/277/73 368/250/73 127/221/73
f 151/189/74 127/221/74 137/221/74 157/280/74
f 358/281/75 126/128/75 135/128/75 373/282/75
f 366/283/76 130/223/76 133/223/76 384/284/76
f 125/223/77 359/285/77 376/286/77 134/223/77
f 362/287/78 129/162/78 131/162/78 379/288/78
f 129/162/74 152/246/74 158/289/74 131/162/74
f 152/246/74 151/189/74 157/280/74 158/289/74
f 177/191/64 181/290/64 156/247/64 132/162/64
f 181/290/64 182/260/64 155/189/64 156/247/64
f 123/170/60 149/294/60 155/189/60 136/170/60
f 149/294/60 150/246/60 156/247/60 155/189/60
f 517/296/41 519/297/41 445/298/41 223/299/41 237/300/41 233/301/41 326/302/41
f 452/309/41 509/310/41 511/311/41 327/194/41 234/193/41 238/304/41 224/303/41
f 545/138/8 544/314/8 222/152/8 448/155/8 521/315/8 314/138/8
f 547/179/81 546/318/81 555/318/81 558/319/81
f 354/329/88 123/170/88 136/170/88 371/330/88
f 191/335/64 192/336/64 182/260/64 181/290/64
f 189/337/64 191/335/64 181/290/64 177/191/64
f 126/128/71 176/129/71 180/128/71 135/128/71
f 413/338/91 189/337/91 177/191/91 408/339/91
f 187/128/92 416/340/92 409/261/92 180/128/92
f 415/341/93 414/271/93 407/342/93 410/343/93
f 421/344/94 197/162/94 203/166/94 427/345/94
f 186/239/95 419/238/95 405/346/95 179/221/95
f 192/336/64 186/239/64 179/221/64 182/260/64
f 417/347/96 190/223/96 178/223/96 412/273/96
f 188/224/55 175/231/55 178/223/55 190/223/55
f 185/275/4 176/129/4 286/129/4 257/275/4
f 130/223/55 188/224/55 190/223/55 133/223/55
f 384/349/97 133/223/97 190/223/97 417/350/97
f 157/280/64 137/221/64 186/239/64 192/336/64
f 179/221/98 405/351/98 371/352/98 136/170/98
f 369/233/99 383/232/99 418/355/99 420/356/99
f 138/128/100 381/249/100 416/357/100 187/128/100
f 379/358/101 131/162/101 189/337/101 413/359/101
f 131/162/64 158/289/64 191/335/64 189/337/64
f 158/289/64 157/280/64 192/336/64 191/335/64
f 176/129/71 185/275/71 187/128/71 180/128/71
f 128/128/4 185/275/4 257/275/4 258/128/4
f 319/363/4 341/185/4 338/364/4 315/365/4
f 334/136/2 523/366/2 518/367/2 325/140/2
f 211/368/8 540/369/8 542/192/8 320/192/8 344/175/8 436/370/8
f 176/129/4 126/128/4 255/128/4 286/129/4
f 195/170/103 424/376/103 425/377/103 209/221/103
f 175/231/9 188/224/9 285/224/9 252/231/9
f 229/378/41 458/379/41 437/380/41 217/381/41
f 198/223/105 204/223/105 130/223/105 366/382/105 337/383/105 122/223/105
f 217/381/41 437/380/41 433/384/41 212/198/41
f 337/383/41 432/385/41 213/386/41 122/223/41
f 216/387/8 211/368/8 436/252/8 440/388/8
f 460/389/9 439/390/9 438/388/9 457/391/9
f 228/153/8 216/387/8 440/388/8 459/393/8
f 442/183/4 454/182/4 455/394/4 443/395/4
f 439/388/9 435/252/9 434/368/9 438/387/9
f 432/385/41 444/398/41 218/399/41 213/386/41
f 430/184/4 442/400/4 443/395/4 431/401/4
f 341/185/4 430/184/4 431/404/4 338/405/4
f 420/407/107 418/355/107 411/266/107 406/408/107
f 456/412/41 452/413/41 224/303/41 230/392/41
f 444/416/41 456/417/41 230/392/41 218/399/41
f 223/299/41 445/298/41 458/379/41 229/378/41
f 548/179/8 547/319/8 336/319/8 513/418/8 313/179/8
f 522/419/9 447/155/9 446/152/9 520/419/9
f 447/420/9 460/389/9 457/421/9 446/422/9
f 450/426/4 515/427/4 510/428/4 451/181/4
f 125/223/9 175/231/9 252/231/9 253/223/9
f 510/448/49 515/448/49 514/168/49 512/168/49
f 518/367/48 523/367/48 522/450/48 520/419/48
f 513/418/8 516/179/8 313/179/8
f 521/315/8 524/138/8 314/138/8
f 454/182/4 450/451/4 451/426/4 455/394/4
f 317/452/123 318/186/123 319/363/123
f 320/192/124 321/165/124 322/176/124
f 322/176/125 343/175/125 344/175/125 320/192/125
f 430/184/126 341/185/126 342/185/126 429/184/126
f 432/385/127 337/383/127 338/405/127 431/404/127
f 316/171/128 317/452/128 319/363/128 315/365/128
f 321/165/129 323/167/129 324/177/129 322/176/129
f 332/166/130 321/165/130 320/192/130 331/191/130
f 341/185/131 319/363/131 318/186/131 342/185/131
f 317/452/132 329/170/132 330/221/132 318/118/132
f 422/201/134 324/177/134 323/167/134 421/251/134
f 376/286/135 359/285/135 360/276/135 375/267/135
f 354/329/136 371/330/136 372/268/136 353/243/136
f 380/235/137 361/203/137 362/287/137 379/288/137
f 426/159/138 367/158/138 368/250/138 425/277/138
f 406/265/139 372/268/139 371/352/139 405/351/139
f 414/271/140 380/270/140 379/358/140 413/359/140
f 416/357/141 381/249/141 382/269/141 415/272/141
f 418/355/142 383/232/142 384/349/142 417/350/142
f 367/158/143 369/233/143 370/237/143 368/250/143
f 383/232/144 365/157/144 366/283/144 384/284/144
f 356/215/145 377/218/145 378/164/145 355/163/145
f 358/281/146 373/282/146 374/217/146 357/216/146
f 364/234/147 382/236/147 381/249/147 363/248/147
f 420/407/154 406/408/154 405/346/154 419/238/154
f 377/218/155 407/258/155 408/263/155 378/264/155
f 373/262/156 409/261/156 410/257/156 374/259/156
f 375/267/157 411/266/157 412/273/157 376/274/157
f 407/342/158 414/271/158 413/338/158 408/339/158
f 409/261/159 416/340/159 415/341/159 410/343/159
f 411/266/160 418/355/160 417/347/160 412/273/160
f 369/233/161 420/356/161 419/238/161 370/237/161
f 428/202/162 422/201/162 421/344/162 427/345/162
f 315/161/163 423/160/163 424/172/163 316/171/163
f 423/160/164 426/159/164 425/377/164 424/376/164
f 361/203/165 428/202/165 427/244/165 362/245/165
f 363/127/166 339/126/166 340/205/166 364/204/166
f 365/157/167 338/156/167 337/383/167 366/382/167
f 442/400/168 430/184/168 429/184/168 441/183/168
f 444/398/169 432/385/169 431/401/169 443/395/169
f 339/200/170 433/199/170 434/255/170 340/254/170
f 343/253/171 435/252/171 436/370/171 344/175/171
f 433/384/172 437/380/172 438/387/172 434/368/172
f 435/252/173 439/388/173 440/388/173 436/252/173
f 454/182/174 442/183/174 441/183/174 453/182/174
f 456/417/175 444/416/175 443/395/175 455/394/175
f 458/379/176 445/298/176 446/422/176 457/421/176
f 460/389/177 447/420/177 448/155/177 459/154/177
f 450/451/178 454/182/178 453/182/178 449/181/178
f 452/413/179 456/412/179 455/394/179 451/426/179
f 437/380/180 458/379/180 457/391/180 438/388/180
f 439/390/181 460/389/181 459/393/181 440/388/181
f 514/168/202 515/179/202 516/179/202 513/418/202
f 522/450/203 523/367/203 524/138/203 521/315/203
f 511/311/204 509/310/204 510/448/204 512/168/204
f 519/297/205 517/296/205 518/367/205 520/419/205
f 449/426/206 516/180/206 515/427/206 450/426/206
f 509/310/207 452/309/207 451/181/207 510/428/207
f 513/418/208 336/319/208 335/169/208 514/168/208
f 327/194/209 511/311/209 512/168/209 328/169/209
f 521/315/210 448/155/210 447/155/210 522/419/210
f 445/298/211 519/297/211 520/419/211 446/152/211
f 333/140/212 524/139/212 523/366/212 334/136/212
f 517/296/213 326/302/213 325/140/213 518/367/213
f 329/170/6 317/452/6 316/171/6 119/170/6
f 549/402/4 554/455/4 555/318/4 556/118/4
f 535/456/4 525/403/4 568/117/4 557/179/4
f 554/455/8 549/402/8 588/402/8 587/455/8
f 525/403/41 535/456/41 589/456/41 600/403/41
f 534/457/41 532/460/41 593/460/41 591/457/41
f 552/459/8 221/458/8 590/458/8 592/459/8
f 665/488/2 631/489/2 634/490/2 663/491/2
f 623/492/8 667/493/8 661/494/8 626/495/8
f 669/508/6 627/509/6 630/510/6 675/511/6
f 672/514/9 674/515/9 629/487/9 735/516/9 734/517/9
f 660/518/41 662/519/41 747/519/41 748/518/41
f 733/520/4 736/521/4 628/522/4 668/523/4 670/524/4
f 662/519/224 633/525/224 752/525/224 747/519/224
f 661/494/229 667/493/229 665/488/229 663/491/229
f 673/562/231 671/563/231 669/564/231 675/565/231
f 727/595/247 728/596/247 661/494/247 663/491/247
f 729/597/248 730/598/248 665/488/248 667/493/248
f 730/599/249 731/578/249 631/489/249 665/488/249
f 732/575/250 727/600/250 663/491/250 634/490/250
f 626/495/251 661/494/251 728/601/251 733/602/251
f 734/603/252 729/604/252 667/493/252 623/492/252
f 674/605/253 672/606/253 673/562/253 675/565/253
f 670/607/254 668/608/254 669/564/254 671/563/254
f 668/523/255 628/522/255 627/609/255 669/610/255
f 629/487/256 674/515/256 675/511/256 630/510/256
f 672/611/257 734/603/257 623/492/257 673/562/257
f 733/602/258 670/612/258 671/563/258 626/495/258
f 673/562/8 623/492/8 626/495/8 671/563/8
f 662/519/4 660/518/4 728/627/4 727/600/4
f 666/628/9 664/629/9 730/599/9 729/630/9
f 664/629/9 632/631/9 731/578/9 730/599/9
f 633/525/4 662/519/4 727/600/4 732/575/4
f 660/518/4 625/632/4 733/520/4 728/627/4
f 624/633/9 666/628/9 729/630/9 734/517/9
f 622/634/9 624/633/9 734/517/9 735/516/9
f 632/631/9 622/634/9 735/516/9 731/578/9
f 621/635/4 633/525/4 732/575/4 736/521/4
f 625/632/4 621/635/4 736/521/4 733/520/4
f 622/634/8 632/631/8 751/631/8 755/634/8
f 625/632/41 660/518/41 748/518/41 753/632/41
f 664/629/41 666/628/41 749/628/41 750/629/41
f 633/525/8 621/635/8 756/635/8 752/525/8
f 666/628/41 624/633/41 754/633/41 749/628/41
f 632/631/224 664/629/224 750/629/224 751/631/224
f 621/635/2 625/632/2 753/632/2 756/635/2
f 624/633/2 622/634/2 755/634/2 754/633/2
f 813/488/2 811/491/2 782/490/2 779/489/2
f 771/492/8 774/495/8 809/494/8 815/493/8
f 817/508/6 823/511/6 778/510/6 775/509/6
f 820/514/4 882/517/4 883/516/4 777/487/4 822/515/4
f 808/518/41 896/518/41 895/519/41 810/519/41
f 881/520/9 818/524/9 816/523/9 776/522/9 884/521/9
f 810/519/224 895/519/224 900/525/224 781/525/224
f 809/494/229 811/491/229 813/488/229 815/493/229
f 821/562/231 823/565/231 817/564/231 819/563/231
f 875/595/248 811/491/248 809/494/248 876/596/248
f 877/597/247 815/493/247 813/488/247 878/598/247
f 878/599/250 813/488/250 779/489/250 879/578/250
f 880/575/249 782/490/249 811/491/249 875/600/249
f 774/495/252 881/602/252 876/601/252 809/494/252
f 882/603/251 771/492/251 815/493/251 877/604/251
f 822/605/254 823/565/254 821/562/254 820/606/254
f 818/607/253 819/563/253 817/564/253 816/608/253
f 816/523/256 817/610/256 775/609/256 776/522/256
f 777/487/255 778/510/255 823/511/255 822/515/255
f 820/611/258 821/562/258 771/492/258 882/603/258
f 881/602/257 774/495/257 819/563/257 818/612/257
f 821/562/8 819/563/8 774/495/8 771/492/8
f 810/519/9 875/600/9 876/627/9 808/518/9
f 814/628/4 877/630/4 878/599/4 812/629/4
f 812/629/4 878/599/4 879/578/4 780/631/4
f 781/525/9 880/575/9 875/600/9 810/519/9
f 808/518/9 876/627/9 881/520/9 773/632/9
f 772/633/4 882/517/4 877/630/4 814/628/4
f 770/634/4 883/516/4 882/517/4 772/633/4
f 780/631/4 879/578/4 883/516/4 770/634/4
f 769/635/9 884/521/9 880/575/9 781/525/9
f 773/632/9 881/520/9 884/521/9 769/635/9
f 770/634/8 903/634/8 899/631/8 780/631/8
f 773/632/41 901/632/41 896/518/41 808/518/41
f 812/629/41 898/629/41 897/628/41 814/628/41
f 781/525/8 900/525/8 904/635/8 769/635/8
f 814/628/41 897/628/41 902/633/41 772/633/41
f 780/631/224 899/631/224 898/629/224 812/629/224
f 769/635/2 904/635/2 901/632/2 773/632/2
f 772/633/2 902/633/2 903/634/2 770/634/2
usemtl M_Orange
f 401/220/9 170/220/9 271/220/9 491/220/9
f 403/305/4 398/306/4 490/307/4 483/308/4
f 171/246/80 172/312/80 397/294/80 400/313/80
f 397/189/4 172/312/4 273/312/4 489/294/4
f 169/331/89 170/220/89 401/220/89 404/292/89
f 171/246/9 400/348/9 482/348/9 272/246/9
f 399/371/9 402/372/9 492/373/9 481/374/9
f 402/375/41 399/371/41 398/306/41 403/305/41
f 169/331/4 404/292/4 484/292/4 270/331/4
f 172/312/118 171/246/118 272/246/118 273/312/118
f 170/220/118 169/331/118 270/331/118 271/220/118
f 398/306/152 399/371/152 400/313/152 397/294/152
f 402/375/153 403/305/153 404/292/153 401/220/153
f 490/307/4 398/306/4 397/189/4 489/294/4
f 399/371/9 481/374/9 482/348/9 400/348/9
f 492/373/9 402/372/9 401/220/9 491/220/9
f 403/305/4 483/308/4 484/292/4 404/292/4
f 720/622/279 719/594/279 722/589/279 721/624/279
f 717/621/280 725/554/280 726/555/280 718/625/280
f 717/621/273 718/625/273 719/594/273 720/622/273
f 724/552/281 723/553/281 721/624/281 722/589/281
f 868/622/279 869/624/279 870/589/279 867/594/279
f 865/621/280 866/625/280 874/555/280 873/554/280
f 865/621/297 868/622/297 867/594/297 866/625/297
f 872/552/281 870/589/281 869/624/281 871/553/281
l 139 140
l 118 117
