# Blender 4.2.3 LTS
# www.blender.org
mtllib SM_Wall_Light_Module.mtl
o SM_Wall_Light_Module
v -0.000001 -0.088660 0.049450
v -0.000001 0.088660 0.049450
v -0.000001 -0.088660 -0.049450
v -0.000001 0.088660 -0.049450
v 0.030286 -0.079176 0.039966
v 0.020802 -0.088660 0.049450
v 0.020802 0.088660 0.049450
v 0.030286 0.079176 0.039966
v 0.030286 -0.079176 -0.039966
v 0.020802 -0.088660 -0.049450
v 0.030286 0.079176 -0.039966
v 0.020802 0.088660 -0.049450
v -0.000001 -0.059088 0.049450
v -0.000001 0.059088 0.049450
v -0.000001 0.059088 -0.049450
v -0.000001 -0.059088 -0.049450
v 0.020561 -0.058468 -0.048944
v 0.020623 -0.059708 -0.048919
v 0.029818 -0.053395 -0.039658
v 0.029742 -0.052140 -0.039830
v 0.020623 0.059708 -0.048919
v 0.020561 0.058467 -0.048944
v 0.029742 0.052139 -0.039830
v 0.029818 0.053395 -0.039658
v -0.000001 -0.088660 -0.033812
v -0.000001 -0.088660 0.033812
v -0.000001 0.088660 0.033812
v -0.000001 0.088660 -0.033812
v 0.020802 -0.088660 0.033812
v 0.020802 -0.088660 -0.033812
v 0.030286 -0.076847 -0.024965
v 0.030286 -0.076847 0.024965
v 0.020802 0.088660 -0.033812
v 0.020802 0.088660 0.033812
v 0.029742 -0.052140 0.039830
v 0.029818 -0.053395 0.039658
v 0.020623 -0.059708 0.048919
v 0.020561 -0.058468 0.048944
v -0.000001 -0.059088 0.033812
v -0.000001 -0.059088 -0.033812
v -0.000001 0.059088 0.033812
v -0.000001 0.059088 -0.033812
v 0.006627 -0.088660 -0.049450
v 0.006627 -0.088660 0.049450
v 0.006627 0.088660 0.049450
v 0.006627 0.088660 -0.049450
v 0.029818 0.053395 0.039658
v 0.029742 0.052139 0.039830
v 0.020561 0.058467 0.048944
v 0.020623 0.059708 0.048919
v 0.006627 -0.088660 -0.033812
v 0.006627 -0.088660 0.033812
v 0.006627 0.088660 -0.033812
v 0.006627 0.088660 0.033812
v 0.030286 0.053395 -0.039966
v 0.030286 0.052139 -0.039966
v 0.030286 -0.052140 -0.039966
v 0.030286 -0.053395 -0.039966
v 0.020802 -0.059708 -0.049450
v 0.016359 -0.054026 -0.049450
v 0.016359 0.054026 -0.049450
v 0.020802 0.059708 -0.049450
v 0.020802 0.059708 0.049450
v 0.016359 0.054026 0.049450
v 0.016359 -0.054026 0.049450
v 0.020802 -0.059708 0.049450
v 0.030286 -0.053395 0.039966
v 0.030286 -0.052140 0.039966
v 0.030286 0.052139 0.039966
v 0.030286 0.053395 0.039966
v 0.030286 -0.038882 -0.027876
v 0.030286 -0.038963 -0.024448
v 0.030286 -0.038963 0.024448
v 0.030286 -0.038882 0.027876
v 0.030286 0.038882 -0.027876
v 0.030286 0.038882 0.027876
v 0.006078 -0.059705 -0.049450
v 0.011619 -0.054027 -0.049450
v 0.011619 0.054027 -0.049450
v 0.006078 0.059705 -0.049450
v 0.011619 -0.054027 0.049450
v 0.006078 -0.059705 0.049450
v 0.006078 0.059705 0.049450
v 0.011619 0.054027 0.049450
v 0.006078 -0.059705 -0.048890
v 0.007176 -0.058470 -0.048890
v 0.007176 0.058470 -0.048890
v 0.006078 0.059705 -0.048890
v 0.029725 -0.038947 0.026778
v 0.029725 -0.038882 0.027876
v 0.029725 0.038882 0.027876
v 0.029725 0.038947 0.026778
v 0.029725 -0.038882 -0.027876
v 0.029725 -0.038947 -0.026778
v 0.029725 0.038947 -0.026778
v 0.029725 0.038882 -0.027876
v 0.007176 -0.058470 0.048890
v 0.006078 -0.059705 0.048890
v 0.006078 0.059705 0.048890
v 0.007176 0.058470 0.048890
v 0.030286 0.079176 0.027327
v 0.030286 0.079176 -0.027327
v 0.030286 0.036618 -0.024448
v 0.030286 0.036618 0.024448
v 0.030286 0.076421 0.026657
v 0.030286 0.076421 -0.026657
v 0.030286 0.041695 -0.026127
v 0.030286 0.041695 0.026127
v 0.028211 0.069580 0.019362
v 0.028211 0.065237 0.023617
v 0.028211 0.065237 -0.023617
v 0.028211 0.069580 -0.019362
v 0.028211 0.048544 -0.018885
v 0.028211 0.052934 -0.023366
v 0.028211 0.052934 0.023366
v 0.028211 0.048544 0.018885
v 0.028211 0.046889 0.019561
v 0.028211 0.052225 0.025007
v 0.028211 0.065899 0.025286
v 0.028211 0.071235 0.020058
v 0.028211 0.071235 -0.020058
v 0.028211 0.065899 -0.025286
v 0.028211 0.052225 -0.025007
v 0.028211 0.046889 -0.019561
v 0.027490 0.048544 0.018885
v 0.027490 0.052934 0.023366
v 0.027490 0.065237 0.023617
v 0.027490 0.069580 0.019362
v 0.027490 0.069580 -0.019362
v 0.027490 0.065237 -0.023617
v 0.027490 0.052934 -0.023366
v 0.027490 0.048544 -0.018885
v -0.000001 -0.090145 0.033812
v -0.000001 0.059088 0.050934
v -0.000001 0.090145 -0.033812
v -0.000001 -0.059088 -0.050934
v -0.000001 -0.059088 0.050934
v -0.000001 0.059088 -0.050934
v -0.000001 -0.090145 -0.033812
v -0.000001 0.090145 0.033812
v 0.007176 -0.058470 -0.049450
v 0.020802 -0.058468 -0.049450
v 0.020802 0.058467 -0.049450
v 0.007176 0.058470 -0.049450
v 0.020802 -0.058468 0.049450
v 0.007176 -0.058470 0.049450
v 0.007176 0.058470 0.049450
v 0.020802 0.058467 0.049450
v 0.011619 -0.054027 -0.048508
v 0.016359 -0.054026 -0.048508
v 0.016359 0.054026 -0.048508
v 0.011619 0.054027 -0.048508
v 0.016359 -0.054026 0.048508
v 0.011619 -0.054027 0.048508
v 0.011619 0.054027 0.048508
v 0.016359 0.054026 0.048508
v 0.030286 -0.079176 -0.027327
v 0.030286 -0.079176 0.027327
v 0.030286 0.038947 -0.026778
v 0.030286 -0.038947 -0.026778
v 0.030286 -0.038947 0.026778
v 0.030286 0.038947 0.026778
v 0.028161 -0.038963 -0.024448
v 0.028161 -0.038963 0.024448
v 0.028161 -0.074962 -0.023055
v 0.028161 -0.074962 0.023055
v 0.028161 0.034734 -0.022564
v 0.028161 0.034734 0.022564
v 0.028161 -0.076847 -0.024965
v 0.028161 -0.076847 0.024965
v 0.028161 0.036618 -0.024448
v 0.028161 -0.038976 -0.022564
v 0.028161 -0.038976 0.022564
v 0.028161 0.036618 0.024448
v -0.000001 -0.088660 -0.021366
v -0.000001 -0.088660 0.021366
v -0.000001 0.088660 0.021366
v -0.000001 0.088660 -0.021366
v 0.020802 -0.088660 0.021366
v 0.020802 -0.088660 -0.021366
v 0.030286 -0.079176 -0.017268
v 0.030286 -0.079176 0.017268
v 0.020802 0.088660 -0.021366
v 0.020802 0.088660 0.021366
v 0.030286 0.079176 0.017268
v 0.030286 0.079176 -0.017268
v -0.000001 -0.059088 0.021366
v -0.000001 -0.059088 -0.021366
v -0.000001 0.059088 0.021366
v -0.000001 0.059088 -0.021366
v 0.006627 0.088660 -0.021366
v 0.006627 0.088660 0.021366
v 0.006627 -0.088660 -0.021366
v 0.006627 -0.088660 0.021366
v 0.030286 0.038947 -0.016921
v 0.030286 0.038947 0.016921
v -0.000001 -0.090145 -0.021366
v -0.000001 -0.090145 0.021366
v -0.000001 0.090145 0.021366
v -0.000001 0.090145 -0.021366
v 0.030286 -0.076847 -0.015776
v 0.030286 -0.076847 0.015776
v 0.030286 0.036618 -0.015449
v 0.030286 0.036618 0.015449
v 0.028161 -0.076847 -0.015776
v 0.028161 -0.076847 0.015776
v 0.028161 0.036618 -0.015449
v 0.028161 0.036618 0.015449
v 0.028161 -0.074962 -0.014569
v 0.028161 -0.074962 0.014569
v 0.028161 0.034734 -0.014259
v 0.028161 0.034734 0.014259
v -0.000001 -0.088660 -0.013342
v -0.000001 -0.088660 0.013342
v -0.000001 0.088660 0.013342
v -0.000001 0.088660 -0.013342
v 0.020802 -0.088660 0.013342
v 0.020802 -0.088660 -0.013342
v 0.030286 -0.079176 -0.010783
v 0.030286 -0.079176 0.010783
v 0.020802 0.088660 -0.013342
v 0.020802 0.088660 0.013342
v 0.030286 0.079176 0.010783
v 0.030286 0.079176 -0.010783
v -0.000001 -0.059088 0.013342
v -0.000001 -0.059088 -0.013342
v -0.000001 0.059088 0.013342
v -0.000001 0.059088 -0.013342
v 0.006627 0.088660 -0.013342
v 0.006627 0.088660 0.013342
v 0.006627 -0.088660 -0.013342
v 0.006627 -0.088660 0.013342
v 0.030286 0.038947 -0.010566
v 0.030286 0.038947 0.010566
v -0.000001 -0.090145 -0.013342
v -0.000001 -0.090145 0.013342
v -0.000001 0.090145 0.013342
v -0.000001 0.090145 -0.013342
v 0.030286 -0.076847 -0.009851
v 0.030286 -0.076847 0.009851
v 0.030286 0.036618 -0.009647
v 0.030286 0.036618 0.009647
v 0.028161 0.036618 -0.009647
v 0.028161 0.036618 0.009647
v 0.028161 0.034734 -0.008903
v 0.028161 0.034734 0.008903
v 0.029757 -0.038976 0.014259
v 0.029757 -0.038976 -0.014259
v 0.029757 -0.039967 0.007931
v 0.029757 -0.039967 -0.007931
v 0.028945 -0.038976 0.022564
v 0.029757 -0.038976 0.021752
v 0.028945 -0.074962 0.014569
v 0.029757 -0.074072 0.014561
v 0.029757 -0.074075 0.022231
v 0.028945 -0.074962 0.023055
v 0.028945 0.034734 -0.022564
v 0.029757 0.033922 -0.021752
v 0.029757 -0.038976 -0.021752
v 0.028945 -0.038976 -0.022564
v 0.029757 0.033922 0.021752
v 0.028945 0.034734 0.022564
v 0.029757 -0.074075 -0.022231
v 0.028945 -0.074962 -0.023055
v 0.029757 0.033922 0.014259
v 0.028945 0.034734 0.014259
v 0.029757 -0.074072 -0.014561
v 0.028945 -0.074962 -0.014569
v 0.028945 -0.070169 0.009474
v 0.029757 -0.068278 0.008449
v 0.028945 0.034734 -0.014259
v 0.029757 0.033922 -0.014259
v 0.029757 0.033922 0.008903
v 0.028945 0.034734 0.008903
v 0.029757 -0.068278 -0.008449
v 0.028945 -0.070169 -0.009474
v 0.028945 0.034734 -0.008903
v 0.029757 0.033922 -0.008903
v 0.028161 -0.076847 0.009474
v 0.028161 -0.070169 0.009474
v 0.028161 -0.075348 -0.009044
v 0.028161 -0.076417 -0.007976
v 0.028161 -0.076811 -0.009439
v 0.028161 -0.076417 0.007976
v 0.028161 -0.075348 0.009044
v 0.028161 -0.070599 -0.007976
v 0.028161 -0.071667 -0.009044
v 0.028161 -0.070204 -0.009439
v 0.028161 -0.071667 0.009044
v 0.028161 -0.070599 0.007976
v 0.027743 -0.076129 -0.007856
v 0.027743 -0.075229 -0.008756
v 0.027743 -0.075229 0.008756
v 0.027743 -0.076129 0.007856
v 0.027743 -0.071787 -0.008756
v 0.027743 -0.070887 -0.007856
v 0.027743 -0.070887 0.007856
v 0.027743 -0.071787 0.008756
v 0.027743 -0.076417 0.007976
v 0.027743 -0.075348 0.009044
v 0.027743 -0.071667 0.009044
v 0.027743 -0.070599 0.007976
v 0.027743 -0.070599 -0.007976
v 0.027743 -0.071667 -0.009044
v 0.027743 -0.075348 -0.009044
v 0.027743 -0.076417 -0.007976
v 0.027441 -0.076129 0.007856
v 0.027441 -0.075229 0.008756
v 0.027441 -0.071787 0.008756
v 0.027441 -0.070887 0.007856
v 0.027441 -0.070887 -0.007856
v 0.027441 -0.071787 -0.008756
v 0.027441 -0.075229 -0.008756
v 0.027441 -0.076129 -0.007856
v 0.029757 -0.038976 -0.008903
v 0.029757 -0.038976 0.008903
v 0.029757 -0.069268 -0.009458
v 0.029757 -0.069268 0.009458
v 0.029165 -0.050253 -0.008119
v 0.029165 -0.050914 -0.008131
v 0.029165 -0.047375 0.008066
v 0.029165 -0.046714 0.008054
v 0.029165 -0.046714 -0.008054
v 0.029165 -0.047375 -0.008066
v 0.029165 -0.061530 0.008325
v 0.029165 -0.060869 0.008313
v 0.029165 -0.060869 -0.008313
v 0.029165 -0.061530 -0.008325
v 0.029165 -0.054453 0.008196
v 0.029165 -0.053791 0.008184
v 0.029165 -0.053791 -0.008184
v 0.029165 -0.054453 -0.008196
v 0.029165 -0.050253 0.008119
v 0.029165 -0.050914 0.008131
v 0.029165 -0.065069 -0.008390
v 0.029165 -0.064408 -0.008378
v 0.029165 -0.064408 0.008378
v 0.029165 -0.065069 0.008390
v 0.029165 -0.057992 -0.008261
v 0.029165 -0.057330 -0.008249
v 0.029165 -0.057330 0.008249
v 0.029165 -0.057992 0.008261
v 0.029165 -0.043836 -0.008002
v 0.029165 -0.043175 -0.007990
v 0.029165 -0.043175 0.007990
v 0.029165 -0.043836 0.008002
v 0.029757 -0.054691 0.008438
v 0.029519 -0.054453 0.008196
v 0.029757 -0.053554 0.008417
v 0.029519 -0.053791 0.008184
v 0.029757 -0.053554 -0.008417
v 0.029519 -0.053791 -0.008184
v 0.029519 -0.054453 -0.008196
v 0.029757 -0.054691 -0.008438
v 0.029757 -0.047613 0.008309
v 0.029519 -0.047375 0.008066
v 0.029757 -0.046476 0.008288
v 0.029519 -0.046714 0.008054
v 0.029757 -0.060631 -0.008547
v 0.029519 -0.060869 -0.008313
v 0.029519 -0.061530 -0.008325
v 0.029757 -0.061768 -0.008568
v 0.029757 -0.061768 0.008568
v 0.029519 -0.061530 0.008325
v 0.029757 -0.060631 0.008547
v 0.029519 -0.060869 0.008313
v 0.029757 -0.046476 -0.008288
v 0.029519 -0.046714 -0.008054
v 0.029519 -0.047375 -0.008066
v 0.029757 -0.047613 -0.008309
v 0.029757 -0.044074 0.008244
v 0.029519 -0.043836 0.008002
v 0.029757 -0.042937 0.008223
v 0.029519 -0.043175 0.007990
v 0.029757 -0.064170 -0.008612
v 0.029519 -0.064408 -0.008378
v 0.029519 -0.065069 -0.008390
v 0.029757 -0.065307 -0.008633
v 0.029757 -0.058229 0.008503
v 0.029519 -0.057992 0.008261
v 0.029757 -0.057092 0.008482
v 0.029519 -0.057330 0.008249
v 0.029757 -0.050015 -0.008353
v 0.029519 -0.050253 -0.008119
v 0.029519 -0.050914 -0.008131
v 0.029757 -0.051152 -0.008374
v 0.029757 -0.051152 0.008374
v 0.029519 -0.050914 0.008131
v 0.029757 -0.050015 0.008353
v 0.029519 -0.050253 0.008119
v 0.029757 -0.057092 -0.008482
v 0.029519 -0.057330 -0.008249
v 0.029519 -0.057992 -0.008261
v 0.029757 -0.058229 -0.008503
v 0.029757 -0.065307 0.008633
v 0.029519 -0.065069 0.008390
v 0.029757 -0.064170 0.008612
v 0.029519 -0.064408 0.008378
v 0.029757 -0.042937 -0.008223
v 0.029519 -0.043175 -0.007990
v 0.029519 -0.043836 -0.008002
v 0.029757 -0.044074 -0.008244
v -0.000001 -0.090145 0.050050
v -0.000001 -0.089260 0.050934
v -0.000001 -0.089519 0.050309
v -0.000001 0.089260 0.050934
v -0.000001 0.090145 0.050050
v -0.000001 0.089519 0.050309
v -0.000001 0.090145 -0.050050
v -0.000001 0.089260 -0.050934
v -0.000001 0.089519 -0.050309
v -0.000001 -0.089260 -0.050934
v -0.000001 -0.090145 -0.050050
v -0.000001 -0.089519 -0.050309
v 0.005727 -0.089268 0.050927
v 0.005743 -0.090152 0.050042
v 0.006627 -0.089265 0.050048
v 0.005727 0.089268 0.050927
v 0.006627 0.089265 0.050048
v 0.005743 0.090152 0.050042
v 0.005727 0.089268 -0.050927
v 0.005743 0.090152 -0.050042
v 0.006627 0.089265 -0.050048
v 0.006627 -0.089257 -0.033812
v 0.005743 -0.090145 -0.033812
v 0.006627 -0.089257 0.033812
v 0.005743 -0.090145 0.033812
v 0.005727 -0.089268 -0.050927
v 0.006627 -0.089265 -0.050048
v 0.005743 -0.090152 -0.050042
v 0.005743 0.090145 -0.033812
v 0.006627 0.089257 -0.033812
v 0.005743 0.090145 0.033812
v 0.006627 0.089257 0.033812
v 0.006078 0.059705 0.050056
v 0.005192 0.059615 0.050934
v 0.005192 -0.059615 0.050934
v 0.006078 -0.059705 0.050056
v 0.006078 -0.059705 -0.050056
v 0.005192 -0.059615 -0.050934
v 0.005192 0.059615 -0.050934
v 0.006078 0.059705 -0.050056
v 0.005743 0.090145 -0.021366
v 0.006627 0.089258 -0.021366
v 0.006627 0.089258 0.021366
v 0.005743 0.090145 0.021366
v 0.006627 -0.089258 -0.021366
v 0.005743 -0.090145 -0.021366
v 0.005743 -0.090145 0.021366
v 0.006627 -0.089258 0.021366
v 0.005743 0.090145 -0.013342
v 0.006627 0.089258 -0.013342
v 0.006627 0.089258 0.013342
v 0.005743 0.090145 0.013342
v 0.006627 -0.089258 -0.013342
v 0.005743 -0.090145 -0.013342
v 0.005743 -0.090145 0.013342
v 0.006627 -0.089258 0.013342
v 0.030286 0.067359 0.025476
v 0.029299 0.065899 0.025286
v 0.029299 0.071235 0.020058
v 0.030286 0.071954 0.020974
v 0.030286 0.071954 -0.020974
v 0.029299 0.071235 -0.020058
v 0.029299 0.065899 -0.025286
v 0.030286 0.067359 -0.025476
v 0.030286 0.050821 -0.025156
v 0.029299 0.052225 -0.025007
v 0.029299 0.046889 -0.019561
v 0.030286 0.046195 -0.020438
v 0.030286 0.046195 0.020438
v 0.029299 0.046889 0.019561
v 0.029299 0.052225 0.025007
v 0.030286 0.050821 0.025156
vn -1.0000 -0.0000 -0.0000
vn 0.7126 0.0163 0.7014
vn -0.0000 -0.0000 -1.0000
vn -0.0000 -0.0000 1.0000
vn 0.7071 -0.7071 -0.0000
vn 0.7071 0.7071 -0.0000
vn 1.0000 -0.0000 -0.0000
vn -0.0000 -1.0000 -0.0000
vn 0.7071 -0.0000 0.7071
vn 0.7071 -0.0000 -0.7071
vn 0.9998 -0.0188 -0.0094
vn -0.0000 -0.0137 -0.9999
vn 0.9998 0.0188 0.0094
vn -0.0006 -1.0000 -0.0002
vn -0.0000 1.0000 -0.0000
vn -0.0006 -1.0000 0.0002
vn -0.2171 -0.6535 0.7251
vn 0.0002 -1.0000 -0.0000
vn -0.3433 -0.9011 -0.2649
vn -0.2171 0.6535 0.7251
vn 0.0907 -0.6689 -0.7378
vn 0.2754 0.9005 0.3365
vn 0.0002 1.0000 -0.0000
vn 0.2754 -0.9005 -0.3365
vn 0.0907 0.6689 0.7378
vn 0.7126 -0.0163 0.7014
vn 0.7126 0.0163 -0.7014
vn 0.7126 -0.0163 -0.7014
vn -0.0030 -0.0088 -1.0000
vn -0.0030 0.0088 -1.0000
vn 0.9992 0.0296 0.0286
vn 0.9992 -0.0296 0.0286
vn 0.9992 0.0296 -0.0286
vn 0.9992 -0.0296 -0.0286
vn -0.0030 -0.0088 1.0000
vn -0.0030 0.0088 1.0000
vn -0.3433 0.9011 -0.2649
vn 0.0907 0.6689 -0.7378
vn 0.2754 0.9005 -0.3365
vn 0.0907 -0.6689 0.7378
vn 0.2754 -0.9005 0.3365
vn -0.3433 -0.9011 0.2649
vn -0.2171 0.6535 -0.7251
vn -0.2171 -0.6535 -0.7251
vn -0.3433 0.9011 0.2649
vn -0.0000 0.0204 0.9998
vn -0.0000 -0.6998 -0.7143
vn -0.0000 -0.6998 0.7143
vn -0.0000 0.7143 0.6999
vn -0.0000 0.7143 -0.6999
vn -0.0000 0.0204 -0.9998
vn -0.0000 -0.6999 0.7143
vn -0.0000 -0.6999 -0.7143
vn -0.0006 1.0000 -0.0002
vn 0.0007 0.0001 1.0000
vn 0.0007 0.0001 -1.0000
vn 0.0007 -0.0001 1.0000
vn 0.9998 0.0188 -0.0094
vn -0.0006 1.0000 0.0002
vn 0.9998 -0.0188 0.0094
vn 0.0007 -0.0001 -1.0000
vn -0.0002 -1.0000 -0.0000
vn -0.0002 1.0000 -0.0000
vn -0.0000 -0.0137 0.9999
vn 0.0080 1.0000 -0.0029
vn 0.0083 1.0000 0.0009
vn -0.0000 0.0137 0.9999
vn -0.0000 -0.7283 -0.6853
vn 0.0318 -0.7304 0.6823
vn 0.0225 -0.9997 0.0009
vn -0.0000 0.0137 -0.9999
vn 0.7382 -0.6746 -0.0001
vn 0.7071 0.0097 -0.7071
vn 0.7071 0.0097 0.7071
vn 0.7382 -0.6746 0.0001
vn 0.6213 -0.5706 -0.5370
vn 0.6213 -0.5706 0.5370
vn 0.7428 -0.6695 -0.0000
vn -0.0000 0.7071 -0.7071
vn -0.0000 -0.7071 -0.7071
vn -0.0000 -0.7071 0.7071
vn -0.0000 0.7071 0.7071
vn -0.0000 -0.0183 -0.9998
vn -0.0000 -0.0183 0.9998
vn 0.7071 -0.0129 0.7070
vn 0.7071 -0.0129 -0.7070
vn 0.5726 -0.5749 0.5845
vn 0.5726 0.5749 0.5845
vn 0.5726 0.5749 -0.5845
vn 0.5726 -0.5749 -0.5845
vn -0.0000 -0.7072 0.7070
vn -0.0000 0.7072 0.7070
vn -0.0000 0.7072 -0.7070
vn -0.0000 -0.7072 -0.7070
vn 0.7081 0.7061 -0.0000
vn 0.7081 0.7061 0.0003
vn 0.7081 -0.7061 -0.0000
vn 0.7081 -0.7061 0.0003
vn 0.7081 -0.7061 -0.0003
vn 0.7081 0.7061 -0.0003
vn 0.7042 -0.0000 0.7100
vn 0.7042 -0.0000 -0.7100
vn 0.7017 0.0127 -0.7123
vn 0.7017 -0.0127 -0.7123
vn 0.7017 -0.0127 0.7123
vn 0.7017 0.0127 0.7123
vn 0.7080 0.7062 -0.0000
vn 0.7080 -0.7062 -0.0000
vn 0.7610 -0.4540 -0.4634
vn 0.7610 -0.4540 0.4634
vn 0.7468 0.4750 0.4655
vn 0.7468 0.4750 -0.4655
vn 0.5892 -0.8080 -0.0000
vn 0.1689 0.0196 -0.9854
vn 0.1689 0.0196 0.9854
vn 0.5751 0.8181 -0.0000
vt 0.541667 0.166667
vt 0.625000 0.166667
vt 0.625000 0.250000
vt 0.541667 0.250000
vt 0.541229 0.812670
vt 0.536767 0.726026
vt 0.538978 0.726026
vt 0.543415 0.812670
vt 0.625000 0.245695
vt 0.535013 0.655128
vt 0.462700 0.655128
vt 0.543415 0.812670
vt 0.625000 0.812670
vt 0.625000 0.906335
vt 0.543407 0.909964
vt 0.375000 0.343665
vt 0.456593 0.340036
vt 0.456585 0.437330
vt 0.375000 0.437330
vt 0.312330 0.583333
vt 0.312330 0.500000
vt 0.388371 0.523974
vt 0.388371 0.591325
vt 0.687670 0.666667
vt 0.687670 0.750000
vt 0.611629 0.726026
vt 0.611629 0.658675
vt 0.388371 0.658675
vt 0.461838 0.655749
vt 0.461022 0.726026
vt 0.388371 0.726026
vt 0.218665 0.666667
vt 0.312330 0.666667
vt 0.312330 0.750000
vt 0.218665 0.750000
vt 0.461902 0.376651
vt 0.538098 0.376651
vt 0.463233 0.523974
vt 0.536767 0.523974
vt 0.536714 0.588398
vt 0.463286 0.588398
vt 0.611629 0.523974
vt 0.538978 0.523974
vt 0.543415 0.437330
vt 0.625000 0.437330
vt 0.461903 0.842027
vt 0.538097 0.842027
vt 0.543407 0.340036
vt 0.625000 0.343665
vt 0.543415 0.437330
vt 0.463286 0.661602
vt 0.536714 0.661602
vt 0.536767 0.726026
vt 0.463233 0.726026
vt 0.538162 0.655749
vt 0.458333 0.250000
vt 0.543407 0.340036
vt 0.375000 0.166667
vt 0.458333 0.166667
vt 0.375000 0.250000
vt 0.458333 0.000000
vt 0.541667 0.000000
vt 0.541667 0.083333
vt 0.458333 0.083333
vt 0.458333 0.138889
vt 0.541667 0.138889
vt 0.375000 0.000000
vt 0.375000 0.083333
vt 0.375000 0.138889
vt 0.461022 0.523974
vt 0.461838 0.594251
vt 0.610406 0.657849
vt 0.608425 0.650846
vt 0.608425 0.599154
vt 0.610406 0.592151
vt 0.611629 0.591325
vt 0.611629 0.613775
vt 0.611628 0.621258
vt 0.611629 0.628742
vt 0.611629 0.636225
vt 0.456585 0.437330
vt 0.392677 0.655765
vt 0.218665 0.500000
vt 0.218665 0.583333
vt 0.218665 0.638889
vt 0.312330 0.638889
vt 0.687670 0.500000
vt 0.687670 0.583333
vt 0.687670 0.638889
vt 0.312330 0.611111
vt 0.388371 0.613775
vt 0.536767 0.523974
vt 0.458771 0.437330
vt 0.541229 0.437330
vt 0.375000 0.906335
vt 0.456593 0.909964
vt 0.456593 0.909964
vt 0.125000 0.666667
vt 0.206164 0.666667
vt 0.206164 0.745693
vt 0.125000 0.745695
vt 0.625000 0.000000
vt 0.625000 0.083333
vt 0.625000 0.138889
vt 0.781335 0.638889
vt 0.781335 0.666667
vt 0.781335 0.500000
vt 0.781335 0.583333
vt 0.377374 0.250000
vt 0.793836 0.583333
vt 0.875000 0.583333
vt 0.875000 0.611111
vt 0.793836 0.611111
vt 0.375000 0.812670
vt 0.456585 0.812670
vt 0.456585 0.812670
vt 0.461022 0.726026
vt 0.125000 0.504305
vt 0.206164 0.504307
vt 0.206164 0.583333
vt 0.125000 0.583333
vt 0.542039 0.326916
vt 0.457961 0.326916
vt 0.375000 0.004305
vt 0.781335 0.750000
vt 0.458771 0.812670
vt 0.458769 0.902706
vt 0.462759 0.657999
vt 0.537241 0.657999
vt 0.541229 0.437330
vt 0.541231 0.347294
vt 0.537241 0.592001
vt 0.462759 0.592001
vt 0.457898 0.340036
vt 0.542102 0.340036
vt 0.458769 0.347294
vt 0.538162 0.594251
vt 0.541231 0.902706
vt 0.541229 0.812670
vt 0.542102 0.909964
vt 0.457898 0.909964
vt 0.538489 0.657197
vt 0.553272 0.656000
vt 0.595720 0.656395
vt 0.537270 0.657998
vt 0.540485 0.650186
vt 0.540486 0.656000
vt 0.553272 0.594000
vt 0.540224 0.594118
vt 0.538489 0.592803
vt 0.603530 0.601139
vt 0.603530 0.648861
vt 0.608106 0.600282
vt 0.608106 0.649718
vt 0.540793 0.649105
vt 0.540793 0.600895
vt 0.555546 0.594184
vt 0.593352 0.593840
vt 0.593352 0.656160
vt 0.555546 0.655816
vt 0.610406 0.592151
vt 0.595720 0.593605
vt 0.553272 0.594000
vt 0.538489 0.592803
vt 0.537270 0.592001
vt 0.540485 0.599814
vt 0.537256 0.635999
vt 0.537256 0.628666
vt 0.537256 0.621333
vt 0.537256 0.614000
vt 0.608425 0.593605
vt 0.545369 0.648272
vt 0.557508 0.653794
vt 0.555546 0.655816
vt 0.591523 0.654104
vt 0.593352 0.656160
vt 0.591523 0.595896
vt 0.593352 0.593840
vt 0.608106 0.600282
vt 0.557508 0.596206
vt 0.545369 0.601728
vt 0.625000 0.004305
vt 0.793836 0.666667
vt 0.875000 0.666667
vt 0.875000 0.745695
vt 0.793836 0.745693
vt 0.543153 0.923084
vt 0.622629 0.918972
vt 0.622626 1.000000
vt 0.541667 1.000000
vt 0.375000 0.245695
vt 0.622626 0.250000
vt 0.622629 0.331028
vt 0.543153 0.326916
vt 0.542102 0.909964
vt 0.218665 0.638889
vt 0.622626 0.250000
vt 0.875000 0.620370
vt 0.793836 0.620370
vt 0.377371 0.918972
vt 0.456847 0.923084
vt 0.458333 1.000000
vt 0.377374 1.000000
vt 0.781335 0.611111
vt 0.781335 0.611111
vt 0.622626 0.000000
vt 0.793836 0.504307
vt 0.875000 0.504305
vt 0.793836 0.583333
vt 0.206164 0.583333
vt 0.206164 0.611111
vt 0.125000 0.611111
vt 0.625000 0.111111
vt 0.218665 0.611111
vt 0.218665 0.611111
vt 0.456847 0.326916
vt 0.377371 0.331028
vt 0.457961 0.923084
vt 0.542039 0.923084
vt 0.461903 0.407973
vt 0.538097 0.407973
vt 0.461902 0.873349
vt 0.538098 0.873349
vt 0.392677 0.635255
vt 0.388371 0.636225
vt 0.535013 0.594872
vt 0.462700 0.594872
vt 0.392677 0.594235
vt 0.462730 0.592001
vt 0.462730 0.657999
vt 0.535013 0.614957
vt 0.462677 0.621910
vt 0.532434 0.621910
vt 0.532434 0.628089
vt 0.462677 0.628090
vt 0.533211 0.628089
vt 0.533211 0.634269
vt 0.392677 0.614745
vt 0.392677 0.614745
vt 0.535013 0.635043
vt 0.535013 0.635043
vt 0.396160 0.634470
vt 0.396160 0.653411
vt 0.392677 0.635255
vt 0.533211 0.597194
vt 0.462677 0.597194
vt 0.462677 0.652806
vt 0.533211 0.652806
vt 0.396160 0.596589
vt 0.533211 0.615731
vt 0.533211 0.621910
vt 0.535013 0.621652
vt 0.396160 0.615530
vt 0.396160 0.628157
vt 0.392677 0.628418
vt 0.535013 0.628347
vt 0.535013 0.628348
vt 0.392677 0.621582
vt 0.392677 0.621582
vt 0.398081 0.628155
vt 0.462677 0.634269
vt 0.397805 0.634465
vt 0.462677 0.615731
vt 0.532434 0.615731
vt 0.396160 0.596589
vt 0.535013 0.621652
vt 0.388371 0.628742
vt 0.625000 0.120370
vt 0.125000 0.638889
vt 0.206164 0.638889
vt 0.206164 0.666667
vt 0.793836 0.620370
vt 0.875000 0.629630
vt 0.793836 0.629630
vt 0.218665 0.629630
vt 0.218665 0.629630
vt 0.218665 0.620370
vt 0.218665 0.620370
vt 0.793836 0.638889
vt 0.875000 0.638889
vt 0.793836 0.666667
vt 0.781335 0.629630
vt 0.781335 0.629630
vt 0.687670 0.611111
vt 0.687670 0.629630
vt 0.541667 0.111111
vt 0.541667 0.129630
vt 0.625000 0.129630
vt 0.375000 0.111111
vt 0.375000 0.111111
vt 0.375000 0.129630
vt 0.375000 0.129630
vt 0.312330 0.620370
vt 0.388371 0.621258
vt 0.312330 0.629630
vt 0.458333 0.111111
vt 0.458333 0.129630
vt 0.541667 0.120370
vt 0.458333 0.120370
vt 0.375000 0.120370
vt 0.687670 0.620370
vt 0.375000 0.120370
vt 0.781335 0.620370
vt 0.781335 0.620370
vt 0.781335 0.620370
vt 0.125000 0.629630
vt 0.206164 0.629630
vt 0.206164 0.620370
vt 0.125000 0.620370
vt 0.206164 0.620370
vt 0.206164 0.629630
vt 0.397805 0.615535
vt 0.398081 0.621845
vt 0.532434 0.634269
vt 0.532434 0.650993
vt 0.462677 0.650993
vt 0.397800 0.598416
vt 0.462677 0.599007
vt 0.396160 0.621843
vt 0.395936 0.622330
vt 0.395936 0.627670
vt 0.395936 0.627669
vt 0.395936 0.622330
vt 0.533211 0.652806
vt 0.532434 0.599007
vt 0.397805 0.634465
vt 0.462677 0.650993
vt 0.397800 0.651584
vt 0.462677 0.597194
vt 0.462677 0.652806
vt 0.398081 0.621845
vt 0.398081 0.628155
vt 0.393459 0.621791
vt 0.395379 0.621932
vt 0.395316 0.627974
vt 0.393521 0.628103
vt 0.392696 0.628404
vt 0.393459 0.628209
vt 0.395379 0.628068
vt 0.395379 0.628068
vt 0.393459 0.628209
vt 0.396142 0.628146
vt 0.396142 0.621854
vt 0.392696 0.621596
vt 0.392902 0.622135
vt 0.392902 0.627866
vt 0.392902 0.621751
vt 0.392902 0.628249
vt 0.395936 0.621973
vt 0.395936 0.628027
vt 0.393052 0.627814
vt 0.395786 0.627638
vt 0.395786 0.622362
vt 0.395316 0.622026
vt 0.393521 0.621897
vt 0.393052 0.622186
vt 0.460564 0.627750
vt 0.460564 0.622250
vt 0.400193 0.622180
vt 0.400193 0.627820
vt 0.446177 0.627767
vt 0.444767 0.627768
vt 0.444767 0.627768
vt 0.446177 0.622233
vt 0.446177 0.627767
vt 0.414581 0.627804
vt 0.414581 0.622196
vt 0.407035 0.622188
vt 0.408445 0.622189
vt 0.415991 0.627802
vt 0.414581 0.627804
vt 0.414581 0.622196
vt 0.415991 0.622198
vt 0.431084 0.622216
vt 0.431084 0.627784
vt 0.429674 0.627786
vt 0.429674 0.622214
vt 0.431084 0.622216
vt 0.431084 0.622216
vt 0.423537 0.627793
vt 0.422127 0.627795
vt 0.436713 0.622141
vt 0.436713 0.627859
vt 0.431591 0.627865
vt 0.431591 0.622135
vt 0.422127 0.622205
vt 0.423537 0.622207
vt 0.423537 0.622207
vt 0.453723 0.622242
vt 0.453723 0.627758
vt 0.454230 0.622161
vt 0.451806 0.622158
vt 0.446684 0.622152
vt 0.444259 0.622150
vt 0.439137 0.622144
vt 0.436713 0.622141
vt 0.431591 0.622135
vt 0.429166 0.622133
vt 0.424045 0.622127
vt 0.421620 0.622124
vt 0.416498 0.622118
vt 0.414074 0.622115
vt 0.408952 0.622110
vt 0.406527 0.622107
vt 0.437220 0.627777
vt 0.437220 0.622223
vt 0.437220 0.627777
vt 0.452313 0.627760
vt 0.452313 0.622240
vt 0.452313 0.622240
vt 0.438630 0.622225
vt 0.438630 0.627776
vt 0.415991 0.627802
vt 0.444767 0.627768
vt 0.444767 0.622232
vt 0.408445 0.622189
vt 0.408445 0.627811
vt 0.407035 0.627812
vt 0.423537 0.627793
vt 0.422127 0.622205
vt 0.437220 0.627777
vt 0.406527 0.627893
vt 0.408952 0.627890
vt 0.414074 0.627885
vt 0.416498 0.627882
vt 0.421620 0.627876
vt 0.424045 0.627873
vt 0.429166 0.627867
vt 0.431591 0.627865
vt 0.436713 0.627859
vt 0.439138 0.627856
vt 0.444259 0.627850
vt 0.446684 0.627848
vt 0.451806 0.627842
vt 0.454230 0.627839
vt 0.429166 0.622133
vt 0.429166 0.627867
vt 0.424045 0.627873
vt 0.424045 0.622127
vt 0.452313 0.622240
vt 0.453723 0.622242
vt 0.421620 0.622124
vt 0.421620 0.627876
vt 0.416498 0.627882
vt 0.416498 0.622118
vt 0.406527 0.622107
vt 0.406527 0.627893
vt 0.444767 0.622232
vt 0.407035 0.627813
vt 0.414074 0.622116
vt 0.414074 0.627884
vt 0.408952 0.627890
vt 0.408952 0.622110
vt 0.437220 0.622223
vt 0.437220 0.622223
vt 0.453723 0.627758
vt 0.452313 0.627760
vt 0.451806 0.622158
vt 0.451806 0.627842
vt 0.446684 0.627848
vt 0.446684 0.622152
vt 0.423537 0.622207
vt 0.444767 0.622232
vt 0.444259 0.627850
vt 0.439138 0.627857
vt 0.439138 0.622144
vt 0.454230 0.627840
vt 0.454230 0.622160
vt 0.429674 0.627786
vt 0.377374 0.000000
vt 0.205927 0.750000
vt 0.218656 0.745725
vt 0.622621 0.906441
vt 0.624999 0.918827
vt 0.624999 0.331173
vt 0.622621 0.343559
vt 0.377416 0.343557
vt 0.125000 0.750000
vt 0.625000 0.918819
vt 0.625000 0.999983
vt 0.625000 0.250017
vt 0.625000 0.331181
vt 0.125000 0.500000
vt 0.205927 0.500000
vt 0.607856 0.649827
vt 0.595150 0.655375
vt 0.595150 0.594625
vt 0.607856 0.600173
vt 0.540491 0.594321
vt 0.540793 0.655816
vt 0.595720 0.656395
vt 0.608166 0.656508
s 0
usemtl M_Noir_Bleuté
f 42/1/1 28/2/1 4/3/1 15/4/1
f 4/3/1 28/2/1 135/2/1 409/9/1 411/3/1
f 104/10/3 73/11/3 164/11/3 174/10/3
f 63/12/4 7/13/4 45/14/4 83/15/4
f 43/16/3 77/17/3 59/18/3 10/19/3
f 30/20/5 10/21/5 9/22/5 157/23/5
f 34/24/6 7/25/6 8/26/6 101/27/6
f 158/28/7 161/29/7 67/30/7 5/31/7
f 52/32/8 29/33/8 6/34/8 44/35/8
f 7/13/9 63/8/9 70/7/9 8/26/9
f 11/42/10 55/43/10 62/44/10 12/45/10
f 80/48/3 46/49/3 12/45/3 62/50/3
f 162/55/7 101/27/7 8/26/7 70/7/7
f 16/56/1 15/4/1 138/4/1 136/56/1
f 25/58/1 40/59/1 16/56/1 3/60/1
f 40/59/1 42/1/1 15/4/1 16/56/1
f 13/61/1 14/62/1 41/63/1 39/64/1
f 188/65/1 190/66/1 42/1/1 40/59/1
f 1/67/1 13/61/1 39/64/1 26/68/1
f 175/69/1 188/65/1 40/59/1 25/58/1
f 9/22/7 58/70/7 160/71/7 157/23/7
f 105/72/7 462/73/7 463/74/7 106/75/7 102/76/7 186/77/7 224/78/7 223/79/7 185/80/7 101/27/7
f 58/70/10 9/22/10 10/19/10 59/81/10
f 73/11/12 32/82/12 170/82/12 164/11/12
f 43/83/8 10/21/8 30/20/8 51/84/8
f 194/85/8 179/86/8 29/33/8 52/32/8
f 12/87/6 33/88/6 102/76/6 11/42/6
f 184/89/6 34/24/6 101/27/6 185/80/6
f 6/34/5 29/33/5 158/28/5 5/31/5
f 180/90/5 30/20/5 157/23/5 181/91/5
f 175/69/1 25/58/1 139/58/1 197/69/1
f 14/62/1 2/102/1 27/103/1 41/63/1
f 190/66/1 178/104/1 28/2/1 42/1/1
f 184/89/15 192/105/15 54/106/15 34/24/15
f 12/87/15 46/107/15 53/108/15 33/88/15
f 3/60/1 16/56/1 136/56/1 412/109/1 414/60/1
f 6/114/4 66/115/4 82/96/4 44/95/4
f 66/116/9 6/114/9 5/31/9 67/117/9
f 14/62/1 13/61/1 137/61/1 134/62/1
f 1/67/1 26/68/1 133/68/1 403/124/1 405/67/1
f 34/24/15 54/106/15 45/125/15 7/25/15
f 162/55/17 70/7/17 47/7/17 92/55/17
f 62/44/19 55/43/19 24/43/19 21/44/19
f 67/30/20 161/29/20 89/29/20 36/30/20
f 161/128/4 162/129/4 92/129/4 89/128/4
f 159/132/3 160/133/3 94/133/3 95/132/3
f 80/48/18 62/50/18 21/50/18 88/48/18
f 55/43/7 11/42/7 102/76/7 159/137/7
f 58/70/37 59/81/37 18/81/37 19/70/37
f 82/96/23 66/115/23 37/115/23 98/96/23
f 63/12/18 83/15/18 99/15/18 50/12/18
f 70/7/42 63/8/42 50/8/42 47/7/42
f 160/71/43 58/70/43 19/70/43 94/71/43
f 55/43/44 159/137/44 95/137/44 24/43/44
f 59/18/23 77/17/23 85/17/23 18/18/23
f 66/116/45 67/117/45 36/117/45 37/116/45
f 108/142/7 474/143/7 459/144/7 105/72/7 101/27/7 162/145/7
f 471/146/7 474/147/7 108/142/7
f 467/148/7 470/149/7 107/150/7
f 464/153/8 461/154/8 120/154/8 121/153/8
f 472/155/15 469/156/15 124/156/15 117/155/15
f 468/157/46 465/158/46 122/158/46 123/157/46
f 120/154/47 461/154/47 460/159/47 119/159/47
f 122/158/48 465/158/48 464/153/48 121/153/48
f 468/157/49 123/157/49 124/156/49 469/156/49
f 472/155/50 117/155/50 118/160/50 473/160/50
f 460/159/51 473/160/51 118/160/51 119/159/51
f 106/161/7 466/162/7 467/163/7 107/164/7 159/165/7 102/76/7
f 107/150/7 470/166/7 471/146/7 108/142/7 162/145/7 196/167/7 234/168/7 233/169/7 195/170/7 159/165/7
f 463/74/7 466/171/7 106/161/7
f 27/103/1 2/102/1 408/102/1 407/182/1 140/103/1
f 25/58/1 3/60/1 414/60/1 413/191/1 139/58/1
f 15/4/1 4/3/1 411/3/1 410/197/1 138/4/1
f 2/102/1 14/62/1 134/62/1 406/206/1 408/102/1
f 177/213/1 27/103/1 140/103/1 199/213/1
f 202/224/7 32/82/7 158/28/7 182/225/7
f 103/226/7 72/227/7 160/133/7 159/132/7
f 73/11/7 104/10/7 162/129/7 161/128/7
f 72/227/7 31/228/7 157/23/7 160/229/7
f 32/82/7 73/11/7 161/230/7 158/28/7
f 203/231/7 103/226/7 159/132/7 195/170/7
f 315/232/7 278/233/7 273/234/7 316/235/7
f 201/238/15 31/228/15 169/228/15 205/239/15
f 204/240/8 104/10/8 174/10/8 208/241/8
f 31/228/64 72/227/64 163/227/64 169/228/64
f 72/227/4 103/226/4 171/226/4 163/227/4
f 103/226/8 203/231/8 207/231/8 171/226/8
f 242/256/8 204/240/8 208/241/8 244/257/8
f 32/82/15 202/224/15 206/244/15 170/82/15
f 239/258/65 201/238/65 205/239/65 283/259/65
f 318/260/7 316/235/7 247/261/7 254/262/7
f 248/263/7 272/264/7 278/233/7 315/232/7
f 104/10/7 204/240/7 196/167/7 162/129/7
f 241/266/7 203/231/7 195/170/7 233/169/7
f 31/228/7 201/238/7 181/91/7 157/23/7
f 240/255/7 202/224/7 182/225/7 220/267/7
f 28/2/1 178/104/1 200/104/1 135/2/1
f 215/268/1 177/213/1 199/213/1 237/268/1
f 33/88/15 53/108/15 191/204/15 183/284/15
f 222/285/15 230/282/15 192/105/15 184/89/15
f 41/63/1 27/103/1 177/213/1 189/286/1
f 228/287/1 216/288/1 178/104/1 190/66/1
f 26/68/1 176/289/1 198/290/1 133/68/1
f 213/291/1 175/69/1 197/69/1 235/292/1
f 29/33/5 179/86/5 182/225/5 158/28/5
f 218/293/5 180/90/5 181/91/5 219/294/5
f 33/88/6 183/284/6 186/77/6 102/76/6
f 222/285/6 184/89/6 185/80/6 223/79/6
f 51/84/8 30/20/8 180/90/8 193/214/8
f 232/275/8 217/295/8 179/86/8 194/85/8
f 26/68/1 39/64/1 187/296/1 176/289/1
f 213/291/1 226/297/1 188/65/1 175/69/1
f 39/64/1 41/63/1 189/286/1 187/296/1
f 226/297/1 228/287/1 190/66/1 188/65/1
f 187/296/1 189/286/1 227/298/1 225/299/1
f 225/299/1 227/298/1 228/287/1 226/297/1
f 176/289/1 187/296/1 225/299/1 214/300/1
f 214/300/1 225/299/1 226/297/1 213/291/1
f 193/214/8 180/90/8 218/293/8 231/277/8
f 231/277/8 218/293/8 217/295/8 232/275/8
f 183/284/6 221/301/6 224/78/6 186/77/6
f 221/301/6 222/285/6 223/79/6 224/78/6
f 179/86/5 217/295/5 220/267/5 182/225/5
f 217/295/5 218/293/5 219/294/5 220/267/5
f 176/289/1 214/300/1 236/302/1 198/290/1
f 214/300/1 213/291/1 235/292/1 236/302/1
f 189/286/1 177/213/1 215/268/1 227/298/1
f 227/298/1 215/268/1 216/288/1 228/287/1
f 183/284/15 191/204/15 229/303/15 221/301/15
f 221/301/15 229/303/15 230/282/15 222/285/15
f 178/104/1 216/288/1 238/288/1 200/104/1
f 216/288/1 215/268/1 237/268/1 238/288/1
f 201/238/7 239/258/7 219/294/7 181/91/7
f 239/258/7 240/255/7 220/267/7 219/294/7
f 204/240/7 242/256/7 234/168/7 196/167/7
f 242/256/7 241/266/7 233/169/7 234/168/7
f 267/312/7 248/263/7 315/232/7 317/313/7
f 247/261/7 265/314/7 261/315/7 252/316/7
f 316/235/7 273/234/7 265/314/7 247/261/7
f 263/317/7 259/318/7 248/263/7 267/312/7
f 202/224/15 240/255/15 279/255/15 206/244/15
f 240/255/66 239/258/66 283/259/66 279/255/66
f 203/231/8 241/266/8 243/252/8 207/231/8
f 241/266/8 242/256/8 244/257/8 243/252/8
f 259/318/7 258/325/7 272/264/7 248/263/7
f 254/326/7 247/261/7 252/327/7 255/328/7
f 254/326/72 255/328/72 256/243/72 253/242/72
f 258/325/10 259/318/10 260/246/10 257/245/10
f 252/316/9 261/315/9 262/248/9 251/330/9
f 259/318/73 263/317/73 264/249/73 260/329/73
f 255/328/74 252/327/74 251/247/74 256/243/74
f 263/317/75 267/312/75 268/253/75 264/265/75
f 318/260/76 254/262/76 253/242/76 269/254/76
f 267/312/77 317/313/77 276/319/77 268/253/77
f 317/331/78 318/332/78 269/254/78 276/319/78
f 249/357/7 250/358/7 315/232/7 316/235/7
f 275/359/7 270/360/7 318/332/7 317/331/7
f 358/361/83 356/362/83 321/363/83 322/361/83
f 368/364/8 358/365/8 322/365/8 323/364/8
f 364/366/15 361/367/15 328/367/15 325/366/15
f 377/368/84 376/369/84 336/369/84 335/368/84
f 366/370/83 364/371/83 325/371/83 326/370/83
f 361/372/84 360/373/84 327/373/84 328/372/84
f 348/376/15 353/377/15 332/377/15 329/376/15
f 353/377/84 352/378/84 331/379/84 332/377/84
f 382/380/83 380/381/83 342/381/83 341/380/83
f 386/382/7 387/383/7 349/384/7 351/385/7
f 393/386/84 392/387/84 340/388/84 339/386/84
f 400/389/8 374/390/8 345/390/8 344/389/8
f 250/358/7 399/391/7 402/392/7 367/393/7 370/394/7 383/395/7 386/396/7 351/397/7 354/398/7 391/399/7 394/400/7 359/401/7 362/402/7 375/403/7 378/404/7 275/359/7 317/331/7 315/232/7
f 388/405/15 385/406/15 320/406/15 334/407/15
f 372/408/15 401/409/15 343/410/15 346/408/15
f 384/411/8 390/412/8 333/412/8 319/411/8
f 352/374/8 350/375/8 330/375/8 331/374/8
f 390/412/83 388/421/83 334/421/83 333/412/83
f 270/360/7 395/422/7 397/423/7 363/424/7 365/425/7 379/426/7 381/427/7 347/428/7 349/429/7 387/430/7 389/431/7 355/432/7 357/433/7 371/434/7 373/435/7 249/357/7 316/235/7 318/332/7
f 376/416/8 398/417/8 337/417/8 336/416/8
f 354/436/7 347/437/7 381/438/7 391/439/7
f 396/418/15 377/368/15 335/368/15 338/418/15
f 360/373/8 366/413/8 326/413/8 327/373/8
f 401/440/84 400/441/84 344/441/84 343/440/84
f 394/442/7 379/443/7 365/444/7 359/445/7
f 378/446/7 395/447/7 270/360/7 275/359/7
f 369/448/84 368/364/84 323/364/84 324/448/84
f 398/417/83 396/449/83 338/449/83 337/417/83
f 362/450/7 363/451/7 397/452/7 375/453/7
f 385/454/84 384/411/84 319/411/84 320/455/84
f 374/456/83 372/457/83 346/457/83 345/456/83
f 380/381/15 393/420/15 339/420/15 342/381/15
f 402/458/7 371/459/7 357/460/7 367/461/7
f 392/462/8 382/419/8 341/419/8 340/388/8
f 356/414/15 369/463/15 324/415/15 321/414/15
f 370/394/7 355/464/7 389/465/7 383/466/7
f 250/358/7 249/357/7 373/467/7 399/468/7
f 354/398/85 351/397/85 352/378/85 353/377/85
f 351/385/5 349/384/5 350/375/5 352/374/5
f 349/429/86 347/428/86 348/469/86 350/375/86
f 347/437/6 354/436/6 353/377/6 348/376/6
f 362/402/85 359/401/85 360/373/85 361/372/85
f 359/445/5 365/444/5 366/413/5 360/373/5
f 365/425/86 363/424/86 364/371/86 366/370/86
f 363/451/6 362/450/6 361/367/6 364/366/6
f 370/394/85 367/393/85 368/364/85 369/448/85
f 367/461/5 357/460/5 358/365/5 368/364/5
f 357/433/86 355/432/86 356/362/86 358/361/86
f 355/464/6 370/394/6 369/463/6 356/414/6
f 386/396/85 383/395/85 384/411/85 385/454/85
f 383/466/5 389/465/5 390/412/5 384/411/5
f 389/431/86 387/430/86 388/421/86 390/412/86
f 387/383/6 386/382/6 385/406/6 388/405/6
f 378/404/85 375/403/85 376/369/85 377/368/85
f 375/453/5 397/452/5 398/417/5 376/416/5
f 397/423/86 395/422/86 396/449/86 398/417/86
f 395/447/6 378/446/6 377/368/6 396/418/6
f 394/400/85 391/399/85 392/387/85 393/386/85
f 391/439/5 381/438/5 382/419/5 392/462/5
f 381/427/86 379/426/86 380/381/86 382/380/86
f 379/443/6 394/442/6 393/420/6 380/381/6
f 402/392/85 399/391/85 400/441/85 401/440/85
f 399/468/5 373/467/5 374/390/5 400/389/5
f 373/435/86 371/434/86 372/457/86 374/456/86
f 371/459/6 402/458/6 401/409/6 372/408/6
f 350/375/83 348/469/83 329/469/83 330/375/83
f 403/67/1 404/470/1 405/67/1
f 406/102/1 407/182/1 408/102/1
f 409/3/1 410/197/1 411/3/1
f 412/60/1 413/191/1 414/60/1
f 13/61/1 1/67/1 405/67/1 404/470/1 137/61/1
f 460/159/109 461/154/109 462/485/109 459/486/109
f 464/153/110 465/158/110 466/487/110 463/488/110
f 468/157/111 469/489/111 470/149/111 467/148/111
f 472/155/112 473/490/112 474/147/112 471/146/112
f 463/74/113 462/73/113 461/154/113 464/153/113
f 459/144/114 474/143/114 473/160/114 460/159/114
f 467/163/115 466/162/115 465/158/115 468/157/115
f 471/146/116 470/166/116 469/156/116 472/155/116
f 459/491/7 462/492/7 105/72/7
usemtl M_Noir_Profond
f 49/5/2 48/6/2 47/7/2 50/8/2
f 46/49/11 80/48/11 442/57/11 423/49/11
f 44/95/13 82/96/13 438/97/13 417/95/13
f 133/98/14 427/99/14 416/100/14 403/101/14
f 431/110/15 135/111/15 200/112/15 443/113/15
f 413/118/16 430/119/16 425/120/16 139/121/16
f 136/56/3 138/4/3 441/122/3 440/123/3
f 77/134/7 80/135/7 88/135/7 85/134/7
f 37/116/26 36/117/26 35/54/26 38/126/26
f 23/92/27 22/94/27 21/44/27 24/43/27
f 19/70/28 18/81/28 17/93/28 20/38/28
f 86/136/29 17/93/29 18/18/29 85/17/29
f 88/48/30 21/50/30 22/130/30 87/131/30
f 90/51/31 35/54/31 36/30/31 89/29/31
f 92/55/32 47/7/32 48/53/32 91/52/32
f 20/38/33 93/41/33 94/71/33 19/70/33
f 24/43/34 95/137/34 96/40/34 23/39/34
f 95/132/7 94/133/7 93/41/7 96/40/7
f 91/52/7 90/51/7 89/128/7 92/129/7
f 38/126/35 97/127/35 98/96/35 37/115/35
f 50/12/36 99/15/36 100/138/36 49/139/36
f 99/140/4 98/141/4 97/127/4 100/138/4
f 87/131/3 86/136/3 85/134/3 88/135/3
f 83/140/7 82/141/7 98/141/7 99/140/7
f 112/151/8 109/152/8 128/152/8 129/151/8
f 116/172/7 115/173/7 118/174/7 117/155/7
f 110/175/7 109/152/7 120/154/7 119/176/7
f 112/151/7 111/177/7 122/178/7 121/179/7
f 114/180/7 113/181/7 124/156/7 123/157/7
f 109/152/7 112/151/7 121/179/7 120/154/7
f 115/173/7 110/175/7 119/176/7 118/174/7
f 111/177/7 114/180/7 123/157/7 122/178/7
f 113/181/7 116/172/7 117/155/7 124/156/7
f 111/177/52 112/151/52 129/151/52 130/177/52
f 115/173/50 116/172/50 125/172/50 126/173/50
f 116/172/15 113/181/15 132/181/15 125/172/15
f 110/175/51 115/173/51 126/173/51 127/175/51
f 113/181/49 114/180/49 131/180/49 132/181/49
f 109/152/53 110/175/53 127/175/53 128/152/53
f 114/180/46 111/177/46 130/177/46 131/180/46
f 433/183/54 140/184/54 407/185/54 420/186/54
f 436/187/55 418/188/55 406/189/55 134/190/55
f 138/4/56 410/192/56 421/193/56 441/194/56
f 82/141/7 83/140/7 435/195/7 438/141/7
f 194/85/7 52/32/7 426/32/7 450/196/7
f 52/32/7 44/35/7 417/35/7 426/32/7
f 443/113/15 200/112/15 238/198/15 451/199/15
f 415/200/57 437/201/57 137/202/57 404/203/57
f 80/135/7 77/134/7 439/134/7 442/135/7
f 191/204/7 53/108/7 432/108/7 444/205/7
f 45/125/7 54/106/7 434/106/7 419/125/7
f 77/17/58 43/16/58 429/16/58 439/17/58
f 422/207/59 409/208/59 135/111/59 431/209/59
f 139/121/8 425/210/8 448/211/8 197/212/8
f 83/15/60 45/14/60 419/14/60 435/15/60
f 51/84/7 193/214/7 447/215/7 424/84/7
f 412/109/61 136/56/61 440/216/61 428/217/61
f 437/218/4 436/219/4 134/190/4 137/202/4
f 53/108/7 46/107/7 423/107/7 432/108/7
f 246/236/15 212/237/15 266/237/15 274/236/15
f 210/242/7 166/243/7 170/82/7 206/244/7
f 167/245/7 172/246/7 163/227/7 171/226/7
f 173/247/7 168/248/7 174/10/7 164/11/7
f 172/246/7 165/249/7 169/228/7 163/227/7
f 166/243/7 173/247/7 164/11/7 170/82/7
f 211/250/7 167/245/7 171/226/7 207/231/7
f 168/248/7 212/237/7 208/241/7 174/10/7
f 245/251/7 211/250/7 207/231/7 243/252/7
f 165/249/7 209/253/7 205/239/7 169/228/7
f 280/254/7 210/242/7 206/244/7 279/255/7
f 209/253/8 165/249/8 264/265/8 268/253/8
f 198/269/8 449/270/8 427/271/8 133/98/8
f 451/272/15 238/198/15 237/273/15 454/274/15
f 43/83/7 51/84/7 424/84/7 429/83/7
f 232/275/7 194/85/7 450/196/7 458/276/7
f 54/106/7 192/105/7 445/105/7 434/106/7
f 193/214/7 231/277/7 455/278/7 447/215/7
f 446/279/15 199/280/15 140/184/15 433/281/15
f 192/105/7 230/282/7 453/283/7 445/105/7
f 454/274/15 237/273/15 199/280/15 446/279/15
f 231/277/7 232/275/7 458/275/7 455/277/7
f 229/303/7 191/204/7 444/205/7 452/304/7
f 230/282/7 229/303/7 452/305/7 453/282/7
f 236/306/8 457/307/8 449/270/8 198/269/8
f 197/212/8 448/211/8 456/308/8 235/309/8
f 235/309/8 456/310/8 457/311/8 236/306/8
f 209/253/7 288/319/7 283/259/7 205/239/7
f 286/320/8 290/321/8 302/322/8 303/323/8
f 212/237/7 246/236/7 244/257/7 208/241/7
f 246/236/7 245/251/7 243/252/7 244/257/7
f 173/247/67 166/243/67 256/243/67 251/247/67
f 210/242/68 280/254/68 269/254/68 253/242/68
f 167/245/15 211/250/15 271/250/15 257/245/15
f 288/319/69 209/253/69 268/253/69 276/319/69
f 212/237/15 168/248/15 262/324/15 266/237/15
f 172/246/3 167/245/3 257/245/3 260/246/3
f 280/254/70 288/319/70 276/319/70 269/254/70
f 211/250/15 245/251/15 277/251/15 271/250/15
f 245/251/15 246/236/15 274/236/15 277/251/15
f 166/243/8 210/242/8 253/242/8 256/243/8
f 165/249/71 172/246/71 260/329/71 264/249/71
f 266/237/6 262/324/6 261/315/6 265/314/6
f 257/245/6 271/250/6 272/264/6 258/325/6
f 274/236/6 266/237/6 265/314/6 273/234/6
f 271/250/6 277/251/6 278/233/6 272/264/6
f 277/251/6 274/236/6 273/234/6 278/233/6
f 168/248/4 173/247/4 251/330/4 262/248/4
f 281/333/4 287/334/4 304/334/4 305/333/4
f 298/335/3 293/336/3 308/336/3 309/335/3
f 279/337/7 285/338/7 289/339/7 280/254/7
f 289/340/3 285/341/3 300/338/3 301/339/3
f 280/342/7 290/322/7 286/323/7 288/319/7
f 288/343/7 287/334/7 281/333/7 283/259/7
f 283/344/7 282/345/7 284/346/7 279/255/7
f 281/333/7 282/347/7 283/344/7
f 284/346/7 285/348/7 279/337/7
f 286/320/7 287/349/7 288/343/7
f 289/340/7 290/350/7 280/342/7
f 284/346/79 299/346/79 300/338/79 285/341/79
f 302/322/80 290/321/80 289/340/80 301/339/80
f 304/334/81 287/334/81 286/320/81 303/323/81
f 306/345/82 282/345/82 281/333/82 305/333/82
f 284/346/15 282/345/15 306/345/15 299/346/15
f 294/351/7 293/336/7 300/341/7 299/346/7
f 298/335/7 297/352/7 302/321/7 301/340/7
f 296/353/7 295/354/7 304/334/7 303/320/7
f 292/355/7 291/356/7 306/345/7 305/333/7
f 291/356/7 294/351/7 299/346/7 306/345/7
f 295/354/7 292/355/7 305/333/7 304/334/7
f 293/336/7 298/335/7 301/340/7 300/341/7
f 297/352/7 296/353/7 303/320/7 302/321/7
f 294/351/15 291/356/15 314/356/15 307/351/15
f 295/354/81 296/353/81 311/353/81 312/354/81
f 293/336/79 294/351/79 307/351/79 308/336/79
f 296/353/8 297/352/8 310/352/8 311/353/8
f 292/355/4 295/354/4 312/354/4 313/355/4
f 291/356/82 292/355/82 313/355/82 314/356/82
f 297/352/80 298/335/80 309/335/80 310/352/80
f 331/374/7 330/375/7 329/376/7 332/377/7
f 327/373/7 326/413/7 325/366/7 328/367/7
f 323/364/7 322/365/7 321/414/7 324/415/7
f 319/411/7 333/412/7 334/407/7 320/406/7
f 336/416/7 337/417/7 338/418/7 335/368/7
f 340/388/7 341/419/7 342/381/7 339/420/7
f 344/389/7 345/390/7 346/408/7 343/410/7
f 415/471/87 416/100/87 417/472/87
f 418/188/88 419/473/88 420/474/88
f 421/193/89 422/475/89 423/476/89
f 428/477/90 429/16/90 430/16/90
f 415/471/91 404/478/91 403/101/91 416/100/91
f 420/479/92 407/480/92 406/189/92 418/188/92
f 421/193/93 410/192/93 409/481/93 422/482/93
f 412/483/94 428/484/94 430/119/94 413/118/94
f 446/279/95 433/281/95 434/106/95 445/105/95
f 422/207/96 431/209/96 432/108/96 423/107/96
f 450/196/97 426/32/97 427/271/97 449/270/97
f 429/83/98 424/84/98 425/120/98 430/119/98
f 426/32/99 417/35/99 416/100/99 427/99/99
f 433/183/100 420/186/100 419/125/100 434/106/100
f 436/219/101 437/218/101 438/141/101 435/195/101
f 440/123/102 441/122/102 442/135/102 439/134/102
f 428/217/103 440/216/103 439/17/103 429/16/103
f 441/194/104 421/193/104 423/49/104 442/57/104
f 418/188/105 436/187/105 435/15/105 419/14/105
f 437/201/106 415/200/106 417/95/106 438/97/106
f 431/110/95 443/113/95 444/205/95 432/108/95
f 454/274/107 446/279/107 445/105/107 453/283/107
f 424/84/97 447/215/97 448/211/97 425/210/97
f 458/276/108 450/196/108 449/270/108 457/307/108
f 443/113/107 451/199/107 452/304/107 444/205/107
f 451/272/107 454/274/107 453/282/107 452/305/107
f 447/215/108 455/278/108 456/308/108 448/211/108
f 455/277/108 458/275/108 457/311/108 456/310/108
usemtl M_Gris_Metal
f 78/36/7 79/37/7 152/37/7 149/36/7
f 57/38/7 56/39/7 75/40/7 71/41/7
f 65/46/1 64/47/1 156/47/1 153/46/1
f 74/51/7 76/52/7 69/53/7 68/54/7
f 56/92/10 57/38/10 142/93/10 143/94/10
f 148/5/9 145/126/9 68/54/9 69/6/9
f 145/126/18 146/127/18 97/127/18 38/126/18
f 74/51/21 68/54/21 35/54/21 90/51/21
f 76/52/3 74/51/3 90/51/3 91/52/3
f 56/92/22 143/94/22 22/94/22 23/92/22
f 71/41/4 75/40/4 96/40/4 93/41/4
f 143/130/23 144/131/23 87/131/23 22/130/23
f 68/54/24 145/126/24 38/126/24 35/54/24
f 75/40/25 56/39/25 23/39/25 96/40/25
f 144/131/1 141/136/1 86/136/1 87/131/1
f 69/53/38 76/52/38 91/52/38 48/53/38
f 148/5/39 69/6/39 48/6/39 49/5/39
f 57/38/40 71/41/40 93/41/40 20/38/40
f 142/93/41 57/38/41 20/38/41 17/93/41
f 147/138/23 148/139/23 49/139/23 100/138/23
f 141/136/18 142/93/18 17/93/18 86/136/18
f 146/127/1 147/138/1 100/138/1 97/127/1
f 78/36/3 60/220/3 142/93/3 141/136/3
f 61/221/3 79/37/3 144/131/3 143/130/3
f 65/46/4 81/222/4 146/127/4 145/126/4
f 84/223/4 64/47/4 148/139/4 147/138/4
f 81/222/4 84/223/4 147/138/4 146/127/4
f 79/37/3 78/36/3 141/136/3 144/131/3
f 60/220/3 61/221/3 143/130/3 142/93/3
f 64/47/4 65/46/4 145/126/4 148/139/4
f 64/47/62 84/223/62 155/223/62 156/47/62
f 79/37/62 61/221/62 151/221/62 152/37/62
f 61/221/1 60/220/1 150/220/1 151/221/1
f 84/223/7 81/222/7 154/222/7 155/223/7
f 81/222/63 65/46/63 153/46/63 154/222/63
f 60/220/63 78/36/63 149/36/63 150/220/63
usemtl M_Cyan
f 132/181/7 131/180/7 130/177/7 129/151/7 128/152/7 127/175/7 126/173/7 125/172/7
f 312/354/7 311/353/7 310/352/7 309/335/7 308/336/7 307/351/7 314/356/7 313/355/7
usemtl M_Orange
f 153/46/4 156/47/4 155/223/4 154/222/4
f 149/36/3 152/37/3 151/221/3 150/220/3
