# Blender 4.2.3 LTS
# www.blender.org
mtllib SM_BarTable.mtl
o SM_BarTable
v -0.252155 1.133693 0.300000
v -0.300000 1.133693 0.252155
v -0.300000 1.133693 -0.252155
v -0.252155 1.133693 -0.300000
v 0.252155 1.133693 -0.300000
v 0.300000 1.133693 -0.252155
v 0.300000 1.133693 0.252155
v 0.252155 1.133693 0.300000
v -0.300000 1.152822 0.256767
v -0.300000 1.142182 0.252155
v -0.252155 1.142182 0.300000
v -0.256767 1.152822 0.300000
v -0.300000 1.142182 -0.252155
v -0.300000 1.152822 -0.256767
v -0.256767 1.152822 -0.300000
v -0.252155 1.142182 -0.300000
v 0.252155 1.142182 -0.300000
v 0.256767 1.152822 -0.300000
v 0.300000 1.152822 -0.256767
v 0.300000 1.142182 -0.252155
v 0.300000 1.142182 0.252155
v 0.300000 1.152822 0.256767
v 0.256767 1.152822 0.300000
v 0.252155 1.142182 0.300000
v -0.295611 1.152822 0.254949
v -0.295611 1.146793 0.254949
v -0.254949 1.146793 0.295611
v -0.254949 1.152822 0.295611
v -0.295611 1.146793 -0.254949
v -0.295611 1.152822 -0.254949
v -0.254949 1.152822 -0.295611
v -0.254949 1.146793 -0.295611
v 0.254949 1.146793 -0.295611
v 0.254949 1.152822 -0.295611
v 0.295611 1.152822 -0.254949
v 0.295611 1.146793 -0.254949
v 0.295611 1.146793 0.254949
v 0.295611 1.152822 0.254949
v 0.254949 1.152822 0.295611
v 0.254949 1.146793 0.295611
v -0.256767 1.129082 0.300000
v 0.256767 1.129082 0.300000
v 0.300000 1.129082 -0.256767
v 0.300000 1.129082 0.256767
v -0.300000 1.129082 0.256767
v -0.300000 1.129082 -0.256767
v -0.256767 1.129082 -0.300000
v 0.256767 1.129082 -0.300000
v -0.256767 1.146793 0.300000
v 0.256767 1.146793 0.300000
v -0.300000 1.146793 -0.256767
v -0.300000 1.146793 0.256767
v 0.256767 1.146793 -0.300000
v -0.256767 1.146793 -0.300000
v 0.300000 1.146793 0.256767
v 0.300000 1.146793 -0.256767
v -0.250872 1.134977 0.298984
v 0.250872 1.134977 0.298984
v 0.298984 1.134977 -0.250872
v 0.298984 1.134977 0.250872
v -0.298984 1.134977 0.250872
v -0.298984 1.134977 -0.250872
v -0.250872 1.134977 -0.298984
v 0.250872 1.134977 -0.298984
v -0.250872 1.140898 0.298984
v 0.250872 1.140898 0.298984
v -0.298984 1.140898 -0.250872
v -0.298984 1.140898 0.250872
v 0.250872 1.140898 -0.298984
v -0.250872 1.140898 -0.298984
v 0.298984 1.140898 0.250872
v 0.298984 1.140898 -0.250872
v -0.252155 1.133693 0.298984
v 0.252155 1.133693 0.298984
v 0.298984 1.133693 -0.252155
v 0.298984 1.133693 0.252155
v -0.298984 1.133693 0.252155
v -0.298984 1.133693 -0.252155
v -0.252155 1.133693 -0.298984
v 0.252155 1.133693 -0.298984
v -0.252155 1.142182 0.298984
v 0.252155 1.142182 0.298984
v -0.298984 1.142182 -0.252155
v -0.298984 1.142182 0.252155
v 0.252155 1.142182 -0.298984
v -0.252155 1.142182 -0.298984
v 0.298984 1.142182 0.252155
v 0.298984 1.142182 -0.252155
v -0.250872 1.134977 0.298291
v 0.250872 1.134977 0.298291
v 0.298291 1.134977 -0.250872
v 0.298291 1.134977 0.250872
v -0.298291 1.134977 0.250872
v -0.298291 1.134977 -0.250872
v -0.250872 1.134977 -0.298291
v 0.250872 1.134977 -0.298291
v -0.250872 1.140898 0.298291
v 0.250872 1.140898 0.298291
v -0.298291 1.140898 -0.250872
v -0.298291 1.140898 0.250872
v 0.250872 1.140898 -0.298291
v -0.250872 1.140898 -0.298291
v 0.298291 1.140898 0.250872
v 0.298291 1.140898 -0.250872
v -0.271249 1.200000 0.244858
v -0.300000 1.189798 0.256767
v -0.256767 1.189798 0.300000
v -0.244858 1.200000 0.271249
v -0.244858 1.200000 -0.271249
v -0.256767 1.189798 -0.300000
v -0.300000 1.189798 -0.256767
v -0.271249 1.200000 -0.244858
v 0.244858 1.200000 0.271249
v 0.256767 1.189798 0.300000
v 0.300000 1.189798 0.256767
v 0.271249 1.200000 0.244858
v 0.271249 1.200000 -0.244858
v 0.300000 1.189798 -0.256767
v 0.256767 1.189798 -0.300000
v 0.244858 1.200000 -0.271249
v -0.250396 1.200000 0.284618
v -0.284618 1.200000 0.250396
v -0.284618 1.200000 -0.250396
v -0.250396 1.200000 -0.284618
v 0.250396 1.200000 -0.284618
v 0.284618 1.200000 -0.250396
v 0.284618 1.200000 0.250396
v 0.250396 1.200000 0.284618
v -0.252541 1.200000 0.289797
v -0.289797 1.200000 0.252541
v -0.289797 1.200000 -0.252541
v -0.252541 1.200000 -0.289797
v 0.252541 1.200000 -0.289797
v 0.289797 1.200000 -0.252541
v 0.289797 1.200000 0.252541
v 0.252541 1.200000 0.289797
v -0.242713 1.200000 0.266069
v -0.266069 1.200000 0.242713
v -0.266069 1.200000 -0.242713
v -0.242713 1.200000 -0.266069
v 0.242713 1.200000 -0.266069
v 0.266069 1.200000 -0.242713
v 0.266069 1.200000 0.242713
v 0.242713 1.200000 0.266069
v -0.250396 1.199164 0.284618
v -0.244858 1.199164 0.271249
v -0.271249 1.199164 0.244858
v -0.284618 1.199164 0.250396
v -0.284618 1.199164 -0.250396
v -0.271249 1.199164 -0.244858
v -0.244858 1.199164 -0.271249
v -0.250396 1.199164 -0.284618
v 0.250396 1.199164 -0.284618
v 0.244858 1.199164 -0.271249
v 0.271249 1.199164 -0.244858
v 0.284618 1.199164 -0.250396
v 0.284618 1.199164 0.250396
v 0.271249 1.199164 0.244858
v 0.244858 1.199164 0.271249
v 0.250396 1.199164 0.284618
v 0.050264 1.129082 0.050259
v 0.050263 1.129082 -0.050259
v -0.050240 1.129082 -0.050259
v -0.050242 1.129082 0.050259
v -0.256755 1.129082 0.256767
v 0.256775 1.129082 0.256767
v 0.256769 1.129082 -0.256767
v -0.256743 1.129082 -0.256767
v -0.050242 0.099770 0.050259
v 0.050264 0.099770 0.050259
v 0.050263 0.099770 -0.050259
v -0.050240 0.099770 -0.050259
v -0.100327 0.070391 0.100348
v 0.100348 0.070391 0.100348
v 0.100346 0.070391 -0.100348
v -0.100322 0.070391 -0.100348
v 0.100348 0.048097 0.100348
v -0.100327 0.048097 0.100348
v 0.100346 0.048097 -0.100348
v -0.100322 0.048097 -0.100348
v -0.145696 0.048097 0.145722
v 0.145717 0.048097 0.145722
v 0.145713 0.048097 -0.145721
v -0.145688 0.048097 -0.145721
v -0.167169 -0.000003 0.199970
v -0.199938 -0.000003 0.167200
v 0.199959 -0.000003 0.167200
v 0.167189 -0.000003 0.199970
v 0.167185 -0.000003 -0.199970
v 0.199955 -0.000003 -0.167200
v -0.199930 -0.000003 -0.167200
v -0.167159 -0.000003 -0.199970
v -0.180473 0.048097 0.159493
v -0.199938 0.028757 0.167200
v -0.165394 0.033793 0.195669
v -0.159463 0.048097 0.180503
v 0.159484 0.048097 0.180503
v 0.167189 0.028757 0.199970
v 0.195658 0.033793 0.165426
v 0.180494 0.048097 0.159493
v 0.180491 0.048097 -0.159493
v 0.199955 0.028757 -0.167200
v 0.165410 0.033793 -0.195669
v 0.159480 0.048097 -0.180503
v -0.159455 0.048097 -0.180503
v -0.167159 0.028757 -0.199970
v -0.195629 0.033793 -0.165426
v -0.180466 0.048097 -0.159493
v -0.167159 0.017448 -0.199970
v -0.167159 0.026149 -0.199970
v 0.167185 0.026149 -0.199970
v 0.167185 0.017448 -0.199970
v 0.199955 0.017448 -0.167200
v 0.199955 0.026149 -0.167200
v 0.199959 0.026149 0.167200
v 0.199959 0.017448 0.167200
v 0.167189 0.017448 0.199970
v 0.167189 0.026149 0.199970
v -0.199930 0.017448 -0.167200
v -0.199930 0.026149 -0.167200
v -0.167169 0.017448 0.199970
v -0.167169 0.026149 0.199970
v -0.199938 0.017448 0.167200
v -0.199938 0.026149 0.167200
v 0.164480 0.026149 -0.193440
v 0.164480 0.017448 -0.193440
v -0.164454 0.017448 -0.193440
v -0.164454 0.026149 -0.193440
v 0.193428 0.026149 0.164495
v 0.193428 0.017448 0.164495
v 0.193424 0.017448 -0.164495
v 0.193424 0.026149 -0.164495
v -0.193399 0.017448 -0.164495
v -0.193399 0.026149 -0.164495
v -0.193407 0.017448 0.164495
v -0.193407 0.026149 0.164495
v -0.164464 0.017448 0.193440
v -0.164464 0.026149 0.193440
v 0.164484 0.017448 0.193440
v 0.164484 0.026149 0.193440
v 0.000000 1.129082 0.300000
v 0.000000 1.146793 0.300000
v 0.000000 1.152822 0.300000
v 0.000000 1.146793 0.295611
v 0.000000 1.152822 0.295611
v 0.000000 1.133693 0.300000
v 0.000000 1.142182 0.300000
v 0.000000 1.133693 0.298984
v 0.000000 1.142182 0.298984
v 0.000000 1.134977 0.298984
v 0.000000 1.140898 0.298984
v 0.000000 1.134977 0.298291
v 0.000000 1.140898 0.298291
v 0.000000 1.200000 0.289797
v 0.000000 1.189798 0.300000
v -0.000000 1.200000 0.266069
v 0.000000 1.200000 0.284618
v -0.000000 1.200000 0.271249
v 0.000000 1.199164 0.284618
v -0.000000 1.199164 0.271249
v 0.000010 1.129082 0.256767
v -0.300000 1.129082 0.000000
v -0.300000 1.146793 0.000000
v -0.300000 1.152822 0.000000
v -0.295611 1.146793 0.000000
v -0.295611 1.152822 0.000000
v -0.300000 1.133693 0.000000
v -0.300000 1.142182 0.000000
v -0.298984 1.133693 0.000000
v -0.298984 1.142182 0.000000
v -0.298984 1.134977 0.000000
v -0.298984 1.140898 0.000000
v -0.298291 1.134977 0.000000
v -0.298291 1.140898 0.000000
v -0.289797 1.200000 0.000000
v -0.300000 1.189798 0.000000
v -0.266069 1.200000 -0.000000
v -0.284618 1.200000 0.000000
v -0.271249 1.200000 -0.000000
v -0.284618 1.199164 0.000000
v -0.271249 1.199164 -0.000000
v -0.256749 1.129082 0.000000
v 0.300000 1.129082 0.000000
v 0.300000 1.146793 0.000000
v 0.300000 1.152822 0.000000
v 0.295611 1.146793 0.000000
v 0.295611 1.152822 0.000000
v 0.300000 1.133693 0.000000
v 0.300000 1.142182 0.000000
v 0.298984 1.133693 0.000000
v 0.298984 1.142182 0.000000
v 0.298984 1.134977 0.000000
v 0.298984 1.140898 0.000000
v 0.298291 1.134977 0.000000
v 0.298291 1.140898 0.000000
v 0.300000 1.189798 0.000000
v 0.289797 1.200000 0.000000
v 0.266069 1.200000 0.000000
v 0.284618 1.200000 0.000000
v 0.271249 1.200000 0.000000
v 0.284618 1.199164 0.000000
v 0.271249 1.199164 0.000000
v 0.256772 1.129082 0.000000
v 0.000000 1.129082 -0.300000
v 0.000000 1.146793 -0.300000
v 0.000000 1.152822 -0.300000
v 0.000000 1.146793 -0.295611
v 0.000000 1.152822 -0.295611
v 0.000000 1.133693 -0.300000
v 0.000000 1.142182 -0.300000
v 0.000000 1.133693 -0.298984
v 0.000000 1.142182 -0.298984
v 0.000000 1.134977 -0.298984
v 0.000000 1.140898 -0.298984
v 0.000000 1.134977 -0.298291
v 0.000000 1.140898 -0.298291
v 0.000000 1.189798 -0.300000
v 0.000000 1.200000 -0.289797
v 0.000000 1.200000 -0.266069
v 0.000000 1.200000 -0.284618
v 0.000000 1.200000 -0.271249
v 0.000000 1.199164 -0.284618
v 0.000000 1.199164 -0.271249
v 0.000013 1.129082 -0.256767
v 0.199957 -0.000003 -0.000000
v 0.199957 0.017448 -0.000000
v 0.193426 0.017448 0.000000
v 0.000010 -0.000003 0.199970
v 0.000010 0.017448 0.199970
v 0.000010 0.017448 0.193440
v 0.000013 -0.000003 -0.199970
v 0.000013 0.017448 -0.199970
v 0.000013 0.017448 -0.193440
v -0.199934 -0.000003 0.000000
v -0.199934 0.017448 0.000000
v -0.193403 0.017448 0.000000
v -0.002000 1.129082 0.050259
v 0.001994 1.129082 0.050259
v 0.000011 1.129082 0.052192
v 0.001996 0.099770 0.050259
v -0.002003 0.099770 0.050259
v 0.002002 0.070391 0.100348
v -0.002013 0.070391 0.100348
v 0.000011 0.048097 0.100348
v -0.050241 1.129082 -0.001983
v -0.050241 1.129082 0.002011
v -0.052174 1.129082 0.000000
v -0.050241 0.099770 0.002014
v -0.050241 0.099770 -0.001985
v -0.100324 0.070391 0.002024
v -0.100324 0.070391 -0.001991
v -0.100324 0.048097 0.002040
v 0.050264 1.129082 0.002011
v 0.050264 1.129082 -0.001983
v 0.052197 1.129082 -0.000000
v 0.050264 0.099770 0.002014
v 0.050264 0.099770 -0.001985
v 0.100347 0.070391 -0.001991
v 0.100347 0.070391 0.002024
v 0.100347 0.048097 -0.000000
v 0.001995 1.129082 -0.050259
v -0.001999 1.129082 -0.050259
v 0.000012 1.129082 -0.052192
v -0.002002 0.099770 -0.050259
v 0.001997 0.099770 -0.050259
v 0.002003 0.070391 -0.100348
v -0.002012 0.070391 -0.100348
v 0.185175 0.043444 -0.008581
v 0.185175 0.043444 0.008534
v 0.195274 0.033409 0.008534
v 0.195274 0.033409 -0.008578
v 0.199957 0.026149 -0.001970
v 0.199957 0.026149 0.001933
v 0.193426 0.026149 -0.001969
v 0.193426 0.026149 0.001933
v 0.193426 0.024216 0.000000
v 0.008592 0.043445 0.185186
v -0.008524 0.043445 0.185186
v -0.008524 0.033409 0.195287
v 0.008588 0.033409 0.195287
v 0.001981 0.026149 0.199970
v -0.001923 0.026149 0.199970
v 0.001979 0.026149 0.193440
v -0.001923 0.026149 0.193440
v 0.000010 0.024216 0.193440
v -0.008522 0.043445 -0.185186
v 0.008594 0.043445 -0.185186
v -0.008522 0.033409 -0.195287
v 0.008590 0.033409 -0.195287
v 0.001983 0.026149 -0.199970
v -0.001921 0.026149 -0.199970
v -0.001921 0.026149 -0.193440
v 0.001982 0.026149 -0.193440
v 0.000013 0.024216 -0.193440
v -0.185152 0.043444 0.008534
v -0.185152 0.043444 -0.008581
v -0.195251 0.033409 -0.008577
v -0.195252 0.033409 0.008534
v -0.199934 0.026149 0.001933
v -0.199934 0.026149 -0.001970
v -0.193403 0.026149 0.001934
v -0.193403 0.026149 -0.001969
v -0.193403 0.024216 0.000000
v 0.002006 0.048097 -0.100348
v 0.100347 0.048097 -0.001994
v 0.002005 0.048097 0.100348
v -0.100324 0.048097 0.000000
v -0.100324 0.048097 -0.001994
v -0.002000 1.129082 0.049209
v 0.001994 1.129082 0.049209
v -0.049191 1.129082 -0.001983
v -0.049191 1.129082 0.002011
v 0.049214 1.129082 0.002011
v 0.049214 1.129082 -0.001983
v 0.001995 1.129082 -0.049209
v -0.001999 1.129082 -0.049209
v 0.193426 0.027199 -0.001969
v 0.193426 0.027199 0.001933
v 0.001979 0.027199 0.193440
v -0.001923 0.027199 0.193440
v -0.001921 0.027199 -0.193440
v 0.001982 0.027199 -0.193440
v -0.193403 0.027199 0.001934
v -0.193403 0.027199 -0.001969
v 0.002013 0.048097 0.099298
v -0.002029 0.048097 0.099298
v -0.002050 0.048097 0.100348
v 0.002002 0.069790 0.099298
v -0.002013 0.069790 0.099298
v 0.001996 0.099169 0.049209
v -0.002003 0.099169 0.049209
v -0.100324 0.047047 -0.001994
v -0.100324 0.047047 0.002061
v -0.100324 0.047047 0.000000
v -0.099274 0.069790 0.002024
v -0.099274 0.069790 -0.001991
v -0.099274 0.048097 -0.002002
v -0.099625 0.046697 0.002040
v -0.049191 0.099169 0.002014
v -0.049191 0.099169 -0.001985
v 0.099297 0.048097 -0.002002
v 0.099648 0.046697 0.002040
v 0.100347 0.048097 0.002061
v 0.100347 0.047047 -0.000000
v 0.099297 0.069790 -0.001991
v 0.099297 0.069790 0.002024
v 0.049214 0.099169 0.002014
v 0.049214 0.099169 -0.001985
v 0.002006 0.047047 -0.100348
v 0.000012 0.047047 -0.100348
v -0.002049 0.048097 -0.100348
v 0.000012 0.048097 -0.100348
v -0.002028 0.048097 -0.099298
v 0.002014 0.048097 -0.099298
v -0.002002 0.099169 -0.049209
v 0.001997 0.099169 -0.049209
v 0.002003 0.069790 -0.099298
v -0.002012 0.069790 -0.099298
v 0.198906 0.027198 -0.001970
v 0.198907 0.027199 0.001933
v 0.180059 0.047047 -0.001982
v 0.180056 0.047048 0.001933
v 0.198907 0.028320 0.001933
v 0.198907 0.028319 -0.001975
v 0.001981 0.027198 0.198920
v -0.001923 0.027199 0.198920
v 0.001993 0.047047 0.180071
v -0.001923 0.047048 0.180067
v -0.001923 0.028320 0.198920
v 0.001985 0.028319 0.198920
v -0.001921 0.028320 -0.198920
v 0.001987 0.028319 -0.198920
v 0.001983 0.027198 -0.198920
v -0.001921 0.027199 -0.198920
v -0.001921 0.047048 -0.180067
v 0.001995 0.047047 -0.180071
v -0.198884 0.027199 0.001933
v -0.198883 0.027198 -0.001970
v -0.180033 0.047048 0.001933
v -0.180037 0.047047 -0.001982
v -0.198884 0.028319 -0.001975
v -0.198884 0.028320 0.001933
v 0.100347 0.047047 -0.001994
v 0.000011 0.047047 0.100348
v 0.002005 0.047047 0.100348
v -0.195637 0.033793 0.165426
v -0.167169 0.028757 0.199970
v -0.161238 0.043060 0.184805
v -0.184774 0.043060 0.161268
v 0.165414 0.033793 0.195669
v 0.199959 0.028757 0.167200
v 0.184795 0.043060 0.161268
v 0.161259 0.043060 0.184805
v 0.195654 0.033793 -0.165426
v 0.167185 0.028757 -0.199970
v 0.161254 0.043060 -0.184805
v 0.184791 0.043060 -0.161268
v -0.165385 0.033793 -0.195669
v -0.199930 0.028757 -0.167200
v -0.184767 0.043060 -0.161268
v -0.161229 0.043060 -0.184804
v 0.180492 0.048097 0.001933
v 0.199957 0.028757 0.001933
v 0.199957 0.028757 -0.001975
v 0.180492 0.048097 -0.001982
v -0.001923 0.048097 0.180503
v -0.001923 0.028757 0.199970
v 0.001985 0.028757 0.199970
v 0.001993 0.048097 0.180503
v 0.001995 0.048097 -0.180503
v 0.001987 0.028757 -0.199970
v -0.001921 0.028757 -0.199970
v -0.001921 0.048097 -0.180503
v -0.180469 0.048097 -0.001982
v -0.199934 0.028757 -0.001975
v -0.199934 0.028757 0.001933
v -0.180470 0.048097 0.001933
v -0.184261 0.042389 0.161056
v -0.195121 0.033122 0.165220
v -0.165188 0.033122 0.195153
v -0.161026 0.042390 0.184291
v 0.161047 0.042390 0.184291
v 0.165208 0.033122 0.195153
v 0.195142 0.033122 0.165220
v 0.184282 0.042389 0.161056
v 0.184278 0.042389 -0.161056
v 0.195138 0.033122 -0.165220
v 0.165204 0.033122 -0.195153
v 0.161043 0.042390 -0.184291
v -0.161018 0.042390 -0.184291
v -0.165179 0.033122 -0.195153
v -0.195113 0.033122 -0.165219
v -0.184253 0.042389 -0.161056
v 0.184585 0.042804 0.008534
v 0.194684 0.032768 0.008534
v 0.194684 0.032768 -0.008577
v 0.184585 0.042804 -0.008581
v -0.008524 0.042804 0.184596
v -0.008524 0.032768 0.194698
v 0.008588 0.032768 0.194698
v 0.008592 0.042804 0.184596
v 0.008594 0.042804 -0.184596
v 0.008590 0.032768 -0.194698
v -0.008522 0.032768 -0.194698
v -0.008522 0.042804 -0.184596
v -0.184562 0.042804 -0.008581
v -0.194661 0.032768 -0.008577
v -0.194662 0.032768 0.008534
v -0.184562 0.042804 0.008534
vn -1.0000 -0.0000 -0.0000
vn 1.0000 -0.0000 -0.0000
vn -0.0000 -0.0000 -1.0000
vn -0.7071 -0.0000 -0.7071
vn -0.0000 1.0000 -0.0000
vn -0.0000 -1.0000 -0.0000
vn 0.7071 -0.0000 -0.7071
vn 0.7071 -0.0000 0.7071
vn -0.0000 -0.0000 1.0000
vn -0.7071 -0.0000 0.7071
vn -0.5000 0.7071 0.5000
vn -0.5000 0.7071 -0.5000
vn 0.5000 0.7071 -0.5000
vn 0.5000 0.7071 0.5000
vn -0.0000 0.7071 0.7071
vn -0.7071 0.7071 -0.0000
vn 0.7071 0.7071 -0.0000
vn -0.0000 0.7071 -0.7071
vn 0.5060 0.8626 -0.0000
vn -0.0000 0.8626 -0.5059
vn -0.0000 0.8626 0.5059
vn 1.0000 -0.0002 -0.0002
vn 0.0005 0.6447 -0.7645
vn 1.0000 -0.0002 0.0002
vn -0.0000 -0.6437 0.7652
vn -0.0005 0.6447 -0.7645
vn 0.0002 -0.0002 -1.0000
vn -0.7644 0.6447 -0.0005
vn 0.7652 -0.6438 -0.0000
vn -0.5060 0.8626 -0.0000
vn -0.5618 -0.6073 -0.5618
vn -0.7644 0.6447 0.0005
vn 0.0001 -1.0000 -0.0000
vn -0.0001 -1.0000 -0.0000
vn -1.0000 0.0001 0.0002
vn -1.0000 -0.0000 0.0001
vn 0.0001 -0.0001 1.0000
vn 0.9997 -0.0050 -0.0242
vn 0.0001 -0.0002 -1.0000
vn 0.0007 0.0023 1.0000
vn -0.0007 0.0023 1.0000
vn -1.0000 -0.0001 0.0001
vn 1.0000 -0.0002 0.0001
vn -0.0002 0.0002 1.0000
vn -0.0038 -0.0003 1.0000
vn 0.0002 0.0002 1.0000
vn -1.0000 -0.0003 -0.0038
vn 0.0129 -0.0011 -0.9999
vn 0.9999 -0.0012 0.0100
vn -0.6642 0.6615 0.3483
vn 0.0002 0.0001 1.0000
vn -0.0003 0.0001 1.0000
vn -0.9991 0.0078 -0.0421
vn -0.1396 0.9669 0.2138
vn -0.2738 0.9592 0.0707
vn 0.9991 0.0078 -0.0421
vn -0.0001 -1.0000 0.0001
vn 0.7048 0.7094 0.0002
vn 1.0000 -0.0003 -0.0001
vn -0.0001 -1.0000 -0.0001
vn -0.0002 0.7094 0.7048
vn 0.0001 -0.0003 1.0000
vn 0.0001 -0.0003 -1.0000
vn -0.0002 0.7094 -0.7048
vn 0.0001 -1.0000 0.0001
vn -0.7048 0.7094 0.0002
vn -1.0000 -0.0003 -0.0001
vn 0.0002 1.0000 -0.0000
vn -0.0000 1.0000 -0.0002
vn 0.0242 -0.0050 -0.9997
vn -1.0000 0.0002 -0.0002
vn 0.0038 -0.0003 1.0000
vn -0.0001 -0.0000 1.0000
vn -1.0000 0.0023 0.0007
vn -0.0008 -0.0007 -1.0000
vn 0.6642 0.6615 0.3483
vn -1.0000 0.0024 -0.0007
vn -1.0000 -0.0001 -0.0001
vn -0.0387 -0.0194 -0.9991
vn 0.9997 -0.0050 0.0242
vn -1.0000 -0.0000 -0.0002
vn 1.0000 -0.0002 -0.0001
vn -0.0001 -0.0001 1.0000
vn 0.0001 -0.0000 1.0000
vn -1.0000 0.0001 -0.0002
vn -1.0000 -0.0003 0.0038
vn -0.0001 -0.0002 -1.0000
vn -0.0242 -0.0050 -0.9997
vn 0.9999 -0.0012 -0.0100
vn -1.0000 0.0002 0.0002
vn -0.5380 0.6490 0.5380
vn 0.5380 0.6490 0.5380
vn 0.5380 0.6490 -0.5380
vn -0.5380 0.6490 -0.5380
vn 0.7048 0.7094 -0.0000
vn -0.0000 0.7094 0.7048
vn -0.0000 0.7094 -0.7048
vn -0.7048 0.7094 -0.0000
vn -0.0017 0.6807 0.7325
vn -0.7326 0.6807 0.0017
vn 0.7326 0.6807 0.0017
vn -0.0017 0.6807 -0.7325
vn 0.7329 0.6803 -0.0017
vn 0.7326 0.6807 -0.0018
vn 0.7329 0.6803 0.0017
vn 0.0017 0.6804 0.7329
vn 0.0017 0.6807 0.7325
vn -0.0017 0.6804 0.7329
vn 0.0017 0.6807 -0.7325
vn -0.0017 0.6804 -0.7329
vn 0.0017 0.6804 -0.7329
vn -0.7326 0.6807 -0.0018
vn -0.7329 0.6803 0.0017
vn -0.7329 0.6803 -0.0017
vn -0.0002 0.7356 0.6774
vn 0.6774 0.7356 -0.0002
vn 0.6774 0.7356 0.0002
vn -0.4648 0.7536 0.4648
vn 0.4648 0.7536 0.4648
vn 0.4648 0.7536 -0.4648
vn -0.4648 0.7536 -0.4648
vn -0.6774 0.7356 -0.0002
vn 0.0002 0.7356 -0.6774
vn 0.0002 0.7356 0.6774
vn -0.0002 0.7356 -0.6774
vn -0.6774 0.7356 0.0002
vn -0.0000 -0.6437 -0.7652
vn 0.5626 0.6058 -0.5626
vn 0.0005 0.6446 0.7645
vn -0.0002 -0.0002 -1.0000
vn -0.5618 -0.6073 0.5618
vn -0.0005 0.6446 0.7645
vn -0.5626 0.6058 -0.5626
vn -0.7652 -0.6438 -0.0001
vn 0.5618 -0.6073 0.5618
vn 0.7644 0.6447 -0.0005
vn -0.7652 -0.6438 -0.0000
vn -0.5626 0.6058 0.5626
vn 0.7644 0.6447 0.0005
vn 0.5618 -0.6073 -0.5618
vn 0.5626 0.6058 0.5626
vt 0.615171 0.125000
vt 0.622874 0.125000
vt 0.622874 0.231986
vt 0.615171 0.231986
vt 0.615171 0.625000
vt 0.622874 0.625000
vt 0.622874 0.731986
vt 0.615171 0.731986
vt 0.615171 0.375000
vt 0.622874 0.375000
vt 0.622874 0.481986
vt 0.615171 0.481986
vt 0.622874 0.268014
vt 0.615171 0.268014
vt 0.615171 0.231986
vt 0.639138 0.523870
vt 0.648870 0.514138
vt 0.750000 0.514138
vt 0.851130 0.514138
vt 0.860862 0.523870
vt 0.860862 0.625000
vt 0.860862 0.726130
vt 0.851130 0.735862
vt 0.750000 0.735862
vt 0.648870 0.735862
vt 0.639138 0.726130
vt 0.639138 0.625000
vt 0.610225 0.625000
vt 0.610225 0.588978
vt 0.610225 0.497405
vt 0.610225 0.518014
vt 0.622874 0.518014
vt 0.615171 0.518014
vt 0.615171 0.481986
vt 0.622874 0.768014
vt 0.615171 0.768014
vt 0.615171 0.731986
vt 0.622874 0.731986
vt 0.615171 0.875000
vt 0.622874 0.875000
vt 0.622874 0.981986
vt 0.615171 0.981986
vt 0.612954 0.230065
vt 0.611186 0.230065
vt 0.611186 0.125000
vt 0.611186 0.019935
vt 0.612954 0.019935
vt 0.613915 0.268014
vt 0.610225 0.268014
vt 0.610225 0.231986
vt 0.613915 0.231986
vt 0.613915 0.518014
vt 0.610225 0.481986
vt 0.613915 0.481986
vt 0.613915 0.768014
vt 0.610225 0.768014
vt 0.610225 0.731986
vt 0.613915 0.731986
vt 0.611186 0.625000
vt 0.611186 0.519935
vt 0.613915 0.625000
vt 0.613915 0.518014
vt 0.613915 0.375000
vt 0.613915 0.268014
vt 0.610225 0.000000
vt 0.613915 0.000000
vt 0.613915 0.018014
vt 0.610225 0.018014
vt 0.615171 0.000000
vt 0.615171 0.018014
vt 0.613915 0.875000
vt 0.613915 0.768014
vt 0.615171 0.768014
vt 0.613915 0.125000
vt 0.613915 0.018014
vt 0.615171 0.018014
vt 0.615171 0.268014
vt 0.615171 0.518014
vt 0.611186 0.875000
vt 0.611186 0.980065
vt 0.610225 0.981986
vt 0.610225 0.875000
vt 0.611186 0.730065
vt 0.610225 0.125000
vt 0.611186 0.375000
vt 0.611186 0.480065
vt 0.610225 0.375000
vt 0.612954 0.875000
vt 0.612954 0.769935
vt 0.612954 0.125000
vt 0.612954 0.375000
vt 0.612954 0.269935
vt 0.612954 0.625000
vt 0.612954 0.519935
vt 0.612954 0.980065
vt 0.613915 0.981986
vt 0.613915 0.231986
vt 0.611186 0.769935
vt 0.611186 0.269935
vt 0.612954 0.480065
vt 0.613915 0.481986
vt 0.612954 0.730065
vt 0.613915 0.731986
vt 0.612687 0.229530
vt 0.611454 0.229530
vt 0.611454 0.125000
vt 0.611453 0.020470
vt 0.612687 0.020470
vt 0.611454 0.625000
vt 0.611453 0.520470
vt 0.611454 0.875000
vt 0.611454 0.979530
vt 0.611454 0.729530
vt 0.611454 0.375000
vt 0.611454 0.479530
vt 0.612687 0.875000
vt 0.612687 0.770470
vt 0.612687 0.125000
vt 0.612687 0.375000
vt 0.612687 0.270470
vt 0.612687 0.625000
vt 0.612687 0.520470
vt 0.612687 0.979530
vt 0.611453 0.770470
vt 0.611453 0.270470
vt 0.612687 0.479530
vt 0.612687 0.729530
vt 0.855226 0.745749
vt 0.870749 0.730225
vt 0.875000 0.731986
vt 0.856986 0.750000
vt 0.870749 0.519775
vt 0.855225 0.504251
vt 0.856986 0.500000
vt 0.875000 0.518014
vt 0.644775 0.504251
vt 0.629251 0.519774
vt 0.625000 0.518014
vt 0.643014 0.500000
vt 0.629251 0.730225
vt 0.644775 0.745749
vt 0.643014 0.750000
vt 0.625000 0.731986
vt 0.750000 0.745749
vt 0.750000 0.750000
vt 0.870749 0.625000
vt 0.875000 0.625000
vt 0.629251 0.625000
vt 0.750000 0.500000
vt 0.750000 0.504251
vt 0.622874 0.000000
vt 0.622874 0.018014
vt 0.750000 0.506409
vt 0.854331 0.506409
vt 0.636980 0.625000
vt 0.636980 0.727024
vt 0.631409 0.625000
vt 0.631409 0.520668
vt 0.863020 0.625000
vt 0.863020 0.522976
vt 0.868591 0.625000
vt 0.868591 0.729331
vt 0.750000 0.738020
vt 0.852024 0.738020
vt 0.750000 0.738020
vt 0.750000 0.743591
vt 0.645669 0.743591
vt 0.647976 0.738020
vt 0.854332 0.743591
vt 0.868591 0.520669
vt 0.645669 0.506409
vt 0.631409 0.729332
vt 0.863020 0.727024
vt 0.852024 0.511980
vt 0.636980 0.522976
vt 0.647976 0.511980
vt 0.750000 0.511980
vt 0.610225 0.018014
vt 0.610225 0.069473
vt 0.610225 0.054041
vt 0.610225 0.375006
vt 0.610225 0.252607
vt 0.610225 0.337468
vt 0.610225 0.333303
vt 0.610225 0.331521
vt 0.610225 0.161040
vt 0.610225 0.695959
vt 0.610225 0.680551
vt 0.610225 0.231986
vt 0.610225 0.375000
vt 0.610225 0.375012
vt 0.610225 0.373161
vt 0.610225 0.328797
vt 0.610225 0.373158
vt 0.610225 0.417060
vt 0.610225 0.421223
vt 0.610225 0.417060
vt 0.610225 0.376490
vt 0.610225 0.412550
vt 0.610225 0.376492
vt 0.610225 0.333303
vt 0.610225 0.416800
vt 0.610225 0.416800
vt 0.610225 0.416715
vt 0.610225 0.416800
vt 0.610225 0.373504
vt 0.610225 0.374252
vt 0.610225 0.376835
vt 0.610225 0.375927
vt 0.610225 0.374252
vt 0.610225 0.374245
vt 0.610225 0.375927
vt 0.610225 0.375932
vt 0.610225 0.333045
vt 0.610225 0.333044
vt 0.610225 0.333043
vt 0.610225 0.333132
vt 0.610225 0.333085
vt 0.610225 0.329252
vt 0.610225 0.328797
vt 0.610225 0.406397
vt 0.610225 0.413260
vt 0.610225 0.416886
vt 0.610225 0.420512
vt 0.610225 0.413649
vt 0.610225 0.375010
vt 0.610225 0.336370
vt 0.610225 0.329507
vt 0.610225 0.333132
vt 0.610225 0.336757
vt 0.610225 0.343620
vt 0.610225 0.375009
vt 0.610225 0.416933
vt 0.610225 0.416886
vt 0.610225 0.416975
vt 0.610225 0.421223
vt 0.610225 0.420767
vt 0.610225 0.374238
vt 0.610225 0.375009
vt 0.610225 0.374601
vt 0.610225 0.341413
vt 0.610225 0.374508
vt 0.610225 0.375010
vt 0.610225 0.374061
vt 0.610225 0.333653
vt 0.610225 0.343620
vt 0.610225 0.343620
vt 0.610225 0.416715
vt 0.610225 0.416715
vt 0.610225 0.413005
vt 0.610225 0.341413
vt 0.610225 0.337467
vt 0.610225 0.337468
vt 0.610225 0.374563
vt 0.610225 0.336370
vt 0.610225 0.374556
vt 0.610225 0.376683
vt 0.610225 0.376753
vt 0.610225 0.420512
vt 0.610225 0.420512
vt 0.610225 0.375010
vt 0.610225 0.416928
vt 0.610225 0.416929
vt 0.610225 0.336757
vt 0.610225 0.343620
vt 0.610225 0.377071
vt 0.610225 0.414322
vt 0.610225 0.333175
vt 0.610225 0.333175
vt 0.610225 0.377157
vt 0.610225 0.416367
vt 0.610225 0.415694
vt 0.610225 0.372959
vt 0.610225 0.372875
vt 0.610225 0.335698
vt 0.610225 0.416685
vt 0.610225 0.416693
vt 0.610225 0.375928
vt 0.610225 0.375524
vt 0.610225 0.421223
vt 0.610225 0.413197
vt 0.610225 0.416800
vt 0.610225 0.416838
vt 0.610225 0.417079
vt 0.610225 0.417087
vt 0.610225 0.329252
vt 0.610225 0.413260
vt 0.610225 0.406397
vt 0.610225 0.416886
vt 0.610225 0.333132
vt 0.610225 0.374646
vt 0.610225 0.374640
vt 0.610225 0.375379
vt 0.610225 0.375385
vt 0.610225 0.333180
vt 0.610225 0.333218
vt 0.610225 0.337012
vt 0.610225 0.413069
vt 0.610225 0.375426
vt 0.610225 0.375755
vt 0.610225 0.408605
vt 0.610225 0.375465
vt 0.610225 0.375472
vt 0.610225 0.416844
vt 0.610225 0.416843
vt 0.610225 0.333090
vt 0.610225 0.333089
vt 0.610225 0.374078
vt 0.610225 0.374070
vt 0.610225 0.374078
vt 0.610225 0.373161
vt 0.610225 0.376834
vt 0.610225 0.333218
vt 0.610225 0.333219
vt 0.610225 0.332958
vt 0.610225 0.333045
vt 0.610225 0.332959
vt 0.610225 0.416974
vt 0.610225 0.416975
vt 0.610225 0.418498
vt 0.610225 0.416974
vt 0.610225 0.418498
vt 0.610225 0.375754
vt 0.610225 0.375758
vt 0.610225 0.376490
vt 0.610225 0.373506
vt 0.610225 0.416929
vt 0.610225 0.416843
vt 0.610225 0.416844
vt 0.610225 0.416844
vt 0.610225 0.416928
vt 0.610225 0.375466
vt 0.610225 0.374563
vt 0.610225 0.374563
vt 0.610225 0.374640
vt 0.610225 0.375379
vt 0.610225 0.375379
vt 0.610225 0.375384
vt 0.610225 0.374646
vt 0.610225 0.333089
vt 0.610225 0.333090
vt 0.610225 0.333175
vt 0.610225 0.333175
vt 0.610225 0.336949
vt 0.610225 0.341959
vt 0.610225 0.373504
vt 0.610225 0.332959
vt 0.610225 0.332958
vt 0.610225 0.420576
vt 0.610225 0.376834
vt 0.610225 0.416715
vt 0.610225 0.416928
vt 0.610225 0.374563
vt 0.610225 0.375379
vt 0.610225 0.333175
vt 0.610225 0.376834
vt 0.610225 0.416844
vt 0.610225 0.333180
vt 0.610225 0.333175
vt 0.610225 0.416933
vt 0.610225 0.374070
vt 0.610225 0.333219
vt 0.610225 0.374245
vt 0.610225 0.375524
vt 0.610225 0.329444
vt 0.610225 0.329315
vt 0.610225 0.334325
vt 0.610225 0.335139
vt 0.610225 0.330738
vt 0.610225 0.420704
vt 0.610225 0.406943
vt 0.610225 0.408058
vt 0.610225 0.407629
vt 0.610225 0.412029
vt 0.610225 0.336820
vt 0.610225 0.343074
vt 0.610225 0.373343
vt 0.610225 0.373274
vt 0.610225 0.333333
vt 0.610225 0.333325
vt 0.610225 0.332940
vt 0.610225 0.332932
s 0
usemtl M_Blanc
f 264/1/1 276/2/1 111/3/1 14/4/1
f 285/5/2 296/6/2 115/7/2 22/8/2
f 306/9/3 317/10/3 119/11/3 18/12/3
f 110/13/4 15/14/4 14/15/4 111/3/4
f 142/16/5 141/17/5 319/18/5 140/19/5 139/20/5 277/21/5 138/22/5 137/23/5 256/24/5 144/25/5 143/26/5 298/27/5
f 118/32/7 19/33/7 18/34/7 119/11/7
f 114/35/8 23/36/8 22/37/8 115/38/8
f 243/39/9 255/40/9 107/41/9 12/42/9
f 306/9/6 18/12/6 34/12/6 308/9/6
f 22/37/6 23/36/6 39/36/6 38/37/6
f 14/15/6 15/14/6 31/14/6 30/15/6
f 264/1/6 14/4/6 30/4/6 266/1/6
f 285/5/6 22/8/6 38/8/6 287/5/6
f 18/34/6 19/33/6 35/33/6 34/34/6
f 243/39/6 12/42/6 28/42/6 245/39/6
f 12/69/6 9/70/6 25/70/6 28/69/6
f 129/128/11 130/129/11 106/130/11 107/131/11
f 131/132/12 132/133/12 110/134/12 111/135/12
f 133/136/13 134/137/13 118/138/13 119/139/13
f 135/140/14 136/141/14 114/142/14 115/143/14
f 254/144/15 129/128/15 107/131/15 255/145/15
f 275/146/16 131/132/16 111/135/16 276/147/16
f 296/6/17 118/32/17 134/137/17 297/148/17
f 317/149/18 110/134/18 132/133/18 318/150/18
f 12/69/10 107/151/10 106/152/10 9/70/10
f 320/153/9 124/154/9 152/154/9 322/153/9
f 300/155/2 116/156/2 158/156/2 302/155/2
f 299/157/1 126/158/1 156/158/1 301/157/1
f 279/159/1 112/160/1 150/160/1 281/159/1
f 278/161/2 122/162/2 148/162/2 280/161/2
f 258/163/9 108/164/9 146/164/9 260/165/9
f 257/166/3 128/167/3 160/167/3 259/166/3
f 116/156/8 113/168/8 159/168/8 158/156/8
f 121/169/5 122/162/5 130/129/5 129/128/5
f 123/170/5 124/154/5 132/133/5 131/132/5
f 125/171/5 126/158/5 134/137/5 133/136/5
f 127/172/5 128/167/5 136/141/5 135/140/5
f 257/166/5 121/169/5 129/128/5 254/144/5
f 278/161/5 123/170/5 131/132/5 275/146/5
f 299/157/5 127/172/5 135/140/5 297/148/5
f 320/153/5 125/171/5 133/136/5 318/150/5
f 105/173/5 108/164/5 137/23/5 138/22/5
f 109/174/5 112/160/5 139/20/5 140/19/5
f 117/175/5 120/176/5 141/17/5 142/16/5
f 113/168/5 116/156/5 143/26/5 144/25/5
f 258/163/5 113/168/5 144/25/5 256/24/5
f 279/159/5 105/173/5 138/22/5 277/21/5
f 300/155/5 117/175/5 142/16/5 298/27/5
f 321/177/5 109/174/5 140/19/5 319/18/5
f 122/162/7 121/169/7 145/169/7 148/162/7
f 321/177/3 120/176/3 154/176/3 323/177/3
f 108/164/10 105/173/10 147/173/10 146/164/10
f 124/154/8 123/170/8 149/170/8 152/154/8
f 112/160/4 109/174/4 151/174/4 150/160/4
f 126/158/10 125/171/10 153/171/10 156/158/10
f 120/176/7 117/175/7 155/175/7 154/176/7
f 128/167/4 127/172/4 157/172/4 160/167/4
f 337/192/9 164/193/9 169/193/9 341/194/9
f 353/195/2 161/196/2 170/196/2 356/197/2
f 361/198/3 162/199/3 171/199/3 365/200/3
f 345/184/1 163/183/1 172/183/1 349/201/1
f 175/199/2 358/202/2 405/203/2 179/199/2
f 171/199/19 357/204/19 358/205/19 175/199/19
f 172/183/20 364/206/20 367/207/20 176/183/20
f 170/196/21 340/208/21 342/209/21 174/196/21
f 176/183/3 367/210/3 451/211/3 180/183/3
f 174/196/9 342/212/9 406/213/9 177/196/9
f 173/193/1 350/214/1 352/215/1 178/193/1
f 178/193/5 352/216/5 407/217/5 517/218/5 193/219/5 181/220/5
f 502/233/5 360/234/5 443/235/5 177/196/5 182/236/5 200/237/5
f 180/183/5 451/238/5 452/239/5 513/240/5 205/241/5 184/183/5
f 506/242/5 344/243/5 427/244/5 178/193/5 181/193/5 196/245/5
f 220/230/4 499/230/4 206/246/4 210/247/4
f 162/199/2 354/248/2 357/249/2 171/199/2
f 201/250/5 204/199/5 183/199/5
f 205/251/5 208/252/5 184/253/5
f 382/254/6 222/255/6 238/255/6 384/256/6
f 389/257/22 387/258/22 542/258/22 543/257/22
f 194/228/10 224/228/10 222/255/10 487/255/10
f 373/262/6 215/260/6 229/260/6 375/263/6
f 380/266/23 490/267/23 523/267/23 540/266/23
f 400/268/6 220/230/6 234/230/6 402/269/6
f 377/270/24 380/266/24 540/266/24 541/270/24
f 197/271/5 200/236/5 182/236/5
f 493/272/25 377/270/25 541/270/25 522/272/25
f 379/273/1 378/274/1 538/274/1 539/273/1
f 195/275/26 379/273/26 539/273/26 520/275/26
f 368/276/27 371/277/27 536/277/27 537/276/27
f 177/196/5 406/278/5 509/279/5 197/271/5 182/280/5
f 371/277/28 494/281/28 527/281/28 536/277/28
f 179/199/5 405/282/5 505/283/5 201/250/5 183/199/5
f 370/284/9 369/285/9 534/285/9 535/284/9
f 193/286/5 196/193/5 181/193/5
f 202/287/7 214/287/7 211/221/7 495/221/7
f 215/260/8 491/260/8 198/225/8 218/225/8
f 220/230/6 210/247/6 228/247/6 234/230/6
f 222/255/6 224/228/6 236/228/6 238/255/6
f 210/265/6 391/291/6 392/292/6 228/265/6
f 211/221/6 214/287/6 232/287/6 225/221/6
f 390/293/6 211/221/6 225/221/6 393/294/6
f 514/295/5 408/296/5 180/183/5 184/253/5 208/297/5
f 497/298/29 368/276/29 537/276/29 526/298/29
f 510/299/5 404/300/5 179/199/5 183/199/5 204/301/5
f 218/225/6 381/302/6 383/303/6 240/225/6
f 214/287/6 372/304/6 374/305/6 232/287/6
f 215/260/6 218/225/6 240/225/6 229/260/6
f 224/228/6 399/306/6 401/307/6 236/228/6
f 343/308/9 173/193/9 178/193/9 427/309/9
f 341/194/21 169/193/21 173/193/21 343/310/21
f 108/164/5 258/163/5 256/24/5 137/23/5
f 128/167/5 257/166/5 254/144/5 136/141/5
f 121/169/3 257/166/3 259/166/3 145/169/3
f 113/168/9 258/163/9 260/165/9 159/168/9
f 136/141/15 254/144/15 255/145/15 114/142/15
f 23/73/6 243/39/6 245/39/6 39/73/6
f 23/73/9 114/35/9 255/40/9 243/39/9
f 351/313/1 176/183/1 180/183/1 408/314/1
f 349/201/30 172/183/30 176/183/30 351/313/30
f 169/193/30 348/315/30 350/316/30 173/193/30
f 112/160/5 279/159/5 277/21/5 139/20/5
f 122/162/5 278/161/5 275/146/5 130/129/5
f 123/170/2 278/161/2 280/161/2 149/170/2
f 105/173/1 279/159/1 281/159/1 147/173/1
f 130/129/16 275/146/16 276/147/16 106/130/16
f 9/76/6 264/1/6 266/1/6 25/76/6
f 9/76/1 106/152/1 276/2/1 264/1/1
f 359/318/2 174/196/2 177/196/2 443/319/2
f 356/197/19 170/196/19 174/196/19 359/321/19
f 116/156/5 300/155/5 298/27/5 143/26/5
f 126/158/5 299/157/5 297/148/5 134/137/5
f 127/172/1 299/157/1 301/157/1 157/172/1
f 117/175/2 300/155/2 302/155/2 155/175/2
f 115/7/17 296/6/17 297/148/17 135/140/17
f 19/78/6 285/5/6 287/5/6 35/78/6
f 19/78/2 118/32/2 296/6/2 285/5/2
f 365/200/20 171/199/20 175/199/20 366/323/20
f 366/323/3 175/199/3 179/199/3 404/324/3
f 109/174/3 321/177/3 323/177/3 151/174/3
f 120/176/5 321/177/5 319/18/5 141/17/5
f 124/154/5 320/153/5 318/150/5 132/133/5
f 125/171/9 320/153/9 322/153/9 153/171/9
f 119/139/18 317/149/18 318/150/18 133/136/18
f 15/77/6 306/9/6 308/9/6 31/77/6
f 15/77/3 110/13/3 317/10/3 306/9/3
f 202/287/2 504/329/2 372/330/2 214/287/2
f 503/331/2 491/260/2 215/260/2 373/262/2
f 198/225/9 508/332/9 381/302/9 218/225/9
f 507/333/9 487/255/9 222/255/9 382/334/9
f 511/336/3 495/221/3 211/221/3 390/337/3
f 206/265/3 512/339/3 391/291/3 210/265/3
f 194/228/1 516/341/1 399/306/1 224/228/1
f 515/342/1 499/230/1 220/230/1 400/343/1
f 500/344/31 501/345/31 530/345/31 533/344/31
f 163/183/3 362/326/3 364/346/3 172/183/3
f 164/193/1 346/347/1 348/348/1 169/193/1
f 199/349/32 370/284/32 535/284/32 524/349/32
f 337/192/6 338/350/6 339/226/6
f 345/184/33 346/347/33 347/185/33
f 353/195/34 354/351/34 355/322/34
f 361/198/6 362/326/6 363/239/6
f 383/303/35 381/302/35 465/302/35 419/303/35
f 404/300/36 510/299/36 476/299/36 449/300/36
f 362/326/6 361/198/6 415/198/6 416/326/6
f 358/205/37 357/204/37 448/204/37 445/205/37
f 382/254/2 384/256/2 420/256/2 466/254/2
f 513/240/38 452/239/38 450/239/38 475/240/38
f 340/208/1 338/356/1 410/356/1 430/208/1
f 356/197/39 359/321/39 446/321/39 447/197/39
f 399/306/3 516/341/3 482/341/3 477/306/3
f 337/192/2 341/194/2 431/194/2 409/192/2
f 357/249/9 354/248/9 414/248/9 448/249/9
f 372/330/40 504/329/40 464/329/40 459/330/40
f 515/342/41 400/343/41 478/343/41 481/342/41
f 354/351/6 353/195/6 413/195/6 414/351/6
f 342/209/42 340/208/42 430/208/42 428/209/42
f 503/331/3 373/262/3 460/262/3 463/331/3
f 516/341/3 517/218/3 479/218/3 482/341/3
f 341/194/43 343/310/43 429/310/43 431/194/43
f 353/195/3 356/197/3 447/197/3 413/195/3
f 504/357/44 505/283/44 461/283/44 464/357/44
f 405/203/45 358/202/45 445/202/45 441/203/45
f 514/358/46 515/359/46 481/359/46 480/358/46
f 346/347/6 345/184/6 411/184/6 412/347/6
f 406/213/47 342/212/47 428/212/47 425/213/47
f 359/318/48 443/319/48 442/319/48 446/318/48
f 502/360/3 503/331/3 463/331/3 462/360/3
f 343/308/49 427/309/49 426/309/49 429/308/49
f 401/307/3 399/306/3 477/306/3 423/307/3
f 360/234/50 405/203/50 441/203/50 444/234/50
f 374/305/51 372/304/51 459/304/51 417/305/51
f 400/268/52 402/269/52 424/269/52 478/268/52
f 338/350/6 337/192/6 409/192/6 410/350/6
f 344/243/5 406/213/5 425/213/5
f 373/262/3 375/263/3 418/263/3 460/262/3
f 512/291/2 513/240/2 475/240/2 471/291/2
f 161/196/9 338/356/9 340/208/9 170/196/9
f 407/217/2 352/216/2 433/216/2 434/217/2
f 443/235/1 360/234/1 444/234/1
f 452/239/9 451/238/9 450/239/9
f 506/242/2 507/333/2 469/333/2 468/242/2
f 407/217/1 408/296/1 432/296/1 434/217/1
f 405/282/2 360/234/2 444/234/2 483/282/2
f 452/239/3 404/300/3 449/300/3
f 360/234/70 502/233/70 462/233/70 444/234/70
f 508/332/71 509/364/71 467/364/71 470/332/71
f 351/313/72 408/314/72 437/314/72 436/313/72
f 505/283/73 405/282/73 483/282/73 461/283/73
f 507/333/2 382/334/2 466/334/2 469/333/2
f 404/324/5 452/239/5 454/324/5
f 427/244/3 344/243/3 484/243/3
f 381/302/74 508/332/74 470/332/74 465/302/74
f 352/215/75 350/214/75 435/214/75 438/215/75
f 408/362/76 407/217/76 434/217/76 437/362/76
f 406/278/9 344/243/9 485/278/9
f 511/336/77 390/337/77 473/337/77 472/336/77
f 365/200/78 366/323/78 457/323/78 456/200/78
f 352/215/79 438/215/79 433/216/79
f 344/243/80 506/242/80 468/242/80 484/243/80
f 509/279/81 406/278/81 485/278/81 467/279/81
f 391/291/2 512/339/2 471/339/2 474/291/2
f 367/207/82 364/206/82 455/206/82 458/207/82
f 349/201/83 351/313/83 436/313/83 440/201/83
f 408/296/84 514/295/84 480/295/84 432/296/84
f 390/293/85 393/294/85 422/294/85 473/293/85
f 366/323/86 404/324/86 454/324/86 457/323/86
f 350/316/87 348/315/87 439/315/87 435/316/87
f 517/218/88 407/217/88 434/217/88 479/218/88
f 392/292/2 391/291/2 474/291/2 421/292/2
f 451/211/89 367/210/89 458/210/89 453/211/89
f 345/184/9 349/201/9 440/201/9 411/184/9
f 361/198/1 365/200/1 456/200/1 415/198/1
f 348/348/3 346/347/3 412/347/3 439/348/3
f 510/299/90 511/336/90 472/336/90 476/299/90
f 364/346/2 362/326/2 416/326/2 455/346/2
f 195/275/91 486/365/91 194/228/91 487/255/91
f 489/366/91 488/367/91 196/368/91 193/369/91
f 199/349/92 490/267/92 198/225/92 491/260/92
f 493/272/92 492/370/92 200/236/92 197/271/92
f 203/371/93 494/281/93 202/287/93 495/221/93
f 497/298/93 496/372/93 204/373/93 201/374/93
f 207/375/94 498/376/94 206/246/94 499/230/94
f 501/345/94 500/344/94 208/252/94 205/251/94
f 369/285/95 370/284/95 503/331/95 502/360/95
f 371/277/95 368/276/95 505/283/95 504/357/95
f 378/274/96 379/273/96 507/333/96 506/242/96
f 380/266/96 377/270/96 509/364/96 508/332/96
f 387/258/97 389/257/97 511/336/97 510/299/97
f 388/377/97 386/378/97 513/240/97 512/291/97
f 396/379/98 397/380/98 515/359/98 514/358/98
f 398/381/98 395/382/98 517/218/98 516/341/98
f 488/367/99 378/274/99 506/242/99 196/245/99
f 395/382/100 489/366/100 193/219/100 517/218/100
f 492/370/101 369/285/101 502/360/101 200/237/101
f 386/378/102 501/345/102 205/241/102 513/240/102
f 370/284/103 199/349/103 491/260/103 503/331/103
f 368/276/104 497/298/104 201/250/104 505/283/104
f 494/281/105 371/277/105 504/357/105 202/287/105
f 379/273/106 195/275/106 487/255/106 507/333/106
f 377/270/107 493/272/107 197/271/107 509/364/107
f 490/267/108 380/266/108 508/332/108 198/225/108
f 496/372/109 387/258/109 510/299/109 204/301/109
f 389/257/110 203/371/110 495/221/110 511/336/110
f 498/376/111 388/377/111 512/291/111 206/265/111
f 500/344/112 396/379/112 514/358/112 208/297/112
f 397/380/113 207/375/113 499/230/113 515/359/113
f 486/365/114 398/381/114 516/341/114 194/228/114
f 387/258/127 496/372/127 529/372/127 542/258/127
f 386/378/1 388/377/1 544/377/1 545/378/1
f 486/365/128 195/275/128 520/275/128 519/365/128
f 203/371/129 389/257/129 543/257/129 528/371/129
f 397/380/130 396/379/130 546/379/130 547/380/130
f 488/367/131 489/366/131 518/366/131 521/367/131
f 388/377/132 498/376/132 531/376/132 544/377/132
f 395/382/9 398/381/9 548/381/9 549/382/9
f 490/267/133 199/349/133 524/349/133 523/267/133
f 396/379/134 500/344/134 533/344/134 546/379/134
f 378/274/25 488/367/25 521/367/25 538/274/25
f 492/370/135 493/272/135 522/272/135 525/370/135
f 207/375/136 397/380/136 547/380/136 532/375/136
f 489/366/137 395/382/137 549/382/137 518/366/137
f 494/281/138 203/371/138 528/371/138 527/281/138
f 398/381/139 486/365/139 519/365/139 548/381/139
f 369/285/29 492/370/29 525/370/29 534/285/29
f 496/372/140 497/298/140 526/298/140 529/372/140
f 501/345/127 386/378/127 545/378/127 530/345/127
f 498/376/141 207/375/141 532/375/141 531/376/141
usemtl M_Noir_Profond
f 26/67/10 27/66/10 28/69/10 25/70/10
f 30/15/4 31/14/4 32/48/4 29/51/4
f 34/34/7 35/33/7 36/52/7 33/54/7
f 38/37/8 39/36/8 40/55/8 37/58/8
f 244/71/9 40/72/9 39/73/9 245/39/9
f 265/74/1 26/75/1 25/76/1 266/1/1
f 307/63/3 32/64/3 31/77/3 308/9/3
f 286/61/2 36/62/2 35/78/2 287/5/2
f 67/104/9 62/105/9 94/105/9 99/104/9
f 271/106/5 61/107/5 93/107/5 273/106/5
f 61/107/3 68/108/3 100/108/3 93/107/3
f 292/109/5 59/110/5 91/110/5 294/109/5
f 250/111/9 57/112/9 73/80/9 248/79/9
f 292/109/2 60/113/2 76/83/2 290/59/2
f 271/106/1 62/105/1 78/44/1 269/45/1
f 313/114/3 64/115/3 80/86/3 311/85/3
f 251/116/9 66/117/9 82/89/9 249/88/9
f 272/118/1 68/108/1 84/47/1 270/90/1
f 314/119/3 70/120/3 86/92/3 312/91/3
f 293/121/2 72/122/2 88/94/2 291/93/2
f 57/112/9 65/123/9 81/95/9 73/80/9
f 68/108/1 61/107/1 77/46/1 84/47/1
f 62/105/1 67/104/1 83/43/1 78/44/1
f 66/117/9 58/124/9 74/98/9 82/89/9
f 70/120/3 63/125/3 79/99/3 86/92/3
f 64/115/3 69/126/3 85/100/3 80/86/3
f 72/122/2 59/110/2 75/60/2 88/94/2
f 60/113/2 71/127/2 87/102/2 76/83/2
f 313/114/5 63/125/5 95/125/5 315/114/5
f 58/124/1 66/117/1 98/117/1 90/124/1
f 251/116/6 65/123/6 97/123/6 253/116/6
f 63/125/2 70/120/2 102/120/2 95/125/2
f 272/118/6 67/104/6 99/104/6 274/118/6
f 69/126/1 64/115/1 96/115/1 101/126/1
f 314/119/6 69/126/6 101/126/6 316/119/6
f 59/110/9 72/122/9 104/122/9 91/110/9
f 293/121/6 71/127/6 103/127/6 295/121/6
f 250/111/5 58/124/5 90/124/5 252/111/5
f 71/127/3 60/113/3 92/113/3 103/127/3
f 65/123/2 57/112/2 89/112/2 97/123/2
f 231/287/7 226/221/7 225/221/7 232/287/7
f 234/230/4 228/247/4 227/265/4 233/230/4
f 235/228/10 237/255/10 238/255/10 236/228/10
f 229/260/8 240/225/8 239/225/8 230/260/8
f 57/112/5 250/111/5 252/111/5 89/112/5
f 66/117/6 251/116/6 253/116/6 98/117/6
f 65/123/9 251/116/9 249/88/9 81/95/9
f 58/124/9 250/111/9 248/79/9 74/98/9
f 27/96/9 244/71/9 245/39/9 28/42/9
f 68/108/6 272/118/6 274/118/6 100/108/6
f 67/104/1 272/118/1 270/90/1 83/43/1
f 61/107/1 271/106/1 269/45/1 77/46/1
f 62/105/5 271/106/5 273/106/5 94/105/5
f 29/97/1 265/74/1 266/1/1 30/4/1
f 72/122/6 293/121/6 295/121/6 104/122/6
f 71/127/2 293/121/2 291/93/2 87/102/2
f 59/110/2 292/109/2 290/59/2 75/60/2
f 60/113/5 292/109/5 294/109/5 92/113/5
f 37/103/2 286/61/2 287/5/2 38/8/2
f 70/120/6 314/119/6 316/119/6 102/120/6
f 64/115/5 313/114/5 315/114/5 96/115/5
f 69/126/3 314/119/3 312/91/3 85/100/3
f 63/125/3 313/114/3 311/85/3 79/99/3
f 33/101/3 307/63/3 308/9/3 34/12/3
f 230/260/2 327/289/2 376/289/2 375/327/2 229/260/2
f 327/289/2 231/287/2 232/287/2 374/328/2 376/289/2
f 237/255/9 330/261/9 385/226/9 384/256/9 238/255/9
f 330/261/9 239/225/9 240/225/9 383/303/9 385/226/9
f 333/232/3 227/247/3 228/265/3 392/335/3 394/232/3
f 226/221/3 333/232/3 394/239/3 393/338/3 225/221/3
f 233/230/1 336/229/1 403/229/1 402/269/1 234/230/1
f 336/229/1 235/228/1 236/228/1 401/340/1 403/290/1
f 374/305/2 375/352/2 376/289/2
f 383/303/9 384/353/9 385/226/9
f 392/292/3 393/354/3 394/239/3
f 401/307/1 402/355/1 403/229/1
f 426/361/5 427/244/5 344/243/5 425/213/5
f 429/308/9 426/309/9 425/213/9 428/212/9
f 431/194/21 429/310/21 428/209/21 430/208/21
f 409/192/9 431/194/9 430/208/9 410/356/9
f 436/313/53 437/314/53 438/215/53 435/214/53
f 437/362/54 434/217/54 433/216/54 438/215/54
f 440/201/30 436/313/30 435/316/30 439/315/30
f 411/184/1 440/201/1 439/348/1 412/347/1
f 442/319/55 443/235/55 444/234/55 441/203/55
f 446/318/56 442/319/56 441/203/56 445/202/56
f 413/195/2 447/197/2 448/249/2 414/248/2
f 447/197/19 446/321/19 445/205/19 448/204/19
f 450/239/3 451/238/3 452/239/3 449/300/3
f 454/324/5 452/239/5 451/238/5 453/363/5
f 456/200/20 457/323/20 458/207/20 455/206/20
f 457/323/3 454/324/3 453/211/3 458/210/3
f 415/198/3 456/200/3 455/346/3 416/326/3
f 460/262/57 418/263/57 417/305/57 459/304/57
f 462/360/58 463/331/58 464/357/58 461/283/58
f 463/331/59 460/262/59 459/330/59 464/329/59
f 466/254/60 420/256/60 419/303/60 465/302/60
f 468/242/61 469/333/61 470/332/61 467/364/61
f 469/333/62 466/334/62 465/302/62 470/332/62
f 472/336/63 473/337/63 474/291/63 471/339/63
f 473/293/57 422/294/57 421/292/57 474/291/57
f 476/299/64 472/336/64 471/291/64 475/240/64
f 478/268/65 424/269/65 423/307/65 477/306/65
f 480/358/66 481/359/66 482/341/66 479/218/66
f 481/342/67 478/343/67 477/306/67 482/341/67
f 475/240/68 450/239/68 449/300/68 476/299/68
f 444/234/69 462/233/69 461/283/69 483/282/69
f 427/244/9 484/243/9 485/278/9 344/243/9
f 484/243/68 468/242/68 467/279/68 485/278/68
f 432/296/69 480/295/69 479/218/69 434/217/69
f 375/352/2 374/305/2 417/305/2 418/352/2
f 384/353/9 383/303/9 419/303/9 420/353/9
f 393/354/3 392/292/3 421/292/3 422/354/3
f 402/355/1 401/307/1 423/307/1 424/355/1
usemtl M_Noir_Bleuté
f 283/28/6 303/29/6 167/30/6 43/31/6
f 13/43/9 3/44/9 78/44/9 83/43/9
f 267/45/5 2/46/5 77/46/5 269/45/5
f 2/46/3 10/47/3 84/47/3 77/46/3
f 54/48/4 47/49/4 46/50/4 51/51/4
f 56/52/7 43/31/7 48/53/7 53/54/7
f 50/55/8 42/56/8 44/57/8 55/58/8
f 288/59/5 6/60/5 75/60/5 290/59/5
f 284/61/5 56/62/5 36/62/5 286/61/5
f 54/48/5 51/51/5 29/51/5 32/48/5
f 305/63/5 54/64/5 32/64/5 307/63/5
f 56/52/5 53/54/5 33/54/5 36/52/5
f 41/65/10 49/66/10 52/67/10 45/68/10
f 50/55/5 55/58/5 37/58/5 40/55/5
f 52/67/5 49/66/5 27/66/5 26/67/5
f 242/71/5 50/72/5 40/72/5 244/71/5
f 263/74/5 52/75/5 26/75/5 265/74/5
f 246/79/9 1/80/9 41/81/9 241/82/9
f 288/59/2 7/83/2 44/57/2 283/28/2
f 267/45/1 3/44/1 46/50/1 262/84/1
f 309/85/3 5/86/3 48/53/3 304/87/3
f 247/88/9 24/89/9 50/72/9 242/71/9
f 268/90/1 10/47/1 52/75/1 263/74/1
f 310/91/3 16/92/3 54/64/3 305/63/3
f 289/93/2 20/94/2 56/62/2 284/61/2
f 1/80/9 11/95/9 49/96/9 41/81/9
f 10/47/1 2/46/1 45/68/1 52/75/1
f 3/44/1 13/43/1 51/97/1 46/50/1
f 24/89/9 8/98/9 42/56/9 50/72/9
f 16/92/3 4/99/3 47/49/3 54/64/3
f 5/86/3 17/100/3 53/101/3 48/53/3
f 20/94/2 6/60/2 43/31/2 56/62/2
f 7/83/2 21/102/2 55/103/2 44/57/2
f 309/85/5 4/99/5 79/99/5 311/85/5
f 8/98/1 24/89/1 82/89/1 74/98/1
f 247/88/6 11/95/6 81/95/6 249/88/6
f 4/99/2 16/92/2 86/92/2 79/99/2
f 268/90/6 13/43/6 83/43/6 270/90/6
f 17/100/1 5/86/1 80/86/1 85/100/1
f 310/91/6 17/100/6 85/100/6 312/91/6
f 6/60/9 20/94/9 88/94/9 75/60/9
f 289/93/6 21/102/6 87/102/6 291/93/6
f 246/79/5 8/98/5 74/98/5 248/79/5
f 21/102/3 7/83/3 76/83/3 87/102/3
f 11/95/2 1/80/2 73/80/2 81/95/2
f 43/31/6 167/30/6 48/53/6
f 45/178/6 165/179/6 41/180/6
f 304/87/6 324/181/6 168/182/6 47/49/6
f 163/183/6 345/184/6 347/185/6 282/186/6 168/182/6
f 42/187/6 166/188/6 44/57/6
f 47/49/6 168/182/6 46/189/6
f 282/186/6 165/179/6 45/178/6 262/84/6
f 241/190/6 261/191/6 166/188/6 42/187/6
f 189/221/6 190/222/6 325/223/6 187/224/6 188/225/6 328/226/6 185/227/6 186/228/6 334/229/6 191/230/6 192/231/6 331/232/6
f 187/259/8 216/260/8 217/225/8 188/225/8
f 329/261/9 221/255/9 185/255/9 328/226/9
f 191/264/4 219/230/4 209/265/4 192/265/4
f 223/228/10 186/228/10 185/255/10 221/255/10
f 213/287/7 190/287/7 189/288/7 212/221/7
f 326/289/2 216/260/2 187/259/2 325/223/2
f 335/290/1 219/230/1 191/264/1 334/229/1
f 332/239/3 212/221/3 189/288/3 331/232/3
f 223/228/5 221/255/5 237/255/5 235/228/5
f 332/239/5 209/247/5 227/247/5 333/232/5
f 217/225/5 216/260/5 230/260/5 239/225/5
f 213/287/5 212/221/5 226/221/5 231/287/5
f 329/261/5 217/225/5 239/225/5 330/261/5
f 209/265/5 219/230/5 233/230/5 227/265/5
f 326/289/5 213/287/5 231/287/5 327/289/5
f 335/290/5 223/228/5 235/228/5 336/229/5
f 164/193/6 337/311/6 339/243/6 261/191/6 165/179/6
f 339/226/6 338/312/6 161/196/6 166/188/6 261/191/6
f 41/180/6 165/179/6 261/191/6 241/190/6
f 1/80/5 246/79/5 248/79/5 73/80/5
f 24/89/6 247/88/6 249/88/6 82/89/6
f 11/95/9 247/88/9 242/71/9 49/96/9
f 8/98/9 246/79/9 241/82/9 42/56/9
f 49/96/5 242/71/5 244/71/5 27/96/5
f 168/182/6 282/186/6 262/84/6 46/189/6
f 347/185/6 346/317/6 164/193/6 165/179/6 282/186/6
f 10/47/6 268/90/6 270/90/6 84/47/6
f 13/43/1 268/90/1 263/74/1 51/97/1
f 2/46/1 267/45/1 262/84/1 45/68/1
f 51/97/5 263/74/5 265/74/5 29/97/5
f 3/44/5 267/45/5 269/45/5 78/44/5
f 161/196/6 353/195/6 355/320/6 303/29/6 166/188/6
f 355/322/6 354/248/6 162/199/6 167/30/6 303/29/6
f 20/94/6 289/93/6 291/93/6 88/94/6
f 21/102/2 289/93/2 284/61/2 55/103/2
f 6/60/2 288/59/2 283/28/2 43/31/2
f 55/103/5 284/61/5 286/61/5 37/103/5
f 7/83/5 288/59/5 290/59/5 76/83/5
f 44/57/6 166/188/6 303/29/6 283/28/6
f 162/199/6 361/325/6 363/232/6 324/181/6 167/30/6
f 363/239/6 362/326/6 163/183/6 168/182/6 324/181/6
f 48/53/6 167/30/6 324/181/6 304/87/6
f 16/92/6 310/91/6 312/91/6 86/92/6
f 5/86/5 309/85/5 311/85/5 80/86/5
f 17/100/3 310/91/3 305/63/3 53/101/3
f 4/99/3 309/85/3 304/87/3 47/49/3
f 53/101/5 305/63/5 307/63/5 33/101/5
f 216/260/5 326/289/5 327/289/5 230/260/5
f 213/287/2 326/289/2 325/223/2 190/287/2
f 221/255/5 329/261/5 330/261/5 237/255/5
f 217/225/9 329/261/9 328/226/9 188/225/9
f 212/221/5 332/239/5 333/232/5 226/221/5
f 209/247/3 332/239/3 331/232/3 192/265/3
f 219/230/5 335/290/5 336/229/5 233/230/5
f 223/228/1 335/290/1 334/229/1 186/228/1
usemtl M_Cyan
f 315/114/3 316/119/3 101/126/3 96/115/3
f 294/109/2 295/121/2 103/127/2 92/113/2
f 273/106/1 274/118/1 99/104/1 94/105/1
f 252/111/9 253/116/9 97/123/9 89/112/9
f 90/124/9 98/117/9 253/116/9 252/111/9
f 93/107/1 100/108/1 274/118/1 273/106/1
f 91/110/2 104/122/2 295/121/2 294/109/2
f 95/125/3 102/120/3 316/119/3 315/114/3
usemtl M_Orange
f 146/164/5 147/173/5 148/162/5 145/169/5
f 150/160/5 151/174/5 152/154/5 149/170/5
f 154/176/5 155/175/5 156/158/5 153/171/5
f 158/156/5 159/168/5 160/167/5 157/172/5
f 260/165/5 146/164/5 145/169/5 259/166/5
f 281/159/5 150/160/5 149/170/5 280/161/5
f 302/155/5 158/156/5 157/172/5 301/157/5
f 323/177/5 154/176/5 153/171/5 322/153/5
f 159/168/5 260/165/5 259/166/5 160/167/5
f 147/173/5 281/159/5 280/161/5 148/162/5
f 155/175/5 302/155/5 301/157/5 156/158/5
f 151/174/5 323/177/5 322/153/5 152/154/5
f 522/272/115 541/270/115 540/266/115 523/267/115
f 534/285/116 525/370/116 524/349/116 535/284/116
f 526/298/117 537/276/117 536/277/117 527/281/117
f 519/365/118 520/275/118 521/367/118 518/366/118
f 523/267/119 524/349/119 525/370/119 522/272/119
f 527/281/120 528/371/120 529/372/120 526/298/120
f 531/376/121 532/375/121 533/344/121 530/345/121
f 518/366/122 549/382/122 548/381/122 519/365/122
f 530/345/123 545/378/123 544/377/123 531/376/123
f 538/274/124 521/367/124 520/275/124 539/273/124
f 542/258/125 529/372/125 528/371/125 543/257/125
f 546/379/126 533/344/126 532/375/126 547/380/126
