# Blender 4.2.3 LTS
# www.blender.org
mtllib SM_BarStool.mtl
o SM_BarStool
v 0.188199 0.706246 -0.205488
v 0.188199 0.706246 0.205488
v 0.177673 0.722508 0.205488
v 0.177672 0.722508 -0.205488
v 0.188199 0.706246 0.161635
v 0.188199 0.706246 -0.161635
v 0.238636 0.706246 -0.161635
v 0.238636 0.706246 0.161635
v -0.145349 0.798052 0.161635
v -0.145350 0.798052 -0.161635
v -0.271934 0.976174 0.128580
v -0.271934 0.976174 -0.128579
v 0.177673 0.798052 0.161635
v 0.177672 0.798052 -0.161635
v -0.208705 0.940425 0.128580
v -0.208705 0.940425 -0.128580
v 0.217645 0.737857 0.161635
v 0.217645 0.737857 -0.161635
v -0.149755 0.793019 0.161635
v -0.149755 0.793019 -0.158252
v 0.174576 0.792088 0.161635
v 0.174575 0.792088 -0.161635
v -0.249799 0.968668 -0.125889
v 0.212172 0.734070 0.161635
v 0.212172 0.734070 -0.161635
v -0.149755 0.793019 -0.161635
v -0.214563 0.937296 -0.128580
v -0.214563 0.937296 0.128580
v -0.252559 0.971126 0.128580
v 0.174575 0.792088 0.158252
v 0.174575 0.792088 -0.158252
v -0.214563 0.937296 0.125889
v -0.214563 0.937296 -0.125889
v 0.210152 0.737188 0.158252
v 0.210151 0.737188 -0.158252
v -0.249799 0.968668 0.125889
v -0.203762 0.915535 -0.131283
v -0.181919 0.868972 0.142191
v -0.182399 0.873229 0.141951
v -0.182159 0.871101 0.142071
v -0.203521 0.913407 0.131403
v -0.204001 0.917664 0.131163
v -0.203761 0.915535 0.131283
v -0.204002 0.917664 -0.131163
v -0.203522 0.913407 -0.131402
v -0.182399 0.873230 -0.141950
v -0.181919 0.868972 -0.142190
v -0.182159 0.871101 -0.142070
v -0.142891 0.792999 0.158252
v -0.150539 0.799979 0.157861
v -0.149755 0.793019 0.158252
v -0.150539 0.799979 -0.157860
v -0.142892 0.792999 -0.158252
v 0.178549 0.799610 0.152514
v 0.175204 0.793277 0.158252
v 0.178101 0.798762 0.155383
v 0.176876 0.796444 0.157483
v 0.175203 0.793277 -0.158252
v 0.178549 0.799610 -0.152514
v 0.176876 0.796444 -0.157484
v 0.178101 0.798762 -0.155383
v -0.213451 0.937882 0.125889
v -0.207531 0.941002 0.120146
v -0.210491 0.939442 0.125120
v -0.208324 0.940584 0.123017
v -0.207532 0.941002 -0.120145
v -0.213451 0.937882 -0.125889
v -0.208325 0.940584 -0.123017
v -0.210491 0.939442 -0.125119
v 0.212878 0.746634 0.152514
v 0.211125 0.737845 0.158252
v 0.213898 0.743520 0.155383
v 0.213256 0.740303 0.157483
v 0.211124 0.737845 -0.158252
v 0.212878 0.746634 -0.152514
v 0.213256 0.740303 -0.157484
v 0.213898 0.743520 -0.155383
v -0.249022 0.969579 -0.125889
v -0.240268 0.970175 -0.120145
v -0.246358 0.971403 -0.125119
v -0.243154 0.971622 -0.123017
v -0.240268 0.970175 0.120146
v -0.249022 0.969579 0.125889
v -0.243154 0.971622 0.123018
v -0.246358 0.971403 0.125120
v -0.202859 0.917798 -0.131163
v -0.197379 0.924827 -0.125075
v -0.199860 0.919006 -0.130347
v -0.197854 0.921579 -0.128119
v -0.197379 0.924827 0.125075
v -0.202859 0.917798 0.131163
v -0.197854 0.921579 0.128119
v -0.199860 0.919006 0.130348
v -0.202363 0.913543 0.131403
v -0.195480 0.907967 0.126008
v -0.199181 0.913061 0.130680
v -0.196662 0.911020 0.128705
v -0.195480 0.907967 -0.126008
v -0.202363 0.913543 -0.131402
v -0.196663 0.911020 -0.128705
v -0.199182 0.913061 -0.130680
v -0.136658 0.800515 0.152514
v -0.142888 0.794190 0.158252
v -0.139767 0.799674 0.155383
v -0.142047 0.797359 0.157484
v -0.136658 0.800515 -0.152514
v -0.142888 0.794190 -0.158252
v -0.139767 0.799674 -0.155383
v -0.142047 0.797359 -0.157483
v -0.149381 0.800115 -0.157860
v -0.143919 0.807141 -0.151756
v -0.146390 0.801322 -0.157042
v -0.144390 0.803894 -0.154808
v -0.143918 0.807141 0.151757
v -0.149380 0.800115 0.157861
v -0.144390 0.803894 0.154809
v -0.146389 0.801322 0.157043
v -0.259120 0.976174 0.128580
v -0.248171 0.976174 0.128581
v -0.239982 0.968757 0.128580
v -0.259120 0.976174 -0.128579
v -0.252560 0.971126 -0.128579
v -0.239982 0.968757 -0.128580
v -0.248172 0.976174 -0.128580
v 0.215193 0.706246 -0.205488
v 0.238636 0.706246 -0.187556
v 0.238636 0.706246 0.187556
v 0.215194 0.706246 0.205488
v -0.162693 0.778308 0.206936
v -0.148085 0.795176 0.192823
v -0.162693 0.778308 -0.206936
v -0.145350 0.798052 -0.187554
v -0.269983 0.956411 0.164679
v -0.271934 0.976174 0.145533
v -0.271934 0.976174 -0.145533
v -0.269983 0.956411 -0.164678
v 0.163175 0.782528 -0.201462
v 0.168921 0.793773 -0.191605
v 0.163175 0.782528 0.201462
v 0.168922 0.793773 0.191605
v -0.222393 0.926416 0.161886
v -0.211982 0.931931 0.150183
v -0.248171 0.976174 0.145533
v -0.255539 0.956366 0.163465
v -0.255539 0.956366 -0.163465
v -0.248172 0.976174 -0.145532
v -0.222393 0.926416 -0.161886
v -0.211983 0.931931 -0.150182
v 0.167384 0.778243 0.205488
v 0.177673 0.798052 0.187556
v -0.145349 0.798052 0.187555
v -0.159969 0.781192 0.201664
v -0.148086 0.795176 -0.192823
v 0.177672 0.798052 -0.187556
v 0.167384 0.778243 -0.205488
v -0.159969 0.781192 -0.201664
v -0.208705 0.940425 -0.145531
v -0.227089 0.930785 -0.165607
v -0.227089 0.930785 0.165608
v -0.208705 0.940425 0.145531
v -0.148211 0.795026 0.192550
v -0.159485 0.781697 0.200444
v -0.160089 0.781037 -0.201390
v -0.148212 0.795026 -0.192550
v 0.162380 0.783225 0.200563
v 0.167265 0.792661 0.192046
v 0.167264 0.792661 -0.192046
v 0.162379 0.783225 -0.200564
v -0.212886 0.930261 -0.150760
v -0.221635 0.925564 -0.161032
v -0.221635 0.925564 0.161033
v -0.212886 0.930261 0.150760
v 0.163175 0.782319 0.201231
v 0.168921 0.793564 0.191374
v -0.148818 0.794369 0.193495
v -0.160089 0.781037 0.201390
v -0.148819 0.794369 -0.193495
v 0.168921 0.793564 -0.191374
v 0.163174 0.782319 -0.201231
v -0.159485 0.781697 -0.200443
v -0.212190 0.931887 -0.149956
v -0.222601 0.926372 -0.161660
v -0.222600 0.926372 0.161661
v -0.212189 0.931887 0.149957
v -0.148935 0.794230 0.193229
v -0.159596 0.781554 0.200178
v -0.159596 0.781554 -0.200177
v -0.148936 0.794230 -0.193229
v 0.162379 0.783013 0.200315
v 0.167264 0.792449 0.191798
v 0.167264 0.792449 -0.191798
v 0.162379 0.783013 -0.200316
v -0.213098 0.930216 -0.150518
v -0.221847 0.925518 -0.160791
v -0.221847 0.925518 0.160792
v -0.213097 0.930216 0.150519
v -0.189950 0.722508 -0.205488
v -0.205829 0.737167 -0.204588
v -0.205828 0.737167 0.204588
v -0.189950 0.722508 0.205489
v -0.205829 0.737167 -0.160927
v -0.205828 0.737167 0.160927
v 0.177672 0.722508 -0.000000
v -0.189950 0.722508 0.000000
v -0.006139 0.722508 -0.161635
v -0.006138 0.722508 0.161635
v -0.006139 0.722508 0.000000
v -0.105271 0.714374 -0.148900
v 0.092993 0.714374 0.148900
v 0.092993 0.714374 -0.148900
v -0.105270 0.714374 0.148900
v -0.006139 0.722508 -0.080817
v -0.006139 0.722508 0.080818
v 0.085767 0.722508 -0.000000
v -0.098044 0.722508 0.000000
v -0.105270 0.714374 0.094273
v 0.092993 0.714374 0.094273
v 0.092993 0.714374 -0.094273
v -0.105270 0.714374 -0.094273
v 0.128414 0.071307 0.110443
v 0.128453 0.070915 0.159838
v 0.128472 0.070722 -0.159845
v 0.128431 0.071114 -0.110454
v -0.140872 0.069522 0.110537
v -0.140916 0.069130 0.159901
v -0.140784 0.070390 -0.159856
v -0.140742 0.070782 -0.110471
v -0.104432 0.722508 0.156018
v -0.104432 0.722508 0.086435
v 0.092155 0.722508 0.156017
v 0.092155 0.722508 0.086435
v 0.092155 0.722508 -0.086435
v 0.092155 0.722508 -0.156018
v -0.104432 0.722508 -0.086435
v -0.104432 0.722508 -0.156017
v 0.128438 0.071073 0.167237
v 0.128438 0.071073 0.103044
v 0.128456 0.070880 -0.103054
v 0.128456 0.070880 -0.167244
v -0.140899 0.069288 0.103137
v -0.140899 0.069288 0.167301
v -0.140768 0.070548 -0.167256
v -0.140767 0.070548 -0.103071
v 0.121926 0.076820 0.110483
v 0.122184 0.076671 0.159879
v 0.122200 0.076512 -0.159886
v 0.121939 0.076661 -0.110494
v -0.134640 0.074970 0.159943
v -0.134374 0.075119 0.110578
v -0.134248 0.076345 -0.110511
v -0.134511 0.076195 -0.159898
v -0.099723 0.713778 0.148900
v -0.099723 0.713778 0.094273
v 0.087446 0.713778 0.148900
v 0.087446 0.713778 0.094273
v 0.087446 0.713778 -0.094273
v 0.087445 0.713778 -0.148900
v -0.099723 0.713778 -0.094273
v -0.099723 0.713778 -0.148900
v 0.155512 0.722508 0.156017
v 0.172709 0.709401 0.130051
v 0.182325 0.711894 0.159684
v 0.173141 0.722508 0.170394
v 0.172709 0.709401 -0.130051
v 0.155512 0.722508 -0.156018
v 0.173141 0.722508 -0.170394
v 0.182324 0.711894 -0.159684
v -0.167789 0.722508 -0.156017
v -0.184986 0.709401 -0.130051
v -0.196479 0.731012 -0.158865
v -0.185418 0.722508 -0.170394
v -0.184986 0.709401 0.130051
v -0.167789 0.722508 0.156018
v -0.185418 0.722508 0.170395
v -0.196479 0.731012 0.158866
v 0.155512 0.722508 -0.086435
v 0.172709 0.709401 -0.113575
v 0.172352 0.722508 -0.071990
v -0.167789 0.722508 0.086435
v -0.184986 0.709401 0.113575
v -0.184629 0.722508 0.071990
v 0.172709 0.709401 0.113575
v 0.155512 0.722508 0.086435
v 0.172352 0.722508 0.071990
v -0.184986 0.709401 -0.113575
v -0.167789 0.722508 -0.086435
v -0.184629 0.722508 -0.071990
v 0.215908 0.013085 -0.134384
v 0.201561 -0.000022 -0.108617
v 0.201561 -0.000022 -0.171002
v 0.215908 0.013085 -0.144109
v -0.228185 0.013085 0.134384
v -0.213838 -0.000022 0.108617
v -0.213838 -0.000022 0.171003
v -0.228185 0.013085 0.144109
v -0.228186 0.013085 -0.144108
v -0.213838 -0.000022 -0.171002
v 0.215908 0.013085 0.144108
v 0.201561 -0.000022 0.171002
v 0.201561 -0.000022 0.108616
v 0.215908 0.013085 0.134384
v -0.213838 -0.000022 -0.108616
v -0.228186 0.013085 -0.134384
v 0.171284 0.722508 0.100937
v 0.217333 -0.000022 0.123119
v 0.217333 -0.000022 0.156512
v 0.171284 0.722508 0.141528
v 0.171284 0.722508 -0.141528
v 0.217333 -0.000022 -0.156513
v 0.217333 -0.000022 -0.123119
v 0.171284 0.722508 -0.100938
v -0.229610 -0.000022 0.123119
v -0.183562 0.722508 0.100938
v -0.183561 0.722508 0.141528
v -0.229610 -0.000022 0.156513
v -0.183562 0.722508 -0.100937
v -0.229610 -0.000022 -0.123119
v -0.229610 -0.000022 -0.156512
v -0.183562 0.722508 -0.141528
v 0.171797 0.707288 0.115489
v 0.214564 0.014943 0.136090
v 0.214564 0.014943 0.142230
v 0.171797 0.707288 0.128313
v 0.171796 0.707288 -0.128313
v 0.214564 0.014943 -0.142230
v 0.214564 0.014943 -0.136090
v 0.171796 0.707288 -0.115489
v -0.226841 0.014943 0.136090
v -0.184074 0.707288 0.115489
v -0.184074 0.707288 0.128313
v -0.226841 0.014943 0.142230
v -0.184074 0.707288 -0.115489
v -0.226841 0.014943 -0.136090
v -0.226841 0.014943 -0.142229
v -0.184074 0.707288 -0.128313
v 0.171581 0.709273 0.113575
v 0.214780 0.012957 0.134384
v 0.214780 0.012957 0.144108
v 0.171581 0.709273 0.130051
v 0.171581 0.709273 -0.130051
v 0.214780 0.012957 -0.144109
v 0.214780 0.012957 -0.134384
v 0.171581 0.709273 -0.113575
v -0.227057 0.012957 0.134384
v -0.183858 0.709273 0.113575
v -0.183858 0.709273 0.130051
v -0.227057 0.012957 0.144109
v -0.183858 0.709273 -0.113575
v -0.227057 0.012957 -0.134384
v -0.227057 0.012957 -0.144108
v -0.183858 0.709273 -0.130051
v 0.171008 0.707198 0.115489
v 0.213776 0.014853 0.136090
v 0.213776 0.014853 0.142230
v 0.171008 0.707198 0.128313
v 0.171008 0.707198 -0.128313
v 0.213775 0.014853 -0.142230
v 0.213775 0.014853 -0.136090
v 0.171008 0.707198 -0.115489
v -0.226053 0.014853 0.136090
v -0.183285 0.707198 0.115489
v -0.183285 0.707198 0.128313
v -0.226053 0.014853 0.142230
v -0.183285 0.707198 -0.115489
v -0.226053 0.014853 -0.136090
v -0.226053 0.014853 -0.142229
v -0.183285 0.707198 -0.128313
vn -0.0001 0.0073 1.0000
vn -0.0200 0.0472 0.9987
vn -0.0034 0.0297 0.9996
vn -0.0000 1.0000 -0.0000
vn -0.9599 -0.2766 0.0451
vn -0.0000 -1.0000 -0.0000
vn 0.6713 0.7411 -0.0000
vn -0.0000 -0.0000 -1.0000
vn 0.9136 0.4066 -0.0000
vn -0.0023 -0.0200 0.9998
vn -0.0001 0.0253 0.9997
vn -0.0000 -0.0000 1.0000
vn -0.5691 0.8223 -0.0000
vn -0.9638 -0.2666 -0.0000
vn 0.8331 0.5532 -0.0000
vn -0.9599 -0.2766 -0.0451
vn -0.4467 -0.0000 -0.8947
vn 0.9122 0.4098 -0.0000
vn 0.8392 0.5438 -0.0000
vn 0.0029 1.0000 -0.0000
vn 0.6650 0.7469 -0.0000
vn -0.4468 -0.0000 -0.8946
vn -0.0004 -0.7189 0.6951
vn -0.0706 0.2208 -0.9728
vn 0.1322 -0.1663 -0.9772
vn 0.1167 -0.9932 -0.0000
vn 0.1322 -0.1663 0.9772
vn 0.2425 -0.0000 0.9701
vn 0.9363 -0.3511 -0.0000
vn 0.4465 -0.0558 -0.8930
vn 0.7785 0.0778 0.6228
vn 0.8903 0.4553 -0.0000
vn 0.9937 0.1120 -0.0000
vn 0.0005 0.4826 -0.8758
vn 0.0002 0.0562 0.9984
vn 0.0002 0.0562 -0.9984
vn 0.6741 0.7386 -0.0000
vn -0.0706 0.2208 0.9728
vn -0.0254 0.2158 0.9761
vn 0.5597 -0.8287 -0.0000
vn 0.6653 0.7466 -0.0000
vn 0.8470 0.5316 -0.0000
vn -0.7603 0.6495 -0.0000
vn -0.1167 0.9932 -0.0000
vn -1.0000 0.0028 -0.0000
vn 0.7555 -0.6551 -0.0000
vn 0.9807 -0.1957 -0.0000
vn 0.9503 0.3112 -0.0000
vn 0.8056 0.5220 0.2802
vn 0.5675 0.3677 0.7367
vn 0.2004 0.1299 0.9711
vn 0.2004 0.1299 -0.9711
vn 0.5675 0.3677 -0.7367
vn 0.8056 0.5220 -0.2802
vn 0.6386 0.7166 -0.2807
vn 0.4495 0.5044 -0.7373
vn 0.1586 0.1780 -0.9712
vn 0.6386 0.7166 0.2806
vn 0.4495 0.5044 0.7373
vn 0.1586 0.1780 0.9712
vn -0.5652 0.8250 -0.0000
vn -0.0680 0.9977 -0.0000
vn 0.4482 0.8939 -0.0000
vn 0.9895 -0.1446 -0.0000
vn 0.7886 -0.6149 -0.0000
vn 0.3735 -0.9276 -0.0000
vn 0.9326 0.3610 -0.0000
vn 0.6295 0.7770 -0.0000
vn 0.1497 0.9887 -0.0000
vn -0.0253 0.2158 -0.9761
vn 0.1109 0.3034 -0.9464
vn 0.4305 0.4371 -0.7897
vn 0.6884 0.5412 -0.4829
vn 0.1109 0.3034 0.9464
vn 0.4305 0.4371 0.7897
vn 0.6884 0.5412 0.4829
vn -0.2611 0.9653 -0.0000
vn -0.7124 0.7018 -0.0000
vn -0.9665 0.2565 -0.0000
vn 0.9896 -0.1438 -0.0000
vn 0.7895 -0.6138 -0.0000
vn 0.3741 -0.9274 -0.0000
vn 0.8374 0.4823 0.2572
vn 0.5826 0.4430 0.6814
vn 0.1958 0.3102 0.9303
vn 0.0028 0.9588 0.2840
vn 0.0019 0.6709 0.7415
vn 0.0007 0.2356 0.9719
vn 0.1958 0.3102 -0.9303
vn 0.5826 0.4430 -0.6814
vn 0.8374 0.4823 -0.2572
vn 0.0007 0.2356 -0.9718
vn 0.0019 0.6709 -0.7416
vn 0.0027 0.9588 -0.2840
vn -0.0000 0.0001 -1.0000
vn -0.0000 0.0001 1.0000
vn 0.6099 0.7925 -0.0000
vn -0.0015 -0.8150 -0.5794
vn 0.3423 -0.9300 0.1338
vn 0.5634 0.3742 -0.7366
vn 0.5634 0.3742 0.7366
vn 0.4544 0.5283 -0.7172
vn 0.4544 0.5283 0.7172
vn 0.0240 0.6818 0.7312
vn 0.0240 0.6818 -0.7312
vn 0.7890 0.1784 -0.5879
vn -0.0036 0.8119 -0.5838
vn -0.0000 0.0254 -0.9997
vn 0.0017 0.6664 0.7456
vn 0.0029 0.7915 0.6112
vn -0.0000 0.7919 0.6106
vn 0.0029 0.7915 -0.6112
vn 0.0017 0.6664 -0.7456
vn -0.0000 0.7919 -0.6106
vn 0.7038 0.1281 -0.6988
vn 0.7038 0.1281 0.6988
vn 0.4492 0.4406 0.7772
vn 0.7237 0.4507 0.5226
vn 0.4492 0.4406 -0.7772
vn 0.7237 0.4507 -0.5226
vn 0.7961 0.1865 -0.5757
vn -0.0036 0.8235 -0.5674
vn -0.0036 0.8234 0.5674
vn -0.7907 -0.1901 0.5819
vn -0.7839 -0.1813 -0.5939
vn -0.9334 0.2674 -0.2391
vn 0.3423 -0.9300 -0.1338
vn -0.9334 0.2674 0.2391
vn 0.7890 0.1784 0.5879
vn -0.0015 -0.8150 0.5794
vn -0.7839 -0.1813 0.5939
vn -0.0036 0.8119 0.5838
vn 0.0018 0.6637 0.7480
vn 0.0065 0.7148 0.6993
vn -0.0031 0.7177 0.6964
vn 0.0065 0.7148 -0.6993
vn 0.0018 0.6637 -0.7480
vn -0.0031 0.7177 -0.6964
vn 0.7171 0.1286 -0.6850
vn 0.7171 0.1286 0.6850
vn 0.3605 0.4284 0.8285
vn 0.6538 0.4486 0.6094
vn 0.3605 0.4284 -0.8285
vn 0.6538 0.4486 -0.6094
vn 0.0020 0.5722 0.8201
vn 0.0019 0.5722 -0.8201
vn 0.3705 0.4115 0.8327
vn 0.3705 0.4115 -0.8327
vn 0.3470 -0.9289 0.1291
vn -0.0020 -0.8265 -0.5630
vn -0.7908 -0.1901 -0.5819
vn -0.9334 0.2742 -0.2315
vn 0.3470 -0.9289 -0.1291
vn -0.9334 0.2743 0.2314
vn 0.7961 0.1865 0.5757
vn -0.0020 -0.8265 0.5630
vn 0.1126 0.9936 -0.0000
vn -0.5830 -0.8125 -0.0000
vn 0.0034 0.0297 -0.9996
vn -0.0200 0.0472 -0.9987
vn 0.0001 -0.0375 -0.9993
vn -0.0140 -0.0260 -0.9996
vn -0.0000 -0.0375 0.9993
vn -0.7334 -0.6798 -0.0000
vn 0.0001 -0.0072 -1.0000
vn -0.6171 -0.7859 0.0387
vn -0.6171 -0.7859 -0.0387
vn 0.0112 0.0177 0.9998
vn 0.0141 -0.0261 0.9996
vn -0.7748 -0.6304 -0.0478
vn 0.1068 0.9943 -0.0000
vn 0.9947 -0.1025 -0.0000
vn -0.9947 -0.1025 -0.0000
vn -0.9981 -0.0558 -0.0268
vn -0.9982 -0.0547 0.0250
vn -0.9982 -0.0547 -0.0250
vn -0.9981 -0.0558 0.0269
vn 0.9982 -0.0548 0.0248
vn 0.9981 -0.0559 -0.0269
vn 0.9981 -0.0558 0.0269
vn 0.9982 -0.0547 -0.0249
vn -0.0012 0.9998 0.0214
vn -0.0012 0.9995 0.0316
vn -0.0066 0.9997 -0.0214
vn -0.0066 0.9995 -0.0316
vn -0.0066 1.0000 0.0030
vn -0.0012 1.0000 -0.0030
vn -0.9985 -0.0542 0.0024
vn -0.9985 -0.0542 -0.0024
vn 0.9985 -0.0543 0.0025
vn 0.9985 -0.0542 -0.0024
vn -0.0141 -0.0261 0.9996
vn 0.0003 -0.0072 1.0000
vn 0.0113 0.0177 -0.9998
vn -0.0004 0.0073 -1.0000
vn 0.0143 -0.0261 -0.9996
vn -0.1068 0.9943 -0.0000
vn -0.0115 0.0178 0.9998
vn -0.0114 0.0178 -0.9998
vn 0.6767 0.0205 -0.7360
vn 0.6754 0.0583 0.7352
vn 0.6754 0.0583 -0.7352
vn 0.6767 0.0205 0.7360
vn -0.6767 0.0205 -0.7360
vn -0.6754 0.0583 0.7352
vn -0.6767 0.0205 0.7360
vn -0.6754 0.0583 -0.7352
vn -0.7748 -0.6304 0.0478
vn 0.9980 0.0628 -0.0000
vn -0.9980 0.0628 -0.0000
vn 0.9941 0.1081 -0.0000
vn -0.9941 0.1081 -0.0000
vn 0.1127 -0.9936 -0.0000
vn 0.1125 0.9936 -0.0000
vn -0.0033 0.0295 0.9996
vn 0.1126 -0.9936 -0.0000
vn 0.0023 -0.0200 -0.9998
vn 0.1125 -0.9936 -0.0000
vn 0.0023 -0.0200 0.9998
vn -0.1126 0.9936 -0.0000
vn -0.0034 0.0297 -0.9996
vn 0.0034 0.0297 0.9996
vn -0.1126 -0.9936 -0.0000
vn -0.0023 -0.0200 -0.9998
vn 0.9981 0.0618 -0.0000
vn -0.9981 0.0618 -0.0000
vn 0.9981 0.0617 -0.0000
vn -0.9981 0.0617 -0.0000
vn -0.1125 0.9936 -0.0000
vn -0.0034 0.0295 -0.9996
vn 0.0033 0.0295 0.9996
vn 0.0033 0.0295 -0.9996
vn -0.5842 -0.8108 -0.0376
vn -0.5842 -0.8108 0.0376
vn -0.7314 -0.6803 -0.0470
vn -0.7314 -0.6803 0.0470
vn -0.4468 -0.0000 0.8947
vn 0.9071 0.4182 0.0476
vt 0.316381 0.648235
vt 0.215089 0.648235
vt 0.585695 0.293643
vt 0.470902 0.472835
vt 0.618481 0.472877
vt 0.619651 0.490256
vt 0.617780 0.500000
vt 0.380355 0.500000
vt 0.375000 0.492046
vt 0.375000 0.289425
vt 0.375000 0.250000
vt 0.508804 0.250000
vt 0.164425 0.595367
vt 0.164425 0.596218
vt 0.625000 0.542836
vt 0.641165 0.530421
vt 0.641165 0.559179
vt 0.633717 0.583333
vt 0.625000 0.583333
vt 0.625000 0.666667
vt 0.633718 0.666667
vt 0.641165 0.690821
vt 0.641165 0.719579
vt 0.625000 0.707164
vt 0.665159 0.534079
vt 0.835575 0.534077
vt 0.835575 0.583333
vt 0.665159 0.583333
vt 0.380355 0.666667
vt 0.617780 0.750000
vt 0.380355 0.750000
vt 0.164425 0.690884
vt 0.174522 0.666667
vt 0.215080 0.666667
vt 0.265735 0.666667
vt 0.316391 0.666667
vt 0.356949 0.666667
vt 0.367046 0.690884
vt 0.367046 0.750000
vt 0.164425 0.750000
vt 0.665159 0.542840
vt 0.646144 0.583333
vt 0.641165 0.530421
vt 0.861425 0.583333
vt 0.367046 0.658724
vt 0.367046 0.657873
vt 0.356949 0.583333
vt 0.359895 0.583333
vt 0.171576 0.583333
vt 0.174522 0.583333
vt 0.215080 0.583333
vt 0.215080 0.583333
vt 0.316391 0.583333
vt 0.316391 0.583333
vt 0.665159 0.666667
vt 0.646144 0.666667
vt 0.641165 0.666667
vt 0.861425 0.666667
vt 0.380355 0.583333
vt 0.835575 0.534077
vt 0.875000 0.534076
vt 0.875000 0.583333
vt 0.875000 0.666667
vt 0.835575 0.666667
vt 0.875000 0.715924
vt 0.835575 0.715923
vt 0.375000 0.083333
vt 0.625000 0.083333
vt 0.625000 0.166667
vt 0.375000 0.166667
vt 0.617780 0.500000
vt 0.625000 0.542836
vt 0.380355 0.500000
vt 0.633718 0.583333
vt 0.633717 0.666667
vt 0.665159 0.665795
vt 0.625000 0.215924
vt 0.375000 0.000000
vt 0.508804 0.000000
vt 0.625000 0.034076
vt 0.665159 0.665795
vt 0.642908 0.665795
vt 0.665159 0.707160
vt 0.860036 0.665795
vt 0.860036 0.584205
vt 0.835575 0.584205
vt 0.665159 0.584205
vt 0.835575 0.665795
vt 0.665159 0.666667
vt 0.641165 0.666667
vt 0.642908 0.584205
vt 0.641165 0.583333
vt 0.665159 0.665795
vt 0.668765 0.665795
vt 0.665159 0.715921
vt 0.668765 0.665795
vt 0.835575 0.665795
vt 0.665159 0.584205
vt 0.665159 0.584242
vt 0.665158 0.584205
vt 0.665159 0.584239
vt 0.665159 0.665816
vt 0.665158 0.665826
vt 0.665159 0.665795
vt 0.665159 0.664281
vt 0.665158 0.664042
vt 0.665158 0.585958
vt 0.665159 0.585719
vt 0.668765 0.584205
vt 0.664736 0.584306
vt 0.665159 0.665796
vt 0.835575 0.585685
vt 0.857815 0.585684
vt 0.857815 0.664315
vt 0.835575 0.664315
vt 0.665158 0.584205
vt 0.860036 0.584205
vt 0.665159 0.586066
vt 0.665159 0.663933
vt 0.645692 0.663933
vt 0.645692 0.586066
vt 0.665159 0.663990
vt 0.665159 0.663933
vt 0.665159 0.586067
vt 0.665159 0.586010
vt 0.859882 0.665696
vt 0.859883 0.584304
vt 0.858925 0.665055
vt 0.858925 0.584945
vt 0.835539 0.584945
vt 0.835539 0.665055
vt 0.665085 0.664862
vt 0.644300 0.664864
vt 0.643100 0.665670
vt 0.644300 0.585136
vt 0.665085 0.585138
vt 0.643100 0.584330
vt 0.665159 0.585107
vt 0.665159 0.664893
vt 0.665159 0.584332
vt 0.665159 0.665668
vt 0.665159 0.664918
vt 0.665158 0.585082
vt 0.665159 0.665682
vt 0.665158 0.584317
vt 0.671989 0.585685
vt 0.671989 0.664315
vt 0.670377 0.665055
vt 0.670377 0.584945
vt 0.668982 0.665696
vt 0.668982 0.584304
vt 0.665159 0.584962
vt 0.665159 0.665038
vt 0.665159 0.584311
vt 0.665159 0.665689
vt 0.835575 0.585685
vt 0.835575 0.664315
vt 0.641165 0.583333
vt 0.638180 0.666667
vt 0.641165 0.583333
vt 0.646144 0.583333
vt 0.665640 0.723168
vt 0.830997 0.723448
vt 0.618999 0.779890
vt 0.623231 0.787392
vt 0.870227 0.750000
vt 0.839308 0.750000
vt 0.839308 0.500000
vt 0.870227 0.500000
vt 0.618481 0.777123
vt 0.619651 0.759744
vt 0.625000 0.766165
vt 0.625000 0.790159
vt 0.625000 0.459841
vt 0.625000 0.483835
vt 0.625000 0.500000
vt 0.625000 0.750000
vt 0.617780 0.750000
vt 0.618998 0.470111
vt 0.504582 0.469975
vt 0.664669 0.507258
vt 0.828018 0.507527
vt 0.316391 0.666667
vt 0.215080 0.666667
vt 0.174522 0.666667
vt 0.171576 0.666667
vt 0.359895 0.666667
vt 0.356949 0.666667
vt 0.830997 0.526551
vt 0.830147 0.500000
vt 0.665640 0.526832
vt 0.665159 0.500000
vt 0.828018 0.742473
vt 0.830147 0.750000
vt 0.664669 0.742742
vt 0.665159 0.750000
vt 0.623231 0.462608
vt 0.591289 0.462704
vt 0.591289 0.787296
vt 0.504582 0.780025
vt 0.470902 0.777165
vt 0.619128 0.469583
vt 0.510861 0.469444
vt 0.664627 0.508608
vt 0.827613 0.508954
vt 0.827613 0.741046
vt 0.664627 0.741392
vt 0.585005 0.463235
vt 0.622830 0.463135
vt 0.830139 0.525126
vt 0.665680 0.525485
vt 0.830139 0.724874
vt 0.665680 0.724515
vt 0.622830 0.786865
vt 0.619128 0.780417
vt 0.585005 0.786765
vt 0.510862 0.780556
vt 0.367046 0.654633
vt 0.374767 0.666667
vt 0.367046 0.662328
vt 0.367046 0.650175
vt 0.367046 0.642352
vt 0.367046 0.625000
vt 0.367046 0.607648
vt 0.367046 0.599824
vt 0.367046 0.587672
vt 0.374767 0.583333
vt 0.367046 0.653782
vt 0.585695 0.956357
vt 0.508804 1.000000
vt 0.375000 1.000000
vt 0.375000 0.960575
vt 0.375000 0.757954
vt 0.380355 0.750000
vt 0.215080 0.645833
vt 0.265735 0.645833
vt 0.215080 0.604167
vt 0.265735 0.604167
vt 0.265735 0.625000
vt 0.215080 0.625000
vt 0.171576 0.604167
vt 0.359895 0.604167
vt 0.356949 0.604167
vt 0.316391 0.604167
vt 0.215080 0.604167
vt 0.174522 0.604167
vt 0.316391 0.625000
vt 0.265735 0.583333
vt 0.215080 0.601936
vt 0.215088 0.601765
vt 0.367046 0.642352
vt 0.356949 0.645833
vt 0.316391 0.645833
vt 0.359895 0.645833
vt 0.171576 0.645833
vt 0.174522 0.645833
vt 0.215080 0.645833
vt 0.316391 0.645833
vt 0.356949 0.645833
vt 0.367046 0.661828
vt 0.171576 0.666667
vt 0.164425 0.661828
vt 0.164425 0.650676
vt 0.171576 0.645833
vt 0.367046 0.650676
vt 0.164425 0.588172
vt 0.171576 0.583333
vt 0.367046 0.588172
vt 0.367046 0.599324
vt 0.359895 0.604167
vt 0.171575 0.604167
vt 0.164425 0.599324
vt 0.164425 0.607648
vt 0.164425 0.625000
vt 0.356949 0.604167
vt 0.125000 0.583333
vt 0.138692 0.583333
vt 0.164425 0.587672
vt 0.164425 0.599824
vt 0.164425 0.642352
vt 0.164425 0.650175
vt 0.164425 0.662328
vt 0.138692 0.666667
vt 0.125000 0.666667
vt 0.215074 0.664265
vt 0.316397 0.664265
vt 0.374767 0.666667
vt 0.374767 0.583333
vt 0.367046 0.559116
vt 0.367046 0.500000
vt 0.215075 0.585735
vt 0.215080 0.585563
vt 0.164425 0.642352
vt 0.316391 0.648064
vt 0.138692 0.666667
vt 0.125000 0.750000
vt 0.316391 0.664437
vt 0.367046 0.559116
vt 0.356949 0.583333
vt 0.174522 0.583333
vt 0.164425 0.559116
vt 0.164425 0.500000
vt 0.316391 0.585563
vt 0.316391 0.601936
vt 0.215080 0.664437
vt 0.215080 0.648064
vt 0.316380 0.601764
vt 0.316398 0.585736
vt 0.164501 0.645833
vt 0.366969 0.604167
vt 0.164425 0.604147
vt 0.367046 0.645853
vt 0.125000 0.500000
vt 0.164425 0.559116
vt 0.138692 0.583333
vt 0.164425 0.592127
vt 0.164425 0.591276
vt 0.164425 0.658724
vt 0.164425 0.657873
vt 0.164425 0.654633
vt 0.164425 0.653782
vt 0.367046 0.595367
vt 0.367046 0.596218
vt 0.367046 0.591276
vt 0.367046 0.592127
vt 0.164425 0.595670
vt 0.164425 0.591823
vt 0.367046 0.594769
vt 0.367046 0.592724
vt 0.164425 0.594769
vt 0.367046 0.658176
vt 0.367046 0.657276
vt 0.164425 0.592724
vt 0.164425 0.658177
vt 0.164425 0.657276
vt 0.164425 0.655231
vt 0.164425 0.654330
vt 0.367046 0.595670
vt 0.367046 0.591823
vt 0.367046 0.654330
vt 0.367046 0.655231
s 0
usemtl M_Blanc
f 149/3/2 129/4/2 159/5/2 144/6/2 133/7/2 199/8/2 200/9/2 3/10/2 2/11/2 128/12/2
f 301/13/3 282/14/3 336/14/3 337/13/3
f 134/15/4 143/16/4 119/17/4 118/18/4 11/19/4
f 12/20/4 121/21/4 124/22/4 146/23/4 135/24/4
f 151/25/4 150/26/4 13/27/4 9/28/4
f 201/29/5 12/20/5 135/24/5 136/30/5 198/31/5
f 266/32/6 265/33/6 233/34/6 205/35/6 235/36/6 268/37/6 271/38/6 197/39/6 4/40/6
f 160/41/7 15/28/7 120/42/7 119/17/7 143/43/7
f 9/28/8 13/27/8 21/27/8 19/28/8
f 9/28/9 15/28/9 160/41/9 151/25/9
f 13/27/8 17/44/8 24/44/8 21/27/8
f 269/45/10 296/46/10 350/46/10 351/45/10
f 273/47/11 294/48/11 299/49/11 260/50/11 230/51/11 236/52/11 241/53/11 228/54/11
f 16/55/12 123/56/12 122/57/12 27/55/12
f 17/44/13 18/58/13 25/58/13 24/44/13
f 202/59/14 11/19/14 12/20/14 201/29/14
f 150/60/15 127/61/15 8/62/15 17/44/15 13/27/15
f 17/44/15 8/62/15 7/63/15 18/58/15
f 14/64/15 18/58/15 7/63/15 126/65/15 154/66/15
f 6/67/6 7/68/6 8/69/6 5/70/6
f 133/71/16 134/72/16 11/19/16 202/59/16 199/73/16
f 11/19/4 118/74/4 121/75/4 12/20/4
f 5/70/6 8/69/6 127/77/6 128/12/6 2/11/6
f 1/78/6 125/79/6 126/80/6 7/68/6 6/67/6
f 16/55/7 157/83/7 146/23/7 124/22/7 123/56/7
f 18/58/12 14/64/12 22/64/12 25/58/12
f 14/64/12 10/55/12 26/55/12 22/64/12
f 157/83/9 16/55/9 10/55/9 132/95/9
f 19/28/25 28/28/25 15/28/25 9/28/25
f 16/55/27 27/55/27 26/55/27 10/55/27
f 10/55/4 14/64/4 154/66/4 132/95/4
f 29/92/95 118/158/95 119/17/95 120/42/95
f 121/75/96 122/159/96 123/56/96 124/22/96
f 121/75/97 118/74/97 29/92/97 122/90/97
f 29/160/8 120/161/8 15/28/8 28/28/8
f 153/162/98 138/163/98 178/163/98 164/162/98
f 147/164/99 148/165/99 181/165/99 182/164/99
f 154/66/100 126/65/100 125/166/100 155/167/100
f 127/61/101 150/60/101 149/168/101 128/169/101
f 158/170/102 145/171/102 146/172/102 157/173/102
f 144/6/103 159/5/103 160/174/103 143/175/103
f 133/7/104 144/6/104 143/175/104 134/176/104
f 135/177/105 146/172/105 145/171/105 136/178/105
f 141/179/106 152/180/106 176/180/106 183/179/106
f 152/181/107 139/182/107 173/182/107 176/181/107
f 242/183/108 239/184/108 233/34/108 265/185/108 290/186/108 297/187/108 268/188/108 235/36/108
f 140/189/109 139/182/109 149/190/109 150/26/109
f 130/191/110 140/189/110 150/26/110 151/25/110
f 139/182/111 152/181/111 129/192/111 149/190/111
f 138/163/112 153/162/112 132/95/112 154/66/112
f 137/193/113 138/163/113 154/66/113 155/194/113
f 156/195/114 137/193/114 155/194/114 131/196/114
f 148/165/115 147/164/115 158/170/115 157/173/115
f 141/179/116 142/197/116 160/174/116 159/5/116
f 142/197/117 130/198/117 151/174/117 160/174/117
f 152/180/118 141/179/118 159/5/118 129/4/118
f 153/199/119 148/165/119 157/173/119 132/173/119
f 147/164/120 156/200/120 131/201/120 158/170/120
f 148/165/125 153/199/125 164/199/125 181/165/125
f 139/182/126 140/189/126 174/189/126 173/182/126
f 142/197/127 141/179/127 183/179/127 184/197/127
f 138/163/128 137/193/128 179/193/128 178/163/128
f 156/200/129 147/164/129 182/164/129 163/200/129
f 140/189/130 130/191/130 161/191/130 174/189/130
f 130/198/131 142/197/131 184/197/131 161/198/131
f 137/193/132 156/195/132 163/195/132 179/193/132
f 296/46/157 303/218/157 349/218/157 350/46/157
f 270/219/158 319/220/158 316/221/158 287/222/158 204/223/158 281/224/158 313/225/158 314/226/158 275/227/158 202/59/158 201/29/158
f 303/218/159 285/228/159 348/228/159 349/218/159
f 131/201/160 155/229/160 125/230/160 1/231/160 4/232/160 197/233/160 198/234/160 136/178/160 145/171/160 158/170/160
f 232/235/6 212/236/6 205/35/6 233/34/6
f 231/237/6 213/238/6 207/239/6 214/240/6
f 300/241/161 293/242/161 279/243/161 229/244/161 240/244/161 237/245/161 231/237/161 283/246/161
f 213/238/6 229/244/6 215/247/6 207/239/6
f 206/248/6 228/54/6 229/244/6 213/238/6
f 215/247/6 204/223/6 287/251/6 286/252/6 234/253/6
f 230/51/6 206/248/6 213/238/6 231/237/6
f 302/254/163 289/255/163 276/256/163 232/235/163 238/257/163 243/258/163 234/253/163 286/259/163
f 214/240/6 207/239/6 212/236/6 232/235/6
f 212/236/6 234/253/6 235/36/6 205/35/6
f 207/239/6 215/247/6 234/253/6 212/236/6
f 318/260/6 297/187/6 290/261/6 309/262/6 310/263/6 289/264/6 302/254/6 317/265/6
f 306/266/6 299/267/6 294/48/6 315/268/6 312/269/6 293/270/6 300/271/6 305/272/6
f 284/273/6 283/246/6 231/237/6 214/240/6 203/274/6
f 229/244/6 279/275/6 281/224/6 204/223/6 215/247/6
f 5/276/164 262/277/164 307/278/164 304/279/164 284/273/164 203/274/164 278/280/164 311/281/164 308/282/164 267/283/164 6/284/164
f 197/39/166 271/38/166 270/287/166 201/29/166 198/31/166
f 275/288/167 274/289/167 200/290/167 199/73/167 202/59/167
f 203/274/6 214/240/6 232/235/6 276/256/6 278/293/6
f 6/284/170 267/295/170 266/32/170 4/40/170 1/296/170
f 200/290/6 274/298/6 273/299/6 228/54/6 206/248/6 230/51/6 260/300/6 263/301/6 3/302/6
f 211/303/172 216/304/172 229/244/172 228/54/172
f 217/249/173 209/292/173 230/51/173 231/237/173
f 210/305/173 218/306/173 232/235/173 233/34/173
f 219/294/172 208/297/172 235/36/172 234/253/172
f 209/292/174 221/291/174 236/52/174 230/51/174
f 220/250/175 217/249/175 231/237/175 237/245/175
f 218/306/176 223/2/176 238/257/176 232/235/176
f 222/285/177 210/305/177 233/34/177 239/184/177
f 216/304/178 224/307/178 240/244/178 229/244/178
f 225/308/179 211/303/179 228/54/179 241/53/179
f 208/297/180 226/286/180 242/183/180 235/36/180
f 227/1/181 219/294/181 234/253/181 243/258/181
f 226/286/182 222/285/182 239/184/182 242/183/182
f 223/2/183 227/1/183 243/258/183 238/257/183
f 221/291/184 225/308/184 241/53/184 236/52/184
f 224/307/185 220/250/185 237/245/185 240/244/185
f 268/188/6 319/220/6 271/38/6
f 273/299/6 274/298/6 314/226/6
f 276/256/6 311/309/6 278/280/6
f 279/243/6 313/310/6 281/224/6
f 304/279/6 283/311/6 284/273/6
f 316/221/6 286/312/6 287/251/6
f 304/279/200 305/272/200 300/241/200 283/246/200
f 260/50/201 299/49/201 306/266/201 307/278/201
f 308/282/202 309/262/202 290/186/202 265/185/202
f 276/256/203 289/255/203 310/263/203 311/281/203
f 312/269/204 313/225/204 279/243/204 293/242/204
f 294/48/205 273/47/205 314/226/205 315/268/205
f 316/221/206 317/265/206 302/254/206 286/259/206
f 318/260/207 319/220/207 268/188/207 297/187/207
f 2/313/208 3/302/208 263/314/208 262/315/208 5/276/208
f 282/14/209 301/13/209 305/272/209 304/279/209
f 298/316/209 261/317/209 307/278/209 306/266/209
f 264/318/209 291/319/209 309/262/209 308/282/209
f 288/320/209 277/321/209 311/281/209 310/263/209
f 292/322/210 280/323/210 313/225/210 312/269/210
f 272/324/210 295/325/210 315/268/210 314/226/210
f 285/228/210 303/218/210 317/265/210 316/221/210
f 296/46/210 269/45/210 319/220/210 318/260/210
f 261/317/211 282/14/211 304/279/211 307/278/211
f 277/321/211 264/318/211 308/282/211 311/281/211
f 301/13/211 298/316/211 306/266/211 305/272/211
f 291/319/211 288/320/211 310/263/211 309/262/211
f 269/45/212 285/228/212 316/221/212 319/220/212
f 280/323/212 272/324/212 314/226/212 313/225/212
f 303/218/212 296/46/212 318/260/212 317/265/212
f 295/325/212 292/322/212 312/269/212 315/268/212
f 292/322/157 295/325/157 347/325/157 344/322/157
f 282/14/216 261/317/216 339/317/216 336/14/216
f 261/317/217 298/316/217 338/316/217 339/317/217
f 264/318/218 277/321/218 343/321/218 340/318/218
f 291/319/219 264/318/219 340/318/219 341/319/219
f 298/316/220 301/13/220 337/13/220 338/316/220
f 277/321/221 288/320/221 342/320/221 343/321/221
f 288/320/220 291/319/220 341/319/220 342/320/220
f 280/323/222 292/322/222 344/322/222 345/323/222
f 285/228/223 269/45/223 351/45/223 348/228/223
f 295/325/224 272/324/224 346/324/224 347/325/224
f 272/324/223 280/323/223 345/323/223 346/324/223
f 275/288/233 314/226/233 274/289/233
f 319/220/234 270/287/234 271/38/234
f 267/295/235 308/282/235 266/32/235
f 265/33/6 266/32/6 308/282/6
f 262/315/236 263/314/236 307/278/236
f 263/314/6 260/50/6 307/278/6
usemtl M_Noir_Profond
f 37/76/17 33/76/17 44/76/17
f 26/55/18 27/55/18 33/76/18 20/81/18
f 35/84/19 34/85/19 24/44/19 25/58/19
f 30/86/20 51/87/20 19/28/20 21/27/20
f 20/81/20 31/88/20 22/64/20 26/55/20
f 34/85/19 30/86/19 21/27/19 24/44/19
f 31/88/19 35/84/19 25/58/19 22/64/19
f 23/82/21 33/76/21 27/89/21 122/90/21
f 32/87/21 36/91/21 29/92/21 28/28/21
f 36/91/21 23/82/21 122/90/21 29/92/21
f 33/76/22 37/76/22 45/76/22 52/93/22 20/81/22
f 31/88/23 20/81/23 53/94/23
f 38/98/28 39/99/28 40/98/28
f 41/100/29 42/101/29 43/98/29
f 44/76/30 45/102/30 37/76/30
f 46/76/31 47/103/31 48/104/31
f 44/76/33 42/98/33 41/100/33 45/76/33
f 51/87/34 30/86/34 49/109/34
f 49/109/35 50/110/35 51/87/35
f 52/93/36 53/111/36 20/81/36
f 49/109/37 53/94/37 52/93/37 50/87/37
f 171/202/121 162/203/121 186/203/121 195/202/121
f 162/204/122 165/205/122 189/205/122 186/204/122
f 168/206/123 180/207/123 187/207/123 192/206/123
f 175/208/124 172/209/124 196/209/124 185/208/124
f 166/210/133 165/205/133 173/182/133 174/189/133
f 175/211/134 166/210/134 174/189/134 161/191/134
f 165/205/135 162/204/135 176/181/135 173/182/135
f 167/212/136 177/213/136 164/162/136 178/163/136
f 168/206/137 167/212/137 178/163/137 179/193/137
f 180/207/138 168/206/138 179/193/138 163/195/138
f 169/214/139 170/215/139 182/164/139 181/165/139
f 171/202/140 172/209/140 184/197/140 183/179/140
f 172/209/141 175/208/141 161/198/141 184/197/141
f 162/203/142 171/202/142 183/179/142 176/180/142
f 177/216/143 169/214/143 181/165/143 164/199/143
f 170/215/144 180/217/144 163/200/144 182/164/144
f 170/215/149 169/214/149 193/214/149 194/215/149
f 177/213/150 167/212/150 191/212/150 188/213/150
f 169/214/151 177/216/151 188/216/151 193/214/151
f 165/205/152 166/210/152 190/210/152 189/205/152
f 172/209/153 171/202/153 195/202/153 196/209/153
f 167/212/154 168/206/154 192/206/154 191/212/154
f 180/217/155 170/215/155 194/215/155 187/217/155
f 166/210/156 175/211/156 185/211/156 190/210/156
f 320/326/213 323/327/213 355/327/213 352/326/213
f 328/328/214 331/329/214 363/329/214 360/328/214
f 321/330/215 320/326/215 352/326/215 353/330/215
f 335/331/10 334/332/10 366/332/10 367/331/10
f 320/326/225 321/330/225 337/13/225 336/14/225
f 322/333/225 323/327/225 339/317/225 338/316/225
f 324/334/225 325/335/225 341/319/225 340/318/225
f 326/336/225 327/337/225 343/321/225 342/320/225
f 328/328/226 329/338/226 345/323/226 344/322/226
f 330/339/226 331/329/226 347/325/226 346/324/226
f 332/340/226 333/341/226 349/218/226 348/228/226
f 334/332/226 335/331/226 351/45/226 350/46/226
f 323/327/211 320/326/211 336/14/211 339/317/211
f 327/337/211 324/334/211 340/318/211 343/321/211
f 321/330/211 322/333/211 338/316/211 337/13/211
f 325/335/211 326/336/211 342/320/211 341/319/211
f 335/331/212 332/340/212 348/228/212 351/45/212
f 329/338/212 330/339/212 346/324/212 345/323/212
f 333/341/212 334/332/212 350/46/212 349/218/212
f 331/329/212 328/328/212 344/322/212 347/325/212
f 323/327/217 322/333/217 354/333/217 355/327/217
f 324/334/216 327/337/216 359/337/216 356/334/216
f 325/335/219 324/334/219 356/334/219 357/335/219
f 322/333/229 321/330/229 353/330/229 354/333/229
f 327/337/230 326/336/230 358/336/230 359/337/230
f 326/336/229 325/335/229 357/335/229 358/336/229
f 329/338/231 328/328/231 360/328/231 361/338/231
f 332/340/223 335/331/223 367/331/223 364/340/223
f 331/329/224 330/339/224 362/339/224 363/329/224
f 330/339/223 329/338/223 361/338/223 362/339/223
f 333/341/232 332/340/232 364/340/232 365/341/232
f 334/332/214 333/341/214 365/341/214 366/332/214
f 50/87/237 41/100/237 51/87/237
f 32/87/237 41/100/237 43/98/237 42/101/237
f 32/87/238 28/28/238 19/28/238 51/87/238 41/100/238
usemtl M_Orange
f 33/76/8 23/82/8 78/82/8 67/76/8
f 44/76/24 33/76/24 67/76/24 86/76/24
f 31/88/8 53/94/8 107/96/8 58/97/8
f 50/87/26 52/93/26 110/93/26 115/87/26
f 111/105/32 98/106/32 95/107/32 114/108/32
f 49/109/12 30/86/12 55/86/12 103/109/12
f 36/91/12 32/87/12 62/87/12 83/91/12
f 32/87/38 42/98/38 91/98/38 62/87/38
f 54/112/19 70/113/19 75/114/19 59/115/19
f 115/87/39 94/116/39 41/100/39 50/87/39
f 30/86/12 34/85/12 71/117/12 55/86/12
f 34/85/40 35/84/40 74/84/40 71/85/40
f 42/98/26 44/76/26 86/76/26 91/98/26
f 63/118/41 66/119/41 79/120/41 82/121/41
f 87/122/42 66/123/42 63/124/42 90/125/42
f 23/82/43 36/91/43 83/91/43 78/82/43
f 45/76/44 41/100/44 94/116/44 99/76/44
f 35/84/8 31/88/8 58/88/8 74/84/8
f 53/94/45 49/109/45 103/109/45 107/94/45
f 71/85/46 74/84/46 76/126/46 73/127/46
f 73/127/47 76/126/47 77/128/47 72/129/47
f 72/129/48 77/128/48 75/114/48 70/113/48
f 70/113/49 54/112/49 56/130/49 72/129/49
f 72/129/50 56/130/50 57/86/50 73/127/50
f 73/127/51 57/86/51 55/86/51 71/117/51
f 74/84/52 58/88/52 60/88/52 76/126/52
f 76/126/53 60/88/53 61/131/53 77/128/53
f 77/128/54 61/131/54 59/115/54 75/114/54
f 79/120/55 66/119/55 68/132/55 81/133/55
f 81/133/56 68/132/56 69/76/56 80/134/56
f 80/134/57 69/76/57 67/76/57 78/82/57
f 63/118/58 82/121/58 84/135/58 65/136/58
f 65/136/59 84/135/59 85/137/59 64/98/59
f 64/98/60 85/137/60 83/91/60 62/87/60
f 78/82/61 83/91/61 85/137/61 80/134/61
f 80/134/62 85/137/62 84/135/62 81/133/62
f 81/133/63 84/135/63 82/121/63 79/120/63
f 87/122/64 90/125/64 92/138/64 89/139/64
f 89/139/65 92/138/65 93/140/65 88/141/65
f 88/141/66 93/140/66 91/98/66 86/76/66
f 95/107/67 98/106/67 100/142/67 97/143/67
f 97/143/68 100/142/68 101/144/68 96/145/68
f 96/145/69 101/144/69 99/76/69 94/116/69
f 52/93/70 45/76/70 99/76/70 110/93/70
f 86/76/71 67/76/71 69/76/71 88/141/71
f 88/141/72 69/76/72 68/132/72 89/139/72
f 89/139/73 68/132/73 66/123/73 87/122/73
f 62/87/74 91/98/74 93/140/74 64/98/74
f 64/98/75 93/140/75 92/138/75 65/136/75
f 65/136/76 92/138/76 90/125/76 63/124/76
f 102/146/77 106/147/77 108/148/77 104/149/77
f 104/149/78 108/148/78 109/150/78 105/151/78
f 105/151/79 109/150/79 107/94/79 103/109/79
f 111/105/80 114/108/80 116/152/80 113/153/80
f 113/153/81 116/152/81 117/154/81 112/155/81
f 112/155/82 117/154/82 115/87/82 110/93/82
f 114/108/83 95/107/83 97/143/83 116/152/83
f 96/145/84 117/154/84 116/152/84 97/143/84
f 94/116/85 115/87/85 117/154/85 96/145/85
f 54/156/86 102/146/86 104/149/86 56/130/86
f 56/130/87 104/149/87 105/151/87 57/86/87
f 57/86/88 105/151/88 103/109/88 55/86/88
f 101/144/89 112/155/89 110/93/89 99/76/89
f 100/142/90 113/153/90 112/155/90 101/144/90
f 111/105/91 113/153/91 100/142/91 98/106/91
f 58/97/92 107/96/92 109/150/92 60/88/92
f 60/88/93 109/150/93 108/148/93 61/131/93
f 61/131/94 108/148/94 106/147/94 59/157/94
f 102/146/20 54/156/20 59/157/20 106/147/20
usemtl M_Cyan
f 190/210/145 185/211/145 186/204/145 189/205/145
f 188/213/146 191/212/146 192/206/146 187/207/146
f 185/208/147 196/209/147 195/202/147 186/203/147
f 193/214/148 188/216/148 187/217/148 194/215/148
f 352/326/227 355/327/227 354/333/227 353/330/227
f 356/334/227 359/337/227 358/336/227 357/335/227
f 362/339/228 361/338/228 360/328/228 363/329/228
f 364/340/228 367/331/228 366/332/228 365/341/228
usemtl M_Noir_Bleuté
f 227/1/1 223/2/1 247/2/1 250/1/1
f 217/249/162 220/250/162 244/250/162 255/249/162
f 222/285/165 226/286/165 251/286/165 246/285/165
f 221/291/168 209/292/168 254/292/168 245/291/168
f 219/294/169 227/1/169 250/1/169 258/294/169
f 208/297/171 219/294/171 258/294/171 259/297/171
f 245/291/186 244/250/186 249/307/186 248/308/186
f 251/286/187 250/1/187 247/2/187 246/285/187
f 254/292/188 255/249/188 244/250/188 245/291/188
f 256/306/189 257/305/189 246/285/189 247/2/189
f 253/304/190 252/303/190 248/308/190 249/307/190
f 259/297/191 258/294/191 250/1/191 251/286/191
f 223/2/192 218/306/192 256/306/192 247/2/192
f 225/308/193 221/291/193 245/291/193 248/308/193
f 210/305/194 222/285/194 246/285/194 257/305/194
f 216/304/171 211/303/171 252/303/171 253/304/171
f 220/250/195 224/307/195 249/307/195 244/250/195
f 224/307/196 216/304/196 253/304/196 249/307/196
f 209/292/197 217/249/197 255/249/197 254/292/197
f 211/303/198 225/308/198 248/308/198 252/303/198
f 218/306/197 210/305/197 257/305/197 256/306/197
f 226/286/199 208/297/199 259/297/199 251/286/199
