# Blender 4.2.3 LTS
# www.blender.org
mtllib SM_Microwave.mtl
o SM_Microwave
v 0.035398 0.000000 -0.250000
v 0.035398 0.186291 0.250000
v 0.035398 0.000000 0.250000
v 0.035398 0.186291 -0.250000
v -0.134480 0.000000 0.250000
v -0.150000 0.000000 0.234480
v -0.150000 0.000000 -0.234480
v -0.134480 0.000000 -0.250000
v 0.150000 0.000000 0.234480
v 0.134480 0.000000 0.250000
v 0.150000 0.208796 -0.125545
v 0.134480 0.000000 -0.250000
v 0.150000 0.000000 -0.234480
v 0.134480 0.186291 -0.250000
v 0.150000 0.192468 -0.228303
v 0.150000 0.208796 0.211975
v 0.134480 0.186291 0.250000
v 0.035398 0.450000 0.238313
v 0.035398 0.438313 0.250000
v 0.035398 0.438313 -0.250000
v 0.035398 0.450000 -0.238313
v -0.138313 0.450000 0.229640
v -0.150000 0.438313 0.234480
v -0.129640 0.450000 0.238313
v -0.134480 0.438313 0.250000
v -0.129640 0.450000 -0.238313
v -0.134480 0.438313 -0.250000
v -0.138313 0.450000 -0.229640
v -0.150000 0.438313 -0.234480
v 0.129640 0.450000 0.238313
v 0.134480 0.438313 0.250000
v 0.138313 0.450000 0.229640
v 0.150000 0.415808 0.211975
v 0.138313 0.450000 -0.229640
v 0.150000 0.432136 -0.228303
v 0.129640 0.450000 -0.238313
v 0.134480 0.438313 -0.250000
v 0.150000 0.175108 0.223298
v 0.150000 0.438313 0.234480
v -0.070924 0.208796 0.211975
v -0.070924 0.208796 -0.125545
v -0.070924 0.415808 -0.125545
v -0.070924 0.415808 0.211975
v 0.088337 0.000000 -0.250000
v 0.083249 0.000000 -0.250000
v 0.083249 0.000000 0.250000
v 0.088337 0.000000 0.250000
v 0.088337 0.138467 0.250000
v 0.083249 0.138467 0.250000
v 0.083249 0.133378 0.250000
v 0.088337 0.133378 0.250000
v 0.083249 0.133378 -0.250000
v 0.083249 0.138467 -0.250000
v 0.088337 0.138467 -0.250000
v 0.088337 0.133378 -0.250000
v 0.088337 0.186291 0.250000
v 0.083249 0.186291 0.250000
v 0.083249 0.186291 -0.250000
v 0.088337 0.186291 -0.250000
v 0.035398 0.138467 0.250000
v 0.035398 0.133378 0.250000
v 0.035398 0.133378 -0.250000
v 0.035398 0.138467 -0.250000
v 0.028292 0.133378 0.250000
v 0.029428 0.138467 0.250000
v 0.022594 0.138467 0.250000
v -0.018007 0.183746 0.250000
v -0.015735 0.188835 0.250000
v -0.018007 0.183746 -0.250000
v -0.015735 0.188835 -0.250000
v 0.028292 0.133378 -0.250000
v 0.022594 0.138467 -0.250000
v 0.029428 0.138467 -0.250000
v 0.138313 0.450000 -0.148671
v 0.138313 0.450000 -0.143582
v 0.150000 0.149649 -0.132399
v 0.150000 0.133378 -0.143582
v 0.150000 0.133378 -0.148671
v 0.150000 0.138467 -0.148671
v 0.150000 0.000000 -0.143582
v 0.150000 0.000000 -0.148671
v -0.134480 0.133378 0.250000
v -0.134480 0.138467 0.250000
v -0.150000 0.138467 0.234480
v -0.150000 0.133378 0.234480
v -0.150000 0.133378 -0.234480
v -0.150000 0.138467 -0.234480
v -0.134480 0.138467 -0.250000
v -0.134480 0.133378 -0.250000
v 0.134480 0.133378 -0.250000
v 0.134480 0.138467 -0.250000
v 0.150000 0.138467 -0.234480
v 0.150000 0.133378 -0.234480
v 0.150000 0.133378 0.234480
v 0.150000 0.149649 0.223298
v 0.134480 0.138467 0.250000
v 0.134480 0.133378 0.250000
v -0.150000 0.188835 0.234480
v -0.150000 0.183746 0.234480
v -0.134480 0.183746 0.250000
v -0.134480 0.188835 0.250000
v -0.150000 0.183746 -0.234480
v -0.150000 0.188835 -0.234480
v -0.134480 0.188835 -0.250000
v -0.134480 0.183746 -0.250000
v 0.083249 0.450000 -0.238313
v 0.088337 0.450000 -0.238313
v 0.088337 0.438313 -0.250000
v 0.083249 0.438313 -0.250000
v 0.083249 0.438313 0.250000
v 0.088337 0.438313 0.250000
v 0.088337 0.450000 0.238313
v 0.083249 0.450000 0.238313
v 0.150000 0.192468 -0.154848
v 0.150000 0.175108 -0.132399
v 0.150000 0.432136 -0.154848
v 0.150000 0.438313 -0.143582
v 0.035398 0.450000 -0.143582
v 0.035398 0.450000 -0.148671
v -0.138313 0.450000 -0.148671
v -0.138313 0.450000 -0.143582
v 0.088337 0.450000 -0.148671
v 0.083249 0.450000 -0.148671
v 0.083249 0.450000 -0.143582
v 0.088337 0.450000 -0.143582
v -0.150000 0.438313 -0.148671
v -0.150000 0.438313 -0.143582
v -0.150000 0.133378 -0.148671
v -0.150000 0.133378 -0.143582
v -0.150000 0.138467 -0.143582
v -0.150000 0.138467 -0.148671
v -0.150000 0.000000 -0.148671
v -0.150000 0.000000 -0.143582
v -0.150000 0.188835 -0.143582
v -0.150000 0.188835 -0.148671
v -0.150000 0.183746 -0.148671
v -0.150000 0.183746 -0.143582
v 0.035398 0.000000 -0.143582
v 0.035398 0.000000 -0.148671
v 0.088337 0.000000 -0.143582
v 0.083249 0.000000 -0.143582
v 0.083249 0.000000 -0.148671
v 0.088337 0.000000 -0.148671
v 0.088337 0.133378 0.245165
v 0.088337 0.138467 0.245165
v 0.083249 0.138467 0.245165
v 0.083249 0.133378 0.245165
v 0.088337 0.133378 -0.245165
v 0.083249 0.133378 -0.245165
v 0.083249 0.138467 -0.245165
v 0.088337 0.138467 -0.245165
v 0.022594 0.138467 0.245165
v 0.028292 0.133378 0.245165
v 0.029428 0.138467 0.245165
v 0.029428 0.138467 -0.245165
v 0.028292 0.133378 -0.245165
v 0.022594 0.138467 -0.245165
v 0.145165 0.138467 -0.148671
v 0.145165 0.138467 -0.143582
v 0.145165 0.133378 -0.143582
v 0.145165 0.133378 -0.148671
v 0.088337 0.445165 -0.143582
v 0.088337 0.445165 -0.148671
v 0.083249 0.445165 -0.148671
v 0.083249 0.445165 -0.143582
v -0.145165 0.138467 -0.148671
v -0.145165 0.133378 -0.148671
v -0.145165 0.133378 -0.143582
v -0.145165 0.138467 -0.143582
v -0.145165 0.183746 -0.143582
v -0.145165 0.188835 -0.143582
v -0.145165 0.188835 -0.148671
v -0.145165 0.183746 -0.148671
v 0.088337 0.004835 -0.148671
v 0.088337 0.004835 -0.143582
v 0.083249 0.004835 -0.143582
v 0.083249 0.004835 -0.148671
v 0.035398 0.133378 -0.245165
v 0.035398 0.138467 -0.245165
v 0.083249 0.186291 -0.245165
v 0.088337 0.186291 -0.245165
v 0.088337 0.186291 0.245165
v 0.083249 0.186291 0.245165
v 0.088337 0.004835 -0.245165
v 0.083249 0.004835 -0.245165
v 0.083249 0.004835 0.245165
v 0.088337 0.004835 0.245165
v 0.035398 0.138467 0.245165
v 0.035398 0.133378 0.245165
v -0.015735 0.188835 0.245165
v -0.018007 0.183746 0.245165
v -0.018007 0.183746 -0.245165
v -0.015735 0.188835 -0.245165
v -0.145165 0.188835 0.232478
v -0.145165 0.183746 0.232478
v -0.132478 0.183746 0.245165
v -0.132478 0.188835 0.245165
v -0.145165 0.133378 -0.232478
v -0.145165 0.138467 -0.232478
v -0.132478 0.138467 -0.245165
v -0.132478 0.133378 -0.245165
v 0.132478 0.133378 -0.245165
v 0.132478 0.138467 -0.245165
v 0.145165 0.138467 -0.232478
v 0.145165 0.133378 -0.232478
v 0.145165 0.133378 0.232478
v 0.145165 0.138467 0.232478
v 0.132478 0.138467 0.245165
v 0.132478 0.133378 0.245165
v -0.132478 0.133378 0.245165
v -0.132478 0.138467 0.245165
v -0.145165 0.138467 0.232478
v -0.145165 0.133378 0.232478
v -0.145165 0.183746 -0.232478
v -0.145165 0.188835 -0.232478
v -0.132478 0.188835 -0.245165
v -0.132478 0.183746 -0.245165
v 0.145165 0.186291 -0.148671
v 0.145165 0.186291 -0.143582
v 0.145165 0.004835 -0.143582
v 0.145165 0.004835 -0.148671
v 0.145165 0.436310 -0.148671
v 0.145165 0.436310 -0.143582
v 0.136310 0.445165 -0.148671
v 0.136310 0.445165 -0.143582
v 0.083249 0.445165 -0.236310
v 0.088337 0.445165 -0.236310
v 0.088337 0.436310 -0.245165
v 0.083249 0.436310 -0.245165
v 0.083249 0.436310 0.245165
v 0.088337 0.436310 0.245165
v 0.088337 0.445165 0.236310
v 0.083249 0.445165 0.236310
v 0.035398 0.445165 -0.143582
v 0.035398 0.445165 -0.148671
v -0.136310 0.445165 -0.148671
v -0.136310 0.445165 -0.143582
v -0.145165 0.436310 -0.148671
v -0.145165 0.436310 -0.143582
v -0.145165 0.004835 -0.148671
v -0.145165 0.004835 -0.143582
v 0.035398 0.004835 -0.143582
v 0.035398 0.004835 -0.148671
v 0.150000 0.186291 -0.234480
v 0.150000 0.438313 -0.234480
v 0.150000 0.186291 -0.148671
v 0.150000 0.438313 -0.148671
v 0.146870 0.194349 -0.226422
v 0.146870 0.430255 -0.226422
v 0.146870 0.194349 -0.156729
v 0.146870 0.430255 -0.156729
v 0.146870 0.192468 -0.228303
v 0.146870 0.432136 -0.228303
v 0.146870 0.192468 -0.154848
v 0.146870 0.432136 -0.154848
v 0.150000 0.415808 -0.125545
v 0.153289 0.196966 -0.223806
v 0.150673 0.194349 -0.226422
v 0.150673 0.430255 -0.226422
v 0.153289 0.423804 -0.219971
v 0.150673 0.194349 -0.156729
v 0.153289 0.196966 -0.159345
v 0.153289 0.423804 -0.163180
v 0.150673 0.430255 -0.156729
v 0.155637 0.415808 0.211975
v 0.162372 0.393811 0.189978
v 0.162372 0.393811 -0.058307
v 0.155637 0.415808 -0.125545
v 0.155637 0.208796 0.211975
v 0.162372 0.230793 0.189978
v 0.162372 0.230793 -0.058307
v 0.155637 0.208796 -0.125545
v 0.162372 0.409073 0.205240
v 0.162372 0.409073 -0.118810
v 0.162372 0.215531 0.205240
v 0.162372 0.215531 -0.118810
v 0.153289 0.344526 -0.219971
v 0.153289 0.344526 -0.163180
v 0.153289 0.340691 -0.159345
v 0.153289 0.427638 -0.159345
v 0.153289 0.427638 -0.223806
v 0.153289 0.340691 -0.223806
v 0.151130 0.346538 -0.165192
v 0.151130 0.421791 -0.165192
v 0.151130 0.421791 -0.217959
v 0.151130 0.346538 -0.217959
v 0.151130 0.344526 -0.163180
v 0.151130 0.423804 -0.163180
v 0.151130 0.423804 -0.219971
v 0.151130 0.344526 -0.219971
v 0.150203 0.346538 -0.165192
v 0.150203 0.421791 -0.165192
v 0.150203 0.421791 -0.217959
v 0.150203 0.346538 -0.217959
v 0.153289 0.268829 -0.223806
v 0.153289 0.268829 -0.159345
v 0.153289 0.340691 -0.191575
v 0.153289 0.268829 -0.191575
v 0.153289 0.232897 -0.223806
v 0.153289 0.304760 -0.159345
v 0.153289 0.340691 -0.175460
v 0.153289 0.304760 -0.223806
v 0.153289 0.232897 -0.159345
v 0.153289 0.340691 -0.207691
v 0.153289 0.268829 -0.175460
v 0.153289 0.268829 -0.207691
v 0.153289 0.232897 -0.191575
v 0.153289 0.304760 -0.191575
v 0.153289 0.304760 -0.207691
v 0.153289 0.232897 -0.207691
v 0.153289 0.232897 -0.175460
v 0.153289 0.304760 -0.175460
v 0.153289 0.307867 -0.172353
v 0.153289 0.337584 -0.172353
v 0.153289 0.337584 -0.162453
v 0.153289 0.307867 -0.162453
v 0.153289 0.236004 -0.172353
v 0.153289 0.265721 -0.172353
v 0.153289 0.265721 -0.162453
v 0.153289 0.236004 -0.162453
v 0.153289 0.236004 -0.204583
v 0.153289 0.265721 -0.204583
v 0.153289 0.265721 -0.194683
v 0.153289 0.236004 -0.194683
v 0.153289 0.307867 -0.204583
v 0.153289 0.337584 -0.204583
v 0.153289 0.337584 -0.194683
v 0.153289 0.307867 -0.194683
v 0.153289 0.271936 -0.204583
v 0.153289 0.301653 -0.204583
v 0.153289 0.301653 -0.194683
v 0.153289 0.271936 -0.194683
v 0.153289 0.271936 -0.220698
v 0.153289 0.301653 -0.220698
v 0.153289 0.301653 -0.210798
v 0.153289 0.271936 -0.210798
v 0.153289 0.307867 -0.220698
v 0.153289 0.337584 -0.220698
v 0.153289 0.337584 -0.210798
v 0.153289 0.307867 -0.210798
v 0.153289 0.229790 -0.191575
v 0.153289 0.229790 -0.175460
v 0.153289 0.229790 -0.162453
v 0.153289 0.200073 -0.162453
v 0.153289 0.200073 -0.220698
v 0.153289 0.229790 -0.220698
v 0.153289 0.229790 -0.207691
v 0.153289 0.236004 -0.220698
v 0.153289 0.265721 -0.220698
v 0.153289 0.265721 -0.210798
v 0.153289 0.236004 -0.210798
v 0.153289 0.236004 -0.188468
v 0.153289 0.265721 -0.188468
v 0.153289 0.265721 -0.178568
v 0.153289 0.236004 -0.178568
v 0.153289 0.271936 -0.172353
v 0.153289 0.301653 -0.172353
v 0.153289 0.301653 -0.162453
v 0.153289 0.271936 -0.162453
v 0.153289 0.271936 -0.188468
v 0.153289 0.301653 -0.188468
v 0.153289 0.301653 -0.178568
v 0.153289 0.271936 -0.178568
v 0.153289 0.307867 -0.188468
v 0.153289 0.337584 -0.188468
v 0.153289 0.337584 -0.178568
v 0.153289 0.307867 -0.178568
v 0.152354 0.337584 -0.172353
v 0.152354 0.307867 -0.172353
v 0.152354 0.307867 -0.162453
v 0.152354 0.337584 -0.162453
v 0.152354 0.265721 -0.172353
v 0.152354 0.236004 -0.172353
v 0.152354 0.236004 -0.162453
v 0.152354 0.265721 -0.162453
v 0.152354 0.265721 -0.204583
v 0.152354 0.236004 -0.204583
v 0.152354 0.236004 -0.194683
v 0.152354 0.265721 -0.194683
v 0.152354 0.337584 -0.204583
v 0.152354 0.307867 -0.204583
v 0.152354 0.307867 -0.194683
v 0.152354 0.337584 -0.194683
v 0.152354 0.301653 -0.204583
v 0.152354 0.271936 -0.204583
v 0.152354 0.271936 -0.194683
v 0.152354 0.301653 -0.194683
v 0.152354 0.301653 -0.220698
v 0.152354 0.271936 -0.220698
v 0.152354 0.271936 -0.210798
v 0.152354 0.301653 -0.210798
v 0.152354 0.337584 -0.220698
v 0.152354 0.307867 -0.220698
v 0.152354 0.307867 -0.210798
v 0.152354 0.337584 -0.210798
v 0.152354 0.229790 -0.191575
v 0.152354 0.229790 -0.175460
v 0.152354 0.229790 -0.207691
v 0.152354 0.229790 -0.162453
v 0.152354 0.200073 -0.162453
v 0.152354 0.200073 -0.220698
v 0.152354 0.229790 -0.220698
v 0.152354 0.265721 -0.220698
v 0.152354 0.236004 -0.220698
v 0.152354 0.236004 -0.210798
v 0.152354 0.265721 -0.210798
v 0.152354 0.265721 -0.188468
v 0.152354 0.236004 -0.188468
v 0.152354 0.236004 -0.178568
v 0.152354 0.265721 -0.178568
v 0.152354 0.301653 -0.172353
v 0.152354 0.271936 -0.172353
v 0.152354 0.271936 -0.162453
v 0.152354 0.301653 -0.162453
v 0.152354 0.301653 -0.188468
v 0.152354 0.271936 -0.188468
v 0.152354 0.271936 -0.178568
v 0.152354 0.301653 -0.178568
v 0.152354 0.337584 -0.188468
v 0.152354 0.307867 -0.188468
v 0.152354 0.307867 -0.178568
v 0.152354 0.337584 -0.178568
v 0.150000 0.104124 -0.127691
v 0.150000 0.115506 -0.127691
v 0.150000 0.115506 0.218590
v 0.150000 0.104124 0.218590
v 0.148914 0.115506 -0.127691
v 0.148914 0.104124 -0.127691
v 0.148914 0.104124 0.218590
v 0.148914 0.115506 0.218590
v 0.148914 0.106123 -0.125693
v 0.148914 0.113508 -0.125693
v 0.148914 0.113508 0.216591
v 0.148914 0.106123 0.216591
v 0.148348 0.113508 -0.125693
v 0.148348 0.106123 -0.125693
v 0.148348 0.106123 0.216591
v 0.148348 0.113508 0.216591
v 0.168648 0.401565 -0.085974
v 0.168648 0.401565 -0.093322
v 0.168648 0.222735 -0.085974
v 0.168648 0.222735 -0.093322
v 0.184271 0.387294 -0.085974
v 0.169999 0.401565 -0.085974
v 0.183572 0.391704 -0.085974
v 0.181545 0.395682 -0.085974
v 0.178388 0.398839 -0.085974
v 0.174409 0.400867 -0.085974
v 0.169999 0.401565 -0.093322
v 0.184271 0.387294 -0.099597
v 0.174409 0.400867 -0.093322
v 0.178388 0.398839 -0.093322
v 0.181545 0.395682 -0.093322
v 0.183572 0.391704 -0.093322
v 0.169999 0.222735 -0.085974
v 0.184271 0.237007 -0.085974
v 0.174409 0.223434 -0.085974
v 0.178388 0.225461 -0.085974
v 0.181545 0.228618 -0.085974
v 0.183572 0.232597 -0.085974
v 0.184271 0.237007 -0.093322
v 0.169999 0.222735 -0.099597
v 0.183572 0.232597 -0.093322
v 0.181545 0.228618 -0.093322
v 0.178388 0.225461 -0.093322
v 0.174409 0.223434 -0.093322
v 0.166798 0.397139 -0.079698
v 0.166798 0.227161 -0.079698
v 0.169651 0.227161 -0.079698
v 0.173025 0.227695 -0.079698
v 0.175754 0.229086 -0.079698
v 0.177920 0.231252 -0.079698
v 0.179311 0.233981 -0.079698
v 0.179845 0.237355 -0.079698
v 0.179845 0.386945 -0.079698
v 0.179311 0.390319 -0.079698
v 0.177920 0.393048 -0.079698
v 0.175754 0.395214 -0.079698
v 0.173025 0.396605 -0.079698
v 0.169651 0.397139 -0.079698
v 0.166798 0.227161 -0.099597
v 0.166798 0.397139 -0.099597
v 0.169651 0.397139 -0.099597
v 0.173025 0.396605 -0.099597
v 0.175754 0.395214 -0.099597
v 0.177920 0.393048 -0.099597
v 0.179311 0.390319 -0.099597
v 0.179845 0.386945 -0.099597
v 0.179845 0.237355 -0.099597
v 0.179311 0.233981 -0.099597
v 0.177920 0.231252 -0.099597
v 0.175754 0.229086 -0.099597
v 0.173025 0.227695 -0.099597
v 0.169651 0.227161 -0.099597
v 0.162372 0.401565 -0.079698
v 0.162372 0.401565 -0.099597
v 0.162372 0.222735 -0.079698
v 0.162372 0.222735 -0.099597
v 0.183572 0.391704 -0.079698
v 0.184271 0.387294 -0.079698
v 0.184271 0.387294 -0.093322
v 0.183572 0.391704 -0.099597
v 0.181545 0.395682 -0.079698
v 0.181545 0.395682 -0.099597
v 0.178388 0.398839 -0.079698
v 0.178388 0.398839 -0.099597
v 0.174409 0.400867 -0.079698
v 0.174409 0.400867 -0.099597
v 0.169999 0.401565 -0.079698
v 0.169999 0.401565 -0.099597
v 0.174409 0.223434 -0.079698
v 0.169999 0.222735 -0.079698
v 0.169999 0.222735 -0.093322
v 0.174409 0.223434 -0.099597
v 0.178388 0.225461 -0.079698
v 0.178388 0.225461 -0.099597
v 0.181545 0.228618 -0.079698
v 0.181545 0.228618 -0.099597
v 0.183572 0.232597 -0.079698
v 0.183572 0.232597 -0.099597
v 0.184271 0.237007 -0.079698
v 0.184271 0.237007 -0.099597
v 0.183774 0.387255 -0.087053
v 0.183774 0.387255 -0.092242
v 0.183094 0.391548 -0.093322
v 0.183094 0.391548 -0.085974
v 0.181138 0.395387 -0.093322
v 0.181138 0.395387 -0.085974
v 0.178092 0.398433 -0.093322
v 0.178092 0.398433 -0.085974
v 0.174254 0.400388 -0.092242
v 0.174254 0.400388 -0.087053
v 0.169960 0.401069 -0.092242
v 0.169960 0.401069 -0.087053
v 0.169960 0.223232 -0.087053
v 0.169960 0.223232 -0.093322
v 0.174254 0.223912 -0.092242
v 0.174254 0.223912 -0.087053
v 0.178092 0.225868 -0.093322
v 0.178092 0.225868 -0.085974
v 0.181138 0.228914 -0.093322
v 0.181138 0.228914 -0.085974
v 0.183094 0.232752 -0.093322
v 0.183094 0.232752 -0.085974
v 0.183774 0.237046 -0.092242
v 0.183774 0.237046 -0.087053
v 0.169727 0.401069 -0.087053
v 0.169727 0.401069 -0.092242
v 0.169727 0.223232 -0.087053
v 0.169727 0.223232 -0.092242
v 0.168648 0.401069 -0.085974
v 0.168648 0.401069 -0.093322
v 0.168648 0.223232 -0.085974
v 0.168648 0.223232 -0.093322
v 0.183094 0.391548 -0.087053
v 0.183774 0.387255 -0.085974
v 0.183774 0.387255 -0.093322
v 0.183094 0.391548 -0.092242
v 0.181138 0.395387 -0.087053
v 0.181138 0.395387 -0.092242
v 0.178092 0.398433 -0.087053
v 0.178092 0.398433 -0.092242
v 0.174254 0.400388 -0.085974
v 0.174254 0.400388 -0.093322
v 0.169960 0.401069 -0.085974
v 0.169960 0.401069 -0.093322
v 0.174254 0.223912 -0.085974
v 0.169960 0.223232 -0.085974
v 0.169960 0.223232 -0.092242
v 0.174254 0.223912 -0.093322
v 0.178092 0.225868 -0.087053
v 0.178092 0.225868 -0.092242
v 0.181138 0.228914 -0.087053
v 0.181138 0.228914 -0.092242
v 0.183094 0.232752 -0.087053
v 0.183094 0.232752 -0.092242
v 0.183774 0.237046 -0.085974
v 0.183774 0.237046 -0.093322
v 0.183477 0.387231 -0.087053
v 0.183477 0.387231 -0.092242
v 0.182811 0.391456 -0.092242
v 0.182811 0.391456 -0.087053
v 0.180897 0.395211 -0.092242
v 0.180897 0.395211 -0.087053
v 0.177917 0.398191 -0.092242
v 0.177917 0.398191 -0.087053
v 0.174162 0.400105 -0.092242
v 0.174162 0.400105 -0.087053
v 0.169937 0.400771 -0.092242
v 0.169937 0.400771 -0.087053
v 0.169937 0.223529 -0.087053
v 0.169937 0.223529 -0.092242
v 0.174162 0.224196 -0.092242
v 0.174162 0.224196 -0.087053
v 0.177917 0.226109 -0.092242
v 0.177917 0.226109 -0.087053
v 0.180897 0.229089 -0.092242
v 0.180897 0.229089 -0.087053
v 0.182811 0.232844 -0.092242
v 0.182811 0.232844 -0.087053
v 0.183477 0.237069 -0.092242
v 0.183477 0.237069 -0.087053
v 0.169727 0.400770 -0.087053
v 0.169727 0.400770 -0.092242
v 0.169727 0.223530 -0.087053
v 0.169727 0.223530 -0.092242
v 0.150000 0.186291 -0.143582
v 0.150000 0.138467 -0.143582
v 0.150000 0.138467 0.234480
v 0.150000 0.186291 0.234480
v 0.139063 0.175108 -0.084331
v 0.139063 0.149649 -0.084331
v 0.139063 0.149649 0.175229
v 0.139063 0.175108 0.175229
vn -0.0000 -0.0000 -1.0000
vn -0.0000 -0.0000 1.0000
vn -0.7071 0.7071 -0.0000
vn -1.0000 -0.0000 -0.0000
vn 1.0000 -0.0000 -0.0000
vn 0.7071 0.7071 -0.0000
vn -0.0000 -1.0000 -0.0000
vn 0.7071 -0.0000 -0.7071
vn 0.9751 -0.0000 -0.2219
vn -0.7071 -0.0000 -0.7071
vn 0.7071 -0.0000 0.7071
vn -0.7071 -0.0000 0.7071
vn -0.0000 1.0000 -0.0000
vn -0.0000 0.7071 -0.7071
vn -0.5000 0.7071 0.5000
vn -0.5000 0.7071 -0.5000
vn 0.5000 0.7071 -0.5000
vn 0.5000 0.7071 0.5000
vn -0.0000 0.7071 0.7071
vn 0.7445 0.6676 -0.0000
vn -0.7445 -0.6676 -0.0000
vn 0.7071 -0.7071 -0.0000
vn -0.1564 -0.9877 -0.0000
vn -0.4540 -0.8910 -0.0000
vn -0.7071 -0.7071 -0.0000
vn -0.8910 -0.4540 -0.0000
vn -0.9877 -0.1564 -0.0000
vn -0.9877 0.1564 -0.0000
vn -0.8910 0.4540 -0.0000
vn -0.4540 0.8910 -0.0000
vn -0.1564 0.9877 -0.0000
vn 0.9877 0.1564 -0.0000
vn 0.8910 0.4540 -0.0000
vn 0.4540 0.8910 -0.0000
vn 0.1564 0.9877 -0.0000
vn 0.1564 -0.9877 -0.0000
vn 0.4540 -0.8910 -0.0000
vn 0.8910 -0.4540 -0.0000
vn 0.9877 -0.1564 -0.0000
vn -0.0044 -1.0000 -0.0000
vn 0.9878 0.1558 -0.0000
vn 0.1558 0.9878 -0.0000
vn 0.1558 -0.9878 -0.0000
vn 0.9878 -0.1558 -0.0000
vn -0.0045 1.0000 -0.0000
vn 0.9751 -0.0000 0.2219
vt 0.479908 0.262433
vt 0.618507 0.262911
vt 0.618507 0.404498
vt 0.478495 0.404498
vt 0.479908 0.357891
vt 0.478495 0.845502
vt 0.618507 0.845502
vt 0.618507 0.987035
vt 0.479908 0.986355
vt 0.479908 0.882424
vt 0.618507 0.198436
vt 0.625000 0.197584
vt 0.625000 0.239820
vt 0.618507 0.242240
vt 0.479908 0.196806
vt 0.618507 0.198436
vt 0.479908 0.242240
vt 0.478495 0.448614
vt 0.618507 0.448614
vt 0.618507 0.487067
vt 0.478495 0.487067
vt 0.451926 0.886097
vt 0.477081 0.885514
vt 0.477081 0.986527
vt 0.451926 0.989712
vt 0.451926 0.259217
vt 0.477081 0.262257
vt 0.477081 0.354152
vt 0.451926 0.352016
vt 0.451926 0.805626
vt 0.478495 0.805626
vt 0.451926 0.845502
vt 0.478495 0.762933
vt 0.618507 0.762933
vt 0.618507 0.801386
vt 0.478495 0.801386
vt 0.451926 0.369206
vt 0.479908 0.359030
vt 0.451926 0.404498
vt 0.375000 0.845502
vt 0.449099 0.845502
vt 0.449099 0.873853
vt 0.449099 0.989839
vt 0.375000 0.987067
vt 0.451926 0.404498
vt 0.478495 0.444374
vt 0.451926 0.444374
vt 0.375000 0.507760
vt 0.449099 0.507760
vt 0.449099 0.549730
vt 0.375000 0.549730
vt 0.618507 0.549730
vt 0.618507 0.507760
vt 0.634739 0.510180
vt 0.634739 0.551214
vt 0.451926 0.448614
vt 0.478495 0.448614
vt 0.451926 0.487067
vt 0.323614 0.500000
vt 0.362067 0.500000
vt 0.323614 0.550662
vt 0.279498 0.500000
vt 0.319374 0.500000
vt 0.319374 0.550731
vt 0.279498 0.551478
vt 0.618507 0.507760
vt 0.478495 0.507760
vt 0.618507 0.487067
vt 0.279498 0.554038
vt 0.319374 0.553279
vt 0.319374 0.750000
vt 0.279498 0.750000
vt 0.375000 0.404498
vt 0.449099 0.404498
vt 0.449099 0.444374
vt 0.375000 0.444374
vt 0.479908 0.881039
vt 0.451926 0.872298
vt 0.472282 0.736621
vt 0.458139 0.736621
vt 0.451926 0.007760
vt 0.477081 0.007760
vt 0.477081 0.194177
vt 0.451926 0.193902
vt 0.479908 0.007760
vt 0.618507 0.007760
vt 0.618507 0.195872
vt 0.479908 0.194206
vt 0.478495 0.805626
vt 0.618507 0.805626
vt 0.451926 0.762933
vt 0.451926 0.801386
vt 0.323614 0.553202
vt 0.375000 0.552253
vt 0.375000 0.742240
vt 0.362067 0.750000
vt 0.323614 0.750000
vt 0.618507 0.742240
vt 0.618507 0.552253
vt 0.634739 0.553771
vt 0.634739 0.739820
vt 0.618507 0.444374
vt 0.478495 0.444374
vt 0.451926 0.242240
vt 0.477081 0.242240
vt 0.375000 0.262933
vt 0.449099 0.259118
vt 0.449099 0.367707
vt 0.449099 0.404498
vt 0.479908 0.262433
vt 0.479908 0.242240
vt 0.618507 0.242240
vt 0.375000 0.195643
vt 0.449099 0.196483
vt 0.449099 0.242240
vt 0.375000 0.242240
vt 0.451926 0.742240
vt 0.478495 0.742240
vt 0.479908 0.000000
vt 0.618507 0.000000
vt 0.618507 0.007760
vt 0.479908 0.007760
vt 0.451926 0.000000
vt 0.477081 0.000000
vt 0.451926 0.196509
vt 0.477081 0.196780
vt 0.375000 0.487067
vt 0.449099 0.487067
vt 0.449099 0.762933
vt 0.375000 0.762933
vt 0.449099 0.742240
vt 0.375000 0.007760
vt 0.449099 0.007760
vt 0.449099 0.193872
vt 0.375000 0.193014
vt 0.618507 0.762933
vt 0.618507 0.742240
vt 0.676386 0.554034
vt 0.676386 0.744157
vt 0.641967 0.744157
vt 0.606004 0.562227
vt 0.606004 0.730988
vt 0.125000 0.556986
vt 0.279498 0.554038
vt 0.137933 0.750000
vt 0.125000 0.742240
vt 0.625000 0.448614
vt 0.625000 0.483033
vt 0.680626 0.554056
vt 0.720502 0.554250
vt 0.720502 0.744157
vt 0.680626 0.744157
vt 0.625000 0.001711
vt 0.625000 0.006048
vt 0.625000 0.246804
vt 0.625000 0.258369
vt 0.625000 0.491631
vt 0.625000 0.503196
vt 0.625000 0.746804
vt 0.625000 0.758369
vt 0.625000 0.845502
vt 0.625000 0.983033
vt 0.125000 0.507760
vt 0.137933 0.500000
vt 0.125000 0.554357
vt 0.625000 0.266967
vt 0.625000 0.404498
vt 0.641967 0.505843
vt 0.676386 0.505843
vt 0.676386 0.551473
vt 0.625000 0.766967
vt 0.625000 0.801386
vt 0.625000 0.805626
vt 0.618507 0.805626
vt 0.625000 0.444374
vt 0.618507 0.444374
vt 0.375000 0.000000
vt 0.449099 0.000000
vt 0.383828 0.734255
vt 0.383828 0.560239
vt 0.490998 0.562227
vt 0.478495 0.552366
vt 0.618507 0.552366
vt 0.615075 0.510781
vt 0.615075 0.546709
vt 0.720502 0.554250
vt 0.865261 0.555003
vt 0.865261 0.739820
vt 0.858033 0.744157
vt 0.720502 0.744157
vt 0.490998 0.730988
vt 0.720502 0.505843
vt 0.858033 0.505843
vt 0.865261 0.510180
vt 0.865261 0.552416
vt 0.720502 0.551683
vt 0.478495 0.552253
vt 0.451926 0.507760
vt 0.478495 0.549730
vt 0.451926 0.549730
vt 0.625000 0.010180
vt 0.625000 0.194997
vt 0.680626 0.505843
vt 0.720502 0.505843
vt 0.720502 0.551683
vt 0.680626 0.551494
vt 0.375000 0.805626
vt 0.449099 0.805626
vt 0.449099 0.801386
vt 0.375000 0.801386
vt 0.478495 0.549730
vt 0.618507 0.549730
vt 0.449099 0.448614
vt 0.375000 0.448614
vt 0.449099 0.552253
vt 0.451926 0.552253
vt 0.481927 0.510781
vt 0.481927 0.546709
vt 0.614031 0.511701
vt 0.614031 0.545789
vt 0.614031 0.511701
vt 0.482972 0.511701
vt 0.482972 0.545789
vt 0.482972 0.511701
vt 0.612577 0.512981
vt 0.548501 0.512981
vt 0.532482 0.512981
vt 0.516463 0.512981
vt 0.500444 0.512981
vt 0.484425 0.512981
vt 0.484425 0.544509
vt 0.500444 0.544509
vt 0.516463 0.544509
vt 0.532482 0.544509
vt 0.548501 0.544509
vt 0.612577 0.544509
vt 0.490998 0.562227
vt 0.490998 0.730988
vt 0.606004 0.730988
vt 0.606005 0.727620
vt 0.606004 0.565595
vt 0.494739 0.730988
vt 0.602263 0.730988
vt 0.602263 0.562227
vt 0.494739 0.562227
vt 0.490998 0.565595
vt 0.490998 0.727620
vt 0.000000 0.000000
vt 0.609751 0.514857
vt 0.609751 0.542634
vt 0.533867 0.538147
vt 0.547116 0.538147
vt 0.551327 0.542634
vt 0.551327 0.514857
vt 0.548501 0.536627
vt 0.548501 0.528745
vt 0.548501 0.520863
vt 0.608268 0.515841
vt 0.608268 0.541649
vt 0.552810 0.541649
vt 0.552810 0.515841
vt 0.547116 0.522383
vt 0.547116 0.527225
vt 0.501830 0.530265
vt 0.515078 0.530265
vt 0.547116 0.530265
vt 0.547116 0.535107
vt 0.533867 0.527225
vt 0.533867 0.522383
vt 0.547116 0.519343
vt 0.533867 0.519343
vt 0.533867 0.535107
vt 0.533867 0.530265
vt 0.547116 0.514501
vt 0.533867 0.514501
vt 0.515078 0.519343
vt 0.501830 0.519343
vt 0.532482 0.536627
vt 0.547116 0.542989
vt 0.533867 0.542989
vt 0.500444 0.536627
vt 0.516463 0.536627
vt 0.515078 0.538147
vt 0.501830 0.538147
vt 0.515078 0.542990
vt 0.501830 0.542989
vt 0.500444 0.520863
vt 0.516463 0.520863
vt 0.515078 0.522383
vt 0.501830 0.522383
vt 0.516463 0.528745
vt 0.515078 0.527225
vt 0.500444 0.528745
vt 0.501830 0.527225
vt 0.532482 0.520863
vt 0.532482 0.528745
vt 0.531097 0.522383
vt 0.517848 0.522383
vt 0.531097 0.527225
vt 0.517848 0.527225
vt 0.531097 0.514501
vt 0.517848 0.514501
vt 0.531097 0.519343
vt 0.517848 0.519343
vt 0.499059 0.536627
vt 0.499059 0.528745
vt 0.499059 0.542989
vt 0.485811 0.542989
vt 0.485811 0.514501
vt 0.499059 0.514501
vt 0.499059 0.520863
vt 0.515078 0.514501
vt 0.501830 0.514501
vt 0.515078 0.535107
vt 0.501830 0.535107
vt 0.531097 0.538147
vt 0.517848 0.538147
vt 0.531097 0.542990
vt 0.517848 0.542989
vt 0.531097 0.530265
vt 0.517848 0.530265
vt 0.531097 0.535107
vt 0.517848 0.535107
vt 0.440271 0.560239
vt 0.440271 0.734255
vt 0.430360 0.733250
vt 0.393739 0.733250
vt 0.430360 0.561243
vt 0.393739 0.561243
vt 0.472282 0.557873
vt 0.458138 0.557873
s 0
usemtl M_Blanc
f 2/6/2 19/7/2 25/8/2 101/9/2 68/10/2
f 49/30/2 57/31/2 2/6/2 60/32/2
f 17/33/2 31/34/2 111/35/2 56/36/2
f 60/32/2 2/6/2 68/77/2 65/78/2
f 38/79/9 95/80/9 613/80/9 614/79/9
f 98/85/4 23/86/4 127/87/4 134/88/4
f 57/89/2 110/90/2 19/7/2 2/6/2
f 96/91/2 17/33/2 56/36/2 48/92/2
f 39/98/6 117/99/6 75/100/6 32/101/6
f 17/33/11 96/91/11 609/117/11 610/118/11
f 101/119/12 25/120/12 23/121/12 98/122/12
f 31/136/11 17/33/11 610/118/11 39/137/11
f 75/100/13 125/138/13 112/139/13 30/140/13 32/101/13
f 124/149/13 118/150/13 18/151/13 113/152/13
f 24/153/15 22/154/15 23/121/15 25/120/15
f 32/159/18 30/160/18 31/136/18 39/137/18
f 18/161/19 24/162/19 25/8/19 19/7/19
f 111/35/19 31/34/19 30/171/19 112/172/19
f 113/173/19 18/161/19 19/7/19 110/174/19
f 33/142/5 256/141/5 117/99/5 39/98/5
f 256/141/5 11/181/5 607/182/5 117/183/5
f 118/186/13 121/187/13 22/188/13 24/189/13 18/190/13
f 16/191/5 33/142/5 39/98/5 610/118/5
f 11/181/5 16/191/5 610/118/5 607/197/5
f 22/201/3 121/202/3 127/87/3 23/86/3
f 98/85/7 134/88/7 171/88/7 194/85/7
f 60/32/7 65/78/7 154/78/7 188/32/7
f 68/10/7 101/9/7 197/9/7 190/10/7
f 44/59/4 143/61/4 174/61/4 184/59/4
f 134/88/1 127/87/1 239/87/1 171/88/1
f 49/30/7 60/32/7 188/32/7 146/30/7
f 75/100/1 117/99/1 223/99/1 225/100/1
f 127/87/1 121/202/1 237/202/1 239/87/1
f 140/93/4 47/97/4 187/97/4 175/93/4
f 117/183/1 607/182/1 219/182/1 223/183/1
f 55/213/4 44/214/4 184/214/4 148/213/4
f 48/92/4 56/36/4 182/36/4 145/92/4
f 57/31/5 49/30/5 146/30/5 183/31/5
f 125/138/1 75/100/1 225/100/1 162/138/1
f 118/150/1 124/149/1 165/149/1 234/150/1
f 59/57/4 54/56/4 151/56/4 181/57/4
f 607/197/1 608/216/1 159/216/1 219/197/1
f 121/187/1 118/186/1 234/186/1 237/187/1
f 65/78/21 68/77/21 190/77/21 154/78/21
f 608/216/7 609/117/7 207/117/7 159/216/7
f 96/91/7 48/92/7 145/92/7 208/91/7
f 101/119/7 98/122/7 194/122/7 197/119/7
f 107/147/4 108/19/4 228/19/4 227/147/4
f 111/35/4 112/172/4 232/172/4 231/35/4
f 113/173/5 110/174/5 230/174/5 233/173/5
f 122/170/4 107/169/4 227/169/4 163/170/4
f 609/117/7 96/91/7 208/91/7 207/117/7
f 108/19/4 59/18/4 181/18/4 228/19/4
f 56/36/4 111/35/4 231/35/4 182/36/4
f 110/90/5 57/89/5 183/89/5 230/90/5
f 112/139/4 125/138/4 162/138/4 232/139/4
f 124/149/5 113/152/5 233/152/5 165/149/5
f 115/330/5 76/331/5 608/216/5 607/197/5
f 76/331/5 95/80/5 609/117/5 608/216/5
f 38/79/5 115/330/5 607/197/5 610/118/5
f 95/80/5 38/79/5 610/118/5 609/117/5
f 612/331/5 611/330/5 614/79/5 613/80/5
f 95/80/13 76/331/13 612/331/13 613/80/13
f 115/330/7 38/79/7 614/79/7 611/330/7
f 76/331/46 115/330/46 611/330/46 612/331/46
usemtl M_Noir_Profond
f 145/92/2 146/30/2 147/208/2 144/209/2
f 149/75/1 150/47/1 151/56/1 148/213/1
f 153/42/2 154/78/2 152/22/2
f 156/108/1 157/29/1 155/37/1
f 159/216/5 160/215/5 161/50/5 158/200/5
f 163/170/13 164/206/13 165/149/13 162/138/13
f 167/114/4 168/134/4 169/84/4 166/125/4
f 171/88/4 172/15/4 173/126/4 170/83/4
f 175/93/7 176/70/7 177/64/7 174/61/7
f 179/45/1 150/47/1 149/75/1 178/74/1
f 181/57/1 151/56/1 150/47/1 180/46/1
f 183/31/2 146/30/2 145/92/2 182/36/2
f 148/213/1 184/214/1 185/76/1 149/75/1
f 147/208/2 186/207/2 187/210/2 144/209/2
f 175/93/7 187/97/7 186/71/7 176/70/7
f 146/30/2 188/32/2 189/41/2 147/208/2
f 155/37/1 179/39/1 178/109/1 156/108/1
f 188/32/2 154/78/2 153/42/2 189/41/2
f 191/23/2 152/22/2 154/78/2 190/77/2
f 193/38/1 155/37/1 157/29/1 192/28/1
f 195/82/12 196/124/12 197/119/12 194/122/12
f 199/104/10 200/26/10 201/107/10 198/115/10
f 203/58/8 204/198/8 205/49/8 202/128/8
f 207/117/11 208/91/11 209/129/11 206/131/11
f 211/123/12 212/81/12 213/133/12 210/178/12
f 215/111/10 216/110/10 217/27/10 214/105/10
f 219/197/5 159/216/5 158/200/5 218/199/5
f 160/215/5 220/94/5 221/51/5 161/50/5
f 204/198/5 158/200/5 161/50/5 205/49/5
f 223/183/5 219/182/5 218/211/5 222/212/5
f 222/52/6 224/55/6 225/100/6 223/99/6
f 166/125/4 199/104/4 198/115/4 167/114/4
f 152/22/2 211/25/2 210/43/2 153/42/2
f 196/24/2 191/23/2 190/10/2 197/9/2
f 170/83/4 195/82/4 194/85/4 171/88/4
f 200/26/1 157/29/1 156/108/1 201/107/1
f 192/28/1 217/27/1 216/1/1 193/5/1
f 159/216/5 207/117/5 206/131/5 160/215/5
f 208/91/2 145/92/2 144/209/2 209/129/2
f 151/56/1 203/58/1 202/128/1 148/213/1
f 227/147/14 228/19/14 229/176/14 226/175/14
f 231/35/19 232/172/19 233/173/19 230/174/19
f 163/170/13 227/169/13 226/203/13 164/206/13
f 228/19/1 181/18/1 180/103/1 229/102/1
f 182/36/2 231/35/2 230/90/2 183/89/2
f 232/139/13 162/138/13 165/149/13 233/152/13
f 235/196/13 236/195/13 237/187/13 234/186/13
f 164/206/13 235/205/13 234/150/13 165/149/13
f 224/55/13 163/170/13 162/138/13 225/100/13
f 212/81/4 169/84/4 168/134/4 213/133/4
f 214/105/4 173/126/4 172/15/4 215/17/4
f 173/126/4 166/125/4 169/84/4 170/83/4
f 236/12/3 238/11/3 239/87/3 237/202/3
f 238/16/4 172/15/4 171/88/4 239/87/4
f 167/114/4 240/113/4 241/135/4 168/134/4
f 184/59/7 174/61/7 177/64/7 185/63/7
f 243/65/7 177/64/7 176/70/7 242/69/7
f 174/61/7 221/51/7 220/94/7 175/93/7
f 240/165/7 243/65/7 242/144/7 241/143/7
f 249/219/13 251/220/13 264/220/13 259/221/13
f 249/219/5 248/222/5 252/217/5 253/184/5
f 250/223/5 251/220/5 255/185/5 254/218/5
f 251/220/5 249/219/5 253/184/5 255/185/5
f 248/222/5 250/223/5 254/218/5 252/217/5
f 250/223/7 248/222/7 258/222/7 261/223/7
f 248/222/1 249/219/1 259/219/1 258/224/1
f 251/220/2 250/223/2 261/223/2 264/220/2
f 258/224/8 259/219/8 281/225/8 282/226/8 302/227/8 295/228/8 299/229/8 257/230/8
f 11/181/1 256/141/1 268/141/1 272/237/1
f 33/142/2 16/191/2 269/238/2 265/142/2
f 16/191/7 11/181/7 272/237/7 269/191/7
f 256/141/13 33/142/13 265/239/13 268/141/13
f 273/240/6 274/241/6 268/141/6 265/239/6
f 275/242/11 273/243/11 265/142/11 269/238/11
f 274/244/8 276/245/8 272/237/8 268/141/8
f 269/191/22 272/237/22 276/246/22 275/247/22
f 285/258/7 284/259/7 292/259/7 293/258/7
f 283/260/5 284/259/5 288/250/5 287/253/5
f 285/258/5 286/261/5 290/254/5 289/249/5
f 284/259/5 285/258/5 289/249/5 288/250/5
f 286/261/5 283/260/5 287/253/5 290/254/5
f 284/259/1 283/260/1 291/260/1 292/259/1
f 283/260/13 286/261/13 294/261/13 291/260/13
f 286/261/2 285/258/2 293/258/2 294/261/2
f 385/298/5 384/297/5 387/299/5 386/300/5
f 393/275/5 392/274/5 395/270/5 394/271/5
f 408/264/5 407/265/5 410/314/5 409/315/5
f 433/326/1 434/327/1 437/327/1 438/326/1
f 428/180/5 427/324/5 432/328/5 431/329/5
f 427/324/5 430/325/5 433/326/5 432/328/5
f 430/325/5 429/179/5 434/327/5 433/326/5
f 429/179/5 428/180/5 431/329/5 434/327/5
f 434/327/13 431/329/13 436/329/13 437/327/13
f 432/328/7 433/326/7 438/326/7 435/328/7
f 431/329/2 432/328/2 435/328/2 436/329/2
f 532/248/1 561/248/1 586/248/1 588/248/1
f 576/248/2 545/248/2 601/248/2 599/248/2
f 560/248/2 562/248/2 585/248/2 583/248/2
f 546/248/1 575/248/1 600/248/1 602/248/1
f 561/248/1 559/248/1 584/248/1 586/248/1
f 574/248/2 576/248/2 599/248/2 597/248/2
f 558/248/2 560/248/2 583/248/2 581/248/2
f 575/248/1 573/248/1 598/248/1 600/248/1
f 559/248/1 555/248/1 582/248/1 584/248/1
f 572/248/2 574/248/2 597/248/2 595/248/2
f 524/248/2 558/248/2 581/248/2 580/248/2
f 573/248/1 571/248/1 596/248/1 598/248/1
f 555/248/1 523/248/1 579/248/1 582/248/1
f 547/248/13 548/248/13 552/248/13 551/248/13
f 550/248/7 549/248/7 553/248/7 554/248/7
f 523/248/32 555/248/32 526/248/32 556/248/32
f 558/248/32 524/248/32 557/248/32 525/248/32
f 555/248/33 559/248/33 528/248/33 526/248/33
f 560/248/33 558/248/33 525/248/33 527/248/33
f 559/248/6 561/248/6 530/248/6 528/248/6
f 562/248/6 560/248/6 527/248/6 529/248/6
f 561/248/34 532/248/34 563/248/34 530/248/34
f 531/248/34 562/248/34 529/248/34 564/248/34
f 532/248/35 534/248/35 565/248/35 563/248/35
f 533/248/35 531/248/35 564/248/35 566/248/35
f 535/248/36 538/248/36 567/248/36 568/248/36
f 537/248/36 569/248/36 536/248/36 570/248/36
f 538/248/37 571/248/37 540/248/37 567/248/37
f 572/248/37 537/248/37 570/248/37 539/248/37
f 571/248/22 573/248/22 542/248/22 540/248/22
f 574/248/22 572/248/22 539/248/22 541/248/22
f 573/248/38 575/248/38 544/248/38 542/248/38
f 576/248/38 574/248/38 541/248/38 543/248/38
f 575/248/39 546/248/39 577/248/39 544/248/39
f 545/248/39 576/248/39 543/248/39 578/248/39
f 548/248/13 533/248/13 566/248/13 552/248/13
f 534/248/13 547/248/13 551/248/13 565/248/13
f 524/248/5 545/248/5 578/248/5 557/248/5
f 546/248/5 523/248/5 556/248/5 577/248/5
f 549/248/7 535/248/7 568/248/7 553/248/7
f 569/248/7 550/248/7 554/248/7 536/248/7
f 533/248/2 548/248/2 604/248/2 589/248/2
f 562/248/2 531/248/2 587/248/2 585/248/2
f 547/248/1 534/248/1 590/248/1 603/248/1
f 534/248/1 532/248/1 588/248/1 590/248/1
f 545/248/2 524/248/2 580/248/2 601/248/2
f 531/248/2 533/248/2 589/248/2 587/248/2
f 523/248/1 546/248/1 602/248/1 579/248/1
f 538/248/1 535/248/1 591/248/1 594/248/1
f 535/248/1 549/248/1 605/248/1 591/248/1
f 569/248/2 537/248/2 593/248/2 592/248/2
f 548/248/5 547/248/5 603/248/5 604/248/5
f 550/248/2 569/248/2 592/248/2 606/248/2
f 571/248/1 538/248/1 594/248/1 596/248/1
f 549/248/5 550/248/5 606/248/5 605/248/5
f 537/248/2 572/248/2 595/248/2 593/248/2
usemtl M_Noir_Bleuté
f 3/40/2 61/41/2 64/42/2 82/43/2 5/44/2
f 13/48/5 93/49/5 78/50/5 81/51/5
f 44/59/7 12/60/7 13/48/7 81/51/7 143/61/7
f 1/62/7 45/63/7 142/64/7 139/65/7
f 138/69/7 141/70/7 46/71/7 3/72/7
f 1/73/1 62/74/1 52/75/1 45/76/1
f 140/93/7 80/94/7 9/95/7 10/96/7 47/97/7
f 8/106/1 89/107/1 71/108/1 62/109/1 1/73/1
f 132/113/4 128/114/4 86/115/4 7/116/4
f 93/49/8 13/48/8 12/127/8 90/128/8
f 97/129/11 10/130/11 9/95/11 94/131/11
f 6/132/4 85/133/4 129/134/4 133/135/4
f 133/143/7 138/144/7 3/72/7 5/145/7 6/146/7
f 7/163/7 8/164/7 1/62/7 139/65/7 132/165/7
f 5/177/12 82/178/12 85/133/12 6/132/12
f 426/179/13 423/180/13 428/180/13 429/179/13
f 89/107/10 8/106/10 7/116/10 86/115/10
f 46/207/2 50/208/2 61/41/2 3/40/2
f 10/130/2 97/129/2 51/209/2 47/210/2
f 139/65/2 142/64/2 177/64/2 243/65/2
f 64/42/13 61/41/13 189/41/13 153/42/13
f 142/64/5 45/63/5 185/63/5 177/64/5
f 62/109/13 71/108/13 156/108/13 178/109/13
f 133/135/1 129/134/1 168/134/1 241/135/1
f 82/43/13 64/42/13 153/42/13 210/43/13
f 61/41/13 50/208/13 147/208/13 189/41/13
f 128/114/2 132/113/2 240/113/2 167/114/2
f 86/115/13 128/114/13 167/114/13 198/115/13
f 46/71/5 141/70/5 176/70/5 186/71/5
f 47/210/4 51/209/4 144/209/4 187/210/4
f 50/208/5 46/207/5 186/207/5 147/208/5
f 45/76/5 52/75/5 149/75/5 185/76/5
f 78/50/13 93/49/13 205/49/13 161/50/13
f 129/134/13 85/133/13 213/133/13 168/134/13
f 81/51/2 78/50/2 161/50/2 221/51/2
f 77/215/1 80/94/1 220/94/1 160/215/1
f 52/75/13 62/74/13 178/74/13 149/75/13
f 44/214/1 55/213/1 90/128/1 12/127/1
f 141/70/1 138/69/1 242/69/1 176/70/1
f 71/108/13 89/107/13 201/107/13 156/108/13
f 143/61/2 81/51/2 221/51/2 174/61/2
f 80/94/1 140/93/1 175/93/1 220/94/1
f 132/165/2 139/65/2 243/65/2 240/165/2
f 138/144/1 133/143/1 241/143/1 242/144/1
f 94/131/13 77/215/13 160/215/13 206/131/13
f 51/209/13 97/129/13 209/129/13 144/209/13
f 90/128/13 55/213/13 148/213/13 202/128/13
f 89/107/13 86/115/13 198/115/13 201/107/13
f 93/49/13 90/128/13 202/128/13 205/49/13
f 97/129/13 94/131/13 206/131/13 209/129/13
f 85/133/13 82/178/13 210/178/13 213/133/13
f 262/231/11 303/232/11 296/233/11 300/234/11 279/235/11 280/236/11 264/220/11 261/223/11
f 280/236/6 281/225/6 259/221/6 264/220/6
f 257/230/22 262/231/22 261/223/22 258/222/22
f 266/248/5 267/248/5 495/248/5 496/248/5 274/248/5 273/248/5
f 270/248/5 266/248/5 273/248/5 275/248/5
f 267/248/5 271/248/5 497/248/5 495/248/5
f 271/248/5 270/248/5 275/248/5 276/248/5 498/248/5 497/248/5
f 260/249/7 263/250/7 288/250/7 289/249/7
f 313/251/2 314/252/2 368/252/2 369/251/2
f 278/253/5 263/250/5 280/236/5 279/235/5
f 260/249/5 277/254/5 282/226/5 281/225/5
f 263/250/5 260/249/5 281/225/5 280/236/5
f 277/254/5 278/253/5 279/235/5 301/255/5 297/256/5 304/257/5 282/226/5
f 263/250/1 278/253/1 287/253/1 288/250/1
f 278/253/13 277/254/13 290/254/13 287/253/13
f 277/254/2 260/249/2 289/249/2 290/254/2
f 326/262/7 327/263/7 383/263/7 380/262/7
f 352/264/2 353/265/2 407/265/2 408/264/2
f 365/266/7 366/267/7 422/267/7 419/266/7
f 328/268/13 325/269/13 381/269/13 382/268/13
f 339/270/1 340/271/1 394/271/1 395/270/1
f 367/272/13 364/273/13 420/273/13 421/272/13
f 325/269/2 326/262/2 380/262/2 381/269/2
f 338/274/7 339/270/7 395/270/7 392/274/7
f 364/273/2 365/266/2 419/266/2 420/273/2
f 340/271/13 337/275/13 393/275/13 394/271/13
f 337/275/2 338/274/2 392/274/2 393/275/2
f 350/276/1 351/277/1 405/277/1 406/276/1
f 312/278/5 301/255/5 314/252/5 313/251/5
f 301/255/5 279/235/5 315/279/5 314/252/5
f 279/235/5 300/234/5 316/280/5 315/279/5
f 300/234/5 312/278/5 313/251/5 316/280/5
f 311/281/5 305/282/5 318/283/5 317/284/5
f 305/282/5 296/233/5 319/285/5 318/283/5
f 296/233/5 303/232/5 320/286/5 319/285/5
f 303/232/5 311/281/5 317/284/5 320/286/5
f 310/287/5 306/288/5 322/289/5 321/290/5
f 306/288/5 298/291/5 323/292/5 322/289/5
f 298/291/5 307/293/5 324/294/5 323/292/5
f 307/293/5 310/287/5 321/290/5 324/294/5
f 309/295/5 304/257/5 326/262/5 325/269/5
f 304/257/5 297/256/5 327/263/5 326/262/5
f 297/256/5 308/296/5 328/268/5 327/263/5
f 308/296/5 309/295/5 325/269/5 328/268/5
f 306/288/5 309/295/5 330/297/5 329/298/5
f 309/295/5 308/296/5 331/299/5 330/297/5
f 308/296/5 298/291/5 332/300/5 331/299/5
f 298/291/5 306/288/5 329/298/5 332/300/5
f 295/228/5 302/227/5 334/301/5 333/302/5
f 302/227/5 309/295/5 335/303/5 334/301/5
f 309/295/5 306/288/5 336/304/5 335/303/5
f 306/288/5 295/228/5 333/302/5 336/304/5
f 302/227/5 282/226/5 338/274/5 337/275/5
f 282/226/5 304/257/5 339/270/5 338/274/5
f 304/257/5 309/295/5 340/271/5 339/270/5
f 309/295/5 302/227/5 337/275/5 340/271/5
f 307/293/5 311/281/5 342/305/5 341/306/5
f 311/281/5 303/232/5 343/307/5 342/305/5
f 303/232/5 262/231/5 344/308/5 343/307/5
f 262/231/5 257/230/5 345/309/5 344/308/5
f 257/230/5 299/229/5 346/310/5 345/309/5
f 299/229/5 310/287/5 347/311/5 346/310/5
f 310/287/5 307/293/5 341/306/5 347/311/5
f 299/229/5 295/228/5 349/312/5 348/313/5
f 295/228/5 306/288/5 350/276/5 349/312/5
f 306/288/5 310/287/5 351/277/5 350/276/5
f 310/287/5 299/229/5 348/313/5 351/277/5
f 307/293/5 298/291/5 353/265/5 352/264/5
f 298/291/5 305/282/5 354/314/5 353/265/5
f 305/282/5 311/281/5 355/315/5 354/314/5
f 311/281/5 307/293/5 352/264/5 355/315/5
f 305/282/5 312/278/5 357/316/5 356/317/5
f 312/278/5 300/234/5 358/318/5 357/316/5
f 300/234/5 296/233/5 359/319/5 358/318/5
f 296/233/5 305/282/5 356/317/5 359/319/5
f 298/291/5 308/296/5 361/320/5 360/321/5
f 308/296/5 312/278/5 362/322/5 361/320/5
f 312/278/5 305/282/5 363/323/5 362/322/5
f 305/282/5 298/291/5 360/321/5 363/323/5
f 308/296/5 297/256/5 365/266/5 364/273/5
f 297/256/5 301/255/5 366/267/5 365/266/5
f 301/255/5 312/278/5 367/272/5 366/267/5
f 312/278/5 308/296/5 364/273/5 367/272/5
f 366/267/1 367/272/1 421/272/1 422/267/1
f 355/315/13 352/264/13 408/264/13 409/315/13
f 327/263/1 328/268/1 382/268/1 383/263/1
f 316/280/13 313/251/13 369/251/13 370/280/13
f 353/265/7 354/314/7 410/314/7 407/265/7
f 314/252/7 315/279/7 371/279/7 368/252/7
f 354/314/1 355/315/1 409/315/1 410/314/1
f 315/279/1 316/280/1 370/280/1 371/279/1
f 341/306/7 342/305/7 397/305/7 396/306/7
f 347/311/7 341/306/7 396/306/7 398/311/7
f 342/305/7 343/307/7 399/307/7 397/305/7
f 329/298/2 330/297/2 384/297/2 385/298/2
f 343/307/1 344/308/1 400/308/1 399/307/1
f 332/300/13 329/298/13 385/298/13 386/300/13
f 356/317/2 357/316/2 411/316/2 412/317/2
f 344/308/13 345/309/13 401/309/13 400/308/13
f 330/297/7 331/299/7 387/299/7 384/297/7
f 317/284/2 318/283/2 372/283/2 373/284/2
f 359/319/13 356/317/13 412/317/13 413/319/13
f 345/309/2 346/310/2 402/310/2 401/309/2
f 331/299/1 332/300/1 386/300/1 387/299/1
f 320/286/13 317/284/13 373/284/13 374/286/13
f 357/316/7 358/318/7 414/318/7 411/316/7
f 346/310/7 347/311/7 398/311/7 402/310/7
f 318/283/7 319/285/7 375/285/7 372/283/7
f 358/318/1 359/319/1 413/319/1 414/318/1
f 319/285/1 320/286/1 374/286/1 375/285/1
f 333/302/2 334/301/2 388/301/2 389/302/2
f 336/304/13 333/302/13 389/302/13 390/304/13
f 360/321/2 361/320/2 415/320/2 416/321/2
f 334/301/7 335/303/7 391/303/7 388/301/7
f 321/290/2 322/289/2 376/289/2 377/290/2
f 363/323/13 360/321/13 416/321/13 417/323/13
f 335/303/1 336/304/1 390/304/1 391/303/1
f 324/294/13 321/290/13 377/290/13 378/294/13
f 361/320/7 362/322/7 418/322/7 415/320/7
f 348/313/2 349/312/2 403/312/2 404/313/2
f 322/289/7 323/292/7 379/292/7 376/289/7
f 362/322/1 363/323/1 417/323/1 418/322/1
f 351/277/13 348/313/13 404/313/13 405/277/13
f 323/292/1 324/294/1 378/294/1 379/292/1
f 349/312/7 350/276/7 406/276/7 403/312/7
f 80/94/5 77/215/5 424/324/5 423/180/5
f 77/215/5 94/131/5 425/325/5 424/324/5
f 94/131/5 9/95/5 426/179/5 425/325/5
f 9/95/5 80/94/5 423/180/5 426/179/5
f 424/324/7 425/325/7 430/325/7 427/324/7
f 423/180/2 424/324/2 427/324/2 428/180/2
f 425/325/1 426/179/1 429/179/1 430/325/1
f 483/248/23 484/248/23 479/248/23 480/248/23
f 496/248/5 498/248/5 276/248/5 274/248/5
f 445/248/1 443/248/1 556/248/1 526/248/1
f 466/248/2 465/248/2 539/248/2 570/248/2
f 482/248/7 483/248/7 480/248/7 467/248/7
f 441/248/5 442/248/5 554/248/5 553/248/5
f 458/248/1 457/248/1 567/248/1 540/248/1
f 442/248/2 513/248/2 536/248/2 554/248/2
f 440/248/5 439/248/5 551/248/5 552/248/5
f 513/248/2 466/248/2 570/248/2 536/248/2
f 455/248/1 441/248/1 553/248/1 568/248/1
f 457/248/1 455/248/1 568/248/1 567/248/1
f 443/248/1 456/248/1 577/248/1 556/248/1
f 451/248/2 449/248/2 566/248/2 564/248/2
f 461/248/2 501/248/2 557/248/2 578/248/2
f 444/248/1 448/248/1 563/248/1 565/248/1
f 495/248/2 497/248/2 468/248/2 467/248/2
f 497/248/2 512/248/2 469/248/2 468/248/2
f 512/248/2 511/248/2 470/248/2 469/248/2
f 511/248/2 515/248/2 471/248/2 470/248/2
f 515/248/2 517/248/2 472/248/2 471/248/2
f 517/248/2 519/248/2 473/248/2 472/248/2
f 519/248/2 521/248/2 474/248/2 473/248/2
f 521/248/2 500/248/2 475/248/2 474/248/2
f 500/248/2 499/248/2 476/248/2 475/248/2
f 499/248/2 503/248/2 477/248/2 476/248/2
f 503/248/2 505/248/2 478/248/2 477/248/2
f 505/248/2 507/248/2 479/248/2 478/248/2
f 507/248/2 509/248/2 480/248/2 479/248/2
f 509/248/2 495/248/2 467/248/2 480/248/2
f 498/248/1 496/248/1 482/248/1 481/248/1
f 496/248/1 510/248/1 483/248/1 482/248/1
f 510/248/1 508/248/1 484/248/1 483/248/1
f 508/248/1 506/248/1 485/248/1 484/248/1
f 506/248/1 504/248/1 486/248/1 485/248/1
f 504/248/1 502/248/1 487/248/1 486/248/1
f 502/248/1 450/248/1 488/248/1 487/248/1
f 450/248/1 522/248/1 489/248/1 488/248/1
f 522/248/1 520/248/1 490/248/1 489/248/1
f 520/248/1 518/248/1 491/248/1 490/248/1
f 518/248/1 516/248/1 492/248/1 491/248/1
f 516/248/1 514/248/1 493/248/1 492/248/1
f 514/248/1 462/248/1 494/248/1 493/248/1
f 462/248/1 498/248/1 481/248/1 494/248/1
f 484/248/24 485/248/24 478/248/24 479/248/24
f 485/248/25 486/248/25 477/248/25 478/248/25
f 486/248/26 487/248/26 476/248/26 477/248/26
f 487/248/27 488/248/27 475/248/27 476/248/27
f 488/248/4 489/248/4 474/248/4 475/248/4
f 489/248/28 490/248/28 473/248/28 474/248/28
f 490/248/29 491/248/29 472/248/29 473/248/29
f 491/248/3 492/248/3 471/248/3 472/248/3
f 492/248/30 493/248/30 470/248/30 471/248/30
f 493/248/31 494/248/31 469/248/31 470/248/31
f 494/248/13 481/248/13 468/248/13 469/248/13
f 481/248/5 482/248/5 467/248/5 468/248/5
f 439/248/13 440/248/13 496/248/13 495/248/13
f 442/248/7 441/248/7 497/248/7 498/248/7
f 443/248/32 445/248/32 499/248/32 500/248/32
f 454/248/32 501/248/32 450/248/32 502/248/32
f 445/248/33 446/248/33 503/248/33 499/248/33
f 453/248/33 454/248/33 502/248/33 504/248/33
f 446/248/6 447/248/6 505/248/6 503/248/6
f 452/248/6 453/248/6 504/248/6 506/248/6
f 447/248/34 448/248/34 507/248/34 505/248/34
f 451/248/34 452/248/34 506/248/34 508/248/34
f 448/248/35 444/248/35 509/248/35 507/248/35
f 449/248/35 451/248/35 508/248/35 510/248/35
f 455/248/36 457/248/36 511/248/36 512/248/36
f 466/248/36 513/248/36 462/248/36 514/248/36
f 457/248/37 458/248/37 515/248/37 511/248/37
f 465/248/37 466/248/37 514/248/37 516/248/37
f 458/248/22 459/248/22 517/248/22 515/248/22
f 464/248/22 465/248/22 516/248/22 518/248/22
f 459/248/38 460/248/38 519/248/38 517/248/38
f 463/248/38 464/248/38 518/248/38 520/248/38
f 460/248/39 456/248/39 521/248/39 519/248/39
f 461/248/39 463/248/39 520/248/39 522/248/39
f 440/248/13 449/248/13 510/248/13 496/248/13
f 444/248/13 439/248/13 495/248/13 509/248/13
f 501/248/5 461/248/5 522/248/5 450/248/5
f 456/248/5 443/248/5 500/248/5 521/248/5
f 441/248/7 455/248/7 512/248/7 497/248/7
f 513/248/7 442/248/7 498/248/7 462/248/7
f 459/248/1 458/248/1 540/248/1 542/248/1
f 501/248/2 454/248/2 525/248/2 557/248/2
f 465/248/2 464/248/2 541/248/2 539/248/2
f 446/248/1 445/248/1 526/248/1 528/248/1
f 460/248/1 459/248/1 542/248/1 544/248/1
f 454/248/2 453/248/2 527/248/2 525/248/2
f 464/248/2 463/248/2 543/248/2 541/248/2
f 447/248/1 446/248/1 528/248/1 530/248/1
f 456/248/1 460/248/1 544/248/1 577/248/1
f 453/248/2 452/248/2 529/248/2 527/248/2
f 463/248/2 461/248/2 578/248/2 543/248/2
f 448/248/1 447/248/1 530/248/1 563/248/1
f 449/248/2 440/248/2 552/248/2 566/248/2
f 452/248/2 451/248/2 564/248/2 529/248/2
f 439/248/1 444/248/1 565/248/1 551/248/1
usemtl M_Orange
f 66/22/2 67/23/2 100/24/2 83/25/2
f 88/26/1 105/27/1 69/28/1 72/29/1
f 84/81/4 99/82/4 137/83/4 130/84/4
f 105/27/10 88/26/10 87/104/10 102/105/10
f 83/123/12 100/124/12 99/82/12 84/81/12
f 131/125/4 136/126/4 102/105/4 87/104/4
f 67/23/20 66/22/20 152/22/20 191/23/20
f 88/26/7 72/29/7 157/29/7 200/26/7
f 137/83/13 99/82/13 195/82/13 170/83/13
f 100/24/13 67/23/13 191/23/13 196/24/13
f 66/22/7 83/25/7 211/25/7 152/22/7
f 131/125/7 87/104/7 199/104/7 166/125/7
f 130/84/1 137/83/1 170/83/1 169/84/1
f 136/126/2 131/125/2 166/125/2 173/126/2
f 102/105/13 136/126/13 173/126/13 214/105/13
f 84/81/7 130/84/7 169/84/7 212/81/7
f 105/27/13 102/105/13 214/105/13 217/27/13
f 69/28/13 105/27/13 217/27/13 192/28/13
f 72/29/20 69/28/20 192/28/20 157/29/20
f 99/82/13 100/124/13 196/124/13 195/82/13
f 87/104/7 88/26/7 200/26/7 199/104/7
f 83/123/7 84/81/7 212/81/7 211/123/7
f 369/251/5 368/252/5 371/279/5 370/280/5
f 377/290/5 376/289/5 379/292/5 378/294/5
f 389/302/5 388/301/5 391/303/5 390/304/5
f 396/306/5 397/305/5 399/307/5 400/308/5 401/309/5 402/310/5 398/311/5
f 412/317/5 411/316/5 414/318/5 413/319/5
usemtl M_Plexiglas
f 266/248/5 270/248/5 271/248/5 267/248/5
usemtl M_Gris
f 256/141/7 33/142/7 43/142/7 42/141/7
f 41/181/5 42/141/5 43/142/5 40/191/5
f 16/191/13 11/181/13 41/181/13 40/191/13
f 33/142/1 16/191/1 40/191/1 43/142/1
f 11/181/2 256/141/2 42/141/2 41/181/2
f 373/284/5 372/283/5 375/285/5 374/286/5
f 381/269/5 380/262/5 383/263/5 382/268/5
f 404/313/5 403/312/5 406/276/5 405/277/5
f 416/321/5 415/320/5 418/322/5 417/323/5
f 420/273/5 419/266/5 422/267/5 421/272/5
usemtl M_Cyan
f 294/261/5 293/258/5 292/259/5 291/260/5
f 436/329/5 435/328/5 438/326/5 437/327/5
f 601/248/5 580/248/5 579/248/5 602/248/5
f 605/248/40 606/248/40 592/248/40 591/248/40
f 579/248/41 580/248/41 581/248/41 582/248/41
f 582/248/33 581/248/33 583/248/33 584/248/33
f 584/248/6 583/248/6 585/248/6 586/248/6
f 586/248/34 585/248/34 587/248/34 588/248/34
f 588/248/42 587/248/42 589/248/42 590/248/42
f 591/248/43 592/248/43 593/248/43 594/248/43
f 594/248/37 593/248/37 595/248/37 596/248/37
f 596/248/22 595/248/22 597/248/22 598/248/22
f 598/248/38 597/248/38 599/248/38 600/248/38
f 600/248/44 599/248/44 601/248/44 602/248/44
f 604/248/45 603/248/45 590/248/45 589/248/45
usemtl M_Gris_Metal
f 104/1/1 27/2/1 20/3/1 4/4/1 70/5/1
f 126/11/3 120/12/3 28/13/3 29/14/3
f 135/15/4 126/16/4 29/14/4 103/17/4
f 59/18/1 108/19/1 37/20/1 14/21/1
f 73/37/1 70/38/1 4/4/1 63/39/1
f 63/45/1 4/4/1 58/46/1 53/47/1
f 247/52/6 245/53/6 34/54/6 74/55/6
f 54/56/1 59/57/1 14/21/1 91/58/1
f 245/66/8 244/67/8 14/21/8 37/68/8
f 4/4/1 20/3/1 109/102/1 58/103/1
f 27/2/10 104/110/10 103/111/10 29/112/10
f 37/20/14 108/19/14 107/147/14 36/148/14
f 28/155/16 26/156/16 27/2/16 29/112/16
f 36/157/17 34/158/17 245/66/17 37/68/17
f 20/3/14 27/2/14 26/166/14 21/167/14
f 34/54/13 36/168/13 107/169/13 122/170/13 74/55/13
f 21/167/14 106/175/14 109/176/14 20/3/14
f 35/184/7 116/185/7 255/185/7 253/184/7
f 21/192/13 26/193/13 28/194/13 120/195/13 119/196/13
f 92/198/5 244/67/5 246/199/5 79/200/5
f 106/203/13 21/204/13 119/205/13 123/206/13
f 244/67/8 92/198/8 91/58/8 14/21/8
f 73/37/7 63/39/7 179/39/7 155/37/7
f 126/16/2 135/15/2 172/15/2 238/16/2
f 247/52/2 74/55/2 224/55/2 222/52/2
f 120/12/2 126/11/2 238/11/2 236/12/2
f 246/211/2 247/212/2 222/212/2 218/211/2
f 135/15/7 103/17/7 215/17/7 172/15/7
f 92/198/7 79/200/7 158/200/7 204/198/7
f 74/55/2 122/170/2 163/170/2 224/55/2
f 53/47/5 58/46/5 180/46/5 150/47/5
f 79/200/2 246/199/2 218/199/2 158/200/2
f 123/206/2 119/205/2 235/205/2 164/206/2
f 63/45/7 53/47/7 150/47/7 179/45/7
f 104/1/7 70/5/7 193/5/7 216/1/7
f 70/38/21 73/37/21 155/37/21 193/38/21
f 54/56/7 91/58/7 203/58/7 151/56/7
f 109/176/5 106/175/5 226/175/5 229/176/5
f 91/58/7 92/198/7 204/198/7 203/58/7
f 106/203/5 123/206/5 164/206/5 226/203/5
f 58/103/5 109/102/5 229/102/5 180/103/5
f 103/111/7 104/110/7 216/110/7 215/111/7
f 119/196/2 120/195/2 236/195/2 235/196/2
f 35/184/5 15/217/5 244/67/5 245/53/5
f 114/218/5 116/185/5 247/212/5 246/211/5
f 116/185/5 35/184/5 245/53/5 247/212/5
f 15/217/5 114/218/5 246/211/5 244/67/5
f 15/217/2 35/184/2 253/184/2 252/217/2
f 114/218/13 15/217/13 252/217/13 254/218/13
f 116/185/1 114/218/1 254/218/1 255/185/1
