# Blender 4.2.3 LTS
# www.blender.org
mtllib SM_Parcel_Locker.mtl
o SM_Parcel_Locker
v -0.191896 0.270263 -1.048760
v -0.191896 0.271371 -1.048760
v -0.192409 0.000000 1.050000
v -0.250000 0.000000 0.992409
v -0.250000 0.000000 -0.992409
v -0.192409 0.000000 -1.050000
v 0.250000 0.197479 0.911278
v 0.192409 0.000000 1.050000
v 0.192409 0.000000 -1.050000
v 0.250000 0.197479 -0.911278
v -0.248760 0.271371 -0.991896
v -0.248760 0.270263 -0.991896
v -0.191896 0.271371 1.048760
v -0.191896 0.270263 1.048760
v -0.248760 0.270263 0.991896
v -0.248760 0.271371 0.991896
v -0.248657 0.271371 -0.540195
v -0.248657 0.271371 -0.539087
v -0.248657 0.270263 -0.539641
v 0.248657 0.270263 -0.539641
v 0.248657 0.271371 -0.539087
v 0.248657 0.271371 -0.540195
v -0.208645 1.700000 0.975280
v -0.250000 1.658645 0.992409
v -0.175279 1.700000 1.008645
v -0.142937 1.609172 1.050000
v -0.175279 1.700000 -1.008645
v -0.142937 1.609172 -1.050000
v -0.208645 1.700000 -0.975280
v -0.250000 1.658645 -0.992409
v 0.175279 1.700000 1.008645
v 0.142937 1.609172 1.050000
v 0.208645 1.700000 0.975280
v 0.208645 1.700000 -0.975280
v 0.250000 1.522443 -0.937317
v 0.175279 1.700000 -1.008645
v 0.142937 1.609172 -1.050000
v 0.191896 0.270263 -1.048760
v 0.191896 0.271371 -1.048760
v 0.248760 0.271371 -0.991896
v 0.248760 0.270263 -0.991896
v 0.248760 0.270263 0.991896
v 0.248760 0.271371 0.991896
v 0.191896 0.271371 1.048760
v 0.191896 0.270263 1.048760
v -0.208131 1.698760 -0.539087
v -0.208131 1.698760 -0.540195
v -0.248760 1.658131 -0.540195
v -0.248760 1.658131 -0.539087
v 0.248760 1.658131 -0.539087
v 0.248760 1.658131 -0.540195
v 0.208131 1.698760 -0.540195
v 0.208131 1.698760 -0.539087
v 0.249002 0.271371 -0.539087
v 0.250000 0.958674 -0.596285
v 0.249002 0.271371 -0.540195
v -0.250000 0.272369 -0.538089
v -0.249002 0.271371 -0.539087
v -0.249002 0.271371 -0.540195
v -0.250000 0.272369 -0.541193
v -0.250000 0.272369 0.992409
v -0.249002 0.271371 0.991996
v -0.249002 0.270263 0.991996
v -0.250000 0.269265 0.992409
v -0.192409 0.269265 1.050000
v -0.191996 0.270263 1.049002
v -0.191996 0.271371 1.049002
v -0.142937 0.321842 1.050000
v -0.250000 0.269265 -0.992409
v -0.249002 0.270263 -0.991996
v -0.249002 0.271371 -0.991996
v -0.250000 0.272369 -0.992409
v -0.142937 0.321842 -1.050000
v -0.191996 0.271371 -1.049002
v -0.191996 0.270263 -1.049002
v -0.192409 0.269265 -1.050000
v 0.192409 0.269265 -1.050000
v 0.191996 0.270263 -1.049002
v 0.191996 0.271371 -1.049002
v 0.142937 0.321842 -1.050000
v 0.250000 0.958674 -0.937317
v 0.249002 0.271371 -0.991996
v 0.249002 0.270263 -0.991996
v 0.250000 0.223901 -0.911278
v 0.250000 0.223901 0.911278
v 0.249002 0.270263 0.991996
v 0.249002 0.271371 0.991996
v 0.142937 0.321842 1.050000
v 0.191996 0.271371 1.049002
v 0.191996 0.270263 1.049002
v 0.192409 0.269265 1.050000
v -0.208645 1.700000 -0.538089
v -0.208231 1.699002 -0.539087
v -0.208231 1.699002 -0.540195
v -0.208645 1.700000 -0.541193
v -0.250000 1.658645 -0.541193
v -0.249002 1.658231 -0.540195
v -0.249002 1.658231 -0.539087
v -0.250000 1.658645 -0.538089
v 0.249002 1.658231 -0.539087
v 0.249002 1.658231 -0.540195
v 0.250000 1.522443 -0.596285
v 0.208645 1.700000 -0.541193
v 0.208231 1.699002 -0.540195
v 0.208231 1.699002 -0.539087
v 0.208645 1.700000 -0.538089
v 0.250000 0.272369 -0.538089
v 0.233824 0.295246 1.008586
v 0.250000 1.658645 -0.538089
v 0.233824 1.635768 1.008586
v 0.250000 1.543966 0.809911
v 0.250000 0.752952 -0.355590
v 0.250000 0.655551 0.809911
v 0.250000 1.543966 -0.355590
v 0.250000 0.752952 0.041528
v 0.250000 0.578389 0.191888
v 0.250000 1.338771 -0.355590
v 0.250000 1.055548 -0.355590
v 0.250000 1.543966 0.191888
v 0.250000 1.543966 0.041528
v 0.250000 0.958147 0.809911
v 0.250000 1.241370 0.809911
v 0.250000 1.338771 0.041528
v 0.250000 1.164208 0.191888
v 0.250000 0.880985 0.191888
v 0.250000 1.055548 0.041528
v 0.250000 0.655551 0.577276
v 0.250000 0.578389 0.426917
v 0.250000 0.762639 -0.355590
v 0.250000 1.045862 -0.355590
v 0.250000 1.543966 0.577276
v 0.250000 1.543966 0.426917
v 0.250000 0.665237 0.809911
v 0.250000 0.948460 0.809911
v 0.250000 1.348458 -0.355590
v 0.250000 1.534279 -0.355590
v 0.250000 1.251057 0.809911
v 0.250000 1.534279 0.809911
v 0.250000 1.241370 0.577276
v 0.250000 0.958147 0.577276
v 0.250000 0.880985 0.426917
v 0.250000 1.164208 0.426917
v 0.250000 0.588075 0.191888
v 0.250000 0.762639 0.041528
v 0.250000 1.045862 0.041528
v 0.250000 0.871298 0.191888
v 0.250000 1.173894 0.191888
v 0.250000 1.348458 0.041528
v 0.250000 1.534279 0.041528
v 0.250000 1.534279 0.191888
v 0.250000 0.948460 0.577276
v 0.250000 0.665237 0.577276
v 0.250000 0.588075 0.426917
v 0.250000 0.871298 0.426917
v 0.250000 1.534279 0.577276
v 0.250000 1.251057 0.577276
v 0.250000 1.173894 0.426917
v 0.250000 1.534279 0.426917
v -0.186088 0.377304 0.116708
v -0.186088 0.382072 0.114324
v -0.186088 0.382072 0.119092
v -0.186088 0.965507 -0.433154
v -0.186088 1.065292 -0.428386
v -0.186088 1.060524 -0.428386
v -0.186088 1.553710 0.116708
v -0.186088 1.548942 0.119092
v -0.186088 1.548942 0.114324
v -0.186088 0.967891 0.882707
v -0.186088 0.965507 0.887475
v -0.186088 0.963123 0.882707
v -0.186088 1.060524 0.114324
v -0.186088 1.065292 0.114324
v -0.186088 0.890729 0.119092
v -0.186088 0.885961 0.119092
v -0.186088 0.382072 0.499713
v -0.186088 0.382072 0.504481
v -0.186088 0.377304 0.502097
v -0.186088 0.772383 -0.428386
v -0.186088 0.767615 -0.428386
v -0.186088 0.672597 -0.433154
v -0.186088 1.553710 0.502097
v -0.186088 1.548942 0.504481
v -0.186088 1.548942 0.499713
v -0.186088 0.672597 0.887475
v -0.186088 0.670213 0.882707
v -0.186088 0.674981 0.882707
v -0.186088 1.358202 -0.428386
v -0.186088 1.353434 -0.428386
v -0.186088 1.258417 -0.433154
v -0.186088 1.258417 0.887475
v -0.186088 1.256032 0.882707
v -0.186088 1.260801 0.882707
v -0.186088 0.890729 0.499713
v -0.186088 0.967891 0.504481
v -0.186088 0.963123 0.504481
v -0.186088 0.885961 0.499713
v -0.186088 0.597819 0.119092
v -0.186088 0.593051 0.119092
v -0.186088 0.767615 0.114324
v -0.186088 0.772383 0.114324
v -0.186088 1.183638 0.119092
v -0.186088 1.178870 0.119092
v -0.186088 1.353434 0.114324
v -0.186088 1.358202 0.114324
v -0.186088 0.597819 0.499713
v -0.186088 0.674981 0.504481
v -0.186088 0.670213 0.504481
v -0.186088 0.593051 0.499713
v -0.186088 1.183638 0.499713
v -0.186088 1.260801 0.504481
v -0.186088 1.256032 0.504481
v -0.186088 1.178870 0.499713
v -0.186088 0.382072 0.882707
v -0.186088 0.377304 0.887475
v -0.186088 0.382072 -0.428386
v -0.186088 0.377304 -0.433154
v -0.186088 1.553710 0.887475
v -0.186088 1.548942 0.882707
v -0.186088 1.553710 -0.433154
v -0.186088 1.548942 -0.428386
v 0.247873 0.657429 0.579155
v 0.247873 0.657429 0.808033
v 0.247873 0.760760 -0.353712
v 0.247873 0.754831 -0.353712
v 0.247873 1.542088 0.808033
v 0.247873 1.542088 0.579155
v 0.247873 0.663359 0.808033
v 0.247873 1.346580 -0.353712
v 0.247873 1.340650 -0.353712
v 0.247873 1.243248 0.808033
v 0.247873 1.249178 0.808033
v 0.247873 1.243248 0.579155
v 0.247873 0.956268 0.808033
v 0.247873 0.956268 0.579155
v 0.247873 0.586197 0.193766
v 0.247873 0.580267 0.193766
v 0.247873 0.754831 0.039650
v 0.247873 0.760760 0.039650
v 0.247873 1.172016 0.193766
v 0.247873 1.166086 0.193766
v 0.247873 1.340650 0.039650
v 0.247873 1.346580 0.039650
v 0.247873 0.580267 0.425039
v 0.247873 1.053670 -0.353712
v 0.247873 1.047740 -0.353712
v 0.247873 1.542088 0.425039
v 0.247873 1.542088 0.193766
v 0.247873 0.950339 0.808033
v 0.247873 1.542088 -0.353712
v 0.247873 1.536158 -0.353712
v 0.247873 1.542088 0.039650
v 0.247873 1.536158 0.808033
v 0.247873 1.166086 0.425039
v 0.247873 0.879106 0.425039
v 0.247873 0.879106 0.193766
v 0.247873 1.053670 0.039650
v 0.247873 0.873177 0.193766
v 0.247873 1.047740 0.039650
v 0.247873 1.536158 0.193766
v 0.247873 1.536158 0.039650
v 0.247873 0.950339 0.579155
v 0.247873 0.663359 0.579155
v 0.247873 0.873177 0.425039
v 0.247873 0.586197 0.425039
v 0.247873 1.536158 0.579155
v 0.247873 1.249178 0.579155
v 0.247873 1.536158 0.425039
v 0.247873 1.172016 0.425039
v 0.247873 0.655551 0.577276
v 0.247873 0.655551 0.809911
v 0.247873 0.762639 -0.355590
v 0.247873 0.752952 -0.355590
v 0.247873 1.543966 0.809911
v 0.247873 1.543966 0.577276
v 0.247873 0.665237 0.809911
v 0.247873 1.348458 -0.355590
v 0.247873 1.338771 -0.355590
v 0.247873 1.241370 0.809911
v 0.247873 1.251057 0.809911
v 0.247873 1.241370 0.577276
v 0.247873 0.958147 0.809911
v 0.247873 0.958147 0.577276
v 0.247873 0.588075 0.191888
v 0.247873 0.578389 0.191888
v 0.247873 0.752952 0.041528
v 0.247873 0.762639 0.041528
v 0.247873 1.173894 0.191888
v 0.247873 1.164208 0.191888
v 0.247873 1.338771 0.041528
v 0.247873 1.348458 0.041528
v 0.247873 0.578389 0.426917
v 0.247873 1.055548 -0.355590
v 0.247873 1.045862 -0.355590
v 0.247873 1.543966 0.426917
v 0.247873 1.543966 0.191888
v 0.247873 0.948460 0.809911
v 0.247873 1.543966 -0.355590
v 0.247873 1.534279 -0.355590
v 0.247873 1.543966 0.041528
v 0.247873 1.534279 0.809911
v 0.247873 1.164208 0.426917
v 0.247873 0.880985 0.426917
v 0.247873 0.880985 0.191888
v 0.247873 1.055548 0.041528
v 0.247873 0.871298 0.191888
v 0.247873 1.045862 0.041528
v 0.247873 1.534279 0.191888
v 0.247873 1.534279 0.041528
v 0.247873 0.948460 0.577276
v 0.247873 0.665237 0.577276
v 0.247873 0.871298 0.426917
v 0.247873 0.588075 0.426917
v 0.247873 1.534279 0.577276
v 0.247873 1.251057 0.577276
v 0.247873 1.534279 0.426917
v 0.247873 1.173894 0.426917
v 0.247537 0.657429 0.579155
v 0.247537 0.657429 0.808033
v 0.247537 0.760760 -0.353712
v 0.247537 0.754831 -0.353712
v 0.247537 1.542088 0.808033
v 0.247537 1.542088 0.579155
v 0.247537 0.663359 0.808033
v 0.247537 1.346580 -0.353712
v 0.247537 1.340650 -0.353712
v 0.247537 1.243248 0.808033
v 0.247537 1.249178 0.808033
v 0.247537 1.243248 0.579155
v 0.247537 0.956268 0.808033
v 0.247537 0.956268 0.579155
v 0.247537 0.586197 0.193766
v 0.247537 0.580267 0.193766
v 0.247537 0.754831 0.039650
v 0.247537 0.760760 0.039650
v 0.247537 1.172016 0.193766
v 0.247537 1.166086 0.193766
v 0.247537 1.340650 0.039650
v 0.247537 1.346580 0.039650
v 0.247537 0.580267 0.425039
v 0.247537 1.053670 -0.353712
v 0.247537 1.047740 -0.353712
v 0.247537 1.542088 0.425039
v 0.247537 1.542088 0.193766
v 0.247537 0.950339 0.808033
v 0.247537 1.542088 -0.353712
v 0.247537 1.536158 -0.353712
v 0.247537 1.542088 0.039650
v 0.247537 1.536158 0.808033
v 0.247537 1.166086 0.425039
v 0.247537 0.879106 0.425039
v 0.247537 0.879106 0.193766
v 0.247537 1.053670 0.039650
v 0.247537 0.873177 0.193766
v 0.247537 1.047740 0.039650
v 0.247537 1.536158 0.193766
v 0.247537 1.536158 0.039650
v 0.247537 0.950339 0.579155
v 0.247537 0.663359 0.579155
v 0.247537 0.873177 0.425039
v 0.247537 0.586197 0.425039
v 0.247537 1.536158 0.579155
v 0.247537 1.249178 0.579155
v 0.247537 1.536158 0.425039
v 0.247537 1.172016 0.425039
v 0.250000 0.290703 -0.974076
v 0.250000 0.290703 -0.559527
v 0.250000 1.658645 -0.541193
v 0.233824 1.635768 -1.008586
v 0.243788 0.962073 -0.933918
v 0.243788 0.962073 -0.599684
v 0.243788 1.519044 -0.599684
v 0.243788 1.519044 -0.933918
v 0.243788 0.958674 -0.937317
v 0.243788 0.958674 -0.596285
v 0.243788 1.522443 -0.596285
v 0.243788 1.522443 -0.937317
v 0.253928 1.254509 -0.915581
v 0.253928 1.254509 -0.618021
v 0.249542 0.962073 -0.933918
v 0.253928 0.966459 -0.929532
v 0.253928 0.966459 -0.604071
v 0.249542 0.962073 -0.599684
v 0.253928 1.500707 -0.618021
v 0.249542 1.519044 -0.599684
v 0.249542 1.519044 -0.933918
v 0.253928 1.500707 -0.915581
v 0.253928 1.514657 -0.929532
v 0.253928 1.240558 -0.929532
v 0.253928 1.514657 -0.604071
v 0.253928 1.240558 -0.604071
v 0.250802 1.498007 -0.912882
v 0.250802 1.257208 -0.912882
v 0.250802 1.498007 -0.620720
v 0.250802 1.257208 -0.620720
v 0.250802 1.500707 -0.915581
v 0.250802 1.254509 -0.915581
v 0.250802 1.500707 -0.618021
v 0.250802 1.254509 -0.618021
v 0.250187 1.498007 -0.912882
v 0.250187 1.257208 -0.912882
v 0.250187 1.498007 -0.620720
v 0.250187 1.257208 -0.620720
v 0.250000 0.909793 -0.559527
v 0.250000 0.909793 -0.974076
v 0.233824 0.295246 -1.008586
v 0.250000 0.272369 -0.541193
v 0.250000 0.928127 -0.541193
v 0.233824 0.928127 -1.008586
v 0.243689 0.298024 -0.966755
v 0.243689 0.298024 -0.566848
v 0.243689 0.902472 -0.566848
v 0.243689 0.902472 -0.966755
v 0.243689 0.290703 -0.974076
v 0.243689 0.290703 -0.559527
v 0.243689 0.909793 -0.559527
v 0.243689 0.909793 -0.974076
v 0.250694 0.634074 -0.566848
v 0.244347 0.675806 -0.566848
v 0.244347 0.730757 -0.966755
v 0.250694 0.689025 -0.966755
v 0.250694 0.689025 -0.566848
v 0.244347 0.730757 -0.566848
v 0.244347 0.785708 -0.966755
v 0.250694 0.743976 -0.966755
v 0.250694 0.743976 -0.566848
v 0.244347 0.785708 -0.566848
v 0.244347 0.840659 -0.966755
v 0.250694 0.798927 -0.966755
v 0.250694 0.798927 -0.566848
v 0.244347 0.840659 -0.566848
v 0.244347 0.895610 -0.966755
v 0.250694 0.853878 -0.966755
v 0.250694 0.853878 -0.566848
v 0.244347 0.895610 -0.566848
v 0.244347 0.621124 -0.966755
v 0.250694 0.579392 -0.966755
v 0.250694 0.579392 -0.566848
v 0.244347 0.621124 -0.566848
v 0.243689 0.579392 -0.566848
v 0.243689 0.621124 -0.566848
v 0.243689 0.621124 -0.966755
v 0.243689 0.579392 -0.966755
v 0.243689 0.634074 -0.566848
v 0.243689 0.675806 -0.566848
v 0.243689 0.689025 -0.566848
v 0.243689 0.730757 -0.566848
v 0.243689 0.743976 -0.566848
v 0.243689 0.785708 -0.566848
v 0.243689 0.798927 -0.566848
v 0.243689 0.840659 -0.566848
v 0.243689 0.853878 -0.566848
v 0.243689 0.895610 -0.566848
v 0.243689 0.675806 -0.966755
v 0.243689 0.634074 -0.966755
v 0.243689 0.730757 -0.966755
v 0.243689 0.689025 -0.966755
v 0.243689 0.785708 -0.966755
v 0.243689 0.743976 -0.966755
v 0.243689 0.840659 -0.966755
v 0.243689 0.798927 -0.966755
v 0.243689 0.895610 -0.966755
v 0.243689 0.853878 -0.966755
v 0.243689 0.304637 -0.566848
v 0.243689 0.346369 -0.566848
v 0.243689 0.359588 -0.566848
v 0.243689 0.401320 -0.566848
v 0.243689 0.414539 -0.566848
v 0.243689 0.456271 -0.566848
v 0.243689 0.469490 -0.566848
v 0.243689 0.511222 -0.566848
v 0.243689 0.524441 -0.566848
v 0.243689 0.566173 -0.566848
v 0.243689 0.346369 -0.966755
v 0.243689 0.304637 -0.966755
v 0.243689 0.401320 -0.966755
v 0.243689 0.359588 -0.966755
v 0.243689 0.456271 -0.966755
v 0.243689 0.414539 -0.966755
v 0.243689 0.511222 -0.966755
v 0.243689 0.469490 -0.966755
v 0.243689 0.566173 -0.966755
v 0.243689 0.524441 -0.966755
v 0.250694 0.634074 -0.966755
v 0.244347 0.675806 -0.966755
v 0.244347 0.566173 -0.566848
v 0.250694 0.524441 -0.566848
v 0.250694 0.524441 -0.966755
v 0.244347 0.566173 -0.966755
v 0.244347 0.511222 -0.566848
v 0.250694 0.469490 -0.566848
v 0.250694 0.469490 -0.966755
v 0.244347 0.511222 -0.966755
v 0.244347 0.456271 -0.566848
v 0.250694 0.414539 -0.566848
v 0.250694 0.414539 -0.966755
v 0.244347 0.456271 -0.966755
v 0.244347 0.401320 -0.566848
v 0.250694 0.359588 -0.566848
v 0.250694 0.359588 -0.966755
v 0.244347 0.401320 -0.966755
v 0.244347 0.346369 -0.566848
v 0.250694 0.304637 -0.566848
v 0.250694 0.304637 -0.966755
v 0.244347 0.346369 -0.966755
v 0.250000 0.000000 -0.992409
v 0.250000 0.000000 0.992409
v 0.250000 0.269265 0.992409
v 0.250000 0.269265 -0.992409
v 0.248048 0.200404 -0.908353
v 0.248048 0.200404 0.908353
v 0.248048 0.220976 0.908353
v 0.248048 0.220976 -0.908353
v 0.248048 0.197479 -0.911278
v 0.248048 0.197479 0.911278
v 0.248048 0.223901 0.911278
v 0.248048 0.223901 -0.911278
v 0.246165 0.200404 -0.908353
v 0.246165 0.200404 0.908353
v 0.246165 0.220976 0.908353
v 0.246165 0.220976 -0.908353
v 0.250000 1.559384 0.893148
v 0.244326 1.553710 0.887475
v 0.244326 0.377304 -0.433154
v 0.250000 0.371630 -0.438827
v 0.244326 0.377304 0.887475
v 0.250000 0.371630 0.893148
v 0.250000 1.559384 -0.438827
v 0.244326 1.553710 -0.433154
v 0.250000 0.371630 0.116708
v 0.244326 0.377304 0.116708
v 0.250000 0.965507 -0.438827
v 0.244326 0.965507 -0.433154
v 0.250000 1.559384 0.116708
v 0.244326 1.553710 0.116708
v 0.250000 0.965507 0.893148
v 0.244326 0.965507 0.887475
v 0.250000 0.371630 0.502097
v 0.244326 0.377304 0.502097
v 0.250000 0.672597 -0.438827
v 0.244326 0.672597 -0.433154
v 0.250000 1.559384 0.502097
v 0.244326 1.553710 0.502097
v 0.250000 0.672597 0.893148
v 0.244326 0.672597 0.887475
v 0.250000 1.258417 -0.438827
v 0.244326 1.258417 -0.433154
v 0.250000 1.258417 0.893148
v 0.244326 1.258417 0.887475
v 0.244617 0.382072 0.504481
v 0.250000 0.389266 0.506396
v 0.250000 0.389266 0.880792
v 0.244617 0.382072 0.882707
v 0.250000 0.767511 -0.426871
v 0.244617 0.767615 -0.428386
v 0.250000 0.767615 -0.423003
v 0.250000 0.389003 -0.427025
v 0.244617 0.382072 -0.428386
v 0.244617 1.548942 0.882707
v 0.250000 1.548802 0.880658
v 0.250000 1.548942 0.877324
v 0.250000 1.548802 0.506529
v 0.244617 1.548942 0.504481
v 0.250000 1.548942 0.509864
v 0.244617 0.670213 0.882707
v 0.250000 0.670073 0.880658
v 0.250000 0.670213 0.877324
v 0.250000 1.353294 -0.426338
v 0.244617 1.353434 -0.428386
v 0.250000 1.353434 -0.423003
v 0.250000 1.072486 -0.426471
v 0.244617 1.065292 -0.428386
v 0.244617 0.967891 0.882707
v 0.250000 0.975085 0.880792
v 0.244617 1.256032 0.882707
v 0.250000 1.255893 0.880658
v 0.250000 1.256032 0.877324
v 0.244617 0.967891 0.504481
v 0.250000 0.975085 0.506396
v 0.244617 0.963123 0.882707
v 0.250000 0.962983 0.880658
v 0.250000 0.963123 0.877324
v 0.250000 0.962983 0.506529
v 0.244617 0.963123 0.504481
v 0.250000 0.963123 0.509864
v 0.250000 0.592859 0.121910
v 0.244617 0.593051 0.119092
v 0.250000 0.593051 0.124475
v 0.250000 0.389395 0.121807
v 0.244617 0.382072 0.119092
v 0.244617 0.382072 0.114324
v 0.250000 0.389003 0.112963
v 0.244617 0.767615 0.114324
v 0.250000 0.767511 0.112809
v 0.250000 0.767615 0.108941
v 0.250000 1.178730 0.121140
v 0.244617 1.178870 0.119092
v 0.250000 1.178870 0.124475
v 0.250000 0.897922 0.121007
v 0.244617 0.890729 0.119092
v 0.244617 1.065292 0.114324
v 0.250000 1.072486 0.112409
v 0.244617 1.353434 0.114324
v 0.250000 1.353294 0.112276
v 0.250000 1.353434 0.108941
v 0.250000 0.389395 0.496997
v 0.244617 0.382072 0.499713
v 0.250000 1.060384 -0.426338
v 0.244617 1.060524 -0.428386
v 0.250000 1.060524 -0.423003
v 0.250000 0.779576 -0.426471
v 0.244617 0.772383 -0.428386
v 0.244617 1.548942 0.499713
v 0.250000 1.548833 0.498112
v 0.250000 1.548942 0.494330
v 0.250000 1.548833 0.120693
v 0.244617 1.548942 0.119092
v 0.250000 1.548942 0.124475
v 0.244617 0.674981 0.882707
v 0.250000 0.682175 0.880792
v 0.250000 1.548729 -0.425277
v 0.244617 1.548942 -0.428386
v 0.250000 1.548942 -0.423003
v 0.250000 1.365502 -0.425368
v 0.244617 1.358202 -0.428386
v 0.244617 1.548942 0.114324
v 0.250000 1.548729 0.111215
v 0.250000 1.548942 0.108941
v 0.244617 1.260801 0.882707
v 0.250000 1.267994 0.880792
v 0.250000 0.897922 0.497798
v 0.244617 0.890729 0.499713
v 0.244617 0.885961 0.499713
v 0.250000 0.885821 0.497665
v 0.250000 0.885961 0.494330
v 0.250000 0.885821 0.121140
v 0.244617 0.885961 0.119092
v 0.250000 0.885961 0.124475
v 0.244617 1.060524 0.114324
v 0.250000 1.060384 0.112276
v 0.250000 1.060524 0.108941
v 0.250000 0.605013 0.121007
v 0.244617 0.597819 0.119092
v 0.244617 0.772383 0.114324
v 0.250000 0.779576 0.112409
v 0.250000 1.190623 0.120542
v 0.244617 1.183638 0.119092
v 0.244617 1.358202 0.114324
v 0.250000 1.365502 0.111306
v 0.244617 0.674981 0.504481
v 0.250000 0.682175 0.506396
v 0.250000 0.670073 0.506529
v 0.244617 0.670213 0.504481
v 0.250000 0.670213 0.509864
v 0.250000 0.605013 0.497798
v 0.244617 0.597819 0.499713
v 0.244617 0.593051 0.499713
v 0.250000 0.592859 0.496895
v 0.250000 0.593051 0.494330
v 0.244617 1.260801 0.504481
v 0.250000 1.267994 0.506396
v 0.250000 1.255893 0.506529
v 0.244617 1.256032 0.504481
v 0.250000 1.256032 0.509864
v 0.250000 1.190623 0.498263
v 0.244617 1.183638 0.499713
v 0.244617 1.178870 0.499713
v 0.250000 1.178730 0.497665
v 0.250000 1.178870 0.494330
v -0.192409 1.658645 1.050000
v 0.208586 1.635768 1.033824
v 0.208586 1.635768 -1.033824
v -0.192409 1.658645 -1.050000
v 0.208586 0.295246 1.033824
v -0.192409 0.272369 1.050000
v -0.192409 0.272369 -1.050000
v 0.208586 0.295246 -1.033824
v -0.134921 1.601156 1.038285
v 0.134921 1.601156 1.038285
v 0.134921 1.601156 -1.038285
v -0.134921 1.601156 -1.038285
v 0.134921 0.329858 1.038285
v -0.134921 0.329858 1.038285
v -0.134921 0.329858 -1.038285
v 0.134921 0.329858 -1.038285
v -0.142937 1.609172 1.038285
v 0.142937 1.609172 1.038285
v 0.142937 1.609172 -1.038285
v -0.142937 1.609172 -1.038285
v 0.142937 0.321842 1.038285
v -0.142937 0.321842 1.038285
v -0.142937 0.321842 -1.038285
v 0.142937 0.321842 -1.038285
v -0.134921 1.601156 1.047964
v 0.134921 1.601156 1.047964
v 0.134921 1.601156 -1.047964
v -0.134921 1.601156 -1.047964
v 0.134921 0.329858 1.047964
v -0.134921 0.329858 1.047964
v -0.134921 0.329858 -1.047964
v 0.134921 0.329858 -1.047964
v 0.250000 1.658645 -0.992409
v 0.192409 1.658645 -1.050000
v 0.192409 1.658645 1.050000
v 0.250000 1.658645 0.992409
v 0.192409 0.272369 -1.050000
v 0.250000 0.272369 -0.992409
v 0.250000 0.272369 0.992409
v 0.192409 0.272369 1.050000
v 0.250000 0.928127 -0.992409
v 0.230516 1.635768 -1.005278
v 0.205278 1.635768 -1.030516
v 0.205278 1.635768 1.030516
v 0.230516 1.635768 1.005278
v 0.205278 0.295246 -1.030516
v 0.230516 0.295246 -1.005278
v 0.230516 0.295246 1.005278
v 0.205278 0.295246 1.030516
v 0.230516 0.928127 -1.005278
v 0.253928 1.103509 -0.604071
v 0.253928 0.966459 -0.766801
v 0.253928 1.240558 -0.766801
v 0.253928 1.103509 -0.929532
v 0.253928 1.103509 -0.766801
v 0.253928 1.172034 -0.604071
v 0.253928 0.966459 -0.685436
v 0.253928 1.240558 -0.685436
v 0.253928 1.034984 -0.929532
v 0.253928 1.034984 -0.604071
v 0.253928 0.966459 -0.848166
v 0.253928 1.240558 -0.848166
v 0.253928 1.172034 -0.929532
v 0.253928 1.103509 -0.685436
v 0.253928 1.103509 -0.848166
v 0.253928 1.034984 -0.766801
v 0.253928 1.172034 -0.766801
v 0.253928 1.172034 -0.848166
v 0.253928 1.034984 -0.848166
v 0.253928 1.034984 -0.685436
v 0.253928 1.172034 -0.685436
v 0.253928 1.206296 -0.604071
v 0.253928 0.966459 -0.644753
v 0.253928 1.240558 -0.644753
v 0.253928 1.000722 -0.929532
v 0.253928 1.069247 -0.604071
v 0.253928 0.966459 -0.807484
v 0.253928 1.240558 -0.807484
v 0.253928 1.137771 -0.929532
v 0.253928 1.103509 -0.644753
v 0.253928 1.103509 -0.807484
v 0.253928 1.000722 -0.766801
v 0.253928 1.137771 -0.766801
v 0.253928 1.137771 -0.604071
v 0.253928 0.966459 -0.726118
v 0.253928 1.240558 -0.726118
v 0.253928 1.069247 -0.929532
v 0.253928 1.000722 -0.604071
v 0.253928 0.966459 -0.888849
v 0.253928 1.240558 -0.888849
v 0.253928 1.206296 -0.929532
v 0.253928 1.103509 -0.726118
v 0.253928 1.103509 -0.888849
v 0.253928 1.069247 -0.766801
v 0.253928 1.206296 -0.766801
v 0.253928 1.172034 -0.807484
v 0.253928 1.172034 -0.888849
v 0.253928 1.137771 -0.848166
v 0.253928 1.206296 -0.848166
v 0.253928 1.034984 -0.807484
v 0.253928 1.034984 -0.888849
v 0.253928 1.000722 -0.848166
v 0.253928 1.069247 -0.848166
v 0.253928 1.034984 -0.644753
v 0.253928 1.034984 -0.726118
v 0.253928 1.000722 -0.685436
v 0.253928 1.069247 -0.685436
v 0.253928 1.172034 -0.644753
v 0.253928 1.172034 -0.726118
v 0.253928 1.137771 -0.685436
v 0.253928 1.206296 -0.685436
v 0.253928 1.206296 -0.726118
v 0.253928 1.137771 -0.726118
v 0.253928 1.137771 -0.644753
v 0.253928 1.069247 -0.726118
v 0.253928 1.000722 -0.726118
v 0.253928 1.000722 -0.644753
v 0.253928 1.069247 -0.888849
v 0.253928 1.000722 -0.888849
v 0.253928 1.000722 -0.807484
v 0.253928 1.206296 -0.888849
v 0.253928 1.137771 -0.888849
v 0.253928 1.137771 -0.807484
v 0.253928 1.206296 -0.807484
v 0.253928 1.069247 -0.807484
v 0.253928 1.069247 -0.644753
v 0.253928 1.206296 -0.644753
v 0.253928 1.209256 -0.641794
v 0.253928 1.237599 -0.641794
v 0.253928 1.237599 -0.607030
v 0.253928 1.209256 -0.607030
v 0.253928 1.209256 -0.804524
v 0.253928 1.237599 -0.804524
v 0.253928 1.237599 -0.769761
v 0.253928 1.209256 -0.769761
v 0.253928 1.140731 -0.804524
v 0.253928 1.169074 -0.804524
v 0.253928 1.169074 -0.769761
v 0.253928 1.140731 -0.769761
v 0.253928 1.140731 -0.885890
v 0.253928 1.169074 -0.885890
v 0.253928 1.169074 -0.851126
v 0.253928 1.140731 -0.851126
v 0.253928 1.003681 -0.804524
v 0.253928 1.032025 -0.804524
v 0.253928 1.032025 -0.769761
v 0.253928 1.003681 -0.769761
v 0.253928 1.003681 -0.885890
v 0.253928 1.032025 -0.885890
v 0.253928 1.032025 -0.851126
v 0.253928 1.003681 -0.851126
v 0.253928 1.106469 -0.682476
v 0.253928 1.134812 -0.682476
v 0.253928 1.134812 -0.647713
v 0.253928 1.106469 -0.647713
v 0.253928 1.072206 -0.763842
v 0.253928 1.100549 -0.763842
v 0.253928 1.100549 -0.729078
v 0.253928 1.072206 -0.729078
v 0.253928 0.969419 -0.682476
v 0.253928 0.997762 -0.682476
v 0.253928 0.997762 -0.647713
v 0.253928 0.969419 -0.647713
v 0.253928 1.037944 -0.885890
v 0.253928 1.066287 -0.885890
v 0.253928 1.066287 -0.851126
v 0.253928 1.037944 -0.851126
v 0.253928 1.174993 -0.926572
v 0.253928 1.203336 -0.926572
v 0.253928 1.203336 -0.891809
v 0.253928 1.174993 -0.891809
v 0.253928 1.209256 -0.845207
v 0.253928 1.237599 -0.845207
v 0.253928 1.237599 -0.810443
v 0.253928 1.209256 -0.810443
v 0.253928 1.037944 -0.845207
v 0.253928 1.066287 -0.845207
v 0.253928 1.066287 -0.810443
v 0.253928 1.037944 -0.810443
v 0.253928 1.072206 -0.682476
v 0.253928 1.100549 -0.682476
v 0.253928 1.100549 -0.647713
v 0.253928 1.072206 -0.647713
v 0.253928 1.174993 -0.682476
v 0.253928 1.203336 -0.682476
v 0.253928 1.203336 -0.647713
v 0.253928 1.174993 -0.647713
v 0.252785 1.237599 -0.641794
v 0.252785 1.209256 -0.641794
v 0.252785 1.209256 -0.607030
v 0.252785 1.237599 -0.607030
v 0.252785 1.237599 -0.804524
v 0.252785 1.209256 -0.804524
v 0.252785 1.209256 -0.769761
v 0.252785 1.237599 -0.769761
v 0.252785 1.169074 -0.804524
v 0.252785 1.140731 -0.804524
v 0.252785 1.140731 -0.769761
v 0.252785 1.169074 -0.769761
v 0.252785 1.169074 -0.885890
v 0.252785 1.140731 -0.885890
v 0.252785 1.140731 -0.851126
v 0.252785 1.169074 -0.851126
v 0.252785 1.032025 -0.804524
v 0.252785 1.003681 -0.804524
v 0.252785 1.003681 -0.769761
v 0.252785 1.032025 -0.769761
v 0.252785 1.032025 -0.885890
v 0.252785 1.003681 -0.885890
v 0.252785 1.003681 -0.851126
v 0.252785 1.032025 -0.851126
v 0.252785 1.134812 -0.682476
v 0.252785 1.106469 -0.682476
v 0.252785 1.106469 -0.647713
v 0.252785 1.134812 -0.647713
v 0.252785 1.100549 -0.763842
v 0.252785 1.072206 -0.763842
v 0.252785 1.072206 -0.729078
v 0.252785 1.100549 -0.729078
v 0.252785 0.997762 -0.682476
v 0.252785 0.969419 -0.682476
v 0.252785 0.969419 -0.647713
v 0.252785 0.997762 -0.647713
v 0.252785 1.066287 -0.885890
v 0.252785 1.037944 -0.885890
v 0.252785 1.037944 -0.851126
v 0.252785 1.066287 -0.851126
v 0.252785 1.203336 -0.926572
v 0.252785 1.174993 -0.926572
v 0.252785 1.174993 -0.891809
v 0.252785 1.203336 -0.891809
v 0.252785 1.237599 -0.845207
v 0.252785 1.209256 -0.845207
v 0.252785 1.209256 -0.810443
v 0.252785 1.237599 -0.810443
v 0.252785 1.066287 -0.845207
v 0.252785 1.037944 -0.845207
v 0.252785 1.037944 -0.810443
v 0.252785 1.066287 -0.810443
v 0.252785 1.100549 -0.682476
v 0.252785 1.072206 -0.682476
v 0.252785 1.072206 -0.647713
v 0.252785 1.100549 -0.647713
v 0.252785 1.203336 -0.682476
v 0.252785 1.174993 -0.682476
v 0.252785 1.174993 -0.647713
v 0.252785 1.203336 -0.647713
v 0.253928 1.072503 -0.641497
v 0.253928 1.100252 -0.641497
v 0.253928 1.100252 -0.607327
v 0.253928 1.072503 -0.607327
v 0.253928 1.072503 -0.804227
v 0.253928 1.100252 -0.804227
v 0.253928 1.100252 -0.770058
v 0.253928 1.072503 -0.770058
v 0.253928 1.141028 -0.722862
v 0.253928 1.168777 -0.722862
v 0.253928 1.168777 -0.688693
v 0.253928 1.141028 -0.688693
v 0.253928 1.175290 -0.763544
v 0.253928 1.203039 -0.763544
v 0.253928 1.203039 -0.729375
v 0.253928 1.175290 -0.729375
v 0.253928 1.209553 -0.763544
v 0.253928 1.237302 -0.763544
v 0.253928 1.237302 -0.729375
v 0.253928 1.209553 -0.729375
v 0.253928 0.969716 -0.722862
v 0.253928 0.997465 -0.722862
v 0.253928 0.997465 -0.688693
v 0.253928 0.969716 -0.688693
v 0.253928 1.003978 -0.682179
v 0.253928 1.031728 -0.682179
v 0.253928 1.031728 -0.648010
v 0.253928 1.003978 -0.648010
v 0.253928 1.003978 -0.926275
v 0.253928 1.031728 -0.926275
v 0.253928 1.031728 -0.892106
v 0.253928 1.003978 -0.892106
v 0.253928 0.969716 -0.844910
v 0.253928 0.997465 -0.844910
v 0.253928 0.997465 -0.810740
v 0.253928 0.969716 -0.810740
v 0.253928 1.175290 -0.885592
v 0.253928 1.203039 -0.885592
v 0.253928 1.203039 -0.851423
v 0.253928 1.175290 -0.851423
v 0.253928 1.106766 -0.926275
v 0.253928 1.134515 -0.926275
v 0.253928 1.134515 -0.892106
v 0.253928 1.106766 -0.892106
v 0.253928 1.072503 -0.844910
v 0.253928 1.100252 -0.844910
v 0.253928 1.100252 -0.810740
v 0.253928 1.072503 -0.810740
v 0.253928 1.175290 -0.641497
v 0.253928 1.203039 -0.641497
v 0.253928 1.203039 -0.607327
v 0.253928 1.175290 -0.607327
v 0.253186 1.100252 -0.641497
v 0.253186 1.072503 -0.641497
v 0.253186 1.072503 -0.607327
v 0.253186 1.100252 -0.607327
v 0.253186 1.100252 -0.804227
v 0.253186 1.072503 -0.804227
v 0.253186 1.072503 -0.770058
v 0.253186 1.100252 -0.770058
v 0.253186 1.168777 -0.722862
v 0.253186 1.141028 -0.722862
v 0.253186 1.141028 -0.688693
v 0.253186 1.168777 -0.688693
v 0.253186 1.203039 -0.763544
v 0.253186 1.175290 -0.763544
v 0.253186 1.175290 -0.729375
v 0.253186 1.203039 -0.729375
v 0.253186 1.237302 -0.763544
v 0.253186 1.209553 -0.763544
v 0.253186 1.209553 -0.729375
v 0.253186 1.237302 -0.729375
v 0.253186 0.997465 -0.722862
v 0.253186 0.969716 -0.722862
v 0.253186 0.969716 -0.688693
v 0.253186 0.997465 -0.688693
v 0.253186 1.031728 -0.682179
v 0.253186 1.003978 -0.682179
v 0.253186 1.003978 -0.648010
v 0.253186 1.031728 -0.648010
v 0.253186 1.031728 -0.926275
v 0.253186 1.003978 -0.926275
v 0.253186 1.003978 -0.892106
v 0.253186 1.031728 -0.892106
v 0.253186 0.997465 -0.844910
v 0.253186 0.969716 -0.844910
v 0.253186 0.969716 -0.810740
v 0.253186 0.997465 -0.810740
v 0.253186 1.203039 -0.885592
v 0.253186 1.175290 -0.885592
v 0.253186 1.175290 -0.851423
v 0.253186 1.203039 -0.851423
v 0.253186 1.134515 -0.926275
v 0.253186 1.106766 -0.926275
v 0.253186 1.106766 -0.892106
v 0.253186 1.134515 -0.892106
v 0.253186 1.100252 -0.844910
v 0.253186 1.072503 -0.844910
v 0.253186 1.072503 -0.810740
v 0.253186 1.100252 -0.810740
v 0.253186 1.203039 -0.641497
v 0.253186 1.175290 -0.641497
v 0.253186 1.175290 -0.607327
v 0.253186 1.203039 -0.607327
vn -0.0000 -0.0000 -1.0000
vn -0.0000 -0.0000 1.0000
vn -0.0000 1.0000 -0.0000
vn -0.0000 -1.0000 -0.0000
vn -0.7071 0.7071 -0.0000
vn -1.0000 -0.0000 -0.0000
vn 0.0001 -1.0000 -0.0000
vn -0.5000 0.7071 0.5000
vn -0.5000 0.7071 -0.5000
vn 0.5000 0.7071 -0.5000
vn 0.5000 0.7071 0.5000
vn -0.0000 0.7071 0.7071
vn 1.0000 -0.0000 -0.0000
vn -0.0000 0.7071 -0.7071
vn -0.0000 -0.0001 1.0000
vn 0.7071 0.7071 -0.0000
vn -0.7071 -0.0000 -0.7071
vn -0.7071 -0.0000 0.7071
vn 0.7071 -0.0000 0.7071
vn -0.0001 -1.0000 -0.0000
vn 0.7071 -0.0000 -0.7071
vn -1.0000 -0.0000 -0.0001
vn -1.0000 0.0001 0.0002
vn 1.0000 -0.0000 -0.0001
vn 1.0000 0.0001 0.0002
vn -1.0000 -0.0001 -0.0000
vn 1.0000 -0.0001 -0.0000
vn -0.5000 -0.7071 0.5000
vn -0.5000 -0.7071 -0.5000
vn 0.5000 -0.7071 -0.5000
vn 0.5000 -0.7071 0.5000
vn -0.7071 -0.7071 -0.0000
vn -0.0000 -0.7071 0.7071
vn -0.0000 -0.7071 -0.7071
vn 0.7071 -0.7071 -0.0000
vn 0.0001 1.0000 -0.0000
vn -0.5000 0.5000 0.7071
vn -0.5000 0.5000 -0.7071
vn 0.5000 0.5000 0.7071
vn 0.5000 0.5000 -0.7071
vn 0.9886 0.1504 -0.0000
vn 0.0268 0.9993 -0.0268
vn 0.0419 0.9982 0.0419
vn 0.0419 0.9982 -0.0419
vn 0.0420 0.9982 -0.0419
vn 0.0747 0.9944 -0.0747
vn 0.0268 0.9993 0.0268
vn 0.0289 0.9992 0.0289
vn 0.0289 0.9992 -0.0289
vn 0.0925 0.9914 -0.0927
vn 0.0926 0.9914 0.0927
vn 0.0747 0.9944 0.0747
vn 0.8007 -0.5991 -0.0000
vn 0.2580 0.0002 -0.9662
vn 0.3453 0.0002 0.9385
vn 0.3453 0.0002 -0.9385
vn 0.4570 0.0002 -0.8895
vn 0.2580 0.0002 0.9662
vn 0.8057 -0.5923 -0.0000
vn 0.7898 -0.6134 -0.0000
vn 0.4945 0.0002 -0.8692
vn 0.2726 0.0002 -0.9621
vn 0.4945 0.0002 0.8692
vn 0.8049 -0.5935 -0.0000
vn 0.4570 0.0002 0.8895
vn 0.7921 -0.6104 -0.0000
vn 0.2726 0.0002 0.9621
vt 0.414907 0.189177
vt 0.618918 0.189177
vt 0.618918 0.560823
vt 0.414907 0.560823
vt 0.386931 0.516515
vt 0.402667 0.516515
vt 0.414745 0.971205
vt 0.414745 0.778795
vt 0.414744 0.278795
vt 0.414745 0.243144
vt 0.414745 0.278795
vt 0.618918 0.189309
vt 0.414907 0.189309
vt 0.414907 0.189309
vt 0.618918 0.189309
vt 0.618918 0.560691
vt 0.645678 0.560691
vt 0.414908 0.778795
vt 0.414908 0.971205
vt 0.414907 0.971205
vt 0.414908 0.778795
vt 0.414598 0.243144
vt 0.414598 0.006856
vt 0.414745 0.006856
vt 0.414744 0.243144
vt 0.414745 0.471205
vt 0.414745 0.278795
vt 0.414745 0.471205
vt 0.375000 0.243144
vt 0.375000 0.006856
vt 0.854322 0.560823
vt 0.645678 0.560823
vt 0.414744 0.506856
vt 0.414745 0.471205
vt 0.414745 0.506856
vt 0.414907 0.243144
vt 0.414908 0.278795
vt 0.414907 0.243144
vt 0.414908 0.278795
vt 0.414908 0.471205
vt 0.414907 0.471205
vt 0.414907 0.743144
vt 0.414907 0.743144
vt 0.618918 0.189177
vt 0.625000 0.189177
vt 0.414744 0.006856
vt 0.414745 0.000000
vt 0.414745 0.006856
vt 0.414744 0.778795
vt 0.414745 0.743144
vt 0.414745 0.778795
vt 0.414907 0.471205
vt 0.414908 0.506856
vt 0.414907 0.506856
vt 0.414908 0.243144
vt 0.625000 0.001442
vt 0.625000 0.005414
vt 0.618918 0.006856
vt 0.618918 0.000000
vt 0.625000 0.250642
vt 0.625000 0.271297
vt 0.618918 0.278795
vt 0.618918 0.243144
vt 0.625000 0.478703
vt 0.625000 0.499358
vt 0.618918 0.506856
vt 0.618918 0.471205
vt 0.625000 0.750642
vt 0.625000 0.771297
vt 0.618918 0.778795
vt 0.618918 0.743144
vt 0.618918 0.560823
vt 0.625000 0.787360
vt 0.625000 0.962640
vt 0.618918 0.971205
vt 0.414745 0.560757
vt 0.414907 0.560691
vt 0.618918 0.278795
vt 0.625000 0.287360
vt 0.625000 0.462640
vt 0.618918 0.243144
vt 0.618918 0.189428
vt 0.625000 0.189428
vt 0.625000 0.241105
vt 0.645678 0.560691
vt 0.854322 0.560691
vt 0.415054 0.189428
vt 0.415054 0.243144
vt 0.618918 0.560572
vt 0.645678 0.508895
vt 0.645678 0.560572
vt 0.375000 0.778795
vt 0.414598 0.778795
vt 0.414598 0.971205
vt 0.375000 0.971205
vt 0.415054 0.278795
vt 0.415054 0.243144
vt 0.422330 0.803532
vt 0.611643 0.803532
vt 0.625000 0.008895
vt 0.625000 0.189058
vt 0.618918 0.189058
vt 0.415054 0.000000
vt 0.415054 0.006856
vt 0.415054 0.006856
vt 0.415054 0.189058
vt 0.662360 0.504923
vt 0.837640 0.504923
vt 0.854322 0.508895
vt 0.854322 0.560572
vt 0.645678 0.560572
vt 0.375000 0.743144
vt 0.414598 0.743144
vt 0.375000 0.000000
vt 0.414598 0.000000
vt 0.414598 0.006856
vt 0.610817 0.554014
vt 0.423156 0.554014
vt 0.414745 0.189243
vt 0.414745 0.243144
vt 0.615554 0.753158
vt 0.615554 0.768781
vt 0.618918 0.560691
vt 0.414745 0.189243
vt 0.414907 0.000000
vt 0.414907 0.006856
vt 0.414745 0.743144
vt 0.414745 0.560757
vt 0.414745 0.506856
vt 0.625000 0.189309
vt 0.414598 0.278795
vt 0.375000 0.278795
vt 0.414908 0.006856
vt 0.618918 0.560942
vt 0.645678 0.560942
vt 0.645678 0.741105
vt 0.611643 0.446469
vt 0.422330 0.446469
vt 0.418418 0.753158
vt 0.854322 0.560942
vt 0.854322 0.741105
vt 0.837640 0.745077
vt 0.662360 0.745077
vt 0.414598 0.471205
vt 0.375000 0.471205
vt 0.592080 0.584473
vt 0.592080 0.641287
vt 0.414598 0.506856
vt 0.375000 0.506856
vt 0.414598 0.471205
vt 0.414907 0.006856
vt 0.415054 0.471205
vt 0.415054 0.506856
vt 0.415054 0.743144
vt 0.415054 0.778795
vt 0.414598 0.743144
vt 0.414598 0.506856
vt 0.414744 0.743144
vt 0.415054 0.778795
vt 0.415054 0.971205
vt 0.415054 0.278795
vt 0.415054 0.471205
vt 0.415054 0.560942
vt 0.415054 0.743144
vt 0.414908 0.743144
vt 0.415054 0.506856
vt 0.415054 0.560572
vt 0.618918 0.560942
vt 0.502210 0.560572
vt 0.618918 0.560572
vt 0.462855 0.584473
vt 0.462855 0.641287
vt 0.604321 0.572759
vt 0.560061 0.572759
vt 0.516986 0.572758
vt 0.473911 0.572759
vt 0.429651 0.572759
vt 0.430486 0.573434
vt 0.473911 0.573434
vt 0.528042 0.584473
vt 0.549005 0.584473
vt 0.528042 0.698893
vt 0.549005 0.698893
vt 0.430486 0.651699
vt 0.430486 0.573434
vt 0.571117 0.584473
vt 0.484967 0.641287
vt 0.484967 0.584473
vt 0.462856 0.722681
vt 0.441892 0.722681
vt 0.549005 0.659683
vt 0.549005 0.683566
vt 0.441892 0.641287
vt 0.441892 0.584473
vt 0.549005 0.641287
vt 0.592080 0.698893
vt 0.592080 0.722681
vt 0.571117 0.683566
vt 0.571117 0.659683
vt 0.473338 0.574276
vt 0.473561 0.574829
vt 0.473561 0.650932
vt 0.473338 0.651485
vt 0.602786 0.730124
vt 0.602786 0.729574
vt 0.602786 0.692000
vt 0.602786 0.691449
vt 0.441892 0.683566
vt 0.462856 0.683566
vt 0.473146 0.690677
vt 0.431586 0.690687
vt 0.560061 0.573434
vt 0.603487 0.573434
vt 0.516636 0.691449
vt 0.474262 0.691449
vt 0.431187 0.730124
vt 0.473561 0.730124
vt 0.431187 0.652285
vt 0.431187 0.690963
vt 0.431187 0.690963
vt 0.462856 0.698893
vt 0.441892 0.698893
vt 0.431469 0.691645
vt 0.473260 0.691659
vt 0.592080 0.683566
vt 0.602550 0.690800
vt 0.560625 0.690816
vt 0.484967 0.659683
vt 0.484967 0.683566
vt 0.474544 0.690769
vt 0.474544 0.652480
vt 0.560061 0.730652
vt 0.516986 0.730652
vt 0.473561 0.692000
vt 0.473561 0.729574
vt 0.473260 0.729915
vt 0.603487 0.651699
vt 0.603487 0.691061
vt 0.484967 0.698893
vt 0.484967 0.722681
vt 0.474544 0.729928
vt 0.474544 0.691645
vt 0.505930 0.641287
vt 0.505930 0.584473
vt 0.516334 0.574352
vt 0.516636 0.574829
vt 0.516636 0.650932
vt 0.516334 0.651409
vt 0.473561 0.574059
vt 0.431187 0.574059
vt 0.431187 0.574059
vt 0.516986 0.573434
vt 0.474544 0.651428
vt 0.474543 0.574333
vt 0.441892 0.659683
vt 0.431586 0.690687
vt 0.431586 0.652561
vt 0.517337 0.574059
vt 0.517337 0.651702
vt 0.528042 0.641287
vt 0.559409 0.651409
vt 0.517618 0.651428
vt 0.571117 0.641287
vt 0.560856 0.651270
vt 0.560856 0.574491
vt 0.559409 0.652493
vt 0.559711 0.652832
vt 0.559711 0.690416
vt 0.559409 0.690755
vt 0.602328 0.651257
vt 0.431387 0.651507
vt 0.592080 0.659683
vt 0.560625 0.652433
vt 0.602550 0.652448
vt 0.462856 0.659683
vt 0.473146 0.652571
vt 0.473561 0.652832
vt 0.473561 0.690416
vt 0.505930 0.722681
vt 0.516334 0.729915
vt 0.505930 0.659683
vt 0.474544 0.652480
vt 0.516334 0.652493
vt 0.559711 0.730124
vt 0.559711 0.729574
vt 0.559711 0.692000
vt 0.559711 0.691449
vt 0.516636 0.574059
vt 0.474262 0.574059
vt 0.528042 0.722681
vt 0.517618 0.729928
vt 0.517618 0.691645
vt 0.517618 0.651428
vt 0.517618 0.574333
vt 0.473911 0.730652
vt 0.505930 0.683566
vt 0.516334 0.690755
vt 0.602786 0.690963
vt 0.602786 0.690416
vt 0.602786 0.652832
vt 0.602786 0.652285
vt 0.528042 0.659683
vt 0.528042 0.683566
vt 0.517618 0.690769
vt 0.517618 0.652480
vt 0.571117 0.698893
vt 0.560693 0.691645
vt 0.602484 0.691659
vt 0.559409 0.574352
vt 0.559711 0.574829
vt 0.559711 0.650932
vt 0.560412 0.691449
vt 0.517618 0.690769
vt 0.431469 0.729928
vt 0.429651 0.731327
vt 0.473911 0.731327
vt 0.516986 0.731327
vt 0.560061 0.731327
vt 0.604321 0.731327
vt 0.517618 0.691645
vt 0.559409 0.691659
vt 0.603487 0.730652
vt 0.431187 0.651702
vt 0.602786 0.651702
vt 0.516636 0.730124
vt 0.517337 0.730124
vt 0.517337 0.652285
vt 0.516636 0.652285
vt 0.516636 0.651702
vt 0.431187 0.691449
vt 0.430486 0.691061
vt 0.474262 0.730124
vt 0.559711 0.574059
vt 0.560412 0.574059
vt 0.560412 0.730124
vt 0.517337 0.691449
vt 0.516636 0.690963
vt 0.517337 0.690963
vt 0.473561 0.652285
vt 0.473561 0.651702
vt 0.474262 0.651702
vt 0.474262 0.652285
vt 0.559711 0.652285
vt 0.559711 0.651702
vt 0.560412 0.651702
vt 0.560412 0.652285
vt 0.473561 0.691449
vt 0.473561 0.690963
vt 0.474262 0.690963
vt 0.559711 0.690963
vt 0.560412 0.690963
vt 0.430486 0.730652
vt 0.430486 0.730652
vt 0.602786 0.574059
vt 0.603487 0.573434
vt 0.505930 0.698893
vt 0.474544 0.691645
vt 0.516334 0.691659
vt 0.516636 0.690416
vt 0.516636 0.652832
vt 0.429651 0.572758
vt 0.429651 0.650892
vt 0.429651 0.690717
vt 0.429651 0.731327
vt 0.571117 0.722681
vt 0.560693 0.729928
vt 0.560693 0.691645
vt 0.602328 0.574504
vt 0.602786 0.574829
vt 0.602786 0.650932
vt 0.604321 0.731327
vt 0.604321 0.690717
vt 0.604321 0.650892
vt 0.604321 0.572759
vt 0.549005 0.722681
vt 0.559711 0.692000
vt 0.559711 0.729574
vt 0.559409 0.729915
vt 0.560625 0.690816
vt 0.602484 0.729915
vt 0.560694 0.729928
vt 0.431187 0.691449
vt 0.431387 0.651507
vt 0.431387 0.574253
vt 0.473561 0.574829
vt 0.559711 0.650932
vt 0.559711 0.574829
vt 0.473561 0.652832
vt 0.517337 0.690963
vt 0.473561 0.690963
vt 0.516636 0.692000
vt 0.516636 0.729574
vt 0.431187 0.651702
vt 0.602786 0.650932
vt 0.602786 0.574829
vt 0.602484 0.691659
vt 0.602786 0.692000
vt 0.602786 0.729574
vt 0.602484 0.729915
vt 0.474262 0.690963
vt 0.517618 0.574333
vt 0.602786 0.690963
vt 0.431387 0.574253
vt 0.473338 0.574276
vt 0.560856 0.574491
vt 0.602328 0.574504
vt 0.560412 0.690963
vt 0.431469 0.691645
vt 0.516636 0.650932
vt 0.516636 0.574829
vt 0.431187 0.652285
vt 0.516334 0.652493
vt 0.559711 0.690963
vt 0.516636 0.729574
vt 0.516636 0.692000
vt 0.516636 0.690963
vt 0.473561 0.729574
vt 0.473561 0.692000
vt 0.602550 0.652448
vt 0.602786 0.652832
vt 0.489032 0.659873
vt 0.501865 0.659873
vt 0.458790 0.683375
vt 0.445957 0.683375
vt 0.532107 0.659873
vt 0.544940 0.659873
vt 0.501865 0.584742
vt 0.501865 0.641019
vt 0.445957 0.699085
vt 0.458790 0.699085
vt 0.458790 0.641019
vt 0.445957 0.641018
vt 0.532107 0.641019
vt 0.532107 0.584742
vt 0.458790 0.659873
vt 0.445957 0.659873
vt 0.501865 0.683375
vt 0.489032 0.683375
vt 0.501865 0.699085
vt 0.501865 0.722488
vt 0.445957 0.722489
vt 0.458790 0.584742
vt 0.445957 0.584742
vt 0.588015 0.722489
vt 0.588015 0.699085
vt 0.458790 0.722488
vt 0.544940 0.584742
vt 0.532107 0.722489
vt 0.544940 0.722489
vt 0.532107 0.699085
vt 0.544940 0.641019
vt 0.489032 0.584742
vt 0.588015 0.683375
vt 0.588015 0.659873
vt 0.489032 0.722489
vt 0.588015 0.584742
vt 0.575182 0.584742
vt 0.588015 0.641019
vt 0.575182 0.722489
vt 0.532107 0.683375
vt 0.489032 0.641019
vt 0.575182 0.659873
vt 0.575182 0.641019
vt 0.489032 0.699085
vt 0.575182 0.699085
vt 0.544940 0.699085
vt 0.575182 0.683375
vt 0.544940 0.683375
vt 0.610817 0.513415
vt 0.423156 0.513415
vt 0.501034 0.506856
vt 0.424287 0.513819
vt 0.424287 0.553609
vt 0.609685 0.553609
vt 0.609685 0.513819
vt 0.424287 0.513819
vt 0.504596 0.518832
vt 0.495162 0.518832
vt 0.425748 0.514341
vt 0.425748 0.519185
vt 0.425748 0.524028
vt 0.425748 0.528871
vt 0.425748 0.533714
vt 0.425748 0.538557
vt 0.425748 0.543400
vt 0.425748 0.548244
vt 0.425748 0.553087
vt 0.437152 0.553087
vt 0.448557 0.553087
vt 0.459962 0.553087
vt 0.471367 0.553087
vt 0.482772 0.553087
vt 0.494177 0.553087
vt 0.505581 0.553087
vt 0.516986 0.553087
vt 0.608225 0.553087
vt 0.608225 0.514341
vt 0.516986 0.514341
vt 0.505581 0.514341
vt 0.494177 0.514341
vt 0.482772 0.514341
vt 0.471367 0.514341
vt 0.459962 0.514341
vt 0.448557 0.514341
vt 0.437152 0.514341
vt 0.603581 0.551426
vt 0.521630 0.551426
vt 0.603581 0.516002
vt 0.521630 0.516002
vt 0.516986 0.548244
vt 0.516986 0.543400
vt 0.516986 0.538557
vt 0.516986 0.533714
vt 0.516986 0.528871
vt 0.516986 0.524028
vt 0.516986 0.519185
vt 0.602683 0.551105
vt 0.522529 0.551105
vt 0.602683 0.516324
vt 0.522529 0.516324
vt 0.417465 0.509039
vt 0.498671 0.509039
vt 0.417484 0.558390
vt 0.499733 0.558390
vt 0.418428 0.509910
vt 0.418454 0.557518
vt 0.497727 0.509910
vt 0.496083 0.509910
vt 0.488577 0.509910
vt 0.486987 0.509910
vt 0.481969 0.509910
vt 0.480379 0.509910
vt 0.475361 0.509910
vt 0.473771 0.509910
vt 0.468752 0.509910
vt 0.467163 0.509910
vt 0.462144 0.509910
vt 0.460587 0.509910
vt 0.455568 0.509910
vt 0.453979 0.509910
vt 0.448960 0.509910
vt 0.447370 0.509910
vt 0.442352 0.509910
vt 0.440762 0.509910
vt 0.435744 0.509910
vt 0.434154 0.509910
vt 0.429136 0.509910
vt 0.427546 0.509910
vt 0.420019 0.509910
vt 0.469407 0.557518
vt 0.467798 0.557518
vt 0.498744 0.557518
vt 0.420064 0.557518
vt 0.427685 0.557518
vt 0.429295 0.557518
vt 0.434376 0.557518
vt 0.435986 0.557518
vt 0.441067 0.557518
vt 0.442676 0.557518
vt 0.447758 0.557518
vt 0.449367 0.557518
vt 0.454449 0.557518
vt 0.456058 0.557518
vt 0.461139 0.557518
vt 0.462716 0.557518
vt 0.467798 0.557518
vt 0.474488 0.557518
vt 0.476098 0.557518
vt 0.481179 0.557518
vt 0.482789 0.557518
vt 0.487870 0.557518
vt 0.489480 0.557518
vt 0.497080 0.557518
vt 0.420019 0.509910
vt 0.497080 0.557518
vt 0.496083 0.509910
vt 0.481969 0.509910
vt 0.480379 0.509910
vt 0.442352 0.509910
vt 0.447370 0.509910
vt 0.434376 0.557518
vt 0.454449 0.557518
vt 0.346205 0.750000
vt 0.153795 0.750000
vt 0.125000 0.743144
vt 0.125000 0.506856
vt 0.153795 0.500000
vt 0.346205 0.500000
vt 0.386931 0.733486
vt 0.402667 0.733486
vt 0.388673 0.516863
vt 0.400924 0.516863
vt 0.388673 0.733137
vt 0.400925 0.733137
vt 0.602765 0.730124
vt 0.473540 0.730124
vt 0.559690 0.730124
vt 0.516615 0.730124
vt 0.473549 0.651702
vt 0.559690 0.651702
vt 0.602773 0.690963
vt 0.602738 0.651702
vt 0.516615 0.690963
vt 0.516615 0.651702
vt 0.473522 0.690963
vt 0.559690 0.690963
vt 0.431187 0.730124
vt 0.611643 0.946469
vt 0.611643 0.303531
vt 0.422330 0.946469
vt 0.422330 0.303531
vt 0.423509 0.942460
vt 0.423509 0.807540
vt 0.610464 0.942460
vt 0.610464 0.807540
vt 0.610464 0.442460
vt 0.610464 0.307540
vt 0.423509 0.307540
vt 0.423509 0.442460
vt 0.615353 0.496842
vt 0.615436 0.481219
vt 0.418287 0.481219
vt 0.418194 0.496842
vt 0.418418 0.768781
vt 0.504226 0.496842
vt 0.501034 0.506856
vt 0.472451 0.518797
vt 0.472451 0.514729
vt 0.470283 0.548631
vt 0.470283 0.552699
vt 0.460947 0.534066
vt 0.470382 0.534066
vt 0.504596 0.514694
vt 0.516001 0.552734
vt 0.506567 0.552734
vt 0.505581 0.519185
vt 0.505581 0.524028
vt 0.495162 0.514694
vt 0.516001 0.548596
vt 0.459962 0.519185
vt 0.471367 0.519185
vt 0.471367 0.524028
vt 0.459962 0.524028
vt 0.437152 0.548244
vt 0.448557 0.548244
vt 0.437152 0.538557
vt 0.448557 0.538557
vt 0.448557 0.543400
vt 0.437152 0.543400
vt 0.459962 0.538557
vt 0.471367 0.538557
vt 0.471367 0.543400
vt 0.459962 0.543400
vt 0.482772 0.548244
vt 0.494177 0.548244
vt 0.481688 0.514729
vt 0.505581 0.538557
vt 0.505581 0.543400
vt 0.494177 0.538557
vt 0.494177 0.543400
vt 0.461046 0.552699
vt 0.461046 0.548631
vt 0.504497 0.538170
vt 0.495261 0.538170
vt 0.482772 0.538557
vt 0.482772 0.543400
vt 0.471367 0.533714
vt 0.482772 0.533714
vt 0.494177 0.533714
vt 0.471367 0.548244
vt 0.448557 0.533714
vt 0.459962 0.533714
vt 0.506567 0.548596
vt 0.437152 0.533714
vt 0.493191 0.523676
vt 0.483757 0.523675
vt 0.504497 0.534102
vt 0.460947 0.547891
vt 0.460947 0.543753
vt 0.448557 0.519185
vt 0.437152 0.519185
vt 0.437152 0.524028
vt 0.495261 0.534102
vt 0.437152 0.528871
vt 0.447473 0.547856
vt 0.438236 0.547856
vt 0.448557 0.524028
vt 0.448557 0.528871
vt 0.482772 0.519185
vt 0.482772 0.524028
vt 0.447473 0.543788
vt 0.494177 0.519185
vt 0.471367 0.528871
vt 0.482772 0.528871
vt 0.494177 0.524028
vt 0.494177 0.528871
vt 0.505581 0.528871
vt 0.505581 0.533714
vt 0.493191 0.519537
vt 0.459962 0.528871
vt 0.470382 0.543753
vt 0.438236 0.543788
vt 0.459962 0.548244
vt 0.483757 0.519537
vt 0.504497 0.523640
vt 0.495261 0.523640
vt 0.481787 0.547891
vt 0.472352 0.547891
vt 0.505581 0.548244
vt 0.516001 0.529223
vt 0.506567 0.529223
vt 0.516001 0.533362
vt 0.506567 0.533362
vt 0.493191 0.529223
vt 0.483757 0.529223
vt 0.493191 0.533362
vt 0.483757 0.533362
vt 0.447572 0.529223
vt 0.438138 0.529223
vt 0.447572 0.533362
vt 0.438138 0.533362
vt 0.447572 0.519537
vt 0.438138 0.519537
vt 0.447572 0.523675
vt 0.438138 0.523675
vt 0.481787 0.543753
vt 0.472352 0.543753
vt 0.470382 0.538205
vt 0.460947 0.538205
vt 0.436167 0.543753
vt 0.426733 0.543753
vt 0.436167 0.547891
vt 0.426733 0.547891
vt 0.458977 0.519537
vt 0.449542 0.519537
vt 0.458977 0.523676
vt 0.449542 0.523675
vt 0.516001 0.524380
vt 0.506567 0.524380
vt 0.516001 0.528519
vt 0.506567 0.528519
vt 0.458977 0.524380
vt 0.449542 0.524380
vt 0.458977 0.528519
vt 0.449542 0.528519
vt 0.470382 0.547891
vt 0.504596 0.543753
vt 0.495162 0.543753
vt 0.504596 0.547891
vt 0.495162 0.547891
vt 0.470283 0.529259
vt 0.461046 0.529259
vt 0.470283 0.533326
vt 0.461046 0.533326
vt 0.493093 0.538945
vt 0.483856 0.538945
vt 0.493093 0.543013
vt 0.483856 0.543013
vt 0.515902 0.534102
vt 0.506666 0.534102
vt 0.515902 0.538170
vt 0.506666 0.538170
vt 0.436068 0.538945
vt 0.426832 0.538945
vt 0.436068 0.543013
vt 0.426832 0.543013
vt 0.447473 0.514729
vt 0.438236 0.514729
vt 0.447473 0.518797
vt 0.438236 0.518797
vt 0.436068 0.524415
vt 0.426832 0.524415
vt 0.436068 0.528483
vt 0.426832 0.528483
vt 0.504497 0.519572
vt 0.495261 0.519572
vt 0.481688 0.518797
vt 0.470283 0.524416
vt 0.461046 0.524416
vt 0.470283 0.528483
vt 0.461046 0.528483
vt 0.504497 0.548631
vt 0.495261 0.548631
vt 0.504497 0.552699
vt 0.495261 0.552699
s 0
usemtl M_Blanc
f 58/1/1 98/2/1 49/2/1 18/1/1
f 100/3/1 54/4/1 21/4/1 50/3/1
f 97/12/2 59/13/2 17/14/2 48/15/2
f 101/16/2 104/17/2 52/17/2 51/16/2
f 89/18/4 67/19/4 13/20/4 44/21/4
f 93/31/1 105/32/1 53/32/1 46/31/1
f 71/36/4 74/37/4 2/37/4 11/38/4
f 74/39/4 79/40/4 39/41/4 2/37/4
f 87/42/4 89/21/4 44/21/4 43/43/4
f 98/44/1 93/45/1 46/45/1 49/44/1
f 79/52/4 82/53/4 40/54/4 39/41/4
f 59/13/7 71/55/7 11/38/7 17/14/7
f 25/56/8 23/57/8 24/58/8 669/59/8
f 29/60/9 27/61/9 672/62/9 30/63/9
f 36/64/10 34/65/10 701/66/10 702/67/10
f 33/68/11 31/69/11 703/70/11 704/71/11
f 105/32/1 100/72/1 50/72/1 53/32/1
f 31/73/12 25/74/12 669/75/12 703/70/12
f 702/67/14 672/78/14 27/79/14 36/80/14
f 30/81/5 96/82/5 95/83/5 29/84/5
f 104/85/15 94/86/15 47/86/15 52/85/15
f 60/87/6 96/82/6 30/81/6 72/88/6
f 367/89/16 701/66/16 34/90/16 103/91/16
f 672/62/17 675/96/17 72/97/17 30/63/17
f 88/98/6 32/99/6 686/99/6 689/98/6
f 23/100/5 92/101/5 99/102/5 24/58/5
f 674/103/18 669/59/18 24/58/18 61/104/18
f 61/105/6 24/58/6 99/102/6 57/106/6
f 34/90/3 36/107/3 27/108/3 29/109/3 95/110/3 103/111/3
f 102/117/1 55/118/1 374/118/1 375/117/1
f 110/121/4 670/122/4 712/122/4 713/121/4
f 56/77/2 101/123/2 51/123/2 22/77/2
f 82/54/20 56/77/20 22/77/20 40/54/20
f 67/125/4 62/133/4 16/126/4 13/125/4
f 704/71/16 109/134/16 106/135/16 33/136/16
f 37/137/6 80/138/6 692/138/6 687/137/6
f 108/139/18 110/121/18 713/121/18 716/139/18
f 106/135/3 92/140/3 23/141/3 25/142/3 31/143/3 33/136/3
f 94/130/2 97/15/2 48/15/2 47/130/2
f 114/146/4 120/147/4 299/147/4 297/146/4
f 62/151/4 58/1/4 18/1/4 16/126/4
f 674/103/28 61/104/28 62/133/28 67/125/28
f 72/97/29 675/96/29 74/37/29 71/36/29
f 705/152/30 706/153/30 82/53/30 79/52/30
f 707/154/31 708/155/31 89/21/31 87/42/31
f 61/105/32 57/106/32 58/1/32 62/151/32
f 708/159/33 674/160/33 67/19/33 89/18/33
f 60/87/32 72/88/32 71/55/32 59/13/32
f 675/161/34 705/162/34 79/40/34 74/39/34
f 107/163/35 707/164/35 87/165/35 54/4/35
f 706/166/35 406/167/35 56/77/35 82/54/35
f 95/83/37 96/82/37 97/15/37 94/130/37
f 99/102/38 92/101/38 93/45/38 98/44/38
f 367/89/39 103/91/39 104/17/39 101/16/39
f 106/135/40 109/134/40 100/72/40 105/32/40
f 92/140/14 106/135/14 105/32/14 93/31/14
f 103/111/12 95/110/12 94/86/12 104/85/12
f 96/82/18 60/87/18 59/13/18 97/12/18
f 57/106/17 99/102/17 98/2/17 58/1/17
f 109/168/21 107/163/21 54/4/21 100/3/21
f 406/167/19 407/169/19 367/170/19 101/123/19 56/77/19
f 54/4/4 87/165/4 43/43/4 21/4/4
f 129/171/4 144/172/4 286/172/4 271/171/4
f 527/173/13 545/174/13 531/175/13 539/176/13 524/177/13 107/163/13 109/168/13
f 117/180/2 135/181/2 276/181/2 277/180/2
f 139/182/2 156/183/2 314/183/2 280/182/2
f 136/186/2 114/146/2 297/146/2 298/186/2
f 145/187/3 130/188/3 293/188/3 306/187/3
f 133/189/1 113/190/1 270/190/1 275/189/1
f 147/191/4 157/192/4 316/192/4 287/191/4
f 115/193/3 112/194/3 272/194/3 285/193/3
f 135/181/4 148/195/4 290/195/4 276/181/4
f 131/196/4 111/197/4 273/197/4 274/196/4
f 158/198/3 150/199/3 307/199/3 315/198/3
f 144/172/13 129/171/13 553/200/13 555/201/13 594/202/13 593/203/13
f 128/208/13 153/209/13 657/210/13 605/211/13
f 152/221/13 127/222/13 550/223/13 651/224/13
f 158/198/13 132/225/13 613/226/13 664/227/13
f 146/228/13 154/229/13 654/230/13 641/231/13
f 133/189/13 152/221/13 651/224/13 653/234/13 566/235/13 565/236/13
f 151/239/13 134/240/13 619/241/13 650/242/13
f 126/243/13 118/244/13 607/245/13 609/246/13 640/247/13 639/248/13
f 130/188/13 145/187/13 644/253/13 610/254/13
f 116/255/13 128/208/13 605/256/13 588/257/13
f 571/258/4 600/259/4 172/259/4 163/258/4
f 123/260/13 148/195/13 603/261/13 601/262/13
f 157/192/13 147/191/13 595/266/13 597/267/13 668/268/13 667/269/13
f 115/193/13 144/172/13 593/203/13 591/271/13
f 119/272/13 150/199/13 645/273/13 615/274/13
f 153/209/13 143/275/13 585/276/13 587/277/13 658/278/13 657/210/13
f 145/187/13 126/243/13 639/248/13 644/253/13
f 134/240/13 121/279/13 580/280/13 619/241/13
f 125/281/13 146/228/13 641/282/13 635/283/13
f 139/182/13 122/290/13 573/291/13 578/292/13
f 117/180/13 123/260/13 601/293/13 570/294/13
f 154/229/13 141/296/13 633/297/13 654/230/13
f 124/302/13 142/303/13 630/304/13 598/305/13
f 131/196/13 155/306/13 660/307/13 561/308/13
f 148/195/13 135/181/13 567/309/13 569/310/13 604/311/13 603/261/13
f 142/303/13 157/192/13 667/269/13 630/313/13
f 113/190/13 133/189/13 565/236/13 551/314/13
f 526/315/13 543/316/13 535/317/13 547/318/13 521/319/13 704/71/13 707/164/13
f 156/183/13 139/182/13 578/320/13 661/321/13
f 140/356/13 151/239/13 650/357/13 582/358/13
f 524/361/13 529/362/13 537/363/13 526/364/13 707/164/13 107/163/13
f 155/306/13 138/365/13 629/366/13 660/367/13
f 521/371/13 541/372/13 533/373/13 527/374/13 109/168/13 704/71/13
f 137/375/13 156/183/13 661/321/13 663/376/13 576/377/13 575/378/13
f 150/199/13 158/198/13 664/379/13 645/273/13
f 138/365/13 111/197/13 559/380/13 629/381/13
f 624/334/4 647/345/4 204/345/4 187/334/4
f 112/194/13 115/193/13 591/383/13 556/384/13
f 577/336/4 572/326/4 168/326/4 194/336/4
f 122/290/13 137/375/13 575/378/13 573/291/13
f 599/327/4 631/389/4 193/338/4 173/327/4
f 611/289/4 643/341/4 200/341/4 178/289/4
f 121/279/13 140/356/13 582/358/13 584/391/13 581/392/13 580/280/13
f 111/197/13 131/196/13 561/396/13 563/397/13 560/398/13 559/399/13
f 118/244/13 130/188/13 610/254/13 607/245/13
f 642/342/4 655/400/4 205/349/4 197/342/4
f 649/215/4 618/332/4 186/332/4 206/215/4
f 659/312/4 628/335/4 192/335/4 210/312/4
f 135/181/13 117/180/13 570/401/13 567/309/13
f 129/171/13 112/194/13 556/403/13 553/404/13
f 646/346/4 665/407/4 209/351/4 201/346/4
f 143/275/13 116/255/13 588/257/13 585/276/13
f 127/222/13 113/190/13 551/314/13 550/408/13
f 141/296/13 125/281/13 635/412/13 637/360/13 634/359/13 633/297/13
f 147/191/13 124/302/13 598/305/13 595/266/13
f 132/225/13 119/272/13 615/419/13 617/420/13 614/299/13 613/226/13
f 157/192/1 142/303/1 301/303/1 316/192/1
f 137/375/1 122/290/1 278/290/1 279/375/1
f 134/240/3 151/239/3 309/239/3 296/240/3
f 111/197/1 138/365/1 300/365/1 273/197/1
f 155/306/2 131/196/2 274/196/2 313/306/2
f 122/290/3 139/182/3 280/182/3 278/290/3
f 152/221/4 133/189/4 275/189/4 310/221/4
f 142/303/3 124/302/3 288/302/3 301/303/3
f 132/225/1 158/198/1 315/198/1 294/225/1
f 140/356/4 121/279/4 281/279/4 282/356/4
f 154/229/3 146/228/3 305/228/3 311/229/3
f 125/281/4 141/296/4 302/296/4 303/281/4
f 116/255/2 143/275/2 283/275/2 284/255/2
f 143/275/4 153/209/4 312/209/4 283/275/4
f 123/260/3 117/180/3 277/180/3 289/260/3
f 144/172/1 115/193/1 285/193/1 286/172/1
f 127/222/2 152/221/2 310/221/2 269/222/2
f 118/244/4 126/243/4 304/243/4 292/244/4
f 124/302/2 147/191/2 287/191/2 288/302/2
f 153/209/1 128/208/1 291/208/1 312/209/1
f 146/228/2 125/281/2 303/281/2 305/228/2
f 148/195/1 123/260/1 289/260/1 290/195/1
f 151/239/2 140/356/2 282/356/2 309/239/2
f 126/243/1 145/187/1 306/187/1 304/243/1
f 128/208/3 116/255/3 284/255/3 291/208/3
f 141/296/1 154/229/1 311/229/1 302/296/1
f 150/199/2 119/272/2 295/272/2 307/199/2
f 130/188/2 118/244/2 292/244/2 293/188/2
f 138/365/3 155/306/3 313/306/3 300/365/3
f 113/190/3 127/222/3 269/222/3 270/190/3
f 120/147/1 149/263/1 308/263/1 299/147/1
f 119/272/4 132/225/4 294/225/4 295/272/4
f 156/183/4 137/375/4 279/375/4 314/183/4
f 112/194/2 129/171/2 271/171/2 272/194/2
f 149/263/3 136/186/3 298/186/3 308/263/3
f 121/279/1 134/240/1 296/240/1 281/279/1
f 55/118/13 102/117/13 367/170/13 407/169/13
f 35/469/13 81/470/13 709/471/13 701/66/13
f 102/117/13 35/469/13 701/66/13 367/170/13
f 81/470/2 35/469/2 376/469/2 373/470/2
f 55/118/3 81/470/3 373/470/3 374/118/3
f 35/469/4 102/117/4 375/117/4 376/469/4
f 709/471/13 81/470/13 55/118/13 407/169/13
f 526/364/16 537/363/16 538/331/16 525/352/16
f 524/177/19 539/176/19 540/179/19 523/178/19
f 541/372/35 521/371/35 522/322/35 542/238/35
f 543/316/21 526/315/21 525/353/21 544/295/21
f 531/175/19 545/174/19 546/212/19 532/252/19
f 547/318/21 535/317/21 536/233/21 548/232/21
f 537/363/16 529/362/16 530/184/16 538/331/16
f 539/176/19 531/175/19 532/252/19 540/179/19
f 533/373/35 541/372/35 542/238/35 534/237/35
f 535/317/21 543/316/21 544/295/21 536/233/21
f 529/362/16 524/361/16 523/185/16 530/184/16
f 545/174/19 527/173/19 528/213/19 546/212/19
f 527/374/35 533/373/35 534/237/35 528/355/35
f 521/319/21 547/318/21 548/232/21 522/322/21
f 553/404/42 554/249/42 555/385/42
f 585/276/46 586/339/46 587/388/46
f 550/408/53 551/314/53 552/607/53 549/330/53
f 553/404/54 556/403/54 557/250/54 554/249/54
f 551/314/55 565/236/55 564/217/55 552/216/55
f 567/309/56 570/401/56 571/258/56 568/333/56
f 573/291/55 575/378/55 574/284/55 572/326/55
f 578/292/53 573/291/53 572/326/53 577/336/53
f 585/276/57 588/257/57 589/411/57 586/339/57
f 591/271/58 593/203/58 592/340/58 590/323/58
f 595/266/56 598/305/56 599/327/56 596/343/56
f 601/262/55 603/261/55 602/344/55 600/259/55
f 588/257/59 605/256/59 606/219/59 589/218/59
f 607/245/56 610/254/56 611/289/56 608/288/56
f 619/241/55 580/280/55 579/325/55 618/332/55
f 556/384/60 591/383/60 590/393/60 557/251/60
f 629/381/55 559/380/55 558/204/55 628/335/55
f 598/305/53 630/304/53 631/389/53 599/327/53
f 570/294/53 601/293/53 600/259/53 571/258/53
f 635/283/56 641/282/56 642/342/56 636/328/56
f 644/253/55 639/248/55 638/329/55 643/341/55
f 615/274/62 645/273/62 646/346/62 616/301/62
f 610/254/53 644/253/53 643/341/53 611/289/53
f 650/242/53 619/241/53 618/332/53 649/215/53
f 641/231/53 654/230/53 655/400/53 642/342/53
f 651/224/56 550/223/56 549/382/56 652/347/56
f 605/211/65 657/210/65 656/390/65 606/220/65
f 582/358/56 650/357/56 649/215/56 583/214/56
f 654/230/55 633/297/55 632/416/55 655/349/55
f 660/367/53 629/366/53 628/335/53 659/312/53
f 645/273/66 664/379/66 665/407/66 646/346/66
f 661/321/56 578/320/56 577/336/56 662/287/56
f 630/313/55 667/269/55 666/413/55 631/338/55
f 561/308/56 660/307/56 659/312/56 562/207/56
f 664/227/67 613/226/67 612/402/67 665/351/67
f 26/608/2 32/99/2 703/70/2 669/75/2
f 37/137/1 28/609/1 672/78/1 702/67/1
f 88/98/2 68/610/2 674/160/2 708/159/2
f 73/611/1 80/138/1 705/162/1 675/161/1
f 68/610/2 26/608/2 669/75/2 674/160/2
f 32/99/2 88/98/2 708/159/2 703/70/2
f 28/609/1 73/611/1 675/161/1 672/78/1
f 80/138/1 37/137/1 702/67/1 705/162/1
f 80/138/3 73/611/3 691/611/3 692/138/3
f 28/609/4 37/137/4 687/137/4 688/609/4
f 73/611/13 28/609/13 688/609/13 691/611/13
f 26/608/13 68/610/13 690/610/13 685/608/13
f 68/610/3 88/98/3 689/98/3 690/610/3
f 32/99/4 26/608/4 685/608/4 686/99/4
f 697/613/2 694/615/2 693/614/2 698/612/2
f 699/618/1 696/617/1 695/616/1 700/619/1
f 368/620/21 671/621/21 702/67/21 701/66/21
f 670/122/19 110/121/19 704/71/19 703/70/19
f 676/622/21 405/623/21 706/153/21 705/152/21
f 108/139/19 673/624/19 708/155/19 707/154/19
f 110/121/19 108/139/19 707/154/19 704/71/19
f 408/625/21 368/620/21 701/66/21 709/626/21
f 673/624/19 670/122/19 703/70/19 708/155/19
f 671/621/21 676/622/21 705/152/21 702/67/21
f 405/623/21 408/625/21 709/626/21 706/153/21
f 408/625/17 405/623/17 715/623/17 718/625/17
f 368/620/17 408/625/17 718/625/17 710/620/17
f 405/623/3 676/622/3 714/622/3 715/623/3
f 670/122/21 673/624/21 717/624/21 712/122/21
f 673/624/3 108/139/3 716/139/3 717/624/3
f 671/621/4 368/620/4 710/620/4 711/621/4
f 676/622/19 671/621/19 711/621/19 714/622/19
usemtl M_Noir_Profond
f 21/4/13 20/76/13 22/77/13
f 18/1/6 17/14/6 19/124/6
f 15/48/18 14/47/18 13/125/18 16/126/18
f 11/38/17 2/37/17 1/11/17 12/10/17
f 39/41/21 40/54/21 41/35/21 38/34/21
f 43/43/19 44/21/19 45/51/19 42/50/19
f 16/126/22 18/1/22 19/124/22 15/24/22
f 44/21/2 13/20/2 14/7/2 45/8/2
f 17/14/23 11/38/23 12/120/23 19/119/23
f 2/37/1 39/41/1 38/28/1 1/27/1
f 21/4/24 43/43/24 42/127/24 20/128/24
f 40/54/25 22/77/25 20/76/25 41/129/25
f 47/130/5 48/15/5 49/44/5 46/45/5
f 51/16/16 52/17/16 53/32/16 50/72/16
f 46/31/3 53/32/3 52/85/3 47/86/3
f 48/15/26 17/14/26 18/1/26 49/2/26
f 50/3/27 21/4/27 22/77/27 51/123/27
f 523/178/2 540/179/2 180/179/2 216/178/2
f 530/184/3 523/185/3 216/185/3 159/184/3
f 558/204/3 560/205/3 563/206/3 562/207/3 182/207/3 218/204/3
f 546/212/2 528/213/2 219/213/2 189/212/2
f 583/214/1 649/215/1 206/215/1 195/214/1
f 552/216/2 564/217/2 185/217/2 213/216/2
f 589/218/4 606/219/4 175/220/4 161/218/4
f 548/232/1 536/233/1 169/233/1 190/232/1
f 534/237/4 542/238/4 181/238/4 165/237/4
f 554/249/1 557/250/1 215/251/1 179/249/1
f 532/252/2 546/212/2 189/212/2 162/252/2
f 574/284/3 576/285/3 663/286/3 662/287/3 211/287/3 191/284/3
f 608/288/1 611/289/1 178/289/1 164/288/1
f 536/233/1 544/295/1 184/295/1 169/233/1
f 612/298/3 614/299/3 617/300/3 616/301/3 166/301/3 183/298/3
f 540/179/2 532/252/2 162/252/2 180/179/2
f 562/207/1 659/312/1 210/312/1 182/207/1
f 522/322/1 548/232/1 190/232/1 217/322/1
f 160/323/13 161/218/13 159/184/13
f 163/258/13 164/288/13 162/252/13
f 166/301/13 167/324/13 165/237/13
f 169/233/13 170/325/13 168/326/13
f 172/259/13 173/327/13 174/328/13 171/329/13
f 176/330/13 177/331/13 175/220/13
f 179/249/13 180/179/13 178/289/13
f 182/207/13 183/298/13 181/238/13
f 185/217/13 186/332/13 184/295/13
f 188/333/13 189/212/13 187/334/13
f 191/284/13 192/335/13 190/232/13
f 194/336/13 195/214/13 196/337/13 193/338/13
f 198/339/13 199/340/13 200/341/13 197/342/13
f 202/343/13 203/344/13 204/345/13 201/346/13
f 206/215/13 207/347/13 208/348/13 205/349/13
f 210/312/13 211/287/13 212/350/13 209/351/13
f 176/330/13 213/216/13 214/352/13 177/331/13
f 179/249/13 215/251/13 216/178/13 180/179/13
f 181/238/13 217/322/13 218/204/13 182/207/13
f 184/295/13 214/353/13 213/216/13 185/217/13
f 188/333/13 163/258/13 162/252/13 189/212/13
f 190/232/13 169/233/13 168/326/13 191/284/13
f 194/336/13 168/326/13 170/325/13 195/214/13
f 198/339/13 161/218/13 160/323/13 199/340/13
f 202/343/13 173/327/13 172/259/13 203/344/13
f 161/218/13 175/220/13 177/331/13 159/184/13
f 164/288/13 178/289/13 180/179/13 162/252/13
f 165/237/13 181/238/13 183/298/13 166/301/13
f 169/233/13 184/295/13 186/332/13 170/325/13
f 215/251/13 160/323/13 159/184/13 216/185/13
f 220/354/13 187/334/13 189/212/13 219/213/13
f 219/355/13 165/237/13 167/324/13 220/354/13
f 217/322/13 190/232/13 192/335/13 218/204/13
f 173/327/13 193/338/13 196/337/13 174/328/13
f 163/258/13 172/259/13 171/329/13 164/288/13
f 174/328/13 197/342/13 200/341/13 171/329/13
f 166/301/13 201/346/13 204/345/13 167/324/13
f 187/334/13 204/345/13 203/344/13 188/333/13
f 178/289/13 200/341/13 199/340/13 179/249/13
f 206/215/13 186/332/13 185/217/13 207/347/13
f 197/342/13 205/349/13 208/348/13 198/339/13
f 207/347/13 176/330/13 175/220/13 208/348/13
f 195/214/13 206/215/13 205/349/13 196/337/13
f 210/312/13 192/335/13 191/284/13 211/287/13
f 201/346/13 209/351/13 212/350/13 202/343/13
f 211/287/13 194/336/13 193/338/13 212/350/13
f 182/207/13 210/312/13 209/351/13 183/298/13
f 544/295/1 525/353/1 214/353/1 184/295/1
f 632/337/3 634/359/3 637/360/3 636/328/3 174/328/3 196/337/3
f 528/355/4 534/237/4 165/237/4 219/355/4
f 538/331/3 530/184/3 159/184/3 177/331/3
f 596/343/1 599/327/1 173/327/1 202/343/1
f 525/352/3 538/331/3 177/331/3 214/352/3
f 652/347/1 549/382/1 176/330/1 207/347/1
f 628/335/2 558/204/2 218/204/2 192/335/2
f 592/340/3 594/202/3 555/385/3 554/249/3 179/249/3 199/340/3
f 602/344/3 604/386/3 569/387/3 568/333/3 188/333/3 203/344/3
f 618/332/2 579/325/2 170/325/2 186/332/2
f 656/348/3 658/278/3 587/388/3 586/339/3 198/339/3 208/348/3
f 666/350/3 668/268/3 597/267/3 596/343/3 202/343/3 212/350/3
f 606/220/2 656/390/2 208/348/2 175/220/2
f 590/323/2 592/340/2 199/340/2 160/323/2
f 616/301/1 646/346/1 201/346/1 166/301/1
f 557/251/4 590/393/4 160/323/4 215/251/4
f 621/354/1 624/334/1 187/334/1 220/354/1
f 625/324/3 627/394/3 622/395/3 621/354/3 220/354/3 167/324/3
f 600/259/2 602/344/2 203/344/2 172/259/2
f 636/328/1 642/342/1 197/342/1 174/328/1
f 572/326/2 574/284/2 191/284/2 168/326/2
f 643/341/2 638/329/2 171/329/2 200/341/2
f 647/345/2 625/324/2 167/324/2 204/345/2
f 665/351/2 612/402/2 183/298/2 209/351/2
f 568/333/1 571/258/1 163/258/1 188/333/1
f 638/329/3 640/409/3 609/410/3 608/288/3 164/288/3 171/329/3
f 586/339/1 589/411/1 161/218/1 198/339/1
f 631/338/2 666/413/2 212/350/2 193/338/2
f 662/287/1 577/336/1 194/336/1 211/287/1
f 579/325/3 581/414/3 584/415/3 583/214/3 195/214/3 170/325/3
f 655/349/2 632/416/2 196/337/2 205/349/2
f 564/217/3 566/417/3 653/418/3 652/347/3 207/347/3 185/217/3
f 257/421/2 255/422/2 351/422/2 353/421/2
f 264/423/1 243/424/1 339/424/1 360/423/1
f 240/425/2 239/426/2 335/426/2 336/425/2
f 244/427/4 256/428/4 352/428/4 340/427/4
f 221/429/2 262/430/2 358/430/2 317/429/2
f 238/431/1 237/432/1 333/432/1 334/431/1
f 241/433/3 229/434/3 325/434/3 337/433/3
f 235/435/4 264/423/4 360/423/4 331/435/4
f 236/436/2 235/435/2 331/435/2 332/436/2
f 255/422/4 254/437/4 350/437/4 351/422/4
f 263/438/3 257/421/3 353/421/3 359/438/3
f 234/439/4 233/440/4 329/440/4 330/439/4
f 221/429/13 222/441/13 270/190/13 269/222/13
f 223/442/13 224/443/13 272/194/13 271/171/13
f 225/444/13 226/445/13 274/196/13 273/197/13
f 222/441/13 227/446/13 275/189/13 270/190/13
f 228/447/13 229/434/13 277/180/13 276/181/13
f 230/448/13 231/449/13 279/375/13 278/290/13
f 232/450/13 230/448/13 278/290/13 280/182/13
f 233/440/13 234/439/13 282/356/13 281/279/13
f 235/435/13 236/436/13 284/255/13 283/275/13
f 237/432/13 238/431/13 286/172/13 285/193/13
f 239/426/13 240/425/13 288/302/13 287/191/13
f 241/433/13 242/451/13 290/195/13 289/260/13
f 236/436/13 243/424/13 291/208/13 284/255/13
f 244/427/13 245/452/13 293/188/13 292/244/13
f 246/453/13 247/454/13 295/272/13 294/225/13
f 248/455/13 233/440/13 281/279/13 296/240/13
f 224/443/13 237/432/13 285/193/13 272/194/13
f 249/456/13 250/457/13 298/186/13 297/146/13
f 251/458/13 249/456/13 297/146/13 299/147/13
f 252/459/13 225/444/13 273/197/13 300/365/13
f 240/425/13 253/460/13 301/303/13 288/302/13
f 254/437/13 255/422/13 303/281/13 302/296/13
f 229/434/13 241/433/13 289/260/13 277/180/13
f 256/428/13 244/427/13 292/244/13 304/243/13
f 255/422/13 257/421/13 305/228/13 303/281/13
f 258/461/13 256/428/13 304/243/13 306/187/13
f 247/454/13 259/462/13 307/199/13 295/272/13
f 260/463/13 251/458/13 299/147/13 308/263/13
f 250/457/13 260/463/13 308/263/13 298/186/13
f 242/451/13 228/447/13 276/181/13 290/195/13
f 245/452/13 258/461/13 306/187/13 293/188/13
f 238/431/13 223/442/13 271/171/13 286/172/13
f 261/464/13 248/455/13 296/240/13 309/239/13
f 227/446/13 262/430/13 310/221/13 275/189/13
f 257/421/13 263/438/13 311/229/13 305/228/13
f 264/423/13 235/435/13 283/275/13 312/209/13
f 262/430/13 221/429/13 269/222/13 310/221/13
f 243/424/13 264/423/13 312/209/13 291/208/13
f 234/439/13 261/464/13 309/239/13 282/356/13
f 263/438/13 254/437/13 302/296/13 311/229/13
f 265/465/13 252/459/13 300/365/13 313/306/13
f 231/449/13 266/466/13 314/183/13 279/375/13
f 259/462/13 267/467/13 315/198/13 307/199/13
f 268/468/13 239/426/13 287/191/13 316/192/13
f 266/466/13 232/450/13 280/182/13 314/183/13
f 253/460/13 268/468/13 316/192/13 301/303/13
f 226/445/13 265/465/13 313/306/13 274/196/13
f 267/467/13 246/453/13 294/225/13 315/198/13
f 242/451/1 241/433/1 337/433/1 338/451/1
f 261/464/2 234/439/2 330/439/2 357/464/2
f 256/428/1 258/461/1 354/461/1 352/428/1
f 243/424/3 236/436/3 332/436/3 339/424/3
f 254/437/1 263/438/1 359/438/1 350/437/1
f 259/462/2 247/454/2 343/454/2 355/462/2
f 245/452/2 244/427/2 340/427/2 341/452/2
f 252/459/3 265/465/3 361/465/3 348/459/3
f 222/441/3 221/429/3 317/429/3 318/441/3
f 251/458/1 260/463/1 356/463/1 347/458/1
f 247/454/4 246/453/4 342/453/4 343/454/4
f 266/466/4 231/449/4 327/449/4 362/466/4
f 224/443/2 223/442/2 319/442/2 320/443/2
f 260/463/3 250/457/3 346/457/3 356/463/3
f 233/440/1 248/455/1 344/455/1 329/440/1
f 267/467/3 259/462/3 355/462/3 363/467/3
f 226/445/4 225/444/4 321/444/4 322/445/4
f 228/447/4 242/451/4 338/451/4 324/447/4
f 237/432/3 224/443/3 320/443/3 333/432/3
f 239/426/4 268/468/4 364/468/4 335/426/4
f 227/446/1 222/441/1 318/441/1 323/446/1
f 258/461/3 245/452/3 341/452/3 354/461/3
f 250/457/2 249/456/2 345/456/2 346/457/2
f 232/450/2 266/466/2 362/466/2 328/450/2
f 229/434/2 228/447/2 324/447/2 325/434/2
f 223/442/4 238/431/4 334/431/4 319/442/4
f 249/456/4 251/458/4 347/458/4 345/456/4
f 268/468/1 253/460/1 349/460/1 364/468/1
f 231/449/1 230/448/1 326/448/1 327/449/1
f 248/455/3 261/464/3 357/464/3 344/455/3
f 225/444/1 252/459/1 348/459/1 321/444/1
f 265/465/2 226/445/2 322/445/2 361/465/2
f 230/448/3 232/450/3 328/450/3 326/448/3
f 262/430/4 227/446/4 323/446/4 358/430/4
f 253/460/3 240/425/3 336/425/3 349/460/3
f 246/453/1 267/467/1 363/467/1 342/453/1
f 369/472/13 370/473/13 374/118/13 373/470/13
f 370/473/13 371/474/13 375/117/13 374/118/13
f 372/475/13 369/472/13 373/470/13 376/469/13
f 371/474/13 372/475/13 376/469/13 375/117/13
f 393/517/1 394/518/1 402/518/1 401/517/1
f 391/519/13 392/520/13 396/509/13 395/508/13
f 393/517/13 391/519/13 395/508/13 397/506/13
f 392/520/13 394/518/13 398/507/13 396/509/13
f 394/518/13 393/517/13 397/506/13 398/507/13
f 391/519/4 393/517/4 401/517/4 399/519/4
f 394/518/3 392/520/3 400/520/3 402/518/3
f 392/520/2 391/519/2 399/519/2 400/520/2
f 409/525/13 410/526/13 414/523/13 413/521/13
f 412/527/13 461/528/13 462/529/13 459/530/13 460/531/13 457/532/13 458/533/13 455/534/13 456/535/13 453/536/13 454/537/13 441/538/13 442/539/13 481/540/13 482/541/13 479/542/13 480/543/13 477/544/13 478/545/13 475/546/13 476/547/13 473/548/13 474/549/13 409/525/13 413/521/13 416/522/13
f 456/535/13 445/550/13 444/551/13 453/536/13
f 411/552/13 412/527/13 416/522/13 415/524/13
f 410/526/13 463/553/13 464/554/13 465/555/13 466/556/13 467/557/13 468/558/13 469/559/13 470/560/13 471/561/13 472/562/13 439/563/13 440/564/13 443/565/13 444/566/13 445/550/13 446/567/13 447/568/13 448/569/13 449/570/13 450/571/13 451/572/13 452/573/13 411/552/13 415/524/13 414/523/13
f 474/574/13 463/553/13 410/526/13 409/525/13
f 412/527/13 411/552/13 452/575/13 461/576/13
f 462/529/13 451/572/13 450/571/13 459/530/13
f 460/577/13 449/570/13 448/569/13 457/578/13
f 458/533/13 447/568/13 446/567/13 455/534/13
f 443/565/13 440/564/13 441/538/13 454/537/13
f 480/579/13 469/559/13 468/558/13 477/544/13
f 482/541/13 471/561/13 470/560/13 479/580/13
f 478/545/13 467/557/13 466/581/13 475/546/13
f 476/547/13 465/555/13 464/554/13 473/548/13
f 469/559/4 480/579/4 491/579/4 490/559/4
f 439/563/4 442/539/4 436/539/4 437/563/4
f 463/553/4 474/574/4 503/574/4 502/553/4
f 442/539/13 439/563/13 472/582/13 481/540/13
f 445/550/4 456/535/4 420/535/4 421/550/4
f 451/572/4 462/529/4 432/529/4 433/572/4
f 467/557/4 478/545/4 495/545/4 494/557/4
f 443/565/4 454/537/4 483/537/4 417/565/4
f 449/570/4 460/577/4 428/577/4 429/570/4
f 465/555/4 476/547/4 499/547/4 498/555/4
f 471/561/4 482/541/4 487/541/4 486/561/4
f 447/568/4 458/533/4 424/533/4 425/568/4
f 509/591/2 512/592/2 520/592/2 517/591/2
f 509/591/13 510/593/13 514/589/13 513/5/13
f 511/594/13 512/592/13 516/6/13 515/590/13
f 510/593/13 511/594/13 515/590/13 514/589/13
f 512/592/13 509/591/13 513/5/13 516/6/13
f 512/592/4 511/594/4 519/594/4 520/592/4
f 511/594/1 510/593/1 518/593/1 519/594/1
f 510/593/3 509/591/3 517/591/3 518/593/3
f 542/238/4 522/322/4 217/322/4 181/238/4
f 558/204/43 559/595/43 560/398/43
f 561/308/44 562/207/44 563/206/44
f 564/217/43 565/596/43 566/235/43
f 567/309/44 568/333/44 569/387/44
f 574/284/43 575/597/43 576/377/43
f 579/325/43 580/598/43 581/392/43
f 582/358/45 583/214/45 584/415/45
f 592/340/47 593/599/47 594/202/47
f 595/266/44 596/343/44 597/267/44
f 602/344/43 603/600/43 604/311/43
f 607/245/44 608/288/44 609/410/44
f 612/402/48 613/601/48 614/299/48
f 615/274/49 616/301/49 617/300/49
f 620/406/50 621/354/50 622/395/50
f 625/324/51 626/602/51 627/370/51
f 632/416/43 633/603/43 634/359/43
f 635/283/45 636/328/45 637/360/45
f 638/329/43 639/604/43 640/247/43
f 651/224/44 652/347/44 653/418/44
f 656/390/52 657/605/52 658/278/52
f 661/321/44 662/287/44 663/286/44
f 666/413/43 667/606/43 668/268/43
f 549/330/4 552/607/4 213/216/4 176/330/4
f 682/612/4 681/613/4 697/613/4 698/612/4
f 677/614/6 682/612/6 698/612/6 693/614/6
f 677/614/2 678/615/2 686/99/2 685/608/2
f 679/616/1 680/617/1 688/609/1 687/137/1
f 681/613/2 682/612/2 690/610/2 689/98/2
f 683/618/1 684/619/1 692/138/1 691/611/1
f 682/612/2 677/614/2 685/608/2 690/610/2
f 678/615/2 681/613/2 689/98/2 686/99/2
f 680/617/1 683/618/1 691/611/1 688/609/1
f 684/619/1 679/616/1 687/137/1 692/138/1
f 678/615/3 677/614/3 693/614/3 694/615/3
f 679/616/13 684/619/13 700/619/13 695/616/13
f 681/613/13 678/615/13 694/615/13 697/613/13
f 684/619/4 683/618/4 699/618/4 700/619/4
f 680/617/3 679/616/3 695/616/3 696/617/3
f 683/618/6 680/617/6 696/617/6 699/618/6
usemtl M_Cyan
f 78/26/3 75/27/3 1/27/3 38/28/3
f 320/443/13 319/442/13 334/431/13 333/432/13
f 317/429/13 358/430/13 323/446/13 318/441/13
f 361/465/13 322/445/13 321/444/13 348/459/13
f 336/425/13 335/426/13 364/468/13 349/460/13
f 332/436/13 331/435/13 360/423/13 339/424/13
f 355/462/13 343/454/13 342/453/13 363/467/13
f 346/457/13 345/456/13 347/458/13 356/463/13
f 325/434/13 324/447/13 338/451/13 337/433/13
f 357/464/13 330/439/13 329/440/13 344/455/13
f 353/421/13 351/422/13 350/437/13 359/438/13
f 328/450/13 362/466/13 327/449/13 326/448/13
f 341/452/13 340/427/13 352/428/13 354/461/13
f 400/520/13 399/519/13 401/517/13 402/518/13
f 519/594/13 518/593/13 517/591/13 520/592/13
f 969/662/13 968/629/13 971/630/13 970/661/13
f 973/752/13 972/751/13 975/753/13 974/754/13
f 977/756/13 976/755/13 979/757/13 978/758/13
f 981/683/13 980/677/13 983/663/13 982/664/13
f 985/760/13 984/759/13 987/761/13 986/762/13
f 989/764/13 988/763/13 991/765/13 990/766/13
f 993/702/13 992/691/13 995/685/13 994/686/13
f 997/768/13 996/767/13 999/769/13 998/770/13
f 1001/772/13 1000/771/13 1003/773/13 1002/774/13
f 1005/776/13 1004/775/13 1007/705/13 1006/706/13
f 1009/628/13 1008/656/13 1011/777/13 1010/627/13
f 1013/779/13 1012/778/13 1015/780/13 1014/781/13
f 1017/783/13 1016/782/13 1019/784/13 1018/785/13
usemtl M_Noir_Bleuté
f 10/5/2 84/6/2 516/6/2 513/5/2
f 66/7/3 90/8/3 45/8/3 14/7/3
f 75/9/3 70/10/3 12/10/3 1/11/3
f 69/22/5 64/23/5 63/24/5 70/25/5
f 64/23/6 69/22/6 5/29/6 4/30/6
f 83/33/3 78/34/3 38/34/3 41/35/3
f 63/46/3 66/47/3 14/47/3 15/48/3
f 90/49/3 86/50/3 42/50/3 45/51/3
f 8/92/2 91/93/2 65/94/2 3/95/2
f 91/93/19 8/92/19 506/112/19 507/113/19
f 3/114/18 65/115/18 64/116/18 4/30/18
f 63/24/3 15/24/3 19/119/3 12/120/3 70/25/3
f 76/131/17 6/132/17 5/29/17 69/22/17
f 6/132/1 76/131/1 77/144/1 9/145/1
f 508/148/21 505/149/21 9/145/21 77/150/21
f 64/116/8 65/115/8 66/47/8 63/46/8
f 76/131/9 69/22/9 70/10/9 75/9/9
f 508/148/10 77/150/10 78/34/10 83/33/10
f 91/93/11 507/113/11 86/50/11 90/49/11
f 507/156/16 508/157/16 83/129/16 86/158/16
f 65/94/12 91/93/12 90/8/12 66/7/12
f 77/144/14 76/131/14 75/27/14 78/26/14
f 86/158/36 83/129/36 41/129/36 20/128/36 42/127/36
f 369/472/1 372/475/1 385/475/1 379/476/1
f 372/475/3 371/474/3 384/474/3 385/475/3
f 371/474/2 370/473/2 382/473/2 384/474/2
f 838/477/1 839/478/1 898/478/1 899/477/1
f 380/479/35 757/480/35 729/481/35 745/482/35 720/483/35 753/484/35 725/485/35 741/486/35 381/487/35 382/473/35 379/472/35
f 381/487/19 756/488/19 728/489/19 744/490/19 719/491/19 752/492/19 724/493/19 740/494/19 390/495/19 389/496/19 384/474/19 382/473/19
f 379/476/21 385/475/21 387/497/21 388/498/21 759/499/21 731/500/21 747/501/21 722/502/21 755/503/21 727/504/21 743/505/21 380/479/21
f 385/475/16 384/474/16 389/496/16 387/497/16
f 370/473/4 369/472/4 379/472/4 382/473/4
f 383/506/1 378/507/1 398/507/1 397/506/1
f 386/508/13 377/509/13 388/498/13 387/497/13
f 383/506/13 386/508/13 387/497/13 389/496/13
f 377/509/13 378/507/13 390/495/13 742/510/13 726/511/13 754/512/13 721/513/13 746/514/13 730/515/13 758/516/13 388/498/13
f 378/507/13 383/506/13 389/496/13 390/495/13
f 386/508/4 383/506/4 397/506/4 395/508/4
f 378/507/3 377/509/3 396/509/3 398/507/3
f 377/509/2 386/508/2 395/508/2 396/509/2
f 506/112/4 8/583/4 3/584/4 4/585/4 5/586/4 6/587/4 9/588/4 505/149/4
f 10/5/13 7/589/13 506/112/13 505/149/13
f 85/590/13 84/6/13 508/157/13 507/156/13
f 7/589/13 85/590/13 507/156/13 506/112/13
f 84/6/13 10/5/13 505/149/13 508/157/13
f 84/6/4 85/590/4 515/590/4 516/6/4
f 85/590/1 7/589/1 514/589/1 515/590/1
f 7/589/3 10/5/3 513/5/3 514/589/3
f 959/627/3 956/628/3 1009/628/3 1010/627/3
f 917/629/4 918/630/4 971/630/4 968/629/4
f 824/631/2 825/632/2 884/632/2 885/631/2
f 837/633/4 838/477/4 899/477/4 896/633/4
f 798/634/1 799/635/1 858/635/1 859/634/1
f 789/636/13 758/516/13 730/515/13 767/637/13
f 839/478/3 836/638/3 897/638/3 898/478/3
f 797/639/4 798/634/4 859/634/4 856/639/4
f 786/640/13 761/641/13 733/642/13 771/643/13
f 785/644/13 772/645/13 728/489/13 756/488/13
f 784/646/13 773/647/13 738/648/13 774/649/13
f 783/650/13 760/651/13 732/652/13 775/653/13
f 782/654/13 776/655/13 724/493/13 752/492/13
f 956/628/2 957/656/2 1008/656/2 1009/628/2
f 780/657/13 754/512/13 726/511/13 779/658/13
f 777/659/13 780/657/13 779/658/13 739/660/13
f 919/661/3 916/662/3 969/662/3 970/661/3
f 930/663/1 931/664/1 982/664/1 983/663/1
f 760/651/13 781/665/13 778/666/13 732/652/13
f 723/667/13 751/668/13 781/665/13 760/651/13
f 751/668/13 735/669/13 777/659/13 781/665/13
f 748/670/13 782/654/13 752/492/13 719/491/13
f 836/638/2 837/633/2 896/633/2 897/638/2
f 778/666/13 739/660/13 776/655/13 782/654/13
f 773/647/13 783/650/13 775/653/13 738/648/13
f 734/671/13 762/672/13 783/650/13 773/647/13
f 799/635/3 796/673/3 857/673/3 858/635/3
f 916/662/2 917/629/2 968/629/2 969/662/2
f 720/483/13 750/674/13 784/646/13 753/484/13
f 750/674/13 734/671/13 773/647/13 784/646/13
f 741/486/13 785/644/13 756/488/13 381/487/13
f 810/675/1 811/676/1 870/676/1 871/675/1
f 929/677/4 930/663/4 983/663/4 980/677/4
f 851/678/3 848/679/3 909/679/3 910/678/3
f 727/504/13 755/503/13 786/640/13 769/680/13
f 755/503/13 722/502/13 761/641/13 786/640/13
f 757/480/13 787/681/13 770/682/13 729/481/13
f 380/479/13 743/505/13 787/681/13 757/480/13
f 931/664/3 928/683/3 981/683/3 982/664/3
f 745/482/13 788/684/13 750/674/13 720/483/13
f 942/685/1 943/686/1 994/686/1 995/685/1
f 770/682/13 737/687/13 768/688/13 788/684/13
f 928/683/2 929/677/2 980/677/2 981/683/2
f 796/673/2 797/639/2 856/639/2 857/673/2
f 759/499/13 388/498/13 758/516/13 789/636/13
f 761/641/13 790/689/13 766/690/13 733/642/13
f 941/691/4 942/685/4 995/685/4 992/691/4
f 747/501/13 731/500/13 765/692/13 790/689/13
f 749/693/13 791/694/13 751/668/13 723/667/13
f 733/642/13 766/690/13 791/694/13 749/693/13
f 766/690/13 736/695/13 764/696/13 791/694/13
f 764/696/13 792/697/13 763/698/13 735/669/13
f 736/695/13 767/637/13 792/697/13 764/696/13
f 809/699/4 810/675/4 871/675/4 868/699/4
f 768/688/13 793/700/13 762/672/13 734/671/13
f 848/679/2 849/701/2 908/701/2 909/679/2
f 943/686/3 940/702/3 993/702/3 994/686/3
f 772/645/13 794/703/13 744/490/13 728/489/13
f 738/648/13 775/653/13 794/703/13 772/645/13
f 811/676/3 808/704/3 869/704/3 870/676/3
f 954/705/1 955/706/1 1006/706/1 1007/705/1
f 822/707/1 823/708/1 882/708/1 883/707/1
f 779/658/13 726/511/13 742/510/13 795/709/13
f 795/709/13 742/510/13 797/639/13 796/673/13
f 742/510/13 390/495/13 798/634/13 797/639/13
f 390/495/13 740/494/13 799/635/13 798/634/13
f 740/494/13 795/709/13 796/673/13 799/635/13
f 792/697/13 746/514/13 801/710/13 800/711/13
f 746/514/13 721/513/13 802/712/13 801/710/13
f 721/513/13 763/698/13 803/713/13 802/712/13
f 763/698/13 792/697/13 800/711/13 803/713/13
f 791/694/13 764/696/13 805/714/13 804/715/13
f 764/696/13 735/669/13 806/716/13 805/714/13
f 735/669/13 751/668/13 807/717/13 806/716/13
f 751/668/13 791/694/13 804/715/13 807/717/13
f 790/689/13 765/692/13 809/699/13 808/704/13
f 765/692/13 736/695/13 810/675/13 809/699/13
f 736/695/13 766/690/13 811/676/13 810/675/13
f 766/690/13 790/689/13 808/704/13 811/676/13
f 788/684/13 768/688/13 813/718/13 812/719/13
f 768/688/13 734/671/13 814/720/13 813/718/13
f 734/671/13 750/674/13 815/721/13 814/720/13
f 750/674/13 788/684/13 812/719/13 815/721/13
f 787/681/13 769/680/13 817/722/13 816/723/13
f 769/680/13 737/687/13 818/724/13 817/722/13
f 737/687/13 770/682/13 819/725/13 818/724/13
f 770/682/13 787/681/13 816/723/13 819/725/13
f 732/652/13 778/666/13 821/726/13 820/727/13
f 778/666/13 782/654/13 822/707/13 821/726/13
f 782/654/13 748/670/13 823/708/13 822/707/13
f 748/670/13 732/652/13 820/727/13 823/708/13
f 762/672/13 723/667/13 825/632/13 824/631/13
f 723/667/13 760/651/13 826/728/13 825/632/13
f 760/651/13 783/650/13 827/729/13 826/728/13
f 783/650/13 762/672/13 824/631/13 827/729/13
f 725/485/13 774/649/13 829/730/13 828/731/13
f 774/649/13 785/644/13 830/732/13 829/730/13
f 785/644/13 741/486/13 831/733/13 830/732/13
f 741/486/13 725/485/13 828/731/13 831/733/13
f 769/680/13 786/640/13 833/734/13 832/735/13
f 786/640/13 771/643/13 834/736/13 833/734/13
f 771/643/13 737/687/13 835/737/13 834/736/13
f 737/687/13 769/680/13 832/735/13 835/737/13
f 731/500/13 759/499/13 837/633/13 836/638/13
f 759/499/13 789/636/13 838/477/13 837/633/13
f 789/636/13 765/692/13 839/478/13 838/477/13
f 765/692/13 731/500/13 836/638/13 839/478/13
f 767/637/13 730/515/13 841/738/13 840/739/13
f 730/515/13 746/514/13 842/740/13 841/738/13
f 746/514/13 792/697/13 843/741/13 842/740/13
f 792/697/13 767/637/13 840/739/13 843/741/13
f 737/687/13 771/643/13 845/742/13 844/743/13
f 771/643/13 793/700/13 846/744/13 845/742/13
f 793/700/13 768/688/13 847/745/13 846/744/13
f 768/688/13 737/687/13 844/743/13 847/745/13
f 775/653/13 732/652/13 849/701/13 848/679/13
f 732/652/13 748/670/13 850/746/13 849/701/13
f 748/670/13 794/703/13 851/678/13 850/746/13
f 794/703/13 775/653/13 848/679/13 851/678/13
f 739/660/13 779/658/13 853/747/13 852/748/13
f 779/658/13 795/709/13 854/749/13 853/747/13
f 795/709/13 776/655/13 855/750/13 854/749/13
f 776/655/13 739/660/13 852/748/13 855/750/13
f 827/729/3 824/631/3 885/631/3 886/729/3
f 825/632/4 826/728/4 887/728/4 884/632/4
f 812/719/2 813/718/2 872/718/2 873/719/2
f 826/728/1 827/729/1 886/729/1 887/728/1
f 815/721/3 812/719/3 873/719/3 874/721/3
f 813/718/4 814/720/4 875/720/4 872/718/4
f 800/711/2 801/710/2 860/710/2 861/711/2
f 814/720/1 815/721/1 874/721/1 875/720/1
f 803/713/3 800/711/3 861/711/3 862/713/3
f 840/739/2 841/738/2 900/738/2 901/739/2
f 801/710/4 802/712/4 863/712/4 860/710/4
f 843/741/3 840/739/3 901/739/3 902/741/3
f 849/701/4 850/746/4 911/746/4 908/701/4
f 802/712/1 803/713/1 862/713/1 863/712/1
f 841/738/4 842/740/4 903/740/4 900/738/4
f 828/731/2 829/730/2 888/730/2 889/731/2
f 850/746/1 851/678/1 910/678/1 911/746/1
f 842/740/1 843/741/1 902/741/1 903/740/1
f 831/733/3 828/731/3 889/731/3 890/733/3
f 829/730/4 830/732/4 891/732/4 888/730/4
f 816/723/2 817/722/2 876/722/2 877/723/2
f 830/732/1 831/733/1 890/733/1 891/732/1
f 819/725/3 816/723/3 877/723/3 878/725/3
f 817/722/4 818/724/4 879/724/4 876/722/4
f 804/715/2 805/714/2 864/714/2 865/715/2
f 852/748/2 853/747/2 912/747/2 913/748/2
f 818/724/1 819/725/1 878/725/1 879/724/1
f 807/717/3 804/715/3 865/715/3 866/717/3
f 844/743/2 845/742/2 904/742/2 905/743/2
f 855/750/3 852/748/3 913/748/3 914/750/3
f 805/714/4 806/716/4 867/716/4 864/714/4
f 847/745/3 844/743/3 905/743/3 906/745/3
f 853/747/4 854/749/4 915/749/4 912/747/4
f 806/716/1 807/717/1 866/717/1 867/716/1
f 845/742/4 846/744/4 907/744/4 904/742/4
f 832/735/2 833/734/2 892/734/2 893/735/2
f 854/749/1 855/750/1 914/750/1 915/749/1
f 846/744/1 847/745/1 906/745/1 907/744/1
f 835/737/3 832/735/3 893/735/3 894/737/3
f 833/734/4 834/736/4 895/736/4 892/734/4
f 820/727/2 821/726/2 880/726/2 881/727/2
f 834/736/1 835/737/1 894/737/1 895/736/1
f 823/708/3 820/727/3 881/727/3 882/708/3
f 821/726/4 822/707/4 883/707/4 880/726/4
f 808/704/2 809/699/2 868/699/2 869/704/2
f 794/703/13 748/670/13 917/629/13 916/662/13
f 748/670/13 719/491/13 918/630/13 917/629/13
f 719/491/13 744/490/13 919/661/13 918/630/13
f 744/490/13 794/703/13 916/662/13 919/661/13
f 793/700/13 749/693/13 921/751/13 920/752/13
f 749/693/13 723/667/13 922/753/13 921/751/13
f 723/667/13 762/672/13 923/754/13 922/753/13
f 762/672/13 793/700/13 920/752/13 923/754/13
f 781/665/13 777/659/13 925/755/13 924/756/13
f 777/659/13 739/660/13 926/757/13 925/755/13
f 739/660/13 778/666/13 927/758/13 926/757/13
f 778/666/13 781/665/13 924/756/13 927/758/13
f 735/669/13 763/698/13 929/677/13 928/683/13
f 763/698/13 780/657/13 930/663/13 929/677/13
f 780/657/13 777/659/13 931/664/13 930/663/13
f 777/659/13 735/669/13 928/683/13 931/664/13
f 763/698/13 721/513/13 933/759/13 932/760/13
f 721/513/13 754/512/13 934/761/13 933/759/13
f 754/512/13 780/657/13 935/762/13 934/761/13
f 780/657/13 763/698/13 932/760/13 935/762/13
f 753/484/13 784/646/13 937/763/13 936/764/13
f 784/646/13 774/649/13 938/765/13 937/763/13
f 774/649/13 725/485/13 939/766/13 938/765/13
f 725/485/13 753/484/13 936/764/13 939/766/13
f 774/649/13 738/648/13 941/691/13 940/702/13
f 738/648/13 772/645/13 942/685/13 941/691/13
f 772/645/13 785/644/13 943/686/13 942/685/13
f 785/644/13 774/649/13 940/702/13 943/686/13
f 743/505/13 727/504/13 945/767/13 944/768/13
f 727/504/13 769/680/13 946/769/13 945/767/13
f 769/680/13 787/681/13 947/770/13 946/769/13
f 787/681/13 743/505/13 944/768/13 947/770/13
f 729/481/13 770/682/13 949/771/13 948/772/13
f 770/682/13 788/684/13 950/773/13 949/771/13
f 788/684/13 745/482/13 951/774/13 950/773/13
f 745/482/13 729/481/13 948/772/13 951/774/13
f 765/692/13 789/636/13 953/775/13 952/776/13
f 789/636/13 767/637/13 954/705/13 953/775/13
f 767/637/13 736/695/13 955/706/13 954/705/13
f 736/695/13 765/692/13 952/776/13 955/706/13
f 722/502/13 747/501/13 957/656/13 956/628/13
f 747/501/13 790/689/13 958/777/13 957/656/13
f 790/689/13 761/641/13 959/627/13 958/777/13
f 761/641/13 722/502/13 956/628/13 959/627/13
f 771/643/13 733/642/13 961/778/13 960/779/13
f 733/642/13 749/693/13 962/780/13 961/778/13
f 749/693/13 793/700/13 963/781/13 962/780/13
f 793/700/13 771/643/13 960/779/13 963/781/13
f 776/655/13 795/709/13 965/782/13 964/783/13
f 795/709/13 740/494/13 966/784/13 965/782/13
f 740/494/13 724/493/13 967/785/13 966/784/13
f 724/493/13 776/655/13 964/783/13 967/785/13
f 918/630/1 919/661/1 970/661/1 971/630/1
f 957/656/4 958/777/4 1011/777/4 1008/656/4
f 944/768/2 945/767/2 996/767/2 997/768/2
f 958/777/1 959/627/1 1010/627/1 1011/777/1
f 947/770/3 944/768/3 997/768/3 998/770/3
f 945/767/4 946/769/4 999/769/4 996/767/4
f 932/760/2 933/759/2 984/759/2 985/760/2
f 946/769/1 947/770/1 998/770/1 999/769/1
f 935/762/3 932/760/3 985/760/3 986/762/3
f 933/759/4 934/761/4 987/761/4 984/759/4
f 920/752/2 921/751/2 972/751/2 973/752/2
f 934/761/1 935/762/1 986/762/1 987/761/1
f 923/754/3 920/752/3 973/752/3 974/754/3
f 960/779/2 961/778/2 1012/778/2 1013/779/2
f 921/751/4 922/753/4 975/753/4 972/751/4
f 963/781/3 960/779/3 1013/779/3 1014/781/3
f 922/753/1 923/754/1 974/754/1 975/753/1
f 961/778/4 962/780/4 1015/780/4 1012/778/4
f 948/772/2 949/771/2 1000/771/2 1001/772/2
f 962/780/1 963/781/1 1014/781/1 1015/780/1
f 951/774/3 948/772/3 1001/772/3 1002/774/3
f 949/771/4 950/773/4 1003/773/4 1000/771/4
f 936/764/2 937/763/2 988/763/2 989/764/2
f 950/773/1 951/774/1 1002/774/1 1003/773/1
f 939/766/3 936/764/3 989/764/3 990/766/3
f 937/763/4 938/765/4 991/765/4 988/763/4
f 924/756/2 925/755/2 976/755/2 977/756/2
f 938/765/1 939/766/1 990/766/1 991/765/1
f 927/758/3 924/756/3 977/756/3 978/758/3
f 964/783/2 965/782/2 1016/782/2 1017/783/2
f 925/755/4 926/757/4 979/757/4 976/755/4
f 967/785/3 964/783/3 1017/783/3 1018/785/3
f 926/757/1 927/758/1 978/758/1 979/757/1
f 965/782/4 966/784/4 1019/784/4 1016/782/4
f 952/776/2 953/775/2 1004/775/2 1005/776/2
f 966/784/1 967/785/1 1018/785/1 1019/784/1
f 955/706/3 952/776/3 1005/776/3 1006/706/3
f 953/775/4 954/705/4 1007/705/4 1004/775/4
f 940/702/2 941/691/2 992/691/2 993/702/2
usemtl M_Gris_Metal
f 365/521/2 404/522/2 416/522/2 413/521/2
f 365/521/13 366/523/13 406/167/13 706/166/13
f 366/523/13 403/524/13 407/169/13 406/167/13
f 404/522/13 365/521/13 706/166/13 709/471/13
f 403/524/13 404/522/13 709/471/13 407/169/13
f 366/523/3 365/521/3 413/521/3 414/523/3
f 404/522/4 403/524/4 415/524/4 416/522/4
f 403/524/1 366/523/1 414/523/1 415/524/1
f 437/563/41 436/539/41 435/538/41 438/564/41
f 441/538/3 440/564/3 438/564/3 435/538/3
f 473/548/3 464/554/3 501/554/3 504/548/3
f 446/567/2 445/550/2 421/550/2 422/567/2
f 442/539/1 441/538/1 435/538/1 436/539/1
f 474/549/1 473/548/1 504/548/1 503/549/1
f 457/578/3 448/569/3 426/569/3 423/578/3
f 470/560/2 469/559/2 490/559/2 489/560/2
f 458/533/1 457/532/1 423/532/1 424/533/1
f 433/572/41 432/529/41 431/576/41 434/575/41
f 429/570/41 428/577/41 427/530/41 430/571/41
f 425/568/41 424/533/41 423/578/41 426/569/41
f 421/550/41 420/535/41 419/534/41 422/567/41
f 417/565/41 483/537/41 484/536/41 418/551/41
f 486/561/41 487/541/41 488/540/41 485/582/41
f 490/559/41 491/579/41 492/580/41 489/560/41
f 494/557/41 495/545/41 496/544/41 493/558/41
f 498/555/41 499/547/41 500/546/41 497/581/41
f 502/553/41 503/574/41 504/548/41 501/554/41
f 480/543/1 479/542/1 492/542/1 491/543/1
f 452/573/2 451/572/2 433/572/2 434/573/2
f 479/580/3 470/560/3 489/560/3 492/580/3
f 456/535/1 455/534/1 419/534/1 420/535/1
f 468/558/2 467/557/2 494/557/2 493/558/2
f 455/534/3 446/567/3 422/567/3 419/534/3
f 462/529/1 461/528/1 431/528/1 432/529/1
f 444/566/2 443/565/2 417/565/2 418/566/2
f 461/576/3 452/575/3 434/575/3 431/576/3
f 478/545/1 477/544/1 496/544/1 495/545/1
f 450/571/2 449/570/2 429/570/2 430/571/2
f 477/544/3 468/558/3 493/558/3 496/544/3
f 454/537/1 453/536/1 484/536/1 483/537/1
f 466/556/2 465/555/2 498/555/2 497/556/2
f 453/536/3 444/551/3 418/551/3 484/536/3
f 460/531/1 459/530/1 427/530/1 428/531/1
f 472/562/2 471/561/2 486/561/2 485/562/2
f 459/530/3 450/571/3 430/571/3 427/530/3
f 476/547/1 475/546/1 500/546/1 499/547/1
f 448/569/2 447/568/2 425/568/2 426/569/2
f 475/546/3 466/581/3 497/581/3 500/546/3
f 482/541/1 481/540/1 488/540/1 487/541/1
f 464/554/2 463/553/2 502/553/2 501/554/2
f 440/564/2 439/563/2 437/563/2 438/564/2
f 481/540/3 472/582/3 485/582/3 488/540/3
usemtl M_Orange
f 136/186/13 149/263/13 648/264/13 623/265/13
f 149/263/13 120/147/13 626/270/13 648/264/13
f 120/147/13 114/146/13 620/368/13 622/369/13 627/370/13 626/270/13
f 114/146/13 136/186/13 623/405/13 620/406/13
f 620/406/61 623/405/61 624/334/61 621/354/61
f 648/264/63 626/270/63 625/324/63 647/345/63
f 623/265/64 648/264/64 647/345/64 624/334/64
f 712/122/19 717/624/19 716/139/19 713/121/19
f 710/620/21 718/625/21 715/623/21 714/622/21 711/621/21
f 857/673/13 856/639/13 859/634/13 858/635/13
f 861/711/13 860/710/13 863/712/13 862/713/13
f 865/715/13 864/714/13 867/716/13 866/717/13
f 869/704/13 868/699/13 871/675/13 870/676/13
f 873/719/13 872/718/13 875/720/13 874/721/13
f 877/723/13 876/722/13 879/724/13 878/725/13
f 881/727/13 880/726/13 883/707/13 882/708/13
f 885/631/13 884/632/13 887/728/13 886/729/13
f 889/731/13 888/730/13 891/732/13 890/733/13
f 893/735/13 892/734/13 895/736/13 894/737/13
f 897/638/13 896/633/13 899/477/13 898/478/13
f 901/739/13 900/738/13 903/740/13 902/741/13
f 905/743/13 904/742/13 907/744/13 906/745/13
f 909/679/13 908/701/13 911/746/13 910/678/13
f 913/748/13 912/747/13 915/749/13 914/750/13
