# Blender 4.2.3 LTS
# www.blender.org
mtllib SM_SimpleChair.mtl
o SM_SimpleChair
v 0.218370 0.407380 -0.225000
v 0.218370 0.407380 0.225000
v 0.206542 0.423641 0.225000
v 0.206542 0.423641 -0.225000
v 0.218370 0.407380 0.176983
v 0.218370 0.407380 -0.176983
v 0.275044 0.407380 -0.176983
v 0.275044 0.407380 0.176983
v -0.156426 0.499185 0.176983
v -0.156426 0.499185 -0.176983
v -0.298664 1.107986 0.140789
v -0.298665 1.107986 -0.140789
v 0.206542 0.499185 0.176983
v 0.206542 0.499185 -0.176983
v -0.227616 1.072236 0.140789
v -0.227616 1.072236 -0.140789
v 0.251457 0.438990 0.176983
v 0.251457 0.438990 -0.176983
v -0.161376 0.494152 0.176983
v -0.161376 0.494152 -0.173279
v 0.243037 0.438321 0.173279
v 0.243037 0.438321 -0.173279
v 0.203062 0.493222 0.176983
v 0.203061 0.493222 -0.176983
v -0.273793 1.100480 -0.137842
v -0.234199 1.069107 0.137842
v 0.245308 0.435203 0.176983
v 0.245308 0.435203 -0.176983
v -0.161376 0.494152 -0.176983
v 0.203062 0.493222 0.173279
v -0.234199 1.069107 -0.140789
v -0.234199 1.069107 0.140789
v -0.276894 1.102937 0.140789
v 0.203061 0.493222 -0.173279
v -0.234199 1.069107 -0.137842
v -0.273792 1.100480 0.137842
v -0.197787 0.781629 0.155561
v -0.197518 0.779501 0.155692
v -0.198057 0.783758 0.155429
v -0.221792 0.971152 0.143880
v -0.222331 0.975410 0.143617
v -0.222061 0.973281 0.143748
v -0.222331 0.975410 -0.143617
v -0.221792 0.971152 -0.143880
v -0.222062 0.973281 -0.143748
v -0.198057 0.783758 -0.155429
v -0.197518 0.779501 -0.155692
v -0.197787 0.781629 -0.155560
v -0.153664 0.494132 0.173279
v -0.162258 0.501112 0.172850
v -0.161376 0.494152 0.173279
v -0.162258 0.501112 -0.172850
v -0.153664 0.494132 -0.173279
v 0.207527 0.500744 0.166995
v 0.203767 0.494411 0.173279
v 0.207023 0.499895 0.170137
v 0.205647 0.497577 0.172437
v 0.203767 0.494411 -0.173279
v 0.207527 0.500744 -0.166996
v 0.205647 0.497577 -0.172437
v 0.207023 0.499895 -0.170137
v -0.232949 1.069693 0.137842
v -0.226298 1.072813 0.131554
v -0.229623 1.071253 0.137000
v -0.227189 1.072395 0.134698
v -0.226298 1.072813 -0.131553
v -0.232949 1.069693 -0.137842
v -0.227189 1.072395 -0.134698
v -0.229623 1.071253 -0.137000
v 0.246101 0.447767 0.166995
v 0.244130 0.438978 0.173279
v 0.247247 0.444654 0.170137
v 0.246526 0.441436 0.172437
v 0.244130 0.438978 -0.173279
v 0.246101 0.447767 -0.166996
v 0.246525 0.441436 -0.172437
v 0.247247 0.444654 -0.170137
v -0.272919 1.101390 -0.137842
v -0.263083 1.101986 -0.131554
v -0.269926 1.103215 -0.137000
v -0.266326 1.103433 -0.134698
v -0.263083 1.101986 0.131554
v -0.272919 1.101390 0.137842
v -0.266326 1.103433 0.134698
v -0.269926 1.103215 0.137000
v -0.196755 0.783894 -0.155429
v -0.190617 0.790920 -0.148746
v -0.193394 0.785101 -0.154534
v -0.191148 0.787673 -0.152087
v -0.190617 0.790920 0.148746
v -0.196755 0.783894 0.155429
v -0.191147 0.787673 0.152088
v -0.193394 0.785101 0.154534
v -0.196216 0.779637 0.155692
v -0.188482 0.774061 0.149785
v -0.192641 0.779155 0.154900
v -0.189810 0.777114 0.152738
v -0.188482 0.774061 -0.149785
v -0.196216 0.779637 -0.155692
v -0.189810 0.777114 -0.152738
v -0.192641 0.779155 -0.154900
v -0.221048 0.975544 -0.143617
v -0.214890 0.982572 -0.136951
v -0.217677 0.976752 -0.142724
v -0.215423 0.979324 -0.140284
v -0.214890 0.982572 0.136951
v -0.221047 0.975544 0.143617
v -0.215423 0.979324 0.140284
v -0.217677 0.976752 0.142724
v -0.220490 0.971288 0.143880
v -0.212756 0.965712 0.137973
v -0.216915 0.970807 0.143088
v -0.214084 0.968766 0.140926
v -0.212756 0.965712 -0.137973
v -0.220490 0.971288 -0.143880
v -0.214084 0.968766 -0.140926
v -0.216915 0.970807 -0.143088
v -0.146660 0.501648 0.166995
v -0.153660 0.495323 0.173279
v -0.150153 0.500807 0.170137
v -0.152715 0.498492 0.172437
v -0.146660 0.501648 -0.166995
v -0.153661 0.495323 -0.173279
v -0.150153 0.500807 -0.170137
v -0.152715 0.498492 -0.172437
v -0.160956 0.501248 -0.172850
v -0.154818 0.508274 -0.166166
v -0.157595 0.502455 -0.171954
v -0.155348 0.505027 -0.169508
v -0.154818 0.508274 0.166166
v -0.160955 0.501248 0.172850
v -0.155348 0.505027 0.169508
v -0.157595 0.502455 0.171954
v -0.284265 1.107986 0.140789
v -0.271963 1.107986 0.140789
v -0.262761 1.100568 0.140789
v -0.284265 1.107986 -0.140789
v -0.276894 1.102937 -0.140789
v -0.262762 1.100568 -0.140789
v -0.271963 1.107986 -0.140789
v 0.248703 0.407380 -0.225000
v 0.275044 0.407380 -0.205365
v 0.275044 0.407380 0.205365
v 0.248703 0.407380 0.225000
v -0.175914 0.479441 0.226585
v -0.159500 0.496309 0.211132
v -0.175914 0.479441 -0.226585
v -0.156426 0.499185 -0.205363
v -0.296472 1.088223 0.180315
v -0.298664 1.107986 0.159352
v -0.298665 1.107986 -0.159352
v -0.296472 1.088223 -0.180315
v 0.190251 0.483661 -0.220592
v 0.196709 0.494906 -0.209799
v 0.190252 0.483661 0.220592
v 0.196709 0.494906 0.209799
v -0.242997 1.058227 0.177258
v -0.231299 1.063742 0.164443
v -0.271963 1.107986 0.159351
v -0.280242 1.088177 0.178987
v -0.280242 1.088177 -0.178986
v -0.271963 1.107986 -0.159351
v -0.242997 1.058227 -0.177257
v -0.231299 1.063742 -0.164443
v 0.194981 0.479376 0.225000
v 0.206542 0.499185 0.205365
v -0.156426 0.499185 0.205363
v -0.172853 0.482325 0.220812
v -0.159500 0.496309 -0.211132
v 0.206542 0.499185 -0.205365
v 0.194981 0.479376 -0.225000
v -0.172854 0.482325 -0.220812
v -0.227616 1.072236 -0.159350
v -0.248274 1.062597 -0.181332
v -0.248274 1.062597 0.181333
v -0.227616 1.072236 0.159350
v -0.159642 0.496160 0.210833
v -0.172309 0.482831 0.219476
v -0.172988 0.482171 -0.220513
v -0.159642 0.496160 -0.210833
v 0.189358 0.484358 0.219607
v 0.194847 0.493794 0.210281
v 0.194847 0.493794 -0.210281
v 0.189357 0.484358 -0.219608
v -0.232314 1.062073 -0.165075
v -0.242145 1.057375 -0.176323
v -0.242145 1.057375 0.176323
v -0.232314 1.062073 0.165075
v 0.190251 0.483452 0.220339
v 0.196708 0.494697 0.209546
v -0.160324 0.495502 0.211868
v -0.172988 0.482171 0.220513
v -0.160324 0.495502 -0.211868
v 0.196708 0.494697 -0.209546
v 0.190251 0.483452 -0.220339
v -0.172310 0.482831 -0.219476
v -0.231532 1.063699 -0.164195
v -0.243230 1.058184 -0.177010
v -0.243230 1.058184 0.177010
v -0.231532 1.063699 0.164196
v -0.160456 0.495364 0.211577
v -0.172434 0.482687 0.219185
v -0.172434 0.482687 -0.219185
v -0.160456 0.495364 -0.211577
v 0.189357 0.484146 0.219336
v 0.194846 0.493583 0.210010
v 0.194846 0.493583 -0.210010
v 0.189357 0.484146 -0.219336
v -0.232552 1.062027 -0.164811
v -0.242383 1.057330 -0.176059
v -0.242383 1.057330 0.176059
v -0.232552 1.062027 0.164811
v -0.206542 0.423641 -0.225000
v -0.224384 0.438300 -0.224014
v -0.224384 0.438300 0.224014
v -0.206542 0.423641 0.225000
v -0.224384 0.438300 -0.176207
v -0.224384 0.438300 0.176207
v 0.206542 0.423641 -0.000000
v -0.206542 0.423641 0.000000
v -0.000000 0.423641 -0.176983
v 0.000000 0.423641 0.176983
v -0.000000 0.423641 -0.000000
v -0.111391 0.415507 -0.163038
v 0.111391 0.415507 0.163038
v 0.111391 0.415507 -0.163038
v -0.111391 0.415507 0.163038
v -0.000000 0.423641 -0.088491
v 0.000000 0.423641 0.088491
v 0.103271 0.423641 -0.000000
v -0.103271 0.423641 0.000000
v -0.111391 0.415507 0.103224
v 0.111391 0.415507 0.103224
v 0.111391 0.415507 -0.103224
v -0.111391 0.415507 -0.103224
v 0.151192 0.041485 0.120930
v 0.151236 0.041093 0.175015
v 0.151257 0.040900 -0.175022
v 0.151211 0.041292 -0.120941
v -0.151395 0.039700 0.121033
v -0.151445 0.039308 0.175084
v -0.151296 0.040568 -0.175035
v -0.151249 0.040960 -0.120960
v -0.110449 0.423641 0.170832
v -0.110449 0.423641 0.094642
v 0.110449 0.423641 0.170832
v 0.110449 0.423641 0.094642
v 0.110449 0.423641 -0.094642
v 0.110449 0.423641 -0.170832
v -0.110449 0.423641 -0.094642
v -0.110449 0.423641 -0.170832
v 0.151218 0.041251 0.183117
v 0.151218 0.041251 0.112828
v 0.151239 0.041058 -0.112839
v 0.151239 0.041058 -0.183125
v -0.151425 0.039466 0.112930
v -0.151425 0.039466 0.183186
v -0.151277 0.040726 -0.183137
v -0.151277 0.040726 -0.112858
v 0.143902 0.046998 0.120974
v 0.144192 0.046848 0.175060
v 0.144210 0.046689 -0.175068
v 0.143916 0.046839 -0.120986
v -0.144392 0.045147 0.175130
v -0.144093 0.045297 0.121077
v -0.143952 0.046522 -0.121005
v -0.144247 0.046373 -0.175081
v -0.105157 0.414912 0.163038
v -0.105157 0.414912 0.103224
v 0.105157 0.414911 0.163038
v 0.105157 0.414911 0.103224
v 0.105157 0.414911 -0.103224
v 0.105157 0.414911 -0.163038
v -0.105157 0.414911 -0.103224
v -0.105157 0.414911 -0.163038
v 0.181641 0.423641 0.170832
v 0.200965 0.410534 0.142400
v 0.211769 0.413027 0.174846
v 0.201450 0.423641 0.186574
v 0.200964 0.410534 -0.142400
v 0.181641 0.423641 -0.170832
v 0.201450 0.423641 -0.186574
v 0.211769 0.413027 -0.174847
v -0.181641 0.423641 -0.170832
v -0.200965 0.410534 -0.142400
v -0.213878 0.432145 -0.173950
v -0.201450 0.423641 -0.186574
v -0.200964 0.410534 0.142400
v -0.181641 0.423641 0.170832
v -0.201450 0.423641 0.186574
v -0.213878 0.432145 0.173950
v 0.181641 0.423641 -0.094642
v 0.200964 0.410534 -0.124359
v 0.200563 0.423641 -0.078826
v -0.181641 0.423641 0.094642
v -0.200964 0.410534 0.124359
v -0.200563 0.423641 0.078826
v 0.200965 0.410534 0.124359
v 0.181641 0.423641 0.094642
v 0.200563 0.423641 0.078825
v -0.200965 0.410534 -0.124359
v -0.181641 0.423641 -0.094642
v -0.200563 0.423641 -0.078825
v 0.249506 0.013107 -0.147144
v 0.233384 -0.000000 -0.118930
v 0.233384 0.000000 -0.187239
v 0.249506 0.013107 -0.157792
v -0.249506 0.013107 0.147144
v -0.233384 -0.000000 0.118930
v -0.233384 0.000000 0.187239
v -0.249506 0.013107 0.157792
v -0.249506 0.013107 -0.157792
v -0.233384 -0.000000 -0.187239
v 0.249506 0.013107 0.157792
v 0.233384 -0.000000 0.187239
v 0.233384 0.000000 0.118930
v 0.249506 0.013107 0.147144
v -0.233384 0.000000 -0.118930
v -0.249506 0.013107 -0.147144
v 0.199364 0.423641 0.110522
v 0.251107 -0.000000 0.134809
v 0.251107 0.000000 0.171374
v 0.199364 0.423641 0.154966
v 0.199364 0.423641 -0.154966
v 0.251107 -0.000000 -0.171374
v 0.251107 0.000000 -0.134810
v 0.199364 0.423641 -0.110522
v -0.251107 0.000000 0.134810
v -0.199364 0.423641 0.110522
v -0.199364 0.423641 0.154966
v -0.251107 -0.000000 0.171374
v -0.199364 0.423641 -0.110522
v -0.251107 0.000000 -0.134809
v -0.251107 0.000000 -0.171374
v -0.199364 0.423641 -0.154966
v 0.199939 0.408421 0.126455
v 0.247995 0.014965 0.149012
v 0.247995 0.014965 0.155735
v 0.199939 0.408421 0.140496
v 0.199939 0.408421 -0.140496
v 0.247995 0.014965 -0.155735
v 0.247995 0.014965 -0.149012
v 0.199939 0.408421 -0.126455
v -0.247995 0.014965 0.149012
v -0.199939 0.408421 0.126455
v -0.199939 0.408421 0.140496
v -0.247995 0.014965 0.155735
v -0.199939 0.408421 -0.126455
v -0.247995 0.014965 -0.149012
v -0.247995 0.014965 -0.155735
v -0.199939 0.408421 -0.140496
v 0.199697 0.410406 0.124359
v 0.248238 0.012980 0.147144
v 0.248238 0.012980 0.157792
v 0.199697 0.410406 0.142400
v 0.199696 0.410406 -0.142400
v 0.248238 0.012980 -0.157792
v 0.248238 0.012980 -0.147144
v 0.199696 0.410406 -0.124359
v -0.248238 0.012980 0.147144
v -0.199696 0.410406 0.124359
v -0.199696 0.410406 0.142400
v -0.248238 0.012980 0.157792
v -0.199697 0.410406 -0.124359
v -0.248238 0.012980 -0.147144
v -0.248238 0.012980 -0.157792
v -0.199697 0.410406 -0.142400
v 0.199053 0.408331 0.126455
v 0.247109 0.014876 0.149012
v 0.247109 0.014876 0.155735
v 0.199053 0.408331 0.140496
v 0.199053 0.408331 -0.140496
v 0.247109 0.014876 -0.155735
v 0.247109 0.014876 -0.149012
v 0.199053 0.408331 -0.126455
v -0.247109 0.014876 0.149012
v -0.199053 0.408331 0.126455
v -0.199053 0.408331 0.140496
v -0.247109 0.014876 0.155735
v -0.199053 0.408331 -0.126455
v -0.247109 0.014876 -0.149012
v -0.247109 0.014876 -0.155735
v -0.199053 0.408331 -0.140496
vn -0.0001 0.0080 1.0000
vn -0.0262 0.0320 0.9991
vn -0.0057 0.0565 0.9984
vn -0.0000 1.0000 -0.0000
vn -0.9939 -0.1102 -0.0000
vn -0.0000 -1.0000 -0.0000
vn 0.6276 0.7785 -0.0000
vn -0.0000 -0.0000 -1.0000
vn 0.9924 0.1233 -0.0000
vn -0.0039 -0.0382 0.9993
vn -0.0000 0.0474 0.9989
vn -0.0000 -0.0000 1.0000
vn -0.5244 0.8515 -0.0000
vn 0.8015 0.5980 -0.0000
vn 0.2425 -0.0000 0.9701
vn 0.9864 0.1644 -0.0000
vn 0.8084 0.5886 -0.0000
vn 0.9701 0.2425 -0.0000
vn 0.0026 1.0000 -0.0000
vn 0.6210 0.7838 -0.0000
vn -0.0000 -0.0624 -0.9981
vn -0.0006 -0.6028 0.7979
vn -0.1040 0.9946 -0.0000
vn -0.0168 0.0592 -0.9981
vn -0.7133 -0.0031 -0.7008
vn 0.9921 0.1257 -0.0000
vn 0.0409 -0.0578 -0.9975
vn 0.1040 -0.9946 -0.0000
vn 0.0409 -0.0578 0.9975
vn -0.0000 0.1240 0.9923
vn 0.1231 0.1231 0.9847
vn 0.0007 0.4353 -0.9003
vn 0.0002 0.0615 0.9981
vn 0.0002 0.0615 -0.9981
vn 0.6305 0.7762 -0.0000
vn 0.7910 0.1898 0.5816
vn -0.0063 0.0607 0.9981
vn -0.0168 0.0592 0.9981
vn -0.0064 0.0607 -0.9981
vn 0.5151 -0.8571 -0.0000
vn 0.6214 0.7835 -0.0000
vn 0.9921 0.1254 -0.0000
vn -0.7214 0.6925 -0.0000
vn -1.0000 0.0031 -0.0000
vn 0.7163 -0.6978 -0.0000
vn 0.9758 -0.2188 -0.0000
vn 0.9385 0.3453 -0.0000
vn 0.7767 0.5656 0.2773
vn 0.5501 0.4005 0.7328
vn 0.1952 0.1421 0.9704
vn 0.1952 0.1421 -0.9704
vn 0.5501 0.4005 -0.7328
vn 0.7767 0.5656 -0.2773
vn 0.5983 0.7544 -0.2699
vn 0.4294 0.5414 -0.7228
vn 0.1542 0.1944 -0.9687
vn 0.5983 0.7544 0.2699
vn 0.4294 0.5414 0.7228
vn 0.1542 0.1944 0.9687
vn -0.5206 0.8538 -0.0000
vn -0.0605 0.9982 -0.0000
vn 0.4075 0.9132 -0.0000
vn 0.9869 -0.1611 -0.0000
vn 0.7531 -0.6579 -0.0000
vn 0.3379 -0.9412 -0.0000
vn 0.9170 0.3989 -0.0000
vn 0.5849 0.8111 -0.0000
vn 0.1335 0.9910 -0.0000
vn 0.9868 -0.1620 -0.0000
vn 0.7522 -0.6590 -0.0000
vn 0.3373 -0.9414 -0.0000
vn 0.9488 0.1377 0.2843
vn 0.6590 0.1291 0.7409
vn 0.2267 0.0885 0.9699
vn 0.2267 0.0885 -0.9699
vn 0.6590 0.1291 -0.7409
vn 0.9488 0.1377 -0.2843
vn 0.2163 0.0866 -0.9725
vn 0.6535 0.1276 -0.7461
vn 0.9483 0.1370 -0.2861
vn 0.2163 0.0866 0.9725
vn 0.6535 0.1276 0.7461
vn 0.9483 0.1370 0.2861
vn -0.2340 0.9722 -0.0000
vn -0.6704 0.7420 -0.0000
vn -0.9583 0.2858 -0.0000
vn 0.0025 0.9653 0.2611
vn 0.0018 0.7038 0.7104
vn 0.0007 0.2566 0.9665
vn 0.0007 0.2566 -0.9665
vn 0.0018 0.7038 -0.7104
vn 0.0025 0.9653 -0.2611
vn -0.0000 0.0001 -1.0000
vn -0.0000 0.0001 1.0000
vn 0.5651 0.8250 -0.0000
vn -0.0014 -0.8387 -0.5446
vn 0.3088 -0.9430 0.1239
vn 0.5458 0.4073 -0.7323
vn 0.5458 0.4073 0.7323
vn 0.4332 0.5658 -0.7016
vn 0.4332 0.5658 0.7016
vn 0.0224 0.7142 0.6995
vn 0.0224 0.7142 -0.6995
vn 0.8189 0.0566 -0.5712
vn -0.0033 0.8359 -0.5489
vn -0.0000 0.0474 -0.9989
vn 0.0016 0.6994 0.7147
vn 0.0027 0.8172 0.5763
vn -0.0000 0.8176 0.5758
vn 0.0027 0.8172 -0.5763
vn 0.0016 0.6994 -0.7147
vn -0.0000 0.8176 -0.5758
vn 0.6934 0.1418 -0.7065
vn 0.6934 0.1418 0.7065
vn 0.7636 0.1468 0.6287
vn 0.7659 0.1422 0.6270
vn 0.7636 0.1468 -0.6287
vn 0.7659 0.1422 -0.6270
vn 0.8267 0.0586 -0.5595
vn -0.0033 0.8463 -0.5326
vn -0.0033 0.8463 0.5326
vn -0.8221 -0.0578 0.5664
vn -0.8143 -0.0556 -0.5778
vn -0.9234 0.2973 -0.2427
vn 0.3088 -0.9430 -0.1239
vn -0.9234 0.2973 0.2427
vn 0.8189 0.0566 0.5712
vn -0.0014 -0.8387 0.5446
vn -0.8143 -0.0556 0.5778
vn -0.0033 0.8359 0.5489
vn 0.0017 0.6968 0.7173
vn 0.0060 0.7457 0.6663
vn -0.0029 0.7484 0.6632
vn 0.0060 0.7457 -0.6663
vn 0.0017 0.6968 -0.7173
vn -0.0029 0.7484 -0.6632
vn 0.7069 0.1424 -0.6929
vn 0.7069 0.1424 0.6929
vn 0.6939 0.1461 0.7051
vn 0.6982 0.1379 0.7025
vn 0.6939 0.1461 -0.7051
vn 0.6982 0.1379 -0.7025
vn 0.0018 0.6071 0.7946
vn 0.0018 0.6071 -0.7946
vn 0.5839 0.1357 0.8004
vn 0.5839 0.1357 -0.8004
vn 0.3132 -0.9421 0.1196
vn -0.0018 -0.8491 -0.5282
vn -0.8221 -0.0578 -0.5665
vn -0.9230 0.3048 -0.2349
vn 0.3132 -0.9421 -0.1196
vn -0.9230 0.3048 0.2349
vn 0.8268 0.0586 0.5595
vn -0.0018 -0.8491 0.5282
vn 0.1003 0.9950 -0.0000
vn -0.5382 -0.8428 -0.0000
vn 0.0057 0.0565 -0.9984
vn -0.0262 0.0320 -0.9991
vn -0.0000 -0.0701 -0.9975
vn -0.0214 -0.0500 -0.9985
vn -0.0000 -0.0701 0.9975
vn -0.6926 -0.7213 -0.0000
vn 0.0001 -0.0079 -1.0000
vn -0.5724 -0.8192 0.0368
vn -0.5724 -0.8192 -0.0368
vn 0.0166 0.0341 0.9993
vn 0.0216 -0.0500 0.9985
vn -0.7372 -0.6740 -0.0467
vn 0.0951 0.9955 -0.0000
vn 0.9934 -0.1150 -0.0000
vn -0.9934 -0.1150 -0.0000
vn -0.9943 -0.1061 -0.0047
vn -0.9944 -0.1057 0.0045
vn -0.9944 -0.1057 -0.0044
vn -0.9943 -0.1061 0.0047
vn 0.9944 -0.1058 0.0043
vn 0.9943 -0.1061 -0.0048
vn 0.9943 -0.1061 0.0048
vn 0.9944 -0.1057 -0.0044
vn -0.0011 0.9998 0.0195
vn -0.0011 0.9996 0.0289
vn -0.0059 0.9998 -0.0195
vn -0.0059 0.9996 -0.0289
vn -0.0059 1.0000 0.0028
vn -0.0011 1.0000 -0.0028
vn -0.9945 -0.1050 0.0024
vn -0.9945 -0.1050 -0.0024
vn 0.9945 -0.1050 0.0025
vn 0.9945 -0.1050 -0.0024
vn -0.0216 -0.0500 0.9985
vn 0.0003 -0.0079 1.0000
vn 0.0168 0.0341 -0.9993
vn -0.0004 0.0080 -1.0000
vn 0.0218 -0.0501 -0.9985
vn -0.0951 0.9955 -0.0000
vn -0.0170 0.0341 0.9993
vn -0.0168 0.0341 -0.9993
vn 0.6668 0.0388 -0.7442
vn 0.6630 0.1097 0.7406
vn 0.6630 0.1097 -0.7406
vn 0.6668 0.0388 0.7442
vn -0.6668 0.0388 -0.7442
vn -0.6630 0.1097 0.7406
vn -0.6668 0.0388 0.7442
vn -0.6630 0.1097 -0.7406
vn -0.7372 -0.6740 0.0467
vn 0.9926 0.1212 -0.0000
vn -0.9926 0.1212 -0.0000
vn 0.1003 -0.9950 -0.0000
vn 0.0039 -0.0382 -0.9993
vn 0.0039 -0.0382 0.9993
vn -0.1003 0.9950 -0.0000
vn -0.0057 0.0565 -0.9984
vn 0.0057 0.0565 0.9984
vn -0.1003 -0.9950 -0.0000
vn -0.0039 -0.0382 -0.9993
vn -0.5394 -0.8413 -0.0356
vn -0.5394 -0.8413 0.0356
vn -0.6906 -0.7218 -0.0456
vn -0.6906 -0.7218 0.0456
vt 0.316381 0.648235
vt 0.215089 0.648235
vt 0.585695 0.293643
vt 0.470902 0.472835
vt 0.618481 0.472877
vt 0.619651 0.490256
vt 0.617780 0.500000
vt 0.380355 0.500000
vt 0.375000 0.492046
vt 0.375000 0.289425
vt 0.375000 0.250000
vt 0.508804 0.250000
vt 0.164425 0.595367
vt 0.164425 0.596218
vt 0.625000 0.542836
vt 0.641165 0.530421
vt 0.641165 0.559179
vt 0.633717 0.583333
vt 0.625000 0.583333
vt 0.625000 0.666667
vt 0.633718 0.666667
vt 0.641165 0.690821
vt 0.641165 0.719579
vt 0.625000 0.707164
vt 0.665159 0.534079
vt 0.835575 0.534077
vt 0.835575 0.583333
vt 0.665159 0.583333
vt 0.380355 0.666667
vt 0.617780 0.750000
vt 0.380355 0.750000
vt 0.164425 0.690884
vt 0.174522 0.666667
vt 0.215080 0.666667
vt 0.265735 0.666667
vt 0.316391 0.666667
vt 0.356949 0.666667
vt 0.367046 0.690884
vt 0.367046 0.750000
vt 0.164425 0.750000
vt 0.665159 0.542840
vt 0.646144 0.583333
vt 0.641165 0.530421
vt 0.861425 0.583333
vt 0.367046 0.658724
vt 0.367046 0.657873
vt 0.356949 0.583333
vt 0.359895 0.583333
vt 0.171576 0.583333
vt 0.174522 0.583333
vt 0.215080 0.583333
vt 0.215080 0.583333
vt 0.316391 0.583333
vt 0.316391 0.583333
vt 0.665159 0.666667
vt 0.646144 0.666667
vt 0.641165 0.666667
vt 0.861425 0.666667
vt 0.380355 0.583333
vt 0.835575 0.534077
vt 0.875000 0.534076
vt 0.875000 0.583333
vt 0.875000 0.666667
vt 0.835575 0.666667
vt 0.875000 0.715924
vt 0.835575 0.715923
vt 0.375000 0.083333
vt 0.625000 0.083333
vt 0.625000 0.166667
vt 0.375000 0.166667
vt 0.617780 0.500000
vt 0.625000 0.542836
vt 0.380355 0.500000
vt 0.633718 0.583333
vt 0.633717 0.666667
vt 0.665159 0.665795
vt 0.625000 0.215924
vt 0.375000 0.000000
vt 0.508804 0.000000
vt 0.625000 0.034076
vt 0.665159 0.665795
vt 0.665159 0.665795
vt 0.665159 0.665795
vt 0.642908 0.665795
vt 0.665159 0.707160
vt 0.860036 0.665795
vt 0.860036 0.584205
vt 0.665159 0.584205
vt 0.665159 0.584205
vt 0.835575 0.584205
vt 0.835575 0.665795
vt 0.665159 0.666667
vt 0.641165 0.666667
vt 0.642908 0.584205
vt 0.641165 0.583333
vt 0.668765 0.665795
vt 0.665159 0.715921
vt 0.665158 0.584205
vt 0.668765 0.665795
vt 0.835575 0.665795
vt 0.665159 0.665795
vt 0.665159 0.584242
vt 0.665159 0.584239
vt 0.665159 0.665816
vt 0.665158 0.665826
vt 0.668765 0.584205
vt 0.664736 0.584306
vt 0.665159 0.665796
vt 0.665159 0.584205
vt 0.835575 0.585685
vt 0.857815 0.585684
vt 0.857815 0.664315
vt 0.835575 0.664315
vt 0.860036 0.584205
vt 0.665159 0.664116
vt 0.665158 0.664042
vt 0.665158 0.585958
vt 0.665158 0.585884
vt 0.665159 0.664281
vt 0.665159 0.664180
vt 0.665159 0.585819
vt 0.665159 0.585719
vt 0.665159 0.586066
vt 0.665159 0.663933
vt 0.645692 0.663933
vt 0.645692 0.586066
vt 0.665159 0.663990
vt 0.665159 0.663933
vt 0.665159 0.586067
vt 0.665159 0.586010
vt 0.665158 0.584205
vt 0.859882 0.665696
vt 0.859883 0.584304
vt 0.858925 0.665055
vt 0.858925 0.584945
vt 0.835539 0.584945
vt 0.835539 0.665055
vt 0.665085 0.664862
vt 0.644300 0.664864
vt 0.643100 0.665670
vt 0.644300 0.585136
vt 0.665085 0.585138
vt 0.643100 0.584330
vt 0.665158 0.585044
vt 0.665159 0.664956
vt 0.665159 0.584323
vt 0.665159 0.665677
vt 0.665159 0.664987
vt 0.665159 0.585013
vt 0.665159 0.665691
vt 0.665159 0.584309
vt 0.665159 0.585107
vt 0.665159 0.664893
vt 0.665159 0.584332
vt 0.665159 0.665668
vt 0.665159 0.664918
vt 0.665158 0.585082
vt 0.665159 0.665682
vt 0.665158 0.584317
vt 0.671989 0.585685
vt 0.671989 0.664315
vt 0.670377 0.665055
vt 0.670377 0.584945
vt 0.668982 0.665696
vt 0.668982 0.584304
vt 0.665159 0.584962
vt 0.665159 0.665038
vt 0.665159 0.584311
vt 0.665159 0.665689
vt 0.835575 0.585685
vt 0.835575 0.664315
vt 0.641165 0.583333
vt 0.638180 0.666667
vt 0.641165 0.583333
vt 0.646144 0.583333
vt 0.665640 0.723168
vt 0.830997 0.723448
vt 0.618999 0.779890
vt 0.623231 0.787392
vt 0.870227 0.750000
vt 0.839308 0.750000
vt 0.839308 0.500000
vt 0.870227 0.500000
vt 0.618481 0.777123
vt 0.619651 0.759744
vt 0.625000 0.766165
vt 0.625000 0.790159
vt 0.625000 0.459841
vt 0.625000 0.483835
vt 0.625000 0.500000
vt 0.625000 0.750000
vt 0.617780 0.750000
vt 0.618998 0.470111
vt 0.504582 0.469975
vt 0.664669 0.507258
vt 0.828018 0.507527
vt 0.316391 0.666667
vt 0.215080 0.666667
vt 0.174522 0.666667
vt 0.171576 0.666667
vt 0.359895 0.666667
vt 0.356949 0.666667
vt 0.830997 0.526551
vt 0.830147 0.500000
vt 0.665640 0.526832
vt 0.665159 0.500000
vt 0.828018 0.742473
vt 0.830147 0.750000
vt 0.664669 0.742742
vt 0.665159 0.750000
vt 0.623231 0.462608
vt 0.591289 0.462704
vt 0.591289 0.787296
vt 0.504582 0.780025
vt 0.470902 0.777165
vt 0.619128 0.469583
vt 0.510861 0.469444
vt 0.664627 0.508608
vt 0.827613 0.508954
vt 0.827613 0.741046
vt 0.664627 0.741392
vt 0.585005 0.463235
vt 0.622830 0.463135
vt 0.830139 0.525126
vt 0.665680 0.525485
vt 0.830139 0.724874
vt 0.665680 0.724515
vt 0.622830 0.786865
vt 0.619128 0.780417
vt 0.585005 0.786765
vt 0.510862 0.780556
vt 0.367046 0.654633
vt 0.374767 0.666667
vt 0.367046 0.662328
vt 0.367046 0.650175
vt 0.367046 0.642352
vt 0.367046 0.625000
vt 0.367046 0.607648
vt 0.367046 0.599824
vt 0.367046 0.587672
vt 0.374767 0.583333
vt 0.367046 0.653782
vt 0.585695 0.956357
vt 0.508804 1.000000
vt 0.375000 1.000000
vt 0.375000 0.960575
vt 0.375000 0.757954
vt 0.380355 0.750000
vt 0.215080 0.645833
vt 0.265735 0.645833
vt 0.215080 0.604167
vt 0.265735 0.604167
vt 0.265735 0.625000
vt 0.215080 0.625000
vt 0.171576 0.604167
vt 0.359895 0.604167
vt 0.356949 0.604167
vt 0.316391 0.604167
vt 0.215080 0.604167
vt 0.174522 0.604167
vt 0.316391 0.625000
vt 0.265735 0.583333
vt 0.215080 0.601936
vt 0.215088 0.601765
vt 0.367046 0.642352
vt 0.356949 0.645833
vt 0.316391 0.645833
vt 0.359895 0.645833
vt 0.171576 0.645833
vt 0.174522 0.645833
vt 0.215080 0.645833
vt 0.316391 0.645833
vt 0.356949 0.645833
vt 0.367046 0.661828
vt 0.171576 0.666667
vt 0.164425 0.661828
vt 0.164425 0.650676
vt 0.171576 0.645833
vt 0.367046 0.650676
vt 0.164425 0.588172
vt 0.171576 0.583333
vt 0.367046 0.588172
vt 0.367046 0.599324
vt 0.359895 0.604167
vt 0.171575 0.604167
vt 0.164425 0.599324
vt 0.164425 0.607648
vt 0.164425 0.625000
vt 0.356949 0.604167
vt 0.125000 0.583333
vt 0.138692 0.583333
vt 0.164425 0.587672
vt 0.164425 0.599824
vt 0.164425 0.642352
vt 0.164425 0.650175
vt 0.164425 0.662328
vt 0.138692 0.666667
vt 0.125000 0.666667
vt 0.215074 0.664265
vt 0.316397 0.664265
vt 0.374767 0.666667
vt 0.374767 0.583333
vt 0.367046 0.559116
vt 0.367046 0.500000
vt 0.215075 0.585735
vt 0.215080 0.585563
vt 0.164425 0.642352
vt 0.316391 0.648064
vt 0.138692 0.666667
vt 0.125000 0.750000
vt 0.316391 0.664437
vt 0.367046 0.559116
vt 0.356949 0.583333
vt 0.174522 0.583333
vt 0.164425 0.559116
vt 0.164425 0.500000
vt 0.316391 0.585563
vt 0.316391 0.601936
vt 0.215080 0.664437
vt 0.215080 0.648064
vt 0.316380 0.601764
vt 0.316398 0.585736
vt 0.164501 0.645833
vt 0.366969 0.604167
vt 0.164425 0.604147
vt 0.367046 0.645853
vt 0.125000 0.500000
vt 0.164425 0.559116
vt 0.138692 0.583333
vt 0.164425 0.592127
vt 0.164425 0.591276
vt 0.164425 0.658724
vt 0.164425 0.657873
vt 0.164425 0.654633
vt 0.164425 0.653782
vt 0.367046 0.595367
vt 0.367046 0.596218
vt 0.367046 0.591276
vt 0.367046 0.592127
vt 0.164425 0.595670
vt 0.164425 0.591823
vt 0.367046 0.594769
vt 0.367046 0.592724
vt 0.164425 0.594769
vt 0.367046 0.658176
vt 0.367046 0.657276
vt 0.164425 0.592724
vt 0.164425 0.658177
vt 0.164425 0.657276
vt 0.164425 0.655231
vt 0.164425 0.654330
vt 0.367046 0.595670
vt 0.367046 0.591823
vt 0.367046 0.654330
vt 0.367046 0.655231
s 0
usemtl M_Blanc
f 165/3/2 145/4/2 175/5/2 160/6/2 149/7/2 215/8/2 216/9/2 3/10/2 2/11/2 144/12/2
f 317/13/3 298/14/3 352/14/3 353/13/3
f 150/15/4 159/16/4 135/17/4 134/18/4 11/19/4
f 12/20/4 137/21/4 140/22/4 162/23/4 151/24/4
f 167/25/4 166/26/4 13/27/4 9/28/4
f 217/29/5 12/20/5 151/24/5 152/30/5 214/31/5
f 282/32/6 281/33/6 249/34/6 221/35/6 251/36/6 284/37/6 287/38/6 213/39/6 4/40/6
f 176/41/7 15/28/7 136/42/7 135/17/7 159/43/7
f 9/28/8 13/27/8 23/27/8 19/28/8
f 9/28/9 15/28/9 176/41/9 167/25/9
f 13/27/8 17/44/8 27/44/8 23/27/8
f 285/45/10 312/46/10 366/46/10 367/45/10
f 289/47/11 310/48/11 315/49/11 276/50/11 246/51/11 252/52/11 257/53/11 244/54/11
f 16/55/12 139/56/12 138/57/12 31/55/12
f 17/44/13 18/58/13 28/58/13 27/44/13
f 218/59/5 11/19/5 12/20/5 217/29/5
f 166/60/14 143/61/14 8/62/14 17/44/14 13/27/14
f 17/44/14 8/62/14 7/63/14 18/58/14
f 14/64/14 18/58/14 7/63/14 142/65/14 170/66/14
f 6/67/6 7/68/6 8/69/6 5/70/6
f 149/71/5 150/72/5 11/19/5 218/59/5 215/73/5
f 11/19/4 134/74/4 137/75/4 12/20/4
f 5/70/6 8/69/6 143/77/6 144/12/6 2/11/6
f 1/78/6 141/79/6 142/80/6 7/68/6 6/67/6
f 16/55/7 173/85/7 162/23/7 140/22/7 139/56/7
f 18/58/12 14/64/12 24/64/12 28/58/12
f 14/64/12 10/55/12 29/55/12 24/64/12
f 173/85/9 16/55/9 10/55/9 148/97/9
f 19/28/27 32/28/27 15/28/27 9/28/27
f 16/55/29 31/55/29 29/55/29 10/55/29
f 10/55/4 14/64/4 170/66/4 148/97/4
f 33/95/93 134/172/93 135/17/93 136/42/93
f 137/75/94 138/173/94 139/56/94 140/22/94
f 137/75/95 134/74/95 33/95/95 138/93/95
f 33/174/8 136/175/8 15/28/8 32/28/8
f 169/176/96 154/177/96 194/177/96 180/176/96
f 163/178/97 164/179/97 197/179/97 198/178/97
f 170/66/98 142/65/98 141/180/98 171/181/98
f 143/61/99 166/60/99 165/182/99 144/183/99
f 174/184/100 161/185/100 162/186/100 173/187/100
f 160/6/101 175/5/101 176/188/101 159/189/101
f 149/7/102 160/6/102 159/189/102 150/190/102
f 151/191/103 162/186/103 161/185/103 152/192/103
f 157/193/104 168/194/104 192/194/104 199/193/104
f 168/195/105 155/196/105 189/196/105 192/195/105
f 258/197/106 255/198/106 249/34/106 281/199/106 306/200/106 313/201/106 284/202/106 251/36/106
f 156/203/107 155/196/107 165/204/107 166/26/107
f 146/205/108 156/203/108 166/26/108 167/25/108
f 155/196/109 168/195/109 145/206/109 165/204/109
f 154/177/110 169/176/110 148/97/110 170/66/110
f 153/207/111 154/177/111 170/66/111 171/208/111
f 172/209/112 153/207/112 171/208/112 147/210/112
f 164/179/113 163/178/113 174/184/113 173/187/113
f 157/193/114 158/211/114 176/188/114 175/5/114
f 158/211/115 146/212/115 167/188/115 176/188/115
f 168/194/116 157/193/116 175/5/116 145/4/116
f 169/213/117 164/179/117 173/187/117 148/187/117
f 163/178/118 172/214/118 147/215/118 174/184/118
f 164/179/123 169/213/123 180/213/123 197/179/123
f 155/196/124 156/203/124 190/203/124 189/196/124
f 158/211/125 157/193/125 199/193/125 200/211/125
f 154/177/126 153/207/126 195/207/126 194/177/126
f 172/214/127 163/178/127 198/178/127 179/214/127
f 156/203/128 146/205/128 177/205/128 190/203/128
f 146/212/129 158/211/129 200/211/129 177/212/129
f 153/207/130 172/209/130 179/209/130 195/207/130
f 312/46/155 319/232/155 365/232/155 366/46/155
f 286/233/156 335/234/156 332/235/156 303/236/156 220/237/156 297/238/156 329/239/156 330/240/156 291/241/156 218/59/156 217/29/156
f 319/232/157 301/242/157 364/242/157 365/232/157
f 147/215/158 171/243/158 141/244/158 1/245/158 4/246/158 213/247/158 214/248/158 152/192/158 161/185/158 174/184/158
f 248/249/6 228/250/6 221/35/6 249/34/6
f 247/251/6 229/252/6 223/253/6 230/254/6
f 316/255/159 309/256/159 295/257/159 245/258/159 256/258/159 253/259/159 247/251/159 299/260/159
f 229/252/6 245/258/6 231/261/6 223/253/6
f 222/262/6 244/54/6 245/258/6 229/252/6
f 231/261/6 220/237/6 303/265/6 302/266/6 250/267/6
f 246/51/6 222/262/6 229/252/6 247/251/6
f 318/268/161 305/269/161 292/270/161 248/249/161 254/271/161 259/272/161 250/267/161 302/273/161
f 230/254/6 223/253/6 228/250/6 248/249/6
f 228/250/6 250/267/6 251/36/6 221/35/6
f 223/253/6 231/261/6 250/267/6 228/250/6
f 334/274/6 313/201/6 306/275/6 325/276/6 326/277/6 305/278/6 318/268/6 333/279/6
f 322/280/6 315/281/6 310/48/6 331/282/6 328/283/6 309/284/6 316/285/6 321/286/6
f 300/287/6 299/260/6 247/251/6 230/254/6 219/288/6
f 245/258/6 295/289/6 297/238/6 220/237/6 231/261/6
f 5/290/162 278/291/162 323/292/162 320/293/162 300/287/162 219/288/162 294/294/162 327/295/162 324/296/162 283/297/162 6/298/162
f 213/39/164 287/38/164 286/301/164 217/29/164 214/31/164
f 291/302/165 290/303/165 216/304/165 215/73/165 218/59/165
f 219/288/6 230/254/6 248/249/6 292/270/6 294/307/6
f 6/298/168 283/309/168 282/32/168 4/40/168 1/310/168
f 216/304/6 290/312/6 289/313/6 244/54/6 222/262/6 246/51/6 276/314/6 279/315/6 3/316/6
f 227/317/170 232/318/170 245/258/170 244/54/170
f 233/263/171 225/306/171 246/51/171 247/251/171
f 226/319/171 234/320/171 248/249/171 249/34/171
f 235/308/170 224/311/170 251/36/170 250/267/170
f 225/306/172 237/305/172 252/52/172 246/51/172
f 236/264/173 233/263/173 247/251/173 253/259/173
f 234/320/174 239/2/174 254/271/174 248/249/174
f 238/299/175 226/319/175 249/34/175 255/198/175
f 232/318/176 240/321/176 256/258/176 245/258/176
f 241/322/177 227/317/177 244/54/177 257/53/177
f 224/311/178 242/300/178 258/197/178 251/36/178
f 243/1/179 235/308/179 250/267/179 259/272/179
f 242/300/180 238/299/180 255/198/180 258/197/180
f 239/2/181 243/1/181 259/272/181 254/271/181
f 237/305/182 241/322/182 257/53/182 252/52/182
f 240/321/183 236/264/183 253/259/183 256/258/183
f 284/202/6 335/234/6 287/38/6
f 289/313/6 290/312/6 330/240/6
f 292/270/6 327/323/6 294/294/6
f 295/257/6 329/324/6 297/238/6
f 320/293/6 299/325/6 300/287/6
f 332/235/6 302/326/6 303/265/6
f 320/293/198 321/286/198 316/255/198 299/260/198
f 276/50/199 315/49/199 322/280/199 323/292/199
f 324/296/200 325/276/200 306/200/200 281/199/200
f 292/270/201 305/269/201 326/277/201 327/295/201
f 328/283/202 329/239/202 295/257/202 309/256/202
f 310/48/203 289/47/203 330/240/203 331/282/203
f 332/235/204 333/279/204 318/268/204 302/273/204
f 334/274/205 335/234/205 284/202/205 313/201/205
f 2/327/206 3/316/206 279/328/206 278/329/206 5/290/206
f 298/14/207 317/13/207 321/286/207 320/293/207
f 314/330/207 277/331/207 323/292/207 322/280/207
f 280/332/207 307/333/207 325/276/207 324/296/207
f 304/334/207 293/335/207 327/295/207 326/277/207
f 308/336/208 296/337/208 329/239/208 328/283/208
f 288/338/208 311/339/208 331/282/208 330/240/208
f 301/242/208 319/232/208 333/279/208 332/235/208
f 312/46/208 285/45/208 335/234/208 334/274/208
f 277/331/207 298/14/207 320/293/207 323/292/207
f 293/335/207 280/332/207 324/296/207 327/295/207
f 317/13/207 314/330/207 322/280/207 321/286/207
f 307/333/207 304/334/207 326/277/207 325/276/207
f 285/45/208 301/242/208 332/235/208 335/234/208
f 296/337/208 288/338/208 330/240/208 329/239/208
f 319/232/208 312/46/208 334/274/208 333/279/208
f 311/339/208 308/336/208 328/283/208 331/282/208
f 308/336/155 311/339/155 363/339/155 360/336/155
f 298/14/209 277/331/209 355/331/209 352/14/209
f 277/331/210 314/330/210 354/330/210 355/331/210
f 280/332/209 293/335/209 359/335/209 356/332/209
f 307/333/211 280/332/211 356/332/211 357/333/211
f 314/330/212 317/13/212 353/13/212 354/330/212
f 293/335/213 304/334/213 358/334/213 359/335/213
f 304/334/212 307/333/212 357/333/212 358/334/212
f 296/337/214 308/336/214 360/336/214 361/337/214
f 301/242/215 285/45/215 367/45/215 364/242/215
f 311/339/216 288/338/216 362/338/216 363/339/216
f 288/338/215 296/337/215 361/337/215 362/338/215
f 291/302/217 330/240/217 290/303/217
f 335/234/218 286/301/218 287/38/218
f 283/309/219 324/296/219 282/32/219
f 281/33/6 282/32/6 324/296/6
f 278/329/220 279/328/220 323/292/220
f 279/328/6 276/50/6 323/292/6
usemtl M_Noir_Profond
f 45/76/15 35/76/15 43/76/15
f 20/81/16 48/82/16 47/82/16 52/83/16
f 22/86/17 21/87/17 27/44/17 28/58/17
f 42/88/18 41/88/18 26/89/18
f 30/90/19 51/89/19 19/28/19 23/27/19
f 20/81/19 34/91/19 24/64/19 29/55/19
f 21/87/17 30/90/17 23/27/17 27/44/17
f 34/91/17 22/86/17 28/58/17 24/64/17
f 25/84/20 35/76/20 31/92/20 138/93/20
f 26/89/20 36/94/20 33/95/20 32/28/20
f 36/94/20 25/84/20 138/93/20 33/95/20
f 48/76/21 45/76/21 44/76/21 46/82/21
f 34/91/22 20/81/22 53/96/22
f 37/88/25 39/88/25 40/98/25 42/88/25
f 35/76/26 45/76/26 48/82/26 20/81/26 29/55/26 31/92/26
f 37/88/26 42/88/26 26/89/26 32/28/26 19/28/26 51/89/26
f 38/88/4 39/102/4 37/88/4
f 40/98/4 41/103/4 42/88/4
f 43/76/30 44/104/30 45/76/30
f 46/76/31 47/105/31 48/82/31
f 46/76/26 39/88/26 38/88/26 47/76/26
f 43/76/26 41/88/26 40/98/26 44/76/26
f 51/89/32 30/90/32 49/106/32
f 49/106/33 50/107/33 51/89/33
f 52/101/34 53/108/34 20/81/34
f 49/106/35 53/96/35 52/101/35 50/89/35
f 51/89/36 50/89/36 38/98/36 37/88/36
f 187/216/119 178/217/119 202/217/119 211/216/119
f 178/218/120 181/219/120 205/219/120 202/218/120
f 184/220/121 196/221/121 203/221/121 208/220/121
f 191/222/122 188/223/122 212/223/122 201/222/122
f 182/224/131 181/219/131 189/196/131 190/203/131
f 191/225/132 182/224/132 190/203/132 177/205/132
f 181/219/133 178/218/133 192/195/133 189/196/133
f 183/226/134 193/227/134 180/176/134 194/177/134
f 184/220/135 183/226/135 194/177/135 195/207/135
f 196/221/136 184/220/136 195/207/136 179/209/136
f 185/228/137 186/229/137 198/178/137 197/179/137
f 187/216/138 188/223/138 200/211/138 199/193/138
f 188/223/139 191/222/139 177/212/139 200/211/139
f 178/217/140 187/216/140 199/193/140 192/194/140
f 193/230/141 185/228/141 197/179/141 180/213/141
f 186/229/142 196/231/142 179/214/142 198/178/142
f 186/229/147 185/228/147 209/228/147 210/229/147
f 193/227/148 183/226/148 207/226/148 204/227/148
f 185/228/149 193/230/149 204/230/149 209/228/149
f 181/219/150 182/224/150 206/224/150 205/219/150
f 188/223/151 187/216/151 211/216/151 212/223/151
f 183/226/152 184/220/152 208/220/152 207/226/152
f 196/231/153 186/229/153 210/229/153 203/231/153
f 182/224/154 191/225/154 201/225/154 206/224/154
f 336/340/209 339/341/209 371/341/209 368/340/209
f 344/342/155 347/343/155 379/343/155 376/342/155
f 337/344/3 336/340/3 368/340/3 369/344/3
f 351/345/10 350/346/10 382/346/10 383/345/10
f 336/340/207 337/344/207 353/13/207 352/14/207
f 338/347/207 339/341/207 355/331/207 354/330/207
f 340/348/207 341/349/207 357/333/207 356/332/207
f 342/350/207 343/351/207 359/335/207 358/334/207
f 344/342/208 345/352/208 361/337/208 360/336/208
f 346/353/208 347/343/208 363/339/208 362/338/208
f 348/354/208 349/355/208 365/232/208 364/242/208
f 350/346/208 351/345/208 367/45/208 366/46/208
f 339/341/207 336/340/207 352/14/207 355/331/207
f 343/351/207 340/348/207 356/332/207 359/335/207
f 337/344/207 338/347/207 354/330/207 353/13/207
f 341/349/207 342/350/207 358/334/207 357/333/207
f 351/345/208 348/354/208 364/242/208 367/45/208
f 345/352/208 346/353/208 362/338/208 361/337/208
f 349/355/208 350/346/208 366/46/208 365/232/208
f 347/343/208 344/342/208 360/336/208 363/339/208
f 339/341/210 338/347/210 370/347/210 371/341/210
f 340/348/209 343/351/209 375/351/209 372/348/209
f 341/349/211 340/348/211 372/348/211 373/349/211
f 338/347/212 337/344/212 369/344/212 370/347/212
f 343/351/213 342/350/213 374/350/213 375/351/213
f 342/350/212 341/349/212 373/349/212 374/350/212
f 345/352/214 344/342/214 376/342/214 377/352/214
f 348/354/215 351/345/215 383/345/215 380/354/215
f 347/343/216 346/353/216 378/353/216 379/343/216
f 346/353/215 345/352/215 377/352/215 378/353/215
f 349/355/157 348/354/157 380/354/157 381/355/157
f 350/346/155 349/355/155 381/355/155 382/346/155
usemtl M_Orange
f 35/76/8 25/84/8 78/84/8 67/76/8
f 47/76/23 38/88/23 94/88/23 99/76/23
f 43/76/24 35/76/24 67/76/24 102/76/24
f 34/91/8 53/96/8 123/99/8 58/100/8
f 50/89/28 52/101/28 126/101/28 131/89/28
f 38/98/37 50/89/37 131/109/37 94/98/37
f 49/106/12 30/90/12 55/90/12 119/106/12
f 36/94/12 26/89/12 62/89/12 83/94/12
f 26/89/38 41/88/38 107/88/38 62/89/38
f 54/110/17 70/111/17 75/112/17 59/113/17
f 46/82/39 44/76/39 115/76/39 86/82/39
f 52/83/39 47/82/39 99/82/39 126/83/39
f 39/88/28 46/76/28 86/76/28 91/88/28
f 40/98/37 39/88/37 91/88/37 110/98/37
f 30/90/12 21/87/12 71/114/12 55/90/12
f 87/115/26 114/116/26 111/117/26 90/118/26
f 21/87/40 22/86/40 74/86/40 71/87/40
f 41/88/28 43/76/28 102/76/28 107/88/28
f 127/119/26 98/120/26 95/121/26 130/122/26
f 63/123/41 66/124/41 79/125/41 82/126/41
f 103/127/42 66/128/42 63/129/42 106/130/42
f 25/84/43 36/94/43 83/94/43 78/84/43
f 44/76/23 40/98/23 110/131/23 115/76/23
f 22/86/8 34/91/8 58/91/8 74/86/8
f 53/96/44 49/106/44 119/106/44 123/96/44
f 71/87/45 74/86/45 76/132/45 73/133/45
f 73/133/46 76/132/46 77/134/46 72/135/46
f 72/135/47 77/134/47 75/112/47 70/111/47
f 70/111/48 54/110/48 56/136/48 72/135/48
f 72/135/49 56/136/49 57/90/49 73/133/49
f 73/133/50 57/90/50 55/90/50 71/114/50
f 74/86/51 58/91/51 60/91/51 76/132/51
f 76/132/52 60/91/52 61/137/52 77/134/52
f 77/134/53 61/137/53 59/113/53 75/112/53
f 79/125/54 66/124/54 68/138/54 81/139/54
f 81/139/55 68/138/55 69/76/55 80/140/55
f 80/140/56 69/76/56 67/76/56 78/84/56
f 63/123/57 82/126/57 84/141/57 65/142/57
f 65/142/58 84/141/58 85/143/58 64/88/58
f 64/88/59 85/143/59 83/94/59 62/89/59
f 78/84/60 83/94/60 85/143/60 80/140/60
f 80/140/61 85/143/61 84/141/61 81/139/61
f 81/139/62 84/141/62 82/126/62 79/125/62
f 87/115/63 90/118/63 92/144/63 89/145/63
f 89/145/64 92/144/64 93/146/64 88/147/64
f 88/147/65 93/146/65 91/88/65 86/76/65
f 95/121/66 98/120/66 100/148/66 97/149/66
f 97/149/67 100/148/67 101/150/67 96/151/67
f 96/151/68 101/150/68 99/76/68 94/88/68
f 103/127/69 106/130/69 108/152/69 105/153/69
f 105/153/70 108/152/70 109/154/70 104/155/70
f 104/155/71 109/154/71 107/88/71 102/76/71
f 111/117/66 114/116/66 116/156/66 113/157/66
f 113/157/67 116/156/67 117/158/67 112/159/67
f 112/159/68 117/158/68 115/76/68 110/131/68
f 90/118/72 111/117/72 113/157/72 92/144/72
f 92/144/73 113/157/73 112/159/73 93/146/73
f 93/146/74 112/159/74 110/98/74 91/88/74
f 86/82/75 115/76/75 117/158/75 88/147/75
f 88/147/76 117/158/76 116/156/76 89/145/76
f 89/145/77 116/156/77 114/116/77 87/115/77
f 102/76/78 67/76/78 69/76/78 104/155/78
f 104/155/79 69/76/79 68/138/79 105/153/79
f 105/153/80 68/138/80 66/128/80 103/127/80
f 62/89/81 107/88/81 109/154/81 64/88/81
f 64/88/82 109/154/82 108/152/82 65/142/82
f 65/142/83 108/152/83 106/130/83 63/129/83
f 118/160/84 122/161/84 124/162/84 120/163/84
f 120/163/85 124/162/85 125/164/85 121/165/85
f 121/165/86 125/164/86 123/96/86 119/106/86
f 127/119/63 130/122/63 132/166/63 129/167/63
f 129/167/64 132/166/64 133/168/64 128/169/64
f 128/169/65 133/168/65 131/89/65 126/101/65
f 130/122/72 95/121/72 97/149/72 132/166/72
f 132/166/73 97/149/73 96/151/73 133/168/73
f 133/168/74 96/151/74 94/98/74 131/109/74
f 54/170/87 118/160/87 120/163/87 56/136/87
f 56/136/88 120/163/88 121/165/88 57/90/88
f 57/90/89 121/165/89 119/106/89 55/90/89
f 126/83/75 99/82/75 101/150/75 128/169/75
f 128/169/76 101/150/76 100/148/76 129/167/76
f 129/167/77 100/148/77 98/120/77 127/119/77
f 58/100/90 123/99/90 125/164/90 60/91/90
f 60/91/91 125/164/91 124/162/91 61/137/91
f 61/137/92 124/162/92 122/161/92 59/171/92
f 118/160/19 54/170/19 59/171/19 122/161/19
usemtl M_Cyan
f 206/224/143 201/225/143 202/218/143 205/219/143
f 204/227/144 207/226/144 208/220/144 203/221/144
f 201/222/145 212/223/145 211/216/145 202/217/145
f 209/228/146 204/230/146 203/231/146 210/229/146
f 368/340/207 371/341/207 370/347/207 369/344/207
f 372/348/207 375/351/207 374/350/207 373/349/207
f 378/353/208 377/352/208 376/342/208 379/343/208
f 380/354/208 383/345/208 382/346/208 381/355/208
usemtl M_Noir_Bleuté
f 243/1/1 239/2/1 263/2/1 266/1/1
f 233/263/160 236/264/160 260/264/160 271/263/160
f 238/299/163 242/300/163 267/300/163 262/299/163
f 237/305/166 225/306/166 270/306/166 261/305/166
f 235/308/167 243/1/167 266/1/167 274/308/167
f 224/311/169 235/308/169 274/308/169 275/311/169
f 261/305/184 260/264/184 265/321/184 264/322/184
f 267/300/185 266/1/185 263/2/185 262/299/185
f 270/306/186 271/263/186 260/264/186 261/305/186
f 272/320/187 273/319/187 262/299/187 263/2/187
f 269/318/188 268/317/188 264/322/188 265/321/188
f 275/311/189 274/308/189 266/1/189 267/300/189
f 239/2/190 234/320/190 272/320/190 263/2/190
f 241/322/191 237/305/191 261/305/191 264/322/191
f 226/319/192 238/299/192 262/299/192 273/319/192
f 232/318/169 227/317/169 268/317/169 269/318/169
f 236/264/193 240/321/193 265/321/193 260/264/193
f 240/321/194 232/318/194 269/318/194 265/321/194
f 225/306/195 233/263/195 271/263/195 270/306/195
f 227/317/196 241/322/196 264/322/196 268/317/196
f 234/320/195 226/319/195 273/319/195 272/320/195
f 242/300/197 224/311/197 275/311/197 267/300/197
