# Blender 4.2.3 LTS
# www.blender.org
mtllib SM_UtilityTable.mtl
o SM_UtilityTable
v -0.160621 0.648165 0.570584
v -0.160621 0.648165 0.642750
v 0.160621 0.648165 0.642750
v 0.160621 0.648165 0.570584
v -0.160621 0.648165 -0.642750
v -0.160621 0.648165 -0.570584
v 0.160621 0.648165 -0.570584
v 0.160621 0.648165 -0.642750
v -0.160621 0.001135 0.652609
v -0.160621 0.001135 0.560725
v 0.160621 0.001135 0.652609
v 0.160621 0.001135 0.560725
v -0.160621 0.001135 -0.652609
v -0.160621 0.001135 -0.560725
v 0.160621 0.001135 -0.652609
v 0.160621 0.001135 -0.560725
v 0.160621 0.049957 0.642750
v 0.160621 0.049957 0.570584
v -0.160621 0.049957 0.642750
v -0.160621 0.049957 0.570584
v -0.160621 0.049957 -0.642750
v -0.160621 0.049957 -0.570584
v 0.160621 0.049957 -0.570584
v 0.160621 0.049957 -0.642750
v 0.289871 0.658024 -0.560725
v 0.289871 0.658024 -0.652609
v 0.289871 0.658024 0.652609
v 0.289871 0.658024 0.560725
v -0.289871 0.658024 0.560725
v -0.289871 0.658024 0.652609
v -0.289871 0.658024 -0.652609
v -0.289871 0.658024 -0.560725
v 0.160621 0.658024 0.689871
v 0.239379 0.658024 0.689871
v -0.239379 0.658024 0.689871
v -0.160621 0.658024 0.689871
v -0.160621 0.658024 -0.689871
v -0.239379 0.658024 -0.689871
v 0.239379 0.658024 -0.689871
v 0.160621 0.658024 -0.689871
v -0.285800 0.750000 0.676943
v -0.300000 0.713611 0.672858
v -0.276943 0.750000 0.685800
v -0.282825 0.739871 0.700000
v -0.276943 0.750000 -0.685800
v -0.282825 0.739871 -0.700000
v -0.285800 0.750000 -0.676943
v -0.300000 0.713611 -0.672858
v 0.276943 0.750000 0.685800
v 0.282825 0.739871 0.700000
v 0.285800 0.750000 0.676943
v 0.300000 0.713611 0.672858
v 0.285800 0.750000 -0.676943
v 0.300000 0.713611 -0.672858
v 0.276943 0.750000 -0.685800
v 0.282825 0.739871 -0.700000
v -0.278629 0.658024 0.689871
v -0.278488 0.672489 0.700000
v -0.289871 0.658024 0.678629
v -0.300000 0.668153 0.682825
v -0.289871 0.658024 -0.678629
v -0.300000 0.668153 -0.682825
v -0.278629 0.658024 -0.689871
v -0.278488 0.672489 -0.700000
v 0.278629 0.658024 -0.689871
v 0.278488 0.672489 -0.700000
v 0.289871 0.658024 -0.678629
v 0.300000 0.668153 -0.682825
v 0.289871 0.658024 0.678629
v 0.300000 0.668153 0.682825
v 0.278629 0.658024 0.689871
v 0.278488 0.672489 0.700000
v 0.282825 0.686993 -0.700000
v 0.278488 0.679219 -0.700000
v -0.282825 0.686993 -0.700000
v -0.278488 0.679219 -0.700000
v -0.282825 0.686993 0.700000
v -0.278488 0.679219 0.700000
v 0.282825 0.686993 0.700000
v 0.278488 0.679219 0.700000
v -0.300000 0.683556 -0.682825
v -0.300000 0.691057 -0.672858
v -0.300000 0.683556 0.682825
v -0.300000 0.691057 0.672858
v 0.300000 0.683556 0.682825
v 0.300000 0.691057 0.672858
v 0.300000 0.691057 -0.672858
v 0.300000 0.683556 -0.682825
v -0.280818 0.686993 -0.695155
v -0.280818 0.683556 -0.695155
v -0.295155 0.683556 -0.680818
v -0.295155 0.686993 -0.680818
v -0.295155 0.683556 0.680818
v -0.295155 0.686993 0.680818
v 0.280818 0.686993 -0.695155
v 0.280818 0.683556 -0.695155
v 0.280818 0.686993 0.695155
v 0.280818 0.683556 0.695155
v 0.295155 0.683556 0.680818
v 0.295155 0.686993 0.680818
v -0.280818 0.686993 0.695155
v -0.280818 0.683556 0.695155
v 0.295155 0.686993 -0.680818
v 0.295155 0.683556 -0.680818
v 0.276103 0.750000 -0.672926
v 0.272926 0.750000 -0.676103
v -0.272926 0.750000 -0.676103
v -0.276103 0.750000 -0.672926
v -0.276103 0.750000 0.672926
v -0.272926 0.750000 0.676103
v 0.272926 0.750000 0.676103
v 0.276103 0.750000 0.672926
v -0.278629 0.750000 0.689871
v -0.289871 0.750000 0.678629
v -0.289871 0.750000 -0.678629
v -0.278629 0.750000 -0.689871
v 0.278629 0.750000 -0.689871
v 0.289871 0.750000 -0.678629
v 0.289871 0.750000 0.678629
v 0.278629 0.750000 0.689871
v 0.271240 0.750000 -0.672033
v 0.272033 0.750000 -0.671240
v 0.272033 0.750000 0.671240
v -0.271240 0.750000 -0.672033
v -0.272033 0.750000 -0.671240
v -0.272033 0.750000 0.671240
v -0.271240 0.750000 0.672033
v 0.271240 0.750000 0.672033
v 0.276103 0.749520 -0.672926
v 0.285800 0.749520 -0.676943
v 0.276943 0.749520 -0.685800
v 0.272926 0.749520 -0.676103
v -0.276943 0.749520 -0.685800
v -0.272926 0.749520 -0.676103
v -0.285800 0.749520 -0.676943
v -0.276103 0.749520 -0.672926
v -0.285800 0.749520 0.676943
v -0.276103 0.749520 0.672926
v -0.276943 0.749520 0.685800
v -0.272926 0.749520 0.676103
v 0.276943 0.749520 0.685800
v 0.272926 0.749520 0.676103
v 0.285800 0.749520 0.676943
v 0.276103 0.749520 0.672926
v 0.282825 0.668153 0.700000
v -0.282825 0.668153 0.700000
v -0.282825 0.668153 -0.700000
v 0.282825 0.668153 -0.700000
v 0.282825 0.683556 -0.700000
v -0.282825 0.683556 -0.700000
v -0.282825 0.683556 0.700000
v 0.282825 0.683556 0.700000
v 0.277419 0.673559 0.699335
v -0.277419 0.673559 0.699335
v -0.277419 0.673559 -0.699335
v 0.277419 0.673559 -0.699335
v 0.277419 0.678149 -0.699335
v -0.277419 0.678149 -0.699335
v -0.277419 0.678149 0.699335
v 0.277419 0.678149 0.699335
v 0.278488 0.672489 0.699335
v -0.278488 0.672489 0.699335
v -0.278488 0.672489 -0.699335
v 0.278488 0.672489 -0.699335
v 0.278488 0.679219 -0.699335
v -0.278488 0.679219 -0.699335
v -0.278488 0.679219 0.699335
v 0.278488 0.679219 0.699335
v 0.277419 0.673559 0.698891
v -0.277419 0.673559 0.698891
v -0.277419 0.673559 -0.698891
v 0.277419 0.673559 -0.698891
v 0.277419 0.678149 -0.698891
v -0.277419 0.678149 -0.698891
v -0.277419 0.678149 0.698891
v 0.277419 0.678149 0.698891
v -0.239379 0.658024 0.637973
v -0.224743 0.658024 0.652609
v -0.239379 0.658024 0.667244
v -0.254014 0.658024 0.652609
v -0.224743 0.658024 0.560725
v -0.239379 0.658024 0.575360
v -0.254014 0.658024 0.560725
v -0.239379 0.658024 0.546089
v 0.224743 0.658024 0.652609
v 0.239379 0.658024 0.637973
v 0.254014 0.658024 0.652609
v 0.239379 0.658024 0.667244
v 0.239379 0.658024 0.575360
v 0.224743 0.658024 0.560725
v 0.239379 0.658024 0.546089
v 0.254014 0.658024 0.560725
v -0.224743 0.658024 -0.652609
v -0.239379 0.658024 -0.637973
v -0.254014 0.658024 -0.652609
v -0.239379 0.658024 -0.667244
v -0.239379 0.658024 -0.575360
v -0.224743 0.658024 -0.560725
v -0.239379 0.658024 -0.546089
v -0.254014 0.658024 -0.560725
v 0.239379 0.658024 -0.637973
v 0.224743 0.658024 -0.652609
v 0.239379 0.658024 -0.667244
v 0.254014 0.658024 -0.652609
v 0.224743 0.658024 -0.560725
v 0.239379 0.658024 -0.575360
v 0.254014 0.658024 -0.560725
v 0.239379 0.658024 -0.546089
v -0.224743 0.001135 0.652609
v -0.239379 0.001135 0.637973
v -0.239379 0.001135 0.575360
v -0.224743 0.001135 0.560725
v 0.224743 0.001135 0.560725
v 0.239379 0.001135 0.575360
v 0.239379 0.001135 0.637973
v 0.224743 0.001135 0.652609
v -0.224743 0.001135 -0.560725
v -0.239379 0.001135 -0.575360
v -0.239379 0.001135 -0.637973
v -0.224743 0.001135 -0.652609
v 0.224743 0.001135 -0.652609
v 0.239379 0.001135 -0.637973
v 0.239379 0.001135 -0.575360
v 0.224743 0.001135 -0.560725
v 0.239379 0.049957 0.637973
v 0.224743 0.049957 0.652609
v 0.239379 0.049957 0.575360
v 0.224743 0.049957 0.560725
v -0.224743 0.049957 0.652609
v -0.239379 0.049957 0.637973
v -0.239379 0.049957 0.575360
v -0.224743 0.049957 0.560725
v -0.224743 0.049957 -0.560725
v -0.239379 0.049957 -0.575360
v -0.239379 0.049957 -0.637973
v -0.224743 0.049957 -0.652609
v 0.224743 0.049957 -0.652609
v 0.239379 0.049957 -0.637973
v 0.239379 0.049957 -0.575360
v 0.224743 0.049957 -0.560725
v -0.160621 0.658024 0.560725
v -0.160621 0.658024 0.652609
v 0.160621 0.658024 0.652609
v 0.160621 0.658024 0.560725
v -0.160621 0.658024 -0.652609
v -0.160621 0.658024 -0.560725
v 0.160621 0.658024 -0.560725
v 0.160621 0.658024 -0.652609
v 0.160621 0.049957 0.652609
v 0.160621 0.049957 0.560725
v -0.160621 0.049957 0.560725
v -0.160621 0.049957 0.652609
v 0.160621 0.049957 -0.652609
v 0.160621 0.049957 -0.560725
v -0.160621 0.049957 -0.560725
v -0.160621 0.049957 -0.652609
v 0.153934 0.056644 0.570584
v 0.153934 0.056644 0.642750
v -0.153934 0.056644 0.642750
v -0.153934 0.056644 0.570584
v -0.153883 0.056592 -0.570584
v -0.153883 0.056592 -0.642750
v 0.153986 0.056695 -0.642750
v 0.153986 0.056695 -0.570584
v -0.151165 0.648165 0.570584
v -0.151165 0.648165 0.642750
v 0.151165 0.648165 0.642750
v 0.151165 0.648165 0.570584
v -0.151165 0.648165 -0.642750
v -0.151165 0.648165 -0.570584
v 0.151165 0.648165 -0.570584
v 0.151165 0.648165 -0.642750
v -0.194613 0.658024 -0.565249
v -0.190752 0.658024 -0.565249
v -0.190752 0.004334 -0.563924
v -0.194613 0.004334 -0.563924
v -0.194613 0.049957 -0.565249
v -0.190752 0.049957 -0.565249
v 0.194613 0.004334 -0.563924
v 0.190752 0.004334 -0.563924
v 0.194613 0.049957 -0.565249
v 0.190752 0.049957 -0.565249
v 0.190752 0.658024 -0.565249
v 0.194613 0.658024 -0.565249
v -0.190752 0.658024 -0.648084
v -0.194613 0.658024 -0.648084
v -0.194613 0.004334 -0.649410
v -0.190752 0.004334 -0.649410
v -0.190752 0.049957 -0.648084
v -0.194613 0.049957 -0.648084
v 0.190752 0.004334 -0.649410
v 0.194613 0.004334 -0.649410
v 0.190752 0.049957 -0.648084
v 0.194613 0.049957 -0.648084
v 0.194613 0.658024 -0.648084
v 0.190752 0.658024 -0.648084
v 0.194613 0.049957 0.648084
v 0.190752 0.049957 0.648084
v 0.190752 0.004334 0.649410
v 0.194613 0.004334 0.649410
v 0.194613 0.658024 0.648084
v 0.190752 0.658024 0.648084
v -0.190752 0.658024 0.648084
v -0.194613 0.658024 0.648084
v -0.194613 0.049957 0.648084
v -0.190752 0.049957 0.648084
v -0.194613 0.004334 0.649410
v -0.190752 0.004334 0.649410
v 0.190752 0.658024 0.565249
v 0.194613 0.658024 0.565249
v 0.194613 0.049957 0.565249
v 0.190752 0.049957 0.565249
v 0.194613 0.004334 0.563924
v 0.190752 0.004334 0.563924
v -0.194613 0.658024 0.565249
v -0.190752 0.658024 0.565249
v -0.190752 0.049957 0.565249
v -0.194613 0.049957 0.565249
v -0.190752 0.004334 0.563924
v -0.194613 0.004334 0.563924
v 0.197413 0.658024 -0.652609
v 0.194613 0.658024 -0.649808
v 0.191812 0.658024 -0.652609
v 0.190752 0.658024 -0.649808
v 0.187951 0.658024 -0.652609
v 0.193552 0.658024 -0.652609
v 0.197413 0.049957 -0.652609
v 0.194613 0.049957 -0.649808
v 0.190752 0.049957 -0.649808
v 0.187951 0.049957 -0.652609
v 0.197413 0.001135 -0.652609
v 0.194613 0.003936 -0.649808
v 0.190752 0.003936 -0.649808
v 0.187951 0.001135 -0.652609
v -0.187951 0.658024 -0.652609
v -0.190752 0.658024 -0.649808
v -0.193552 0.658024 -0.652609
v -0.194613 0.658024 -0.649808
v -0.197413 0.658024 -0.652609
v -0.191812 0.658024 -0.652609
v -0.197413 0.049957 -0.652609
v -0.194613 0.049957 -0.649808
v -0.190752 0.049957 -0.649808
v -0.187951 0.049957 -0.652609
v -0.187951 0.001135 -0.652609
v -0.190752 0.003936 -0.649808
v -0.194613 0.003936 -0.649808
v -0.197413 0.001135 -0.652609
v 0.187951 0.658024 -0.560725
v 0.190752 0.658024 -0.563525
v 0.193552 0.658024 -0.560725
v 0.194613 0.658024 -0.563525
v 0.197413 0.658024 -0.560725
v 0.191812 0.658024 -0.560725
v 0.187951 0.049957 -0.560725
v 0.190752 0.049957 -0.563525
v 0.194613 0.049957 -0.563525
v 0.197413 0.049957 -0.560725
v 0.187951 0.001135 -0.560725
v 0.190752 0.003936 -0.563525
v 0.194613 0.003936 -0.563525
v 0.197413 0.001135 -0.560725
v -0.197413 0.658024 -0.560725
v -0.194613 0.658024 -0.563525
v -0.191812 0.658024 -0.560725
v -0.190752 0.658024 -0.563525
v -0.187951 0.658024 -0.560725
v -0.193552 0.658024 -0.560725
v -0.187951 0.049957 -0.560725
v -0.190752 0.049957 -0.563525
v -0.194613 0.049957 -0.563525
v -0.197413 0.049957 -0.560725
v -0.197413 0.001135 -0.560725
v -0.194613 0.003936 -0.563525
v -0.190752 0.003936 -0.563525
v -0.187951 0.001135 -0.560725
v 0.187951 0.658024 0.652609
v 0.190752 0.658024 0.649808
v 0.193552 0.658024 0.652609
v 0.194613 0.658024 0.649808
v 0.197413 0.658024 0.652609
v 0.191812 0.658024 0.652609
v 0.197413 0.049957 0.652609
v 0.194613 0.049957 0.649808
v 0.190752 0.049957 0.649808
v 0.187951 0.049957 0.652609
v 0.187951 0.001135 0.652609
v 0.190752 0.003936 0.649808
v 0.194613 0.003936 0.649808
v 0.197413 0.001135 0.652609
v -0.197413 0.658024 0.652609
v -0.194613 0.658024 0.649808
v -0.191812 0.658024 0.652609
v -0.190752 0.658024 0.649808
v -0.187951 0.658024 0.652609
v -0.193552 0.658024 0.652609
v -0.197413 0.049957 0.652609
v -0.194613 0.049957 0.649808
v -0.190752 0.049957 0.649808
v -0.187951 0.049957 0.652609
v -0.197413 0.001135 0.652609
v -0.194613 0.003936 0.649808
v -0.190752 0.003936 0.649808
v -0.187951 0.001135 0.652609
v 0.197413 0.658024 0.560725
v 0.194613 0.658024 0.563525
v 0.191812 0.658024 0.560725
v 0.190752 0.658024 0.563525
v 0.187951 0.658024 0.560725
v 0.193552 0.658024 0.560725
v 0.197413 0.049957 0.560725
v 0.194613 0.049957 0.563525
v 0.190752 0.049957 0.563525
v 0.187951 0.049957 0.560725
v 0.197413 0.001135 0.560725
v 0.194613 0.003936 0.563525
v 0.190752 0.003936 0.563525
v 0.187951 0.001135 0.560725
v -0.187951 0.658024 0.560725
v -0.190752 0.658024 0.563525
v -0.193552 0.658024 0.560725
v -0.194613 0.658024 0.563525
v -0.197413 0.658024 0.560725
v -0.191812 0.658024 0.560725
v -0.187951 0.049957 0.560725
v -0.190752 0.049957 0.563525
v -0.194613 0.049957 0.563525
v -0.197413 0.049957 0.560725
v -0.187951 0.001135 0.560725
v -0.190752 0.003936 0.563525
v -0.194613 0.003936 0.563525
v -0.197413 0.001135 0.560725
v -0.300000 0.739871 -0.682825
v -0.300000 0.739871 0.682825
v 0.300000 0.739871 0.682825
v 0.300000 0.739871 -0.682825
v -0.300000 0.686993 0.682825
v -0.300000 0.686993 -0.682825
v 0.300000 0.686993 -0.682825
v 0.300000 0.686993 0.682825
v -0.299219 0.713611 -0.672858
v -0.299219 0.713611 0.672858
v 0.299219 0.713611 0.672858
v 0.299219 0.713611 -0.672858
v -0.299219 0.691057 0.672858
v -0.299219 0.691057 -0.672858
v 0.299219 0.691057 -0.672858
v 0.299219 0.691057 0.672858
vn -0.0000 -1.0000 -0.0000
vn -0.7071 -0.0000 0.7071
vn 1.0000 -0.0000 -0.0000
vn -0.0000 -0.0000 -1.0000
vn -1.0000 -0.0000 -0.0000
vn 0.7071 -0.0000 -0.7071
vn -0.0000 -0.0000 1.0000
vn -0.0000 1.0000 -0.0000
vn -0.7071 -0.0000 -0.7071
vn 0.7071 -0.7071 -0.0000
vn -0.7071 -0.7071 -0.0000
vn -0.0000 -0.7071 0.7071
vn -0.0000 -0.7071 -0.7071
vn 0.7071 -0.0000 0.7071
vn -0.5000 -0.7071 0.5000
vn -0.5000 0.7071 0.5000
vn -0.5000 0.7071 -0.5000
vn -0.5000 -0.7071 -0.5000
vn 0.5000 0.7071 -0.5000
vn 0.5000 -0.7071 -0.5000
vn 0.5000 0.7071 0.5000
vn 0.5000 -0.7071 0.5000
vn -0.0000 0.7071 0.7071
vn -0.7071 0.7071 -0.0000
vn 0.7071 0.7071 -0.0000
vn -0.0000 0.7071 -0.7071
vn -0.0000 -0.0001 1.0000
vn -0.0000 -0.0001 -1.0000
vn -0.0000 0.0001 -1.0000
vn -0.0000 0.0001 1.0000
vn -0.0003 1.0000 -0.0000
vn -1.0000 -0.0047 -0.0000
vn 1.0000 -0.0047 -0.0000
vn 1.0000 -0.0046 -0.0000
vn -1.0000 -0.0048 -0.0000
vn -0.0000 0.0290 -0.9996
vn -0.0000 0.0290 0.9996
vt 0.598286 0.452599
vt 0.598286 0.297401
vt 0.598286 0.318748
vt 0.598286 0.431252
vt 0.604888 0.000000
vt 0.622058 0.000000
vt 0.622058 0.004418
vt 0.604888 0.012303
vt 0.598286 0.505825
vt 0.601228 0.513984
vt 0.604018 0.512703
vt 0.604018 0.737297
vt 0.601228 0.736016
vt 0.618822 0.742375
vt 0.608124 0.737499
vt 0.601228 0.000000
vt 0.604018 0.000000
vt 0.604018 0.012703
vt 0.601228 0.013984
vt 0.598286 0.478891
vt 0.598286 0.496888
vt 0.598286 0.496888
vt 0.598286 0.478891
vt 0.598286 0.309202
vt 0.598286 0.309202
vt 0.598286 0.180962
vt 0.598286 0.198958
vt 0.598286 0.238822
vt 0.598286 0.238822
vt 0.622058 0.504418
vt 0.604888 0.512303
vt 0.604888 0.487456
vt 0.622058 0.492055
vt 0.598286 0.443489
vt 0.598286 0.443489
vt 0.598286 0.292028
vt 0.598286 0.292028
vt 0.598286 0.493271
vt 0.598286 0.511178
vt 0.598286 0.288605
vt 0.598286 0.306511
vt 0.598286 0.288605
vt 0.598286 0.296172
vt 0.598286 0.296172
vt 0.598286 0.253112
vt 0.598286 0.271109
vt 0.598286 0.253112
vt 0.598286 0.551042
vt 0.598286 0.569038
vt 0.598286 0.464050
vt 0.598286 0.285950
vt 0.598286 0.330199
vt 0.598286 0.419801
vt 0.598286 0.644015
vt 0.598286 0.575004
vt 0.598286 0.546238
vt 0.598286 0.501691
vt 0.598286 0.521711
vt 0.598286 0.572220
vt 0.598286 0.203762
vt 0.598286 0.174996
vt 0.598286 0.105984
vt 0.598286 0.177780
vt 0.598286 0.228290
vt 0.598286 0.248309
vt 0.598286 0.472965
vt 0.598286 0.277035
vt 0.604888 0.762544
vt 0.622058 0.757945
vt 0.622058 0.992056
vt 0.604888 0.987456
vt 0.598286 0.339114
vt 0.598286 0.410886
vt 0.598286 0.156940
vt 0.598286 0.061233
vt 0.598286 0.043223
vt 0.598286 0.064778
vt 0.598286 0.144298
vt 0.598286 0.168972
vt 0.598286 0.256729
vt 0.598286 0.256729
vt 0.598286 0.457972
vt 0.598286 0.440798
vt 0.598286 0.488651
vt 0.598286 0.421030
vt 0.598286 0.328970
vt 0.598286 0.457972
vt 0.598286 0.457972
vt 0.598286 0.440798
vt 0.598286 0.308463
vt 0.598286 0.307250
vt 0.598286 0.156940
vt 0.598286 0.168972
vt 0.598286 0.197047
vt 0.598286 0.234939
vt 0.598286 0.242705
vt 0.598286 0.240292
vt 0.598286 0.248058
vt 0.598286 0.461396
vt 0.598286 0.461396
vt 0.598286 0.453828
vt 0.598286 0.453828
vt 0.598286 0.706777
vt 0.598286 0.688767
vt 0.598286 0.593060
vt 0.598286 0.581028
vt 0.598286 0.605702
vt 0.598286 0.685222
vt 0.598286 0.261349
vt 0.598286 0.261349
vt 0.598286 0.174996
vt 0.598286 0.144298
vt 0.598286 0.064778
vt 0.598286 0.319977
vt 0.598286 0.430023
vt 0.598286 0.462821
vt 0.598286 0.462821
vt 0.598286 0.283098
vt 0.598286 0.258988
vt 0.598286 0.218987
vt 0.598286 0.240541
vt 0.598286 0.260004
vt 0.598286 0.295131
vt 0.598286 0.218987
vt 0.598286 0.228290
vt 0.598286 0.492002
vt 0.598286 0.489920
vt 0.598286 0.289545
vt 0.598286 0.291088
vt 0.598286 0.491012
vt 0.598286 0.531013
vt 0.598286 0.419801
vt 0.636653 0.505136
vt 0.636983 0.504994
vt 0.863017 0.504994
vt 0.863347 0.505136
vt 0.863347 0.744864
vt 0.863017 0.745006
vt 0.636983 0.745006
vt 0.636653 0.744864
vt 0.601228 0.013984
vt 0.604018 0.237297
vt 0.601228 0.236016
vt 0.622058 0.257945
vt 0.604888 0.262544
vt 0.604888 0.237697
vt 0.622058 0.245582
vt 0.598286 0.644016
vt 0.598286 0.685222
vt 0.598286 0.605702
vt 0.598286 0.509459
vt 0.604018 0.262777
vt 0.601228 0.263525
vt 0.601228 0.236016
vt 0.604888 0.262544
vt 0.622058 0.257945
vt 0.622058 0.492055
vt 0.604888 0.487456
vt 0.598286 0.707062
vt 0.598286 0.042938
vt 0.601228 0.513984
vt 0.601228 0.486475
vt 0.604018 0.487223
vt 0.598286 0.489996
vt 0.598286 0.454869
vt 0.598286 0.339114
vt 0.601228 0.263525
vt 0.601228 0.486475
vt 0.622058 0.757945
vt 0.604888 0.762544
vt 0.604888 0.737696
vt 0.622058 0.745582
vt 0.598286 0.015335
vt 0.866095 0.748191
vt 0.870779 0.746184
vt 0.875000 0.746933
vt 0.867844 0.750000
vt 0.870779 0.503816
vt 0.866095 0.501809
vt 0.867844 0.500000
vt 0.875000 0.503067
vt 0.633905 0.501809
vt 0.629221 0.503816
vt 0.625000 0.503067
vt 0.632156 0.500000
vt 0.629221 0.746184
vt 0.633905 0.748191
vt 0.632156 0.750000
vt 0.625000 0.746933
vt 0.598286 0.734665
vt 0.618822 0.007625
vt 0.618822 0.242375
vt 0.622058 0.745582
vt 0.622058 0.504418
vt 0.602014 0.765028
vt 0.603233 0.764704
vt 0.604018 0.762777
vt 0.601228 0.763525
vt 0.601228 0.736016
vt 0.598286 0.466902
vt 0.604018 0.987223
vt 0.602014 0.984972
vt 0.604888 0.012303
vt 0.604888 0.237697
vt 0.604888 0.512303
vt 0.604888 0.737697
vt 0.865043 0.504835
vt 0.863719 0.504267
vt 0.634607 0.747464
vt 0.630917 0.745883
vt 0.636281 0.504267
vt 0.630917 0.504117
vt 0.634607 0.502536
vt 0.634957 0.504835
vt 0.634957 0.745165
vt 0.865393 0.502536
vt 0.869083 0.504117
vt 0.636281 0.745733
vt 0.865393 0.747464
vt 0.869083 0.745883
vt 0.865043 0.745165
vt 0.863719 0.745733
vt 0.601228 0.986475
vt 0.601228 0.763525
vt 0.602014 0.265028
vt 0.602014 0.484972
vt 0.603233 0.485296
vt 0.603233 0.264704
vt 0.603233 0.985296
vt 0.603039 0.765179
vt 0.603039 0.984821
vt 0.603039 0.484821
vt 0.602207 0.484601
vt 0.602207 0.765399
vt 0.602207 0.984601
vt 0.602207 0.265399
vt 0.603039 0.265179
vt 0.598286 0.176755
vt 0.598286 0.220677
vt 0.598286 0.203165
vt 0.598286 0.552953
vt 0.598286 0.573245
vt 0.598286 0.546835
vt 0.598286 0.546238
vt 0.598286 0.285514
vt 0.598286 0.275315
vt 0.598286 0.248906
vt 0.598286 0.248309
vt 0.598286 0.474685
vt 0.598286 0.466902
vt 0.598286 0.488115
vt 0.598286 0.501094
vt 0.598286 0.261885
vt 0.598286 0.464486
vt 0.598286 0.464486
vt 0.598286 0.488115
vt 0.598286 0.529323
vt 0.598286 0.287179
vt 0.598286 0.319977
vt 0.598286 0.328970
vt 0.598286 0.421030
vt 0.598286 0.430023
vt 0.598286 0.287179
vt 0.598286 0.461396
vt 0.598286 0.461396
vt 0.598286 0.507295
vt 0.598286 0.509708
vt 0.598286 0.244175
vt 0.598286 0.256729
vt 0.598286 0.260080
vt 0.598286 0.257998
vt 0.598286 0.488651
vt 0.598286 0.256729
vt 0.598286 0.458912
vt 0.598286 0.460455
vt 0.598286 0.240292
vt 0.598286 0.242705
vt 0.598286 0.261349
vt 0.598286 0.304560
vt 0.598286 0.264699
vt 0.598286 0.264699
vt 0.598286 0.286121
vt 0.598286 0.234939
vt 0.598286 0.311154
vt 0.598286 0.311154
vt 0.598286 0.253378
vt 0.598286 0.253378
vt 0.598286 0.203762
vt 0.598286 0.289545
vt 0.598286 0.294512
vt 0.598286 0.253378
vt 0.598286 0.283098
vt 0.598286 0.294512
vt 0.598286 0.264699
vt 0.598286 0.264699
vt 0.598286 0.261349
vt 0.598286 0.485301
vt 0.598286 0.445440
vt 0.598286 0.441537
vt 0.598286 0.442750
vt 0.598286 0.438847
vt 0.598286 0.455488
vt 0.598286 0.463879
vt 0.598286 0.501691
vt 0.598286 0.496622
vt 0.598286 0.445440
vt 0.598286 0.253378
vt 0.598286 0.455488
vt 0.598286 0.501942
vt 0.598286 0.438846
vt 0.598286 0.515061
vt 0.598286 0.509708
vt 0.598286 0.581028
vt 0.598286 0.593060
vt 0.598286 0.438846
vt 0.598286 0.463879
vt 0.598286 0.441537
vt 0.622058 0.004418
vt 0.622058 0.245582
vt 0.618822 0.507625
vt 0.608124 0.012501
vt 0.608124 0.237499
vt 0.608124 0.512501
s 0
usemtl M_Blanc
f 77/5/2 44/6/2 434/7/2 437/8/2
f 385/9/3 388/9/3 299/9/3 298/9/3
f 52/14/4 86/15/4 448/15/4 443/14/4
f 201/20/3 206/21/3 239/22/3 238/23/3
f 343/24/5 346/25/5 288/25/5 289/24/5
f 177/26/5 182/27/5 231/27/5 230/26/5
f 398/28/3 402/29/3 307/29/3 305/28/3
f 436/30/6 439/31/6 73/32/6 56/33/6
f 328/34/5 332/35/5 292/35/5 294/34/5
f 375/36/5 370/37/5 278/37/5 275/37/5
f 416/38/5 389/39/5 300/39/5 313/38/5
f 374/40/3 347/41/3 287/41/3 276/42/3
f 384/39/5 380/39/5 301/39/5 297/39/5
f 197/45/5 194/46/5 235/46/5 234/47/5
f 189/48/3 186/49/3 225/49/3 227/48/3
f 347/41/3 342/41/3 290/41/3 287/41/3
f 371/42/3 374/42/3 276/42/3 277/42/3
f 79/68/7 50/69/7 44/70/7 77/71/7
f 230/26/5 231/27/5 211/27/5 210/26/5
f 427/80/3 422/81/3 315/81/3 318/80/3
f 389/39/5 384/39/5 297/39/5 300/39/5
f 238/23/3 239/22/3 223/21/3 222/20/3
f 234/45/5 235/46/5 219/46/5 218/47/5
f 360/82/3 333/83/3 291/83/3 280/82/3
f 11/50/7 249/50/7 252/51/7 9/51/7
f 227/48/3 225/49/3 215/49/3 214/48/3
f 413/84/3 408/84/3 309/84/3 312/84/3
f 356/87/3 360/82/3 280/82/3 282/88/3
f 16/4/7 254/4/7 255/3/7 14/3/7
f 357/99/5 352/100/5 284/100/5 281/99/5
f 412/38/5 416/38/5 313/38/5 311/38/5
f 370/37/5 366/37/5 274/37/5 278/37/5
f 426/109/5 430/110/5 319/110/5 317/109/5
f 250/1/4 12/1/4 10/2/4 251/2/4
f 12/1/1 11/50/1 9/51/1 10/2/1
f 253/132/4 15/53/4 13/52/4 256/52/4
f 15/53/1 16/4/1 14/3/1 13/52/1
f 122/133/8 121/134/8 124/135/8 125/136/8 126/137/8 127/138/8 128/139/8 123/140/8
f 46/144/9 75/145/9 438/146/9 433/147/9
f 75/155/4 46/156/4 56/157/4 73/158/4
f 50/169/14 79/170/14 440/171/14 435/172/14
f 113/174/16 114/175/16 434/176/16 44/177/16
f 115/178/17 116/179/17 46/180/17 433/181/17
f 117/182/19 118/183/19 436/184/19 56/185/19
f 119/186/21 120/187/21 50/188/21 435/189/21
f 42/191/1 48/192/1 441/192/1 442/191/1
f 120/187/23 113/174/23 44/177/23 50/188/23
f 114/175/24 115/178/24 433/181/24 434/176/24
f 435/193/25 436/194/25 118/183/25 119/186/25
f 56/185/26 46/180/26 116/179/26 117/182/26
f 73/32/1 439/31/1 103/31/1 95/32/1
f 438/146/1 75/145/1 89/145/1 92/146/1
f 437/203/1 438/204/1 92/204/1 94/203/1
f 77/5/1 437/8/1 94/8/1 101/5/1
f 440/171/1 79/170/1 97/170/1 100/171/1
f 79/68/1 77/71/1 101/71/1 97/68/1
f 75/155/1 73/158/1 95/158/1 89/155/1
f 439/205/1 440/206/1 100/206/1 103/205/1
f 108/207/9 107/208/9 134/208/9 136/207/9
f 49/209/9 51/210/9 143/210/9 141/209/9
f 107/208/4 106/211/4 132/211/4 134/208/4
f 53/212/2 55/213/2 131/213/2 130/212/2
f 105/214/3 112/215/3 144/215/3 129/214/3
f 45/216/14 47/217/14 135/217/14 133/216/14
f 106/211/6 105/214/6 129/214/6 132/211/6
f 112/215/14 111/218/14 142/218/14 144/215/14
f 43/219/8 41/220/8 114/175/8 113/174/8
f 47/217/8 45/216/8 116/179/8 115/178/8
f 55/213/8 53/212/8 118/183/8 117/182/8
f 51/210/8 49/209/8 120/187/8 119/186/8
f 49/209/8 43/219/8 113/174/8 120/187/8
f 41/220/8 47/217/8 115/178/8 114/175/8
f 53/212/8 51/210/8 119/186/8 118/183/8
f 45/216/8 55/213/8 117/182/8 116/179/8
f 105/214/8 106/211/8 121/134/8 122/133/8
f 112/215/8 105/214/8 122/133/8 123/140/8
f 106/211/8 107/208/8 124/135/8 121/134/8
f 107/208/8 108/207/8 125/136/8 124/135/8
f 108/207/8 109/221/8 126/137/8 125/136/8
f 109/221/8 110/222/8 127/138/8 126/137/8
f 110/222/8 111/218/8 128/139/8 127/138/8
f 111/218/8 112/215/8 123/140/8 128/139/8
f 43/219/4 49/209/4 141/209/4 139/219/4
f 109/221/5 108/207/5 136/207/5 138/221/5
f 47/217/3 41/220/3 137/220/3 135/217/3
f 110/222/2 109/221/2 138/221/2 140/222/2
f 51/210/5 53/212/5 130/212/5 143/210/5
f 111/218/7 110/222/7 140/222/7 142/218/7
f 55/213/7 45/216/7 133/216/7 131/213/7
f 41/220/6 43/219/6 139/219/6 137/220/6
f 322/35/5 328/34/5 294/34/5 295/35/5
f 234/45/2 218/47/2 217/253/2 233/253/2
f 226/241/14 216/241/14 215/49/14 225/49/14
f 238/23/6 222/20/6 221/254/6 237/255/6
f 240/256/14 224/251/14 223/21/14 239/22/14
f 230/26/2 210/26/2 209/94/2 229/94/2
f 236/245/9 220/245/9 219/46/9 235/46/9
f 232/239/9 212/239/9 211/27/9 231/27/9
f 228/257/6 190/257/6 189/48/6 227/48/6
f 185/241/14 226/241/14 225/49/14 186/49/14
f 213/257/6 228/257/6 227/48/6 214/48/6
f 177/26/2 230/26/2 229/94/2 178/94/2
f 181/239/9 232/239/9 231/27/9 182/27/9
f 201/20/6 238/23/6 237/255/6 202/254/6
f 205/251/14 240/256/14 239/22/14 206/21/14
f 197/45/2 234/47/2 233/253/2 198/253/2
f 193/245/9 236/245/9 235/46/9 194/46/9
f 392/29/3 398/28/3 305/28/3 304/29/3
f 2/258/3 1/44/3 241/2/3 242/51/3
f 4/101/5 3/117/5 243/50/5 244/1/5
f 6/259/3 5/260/3 245/52/3 246/3/3
f 8/261/5 7/262/5 247/4/5 248/53/5
f 3/117/5 17/116/5 249/50/5 243/50/5
f 18/102/5 4/101/5 244/1/5 250/1/5
f 1/44/3 20/43/3 251/2/3 241/2/3
f 19/263/3 2/258/3 242/51/3 252/51/3
f 24/85/5 8/261/5 248/53/5 253/132/5
f 7/262/5 23/115/5 254/4/5 247/4/5
f 17/116/8 19/263/8 252/51/8 249/50/8
f 20/43/8 18/102/8 250/1/8 251/2/8
f 23/115/8 22/114/8 255/3/8 254/4/8
f 21/86/8 24/85/8 253/132/8 256/52/8
f 22/114/3 6/259/3 246/3/3 255/3/3
f 5/260/3 21/86/3 256/52/3 245/52/3
f 332/35/5 361/100/5 279/100/5 292/35/5
f 333/83/3 329/89/3 293/89/3 291/83/3
f 346/24/5 375/37/5 275/37/5 288/24/5
f 342/41/3 338/41/3 286/41/3 290/41/3
f 350/82/3 356/87/3 282/88/3 283/82/3
f 361/100/5 357/264/5 281/265/5 279/100/5
f 364/42/3 371/42/3 277/42/3 273/42/3
f 388/9/3 417/84/3 314/84/3 299/9/3
f 378/9/3 385/9/3 298/9/3 302/9/3
f 402/29/3 431/81/3 320/81/3 307/29/3
f 403/268/5 399/268/5 306/268/5 308/268/5
f 417/272/3 413/84/3 312/84/3 314/84/3
f 431/269/3 427/273/3 318/273/3 320/269/3
f 336/24/5 343/25/5 289/25/5 285/24/5
f 430/278/5 403/268/5 308/268/5 319/278/5
f 193/245/4 339/279/4 341/279/4 236/245/4
f 425/280/4 251/2/4 10/2/4 429/281/4
f 363/282/7 198/253/7 233/253/7 372/282/7
f 397/283/7 229/94/7 209/94/7 401/95/7
f 335/284/4 245/52/4 256/52/4 344/285/4
f 181/239/4 423/286/4 428/287/4 232/239/4
f 242/51/7 395/98/7 400/98/7 252/51/7
f 255/3/7 369/293/7 376/290/7 14/3/7
f 236/245/4 341/279/4 348/279/4 220/245/4
f 419/294/4 241/2/4 251/2/4 425/295/4
f 404/98/1 429/294/1 10/2/1 9/51/1
f 399/268/5 394/268/5 303/268/5 306/268/5
f 420/278/5 426/296/5 317/296/5 316/278/5
f 372/282/7 233/253/7 217/253/7 373/282/7
f 209/94/1 210/26/1 211/27/1 212/239/1 432/286/1 401/283/1
f 391/283/7 178/94/7 229/94/7 397/283/7
f 344/284/4 256/52/4 13/52/4 345/285/4
f 250/1/4 414/297/4 418/297/4 12/1/4
f 329/89/3 324/83/3 296/83/3 293/89/3
f 246/3/7 367/293/7 369/290/7 255/3/7
f 252/51/7 400/98/7 404/98/7 9/51/7
f 321/298/4 202/254/4 237/255/4 327/306/4
f 232/239/4 428/307/4 432/291/4 212/239/4
f 349/302/7 247/4/7 254/4/7 355/308/7
f 406/38/5 412/38/5 311/38/5 310/38/5
f 386/309/7 249/50/7 11/50/7 387/309/7
f 334/301/1 359/302/1 16/4/1 15/53/1
f 405/305/4 190/257/4 228/257/4 411/305/4
f 248/53/4 325/301/4 330/310/4 253/132/4
f 221/254/1 222/20/1 223/21/1 224/251/1 362/303/1 331/298/1
f 205/251/7 353/303/7 358/303/7 240/256/7
f 327/306/4 237/255/4 221/254/4 331/298/4
f 226/241/7 383/311/7 390/311/7 216/241/7
f 219/46/1 220/245/1 348/279/1 373/282/1 217/253/1 218/45/1
f 355/308/7 254/4/7 16/4/7 359/302/7
f 244/1/4 409/297/4 414/297/4 250/1/4
f 376/293/1 345/284/1 13/52/1 14/3/1
f 411/305/4 228/257/4 213/257/4 415/305/4
f 253/132/4 330/315/4 334/301/4 15/53/4
f 377/309/7 243/50/7 249/50/7 386/309/7
f 418/297/1 387/309/1 11/50/1 12/1/1
f 240/256/7 358/316/7 362/303/7 224/251/7
f 185/241/7 381/311/7 383/311/7 226/241/7
f 215/49/1 216/241/1 390/311/1 415/305/1 213/257/1 214/48/1
f 321/298/1 322/35/1 323/317/1
f 324/83/1 325/83/1 326/300/1
f 335/284/1 336/24/1 337/91/1
f 338/41/1 339/41/1 340/90/1
f 349/302/1 350/82/1 351/275/1
f 352/100/1 353/100/1 354/274/1
f 363/282/1 364/42/1 365/129/1
f 366/37/1 367/37/1 368/289/1
f 377/309/1 378/9/1 379/267/1
f 380/39/1 381/39/1 382/266/1
f 391/283/1 392/29/1 393/277/1
f 394/268/1 395/268/1 396/97/1
f 405/305/1 406/38/1 407/127/1
f 408/84/1 409/84/1 410/126/1
f 419/294/1 420/278/1 421/271/1
f 422/81/1 423/81/1 424/270/1
f 321/298/9 327/306/9 328/34/9 322/35/9
f 330/310/6 325/301/6 324/83/6 329/89/6
f 327/306/9 331/298/9 332/35/9 328/34/9
f 334/301/6 330/315/6 329/89/6 333/83/6
f 344/284/9 345/285/9 346/25/9 343/24/9
f 348/279/6 341/279/6 342/41/6 347/41/6
f 335/284/9 344/285/9 343/25/9 336/24/9
f 341/279/6 339/279/6 338/41/6 342/41/6
f 349/302/14 355/308/14 356/87/14 350/82/14
f 358/303/2 353/303/2 352/100/2 357/99/2
f 355/308/14 359/302/14 360/82/14 356/87/14
f 362/303/2 358/316/2 357/264/2 361/100/2
f 372/282/14 373/282/14 374/42/14 371/42/14
f 376/290/2 369/293/2 370/37/2 375/36/2
f 363/282/14 372/282/14 371/42/14 364/42/14
f 369/290/2 367/293/2 366/37/2 370/37/2
f 386/309/14 387/309/14 388/9/14 385/9/14
f 390/311/2 383/311/2 384/39/2 389/39/2
f 377/309/14 386/309/14 385/9/14 378/9/14
f 383/311/2 381/311/2 380/39/2 384/39/2
f 391/283/14 397/283/14 398/28/14 392/29/14
f 400/98/2 395/98/2 394/268/2 399/268/2
f 397/283/14 401/95/14 402/29/14 398/28/14
f 404/98/2 400/98/2 399/268/2 403/268/2
f 405/305/9 411/305/9 412/38/9 406/38/9
f 414/297/6 409/297/6 408/84/6 413/84/6
f 411/305/9 415/305/9 416/38/9 412/38/9
f 418/297/6 414/297/6 413/84/6 417/272/6
f 419/294/9 425/295/9 426/296/9 420/278/9
f 428/287/6 423/286/6 422/81/6 427/80/6
f 425/280/9 429/281/9 430/110/9 426/109/9
f 432/291/6 428/307/6 427/273/6 431/269/6
f 359/302/10 334/301/10 333/83/10 360/82/10
f 331/298/11 362/303/11 361/100/11 332/35/11
f 373/282/10 348/279/10 347/41/10 374/40/10
f 345/284/11 376/293/11 375/37/11 346/24/11
f 387/309/10 418/297/10 417/84/10 388/9/10
f 415/305/11 390/311/11 389/39/11 416/38/11
f 401/283/10 432/286/10 431/81/10 402/29/10
f 429/294/11 404/98/11 403/268/11 430/278/11
f 48/192/5 42/191/5 434/318/5 433/319/5
f 52/14/3 54/320/3 436/194/3 435/193/3
f 84/321/5 82/322/5 438/204/5 437/203/5
f 87/323/3 86/15/3 440/206/3 439/205/3
f 54/320/3 87/323/3 439/205/3 436/194/3
f 82/322/5 48/192/5 433/319/5 438/204/5
f 42/191/5 84/321/5 437/203/5 434/318/5
f 86/15/3 52/14/3 435/193/3 440/206/3
f 48/192/7 82/322/7 446/322/7 441/192/7
f 86/15/8 87/323/8 447/323/8 448/15/8
f 54/320/1 52/14/1 443/14/1 444/320/1
f 84/321/4 42/191/4 442/191/4 445/321/4
f 87/323/7 54/320/7 444/320/7 447/323/7
f 82/322/8 84/321/8 445/321/8 446/322/8
usemtl M_Noir_Profond
f 295/35/4 294/34/4 293/89/4 296/83/4
f 90/152/9 91/142/9 92/146/9 89/145/9
f 94/203/5 92/204/5 91/142/5 93/18/5
f 89/155/4 95/158/4 96/163/4 90/152/4
f 98/197/14 99/12/14 100/171/14 97/170/14
f 97/68/7 101/71/7 102/201/7 98/197/7
f 104/11/6 96/163/6 95/32/6 103/31/6
f 101/5/2 94/8/2 93/18/2 102/17/2
f 103/205/3 100/206/3 99/12/3 104/11/3
f 160/230/1 159/231/1 175/231/1 176/230/1
f 157/232/5 156/233/5 172/233/5 173/232/5
f 153/234/27 154/235/27 162/202/27 161/195/27
f 155/236/28 156/233/28 164/226/28 163/225/28
f 157/232/29 158/237/29 166/228/29 165/227/29
f 159/231/30 160/230/30 168/196/30 167/229/30
f 158/237/4 155/236/4 163/225/4 166/228/4
f 156/233/4 157/232/4 165/227/4 164/226/4
f 154/235/7 159/231/7 167/229/7 162/202/7
f 160/230/7 153/234/7 161/195/7 168/196/7
f 156/233/8 155/236/8 171/236/8 172/233/8
f 159/231/3 154/235/3 170/235/3 175/231/3
f 155/236/3 158/237/3 174/237/3 171/236/3
f 158/237/1 157/232/1 173/232/1 174/237/1
f 154/235/8 153/234/8 169/234/8 170/235/8
f 153/234/5 160/230/5 176/230/5 169/234/5
f 294/34/36 292/35/36 291/83/36 293/89/36
f 289/24/36 288/25/36 287/41/36 290/41/36
f 285/24/4 289/25/4 290/41/4 286/41/4
f 283/82/7 282/88/7 281/99/7 284/100/7
f 282/88/37 280/82/37 279/100/37 281/265/37
f 277/42/37 276/42/37 275/37/37 278/37/37
f 273/42/7 277/42/7 278/37/7 274/37/7
f 298/9/37 299/9/37 300/39/37 297/39/37
f 302/9/7 298/9/7 297/39/7 301/39/7
f 304/29/7 305/28/7 306/268/7 303/268/7
f 305/28/37 307/29/37 308/268/37 306/268/37
f 310/38/4 311/38/4 312/84/4 309/84/4
f 311/38/36 313/38/36 314/84/36 312/84/36
f 316/278/4 317/296/4 318/80/4 315/81/4
f 317/109/36 319/110/36 320/269/36 318/273/36
f 280/82/1 291/83/1 292/35/1 279/100/1
f 276/42/1 287/41/1 288/24/1 275/37/1
f 299/9/1 314/84/1 313/38/1 300/39/1
f 307/29/1 320/81/1 319/278/1 308/268/1
usemtl M_Noir_Bleuté
f 244/1/1 241/2/1 246/3/1 247/4/1
f 68/10/3 88/11/3 85/12/3 70/13/3
f 146/16/2 151/17/2 83/18/2 60/19/2
f 20/43/4 1/44/4 265/44/4 260/43/4
f 241/2/1 244/1/1 243/50/1 242/51/1
f 245/52/1 248/53/1 247/4/1 246/3/1
f 28/54/1 192/55/1 191/56/1 208/57/1 207/58/1 25/59/1
f 184/60/1 183/61/1 29/62/1 32/63/1 200/64/1 199/65/1
f 33/66/1 36/67/1 242/51/1 243/50/1
f 248/53/1 245/52/1 37/72/1 40/73/1
f 35/74/1 57/75/1 59/76/1 30/77/1 180/78/1 179/79/1
f 24/85/4 21/86/4 262/86/4 263/85/4
f 338/41/1 340/90/1 337/91/1 336/25/1 285/25/1 286/41/1
f 35/92/1 179/93/1 178/94/1 391/95/1 393/96/1 396/97/1 395/98/1 242/51/1 36/67/1
f 4/101/4 18/102/4 257/102/4 268/101/4
f 69/103/1 71/104/1 34/105/1 188/106/1 187/107/1 27/108/1
f 29/62/1 183/111/1 182/27/1 177/26/1 180/112/1 30/113/1
f 22/114/7 23/115/7 264/115/7 261/114/7
f 17/116/7 3/117/7 267/117/7 258/116/7
f 196/118/1 195/119/1 31/120/1 61/121/1 63/122/1 38/123/1
f 31/124/1 195/119/1 194/46/1 197/47/1 200/125/1 32/63/1
f 18/102/4 20/43/4 260/43/4 257/102/4
f 408/84/1 410/126/1 407/127/1 406/38/1 310/38/1 309/84/1
f 366/37/1 368/128/1 365/129/1 364/42/1 273/42/1 274/37/1
f 201/20/1 204/130/1 26/131/1 25/59/1 207/58/1 206/21/1
f 60/141/5 83/18/5 81/142/5 62/143/5
f 189/48/1 192/55/1 28/148/1 27/149/1 187/150/1 186/49/1
f 69/103/10 27/149/10 28/54/10 25/59/10 26/131/10 67/151/10 68/10/10 70/13/10
f 150/152/9 147/153/9 62/154/9 81/142/9
f 61/121/11 31/124/11 32/63/11 29/62/11 30/77/11 59/76/11 60/141/11 62/143/11
f 57/75/12 35/92/12 36/67/12 33/66/12 34/105/12 71/104/12 145/159/12 146/160/12
f 88/11/6 68/161/6 148/162/6 149/163/6
f 65/164/13 39/165/13 40/73/13 37/166/13 38/123/13 63/122/13 147/167/13 148/168/13
f 59/76/15 57/75/15 146/160/15 60/173/15
f 63/122/18 61/121/18 62/154/18 147/153/18
f 67/151/20 65/164/20 148/162/20 68/161/20
f 71/104/22 69/103/22 70/190/22 145/159/22
f 72/195/5 80/196/5 168/196/5 161/195/5
f 152/197/14 145/198/14 70/199/14 85/12/14
f 26/131/1 204/130/1 203/200/1 39/165/1 65/164/1 67/151/1
f 152/197/8 85/12/8 99/12/8 98/197/8
f 88/11/8 149/163/8 96/163/8 104/11/8
f 149/163/8 150/152/8 90/152/8 96/163/8
f 151/201/8 152/197/8 98/197/8 102/201/8
f 150/152/8 81/142/8 91/142/8 90/152/8
f 85/12/8 88/11/8 104/11/8 99/12/8
f 58/202/8 72/195/8 161/195/8 162/202/8
f 81/142/8 83/18/8 93/18/8 91/142/8
f 83/18/8 151/17/8 102/17/8 93/18/8
f 72/195/7 58/202/7 146/223/7 145/224/7
f 64/225/4 66/226/4 148/168/4 147/167/4
f 74/227/4 76/228/4 150/152/4 149/163/4
f 78/229/7 80/196/7 152/197/7 151/201/7
f 76/228/4 64/225/4 147/167/4 150/152/4
f 66/226/4 74/227/4 149/163/4 148/168/4
f 58/202/7 78/229/7 151/201/7 146/223/7
f 80/196/7 72/195/7 145/224/7 152/197/7
f 74/227/5 66/226/5 164/226/5 165/227/5
f 80/196/1 78/229/1 167/229/1 168/196/1
f 66/226/8 64/225/8 163/225/8 164/226/8
f 78/229/3 58/202/3 162/202/3 167/229/3
f 64/225/3 76/228/3 166/228/3 163/225/3
f 76/228/1 74/227/1 165/227/1 166/228/1
f 177/26/1 178/238/1 179/93/1 180/78/1
f 181/239/1 182/240/1 183/111/1 184/60/1
f 185/241/1 186/242/1 187/150/1 188/106/1
f 189/48/1 190/243/1 191/244/1 192/55/1
f 193/245/1 194/246/1 195/119/1 196/118/1
f 197/45/1 198/247/1 199/248/1 200/64/1
f 201/20/1 202/249/1 203/250/1 204/130/1
f 205/251/1 206/252/1 207/58/1 208/57/1
f 258/116/8 257/102/8 260/43/8 259/263/8
f 264/115/31 263/85/31 262/86/31 261/114/31
f 267/117/32 268/101/32 257/102/32 258/116/32
f 265/44/33 266/258/33 259/263/33 260/43/33
f 269/260/34 270/259/34 261/114/34 262/86/34
f 271/262/35 272/261/35 263/85/35 264/115/35
f 6/259/7 22/114/7 261/114/7 270/259/7
f 2/258/7 19/263/7 259/263/7 266/258/7
f 1/44/8 2/258/8 266/258/8 265/44/8
f 21/86/4 5/260/4 269/260/4 262/86/4
f 8/261/4 24/85/4 263/85/4 272/261/4
f 3/117/8 4/101/8 268/101/8 267/117/8
f 23/115/7 7/262/7 271/262/7 264/115/7
f 5/260/8 6/259/8 270/259/8 269/260/8
f 19/263/7 17/116/7 258/116/7 259/263/7
f 7/262/8 8/261/8 272/261/8 271/262/8
f 380/39/1 382/266/1 379/267/1 378/9/1 302/9/1 301/39/1
f 422/269/1 424/270/1 421/271/1 420/110/1 316/110/1 315/269/1
f 352/100/1 354/274/1 351/275/1 350/82/1 283/82/1 284/100/1
f 394/268/1 396/276/1 393/277/1 392/29/1 304/29/1 303/268/1
f 181/239/1 184/288/1 199/248/1 198/253/1 363/282/1 365/129/1 368/289/1 367/290/1 246/3/1 241/2/1 419/281/1 421/271/1 424/270/1 423/291/1
f 193/245/1 196/292/1 38/123/1 37/166/1 245/52/1 335/285/1 337/91/1 340/90/1 339/279/1
f 248/53/1 40/73/1 39/165/1 203/250/1 202/254/1 321/298/1 323/299/1 326/300/1 325/301/1
f 244/1/1 247/4/1 349/302/1 351/275/1 354/274/1 353/303/1 205/251/1 208/304/1 191/244/1 190/257/1 405/305/1 407/127/1 410/126/1 409/297/1
f 33/66/1 243/50/1 377/309/1 379/312/1 382/266/1 381/311/1 185/241/1 188/313/1 34/314/1
f 324/83/1 326/300/1 323/317/1 322/35/1 295/35/1 296/83/1
usemtl M_Orange
f 130/212/8 131/213/8 132/211/8 129/214/8
f 131/213/8 133/216/8 134/208/8 132/211/8
f 133/216/8 135/217/8 136/207/8 134/208/8
f 135/217/8 137/220/8 138/221/8 136/207/8
f 137/220/8 139/219/8 140/222/8 138/221/8
f 139/219/8 141/209/8 142/218/8 140/222/8
f 141/209/8 143/210/8 144/215/8 142/218/8
f 143/210/8 130/212/8 129/214/8 144/215/8
f 447/323/3 444/320/3 443/14/3 448/15/3
f 445/321/5 442/191/5 441/192/5 446/322/5
usemtl M_Cyan
f 169/234/7 176/230/7 175/231/7 170/235/7
f 171/236/4 174/237/4 173/232/4 172/233/4
