# Blender 4.2.3 LTS
# www.blender.org
mtllib SM_Umbrella_Stand.mtl
o SM_Umbrella_Stand
v -0.080330 0.000000 0.175000
v -0.100000 0.000000 0.155330
v -0.100000 0.000000 -0.155330
v -0.080330 0.000000 -0.175000
v 0.100000 0.000000 0.155330
v 0.080330 0.000000 0.175000
v 0.080330 0.000000 -0.175000
v 0.100000 0.000000 -0.155330
v -0.100000 0.402280 0.155330
v -0.080330 0.402280 0.175000
v -0.100000 0.402280 -0.155330
v -0.080330 0.402280 -0.175000
v 0.080330 0.402280 -0.175000
v 0.100000 0.402280 -0.155330
v 0.100000 0.402280 0.155330
v 0.080330 0.402280 0.175000
v -0.081518 0.600000 0.147674
v -0.100000 0.590082 0.155330
v -0.072674 0.600000 0.156518
v -0.080330 0.590082 0.175000
v -0.072674 0.600000 -0.156518
v -0.080330 0.590082 -0.175000
v -0.081518 0.600000 -0.147674
v -0.100000 0.590082 -0.155330
v 0.072674 0.600000 0.156518
v 0.080330 0.590082 0.175000
v 0.081518 0.600000 0.147674
v 0.100000 0.590082 0.155330
v 0.081518 0.600000 -0.147674
v 0.100000 0.590082 -0.155330
v 0.072674 0.600000 -0.156518
v 0.080330 0.590082 -0.175000
v -0.075049 0.600000 0.162251
v -0.087251 0.600000 0.150049
v -0.087251 0.600000 -0.150049
v -0.075049 0.600000 -0.162251
v 0.075049 0.600000 -0.162251
v 0.087251 0.600000 -0.150049
v 0.087251 0.600000 0.150049
v 0.075049 0.600000 0.162251
v 0.021850 0.000000 -0.175000
v 0.005738 0.011244 -0.175000
v -0.005738 0.011244 -0.175000
v -0.021850 0.000000 -0.175000
v -0.021850 0.000000 0.175000
v -0.005738 0.011244 0.175000
v 0.005738 0.011244 0.175000
v 0.021850 0.000000 0.175000
v 0.021850 0.085811 0.175000
v 0.021850 0.090679 0.175000
v -0.021850 0.085811 0.175000
v -0.021850 0.090679 0.175000
v -0.021850 0.085811 -0.175000
v -0.021850 0.090679 -0.175000
v 0.021850 0.085811 -0.175000
v 0.021850 0.090679 -0.175000
v 0.021850 0.435100 0.175000
v 0.005738 0.388602 0.175000
v -0.005738 0.388602 0.175000
v -0.021850 0.435100 0.175000
v -0.021850 0.435100 -0.175000
v -0.005738 0.388602 -0.175000
v 0.005738 0.388602 -0.175000
v 0.021850 0.435100 -0.175000
v -0.080330 0.085811 0.175000
v -0.084674 0.096821 0.170657
v -0.095657 0.096821 0.159674
v -0.100000 0.085811 0.155330
v -0.100000 0.085811 -0.155330
v -0.095657 0.096821 -0.159674
v -0.084674 0.096821 -0.170657
v -0.080330 0.085811 -0.175000
v 0.080330 0.085811 -0.175000
v 0.084674 0.096821 -0.170657
v 0.095657 0.096821 -0.159674
v 0.100000 0.085811 -0.155330
v 0.100000 0.085811 0.155330
v 0.095657 0.096821 0.159674
v 0.084674 0.096821 0.170657
v 0.080330 0.085811 0.175000
v -0.084674 0.527809 -0.170657
v 0.084674 0.527809 -0.170657
v 0.084674 0.527809 0.170657
v -0.084674 0.527809 0.170657
v -0.095657 0.527809 0.159674
v -0.095657 0.527809 -0.159674
v 0.095657 0.527809 0.159674
v 0.095657 0.527809 -0.159674
v 0.016982 0.088245 0.170920
v 0.021850 0.085811 0.170920
v 0.021850 0.090679 0.170920
v -0.021850 0.090679 0.170920
v -0.021850 0.085811 0.170920
v -0.016982 0.088245 0.170920
v -0.016982 0.088245 -0.170920
v -0.021850 0.085811 -0.170920
v -0.021850 0.090679 -0.170920
v 0.021850 0.090679 -0.170920
v 0.021850 0.085811 -0.170920
v 0.016982 0.088245 -0.170920
v -0.016982 0.004080 -0.170920
v -0.021850 0.004080 -0.170920
v 0.021850 0.004080 -0.170920
v 0.016982 0.004080 -0.170920
v 0.016982 0.004080 0.170920
v 0.021850 0.004080 0.170920
v -0.021850 0.004080 0.170920
v -0.016982 0.004080 0.170920
v 0.021850 0.404714 0.170920
v 0.016982 0.399846 0.170920
v -0.016982 0.399846 0.170920
v -0.021850 0.404714 0.170920
v -0.021850 0.404714 -0.170920
v -0.016982 0.399846 -0.170920
v 0.016982 0.399846 -0.170920
v 0.021850 0.404714 -0.170920
v -0.095920 0.085811 -0.153640
v -0.095920 0.090679 -0.153640
v -0.078640 0.090679 -0.170920
v -0.078640 0.085811 -0.170920
v 0.078640 0.085811 -0.170920
v 0.078640 0.090679 -0.170920
v 0.095920 0.090679 -0.153640
v 0.095920 0.085811 -0.153640
v 0.095920 0.085811 0.153640
v 0.095920 0.090679 0.153640
v 0.078640 0.090679 0.170920
v 0.078640 0.085811 0.170920
v -0.078640 0.085811 0.170920
v -0.078640 0.090679 0.170920
v -0.095920 0.090679 0.153640
v -0.095920 0.085811 0.153640
v 0.095920 0.533951 -0.153640
v 0.095920 0.538819 -0.153640
v 0.095920 0.538819 0.153640
v 0.095920 0.533951 0.153640
v 0.078640 0.538819 0.170920
v 0.078640 0.533951 0.170920
v -0.095920 0.533951 0.153640
v -0.095920 0.538819 0.153640
v -0.095920 0.538819 -0.153640
v -0.095920 0.533951 -0.153640
v 0.078640 0.533951 -0.170920
v 0.078640 0.538819 -0.170920
v -0.078640 0.533951 -0.170920
v -0.078640 0.538819 -0.170920
v -0.078640 0.538819 0.170920
v -0.078640 0.533951 0.170920
v -0.076222 0.600000 0.165082
v -0.090082 0.600000 0.151222
v -0.090082 0.600000 -0.151222
v -0.076222 0.600000 -0.165082
v 0.076222 0.600000 -0.165082
v 0.090082 0.600000 -0.151222
v 0.090082 0.600000 0.151222
v 0.076222 0.600000 0.165082
v -0.071502 0.600000 0.153686
v -0.078686 0.600000 0.146502
v -0.078686 0.600000 -0.146502
v -0.071502 0.600000 -0.153686
v 0.071502 0.600000 -0.153686
v 0.078686 0.600000 -0.146502
v 0.078686 0.600000 0.146502
v 0.071502 0.600000 0.153686
v -0.075049 0.599494 0.162251
v -0.072674 0.599494 0.156518
v -0.081518 0.599494 0.147674
v -0.087251 0.599494 0.150049
v -0.087251 0.599494 -0.150049
v -0.081518 0.599494 -0.147674
v -0.072674 0.599494 -0.156518
v -0.075049 0.599494 -0.162251
v 0.075049 0.599494 -0.162251
v 0.072674 0.599494 -0.156518
v 0.081518 0.599494 -0.147674
v 0.087251 0.599494 -0.150049
v 0.087251 0.599494 0.150049
v 0.081518 0.599494 0.147674
v 0.072674 0.599494 0.156518
v 0.075049 0.599494 0.162251
v -0.078686 0.013019 0.146502
v -0.071502 0.013019 0.153686
v 0.078686 0.013019 -0.146502
v 0.078686 0.013019 0.146502
v -0.078686 0.013019 -0.146502
v -0.071502 0.013019 -0.153686
v 0.071502 0.013019 -0.153686
v 0.071502 0.013019 0.153686
v 0.016982 0.399846 0.175000
v 0.016982 0.000000 0.175000
v -0.016982 0.000000 0.175000
v -0.016982 0.399846 0.175000
v -0.016982 0.399846 -0.175000
v -0.016982 0.000000 -0.175000
v 0.016982 0.000000 -0.175000
v 0.016982 0.399846 -0.175000
v 0.003733 0.386597 0.173819
v 0.003733 0.013249 0.173819
v -0.003733 0.013249 0.173819
v -0.003733 0.386597 0.173819
v -0.003733 0.386597 -0.173819
v -0.003733 0.013249 -0.173819
v 0.003733 0.013249 -0.173819
v 0.003733 0.386597 -0.173819
v 0.005738 0.388602 0.173819
v 0.005738 0.011244 0.173819
v -0.005738 0.011244 0.173819
v -0.005738 0.388602 0.173819
v -0.005738 0.388602 -0.173819
v -0.005738 0.011244 -0.173819
v 0.005738 0.011244 -0.173819
v 0.005738 0.388602 -0.173819
v 0.003733 0.386597 0.173189
v 0.003733 0.013249 0.173189
v -0.003733 0.013249 0.173189
v -0.003733 0.386597 0.173189
v -0.003733 0.386597 -0.173189
v -0.003733 0.013249 -0.173189
v 0.003733 0.013249 -0.173189
v 0.003733 0.386597 -0.173189
v -0.100000 0.090679 -0.155330
v -0.080330 0.090679 -0.175000
v 0.080330 0.090679 -0.175000
v 0.100000 0.090679 -0.155330
v 0.100000 0.090679 0.155330
v 0.080330 0.090679 0.175000
v -0.080330 0.090679 0.175000
v -0.100000 0.090679 0.155330
v 0.084674 0.402280 0.170657
v -0.084674 0.402280 0.170657
v -0.084674 0.402280 -0.170657
v 0.084674 0.402280 -0.170657
v -0.095657 0.402280 0.159674
v -0.095657 0.402280 -0.159674
v 0.095657 0.402280 -0.159674
v 0.095657 0.402280 0.159674
v -0.094861 0.402280 0.158878
v -0.083878 0.402280 0.169861
v -0.094861 0.402280 -0.158878
v -0.083878 0.402280 -0.169861
v 0.083878 0.402280 -0.169861
v 0.094861 0.402280 -0.158878
v 0.094861 0.402280 0.158878
v 0.083878 0.402280 0.169861
v -0.094861 0.096821 -0.158878
v -0.083878 0.096821 -0.169861
v 0.083878 0.096821 -0.169861
v 0.094861 0.096821 -0.158878
v 0.094861 0.096821 0.158878
v 0.083878 0.096821 0.169861
v -0.083878 0.096821 0.169861
v -0.094861 0.096821 0.158878
v 0.083878 0.527809 0.169861
v 0.094861 0.527809 0.158878
v 0.094861 0.527809 -0.158878
v 0.083878 0.527809 -0.169861
v -0.094861 0.527809 0.158878
v -0.083878 0.527809 0.169861
v -0.083878 0.527809 -0.169861
v -0.094861 0.527809 -0.158878
v 0.100000 0.000000 0.093198
v 0.100000 0.000000 -0.093198
v 0.100000 0.465134 0.071516
v 0.100000 0.465134 -0.071516
v 0.100000 0.112361 -0.071516
v 0.100000 0.112361 0.071516
v 0.100000 0.085811 0.093198
v 0.100000 0.085811 -0.093198
v 0.095920 0.090679 -0.092184
v 0.095920 0.090679 0.092184
v 0.095920 0.085811 0.092184
v 0.095920 0.085811 -0.092184
v -0.100000 0.000000 0.093198
v -0.100000 0.000000 -0.093198
v -0.100000 0.465134 -0.071516
v -0.100000 0.465134 0.071516
v -0.100000 0.112361 0.071516
v -0.100000 0.112361 -0.071516
v -0.100000 0.085811 -0.093198
v -0.100000 0.085811 0.093198
v -0.095920 0.090679 0.092184
v -0.095920 0.090679 -0.092184
v -0.095920 0.085811 -0.092184
v -0.095920 0.085811 0.092184
v -0.095920 0.538819 0.092184
v -0.095920 0.538819 -0.092184
v -0.095920 0.533951 -0.092184
v -0.095920 0.533951 0.092184
v 0.100000 0.486817 0.093198
v 0.100000 0.486817 -0.093198
v 0.100000 0.090679 -0.093198
v 0.100000 0.090679 0.093198
v -0.100000 0.486817 -0.093198
v -0.100000 0.486817 0.093198
v -0.100000 0.090679 0.093198
v -0.100000 0.090679 -0.093198
v 0.091777 0.430913 0.044649
v 0.091777 0.430913 -0.044649
v 0.091777 0.146583 -0.044649
v 0.091777 0.146583 0.044649
v -0.091777 0.430913 -0.044649
v -0.091777 0.430913 0.044649
v -0.091777 0.146583 0.044649
v -0.091777 0.146583 -0.044649
v -0.079469 0.538819 -0.172922
v -0.080330 0.540898 -0.175000
v 0.079469 0.538819 -0.172922
v 0.080330 0.540898 -0.175000
v 0.080330 0.540898 0.175000
v 0.079469 0.538819 0.172922
v -0.080330 0.540898 0.175000
v -0.079469 0.538819 0.172922
v -0.100000 0.540898 0.155330
v -0.097922 0.538819 0.154469
v -0.100000 0.540898 -0.155330
v -0.097922 0.538819 -0.154469
v 0.100000 0.540898 0.155330
v 0.097922 0.538819 0.154469
v 0.100000 0.540898 -0.155330
v 0.097922 0.538819 -0.154469
v 0.079469 0.533951 0.172922
v 0.080330 0.531873 0.175000
v 0.100000 0.531873 0.155330
v 0.097922 0.533951 0.154469
v 0.100000 0.531873 -0.155330
v 0.097922 0.533951 -0.154469
v 0.080330 0.531873 -0.175000
v 0.079469 0.533951 -0.172922
v -0.100000 0.531873 0.155330
v -0.097922 0.533951 0.154469
v -0.079469 0.533951 0.172922
v -0.080330 0.531873 0.175000
v -0.080330 0.531873 -0.175000
v -0.079469 0.533951 -0.172922
v -0.100000 0.531873 -0.155330
v -0.097922 0.533951 -0.154469
v -0.100000 0.540898 0.093198
v -0.097922 0.538819 0.092682
v -0.097922 0.538819 -0.092682
v -0.100000 0.540898 -0.093198
v -0.100000 0.531873 -0.093198
v -0.097922 0.533951 -0.092682
v -0.097922 0.533951 0.092682
v -0.100000 0.531873 0.093198
vn -1.0000 -0.0000 -0.0000
vn -0.0000 -0.0000 -1.0000
vn -0.0000 -1.0000 -0.0000
vn 1.0000 -0.0000 -0.0000
vn -0.0000 -0.0000 1.0000
vn -0.0000 1.0000 -0.0000
vn 0.7071 -0.0000 -0.7071
vn -0.7071 -0.0000 0.7071
vn 0.7071 -0.0000 0.7071
vn -0.7071 -0.0000 -0.7071
vn -0.0000 0.7071 -0.7071
vn -0.0000 0.7071 0.7071
vn -0.5000 0.7071 0.5000
vn -0.5000 0.7071 -0.5000
vn 0.5000 0.7071 -0.5000
vn 0.5000 0.7071 0.5000
vn -0.0000 -0.1331 0.9911
vn -0.0000 -0.1331 -0.9911
vn 0.7071 0.7071 -0.0000
vn -0.9723 0.2336 -0.0000
vn -0.7071 0.7071 -0.0000
vn -0.9562 -0.0000 0.2927
vn 0.9562 -0.0000 -0.2927
vn 0.9723 0.2336 -0.0000
vn -0.9562 -0.0000 -0.2927
vn -0.9723 -0.2336 -0.0000
vn 0.9562 -0.0000 0.2927
vn 0.9723 -0.2336 -0.0000
vn -0.0000 -0.7071 -0.7071
vn 0.5000 -0.7071 0.5000
vn -0.7071 -0.7071 -0.0000
vn -0.0000 -0.7071 0.7071
vn 0.5000 -0.7071 -0.5000
vn 0.7071 -0.7071 -0.0000
vn -0.5000 -0.7071 0.5000
vn -0.5000 -0.7071 -0.5000
vt 0.536918 0.387313
vt 0.379685 0.387313
vt 0.375000 0.270341
vt 0.410754 0.270341
vt 0.410754 0.330816
vt 0.375000 0.330816
vt 0.579240 0.487253
vt 0.579240 0.506456
vt 0.583516 0.479659
vt 0.583516 0.514050
vt 0.125000 0.514050
vt 0.145341 0.500000
vt 0.205816 0.500000
vt 0.205816 0.750000
vt 0.145341 0.750000
vt 0.125000 0.735950
vt 0.125000 0.661983
vt 0.125000 0.588017
vt 0.583516 0.735950
vt 0.541603 0.838557
vt 0.375000 0.838557
vt 0.411769 0.838557
vt 0.583516 0.770341
vt 0.375000 0.770341
vt 0.410754 0.770341
vt 0.410754 0.830816
vt 0.375000 0.830816
vt 0.375000 0.419184
vt 0.410754 0.419184
vt 0.410754 0.479659
vt 0.375000 0.479659
vt 0.375000 0.919184
vt 0.410754 0.919184
vt 0.410754 0.979659
vt 0.375000 0.979659
vt 0.583516 0.000000
vt 0.583516 0.014050
vt 0.581032 0.479659
vt 0.581032 0.270341
vt 0.412783 0.161983
vt 0.542617 0.161983
vt 0.542617 0.235950
vt 0.412783 0.235950
vt 0.294184 0.500000
vt 0.354659 0.500000
vt 0.375000 0.514050
vt 0.375000 0.588017
vt 0.375000 0.661983
vt 0.375000 0.735950
vt 0.354659 0.750000
vt 0.294184 0.750000
vt 0.412783 0.661983
vt 0.542617 0.661983
vt 0.542617 0.735950
vt 0.412783 0.735950
vt 0.412783 0.270341
vt 0.542617 0.270341
vt 0.543631 0.330816
vt 0.412783 0.330816
vt 0.580426 0.770341
vt 0.580426 0.979659
vt 0.542617 0.979659
vt 0.543327 0.921890
vt 0.543327 0.830816
vt 0.542617 0.770341
vt 0.412783 0.770341
vt 0.543631 0.830816
vt 0.412783 0.830816
vt 0.579240 0.762747
vt 0.542617 0.762747
vt 0.412783 0.919184
vt 0.543631 0.919184
vt 0.412783 0.979659
vt 0.415342 0.743544
vt 0.542617 0.743544
vt 0.412783 0.419184
vt 0.543631 0.419184
vt 0.542617 0.479659
vt 0.412783 0.479659
vt 0.620867 0.735950
vt 0.585030 0.735950
vt 0.585030 0.514050
vt 0.620867 0.514050
vt 0.579240 0.743544
vt 0.410754 0.661983
vt 0.410754 0.735950
vt 0.415342 0.487253
vt 0.542617 0.487253
vt 0.410754 0.270341
vt 0.375000 0.235950
vt 0.410754 0.235950
vt 0.410754 0.514050
vt 0.410754 0.770341
vt 0.375000 0.161983
vt 0.410754 0.161983
vt 0.542617 0.506456
vt 0.415342 0.506456
vt 0.580426 0.514050
vt 0.580426 0.735950
vt 0.542617 0.735950
vt 0.542617 0.588017
vt 0.542617 0.514050
vt 0.620867 0.479659
vt 0.620867 0.270341
vt 0.625000 0.274589
vt 0.625000 0.475411
vt 0.620867 0.979659
vt 0.620867 0.770341
vt 0.625000 0.774589
vt 0.625000 0.975411
vt 0.625000 0.002075
vt 0.625000 0.011975
vt 0.620867 0.014050
vt 0.620867 0.000000
vt 0.625000 0.241029
vt 0.625000 0.265262
vt 0.620867 0.270341
vt 0.620867 0.235950
vt 0.625000 0.484738
vt 0.625000 0.508971
vt 0.620867 0.479659
vt 0.625000 0.741029
vt 0.625000 0.765262
vt 0.620867 0.770341
vt 0.620867 0.735950
vt 0.585030 0.270341
vt 0.585030 0.479659
vt 0.650802 0.740893
vt 0.638184 0.732178
vt 0.653258 0.513202
vt 0.846742 0.513202
vt 0.638184 0.517822
vt 0.650802 0.509107
vt 0.849198 0.509106
vt 0.861816 0.517822
vt 0.644113 0.730482
vt 0.653258 0.736798
vt 0.861816 0.732178
vt 0.849198 0.740893
vt 0.644113 0.519518
vt 0.583516 0.479659
vt 0.583516 0.270341
vt 0.415342 0.010947
vt 0.415342 0.003102
vt 0.585030 0.770341
vt 0.585030 0.979659
vt 0.583516 0.235950
vt 0.620867 0.014050
vt 0.620867 0.235950
vt 0.585030 0.235950
vt 0.585030 0.161983
vt 0.585030 0.088017
vt 0.585030 0.014050
vt 0.375000 0.000000
vt 0.410754 0.000000
vt 0.410754 0.014050
vt 0.375000 0.014050
vt 0.542617 0.262747
vt 0.415342 0.262747
vt 0.583516 0.770341
vt 0.583516 0.979659
vt 0.581032 0.979659
vt 0.581032 0.770341
vt 0.412783 0.235950
vt 0.412783 0.270341
vt 0.375000 0.911443
vt 0.541603 0.911443
vt 0.411769 0.911443
vt 0.580426 0.479659
vt 0.543327 0.421890
vt 0.543327 0.330816
vt 0.580426 0.270341
vt 0.543327 0.828110
vt 0.541603 0.411443
vt 0.541603 0.338557
vt 0.410754 0.588017
vt 0.410754 0.588017
vt 0.543327 0.328110
vt 0.412783 0.661983
vt 0.585030 0.479659
vt 0.375000 0.338557
vt 0.411769 0.338557
vt 0.580426 0.514050
vt 0.536918 0.862687
vt 0.536918 0.887313
vt 0.410754 0.088017
vt 0.410754 0.088017
vt 0.213557 0.500000
vt 0.286443 0.500000
vt 0.286443 0.750000
vt 0.213557 0.750000
vt 0.411769 0.838557
vt 0.411769 0.911443
vt 0.411769 0.338557
vt 0.411769 0.411443
vt 0.375000 0.411443
vt 0.411769 0.411443
vt 0.412783 0.479659
vt 0.412783 0.514050
vt 0.412783 0.735950
vt 0.412783 0.770341
vt 0.412783 0.000000
vt 0.412783 0.014050
vt 0.412783 0.161983
vt 0.410754 0.161983
vt 0.410754 0.661983
vt 0.581032 0.735950
vt 0.583516 0.161983
vt 0.581032 0.235950
vt 0.581032 0.161983
vt 0.581032 0.514050
vt 0.581032 0.479659
vt 0.581032 0.014050
vt 0.581032 0.000000
vt 0.585030 0.000000
vt 0.585030 0.014050
vt 0.542617 0.010947
vt 0.579240 0.010947
vt 0.580426 0.014050
vt 0.542617 0.014050
vt 0.579240 0.262747
vt 0.580426 0.270341
vt 0.585030 0.270341
vt 0.585030 0.235950
vt 0.580426 0.770341
vt 0.585030 0.770341
vt 0.585030 0.735950
vt 0.579240 0.003102
vt 0.580426 -0.000000
vt 0.580426 0.014050
vt 0.649589 0.507084
vt 0.850411 0.507084
vt 0.850411 0.742916
vt 0.649589 0.742916
vt 0.864744 0.733016
vt 0.864744 0.516984
vt 0.635257 0.516984
vt 0.635257 0.733016
vt 0.845529 0.515224
vt 0.654471 0.515224
vt 0.846742 0.736798
vt 0.654471 0.734776
vt 0.845529 0.734776
vt 0.855887 0.730482
vt 0.852959 0.729644
vt 0.855887 0.519518
vt 0.852959 0.520356
vt 0.647041 0.520356
vt 0.647041 0.729644
vt 0.845529 0.734776
vt 0.647040 0.520356
vt 0.845529 0.515224
vt 0.852959 0.520356
vt 0.379685 0.862687
vt 0.379685 0.887313
vt 0.536918 0.362687
vt 0.379685 0.362687
vt 0.536082 0.883010
vt 0.380521 0.883010
vt 0.536082 0.383010
vt 0.380521 0.383010
vt 0.536082 0.866989
vt 0.380521 0.866990
vt 0.536082 0.366990
vt 0.380521 0.366990
vt 0.415342 0.243544
vt 0.415342 0.762747
vt 0.580426 0.735950
vt 0.580426 0.479659
vt 0.542617 0.003102
vt 0.542617 0.000000
vt 0.580426 0.000000
vt 0.579240 0.243544
vt 0.542617 0.243544
vt 0.542617 0.235950
vt 0.580426 0.235950
vt 0.580426 0.735950
vt 0.580426 0.770341
vt 0.580426 0.235950
vt 0.580426 0.270341
vt 0.579338 0.088017
vt 0.542617 0.088017
vt 0.542617 0.014050
vt 0.542617 0.514050
vt 0.580426 0.479659
vt 0.580426 0.514050
vt 0.581032 0.088017
vt 0.581032 0.014050
vt 0.581032 0.735950
vt 0.412783 0.514050
vt 0.412783 0.588017
vt 0.412783 0.588017
vt 0.419889 0.153379
vt 0.419889 0.096621
vt 0.412783 0.014050
vt 0.412783 0.088017
vt 0.412783 0.088017
vt 0.579338 0.161983
vt 0.580426 0.235950
vt 0.583516 0.161983
vt 0.579338 0.161983
vt 0.583516 0.088017
vt 0.583516 0.088017
vt 0.625000 0.016984
vt 0.625000 0.233016
vt 0.375000 0.088017
vt 0.535510 0.153379
vt 0.535510 0.653379
vt 0.535510 0.596621
vt 0.419889 0.596621
vt 0.419889 0.653379
vt 0.535510 0.096621
s 0
usemtl M_Blanc
f 82/7/3 88/8/3 255/8/3 256/7/3
f 307/9/3 320/10/3 134/10/3 144/9/3
f 320/10/3 318/19/3 135/19/3 134/10/3
f 318/19/3 310/23/3 137/23/3 135/19/3
f 312/36/3 314/37/3 140/37/3 147/36/3
f 328/38/6 334/39/6 145/39/6 143/38/6
f 296/40/1 293/41/1 11/42/1 221/43/1
f 292/52/4 289/53/4 15/54/4 225/55/4
f 222/56/2 12/57/2 61/58/2 54/59/2
f 322/60/5 332/61/5 10/62/5 60/63/5 57/64/5 16/65/5
f 226/66/5 16/65/5 57/67/5 50/68/5
f 83/69/7 229/70/7 244/70/7 253/69/7
f 52/71/5 60/72/5 10/62/5 227/73/5
f 78/74/8 236/75/8 243/75/8 249/74/8
f 56/76/2 64/77/2 13/78/2 223/79/2
f 28/80/4 317/81/4 319/82/4 30/83/4
f 87/84/3 83/69/3 253/69/3 254/84/3
f 74/87/9 232/88/9 241/88/9 247/87/9
f 235/96/10 75/97/10 248/97/10 242/96/10
f 325/98/4 323/99/4 15/100/4 289/53/4 290/101/4 14/102/4
f 32/103/11 22/104/11 152/105/11 153/106/11
f 20/107/12 26/108/12 156/109/12 149/110/12
f 149/111/13 150/112/13 18/113/13 20/114/13
f 151/115/14 152/116/14 22/117/14 24/118/14
f 153/119/15 154/120/15 30/83/15 32/121/15
f 155/122/16 156/123/16 26/124/16 28/125/16
f 306/126/2 22/104/2 32/103/2 308/127/2
f 40/128/10 39/129/10 177/129/10 180/128/10
f 38/132/8 37/133/8 173/133/8 176/132/8
f 36/134/9 35/135/9 169/135/9 172/134/9
f 34/138/7 33/139/7 165/139/7 168/138/7
f 307/141/3 144/141/3 146/142/3 305/142/3
f 67/143/6 66/144/6 251/144/6 252/143/6
f 309/145/5 26/108/5 20/107/5 311/146/5
f 316/147/3 305/142/3 146/142/3 141/147/3
f 18/148/1 24/149/1 315/150/1 340/151/1 337/152/1 313/153/1
f 231/158/8 71/159/8 246/159/8 240/158/8
f 310/160/3 312/161/3 147/161/3 137/160/3
f 331/162/6 321/163/6 138/163/6 148/162/6
f 221/164/3 222/165/3 119/165/3 118/164/3
f 56/76/3 223/79/3 122/79/3 98/76/3
f 327/169/2 13/78/2 64/170/2 61/171/2 12/57/2 333/172/2
f 57/173/17 60/63/17 112/63/17 109/173/17
f 226/66/3 50/68/3 91/68/3 127/66/3
f 61/178/18 64/170/18 116/170/18 113/178/18
f 292/52/3 225/55/3 126/55/3 270/179/3
f 30/83/7 319/82/7 308/180/7 32/121/7
f 64/77/1 56/76/1 98/76/1 116/77/1
f 222/56/3 54/59/3 97/59/3 119/56/3
f 235/96/7 88/8/7 325/183/7 14/102/7
f 54/59/4 61/58/4 113/58/4 97/59/4
f 52/71/3 227/73/3 130/73/3 92/71/3
f 223/198/3 224/199/3 123/199/3 122/198/3
f 311/215/8 20/114/8 18/113/8 313/216/8
f 233/217/8 85/218/8 329/219/8 9/220/8
f 225/200/3 226/201/3 127/201/3 126/200/3
f 231/158/10 81/221/10 333/222/10 12/57/10
f 22/117/10 306/223/10 315/224/10 24/118/10
f 229/70/9 83/69/9 322/225/9 16/65/9
f 26/124/9 309/226/9 317/227/9 28/125/9
f 50/68/1 57/67/1 109/67/1 91/68/1
f 227/202/3 228/203/3 131/203/3 130/202/3
f 60/72/4 52/71/4 92/71/4 112/72/4
f 85/218/8 84/228/8 332/229/8 329/230/8
f 296/40/3 221/43/3 118/43/3 282/204/3
f 36/134/6 37/133/6 153/231/6 152/232/6
f 40/128/6 33/139/6 149/233/6 156/234/6
f 33/139/6 34/138/6 150/235/6 149/233/6
f 35/135/6 36/134/6 152/232/6 151/236/6
f 37/133/6 38/132/6 154/237/6 153/231/6
f 39/129/6 40/128/6 156/234/6 155/238/6
f 37/133/5 36/134/5 172/134/5 173/133/5
f 33/139/2 40/128/2 180/128/2 165/139/2
f 70/266/10 71/159/10 222/165/10 221/164/10
f 74/87/7 75/97/7 224/199/7 223/198/7
f 78/74/9 79/267/9 226/201/9 225/200/9
f 66/144/8 67/143/8 228/203/8 227/202/8
f 87/84/9 236/75/9 15/100/9 323/268/9
f 82/7/7 232/88/7 13/78/7 327/269/7
f 84/228/8 230/270/8 10/271/8 332/272/8
f 86/273/10 234/274/10 11/275/10 335/276/10
f 79/267/9 229/70/9 16/65/9 226/201/9
f 230/270/8 66/144/8 227/202/8 10/271/8
f 71/159/10 231/158/10 12/57/10 222/165/10
f 232/88/7 74/87/7 223/198/7 13/78/7
f 83/69/9 87/84/9 323/277/9 322/278/9
f 334/39/6 336/209/6 142/209/6 145/39/6
f 81/221/10 86/273/10 335/279/10 333/280/10
f 9/220/1 329/230/1 344/281/1 294/282/1
f 67/143/8 233/217/8 9/283/8 228/203/8
f 234/274/10 70/266/10 221/164/10 11/42/10
f 75/97/7 235/96/7 14/284/7 224/199/7
f 236/75/9 78/74/9 225/200/9 15/54/9
f 336/209/6 342/210/6 287/210/6 142/209/6
f 88/8/7 82/7/7 327/285/7 325/286/7
f 343/287/6 330/288/6 139/288/6 288/287/6
f 234/274/7 86/273/7 260/273/7 239/274/7
f 230/270/10 84/228/10 258/228/10 238/270/10
f 84/228/3 85/218/3 257/218/3 258/228/3
f 88/8/10 235/96/10 242/96/10 255/8/10
f 81/221/8 231/158/8 240/158/8 259/221/8
f 86/273/3 81/221/3 259/221/3 260/273/3
f 236/75/8 87/84/8 254/84/8 243/75/8
f 71/159/6 70/266/6 245/266/6 246/159/6
f 232/88/9 82/7/9 256/7/9 241/88/9
f 229/70/7 79/267/7 250/267/7 244/70/7
f 85/218/9 233/217/9 237/217/9 257/218/9
f 75/97/6 74/87/6 247/87/6 248/97/6
f 233/217/9 67/143/9 252/143/9 237/217/9
f 66/144/10 230/270/10 238/270/10 251/144/10
f 79/267/6 78/74/6 249/74/6 250/267/6
f 70/266/7 234/274/7 239/274/7 245/266/7
f 38/132/6 39/129/6 155/238/6 154/237/6
f 324/289/6 326/211/6 133/211/6 136/289/6
f 224/290/3 291/292/3 269/291/3 123/290/3
f 291/292/3 292/52/3 270/179/3 269/291/3
f 39/129/1 38/132/1 176/132/1 177/129/1
f 28/80/19 30/83/19 154/237/19 155/238/19
f 326/211/6 328/212/6 143/212/6 133/211/6
f 321/163/6 324/207/6 136/207/6 138/163/6
f 224/290/4 14/284/4 290/101/4 291/292/4
f 278/293/20 277/294/20 303/294/20 304/293/20
f 35/135/4 34/138/4 168/138/4 169/135/4
f 34/138/6 35/135/6 151/236/6 150/235/6
f 228/295/3 295/296/3 281/297/3 131/295/3
f 295/296/3 296/40/3 282/204/3 281/297/3
f 293/41/1 341/298/1 335/299/1 11/275/1
f 339/300/3 316/147/3 141/147/3 286/208/3
f 294/282/1 344/281/1 341/301/1 293/41/1
f 314/37/3 338/302/3 285/302/3 140/37/3
f 338/303/3 339/208/3 286/208/3 285/302/3
f 150/304/21 151/305/21 24/149/21 18/148/21
f 228/295/1 9/283/1 294/282/1 295/296/1
f 275/307/22 278/293/22 304/293/22 301/307/22
f 330/213/6 331/214/6 148/214/6 139/213/6
f 342/210/6 343/287/6 288/287/6 287/210/6
f 263/308/4 264/309/4 290/101/4 289/53/4
f 265/310/4 266/311/4 292/52/4 291/292/4
f 264/309/4 265/310/4 291/292/4 290/101/4
f 266/311/4 263/308/4 289/53/4 292/52/4
f 275/307/1 276/312/1 294/282/1 293/41/1
f 277/294/1 278/293/1 296/40/1 295/296/1
f 276/312/1 277/294/1 295/296/1 294/282/1
f 278/293/1 275/307/1 293/41/1 296/40/1
f 299/310/4 298/309/4 297/308/4 300/311/4
f 303/294/1 302/312/1 301/307/1 304/293/1
f 263/308/23 266/311/23 300/311/23 297/308/23
f 266/311/24 265/310/24 299/310/24 300/311/24
f 277/294/25 276/312/25 302/312/25 303/294/25
f 276/312/26 275/307/26 301/307/26 302/312/26
f 265/310/27 264/309/27 298/309/27 299/310/27
f 264/309/28 263/308/28 297/308/28 298/309/28
f 306/126/29 308/127/29 307/141/29 305/142/29
f 327/169/11 333/172/11 334/39/11 328/38/11
f 322/278/16 323/277/16 324/207/16 321/163/16
f 317/227/30 309/226/30 310/23/30 318/19/30
f 340/151/31 315/150/31 316/147/31 339/300/31
f 344/281/21 329/230/21 330/288/21 343/287/21
f 309/145/32 311/146/32 312/161/32 310/160/32
f 325/286/15 327/285/15 328/212/15 326/211/15
f 308/180/33 319/82/33 320/10/33 307/9/33
f 332/61/12 322/60/12 321/163/12 331/162/12
f 319/82/34 317/81/34 318/19/34 320/10/34
f 311/215/35 313/216/35 314/37/35 312/36/35
f 329/230/13 332/229/13 331/214/13 330/213/13
f 333/280/14 335/279/14 336/209/14 334/39/14
f 315/224/36 306/223/36 305/142/36 316/147/36
f 323/99/19 325/98/19 326/211/19 324/289/19
f 313/153/31 337/152/31 338/302/31 314/37/31
f 337/152/31 340/151/31 339/208/31 338/303/31
f 335/299/21 341/298/21 342/210/21 336/209/21
f 341/301/21 344/281/21 343/287/21 342/210/21
usemtl M_Noir_Profond
f 90/26/5 91/68/5 89/192/5
f 93/33/5 94/193/5 92/71/5
f 96/5/2 97/59/2 95/194/2
f 99/29/2 100/195/2 98/76/2
f 95/194/2 101/181/2 102/6/2 96/5/2
f 99/29/2 103/28/2 104/196/2 100/197/2
f 89/192/5 105/21/5 106/27/5 90/26/5
f 93/33/5 107/32/5 108/166/5 94/168/5
f 101/188/3 108/191/3 107/14/3 102/13/3
f 103/44/3 106/51/3 105/190/3 104/189/3
f 110/20/5 89/22/5 91/68/5 109/67/5
f 112/72/5 92/71/5 94/193/5 111/167/5
f 114/175/2 95/182/2 97/59/2 113/58/2
f 116/77/2 98/76/2 100/195/2 115/174/2
f 113/178/2 116/170/2 115/174/2 114/175/2
f 109/173/5 112/63/5 111/167/5 110/20/5
f 118/164/10 119/165/10 120/89/10 117/91/10
f 122/198/7 123/199/7 124/92/7 121/30/7
f 126/200/9 127/201/9 128/93/9 125/86/9
f 130/202/8 131/203/8 132/156/8 129/155/8
f 282/204/1 118/43/1 117/91/1 283/205/1
f 92/71/5 130/73/5 129/34/5 93/33/5
f 119/56/2 97/59/2 96/5/2 120/4/2
f 270/179/4 126/55/4 125/86/4 271/206/4
f 127/66/5 91/68/5 90/26/5 128/25/5
f 98/76/2 122/79/2 121/30/2 99/29/2
f 146/142/2 144/141/2 143/38/2 145/39/2
f 138/163/9 136/207/9 135/19/9 137/23/9
f 286/208/1 141/147/1 142/209/1 287/210/1
f 137/160/5 147/161/5 148/162/5 138/163/5
f 133/211/7 143/212/7 144/9/7 134/10/7
f 147/36/8 140/37/8 139/213/8 148/214/8
f 145/39/10 142/209/10 141/147/10 146/142/10
f 200/258/4 199/259/4 215/259/4 216/258/4
f 204/260/1 203/261/1 219/261/1 220/260/1
f 197/262/5 198/263/5 206/254/5 205/184/5
f 199/259/5 200/258/5 208/185/5 207/255/5
f 201/264/2 202/265/2 210/257/2 209/256/2
f 203/261/2 204/260/2 212/1/2 211/2/2
f 204/260/2 201/264/2 209/256/2 212/1/2
f 200/258/5 197/262/5 205/184/5 208/185/5
f 202/265/2 203/261/2 211/2/2 210/257/2
f 198/263/5 199/259/5 207/255/5 206/254/5
f 203/261/6 202/265/6 218/265/6 219/261/6
f 201/264/3 204/260/3 220/260/3 217/264/3
f 202/265/4 201/264/4 217/264/4 218/265/4
f 198/263/1 197/262/1 213/262/1 214/263/1
f 199/259/6 198/263/6 214/263/6 215/259/6
f 197/262/3 200/258/3 216/258/3 213/262/3
f 134/10/4 135/19/4 136/289/4 133/211/4
f 123/290/4 269/291/4 272/177/4 124/92/4
f 269/291/4 270/179/4 271/206/4 272/177/4
f 140/37/1 285/302/1 288/287/1 139/288/1
f 285/302/1 286/208/1 287/210/1 288/287/1
f 131/295/1 281/297/1 284/187/1 132/156/1
f 281/297/1 282/204/1 283/205/1 284/187/1
usemtl M_Noir_Bleuté
f 63/1/1 42/2/1 211/2/1 212/1/1
f 4/3/2 72/4/2 53/5/2 44/6/2
f 3/11/3 4/12/3 44/13/3 45/14/3 1/15/3 2/16/3 273/17/3 274/18/3
f 189/20/4 190/21/4 105/21/4 89/22/4 110/20/4
f 6/24/5 80/25/5 49/26/5 48/27/5
f 41/28/2 55/29/2 73/30/2 7/31/2
f 45/32/5 51/33/5 65/34/5 1/35/5
f 41/44/3 7/45/3 8/46/3 262/47/3 261/48/3 5/49/3 6/50/3 48/51/3
f 261/48/4 267/85/4 77/86/4 5/49/4
f 72/89/10 4/3/10 3/90/10 69/91/10
f 76/92/7 8/46/7 7/31/7 73/30/7
f 80/93/9 6/24/9 5/49/9 77/86/9
f 274/94/1 279/95/1 69/91/1 3/90/1
f 31/130/2 174/130/2 171/131/2 21/131/2
f 27/136/9 25/137/9 179/137/9 178/136/9
f 31/130/7 29/140/7 175/140/7 174/130/7
f 1/154/8 65/155/8 68/156/8 2/157/8
f 51/33/4 45/32/4 107/32/4 93/33/4
f 72/89/6 69/91/6 117/91/6 120/89/6
f 48/27/1 49/26/1 90/26/1 106/27/1
f 73/30/6 55/29/6 99/29/6 121/30/6
f 191/166/1 192/167/1 111/167/1 94/168/1 108/166/1
f 192/167/6 189/20/6 110/20/6 111/167/6
f 49/26/6 80/25/6 128/25/6 90/26/6
f 55/29/1 41/28/1 103/28/1 99/29/1
f 196/174/6 193/175/6 114/175/6 115/174/6
f 268/176/6 76/92/6 124/92/6 272/177/6
f 44/6/4 53/5/4 96/5/4 102/6/4
f 194/181/1 101/181/1 95/182/1 114/175/1 193/175/1
f 53/5/6 72/4/6 120/4/6 96/5/6
f 65/34/6 51/33/6 93/33/6 129/34/6
f 58/184/3 59/185/3 208/185/3 205/184/3
f 280/186/6 68/156/6 132/156/6 284/187/6
f 194/188/3 195/189/3 190/190/3 191/191/3
f 194/188/1 191/191/1 108/191/1 101/188/1
f 76/92/6 73/30/6 121/30/6 124/92/6
f 45/14/4 44/13/4 102/13/4 107/14/4
f 41/44/1 48/51/1 106/51/1 103/44/1
f 190/190/4 195/189/4 104/189/4 105/190/4
f 80/93/6 77/86/6 125/86/6 128/93/6
f 68/156/6 65/155/6 129/155/6 132/156/6
f 195/196/4 196/174/4 115/174/4 100/197/4 104/196/4
f 31/130/6 21/131/6 160/239/6 161/240/6
f 19/241/6 25/137/6 164/242/6 157/243/6
f 17/244/6 19/241/6 157/243/6 158/245/6
f 21/131/6 23/246/6 159/247/6 160/239/6
f 29/140/6 31/130/6 161/240/6 162/248/6
f 25/137/6 27/136/6 163/249/6 164/242/6
f 19/241/5 166/241/5 179/137/5 25/137/5
f 19/241/8 17/244/8 167/244/8 166/241/8
f 23/246/10 21/131/10 171/131/10 170/246/10
f 157/243/2 164/242/2 188/242/2 182/250/2
f 164/242/10 163/249/10 184/249/10 188/242/10
f 162/248/8 161/240/8 187/240/8 183/251/8
f 161/240/5 160/239/5 186/252/5 187/240/5
f 160/239/9 159/247/9 185/253/9 186/252/9
f 158/245/7 157/243/7 182/250/7 181/245/7
f 58/184/5 47/254/5 190/21/5 189/20/5
f 46/255/5 59/185/5 192/167/5 191/166/5
f 62/256/2 43/257/2 194/181/2 193/175/2
f 42/2/2 63/1/2 196/174/2 195/196/2
f 63/1/2 62/256/2 193/175/2 196/174/2
f 59/185/5 58/184/5 189/20/5 192/167/5
f 43/257/2 42/2/2 195/196/2 194/181/2
f 47/254/5 46/255/5 191/166/5 190/21/5
f 59/185/4 46/255/4 207/255/4 208/185/4
f 42/2/6 43/257/6 210/257/6 211/2/6
f 62/256/3 63/1/3 212/1/3 209/256/3
f 43/257/4 62/256/4 209/256/4 210/257/4
f 47/254/1 58/184/1 205/184/1 206/254/1
f 46/255/6 47/254/6 206/254/6 207/255/6
f 163/249/1 162/248/1 183/251/1 184/249/1
f 29/140/4 27/136/4 178/136/4 175/140/4
f 27/136/6 29/140/6 162/248/6 163/249/6
f 77/86/6 267/85/6 271/206/6 125/86/6
f 267/85/6 268/176/6 272/177/6 271/206/6
f 8/46/4 76/92/4 268/176/4 262/47/4
f 262/47/4 268/176/4 267/85/4 261/48/4
f 159/247/4 158/245/4 181/245/4 185/253/4
f 23/246/6 17/244/6 158/245/6 159/247/6
f 69/91/6 279/95/6 283/205/6 117/91/6
f 279/95/6 280/186/6 284/187/6 283/205/6
f 184/249/6 183/251/6 187/240/6 186/252/6 185/253/6 181/245/6 182/250/6 188/242/6
f 17/244/1 23/246/1 170/246/1 167/244/1
f 2/157/1 68/156/1 280/186/1 273/306/1
f 273/306/1 280/186/1 279/95/1 274/94/1
usemtl M_Orange
f 171/131/6 174/130/6 173/133/6 172/134/6
f 179/137/6 166/241/6 165/139/6 180/128/6
f 166/241/6 167/244/6 168/138/6 165/139/6
f 170/246/6 171/131/6 172/134/6 169/135/6
f 174/130/6 175/140/6 176/132/6 173/133/6
f 178/136/6 179/137/6 180/128/6 177/129/6
f 255/8/7 242/96/7 241/88/7 256/7/7
f 240/158/10 246/159/10 245/266/10 239/274/10
f 244/70/9 250/267/9 249/74/9 243/75/9
f 242/96/7 248/97/7 247/87/7 241/88/7
f 251/144/8 238/270/8 237/217/8 252/143/8
f 238/270/8 258/228/8 257/218/8 237/217/8
f 253/69/9 244/70/9 243/75/9 254/84/9
f 259/221/10 240/158/10 239/274/10 260/273/10
f 175/140/6 178/136/6 177/129/6 176/132/6
f 167/244/6 170/246/6 169/135/6 168/138/6
usemtl M_Cyan
f 214/263/5 213/262/5 216/258/5 215/259/5
f 218/265/2 217/264/2 220/260/2 219/261/2
