# Blender 4.2.3 LTS
# www.blender.org
mtllib SM_Wall_Mail_Slot.mtl
o SM_Wall_Mail_Slot
v 0.042067 -0.175555 0.220784
v 0.046778 -0.175555 0.220784
v 0.046778 -0.220784 0.175555
v 0.042067 -0.220784 0.175555
v 0.042067 0.175555 -0.220784
v 0.046778 0.175555 -0.220784
v 0.046778 0.220784 -0.175555
v 0.042067 0.220784 -0.175555
v 0.000000 -0.225000 -0.141600
v 0.000000 -0.225000 0.141600
v 0.000000 0.225000 0.141600
v 0.000000 0.225000 -0.141600
v 0.000000 -0.225000 0.177301
v 0.000000 -0.177301 0.225000
v 0.000000 0.177301 0.225000
v 0.000000 0.225000 0.177301
v 0.000000 -0.177301 -0.225000
v 0.000000 -0.225000 -0.177301
v 0.000000 0.225000 -0.177301
v 0.000000 0.177301 -0.225000
v 0.046778 -0.175555 -0.220784
v 0.042067 -0.175555 -0.220784
v 0.042067 -0.220784 -0.175555
v 0.046778 -0.220784 -0.175555
v 0.056936 0.167143 -0.225000
v 0.042067 0.177301 -0.225000
v 0.042067 0.225000 -0.177301
v 0.058094 0.216998 -0.185303
v 0.042067 -0.177301 -0.225000
v 0.056936 -0.167143 -0.225000
v 0.058094 -0.216998 -0.185303
v 0.042067 -0.225000 -0.177301
v 0.046778 -0.225000 0.141600
v 0.042067 -0.225000 0.141600
v 0.042067 -0.225000 -0.141600
v 0.046778 -0.225000 -0.141600
v 0.042067 0.225000 0.141600
v 0.046778 0.225000 0.141600
v 0.046778 0.225000 -0.141600
v 0.042067 0.225000 -0.141600
v 0.042067 -0.225000 0.177301
v 0.058094 -0.216998 0.185303
v 0.056936 -0.167143 0.225000
v 0.042067 -0.177301 0.225000
v 0.058094 0.216998 0.185303
v 0.042067 0.225000 0.177301
v 0.042067 0.177301 0.225000
v 0.056936 0.167143 0.225000
v 0.046778 0.220784 0.175555
v 0.042067 0.220784 0.175555
v 0.042067 0.175555 0.220784
v 0.046778 0.175555 0.220784
v 0.042067 -0.220437 -0.141600
v 0.046778 -0.220437 -0.141600
v 0.046778 -0.220437 0.141600
v 0.042067 -0.220437 0.141600
v 0.046778 0.220437 -0.141600
v 0.042067 0.220437 -0.141600
v 0.042067 0.220437 0.141600
v 0.046778 0.220437 0.141600
v 0.150000 -0.207107 0.141600
v 0.132107 -0.225000 0.141600
v 0.135408 -0.221700 -0.141600
v 0.150000 -0.207107 -0.141600
v 0.150000 0.207107 -0.141600
v 0.132107 0.225000 -0.141600
v 0.135408 0.221700 0.141600
v 0.150000 0.207107 0.141600
v 0.150000 -0.169890 0.207107
v 0.121950 -0.167143 0.225000
v 0.135408 -0.221700 0.171070
v 0.146700 -0.210408 0.166393
v 0.146700 0.210408 0.166393
v 0.135408 0.221700 0.171070
v 0.121950 0.167143 0.225000
v 0.150000 0.169890 0.207107
v 0.146700 -0.210408 -0.166393
v 0.135408 -0.221700 -0.171070
v 0.121950 -0.167143 -0.225000
v 0.150000 -0.169890 -0.207107
v 0.150000 0.169890 -0.207107
v 0.121950 0.167143 -0.225000
v 0.135408 0.221700 -0.171070
v 0.146700 0.210408 -0.166393
v 0.058094 -0.185303 0.216998
v 0.058094 0.185303 0.216998
v 0.058094 0.185303 -0.216998
v 0.058094 -0.185303 -0.216998
v 0.120791 0.185303 0.216998
v 0.120791 -0.185303 0.216998
v 0.120791 -0.185303 -0.216998
v 0.120791 0.185303 -0.216998
v 0.059679 -0.164400 0.221080
v 0.059679 0.164400 0.221080
v 0.059679 0.164400 -0.221080
v 0.059679 -0.164400 -0.221080
v 0.119206 0.164400 0.221080
v 0.119206 -0.164400 0.221080
v 0.119206 -0.164400 -0.221080
v 0.119206 0.164400 -0.221080
v 0.056936 -0.167143 0.221080
v 0.056936 0.167143 0.221080
v 0.056936 0.167143 -0.221080
v 0.056936 -0.167143 -0.221080
v 0.121950 0.167143 0.221080
v 0.121950 -0.167143 0.221080
v 0.121950 -0.167143 -0.221080
v 0.121950 0.167143 -0.221080
v 0.066817 0.138390 0.224264
v 0.066817 0.148251 0.224264
v 0.066817 0.148251 -0.224264
v 0.066817 0.138390 -0.224264
v 0.112069 0.148251 0.224264
v 0.112069 0.138390 0.224264
v 0.112069 0.138390 -0.224264
v 0.112069 0.148251 -0.224264
v 0.150000 0.138703 -0.141600
v 0.150000 0.086297 0.141600
v 0.150000 0.101922 -0.141600
v 0.150000 0.086297 -0.125975
v 0.150000 0.086297 -0.141600
v 0.150000 0.138703 -0.125975
v 0.150000 0.123078 -0.141600
v 0.150000 0.123078 0.141600
v 0.150000 0.138703 0.125975
v 0.150000 0.138703 0.141600
v 0.150000 0.086297 0.125975
v 0.150000 0.101922 0.141600
v 0.147782 0.088429 -0.125092
v 0.147782 0.102805 -0.139468
v 0.147782 0.122195 -0.139468
v 0.147782 0.136571 -0.125092
v 0.147782 0.136571 0.125092
v 0.147782 0.122195 0.139468
v 0.147782 0.102805 0.139468
v 0.147782 0.088429 0.125092
v 0.147782 0.086297 0.125975
v 0.147782 0.101922 0.141600
v 0.147782 0.123078 0.141600
v 0.147782 0.138703 0.125975
v 0.147782 0.138703 -0.125975
v 0.147782 0.123078 -0.141600
v 0.147782 0.101922 -0.141600
v 0.147782 0.086297 -0.125975
v 0.151124 0.093763 0.122883
v 0.151124 0.105014 0.134134
v 0.151124 0.119986 0.134134
v 0.151124 0.131237 0.122883
v 0.151124 0.131237 -0.122883
v 0.151124 0.119986 -0.134134
v 0.151124 0.105014 -0.134134
v 0.151124 0.093763 -0.122883
v 0.151124 0.088429 0.125092
v 0.151124 0.102805 0.139468
v 0.151124 0.122195 0.139468
v 0.151124 0.136571 0.125092
v 0.151124 0.136571 -0.125092
v 0.151124 0.122195 -0.139468
v 0.151124 0.102805 -0.139468
v 0.151124 0.088429 -0.125092
v 0.149210 0.095572 0.122133
v 0.149210 0.105764 0.132325
v 0.149210 0.119236 0.132325
v 0.149210 0.129428 0.122133
v 0.149210 0.129428 -0.122133
v 0.149210 0.119236 -0.132325
v 0.149210 0.105764 -0.132325
v 0.149210 0.095572 -0.122133
v 0.149210 0.093763 0.122883
v 0.149210 0.105014 0.134134
v 0.149210 0.119986 0.134134
v 0.149210 0.131237 0.122883
v 0.149210 0.131237 -0.122883
v 0.149210 0.119986 -0.134134
v 0.149210 0.105014 -0.134134
v 0.149210 0.093763 -0.122883
v 0.142317 0.120450 0.120489
v 0.142317 0.122077 0.122178
v 0.142317 0.123438 0.122178
v 0.142317 0.125065 0.120489
v 0.142317 0.125065 -0.120489
v 0.142317 0.123438 -0.122178
v 0.142317 0.122077 -0.122178
v 0.142317 0.120450 -0.120489
v 0.142317 0.095572 0.122133
v 0.142317 0.105764 0.132325
v 0.142317 0.119236 0.132325
v 0.142317 0.129428 0.122133
v 0.142317 0.129428 -0.122133
v 0.142317 0.119236 -0.132325
v 0.142317 0.105764 -0.132325
v 0.142317 0.095572 -0.122133
v 0.146791 0.121345 0.120128
v 0.146791 0.122457 0.121283
v 0.146791 0.123057 0.121283
v 0.146791 0.124170 0.120128
v 0.146791 0.124170 -0.120128
v 0.146791 0.123057 -0.121283
v 0.146791 0.122457 -0.121283
v 0.146791 0.121345 -0.120128
v 0.146791 0.120450 0.120489
v 0.146791 0.122077 0.122178
v 0.146791 0.123438 0.122178
v 0.146791 0.125065 0.120489
v 0.146791 0.125065 -0.120489
v 0.146791 0.123438 -0.122178
v 0.146791 0.122077 -0.122178
v 0.146791 0.120450 -0.120489
v 0.146296 0.121345 0.120128
v 0.146296 0.122457 0.121283
v 0.146296 0.123057 0.121283
v 0.146296 0.124170 0.120128
v 0.146296 0.124170 -0.120128
v 0.146296 0.123057 -0.121283
v 0.146296 0.122457 -0.121283
v 0.146296 0.121345 -0.120128
v 0.145646 0.015580 -0.138708
v 0.145646 0.015580 0.138708
v 0.150000 -0.185380 -0.141600
v 0.150000 -0.185380 0.141600
v 0.145646 -0.156413 -0.115143
v 0.145646 -0.132847 -0.138708
v 0.145646 -0.153218 -0.127065
v 0.145646 -0.144769 -0.135514
v 0.145646 -0.132847 0.138708
v 0.145646 -0.156413 0.115143
v 0.145646 -0.144769 0.135514
v 0.145646 -0.153218 0.127065
v 0.145646 0.018471 -0.141600
v 0.145646 0.018471 0.141600
v 0.145646 -0.155810 -0.128561
v 0.145646 -0.159304 -0.115523
v 0.145646 -0.146266 -0.138106
v 0.145646 -0.133228 -0.141600
v 0.145646 -0.159304 0.115523
v 0.145646 -0.155810 0.128561
v 0.145646 -0.146266 0.138106
v 0.145646 -0.133228 0.141600
v 0.148592 -0.113574 -0.066897
v 0.148592 -0.091530 -0.032675
v 0.148592 -0.070542 -0.032675
v 0.148592 -0.030561 -0.064269
v 0.148592 -0.025957 -0.069500
v 0.148592 -0.066554 0.000001
v 0.148592 -0.073178 -0.000001
v 0.148592 -0.030672 0.053178
v 0.148592 -0.025306 0.070165
v 0.148592 -0.109322 0.063619
v 0.148592 -0.114277 0.069515
v 0.148592 -0.045078 -0.032675
v 0.148592 -0.052129 -0.032675
v 0.148592 -0.048301 -0.034537
v 0.148592 -0.114335 -0.034897
v 0.148592 -0.109196 -0.032675
v 0.148592 -0.070536 0.069500
v 0.148592 -0.070537 0.063660
v 0.148592 -0.070537 -0.064342
v 0.148592 -0.072879 -0.069485
v 0.146984 -0.045078 -0.032675
v 0.146984 -0.052129 -0.032675
v 0.146984 -0.114335 -0.034897
v 0.146984 -0.109196 -0.032675
v 0.146984 -0.109322 0.063619
v 0.146984 -0.114277 0.069515
v 0.146984 -0.066554 0.000001
v 0.146984 -0.073178 -0.000001
v 0.146984 -0.030672 0.053178
v 0.146984 -0.025306 0.070165
v 0.146984 -0.030561 -0.064269
v 0.146984 -0.025957 -0.069500
v 0.146984 -0.070537 0.063660
v 0.146984 -0.070536 0.069500
v 0.146984 -0.070537 -0.064342
v 0.146984 -0.072879 -0.069485
v 0.148147 0.018471 -0.141600
v 0.150000 0.020324 -0.143453
v 0.150000 0.020324 0.143453
v 0.148147 0.018471 0.141600
v 0.150000 -0.129978 -0.143453
v 0.148147 -0.133228 -0.141600
v 0.148147 -0.159304 -0.115523
v 0.150000 -0.161039 -0.117259
v 0.148147 -0.146266 -0.138106
v 0.150000 -0.148911 -0.138342
v 0.148147 -0.155810 -0.128561
v 0.150000 -0.157785 -0.129432
v 0.150000 -0.161039 0.117259
v 0.148147 -0.159304 0.115523
v 0.148147 -0.133228 0.141600
v 0.150000 -0.129978 0.143453
v 0.148147 -0.155810 0.128561
v 0.150000 -0.157785 0.129432
v 0.148147 -0.146266 0.138106
v 0.150000 -0.148911 0.138342
v 0.146739 -0.153218 -0.127065
v 0.148592 -0.151557 -0.126106
v 0.148592 -0.154560 -0.114899
v 0.146739 -0.156413 -0.115143
v 0.146739 -0.144769 -0.135514
v 0.148592 -0.143810 -0.133852
v 0.146739 -0.156413 0.115143
v 0.148592 -0.154560 0.114899
v 0.148592 -0.151557 0.126106
v 0.146739 -0.153218 0.127065
v 0.148592 -0.143810 0.133852
v 0.146739 -0.144769 0.135514
v 0.148592 0.014356 -0.136669
v 0.146739 0.015580 -0.138708
v 0.146739 0.015580 0.138708
v 0.148592 0.014357 0.136658
v 0.146739 -0.132847 -0.138708
v 0.148592 -0.133272 -0.136676
v 0.148592 -0.133312 0.136665
v 0.146739 -0.132847 0.138708
v 0.135408 -0.221700 0.141600
v 0.132107 -0.225000 -0.141600
v 0.146700 -0.210408 -0.141600
v 0.146700 -0.210408 0.141600
v 0.135408 0.221700 -0.141600
v 0.132107 0.225000 0.141600
v 0.146700 0.210408 0.141600
v 0.146700 0.210408 -0.141600
v 0.150000 -0.207107 -0.169890
v 0.120791 -0.216998 -0.185303
v 0.120791 0.216998 -0.185303
v 0.150000 0.207107 -0.169890
v 0.120791 -0.216998 0.185303
v 0.150000 -0.207107 0.169890
v 0.150000 0.207107 0.169890
v 0.120791 0.216998 0.185303
v 0.146224 -0.209933 0.141600
v 0.134933 -0.221224 0.141600
v 0.134933 -0.221224 -0.141600
v 0.146224 -0.209933 -0.141600
v 0.146224 0.209933 -0.141600
v 0.134933 0.221224 -0.141600
v 0.134933 0.221224 0.141600
v 0.146224 0.209933 0.141600
v 0.146224 -0.209933 -0.166393
v 0.134933 -0.221224 -0.171070
v 0.134933 0.221224 -0.171070
v 0.146224 0.209933 -0.166393
v 0.134933 -0.221224 0.171070
v 0.146224 -0.209933 0.166393
v 0.146224 0.209933 0.166393
v 0.134933 0.221224 0.171070
v 0.046778 -0.177301 -0.225000
v 0.046778 -0.225000 -0.177301
v 0.046778 0.225000 -0.177301
v 0.046778 0.177301 -0.225000
v 0.046778 -0.225000 0.177301
v 0.046778 -0.177301 0.225000
v 0.046778 0.177301 0.225000
v 0.046778 0.225000 0.177301
v 0.132107 -0.225000 -0.177301
v 0.132107 -0.177301 -0.225000
v 0.132107 0.177301 -0.225000
v 0.132107 0.225000 -0.177301
v 0.132107 -0.177301 0.225000
v 0.132107 -0.225000 0.177301
v 0.132107 0.225000 0.177301
v 0.132107 0.177301 0.225000
v 0.062794 -0.185175 -0.212119
v 0.062794 -0.212119 -0.185175
v 0.062794 0.212119 -0.185175
v 0.062794 0.185175 -0.212119
v 0.062794 -0.212119 0.185175
v 0.062794 -0.185175 0.212119
v 0.062794 0.185175 0.212119
v 0.062794 0.212119 0.185175
v 0.116092 -0.212119 -0.185175
v 0.116092 -0.185175 -0.212119
v 0.116092 0.185175 -0.212119
v 0.116092 0.212119 -0.185175
v 0.116092 -0.185175 0.212119
v 0.116092 -0.212119 0.185175
v 0.116092 0.212119 0.185175
v 0.116092 0.185175 0.212119
v 0.059679 -0.164400 0.224264
v 0.059679 0.164400 0.224264
v 0.059679 0.164400 -0.224264
v 0.059679 -0.164400 -0.224264
v 0.119206 0.164400 0.224264
v 0.119206 -0.164400 0.224264
v 0.119206 -0.164400 -0.224264
v 0.119206 0.164400 -0.224264
v 0.068166 0.139740 0.223462
v 0.068166 0.146902 0.223462
v 0.068166 0.146902 -0.223462
v 0.068166 0.139740 -0.223462
v 0.110719 0.146902 0.223462
v 0.110719 0.139740 0.223462
v 0.110719 0.139740 -0.223462
v 0.110719 0.146902 -0.223462
v 0.066817 0.138390 0.223462
v 0.066817 0.148251 0.223462
v 0.066817 0.148251 -0.223462
v 0.066817 0.138390 -0.223462
v 0.112069 0.148251 0.223462
v 0.112069 0.138390 0.223462
v 0.112069 0.138390 -0.223462
v 0.112069 0.148251 -0.223462
v 0.068166 0.139740 0.222757
v 0.068166 0.146902 0.222757
v 0.068166 0.146902 -0.222757
v 0.068166 0.139740 -0.222757
v 0.110719 0.146902 0.222757
v 0.110719 0.139740 0.222757
v 0.110719 0.139740 -0.222757
v 0.110719 0.146902 -0.222757
vn -0.0000 1.0000 -0.0000
vn -0.0000 -1.0000 -0.0000
vn -0.0000 0.9997 0.0262
vn -1.0000 -0.0000 -0.0000
vn -0.0000 0.7071 0.7071
vn 0.6018 -0.5647 -0.5647
vn 1.0000 -0.0000 -0.0000
vn -0.6018 0.5647 0.5647
vn -0.0000 -0.9997 0.0262
vn -0.0000 -0.7071 -0.7071
vn -0.0000 -0.0000 -1.0000
vn -0.0000 -0.0000 1.0000
vn -0.0000 -0.7071 0.7071
vn -0.0000 -0.2588 -0.9659
vn -0.0000 0.7071 -0.7071
vn -0.0000 0.9999 -0.0102
vn -0.0000 -0.9999 -0.0102
vn -0.0000 -0.9999 0.0102
vn -0.0000 0.9999 0.0102
vn -0.7071 -0.7071 -0.0000
vn -0.1988 -0.1988 0.9597
vn 0.7071 -0.5000 -0.5000
vn 0.7071 0.5000 -0.5000
vn 0.7071 -0.5000 0.5000
vn 0.7071 0.5000 0.5000
vn 0.7071 -0.0000 0.7071
vn 0.7071 -0.7071 -0.0000
vn -0.7071 0.7071 -0.0000
vn 0.7071 -0.0000 -0.7071
vn -0.0000 -0.7202 0.6938
vn -0.0000 0.7202 -0.6938
vn -0.0000 -0.7202 -0.6938
vn -0.0000 0.7202 0.6938
vn -0.0000 0.2588 0.9659
vn -0.0000 0.9659 -0.2588
vn -0.0000 -0.9659 -0.2588
vn -0.0000 0.9659 0.2588
vn -0.0000 0.2588 -0.9659
vn -0.0000 -0.2588 0.9659
vn -0.0000 -0.9659 0.2588
vn -0.0000 0.8407 0.5416
vn -0.0000 -0.6337 -0.7736
vn -0.0000 0.8695 0.4940
vn -0.0000 -0.9991 0.0415
vn -0.0000 0.0018 -1.0000
vn -0.0000 -0.8357 -0.5492
vn -0.0000 -0.0004 -1.0000
vn -0.0000 1.0000 0.0009
vn -0.0000 0.0003 1.0000
vn -0.0000 0.8261 -0.5636
vn -0.0000 -1.0000 0.0047
vn -0.0000 -1.0000 -0.0013
vn -0.0000 -0.8289 0.5593
vn -0.0000 -1.0000 0.0001
vn -0.0000 1.0000 -0.0006
vn -0.0000 0.6406 0.7678
vn 0.4487 0.2323 0.8630
vn 0.7379 0.4777 0.4768
vn 0.7543 0.6342 0.1698
vn 0.7543 0.6342 -0.1698
vn 0.7379 0.4777 -0.4768
vn 0.4487 0.2323 -0.8630
vn 0.6836 0.7299 -0.0000
vn 0.5510 0.8345 -0.0000
vn 0.7071 -0.6830 -0.1830
vn 0.7071 -0.1830 -0.6830
vn 0.7071 -0.6830 0.1830
vn 0.7071 -0.1830 0.6830
vn 0.7395 -0.0000 -0.6731
vn 0.7413 -0.0000 0.6711
vn 0.7071 0.7071 -0.0000
vn -0.1988 0.1988 0.9597
vn -0.1988 -0.1988 -0.9597
vn -0.1988 0.1988 -0.9597
vn -0.0000 0.0262 0.9997
vn 0.6018 0.5647 -0.5647
vn -0.0000 0.0262 -0.9997
vn 0.6018 -0.5647 0.5647
vn -0.0000 -0.0262 -0.9997
vn 0.6018 0.5647 0.5647
vn -0.0000 -0.0262 0.9997
vn -0.6018 -0.5647 -0.5647
vn -0.0000 -0.9997 -0.0262
vn -0.6018 0.5647 -0.5647
vn -0.0000 0.9997 -0.0262
vn -0.6018 -0.5647 0.5647
vt 0.654821 0.583333
vt 0.797037 0.583333
vt 0.797037 0.666667
vt 0.654821 0.666667
vt 0.125000 0.547661
vt 0.195112 0.547661
vt 0.195112 0.583333
vt 0.125000 0.583333
vt 0.202963 0.547661
vt 0.345179 0.547661
vt 0.345179 0.583333
vt 0.202963 0.583333
vt 0.195112 0.583333
vt 0.195112 0.666667
vt 0.125000 0.666667
vt 0.654821 0.666667
vt 0.797037 0.666667
vt 0.797037 0.702339
vt 0.654821 0.702339
vt 0.804888 0.547661
vt 0.875000 0.547661
vt 0.875000 0.583333
vt 0.804888 0.583333
vt 0.202963 0.666667
vt 0.345179 0.666667
vt 0.345179 0.702339
vt 0.202963 0.702339
vt 0.602946 0.451318
vt 0.602946 0.346824
vt 0.375000 0.166667
vt 0.625000 0.166667
vt 0.625000 0.202339
vt 0.598501 0.250000
vt 0.401499 0.250000
vt 0.375000 0.202339
vt 0.195112 0.666667
vt 0.195112 0.702339
vt 0.125000 0.702339
vt 0.625000 0.929888
vt 0.625000 1.000000
vt 0.598501 1.000000
vt 0.598501 0.929888
vt 0.654821 0.547661
vt 0.797037 0.547661
vt 0.797037 0.583333
vt 0.221824 0.539665
vt 0.221824 0.507996
vt 0.375000 0.083333
vt 0.625000 0.083333
vt 0.384940 0.583333
vt 0.408829 0.583333
vt 0.435592 0.590496
vt 0.435592 0.659504
vt 0.408829 0.666667
vt 0.384940 0.666667
vt 0.602946 0.798682
vt 0.620554 0.798682
vt 0.326318 0.507995
vt 0.195112 0.500000
vt 0.202963 0.500000
vt 0.375000 0.047661
vt 0.401499 0.000000
vt 0.598501 0.000000
vt 0.625000 0.047661
vt 0.592857 0.796751
vt 0.592857 0.905107
vt 0.598501 0.320112
vt 0.401499 0.320112
vt 0.125000 0.500000
vt 0.401499 0.929888
vt 0.401499 1.000000
vt 0.804888 0.583333
vt 0.875000 0.666667
vt 0.804888 0.666667
vt 0.195112 0.702339
vt 0.195112 0.750000
vt 0.125000 0.750000
vt 0.804888 0.666667
vt 0.875000 0.702339
vt 0.804888 0.702339
vt 0.202963 0.583333
vt 0.345179 0.666667
vt 0.442526 0.584605
vt 0.446788 0.584116
vt 0.446788 0.584116
vt 0.592857 0.344893
vt 0.592857 0.453249
vt 0.437909 0.587170
vt 0.437674 0.587170
vt 0.442084 0.583479
vt 0.442084 0.583676
vt 0.577057 0.583333
vt 0.615060 0.583333
vt 0.615060 0.666667
vt 0.577057 0.666667
vt 0.401499 0.922037
vt 0.598501 0.922037
vt 0.202963 0.702339
vt 0.202963 0.750000
vt 0.625000 0.922037
vt 0.598501 0.320112
vt 0.625000 0.320112
vt 0.625000 0.250000
vt 0.625000 0.327963
vt 0.598501 0.327963
vt 0.401499 0.327963
vt 0.377606 0.558560
vt 0.377606 0.583333
vt 0.352513 0.553886
vt 0.375000 0.505236
vt 0.375000 0.542424
vt 0.345179 0.500000
vt 0.615060 0.555066
vt 0.594383 0.517878
vt 0.598501 0.500000
vt 0.625000 0.547661
vt 0.375000 0.707576
vt 0.375000 0.744764
vt 0.345179 0.750000
vt 0.594383 0.732122
vt 0.615060 0.694934
vt 0.625000 0.702339
vt 0.598501 0.750000
vt 0.405617 0.732122
vt 0.598501 0.779821
vt 0.401499 0.779821
vt 0.647487 0.666667
vt 0.647487 0.696114
vt 0.622394 0.666667
vt 0.622394 0.583333
vt 0.405617 0.517878
vt 0.401499 0.470179
vt 0.598501 0.470179
vt 0.622394 0.691440
vt 0.647487 0.583333
vt 0.501310 0.582788
vt 0.547943 0.583333
vt 0.547943 0.666667
vt 0.501310 0.667212
vt 0.407143 0.905107
vt 0.407143 0.344893
vt 0.407143 0.796751
vt 0.407143 0.453249
vt 0.408667 0.900535
vt 0.408667 0.801323
vt 0.408667 0.448677
vt 0.408667 0.349465
vt 0.591333 0.900535
vt 0.591333 0.349465
vt 0.591333 0.801323
vt 0.591333 0.448677
vt 0.412316 0.812270
vt 0.587684 0.812270
vt 0.412316 0.889587
vt 0.556623 0.666667
vt 0.568377 0.666667
vt 0.447046 0.668518
vt 0.501736 0.668518
vt 0.384940 0.694934
vt 0.549127 0.661809
vt 0.549127 0.588191
vt 0.547943 0.662069
vt 0.547943 0.587931
vt 0.568377 0.583333
vt 0.556623 0.583333
vt 0.547943 0.587931
vt 0.577057 0.587931
vt 0.577057 0.662069
vt 0.577057 0.662069
vt 0.557114 0.666039
vt 0.567886 0.666039
vt 0.575873 0.661809
vt 0.575873 0.588191
vt 0.567886 0.583960
vt 0.557114 0.583961
vt 0.572910 0.588841
vt 0.572910 0.661159
vt 0.552090 0.661159
vt 0.558341 0.664470
vt 0.566659 0.664470
vt 0.566659 0.585530
vt 0.558341 0.585530
vt 0.552090 0.588841
vt 0.558758 0.663937
vt 0.553096 0.660938
vt 0.566242 0.663937
vt 0.571904 0.660939
vt 0.571904 0.589061
vt 0.566242 0.586062
vt 0.558758 0.586063
vt 0.553096 0.589061
vt 0.562122 0.590365
vt 0.562878 0.590365
vt 0.561218 0.659156
vt 0.562122 0.659635
vt 0.562878 0.659635
vt 0.563782 0.659157
vt 0.563782 0.590843
vt 0.561218 0.590843
vt 0.562667 0.590618
vt 0.563285 0.590946
vt 0.561715 0.659054
vt 0.562333 0.659382
vt 0.562667 0.659382
vt 0.563285 0.659054
vt 0.562333 0.590618
vt 0.561715 0.590946
vt 0.446668 0.583333
vt 0.500000 0.583333
vt 0.500000 0.666667
vt 0.446668 0.666667
vt 0.446439 0.583333
vt 0.439835 0.583333
vt 0.442084 0.583479
vt 0.435592 0.659504
vt 0.435586 0.663086
vt 0.437500 0.658993
vt 0.437500 0.591007
vt 0.437500 0.658993
vt 0.437909 0.662830
vt 0.437674 0.662830
vt 0.438435 0.591107
vt 0.439019 0.587540
vt 0.439019 0.587540
vt 0.438435 0.591107
vt 0.437674 0.662830
vt 0.442084 0.666324
vt 0.442084 0.666521
vt 0.436732 0.583333
vt 0.435592 0.583333
vt 0.437500 0.591007
vt 0.435586 0.663086
vt 0.435561 0.665708
vt 0.435484 0.667212
vt 0.384940 0.555066
vt 0.501736 0.581482
vt 0.447046 0.581482
vt 0.408829 0.583333
vt 0.498983 0.665816
vt 0.498983 0.584184
vt 0.438435 0.658893
vt 0.439019 0.662460
vt 0.437500 0.658993
vt 0.442526 0.665395
vt 0.446788 0.665884
vt 0.442526 0.584605
vt 0.442526 0.665395
vt 0.446788 0.665884
vt 0.438435 0.591107
vt 0.455456 0.591390
vt 0.455114 0.607798
vt 0.455140 0.658876
vt 0.446579 0.664954
vt 0.446597 0.585015
vt 0.490760 0.660124
vt 0.490629 0.591167
vt 0.498737 0.584390
vt 0.498737 0.665645
vt 0.472611 0.591148
vt 0.446675 0.584321
vt 0.439052 0.591167
vt 0.439721 0.587793
vt 0.442834 0.585200
vt 0.446635 0.584704
vt 0.446621 0.665294
vt 0.442834 0.664800
vt 0.439721 0.662207
vt 0.439052 0.658833
vt 0.464386 0.608599
vt 0.472888 0.608583
vt 0.471819 0.624981
vt 0.489737 0.592541
vt 0.481896 0.607634
vt 0.480346 0.608569
vt 0.472890 0.592487
vt 0.456361 0.608633
vt 0.455148 0.607518
vt 0.472768 0.590109
vt 0.489692 0.655316
vt 0.471820 0.624981
vt 0.491211 0.662353
vt 0.472890 0.659898
vt 0.472889 0.656964
vt 0.471819 0.624981
vt 0.456311 0.656962
vt 0.471819 0.624982
vt 0.482478 0.608565
vt 0.480346 0.608568
vt 0.473951 0.624980
vt 0.472732 0.658853
vt 0.490366 0.659331
vt 0.498725 0.665622
vt 0.446664 0.665676
vt 0.472889 0.656964
vt 0.442084 0.583333
vt 0.438728 0.583333
vt 0.437500 0.583333
vt 0.437500 0.662830
vt 0.437500 0.665639
vt 0.437500 0.666667
vt 0.352513 0.583333
vt 0.352513 0.666667
vt 0.377606 0.666667
vt 0.647487 0.553886
vt 0.622394 0.558560
vt 0.352513 0.696114
vt 0.377606 0.691440
vt 0.620554 0.346824
vt 0.221824 0.710335
vt 0.221824 0.742004
vt 0.602946 0.903176
vt 0.620555 0.903176
vt 0.326318 0.539665
vt 0.620554 0.451318
vt 0.625000 0.470179
vt 0.326318 0.742004
vt 0.326318 0.710335
vt 0.625000 0.779821
vt 0.587684 0.889587
vt 0.587684 0.360413
vt 0.412316 0.360413
vt 0.412316 0.437730
vt 0.587684 0.437730
vt 0.436319 0.887281
vt 0.436319 0.814577
vt 0.436319 0.435423
vt 0.436319 0.362719
vt 0.563681 0.887281
vt 0.563681 0.362719
vt 0.563681 0.814577
vt 0.563681 0.435423
s 0
usemtl M_Blanc
f 66/1/1 39/2/1 38/3/1 320/4/1
f 348/9/2 355/10/2 316/11/2 36/12/2
f 320/16/1 38/17/1 354/18/1 361/19/1
f 33/24/2 62/25/2 360/26/2 351/27/2
f 92/28/3 87/29/3 366/29/3 373/28/3
f 358/43/1 349/44/1 39/45/1 66/1/1
f 31/46/6 88/47/6 363/47/6 364/46/6
f 64/50/7 219/51/7 282/52/7 287/53/7 220/54/7 61/55/7
f 89/56/8 330/57/8 377/57/8 378/56/8
f 88/47/9 91/58/9 372/58/9 363/47/9
f 75/65/2 48/66/2 102/66/2 105/65/2
f 36/81/2 316/11/2 62/82/2 33/24/2
f 224/83/14 222/84/14 311/85/14 299/83/14
f 25/86/2 82/87/2 108/87/2 103/86/2
f 231/88/5 285/89/5 283/90/5 233/91/5
f 117/92/7 65/93/7 68/94/7 126/95/7
f 38/3/4 39/2/4 57/2/4 60/3/4
f 348/9/4 36/12/4 54/12/4 24/9/4
f 352/96/4 353/97/4 52/97/4 2/96/4
f 351/98/4 352/99/4 2/99/4 3/98/4
f 33/24/4 351/27/4 3/27/4 55/24/4
f 353/97/4 354/100/4 49/100/4 52/97/4
f 354/18/4 38/17/4 60/17/4 49/18/4
f 347/60/4 348/9/4 24/9/4 21/60/4
f 350/105/4 347/106/4 21/106/4 6/105/4
f 36/81/4 33/24/4 55/24/4 54/81/4
f 349/104/4 350/105/4 6/105/4 7/104/4
f 39/45/4 349/44/4 7/44/4 57/45/4
f 77/107/20 317/108/20 334/108/20 339/107/20
f 78/109/21 77/107/21 339/107/21 340/109/21
f 80/110/22 323/111/22 355/10/22 356/112/22
f 326/113/23 81/114/23 357/115/23 358/116/23
f 328/117/24 69/118/24 359/119/24 360/26/24
f 76/120/25 329/121/25 361/122/25 362/123/25
f 69/124/26 76/120/26 362/125/26 359/126/26
f 67/127/27 74/128/27 346/128/27 337/127/27
f 321/129/28 322/130/28 335/130/28 338/129/28
f 81/114/29 80/131/29 356/132/29 357/133/29
f 73/134/28 321/129/28 338/129/28 345/134/28
f 319/135/27 67/127/27 337/127/27 336/135/27
f 276/136/7 121/137/7 118/138/7 277/139/7
f 43/140/12 48/66/12 353/97/12 352/96/12
f 25/86/11 30/141/11 347/106/11 350/105/11
f 75/65/12 70/142/12 359/126/12 362/125/12
f 79/143/11 82/87/11 357/133/11 356/132/11
f 70/142/12 43/140/12 352/96/12 359/126/12
f 48/66/12 75/65/12 362/125/12 353/97/12
f 30/141/11 79/143/11 356/132/11 347/106/11
f 82/87/11 25/86/11 350/105/11 357/133/11
f 93/144/2 98/145/2 384/145/2 379/144/2
f 99/146/2 96/147/2 382/147/2 385/146/2
f 82/87/4 79/143/4 107/143/4 108/87/4
f 30/141/7 25/86/7 103/86/7 104/141/7
f 79/143/1 30/141/1 104/141/1 107/143/1
f 43/140/1 70/142/1 106/142/1 101/140/1
f 70/142/4 75/65/4 105/65/4 106/142/4
f 48/66/7 43/140/7 101/140/7 102/66/7
f 114/152/4 113/153/4 399/153/4 400/152/4
f 109/154/1 114/152/1 400/152/1 395/154/1
f 98/145/7 97/150/7 383/150/7 384/145/7
f 94/148/4 93/144/4 379/144/4 380/148/4
f 95/149/1 100/151/1 386/151/1 381/149/1
f 97/150/1 94/148/1 380/148/1 383/150/1
f 100/151/7 99/146/7 385/146/7 386/151/7
f 96/147/4 95/149/4 381/149/4 382/147/4
f 126/95/1 118/138/1 128/155/1 124/156/1
f 61/55/7 220/54/7 290/157/7 277/158/7 118/138/7 126/95/7 68/94/7 329/121/7 76/120/7 69/124/7 328/159/7
f 124/156/11 128/155/11 138/155/11 139/156/11
f 127/162/1 120/163/1 144/163/1 137/162/1
f 121/137/1 117/92/1 123/164/1 119/165/1
f 118/138/1 121/137/1 120/166/1 127/162/1
f 122/167/2 125/168/2 140/168/2 141/167/2
f 117/92/7 126/95/7 125/169/7 122/167/7
f 119/165/7 120/137/7 121/137/7
f 122/167/7 123/92/7 117/92/7
f 124/156/7 125/95/7 126/95/7
f 127/162/7 128/138/7 118/138/7
f 127/162/15 137/162/15 138/155/15 128/155/15
f 140/168/10 125/168/10 124/156/10 139/156/10
f 122/167/13 141/167/13 142/164/13 123/164/13
f 144/163/5 120/163/5 119/165/5 143/165/5
f 119/165/12 123/164/12 142/164/12 143/165/12
f 280/208/12 275/209/12 229/209/12 234/208/12
f 278/210/11 289/211/11 238/211/11 230/210/11
f 279/212/7 284/213/7 219/51/7
f 233/91/34 283/214/34 280/208/34 234/208/34
f 287/215/7 292/216/7 220/54/7
f 288/217/1 281/218/1 232/218/1 235/219/1
f 288/219/35 235/219/35 236/220/35 291/221/35
f 221/222/36 223/223/36 295/224/36 298/225/36
f 291/226/15 236/220/15 237/227/15 293/228/15
f 286/229/7 282/230/7 219/51/7
f 284/213/7 286/229/7 219/51/7
f 232/218/37 281/231/37 285/89/37 231/88/37
f 293/228/38 237/227/38 238/211/38 289/211/38
f 292/232/7 294/233/7 220/54/7
f 294/233/7 290/234/7 220/54/7
f 323/235/7 80/131/7 81/114/7 326/113/7 65/93/7 117/92/7 121/137/7 276/236/7 279/237/7 219/238/7 64/50/7
f 223/223/10 224/83/10 299/246/10 295/223/10
f 225/245/39 227/244/39 306/247/39 314/248/39
f 226/241/2 221/222/2 298/249/2 301/241/2
f 239/250/7 253/251/7 249/252/7 313/253/7 312/254/7
f 247/255/7 243/256/7 307/257/7 310/258/7
f 228/242/40 226/241/40 301/241/40 304/242/40
f 243/256/7 258/259/7 239/250/7 312/260/7 307/257/7
f 217/240/1 218/239/1 309/239/1 308/240/1
f 227/244/13 228/242/13 304/242/13 306/244/13
f 297/261/7 296/262/7 300/263/7 312/264/7 313/265/7 305/266/7 303/267/7 302/268/7
f 240/269/7 241/270/7 245/271/7
f 242/272/7 252/273/7 251/274/7 241/270/7 257/275/7
f 222/84/11 217/240/11 308/240/11 311/84/11
f 245/280/7 247/281/7 255/282/7 256/283/7
f 245/284/41 251/274/41 260/274/41 266/284/41
f 218/239/12 225/245/12 314/245/12 309/239/12
f 245/284/7 241/270/7 251/274/7
f 248/285/7 254/276/7 240/269/7 245/286/7
f 257/275/42 254/276/42 262/276/42 273/275/42
f 250/287/7 251/288/7 252/273/7
f 251/288/12 250/287/12 259/287/12 260/288/12
f 248/285/43 245/286/43 266/286/43 263/285/43
f 245/280/44 256/283/44 271/283/44 266/280/44
f 242/272/45 257/275/45 273/275/45 269/272/45
f 250/287/46 244/289/46 265/289/46 259/287/46
f 258/278/7 253/277/7 239/250/7
f 250/287/7 252/273/7 242/272/7 246/279/7 244/289/7
f 255/290/47 249/252/47 264/252/47 272/290/47
f 249/252/7 255/290/7 247/291/7 310/292/7 313/293/7
f 246/279/48 242/272/48 269/272/48 267/279/48
f 240/269/7 254/276/7 257/275/7 241/270/7
f 258/259/49 243/256/49 270/256/49 274/259/49
f 247/281/50 245/280/50 266/280/50 268/281/50
f 243/256/51 247/255/51 268/255/51 270/256/51
f 254/276/52 248/285/52 263/285/52 262/276/52
f 244/289/53 246/279/53 267/279/53 265/289/53
f 256/283/54 255/282/54 272/282/54 271/283/54
f 249/252/55 253/251/55 261/251/55 264/252/55
f 253/277/56 258/278/56 274/278/56 261/277/56
f 276/136/27 277/139/27 278/210/27 275/209/27
f 280/208/57 283/214/57 284/213/57 279/212/57
f 283/295/58 285/296/58 286/229/58 284/213/58
f 285/296/59 281/297/59 282/230/59 286/229/59
f 288/219/60 291/221/60 292/216/60 287/215/60
f 291/298/61 293/299/61 294/233/61 292/232/61
f 293/299/62 289/300/62 290/234/62 294/233/62
f 279/237/26 276/236/26 275/209/26 280/208/26
f 281/218/63 288/217/63 287/53/63 282/52/63
f 277/158/29 290/157/29 289/211/29 278/210/29
f 308/240/64 309/239/64 310/258/64 307/257/64
f 296/262/65 297/261/65 298/225/65 295/224/65
f 300/263/22 296/262/22 295/223/22 299/246/22
f 312/264/66 300/263/66 299/83/66 311/85/66
f 302/268/67 303/267/67 304/242/67 301/241/67
f 303/267/24 305/266/24 306/244/24 304/242/24
f 305/266/68 313/265/68 314/248/68 306/247/68
f 307/257/69 312/260/69 311/84/69 308/240/69
f 297/261/27 302/268/27 301/241/27 298/249/27
f 313/293/70 310/292/70 309/239/70 314/245/70
f 275/209/2 278/210/2 230/210/2 229/209/2
f 63/301/27 315/302/27 62/82/27 316/11/27
f 318/303/27 317/108/27 64/50/27 61/55/27
f 67/127/71 319/135/71 66/1/71 320/4/71
f 322/130/71 321/129/71 68/94/71 65/93/71
f 77/107/27 78/109/27 355/10/27 323/235/27
f 83/304/71 84/305/71 326/113/71 358/43/71
f 71/306/27 72/307/27 328/159/27 360/26/27
f 73/134/71 74/128/71 361/19/71 329/121/71
f 72/307/27 318/303/27 61/55/27 328/159/27
f 315/302/27 71/306/27 360/26/27 62/25/27
f 321/129/71 73/134/71 329/121/71 68/94/71
f 74/128/71 67/127/71 320/16/71 361/19/71
f 317/108/27 77/107/27 323/235/27 64/50/27
f 78/109/27 63/301/27 316/11/27 355/10/27
f 84/305/71 322/130/71 65/93/71 326/113/71
f 319/135/71 83/304/71 358/43/71 66/1/71
f 84/305/72 83/304/72 341/304/72 342/305/72
f 63/301/71 78/109/71 340/109/71 333/301/71
f 72/307/73 71/306/73 343/306/73 344/307/73
f 322/130/28 84/305/28 342/305/28 335/130/28
f 74/128/74 73/134/74 345/134/74 346/128/74
f 315/302/71 63/301/71 333/301/71 332/302/71
f 83/304/27 319/135/27 336/135/27 341/304/27
f 318/303/20 72/307/20 344/307/20 331/303/20
f 317/108/20 318/303/20 331/303/20 334/108/20
f 71/306/71 315/302/71 332/302/71 343/306/71
f 88/47/10 31/46/10 348/9/10 347/60/10
f 28/308/15 87/29/15 350/105/15 349/104/15
f 42/309/13 85/310/13 352/99/13 351/98/13
f 86/311/5 45/312/5 354/100/5 353/97/5
f 324/313/10 91/58/10 356/112/10 355/10/10
f 92/28/15 325/314/15 358/315/15 357/133/15
f 90/316/13 327/317/13 360/26/13 359/119/13
f 330/57/5 89/56/5 362/125/5 361/318/5
f 327/317/13 42/309/13 351/98/13 360/26/13
f 31/46/10 324/313/10 355/10/10 348/9/10
f 325/314/15 28/308/15 349/104/15 358/315/15
f 45/312/5 330/57/5 361/318/5 354/100/5
f 85/310/13 90/316/13 359/119/13 352/99/13
f 89/56/5 86/311/5 353/97/5 362/125/5
f 91/58/10 88/47/10 347/60/10 356/112/10
f 87/29/15 92/28/15 357/133/15 350/105/15
f 367/309/13 376/317/13 375/316/13 368/310/13
f 371/313/10 364/46/10 363/47/10 372/58/10
f 365/308/15 374/314/15 373/28/15 366/29/15
f 377/57/5 370/312/5 369/311/5 378/56/5
f 42/309/75 327/317/75 376/317/75 367/309/75
f 87/29/76 28/308/76 365/308/76 366/29/76
f 324/313/77 31/46/77 364/46/77 371/313/77
f 85/310/78 42/309/78 367/309/78 368/310/78
f 28/308/79 325/314/79 374/314/79 365/308/79
f 45/312/80 86/311/80 369/311/80 370/312/80
f 330/57/81 45/312/81 370/312/81 377/57/81
f 91/58/82 324/313/82 371/313/82 372/58/82
f 90/316/83 85/310/83 368/310/83 375/316/83
f 325/314/84 92/28/84 373/28/84 374/314/84
f 86/311/85 89/56/85 378/56/85 369/311/85
f 327/317/86 90/316/86 375/316/86 376/317/86
f 109/154/12 110/319/12 380/148/12 379/144/12
f 111/320/11 112/321/11 382/147/11 381/149/11
f 113/153/12 114/152/12 384/145/12 383/150/12
f 115/322/11 116/323/11 386/151/11 385/146/11
f 114/152/12 109/154/12 379/144/12 384/145/12
f 110/319/12 113/153/12 383/150/12 380/148/12
f 112/321/11 115/322/11 385/146/11 382/147/11
f 116/323/11 111/320/11 381/149/11 386/151/11
f 110/319/7 109/154/7 395/154/7 396/319/7
f 111/320/2 116/323/2 402/323/2 397/320/2
f 113/153/2 110/319/2 396/319/2 399/153/2
f 116/323/4 115/322/4 401/322/4 402/323/4
f 112/321/7 111/320/7 397/320/7 398/321/7
f 115/322/1 112/321/1 398/321/1 401/322/1
usemtl M_Noir_Profond
f 23/6/10 22/59/10 21/60/10 24/9/10
f 7/104/15 6/105/15 5/101/15 8/102/15
f 3/98/13 2/99/13 1/76/13 4/75/13
f 50/39/5 51/42/5 52/97/5 49/100/5
f 51/42/12 1/70/12 2/96/12 52/97/12
f 54/81/2 55/24/2 56/14/2 53/13/2
f 58/72/1 59/74/1 60/3/1 57/2/1
f 6/105/11 21/106/11 22/68/11 5/67/11
f 59/78/16 50/80/16 49/18/16 60/17/16
f 55/24/17 3/27/17 4/37/17 56/36/17
f 24/9/18 54/12/18 53/7/18 23/6/18
f 8/20/19 58/23/19 57/45/19 7/44/19
f 93/144/12 94/148/12 102/66/12 101/140/12
f 95/149/11 96/147/11 104/141/11 103/86/11
f 97/150/12 98/145/12 106/142/12 105/65/12
f 99/146/11 100/151/11 108/87/11 107/143/11
f 98/145/12 93/144/12 101/140/12 106/142/12
f 94/148/12 97/150/12 105/65/12 102/66/12
f 96/147/11 99/146/11 107/143/11 104/141/11
f 100/151/11 95/149/11 103/86/11 108/87/11
f 136/160/7 135/170/7 138/155/7 137/162/7
f 134/171/7 133/172/7 140/168/7 139/156/7
f 132/173/7 131/174/7 142/164/7 141/167/7
f 130/175/7 129/161/7 144/163/7 143/165/7
f 131/174/7 130/175/7 143/165/7 142/164/7
f 129/161/7 136/160/7 137/162/7 144/163/7
f 133/172/7 132/173/7 141/167/7 140/168/7
f 135/170/7 134/171/7 139/156/7 138/155/7
f 162/184/15 161/185/15 185/185/15 186/184/15
f 161/185/7 162/184/7 170/179/7 169/178/7
f 163/186/7 164/187/7 172/177/7 171/180/7
f 165/188/7 166/189/7 174/181/7 173/176/7
f 167/190/7 168/191/7 176/183/7 175/182/7
f 166/189/7 167/190/7 175/182/7 174/181/7
f 168/191/7 161/185/7 169/178/7 176/183/7
f 164/187/7 165/188/7 173/176/7 172/177/7
f 162/184/7 163/186/7 171/180/7 170/179/7
f 183/192/11 182/193/11 206/193/11 207/192/11
f 163/186/11 162/184/11 186/184/11 187/186/11
f 161/185/1 168/191/1 192/191/1 185/185/1
f 168/191/5 167/190/5 191/190/5 192/191/5
f 164/187/10 163/186/10 187/186/10 188/187/10
f 165/188/2 164/187/2 188/187/2 189/188/2
f 167/190/12 166/189/12 190/189/12 191/190/12
f 166/189/13 165/188/13 189/188/13 190/189/13
f 177/194/7 178/195/7 186/184/7 185/185/7
f 179/196/7 180/197/7 188/187/7 187/186/7
f 181/198/7 182/193/7 190/189/7 189/188/7
f 183/192/7 184/199/7 192/191/7 191/190/7
f 182/193/7 183/192/7 191/190/7 190/189/7
f 184/199/7 177/194/7 185/185/7 192/191/7
f 180/197/7 181/198/7 189/188/7 188/187/7
f 178/195/7 179/196/7 187/186/7 186/184/7
f 198/200/30 197/201/30 213/201/30 214/200/30
f 182/193/31 181/198/31 205/198/31 206/193/31
f 178/195/30 177/194/30 201/194/30 202/195/30
f 179/196/12 178/195/12 202/195/12 203/196/12
f 177/194/2 184/199/2 208/199/2 201/194/2
f 184/199/32 183/192/32 207/192/32 208/199/32
f 180/197/33 179/196/33 203/196/33 204/197/33
f 181/198/1 180/197/1 204/197/1 205/198/1
f 193/202/7 194/203/7 202/195/7 201/194/7
f 195/204/7 196/205/7 204/197/7 203/196/7
f 197/201/7 198/200/7 206/193/7 205/198/7
f 199/206/7 200/207/7 208/199/7 207/192/7
f 198/200/7 199/206/7 207/192/7 206/193/7
f 200/207/7 193/202/7 201/194/7 208/199/7
f 196/205/7 197/201/7 205/198/7 204/197/7
f 194/203/7 195/204/7 203/196/7 202/195/7
f 194/203/31 193/202/31 209/202/31 210/203/31
f 195/204/11 194/203/11 210/203/11 211/204/11
f 193/202/1 200/207/1 216/207/1 209/202/1
f 200/207/33 199/206/33 215/206/33 216/207/33
f 196/205/32 195/204/32 211/204/32 212/205/32
f 197/201/2 196/205/2 212/205/2 213/201/2
f 199/206/12 198/200/12 214/200/12 215/206/12
f 218/239/7 217/240/7 229/209/7 230/210/7
f 223/223/7 221/222/7 232/218/7 231/88/7
f 224/83/7 223/223/7 231/88/7 233/91/7
f 222/84/7 224/83/7 233/91/7 234/208/7
f 226/241/7 228/242/7 236/220/7 235/243/7
f 228/242/7 227/244/7 237/227/7 236/220/7
f 227/244/7 225/245/7 238/211/7 237/227/7
f 217/240/7 222/84/7 234/208/7 229/209/7
f 221/222/7 226/241/7 235/243/7 232/218/7
f 225/245/7 218/239/7 230/210/7 238/211/7
f 387/324/1 392/325/1 408/325/1 403/324/1
f 393/326/1 390/327/1 406/327/1 409/326/1
f 387/324/12 388/328/12 396/319/12 395/154/12
f 389/329/11 390/327/11 398/321/11 397/320/11
f 391/330/12 392/325/12 400/152/12 399/153/12
f 393/326/11 394/331/11 402/323/11 401/322/11
f 392/325/12 387/324/12 395/154/12 400/152/12
f 388/328/12 391/330/12 399/153/12 396/319/12
f 390/327/11 393/326/11 401/322/11 398/321/11
f 394/331/11 389/329/11 397/320/11 402/323/11
f 392/325/4 391/330/4 407/330/4 408/325/4
f 388/328/7 387/324/7 403/324/7 404/328/7
f 389/329/2 394/331/2 410/331/2 405/329/2
f 391/330/2 388/328/2 404/328/2 407/330/2
f 394/331/4 393/326/4 409/326/4 410/331/4
f 390/327/7 389/329/7 405/329/7 406/327/7
usemtl M_Noir_Bleuté
f 18/5/2 32/6/2 35/7/2 9/8/2
f 9/8/2 35/13/2 34/14/2 10/15/2
f 27/20/1 19/21/1 12/22/1 40/23/1
f 9/30/4 12/31/4 19/32/4 20/33/4 17/34/4 18/35/4
f 10/15/2 34/36/2 41/37/2 13/38/2
f 46/39/5 16/40/5 15/41/5 47/42/5
f 10/48/4 11/49/4 12/31/4 9/30/4
f 13/61/4 14/62/4 15/63/4 16/64/4 11/49/4 10/48/4
f 17/34/11 20/33/11 26/67/11 29/68/11
f 32/6/10 18/5/10 17/69/10 29/59/10
f 44/70/12 47/42/12 15/41/12 14/71/12
f 40/72/1 12/22/1 11/73/1 37/74/1
f 13/38/13 41/75/13 44/76/13 14/77/13
f 37/78/1 11/73/1 16/79/1 46/80/1
f 41/37/7 34/36/7 56/36/7 4/37/7
f 47/42/7 44/70/7 1/70/7 51/42/7
f 32/6/7 29/59/7 22/59/7 23/6/7
f 40/72/7 37/74/7 59/74/7 58/72/7
f 26/101/7 27/102/7 8/102/7 5/101/7
f 19/103/15 27/102/15 26/101/15 20/33/15
f 35/7/7 32/6/7 23/6/7 53/7/7
f 44/76/7 41/75/7 4/75/7 1/76/7
f 27/20/7 40/23/7 58/23/7 8/20/7
f 29/68/7 26/67/7 5/67/7 22/68/7
f 46/39/7 47/42/7 51/42/7 50/39/7
f 37/78/7 46/80/7 50/80/7 59/78/7
f 34/14/7 35/13/7 53/13/7 56/14/7
usemtl M_Cyan
f 214/200/7 213/201/7 212/205/7 211/204/7 210/203/7 209/202/7 216/207/7 215/206/7
f 408/325/12 407/330/12 404/328/12 403/324/12
f 406/327/11 405/329/11 410/331/11 409/326/11
usemtl M_Gris_Metal
f 136/160/2 129/161/2 160/161/2 153/160/2
f 149/176/2 148/177/2 172/177/2 173/176/2
f 129/161/10 130/175/10 159/175/10 160/161/10
f 133/172/5 134/171/5 155/171/5 156/172/5
f 132/173/1 133/172/1 156/172/1 157/173/1
f 130/175/11 131/174/11 158/174/11 159/175/11
f 131/174/15 132/173/15 157/173/15 158/174/15
f 135/170/13 136/160/13 153/160/13 154/170/13
f 134/171/12 135/170/12 154/170/12 155/171/12
f 145/178/7 146/179/7 154/170/7 153/160/7
f 147/180/7 148/177/7 156/172/7 155/171/7
f 149/176/7 150/181/7 158/174/7 157/173/7
f 151/182/7 152/183/7 160/161/7 159/175/7
f 150/181/7 151/182/7 159/175/7 158/174/7
f 152/183/7 145/178/7 153/160/7 160/161/7
f 148/177/7 149/176/7 157/173/7 156/172/7
f 146/179/7 147/180/7 155/171/7 154/170/7
f 151/182/12 150/181/12 174/181/12 175/182/12
f 150/181/13 149/176/13 173/176/13 174/181/13
f 146/179/15 145/178/15 169/178/15 170/179/15
f 147/180/11 146/179/11 170/179/11 171/180/11
f 145/178/1 152/183/1 176/183/1 169/178/1
f 152/183/5 151/182/5 175/182/5 176/183/5
f 148/177/10 147/180/10 171/180/10 172/177/10
usemtl M_Orange
f 273/275/7 262/276/7 261/277/7 274/278/7
f 270/256/7 268/255/7 267/279/7 269/272/7
f 271/294/7 263/285/7 266/280/7
f 262/276/7 263/285/7 264/252/7 261/251/7
f 259/287/7 265/289/7 266/284/7 260/274/7
f 268/281/7 266/280/7 265/289/7 267/279/7
f 263/285/7 271/294/7 272/290/7 264/252/7
f 269/272/7 273/275/7 274/259/7 270/256/7
f 332/302/27 333/301/27 334/108/27 331/303/27
f 336/135/71 337/127/71 338/129/71 335/130/71
f 331/303/27 344/307/27 343/306/27 332/302/27
f 345/134/71 338/129/71 337/127/71 346/128/71
f 339/107/27 334/108/27 333/301/27 340/109/27
f 335/130/71 342/305/71 341/304/71 336/135/71
