# Blender 4.2.3 LTS
# www.blender.org
mtllib SM_WallCupDispenser.mtl
o SM_WallCupDispenser
v 0.003442 0.014495 0.052148
v 0.007944 0.039829 0.047645
v 0.003442 0.009552 0.052148
v 0.007944 0.039829 -0.047645
v 0.080610 0.009552 0.051093
v 0.080610 0.014495 0.051093
v 0.079182 0.039829 0.047645
v 0.103235 0.039829 0.023592
v 0.106683 0.014495 0.025020
v 0.106683 0.009552 0.025020
v 0.103235 0.039829 -0.023592
v 0.079182 0.039829 -0.047645
v 0.006290 0.054351 0.049300
v 0.006290 0.054351 -0.049300
v 0.079867 0.054351 -0.049300
v 0.104889 0.054351 -0.024278
v 0.104889 0.054351 0.024278
v 0.079867 0.054351 0.049300
v 0.007171 -0.016723 0.048419
v -0.000000 -0.009552 0.055590
v -0.000000 -0.009552 -0.055590
v 0.007171 -0.016723 -0.048419
v 0.104009 -0.016723 0.023913
v 0.111180 -0.002747 0.026883
v 0.087285 -0.002747 0.050778
v 0.079503 -0.016723 0.048419
v 0.079503 -0.016723 -0.048419
v 0.087285 -0.002747 -0.050778
v 0.111180 -0.002747 -0.026883
v 0.104009 -0.016723 -0.023913
v 0.111180 0.041958 -0.026883
v 0.111180 0.002747 -0.026883
v 0.111180 0.002747 0.026883
v 0.111180 0.041958 0.026883
v 0.087285 0.002747 -0.050778
v 0.082473 0.041958 -0.055590
v 0.082473 0.041958 0.055590
v 0.087285 0.002747 0.050778
v -0.000000 0.041958 -0.055590
v -0.000000 0.009552 -0.055590
v -0.000000 0.009552 0.055590
v -0.000000 0.041958 0.055590
v 0.003442 0.014495 -0.052148
v 0.003442 0.009552 -0.052148
v 0.080610 0.009552 -0.051093
v 0.080610 0.014495 -0.051093
v 0.106683 0.014495 -0.025020
v 0.106683 0.009552 -0.025020
v 0.082473 -0.009552 -0.055590
v 0.111180 -0.009552 -0.026883
v 0.111180 -0.009552 0.026883
v 0.082473 -0.009552 0.055590
v 0.082473 0.009552 0.055590
v 0.111180 0.009552 0.026883
v 0.111180 0.009552 -0.026883
v 0.082473 0.009552 -0.055590
v 0.110366 0.002747 -0.026546
v 0.110366 -0.002747 -0.026546
v 0.110366 0.002747 0.026546
v 0.110366 -0.002747 0.026546
v 0.087426 -0.001668 -0.049393
v 0.087426 -0.001668 0.049393
v 0.087426 0.001668 0.049393
v 0.087426 0.001668 -0.049393
v 0.086662 -0.002747 -0.050155
v 0.110366 -0.001668 -0.026546
v 0.110366 -0.001668 0.026546
v 0.086662 -0.002747 0.050155
v 0.086662 0.002747 0.050155
v 0.110366 0.001668 0.026546
v 0.110366 0.001668 -0.026546
v 0.086662 0.002747 -0.050155
v 0.110097 0.001668 -0.026435
v 0.110097 -0.001668 -0.026435
v 0.110097 0.001668 0.026435
v 0.110097 -0.001668 0.026435
v 0.087222 -0.001668 -0.049188
v 0.087222 -0.001668 0.049188
v 0.087222 0.001668 0.049188
v 0.087222 0.001668 -0.049188
v -0.000000 0.049699 0.055590
v 0.003389 0.054351 0.052200
v 0.003389 0.054351 -0.052200
v -0.000000 0.049699 -0.055590
v 0.082473 0.049699 -0.055590
v 0.081069 0.054351 -0.052200
v 0.107790 0.054351 -0.025479
v 0.111180 0.049699 -0.026883
v 0.111180 0.049699 0.026883
v 0.107790 0.054351 0.025479
v 0.081069 0.054351 0.052200
v 0.082473 0.049699 0.055590
v 0.007944 0.054351 0.047645
v 0.007944 0.054351 -0.047645
v 0.079182 0.054351 -0.047645
v 0.103235 0.054351 -0.023592
v 0.103235 0.054351 0.023592
v 0.079182 0.054351 0.047645
v 0.001735 0.054351 0.053855
v 0.001735 0.054351 -0.053855
v 0.081754 0.054351 -0.053855
v 0.109444 0.054351 -0.026164
v 0.109444 0.054351 0.026164
v 0.081754 0.054351 0.053855
v 0.003389 0.300505 0.052200
v 0.006290 0.300505 0.049300
v 0.006290 0.300505 -0.049300
v 0.003389 0.300505 -0.052200
v 0.081069 0.300505 0.052200
v 0.079867 0.300505 0.049300
v 0.079867 0.300505 -0.049300
v 0.081069 0.300505 -0.052200
v 0.104889 0.300505 -0.024278
v 0.107790 0.300505 -0.025479
v 0.104889 0.300505 0.024278
v 0.107790 0.300505 0.025479
v -0.000902 0.300505 0.055892
v -0.000902 0.300505 -0.055892
v 0.082270 0.300505 0.055892
v 0.082270 0.300505 -0.055892
v 0.110881 0.300505 -0.027281
v 0.110881 0.300505 0.027281
v -0.000902 0.320945 0.055892
v 0.015317 0.325495 0.039672
v 0.015317 0.325495 -0.039672
v -0.000902 0.320945 -0.055892
v 0.075552 0.325495 0.039672
v 0.082270 0.320945 0.055892
v 0.082270 0.320945 -0.055892
v 0.075552 0.325495 -0.039672
v 0.094661 0.325495 -0.020563
v 0.110881 0.320945 -0.027281
v 0.110881 0.320945 0.027281
v 0.094661 0.325495 0.020563
v 0.003647 0.325495 0.051342
v 0.003647 0.325495 -0.051342
v 0.080386 0.325495 -0.051342
v 0.106331 0.325495 -0.025396
v 0.106331 0.325495 0.025396
v 0.080386 0.325495 0.051342
v 0.015317 0.323350 0.039672
v 0.015317 0.323350 -0.039672
v 0.075552 0.323350 -0.039672
v 0.094661 0.323350 -0.020563
v 0.094661 0.323350 0.020563
v 0.075552 0.323350 0.039672
v 0.111180 0.014495 0.026883
v 0.082473 0.014495 0.055590
v -0.000000 0.014495 0.055590
v -0.000000 0.014495 -0.055590
v 0.082473 0.014495 -0.055590
v 0.111180 0.014495 -0.026883
v -0.000000 0.052616 -0.055590
v -0.000000 0.052616 0.055590
v 0.111180 0.052616 -0.026883
v 0.082473 0.052616 -0.055590
v 0.082473 0.052616 0.055590
v 0.111180 0.052616 0.026883
v 0.082298 0.041958 0.055169
v 0.082298 0.049699 0.055169
v 0.000421 0.049699 0.055169
v 0.000421 0.041958 0.055169
v 0.000421 0.049699 -0.055169
v 0.000421 0.041958 -0.055169
v 0.082298 0.049699 -0.055169
v 0.082298 0.041958 -0.055169
v 0.110758 0.049699 -0.026709
v 0.110758 0.041958 -0.026709
v 0.110758 0.049699 0.026709
v 0.110758 0.041958 0.026709
v 0.055590 -0.082948 -0.020259
v 0.069915 -0.082948 -0.014325
v 0.075849 -0.082948 -0.000000
v 0.069915 -0.082948 0.014325
v 0.055590 -0.082948 0.020259
v 0.041264 -0.082948 0.014325
v 0.035331 -0.082948 -0.000000
v 0.041264 -0.082948 -0.014325
v 0.055590 0.095623 -0.040000
v 0.055590 0.107528 -0.040000
v 0.055590 0.131338 -0.040000
v 0.055590 0.143242 -0.040000
v 0.081487 0.155147 -0.025897
v 0.083874 0.131338 -0.028284
v 0.083874 0.119433 -0.028284
v 0.083874 0.059909 -0.028284
v 0.083874 0.119433 0.028284
v 0.083874 0.107528 0.028284
v 0.083874 0.095623 0.028284
v 0.083874 0.000385 0.028284
v 0.083874 -0.011520 0.028284
v 0.055590 0.083719 0.040000
v 0.055590 0.071814 0.040000
v 0.055590 0.048004 0.040000
v 0.055590 0.036099 0.040000
v 0.055590 0.024195 0.040000
v 0.055590 -0.011520 0.040000
v 0.027306 0.036099 0.028284
v 0.027306 0.024195 0.028284
v 0.027306 0.012290 0.028284
v 0.027306 0.000385 0.028284
v 0.027306 -0.011520 0.028284
v 0.015590 0.071814 0.000000
v 0.027306 0.143242 -0.028284
v 0.027306 0.119433 -0.028284
v 0.027306 0.107528 -0.028284
v 0.027306 0.083719 -0.028284
v 0.027306 0.048004 -0.028284
v 0.027306 0.024195 -0.028284
v 0.027306 0.012290 -0.028284
v 0.027306 0.000385 -0.028284
v 0.027306 -0.011520 -0.028284
v 0.083874 0.048004 -0.028284
v 0.083874 0.036099 -0.028284
v 0.083874 0.024195 -0.028284
v 0.083874 0.000385 -0.028284
v 0.083874 0.143242 0.028284
v 0.083874 0.083719 0.028284
v 0.083874 0.059909 0.028284
v 0.027306 0.143242 0.028284
v 0.027306 0.095623 0.028284
v 0.027306 0.083719 0.028284
v 0.018966 0.155147 0.000000
v 0.015590 0.083719 0.000000
v 0.027306 0.071814 -0.028284
v 0.027306 0.059909 -0.028284
v 0.055590 -0.011520 -0.040000
v 0.055590 0.000385 -0.040000
v 0.055590 0.012290 -0.040000
v 0.055590 0.024195 -0.040000
v 0.055590 0.048004 -0.040000
v 0.055590 0.059909 -0.040000
v 0.055590 0.071814 -0.040000
v 0.055590 0.083719 -0.040000
v 0.055590 0.119433 -0.040000
v 0.083874 0.107528 -0.028284
v 0.083874 0.012290 -0.028284
v 0.092213 0.155147 0.000000
v 0.095590 0.107528 0.000000
v 0.095590 0.024195 0.000000
v 0.095590 0.012290 0.000000
v 0.081487 0.155147 0.025897
v 0.083874 0.048004 0.028284
v 0.083874 0.036099 0.028284
v 0.083874 0.024195 0.028284
v 0.083874 0.012290 0.028284
v 0.055590 0.155147 0.036624
v 0.055590 0.131338 0.040000
v 0.055590 0.095623 0.040000
v 0.055590 0.059909 0.040000
v 0.026142 0.129032 -0.029448
v 0.055590 0.000385 0.040000
v 0.013944 -0.013825 0.000000
v 0.013944 -0.001920 0.000000
v 0.013944 0.021889 0.000000
v 0.026142 0.045699 0.029448
v 0.026142 0.117127 0.029448
v 0.027306 0.107528 0.028284
v 0.026142 0.129032 0.029448
v 0.026142 0.152842 0.029448
v 0.027306 0.071814 0.028284
v 0.027306 0.059909 0.028284
v 0.055590 0.009984 0.041646
v 0.055590 0.105223 0.041646
v 0.055590 0.117127 0.041646
v 0.055590 0.140937 0.041646
v 0.085038 0.069508 0.029448
v 0.085038 0.129032 0.029448
v 0.097235 -0.013825 0.000000
v 0.015590 0.143242 0.000000
v 0.015590 0.131338 0.000000
v 0.015590 0.119433 0.000000
v 0.015590 0.107528 0.000000
v 0.015590 0.095623 0.000000
v 0.097235 -0.001920 0.000000
v 0.097235 0.033794 0.000000
v 0.015590 0.059909 0.000000
v 0.015590 0.048004 0.000000
v 0.015590 0.036099 0.000000
v 0.097235 0.045699 0.000000
v 0.015590 0.012290 0.000000
v 0.097235 0.057604 0.000000
v 0.097235 0.069508 0.000000
v 0.029693 0.155147 -0.025897
v 0.097235 0.081413 0.000000
v 0.097235 0.093318 0.000000
v 0.097235 0.117127 0.000000
v 0.097235 0.129032 0.000000
v 0.027306 0.095623 -0.028284
v 0.097235 0.140937 0.000000
v 0.085038 -0.013825 -0.029448
v 0.085038 0.069508 -0.029448
v 0.085038 0.081413 -0.029448
v 0.027306 0.036099 -0.028284
v 0.085038 0.093318 -0.029448
v 0.085038 0.140937 -0.029448
v 0.055590 0.152842 -0.041646
v 0.055590 0.033794 -0.041646
v 0.026142 0.033794 -0.029448
v 0.026142 0.093318 -0.029448
v 0.026142 0.152842 -0.029448
v 0.013944 0.009984 0.000000
v 0.055590 0.036099 -0.040000
v 0.013944 0.033794 0.000000
v 0.013944 0.045699 0.000000
v 0.013944 0.057604 0.000000
v 0.013944 0.093318 0.000000
v 0.013944 0.105223 0.000000
v 0.013944 0.117127 0.000000
v 0.013944 0.129032 0.000000
v 0.013944 0.140937 0.000000
v 0.026142 0.057604 0.029448
v 0.055590 0.155147 -0.036624
v 0.026142 0.069508 0.029448
v 0.083874 0.143242 -0.028284
v 0.026142 0.105223 0.029448
v 0.055590 -0.001920 0.041646
v 0.055590 0.057604 0.041646
v 0.083874 0.095623 -0.028284
v 0.083874 0.083719 -0.028284
v 0.083874 0.071814 -0.028284
v 0.055590 0.093318 0.041646
v 0.055590 0.129032 0.041646
v 0.055590 0.152842 0.041646
v 0.085038 0.009984 0.029448
v 0.085038 0.021889 0.029448
v 0.085038 0.033794 0.029448
v 0.083874 -0.011520 -0.028284
v 0.085038 0.045699 0.029448
v 0.095590 0.143242 0.000000
v 0.095590 0.131338 0.000000
v 0.095590 0.119433 0.000000
v 0.085038 0.152842 0.029448
v 0.095590 0.095623 0.000000
v 0.095590 0.083719 0.000000
v 0.095590 0.071814 0.000000
v 0.095590 0.059909 0.000000
v 0.095590 0.048004 0.000000
v 0.095590 0.036099 0.000000
v 0.097235 0.009984 0.000000
v 0.097235 0.021889 0.000000
v 0.095590 0.000385 0.000000
v 0.095590 -0.011520 0.000000
v 0.097235 0.105223 0.000000
v 0.097235 0.152842 0.000000
v 0.083874 0.131338 0.028284
v 0.085038 0.009984 -0.029448
v 0.085038 0.105223 -0.029448
v 0.055590 0.117127 -0.041646
v 0.055590 0.081413 -0.041646
v 0.083874 0.071814 0.028284
v 0.055590 0.069508 -0.041646
v 0.055590 0.057604 -0.041646
v 0.055590 0.045699 -0.041646
v 0.055590 0.021889 -0.041646
v 0.055590 0.009984 -0.041646
v 0.055590 -0.001920 -0.041646
v 0.055590 -0.013825 -0.041646
v 0.026142 0.057604 -0.029448
v 0.055590 0.143242 0.040000
v 0.026142 0.069508 -0.029448
v 0.055590 0.119433 0.040000
v 0.055590 0.107528 0.040000
v 0.013944 0.081413 0.000000
v 0.013944 0.152842 0.000000
v 0.026142 0.081413 0.029448
v 0.026142 0.093318 0.029448
v 0.026142 0.140937 0.029448
v 0.085038 0.057604 0.029448
v 0.085038 0.081413 0.029448
v 0.055590 0.012290 0.040000
v 0.085038 0.140937 0.029448
v 0.085038 -0.001920 -0.029448
v 0.029693 0.155147 0.025897
v 0.085038 0.021889 -0.029448
v 0.027306 0.131338 0.028284
v 0.027306 0.119433 0.028284
v 0.085038 0.033794 -0.029448
v 0.085038 0.045699 -0.029448
v 0.026142 -0.013825 -0.029448
v 0.026142 -0.001920 -0.029448
v 0.026142 0.009984 -0.029448
v 0.027306 0.048004 0.028284
v 0.026142 0.021889 -0.029448
v 0.026142 0.045699 -0.029448
v 0.026142 0.081413 -0.029448
v 0.026142 0.105223 -0.029448
v 0.026142 0.117127 -0.029448
v 0.026142 0.140937 -0.029448
v 0.013944 0.069508 0.000000
v 0.026142 -0.013825 0.029448
v 0.026142 -0.001920 0.029448
v 0.026142 0.009984 0.029448
v 0.026142 0.021889 0.029448
v 0.026142 0.033794 0.029448
v 0.055590 -0.013825 0.041646
v 0.055590 0.021889 0.041646
v 0.055590 0.033794 0.041646
v 0.055590 0.045699 0.041646
v 0.015590 0.024195 0.000000
v 0.055590 0.069508 0.041646
v 0.015590 0.000385 0.000000
v 0.015590 -0.011520 0.000000
v 0.055590 0.081413 0.041646
v 0.085038 -0.013825 0.029448
v 0.027306 0.131338 -0.028284
v 0.085038 -0.001920 0.029448
v 0.085038 0.093318 0.029448
v 0.085038 0.105223 0.029448
v 0.085038 0.117127 0.029448
v 0.085038 0.057604 -0.029448
v 0.085038 0.117127 -0.029448
v 0.085038 0.129032 -0.029448
v 0.085038 0.152842 -0.029448
v 0.055590 0.140937 -0.041646
v 0.055590 0.129032 -0.041646
v 0.055590 0.105223 -0.041646
v 0.055590 0.093318 -0.041646
v 0.083874 0.155147 0.028284
v 0.055590 0.155147 0.040000
v 0.095590 0.155147 0.000000
v 0.027306 0.155147 -0.028284
v 0.055590 0.155147 -0.040000
v 0.015590 0.155147 0.000000
v 0.027306 0.155147 0.028284
v 0.083874 0.155147 -0.028284
v 0.064339 0.090375 0.008750
v 0.055590 0.090375 0.012374
v 0.067964 0.090375 -0.000000
v 0.046840 0.090375 -0.008750
v 0.055590 0.090375 -0.012374
v 0.043216 0.090375 -0.000000
v 0.046840 0.090375 0.008750
v 0.064339 0.090375 -0.008750
vn 0.7071 -0.0000 0.7071
vn -0.0000 -0.0000 -1.0000
vn -0.0000 1.0000 -0.0000
vn -0.0000 -0.0000 1.0000
vn -0.0000 -1.0000 -0.0000
vn -0.7071 -0.0000 0.7071
vn 1.0000 -0.0000 -0.0000
vn 0.7071 -0.0000 -0.7071
vn -0.7071 -0.0000 -0.7071
vn -1.0000 -0.0000 -0.0000
vn -0.7071 -0.7071 -0.0000
vn 0.5000 -0.7071 -0.5000
vn 0.5000 -0.7071 0.5000
vn -0.0000 -0.7071 -0.7071
vn 0.7071 -0.7071 -0.0000
vn -0.0000 -0.7071 0.7071
vn 0.0137 -0.0000 -0.9999
vn 0.0137 -0.0000 0.9999
vn 0.7057 -0.0000 -0.7085
vn 0.7057 -0.0000 0.7085
vn 0.7052 -0.0000 0.7090
vn 0.7052 -0.0000 -0.7090
vn 0.7085 -0.0000 -0.7057
vn 0.7085 -0.0000 0.7057
vn -0.7071 0.7071 -0.0000
vn 0.5000 0.7071 -0.5000
vn 0.5000 0.7071 0.5000
vn 0.7071 0.7071 -0.0000
vn -0.0000 0.7071 0.7071
vn -0.0000 0.7071 -0.7071
vn -0.8731 0.3269 0.3617
vn -0.3708 -0.2474 -0.8952
vn -0.3827 -0.0000 -0.9239
vn -0.8952 -0.2474 -0.3708
vn -0.9239 -0.0000 -0.3827
vn -0.8952 -0.2474 0.3708
vn -0.9239 -0.0000 0.3827
vn -0.3708 -0.2474 0.8952
vn -0.3827 -0.0000 0.9239
vn 0.3708 -0.2474 0.8952
vn 0.3827 -0.0000 0.9239
vn 0.8952 -0.2474 0.3708
vn 0.9239 -0.0000 0.3827
vn 0.8952 -0.2474 -0.3708
vn 0.9239 -0.0000 -0.3827
vn 0.3708 -0.2474 -0.8952
vn 0.3827 -0.0000 -0.9239
vn 0.7713 0.5505 -0.3195
vn -0.3195 0.5505 0.7713
vn -0.7713 0.5505 -0.3195
vn -0.7713 0.5505 0.3195
vn 0.7713 0.5505 0.3195
vn -0.3195 0.5505 -0.7713
vn 0.3195 0.5505 0.7713
vn 0.3195 0.5505 -0.7713
vn 0.3195 -0.5505 -0.7713
vn 0.8731 0.3269 -0.3617
vn 0.3617 0.3269 0.8731
vn -0.3617 0.3269 -0.8731
vn -0.3617 0.3269 0.8731
vn 0.3617 0.3269 -0.8731
vn 0.8731 0.3269 0.3617
vn -0.8731 0.3269 -0.3617
vt 0.484807 0.685450
vt 0.484807 0.814550
vt 0.467421 0.814550
vt 0.467421 0.685450
vt 0.400224 0.250000
vt 0.467421 0.250000
vt 0.467421 0.435450
vt 0.400224 0.435450
vt 0.642864 0.571950
vt 0.696950 0.517864
vt 0.857136 0.517864
vt 0.857136 0.732136
vt 0.696950 0.732136
vt 0.642864 0.678050
vt 0.400224 0.814550
vt 0.467421 1.000000
vt 0.400224 1.000000
vt 0.565467 0.250000
vt 0.565467 0.435450
vt 0.424162 0.685450
vt 0.424162 0.564550
vt 0.695409 0.735856
vt 0.860856 0.735856
vt 0.538237 0.685450
vt 0.538237 0.564550
vt 0.565467 0.564550
vt 0.538237 0.814550
vt 0.565467 0.814550
vt 0.565467 1.000000
vt 0.632621 0.567707
vt 0.692707 0.507621
vt 0.141125 0.516125
vt 0.303771 0.516125
vt 0.358875 0.571230
vt 0.358875 0.678771
vt 0.303771 0.733875
vt 0.141125 0.733875
vt 0.125000 0.750000
vt 0.125000 0.500000
vt 0.310450 0.500000
vt 0.375000 0.564550
vt 0.375000 0.685450
vt 0.310450 0.750000
vt 0.400224 0.564550
vt 0.400224 0.685450
vt 0.400224 0.000000
vt 0.467421 0.000000
vt 0.400224 0.250000
vt 0.538237 0.435450
vt 0.538237 0.250000
vt 0.443483 0.457091
vt 0.443483 0.564550
vt 0.860856 0.514144
vt 0.867379 0.742379
vt 0.692707 0.742379
vt 0.639144 0.570409
vt 0.639144 0.679591
vt 0.484807 0.435450
vt 0.484807 0.564550
vt 0.484807 0.250000
vt 0.484807 0.435450
vt 0.484807 0.000000
vt 0.467421 0.564550
vt 0.467421 0.435450
vt 0.424162 0.457091
vt 0.484807 1.000000
vt 0.400224 0.435450
vt 0.424162 0.792909
vt 0.400224 0.814550
vt 0.443483 0.792909
vt 0.443483 0.685450
vt 0.427957 0.564550
vt 0.427957 0.460556
vt 0.427957 0.685450
vt 0.439689 0.460556
vt 0.439689 0.564550
vt 0.427957 0.789444
vt 0.439689 0.789444
vt 0.439689 0.685450
vt 0.625000 0.003902
vt 0.625000 0.246098
vt 0.618897 0.250000
vt 0.618897 0.000000
vt 0.625000 0.437735
vt 0.625000 0.562265
vt 0.618897 0.564550
vt 0.618897 0.435450
vt 0.625000 0.687735
vt 0.625000 0.812265
vt 0.618897 0.814550
vt 0.618897 0.685450
vt 0.628902 0.566166
vt 0.628902 0.683834
vt 0.625000 0.816166
vt 0.625000 0.996098
vt 0.618897 1.000000
vt 0.625000 0.253902
vt 0.625000 0.433834
vt 0.867379 0.507621
vt 0.695409 0.514144
vt 0.871098 0.503902
vt 0.871098 0.746098
vt 0.628902 0.566166
vt 0.691166 0.503902
vt 0.632621 0.682293
vt 0.691166 0.746098
vt 0.691166 0.746098
vt 0.691166 0.503902
vt 0.871098 0.503902
vt 0.867379 0.742379
vt 0.000000 0.000000
vt 0.857824 0.732824
vt 0.857824 0.517176
vt 0.696665 0.517176
vt 0.642176 0.571665
vt 0.642176 0.678335
vt 0.696665 0.732824
vt 0.833316 0.708316
vt 0.706816 0.708316
vt 0.833316 0.541684
vt 0.706816 0.541684
vt 0.666684 0.581816
vt 0.666684 0.668184
vt 0.538237 0.000000
vt 0.538237 1.000000
vt 0.565467 0.000000
vt 0.565467 0.685450
vt 0.750000 0.490000
vt 0.919706 0.419706
vt 0.990000 0.250000
vt 0.919706 0.080294
vt 0.750000 0.010000
vt 0.580294 0.080294
vt 0.510000 0.250000
vt 0.580294 0.419706
vt 0.125000 0.642857
vt 0.000000 0.642857
vt 0.000000 0.500000
vt 0.125000 0.666667
vt 0.000000 0.666667
vt 0.125000 0.690476
vt 0.000000 0.690476
vt 0.125000 0.714286
vt 0.000000 0.714286
vt 0.125000 0.738095
vt 0.000000 0.738095
vt 0.125000 0.761905
vt 0.000000 0.761905
vt 0.125000 0.785714
vt 0.000000 0.785714
vt 0.125000 0.809524
vt 0.000000 0.809524
vt 0.125000 0.833333
vt 0.000000 0.833333
vt 0.125000 0.857143
vt 0.000000 0.857143
vt 0.125000 0.880952
vt 0.000000 0.880952
vt 0.125000 0.904762
vt 0.000000 0.904762
vt 0.125000 0.928572
vt 0.000000 0.928571
vt 0.125000 0.952381
vt 0.000000 0.952381
vt 0.125000 0.976191
vt 0.000000 0.976190
vt 0.250000 0.500000
vt 0.250000 0.642857
vt 0.250000 0.666667
vt 0.250000 0.690476
vt 0.250000 0.714286
vt 0.250000 0.738095
vt 0.250000 0.761905
vt 0.250000 0.785714
vt 0.250000 0.809524
vt 0.250000 0.833333
vt 0.250000 0.857143
vt 0.250000 0.880952
vt 0.250000 0.904762
vt 0.250000 0.928571
vt 0.250000 0.952381
vt 0.250000 0.976191
vt 0.375000 0.500000
vt 0.375000 0.642857
vt 0.375000 0.666667
vt 0.375000 0.690476
vt 0.375000 0.714286
vt 0.375000 0.738095
vt 0.375000 0.761905
vt 0.375000 0.785714
vt 0.375000 0.809524
vt 0.375000 0.833333
vt 0.375000 0.857143
vt 0.375000 0.880952
vt 0.375000 0.904762
vt 0.375000 0.928571
vt 0.375000 0.952381
vt 0.375000 0.976191
vt 0.500000 0.500000
vt 0.500000 0.642857
vt 0.500000 0.666667
vt 0.500000 0.690476
vt 0.500000 0.714286
vt 0.500000 0.738095
vt 0.500000 0.761905
vt 0.500000 0.785714
vt 0.500000 0.809524
vt 0.500000 0.833333
vt 0.500000 0.857143
vt 0.500000 0.880952
vt 0.500000 0.904762
vt 0.500000 0.928571
vt 0.500000 0.952381
vt 0.500000 0.976191
vt 0.625000 0.500000
vt 0.625000 0.642857
vt 0.625000 0.666667
vt 0.625000 0.690476
vt 0.625000 0.714286
vt 0.625000 0.738095
vt 0.625000 0.761905
vt 0.625000 0.785714
vt 0.625000 0.809524
vt 0.625000 0.833333
vt 0.625000 0.857143
vt 0.625000 0.880952
vt 0.625000 0.904762
vt 0.625000 0.928571
vt 0.625000 0.952381
vt 0.625000 0.976191
vt 0.750000 0.500000
vt 0.750000 0.642857
vt 0.750000 0.666667
vt 0.750000 0.690476
vt 0.750000 0.714286
vt 0.750000 0.738095
vt 0.750000 0.761905
vt 0.750000 0.785714
vt 0.750000 0.809524
vt 0.750000 0.833333
vt 0.750000 0.857143
vt 0.750000 0.880952
vt 0.750000 0.904762
vt 0.750000 0.928571
vt 0.750000 0.952381
vt 0.750000 0.976191
vt 0.875000 0.500000
vt 0.875000 0.642857
vt 0.875000 0.666667
vt 0.875000 0.690476
vt 0.875000 0.714286
vt 0.875000 0.738095
vt 0.875000 0.761905
vt 0.875000 0.785714
vt 0.875000 0.809524
vt 0.875000 0.833333
vt 0.875000 0.857143
vt 0.875000 0.880952
vt 0.875000 0.904762
vt 0.875000 0.928572
vt 0.875000 0.952381
vt 0.875000 0.976191
vt 1.000000 0.500000
vt 1.000000 0.642857
vt 1.000000 0.666667
vt 1.000000 0.690476
vt 1.000000 0.714286
vt 1.000000 0.738095
vt 1.000000 0.761905
vt 1.000000 0.785714
vt 1.000000 0.809524
vt 1.000000 0.833333
vt 1.000000 0.857143
vt 1.000000 0.880952
vt 1.000000 0.904762
vt 1.000000 0.928571
vt 1.000000 0.952381
vt 1.000000 0.976190
s 0
usemtl M_Blanc
f 84/18/5 85/19/5 165/19/5 163/18/5
f 34/24/3 31/25/3 168/25/3 170/24/3
f 85/19/5 88/26/5 167/26/5 165/19/5
f 37/27/3 34/24/3 170/24/3 159/27/3
f 92/28/5 81/29/5 161/29/5 160/28/5
f 36/49/3 39/50/3 164/50/3 166/49/3
f 151/58/5 152/59/5 47/59/5 46/58/5
f 150/60/5 151/61/5 46/61/5 43/60/5
f 149/62/5 150/60/5 43/60/5 1/62/5
f 147/1/5 148/2/5 6/2/5 9/1/5
f 148/2/5 149/66/5 1/66/5 6/2/5
f 152/59/5 147/1/5 9/1/5 47/59/5
f 99/80/25 100/81/25 153/82/25 154/83/25
f 101/84/26 102/85/26 155/86/26 156/87/26
f 103/88/27 104/89/27 157/90/27 158/91/27
f 102/92/28 103/93/28 158/91/28 155/86/28
f 104/94/29 99/95/29 154/96/29 157/90/29
f 156/87/30 153/82/30 100/97/30 101/98/30
f 82/54/3 83/99/3 100/101/3 99/102/3
f 86/31/3 87/30/3 102/103/3 101/104/3
f 90/105/3 91/55/3 104/106/3 103/93/3
f 87/30/3 90/105/3 103/93/3 102/92/3
f 91/55/3 82/54/3 99/102/3 104/107/3
f 83/99/3 86/31/3 101/108/3 100/109/3
f 34/24/1 37/27/1 148/2/1 147/1/1
f 42/124/10 39/50/10 150/60/10 149/62/10
f 36/49/8 31/25/8 152/59/8 151/58/8
f 39/50/2 36/49/2 151/61/2 150/60/2
f 31/25/7 34/24/7 147/1/7 152/59/7
f 37/27/4 42/125/4 149/66/4 148/2/4
f 84/18/10 81/126/10 154/83/10 153/82/10
f 88/26/8 85/19/8 156/87/8 155/86/8
f 92/28/1 89/127/1 158/91/1 157/90/1
f 89/127/7 88/26/7 155/86/7 158/91/7
f 81/29/4 92/28/4 157/90/4 154/96/4
f 85/19/2 84/18/2 153/82/2 156/87/2
f 39/50/3 42/124/3 162/124/3 164/50/3
f 89/127/5 92/28/5 160/28/5 169/127/5
f 42/125/3 37/27/3 159/27/3 162/125/3
f 31/25/3 36/49/3 166/49/3 168/25/3
f 88/26/5 89/127/5 169/127/5 167/26/5
f 81/126/5 84/18/5 163/18/5 161/126/5
f 183/111/31 434/111/31 429/111/31 238/111/31
f 171/128/5 172/129/5 173/130/5 174/131/5 175/132/5 176/133/5 177/134/5 178/135/5
f 178/39/32 212/136/32 227/137/32 171/138/32
f 212/136/33 211/139/33 228/140/33 227/137/33
f 211/139/33 210/141/33 229/142/33 228/140/33
f 210/141/33 209/143/33 230/144/33 229/142/33
f 209/143/33 294/145/33 303/146/33 230/144/33
f 294/145/33 208/147/33 231/148/33 303/146/33
f 208/147/33 226/149/33 232/150/33 231/148/33
f 226/149/33 225/151/33 233/152/33 232/150/33
f 225/151/33 207/153/33 234/154/33 233/152/33
f 207/153/33 289/155/33 179/156/33 234/154/33
f 289/155/33 206/157/33 180/158/33 179/156/33
f 206/157/33 205/159/33 235/160/33 180/158/33
f 205/159/33 406/161/33 181/162/33 235/160/33
f 406/161/33 204/163/33 182/164/33 181/162/33
f 204/163/33 422/165/33 423/166/33 182/164/33
f 177/167/34 403/168/34 212/136/34 178/39/34
f 403/168/35 402/169/35 211/139/35 212/136/35
f 402/169/35 281/170/35 210/141/35 211/139/35
f 281/170/35 400/171/35 209/143/35 210/141/35
f 400/171/35 279/172/35 294/145/35 209/143/35
f 279/172/35 278/173/35 208/147/35 294/145/35
f 278/173/35 277/174/35 226/149/35 208/147/35
f 277/174/35 203/175/35 225/151/35 226/149/35
f 203/175/35 224/176/35 207/153/35 225/151/35
f 224/176/35 274/177/35 289/155/35 207/153/35
f 274/177/35 273/178/35 206/157/35 289/155/35
f 273/178/35 272/179/35 205/159/35 206/157/35
f 272/179/35 271/180/35 406/161/35 205/159/35
f 271/180/35 270/181/35 204/163/35 406/161/35
f 270/181/35 424/182/35 422/165/35 204/163/35
f 176/183/36 202/184/36 403/168/36 177/167/36
f 202/184/37 201/185/37 402/169/37 403/168/37
f 201/185/37 200/186/37 281/170/37 402/169/37
f 200/186/37 199/187/37 400/171/37 281/170/37
f 199/187/37 198/188/37 279/172/37 400/171/37
f 198/188/37 383/189/37 278/173/37 279/172/37
f 383/189/37 262/190/37 277/174/37 278/173/37
f 262/190/37 261/191/37 203/175/37 277/174/37
f 261/191/37 222/192/37 224/176/37 203/175/37
f 222/192/37 221/193/37 274/177/37 224/176/37
f 221/193/37 258/194/37 273/178/37 274/177/37
f 258/194/37 377/195/37 272/179/37 273/178/37
f 377/195/37 376/196/37 271/180/37 272/179/37
f 376/196/37 220/197/37 270/181/37 271/180/37
f 220/197/37 425/198/37 424/182/37 270/181/37
f 175/199/38 197/200/38 202/184/38 176/183/38
f 197/200/39 252/201/39 201/185/39 202/184/39
f 252/201/39 371/202/39 200/186/39 201/185/39
f 371/202/39 196/203/39 199/187/39 200/186/39
f 196/203/39 195/204/39 198/188/39 199/187/39
f 195/204/39 194/205/39 383/189/39 198/188/39
f 194/205/39 250/206/39 262/190/39 383/189/39
f 250/206/39 193/207/39 261/191/39 262/190/39
f 193/207/39 192/208/39 222/192/39 261/191/39
f 192/208/39 249/209/39 221/193/39 222/192/39
f 249/209/39 363/210/39 258/194/39 221/193/39
f 363/210/39 362/211/39 377/195/39 258/194/39
f 362/211/39 248/212/39 376/196/39 377/195/39
f 248/212/39 360/213/39 220/197/39 376/196/39
f 360/213/39 420/214/39 425/198/39 220/197/39
f 174/215/40 191/216/40 197/200/40 175/199/40
f 191/216/41 190/217/41 252/201/41 197/200/41
f 190/217/41 246/218/41 371/202/41 252/201/41
f 246/218/41 245/219/41 196/203/41 371/202/41
f 245/219/41 244/220/41 195/204/41 196/203/41
f 244/220/41 243/221/41 194/205/41 195/204/41
f 243/221/41 219/222/41 250/206/41 194/205/41
f 219/222/41 351/223/41 193/207/41 250/206/41
f 351/223/41 218/224/41 192/208/41 193/207/41
f 218/224/41 189/225/41 249/209/41 192/208/41
f 189/225/41 188/226/41 363/210/41 249/209/41
f 188/226/41 187/227/41 362/211/41 363/210/41
f 187/227/41 346/228/41 248/212/41 362/211/41
f 346/228/41 217/229/41 360/213/41 248/212/41
f 217/229/41 419/230/41 420/214/41 360/213/41
f 173/231/42 343/232/42 191/216/42 174/215/42
f 343/232/43 342/233/43 190/217/43 191/216/43
f 342/233/43 241/234/43 246/218/43 190/217/43
f 241/234/43 240/235/43 245/219/43 246/218/43
f 240/235/43 339/236/43 244/220/43 245/219/43
f 339/236/43 338/237/43 243/221/43 244/220/43
f 338/237/43 337/238/43 219/222/43 243/221/43
f 337/238/43 336/239/43 351/223/43 219/222/43
f 336/239/43 335/240/43 218/224/43 351/223/43
f 335/240/43 334/241/43 189/225/43 218/224/43
f 334/241/43 239/242/43 188/226/43 189/225/43
f 239/242/43 332/243/43 187/227/43 188/226/43
f 332/243/43 331/244/43 346/228/43 187/227/43
f 331/244/43 330/245/43 217/229/43 346/228/43
f 330/245/43 421/246/43 419/230/43 217/229/43
f 172/247/44 328/248/44 343/232/44 173/231/44
f 328/248/45 216/249/45 342/233/45 343/232/45
f 216/249/45 237/250/45 241/234/45 342/233/45
f 237/250/45 215/251/45 240/235/45 241/234/45
f 215/251/45 214/252/45 339/236/45 240/235/45
f 214/252/45 213/253/45 338/237/45 339/236/45
f 213/253/45 186/254/45 337/238/45 338/237/45
f 186/254/45 321/255/45 336/239/45 337/238/45
f 321/255/45 320/256/45 335/240/45 336/239/45
f 320/256/45 319/257/45 334/241/45 335/240/45
f 319/257/45 236/258/45 239/242/45 334/241/45
f 236/258/45 185/259/45 332/243/45 239/242/45
f 185/259/45 184/260/45 331/244/45 332/243/45
f 184/260/45 315/261/45 330/245/45 331/244/45
f 315/261/45 426/262/45 421/246/45 330/245/45
f 171/263/46 227/264/46 328/248/46 172/247/46
f 227/264/47 228/265/47 216/249/47 328/248/47
f 228/265/47 229/266/47 237/250/47 216/249/47
f 229/266/47 230/267/47 215/251/47 237/250/47
f 230/267/47 303/268/47 214/252/47 215/251/47
f 303/268/47 231/269/47 213/253/47 214/252/47
f 231/269/47 232/270/47 186/254/47 213/253/47
f 232/270/47 233/271/47 321/255/47 186/254/47
f 233/271/47 234/272/47 320/256/47 321/255/47
f 234/272/47 179/273/47 319/257/47 320/256/47
f 179/273/47 180/274/47 236/258/47 319/257/47
f 180/274/47 235/275/47 185/259/47 236/258/47
f 235/275/47 181/276/47 184/260/47 185/259/47
f 181/276/47 182/277/47 315/261/47 184/260/47
f 182/277/47 423/278/47 426/262/47 315/261/47
f 185/259/48 332/243/48 287/243/48 412/259/48
f 197/200/49 202/184/49 391/184/49 396/200/49
f 270/181/50 204/163/50 389/163/50 311/181/50
f 186/254/48 337/238/48 282/238/48 411/254/48
f 271/180/50 406/161/50 251/161/50 310/180/50
f 213/253/48 338/237/48 280/237/48 379/253/48
f 272/179/50 205/159/50 388/159/50 309/179/50
f 214/252/48 339/236/48 276/236/48 378/252/48
f 273/178/50 206/157/50 387/157/50 308/178/50
f 215/251/48 240/235/48 341/235/48 375/251/48
f 237/250/48 241/234/48 340/234/48 347/250/48
f 224/176/50 207/153/50 386/153/50 364/176/50
f 216/249/48 342/233/48 275/233/48 373/249/48
f 258/194/51 273/178/51 308/178/51 316/194/51
f 203/175/50 225/151/50 361/151/50 390/175/50
f 330/245/52 217/229/52 372/229/52 290/245/52
f 362/211/49 377/195/49 257/195/49 265/211/49
f 277/174/50 226/149/50 359/149/50 306/174/50
f 332/243/52 187/227/52 410/227/52 287/243/52
f 419/230/52 333/230/52 345/246/52 421/246/52
f 278/173/50 208/147/50 385/147/50 305/173/50
f 239/242/52 188/226/52 409/226/52 344/242/52
f 400/171/50 209/143/50 384/143/50 255/171/50
f 334/241/52 189/225/52 408/225/52 286/241/52
f 262/190/51 277/174/51 306/174/51 312/190/51
f 281/170/50 210/141/50 382/141/50 302/170/50
f 335/240/52 218/224/52 370/224/52 285/240/52
f 402/169/50 211/139/50 381/139/50 254/169/50
f 315/261/48 330/245/48 290/245/48 296/261/48
f 337/238/52 219/222/52 369/222/52 282/238/52
f 403/168/50 212/136/50 380/136/50 253/168/50
f 338/237/52 243/221/52 329/221/52 280/237/52
f 423/166/53 297/166/53 301/165/53 422/165/53
f 339/236/52 244/220/52 327/220/52 276/236/52
f 406/161/53 181/162/53 416/162/53 251/161/53
f 342/233/52 190/217/52 407/217/52 275/233/52
f 205/159/53 235/160/53 349/160/53 388/159/53
f 319/257/48 334/241/48 286/241/48 295/257/48
f 343/232/52 191/216/52 405/216/52 269/232/52
f 289/155/53 179/156/53 418/156/53 300/155/53
f 320/256/48 335/240/48 285/240/48 293/256/48
f 217/229/54 360/213/54 266/213/54 372/229/54
f 207/153/53 234/154/53 350/154/53 386/153/53
f 321/255/48 336/239/48 283/239/48 292/255/48
f 346/228/54 248/212/54 323/212/54 268/228/54
f 225/151/53 233/152/53 352/152/53 361/151/53
f 187/227/54 362/211/54 265/211/54 410/227/54
f 226/149/53 232/150/53 353/150/53 359/149/53
f 240/235/52 245/219/52 326/219/52 341/235/52
f 188/226/54 363/210/54 264/210/54 409/226/54
f 208/147/53 231/148/53 354/148/53 385/147/53
f 241/234/52 246/218/52 325/218/52 340/234/52
f 189/225/54 249/209/54 322/209/54 408/225/54
f 294/145/53 303/146/53 298/146/53 299/145/53
f 218/224/54 192/208/54 404/208/54 370/224/54
f 274/177/50 289/155/50 300/155/50 307/177/50
f 209/143/53 230/144/53 355/144/53 384/143/53
f 351/223/54 193/207/54 401/207/54 267/223/54
f 210/141/53 229/142/53 356/142/53 382/141/53
f 420/214/54 324/214/54 333/230/54 419/230/54
f 219/222/54 250/206/54 318/206/54 369/222/54
f 211/139/53 228/140/53 357/140/53 381/139/53
f 328/248/48 343/232/48 269/232/48 291/248/48
f 243/221/54 194/205/54 399/205/54 329/221/54
f 212/136/53 227/137/53 358/137/53 380/136/53
f 244/220/54 195/204/54 398/204/54 327/220/54
f 245/219/54 196/203/54 397/203/54 326/219/54
f 279/172/50 294/145/50 299/145/50 304/172/50
f 331/244/52 346/228/52 268/228/52 288/244/52
f 246/218/54 371/202/54 263/202/54 325/218/54
f 190/217/54 252/201/54 317/201/54 407/217/54
f 425/198/49 260/198/49 324/214/49 420/214/49
f 360/213/49 220/197/49 368/197/49 266/213/49
f 248/212/49 376/196/49 259/196/49 323/212/49
f 181/276/55 184/260/55 413/260/55 416/276/55
f 336/239/52 351/223/52 267/223/52 283/239/52
f 363/210/49 258/194/49 316/194/49 264/210/49
f 204/163/53 182/164/53 415/164/53 389/163/53
f 249/209/49 221/193/49 367/193/49 322/209/49
f 192/208/49 222/192/49 366/192/49 404/208/49
f 193/207/49 261/191/49 314/191/49 401/207/49
f 206/157/53 180/158/53 417/158/53 387/157/53
f 194/205/49 383/189/49 256/189/49 399/205/49
f 426/262/55 414/262/55 297/278/55 423/278/55
f 191/216/54 197/200/54 396/200/54 405/216/54
f 371/202/49 200/186/49 393/186/49 263/202/49
f 182/277/55 315/261/55 296/261/55 415/277/55
f 252/201/49 201/185/49 392/185/49 317/201/49
f 235/275/55 185/259/55 412/259/55 349/275/55
f 424/182/51 365/182/51 260/198/51 425/198/51
f 180/274/55 236/258/55 348/258/55 417/274/55
f 220/197/51 270/181/51 311/181/51 368/197/51
f 179/273/55 319/257/55 295/257/55 418/273/55
f 376/196/51 271/180/51 310/180/51 259/196/51
f 229/266/55 237/250/55 347/250/55 356/266/55
f 234/272/55 320/256/55 293/256/55 350/272/55
f 222/192/51 224/176/51 364/176/51 366/192/51
f 377/195/51 272/179/51 309/179/51 257/195/51
f 233/271/55 321/255/55 292/255/55 352/271/55
f 221/193/51 274/177/51 307/177/51 367/193/51
f 232/270/55 186/254/55 411/254/55 353/270/55
f 261/191/51 203/175/51 390/175/51 314/191/51
f 231/269/55 213/253/55 379/253/55 354/269/55
f 383/189/51 278/173/51 305/173/51 256/189/51
f 303/268/55 214/252/55 378/252/55 298/268/55
f 250/206/49 262/190/49 312/190/49 318/206/49
f 198/188/51 279/172/51 304/172/51 395/188/51
f 230/267/55 215/251/55 375/251/55 355/267/55
f 199/187/51 400/171/51 255/171/51 394/187/51
f 228/265/55 216/249/55 373/249/55 357/265/55
f 195/204/49 198/188/49 395/188/49 398/204/49
f 200/186/51 281/170/51 302/170/51 393/186/51
f 236/258/48 239/242/48 344/242/48 348/258/48
f 227/264/55 328/248/55 291/248/55 358/264/55
f 199/187/56 196/203/56 397/203/56 394/187/56
f 201/185/51 402/169/51 254/169/51 392/185/51
f 421/246/48 345/246/48 414/262/48 426/262/48
f 202/184/51 403/168/51 253/168/51 391/184/51
f 184/260/48 331/244/48 288/244/48 413/260/48
f 422/165/50 301/165/50 365/182/50 424/182/50
f 247/111/3 420/111/3 419/111/3 242/111/3
f 242/111/3 419/111/3 421/111/3 238/111/3
f 313/111/3 423/111/3 422/111/3 284/111/3
f 284/111/3 422/111/3 424/111/3 223/111/3
f 223/111/3 424/111/3 425/111/3 374/111/3
f 374/111/3 425/111/3 420/111/3 247/111/3
f 238/111/3 421/111/3 426/111/3 183/111/3
f 183/111/3 426/111/3 423/111/3 313/111/3
f 429/111/3 434/111/3 431/111/3 430/111/3 432/111/3 433/111/3 428/111/3 427/111/3
f 374/111/57 433/111/57 432/111/57 223/111/57
f 284/111/58 430/111/58 431/111/58 313/111/58
f 242/111/59 427/111/59 428/111/59 247/111/59
f 313/111/60 431/111/60 434/111/60 183/111/60
f 247/111/61 428/111/61 433/111/61 374/111/61
f 223/111/62 432/111/62 430/111/62 284/111/62
f 238/111/63 429/111/63 427/111/63 242/111/63
usemtl M_Noir_Profond
f 9/1/1 6/2/1 5/3/1 10/4/1
f 11/9/3 12/10/3 4/11/3 2/12/3 7/13/3 8/14/3
f 12/10/6 11/9/6 96/9/6 95/10/6
f 7/13/2 2/12/2 93/12/2 98/13/2
f 2/12/7 4/11/7 94/11/7 93/12/7
f 4/11/4 12/10/4 95/10/4 94/11/4
f 8/14/9 7/13/9 98/13/9 97/14/9
f 11/9/10 8/14/10 97/14/10 96/9/10
f 1/62/10 43/60/10 44/6/10 3/47/10
f 46/58/8 47/59/8 48/63/8 45/64/8
f 43/60/17 46/61/17 45/7/17 44/6/17
f 47/59/7 9/1/7 10/4/7 48/63/7
f 6/2/18 1/66/18 3/16/18 5/3/18
f 66/72/3 61/73/3 77/73/3 74/72/3
f 67/74/3 66/72/3 74/72/3 76/74/3
f 64/75/5 71/76/5 73/76/5 80/75/5
f 61/73/19 66/72/19 58/21/19 65/65/19
f 67/74/20 62/77/20 68/68/20 60/20/20
f 66/72/7 67/74/7 60/20/7 58/21/7
f 63/78/20 70/79/20 59/71/20 69/70/20
f 71/76/19 64/75/19 72/51/19 57/52/19
f 70/79/7 71/76/7 57/52/7 59/71/7
f 64/75/19 61/73/19 65/65/19 72/51/19
f 62/77/20 63/78/20 69/70/20 68/68/20
f 63/78/23 62/77/23 78/77/23 79/78/23
f 71/76/5 70/79/5 75/79/5 73/76/5
f 70/79/5 63/78/5 79/78/5 75/79/5
f 62/77/3 67/74/3 76/74/3 78/77/3
f 61/73/24 64/75/24 80/75/24 77/73/24
f 14/53/3 13/23/3 93/12/3 94/11/3
f 16/56/3 15/100/3 95/10/3 96/9/3
f 18/22/3 17/57/3 97/14/3 98/13/3
f 17/57/3 16/56/3 96/9/3 97/14/3
f 13/23/3 18/22/3 98/13/3 93/12/3
f 15/100/3 14/53/3 94/11/3 95/10/3
f 141/118/3 146/119/3 145/123/3 144/122/3 143/121/3 142/120/3
usemtl M_Noir_Bleuté
f 21/5/2 40/6/2 56/7/2 49/8/2
f 52/15/4 53/3/4 41/16/4 20/17/4
f 24/20/3 29/21/3 58/21/3 60/20/3
f 22/32/5 27/33/5 30/34/5 23/35/5 26/36/5 19/37/5
f 22/32/11 19/37/11 20/38/11 21/39/11
f 30/34/12 27/33/12 49/40/12 50/41/12
f 26/36/13 23/35/13 51/42/13 52/43/13
f 21/39/14 49/40/14 27/33/14 22/32/14
f 50/44/15 51/45/15 23/35/15 30/34/15
f 52/43/16 20/38/16 19/37/16 26/36/16
f 20/46/10 41/47/10 40/6/10 21/48/10
f 35/51/5 32/52/5 57/52/5 72/51/5
f 54/4/3 55/63/3 48/63/3 10/4/3
f 55/63/3 56/64/3 45/64/3 48/63/3
f 28/65/1 35/51/1 72/51/1 65/65/1
f 56/7/3 40/6/3 44/6/3 45/7/3
f 53/3/3 54/4/3 10/4/3 5/3/3
f 41/16/3 53/3/3 5/3/3 3/16/3
f 40/6/3 41/47/3 3/47/3 44/6/3
f 28/65/8 29/21/8 50/44/8 49/67/8
f 24/20/1 25/68/1 52/69/1 51/45/1
f 29/21/7 24/20/7 51/45/7 50/44/7
f 38/70/1 33/71/1 54/4/1 53/3/1
f 32/52/8 35/51/8 56/64/8 55/63/8
f 33/71/7 32/52/7 55/63/7 54/4/7
f 35/51/8 28/65/8 49/67/8 56/64/8
f 25/68/1 38/70/1 53/3/1 52/69/1
f 29/21/3 28/65/3 65/65/3 58/21/3
f 38/70/8 25/68/8 68/68/8 69/70/8
f 32/52/5 33/71/5 59/71/5 57/52/5
f 33/71/5 38/70/5 69/70/5 59/71/5
f 25/68/3 24/20/3 60/20/3 68/68/3
f 110/22/3 106/23/3 105/54/3 109/55/3
f 111/100/3 113/56/3 114/30/3 112/31/3
f 113/56/3 115/57/3 116/105/3 114/30/3
f 107/53/3 111/100/3 112/31/3 108/99/3
f 115/57/3 110/22/3 109/55/3 116/105/3
f 106/23/3 107/53/3 108/99/3 105/54/3
f 109/55/5 116/105/5 122/105/5 119/55/5
f 108/99/5 105/54/5 117/54/5 118/99/5
f 112/31/5 108/99/5 118/99/5 120/31/5
f 116/105/5 114/30/5 121/30/5 122/105/5
f 114/30/5 112/31/5 120/31/5 121/30/5
f 105/54/5 109/55/5 119/55/5 117/54/5
f 122/105/7 121/30/7 132/30/7 133/105/7
f 118/99/10 117/54/10 123/110/10 126/99/10
f 121/30/8 120/31/8 129/31/8 132/30/8
f 120/31/2 118/99/2 126/99/2 129/31/2
f 119/55/1 122/105/1 133/105/1 128/55/1
f 110/111/5 106/111/5 107/111/5 111/111/5 113/111/5 115/111/5
f 117/54/4 119/55/4 128/55/4 123/110/4
f 135/112/25 136/113/25 126/99/25 123/110/25
f 137/114/26 138/115/26 132/30/26 129/31/26
f 139/116/27 140/117/27 128/55/27 133/105/27
f 138/115/28 139/116/28 133/105/28 132/30/28
f 140/117/29 135/112/29 123/110/29 128/55/29
f 136/113/30 137/114/30 129/31/30 126/99/30
f 124/118/2 127/119/2 146/119/2 141/118/2
f 124/118/3 125/120/3 136/113/3 135/112/3
f 130/121/3 131/122/3 138/115/3 137/114/3
f 134/123/3 127/119/3 140/117/3 139/116/3
f 131/122/3 134/123/3 139/116/3 138/115/3
f 127/119/3 124/118/3 135/112/3 140/117/3
f 125/120/3 130/121/3 137/114/3 136/113/3
f 127/119/9 134/123/9 145/123/9 146/119/9
f 125/120/7 124/118/7 141/118/7 142/120/7
f 130/121/4 125/120/4 142/120/4 143/121/4
f 134/123/10 131/122/10 144/122/10 145/123/10
f 131/122/6 130/121/6 143/121/6 144/122/6
usemtl M_Cyan
f 76/74/21 75/79/21 79/78/21 78/77/21
f 74/72/7 73/76/7 75/79/7 76/74/7
f 77/73/22 80/75/22 73/76/22 74/72/22
usemtl M_Plexiglas
f 18/22/2 13/23/2 106/23/2 110/22/2
f 87/30/8 86/31/8 112/31/8 114/30/8
f 13/23/7 14/53/7 107/53/7 106/23/7
f 82/54/4 91/55/4 109/55/4 105/54/4
f 16/56/10 17/57/10 115/57/10 113/56/10
f 83/99/10 82/54/10 105/54/10 108/99/10
f 86/31/2 83/99/2 108/99/2 112/31/2
f 15/100/6 16/56/6 113/56/6 111/100/6
f 91/55/1 90/105/1 116/105/1 109/55/1
f 14/53/4 15/100/4 111/100/4 107/53/4
f 17/57/9 18/22/9 110/22/9 115/57/9
f 90/105/7 87/30/7 114/30/7 116/105/7
usemtl M_Orange
f 168/25/7 167/26/7 169/127/7 170/24/7
f 159/27/4 160/28/4 161/29/4 162/125/4
f 166/49/8 165/19/8 167/26/8 168/25/8
f 170/24/1 169/127/1 160/28/1 159/27/1
f 164/50/2 163/18/2 165/19/2 166/49/2
f 162/124/10 161/126/10 163/18/10 164/50/10
