# Blender 4.2.3 LTS
# www.blender.org
mtllib SM_Water_Dispenser.mtl
o SM_Water_Dispenser
v 0.221371 0.837040 -0.111616
v 0.221371 0.833091 -0.111616
v 0.221371 0.835064 -0.107667
v 0.221371 0.833057 0.111616
v 0.221371 0.837006 0.111616
v 0.221371 0.835030 0.107667
v 0.102657 0.833114 -0.221371
v 0.106606 0.833114 -0.221371
v 0.104632 0.837064 -0.221371
v 0.102657 0.077145 -0.221371
v 0.104632 0.073196 -0.221371
v 0.106606 0.077145 -0.221371
v -0.102748 0.077145 -0.221371
v -0.106697 0.077145 -0.221371
v -0.168873 0.000000 0.225000
v -0.225000 0.000000 0.168873
v -0.225000 0.000000 -0.168873
v -0.168873 0.000000 -0.225000
v 0.225000 0.000000 0.168873
v 0.168873 0.000000 0.225000
v 0.168873 0.000000 -0.225000
v 0.225000 0.000000 -0.168873
v -0.104723 0.073196 -0.221371
v 0.104632 0.837064 0.221371
v 0.106606 0.833114 0.221371
v 0.102657 0.833114 0.221371
v -0.102748 0.077145 0.221371
v -0.104723 0.073196 0.221371
v -0.106697 0.077145 0.221371
v 0.102657 0.077145 0.221371
v 0.106606 0.077145 0.221371
v 0.104632 0.073196 0.221371
v 0.221371 1.006214 0.107667
v 0.221371 1.007660 0.111616
v 0.221371 1.009107 0.107667
v 0.221371 0.709000 0.111616
v 0.221371 0.710446 0.107667
v 0.221371 0.707553 0.107667
v 0.221371 0.710446 -0.107667
v 0.221371 0.709000 -0.111616
v 0.221371 0.707553 -0.107667
v 0.221371 1.007660 -0.111616
v -0.194520 1.200000 0.156248
v -0.225000 1.169520 0.168873
v -0.156248 1.200000 0.194520
v -0.168873 1.169520 0.225000
v -0.156248 1.200000 -0.194520
v -0.168873 1.169520 -0.225000
v -0.194520 1.200000 -0.156248
v -0.225000 1.169520 -0.168873
v 0.156248 1.200000 0.194520
v 0.168873 1.169520 0.225000
v 0.194520 1.200000 0.156248
v 0.225000 1.169520 0.168873
v 0.194520 1.200000 -0.156248
v 0.225000 1.169520 -0.168873
v 0.156248 1.200000 -0.194520
v 0.168873 1.169520 -0.225000
v 0.221371 1.006214 -0.107667
v 0.221371 1.009107 -0.107667
v 0.221371 0.171170 0.107667
v 0.221371 0.167221 0.107667
v 0.104632 0.000000 0.225000
v -0.104723 0.000000 0.225000
v 0.221371 0.169195 0.111616
v 0.221371 0.171170 -0.107667
v 0.221371 0.169195 -0.111616
v 0.221371 0.167221 -0.107667
v -0.221371 0.077145 -0.107667
v -0.221371 0.073196 -0.107667
v -0.104723 1.169520 0.225000
v 0.104632 0.000000 -0.225000
v -0.104723 0.000000 -0.225000
v -0.221371 0.073196 -0.111616
v -0.221371 0.077145 -0.111616
v -0.221371 0.077145 0.107667
v -0.221371 0.077145 0.111616
v -0.221371 0.073196 0.111616
v -0.221371 0.073196 0.107667
v -0.104723 1.169520 -0.225000
v 0.221371 0.075170 0.107667
v 0.221371 0.073196 0.111616
v 0.221371 0.077145 0.111616
v 0.221371 0.077145 -0.111616
v 0.221371 0.073196 -0.111616
v 0.221371 0.075170 -0.107667
v -0.225000 0.000000 -0.107667
v -0.225000 0.000000 -0.111616
v -0.225000 0.000000 0.111616
v -0.225000 0.000000 0.107667
v 0.225000 0.139741 0.098622
v 0.225000 0.000000 0.111616
v 0.225000 0.000000 -0.111616
v 0.225000 0.139741 -0.098622
v 0.225000 0.073196 -0.111616
v 0.225000 0.084292 -0.118763
v 0.225000 0.073196 0.111616
v 0.225000 0.084292 0.118763
v -0.225000 0.073196 0.111616
v -0.225000 0.077145 0.111616
v -0.225000 0.077145 0.107667
v -0.225000 0.073196 0.107667
v -0.225000 0.073196 -0.111616
v -0.225000 0.073196 -0.107667
v -0.225000 0.077145 -0.107667
v -0.225000 0.077145 -0.111616
v 0.225000 0.171170 -0.107667
v 0.225000 0.151809 -0.098622
v 0.225000 0.151809 0.098622
v 0.225000 0.171170 0.107667
v -0.168873 0.073196 0.225000
v -0.168873 0.077145 0.225000
v -0.225000 0.077145 0.168873
v -0.225000 0.073196 0.168873
v -0.225000 0.073196 -0.168873
v -0.225000 0.077145 -0.168873
v -0.168873 0.077145 -0.225000
v -0.168873 0.073196 -0.225000
v 0.168873 0.073196 -0.225000
v 0.168873 0.077145 -0.225000
v 0.225000 0.084292 -0.161726
v 0.225000 0.073196 -0.168873
v 0.225000 0.073196 0.168873
v 0.225000 0.084292 0.161726
v 0.168873 0.077145 0.225000
v 0.168873 0.073196 0.225000
v 0.168873 0.833114 -0.225000
v 0.168873 0.837064 -0.225000
v 0.225000 0.837064 -0.168873
v 0.225000 0.825964 -0.161726
v 0.225000 0.825960 0.161726
v 0.225000 0.837064 0.168873
v 0.168873 0.837064 0.225000
v 0.168873 0.833114 0.225000
v -0.225000 1.169520 0.107667
v -0.225000 1.169520 0.111616
v -0.194520 1.200000 0.111616
v -0.194520 1.200000 0.107667
v -0.194520 1.200000 -0.107667
v -0.194520 1.200000 -0.111616
v -0.225000 1.169520 -0.111616
v -0.225000 1.169520 -0.107667
v 0.225000 1.169520 -0.107667
v 0.225000 1.169520 -0.111616
v 0.194520 1.200000 -0.111616
v 0.194520 1.200000 -0.107667
v 0.194520 1.200000 0.107667
v 0.194520 1.200000 0.111616
v 0.225000 1.169520 0.111616
v 0.225000 1.169520 0.107667
v 0.216108 0.998835 -0.088703
v 0.225000 1.007660 -0.111616
v 0.225000 1.009107 -0.107667
v 0.225000 0.707553 -0.107667
v 0.225000 0.707553 0.107667
v 0.225000 1.007660 0.111616
v 0.216108 0.998835 0.088703
v 0.225000 1.009107 0.107667
v 0.106606 0.077145 0.225000
v 0.102657 0.077145 0.225000
v 0.104632 0.073196 0.225000
v -0.104723 0.073196 0.225000
v -0.102748 0.077145 0.225000
v -0.106697 0.077145 0.225000
v -0.102748 0.833114 0.225000
v -0.106697 0.837064 0.225000
v 0.106606 0.833114 0.225000
v 0.102657 0.833114 0.225000
v -0.106697 0.077145 -0.225000
v -0.102748 0.077145 -0.225000
v -0.104723 0.073196 -0.225000
v 0.104632 0.073196 -0.225000
v 0.102657 0.077145 -0.225000
v 0.106606 0.077145 -0.225000
v 0.106606 0.833114 -0.225000
v 0.102657 0.833114 -0.225000
v -0.102748 0.833114 -0.225000
v -0.106697 0.837064 -0.225000
v 0.225000 0.837006 0.111616
v 0.225000 0.825917 0.118763
v 0.225000 0.825947 -0.118763
v 0.225000 0.837040 -0.111616
v 0.222434 0.002566 -0.111616
v 0.222434 0.002566 -0.107667
v -0.222434 0.002566 -0.107667
v -0.222434 0.002566 -0.111616
v 0.222434 0.002566 0.107667
v 0.222434 0.002566 0.111616
v -0.222434 0.002566 0.111616
v -0.222434 0.002566 0.107667
v -0.221647 0.073196 -0.167484
v -0.221647 0.077145 -0.167484
v -0.167484 0.077145 -0.221647
v -0.167484 0.073196 -0.221647
v 0.167484 0.073196 -0.221647
v 0.167484 0.077145 -0.221647
v 0.221647 0.077145 -0.167484
v 0.221647 0.073196 -0.167484
v 0.221647 0.073196 0.167484
v 0.221647 0.077145 0.167484
v 0.167484 0.077145 0.221647
v 0.167484 0.073196 0.221647
v -0.167484 0.073196 0.221647
v -0.167484 0.077145 0.221647
v -0.221647 0.077145 0.167484
v -0.221647 0.073196 0.167484
v 0.167484 0.833114 -0.221647
v 0.167484 0.837064 -0.221647
v 0.221647 0.837064 -0.167484
v 0.221647 0.833114 -0.167484
v 0.221647 0.833114 0.167484
v 0.221647 0.837064 0.167483
v 0.167484 0.837064 0.221647
v 0.167484 0.833114 0.221647
v -0.221647 1.168132 0.107667
v -0.221647 1.168132 0.111616
v -0.193132 1.196647 0.111616
v -0.193132 1.196647 0.107667
v -0.193132 1.196647 -0.107667
v -0.193132 1.196647 -0.111616
v -0.221647 1.168132 -0.111616
v -0.221647 1.168132 -0.107667
v 0.221647 1.168132 -0.107667
v 0.221647 1.168132 -0.111616
v 0.193132 1.196647 -0.111616
v 0.193132 1.196647 -0.107667
v 0.193132 1.196647 0.107667
v 0.193132 1.196647 0.111616
v 0.221647 1.168132 0.111616
v 0.221647 1.168132 0.107667
v -0.106697 0.837064 0.221371
v -0.102748 0.833114 0.221371
v -0.102748 0.833114 -0.221371
v -0.106697 0.837064 -0.221371
v 0.225000 0.717826 -0.097595
v 0.225000 0.717826 0.097595
v 0.225000 1.006214 0.107667
v 0.225000 1.006214 -0.107667
v 0.225000 0.710446 -0.107667
v 0.225000 0.710446 0.107667
v 0.144130 0.998835 0.088703
v 0.144130 0.998835 -0.088703
v 0.135237 0.717826 -0.097595
v 0.135237 0.717826 0.097595
v 0.225000 0.077145 0.111616
v 0.225000 0.077145 0.168873
v 0.225000 0.077145 -0.168873
v 0.225000 0.077145 -0.111616
v 0.225000 0.833091 -0.111616
v 0.225000 0.833057 0.111616
v 0.225000 0.833114 0.168873
v 0.225000 0.833114 -0.168873
v 0.222831 0.084292 0.118763
v 0.222831 0.084292 0.161726
v 0.222831 0.084292 -0.161726
v 0.222831 0.084292 -0.118763
v 0.222831 0.825947 -0.118763
v 0.222831 0.825917 0.118763
v 0.222831 0.825960 0.161726
v 0.222831 0.825964 -0.161726
v 0.225000 0.167221 -0.107667
v 0.225000 0.000000 -0.107667
v 0.225000 0.000000 0.107667
v 0.225000 0.167221 0.107667
v 0.224470 0.151218 -0.098031
v 0.224470 0.140332 -0.098031
v 0.224470 0.140332 0.098031
v 0.224470 0.151218 0.098031
v 0.224470 0.151809 -0.098622
v 0.224470 0.139741 -0.098622
v 0.224470 0.139741 0.098622
v 0.224470 0.151809 0.098622
v 0.224195 0.151218 -0.098031
v 0.224195 0.140332 -0.098031
v 0.224195 0.140332 0.098031
v 0.224195 0.151218 0.098031
v 0.216108 0.998835 0.000000
v 0.144130 0.998835 0.000000
v 0.225000 0.998835 0.000000
v 0.225000 0.998835 -0.097595
v 0.135237 0.998835 0.000000
v 0.135237 0.998835 -0.097595
v 0.225000 0.998835 0.097595
v 0.135237 0.998835 0.097595
v 0.216108 0.959669 0.000000
v 0.211180 0.954741 0.000000
v 0.149058 0.954741 0.000000
v 0.144130 0.959669 0.000000
v 0.211180 0.954741 -0.083775
v 0.216108 0.959669 -0.088703
v 0.144130 0.959669 -0.088703
v 0.149058 0.954741 -0.083775
v 0.216108 0.959669 0.088703
v 0.211180 0.954741 0.083775
v 0.149058 0.954741 0.083775
v 0.144130 0.959669 0.088703
v 0.191419 0.954741 0.033338
v 0.188044 0.954741 0.029959
v 0.193261 0.954741 0.027167
v 0.188044 0.954741 0.053816
v 0.191419 0.954741 0.050437
v 0.193261 0.954741 0.056608
v 0.168818 0.954741 0.050437
v 0.172194 0.954741 0.053816
v 0.166977 0.954741 0.056608
v 0.172194 0.954741 0.029959
v 0.168818 0.954741 0.033338
v 0.166977 0.954741 0.027167
v 0.191419 0.954741 -0.050437
v 0.188044 0.954741 -0.053816
v 0.193261 0.954741 -0.056608
v 0.188044 0.954741 -0.029959
v 0.191419 0.954741 -0.033338
v 0.193261 0.954741 -0.027167
v 0.168818 0.954741 -0.033338
v 0.172194 0.954741 -0.029959
v 0.166977 0.954741 -0.027167
v 0.172194 0.954741 -0.053816
v 0.168818 0.954741 -0.050437
v 0.166977 0.954741 -0.056608
v 0.186439 0.918581 0.045180
v 0.183064 0.918581 0.048559
v 0.183064 0.918581 0.035216
v 0.186439 0.918581 0.038595
v 0.173798 0.918581 0.038595
v 0.177173 0.918581 0.035216
v 0.177173 0.918581 0.048559
v 0.173798 0.918581 0.045180
v 0.186439 0.918581 -0.038595
v 0.183064 0.918581 -0.035216
v 0.183064 0.918581 -0.048559
v 0.186439 0.918581 -0.045180
v 0.173798 0.918581 -0.045180
v 0.177173 0.918581 -0.048559
v 0.177173 0.918581 -0.035216
v 0.173798 0.918581 -0.038595
v 0.216108 0.994126 0.025120
v 0.216108 0.994126 0.063584
v 0.216108 0.964378 0.063584
v 0.216108 0.964378 0.025120
v 0.216108 0.994126 -0.063584
v 0.216108 0.994126 -0.025120
v 0.216108 0.964378 -0.025120
v 0.216108 0.964378 -0.063584
v 0.214169 0.994126 0.063584
v 0.214169 0.994126 0.025120
v 0.214169 0.964378 0.025120
v 0.214169 0.964378 0.063584
v 0.214169 0.994126 -0.025120
v 0.214169 0.994126 -0.063584
v 0.214169 0.964378 -0.063584
v 0.214169 0.964378 -0.025120
v 0.214169 0.992294 0.026952
v 0.214169 0.992294 0.061751
v 0.214169 0.966210 0.061751
v 0.214169 0.966210 0.026952
v 0.214169 0.992294 -0.061751
v 0.214169 0.992294 -0.026952
v 0.214169 0.966210 -0.026952
v 0.214169 0.966210 -0.061751
v 0.219114 0.992294 0.061751
v 0.219114 0.992294 0.026952
v 0.219114 0.966210 0.026952
v 0.219114 0.966210 0.061751
v 0.219114 0.992294 -0.026952
v 0.219114 0.992294 -0.061751
v 0.219114 0.966210 -0.061751
v 0.219114 0.966210 -0.026952
v 0.219114 0.989905 0.029341
v 0.219114 0.989905 0.059362
v 0.219114 0.968599 0.059362
v 0.219114 0.968599 0.029341
v 0.219114 0.989905 -0.059362
v 0.219114 0.989905 -0.029341
v 0.219114 0.968599 -0.029341
v 0.219114 0.968599 -0.059362
v 0.217852 0.989905 0.059362
v 0.217852 0.989905 0.029341
v 0.217852 0.968599 0.029341
v 0.217852 0.968599 0.059362
v 0.217852 0.989905 -0.029341
v 0.217852 0.989905 -0.059362
v 0.217852 0.968599 -0.059362
v 0.217852 0.968599 -0.029341
v 0.219481 0.717826 0.092076
v 0.219481 0.717826 -0.092076
v 0.140757 0.717826 -0.092076
v 0.140757 0.717826 0.092076
v 0.217255 0.739172 -0.086869
v 0.217255 0.739172 0.086869
v 0.142983 0.739172 0.086869
v 0.142983 0.739172 -0.086869
v 0.213105 0.739172 0.082719
v 0.213105 0.739172 -0.082719
v 0.147133 0.739172 -0.082719
v 0.147133 0.739172 0.082719
v 0.213105 0.738191 -0.082719
v 0.213105 0.738191 0.082719
v 0.147133 0.738191 0.082719
v 0.147133 0.738191 -0.082719
v 0.211149 0.738191 0.080763
v 0.211149 0.738191 -0.080763
v 0.149089 0.738191 -0.080763
v 0.149089 0.738191 0.080763
v 0.211149 0.739866 -0.080763
v 0.211149 0.739866 0.080763
v 0.149089 0.739866 0.080763
v 0.149089 0.739866 -0.080763
v 0.170907 0.739050 -0.080763
v 0.173816 0.739050 -0.080763
v 0.166058 0.739050 0.080763
v 0.163149 0.739050 0.080763
v 0.163149 0.739050 -0.080763
v 0.166058 0.739050 -0.080763
v 0.197088 0.739050 0.080763
v 0.194179 0.739050 0.080763
v 0.194179 0.739050 -0.080763
v 0.197088 0.739050 -0.080763
v 0.181573 0.739050 0.080763
v 0.178664 0.739050 0.080763
v 0.178664 0.739050 -0.080763
v 0.181573 0.739050 -0.080763
v 0.181573 0.739866 0.080763
v 0.178664 0.739866 0.080763
v 0.178664 0.739866 -0.080763
v 0.181573 0.739866 -0.080763
v 0.166058 0.739866 0.080763
v 0.163149 0.739866 0.080763
v 0.194179 0.739866 -0.080763
v 0.197088 0.739866 -0.080763
v 0.197088 0.739866 0.080763
v 0.194179 0.739866 0.080763
v 0.163149 0.739866 -0.080763
v 0.166058 0.739866 -0.080763
v 0.158301 0.739866 0.080763
v 0.155392 0.739866 0.080763
v 0.201937 0.739866 -0.080763
v 0.204846 0.739866 -0.080763
v 0.189331 0.739866 0.080763
v 0.186422 0.739866 0.080763
v 0.170907 0.739866 -0.080763
v 0.173816 0.739866 -0.080763
v 0.173816 0.739866 0.080763
v 0.170907 0.739866 0.080763
v 0.186422 0.739866 -0.080763
v 0.189331 0.739866 -0.080763
v 0.204846 0.739866 0.080763
v 0.201937 0.739866 0.080763
v 0.155392 0.739866 -0.080763
v 0.158301 0.739866 -0.080763
v 0.170907 0.739050 0.080763
v 0.173816 0.739050 0.080763
v 0.204846 0.739050 -0.080763
v 0.201937 0.739050 -0.080763
v 0.201937 0.739050 0.080763
v 0.204846 0.739050 0.080763
v 0.189331 0.739050 -0.080763
v 0.186422 0.739050 -0.080763
v 0.186422 0.739050 0.080763
v 0.189331 0.739050 0.080763
v 0.158301 0.739050 -0.080763
v 0.155392 0.739050 -0.080763
v 0.155392 0.739050 0.080763
v 0.158301 0.739050 0.080763
v -0.147611 1.148258 0.225000
v -0.147611 0.098407 0.225000
v -0.127959 0.098407 0.225000
v -0.127959 0.837127 0.225000
v -0.126111 1.148258 0.225000
v -0.147611 0.098407 -0.225000
v -0.147611 1.148258 -0.225000
v -0.126111 1.148258 -0.225000
v -0.127959 0.837127 -0.225000
v -0.127959 0.098407 -0.225000
v -0.147611 0.098407 0.222956
v -0.147611 1.148258 0.222956
v -0.126111 1.148258 0.222956
v -0.127959 0.098407 0.222956
v -0.127959 0.837127 0.222956
v -0.147611 1.148258 -0.222956
v -0.147611 0.098407 -0.222956
v -0.127959 0.098407 -0.222956
v -0.126111 1.148258 -0.222956
v -0.127959 0.837127 -0.222956
v -0.144928 1.145576 0.222956
v -0.144928 0.101090 0.222956
v -0.130642 0.101090 0.222956
v -0.130642 0.837135 0.222956
v -0.128810 1.145576 0.222956
v -0.144928 0.101090 -0.222956
v -0.144928 1.145576 -0.222956
v -0.128810 1.145576 -0.222956
v -0.130642 0.837135 -0.222956
v -0.130642 0.101090 -0.222956
v -0.144928 0.101090 0.221770
v -0.144928 1.145576 0.221770
v -0.128810 1.145576 0.221770
v -0.130642 0.101090 0.221770
v -0.130642 0.837135 0.221770
v -0.144928 1.145576 -0.221770
v -0.144928 0.101090 -0.221770
v -0.130642 0.101090 -0.221770
v -0.128810 1.145576 -0.221770
v -0.130642 0.837135 -0.221770
vn 1.0000 -0.0000 -0.0000
vn -0.0000 -0.0000 1.0000
vn -0.0000 -1.0000 -0.0004
vn 0.7071 0.7071 -0.0000
vn 0.7071 -0.0000 -0.7071
vn -0.0000 -1.0000 -0.0000
vn -1.0000 0.0059 -0.0000
vn -0.7071 -0.0000 0.7071
vn -1.0000 -0.0000 -0.0000
vn -0.0000 1.0000 -0.0000
vn -1.0000 -0.0003 -0.0000
vn -0.0000 -0.0000 -1.0000
vn -0.7071 -0.0000 -0.7071
vn 0.7071 -0.0000 0.7071
vn -0.5000 0.7071 0.5000
vn -0.5000 0.7071 -0.5000
vn 0.5000 0.7071 -0.5000
vn 0.5000 0.7071 0.5000
vn -0.7071 0.7071 -0.0000
vn -0.0000 0.7071 0.7071
vn -0.0000 0.7071 -0.7071
vn -0.0001 -1.0000 -0.0004
vn 0.0001 1.0000 0.0004
vn -0.0002 -1.0000 0.0010
vn 0.0002 1.0000 -0.0010
vn 0.9999 0.0148 -0.0037
vn 0.9999 0.0148 0.0037
vn -0.9999 0.0150 -0.0000
vn -1.0000 -0.0000 -0.0049
vn 0.0045 0.0011 1.0000
vn -0.0045 -0.0011 1.0000
vn -1.0000 -0.0000 0.0049
vn -0.0045 0.0011 -1.0000
vn 1.0000 -0.0000 -0.0049
vn 1.0000 -0.0000 0.0049
vn 1.0000 -0.0017 0.0003
vn 1.0000 -0.0017 -0.0003
vn -0.0045 0.0011 1.0000
vn 0.0045 0.0011 -1.0000
vn -0.0045 -0.0011 -1.0000
vn -0.0000 0.2370 -0.9715
vn -0.0000 -1.0000 0.0010
vn -0.9906 -0.1364 -0.0000
vn 0.7071 -0.7071 -0.0000
vn -0.7071 -0.7071 -0.0000
vn -0.0000 -0.7071 0.7071
vn -0.0000 -0.7071 -0.7071
vn -0.0000 -0.1439 0.9896
vn -0.0000 -0.1439 -0.9896
vn -0.9907 -0.1364 -0.0000
vn 0.9906 -0.1364 -0.0000
vn 0.6937 -0.1963 -0.6930
vn -0.6937 -0.1963 -0.6930
vn -0.6937 -0.1963 0.6930
vn 0.6937 -0.1963 0.6930
vn 0.9946 0.1037 -0.0000
vn -0.9946 0.1037 -0.0000
vn -0.0000 0.2370 0.9715
vt 0.375000 0.540546
vt 0.390249 0.540546
vt 0.390249 0.581907
vt 0.375000 0.581907
vt 0.391072 0.844317
vt 0.540593 0.844317
vt 0.540593 0.905683
vt 0.391072 0.905683
vt 0.539261 0.545709
vt 0.539257 0.576744
vt 0.618650 0.709454
vt 0.618650 0.668093
vt 0.641933 0.668093
vt 0.641933 0.700334
vt 0.391072 0.540546
vt 0.391072 0.468818
vt 0.540593 0.468818
vt 0.540593 0.540546
vt 0.125000 0.540546
vt 0.156182 0.500000
vt 0.218727 0.500000
vt 0.281273 0.500000
vt 0.343818 0.500000
vt 0.375000 0.540546
vt 0.375000 0.581907
vt 0.125000 0.581907
vt 0.541416 0.709454
vt 0.541404 0.668093
vt 0.576859 0.668093
vt 0.544408 0.928928
vt 0.613920 0.927127
vt 0.375000 0.000000
vt 0.390249 0.000000
vt 0.390249 0.040546
vt 0.375000 0.040546
vt 0.375000 0.168093
vt 0.390249 0.168093
vt 0.390249 0.209454
vt 0.375000 0.209454
vt 0.663196 0.522018
vt 0.836804 0.522018
vt 0.858067 0.549666
vt 0.858067 0.581907
vt 0.641933 0.581907
vt 0.641933 0.549666
vt 0.618650 0.168093
vt 0.391072 0.168093
vt 0.391072 0.165916
vt 0.618650 0.165916
vt 0.641933 0.668093
vt 0.858067 0.668093
vt 0.858067 0.700334
vt 0.836804 0.727982
vt 0.663196 0.727982
vt 0.125000 0.584084
vt 0.375000 0.584084
vt 0.375000 0.665916
vt 0.125000 0.665916
vt 0.390249 0.040546
vt 0.390249 0.081907
vt 0.375000 0.081907
vt 0.375000 0.668093
vt 0.390249 0.668093
vt 0.390249 0.709454
vt 0.375000 0.709454
vt 0.618650 0.084084
vt 0.391072 0.084084
vt 0.391072 0.081907
vt 0.618650 0.081907
vt 0.125000 0.668093
vt 0.343818 0.750000
vt 0.281273 0.750000
vt 0.218727 0.750000
vt 0.156182 0.750000
vt 0.125000 0.709454
vt 0.375000 0.906273
vt 0.390249 0.906273
vt 0.390249 0.968818
vt 0.375000 0.968818
vt 0.410660 0.584084
vt 0.504739 0.584084
vt 0.504739 0.665916
vt 0.410660 0.665916
vt 0.390249 0.540546
vt 0.375000 0.468818
vt 0.390249 0.468818
vt 0.541416 0.343137
vt 0.541416 0.468818
vt 0.541416 0.406273
vt 0.391072 0.040546
vt 0.618650 0.040546
vt 0.576859 0.581907
vt 0.541411 0.581907
vt 0.541416 0.540546
vt 0.618650 0.540546
vt 0.618650 0.581907
vt 0.391072 0.344317
vt 0.540593 0.344317
vt 0.540593 0.405683
vt 0.391072 0.405683
vt 0.375000 0.281182
vt 0.390249 0.281182
vt 0.390249 0.343727
vt 0.375000 0.343727
vt 0.375000 0.406273
vt 0.390249 0.406273
vt 0.390249 0.468818
vt 0.375000 0.781182
vt 0.390249 0.781182
vt 0.390249 0.843727
vt 0.375000 0.843727
vt 0.390249 0.281182
vt 0.390249 0.209454
vt 0.391072 0.781182
vt 0.540593 0.781182
vt 0.540593 0.841805
vt 0.391072 0.841805
vt 0.390249 0.781182
vt 0.390249 0.709454
vt 0.618650 0.781182
vt 0.541416 0.781182
vt 0.391072 0.709454
vt 0.540593 0.709454
vt 0.618650 0.906273
vt 0.541416 0.906863
vt 0.577270 0.584084
vt 0.618650 0.584084
vt 0.618650 0.665916
vt 0.577270 0.665916
vt 0.625000 0.006449
vt 0.625000 0.034097
vt 0.618650 0.000000
vt 0.625000 0.220863
vt 0.625000 0.269773
vt 0.618650 0.281182
vt 0.618650 0.209454
vt 0.625000 0.480227
vt 0.625000 0.529137
vt 0.618650 0.468818
vt 0.625000 0.720863
vt 0.625000 0.769773
vt 0.625000 0.084084
vt 0.625000 0.165916
vt 0.641933 0.584084
vt 0.641933 0.665916
vt 0.618650 0.665916
vt 0.858067 0.584084
vt 0.858067 0.665916
vt 0.641933 0.665916
vt 0.391072 0.209454
vt 0.625000 0.788196
vt 0.625000 0.961804
vt 0.618650 0.968818
vt 0.625000 0.049666
vt 0.625000 0.081907
vt 0.390249 0.343727
vt 0.390249 0.406273
vt 0.541416 0.540546
vt 0.544408 0.321072
vt 0.395370 0.321072
vt 0.618650 0.343727
vt 0.625000 0.288196
vt 0.625000 0.461804
vt 0.540593 0.408195
vt 0.391072 0.468818
vt 0.391072 0.408195
vt 0.391072 0.581907
vt 0.390660 0.584084
vt 0.625000 0.168093
vt 0.625000 0.200334
vt 0.641933 0.581907
vt 0.390249 0.843727
vt 0.390249 0.906273
vt 0.541416 0.908198
vt 0.391072 0.908198
vt 0.375000 0.584084
vt 0.409838 0.584084
vt 0.391072 0.668093
vt 0.407953 0.587521
vt 0.407953 0.662479
vt 0.375000 0.165916
vt 0.390249 0.165916
vt 0.540588 0.581907
vt 0.390249 0.084084
vt 0.375000 0.084084
vt 0.540582 0.668093
vt 0.391072 0.968818
vt 0.507661 0.662089
vt 0.574349 0.662089
vt 0.576448 0.665916
vt 0.505562 0.665916
vt 0.505151 0.581907
vt 0.410249 0.581907
vt 0.505562 0.584084
vt 0.541000 0.584084
vt 0.576448 0.584084
vt 0.391072 0.000000
vt 0.539260 0.704291
vt 0.392404 0.704291
vt 0.390660 0.665916
vt 0.409838 0.665916
vt 0.410249 0.668093
vt 0.505151 0.668093
vt 0.541416 0.843727
vt 0.391072 0.341802
vt 0.540993 0.665916
vt 0.391072 0.281182
vt 0.541416 0.341802
vt 0.540993 0.665916
vt 0.507660 0.587911
vt 0.574349 0.587911
vt 0.574349 0.625000
vt 0.507660 0.590009
vt 0.507660 0.590009
vt 0.392404 0.673256
vt 0.392404 0.545709
vt 0.392404 0.576744
vt 0.539251 0.673256
vt 0.376884 0.587521
vt 0.376884 0.662479
vt 0.378405 0.662254
vt 0.378405 0.587746
vt 0.406432 0.587746
vt 0.406433 0.662254
vt 0.574349 0.591291
vt 0.574349 0.591291
vt 0.574349 0.658709
vt 0.574349 0.658709
vt 0.574349 0.658709
vt 0.574349 0.623211
vt 0.574349 0.626789
vt 0.574349 0.626789
vt 0.574349 0.617084
vt 0.574349 0.601080
vt 0.574349 0.603572
vt 0.574349 0.614592
vt 0.574349 0.593163
vt 0.574349 0.593163
vt 0.574349 0.656837
vt 0.574349 0.658709
vt 0.574349 0.656837
vt 0.574349 0.652083
vt 0.574349 0.652083
vt 0.574349 0.629754
vt 0.574349 0.629754
vt 0.574349 0.629754
vt 0.574349 0.648920
vt 0.574349 0.632917
vt 0.574349 0.635408
vt 0.574349 0.646428
vt 0.574349 0.617084
vt 0.574349 0.614592
vt 0.574349 0.652526
vt 0.574349 0.648920
vt 0.574349 0.632917
vt 0.574349 0.629311
vt 0.574349 0.597917
vt 0.574349 0.597917
vt 0.574349 0.620246
vt 0.574349 0.646428
vt 0.574349 0.620689
vt 0.574349 0.617084
vt 0.574349 0.597474
vt 0.574349 0.603572
vt 0.574349 0.614592
vt 0.574349 0.620246
vt 0.574349 0.614592
vt 0.574349 0.603572
vt 0.574349 0.597474
vt 0.574349 0.652526
vt 0.574349 0.629754
vt 0.574349 0.629311
vt 0.574349 0.620689
vt 0.574349 0.632917
vt 0.574349 0.629685
vt 0.574349 0.652152
vt 0.574349 0.597848
vt 0.574349 0.620246
vt 0.574349 0.620315
vt 0.574349 0.648920
vt 0.574349 0.656920
vt 0.574349 0.656920
vt 0.574349 0.593080
vt 0.574349 0.628225
vt 0.574349 0.655485
vt 0.574349 0.621775
vt 0.574349 0.594515
vt 0.574349 0.655485
vt 0.574349 0.594515
vt 0.574349 0.630096
vt 0.574349 0.653613
vt 0.574349 0.653613
vt 0.574349 0.619904
vt 0.574349 0.596387
vt 0.574349 0.619904
vt 0.574349 0.596387
vt 0.507661 0.659991
vt 0.507660 0.591680
vt 0.507661 0.658320
vt 0.507660 0.591680
vt 0.507661 0.658320
vt 0.507661 0.657532
vt 0.507660 0.592468
vt 0.507660 0.592468
vt 0.507661 0.657532
vt 0.507660 0.592468
vt 0.507661 0.657532
vt 0.395414 0.948088
vt 0.614027 0.948088
vt 0.395370 0.928928
vt 0.541416 0.908198
vt 0.614027 0.301912
vt 0.395414 0.301912
vt 0.613920 0.322874
vt 0.395923 0.318456
vt 0.395961 0.304528
vt 0.545096 0.931544
vt 0.613347 0.929758
vt 0.395961 0.945472
vt 0.613442 0.945472
vt 0.395923 0.931544
vt 0.613442 0.304528
vt 0.613347 0.320242
vt 0.545096 0.318456
s 0
usemtl M_Blanc
f 160/5/2 168/6/2 165/7/2 163/8/2
f 130/9/3 181/10/3 257/10/3 260/9/3
f 54/11/4 149/12/4 148/13/4 53/14/4
f 247/15/5 120/16/5 127/17/5 252/18/5
f 132/27/1 179/28/1 156/29/1 149/12/1 54/11/1
f 468/30/7 469/31/7 477/31/7 479/30/7
f 57/40/10 47/41/10 49/42/10 140/43/10 145/44/10 55/45/10
f 148/50/10 137/51/10 43/52/10 45/53/10 51/54/10 53/14/10
f 107/80/1 154/81/1 155/82/1 110/83/1
f 178/87/6 128/88/6 208/88/6 9/89/6 234/87/6
f 100/68/9 113/90/9 44/91/9 136/69/9
f 152/92/1 182/93/1 129/94/1 56/95/1 144/96/1
f 170/97/12 177/98/12 176/99/12 173/100/12
f 125/114/2 134/115/2 167/116/2 159/117/2
f 52/120/14 133/121/14 132/27/14 54/11/14
f 134/115/14 125/114/14 246/122/14 251/123/14
f 133/121/2 52/120/2 71/124/2 166/125/2
f 153/126/1 143/127/1 150/128/1 158/129/1
f 45/130/15 43/131/15 44/91/15 46/132/15
f 49/133/16 47/134/16 48/135/16 50/136/16
f 57/137/17 55/138/17 56/95/17 58/139/17
f 53/140/18 51/141/18 52/120/18 54/11/18
f 138/142/19 139/143/19 142/49/19 135/66/19
f 146/144/4 147/145/4 150/146/4 143/127/4
f 146/144/10 139/147/10 138/148/10 147/149/10
f 106/47/9 141/46/9 50/136/9 116/150/9
f 51/151/20 45/152/20 46/153/20 71/124/20 52/120/20
f 43/154/19 137/155/19 136/69/19 44/91/19
f 56/95/5 129/158/5 128/88/5 58/139/5
f 473/159/9 474/160/9 482/160/9 484/159/9
f 58/139/21 80/161/21 48/135/21 47/162/21 57/163/21
f 175/164/12 127/17/12 120/165/12 174/166/12
f 101/67/2 76/67/2 215/66/2 135/66/2
f 50/136/19 141/46/19 140/169/19 49/170/19
f 144/96/4 56/95/4 55/45/4 145/171/4
f 166/174/1 164/175/1 29/175/1 231/174/1
f 159/117/9 167/116/9 25/116/9 31/117/9
f 247/15/6 248/167/6 84/167/6 197/15/6
f 178/87/12 80/161/12 58/139/12 128/88/12
f 245/178/6 246/122/6 200/122/6 83/178/6
f 165/7/10 168/6/10 26/6/10 232/7/10
f 176/99/1 7/99/1 10/100/1 173/100/1
f 174/166/6 120/165/6 196/165/6 12/166/6
f 160/5/6 163/8/6 27/8/6 30/5/6
f 129/94/22 182/93/22 1/93/22 209/94/22
f 106/47/6 116/150/6 192/150/6 75/47/6
f 249/183/23 252/18/23 210/18/23 2/183/23
f 125/114/6 159/117/6 31/117/6 201/114/6
f 179/28/24 132/27/24 212/27/24 5/28/24
f 167/116/10 134/115/10 214/115/10 25/116/10
f 158/129/2 150/128/2 230/128/2 35/129/2
f 251/123/25 250/186/25 4/186/25 211/123/25
f 149/12/12 156/29/12 34/29/12 229/12/12
f 182/93/2 152/92/2 42/92/2 1/93/2
f 164/175/6 112/187/6 204/187/6 29/175/6
f 152/92/2 144/96/2 224/96/2 42/92/2
f 143/127/12 153/126/12 60/126/12 223/127/12
f 249/183/2 2/183/2 40/192/2 67/193/2 84/167/2 248/167/2
f 113/90/6 100/68/6 77/68/6 205/90/6
f 110/83/2 155/82/2 38/82/2 61/83/2
f 134/115/10 251/123/10 211/123/10 214/115/10
f 139/147/12 146/144/12 226/144/12 219/147/12
f 132/27/6 133/121/6 213/121/6 212/27/6
f 154/81/12 107/80/12 66/80/12 41/81/12
f 252/18/10 127/17/10 207/17/10 210/18/10
f 155/82/10 154/81/10 41/81/10 38/82/10
f 128/88/6 129/158/6 209/158/6 208/88/6
f 153/126/6 158/129/6 35/129/6 60/126/6
f 156/29/12 179/28/12 5/28/12 34/29/12
f 140/43/2 220/43/2 225/44/2 145/44/2
f 147/149/2 138/148/2 218/148/2 227/149/2
f 112/197/6 113/90/6 205/90/6 204/197/6
f 175/164/9 174/166/9 12/166/9 8/164/9
f 148/50/12 228/50/12 217/51/12 137/51/12
f 131/198/12 124/199/12 254/199/12 259/198/12
f 48/135/13 117/207/13 116/150/13 50/136/13
f 101/67/9 135/66/9 142/49/9 105/48/9
f 168/6/1 160/5/1 30/5/1 26/6/1
f 136/69/12 137/155/12 217/155/12 216/69/12
f 163/8/9 165/7/9 232/7/9 27/8/9
f 177/98/9 170/97/9 13/97/9 233/98/9
f 138/142/2 135/66/2 215/66/2 218/142/2
f 101/67/6 105/48/6 69/48/6 76/67/6
f 140/169/2 141/46/2 221/46/2 220/169/2
f 142/49/12 139/143/12 219/143/12 222/49/12
f 117/207/6 169/205/6 14/205/6 193/207/6
f 144/96/2 145/171/2 225/171/2 224/96/2
f 170/97/6 173/100/6 10/100/6 13/97/6
f 146/144/12 143/127/12 223/127/12 226/144/12
f 107/80/6 110/83/6 61/83/6 66/80/6
f 127/17/10 175/164/10 8/164/10 207/17/10
f 148/13/12 149/12/12 229/12/12 228/13/12
f 176/99/10 177/98/10 233/98/10 7/99/10
f 116/150/6 117/207/6 193/207/6 192/150/6
f 150/146/2 147/145/2 227/145/2 230/146/2
f 106/47/2 75/47/2 221/46/2 141/46/2
f 169/205/1 178/208/1 234/208/1 14/205/1
f 100/68/12 136/69/12 216/69/12 77/68/12
f 105/48/12 142/49/12 222/49/12 69/48/12
f 120/16/6 247/15/6 197/15/6 196/16/6
f 44/91/8 113/90/8 112/197/8 46/132/8
f 246/122/6 125/114/6 201/114/6 200/122/6
f 245/178/12 83/178/12 65/202/12 36/203/12 4/186/12 250/186/12
f 98/215/1 124/199/1 246/122/1 245/178/1
f 121/216/1 96/217/1 248/167/1 247/15/1
f 96/217/1 181/10/1 249/183/1 248/167/1
f 180/218/1 98/215/1 245/178/1 250/186/1
f 131/198/1 180/218/1 250/186/1 251/123/1
f 181/10/1 130/9/1 252/18/1 249/183/1
f 130/9/1 121/216/1 247/15/1 252/18/1
f 124/199/1 131/198/1 251/123/1 246/122/1
f 98/215/2 180/218/2 258/218/2 253/215/2
f 96/217/10 121/216/10 255/216/10 256/217/10
f 121/216/2 130/9/2 260/9/2 255/216/2
f 180/218/42 131/198/42 259/198/42 258/218/42
f 181/10/12 96/217/12 256/217/12 257/10/12
f 124/199/10 98/215/10 253/215/10 254/199/10
f 46/153/2 112/187/2 466/308/2 465/309/2
f 112/187/2 164/175/2 467/310/2 466/308/2
f 164/175/2 166/311/2 468/30/2 467/310/2
f 166/311/2 71/124/2 469/31/2 468/30/2
f 71/124/2 46/153/2 465/309/2 469/31/2
f 117/207/12 48/135/12 471/312/12 470/313/12
f 48/135/12 80/161/12 472/314/12 471/312/12
f 80/161/12 178/208/12 473/159/12 472/314/12
f 178/208/12 169/205/12 474/160/12 473/159/12
f 169/205/12 117/207/12 470/313/12 474/160/12
f 474/160/10 470/313/10 481/313/10 482/160/10
f 469/31/6 465/309/6 476/309/6 477/31/6
f 471/312/6 472/314/6 483/314/6 480/312/6
f 466/308/10 467/310/10 478/310/10 475/308/10
f 472/314/7 473/159/7 484/159/7 483/314/7
f 467/310/9 468/30/9 479/30/9 478/310/9
f 470/313/1 471/312/1 480/312/1 481/313/1
f 465/309/1 466/308/1 475/308/1 476/309/1
f 133/121/6 166/125/6 231/125/6 24/204/6 213/121/6
usemtl M_Noir_Profond
f 221/46/11 75/47/11 69/48/11 222/49/11
f 215/66/11 76/67/11 77/68/11 216/69/11
f 26/6/2 30/5/2 31/117/2 25/116/2
f 85/3/1 84/167/1 86/168/1
f 82/63/1 81/200/1 83/178/1
f 78/60/9 77/68/9 76/67/9 79/184/9
f 74/37/9 70/182/9 69/48/9 75/47/9
f 67/193/1 66/80/1 68/177/1
f 62/201/1 61/83/1 65/202/1
f 59/196/1 42/92/1 60/126/1
f 40/192/1 39/194/1 41/81/1
f 37/191/1 36/203/1 38/82/1
f 34/29/1 33/190/1 35/129/1
f 31/117/2 30/5/2 32/110/2
f 28/173/2 27/8/2 29/175/2
f 25/116/2 24/204/2 26/6/2
f 14/205/12 13/97/12 23/103/12
f 11/157/12 10/100/12 12/166/12
f 8/164/12 7/99/12 9/89/12
f 5/28/1 4/186/1 6/206/1
f 2/183/1 1/93/1 3/195/1
f 184/56/6 185/55/6 186/26/6 183/25/6
f 188/62/6 189/70/6 190/58/6 187/57/6
f 86/168/26 184/176/26 183/4/26 85/3/26
f 82/63/27 188/62/27 187/57/27 81/200/27
f 79/184/28 190/185/28 189/61/28 78/60/28
f 74/37/28 186/36/28 185/181/28 70/182/28
f 68/177/1 86/168/1 84/167/1 67/193/1
f 65/202/1 83/178/1 81/200/1 62/201/1
f 76/67/9 69/48/9 70/182/9 79/184/9
f 66/80/1 61/83/1 62/201/1 68/177/1
f 192/150/13 193/207/13 194/112/13 191/113/13
f 196/16/5 197/15/5 198/84/5 195/86/5
f 200/122/14 201/114/14 202/118/14 199/119/14
f 204/197/8 205/90/8 206/34/8 203/33/8
f 208/88/5 209/158/5 210/18/5 207/17/5
f 212/27/14 213/121/14 214/115/14 211/123/14
f 205/90/29 77/68/29 78/60/29 206/59/29
f 29/175/30 204/187/30 203/78/30 28/77/30
f 25/116/31 214/115/31 213/121/31 24/204/31
f 75/47/32 192/150/32 191/38/32 74/37/32
f 12/166/33 196/165/33 195/107/33 11/106/33
f 83/178/34 200/122/34 199/64/34 82/63/34
f 197/15/35 84/167/35 85/3/35 198/2/35
f 216/69/19 217/155/19 218/142/19 215/66/19
f 220/169/19 221/46/19 222/49/19 219/143/19
f 224/96/4 225/171/4 226/144/4 223/127/4
f 228/13/4 229/12/4 230/146/4 227/145/4
f 225/44/10 220/43/10 219/147/10 226/144/10
f 3/195/1 39/194/1 40/192/1 2/183/1
f 6/206/1 33/190/1 34/29/1 5/28/1
f 60/126/1 35/129/1 33/190/1 59/196/1
f 38/82/1 41/81/1 39/194/1 37/191/1
f 41/81/1 66/80/1 67/193/1 40/192/1
f 36/203/1 65/202/1 61/83/1 38/82/1
f 223/127/36 60/126/36 42/92/36 224/96/36
f 229/12/37 34/29/37 35/129/37 230/128/37
f 201/114/38 31/117/38 32/110/38 202/109/38
f 30/5/2 27/8/2 28/173/2 32/172/2
f 232/7/2 26/6/2 24/204/2 231/125/2
f 231/174/2 29/175/2 27/8/2 232/7/2
f 233/98/12 13/97/12 14/205/12 234/208/12
f 193/207/39 14/205/39 23/103/39 194/102/39
f 13/97/12 10/100/12 11/157/12 23/156/12
f 207/17/40 8/164/40 9/89/40 208/88/40
f 7/99/12 233/98/12 234/87/12 9/89/12
f 8/164/12 12/166/12 10/100/12 7/99/12
f 228/50/10 227/149/10 218/148/10 217/51/10
f 37/191/1 6/209/1 4/186/1 36/203/1
f 59/196/1 3/195/1 1/93/1 42/92/1
f 211/123/34 4/186/34 5/28/34 212/27/34
f 2/183/35 210/18/35 209/94/35 1/93/35
f 267/221/10 266/222/10 274/222/10 275/221/10
f 265/223/1 266/222/1 270/219/1 269/179/1
f 267/221/1 268/224/1 272/180/1 271/220/1
f 268/224/1 265/223/1 269/179/1 272/180/1
f 266/222/1 267/221/1 271/220/1 270/219/1
f 268/224/12 267/221/12 275/221/12 276/224/12
f 265/223/6 268/224/6 276/224/6 273/223/6
f 266/222/2 265/223/2 273/223/2 274/222/2
f 353/284/10 354/285/10 361/285/10 362/284/10
f 359/286/6 360/287/6 367/287/6 368/286/6
f 346/232/1 345/281/1 354/285/1 353/284/1
f 345/281/1 348/282/1 355/288/1 354/285/1
f 348/282/1 347/231/1 356/284/1 355/288/1
f 347/231/1 346/232/1 353/284/1 356/284/1
f 350/283/1 349/230/1 358/286/1 357/289/1
f 349/230/1 352/230/1 359/286/1 358/286/1
f 352/230/1 351/283/1 360/287/1 359/286/1
f 351/283/1 350/283/1 357/289/1 360/287/1
f 360/287/12 357/289/12 366/289/12 367/287/12
f 355/288/6 356/284/6 363/284/6 364/288/6
f 356/284/12 353/284/12 362/284/12 363/284/12
f 358/286/2 359/286/2 368/286/2 365/286/2
f 357/289/10 358/286/10 365/286/10 366/289/10
f 354/285/2 355/288/2 364/288/2 361/285/2
f 401/302/1 402/303/1 405/303/1 406/302/1
f 398/301/10 397/300/10 402/303/10 401/302/10
f 397/300/10 400/298/10 403/304/10 402/303/10
f 400/298/10 399/299/10 404/305/10 403/304/10
f 399/299/10 398/301/10 401/302/10 404/305/10
f 403/304/9 404/305/9 407/305/9 408/304/9
f 402/303/12 403/304/12 408/304/12 449/306/12 450/306/12 433/306/12 434/306/12 441/306/12 442/306/12 425/306/12 426/306/12 445/306/12 446/306/12 429/306/12 430/306/12 437/306/12 438/306/12 405/303/12
f 421/306/10 420/307/10 419/307/10 422/306/10
f 404/305/2 401/302/2 406/302/2 447/307/2 448/307/2 431/307/2 432/307/2 439/307/2 440/307/2 423/307/2 424/307/2 443/307/2 444/307/2 427/307/2 428/307/2 435/307/2 436/307/2 407/305/2
f 426/306/2 425/306/2 421/306/2 422/306/2
f 436/307/12 435/307/12 464/307/12 463/307/12
f 442/306/2 441/306/2 409/306/2 410/306/2
f 417/306/10 416/307/10 415/307/10 418/306/10
f 413/306/10 412/307/10 411/307/10 414/306/10
f 409/306/10 451/307/10 452/307/10 410/306/10
f 454/306/10 455/307/10 456/307/10 453/306/10
f 458/306/10 459/307/10 460/307/10 457/306/10
f 462/306/10 463/307/10 464/307/10 461/306/10
f 444/307/12 443/307/12 452/307/12 451/307/12
f 424/307/12 423/307/12 419/307/12 420/307/12
f 438/306/2 437/306/2 454/306/2 453/306/2
f 430/306/2 429/306/2 417/306/2 418/306/2
f 448/307/12 447/307/12 456/307/12 455/307/12
f 432/307/12 431/307/12 415/307/12 416/307/12
f 446/306/2 445/306/2 458/306/2 457/306/2
f 434/306/2 433/306/2 413/306/2 414/306/2
f 440/307/12 439/307/12 460/307/12 459/307/12
f 428/307/12 427/307/12 411/307/12 412/307/12
f 450/306/2 449/306/2 462/306/2 461/306/2
f 494/315/10 490/316/10 501/316/10 502/315/10
f 488/317/7 489/318/7 497/318/7 499/317/7
f 476/309/2 475/308/2 486/319/2 485/320/2
f 475/308/2 478/310/2 487/321/2 486/319/2
f 478/310/2 479/30/2 488/317/2 487/321/2
f 479/30/2 477/31/2 489/318/2 488/317/2
f 477/31/2 476/309/2 485/320/2 489/318/2
f 481/313/12 480/312/12 491/322/12 490/316/12
f 480/312/12 483/314/12 492/323/12 491/322/12
f 483/314/12 484/159/12 493/324/12 492/323/12
f 484/159/12 482/160/12 494/315/12 493/324/12
f 482/160/12 481/313/12 490/316/12 494/315/12
f 489/318/6 485/320/6 496/320/6 497/318/6
f 491/322/6 492/323/6 503/323/6 500/322/6
f 486/319/10 487/321/10 498/321/10 495/319/10
f 492/323/7 493/324/7 504/324/7 503/323/7
f 487/321/9 488/317/9 499/317/9 498/321/9
f 490/316/1 491/322/1 500/322/1 501/316/1
f 485/320/1 486/319/1 495/319/1 496/320/1
f 493/324/9 494/315/9 502/315/9 504/324/9
usemtl M_Noir_Bleuté
f 22/1/1 122/2/1 95/3/1 93/4/1
f 17/19/6 18/20/6 73/21/6 72/22/6 21/23/6 22/24/6 93/25/6 88/26/6
f 15/32/8 111/33/8 114/34/8 16/35/8
f 88/36/9 103/37/9 115/38/9 17/39/9
f 87/55/6 262/56/6 263/57/6 90/58/6
f 16/35/9 114/59/9 99/60/9 89/61/9
f 92/62/1 97/63/1 123/64/1 19/65/1
f 89/70/6 92/62/6 19/65/6 20/71/6 63/72/6 64/73/6 15/74/6 16/75/6
f 64/76/2 162/77/2 111/78/2 15/79/2
f 122/84/5 22/1/5 21/85/5 119/86/5
f 18/101/12 118/102/12 171/103/12 73/104/12
f 72/105/12 172/106/12 119/107/12 21/85/12
f 20/108/2 126/109/2 161/110/2 63/111/2
f 118/112/13 18/101/13 17/39/13 115/113/13
f 126/118/14 20/108/14 19/65/14 123/119/14
f 73/104/12 171/156/12 172/157/12 72/105/12
f 63/111/2 161/172/2 162/173/2 64/76/2
f 95/3/10 122/2/10 198/2/10 85/3/10
f 123/64/10 97/63/10 82/63/10 199/64/10
f 262/176/12 184/176/12 86/168/12 68/177/12 261/177/12
f 119/107/10 172/106/10 11/106/10 195/107/10
f 162/173/10 161/172/10 32/172/10 28/173/10
f 108/179/6 109/180/6 272/180/6 269/179/6
f 115/38/10 103/37/10 74/37/10 191/38/10
f 87/181/12 104/182/12 70/182/12 185/181/12
f 161/110/10 126/109/10 202/109/10 32/110/10
f 103/37/2 88/36/2 186/36/2 74/37/2
f 89/61/12 99/60/12 78/60/12 189/61/12
f 102/184/2 90/185/2 190/185/2 79/184/2
f 111/78/10 162/77/10 28/77/10 203/78/10
f 97/63/12 92/62/12 188/62/12 82/63/12
f 236/188/1 283/189/1 237/190/1 240/191/1
f 99/60/10 114/59/10 206/59/10 78/60/10
f 93/4/2 95/3/2 85/3/2 183/4/2
f 239/194/12 39/194/12 3/195/12 59/196/12 238/196/12
f 90/58/2 263/57/2 187/57/2 190/58/2
f 92/62/12 89/70/12 189/70/12 188/62/12
f 239/194/6 240/191/6 37/191/6 39/194/6
f 88/26/2 93/25/2 183/25/2 186/26/2
f 237/190/10 238/196/10 59/196/10 33/190/10
f 262/56/12 87/55/12 185/55/12 184/56/12
f 114/34/10 111/33/10 203/33/10 206/34/10
f 126/118/10 123/119/10 199/119/10 202/118/10
f 90/185/9 102/184/9 104/182/9 87/181/9
f 263/57/2 264/201/2 62/201/2 81/200/2 187/57/2
f 104/182/10 102/184/10 79/184/10 70/182/10
f 171/103/10 118/102/10 194/102/10 23/103/10
f 172/157/10 171/156/10 23/156/10 11/157/10
f 264/201/10 261/177/10 68/177/10 62/201/10
f 118/112/10 115/113/10 191/113/10 194/112/10
f 122/84/10 119/86/10 195/86/10 198/84/10
f 235/210/2 280/211/2 282/211/2 243/210/2
f 280/211/1 235/210/1 239/194/1 238/196/1
f 283/189/1 279/212/1 280/211/1 238/196/1 237/190/1
f 284/189/1 244/188/1 243/210/1 282/211/1 281/212/1
f 235/210/1 236/188/1 240/191/1 239/194/1
f 283/189/12 236/188/12 244/188/12 284/189/12
f 386/213/41 387/214/41 392/214/41 389/213/41
f 237/190/2 33/190/2 6/209/2 37/191/2 240/191/2
f 108/179/1 94/219/1 262/176/1 261/177/1
f 91/220/1 109/180/1 264/201/1 263/57/1
f 109/180/1 108/179/1 261/177/1 264/201/1
f 94/219/1 91/220/1 263/57/1 262/176/1
f 94/219/2 108/179/2 269/179/2 270/219/2
f 91/220/10 94/219/10 270/219/10 271/220/10
f 109/180/12 91/220/12 271/220/12 272/180/12
f 242/225/12 151/226/12 290/226/12 291/225/12
f 157/227/2 241/228/2 296/229/2 293/227/2
f 277/212/6 151/226/6 280/211/6 279/212/6
f 242/225/6 278/212/6 281/212/6 282/211/6
f 157/227/6 277/212/6 279/212/6 283/189/6
f 278/212/6 241/228/6 284/189/6 281/212/6
f 241/228/6 157/227/6 283/189/6 284/189/6
f 151/226/6 242/225/6 282/211/6 280/211/6
f 342/230/12 343/230/12 352/230/12 349/230/12
f 340/231/2 337/232/2 346/232/2 347/231/2
f 241/228/9 278/212/9 288/212/9 296/228/9
f 278/212/9 242/225/9 291/225/9 288/212/9
f 315/233/43 319/234/43 333/235/43 336/236/43
f 286/212/44 289/237/44 290/226/44 285/212/44
f 288/212/45 291/225/45 292/238/45 287/212/45
f 294/239/44 286/212/44 285/212/44 293/240/44
f 296/228/45 288/212/45 287/212/45 295/241/45
f 295/241/46 294/239/46 293/227/46 296/229/46
f 289/237/47 292/238/47 291/225/47 290/226/47
f 300/242/48 304/243/48 327/242/48 322/242/48
f 306/244/49 298/245/49 323/245/49 326/246/49
f 303/247/50 307/248/50 325/249/50 328/250/50
f 309/234/51 313/251/51 329/252/51 332/235/51
f 286/212/6 294/239/6 302/253/6 301/254/6 297/255/6 299/256/6
f 318/257/49 310/258/49 331/257/49 334/258/49
f 312/259/48 316/259/48 335/259/48 330/259/48
f 323/245/6 324/249/6 321/260/6 322/242/6 327/243/6 328/250/6 325/249/6 326/245/6
f 289/237/6 286/212/6 314/261/6 313/262/6 309/234/6 311/263/6
f 331/258/6 332/264/6 329/265/6 330/259/6 335/266/6 336/267/6 333/268/6 334/257/6
f 292/238/6 289/237/6 311/269/6 310/257/6 318/258/6 320/263/6
f 294/239/6 295/241/6 305/270/6 304/243/6 300/242/6 302/253/6
f 287/212/6 292/238/6 320/269/6 319/234/6 315/233/6 317/261/6
f 287/212/6 286/212/6 299/256/6 298/271/6 306/246/6 308/272/6
f 286/212/6 287/212/6 317/261/6 316/266/6 312/266/6 314/273/6
f 295/241/6 287/212/6 308/272/6 307/248/6 303/247/6 305/270/6
f 297/274/6 298/275/6 299/256/6
f 300/242/6 301/243/6 302/253/6
f 303/247/6 304/276/6 305/270/6
f 306/244/6 307/271/6 308/272/6
f 309/234/6 310/277/6 311/269/6
f 312/259/6 313/278/6 314/261/6
f 315/233/6 316/279/6 317/261/6
f 318/257/6 319/258/6 320/269/6
f 297/274/52 324/249/52 323/245/52 298/245/52
f 325/249/53 307/248/53 306/244/53 326/246/53
f 315/233/54 336/236/54 335/259/54 316/259/54
f 329/252/55 313/251/55 312/259/55 330/259/55
f 331/257/52 310/258/52 309/234/52 332/235/52
f 303/247/54 328/250/54 327/242/54 304/243/54
f 321/260/55 301/280/55 300/242/55 322/242/55
f 318/257/53 334/258/53 333/235/53 319/234/53
f 297/274/51 301/280/51 321/260/51 324/249/51
f 277/212/1 157/227/1 338/281/1 337/232/1
f 157/227/1 293/240/1 339/282/1 338/281/1
f 293/240/1 285/212/1 340/231/1 339/282/1
f 285/212/1 277/212/1 337/232/1 340/231/1
f 151/226/1 277/212/1 342/230/1 341/283/1
f 277/212/1 285/212/1 343/230/1 342/230/1
f 285/212/1 290/226/1 344/283/1 343/230/1
f 290/226/1 151/226/1 341/283/1 344/283/1
f 341/283/6 342/230/6 349/230/6 350/283/6
f 338/281/12 339/282/12 348/282/12 345/281/12
f 343/230/10 344/283/10 351/283/10 352/230/10
f 337/232/6 338/281/6 345/281/6 346/232/6
f 344/283/2 341/283/2 350/283/2 351/283/2
f 339/282/10 340/231/10 347/231/10 348/282/10
f 372/290/2 369/290/2 378/290/2 379/290/2
f 371/291/10 372/290/10 379/290/10 380/291/10
f 362/284/1 361/285/1 370/292/1 369/290/1
f 361/285/1 364/288/1 371/291/1 370/292/1
f 364/288/1 363/284/1 372/290/1 371/291/1
f 363/284/1 362/284/1 369/290/1 372/290/1
f 366/289/1 365/286/1 374/293/1 373/294/1
f 365/286/1 368/286/1 375/295/1 374/293/1
f 368/286/1 367/287/1 376/296/1 375/295/1
f 367/287/1 366/289/1 373/294/1 376/296/1
f 374/293/12 375/295/12 384/295/12 381/293/12
f 373/294/6 374/293/6 381/293/6 382/294/6
f 370/292/12 371/291/12 380/291/12 377/292/12
f 375/295/10 376/296/10 383/296/10 384/295/10
f 369/290/6 370/292/6 377/292/6 378/290/6
f 376/296/2 373/294/2 382/294/2 383/296/2
f 236/188/10 235/210/10 386/213/10 385/297/10
f 235/210/10 243/210/10 387/214/10 386/213/10
f 243/210/10 244/188/10 388/297/10 387/214/10
f 244/188/10 236/188/10 385/297/10 388/297/10
f 395/298/1 396/299/1 399/299/1 400/298/1
f 385/297/56 386/213/56 389/213/56 390/297/56
f 387/214/57 388/297/57 391/297/57 392/214/57
f 388/297/58 385/297/58 390/297/58 391/297/58
f 390/297/10 389/213/10 394/300/10 393/301/10
f 389/213/10 392/214/10 395/298/10 394/300/10
f 392/214/10 391/297/10 396/299/10 395/298/10
f 391/297/10 390/297/10 393/301/10 396/299/10
f 396/299/12 393/301/12 398/301/12 399/299/12
f 394/300/2 395/298/2 400/298/2 397/300/2
f 393/301/9 394/300/9 397/300/9 398/301/9
f 435/307/9 450/306/9 461/306/9 464/307/9
f 441/306/1 444/307/1 451/307/1 409/306/1
f 449/306/1 436/307/1 463/307/1 462/306/1
f 427/307/9 434/306/9 414/306/9 411/307/9
f 425/306/1 424/307/1 420/307/1 421/306/1
f 443/307/9 442/306/9 410/306/9 452/307/9
f 423/307/9 426/306/9 422/306/9 419/307/9
f 437/306/1 448/307/1 455/307/1 454/306/1
f 429/306/1 432/307/1 416/307/1 417/306/1
f 447/307/9 438/306/9 453/306/9 456/307/9
f 431/307/9 430/306/9 418/306/9 415/307/9
f 445/306/1 440/307/1 459/307/1 458/306/1
f 433/306/1 428/307/1 412/307/1 413/306/1
f 439/307/9 446/306/9 457/306/9 460/307/9
usemtl M_Orange
f 253/215/1 258/218/1 259/198/1 254/199/1
f 260/9/1 257/10/1 256/217/1 255/216/1
usemtl M_Cyan
f 274/222/1 273/223/1 276/224/1 275/221/1
f 378/290/1 377/292/1 380/291/1 379/290/1
f 382/294/1 381/293/1 384/295/1 383/296/1
f 496/320/2 495/319/2 498/321/2 499/317/2 497/318/2
f 501/316/12 500/322/12 503/323/12 504/324/12 502/315/12
usemtl M_Gris_Metal
f 429/306/10 446/306/10 439/307/10 432/307/10
f 441/306/10 434/306/10 427/307/10 444/307/10
f 433/306/10 450/306/10 435/307/10 428/307/10
f 437/306/10 430/306/10 431/307/10 448/307/10
f 436/307/10 449/306/10 408/304/10 407/305/10
f 425/306/10 442/306/10 443/307/10 424/307/10
f 405/303/10 438/306/10 447/307/10 406/302/10
f 440/307/10 445/306/10 426/306/10 423/307/10
