# Blender 4.2.3 LTS
# www.blender.org
mtllib SM_Floor_V1.mtl
o SM_Floor_V1
v -0.403921 -0.025000 0.375019
v -0.375019 -0.025000 0.403921
v -0.375019 0.025000 0.403921
v -0.403921 0.025000 0.375019
v -0.375019 -0.025000 -0.403921
v -0.403921 -0.025000 -0.375019
v -0.403921 0.025000 -0.375019
v -0.375019 0.025000 -0.403921
v 0.375019 -0.025000 0.403921
v 0.403921 -0.025000 0.375019
v 0.403921 0.025000 0.375019
v 0.375019 0.025000 0.403921
v 0.403921 -0.025000 -0.375019
v 0.375019 -0.025000 -0.403921
v 0.375019 0.025000 -0.403921
v 0.403921 0.025000 -0.375019
v -0.465983 -0.025000 -0.500000
v -0.500000 -0.025000 -0.465983
v -0.500000 -0.025000 0.465983
v -0.465983 -0.025000 0.500000
v -0.465983 0.025000 0.500000
v -0.500000 0.025000 0.465983
v -0.500000 0.025000 -0.465983
v -0.465983 0.025000 -0.500000
v 0.500000 -0.025000 -0.465983
v 0.465983 -0.025000 -0.500000
v 0.465983 0.025000 -0.500000
v 0.500000 0.025000 -0.465983
v 0.465983 -0.025000 0.500000
v 0.500000 -0.025000 0.465983
v 0.500000 0.025000 0.465983
v 0.465983 0.025000 0.500000
v -0.368132 -0.015628 -0.396977
v -0.396977 -0.015628 -0.368132
v -0.396977 -0.015628 0.368132
v -0.368132 -0.015628 0.396977
v -0.368132 0.015628 0.396977
v -0.396977 0.015628 0.368132
v -0.396977 0.015628 -0.368132
v -0.368132 0.015628 -0.396977
v 0.396977 -0.015628 -0.368132
v 0.368132 -0.015628 -0.396977
v 0.368132 0.015628 -0.396977
v 0.396977 0.015628 -0.368132
v 0.368132 -0.015628 0.396977
v 0.396977 -0.015628 0.368132
v 0.396977 0.015628 0.368132
v 0.368132 0.015628 0.396977
v -0.375032 -0.015628 -0.403921
v -0.403921 -0.015628 -0.375032
v -0.403921 -0.015628 0.375032
v -0.375032 -0.015628 0.403921
v -0.375032 0.015628 0.403921
v -0.403921 0.015628 0.375032
v -0.403921 0.015628 -0.375032
v -0.375032 0.015628 -0.403921
v 0.403921 -0.015628 -0.375032
v 0.375032 -0.015628 -0.403921
v 0.375032 0.015628 -0.403921
v 0.403921 0.015628 -0.375032
v 0.375032 -0.015628 0.403921
v 0.403921 -0.015628 0.375032
v 0.403921 0.015628 0.375032
v 0.375032 0.015628 0.403921
v -0.359644 -0.022722 -0.388369
v -0.388369 -0.022722 -0.359644
v -0.388369 -0.022722 0.359644
v -0.359644 -0.022722 0.388369
v -0.359644 0.022722 0.388369
v -0.388369 0.022722 0.359644
v -0.388369 0.022722 -0.359644
v -0.359644 0.022722 -0.388369
v 0.388369 -0.022722 -0.359644
v 0.359644 -0.022722 -0.388369
v 0.359644 0.022722 -0.388369
v 0.388369 0.022722 -0.359644
v 0.359644 -0.022722 0.388369
v 0.388369 -0.022722 0.359644
v 0.388369 0.022722 0.359644
v 0.359644 0.022722 0.388369
v -0.368163 -0.022722 -0.396977
v -0.396977 -0.022722 -0.368163
v -0.396977 -0.022722 0.368163
v -0.368163 -0.022722 0.396977
v -0.368163 0.022722 0.396977
v -0.396977 0.022722 0.368163
v -0.396977 0.022722 -0.368163
v -0.368163 0.022722 -0.396977
v 0.396977 -0.022722 -0.368163
v 0.368163 -0.022722 -0.396977
v 0.368163 0.022722 -0.396977
v 0.396977 0.022722 -0.368163
v 0.368163 -0.022722 0.396977
v 0.396977 -0.022722 0.368163
v 0.396977 0.022722 0.368163
v 0.368163 0.022722 0.396977
v -0.353210 -0.017019 -0.381705
v -0.381705 -0.017019 -0.353210
v -0.381705 -0.017019 0.353210
v -0.353210 -0.017019 0.381705
v -0.353210 0.017019 0.381705
v -0.381705 0.017019 0.353210
v -0.381705 0.017019 -0.353210
v -0.353210 0.017019 -0.381705
v 0.381705 -0.017019 -0.353210
v 0.353210 -0.017019 -0.381705
v 0.353210 0.017019 -0.381705
v 0.381705 0.017019 -0.353210
v 0.353210 -0.017019 0.381705
v 0.381705 -0.017019 0.353210
v 0.381705 0.017019 0.353210
v 0.353210 0.017019 0.381705
v -0.359706 -0.017019 -0.388369
v -0.388369 -0.017019 -0.359706
v -0.388369 -0.017019 0.359706
v -0.359706 -0.017019 0.388369
v -0.359706 0.017019 0.388369
v -0.388369 0.017019 0.359706
v -0.388369 0.017019 -0.359706
v -0.359706 0.017019 -0.388369
v 0.388369 -0.017019 -0.359706
v 0.359706 -0.017019 -0.388369
v 0.359706 0.017019 -0.388369
v 0.388369 0.017019 -0.359706
v 0.359706 -0.017019 0.388369
v 0.388369 -0.017019 0.359706
v 0.388369 0.017019 0.359706
v 0.359706 0.017019 0.388369
v 0.381705 -0.025000 0.353325
v 0.353325 -0.025000 0.381705
v 0.353325 0.025000 0.381705
v 0.381705 0.025000 0.353325
v -0.353325 0.025000 -0.381705
v -0.381705 0.025000 -0.353325
v -0.381705 -0.025000 -0.353325
v -0.353325 -0.025000 -0.381705
v -0.353325 -0.025000 0.381705
v -0.381705 -0.025000 0.353325
v 0.381705 0.025000 -0.353325
v 0.353325 0.025000 -0.381705
v 0.353325 -0.025000 -0.381705
v 0.381705 -0.025000 -0.353325
v -0.381705 0.025000 0.353325
v -0.353325 0.025000 0.381705
v -0.235693 0.025000 -0.219191
v -0.235693 0.025000 0.219191
v -0.219191 0.025000 0.235693
v 0.219191 0.025000 0.235693
v 0.235693 0.025000 0.219191
v 0.235693 0.025000 -0.219191
v 0.219191 0.025000 -0.235693
v -0.219191 0.025000 -0.235693
v -0.219191 -0.025000 -0.235693
v 0.219191 -0.025000 -0.235693
v 0.235693 -0.025000 -0.219191
v 0.235693 -0.025000 0.219191
v 0.219191 -0.025000 0.235693
v -0.219191 -0.025000 0.235693
v -0.235693 -0.025000 0.219191
v -0.235693 -0.025000 -0.219191
v -0.235693 0.010919 0.219191
v -0.235693 0.010919 -0.219191
v -0.219191 0.010919 -0.235693
v -0.219191 0.010919 0.235693
v 0.219191 0.010919 0.235693
v 0.235693 0.010919 0.219191
v 0.235693 0.010919 -0.219191
v 0.219191 0.010919 -0.235693
v 0.219191 -0.010919 -0.235693
v -0.219191 -0.010919 -0.235693
v -0.235693 -0.010919 -0.219191
v 0.235693 -0.010919 -0.219191
v 0.235693 -0.010919 0.219191
v 0.219191 -0.010919 0.235693
v -0.219191 -0.010919 0.235693
v -0.235693 -0.010919 0.219191
v -0.224761 0.010667 -0.211857
v -0.224761 0.010667 0.211857
v -0.211857 0.010667 0.224761
v 0.211857 0.010667 0.224761
v 0.224761 0.010667 0.211857
v 0.224761 0.010667 -0.211857
v 0.211857 0.010667 -0.224761
v -0.211857 0.010667 -0.224761
v -0.211857 -0.010667 -0.224761
v 0.211857 -0.010667 -0.224761
v 0.224761 -0.010667 -0.211857
v 0.224761 -0.010667 0.211857
v 0.211857 -0.010667 0.224761
v -0.211857 -0.010667 0.224761
v -0.224761 -0.010667 0.211857
v -0.224761 -0.010667 -0.211857
v -0.224761 0.025000 0.211857
v -0.224761 0.025000 -0.211857
v -0.211857 0.025000 -0.224761
v -0.211857 0.025000 0.224761
v 0.211857 0.025000 0.224761
v 0.224761 0.025000 0.211857
v 0.224761 0.025000 -0.211857
v 0.211857 0.025000 -0.224761
v 0.211857 -0.025000 -0.224761
v -0.211857 -0.025000 -0.224761
v -0.224761 -0.025000 -0.211857
v 0.224761 -0.025000 -0.211857
v 0.224761 -0.025000 0.211857
v 0.211857 -0.025000 0.224761
v -0.211857 -0.025000 0.224761
v -0.224761 -0.025000 0.211857
v -0.325038 0.025000 0.316892
v -0.316892 0.025000 0.325038
v -0.277390 0.025000 0.286058
v -0.286057 0.025000 0.277390
v 0.316892 0.025000 0.325038
v 0.325038 0.025000 0.316892
v 0.286058 0.025000 0.277390
v 0.277390 0.025000 0.286057
v 0.325038 0.025000 -0.316892
v 0.316892 0.025000 -0.325038
v 0.277390 0.025000 -0.286058
v 0.286057 0.025000 -0.277390
v -0.316892 0.025000 -0.325038
v -0.325038 0.025000 -0.316892
v -0.286058 0.025000 -0.277390
v -0.277390 0.025000 -0.286057
v 0.316892 -0.025000 -0.325038
v 0.325038 -0.025000 -0.316892
v 0.286057 -0.025000 -0.277390
v 0.277390 -0.025000 -0.286058
v 0.325038 -0.025000 0.316892
v 0.316892 -0.025000 0.325038
v 0.277390 -0.025000 0.286057
v 0.286058 -0.025000 0.277390
v -0.316892 -0.025000 0.325038
v -0.325038 -0.025000 0.316892
v -0.286057 -0.025000 0.277390
v -0.277390 -0.025000 0.286058
v -0.325038 -0.025000 -0.316892
v -0.316892 -0.025000 -0.325038
v -0.277390 -0.025000 -0.286057
v -0.286058 -0.025000 -0.277390
v -0.325038 0.020741 0.316892
v -0.316892 0.020741 0.325038
v -0.286057 0.024411 0.277389
v -0.277389 0.024411 0.286058
v 0.325038 0.020741 0.316892
v 0.316892 0.020741 0.325038
v 0.277389 0.024411 0.286057
v 0.286058 0.024411 0.277389
v 0.325038 0.020741 -0.316892
v 0.316892 0.020741 -0.325038
v 0.286057 0.024411 -0.277389
v 0.277389 0.024411 -0.286058
v -0.316892 0.020741 -0.325038
v -0.325038 0.020741 -0.316892
v -0.277389 0.024411 -0.286057
v -0.286058 0.024411 -0.277389
v 0.316892 -0.020741 -0.325038
v 0.325038 -0.020741 -0.316892
v 0.277389 -0.024411 -0.286058
v 0.286057 -0.024411 -0.277389
v 0.316892 -0.020741 0.325038
v 0.325038 -0.020741 0.316892
v 0.286058 -0.024411 0.277389
v 0.277389 -0.024411 0.286057
v -0.316892 -0.020741 0.325038
v -0.325038 -0.020741 0.316892
v -0.277389 -0.024411 0.286058
v -0.286057 -0.024411 0.277389
v -0.325038 -0.020741 -0.316892
v -0.316892 -0.020741 -0.325038
v -0.286058 -0.024411 -0.277389
v -0.277389 -0.024411 -0.286057
vn -1.0000 -0.0000 -0.0000
vn 1.0000 -0.0000 -0.0000
vn -0.0000 1.0000 -0.0000
vn -0.0000 -1.0000 -0.0000
vn -0.7071 -0.0000 -0.7071
vn -0.0000 -0.0000 1.0000
vn -0.0000 -0.0000 -1.0000
vn -0.7071 -0.0000 0.7071
vn 0.7071 -0.0000 -0.7071
vn 0.7071 -0.0000 0.7071
vn -0.7071 -0.0010 0.7071
vn -0.7071 -0.0010 -0.7071
vn 0.7071 -0.0010 0.7071
vn 0.7071 -0.0010 -0.7071
vn 0.7071 0.0010 -0.7071
vn -0.7071 0.0010 -0.7071
vn -0.7071 0.0010 0.7071
vn 0.7071 0.0010 0.7071
vn 0.7071 0.0032 -0.7071
vn -0.7071 0.0032 -0.7071
vn -0.7071 0.0032 0.7071
vn 0.7071 -0.0032 0.7071
vn -0.7071 -0.0032 0.7071
vn 0.7071 -0.0032 -0.7071
vn -0.7071 -0.0032 -0.7071
vn 0.7071 0.0032 0.7071
vn 0.7071 0.0077 0.7071
vn 0.7071 0.0077 -0.7071
vn -0.7071 -0.0077 -0.7071
vn 0.7071 -0.0077 -0.7071
vn -0.7071 -0.0077 0.7071
vn 0.7071 -0.0077 0.7071
vn -0.7071 0.0077 -0.7071
vn -0.7071 0.0077 0.7071
vn 0.7071 0.0102 0.7071
vn 0.7071 0.0102 -0.7071
vn -0.7071 0.0102 -0.7071
vn -0.7071 0.0102 0.7071
vn 0.7071 -0.0102 0.7071
vn -0.7071 -0.0102 0.7071
vn 0.7071 -0.0102 -0.7071
vn -0.7071 -0.0102 -0.7071
vn -0.7118 -0.0000 0.7024
vn 0.7118 -0.0000 0.7024
vn 0.7024 -0.0000 -0.7118
vn -0.7024 -0.0000 -0.7118
vn 0.7071 0.0002 -0.7071
vn -0.7118 -0.0000 -0.7024
vn 0.0230 0.9997 -0.0000
vn 0.0138 0.9998 -0.0138
vn -0.0000 0.9997 -0.0230
vn -0.0138 0.9998 -0.0138
vn -0.0230 0.9997 -0.0000
vn -0.0138 0.9998 0.0138
vn -0.0000 0.9997 0.0230
vn 0.0138 0.9998 0.0138
vn -0.0000 -0.9997 0.0230
vn -0.0138 -0.9998 0.0138
vn -0.0230 -0.9997 -0.0000
vn -0.0138 -0.9998 -0.0138
vn -0.0000 -0.9997 -0.0230
vn 0.0138 -0.9998 -0.0138
vn 0.0230 -0.9997 -0.0000
vn 0.0138 -0.9998 0.0138
vn -0.0467 0.9978 0.0467
vn 0.0467 0.9978 0.0467
vn 0.0467 0.9978 -0.0467
vn -0.0467 0.9978 -0.0467
vn 0.0467 -0.9978 -0.0467
vn 0.0467 -0.9978 0.0467
vn -0.0467 -0.9978 0.0467
vn -0.0467 -0.9978 -0.0467
vn -0.7071 0.0002 0.7071
vn 0.7071 -0.0002 0.7071
vn -0.7024 -0.0000 0.7118
vn 0.7118 -0.0000 -0.7024
vn -0.7071 -0.0002 -0.7071
vn 0.7071 0.0002 0.7071
vn -0.7071 -0.0002 0.7071
vn 0.7024 -0.0000 0.7118
vn -0.7071 0.0002 -0.7071
vn 0.7071 -0.0002 -0.7071
vt 0.862266 0.521115
vt 0.862266 0.728885
vt 0.862266 0.728919
vt 0.862266 0.521081
vt 0.637734 0.728885
vt 0.637734 0.521115
vt 0.637734 0.521081
vt 0.637734 0.728919
vt 0.137734 0.728885
vt 0.137734 0.521115
vt 0.137734 0.521081
vt 0.137734 0.728919
vt 0.637734 0.728885
vt 0.635774 0.730796
vt 0.635774 0.519204
vt 0.362266 0.521115
vt 0.364226 0.519204
vt 0.364226 0.730796
vt 0.362266 0.728885
vt 0.864226 0.519204
vt 0.864226 0.730796
vt 0.137734 0.728885
vt 0.135774 0.730796
vt 0.135774 0.519204
vt 0.364226 0.519222
vt 0.364226 0.730778
vt 0.364226 0.730796
vt 0.864226 0.519222
vt 0.864226 0.730778
vt 0.864226 0.730796
vt 0.635774 0.730778
vt 0.635774 0.519222
vt 0.635774 0.519204
vt 0.635774 0.730796
vt 0.362266 0.728919
vt 0.362266 0.521081
vt 0.635774 0.730778
vt 0.633242 0.733283
vt 0.633242 0.516717
vt 0.366758 0.516717
vt 0.366758 0.733283
vt 0.364226 0.730778
vt 0.866758 0.516717
vt 0.866758 0.733283
vt 0.864226 0.730778
vt 0.135774 0.730778
vt 0.133242 0.733283
vt 0.133242 0.516717
vt 0.135774 0.519222
vt 0.366758 0.516726
vt 0.366758 0.733274
vt 0.366758 0.516717
vt 0.866758 0.516726
vt 0.866758 0.733274
vt 0.633242 0.733274
vt 0.633242 0.516726
vt 0.633242 0.733283
vt 0.135774 0.519204
vt 0.135774 0.730796
vt 0.631200 0.735304
vt 0.631200 0.514696
vt 0.633242 0.516726
vt 0.368800 0.514696
vt 0.368800 0.735304
vt 0.868800 0.514696
vt 0.868800 0.735304
vt 0.133242 0.733274
vt 0.131200 0.735304
vt 0.131200 0.514696
vt 0.133242 0.516726
vt 0.131200 0.735300
vt 0.131200 0.514700
vt 0.368800 0.514700
vt 0.368800 0.735300
vt 0.868800 0.514700
vt 0.868800 0.735300
vt 0.868800 0.735304
vt 0.133242 0.733283
vt 0.631200 0.735300
vt 0.625000 0.741496
vt 0.625000 0.508504
vt 0.631200 0.514700
vt 0.368800 0.514700
vt 0.375000 0.508504
vt 0.375000 0.741496
vt 0.868800 0.514700
vt 0.875000 0.508504
vt 0.875000 0.741496
vt 0.131200 0.735300
vt 0.125000 0.741496
vt 0.125000 0.508504
vt 0.131200 0.514700
vt 0.631200 0.735300
vt 0.361323 0.728528
vt 0.353528 0.736323
vt 0.625000 0.741496
vt 0.625000 0.508504
vt 0.625000 0.241496
vt 0.375000 0.241496
vt 0.375000 0.008504
vt 0.625000 0.008504
vt 0.353885 0.737266
vt 0.146115 0.737266
vt 0.146081 0.737266
vt 0.353919 0.737266
vt 0.646115 0.512734
vt 0.853885 0.512734
vt 0.853919 0.512734
vt 0.646081 0.512734
vt 0.853885 0.737266
vt 0.646115 0.737266
vt 0.646081 0.737266
vt 0.853919 0.737266
vt 0.855796 0.739226
vt 0.644204 0.739226
vt 0.646115 0.737266
vt 0.355796 0.739226
vt 0.144204 0.739226
vt 0.644204 0.510774
vt 0.855796 0.510774
vt 0.146115 0.512734
vt 0.144204 0.510774
vt 0.355796 0.510774
vt 0.353885 0.512734
vt 0.144222 0.510774
vt 0.355778 0.510774
vt 0.355778 0.739226
vt 0.144222 0.739226
vt 0.644222 0.510774
vt 0.855778 0.510774
vt 0.644204 0.510774
vt 0.146115 0.512734
vt 0.353919 0.512734
vt 0.146081 0.512734
vt 0.855778 0.739226
vt 0.858283 0.741758
vt 0.641717 0.741758
vt 0.644222 0.739226
vt 0.358283 0.741758
vt 0.141717 0.741758
vt 0.641717 0.508242
vt 0.858283 0.508242
vt 0.855778 0.510774
vt 0.141717 0.508242
vt 0.358283 0.508242
vt 0.358274 0.741758
vt 0.141726 0.741758
vt 0.358283 0.741758
vt 0.641726 0.508242
vt 0.858274 0.508242
vt 0.641717 0.508242
vt 0.858274 0.741758
vt 0.641726 0.741758
vt 0.855778 0.739226
vt 0.858274 0.741758
vt 0.860304 0.743800
vt 0.639696 0.743800
vt 0.358274 0.741758
vt 0.360304 0.743800
vt 0.139696 0.743800
vt 0.639696 0.506200
vt 0.860304 0.506200
vt 0.858274 0.508242
vt 0.641726 0.508242
vt 0.141726 0.508242
vt 0.139696 0.506200
vt 0.360304 0.506200
vt 0.358274 0.508242
vt 0.860300 0.743800
vt 0.639700 0.743800
vt 0.639696 0.743800
vt 0.139700 0.506200
vt 0.360300 0.506200
vt 0.360300 0.743800
vt 0.139700 0.743800
vt 0.139696 0.743800
vt 0.141717 0.508242
vt 0.860300 0.743800
vt 0.866496 0.750000
vt 0.633504 0.750000
vt 0.639700 0.743800
vt 0.366496 0.750000
vt 0.133504 0.750000
vt 0.139700 0.743800
vt 0.633504 0.500000
vt 0.866496 0.500000
vt 0.860300 0.506200
vt 0.639700 0.506200
vt 0.133504 0.500000
vt 0.366496 0.500000
vt 0.360300 0.506200
vt 0.639700 0.506200
vt 0.860300 0.506200
vt 0.639696 0.506200
vt 0.625000 0.991496
vt 0.375000 0.991496
vt 0.375000 0.758504
vt 0.625000 0.758504
vt 0.638677 0.728528
vt 0.638677 0.521472
vt 0.375000 0.258504
vt 0.625000 0.258504
vt 0.625000 0.491496
vt 0.375000 0.491496
vt 0.375000 0.000000
vt 0.625000 0.000000
vt 0.861323 0.728528
vt 0.861323 0.521472
vt 0.639513 0.730654
vt 0.641549 0.731441
vt 0.646472 0.736323
vt 0.853528 0.736323
vt 0.139513 0.730654
vt 0.141549 0.731441
vt 0.643559 0.733451
vt 0.644346 0.735486
vt 0.853528 0.513677
vt 0.646472 0.513677
vt 0.143559 0.733451
vt 0.144346 0.735486
vt 0.353528 0.513677
vt 0.146472 0.513677
vt 0.358451 0.518559
vt 0.356441 0.516549
vt 0.361323 0.521472
vt 0.146472 0.736323
vt 0.138677 0.521472
vt 0.138677 0.728528
vt 0.360487 0.519346
vt 0.147572 0.516333
vt 0.352428 0.516333
vt 0.852428 0.516333
vt 0.858667 0.522572
vt 0.858667 0.727428
vt 0.852428 0.733667
vt 0.647572 0.733667
vt 0.641333 0.727428
vt 0.641333 0.522572
vt 0.647572 0.516333
vt 0.358667 0.522572
vt 0.358667 0.727428
vt 0.352428 0.733667
vt 0.147572 0.733667
vt 0.141333 0.727428
vt 0.141333 0.522572
vt 0.855654 0.735487
vt 0.860487 0.730654
vt 0.856441 0.733451
vt 0.858451 0.731441
vt 0.644346 0.514513
vt 0.639513 0.519346
vt 0.643559 0.516549
vt 0.641549 0.518559
vt 0.860487 0.519346
vt 0.855654 0.514513
vt 0.858451 0.518559
vt 0.856441 0.516549
vt 0.355654 0.514513
vt 0.355654 0.735487
vt 0.360487 0.730654
vt 0.356441 0.733451
vt 0.358451 0.731441
vt 0.144346 0.514513
vt 0.139513 0.519346
vt 0.143559 0.516549
vt 0.141549 0.518559
s 0
usemtl M_Gris_Metal
f 1/71/2 6/72/2 50/69/2 51/68/2
f 13/73/1 10/74/1 62/64/1 57/63/1
f 7/75/2 4/76/2 54/77/2 55/65/2
f 11/79/3 31/80/3 28/81/3 16/82/3
f 13/83/4 25/84/4 30/85/4 10/74/4
f 7/86/3 23/87/3 22/88/3 4/76/3
f 1/89/4 19/90/4 18/91/4 6/92/4
f 11/93/1 16/82/1 60/61/1 63/60/1
f 31/96/2 30/85/2 25/84/2 28/97/2
f 23/98/1 18/99/1 19/100/1 22/101/1
f 3/169/7 12/170/7 64/171/7 53/156/7
f 49/166/6 5/172/6 14/173/6 58/167/6
f 9/174/7 2/175/7 52/176/7 61/159/7
f 3/178/3 21/179/3 32/180/3 12/181/3
f 9/174/4 29/182/4 20/183/4 2/184/4
f 27/185/3 24/186/3 8/187/3 15/188/3
f 5/172/4 17/189/4 26/190/4 14/191/4
f 15/192/6 8/193/6 56/162/6 59/194/6
f 21/195/6 20/196/6 29/197/6 32/198/6
f 17/201/7 24/202/7 27/203/7 26/204/7
f 20/205/8 21/206/8 22/101/8 19/100/8
f 24/202/5 17/201/5 18/99/5 23/98/5
f 28/97/9 25/84/9 26/204/9 27/203/9
f 32/198/10 29/197/10 30/85/10 31/96/10
f 17/189/4 5/172/4 6/92/4 18/91/4
f 2/184/4 20/183/4 19/90/4 1/89/4
f 21/179/3 3/178/3 4/76/3 22/88/3
f 8/187/3 24/186/3 23/87/3 7/86/3
f 25/84/4 13/83/4 14/191/4 26/190/4
f 16/82/3 28/81/3 27/185/3 15/188/3
f 29/182/4 9/174/4 10/74/4 30/85/4
f 12/181/3 32/180/3 31/80/3 11/79/3
f 15/192/11 59/194/11 60/61/11 16/82/11
f 64/171/12 12/170/12 11/93/12 63/60/12
f 7/75/13 55/65/13 56/162/13 8/193/13
f 3/169/14 53/156/14 54/77/14 4/76/14
f 1/71/15 51/68/15 52/176/15 2/175/15
f 62/64/16 10/74/16 9/174/16 61/159/16
f 58/167/17 14/173/17 13/73/17 57/63/17
f 50/69/18 6/72/18 5/172/18 49/166/18
usemtl M_Noir_Profond
f 111/13/3 127/14/3 124/15/3 108/6/3
f 105/16/4 121/17/4 126/18/4 110/19/4
f 103/1/3 119/20/3 118/21/3 102/2/3
f 99/22/4 115/23/4 114/24/4 98/10/4
f 73/25/1 78/26/1 126/27/1 121/17/1
f 71/28/2 70/29/2 118/30/2 119/20/2
f 79/31/1 76/32/1 124/33/1 127/34/1
f 79/37/3 95/38/3 92/39/3 76/32/3
f 73/25/4 89/40/4 94/41/4 78/42/4
f 71/28/3 87/43/3 86/44/3 70/45/3
f 67/46/4 83/47/4 82/48/4 66/49/4
f 41/50/2 46/51/2 94/41/2 89/52/2
f 39/53/1 38/54/1 86/44/1 87/43/1
f 47/55/2 44/56/2 92/39/2 95/57/2
f 67/46/2 66/49/2 114/58/2 115/59/2
f 47/55/3 63/60/3 60/61/3 44/62/3
f 41/50/4 57/63/4 62/64/4 46/51/4
f 39/53/3 55/65/3 54/66/3 38/54/3
f 35/67/4 51/68/4 50/69/4 34/70/4
f 35/67/1 34/70/1 82/48/1 83/78/1
f 101/110/3 117/114/3 128/115/3 112/116/3
f 109/102/4 125/117/4 116/118/4 100/103/4
f 123/119/3 120/120/3 104/107/3 107/106/3
f 97/121/4 113/122/4 122/123/4 106/124/4
f 65/125/6 74/126/6 122/123/6 113/122/6
f 77/127/7 68/128/7 116/118/7 125/117/7
f 75/129/6 72/130/6 120/120/6 123/131/6
f 69/135/3 85/136/3 96/137/3 80/138/3
f 77/127/4 93/139/4 84/140/4 68/128/4
f 91/141/3 88/142/3 72/143/3 75/129/3
f 65/125/4 81/144/4 90/145/4 74/126/4
f 45/146/6 36/147/6 84/140/6 93/148/6
f 43/149/7 40/150/7 88/142/7 91/151/7
f 37/152/6 48/153/6 96/137/6 85/136/6
f 69/154/7 80/138/7 128/115/7 117/114/7
f 37/155/3 53/156/3 64/157/3 48/153/3
f 45/158/4 61/159/4 52/160/4 36/147/4
f 59/161/3 56/162/3 40/163/3 43/164/3
f 33/165/4 49/166/4 58/167/4 42/168/4
f 81/177/7 33/165/7 42/168/7 90/145/7
f 49/166/4 33/165/4 34/70/4 50/69/4
f 36/147/4 52/160/4 51/68/4 35/67/4
f 53/156/3 37/155/3 38/54/3 54/66/3
f 40/163/3 56/162/3 55/65/3 39/53/3
f 57/63/4 41/50/4 42/168/4 58/167/4
f 44/62/3 60/61/3 59/161/3 43/164/3
f 61/159/4 45/158/4 46/51/4 62/64/4
f 48/153/3 64/157/3 63/60/3 47/55/3
f 41/50/19 89/52/19 90/145/19 42/168/19
f 82/48/20 34/70/20 33/165/20 81/177/20
f 84/140/21 36/147/21 35/67/21 83/78/21
f 47/55/22 95/57/22 96/137/22 48/153/22
f 86/44/23 38/54/23 37/152/23 85/136/23
f 43/149/24 91/151/24 92/39/24 44/56/24
f 39/53/25 87/43/25 88/142/25 40/150/25
f 94/41/26 46/51/26 45/146/26 93/148/26
f 81/144/4 65/125/4 66/49/4 82/48/4
f 68/128/4 84/140/4 83/47/4 67/46/4
f 85/136/3 69/135/3 70/45/3 86/44/3
f 72/143/3 88/142/3 87/43/3 71/28/3
f 89/40/4 73/25/4 74/126/4 90/145/4
f 76/32/3 92/39/3 91/141/3 75/129/3
f 93/139/4 77/127/4 78/42/4 94/41/4
f 80/138/3 96/137/3 95/38/3 79/37/3
f 65/125/27 113/122/27 114/58/27 66/49/27
f 116/118/28 68/128/28 67/46/28 115/59/28
f 79/31/29 127/34/29 128/115/29 80/138/29
f 118/30/30 70/29/30 69/154/30 117/114/30
f 75/129/31 123/131/31 124/33/31 76/32/31
f 71/28/32 119/20/32 120/120/32 72/130/32
f 126/27/33 78/26/33 77/127/33 125/117/33
f 122/123/34 74/126/34 73/25/34 121/17/34
f 113/122/4 97/121/4 98/10/4 114/24/4
f 100/103/4 116/118/4 115/23/4 99/22/4
f 117/114/3 101/110/3 102/2/3 118/21/3
f 104/107/3 120/120/3 119/20/3 103/1/3
f 121/17/4 105/16/4 106/124/4 122/123/4
f 108/6/3 124/15/3 123/119/3 107/106/3
f 125/117/4 109/102/4 110/19/4 126/18/4
f 112/116/3 128/115/3 127/14/3 111/13/3
f 185/230/7 186/231/7 201/231/7 202/230/7
f 162/208/49 161/207/49 178/234/49 177/233/49
f 161/207/50 164/212/50 179/235/50 178/234/50
f 164/212/51 165/211/51 180/236/51 179/235/51
f 165/211/52 166/199/52 181/237/52 180/236/52
f 166/199/53 167/200/53 182/238/53 181/237/53
f 167/200/54 168/218/54 183/239/54 182/238/54
f 168/218/55 163/217/55 184/232/55 183/239/55
f 163/217/56 162/208/56 177/233/56 184/232/56
f 170/222/57 169/221/57 186/231/57 185/230/57
f 169/221/58 172/225/58 187/240/58 186/231/58
f 172/225/59 173/94/59 188/241/59 187/240/59
f 173/94/60 174/95/60 189/242/60 188/241/60
f 174/95/61 175/226/61 190/243/61 189/242/61
f 175/226/62 176/228/62 191/244/62 190/243/62
f 176/228/63 171/227/63 192/245/63 191/244/63
f 171/227/64 170/222/64 185/230/64 192/245/64
f 192/245/5 185/230/5 202/230/5 203/245/5
f 186/231/9 187/240/9 204/240/9 201/231/9
f 187/240/2 188/241/2 205/241/2 204/240/2
f 188/241/10 189/242/10 206/242/10 205/241/10
f 189/242/6 190/243/6 207/243/6 206/242/6
f 190/243/8 191/244/8 208/244/8 207/243/8
f 191/244/1 192/245/1 203/245/1 208/244/1
usemtl M_Gris_Metal
f 103/1/1 102/2/1 143/3/1 134/4/1
f 111/5/2 108/6/2 139/7/2 132/8/2
f 99/9/1 98/10/1 135/11/1 138/12/1
f 105/16/2 110/19/2 129/35/2 142/36/2
f 156/94/5 157/95/5 174/95/5 173/94/5
f 109/102/6 100/103/6 137/104/6 130/105/6
f 107/106/7 104/107/7 133/108/7 140/109/7
f 101/110/6 112/111/6 131/112/6 144/113/6
f 97/132/7 106/124/7 141/133/7 136/134/7
f 149/199/1 150/200/1 167/200/1 166/199/1
f 109/102/35 130/105/35 129/35/35 110/19/35
f 141/133/36 106/124/36 105/16/36 142/36/36
f 135/11/37 98/10/37 97/132/37 136/134/37
f 137/104/38 100/103/38 99/9/38 138/12/38
f 111/5/39 132/8/39 131/112/39 112/111/39
f 143/3/40 102/2/40 101/110/40 144/113/40
f 107/106/41 140/109/41 139/7/41 108/6/41
f 103/1/42 134/4/42 133/108/42 104/107/42
f 134/4/3 143/3/3 146/207/3 145/208/3
f 214/209/43 215/210/43 248/210/43 245/209/43
f 144/113/3 131/112/3 148/211/3 147/212/3
f 234/213/44 235/214/44 268/214/44 266/213/44
f 132/8/3 139/7/3 150/200/3 149/199/3
f 216/215/45 213/216/45 246/216/45 247/215/45
f 140/109/3 133/108/3 152/217/3 151/218/3
f 236/219/46 233/220/46 265/220/46 267/219/46
f 136/134/4 141/133/4 154/221/4 153/222/4
f 227/223/47 228/224/47 259/224/47 260/223/47
f 142/36/4 129/35/4 156/94/4 155/225/4
f 213/216/5 214/209/5 245/209/5 246/216/5
f 130/105/4 137/104/4 158/226/4 157/95/4
f 233/220/9 234/213/9 266/213/9 265/220/9
f 138/12/4 135/11/4 160/227/4 159/228/4
f 226/229/48 227/223/48 260/223/48 258/229/48
f 184/232/5 177/233/5 194/233/5 195/232/5
f 150/200/8 151/218/8 168/218/8 167/200/8
f 157/95/7 158/226/7 175/226/7 174/95/7
f 151/218/6 152/217/6 163/217/6 168/218/6
f 158/226/9 159/228/9 176/228/9 175/226/9
f 145/208/2 146/207/2 161/207/2 162/208/2
f 159/228/2 160/227/2 171/227/2 176/228/2
f 152/217/10 145/208/10 162/208/10 163/217/10
f 153/222/6 154/221/6 169/221/6 170/222/6
f 146/207/9 147/212/9 164/212/9 161/207/9
f 160/227/10 153/222/10 170/222/10 171/227/10
f 147/212/7 148/211/7 165/211/7 164/212/7
f 154/221/8 155/225/8 172/225/8 169/221/8
f 148/211/5 149/199/5 166/199/5 165/211/5
f 155/225/1 156/94/1 173/94/1 172/225/1
f 194/233/3 193/234/3 196/235/3 197/236/3 198/237/3 199/238/3 200/239/3 195/232/3
f 202/230/4 201/231/4 204/240/4 205/241/4 206/242/4 207/243/4 208/244/4 203/245/4
f 178/234/8 179/235/8 196/235/8 193/234/8
f 179/235/6 180/236/6 197/236/6 196/235/6
f 180/236/10 181/237/10 198/237/10 197/236/10
f 181/237/2 182/238/2 199/238/2 198/237/2
f 182/238/9 183/239/9 200/239/9 199/238/9
f 183/239/7 184/232/7 195/232/7 200/239/7
f 177/233/1 178/234/1 193/234/1 194/233/1
f 143/3/3 144/113/3 210/246/3 209/247/3
f 144/113/3 147/212/3 211/248/3 210/246/3
f 147/212/3 146/207/3 212/249/3 211/248/3
f 146/207/3 143/3/3 209/247/3 212/249/3
f 131/112/3 132/8/3 214/209/3 213/216/3
f 132/8/3 149/199/3 215/210/3 214/209/3
f 149/199/3 148/211/3 216/215/3 215/210/3
f 148/211/3 131/112/3 213/216/3 216/215/3
f 139/7/3 140/109/3 218/250/3 217/251/3
f 140/109/3 151/218/3 219/252/3 218/250/3
f 151/218/3 150/200/3 220/253/3 219/252/3
f 150/200/3 139/7/3 217/251/3 220/253/3
f 133/108/3 134/4/3 222/254/3 221/255/3
f 134/4/3 145/208/3 223/256/3 222/254/3
f 145/208/3 152/217/3 224/257/3 223/256/3
f 152/217/3 133/108/3 221/255/3 224/257/3
f 141/133/4 142/36/4 226/229/4 225/258/4
f 142/36/4 155/225/4 227/223/4 226/229/4
f 155/225/4 154/221/4 228/224/4 227/223/4
f 154/221/4 141/133/4 225/258/4 228/224/4
f 129/35/4 130/105/4 230/259/4 229/260/4
f 130/105/4 157/95/4 231/261/4 230/259/4
f 157/95/4 156/94/4 232/262/4 231/261/4
f 156/94/4 129/35/4 229/260/4 232/262/4
f 137/104/4 138/12/4 234/213/4 233/220/4
f 138/12/4 159/228/4 235/214/4 234/213/4
f 159/228/4 158/226/4 236/219/4 235/214/4
f 158/226/4 137/104/4 233/220/4 236/219/4
f 135/11/4 136/134/4 238/263/4 237/264/4
f 136/134/4 153/222/4 239/265/4 238/263/4
f 153/222/4 160/227/4 240/266/4 239/265/4
f 160/227/4 135/11/4 237/264/4 240/266/4
f 221/255/10 222/254/10 254/254/10 253/255/10
f 235/214/73 236/219/73 267/219/73 268/214/73
f 215/210/74 216/215/74 247/215/74 248/210/74
f 224/257/75 221/255/75 253/255/75 255/257/75
f 222/254/76 223/256/76 256/256/76 254/254/76
f 229/260/5 230/259/5 261/259/5 262/260/5
f 209/247/9 210/246/9 242/246/9 241/247/9
f 223/256/77 224/257/77 255/257/77 256/256/77
f 232/262/43 229/260/43 262/260/43 263/262/43
f 212/249/44 209/247/44 241/247/44 243/249/44
f 230/259/45 231/261/45 264/261/45 261/259/45
f 210/246/46 211/248/46 244/248/46 242/246/46
f 237/264/10 238/263/10 270/263/10 269/264/10
f 217/251/8 218/250/8 250/250/8 249/251/8
f 231/261/78 232/262/78 263/262/78 264/261/78
f 211/248/79 212/249/79 243/249/79 244/248/79
f 240/266/76 237/264/76 269/264/76 271/266/76
f 220/253/48 217/251/48 249/251/48 251/253/48
f 238/263/75 239/265/75 272/265/75 270/263/75
f 218/250/80 219/252/80 252/252/80 250/250/80
f 225/258/8 226/229/8 258/229/8 257/258/8
f 239/265/81 240/266/81 271/266/81 272/265/81
f 219/252/82 220/253/82 251/253/82 252/252/82
f 228/224/80 225/258/80 257/258/80 259/224/80
usemtl M_Noir_Bleuté
f 241/247/65 242/246/65 244/248/65 243/249/65
f 246/216/66 245/209/66 248/210/66 247/215/66
f 249/251/67 250/250/67 252/252/67 251/253/67
f 253/255/68 254/254/68 256/256/68 255/257/68
f 257/258/69 258/229/69 260/223/69 259/224/69
f 262/260/70 261/259/70 264/261/70 263/262/70
f 265/220/71 266/213/71 268/214/71 267/219/71
f 269/264/72 270/263/72 272/265/72 271/266/72
