# Blender 4.2.3 LTS
# www.blender.org
mtllib SM_Wall_V0.mtl
o SM_Wall_V0
v -0.086055 -0.825625 0.785625
v -0.086055 -0.785625 0.825625
v -0.086055 0.785625 0.825625
v -0.086055 0.825625 0.785625
v -0.086055 0.825625 -0.785625
v -0.086055 0.785625 -0.825625
v 0.086055 0.785625 -0.825625
v 0.086055 0.825625 -0.785625
v 0.086055 -0.825625 -0.785625
v 0.086055 -0.785625 -0.825625
v 0.086055 -0.785625 0.825625
v 0.086055 -0.825625 0.785625
v 0.086055 0.825625 0.785625
v 0.086055 0.785625 0.825625
v 0.100000 1.000000 -1.000000
v 0.100000 -1.000000 -1.000000
v 0.100000 1.000000 1.000000
v 0.100000 -1.000000 1.000000
v -0.100000 1.000000 -1.000000
v -0.100000 -1.000000 -1.000000
v -0.100000 1.000000 1.000000
v -0.100000 -1.000000 1.000000
v -0.100000 -1.000000 0.866667
v 0.100000 1.000000 0.866667
v -0.100000 1.000000 0.866667
v 0.100000 -1.000000 0.866667
v -0.100000 1.000000 -0.866667
v 0.100000 -1.000000 -0.866667
v -0.100000 -1.000000 -0.866667
v 0.100000 1.000000 -0.866667
v -0.100000 0.866667 1.000000
v 0.100000 0.866667 -1.000000
v 0.100000 0.866667 1.000000
v -0.100000 0.866667 -1.000000
v 0.100000 -0.866667 -1.000000
v 0.100000 -0.866667 1.000000
v -0.100000 -0.866667 -1.000000
v -0.100000 -0.866667 1.000000
v 0.071520 0.866673 -0.733334
v 0.071520 0.866673 0.733334
v -0.071520 0.866673 0.733334
v -0.071520 0.866673 -0.733334
v -0.071520 -0.733334 0.866673
v -0.071520 0.733334 0.866673
v 0.071520 -0.733334 -0.866673
v 0.071520 0.733334 -0.866673
v 0.071520 -0.733334 0.866673
v 0.071520 0.733334 0.866673
v -0.071520 -0.733334 -0.866673
v -0.071520 0.733334 -0.866673
v 0.071520 -0.866673 -0.733334
v 0.071520 -0.866673 0.733334
v -0.071520 -0.866673 0.733334
v -0.071520 -0.866673 -0.733334
v -0.086265 -0.959155 -0.692488
v -0.086265 -0.959155 0.692488
v 0.086265 0.959155 -0.692488
v 0.086265 0.959155 0.692488
v -0.086265 0.959155 0.692488
v -0.086265 0.959155 -0.692488
v 0.086265 -0.959155 0.692488
v 0.086265 -0.959155 -0.692488
v 0.086265 -0.907512 -0.692488
v 0.086265 -0.907512 0.692488
v -0.086265 -0.907512 0.692488
v -0.086265 -0.907512 -0.692488
v 0.086265 0.692488 -0.959155
v 0.086265 -0.692488 -0.959155
v -0.086265 -0.692488 0.959155
v -0.086265 0.692488 0.959155
v 0.086265 0.692488 0.959155
v 0.086265 -0.692488 0.959155
v -0.086265 0.692488 -0.959155
v -0.086265 -0.692488 -0.959155
v 0.086265 -0.692488 0.907512
v 0.086265 0.692488 0.907512
v -0.086265 -0.692488 -0.907512
v -0.086265 0.692488 -0.907512
v -0.086265 -0.692488 0.907512
v -0.086265 0.692488 0.907512
v 0.086265 -0.692488 -0.907512
v 0.086265 0.692488 -0.907512
v 0.086265 0.907512 -0.692488
v 0.086265 0.907512 0.692488
v -0.086265 0.907512 0.692488
v -0.086265 0.907512 -0.692488
v -0.100000 0.866667 0.928231
v -0.100000 0.928231 0.866667
v 0.100000 0.928231 0.866667
v 0.100000 0.866667 0.928231
v 0.100000 0.866667 -0.928231
v 0.100000 0.928231 -0.866667
v -0.100000 0.928231 -0.866667
v -0.100000 0.866667 -0.928231
v 0.100000 -0.866667 0.928231
v 0.100000 -0.928231 0.866667
v -0.100000 -0.928231 0.866667
v -0.100000 -0.866667 0.928231
v -0.100000 -0.866667 -0.928231
v -0.100000 -0.928231 -0.866667
v 0.100000 -0.928231 -0.866667
v 0.100000 -0.866667 -0.928231
v -0.071520 0.805105 0.866671
v -0.071520 0.866671 0.805105
v 0.071520 0.866671 0.805105
v 0.071520 0.805105 0.866671
v 0.071520 0.805105 -0.866671
v 0.071520 0.866671 -0.805105
v -0.071520 0.866671 -0.805105
v -0.071520 0.805105 -0.866671
v 0.071520 -0.805105 0.866671
v 0.071520 -0.866671 0.805105
v -0.071520 -0.866671 0.805105
v -0.071520 -0.805105 0.866671
v -0.071520 -0.805105 -0.866671
v -0.071520 -0.866671 -0.805105
v 0.071520 -0.866671 -0.805105
v 0.071520 -0.805105 -0.866671
v -0.091983 -1.000000 -0.733333
v -0.100000 -1.000000 -0.741350
v -0.071515 -0.825625 0.785625
v -0.100000 -1.000000 0.741350
v -0.091983 -1.000000 0.733333
v 0.091983 1.000000 -0.733333
v 0.100000 1.000000 -0.741350
v 0.100000 1.000000 0.741350
v 0.091983 1.000000 0.733333
v -0.086055 -0.825625 -0.785625
v -0.091983 1.000000 0.733333
v -0.100000 1.000000 0.741350
v -0.100000 1.000000 -0.741350
v -0.091983 1.000000 -0.733333
v 0.091983 -1.000000 0.733333
v 0.100000 -1.000000 0.741350
v -0.071515 0.785625 -0.825625
v 0.100000 -1.000000 -0.741350
v 0.091983 -1.000000 -0.733333
v -0.086055 -0.785625 -0.825625
v 0.100000 0.741350 -1.000000
v 0.091983 0.733333 -1.000000
v -0.071515 -0.825625 -0.785625
v 0.091983 -0.733333 -1.000000
v 0.100000 -0.741350 -1.000000
v 0.071515 -0.825625 -0.785625
v -0.091983 -0.733333 1.000000
v -0.100000 -0.741350 1.000000
v -0.071515 -0.785625 -0.825625
v -0.100000 0.741350 1.000000
v -0.091983 0.733333 1.000000
v 0.091983 0.733333 1.000000
v 0.100000 0.741350 1.000000
v 0.100000 -0.741350 1.000000
v 0.091983 -0.733333 1.000000
v 0.071515 -0.785625 -0.825625
v -0.091983 0.733333 -1.000000
v -0.100000 0.741350 -1.000000
v 0.071515 0.785625 -0.825625
v -0.100000 -0.741350 -1.000000
v -0.091983 -0.733333 -1.000000
v 0.071515 0.825625 -0.785625
v -0.100000 -0.741350 0.873544
v -0.091983 -0.733333 0.866668
v -0.100000 0.741350 0.873544
v -0.091983 0.733333 0.866668
v 0.100000 -0.741350 0.873544
v 0.091983 -0.733333 0.866668
v 0.100000 0.741350 0.873544
v 0.091983 0.733333 0.866668
v 0.100000 -0.741350 -0.873544
v 0.091983 -0.733333 -0.866668
v 0.100000 0.741350 -0.873544
v 0.091983 0.733333 -0.866668
v -0.100000 -0.741350 -0.873544
v -0.091983 -0.733333 -0.866668
v -0.100000 0.741350 -0.873544
v -0.091983 0.733333 -0.866668
v 0.100000 0.873544 -0.741350
v 0.091983 0.866668 -0.733333
v 0.100000 0.873544 0.741350
v 0.091983 0.866668 0.733333
v -0.100000 0.873544 0.741350
v -0.091983 0.866668 0.733333
v -0.100000 0.873544 -0.741350
v -0.091983 0.866668 -0.733333
v 0.100000 -0.873544 -0.741350
v 0.091983 -0.866668 -0.733333
v 0.100000 -0.873544 0.741350
v 0.091983 -0.866668 0.733333
v -0.100000 -0.873544 0.741350
v -0.091983 -0.866668 0.733333
v -0.100000 -0.873544 -0.741350
v -0.091983 -0.866668 -0.733333
v -0.100000 0.873498 0.811933
v -0.091983 0.866668 0.805103
v -0.091983 0.805103 0.866668
v -0.100000 0.811933 0.873498
v 0.100000 0.811933 0.873498
v 0.091983 0.805103 0.866668
v 0.091983 0.866668 0.805103
v 0.100000 0.873498 0.811933
v 0.100000 0.873498 -0.811933
v 0.091983 0.866668 -0.805103
v 0.091983 0.805103 -0.866668
v 0.100000 0.811933 -0.873498
v -0.100000 0.811933 -0.873498
v -0.091983 0.805103 -0.866668
v -0.091983 0.866668 -0.805103
v -0.100000 0.873498 -0.811933
v 0.100000 -0.873498 0.811933
v 0.091983 -0.866668 0.805103
v 0.091983 -0.805103 0.866668
v 0.100000 -0.811933 0.873498
v -0.100000 -0.811933 0.873498
v -0.091983 -0.805103 0.866668
v -0.091983 -0.866668 0.805103
v -0.100000 -0.873498 0.811933
v -0.100000 -0.873498 -0.811933
v -0.091983 -0.866668 -0.805103
v -0.091983 -0.805103 -0.866668
v -0.100000 -0.811933 -0.873498
v 0.100000 -0.811933 -0.873498
v 0.091983 -0.805103 -0.866668
v 0.091983 -0.866668 -0.805103
v 0.100000 -0.873498 -0.811933
v 0.060907 -0.912676 -0.553991
v 0.086265 -0.866667 -0.733333
v 0.086265 -1.000000 -0.733333
v 0.086265 -0.866667 0.733333
v 0.086265 -1.000000 0.733333
v -0.086265 -0.866667 0.733333
v -0.086265 -1.000000 0.733333
v -0.086265 -0.866667 -0.733333
v -0.086265 -1.000000 -0.733333
v 0.086265 -0.733333 0.866667
v 0.086265 -0.733333 1.000000
v 0.086265 0.733333 0.866667
v 0.086265 0.733333 1.000000
v -0.086265 -0.733333 -0.866667
v -0.086265 -0.733333 -1.000000
v -0.086265 0.733333 -0.866667
v -0.086265 0.733333 -1.000000
v -0.086265 -0.733333 1.000000
v -0.086265 -0.733333 0.866667
v -0.086265 0.733333 1.000000
v -0.086265 0.733333 0.866667
v 0.086265 -0.733333 -1.000000
v 0.086265 -0.733333 -0.866667
v 0.086265 0.733333 -1.000000
v 0.086265 0.733333 -0.866667
v 0.086265 1.000000 -0.733333
v 0.086265 0.866667 -0.733333
v 0.086265 1.000000 0.733333
v 0.086265 0.866667 0.733333
v -0.086265 1.000000 0.733333
v -0.086265 0.866667 0.733333
v -0.086265 1.000000 -0.733333
v -0.086265 0.866667 -0.733333
v 0.060907 -0.953991 -0.553991
v 0.060907 -0.912676 0.553991
v 0.060907 -0.953991 0.553991
v -0.060907 -0.912676 0.553991
v -0.060907 -0.953991 0.553991
v -0.060907 -0.912676 -0.553991
v -0.060907 -0.953991 -0.553991
v 0.060907 -0.553991 0.912676
v 0.060907 -0.553991 0.953991
v 0.060907 0.553991 0.912676
v 0.060907 0.553991 0.953991
v -0.060907 -0.553991 -0.912676
v -0.060907 -0.553991 -0.953991
v -0.060907 0.553991 -0.912676
v -0.060907 0.553991 -0.953991
v -0.060907 -0.553991 0.953991
v -0.060907 -0.553991 0.912676
v -0.060907 0.553991 0.953991
v -0.060907 0.553991 0.912676
v 0.060907 -0.553991 -0.953991
v 0.060907 -0.553991 -0.912676
v 0.060907 0.553991 -0.953991
v 0.060907 0.553991 -0.912676
v 0.060907 0.953991 -0.553991
v 0.060907 0.912676 -0.553991
v 0.060907 0.953991 0.553991
v 0.060907 0.912676 0.553991
v -0.060907 0.953991 0.553991
v -0.060907 0.912676 0.553991
v -0.060907 0.953991 -0.553991
v -0.060907 0.912676 -0.553991
v 0.071515 -0.825625 0.785625
v -0.071515 0.785625 0.825625
v -0.071515 -0.785625 0.825625
v 0.071515 -0.785625 0.825625
v 0.071515 0.785625 0.825625
v 0.071515 0.825625 0.785625
v -0.071515 0.825625 -0.785625
v -0.071515 0.825625 0.785625
vn -0.0000 0.7071 -0.7071
vn -0.0000 -0.0000 -1.0000
vn -0.0000 -1.0000 -0.0000
vn -0.0000 -0.0000 1.0000
vn -0.0000 -0.7071 -0.7071
vn -0.0000 1.0000 -0.0000
vn 1.0000 -0.0000 -0.0000
vn -1.0000 -0.0000 -0.0000
vn -0.0002 -1.0000 -0.0000
vn 0.0002 -1.0000 -0.0000
vn 0.0002 1.0000 -0.0000
vn -0.0002 -0.0000 1.0000
vn 0.0002 -0.0000 1.0000
vn -0.0002 1.0000 -0.0000
vn 0.0002 -0.0000 -1.0000
vn -0.0002 -0.0000 -1.0000
vn 0.0002 -0.7071 -0.7071
vn -0.0002 -0.7071 -0.7071
vn -0.0002 -0.7071 0.7071
vn 0.0002 -0.7071 0.7071
vn -0.0002 0.7071 -0.7071
vn 0.0002 0.7071 -0.7071
vn 0.0002 0.7071 0.7071
vn -0.0002 0.7071 0.7071
vn 0.9836 -0.1801 -0.0000
vn 0.1996 -0.9799 -0.0000
vn 0.0004 -0.0000 -1.0000
vn -0.0004 -0.0000 -1.0000
vn 0.9836 0.1801 -0.0000
vn 0.1996 -0.0000 -0.9799
vn -0.0004 -0.0000 1.0000
vn 0.0004 -0.0000 1.0000
vn -0.0004 -1.0000 -0.0000
vn -0.9836 -0.1801 -0.0000
vn -0.1996 -0.0000 -0.9799
vn 0.0004 -1.0000 -0.0000
vn -0.9836 0.1801 -0.0000
vn -0.1996 -0.0000 0.9799
vn 0.0004 1.0000 -0.0000
vn -0.0004 1.0000 -0.0000
vn 0.7071 -0.0000 0.7071
vn 0.7071 -0.0000 -0.7071
vn -0.7071 -0.0000 -0.7071
vn -0.7071 -0.0000 0.7071
vn 0.7071 0.7071 -0.0000
vn 0.7071 -0.7071 -0.0000
vn -0.7071 0.7071 -0.0000
vn -0.7071 -0.7071 -0.0000
vn -0.7695 -0.4516 -0.4516
vn 0.7695 -0.4516 -0.4516
vn 0.7695 -0.4516 0.4516
vn -0.7695 -0.4516 0.4516
vn 0.7695 0.4516 -0.4516
vn -0.7695 0.4516 -0.4516
vn -0.7695 0.4516 0.4516
vn 0.7695 0.4516 0.4516
vn -0.6499 -0.0002 -0.7600
vn -0.6499 -0.7600 -0.0002
vn 0.6499 -0.7600 -0.0002
vn 0.6499 -0.0002 -0.7600
vn 0.6499 -0.0002 0.7600
vn 0.6499 -0.7600 0.0002
vn -0.6499 -0.0002 0.7600
vn -0.6499 -0.7600 0.0002
vn 0.6499 0.7600 -0.0002
vn 0.6499 0.0002 -0.7600
vn -0.6499 0.7600 -0.0002
vn -0.6499 0.0002 -0.7600
vn -0.6499 0.7600 0.0002
vn -0.6499 0.0002 0.7600
vn 0.6499 0.7600 0.0002
vn 0.6499 0.0002 0.7600
vn -0.1996 -0.9799 -0.0000
vn 0.9836 -0.0000 0.1801
vn -0.1996 0.9799 -0.0000
vn 0.9836 -0.0000 -0.1801
vn 0.1996 0.9799 -0.0000
vn -0.9836 -0.0000 -0.1801
vn -0.9836 -0.0000 0.1801
vn 0.1996 -0.0000 0.9799
vn -0.0000 -0.7071 0.7071
vn -0.0000 0.7071 0.7071
vn -1.0000 0.0001 -0.0000
vn -1.0000 0.0001 0.0001
vn -1.0000 -0.0000 0.0001
vn -1.0000 -0.0001 0.0001
vn -1.0000 -0.0001 -0.0000
vn -1.0000 -0.0001 -0.0001
vn -1.0000 -0.0000 -0.0001
vn -1.0000 0.0001 -0.0001
vn 1.0000 0.0001 -0.0001
vn 1.0000 0.0001 -0.0000
vn 1.0000 0.0001 0.0001
vn 1.0000 -0.0000 0.0001
vn 1.0000 -0.0001 0.0001
vn 1.0000 -0.0001 -0.0000
vn 1.0000 -0.0001 -0.0001
vn 1.0000 -0.0000 -0.0001
vt 0.625000 0.478880
vt 0.625000 0.500000
vt 0.618944 0.500000
vt 0.618944 0.478880
vt 0.381056 0.500000
vt 0.381056 0.478880
vt 0.381056 0.250000
vt 0.618944 0.250000
vt 0.618944 0.271120
vt 0.381056 0.271120
vt 0.125000 0.743944
vt 0.125000 0.506056
vt 0.146120 0.506056
vt 0.146120 0.743944
vt 0.375000 0.506056
vt 0.375000 0.743944
vt 0.353880 0.743944
vt 0.353880 0.506056
vt 0.381056 0.771120
vt 0.381056 0.750000
vt 0.618944 0.750000
vt 0.618944 0.771120
vt 0.618944 0.978880
vt 0.618944 1.000000
vt 0.381056 1.000000
vt 0.381056 0.978880
vt 0.353880 0.500000
vt 0.375000 0.500000
vt 0.125000 0.500000
vt 0.146120 0.500000
vt 0.646120 0.743944
vt 0.625000 0.743944
vt 0.625000 0.506056
vt 0.646120 0.506056
vt 0.853880 0.506056
vt 0.875000 0.506056
vt 0.875000 0.743944
vt 0.853880 0.743944
vt 0.000000 0.000000
vt 0.625000 0.250000
vt 0.625000 0.271120
vt 0.375000 0.750000
vt 0.353880 0.750000
vt 0.125000 0.750000
vt 0.146120 0.743944
vt 0.146120 0.750000
vt 0.625000 1.000000
vt 0.625000 0.978880
vt 0.625000 0.750000
vt 0.625000 0.771120
s 0
usemtl M_Gris_Metal
f 160/1/1 8/2/1 7/3/1 157/4/1
f 157/4/2 7/3/2 10/5/2 154/6/2
f 138/7/2 6/8/2 135/9/2 147/10/2
f 1/11/3 128/12/3 141/13/3 121/14/3
f 9/15/3 12/16/3 289/17/3 144/18/3
f 292/19/4 11/20/4 14/21/4 293/22/4
f 290/23/4 3/24/4 2/25/4 291/26/4
f 154/27/5 10/28/5 9/15/5 144/18/5
f 128/12/5 138/29/5 147/30/5 141/13/5
f 294/31/6 13/32/6 8/33/6 160/34/6
f 295/35/6 5/36/6 4/37/6 296/38/6
f 235/39/4 237/39/4 244/39/4 242/39/4
f 67/39/25 82/39/25 280/39/25 279/39/25
f 57/39/26 58/39/26 283/39/26 281/39/26
f 243/39/27 245/39/27 44/39/27 43/39/27
f 47/39/28 48/39/28 236/39/28 234/39/28
f 239/39/2 241/39/2 248/39/2 246/39/2
f 81/39/29 68/39/29 277/39/29 278/39/29
f 82/39/30 81/39/30 278/39/30 280/39/30
f 46/39/31 45/39/31 247/39/31 249/39/31
f 49/39/32 50/39/32 240/39/32 238/39/32
f 256/39/6 254/39/6 252/39/6 250/39/6
f 251/39/33 253/39/33 40/39/33 39/39/33
f 70/39/34 80/39/34 276/39/34 275/39/34
f 77/39/35 78/39/35 271/39/35 269/39/35
f 42/39/36 41/39/36 255/39/36 257/39/36
f 227/39/3 229/39/3 231/39/3 233/39/3
f 79/39/37 69/39/37 273/39/37 274/39/37
f 73/39/38 74/39/38 270/39/38 272/39/38
f 232/39/39 230/39/39 53/39/39 54/39/39
f 228/39/40 226/39/40 51/39/40 52/39/40
f 63/39/7 62/39/7 227/39/7 226/39/7
f 61/39/7 64/39/7 228/39/7 229/39/7
f 65/39/8 56/39/8 231/39/8 230/39/8
f 55/39/8 66/39/8 232/39/8 233/39/8
f 75/39/7 72/39/7 235/39/7 234/39/7
f 71/39/7 76/39/7 236/39/7 237/39/7
f 77/39/8 74/39/8 239/39/8 238/39/8
f 73/39/8 78/39/8 240/39/8 241/39/8
f 69/39/8 79/39/8 243/39/8 242/39/8
f 80/39/8 70/39/8 244/39/8 245/39/8
f 68/39/7 81/39/7 247/39/7 246/39/7
f 82/39/7 67/39/7 248/39/7 249/39/7
f 57/39/7 83/39/7 251/39/7 250/39/7
f 84/39/7 58/39/7 252/39/7 253/39/7
f 59/39/8 85/39/8 255/39/8 254/39/8
f 86/39/8 60/39/8 256/39/8 257/39/8
f 70/39/8 69/39/8 242/39/8 244/39/8
f 72/39/7 71/39/7 237/39/7 235/39/7
f 76/39/7 75/39/7 234/39/7 236/39/7
f 79/39/8 80/39/8 245/39/8 243/39/8
f 67/39/7 68/39/7 246/39/7 248/39/7
f 74/39/8 73/39/8 241/39/8 239/39/8
f 78/39/8 77/39/8 238/39/8 240/39/8
f 81/39/7 82/39/7 249/39/7 247/39/7
f 58/39/7 57/39/7 250/39/7 252/39/7
f 60/39/8 59/39/8 254/39/8 256/39/8
f 85/39/8 86/39/8 257/39/8 255/39/8
f 83/39/7 84/39/7 253/39/7 251/39/7
f 56/39/8 55/39/8 233/39/8 231/39/8
f 62/39/7 61/39/7 229/39/7 227/39/7
f 64/39/7 63/39/7 226/39/7 228/39/7
f 66/39/8 65/39/8 230/39/8 232/39/8
f 273/39/8 275/39/8 276/39/8 274/39/8
f 265/39/7 267/39/7 268/39/7 266/39/7
f 277/39/7 279/39/7 280/39/7 278/39/7
f 269/39/8 271/39/8 272/39/8 270/39/8
f 285/39/8 287/39/8 288/39/8 286/39/8
f 281/39/7 283/39/7 284/39/7 282/39/7
f 261/39/8 263/39/8 264/39/8 262/39/8
f 225/39/7 259/39/7 260/39/7 258/39/7
f 59/39/73 60/39/73 287/39/73 285/39/73
f 83/39/74 57/39/74 281/39/74 282/39/74
f 86/39/75 85/39/75 286/39/75 288/39/75
f 58/39/76 84/39/76 284/39/76 283/39/76
f 62/39/74 63/39/74 225/39/74 258/39/74
f 84/39/77 83/39/77 282/39/77 284/39/77
f 85/39/78 59/39/78 285/39/78 286/39/78
f 64/39/76 61/39/76 260/39/76 259/39/76
f 55/39/75 56/39/75 262/39/75 264/39/75
f 60/39/79 86/39/79 288/39/79 287/39/79
f 56/39/78 65/39/78 261/39/78 262/39/78
f 61/39/77 62/39/77 258/39/77 260/39/77
f 69/39/35 70/39/35 275/39/35 273/39/35
f 66/39/79 55/39/79 264/39/79 263/39/79
f 63/39/26 64/39/26 259/39/26 225/39/26
f 71/39/30 72/39/30 266/39/30 268/39/30
f 72/39/29 75/39/29 265/39/29 266/39/29
f 65/39/73 66/39/73 263/39/73 261/39/73
f 75/39/80 76/39/80 267/39/80 265/39/80
f 76/39/25 71/39/25 268/39/25 267/39/25
f 80/39/38 79/39/38 274/39/38 276/39/38
f 74/39/37 77/39/37 269/39/37 270/39/37
f 68/39/80 67/39/80 279/39/80 277/39/80
f 78/39/34 73/39/34 272/39/34 271/39/34
f 6/8/1 5/40/1 295/41/1 135/9/1
f 289/17/81 12/16/81 11/42/81 292/43/81
f 2/44/81 1/11/81 121/45/81 291/46/81
f 4/47/82 3/24/82 290/23/82 296/48/82
f 293/22/82 14/21/82 13/49/82 294/50/82
f 3/24/8 6/8/8 138/7/8 2/44/8
f 1/11/8 2/44/8 138/29/8 128/12/8
f 3/24/8 4/37/8 5/40/8 6/8/8
f 11/42/7 10/28/7 7/3/7 14/21/7
f 7/3/7 8/33/7 13/49/7 14/21/7
f 9/15/7 10/28/7 11/42/7 12/16/7
usemtl M_Noir_Bleuté
f 24/39/6 25/39/6 21/39/6 17/39/6
f 33/39/4 17/39/4 21/39/4 31/39/4
f 132/39/4 184/39/4 257/39/4 256/39/4
f 23/39/3 26/39/3 18/39/3 22/39/3
f 127/39/2 180/39/2 253/39/2 252/39/2
f 34/39/2 19/39/2 15/39/2 32/39/2
f 32/39/7 15/39/7 30/39/7 92/39/7 91/39/7
f 31/39/8 21/39/8 25/39/8 88/39/8 87/39/8
f 134/39/7 187/39/7 209/39/7 96/39/7 26/39/7
f 192/39/4 119/39/4 233/39/4 232/39/4
f 202/39/9 178/39/9 39/39/9 108/39/9
f 162/39/6 145/39/6 242/39/6 243/39/6
f 90/39/7 89/39/7 24/39/7 17/39/7 33/39/7
f 188/39/2 133/39/2 229/39/2 228/39/2
f 194/39/10 182/39/10 41/39/10 104/39/10
f 170/39/6 142/39/6 246/39/6 247/39/6
f 218/39/11 192/39/11 54/39/11 116/39/11
f 139/39/7 32/39/7 91/39/7 204/39/7 171/39/7
f 38/39/8 146/39/8 161/39/8 213/39/8 98/39/8
f 167/39/7 197/39/7 90/39/7 33/39/7 151/39/7
f 26/39/7 96/39/7 95/39/7 36/39/7 18/39/7
f 183/39/8 131/39/8 27/39/8 93/39/8 208/39/8
f 201/39/7 92/39/7 30/39/7 125/39/7 177/39/7
f 184/39/10 207/39/10 109/39/10 42/39/10
f 168/39/3 150/39/3 237/39/3 236/39/3
f 123/39/2 190/39/2 230/39/2 231/39/2
f 179/39/7 126/39/7 24/39/7 89/39/7 200/39/7
f 22/39/8 38/39/8 98/39/8 97/39/8 23/39/8
f 15/39/6 19/39/6 27/39/6 30/39/6
f 20/39/3 16/39/3 28/39/3 29/39/3
f 180/39/9 199/39/9 105/39/9 40/39/9
f 176/39/3 155/39/3 241/39/3 240/39/3
f 178/39/4 124/39/4 250/39/4 251/39/4
f 182/39/2 129/39/2 254/39/2 255/39/2
f 29/39/8 100/39/8 99/39/8 37/39/8 20/39/8
f 172/39/12 203/39/12 107/39/12 46/39/12
f 140/39/3 172/39/3 249/39/3 248/39/3
f 174/39/13 219/39/13 115/39/13 49/39/13
f 186/39/14 223/39/14 117/39/14 51/39/14
f 149/39/3 164/39/3 245/39/3 244/39/3
f 210/39/14 188/39/14 52/39/14 112/39/14
f 214/39/15 162/39/15 43/39/15 114/39/15
f 164/39/15 195/39/15 103/39/15 44/39/15
f 175/39/8 205/39/8 94/39/8 34/39/8 156/39/8
f 18/39/4 36/39/4 38/39/4 22/39/4
f 206/39/13 176/39/13 50/39/13 110/39/13
f 198/39/16 168/39/16 48/39/16 106/39/16
f 20/39/2 37/39/2 35/39/2 16/39/2
f 16/39/7 35/39/7 102/39/7 101/39/7 28/39/7
f 193/39/8 196/39/8 87/39/8 88/39/8
f 159/39/6 174/39/6 238/39/6 239/39/6
f 190/39/11 215/39/11 113/39/11 53/39/11
f 94/39/8 93/39/8 27/39/8 19/39/8 34/39/8
f 222/39/12 170/39/12 45/39/12 118/39/12
f 166/39/16 211/39/16 111/39/16 47/39/16
f 28/39/7 101/39/7 224/39/7 185/39/7 136/39/7
f 137/39/4 186/39/4 226/39/4 227/39/4
f 23/39/8 97/39/8 216/39/8 189/39/8 122/39/8
f 148/39/8 31/39/8 87/39/8 196/39/8 163/39/8
f 35/39/7 143/39/7 169/39/7 221/39/7 102/39/7
f 95/39/7 212/39/7 165/39/7 152/39/7 36/39/7
f 153/39/6 166/39/6 234/39/6 235/39/6
f 99/39/8 220/39/8 173/39/8 158/39/8 37/39/8
f 193/39/8 88/39/8 25/39/8 130/39/8 181/39/8
f 194/39/17 104/39/17 103/39/17 195/39/17
f 105/39/18 199/39/18 198/39/18 106/39/18
f 107/39/19 203/39/19 202/39/19 108/39/19
f 206/39/20 110/39/20 109/39/20 207/39/20
f 111/39/21 211/39/21 210/39/21 112/39/21
f 214/39/22 114/39/22 113/39/22 215/39/22
f 115/39/23 219/39/23 218/39/23 116/39/23
f 222/39/24 118/39/24 117/39/24 223/39/24
f 209/39/7 212/39/7 95/39/7 96/39/7
f 205/39/8 208/39/8 93/39/8 94/39/8
f 201/39/7 204/39/7 91/39/7 92/39/7
f 197/39/7 200/39/7 89/39/7 90/39/7
f 213/39/8 216/39/8 97/39/8 98/39/8
f 217/39/8 220/39/8 99/39/8 100/39/8
f 221/39/7 224/39/7 101/39/7 102/39/7
f 186/39/41 137/39/41 136/39/41 185/39/41
f 187/39/42 134/39/42 133/39/42 188/39/42
f 190/39/43 123/39/43 122/39/43 189/39/43
f 191/39/44 120/39/44 119/39/44 192/39/44
f 166/39/45 153/39/45 152/39/45 165/39/45
f 167/39/46 151/39/46 150/39/46 168/39/46
f 174/39/47 159/39/47 158/39/47 173/39/47
f 175/39/48 156/39/48 155/39/48 176/39/48
f 145/39/47 162/39/47 161/39/47 146/39/47
f 148/39/48 163/39/48 164/39/48 149/39/48
f 142/39/45 170/39/45 169/39/45 143/39/45
f 139/39/46 171/39/46 172/39/46 140/39/46
f 124/39/41 178/39/41 177/39/41 125/39/41
f 126/39/42 179/39/42 180/39/42 127/39/42
f 129/39/43 182/39/43 181/39/43 130/39/43
f 131/39/44 183/39/44 184/39/44 132/39/44
f 194/39/49 195/39/49 196/39/49 193/39/49
f 198/39/50 199/39/50 200/39/50 197/39/50
f 202/39/51 203/39/51 204/39/51 201/39/51
f 206/39/52 207/39/52 208/39/52 205/39/52
f 210/39/53 211/39/53 212/39/53 209/39/53
f 214/39/54 215/39/54 216/39/54 213/39/54
f 218/39/55 219/39/55 220/39/55 217/39/55
f 222/39/56 223/39/56 224/39/56 221/39/56
f 163/39/57 196/39/57 195/39/57 164/39/57
f 182/39/58 194/39/58 193/39/58 181/39/58
f 179/39/59 200/39/59 199/39/59 180/39/59
f 197/39/60 167/39/60 168/39/60 198/39/60
f 171/39/61 204/39/61 203/39/61 172/39/61
f 178/39/62 202/39/62 201/39/62 177/39/62
f 205/39/63 175/39/63 176/39/63 206/39/63
f 207/39/64 184/39/64 183/39/64 208/39/64
f 209/39/65 187/39/65 188/39/65 210/39/65
f 165/39/66 212/39/66 211/39/66 166/39/66
f 189/39/67 216/39/67 215/39/67 190/39/67
f 213/39/68 161/39/68 162/39/68 214/39/68
f 217/39/69 191/39/69 192/39/69 218/39/69
f 173/39/70 220/39/70 219/39/70 174/39/70
f 223/39/71 186/39/71 185/39/71 224/39/71
f 221/39/72 169/39/72 170/39/72 222/39/72
f 120/39/8 191/39/8 217/39/8 100/39/8 29/39/8
f 134/39/3 26/39/3 23/39/3 122/39/3 123/39/3 133/39/3
f 130/39/6 25/39/6 24/39/6 126/39/6 127/39/6 129/39/6
f 145/39/4 146/39/4 38/39/4 36/39/4 152/39/4 153/39/4
f 156/39/2 34/39/2 32/39/2 139/39/2 140/39/2 155/39/2
f 151/39/4 33/39/4 31/39/4 148/39/4 149/39/4 150/39/4
f 137/39/3 119/39/3 120/39/3 29/39/3 28/39/3 136/39/3
f 142/39/2 143/39/2 35/39/2 37/39/2 158/39/2 159/39/2
f 132/39/6 124/39/6 125/39/6 30/39/6 27/39/6 131/39/6
usemtl M_Orange
f 113/39/83 121/14/83 141/13/83 116/39/83 54/39/83 53/39/83
f 116/39/84 141/13/84 147/30/84 115/39/84
f 110/39/85 50/39/85 49/39/85 115/39/85 147/10/85 135/9/85
f 109/39/86 110/39/86 135/9/86 295/35/86
f 104/39/87 41/39/87 42/39/87 109/39/87 295/35/87 296/48/87
f 104/39/88 296/48/88 290/23/88 103/39/88
f 103/39/89 290/23/89 291/26/89 114/39/89 43/39/89 44/39/89
f 113/39/90 114/39/90 291/46/90 121/14/90
f 112/39/91 289/17/91 292/43/91 111/39/91
f 112/39/92 52/39/92 51/39/92 117/39/92 144/18/92 289/17/92
f 118/39/93 154/27/93 144/18/93 117/39/93
f 107/39/94 157/4/94 154/6/94 118/39/94 45/39/94 46/39/94
f 108/39/95 160/1/95 157/4/95 107/39/95
f 105/39/96 294/31/96 160/34/96 108/39/96 39/39/96 40/39/96
f 106/39/97 293/22/97 294/50/97 105/39/97
f 106/39/98 48/39/98 47/39/98 111/39/98 292/19/98 293/22/98
