# Blender 4.2.3 LTS
# www.blender.org
mtllib SM_Barrier_03.mtl
o SM_Barrier_03
v -0.173988 -0.000000 -0.127620
v -0.173988 -0.000000 -0.107143
v -0.173988 -0.000000 0.107143
v -0.173988 -0.000000 0.127620
v 0.173988 -0.000000 0.127620
v 0.173988 -0.000000 0.107143
v 0.173988 -0.000000 -0.107143
v 0.173988 -0.000000 -0.127620
v 0.141831 0.163803 -0.107143
v 0.141831 0.163803 -0.127620
v 0.141831 0.163803 0.127620
v 0.141831 0.163803 0.107143
v -0.141831 0.163803 0.107143
v -0.141831 0.163803 0.127620
v -0.141831 0.163803 -0.127620
v -0.141831 0.163803 -0.107143
v 0.121580 0.143551 -0.107143
v 0.121580 0.143551 -0.127620
v 0.121580 0.143551 0.127620
v 0.121580 0.143551 0.107143
v -0.121580 0.143551 0.107143
v -0.121580 0.143551 0.127620
v -0.121580 0.143551 -0.127620
v -0.121580 0.143551 -0.107143
v -0.153736 0.020251 0.107143
v -0.153736 0.020251 0.127620
v -0.153736 0.020251 -0.127620
v -0.153736 0.020251 -0.107143
v 0.153736 0.020251 -0.107143
v 0.153736 0.020251 -0.127620
v 0.153736 0.020251 0.127620
v 0.153736 0.020251 0.107143
v -0.157784 -0.000000 0.475456
v -0.173988 -0.000000 0.459251
v -0.173988 -0.000000 -0.459251
v -0.157784 -0.000000 -0.475456
v 0.173988 -0.000000 0.459251
v 0.157784 -0.000000 0.475456
v 0.157784 -0.000000 -0.475456
v 0.173988 -0.000000 -0.459251
v -0.156007 0.163803 0.437638
v -0.173988 0.145822 0.459251
v -0.157784 0.147598 0.475456
v -0.139072 0.163803 0.459251
v -0.173988 0.145822 -0.459251
v -0.156007 0.163803 -0.437638
v -0.139072 0.163803 -0.459251
v -0.157784 0.147598 -0.475456
v 0.173988 0.145822 -0.459251
v 0.157784 0.147598 -0.475456
v 0.139072 0.163803 -0.459251
v 0.156007 0.163803 -0.437638
v 0.173988 0.145822 0.459251
v 0.156007 0.163803 0.437638
v 0.139072 0.163803 0.459251
v 0.157784 0.147598 0.475456
v -0.123288 0.163803 0.443299
v -0.141831 0.163803 0.423585
v -0.094822 0.515264 0.263317
v -0.075935 0.518468 0.281495
v -0.075163 0.533210 0.258564
v -0.075163 0.533210 -0.258564
v -0.075935 0.518468 -0.281495
v -0.094822 0.515264 -0.263317
v 0.075163 0.533210 -0.258564
v 0.094822 0.515264 -0.263317
v 0.075935 0.518468 -0.281495
v 0.075163 0.533210 0.258564
v 0.075935 0.518468 0.281495
v 0.094822 0.515264 0.263317
v -0.141831 0.163803 -0.423585
v -0.123288 0.163803 -0.443299
v 0.123288 0.163803 -0.443299
v 0.141831 0.163803 -0.423585
v 0.141831 0.163803 0.423585
v 0.123288 0.163803 0.443299
v 0.155936 0.163803 -0.127620
v 0.173988 0.145751 -0.127620
v 0.173988 0.145597 -0.107143
v 0.155782 0.163803 -0.107143
v 0.155782 0.163803 0.107143
v 0.173988 0.145597 0.107143
v 0.173988 0.145751 0.127620
v 0.155936 0.163803 0.127620
v -0.155936 0.163803 0.127620
v -0.173988 0.145751 0.127620
v -0.173988 0.145597 0.107143
v -0.155782 0.163803 0.107143
v -0.173988 0.145597 -0.107143
v -0.155782 0.163803 -0.107143
v -0.155936 0.163803 -0.127620
v -0.173988 0.145751 -0.127620
v -0.075050 0.533210 0.107143
v -0.094856 0.515006 0.107143
v -0.075121 0.533210 0.127620
v -0.094832 0.515188 0.127620
v -0.094832 0.515188 -0.127620
v -0.075121 0.533210 -0.127620
v -0.075050 0.533210 -0.107143
v -0.094856 0.515006 -0.107143
v 0.094856 0.515006 -0.107143
v 0.075050 0.533210 -0.107143
v 0.075121 0.533210 -0.127620
v 0.094832 0.515188 -0.127620
v 0.075121 0.533210 0.127620
v 0.094832 0.515188 0.127620
v 0.094856 0.515006 0.107143
v 0.075050 0.533210 0.107143
v -0.061883 0.512959 -0.127620
v -0.081354 0.494388 -0.127620
v -0.081358 0.494357 -0.107143
v -0.061865 0.512959 -0.107143
v 0.061865 0.512959 -0.107143
v 0.081358 0.494357 -0.107143
v 0.081354 0.494388 -0.127620
v 0.061883 0.512959 -0.127620
v -0.081358 0.494357 0.107143
v -0.061865 0.512959 0.107143
v -0.081354 0.494388 0.127620
v -0.061883 0.512959 0.127620
v 0.081354 0.494388 0.127620
v 0.061883 0.512959 0.127620
v 0.061865 0.512959 0.107143
v 0.081358 0.494357 0.107143
v -0.153736 0.125404 0.127620
v -0.135589 0.143551 0.127620
v -0.135559 0.143551 0.107143
v -0.153736 0.125374 0.107143
v -0.135559 0.143551 -0.107143
v -0.153736 0.125374 -0.107143
v -0.153736 0.125404 -0.127620
v -0.135589 0.143551 -0.127620
v 0.153736 0.125404 -0.127620
v 0.135589 0.143551 -0.127620
v 0.135559 0.143551 -0.107143
v 0.153736 0.125374 -0.107143
v 0.153736 0.125374 0.107143
v 0.135559 0.143551 0.107143
v 0.135589 0.143551 0.127620
v 0.153736 0.125404 0.127620
v 0.136442 0.204096 0.168271
v 0.100218 0.474918 0.168271
v 0.100213 0.474956 0.237086
v 0.136442 0.204096 0.360600
v -0.136442 0.204096 -0.168271
v -0.100218 0.474918 -0.168271
v -0.100213 0.474956 -0.237086
v -0.136442 0.204096 -0.360600
v 0.136442 0.204096 -0.360600
v 0.100213 0.474956 -0.237086
v 0.100218 0.474918 -0.168271
v 0.136442 0.204096 -0.168271
v -0.136442 0.204096 0.360600
v -0.100213 0.474956 0.237086
v -0.100218 0.474918 0.168271
v -0.136442 0.204096 0.168271
v -0.136442 0.204096 0.029715
v -0.100246 0.474712 0.029715
v -0.100246 0.474712 -0.029715
v -0.136442 0.204096 -0.029715
v 0.136442 0.204096 -0.029715
v 0.100246 0.474712 -0.029715
v 0.100246 0.474712 0.029715
v 0.136442 0.204096 0.029715
v 0.119172 0.201786 0.168271
v 0.082948 0.472608 0.168271
v 0.119172 0.201786 0.360600
v 0.082943 0.472646 0.237086
v -0.119172 0.201786 -0.168271
v -0.082948 0.472608 -0.168271
v -0.119172 0.201786 -0.360600
v -0.082943 0.472646 -0.237086
v 0.082943 0.472646 -0.237086
v 0.119172 0.201786 -0.360600
v 0.119172 0.201786 -0.168271
v 0.082948 0.472608 -0.168271
v -0.082943 0.472646 0.237086
v -0.119172 0.201786 0.360600
v -0.119172 0.201786 0.168271
v -0.082948 0.472608 0.168271
v -0.082976 0.472403 0.029715
v -0.119172 0.201786 0.029715
v -0.119172 0.201786 -0.029715
v -0.082976 0.472403 -0.029715
v 0.082976 0.472403 -0.029715
v 0.119172 0.201786 -0.029715
v 0.119172 0.201786 0.029715
v 0.082976 0.472403 0.029715
v 0.116316 0.223133 0.189809
v 0.085802 0.451273 0.189809
v 0.085799 0.451292 0.223189
v 0.116316 0.223133 0.327231
v -0.116316 0.223133 -0.189809
v -0.085802 0.451273 -0.189809
v -0.085799 0.451292 -0.223189
v -0.116316 0.223133 -0.327231
v 0.116316 0.223133 -0.327231
v 0.085799 0.451292 -0.223189
v 0.085802 0.451273 -0.189809
v 0.116316 0.223133 -0.189809
v -0.116316 0.223133 0.327231
v -0.085799 0.451292 0.223189
v -0.085802 0.451273 0.189809
v -0.116316 0.223133 0.189809
v -0.116316 0.223133 0.008177
v -0.085831 0.451056 0.008177
v -0.085831 0.451056 -0.008177
v -0.116316 0.223133 -0.008177
v 0.116316 0.223133 -0.008177
v 0.085831 0.451056 -0.008177
v 0.085831 0.451056 0.008177
v 0.116316 0.223133 0.008177
v 0.110597 0.222368 0.189809
v 0.080082 0.450508 0.189809
v 0.110597 0.222368 0.327231
v 0.080080 0.450527 0.223189
v -0.110597 0.222368 -0.189809
v -0.080082 0.450508 -0.189809
v -0.110597 0.222368 -0.327231
v -0.080080 0.450527 -0.223189
v 0.080080 0.450527 -0.223189
v 0.110597 0.222368 -0.327231
v 0.110597 0.222368 -0.189809
v 0.080082 0.450508 -0.189809
v -0.080080 0.450527 0.223189
v -0.110597 0.222368 0.327231
v -0.110597 0.222368 0.189809
v -0.080082 0.450508 0.189809
v -0.080112 0.450291 0.008177
v -0.110597 0.222368 0.008177
v -0.110597 0.222368 -0.008177
v -0.080112 0.450291 -0.008177
v 0.080112 0.450291 -0.008177
v 0.110597 0.222368 -0.008177
v 0.110597 0.222368 0.008177
v 0.080112 0.450291 0.008177
vn 1.0000 -0.0000 -0.0000
vn -1.0000 -0.0000 -0.0000
vn -0.0000 1.0000 -0.0000
vn -0.0000 -0.0000 -1.0000
vn -0.0000 -1.0000 -0.0000
vn -0.1326 0.9912 -0.0000
vn -0.0000 -0.0000 1.0000
vn -0.0000 0.4151 -0.9098
vn -0.0000 0.4151 0.9098
vn -0.9935 0.1139 -0.0000
vn 0.9935 0.1139 -0.0000
vn 0.1326 -0.9912 -0.0000
vn -0.4309 0.8366 0.3382
vn -0.4309 0.8366 -0.3382
vn 0.4309 0.8366 -0.3382
vn 0.4309 0.8366 0.3382
vn -0.5449 0.7135 0.4404
vn -0.5449 0.7135 -0.4404
vn 0.5449 0.7135 -0.4404
vn 0.5449 0.7135 0.4404
vn -0.7071 -0.0000 -0.7071
vn 0.7071 -0.0000 -0.7071
vn 0.7071 -0.0000 0.7071
vn -0.7071 -0.0000 0.7071
vn -0.0000 0.7071 0.7071
vn -0.0000 0.7071 -0.7071
vn -0.6741 0.3792 0.6339
vn -0.0000 0.8411 -0.5408
vn -0.0000 0.8411 0.5408
vn -0.6741 0.3792 -0.6339
vn 0.6741 0.3792 -0.6339
vn 0.6741 0.3792 0.6339
vn -0.7071 0.7071 -0.0000
vn -0.7072 0.7071 0.0002
vn -0.7072 0.7071 -0.0002
vn 0.7072 0.7071 -0.0002
vn 0.7071 0.7071 -0.0000
vn 0.7072 0.7071 0.0002
vn -0.6745 0.7383 -0.0003
vn 0.6745 0.7383 -0.0003
vn -0.6767 0.7363 -0.0000
vn 0.6767 0.7363 -0.0000
vn 0.6745 0.7383 0.0003
vn -0.6745 0.7383 0.0003
vn -0.6903 0.7235 0.0008
vn 0.6903 0.7235 0.0008
vn -0.6903 0.7235 -0.0008
vn 0.6903 0.7235 -0.0008
vn -0.7071 0.7071 -0.0010
vn -0.7071 0.7071 0.0010
vn 0.7071 0.7071 0.0010
vn 0.7071 0.7071 -0.0010
vn 0.9912 0.1326 -0.0000
vn -0.9912 0.1326 -0.0000
vn -0.1326 -0.9912 -0.0000
vn -0.1326 -0.9912 0.0006
vn -0.0546 -0.4082 0.9112
vn 0.0546 -0.4082 0.9112
vn 0.1326 0.9912 -0.0000
vn -0.0546 -0.4082 -0.9112
vn 0.1326 -0.9912 0.0006
vn -0.1326 -0.9912 -0.0006
vn 0.0546 -0.4082 -0.9112
vn 0.1326 -0.9912 -0.0006
vt 0.375000 0.586968
vt 0.408676 0.586968
vt 0.408676 0.663032
vt 0.375000 0.663032
vt 0.375000 0.086968
vt 0.408676 0.086968
vt 0.408676 0.163032
vt 0.375000 0.163032
vt 0.412887 0.245269
vt 0.412887 0.169181
vt 0.412887 0.169285
vt 0.412887 0.244960
vt 0.375000 0.503771
vt 0.408728 0.503771
vt 0.408712 0.580950
vt 0.375000 0.580950
vt 0.412887 0.580819
vt 0.412887 0.504731
vt 0.412887 0.505040
vt 0.412887 0.580715
vt 0.375000 0.003771
vt 0.408728 0.003771
vt 0.408712 0.080951
vt 0.375000 0.080951
vt 0.412887 0.586968
vt 0.412887 0.586968
vt 0.125000 0.503771
vt 0.136642 0.500000
vt 0.363358 0.500000
vt 0.375000 0.580951
vt 0.125000 0.580950
vt 0.125000 0.586968
vt 0.125000 0.663032
vt 0.436023 0.732305
vt 0.436024 0.681025
vt 0.436023 0.181025
vt 0.591529 0.188212
vt 0.648399 0.669284
vt 0.851601 0.669284
vt 0.851658 0.741111
vt 0.648342 0.741112
vt 0.648399 0.669284
vt 0.652361 0.669284
vt 0.847639 0.669284
vt 0.591529 0.688212
vt 0.412887 0.266343
vt 0.616535 0.273461
vt 0.616535 0.476539
vt 0.412887 0.483657
vt 0.412887 0.580715
vt 0.614652 0.580715
vt 0.614337 0.580715
vt 0.408712 0.580951
vt 0.407311 0.580951
vt 0.648342 0.508889
vt 0.851658 0.508889
vt 0.851601 0.580715
vt 0.648399 0.580715
vt 0.614547 0.086968
vt 0.412887 0.086968
vt 0.614319 0.086968
vt 0.375000 0.761642
vt 0.409139 0.761642
vt 0.409139 0.988358
vt 0.375000 0.988358
vt 0.375000 0.261642
vt 0.409139 0.261642
vt 0.409139 0.488358
vt 0.375000 0.488358
vt 0.412887 0.745269
vt 0.412887 0.669181
vt 0.412887 0.669284
vt 0.412887 0.744960
vt 0.412887 0.080819
vt 0.412887 0.004731
vt 0.412887 0.005040
vt 0.412887 0.080715
vt 0.375000 0.169049
vt 0.408712 0.169049
vt 0.408728 0.246229
vt 0.375000 0.246229
vt 0.412887 0.766343
vt 0.616535 0.773461
vt 0.616535 0.976539
vt 0.412887 0.983657
vt 0.412887 0.485926
vt 0.412887 0.264074
vt 0.412887 0.985926
vt 0.412887 0.764074
vt 0.591411 0.648602
vt 0.436024 0.648602
vt 0.851505 0.586968
vt 0.648495 0.586968
vt 0.652390 0.586968
vt 0.847610 0.586968
vt 0.614652 0.169285
vt 0.412887 0.169285
vt 0.614337 0.169285
vt 0.412887 0.163032
vt 0.412887 0.163032
vt 0.648399 0.580715
vt 0.847639 0.580715
vt 0.652361 0.580715
vt 0.412887 0.663032
vt 0.407302 0.086968
vt 0.614547 0.163032
vt 0.614319 0.163032
vt 0.648495 0.663032
vt 0.851505 0.663032
vt 0.847610 0.663032
vt 0.652390 0.663032
vt 0.591411 0.148602
vt 0.436023 0.148602
vt 0.408712 0.169049
vt 0.407311 0.169049
vt 0.407302 0.163032
vt 0.412887 0.169182
vt 0.375000 0.669049
vt 0.125000 0.669049
vt 0.614547 0.663032
vt 0.614319 0.663032
vt 0.408712 0.669049
vt 0.408728 0.746229
vt 0.375000 0.746229
vt 0.614319 0.586968
vt 0.614337 0.669284
vt 0.614319 0.663032
vt 0.614319 0.086968
vt 0.412887 0.080715
vt 0.614337 0.080715
vt 0.412887 0.080818
vt 0.412887 0.086968
vt 0.847639 0.669284
vt 0.652361 0.669284
vt 0.847610 0.586968
vt 0.847639 0.580715
vt 0.412887 0.580818
vt 0.412887 0.586968
vt 0.412887 0.669182
vt 0.407302 0.163032
vt 0.407311 0.080951
vt 0.407311 0.669049
vt 0.407302 0.663032
vt 0.407302 0.586968
vt 0.408712 0.669049
vt 0.408712 0.080951
vt 0.407311 0.080951
vt 0.614652 0.080715
vt 0.614547 0.586968
vt 0.614319 0.586968
vt 0.648495 0.586968
vt 0.851505 0.586968
vt 0.591411 0.601398
vt 0.412887 0.080818
vt 0.614652 0.669284
vt 0.412887 0.008801
vt 0.409139 0.000000
vt 0.412887 0.003771
vt 0.614695 0.009112
vt 0.617691 0.000000
vt 0.625000 0.008889
vt 0.625000 0.241111
vt 0.617691 0.250000
vt 0.614695 0.240888
vt 0.625000 0.476658
vt 0.618891 0.500000
vt 0.625000 0.773342
vt 0.618891 0.750000
vt 0.412887 0.000000
vt 0.412887 0.000000
vt 0.375000 0.000000
vt 0.414049 0.000000
vt 0.412887 0.005040
vt 0.625000 0.273342
vt 0.625000 0.976658
vt 0.412887 0.244960
vt 0.614695 0.509112
vt 0.412887 0.505040
vt 0.412887 0.744960
vt 0.614695 0.740888
vt 0.625000 0.086968
vt 0.625000 0.080715
vt 0.614652 0.080715
vt 0.614652 0.669284
vt 0.625000 0.163032
vt 0.614547 0.163032
vt 0.614652 0.580715
vt 0.614652 0.169285
vt 0.625000 0.169285
vt 0.363358 0.750000
vt 0.136642 0.750000
vt 0.125000 0.746229
vt 0.591551 0.721875
vt 0.591551 0.221875
vt 0.436023 0.232305
vt 0.591551 0.528125
vt 0.436024 0.517695
vt 0.591529 0.561787
vt 0.436024 0.568975
vt 0.591551 0.028125
vt 0.436024 0.017695
vt 0.591529 0.061788
vt 0.436023 0.068975
vt 0.591411 0.101398
vt 0.436023 0.101398
vt 0.436024 0.601398
vt 0.579278 0.052779
vt 0.448281 0.062283
vt 0.579153 0.118505
vt 0.579153 0.131495
vt 0.579278 0.552779
vt 0.448281 0.562283
vt 0.448281 0.631495
vt 0.448281 0.618505
vt 0.579289 0.037326
vt 0.579289 0.212674
vt 0.448281 0.224963
vt 0.579278 0.697221
vt 0.448281 0.687717
vt 0.579289 0.712674
vt 0.448281 0.724963
vt 0.579278 0.197221
vt 0.448281 0.187717
vt 0.579289 0.537326
vt 0.448281 0.525037
vt 0.448281 0.025037
vt 0.448281 0.118505
vt 0.448281 0.131495
vt 0.579153 0.618505
vt 0.579153 0.631495
s 0
usemtl Noir_Light
f 7/1/1 79/2/1 82/3/1 6/4/1
f 3/5/2 87/6/2 89/7/2 2/8/2
f 46/9/3 91/10/3 15/11/3 71/12/3
f 40/13/1 49/14/1 78/15/1 8/16/1
f 77/17/3 52/18/3 74/19/3 10/20/3
f 34/21/2 42/22/2 86/23/2 4/24/2
f 9/25/4 80/26/4 135/25/4 17/25/4
f 35/27/5 36/28/5 39/29/5 40/13/5 8/30/5 1/31/5
f 2/32/5 7/1/5 6/4/5 3/33/5
f 144/34/6 141/35/6 165/35/6 167/34/6
f 145/36/4 146/37/4 170/37/4 169/36/4
f 105/38/3 95/39/3 61/40/3 68/41/3
f 95/39/4 105/42/4 122/43/4 120/44/4
f 141/35/7 142/45/7 166/45/7 165/35/7
f 72/46/8 63/47/8 67/48/8 73/49/8
f 10/50/7 104/51/7 115/52/7 18/50/7
f 8/16/7 78/53/7 133/54/7 30/16/7
f 65/55/3 62/56/3 98/57/3 103/58/3
f 94/59/7 13/60/7 21/60/7 117/61/7
f 38/62/7 56/63/7 43/64/7 33/65/7
f 36/66/4 48/67/4 50/68/4 39/69/4
f 54/70/3 84/71/3 11/72/3 75/73/3
f 85/74/3 41/75/3 58/76/3 14/77/3
f 13/60/7 88/60/7 127/60/7 21/60/7
f 1/78/2 92/79/2 45/80/2 35/81/2
f 76/82/9 69/83/9 60/84/9 57/85/9
f 51/86/3 47/87/3 72/46/3 73/49/3
f 44/88/3 55/89/3 76/82/3 57/85/3
f 163/90/4 164/91/4 187/91/4 188/90/4
f 99/92/4 102/93/4 113/94/4 112/95/4
f 97/96/7 15/97/7 23/97/7 110/98/7
f 90/99/4 16/100/4 24/100/4 129/100/4
f 103/101/7 98/57/7 109/102/7 116/103/7
f 81/104/3 80/25/3 9/25/3 12/104/3
f 87/6/7 3/5/7 25/5/7 128/105/7
f 16/100/4 100/106/4 111/107/4 24/100/4
f 108/108/7 93/109/7 118/110/7 123/111/7
f 159/112/7 160/113/7 183/113/7 184/112/7
f 92/114/7 1/78/7 27/78/7 131/115/7
f 2/8/4 89/7/4 130/116/4 28/8/4
f 3/33/7 6/4/7 32/4/7 25/33/7
f 15/11/7 91/10/7 132/117/7 23/11/7
f 5/118/4 4/119/4 26/119/4 31/118/4
f 12/104/7 107/120/7 124/121/7 20/104/7
f 5/118/1 83/122/1 53/123/1 37/124/1
f 83/145/4 5/118/4 31/118/4 140/142/4
f 77/17/7 10/20/7 18/20/7 134/137/7
f 4/24/4 86/146/4 125/147/4 26/24/4
f 14/129/4 96/148/4 119/130/4 22/129/4
f 101/149/4 9/25/4 17/25/4 114/150/4
f 79/2/4 7/1/4 29/1/4 136/144/4
f 11/72/4 84/71/4 139/139/4 19/72/4
f 6/4/7 82/3/7 137/143/7 32/4/7
f 102/151/3 99/152/3 93/109/3 108/108/3
f 90/99/3 88/60/3 13/60/3 16/100/3
f 162/153/12 163/90/12 188/90/12 185/153/12
f 81/104/7 12/104/7 20/104/7 138/104/7
f 7/1/4 2/32/4 28/32/4 29/1/4
f 85/74/4 14/77/4 22/77/4 126/154/4
f 106/155/4 11/72/4 19/72/4 121/126/4
f 1/31/7 8/30/7 30/30/7 27/31/7
f 41/156/13 42/22/13 43/157/13 44/158/13
f 45/80/14 46/9/14 47/87/14 48/67/14
f 49/14/15 50/68/15 51/86/15 52/18/15
f 53/123/16 54/70/16 55/89/16 56/63/16
f 59/159/17 60/160/17 61/161/17
f 62/162/18 63/163/18 64/164/18
f 65/165/19 66/166/19 67/48/19
f 68/167/20 69/83/20 70/168/20
f 48/67/21 36/66/21 35/81/21 45/80/21
f 49/14/22 40/13/22 39/69/22 50/68/22
f 56/63/23 38/62/23 37/124/23 53/123/23
f 58/76/3 41/75/3 44/169/3 57/170/3
f 33/171/24 43/157/24 42/22/24 34/21/24
f 54/70/3 75/73/3 76/82/3 55/89/3
f 74/19/3 52/18/3 51/86/3 73/49/3
f 46/9/3 71/12/3 72/46/3 47/87/3
f 55/89/25 44/88/25 43/64/25 56/63/25
f 47/87/26 51/86/26 50/68/26 48/67/26
f 57/172/27 60/160/27 59/159/27 58/173/27
f 62/174/28 65/165/28 67/48/28 63/47/28
f 68/167/29 61/175/29 60/84/29 69/83/29
f 63/47/30 72/46/30 71/176/30 64/164/30
f 66/177/31 74/178/31 73/49/31 67/48/31
f 69/83/32 76/82/32 75/179/32 70/180/32
f 118/181/7 93/181/7 94/59/7 117/61/7
f 130/116/4 89/7/4 90/99/4 129/100/4
f 108/108/7 123/111/7 124/121/7 107/120/7
f 132/117/7 91/10/7 92/114/7 131/115/7
f 122/43/4 105/42/4 106/155/4 121/126/4
f 88/60/33 90/99/33 89/7/33 87/6/33
f 91/10/34 46/9/34 45/80/34 92/79/34
f 41/75/35 85/74/35 86/23/35 42/22/35
f 84/71/36 54/70/36 53/123/36 83/122/36
f 80/25/37 81/104/37 82/3/37 79/2/37
f 52/18/38 77/17/38 78/15/38 49/14/38
f 61/161/39 95/182/39 96/183/39 59/159/39
f 70/180/40 106/184/40 105/38/40 68/41/40
f 93/181/41 99/185/41 100/186/41 94/59/41
f 107/120/42 101/149/42 102/151/42 108/108/42
f 104/187/43 66/177/43 65/55/43 103/58/43
f 64/164/44 97/188/44 98/189/44 62/162/44
f 101/149/4 114/150/4 113/94/4 102/93/4
f 111/107/4 100/106/4 99/185/4 112/185/4
f 125/147/4 86/146/4 85/74/4 126/154/4
f 135/25/4 80/26/4 79/2/4 136/144/4
f 95/182/4 120/182/4 119/130/4 96/148/4
f 87/6/7 128/105/7 127/60/7 88/60/7
f 97/96/7 110/98/7 109/189/7 98/189/7
f 115/52/7 104/51/7 103/101/7 116/103/7
f 137/143/7 82/3/7 81/104/7 138/104/7
f 77/17/7 134/137/7 133/54/7 78/53/7
f 83/145/4 140/142/4 139/139/4 84/71/4
f 4/119/5 5/118/5 37/124/5 38/190/5 33/191/5 34/192/5
f 11/72/53 106/184/53 142/45/53 141/35/53
f 106/184/53 70/180/53 143/193/53 142/45/53
f 70/180/53 75/179/53 144/34/53 143/193/53
f 75/179/53 11/72/53 141/35/53 144/34/53
f 15/97/54 97/188/54 146/37/54 145/36/54
f 97/188/54 64/164/54 147/194/54 146/37/54
f 64/164/54 71/176/54 148/195/54 147/194/54
f 71/176/54 15/97/54 145/36/54 148/195/54
f 74/178/53 66/177/53 150/196/53 149/197/53
f 66/177/53 104/187/53 151/198/53 150/196/53
f 104/187/53 10/50/53 152/199/53 151/198/53
f 10/50/53 74/178/53 149/197/53 152/199/53
f 58/173/54 59/159/54 154/200/54 153/201/54
f 59/159/54 96/183/54 155/202/54 154/200/54
f 96/183/54 14/129/54 156/203/54 155/202/54
f 14/129/54 58/173/54 153/201/54 156/203/54
f 13/60/54 94/59/54 158/204/54 157/205/54
f 94/59/54 100/186/54 159/112/54 158/204/54
f 100/186/54 16/100/54 160/113/54 159/112/54
f 16/100/54 13/60/54 157/205/54 160/113/54
f 9/25/53 101/149/53 162/153/53 161/206/53
f 101/149/53 107/120/53 163/90/53 162/153/53
f 107/120/53 12/104/53 164/91/53 163/90/53
f 12/104/53 9/25/53 161/206/53 164/91/53
f 149/197/58 150/196/58 173/196/58 174/197/58
f 148/195/59 145/36/59 169/36/59 171/195/59
f 153/201/60 154/200/60 177/200/60 178/201/60
f 142/45/61 143/193/61 168/193/61 166/45/61
f 152/199/6 149/197/6 174/197/6 175/199/6
f 157/205/4 158/204/4 181/204/4 182/205/4
f 146/37/62 147/194/62 172/194/62 170/37/62
f 156/203/59 153/201/59 178/201/59 179/203/59
f 161/206/7 162/153/7 185/153/7 186/206/7
f 143/193/63 144/34/63 167/34/63 168/193/63
f 150/196/64 151/198/64 176/198/64 173/196/64
f 160/113/59 157/205/59 182/205/59 183/113/59
f 147/194/57 148/195/57 171/195/57 172/194/57
f 154/200/56 155/202/56 180/202/56 177/200/56
f 164/91/6 161/206/6 186/206/6 187/91/6
f 151/198/4 152/199/4 175/199/4 176/198/4
f 158/204/55 159/112/55 184/112/55 181/204/55
f 155/202/7 156/203/7 179/203/7 180/202/7
usemtl Noir_Profond
f 110/98/10 23/97/10 24/100/10 111/107/10
f 114/125/11 17/25/11 18/50/11 115/52/11
f 121/126/11 19/72/11 20/104/11 124/127/11
f 117/128/10 21/60/10 22/129/10 119/130/10
f 126/131/3 22/77/3 21/60/3 127/132/3
f 120/133/3 122/134/3 123/111/3 118/110/3
f 112/135/3 113/94/3 116/103/3 109/136/3
f 129/99/3 24/100/3 23/11/3 132/117/3
f 134/137/3 18/20/3 17/25/3 135/138/3
f 138/104/3 20/104/3 19/72/3 139/139/3
f 29/1/5 28/32/5 27/31/5 30/30/5
f 31/118/5 26/119/5 25/33/5 32/4/5
f 131/115/2 27/78/2 28/8/2 130/140/2
f 128/105/2 25/5/2 26/24/2 125/141/2
f 140/142/1 31/118/1 32/4/1 137/143/1
f 136/144/1 29/1/1 30/16/1 133/54/1
f 110/98/45 111/107/45 112/185/45 109/189/45
f 114/125/46 115/52/46 116/103/46 113/94/46
f 117/128/47 119/130/47 120/182/47 118/181/47
f 121/126/48 124/127/48 123/111/48 122/134/48
f 126/131/49 127/132/49 128/105/49 125/141/49
f 129/99/50 132/117/50 131/115/50 130/140/50
f 134/137/51 135/138/51 136/144/51 133/54/51
f 138/104/52 139/139/52 140/142/52 137/143/52
f 203/207/7 204/208/7 227/208/7 228/207/7
f 206/209/55 207/210/55 232/210/55 229/209/55
f 199/211/4 200/212/4 223/212/4 224/211/4
f 212/213/6 209/214/6 234/214/6 235/213/6
f 202/215/56 203/207/56 228/207/56 225/215/56
f 195/216/57 196/217/57 219/217/57 220/216/57
f 165/35/53 166/45/53 190/218/53 189/219/53
f 166/45/53 168/193/53 191/220/53 190/218/53
f 168/193/53 167/34/53 192/221/53 191/220/53
f 167/34/53 165/35/53 189/219/53 192/221/53
f 169/36/54 170/37/54 194/222/54 193/223/54
f 170/37/54 172/194/54 195/216/54 194/222/54
f 172/194/54 171/195/54 196/217/54 195/216/54
f 171/195/54 169/36/54 193/223/54 196/217/54
f 174/197/53 173/196/53 198/224/53 197/225/53
f 173/196/53 176/198/53 199/211/53 198/224/53
f 176/198/53 175/199/53 200/212/53 199/211/53
f 175/199/53 174/197/53 197/225/53 200/212/53
f 178/201/54 177/200/54 202/215/54 201/226/54
f 177/200/54 180/202/54 203/207/54 202/215/54
f 180/202/54 179/203/54 204/208/54 203/207/54
f 179/203/54 178/201/54 201/226/54 204/208/54
f 182/205/54 181/204/54 206/209/54 205/227/54
f 181/204/54 184/112/54 207/210/54 206/209/54
f 184/112/54 183/113/54 208/228/54 207/210/54
f 183/113/54 182/205/54 205/227/54 208/228/54
f 186/206/53 185/153/53 210/229/53 209/214/53
f 185/153/53 188/90/53 211/230/53 210/229/53
f 188/90/53 187/91/53 212/213/53 211/230/53
f 187/91/53 186/206/53 209/214/53 212/213/53
f 210/229/12 211/230/12 236/230/12 233/229/12
f 207/210/7 208/228/7 231/228/7 232/210/7
f 211/230/4 212/213/4 235/213/4 236/230/4
f 189/219/7 190/218/7 214/218/7 213/219/7
f 193/223/4 194/222/4 218/222/4 217/223/4
f 192/221/6 189/219/6 213/219/6 215/221/6
f 197/225/58 198/224/58 221/224/58 222/225/58
f 196/217/59 193/223/59 217/223/59 219/217/59
f 201/226/60 202/215/60 225/215/60 226/226/60
f 190/218/61 191/220/61 216/220/61 214/218/61
f 200/212/6 197/225/6 222/225/6 223/212/6
f 205/227/4 206/209/4 229/209/4 230/227/4
f 194/222/62 195/216/62 220/216/62 218/222/62
f 204/208/59 201/226/59 226/226/59 227/208/59
f 209/214/7 210/229/7 233/229/7 234/214/7
f 191/220/63 192/221/63 215/221/63 216/220/63
f 198/224/64 199/211/64 224/211/64 221/224/64
f 208/228/59 205/227/59 230/227/59 231/228/59
usemtl Bleu_Neon
f 213/219/53 214/218/53 216/220/53 215/221/53
f 217/223/54 218/222/54 220/216/54 219/217/54
f 222/225/53 221/224/53 224/211/53 223/212/53
f 226/226/54 225/215/54 228/207/54 227/208/54
f 230/227/54 229/209/54 232/210/54 231/228/54
f 234/214/53 233/229/53 236/230/53 235/213/53
