# Blender 4.2.3 LTS
# www.blender.org
mtllib SM_Bloc_Vent_Triangle.mtl
o SM_Bloc_Vent_Triangle
v -0.350000 0.000000 0.350000
v -0.350000 0.000000 -0.350000
v -0.017275 0.442306 0.194715
v -0.033236 0.460636 -0.194715
v -0.056550 0.487410 0.194715
v -0.072512 0.505740 0.194715
v -0.350000 0.000000 -0.256767
v -0.350000 0.000000 0.256767
v -0.350000 0.700000 0.256767
v -0.350000 0.700000 -0.256767
v 0.350000 0.000000 0.256767
v 0.350000 0.000000 -0.256767
v 0.337238 0.112766 0.237334
v 0.337238 0.112766 -0.237334
v -0.262890 0.700000 -0.256767
v -0.262890 0.700000 0.256767
v -0.103056 0.618395 0.237334
v -0.103056 0.618395 -0.237334
v 0.350000 0.098111 0.256767
v 0.350000 0.098111 -0.256767
v -0.115818 0.633051 0.256767
v -0.115818 0.633051 -0.256767
v 0.270435 0.135742 0.206867
v 0.270435 0.135742 -0.206867
v -0.083048 0.541679 -0.206867
v -0.083048 0.541679 0.206867
v -0.103056 0.564655 -0.237334
v 0.290442 0.112766 0.237334
v 0.290442 0.112766 -0.237334
v -0.103056 0.564655 0.237334
v 0.183759 0.135742 0.206867
v 0.183759 0.135742 -0.206867
v -0.169724 0.541679 -0.206867
v -0.169724 0.541679 0.206867
v -0.130448 0.496575 -0.206867
v -0.091172 0.451471 -0.206867
v -0.051896 0.406367 -0.206867
v -0.012620 0.361263 -0.206867
v 0.026655 0.316159 -0.206867
v 0.065931 0.271055 -0.206867
v 0.105207 0.225950 -0.206867
v 0.144483 0.180846 -0.206867
v -0.130448 0.496575 0.206867
v -0.091172 0.451471 0.206867
v -0.051896 0.406367 0.206867
v -0.012620 0.361263 0.206867
v 0.026655 0.316159 0.206867
v 0.065931 0.271055 0.206867
v 0.105207 0.225950 0.206867
v 0.144483 0.180846 0.206867
v -0.161743 0.532514 0.194715
v -0.138429 0.505740 0.194715
v -0.138429 0.505740 -0.194715
v -0.161743 0.532514 -0.194715
v -0.122467 0.487410 0.194715
v -0.099153 0.460636 0.194715
v -0.099153 0.460636 -0.194715
v -0.122467 0.487410 -0.194715
v -0.083192 0.442306 0.194715
v -0.059877 0.415532 0.194715
v -0.059877 0.415532 -0.194715
v -0.083192 0.442306 -0.194715
v -0.043916 0.397202 0.194715
v -0.020601 0.370428 0.194715
v -0.020601 0.370428 -0.194715
v -0.043916 0.397202 -0.194715
v -0.004640 0.352098 0.194715
v 0.018675 0.325324 0.194715
v 0.018675 0.325324 -0.194715
v -0.004640 0.352098 -0.194715
v 0.034636 0.306994 0.194715
v 0.057951 0.280220 0.194715
v 0.057951 0.280220 -0.194715
v 0.034636 0.306994 -0.194715
v 0.073912 0.261889 0.194715
v 0.097226 0.235115 0.194715
v 0.097226 0.235115 -0.194715
v 0.073912 0.261889 -0.194715
v 0.113188 0.216785 0.194715
v 0.136502 0.190011 0.194715
v 0.136502 0.190011 -0.194715
v 0.113188 0.216785 -0.194715
v 0.152464 0.171681 0.194715
v 0.175778 0.144907 0.194715
v 0.175778 0.144907 -0.194715
v 0.152464 0.171681 -0.194715
v -0.033236 0.460636 0.194715
v -0.056550 0.487410 -0.194715
v 0.006040 0.415532 0.194715
v -0.017275 0.442306 -0.194715
v 0.045316 0.370428 -0.194715
v 0.061277 0.352098 -0.194715
v 0.100553 0.306994 0.194715
v 0.139829 0.261889 0.194715
v 0.179105 0.216785 -0.194715
v 0.202419 0.190011 -0.194715
v -0.163547 0.654778 0.234335
v -0.163547 0.654778 -0.234335
v -0.215160 0.678273 -0.234335
v -0.215160 0.678273 0.234335
v -0.219786 0.661964 -0.213293
v -0.219786 0.661964 0.213293
v -0.172809 0.640579 -0.213293
v -0.172809 0.640579 0.213293
v -0.350000 0.666250 0.350000
v -0.350000 0.700000 0.316250
v -0.350000 0.700000 -0.316250
v -0.350000 0.666250 -0.350000
v 0.350000 0.000000 0.316250
v 0.316250 0.000000 0.350000
v 0.316250 0.000000 -0.350000
v 0.350000 0.000000 -0.316250
v 0.350000 0.098111 0.316250
v 0.316250 0.085476 0.350000
v 0.316250 0.085476 -0.350000
v 0.350000 0.098111 -0.316250
v -0.136463 0.605367 0.350000
v -0.115818 0.633051 0.316250
v -0.270210 0.666250 0.350000
v -0.262890 0.700000 0.316250
v -0.270210 0.666250 -0.350000
v -0.262890 0.700000 -0.316250
v -0.136463 0.605367 -0.350000
v -0.115818 0.633051 -0.316250
v 0.006040 0.415532 -0.194715
v 0.045316 0.370428 0.194715
v 0.022001 0.397202 -0.194715
v 0.061277 0.352098 0.194715
v 0.084592 0.325324 0.194715
v 0.100553 0.306994 -0.194715
v 0.163143 0.235115 0.194715
v 0.163143 0.235115 -0.194715
v 0.202419 0.190011 0.194715
v 0.218381 0.171681 0.194715
v 0.241695 0.144907 0.194715
v 0.218381 0.171681 -0.194715
v 0.084592 0.325324 -0.194715
v 0.022001 0.397202 0.194715
v -0.072512 0.505740 -0.194715
v -0.095826 0.532514 -0.194715
v -0.095826 0.532514 0.194715
v 0.123868 0.280220 0.194715
v 0.123868 0.280220 -0.194715
v 0.139829 0.261889 -0.194715
v 0.179105 0.216785 0.194715
v 0.241695 0.144907 -0.194715
vn -0.0000 -0.0000 -1.0000
vn -0.0000 -1.0000 -0.0000
vn 1.0000 -0.0000 -0.0000
vn -0.0000 1.0000 -0.0000
vn 0.7542 0.6567 -0.0000
vn 0.4143 0.9101 -0.0000
vn -1.0000 -0.0000 -0.0000
vn -0.0000 -0.0000 1.0000
vn 0.7541 0.6567 -0.0000
vn -0.8376 0.5463 -0.0000
vn 0.3241 0.7119 0.6230
vn 0.3241 0.7119 -0.6230
vn 0.9620 -0.2729 -0.0000
vn 0.7071 -0.0000 -0.7071
vn 0.7071 -0.0000 0.7071
vn 0.2930 0.6436 -0.7071
vn 0.2930 0.6436 0.7071
vn -0.0000 0.7071 -0.7071
vn -0.0000 0.7071 0.7071
vn 0.5333 0.4644 -0.7071
vn 0.5333 0.4644 0.7071
vt 0.375000 0.250000
vt 0.612947 0.250000
vt 0.612947 0.268142
vt 0.591202 0.305664
vt 0.405527 0.487408
vt 0.375000 0.487947
vt 0.125000 0.666667
vt 0.375000 0.666667
vt 0.375000 0.719834
vt 0.362947 0.750000
vt 0.125000 0.750000
vt 0.410039 0.666667
vt 0.410039 0.719834
vt 0.375000 0.719834
vt 0.125000 0.500000
vt 0.362947 0.500000
vt 0.375000 0.530166
vt 0.375000 0.583333
vt 0.125000 0.583333
vt 0.857646 0.666667
vt 0.875000 0.666667
vt 0.875000 0.719834
vt 0.857646 0.719834
vt 0.792140 0.530166
vt 0.792140 0.583333
vt 0.410039 0.583333
vt 0.410039 0.530166
vt 0.857646 0.530166
vt 0.857646 0.583333
vt 0.875000 0.530166
vt 0.875000 0.583333
vt 0.375000 0.166667
vt 0.625000 0.166667
vt 0.625000 0.219834
vt 0.792140 0.719834
vt 0.792140 0.666667
vt 0.375000 0.762053
vt 0.405527 0.762592
vt 0.591202 0.944337
vt 0.612947 0.981858
vt 0.612947 1.000000
vt 0.375000 1.000000
vt 0.375000 0.083333
vt 0.625000 0.083333
vt 0.420508 0.586487
vt 0.420508 0.663513
vt 0.781671 0.663513
vt 0.781672 0.586487
vt 0.743285 0.663513
vt 0.743286 0.586487
vt 0.726874 0.658569
vt 0.436919 0.658569
vt 0.469136 0.658569
vt 0.501354 0.658569
vt 0.533571 0.658569
vt 0.565788 0.658569
vt 0.598005 0.658569
vt 0.630222 0.658569
vt 0.662440 0.658569
vt 0.694657 0.658569
vt 0.436919 0.591431
vt 0.726874 0.591431
vt 0.743286 0.586487
vt 0.694657 0.591431
vt 0.662440 0.591431
vt 0.630222 0.591431
vt 0.598005 0.591431
vt 0.565788 0.591431
vt 0.533571 0.591431
vt 0.501354 0.591431
vt 0.469136 0.591431
vt 0.494807 0.656597
vt 0.475683 0.656597
vt 0.701203 0.656597
vt 0.701203 0.593403
vt 0.540117 0.656597
vt 0.540117 0.593403
vt 0.720328 0.593403
vt 0.720327 0.656597
vt 0.559242 0.593403
vt 0.559242 0.656597
vt 0.604552 0.593403
vt 0.623676 0.593403
vt 0.443466 0.593403
vt 0.462590 0.593403
vt 0.668986 0.656597
vt 0.688110 0.656597
vt 0.668986 0.593403
vt 0.688110 0.593403
vt 0.636769 0.656597
vt 0.655893 0.656597
vt 0.636769 0.593403
vt 0.655893 0.593403
vt 0.604551 0.656597
vt 0.623676 0.656597
vt 0.572334 0.656597
vt 0.591459 0.656597
vt 0.572335 0.593403
vt 0.591459 0.593403
vt 0.507900 0.656597
vt 0.527024 0.656597
vt 0.507900 0.593403
vt 0.527024 0.593403
vt 0.475683 0.593403
vt 0.494807 0.593403
vt 0.443466 0.656597
vt 0.462590 0.656597
vt 0.836387 0.658157
vt 0.836387 0.591843
vt 0.813399 0.658157
vt 0.813399 0.591843
vt 0.625000 0.267354
vt 0.601090 0.308950
vt 0.601090 0.941050
vt 0.625000 0.982646
vt 0.625000 0.250000
vt 0.625000 1.000000
vt 0.410039 0.500000
vt 0.410039 0.750000
vt 0.375000 0.000000
vt 0.612947 0.000000
vt 0.625000 0.030166
s 0
usemtl Noir_Light
f 2/1/1 108/2/1 121/3/1 123/4/1 115/5/1 111/6/1
f 8/7/2 11/8/2 109/9/2 110/10/2 1/11/2
f 11/8/3 19/12/3 113/13/3 109/14/3
f 2/15/2 111/16/2 112/17/2 12/18/2 7/19/2
f 16/20/4 9/21/4 106/22/4 120/23/4
f 124/24/5 22/25/5 20/26/5 116/27/5
f 122/28/6 15/29/6 22/25/6 124/24/6
f 122/28/4 107/30/4 10/31/4 15/29/4
f 7/32/7 10/33/7 107/34/7 108/2/7 2/1/7
f 15/29/4 10/31/4 9/21/4 16/20/4
f 16/20/6 120/23/6 118/35/6 21/36/6
f 21/36/5 118/35/5 113/13/5 19/12/5
f 12/18/3 20/26/3 19/12/3 11/8/3
f 112/17/3 116/27/3 20/26/3 12/18/3
f 7/19/2 12/18/2 11/8/2 8/7/2
f 110/37/8 114/38/8 117/39/8 119/40/8 105/41/8 1/42/8
f 8/43/7 9/44/7 10/33/7 7/32/7
f 14/45/5 13/46/5 19/12/5 20/26/5
f 17/47/5 18/48/5 22/25/5 21/36/5
f 18/48/5 14/45/5 20/26/5 22/25/5
f 13/46/5 17/47/5 21/36/5 19/12/5
f 13/46/4 14/45/4 29/45/4 28/46/4
f 18/48/3 17/47/3 30/49/3 27/50/3
f 29/45/8 14/45/8 18/48/8 27/50/8
f 26/51/1 23/52/1 31/52/1 50/53/1 49/54/1 48/55/1 47/56/1 46/57/1 45/58/1 44/59/1 43/60/1 34/51/1
f 28/46/1 30/49/1 17/47/1 13/46/1
f 24/61/5 23/52/5 28/46/5 29/45/5
f 25/62/5 24/61/5 29/45/5 27/63/5
f 23/52/5 26/51/5 30/49/5 28/46/5
f 26/51/5 25/62/5 27/63/5 30/49/5
f 23/52/4 24/61/4 32/61/4 31/52/4
f 25/62/2 26/51/2 34/51/2 33/62/2
f 24/61/8 25/62/8 33/62/8 35/64/8 36/65/8 37/66/8 38/67/8 39/68/8 40/69/8 41/70/8 42/71/8 32/61/8
f 52/74/2 53/75/2 139/75/2 6/74/2
f 72/76/2 73/77/2 143/77/2 142/76/2
f 80/73/2 81/104/2 96/104/2 133/73/2
f 60/90/2 61/92/2 125/92/2 89/90/2
f 68/96/2 69/98/2 137/98/2 129/96/2
f 76/100/2 77/102/2 132/102/2 131/100/2
f 56/86/2 57/88/2 4/88/2 87/86/2
f 84/106/2 85/84/2 146/84/2 135/106/2
f 64/94/2 65/82/2 91/82/2 126/94/2
f 15/29/6 16/20/6 100/108/6 99/109/6
f 16/20/6 21/36/6 97/110/6 100/108/6
f 21/36/6 22/25/6 98/111/6 97/110/6
f 22/25/6 15/29/6 99/109/6 98/111/6
f 97/110/10 98/111/10 103/111/10 104/110/10
f 98/111/11 99/109/11 101/109/11 103/111/11
f 100/108/12 97/110/12 104/110/12 102/108/12
f 99/109/13 100/108/13 102/108/13 101/109/13
f 111/6/14 115/5/14 116/27/14 112/17/14
f 114/38/15 110/37/15 109/14/15 113/13/15
f 123/4/16 121/3/16 122/112/16 124/113/16
f 119/40/17 117/39/17 118/114/17 120/115/17
f 121/3/18 108/2/18 107/116/18 122/112/18
f 105/41/19 119/40/19 120/115/19 106/117/19
f 115/5/20 123/4/20 124/113/20 116/118/20
f 117/39/21 114/38/21 113/119/21 118/114/21
f 1/120/7 105/121/7 106/122/7 9/44/7 8/43/7
f 141/79/5 6/74/5 139/75/5 140/78/5
f 5/87/9 87/86/9 4/88/9 88/89/9
f 3/91/5 89/90/5 125/92/5 90/93/5
f 138/95/9 126/94/9 91/82/9 127/83/9
f 128/97/5 129/96/5 137/98/5 92/99/5
f 93/81/9 142/76/9 143/77/9 130/80/9
f 94/101/5 131/100/5 132/102/5 144/103/5
f 145/72/5 133/73/5 96/104/5 95/105/5
f 134/107/5 135/106/5 146/84/5 136/85/5
usemtl Noir_Profond
f 79/72/8 80/73/8 133/73/8 145/72/8
f 54/78/4 51/79/4 141/79/4 140/78/4
f 74/80/4 71/81/4 93/81/4 130/80/4
f 65/82/1 66/83/1 127/83/1 91/82/1
f 51/79/8 52/74/8 6/74/8 141/79/8
f 85/84/1 86/85/1 136/85/1 146/84/1
f 71/81/8 72/76/8 142/76/8 93/81/8
f 34/51/5 43/60/5 52/74/5 51/79/5
f 43/60/5 35/64/5 53/75/5 52/74/5
f 35/64/5 33/62/5 54/78/5 53/75/5
f 33/62/9 34/51/9 51/79/9 54/78/9
f 43/60/9 44/59/9 56/86/9 55/87/9
f 44/59/5 36/65/5 57/88/5 56/86/5
f 36/65/9 35/64/9 58/89/9 57/88/9
f 35/64/5 43/60/5 55/87/5 58/89/5
f 44/59/5 45/58/5 60/90/5 59/91/5
f 45/58/5 37/66/5 61/92/5 60/90/5
f 37/66/5 36/65/5 62/93/5 61/92/5
f 36/65/5 44/59/5 59/91/5 62/93/5
f 45/58/9 46/57/9 64/94/9 63/95/9
f 46/57/5 38/67/5 65/82/5 64/94/5
f 38/67/5 37/66/5 66/83/5 65/82/5
f 37/66/5 45/58/5 63/95/5 66/83/5
f 46/57/5 47/56/5 68/96/5 67/97/5
f 47/56/5 39/68/5 69/98/5 68/96/5
f 39/68/9 38/67/9 70/99/9 69/98/9
f 38/67/5 46/57/5 67/97/5 70/99/5
f 47/56/5 48/55/5 72/76/5 71/81/5
f 48/55/5 40/69/5 73/77/5 72/76/5
f 40/69/5 39/68/5 74/80/5 73/77/5
f 39/68/5 47/56/5 71/81/5 74/80/5
f 48/55/9 49/54/9 76/100/9 75/101/9
f 49/54/5 41/70/5 77/102/5 76/100/5
f 41/70/9 40/69/9 78/103/9 77/102/9
f 40/69/5 48/55/5 75/101/5 78/103/5
f 49/54/9 50/53/9 80/73/9 79/72/9
f 50/53/5 42/71/5 81/104/5 80/73/5
f 42/71/9 41/70/9 82/105/9 81/104/9
f 41/70/9 49/54/9 79/72/9 82/105/9
f 50/53/9 31/52/9 84/106/9 83/107/9
f 31/52/5 32/61/5 85/84/5 84/106/5
f 32/61/9 42/71/9 86/85/9 85/84/9
f 42/71/5 50/53/5 83/107/5 86/85/5
f 59/91/8 60/90/8 89/90/8 3/91/8
f 73/77/1 74/80/1 130/80/1 143/77/1
f 53/75/1 54/78/1 140/78/1 139/75/1
f 82/105/4 79/72/4 145/72/4 95/105/4
f 62/93/4 59/91/4 3/91/4 90/93/4
f 67/97/8 68/96/8 129/96/8 128/97/8
f 81/104/1 82/105/1 95/105/1 96/104/1
f 61/92/1 62/93/1 90/93/1 125/92/1
f 70/99/4 67/97/4 128/97/4 92/99/4
f 75/101/8 76/100/8 131/100/8 94/101/8
f 55/87/8 56/86/8 87/86/8 5/87/8
f 69/98/1 70/99/1 92/99/1 137/98/1
f 78/103/4 75/101/4 94/101/4 144/103/4
f 58/89/4 55/87/4 5/87/4 88/89/4
f 83/107/8 84/106/8 135/106/8 134/107/8
f 63/95/8 64/94/8 126/94/8 138/95/8
f 77/102/1 78/103/1 144/103/1 132/102/1
f 57/88/1 58/89/1 88/89/1 4/88/1
f 86/85/4 83/107/4 134/107/4 136/85/4
f 66/83/4 63/95/4 138/95/4 127/83/4
usemtl Bleu_Neon
f 101/109/6 102/108/6 104/110/6 103/111/6
