# Blender 4.2.3 LTS
# www.blender.org
mtllib SM_Cellule_Compact.mtl
o SM_Cellule_Compact
v -0.000000 0.000000 -0.103511
v -0.000000 0.044290 -0.150081
v -0.000000 0.012972 -0.136441
v 0.000000 0.624501 -0.103511
v -0.000000 0.580211 -0.150081
v 0.000000 0.611529 -0.136441
v 0.060842 0.000000 -0.083742
v 0.088215 0.044290 -0.121418
v 0.080198 0.012972 -0.110383
v 0.060842 0.624501 -0.083742
v 0.088215 0.580211 -0.121418
v 0.080198 0.611529 -0.110383
v 0.098445 0.000000 -0.031987
v 0.129763 0.012972 -0.042163
v 0.098445 0.624501 -0.031987
v 0.129763 0.611529 -0.042163
v 0.098445 0.000000 0.031987
v 0.142735 0.044290 0.046377
v 0.129763 0.012972 0.042163
v 0.098445 0.624501 0.031987
v 0.142735 0.580211 0.046377
v 0.129763 0.611529 0.042163
v 0.060842 0.000000 0.083742
v 0.088215 0.044290 0.121418
v 0.080198 0.012972 0.110383
v 0.060842 0.624501 0.083742
v 0.088215 0.580211 0.121418
v 0.080198 0.611529 0.110383
v 0.000000 0.000000 0.103511
v -0.000000 0.044290 0.150081
v 0.000000 0.012972 0.136441
v -0.000000 0.624501 0.103511
v -0.000000 0.580211 0.150081
v -0.000000 0.611529 0.136441
v -0.060842 0.000000 0.083742
v -0.088215 0.044290 0.121418
v -0.080198 0.012972 0.110383
v -0.060842 0.624501 0.083742
v -0.088215 0.580211 0.121418
v -0.080198 0.611529 0.110383
v -0.098445 0.000000 0.031987
v -0.142735 0.044290 0.046377
v -0.129763 0.012972 0.042163
v -0.098445 0.624501 0.031987
v -0.129763 0.611529 0.042163
v -0.098445 0.000000 -0.031987
v -0.142735 0.044290 -0.046377
v -0.129763 0.012972 -0.042163
v -0.098445 0.624501 -0.031987
v -0.142735 0.580211 -0.046377
v -0.129763 0.611529 -0.042163
v -0.060842 0.000000 -0.083742
v -0.088215 0.044290 -0.121418
v -0.080198 0.012972 -0.110383
v -0.060842 0.624501 -0.083742
v -0.088215 0.580211 -0.121418
v -0.080198 0.611529 -0.110383
v -0.000000 0.080280 -0.150081
v -0.000000 0.544222 -0.150081
v 0.088215 0.544222 -0.121418
v 0.088215 0.080280 -0.121418
v -0.088215 0.080280 -0.121418
v -0.088215 0.544222 -0.121418
v 0.142735 0.544222 -0.046377
v 0.142735 0.080280 0.046377
v 0.088215 0.544222 0.121418
v 0.088215 0.080280 0.121418
v -0.000000 0.544222 0.150081
v -0.000000 0.080280 0.150081
v -0.088215 0.544222 0.121418
v -0.088215 0.080280 0.121418
v -0.142735 0.544222 0.046377
v -0.142735 0.544222 -0.046377
v -0.142735 0.080280 -0.046377
v -0.000000 0.080280 -0.138386
v -0.000000 0.544222 -0.138386
v 0.081341 0.544222 -0.111957
v 0.081341 0.080280 -0.111957
v -0.081341 0.080280 -0.111957
v -0.081341 0.544222 -0.111957
v 0.131613 0.544222 -0.042764
v 0.131613 0.080280 -0.042764
v 0.131613 0.544222 0.042764
v 0.131613 0.080280 0.042764
v 0.081341 0.544222 0.111957
v 0.081341 0.080280 0.111957
v -0.000000 0.544222 0.138386
v -0.000000 0.080280 0.138386
v -0.081341 0.544222 0.111957
v -0.081341 0.080280 0.111957
v -0.131613 0.544222 0.042764
v -0.131613 0.080280 0.042764
v -0.131613 0.544222 -0.042764
v -0.131613 0.080280 -0.042764
v 0.142735 0.044290 -0.046377
v 0.142735 0.580211 -0.046377
v -0.142735 0.580211 0.046377
v 0.142735 0.080280 -0.046377
v -0.142735 0.080280 0.046377
v 0.142735 0.544222 0.046377
v 0.142735 0.551591 -0.024820
v 0.142735 0.572841 -0.024820
v 0.142735 0.572841 0.024820
v 0.142735 0.551591 0.024820
v -0.142735 0.551591 0.024820
v -0.142735 0.572841 0.024820
v -0.142735 0.572841 -0.024820
v -0.142735 0.551591 -0.024820
v -0.142735 0.051660 0.024820
v -0.142735 0.072910 0.024820
v -0.142735 0.072910 -0.024820
v -0.142735 0.051660 -0.024820
v 0.142735 0.051660 -0.024820
v 0.142735 0.072910 -0.024820
v 0.142735 0.072910 0.024820
v 0.142735 0.051660 0.024820
v 0.167967 0.572841 -0.024820
v 0.187196 0.553084 -0.024820
v 0.181564 0.567055 -0.024820
v 0.187196 0.553084 0.024820
v 0.167967 0.572841 0.024820
v 0.181564 0.567055 0.024820
v -0.167967 0.572841 0.024820
v -0.187196 0.553084 0.024820
v -0.181564 0.567055 0.024820
v -0.187196 0.553084 -0.024820
v -0.167967 0.572841 -0.024820
v -0.181564 0.567055 -0.024820
v -0.187196 0.071417 0.024820
v -0.167967 0.051660 0.024820
v -0.181564 0.057447 0.024820
v -0.167967 0.051660 -0.024820
v -0.187196 0.071417 -0.024820
v -0.181564 0.057447 -0.024820
v 0.187196 0.071417 -0.024820
v 0.167967 0.051660 -0.024820
v 0.181564 0.057447 -0.024820
v 0.167967 0.051660 0.024820
v 0.187196 0.071417 0.024820
v 0.181564 0.057447 0.024820
v 0.167565 0.531834 -0.024820
v 0.147778 0.551591 -0.024820
v 0.161757 0.545805 -0.024820
v 0.147778 0.551591 0.024820
v 0.167565 0.531834 0.024820
v 0.161757 0.545805 0.024820
v 0.148497 0.072910 -0.024820
v 0.168225 0.092667 -0.024820
v 0.162459 0.078696 -0.024820
v 0.168225 0.092667 0.024820
v 0.148497 0.072910 0.024820
v 0.162459 0.078696 0.024820
v -0.147778 0.072910 0.024820
v -0.167535 0.092667 0.024820
v -0.161749 0.078696 0.024820
v -0.167535 0.092667 -0.024820
v -0.147778 0.072910 -0.024820
v -0.161749 0.078696 -0.024820
v -0.167535 0.531834 0.024820
v -0.147778 0.551591 0.024820
v -0.161749 0.545805 0.024820
v -0.147778 0.551591 -0.024820
v -0.167535 0.531834 -0.024820
v -0.161749 0.545805 -0.024820
v 0.097840 0.095592 -0.089248
v 0.097840 0.417997 -0.089248
v 0.115114 0.417997 -0.065472
v 0.115114 0.095592 -0.065472
v -0.115114 0.095592 -0.065472
v -0.115114 0.417997 -0.065472
v -0.097840 0.417997 -0.089248
v -0.097840 0.095592 -0.089248
v -0.097840 0.095592 0.089248
v -0.097840 0.417997 0.089248
v -0.115114 0.417997 0.065472
v -0.115114 0.095592 0.065472
v 0.115114 0.095592 0.065472
v 0.115114 0.417997 0.065472
v 0.097840 0.417997 0.089248
v 0.097840 0.095592 0.089248
v 0.091839 0.417997 -0.084889
v 0.091839 0.095592 -0.084889
v 0.109114 0.095592 -0.061112
v 0.109114 0.417997 -0.061112
v -0.109114 0.417997 -0.061112
v -0.109114 0.095592 -0.061112
v -0.091839 0.095592 -0.084889
v -0.091839 0.417997 -0.084889
v -0.091839 0.417997 0.084889
v -0.091839 0.095592 0.084889
v -0.109114 0.095592 0.061112
v -0.109114 0.417997 0.061112
v 0.109114 0.417997 0.061112
v 0.109114 0.095592 0.061112
v 0.091839 0.095592 0.084889
v 0.091839 0.417997 0.084889
v 0.035064 0.624501 -0.048261
v 0.000000 0.624501 -0.059654
v -0.035064 0.624501 -0.048261
v -0.056734 0.624501 -0.018434
v -0.056734 0.624501 0.018434
v -0.035064 0.624501 0.048261
v -0.000000 0.624501 0.059654
v 0.035064 0.624501 0.048261
v 0.056734 0.624501 0.018434
v 0.056734 0.624501 -0.018434
v -0.000000 0.654297 -0.046841
v 0.027532 0.654297 -0.037895
v 0.044548 0.654297 -0.014475
v -0.027532 0.654297 -0.037895
v -0.044548 0.654297 -0.014475
v -0.044548 0.654297 0.014475
v -0.027532 0.654297 0.037895
v -0.000000 0.654297 0.046841
v 0.027532 0.654297 0.037895
v 0.044548 0.654297 0.014475
v 0.016452 0.654297 -0.022644
v -0.000000 0.654297 -0.027990
v -0.016452 0.654297 -0.022644
v -0.026620 0.654297 -0.008649
v -0.026620 0.654297 0.008649
v -0.016452 0.654297 0.022644
v -0.000000 0.654297 0.027990
v 0.016452 0.654297 0.022644
v 0.026620 0.654297 0.008649
v 0.026620 0.654297 -0.008649
v -0.000000 0.647693 -0.027990
v 0.016452 0.647693 -0.022644
v 0.026620 0.647693 -0.008649
v -0.016452 0.647693 -0.022644
v -0.026620 0.647693 -0.008649
v -0.026620 0.647693 0.008649
v -0.016452 0.647693 0.022644
v -0.000000 0.647693 0.027990
v 0.016452 0.647693 0.022644
v 0.026620 0.647693 0.008649
v 0.010409 0.647693 -0.014327
v -0.000000 0.647693 -0.017709
v -0.010409 0.647693 -0.014327
v -0.016842 0.647693 -0.005472
v -0.016842 0.647693 0.005472
v -0.010409 0.647693 0.014327
v -0.000000 0.647693 0.017709
v 0.010409 0.647693 0.014327
v 0.016842 0.647693 0.005472
v 0.016842 0.647693 -0.005472
v -0.000000 0.644828 -0.017709
v 0.010409 0.644828 -0.014327
v 0.016842 0.644828 -0.005472
v -0.010409 0.644828 -0.014327
v -0.016842 0.644828 -0.005472
v -0.016842 0.644828 0.005472
v -0.010409 0.644828 0.014327
v -0.000000 0.644828 0.017709
v 0.010409 0.644828 0.014327
v 0.016842 0.644828 0.005472
v 0.096523 0.103561 -0.078441
v 0.096523 0.410028 -0.078441
v 0.104429 0.410028 -0.067560
v 0.104429 0.103561 -0.067560
v -0.104429 0.103561 -0.067560
v -0.104429 0.410028 -0.067560
v -0.096523 0.410028 -0.078441
v -0.096523 0.103561 -0.078441
v -0.096523 0.103561 0.078441
v -0.096523 0.410028 0.078441
v -0.104429 0.410028 0.067560
v -0.104429 0.103561 0.067560
v 0.104429 0.103561 0.067560
v 0.104429 0.410028 0.067560
v 0.096523 0.410028 0.078441
v 0.096523 0.103561 0.078441
v 0.095786 0.410028 -0.077906
v 0.095786 0.103561 -0.077906
v 0.103692 0.103561 -0.067024
v 0.103692 0.410028 -0.067024
v -0.103692 0.410028 -0.067024
v -0.103692 0.103561 -0.067024
v -0.095786 0.103561 -0.077906
v -0.095786 0.410028 -0.077906
v -0.095786 0.410028 0.077906
v -0.095786 0.103561 0.077906
v -0.103692 0.103561 0.067024
v -0.103692 0.410028 0.067024
v 0.103692 0.410028 0.067024
v 0.103692 0.103561 0.067024
v 0.095786 0.103561 0.077906
v 0.095786 0.410028 0.077906
vn -0.3090 -0.0000 -0.9511
vn 0.8090 -0.0000 0.5878
vn 0.3090 -0.0000 0.9511
vn -0.3090 -0.0000 0.9511
vn -0.8090 -0.0000 0.5878
vn -0.8090 -0.0000 -0.5878
vn 0.8090 -0.0000 -0.5878
vn -0.2860 0.3786 0.8803
vn 0.3090 -0.0000 -0.9511
vn 0.2855 -0.3827 -0.8787
vn 0.1183 -0.9239 -0.3640
vn 0.2855 0.3827 -0.8787
vn 0.1183 0.9239 -0.3640
vn 0.7474 -0.3827 -0.5430
vn 0.3096 -0.9239 -0.2249
vn 0.7474 0.3827 -0.5430
vn 0.3096 0.9239 -0.2249
vn 0.9239 -0.3827 -0.0000
vn 0.3827 -0.9239 -0.0000
vn 0.9239 0.3827 -0.0000
vn 0.3827 0.9239 -0.0000
vn 0.7474 -0.3827 0.5430
vn 0.3096 -0.9239 0.2249
vn 0.7474 0.3827 0.5430
vn 0.3096 0.9239 0.2249
vn 0.2855 -0.3827 0.8787
vn 0.1183 -0.9239 0.3640
vn 0.2855 0.3827 0.8787
vn 0.1183 0.9239 0.3640
vn -0.2855 -0.3827 0.8787
vn -0.1183 -0.9239 0.3640
vn -0.2855 0.3827 0.8787
vn -0.1183 0.9239 0.3640
vn -0.7474 -0.3827 0.5430
vn -0.3096 -0.9239 0.2249
vn -0.7474 0.3827 0.5430
vn -0.3096 0.9239 0.2249
vn -0.9239 -0.3827 -0.0000
vn -0.3827 -0.9239 -0.0000
vn -0.9239 0.3827 -0.0000
vn -0.3827 0.9239 -0.0000
vn -0.7474 -0.3827 -0.5430
vn -0.3096 -0.9239 -0.2249
vn -0.7474 0.3827 -0.5430
vn -0.3096 0.9239 -0.2249
vn -0.2855 -0.3827 -0.8787
vn -0.1183 -0.9239 -0.3640
vn -0.2855 0.3827 -0.8787
vn -0.1183 0.9239 -0.3640
vn -0.0000 -1.0000 -0.0000
vn -0.0000 1.0000 -0.0000
vn 0.5878 -0.0000 -0.8090
vn 0.5878 -0.0000 0.8090
vn -1.0000 -0.0000 -0.0000
vn 1.0000 -0.0000 -0.0000
vn -0.0000 -0.0000 -1.0000
vn -0.0000 -0.0000 1.0000
vn -1.0000 -0.0015 -0.0000
vn 0.9275 0.3739 -0.0000
vn 0.3916 0.9201 -0.0000
vn -0.9275 0.3739 -0.0000
vn -0.3916 0.9201 -0.0000
vn -0.9275 -0.3739 -0.0000
vn -0.3916 -0.9201 -0.0000
vn 0.9275 -0.3739 -0.0000
vn 0.3916 -0.9201 -0.0000
vn -0.9234 -0.3839 -0.0000
vn -0.3825 -0.9240 -0.0000
vn -0.9244 0.3815 -0.0000
vn -0.3829 0.9238 -0.0000
vn -0.5878 -0.0000 -0.8090
vn -0.5878 -0.0000 0.8090
vn -0.7488 0.3786 -0.5440
vn 0.2860 0.3786 -0.8803
vn 0.2860 0.3786 0.8803
vn -0.9256 0.3786 -0.0000
vn 0.7488 0.3786 -0.5440
vn 0.7488 0.3786 0.5440
vn -0.7488 0.3786 0.5440
vn -0.2860 0.3786 -0.8803
vn 0.9256 0.3786 -0.0000
vt 0.100000 0.821513
vt 0.100000 0.964540
vt -0.000000 0.964540
vt -0.000000 0.821513
vt 0.700000 0.821513
vt 0.700000 0.964540
vt 0.600000 0.964540
vt 0.600000 0.821513
vt 0.600000 0.964540
vt 0.500000 0.964540
vt 0.500000 0.821513
vt 0.500000 0.964540
vt 0.400000 0.964540
vt 0.400000 0.821513
vt 0.400000 0.964540
vt 0.300000 0.964540
vt 0.300000 0.821513
vt 0.200000 0.821513
vt 0.200000 0.964540
vt 0.100000 0.964540
vt 0.900000 0.821513
vt 0.900000 0.964540
vt 0.800000 0.964540
vt 0.800000 0.821513
vt 0.193928 0.172824
vt 0.250000 0.154605
vt 1.000000 0.821513
vt 1.000000 0.964540
vt 0.900000 0.964540
vt 1.000000 0.535460
vt 0.900000 0.535460
vt 0.904544 0.500000
vt 0.995456 0.500000
vt 0.756410 0.487917
vt 0.884658 0.446247
vt 0.847296 0.383916
vt 0.750000 0.415529
vt 0.995456 1.000000
vt 0.904544 1.000000
vt 0.384658 0.446247
vt 0.256410 0.487917
vt 0.250000 0.415529
vt 0.347296 0.383916
vt 0.900000 0.535460
vt 0.800000 0.535460
vt 0.804544 0.500000
vt 0.895456 0.500000
vt 0.895030 0.438711
vt 0.974292 0.329617
vt 0.907428 0.301151
vt 0.895456 1.000000
vt 0.804544 1.000000
vt 0.474292 0.329617
vt 0.395030 0.438711
vt 0.407428 0.301151
vt 0.800000 0.535460
vt 0.700000 0.535460
vt 0.704544 0.500000
vt 0.795456 0.500000
vt 0.978254 0.317424
vt 0.978254 0.182576
vt 0.907428 0.198849
vt 0.700000 0.964540
vt 0.800000 0.964540
vt 0.795456 1.000000
vt 0.704544 1.000000
vt 0.478254 0.182576
vt 0.478254 0.317424
vt 0.407428 0.198849
vt 0.700000 0.535460
vt 0.600000 0.535460
vt 0.604544 0.500000
vt 0.695456 0.500000
vt 0.974292 0.170383
vt 0.895030 0.061289
vt 0.847296 0.116084
vt 0.695456 1.000000
vt 0.604544 1.000000
vt 0.395030 0.061289
vt 0.474292 0.170383
vt 0.347296 0.116084
vt 0.600000 0.535460
vt 0.500000 0.535460
vt 0.504544 0.500000
vt 0.595456 0.500000
vt 0.884658 0.053753
vt 0.756410 0.012083
vt 0.750000 0.084471
vt 0.595456 1.000000
vt 0.504544 1.000000
vt 0.256410 0.012083
vt 0.384658 0.053753
vt 0.250000 0.084471
vt 0.500000 0.535460
vt 0.400000 0.535460
vt 0.404544 0.500000
vt 0.495456 0.500000
vt 0.743590 0.012083
vt 0.615342 0.053753
vt 0.652704 0.116084
vt 0.495456 1.000000
vt 0.404544 1.000000
vt 0.115342 0.053753
vt 0.243590 0.012083
vt 0.152704 0.116084
vt 0.400000 0.535460
vt 0.300000 0.535460
vt 0.304544 0.500000
vt 0.395456 0.500000
vt 0.604970 0.061289
vt 0.525708 0.170383
vt 0.592572 0.198849
vt 0.395456 1.000000
vt 0.304544 1.000000
vt 0.025708 0.170383
vt 0.104970 0.061289
vt 0.092572 0.198849
vt 0.300000 0.535460
vt 0.200000 0.535460
vt 0.204544 0.500000
vt 0.295456 0.500000
vt 0.521746 0.182576
vt 0.521746 0.317424
vt 0.592572 0.301151
vt 0.200000 0.964540
vt 0.300000 0.964540
vt 0.295456 1.000000
vt 0.204544 1.000000
vt 0.021746 0.317424
vt 0.021746 0.182576
vt 0.092572 0.301151
vt 0.200000 0.535460
vt 0.100000 0.535460
vt 0.104544 0.500000
vt 0.195456 0.500000
vt 0.525708 0.329617
vt 0.604970 0.438711
vt 0.652704 0.383916
vt 0.195456 1.000000
vt 0.104544 1.000000
vt 0.104970 0.438711
vt 0.025708 0.329617
vt 0.152704 0.383916
vt 0.100000 0.535460
vt -0.000000 0.535460
vt 0.004544 0.500000
vt 0.095456 0.500000
vt 0.615342 0.446247
vt 0.743590 0.487917
vt 0.095456 1.000000
vt 0.004544 1.000000
vt 0.243590 0.487917
vt 0.115342 0.446247
vt 1.000000 0.678487
vt 0.900000 0.678487
vt 0.800000 0.678487
vt 0.500000 0.678487
vt 0.600000 0.678487
vt 0.200000 0.678487
vt 0.100000 0.678487
vt 0.400000 0.678487
vt 0.300000 0.678487
vt -0.000000 0.678487
vt 0.700000 0.678487
vt 0.167181 0.687140
vt 0.167181 0.812860
vt 0.867181 0.687140
vt 0.867181 0.812860
vt 0.632819 0.812860
vt 0.632819 0.687140
vt 0.332819 0.812860
vt 0.332819 0.687140
vt 0.792054 0.649198
vt 0.707946 0.649198
vt 0.792054 0.935251
vt 0.792054 0.850802
vt 0.707946 0.935251
vt 0.707945 0.850802
vt 0.292054 0.935251
vt 0.292054 0.850802
vt 0.207945 0.935251
vt 0.207945 0.850802
vt 0.292054 0.649198
vt 0.292054 0.564749
vt 0.207945 0.649198
vt 0.207946 0.564749
vt 0.792054 0.564749
vt 0.707946 0.564749
vt 0.207945 0.564749
vt 0.207946 0.567355
vt 0.207946 0.578794
vt 0.207945 0.921206
vt 0.207946 0.932645
vt 0.207946 0.844125
vt 0.207945 0.842481
vt 0.207945 0.657519
vt 0.207945 0.655875
vt 0.707946 0.567381
vt 0.707946 0.578794
vt 0.707946 0.921206
vt 0.707946 0.932644
vt 0.707945 0.844121
vt 0.707945 0.842481
vt 0.707946 0.657519
vt 0.707946 0.655956
vt 0.292054 0.850802
vt 0.292054 0.578794
vt 0.292054 0.921206
vt 0.207946 0.921206
vt 0.207945 0.578794
vt 0.792054 0.578794
vt 0.792054 0.921206
vt 0.707946 0.921206
vt 0.707946 0.578794
vt 0.792054 0.655956
vt 0.792054 0.657519
vt 0.792054 0.842481
vt 0.792054 0.844121
vt 0.792054 0.932644
vt 0.792054 0.578794
vt 0.792054 0.567381
vt 0.792054 0.657519
vt 0.707945 0.842481
vt 0.792054 0.850802
vt 0.292054 0.657519
vt 0.207945 0.657519
vt 0.292054 0.842481
vt 0.292054 0.655875
vt 0.292054 0.657519
vt 0.292054 0.844125
vt 0.292054 0.932645
vt 0.292054 0.578794
vt 0.292054 0.567355
vt 0.832819 0.812860
vt 0.832819 0.687140
vt 0.132819 0.812860
vt 0.132819 0.687140
vt 0.367181 0.812860
vt 0.367181 0.687140
vt 0.667181 0.812860
vt 0.667181 0.687140
vt 0.842137 0.809752
vt 0.842137 0.690248
vt 0.642137 0.690248
vt 0.657863 0.690248
vt 0.157863 0.809752
vt 0.142137 0.809752
vt 0.342137 0.690248
vt 0.357863 0.690248
vt 0.250000 0.345395
vt 0.306072 0.327176
vt 0.193928 0.327176
vt 0.159274 0.279479
vt 0.159274 0.220521
vt 0.306072 0.172824
vt 0.340726 0.220521
vt 0.340726 0.279479
vt 0.216494 0.203883
vt 0.250000 0.192996
vt 0.250000 0.307004
vt 0.283506 0.296117
vt 0.216494 0.296117
vt 0.195786 0.267615
vt 0.195786 0.232385
vt 0.283506 0.203883
vt 0.304214 0.232385
vt 0.304214 0.267615
vt 0.271199 0.279178
vt 0.250000 0.286066
vt 0.228801 0.279178
vt 0.215699 0.261145
vt 0.215699 0.238855
vt 0.228801 0.220822
vt 0.250000 0.213934
vt 0.271199 0.220822
vt 0.284301 0.238855
vt 0.284301 0.261145
vt 0.857863 0.809752
vt 0.857863 0.690248
vt 0.157863 0.690248
vt 0.142137 0.690248
vt 0.357863 0.809752
vt 0.342137 0.809752
vt 0.657863 0.809752
vt 0.642137 0.809752
s 0
usemtl Noir_Light
f 63/1/1 56/2/1 5/3/1 59/4/1
f 100/5/2 21/6/2 27/7/2 66/8/2
f 66/8/3 27/9/3 33/10/3 68/11/3
f 68/11/4 33/12/4 39/13/4 70/14/4
f 70/14/5 39/15/5 97/16/5 72/17/5
f 73/18/6 50/19/6 56/20/6 63/1/6
f 60/21/7 11/22/7 96/23/7 64/24/7
f 202/25/8 203/26/8 214/26/8 213/25/8
f 59/27/9 5/28/9 11/29/9 60/21/9
f 2/30/10 8/31/10 9/32/10 3/33/10
f 3/34/11 9/35/11 7/36/11 1/37/11
f 11/29/12 5/28/12 6/38/12 12/39/12
f 12/40/13 6/41/13 4/42/13 10/43/13
f 8/44/14 95/45/14 14/46/14 9/47/14
f 9/48/15 14/49/15 13/50/15 7/36/15
f 96/23/16 11/22/16 12/51/16 16/52/16
f 16/53/17 12/54/17 10/43/17 15/55/17
f 95/56/18 18/57/18 19/58/18 14/59/18
f 14/60/19 19/61/19 17/62/19 13/50/19
f 21/63/20 96/64/20 16/65/20 22/66/20
f 22/67/21 16/68/21 15/55/21 20/69/21
f 18/70/22 24/71/22 25/72/22 19/73/22
f 19/74/23 25/75/23 23/76/23 17/62/23
f 27/7/24 21/6/24 22/77/24 28/78/24
f 28/79/25 22/80/25 20/69/25 26/81/25
f 24/82/26 30/83/26 31/84/26 25/85/26
f 25/86/27 31/87/27 29/88/27 23/76/27
f 33/10/28 27/9/28 28/89/28 34/90/28
f 34/91/29 28/92/29 26/81/29 32/93/29
f 30/94/30 36/95/30 37/96/30 31/97/30
f 31/98/31 37/99/31 35/100/31 29/88/31
f 39/13/32 33/12/32 34/101/32 40/102/32
f 40/103/33 34/104/33 32/93/33 38/105/33
f 36/106/34 42/107/34 43/108/34 37/109/34
f 37/110/35 43/111/35 41/112/35 35/100/35
f 97/16/36 39/15/36 40/113/36 45/114/36
f 45/115/37 40/116/37 38/105/37 44/117/37
f 42/118/38 47/119/38 48/120/38 43/121/38
f 43/122/39 48/123/39 46/124/39 41/112/39
f 50/125/40 97/126/40 45/127/40 51/128/40
f 51/129/41 45/130/41 44/117/41 49/131/41
f 47/132/42 53/133/42 54/134/42 48/135/42
f 48/136/43 54/137/43 52/138/43 46/124/43
f 56/20/44 50/19/44 51/139/44 57/140/44
f 57/141/45 51/142/45 49/131/45 55/143/45
f 53/144/46 2/145/46 3/146/46 54/147/46
f 54/148/47 3/149/47 1/37/47 52/138/47
f 5/3/48 56/2/48 57/150/48 6/151/48
f 6/152/49 57/153/49 55/143/49 4/42/49
f 1/37/50 7/36/50 13/50/50 17/62/50 23/76/50 29/88/50 35/100/50 41/112/50 46/124/50 52/138/50
f 2/30/9 58/154/9 61/155/9 8/31/9
f 73/18/50 63/1/50 80/1/50 93/18/50
f 8/44/7 61/155/7 98/156/7 95/45/7
f 69/157/51 67/158/51 86/158/51 88/157/51
f 47/132/6 74/159/6 62/160/6 53/133/6
f 63/1/50 59/4/50 76/4/50 80/1/50
f 62/160/51 74/159/51 94/159/51 79/160/51
f 36/106/5 71/161/5 99/162/5 42/107/5
f 68/11/50 70/14/50 89/14/50 87/11/50
f 30/94/4 69/157/4 71/161/4 36/95/4
f 58/163/51 62/160/51 79/160/51 75/163/51
f 24/82/3 67/158/3 69/157/3 30/83/3
f 60/21/50 64/24/50 81/24/50 77/21/50
f 18/70/2 65/164/2 67/158/2 24/71/2
f 71/161/51 69/157/51 88/157/51 90/161/51
f 64/24/50 100/5/50 83/5/50 81/24/50
f 53/144/1 62/160/1 58/163/1 2/145/1
f 98/156/51 61/155/51 78/155/51 82/156/51
f 75/154/9 76/27/9 77/21/9 78/155/9
f 169/165/52 170/166/52 185/166/52 186/165/52
f 165/167/53 166/168/53 181/168/53 182/167/53
f 92/162/54 91/17/54 93/18/54 94/159/54
f 179/169/52 180/170/52 195/170/52 196/169/52
f 88/157/4 87/11/4 89/14/4 90/161/4
f 86/158/3 85/8/3 87/11/3 88/157/3
f 175/171/53 176/172/53 191/172/53 192/171/53
f 82/156/55 81/24/55 83/5/55 84/164/55
f 79/160/1 80/1/1 76/4/1 75/163/1
f 66/8/50 68/11/50 87/11/50 85/8/50
f 74/159/51 99/162/51 92/162/51 94/159/51
f 67/158/51 65/164/51 84/164/51 86/158/51
f 72/17/50 73/18/50 93/18/50 91/17/50
f 61/155/51 58/154/51 75/154/51 78/155/51
f 100/5/50 66/8/50 85/8/50 83/5/50
f 99/162/51 71/161/51 90/161/51 92/162/51
f 59/27/50 60/21/50 77/21/50 76/27/50
f 65/164/51 98/156/51 82/156/51 84/164/51
f 70/14/50 72/17/50 91/17/50 89/14/50
f 114/173/51 115/174/51 151/174/51 147/173/51
f 64/24/55 96/64/55 102/175/55 101/176/55
f 96/64/55 21/63/55 103/177/55 102/175/55
f 21/63/55 100/5/55 104/178/55 103/177/55
f 100/5/55 64/24/55 101/176/55 104/178/55
f 72/17/54 97/126/54 106/179/54 105/180/54
f 97/126/54 50/125/54 107/181/54 106/179/54
f 50/125/54 73/18/54 108/182/54 107/181/54
f 73/18/54 72/17/54 105/180/54 108/182/54
f 42/118/54 99/162/54 110/183/54 109/184/54
f 99/162/54 74/159/54 111/185/54 110/183/54
f 74/159/54 47/119/54 112/186/54 111/185/54
f 47/119/54 42/118/54 109/184/54 112/186/54
f 95/56/55 98/156/55 114/173/55 113/187/55
f 98/156/55 65/164/55 115/174/55 114/173/55
f 65/164/55 18/57/55 116/188/55 115/174/55
f 18/57/55 95/56/55 113/187/55 116/188/55
f 132/189/56 134/190/56 133/191/56 126/192/56 128/193/56 127/181/56 107/181/56 108/182/56 162/182/56 164/194/56 163/195/56 156/196/56 158/197/56 157/185/56 111/185/56 112/186/56
f 138/188/57 140/198/57 139/199/57 120/200/57 122/201/57 121/177/57 103/177/57 104/178/57 144/178/57 146/202/57 145/203/57 150/204/57 152/205/57 151/174/57 115/174/57 116/188/57
f 108/182/50 105/180/50 160/206/50 162/182/50
f 129/207/54 124/208/54 126/209/54 133/210/54
f 135/211/55 118/212/55 120/213/55 139/214/55
f 112/186/50 109/184/50 130/184/50 132/189/50
f 147/173/56 149/215/56 148/216/56 141/217/56 143/218/56 142/176/56 101/176/56 102/175/56 117/175/56 119/219/56 118/212/56 135/220/56 137/221/56 136/187/56 113/187/56 114/173/56
f 106/179/51 107/181/51 127/181/51 123/179/51
f 148/222/58 150/204/58 145/223/58 141/217/58
f 104/178/50 101/176/50 142/224/50 144/178/50
f 110/183/51 111/185/51 157/185/51 153/183/51
f 116/188/50 113/187/50 136/187/50 138/188/50
f 154/225/55 156/226/55 163/195/55 159/227/55
f 153/183/57 155/228/57 154/229/57 159/227/57 161/230/57 160/180/57 105/180/57 106/179/57 123/179/57 125/231/57 124/208/57 129/232/57 131/233/57 130/184/57 109/184/57 110/183/57
f 120/213/59 118/212/59 119/219/59 122/201/59
f 122/201/60 119/219/60 117/175/60 121/177/60
f 126/209/61 124/208/61 125/231/61 128/193/61
f 128/193/62 125/231/62 123/179/62 127/181/62
f 129/207/63 133/210/63 134/190/63 131/233/63
f 131/233/64 134/190/64 132/189/64 130/184/64
f 135/211/65 139/214/65 140/198/65 137/221/65
f 137/221/66 140/198/66 138/188/66 136/187/66
f 141/217/67 145/223/67 146/202/67 143/218/67
f 143/218/68 146/202/68 144/178/68 142/224/68
f 150/204/69 148/222/69 149/215/69 152/205/69
f 152/205/70 149/215/70 147/173/70 151/174/70
f 156/226/20 154/225/20 155/228/20 158/197/20
f 158/197/21 155/228/21 153/183/21 157/185/21
f 159/227/18 163/195/18 164/194/18 161/230/18
f 161/230/19 164/194/19 162/182/19 160/206/19
f 102/175/51 103/177/51 121/177/51 117/175/51
f 78/155/7 77/21/7 166/168/7 165/167/7
f 77/21/7 81/24/7 167/234/7 166/168/7
f 81/24/7 82/156/7 168/235/7 167/234/7
f 82/156/7 78/155/7 165/167/7 168/235/7
f 94/159/6 93/18/6 170/166/6 169/165/6
f 93/18/6 80/1/6 171/236/6 170/166/6
f 80/1/6 79/160/6 172/237/6 171/236/6
f 79/160/6 94/159/6 169/165/6 172/237/6
f 90/161/5 89/14/5 174/238/5 173/239/5
f 89/14/5 91/17/5 175/171/5 174/238/5
f 91/17/5 92/162/5 176/172/5 175/171/5
f 92/162/5 90/161/5 173/239/5 176/172/5
f 84/164/2 83/5/2 178/240/2 177/241/2
f 83/5/2 85/8/2 179/169/2 178/240/2
f 85/8/2 86/158/2 180/170/2 179/169/2
f 86/158/2 84/164/2 177/241/2 180/170/2
f 168/235/51 165/167/51 182/167/51 183/235/51
f 173/239/71 174/238/71 189/238/71 190/239/71
f 172/237/51 169/165/51 186/165/51 187/237/51
f 177/241/72 178/240/72 193/240/72 194/241/72
f 166/168/50 167/234/50 184/234/50 181/168/50
f 176/172/51 173/239/51 190/239/51 191/172/51
f 170/166/50 171/236/50 188/236/50 185/166/50
f 180/170/51 177/241/51 194/241/51 195/170/51
f 167/234/71 168/235/71 183/235/71 184/234/71
f 174/238/50 175/171/50 192/171/50 189/238/50
f 171/236/72 172/237/72 187/237/72 188/236/72
f 178/240/50 179/169/50 196/169/50 193/240/50
f 10/43/51 4/42/51 198/250/51 197/251/51
f 4/42/51 55/143/51 199/252/51 198/250/51
f 55/143/51 49/131/51 200/253/51 199/252/51
f 49/131/51 44/117/51 201/254/51 200/253/51
f 44/117/51 38/105/51 202/25/51 201/254/51
f 38/105/51 32/93/51 203/26/51 202/25/51
f 32/93/51 26/81/51 204/255/51 203/26/51
f 26/81/51 20/69/51 205/256/51 204/255/51
f 20/69/51 15/55/51 206/257/51 205/256/51
f 15/55/51 10/43/51 197/251/51 206/257/51
f 222/258/9 223/259/9 234/259/9 233/258/9
f 199/252/73 200/253/73 211/253/73 210/252/73
f 197/251/74 198/250/74 207/250/74 208/251/74
f 203/26/75 204/255/75 215/255/75 214/26/75
f 200/253/76 201/254/76 212/254/76 211/253/76
f 206/257/77 197/251/77 208/251/77 209/257/77
f 204/255/78 205/256/78 216/256/78 215/255/78
f 201/254/79 202/25/79 213/25/79 212/254/79
f 198/250/80 199/252/80 210/252/80 207/250/80
f 205/256/81 206/257/81 209/257/81 216/256/81
f 208/251/51 207/250/51 218/260/51 217/261/51
f 207/250/51 210/252/51 219/262/51 218/260/51
f 210/252/51 211/253/51 220/263/51 219/262/51
f 211/253/51 212/254/51 221/264/51 220/263/51
f 212/254/51 213/25/51 222/258/51 221/264/51
f 213/25/51 214/26/51 223/259/51 222/258/51
f 214/26/51 215/255/51 224/265/51 223/259/51
f 215/255/51 216/256/51 225/266/51 224/265/51
f 216/256/51 209/257/51 226/267/51 225/266/51
f 209/257/51 208/251/51 217/261/51 226/267/51
f 219/262/2 220/263/2 231/263/2 230/262/2
f 217/261/4 218/260/4 227/260/4 228/261/4
f 223/259/1 224/265/1 235/265/1 234/259/1
f 220/263/55 221/264/55 232/264/55 231/263/55
f 226/267/5 217/261/5 228/261/5 229/267/5
f 224/265/6 225/266/6 236/266/6 235/265/6
f 221/264/7 222/258/7 233/258/7 232/264/7
f 218/260/3 219/262/3 230/262/3 227/260/3
f 225/266/54 226/267/54 229/267/54 236/266/54
usemtl Bleu_Neon
f 248/268/51 247/269/51 250/270/51 251/271/51 252/272/51 253/273/51 254/274/51 255/275/51 256/276/51 249/277/51
f 274/279/7 273/278/7 276/242/7 275/243/7
f 278/280/6 277/246/6 280/247/6 279/281/6
f 282/249/5 281/282/5 284/283/5 283/248/5
f 286/245/2 285/284/2 288/285/2 287/244/2
usemtl Noir_Profond
f 259/242/71 260/243/71 275/243/71 276/242/71
f 272/244/51 269/245/51 286/245/51 287/244/51
f 262/246/50 263/247/50 280/247/50 277/246/50
f 268/248/51 265/249/51 282/249/51 283/248/51
f 237/268/4 238/269/4 247/269/4 248/268/4
f 228/261/51 227/260/51 238/269/51 237/268/51
f 227/260/51 230/262/51 239/270/51 238/269/51
f 230/262/51 231/263/51 240/271/51 239/270/51
f 231/263/51 232/264/51 241/272/51 240/271/51
f 232/264/51 233/258/51 242/273/51 241/272/51
f 233/258/51 234/259/51 243/274/51 242/273/51
f 234/259/51 235/265/51 244/275/51 243/274/51
f 235/265/51 236/266/51 245/276/51 244/275/51
f 236/266/51 229/267/51 246/277/51 245/276/51
f 229/267/51 228/261/51 237/268/51 246/277/51
f 243/274/1 244/275/1 255/275/1 254/274/1
f 240/271/55 241/272/55 252/272/55 251/271/55
f 246/277/5 237/268/5 248/268/5 249/277/5
f 244/275/6 245/276/6 256/276/6 255/275/6
f 241/272/7 242/273/7 253/273/7 252/272/7
f 238/269/3 239/270/3 250/270/3 247/269/3
f 245/276/54 246/277/54 249/277/54 256/276/54
f 242/273/9 243/274/9 254/274/9 253/273/9
f 239/270/2 240/271/2 251/271/2 250/270/2
f 182/167/7 181/168/7 258/278/7 257/279/7
f 181/168/7 184/234/7 259/242/7 258/278/7
f 184/234/7 183/235/7 260/243/7 259/242/7
f 183/235/7 182/167/7 257/279/7 260/243/7
f 186/165/6 185/166/6 262/246/6 261/280/6
f 185/166/6 188/236/6 263/247/6 262/246/6
f 188/236/6 187/237/6 264/281/6 263/247/6
f 187/237/6 186/165/6 261/280/6 264/281/6
f 190/239/5 189/238/5 266/282/5 265/249/5
f 189/238/5 192/171/5 267/283/5 266/282/5
f 192/171/5 191/172/5 268/248/5 267/283/5
f 191/172/5 190/239/5 265/249/5 268/248/5
f 194/241/2 193/240/2 270/284/2 269/245/2
f 193/240/2 196/169/2 271/285/2 270/284/2
f 196/169/2 195/170/2 272/244/2 271/285/2
f 195/170/2 194/241/2 269/245/2 272/244/2
f 266/282/50 267/283/50 284/283/50 281/282/50
f 263/247/72 264/281/72 279/281/72 280/247/72
f 270/284/50 271/285/50 288/285/50 285/284/50
f 267/283/53 268/248/53 283/248/53 284/283/53
f 271/285/52 272/244/52 287/244/52 288/285/52
f 257/279/53 258/278/53 273/278/53 274/279/53
f 261/280/52 262/246/52 277/246/52 278/280/52
f 260/243/51 257/279/51 274/279/51 275/243/51
f 265/249/71 266/282/71 281/282/71 282/249/71
f 264/281/51 261/280/51 278/280/51 279/281/51
f 269/245/72 270/284/72 285/284/72 286/245/72
f 258/278/50 259/242/50 276/242/50 273/278/50
