# Blender 4.2.3 LTS
# www.blender.org
mtllib SM_Data_Unit.mtl
o SM_Data_Unit
v -0.188494 0.551211 -0.124384
v -0.188494 0.551211 0.124384
v -0.188494 0.539008 -0.124384
v -0.188494 0.539008 0.124384
v 0.202742 0.128478 -0.124384
v 0.202742 0.128478 0.124384
v -0.226027 0.000000 0.157125
v -0.226027 0.015128 0.172253
v -0.241155 0.015128 0.157125
v -0.241155 0.536083 0.157125
v -0.226027 0.536083 0.172253
v -0.226027 0.551211 0.157125
v -0.241155 0.015128 -0.157125
v -0.226027 0.015128 -0.172253
v -0.226027 0.000000 -0.157125
v -0.226027 0.551211 -0.157125
v -0.226027 0.536083 -0.172253
v -0.241155 0.536083 -0.157125
v 0.241155 0.015128 0.157125
v 0.226027 0.015128 0.172253
v 0.226027 0.000000 0.157125
v 0.226027 0.551211 0.157125
v 0.226027 0.536083 0.172253
v 0.241155 0.536083 0.157125
v 0.226027 0.015128 -0.172253
v 0.241155 0.015128 -0.157125
v 0.226027 0.000000 -0.157125
v 0.226027 0.536083 -0.172253
v 0.226027 0.551211 -0.157125
v 0.241155 0.536083 -0.157125
v -0.226027 0.000000 -0.124384
v -0.241155 0.015128 -0.124384
v -0.241155 0.015128 0.124384
v -0.226027 0.000000 0.124384
v -0.226027 0.551211 0.124384
v -0.241155 0.536083 0.124384
v -0.241155 0.536083 -0.124384
v -0.226027 0.551211 -0.124384
v 0.226027 0.000000 0.124384
v 0.241155 0.015128 0.124384
v 0.241155 0.015128 -0.124384
v 0.226027 0.000000 -0.124384
v 0.241155 0.536083 -0.124384
v 0.226027 0.551211 -0.124384
v 0.226470 0.547574 -0.124384
v 0.226027 0.551211 0.124384
v 0.241155 0.536083 0.124384
v 0.226470 0.547574 0.124384
v 0.191188 0.542445 -0.124384
v 0.206185 0.527454 -0.124384
v 0.221000 0.546219 -0.124384
v 0.206185 0.527454 0.124384
v 0.191188 0.542445 0.124384
v 0.221000 0.546219 0.124384
v 0.190974 0.501030 -0.172253
v 0.190974 0.050181 -0.172253
v -0.190974 0.050181 -0.172253
v -0.190974 0.501030 -0.172253
v 0.190974 0.050181 0.172253
v 0.190974 0.501030 0.172253
v -0.190974 0.501030 0.172253
v -0.190974 0.050181 0.172253
v 0.190974 0.050181 -0.158047
v 0.190974 0.501030 -0.158047
v -0.190974 0.501030 -0.158047
v -0.190974 0.050181 -0.158047
v 0.190974 0.501030 0.158047
v 0.190974 0.050181 0.158047
v -0.190974 0.050181 0.158047
v -0.190974 0.501030 0.158047
v 0.168499 0.478555 -0.158047
v 0.168499 0.072656 -0.158047
v -0.168499 0.072656 -0.158047
v -0.168499 0.478555 -0.158047
v 0.168499 0.072656 0.158047
v 0.168499 0.478555 0.158047
v -0.168499 0.478555 0.158047
v -0.168499 0.072656 0.158047
v 0.150056 0.094869 -0.172216
v 0.150056 0.456342 -0.172216
v -0.150056 0.456342 -0.172216
v -0.150056 0.094869 -0.172216
v 0.150056 0.456342 0.172216
v 0.150056 0.094869 0.172216
v -0.150056 0.094869 0.172216
v -0.150056 0.456342 0.172216
v 0.230768 0.128478 -0.124384
v 0.241155 0.118092 -0.124384
v 0.241155 0.138865 -0.124384
v 0.241155 0.118092 0.124384
v 0.230768 0.128478 0.124384
v 0.241155 0.138865 0.124384
v 0.204463 0.327966 -0.124384
v 0.204463 0.327966 0.124384
v 0.205324 0.427710 -0.124384
v 0.203603 0.228222 0.124384
v 0.203603 0.228222 -0.124384
v 0.205324 0.427710 0.124384
v 0.204894 0.377838 -0.124384
v 0.204033 0.278094 0.124384
v 0.203172 0.178350 -0.124384
v 0.205755 0.477582 0.124384
v 0.205755 0.477582 -0.124384
v 0.203172 0.178350 0.124384
v 0.204033 0.278094 -0.124384
v 0.204894 0.377838 0.124384
v 0.203976 0.271471 -0.117761
v 0.203976 0.271471 0.117761
v 0.203660 0.234846 0.117761
v 0.203660 0.234846 -0.117761
v 0.205267 0.421087 -0.117761
v 0.205267 0.421087 0.117761
v 0.204951 0.384462 0.117761
v 0.204951 0.384462 -0.117761
v 0.203545 0.221599 -0.117761
v 0.203545 0.221599 0.117761
v 0.203229 0.184974 0.117761
v 0.203229 0.184974 -0.117761
v 0.205698 0.470959 -0.117761
v 0.205698 0.470959 0.117761
v 0.205381 0.434334 0.117761
v 0.205381 0.434334 -0.117761
v 0.203115 0.171727 -0.117761
v 0.203115 0.171727 0.117761
v 0.202799 0.135102 0.117761
v 0.202799 0.135102 -0.117761
v 0.204837 0.371215 -0.117761
v 0.204837 0.371215 0.117761
v 0.204521 0.334590 0.117761
v 0.204521 0.334590 -0.117761
v 0.206128 0.520831 0.117761
v 0.205812 0.484206 0.117761
v 0.205812 0.484206 -0.117761
v 0.206128 0.520831 -0.117761
v 0.204406 0.321343 -0.117761
v 0.204406 0.321343 0.117761
v 0.204090 0.284718 0.117761
v 0.204090 0.284718 -0.117761
v 0.196821 0.271533 -0.117761
v 0.196821 0.271533 0.117761
v 0.196505 0.234908 -0.117761
v 0.196505 0.234908 0.117761
v 0.198113 0.421149 -0.117761
v 0.198113 0.421149 0.117761
v 0.197797 0.384524 -0.117761
v 0.197797 0.384524 0.117761
v 0.196391 0.221661 -0.117761
v 0.196391 0.221661 0.117761
v 0.196075 0.185035 -0.117761
v 0.196075 0.185035 0.117761
v 0.198543 0.471021 -0.117761
v 0.198543 0.471021 0.117761
v 0.198227 0.434396 -0.117761
v 0.198227 0.434396 0.117761
v 0.195961 0.171789 -0.117761
v 0.195961 0.171789 0.117761
v 0.195644 0.135163 -0.117761
v 0.195644 0.135163 0.117761
v 0.197682 0.371277 -0.117761
v 0.197682 0.371277 0.117761
v 0.197366 0.334652 -0.117761
v 0.197366 0.334652 0.117761
v 0.198657 0.484268 0.117761
v 0.198974 0.520893 0.117761
v 0.198974 0.520893 -0.117761
v 0.198657 0.484268 -0.117761
v 0.197252 0.321405 -0.117761
v 0.197252 0.321405 0.117761
v 0.196936 0.284780 -0.117761
v 0.196936 0.284780 0.117761
v 0.196711 0.258706 -0.104934
v 0.196711 0.258706 0.104934
v 0.196616 0.247734 0.104934
v 0.196616 0.247734 -0.104934
v 0.198002 0.408322 -0.104934
v 0.198002 0.408322 0.104934
v 0.197907 0.397350 0.104934
v 0.197907 0.397350 -0.104934
v 0.196280 0.208834 -0.104934
v 0.196280 0.208834 0.104934
v 0.196186 0.197862 0.104934
v 0.196186 0.197862 -0.104934
v 0.198432 0.458194 -0.104934
v 0.198432 0.458194 0.104934
v 0.198338 0.447222 0.104934
v 0.198338 0.447222 -0.104934
v 0.195850 0.158962 -0.104934
v 0.195850 0.158962 0.104934
v 0.195755 0.147990 0.104934
v 0.195755 0.147990 -0.104934
v 0.197572 0.358450 -0.104934
v 0.197572 0.358450 0.104934
v 0.197477 0.347478 0.104934
v 0.197477 0.347478 -0.104934
v 0.198863 0.508066 0.104934
v 0.198768 0.497094 0.104934
v 0.198768 0.497094 -0.104934
v 0.198863 0.508066 -0.104934
v 0.197141 0.308578 -0.104934
v 0.197141 0.308578 0.104934
v 0.197046 0.297606 0.104934
v 0.197046 0.297606 -0.104934
v 0.195111 0.258720 -0.104934
v 0.195111 0.258720 0.104934
v 0.195017 0.247748 -0.104934
v 0.195017 0.247748 0.104934
v 0.196403 0.408336 -0.104934
v 0.196403 0.408336 0.104934
v 0.196308 0.397364 -0.104934
v 0.196308 0.397364 0.104934
v 0.194681 0.208848 -0.104934
v 0.194681 0.208848 0.104934
v 0.194586 0.197876 -0.104934
v 0.194586 0.197876 0.104934
v 0.196833 0.458208 -0.104934
v 0.196833 0.458208 0.104934
v 0.196738 0.447236 -0.104934
v 0.196738 0.447236 0.104934
v 0.194250 0.158976 -0.104934
v 0.194250 0.158976 0.104934
v 0.194156 0.148004 -0.104934
v 0.194156 0.148004 0.104934
v 0.195972 0.358464 -0.104934
v 0.195972 0.358464 0.104934
v 0.195877 0.347492 -0.104934
v 0.195877 0.347492 0.104934
v 0.197169 0.497108 0.104934
v 0.197263 0.508080 0.104934
v 0.197263 0.508080 -0.104934
v 0.197169 0.497108 -0.104934
v 0.195542 0.308592 -0.104934
v 0.195542 0.308592 0.104934
v 0.195447 0.297620 -0.104934
v 0.195447 0.297620 0.104934
v 0.175681 0.542305 -0.108877
v -0.172987 0.539148 -0.108877
v -0.172987 0.539148 0.108877
v 0.175681 0.542305 0.108877
v -0.150294 0.528695 -0.094765
v 0.153182 0.531443 -0.094765
v 0.153182 0.531443 0.094765
v -0.150294 0.528695 0.094765
v 0.141405 0.531336 -0.082988
v -0.138518 0.528802 -0.082988
v -0.138518 0.528802 0.082988
v 0.141405 0.531336 0.082988
v -0.103996 0.546732 -0.062424
v 0.106564 0.548638 -0.062424
v 0.106564 0.548638 0.062424
v -0.103996 0.546732 0.062424
v 0.241155 0.015128 0.059511
v 0.241155 0.118092 0.059511
v 0.241155 0.089210 -0.124384
v 0.241155 0.044010 -0.124384
v 0.241155 0.044010 0.124384
v 0.241155 0.089210 0.124384
v 0.241155 0.044010 0.059511
v 0.241155 0.089210 0.059511
v 0.241155 0.082134 0.066586
v 0.241155 0.082134 0.117309
v 0.241155 0.051086 0.117309
v 0.241155 0.051086 0.066586
v 0.241155 0.082134 -0.117309
v 0.241155 0.082134 0.052435
v 0.241155 0.051086 0.052435
v 0.241155 0.051086 -0.117309
v 0.238854 0.082134 0.066586
v 0.238854 0.082134 0.117309
v 0.238854 0.051086 0.066586
v 0.238854 0.051086 0.117309
v 0.238854 0.082134 -0.117309
v 0.238854 0.082134 0.052435
v 0.238854 0.051086 -0.117309
v 0.238854 0.051086 0.052435
vn -0.0000 -0.7071 -0.7071
vn -0.0000 -1.0000 -0.0000
vn -1.0000 -0.0000 -0.0000
vn 1.0000 -0.0000 -0.0000
vn -0.0000 -0.0000 1.0000
vn -0.0000 1.0000 -0.0000
vn -0.7071 -0.0000 0.7071
vn -0.0000 -0.0000 -1.0000
vn 0.4184 0.9083 -0.0000
vn -0.5774 -0.5773 0.5774
vn -0.5774 0.5773 0.5774
vn -0.5774 -0.5773 -0.5774
vn -0.5774 0.5773 -0.5774
vn 0.5774 -0.5773 0.5774
vn 0.5774 0.5773 0.5774
vn 0.5774 -0.5773 -0.5774
vn 0.5774 0.5773 -0.5774
vn -0.7071 -0.7071 -0.0000
vn -0.7071 -0.0000 -0.7071
vn -0.7071 0.7071 -0.0000
vn 0.7071 -0.0000 -0.7071
vn -0.0000 0.7071 -0.7071
vn -0.0000 -0.7071 0.7071
vn 0.7071 -0.0000 0.7071
vn 0.7071 -0.7071 -0.0000
vn 0.7071 0.7071 -0.0000
vn -0.0000 0.7071 0.7071
vn 0.7070 0.7073 -0.0000
vn -0.6092 -0.0000 0.7930
vn -0.0000 -0.5378 -0.8431
vn 0.6092 -0.0000 -0.7930
vn -0.0000 -0.5378 0.8431
vn -0.6092 -0.0000 -0.7930
vn -0.0000 0.5378 -0.8431
vn -0.0000 0.5378 0.8431
vn 0.6092 -0.0000 0.7930
vn 0.0086 1.0000 -0.0000
vn -0.0086 -1.0000 -0.0000
vn 1.0000 -0.0086 -0.0000
vn -0.0087 -1.0000 -0.0000
vn -0.0091 1.0000 -0.0000
vn -0.4609 0.8874 -0.0000
vn -0.0072 0.7980 0.6027
vn -0.0072 0.7980 -0.6027
vn -0.4348 0.9006 -0.0000
vn -0.0069 0.7594 -0.6506
vn -0.0069 0.7594 0.6506
vn 0.4448 0.8956 -0.0000
vt 0.367159 0.526336
vt 0.132841 0.526336
vt 0.132841 0.500000
vt 0.367159 0.500000
vt 0.367159 0.583333
vt 0.132841 0.583333
vt 0.381861 0.166667
vt 0.618139 0.166667
vt 0.618139 0.223664
vt 0.381861 0.223664
vt 0.381861 0.583333
vt 0.394961 0.583333
vt 0.394961 0.625000
vt 0.381861 0.625000
vt 0.625000 0.583333
vt 0.632841 0.583333
vt 0.847704 0.583333
vt 0.633533 0.583333
vt 0.625000 0.583333
vt 0.847704 0.666667
vt 0.867159 0.583333
vt 0.867159 0.666667
vt 0.367159 0.666667
vt 0.132841 0.666667
vt 0.397759 0.776011
vt 0.602240 0.776011
vt 0.632841 0.526336
vt 0.867158 0.526336
vt 0.632842 0.583333
vt 0.381861 0.000000
vt 0.618139 0.000000
vt 0.618139 0.026336
vt 0.381861 0.026336
vt 0.632841 0.666667
vt 0.867159 0.723664
vt 0.632841 0.723664
vt 0.625000 0.666667
vt 0.618139 0.666667
vt 0.437982 0.666667
vt 0.433271 0.666667
vt 0.456362 0.666667
vt 0.479452 0.666667
vt 0.502543 0.666667
vt 0.525633 0.666667
vt 0.548724 0.666667
vt 0.571815 0.666667
vt 0.594905 0.666667
vt 0.617996 0.666667
vt 0.381861 0.083333
vt 0.618139 0.083333
vt 0.505610 0.585552
vt 0.522567 0.585552
vt 0.415461 0.625000
vt 0.428560 0.625000
vt 0.428560 0.666667
vt 0.415461 0.666667
vt 0.632842 0.666667
vt 0.633533 0.666667
vt 0.838957 0.588528
vt 0.838957 0.661472
vt 0.433271 0.583333
vt 0.132841 0.723664
vt 0.132841 0.750000
vt 0.125000 0.723664
vt 0.625000 0.026336
vt 0.381861 0.250000
vt 0.375000 0.223664
vt 0.625000 0.257841
vt 0.618139 0.257841
vt 0.618139 0.250000
vt 0.381861 0.750000
vt 0.381861 0.757841
vt 0.375000 0.757842
vt 0.625000 0.757842
vt 0.618139 0.757841
vt 0.618139 0.750000
vt 0.381861 0.492159
vt 0.381861 0.500000
vt 0.375000 0.492159
vt 0.618139 0.492159
vt 0.625000 0.492158
vt 0.618139 0.500000
vt 0.618139 0.583333
vt 0.625151 0.583333
vt 0.624876 0.666667
vt 0.125000 0.666667
vt 0.381861 0.257841
vt 0.625000 0.166667
vt 0.625000 0.223664
vt 0.618139 0.526336
vt 0.381861 0.526336
vt 0.367159 0.723664
vt 0.367159 0.750000
vt 0.381861 0.723664
vt 0.618139 0.723664
vt 0.625000 0.992159
vt 0.618139 0.992159
vt 0.367159 0.666667
vt 0.125000 0.583333
vt 0.125000 0.526336
vt 0.625000 0.083333
vt 0.381861 0.666667
vt 0.633533 0.666667
vt 0.617996 0.583333
vt 0.602240 0.973989
vt 0.397759 0.473989
vt 0.602241 0.473989
vt 0.397759 0.276011
vt 0.602241 0.276011
vt 0.381861 0.992158
vt 0.397759 0.973989
vt 0.592047 0.962340
vt 0.407953 0.962340
vt 0.407953 0.462340
vt 0.407953 0.287660
vt 0.592047 0.462340
vt 0.592047 0.287660
vt 0.592047 0.787660
vt 0.407953 0.787661
vt 0.437982 0.583333
vt 0.428560 0.583333
vt 0.437982 0.583333
vt 0.594905 0.583333
vt 0.571815 0.583333
vt 0.548724 0.583333
vt 0.525633 0.583333
vt 0.502543 0.583333
vt 0.479452 0.583333
vt 0.456362 0.583333
vt 0.482519 0.664448
vt 0.482519 0.585552
vt 0.528700 0.664448
vt 0.528700 0.585552
vt 0.476386 0.585552
vt 0.476386 0.664448
vt 0.522567 0.664448
vt 0.499476 0.664448
vt 0.545658 0.664448
vt 0.499476 0.585552
vt 0.568748 0.664448
vt 0.568748 0.585552
vt 0.551791 0.664448
vt 0.551791 0.585552
vt 0.459428 0.664448
vt 0.459428 0.585552
vt 0.591839 0.664448
vt 0.591839 0.585552
vt 0.574881 0.664448
vt 0.574881 0.585552
vt 0.453295 0.664448
vt 0.453295 0.585552
vt 0.436338 0.664448
vt 0.436338 0.585552
vt 0.545657 0.585552
vt 0.597972 0.664448
vt 0.614929 0.664448
vt 0.597972 0.585552
vt 0.614929 0.585552
vt 0.505609 0.664448
vt 0.603911 0.660151
vt 0.603911 0.589849
vt 0.557729 0.589849
vt 0.562809 0.589849
vt 0.608991 0.589849
vt 0.608991 0.660151
vt 0.442276 0.660151
vt 0.442276 0.589849
vt 0.562809 0.660151
vt 0.447356 0.660151
vt 0.447356 0.589849
vt 0.493538 0.660151
vt 0.493538 0.589849
vt 0.488458 0.660151
vt 0.488458 0.589849
vt 0.557729 0.660151
vt 0.470447 0.660151
vt 0.470447 0.589849
vt 0.465367 0.660151
vt 0.465367 0.589849
vt 0.585900 0.660151
vt 0.585900 0.589849
vt 0.580820 0.660151
vt 0.580820 0.589849
vt 0.539719 0.660151
vt 0.539719 0.589849
vt 0.534639 0.660151
vt 0.534639 0.589849
vt 0.516628 0.660151
vt 0.516628 0.589849
vt 0.511548 0.660151
vt 0.511548 0.589849
vt 0.642280 0.588528
vt 0.642280 0.661472
vt 0.831325 0.593061
vt 0.831325 0.656939
vt 0.649912 0.593060
vt 0.649912 0.656939
vt 0.428560 0.666667
vt 0.437982 0.666667
vt 0.394961 0.666667
vt 0.415461 0.666667
vt 0.394961 0.625000
vt 0.428560 0.583333
vt 0.415461 0.583333
vt 0.394961 0.583333
vt 0.412252 0.662122
vt 0.398170 0.662122
vt 0.412252 0.584936
vt 0.412252 0.623397
vt 0.415461 0.583333
vt 0.412252 0.629544
vt 0.398170 0.629544
vt 0.398170 0.623397
vt 0.398170 0.584936
s 0
usemtl Noir_Light
f 27/1/1 15/2/1 14/3/1 25/4/1
f 15/2/2 27/1/2 42/5/2 31/6/2
f 32/7/3 37/8/3 18/9/3 13/10/3
f 41/11/4 254/12/4 257/13/4 251/14/4
f 45/15/5 44/16/5 1/17/5 3/17/5 49/18/5 51/19/5
f 1/17/4 2/20/4 4/20/4 3/17/4
f 1/17/6 38/21/6 35/22/6 2/20/6
f 31/6/2 42/5/2 39/23/2 34/24/2
f 59/25/3 60/26/3 67/26/3 68/25/3
f 29/27/6 16/28/6 38/21/6 1/17/6 44/29/6
f 8/30/7 11/31/7 10/32/7 9/33/7
f 46/34/6 2/20/6 35/22/6 12/35/6 22/36/6
f 48/37/8 47/38/8 92/39/8 91/40/8 6/40/8 104/41/8 96/42/8 100/43/8 94/44/8 106/45/8 98/46/8 102/47/8 52/48/8 54/37/8
f 33/49/3 36/50/3 37/8/3 32/7/3
f 138/51/5 135/52/5 167/52/5 169/51/5
f 258/53/4 252/54/4 90/55/4 256/56/4
f 2/20/8 46/57/8 48/37/8 54/37/8 53/58/8 4/20/8
f 236/59/9 237/60/9 242/60/9 239/59/9
f 91/40/6 87/61/6 5/61/6 6/40/6
f 7/62/10 8/63/10 9/64/10
f 10/32/11 11/31/11 12/65/11
f 13/10/12 14/66/12 15/67/12
f 16/68/13 17/69/13 18/70/13
f 19/71/14 20/72/14 21/73/14
f 22/74/15 23/75/15 24/76/15
f 25/77/16 26/78/16 27/79/16
f 28/80/17 29/81/17 30/82/17
f 43/83/5 44/15/5 45/15/5
f 46/34/8 47/37/8 48/37/8
f 49/18/5 50/84/5 51/15/5
f 52/48/8 53/85/8 54/37/8
f 34/24/18 7/62/18 9/64/18 33/86/18
f 17/69/19 14/87/19 13/10/19 18/9/19
f 38/88/20 16/89/20 18/9/20 37/8/20
f 30/90/21 26/91/21 25/77/21 28/80/21
f 16/68/22 29/81/22 28/80/22 17/69/22
f 7/62/23 21/92/23 20/93/23 8/63/23
f 23/75/24 20/72/24 19/94/24 24/95/24
f 42/5/25 27/1/25 26/91/25 41/11/25
f 46/34/26 22/36/26 24/95/26 47/38/26
f 10/32/3 36/50/3 33/49/3 9/33/3
f 22/74/27 12/96/27 11/97/27 23/75/27
f 34/24/2 39/98/2 21/92/2 7/62/2
f 15/2/18 31/6/18 32/99/18 13/100/18
f 31/6/18 34/24/18 33/86/18 32/99/18
f 12/65/20 35/101/20 36/50/20 10/32/20
f 35/101/20 38/88/20 37/8/20 36/50/20
f 21/92/25 39/98/25 40/102/25 19/94/25
f 39/23/25 42/5/25 41/11/25 251/14/25 40/102/25
f 29/27/26 44/29/26 43/83/26 30/90/26
f 49/18/28 53/103/28 52/48/28 50/104/28
f 60/26/2 61/105/2 70/105/2 67/26/2
f 28/80/8 25/77/8 56/106/8 55/107/8
f 25/77/8 14/87/8 57/108/8 56/106/8
f 14/87/8 17/69/8 58/109/8 57/108/8
f 17/69/8 28/80/8 55/107/8 58/109/8
f 20/72/5 23/75/5 60/26/5 59/25/5
f 23/75/5 11/97/5 61/105/5 60/26/5
f 11/97/5 8/110/5 62/111/5 61/105/5
f 8/110/5 20/72/5 59/25/5 62/111/5
f 77/112/29 78/113/29 85/113/29 86/112/29
f 72/114/30 73/115/30 82/115/30 79/114/30
f 56/106/6 57/108/6 66/108/6 63/106/6
f 61/105/4 62/111/4 69/111/4 70/105/4
f 55/107/3 56/106/3 63/106/3 64/107/3
f 62/111/6 59/25/6 68/25/6 69/111/6
f 57/108/4 58/109/4 65/109/4 66/108/4
f 58/109/2 55/107/2 64/107/2 65/109/2
f 64/107/8 63/106/8 72/114/8 71/116/8
f 63/106/8 66/108/8 73/115/8 72/114/8
f 66/108/8 65/109/8 74/117/8 73/115/8
f 65/109/8 64/107/8 71/116/8 74/117/8
f 68/25/5 67/26/5 76/118/5 75/119/5
f 67/26/5 70/105/5 77/112/5 76/118/5
f 70/105/5 69/111/5 78/113/5 77/112/5
f 69/111/5 68/25/5 75/119/5 78/113/5
f 80/116/8 79/114/8 82/115/8 81/117/8
f 84/119/5 83/118/5 86/112/5 85/113/5
f 71/116/31 72/114/31 79/114/31 80/116/31
f 78/113/32 75/119/32 84/119/32 85/113/32
f 73/115/33 74/117/33 81/117/33 82/115/33
f 74/117/34 71/116/34 80/116/34 81/117/34
f 76/118/35 77/112/35 86/112/35 83/118/35
f 75/119/36 76/118/36 83/118/36 84/119/36
f 87/61/5 88/61/5 89/120/5
f 90/55/8 91/40/8 92/39/8
f 87/61/26 91/40/26 90/55/26 252/54/26 88/121/26
f 87/61/5 89/122/5 43/83/5 45/19/5 51/15/5 50/104/5 103/123/5 95/124/5 99/125/5 93/126/5 105/127/5 97/128/5 101/129/5 5/61/5
f 109/130/37 110/131/37 141/131/37 142/130/37
f 129/132/37 130/133/37 161/133/37 162/132/37
f 115/134/38 116/135/38 148/135/38 147/134/38
f 135/52/38 136/136/38 168/136/38 167/52/38
f 108/137/8 109/130/8 142/130/8 140/137/8
f 128/138/8 129/132/8 162/132/8 160/138/8
f 110/131/5 107/139/5 139/139/5 141/131/5
f 105/127/39 100/43/39 108/137/39 107/139/39
f 100/43/39 96/42/39 109/130/39 108/137/39
f 96/42/39 97/128/39 110/131/39 109/130/39
f 97/128/39 105/127/39 107/139/39 110/131/39
f 95/124/39 98/46/39 112/140/39 111/141/39
f 98/46/39 106/45/39 113/142/39 112/140/39
f 106/45/39 99/125/39 114/143/39 113/142/39
f 99/125/39 95/124/39 111/141/39 114/143/39
f 97/128/39 96/42/39 116/135/39 115/134/39
f 96/42/39 104/41/39 117/144/39 116/135/39
f 104/41/39 101/129/39 118/145/39 117/144/39
f 101/129/39 97/128/39 115/134/39 118/145/39
f 103/123/39 102/47/39 120/146/39 119/147/39
f 102/47/39 98/46/39 121/148/39 120/146/39
f 98/46/39 95/124/39 122/149/39 121/148/39
f 95/124/39 103/123/39 119/147/39 122/149/39
f 101/129/39 104/41/39 124/150/39 123/151/39
f 104/41/39 6/40/39 125/152/39 124/150/39
f 6/40/39 5/61/39 126/153/39 125/152/39
f 5/61/39 101/129/39 123/151/39 126/153/39
f 99/125/39 106/45/39 128/138/39 127/154/39
f 106/45/39 94/44/39 129/132/39 128/138/39
f 94/44/39 93/126/39 130/133/39 129/132/39
f 93/126/39 99/125/39 127/154/39 130/133/39
f 52/48/39 102/47/39 132/155/39 131/156/39
f 102/47/39 103/123/39 133/157/39 132/155/39
f 103/123/39 50/104/39 134/158/39 133/157/39
f 50/104/39 52/48/39 131/156/39 134/158/39
f 93/126/39 94/44/39 136/136/39 135/52/39
f 94/44/39 100/43/39 137/159/39 136/136/39
f 100/43/39 105/127/39 138/51/39 137/159/39
f 105/127/39 93/126/39 135/52/39 138/51/39
f 118/145/5 115/134/5 147/134/5 149/145/5
f 136/136/8 137/159/8 170/159/8 168/136/8
f 116/135/8 117/144/8 150/144/8 148/135/8
f 123/151/38 124/150/38 156/150/38 155/151/38
f 137/159/37 138/51/37 169/51/37 170/159/37
f 117/144/37 118/145/37 149/145/37 150/144/37
f 126/153/5 123/151/5 155/151/5 157/153/5
f 124/150/8 125/152/8 158/152/8 156/150/8
f 131/156/8 132/155/8 163/155/8 164/156/8
f 111/141/38 112/140/38 144/140/38 143/141/38
f 125/152/37 126/153/37 157/153/37 158/152/37
f 134/158/38 131/156/38 164/156/38 165/158/38
f 114/143/5 111/141/5 143/141/5 145/143/5
f 132/155/37 133/157/37 166/157/37 163/155/37
f 112/140/8 113/142/8 146/142/8 144/140/8
f 119/147/38 120/146/38 152/146/38 151/147/38
f 133/157/5 134/158/5 165/158/5 166/157/5
f 113/142/37 114/143/37 145/143/37 146/142/37
f 122/149/5 119/147/5 151/147/5 153/149/5
f 120/146/8 121/148/8 154/148/8 152/146/8
f 127/154/38 128/138/38 160/138/38 159/154/38
f 107/139/38 108/137/38 140/137/38 139/139/38
f 121/148/37 122/149/37 153/149/37 154/148/37
f 130/133/5 127/154/5 159/154/5 161/133/5
f 49/18/41 3/17/41 236/59/41 235/192/41
f 3/17/41 4/20/41 237/60/41 236/59/41
f 4/20/41 53/103/41 238/193/41 237/60/41
f 53/103/41 49/18/41 235/192/41 238/193/41
f 244/194/42 245/195/42 250/195/42 247/194/42
f 235/192/43 236/59/43 239/59/43 240/192/43
f 237/60/44 238/193/44 241/193/44 242/60/44
f 238/193/45 235/192/45 240/192/45 241/193/45
f 240/192/41 239/59/41 244/194/41 243/196/41
f 239/59/41 242/60/41 245/195/41 244/194/41
f 242/60/41 241/193/41 246/197/41 245/195/41
f 241/193/41 240/192/41 243/196/41 246/197/41
f 248/196/41 247/194/41 250/195/41 249/197/41
f 243/196/46 244/194/46 247/194/46 248/196/46
f 245/195/47 246/197/47 249/197/47 250/195/47
f 246/197/48 243/196/48 248/196/48 249/197/48
f 90/198/4 92/199/4 47/38/4 24/95/4 19/94/4 40/102/4 255/200/4 256/201/4
f 251/14/4 257/202/4 255/200/4 40/102/4
f 26/91/4 30/90/4 43/83/4 89/120/4 88/203/4 253/204/4 254/205/4 41/11/4
f 260/206/8 261/207/8 270/207/8 268/206/8
f 263/208/2 264/209/2 272/209/2 271/208/2
f 253/210/4 88/121/4 252/54/4 258/53/4
f 258/53/4 256/56/4 260/206/4 259/211/4
f 256/56/4 255/200/4 261/207/4 260/206/4
f 255/200/4 257/202/4 262/212/4 261/207/4
f 257/202/4 258/53/4 259/211/4 262/212/4
f 253/210/4 258/53/4 264/209/4 263/208/4
f 258/53/4 257/13/4 265/213/4 264/209/4
f 257/13/4 254/12/4 266/214/4 265/213/4
f 254/12/4 253/210/4 263/208/4 266/214/4
f 265/213/6 266/214/6 273/214/6 274/213/6
f 259/211/2 260/206/2 268/206/2 267/211/2
f 266/214/5 263/208/5 271/208/5 273/214/5
f 261/207/6 262/212/6 269/212/6 270/207/6
f 262/212/5 259/211/5 267/211/5 269/212/5
f 264/209/8 265/213/8 274/213/8 272/209/8
usemtl Noir_Profond
f 196/160/37 197/161/37 230/161/37 227/160/37
f 178/162/5 175/163/5 207/163/5 209/162/5
f 198/164/38 195/165/38 228/165/38 229/164/38
f 189/166/37 190/167/37 221/167/37 222/166/37
f 175/163/38 176/168/38 208/168/38 207/163/38
f 195/165/8 196/160/8 227/160/8 228/165/8
f 188/169/8 189/166/8 222/166/8 220/169/8
f 190/167/5 187/170/5 219/170/5 221/167/5
f 139/139/39 140/137/39 172/171/39 171/172/39
f 140/137/39 142/130/39 173/173/39 172/171/39
f 142/130/39 141/131/39 174/174/39 173/173/39
f 141/131/39 139/139/39 171/172/39 174/174/39
f 143/141/39 144/140/39 176/168/39 175/163/39
f 144/140/39 146/142/39 177/175/39 176/168/39
f 146/142/39 145/143/39 178/162/39 177/175/39
f 145/143/39 143/141/39 175/163/39 178/162/39
f 147/134/39 148/135/39 180/176/39 179/177/39
f 148/135/39 150/144/39 181/178/39 180/176/39
f 150/144/39 149/145/39 182/179/39 181/178/39
f 149/145/39 147/134/39 179/177/39 182/179/39
f 151/147/39 152/146/39 184/180/39 183/181/39
f 152/146/39 154/148/39 185/182/39 184/180/39
f 154/148/39 153/149/39 186/183/39 185/182/39
f 153/149/39 151/147/39 183/181/39 186/183/39
f 155/151/39 156/150/39 188/169/39 187/170/39
f 156/150/39 158/152/39 189/166/39 188/169/39
f 158/152/39 157/153/39 190/167/39 189/166/39
f 157/153/39 155/151/39 187/170/39 190/167/39
f 159/154/39 160/138/39 192/184/39 191/185/39
f 160/138/39 162/132/39 193/186/39 192/184/39
f 162/132/39 161/133/39 194/187/39 193/186/39
f 161/133/39 159/154/39 191/185/39 194/187/39
f 164/156/39 163/155/39 196/160/39 195/165/39
f 163/155/39 166/157/39 197/161/39 196/160/39
f 166/157/39 165/158/39 198/164/39 197/161/39
f 165/158/39 164/156/39 195/165/39 198/164/39
f 167/52/39 168/136/39 200/188/39 199/189/39
f 168/136/39 170/159/39 201/190/39 200/188/39
f 170/159/39 169/51/39 202/191/39 201/190/39
f 169/51/39 167/52/39 199/189/39 202/191/39
f 176/168/8 177/175/8 210/175/8 208/168/8
f 183/181/38 184/180/38 216/180/38 215/181/38
f 197/161/5 198/164/5 229/164/5 230/161/5
f 177/175/37 178/162/37 209/162/37 210/175/37
f 186/183/5 183/181/5 215/181/5 217/183/5
f 184/180/8 185/182/8 218/182/8 216/180/8
f 191/185/38 192/184/38 224/184/38 223/185/38
f 171/172/38 172/171/38 204/171/38 203/172/38
f 185/182/37 186/183/37 217/183/37 218/182/37
f 194/187/5 191/185/5 223/185/5 225/187/5
f 174/174/5 171/172/5 203/172/5 205/174/5
f 192/184/8 193/186/8 226/186/8 224/184/8
f 172/171/8 173/173/8 206/173/8 204/171/8
f 199/189/40 200/188/40 232/188/40 231/189/40
f 179/177/38 180/176/38 212/176/38 211/177/38
f 193/186/37 194/187/37 225/187/37 226/186/37
f 173/173/37 174/174/37 205/174/37 206/173/37
f 202/191/5 199/189/5 231/189/5 233/191/5
f 182/179/5 179/177/5 211/177/5 213/179/5
f 200/188/8 201/190/8 234/190/8 232/188/8
f 180/176/8 181/178/8 214/178/8 212/176/8
f 187/170/38 188/169/38 220/169/38 219/170/38
f 201/190/37 202/191/37 233/191/37 234/190/37
f 181/178/37 182/179/37 213/179/37 214/178/37
usemtl Bleu_Neon
f 203/172/39 204/171/39 206/173/39 205/174/39
f 207/163/39 208/168/39 210/175/39 209/162/39
f 211/177/39 212/176/39 214/178/39 213/179/39
f 215/181/39 216/180/39 218/182/39 217/183/39
f 219/170/39 220/169/39 222/166/39 221/167/39
f 223/185/39 224/184/39 226/186/39 225/187/39
f 228/165/39 227/160/39 230/161/39 229/164/39
f 231/189/39 232/188/39 234/190/39 233/191/39
f 267/211/4 268/206/4 270/207/4 269/212/4
f 271/208/4 272/209/4 274/213/4 273/214/4
