# Blender 4.2.3 LTS
# www.blender.org
mtllib SM_Double_Block.mtl
o SM_Double_Block
v 0.500000 0.176271 -0.400000
v 0.500000 0.523729 -0.400000
v -0.500000 0.176271 0.400000
v -0.500000 0.523729 0.400000
v -0.333333 0.523729 0.600000
v -0.333333 0.176271 0.600000
v 0.333333 0.523729 -0.600000
v 0.333333 0.176271 -0.600000
v 0.333333 0.477308 -0.548708
v 0.333333 0.222692 -0.548708
v -0.333333 0.477308 0.548708
v -0.333333 0.222692 0.548708
v -0.448708 0.222692 0.400000
v -0.448708 0.477308 0.400000
v 0.448708 0.222692 -0.400000
v 0.448708 0.477308 -0.400000
v -0.500000 0.036376 0.563624
v -0.463624 0.000000 0.563624
v -0.463624 0.036376 0.600000
v -0.463624 0.663624 0.600000
v -0.463624 0.700000 0.563624
v -0.500000 0.663624 0.563624
v -0.461053 0.036376 -0.600000
v -0.463624 0.000000 -0.563624
v -0.500000 0.036376 -0.561053
v -0.500000 0.663624 -0.561053
v -0.463624 0.700000 -0.563624
v -0.461053 0.663624 -0.600000
v 0.461053 0.036376 0.600000
v 0.463624 0.000000 0.563624
v 0.500000 0.036376 0.561053
v 0.500000 0.663624 0.561053
v 0.463624 0.700000 0.563624
v 0.461053 0.663624 0.600000
v 0.500000 0.036376 -0.563624
v 0.463624 0.000000 -0.563624
v 0.463624 0.036376 -0.600000
v 0.463624 0.663624 -0.600000
v 0.463624 0.700000 -0.563624
v 0.500000 0.663624 -0.563624
v -0.500000 0.036376 0.400000
v -0.463624 0.000000 0.400000
v -0.463624 0.700000 0.400000
v -0.500000 0.663624 0.400000
v 0.500000 0.036376 -0.400000
v 0.463624 0.000000 -0.400000
v 0.463624 0.700000 -0.400000
v 0.500000 0.663624 -0.400000
v 0.333333 0.000000 -0.563624
v 0.333333 0.036376 -0.600000
v 0.333333 0.663624 -0.600000
v 0.333333 0.700000 -0.563624
v -0.333333 0.000000 0.563624
v -0.333333 0.036376 0.600000
v -0.333333 0.663624 0.600000
v -0.333333 0.700000 0.563624
v -0.500000 0.176271 0.563624
v -0.463624 0.176271 0.600000
v -0.463624 0.523729 0.600000
v -0.500000 0.523729 0.563624
v -0.500000 0.176271 -0.560950
v -0.460950 0.176271 -0.600000
v -0.460950 0.523729 -0.600000
v -0.500000 0.523729 -0.560950
v 0.500000 0.176271 -0.563624
v 0.463624 0.176271 -0.600000
v 0.463624 0.523729 -0.600000
v 0.500000 0.523729 -0.563624
v 0.460950 0.176271 0.600000
v 0.500000 0.176271 0.560950
v 0.460950 0.523729 0.600000
v 0.500000 0.523729 0.560950
v -0.409582 0.222692 -0.548708
v -0.448708 0.222692 -0.509582
v -0.448708 0.477308 -0.509582
v -0.409582 0.477308 -0.548708
v 0.448708 0.222692 0.509582
v 0.409582 0.222692 0.548708
v 0.448708 0.477308 0.509582
v 0.409582 0.477308 0.548708
v -0.307703 0.700000 -0.425630
v -0.358963 0.700000 -0.425630
v -0.333333 0.700000 -0.374370
v 0.333333 0.700000 -0.425630
v 0.333333 0.700000 -0.374370
v 0.358963 0.700000 -0.400000
v -0.333333 0.700000 0.425630
v -0.333333 0.700000 0.374370
v -0.358963 0.700000 0.400000
v 0.307703 0.700000 0.425630
v 0.358963 0.700000 0.425630
v 0.333333 0.700000 0.374370
v 0.333333 0.000000 -0.374370
v 0.333333 0.000000 -0.425630
v 0.358963 0.000000 -0.400000
v -0.307703 0.000000 -0.425630
v -0.333333 0.000000 -0.374370
v -0.358963 0.000000 -0.425630
v 0.307703 0.000000 0.425630
v 0.333333 0.000000 0.374370
v 0.358963 0.000000 0.425630
v -0.333333 0.000000 0.374370
v -0.333333 0.000000 0.425630
v -0.358963 0.000000 0.400000
v 0.500000 0.523729 0.374370
v 0.500000 0.523729 0.425630
v 0.500000 0.176271 0.425630
v 0.500000 0.176271 0.374370
v -0.500000 0.523729 -0.374370
v -0.500000 0.523729 -0.425630
v -0.500000 0.176271 -0.425630
v -0.500000 0.176271 -0.374370
v 0.307703 0.176271 0.600000
v 0.358963 0.176271 0.600000
v 0.358963 0.523729 0.600000
v 0.307703 0.523729 0.600000
v -0.307703 0.176271 -0.600000
v -0.358963 0.176271 -0.600000
v -0.358963 0.523729 -0.600000
v -0.307703 0.523729 -0.600000
v -0.307703 0.222692 -0.548708
v -0.358963 0.222692 -0.548708
v -0.307703 0.477308 -0.548708
v -0.358963 0.477308 -0.548708
v 0.307703 0.222692 0.548708
v 0.358963 0.222692 0.548708
v 0.358963 0.477308 0.548708
v 0.307703 0.477308 0.548708
v -0.448708 0.477308 -0.374370
v -0.448708 0.477308 -0.425630
v -0.448708 0.222692 -0.425630
v -0.448708 0.222692 -0.374370
v 0.448708 0.477308 0.374370
v 0.448708 0.477308 0.425630
v 0.448708 0.222692 0.374370
v 0.448708 0.222692 0.425630
v -0.463624 0.000000 -0.425630
v -0.463624 0.000000 -0.374370
v -0.500000 0.036376 -0.374370
v -0.500000 0.036376 -0.425630
v -0.500000 0.663624 -0.425630
v -0.500000 0.663624 -0.374370
v -0.463624 0.700000 -0.374370
v -0.463624 0.700000 -0.425630
v 0.463624 0.000000 0.425630
v 0.463624 0.000000 0.374370
v 0.500000 0.036376 0.374370
v 0.500000 0.036376 0.425630
v 0.500000 0.663624 0.425630
v 0.500000 0.663624 0.374370
v 0.463624 0.700000 0.374370
v 0.463624 0.700000 0.425630
v -0.358963 0.036376 -0.600000
v -0.307703 0.036376 -0.600000
v -0.307703 0.000000 -0.563624
v -0.358963 0.000000 -0.563624
v -0.358963 0.700000 -0.563624
v -0.307703 0.700000 -0.563624
v -0.307703 0.663624 -0.600000
v -0.358963 0.663624 -0.600000
v 0.358963 0.036376 0.600000
v 0.307703 0.036376 0.600000
v 0.307703 0.000000 0.563624
v 0.358963 0.000000 0.563624
v 0.358963 0.700000 0.563624
v 0.307703 0.700000 0.563624
v 0.307703 0.663624 0.600000
v 0.358963 0.663624 0.600000
v -0.333333 0.724931 -0.374370
v -0.307703 0.724931 -0.425630
v -0.358963 0.724931 -0.425630
v 0.138904 0.724931 -0.425630
v 0.138904 0.724931 -0.374370
v -0.138904 0.724931 0.425630
v -0.138904 0.724931 0.374370
v 0.333333 0.724931 0.374370
v 0.307703 0.724931 0.425630
v 0.358963 0.724931 0.425630
v 0.138904 -0.024931 -0.374370
v 0.138904 -0.024931 -0.425630
v -0.358963 -0.024931 -0.425630
v -0.307703 -0.024931 -0.425630
v -0.333333 -0.024931 -0.374370
v 0.358963 -0.024931 0.425630
v 0.307703 -0.024931 0.425630
v 0.333333 -0.024931 0.374370
v -0.138904 -0.024931 0.374370
v -0.138904 -0.024931 0.425630
v 0.524931 0.187333 0.425630
v 0.524931 0.187333 0.374370
v 0.473638 0.233754 0.374370
v 0.473638 0.233754 0.425630
v -0.307703 0.466247 -0.573638
v -0.358963 0.466247 -0.573638
v -0.358963 0.512667 -0.624931
v -0.307703 0.512667 -0.624931
v -0.307703 0.233754 -0.573638
v -0.358963 0.233754 -0.573638
v 0.307703 0.233754 0.573638
v 0.358963 0.233754 0.573638
v 0.358963 0.466247 0.573638
v 0.307703 0.466247 0.573638
v -0.473638 0.466247 -0.374370
v -0.473638 0.466247 -0.425630
v -0.473638 0.233754 -0.425630
v -0.473638 0.233754 -0.374370
v 0.473638 0.466247 0.374370
v 0.473638 0.466247 0.425630
v -0.524931 0.187333 -0.425630
v -0.524931 0.187333 -0.374370
v 0.307703 0.187333 0.624931
v 0.358963 0.187333 0.624931
v -0.307703 0.187333 -0.624931
v -0.358963 0.187333 -0.624931
v -0.524931 0.512667 -0.374370
v -0.524931 0.512667 -0.425630
v 0.358963 0.512667 0.624931
v 0.307703 0.512667 0.624931
v 0.524931 0.512667 0.374370
v 0.524931 0.512667 0.425630
v -0.524931 0.673951 -0.425630
v -0.524931 0.673951 -0.374370
v -0.473951 0.724931 -0.374370
v -0.473951 0.724931 -0.425630
v -0.358963 0.026049 -0.624931
v -0.307703 0.026049 -0.624931
v -0.307703 -0.024931 -0.573951
v -0.358963 -0.024931 -0.573951
v 0.524931 0.673951 0.425630
v 0.524931 0.673951 0.374370
v 0.473951 0.724931 0.374370
v 0.473951 0.724931 0.425630
v 0.358963 0.026049 0.624931
v 0.307703 0.026049 0.624931
v 0.307703 -0.024931 0.573951
v 0.358963 -0.024931 0.573951
v -0.473951 -0.024931 -0.425630
v -0.473951 -0.024931 -0.374370
v -0.524931 0.026049 -0.374370
v -0.524931 0.026049 -0.425630
v 0.473951 -0.024931 0.425630
v 0.473951 -0.024931 0.374370
v 0.524931 0.026049 0.374370
v 0.524931 0.026049 0.425630
v -0.358963 0.724931 -0.573951
v -0.307703 0.724931 -0.573951
v -0.307703 0.673951 -0.624931
v -0.358963 0.673951 -0.624931
v 0.358963 0.724931 0.573951
v 0.307703 0.724931 0.573951
v 0.307703 0.673951 0.624931
v 0.358963 0.673951 0.624931
v -0.440901 0.233732 -0.517389
v -0.440901 0.466268 -0.517389
v -0.417389 0.466268 -0.540901
v -0.417389 0.233732 -0.540901
v 0.440901 0.233732 0.517389
v 0.440901 0.466268 0.517389
v 0.417389 0.466268 0.540901
v 0.417389 0.233732 0.540901
v -0.435943 0.233732 -0.512430
v -0.435943 0.466268 -0.512430
v -0.412430 0.233732 -0.535943
v -0.412430 0.466268 -0.535943
v 0.435943 0.233732 0.512430
v 0.435943 0.466268 0.512430
v 0.412430 0.233732 0.535943
v 0.412430 0.466268 0.535943
v -0.448708 0.382383 0.365980
v -0.448708 0.382383 -0.340350
v -0.448708 0.317617 -0.340350
v -0.448708 0.317617 0.365980
v 0.273683 0.382383 0.548708
v -0.299313 0.382383 0.548708
v -0.299313 0.317617 0.548708
v 0.273683 0.317617 0.548708
v -0.273683 0.382383 -0.548708
v 0.299313 0.382383 -0.548708
v 0.299313 0.317617 -0.548708
v -0.273683 0.317617 -0.548708
v 0.448708 0.382383 -0.365980
v 0.448708 0.382383 0.340350
v 0.448708 0.317617 0.340350
v 0.448708 0.317617 -0.365980
v -0.441424 0.382383 -0.340350
v -0.441424 0.382383 0.365980
v -0.441424 0.317617 0.365980
v -0.441424 0.317617 -0.340350
v -0.299313 0.382383 0.541425
v 0.273683 0.382383 0.541425
v 0.273683 0.317617 0.541425
v -0.299313 0.317617 0.541425
v 0.299313 0.382383 -0.541425
v -0.273683 0.382383 -0.541425
v -0.273683 0.317617 -0.541425
v 0.299313 0.317617 -0.541425
v 0.441424 0.382383 0.340350
v 0.441424 0.382383 -0.365980
v 0.441424 0.317617 -0.365980
v 0.441424 0.317617 0.340350
v -0.441424 0.367529 0.351126
v -0.441424 0.367529 -0.325496
v -0.441424 0.332471 -0.325496
v -0.441424 0.332471 0.351126
v 0.258829 0.367529 0.541425
v -0.284459 0.367529 0.541425
v -0.284459 0.332471 0.541425
v 0.258829 0.332471 0.541425
v -0.258829 0.367529 -0.541425
v 0.284459 0.367529 -0.541425
v 0.284459 0.332471 -0.541425
v -0.258829 0.332471 -0.541425
v 0.441424 0.367529 -0.351126
v 0.441424 0.367529 0.325496
v 0.441424 0.332471 0.325496
v 0.441424 0.332471 -0.351126
v -0.437089 0.367529 -0.325496
v -0.437089 0.367529 0.351126
v -0.437089 0.332471 0.351126
v -0.437089 0.332471 -0.325496
v -0.284459 0.367529 0.537089
v 0.258829 0.367529 0.537089
v 0.258829 0.332471 0.537089
v -0.284459 0.332471 0.537089
v 0.284459 0.367529 -0.537089
v -0.258829 0.367529 -0.537089
v -0.258829 0.332471 -0.537089
v 0.284459 0.332471 -0.537089
v 0.437089 0.367529 0.325496
v 0.437089 0.367529 -0.351126
v 0.437089 0.332471 -0.351126
v 0.437089 0.332471 0.325496
v 0.500000 0.926271 -0.400000
v 0.500000 1.273729 -0.400000
v -0.500000 0.926271 0.400000
v -0.500000 1.273729 0.400000
v -0.333333 1.273729 0.600000
v -0.333333 0.926271 0.600000
v 0.333333 1.273729 -0.600000
v 0.333333 0.926271 -0.600000
v 0.333333 1.227308 -0.548708
v 0.333333 0.972692 -0.548708
v -0.333333 1.227308 0.548708
v -0.333333 0.972692 0.548708
v -0.448708 0.972692 0.400000
v -0.448708 1.227308 0.400000
v 0.448708 0.972692 -0.400000
v 0.448708 1.227308 -0.400000
v -0.500000 0.786376 0.563624
v -0.463624 0.750000 0.563624
v -0.463624 0.786376 0.600000
v -0.463624 1.413624 0.600000
v -0.463624 1.450000 0.563624
v -0.500000 1.413624 0.563624
v -0.461053 0.786376 -0.600000
v -0.463624 0.750000 -0.563624
v -0.500000 0.786376 -0.561053
v -0.500000 1.413624 -0.561053
v -0.463624 1.450000 -0.563624
v -0.461053 1.413624 -0.600000
v 0.461053 0.786376 0.600000
v 0.463624 0.750000 0.563624
v 0.500000 0.786376 0.561053
v 0.500000 1.413624 0.561053
v 0.463624 1.450000 0.563624
v 0.461053 1.413624 0.600000
v 0.500000 0.786376 -0.563624
v 0.463624 0.750000 -0.563624
v 0.463624 0.786376 -0.600000
v 0.463624 1.413624 -0.600000
v 0.463624 1.450000 -0.563624
v 0.500000 1.413624 -0.563624
v -0.500000 0.786376 0.400000
v -0.463624 0.750000 0.400000
v -0.463624 1.450000 0.400000
v -0.500000 1.413624 0.400000
v 0.500000 0.786376 -0.400000
v 0.463624 0.750000 -0.400000
v 0.463624 1.450000 -0.400000
v 0.500000 1.413624 -0.400000
v 0.333333 0.750000 -0.563624
v 0.333333 0.786376 -0.600000
v 0.333333 1.413624 -0.600000
v 0.333333 1.450000 -0.563624
v -0.333333 0.750000 0.563624
v -0.333333 0.786376 0.600000
v -0.333333 1.413624 0.600000
v -0.333333 1.450000 0.563624
v -0.500000 0.926271 0.563624
v -0.463624 0.926271 0.600000
v -0.463624 1.273729 0.600000
v -0.500000 1.273729 0.563624
v -0.500000 0.926271 -0.560950
v -0.460950 0.926271 -0.600000
v -0.460950 1.273729 -0.600000
v -0.500000 1.273729 -0.560950
v 0.500000 0.926271 -0.563624
v 0.463624 0.926271 -0.600000
v 0.463624 1.273729 -0.600000
v 0.500000 1.273729 -0.563624
v 0.460950 0.926271 0.600000
v 0.500000 0.926271 0.560950
v 0.460950 1.273729 0.600000
v 0.500000 1.273729 0.560950
v -0.409582 0.972692 -0.548708
v -0.448708 0.972692 -0.509582
v -0.448708 1.227308 -0.509582
v -0.409582 1.227308 -0.548708
v 0.448708 0.972692 0.509582
v 0.409582 0.972692 0.548708
v 0.448708 1.227308 0.509582
v 0.409582 1.227308 0.548708
v -0.307703 1.450000 -0.425630
v -0.358963 1.450000 -0.425630
v -0.333333 1.450000 -0.374370
v 0.333333 1.450000 -0.425630
v 0.333333 1.450000 -0.374370
v 0.358963 1.450000 -0.400000
v -0.333333 1.450000 0.425630
v -0.333333 1.450000 0.374370
v -0.358963 1.450000 0.400000
v 0.307703 1.450000 0.425630
v 0.358963 1.450000 0.425630
v 0.333333 1.450000 0.374370
v 0.333333 0.750000 -0.374370
v 0.333333 0.750000 -0.425630
v 0.358963 0.750000 -0.400000
v -0.307703 0.750000 -0.425630
v -0.333333 0.750000 -0.374370
v -0.358963 0.750000 -0.425630
v 0.307703 0.750000 0.425630
v 0.333333 0.750000 0.374370
v 0.358963 0.750000 0.425630
v -0.333333 0.750000 0.374370
v -0.333333 0.750000 0.425630
v -0.358963 0.750000 0.400000
v 0.500000 1.273729 0.374370
v 0.500000 1.273729 0.425630
v 0.500000 0.926271 0.425630
v 0.500000 0.926271 0.374370
v -0.500000 1.273729 -0.374370
v -0.500000 1.273729 -0.425630
v -0.500000 0.926271 -0.425630
v -0.500000 0.926271 -0.374370
v 0.307703 0.926271 0.600000
v 0.358963 0.926271 0.600000
v 0.358963 1.273729 0.600000
v 0.307703 1.273729 0.600000
v -0.307703 0.926271 -0.600000
v -0.358963 0.926271 -0.600000
v -0.358963 1.273729 -0.600000
v -0.307703 1.273729 -0.600000
v -0.307703 0.972692 -0.548708
v -0.358963 0.972692 -0.548708
v -0.307703 1.227308 -0.548708
v -0.358963 1.227308 -0.548708
v 0.307703 0.972692 0.548708
v 0.358963 0.972692 0.548708
v 0.358963 1.227308 0.548708
v 0.307703 1.227308 0.548708
v -0.448708 1.227308 -0.374370
v -0.448708 1.227308 -0.425630
v -0.448708 0.972692 -0.425630
v -0.448708 0.972692 -0.374370
v 0.448708 1.227308 0.374370
v 0.448708 1.227308 0.425630
v 0.448708 0.972692 0.374370
v 0.448708 0.972692 0.425630
v -0.463624 0.750000 -0.425630
v -0.463624 0.750000 -0.374370
v -0.500000 0.786376 -0.374370
v -0.500000 0.786376 -0.425630
v -0.500000 1.413624 -0.425630
v -0.500000 1.413624 -0.374370
v -0.463624 1.450000 -0.374370
v -0.463624 1.450000 -0.425630
v 0.463624 0.750000 0.425630
v 0.463624 0.750000 0.374370
v 0.500000 0.786376 0.374370
v 0.500000 0.786376 0.425630
v 0.500000 1.413624 0.425630
v 0.500000 1.413624 0.374370
v 0.463624 1.450000 0.374370
v 0.463624 1.450000 0.425630
v -0.358963 0.786376 -0.600000
v -0.307703 0.786376 -0.600000
v -0.307703 0.750000 -0.563624
v -0.358963 0.750000 -0.563624
v -0.358963 1.450000 -0.563624
v -0.307703 1.450000 -0.563624
v -0.307703 1.413624 -0.600000
v -0.358963 1.413624 -0.600000
v 0.358963 0.786376 0.600000
v 0.307703 0.786376 0.600000
v 0.307703 0.750000 0.563624
v 0.358963 0.750000 0.563624
v 0.358963 1.450000 0.563624
v 0.307703 1.450000 0.563624
v 0.307703 1.413624 0.600000
v 0.358963 1.413624 0.600000
v -0.333333 1.474931 -0.374370
v -0.307703 1.474931 -0.425630
v -0.358963 1.474931 -0.425630
v 0.138904 1.474931 -0.425630
v 0.138904 1.474931 -0.374370
v -0.138904 1.474931 0.425630
v -0.138904 1.474931 0.374370
v 0.333333 1.474931 0.374370
v 0.307703 1.474931 0.425630
v 0.358963 1.474931 0.425630
v 0.138904 0.725069 -0.374370
v 0.138904 0.725069 -0.425630
v -0.358963 0.725069 -0.425630
v -0.307703 0.725069 -0.425630
v -0.333333 0.725069 -0.374370
v 0.358963 0.725069 0.425630
v 0.307703 0.725069 0.425630
v 0.333333 0.725069 0.374370
v -0.138904 0.725069 0.374370
v -0.138904 0.725069 0.425630
v 0.524931 0.937333 0.425630
v 0.524931 0.937333 0.374370
v 0.473638 0.983754 0.374370
v 0.473638 0.983754 0.425630
v -0.307703 1.216247 -0.573638
v -0.358963 1.216247 -0.573638
v -0.358963 1.262667 -0.624931
v -0.307703 1.262667 -0.624931
v -0.307703 0.983754 -0.573638
v -0.358963 0.983754 -0.573638
v 0.307703 0.983754 0.573638
v 0.358963 0.983754 0.573638
v 0.358963 1.216247 0.573638
v 0.307703 1.216247 0.573638
v -0.473638 1.216247 -0.374370
v -0.473638 1.216247 -0.425630
v -0.473638 0.983754 -0.425630
v -0.473638 0.983754 -0.374370
v 0.473638 1.216247 0.374370
v 0.473638 1.216247 0.425630
v -0.524931 0.937333 -0.425630
v -0.524931 0.937333 -0.374370
v 0.307703 0.937333 0.624931
v 0.358963 0.937333 0.624931
v -0.307703 0.937333 -0.624931
v -0.358963 0.937333 -0.624931
v -0.524931 1.262667 -0.374370
v -0.524931 1.262667 -0.425630
v 0.358963 1.262667 0.624931
v 0.307703 1.262667 0.624931
v 0.524931 1.262667 0.374370
v 0.524931 1.262667 0.425630
v -0.524931 1.423951 -0.425630
v -0.524931 1.423951 -0.374370
v -0.473951 1.474931 -0.374370
v -0.473951 1.474931 -0.425630
v -0.358963 0.776049 -0.624931
v -0.307703 0.776049 -0.624931
v -0.307703 0.725069 -0.573951
v -0.358963 0.725069 -0.573951
v 0.524931 1.423951 0.425630
v 0.524931 1.423951 0.374370
v 0.473951 1.474931 0.374370
v 0.473951 1.474931 0.425630
v 0.358963 0.776049 0.624931
v 0.307703 0.776049 0.624931
v 0.307703 0.725069 0.573951
v 0.358963 0.725069 0.573951
v -0.473951 0.725069 -0.425630
v -0.473951 0.725069 -0.374370
v -0.524931 0.776049 -0.374370
v -0.524931 0.776049 -0.425630
v 0.473951 0.725069 0.425630
v 0.473951 0.725069 0.374370
v 0.524931 0.776049 0.374370
v 0.524931 0.776049 0.425630
v -0.358963 1.474931 -0.573951
v -0.307703 1.474931 -0.573951
v -0.307703 1.423951 -0.624931
v -0.358963 1.423951 -0.624931
v 0.358963 1.474931 0.573951
v 0.307703 1.474931 0.573951
v 0.307703 1.423951 0.624931
v 0.358963 1.423951 0.624931
v -0.440901 0.983732 -0.517389
v -0.440901 1.216268 -0.517389
v -0.417389 1.216268 -0.540901
v -0.417389 0.983732 -0.540901
v 0.440901 0.983732 0.517389
v 0.440901 1.216268 0.517389
v 0.417389 1.216268 0.540901
v 0.417389 0.983732 0.540901
v -0.435943 0.983732 -0.512430
v -0.435943 1.216268 -0.512430
v -0.412430 0.983732 -0.535943
v -0.412430 1.216268 -0.535943
v 0.435943 0.983732 0.512430
v 0.435943 1.216268 0.512430
v 0.412430 0.983732 0.535943
v 0.412430 1.216268 0.535943
v -0.448708 1.132383 0.365980
v -0.448708 1.132383 -0.340350
v -0.448708 1.067617 -0.340350
v -0.448708 1.067617 0.365980
v 0.273683 1.132383 0.548708
v -0.299313 1.132383 0.548708
v -0.299313 1.067617 0.548708
v 0.273683 1.067617 0.548708
v -0.273683 1.132383 -0.548708
v 0.299313 1.132383 -0.548708
v 0.299313 1.067617 -0.548708
v -0.273683 1.067617 -0.548708
v 0.448708 1.132383 -0.365980
v 0.448708 1.132383 0.340350
v 0.448708 1.067617 0.340350
v 0.448708 1.067617 -0.365980
v -0.441424 1.132383 -0.340350
v -0.441424 1.132383 0.365980
v -0.441424 1.067617 0.365980
v -0.441424 1.067617 -0.340350
v -0.299313 1.132383 0.541425
v 0.273683 1.132383 0.541425
v 0.273683 1.067617 0.541425
v -0.299313 1.067617 0.541425
v 0.299313 1.132383 -0.541425
v -0.273683 1.132383 -0.541425
v -0.273683 1.067617 -0.541425
v 0.299313 1.067617 -0.541425
v 0.441424 1.132383 0.340350
v 0.441424 1.132383 -0.365980
v 0.441424 1.067617 -0.365980
v 0.441424 1.067617 0.340350
v -0.441424 1.117529 0.351126
v -0.441424 1.117529 -0.325496
v -0.441424 1.082471 -0.325496
v -0.441424 1.082471 0.351126
v 0.258829 1.117529 0.541425
v -0.284459 1.117529 0.541425
v -0.284459 1.082471 0.541425
v 0.258829 1.082471 0.541425
v -0.258829 1.117529 -0.541425
v 0.284459 1.117529 -0.541425
v 0.284459 1.082471 -0.541425
v -0.258829 1.082471 -0.541425
v 0.441424 1.117529 -0.351126
v 0.441424 1.117529 0.325496
v 0.441424 1.082471 0.325496
v 0.441424 1.082471 -0.351126
v -0.437089 1.117529 -0.325496
v -0.437089 1.117529 0.351126
v -0.437089 1.082471 0.351126
v -0.437089 1.082471 -0.325496
v -0.284459 1.117529 0.537089
v 0.258829 1.117529 0.537089
v 0.258829 1.082471 0.537089
v -0.284459 1.082471 0.537089
v 0.284459 1.117529 -0.537089
v -0.258829 1.117529 -0.537089
v -0.258829 1.082471 -0.537089
v 0.284459 1.082471 -0.537089
v 0.437089 1.117529 0.325496
v 0.437089 1.117529 -0.351126
v 0.437089 1.082471 -0.351126
v 0.437089 1.082471 0.325496
vn -0.0000 -0.0000 -1.0000
vn 1.0000 -0.0000 -0.0000
vn 0.6710 0.7414 -0.0000
vn -1.0000 -0.0000 -0.0000
vn -0.6710 -0.7414 -0.0000
vn -0.0000 -1.0000 -0.0000
vn -0.6710 0.7414 -0.0000
vn -0.0000 -0.0000 1.0000
vn -0.0000 0.7414 -0.6710
vn -0.0000 0.7414 0.6710
vn -0.0000 -0.7414 -0.6710
vn -0.0000 1.0000 -0.0000
vn -0.0000 -0.7414 0.6710
vn 0.6710 -0.7414 -0.0000
vn -0.7071 -0.7071 -0.0000
vn -0.5774 -0.5773 0.5773
vn -0.5774 0.5773 0.5773
vn -0.5909 -0.5492 -0.5909
vn -0.5909 0.5492 -0.5909
vn 0.5909 -0.5492 0.5909
vn 0.5909 0.5492 0.5909
vn 0.5774 -0.5773 -0.5773
vn 0.5774 0.5773 -0.5773
vn 0.7071 -0.7071 -0.0000
vn -0.0000 0.7071 -0.7071
vn -0.0000 -0.7071 -0.7071
vn -0.0000 0.7071 0.7071
vn -0.7071 0.7071 -0.0000
vn 0.7071 0.7071 -0.0000
vn -0.0000 -0.7071 0.7071
vn 0.3809 0.8425 0.3809
vn -0.7071 -0.0000 0.7071
vn 0.7071 -0.0000 -0.7071
vn -0.7071 0.0005 -0.7071
vn -0.7071 -0.0005 -0.7071
vn 0.7071 0.0005 0.7071
vn 0.7071 -0.0005 0.7071
vn -0.3809 -0.8425 -0.3809
vn 0.3809 -0.8425 0.3809
vn -0.3809 0.8425 -0.3809
vn 0.1272 -0.9919 -0.0000
vn -0.1272 0.9919 -0.0000
vn -0.1272 -0.9919 -0.0000
vn 0.1272 0.9919 -0.0000
vn -0.7071 -0.0000 -0.7071
vn 0.7071 -0.0000 0.7071
vn -0.5774 -0.5774 0.5774
vn -0.5774 0.5773 0.5774
vn 0.5774 -0.5774 -0.5774
vn 0.5774 0.5773 -0.5774
vt 0.562046 0.416667
vt 0.612009 0.416667
vt 0.612009 0.481812
vt 0.562046 0.481812
vt 0.562046 0.583333
vt 0.612009 0.583333
vt 0.612009 0.663997
vt 0.562046 0.663997
vt 0.437954 0.733729
vt 0.437954 0.677346
vt 0.437954 0.681029
vt 0.437954 0.728075
vt 0.562046 0.083333
vt 0.612009 0.083333
vt 0.612009 0.163997
vt 0.562046 0.163997
vt 0.562046 0.163997
vt 0.562046 0.015157
vt 0.612009 0.015157
vt 0.562046 0.336537
vt 0.612009 0.336537
vt 0.143188 0.586003
vt 0.208333 0.586003
vt 0.208333 0.663997
vt 0.195518 0.666667
vt 0.143188 0.666667
vt 0.387991 0.416667
vt 0.437954 0.416667
vt 0.437954 0.481812
vt 0.387991 0.481812
vt 0.387991 0.677346
vt 0.387991 0.733772
vt 0.291667 0.586003
vt 0.304482 0.583333
vt 0.356812 0.583333
vt 0.356812 0.663997
vt 0.291667 0.663997
vt 0.437954 0.163997
vt 0.437954 0.083333
vt 0.437954 0.163997
vt 0.562046 0.916667
vt 0.612009 0.916667
vt 0.612009 0.981812
vt 0.562046 0.981812
vt 0.437954 0.336537
vt 0.387991 0.177346
vt 0.437954 0.177346
vt 0.437954 0.233729
vt 0.387991 0.233772
vt 0.291667 0.515157
vt 0.356812 0.515157
vt 0.356812 0.583333
vt 0.291667 0.572654
vt 0.437954 0.916667
vt 0.437954 0.836537
vt 0.437954 0.836537
vt 0.562046 0.278260
vt 0.562046 0.314821
vt 0.437954 0.314821
vt 0.437954 0.278260
vt 0.804482 0.515157
vt 0.856812 0.515157
vt 0.856812 0.572654
vt 0.804482 0.572654
vt 0.562046 0.515157
vt 0.612009 0.515157
vt 0.304482 0.677346
vt 0.356812 0.677346
vt 0.356812 0.734843
vt 0.304482 0.734843
vt 0.562046 0.836537
vt 0.612009 0.836537
vt 0.437954 0.981812
vt 0.387991 0.916667
vt 0.387991 0.981812
vt 0.562046 0.836537
vt 0.195518 0.666667
vt 0.208333 0.677346
vt 0.208333 0.734843
vt 0.143188 0.734843
vt 0.291667 0.663997
vt 0.208333 0.663997
vt 0.208333 0.677346
vt 0.288463 0.677346
vt 0.288463 0.734843
vt 0.208333 0.734843
vt 0.708333 0.586003
vt 0.791667 0.586003
vt 0.791667 0.663997
vt 0.708333 0.663997
vt 0.856812 0.586003
vt 0.856812 0.666667
vt 0.804482 0.666667
vt 0.791667 0.663997
vt 0.791667 0.677346
vt 0.804482 0.666667
vt 0.856812 0.734843
vt 0.791667 0.734843
vt 0.211537 0.515157
vt 0.211537 0.572654
vt 0.643188 0.583333
vt 0.695518 0.583333
vt 0.708333 0.663997
vt 0.643188 0.663997
vt 0.643188 0.677346
vt 0.695518 0.677346
vt 0.695518 0.734843
vt 0.643188 0.734843
vt 0.643188 0.515157
vt 0.708333 0.515157
vt 0.708333 0.572654
vt 0.695518 0.583333
vt 0.643188 0.583333
vt 0.711537 0.677346
vt 0.791667 0.734843
vt 0.711537 0.734843
vt 0.562046 0.663997
vt 0.387991 0.515157
vt 0.437954 0.515157
vt 0.437954 0.583333
vt 0.387991 0.583333
vt 0.143188 0.515157
vt 0.195518 0.515157
vt 0.195518 0.572654
vt 0.143188 0.572654
vt 0.387991 0.836537
vt 0.437954 0.320518
vt 0.437954 0.269525
vt 0.437954 0.820518
vt 0.437954 0.769525
vt 0.437954 0.778260
vt 0.437954 0.814821
vt 0.437954 0.177346
vt 0.437954 0.181029
vt 0.437954 0.228075
vt 0.437954 0.663997
vt 0.387991 0.663997
vt 0.387991 0.269474
vt 0.437954 0.269525
vt 0.387991 0.320518
vt 0.387991 0.769474
vt 0.437954 0.769525
vt 0.387991 0.820518
vt 0.562046 0.015157
vt 0.437954 0.015157
vt 0.562046 0.769525
vt 0.612009 0.769474
vt 0.612009 0.820518
vt 0.562046 0.820518
vt 0.562046 0.515157
vt 0.437954 0.515157
vt 0.562046 0.269525
vt 0.562046 0.320518
vt 0.387991 0.336537
vt 0.562046 0.778260
vt 0.562046 0.814821
vt 0.437954 0.814821
vt 0.125000 0.572654
vt 0.125000 0.516228
vt 0.545466 0.340790
vt 0.545466 0.412414
vt 0.562046 0.181029
vt 0.562046 0.228075
vt 0.437954 0.181029
vt 0.562046 0.681029
vt 0.562046 0.728075
vt 0.454534 0.086877
vt 0.545466 0.086877
vt 0.545466 0.840790
vt 0.545466 0.912414
vt 0.562046 0.481812
vt 0.437954 0.481812
vt 0.562046 0.677346
vt 0.612009 0.677346
vt 0.612009 0.733772
vt 0.562046 0.733729
vt 0.562046 0.177346
vt 0.612009 0.177346
vt 0.612009 0.233772
vt 0.562046 0.233729
vt 0.562046 0.269525
vt 0.612009 0.269474
vt 0.612009 0.320518
vt 0.437954 0.663997
vt 0.387991 0.083333
vt 0.387991 0.163997
vt 0.562046 0.177346
vt 0.562046 0.181029
vt 0.545466 0.160453
vt 0.562046 0.769525
vt 0.562046 0.814821
vt 0.125000 0.734843
vt 0.143188 0.750000
vt 0.612009 0.000000
vt 0.625000 0.015157
vt 0.144474 0.500000
vt 0.625000 0.234843
vt 0.612009 0.250000
vt 0.355526 0.750000
vt 0.375000 0.733772
vt 0.612009 0.750000
vt 0.625000 0.768188
vt 0.375000 0.515157
vt 0.356812 0.500000
vt 0.625000 0.481812
vt 0.612009 0.500000
vt 0.125000 0.666667
vt 0.356812 0.677346
vt 0.387991 0.677346
vt 0.625000 0.268188
vt 0.625000 0.320518
vt 0.625000 0.416667
vt 0.211537 0.500000
vt 0.291667 0.500000
vt 0.625000 0.820518
vt 0.625000 0.916667
vt 0.625000 0.981812
vt 0.143188 0.586003
vt 0.125000 0.586003
vt 0.625000 0.083333
vt 0.625000 0.163997
vt 0.612009 0.163997
vt 0.625000 0.177346
vt 0.356812 0.663997
vt 0.643188 0.663997
vt 0.612009 0.663997
vt 0.612009 0.677346
vt 0.195518 0.515157
vt 0.195518 0.500000
vt 0.625000 0.336537
vt 0.612009 0.336537
vt 0.288463 0.750000
vt 0.208333 0.750000
vt 0.304482 0.734843
vt 0.304482 0.750000
vt 0.625000 0.836537
vt 0.612009 0.836537
vt 0.437954 0.000000
vt 0.562046 0.000000
vt 0.437954 0.015157
vt 0.387991 0.015157
vt 0.387991 0.000000
vt 0.443335 0.738088
vt 0.556665 0.738088
vt 0.556665 0.768247
vt 0.708333 0.572654
vt 0.708333 0.594012
vt 0.791667 0.655988
vt 0.291667 0.580663
vt 0.208333 0.669336
vt 0.788463 0.572654
vt 0.788463 0.515157
vt 0.708333 0.515157
vt 0.556665 0.238088
vt 0.443335 0.238088
vt 0.556665 0.268247
vt 0.443334 0.268247
vt 0.443334 0.768247
vt 0.454534 0.160453
vt 0.454534 0.912414
vt 0.454534 0.840790
vt 0.454534 0.412414
vt 0.454534 0.340790
vt 0.545466 0.660453
vt 0.545466 0.586877
vt 0.454534 0.660453
vt 0.454534 0.586877
vt 0.524611 0.342646
vt 0.524611 0.410557
vt 0.475389 0.088424
vt 0.524611 0.088424
vt 0.524611 0.842646
vt 0.524611 0.910558
vt 0.524611 0.158906
vt 0.475389 0.158906
vt 0.475389 0.910557
vt 0.475389 0.842646
vt 0.475389 0.410557
vt 0.475389 0.342646
vt 0.524611 0.658906
vt 0.524611 0.588424
vt 0.475389 0.658906
vt 0.475389 0.588424
s 0
usemtl Noir_Light
f 7/1/1 51/2/1 38/3/1 67/4/1
f 2/5/2 48/6/2 150/7/2 105/8/2
f 70/9/3 107/10/3 136/11/3 77/12/3
f 4/13/4 44/14/4 142/15/4 109/16/4
f 4/13/5 109/17/5 129/16/5 14/13/5
f 60/18/4 22/19/4 44/14/4 4/13/4
f 120/20/1 159/21/1 51/2/1 7/1/1
f 138/22/6 97/23/6 102/24/6 104/25/6 42/26/6
f 50/27/1 8/28/1 66/29/1 37/30/1
f 148/31/2 107/10/2 70/9/2 31/32/2
f 93/33/6 95/34/6 46/35/6 146/36/6 100/37/6
f 112/38/7 3/39/7 13/39/7 132/40/7
f 5/41/8 55/42/8 20/43/8 59/44/8
f 8/28/9 117/45/9 121/45/9 10/28/9
f 140/46/4 111/47/4 61/48/4 25/49/4
f 49/50/6 36/51/6 46/52/6 95/34/6 94/53/6
f 6/54/10 113/55/10 125/56/10 12/54/10
f 76/57/1 124/58/1 122/59/1 73/60/1
f 120/20/11 7/1/11 9/1/11 123/20/11
f 157/61/12 27/62/12 144/63/12 82/64/12
f 68/65/2 40/66/2 48/6/2 2/5/2
f 101/67/6 145/68/6 30/69/6 164/70/6
f 116/71/8 167/72/8 55/42/8 5/41/8
f 5/41/8 59/44/8 58/73/8 6/54/8
f 54/74/8 6/54/8 58/73/8 19/75/8
f 116/76/13 5/41/13 11/41/13 128/71/13
f 42/26/6 104/77/6 103/78/6 53/79/6 18/80/6
f 97/23/6 93/33/6 100/81/6 102/82/6
f 103/83/6 99/84/6 163/85/6 53/86/6
f 85/87/12 83/88/12 88/89/12 92/90/12
f 83/88/12 143/91/12 43/92/12 89/93/12 88/94/12
f 87/95/12 89/96/12 43/92/12 21/97/12 56/98/12
f 155/99/6 49/50/6 94/53/6 96/100/6
f 47/101/12 86/102/12 85/87/12 92/103/12 151/104/12
f 152/105/12 91/106/12 165/107/12 33/108/12
f 39/109/12 52/110/12 84/111/12 86/112/12 47/113/12
f 90/114/12 87/95/12 56/115/12 166/116/12
f 2/5/14 105/117/14 133/8/14 16/5/14
f 35/118/2 65/119/2 1/120/2 45/121/2
f 24/122/6 156/123/6 98/124/6 137/125/6
f 162/126/8 113/56/8 6/54/8 54/74/8
f 118/127/9 62/128/9 73/60/9 122/59/9
f 114/129/10 69/130/10 78/131/10 126/132/10
f 61/48/7 111/133/7 131/134/7 74/135/7
f 7/1/4 8/28/4 10/28/4 9/1/4
f 45/121/2 1/120/2 108/136/2 147/137/2
f 23/138/1 62/139/1 118/127/1 153/140/1
f 5/41/2 6/54/2 12/54/2 11/41/2
f 29/141/8 69/142/8 114/129/8 161/143/8
f 60/144/4 4/13/4 3/39/4 57/145/4
f 71/146/8 34/147/8 168/148/8 115/149/8
f 68/150/2 2/5/2 1/120/2 65/151/2
f 63/152/11 119/153/11 124/58/11 76/57/11
f 154/154/1 117/45/1 8/28/1 50/27/1
f 80/155/8 127/156/8 126/157/8 78/131/8
f 24/122/15 137/125/15 140/158/15 25/159/15
f 277/160/6 278/161/6 293/161/6 294/160/6
f 130/162/4 75/163/4 74/135/4 131/164/4
f 134/165/2 79/166/2 77/12/2 136/11/2
f 272/167/1 269/168/1 286/168/1 287/167/1
f 273/169/6 274/170/6 289/170/6 290/169/6
f 7/1/1 67/171/1 66/172/1 8/28/1
f 106/173/2 149/174/2 32/175/2 72/176/2
f 110/177/4 141/178/4 26/179/4 64/180/4
f 63/181/1 28/182/1 160/183/1 119/153/1
f 108/184/3 1/120/3 15/120/3 135/136/3
f 41/185/4 3/39/4 112/40/4 139/186/4
f 1/120/8 2/5/8 16/5/8 15/120/8
f 3/39/1 4/13/1 14/13/1 13/39/1
f 106/173/14 72/176/14 79/166/14 134/165/14
f 110/187/5 64/180/5 75/163/5 130/188/5
f 269/168/6 270/189/6 285/189/6 286/168/6
f 71/190/13 115/149/13 127/191/13 80/155/13
f 17/192/16 18/80/16 19/193/16
f 20/194/17 21/195/17 22/19/17
f 23/196/18 24/122/18 25/159/18
f 26/179/19 27/197/19 28/198/19
f 29/199/20 30/69/20 31/200/20
f 32/201/21 33/202/21 34/147/21
f 35/203/22 36/51/22 37/204/22
f 38/3/23 39/205/23 40/206/23
f 42/26/15 18/80/15 17/192/15 41/207/15
f 30/69/24 145/208/24 148/209/24 31/32/24
f 27/210/25 157/211/25 160/183/25 28/182/25
f 52/212/25 39/205/25 38/3/25 51/2/25
f 46/52/24 36/51/24 35/118/24 45/121/24
f 49/50/26 155/99/26 154/213/26 50/214/26
f 33/202/27 165/215/27 168/148/27 34/147/27
f 56/216/27 21/217/27 20/43/27 55/42/27
f 138/218/15 42/26/15 41/207/15 139/219/15
f 43/220/28 143/221/28 142/222/28 44/14/28
f 21/195/28 43/220/28 44/14/28 22/19/28
f 144/223/28 27/197/28 26/179/28 141/178/28
f 146/224/24 46/35/24 45/121/24 147/137/24
f 47/101/29 151/225/29 150/226/29 48/6/29
f 39/109/29 47/113/29 48/6/29 40/66/29
f 152/105/29 33/108/29 32/175/29 149/227/29
f 36/51/26 49/50/26 50/214/26 37/204/26
f 156/228/26 24/122/26 23/196/26 153/229/26
f 158/230/25 52/212/25 51/2/25 159/231/25
f 53/86/30 163/85/30 162/232/30 54/233/30
f 18/80/30 53/79/30 54/233/30 19/193/30
f 164/234/30 30/69/30 29/199/30 161/235/30
f 166/236/27 56/216/27 55/42/27 167/237/27
f 78/131/31 69/130/31 70/9/31 77/12/31
f 58/238/32 59/239/32 60/144/32 57/145/32
f 66/172/33 67/171/33 68/150/33 65/151/33
f 59/239/32 20/194/32 22/19/32 60/18/32
f 57/240/32 17/241/32 19/242/32 58/238/32
f 62/139/34 23/138/34 25/49/34 61/48/34
f 64/180/35 26/179/35 28/182/35 63/181/35
f 65/119/33 35/118/33 37/30/33 66/29/33
f 67/4/33 38/3/33 40/66/33 68/65/33
f 69/142/36 29/141/36 31/32/36 70/9/36
f 72/176/37 32/175/37 34/147/37 71/146/37
f 257/243/32 258/244/32 266/244/32 265/243/32
f 258/244/6 259/245/6 268/245/6 266/244/6
f 63/152/38 76/57/38 75/163/38 64/180/38
f 79/166/39 72/176/39 71/190/39 80/155/39
f 73/60/40 62/128/40 61/48/40 74/135/40
f 17/241/4 57/240/4 3/39/4 41/185/4
f 128/76/4 125/55/4 199/55/4 202/76/4
f 84/246/12 85/247/12 86/102/12
f 87/95/12 88/248/12 89/93/12
f 100/37/1 146/36/1 242/36/1 186/37/1
f 93/33/6 94/249/6 95/34/6
f 133/8/1 105/117/1 219/117/1 207/8/1
f 158/230/2 159/231/2 247/231/2 246/230/2
f 102/82/6 103/250/6 104/77/6
f 101/67/2 164/70/2 236/70/2 184/67/2
f 126/157/2 127/156/2 201/156/2 200/157/2
f 106/173/8 134/165/8 208/165/8 220/173/8
f 163/85/4 99/84/4 185/84/4 235/85/4
f 148/209/8 145/208/8 241/208/8 244/209/8
f 161/143/2 114/129/2 212/129/2 233/143/2
f 123/20/2 121/45/2 197/45/2 193/20/2
f 127/191/2 115/149/2 217/149/2 201/191/2
f 113/56/4 162/126/4 234/126/4 211/56/4
f 122/59/4 124/58/4 194/58/4 198/59/4
f 116/76/4 128/71/4 202/71/4 218/76/4
f 146/224/1 147/137/1 243/137/1 242/224/1
f 119/153/4 160/183/4 248/183/4 195/153/4
f 159/21/2 120/20/2 196/20/2 247/21/2
f 94/249/41 93/33/41 179/33/41 180/249/41
f 120/20/2 123/20/2 193/20/2 196/20/2
f 110/187/1 130/188/1 204/188/1 216/187/1
f 140/158/1 137/125/1 237/125/1 240/158/1
f 82/64/1 144/63/1 224/63/1 171/64/1
f 143/91/8 83/88/8 169/88/8 223/91/8
f 124/58/4 119/153/4 195/153/4 194/58/4
f 129/16/8 109/17/8 215/17/8 203/16/8
f 138/218/8 139/219/8 239/219/8 238/218/8
f 157/61/4 82/64/4 171/64/4 245/61/4
f 121/45/2 117/45/2 213/45/2 197/45/2
f 81/251/2 158/252/2 246/252/2 170/251/2
f 136/11/8 107/10/8 189/10/8 192/11/8
f 118/127/4 122/59/4 198/59/4 214/127/4
f 164/234/2 161/235/2 233/235/2 236/234/2
f 141/178/1 110/177/1 216/177/1 221/178/1
f 109/16/8 142/15/8 222/15/8 215/16/8
f 88/248/42 87/95/42 174/95/42 175/248/42
f 108/184/1 135/136/1 191/136/1 190/184/1
f 125/56/4 113/55/4 211/55/4 199/56/4
f 162/232/4 163/85/4 235/85/4 234/232/4
f 111/47/1 140/46/1 240/46/1 209/47/1
f 114/129/2 126/132/2 200/132/2 212/129/2
f 139/186/8 112/40/8 210/40/8 239/186/8
f 102/82/1 100/81/1 186/81/1 187/82/1
f 152/105/8 149/227/8 229/227/8 232/105/8
f 52/253/12 158/252/12 81/251/12 84/246/12
f 170/251/12 171/64/12 169/88/12
f 177/114/12 178/106/12 176/90/12
f 182/100/6 183/23/6 181/124/6
f 185/84/6 186/37/6 184/67/6
f 169/88/12 173/87/12 172/246/12 170/251/12
f 174/95/12 177/114/12 176/90/12 175/89/12
f 179/33/6 183/23/6 182/100/6 180/53/6
f 185/84/6 188/83/6 187/82/6 186/81/6
f 190/184/3 191/136/3 192/11/3 189/10/3
f 194/58/11 195/153/11 196/20/11 193/20/11
f 198/59/1 194/58/1 193/20/1 197/45/1
f 200/157/8 201/156/8 202/76/8 199/55/8
f 204/162/4 205/164/4 206/38/4 203/17/4
f 208/165/2 192/11/2 191/184/2 207/117/2
f 205/134/7 209/133/7 210/38/7 206/40/7
f 212/129/10 200/132/10 199/56/10 211/55/10
f 214/127/9 198/59/9 197/45/9 213/45/9
f 203/16/5 215/17/5 216/187/5 204/188/5
f 218/76/13 202/71/13 201/191/13 217/149/13
f 220/173/14 208/165/14 207/8/14 219/117/14
f 222/222/28 223/221/28 224/223/28 221/178/28
f 226/213/26 227/99/26 228/228/26 225/229/26
f 230/226/29 231/225/29 232/105/29 229/227/29
f 234/232/30 235/85/30 236/234/30 233/235/30
f 238/218/15 239/219/15 240/158/15 237/125/15
f 242/224/24 243/137/24 244/209/24 241/208/24
f 246/230/25 247/231/25 248/183/25 245/211/25
f 250/236/27 251/237/27 252/148/27 249/215/27
f 213/45/1 226/154/1 225/140/1 214/127/1
f 227/99/6 182/100/6 181/124/6 228/123/6
f 183/23/6 238/22/6 237/125/6 181/124/6
f 239/186/4 210/40/4 209/47/4 240/46/4
f 215/16/4 222/15/4 221/178/4 216/177/4
f 170/251/12 246/252/12 245/61/12 171/64/12
f 223/91/12 169/88/12 171/64/12 224/63/12
f 247/21/1 196/20/1 195/153/1 248/183/1
f 211/56/8 234/126/8 233/143/8 212/129/8
f 235/85/6 185/84/6 184/67/6 236/70/6
f 186/37/6 242/36/6 241/68/6 184/67/6
f 243/137/2 190/136/2 189/10/2 244/31/2
f 219/8/2 230/7/2 229/174/2 220/173/2
f 231/104/12 176/103/12 178/106/12 232/105/12
f 177/114/12 250/116/12 249/107/12 178/106/12
f 251/72/8 218/71/8 217/149/8 252/148/8
f 145/68/8 101/67/8 184/67/8 241/68/8
f 160/183/4 157/211/4 245/211/4 248/183/4
f 142/222/8 143/221/8 223/221/8 222/222/8
f 147/137/1 108/136/1 190/136/1 243/137/1
f 130/162/1 131/164/1 205/164/1 204/162/1
f 103/250/43 102/82/43 187/82/43 188/250/43
f 107/10/8 148/31/8 244/31/8 189/10/8
f 166/236/4 167/237/4 251/237/4 250/236/4
f 144/223/1 141/178/1 221/178/1 224/223/1
f 105/8/1 150/7/1 230/7/1 219/8/1
f 132/38/8 129/17/8 203/17/8 206/38/8
f 83/88/8 85/87/8 173/87/8 169/88/8
f 149/174/8 106/173/8 220/173/8 229/174/8
f 168/148/2 165/215/2 249/215/2 252/148/2
f 154/213/2 155/99/2 227/99/2 226/213/2
f 84/246/1 81/251/1 170/251/1 172/246/1
f 151/104/1 92/103/1 176/103/1 231/104/1
f 117/45/2 154/154/2 226/154/2 213/45/2
f 134/165/8 136/11/8 192/11/8 208/165/8
f 87/95/8 90/114/8 177/114/8 174/95/8
f 91/106/8 152/105/8 232/105/8 178/106/8
f 153/140/4 118/127/4 214/127/4 225/140/4
f 156/228/4 153/229/4 225/229/4 228/228/4
f 135/184/1 133/117/1 207/117/1 191/184/1
f 92/90/1 88/89/1 175/89/1 176/90/1
f 90/114/4 166/116/4 250/116/4 177/114/4
f 155/99/2 96/100/2 182/100/2 227/99/2
f 131/134/1 111/133/1 209/133/1 205/134/1
f 93/33/8 97/23/8 183/23/8 179/33/8
f 165/107/2 91/106/2 178/106/2 249/107/2
f 98/124/4 156/123/4 228/123/4 181/124/4
f 150/226/1 151/225/1 231/225/1 230/226/1
f 96/100/1 94/53/1 180/53/1 182/100/1
f 167/72/4 116/71/4 218/71/4 251/72/4
f 97/23/8 138/22/8 238/22/8 183/23/8
f 112/38/8 132/40/8 206/40/8 210/38/8
f 99/84/8 103/83/8 188/83/8 185/84/8
f 115/149/2 168/148/2 252/148/2 217/149/2
f 85/247/44 84/246/44 172/246/44 173/247/44
f 137/125/1 98/124/1 181/124/1 237/125/1
f 74/135/45 75/163/45 254/254/45 253/255/45
f 75/163/45 76/57/45 255/256/45 254/254/45
f 76/57/45 73/60/45 256/257/45 255/256/45
f 73/60/45 74/135/45 253/255/45 256/257/45
f 77/12/46 79/166/46 258/244/46 257/243/46
f 79/166/46 80/155/46 259/245/46 258/244/46
f 80/155/46 78/131/46 260/258/46 259/245/46
f 78/131/46 77/12/46 257/243/46 260/258/46
f 254/254/6 255/256/6 264/256/6 262/254/6
f 259/245/33 260/258/33 267/258/33 268/245/33
f 253/255/33 254/254/33 262/254/33 261/255/33
f 260/258/12 257/243/12 265/243/12 267/258/12
f 255/256/32 256/257/32 263/257/32 264/256/32
f 256/257/12 253/255/12 261/255/12 263/257/12
f 14/13/4 129/17/4 270/189/4 269/168/4
f 129/17/4 132/38/4 271/259/4 270/189/4
f 132/38/4 13/39/4 272/167/4 271/259/4
f 13/39/4 14/13/4 269/168/4 272/167/4
f 128/76/8 11/41/8 274/170/8 273/169/8
f 11/41/8 12/54/8 275/260/8 274/170/8
f 12/54/8 125/55/8 276/261/8 275/260/8
f 125/55/8 128/76/8 273/169/8 276/261/8
f 123/20/1 9/1/1 278/161/1 277/160/1
f 9/1/1 10/28/1 279/262/1 278/161/1
f 10/28/1 121/45/1 280/263/1 279/262/1
f 121/45/1 123/20/1 277/160/1 280/263/1
f 16/5/2 133/117/2 282/264/2 281/265/2
f 133/117/2 135/184/2 283/266/2 282/264/2
f 135/184/2 15/120/2 284/267/2 283/266/2
f 15/120/2 16/5/2 281/265/2 284/267/2
f 276/261/4 273/169/4 290/169/4 291/261/4
f 281/265/6 282/264/6 297/264/6 298/265/6
f 270/189/8 271/259/8 288/259/8 285/189/8
f 280/263/2 277/160/2 294/160/2 295/263/2
f 274/170/2 275/260/2 292/260/2 289/170/2
f 284/267/8 281/265/8 298/265/8 299/267/8
f 271/259/12 272/167/12 287/167/12 288/259/12
f 278/161/4 279/262/4 296/262/4 293/161/4
f 275/260/12 276/261/12 291/261/12 292/260/12
f 282/264/1 283/266/1 300/266/1 297/264/1
f 279/262/12 280/263/12 295/263/12 296/262/12
f 283/266/12 284/267/12 299/267/12 300/266/12
f 339/1/1 383/2/1 370/3/1 399/4/1
f 334/5/2 380/6/2 482/7/2 437/8/2
f 402/9/3 439/10/3 468/11/3 409/12/3
f 336/13/4 376/14/4 474/15/4 441/16/4
f 336/13/5 441/17/5 461/16/5 346/13/5
f 392/18/4 354/19/4 376/14/4 336/13/4
f 452/20/1 491/21/1 383/2/1 339/1/1
f 470/22/6 429/23/6 434/24/6 436/25/6 374/26/6
f 382/27/1 340/28/1 398/29/1 369/30/1
f 480/31/2 439/10/2 402/9/2 363/32/2
f 425/33/6 427/34/6 378/35/6 478/36/6 432/37/6
f 444/38/7 335/39/7 345/39/7 464/40/7
f 337/41/8 387/42/8 352/43/8 391/44/8
f 340/28/9 449/45/9 453/45/9 342/28/9
f 472/46/4 443/47/4 393/48/4 357/49/4
f 381/50/6 368/51/6 378/52/6 427/34/6 426/53/6
f 338/54/10 445/55/10 457/56/10 344/54/10
f 408/57/1 456/58/1 454/59/1 405/60/1
f 452/20/11 339/1/11 341/1/11 455/20/11
f 489/61/12 359/62/12 476/63/12 414/64/12
f 400/65/2 372/66/2 380/6/2 334/5/2
f 433/67/6 477/68/6 362/69/6 496/70/6
f 448/71/8 499/72/8 387/42/8 337/41/8
f 337/41/8 391/44/8 390/73/8 338/54/8
f 386/74/8 338/54/8 390/73/8 351/75/8
f 448/76/13 337/41/13 343/41/13 460/71/13
f 374/26/6 436/77/6 435/78/6 385/79/6 350/80/6
f 429/23/6 425/33/6 432/81/6 434/82/6
f 435/83/6 431/84/6 495/85/6 385/86/6
f 417/87/12 415/88/12 420/89/12 424/90/12
f 415/88/12 475/91/12 375/92/12 421/93/12 420/94/12
f 419/95/12 421/96/12 375/92/12 353/97/12 388/98/12
f 487/99/6 381/50/6 426/53/6 428/100/6
f 379/101/12 418/102/12 417/87/12 424/103/12 483/104/12
f 484/105/12 423/106/12 497/107/12 365/108/12
f 371/109/12 384/110/12 416/111/12 418/112/12 379/113/12
f 422/114/12 419/95/12 388/115/12 498/116/12
f 334/5/14 437/117/14 465/8/14 348/5/14
f 367/118/2 397/119/2 333/120/2 377/121/2
f 356/122/6 488/123/6 430/124/6 469/125/6
f 494/126/8 445/56/8 338/54/8 386/74/8
f 450/127/9 394/128/9 405/60/9 454/59/9
f 446/129/10 401/130/10 410/131/10 458/132/10
f 393/48/7 443/133/7 463/134/7 406/135/7
f 339/1/4 340/28/4 342/28/4 341/1/4
f 377/121/2 333/120/2 440/136/2 479/137/2
f 355/138/1 394/139/1 450/127/1 485/140/1
f 337/41/2 338/54/2 344/54/2 343/41/2
f 361/141/8 401/142/8 446/129/8 493/143/8
f 392/144/4 336/13/4 335/39/4 389/145/4
f 403/146/8 366/147/8 500/148/8 447/149/8
f 400/150/2 334/5/2 333/120/2 397/151/2
f 395/152/11 451/153/11 456/58/11 408/57/11
f 486/154/1 449/45/1 340/28/1 382/27/1
f 412/155/8 459/156/8 458/157/8 410/131/8
f 356/122/15 469/125/15 472/158/15 357/159/15
f 609/160/6 610/161/6 625/161/6 626/160/6
f 462/162/4 407/163/4 406/135/4 463/164/4
f 466/165/2 411/166/2 409/12/2 468/11/2
f 604/167/1 601/168/1 618/168/1 619/167/1
f 605/169/6 606/170/6 621/170/6 622/169/6
f 339/1/1 399/171/1 398/172/1 340/28/1
f 438/173/2 481/174/2 364/175/2 404/176/2
f 442/177/4 473/178/4 358/179/4 396/180/4
f 395/181/1 360/182/1 492/183/1 451/153/1
f 440/184/3 333/120/3 347/120/3 467/136/3
f 373/185/4 335/39/4 444/40/4 471/186/4
f 333/120/8 334/5/8 348/5/8 347/120/8
f 335/39/1 336/13/1 346/13/1 345/39/1
f 438/173/14 404/176/14 411/166/14 466/165/14
f 442/187/5 396/180/5 407/163/5 462/188/5
f 601/168/6 602/189/6 617/189/6 618/168/6
f 403/190/13 447/149/13 459/191/13 412/155/13
f 349/192/47 350/80/47 351/193/47
f 352/194/48 353/195/48 354/19/48
f 355/196/18 356/122/18 357/159/18
f 358/179/19 359/197/19 360/198/19
f 361/199/20 362/69/20 363/200/20
f 364/201/21 365/202/21 366/147/21
f 367/203/49 368/51/49 369/204/49
f 370/3/50 371/205/50 372/206/50
f 374/26/15 350/80/15 349/192/15 373/207/15
f 362/69/24 477/208/24 480/209/24 363/32/24
f 359/210/25 489/211/25 492/183/25 360/182/25
f 384/212/25 371/205/25 370/3/25 383/2/25
f 378/52/24 368/51/24 367/118/24 377/121/24
f 381/50/26 487/99/26 486/213/26 382/214/26
f 365/202/27 497/215/27 500/148/27 366/147/27
f 388/216/27 353/217/27 352/43/27 387/42/27
f 470/218/15 374/26/15 373/207/15 471/219/15
f 375/220/28 475/221/28 474/222/28 376/14/28
f 353/195/28 375/220/28 376/14/28 354/19/28
f 476/223/28 359/197/28 358/179/28 473/178/28
f 478/224/24 378/35/24 377/121/24 479/137/24
f 379/101/29 483/225/29 482/226/29 380/6/29
f 371/109/29 379/113/29 380/6/29 372/66/29
f 484/105/29 365/108/29 364/175/29 481/227/29
f 368/51/26 381/50/26 382/214/26 369/204/26
f 488/228/26 356/122/26 355/196/26 485/229/26
f 490/230/25 384/212/25 383/2/25 491/231/25
f 385/86/30 495/85/30 494/232/30 386/233/30
f 350/80/30 385/79/30 386/233/30 351/193/30
f 496/234/30 362/69/30 361/199/30 493/235/30
f 498/236/27 388/216/27 387/42/27 499/237/27
f 410/131/31 401/130/31 402/9/31 409/12/31
f 390/238/32 391/239/32 392/144/32 389/145/32
f 398/172/33 399/171/33 400/150/33 397/151/33
f 391/239/32 352/194/32 354/19/32 392/18/32
f 389/240/32 349/241/32 351/242/32 390/238/32
f 394/139/34 355/138/34 357/49/34 393/48/34
f 396/180/35 358/179/35 360/182/35 395/181/35
f 397/119/33 367/118/33 369/30/33 398/29/33
f 399/4/33 370/3/33 372/66/33 400/65/33
f 401/142/36 361/141/36 363/32/36 402/9/36
f 404/176/37 364/175/37 366/147/37 403/146/37
f 589/243/32 590/244/32 598/244/32 597/243/32
f 590/244/6 591/245/6 600/245/6 598/244/6
f 395/152/38 408/57/38 407/163/38 396/180/38
f 411/166/39 404/176/39 403/190/39 412/155/39
f 405/60/40 394/128/40 393/48/40 406/135/40
f 349/241/4 389/240/4 335/39/4 373/185/4
f 460/76/4 457/55/4 531/55/4 534/76/4
f 416/246/12 417/247/12 418/102/12
f 419/95/12 420/248/12 421/93/12
f 432/37/1 478/36/1 574/36/1 518/37/1
f 425/33/6 426/249/6 427/34/6
f 465/8/1 437/117/1 551/117/1 539/8/1
f 490/230/2 491/231/2 579/231/2 578/230/2
f 434/82/6 435/250/6 436/77/6
f 433/67/2 496/70/2 568/70/2 516/67/2
f 458/157/2 459/156/2 533/156/2 532/157/2
f 438/173/8 466/165/8 540/165/8 552/173/8
f 495/85/4 431/84/4 517/84/4 567/85/4
f 480/209/8 477/208/8 573/208/8 576/209/8
f 493/143/2 446/129/2 544/129/2 565/143/2
f 455/20/2 453/45/2 529/45/2 525/20/2
f 459/191/2 447/149/2 549/149/2 533/191/2
f 445/56/4 494/126/4 566/126/4 543/56/4
f 454/59/4 456/58/4 526/58/4 530/59/4
f 448/76/4 460/71/4 534/71/4 550/76/4
f 478/224/1 479/137/1 575/137/1 574/224/1
f 451/153/4 492/183/4 580/183/4 527/153/4
f 491/21/2 452/20/2 528/20/2 579/21/2
f 426/249/41 425/33/41 511/33/41 512/249/41
f 452/20/2 455/20/2 525/20/2 528/20/2
f 442/187/1 462/188/1 536/188/1 548/187/1
f 472/158/1 469/125/1 569/125/1 572/158/1
f 414/64/1 476/63/1 556/63/1 503/64/1
f 475/91/8 415/88/8 501/88/8 555/91/8
f 456/58/4 451/153/4 527/153/4 526/58/4
f 461/16/8 441/17/8 547/17/8 535/16/8
f 470/218/8 471/219/8 571/219/8 570/218/8
f 489/61/4 414/64/4 503/64/4 577/61/4
f 453/45/2 449/45/2 545/45/2 529/45/2
f 413/251/2 490/252/2 578/252/2 502/251/2
f 468/11/8 439/10/8 521/10/8 524/11/8
f 450/127/4 454/59/4 530/59/4 546/127/4
f 496/234/2 493/235/2 565/235/2 568/234/2
f 473/178/1 442/177/1 548/177/1 553/178/1
f 441/16/8 474/15/8 554/15/8 547/16/8
f 420/248/42 419/95/42 506/95/42 507/248/42
f 440/184/1 467/136/1 523/136/1 522/184/1
f 457/56/4 445/55/4 543/55/4 531/56/4
f 494/232/4 495/85/4 567/85/4 566/232/4
f 443/47/1 472/46/1 572/46/1 541/47/1
f 446/129/2 458/132/2 532/132/2 544/129/2
f 471/186/8 444/40/8 542/40/8 571/186/8
f 434/82/1 432/81/1 518/81/1 519/82/1
f 484/105/8 481/227/8 561/227/8 564/105/8
f 384/253/12 490/252/12 413/251/12 416/246/12
f 502/251/12 503/64/12 501/88/12
f 509/114/12 510/106/12 508/90/12
f 514/100/6 515/23/6 513/124/6
f 517/84/6 518/37/6 516/67/6
f 501/88/12 505/87/12 504/246/12 502/251/12
f 506/95/12 509/114/12 508/90/12 507/89/12
f 511/33/6 515/23/6 514/100/6 512/53/6
f 517/84/6 520/83/6 519/82/6 518/81/6
f 522/184/3 523/136/3 524/11/3 521/10/3
f 526/58/11 527/153/11 528/20/11 525/20/11
f 530/59/1 526/58/1 525/20/1 529/45/1
f 532/157/8 533/156/8 534/76/8 531/55/8
f 536/162/4 537/164/4 538/38/4 535/17/4
f 540/165/2 524/11/2 523/184/2 539/117/2
f 537/134/7 541/133/7 542/38/7 538/40/7
f 544/129/10 532/132/10 531/56/10 543/55/10
f 546/127/9 530/59/9 529/45/9 545/45/9
f 535/16/5 547/17/5 548/187/5 536/188/5
f 550/76/13 534/71/13 533/191/13 549/149/13
f 552/173/14 540/165/14 539/8/14 551/117/14
f 554/222/28 555/221/28 556/223/28 553/178/28
f 558/213/26 559/99/26 560/228/26 557/229/26
f 562/226/29 563/225/29 564/105/29 561/227/29
f 566/232/30 567/85/30 568/234/30 565/235/30
f 570/218/15 571/219/15 572/158/15 569/125/15
f 574/224/24 575/137/24 576/209/24 573/208/24
f 578/230/25 579/231/25 580/183/25 577/211/25
f 582/236/27 583/237/27 584/148/27 581/215/27
f 545/45/1 558/154/1 557/140/1 546/127/1
f 559/99/6 514/100/6 513/124/6 560/123/6
f 515/23/6 570/22/6 569/125/6 513/124/6
f 571/186/4 542/40/4 541/47/4 572/46/4
f 547/16/4 554/15/4 553/178/4 548/177/4
f 502/251/12 578/252/12 577/61/12 503/64/12
f 555/91/12 501/88/12 503/64/12 556/63/12
f 579/21/1 528/20/1 527/153/1 580/183/1
f 543/56/8 566/126/8 565/143/8 544/129/8
f 567/85/6 517/84/6 516/67/6 568/70/6
f 518/37/6 574/36/6 573/68/6 516/67/6
f 575/137/2 522/136/2 521/10/2 576/31/2
f 551/8/2 562/7/2 561/174/2 552/173/2
f 563/104/12 508/103/12 510/106/12 564/105/12
f 509/114/12 582/116/12 581/107/12 510/106/12
f 583/72/8 550/71/8 549/149/8 584/148/8
f 477/68/8 433/67/8 516/67/8 573/68/8
f 492/183/4 489/211/4 577/211/4 580/183/4
f 474/222/8 475/221/8 555/221/8 554/222/8
f 479/137/1 440/136/1 522/136/1 575/137/1
f 462/162/1 463/164/1 537/164/1 536/162/1
f 435/250/43 434/82/43 519/82/43 520/250/43
f 439/10/8 480/31/8 576/31/8 521/10/8
f 498/236/4 499/237/4 583/237/4 582/236/4
f 476/223/1 473/178/1 553/178/1 556/223/1
f 437/8/1 482/7/1 562/7/1 551/8/1
f 464/38/8 461/17/8 535/17/8 538/38/8
f 415/88/8 417/87/8 505/87/8 501/88/8
f 481/174/8 438/173/8 552/173/8 561/174/8
f 500/148/2 497/215/2 581/215/2 584/148/2
f 486/213/2 487/99/2 559/99/2 558/213/2
f 416/246/1 413/251/1 502/251/1 504/246/1
f 483/104/1 424/103/1 508/103/1 563/104/1
f 449/45/2 486/154/2 558/154/2 545/45/2
f 466/165/8 468/11/8 524/11/8 540/165/8
f 419/95/8 422/114/8 509/114/8 506/95/8
f 423/106/8 484/105/8 564/105/8 510/106/8
f 485/140/4 450/127/4 546/127/4 557/140/4
f 488/228/4 485/229/4 557/229/4 560/228/4
f 467/184/1 465/117/1 539/117/1 523/184/1
f 424/90/1 420/89/1 507/89/1 508/90/1
f 422/114/4 498/116/4 582/116/4 509/114/4
f 487/99/2 428/100/2 514/100/2 559/99/2
f 463/134/1 443/133/1 541/133/1 537/134/1
f 425/33/8 429/23/8 515/23/8 511/33/8
f 497/107/2 423/106/2 510/106/2 581/107/2
f 430/124/4 488/123/4 560/123/4 513/124/4
f 482/226/1 483/225/1 563/225/1 562/226/1
f 428/100/1 426/53/1 512/53/1 514/100/1
f 499/72/4 448/71/4 550/71/4 583/72/4
f 429/23/8 470/22/8 570/22/8 515/23/8
f 444/38/8 464/40/8 538/40/8 542/38/8
f 431/84/8 435/83/8 520/83/8 517/84/8
f 447/149/2 500/148/2 584/148/2 549/149/2
f 417/247/44 416/246/44 504/246/44 505/247/44
f 469/125/1 430/124/1 513/124/1 569/125/1
f 406/135/45 407/163/45 586/254/45 585/255/45
f 407/163/45 408/57/45 587/256/45 586/254/45
f 408/57/45 405/60/45 588/257/45 587/256/45
f 405/60/45 406/135/45 585/255/45 588/257/45
f 409/12/46 411/166/46 590/244/46 589/243/46
f 411/166/46 412/155/46 591/245/46 590/244/46
f 412/155/46 410/131/46 592/258/46 591/245/46
f 410/131/46 409/12/46 589/243/46 592/258/46
f 586/254/6 587/256/6 596/256/6 594/254/6
f 591/245/33 592/258/33 599/258/33 600/245/33
f 585/255/33 586/254/33 594/254/33 593/255/33
f 592/258/12 589/243/12 597/243/12 599/258/12
f 587/256/32 588/257/32 595/257/32 596/256/32
f 588/257/12 585/255/12 593/255/12 595/257/12
f 346/13/4 461/17/4 602/189/4 601/168/4
f 461/17/4 464/38/4 603/259/4 602/189/4
f 464/38/4 345/39/4 604/167/4 603/259/4
f 345/39/4 346/13/4 601/168/4 604/167/4
f 460/76/8 343/41/8 606/170/8 605/169/8
f 343/41/8 344/54/8 607/260/8 606/170/8
f 344/54/8 457/55/8 608/261/8 607/260/8
f 457/55/8 460/76/8 605/169/8 608/261/8
f 455/20/1 341/1/1 610/161/1 609/160/1
f 341/1/1 342/28/1 611/262/1 610/161/1
f 342/28/1 453/45/1 612/263/1 611/262/1
f 453/45/1 455/20/1 609/160/1 612/263/1
f 348/5/2 465/117/2 614/264/2 613/265/2
f 465/117/2 467/184/2 615/266/2 614/264/2
f 467/184/2 347/120/2 616/267/2 615/266/2
f 347/120/2 348/5/2 613/265/2 616/267/2
f 608/261/4 605/169/4 622/169/4 623/261/4
f 613/265/6 614/264/6 629/264/6 630/265/6
f 602/189/8 603/259/8 620/259/8 617/189/8
f 612/263/2 609/160/2 626/160/2 627/263/2
f 606/170/2 607/260/2 624/260/2 621/170/2
f 616/267/8 613/265/8 630/265/8 631/267/8
f 603/259/12 604/167/12 619/167/12 620/259/12
f 610/161/4 611/262/4 628/262/4 625/161/4
f 607/260/12 608/261/12 623/261/12 624/260/12
f 614/264/1 615/266/1 632/266/1 629/264/1
f 611/262/12 612/263/12 627/263/12 628/262/12
f 615/266/12 616/267/12 631/267/12 632/266/12
usemtl Bleu_Neon
f 261/255/45 262/254/45 264/256/45 263/257/45
f 265/243/46 266/244/46 268/245/46 267/258/46
f 318/271/4 317/274/4 320/275/4 319/270/4
f 322/272/8 321/273/8 324/276/8 323/277/8
f 326/268/1 325/269/1 328/278/1 327/279/1
f 330/281/2 329/280/2 332/282/2 331/283/2
f 593/255/45 594/254/45 596/256/45 595/257/45
f 597/243/46 598/244/46 600/245/46 599/258/46
f 650/271/4 649/274/4 652/275/4 651/270/4
f 654/272/8 653/273/8 656/276/8 655/277/8
f 658/268/1 657/269/1 660/278/1 659/279/1
f 662/281/2 661/280/2 664/282/2 663/283/2
usemtl Noir_Profond
f 309/268/6 310/269/6 325/269/6 326/268/6
f 304/270/1 301/271/1 318/271/1 319/270/1
f 305/272/6 306/273/6 321/273/6 322/272/6
f 301/271/6 302/274/6 317/274/6 318/271/6
f 286/168/4 285/189/4 302/274/4 301/271/4
f 285/189/4 288/259/4 303/275/4 302/274/4
f 288/259/4 287/167/4 304/270/4 303/275/4
f 287/167/4 286/168/4 301/271/4 304/270/4
f 290/169/8 289/170/8 306/273/8 305/272/8
f 289/170/8 292/260/8 307/276/8 306/273/8
f 292/260/8 291/261/8 308/277/8 307/276/8
f 291/261/8 290/169/8 305/272/8 308/277/8
f 294/160/1 293/161/1 310/269/1 309/268/1
f 293/161/1 296/262/1 311/278/1 310/269/1
f 296/262/1 295/263/1 312/279/1 311/278/1
f 295/263/1 294/160/1 309/268/1 312/279/1
f 298/265/2 297/264/2 314/280/2 313/281/2
f 297/264/2 300/266/2 315/282/2 314/280/2
f 300/266/2 299/267/2 316/283/2 315/282/2
f 299/267/2 298/265/2 313/281/2 316/283/2
f 308/277/4 305/272/4 322/272/4 323/277/4
f 313/281/6 314/280/6 329/280/6 330/281/6
f 302/274/8 303/275/8 320/275/8 317/274/8
f 312/279/2 309/268/2 326/268/2 327/279/2
f 306/273/2 307/276/2 324/276/2 321/273/2
f 316/283/8 313/281/8 330/281/8 331/283/8
f 303/275/12 304/270/12 319/270/12 320/275/12
f 310/269/4 311/278/4 328/278/4 325/269/4
f 307/276/12 308/277/12 323/277/12 324/276/12
f 314/280/1 315/282/1 332/282/1 329/280/1
f 311/278/12 312/279/12 327/279/12 328/278/12
f 315/282/12 316/283/12 331/283/12 332/282/12
f 641/268/6 642/269/6 657/269/6 658/268/6
f 636/270/1 633/271/1 650/271/1 651/270/1
f 637/272/6 638/273/6 653/273/6 654/272/6
f 633/271/6 634/274/6 649/274/6 650/271/6
f 618/168/4 617/189/4 634/274/4 633/271/4
f 617/189/4 620/259/4 635/275/4 634/274/4
f 620/259/4 619/167/4 636/270/4 635/275/4
f 619/167/4 618/168/4 633/271/4 636/270/4
f 622/169/8 621/170/8 638/273/8 637/272/8
f 621/170/8 624/260/8 639/276/8 638/273/8
f 624/260/8 623/261/8 640/277/8 639/276/8
f 623/261/8 622/169/8 637/272/8 640/277/8
f 626/160/1 625/161/1 642/269/1 641/268/1
f 625/161/1 628/262/1 643/278/1 642/269/1
f 628/262/1 627/263/1 644/279/1 643/278/1
f 627/263/1 626/160/1 641/268/1 644/279/1
f 630/265/2 629/264/2 646/280/2 645/281/2
f 629/264/2 632/266/2 647/282/2 646/280/2
f 632/266/2 631/267/2 648/283/2 647/282/2
f 631/267/2 630/265/2 645/281/2 648/283/2
f 640/277/4 637/272/4 654/272/4 655/277/4
f 645/281/6 646/280/6 661/280/6 662/281/6
f 634/274/8 635/275/8 652/275/8 649/274/8
f 644/279/2 641/268/2 658/268/2 659/279/2
f 638/273/2 639/276/2 656/276/2 653/273/2
f 648/283/8 645/281/8 662/281/8 663/283/8
f 635/275/12 636/270/12 651/270/12 652/275/12
f 642/269/4 643/278/4 660/278/4 657/269/4
f 639/276/12 640/277/12 655/277/12 656/276/12
f 646/280/1 647/282/1 664/282/1 661/280/1
f 643/278/12 644/279/12 659/279/12 660/278/12
f 647/282/12 648/283/12 663/283/12 664/282/12
