# Blender 4.2.3 LTS
# www.blender.org
mtllib SM_Industrial_Barrel.mtl
o SM_Industrial_Barrel
v 0.000000 0.239692 -0.297117
v 0.000000 0.526103 -0.297117
v 0.183125 0.517015 -0.222745
v 0.183125 0.248780 -0.222745
v 0.222745 0.517015 -0.183125
v 0.222745 0.248780 -0.183125
v 0.297117 0.526103 -0.000000
v 0.297117 0.239692 -0.000000
v 0.222745 0.517015 0.183125
v 0.222745 0.248780 0.183125
v 0.183125 0.517015 0.222745
v 0.183125 0.248780 0.222745
v 0.000000 0.526103 0.297117
v 0.000000 0.239692 0.297117
v -0.183125 0.517015 0.222745
v -0.183125 0.248780 0.222745
v -0.222745 0.517015 0.183125
v -0.222745 0.248780 0.183125
v -0.297117 0.526103 -0.000000
v -0.297117 0.239692 -0.000000
v -0.222745 0.517015 -0.183125
v -0.222745 0.248780 -0.183125
v -0.183125 0.517015 -0.222745
v -0.183125 0.248780 -0.222745
v 0.000000 0.205642 -0.297117
v 0.000000 0.560153 -0.297117
v 0.148559 0.560153 -0.257311
v 0.148559 0.205642 -0.257311
v 0.257311 0.560153 -0.148559
v 0.257311 0.205642 -0.148559
v 0.297117 0.560153 -0.000000
v 0.297117 0.205642 -0.000000
v 0.257311 0.560153 0.148559
v 0.257311 0.205642 0.148559
v 0.148559 0.560153 0.257311
v 0.148559 0.205642 0.257311
v 0.000000 0.560153 0.297117
v 0.000000 0.205642 0.297117
v -0.148559 0.560153 0.257311
v -0.148559 0.205642 0.257311
v -0.257311 0.560153 0.148559
v -0.257311 0.205642 0.148559
v -0.297117 0.560153 -0.000000
v -0.297117 0.205642 -0.000000
v -0.257311 0.560153 -0.148559
v -0.257311 0.205642 -0.148559
v -0.148559 0.560153 -0.257311
v -0.148559 0.205642 -0.257311
v 0.000000 0.190815 -0.297117
v 0.000000 0.153849 -0.297117
v 0.000000 0.611946 -0.297117
v 0.000000 0.574980 -0.297117
v 0.148559 0.574980 -0.257311
v 0.148559 0.611946 -0.257311
v 0.148559 0.153849 -0.257311
v 0.148559 0.190815 -0.257311
v 0.257311 0.574980 -0.148559
v 0.257311 0.611946 -0.148559
v 0.257311 0.153849 -0.148559
v 0.257311 0.190815 -0.148559
v 0.297117 0.574980 -0.000000
v 0.297117 0.611946 -0.000000
v 0.297117 0.153849 -0.000000
v 0.297117 0.190815 -0.000000
v 0.257311 0.574980 0.148559
v 0.257311 0.611946 0.148559
v 0.257311 0.153849 0.148559
v 0.257311 0.190815 0.148559
v 0.148559 0.574980 0.257311
v 0.148559 0.611946 0.257311
v 0.148559 0.153849 0.257311
v 0.148559 0.190815 0.257311
v 0.000000 0.574980 0.297117
v 0.000000 0.611946 0.297117
v 0.000000 0.153849 0.297117
v 0.000000 0.190815 0.297117
v -0.148559 0.574980 0.257311
v -0.148559 0.611946 0.257311
v -0.148559 0.153849 0.257311
v -0.148559 0.190815 0.257311
v -0.257311 0.574980 0.148559
v -0.257311 0.611946 0.148559
v -0.257311 0.153849 0.148559
v -0.257311 0.190815 0.148559
v -0.297117 0.574980 -0.000000
v -0.297117 0.611946 -0.000000
v -0.297117 0.153849 -0.000000
v -0.297117 0.190815 -0.000000
v -0.257311 0.574980 -0.148559
v -0.257311 0.611946 -0.148559
v -0.257311 0.153849 -0.148559
v -0.257311 0.190815 -0.148559
v -0.148559 0.574980 -0.257311
v -0.148559 0.611946 -0.257311
v -0.148559 0.153849 -0.257311
v -0.148559 0.190815 -0.257311
v -0.157231 0.239692 -0.272331
v 0.000000 0.239692 -0.314461
v 0.000000 0.526103 -0.314461
v -0.157231 0.526103 -0.272331
v -0.272331 0.239692 -0.157231
v -0.272331 0.526103 -0.157231
v -0.314461 0.239692 -0.000000
v -0.314461 0.526103 -0.000000
v -0.272331 0.239692 0.157231
v -0.272331 0.526103 0.157231
v -0.157231 0.239692 0.272331
v -0.157231 0.526103 0.272331
v 0.000000 0.239692 0.314461
v 0.000000 0.526103 0.314461
v 0.157231 0.239692 0.272331
v 0.157231 0.526103 0.272331
v 0.272331 0.239692 0.157231
v 0.272331 0.526103 0.157231
v 0.314461 0.239692 -0.000000
v 0.314461 0.526103 -0.000000
v 0.272331 0.239692 -0.157231
v 0.272331 0.526103 -0.157231
v 0.157231 0.239692 -0.272331
v 0.157231 0.526103 -0.272331
v -0.157231 0.205642 -0.272331
v 0.000000 0.205642 -0.314461
v 0.000000 0.560153 -0.314461
v -0.157231 0.560153 -0.272331
v -0.272331 0.205642 -0.157231
v -0.272331 0.560153 -0.157231
v -0.314461 0.205642 -0.000000
v -0.314461 0.560153 -0.000000
v -0.272331 0.205642 0.157231
v -0.272331 0.560153 0.157231
v -0.157231 0.205642 0.272331
v -0.157231 0.560153 0.272331
v 0.000000 0.205642 0.314461
v 0.000000 0.560153 0.314461
v 0.157231 0.205642 0.272331
v 0.157231 0.560153 0.272331
v 0.272331 0.205642 0.157231
v 0.272331 0.560153 0.157231
v 0.314461 0.205642 -0.000000
v 0.314461 0.560153 -0.000000
v 0.272331 0.205642 -0.157231
v 0.272331 0.560153 -0.157231
v 0.157231 0.205642 -0.272331
v 0.157231 0.560153 -0.272331
v 0.000000 0.183579 -0.283510
v 0.000000 0.161086 -0.283510
v -0.141755 0.161086 -0.245527
v -0.141755 0.183579 -0.245527
v -0.141755 0.574980 -0.245527
v -0.141755 0.611946 -0.245527
v 0.000000 0.604709 -0.283510
v 0.000000 0.574980 -0.283510
v -0.245527 0.161086 -0.141755
v -0.245527 0.183579 -0.141755
v -0.245527 0.574980 -0.141755
v -0.245527 0.611946 -0.141755
v -0.283510 0.161086 -0.000000
v -0.283510 0.183579 -0.000000
v -0.283510 0.574980 -0.000000
v -0.283510 0.611946 -0.000000
v -0.245527 0.161086 0.141755
v -0.245527 0.183579 0.141755
v -0.245527 0.574980 0.141755
v -0.245527 0.604709 0.141755
v -0.141755 0.161086 0.245527
v -0.141755 0.183579 0.245527
v -0.141755 0.574980 0.245527
v -0.141755 0.604709 0.245527
v 0.000000 0.161086 0.283510
v 0.000000 0.190815 0.283510
v 0.000000 0.582217 0.283510
v 0.000000 0.604709 0.283510
v 0.141755 0.161086 0.245527
v 0.141755 0.190815 0.245527
v 0.141755 0.582217 0.245527
v 0.141755 0.604709 0.245527
v 0.245527 0.161086 0.141755
v 0.245527 0.190815 0.141755
v 0.245527 0.582217 0.141755
v 0.245527 0.611946 0.141755
v 0.283510 0.161086 -0.000000
v 0.283510 0.190815 -0.000000
v 0.283510 0.582217 -0.000000
v 0.283510 0.611946 -0.000000
v 0.245527 0.161086 -0.141755
v 0.245527 0.190815 -0.141755
v 0.245527 0.574980 -0.141755
v 0.245527 0.611946 -0.141755
v 0.141755 0.161086 -0.245527
v 0.141755 0.183579 -0.245527
v 0.141755 0.574980 -0.245527
v 0.141755 0.604709 -0.245527
v 0.000000 0.153849 -0.283510
v -0.141755 0.153849 -0.245527
v -0.141755 0.190815 -0.245527
v 0.000000 0.190815 -0.283510
v -0.141755 0.604709 -0.245527
v 0.000000 0.611946 -0.283510
v 0.000000 0.582217 -0.283510
v -0.141755 0.582217 -0.245527
v -0.245527 0.153849 -0.141755
v -0.245527 0.190815 -0.141755
v -0.245527 0.604709 -0.141755
v -0.245527 0.582217 -0.141755
v -0.283510 0.153849 -0.000000
v -0.283510 0.190815 -0.000000
v -0.283510 0.604709 -0.000000
v -0.283510 0.582217 -0.000000
v -0.245527 0.153849 0.141755
v -0.245527 0.190815 0.141755
v -0.245527 0.611946 0.141755
v -0.245527 0.582217 0.141755
v -0.141755 0.153849 0.245527
v -0.141755 0.190815 0.245527
v -0.141755 0.611946 0.245527
v -0.141755 0.582217 0.245527
v 0.000000 0.153849 0.283510
v 0.000000 0.183579 0.283510
v 0.000000 0.611946 0.283510
v 0.000000 0.574980 0.283510
v 0.141755 0.153849 0.245527
v 0.141755 0.183579 0.245527
v 0.141755 0.611946 0.245527
v 0.141755 0.574980 0.245527
v 0.245527 0.153849 0.141755
v 0.245527 0.183579 0.141755
v 0.245527 0.604709 0.141755
v 0.245527 0.574980 0.141755
v 0.283510 0.153849 -0.000000
v 0.283510 0.183579 -0.000000
v 0.283510 0.604709 -0.000000
v 0.283510 0.574980 -0.000000
v 0.245527 0.153849 -0.141755
v 0.245527 0.183579 -0.141755
v 0.245527 0.604709 -0.141755
v 0.245527 0.582217 -0.141755
v 0.141755 0.153849 -0.245527
v 0.141755 0.190815 -0.245527
v 0.141755 0.611946 -0.245527
v 0.141755 0.582217 -0.245527
v 0.000000 0.183579 -0.281089
v 0.000000 0.161086 -0.281089
v -0.140545 0.161086 -0.243430
v -0.140545 0.183579 -0.243430
v -0.140545 0.582217 -0.243430
v -0.140545 0.604709 -0.243430
v 0.000000 0.604709 -0.281089
v 0.000000 0.582217 -0.281089
v -0.243430 0.161086 -0.140545
v -0.243430 0.183579 -0.140545
v -0.243430 0.582217 -0.140545
v -0.243430 0.604709 -0.140545
v -0.281089 0.161086 -0.000000
v -0.281089 0.183579 -0.000000
v -0.281089 0.582217 -0.000000
v -0.281089 0.604709 -0.000000
v -0.243430 0.161086 0.140545
v -0.243430 0.183579 0.140545
v -0.243430 0.582217 0.140545
v -0.243430 0.604709 0.140545
v -0.140545 0.161086 0.243430
v -0.140545 0.183579 0.243430
v -0.140545 0.582217 0.243430
v -0.140545 0.604709 0.243430
v 0.000000 0.161086 0.281089
v 0.000000 0.183579 0.281089
v 0.000000 0.582217 0.281089
v 0.000000 0.604709 0.281089
v 0.140545 0.161086 0.243430
v 0.140545 0.183579 0.243430
v 0.140545 0.582217 0.243430
v 0.140545 0.604709 0.243430
v 0.243430 0.161086 0.140545
v 0.243430 0.183579 0.140545
v 0.243430 0.582217 0.140545
v 0.243430 0.604709 0.140545
v 0.281089 0.161086 -0.000000
v 0.281089 0.183579 -0.000000
v 0.281089 0.582217 -0.000000
v 0.281089 0.604709 -0.000000
v 0.243430 0.161086 -0.140545
v 0.243430 0.183579 -0.140545
v 0.243430 0.582217 -0.140545
v 0.243430 0.604709 -0.140545
v 0.140545 0.161086 -0.243430
v 0.140545 0.183579 -0.243430
v 0.140545 0.582217 -0.243430
v 0.140545 0.604709 -0.243430
v -0.000000 0.000000 -0.228510
v 0.000000 0.023039 -0.297117
v 0.000000 0.742769 -0.297117
v 0.000000 0.765809 -0.228510
v 0.148559 0.023039 -0.257311
v 0.114255 0.000000 -0.197895
v 0.114255 0.765809 -0.197895
v 0.148559 0.742769 -0.257311
v 0.257311 0.023039 -0.148559
v 0.197895 0.000000 -0.114255
v 0.197895 0.765809 -0.114255
v 0.257311 0.742769 -0.148559
v 0.297117 0.023039 -0.000000
v 0.228510 0.000000 -0.000000
v 0.228510 0.765809 -0.000000
v 0.297117 0.742769 -0.000000
v 0.257311 0.023039 0.148559
v 0.197895 0.000000 0.114255
v 0.197895 0.765809 0.114255
v 0.257311 0.742769 0.148559
v 0.148559 0.023039 0.257311
v 0.114255 0.000000 0.197895
v 0.114255 0.765809 0.197895
v 0.148559 0.742769 0.257311
v 0.000000 0.023039 0.297117
v 0.000000 0.000000 0.228510
v -0.000000 0.765809 0.228510
v 0.000000 0.742769 0.297117
v -0.148559 0.023039 0.257311
v -0.114255 0.000000 0.197895
v -0.114255 0.765809 0.197895
v -0.148559 0.742769 0.257311
v -0.257311 0.023039 0.148559
v -0.197895 0.000000 0.114255
v -0.197895 0.765809 0.114255
v -0.257311 0.742769 0.148559
v -0.297117 0.023039 -0.000000
v -0.228510 0.000000 -0.000000
v -0.228510 0.765809 -0.000000
v -0.297117 0.742769 -0.000000
v -0.257311 0.023039 -0.148559
v -0.197895 0.000000 -0.114255
v -0.197895 0.765809 -0.114255
v -0.257311 0.742769 -0.148559
v -0.148559 0.023039 -0.257311
v -0.114255 0.000000 -0.197895
v -0.114255 0.765809 -0.197895
v -0.148559 0.742769 -0.257311
v 0.136633 0.000000 -0.236655
v -0.000000 0.000000 -0.273265
v 0.000000 0.765809 -0.273265
v 0.136633 0.765809 -0.236655
v 0.236655 0.000000 -0.136633
v 0.236655 0.765809 -0.136633
v 0.273265 0.000000 -0.000000
v 0.273265 0.765809 -0.000000
v 0.236655 0.000000 0.136633
v 0.236655 0.765809 0.136633
v 0.136633 0.000000 0.236655
v 0.136633 0.765809 0.236655
v 0.000000 0.000000 0.273265
v -0.000000 0.765809 0.273265
v -0.136633 0.000000 0.236655
v -0.136633 0.765809 0.236655
v -0.236655 0.000000 0.136633
v -0.236655 0.765809 0.136633
v -0.273265 0.000000 -0.000000
v -0.273265 0.765809 -0.000000
v -0.236655 0.000000 -0.136633
v -0.236655 0.765809 -0.136633
v -0.136633 0.000000 -0.236655
v -0.136633 0.765809 -0.236655
v 0.114255 0.015053 -0.197895
v -0.000000 0.015053 -0.228510
v 0.000000 0.750756 -0.228510
v 0.114255 0.750756 -0.197895
v 0.197895 0.015053 -0.114255
v 0.197895 0.750756 -0.114255
v 0.228510 0.015053 -0.000000
v 0.228510 0.750756 -0.000000
v 0.197895 0.015053 0.114255
v 0.197895 0.750756 0.114255
v 0.114255 0.015053 0.197895
v 0.114255 0.750756 0.197895
v 0.000000 0.015053 0.228510
v -0.000000 0.750756 0.228510
v -0.114255 0.015053 0.197895
v -0.114255 0.750756 0.197895
v -0.197895 0.015053 0.114255
v -0.197895 0.750756 0.114255
v -0.228510 0.015053 -0.000000
v -0.228510 0.750756 -0.000000
v -0.197895 0.015053 -0.114255
v -0.197895 0.750756 -0.114255
v -0.114255 0.015053 -0.197895
v -0.114255 0.750756 -0.197895
v -0.257311 0.239692 -0.148559
v -0.148559 0.239692 -0.257311
v -0.148559 0.526103 -0.257311
v -0.257311 0.526103 -0.148559
v -0.148559 0.239692 0.257311
v -0.257311 0.239692 0.148559
v -0.257311 0.526103 0.148559
v -0.148559 0.526103 0.257311
v 0.257311 0.239692 0.148559
v 0.148559 0.239692 0.257311
v 0.148559 0.526103 0.257311
v 0.257311 0.526103 0.148559
v 0.148559 0.239692 -0.257311
v 0.257311 0.239692 -0.148559
v 0.257311 0.526103 -0.148559
v 0.148559 0.526103 -0.257311
v -0.208917 0.267031 -0.169298
v -0.169298 0.267031 -0.208917
v -0.169298 0.498764 -0.208917
v -0.208917 0.498764 -0.169298
v -0.169298 0.267031 0.208917
v -0.208917 0.267031 0.169298
v -0.208917 0.498764 0.169298
v -0.169298 0.498764 0.208917
v 0.208917 0.267031 0.169298
v 0.169298 0.267031 0.208917
v 0.169298 0.498764 0.208917
v 0.208917 0.498764 0.169298
v 0.169298 0.267031 -0.208917
v 0.208917 0.267031 -0.169298
v 0.208917 0.498764 -0.169298
v 0.169298 0.498764 -0.208917
v -0.197349 0.278245 -0.171065
v -0.171065 0.278245 -0.197349
v -0.171065 0.487550 -0.197349
v -0.197349 0.487550 -0.171065
v -0.171065 0.278245 0.197349
v -0.197349 0.278245 0.171065
v -0.197349 0.487550 0.171065
v -0.171065 0.487550 0.197349
v 0.197349 0.278245 0.171065
v 0.171065 0.278245 0.197349
v 0.171065 0.487550 0.197349
v 0.197349 0.487550 0.171065
v 0.171065 0.278245 -0.197349
v 0.197349 0.278245 -0.171065
v 0.197349 0.487550 -0.171065
v 0.171065 0.487550 -0.197349
v -0.204017 0.267031 -0.164397
v -0.164397 0.267031 -0.204017
v -0.164397 0.498764 -0.204017
v -0.204017 0.498764 -0.164397
v -0.164397 0.267031 0.204017
v -0.204017 0.267031 0.164397
v -0.204017 0.498764 0.164397
v -0.164397 0.498764 0.204017
v 0.204017 0.267031 0.164397
v 0.164397 0.267031 0.204017
v 0.164397 0.498764 0.204017
v 0.204017 0.498764 0.164397
v 0.164397 0.267031 -0.204017
v 0.204017 0.267031 -0.164397
v 0.204017 0.498764 -0.164397
v 0.164397 0.498764 -0.204017
v -0.191923 0.278245 -0.165639
v -0.165639 0.278245 -0.191923
v -0.165639 0.487550 -0.191923
v -0.191923 0.487550 -0.165639
v -0.165639 0.278245 0.191923
v -0.191923 0.278245 0.165639
v -0.191923 0.487550 0.165639
v -0.165639 0.487550 0.191923
v 0.191923 0.278245 0.165639
v 0.165639 0.278245 0.191923
v 0.165639 0.487550 0.191923
v 0.191923 0.487550 0.165639
v 0.165639 0.278245 -0.191923
v 0.191923 0.278245 -0.165639
v 0.191923 0.487550 -0.165639
v 0.165639 0.487550 -0.191923
vn -0.0000 -1.0000 -0.0000
vn 0.7071 -0.0000 0.7071
vn 0.9659 -0.0000 -0.2588
vn 0.9659 -0.0000 0.2588
vn 0.4825 0.7310 -0.4825
vn 0.2588 -0.0000 0.9659
vn -0.2588 -0.0000 0.9659
vn -0.7071 -0.0000 -0.7071
vn -0.9659 -0.0000 0.2588
vn -0.9659 -0.0000 -0.2588
vn -0.2588 -0.0000 -0.9659
vn 0.4825 -0.7310 0.4825
vn 0.7071 -0.0000 -0.7071
vn 0.2588 -0.0000 -0.9659
vn -0.0000 1.0000 -0.0000
vn -0.7071 -0.0000 0.7071
vn 0.1830 -0.7071 -0.6830
vn 0.1830 0.7071 -0.6830
vn 0.5000 -0.7071 -0.5000
vn 0.5000 0.7071 -0.5000
vn 0.6830 -0.7071 -0.1830
vn 0.6830 0.7071 -0.1830
vn 0.6830 -0.7071 0.1830
vn 0.6830 0.7071 0.1830
vn 0.5000 -0.7071 0.5000
vn 0.5000 0.7071 0.5000
vn 0.1830 -0.7071 0.6830
vn 0.1830 0.7071 0.6830
vn -0.1830 -0.7071 0.6830
vn -0.1830 0.7071 0.6830
vn -0.5000 -0.7071 0.5000
vn -0.5000 0.7071 0.5000
vn -0.6830 -0.7071 0.1830
vn -0.6830 0.7071 0.1830
vn -0.6830 -0.7071 -0.1830
vn -0.6830 0.7071 -0.1830
vn -0.5000 -0.7071 -0.5000
vn -0.5000 0.7071 -0.5000
vn -0.1830 -0.7071 -0.6830
vn -0.1830 0.7071 -0.6830
vn 0.4825 -0.7310 -0.4825
vn -0.4825 0.7310 -0.4825
vn -0.4825 -0.7310 -0.4825
vn -0.4825 0.7310 0.4825
vn -0.4825 -0.7310 0.4825
vn 0.4825 0.7310 0.4825
vt 0.416667 0.823433
vt 0.500000 0.823433
vt 0.359821 0.798365
vt 0.359821 0.701626
vt 0.833333 0.676558
vt 0.833333 0.823433
vt 0.750000 0.823433
vt 0.750000 0.676558
vt 0.750000 0.676558
vt 0.750000 0.823433
vt 0.666667 0.823433
vt 0.666667 0.676558
vt 0.859820 0.701626
vt 0.890180 0.701626
vt 0.583333 0.676558
vt 0.583333 0.823433
vt 0.500000 0.676558
vt 0.500000 0.676558
vt 0.416667 0.676558
vt 0.390180 0.701626
vt 0.390180 0.798365
vt 0.333333 0.676558
vt 0.333333 0.823433
vt 0.250000 0.823433
vt 0.250000 0.676558
vt 0.250000 0.676558
vt 0.166667 0.823433
vt 0.166667 0.676558
vt 0.083333 0.872921
vt 0.083333 0.980971
vt 0.000000 0.980971
vt 0.000000 0.872921
vt 0.640180 0.798365
vt 0.609820 0.798365
vt 0.916667 0.847721
vt 0.833333 0.847721
vt 0.833333 0.839752
vt 0.916667 0.839752
vt 0.083333 0.519029
vt 0.083333 0.627070
vt 0.000000 0.627070
vt 0.000000 0.519029
vt 1.000000 0.676558
vt 1.000000 0.823433
vt 0.916667 0.823433
vt 0.916667 0.676558
vt 0.666667 0.839752
vt 0.583333 0.839752
vt 0.083333 0.839752
vt 0.000000 0.839752
vt 0.583333 0.660239
vt 0.666667 0.660239
vt 0.000000 0.660239
vt 0.083333 0.660239
vt 0.333333 0.823433
vt 0.583333 0.839752
vt 0.500000 0.839752
vt 0.416667 0.676558
vt 0.333333 0.676558
vt 0.500000 0.660239
vt 0.583333 0.660239
vt 0.833333 0.823433
vt 0.500000 0.839752
vt 0.416667 0.839752
vt 0.833333 0.676558
vt 0.416667 0.660239
vt 0.500000 0.660239
vt 1.000000 0.839752
vt 0.916667 0.839752
vt 0.083333 0.676558
vt 0.083333 0.823433
vt 0.000000 0.823433
vt 0.000000 0.676558
vt 1.000000 0.872921
vt 1.000000 0.980971
vt 0.916667 0.980971
vt 0.916667 0.872921
vt 0.416667 0.839752
vt 0.333333 0.839752
vt 0.083333 0.652270
vt 0.166667 0.652269
vt 0.166667 0.660239
vt 0.083333 0.660239
vt 0.166667 0.847721
vt 0.083333 0.847721
vt 0.166667 0.839752
vt 0.250000 0.652270
vt 0.250000 0.660239
vt 0.250000 0.847721
vt 0.166667 0.847721
vt 0.166667 0.839752
vt 0.250000 0.839752
vt 0.333333 0.652270
vt 0.333333 0.660239
vt 0.250000 0.660239
vt 0.333333 0.847721
vt 0.250000 0.847721
vt 0.250000 0.839752
vt 0.416667 0.652269
vt 0.333333 0.660239
vt 0.416667 0.847721
vt 0.500000 0.652270
vt 0.500000 0.847721
vt 0.416667 0.847721
vt 0.583333 0.652270
vt 0.583333 0.847721
vt 0.500000 0.847721
vt 0.666667 0.652269
vt 0.666667 0.847721
vt 0.750000 0.652270
vt 0.750000 0.660239
vt 0.750000 0.847721
vt 0.666667 0.847721
vt 0.666667 0.839752
vt 0.750000 0.839752
vt 0.833333 0.652270
vt 0.833333 0.660239
vt 0.750000 0.660239
vt 0.750000 0.847721
vt 0.750000 0.839752
vt 0.916667 0.652269
vt 0.916667 0.660239
vt 0.833333 0.660239
vt 0.916667 0.519029
vt 0.916667 0.627070
vt 0.833333 0.627070
vt 0.833333 0.519029
vt 0.000000 0.847721
vt 0.590148 0.342291
vt 0.657709 0.409852
vt 1.000000 0.847721
vt 0.916667 0.847721
vt 0.166667 0.872921
vt 0.166667 0.980971
vt 0.083333 0.980971
vt 0.083333 0.872921
vt 0.250000 0.872921
vt 0.250000 0.980971
vt 0.166667 0.980971
vt 0.166667 0.872921
vt 0.166667 0.519029
vt 0.166667 0.627070
vt 0.083333 0.627070
vt 0.083333 0.519029
vt 0.333333 0.872921
vt 0.333333 0.980971
vt 0.250000 0.980971
vt 0.250000 0.872921
vt 0.250000 0.519029
vt 0.250000 0.627070
vt 0.166667 0.519029
vt 0.416667 0.872921
vt 0.416667 0.980971
vt 0.333333 0.980971
vt 0.333333 0.872921
vt 0.333333 0.519029
vt 0.333333 0.627070
vt 0.500000 0.872921
vt 0.500000 0.980971
vt 0.416667 0.980971
vt 0.416667 0.872921
vt 0.416667 0.519029
vt 0.416667 0.627070
vt 0.583333 0.872921
vt 0.583333 0.980971
vt 0.500000 0.980971
vt 0.500000 0.872921
vt 0.500000 0.519029
vt 0.500000 0.627070
vt 0.666667 0.872921
vt 0.666667 0.980971
vt 0.583333 0.980971
vt 0.583333 0.872921
vt 0.583333 0.519029
vt 0.583333 0.627070
vt 0.750000 0.872921
vt 0.750000 0.980971
vt 0.666667 0.980971
vt 0.666667 0.872921
vt 0.666667 0.519029
vt 0.666667 0.627070
vt 0.833333 0.872921
vt 0.833333 0.980971
vt 0.750000 0.980971
vt 0.750000 0.872921
vt 0.750000 0.519029
vt 0.750000 0.627070
vt 0.916667 0.872921
vt 0.916667 0.980971
vt 0.833333 0.980971
vt 0.833333 0.872921
vt 0.833333 0.519029
vt 0.750000 0.519029
vt 0.000000 0.652270
vt 0.083333 0.652270
vt 0.434581 0.250000
vt 0.409852 0.342291
vt 1.000000 0.660239
vt 1.000000 0.652270
vt 0.916667 0.627070
vt 1.000000 0.627070
vt 0.083333 0.676558
vt 0.083333 0.823433
vt 0.583333 0.676558
vt 0.583333 0.823433
vt 0.666667 0.823433
vt 0.666667 0.632003
vt 0.750000 0.632003
vt 0.166667 0.647336
vt 0.083333 0.647337
vt 1.000000 0.647337
vt 0.916667 0.647336
vt 0.416667 0.867988
vt 0.333333 0.867988
vt 0.583333 0.852654
vt 0.666667 0.852654
vt 0.083333 0.632003
vt 0.166667 0.632003
vt 0.916667 0.632003
vt 1.000000 0.632003
vt 0.416667 0.647336
vt 0.333333 0.647337
vt 0.666667 0.867988
vt 0.583333 0.867988
vt 0.000000 0.852654
vt 0.083333 0.852654
vt 0.833333 0.852654
vt 0.916667 0.852654
vt 0.333333 0.632003
vt 0.416667 0.632003
vt 0.666667 0.647336
vt 0.583333 0.647337
vt 0.083333 0.867988
vt 0.000000 0.867988
vt 0.916667 0.867988
vt 0.833333 0.867988
vt 0.250000 0.852654
vt 0.333333 0.852654
vt 0.583333 0.632003
vt 0.000000 0.647337
vt 0.833333 0.647337
vt 0.250000 0.867988
vt 0.500000 0.852654
vt 0.000000 0.632003
vt 0.833333 0.632003
vt 0.250000 0.647337
vt 0.166667 0.867988
vt 0.166667 0.852654
vt 0.250000 0.632003
vt 0.416667 0.852654
vt 0.500000 0.632003
vt 0.500000 0.647337
vt 0.500000 0.867988
vt 0.750000 0.647337
vt 0.750000 0.867988
vt 0.750000 0.852654
vt 1.000000 0.867988
vt 1.000000 0.852654
vt 0.750000 0.490000
vt 0.870000 0.457846
vt 0.860367 0.441161
vt 0.750000 0.470733
vt 0.370000 0.457846
vt 0.250000 0.490000
vt 0.250000 0.470733
vt 0.360367 0.441161
vt 0.957846 0.370000
vt 0.941161 0.360367
vt 0.457846 0.370000
vt 0.441161 0.360367
vt 0.990000 0.250000
vt 0.970733 0.250000
vt 0.490000 0.250000
vt 0.470733 0.250000
vt 0.957846 0.130000
vt 0.941161 0.139633
vt 0.457846 0.130000
vt 0.441161 0.139633
vt 0.870000 0.042154
vt 0.860367 0.058839
vt 0.370000 0.042154
vt 0.360367 0.058839
vt 0.750000 0.010000
vt 0.750000 0.029267
vt 0.250000 0.010000
vt 0.250000 0.029267
vt 0.630000 0.042154
vt 0.639633 0.058839
vt 0.130000 0.042154
vt 0.139633 0.058839
vt 0.542154 0.130000
vt 0.558839 0.139633
vt 0.042154 0.130000
vt 0.058839 0.139633
vt 0.510000 0.250000
vt 0.529267 0.250000
vt 0.010000 0.250000
vt 0.029267 0.250000
vt 0.542154 0.370000
vt 0.558839 0.360367
vt 0.042154 0.370000
vt 0.058839 0.360367
vt 0.630000 0.457846
vt 0.639633 0.441161
vt 0.130000 0.457846
vt 0.139633 0.441161
vt 1.000000 0.519029
vt 0.842291 0.409852
vt 0.750000 0.434581
vt 0.250000 0.434581
vt 0.342291 0.409852
vt 0.909852 0.342291
vt 0.934581 0.250000
vt 0.909852 0.157709
vt 0.409852 0.157709
vt 0.842291 0.090148
vt 0.342291 0.090148
vt 0.750000 0.065419
vt 0.250000 0.065419
vt 0.657709 0.090148
vt 0.157709 0.090148
vt 0.590148 0.157709
vt 0.090148 0.157709
vt 0.565419 0.250000
vt 0.065419 0.250000
vt 0.090148 0.342291
vt 0.157709 0.409852
vt 0.140180 0.701626
vt 0.109821 0.701626
vt 0.109821 0.798365
vt 0.140180 0.798365
vt 0.640180 0.701626
vt 0.609820 0.701626
vt 0.859820 0.798365
vt 0.890180 0.798365
vt 0.135070 0.790818
vt 0.114930 0.790818
vt 0.885071 0.709173
vt 0.885070 0.790818
vt 0.135070 0.709173
vt 0.114930 0.709173
vt 0.385070 0.709173
vt 0.364930 0.709173
vt 0.364930 0.790818
vt 0.385070 0.790818
vt 0.635070 0.709173
vt 0.614930 0.709173
vt 0.614930 0.790818
vt 0.635070 0.790818
vt 0.864930 0.709173
vt 0.864930 0.790818
s 0
usemtl Noir_Light
f 392/1/1 13/2/1 110/2/1 108/1/1
f 17/3/2 18/4/2 406/4/2 407/3/2
f 398/5/3 399/6/3 7/7/3 8/8/3
f 8/9/4 7/10/4 396/11/4 393/12/4
f 6/13/5 4/14/5 413/14/5 414/13/5
f 394/15/6 395/16/6 13/2/6 14/17/6
f 14/18/7 13/2/7 392/1/7 389/19/7
f 16/20/8 15/21/8 408/21/8 405/20/8
f 390/22/9 391/23/9 19/24/9 20/25/9
f 20/26/10 19/24/10 388/27/10 385/28/10
f 94/29/11 336/30/11 291/31/11 51/32/11
f 9/33/12 11/34/12 411/34/12 412/33/12
f 53/35/13 57/36/13 29/37/13 27/38/13
f 333/39/11 95/40/11 50/41/11 290/42/11
f 1/43/14 2/44/14 400/45/14 397/46/14
f 33/47/15 35/48/15 136/48/15 138/47/15
f 47/49/15 26/50/15 123/50/15 124/49/15
f 14/18/15 389/19/15 107/19/15 109/18/15
f 36/51/1 34/52/1 137/52/1 135/51/1
f 400/45/1 2/44/1 99/44/1 120/45/1
f 25/53/1 48/54/1 121/54/1 122/53/1
f 391/55/1 392/1/1 108/1/1 106/55/1
f 35/56/15 37/57/15 134/57/15 136/56/15
f 1/43/15 397/46/15 119/46/15 98/43/15
f 389/58/15 390/59/15 105/59/15 107/58/15
f 38/60/1 36/61/1 135/61/1 133/60/1
f 399/62/1 400/45/1 120/45/1 118/62/1
f 19/24/1 391/23/1 106/23/1 104/24/1
f 37/63/15 39/64/15 132/64/15 134/63/15
f 397/46/15 398/65/15 117/65/15 119/46/15
f 390/22/15 20/25/15 103/25/15 105/22/15
f 40/66/1 38/67/1 133/67/1 131/66/1
f 7/7/1 399/6/1 118/6/1 116/7/1
f 26/68/15 27/69/15 144/69/15 123/68/15
f 388/27/1 19/24/1 104/24/1 102/27/1
f 386/70/11 387/71/11 2/72/11 1/73/11
f 51/74/14 291/75/14 296/76/14 54/77/14
f 39/78/15 41/79/15 130/79/15 132/78/15
f 96/80/8 92/81/8 46/82/8 48/83/8
f 89/84/8 93/85/8 47/49/8 45/86/8
f 92/81/10 88/87/10 44/88/10 46/82/10
f 85/89/10 89/90/10 45/91/10 43/92/10
f 88/87/9 84/93/9 42/94/9 44/95/9
f 81/96/9 85/97/9 43/98/9 41/79/9
f 84/93/16 80/99/16 40/66/16 42/100/16
f 77/101/16 81/96/16 41/79/16 39/78/16
f 80/99/7 76/102/7 38/67/7 40/66/7
f 73/103/7 77/104/7 39/64/7 37/63/7
f 76/102/6 72/105/6 36/61/6 38/60/6
f 69/106/6 73/107/6 37/57/6 35/56/6
f 72/105/2 68/108/2 34/52/2 36/51/2
f 65/109/2 69/106/2 35/48/2 33/47/2
f 68/108/4 64/110/4 32/111/4 34/52/4
f 61/112/4 65/113/4 33/114/4 31/115/4
f 64/110/3 60/116/3 30/117/3 32/118/3
f 57/36/3 61/119/3 31/120/3 29/37/3
f 60/116/13 56/121/13 28/122/13 30/123/13
f 398/5/15 8/8/15 115/8/15 117/5/15
f 293/124/13 55/125/13 59/126/13 297/127/13
f 93/85/11 52/128/11 26/50/11 47/49/11
f 330/129/2 334/130/2 383/130/2 381/129/2
f 52/131/14 53/132/14 27/69/14 26/68/14
f 90/133/8 332/134/8 336/135/8 94/136/8
f 86/137/10 328/138/10 332/139/10 90/140/10
f 329/141/8 91/142/8 95/143/8 333/144/8
f 82/145/9 324/146/9 328/147/9 86/148/9
f 325/149/10 87/150/10 91/142/10 329/151/10
f 78/152/16 320/153/16 324/154/16 82/155/16
f 321/156/9 83/157/9 87/150/9 325/149/9
f 74/158/7 316/159/7 320/160/7 78/161/7
f 317/162/16 79/163/16 83/157/16 321/156/16
f 70/164/6 312/165/6 316/166/6 74/167/6
f 313/168/7 75/169/7 79/163/7 317/162/7
f 66/170/2 308/171/2 312/172/2 70/173/2
f 309/174/6 71/175/6 75/169/6 313/168/6
f 62/176/4 304/177/4 308/178/4 66/179/4
f 305/180/2 67/181/2 71/175/2 309/174/2
f 58/182/3 300/183/3 304/184/3 62/185/3
f 301/186/4 63/187/4 67/181/4 305/180/4
f 54/188/13 296/189/13 300/190/13 58/191/13
f 297/192/3 59/126/3 63/187/3 301/193/3
f 49/194/11 96/195/11 48/54/11 25/53/11
f 303/196/9 299/197/9 366/197/9 368/196/9
f 28/122/1 25/198/1 122/198/1 143/122/1
f 52/128/15 93/85/15 149/85/15 152/128/15
f 87/150/15 83/157/15 209/157/15 205/150/15
f 58/182/1 62/185/1 184/185/1 188/182/1
f 68/108/1 72/105/1 174/105/1 178/108/1
f 89/90/15 85/89/15 159/89/15 155/90/15
f 79/163/15 75/169/15 217/169/15 213/163/15
f 94/29/1 51/32/1 198/32/1 150/29/1
f 86/137/1 90/140/1 156/140/1 160/137/1
f 60/116/1 64/110/1 182/110/1 186/116/1
f 81/96/15 77/101/15 167/101/15 163/96/15
f 53/132/15 52/131/15 152/131/15 191/132/15
f 71/175/15 67/181/15 225/181/15 221/175/15
f 78/152/1 82/155/1 211/155/1 215/152/1
f 96/195/1 49/194/1 196/194/1 195/195/1
f 51/74/1 54/77/1 239/77/1 198/74/1
f 73/107/15 69/106/15 224/106/15 220/107/15
f 88/87/1 92/81/1 202/81/1 206/87/1
f 63/187/15 59/126/15 233/126/15 229/187/15
f 49/199/1 56/121/1 238/121/1 196/199/1
f 70/164/1 74/167/1 219/167/1 223/164/1
f 65/113/15 61/112/15 232/112/15 228/113/15
f 80/99/1 84/93/1 210/93/1 214/99/1
f 50/41/15 95/40/15 194/40/15 193/41/15
f 55/200/15 50/201/15 193/201/15 237/200/15
f 56/121/14 49/199/14 25/198/14 28/122/14
f 119/46/13 117/65/13 141/123/13 143/122/13
f 144/38/13 142/37/13 118/62/13 120/45/13
f 101/28/8 97/202/8 121/83/8 125/82/8
f 126/86/8 124/49/8 100/203/8 102/27/8
f 103/26/10 101/28/10 125/82/10 127/88/10
f 128/92/10 126/91/10 102/27/10 104/24/10
f 105/22/9 103/25/9 127/95/9 129/94/9
f 130/79/9 128/98/9 104/24/9 106/23/9
f 107/58/16 105/59/16 129/100/16 131/66/16
f 132/78/16 130/79/16 106/55/16 108/1/16
f 109/18/7 107/19/7 131/66/7 133/67/7
f 134/63/7 132/64/7 108/1/7 110/2/7
f 111/15/6 109/17/6 133/60/6 135/61/6
f 136/56/6 134/57/6 110/2/6 112/16/6
f 113/12/2 111/204/2 135/51/2 137/52/2
f 138/47/2 136/48/2 112/205/2 114/206/2
f 115/9/4 113/12/4 137/52/4 139/111/4
f 140/115/4 138/114/4 114/11/4 116/10/4
f 117/5/3 115/8/3 139/118/3 141/117/3
f 142/37/3 140/120/3 116/7/3 118/6/3
f 124/49/11 123/50/11 99/72/11 100/71/11
f 123/68/14 144/69/14 120/45/14 99/44/14
f 97/70/11 98/73/11 122/53/11 121/54/11
f 98/43/14 119/46/14 143/122/14 122/198/14
f 48/83/1 46/82/1 125/82/1 121/83/1
f 34/52/1 32/111/1 139/111/1 137/52/1
f 394/15/15 14/17/15 109/17/15 111/15/15
f 45/86/15 47/49/15 124/49/15 126/86/15
f 31/115/15 33/114/15 138/114/15 140/115/15
f 13/2/1 395/16/1 112/16/1 110/2/1
f 46/82/1 44/88/1 127/88/1 125/82/1
f 386/70/15 1/73/15 98/73/15 97/70/15
f 32/118/1 30/117/1 141/117/1 139/118/1
f 393/12/15 394/204/15 111/204/15 113/12/15
f 43/92/15 45/91/15 126/91/15 128/92/15
f 2/72/1 387/71/1 100/71/1 99/72/1
f 29/37/15 31/120/15 140/120/15 142/37/15
f 395/205/1 396/206/1 114/206/1 112/205/1
f 44/95/1 42/94/1 129/94/1 127/95/1
f 385/28/15 386/202/15 97/202/15 101/28/15
f 30/123/1 28/122/1 143/122/1 141/123/1
f 8/9/15 393/12/15 113/12/15 115/9/15
f 41/79/15 43/98/15 128/98/15 130/79/15
f 387/203/1 388/27/1 102/27/1 100/203/1
f 27/38/15 29/37/15 142/37/15 144/38/15
f 396/11/1 7/10/1 116/10/1 114/11/1
f 42/100/1 40/66/1 131/66/1 129/100/1
f 20/26/15 385/28/15 101/28/15 103/26/15
f 76/102/1 80/99/1 214/99/1 170/102/1
f 61/119/15 57/36/15 187/36/15 232/119/15
f 66/170/1 70/173/1 223/173/1 180/170/1
f 95/143/15 91/142/15 201/142/15 194/143/15
f 59/126/15 55/125/15 237/125/15 233/126/15
f 84/93/1 88/87/1 206/87/1 210/93/1
f 69/106/15 65/109/15 228/109/15 224/106/15
f 74/158/1 78/161/1 215/161/1 219/158/1
f 67/181/15 63/187/15 229/187/15 225/181/15
f 92/81/1 96/80/1 195/80/1 202/81/1
f 77/104/15 73/103/15 220/103/15 167/104/15
f 56/121/1 60/116/1 186/116/1 238/121/1
f 82/145/1 86/148/1 160/148/1 211/145/1
f 75/169/15 71/175/15 221/175/15 217/169/15
f 85/97/15 81/96/15 163/96/15 159/97/15
f 64/110/1 68/108/1 178/108/1 182/110/1
f 90/133/1 94/136/1 150/136/1 156/133/1
f 54/188/1 58/191/1 188/191/1 239/188/1
f 83/157/15 79/163/15 213/163/15 209/157/15
f 93/85/15 89/84/15 155/84/15 149/85/15
f 72/105/1 76/102/1 170/102/1 174/105/1
f 57/36/15 53/35/15 191/35/15 187/36/15
f 62/176/1 66/179/1 180/179/1 184/176/1
f 91/142/15 87/150/15 205/150/15 201/142/15
f 290/259/17 293/260/17 337/261/17 338/262/17
f 296/263/18 291/264/18 339/265/18 340/266/18
f 293/260/19 297/267/19 341/268/19 337/261/19
f 300/269/20 296/263/20 340/266/20 342/270/20
f 297/267/21 301/271/21 343/272/21 341/268/21
f 304/273/22 300/269/22 342/270/22 344/274/22
f 301/271/23 305/275/23 345/276/23 343/272/23
f 308/277/24 304/273/24 344/274/24 346/278/24
f 305/275/25 309/279/25 347/280/25 345/276/25
f 312/281/26 308/277/26 346/278/26 348/282/26
f 309/279/27 313/283/27 349/284/27 347/280/27
f 316/285/28 312/281/28 348/282/28 350/286/28
f 313/283/29 317/287/29 351/288/29 349/284/29
f 320/289/30 316/285/30 350/286/30 352/290/30
f 317/287/31 321/291/31 353/292/31 351/288/31
f 324/293/32 320/289/32 352/290/32 354/294/32
f 321/291/33 325/295/33 355/296/33 353/292/33
f 328/297/34 324/293/34 354/294/34 356/298/34
f 325/295/35 329/299/35 357/300/35 355/296/35
f 332/301/36 328/297/36 356/298/36 358/302/36
f 329/299/37 333/303/37 359/304/37 357/300/37
f 336/305/38 332/301/38 358/302/38 360/306/38
f 333/303/39 290/259/39 338/262/39 359/304/39
f 291/264/40 336/305/40 360/306/40 339/265/40
f 290/307/14 50/201/14 55/200/14 293/124/14
f 294/308/1 289/309/1 338/262/1 337/261/1
f 292/310/15 295/311/15 340/266/15 339/265/15
f 298/312/1 294/308/1 337/261/1 341/268/1
f 295/311/15 299/197/15 342/270/15 340/266/15
f 302/313/1 298/312/1 341/268/1 343/272/1
f 299/197/15 303/196/15 344/274/15 342/270/15
f 306/314/1 302/313/1 343/272/1 345/276/1
f 303/196/15 307/315/15 346/278/15 344/274/15
f 310/316/1 306/314/1 345/276/1 347/280/1
f 307/315/15 311/317/15 348/282/15 346/278/15
f 314/318/1 310/316/1 347/280/1 349/284/1
f 311/317/15 315/319/15 350/286/15 348/282/15
f 318/320/1 314/318/1 349/284/1 351/288/1
f 315/319/15 319/321/15 352/290/15 350/286/15
f 322/322/1 318/320/1 351/288/1 353/292/1
f 319/321/15 323/323/15 354/294/15 352/290/15
f 326/324/1 322/322/1 353/292/1 355/296/1
f 323/323/15 327/325/15 356/298/15 354/294/15
f 330/129/1 326/324/1 355/296/1 357/300/1
f 327/325/15 331/326/15 358/302/15 356/298/15
f 334/130/1 330/129/1 357/300/1 359/304/1
f 331/326/15 335/327/15 360/306/15 358/302/15
f 289/309/1 334/130/1 359/304/1 338/262/1
f 335/327/15 292/310/15 339/265/15 360/306/15
f 319/321/14 315/319/14 374/319/14 376/321/14
f 302/313/10 306/314/10 369/314/10 367/313/10
f 335/327/2 331/326/2 382/326/2 384/327/2
f 318/320/13 322/322/13 377/322/13 375/320/13
f 307/315/10 303/196/10 368/196/10 370/315/10
f 334/130/6 289/309/6 362/309/6 383/130/6
f 289/309/7 294/308/7 361/308/7 362/309/7
f 323/323/13 319/321/13 376/321/13 378/323/13
f 306/314/8 310/316/8 371/316/8 369/314/8
f 292/310/6 335/327/6 384/327/6 363/310/6
f 295/311/7 292/310/7 363/310/7 364/311/7
f 322/322/3 326/324/3 379/324/3 377/322/3
f 311/317/8 307/315/8 370/315/8 372/317/8
f 294/308/16 298/312/16 365/312/16 361/308/16
f 327/325/3 323/323/3 378/323/3 380/325/3
f 310/316/11 314/318/11 373/318/11 371/316/11
f 299/197/16 295/311/16 364/311/16 366/197/16
f 326/324/4 330/129/4 381/129/4 379/324/4
f 315/319/11 311/317/11 372/317/11 374/319/11
f 298/312/9 302/313/9 367/313/9 365/312/9
f 331/326/4 327/325/4 380/325/4 382/326/4
f 314/318/14 318/320/14 375/320/14 373/318/14
f 22/328/8 24/329/8 386/202/8 385/28/8
f 23/330/8 21/331/8 388/27/8 387/203/8
f 16/20/16 18/4/16 390/59/16 389/58/16
f 17/3/16 15/21/16 392/1/16 391/55/16
f 10/332/2 12/333/2 394/204/2 393/12/2
f 11/34/2 9/33/2 396/206/2 395/205/2
f 4/14/13 6/13/13 398/65/13 397/46/13
f 5/334/13 3/335/13 400/45/13 399/62/13
f 3/335/13 4/14/13 397/46/13 400/45/13
f 24/329/8 23/330/8 387/203/8 386/202/8
f 6/13/13 5/334/13 399/62/13 398/65/13
f 9/33/2 10/332/2 393/12/2 396/206/2
f 12/333/2 11/34/2 395/205/2 394/204/2
f 15/21/16 16/20/16 389/58/16 392/1/16
f 18/4/16 17/3/16 391/55/16 390/59/16
f 21/331/8 22/328/8 385/28/8 388/27/8
f 410/333/15 409/332/15 441/332/15 442/333/15
f 409/332/16 412/33/16 444/33/16 441/332/16
f 408/21/1 407/3/1 439/3/1 440/21/1
f 415/334/8 414/13/8 446/13/8 447/334/8
f 3/335/41 5/334/41 415/334/41 416/335/41
f 24/329/42 22/328/42 401/328/42 402/329/42
f 22/328/13 21/331/13 404/331/13 401/328/13
f 4/14/2 3/335/2 416/335/2 413/14/2
f 21/331/43 23/330/43 403/330/43 404/331/43
f 23/330/16 24/329/16 402/329/16 403/330/16
f 18/4/44 16/20/44 405/20/44 406/4/44
f 5/334/8 6/13/8 414/13/8 415/334/8
f 15/21/45 17/3/45 407/3/45 408/21/45
f 10/332/16 9/33/16 412/33/16 409/332/16
f 12/333/46 10/332/46 409/332/46 410/333/46
f 11/34/13 12/333/13 410/333/13 411/34/13
f 411/34/13 410/333/13 442/333/13 443/34/13
f 412/33/1 411/34/1 443/34/1 444/33/1
f 405/20/8 408/21/8 440/21/8 437/20/8
f 414/13/15 413/14/15 445/14/15 446/13/15
f 407/3/2 406/4/2 438/4/2 439/3/2
f 416/335/1 415/334/1 447/334/1 448/335/1
f 402/329/15 401/328/15 433/328/15 434/329/15
f 401/328/13 404/331/13 436/331/13 433/328/13
f 413/14/2 416/335/2 448/335/2 445/14/2
f 404/331/1 403/330/1 435/330/1 436/331/1
f 403/330/16 402/329/16 434/329/16 435/330/16
f 406/4/15 405/20/15 437/20/15 438/4/15
usemtl Noir_Profond
f 177/207/15 181/208/15 277/208/15 273/207/15
f 154/209/1 148/210/1 244/210/1 250/209/1
f 145/211/1 190/212/1 286/212/1 241/211/1
f 168/213/1 164/214/1 260/214/1 264/213/1
f 175/215/15 179/216/15 275/216/15 271/215/15
f 147/217/15 153/218/15 249/218/15 243/217/15
f 189/219/15 146/220/15 242/220/15 285/219/15
f 166/221/1 162/222/1 258/222/1 262/221/1
f 227/223/1 176/224/1 272/224/1 276/223/1
f 199/225/15 200/226/15 245/226/15 248/225/15
f 236/227/15 240/228/15 287/228/15 283/227/15
f 161/229/15 165/230/15 261/230/15 257/229/15
f 226/231/1 222/232/1 270/232/1 274/231/1
f 197/233/1 151/234/1 247/234/1 246/233/1
f 192/235/1 235/236/1 284/236/1 288/235/1
f 208/237/15 212/238/15 259/238/15 255/237/15
f 173/239/15 177/207/15 273/207/15 269/239/15
f 148/210/1 145/240/1 241/240/1 244/210/1
f 190/212/1 234/241/1 282/241/1 286/212/1
f 164/214/1 207/242/1 256/242/1 260/214/1
f 171/243/15 175/215/15 271/215/15 267/243/15
f 146/244/15 147/217/15 243/217/15 242/244/15
f 185/245/15 189/219/15 285/219/15 281/245/15
f 162/222/1 158/246/1 254/246/1 258/222/1
f 147/217/11 146/244/11 193/41/11 194/40/11
f 145/240/11 148/210/11 195/195/11 196/194/11
f 151/234/11 197/233/11 150/29/11 198/32/11
f 200/226/11 199/225/11 152/128/11 149/85/11
f 153/218/8 147/217/8 194/143/8 201/142/8
f 148/210/8 154/209/8 202/81/8 195/80/8
f 197/233/8 203/247/8 156/133/8 150/136/8
f 204/248/8 200/226/8 149/85/8 155/84/8
f 157/249/10 153/218/10 201/142/10 205/150/10
f 154/209/10 158/246/10 206/87/10 202/81/10
f 203/247/10 207/242/10 160/137/10 156/140/10
f 208/237/10 204/248/10 155/90/10 159/89/10
f 161/229/9 157/249/9 205/150/9 209/157/9
f 158/246/9 162/222/9 210/93/9 206/87/9
f 207/242/9 164/214/9 211/145/9 160/148/9
f 212/238/9 208/237/9 159/97/9 163/96/9
f 165/230/16 161/229/16 209/157/16 213/163/16
f 162/222/16 166/221/16 214/99/16 210/93/16
f 164/214/16 168/213/16 215/152/16 211/155/16
f 216/250/16 212/238/16 163/96/16 167/101/16
f 169/251/7 165/230/7 213/163/7 217/169/7
f 166/221/7 218/252/7 170/102/7 214/99/7
f 168/213/7 172/253/7 219/158/7 215/161/7
f 171/243/7 216/250/7 167/104/7 220/103/7
f 173/239/6 169/251/6 217/169/6 221/175/6
f 218/252/6 222/232/6 174/105/6 170/102/6
f 172/253/6 176/224/6 223/164/6 219/167/6
f 175/215/6 171/243/6 220/107/6 224/106/6
f 177/207/2 173/239/2 221/175/2 225/181/2
f 222/232/2 226/231/2 178/108/2 174/105/2
f 176/224/2 227/223/2 180/170/2 223/173/2
f 179/216/2 175/215/2 224/106/2 228/109/2
f 181/208/4 177/207/4 225/181/4 229/187/4
f 226/231/4 230/254/4 182/110/4 178/108/4
f 227/223/4 231/255/4 184/176/4 180/179/4
f 183/256/4 179/216/4 228/113/4 232/112/4
f 185/245/3 181/208/3 229/187/3 233/126/3
f 230/254/3 234/241/3 186/116/3 182/110/3
f 231/255/3 235/236/3 188/182/3 184/185/3
f 236/227/3 183/256/3 232/119/3 187/36/3
f 189/219/13 185/245/13 233/126/13 237/125/13
f 234/241/13 190/212/13 238/121/13 186/116/13
f 235/236/13 192/235/13 239/188/13 188/191/13
f 240/228/13 236/227/13 187/36/13 191/35/13
f 146/220/14 189/219/14 237/200/14 193/201/14
f 190/212/14 145/211/14 196/199/14 238/121/14
f 192/235/14 151/257/14 198/74/14 239/77/14
f 199/258/14 240/228/14 191/132/14 152/131/14
f 212/238/15 216/250/15 263/250/15 259/238/15
f 151/257/1 192/235/1 288/235/1 247/257/1
f 203/247/1 197/233/1 246/233/1 252/247/1
f 230/254/1 226/231/1 274/231/1 278/254/1
f 165/230/15 169/251/15 265/251/15 261/230/15
f 240/228/15 199/258/15 248/258/15 287/228/15
f 200/226/15 204/248/15 251/248/15 245/226/15
f 231/255/1 227/223/1 276/223/1 280/255/1
f 218/252/1 166/221/1 262/221/1 266/252/1
f 153/218/15 157/249/15 253/249/15 249/218/15
f 179/216/15 183/256/15 279/256/15 275/216/15
f 172/253/1 168/213/1 264/213/1 268/253/1
f 158/246/1 154/209/1 250/209/1 254/246/1
f 181/208/15 185/245/15 281/245/15 277/208/15
f 216/250/15 171/243/15 267/243/15 263/250/15
f 207/242/1 203/247/1 252/247/1 256/242/1
f 234/241/1 230/254/1 278/254/1 282/241/1
f 169/251/15 173/239/15 269/239/15 265/251/15
f 204/248/15 208/237/15 255/237/15 251/248/15
f 235/236/1 231/255/1 280/255/1 284/236/1
f 222/232/1 218/252/1 266/252/1 270/232/1
f 157/249/15 161/229/15 257/229/15 253/249/15
f 183/256/15 236/227/15 283/227/15 279/256/15
f 176/224/1 172/253/1 268/253/1 272/224/1
f 420/336/1 419/337/1 451/337/1 452/336/1
f 429/338/2 432/339/2 464/339/2 461/338/2
f 417/340/13 420/336/13 452/336/13 449/340/13
f 418/341/15 417/340/15 449/340/15 450/341/15
f 417/340/8 418/341/8 434/329/8 433/328/8
f 419/337/8 420/336/8 436/331/8 435/330/8
f 421/342/16 422/343/16 438/4/16 437/20/16
f 423/344/16 424/345/16 440/21/16 439/3/16
f 425/346/2 426/347/2 442/333/2 441/332/2
f 427/348/2 428/349/2 444/33/2 443/34/2
f 429/338/13 430/350/13 446/13/13 445/14/13
f 431/351/13 432/339/13 448/335/13 447/334/13
f 432/339/13 429/338/13 445/14/13 448/335/13
f 418/341/8 419/337/8 435/330/8 434/329/8
f 430/350/13 431/351/13 447/334/13 446/13/13
f 428/349/2 425/346/2 441/332/2 444/33/2
f 426/347/2 427/348/2 443/34/2 442/333/2
f 424/345/16 421/342/16 437/20/16 440/21/16
f 422/343/16 423/344/16 439/3/16 438/4/16
f 420/336/8 417/340/8 433/328/8 436/331/8
f 419/337/16 418/341/16 450/341/16 451/337/16
f 422/343/15 421/342/15 453/342/15 454/343/15
f 431/351/8 430/350/8 462/350/8 463/351/8
f 424/345/1 423/344/1 455/344/1 456/345/1
f 425/346/16 428/349/16 460/349/16 457/346/16
f 426/347/15 425/346/15 457/346/15 458/347/15
f 427/348/13 426/347/13 458/347/13 459/348/13
f 428/349/1 427/348/1 459/348/1 460/349/1
f 421/342/8 424/345/8 456/345/8 453/342/8
f 430/350/15 429/338/15 461/338/15 462/350/15
f 423/344/2 422/343/2 454/343/2 455/344/2
f 432/339/1 431/351/1 463/351/1 464/339/1
usemtl Bleu_Neon
f 242/244/11 243/217/11 244/210/11 241/240/11
f 246/233/11 247/234/11 248/225/11 245/226/11
f 243/217/8 249/218/8 250/209/8 244/210/8
f 252/247/8 246/233/8 245/226/8 251/248/8
f 249/218/10 253/249/10 254/246/10 250/209/10
f 256/242/10 252/247/10 251/248/10 255/237/10
f 253/249/9 257/229/9 258/222/9 254/246/9
f 260/214/9 256/242/9 255/237/9 259/238/9
f 257/229/16 261/230/16 262/221/16 258/222/16
f 264/213/16 260/214/16 259/238/16 263/250/16
f 261/230/7 265/251/7 266/252/7 262/221/7
f 268/253/7 264/213/7 263/250/7 267/243/7
f 265/251/6 269/239/6 270/232/6 266/252/6
f 272/224/6 268/253/6 267/243/6 271/215/6
f 269/239/2 273/207/2 274/231/2 270/232/2
f 276/223/2 272/224/2 271/215/2 275/216/2
f 273/207/4 277/208/4 278/254/4 274/231/4
f 280/255/4 276/223/4 275/216/4 279/256/4
f 277/208/3 281/245/3 282/241/3 278/254/3
f 284/236/3 280/255/3 279/256/3 283/227/3
f 281/245/13 285/219/13 286/212/13 282/241/13
f 288/235/13 284/236/13 283/227/13 287/228/13
f 285/219/14 242/220/14 241/211/14 286/212/14
f 247/257/14 288/235/14 287/228/14 248/258/14
f 461/338/13 464/339/13 463/351/13 462/350/13
f 457/346/2 460/349/2 459/348/2 458/347/2
f 453/342/16 456/345/16 455/344/16 454/343/16
f 449/340/8 452/336/8 451/337/8 450/341/8
usemtl Violet
f 362/309/1 361/308/1 365/312/1 367/313/1 369/314/1 371/316/1 373/318/1 375/320/1 377/322/1 379/324/1 381/129/1 383/130/1
f 364/311/15 363/310/15 384/327/15 382/326/15 380/325/15 378/323/15 376/321/15 374/319/15 372/317/15 370/315/15 368/196/15 366/197/15
