# Blender 4.2.3 LTS
# www.blender.org
mtllib SM_Path_Post.mtl
o SM_Path_Post
v -0.138149 0.000000 -0.117552
v -0.138149 0.000000 0.117552
v 0.138149 0.000000 0.117552
v 0.138149 0.000000 -0.117552
v 0.094101 0.191981 -0.117552
v 0.094101 0.191981 0.117552
v -0.094101 0.191981 0.117552
v -0.094101 0.191981 -0.117552
v -0.139806 0.125455 0.117552
v -0.139806 0.125455 -0.117552
v 0.139806 0.125455 -0.117552
v 0.139806 0.125455 0.117552
v 0.129295 0.767270 -0.163715
v 0.129295 0.813432 -0.117552
v 0.129295 0.813432 0.117552
v 0.129295 0.767270 0.163715
v -0.078380 0.191936 0.033194
v -0.078380 0.191936 -0.033194
v -0.129295 0.767270 0.163715
v -0.129295 0.813432 0.117552
v -0.129295 0.813432 -0.117552
v -0.129295 0.767270 -0.163715
v 0.092577 0.721107 -0.117552
v 0.092444 0.767270 -0.071390
v 0.092444 0.767270 0.071390
v 0.092577 0.721107 0.117552
v -0.092577 0.721107 0.117552
v -0.092444 0.767270 0.071390
v -0.092444 0.767270 -0.071390
v -0.092577 0.721107 -0.117552
v -0.030589 0.626179 0.233453
v 0.030589 0.626179 0.233453
v 0.030589 0.343997 0.233453
v -0.020127 0.343997 0.218401
v -0.020127 0.626179 0.218401
v 0.020127 0.626179 0.218401
v 0.020127 0.343997 0.218401
v 0.020127 0.343997 -0.218401
v 0.020127 0.626179 -0.218401
v -0.030589 0.343997 0.233453
v -0.020127 0.626179 -0.218401
v -0.030589 0.343997 -0.233453
v 0.030589 0.343997 -0.233453
v -0.020127 0.343997 -0.218401
v 0.030589 0.626179 -0.233453
v -0.030589 0.626179 -0.233453
v -0.152581 0.000000 0.250000
v -0.175000 0.000000 0.228222
v -0.175000 0.000000 -0.228222
v -0.152581 0.000000 -0.250000
v 0.175000 0.000000 0.228222
v 0.152581 0.000000 0.250000
v 0.152581 0.000000 -0.250000
v 0.175000 0.000000 -0.228222
v -0.106932 0.202906 0.250000
v -0.129295 0.202906 0.228222
v -0.106932 0.202906 -0.250000
v -0.129295 0.202906 -0.228222
v 0.129295 0.202906 -0.228222
v 0.106932 0.202906 -0.250000
v 0.106932 0.202906 0.250000
v 0.129295 0.202906 0.228222
v -0.175000 0.136379 -0.228222
v -0.152555 0.136379 -0.250000
v 0.152555 0.136379 -0.250000
v 0.175000 0.136379 -0.228222
v 0.175000 0.136379 0.228222
v 0.152555 0.136379 0.250000
v -0.175000 0.136379 0.228222
v -0.152555 0.136379 0.250000
v -0.129295 0.767270 0.228222
v -0.129295 0.767270 -0.228222
v 0.129295 0.767270 -0.228222
v 0.129295 0.767270 0.228222
v -0.129295 0.837564 0.113571
v -0.107456 0.863149 0.109350
v -0.107456 0.863149 -0.109350
v -0.129295 0.837564 -0.113571
v 0.129295 0.837564 -0.113571
v 0.107456 0.863149 -0.109350
v 0.107456 0.863149 0.109350
v 0.129295 0.837564 0.113571
v 0.107323 0.651120 0.250000
v 0.129295 0.657687 0.228222
v -0.107263 0.626179 0.233453
v -0.129295 0.632746 0.211675
v 0.129295 0.312488 0.228222
v 0.107075 0.319055 0.250000
v -0.129295 0.312488 0.228222
v -0.107075 0.319055 0.250000
v -0.129295 0.337429 0.211675
v -0.107183 0.343997 0.233453
v -0.129295 0.657687 0.228222
v -0.107323 0.651120 0.250000
v -0.107323 0.651120 -0.250000
v -0.129295 0.657687 -0.228222
v 0.107183 0.343997 0.233453
v 0.129295 0.337429 0.211675
v -0.129295 0.312488 -0.228222
v -0.107075 0.319055 -0.250000
v 0.129295 0.657687 -0.228222
v 0.107323 0.651120 -0.250000
v 0.129295 0.632746 0.211675
v 0.107263 0.626179 0.233453
v 0.129295 0.312488 -0.228222
v 0.107075 0.319055 -0.250000
v -0.129295 0.632746 -0.211675
v -0.107263 0.626179 -0.233453
v -0.107183 0.343997 -0.233453
v -0.129295 0.337429 -0.211675
v 0.107263 0.626179 -0.233453
v 0.129295 0.632746 -0.211675
v 0.129295 0.337429 -0.211675
v 0.107183 0.343997 -0.233453
v -0.129295 0.835485 0.228222
v -0.107401 0.844505 0.250000
v -0.129295 0.878222 0.185485
v -0.107425 0.900000 0.194505
v -0.129295 0.878222 -0.185485
v -0.107425 0.900000 -0.194505
v -0.129295 0.835485 -0.228222
v -0.107401 0.844505 -0.250000
v 0.129295 0.878222 0.185485
v 0.107425 0.900000 0.194505
v 0.129295 0.835485 0.228222
v 0.107401 0.844505 0.250000
v 0.129295 0.835485 -0.228222
v 0.107401 0.844505 -0.250000
v 0.129295 0.878222 -0.185485
v 0.107425 0.900000 -0.194505
v -0.129295 0.878222 0.150426
v -0.107441 0.900000 0.138595
v -0.129295 0.878222 -0.150426
v -0.107441 0.900000 -0.138595
v 0.129295 0.878222 -0.150426
v 0.107441 0.900000 -0.138595
v 0.129295 0.878222 0.150426
v 0.107441 0.900000 0.138595
v -0.160255 0.000000 -0.117552
v -0.175000 0.000000 -0.131049
v -0.175000 0.000000 0.131049
v -0.160255 0.000000 0.117552
v 0.160255 0.000000 0.117552
v 0.175000 0.000000 0.131049
v 0.175000 0.000000 -0.131049
v 0.160255 0.000000 -0.117552
v 0.129295 0.202906 -0.130846
v 0.114550 0.198328 -0.117552
v 0.114550 0.198328 0.117552
v 0.129295 0.202906 0.130846
v -0.129295 0.202906 0.130846
v -0.114550 0.198328 0.117552
v -0.114550 0.198328 -0.117552
v -0.129295 0.202906 -0.130846
v -0.175000 0.136379 0.131000
v -0.160255 0.131802 0.117552
v -0.160255 0.131802 -0.117552
v -0.175000 0.136379 -0.131000
v 0.175000 0.136379 -0.131000
v 0.160255 0.131802 -0.117552
v 0.160255 0.131802 0.117552
v 0.175000 0.136379 0.131000
v 0.129295 0.780228 -0.084348
v 0.114550 0.767270 -0.071390
v 0.114550 0.721107 -0.117552
v 0.129295 0.734131 -0.130576
v 0.129295 0.734131 0.130576
v 0.114550 0.721107 0.117552
v 0.114550 0.767270 0.071390
v 0.129295 0.780228 0.084348
v -0.129295 0.780228 0.084348
v -0.114550 0.767270 0.071390
v -0.114550 0.721107 0.117552
v -0.129295 0.734131 0.130576
v -0.129295 0.734131 -0.130576
v -0.114550 0.721107 -0.117552
v -0.114550 0.767270 -0.071390
v -0.129295 0.780228 -0.084348
v 0.078380 0.191936 -0.033194
v 0.078380 0.191936 0.033194
v 0.094101 0.191981 -0.033194
v 0.094101 0.191981 0.033194
v -0.094101 0.191981 0.033194
v -0.094101 0.191981 -0.033194
v 0.092444 0.767270 0.033194
v 0.092444 0.767270 -0.033194
v 0.092577 0.721107 -0.033194
v 0.092577 0.721107 0.033194
v -0.092444 0.767270 -0.033194
v -0.092444 0.767270 0.033194
v -0.092577 0.721107 0.033194
v -0.092577 0.721107 -0.033194
v 0.076723 0.767224 -0.033194
v 0.076723 0.767224 0.033194
v -0.076723 0.767224 0.033194
v -0.076723 0.767224 -0.033194
v -0.076743 0.760452 0.026421
v -0.076743 0.760452 -0.026421
v -0.078361 0.198708 -0.026421
v -0.078361 0.198708 0.026421
v 0.076743 0.760452 -0.026421
v 0.076743 0.760452 0.026421
v 0.078361 0.198708 0.026421
v 0.078361 0.198708 -0.026421
v -0.074567 0.760446 0.026421
v -0.074567 0.760446 -0.026421
v -0.076184 0.198702 0.026421
v -0.076184 0.198702 -0.026421
v 0.074567 0.760446 -0.026421
v 0.074567 0.760446 0.026421
v 0.076184 0.198702 -0.026421
v 0.076184 0.198702 0.026421
v -0.009236 0.615287 0.218401
v -0.009236 0.354888 0.218401
v 0.009236 0.354888 0.218401
v 0.009236 0.615287 0.218401
v 0.009236 0.615287 -0.218401
v 0.009236 0.354888 -0.218401
v -0.009236 0.354888 -0.218401
v -0.009236 0.615287 -0.218401
v -0.009236 0.615287 0.215341
v -0.009236 0.354888 0.215341
v 0.009236 0.615287 0.215341
v 0.009236 0.354888 0.215341
v 0.009236 0.615287 -0.215341
v 0.009236 0.354888 -0.215341
v -0.009236 0.615287 -0.215341
v -0.009236 0.354888 -0.215341
vn -0.0000 1.0000 -0.0000
vn -0.0000 -1.0000 -0.0000
vn 0.8242 0.5663 -0.0000
vn -0.0000 -0.0000 1.0000
vn -0.0000 -0.0000 -1.0000
vn 1.0000 -0.0000 -0.0000
vn -0.0000 0.6216 0.7833
vn -0.8242 0.5663 -0.0000
vn -1.0000 -0.0000 -0.0000
vn -0.0000 0.7071 0.7071
vn 0.9999 -0.0132 -0.0000
vn -0.9999 -0.0132 -0.0000
vn -1.0000 0.0029 -0.0000
vn 1.0000 0.0029 -0.0000
vn -0.7010 0.4628 -0.5425
vn -0.0000 -0.7071 0.7071
vn -0.0000 -0.7071 -0.7071
vn -0.0000 -0.5528 0.8333
vn -0.0000 0.5528 -0.8333
vn -0.0000 0.5528 0.8333
vn -0.0000 -0.5528 -0.8333
vn -0.0000 0.6216 -0.7833
vn -0.7046 -0.0001 0.7096
vn 0.8211 -0.0000 0.5707
vn -0.0000 0.7071 -0.7071
vn -0.8211 -0.0000 -0.5707
vn -0.8211 -0.0000 0.5707
vn 0.8211 -0.0000 -0.5707
vn -0.6966 0.0001 -0.7175
vn 0.6966 0.0001 -0.7175
vn 0.6966 0.0001 0.7175
vn -0.6288 0.4316 0.6468
vn -0.6988 -0.0004 -0.7153
vn 0.6988 -0.0004 -0.7153
vn 0.6988 -0.0004 0.7153
vn -0.6288 0.4316 -0.6468
vn 0.6288 0.4316 -0.6468
vn 0.6288 0.4316 0.6468
vn -0.6966 0.0001 0.7175
vn 0.7046 -0.0001 0.7096
vn -0.7606 0.6492 -0.0000
vn 0.7606 0.6492 -0.0000
vn -0.7046 -0.0001 -0.7096
vn -0.6988 -0.0004 0.7153
vn 0.7023 -0.0001 -0.7118
vn 0.7046 -0.0001 -0.7096
vn -0.7023 -0.0001 0.7118
vn 0.7023 -0.0001 0.7118
vn -0.7023 -0.0001 -0.7118
vn 0.7034 -0.3936 -0.5919
vn -0.7034 -0.3936 -0.5919
vn 0.7010 0.3932 0.5949
vn -0.7010 0.3932 0.5949
vn -0.7010 0.3932 -0.5949
vn 0.7010 0.3932 -0.5949
vn 0.7034 -0.3936 0.5919
vn -0.7034 -0.3936 0.5919
vn 0.7054 0.5011 -0.5013
vn -0.7054 0.5011 0.5013
vn -0.7054 0.5011 -0.5013
vn 0.7054 0.5011 0.5013
vn -0.7010 0.4628 0.5425
vn 0.7010 0.4628 0.5425
vn 0.7010 0.4628 -0.5425
vn -0.7057 0.7085 0.0001
vn -0.7057 0.7085 -0.0001
vn 0.7057 0.7085 -0.0001
vn 0.7057 0.7085 0.0001
vn 0.6745 -0.0001 0.7382
vn 0.6745 -0.0001 -0.7382
vn -0.6745 -0.0001 -0.7382
vn -0.6745 -0.0001 0.7382
vn -0.5540 0.3797 -0.7409
vn -0.5540 0.3797 0.7409
vn 0.5540 0.3797 0.7409
vn 0.5540 0.3797 -0.7409
vn 0.7799 -0.4429 0.4423
vn 0.7799 -0.4429 -0.4423
vn -0.7799 -0.4429 -0.4423
vn -0.7799 -0.4429 0.4423
vn 0.6659 -0.0002 0.7461
vn 0.6601 -0.7512 -0.0000
vn 0.6659 -0.0002 -0.7461
vn -0.6601 -0.7512 -0.0000
vn -0.6659 -0.0002 -0.7461
vn -0.6659 -0.0002 0.7461
vn 0.0029 -1.0000 -0.0000
vn -0.0029 1.0000 -0.0000
vn 0.0029 1.0000 -0.0000
vn -0.0029 -1.0000 -0.0000
vt 0.646128 0.679906
vt 0.853872 0.679906
vt 0.853856 0.715084
vt 0.646144 0.715084
vt 0.646114 0.583333
vt 0.853886 0.583333
vt 0.853886 0.666667
vt 0.646114 0.666667
vt 0.125000 0.675159
vt 0.135532 0.666667
vt 0.364468 0.666667
vt 0.375000 0.675159
vt 0.375000 0.736298
vt 0.358986 0.750000
vt 0.141014 0.750000
vt 0.125000 0.736298
vt 0.412883 0.675127
vt 0.431363 0.675031
vt 0.431363 0.736298
vt 0.412883 0.736298
vt 0.431363 0.978380
vt 0.412883 0.983968
vt 0.412883 0.766032
vt 0.431363 0.771620
vt 0.412883 0.266032
vt 0.412883 0.483968
vt 0.375000 0.483986
vt 0.375000 0.266014
vt 0.431363 0.166667
vt 0.412883 0.166667
vt 0.412883 0.166667
vt 0.412883 0.583333
vt 0.431363 0.583333
vt 0.431363 0.583333
vt 0.431363 0.271620
vt 0.431363 0.478380
vt 0.412883 0.266032
vt 0.375000 0.513702
vt 0.412883 0.513702
vt 0.412883 0.574873
vt 0.375000 0.574841
vt 0.853872 0.570094
vt 0.646114 0.583333
vt 0.646128 0.570094
vt 0.375000 0.983986
vt 0.375000 0.766014
vt 0.412883 0.013702
vt 0.431363 0.013702
vt 0.431363 0.074969
vt 0.412883 0.074873
vt 0.141014 0.500000
vt 0.358986 0.500000
vt 0.375000 0.513702
vt 0.375000 0.574841
vt 0.364468 0.583333
vt 0.135532 0.583333
vt 0.125000 0.574841
vt 0.125000 0.513702
vt 0.600953 0.166667
vt 0.733974 0.368915
vt 0.618950 0.187350
vt 0.618951 0.209408
vt 0.607079 0.236298
vt 0.588130 0.236298
vt 0.588130 0.195711
vt 0.375000 0.666667
vt 0.375000 0.083333
vt 0.375000 0.166667
vt 0.375000 0.583333
vt 0.431363 0.736298
vt 0.431363 0.675031
vt 0.578925 0.674861
vt 0.588130 0.695711
vt 0.588130 0.736298
vt 0.553712 0.738029
vt 0.549380 0.731097
vt 0.470118 0.731116
vt 0.465794 0.738035
vt 0.431363 0.175336
vt 0.431363 0.849274
vt 0.465794 0.865765
vt 0.470118 0.788179
vt 0.549380 0.722497
vt 0.553712 0.754410
vt 0.588130 0.013702
vt 0.588130 0.054289
vt 0.578925 0.075139
vt 0.625000 0.978856
vt 0.609585 0.978833
vt 0.609585 0.771167
vt 0.625000 0.771144
vt 0.733974 0.366481
vt 0.727376 0.368915
vt 0.588130 0.166667
vt 0.588130 0.154897
vt 0.591730 0.083333
vt 0.600953 0.083333
vt 0.412883 0.675127
vt 0.375000 0.736298
vt 0.578925 0.674861
vt 0.588130 0.666667
vt 0.600953 0.666667
vt 0.612625 0.666667
vt 0.618950 0.687350
vt 0.618951 0.709408
vt 0.607079 0.736298
vt 0.588130 0.736298
vt 0.412883 0.666667
vt 0.412883 0.083333
vt 0.575551 0.113234
vt 0.431363 0.113234
vt 0.431363 0.083333
vt 0.575551 0.083333
vt 0.575551 0.583333
vt 0.575551 0.613234
vt 0.431363 0.613234
vt 0.612625 0.583333
vt 0.606027 0.666667
vt 0.588130 0.654897
vt 0.591730 0.583333
vt 0.600953 0.583333
vt 0.575405 0.083333
vt 0.575405 0.166667
vt 0.575551 0.166667
vt 0.578925 0.174861
vt 0.575405 0.583333
vt 0.431363 0.236298
vt 0.431363 0.175031
vt 0.578925 0.174861
vt 0.588130 0.236298
vt 0.553712 0.238029
vt 0.549380 0.231097
vt 0.470118 0.231116
vt 0.465794 0.238035
vt 0.575405 0.666667
vt 0.431363 0.666667
vt 0.575551 0.666667
vt 0.618950 0.062650
vt 0.625000 0.070094
vt 0.853886 0.666667
vt 0.575405 0.583333
vt 0.588130 0.599696
vt 0.588130 0.599696
vt 0.575405 0.666667
vt 0.588130 0.650304
vt 0.588130 0.650304
vt 0.575405 0.083333
vt 0.588130 0.099696
vt 0.588130 0.099696
vt 0.575405 0.166667
vt 0.588130 0.150304
vt 0.588130 0.150304
vt 0.431363 0.136766
vt 0.575551 0.136766
vt 0.588130 0.136766
vt 0.588130 0.083333
vt 0.578925 0.075139
vt 0.575551 0.636765
vt 0.588130 0.636765
vt 0.431363 0.513702
vt 0.465794 0.511965
vt 0.470118 0.518884
vt 0.549380 0.518903
vt 0.553712 0.511971
vt 0.588130 0.513702
vt 0.588130 0.554289
vt 0.578925 0.575139
vt 0.431363 0.574969
vt 0.431363 0.771620
vt 0.470555 0.771482
vt 0.470555 0.978518
vt 0.431363 0.978380
vt 0.470555 0.271378
vt 0.548939 0.271300
vt 0.548939 0.345427
vt 0.470555 0.345427
vt 0.548939 0.904573
vt 0.548939 0.978700
vt 0.470555 0.978622
vt 0.470555 0.904573
vt 0.548939 0.771300
vt 0.548939 0.845427
vt 0.470555 0.845427
vt 0.470555 0.771378
vt 0.548939 0.771242
vt 0.548939 0.978758
vt 0.548939 0.978700
vt 0.470555 0.404573
vt 0.470555 0.478622
vt 0.470555 0.478518
vt 0.470555 0.271482
vt 0.470555 0.271378
vt 0.470555 0.904573
vt 0.470555 0.978622
vt 0.470555 0.771482
vt 0.470555 0.771378
vt 0.412883 0.175127
vt 0.431363 0.175031
vt 0.431363 0.236298
vt 0.412883 0.236298
vt 0.470555 0.404573
vt 0.548939 0.404573
vt 0.548939 0.478700
vt 0.470555 0.478622
vt 0.548939 0.271242
vt 0.548939 0.478758
vt 0.548939 0.478700
vt 0.646114 0.666667
vt 0.853872 0.679906
vt 0.548939 1.000000
vt 0.607079 1.000000
vt 0.618950 0.562650
vt 0.612625 0.583333
vt 0.588130 0.554289
vt 0.588130 0.513702
vt 0.607079 0.513702
vt 0.618951 0.540592
vt 0.375000 0.013702
vt 0.412883 0.013702
vt 0.375000 0.074841
vt 0.625000 0.271144
vt 0.625000 0.478856
vt 0.609585 0.478833
vt 0.609585 0.271167
vt 0.470555 0.404573
vt 0.548938 0.845427
vt 0.548939 0.345427
vt 0.545913 0.861430
vt 0.545913 0.888571
vt 0.473580 0.861429
vt 0.853856 0.534916
vt 0.853872 0.570094
vt 0.646128 0.570094
vt 0.646144 0.534916
vt 0.588130 0.583333
vt 0.578925 0.575139
vt 0.375000 0.236298
vt 0.415793 0.000000
vt 0.431363 0.000000
vt 0.470555 0.271482
vt 0.431363 0.478380
vt 0.470555 0.478518
vt 0.375000 0.000000
vt 0.412883 0.000000
vt 0.609585 0.500000
vt 0.625000 0.534916
vt 0.618951 0.040592
vt 0.607079 0.013702
vt 0.609585 0.000000
vt 0.625000 0.034916
vt 0.625000 0.215084
vt 0.609585 0.250000
vt 0.625000 0.715084
vt 0.609585 0.750000
vt 0.625000 0.179906
vt 0.625000 0.570094
vt 0.625000 0.679906
vt 0.588130 0.013702
vt 0.375000 0.175159
vt 0.575308 0.583333
vt 0.575308 0.666667
vt 0.575308 0.083333
vt 0.575308 0.166667
vt 0.588130 0.613234
vt 0.588130 0.636766
vt 0.431363 0.113234
vt 0.588130 0.113234
vt 0.588130 0.136766
vt 0.588130 0.113234
vt 0.431363 0.636765
vt 0.433208 0.634365
vt 0.433208 0.615635
vt 0.586285 0.134365
vt 0.433208 0.134365
vt 0.586285 0.115635
vt 0.433208 0.115635
vt 0.586285 0.634365
vt 0.586285 0.615635
vt 0.473580 0.888570
vt 0.473580 0.388571
vt 0.545913 0.388571
vt 0.473580 0.361429
vt 0.545913 0.361429
s 0
usemtl Noir_Light
f 138/1/1 132/2/1 118/3/1 124/4/1
f 80/5/1 77/6/1 76/7/1 81/8/1
f 141/9/2 142/10/2 143/11/2 144/12/2 51/13/2 52/14/2 47/15/2 48/16/2
f 162/17/3 150/18/3 62/19/3 67/20/3
f 55/21/4 70/22/4 68/23/4 61/24/4
f 64/25/5 65/26/5 53/27/5 50/28/5
f 153/29/4 157/30/4 10/31/4 8/29/4
f 160/32/4 148/33/4 5/34/4 11/32/4
f 57/35/5 60/36/5 65/26/5 64/37/5
f 54/38/6 66/39/6 159/40/6 145/41/6
f 134/42/7 77/6/7 80/43/7 136/44/7
f 70/22/4 47/45/4 52/46/4 68/23/4
f 69/47/8 56/48/8 151/49/8 155/50/8
f 50/51/2 53/52/2 54/53/2 145/54/2 146/55/2 139/56/2 140/57/2 49/58/2
f 21/59/9 78/60/9 133/61/9 119/62/9 121/63/9 72/64/9 22/65/9
f 3/66/2 2/67/2 1/68/2 4/69/2
f 62/70/6 150/71/6 167/72/6 16/73/6 74/74/6 84/75/6 103/76/6 98/77/6 87/78/6
f 151/79/9 56/80/9 89/81/9 91/82/9 86/83/9 93/84/9 71/85/9 19/86/9 174/87/9
f 118/88/10 116/89/10 126/90/10 124/91/10
f 75/92/9 78/93/9 21/94/9 178/95/9 171/96/9 20/97/9
f 144/12/6 162/98/6 67/20/6 51/99/6
f 167/100/6 170/101/6 15/101/6 16/73/6
f 15/102/6 82/103/6 137/104/6 123/105/6 125/106/6 74/107/6 16/73/6
f 4/69/11 11/32/11 12/108/11 3/66/11
f 2/67/12 9/109/12 10/31/12 1/68/12
f 191/110/13 183/111/13 7/112/13 27/113/13
f 5/34/14 23/114/14 187/115/14 181/116/14
f 79/117/6 82/118/6 15/101/6 170/119/6 163/120/6 14/121/6
f 152/112/5 173/122/5 27/113/5 7/112/5
f 176/123/4 153/29/4 8/29/4 30/124/4
f 175/125/9 178/94/9 21/94/9 22/65/9
f 148/34/4 165/126/4 23/114/4 5/34/4
f 58/127/9 154/128/9 175/129/9 22/65/9 72/130/9 96/131/9 107/132/9 110/133/9 99/134/9
f 168/135/5 149/136/5 6/136/5 26/137/5
f 75/92/15 131/138/15 132/139/15 76/140/15
f 23/114/16 165/141/16 164/142/16 24/143/16
f 168/144/17 26/137/17 25/145/17 169/146/17
f 27/113/17 173/147/17 172/148/17 28/149/17
f 176/150/16 30/124/16 29/151/16 177/152/16
f 30/124/13 8/29/13 184/153/13 192/154/13
f 30/124/13 192/154/13 189/155/13 29/152/13
f 171/156/9 174/157/9 19/86/9 20/156/9
f 26/137/14 188/158/14 185/159/14 25/146/14
f 59/160/6 105/161/6 113/162/6 112/163/6 101/164/6 73/165/6 13/166/6 166/167/6 147/168/6
f 61/169/4 88/170/4 90/171/4 55/172/4
f 109/173/5 108/174/5 46/175/5 42/176/5
f 31/177/4 85/178/4 92/179/4 40/180/4
f 104/181/4 32/182/4 33/183/4 97/184/4
f 149/136/5 161/108/5 12/108/5 6/136/5
f 83/185/18 94/186/18 85/187/18 31/177/18 32/182/18 104/181/18
f 42/176/19 43/188/19 114/189/19 106/190/19 100/191/19 109/192/19
f 33/183/20 40/193/20 92/194/20 90/171/20 88/195/20 97/196/20
f 158/197/8 154/198/8 58/199/8 63/200/8
f 43/201/5 45/202/5 111/203/5 114/204/5
f 45/202/21 46/175/21 108/174/21 95/205/21 102/206/21 111/207/21
f 156/109/5 152/112/5 7/112/5 9/109/5
f 138/1/22 81/208/22 76/140/22 132/209/22
f 94/210/23 116/89/23 115/211/23 71/85/23 93/84/23
f 135/212/6 79/213/6 14/121/6 13/214/6 73/215/6 127/216/6 129/217/6
f 157/31/4 139/68/4 1/68/4 10/31/4
f 146/69/4 160/32/4 11/32/4 4/69/4
f 48/218/9 69/219/9 155/50/9 141/220/9
f 66/39/3 59/160/3 147/168/3 159/40/3
f 142/67/5 156/109/5 9/109/5 2/67/5
f 40/180/1 33/183/1 37/183/1 34/180/1
f 31/177/24 40/180/24 34/180/24 35/177/24
f 120/221/25 130/222/25 128/223/25 122/224/25
f 45/202/26 43/201/26 38/201/26 39/202/26
f 33/183/27 32/182/27 36/182/27 37/183/27
f 43/225/1 42/176/1 44/176/1 38/225/1
f 42/176/28 46/175/28 41/175/28 44/176/28
f 32/226/2 31/177/2 35/177/2 36/226/2
f 46/227/2 45/202/2 39/202/2 41/227/2
f 120/231/1 134/232/1 136/233/1 130/234/1
f 163/235/6 166/236/6 13/166/6 14/235/6
f 83/185/4 126/90/4 116/89/4 94/186/4
f 64/25/29 50/28/29 49/237/29 63/200/29
f 66/39/30 54/38/30 53/27/30 65/26/30
f 68/23/31 52/46/31 51/99/31 67/20/31
f 70/238/32 55/239/32 56/48/32 69/47/32
f 100/240/33 57/35/33 58/127/33 99/134/33
f 105/161/34 59/160/34 60/241/34 106/242/34
f 88/170/35 61/169/35 62/70/35 87/78/35
f 57/35/36 64/37/36 63/200/36 58/199/36
f 59/160/37 66/39/37 65/26/37 60/36/37
f 61/24/38 68/23/38 67/20/38 62/19/38
f 47/243/39 70/244/39 69/219/39 48/218/39
f 126/90/40 83/185/40 84/75/40 74/107/40 125/106/40
f 76/7/41 77/6/41 78/93/41 75/92/41
f 80/5/42 81/8/42 82/118/42 79/117/42
f 122/224/43 95/205/43 96/131/43 72/64/43 121/63/43
f 55/172/44 90/171/44 89/81/44 56/80/44
f 112/163/45 113/162/45 114/204/45 111/203/45
f 102/206/46 128/223/46 127/216/46 73/165/46 101/164/46
f 92/179/47 85/178/47 86/83/47 91/82/47
f 95/205/5 122/224/5 128/223/5 102/206/5
f 104/181/48 97/184/48 98/77/48 103/76/48
f 108/174/49 109/173/49 110/133/49 107/132/49
f 101/164/50 112/163/50 111/207/50 102/206/50
f 107/132/51 96/131/51 95/205/51 108/174/51
f 87/78/52 98/77/52 97/196/52 88/195/52
f 91/82/53 89/81/53 90/171/53 92/194/53
f 99/134/54 110/133/54 109/192/54 100/191/54
f 113/162/55 105/161/55 106/190/55 114/189/55
f 83/185/56 104/181/56 103/76/56 84/75/56
f 85/187/57 94/186/57 93/84/57 86/83/57
f 129/217/58 127/216/58 128/245/58 130/246/58
f 117/247/59 115/248/59 116/249/59 118/250/59
f 121/63/60 119/62/60 120/251/60 122/252/60
f 125/106/61 123/105/61 124/253/61 126/254/61
f 77/6/62 134/255/62 133/61/62 78/60/62
f 79/213/63 135/212/63 136/256/63 80/43/63
f 81/208/64 138/257/64 137/104/64 82/103/64
f 131/138/9 75/92/9 20/97/9 19/86/9 71/258/9 115/248/9 117/247/9
f 118/250/65 132/139/65 131/138/65 117/247/65
f 119/62/66 133/61/66 134/255/66 120/251/66
f 135/212/67 129/217/67 130/234/67 136/233/67
f 123/105/68 137/104/68 138/1/68 124/4/68
f 161/108/5 143/66/5 3/66/5 12/108/5
f 160/32/69 146/69/69 145/41/69 159/40/69
f 162/98/70 144/12/70 143/66/70 161/108/70
f 156/109/71 142/67/71 141/220/71 155/50/71
f 158/197/72 140/259/72 139/68/72 157/31/72
f 152/112/73 156/109/73 155/50/73 151/49/73
f 154/198/74 158/197/74 157/30/74 153/29/74
f 148/33/75 160/32/75 159/40/75 147/168/75
f 150/18/76 162/17/76 161/108/76 149/136/76
f 164/142/77 165/141/77 166/260/77 163/142/77
f 168/144/78 169/146/78 170/146/78 167/261/78
f 172/148/79 173/147/79 174/262/79 171/148/79
f 176/150/80 177/152/80 178/152/80 175/263/80
f 147/168/81 166/167/81 165/126/81 148/34/81
f 169/146/82 164/142/82 163/142/82 170/146/82
f 167/72/83 150/71/83 149/136/83 168/135/83
f 177/152/84 172/148/84 171/148/84 178/152/84
f 173/122/85 152/112/85 151/79/85 174/87/85
f 175/129/86 154/128/86 153/29/86 176/123/86
f 140/259/9 158/197/9 63/200/9 49/237/9
f 186/264/87 185/265/87 194/265/87 193/264/87
f 187/115/14 23/114/14 24/143/14 186/264/14
f 9/109/8 7/112/8 183/266/8 184/153/8 8/29/8 10/31/8
f 191/110/13 27/113/13 28/149/13 190/267/13
f 164/142/2 169/146/2 25/145/2 185/265/2 186/264/2 24/143/2
f 172/148/2 177/152/2 29/151/2 189/268/2 190/269/2 28/149/2
f 11/32/3 5/34/3 181/116/3 182/270/3 6/136/3 12/108/3
f 182/270/88 181/116/88 179/116/88 180/270/88
f 187/115/4 186/264/4 193/264/4 179/116/4 181/116/4
f 182/270/14 188/158/14 26/137/14 6/136/14
f 188/158/5 182/270/5 180/270/5 194/159/5 185/159/5
f 183/111/5 191/110/5 190/267/5 195/267/5 17/111/5
f 184/153/89 183/266/89 17/266/89 18/153/89
f 190/269/90 189/268/90 196/268/90 195/269/90
f 192/154/4 184/153/4 18/153/4 196/155/4 189/155/4
f 100/240/5 106/242/5 60/241/5 57/35/5
usemtl Noir_Profond
f 216/228/2 213/229/2 221/229/2 223/228/2
f 215/230/9 216/228/9 223/228/9 224/230/9
f 203/271/88 204/272/88 211/272/88 212/271/88
f 198/273/4 199/274/4 208/274/4 206/273/4
f 195/267/13 196/155/13 198/273/13 197/275/13
f 196/155/13 18/153/13 199/274/13 198/273/13
f 18/153/13 17/111/13 200/276/13 199/274/13
f 17/111/13 195/267/13 197/275/13 200/276/13
f 193/264/14 194/159/14 202/277/14 201/278/14
f 194/159/14 180/270/14 203/271/14 202/277/14
f 180/270/14 179/116/14 204/272/14 203/271/14
f 179/116/14 193/264/14 201/278/14 204/272/14
f 197/275/90 198/273/90 206/273/90 205/275/90
f 204/272/4 201/278/4 209/278/4 211/272/4
f 199/274/89 200/276/89 207/276/89 208/274/89
f 200/276/5 197/275/5 205/275/5 207/276/5
f 202/277/5 203/271/5 212/271/5 210/277/5
f 201/278/87 202/277/87 210/277/87 209/278/87
f 35/177/4 34/180/4 214/279/4 213/229/4
f 34/180/4 37/183/4 215/230/4 214/279/4
f 37/183/4 36/182/4 216/228/4 215/230/4
f 36/182/4 35/177/4 213/229/4 216/228/4
f 39/202/5 38/201/5 218/280/5 217/281/5
f 38/201/5 44/176/5 219/282/5 218/280/5
f 44/176/5 41/175/5 220/283/5 219/282/5
f 41/175/5 39/202/5 217/281/5 220/283/5
f 218/280/1 219/282/1 228/282/1 226/280/1
f 217/281/9 218/280/9 226/280/9 225/281/9
f 214/279/1 215/230/1 224/230/1 222/279/1
f 219/282/6 220/283/6 227/283/6 228/282/6
f 213/229/6 214/279/6 222/279/6 221/229/6
f 220/283/2 217/281/2 225/281/2 227/283/2
usemtl Bleu_Neon
f 205/275/13 206/273/13 208/274/13 207/276/13
f 209/278/14 210/277/14 212/271/14 211/272/14
f 221/229/4 222/279/4 224/230/4 223/228/4
f 225/281/5 226/280/5 228/282/5 227/283/5
