# Blender 4.2.3 LTS
# www.blender.org
mtllib SM_Terminal_Stand.mtl
o SM_Terminal_Stand
v -0.204569 0.000000 -0.134039
v 0.204569 0.000000 -0.134039
v 0.204569 0.000000 0.134039
v -0.204569 0.000000 0.134039
v 0.204569 0.070843 -0.107292
v 0.177823 0.070843 -0.134039
v -0.177823 0.070843 -0.134039
v -0.204569 0.070843 -0.107292
v -0.204569 0.070843 0.107292
v -0.177823 0.070843 0.134039
v 0.177823 0.070843 0.134039
v 0.204569 0.070843 0.107292
v 0.204569 0.268394 -0.107372
v 0.177903 0.260674 -0.134039
v 0.177903 0.260674 0.134039
v 0.204569 0.268394 0.107372
v 0.272617 0.313777 -0.163045
v 0.255780 0.283219 -0.163045
v 0.248920 0.306917 -0.187716
v -0.286492 0.777692 0.163045
v -0.261821 0.777692 0.187716
v -0.261821 0.802362 0.163045
v -0.286492 0.777692 -0.163045
v -0.261821 0.802362 -0.163045
v -0.261821 0.777692 -0.187716
v 0.106507 0.802362 -0.163045
v 0.138037 0.778665 -0.163045
v 0.112636 0.777692 -0.187716
v 0.106507 0.802362 0.163045
v 0.112636 0.777692 0.187716
v 0.138037 0.778665 0.163045
v 0.248920 0.306917 0.187716
v 0.255780 0.283219 0.163045
v 0.272617 0.313777 0.163045
v -0.204569 0.662812 0.107372
v -0.177903 0.662812 0.134039
v -0.225205 0.662812 0.147559
v -0.177903 0.662812 -0.134039
v -0.204569 0.662812 -0.107372
v -0.225205 0.662812 -0.147559
v 0.033156 0.639114 0.134039
v 0.001625 0.662812 0.134039
v 0.169129 0.258134 0.134039
v 0.138571 0.274972 0.134039
v -0.286492 0.687483 0.163045
v -0.255887 0.662812 0.167663
v -0.261821 0.687483 0.187716
v 0.138571 0.274972 -0.163045
v 0.162268 0.281832 -0.187716
v 0.169129 0.258134 -0.163045
v 0.169129 0.258134 0.163045
v 0.162268 0.281832 0.187716
v 0.138571 0.274972 0.163045
v -0.286492 0.687483 -0.163045
v -0.261821 0.687483 -0.187716
v -0.255887 0.662812 -0.167663
v 0.138571 0.274972 -0.134039
v 0.169129 0.258134 -0.134039
v 0.001625 0.662812 -0.134039
v 0.033156 0.639114 -0.134039
v 0.033156 0.639114 -0.163045
v 0.001625 0.662812 -0.167485
v 0.044837 0.687483 -0.187716
v 0.001625 0.662812 0.167485
v 0.033156 0.639114 0.163045
v 0.044837 0.687483 0.187716
v -0.282450 0.000000 -0.185253
v -0.255784 0.000000 -0.211919
v -0.265006 0.000000 -0.194475
v 0.255784 0.000000 -0.211919
v 0.282450 0.000000 -0.185253
v 0.265006 0.000000 -0.194475
v 0.282450 0.000000 0.185253
v 0.255784 0.000000 0.211919
v 0.265006 0.000000 0.194475
v -0.255784 0.000000 0.211919
v -0.282450 0.000000 0.185253
v -0.265006 0.000000 0.194475
v -0.282450 0.049982 -0.185197
v -0.265663 0.070843 -0.168386
v -0.238916 0.070843 -0.195132
v -0.255728 0.049982 -0.211919
v 0.255728 0.049982 -0.211919
v 0.238916 0.070843 -0.195132
v 0.265663 0.070843 -0.168385
v 0.282450 0.049982 -0.185197
v 0.238916 0.070843 0.195132
v 0.255728 0.049982 0.211919
v 0.282450 0.049982 0.185197
v 0.265663 0.070843 0.168386
v -0.265663 0.070843 0.168385
v -0.282450 0.049982 0.185197
v -0.255728 0.049982 0.211919
v -0.238916 0.070843 0.195132
v 0.256957 0.367871 0.106729
v 0.256957 0.367871 -0.106729
v 0.153697 0.724570 -0.106729
v 0.153697 0.724570 0.106729
v 0.237574 0.362260 -0.106729
v 0.237574 0.362260 0.106729
v 0.134314 0.718959 0.106729
v 0.134314 0.718959 -0.106729
v 0.232188 0.380865 0.087361
v 0.232188 0.380865 -0.087361
v 0.139700 0.700354 -0.087361
v 0.139700 0.700354 0.087361
v 0.225048 0.378798 -0.087361
v 0.225048 0.378798 0.087361
v 0.132560 0.698287 0.087361
v 0.132560 0.698287 -0.087361
vn -0.7071 0.0008 -0.7071
vn -1.0000 -0.0000 -0.0000
vn -0.0000 -0.0000 1.0000
vn 0.2781 -0.9606 -0.0000
vn -0.0000 -1.0000 -0.0000
vn -0.0000 -0.0000 -1.0000
vn -0.0000 1.0000 -0.0000
vn -0.9606 -0.2781 -0.0000
vn 0.7071 0.0008 0.7071
vn 1.0000 -0.0000 -0.0000
vn 0.7151 -0.3940 -0.5774
vn -0.5773 0.5773 0.5774
vn -0.5773 0.5773 -0.5774
vn 0.5037 0.6702 -0.5451
vn 0.5037 0.6702 0.5451
vn 0.7151 -0.3940 0.5774
vn -0.5671 -0.5974 0.5671
vn -0.3940 -0.7151 -0.5774
vn -0.3940 -0.7151 0.5774
vn -0.5671 -0.5974 -0.5671
vn -0.1833 -0.4112 -0.8929
vn -0.1833 -0.4112 0.8929
vn -0.6008 -0.7994 -0.0000
vn -0.6792 -0.1966 -0.7071
vn 0.7071 -0.0003 -0.7071
vn -0.6276 -0.7785 -0.0000
vn 0.7071 -0.0003 0.7071
vn 0.6008 0.7994 -0.0000
vn -0.7071 0.7071 -0.0000
vn 0.6792 0.1966 -0.7071
vn 0.6792 0.1966 0.7071
vn -0.0000 0.7071 -0.7071
vn -0.0000 0.7071 0.7071
vn -0.7071 -0.0000 0.7071
vn 0.1966 -0.6792 -0.7071
vn 0.8758 -0.4826 -0.0000
vn 0.1966 -0.6792 0.7071
vn -0.7071 -0.0001 0.7071
vn -0.7071 -0.0001 -0.7071
vn 0.0002 -0.6325 -0.7745
vn -0.6792 -0.1966 0.7071
vn 0.0002 -0.6325 0.7745
vn -0.4826 -0.8758 -0.0000
vn -0.7071 -0.0000 -0.7071
vn -0.7071 0.0008 0.7071
vn 0.7071 0.0008 -0.7071
vn 0.4666 0.7514 0.4666
vn -0.4666 0.7514 0.4666
vn 0.4666 0.7514 -0.4666
vn -0.4666 0.7514 -0.4666
vn -0.0000 0.6269 -0.7791
vn 0.7791 0.6269 -0.0000
vn -0.7791 0.6269 -0.0000
vn -0.0000 0.6269 0.7791
vn 0.9606 0.2781 -0.0000
vn -0.2781 0.9606 -0.0000
vt 0.834637 0.531518
vt 0.834656 0.531518
vt 0.843482 0.543281
vt 0.843482 0.543306
vt 0.843481 0.543804
vt 0.843482 0.543804
vt 0.843482 0.706196
vt 0.834272 0.718482
vt 0.716839 0.718482
vt 0.835263 0.718482
vt 0.707679 0.571849
vt 0.707679 0.678151
vt 0.659776 0.718482
vt 0.659518 0.718482
vt 0.843482 0.718482
vt 0.828854 0.718482
vt 0.730372 0.718482
vt 0.728263 0.718482
vt 0.843482 0.718482
vt 0.716839 0.531518
vt 0.834272 0.531518
vt 0.835263 0.531518
vt 0.836001 0.543804
vt 0.836001 0.706196
vt 0.724320 0.706196
vt 0.724320 0.543804
vt 0.730372 0.531518
vt 0.828853 0.531518
vt 0.843482 0.531518
vt 0.843482 0.531518
vt 0.728263 0.531518
vt 0.831259 0.531518
vt 0.668741 0.531518
vt 0.666097 0.531518
vt 0.833903 0.531518
vt 0.843482 0.550116
vt 0.843482 0.699884
vt 0.713366 0.718482
vt 0.659992 0.718482
vt 0.659992 0.718482
vt 0.659992 0.531518
vt 0.713366 0.531518
vt 0.659992 0.531518
vt 0.659518 0.531518
vt 0.659776 0.531518
vt 0.843482 0.699828
vt 0.843482 0.705206
vt 0.833903 0.718482
vt 0.831259 0.718482
vt 0.656519 0.541735
vt 0.656518 0.708265
vt 0.656518 0.716906
vt 0.656518 0.718482
vt 0.656518 0.699884
vt 0.656518 0.550116
vt 0.656518 0.531518
vt 0.656518 0.533094
vt 0.665363 0.718482
vt 0.665344 0.718482
vt 0.656518 0.706719
vt 0.656518 0.706694
vt 0.656518 0.699828
vt 0.656518 0.550172
vt 0.656518 0.699884
vt 0.831296 0.718482
vt 0.668741 0.718482
vt 0.668704 0.718482
vt 0.672714 0.718482
vt 0.686678 0.718482
vt 0.734849 0.718482
vt 0.749257 0.718482
vt 0.656518 0.543281
vt 0.656518 0.705206
vt 0.666097 0.718482
vt 0.656518 0.705206
vt 0.656518 0.544794
vt 0.665363 0.531518
vt 0.665344 0.531518
vt 0.843482 0.706719
vt 0.834656 0.718482
vt 0.843482 0.550172
vt 0.843482 0.699884
vt 0.843482 0.550116
vt 0.831296 0.531518
vt 0.749258 0.531518
vt 0.734849 0.531518
vt 0.686678 0.531518
vt 0.672714 0.531518
vt 0.668704 0.531518
vt 0.659309 0.543804
vt 0.714049 0.543804
vt 0.714049 0.706196
vt 0.659309 0.706196
vt 0.833903 0.718482
vt 0.666097 0.718482
vt 0.834637 0.718482
vt 0.843482 0.706694
vt 0.665363 0.718482
vt 0.666097 0.531518
vt 0.843482 0.706694
vt 0.656518 0.543306
vt 0.843482 0.550172
vt 0.843482 0.544794
vt 0.665678 0.571849
vt 0.665678 0.678151
vt 0.667869 0.668505
vt 0.667869 0.581495
vt 0.705489 0.581495
vt 0.705489 0.668505
s 0
usemtl Noir_Light
f 82/1/1 68/2/1 67/3/1 79/4/1
f 23/5/2 54/6/2 45/7/2 20/7/2
f 47/8/3 66/9/3 30/9/3 21/10/3
f 97/11/4 98/12/4 101/12/4 102/11/4
f 66/9/3 52/13/3 32/14/3 30/9/3
f 37/15/5 36/16/5 42/17/5 64/18/5 46/19/5
f 28/20/6 63/20/6 55/21/6 25/22/6
f 24/23/7 22/24/7 29/25/7 26/26/7
f 59/27/5 38/28/5 40/29/5 56/30/5 62/31/5
f 7/32/7 6/33/7 84/34/7 81/35/7
f 40/30/5 39/36/5 35/37/5 37/15/5 46/15/5 56/29/5
f 41/38/8 44/39/8 53/40/8 65/38/8
f 57/41/8 60/42/8 61/42/8 48/43/8
f 19/44/6 49/45/6 63/20/6 28/20/6
f 9/46/7 91/47/7 94/48/7 10/49/7
f 18/50/4 33/51/4 51/52/4 43/53/4 15/53/4 16/54/4 13/55/4 14/56/4 58/56/4 50/57/4
f 88/58/9 74/59/9 73/60/9 89/61/9
f 1/30/5 2/56/5 3/53/5 4/15/5
f 12/62/10 5/63/10 13/55/10 16/64/10
f 36/65/3 10/49/3 11/66/3 15/67/3 43/68/3 44/69/3 41/70/3 42/71/3
f 3/53/5 2/56/5 72/56/5 71/72/5 73/60/5 75/53/5
f 90/73/7 12/62/7 11/66/7 87/74/7
f 5/63/7 12/62/7 90/75/7 85/76/7
f 82/1/6 83/77/6 70/78/6 68/2/6
f 1/30/5 4/15/5 78/15/5 77/79/5 67/3/5 69/29/5
f 4/15/5 3/53/5 75/53/5 74/59/5 76/80/5 78/19/5
f 8/81/2 9/46/2 35/82/2 39/83/2
f 7/32/6 38/84/6 59/85/6 60/86/6 57/87/6 58/88/6 14/89/6 6/33/6
f 2/56/5 1/30/5 69/30/5 68/2/5 70/78/5 72/56/5
f 17/90/11 18/50/11 19/44/11
f 20/7/12 21/10/12 22/24/12
f 23/5/13 24/23/13 25/22/13
f 26/26/14 27/91/14 28/20/14
f 29/25/15 30/9/15 31/92/15
f 32/14/16 33/51/16 34/93/16
f 35/37/5 36/15/5 37/15/5
f 38/30/5 39/36/5 40/30/5
f 45/7/17 46/19/17 47/8/17
f 48/43/18 49/45/18 50/57/18
f 51/52/19 52/13/19 53/40/19
f 54/6/20 55/21/20 56/29/20
f 61/42/21 62/31/21 63/20/21
f 64/18/22 65/38/22 66/9/22
f 67/3/5 68/30/5 69/30/5
f 70/78/5 71/56/5 72/56/5
f 73/60/5 74/53/5 75/53/5
f 76/80/5 77/15/5 78/15/5
f 41/38/23 65/38/23 64/18/23 42/17/23
f 48/43/24 61/42/24 63/20/24 49/45/24
f 13/55/25 5/63/25 6/33/25 14/89/25
f 45/7/26 54/6/26 56/29/26 46/15/26
f 15/67/27 11/66/27 12/62/27 16/64/27
f 31/92/28 27/91/28 26/26/28 29/25/28
f 22/24/29 24/23/29 23/5/29 20/7/29
f 19/44/30 28/20/30 27/91/30 17/90/30
f 30/9/31 32/14/31 34/93/31 31/92/31
f 24/23/32 26/26/32 28/20/32 25/22/32
f 21/10/33 30/9/33 29/25/33 22/24/33
f 47/8/34 21/10/34 20/7/34 45/7/34
f 18/50/35 50/57/35 49/45/35 19/44/35
f 17/90/36 34/93/36 33/51/36 18/50/36
f 59/27/23 62/31/23 61/42/23 60/42/23
f 32/14/37 52/13/37 51/52/37 33/51/37
f 10/49/38 36/65/38 35/82/38 9/46/38
f 38/84/39 7/32/39 8/81/39 39/83/39
f 55/21/40 63/20/40 62/31/40 56/30/40
f 65/38/41 53/40/41 52/13/41 66/9/41
f 46/19/42 64/18/42 66/9/42 47/8/42
f 50/57/43 58/56/43 57/41/43 48/43/43
f 53/40/43 44/39/43 43/53/43 51/52/43
f 25/22/44 55/21/44 54/6/44 23/5/44
f 11/66/7 10/49/7 94/94/7 87/95/7
f 76/80/45 93/96/45 92/97/45 77/79/45
f 88/98/3 93/96/3 76/80/3 74/59/3
f 84/99/7 6/33/7 5/63/7 85/76/7
f 92/100/2 79/4/2 67/3/2 77/79/2
f 86/101/10 89/61/10 73/60/10 71/72/10
f 9/46/7 8/102/7 80/103/7 91/47/7
f 70/78/46 83/77/46 86/101/46 71/72/46
f 88/58/47 89/61/47 90/73/47 87/74/47
f 92/97/48 93/96/48 94/48/48 91/47/48
f 84/99/49 85/76/49 86/101/49 83/77/49
f 80/103/50 81/35/50 82/1/50 79/4/50
f 83/77/51 82/1/51 81/35/51 84/34/51
f 89/61/52 86/101/52 85/76/52 90/75/52
f 79/4/53 92/100/53 91/47/53 80/103/53
f 93/96/54 88/98/54 87/95/54 94/94/54
f 7/32/7 81/35/7 80/103/7 8/102/7
f 34/93/55 17/90/55 96/104/55 95/105/55
f 17/90/55 27/91/55 97/11/55 96/104/55
f 27/91/55 31/92/55 98/12/55 97/11/55
f 31/92/55 34/93/55 95/105/55 98/12/55
f 98/12/6 95/105/6 100/105/6 101/12/6
f 96/104/3 97/11/3 102/11/3 99/104/3
f 95/105/56 96/104/56 99/104/56 100/105/56
usemtl Noir_Profond
f 103/106/56 104/107/56 107/107/56 108/106/56
f 100/105/55 99/104/55 104/107/55 103/106/55
f 99/104/55 102/11/55 105/108/55 104/107/55
f 102/11/55 101/12/55 106/109/55 105/108/55
f 101/12/55 100/105/55 103/106/55 106/109/55
f 105/108/4 106/109/4 109/109/4 110/108/4
f 106/109/6 103/106/6 108/106/6 109/109/6
f 104/107/3 105/108/3 110/108/3 107/107/3
usemtl Bleu_Neon
f 108/106/55 107/107/55 110/108/55 109/109/55
