# Blender 4.2.3 LTS
# www.blender.org
mtllib SM_Wall_Deco_Panel_02.mtl
o SM_Wall_Deco_Panel_02
v 0.050000 -0.900805 0.815785
v 0.050000 -0.815785 0.900805
v 0.050000 0.815785 0.900805
v 0.050000 0.900805 0.815785
v 0.050000 -0.815785 -0.900805
v 0.050000 -0.900805 -0.815785
v 0.050000 0.900805 -0.815785
v 0.050000 0.815785 -0.900805
v 0.134829 0.877599 -0.607453
v 0.134829 0.877599 0.607453
v 0.148036 0.900805 0.697855
v 0.050000 0.521078 0.900805
v 0.050000 0.521078 -0.900805
v 0.050000 -0.521078 -0.900805
v 0.148036 -0.521078 0.900805
v 0.148036 -0.521078 -0.900805
v 0.134829 0.776633 -0.607453
v 0.134829 0.776633 0.607453
v 0.171243 0.407841 -0.695315
v 0.171243 -0.407841 -0.695314
v 0.148036 0.900805 -0.697855
v 0.171243 -0.521078 -0.877599
v 0.171243 -0.877599 -0.695312
v 0.148036 0.521078 0.900805
v 0.176625 0.394979 0.374498
v 0.176625 0.394979 -0.374498
v 0.327608 0.353182 -0.333029
v 0.171243 0.521078 0.877599
v 0.148036 0.900805 0.815785
v 0.171243 0.877599 0.806172
v 0.171243 0.806172 0.877599
v 0.111622 0.521078 0.900805
v 0.176625 0.653823 0.374498
v 0.176625 0.747079 0.281242
v 0.134829 0.776633 0.497308
v 0.176625 0.747079 -0.281242
v 0.176625 0.653823 -0.374498
v 0.134829 0.776633 -0.497308
v 0.148036 0.815785 0.900805
v 0.148036 -0.815785 0.900805
v 0.327608 0.353182 0.333029
v 0.243643 0.394979 0.374498
v 0.243643 0.394979 -0.374498
v 0.171243 -0.806172 0.877599
v 0.327608 -0.782864 0.267471
v 0.171243 -0.877599 0.806172
v 0.148036 -0.900805 0.815785
v 0.286156 -0.700996 0.428114
v 0.327608 -0.683632 0.380406
v 0.286156 -0.700996 -0.428114
v 0.286156 -0.824783 -0.287232
v 0.286156 -0.824783 0.287232
v 0.327608 0.636647 -0.333029
v 0.243643 0.653823 -0.374498
v 0.327608 0.735165 -0.234511
v 0.243643 0.747079 -0.281242
v 0.327608 0.735165 0.234511
v 0.243643 0.747079 0.281242
v 0.327608 0.636647 0.333029
v 0.243643 0.653823 0.374498
v 0.111622 -0.521078 -0.900805
v 0.148036 0.815785 -0.900805
v 0.171243 0.806172 -0.877599
v 0.111622 -0.521078 0.900805
v 0.327608 -0.782864 -0.267471
v 0.327608 -0.683632 -0.380406
v 0.286183 0.353182 -0.428258
v 0.327608 0.353182 -0.380583
v 0.327608 0.353182 0.380583
v 0.286183 0.353182 0.428258
v 0.134829 -0.824909 0.287291
v 0.134829 -0.701048 0.428258
v 0.134829 0.653823 0.374498
v 0.134829 0.776633 0.251688
v 0.134829 0.776633 -0.251688
v 0.134829 0.653823 -0.374498
v 0.134829 0.353182 -0.374498
v 0.134829 0.353182 0.374498
v 0.285440 0.776633 0.251688
v 0.285440 0.653823 0.374498
v 0.285440 0.653823 -0.374498
v 0.285440 0.776633 -0.251688
v 0.285440 0.353182 -0.374498
v 0.285440 0.353182 0.374498
v 0.243643 0.650534 0.366556
v 0.176625 0.650534 0.366556
v 0.176625 0.650534 -0.366556
v 0.243643 0.650534 -0.366556
v 0.184118 0.736165 0.280925
v 0.184118 0.736165 -0.280925
v 0.184118 0.402472 -0.366556
v 0.184118 0.402472 0.366556
v 0.236150 0.736165 0.280925
v 0.236150 0.736165 -0.280925
v 0.236150 0.402472 -0.366556
v 0.236150 0.402472 0.366556
v 0.184118 0.650534 0.366556
v 0.176625 0.741463 0.275627
v 0.176625 0.741463 -0.275627
v 0.184118 0.650534 -0.366556
v 0.176625 0.394979 -0.366556
v 0.176625 0.394979 0.366556
v 0.243643 0.741463 0.275627
v 0.236150 0.650534 0.366556
v 0.236150 0.650534 -0.366556
v 0.243643 0.741463 -0.275627
v 0.243643 0.394979 -0.366556
v 0.243643 0.394979 0.366556
v 0.236150 0.649162 0.363244
v 0.184118 0.649162 0.363244
v 0.184118 0.649162 -0.363243
v 0.236150 0.649162 -0.363243
v 0.184118 0.733822 0.278583
v 0.184118 0.733822 -0.278583
v 0.184118 0.402472 -0.363243
v 0.184118 0.402472 0.363243
v 0.236150 0.733822 0.278583
v 0.236150 0.733822 -0.278583
v 0.236150 0.402472 -0.363243
v 0.236150 0.402472 0.363243
v 0.050000 -0.521078 0.900805
v 0.171243 0.877599 -0.806172
v 0.148036 0.900805 -0.815785
v 0.111622 0.521078 -0.900805
v 0.148036 -0.900805 -0.815785
v 0.134829 0.521078 -0.877599
v 0.134829 -0.521078 -0.877599
v 0.171243 -0.877599 -0.806172
v 0.121291 0.339645 0.607453
v 0.121291 -0.339645 0.607453
v 0.171243 0.877599 -0.695312
v 0.050000 0.900805 0.659536
v 0.111622 -0.900805 0.659536
v 0.134829 0.877599 0.657133
v 0.050000 -0.900805 0.659536
v 0.134829 0.384055 0.657128
v 0.111622 0.900805 0.659536
v 0.148036 -0.900805 -0.697855
v 0.134829 -0.384055 0.657127
v 0.134829 -0.877599 0.657133
v 0.134829 -0.521078 0.877599
v 0.134829 0.521078 0.877599
v 0.121291 -0.339645 -0.607453
v 0.121291 0.339645 -0.607453
v 0.134829 -0.877599 -0.657133
v 0.111622 0.900805 -0.659536
v 0.134829 0.384060 -0.657135
v 0.171243 0.407836 0.695308
v 0.171243 0.877599 0.695313
v 0.050000 -0.900805 -0.659536
v 0.050000 0.900805 -0.659536
v 0.111622 -0.900805 -0.659536
v 0.134829 0.877599 -0.657133
v 0.134829 -0.384059 -0.657135
v 0.080811 -0.521078 0.900805
v 0.171243 -0.806172 -0.877599
v 0.148036 -0.900805 0.697855
v 0.171243 0.521078 -0.877599
v 0.148036 0.521078 -0.900805
v 0.171243 -0.877599 0.695313
v 0.080811 0.521078 -0.900805
v 0.080811 0.521078 0.900805
v 0.080811 -0.521078 -0.900805
v 0.148036 -0.815785 -0.900805
v 0.171243 -0.407836 0.695307
v 0.171243 -0.521078 0.877599
v 0.108142 -0.521078 -0.892403
v 0.108142 0.521078 0.892403
v 0.126790 0.521078 -0.873398
v 0.082551 -0.339645 -0.607453
v 0.126790 -0.521078 -0.873398
v 0.082551 0.339645 0.607453
v 0.108142 0.521078 -0.892403
v 0.108142 -0.521078 0.892403
v 0.126790 0.521078 0.873398
v 0.082551 0.339645 -0.607453
v 0.126790 -0.521078 0.873398
v 0.082551 -0.339645 0.607453
v 0.134829 0.353182 0.607453
v 0.069014 0.353182 0.607453
v 0.134829 -0.353182 -0.607453
v 0.069014 0.353182 -0.607453
v 0.134829 -0.353182 0.607453
v 0.069014 -0.353182 -0.607453
v 0.069014 -0.353182 0.607453
v 0.113484 0.331837 0.603531
v 0.090359 0.331837 0.603531
v 0.113484 0.331837 -0.603531
v 0.113484 -0.331837 -0.603531
v 0.090359 0.331837 -0.603531
v 0.113484 -0.331837 0.603531
v 0.090359 -0.331837 -0.603531
v 0.090359 -0.331837 0.603531
v 0.121291 0.339645 0.603531
v 0.082551 0.339645 0.603531
v 0.121291 0.339645 -0.603531
v 0.121291 -0.339645 -0.603531
v 0.082551 0.339645 -0.603531
v 0.121291 -0.339645 0.603531
v 0.082551 -0.339645 -0.603531
v 0.082551 -0.339645 0.603531
v 0.113484 0.331837 0.599912
v 0.090359 0.331837 0.599912
v 0.113484 0.331837 -0.599912
v 0.113484 -0.331837 -0.599912
v 0.090359 0.331837 -0.599912
v 0.113484 -0.331837 0.599912
v 0.090359 -0.331837 -0.599912
v 0.090359 -0.331837 0.599912
v 0.134829 -0.682166 -0.428261
v 0.134829 -0.682166 0.428261
v 0.134829 -0.877599 0.607453
v 0.134829 -0.877599 -0.607453
v 0.134829 -0.701048 -0.428258
v 0.134829 -0.824909 -0.287291
v 0.134829 0.353182 0.428426
v 0.134829 0.353182 -0.607453
v 0.134829 0.353182 -0.428426
v 0.327608 -0.683668 -0.306123
v 0.327608 -0.683686 -0.224511
v 0.327608 -0.683675 0.224511
v 0.327608 -0.683659 0.306123
v 0.327608 0.636650 0.277456
v 0.327608 0.636653 0.195844
v 0.327608 0.636653 -0.195844
v 0.327608 0.636650 -0.277456
v 0.327608 -0.023516 -0.210177
v 0.327608 -0.023511 0.210177
v 0.327608 0.306571 0.203011
v 0.327608 0.306568 -0.203011
v 0.327608 0.471612 0.199427
v 0.327608 0.141526 -0.206594
v 0.327608 0.141530 0.206594
v 0.327608 0.471611 -0.199427
v 0.327608 -0.683683 -0.118331
v 0.327608 -0.683677 0.118330
v 0.327608 -0.023515 -0.118330
v 0.327608 -0.023512 0.118330
v 0.327608 0.141529 0.118330
v 0.327608 0.141527 -0.118330
v 0.327608 0.456905 -0.185037
v 0.327608 0.456906 0.185037
v 0.327608 0.321276 0.187982
v 0.327608 0.321274 -0.187982
v 0.327608 0.291863 -0.188621
v 0.327608 0.291865 0.188621
v 0.327608 0.156235 0.191566
v 0.327608 0.156235 0.118330
v 0.327608 0.156232 -0.118331
v 0.327608 0.156232 -0.191566
v 0.327608 0.621947 -0.181454
v 0.327608 0.621947 0.181454
v 0.327608 0.486317 0.184399
v 0.327608 0.486316 -0.184399
v 0.327608 0.621947 -0.210872
v 0.327608 0.471930 -0.214129
v 0.327608 0.306887 -0.217713
v 0.327608 0.141845 -0.221296
v 0.327608 -0.023197 -0.224880
v 0.327608 -0.668977 -0.238901
v 0.327608 -0.668965 -0.291095
v 0.327608 0.621945 -0.263066
v 0.327608 0.621945 0.263066
v 0.327608 -0.668956 0.291094
v 0.327608 -0.668966 0.238901
v 0.327608 -0.023192 0.224879
v 0.327608 0.141849 0.221296
v 0.327608 0.306890 0.217713
v 0.327608 0.471931 0.214129
v 0.327608 0.621947 0.210872
v 0.327608 0.126823 0.103625
v 0.327608 -0.023512 0.103625
v 0.327608 -0.668972 0.103625
v 0.327608 -0.668977 -0.103625
v 0.327608 -0.023515 -0.103625
v 0.327608 0.126821 -0.103625
v 0.298747 0.441444 0.142848
v 0.298747 0.441443 -0.142848
v 0.298747 0.336736 -0.145121
v 0.298747 0.336738 0.145121
v 0.298747 0.271249 0.145614
v 0.298747 0.271247 -0.145614
v 0.298747 0.166540 -0.147888
v 0.298747 0.166543 0.147888
v 0.298747 0.166543 0.091350
v 0.298747 0.166541 -0.091351
v 0.298747 0.609578 -0.140082
v 0.298747 0.504871 -0.142355
v 0.298747 0.609578 0.140082
v 0.298747 0.504872 0.142355
v 0.319660 0.621947 -0.210872
v 0.319660 0.471930 -0.214129
v 0.319660 0.621945 -0.263066
v 0.319660 0.306887 -0.217713
v 0.319660 0.141845 -0.221296
v 0.319660 -0.023197 -0.224880
v 0.319660 -0.668977 -0.238901
v 0.319660 -0.668965 -0.291095
v 0.319660 0.621945 0.263066
v 0.319660 -0.668956 0.291094
v 0.319660 0.621947 0.210872
v 0.319660 -0.668966 0.238901
v 0.319660 -0.023192 0.224879
v 0.319660 0.141849 0.221296
v 0.319660 0.306890 0.217713
v 0.319660 0.471931 0.214129
v 0.319660 0.126823 0.103625
v 0.319660 -0.023512 0.103625
v 0.319660 0.126821 -0.103625
v 0.319660 -0.668972 0.103625
v 0.319660 -0.668977 -0.103625
v 0.319660 -0.023515 -0.103625
v 0.319660 0.614752 -0.218224
v 0.319660 0.472086 -0.221322
v 0.319660 0.307044 -0.224905
v 0.319660 0.142001 -0.228489
v 0.319660 -0.023041 -0.232072
v 0.319660 -0.661781 -0.245941
v 0.319660 -0.661773 -0.283742
v 0.319660 0.614751 -0.256026
v 0.319660 0.614751 0.256026
v 0.319660 -0.661763 0.283742
v 0.319660 -0.661771 0.245941
v 0.319660 -0.023036 0.232072
v 0.319660 0.142005 0.228489
v 0.319660 0.307046 0.224905
v 0.319660 0.472087 0.221322
v 0.319660 0.614752 0.218224
v 0.319660 0.119629 0.096430
v 0.319660 -0.023512 0.096430
v 0.319660 -0.661778 0.096430
v 0.319660 -0.661783 -0.096431
v 0.319660 -0.023515 -0.096431
v 0.319660 0.119627 -0.096431
v 0.315302 0.614752 -0.218224
v 0.315302 0.472086 -0.221322
v 0.315302 0.614751 -0.256026
v 0.315302 0.307044 -0.224905
v 0.315302 0.142001 -0.228489
v 0.315302 -0.023041 -0.232072
v 0.315302 -0.661781 -0.245941
v 0.315302 -0.661773 -0.283742
v 0.315302 0.614751 0.256026
v 0.315302 -0.661763 0.283742
v 0.315302 0.614752 0.218224
v 0.315302 -0.661771 0.245941
v 0.315302 -0.023036 0.232072
v 0.315302 0.142005 0.228489
v 0.315302 0.307046 0.224905
v 0.315302 0.472087 0.221322
v 0.315302 0.119629 0.096430
v 0.315302 -0.023512 0.096430
v 0.315302 0.119627 -0.096431
v 0.315302 -0.661778 0.096430
v 0.315302 -0.661783 -0.096431
v 0.315302 -0.023515 -0.096431
v 0.271650 0.441444 0.142848
v 0.271650 0.441443 -0.142848
v 0.271650 0.336736 -0.145121
v 0.271650 0.336738 0.145121
v 0.271650 0.271249 0.145614
v 0.271650 0.271247 -0.145614
v 0.271650 0.166540 -0.147888
v 0.271650 0.166543 0.147888
v 0.271650 0.166543 0.091350
v 0.271650 0.166541 -0.091351
v 0.271650 0.609578 -0.140082
v 0.271650 0.504871 -0.142355
v 0.271650 0.609578 0.140082
v 0.271650 0.504872 0.142355
v 0.271650 0.429889 -0.131542
v 0.271650 0.429890 0.131542
v 0.271650 0.348292 0.133314
v 0.271650 0.348290 -0.133314
v 0.271650 0.259693 -0.134309
v 0.271650 0.259695 0.134309
v 0.271650 0.178097 0.136081
v 0.271650 0.178096 0.091350
v 0.271650 0.178094 -0.091351
v 0.271650 0.178094 -0.136081
v 0.271650 0.598024 -0.128776
v 0.271650 0.598024 0.128776
v 0.271650 0.516426 0.130548
v 0.271650 0.516425 -0.130548
v 0.265954 0.429890 0.131542
v 0.265954 0.429889 -0.131542
v 0.265954 0.348290 -0.133314
v 0.265954 0.348292 0.133314
v 0.265954 0.259695 0.134309
v 0.265954 0.259693 -0.134309
v 0.265954 0.178094 -0.136081
v 0.265954 0.178097 0.136081
v 0.265954 0.178096 0.091350
v 0.265954 0.178094 -0.091351
v 0.265954 0.598024 -0.128776
v 0.265954 0.516425 -0.130548
v 0.265954 0.598024 0.128776
v 0.265954 0.516426 0.130548
vn 0.7071 0.7071 -0.0000
vn -0.0000 1.0000 -0.0000
vn 1.0000 -0.0000 -0.0000
vn -0.0000 0.7071 -0.7071
vn -0.0000 -0.0000 -1.0000
vn -0.0000 -1.0000 -0.0000
vn -0.0000 -0.7071 0.7071
vn 0.7236 -0.0000 -0.6902
vn 0.5662 -0.6236 0.5390
vn 0.7071 -0.7071 -0.0000
vn 0.7236 -0.0000 0.6902
vn 0.0007 -0.8494 0.5278
vn -0.0000 -0.0000 1.0000
vn 0.0007 0.8494 -0.5278
vn -0.0000 -0.7071 -0.7071
vn 0.5662 0.6236 -0.5390
vn -1.0000 -0.0000 -0.0000
vn 0.7071 -0.0000 -0.7071
vn 0.7012 0.5042 0.5042
vn 0.7012 0.5042 -0.5042
vn 0.7071 -0.0000 0.7071
vn 0.7012 -0.0000 -0.7130
vn 0.7012 0.7130 -0.0000
vn 0.7012 -0.0000 0.7130
vn 0.7549 -0.0001 -0.6559
vn 0.0009 -0.7512 -0.6601
vn 0.0009 -0.7512 0.6601
vn 0.0008 -1.0000 -0.0000
vn 0.7549 -0.0001 0.6559
vn 0.7320 -0.5118 -0.4497
vn 0.7320 -0.5118 0.4497
vn 0.7111 -0.7031 -0.0000
vn -0.0000 0.7071 0.7071
vn 0.9772 -0.0000 0.2123
vn -0.0303 0.8456 -0.5329
vn 0.5662 -0.6236 -0.5390
vn 0.9772 -0.0000 -0.2123
vn 0.7071 0.5000 0.5000
vn 0.0007 0.8494 0.5278
vn 0.0007 -0.8494 -0.5278
vn 0.5662 0.6236 0.5390
vn 0.7071 -0.5000 0.5000
vn 0.7071 0.5000 -0.5000
vn 0.7071 -0.5000 -0.5000
vn -0.0303 -0.8456 -0.5329
vn 0.7138 -0.0000 -0.7004
vn 0.7138 -0.0000 0.7004
vn 0.2938 -0.0000 0.9559
vn -0.0303 0.8456 0.5329
vn 0.2938 -0.0000 -0.9559
vn -0.0303 -0.8456 0.5329
vn 0.0010 -0.0001 -1.0000
vn 0.0010 -0.0001 1.0000
vn -0.0000 0.0217 -0.9998
vn 0.4722 0.8815 -0.0000
vn 0.8274 -0.0122 -0.5615
vn 0.8274 -0.0122 0.5615
vn 0.3939 -0.9191 -0.0000
vn -0.0000 -0.0217 0.9998
vn -0.0000 -0.0217 -0.9998
vn -0.0000 0.0217 0.9998
vn 0.8218 -0.0124 0.5696
vn -0.0000 1.0000 -0.0002
vn 0.5813 -0.8137 -0.0000
vn 0.8329 -0.0120 0.5532
vn -0.0000 1.0000 0.0002
vn 0.8218 -0.0124 -0.5696
vn 0.8329 -0.0120 -0.5532
vn 0.5408 0.8412 -0.0000
vn 0.3363 0.9417 -0.0000
vn 0.4722 -0.8815 -0.0000
vt 0.621780 0.583333
vt 0.621780 0.573170
vt 0.693392 0.572086
vt 0.693391 0.677914
vt 0.621780 0.676830
vt 0.621780 0.665711
vt 0.875000 0.711655
vt 0.693392 0.711655
vt 0.875000 0.677914
vt 0.585395 0.583333
vt 0.549009 0.583333
vt 0.549009 0.569932
vt 0.625000 0.431609
vt 0.613202 0.431608
vt 0.613202 0.250000
vt 0.625000 0.250000
vt 0.450991 0.340804
vt 0.450991 0.431608
vt 0.386798 0.431608
vt 0.386798 0.250000
vt 0.450991 0.250000
vt 0.549009 0.818391
vt 0.549009 0.739534
vt 0.306608 0.711655
vt 0.306609 0.750000
vt 0.125000 0.750000
vt 0.125000 0.711655
vt 0.875000 0.572086
vt 0.450991 0.739534
vt 0.450991 0.818391
vt 0.549009 0.679949
vt 0.378220 0.573170
vt 0.306608 0.572086
vt 0.306608 0.677914
vt 0.378220 0.584289
vt 0.378220 0.666667
vt 0.378220 0.676830
vt 0.450991 0.569933
vt 0.450991 0.583333
vt 0.378220 0.583333
vt 0.125000 0.572086
vt 0.125000 0.538345
vt 0.306608 0.538345
vt 0.450991 0.666524
vt 0.450991 0.679949
vt 0.549009 0.250000
vt 0.549009 0.431608
vt 0.549009 0.340804
vt 0.549009 0.510466
vt 0.875000 0.538345
vt 0.693391 0.538345
vt 0.450991 0.909196
vt 0.450991 1.000000
vt 0.386798 1.000000
vt 0.386798 0.818392
vt 0.613202 0.818391
vt 0.613202 1.000000
vt 0.549009 1.000000
vt 0.549009 0.909196
vt 0.450991 0.510466
vt 0.582855 0.605573
vt 0.125000 0.677914
vt 0.574842 0.650318
vt 0.552601 0.650269
vt 0.450991 0.739534
vt 0.388132 0.739534
vt 0.378220 0.707320
vt 0.621780 0.542680
vt 0.585395 0.666260
vt 0.585395 0.658733
vt 0.585395 0.641958
vt 0.585395 0.607599
vt 0.585395 0.590843
vt 0.611868 0.510466
vt 0.621780 0.542680
vt 0.585395 0.650341
vt 0.585395 0.607588
vt 0.585395 0.599203
vt 0.574842 0.599215
vt 0.552601 0.599212
vt 0.585395 0.641956
vt 0.388132 0.510466
vt 0.573366 0.647486
vt 0.581831 0.640779
vt 0.585395 0.641956
vt 0.581831 0.608769
vt 0.573366 0.602044
vt 0.611868 0.739534
vt 0.549009 0.602038
vt 0.549009 0.599211
vt 0.549009 0.650262
vt 0.549009 0.647435
vt 0.552601 0.599212
vt 0.425158 0.599295
vt 0.426634 0.602135
vt 0.378220 0.542680
vt 0.414605 0.607713
vt 0.414605 0.607713
vt 0.425158 0.599295
vt 0.414605 0.642201
vt 0.425158 0.650613
vt 0.425158 0.650613
vt 0.426634 0.647770
vt 0.549009 0.647435
vt 0.549009 0.650262
vt 0.418169 0.608890
vt 0.418169 0.641032
vt 0.582855 0.643968
vt 0.552601 0.650270
vt 0.553253 0.599212
vt 0.582388 0.605202
vt 0.582388 0.644338
vt 0.582388 0.605202
vt 0.553253 0.650271
vt 0.582388 0.644338
vt 0.574842 0.650318
vt 0.553253 0.650271
vt 0.621780 0.707320
vt 0.125000 0.500000
vt 0.306608 0.500000
vt 0.306609 0.538345
vt 0.549009 0.666524
vt 0.621780 0.666667
vt 0.625000 0.711655
vt 0.613202 0.750000
vt 0.375000 0.714721
vt 0.375000 0.746935
vt 0.611868 0.510466
vt 0.613202 0.500000
vt 0.625000 0.538345
vt 0.375000 0.503066
vt 0.375000 0.535279
vt 0.625000 1.000000
vt 0.625000 0.818392
vt 0.547131 0.583333
vt 0.452869 0.583333
vt 0.452869 0.666517
vt 0.547131 0.666147
vt 0.625000 0.072086
vt 0.625000 0.177914
vt 0.625000 0.211655
vt 0.613202 0.250000
vt 0.375000 0.211655
vt 0.375000 0.177914
vt 0.375000 0.072086
vt 0.375000 0.038345
vt 0.386798 0.000000
vt 0.450991 0.000000
vt 0.549009 0.000000
vt 0.613202 0.000000
vt 0.625000 0.038345
vt 0.549009 0.666139
vt 0.549009 0.583333
vt 0.547131 0.583333
vt 0.546047 0.666151
vt 0.453953 0.666512
vt 0.546047 0.666151
vt 0.453953 0.583333
vt 0.546047 0.583333
vt 0.546047 0.583333
vt 0.453953 0.583333
vt 0.549009 0.595535
vt 0.549009 0.653937
vt 0.411901 0.654308
vt 0.393173 0.644680
vt 0.549009 0.653937
vt 0.419043 0.595613
vt 0.394128 0.605286
vt 0.427376 0.599293
vt 0.427376 0.650607
vt 0.500036 0.611437
vt 0.500036 0.617306
vt 0.428862 0.617783
vt 0.428861 0.611353
vt 0.517830 0.632515
vt 0.517830 0.638234
vt 0.500036 0.638298
vt 0.500036 0.632429
vt 0.571210 0.638035
vt 0.569625 0.637050
vt 0.569625 0.612526
vt 0.571211 0.611537
vt 0.428072 0.643410
vt 0.572123 0.643628
vt 0.553577 0.610517
vt 0.535745 0.610509
vt 0.570361 0.606941
vt 0.569783 0.610527
vt 0.517830 0.611461
vt 0.517830 0.617180
vt 0.500036 0.617306
vt 0.500036 0.611437
vt 0.571211 0.638035
vt 0.572123 0.605926
vt 0.537209 0.637193
vt 0.537209 0.612458
vt 0.551832 0.637132
vt 0.551831 0.612485
vt 0.428071 0.606490
vt 0.428862 0.632114
vt 0.428863 0.638544
vt 0.428072 0.643410
vt 0.500036 0.638298
vt 0.428862 0.632114
vt 0.553417 0.611511
vt 0.553417 0.638103
vt 0.535623 0.638169
vt 0.535623 0.611485
vt 0.535623 0.638169
vt 0.534038 0.637212
vt 0.534038 0.612446
vt 0.517830 0.638234
vt 0.519415 0.637271
vt 0.519415 0.632521
vt 0.519415 0.617170
vt 0.519415 0.612419
vt 0.555002 0.637112
vt 0.553417 0.611511
vt 0.555002 0.612497
vt 0.517913 0.610501
vt 0.500082 0.610495
vt 0.430311 0.610476
vt 0.429812 0.607363
vt 0.429813 0.642533
vt 0.570361 0.642621
vt 0.430312 0.639418
vt 0.500082 0.639239
vt 0.517914 0.639191
vt 0.535746 0.639143
vt 0.553577 0.639093
vt 0.569783 0.639046
vt 0.500036 0.631492
vt 0.516244 0.631559
vt 0.430448 0.631226
vt 0.430447 0.618668
vt 0.500036 0.618243
vt 0.516244 0.618139
vt 0.569500 0.642128
vt 0.430663 0.642103
vt 0.569500 0.607437
vt 0.569084 0.610033
vt 0.553656 0.639578
vt 0.569084 0.639541
vt 0.553656 0.610031
vt 0.535805 0.610031
vt 0.517955 0.610032
vt 0.500104 0.610034
vt 0.431021 0.610046
vt 0.430662 0.607791
vt 0.431023 0.639846
vt 0.500105 0.639699
vt 0.517955 0.639660
vt 0.535806 0.639619
vt 0.500036 0.631033
vt 0.515469 0.631092
vt 0.431223 0.630791
vt 0.431223 0.619101
vt 0.500036 0.618702
vt 0.515469 0.618607
vt 0.550218 0.613476
vt 0.550218 0.636145
vt 0.556616 0.613503
vt 0.568012 0.613531
vt 0.568012 0.636049
vt 0.538822 0.636198
vt 0.538822 0.613449
vt 0.532425 0.636239
vt 0.532424 0.613422
vt 0.521029 0.636291
vt 0.521029 0.632528
vt 0.521029 0.617160
vt 0.521029 0.613397
vt 0.556616 0.636103
s 0
usemtl Noir_Light
f 9/1/1 153/2/1 146/3/1 137/4/1 134/5/1 10/6/1
f 4/7/2 29/8/2 11/4/2 137/4/2 132/9/2
f 153/2/3 9/1/3 17/10/3 217/11/3 147/12/3
f 123/13/4 62/14/4 8/15/4 7/16/4
f 163/17/5 61/18/5 16/18/5 164/19/5 5/20/5 14/21/5
f 32/22/6 142/23/6 28/23/6 24/22/6
f 47/24/7 40/25/7 2/26/7 1/27/7
f 132/9/2 137/4/2 146/3/2 151/28/2
f 141/29/2 64/30/2 15/30/2 166/29/2
f 136/31/8 134/5/8 149/5/8 148/31/8
f 145/32/9 152/33/9 138/33/9 23/32/9
f 133/34/10 152/33/10 145/32/10 213/35/10 212/36/10 140/37/10
f 153/2/11 147/12/11 19/12/11 131/2/11
f 154/38/3 181/39/3 213/40/3 145/32/3
f 152/33/6 150/41/6 6/42/6 125/43/6 138/33/6
f 140/37/3 212/36/3 183/44/3 139/45/3
f 142/23/12 136/31/12 148/31/12 28/23/12
f 13/46/5 8/15/5 62/14/5 159/47/5 124/47/5 161/48/5
f 126/49/6 124/47/6 159/47/6 158/49/6
f 140/37/8 139/45/8 165/45/8 160/37/8
f 154/38/11 145/32/11 23/32/11 20/38/11
f 7/50/2 151/28/2 146/3/2 21/3/2 123/51/2
f 13/46/5 161/48/5 163/17/5 14/21/5
f 64/30/13 155/52/13 121/53/13 2/54/13 40/55/13 15/30/13
f 39/56/13 3/57/13 12/58/13 162/59/13 32/22/13 24/22/13
f 127/60/14 154/38/14 20/38/14 22/60/14
f 36/61/15 56/61/15 106/61/15 99/61/15
f 134/5/16 137/4/16 11/4/16 149/5/16
f 1/27/6 135/62/6 133/34/6 157/34/6 47/24/6
f 61/18/2 127/60/2 22/60/2 16/18/2
f 33/63/3 25/64/3 102/64/3 86/63/3
f 160/37/3 165/45/3 166/65/3 44/66/3 46/67/3
f 131/2/1 122/68/1 123/51/1 21/3/1
f 9/1/3 10/6/3 18/69/3 35/70/3 74/71/3 75/72/3 38/73/3 17/10/3
f 131/2/3 19/12/3 158/49/3 63/74/3 122/75/3
f 73/63/3 74/76/3 35/70/3
f 75/77/3 76/78/3 38/73/3
f 54/79/17 43/80/17 107/80/17 88/79/17
f 160/37/10 46/67/10 47/24/10 157/34/10
f 75/77/2 74/81/2 79/81/2 82/77/2
f 22/60/18 156/82/18 164/19/18 16/18/18
f 59/83/19 57/84/19 79/85/19 80/63/19
f 55/86/20 53/87/20 81/79/20 82/77/20
f 28/23/21 31/88/21 39/56/21 24/22/21
f 63/74/18 158/49/18 159/47/18 62/14/18
f 53/87/22 27/89/22 83/90/22 81/79/22
f 82/77/23 79/81/23 57/84/23 55/86/23
f 80/63/24 84/91/24 41/92/24 59/83/24
f 43/80/2 26/93/2 101/93/2 107/80/2
f 77/90/2 83/90/2 67/90/2 218/90/2
f 83/90/2 27/89/2 68/89/2 67/90/2
f 84/91/2 78/91/2 216/91/2 70/91/2
f 50/94/25 67/90/25 68/89/25 66/95/25
f 44/66/21 166/29/21 15/30/21 40/55/21
f 156/82/3 22/60/3 20/38/3 23/32/3 128/96/3
f 51/97/26 215/98/26 214/99/26 50/94/26
f 71/100/27 52/100/27 48/101/27 72/102/27
f 71/100/28 215/98/28 51/97/28 52/100/28
f 49/103/29 69/104/29 70/105/29 48/102/29
f 66/95/30 65/106/30 51/97/30 50/94/30
f 45/107/31 49/103/31 48/101/31 52/100/31
f 52/100/32 51/97/32 65/106/32 45/107/32
f 41/92/2 84/91/2 70/91/2 69/92/2
f 33/63/33 34/108/33 74/81/33 73/63/33
f 36/61/4 37/79/4 76/79/4 75/77/4
f 37/79/5 26/93/5 77/90/5 76/79/5
f 25/64/13 33/63/13 73/63/13 78/91/13
f 58/108/33 60/63/33 80/63/33 79/85/33
f 54/79/4 56/61/4 82/77/4 81/79/4
f 43/80/5 54/79/5 81/79/5 83/90/5
f 60/63/13 42/109/13 84/91/13 80/63/13
f 42/109/13 25/64/13 78/91/13 84/91/13
f 26/93/5 43/80/5 83/90/5 77/90/5
f 56/61/4 36/61/4 75/77/4 82/77/4
f 34/108/33 58/108/33 79/85/33 74/81/33
f 34/108/3 33/63/3 86/63/3 98/108/3
f 42/109/17 60/63/17 85/63/17 108/109/17
f 60/63/17 58/108/17 103/108/17 85/63/17
f 58/108/7 34/108/7 98/108/7 103/108/7
f 37/79/3 36/61/3 99/61/3 87/79/3
f 25/64/2 42/109/2 108/109/2 102/64/2
f 56/61/17 54/79/17 88/79/17 106/61/17
f 26/93/3 37/79/3 87/79/3 101/93/3
f 169/49/34 182/11/34 184/39/34 171/60/34
f 181/39/35 154/38/35 127/60/35 171/60/35 184/39/35
f 149/5/3 30/118/3 31/88/3 28/23/3 148/31/3
f 6/42/15 5/119/15 164/120/15 125/121/15
f 133/34/6 135/62/6 150/41/6 152/33/6
f 134/5/3 136/31/3 179/122/3 18/69/3 10/123/3
f 133/34/36 140/37/36 160/37/36 157/34/36
f 162/59/6 168/22/6 32/22/6
f 128/96/10 23/32/10 138/33/10 125/43/10
f 124/47/6 126/49/6 169/49/6 173/47/6
f 177/65/37 185/44/37 180/122/37 175/23/37
f 31/88/38 30/118/38 29/124/38 39/125/38
f 139/45/39 141/65/39 166/65/39 165/45/39
f 147/12/40 126/49/40 158/49/40 19/12/40
f 162/59/13 12/58/13 121/53/13 155/52/13
f 146/3/41 153/2/41 131/2/41 21/3/41
f 46/126/42 44/127/42 40/25/42 47/24/42
f 122/75/43 63/128/43 62/129/43 123/130/43
f 156/131/44 128/132/44 125/121/44 164/120/44
f 30/118/1 149/5/1 11/4/1 29/8/1
f 4/133/33 3/57/33 39/56/33 29/134/33
f 64/30/2 174/30/2 155/52/2
f 126/49/45 147/12/45 217/11/45 182/11/45 169/49/45
f 171/60/46 167/18/46 173/47/46 169/49/46
f 175/23/47 168/22/47 174/30/47 177/29/47
f 155/52/48 174/30/48 168/22/48 162/59/48
f 61/18/2 163/17/2 167/18/2
f 142/23/6 32/22/6 168/22/6 175/23/6
f 144/135/17 143/136/17 197/136/17 196/135/17
f 127/60/2 61/18/2 167/18/2 171/60/2
f 64/30/2 141/29/2 177/29/2 174/30/2
f 124/47/6 173/47/6 161/48/6
f 139/45/49 183/44/49 185/44/49 177/65/49 141/65/49
f 130/137/17 129/138/17 194/138/17 199/137/17
f 161/48/50 173/47/50 167/18/50 163/17/50
f 132/139/17 151/140/17 7/141/17 8/142/17 13/46/17 14/21/17 5/20/17 6/143/17 150/144/17 135/145/17 1/146/17 2/147/17 121/148/17 12/149/17 3/150/17 4/151/17
f 179/122/51 136/31/51 142/23/51 175/23/51 180/122/51
f 172/138/13 129/138/13 179/152/13 180/152/13
f 143/136/5 144/135/5 217/153/5 181/39/5
f 144/135/5 176/154/5 182/153/5 217/153/5
f 129/138/13 130/137/13 183/44/13 179/152/13
f 170/136/5 143/136/5 181/39/5 184/39/5
f 178/137/13 172/138/13 180/152/13 185/44/13
f 176/154/5 170/136/5 184/39/5 182/153/5
f 130/137/13 178/137/13 185/44/13 183/44/13
f 170/136/3 176/154/3 198/154/3 200/136/3
f 143/136/2 170/136/2 200/136/2 197/136/2
f 176/154/6 144/135/6 196/135/6 198/154/6
f 129/138/6 172/138/6 195/138/6 194/138/6
f 178/137/2 130/137/2 199/137/2 201/137/2
f 172/138/3 178/137/3 201/137/3 195/138/3
f 218/162/3 217/153/3 17/10/3 38/73/3 76/79/3 77/90/3
f 216/163/3 179/152/3 183/44/3 212/36/3 72/164/3
f 72/164/3 212/36/3 71/165/3
f 73/63/3 35/70/3 18/69/3 179/152/3 216/166/3 78/91/3
f 214/167/3 213/40/3 181/39/3 217/153/3 218/162/3
f 71/165/3 212/36/3 213/40/3 215/168/3
f 218/90/52 67/90/52 50/94/52 214/99/52 210/169/52
f 215/168/3 213/40/3 214/167/3
f 211/170/53 72/102/53 48/102/53 70/105/53 216/105/53
f 227/171/3 237/172/3 235/173/3 220/174/3
f 239/175/3 233/176/3 228/177/3 238/178/3
f 224/179/3 252/180/3 251/181/3 225/182/3
f 41/92/3 69/104/3 49/103/3 222/183/3 223/184/3 59/83/3
f 256/185/54 257/186/54 294/186/54 292/185/54
f 262/187/6 255/188/6 291/188/6 293/187/6
f 255/188/54 256/185/54 292/185/54 291/188/54
f 232/189/3 240/190/3 237/191/3 227/192/3
f 223/184/3 224/193/3 225/182/3 226/194/3 53/87/3 55/86/3 57/84/3 59/83/3
f 243/195/55 244/196/55 279/196/55 280/195/55
f 242/197/56 243/195/56 280/195/56 277/197/56
f 244/196/57 241/198/57 278/198/57 279/196/57
f 53/87/3 226/194/3 219/199/3 66/95/3 68/89/3 27/89/3
f 219/199/3 220/174/3 235/173/3 236/200/3 221/201/3 222/202/3 49/103/3 45/107/3 65/106/3 66/95/3
f 238/178/3 228/203/3 221/201/3 236/204/3
f 234/205/3 231/206/3 242/197/3 241/198/3
f 231/206/3 229/207/3 243/195/3 242/197/3
f 229/207/3 230/208/3 244/196/3 243/195/3
f 230/208/3 234/205/3 241/198/3 244/196/3
f 230/208/3 229/209/3 246/210/3 245/211/3
f 229/209/3 233/212/3 247/213/3 246/210/3
f 233/212/3 239/175/3 248/214/3 247/213/3
f 239/175/3 240/190/3 249/215/3 248/214/3
f 240/190/3 232/189/3 250/216/3 249/215/3
f 232/189/3 230/208/3 245/211/3 250/216/3
f 251/181/58 252/180/58 289/180/58 287/181/58
f 224/179/3 231/206/3 253/217/3 252/180/3
f 231/206/3 234/218/3 254/219/3 253/217/3
f 234/218/3 225/182/3 251/181/3 254/219/3
f 225/182/3 234/205/3 256/185/3 255/188/3
f 234/205/3 230/208/3 257/186/3 256/185/3
f 230/208/3 232/189/3 258/220/3 257/186/3
f 232/189/3 227/171/3 259/221/3 258/220/3
f 227/171/3 220/174/3 260/222/3 259/221/3
f 220/174/3 219/199/3 261/223/3 260/222/3
f 219/199/3 226/194/3 262/187/3 261/223/3
f 226/194/3 225/182/3 255/188/3 262/187/3
f 223/184/3 222/183/3 264/224/3 263/225/3
f 222/183/3 221/201/3 265/226/3 264/224/3
f 221/201/3 228/177/3 266/227/3 265/226/3
f 228/177/3 233/212/3 267/228/3 266/227/3
f 233/212/3 229/207/3 268/229/3 267/228/3
f 229/207/3 231/206/3 269/230/3 268/229/3
f 231/206/3 224/179/3 270/231/3 269/230/3
f 224/179/3 223/184/3 263/225/3 270/231/3
f 239/175/3 238/178/3 272/232/3 271/233/3
f 238/178/3 236/204/3 273/234/3 272/232/3
f 236/204/3 235/173/3 274/235/3 273/234/3
f 235/173/3 237/191/3 275/236/3 274/235/3
f 237/191/3 240/190/3 276/237/3 275/236/3
f 240/190/3 239/175/3 271/233/3 276/237/3
f 286/215/2 283/216/2 363/216/2 366/215/2
f 279/196/59 278/198/59 358/198/59 359/196/59
f 285/214/2 286/215/2 366/215/2 365/214/2
f 263/225/60 264/224/60 300/224/60 299/225/60
f 257/186/54 258/220/54 295/220/54 294/186/54
f 287/181/6 289/180/6 369/180/6 367/181/6
f 270/231/6 263/225/6 299/225/6 301/231/6
f 258/220/54 259/221/54 296/221/54 295/220/54
f 254/219/62 251/181/62 287/181/62 288/219/62
f 264/224/63 265/226/63 302/226/63 300/224/63
f 245/211/64 246/210/64 281/210/64 282/211/64
f 259/221/54 260/222/54 297/222/54 296/221/54
f 271/233/5 272/232/5 308/232/5 307/233/5
f 265/226/61 266/227/61 303/227/61 302/226/61
f 250/216/65 245/211/65 282/211/65 283/216/65
f 260/222/66 261/223/66 298/223/66 297/222/66
f 276/237/6 271/233/6 307/233/6 309/237/6
f 252/180/67 253/217/67 290/217/67 289/180/67
f 266/227/61 267/228/61 304/228/61 303/227/61
f 246/210/68 247/213/68 284/213/68 281/210/68
f 261/223/59 262/187/59 293/187/59 298/223/59
f 272/232/5 273/234/5 310/234/5 308/232/5
f 253/217/69 254/219/69 288/219/69 290/217/69
f 267/228/61 268/229/61 305/229/61 304/228/61
f 247/213/70 248/214/70 285/214/70 284/213/70
f 273/234/2 274/235/2 311/235/2 310/234/2
f 268/229/61 269/230/61 306/230/61 305/229/61
f 248/214/70 249/215/70 286/215/70 285/214/70
f 274/235/13 275/236/13 312/236/13 311/235/13
f 269/230/61 270/231/61 301/231/61 306/230/61
f 249/215/70 250/216/70 283/216/70 286/215/70
f 275/236/13 276/237/13 309/237/13 312/236/13
f 241/198/71 242/197/71 277/197/71 278/198/71
f 277/197/60 280/195/60 360/195/60 357/197/60
f 280/195/2 279/196/2 359/196/2 360/195/2
f 288/219/59 287/181/59 367/181/59 368/219/59
f 282/211/6 281/210/6 361/210/6 362/211/6
f 283/216/59 282/211/59 362/211/59 363/216/59
f 289/180/60 290/217/60 370/217/60 369/180/60
f 281/210/60 284/213/60 364/213/60 361/210/60
f 290/217/2 288/219/2 368/219/2 370/217/2
f 284/213/2 285/214/2 365/214/2 364/213/2
f 278/198/6 277/197/6 357/197/6 358/198/6
usemtl Noir_Profond
f 105/79/17 95/110/17 119/110/17 112/79/17
f 95/110/2 91/110/2 115/110/2 119/110/2
f 91/110/3 100/79/3 111/79/3 115/110/3
f 94/111/17 105/79/17 112/79/17 118/111/17
f 97/63/33 89/112/33 98/108/33 86/63/33
f 90/113/4 100/79/4 87/79/4 99/61/4
f 100/79/5 91/110/5 101/93/5 87/79/5
f 92/114/13 97/63/13 86/63/13 102/64/13
f 93/115/33 104/116/33 85/63/33 103/108/33
f 105/79/4 94/111/4 106/61/4 88/79/4
f 95/110/5 105/79/5 88/79/5 107/80/5
f 104/116/13 96/117/13 108/109/13 85/63/13
f 96/117/13 92/114/13 102/64/13 108/109/13
f 91/110/5 95/110/5 107/80/5 101/93/5
f 94/111/4 90/113/4 99/61/4 106/61/4
f 89/112/33 93/115/33 103/108/33 98/108/33
f 97/63/3 92/114/3 116/114/3 110/63/3
f 90/113/15 94/111/15 118/111/15 114/113/15
f 89/112/3 97/63/3 110/63/3 113/112/3
f 96/117/17 104/116/17 109/116/17 120/117/17
f 104/116/17 93/115/17 117/115/17 109/116/17
f 93/115/7 89/112/7 113/112/7 117/115/7
f 100/79/3 90/113/3 114/113/3 111/79/3
f 92/114/2 96/117/2 120/117/2 116/114/2
f 187/155/3 193/156/3 209/156/3 203/155/3
f 193/156/2 191/156/2 207/156/2 209/156/2
f 187/155/13 186/157/13 194/138/13 195/138/13
f 189/158/5 188/159/5 196/135/5 197/136/5
f 188/159/5 190/160/5 198/154/5 196/135/5
f 186/157/13 191/156/13 199/137/13 194/138/13
f 192/161/5 189/158/5 197/136/5 200/136/5
f 193/156/13 187/155/13 195/138/13 201/137/13
f 190/160/5 192/161/5 200/136/5 198/154/5
f 191/156/13 193/156/13 201/137/13 199/137/13
f 191/156/17 186/157/17 202/157/17 207/156/17
f 188/159/17 189/158/17 205/158/17 204/159/17
f 192/161/3 190/160/3 206/160/3 208/161/3
f 189/158/2 192/161/2 208/161/2 205/158/2
f 190/160/6 188/159/6 204/159/6 206/160/6
f 186/157/6 187/155/6 203/155/6 202/157/6
f 321/238/60 322/239/60 344/239/60 343/238/60
f 320/240/6 313/241/6 335/241/6 337/240/6
f 327/242/61 328/243/61 345/243/61 350/242/61
f 291/188/3 292/185/3 314/244/3 313/241/3
f 292/185/3 294/186/3 315/245/3 314/244/3
f 294/186/3 295/220/3 316/246/3 315/245/3
f 295/220/3 296/221/3 317/247/3 316/246/3
f 296/221/3 297/222/3 318/248/3 317/247/3
f 297/222/3 298/223/3 319/249/3 318/248/3
f 298/223/3 293/187/3 320/240/3 319/249/3
f 293/187/3 291/188/3 313/241/3 320/240/3
f 299/225/3 300/224/3 322/239/3 321/238/3
f 300/224/3 302/226/3 323/250/3 322/239/3
f 302/226/3 303/227/3 324/251/3 323/250/3
f 303/227/3 304/228/3 325/252/3 324/251/3
f 304/228/3 305/229/3 326/253/3 325/252/3
f 305/229/3 306/230/3 327/242/3 326/253/3
f 306/230/3 301/231/3 328/243/3 327/242/3
f 301/231/3 299/225/3 321/238/3 328/243/3
f 307/233/3 308/232/3 330/254/3 329/255/3
f 308/232/3 310/234/3 331/256/3 330/254/3
f 310/234/3 311/235/3 332/257/3 331/256/3
f 311/235/3 312/236/3 333/258/3 332/257/3
f 312/236/3 309/237/3 334/259/3 333/258/3
f 309/237/3 307/233/3 329/255/3 334/259/3
f 314/244/54 315/245/54 338/245/54 336/244/54
f 328/243/6 321/238/6 343/238/6 345/243/6
f 329/255/5 330/254/5 352/254/5 351/255/5
f 315/245/54 316/246/54 339/246/54 338/245/54
f 322/239/63 323/250/63 346/250/63 344/239/63
f 334/259/6 329/255/6 351/255/6 353/259/6
f 316/246/54 317/247/54 340/247/54 339/246/54
f 323/250/61 324/251/61 347/251/61 346/250/61
f 330/254/5 331/256/5 354/256/5 352/254/5
f 317/247/54 318/248/54 341/248/54 340/247/54
f 324/251/61 325/252/61 348/252/61 347/251/61
f 331/256/2 332/257/2 355/257/2 354/256/2
f 318/248/66 319/249/66 342/249/66 341/248/66
f 325/252/61 326/253/61 349/253/61 348/252/61
f 332/257/13 333/258/13 356/258/13 355/257/13
f 319/249/59 320/240/59 337/240/59 342/249/59
f 326/253/61 327/242/61 350/242/61 349/253/61
f 333/258/13 334/259/13 353/259/13 356/258/13
f 313/241/54 314/244/54 336/244/54 335/241/54
f 371/260/6 372/261/6 385/261/6 386/260/6
f 384/262/59 381/263/59 395/263/59 396/262/59
f 367/181/3 369/180/3 382/264/3 381/263/3
f 358/198/3 357/197/3 372/261/3 371/260/3
f 357/197/3 360/195/3 373/265/3 372/261/3
f 360/195/3 359/196/3 374/266/3 373/265/3
f 359/196/3 358/198/3 371/260/3 374/266/3
f 362/211/3 361/210/3 376/267/3 375/268/3
f 361/210/3 364/213/3 377/269/3 376/267/3
f 364/213/3 365/214/3 378/270/3 377/269/3
f 365/214/3 366/215/3 379/271/3 378/270/3
f 366/215/3 363/216/3 380/272/3 379/271/3
f 363/216/3 362/211/3 375/268/3 380/272/3
f 381/263/6 382/264/6 397/264/6 395/263/6
f 369/180/3 370/217/3 383/273/3 382/264/3
f 370/217/3 368/219/3 384/262/3 383/273/3
f 368/219/3 367/181/3 381/263/3 384/262/3
f 375/268/6 376/267/6 389/267/6 390/268/6
f 382/264/60 383/273/60 398/273/60 397/264/60
f 374/266/59 371/260/59 386/260/59 387/266/59
f 380/272/59 375/268/59 390/268/59 391/272/59
f 383/273/2 384/262/2 396/262/2 398/273/2
f 372/261/60 373/265/60 388/265/60 385/261/60
f 376/267/60 377/269/60 392/269/60 389/267/60
f 373/265/2 374/266/2 387/266/2 388/265/2
f 377/269/2 378/270/2 393/270/2 392/269/2
f 378/270/2 379/271/2 394/271/2 393/270/2
f 379/271/2 380/272/2 391/272/2 394/271/2
usemtl Bleu_Neon
f 110/63/33 109/116/33 117/115/33 113/112/33
f 115/110/5 111/79/5 112/79/5 119/110/5
f 112/79/4 111/79/4 114/113/4 118/111/4
f 110/63/13 116/114/13 120/117/13 109/116/13
f 204/159/5 205/158/5 208/161/5 206/160/5
f 207/156/13 202/157/13 203/155/13 209/156/13
f 335/241/3 336/244/3 338/245/3 339/246/3 340/247/3 341/248/3 342/249/3 337/240/3
f 343/238/3 344/239/3 346/250/3 347/251/3 348/252/3 349/253/3 350/242/3 345/243/3
f 351/255/3 352/254/3 354/256/3 355/257/3 356/258/3 353/259/3
f 386/260/3 385/261/3 388/265/3 387/266/3
f 390/268/3 389/267/3 392/269/3 393/270/3 394/271/3 391/272/3
f 395/263/3 397/264/3 398/273/3 396/262/3
