# Blender 4.2.3 LTS
# www.blender.org
mtllib SM_Wall_Deco_Panel_01.mtl
o SM_Wall_Deco_Panel_01
v 0.050000 -0.900805 0.815785
v 0.050000 -0.815785 0.900805
v 0.050000 0.815785 0.900805
v 0.050000 0.900805 0.815785
v 0.050000 -0.815785 -0.900805
v 0.050000 -0.900805 -0.815785
v 0.050000 0.900805 -0.815785
v 0.050000 0.815785 -0.900805
v 0.111622 -0.815785 0.900805
v 0.111622 -0.900805 0.815785
v 0.111622 0.900805 0.815785
v 0.111622 0.815785 0.900805
v 0.111622 -0.900805 -0.815785
v 0.111622 -0.815785 -0.900805
v 0.111622 0.815785 -0.900805
v 0.111622 0.900805 -0.815785
v 0.050000 0.900805 0.671700
v 0.050000 0.900805 -0.671700
v 0.050000 -0.900805 0.671700
v 0.050000 -0.900805 -0.671700
v 0.134829 -0.877599 -0.671700
v 0.134829 -0.877599 0.671700
v 0.111622 -0.900805 0.671700
v 0.111622 -0.900805 -0.671700
v 0.134829 0.877599 0.671700
v 0.134829 0.877599 -0.671700
v 0.111622 0.900805 -0.671700
v 0.111622 0.900805 0.671700
v 0.134829 -0.783743 -0.671700
v 0.134829 -0.783743 0.671700
v 0.134829 0.783683 -0.671700
v 0.134829 0.783683 0.671700
v 0.229284 0.743423 -0.288549
v 0.229284 0.568369 -0.463603
v 0.229284 0.568369 0.463603
v 0.229284 0.743423 0.288549
v 0.229284 -0.743483 0.288549
v 0.229284 -0.568429 0.463603
v 0.229284 -0.568429 -0.463603
v 0.229284 -0.743483 -0.288549
v 0.134829 -0.615080 -0.544123
v 0.134829 -0.824003 -0.333995
v 0.134829 -0.783758 -0.667671
v 0.134829 -0.743483 -0.289071
v 0.134829 -0.568952 -0.463603
v 0.134829 -0.568951 0.463603
v 0.134829 -0.743483 0.289071
v 0.134829 -0.824003 0.333995
v 0.134829 -0.615080 0.544123
v 0.134829 -0.783758 0.667672
v 0.134829 0.615020 0.544123
v 0.134829 0.823943 0.333995
v 0.134829 0.783699 0.667671
v 0.134829 0.743423 0.289071
v 0.134829 0.568892 0.463603
v 0.134829 0.568892 -0.463603
v 0.134829 0.743423 -0.289071
v 0.134829 0.823943 -0.333995
v 0.134829 0.615020 -0.544123
v 0.134829 0.783699 -0.667672
v 0.134829 0.696999 0.269842
v 0.134829 0.549662 0.417179
v 0.134829 -0.549722 0.417179
v 0.134829 -0.697059 0.269842
v 0.134829 -0.697059 -0.269842
v 0.134829 -0.549722 -0.417179
v 0.134829 0.549662 -0.417179
v 0.134829 0.696999 -0.269842
v 0.185604 0.516122 0.391724
v 0.185604 0.654469 0.253377
v 0.185604 0.654469 -0.253377
v 0.185604 -0.516182 0.391724
v 0.185604 -0.654528 0.253377
v 0.185604 -0.654528 -0.253377
v 0.185604 -0.516182 -0.391724
v 0.185604 0.516122 -0.391724
v 0.229284 0.594769 -0.509659
v 0.192737 0.614717 -0.544123
v 0.192737 0.823943 -0.333705
v 0.229284 0.789213 -0.314124
v 0.229284 0.789213 0.314124
v 0.192737 0.823943 0.333705
v 0.192737 0.614717 0.544123
v 0.229284 0.594769 0.509658
v 0.229284 -0.594829 0.509659
v 0.192737 -0.614776 0.544123
v 0.192737 -0.824003 0.333705
v 0.229284 -0.789272 0.314124
v 0.229284 -0.789272 -0.314124
v 0.192737 -0.824003 -0.333705
v 0.192737 -0.614776 -0.544123
v 0.229284 -0.594829 -0.509658
v 0.223066 -0.877599 0.671700
v 0.223066 -0.877599 0.806172
v 0.199860 -0.815785 -0.900805
v 0.223066 -0.806172 -0.877599
v 0.223066 -0.877599 -0.806172
v 0.199860 -0.900805 -0.815785
v 0.199860 0.900805 -0.815785
v 0.223066 0.877599 -0.806172
v 0.223066 0.806172 -0.877599
v 0.199860 0.815785 -0.900805
v 0.199860 -0.900805 0.815785
v 0.223066 -0.806172 0.877599
v 0.199860 -0.815785 0.900805
v 0.199860 0.815785 0.900805
v 0.223066 0.806172 0.877599
v 0.223066 0.877599 0.806172
v 0.199860 0.900805 0.815785
v 0.199860 -0.900805 -0.671700
v 0.223066 0.877599 -0.671700
v 0.199860 0.900805 0.671700
v 0.223066 -0.877599 -0.671700
v 0.199860 -0.900805 0.671700
v 0.223066 0.877599 0.671700
v 0.199860 0.900805 -0.671700
v 0.223066 -0.783743 -0.671700
v 0.223066 -0.783743 0.671700
v 0.223066 0.783683 -0.671700
v 0.223066 0.783683 0.671700
v 0.164661 -0.457732 -0.126688
v 0.164661 0.457672 -0.126688
v 0.164661 0.457672 0.126688
v 0.164661 -0.457732 0.126688
v 0.157876 -0.457732 -0.126688
v 0.185604 0.654469 -0.126688
v 0.185604 -0.654528 0.126688
v 0.185604 0.506941 0.253377
v 0.185604 -0.507001 -0.253377
v 0.185604 0.654469 0.126688
v 0.185604 -0.654528 -0.126688
v 0.185604 -0.507001 0.253377
v 0.185604 0.506941 -0.253377
v 0.164661 -0.457732 -0.253377
v 0.164661 0.457672 -0.253377
v 0.164661 0.457672 0.253377
v 0.164661 -0.457732 0.253377
v 0.185604 -0.507001 0.126688
v 0.185604 0.506941 0.126688
v 0.185604 0.506941 -0.126688
v 0.185604 -0.507001 -0.126688
v 0.157876 0.457672 -0.126688
v 0.157876 -0.457732 -0.253377
v 0.157876 0.457672 -0.253377
v 0.157876 -0.457732 0.126688
v 0.157876 0.457672 0.126688
v 0.157876 -0.457732 0.253377
v 0.157876 0.457672 0.253377
v 0.157876 0.419727 0.215432
v 0.157876 -0.419787 0.215432
v 0.157876 -0.419787 0.164633
v 0.157876 0.419727 0.164633
v 0.157876 0.419727 -0.164633
v 0.157876 -0.419787 -0.164633
v 0.157876 -0.419787 -0.215432
v 0.157876 0.419727 -0.215432
v 0.150591 -0.419787 0.215432
v 0.150591 0.419727 0.215432
v 0.150591 0.419727 0.164633
v 0.150591 -0.419787 0.164633
v 0.150591 -0.419787 -0.164633
v 0.150591 0.419727 -0.164633
v 0.150591 0.419727 -0.215432
v 0.150591 -0.419787 -0.215432
vn -0.0000 1.0000 -0.0000
vn -1.0000 -0.0000 -0.0000
vn -0.0000 -0.7071 -0.7071
vn -0.0000 0.7071 -0.7071
vn -0.0000 0.7071 0.7071
vn -0.0000 -0.7071 0.7071
vn -0.0000 -1.0000 -0.0000
vn -0.0000 -0.0000 -1.0000
vn -0.0000 -0.0000 1.0000
vn 0.7071 0.7071 -0.0000
vn 0.7071 -0.7071 -0.0000
vn 0.6348 -0.5464 0.5464
vn 1.0000 -0.0000 -0.0000
vn 0.0036 -0.7091 -0.7051
vn 0.0036 0.7091 0.7051
vn 0.0036 -0.7091 0.7051
vn 0.0036 0.7091 -0.7051
vn -0.0039 -0.7071 -0.7071
vn -0.0039 -0.7071 0.7071
vn -0.0039 0.7071 -0.7071
vn -0.0039 0.7071 0.7071
vn 0.6421 0.7666 -0.0000
vn 0.4482 -0.0000 -0.8940
vn 0.6421 -0.7666 -0.0000
vn 0.4482 -0.0000 0.8940
vn 0.6348 0.5464 0.5464
vn 0.6348 0.5464 -0.5464
vn 0.6348 -0.5464 -0.5464
vn 0.7247 -0.4886 0.4858
vn 0.7247 0.4886 -0.4858
vn 0.7247 0.4886 0.4858
vn 0.7247 -0.4886 -0.4858
vn 0.6889 0.7249 -0.0000
vn 0.6861 -0.0000 -0.7275
vn 0.6861 -0.0000 0.7275
vn 0.6889 -0.7249 -0.0000
vn 0.7071 -0.5000 -0.5000
vn 0.7071 0.5000 -0.5000
vn 0.7071 -0.5000 0.5000
vn 0.7071 0.5000 0.5000
vn 0.7071 -0.0000 -0.7071
vn 0.7071 -0.0000 0.7071
vn 0.9203 -0.3912 -0.0000
vn 0.9203 0.3912 -0.0000
vt 0.875000 0.653885
vt 0.875000 0.711655
vt 0.693392 0.711655
vt 0.693391 0.653885
vt 0.375000 0.153885
vt 0.625000 0.153885
vt 0.625000 0.211655
vt 0.613202 0.250000
vt 0.386798 0.250000
vt 0.375000 0.211655
vt 0.306609 0.538345
vt 0.125000 0.538345
vt 0.125000 0.500000
vt 0.306608 0.500000
vt 0.625000 0.250000
vt 0.625000 0.431609
vt 0.613202 0.431608
vt 0.613202 0.250000
vt 0.625000 0.818392
vt 0.625000 1.000000
vt 0.613202 1.000000
vt 0.613202 0.818391
vt 0.125000 0.711655
vt 0.306608 0.711655
vt 0.306609 0.750000
vt 0.125000 0.750000
vt 0.306608 0.653885
vt 0.125000 0.653885
vt 0.417020 0.656551
vt 0.580825 0.653262
vt 0.377683 0.598794
vt 0.306608 0.596115
vt 0.621780 0.652440
vt 0.306608 0.538345
vt 0.386798 0.818392
vt 0.621780 0.597560
vt 0.693391 0.596115
vt 0.378220 0.652440
vt 0.125000 0.596115
vt 0.375000 0.038345
vt 0.386798 0.000000
vt 0.613202 0.000000
vt 0.625000 0.038345
vt 0.625000 0.096115
vt 0.375000 0.096115
vt 0.875000 0.538345
vt 0.875000 0.596115
vt 0.693391 0.538345
vt 0.451561 0.645090
vt 0.438959 0.638950
vt 0.418362 0.598588
vt 0.581093 0.597766
vt 0.581100 0.597768
vt 0.577576 0.602929
vt 0.421723 0.603925
vt 0.418355 0.598590
vt 0.376073 0.657374
vt 0.386798 1.000000
vt 0.386798 0.431608
vt 0.577343 0.648187
vt 0.580831 0.653260
vt 0.417014 0.656550
vt 0.420644 0.651126
vt 0.421761 0.603925
vt 0.400587 0.611689
vt 0.400588 0.611675
vt 0.580832 0.653260
vt 0.598416 0.640580
vt 0.598501 0.610008
vt 0.581100 0.597768
vt 0.399781 0.643905
vt 0.400587 0.611689
vt 0.399782 0.643891
vt 0.418355 0.598590
vt 0.400588 0.611675
vt 0.417014 0.656550
vt 0.420644 0.651126
vt 0.420682 0.651125
vt 0.577304 0.648187
vt 0.434157 0.605330
vt 0.565106 0.604453
vt 0.548527 0.606488
vt 0.450690 0.607208
vt 0.563377 0.637804
vt 0.563543 0.613664
vt 0.563542 0.613686
vt 0.563377 0.637782
vt 0.583422 0.611607
vt 0.583302 0.639361
vt 0.577304 0.648187
vt 0.598416 0.640566
vt 0.598416 0.640580
vt 0.548237 0.645360
vt 0.548192 0.645361
vt 0.449907 0.647111
vt 0.449862 0.647112
vt 0.435464 0.614859
vt 0.434933 0.639839
vt 0.434933 0.639817
vt 0.435463 0.614882
vt 0.548572 0.606488
vt 0.450645 0.607208
vt 0.450690 0.607208
vt 0.433205 0.649407
vt 0.414944 0.642129
vt 0.434933 0.639817
vt 0.400781 0.604059
vt 0.399591 0.651515
vt 0.598398 0.647792
vt 0.598501 0.610008
vt 0.598521 0.602789
vt 0.577537 0.602930
vt 0.577576 0.602929
vt 0.598501 0.610021
vt 0.433205 0.649407
vt 0.564830 0.646978
vt 0.577537 0.602930
vt 0.421761 0.603925
vt 0.435464 0.614882
vt 0.415630 0.613071
vt 0.563377 0.637804
vt 0.546594 0.643438
vt 0.559374 0.637060
vt 0.449862 0.647111
vt 0.434933 0.639839
vt 0.435464 0.614859
vt 0.439447 0.615648
vt 0.452263 0.609188
vt 0.546898 0.608452
vt 0.563543 0.613664
vt 0.559536 0.614509
vt 0.469368 0.621142
vt 0.439325 0.621473
vt 0.469469 0.615363
vt 0.559415 0.631422
vt 0.559496 0.620147
vt 0.439081 0.633124
vt 0.583422 0.611607
vt 0.565106 0.604453
vt 0.378220 0.707320
vt 0.621780 0.542680
vt 0.375000 0.503066
vt 0.375000 0.535279
vt 0.621780 0.542680
vt 0.611868 0.510466
vt 0.613202 0.500000
vt 0.625000 0.538345
vt 0.375000 0.714721
vt 0.375000 0.746935
vt 0.611868 0.739534
vt 0.621780 0.707320
vt 0.625000 0.711655
vt 0.613202 0.750000
vt 0.378220 0.542680
vt 0.611868 0.510466
vt 0.388132 0.510466
vt 0.388132 0.739534
vt 0.529270 0.637532
vt 0.469062 0.638477
vt 0.529514 0.614794
vt 0.529331 0.631848
vt 0.529453 0.620479
vt 0.469164 0.632699
vt 0.471929 0.617069
vt 0.527006 0.616522
vt 0.471588 0.636709
vt 0.471628 0.634393
vt 0.526793 0.635867
vt 0.526818 0.633587
vt 0.471888 0.619385
vt 0.526981 0.618802
s 0
usemtl Noir_Light
f 17/1/1 4/2/1 11/3/1 28/4/1
f 20/5/2 18/6/2 7/7/2 8/8/2 5/9/2 6/10/2
f 13/11/3 6/12/3 5/13/3 14/14/3
f 7/15/4 16/16/4 15/17/4 8/18/4
f 11/19/5 4/20/5 3/21/5 12/22/5
f 1/23/6 10/24/6 9/25/6 2/26/6
f 23/27/7 10/24/7 1/23/7 19/28/7
f 13/11/3 14/14/3 95/14/3 98/11/3
f 30/29/8 32/30/8 120/30/8 118/29/8
f 10/24/7 23/27/7 114/27/7 103/24/7
f 21/31/9 24/32/9 110/32/9 113/31/9
f 32/30/8 25/33/8 115/33/8 120/30/8
f 24/32/7 13/34/7 98/34/7 110/32/7
f 12/22/9 9/35/9 105/35/9 106/22/9
f 25/33/10 26/36/10 27/37/10 28/4/10
f 27/37/9 26/36/9 111/36/9 116/37/9
f 21/31/11 22/38/11 23/27/11 24/32/11
f 13/34/7 24/32/7 20/39/7 6/12/7
f 24/32/7 23/27/7 19/28/7 20/39/7
f 1/40/2 2/41/2 3/42/2 4/43/2 17/44/2 19/45/2
f 19/45/2 17/44/2 18/6/2 20/5/2
f 7/46/1 18/47/1 27/37/1 16/48/1
f 18/47/1 17/1/1 28/4/1 27/37/1
f 63/49/12 64/50/12 73/50/12 72/49/12
f 29/51/13 31/52/13 60/53/13 59/54/13 41/55/13 43/56/13
f 31/52/9 29/51/9 117/51/9 119/52/9
f 11/19/5 12/22/5 106/22/5 109/19/5
f 25/33/8 28/4/8 112/4/8 115/33/8
f 26/36/9 31/52/9 119/52/9 111/36/9
f 15/17/4 16/16/4 99/16/4 102/17/4
f 22/57/8 30/29/8 118/29/8 93/57/8
f 9/35/9 12/22/9 3/21/9 2/58/9
f 5/9/8 8/18/8 15/17/8 14/59/8
f 51/60/13 53/61/13 32/30/13 30/29/13 50/62/13 49/63/13
f 41/55/14 91/64/14 90/65/14 42/66/14
f 26/36/13 25/33/13 32/30/13 53/67/13 52/68/13 58/69/13 60/70/13 31/52/13
f 48/71/7 42/66/7 90/72/7 87/73/7
f 21/31/13 29/51/13 43/74/13 42/75/13 48/71/13 50/76/13 30/29/13 22/57/13
f 51/60/9 49/77/9 86/78/9 83/79/9
f 92/80/13 77/81/13 34/82/13 39/83/13
f 54/84/7 57/85/7 33/86/7 36/87/7
f 36/87/13 33/86/13 80/88/13 81/89/13
f 51/60/15 83/90/15 82/91/15 52/92/15
f 55/93/8 35/94/8 38/95/8 46/96/8
f 44/97/1 47/98/1 37/99/1 40/100/1
f 56/101/9 45/102/9 39/103/9 34/82/9
f 38/95/13 85/104/13 88/105/13 37/106/13
f 41/55/13 42/107/13 43/74/13
f 48/71/13 49/108/13 50/62/13
f 51/60/13 52/109/13 53/67/13
f 58/110/13 59/111/13 60/53/13
f 48/71/16 87/73/16 86/78/16 49/77/16
f 78/112/17 59/113/17 58/110/17 79/114/17
f 85/115/13 38/95/13 35/94/13 84/116/13
f 41/55/8 59/113/8 78/117/8 91/118/8
f 84/116/13 35/94/13 36/87/13 81/89/13
f 54/84/18 36/87/18 35/94/18 55/93/18
f 33/86/19 57/85/19 56/101/19 34/82/19
f 46/96/20 38/95/20 37/99/20 47/98/20
f 39/103/21 45/102/21 44/97/21 40/100/21
f 40/119/13 37/106/13 88/105/13 89/120/13
f 92/80/13 39/83/13 40/119/13 89/120/13
f 58/110/1 52/92/1 82/91/1 79/114/1
f 141/132/13 131/133/13 74/127/13 129/134/13
f 68/131/22 61/123/22 70/123/22 130/135/22 126/136/22 71/131/22
f 66/128/23 67/129/23 76/129/23 75/128/23
f 64/50/24 65/127/24 74/127/24 131/133/24 127/137/24 73/50/24
f 62/122/25 63/49/25 72/49/25 69/122/25
f 61/123/26 62/122/26 69/122/26 70/123/26
f 67/129/27 68/131/27 71/131/27 76/129/27
f 65/127/28 66/128/28 75/128/28 74/127/28
f 86/78/29 87/73/29 88/105/29 85/104/29
f 78/112/30 79/114/30 80/138/30 77/139/30
f 82/91/31 83/90/31 84/116/31 81/89/31
f 90/65/32 91/64/32 92/80/32 89/120/32
f 79/114/33 82/91/33 81/89/33 80/88/33
f 91/118/34 78/117/34 77/81/34 92/80/34
f 83/79/35 86/78/35 85/115/35 84/116/35
f 87/73/36 90/72/36 89/120/36 88/105/36
f 34/82/13 77/139/13 80/138/13 33/86/13
f 93/38/11 94/140/11 103/24/11 114/27/11
f 111/36/10 100/141/10 99/48/10 116/37/10
f 96/142/37 97/143/37 98/11/37 95/14/37
f 100/144/38 101/145/38 102/146/38 99/147/38
f 94/148/39 104/149/39 105/25/39 103/24/39
f 107/150/40 108/151/40 109/152/40 106/153/40
f 108/151/10 115/33/10 112/4/10 109/3/10
f 97/154/11 113/31/11 110/32/11 98/34/11
f 97/154/13 100/144/13 111/36/13 119/52/13 117/51/13 113/31/13
f 101/155/41 96/156/41 95/59/41 102/17/41
f 104/157/42 107/150/42 106/22/42 105/35/42
f 94/148/13 108/151/13 107/150/13 104/157/13
f 100/144/13 97/154/13 96/142/13 101/155/13
f 118/29/13 120/30/13 115/33/13 108/151/13 94/148/13 93/57/13
f 23/27/8 22/38/8 93/38/8 114/27/8
f 14/59/8 15/17/8 102/17/8 95/59/8
f 28/4/1 11/3/1 109/3/1 112/4/1
f 9/25/6 10/24/6 103/24/6 105/25/6
f 16/48/1 27/37/1 116/37/1 99/48/1
f 29/51/9 21/31/9 113/31/9 117/51/9
f 128/158/8 132/159/8 137/159/8 136/158/8
f 73/50/13 132/159/13 128/158/13 70/123/13 69/122/13 72/49/13
f 71/131/13 133/160/13 129/134/13 74/127/13 75/128/13 76/129/13
f 139/161/13 140/162/13 126/136/13 130/135/13
f 121/132/1 134/134/1 143/134/1 125/132/1
f 133/160/43 140/162/43 122/162/43 135/160/43
f 131/133/13 141/132/13 138/163/13 127/137/13
f 132/159/13 73/50/13 127/137/13 138/163/13
f 141/132/44 129/134/44 134/134/44 121/132/44
f 70/123/13 128/158/13 139/161/13 130/135/13
f 140/162/8 141/132/8 121/132/8 122/162/8
f 126/136/13 140/162/13 133/160/13 71/131/13
f 132/159/44 138/163/44 124/163/44 137/159/44
f 139/161/43 128/158/43 136/158/43 123/161/43
f 129/134/9 133/160/9 135/160/9 134/134/9
f 138/163/13 141/132/13 140/162/13 139/161/13
f 124/163/9 123/161/9 146/161/9 145/163/9
f 138/163/9 139/161/9 123/161/9 124/163/9
f 134/134/9 135/160/9 144/160/9 143/134/9
f 135/160/7 122/162/7 142/162/7 144/160/7
f 137/159/1 124/163/1 145/163/1 147/159/1
f 122/162/8 121/132/8 125/132/8 142/162/8
f 123/161/7 136/158/7 148/158/7 146/161/7
f 136/158/8 137/159/8 147/159/8 148/158/8
usemtl Noir_Profond
f 54/121/13 55/93/13 62/122/13 61/123/13
f 55/93/13 46/124/13 63/49/13 62/122/13
f 46/124/13 47/125/13 64/50/13 63/49/13
f 47/125/13 44/126/13 65/127/13 64/50/13
f 44/126/13 45/102/13 66/128/13 65/127/13
f 45/102/13 56/101/13 67/129/13 66/128/13
f 56/101/13 57/130/13 68/131/13 67/129/13
f 57/130/13 54/121/13 61/123/13 68/131/13
f 155/164/9 156/165/9 163/165/9 164/164/9
f 150/166/1 151/167/1 160/167/1 157/166/1
f 148/158/13 147/159/13 150/166/13 149/168/13
f 147/159/13 145/163/13 151/167/13 150/166/13
f 145/163/13 146/161/13 152/169/13 151/167/13
f 146/161/13 148/158/13 149/168/13 152/169/13
f 142/162/13 125/132/13 154/170/13 153/171/13
f 125/132/13 143/134/13 155/164/13 154/170/13
f 143/134/13 144/160/13 156/165/13 155/164/13
f 144/160/13 142/162/13 153/171/13 156/165/13
f 149/168/8 150/166/8 157/166/8 158/168/8
f 156/165/7 153/171/7 162/171/7 163/165/7
f 151/167/9 152/169/9 159/169/9 160/167/9
f 152/169/7 149/168/7 158/168/7 159/169/7
f 154/170/1 155/164/1 164/164/1 161/170/1
f 153/171/8 154/170/8 161/170/8 162/171/8
usemtl Bleu_Neon
f 158/168/13 157/166/13 160/167/13 159/169/13
f 162/171/13 161/170/13 164/164/13 163/165/13
