# Blender 4.2.3 LTS
# www.blender.org
mtllib SM_Wall_Vent_Grate.mtl
o SM_Wall_Vent_Grate
v 0.050000 -0.900805 -0.716034
v 0.050000 -0.900805 0.716034
v 0.050000 0.900805 0.716034
v 0.050000 0.900805 -0.716034
v 0.050000 -0.900805 0.815785
v 0.050000 -0.815785 0.900805
v 0.050000 0.815785 0.900805
v 0.050000 0.900805 0.815785
v 0.050000 -0.815785 -0.900805
v 0.050000 -0.900805 -0.815785
v 0.050000 0.900805 -0.815785
v 0.050000 0.815785 -0.900805
v 0.086066 -0.138142 -0.675329
v 0.133457 -0.301640 -0.675329
v 0.075691 0.769028 0.675329
v 0.075691 -0.769028 0.675329
v 0.075691 -0.769028 -0.675329
v 0.075691 0.769028 -0.675329
v 0.134829 -0.837110 -0.789401
v 0.134829 -0.789401 -0.837110
v 0.134829 0.789401 -0.837110
v 0.134829 0.837110 -0.789401
v 0.134829 0.837110 -0.779729
v 0.134829 -0.837110 -0.779729
v 0.134829 -0.837110 0.779729
v 0.134829 0.837110 0.779729
v 0.134829 0.837110 0.789401
v 0.134829 0.789401 0.837110
v 0.134829 -0.789401 0.837110
v 0.134829 -0.837110 0.789401
v 0.127661 -0.789401 -0.837110
v 0.127661 -0.837110 -0.789401
v 0.127661 -0.837110 -0.779729
v 0.127661 0.789401 -0.837110
v 0.127661 0.837110 -0.789401
v 0.127661 0.837110 -0.779729
v 0.127661 0.837110 0.779729
v 0.127661 -0.837110 0.779729
v 0.127661 -0.837110 0.789401
v 0.127661 0.837110 0.789401
v 0.127661 0.789401 0.837110
v 0.127661 -0.789401 0.837110
v 0.127661 -0.831824 -0.787212
v 0.127661 -0.787212 -0.831824
v 0.127661 0.787212 -0.831824
v 0.127661 0.831824 -0.787212
v 0.127661 0.831824 -0.785015
v 0.127661 -0.831824 -0.785015
v 0.127661 -0.831824 0.785015
v 0.127661 0.831824 0.785015
v 0.127661 0.831824 0.787212
v 0.127661 0.787212 0.831824
v 0.127661 -0.787212 0.831824
v 0.127661 -0.831824 0.787212
v 0.126291 -0.787212 -0.831824
v 0.126291 -0.831824 -0.787212
v 0.126291 -0.831824 -0.785015
v 0.126291 0.787212 -0.831824
v 0.126291 0.831824 -0.787212
v 0.126291 0.831824 -0.785015
v 0.126291 0.831824 0.785015
v 0.126291 -0.831824 0.785015
v 0.126291 -0.831824 0.787212
v 0.126291 0.831824 0.787212
v 0.126291 0.787212 0.831824
v 0.126291 -0.787212 0.831824
v 0.134829 -0.769028 -0.675329
v 0.134829 0.769028 -0.675329
v 0.134829 0.769028 0.675329
v 0.134829 -0.769028 0.675329
v 0.134829 -0.877599 0.716034
v 0.111622 -0.900805 0.716034
v 0.111622 -0.900805 -0.716034
v 0.134829 -0.877599 -0.716034
v 0.134829 0.877599 -0.716034
v 0.111622 0.900805 -0.716034
v 0.111622 0.900805 0.716034
v 0.134829 0.877599 0.716034
v 0.134829 -0.806172 0.877599
v 0.111622 -0.815785 0.900805
v 0.111622 -0.900805 0.815785
v 0.134829 -0.877599 0.806172
v 0.134829 0.877599 0.806172
v 0.111622 0.900805 0.815785
v 0.111622 0.815785 0.900805
v 0.134829 0.806172 0.877599
v 0.134829 -0.877599 -0.806172
v 0.111622 -0.900805 -0.815785
v 0.111622 -0.815785 -0.900805
v 0.134829 -0.806172 -0.877599
v 0.134829 0.806172 -0.877599
v 0.111622 0.815785 -0.900805
v 0.111622 0.900805 -0.815785
v 0.134829 0.877599 -0.806172
v 0.133457 -0.515951 0.675329
v 0.086066 -0.352453 0.675329
v 0.086066 -0.352453 -0.675329
v 0.133457 -0.515951 -0.675329
v 0.133457 -0.730262 0.675329
v 0.086066 -0.566764 0.675329
v 0.086066 -0.566764 -0.675329
v 0.133457 -0.730262 -0.675329
v 0.133457 -0.087328 0.675329
v 0.086066 0.076170 0.675329
v 0.086066 0.076170 -0.675329
v 0.133457 -0.087328 -0.675329
v 0.075691 0.076170 -0.675329
v 0.075691 -0.076170 -0.675329
v 0.075691 -0.076170 0.675329
v 0.075691 0.076170 0.675329
v 0.075691 0.566764 0.675329
v 0.075691 0.719103 0.675329
v 0.075691 0.352453 0.675329
v 0.075691 0.504792 0.675329
v 0.075691 0.138142 0.675329
v 0.075691 0.290481 0.675329
v 0.075691 -0.290481 0.675329
v 0.075691 -0.138142 0.675329
v 0.075691 -0.504792 0.675329
v 0.075691 -0.352453 0.675329
v 0.075691 -0.719103 0.675329
v 0.075691 -0.566764 0.675329
v 0.075691 -0.138142 -0.675329
v 0.075691 -0.290481 -0.675329
v 0.075691 -0.352453 -0.675329
v 0.075691 -0.504792 -0.675329
v 0.075691 -0.566764 -0.675329
v 0.075691 -0.719103 -0.675329
v 0.075691 0.719103 -0.675329
v 0.075691 0.566764 -0.675329
v 0.075691 0.504792 -0.675329
v 0.075691 0.352453 -0.675329
v 0.075691 0.290481 -0.675329
v 0.075691 0.138142 -0.675329
v 0.086066 -0.138142 0.675329
v 0.133457 -0.301640 0.675329
v 0.133457 0.126983 -0.675329
v 0.086066 0.290481 -0.675329
v 0.086066 0.290481 0.675329
v 0.133457 0.126983 0.675329
v 0.133457 0.341294 -0.675329
v 0.086066 0.504792 -0.675329
v 0.086066 0.504792 0.675329
v 0.133457 0.341294 0.675329
v 0.133457 0.555605 -0.675329
v 0.086066 0.719103 -0.675329
v 0.086066 0.719103 0.675329
v 0.133457 0.555605 0.675329
vn 1.0000 -0.0000 -0.0000
vn -0.0000 -0.7071 -0.7071
vn -0.0000 1.0000 -0.0000
vn -1.0000 -0.0000 -0.0000
vn -0.0000 -0.0000 -1.0000
vn -0.0000 -0.0000 1.0000
vn -0.0000 0.7071 -0.7071
vn -0.0000 -1.0000 -0.0000
vn -0.0000 0.7071 0.7071
vn -0.0000 -0.7071 0.7071
vn 0.7071 -0.7071 -0.0000
vn 0.7071 0.7071 -0.0000
vn 0.7071 -0.5000 -0.5000
vn 0.7071 0.5000 -0.5000
vn 0.7071 -0.5000 0.5000
vn 0.7071 0.5000 0.5000
vn 0.7071 -0.0000 0.7071
vn 0.7071 -0.0000 -0.7071
vn 0.9605 0.2784 -0.0000
vn -0.1897 -0.9818 -0.0000
vt 0.621780 0.542680
vt 0.621780 0.583333
vt 0.616161 0.554606
vt 0.616161 0.550244
vt 0.378220 0.583333
vt 0.621780 0.583333
vt 0.606714 0.591002
vt 0.393286 0.591002
vt 0.616161 0.699756
vt 0.609541 0.721273
vt 0.378220 0.707320
vt 0.378220 0.666667
vt 0.383839 0.695394
vt 0.383839 0.699756
vt 0.621780 0.666667
vt 0.621780 0.707320
vt 0.616161 0.695394
vt 0.388132 0.510466
vt 0.611868 0.510466
vt 0.609541 0.528727
vt 0.390459 0.528727
vt 0.383839 0.554606
vt 0.383839 0.550244
vt 0.693391 0.538345
vt 0.875000 0.538345
vt 0.875000 0.583333
vt 0.693392 0.583333
vt 0.375000 0.166667
vt 0.625000 0.166667
vt 0.625000 0.211655
vt 0.613202 0.250000
vt 0.386798 0.250000
vt 0.375000 0.211655
vt 0.378220 0.666667
vt 0.621780 0.666667
vt 0.606714 0.658998
vt 0.393286 0.658998
vt 0.410483 0.658998
vt 0.429446 0.658998
vt 0.437161 0.658998
vt 0.456125 0.658998
vt 0.463840 0.658998
vt 0.482803 0.658998
vt 0.490518 0.658998
vt 0.509482 0.658998
vt 0.517197 0.658998
vt 0.536160 0.658998
vt 0.543875 0.658998
vt 0.562839 0.658998
vt 0.570554 0.658998
vt 0.589517 0.658998
vt 0.611868 0.739534
vt 0.388132 0.739534
vt 0.390459 0.721273
vt 0.375000 0.083333
vt 0.625000 0.083333
vt 0.613202 0.250000
vt 0.613202 0.431608
vt 0.386798 0.431608
vt 0.386798 0.818392
vt 0.613202 0.818391
vt 0.613202 1.000000
vt 0.386798 1.000000
vt 0.378220 0.542680
vt 0.388132 0.510466
vt 0.375000 0.038345
vt 0.386798 0.000000
vt 0.613202 0.000000
vt 0.625000 0.038345
vt 0.306609 0.538345
vt 0.125000 0.538345
vt 0.125000 0.500000
vt 0.306608 0.500000
vt 0.611868 0.510466
vt 0.621780 0.542680
vt 0.625000 0.250000
vt 0.625000 0.431609
vt 0.693391 0.666667
vt 0.875000 0.666667
vt 0.875000 0.711655
vt 0.693392 0.711655
vt 0.621780 0.584289
vt 0.621780 0.665711
vt 0.621780 0.583333
vt 0.125000 0.666667
vt 0.306608 0.666667
vt 0.306608 0.711655
vt 0.125000 0.711655
vt 0.388132 0.739534
vt 0.378220 0.707320
vt 0.625000 0.818392
vt 0.625000 1.000000
vt 0.306609 0.750000
vt 0.125000 0.750000
vt 0.615428 0.552222
vt 0.384572 0.552222
vt 0.615428 0.698768
vt 0.609237 0.718889
vt 0.390763 0.531111
vt 0.384572 0.551232
vt 0.609237 0.531111
vt 0.615428 0.551232
vt 0.615428 0.697778
vt 0.384572 0.697778
vt 0.390763 0.718889
vt 0.384572 0.698768
vt 0.378220 0.583333
vt 0.378220 0.542680
vt 0.693391 0.583333
vt 0.693392 0.666667
vt 0.306608 0.538345
vt 0.306608 0.583333
vt 0.125000 0.583333
vt 0.306608 0.583333
vt 0.378220 0.584289
vt 0.378220 0.665711
vt 0.375000 0.503066
vt 0.375000 0.535279
vt 0.613202 0.500000
vt 0.625000 0.538345
vt 0.375000 0.714721
vt 0.375000 0.746935
vt 0.625000 0.711655
vt 0.613202 0.750000
vt 0.589517 0.591002
vt 0.509482 0.591002
vt 0.490518 0.591002
vt 0.410483 0.591002
vt 0.410483 0.658998
vt 0.429446 0.591002
vt 0.437161 0.591002
vt 0.589517 0.591002
vt 0.570553 0.591002
vt 0.562839 0.591002
vt 0.543875 0.591002
vt 0.536160 0.591002
vt 0.517197 0.591002
vt 0.490518 0.591002
vt 0.482803 0.591002
vt 0.463839 0.591002
vt 0.456125 0.591002
vt 0.437161 0.591002
vt 0.410482 0.591002
vt 0.463840 0.591002
vt 0.463840 0.658998
vt 0.456125 0.658998
vt 0.536160 0.591002
vt 0.536160 0.658998
vt 0.562839 0.591002
vt 0.517196 0.591002
s 0
usemtl Noir_Light
f 94/1/1 75/2/1 23/3/1 22/4/1
f 74/5/1 75/6/1 68/7/1 67/8/1
f 27/9/2 28/10/2 41/10/2 40/9/2
f 82/11/1 71/12/1 25/13/1 30/14/1
f 78/15/1 83/16/1 27/9/1 26/17/1
f 90/18/1 91/19/1 21/20/1 20/21/1
f 24/22/3 19/23/3 32/23/3 33/22/3
f 93/24/3 11/25/3 4/26/3 76/27/3
f 1/28/4 4/29/4 11/30/4 12/31/4 9/32/4 10/33/4
f 71/34/1 78/35/1 26/17/1 25/13/1
f 69/36/5 70/37/5 16/37/5 121/38/5 122/39/5 119/40/5 120/41/5 117/42/5 118/43/5 109/44/5 110/45/5 115/46/5 116/47/5 113/48/5 114/49/5 111/50/5 112/51/5 15/36/5
f 86/52/1 79/53/1 29/54/1 28/10/1
f 2/55/4 3/56/4 4/29/4 1/28/4
f 9/32/5 12/57/5 92/58/5 89/59/5
f 80/60/6 85/61/6 7/62/6 6/63/6
f 87/64/1 90/65/1 20/21/1 19/23/1
f 5/66/4 6/67/4 7/68/4 8/69/4 3/56/4 2/55/4
f 88/70/2 10/71/2 9/72/2 89/73/2
f 91/74/1 94/75/1 22/4/1 21/20/1
f 11/76/7 93/77/7 92/58/7 12/57/7
f 77/78/3 3/79/3 8/80/3 84/81/3
f 75/82/1 78/83/1 69/36/1 68/7/1
f 75/84/1 74/5/1 24/22/1 23/3/1
f 2/85/8 72/86/8 81/87/8 5/88/8
f 79/89/1 82/90/1 30/14/1 29/54/1
f 84/91/9 8/92/9 7/62/9 85/61/9
f 83/16/1 86/52/1 28/10/1 27/9/1
f 5/88/10 81/87/10 80/93/10 6/94/10
f 78/35/1 71/34/1 70/37/1 69/36/1
f 23/3/5 24/22/5 33/22/5 36/3/5
f 25/13/6 26/17/6 37/17/6 38/13/6
f 20/21/6 21/20/6 34/20/6 31/21/6
f 28/10/5 29/54/5 42/54/5 41/10/5
f 30/14/3 25/13/3 38/13/3 39/14/3
f 21/20/10 22/4/10 35/4/10 34/20/10
f 29/54/7 30/14/7 39/14/7 42/54/7
f 19/23/9 20/21/9 31/21/9 32/23/9
f 26/17/8 27/9/8 40/9/8 37/17/8
f 22/4/8 23/3/8 36/3/8 35/4/8
f 74/107/1 87/108/1 19/23/1 24/22/1
f 76/109/3 4/26/3 3/79/3 77/110/3
f 10/71/8 88/111/8 73/112/8 1/113/8
f 1/113/8 73/114/8 72/86/8 2/85/8
f 72/86/11 73/114/11 74/115/11 71/116/11
f 76/109/12 77/110/12 78/83/12 75/82/12
f 90/117/13 87/118/13 88/70/13 89/73/13
f 94/75/14 91/74/14 92/119/14 93/120/14
f 82/121/15 79/122/15 80/93/15 81/87/15
f 86/52/16 83/16/16 84/123/16 85/124/16
f 79/53/17 86/52/17 85/61/17 80/60/17
f 71/12/11 82/11/11 81/87/11 72/86/11
f 83/16/12 78/15/12 77/78/12 84/81/12
f 91/19/18 90/18/18 89/59/18 92/58/18
f 87/108/11 74/107/11 73/112/11 88/111/11
f 75/2/12 94/1/12 93/24/12 76/27/12
f 71/116/1 74/115/1 67/8/1 70/37/1
f 70/37/3 67/8/3 17/8/3 16/37/3
f 68/7/8 69/36/8 15/36/8 18/7/8
f 105/126/19 104/45/19 103/44/19 106/127/19
f 67/8/6 68/7/6 18/7/6 129/132/6 130/133/6 131/134/6 132/135/6 133/136/6 134/137/6 107/126/6 108/138/6 123/139/6 124/140/6 125/141/6 126/142/6 127/130/6 128/143/6 17/8/6
f 125/141/3 120/146/3 96/146/3 97/141/3
f 101/130/19 100/39/19 99/129/19 102/128/19
f 97/141/19 96/146/19 95/40/19 98/131/19
f 13/139/19 135/43/19 136/145/19 14/144/19
f 138/147/19 139/148/19 140/46/19 137/150/19
f 142/149/19 143/49/19 144/48/19 141/135/19
f 146/125/19 147/51/19 148/50/19 145/133/19
f 129/125/3 112/51/3 147/51/3 146/125/3
f 123/139/3 118/43/3 135/43/3 13/139/3
f 107/126/3 110/45/3 104/45/3 105/126/3
f 133/147/3 116/148/3 139/148/3 138/147/3
f 127/130/3 122/39/3 100/39/3 101/130/3
f 131/149/3 114/49/3 143/49/3 142/149/3
usemtl Noir_Profond
f 47/95/5 48/96/5 57/96/5 60/95/5
f 51/97/2 52/98/2 65/98/2 64/97/2
f 32/23/1 31/21/1 44/99/1 43/100/1
f 31/21/1 34/20/1 45/101/1 44/99/1
f 34/20/1 35/4/1 46/102/1 45/101/1
f 35/4/1 36/3/1 47/95/1 46/102/1
f 36/3/1 33/22/1 48/96/1 47/95/1
f 33/22/1 32/23/1 43/100/1 48/96/1
f 38/13/1 37/17/1 50/103/1 49/104/1
f 37/17/1 40/9/1 51/97/1 50/103/1
f 40/9/1 41/10/1 52/98/1 51/97/1
f 41/10/1 42/54/1 53/105/1 52/98/1
f 42/54/1 39/14/1 54/106/1 53/105/1
f 39/14/1 38/13/1 49/104/1 54/106/1
f 49/104/6 50/103/6 61/103/6 62/104/6
f 44/99/6 45/101/6 58/101/6 55/99/6
f 52/98/5 53/105/5 66/105/5 65/98/5
f 54/106/3 49/104/3 62/104/3 63/106/3
f 45/101/10 46/102/10 59/102/10 58/101/10
f 53/105/7 54/106/7 63/106/7 66/105/7
f 43/100/9 44/99/9 55/99/9 56/100/9
f 50/103/8 51/97/8 64/97/8 61/103/8
f 46/102/8 47/95/8 60/95/8 59/102/8
f 48/96/3 43/100/3 56/100/3 57/96/3
f 129/125/1 18/7/1 15/36/1 112/51/1
f 17/8/1 128/128/1 121/129/1 16/37/1
f 127/130/1 126/131/1 119/40/1 122/39/1
f 123/139/1 108/127/1 109/44/1 118/43/1
f 125/141/1 124/144/1 117/145/1 120/146/1
f 133/147/1 132/135/1 113/48/1 116/148/1
f 131/149/1 130/133/1 111/50/1 114/49/1
f 119/40/20 126/131/20 98/131/20 95/40/20
f 113/48/20 132/135/20 141/135/20 144/48/20
f 107/126/1 134/150/1 115/46/1 110/45/1
f 111/50/20 130/133/20 145/133/20 148/50/20
f 117/145/20 124/144/20 14/144/20 136/145/20
f 109/44/20 108/127/20 106/127/20 103/44/20
f 115/46/20 134/150/20 137/150/20 140/46/20
f 121/129/20 128/128/20 102/128/20 99/129/20
usemtl Bleu_Neon
f 56/100/1 55/99/1 58/101/1 59/102/1 60/95/1 57/96/1
f 62/104/1 61/103/1 64/97/1 65/98/1 66/105/1 63/106/1
