# MagicaVoxel @ Ephtracy

# group
o 

# material
mtllib Robot.vox-27.mtl
usemtl palette

# normals
vn -1 0 0
vn 1 0 0
vn 0 0 1
vn 0 0 -1
vn 0 -1 0
vn 0 1 0

# texcoords
vt 0.916016 0.5
vt 0.947266 0.5
vt 0.978516 0.5

# verts
v -0.5 1.1 -1
v -0.5 1.1 -1.3
v -0.5 1.3 -1.1
v -0.5 1.3 -1.2
v -0.5 1.5 -1.1
v -0.5 1.5 -1.2
v -0.5 1.7 -1
v -0.5 1.7 -1.1
v -0.5 1.7 -1.2
v -0.5 1.7 -1.3
v -0.5 1.8 -1.1
v -0.5 1.8 -1.2
v -0.4 1.7 -1
v -0.4 1.7 -1.1
v -0.4 1.7 -1.2
v -0.4 1.7 -1.3
v -0.4 1.8 -1
v -0.4 1.8 -1.1
v -0.4 1.8 -1.2
v -0.4 1.8 -1.3
v -0.4 1.9 -1.1
v -0.4 1.9 -1.2
v -0.3 1.7 -1
v -0.3 1.7 -1.1
v -0.3 1.7 -1.2
v -0.3 1.7 -1.3
v -0.3 1.8 -1
v -0.3 1.8 -1.1
v -0.3 1.8 -1.2
v -0.3 1.8 -1.3
v -0.2 1.1 -1
v -0.2 1.1 -1.3
v -0.2 1.7 -1
v -0.2 1.7 -1.1
v -0.2 1.7 -1.2
v -0.2 1.7 -1.3
v -0.2 1.8 -1.1
v -0.2 1.8 -1.2
v -0.2 1.9 -1.1
v -0.2 1.9 -1.2
v -0.5 1.1 -1
v -0.5 1.7 -1
v -0.4 1.7 -1
v -0.4 1.8 -1
v -0.3 1.7 -1
v -0.3 1.8 -1
v -0.2 1.1 -1
v -0.2 1.7 -1
v -0.5 1.7 -1.1
v -0.5 1.8 -1.1
v -0.4 1.7 -1.1
v -0.4 1.8 -1.1
v -0.4 1.9 -1.1
v -0.3 1.7 -1.1
v -0.3 1.8 -1.1
v -0.2 1.7 -1.1
v -0.2 1.8 -1.1
v -0.2 1.9 -1.1
v -0.5 1.7 -1.2
v -0.5 1.8 -1.2
v -0.4 1.7 -1.2
v -0.4 1.8 -1.2
v -0.4 1.9 -1.2
v -0.3 1.7 -1.2
v -0.3 1.8 -1.2
v -0.2 1.7 -1.2
v -0.2 1.8 -1.2
v -0.2 1.9 -1.2
v -0.5 1.1 -1.3
v -0.5 1.7 -1.3
v -0.4 1.7 -1.3
v -0.4 1.8 -1.3
v -0.3 1.7 -1.3
v -0.3 1.8 -1.3
v -0.2 1.1 -1.3
v -0.2 1.7 -1.3
v -0.5 1.1 -1
v -0.2 1.1 -1
v -0.5 1.1 -1.3
v -0.2 1.1 -1.3
v -0.5 1.7 -1
v -0.4 1.7 -1
v -0.3 1.7 -1
v -0.2 1.7 -1
v -0.5 1.7 -1.1
v -0.4 1.7 -1.1
v -0.3 1.7 -1.1
v -0.2 1.7 -1.1
v -0.5 1.7 -1.2
v -0.4 1.7 -1.2
v -0.3 1.7 -1.2
v -0.2 1.7 -1.2
v -0.5 1.7 -1.3
v -0.4 1.7 -1.3
v -0.3 1.7 -1.3
v -0.2 1.7 -1.3
v -0.4 1.8 -1
v -0.3 1.8 -1
v -0.5 1.8 -1.1
v -0.4 1.8 -1.1
v -0.3 1.8 -1.1
v -0.5 1.8 -1.2
v -0.4 1.8 -1.2
v -0.3 1.8 -1.2
v -0.4 1.8 -1.3
v -0.3 1.8 -1.3
v -0.4 1.9 -1.1
v -0.2 1.9 -1.1
v -0.4 1.9 -1.2
v -0.2 1.9 -1.2

# faces
f 3/3/1 2/3/1 1/3/1
f 4/3/1 2/3/1 3/3/1
f 5/3/1 3/3/1 1/3/1
f 5/2/1 4/2/1 3/2/1
f 6/3/1 2/3/1 4/3/1
f 6/2/1 4/2/1 5/2/1
f 7/3/1 5/3/1 1/3/1
f 7/3/1 6/3/1 5/3/1
f 8/3/1 6/3/1 7/3/1
f 9/3/1 2/3/1 6/3/1
f 9/3/1 6/3/1 8/3/1
f 10/3/1 2/3/1 9/3/1
f 11/3/1 9/3/1 8/3/1
f 12/3/1 9/3/1 11/3/1
f 17/3/1 14/3/1 13/3/1
f 18/3/1 14/3/1 17/3/1
f 19/3/1 16/3/1 15/3/1
f 20/3/1 16/3/1 19/3/1
f 21/1/1 19/1/1 18/1/1
f 22/1/1 19/1/1 21/1/1
f 23/3/2 24/3/2 27/3/2
f 27/3/2 24/3/2 28/3/2
f 25/3/2 26/3/2 29/3/2
f 29/3/2 26/3/2 30/3/2
f 31/3/2 32/3/2 33/3/2
f 33/3/2 32/3/2 34/3/2
f 34/3/2 32/3/2 35/3/2
f 35/3/2 32/3/2 36/3/2
f 34/3/2 35/3/2 37/3/2
f 37/3/2 35/3/2 38/3/2
f 37/1/2 38/1/2 39/1/2
f 39/1/2 38/1/2 40/1/2
f 43/3/3 42/3/3 41/3/3
f 45/3/3 43/3/3 41/3/3
f 45/3/3 44/3/3 43/3/3
f 46/3/3 44/3/3 45/3/3
f 47/3/3 45/3/3 41/3/3
f 48/3/3 45/3/3 47/3/3
f 51/3/3 50/3/3 49/3/3
f 52/3/3 50/3/3 51/3/3
f 55/1/3 53/1/3 52/1/3
f 56/3/3 55/3/3 54/3/3
f 57/1/3 53/1/3 55/1/3
f 57/3/3 55/3/3 56/3/3
f 58/1/3 53/1/3 57/1/3
f 59/3/4 60/3/4 61/3/4
f 61/3/4 60/3/4 62/3/4
f 62/1/4 63/1/4 65/1/4
f 64/3/4 65/3/4 66/3/4
f 65/1/4 63/1/4 67/1/4
f 66/3/4 65/3/4 67/3/4
f 67/1/4 63/1/4 68/1/4
f 69/3/4 70/3/4 71/3/4
f 69/3/4 71/3/4 73/3/4
f 71/3/4 72/3/4 73/3/4
f 73/3/4 72/3/4 74/3/4
f 69/3/4 73/3/4 75/3/4
f 75/3/4 73/3/4 76/3/4
f 79/3/5 78/3/5 77/3/5
f 80/3/5 78/3/5 79/3/5
f 81/3/6 82/3/6 85/3/6
f 85/3/6 82/3/6 86/3/6
f 83/3/6 84/3/6 87/3/6
f 87/3/6 84/3/6 88/3/6
f 89/3/6 90/3/6 93/3/6
f 93/3/6 90/3/6 94/3/6
f 91/3/6 92/3/6 95/3/6
f 95/3/6 92/3/6 96/3/6
f 97/3/6 98/3/6 100/3/6
f 100/3/6 98/3/6 101/3/6
f 99/3/6 100/3/6 102/3/6
f 102/3/6 100/3/6 103/3/6
f 103/3/6 104/3/6 105/3/6
f 105/3/6 104/3/6 106/3/6
f 107/1/6 108/1/6 109/1/6
f 109/1/6 108/1/6 110/1/6
