# MagicaVoxel @ Ephtracy

# group
o 

# material
mtllib Robot.vox-36.mtl
usemtl palette

# normals
vn -1 0 0
vn 1 0 0
vn 0 0 1
vn 0 0 -1
vn 0 -1 0
vn 0 1 0

# texcoords
vt 0.939453 0.5
vt 0.943359 0.5
vt 0.958984 0.5
vt 0.970703 0.5
vt 0.978516 0.5
vt 0.982422 0.5

# verts
v -0.5 8.9 0.7
v -0.5 8.9 -0.1
v -0.5 9 0.6
v -0.5 9 -0.1
v -0.5 9.1 0.2
v -0.5 9.1 0
v -0.5 9.1 -0.1
v -0.5 9.2 0.6
v -0.5 9.2 0.2
v -0.5 9.2 0
v -0.5 9.3 0.7
v -0.5 9.3 0.2
v -0.4 8.8 0.7
v -0.4 8.8 -0.1
v -0.4 8.9 0.7
v -0.4 8.9 -0.1
v -0.4 9 0.8
v -0.4 9 0.7
v -0.4 9.2 0.8
v -0.4 9.2 0.7
v -0.4 9.2 0.2
v -0.4 9.2 0.1
v -0.4 9.3 0.7
v -0.4 9.3 0.4
v -0.4 9.3 0.2
v -0.4 9.3 0.1
v -0.4 9.4 0.7
v -0.4 9.4 0.4
v -0.3 8.9 0.8
v -0.3 8.9 0.7
v -0.3 9 0.8
v -0.3 9 0.7
v -0.3 9.2 0.8
v -0.3 9.2 0.7
v -0.3 9.3 0.8
v -0.3 9.3 0.7
v -0.3 9.3 0.4
v -0.3 9.3 0.3
v -0.3 9.4 0.4
v -0.3 9.4 0.3
v -0.2 9.3 0.3
v -0.2 9.3 0.2
v -0.2 9.4 0.3
v -0.2 9.4 0.2
v 0.2 9 0.8
v 0.2 9 0.7
v 0.2 9.2 0.8
v 0.2 9.2 0.7
v -0.1 8.9 0.8
v -0.1 8.9 0.7
v -0.1 9 0.8
v -0.1 9 0.7
v -0.1 9.2 0.8
v -0.1 9.2 0.7
v -0.1 9.3 0.8
v -0.1 9.3 0.7
v 0 9 0.8
v 0 9 0.7
v 0 9.2 0.8
v 0 9.2 0.7
v 0.2 9.3 0.3
v 0.2 9.3 0.2
v 0.2 9.4 0.3
v 0.2 9.4 0.2
v 0.3 9.3 0.4
v 0.3 9.3 0.3
v 0.3 9.4 0.4
v 0.3 9.4 0.3
v 0.4 8.8 0.7
v 0.4 8.8 -0.1
v 0.4 8.9 0.7
v 0.4 8.9 -0.1
v 0.4 9 0.8
v 0.4 9 0.7
v 0.4 9.1 0.8
v 0.4 9.1 0.7
v 0.4 9.2 0.8
v 0.4 9.2 0.7
v 0.4 9.2 0.2
v 0.4 9.2 0.1
v 0.4 9.3 0.7
v 0.4 9.3 0.4
v 0.4 9.3 0.2
v 0.4 9.3 0.1
v 0.4 9.4 0.7
v 0.4 9.4 0.4
v 0.5 8.9 0.7
v 0.5 8.9 -0.1
v 0.5 9 0.6
v 0.5 9 -0.1
v 0.5 9.1 0.2
v 0.5 9.1 0
v 0.5 9.1 -0.1
v 0.5 9.2 0.6
v 0.5 9.2 0.2
v 0.5 9.2 0
v 0.5 9.3 0.7
v 0.5 9.3 0.2
v -0.4 9 0.8
v -0.4 9.2 0.8
v -0.3 8.9 0.8
v -0.3 9 0.8
v -0.3 9.1 0.8
v -0.3 9.2 0.8
v -0.3 9.3 0.8
v -0.2 9 0.8
v -0.2 9.1 0.8
v -0.2 9.2 0.8
v -0.1 8.9 0.8
v -0.1 9 0.8
v -0.1 9.1 0.8
v -0.1 9.2 0.8
v -0.1 9.3 0.8
v 0 9 0.8
v 0 9.2 0.8
v 0.2 9 0.8
v 0.2 9.2 0.8
v 0.3 9.1 0.8
v 0.3 9.2 0.8
v 0.4 9 0.8
v 0.4 9.1 0.8
v 0.4 9.2 0.8
v -0.5 8.9 0.7
v -0.5 9.3 0.7
v -0.4 8.8 0.7
v -0.4 8.9 0.7
v -0.4 9 0.7
v -0.4 9.2 0.7
v -0.4 9.3 0.7
v -0.4 9.4 0.7
v -0.3 8.9 0.7
v -0.3 9 0.7
v -0.3 9.2 0.7
v -0.3 9.3 0.7
v -0.1 8.9 0.7
v -0.1 9 0.7
v -0.1 9.2 0.7
v -0.1 9.3 0.7
v 0 9 0.7
v 0 9.2 0.7
v 0.2 9 0.7
v 0.2 9.2 0.7
v 0.3 9.2 0.7
v 0.4 8.8 0.7
v 0.4 8.9 0.7
v 0.4 9 0.7
v 0.4 9.1 0.7
v 0.4 9.2 0.7
v 0.4 9.3 0.7
v 0.4 9.4 0.7
v 0.5 8.9 0.7
v 0.5 9.3 0.7
v -0.4 9.3 0.4
v -0.4 9.4 0.4
v -0.3 9.3 0.4
v -0.3 9.4 0.4
v 0.3 9.3 0.4
v 0.3 9.4 0.4
v 0.4 9.3 0.4
v 0.4 9.4 0.4
v -0.3 9.3 0.3
v -0.3 9.4 0.3
v -0.2 9.3 0.3
v -0.2 9.4 0.3
v 0.2 9.3 0.3
v 0.2 9.4 0.3
v 0.3 9.3 0.3
v 0.3 9.4 0.3
v -0.5 9.2 0.2
v -0.5 9.3 0.2
v -0.4 9.2 0.2
v -0.4 9.3 0.2
v -0.2 9.3 0.2
v -0.2 9.4 0.2
v 0.2 9.3 0.2
v 0.2 9.4 0.2
v 0.4 9.2 0.2
v 0.4 9.3 0.2
v 0.5 9.2 0.2
v 0.5 9.3 0.2
v -0.4 9.2 0.1
v -0.4 9.3 0.1
v 0.4 9.2 0.1
v 0.4 9.3 0.1
v -0.5 9.1 0
v -0.5 9.2 0
v 0.5 9.1 0
v 0.5 9.2 0
v -0.5 8.9 -0.1
v -0.5 9 -0.1
v -0.5 9.1 -0.1
v -0.4 8.8 -0.1
v -0.4 8.9 -0.1
v -0.3 8.9 -0.1
v -0.3 9 -0.1
v -0.1 8.9 -0.1
v -0.1 9 -0.1
v 0.1 8.9 -0.1
v 0.1 9 -0.1
v 0.3 8.9 -0.1
v 0.3 9 -0.1
v 0.4 8.8 -0.1
v 0.4 8.9 -0.1
v 0.5 8.9 -0.1
v 0.5 9 -0.1
v 0.5 9.1 -0.1
v -0.4 8.8 0.7
v 0.4 8.8 0.7
v -0.3 8.8 0.6
v -0.2 8.8 0.6
v -0.1 8.8 0.6
v 0.1 8.8 0.6
v 0.2 8.8 0.6
v 0.3 8.8 0.6
v -0.3 8.8 0
v -0.2 8.8 0
v -0.1 8.8 0
v 0.1 8.8 0
v 0.2 8.8 0
v 0.3 8.8 0
v -0.4 8.8 -0.1
v 0.4 8.8 -0.1
v -0.3 8.9 0.8
v -0.1 8.9 0.8
v -0.5 8.9 0.7
v -0.4 8.9 0.7
v -0.3 8.9 0.7
v -0.1 8.9 0.7
v 0.4 8.9 0.7
v 0.5 8.9 0.7
v -0.5 8.9 -0.1
v -0.4 8.9 -0.1
v 0.4 8.9 -0.1
v 0.5 8.9 -0.1
v -0.4 9 0.8
v -0.3 9 0.8
v -0.1 9 0.8
v 0 9 0.8
v 0.2 9 0.8
v 0.4 9 0.8
v -0.4 9 0.7
v -0.3 9 0.7
v -0.1 9 0.7
v 0 9 0.7
v 0.2 9 0.7
v 0.4 9 0.7
v -0.5 9.1 0
v 0.5 9.1 0
v -0.5 9.1 -0.1
v 0.5 9.1 -0.1
v -0.4 9.2 0.8
v -0.3 9.2 0.8
v -0.1 9.2 0.8
v 0 9.2 0.8
v 0.2 9.2 0.8
v 0.3 9.2 0.8
v 0.4 9.2 0.8
v -0.4 9.2 0.7
v -0.3 9.2 0.7
v -0.1 9.2 0.7
v 0 9.2 0.7
v 0.2 9.2 0.7
v 0.3 9.2 0.7
v 0.4 9.2 0.7
v -0.5 9.2 0.2
v -0.4 9.2 0.2
v 0.4 9.2 0.2
v 0.5 9.2 0.2
v -0.4 9.2 0.1
v 0.4 9.2 0.1
v -0.5 9.2 0
v 0.5 9.2 0
v -0.3 9.3 0.8
v -0.1 9.3 0.8
v -0.5 9.3 0.7
v -0.4 9.3 0.7
v -0.3 9.3 0.7
v -0.1 9.3 0.7
v 0.4 9.3 0.7
v 0.5 9.3 0.7
v -0.4 9.3 0.4
v -0.3 9.3 0.4
v 0.3 9.3 0.4
v 0.4 9.3 0.4
v -0.3 9.3 0.3
v -0.2 9.3 0.3
v 0.2 9.3 0.3
v 0.3 9.3 0.3
v -0.5 9.3 0.2
v -0.4 9.3 0.2
v -0.2 9.3 0.2
v 0.2 9.3 0.2
v 0.4 9.3 0.2
v 0.5 9.3 0.2
v -0.4 9.3 0.1
v 0.4 9.3 0.1
v -0.4 9.4 0.7
v 0.4 9.4 0.7
v -0.2 9.4 0.6
v 0.2 9.4 0.6
v -0.2 9.4 0.5
v 0.2 9.4 0.5
v -0.4 9.4 0.4
v -0.3 9.4 0.4
v -0.1 9.4 0.4
v 0.1 9.4 0.4
v 0.3 9.4 0.4
v 0.4 9.4 0.4
v -0.3 9.4 0.3
v -0.2 9.4 0.3
v -0.1 9.4 0.3
v 0.1 9.4 0.3
v 0.2 9.4 0.3
v 0.3 9.4 0.3
v -0.2 9.4 0.2
v 0.2 9.4 0.2

# faces
f 3/4/1 2/4/1 1/4/1
f 4/4/1 2/4/1 3/4/1
f 5/6/1 4/6/1 3/6/1
f 6/6/1 4/6/1 5/6/1
f 7/6/1 4/6/1 6/6/1
f 8/4/1 3/4/1 1/4/1
f 8/6/1 5/6/1 3/6/1
f 9/4/1 6/4/1 5/4/1
f 9/6/1 5/6/1 8/6/1
f 10/4/1 6/4/1 9/4/1
f 11/4/1 8/4/1 1/4/1
f 11/4/1 9/4/1 8/4/1
f 12/4/1 9/4/1 11/4/1
f 15/4/1 14/4/1 13/4/1
f 16/4/1 14/4/1 15/4/1
f 19/5/1 18/5/1 17/5/1
f 20/5/1 18/5/1 19/5/1
f 25/4/1 22/4/1 21/4/1
f 26/4/1 22/4/1 25/4/1
f 27/4/1 24/4/1 23/4/1
f 28/4/1 24/4/1 27/4/1
f 31/5/1 30/5/1 29/5/1
f 32/5/1 30/5/1 31/5/1
f 35/5/1 34/5/1 33/5/1
f 36/5/1 34/5/1 35/5/1
f 39/4/1 38/4/1 37/4/1
f 40/4/1 38/4/1 39/4/1
f 43/4/1 42/4/1 41/4/1
f 44/4/1 42/4/1 43/4/1
f 47/5/1 46/5/1 45/5/1
f 48/5/1 46/5/1 47/5/1
f 49/5/2 50/5/2 51/5/2
f 51/5/2 50/5/2 52/5/2
f 53/5/2 54/5/2 55/5/2
f 55/5/2 54/5/2 56/5/2
f 57/5/2 58/5/2 59/5/2
f 59/5/2 58/5/2 60/5/2
f 61/4/2 62/4/2 63/4/2
f 63/4/2 62/4/2 64/4/2
f 65/4/2 66/4/2 67/4/2
f 67/4/2 66/4/2 68/4/2
f 69/4/2 70/4/2 71/4/2
f 71/4/2 70/4/2 72/4/2
f 73/5/2 74/5/2 75/5/2
f 75/5/2 74/5/2 76/5/2
f 75/3/2 76/3/2 77/3/2
f 77/3/2 76/3/2 78/3/2
f 79/4/2 80/4/2 83/4/2
f 83/4/2 80/4/2 84/4/2
f 81/4/2 82/4/2 85/4/2
f 85/4/2 82/4/2 86/4/2
f 87/4/2 88/4/2 89/4/2
f 89/4/2 88/4/2 90/4/2
f 89/6/2 90/6/2 91/6/2
f 91/6/2 90/6/2 92/6/2
f 92/6/2 90/6/2 93/6/2
f 87/4/2 89/4/2 94/4/2
f 89/6/2 91/6/2 94/6/2
f 91/4/2 92/4/2 95/4/2
f 94/6/2 91/6/2 95/6/2
f 95/4/2 92/4/2 96/4/2
f 87/4/2 94/4/2 97/4/2
f 94/4/2 95/4/2 97/4/2
f 97/4/2 95/4/2 98/4/2
f 102/5/3 100/5/3 99/5/3
f 103/5/3 100/5/3 102/5/3
f 104/5/3 100/5/3 103/5/3
f 106/5/3 102/5/3 101/5/3
f 106/2/3 103/2/3 102/2/3
f 107/5/3 105/5/3 104/5/3
f 107/2/3 103/2/3 106/2/3
f 107/5/3 104/5/3 103/5/3
f 108/5/3 105/5/3 107/5/3
f 109/5/3 106/5/3 101/5/3
f 109/5/3 107/5/3 106/5/3
f 110/5/3 107/5/3 109/5/3
f 111/2/3 108/2/3 107/2/3
f 111/5/3 107/5/3 110/5/3
f 112/5/3 105/5/3 108/5/3
f 112/2/3 108/2/3 111/2/3
f 113/5/3 105/5/3 112/5/3
f 114/5/3 111/5/3 110/5/3
f 114/5/3 112/5/3 111/5/3
f 115/5/3 112/5/3 114/5/3
f 118/5/3 117/5/3 116/5/3
f 119/5/3 117/5/3 118/5/3
f 120/5/3 118/5/3 116/5/3
f 121/3/3 119/3/3 118/3/3
f 121/5/3 118/5/3 120/5/3
f 122/3/3 119/3/3 121/3/3
f 126/4/3 124/4/3 123/4/3
f 127/4/3 124/4/3 126/4/3
f 128/4/3 124/4/3 127/4/3
f 129/4/3 124/4/3 128/4/3
f 131/4/3 126/4/3 125/4/3
f 131/4/3 127/4/3 126/4/3
f 132/4/3 127/4/3 131/4/3
f 133/4/3 130/4/3 129/4/3
f 133/4/3 129/4/3 128/4/3
f 134/4/3 130/4/3 133/4/3
f 135/4/3 131/4/3 125/4/3
f 138/4/3 130/4/3 134/4/3
f 139/4/3 136/4/3 135/4/3
f 140/4/3 138/4/3 137/4/3
f 141/4/3 139/4/3 135/4/3
f 141/4/3 140/4/3 139/4/3
f 142/4/3 138/4/3 140/4/3
f 142/4/3 140/4/3 141/4/3
f 143/4/3 138/4/3 142/4/3
f 144/4/3 141/4/3 135/4/3
f 144/4/3 135/4/3 125/4/3
f 145/4/3 141/4/3 144/4/3
f 146/4/3 141/4/3 145/4/3
f 148/4/3 138/4/3 143/4/3
f 149/4/3 130/4/3 138/4/3
f 149/4/3 138/4/3 148/4/3
f 150/4/3 130/4/3 149/4/3
f 151/4/3 147/4/3 146/4/3
f 151/4/3 148/4/3 147/4/3
f 151/4/3 149/4/3 148/4/3
f 151/4/3 146/4/3 145/4/3
f 152/4/3 149/4/3 151/4/3
f 153/4/4 154/4/4 155/4/4
f 155/4/4 154/4/4 156/4/4
f 157/4/4 158/4/4 159/4/4
f 159/4/4 158/4/4 160/4/4
f 161/4/4 162/4/4 163/4/4
f 163/4/4 162/4/4 164/4/4
f 165/4/4 166/4/4 167/4/4
f 167/4/4 166/4/4 168/4/4
f 169/4/4 170/4/4 171/4/4
f 171/4/4 170/4/4 172/4/4
f 173/4/4 174/4/4 175/4/4
f 175/4/4 174/4/4 176/4/4
f 177/4/4 178/4/4 179/4/4
f 179/4/4 178/4/4 180/4/4
f 181/4/4 182/4/4 183/4/4
f 183/4/4 182/4/4 184/4/4
f 185/4/4 186/4/4 187/4/4
f 187/4/4 186/4/4 188/4/4
f 189/4/4 190/4/4 193/4/4
f 193/4/4 190/4/4 194/4/4
f 192/4/4 193/4/4 194/4/4
f 190/6/4 191/6/4 195/6/4
f 194/4/4 190/4/4 195/4/4
f 192/4/4 194/4/4 196/4/4
f 194/6/4 195/6/4 196/6/4
f 195/6/4 191/6/4 197/6/4
f 196/6/4 195/6/4 197/6/4
f 192/4/4 196/4/4 198/4/4
f 196/4/4 197/4/4 198/4/4
f 197/6/4 191/6/4 199/6/4
f 198/4/4 197/4/4 199/4/4
f 192/4/4 198/4/4 200/4/4
f 198/6/4 199/6/4 200/6/4
f 199/6/4 191/6/4 201/6/4
f 200/6/4 199/6/4 201/6/4
f 192/4/4 200/4/4 202/4/4
f 200/4/4 201/4/4 202/4/4
f 202/4/4 201/4/4 203/4/4
f 203/4/4 201/4/4 204/4/4
f 201/6/4 191/6/4 205/6/4
f 204/4/4 201/4/4 205/4/4
f 205/6/4 191/6/4 206/6/4
f 209/4/5 208/4/5 207/4/5
f 210/4/5 208/4/5 209/4/5
f 211/4/5 208/4/5 210/4/5
f 212/4/5 208/4/5 211/4/5
f 213/4/5 208/4/5 212/4/5
f 214/4/5 208/4/5 213/4/5
f 215/4/5 209/4/5 207/4/5
f 215/1/5 210/1/5 209/1/5
f 216/4/5 211/4/5 210/4/5
f 216/1/5 210/1/5 215/1/5
f 217/1/5 212/1/5 211/1/5
f 217/4/5 211/4/5 216/4/5
f 218/4/5 213/4/5 212/4/5
f 218/1/5 212/1/5 217/1/5
f 219/1/5 214/1/5 213/1/5
f 219/4/5 213/4/5 218/4/5
f 220/4/5 208/4/5 214/4/5
f 220/1/5 214/1/5 219/1/5
f 221/4/5 219/4/5 218/4/5
f 221/4/5 218/4/5 217/4/5
f 221/4/5 220/4/5 219/4/5
f 221/4/5 217/4/5 216/4/5
f 221/4/5 216/4/5 215/4/5
f 221/4/5 215/4/5 207/4/5
f 222/4/5 208/4/5 220/4/5
f 222/4/5 220/4/5 221/4/5
f 227/5/5 224/5/5 223/5/5
f 228/5/5 224/5/5 227/5/5
f 231/4/5 226/4/5 225/4/5
f 232/4/5 226/4/5 231/4/5
f 233/4/5 230/4/5 229/4/5
f 234/4/5 230/4/5 233/4/5
f 241/5/5 236/5/5 235/5/5
f 242/5/5 236/5/5 241/5/5
f 243/5/5 238/5/5 237/5/5
f 244/5/5 238/5/5 243/5/5
f 245/5/5 240/5/5 239/5/5
f 246/5/5 240/5/5 245/5/5
f 247/6/6 248/6/6 249/6/6
f 249/6/6 248/6/6 250/6/6
f 251/5/6 252/5/6 258/5/6
f 258/5/6 252/5/6 259/5/6
f 253/5/6 254/5/6 260/5/6
f 260/5/6 254/5/6 261/5/6
f 255/5/6 256/5/6 262/5/6
f 256/3/6 257/3/6 263/3/6
f 262/5/6 256/5/6 263/5/6
f 263/3/6 257/3/6 264/3/6
f 265/4/6 266/4/6 269/4/6
f 267/4/6 268/4/6 270/4/6
f 265/4/6 269/4/6 271/4/6
f 269/4/6 270/4/6 271/4/6
f 270/4/6 268/4/6 272/4/6
f 271/4/6 270/4/6 272/4/6
f 273/5/6 274/5/6 277/5/6
f 277/5/6 274/5/6 278/5/6
f 275/4/6 276/4/6 281/4/6
f 279/4/6 280/4/6 284/4/6
f 281/4/6 282/4/6 285/4/6
f 283/4/6 284/4/6 288/4/6
f 285/4/6 286/4/6 289/4/6
f 275/4/6 281/4/6 289/4/6
f 281/4/6 285/4/6 289/4/6
f 289/4/6 286/4/6 290/4/6
f 290/4/6 286/4/6 291/4/6
f 287/4/6 288/4/6 292/4/6
f 288/4/6 284/4/6 293/4/6
f 284/4/6 280/4/6 293/4/6
f 292/4/6 288/4/6 293/4/6
f 293/4/6 280/4/6 294/4/6
f 290/4/6 291/4/6 295/4/6
f 291/4/6 292/4/6 295/4/6
f 292/4/6 293/4/6 295/4/6
f 295/4/6 293/4/6 296/4/6
f 297/4/6 298/4/6 299/4/6
f 299/4/6 298/4/6 300/4/6
f 297/4/6 299/4/6 301/4/6
f 299/1/6 300/1/6 301/1/6
f 300/4/6 298/4/6 302/4/6
f 301/1/6 300/1/6 302/1/6
f 297/4/6 301/4/6 303/4/6
f 301/4/6 302/4/6 303/4/6
f 303/4/6 302/4/6 304/4/6
f 304/4/6 302/4/6 305/4/6
f 305/4/6 302/4/6 306/4/6
f 302/4/6 298/4/6 307/4/6
f 306/4/6 302/4/6 307/4/6
f 307/4/6 298/4/6 308/4/6
f 304/4/6 305/4/6 309/4/6
f 309/4/6 305/4/6 310/4/6
f 305/1/6 306/1/6 311/1/6
f 310/4/6 305/4/6 311/4/6
f 306/4/6 307/4/6 312/4/6
f 311/1/6 306/1/6 312/1/6
f 312/4/6 307/4/6 313/4/6
f 313/4/6 307/4/6 314/4/6
f 310/4/6 311/4/6 315/4/6
f 312/4/6 313/4/6 315/4/6
f 311/4/6 312/4/6 315/4/6
f 315/4/6 313/4/6 316/4/6
