# MagicaVoxel @ Ephtracy

# group
o 

# material
mtllib Robot.vox-17.mtl
usemtl palette

# normals
vn -1 0 0
vn 1 0 0
vn 0 0 1
vn 0 0 -1
vn 0 -1 0
vn 0 1 0

# texcoords
vt 0.912109 0.5
vt 0.943359 0.5
vt 0.974609 0.5
vt 0.978516 0.5

# verts
v -8.2 0 0.1
v -8.2 0 -0.1
v -8.2 0.6 0.1
v -8.2 0.6 -0.1
v -8.2 0.7 0.1
v -8.2 0.7 -0.1
v -8.2 0.9 0.1
v -8.2 0.9 -0.1
v -8.2 1 0.1
v -8.2 1 -0.1
v -8.2 1.2 0.1
v -8.2 1.2 -0.1
v -8.2 1.3 0.1
v -8.2 1.3 -0.1
v -8.2 1.4 0.1
v -8.2 1.4 -0.1
v -8.2 1.5 0.1
v -8.2 1.5 -0.1
v -8.2 1.6 0.1
v -8.2 1.6 -0.1
v -8.1 0 0.2
v -8.1 0 0.1
v -8.1 0 -0.1
v -8.1 0 -0.2
v -8.1 0.6 0.2
v -8.1 0.6 0.1
v -8.1 0.6 0
v -8.1 0.6 -0.1
v -8.1 0.6 -0.2
v -8.1 0.7 0.2
v -8.1 0.7 0.1
v -8.1 0.7 0
v -8.1 0.7 -0.1
v -8.1 0.7 -0.2
v -8.1 0.9 0.2
v -8.1 0.9 0.1
v -8.1 0.9 0
v -8.1 0.9 -0.1
v -8.1 0.9 -0.2
v -8.1 1 0.2
v -8.1 1 0.1
v -8.1 1 0
v -8.1 1 -0.1
v -8.1 1 -0.2
v -8.1 1.2 0.2
v -8.1 1.2 0.1
v -8.1 1.2 0
v -8.1 1.2 -0.1
v -8.1 1.2 -0.2
v -8.1 1.3 0.2
v -8.1 1.3 0.1
v -8.1 1.3 0
v -8.1 1.3 -0.1
v -8.1 1.3 -0.2
v -8.1 1.4 0.2
v -8.1 1.4 0.1
v -8.1 1.4 0
v -8.1 1.4 -0.1
v -8.1 1.4 -0.2
v -8.1 1.5 0.2
v -8.1 1.5 0.1
v -8.1 1.5 0
v -8.1 1.5 -0.1
v -8.1 1.5 -0.2
v -8.1 1.6 0.2
v -8.1 1.6 0.1
v -8.1 1.6 -0.1
v -8.1 1.6 -0.2
v -7.7 0 0.2
v -7.7 0 0.1
v -7.7 0 -0.1
v -7.7 0 -0.2
v -7.7 0.6 0.2
v -7.7 0.6 0.1
v -7.7 0.6 0
v -7.7 0.6 -0.1
v -7.7 0.6 -0.2
v -7.7 0.7 0.2
v -7.7 0.7 0.1
v -7.7 0.7 0
v -7.7 0.7 -0.1
v -7.7 0.7 -0.2
v -7.7 0.9 0.2
v -7.7 0.9 0.1
v -7.7 0.9 0
v -7.7 0.9 -0.1
v -7.7 0.9 -0.2
v -7.7 1 0.2
v -7.7 1 0.1
v -7.7 1 0
v -7.7 1 -0.1
v -7.7 1 -0.2
v -7.7 1.2 0.2
v -7.7 1.2 0.1
v -7.7 1.2 0
v -7.7 1.2 -0.1
v -7.7 1.2 -0.2
v -7.7 1.3 0.2
v -7.7 1.3 0.1
v -7.7 1.3 0
v -7.7 1.3 -0.1
v -7.7 1.3 -0.2
v -7.7 1.4 0.2
v -7.7 1.4 0.1
v -7.7 1.4 0
v -7.7 1.4 -0.1
v -7.7 1.4 -0.2
v -7.7 1.5 0.2
v -7.7 1.5 0.1
v -7.7 1.5 0
v -7.7 1.5 -0.1
v -7.7 1.5 -0.2
v -7.7 1.6 0.2
v -7.7 1.6 0.1
v -7.7 1.6 -0.1
v -7.7 1.6 -0.2
v -7.3 0 0.2
v -7.3 0 0.1
v -7.3 0 -0.1
v -7.3 0 -0.2
v -7.3 0.6 0.2
v -7.3 0.6 0.1
v -7.3 0.6 0
v -7.3 0.6 -0.1
v -7.3 0.6 -0.2
v -7.3 0.7 0.2
v -7.3 0.7 0.1
v -7.3 0.7 0
v -7.3 0.7 -0.1
v -7.3 0.7 -0.2
v -7.3 0.9 0.2
v -7.3 0.9 0.1
v -7.3 0.9 0
v -7.3 0.9 -0.1
v -7.3 0.9 -0.2
v -7.3 1 0.2
v -7.3 1 0.1
v -7.3 1 0
v -7.3 1 -0.1
v -7.3 1 -0.2
v -7.3 1.2 0.2
v -7.3 1.2 0.1
v -7.3 1.2 0
v -7.3 1.2 -0.1
v -7.3 1.2 -0.2
v -7.3 1.3 0.2
v -7.3 1.3 0.1
v -7.3 1.3 0
v -7.3 1.3 -0.1
v -7.3 1.3 -0.2
v -7.3 1.4 0.2
v -7.3 1.4 0.1
v -7.3 1.4 0
v -7.3 1.4 -0.1
v -7.3 1.4 -0.2
v -7.3 1.5 0.2
v -7.3 1.5 0.1
v -7.3 1.5 0
v -7.3 1.5 -0.1
v -7.3 1.5 -0.2
v -7.3 1.6 0.2
v -7.3 1.6 0.1
v -7.3 1.6 -0.1
v -7.3 1.6 -0.2
v -6.9 0 0.2
v -6.9 0 0.1
v -6.9 0 -0.1
v -6.9 0 -0.2
v -6.9 0.6 0.2
v -6.9 0.6 0.1
v -6.9 0.6 0
v -6.9 0.6 -0.1
v -6.9 0.6 -0.2
v -6.9 0.7 0.2
v -6.9 0.7 0.1
v -6.9 0.7 0
v -6.9 0.7 -0.1
v -6.9 0.7 -0.2
v -6.9 0.9 0.2
v -6.9 0.9 0.1
v -6.9 0.9 0
v -6.9 0.9 -0.1
v -6.9 0.9 -0.2
v -6.9 1 0.2
v -6.9 1 0.1
v -6.9 1 0
v -6.9 1 -0.1
v -6.9 1 -0.2
v -6.9 1.2 0.2
v -6.9 1.2 0.1
v -6.9 1.2 0
v -6.9 1.2 -0.1
v -6.9 1.2 -0.2
v -6.9 1.3 0.2
v -6.9 1.3 0.1
v -6.9 1.3 0
v -6.9 1.3 -0.1
v -6.9 1.3 -0.2
v -6.9 1.4 0.2
v -6.9 1.4 0.1
v -6.9 1.4 0
v -6.9 1.4 -0.1
v -6.9 1.4 -0.2
v -6.9 1.5 0.2
v -6.9 1.5 0.1
v -6.9 1.5 0
v -6.9 1.5 -0.1
v -6.9 1.5 -0.2
v -6.9 1.6 0.2
v -6.9 1.6 0.1
v -6.9 1.6 -0.1
v -6.9 1.6 -0.2
v -7.9 0 0.2
v -7.9 0 0.1
v -7.9 0 -0.1
v -7.9 0 -0.2
v -7.9 0.6 0.2
v -7.9 0.6 0.1
v -7.9 0.6 0
v -7.9 0.6 -0.1
v -7.9 0.6 -0.2
v -7.9 0.7 0.2
v -7.9 0.7 0.1
v -7.9 0.7 0
v -7.9 0.7 -0.1
v -7.9 0.7 -0.2
v -7.9 0.9 0.2
v -7.9 0.9 0.1
v -7.9 0.9 -0.1
v -7.9 0.9 -0.2
v -7.9 1 0.2
v -7.9 1 0.1
v -7.9 1 -0.1
v -7.9 1 -0.2
v -7.9 1.2 0.2
v -7.9 1.2 0.1
v -7.9 1.2 0
v -7.9 1.2 -0.1
v -7.9 1.2 -0.2
v -7.9 1.3 0.2
v -7.9 1.3 0.1
v -7.9 1.3 0
v -7.9 1.3 -0.1
v -7.9 1.3 -0.2
v -7.9 1.4 0.2
v -7.9 1.4 0.1
v -7.9 1.4 -0.1
v -7.9 1.4 -0.2
v -7.9 1.5 0.2
v -7.9 1.5 0.1
v -7.9 1.5 -0.1
v -7.9 1.5 -0.2
v -7.9 1.6 0.2
v -7.9 1.6 0.1
v -7.9 1.6 -0.1
v -7.9 1.6 -0.2
v -7.5 0 0.2
v -7.5 0 0.1
v -7.5 0 -0.1
v -7.5 0 -0.2
v -7.5 0.6 0.2
v -7.5 0.6 0.1
v -7.5 0.6 0
v -7.5 0.6 -0.1
v -7.5 0.6 -0.2
v -7.5 0.7 0.2
v -7.5 0.7 0.1
v -7.5 0.7 0
v -7.5 0.7 -0.1
v -7.5 0.7 -0.2
v -7.5 0.9 0.2
v -7.5 0.9 0.1
v -7.5 0.9 -0.1
v -7.5 0.9 -0.2
v -7.5 1 0.2
v -7.5 1 0.1
v -7.5 1 -0.1
v -7.5 1 -0.2
v -7.5 1.2 0.2
v -7.5 1.2 0.1
v -7.5 1.2 0
v -7.5 1.2 -0.1
v -7.5 1.2 -0.2
v -7.5 1.3 0.2
v -7.5 1.3 0.1
v -7.5 1.3 0
v -7.5 1.3 -0.1
v -7.5 1.3 -0.2
v -7.5 1.4 0.2
v -7.5 1.4 0.1
v -7.5 1.4 -0.1
v -7.5 1.4 -0.2
v -7.5 1.5 0.2
v -7.5 1.5 0.1
v -7.5 1.5 -0.1
v -7.5 1.5 -0.2
v -7.5 1.6 0.2
v -7.5 1.6 0.1
v -7.5 1.6 -0.1
v -7.5 1.6 -0.2
v -7.1 0 0.2
v -7.1 0 0.1
v -7.1 0 -0.1
v -7.1 0 -0.2
v -7.1 0.6 0.2
v -7.1 0.6 0.1
v -7.1 0.6 0
v -7.1 0.6 -0.1
v -7.1 0.6 -0.2
v -7.1 0.7 0.2
v -7.1 0.7 0.1
v -7.1 0.7 0
v -7.1 0.7 -0.1
v -7.1 0.7 -0.2
v -7.1 0.9 0.2
v -7.1 0.9 0.1
v -7.1 0.9 -0.1
v -7.1 0.9 -0.2
v -7.1 1 0.2
v -7.1 1 0.1
v -7.1 1 -0.1
v -7.1 1 -0.2
v -7.1 1.2 0.2
v -7.1 1.2 0.1
v -7.1 1.2 0
v -7.1 1.2 -0.1
v -7.1 1.2 -0.2
v -7.1 1.3 0.2
v -7.1 1.3 0.1
v -7.1 1.3 0
v -7.1 1.3 -0.1
v -7.1 1.3 -0.2
v -7.1 1.4 0.2
v -7.1 1.4 0.1
v -7.1 1.4 -0.1
v -7.1 1.4 -0.2
v -7.1 1.5 0.2
v -7.1 1.5 0.1
v -7.1 1.5 -0.1
v -7.1 1.5 -0.2
v -7.1 1.6 0.2
v -7.1 1.6 0.1
v -7.1 1.6 -0.1
v -7.1 1.6 -0.2
v -6.7 0 0.2
v -6.7 0 0.1
v -6.7 0 -0.1
v -6.7 0 -0.2
v -6.7 0.6 0.2
v -6.7 0.6 0.1
v -6.7 0.6 0
v -6.7 0.6 -0.1
v -6.7 0.6 -0.2
v -6.7 0.7 0.2
v -6.7 0.7 0.1
v -6.7 0.7 0
v -6.7 0.7 -0.1
v -6.7 0.7 -0.2
v -6.7 0.9 0.2
v -6.7 0.9 0.1
v -6.7 0.9 -0.1
v -6.7 0.9 -0.2
v -6.7 1 0.2
v -6.7 1 0.1
v -6.7 1 -0.1
v -6.7 1 -0.2
v -6.7 1.2 0.2
v -6.7 1.2 0.1
v -6.7 1.2 0
v -6.7 1.2 -0.1
v -6.7 1.2 -0.2
v -6.7 1.3 0.2
v -6.7 1.3 0.1
v -6.7 1.3 0
v -6.7 1.3 -0.1
v -6.7 1.3 -0.2
v -6.7 1.4 0.2
v -6.7 1.4 0.1
v -6.7 1.4 -0.1
v -6.7 1.4 -0.2
v -6.7 1.5 0.2
v -6.7 1.5 0.1
v -6.7 1.5 -0.1
v -6.7 1.5 -0.2
v -6.7 1.6 0.2
v -6.7 1.6 0.1
v -6.7 1.6 -0.1
v -6.7 1.6 -0.2
v -6.6 0 0.1
v -6.6 0 -0.1
v -6.6 0.6 0.1
v -6.6 0.6 -0.1
v -6.6 0.7 0.1
v -6.6 0.7 -0.1
v -6.6 0.9 0.1
v -6.6 0.9 -0.1
v -6.6 1 0.1
v -6.6 1 -0.1
v -6.6 1.2 0.1
v -6.6 1.2 -0.1
v -6.6 1.3 0.1
v -6.6 1.3 -0.1
v -6.6 1.4 0.1
v -6.6 1.4 -0.1
v -6.6 1.5 0.1
v -6.6 1.5 -0.1
v -6.6 1.6 0.1
v -6.6 1.6 -0.1
v -8.1 0 0.2
v -8.1 0.6 0.2
v -8.1 0.7 0.2
v -8.1 0.9 0.2
v -8.1 1 0.2
v -8.1 1.2 0.2
v -8.1 1.3 0.2
v -8.1 1.4 0.2
v -8.1 1.5 0.2
v -8.1 1.6 0.2
v -7.9 0 0.2
v -7.9 0.6 0.2
v -7.9 0.7 0.2
v -7.9 0.9 0.2
v -7.9 1 0.2
v -7.9 1.2 0.2
v -7.9 1.3 0.2
v -7.9 1.4 0.2
v -7.9 1.5 0.2
v -7.9 1.6 0.2
v -7.7 0 0.2
v -7.7 0.6 0.2
v -7.7 0.7 0.2
v -7.7 0.9 0.2
v -7.7 1 0.2
v -7.7 1.2 0.2
v -7.7 1.3 0.2
v -7.7 1.4 0.2
v -7.7 1.5 0.2
v -7.7 1.6 0.2
v -7.5 0 0.2
v -7.5 0.6 0.2
v -7.5 0.7 0.2
v -7.5 0.9 0.2
v -7.5 1 0.2
v -7.5 1.2 0.2
v -7.5 1.3 0.2
v -7.5 1.4 0.2
v -7.5 1.5 0.2
v -7.5 1.6 0.2
v -7.3 0 0.2
v -7.3 0.6 0.2
v -7.3 0.7 0.2
v -7.3 0.9 0.2
v -7.3 1 0.2
v -7.3 1.2 0.2
v -7.3 1.3 0.2
v -7.3 1.4 0.2
v -7.3 1.5 0.2
v -7.3 1.6 0.2
v -7.1 0 0.2
v -7.1 0.6 0.2
v -7.1 0.7 0.2
v -7.1 0.9 0.2
v -7.1 1 0.2
v -7.1 1.2 0.2
v -7.1 1.3 0.2
v -7.1 1.4 0.2
v -7.1 1.5 0.2
v -7.1 1.6 0.2
v -6.9 0 0.2
v -6.9 0.6 0.2
v -6.9 0.7 0.2
v -6.9 0.9 0.2
v -6.9 1 0.2
v -6.9 1.2 0.2
v -6.9 1.3 0.2
v -6.9 1.4 0.2
v -6.9 1.5 0.2
v -6.9 1.6 0.2
v -6.7 0 0.2
v -6.7 0.6 0.2
v -6.7 0.7 0.2
v -6.7 0.9 0.2
v -6.7 1 0.2
v -6.7 1.2 0.2
v -6.7 1.3 0.2
v -6.7 1.4 0.2
v -6.7 1.5 0.2
v -6.7 1.6 0.2
v -8.2 0 0.1
v -8.2 0.6 0.1
v -8.2 0.7 0.1
v -8.2 0.9 0.1
v -8.2 1 0.1
v -8.2 1.2 0.1
v -8.2 1.3 0.1
v -8.2 1.4 0.1
v -8.2 1.5 0.1
v -8.2 1.6 0.1
v -8.1 0 0.1
v -8.1 0.6 0.1
v -8.1 0.7 0.1
v -8.1 0.9 0.1
v -8.1 1 0.1
v -8.1 1.2 0.1
v -8.1 1.3 0.1
v -8.1 1.4 0.1
v -8.1 1.5 0.1
v -8.1 1.6 0.1
v -8 0.6 0.1
v -8 0.7 0.1
v -8 0.9 0.1
v -8 1 0.1
v -8 1.2 0.1
v -8 1.3 0.1
v -8 1.4 0.1
v -8 1.5 0.1
v -7.9 0 0.1
v -7.9 0.6 0.1
v -7.9 0.7 0.1
v -7.9 0.9 0.1
v -7.9 1 0.1
v -7.9 1.2 0.1
v -7.9 1.3 0.1
v -7.9 1.4 0.1
v -7.9 1.5 0.1
v -7.9 1.6 0.1
v -7.7 0 0.1
v -7.7 0.6 0.1
v -7.7 0.7 0.1
v -7.7 0.9 0.1
v -7.7 1 0.1
v -7.7 1.2 0.1
v -7.7 1.3 0.1
v -7.7 1.4 0.1
v -7.7 1.5 0.1
v -7.7 1.6 0.1
v -7.6 0.6 0.1
v -7.6 0.7 0.1
v -7.6 0.9 0.1
v -7.6 1 0.1
v -7.6 1.2 0.1
v -7.6 1.3 0.1
v -7.6 1.4 0.1
v -7.6 1.5 0.1
v -7.5 0 0.1
v -7.5 0.6 0.1
v -7.5 0.7 0.1
v -7.5 0.9 0.1
v -7.5 1 0.1
v -7.5 1.2 0.1
v -7.5 1.3 0.1
v -7.5 1.4 0.1
v -7.5 1.5 0.1
v -7.5 1.6 0.1
v -7.3 0 0.1
v -7.3 0.6 0.1
v -7.3 0.7 0.1
v -7.3 0.9 0.1
v -7.3 1 0.1
v -7.3 1.2 0.1
v -7.3 1.3 0.1
v -7.3 1.4 0.1
v -7.3 1.5 0.1
v -7.3 1.6 0.1
v -7.2 0.6 0.1
v -7.2 0.7 0.1
v -7.2 0.9 0.1
v -7.2 1 0.1
v -7.2 1.2 0.1
v -7.2 1.3 0.1
v -7.2 1.4 0.1
v -7.2 1.5 0.1
v -7.1 0 0.1
v -7.1 0.6 0.1
v -7.1 0.7 0.1
v -7.1 0.9 0.1
v -7.1 1 0.1
v -7.1 1.2 0.1
v -7.1 1.3 0.1
v -7.1 1.4 0.1
v -7.1 1.5 0.1
v -7.1 1.6 0.1
v -6.9 0 0.1
v -6.9 0.6 0.1
v -6.9 0.7 0.1
v -6.9 0.9 0.1
v -6.9 1 0.1
v -6.9 1.2 0.1
v -6.9 1.3 0.1
v -6.9 1.4 0.1
v -6.9 1.5 0.1
v -6.9 1.6 0.1
v -6.8 0.6 0.1
v -6.8 0.7 0.1
v -6.8 0.9 0.1
v -6.8 1 0.1
v -6.8 1.2 0.1
v -6.8 1.3 0.1
v -6.8 1.4 0.1
v -6.8 1.5 0.1
v -6.7 0 0.1
v -6.7 0.6 0.1
v -6.7 0.7 0.1
v -6.7 0.9 0.1
v -6.7 1 0.1
v -6.7 1.2 0.1
v -6.7 1.3 0.1
v -6.7 1.4 0.1
v -6.7 1.5 0.1
v -6.7 1.6 0.1
v -6.6 0 0.1
v -6.6 0.6 0.1
v -6.6 0.7 0.1
v -6.6 0.9 0.1
v -6.6 1 0.1
v -6.6 1.2 0.1
v -6.6 1.3 0.1
v -6.6 1.4 0.1
v -6.6 1.5 0.1
v -6.6 1.6 0.1
v -8.2 0 -0.1
v -8.2 0.6 -0.1
v -8.2 0.7 -0.1
v -8.2 0.9 -0.1
v -8.2 1 -0.1
v -8.2 1.2 -0.1
v -8.2 1.3 -0.1
v -8.2 1.4 -0.1
v -8.2 1.5 -0.1
v -8.2 1.6 -0.1
v -8.1 0 -0.1
v -8.1 0.6 -0.1
v -8.1 0.7 -0.1
v -8.1 0.9 -0.1
v -8.1 1 -0.1
v -8.1 1.2 -0.1
v -8.1 1.3 -0.1
v -8.1 1.4 -0.1
v -8.1 1.5 -0.1
v -8.1 1.6 -0.1
v -8 0.6 -0.1
v -8 0.7 -0.1
v -7.9 0 -0.1
v -7.9 0.6 -0.1
v -7.9 0.7 -0.1
v -7.9 0.9 -0.1
v -7.9 1 -0.1
v -7.9 1.2 -0.1
v -7.9 1.3 -0.1
v -7.9 1.4 -0.1
v -7.9 1.5 -0.1
v -7.9 1.6 -0.1
v -7.7 0 -0.1
v -7.7 0.6 -0.1
v -7.7 0.7 -0.1
v -7.7 0.9 -0.1
v -7.7 1 -0.1
v -7.7 1.2 -0.1
v -7.7 1.3 -0.1
v -7.7 1.4 -0.1
v -7.7 1.5 -0.1
v -7.7 1.6 -0.1
v -7.6 0.6 -0.1
v -7.6 0.7 -0.1
v -7.5 0 -0.1
v -7.5 0.6 -0.1
v -7.5 0.7 -0.1
v -7.5 0.9 -0.1
v -7.5 1 -0.1
v -7.5 1.2 -0.1
v -7.5 1.3 -0.1
v -7.5 1.4 -0.1
v -7.5 1.5 -0.1
v -7.5 1.6 -0.1
v -7.3 0 -0.1
v -7.3 0.6 -0.1
v -7.3 0.7 -0.1
v -7.3 0.9 -0.1
v -7.3 1 -0.1
v -7.3 1.2 -0.1
v -7.3 1.3 -0.1
v -7.3 1.4 -0.1
v -7.3 1.5 -0.1
v -7.3 1.6 -0.1
v -7.2 0.6 -0.1
v -7.2 0.7 -0.1
v -7.1 0 -0.1
v -7.1 0.6 -0.1
v -7.1 0.7 -0.1
v -7.1 0.9 -0.1
v -7.1 1 -0.1
v -7.1 1.2 -0.1
v -7.1 1.3 -0.1
v -7.1 1.4 -0.1
v -7.1 1.5 -0.1
v -7.1 1.6 -0.1
v -6.9 0 -0.1
v -6.9 0.6 -0.1
v -6.9 0.7 -0.1
v -6.9 0.9 -0.1
v -6.9 1 -0.1
v -6.9 1.2 -0.1
v -6.9 1.3 -0.1
v -6.9 1.4 -0.1
v -6.9 1.5 -0.1
v -6.9 1.6 -0.1
v -6.8 0.6 -0.1
v -6.8 0.7 -0.1
v -6.7 0 -0.1
v -6.7 0.6 -0.1
v -6.7 0.7 -0.1
v -6.7 0.9 -0.1
v -6.7 1 -0.1
v -6.7 1.2 -0.1
v -6.7 1.3 -0.1
v -6.7 1.4 -0.1
v -6.7 1.5 -0.1
v -6.7 1.6 -0.1
v -6.6 0 -0.1
v -6.6 0.6 -0.1
v -6.6 0.7 -0.1
v -6.6 0.9 -0.1
v -6.6 1 -0.1
v -6.6 1.2 -0.1
v -6.6 1.3 -0.1
v -6.6 1.4 -0.1
v -6.6 1.5 -0.1
v -6.6 1.6 -0.1
v -8.1 0 -0.2
v -8.1 0.6 -0.2
v -8.1 0.7 -0.2
v -8.1 0.9 -0.2
v -8.1 1 -0.2
v -8.1 1.2 -0.2
v -8.1 1.3 -0.2
v -8.1 1.4 -0.2
v -8.1 1.5 -0.2
v -8.1 1.6 -0.2
v -7.9 0 -0.2
v -7.9 0.6 -0.2
v -7.9 0.7 -0.2
v -7.9 0.9 -0.2
v -7.9 1 -0.2
v -7.9 1.2 -0.2
v -7.9 1.3 -0.2
v -7.9 1.4 -0.2
v -7.9 1.5 -0.2
v -7.9 1.6 -0.2
v -7.7 0 -0.2
v -7.7 0.6 -0.2
v -7.7 0.7 -0.2
v -7.7 0.9 -0.2
v -7.7 1 -0.2
v -7.7 1.2 -0.2
v -7.7 1.3 -0.2
v -7.7 1.4 -0.2
v -7.7 1.5 -0.2
v -7.7 1.6 -0.2
v -7.5 0 -0.2
v -7.5 0.6 -0.2
v -7.5 0.7 -0.2
v -7.5 0.9 -0.2
v -7.5 1 -0.2
v -7.5 1.2 -0.2
v -7.5 1.3 -0.2
v -7.5 1.4 -0.2
v -7.5 1.5 -0.2
v -7.5 1.6 -0.2
v -7.3 0 -0.2
v -7.3 0.6 -0.2
v -7.3 0.7 -0.2
v -7.3 0.9 -0.2
v -7.3 1 -0.2
v -7.3 1.2 -0.2
v -7.3 1.3 -0.2
v -7.3 1.4 -0.2
v -7.3 1.5 -0.2
v -7.3 1.6 -0.2
v -7.1 0 -0.2
v -7.1 0.6 -0.2
v -7.1 0.7 -0.2
v -7.1 0.9 -0.2
v -7.1 1 -0.2
v -7.1 1.2 -0.2
v -7.1 1.3 -0.2
v -7.1 1.4 -0.2
v -7.1 1.5 -0.2
v -7.1 1.6 -0.2
v -6.9 0 -0.2
v -6.9 0.6 -0.2
v -6.9 0.7 -0.2
v -6.9 0.9 -0.2
v -6.9 1 -0.2
v -6.9 1.2 -0.2
v -6.9 1.3 -0.2
v -6.9 1.4 -0.2
v -6.9 1.5 -0.2
v -6.9 1.6 -0.2
v -6.7 0 -0.2
v -6.7 0.6 -0.2
v -6.7 0.7 -0.2
v -6.7 0.9 -0.2
v -6.7 1 -0.2
v -6.7 1.2 -0.2
v -6.7 1.3 -0.2
v -6.7 1.4 -0.2
v -6.7 1.5 -0.2
v -6.7 1.6 -0.2
v -8.1 0 0.2
v -7.9 0 0.2
v -7.7 0 0.2
v -7.5 0 0.2
v -7.3 0 0.2
v -7.1 0 0.2
v -6.9 0 0.2
v -6.7 0 0.2
v -8.2 0 0.1
v -8.1 0 0.1
v -7.9 0 0.1
v -7.7 0 0.1
v -7.5 0 0.1
v -7.3 0 0.1
v -7.1 0 0.1
v -6.9 0 0.1
v -6.7 0 0.1
v -6.6 0 0.1
v -8.2 0 -0.1
v -8.1 0 -0.1
v -7.9 0 -0.1
v -7.7 0 -0.1
v -7.5 0 -0.1
v -7.3 0 -0.1
v -7.1 0 -0.1
v -6.9 0 -0.1
v -6.7 0 -0.1
v -6.6 0 -0.1
v -8.1 0 -0.2
v -7.9 0 -0.2
v -7.7 0 -0.2
v -7.5 0 -0.2
v -7.3 0 -0.2
v -7.1 0 -0.2
v -6.9 0 -0.2
v -6.7 0 -0.2
v -8.1 0.7 0.2
v -7.9 0.7 0.2
v -7.7 0.7 0.2
v -7.5 0.7 0.2
v -7.3 0.7 0.2
v -7.1 0.7 0.2
v -6.9 0.7 0.2
v -6.7 0.7 0.2
v -8.2 0.7 0.1
v -8.1 0.7 0.1
v -8 0.7 0.1
v -7.9 0.7 0.1
v -7.7 0.7 0.1
v -7.6 0.7 0.1
v -7.5 0.7 0.1
v -7.3 0.7 0.1
v -7.2 0.7 0.1
v -7.1 0.7 0.1
v -6.9 0.7 0.1
v -6.8 0.7 0.1
v -6.7 0.7 0.1
v -6.6 0.7 0.1
v -8.1 0.7 0
v -7.9 0.7 0
v -7.7 0.7 0
v -7.5 0.7 0
v -7.3 0.7 0
v -7.1 0.7 0
v -6.9 0.7 0
v -6.7 0.7 0
v -8.2 0.7 -0.1
v -8.1 0.7 -0.1
v -8 0.7 -0.1
v -7.9 0.7 -0.1
v -7.7 0.7 -0.1
v -7.6 0.7 -0.1
v -7.5 0.7 -0.1
v -7.3 0.7 -0.1
v -7.2 0.7 -0.1
v -7.1 0.7 -0.1
v -6.9 0.7 -0.1
v -6.8 0.7 -0.1
v -6.7 0.7 -0.1
v -6.6 0.7 -0.1
v -8.1 0.7 -0.2
v -7.9 0.7 -0.2
v -7.7 0.7 -0.2
v -7.5 0.7 -0.2
v -7.3 0.7 -0.2
v -7.1 0.7 -0.2
v -6.9 0.7 -0.2
v -6.7 0.7 -0.2
v -8.1 1 0.2
v -7.9 1 0.2
v -7.7 1 0.2
v -7.5 1 0.2
v -7.3 1 0.2
v -7.1 1 0.2
v -6.9 1 0.2
v -6.7 1 0.2
v -8.2 1 0.1
v -8.1 1 0.1
v -8 1 0.1
v -7.9 1 0.1
v -7.7 1 0.1
v -7.6 1 0.1
v -7.5 1 0.1
v -7.3 1 0.1
v -7.2 1 0.1
v -7.1 1 0.1
v -6.9 1 0.1
v -6.8 1 0.1
v -6.7 1 0.1
v -6.6 1 0.1
v -8.1 1 0
v -7.7 1 0
v -7.3 1 0
v -6.9 1 0
v -8.2 1 -0.1
v -8.1 1 -0.1
v -7.9 1 -0.1
v -7.7 1 -0.1
v -7.5 1 -0.1
v -7.3 1 -0.1
v -7.1 1 -0.1
v -6.9 1 -0.1
v -6.7 1 -0.1
v -6.6 1 -0.1
v -8.1 1 -0.2
v -7.9 1 -0.2
v -7.7 1 -0.2
v -7.5 1 -0.2
v -7.3 1 -0.2
v -7.1 1 -0.2
v -6.9 1 -0.2
v -6.7 1 -0.2
v -8.1 1.3 0.2
v -7.9 1.3 0.2
v -7.7 1.3 0.2
v -7.5 1.3 0.2
v -7.3 1.3 0.2
v -7.1 1.3 0.2
v -6.9 1.3 0.2
v -6.7 1.3 0.2
v -8.2 1.3 0.1
v -8.1 1.3 0.1
v -8 1.3 0.1
v -7.9 1.3 0.1
v -7.7 1.3 0.1
v -7.6 1.3 0.1
v -7.5 1.3 0.1
v -7.3 1.3 0.1
v -7.2 1.3 0.1
v -7.1 1.3 0.1
v -6.9 1.3 0.1
v -6.8 1.3 0.1
v -6.7 1.3 0.1
v -6.6 1.3 0.1
v -8.1 1.3 0
v -7.9 1.3 0
v -7.7 1.3 0
v -7.5 1.3 0
v -7.3 1.3 0
v -7.1 1.3 0
v -6.9 1.3 0
v -6.7 1.3 0
v -8.2 1.3 -0.1
v -8.1 1.3 -0.1
v -7.9 1.3 -0.1
v -7.7 1.3 -0.1
v -7.5 1.3 -0.1
v -7.3 1.3 -0.1
v -7.1 1.3 -0.1
v -6.9 1.3 -0.1
v -6.7 1.3 -0.1
v -6.6 1.3 -0.1
v -8.1 1.3 -0.2
v -7.9 1.3 -0.2
v -7.7 1.3 -0.2
v -7.5 1.3 -0.2
v -7.3 1.3 -0.2
v -7.1 1.3 -0.2
v -6.9 1.3 -0.2
v -6.7 1.3 -0.2
v -8.1 1.5 0.2
v -7.9 1.5 0.2
v -7.7 1.5 0.2
v -7.5 1.5 0.2
v -7.3 1.5 0.2
v -7.1 1.5 0.2
v -6.9 1.5 0.2
v -6.7 1.5 0.2
v -8.2 1.5 0.1
v -8.1 1.5 0.1
v -8 1.5 0.1
v -7.9 1.5 0.1
v -7.7 1.5 0.1
v -7.6 1.5 0.1
v -7.5 1.5 0.1
v -7.3 1.5 0.1
v -7.2 1.5 0.1
v -7.1 1.5 0.1
v -6.9 1.5 0.1
v -6.8 1.5 0.1
v -6.7 1.5 0.1
v -6.6 1.5 0.1
v -8.1 1.5 0
v -7.7 1.5 0
v -7.3 1.5 0
v -6.9 1.5 0
v -8.2 1.5 -0.1
v -8.1 1.5 -0.1
v -7.9 1.5 -0.1
v -7.7 1.5 -0.1
v -7.5 1.5 -0.1
v -7.3 1.5 -0.1
v -7.1 1.5 -0.1
v -6.9 1.5 -0.1
v -6.7 1.5 -0.1
v -6.6 1.5 -0.1
v -8.1 1.5 -0.2
v -7.9 1.5 -0.2
v -7.7 1.5 -0.2
v -7.5 1.5 -0.2
v -7.3 1.5 -0.2
v -7.1 1.5 -0.2
v -6.9 1.5 -0.2
v -6.7 1.5 -0.2
v -8.1 0.6 0.2
v -7.9 0.6 0.2
v -7.7 0.6 0.2
v -7.5 0.6 0.2
v -7.3 0.6 0.2
v -7.1 0.6 0.2
v -6.9 0.6 0.2
v -6.7 0.6 0.2
v -8.2 0.6 0.1
v -8.1 0.6 0.1
v -8 0.6 0.1
v -7.9 0.6 0.1
v -7.7 0.6 0.1
v -7.6 0.6 0.1
v -7.5 0.6 0.1
v -7.3 0.6 0.1
v -7.2 0.6 0.1
v -7.1 0.6 0.1
v -6.9 0.6 0.1
v -6.8 0.6 0.1
v -6.7 0.6 0.1
v -6.6 0.6 0.1
v -8.1 0.6 0
v -7.9 0.6 0
v -7.7 0.6 0
v -7.5 0.6 0
v -7.3 0.6 0
v -7.1 0.6 0
v -6.9 0.6 0
v -6.7 0.6 0
v -8.2 0.6 -0.1
v -8.1 0.6 -0.1
v -8 0.6 -0.1
v -7.9 0.6 -0.1
v -7.7 0.6 -0.1
v -7.6 0.6 -0.1
v -7.5 0.6 -0.1
v -7.3 0.6 -0.1
v -7.2 0.6 -0.1
v -7.1 0.6 -0.1
v -6.9 0.6 -0.1
v -6.8 0.6 -0.1
v -6.7 0.6 -0.1
v -6.6 0.6 -0.1
v -8.1 0.6 -0.2
v -7.9 0.6 -0.2
v -7.7 0.6 -0.2
v -7.5 0.6 -0.2
v -7.3 0.6 -0.2
v -7.1 0.6 -0.2
v -6.9 0.6 -0.2
v -6.7 0.6 -0.2
v -8.1 0.9 0.2
v -7.9 0.9 0.2
v -7.7 0.9 0.2
v -7.5 0.9 0.2
v -7.3 0.9 0.2
v -7.1 0.9 0.2
v -6.9 0.9 0.2
v -6.7 0.9 0.2
v -8.2 0.9 0.1
v -8.1 0.9 0.1
v -8 0.9 0.1
v -7.9 0.9 0.1
v -7.7 0.9 0.1
v -7.6 0.9 0.1
v -7.5 0.9 0.1
v -7.3 0.9 0.1
v -7.2 0.9 0.1
v -7.1 0.9 0.1
v -6.9 0.9 0.1
v -6.8 0.9 0.1
v -6.7 0.9 0.1
v -6.6 0.9 0.1
v -8.1 0.9 0
v -7.7 0.9 0
v -7.3 0.9 0
v -6.9 0.9 0
v -8.2 0.9 -0.1
v -8.1 0.9 -0.1
v -7.9 0.9 -0.1
v -7.7 0.9 -0.1
v -7.5 0.9 -0.1
v -7.3 0.9 -0.1
v -7.1 0.9 -0.1
v -6.9 0.9 -0.1
v -6.7 0.9 -0.1
v -6.6 0.9 -0.1
v -8.1 0.9 -0.2
v -7.9 0.9 -0.2
v -7.7 0.9 -0.2
v -7.5 0.9 -0.2
v -7.3 0.9 -0.2
v -7.1 0.9 -0.2
v -6.9 0.9 -0.2
v -6.7 0.9 -0.2
v -8.1 1.2 0.2
v -7.9 1.2 0.2
v -7.7 1.2 0.2
v -7.5 1.2 0.2
v -7.3 1.2 0.2
v -7.1 1.2 0.2
v -6.9 1.2 0.2
v -6.7 1.2 0.2
v -8.2 1.2 0.1
v -8.1 1.2 0.1
v -8 1.2 0.1
v -7.9 1.2 0.1
v -7.7 1.2 0.1
v -7.6 1.2 0.1
v -7.5 1.2 0.1
v -7.3 1.2 0.1
v -7.2 1.2 0.1
v -7.1 1.2 0.1
v -6.9 1.2 0.1
v -6.8 1.2 0.1
v -6.7 1.2 0.1
v -6.6 1.2 0.1
v -8.1 1.2 0
v -7.9 1.2 0
v -7.7 1.2 0
v -7.5 1.2 0
v -7.3 1.2 0
v -7.1 1.2 0
v -6.9 1.2 0
v -6.7 1.2 0
v -8.2 1.2 -0.1
v -8.1 1.2 -0.1
v -7.9 1.2 -0.1
v -7.7 1.2 -0.1
v -7.5 1.2 -0.1
v -7.3 1.2 -0.1
v -7.1 1.2 -0.1
v -6.9 1.2 -0.1
v -6.7 1.2 -0.1
v -6.6 1.2 -0.1
v -8.1 1.2 -0.2
v -7.9 1.2 -0.2
v -7.7 1.2 -0.2
v -7.5 1.2 -0.2
v -7.3 1.2 -0.2
v -7.1 1.2 -0.2
v -6.9 1.2 -0.2
v -6.7 1.2 -0.2
v -8.1 1.4 0.2
v -7.9 1.4 0.2
v -7.7 1.4 0.2
v -7.5 1.4 0.2
v -7.3 1.4 0.2
v -7.1 1.4 0.2
v -6.9 1.4 0.2
v -6.7 1.4 0.2
v -8.2 1.4 0.1
v -8.1 1.4 0.1
v -8 1.4 0.1
v -7.9 1.4 0.1
v -7.7 1.4 0.1
v -7.6 1.4 0.1
v -7.5 1.4 0.1
v -7.3 1.4 0.1
v -7.2 1.4 0.1
v -7.1 1.4 0.1
v -6.9 1.4 0.1
v -6.8 1.4 0.1
v -6.7 1.4 0.1
v -6.6 1.4 0.1
v -8.1 1.4 0
v -7.7 1.4 0
v -7.3 1.4 0
v -6.9 1.4 0
v -8.2 1.4 -0.1
v -8.1 1.4 -0.1
v -7.9 1.4 -0.1
v -7.7 1.4 -0.1
v -7.5 1.4 -0.1
v -7.3 1.4 -0.1
v -7.1 1.4 -0.1
v -6.9 1.4 -0.1
v -6.7 1.4 -0.1
v -6.6 1.4 -0.1
v -8.1 1.4 -0.2
v -7.9 1.4 -0.2
v -7.7 1.4 -0.2
v -7.5 1.4 -0.2
v -7.3 1.4 -0.2
v -7.1 1.4 -0.2
v -6.9 1.4 -0.2
v -6.7 1.4 -0.2
v -8.1 1.6 0.2
v -7.9 1.6 0.2
v -7.7 1.6 0.2
v -7.5 1.6 0.2
v -7.3 1.6 0.2
v -7.1 1.6 0.2
v -6.9 1.6 0.2
v -6.7 1.6 0.2
v -8.2 1.6 0.1
v -8.1 1.6 0.1
v -7.9 1.6 0.1
v -7.7 1.6 0.1
v -7.5 1.6 0.1
v -7.3 1.6 0.1
v -7.1 1.6 0.1
v -6.9 1.6 0.1
v -6.7 1.6 0.1
v -6.6 1.6 0.1
v -8.2 1.6 -0.1
v -8.1 1.6 -0.1
v -7.9 1.6 -0.1
v -7.7 1.6 -0.1
v -7.5 1.6 -0.1
v -7.3 1.6 -0.1
v -7.1 1.6 -0.1
v -6.9 1.6 -0.1
v -6.7 1.6 -0.1
v -6.6 1.6 -0.1
v -8.1 1.6 -0.2
v -7.9 1.6 -0.2
v -7.7 1.6 -0.2
v -7.5 1.6 -0.2
v -7.3 1.6 -0.2
v -7.1 1.6 -0.2
v -6.9 1.6 -0.2
v -6.7 1.6 -0.2

# faces
f 3/4/1 2/4/1 1/4/1
f 4/4/1 2/4/1 3/4/1
f 7/4/1 6/4/1 5/4/1
f 8/4/1 6/4/1 7/4/1
f 11/4/1 10/4/1 9/4/1
f 12/4/1 10/4/1 11/4/1
f 15/4/1 14/4/1 13/4/1
f 16/4/1 14/4/1 15/4/1
f 19/4/1 18/4/1 17/4/1
f 20/4/1 18/4/1 19/4/1
f 25/4/1 22/4/1 21/4/1
f 26/4/1 22/4/1 25/4/1
f 28/4/1 24/4/1 23/4/1
f 29/4/1 24/4/1 28/4/1
f 31/3/1 27/3/1 26/3/1
f 32/2/1 28/2/1 27/2/1
f 32/3/1 27/3/1 31/3/1
f 33/2/1 28/2/1 32/2/1
f 35/4/1 31/4/1 30/4/1
f 36/4/1 31/4/1 35/4/1
f 38/4/1 34/4/1 33/4/1
f 39/4/1 34/4/1 38/4/1
f 41/1/1 37/1/1 36/1/1
f 42/3/1 38/3/1 37/3/1
f 42/1/1 37/1/1 41/1/1
f 43/3/1 38/3/1 42/3/1
f 45/4/1 41/4/1 40/4/1
f 46/4/1 41/4/1 45/4/1
f 48/4/1 44/4/1 43/4/1
f 49/4/1 44/4/1 48/4/1
f 51/1/1 47/1/1 46/1/1
f 52/3/1 48/3/1 47/3/1
f 52/1/1 47/1/1 51/1/1
f 53/3/1 48/3/1 52/3/1
f 55/4/1 51/4/1 50/4/1
f 56/4/1 51/4/1 55/4/1
f 58/4/1 54/4/1 53/4/1
f 59/4/1 54/4/1 58/4/1
f 61/2/1 57/2/1 56/2/1
f 62/3/1 58/3/1 57/3/1
f 62/2/1 57/2/1 61/2/1
f 63/3/1 58/3/1 62/3/1
f 65/4/1 61/4/1 60/4/1
f 66/4/1 61/4/1 65/4/1
f 67/4/1 64/4/1 63/4/1
f 68/4/1 64/4/1 67/4/1
f 73/4/1 70/4/1 69/4/1
f 74/4/1 70/4/1 73/4/1
f 76/4/1 72/4/1 71/4/1
f 77/4/1 72/4/1 76/4/1
f 79/3/1 75/3/1 74/3/1
f 80/2/1 76/2/1 75/2/1
f 80/3/1 75/3/1 79/3/1
f 81/2/1 76/2/1 80/2/1
f 83/4/1 79/4/1 78/4/1
f 84/4/1 79/4/1 83/4/1
f 86/4/1 82/4/1 81/4/1
f 87/4/1 82/4/1 86/4/1
f 89/1/1 85/1/1 84/1/1
f 90/3/1 86/3/1 85/3/1
f 90/1/1 85/1/1 89/1/1
f 91/3/1 86/3/1 90/3/1
f 93/4/1 89/4/1 88/4/1
f 94/4/1 89/4/1 93/4/1
f 96/4/1 92/4/1 91/4/1
f 97/4/1 92/4/1 96/4/1
f 99/1/1 95/1/1 94/1/1
f 100/3/1 96/3/1 95/3/1
f 100/1/1 95/1/1 99/1/1
f 101/3/1 96/3/1 100/3/1
f 103/4/1 99/4/1 98/4/1
f 104/4/1 99/4/1 103/4/1
f 106/4/1 102/4/1 101/4/1
f 107/4/1 102/4/1 106/4/1
f 109/2/1 105/2/1 104/2/1
f 110/3/1 106/3/1 105/3/1
f 110/2/1 105/2/1 109/2/1
f 111/3/1 106/3/1 110/3/1
f 113/4/1 109/4/1 108/4/1
f 114/4/1 109/4/1 113/4/1
f 115/4/1 112/4/1 111/4/1
f 116/4/1 112/4/1 115/4/1
f 121/4/1 118/4/1 117/4/1
f 122/4/1 118/4/1 121/4/1
f 124/4/1 120/4/1 119/4/1
f 125/4/1 120/4/1 124/4/1
f 127/3/1 123/3/1 122/3/1
f 128/2/1 124/2/1 123/2/1
f 128/3/1 123/3/1 127/3/1
f 129/2/1 124/2/1 128/2/1
f 131/4/1 127/4/1 126/4/1
f 132/4/1 127/4/1 131/4/1
f 134/4/1 130/4/1 129/4/1
f 135/4/1 130/4/1 134/4/1
f 137/1/1 133/1/1 132/1/1
f 138/3/1 134/3/1 133/3/1
f 138/1/1 133/1/1 137/1/1
f 139/3/1 134/3/1 138/3/1
f 141/4/1 137/4/1 136/4/1
f 142/4/1 137/4/1 141/4/1
f 144/4/1 140/4/1 139/4/1
f 145/4/1 140/4/1 144/4/1
f 147/1/1 143/1/1 142/1/1
f 148/3/1 144/3/1 143/3/1
f 148/1/1 143/1/1 147/1/1
f 149/3/1 144/3/1 148/3/1
f 151/4/1 147/4/1 146/4/1
f 152/4/1 147/4/1 151/4/1
f 154/4/1 150/4/1 149/4/1
f 155/4/1 150/4/1 154/4/1
f 157/2/1 153/2/1 152/2/1
f 158/3/1 154/3/1 153/3/1
f 158/2/1 153/2/1 157/2/1
f 159/3/1 154/3/1 158/3/1
f 161/4/1 157/4/1 156/4/1
f 162/4/1 157/4/1 161/4/1
f 163/4/1 160/4/1 159/4/1
f 164/4/1 160/4/1 163/4/1
f 169/4/1 166/4/1 165/4/1
f 170/4/1 166/4/1 169/4/1
f 172/4/1 168/4/1 167/4/1
f 173/4/1 168/4/1 172/4/1
f 175/3/1 171/3/1 170/3/1
f 176/2/1 172/2/1 171/2/1
f 176/3/1 171/3/1 175/3/1
f 177/2/1 172/2/1 176/2/1
f 179/4/1 175/4/1 174/4/1
f 180/4/1 175/4/1 179/4/1
f 182/4/1 178/4/1 177/4/1
f 183/4/1 178/4/1 182/4/1
f 185/1/1 181/1/1 180/1/1
f 186/3/1 182/3/1 181/3/1
f 186/1/1 181/1/1 185/1/1
f 187/3/1 182/3/1 186/3/1
f 189/4/1 185/4/1 184/4/1
f 190/4/1 185/4/1 189/4/1
f 192/4/1 188/4/1 187/4/1
f 193/4/1 188/4/1 192/4/1
f 195/1/1 191/1/1 190/1/1
f 196/3/1 192/3/1 191/3/1
f 196/1/1 191/1/1 195/1/1
f 197/3/1 192/3/1 196/3/1
f 199/4/1 195/4/1 194/4/1
f 200/4/1 195/4/1 199/4/1
f 202/4/1 198/4/1 197/4/1
f 203/4/1 198/4/1 202/4/1
f 205/2/1 201/2/1 200/2/1
f 206/3/1 202/3/1 201/3/1
f 206/2/1 201/2/1 205/2/1
f 207/3/1 202/3/1 206/3/1
f 209/4/1 205/4/1 204/4/1
f 210/4/1 205/4/1 209/4/1
f 211/4/1 208/4/1 207/4/1
f 212/4/1 208/4/1 211/4/1
f 213/4/2 214/4/2 217/4/2
f 217/4/2 214/4/2 218/4/2
f 215/4/2 216/4/2 220/4/2
f 220/4/2 216/4/2 221/4/2
f 218/1/2 219/1/2 223/1/2
f 219/3/2 220/3/2 224/3/2
f 223/1/2 219/1/2 224/1/2
f 224/3/2 220/3/2 225/3/2
f 222/4/2 223/4/2 227/4/2
f 227/4/2 223/4/2 228/4/2
f 225/4/2 226/4/2 229/4/2
f 229/4/2 226/4/2 230/4/2
f 228/3/2 229/3/2 232/3/2
f 232/3/2 229/3/2 233/3/2
f 231/4/2 232/4/2 235/4/2
f 235/4/2 232/4/2 236/4/2
f 233/4/2 234/4/2 238/4/2
f 238/4/2 234/4/2 239/4/2
f 236/2/2 237/2/2 241/2/2
f 237/3/2 238/3/2 242/3/2
f 241/2/2 237/2/2 242/2/2
f 242/3/2 238/3/2 243/3/2
f 240/4/2 241/4/2 245/4/2
f 245/4/2 241/4/2 246/4/2
f 243/4/2 244/4/2 247/4/2
f 247/4/2 244/4/2 248/4/2
f 246/3/2 247/3/2 250/3/2
f 250/3/2 247/3/2 251/3/2
f 249/4/2 250/4/2 253/4/2
f 253/4/2 250/4/2 254/4/2
f 251/4/2 252/4/2 255/4/2
f 255/4/2 252/4/2 256/4/2
f 257/4/2 258/4/2 261/4/2
f 261/4/2 258/4/2 262/4/2
f 259/4/2 260/4/2 264/4/2
f 264/4/2 260/4/2 265/4/2
f 262/1/2 263/1/2 267/1/2
f 263/3/2 264/3/2 268/3/2
f 267/1/2 263/1/2 268/1/2
f 268/3/2 264/3/2 269/3/2
f 266/4/2 267/4/2 271/4/2
f 271/4/2 267/4/2 272/4/2
f 269/4/2 270/4/2 273/4/2
f 273/4/2 270/4/2 274/4/2
f 272/3/2 273/3/2 276/3/2
f 276/3/2 273/3/2 277/3/2
f 275/4/2 276/4/2 279/4/2
f 279/4/2 276/4/2 280/4/2
f 277/4/2 278/4/2 282/4/2
f 282/4/2 278/4/2 283/4/2
f 280/2/2 281/2/2 285/2/2
f 281/3/2 282/3/2 286/3/2
f 285/2/2 281/2/2 286/2/2
f 286/3/2 282/3/2 287/3/2
f 284/4/2 285/4/2 289/4/2
f 289/4/2 285/4/2 290/4/2
f 287/4/2 288/4/2 291/4/2
f 291/4/2 288/4/2 292/4/2
f 290/3/2 291/3/2 294/3/2
f 294/3/2 291/3/2 295/3/2
f 293/4/2 294/4/2 297/4/2
f 297/4/2 294/4/2 298/4/2
f 295/4/2 296/4/2 299/4/2
f 299/4/2 296/4/2 300/4/2
f 301/4/2 302/4/2 305/4/2
f 305/4/2 302/4/2 306/4/2
f 303/4/2 304/4/2 308/4/2
f 308/4/2 304/4/2 309/4/2
f 306/1/2 307/1/2 311/1/2
f 307/3/2 308/3/2 312/3/2
f 311/1/2 307/1/2 312/1/2
f 312/3/2 308/3/2 313/3/2
f 310/4/2 311/4/2 315/4/2
f 315/4/2 311/4/2 316/4/2
f 313/4/2 314/4/2 317/4/2
f 317/4/2 314/4/2 318/4/2
f 316/3/2 317/3/2 320/3/2
f 320/3/2 317/3/2 321/3/2
f 319/4/2 320/4/2 323/4/2
f 323/4/2 320/4/2 324/4/2
f 321/4/2 322/4/2 326/4/2
f 326/4/2 322/4/2 327/4/2
f 324/2/2 325/2/2 329/2/2
f 325/3/2 326/3/2 330/3/2
f 329/2/2 325/2/2 330/2/2
f 330/3/2 326/3/2 331/3/2
f 328/4/2 329/4/2 333/4/2
f 333/4/2 329/4/2 334/4/2
f 331/4/2 332/4/2 335/4/2
f 335/4/2 332/4/2 336/4/2
f 334/3/2 335/3/2 338/3/2
f 338/3/2 335/3/2 339/3/2
f 337/4/2 338/4/2 341/4/2
f 341/4/2 338/4/2 342/4/2
f 339/4/2 340/4/2 343/4/2
f 343/4/2 340/4/2 344/4/2
f 345/4/2 346/4/2 349/4/2
f 349/4/2 346/4/2 350/4/2
f 347/4/2 348/4/2 352/4/2
f 352/4/2 348/4/2 353/4/2
f 350/1/2 351/1/2 355/1/2
f 351/3/2 352/3/2 356/3/2
f 355/1/2 351/1/2 356/1/2
f 356/3/2 352/3/2 357/3/2
f 354/4/2 355/4/2 359/4/2
f 359/4/2 355/4/2 360/4/2
f 357/4/2 358/4/2 361/4/2
f 361/4/2 358/4/2 362/4/2
f 360/3/2 361/3/2 364/3/2
f 364/3/2 361/3/2 365/3/2
f 363/4/2 364/4/2 367/4/2
f 367/4/2 364/4/2 368/4/2
f 365/4/2 366/4/2 370/4/2
f 370/4/2 366/4/2 371/4/2
f 368/2/2 369/2/2 373/2/2
f 369/3/2 370/3/2 374/3/2
f 373/2/2 369/2/2 374/2/2
f 374/3/2 370/3/2 375/3/2
f 372/4/2 373/4/2 377/4/2
f 377/4/2 373/4/2 378/4/2
f 375/4/2 376/4/2 379/4/2
f 379/4/2 376/4/2 380/4/2
f 378/3/2 379/3/2 382/3/2
f 382/3/2 379/3/2 383/3/2
f 381/4/2 382/4/2 385/4/2
f 385/4/2 382/4/2 386/4/2
f 383/4/2 384/4/2 387/4/2
f 387/4/2 384/4/2 388/4/2
f 389/4/2 390/4/2 391/4/2
f 391/4/2 390/4/2 392/4/2
f 393/4/2 394/4/2 395/4/2
f 395/4/2 394/4/2 396/4/2
f 397/4/2 398/4/2 399/4/2
f 399/4/2 398/4/2 400/4/2
f 401/4/2 402/4/2 403/4/2
f 403/4/2 402/4/2 404/4/2
f 405/4/2 406/4/2 407/4/2
f 407/4/2 406/4/2 408/4/2
f 419/4/3 410/4/3 409/4/3
f 420/4/3 410/4/3 419/4/3
f 421/4/3 412/4/3 411/4/3
f 422/4/3 412/4/3 421/4/3
f 423/4/3 414/4/3 413/4/3
f 424/4/3 414/4/3 423/4/3
f 425/4/3 416/4/3 415/4/3
f 426/4/3 416/4/3 425/4/3
f 427/4/3 418/4/3 417/4/3
f 428/4/3 418/4/3 427/4/3
f 439/4/3 430/4/3 429/4/3
f 440/4/3 430/4/3 439/4/3
f 441/4/3 432/4/3 431/4/3
f 442/4/3 432/4/3 441/4/3
f 443/4/3 434/4/3 433/4/3
f 444/4/3 434/4/3 443/4/3
f 445/4/3 436/4/3 435/4/3
f 446/4/3 436/4/3 445/4/3
f 447/4/3 438/4/3 437/4/3
f 448/4/3 438/4/3 447/4/3
f 459/4/3 450/4/3 449/4/3
f 460/4/3 450/4/3 459/4/3
f 461/4/3 452/4/3 451/4/3
f 462/4/3 452/4/3 461/4/3
f 463/4/3 454/4/3 453/4/3
f 464/4/3 454/4/3 463/4/3
f 465/4/3 456/4/3 455/4/3
f 466/4/3 456/4/3 465/4/3
f 467/4/3 458/4/3 457/4/3
f 468/4/3 458/4/3 467/4/3
f 479/4/3 470/4/3 469/4/3
f 480/4/3 470/4/3 479/4/3
f 481/4/3 472/4/3 471/4/3
f 482/4/3 472/4/3 481/4/3
f 483/4/3 474/4/3 473/4/3
f 484/4/3 474/4/3 483/4/3
f 485/4/3 476/4/3 475/4/3
f 486/4/3 476/4/3 485/4/3
f 487/4/3 478/4/3 477/4/3
f 488/4/3 478/4/3 487/4/3
f 499/4/3 490/4/3 489/4/3
f 500/4/3 490/4/3 499/4/3
f 501/4/3 492/4/3 491/4/3
f 502/4/3 492/4/3 501/4/3
f 503/4/3 494/4/3 493/4/3
f 504/4/3 494/4/3 503/4/3
f 505/4/3 496/4/3 495/4/3
f 506/4/3 496/4/3 505/4/3
f 507/4/3 498/4/3 497/4/3
f 508/4/3 498/4/3 507/4/3
f 509/3/3 501/3/3 500/3/3
f 510/3/3 501/3/3 509/3/3
f 511/1/3 503/1/3 502/1/3
f 512/1/3 503/1/3 511/1/3
f 513/1/3 505/1/3 504/1/3
f 514/1/3 505/1/3 513/1/3
f 515/2/3 507/2/3 506/2/3
f 516/2/3 507/2/3 515/2/3
f 518/1/3 510/1/3 509/1/3
f 519/1/3 510/1/3 518/1/3
f 520/3/3 512/3/3 511/3/3
f 521/3/3 512/3/3 520/3/3
f 522/2/3 514/2/3 513/2/3
f 523/2/3 514/2/3 522/2/3
f 524/3/3 516/3/3 515/3/3
f 525/3/3 516/3/3 524/3/3
f 527/4/3 518/4/3 517/4/3
f 528/4/3 518/4/3 527/4/3
f 529/4/3 520/4/3 519/4/3
f 530/4/3 520/4/3 529/4/3
f 531/4/3 522/4/3 521/4/3
f 532/4/3 522/4/3 531/4/3
f 533/4/3 524/4/3 523/4/3
f 534/4/3 524/4/3 533/4/3
f 535/4/3 526/4/3 525/4/3
f 536/4/3 526/4/3 535/4/3
f 537/3/3 529/3/3 528/3/3
f 538/3/3 529/3/3 537/3/3
f 539/1/3 531/1/3 530/1/3
f 540/1/3 531/1/3 539/1/3
f 541/1/3 533/1/3 532/1/3
f 542/1/3 533/1/3 541/1/3
f 543/2/3 535/2/3 534/2/3
f 544/2/3 535/2/3 543/2/3
f 546/1/3 538/1/3 537/1/3
f 547/1/3 538/1/3 546/1/3
f 548/3/3 540/3/3 539/3/3
f 549/3/3 540/3/3 548/3/3
f 550/2/3 542/2/3 541/2/3
f 551/2/3 542/2/3 550/2/3
f 552/3/3 544/3/3 543/3/3
f 553/3/3 544/3/3 552/3/3
f 555/4/3 546/4/3 545/4/3
f 556/4/3 546/4/3 555/4/3
f 557/4/3 548/4/3 547/4/3
f 558/4/3 548/4/3 557/4/3
f 559/4/3 550/4/3 549/4/3
f 560/4/3 550/4/3 559/4/3
f 561/4/3 552/4/3 551/4/3
f 562/4/3 552/4/3 561/4/3
f 563/4/3 554/4/3 553/4/3
f 564/4/3 554/4/3 563/4/3
f 565/3/3 557/3/3 556/3/3
f 566/3/3 557/3/3 565/3/3
f 567/1/3 559/1/3 558/1/3
f 568/1/3 559/1/3 567/1/3
f 569/1/3 561/1/3 560/1/3
f 570/1/3 561/1/3 569/1/3
f 571/2/3 563/2/3 562/2/3
f 572/2/3 563/2/3 571/2/3
f 574/1/3 566/1/3 565/1/3
f 575/1/3 566/1/3 574/1/3
f 576/3/3 568/3/3 567/3/3
f 577/3/3 568/3/3 576/3/3
f 578/2/3 570/2/3 569/2/3
f 579/2/3 570/2/3 578/2/3
f 580/3/3 572/3/3 571/3/3
f 581/3/3 572/3/3 580/3/3
f 583/4/3 574/4/3 573/4/3
f 584/4/3 574/4/3 583/4/3
f 585/4/3 576/4/3 575/4/3
f 586/4/3 576/4/3 585/4/3
f 587/4/3 578/4/3 577/4/3
f 588/4/3 578/4/3 587/4/3
f 589/4/3 580/4/3 579/4/3
f 590/4/3 580/4/3 589/4/3
f 591/4/3 582/4/3 581/4/3
f 592/4/3 582/4/3 591/4/3
f 593/3/3 585/3/3 584/3/3
f 594/3/3 585/3/3 593/3/3
f 595/1/3 587/1/3 586/1/3
f 596/1/3 587/1/3 595/1/3
f 597/1/3 589/1/3 588/1/3
f 598/1/3 589/1/3 597/1/3
f 599/2/3 591/2/3 590/2/3
f 600/2/3 591/2/3 599/2/3
f 602/1/3 594/1/3 593/1/3
f 603/1/3 594/1/3 602/1/3
f 604/3/3 596/3/3 595/3/3
f 605/3/3 596/3/3 604/3/3
f 606/2/3 598/2/3 597/2/3
f 607/2/3 598/2/3 606/2/3
f 608/3/3 600/3/3 599/3/3
f 609/3/3 600/3/3 608/3/3
f 611/4/3 602/4/3 601/4/3
f 612/4/3 602/4/3 611/4/3
f 613/4/3 604/4/3 603/4/3
f 614/4/3 604/4/3 613/4/3
f 615/4/3 606/4/3 605/4/3
f 616/4/3 606/4/3 615/4/3
f 617/4/3 608/4/3 607/4/3
f 618/4/3 608/4/3 617/4/3
f 619/4/3 610/4/3 609/4/3
f 620/4/3 610/4/3 619/4/3
f 621/4/4 622/4/4 631/4/4
f 631/4/4 622/4/4 632/4/4
f 623/4/4 624/4/4 633/4/4
f 633/4/4 624/4/4 634/4/4
f 625/4/4 626/4/4 635/4/4
f 635/4/4 626/4/4 636/4/4
f 627/4/4 628/4/4 637/4/4
f 637/4/4 628/4/4 638/4/4
f 629/4/4 630/4/4 639/4/4
f 639/4/4 630/4/4 640/4/4
f 632/2/4 633/2/4 641/2/4
f 641/2/4 633/2/4 642/2/4
f 641/3/4 642/3/4 644/3/4
f 644/3/4 642/3/4 645/3/4
f 634/3/4 635/3/4 646/3/4
f 646/3/4 635/3/4 647/3/4
f 636/3/4 637/3/4 648/3/4
f 648/3/4 637/3/4 649/3/4
f 638/3/4 639/3/4 650/3/4
f 650/3/4 639/3/4 651/3/4
f 643/4/4 644/4/4 653/4/4
f 653/4/4 644/4/4 654/4/4
f 645/4/4 646/4/4 655/4/4
f 655/4/4 646/4/4 656/4/4
f 647/4/4 648/4/4 657/4/4
f 657/4/4 648/4/4 658/4/4
f 649/4/4 650/4/4 659/4/4
f 659/4/4 650/4/4 660/4/4
f 651/4/4 652/4/4 661/4/4
f 661/4/4 652/4/4 662/4/4
f 654/2/4 655/2/4 663/2/4
f 663/2/4 655/2/4 664/2/4
f 663/3/4 664/3/4 666/3/4
f 666/3/4 664/3/4 667/3/4
f 656/3/4 657/3/4 668/3/4
f 668/3/4 657/3/4 669/3/4
f 658/3/4 659/3/4 670/3/4
f 670/3/4 659/3/4 671/3/4
f 660/3/4 661/3/4 672/3/4
f 672/3/4 661/3/4 673/3/4
f 665/4/4 666/4/4 675/4/4
f 675/4/4 666/4/4 676/4/4
f 667/4/4 668/4/4 677/4/4
f 677/4/4 668/4/4 678/4/4
f 669/4/4 670/4/4 679/4/4
f 679/4/4 670/4/4 680/4/4
f 671/4/4 672/4/4 681/4/4
f 681/4/4 672/4/4 682/4/4
f 673/4/4 674/4/4 683/4/4
f 683/4/4 674/4/4 684/4/4
f 676/2/4 677/2/4 685/2/4
f 685/2/4 677/2/4 686/2/4
f 685/3/4 686/3/4 688/3/4
f 688/3/4 686/3/4 689/3/4
f 678/3/4 679/3/4 690/3/4
f 690/3/4 679/3/4 691/3/4
f 680/3/4 681/3/4 692/3/4
f 692/3/4 681/3/4 693/3/4
f 682/3/4 683/3/4 694/3/4
f 694/3/4 683/3/4 695/3/4
f 687/4/4 688/4/4 697/4/4
f 697/4/4 688/4/4 698/4/4
f 689/4/4 690/4/4 699/4/4
f 699/4/4 690/4/4 700/4/4
f 691/4/4 692/4/4 701/4/4
f 701/4/4 692/4/4 702/4/4
f 693/4/4 694/4/4 703/4/4
f 703/4/4 694/4/4 704/4/4
f 695/4/4 696/4/4 705/4/4
f 705/4/4 696/4/4 706/4/4
f 698/2/4 699/2/4 707/2/4
f 707/2/4 699/2/4 708/2/4
f 707/3/4 708/3/4 710/3/4
f 710/3/4 708/3/4 711/3/4
f 700/3/4 701/3/4 712/3/4
f 712/3/4 701/3/4 713/3/4
f 702/3/4 703/3/4 714/3/4
f 714/3/4 703/3/4 715/3/4
f 704/3/4 705/3/4 716/3/4
f 716/3/4 705/3/4 717/3/4
f 709/4/4 710/4/4 719/4/4
f 719/4/4 710/4/4 720/4/4
f 711/4/4 712/4/4 721/4/4
f 721/4/4 712/4/4 722/4/4
f 713/4/4 714/4/4 723/4/4
f 723/4/4 714/4/4 724/4/4
f 715/4/4 716/4/4 725/4/4
f 725/4/4 716/4/4 726/4/4
f 717/4/4 718/4/4 727/4/4
f 727/4/4 718/4/4 728/4/4
f 729/4/4 730/4/4 739/4/4
f 739/4/4 730/4/4 740/4/4
f 731/4/4 732/4/4 741/4/4
f 741/4/4 732/4/4 742/4/4
f 733/4/4 734/4/4 743/4/4
f 743/4/4 734/4/4 744/4/4
f 735/4/4 736/4/4 745/4/4
f 745/4/4 736/4/4 746/4/4
f 737/4/4 738/4/4 747/4/4
f 747/4/4 738/4/4 748/4/4
f 749/4/4 750/4/4 759/4/4
f 759/4/4 750/4/4 760/4/4
f 751/4/4 752/4/4 761/4/4
f 761/4/4 752/4/4 762/4/4
f 753/4/4 754/4/4 763/4/4
f 763/4/4 754/4/4 764/4/4
f 755/4/4 756/4/4 765/4/4
f 765/4/4 756/4/4 766/4/4
f 757/4/4 758/4/4 767/4/4
f 767/4/4 758/4/4 768/4/4
f 769/4/4 770/4/4 779/4/4
f 779/4/4 770/4/4 780/4/4
f 771/4/4 772/4/4 781/4/4
f 781/4/4 772/4/4 782/4/4
f 773/4/4 774/4/4 783/4/4
f 783/4/4 774/4/4 784/4/4
f 775/4/4 776/4/4 785/4/4
f 785/4/4 776/4/4 786/4/4
f 777/4/4 778/4/4 787/4/4
f 787/4/4 778/4/4 788/4/4
f 789/4/4 790/4/4 799/4/4
f 799/4/4 790/4/4 800/4/4
f 791/4/4 792/4/4 801/4/4
f 801/4/4 792/4/4 802/4/4
f 793/4/4 794/4/4 803/4/4
f 803/4/4 794/4/4 804/4/4
f 795/4/4 796/4/4 805/4/4
f 805/4/4 796/4/4 806/4/4
f 797/4/4 798/4/4 807/4/4
f 807/4/4 798/4/4 808/4/4
f 818/4/5 810/4/5 809/4/5
f 819/4/5 810/4/5 818/4/5
f 820/4/5 812/4/5 811/4/5
f 821/4/5 812/4/5 820/4/5
f 822/4/5 814/4/5 813/4/5
f 823/4/5 814/4/5 822/4/5
f 824/4/5 816/4/5 815/4/5
f 825/4/5 816/4/5 824/4/5
f 827/4/5 823/4/5 822/4/5
f 827/4/5 826/4/5 825/4/5
f 827/4/5 825/4/5 824/4/5
f 827/4/5 824/4/5 823/4/5
f 827/4/5 819/4/5 818/4/5
f 827/4/5 822/4/5 821/4/5
f 827/4/5 821/4/5 820/4/5
f 827/4/5 820/4/5 819/4/5
f 827/4/5 818/4/5 817/4/5
f 828/4/5 826/4/5 827/4/5
f 829/4/5 826/4/5 828/4/5
f 830/4/5 826/4/5 829/4/5
f 831/4/5 826/4/5 830/4/5
f 832/4/5 826/4/5 831/4/5
f 833/4/5 826/4/5 832/4/5
f 834/4/5 826/4/5 833/4/5
f 835/4/5 826/4/5 834/4/5
f 836/4/5 826/4/5 835/4/5
f 837/4/5 829/4/5 828/4/5
f 838/4/5 829/4/5 837/4/5
f 839/4/5 831/4/5 830/4/5
f 840/4/5 831/4/5 839/4/5
f 841/4/5 833/4/5 832/4/5
f 842/4/5 833/4/5 841/4/5
f 843/4/5 835/4/5 834/4/5
f 844/4/5 835/4/5 843/4/5
f 854/4/5 846/4/5 845/4/5
f 855/4/5 846/4/5 854/4/5
f 856/4/5 846/4/5 855/4/5
f 857/4/5 848/4/5 847/4/5
f 858/4/5 848/4/5 857/4/5
f 859/4/5 848/4/5 858/4/5
f 860/4/5 850/4/5 849/4/5
f 861/4/5 850/4/5 860/4/5
f 862/4/5 850/4/5 861/4/5
f 863/4/5 852/4/5 851/4/5
f 864/4/5 852/4/5 863/4/5
f 865/4/5 852/4/5 864/4/5
f 867/4/5 854/4/5 853/4/5
f 868/4/5 857/4/5 856/4/5
f 869/4/5 857/4/5 868/4/5
f 870/4/5 860/4/5 859/4/5
f 871/4/5 860/4/5 870/4/5
f 872/4/5 863/4/5 862/4/5
f 873/4/5 863/4/5 872/4/5
f 874/4/5 866/4/5 865/4/5
f 875/4/5 867/4/5 853/4/5
f 876/4/5 867/4/5 875/4/5
f 878/4/5 869/4/5 868/4/5
f 879/4/5 869/4/5 878/4/5
f 881/4/5 871/4/5 870/4/5
f 882/4/5 871/4/5 881/4/5
f 884/4/5 873/4/5 872/4/5
f 885/4/5 873/4/5 884/4/5
f 887/4/5 866/4/5 874/4/5
f 888/4/5 866/4/5 887/4/5
f 889/4/5 877/4/5 876/4/5
f 889/4/5 878/4/5 877/4/5
f 890/4/5 878/4/5 889/4/5
f 891/4/5 880/4/5 879/4/5
f 891/4/5 881/4/5 880/4/5
f 892/4/5 881/4/5 891/4/5
f 893/4/5 883/4/5 882/4/5
f 893/4/5 884/4/5 883/4/5
f 894/4/5 884/4/5 893/4/5
f 895/4/5 886/4/5 885/4/5
f 895/4/5 887/4/5 886/4/5
f 896/4/5 887/4/5 895/4/5
f 906/4/5 898/4/5 897/4/5
f 907/4/5 898/4/5 906/4/5
f 908/4/5 898/4/5 907/4/5
f 909/4/5 900/4/5 899/4/5
f 910/4/5 900/4/5 909/4/5
f 911/4/5 900/4/5 910/4/5
f 912/4/5 902/4/5 901/4/5
f 913/4/5 902/4/5 912/4/5
f 914/4/5 902/4/5 913/4/5
f 915/4/5 904/4/5 903/4/5
f 916/4/5 904/4/5 915/4/5
f 917/4/5 904/4/5 916/4/5
f 919/4/5 906/4/5 905/4/5
f 920/4/5 909/4/5 908/4/5
f 921/4/5 912/4/5 911/4/5
f 922/4/5 915/4/5 914/4/5
f 923/4/5 919/4/5 905/4/5
f 924/4/5 919/4/5 923/4/5
f 925/4/5 920/4/5 908/4/5
f 926/4/5 920/4/5 925/4/5
f 927/4/5 921/4/5 911/4/5
f 928/4/5 921/4/5 927/4/5
f 929/4/5 922/4/5 914/4/5
f 930/4/5 922/4/5 929/4/5
f 931/4/5 918/4/5 917/4/5
f 932/4/5 918/4/5 931/4/5
f 933/4/5 925/4/5 924/4/5
f 934/4/5 925/4/5 933/4/5
f 935/4/5 927/4/5 926/4/5
f 936/4/5 927/4/5 935/4/5
f 937/4/5 929/4/5 928/4/5
f 938/4/5 929/4/5 937/4/5
f 939/4/5 931/4/5 930/4/5
f 940/4/5 931/4/5 939/4/5
f 950/4/5 942/4/5 941/4/5
f 951/4/5 942/4/5 950/4/5
f 952/4/5 942/4/5 951/4/5
f 953/4/5 944/4/5 943/4/5
f 954/4/5 944/4/5 953/4/5
f 955/4/5 944/4/5 954/4/5
f 956/4/5 946/4/5 945/4/5
f 957/4/5 946/4/5 956/4/5
f 958/4/5 946/4/5 957/4/5
f 959/4/5 948/4/5 947/4/5
f 960/4/5 948/4/5 959/4/5
f 961/4/5 948/4/5 960/4/5
f 963/4/5 950/4/5 949/4/5
f 964/4/5 953/4/5 952/4/5
f 965/4/5 953/4/5 964/4/5
f 966/4/5 956/4/5 955/4/5
f 967/4/5 956/4/5 966/4/5
f 968/4/5 959/4/5 958/4/5
f 969/4/5 959/4/5 968/4/5
f 970/4/5 962/4/5 961/4/5
f 971/4/5 963/4/5 949/4/5
f 972/4/5 963/4/5 971/4/5
f 973/4/5 965/4/5 964/4/5
f 974/4/5 965/4/5 973/4/5
f 975/4/5 967/4/5 966/4/5
f 976/4/5 967/4/5 975/4/5
f 977/4/5 969/4/5 968/4/5
f 978/4/5 969/4/5 977/4/5
f 979/4/5 962/4/5 970/4/5
f 980/4/5 962/4/5 979/4/5
f 981/4/5 973/4/5 972/4/5
f 982/4/5 973/4/5 981/4/5
f 983/4/5 975/4/5 974/4/5
f 984/4/5 975/4/5 983/4/5
f 985/4/5 977/4/5 976/4/5
f 986/4/5 977/4/5 985/4/5
f 987/4/5 979/4/5 978/4/5
f 988/4/5 979/4/5 987/4/5
f 998/4/5 990/4/5 989/4/5
f 999/4/5 990/4/5 998/4/5
f 1000/4/5 990/4/5 999/4/5
f 1001/4/5 992/4/5 991/4/5
f 1002/4/5 992/4/5 1001/4/5
f 1003/4/5 992/4/5 1002/4/5
f 1004/4/5 994/4/5 993/4/5
f 1005/4/5 994/4/5 1004/4/5
f 1006/4/5 994/4/5 1005/4/5
f 1007/4/5 996/4/5 995/4/5
f 1008/4/5 996/4/5 1007/4/5
f 1009/4/5 996/4/5 1008/4/5
f 1011/4/5 998/4/5 997/4/5
f 1012/4/5 1001/4/5 1000/4/5
f 1013/4/5 1004/4/5 1003/4/5
f 1014/4/5 1007/4/5 1006/4/5
f 1015/4/5 1011/4/5 997/4/5
f 1016/4/5 1011/4/5 1015/4/5
f 1017/4/5 1012/4/5 1000/4/5
f 1018/4/5 1012/4/5 1017/4/5
f 1019/4/5 1013/4/5 1003/4/5
f 1020/4/5 1013/4/5 1019/4/5
f 1021/4/5 1014/4/5 1006/4/5
f 1022/4/5 1014/4/5 1021/4/5
f 1023/4/5 1010/4/5 1009/4/5
f 1024/4/5 1010/4/5 1023/4/5
f 1025/4/5 1017/4/5 1016/4/5
f 1026/4/5 1017/4/5 1025/4/5
f 1027/4/5 1019/4/5 1018/4/5
f 1028/4/5 1019/4/5 1027/4/5
f 1029/4/5 1021/4/5 1020/4/5
f 1030/4/5 1021/4/5 1029/4/5
f 1031/4/5 1023/4/5 1022/4/5
f 1032/4/5 1023/4/5 1031/4/5
f 1033/4/6 1034/4/6 1042/4/6
f 1042/4/6 1034/4/6 1043/4/6
f 1043/4/6 1034/4/6 1044/4/6
f 1035/4/6 1036/4/6 1045/4/6
f 1045/4/6 1036/4/6 1046/4/6
f 1046/4/6 1036/4/6 1047/4/6
f 1037/4/6 1038/4/6 1048/4/6
f 1048/4/6 1038/4/6 1049/4/6
f 1049/4/6 1038/4/6 1050/4/6
f 1039/4/6 1040/4/6 1051/4/6
f 1051/4/6 1040/4/6 1052/4/6
f 1052/4/6 1040/4/6 1053/4/6
f 1041/4/6 1042/4/6 1055/4/6
f 1044/4/6 1045/4/6 1056/4/6
f 1056/4/6 1045/4/6 1057/4/6
f 1047/4/6 1048/4/6 1058/4/6
f 1058/4/6 1048/4/6 1059/4/6
f 1050/4/6 1051/4/6 1060/4/6
f 1060/4/6 1051/4/6 1061/4/6
f 1053/4/6 1054/4/6 1062/4/6
f 1041/4/6 1055/4/6 1063/4/6
f 1063/4/6 1055/4/6 1064/4/6
f 1056/4/6 1057/4/6 1066/4/6
f 1066/4/6 1057/4/6 1067/4/6
f 1058/4/6 1059/4/6 1069/4/6
f 1069/4/6 1059/4/6 1070/4/6
f 1060/4/6 1061/4/6 1072/4/6
f 1072/4/6 1061/4/6 1073/4/6
f 1062/4/6 1054/4/6 1075/4/6
f 1075/4/6 1054/4/6 1076/4/6
f 1064/4/6 1065/4/6 1077/4/6
f 1065/4/6 1066/4/6 1077/4/6
f 1077/4/6 1066/4/6 1078/4/6
f 1067/4/6 1068/4/6 1079/4/6
f 1068/4/6 1069/4/6 1079/4/6
f 1079/4/6 1069/4/6 1080/4/6
f 1070/4/6 1071/4/6 1081/4/6
f 1071/4/6 1072/4/6 1081/4/6
f 1081/4/6 1072/4/6 1082/4/6
f 1073/4/6 1074/4/6 1083/4/6
f 1074/4/6 1075/4/6 1083/4/6
f 1083/4/6 1075/4/6 1084/4/6
f 1085/4/6 1086/4/6 1094/4/6
f 1094/4/6 1086/4/6 1095/4/6
f 1095/4/6 1086/4/6 1096/4/6
f 1087/4/6 1088/4/6 1097/4/6
f 1097/4/6 1088/4/6 1098/4/6
f 1098/4/6 1088/4/6 1099/4/6
f 1089/4/6 1090/4/6 1100/4/6
f 1100/4/6 1090/4/6 1101/4/6
f 1101/4/6 1090/4/6 1102/4/6
f 1091/4/6 1092/4/6 1103/4/6
f 1103/4/6 1092/4/6 1104/4/6
f 1104/4/6 1092/4/6 1105/4/6
f 1093/4/6 1094/4/6 1107/4/6
f 1096/4/6 1097/4/6 1108/4/6
f 1099/4/6 1100/4/6 1109/4/6
f 1102/4/6 1103/4/6 1110/4/6
f 1093/4/6 1107/4/6 1111/4/6
f 1111/4/6 1107/4/6 1112/4/6
f 1096/4/6 1108/4/6 1113/4/6
f 1113/4/6 1108/4/6 1114/4/6
f 1099/4/6 1109/4/6 1115/4/6
f 1115/4/6 1109/4/6 1116/4/6
f 1102/4/6 1110/4/6 1117/4/6
f 1117/4/6 1110/4/6 1118/4/6
f 1105/4/6 1106/4/6 1119/4/6
f 1119/4/6 1106/4/6 1120/4/6
f 1112/4/6 1113/4/6 1121/4/6
f 1121/4/6 1113/4/6 1122/4/6
f 1114/4/6 1115/4/6 1123/4/6
f 1123/4/6 1115/4/6 1124/4/6
f 1116/4/6 1117/4/6 1125/4/6
f 1125/4/6 1117/4/6 1126/4/6
f 1118/4/6 1119/4/6 1127/4/6
f 1127/4/6 1119/4/6 1128/4/6
f 1129/4/6 1130/4/6 1138/4/6
f 1138/4/6 1130/4/6 1139/4/6
f 1139/4/6 1130/4/6 1140/4/6
f 1131/4/6 1132/4/6 1141/4/6
f 1141/4/6 1132/4/6 1142/4/6
f 1142/4/6 1132/4/6 1143/4/6
f 1133/4/6 1134/4/6 1144/4/6
f 1144/4/6 1134/4/6 1145/4/6
f 1145/4/6 1134/4/6 1146/4/6
f 1135/4/6 1136/4/6 1147/4/6
f 1147/4/6 1136/4/6 1148/4/6
f 1148/4/6 1136/4/6 1149/4/6
f 1137/4/6 1138/4/6 1151/4/6
f 1140/4/6 1141/4/6 1152/4/6
f 1152/4/6 1141/4/6 1153/4/6
f 1143/4/6 1144/4/6 1154/4/6
f 1154/4/6 1144/4/6 1155/4/6
f 1146/4/6 1147/4/6 1156/4/6
f 1156/4/6 1147/4/6 1157/4/6
f 1149/4/6 1150/4/6 1158/4/6
f 1137/4/6 1151/4/6 1159/4/6
f 1159/4/6 1151/4/6 1160/4/6
f 1152/4/6 1153/4/6 1161/4/6
f 1161/4/6 1153/4/6 1162/4/6
f 1154/4/6 1155/4/6 1163/4/6
f 1163/4/6 1155/4/6 1164/4/6
f 1156/4/6 1157/4/6 1165/4/6
f 1165/4/6 1157/4/6 1166/4/6
f 1158/4/6 1150/4/6 1167/4/6
f 1167/4/6 1150/4/6 1168/4/6
f 1160/4/6 1161/4/6 1169/4/6
f 1169/4/6 1161/4/6 1170/4/6
f 1162/4/6 1163/4/6 1171/4/6
f 1171/4/6 1163/4/6 1172/4/6
f 1164/4/6 1165/4/6 1173/4/6
f 1173/4/6 1165/4/6 1174/4/6
f 1166/4/6 1167/4/6 1175/4/6
f 1175/4/6 1167/4/6 1176/4/6
f 1177/4/6 1178/4/6 1186/4/6
f 1186/4/6 1178/4/6 1187/4/6
f 1187/4/6 1178/4/6 1188/4/6
f 1179/4/6 1180/4/6 1189/4/6
f 1189/4/6 1180/4/6 1190/4/6
f 1190/4/6 1180/4/6 1191/4/6
f 1181/4/6 1182/4/6 1192/4/6
f 1192/4/6 1182/4/6 1193/4/6
f 1193/4/6 1182/4/6 1194/4/6
f 1183/4/6 1184/4/6 1195/4/6
f 1195/4/6 1184/4/6 1196/4/6
f 1196/4/6 1184/4/6 1197/4/6
f 1185/4/6 1186/4/6 1199/4/6
f 1188/4/6 1189/4/6 1200/4/6
f 1191/4/6 1192/4/6 1201/4/6
f 1194/4/6 1195/4/6 1202/4/6
f 1185/4/6 1199/4/6 1203/4/6
f 1203/4/6 1199/4/6 1204/4/6
f 1188/4/6 1200/4/6 1205/4/6
f 1205/4/6 1200/4/6 1206/4/6
f 1191/4/6 1201/4/6 1207/4/6
f 1207/4/6 1201/4/6 1208/4/6
f 1194/4/6 1202/4/6 1209/4/6
f 1209/4/6 1202/4/6 1210/4/6
f 1197/4/6 1198/4/6 1211/4/6
f 1211/4/6 1198/4/6 1212/4/6
f 1204/4/6 1205/4/6 1213/4/6
f 1213/4/6 1205/4/6 1214/4/6
f 1206/4/6 1207/4/6 1215/4/6
f 1215/4/6 1207/4/6 1216/4/6
f 1208/4/6 1209/4/6 1217/4/6
f 1217/4/6 1209/4/6 1218/4/6
f 1210/4/6 1211/4/6 1219/4/6
f 1219/4/6 1211/4/6 1220/4/6
f 1221/4/6 1222/4/6 1230/4/6
f 1230/4/6 1222/4/6 1231/4/6
f 1223/4/6 1224/4/6 1232/4/6
f 1232/4/6 1224/4/6 1233/4/6
f 1225/4/6 1226/4/6 1234/4/6
f 1234/4/6 1226/4/6 1235/4/6
f 1227/4/6 1228/4/6 1236/4/6
f 1236/4/6 1228/4/6 1237/4/6
f 1234/4/6 1235/4/6 1239/4/6
f 1237/4/6 1238/4/6 1239/4/6
f 1236/4/6 1237/4/6 1239/4/6
f 1235/4/6 1236/4/6 1239/4/6
f 1230/4/6 1231/4/6 1239/4/6
f 1233/4/6 1234/4/6 1239/4/6
f 1232/4/6 1233/4/6 1239/4/6
f 1231/4/6 1232/4/6 1239/4/6
f 1229/4/6 1230/4/6 1239/4/6
f 1239/4/6 1238/4/6 1240/4/6
f 1240/4/6 1238/4/6 1241/4/6
f 1241/4/6 1238/4/6 1242/4/6
f 1242/4/6 1238/4/6 1243/4/6
f 1243/4/6 1238/4/6 1244/4/6
f 1244/4/6 1238/4/6 1245/4/6
f 1245/4/6 1238/4/6 1246/4/6
f 1246/4/6 1238/4/6 1247/4/6
f 1247/4/6 1238/4/6 1248/4/6
f 1240/4/6 1241/4/6 1249/4/6
f 1249/4/6 1241/4/6 1250/4/6
f 1242/4/6 1243/4/6 1251/4/6
f 1251/4/6 1243/4/6 1252/4/6
f 1244/4/6 1245/4/6 1253/4/6
f 1253/4/6 1245/4/6 1254/4/6
f 1246/4/6 1247/4/6 1255/4/6
f 1255/4/6 1247/4/6 1256/4/6
