# MagicaVoxel @ Ephtracy

# group
o 

# material
mtllib Robot.vox-14.mtl
usemtl palette

# normals
vn -1 0 0
vn 1 0 0
vn 0 0 1
vn 0 0 -1
vn 0 -1 0
vn 0 1 0

# texcoords
vt 0.939453 0.5
vt 0.970703 0.5
vt 0.982422 0.5

# verts
v -8.2 0 0.4
v -8.2 0 0.3
v -8.2 0.4 0.4
v -8.2 0.4 0.3
v -8.2 1.2 0.4
v -8.2 1.2 0.3
v -8.2 1.6 0.4
v -8.2 1.6 0.3
v -8.1 0.1 0.5
v -8.1 0.1 0.4
v -8.1 0.3 0.5
v -8.1 0.3 0.4
v -8.1 0.4 0.4
v -8.1 1.2 0.4
v -8.1 1.3 0.5
v -8.1 1.3 0.4
v -8.1 1.5 0.5
v -8.1 1.5 0.4
v -6.7 0.1 0.5
v -6.7 0.1 0.4
v -6.7 0.3 0.5
v -6.7 0.3 0.4
v -6.7 0.4 0.4
v -6.7 1.2 0.4
v -6.7 1.3 0.5
v -6.7 1.3 0.4
v -6.7 1.5 0.5
v -6.7 1.5 0.4
v -6.6 0 0.4
v -6.6 0 0.3
v -6.6 0.4 0.4
v -6.6 0.4 0.3
v -6.6 1.2 0.4
v -6.6 1.2 0.3
v -6.6 1.6 0.4
v -6.6 1.6 0.3
v -8.1 0.1 0.5
v -8.1 0.3 0.5
v -8.1 1.3 0.5
v -8.1 1.5 0.5
v -8 0.2 0.5
v -8 0.3 0.5
v -8 0.4 0.5
v -8 0.6 0.5
v -8 0.7 0.5
v -8 0.9 0.5
v -8 1 0.5
v -8 1.2 0.5
v -8 1.3 0.5
v -8 1.4 0.5
v -7.9 0.1 0.5
v -7.9 0.2 0.5
v -7.9 1.4 0.5
v -7.9 1.5 0.5
v -7.5 0.6 0.5
v -7.5 0.7 0.5
v -7.5 0.9 0.5
v -7.5 1 0.5
v -7.3 0.6 0.5
v -7.3 0.7 0.5
v -7.3 0.9 0.5
v -7.3 1 0.5
v -6.9 0.1 0.5
v -6.9 0.2 0.5
v -6.9 1.4 0.5
v -6.9 1.5 0.5
v -6.8 0.2 0.5
v -6.8 0.3 0.5
v -6.8 0.4 0.5
v -6.8 0.6 0.5
v -6.8 0.7 0.5
v -6.8 0.9 0.5
v -6.8 1 0.5
v -6.8 1.2 0.5
v -6.8 1.3 0.5
v -6.8 1.4 0.5
v -6.7 0.1 0.5
v -6.7 0.3 0.5
v -6.7 1.3 0.5
v -6.7 1.5 0.5
v -8.2 0 0.4
v -8.2 0.4 0.4
v -8.2 1.2 0.4
v -8.2 1.6 0.4
v -8.1 0.1 0.4
v -8.1 0.3 0.4
v -8.1 0.4 0.4
v -8.1 1.2 0.4
v -8.1 1.3 0.4
v -8.1 1.5 0.4
v -7.9 0.1 0.4
v -7.9 1.5 0.4
v -7.8 0 0.4
v -7.8 0.1 0.4
v -7.8 1.5 0.4
v -7.8 1.6 0.4
v -7 0 0.4
v -7 0.1 0.4
v -7 1.5 0.4
v -7 1.6 0.4
v -6.9 0.1 0.4
v -6.9 1.5 0.4
v -6.7 0.1 0.4
v -6.7 0.3 0.4
v -6.7 0.4 0.4
v -6.7 1.2 0.4
v -6.7 1.3 0.4
v -6.7 1.5 0.4
v -6.6 0 0.4
v -6.6 0.4 0.4
v -6.6 1.2 0.4
v -6.6 1.6 0.4
v -8.2 0 0.3
v -8.2 0.4 0.3
v -8.2 1.2 0.3
v -8.2 1.6 0.3
v -8.1 0.1 0.3
v -8.1 0.4 0.3
v -8.1 0.6 0.3
v -8.1 1 0.3
v -8.1 1.2 0.3
v -8.1 1.5 0.3
v -8 0.6 0.3
v -8 1 0.3
v -7.9 0.2 0.3
v -7.9 1.4 0.3
v -7.8 0 0.3
v -7.8 0.1 0.3
v -7.8 0.2 0.3
v -7.8 1.4 0.3
v -7.8 1.5 0.3
v -7.8 1.6 0.3
v -7.6 0.2 0.3
v -7.6 1.4 0.3
v -7.5 0.2 0.3
v -7.5 1.4 0.3
v -7.3 0.2 0.3
v -7.3 1.4 0.3
v -7.2 0.2 0.3
v -7.2 1.4 0.3
v -7 0 0.3
v -7 0.1 0.3
v -7 0.2 0.3
v -7 1.4 0.3
v -7 1.5 0.3
v -7 1.6 0.3
v -6.9 0.2 0.3
v -6.9 1.4 0.3
v -6.8 0.6 0.3
v -6.8 1 0.3
v -6.7 0.1 0.3
v -6.7 0.4 0.3
v -6.7 0.6 0.3
v -6.7 1 0.3
v -6.7 1.2 0.3
v -6.7 1.5 0.3
v -6.6 0 0.3
v -6.6 0.4 0.3
v -6.6 1.2 0.3
v -6.6 1.6 0.3
v -8.2 0 0.4
v -7.8 0 0.4
v -7 0 0.4
v -6.6 0 0.4
v -8.2 0 0.3
v -7.8 0 0.3
v -7 0 0.3
v -6.6 0 0.3
v -8.1 0.1 0.5
v -7.9 0.1 0.5
v -6.9 0.1 0.5
v -6.7 0.1 0.5
v -8.1 0.1 0.4
v -7.9 0.1 0.4
v -7.8 0.1 0.4
v -7 0.1 0.4
v -6.9 0.1 0.4
v -6.7 0.1 0.4
v -8.1 1.5 0.5
v -7.9 1.5 0.5
v -6.9 1.5 0.5
v -6.7 1.5 0.5
v -8.1 1.5 0.4
v -7.9 1.5 0.4
v -7.8 1.5 0.4
v -7 1.5 0.4
v -6.9 1.5 0.4
v -6.7 1.5 0.4
v -8.2 1.6 0.4
v -7.8 1.6 0.4
v -7 1.6 0.4
v -6.6 1.6 0.4
v -8.2 1.6 0.3
v -7.8 1.6 0.3
v -7 1.6 0.3
v -6.6 1.6 0.3

# faces
f 3/1/1 2/1/1 1/1/1
f 4/1/1 2/1/1 3/1/1
f 5/2/1 4/2/1 3/2/1
f 6/2/1 4/2/1 5/2/1
f 7/1/1 6/1/1 5/1/1
f 8/1/1 6/1/1 7/1/1
f 11/1/1 10/1/1 9/1/1
f 12/1/1 10/1/1 11/1/1
f 13/2/1 12/2/1 11/2/1
f 14/2/1 13/2/1 11/2/1
f 15/2/1 14/2/1 11/2/1
f 16/2/1 14/2/1 15/2/1
f 17/1/1 16/1/1 15/1/1
f 18/1/1 16/1/1 17/1/1
f 19/1/2 20/1/2 21/1/2
f 21/1/2 20/1/2 22/1/2
f 21/2/2 22/2/2 23/2/2
f 21/2/2 23/2/2 24/2/2
f 21/2/2 24/2/2 25/2/2
f 25/2/2 24/2/2 26/2/2
f 25/1/2 26/1/2 27/1/2
f 27/1/2 26/1/2 28/1/2
f 29/1/2 30/1/2 31/1/2
f 31/1/2 30/1/2 32/1/2
f 31/2/2 32/2/2 33/2/2
f 33/2/2 32/2/2 34/2/2
f 33/1/2 34/1/2 35/1/2
f 35/1/2 34/1/2 36/1/2
f 41/1/3 38/1/3 37/1/3
f 42/2/3 39/2/3 38/2/3
f 42/1/3 38/1/3 41/1/3
f 43/2/3 39/2/3 42/2/3
f 44/2/3 39/2/3 43/2/3
f 45/2/3 39/2/3 44/2/3
f 46/2/3 39/2/3 45/2/3
f 47/2/3 39/2/3 46/2/3
f 48/2/3 39/2/3 47/2/3
f 49/1/3 40/1/3 39/1/3
f 49/2/3 39/2/3 48/2/3
f 50/1/3 40/1/3 49/1/3
f 51/1/3 41/1/3 37/1/3
f 52/2/3 42/2/3 41/2/3
f 52/1/3 41/1/3 51/1/3
f 53/1/3 40/1/3 50/1/3
f 53/2/3 50/2/3 49/2/3
f 54/1/3 40/1/3 53/1/3
f 55/2/3 44/2/3 43/2/3
f 55/3/3 45/3/3 44/3/3
f 56/2/3 46/2/3 45/2/3
f 56/3/3 45/3/3 55/3/3
f 57/3/3 47/3/3 46/3/3
f 57/2/3 46/2/3 56/2/3
f 58/2/3 48/2/3 47/2/3
f 58/3/3 47/3/3 57/3/3
f 59/2/3 57/2/3 56/2/3
f 59/2/3 55/2/3 43/2/3
f 59/2/3 58/2/3 57/2/3
f 59/2/3 56/2/3 55/2/3
f 60/2/3 58/2/3 59/2/3
f 61/2/3 58/2/3 60/2/3
f 62/2/3 48/2/3 58/2/3
f 62/2/3 58/2/3 61/2/3
f 63/2/3 52/2/3 51/2/3
f 64/2/3 42/2/3 52/2/3
f 64/2/3 52/2/3 63/2/3
f 65/2/3 54/2/3 53/2/3
f 65/2/3 53/2/3 49/2/3
f 66/2/3 54/2/3 65/2/3
f 67/2/3 42/2/3 64/2/3
f 67/1/3 64/1/3 63/1/3
f 68/3/3 43/3/3 42/3/3
f 68/2/3 42/2/3 67/2/3
f 69/2/3 59/2/3 43/2/3
f 69/3/3 43/3/3 68/3/3
f 70/3/3 60/3/3 59/3/3
f 70/2/3 59/2/3 69/2/3
f 71/2/3 61/2/3 60/2/3
f 71/3/3 60/3/3 70/3/3
f 72/3/3 62/3/3 61/3/3
f 72/2/3 61/2/3 71/2/3
f 73/2/3 48/2/3 62/2/3
f 73/3/3 62/3/3 72/3/3
f 74/3/3 49/3/3 48/3/3
f 74/2/3 48/2/3 73/2/3
f 75/2/3 65/2/3 49/2/3
f 75/3/3 49/3/3 74/3/3
f 76/1/3 66/1/3 65/1/3
f 76/2/3 65/2/3 75/2/3
f 77/1/3 67/1/3 63/1/3
f 77/1/3 68/1/3 67/1/3
f 78/2/3 70/2/3 69/2/3
f 78/1/3 68/1/3 77/1/3
f 78/2/3 75/2/3 74/2/3
f 78/2/3 74/2/3 73/2/3
f 78/2/3 71/2/3 70/2/3
f 78/2/3 69/2/3 68/2/3
f 78/2/3 72/2/3 71/2/3
f 78/2/3 73/2/3 72/2/3
f 79/1/3 76/1/3 75/1/3
f 79/2/3 75/2/3 78/2/3
f 80/1/3 66/1/3 76/1/3
f 80/1/3 76/1/3 79/1/3
f 85/1/3 82/1/3 81/1/3
f 86/1/3 82/1/3 85/1/3
f 87/2/3 83/2/3 82/2/3
f 87/1/3 82/1/3 86/1/3
f 88/1/3 84/1/3 83/1/3
f 88/2/3 83/2/3 87/2/3
f 89/1/3 84/1/3 88/1/3
f 90/1/3 84/1/3 89/1/3
f 91/1/3 85/1/3 81/1/3
f 92/1/3 84/1/3 90/1/3
f 93/1/3 91/1/3 81/1/3
f 94/1/3 91/1/3 93/1/3
f 95/1/3 84/1/3 92/1/3
f 96/1/3 84/1/3 95/1/3
f 97/2/3 94/2/3 93/2/3
f 98/2/3 94/2/3 97/2/3
f 99/2/3 96/2/3 95/2/3
f 100/2/3 96/2/3 99/2/3
f 101/1/3 98/1/3 97/1/3
f 102/1/3 100/1/3 99/1/3
f 103/1/3 101/1/3 97/1/3
f 108/1/3 100/1/3 102/1/3
f 109/1/3 103/1/3 97/1/3
f 109/1/3 104/1/3 103/1/3
f 109/1/3 105/1/3 104/1/3
f 110/2/3 106/2/3 105/2/3
f 110/1/3 105/1/3 109/1/3
f 111/1/3 107/1/3 106/1/3
f 111/2/3 106/2/3 110/2/3
f 111/1/3 108/1/3 107/1/3
f 112/1/3 100/1/3 108/1/3
f 112/1/3 108/1/3 111/1/3
f 113/1/4 114/1/4 117/1/4
f 114/2/4 115/2/4 118/2/4
f 117/1/4 114/1/4 118/1/4
f 118/2/4 115/2/4 119/2/4
f 119/2/4 115/2/4 120/2/4
f 115/1/4 116/1/4 121/1/4
f 120/2/4 115/2/4 121/2/4
f 121/1/4 116/1/4 122/1/4
f 119/1/4 120/1/4 123/1/4
f 117/2/4 118/2/4 123/2/4
f 118/2/4 119/2/4 123/2/4
f 121/2/4 122/2/4 124/2/4
f 123/1/4 120/1/4 124/1/4
f 120/2/4 121/2/4 124/2/4
f 117/2/4 123/2/4 125/2/4
f 123/2/4 124/2/4 125/2/4
f 124/2/4 122/2/4 126/2/4
f 125/2/4 124/2/4 126/2/4
f 113/1/4 117/1/4 127/1/4
f 117/2/4 125/2/4 128/2/4
f 127/1/4 117/1/4 128/1/4
f 125/1/4 126/1/4 129/1/4
f 128/2/4 125/2/4 129/2/4
f 126/2/4 122/2/4 130/2/4
f 129/1/4 126/1/4 130/1/4
f 122/1/4 116/1/4 131/1/4
f 130/2/4 122/2/4 131/2/4
f 131/1/4 116/1/4 132/1/4
f 129/2/4 130/2/4 133/2/4
f 128/2/4 129/2/4 133/2/4
f 131/2/4 132/2/4 133/2/4
f 130/2/4 131/2/4 133/2/4
f 127/2/4 128/2/4 133/2/4
f 133/2/4 132/2/4 134/2/4
f 127/2/4 133/2/4 135/2/4
f 133/1/4 134/1/4 135/1/4
f 134/2/4 132/2/4 136/2/4
f 135/1/4 134/1/4 136/1/4
f 127/2/4 135/2/4 137/2/4
f 135/2/4 136/2/4 137/2/4
f 136/2/4 132/2/4 138/2/4
f 137/2/4 136/2/4 138/2/4
f 127/2/4 137/2/4 139/2/4
f 137/1/4 138/1/4 139/1/4
f 138/2/4 132/2/4 140/2/4
f 139/1/4 138/1/4 140/1/4
f 127/2/4 139/2/4 141/2/4
f 139/2/4 140/2/4 141/2/4
f 141/2/4 140/2/4 142/2/4
f 142/2/4 140/2/4 143/2/4
f 140/2/4 132/2/4 144/2/4
f 143/2/4 140/2/4 144/2/4
f 144/2/4 132/2/4 145/2/4
f 145/2/4 132/2/4 146/2/4
f 142/2/4 143/2/4 147/2/4
f 143/1/4 144/1/4 147/1/4
f 144/2/4 145/2/4 148/2/4
f 147/1/4 144/1/4 148/1/4
f 147/2/4 148/2/4 149/2/4
f 149/2/4 148/2/4 150/2/4
f 141/1/4 142/1/4 151/1/4
f 142/2/4 147/2/4 151/2/4
f 147/2/4 149/2/4 151/2/4
f 151/2/4 149/2/4 152/2/4
f 149/1/4 150/1/4 153/1/4
f 152/2/4 149/2/4 153/2/4
f 150/2/4 148/2/4 154/2/4
f 153/1/4 150/1/4 154/1/4
f 154/2/4 148/2/4 155/2/4
f 145/1/4 146/1/4 156/1/4
f 155/2/4 148/2/4 156/2/4
f 148/2/4 145/2/4 156/2/4
f 151/1/4 152/1/4 157/1/4
f 141/1/4 151/1/4 157/1/4
f 152/2/4 153/2/4 158/2/4
f 157/1/4 152/1/4 158/1/4
f 154/2/4 155/2/4 158/2/4
f 153/2/4 154/2/4 158/2/4
f 155/1/4 156/1/4 159/1/4
f 158/2/4 155/2/4 159/2/4
f 156/1/4 146/1/4 160/1/4
f 159/1/4 156/1/4 160/1/4
f 165/1/5 162/1/5 161/1/5
f 166/2/5 163/2/5 162/2/5
f 166/1/5 162/1/5 165/1/5
f 167/1/5 164/1/5 163/1/5
f 167/2/5 163/2/5 166/2/5
f 168/1/5 164/1/5 167/1/5
f 173/1/5 170/1/5 169/1/5
f 174/2/5 171/2/5 170/2/5
f 174/1/5 170/1/5 173/1/5
f 175/2/5 171/2/5 174/2/5
f 176/2/5 171/2/5 175/2/5
f 177/1/5 172/1/5 171/1/5
f 177/2/5 171/2/5 176/2/5
f 178/1/5 172/1/5 177/1/5
f 179/1/6 180/1/6 183/1/6
f 180/2/6 181/2/6 184/2/6
f 183/1/6 180/1/6 184/1/6
f 184/2/6 181/2/6 185/2/6
f 185/2/6 181/2/6 186/2/6
f 181/1/6 182/1/6 187/1/6
f 186/2/6 181/2/6 187/2/6
f 187/1/6 182/1/6 188/1/6
f 189/1/6 190/1/6 193/1/6
f 190/2/6 191/2/6 194/2/6
f 193/1/6 190/1/6 194/1/6
f 191/1/6 192/1/6 195/1/6
f 194/2/6 191/2/6 195/2/6
f 195/1/6 192/1/6 196/1/6
