# MagicaVoxel @ Ephtracy

# group
o 

# material
mtllib Robot.vox-29.mtl
usemtl palette

# normals
vn -1 0 0
vn 1 0 0
vn 0 0 1
vn 0 0 -1
vn 0 -1 0
vn 0 1 0

# texcoords
vt 0.916016 0.5
vt 0.978516 0.5
vt 0.990234 0.5

# verts
v -0.5 1.1 -1.4
v -0.5 1.1 -1.7
v -0.5 1.7 -1.4
v -0.5 1.7 -1.7
v -0.4 1.7 -1.4
v -0.4 1.7 -1.6
v -0.4 1.8 -1.4
v -0.4 1.8 -1.6
v -0.3 1.8 -1.4
v -0.3 1.8 -1.5
v -0.3 2 -1.4
v -0.3 2 -1.5
v -0.3 2.1 -1.4
v -0.3 2.1 -1.5
v 0.2 1.7 -1.4
v 0.2 1.7 -1.6
v 0.2 1.8 -1.5
v 0.2 1.8 -1.6
v 0.2 2 -1.4
v 0.2 2 -1.5
v 0.2 2.1 -1.4
v 0.2 2.1 -1.5
v -0.2 1.7 -1.4
v -0.2 1.7 -1.6
v -0.2 1.8 -1.5
v -0.2 1.8 -1.6
v -0.2 2 -1.4
v -0.2 2 -1.5
v -0.2 2.1 -1.4
v -0.2 2.1 -1.5
v 0.3 1.8 -1.4
v 0.3 1.8 -1.5
v 0.3 2 -1.4
v 0.3 2 -1.5
v 0.3 2.1 -1.4
v 0.3 2.1 -1.5
v 0.4 1.7 -1.4
v 0.4 1.7 -1.6
v 0.4 1.8 -1.4
v 0.4 1.8 -1.6
v 0.5 1.1 -1.4
v 0.5 1.1 -1.7
v 0.5 1.7 -1.4
v 0.5 1.7 -1.7
v -0.5 1.1 -1.4
v -0.5 1.7 -1.4
v -0.4 1.7 -1.4
v -0.4 1.8 -1.4
v -0.3 1.8 -1.4
v -0.3 2 -1.4
v -0.3 2.1 -1.4
v -0.2 1.7 -1.4
v -0.2 2 -1.4
v -0.2 2.1 -1.4
v 0.2 1.7 -1.4
v 0.2 2 -1.4
v 0.2 2.1 -1.4
v 0.3 1.8 -1.4
v 0.3 2 -1.4
v 0.3 2.1 -1.4
v 0.4 1.7 -1.4
v 0.4 1.8 -1.4
v 0.5 1.1 -1.4
v 0.5 1.7 -1.4
v -0.3 1.8 -1.5
v -0.3 2 -1.5
v -0.3 2.1 -1.5
v -0.2 1.8 -1.5
v -0.2 2 -1.5
v -0.2 2.1 -1.5
v 0.2 1.8 -1.5
v 0.2 2 -1.5
v 0.2 2.1 -1.5
v 0.3 1.8 -1.5
v 0.3 2 -1.5
v 0.3 2.1 -1.5
v -0.4 1.7 -1.6
v -0.4 1.8 -1.6
v -0.2 1.7 -1.6
v -0.2 1.8 -1.6
v 0.2 1.7 -1.6
v 0.2 1.8 -1.6
v 0.4 1.7 -1.6
v 0.4 1.8 -1.6
v -0.5 1.1 -1.7
v -0.5 1.7 -1.7
v -0.4 1.2 -1.7
v -0.4 1.6 -1.7
v -0.3 1.2 -1.7
v -0.3 1.6 -1.7
v -0.2 1.2 -1.7
v -0.2 1.6 -1.7
v -0.1 1.2 -1.7
v -0.1 1.6 -1.7
v 0.1 1.2 -1.7
v 0.1 1.6 -1.7
v 0.2 1.2 -1.7
v 0.2 1.6 -1.7
v 0.3 1.2 -1.7
v 0.3 1.6 -1.7
v 0.4 1.2 -1.7
v 0.4 1.6 -1.7
v 0.5 1.1 -1.7
v 0.5 1.7 -1.7
v -0.5 1.1 -1.4
v 0.5 1.1 -1.4
v -0.5 1.1 -1.7
v 0.5 1.1 -1.7
v -0.5 1.7 -1.4
v -0.4 1.7 -1.4
v -0.2 1.7 -1.4
v 0.2 1.7 -1.4
v 0.4 1.7 -1.4
v 0.5 1.7 -1.4
v -0.4 1.7 -1.6
v -0.2 1.7 -1.6
v 0.2 1.7 -1.6
v 0.4 1.7 -1.6
v -0.5 1.7 -1.7
v 0.5 1.7 -1.7
v -0.4 1.8 -1.4
v -0.3 1.8 -1.4
v 0.3 1.8 -1.4
v 0.4 1.8 -1.4
v -0.3 1.8 -1.5
v -0.2 1.8 -1.5
v 0.2 1.8 -1.5
v 0.3 1.8 -1.5
v -0.4 1.8 -1.6
v -0.2 1.8 -1.6
v 0.2 1.8 -1.6
v 0.4 1.8 -1.6
v -0.3 2.1 -1.4
v -0.2 2.1 -1.4
v 0.2 2.1 -1.4
v 0.3 2.1 -1.4
v -0.3 2.1 -1.5
v -0.2 2.1 -1.5
v 0.2 2.1 -1.5
v 0.3 2.1 -1.5

# faces
f 3/2/1 2/2/1 1/2/1
f 4/2/1 2/2/1 3/2/1
f 7/2/1 6/2/1 5/2/1
f 8/2/1 6/2/1 7/2/1
f 11/2/1 10/2/1 9/2/1
f 12/2/1 10/2/1 11/2/1
f 13/3/1 12/3/1 11/3/1
f 14/3/1 12/3/1 13/3/1
f 17/2/1 16/2/1 15/2/1
f 18/2/1 16/2/1 17/2/1
f 19/2/1 17/2/1 15/2/1
f 20/2/1 17/2/1 19/2/1
f 21/3/1 20/3/1 19/3/1
f 22/3/1 20/3/1 21/3/1
f 23/2/2 24/2/2 25/2/2
f 25/2/2 24/2/2 26/2/2
f 23/2/2 25/2/2 27/2/2
f 27/2/2 25/2/2 28/2/2
f 27/3/2 28/3/2 29/3/2
f 29/3/2 28/3/2 30/3/2
f 31/2/2 32/2/2 33/2/2
f 33/2/2 32/2/2 34/2/2
f 33/3/2 34/3/2 35/3/2
f 35/3/2 34/3/2 36/3/2
f 37/2/2 38/2/2 39/2/2
f 39/2/2 38/2/2 40/2/2
f 41/2/2 42/2/2 43/2/2
f 43/2/2 42/2/2 44/2/2
f 47/2/3 46/2/3 45/2/3
f 49/2/3 48/2/3 47/2/3
f 52/2/3 47/2/3 45/2/3
f 52/2/3 49/2/3 47/2/3
f 52/2/3 50/2/3 49/2/3
f 53/3/3 51/3/3 50/3/3
f 53/2/3 50/2/3 52/2/3
f 54/3/3 51/3/3 53/3/3
f 55/2/3 52/2/3 45/2/3
f 58/2/3 56/2/3 55/2/3
f 59/3/3 57/3/3 56/3/3
f 59/2/3 56/2/3 58/2/3
f 60/3/3 57/3/3 59/3/3
f 61/2/3 55/2/3 45/2/3
f 61/2/3 58/2/3 55/2/3
f 62/2/3 58/2/3 61/2/3
f 63/2/3 61/2/3 45/2/3
f 64/2/3 61/2/3 63/2/3
f 65/2/4 66/2/4 68/2/4
f 66/3/4 67/3/4 69/3/4
f 68/2/4 66/2/4 69/2/4
f 69/3/4 67/3/4 70/3/4
f 71/2/4 72/2/4 74/2/4
f 72/3/4 73/3/4 75/3/4
f 74/2/4 72/2/4 75/2/4
f 75/3/4 73/3/4 76/3/4
f 77/2/4 78/2/4 79/2/4
f 79/2/4 78/2/4 80/2/4
f 81/2/4 82/2/4 83/2/4
f 83/2/4 82/2/4 84/2/4
f 85/2/4 86/2/4 87/2/4
f 87/2/4 86/2/4 88/2/4
f 85/2/4 87/2/4 89/2/4
f 87/1/4 88/1/4 89/1/4
f 88/2/4 86/2/4 90/2/4
f 89/1/4 88/1/4 90/1/4
f 85/2/4 89/2/4 91/2/4
f 89/2/4 90/2/4 91/2/4
f 90/2/4 86/2/4 92/2/4
f 91/2/4 90/2/4 92/2/4
f 85/2/4 91/2/4 93/2/4
f 91/1/4 92/1/4 93/1/4
f 92/2/4 86/2/4 94/2/4
f 93/1/4 92/1/4 94/1/4
f 85/2/4 93/2/4 95/2/4
f 93/2/4 94/2/4 95/2/4
f 94/2/4 86/2/4 96/2/4
f 95/2/4 94/2/4 96/2/4
f 85/2/4 95/2/4 97/2/4
f 95/1/4 96/1/4 97/1/4
f 96/2/4 86/2/4 98/2/4
f 97/1/4 96/1/4 98/1/4
f 85/2/4 97/2/4 99/2/4
f 97/2/4 98/2/4 99/2/4
f 98/2/4 86/2/4 100/2/4
f 99/2/4 98/2/4 100/2/4
f 85/2/4 99/2/4 101/2/4
f 99/1/4 100/1/4 101/1/4
f 100/2/4 86/2/4 102/2/4
f 101/1/4 100/1/4 102/1/4
f 85/2/4 101/2/4 103/2/4
f 101/2/4 102/2/4 103/2/4
f 102/2/4 86/2/4 104/2/4
f 103/2/4 102/2/4 104/2/4
f 107/2/5 106/2/5 105/2/5
f 108/2/5 106/2/5 107/2/5
f 109/2/6 110/2/6 115/2/6
f 111/2/6 112/2/6 116/2/6
f 116/2/6 112/2/6 117/2/6
f 113/2/6 114/2/6 118/2/6
f 116/2/6 117/2/6 119/2/6
f 117/2/6 118/2/6 119/2/6
f 109/2/6 115/2/6 119/2/6
f 115/2/6 116/2/6 119/2/6
f 118/2/6 114/2/6 120/2/6
f 119/2/6 118/2/6 120/2/6
f 121/2/6 122/2/6 125/2/6
f 123/2/6 124/2/6 128/2/6
f 125/2/6 126/2/6 129/2/6
f 121/2/6 125/2/6 129/2/6
f 129/2/6 126/2/6 130/2/6
f 127/2/6 128/2/6 131/2/6
f 128/2/6 124/2/6 132/2/6
f 131/2/6 128/2/6 132/2/6
f 133/3/6 134/3/6 137/3/6
f 137/3/6 134/3/6 138/3/6
f 135/3/6 136/3/6 139/3/6
f 139/3/6 136/3/6 140/3/6
