# MagicaVoxel @ Ephtracy

# group
o 

# material
mtllib Robot.vox-20.mtl
usemtl palette

# normals
vn -1 0 0
vn 1 0 0
vn 0 0 1
vn 0 0 -1
vn 0 -1 0
vn 0 1 0

# texcoords
vt 0.970703 0.5
vt 0.978516 0.5
vt 0.982422 0.5

# verts
v 1.9 3 0.3
v 1.9 3 -0.1
v 1.9 3.2 0.3
v 1.9 3.2 -0.1
v 2 3 0.4
v 2 3 0.3
v 2 3 -0.1
v 2 3 -0.2
v 2 3.2 0.4
v 2 3.2 0.3
v 2 3.2 0.2
v 2 3.2 0
v 2 3.2 -0.1
v 2 3.2 -0.2
v 2 3.6 0.2
v 2 3.6 0
v 2.1 1.5 0.3
v 2.1 1.5 -0.1
v 2.1 1.6 0.4
v 2.1 1.6 0.3
v 2.1 1.6 -0.1
v 2.1 1.6 -0.2
v 2.1 2 0.4
v 2.1 2 0.3
v 2.1 2 -0.1
v 2.1 2 -0.2
v 2.1 2.2 0.2
v 2.1 2.2 0
v 2.1 2.9 0.2
v 2.1 2.9 0
v 2.1 3 0.3
v 2.1 3 -0.1
v 2.1 3.2 0.3
v 2.1 3.2 0.2
v 2.1 3.2 0
v 2.1 3.2 -0.1
v 2.1 3.3 0.3
v 2.1 3.3 0.2
v 2.1 3.3 0
v 2.1 3.3 -0.1
v 2.3 3.3 0.2
v 2.3 3.3 0
v 2.3 3.6 0.2
v 2.3 3.6 0
v 2.1 3.3 0.2
v 2.1 3.3 0
v 2.1 3.6 0.2
v 2.1 3.6 0
v 2.3 1.5 0.3
v 2.3 1.5 -0.1
v 2.3 1.6 0.4
v 2.3 1.6 0.3
v 2.3 1.6 -0.1
v 2.3 1.6 -0.2
v 2.3 2 0.4
v 2.3 2 0.3
v 2.3 2 -0.1
v 2.3 2 -0.2
v 2.3 2.2 0.2
v 2.3 2.2 0
v 2.3 2.9 0.2
v 2.3 2.9 0
v 2.3 3 0.3
v 2.3 3 -0.1
v 2.3 3.2 0.3
v 2.3 3.2 0.2
v 2.3 3.2 0
v 2.3 3.2 -0.1
v 2.3 3.3 0.3
v 2.3 3.3 0.2
v 2.3 3.3 0
v 2.3 3.3 -0.1
v 2.4 3 0.4
v 2.4 3 0.3
v 2.4 3 -0.1
v 2.4 3 -0.2
v 2.4 3.2 0.4
v 2.4 3.2 0.3
v 2.4 3.2 0.2
v 2.4 3.2 0
v 2.4 3.2 -0.1
v 2.4 3.2 -0.2
v 2.4 3.6 0.2
v 2.4 3.6 0
v 2.5 3 0.3
v 2.5 3 -0.1
v 2.5 3.2 0.3
v 2.5 3.2 -0.1
v 2 3 0.4
v 2 3.2 0.4
v 2.1 1.6 0.4
v 2.1 2 0.4
v 2.1 3 0.4
v 2.1 3.1 0.4
v 2.2 3 0.4
v 2.2 3.1 0.4
v 2.2 3.2 0.4
v 2.3 1.6 0.4
v 2.3 2 0.4
v 2.3 3.1 0.4
v 2.3 3.2 0.4
v 2.4 3 0.4
v 2.4 3.2 0.4
v 1.9 3 0.3
v 1.9 3.2 0.3
v 2 3 0.3
v 2 3.2 0.3
v 2.1 1.5 0.3
v 2.1 1.6 0.3
v 2.1 2 0.3
v 2.1 3 0.3
v 2.1 3.2 0.3
v 2.1 3.3 0.3
v 2.2 3 0.3
v 2.2 3.2 0.3
v 2.3 1.5 0.3
v 2.3 1.6 0.3
v 2.3 2 0.3
v 2.3 3 0.3
v 2.3 3.2 0.3
v 2.3 3.3 0.3
v 2.4 3 0.3
v 2.4 3.2 0.3
v 2.5 3 0.3
v 2.5 3.2 0.3
v 2 3.2 0.2
v 2 3.6 0.2
v 2.1 3.2 0.2
v 2.1 3.3 0.2
v 2.1 3.6 0.2
v 2.3 3.2 0.2
v 2.3 3.3 0.2
v 2.3 3.6 0.2
v 2.4 3.2 0.2
v 2.4 3.6 0.2
v 2 3.2 0
v 2 3.6 0
v 2.1 3.2 0
v 2.1 3.3 0
v 2.1 3.6 0
v 2.3 3.2 0
v 2.3 3.3 0
v 2.3 3.6 0
v 2.4 3.2 0
v 2.4 3.6 0
v 1.9 3 -0.1
v 1.9 3.2 -0.1
v 2 3 -0.1
v 2 3.2 -0.1
v 2.1 1.5 -0.1
v 2.1 1.6 -0.1
v 2.1 2 -0.1
v 2.1 3 -0.1
v 2.1 3.2 -0.1
v 2.1 3.3 -0.1
v 2.3 1.5 -0.1
v 2.3 1.6 -0.1
v 2.3 2 -0.1
v 2.3 3 -0.1
v 2.3 3.2 -0.1
v 2.3 3.3 -0.1
v 2.4 3 -0.1
v 2.4 3.2 -0.1
v 2.5 3 -0.1
v 2.5 3.2 -0.1
v 2 3 -0.2
v 2 3.2 -0.2
v 2.1 1.6 -0.2
v 2.1 2 -0.2
v 2.3 1.6 -0.2
v 2.3 2 -0.2
v 2.4 3 -0.2
v 2.4 3.2 -0.2
v 2.1 1.5 0.3
v 2.3 1.5 0.3
v 2.1 1.5 -0.1
v 2.3 1.5 -0.1
v 2.1 1.6 0.4
v 2.3 1.6 0.4
v 2.1 1.6 0.3
v 2.3 1.6 0.3
v 2.1 1.6 -0.1
v 2.3 1.6 -0.1
v 2.1 1.6 -0.2
v 2.3 1.6 -0.2
v 2 3 0.4
v 2.1 3 0.4
v 2.2 3 0.4
v 2.4 3 0.4
v 1.9 3 0.3
v 2 3 0.3
v 2.1 3 0.3
v 2.2 3 0.3
v 2.3 3 0.3
v 2.4 3 0.3
v 2.5 3 0.3
v 1.9 3 -0.1
v 2 3 -0.1
v 2.1 3 -0.1
v 2.3 3 -0.1
v 2.4 3 -0.1
v 2.5 3 -0.1
v 2 3 -0.2
v 2.4 3 -0.2
v 2.1 2 0.4
v 2.3 2 0.4
v 2.1 2 0.3
v 2.3 2 0.3
v 2.1 2 -0.1
v 2.3 2 -0.1
v 2.1 2 -0.2
v 2.3 2 -0.2
v 2 3.2 0.4
v 2.2 3.2 0.4
v 2.3 3.2 0.4
v 2.4 3.2 0.4
v 1.9 3.2 0.3
v 2 3.2 0.3
v 2.1 3.2 0.3
v 2.2 3.2 0.3
v 2.3 3.2 0.3
v 2.4 3.2 0.3
v 2.5 3.2 0.3
v 2 3.2 0.2
v 2.1 3.2 0.2
v 2.3 3.2 0.2
v 2.4 3.2 0.2
v 2 3.2 0
v 2.1 3.2 0
v 2.3 3.2 0
v 2.4 3.2 0
v 1.9 3.2 -0.1
v 2 3.2 -0.1
v 2.1 3.2 -0.1
v 2.3 3.2 -0.1
v 2.4 3.2 -0.1
v 2.5 3.2 -0.1
v 2 3.2 -0.2
v 2.4 3.2 -0.2
v 2.1 3.3 0.3
v 2.3 3.3 0.3
v 2.1 3.3 0.2
v 2.3 3.3 0.2
v 2.1 3.3 0
v 2.3 3.3 0
v 2.1 3.3 -0.1
v 2.3 3.3 -0.1
v 2 3.6 0.2
v 2.1 3.6 0.2
v 2.3 3.6 0.2
v 2.4 3.6 0.2
v 2 3.6 0
v 2.1 3.6 0
v 2.3 3.6 0
v 2.4 3.6 0

# faces
f 3/3/1 2/3/1 1/3/1
f 4/3/1 2/3/1 3/3/1
f 9/3/1 6/3/1 5/3/1
f 10/3/1 6/3/1 9/3/1
f 13/3/1 8/3/1 7/3/1
f 14/3/1 8/3/1 13/3/1
f 15/2/1 12/2/1 11/2/1
f 16/2/1 12/2/1 15/2/1
f 20/3/1 18/3/1 17/3/1
f 21/3/1 18/3/1 20/3/1
f 23/3/1 20/3/1 19/3/1
f 23/3/1 22/3/1 21/3/1
f 23/3/1 21/3/1 20/3/1
f 24/3/1 22/3/1 23/3/1
f 25/3/1 22/3/1 24/3/1
f 26/3/1 22/3/1 25/3/1
f 27/3/1 25/3/1 24/3/1
f 28/3/1 25/3/1 27/3/1
f 29/3/1 27/3/1 24/3/1
f 29/1/1 28/1/1 27/1/1
f 30/3/1 25/3/1 28/3/1
f 30/1/1 28/1/1 29/1/1
f 31/3/1 29/3/1 24/3/1
f 31/3/1 30/3/1 29/3/1
f 32/3/1 25/3/1 30/3/1
f 32/3/1 30/3/1 31/3/1
f 37/2/1 34/2/1 33/2/1
f 38/2/1 34/2/1 37/2/1
f 39/2/1 36/2/1 35/2/1
f 40/2/1 36/2/1 39/2/1
f 43/2/1 42/2/1 41/2/1
f 44/2/1 42/2/1 43/2/1
f 45/2/2 46/2/2 47/2/2
f 47/2/2 46/2/2 48/2/2
f 49/3/2 50/3/2 52/3/2
f 52/3/2 50/3/2 53/3/2
f 51/3/2 52/3/2 55/3/2
f 53/3/2 54/3/2 55/3/2
f 52/3/2 53/3/2 55/3/2
f 55/3/2 54/3/2 56/3/2
f 56/3/2 54/3/2 57/3/2
f 57/3/2 54/3/2 58/3/2
f 56/3/2 57/3/2 59/3/2
f 59/3/2 57/3/2 60/3/2
f 56/3/2 59/3/2 61/3/2
f 59/1/2 60/1/2 61/1/2
f 60/3/2 57/3/2 62/3/2
f 61/1/2 60/1/2 62/1/2
f 56/3/2 61/3/2 63/3/2
f 61/3/2 62/3/2 63/3/2
f 62/3/2 57/3/2 64/3/2
f 63/3/2 62/3/2 64/3/2
f 65/2/2 66/2/2 69/2/2
f 69/2/2 66/2/2 70/2/2
f 67/2/2 68/2/2 71/2/2
f 71/2/2 68/2/2 72/2/2
f 73/3/2 74/3/2 77/3/2
f 77/3/2 74/3/2 78/3/2
f 75/3/2 76/3/2 81/3/2
f 81/3/2 76/3/2 82/3/2
f 79/2/2 80/2/2 83/2/2
f 83/2/2 80/2/2 84/2/2
f 85/3/2 86/3/2 87/3/2
f 87/3/2 86/3/2 88/3/2
f 93/3/3 90/3/3 89/3/3
f 94/3/3 90/3/3 93/3/3
f 95/1/3 94/1/3 93/1/3
f 96/3/3 90/3/3 94/3/3
f 96/1/3 94/1/3 95/1/3
f 97/3/3 90/3/3 96/3/3
f 98/3/3 92/3/3 91/3/3
f 99/3/3 92/3/3 98/3/3
f 100/3/3 96/3/3 95/3/3
f 100/1/3 97/1/3 96/1/3
f 101/1/3 97/1/3 100/1/3
f 102/3/3 100/3/3 95/3/3
f 102/3/3 101/3/3 100/3/3
f 103/3/3 101/3/3 102/3/3
f 106/3/3 105/3/3 104/3/3
f 107/3/3 105/3/3 106/3/3
f 114/3/3 111/3/3 110/3/3
f 115/2/3 113/2/3 112/2/3
f 116/3/3 109/3/3 108/3/3
f 117/3/3 109/3/3 116/3/3
f 118/3/3 114/3/3 110/3/3
f 119/3/3 114/3/3 118/3/3
f 120/2/3 113/2/3 115/2/3
f 121/2/3 113/2/3 120/2/3
f 124/3/3 123/3/3 122/3/3
f 125/3/3 123/3/3 124/3/3
f 128/2/3 127/2/3 126/2/3
f 129/2/3 127/2/3 128/2/3
f 130/2/3 127/2/3 129/2/3
f 134/2/3 132/2/3 131/2/3
f 134/2/3 133/2/3 132/2/3
f 135/2/3 133/2/3 134/2/3
f 136/2/4 137/2/4 138/2/4
f 138/2/4 137/2/4 139/2/4
f 139/2/4 137/2/4 140/2/4
f 141/2/4 142/2/4 144/2/4
f 142/2/4 143/2/4 144/2/4
f 144/2/4 143/2/4 145/2/4
f 146/3/4 147/3/4 148/3/4
f 148/3/4 147/3/4 149/3/4
f 150/3/4 151/3/4 156/3/4
f 156/3/4 151/3/4 157/3/4
f 152/3/4 153/3/4 158/3/4
f 158/3/4 153/3/4 159/3/4
f 154/2/4 155/2/4 160/2/4
f 160/2/4 155/2/4 161/2/4
f 162/3/4 163/3/4 164/3/4
f 164/3/4 163/3/4 165/3/4
f 168/3/4 169/3/4 170/3/4
f 170/3/4 169/3/4 171/3/4
f 166/3/4 167/3/4 172/3/4
f 172/3/4 167/3/4 173/3/4
f 176/3/5 175/3/5 174/3/5
f 177/3/5 175/3/5 176/3/5
f 180/3/5 179/3/5 178/3/5
f 181/3/5 179/3/5 180/3/5
f 184/3/5 183/3/5 182/3/5
f 185/3/5 183/3/5 184/3/5
f 191/3/5 187/3/5 186/3/5
f 192/1/5 188/1/5 187/1/5
f 192/3/5 187/3/5 191/3/5
f 193/3/5 189/3/5 188/3/5
f 193/1/5 188/1/5 192/1/5
f 194/3/5 189/3/5 193/3/5
f 195/3/5 189/3/5 194/3/5
f 197/3/5 192/3/5 191/3/5
f 197/3/5 191/3/5 190/3/5
f 198/3/5 192/3/5 197/3/5
f 199/3/5 192/3/5 198/3/5
f 200/3/5 196/3/5 195/3/5
f 200/3/5 195/3/5 194/3/5
f 201/3/5 196/3/5 200/3/5
f 202/3/5 196/3/5 201/3/5
f 203/3/5 199/3/5 198/3/5
f 203/3/5 201/3/5 200/3/5
f 203/3/5 200/3/5 199/3/5
f 204/3/5 201/3/5 203/3/5
f 205/3/6 206/3/6 207/3/6
f 207/3/6 206/3/6 208/3/6
f 209/3/6 210/3/6 211/3/6
f 211/3/6 210/3/6 212/3/6
f 213/3/6 214/3/6 218/3/6
f 218/3/6 214/3/6 219/3/6
f 214/1/6 215/1/6 220/1/6
f 219/3/6 214/3/6 220/3/6
f 215/3/6 216/3/6 221/3/6
f 220/1/6 215/1/6 221/1/6
f 221/3/6 216/3/6 222/3/6
f 218/3/6 219/3/6 224/3/6
f 217/3/6 218/3/6 224/3/6
f 224/3/6 219/3/6 225/3/6
f 222/3/6 223/3/6 226/3/6
f 221/3/6 222/3/6 226/3/6
f 226/3/6 223/3/6 227/3/6
f 217/3/6 224/3/6 228/3/6
f 227/3/6 223/3/6 231/3/6
f 228/3/6 229/3/6 232/3/6
f 217/3/6 228/3/6 232/3/6
f 232/3/6 229/3/6 233/3/6
f 233/3/6 229/3/6 234/3/6
f 230/3/6 231/3/6 235/3/6
f 231/3/6 223/3/6 236/3/6
f 235/3/6 231/3/6 236/3/6
f 236/3/6 223/3/6 237/3/6
f 233/3/6 234/3/6 238/3/6
f 234/3/6 235/3/6 238/3/6
f 235/3/6 236/3/6 238/3/6
f 238/3/6 236/3/6 239/3/6
f 240/2/6 241/2/6 242/2/6
f 242/2/6 241/2/6 243/2/6
f 242/2/6 243/2/6 244/2/6
f 244/2/6 243/2/6 245/2/6
f 244/2/6 245/2/6 246/2/6
f 246/2/6 245/2/6 247/2/6
f 248/2/6 249/2/6 252/2/6
f 252/2/6 249/2/6 253/2/6
f 250/2/6 251/2/6 254/2/6
f 254/2/6 251/2/6 255/2/6
