# MagicaVoxel @ Ephtracy

# group
o 

# material
mtllib Robot.vox-40.mtl
usemtl palette

# normals
vn -1 0 0
vn 1 0 0
vn 0 0 1
vn 0 0 -1
vn 0 -1 0
vn 0 1 0

# texcoords
vt 0.916016 0.5
vt 0.947266 0.5
vt 0.978516 0.5

# verts
v 4.2 0 3.1
v 4.2 0 2.5
v 4.2 0.1 2.5
v 4.2 0.1 2.4
v 4.2 0.2 3.1
v 4.2 0.2 3
v 4.2 0.4 3
v 4.2 0.4 2.9
v 4.2 0.5 2.9
v 4.2 0.5 2.8
v 4.2 0.6 2.8
v 4.2 0.6 2.4
v 4.3 0.1 2.4
v 4.3 0.1 2.3
v 4.3 0.5 2.4
v 4.3 0.5 2.3
v 4.5 0 3.1
v 4.5 0 3
v 4.5 0.1 3.1
v 4.5 0.1 3
v 4.7 0.1 2.4
v 4.7 0.1 2.3
v 4.7 0.5 2.4
v 4.7 0.5 2.3
v 4.8 0 3.1
v 4.8 0 3
v 4.8 0.1 3.1
v 4.8 0.1 3
v 4.9 0.1 3.1
v 4.9 0.1 2.6
v 4.9 0.2 3.1
v 4.9 0.2 3
v 4.9 0.2 2.6
v 4.9 0.2 2.5
v 4.9 0.4 3
v 4.9 0.4 2.9
v 4.9 0.5 2.9
v 4.9 0.5 2.8
v 4.9 0.6 2.8
v 4.9 0.6 2.5
v 4.3 0.1 3.1
v 4.3 0.1 2.6
v 4.3 0.2 3.1
v 4.3 0.2 3
v 4.3 0.2 2.6
v 4.3 0.2 2.5
v 4.3 0.4 3
v 4.3 0.4 2.9
v 4.3 0.5 2.9
v 4.3 0.5 2.8
v 4.3 0.6 2.8
v 4.3 0.6 2.5
v 4.4 0 3.1
v 4.4 0 3
v 4.4 0.1 3.1
v 4.4 0.1 3
v 4.5 0.1 2.4
v 4.5 0.1 2.3
v 4.5 0.5 2.4
v 4.5 0.5 2.3
v 4.7 0 3.1
v 4.7 0 3
v 4.7 0.1 3.1
v 4.7 0.1 3
v 4.9 0.1 2.4
v 4.9 0.1 2.3
v 4.9 0.5 2.4
v 4.9 0.5 2.3
v 5 0 3.1
v 5 0 2.5
v 5 0.1 2.5
v 5 0.1 2.4
v 5 0.2 3.1
v 5 0.2 3
v 5 0.4 3
v 5 0.4 2.9
v 5 0.5 2.9
v 5 0.5 2.8
v 5 0.6 2.8
v 5 0.6 2.4
v 4.2 0 3.1
v 4.2 0.2 3.1
v 4.3 0.1 3.1
v 4.3 0.2 3.1
v 4.4 0 3.1
v 4.4 0.1 3.1
v 4.5 0 3.1
v 4.5 0.1 3.1
v 4.7 0 3.1
v 4.7 0.1 3.1
v 4.8 0 3.1
v 4.8 0.1 3.1
v 4.9 0.1 3.1
v 4.9 0.2 3.1
v 5 0 3.1
v 5 0.2 3.1
v 4.2 0.2 3
v 4.2 0.4 3
v 4.3 0.2 3
v 4.3 0.4 3
v 4.4 0 3
v 4.4 0.1 3
v 4.5 0 3
v 4.5 0.1 3
v 4.7 0 3
v 4.7 0.1 3
v 4.8 0 3
v 4.8 0.1 3
v 4.9 0.2 3
v 4.9 0.4 3
v 5 0.2 3
v 5 0.4 3
v 4.2 0.4 2.9
v 4.2 0.5 2.9
v 4.3 0.4 2.9
v 4.3 0.5 2.9
v 4.9 0.4 2.9
v 4.9 0.5 2.9
v 5 0.4 2.9
v 5 0.5 2.9
v 4.2 0.5 2.8
v 4.2 0.6 2.8
v 4.3 0.5 2.8
v 4.3 0.6 2.8
v 4.9 0.5 2.8
v 4.9 0.6 2.8
v 5 0.5 2.8
v 5 0.6 2.8
v 4.3 0.1 2.6
v 4.3 0.2 2.6
v 4.4 0.1 2.6
v 4.4 0.2 2.6
v 4.5 0.1 2.6
v 4.5 0.2 2.6
v 4.7 0.1 2.6
v 4.7 0.2 2.6
v 4.8 0.1 2.6
v 4.8 0.2 2.6
v 4.9 0.1 2.6
v 4.9 0.2 2.6
v 4.3 0.2 2.5
v 4.3 0.6 2.5
v 4.4 0.2 2.5
v 4.4 0.5 2.5
v 4.5 0.2 2.5
v 4.5 0.5 2.5
v 4.7 0.2 2.5
v 4.7 0.5 2.5
v 4.8 0.2 2.5
v 4.8 0.5 2.5
v 4.9 0.2 2.5
v 4.9 0.6 2.5
v 4.2 0 2.5
v 4.2 0.1 2.5
v 5 0 2.5
v 5 0.1 2.5
v 4.2 0.1 2.4
v 4.2 0.6 2.4
v 4.3 0.1 2.4
v 4.3 0.5 2.4
v 4.5 0.1 2.4
v 4.5 0.5 2.4
v 4.7 0.1 2.4
v 4.7 0.5 2.4
v 4.9 0.1 2.4
v 4.9 0.5 2.4
v 5 0.1 2.4
v 5 0.6 2.4
v 4.3 0.1 2.3
v 4.3 0.5 2.3
v 4.5 0.1 2.3
v 4.5 0.5 2.3
v 4.7 0.1 2.3
v 4.7 0.5 2.3
v 4.9 0.1 2.3
v 4.9 0.5 2.3
v 4.2 0 3.1
v 4.4 0 3.1
v 4.5 0 3.1
v 4.7 0 3.1
v 4.8 0 3.1
v 5 0 3.1
v 4.4 0 3
v 4.5 0 3
v 4.7 0 3
v 4.8 0 3
v 4.4 0 2.9
v 4.5 0 2.9
v 4.7 0 2.9
v 4.8 0 2.9
v 4.4 0 2.6
v 4.5 0 2.6
v 4.7 0 2.6
v 4.8 0 2.6
v 4.2 0 2.5
v 5 0 2.5
v 4.2 0.1 2.5
v 5 0.1 2.5
v 4.2 0.1 2.4
v 4.3 0.1 2.4
v 4.5 0.1 2.4
v 4.7 0.1 2.4
v 4.9 0.1 2.4
v 5 0.1 2.4
v 4.3 0.1 2.3
v 4.5 0.1 2.3
v 4.7 0.1 2.3
v 4.9 0.1 2.3
v 4.3 0.1 3.1
v 4.4 0.1 3.1
v 4.5 0.1 3.1
v 4.7 0.1 3.1
v 4.8 0.1 3.1
v 4.9 0.1 3.1
v 4.4 0.1 3
v 4.5 0.1 3
v 4.7 0.1 3
v 4.8 0.1 3
v 4.4 0.1 2.9
v 4.5 0.1 2.9
v 4.7 0.1 2.9
v 4.8 0.1 2.9
v 4.3 0.1 2.6
v 4.4 0.1 2.6
v 4.5 0.1 2.6
v 4.7 0.1 2.6
v 4.8 0.1 2.6
v 4.9 0.1 2.6
v 4.2 0.2 3.1
v 4.3 0.2 3.1
v 4.9 0.2 3.1
v 5 0.2 3.1
v 4.2 0.2 3
v 4.3 0.2 3
v 4.9 0.2 3
v 5 0.2 3
v 4.3 0.2 2.6
v 4.4 0.2 2.6
v 4.5 0.2 2.6
v 4.7 0.2 2.6
v 4.8 0.2 2.6
v 4.9 0.2 2.6
v 4.3 0.2 2.5
v 4.4 0.2 2.5
v 4.5 0.2 2.5
v 4.7 0.2 2.5
v 4.8 0.2 2.5
v 4.9 0.2 2.5
v 4.2 0.4 3
v 4.3 0.4 3
v 4.9 0.4 3
v 5 0.4 3
v 4.2 0.4 2.9
v 4.3 0.4 2.9
v 4.9 0.4 2.9
v 5 0.4 2.9
v 4.2 0.5 2.9
v 4.3 0.5 2.9
v 4.9 0.5 2.9
v 5 0.5 2.9
v 4.2 0.5 2.8
v 4.3 0.5 2.8
v 4.9 0.5 2.8
v 5 0.5 2.8
v 4.3 0.5 2.4
v 4.5 0.5 2.4
v 4.7 0.5 2.4
v 4.9 0.5 2.4
v 4.3 0.5 2.3
v 4.5 0.5 2.3
v 4.7 0.5 2.3
v 4.9 0.5 2.3
v 4.2 0.6 2.8
v 4.3 0.6 2.8
v 4.9 0.6 2.8
v 5 0.6 2.8
v 4.3 0.6 2.5
v 4.9 0.6 2.5
v 4.2 0.6 2.4
v 5 0.6 2.4

# faces
f 3/3/1 2/3/1 1/3/1
f 5/3/1 3/3/1 1/3/1
f 5/3/1 4/3/1 3/3/1
f 6/3/1 4/3/1 5/3/1
f 7/3/1 4/3/1 6/3/1
f 8/3/1 4/3/1 7/3/1
f 9/3/1 4/3/1 8/3/1
f 10/3/1 4/3/1 9/3/1
f 11/3/1 4/3/1 10/3/1
f 12/3/1 4/3/1 11/3/1
f 15/1/1 14/1/1 13/1/1
f 16/1/1 14/1/1 15/1/1
f 19/3/1 18/3/1 17/3/1
f 20/3/1 18/3/1 19/3/1
f 23/1/1 22/1/1 21/1/1
f 24/1/1 22/1/1 23/1/1
f 27/3/1 26/3/1 25/3/1
f 28/3/1 26/3/1 27/3/1
f 31/3/1 30/3/1 29/3/1
f 32/3/1 30/3/1 31/3/1
f 33/3/1 30/3/1 32/3/1
f 35/3/1 34/3/1 33/3/1
f 35/3/1 33/3/1 32/3/1
f 36/3/1 34/3/1 35/3/1
f 37/3/1 34/3/1 36/3/1
f 38/3/1 34/3/1 37/3/1
f 39/3/1 34/3/1 38/3/1
f 40/3/1 34/3/1 39/3/1
f 41/3/2 42/3/2 43/3/2
f 43/3/2 42/3/2 44/3/2
f 44/3/2 42/3/2 45/3/2
f 45/3/2 46/3/2 47/3/2
f 44/3/2 45/3/2 47/3/2
f 47/3/2 46/3/2 48/3/2
f 48/3/2 46/3/2 49/3/2
f 49/3/2 46/3/2 50/3/2
f 50/3/2 46/3/2 51/3/2
f 51/3/2 46/3/2 52/3/2
f 53/3/2 54/3/2 55/3/2
f 55/3/2 54/3/2 56/3/2
f 57/1/2 58/1/2 59/1/2
f 59/1/2 58/1/2 60/1/2
f 61/3/2 62/3/2 63/3/2
f 63/3/2 62/3/2 64/3/2
f 65/1/2 66/1/2 67/1/2
f 67/1/2 66/1/2 68/1/2
f 69/3/2 70/3/2 71/3/2
f 69/3/2 71/3/2 73/3/2
f 71/3/2 72/3/2 73/3/2
f 73/3/2 72/3/2 74/3/2
f 74/3/2 72/3/2 75/3/2
f 75/3/2 72/3/2 76/3/2
f 76/3/2 72/3/2 77/3/2
f 77/3/2 72/3/2 78/3/2
f 78/3/2 72/3/2 79/3/2
f 79/3/2 72/3/2 80/3/2
f 83/3/3 82/3/3 81/3/3
f 84/3/3 82/3/3 83/3/3
f 85/3/3 83/3/3 81/3/3
f 86/3/3 83/3/3 85/3/3
f 89/3/3 88/3/3 87/3/3
f 90/3/3 88/3/3 89/3/3
f 93/3/3 92/3/3 91/3/3
f 95/3/3 93/3/3 91/3/3
f 95/3/3 94/3/3 93/3/3
f 96/3/3 94/3/3 95/3/3
f 99/3/3 98/3/3 97/3/3
f 100/3/3 98/3/3 99/3/3
f 103/3/3 102/3/3 101/3/3
f 104/3/3 102/3/3 103/3/3
f 107/3/3 106/3/3 105/3/3
f 108/3/3 106/3/3 107/3/3
f 111/3/3 110/3/3 109/3/3
f 112/3/3 110/3/3 111/3/3
f 115/3/3 114/3/3 113/3/3
f 116/3/3 114/3/3 115/3/3
f 119/3/3 118/3/3 117/3/3
f 120/3/3 118/3/3 119/3/3
f 123/3/3 122/3/3 121/3/3
f 124/3/3 122/3/3 123/3/3
f 127/3/3 126/3/3 125/3/3
f 128/3/3 126/3/3 127/3/3
f 131/3/3 130/3/3 129/3/3
f 132/3/3 130/3/3 131/3/3
f 133/2/3 132/2/3 131/2/3
f 134/2/3 132/2/3 133/2/3
f 135/3/3 134/3/3 133/3/3
f 136/3/3 134/3/3 135/3/3
f 137/2/3 136/2/3 135/2/3
f 138/2/3 136/2/3 137/2/3
f 139/3/3 138/3/3 137/3/3
f 140/3/3 138/3/3 139/3/3
f 143/3/3 142/3/3 141/3/3
f 144/3/3 142/3/3 143/3/3
f 145/2/3 144/2/3 143/2/3
f 146/3/3 142/3/3 144/3/3
f 146/2/3 144/2/3 145/2/3
f 147/3/3 146/3/3 145/3/3
f 148/3/3 142/3/3 146/3/3
f 148/3/3 146/3/3 147/3/3
f 149/2/3 148/2/3 147/2/3
f 150/3/3 142/3/3 148/3/3
f 150/2/3 148/2/3 149/2/3
f 151/3/3 150/3/3 149/3/3
f 152/3/3 142/3/3 150/3/3
f 152/3/3 150/3/3 151/3/3
f 153/3/4 154/3/4 155/3/4
f 155/3/4 154/3/4 156/3/4
f 157/3/4 158/3/4 159/3/4
f 159/3/4 158/3/4 160/3/4
f 160/3/4 158/3/4 162/3/4
f 161/3/4 162/3/4 163/3/4
f 162/3/4 158/3/4 164/3/4
f 163/3/4 162/3/4 164/3/4
f 164/3/4 158/3/4 166/3/4
f 165/3/4 166/3/4 167/3/4
f 166/3/4 158/3/4 168/3/4
f 167/3/4 166/3/4 168/3/4
f 169/1/4 170/1/4 171/1/4
f 171/1/4 170/1/4 172/1/4
f 173/1/4 174/1/4 175/1/4
f 175/1/4 174/1/4 176/1/4
f 183/3/5 178/3/5 177/3/5
f 184/3/5 180/3/5 179/3/5
f 185/3/5 180/3/5 184/3/5
f 186/3/5 182/3/5 181/3/5
f 187/3/5 185/3/5 184/3/5
f 187/3/5 186/3/5 185/3/5
f 187/3/5 183/3/5 177/3/5
f 187/3/5 184/3/5 183/3/5
f 188/3/5 186/3/5 187/3/5
f 189/3/5 186/3/5 188/3/5
f 190/3/5 182/3/5 186/3/5
f 190/3/5 186/3/5 189/3/5
f 191/3/5 187/3/5 177/3/5
f 191/2/5 188/2/5 187/2/5
f 192/3/5 189/3/5 188/3/5
f 192/2/5 188/2/5 191/2/5
f 193/2/5 190/2/5 189/2/5
f 193/3/5 189/3/5 192/3/5
f 194/3/5 182/3/5 190/3/5
f 194/2/5 190/2/5 193/2/5
f 195/3/5 191/3/5 177/3/5
f 195/3/5 193/3/5 192/3/5
f 195/3/5 194/3/5 193/3/5
f 195/3/5 192/3/5 191/3/5
f 196/3/5 182/3/5 194/3/5
f 196/3/5 194/3/5 195/3/5
f 199/3/5 198/3/5 197/3/5
f 200/3/5 198/3/5 199/3/5
f 201/3/5 198/3/5 200/3/5
f 202/3/5 198/3/5 201/3/5
f 203/3/5 198/3/5 202/3/5
f 204/3/5 198/3/5 203/3/5
f 205/1/5 201/1/5 200/1/5
f 206/1/5 201/1/5 205/1/5
f 207/1/5 203/1/5 202/1/5
f 208/1/5 203/1/5 207/1/5
f 209/3/6 210/3/6 215/3/6
f 211/3/6 212/3/6 216/3/6
f 216/3/6 212/3/6 217/3/6
f 213/3/6 214/3/6 218/3/6
f 216/3/6 217/3/6 219/3/6
f 217/3/6 218/3/6 219/3/6
f 209/3/6 215/3/6 219/3/6
f 215/3/6 216/3/6 219/3/6
f 219/3/6 218/3/6 220/3/6
f 220/3/6 218/3/6 221/3/6
f 218/3/6 214/3/6 222/3/6
f 221/3/6 218/3/6 222/3/6
f 209/3/6 219/3/6 223/3/6
f 219/2/6 220/2/6 224/2/6
f 223/3/6 219/3/6 224/3/6
f 220/3/6 221/3/6 225/3/6
f 224/2/6 220/2/6 225/2/6
f 221/2/6 222/2/6 226/2/6
f 225/3/6 221/3/6 226/3/6
f 222/3/6 214/3/6 227/3/6
f 226/2/6 222/2/6 227/2/6
f 227/3/6 214/3/6 228/3/6
f 229/3/6 230/3/6 233/3/6
f 233/3/6 230/3/6 234/3/6
f 231/3/6 232/3/6 235/3/6
f 235/3/6 232/3/6 236/3/6
f 237/3/6 238/3/6 243/3/6
f 238/2/6 239/2/6 244/2/6
f 243/3/6 238/3/6 244/3/6
f 239/3/6 240/3/6 245/3/6
f 244/2/6 239/2/6 245/2/6
f 240/2/6 241/2/6 246/2/6
f 245/3/6 240/3/6 246/3/6
f 241/3/6 242/3/6 247/3/6
f 246/2/6 241/2/6 247/2/6
f 247/3/6 242/3/6 248/3/6
f 249/3/6 250/3/6 253/3/6
f 253/3/6 250/3/6 254/3/6
f 251/3/6 252/3/6 255/3/6
f 255/3/6 252/3/6 256/3/6
f 257/3/6 258/3/6 261/3/6
f 261/3/6 258/3/6 262/3/6
f 259/3/6 260/3/6 263/3/6
f 263/3/6 260/3/6 264/3/6
f 265/1/6 266/1/6 269/1/6
f 269/1/6 266/1/6 270/1/6
f 267/1/6 268/1/6 271/1/6
f 271/1/6 268/1/6 272/1/6
f 273/3/6 274/3/6 277/3/6
f 275/3/6 276/3/6 278/3/6
f 273/3/6 277/3/6 279/3/6
f 277/3/6 278/3/6 279/3/6
f 278/3/6 276/3/6 280/3/6
f 279/3/6 278/3/6 280/3/6
