# MagicaVoxel @ Ephtracy

# group
o 

# material
mtllib Robot.vox-76.mtl
usemtl palette

# normals
vn -1 0 0
vn 1 0 0
vn 0 0 1
vn 0 0 -1
vn 0 -1 0
vn 0 1 0

# texcoords
vt 0.791016 0.5
vt 0.794922 0.5
vt 0.798828 0.5
vt 0.970703 0.5

# verts
v 5.4 0.1 0.7
v 5.4 0.1 -0.3
v 5.4 0.2 0.8
v 5.4 0.2 0.7
v 5.4 0.2 -0.3
v 5.4 0.2 -0.4
v 5.4 0.6 0.8
v 5.4 0.6 0.7
v 5.4 0.6 -0.3
v 5.4 0.6 -0.4
v 5.4 0.7 0.7
v 5.4 0.7 -0.3
v 5.5 0.1 0.8
v 5.5 0.1 0.7
v 5.5 0.1 -0.3
v 5.5 0.1 -0.4
v 5.5 0.2 0.8
v 5.5 0.2 0.7
v 5.5 0.2 -0.3
v 5.5 0.2 -0.4
v 5.5 0.6 0.8
v 5.5 0.6 0.7
v 5.5 0.6 -0.3
v 5.5 0.6 -0.4
v 5.5 0.7 0.8
v 5.5 0.7 0.7
v 5.5 0.7 -0.3
v 5.5 0.7 -0.4
v 5.6 0.5 0.1
v 5.6 0.5 0
v 5.6 0.6 0.2
v 5.6 0.6 0.1
v 5.6 0.6 0
v 5.6 0.7 0.2
v 5.6 0.7 0.1
v 5.7 0.5 -0.1
v 5.7 0.5 -0.2
v 5.7 0.6 0.6
v 5.7 0.6 0.5
v 5.7 0.6 0.3
v 5.7 0.6 0.2
v 5.7 0.6 -0.1
v 5.7 0.6 -0.2
v 5.7 0.7 0.6
v 5.7 0.7 0.5
v 5.7 0.7 0.3
v 5.7 0.7 0.2
v 5.8 0.6 -0.1
v 5.8 0.6 -0.2
v 5.8 0.7 -0.1
v 5.8 0.7 -0.2
v 5.9 0.6 0.1
v 5.9 0.6 0
v 5.9 0.7 0.1
v 5.9 0.7 0
v 6 0.5 0.5
v 6 0.5 0.4
v 6 0.6 0.7
v 6 0.6 0.6
v 6 0.6 0.5
v 6 0.6 0.4
v 6 0.6 -0.2
v 6 0.6 -0.3
v 6 0.7 0.7
v 6 0.7 0.6
v 6 0.7 -0.2
v 6 0.7 -0.3
v 6.1 0.6 0.6
v 6.1 0.6 0.5
v 6.1 0.6 0.3
v 6.1 0.6 0.1
v 6.1 0.6 0
v 6.1 0.6 -0.1
v 6.1 0.6 -0.2
v 6.1 0.7 0.6
v 6.1 0.7 -0.2
v 5.5 0.5 0.1
v 5.5 0.5 0
v 5.5 0.6 0.6
v 5.5 0.6 0.5
v 5.5 0.6 0.4
v 5.5 0.6 0.3
v 5.5 0.6 0.1
v 5.5 0.6 0
v 5.5 0.6 -0.1
v 5.5 0.6 -0.2
v 5.5 0.7 0.6
v 5.5 0.7 0.4
v 5.5 0.7 0.3
v 5.5 0.7 -0.2
v 5.6 0.5 -0.1
v 5.6 0.5 -0.2
v 5.6 0.6 0.7
v 5.6 0.6 0.6
v 5.6 0.6 0.4
v 5.6 0.6 0.3
v 5.6 0.6 -0.1
v 5.6 0.6 -0.2
v 5.6 0.6 -0.3
v 5.6 0.7 0.7
v 5.6 0.7 0.6
v 5.6 0.7 0.4
v 5.6 0.7 0.3
v 5.6 0.7 -0.2
v 5.6 0.7 -0.3
v 5.7 0.6 0.2
v 5.7 0.6 0.1
v 5.7 0.7 0.2
v 5.7 0.7 0.1
v 5.8 0.6 0.6
v 5.8 0.6 0.5
v 5.8 0.6 0.3
v 5.8 0.6 0.2
v 5.8 0.7 0.6
v 5.8 0.7 0.5
v 5.8 0.7 0.3
v 5.8 0.7 0.2
v 5.9 0.5 0.5
v 5.9 0.5 0.4
v 5.9 0.6 0.5
v 5.9 0.6 0.4
v 5.9 0.6 -0.1
v 5.9 0.6 -0.2
v 5.9 0.7 -0.1
v 5.9 0.7 -0.2
v 6 0.6 0.1
v 6 0.6 0
v 6 0.7 0.1
v 6 0.7 0
v 6.1 0.1 0.8
v 6.1 0.1 0.7
v 6.1 0.1 -0.3
v 6.1 0.1 -0.4
v 6.1 0.2 0.8
v 6.1 0.2 0.7
v 6.1 0.2 -0.3
v 6.1 0.2 -0.4
v 6.1 0.6 0.8
v 6.1 0.6 0.7
v 6.1 0.6 -0.3
v 6.1 0.6 -0.4
v 6.1 0.7 0.8
v 6.1 0.7 0.7
v 6.1 0.7 -0.3
v 6.1 0.7 -0.4
v 6.2 0.1 0.7
v 6.2 0.1 -0.3
v 6.2 0.2 0.8
v 6.2 0.2 0.7
v 6.2 0.2 -0.3
v 6.2 0.2 -0.4
v 6.2 0.6 0.8
v 6.2 0.6 0.7
v 6.2 0.6 -0.3
v 6.2 0.6 -0.4
v 6.2 0.7 0.7
v 6.2 0.7 -0.3
v 5.4 0.2 0.8
v 5.4 0.6 0.8
v 5.5 0.1 0.8
v 5.5 0.2 0.8
v 5.5 0.6 0.8
v 5.5 0.7 0.8
v 6.1 0.1 0.8
v 6.1 0.2 0.8
v 6.1 0.6 0.8
v 6.1 0.7 0.8
v 6.2 0.2 0.8
v 6.2 0.6 0.8
v 5.4 0.1 0.7
v 5.4 0.2 0.7
v 5.4 0.6 0.7
v 5.4 0.7 0.7
v 5.5 0.1 0.7
v 5.5 0.2 0.7
v 5.5 0.6 0.7
v 5.5 0.7 0.7
v 6.1 0.1 0.7
v 6.1 0.2 0.7
v 6.1 0.6 0.7
v 6.1 0.7 0.7
v 6.2 0.1 0.7
v 6.2 0.2 0.7
v 6.2 0.6 0.7
v 6.2 0.7 0.7
v 5.7 0.6 0.6
v 5.7 0.7 0.6
v 5.8 0.6 0.6
v 5.8 0.7 0.6
v 5.5 0.6 0.4
v 5.5 0.7 0.4
v 5.6 0.6 0.4
v 5.6 0.7 0.4
v 5.9 0.5 0.4
v 5.9 0.6 0.4
v 6 0.5 0.4
v 6 0.6 0.4
v 5.7 0.6 0.3
v 5.7 0.7 0.3
v 5.8 0.6 0.3
v 5.8 0.7 0.3
v 5.6 0.6 0.2
v 5.6 0.7 0.2
v 5.7 0.6 0.2
v 5.7 0.7 0.2
v 5.9 0.6 0.1
v 5.9 0.7 0.1
v 6 0.6 0.1
v 6 0.7 0.1
v 5.5 0.5 0
v 5.5 0.6 0
v 5.6 0.5 0
v 5.6 0.6 0
v 5.8 0.6 -0.1
v 5.8 0.7 -0.1
v 5.9 0.6 -0.1
v 5.9 0.7 -0.1
v 5.5 0.6 -0.2
v 5.5 0.7 -0.2
v 5.6 0.5 -0.2
v 5.6 0.6 -0.2
v 5.6 0.7 -0.2
v 5.7 0.5 -0.2
v 5.7 0.6 -0.2
v 6 0.6 -0.2
v 6 0.7 -0.2
v 6.1 0.6 -0.2
v 6.1 0.7 -0.2
v 5.6 0.6 -0.3
v 5.6 0.7 -0.3
v 5.7 0.6 -0.3
v 5.8 0.6 -0.3
v 5.9 0.6 -0.3
v 6 0.6 -0.3
v 6 0.7 -0.3
v 5.6 0.6 0.7
v 5.6 0.7 0.7
v 5.8 0.6 0.7
v 5.9 0.6 0.7
v 6 0.6 0.7
v 6 0.7 0.7
v 5.5 0.6 0.6
v 5.5 0.7 0.6
v 5.6 0.6 0.6
v 5.6 0.7 0.6
v 6 0.6 0.6
v 6 0.7 0.6
v 6.1 0.6 0.6
v 6.1 0.7 0.6
v 5.7 0.6 0.5
v 5.7 0.7 0.5
v 5.8 0.6 0.5
v 5.8 0.7 0.5
v 5.9 0.5 0.5
v 5.9 0.6 0.5
v 6 0.5 0.5
v 6 0.6 0.5
v 5.5 0.6 0.3
v 5.5 0.7 0.3
v 5.6 0.6 0.3
v 5.6 0.7 0.3
v 5.7 0.6 0.2
v 5.7 0.7 0.2
v 5.8 0.6 0.2
v 5.8 0.7 0.2
v 5.5 0.5 0.1
v 5.5 0.6 0.1
v 5.6 0.5 0.1
v 5.6 0.6 0.1
v 5.6 0.7 0.1
v 5.7 0.6 0.1
v 5.7 0.7 0.1
v 5.9 0.6 0
v 5.9 0.7 0
v 6 0.6 0
v 6 0.7 0
v 5.6 0.5 -0.1
v 5.6 0.6 -0.1
v 5.7 0.5 -0.1
v 5.7 0.6 -0.1
v 5.8 0.6 -0.2
v 5.8 0.7 -0.2
v 5.9 0.6 -0.2
v 5.9 0.7 -0.2
v 5.4 0.1 -0.3
v 5.4 0.2 -0.3
v 5.4 0.6 -0.3
v 5.4 0.7 -0.3
v 5.5 0.1 -0.3
v 5.5 0.2 -0.3
v 5.5 0.6 -0.3
v 5.5 0.7 -0.3
v 6.1 0.1 -0.3
v 6.1 0.2 -0.3
v 6.1 0.6 -0.3
v 6.1 0.7 -0.3
v 6.2 0.1 -0.3
v 6.2 0.2 -0.3
v 6.2 0.6 -0.3
v 6.2 0.7 -0.3
v 5.4 0.2 -0.4
v 5.4 0.6 -0.4
v 5.5 0.1 -0.4
v 5.5 0.2 -0.4
v 5.5 0.6 -0.4
v 5.5 0.7 -0.4
v 6.1 0.1 -0.4
v 6.1 0.2 -0.4
v 6.1 0.6 -0.4
v 6.1 0.7 -0.4
v 6.2 0.2 -0.4
v 6.2 0.6 -0.4
v 5.5 0.1 0.8
v 6.1 0.1 0.8
v 5.4 0.1 0.7
v 5.5 0.1 0.7
v 6.1 0.1 0.7
v 6.2 0.1 0.7
v 5.4 0.1 -0.3
v 5.5 0.1 -0.3
v 6.1 0.1 -0.3
v 6.2 0.1 -0.3
v 5.5 0.1 -0.4
v 6.1 0.1 -0.4
v 5.4 0.2 0.8
v 5.5 0.2 0.8
v 6.1 0.2 0.8
v 6.2 0.2 0.8
v 5.4 0.2 0.7
v 5.5 0.2 0.7
v 6.1 0.2 0.7
v 6.2 0.2 0.7
v 5.4 0.2 -0.3
v 5.5 0.2 -0.3
v 6.1 0.2 -0.3
v 6.2 0.2 -0.3
v 5.4 0.2 -0.4
v 5.5 0.2 -0.4
v 6.1 0.2 -0.4
v 6.2 0.2 -0.4
v 5.9 0.5 0.5
v 6 0.5 0.5
v 5.9 0.5 0.4
v 6 0.5 0.4
v 5.5 0.5 0.1
v 5.6 0.5 0.1
v 5.5 0.5 0
v 5.6 0.5 0
v 5.6 0.5 -0.1
v 5.7 0.5 -0.1
v 5.6 0.5 -0.2
v 5.7 0.5 -0.2
v 5.4 0.6 0.8
v 5.5 0.6 0.8
v 6.1 0.6 0.8
v 6.2 0.6 0.8
v 5.4 0.6 0.7
v 5.5 0.6 0.7
v 5.6 0.6 0.7
v 5.8 0.6 0.7
v 5.9 0.6 0.7
v 6 0.6 0.7
v 6.1 0.6 0.7
v 6.2 0.6 0.7
v 5.5 0.6 0.6
v 5.6 0.6 0.6
v 5.7 0.6 0.6
v 5.8 0.6 0.6
v 5.9 0.6 0.6
v 6 0.6 0.6
v 6.1 0.6 0.6
v 5.5 0.6 0.5
v 5.6 0.6 0.5
v 5.7 0.6 0.5
v 5.8 0.6 0.5
v 5.9 0.6 0.5
v 6 0.6 0.5
v 6.1 0.6 0.5
v 5.5 0.6 0.4
v 5.6 0.6 0.4
v 5.7 0.6 0.4
v 5.9 0.6 0.4
v 6 0.6 0.4
v 5.5 0.6 0.3
v 5.6 0.6 0.3
v 5.7 0.6 0.3
v 5.8 0.6 0.3
v 5.9 0.6 0.3
v 6 0.6 0.3
v 6.1 0.6 0.3
v 5.6 0.6 0.2
v 5.7 0.6 0.2
v 5.8 0.6 0.2
v 5.9 0.6 0.2
v 5.5 0.6 0.1
v 5.6 0.6 0.1
v 5.7 0.6 0.1
v 5.9 0.6 0.1
v 6 0.6 0.1
v 6.1 0.6 0.1
v 5.5 0.6 0
v 5.6 0.6 0
v 5.7 0.6 0
v 5.8 0.6 0
v 5.9 0.6 0
v 6 0.6 0
v 6.1 0.6 0
v 5.5 0.6 -0.1
v 5.6 0.6 -0.1
v 5.7 0.6 -0.1
v 5.8 0.6 -0.1
v 5.9 0.6 -0.1
v 6 0.6 -0.1
v 6.1 0.6 -0.1
v 5.5 0.6 -0.2
v 5.6 0.6 -0.2
v 5.7 0.6 -0.2
v 5.8 0.6 -0.2
v 5.9 0.6 -0.2
v 6 0.6 -0.2
v 6.1 0.6 -0.2
v 5.4 0.6 -0.3
v 5.5 0.6 -0.3
v 5.6 0.6 -0.3
v 5.7 0.6 -0.3
v 5.8 0.6 -0.3
v 5.9 0.6 -0.3
v 6 0.6 -0.3
v 6.1 0.6 -0.3
v 6.2 0.6 -0.3
v 5.4 0.6 -0.4
v 5.5 0.6 -0.4
v 6.1 0.6 -0.4
v 6.2 0.6 -0.4
v 5.5 0.7 0.8
v 6.1 0.7 0.8
v 5.4 0.7 0.7
v 5.5 0.7 0.7
v 5.6 0.7 0.7
v 6 0.7 0.7
v 6.1 0.7 0.7
v 6.2 0.7 0.7
v 5.5 0.7 0.6
v 5.6 0.7 0.6
v 5.7 0.7 0.6
v 5.8 0.7 0.6
v 6 0.7 0.6
v 6.1 0.7 0.6
v 5.7 0.7 0.5
v 5.8 0.7 0.5
v 5.5 0.7 0.4
v 5.6 0.7 0.4
v 5.5 0.7 0.3
v 5.6 0.7 0.3
v 5.7 0.7 0.3
v 5.8 0.7 0.3
v 5.6 0.7 0.2
v 5.7 0.7 0.2
v 5.8 0.7 0.2
v 5.6 0.7 0.1
v 5.7 0.7 0.1
v 5.9 0.7 0.1
v 6 0.7 0.1
v 5.9 0.7 0
v 6 0.7 0
v 5.8 0.7 -0.1
v 5.9 0.7 -0.1
v 5.5 0.7 -0.2
v 5.6 0.7 -0.2
v 5.8 0.7 -0.2
v 5.9 0.7 -0.2
v 6 0.7 -0.2
v 6.1 0.7 -0.2
v 5.4 0.7 -0.3
v 5.5 0.7 -0.3
v 5.6 0.7 -0.3
v 6 0.7 -0.3
v 6.1 0.7 -0.3
v 6.2 0.7 -0.3
v 5.5 0.7 -0.4
v 6.1 0.7 -0.4

# faces
f 4/4/1 2/4/1 1/4/1
f 5/4/1 2/4/1 4/4/1
f 7/4/1 4/4/1 3/4/1
f 7/4/1 6/4/1 5/4/1
f 7/4/1 5/4/1 4/4/1
f 8/4/1 6/4/1 7/4/1
f 9/4/1 6/4/1 8/4/1
f 10/4/1 6/4/1 9/4/1
f 11/4/1 9/4/1 8/4/1
f 12/4/1 9/4/1 11/4/1
f 17/4/1 14/4/1 13/4/1
f 18/4/1 14/4/1 17/4/1
f 19/4/1 16/4/1 15/4/1
f 20/4/1 16/4/1 19/4/1
f 25/4/1 22/4/1 21/4/1
f 26/4/1 22/4/1 25/4/1
f 27/4/1 24/4/1 23/4/1
f 28/4/1 24/4/1 27/4/1
f 32/1/1 30/1/1 29/1/1
f 33/1/1 30/1/1 32/1/1
f 34/2/1 32/2/1 31/2/1
f 35/2/1 32/2/1 34/2/1
f 42/2/1 37/2/1 36/2/1
f 43/2/1 37/2/1 42/2/1
f 44/2/1 39/2/1 38/2/1
f 45/2/1 39/2/1 44/2/1
f 46/2/1 41/2/1 40/2/1
f 47/2/1 41/2/1 46/2/1
f 50/2/1 49/2/1 48/2/1
f 51/2/1 49/2/1 50/2/1
f 54/2/1 53/2/1 52/2/1
f 55/2/1 53/2/1 54/2/1
f 60/2/1 57/2/1 56/2/1
f 61/2/1 57/2/1 60/2/1
f 64/4/1 59/4/1 58/4/1
f 65/4/1 59/4/1 64/4/1
f 66/4/1 63/4/1 62/4/1
f 67/4/1 63/4/1 66/4/1
f 75/4/1 69/4/1 68/4/1
f 75/4/1 74/4/1 73/4/1
f 75/4/1 73/4/1 72/4/1
f 75/4/1 72/4/1 71/4/1
f 75/4/1 71/4/1 70/4/1
f 75/4/1 70/4/1 69/4/1
f 76/4/1 74/4/1 75/4/1
f 77/4/2 78/4/2 83/4/2
f 83/4/2 78/4/2 84/4/2
f 80/4/2 81/4/2 87/4/2
f 79/4/2 80/4/2 87/4/2
f 87/4/2 81/4/2 88/4/2
f 85/4/2 86/4/2 89/4/2
f 84/4/2 85/4/2 89/4/2
f 82/4/2 83/4/2 89/4/2
f 83/4/2 84/4/2 89/4/2
f 89/4/2 86/4/2 90/4/2
f 91/1/2 92/1/2 97/1/2
f 97/1/2 92/1/2 98/1/2
f 93/4/2 94/4/2 100/4/2
f 100/4/2 94/4/2 101/4/2
f 95/2/2 96/2/2 102/2/2
f 102/2/2 96/2/2 103/2/2
f 98/4/2 99/4/2 104/4/2
f 104/4/2 99/4/2 105/4/2
f 106/2/2 107/2/2 108/2/2
f 108/2/2 107/2/2 109/2/2
f 110/2/2 111/2/2 114/2/2
f 114/2/2 111/2/2 115/2/2
f 112/2/2 113/2/2 116/2/2
f 116/2/2 113/2/2 117/2/2
f 118/1/2 119/1/2 120/1/2
f 120/1/2 119/1/2 121/1/2
f 122/2/2 123/2/2 124/2/2
f 124/2/2 123/2/2 125/2/2
f 126/2/2 127/2/2 128/2/2
f 128/2/2 127/2/2 129/2/2
f 130/4/2 131/4/2 134/4/2
f 134/4/2 131/4/2 135/4/2
f 132/4/2 133/4/2 136/4/2
f 136/4/2 133/4/2 137/4/2
f 138/4/2 139/4/2 142/4/2
f 142/4/2 139/4/2 143/4/2
f 140/4/2 141/4/2 144/4/2
f 144/4/2 141/4/2 145/4/2
f 146/4/2 147/4/2 149/4/2
f 149/4/2 147/4/2 150/4/2
f 148/4/2 149/4/2 152/4/2
f 150/4/2 151/4/2 152/4/2
f 149/4/2 150/4/2 152/4/2
f 152/4/2 151/4/2 153/4/2
f 153/4/2 151/4/2 154/4/2
f 154/4/2 151/4/2 155/4/2
f 153/4/2 154/4/2 156/4/2
f 156/4/2 154/4/2 157/4/2
f 161/4/3 159/4/3 158/4/3
f 162/4/3 159/4/3 161/4/3
f 164/4/3 161/4/3 160/4/3
f 164/4/3 163/4/3 162/4/3
f 164/4/3 162/4/3 161/4/3
f 165/4/3 163/4/3 164/4/3
f 166/4/3 163/4/3 165/4/3
f 167/4/3 163/4/3 166/4/3
f 168/4/3 166/4/3 165/4/3
f 169/4/3 166/4/3 168/4/3
f 174/4/3 171/4/3 170/4/3
f 175/4/3 171/4/3 174/4/3
f 176/4/3 173/4/3 172/4/3
f 177/4/3 173/4/3 176/4/3
f 182/4/3 179/4/3 178/4/3
f 183/4/3 179/4/3 182/4/3
f 184/4/3 181/4/3 180/4/3
f 185/4/3 181/4/3 184/4/3
f 188/2/3 187/2/3 186/2/3
f 189/2/3 187/2/3 188/2/3
f 192/2/3 191/2/3 190/2/3
f 193/2/3 191/2/3 192/2/3
f 196/2/3 195/2/3 194/2/3
f 197/2/3 195/2/3 196/2/3
f 200/2/3 199/2/3 198/2/3
f 201/2/3 199/2/3 200/2/3
f 204/2/3 203/2/3 202/2/3
f 205/2/3 203/2/3 204/2/3
f 208/2/3 207/2/3 206/2/3
f 209/2/3 207/2/3 208/2/3
f 212/2/3 211/2/3 210/2/3
f 213/2/3 211/2/3 212/2/3
f 216/2/3 215/2/3 214/2/3
f 217/2/3 215/2/3 216/2/3
f 221/4/3 219/4/3 218/4/3
f 222/4/3 219/4/3 221/4/3
f 223/2/3 221/2/3 220/2/3
f 224/2/3 221/2/3 223/2/3
f 227/4/3 226/4/3 225/4/3
f 228/4/3 226/4/3 227/4/3
f 231/4/3 230/4/3 229/4/3
f 232/4/3 230/4/3 231/4/3
f 233/4/3 230/4/3 232/4/3
f 234/4/3 230/4/3 233/4/3
f 235/4/3 230/4/3 234/4/3
f 236/4/4 237/4/4 238/4/4
f 238/4/4 237/4/4 239/4/4
f 239/4/4 237/4/4 240/4/4
f 240/4/4 237/4/4 241/4/4
f 242/4/4 243/4/4 244/4/4
f 244/4/4 243/4/4 245/4/4
f 246/4/4 247/4/4 248/4/4
f 248/4/4 247/4/4 249/4/4
f 250/2/4 251/2/4 252/2/4
f 252/2/4 251/2/4 253/2/4
f 254/3/4 255/3/4 256/3/4
f 256/3/4 255/3/4 257/3/4
f 258/2/4 259/2/4 260/2/4
f 260/2/4 259/2/4 261/2/4
f 262/2/4 263/2/4 264/2/4
f 264/2/4 263/2/4 265/2/4
f 266/1/4 267/1/4 268/1/4
f 268/1/4 267/1/4 269/1/4
f 269/2/4 270/2/4 271/2/4
f 271/2/4 270/2/4 272/2/4
f 273/2/4 274/2/4 275/2/4
f 275/2/4 274/2/4 276/2/4
f 277/1/4 278/1/4 279/1/4
f 279/1/4 278/1/4 280/1/4
f 281/2/4 282/2/4 283/2/4
f 283/2/4 282/2/4 284/2/4
f 285/4/4 286/4/4 289/4/4
f 289/4/4 286/4/4 290/4/4
f 287/4/4 288/4/4 291/4/4
f 291/4/4 288/4/4 292/4/4
f 293/4/4 294/4/4 297/4/4
f 297/4/4 294/4/4 298/4/4
f 295/4/4 296/4/4 299/4/4
f 299/4/4 296/4/4 300/4/4
f 301/4/4 302/4/4 304/4/4
f 304/4/4 302/4/4 305/4/4
f 303/4/4 304/4/4 307/4/4
f 305/4/4 306/4/4 307/4/4
f 304/4/4 305/4/4 307/4/4
f 307/4/4 306/4/4 308/4/4
f 308/4/4 306/4/4 309/4/4
f 309/4/4 306/4/4 310/4/4
f 308/4/4 309/4/4 311/4/4
f 311/4/4 309/4/4 312/4/4
f 316/4/5 314/4/5 313/4/5
f 317/4/5 314/4/5 316/4/5
f 319/4/5 316/4/5 315/4/5
f 319/4/5 318/4/5 317/4/5
f 319/4/5 317/4/5 316/4/5
f 320/4/5 318/4/5 319/4/5
f 321/4/5 318/4/5 320/4/5
f 322/4/5 318/4/5 321/4/5
f 323/4/5 321/4/5 320/4/5
f 324/4/5 321/4/5 323/4/5
f 329/4/5 326/4/5 325/4/5
f 330/4/5 326/4/5 329/4/5
f 331/4/5 328/4/5 327/4/5
f 332/4/5 328/4/5 331/4/5
f 337/4/5 334/4/5 333/4/5
f 338/4/5 334/4/5 337/4/5
f 339/4/5 336/4/5 335/4/5
f 340/4/5 336/4/5 339/4/5
f 341/3/6 342/3/6 343/3/6
f 343/3/6 342/3/6 344/3/6
f 345/3/6 346/3/6 347/3/6
f 347/3/6 346/3/6 348/3/6
f 349/3/6 350/3/6 351/3/6
f 351/3/6 350/3/6 352/3/6
f 353/4/6 354/4/6 357/4/6
f 357/4/6 354/4/6 358/4/6
f 355/4/6 356/4/6 363/4/6
f 363/4/6 356/4/6 364/4/6
f 359/1/6 360/1/6 366/1/6
f 366/1/6 360/1/6 367/1/6
f 360/2/6 361/2/6 368/2/6
f 367/1/6 360/1/6 368/1/6
f 361/1/6 362/1/6 369/1/6
f 368/2/6 361/2/6 369/2/6
f 369/1/6 362/1/6 370/1/6
f 365/1/6 366/1/6 372/1/6
f 366/2/6 367/2/6 373/2/6
f 372/1/6 366/1/6 373/1/6
f 373/2/6 367/2/6 374/2/6
f 368/1/6 369/1/6 375/1/6
f 369/3/6 370/3/6 376/3/6
f 375/1/6 369/1/6 376/1/6
f 370/1/6 371/1/6 377/1/6
f 376/3/6 370/3/6 377/3/6
f 377/1/6 371/1/6 378/1/6
f 372/2/6 373/2/6 379/2/6
f 373/1/6 374/1/6 380/1/6
f 379/2/6 373/2/6 380/2/6
f 374/3/6 375/3/6 381/3/6
f 380/1/6 374/1/6 381/1/6
f 375/1/6 376/1/6 382/1/6
f 377/2/6 378/2/6 383/2/6
f 380/2/6 381/2/6 385/2/6
f 381/3/6 375/3/6 386/3/6
f 385/2/6 381/2/6 386/2/6
f 375/1/6 382/1/6 387/1/6
f 386/3/6 375/3/6 387/3/6
f 382/2/6 383/2/6 388/2/6
f 387/1/6 382/1/6 388/1/6
f 383/2/6 378/2/6 389/2/6
f 388/2/6 383/2/6 389/2/6
f 389/2/6 378/2/6 390/2/6
f 384/1/6 385/1/6 391/1/6
f 385/1/6 386/1/6 391/1/6
f 391/1/6 386/1/6 392/1/6
f 387/3/6 388/3/6 393/3/6
f 388/2/6 389/2/6 394/2/6
f 393/3/6 388/3/6 394/3/6
f 384/1/6 391/1/6 395/1/6
f 395/1/6 391/1/6 396/1/6
f 392/1/6 393/1/6 397/1/6
f 393/1/6 394/1/6 397/1/6
f 394/2/6 389/2/6 398/2/6
f 397/1/6 394/1/6 398/1/6
f 389/1/6 390/1/6 399/1/6
f 398/2/6 389/2/6 399/2/6
f 399/1/6 390/1/6 400/1/6
f 397/1/6 398/1/6 402/1/6
f 396/1/6 397/1/6 402/1/6
f 402/1/6 398/1/6 403/1/6
f 403/1/6 398/1/6 404/1/6
f 404/1/6 398/1/6 405/1/6
f 399/3/6 400/3/6 406/3/6
f 406/3/6 400/3/6 407/3/6
f 401/2/6 402/2/6 408/2/6
f 402/1/6 403/1/6 409/1/6
f 408/2/6 402/2/6 409/2/6
f 403/3/6 404/3/6 410/3/6
f 409/1/6 403/1/6 410/1/6
f 404/2/6 405/2/6 411/2/6
f 410/3/6 404/3/6 411/3/6
f 405/2/6 406/2/6 411/2/6
f 406/2/6 407/2/6 411/2/6
f 411/2/6 407/2/6 412/2/6
f 412/2/6 407/2/6 413/2/6
f 413/2/6 407/2/6 414/2/6
f 408/1/6 409/1/6 415/1/6
f 415/1/6 409/1/6 416/1/6
f 410/2/6 411/2/6 417/2/6
f 417/2/6 411/2/6 418/2/6
f 412/3/6 413/3/6 419/3/6
f 413/1/6 414/1/6 420/1/6
f 419/3/6 413/3/6 420/3/6
f 420/1/6 414/1/6 421/1/6
f 416/2/6 417/2/6 424/2/6
f 417/1/6 418/1/6 425/1/6
f 424/2/6 417/2/6 425/2/6
f 418/3/6 419/3/6 426/3/6
f 425/1/6 418/1/6 426/1/6
f 419/1/6 420/1/6 427/1/6
f 426/3/6 419/3/6 427/3/6
f 427/1/6 420/1/6 428/1/6
f 422/4/6 423/4/6 431/4/6
f 431/4/6 423/4/6 432/4/6
f 429/4/6 430/4/6 433/4/6
f 433/4/6 430/4/6 434/4/6
f 435/4/6 436/4/6 438/4/6
f 438/4/6 436/4/6 439/4/6
f 439/4/6 436/4/6 440/4/6
f 440/4/6 436/4/6 441/4/6
f 437/4/6 438/4/6 443/4/6
f 438/4/6 439/4/6 443/4/6
f 443/4/6 439/4/6 444/4/6
f 441/4/6 442/4/6 447/4/6
f 440/4/6 441/4/6 447/4/6
f 447/4/6 442/4/6 448/4/6
f 445/2/6 446/2/6 449/2/6
f 449/2/6 446/2/6 450/2/6
f 437/4/6 443/4/6 451/4/6
f 437/4/6 451/4/6 453/4/6
f 451/2/6 452/2/6 453/2/6
f 453/2/6 452/2/6 454/2/6
f 455/2/6 456/2/6 458/2/6
f 458/2/6 456/2/6 459/2/6
f 457/2/6 458/2/6 460/2/6
f 460/2/6 458/2/6 461/2/6
f 462/2/6 463/2/6 464/2/6
f 464/2/6 463/2/6 465/2/6
f 437/4/6 453/4/6 468/4/6
f 466/2/6 467/2/6 470/2/6
f 470/2/6 467/2/6 471/2/6
f 448/4/6 442/4/6 473/4/6
f 468/4/6 469/4/6 474/4/6
f 437/4/6 468/4/6 474/4/6
f 474/4/6 469/4/6 475/4/6
f 475/4/6 469/4/6 476/4/6
f 472/4/6 473/4/6 477/4/6
f 473/4/6 442/4/6 478/4/6
f 477/4/6 473/4/6 478/4/6
f 478/4/6 442/4/6 479/4/6
f 475/4/6 476/4/6 480/4/6
f 476/4/6 477/4/6 480/4/6
f 477/4/6 478/4/6 480/4/6
f 480/4/6 478/4/6 481/4/6
