# MagicaVoxel @ Ephtracy

# group
o 

# material
mtllib Robot.vox-69.mtl
usemtl palette

# normals
vn -1 0 0
vn 1 0 0
vn 0 0 1
vn 0 0 -1
vn 0 -1 0
vn 0 1 0

# texcoords
vt 0.916016 0.5
vt 0.947266 0.5
vt 0.970703 0.5
vt 0.978516 0.5

# verts
v 5.4 0.1 -3.2
v 5.4 0.1 -4.2
v 5.4 0.2 -3.1
v 5.4 0.2 -3.2
v 5.4 0.2 -4.2
v 5.4 0.2 -4.3
v 5.4 0.6 -3.1
v 5.4 0.6 -3.2
v 5.4 0.6 -4.2
v 5.4 0.6 -4.3
v 5.4 0.7 -3.2
v 5.4 0.7 -4.2
v 5.5 0.1 -3.1
v 5.5 0.1 -3.2
v 5.5 0.1 -4.2
v 5.5 0.1 -4.3
v 5.5 0.2 -3.1
v 5.5 0.2 -3.2
v 5.5 0.2 -4.2
v 5.5 0.2 -4.3
v 5.5 0.6 -3.1
v 5.5 0.6 -3.2
v 5.5 0.6 -4.2
v 5.5 0.6 -4.3
v 5.5 0.7 -3.1
v 5.5 0.7 -3.2
v 5.5 0.7 -3.6
v 5.5 0.7 -3.7
v 5.5 0.7 -3.8
v 5.5 0.7 -4.2
v 5.5 0.7 -4.3
v 5.5 0.8 -3.2
v 5.5 0.8 -3.6
v 5.5 0.8 -3.7
v 5.5 0.8 -3.8
v 5.6 0.6 -3.8
v 5.6 0.6 -4
v 5.6 0.7 -4
v 5.6 0.8 -3.8
v 5.6 0.8 -4
v 5.7 0.6 -3.6
v 5.7 0.6 -3.7
v 5.7 0.7 -3.6
v 5.7 0.7 -3.7
v 5.8 0.6 -3.5
v 5.8 0.6 -3.6
v 5.8 0.6 -3.9
v 5.8 0.6 -4
v 5.8 0.6 -4.1
v 5.8 0.6 -4.2
v 5.8 0.7 -3.2
v 5.8 0.7 -3.3
v 5.8 0.7 -3.5
v 5.8 0.7 -3.6
v 5.8 0.7 -3.9
v 5.8 0.7 -4
v 5.8 0.7 -4.1
v 5.8 0.7 -4.2
v 5.8 0.8 -3.2
v 5.8 0.8 -3.3
v 5.9 0.6 -3.6
v 5.9 0.6 -3.7
v 5.9 0.7 -3.4
v 5.9 0.7 -3.5
v 5.9 0.7 -3.6
v 5.9 0.7 -3.7
v 5.9 0.7 -3.9
v 5.9 0.7 -4.1
v 5.9 0.8 -3.4
v 5.9 0.8 -3.5
v 5.9 0.8 -3.9
v 5.9 0.8 -4.1
v 6 0.7 -3.3
v 6 0.7 -3.4
v 6 0.8 -3.3
v 6 0.8 -3.4
v 6.1 0.6 -3.5
v 6.1 0.6 -3.6
v 6.1 0.7 -3.5
v 6.1 0.7 -3.6
v 5.5 0.6 -3.8
v 5.5 0.6 -4
v 5.5 0.7 -3.8
v 5.5 0.7 -4
v 5.6 0.6 -3.6
v 5.6 0.6 -3.7
v 5.6 0.6 -4.1
v 5.6 0.6 -4.2
v 5.6 0.7 -3.6
v 5.6 0.7 -3.7
v 5.6 0.7 -3.8
v 5.6 0.7 -4.1
v 5.6 0.7 -4.2
v 5.6 0.8 -3.7
v 5.6 0.8 -3.8
v 5.7 0.6 -3.5
v 5.7 0.6 -3.6
v 5.7 0.6 -3.9
v 5.7 0.6 -4
v 5.7 0.7 -3.2
v 5.7 0.7 -3.3
v 5.7 0.7 -3.4
v 5.7 0.7 -3.6
v 5.7 0.7 -4
v 5.7 0.8 -3.2
v 5.7 0.8 -3.4
v 5.7 0.8 -3.5
v 5.7 0.8 -3.6
v 5.7 0.8 -3.9
v 5.7 0.8 -4
v 5.8 0.6 -3.6
v 5.8 0.6 -3.7
v 5.8 0.7 -3.4
v 5.8 0.7 -3.5
v 5.8 0.7 -3.6
v 5.8 0.7 -3.7
v 5.8 0.7 -3.8
v 5.8 0.7 -3.9
v 5.8 0.8 -3.4
v 5.8 0.8 -3.5
v 5.8 0.8 -3.8
v 5.8 0.8 -3.9
v 5.9 0.7 -3.2
v 5.9 0.7 -3.3
v 5.9 0.8 -3.2
v 5.9 0.8 -3.3
v 6 0.6 -3.5
v 6 0.6 -3.6
v 6 0.7 -3.5
v 6 0.7 -3.6
v 6 0.7 -3.9
v 6 0.7 -4
v 6 0.8 -3.9
v 6 0.8 -4
v 6.1 0.1 -3.1
v 6.1 0.1 -3.2
v 6.1 0.1 -4.2
v 6.1 0.1 -4.3
v 6.1 0.2 -3.1
v 6.1 0.2 -3.2
v 6.1 0.2 -4.2
v 6.1 0.2 -4.3
v 6.1 0.6 -3.1
v 6.1 0.6 -3.2
v 6.1 0.6 -4.2
v 6.1 0.6 -4.3
v 6.1 0.7 -3.1
v 6.1 0.7 -3.2
v 6.1 0.7 -3.3
v 6.1 0.7 -3.5
v 6.1 0.7 -4
v 6.1 0.7 -4.1
v 6.1 0.7 -4.2
v 6.1 0.7 -4.3
v 6.1 0.8 -3.3
v 6.1 0.8 -3.5
v 6.1 0.8 -4
v 6.1 0.8 -4.1
v 6.2 0.1 -3.2
v 6.2 0.1 -4.2
v 6.2 0.2 -3.1
v 6.2 0.2 -3.2
v 6.2 0.2 -4.2
v 6.2 0.2 -4.3
v 6.2 0.6 -3.1
v 6.2 0.6 -3.2
v 6.2 0.6 -4.2
v 6.2 0.6 -4.3
v 6.2 0.7 -3.2
v 6.2 0.7 -4.2
v 5.4 0.2 -3.1
v 5.4 0.6 -3.1
v 5.5 0.1 -3.1
v 5.5 0.2 -3.1
v 5.5 0.6 -3.1
v 5.5 0.7 -3.1
v 6.1 0.1 -3.1
v 6.1 0.2 -3.1
v 6.1 0.6 -3.1
v 6.1 0.7 -3.1
v 6.2 0.2 -3.1
v 6.2 0.6 -3.1
v 5.4 0.1 -3.2
v 5.4 0.2 -3.2
v 5.4 0.6 -3.2
v 5.4 0.7 -3.2
v 5.5 0.1 -3.2
v 5.5 0.2 -3.2
v 5.5 0.6 -3.2
v 5.5 0.7 -3.2
v 5.5 0.8 -3.2
v 5.7 0.7 -3.2
v 5.7 0.8 -3.2
v 5.8 0.7 -3.2
v 5.8 0.8 -3.2
v 5.9 0.7 -3.2
v 5.9 0.8 -3.2
v 6.1 0.1 -3.2
v 6.1 0.2 -3.2
v 6.1 0.6 -3.2
v 6.1 0.7 -3.2
v 6.2 0.1 -3.2
v 6.2 0.2 -3.2
v 6.2 0.6 -3.2
v 6.2 0.7 -3.2
v 6 0.7 -3.3
v 6 0.8 -3.3
v 6.1 0.7 -3.3
v 6.1 0.8 -3.3
v 5.7 0.7 -3.4
v 5.7 0.8 -3.4
v 5.8 0.7 -3.4
v 5.8 0.8 -3.4
v 5.9 0.7 -3.4
v 5.9 0.8 -3.4
v 6 0.7 -3.4
v 6 0.8 -3.4
v 5.7 0.6 -3.6
v 5.7 0.7 -3.6
v 5.8 0.6 -3.6
v 5.8 0.7 -3.6
v 6 0.6 -3.6
v 6 0.7 -3.6
v 6.1 0.6 -3.6
v 6.1 0.7 -3.6
v 5.5 0.7 -3.7
v 5.5 0.8 -3.7
v 5.6 0.6 -3.7
v 5.6 0.7 -3.7
v 5.6 0.8 -3.7
v 5.7 0.6 -3.7
v 5.7 0.7 -3.7
v 5.8 0.6 -3.7
v 5.8 0.7 -3.7
v 5.9 0.6 -3.7
v 5.9 0.7 -3.7
v 5.6 0.7 -3.8
v 5.6 0.8 -3.8
v 5.7 0.7 -3.8
v 5.8 0.7 -3.8
v 5.8 0.8 -3.8
v 5.9 0.7 -3.9
v 5.9 0.8 -3.9
v 6 0.7 -3.9
v 6 0.8 -3.9
v 5.5 0.6 -4
v 5.5 0.7 -4
v 5.6 0.6 -4
v 5.6 0.7 -4
v 5.7 0.6 -4
v 5.7 0.7 -4
v 5.8 0.6 -4
v 5.8 0.7 -4
v 6 0.7 -4
v 6 0.8 -4
v 6.1 0.7 -4
v 6.1 0.8 -4
v 5.6 0.6 -4.2
v 5.6 0.7 -4.2
v 5.8 0.6 -4.2
v 5.8 0.7 -4.2
v 5.8 0.7 -3.3
v 5.8 0.8 -3.3
v 5.9 0.7 -3.3
v 5.9 0.8 -3.3
v 5.7 0.6 -3.5
v 5.7 0.8 -3.5
v 5.8 0.6 -3.5
v 5.8 0.7 -3.5
v 5.8 0.8 -3.5
v 5.9 0.7 -3.5
v 5.9 0.8 -3.5
v 6 0.6 -3.5
v 6 0.7 -3.5
v 6.1 0.6 -3.5
v 6.1 0.7 -3.5
v 6.1 0.8 -3.5
v 5.5 0.7 -3.6
v 5.5 0.8 -3.6
v 5.6 0.6 -3.6
v 5.6 0.7 -3.6
v 5.7 0.6 -3.6
v 5.7 0.7 -3.6
v 5.7 0.8 -3.6
v 5.8 0.6 -3.6
v 5.8 0.7 -3.6
v 5.9 0.6 -3.6
v 5.9 0.7 -3.6
v 5.5 0.6 -3.8
v 5.5 0.7 -3.8
v 5.5 0.8 -3.8
v 5.6 0.6 -3.8
v 5.6 0.8 -3.8
v 5.7 0.6 -3.9
v 5.7 0.8 -3.9
v 5.8 0.6 -3.9
v 5.8 0.7 -3.9
v 5.8 0.8 -3.9
v 5.6 0.7 -4
v 5.6 0.8 -4
v 5.7 0.7 -4
v 5.7 0.8 -4
v 5.6 0.6 -4.1
v 5.6 0.7 -4.1
v 5.8 0.6 -4.1
v 5.8 0.7 -4.1
v 5.9 0.7 -4.1
v 5.9 0.8 -4.1
v 6 0.7 -4.1
v 6.1 0.7 -4.1
v 6.1 0.8 -4.1
v 5.4 0.1 -4.2
v 5.4 0.2 -4.2
v 5.4 0.6 -4.2
v 5.4 0.7 -4.2
v 5.5 0.1 -4.2
v 5.5 0.2 -4.2
v 5.5 0.6 -4.2
v 5.5 0.7 -4.2
v 6.1 0.1 -4.2
v 6.1 0.2 -4.2
v 6.1 0.6 -4.2
v 6.1 0.7 -4.2
v 6.2 0.1 -4.2
v 6.2 0.2 -4.2
v 6.2 0.6 -4.2
v 6.2 0.7 -4.2
v 5.4 0.2 -4.3
v 5.4 0.6 -4.3
v 5.5 0.1 -4.3
v 5.5 0.2 -4.3
v 5.5 0.6 -4.3
v 5.5 0.7 -4.3
v 6.1 0.1 -4.3
v 6.1 0.2 -4.3
v 6.1 0.6 -4.3
v 6.1 0.7 -4.3
v 6.2 0.2 -4.3
v 6.2 0.6 -4.3
v 5.5 0.1 -3.1
v 6.1 0.1 -3.1
v 5.4 0.1 -3.2
v 5.5 0.1 -3.2
v 6.1 0.1 -3.2
v 6.2 0.1 -3.2
v 5.4 0.1 -4.2
v 5.5 0.1 -4.2
v 6.1 0.1 -4.2
v 6.2 0.1 -4.2
v 5.5 0.1 -4.3
v 6.1 0.1 -4.3
v 5.4 0.2 -3.1
v 5.5 0.2 -3.1
v 6.1 0.2 -3.1
v 6.2 0.2 -3.1
v 5.4 0.2 -3.2
v 5.5 0.2 -3.2
v 6.1 0.2 -3.2
v 6.2 0.2 -3.2
v 5.4 0.2 -4.2
v 5.5 0.2 -4.2
v 6.1 0.2 -4.2
v 6.2 0.2 -4.2
v 5.4 0.2 -4.3
v 5.5 0.2 -4.3
v 6.1 0.2 -4.3
v 6.2 0.2 -4.3
v 5.4 0.6 -3.1
v 5.5 0.6 -3.1
v 6.1 0.6 -3.1
v 6.2 0.6 -3.1
v 5.4 0.6 -3.2
v 5.5 0.6 -3.2
v 6.1 0.6 -3.2
v 6.2 0.6 -3.2
v 5.7 0.6 -3.5
v 5.8 0.6 -3.5
v 6 0.6 -3.5
v 6.1 0.6 -3.5
v 5.6 0.6 -3.6
v 5.7 0.6 -3.6
v 5.8 0.6 -3.6
v 5.9 0.6 -3.6
v 6 0.6 -3.6
v 6.1 0.6 -3.6
v 5.6 0.6 -3.7
v 5.7 0.6 -3.7
v 5.8 0.6 -3.7
v 5.9 0.6 -3.7
v 5.5 0.6 -3.8
v 5.6 0.6 -3.8
v 5.7 0.6 -3.9
v 5.8 0.6 -3.9
v 5.5 0.6 -4
v 5.6 0.6 -4
v 5.7 0.6 -4
v 5.8 0.6 -4
v 5.6 0.6 -4.1
v 5.8 0.6 -4.1
v 5.4 0.6 -4.2
v 5.5 0.6 -4.2
v 5.6 0.6 -4.2
v 5.8 0.6 -4.2
v 6.1 0.6 -4.2
v 6.2 0.6 -4.2
v 5.4 0.6 -4.3
v 5.5 0.6 -4.3
v 6.1 0.6 -4.3
v 6.2 0.6 -4.3
v 5.5 0.7 -3.1
v 6.1 0.7 -3.1
v 5.4 0.7 -3.2
v 5.5 0.7 -3.2
v 5.7 0.7 -3.2
v 5.8 0.7 -3.2
v 5.9 0.7 -3.2
v 6 0.7 -3.2
v 6.1 0.7 -3.2
v 6.2 0.7 -3.2
v 5.7 0.7 -3.3
v 5.8 0.7 -3.3
v 5.9 0.7 -3.3
v 6 0.7 -3.3
v 6.1 0.7 -3.3
v 5.7 0.7 -3.4
v 5.8 0.7 -3.4
v 5.9 0.7 -3.4
v 6 0.7 -3.4
v 5.8 0.7 -3.5
v 5.9 0.7 -3.5
v 6 0.7 -3.5
v 6.1 0.7 -3.5
v 5.5 0.7 -3.6
v 5.6 0.7 -3.6
v 5.7 0.7 -3.6
v 5.8 0.7 -3.6
v 5.9 0.7 -3.6
v 6 0.7 -3.6
v 6.1 0.7 -3.6
v 5.5 0.7 -3.7
v 5.6 0.7 -3.7
v 5.7 0.7 -3.7
v 5.8 0.7 -3.7
v 5.9 0.7 -3.7
v 5.5 0.7 -3.8
v 5.6 0.7 -3.8
v 5.7 0.7 -3.8
v 5.8 0.7 -3.8
v 5.9 0.7 -3.8
v 5.8 0.7 -3.9
v 5.9 0.7 -3.9
v 6 0.7 -3.9
v 5.5 0.7 -4
v 5.6 0.7 -4
v 5.7 0.7 -4
v 5.8 0.7 -4
v 6 0.7 -4
v 6.1 0.7 -4
v 5.5 0.7 -4.1
v 5.6 0.7 -4.1
v 5.8 0.7 -4.1
v 5.9 0.7 -4.1
v 6 0.7 -4.1
v 6.1 0.7 -4.1
v 5.4 0.7 -4.2
v 5.5 0.7 -4.2
v 5.6 0.7 -4.2
v 5.8 0.7 -4.2
v 5.9 0.7 -4.2
v 6 0.7 -4.2
v 6.1 0.7 -4.2
v 6.2 0.7 -4.2
v 5.5 0.7 -4.3
v 6.1 0.7 -4.3
v 5.5 0.8 -3.2
v 5.7 0.8 -3.2
v 5.8 0.8 -3.2
v 5.9 0.8 -3.2
v 5.8 0.8 -3.3
v 5.9 0.8 -3.3
v 6 0.8 -3.3
v 6.1 0.8 -3.3
v 5.7 0.8 -3.4
v 5.8 0.8 -3.4
v 5.9 0.8 -3.4
v 6 0.8 -3.4
v 5.7 0.8 -3.5
v 5.8 0.8 -3.5
v 5.9 0.8 -3.5
v 6.1 0.8 -3.5
v 5.5 0.8 -3.6
v 5.7 0.8 -3.6
v 5.5 0.8 -3.7
v 5.6 0.8 -3.7
v 5.5 0.8 -3.8
v 5.6 0.8 -3.8
v 5.8 0.8 -3.8
v 5.7 0.8 -3.9
v 5.8 0.8 -3.9
v 5.9 0.8 -3.9
v 6 0.8 -3.9
v 5.6 0.8 -4
v 5.7 0.8 -4
v 6 0.8 -4
v 6.1 0.8 -4
v 5.9 0.8 -4.1
v 6.1 0.8 -4.1

# faces
f 4/3/1 2/3/1 1/3/1
f 5/3/1 2/3/1 4/3/1
f 7/3/1 4/3/1 3/3/1
f 7/3/1 6/3/1 5/3/1
f 7/3/1 5/3/1 4/3/1
f 8/3/1 6/3/1 7/3/1
f 9/3/1 6/3/1 8/3/1
f 10/3/1 6/3/1 9/3/1
f 11/3/1 9/3/1 8/3/1
f 12/3/1 9/3/1 11/3/1
f 17/3/1 14/3/1 13/3/1
f 18/3/1 14/3/1 17/3/1
f 19/3/1 16/3/1 15/3/1
f 20/3/1 16/3/1 19/3/1
f 25/3/1 22/3/1 21/3/1
f 26/3/1 22/3/1 25/3/1
f 30/3/1 24/3/1 23/3/1
f 31/3/1 24/3/1 30/3/1
f 32/4/1 27/4/1 26/4/1
f 33/4/1 27/4/1 32/4/1
f 34/4/1 29/4/1 28/4/1
f 35/4/1 29/4/1 34/4/1
f 38/4/1 37/4/1 36/4/1
f 39/4/1 38/4/1 36/4/1
f 40/4/1 38/4/1 39/4/1
f 43/2/1 42/2/1 41/2/1
f 44/2/1 42/2/1 43/2/1
f 53/4/1 46/4/1 45/4/1
f 54/4/1 46/4/1 53/4/1
f 55/2/1 48/2/1 47/2/1
f 56/2/1 48/2/1 55/2/1
f 57/1/1 50/1/1 49/1/1
f 58/1/1 50/1/1 57/1/1
f 59/4/1 52/4/1 51/4/1
f 60/4/1 52/4/1 59/4/1
f 65/2/1 62/2/1 61/2/1
f 66/2/1 62/2/1 65/2/1
f 69/4/1 64/4/1 63/4/1
f 70/4/1 64/4/1 69/4/1
f 71/4/1 68/4/1 67/4/1
f 72/4/1 68/4/1 71/4/1
f 75/4/1 74/4/1 73/4/1
f 76/4/1 74/4/1 75/4/1
f 79/3/1 78/3/1 77/3/1
f 80/3/1 78/3/1 79/3/1
f 81/3/2 82/3/2 83/3/2
f 83/3/2 82/3/2 84/3/2
f 85/4/2 86/4/2 89/4/2
f 89/4/2 86/4/2 90/4/2
f 87/3/2 88/3/2 92/3/2
f 92/3/2 88/3/2 93/3/2
f 90/4/2 91/4/2 94/4/2
f 94/4/2 91/4/2 95/4/2
f 96/4/2 97/4/2 103/4/2
f 98/4/2 99/4/2 104/4/2
f 101/4/2 102/4/2 105/4/2
f 100/4/2 101/4/2 105/4/2
f 105/4/2 102/4/2 106/4/2
f 96/4/2 103/4/2 107/4/2
f 107/4/2 103/4/2 108/4/2
f 98/4/2 104/4/2 109/4/2
f 109/4/2 104/4/2 110/4/2
f 111/2/2 112/2/2 115/2/2
f 115/2/2 112/2/2 116/2/2
f 113/4/2 114/4/2 119/4/2
f 119/4/2 114/4/2 120/4/2
f 117/4/2 118/4/2 121/4/2
f 121/4/2 118/4/2 122/4/2
f 123/4/2 124/4/2 125/4/2
f 125/4/2 124/4/2 126/4/2
f 127/2/2 128/2/2 129/2/2
f 129/2/2 128/2/2 130/2/2
f 131/4/2 132/4/2 133/4/2
f 133/4/2 132/4/2 134/4/2
f 135/3/2 136/3/2 139/3/2
f 139/3/2 136/3/2 140/3/2
f 137/3/2 138/3/2 141/3/2
f 141/3/2 138/3/2 142/3/2
f 143/3/2 144/3/2 147/3/2
f 147/3/2 144/3/2 148/3/2
f 145/3/2 146/3/2 153/3/2
f 153/3/2 146/3/2 154/3/2
f 149/4/2 150/4/2 155/4/2
f 155/4/2 150/4/2 156/4/2
f 151/4/2 152/4/2 157/4/2
f 157/4/2 152/4/2 158/4/2
f 159/3/2 160/3/2 162/3/2
f 162/3/2 160/3/2 163/3/2
f 161/3/2 162/3/2 165/3/2
f 163/3/2 164/3/2 165/3/2
f 162/3/2 163/3/2 165/3/2
f 165/3/2 164/3/2 166/3/2
f 166/3/2 164/3/2 167/3/2
f 167/3/2 164/3/2 168/3/2
f 166/3/2 167/3/2 169/3/2
f 169/3/2 167/3/2 170/3/2
f 174/3/3 172/3/3 171/3/3
f 175/3/3 172/3/3 174/3/3
f 177/3/3 174/3/3 173/3/3
f 177/3/3 176/3/3 175/3/3
f 177/3/3 175/3/3 174/3/3
f 178/3/3 176/3/3 177/3/3
f 179/3/3 176/3/3 178/3/3
f 180/3/3 176/3/3 179/3/3
f 181/3/3 179/3/3 178/3/3
f 182/3/3 179/3/3 181/3/3
f 187/3/3 184/3/3 183/3/3
f 188/3/3 184/3/3 187/3/3
f 189/3/3 186/3/3 185/3/3
f 190/3/3 186/3/3 189/3/3
f 192/4/3 191/4/3 190/4/3
f 193/4/3 191/4/3 192/4/3
f 196/4/3 195/4/3 194/4/3
f 197/4/3 195/4/3 196/4/3
f 202/3/3 199/3/3 198/3/3
f 203/3/3 199/3/3 202/3/3
f 204/3/3 201/3/3 200/3/3
f 205/3/3 201/3/3 204/3/3
f 208/4/3 207/4/3 206/4/3
f 209/4/3 207/4/3 208/4/3
f 212/4/3 211/4/3 210/4/3
f 213/4/3 211/4/3 212/4/3
f 216/4/3 215/4/3 214/4/3
f 217/4/3 215/4/3 216/4/3
f 220/2/3 219/2/3 218/2/3
f 221/2/3 219/2/3 220/2/3
f 224/2/3 223/2/3 222/2/3
f 225/2/3 223/2/3 224/2/3
f 229/4/3 227/4/3 226/4/3
f 230/4/3 227/4/3 229/4/3
f 231/1/3 229/1/3 228/1/3
f 232/1/3 229/1/3 231/1/3
f 235/2/3 234/2/3 233/2/3
f 236/2/3 234/2/3 235/2/3
f 239/4/3 238/4/3 237/4/3
f 240/4/3 238/4/3 239/4/3
f 241/4/3 238/4/3 240/4/3
f 244/4/3 243/4/3 242/4/3
f 245/4/3 243/4/3 244/4/3
f 248/2/3 247/2/3 246/2/3
f 249/2/3 247/2/3 248/2/3
f 252/2/3 251/2/3 250/2/3
f 253/2/3 251/2/3 252/2/3
f 256/4/3 255/4/3 254/4/3
f 257/4/3 255/4/3 256/4/3
f 260/3/3 259/3/3 258/3/3
f 261/3/3 259/3/3 260/3/3
f 262/4/4 263/4/4 264/4/4
f 264/4/4 263/4/4 265/4/4
f 266/4/4 267/4/4 268/4/4
f 268/4/4 267/4/4 269/4/4
f 269/4/4 267/4/4 270/4/4
f 271/4/4 272/4/4 274/4/4
f 273/4/4 274/4/4 275/4/4
f 274/4/4 272/4/4 276/4/4
f 275/4/4 274/4/4 276/4/4
f 276/4/4 272/4/4 277/4/4
f 278/4/4 279/4/4 281/4/4
f 280/4/4 281/4/4 282/4/4
f 281/4/4 279/4/4 283/4/4
f 282/4/4 281/4/4 283/4/4
f 283/4/4 279/4/4 284/4/4
f 285/4/4 286/4/4 287/4/4
f 287/4/4 286/4/4 288/4/4
f 289/4/4 290/4/4 292/4/4
f 290/4/4 291/4/4 292/4/4
f 292/4/4 291/4/4 293/4/4
f 294/4/4 295/4/4 296/4/4
f 296/4/4 295/4/4 297/4/4
f 297/4/4 295/4/4 298/4/4
f 299/4/4 300/4/4 301/4/4
f 301/4/4 300/4/4 302/4/4
f 303/2/4 304/2/4 305/2/4
f 305/2/4 304/2/4 306/2/4
f 307/4/4 308/4/4 309/4/4
f 309/4/4 308/4/4 310/4/4
f 310/4/4 308/4/4 311/4/4
f 312/3/4 313/3/4 316/3/4
f 316/3/4 313/3/4 317/3/4
f 314/3/4 315/3/4 318/3/4
f 318/3/4 315/3/4 319/3/4
f 320/3/4 321/3/4 324/3/4
f 324/3/4 321/3/4 325/3/4
f 322/3/4 323/3/4 326/3/4
f 326/3/4 323/3/4 327/3/4
f 328/3/4 329/3/4 331/3/4
f 331/3/4 329/3/4 332/3/4
f 330/3/4 331/3/4 334/3/4
f 332/3/4 333/3/4 334/3/4
f 331/3/4 332/3/4 334/3/4
f 334/3/4 333/3/4 335/3/4
f 335/3/4 333/3/4 336/3/4
f 336/3/4 333/3/4 337/3/4
f 335/3/4 336/3/4 338/3/4
f 338/3/4 336/3/4 339/3/4
f 343/3/5 341/3/5 340/3/5
f 344/3/5 341/3/5 343/3/5
f 346/3/5 343/3/5 342/3/5
f 346/3/5 345/3/5 344/3/5
f 346/3/5 344/3/5 343/3/5
f 347/3/5 345/3/5 346/3/5
f 348/3/5 345/3/5 347/3/5
f 349/3/5 345/3/5 348/3/5
f 350/3/5 348/3/5 347/3/5
f 351/3/5 348/3/5 350/3/5
f 356/3/5 353/3/5 352/3/5
f 357/3/5 353/3/5 356/3/5
f 358/3/5 355/3/5 354/3/5
f 359/3/5 355/3/5 358/3/5
f 364/3/5 361/3/5 360/3/5
f 365/3/5 361/3/5 364/3/5
f 366/3/5 363/3/5 362/3/5
f 367/3/5 363/3/5 366/3/5
f 368/3/6 369/3/6 372/3/6
f 372/3/6 369/3/6 373/3/6
f 370/3/6 371/3/6 374/3/6
f 374/3/6 371/3/6 375/3/6
f 376/1/6 377/1/6 381/1/6
f 381/1/6 377/1/6 382/1/6
f 378/1/6 379/1/6 384/1/6
f 384/1/6 379/1/6 385/1/6
f 380/1/6 381/1/6 386/1/6
f 386/1/6 381/1/6 387/1/6
f 382/1/6 383/1/6 388/1/6
f 388/1/6 383/1/6 389/1/6
f 390/1/6 391/1/6 394/1/6
f 394/1/6 391/1/6 395/1/6
f 392/1/6 393/1/6 396/1/6
f 396/1/6 393/1/6 397/1/6
f 398/1/6 399/1/6 402/1/6
f 402/1/6 399/1/6 403/1/6
f 400/3/6 401/3/6 406/3/6
f 406/3/6 401/3/6 407/3/6
f 404/3/6 405/3/6 408/3/6
f 408/3/6 405/3/6 409/3/6
f 410/3/6 411/3/6 413/3/6
f 413/3/6 411/3/6 414/3/6
f 414/3/6 411/3/6 415/3/6
f 415/3/6 411/3/6 416/3/6
f 416/3/6 411/3/6 417/3/6
f 417/3/6 411/3/6 418/3/6
f 414/1/6 415/1/6 420/1/6
f 420/1/6 415/1/6 421/1/6
f 416/2/6 417/2/6 422/2/6
f 418/3/6 419/3/6 423/3/6
f 417/3/6 418/3/6 423/3/6
f 422/2/6 417/2/6 423/2/6
f 423/3/6 419/3/6 424/3/6
f 421/2/6 422/2/6 425/2/6
f 420/2/6 421/2/6 425/2/6
f 422/2/6 423/2/6 425/2/6
f 425/2/6 423/2/6 426/2/6
f 426/2/6 423/2/6 427/2/6
f 427/2/6 423/2/6 428/2/6
f 426/2/6 427/2/6 429/2/6
f 429/2/6 427/2/6 430/2/6
f 424/3/6 419/3/6 432/3/6
f 412/3/6 413/3/6 433/3/6
f 429/4/6 430/4/6 436/4/6
f 430/2/6 431/2/6 437/2/6
f 436/4/6 430/4/6 437/4/6
f 437/2/6 431/2/6 438/2/6
f 432/3/6 419/3/6 439/3/6
f 433/4/6 434/4/6 440/4/6
f 412/3/6 433/3/6 440/3/6
f 440/4/6 434/4/6 441/4/6
f 435/2/6 436/2/6 442/2/6
f 442/2/6 436/2/6 443/2/6
f 437/2/6 438/2/6 444/2/6
f 438/2/6 439/2/6 444/2/6
f 412/3/6 440/3/6 445/3/6
f 441/1/6 442/1/6 446/1/6
f 442/2/6 443/2/6 447/2/6
f 446/1/6 442/1/6 447/1/6
f 443/2/6 444/2/6 447/2/6
f 447/2/6 444/2/6 448/2/6
f 444/2/6 439/2/6 449/2/6
f 448/2/6 444/2/6 449/2/6
f 448/4/6 449/4/6 450/4/6
f 449/2/6 439/2/6 451/2/6
f 450/4/6 449/4/6 451/4/6
f 451/2/6 439/2/6 452/2/6
f 412/3/6 445/3/6 453/3/6
f 450/2/6 451/2/6 456/2/6
f 452/2/6 439/2/6 457/2/6
f 439/3/6 419/3/6 458/3/6
f 457/2/6 439/2/6 458/2/6
f 455/2/6 456/2/6 459/2/6
f 454/2/6 455/2/6 459/2/6
f 412/3/6 453/3/6 459/3/6
f 453/2/6 454/2/6 459/2/6
f 459/2/6 456/2/6 460/2/6
f 456/2/6 451/2/6 461/2/6
f 460/2/6 456/2/6 461/2/6
f 461/2/6 451/2/6 462/2/6
f 458/3/6 419/3/6 464/3/6
f 459/3/6 460/3/6 465/3/6
f 412/3/6 459/3/6 465/3/6
f 465/3/6 460/3/6 466/3/6
f 466/3/6 460/3/6 467/3/6
f 461/1/6 462/1/6 468/1/6
f 462/4/6 463/4/6 469/4/6
f 468/1/6 462/1/6 469/1/6
f 463/3/6 464/3/6 470/3/6
f 469/4/6 463/4/6 470/4/6
f 464/3/6 419/3/6 471/3/6
f 470/3/6 464/3/6 471/3/6
f 471/3/6 419/3/6 472/3/6
f 467/3/6 468/3/6 473/3/6
f 468/3/6 469/3/6 473/3/6
f 470/3/6 471/3/6 473/3/6
f 469/3/6 470/3/6 473/3/6
f 466/3/6 467/3/6 473/3/6
f 473/3/6 471/3/6 474/3/6
f 477/4/6 478/4/6 479/4/6
f 479/4/6 478/4/6 480/4/6
f 475/4/6 476/4/6 483/4/6
f 481/4/6 482/4/6 486/4/6
f 483/4/6 484/4/6 487/4/6
f 475/4/6 483/4/6 487/4/6
f 487/4/6 484/4/6 488/4/6
f 485/4/6 486/4/6 489/4/6
f 486/4/6 482/4/6 490/4/6
f 489/4/6 486/4/6 490/4/6
f 475/4/6 487/4/6 491/4/6
f 491/4/6 487/4/6 492/4/6
f 493/4/6 494/4/6 495/4/6
f 495/4/6 494/4/6 496/4/6
f 496/4/6 497/4/6 498/4/6
f 498/4/6 497/4/6 499/4/6
f 496/4/6 498/4/6 502/4/6
f 502/4/6 498/4/6 503/4/6
f 500/4/6 501/4/6 504/4/6
f 504/4/6 505/4/6 506/4/6
f 500/4/6 504/4/6 506/4/6
f 506/4/6 505/4/6 507/4/6
