# MagicaVoxel @ Ephtracy

# group
o 

# material
mtllib Robot.vox-7.mtl
usemtl palette

# normals
vn -1 0 0
vn 1 0 0
vn 0 0 1
vn 0 0 -1
vn 0 -1 0
vn 0 1 0

# texcoords
vt 0.912109 0.5
vt 0.943359 0.5
vt 0.970703 0.5
vt 0.982422 0.5

# verts
v -5.7 0 2.2
v -5.7 0 1.4
v -5.7 0.1 2.1
v -5.7 0.1 1.5
v -5.7 0.2 2.1
v -5.7 0.2 1.5
v -5.7 0.4 2.1
v -5.7 0.4 1.5
v -5.7 0.5 2.1
v -5.7 0.5 1.5
v -5.7 0.6 2.2
v -5.7 0.6 1.4
v -5.3 0.1 2.2
v -5.3 0.1 2.1
v -5.3 0.1 1.5
v -5.3 0.1 1.4
v -5.3 0.6 2.2
v -5.3 0.6 2.1
v -5.3 0.6 1.5
v -5.3 0.6 1.4
v -5 0.1 2.2
v -5 0.1 2.1
v -5 0.1 1.5
v -5 0.1 1.4
v -5 0.6 2.2
v -5 0.6 2.1
v -5 0.6 1.5
v -5 0.6 1.4
v -4.6 0.1 2.2
v -4.6 0.1 2.1
v -4.6 0.1 1.5
v -4.6 0.1 1.4
v -4.6 0.6 2.2
v -4.6 0.6 2.1
v -4.6 0.6 1.5
v -4.6 0.6 1.4
v -4.3 0.1 2.2
v -4.3 0.1 2.1
v -4.3 0.1 1.5
v -4.3 0.1 1.4
v -4.3 0.6 2.2
v -4.3 0.6 2.1
v -4.3 0.6 1.5
v -4.3 0.6 1.4
v -5.5 0.1 2.2
v -5.5 0.1 2.1
v -5.5 0.1 1.5
v -5.5 0.1 1.4
v -5.5 0.6 2.2
v -5.5 0.6 2.1
v -5.5 0.6 1.5
v -5.5 0.6 1.4
v -5.2 0.1 2.2
v -5.2 0.1 2.1
v -5.2 0.1 1.5
v -5.2 0.1 1.4
v -5.2 0.6 2.2
v -5.2 0.6 2.1
v -5.2 0.6 1.5
v -5.2 0.6 1.4
v -4.8 0.1 2.2
v -4.8 0.1 2.1
v -4.8 0.1 1.5
v -4.8 0.1 1.4
v -4.8 0.6 2.2
v -4.8 0.6 2.1
v -4.8 0.6 1.5
v -4.8 0.6 1.4
v -4.5 0.1 2.2
v -4.5 0.1 2.1
v -4.5 0.1 1.5
v -4.5 0.1 1.4
v -4.5 0.6 2.2
v -4.5 0.6 2.1
v -4.5 0.6 1.5
v -4.5 0.6 1.4
v -4.1 0 2.2
v -4.1 0 1.4
v -4.1 0.1 2.1
v -4.1 0.1 1.5
v -4.1 0.2 2.1
v -4.1 0.2 1.5
v -4.1 0.4 2.1
v -4.1 0.4 1.5
v -4.1 0.5 2.1
v -4.1 0.5 1.5
v -4.1 0.6 2.2
v -4.1 0.6 1.4
v -5.7 0 2.2
v -5.7 0.6 2.2
v -5.5 0.1 2.2
v -5.5 0.6 2.2
v -5.3 0.1 2.2
v -5.3 0.6 2.2
v -5.2 0.1 2.2
v -5.2 0.6 2.2
v -5 0.1 2.2
v -5 0.6 2.2
v -4.8 0.1 2.2
v -4.8 0.6 2.2
v -4.6 0.1 2.2
v -4.6 0.6 2.2
v -4.5 0.1 2.2
v -4.5 0.6 2.2
v -4.3 0.1 2.2
v -4.3 0.6 2.2
v -4.1 0 2.2
v -4.1 0.6 2.2
v -5.5 0.1 2.1
v -5.5 0.6 2.1
v -5.3 0.1 2.1
v -5.3 0.6 2.1
v -5.2 0.1 2.1
v -5.2 0.6 2.1
v -5 0.1 2.1
v -5 0.6 2.1
v -4.8 0.1 2.1
v -4.8 0.6 2.1
v -4.6 0.1 2.1
v -4.6 0.6 2.1
v -4.5 0.1 2.1
v -4.5 0.6 2.1
v -4.3 0.1 2.1
v -4.3 0.6 2.1
v -5.5 0.1 1.5
v -5.5 0.6 1.5
v -5.3 0.1 1.5
v -5.3 0.6 1.5
v -5.2 0.1 1.5
v -5.2 0.6 1.5
v -5 0.1 1.5
v -5 0.6 1.5
v -4.8 0.1 1.5
v -4.8 0.6 1.5
v -4.6 0.1 1.5
v -4.6 0.6 1.5
v -4.5 0.1 1.5
v -4.5 0.6 1.5
v -4.3 0.1 1.5
v -4.3 0.6 1.5
v -5.7 0 1.4
v -5.7 0.6 1.4
v -5.5 0.1 1.4
v -5.5 0.6 1.4
v -5.3 0.1 1.4
v -5.3 0.6 1.4
v -5.2 0.1 1.4
v -5.2 0.6 1.4
v -5 0.1 1.4
v -5 0.6 1.4
v -4.8 0.1 1.4
v -4.8 0.6 1.4
v -4.6 0.1 1.4
v -4.6 0.6 1.4
v -4.5 0.1 1.4
v -4.5 0.6 1.4
v -4.3 0.1 1.4
v -4.3 0.6 1.4
v -4.1 0 1.4
v -4.1 0.6 1.4
v -5.7 0 2.2
v -4.1 0 2.2
v -5.7 0 1.4
v -4.1 0 1.4
v -5.5 0.1 2.2
v -5.3 0.1 2.2
v -5.2 0.1 2.2
v -5 0.1 2.2
v -4.8 0.1 2.2
v -4.6 0.1 2.2
v -4.5 0.1 2.2
v -4.3 0.1 2.2
v -5.5 0.1 2.1
v -5.3 0.1 2.1
v -5.2 0.1 2.1
v -5 0.1 2.1
v -4.8 0.1 2.1
v -4.6 0.1 2.1
v -4.5 0.1 2.1
v -4.3 0.1 2.1
v -5.5 0.1 1.5
v -5.3 0.1 1.5
v -5.2 0.1 1.5
v -5 0.1 1.5
v -4.8 0.1 1.5
v -4.6 0.1 1.5
v -4.5 0.1 1.5
v -4.3 0.1 1.5
v -5.5 0.1 1.4
v -5.3 0.1 1.4
v -5.2 0.1 1.4
v -5 0.1 1.4
v -4.8 0.1 1.4
v -4.6 0.1 1.4
v -4.5 0.1 1.4
v -4.3 0.1 1.4
v -5.7 0.6 2.2
v -5.5 0.6 2.2
v -5.3 0.6 2.2
v -5.2 0.6 2.2
v -5 0.6 2.2
v -4.8 0.6 2.2
v -4.6 0.6 2.2
v -4.5 0.6 2.2
v -4.3 0.6 2.2
v -4.1 0.6 2.2
v -5.5 0.6 2.1
v -5.3 0.6 2.1
v -5.2 0.6 2.1
v -5 0.6 2.1
v -4.8 0.6 2.1
v -4.6 0.6 2.1
v -4.5 0.6 2.1
v -4.3 0.6 2.1
v -5.5 0.6 2
v -5.3 0.6 2
v -5.2 0.6 2
v -5 0.6 2
v -4.8 0.6 2
v -4.6 0.6 2
v -4.5 0.6 2
v -4.3 0.6 2
v -5.5 0.6 1.6
v -5.3 0.6 1.6
v -5.2 0.6 1.6
v -5 0.6 1.6
v -4.8 0.6 1.6
v -4.6 0.6 1.6
v -4.5 0.6 1.6
v -4.3 0.6 1.6
v -5.5 0.6 1.5
v -5.3 0.6 1.5
v -5.2 0.6 1.5
v -5 0.6 1.5
v -4.8 0.6 1.5
v -4.6 0.6 1.5
v -4.5 0.6 1.5
v -4.3 0.6 1.5
v -5.7 0.6 1.4
v -5.5 0.6 1.4
v -5.3 0.6 1.4
v -5.2 0.6 1.4
v -5 0.6 1.4
v -4.8 0.6 1.4
v -4.6 0.6 1.4
v -4.5 0.6 1.4
v -4.3 0.6 1.4
v -4.1 0.6 1.4

# faces
f 3/3/1 2/3/1 1/3/1
f 4/3/1 2/3/1 3/3/1
f 5/3/1 3/3/1 1/3/1
f 5/4/1 4/4/1 3/4/1
f 6/3/1 2/3/1 4/3/1
f 6/4/1 4/4/1 5/4/1
f 7/3/1 5/3/1 1/3/1
f 7/3/1 6/3/1 5/3/1
f 8/3/1 2/3/1 6/3/1
f 8/3/1 6/3/1 7/3/1
f 9/3/1 7/3/1 1/3/1
f 9/4/1 8/4/1 7/4/1
f 10/3/1 2/3/1 8/3/1
f 10/4/1 8/4/1 9/4/1
f 11/3/1 9/3/1 1/3/1
f 11/3/1 10/3/1 9/3/1
f 12/3/1 2/3/1 10/3/1
f 12/3/1 10/3/1 11/3/1
f 17/3/1 14/3/1 13/3/1
f 18/3/1 14/3/1 17/3/1
f 19/3/1 16/3/1 15/3/1
f 20/3/1 16/3/1 19/3/1
f 25/3/1 22/3/1 21/3/1
f 26/3/1 22/3/1 25/3/1
f 27/3/1 24/3/1 23/3/1
f 28/3/1 24/3/1 27/3/1
f 33/3/1 30/3/1 29/3/1
f 34/3/1 30/3/1 33/3/1
f 35/3/1 32/3/1 31/3/1
f 36/3/1 32/3/1 35/3/1
f 41/3/1 38/3/1 37/3/1
f 42/3/1 38/3/1 41/3/1
f 43/3/1 40/3/1 39/3/1
f 44/3/1 40/3/1 43/3/1
f 45/3/2 46/3/2 49/3/2
f 49/3/2 46/3/2 50/3/2
f 47/3/2 48/3/2 51/3/2
f 51/3/2 48/3/2 52/3/2
f 53/3/2 54/3/2 57/3/2
f 57/3/2 54/3/2 58/3/2
f 55/3/2 56/3/2 59/3/2
f 59/3/2 56/3/2 60/3/2
f 61/3/2 62/3/2 65/3/2
f 65/3/2 62/3/2 66/3/2
f 63/3/2 64/3/2 67/3/2
f 67/3/2 64/3/2 68/3/2
f 69/3/2 70/3/2 73/3/2
f 73/3/2 70/3/2 74/3/2
f 71/3/2 72/3/2 75/3/2
f 75/3/2 72/3/2 76/3/2
f 77/3/2 78/3/2 79/3/2
f 79/3/2 78/3/2 80/3/2
f 77/3/2 79/3/2 81/3/2
f 79/4/2 80/4/2 81/4/2
f 80/3/2 78/3/2 82/3/2
f 81/4/2 80/4/2 82/4/2
f 77/3/2 81/3/2 83/3/2
f 81/3/2 82/3/2 83/3/2
f 82/3/2 78/3/2 84/3/2
f 83/3/2 82/3/2 84/3/2
f 77/3/2 83/3/2 85/3/2
f 83/4/2 84/4/2 85/4/2
f 84/3/2 78/3/2 86/3/2
f 85/4/2 84/4/2 86/4/2
f 77/3/2 85/3/2 87/3/2
f 85/3/2 86/3/2 87/3/2
f 86/3/2 78/3/2 88/3/2
f 87/3/2 86/3/2 88/3/2
f 91/3/3 90/3/3 89/3/3
f 92/3/3 90/3/3 91/3/3
f 93/3/3 91/3/3 89/3/3
f 95/3/3 93/3/3 89/3/3
f 95/3/3 94/3/3 93/3/3
f 96/3/3 94/3/3 95/3/3
f 97/3/3 95/3/3 89/3/3
f 99/3/3 97/3/3 89/3/3
f 99/3/3 98/3/3 97/3/3
f 100/3/3 98/3/3 99/3/3
f 101/3/3 99/3/3 89/3/3
f 103/3/3 101/3/3 89/3/3
f 103/3/3 102/3/3 101/3/3
f 104/3/3 102/3/3 103/3/3
f 105/3/3 103/3/3 89/3/3
f 107/3/3 105/3/3 89/3/3
f 107/3/3 106/3/3 105/3/3
f 108/3/3 106/3/3 107/3/3
f 111/4/3 110/4/3 109/4/3
f 112/4/3 110/4/3 111/4/3
f 115/4/3 114/4/3 113/4/3
f 116/4/3 114/4/3 115/4/3
f 119/4/3 118/4/3 117/4/3
f 120/4/3 118/4/3 119/4/3
f 123/4/3 122/4/3 121/4/3
f 124/4/3 122/4/3 123/4/3
f 125/4/4 126/4/4 127/4/4
f 127/4/4 126/4/4 128/4/4
f 129/4/4 130/4/4 131/4/4
f 131/4/4 130/4/4 132/4/4
f 133/4/4 134/4/4 135/4/4
f 135/4/4 134/4/4 136/4/4
f 137/4/4 138/4/4 139/4/4
f 139/4/4 138/4/4 140/4/4
f 141/3/4 142/3/4 143/3/4
f 143/3/4 142/3/4 144/3/4
f 141/3/4 143/3/4 145/3/4
f 141/3/4 145/3/4 147/3/4
f 145/3/4 146/3/4 147/3/4
f 147/3/4 146/3/4 148/3/4
f 141/3/4 147/3/4 149/3/4
f 141/3/4 149/3/4 151/3/4
f 149/3/4 150/3/4 151/3/4
f 151/3/4 150/3/4 152/3/4
f 141/3/4 151/3/4 153/3/4
f 141/3/4 153/3/4 155/3/4
f 153/3/4 154/3/4 155/3/4
f 155/3/4 154/3/4 156/3/4
f 141/3/4 155/3/4 157/3/4
f 141/3/4 157/3/4 159/3/4
f 157/3/4 158/3/4 159/3/4
f 159/3/4 158/3/4 160/3/4
f 163/3/5 162/3/5 161/3/5
f 164/3/5 162/3/5 163/3/5
f 165/3/6 166/3/6 173/3/6
f 173/3/6 166/3/6 174/3/6
f 167/3/6 168/3/6 175/3/6
f 175/3/6 168/3/6 176/3/6
f 169/3/6 170/3/6 177/3/6
f 177/3/6 170/3/6 178/3/6
f 171/3/6 172/3/6 179/3/6
f 179/3/6 172/3/6 180/3/6
f 181/3/6 182/3/6 189/3/6
f 189/3/6 182/3/6 190/3/6
f 183/3/6 184/3/6 191/3/6
f 191/3/6 184/3/6 192/3/6
f 185/3/6 186/3/6 193/3/6
f 193/3/6 186/3/6 194/3/6
f 187/3/6 188/3/6 195/3/6
f 195/3/6 188/3/6 196/3/6
f 197/3/6 198/3/6 207/3/6
f 199/3/6 200/3/6 208/3/6
f 208/3/6 200/3/6 209/3/6
f 201/3/6 202/3/6 210/3/6
f 210/3/6 202/3/6 211/3/6
f 203/3/6 204/3/6 212/3/6
f 212/3/6 204/3/6 213/3/6
f 205/3/6 206/3/6 214/3/6
f 197/3/6 207/3/6 215/3/6
f 207/4/6 208/4/6 215/4/6
f 208/3/6 209/3/6 216/3/6
f 215/4/6 208/4/6 216/4/6
f 209/4/6 210/4/6 217/4/6
f 216/3/6 209/3/6 217/3/6
f 210/3/6 211/3/6 218/3/6
f 217/4/6 210/4/6 218/4/6
f 211/4/6 212/4/6 219/4/6
f 218/3/6 211/3/6 219/3/6
f 212/3/6 213/3/6 220/3/6
f 219/4/6 212/4/6 220/4/6
f 213/4/6 214/4/6 221/4/6
f 220/3/6 213/3/6 221/3/6
f 214/3/6 206/3/6 222/3/6
f 221/4/6 214/4/6 222/4/6
f 218/3/6 219/3/6 223/3/6
f 219/3/6 220/3/6 223/3/6
f 221/3/6 222/3/6 223/3/6
f 197/3/6 215/3/6 223/3/6
f 217/3/6 218/3/6 223/3/6
f 216/3/6 217/3/6 223/3/6
f 215/3/6 216/3/6 223/3/6
f 220/3/6 221/3/6 223/3/6
f 223/3/6 222/3/6 224/3/6
f 224/3/6 222/3/6 225/3/6
f 225/3/6 222/3/6 226/3/6
f 226/3/6 222/3/6 227/3/6
f 227/3/6 222/3/6 228/3/6
f 228/3/6 222/3/6 229/3/6
f 222/3/6 206/3/6 230/3/6
f 229/3/6 222/3/6 230/3/6
f 197/3/6 223/3/6 231/3/6
f 223/4/6 224/4/6 231/4/6
f 224/3/6 225/3/6 232/3/6
f 231/4/6 224/4/6 232/4/6
f 225/4/6 226/4/6 233/4/6
f 232/3/6 225/3/6 233/3/6
f 226/3/6 227/3/6 234/3/6
f 233/4/6 226/4/6 234/4/6
f 227/4/6 228/4/6 235/4/6
f 234/3/6 227/3/6 235/3/6
f 228/3/6 229/3/6 236/3/6
f 235/4/6 228/4/6 236/4/6
f 229/4/6 230/4/6 237/4/6
f 236/3/6 229/3/6 237/3/6
f 230/3/6 206/3/6 238/3/6
f 237/4/6 230/4/6 238/4/6
f 197/3/6 231/3/6 239/3/6
f 239/3/6 231/3/6 240/3/6
f 232/3/6 233/3/6 241/3/6
f 241/3/6 233/3/6 242/3/6
f 234/3/6 235/3/6 243/3/6
f 243/3/6 235/3/6 244/3/6
f 236/3/6 237/3/6 245/3/6
f 245/3/6 237/3/6 246/3/6
f 238/3/6 206/3/6 247/3/6
f 247/3/6 206/3/6 248/3/6
