# MagicaVoxel @ Ephtracy

# group
o 

# material
mtllib Robot.vox-34.mtl
usemtl palette

# normals
vn -1 0 0
vn 1 0 0
vn 0 0 1
vn 0 0 -1
vn 0 -1 0
vn 0 1 0

# texcoords
vt 0.689453 0.5
vt 0.794922 0.5
vt 0.798828 0.5
vt 0.939453 0.5
vt 0.970703 0.5
vt 0.978516 0.5
vt 0.982422 0.5

# verts
v -9.6 0 2.1
v -9.6 0 0.7
v -9.6 0.1 2
v -9.6 0.1 1.8
v -9.6 0.1 1.7
v -9.6 0.1 1.5
v -9.6 0.1 1.3
v -9.6 0.1 1.1
v -9.6 0.1 1
v -9.6 0.1 0.8
v -9.6 0.2 2
v -9.6 0.2 1.8
v -9.6 0.2 1.7
v -9.6 0.2 1.5
v -9.6 0.2 1.3
v -9.6 0.2 1.1
v -9.6 0.2 1
v -9.6 0.2 0.8
v -9.6 0.3 2.1
v -9.6 0.3 0.7
v -9.6 0.5 2.1
v -9.6 0.5 0.7
v -9.6 0.7 2
v -9.6 0.7 1.9
v -9.6 0.7 1.8
v -9.6 0.7 1.5
v -9.6 0.7 1.4
v -9.6 0.7 1.3
v -9.6 0.7 1
v -9.6 0.7 0.9
v -9.6 0.7 0.8
v -9.6 0.8 2
v -9.6 0.8 1.9
v -9.6 0.8 1.8
v -9.6 0.8 1.5
v -9.6 0.8 1.4
v -9.6 0.8 1.3
v -9.6 0.8 1
v -9.6 0.8 0.9
v -9.6 0.8 0.8
v -9.6 0.9 2.1
v -9.6 0.9 0.7
v -8.7 0.1 2.1
v -8.7 0.1 2
v -8.7 0.1 0.8
v -8.7 0.1 0.7
v -8.7 0.3 2.1
v -8.7 0.3 2
v -8.7 0.3 0.8
v -8.7 0.3 0.7
v -8.7 0.5 2.1
v -8.7 0.5 2
v -8.7 0.5 0.8
v -8.7 0.5 0.7
v -8.7 0.8 2.1
v -8.7 0.8 2
v -8.7 0.8 0.8
v -8.7 0.8 0.7
v -9.5 0.1 2.1
v -9.5 0.1 2
v -9.5 0.1 0.8
v -9.5 0.1 0.7
v -9.5 0.3 2.1
v -9.5 0.3 2
v -9.5 0.3 0.8
v -9.5 0.3 0.7
v -9.5 0.5 2.1
v -9.5 0.5 2
v -9.5 0.5 0.8
v -9.5 0.5 0.7
v -9.5 0.8 2.1
v -9.5 0.8 2
v -9.5 0.8 0.8
v -9.5 0.8 0.7
v -8.6 0 2.1
v -8.6 0 0.7
v -8.6 0.1 2
v -8.6 0.1 1.8
v -8.6 0.1 1.7
v -8.6 0.1 1.5
v -8.6 0.1 1.3
v -8.6 0.1 1.1
v -8.6 0.1 1
v -8.6 0.1 0.8
v -8.6 0.2 2
v -8.6 0.2 1.8
v -8.6 0.2 1.7
v -8.6 0.2 1.5
v -8.6 0.2 1.3
v -8.6 0.2 1.1
v -8.6 0.2 1
v -8.6 0.2 0.8
v -8.6 0.3 2.1
v -8.6 0.3 0.7
v -8.6 0.5 2.1
v -8.6 0.5 0.7
v -8.6 0.7 2
v -8.6 0.7 1.9
v -8.6 0.7 1.8
v -8.6 0.7 1.5
v -8.6 0.7 1.4
v -8.6 0.7 1.3
v -8.6 0.7 1
v -8.6 0.7 0.9
v -8.6 0.7 0.8
v -8.6 0.8 2
v -8.6 0.8 1.9
v -8.6 0.8 1.8
v -8.6 0.8 1.5
v -8.6 0.8 1.4
v -8.6 0.8 1.3
v -8.6 0.8 1
v -8.6 0.8 0.9
v -8.6 0.8 0.8
v -8.6 0.9 2.1
v -8.6 0.9 0.7
v -9.6 0 2.1
v -9.6 0.3 2.1
v -9.6 0.5 2.1
v -9.6 0.9 2.1
v -9.5 0.1 2.1
v -9.5 0.3 2.1
v -9.5 0.5 2.1
v -9.5 0.8 2.1
v -9.3 0 2.1
v -9.3 0.1 2.1
v -9.3 0.8 2.1
v -9.3 0.9 2.1
v -9.2 0 2.1
v -9.2 0.1 2.1
v -9.2 0.8 2.1
v -9.2 0.9 2.1
v -9 0 2.1
v -9 0.1 2.1
v -9 0.8 2.1
v -9 0.9 2.1
v -8.9 0 2.1
v -8.9 0.1 2.1
v -8.9 0.8 2.1
v -8.9 0.9 2.1
v -8.7 0.1 2.1
v -8.7 0.3 2.1
v -8.7 0.5 2.1
v -8.7 0.8 2.1
v -8.6 0 2.1
v -8.6 0.3 2.1
v -8.6 0.5 2.1
v -8.6 0.9 2.1
v -9.5 0.1 2
v -9.5 0.3 2
v -9.5 0.5 2
v -9.5 0.8 2
v -9.4 0.2 2
v -9.4 0.3 2
v -9.4 0.4 2
v -9.4 0.5 2
v -9.4 0.6 2
v -9.4 0.7 2
v -9.3 0.1 2
v -9.3 0.8 2
v -9.2 0.1 2
v -9.2 0.8 2
v -9 0.1 2
v -9 0.8 2
v -8.9 0.1 2
v -8.9 0.8 2
v -8.8 0.2 2
v -8.8 0.3 2
v -8.8 0.4 2
v -8.8 0.5 2
v -8.8 0.6 2
v -8.8 0.7 2
v -8.7 0.1 2
v -8.7 0.3 2
v -8.7 0.5 2
v -8.7 0.8 2
v -9.5 0.1 0.8
v -9.5 0.3 0.8
v -9.5 0.5 0.8
v -9.5 0.8 0.8
v -9.4 0.2 0.8
v -9.4 0.3 0.8
v -9.4 0.4 0.8
v -9.4 0.5 0.8
v -9.4 0.6 0.8
v -9.4 0.7 0.8
v -9.3 0.1 0.8
v -9.3 0.8 0.8
v -9.2 0.1 0.8
v -9.2 0.8 0.8
v -9 0.1 0.8
v -9 0.8 0.8
v -8.9 0.1 0.8
v -8.9 0.8 0.8
v -8.8 0.2 0.8
v -8.8 0.3 0.8
v -8.8 0.4 0.8
v -8.8 0.5 0.8
v -8.8 0.6 0.8
v -8.8 0.7 0.8
v -8.7 0.1 0.8
v -8.7 0.3 0.8
v -8.7 0.5 0.8
v -8.7 0.8 0.8
v -9.6 0 0.7
v -9.6 0.3 0.7
v -9.6 0.5 0.7
v -9.6 0.9 0.7
v -9.5 0.1 0.7
v -9.5 0.3 0.7
v -9.5 0.5 0.7
v -9.5 0.8 0.7
v -9.3 0 0.7
v -9.3 0.1 0.7
v -9.3 0.8 0.7
v -9.3 0.9 0.7
v -9.2 0 0.7
v -9.2 0.1 0.7
v -9.2 0.8 0.7
v -9.2 0.9 0.7
v -9 0 0.7
v -9 0.1 0.7
v -9 0.8 0.7
v -9 0.9 0.7
v -8.9 0 0.7
v -8.9 0.1 0.7
v -8.9 0.8 0.7
v -8.9 0.9 0.7
v -8.7 0.1 0.7
v -8.7 0.3 0.7
v -8.7 0.5 0.7
v -8.7 0.8 0.7
v -8.6 0 0.7
v -8.6 0.3 0.7
v -8.6 0.5 0.7
v -8.6 0.9 0.7
v -9.6 0 2.1
v -9.3 0 2.1
v -9.2 0 2.1
v -9 0 2.1
v -8.9 0 2.1
v -8.6 0 2.1
v -9.6 0 0.7
v -9.3 0 0.7
v -9.2 0 0.7
v -9 0 0.7
v -8.9 0 0.7
v -8.6 0 0.7
v -9.5 0.8 2.1
v -9.3 0.8 2.1
v -9.2 0.8 2.1
v -9 0.8 2.1
v -8.9 0.8 2.1
v -8.7 0.8 2.1
v -9.5 0.8 2
v -9.3 0.8 2
v -9.2 0.8 2
v -9 0.8 2
v -8.9 0.8 2
v -8.7 0.8 2
v -9.5 0.8 0.8
v -9.3 0.8 0.8
v -9.2 0.8 0.8
v -9 0.8 0.8
v -8.9 0.8 0.8
v -8.7 0.8 0.8
v -9.5 0.8 0.7
v -9.3 0.8 0.7
v -9.2 0.8 0.7
v -9 0.8 0.7
v -8.9 0.8 0.7
v -8.7 0.8 0.7
v -9.5 0.1 2.1
v -9.3 0.1 2.1
v -9.2 0.1 2.1
v -9 0.1 2.1
v -8.9 0.1 2.1
v -8.7 0.1 2.1
v -9.5 0.1 2
v -9.3 0.1 2
v -9.2 0.1 2
v -9 0.1 2
v -8.9 0.1 2
v -8.7 0.1 2
v -9.5 0.1 0.8
v -9.3 0.1 0.8
v -9.2 0.1 0.8
v -9 0.1 0.8
v -8.9 0.1 0.8
v -8.7 0.1 0.8
v -9.5 0.1 0.7
v -9.3 0.1 0.7
v -9.2 0.1 0.7
v -9 0.1 0.7
v -8.9 0.1 0.7
v -8.7 0.1 0.7
v -9.6 0.9 2.1
v -9.3 0.9 2.1
v -9.2 0.9 2.1
v -9 0.9 2.1
v -8.9 0.9 2.1
v -8.6 0.9 2.1
v -9.6 0.9 0.7
v -9.3 0.9 0.7
v -9.2 0.9 0.7
v -9 0.9 0.7
v -8.9 0.9 0.7
v -8.6 0.9 0.7

# faces
f 3/5/1 2/5/1 1/5/1
f 4/5/1 2/5/1 3/5/1
f 5/5/1 2/5/1 4/5/1
f 6/5/1 2/5/1 5/5/1
f 7/5/1 2/5/1 6/5/1
f 8/5/1 2/5/1 7/5/1
f 9/5/1 2/5/1 8/5/1
f 10/5/1 2/5/1 9/5/1
f 11/5/1 3/5/1 1/5/1
f 11/4/1 4/4/1 3/4/1
f 12/5/1 5/5/1 4/5/1
f 12/4/1 4/4/1 11/4/1
f 13/4/1 6/4/1 5/4/1
f 13/5/1 5/5/1 12/5/1
f 14/5/1 7/5/1 6/5/1
f 14/4/1 6/4/1 13/4/1
f 15/4/1 8/4/1 7/4/1
f 15/5/1 7/5/1 14/5/1
f 16/5/1 9/5/1 8/5/1
f 16/4/1 8/4/1 15/4/1
f 17/4/1 10/4/1 9/4/1
f 17/5/1 9/5/1 16/5/1
f 18/5/1 2/5/1 10/5/1
f 18/4/1 10/4/1 17/4/1
f 19/5/1 17/5/1 16/5/1
f 19/5/1 16/5/1 15/5/1
f 19/5/1 18/5/1 17/5/1
f 19/5/1 15/5/1 14/5/1
f 19/5/1 14/5/1 13/5/1
f 19/5/1 13/5/1 12/5/1
f 19/5/1 12/5/1 11/5/1
f 19/5/1 11/5/1 1/5/1
f 20/5/1 2/5/1 18/5/1
f 20/5/1 18/5/1 19/5/1
f 21/7/1 20/7/1 19/7/1
f 22/7/1 20/7/1 21/7/1
f 23/5/1 22/5/1 21/5/1
f 24/5/1 22/5/1 23/5/1
f 25/5/1 22/5/1 24/5/1
f 26/5/1 22/5/1 25/5/1
f 27/5/1 22/5/1 26/5/1
f 28/5/1 22/5/1 27/5/1
f 29/5/1 22/5/1 28/5/1
f 30/5/1 22/5/1 29/5/1
f 31/5/1 22/5/1 30/5/1
f 32/5/1 23/5/1 21/5/1
f 32/3/1 24/3/1 23/3/1
f 33/6/1 25/6/1 24/6/1
f 33/3/1 24/3/1 32/3/1
f 34/5/1 26/5/1 25/5/1
f 34/6/1 25/6/1 33/6/1
f 35/1/1 27/1/1 26/1/1
f 35/5/1 26/5/1 34/5/1
f 36/6/1 28/6/1 27/6/1
f 36/1/1 27/1/1 35/1/1
f 37/5/1 29/5/1 28/5/1
f 37/6/1 28/6/1 36/6/1
f 38/2/1 30/2/1 29/2/1
f 38/5/1 29/5/1 37/5/1
f 39/6/1 31/6/1 30/6/1
f 39/2/1 30/2/1 38/2/1
f 40/5/1 22/5/1 31/5/1
f 40/6/1 31/6/1 39/6/1
f 41/5/1 39/5/1 38/5/1
f 41/5/1 38/5/1 37/5/1
f 41/5/1 40/5/1 39/5/1
f 41/5/1 37/5/1 36/5/1
f 41/5/1 36/5/1 35/5/1
f 41/5/1 35/5/1 34/5/1
f 41/5/1 34/5/1 33/5/1
f 41/5/1 33/5/1 32/5/1
f 41/5/1 32/5/1 21/5/1
f 42/5/1 22/5/1 40/5/1
f 42/5/1 40/5/1 41/5/1
f 47/5/1 44/5/1 43/5/1
f 48/5/1 44/5/1 47/5/1
f 49/5/1 46/5/1 45/5/1
f 50/5/1 46/5/1 49/5/1
f 51/7/1 48/7/1 47/7/1
f 52/7/1 48/7/1 51/7/1
f 53/7/1 50/7/1 49/7/1
f 54/7/1 50/7/1 53/7/1
f 55/5/1 52/5/1 51/5/1
f 56/5/1 52/5/1 55/5/1
f 57/5/1 54/5/1 53/5/1
f 58/5/1 54/5/1 57/5/1
f 59/5/2 60/5/2 63/5/2
f 63/5/2 60/5/2 64/5/2
f 61/5/2 62/5/2 65/5/2
f 65/5/2 62/5/2 66/5/2
f 63/7/2 64/7/2 67/7/2
f 67/7/2 64/7/2 68/7/2
f 65/7/2 66/7/2 69/7/2
f 69/7/2 66/7/2 70/7/2
f 67/5/2 68/5/2 71/5/2
f 71/5/2 68/5/2 72/5/2
f 69/5/2 70/5/2 73/5/2
f 73/5/2 70/5/2 74/5/2
f 75/5/2 76/5/2 77/5/2
f 77/5/2 76/5/2 78/5/2
f 78/5/2 76/5/2 79/5/2
f 79/5/2 76/5/2 80/5/2
f 80/5/2 76/5/2 81/5/2
f 81/5/2 76/5/2 82/5/2
f 82/5/2 76/5/2 83/5/2
f 83/5/2 76/5/2 84/5/2
f 75/5/2 77/5/2 85/5/2
f 77/4/2 78/4/2 85/4/2
f 78/5/2 79/5/2 86/5/2
f 85/4/2 78/4/2 86/4/2
f 79/4/2 80/4/2 87/4/2
f 86/5/2 79/5/2 87/5/2
f 80/5/2 81/5/2 88/5/2
f 87/4/2 80/4/2 88/4/2
f 81/4/2 82/4/2 89/4/2
f 88/5/2 81/5/2 89/5/2
f 82/5/2 83/5/2 90/5/2
f 89/4/2 82/4/2 90/4/2
f 83/4/2 84/4/2 91/4/2
f 90/5/2 83/5/2 91/5/2
f 84/5/2 76/5/2 92/5/2
f 91/4/2 84/4/2 92/4/2
f 90/5/2 91/5/2 93/5/2
f 89/5/2 90/5/2 93/5/2
f 91/5/2 92/5/2 93/5/2
f 88/5/2 89/5/2 93/5/2
f 87/5/2 88/5/2 93/5/2
f 86/5/2 87/5/2 93/5/2
f 85/5/2 86/5/2 93/5/2
f 75/5/2 85/5/2 93/5/2
f 92/5/2 76/5/2 94/5/2
f 93/5/2 92/5/2 94/5/2
f 93/7/2 94/7/2 95/7/2
f 95/7/2 94/7/2 96/7/2
f 95/5/2 96/5/2 97/5/2
f 97/5/2 96/5/2 98/5/2
f 98/5/2 96/5/2 99/5/2
f 99/5/2 96/5/2 100/5/2
f 100/5/2 96/5/2 101/5/2
f 101/5/2 96/5/2 102/5/2
f 102/5/2 96/5/2 103/5/2
f 103/5/2 96/5/2 104/5/2
f 104/5/2 96/5/2 105/5/2
f 95/5/2 97/5/2 106/5/2
f 97/3/2 98/3/2 106/3/2
f 98/6/2 99/6/2 107/6/2
f 106/3/2 98/3/2 107/3/2
f 99/5/2 100/5/2 108/5/2
f 107/6/2 99/6/2 108/6/2
f 100/1/2 101/1/2 109/1/2
f 108/5/2 100/5/2 109/5/2
f 101/6/2 102/6/2 110/6/2
f 109/1/2 101/1/2 110/1/2
f 102/5/2 103/5/2 111/5/2
f 110/6/2 102/6/2 111/6/2
f 103/2/2 104/2/2 112/2/2
f 111/5/2 103/5/2 112/5/2
f 104/6/2 105/6/2 113/6/2
f 112/2/2 104/2/2 113/2/2
f 105/5/2 96/5/2 114/5/2
f 113/6/2 105/6/2 114/6/2
f 112/5/2 113/5/2 115/5/2
f 111/5/2 112/5/2 115/5/2
f 113/5/2 114/5/2 115/5/2
f 110/5/2 111/5/2 115/5/2
f 109/5/2 110/5/2 115/5/2
f 108/5/2 109/5/2 115/5/2
f 107/5/2 108/5/2 115/5/2
f 106/5/2 107/5/2 115/5/2
f 95/5/2 106/5/2 115/5/2
f 114/5/2 96/5/2 116/5/2
f 115/5/2 114/5/2 116/5/2
f 121/5/3 118/5/3 117/5/3
f 122/7/3 119/7/3 118/7/3
f 122/5/3 118/5/3 121/5/3
f 123/5/3 120/5/3 119/5/3
f 123/7/3 119/7/3 122/7/3
f 124/5/3 120/5/3 123/5/3
f 125/5/3 121/5/3 117/5/3
f 126/5/3 121/5/3 125/5/3
f 127/5/3 120/5/3 124/5/3
f 128/5/3 120/5/3 127/5/3
f 129/7/3 126/7/3 125/7/3
f 130/7/3 126/7/3 129/7/3
f 131/7/3 128/7/3 127/7/3
f 132/7/3 128/7/3 131/7/3
f 133/5/3 130/5/3 129/5/3
f 134/5/3 130/5/3 133/5/3
f 135/5/3 132/5/3 131/5/3
f 136/5/3 132/5/3 135/5/3
f 137/7/3 134/7/3 133/7/3
f 138/7/3 134/7/3 137/7/3
f 139/7/3 136/7/3 135/7/3
f 140/7/3 136/7/3 139/7/3
f 141/5/3 138/5/3 137/5/3
f 144/5/3 140/5/3 139/5/3
f 145/5/3 141/5/3 137/5/3
f 145/5/3 142/5/3 141/5/3
f 146/7/3 143/7/3 142/7/3
f 146/5/3 142/5/3 145/5/3
f 147/5/3 144/5/3 143/5/3
f 147/7/3 143/7/3 146/7/3
f 148/5/3 140/5/3 144/5/3
f 148/5/3 144/5/3 147/5/3
f 153/6/3 150/6/3 149/6/3
f 153/6/3 152/6/3 151/6/3
f 153/6/3 151/6/3 150/6/3
f 154/6/3 152/6/3 153/6/3
f 155/6/3 152/6/3 154/6/3
f 156/6/3 152/6/3 155/6/3
f 157/6/3 152/6/3 156/6/3
f 158/6/3 152/6/3 157/6/3
f 159/6/3 153/6/3 149/6/3
f 160/6/3 152/6/3 158/6/3
f 161/6/3 153/6/3 159/6/3
f 162/6/3 160/6/3 158/6/3
f 163/6/3 153/6/3 161/6/3
f 164/6/3 162/6/3 158/6/3
f 165/6/3 153/6/3 163/6/3
f 166/6/3 164/6/3 158/6/3
f 167/4/3 154/4/3 153/4/3
f 167/6/3 153/6/3 165/6/3
f 168/6/3 155/6/3 154/6/3
f 168/4/3 154/4/3 167/4/3
f 169/4/3 156/4/3 155/4/3
f 169/6/3 155/6/3 168/6/3
f 170/6/3 157/6/3 156/6/3
f 170/4/3 156/4/3 169/4/3
f 171/4/3 158/4/3 157/4/3
f 171/6/3 157/6/3 170/6/3
f 172/6/3 166/6/3 158/6/3
f 172/4/3 158/4/3 171/4/3
f 173/6/3 167/6/3 165/6/3
f 173/6/3 168/6/3 167/6/3
f 173/6/3 172/6/3 171/6/3
f 173/6/3 169/6/3 168/6/3
f 173/6/3 171/6/3 170/6/3
f 173/6/3 170/6/3 169/6/3
f 174/6/3 172/6/3 173/6/3
f 175/6/3 172/6/3 174/6/3
f 176/6/3 166/6/3 172/6/3
f 176/6/3 172/6/3 175/6/3
f 177/6/4 178/6/4 181/6/4
f 179/6/4 180/6/4 181/6/4
f 178/6/4 179/6/4 181/6/4
f 181/6/4 180/6/4 182/6/4
f 182/6/4 180/6/4 183/6/4
f 183/6/4 180/6/4 184/6/4
f 184/6/4 180/6/4 185/6/4
f 185/6/4 180/6/4 186/6/4
f 177/6/4 181/6/4 187/6/4
f 186/6/4 180/6/4 188/6/4
f 187/6/4 181/6/4 189/6/4
f 186/6/4 188/6/4 190/6/4
f 189/6/4 181/6/4 191/6/4
f 186/6/4 190/6/4 192/6/4
f 191/6/4 181/6/4 193/6/4
f 186/6/4 192/6/4 194/6/4
f 181/4/4 182/4/4 195/4/4
f 193/6/4 181/6/4 195/6/4
f 182/6/4 183/6/4 196/6/4
f 195/4/4 182/4/4 196/4/4
f 183/4/4 184/4/4 197/4/4
f 196/6/4 183/6/4 197/6/4
f 184/6/4 185/6/4 198/6/4
f 197/4/4 184/4/4 198/4/4
f 185/4/4 186/4/4 199/4/4
f 198/6/4 185/6/4 199/6/4
f 186/6/4 194/6/4 200/6/4
f 199/4/4 186/4/4 200/4/4
f 193/6/4 195/6/4 201/6/4
f 195/6/4 196/6/4 201/6/4
f 199/6/4 200/6/4 201/6/4
f 196/6/4 197/6/4 201/6/4
f 198/6/4 199/6/4 201/6/4
f 197/6/4 198/6/4 201/6/4
f 201/6/4 200/6/4 202/6/4
f 202/6/4 200/6/4 203/6/4
f 200/6/4 194/6/4 204/6/4
f 203/6/4 200/6/4 204/6/4
f 205/5/4 206/5/4 209/5/4
f 206/7/4 207/7/4 210/7/4
f 209/5/4 206/5/4 210/5/4
f 207/5/4 208/5/4 211/5/4
f 210/7/4 207/7/4 211/7/4
f 211/5/4 208/5/4 212/5/4
f 205/5/4 209/5/4 213/5/4
f 213/5/4 209/5/4 214/5/4
f 212/5/4 208/5/4 215/5/4
f 215/5/4 208/5/4 216/5/4
f 213/7/4 214/7/4 217/7/4
f 217/7/4 214/7/4 218/7/4
f 215/7/4 216/7/4 219/7/4
f 219/7/4 216/7/4 220/7/4
f 217/5/4 218/5/4 221/5/4
f 221/5/4 218/5/4 222/5/4
f 219/5/4 220/5/4 223/5/4
f 223/5/4 220/5/4 224/5/4
f 221/7/4 222/7/4 225/7/4
f 225/7/4 222/7/4 226/7/4
f 223/7/4 224/7/4 227/7/4
f 227/7/4 224/7/4 228/7/4
f 225/5/4 226/5/4 229/5/4
f 227/5/4 228/5/4 232/5/4
f 225/5/4 229/5/4 233/5/4
f 229/5/4 230/5/4 233/5/4
f 230/7/4 231/7/4 234/7/4
f 233/5/4 230/5/4 234/5/4
f 231/5/4 232/5/4 235/5/4
f 234/7/4 231/7/4 235/7/4
f 232/5/4 228/5/4 236/5/4
f 235/5/4 232/5/4 236/5/4
f 243/5/5 238/5/5 237/5/5
f 244/7/5 239/7/5 238/7/5
f 244/5/5 238/5/5 243/5/5
f 245/5/5 240/5/5 239/5/5
f 245/7/5 239/7/5 244/7/5
f 246/7/5 241/7/5 240/7/5
f 246/5/5 240/5/5 245/5/5
f 247/5/5 242/5/5 241/5/5
f 247/7/5 241/7/5 246/7/5
f 248/5/5 242/5/5 247/5/5
f 255/5/5 250/5/5 249/5/5
f 256/7/5 251/7/5 250/7/5
f 256/5/5 250/5/5 255/5/5
f 257/5/5 252/5/5 251/5/5
f 257/7/5 251/7/5 256/7/5
f 258/7/5 253/7/5 252/7/5
f 258/5/5 252/5/5 257/5/5
f 259/5/5 254/5/5 253/5/5
f 259/7/5 253/7/5 258/7/5
f 260/5/5 254/5/5 259/5/5
f 267/5/5 262/5/5 261/5/5
f 268/7/5 263/7/5 262/7/5
f 268/5/5 262/5/5 267/5/5
f 269/5/5 264/5/5 263/5/5
f 269/7/5 263/7/5 268/7/5
f 270/7/5 265/7/5 264/7/5
f 270/5/5 264/5/5 269/5/5
f 271/5/5 266/5/5 265/5/5
f 271/7/5 265/7/5 270/7/5
f 272/5/5 266/5/5 271/5/5
f 273/5/6 274/5/6 279/5/6
f 274/7/6 275/7/6 280/7/6
f 279/5/6 274/5/6 280/5/6
f 275/5/6 276/5/6 281/5/6
f 280/7/6 275/7/6 281/7/6
f 276/7/6 277/7/6 282/7/6
f 281/5/6 276/5/6 282/5/6
f 277/5/6 278/5/6 283/5/6
f 282/7/6 277/7/6 283/7/6
f 283/5/6 278/5/6 284/5/6
f 285/5/6 286/5/6 291/5/6
f 286/7/6 287/7/6 292/7/6
f 291/5/6 286/5/6 292/5/6
f 287/5/6 288/5/6 293/5/6
f 292/7/6 287/7/6 293/7/6
f 288/7/6 289/7/6 294/7/6
f 293/5/6 288/5/6 294/5/6
f 289/5/6 290/5/6 295/5/6
f 294/7/6 289/7/6 295/7/6
f 295/5/6 290/5/6 296/5/6
f 297/5/6 298/5/6 303/5/6
f 298/7/6 299/7/6 304/7/6
f 303/5/6 298/5/6 304/5/6
f 299/5/6 300/5/6 305/5/6
f 304/7/6 299/7/6 305/7/6
f 300/7/6 301/7/6 306/7/6
f 305/5/6 300/5/6 306/5/6
f 301/5/6 302/5/6 307/5/6
f 306/7/6 301/7/6 307/7/6
f 307/5/6 302/5/6 308/5/6
