# MagicaVoxel @ Ephtracy

# group
o 

# material
mtllib Robot.vox-43.mtl
usemtl palette

# normals
vn 1 0 0
vn -1 0 0
vn 0 0 1
vn 0 0 -1
vn 0 -1 0
vn 0 1 0

# texcoords
vt 0.939453 0.5
vt 0.970703 0.5
vt 0.982422 0.5

# verts
v 0.3 0.5 -5.1
v 0.3 0.5 -6.6
v 0.3 0.6 -5.1
v 0.3 0.6 -6.6
v 0.2 0.6 -5.2
v 0.2 0.6 -6.5
v 0.2 0.7 -5.2
v 0.2 0.7 -5.4
v 0.2 0.7 -5.6
v 0.2 0.7 -6.3
v 0.2 0.7 -6.4
v 0.2 0.7 -6.5
v 0.2 0.8 -5.4
v 0.2 0.8 -5.5
v 0.2 0.8 -5.6
v 0.2 0.8 -6.3
v 0.2 0.9 -5.5
v 0.2 0.9 -5.8
v 0.2 0.9 -6
v 0.2 0.9 -6.3
v 0.2 1 -5.8
v 0.2 1 -5.9
v 0.2 1 -6
v 0.2 1 -6.3
v 0.2 1.1 -6.1
v 0.2 1.1 -6.2
v 0.2 1.3 -5.9
v 0.2 1.3 -6
v 0.2 1.4 -6.1
v 0.2 1.4 -6.2
v 0.2 1.4 -6.3
v 0.2 1.4 -6.4
v 0.2 1.5 -6
v 0.2 1.5 -6.3
v 0.1 0.6 -6.5
v 0.1 0.6 -6.6
v 0.1 0.7 -5.3
v 0.1 0.7 -5.4
v 0.1 0.7 -6.4
v 0.1 0.7 -6.5
v 0.1 0.7 -6.6
v 0.1 0.8 -5.3
v 0.1 0.8 -5.4
v 0.1 0.8 -5.5
v 0.1 0.9 -5.4
v 0.1 0.9 -5.5
v 0.1 0.9 -5.8
v 0.1 1 -5.5
v 0.1 1 -5.6
v 0.1 1 -5.8
v 0.1 1 -5.9
v 0.1 1.1 -5.6
v 0.1 1.1 -5.7
v 0.1 1.3 -5.7
v 0.1 1.3 -5.8
v 0.1 1.3 -5.9
v 0.1 1.3 -6
v 0.1 1.3 -6.4
v 0.1 1.3 -6.5
v 0.1 1.4 -6.3
v 0.1 1.4 -6.4
v 0.1 1.5 -5.8
v 0.1 1.5 -5.9
v 0.1 1.5 -6
v 0.1 1.5 -6.3
v 0.1 1.5 -6.4
v 0.1 1.6 -5.9
v 0.1 1.6 -6.3
v -0.1 0.5 -5.6
v -0.1 0.5 -5.7
v -0.1 0.5 -5.9
v -0.1 0.5 -6
v -0.1 0.6 -5.6
v -0.1 0.6 -5.7
v -0.1 0.6 -5.9
v -0.1 0.6 -6
v 0 0.5 -5.6
v 0 0.5 -5.7
v 0 0.5 -5.9
v 0 0.5 -6
v 0 0.6 -5.6
v 0 0.6 -5.7
v 0 0.6 -5.9
v 0 0.6 -6
v -0.1 0.6 -6.5
v -0.1 0.6 -6.6
v -0.1 0.7 -5.3
v -0.1 0.7 -5.4
v -0.1 0.7 -6.4
v -0.1 0.7 -6.5
v -0.1 0.7 -6.6
v -0.1 0.8 -5.3
v -0.1 0.8 -5.4
v -0.1 0.8 -5.5
v -0.1 0.9 -5.4
v -0.1 0.9 -5.5
v -0.1 0.9 -5.8
v -0.1 1 -5.5
v -0.1 1 -5.6
v -0.1 1 -5.8
v -0.1 1 -5.9
v -0.1 1.1 -5.6
v -0.1 1.1 -5.7
v -0.1 1.3 -5.7
v -0.1 1.3 -5.8
v -0.1 1.3 -5.9
v -0.1 1.3 -6
v -0.1 1.3 -6.4
v -0.1 1.3 -6.5
v -0.1 1.4 -6.3
v -0.1 1.4 -6.4
v -0.1 1.5 -5.8
v -0.1 1.5 -5.9
v -0.1 1.5 -6
v -0.1 1.5 -6.3
v -0.1 1.5 -6.4
v -0.1 1.6 -5.9
v -0.1 1.6 -6.3
v -0.2 0.6 -5.2
v -0.2 0.6 -6.5
v -0.2 0.7 -5.2
v -0.2 0.7 -5.4
v -0.2 0.7 -5.6
v -0.2 0.7 -6.3
v -0.2 0.7 -6.4
v -0.2 0.7 -6.5
v -0.2 0.8 -5.4
v -0.2 0.8 -5.5
v -0.2 0.8 -5.6
v -0.2 0.8 -6.3
v -0.2 0.9 -5.5
v -0.2 0.9 -5.8
v -0.2 0.9 -6
v -0.2 0.9 -6.3
v -0.2 1 -5.8
v -0.2 1 -5.9
v -0.2 1 -6
v -0.2 1 -6.3
v -0.2 1.1 -6.1
v -0.2 1.1 -6.2
v -0.2 1.3 -5.9
v -0.2 1.3 -6
v -0.2 1.4 -6.1
v -0.2 1.4 -6.2
v -0.2 1.4 -6.3
v -0.2 1.4 -6.4
v -0.2 1.5 -6
v -0.2 1.5 -6.3
v -0.3 0.5 -5.1
v -0.3 0.5 -6.6
v -0.3 0.6 -5.1
v -0.3 0.6 -6.6
v 0.3 0.5 -5.1
v 0.3 0.6 -5.1
v -0.3 0.5 -5.1
v -0.3 0.6 -5.1
v 0.2 0.6 -5.2
v 0.2 0.7 -5.2
v 0.1 0.6 -5.2
v 0.1 0.7 -5.2
v -0.1 0.6 -5.2
v -0.1 0.7 -5.2
v -0.2 0.6 -5.2
v -0.2 0.7 -5.2
v 0.1 0.7 -5.3
v 0.1 0.8 -5.3
v -0.1 0.7 -5.3
v -0.1 0.8 -5.3
v 0.2 0.7 -5.4
v 0.2 0.8 -5.4
v 0.1 0.7 -5.4
v 0.1 0.8 -5.4
v 0.1 0.9 -5.4
v -0.1 0.7 -5.4
v -0.1 0.8 -5.4
v -0.1 0.9 -5.4
v -0.2 0.7 -5.4
v -0.2 0.8 -5.4
v 0.2 0.8 -5.5
v 0.2 0.9 -5.5
v 0.1 0.8 -5.5
v 0.1 0.9 -5.5
v 0.1 1 -5.5
v -0.1 0.8 -5.5
v -0.1 0.9 -5.5
v -0.1 1 -5.5
v -0.2 0.8 -5.5
v -0.2 0.9 -5.5
v 0.1 1 -5.6
v 0.1 1.1 -5.6
v -0.1 1 -5.6
v -0.1 1.1 -5.6
v 0.1 1.1 -5.7
v 0.1 1.3 -5.7
v 0 0.5 -5.7
v 0 0.6 -5.7
v -0.1 0.5 -5.7
v -0.1 0.6 -5.7
v -0.1 1.1 -5.7
v -0.1 1.3 -5.7
v 0.2 0.9 -5.8
v 0.2 1 -5.8
v 0.1 0.9 -5.8
v 0.1 1 -5.8
v 0.1 1.3 -5.8
v 0.1 1.5 -5.8
v -0.1 0.9 -5.8
v -0.1 1 -5.8
v -0.1 1.3 -5.8
v -0.1 1.5 -5.8
v -0.2 0.9 -5.8
v -0.2 1 -5.8
v 0.2 1 -5.9
v 0.2 1.3 -5.9
v 0.1 1 -5.9
v 0.1 1.3 -5.9
v 0.1 1.5 -5.9
v 0.1 1.6 -5.9
v -0.1 1 -5.9
v -0.1 1.3 -5.9
v -0.1 1.5 -5.9
v -0.1 1.6 -5.9
v -0.2 1 -5.9
v -0.2 1.3 -5.9
v 0.2 1.3 -6
v 0.2 1.5 -6
v 0.1 1.3 -6
v 0.1 1.5 -6
v 0 0.5 -6
v 0 0.6 -6
v -0.1 0.5 -6
v -0.1 0.6 -6
v -0.1 1.3 -6
v -0.1 1.5 -6
v -0.2 1.3 -6
v -0.2 1.5 -6
v 0 0.5 -5.6
v 0 0.6 -5.6
v -0.1 0.5 -5.6
v -0.1 0.6 -5.6
v 0 0.5 -5.9
v 0 0.6 -5.9
v -0.1 0.5 -5.9
v -0.1 0.6 -5.9
v 0.2 1.4 -6.3
v 0.2 1.5 -6.3
v 0.1 1.4 -6.3
v 0.1 1.5 -6.3
v 0.1 1.6 -6.3
v -0.1 1.4 -6.3
v -0.1 1.5 -6.3
v -0.1 1.6 -6.3
v -0.2 1.4 -6.3
v -0.2 1.5 -6.3
v 0.2 0.7 -6.4
v 0.2 1.4 -6.4
v 0.1 0.7 -6.4
v 0.1 1.3 -6.4
v 0.1 1.4 -6.4
v 0.1 1.5 -6.4
v -0.1 0.7 -6.4
v -0.1 1.3 -6.4
v -0.1 1.4 -6.4
v -0.1 1.5 -6.4
v -0.2 0.7 -6.4
v -0.2 1.4 -6.4
v 0.2 0.6 -6.5
v 0.2 0.7 -6.5
v 0.1 0.6 -6.5
v 0.1 0.7 -6.5
v 0.1 1.3 -6.5
v -0.1 0.6 -6.5
v -0.1 0.7 -6.5
v -0.1 1.3 -6.5
v -0.2 0.6 -6.5
v -0.2 0.7 -6.5
v 0.3 0.5 -6.6
v 0.3 0.6 -6.6
v 0.1 0.6 -6.6
v 0.1 0.7 -6.6
v -0.1 0.6 -6.6
v -0.1 0.7 -6.6
v -0.3 0.5 -6.6
v -0.3 0.6 -6.6
v 0.3 0.5 -5.1
v -0.3 0.5 -5.1
v 0.2 0.5 -5.2
v -0.1 0.5 -5.2
v 0.1 0.5 -5.6
v 0 0.5 -5.6
v -0.1 0.5 -5.6
v 0.1 0.5 -5.7
v 0 0.5 -5.7
v -0.1 0.5 -5.7
v 0.1 0.5 -5.9
v 0 0.5 -5.9
v -0.1 0.5 -5.9
v 0.1 0.5 -6
v 0 0.5 -6
v -0.1 0.5 -6
v -0.1 0.5 -6.3
v -0.2 0.5 -6.3
v 0.2 0.5 -6.4
v -0.2 0.5 -6.4
v 0.3 0.5 -6.6
v -0.3 0.5 -6.6
v 0 0.6 -5.6
v -0.1 0.6 -5.6
v 0 0.6 -5.7
v -0.1 0.6 -5.7
v 0 0.6 -5.9
v -0.1 0.6 -5.9
v 0 0.6 -6
v -0.1 0.6 -6
v 0.3 0.6 -5.1
v -0.3 0.6 -5.1
v 0.2 0.6 -5.2
v 0.1 0.6 -5.2
v -0.1 0.6 -5.2
v -0.2 0.6 -5.2
v 0.2 0.6 -6.5
v 0.1 0.6 -6.5
v -0.1 0.6 -6.5
v -0.2 0.6 -6.5
v 0.3 0.6 -6.6
v 0.1 0.6 -6.6
v -0.1 0.6 -6.6
v -0.3 0.6 -6.6
v 0.2 0.7 -5.2
v 0.1 0.7 -5.2
v -0.1 0.7 -5.2
v -0.2 0.7 -5.2
v 0.1 0.7 -5.3
v -0.1 0.7 -5.3
v 0.2 0.7 -5.4
v 0.1 0.7 -5.4
v -0.1 0.7 -5.4
v -0.2 0.7 -5.4
v 0.2 0.7 -6.4
v 0.1 0.7 -6.4
v -0.1 0.7 -6.4
v -0.2 0.7 -6.4
v 0.2 0.7 -6.5
v 0.1 0.7 -6.5
v -0.1 0.7 -6.5
v -0.2 0.7 -6.5
v 0.1 0.7 -6.6
v -0.1 0.7 -6.6
v 0.1 0.8 -5.3
v -0.1 0.8 -5.3
v 0.2 0.8 -5.4
v 0.1 0.8 -5.4
v -0.1 0.8 -5.4
v -0.2 0.8 -5.4
v 0.2 0.8 -5.5
v 0.1 0.8 -5.5
v -0.1 0.8 -5.5
v -0.2 0.8 -5.5
v 0.1 0.9 -5.4
v -0.1 0.9 -5.4
v 0.2 0.9 -5.5
v 0.1 0.9 -5.5
v -0.1 0.9 -5.5
v -0.2 0.9 -5.5
v 0.2 0.9 -5.8
v 0.1 0.9 -5.8
v -0.1 0.9 -5.8
v -0.2 0.9 -5.8
v 0.1 1 -5.5
v -0.1 1 -5.5
v 0.1 1 -5.6
v -0.1 1 -5.6
v 0.2 1 -5.8
v 0.1 1 -5.8
v -0.1 1 -5.8
v -0.2 1 -5.8
v 0.2 1 -5.9
v 0.1 1 -5.9
v -0.1 1 -5.9
v -0.2 1 -5.9
v 0.1 1.1 -5.6
v -0.1 1.1 -5.6
v 0.1 1.1 -5.7
v -0.1 1.1 -5.7
v 0.1 1.3 -5.7
v -0.1 1.3 -5.7
v 0.1 1.3 -5.8
v -0.1 1.3 -5.8
v 0.2 1.3 -5.9
v 0.1 1.3 -5.9
v -0.1 1.3 -5.9
v -0.2 1.3 -5.9
v 0.2 1.3 -6
v 0.1 1.3 -6
v -0.1 1.3 -6
v -0.2 1.3 -6
v 0.1 1.3 -6.4
v -0.1 1.3 -6.4
v 0.1 1.3 -6.5
v -0.1 1.3 -6.5
v 0.2 1.4 -6.3
v 0.1 1.4 -6.3
v -0.1 1.4 -6.3
v -0.2 1.4 -6.3
v 0.2 1.4 -6.4
v 0.1 1.4 -6.4
v -0.1 1.4 -6.4
v -0.2 1.4 -6.4
v 0.1 1.5 -5.8
v -0.1 1.5 -5.8
v 0.1 1.5 -5.9
v -0.1 1.5 -5.9
v 0.2 1.5 -6
v 0.1 1.5 -6
v -0.1 1.5 -6
v -0.2 1.5 -6
v 0.2 1.5 -6.3
v 0.1 1.5 -6.3
v -0.1 1.5 -6.3
v -0.2 1.5 -6.3
v 0.1 1.5 -6.4
v -0.1 1.5 -6.4
v 0.1 1.6 -5.9
v -0.1 1.6 -5.9
v 0.1 1.6 -6.3
v -0.1 1.6 -6.3

# faces
f 1/2/1 2/2/1 3/2/1
f 3/2/1 2/2/1 4/2/1
f 5/2/1 6/2/1 7/2/1
f 7/2/1 6/2/1 8/2/1
f 8/2/1 6/2/1 9/2/1
f 9/2/1 6/2/1 10/2/1
f 10/2/1 6/2/1 11/2/1
f 11/2/1 6/2/1 12/2/1
f 8/2/1 9/2/1 13/2/1
f 13/2/1 9/2/1 14/2/1
f 9/1/1 10/1/1 15/1/1
f 14/2/1 9/2/1 15/2/1
f 10/2/1 11/2/1 16/2/1
f 15/1/1 10/1/1 16/1/1
f 14/2/1 15/2/1 17/2/1
f 15/2/1 16/2/1 17/2/1
f 17/2/1 16/2/1 18/2/1
f 18/2/1 16/2/1 19/2/1
f 16/2/1 11/2/1 20/2/1
f 19/2/1 16/2/1 20/2/1
f 18/2/1 19/2/1 21/2/1
f 21/2/1 19/2/1 22/2/1
f 19/1/1 20/1/1 23/1/1
f 22/2/1 19/2/1 23/2/1
f 20/2/1 11/2/1 24/2/1
f 23/1/1 20/1/1 24/1/1
f 22/2/1 23/2/1 25/2/1
f 23/2/1 24/2/1 25/2/1
f 25/2/1 24/2/1 26/2/1
f 22/2/1 25/2/1 27/2/1
f 27/2/1 25/2/1 28/2/1
f 25/1/1 26/1/1 29/1/1
f 28/2/1 25/2/1 29/2/1
f 26/2/1 24/2/1 30/2/1
f 29/1/1 26/1/1 30/1/1
f 24/2/1 11/2/1 31/2/1
f 30/2/1 24/2/1 31/2/1
f 31/2/1 11/2/1 32/2/1
f 29/2/1 30/2/1 33/2/1
f 28/2/1 29/2/1 33/2/1
f 30/2/1 31/2/1 33/2/1
f 33/2/1 31/2/1 34/2/1
f 35/3/1 36/3/1 40/3/1
f 40/3/1 36/3/1 41/3/1
f 37/3/1 38/3/1 42/3/1
f 42/3/1 38/3/1 43/3/1
f 43/3/1 44/3/1 45/3/1
f 45/3/1 44/3/1 46/3/1
f 46/3/1 47/3/1 48/3/1
f 48/3/1 47/3/1 49/3/1
f 49/3/1 47/3/1 50/3/1
f 50/3/1 51/3/1 52/3/1
f 49/3/1 50/3/1 52/3/1
f 52/3/1 51/3/1 53/3/1
f 53/3/1 51/3/1 54/3/1
f 54/3/1 51/3/1 55/3/1
f 55/3/1 51/3/1 56/3/1
f 39/3/1 40/3/1 58/3/1
f 58/3/1 40/3/1 59/3/1
f 56/3/1 57/3/1 62/3/1
f 55/3/1 56/3/1 62/3/1
f 62/3/1 57/3/1 63/3/1
f 63/3/1 57/3/1 64/3/1
f 60/3/1 61/3/1 65/3/1
f 65/3/1 61/3/1 66/3/1
f 63/3/1 64/3/1 67/3/1
f 64/3/1 65/3/1 67/3/1
f 67/3/1 65/3/1 68/3/1
f 69/2/1 70/2/1 73/2/1
f 73/2/1 70/2/1 74/2/1
f 71/2/1 72/2/1 75/2/1
f 75/2/1 72/2/1 76/2/1
f 81/2/2 78/2/2 77/2/2
f 82/2/2 78/2/2 81/2/2
f 83/2/2 80/2/2 79/2/2
f 84/2/2 80/2/2 83/2/2
f 90/3/2 86/3/2 85/3/2
f 91/3/2 86/3/2 90/3/2
f 92/3/2 88/3/2 87/3/2
f 93/3/2 88/3/2 92/3/2
f 95/3/2 94/3/2 93/3/2
f 96/3/2 94/3/2 95/3/2
f 98/3/2 97/3/2 96/3/2
f 99/3/2 97/3/2 98/3/2
f 100/3/2 97/3/2 99/3/2
f 102/3/2 101/3/2 100/3/2
f 102/3/2 100/3/2 99/3/2
f 103/3/2 101/3/2 102/3/2
f 104/3/2 101/3/2 103/3/2
f 105/3/2 101/3/2 104/3/2
f 106/3/2 101/3/2 105/3/2
f 108/3/2 90/3/2 89/3/2
f 109/3/2 90/3/2 108/3/2
f 112/3/2 107/3/2 106/3/2
f 112/3/2 106/3/2 105/3/2
f 113/3/2 107/3/2 112/3/2
f 114/3/2 107/3/2 113/3/2
f 115/3/2 111/3/2 110/3/2
f 116/3/2 111/3/2 115/3/2
f 117/3/2 114/3/2 113/3/2
f 117/3/2 115/3/2 114/3/2
f 118/3/2 115/3/2 117/3/2
f 121/2/2 120/2/2 119/2/2
f 122/2/2 120/2/2 121/2/2
f 123/2/2 120/2/2 122/2/2
f 124/2/2 120/2/2 123/2/2
f 125/2/2 120/2/2 124/2/2
f 126/2/2 120/2/2 125/2/2
f 127/2/2 123/2/2 122/2/2
f 128/2/2 123/2/2 127/2/2
f 129/1/2 124/1/2 123/1/2
f 129/2/2 123/2/2 128/2/2
f 130/2/2 125/2/2 124/2/2
f 130/1/2 124/1/2 129/1/2
f 131/2/2 129/2/2 128/2/2
f 131/2/2 130/2/2 129/2/2
f 132/2/2 130/2/2 131/2/2
f 133/2/2 130/2/2 132/2/2
f 134/2/2 125/2/2 130/2/2
f 134/2/2 130/2/2 133/2/2
f 135/2/2 133/2/2 132/2/2
f 136/2/2 133/2/2 135/2/2
f 137/1/2 134/1/2 133/1/2
f 137/2/2 133/2/2 136/2/2
f 138/2/2 125/2/2 134/2/2
f 138/1/2 134/1/2 137/1/2
f 139/2/2 137/2/2 136/2/2
f 139/2/2 138/2/2 137/2/2
f 140/2/2 138/2/2 139/2/2
f 141/2/2 139/2/2 136/2/2
f 142/2/2 139/2/2 141/2/2
f 143/1/2 140/1/2 139/1/2
f 143/2/2 139/2/2 142/2/2
f 144/2/2 138/2/2 140/2/2
f 144/1/2 140/1/2 143/1/2
f 145/2/2 125/2/2 138/2/2
f 145/2/2 138/2/2 144/2/2
f 146/2/2 125/2/2 145/2/2
f 147/2/2 144/2/2 143/2/2
f 147/2/2 143/2/2 142/2/2
f 147/2/2 145/2/2 144/2/2
f 148/2/2 145/2/2 147/2/2
f 151/2/2 150/2/2 149/2/2
f 152/2/2 150/2/2 151/2/2
f 153/2/3 154/2/3 155/2/3
f 155/2/3 154/2/3 156/2/3
f 157/2/3 158/2/3 159/2/3
f 159/2/3 158/2/3 160/2/3
f 159/3/3 160/3/3 161/3/3
f 161/3/3 160/3/3 162/3/3
f 161/2/3 162/2/3 163/2/3
f 163/2/3 162/2/3 164/2/3
f 165/3/3 166/3/3 167/3/3
f 167/3/3 166/3/3 168/3/3
f 169/2/3 170/2/3 171/2/3
f 171/2/3 170/2/3 172/2/3
f 172/3/3 173/3/3 175/3/3
f 175/3/3 173/3/3 176/3/3
f 174/2/3 175/2/3 177/2/3
f 177/2/3 175/2/3 178/2/3
f 179/2/3 180/2/3 181/2/3
f 181/2/3 180/2/3 182/2/3
f 182/3/3 183/3/3 185/3/3
f 185/3/3 183/3/3 186/3/3
f 184/2/3 185/2/3 187/2/3
f 187/2/3 185/2/3 188/2/3
f 189/3/3 190/3/3 191/3/3
f 191/3/3 190/3/3 192/3/3
f 195/3/3 196/3/3 197/3/3
f 197/3/3 196/3/3 198/3/3
f 193/3/3 194/3/3 199/3/3
f 199/3/3 194/3/3 200/3/3
f 201/2/3 202/2/3 203/2/3
f 203/2/3 202/2/3 204/2/3
f 205/3/3 206/3/3 209/3/3
f 209/3/3 206/3/3 210/3/3
f 207/2/3 208/2/3 211/2/3
f 211/2/3 208/2/3 212/2/3
f 213/2/3 214/2/3 215/2/3
f 215/2/3 214/2/3 216/2/3
f 217/3/3 218/3/3 221/3/3
f 221/3/3 218/3/3 222/3/3
f 219/2/3 220/2/3 223/2/3
f 223/2/3 220/2/3 224/2/3
f 225/2/3 226/2/3 227/2/3
f 227/2/3 226/2/3 228/2/3
f 229/3/3 230/3/3 231/3/3
f 231/3/3 230/3/3 232/3/3
f 233/2/3 234/2/3 235/2/3
f 235/2/3 234/2/3 236/2/3
f 239/3/4 238/3/4 237/3/4
f 240/3/4 238/3/4 239/3/4
f 243/3/4 242/3/4 241/3/4
f 244/3/4 242/3/4 243/3/4
f 247/2/4 246/2/4 245/2/4
f 248/2/4 246/2/4 247/2/4
f 251/3/4 249/3/4 248/3/4
f 252/3/4 249/3/4 251/3/4
f 253/2/4 251/2/4 250/2/4
f 254/2/4 251/2/4 253/2/4
f 257/2/4 256/2/4 255/2/4
f 258/2/4 256/2/4 257/2/4
f 259/2/4 256/2/4 258/2/4
f 262/3/4 260/3/4 259/3/4
f 262/3/4 259/3/4 258/3/4
f 263/3/4 260/3/4 262/3/4
f 264/3/4 260/3/4 263/3/4
f 265/2/4 262/2/4 261/2/4
f 265/2/4 263/2/4 262/2/4
f 266/2/4 263/2/4 265/2/4
f 269/2/4 268/2/4 267/2/4
f 270/2/4 268/2/4 269/2/4
f 273/3/4 271/3/4 270/3/4
f 274/3/4 271/3/4 273/3/4
f 275/2/4 273/2/4 272/2/4
f 276/2/4 273/2/4 275/2/4
f 279/2/4 278/2/4 277/2/4
f 281/2/4 279/2/4 277/2/4
f 281/3/4 280/3/4 279/3/4
f 282/3/4 280/3/4 281/3/4
f 283/2/4 281/2/4 277/2/4
f 284/2/4 281/2/4 283/2/4
f 285/2/5 286/2/5 287/2/5
f 287/2/5 286/2/5 288/2/5
f 287/3/5 288/3/5 289/3/5
f 289/3/5 288/3/5 290/3/5
f 288/2/5 286/2/5 291/2/5
f 290/3/5 288/3/5 291/3/5
f 289/2/5 290/2/5 292/2/5
f 287/3/5 289/3/5 292/3/5
f 292/2/5 290/2/5 293/2/5
f 291/2/5 286/2/5 294/2/5
f 292/3/5 293/3/5 295/3/5
f 293/3/5 294/3/5 295/3/5
f 287/3/5 292/3/5 295/3/5
f 295/3/5 294/3/5 296/3/5
f 294/2/5 286/2/5 297/2/5
f 296/3/5 294/3/5 297/3/5
f 295/2/5 296/2/5 298/2/5
f 287/3/5 295/3/5 298/3/5
f 298/2/5 296/2/5 299/2/5
f 297/2/5 286/2/5 300/2/5
f 298/3/5 299/3/5 301/3/5
f 299/3/5 300/3/5 301/3/5
f 300/2/5 286/2/5 301/2/5
f 301/2/5 286/2/5 302/2/5
f 285/2/5 287/2/5 303/2/5
f 287/3/5 298/3/5 303/3/5
f 301/3/5 302/3/5 303/3/5
f 298/3/5 301/3/5 303/3/5
f 302/2/5 286/2/5 304/2/5
f 303/3/5 302/3/5 304/3/5
f 285/2/5 303/2/5 305/2/5
f 303/2/5 304/2/5 305/2/5
f 304/2/5 286/2/5 306/2/5
f 305/2/5 304/2/5 306/2/5
f 307/3/5 308/3/5 309/3/5
f 309/3/5 308/3/5 310/3/5
f 311/3/5 312/3/5 313/3/5
f 313/3/5 312/3/5 314/3/5
f 317/2/6 316/2/6 315/2/6
f 318/2/6 316/2/6 317/2/6
f 319/2/6 316/2/6 318/2/6
f 320/2/6 316/2/6 319/2/6
f 321/2/6 317/2/6 315/2/6
f 324/2/6 316/2/6 320/2/6
f 325/2/6 322/2/6 321/2/6
f 325/2/6 321/2/6 315/2/6
f 326/2/6 322/2/6 325/2/6
f 327/2/6 324/2/6 323/2/6
f 328/2/6 316/2/6 324/2/6
f 328/2/6 324/2/6 327/2/6
f 333/2/6 330/2/6 329/2/6
f 333/3/6 331/3/6 330/3/6
f 334/2/6 332/2/6 331/2/6
f 334/3/6 331/3/6 333/3/6
f 335/2/6 333/2/6 329/2/6
f 336/2/6 333/2/6 335/2/6
f 337/2/6 332/2/6 334/2/6
f 338/2/6 332/2/6 337/2/6
f 343/2/6 340/2/6 339/2/6
f 344/2/6 340/2/6 343/2/6
f 345/2/6 342/2/6 341/2/6
f 346/2/6 342/2/6 345/2/6
f 347/3/6 345/3/6 344/3/6
f 348/3/6 345/3/6 347/3/6
f 352/3/6 350/3/6 349/3/6
f 353/3/6 350/3/6 352/3/6
f 355/2/6 352/2/6 351/2/6
f 356/2/6 352/2/6 355/2/6
f 357/2/6 354/2/6 353/2/6
f 358/2/6 354/2/6 357/2/6
f 362/3/6 360/3/6 359/3/6
f 363/3/6 360/3/6 362/3/6
f 365/2/6 362/2/6 361/2/6
f 366/2/6 362/2/6 365/2/6
f 367/2/6 364/2/6 363/2/6
f 368/2/6 364/2/6 367/2/6
f 371/3/6 370/3/6 369/3/6
f 372/3/6 370/3/6 371/3/6
f 377/2/6 374/2/6 373/2/6
f 378/2/6 374/2/6 377/2/6
f 379/2/6 376/2/6 375/2/6
f 380/2/6 376/2/6 379/2/6
f 383/3/6 382/3/6 381/3/6
f 384/3/6 382/3/6 383/3/6
f 387/3/6 386/3/6 385/3/6
f 388/3/6 386/3/6 387/3/6
f 393/2/6 390/2/6 389/2/6
f 394/2/6 390/2/6 393/2/6
f 395/2/6 392/2/6 391/2/6
f 396/2/6 392/2/6 395/2/6
f 399/3/6 398/3/6 397/3/6
f 400/3/6 398/3/6 399/3/6
f 405/2/6 402/2/6 401/2/6
f 406/2/6 402/2/6 405/2/6
f 407/2/6 404/2/6 403/2/6
f 408/2/6 404/2/6 407/2/6
f 411/3/6 410/3/6 409/3/6
f 412/3/6 410/3/6 411/3/6
f 417/2/6 414/2/6 413/2/6
f 418/2/6 414/2/6 417/2/6
f 419/2/6 416/2/6 415/2/6
f 420/2/6 416/2/6 419/2/6
f 421/3/6 419/3/6 418/3/6
f 422/3/6 419/3/6 421/3/6
f 425/3/6 424/3/6 423/3/6
f 426/3/6 424/3/6 425/3/6
