# MagicaVoxel @ Ephtracy

# group
o 

# material
mtllib Robot.vox-22.mtl
usemtl palette

# normals
vn -1 0 0
vn 1 0 0
vn 0 0 1
vn 0 0 -1
vn 0 -1 0
vn 0 1 0

# texcoords
vt 0.970703 0.5
vt 0.978516 0.5
vt 0.982422 0.5

# verts
v 1.8 -0.1 0.3
v 1.8 -0.1 -0.1
v 1.8 0.1 0.3
v 1.8 0.1 -0.1
v 1.8 0.3 0.2
v 1.8 0.3 0.1
v 1.8 0.4 0.2
v 1.8 0.4 0.1
v 1.8 0.4 0
v 1.8 0.5 0.1
v 1.8 0.5 0
v 1.8 0.6 0.3
v 1.8 0.6 0.2
v 1.8 0.6 0
v 1.8 0.6 -0.1
v 1.8 0.7 0.2
v 1.8 0.7 0
v 1.9 -0.1 0.4
v 1.9 -0.1 0.3
v 1.9 -0.1 -0.1
v 1.9 -0.1 -0.2
v 1.9 0.1 0.4
v 1.9 0.1 0.3
v 1.9 0.1 -0.1
v 1.9 0.1 -0.2
v 1.9 0.6 0.3
v 1.9 0.6 0.2
v 1.9 0.6 0
v 1.9 0.6 -0.1
v 1.9 0.7 0.4
v 1.9 0.7 0.3
v 1.9 0.7 0.2
v 1.9 0.7 0
v 1.9 0.7 -0.1
v 1.9 0.7 -0.2
v 1.9 0.8 0.3
v 1.9 0.8 -0.1
v 2 -0.1 0.5
v 2 -0.1 0.4
v 2 -0.1 -0.2
v 2 -0.1 -0.3
v 2 0.1 0.5
v 2 0.1 0.4
v 2 0.1 -0.2
v 2 0.1 -0.3
v 2 0.6 0.5
v 2 0.6 0.4
v 2 0.6 -0.2
v 2 0.6 -0.3
v 2 0.7 0.4
v 2 0.7 0.3
v 2 0.7 -0.1
v 2 0.7 -0.2
v 2 0.8 0.4
v 2 0.8 0.3
v 2 0.8 -0.1
v 2 0.8 -0.2
v 2.3 0.2 0.5
v 2.3 0.2 -0.3
v 2.3 0.6 0.5
v 2.3 0.6 0.4
v 2.3 0.6 -0.2
v 2.3 0.6 -0.3
v 2.3 0.8 0.4
v 2.3 0.8 -0.2
v 2.1 0.2 0.5
v 2.1 0.2 -0.3
v 2.1 0.6 0.5
v 2.1 0.6 0.4
v 2.1 0.6 -0.2
v 2.1 0.6 -0.3
v 2.1 0.8 0.4
v 2.1 0.8 -0.2
v 2.4 -0.1 0.5
v 2.4 -0.1 0.4
v 2.4 -0.1 -0.2
v 2.4 -0.1 -0.3
v 2.4 0.1 0.5
v 2.4 0.1 0.4
v 2.4 0.1 -0.2
v 2.4 0.1 -0.3
v 2.4 0.6 0.5
v 2.4 0.6 0.4
v 2.4 0.6 -0.2
v 2.4 0.6 -0.3
v 2.4 0.7 0.4
v 2.4 0.7 0.3
v 2.4 0.7 -0.1
v 2.4 0.7 -0.2
v 2.4 0.8 0.4
v 2.4 0.8 0.3
v 2.4 0.8 -0.1
v 2.4 0.8 -0.2
v 2.5 -0.1 0.4
v 2.5 -0.1 0.3
v 2.5 -0.1 -0.1
v 2.5 -0.1 -0.2
v 2.5 0.1 0.4
v 2.5 0.1 0.3
v 2.5 0.1 -0.1
v 2.5 0.1 -0.2
v 2.5 0.6 0.3
v 2.5 0.6 0.2
v 2.5 0.6 0
v 2.5 0.6 -0.1
v 2.5 0.7 0.4
v 2.5 0.7 0.3
v 2.5 0.7 0.2
v 2.5 0.7 0
v 2.5 0.7 -0.1
v 2.5 0.7 -0.2
v 2.5 0.8 0.3
v 2.5 0.8 -0.1
v 2.6 -0.1 0.3
v 2.6 -0.1 -0.1
v 2.6 0.1 0.3
v 2.6 0.1 -0.1
v 2.6 0.3 0.2
v 2.6 0.3 0.1
v 2.6 0.4 0.2
v 2.6 0.4 0.1
v 2.6 0.4 0
v 2.6 0.5 0.1
v 2.6 0.5 0
v 2.6 0.6 0.3
v 2.6 0.6 0.2
v 2.6 0.6 0
v 2.6 0.6 -0.1
v 2.6 0.7 0.2
v 2.6 0.7 0
v 2 -0.1 0.5
v 2 0.1 0.5
v 2 0.6 0.5
v 2.1 0.1 0.5
v 2.1 0.2 0.5
v 2.1 0.6 0.5
v 2.3 0.1 0.5
v 2.3 0.2 0.5
v 2.3 0.6 0.5
v 2.4 -0.1 0.5
v 2.4 0.1 0.5
v 2.4 0.6 0.5
v 1.9 -0.1 0.4
v 1.9 0.1 0.4
v 1.9 0.7 0.4
v 2 -0.1 0.4
v 2 0.1 0.4
v 2 0.6 0.4
v 2 0.7 0.4
v 2 0.8 0.4
v 2.1 0.6 0.4
v 2.1 0.8 0.4
v 2.3 0.6 0.4
v 2.3 0.8 0.4
v 2.4 -0.1 0.4
v 2.4 0.1 0.4
v 2.4 0.6 0.4
v 2.4 0.7 0.4
v 2.4 0.8 0.4
v 2.5 -0.1 0.4
v 2.5 0.1 0.4
v 2.5 0.7 0.4
v 1.8 -0.1 0.3
v 1.8 0.1 0.3
v 1.8 0.6 0.3
v 1.9 -0.1 0.3
v 1.9 0.1 0.3
v 1.9 0.6 0.3
v 1.9 0.7 0.3
v 1.9 0.8 0.3
v 2 0.7 0.3
v 2 0.8 0.3
v 2.4 0.7 0.3
v 2.4 0.8 0.3
v 2.5 -0.1 0.3
v 2.5 0.1 0.3
v 2.5 0.6 0.3
v 2.5 0.7 0.3
v 2.5 0.8 0.3
v 2.6 -0.1 0.3
v 2.6 0.1 0.3
v 2.6 0.6 0.3
v 1.8 0.6 0.2
v 1.8 0.7 0.2
v 1.9 0.6 0.2
v 1.9 0.7 0.2
v 2.5 0.6 0.2
v 2.5 0.7 0.2
v 2.6 0.6 0.2
v 2.6 0.7 0.2
v 1.8 0.6 0
v 1.8 0.7 0
v 1.9 0.6 0
v 1.9 0.7 0
v 2.5 0.6 0
v 2.5 0.7 0
v 2.6 0.6 0
v 2.6 0.7 0
v 1.8 -0.1 -0.1
v 1.8 0.1 -0.1
v 1.8 0.6 -0.1
v 1.9 -0.1 -0.1
v 1.9 0.1 -0.1
v 1.9 0.6 -0.1
v 1.9 0.7 -0.1
v 1.9 0.8 -0.1
v 2 0.7 -0.1
v 2 0.8 -0.1
v 2.4 0.7 -0.1
v 2.4 0.8 -0.1
v 2.5 -0.1 -0.1
v 2.5 0.1 -0.1
v 2.5 0.6 -0.1
v 2.5 0.7 -0.1
v 2.5 0.8 -0.1
v 2.6 -0.1 -0.1
v 2.6 0.1 -0.1
v 2.6 0.6 -0.1
v 1.9 -0.1 -0.2
v 1.9 0.1 -0.2
v 1.9 0.7 -0.2
v 2 -0.1 -0.2
v 2 0.1 -0.2
v 2 0.6 -0.2
v 2 0.7 -0.2
v 2 0.8 -0.2
v 2.1 0.6 -0.2
v 2.1 0.8 -0.2
v 2.3 0.6 -0.2
v 2.3 0.8 -0.2
v 2.4 -0.1 -0.2
v 2.4 0.1 -0.2
v 2.4 0.6 -0.2
v 2.4 0.7 -0.2
v 2.4 0.8 -0.2
v 2.5 -0.1 -0.2
v 2.5 0.1 -0.2
v 2.5 0.7 -0.2
v 2 -0.1 -0.3
v 2 0.1 -0.3
v 2 0.6 -0.3
v 2.1 0.1 -0.3
v 2.1 0.2 -0.3
v 2.1 0.6 -0.3
v 2.3 0.1 -0.3
v 2.3 0.2 -0.3
v 2.3 0.6 -0.3
v 2.4 -0.1 -0.3
v 2.4 0.1 -0.3
v 2.4 0.6 -0.3
v 2 -0.1 0.5
v 2.4 -0.1 0.5
v 1.9 -0.1 0.4
v 2 -0.1 0.4
v 2.4 -0.1 0.4
v 2.5 -0.1 0.4
v 1.8 -0.1 0.3
v 1.9 -0.1 0.3
v 2.5 -0.1 0.3
v 2.6 -0.1 0.3
v 1.8 -0.1 -0.1
v 1.9 -0.1 -0.1
v 2.5 -0.1 -0.1
v 2.6 -0.1 -0.1
v 1.9 -0.1 -0.2
v 2 -0.1 -0.2
v 2.4 -0.1 -0.2
v 2.5 -0.1 -0.2
v 2 -0.1 -0.3
v 2.4 -0.1 -0.3
v 2.1 0.2 0.5
v 2.3 0.2 0.5
v 2.1 0.2 -0.3
v 2.3 0.2 -0.3
v 2 0.6 0.5
v 2.1 0.6 0.5
v 2.3 0.6 0.5
v 2.4 0.6 0.5
v 2 0.6 0.4
v 2.1 0.6 0.4
v 2.3 0.6 0.4
v 2.4 0.6 0.4
v 1.8 0.6 0.3
v 1.9 0.6 0.3
v 2.5 0.6 0.3
v 2.6 0.6 0.3
v 1.8 0.6 0.2
v 1.9 0.6 0.2
v 2.5 0.6 0.2
v 2.6 0.6 0.2
v 1.8 0.6 0
v 1.9 0.6 0
v 2.5 0.6 0
v 2.6 0.6 0
v 1.8 0.6 -0.1
v 1.9 0.6 -0.1
v 2.5 0.6 -0.1
v 2.6 0.6 -0.1
v 2 0.6 -0.2
v 2.1 0.6 -0.2
v 2.3 0.6 -0.2
v 2.4 0.6 -0.2
v 2 0.6 -0.3
v 2.1 0.6 -0.3
v 2.3 0.6 -0.3
v 2.4 0.6 -0.3
v 1.9 0.7 0.4
v 2 0.7 0.4
v 2.4 0.7 0.4
v 2.5 0.7 0.4
v 1.9 0.7 0.3
v 2 0.7 0.3
v 2.4 0.7 0.3
v 2.5 0.7 0.3
v 1.8 0.7 0.2
v 1.9 0.7 0.2
v 2.5 0.7 0.2
v 2.6 0.7 0.2
v 1.8 0.7 0
v 1.9 0.7 0
v 2.5 0.7 0
v 2.6 0.7 0
v 1.9 0.7 -0.1
v 2 0.7 -0.1
v 2.4 0.7 -0.1
v 2.5 0.7 -0.1
v 1.9 0.7 -0.2
v 2 0.7 -0.2
v 2.4 0.7 -0.2
v 2.5 0.7 -0.2
v 2 0.8 0.4
v 2.1 0.8 0.4
v 2.3 0.8 0.4
v 2.4 0.8 0.4
v 1.9 0.8 0.3
v 2 0.8 0.3
v 2.4 0.8 0.3
v 2.5 0.8 0.3
v 1.9 0.8 -0.1
v 2 0.8 -0.1
v 2.4 0.8 -0.1
v 2.5 0.8 -0.1
v 2 0.8 -0.2
v 2.1 0.8 -0.2
v 2.3 0.8 -0.2
v 2.4 0.8 -0.2

# faces
f 3/2/1 2/2/1 1/2/1
f 4/2/1 2/2/1 3/2/1
f 5/3/1 4/3/1 3/3/1
f 6/3/1 4/3/1 5/3/1
f 7/3/1 5/3/1 3/3/1
f 7/1/1 6/1/1 5/1/1
f 8/3/1 4/3/1 6/3/1
f 8/1/1 6/1/1 7/1/1
f 9/3/1 4/3/1 8/3/1
f 10/3/1 8/3/1 7/3/1
f 10/1/1 9/1/1 8/1/1
f 11/3/1 4/3/1 9/3/1
f 11/1/1 9/1/1 10/1/1
f 12/3/1 7/3/1 3/3/1
f 12/3/1 10/3/1 7/3/1
f 12/3/1 11/3/1 10/3/1
f 13/3/1 11/3/1 12/3/1
f 14/3/1 4/3/1 11/3/1
f 14/3/1 11/3/1 13/3/1
f 15/3/1 4/3/1 14/3/1
f 16/3/1 14/3/1 13/3/1
f 17/3/1 14/3/1 16/3/1
f 22/2/1 19/2/1 18/2/1
f 23/2/1 19/2/1 22/2/1
f 24/2/1 21/2/1 20/2/1
f 25/2/1 21/2/1 24/2/1
f 26/3/1 23/3/1 22/3/1
f 29/3/1 25/3/1 24/3/1
f 30/3/1 27/3/1 26/3/1
f 30/3/1 26/3/1 22/3/1
f 31/3/1 27/3/1 30/3/1
f 32/3/1 27/3/1 31/3/1
f 33/3/1 29/3/1 28/3/1
f 34/3/1 25/3/1 29/3/1
f 34/3/1 29/3/1 33/3/1
f 35/3/1 25/3/1 34/3/1
f 36/3/1 32/3/1 31/3/1
f 36/3/1 33/3/1 32/3/1
f 36/3/1 34/3/1 33/3/1
f 37/3/1 34/3/1 36/3/1
f 42/2/1 39/2/1 38/2/1
f 43/2/1 39/2/1 42/2/1
f 44/2/1 41/2/1 40/2/1
f 45/2/1 41/2/1 44/2/1
f 46/3/1 43/3/1 42/3/1
f 47/3/1 43/3/1 46/3/1
f 48/3/1 45/3/1 44/3/1
f 49/3/1 45/3/1 48/3/1
f 54/3/1 51/3/1 50/3/1
f 55/3/1 51/3/1 54/3/1
f 56/3/1 53/3/1 52/3/1
f 57/3/1 53/3/1 56/3/1
f 60/3/1 59/3/1 58/3/1
f 61/3/1 59/3/1 60/3/1
f 62/3/1 59/3/1 61/3/1
f 63/3/1 59/3/1 62/3/1
f 64/3/1 62/3/1 61/3/1
f 65/3/1 62/3/1 64/3/1
f 66/3/2 67/3/2 68/3/2
f 68/3/2 67/3/2 69/3/2
f 69/3/2 67/3/2 70/3/2
f 70/3/2 67/3/2 71/3/2
f 69/3/2 70/3/2 72/3/2
f 72/3/2 70/3/2 73/3/2
f 74/2/2 75/2/2 78/2/2
f 78/2/2 75/2/2 79/2/2
f 76/2/2 77/2/2 80/2/2
f 80/2/2 77/2/2 81/2/2
f 78/3/2 79/3/2 82/3/2
f 82/3/2 79/3/2 83/3/2
f 80/3/2 81/3/2 84/3/2
f 84/3/2 81/3/2 85/3/2
f 86/3/2 87/3/2 90/3/2
f 90/3/2 87/3/2 91/3/2
f 88/3/2 89/3/2 92/3/2
f 92/3/2 89/3/2 93/3/2
f 94/2/2 95/2/2 98/2/2
f 98/2/2 95/2/2 99/2/2
f 96/2/2 97/2/2 100/2/2
f 100/2/2 97/2/2 101/2/2
f 98/3/2 99/3/2 102/3/2
f 100/3/2 101/3/2 105/3/2
f 102/3/2 103/3/2 106/3/2
f 98/3/2 102/3/2 106/3/2
f 106/3/2 103/3/2 107/3/2
f 107/3/2 103/3/2 108/3/2
f 104/3/2 105/3/2 109/3/2
f 105/3/2 101/3/2 110/3/2
f 109/3/2 105/3/2 110/3/2
f 110/3/2 101/3/2 111/3/2
f 107/3/2 108/3/2 112/3/2
f 108/3/2 109/3/2 112/3/2
f 109/3/2 110/3/2 112/3/2
f 112/3/2 110/3/2 113/3/2
f 114/2/2 115/2/2 116/2/2
f 116/2/2 115/2/2 117/2/2
f 116/3/2 117/3/2 118/3/2
f 118/3/2 117/3/2 119/3/2
f 116/3/2 118/3/2 120/3/2
f 118/1/2 119/1/2 120/1/2
f 119/3/2 117/3/2 121/3/2
f 120/1/2 119/1/2 121/1/2
f 121/3/2 117/3/2 122/3/2
f 120/3/2 121/3/2 123/3/2
f 121/1/2 122/1/2 123/1/2
f 122/3/2 117/3/2 124/3/2
f 123/1/2 122/1/2 124/1/2
f 116/3/2 120/3/2 125/3/2
f 120/3/2 123/3/2 125/3/2
f 123/3/2 124/3/2 125/3/2
f 125/3/2 124/3/2 126/3/2
f 124/3/2 117/3/2 127/3/2
f 126/3/2 124/3/2 127/3/2
f 127/3/2 117/3/2 128/3/2
f 126/3/2 127/3/2 129/3/2
f 129/3/2 127/3/2 130/3/2
f 134/2/3 132/2/3 131/2/3
f 134/3/3 133/3/3 132/3/3
f 135/3/3 133/3/3 134/3/3
f 136/3/3 133/3/3 135/3/3
f 137/2/3 134/2/3 131/2/3
f 137/1/3 135/1/3 134/1/3
f 138/1/3 135/1/3 137/1/3
f 140/2/3 137/2/3 131/2/3
f 141/3/3 139/3/3 138/3/3
f 141/2/3 137/2/3 140/2/3
f 141/3/3 138/3/3 137/3/3
f 142/3/3 139/3/3 141/3/3
f 146/2/3 144/2/3 143/2/3
f 147/3/3 145/3/3 144/3/3
f 147/2/3 144/2/3 146/2/3
f 148/3/3 145/3/3 147/3/3
f 149/3/3 145/3/3 148/3/3
f 151/3/3 150/3/3 149/3/3
f 151/3/3 149/3/3 148/3/3
f 152/3/3 150/3/3 151/3/3
f 157/3/3 154/3/3 153/3/3
f 158/3/3 154/3/3 157/3/3
f 159/3/3 154/3/3 158/3/3
f 160/2/3 156/2/3 155/2/3
f 161/3/3 157/3/3 156/3/3
f 161/2/3 156/2/3 160/2/3
f 161/3/3 158/3/3 157/3/3
f 162/3/3 158/3/3 161/3/3
f 166/2/3 164/2/3 163/2/3
f 167/3/3 165/3/3 164/3/3
f 167/2/3 164/2/3 166/2/3
f 168/3/3 165/3/3 167/3/3
f 171/3/3 170/3/3 169/3/3
f 172/3/3 170/3/3 171/3/3
f 178/3/3 174/3/3 173/3/3
f 179/3/3 174/3/3 178/3/3
f 180/2/3 176/2/3 175/2/3
f 181/3/3 177/3/3 176/3/3
f 181/2/3 176/2/3 180/2/3
f 182/3/3 177/3/3 181/3/3
f 185/3/3 184/3/3 183/3/3
f 186/3/3 184/3/3 185/3/3
f 189/3/3 188/3/3 187/3/3
f 190/3/3 188/3/3 189/3/3
f 191/3/4 192/3/4 193/3/4
f 193/3/4 192/3/4 194/3/4
f 195/3/4 196/3/4 197/3/4
f 197/3/4 196/3/4 198/3/4
f 199/2/4 200/2/4 202/2/4
f 200/3/4 201/3/4 203/3/4
f 202/2/4 200/2/4 203/2/4
f 203/3/4 201/3/4 204/3/4
f 205/3/4 206/3/4 207/3/4
f 207/3/4 206/3/4 208/3/4
f 209/3/4 210/3/4 214/3/4
f 214/3/4 210/3/4 215/3/4
f 211/2/4 212/2/4 216/2/4
f 212/3/4 213/3/4 217/3/4
f 216/2/4 212/2/4 217/2/4
f 217/3/4 213/3/4 218/3/4
f 219/2/4 220/2/4 222/2/4
f 220/3/4 221/3/4 223/3/4
f 222/2/4 220/2/4 223/2/4
f 223/3/4 221/3/4 224/3/4
f 224/3/4 221/3/4 225/3/4
f 225/3/4 226/3/4 227/3/4
f 224/3/4 225/3/4 227/3/4
f 227/3/4 226/3/4 228/3/4
f 229/3/4 230/3/4 233/3/4
f 233/3/4 230/3/4 234/3/4
f 234/3/4 230/3/4 235/3/4
f 231/2/4 232/2/4 236/2/4
f 232/3/4 233/3/4 237/3/4
f 236/2/4 232/2/4 237/2/4
f 233/3/4 234/3/4 237/3/4
f 237/3/4 234/3/4 238/3/4
f 239/2/4 240/2/4 242/2/4
f 240/3/4 241/3/4 242/3/4
f 242/3/4 241/3/4 243/3/4
f 243/3/4 241/3/4 244/3/4
f 239/2/4 242/2/4 245/2/4
f 242/1/4 243/1/4 245/1/4
f 245/1/4 243/1/4 246/1/4
f 239/2/4 245/2/4 248/2/4
f 246/3/4 247/3/4 249/3/4
f 248/2/4 245/2/4 249/2/4
f 245/3/4 246/3/4 249/3/4
f 249/3/4 247/3/4 250/3/4
f 254/2/5 252/2/5 251/2/5
f 255/2/5 252/2/5 254/2/5
f 258/2/5 254/2/5 253/2/5
f 258/2/5 256/2/5 255/2/5
f 258/2/5 255/2/5 254/2/5
f 259/2/5 256/2/5 258/2/5
f 261/2/5 258/2/5 257/2/5
f 261/2/5 260/2/5 259/2/5
f 261/2/5 259/2/5 258/2/5
f 262/2/5 260/2/5 261/2/5
f 263/2/5 260/2/5 262/2/5
f 264/2/5 260/2/5 263/2/5
f 265/2/5 263/2/5 262/2/5
f 266/2/5 263/2/5 265/2/5
f 267/2/5 263/2/5 266/2/5
f 268/2/5 263/2/5 267/2/5
f 269/2/5 267/2/5 266/2/5
f 270/2/5 267/2/5 269/2/5
f 271/1/6 272/1/6 273/1/6
f 273/1/6 272/1/6 274/1/6
f 275/3/6 276/3/6 279/3/6
f 279/3/6 276/3/6 280/3/6
f 277/3/6 278/3/6 281/3/6
f 281/3/6 278/3/6 282/3/6
f 283/3/6 284/3/6 287/3/6
f 287/3/6 284/3/6 288/3/6
f 285/3/6 286/3/6 289/3/6
f 289/3/6 286/3/6 290/3/6
f 291/3/6 292/3/6 295/3/6
f 295/3/6 292/3/6 296/3/6
f 293/3/6 294/3/6 297/3/6
f 297/3/6 294/3/6 298/3/6
f 299/3/6 300/3/6 303/3/6
f 303/3/6 300/3/6 304/3/6
f 301/3/6 302/3/6 305/3/6
f 305/3/6 302/3/6 306/3/6
f 307/3/6 308/3/6 311/3/6
f 311/3/6 308/3/6 312/3/6
f 309/3/6 310/3/6 313/3/6
f 313/3/6 310/3/6 314/3/6
f 315/3/6 316/3/6 319/3/6
f 319/3/6 316/3/6 320/3/6
f 317/3/6 318/3/6 321/3/6
f 321/3/6 318/3/6 322/3/6
f 323/3/6 324/3/6 327/3/6
f 327/3/6 324/3/6 328/3/6
f 325/3/6 326/3/6 329/3/6
f 329/3/6 326/3/6 330/3/6
f 331/3/6 332/3/6 336/3/6
f 333/3/6 334/3/6 337/3/6
f 335/3/6 336/3/6 339/3/6
f 336/3/6 332/3/6 340/3/6
f 339/3/6 336/3/6 340/3/6
f 337/3/6 338/3/6 341/3/6
f 333/3/6 337/3/6 341/3/6
f 341/3/6 338/3/6 342/3/6
f 340/3/6 332/3/6 343/3/6
f 343/3/6 332/3/6 344/3/6
f 333/3/6 341/3/6 345/3/6
f 345/3/6 341/3/6 346/3/6
