# MagicaVoxel @ Ephtracy

# group
o 

# material
mtllib Robot.vox-23.mtl
usemtl palette

# normals
vn -1 0 0
vn 1 0 0
vn 0 0 1
vn 0 0 -1
vn 0 -1 0
vn 0 1 0

# texcoords
vt 0.916016 0.5
vt 0.947266 0.5
vt 0.970703 0.5
vt 0.978516 0.5
vt 0.982422 0.5

# verts
v 3.9 0.2 3.6
v 3.9 0.2 3.2
v 3.9 0.3 4
v 3.9 0.3 3.8
v 3.9 0.3 3.6
v 3.9 0.3 3.5
v 3.9 0.3 3.3
v 3.9 0.4 3.5
v 3.9 0.4 3.3
v 3.9 0.5 4
v 3.9 0.5 3.8
v 3.9 0.5 3.3
v 3.9 0.6 3.3
v 3.9 0.6 3.2
v 4 0 4.1
v 4 0 3.7
v 4 0.1 4.2
v 4 0.1 4.1
v 4 0.1 3.7
v 4 0.1 3.6
v 4 0.2 4.3
v 4 0.2 4.2
v 4 0.2 3.6
v 4 0.3 4
v 4 0.3 3.8
v 4 0.3 3.6
v 4 0.5 4
v 4 0.5 3.8
v 4 0.5 3.5
v 4 0.6 4.3
v 4 0.6 4.2
v 4 0.6 3.6
v 4 0.6 3.5
v 4 0.7 4.2
v 4 0.7 4.1
v 4 0.7 3.7
v 4 0.7 3.6
v 4 0.8 4.1
v 4 0.8 3.7
v 4.4 0.5 3.4
v 4.4 0.5 3.3
v 4.4 0.6 3.4
v 4.4 0.6 3.3
v 5.4 0.2 3.5
v 5.4 0.2 3.4
v 5.4 0.3 3.5
v 5.4 0.3 3.4
v 5.4 0.4 3.5
v 5.4 0.4 3.4
v 5.4 0.5 3.5
v 5.4 0.5 3.4
v 4 0.2 3.5
v 4 0.2 3.4
v 4 0.3 3.5
v 4 0.3 3.4
v 4 0.4 3.5
v 4 0.4 3.4
v 4 0.5 3.5
v 4 0.5 3.4
v 5 0.5 3.4
v 5 0.5 3.3
v 5 0.6 3.4
v 5 0.6 3.3
v 5.4 0 4.1
v 5.4 0 3.7
v 5.4 0.1 4.2
v 5.4 0.1 4.1
v 5.4 0.1 3.7
v 5.4 0.1 3.6
v 5.4 0.2 4.3
v 5.4 0.2 4.2
v 5.4 0.2 3.6
v 5.4 0.3 4
v 5.4 0.3 3.8
v 5.4 0.3 3.6
v 5.4 0.5 4
v 5.4 0.5 3.8
v 5.4 0.5 3.5
v 5.4 0.6 4.3
v 5.4 0.6 4.2
v 5.4 0.6 3.6
v 5.4 0.6 3.5
v 5.4 0.7 4.2
v 5.4 0.7 4.1
v 5.4 0.7 3.7
v 5.4 0.7 3.6
v 5.4 0.8 4.1
v 5.4 0.8 3.7
v 5.5 0.2 3.6
v 5.5 0.2 3.2
v 5.5 0.3 4
v 5.5 0.3 3.8
v 5.5 0.3 3.6
v 5.5 0.3 3.5
v 5.5 0.3 3.3
v 5.5 0.4 3.5
v 5.5 0.4 3.3
v 5.5 0.5 4
v 5.5 0.5 3.8
v 5.5 0.5 3.3
v 5.5 0.6 3.3
v 5.5 0.6 3.2
v 4 0.2 4.3
v 4 0.6 4.3
v 4.2 0.2 4.3
v 4.2 0.3 4.3
v 4.2 0.5 4.3
v 4.2 0.6 4.3
v 4.3 0.2 4.3
v 4.3 0.3 4.3
v 4.3 0.5 4.3
v 4.3 0.6 4.3
v 4.5 0.2 4.3
v 4.5 0.3 4.3
v 4.5 0.5 4.3
v 4.5 0.6 4.3
v 4.6 0.2 4.3
v 4.6 0.3 4.3
v 4.6 0.5 4.3
v 4.6 0.6 4.3
v 4.8 0.2 4.3
v 4.8 0.3 4.3
v 4.8 0.5 4.3
v 4.8 0.6 4.3
v 4.9 0.2 4.3
v 4.9 0.3 4.3
v 4.9 0.5 4.3
v 4.9 0.6 4.3
v 5.1 0.2 4.3
v 5.1 0.3 4.3
v 5.1 0.5 4.3
v 5.1 0.6 4.3
v 5.2 0.2 4.3
v 5.2 0.3 4.3
v 5.2 0.5 4.3
v 5.2 0.6 4.3
v 5.4 0.2 4.3
v 5.4 0.6 4.3
v 4 0.1 4.2
v 4 0.2 4.2
v 4 0.6 4.2
v 4 0.7 4.2
v 4.2 0.2 4.2
v 4.2 0.6 4.2
v 4.3 0.2 4.2
v 4.3 0.6 4.2
v 4.5 0.2 4.2
v 4.5 0.6 4.2
v 4.6 0.2 4.2
v 4.6 0.6 4.2
v 4.8 0.2 4.2
v 4.8 0.6 4.2
v 4.9 0.2 4.2
v 4.9 0.6 4.2
v 5.1 0.2 4.2
v 5.1 0.6 4.2
v 5.2 0.2 4.2
v 5.2 0.6 4.2
v 5.4 0.1 4.2
v 5.4 0.2 4.2
v 5.4 0.6 4.2
v 5.4 0.7 4.2
v 4 0 4.1
v 4 0.1 4.1
v 4 0.7 4.1
v 4 0.8 4.1
v 4.2 0 4.1
v 4.2 0.1 4.1
v 4.2 0.7 4.1
v 4.2 0.8 4.1
v 4.3 0 4.1
v 4.3 0.1 4.1
v 4.3 0.7 4.1
v 4.3 0.8 4.1
v 4.5 0 4.1
v 4.5 0.1 4.1
v 4.5 0.7 4.1
v 4.5 0.8 4.1
v 4.6 0 4.1
v 4.6 0.1 4.1
v 4.6 0.7 4.1
v 4.6 0.8 4.1
v 4.8 0 4.1
v 4.8 0.1 4.1
v 4.8 0.7 4.1
v 4.8 0.8 4.1
v 4.9 0 4.1
v 4.9 0.1 4.1
v 4.9 0.7 4.1
v 4.9 0.8 4.1
v 5.1 0 4.1
v 5.1 0.1 4.1
v 5.1 0.7 4.1
v 5.1 0.8 4.1
v 5.2 0 4.1
v 5.2 0.1 4.1
v 5.2 0.7 4.1
v 5.2 0.8 4.1
v 5.4 0 4.1
v 5.4 0.1 4.1
v 5.4 0.7 4.1
v 5.4 0.8 4.1
v 3.9 0.3 4
v 3.9 0.5 4
v 4 0.3 4
v 4 0.5 4
v 5.4 0.3 4
v 5.4 0.5 4
v 5.5 0.3 4
v 5.5 0.5 4
v 3.9 0.2 3.6
v 3.9 0.3 3.6
v 4 0.2 3.6
v 4 0.3 3.6
v 5.4 0.2 3.6
v 5.4 0.3 3.6
v 5.5 0.2 3.6
v 5.5 0.3 3.6
v 4 0.2 3.4
v 4 0.3 3.4
v 4 0.4 3.4
v 4 0.5 3.4
v 4.4 0.5 3.4
v 4.4 0.6 3.4
v 5 0.5 3.4
v 5 0.6 3.4
v 5.4 0.2 3.4
v 5.4 0.3 3.4
v 5.4 0.4 3.4
v 5.4 0.5 3.4
v 3.9 0.5 3.3
v 3.9 0.6 3.3
v 4.4 0.5 3.3
v 4.4 0.6 3.3
v 5 0.5 3.3
v 5 0.6 3.3
v 5.5 0.5 3.3
v 5.5 0.6 3.3
v 4 0 3.7
v 4 0.1 3.7
v 4 0.7 3.7
v 4 0.8 3.7
v 4.2 0 3.7
v 4.2 0.1 3.7
v 4.2 0.7 3.7
v 4.2 0.8 3.7
v 4.3 0 3.7
v 4.3 0.1 3.7
v 4.3 0.7 3.7
v 4.3 0.8 3.7
v 4.5 0 3.7
v 4.5 0.1 3.7
v 4.5 0.7 3.7
v 4.5 0.8 3.7
v 4.6 0 3.7
v 4.6 0.1 3.7
v 4.6 0.7 3.7
v 4.6 0.8 3.7
v 4.8 0 3.7
v 4.8 0.1 3.7
v 4.8 0.7 3.7
v 4.8 0.8 3.7
v 4.9 0 3.7
v 4.9 0.1 3.7
v 4.9 0.7 3.7
v 4.9 0.8 3.7
v 5.1 0 3.7
v 5.1 0.1 3.7
v 5.1 0.7 3.7
v 5.1 0.8 3.7
v 5.2 0 3.7
v 5.2 0.1 3.7
v 5.2 0.7 3.7
v 5.2 0.8 3.7
v 5.4 0 3.7
v 5.4 0.1 3.7
v 5.4 0.7 3.7
v 5.4 0.8 3.7
v 4 0.1 3.6
v 4 0.2 3.6
v 4 0.6 3.6
v 4 0.7 3.6
v 4.2 0.2 3.6
v 4.2 0.6 3.6
v 4.3 0.2 3.6
v 4.3 0.6 3.6
v 4.5 0.2 3.6
v 4.5 0.6 3.6
v 4.6 0.2 3.6
v 4.6 0.6 3.6
v 4.8 0.2 3.6
v 4.8 0.6 3.6
v 4.9 0.2 3.6
v 4.9 0.6 3.6
v 5.1 0.2 3.6
v 5.1 0.6 3.6
v 5.2 0.2 3.6
v 5.2 0.6 3.6
v 5.4 0.1 3.6
v 5.4 0.2 3.6
v 5.4 0.6 3.6
v 5.4 0.7 3.6
v 4 0.2 3.5
v 4 0.3 3.5
v 4 0.4 3.5
v 4 0.5 3.5
v 4 0.6 3.5
v 4.2 0.2 3.5
v 4.2 0.3 3.5
v 4.2 0.5 3.5
v 4.2 0.6 3.5
v 4.3 0.2 3.5
v 4.3 0.3 3.5
v 4.3 0.5 3.5
v 4.3 0.6 3.5
v 4.5 0.2 3.5
v 4.5 0.3 3.5
v 4.5 0.5 3.5
v 4.5 0.6 3.5
v 4.6 0.2 3.5
v 4.6 0.3 3.5
v 4.6 0.5 3.5
v 4.6 0.6 3.5
v 4.8 0.2 3.5
v 4.8 0.3 3.5
v 4.8 0.5 3.5
v 4.8 0.6 3.5
v 4.9 0.2 3.5
v 4.9 0.3 3.5
v 4.9 0.5 3.5
v 4.9 0.6 3.5
v 5.1 0.2 3.5
v 5.1 0.3 3.5
v 5.1 0.5 3.5
v 5.1 0.6 3.5
v 5.2 0.2 3.5
v 5.2 0.3 3.5
v 5.2 0.5 3.5
v 5.2 0.6 3.5
v 5.4 0.2 3.5
v 5.4 0.3 3.5
v 5.4 0.4 3.5
v 5.4 0.5 3.5
v 5.4 0.6 3.5
v 3.9 0.2 3.2
v 3.9 0.6 3.2
v 4 0.3 3.2
v 4 0.5 3.2
v 5.4 0.3 3.2
v 5.4 0.5 3.2
v 5.5 0.2 3.2
v 5.5 0.6 3.2
v 4 0 4.1
v 4.2 0 4.1
v 4.3 0 4.1
v 4.5 0 4.1
v 4.6 0 4.1
v 4.8 0 4.1
v 4.9 0 4.1
v 5.1 0 4.1
v 5.2 0 4.1
v 5.4 0 4.1
v 4.2 0 4
v 4.3 0 4
v 4.5 0 4
v 4.6 0 4
v 4.8 0 4
v 4.9 0 4
v 5.1 0 4
v 5.2 0 4
v 4.2 0 3.8
v 4.3 0 3.8
v 4.5 0 3.8
v 4.6 0 3.8
v 4.8 0 3.8
v 4.9 0 3.8
v 5.1 0 3.8
v 5.2 0 3.8
v 4 0 3.7
v 4.2 0 3.7
v 4.3 0 3.7
v 4.5 0 3.7
v 4.6 0 3.7
v 4.8 0 3.7
v 4.9 0 3.7
v 5.1 0 3.7
v 5.2 0 3.7
v 5.4 0 3.7
v 4 0.1 4.2
v 5.4 0.1 4.2
v 4 0.1 4.1
v 4.2 0.1 4.1
v 4.3 0.1 4.1
v 4.5 0.1 4.1
v 4.6 0.1 4.1
v 4.8 0.1 4.1
v 4.9 0.1 4.1
v 5.1 0.1 4.1
v 5.2 0.1 4.1
v 5.4 0.1 4.1
v 4 0.1 3.7
v 4.2 0.1 3.7
v 4.3 0.1 3.7
v 4.5 0.1 3.7
v 4.6 0.1 3.7
v 4.8 0.1 3.7
v 4.9 0.1 3.7
v 5.1 0.1 3.7
v 5.2 0.1 3.7
v 5.4 0.1 3.7
v 4 0.1 3.6
v 5.4 0.1 3.6
v 4 0.2 4.3
v 4.2 0.2 4.3
v 4.3 0.2 4.3
v 4.5 0.2 4.3
v 4.6 0.2 4.3
v 4.8 0.2 4.3
v 4.9 0.2 4.3
v 5.1 0.2 4.3
v 5.2 0.2 4.3
v 5.4 0.2 4.3
v 4 0.2 4.2
v 4.2 0.2 4.2
v 4.3 0.2 4.2
v 4.5 0.2 4.2
v 4.6 0.2 4.2
v 4.8 0.2 4.2
v 4.9 0.2 4.2
v 5.1 0.2 4.2
v 5.2 0.2 4.2
v 5.4 0.2 4.2
v 3.9 0.2 3.6
v 4 0.2 3.6
v 4.2 0.2 3.6
v 4.3 0.2 3.6
v 4.5 0.2 3.6
v 4.6 0.2 3.6
v 4.8 0.2 3.6
v 4.9 0.2 3.6
v 5.1 0.2 3.6
v 5.2 0.2 3.6
v 5.4 0.2 3.6
v 5.5 0.2 3.6
v 4 0.2 3.5
v 4.2 0.2 3.5
v 4.3 0.2 3.5
v 4.5 0.2 3.5
v 4.6 0.2 3.5
v 4.8 0.2 3.5
v 4.9 0.2 3.5
v 5.1 0.2 3.5
v 5.2 0.2 3.5
v 5.4 0.2 3.5
v 4 0.2 3.4
v 5.4 0.2 3.4
v 3.9 0.2 3.2
v 5.5 0.2 3.2
v 3.9 0.3 4
v 4 0.3 4
v 5.4 0.3 4
v 5.5 0.3 4
v 3.9 0.3 3.8
v 4 0.3 3.8
v 5.4 0.3 3.8
v 5.5 0.3 3.8
v 3.9 0.3 3.6
v 4 0.3 3.6
v 5.4 0.3 3.6
v 5.5 0.3 3.6
v 3.9 0.5 4
v 4 0.5 4
v 5.4 0.5 4
v 5.5 0.5 4
v 3.9 0.5 3.8
v 4 0.5 3.8
v 5.4 0.5 3.8
v 5.5 0.5 3.8
v 4 0.5 3.5
v 5.4 0.5 3.5
v 4 0.5 3.4
v 4.4 0.5 3.4
v 5 0.5 3.4
v 5.4 0.5 3.4
v 3.9 0.5 3.3
v 4.4 0.5 3.3
v 5 0.5 3.3
v 5.5 0.5 3.3
v 4 0.6 4.3
v 4.2 0.6 4.3
v 4.3 0.6 4.3
v 4.5 0.6 4.3
v 4.6 0.6 4.3
v 4.8 0.6 4.3
v 4.9 0.6 4.3
v 5.1 0.6 4.3
v 5.2 0.6 4.3
v 5.4 0.6 4.3
v 4 0.6 4.2
v 4.2 0.6 4.2
v 4.3 0.6 4.2
v 4.5 0.6 4.2
v 4.6 0.6 4.2
v 4.8 0.6 4.2
v 4.9 0.6 4.2
v 5.1 0.6 4.2
v 5.2 0.6 4.2
v 5.4 0.6 4.2
v 4 0.6 3.6
v 4.2 0.6 3.6
v 4.3 0.6 3.6
v 4.5 0.6 3.6
v 4.6 0.6 3.6
v 4.8 0.6 3.6
v 4.9 0.6 3.6
v 5.1 0.6 3.6
v 5.2 0.6 3.6
v 5.4 0.6 3.6
v 4 0.6 3.5
v 4.2 0.6 3.5
v 4.3 0.6 3.5
v 4.5 0.6 3.5
v 4.6 0.6 3.5
v 4.8 0.6 3.5
v 4.9 0.6 3.5
v 5.1 0.6 3.5
v 5.2 0.6 3.5
v 5.4 0.6 3.5
v 4.4 0.6 3.4
v 5 0.6 3.4
v 3.9 0.6 3.3
v 4.4 0.6 3.3
v 5 0.6 3.3
v 5.5 0.6 3.3
v 3.9 0.6 3.2
v 5.5 0.6 3.2
v 4 0.7 4.2
v 5.4 0.7 4.2
v 4 0.7 4.1
v 4.2 0.7 4.1
v 4.3 0.7 4.1
v 4.5 0.7 4.1
v 4.6 0.7 4.1
v 4.8 0.7 4.1
v 4.9 0.7 4.1
v 5.1 0.7 4.1
v 5.2 0.7 4.1
v 5.4 0.7 4.1
v 4 0.7 3.7
v 4.2 0.7 3.7
v 4.3 0.7 3.7
v 4.5 0.7 3.7
v 4.6 0.7 3.7
v 4.8 0.7 3.7
v 4.9 0.7 3.7
v 5.1 0.7 3.7
v 5.2 0.7 3.7
v 5.4 0.7 3.7
v 4 0.7 3.6
v 5.4 0.7 3.6
v 4 0.8 4.1
v 4.2 0.8 4.1
v 4.3 0.8 4.1
v 4.5 0.8 4.1
v 4.6 0.8 4.1
v 4.8 0.8 4.1
v 4.9 0.8 4.1
v 5.1 0.8 4.1
v 5.2 0.8 4.1
v 5.4 0.8 4.1
v 4.2 0.8 4
v 4.3 0.8 4
v 4.5 0.8 4
v 4.6 0.8 4
v 4.8 0.8 4
v 4.9 0.8 4
v 5.1 0.8 4
v 5.2 0.8 4
v 4.2 0.8 3.8
v 4.3 0.8 3.8
v 4.5 0.8 3.8
v 4.6 0.8 3.8
v 4.8 0.8 3.8
v 4.9 0.8 3.8
v 5.1 0.8 3.8
v 5.2 0.8 3.8
v 4 0.8 3.7
v 4.2 0.8 3.7
v 4.3 0.8 3.7
v 4.5 0.8 3.7
v 4.6 0.8 3.7
v 4.8 0.8 3.7
v 4.9 0.8 3.7
v 5.1 0.8 3.7
v 5.2 0.8 3.7
v 5.4 0.8 3.7

# faces
f 5/2/1 2/2/1 1/2/1
f 6/2/1 2/2/1 5/2/1
f 7/2/1 2/2/1 6/2/1
f 8/2/1 5/2/1 4/2/1
f 8/2/1 6/2/1 5/2/1
f 8/5/1 7/5/1 6/5/1
f 9/2/1 2/2/1 7/2/1
f 9/5/1 7/5/1 8/5/1
f 10/1/1 4/1/1 3/1/1
f 11/2/1 8/2/1 4/2/1
f 11/1/1 4/1/1 10/1/1
f 11/2/1 9/2/1 8/2/1
f 12/2/1 2/2/1 9/2/1
f 12/2/1 9/2/1 11/2/1
f 13/2/1 2/2/1 12/2/1
f 14/2/1 2/2/1 13/2/1
f 18/4/1 16/4/1 15/4/1
f 19/4/1 16/4/1 18/4/1
f 22/4/1 18/4/1 17/4/1
f 22/4/1 20/4/1 19/4/1
f 22/4/1 19/4/1 18/4/1
f 23/4/1 20/4/1 22/4/1
f 24/4/1 22/4/1 21/4/1
f 24/4/1 23/4/1 22/4/1
f 25/4/1 23/4/1 24/4/1
f 26/4/1 23/4/1 25/4/1
f 27/4/1 24/4/1 21/4/1
f 30/4/1 28/4/1 27/4/1
f 30/4/1 29/4/1 28/4/1
f 30/4/1 27/4/1 21/4/1
f 31/4/1 29/4/1 30/4/1
f 32/4/1 29/4/1 31/4/1
f 33/4/1 29/4/1 32/4/1
f 34/4/1 32/4/1 31/4/1
f 35/4/1 32/4/1 34/4/1
f 36/4/1 32/4/1 35/4/1
f 37/4/1 32/4/1 36/4/1
f 38/4/1 36/4/1 35/4/1
f 39/4/1 36/4/1 38/4/1
f 42/2/1 41/2/1 40/2/1
f 43/2/1 41/2/1 42/2/1
f 46/2/1 45/2/1 44/2/1
f 47/2/1 45/2/1 46/2/1
f 48/5/1 47/5/1 46/5/1
f 49/5/1 47/5/1 48/5/1
f 50/2/1 49/2/1 48/2/1
f 51/2/1 49/2/1 50/2/1
f 52/2/2 53/2/2 54/2/2
f 54/2/2 53/2/2 55/2/2
f 54/5/2 55/5/2 56/5/2
f 56/5/2 55/5/2 57/5/2
f 56/2/2 57/2/2 58/2/2
f 58/2/2 57/2/2 59/2/2
f 60/2/2 61/2/2 62/2/2
f 62/2/2 61/2/2 63/2/2
f 64/4/2 65/4/2 67/4/2
f 67/4/2 65/4/2 68/4/2
f 66/4/2 67/4/2 71/4/2
f 68/4/2 69/4/2 71/4/2
f 67/4/2 68/4/2 71/4/2
f 71/4/2 69/4/2 72/4/2
f 70/4/2 71/4/2 73/4/2
f 71/4/2 72/4/2 73/4/2
f 73/4/2 72/4/2 74/4/2
f 74/4/2 72/4/2 75/4/2
f 70/4/2 73/4/2 76/4/2
f 76/4/2 77/4/2 79/4/2
f 77/4/2 78/4/2 79/4/2
f 70/4/2 76/4/2 79/4/2
f 79/4/2 78/4/2 80/4/2
f 80/4/2 78/4/2 81/4/2
f 81/4/2 78/4/2 82/4/2
f 80/4/2 81/4/2 83/4/2
f 83/4/2 81/4/2 84/4/2
f 84/4/2 81/4/2 85/4/2
f 85/4/2 81/4/2 86/4/2
f 84/4/2 85/4/2 87/4/2
f 87/4/2 85/4/2 88/4/2
f 89/2/2 90/2/2 93/2/2
f 93/2/2 90/2/2 94/2/2
f 94/2/2 90/2/2 95/2/2
f 92/2/2 93/2/2 96/2/2
f 93/2/2 94/2/2 96/2/2
f 94/5/2 95/5/2 96/5/2
f 95/2/2 90/2/2 97/2/2
f 96/5/2 95/5/2 97/5/2
f 91/1/2 92/1/2 98/1/2
f 92/2/2 96/2/2 99/2/2
f 98/1/2 92/1/2 99/1/2
f 96/2/2 97/2/2 99/2/2
f 97/2/2 90/2/2 100/2/2
f 99/2/2 97/2/2 100/2/2
f 100/2/2 90/2/2 101/2/2
f 101/2/2 90/2/2 102/2/2
f 105/4/3 104/4/3 103/4/3
f 106/4/3 104/4/3 105/4/3
f 107/4/3 104/4/3 106/4/3
f 108/4/3 104/4/3 107/4/3
f 109/2/3 106/2/3 105/2/3
f 110/4/3 107/4/3 106/4/3
f 110/2/3 106/2/3 109/2/3
f 111/2/3 108/2/3 107/2/3
f 111/4/3 107/4/3 110/4/3
f 112/2/3 108/2/3 111/2/3
f 113/4/3 110/4/3 109/4/3
f 113/4/3 111/4/3 110/4/3
f 113/4/3 112/4/3 111/4/3
f 114/4/3 112/4/3 113/4/3
f 115/4/3 112/4/3 114/4/3
f 116/4/3 112/4/3 115/4/3
f 117/2/3 114/2/3 113/2/3
f 118/4/3 115/4/3 114/4/3
f 118/2/3 114/2/3 117/2/3
f 119/2/3 116/2/3 115/2/3
f 119/4/3 115/4/3 118/4/3
f 120/2/3 116/2/3 119/2/3
f 121/4/3 118/4/3 117/4/3
f 121/4/3 119/4/3 118/4/3
f 121/4/3 120/4/3 119/4/3
f 122/4/3 120/4/3 121/4/3
f 123/4/3 120/4/3 122/4/3
f 124/4/3 120/4/3 123/4/3
f 125/2/3 122/2/3 121/2/3
f 126/4/3 123/4/3 122/4/3
f 126/2/3 122/2/3 125/2/3
f 127/2/3 124/2/3 123/2/3
f 127/4/3 123/4/3 126/4/3
f 128/2/3 124/2/3 127/2/3
f 129/4/3 126/4/3 125/4/3
f 129/4/3 127/4/3 126/4/3
f 129/4/3 128/4/3 127/4/3
f 130/4/3 128/4/3 129/4/3
f 131/4/3 128/4/3 130/4/3
f 132/4/3 128/4/3 131/4/3
f 133/2/3 130/2/3 129/2/3
f 134/4/3 131/4/3 130/4/3
f 134/2/3 130/2/3 133/2/3
f 135/2/3 132/2/3 131/2/3
f 135/4/3 131/4/3 134/4/3
f 136/2/3 132/2/3 135/2/3
f 137/4/3 134/4/3 133/4/3
f 137/4/3 135/4/3 134/4/3
f 137/4/3 136/4/3 135/4/3
f 138/4/3 136/4/3 137/4/3
f 143/4/3 140/4/3 139/4/3
f 144/4/3 142/4/3 141/4/3
f 145/4/3 143/4/3 139/4/3
f 146/4/3 142/4/3 144/4/3
f 147/4/3 145/4/3 139/4/3
f 148/4/3 142/4/3 146/4/3
f 149/4/3 147/4/3 139/4/3
f 150/4/3 142/4/3 148/4/3
f 151/4/3 149/4/3 139/4/3
f 152/4/3 142/4/3 150/4/3
f 153/4/3 151/4/3 139/4/3
f 154/4/3 142/4/3 152/4/3
f 155/4/3 153/4/3 139/4/3
f 156/4/3 142/4/3 154/4/3
f 157/4/3 155/4/3 139/4/3
f 158/4/3 142/4/3 156/4/3
f 159/4/3 157/4/3 139/4/3
f 160/4/3 157/4/3 159/4/3
f 161/4/3 142/4/3 158/4/3
f 162/4/3 142/4/3 161/4/3
f 167/4/3 164/4/3 163/4/3
f 168/4/3 164/4/3 167/4/3
f 169/4/3 166/4/3 165/4/3
f 170/4/3 166/4/3 169/4/3
f 171/2/3 168/2/3 167/2/3
f 172/2/3 168/2/3 171/2/3
f 173/2/3 170/2/3 169/2/3
f 174/2/3 170/2/3 173/2/3
f 175/4/3 172/4/3 171/4/3
f 176/4/3 172/4/3 175/4/3
f 177/4/3 174/4/3 173/4/3
f 178/4/3 174/4/3 177/4/3
f 179/2/3 176/2/3 175/2/3
f 180/2/3 176/2/3 179/2/3
f 181/2/3 178/2/3 177/2/3
f 182/2/3 178/2/3 181/2/3
f 183/4/3 180/4/3 179/4/3
f 184/4/3 180/4/3 183/4/3
f 185/4/3 182/4/3 181/4/3
f 186/4/3 182/4/3 185/4/3
f 187/2/3 184/2/3 183/2/3
f 188/2/3 184/2/3 187/2/3
f 189/2/3 186/2/3 185/2/3
f 190/2/3 186/2/3 189/2/3
f 191/4/3 188/4/3 187/4/3
f 192/4/3 188/4/3 191/4/3
f 193/4/3 190/4/3 189/4/3
f 194/4/3 190/4/3 193/4/3
f 195/2/3 192/2/3 191/2/3
f 196/2/3 192/2/3 195/2/3
f 197/2/3 194/2/3 193/2/3
f 198/2/3 194/2/3 197/2/3
f 199/4/3 196/4/3 195/4/3
f 200/4/3 196/4/3 199/4/3
f 201/4/3 198/4/3 197/4/3
f 202/4/3 198/4/3 201/4/3
f 205/1/3 204/1/3 203/1/3
f 206/1/3 204/1/3 205/1/3
f 209/1/3 208/1/3 207/1/3
f 210/1/3 208/1/3 209/1/3
f 213/2/3 212/2/3 211/2/3
f 214/2/3 212/2/3 213/2/3
f 217/2/3 216/2/3 215/2/3
f 218/2/3 216/2/3 217/2/3
f 223/2/3 220/2/3 219/2/3
f 223/2/3 222/2/3 221/2/3
f 223/2/3 221/2/3 220/2/3
f 225/2/3 223/2/3 219/2/3
f 225/2/3 224/2/3 223/2/3
f 226/2/3 224/2/3 225/2/3
f 227/2/3 225/2/3 219/2/3
f 228/2/3 225/2/3 227/2/3
f 229/2/3 225/2/3 228/2/3
f 230/2/3 225/2/3 229/2/3
f 233/2/3 232/2/3 231/2/3
f 234/2/3 232/2/3 233/2/3
f 237/2/3 236/2/3 235/2/3
f 238/2/3 236/2/3 237/2/3
f 239/4/4 240/4/4 243/4/4
f 243/4/4 240/4/4 244/4/4
f 241/4/4 242/4/4 245/4/4
f 245/4/4 242/4/4 246/4/4
f 243/2/4 244/2/4 247/2/4
f 247/2/4 244/2/4 248/2/4
f 245/2/4 246/2/4 249/2/4
f 249/2/4 246/2/4 250/2/4
f 247/4/4 248/4/4 251/4/4
f 251/4/4 248/4/4 252/4/4
f 249/4/4 250/4/4 253/4/4
f 253/4/4 250/4/4 254/4/4
f 251/2/4 252/2/4 255/2/4
f 255/2/4 252/2/4 256/2/4
f 253/2/4 254/2/4 257/2/4
f 257/2/4 254/2/4 258/2/4
f 255/4/4 256/4/4 259/4/4
f 259/4/4 256/4/4 260/4/4
f 257/4/4 258/4/4 261/4/4
f 261/4/4 258/4/4 262/4/4
f 259/2/4 260/2/4 263/2/4
f 263/2/4 260/2/4 264/2/4
f 261/2/4 262/2/4 265/2/4
f 265/2/4 262/2/4 266/2/4
f 263/4/4 264/4/4 267/4/4
f 267/4/4 264/4/4 268/4/4
f 265/4/4 266/4/4 269/4/4
f 269/4/4 266/4/4 270/4/4
f 267/2/4 268/2/4 271/2/4
f 271/2/4 268/2/4 272/2/4
f 269/2/4 270/2/4 273/2/4
f 273/2/4 270/2/4 274/2/4
f 271/4/4 272/4/4 275/4/4
f 275/4/4 272/4/4 276/4/4
f 273/4/4 274/4/4 277/4/4
f 277/4/4 274/4/4 278/4/4
f 279/4/4 280/4/4 283/4/4
f 281/4/4 282/4/4 284/4/4
f 279/4/4 283/4/4 285/4/4
f 284/4/4 282/4/4 286/4/4
f 279/4/4 285/4/4 287/4/4
f 286/4/4 282/4/4 288/4/4
f 279/4/4 287/4/4 289/4/4
f 288/4/4 282/4/4 290/4/4
f 279/4/4 289/4/4 291/4/4
f 290/4/4 282/4/4 292/4/4
f 279/4/4 291/4/4 293/4/4
f 292/4/4 282/4/4 294/4/4
f 279/4/4 293/4/4 295/4/4
f 294/4/4 282/4/4 296/4/4
f 279/4/4 295/4/4 297/4/4
f 296/4/4 282/4/4 298/4/4
f 279/4/4 297/4/4 299/4/4
f 299/4/4 297/4/4 300/4/4
f 298/4/4 282/4/4 301/4/4
f 301/4/4 282/4/4 302/4/4
f 303/4/4 304/4/4 308/4/4
f 306/4/4 307/4/4 308/4/4
f 305/4/4 306/4/4 308/4/4
f 304/4/4 305/4/4 308/4/4
f 308/4/4 307/4/4 309/4/4
f 309/4/4 307/4/4 310/4/4
f 310/4/4 307/4/4 311/4/4
f 308/2/4 309/2/4 312/2/4
f 309/4/4 310/4/4 313/4/4
f 312/2/4 309/2/4 313/2/4
f 310/2/4 311/2/4 314/2/4
f 313/4/4 310/4/4 314/4/4
f 314/2/4 311/2/4 315/2/4
f 312/4/4 313/4/4 316/4/4
f 313/4/4 314/4/4 316/4/4
f 314/4/4 315/4/4 316/4/4
f 316/4/4 315/4/4 317/4/4
f 317/4/4 315/4/4 318/4/4
f 318/4/4 315/4/4 319/4/4
f 316/2/4 317/2/4 320/2/4
f 317/4/4 318/4/4 321/4/4
f 320/2/4 317/2/4 321/2/4
f 318/2/4 319/2/4 322/2/4
f 321/4/4 318/4/4 322/4/4
f 322/2/4 319/2/4 323/2/4
f 320/4/4 321/4/4 324/4/4
f 321/4/4 322/4/4 324/4/4
f 322/4/4 323/4/4 324/4/4
f 324/4/4 323/4/4 325/4/4
f 325/4/4 323/4/4 326/4/4
f 326/4/4 323/4/4 327/4/4
f 324/2/4 325/2/4 328/2/4
f 325/4/4 326/4/4 329/4/4
f 328/2/4 325/2/4 329/2/4
f 326/2/4 327/2/4 330/2/4
f 329/4/4 326/4/4 330/4/4
f 330/2/4 327/2/4 331/2/4
f 328/4/4 329/4/4 332/4/4
f 329/4/4 330/4/4 332/4/4
f 330/4/4 331/4/4 332/4/4
f 332/4/4 331/4/4 333/4/4
f 333/4/4 331/4/4 334/4/4
f 334/4/4 331/4/4 335/4/4
f 332/2/4 333/2/4 336/2/4
f 333/4/4 334/4/4 337/4/4
f 336/2/4 333/2/4 337/2/4
f 334/2/4 335/2/4 338/2/4
f 337/4/4 334/4/4 338/4/4
f 338/2/4 335/2/4 339/2/4
f 336/4/4 337/4/4 340/4/4
f 337/4/4 338/4/4 340/4/4
f 338/4/4 339/4/4 340/4/4
f 340/4/4 339/4/4 341/4/4
f 341/4/4 339/4/4 342/4/4
f 342/4/4 339/4/4 343/4/4
f 343/4/4 339/4/4 344/4/4
f 345/2/4 346/2/4 347/2/4
f 347/2/4 346/2/4 348/2/4
f 345/2/4 347/2/4 349/2/4
f 347/3/4 348/3/4 349/3/4
f 348/2/4 346/2/4 350/2/4
f 349/3/4 348/3/4 350/3/4
f 345/2/4 349/2/4 351/2/4
f 349/2/4 350/2/4 351/2/4
f 350/2/4 346/2/4 352/2/4
f 351/2/4 350/2/4 352/2/4
f 363/4/5 354/4/5 353/4/5
f 363/2/5 355/2/5 354/2/5
f 364/4/5 356/4/5 355/4/5
f 364/2/5 355/2/5 363/2/5
f 365/2/5 357/2/5 356/2/5
f 365/4/5 356/4/5 364/4/5
f 366/4/5 358/4/5 357/4/5
f 366/2/5 357/2/5 365/2/5
f 367/2/5 359/2/5 358/2/5
f 367/4/5 358/4/5 366/4/5
f 368/4/5 360/4/5 359/4/5
f 368/2/5 359/2/5 367/2/5
f 369/2/5 361/2/5 360/2/5
f 369/4/5 360/4/5 368/4/5
f 370/4/5 362/4/5 361/4/5
f 370/2/5 361/2/5 369/2/5
f 371/4/5 369/4/5 368/4/5
f 371/4/5 368/4/5 367/4/5
f 371/4/5 370/4/5 369/4/5
f 371/4/5 367/4/5 366/4/5
f 371/4/5 366/4/5 365/4/5
f 371/4/5 365/4/5 364/4/5
f 371/4/5 364/4/5 363/4/5
f 371/4/5 363/4/5 353/4/5
f 372/4/5 370/4/5 371/4/5
f 373/4/5 370/4/5 372/4/5
f 374/4/5 370/4/5 373/4/5
f 375/4/5 370/4/5 374/4/5
f 376/4/5 370/4/5 375/4/5
f 377/4/5 370/4/5 376/4/5
f 378/4/5 362/4/5 370/4/5
f 378/4/5 370/4/5 377/4/5
f 379/4/5 371/4/5 353/4/5
f 380/2/5 372/2/5 371/2/5
f 380/4/5 371/4/5 379/4/5
f 381/4/5 373/4/5 372/4/5
f 381/2/5 372/2/5 380/2/5
f 382/2/5 374/2/5 373/2/5
f 382/4/5 373/4/5 381/4/5
f 383/4/5 375/4/5 374/4/5
f 383/2/5 374/2/5 382/2/5
f 384/2/5 376/2/5 375/2/5
f 384/4/5 375/4/5 383/4/5
f 385/4/5 377/4/5 376/4/5
f 385/2/5 376/2/5 384/2/5
f 386/2/5 378/2/5 377/2/5
f 386/4/5 377/4/5 385/4/5
f 387/4/5 362/4/5 378/4/5
f 387/2/5 378/2/5 386/2/5
f 388/4/5 362/4/5 387/4/5
f 391/4/5 390/4/5 389/4/5
f 392/4/5 390/4/5 391/4/5
f 393/4/5 390/4/5 392/4/5
f 394/4/5 390/4/5 393/4/5
f 395/4/5 390/4/5 394/4/5
f 396/4/5 390/4/5 395/4/5
f 397/4/5 390/4/5 396/4/5
f 398/4/5 390/4/5 397/4/5
f 399/4/5 390/4/5 398/4/5
f 400/4/5 390/4/5 399/4/5
f 411/4/5 402/4/5 401/4/5
f 411/4/5 410/4/5 409/4/5
f 411/4/5 409/4/5 408/4/5
f 411/4/5 408/4/5 407/4/5
f 411/4/5 407/4/5 406/4/5
f 411/4/5 406/4/5 405/4/5
f 411/4/5 405/4/5 404/4/5
f 411/4/5 404/4/5 403/4/5
f 411/4/5 403/4/5 402/4/5
f 412/4/5 410/4/5 411/4/5
f 423/4/5 414/4/5 413/4/5
f 424/2/5 415/2/5 414/2/5
f 424/4/5 414/4/5 423/4/5
f 425/4/5 416/4/5 415/4/5
f 425/2/5 415/2/5 424/2/5
f 426/2/5 417/2/5 416/2/5
f 426/4/5 416/4/5 425/4/5
f 427/4/5 418/4/5 417/4/5
f 427/2/5 417/2/5 426/2/5
f 428/2/5 419/2/5 418/2/5
f 428/4/5 418/4/5 427/4/5
f 429/4/5 420/4/5 419/4/5
f 429/2/5 419/2/5 428/2/5
f 430/2/5 421/2/5 420/2/5
f 430/4/5 420/4/5 429/4/5
f 431/4/5 422/4/5 421/4/5
f 431/2/5 421/2/5 430/2/5
f 432/4/5 422/4/5 431/4/5
f 445/2/5 434/2/5 433/2/5
f 445/4/5 435/4/5 434/4/5
f 446/2/5 436/2/5 435/2/5
f 446/4/5 435/4/5 445/4/5
f 447/4/5 437/4/5 436/4/5
f 447/2/5 436/2/5 446/2/5
f 448/2/5 438/2/5 437/2/5
f 448/4/5 437/4/5 447/4/5
f 449/4/5 439/4/5 438/4/5
f 449/2/5 438/2/5 448/2/5
f 450/2/5 440/2/5 439/2/5
f 450/4/5 439/4/5 449/4/5
f 451/4/5 441/4/5 440/4/5
f 451/2/5 440/2/5 450/2/5
f 452/2/5 442/2/5 441/2/5
f 452/4/5 441/4/5 451/4/5
f 453/4/5 443/4/5 442/4/5
f 453/2/5 442/2/5 452/2/5
f 454/2/5 444/2/5 443/2/5
f 454/4/5 443/4/5 453/4/5
f 455/2/5 445/2/5 433/2/5
f 456/2/5 444/2/5 454/2/5
f 457/2/5 455/2/5 433/2/5
f 457/2/5 456/2/5 455/2/5
f 458/2/5 444/2/5 456/2/5
f 458/2/5 456/2/5 457/2/5
f 463/1/5 460/1/5 459/1/5
f 464/1/5 460/1/5 463/1/5
f 465/1/5 462/1/5 461/1/5
f 466/1/5 462/1/5 465/1/5
f 467/2/5 464/2/5 463/2/5
f 468/2/5 464/2/5 467/2/5
f 469/2/5 466/2/5 465/2/5
f 470/2/5 466/2/5 469/2/5
f 471/1/6 472/1/6 475/1/6
f 475/1/6 472/1/6 476/1/6
f 473/1/6 474/1/6 477/1/6
f 477/1/6 474/1/6 478/1/6
f 475/2/6 476/2/6 479/2/6
f 477/2/6 478/2/6 480/2/6
f 475/2/6 479/2/6 481/2/6
f 480/2/6 478/2/6 484/2/6
f 481/2/6 482/2/6 485/2/6
f 475/2/6 481/2/6 485/2/6
f 485/2/6 482/2/6 486/2/6
f 483/2/6 484/2/6 487/2/6
f 484/2/6 478/2/6 488/2/6
f 487/2/6 484/2/6 488/2/6
f 489/4/6 490/4/6 499/4/6
f 490/2/6 491/2/6 500/2/6
f 499/4/6 490/4/6 500/4/6
f 491/4/6 492/4/6 501/4/6
f 500/2/6 491/2/6 501/2/6
f 492/2/6 493/2/6 502/2/6
f 501/4/6 492/4/6 502/4/6
f 493/4/6 494/4/6 503/4/6
f 502/2/6 493/2/6 503/2/6
f 494/2/6 495/2/6 504/2/6
f 503/4/6 494/4/6 504/4/6
f 495/4/6 496/4/6 505/4/6
f 504/2/6 495/2/6 505/2/6
f 496/2/6 497/2/6 506/2/6
f 505/4/6 496/4/6 506/4/6
f 497/4/6 498/4/6 507/4/6
f 506/2/6 497/2/6 507/2/6
f 507/4/6 498/4/6 508/4/6
f 509/4/6 510/4/6 519/4/6
f 510/2/6 511/2/6 520/2/6
f 519/4/6 510/4/6 520/4/6
f 511/4/6 512/4/6 521/4/6
f 520/2/6 511/2/6 521/2/6
f 512/2/6 513/2/6 522/2/6
f 521/4/6 512/4/6 522/4/6
f 513/4/6 514/4/6 523/4/6
f 522/2/6 513/2/6 523/2/6
f 514/2/6 515/2/6 524/2/6
f 523/4/6 514/4/6 524/4/6
f 515/4/6 516/4/6 525/4/6
f 524/2/6 515/2/6 525/2/6
f 516/2/6 517/2/6 526/2/6
f 525/4/6 516/4/6 526/4/6
f 517/4/6 518/4/6 527/4/6
f 526/2/6 517/2/6 527/2/6
f 527/4/6 518/4/6 528/4/6
f 529/2/6 530/2/6 532/2/6
f 532/2/6 530/2/6 533/2/6
f 532/2/6 533/2/6 535/2/6
f 533/2/6 534/2/6 535/2/6
f 531/2/6 532/2/6 535/2/6
f 535/2/6 534/2/6 536/2/6
f 537/4/6 538/4/6 539/4/6
f 539/4/6 538/4/6 540/4/6
f 540/4/6 538/4/6 541/4/6
f 541/4/6 538/4/6 542/4/6
f 542/4/6 538/4/6 543/4/6
f 543/4/6 538/4/6 544/4/6
f 544/4/6 538/4/6 545/4/6
f 545/4/6 538/4/6 546/4/6
f 546/4/6 538/4/6 547/4/6
f 547/4/6 538/4/6 548/4/6
f 549/4/6 550/4/6 559/4/6
f 557/4/6 558/4/6 559/4/6
f 556/4/6 557/4/6 559/4/6
f 555/4/6 556/4/6 559/4/6
f 554/4/6 555/4/6 559/4/6
f 553/4/6 554/4/6 559/4/6
f 552/4/6 553/4/6 559/4/6
f 551/4/6 552/4/6 559/4/6
f 550/4/6 551/4/6 559/4/6
f 559/4/6 558/4/6 560/4/6
f 561/4/6 562/4/6 571/4/6
f 562/2/6 563/2/6 571/2/6
f 563/4/6 564/4/6 572/4/6
f 571/2/6 563/2/6 572/2/6
f 564/2/6 565/2/6 573/2/6
f 572/4/6 564/4/6 573/4/6
f 565/4/6 566/4/6 574/4/6
f 573/2/6 565/2/6 574/2/6
f 566/2/6 567/2/6 575/2/6
f 574/4/6 566/4/6 575/4/6
f 567/4/6 568/4/6 576/4/6
f 575/2/6 567/2/6 576/2/6
f 568/2/6 569/2/6 577/2/6
f 576/4/6 568/4/6 577/4/6
f 569/4/6 570/4/6 578/4/6
f 577/2/6 569/2/6 578/2/6
f 576/4/6 577/4/6 579/4/6
f 575/4/6 576/4/6 579/4/6
f 577/4/6 578/4/6 579/4/6
f 574/4/6 575/4/6 579/4/6
f 573/4/6 574/4/6 579/4/6
f 572/4/6 573/4/6 579/4/6
f 571/4/6 572/4/6 579/4/6
f 561/4/6 571/4/6 579/4/6
f 579/4/6 578/4/6 580/4/6
f 580/4/6 578/4/6 581/4/6
f 581/4/6 578/4/6 582/4/6
f 582/4/6 578/4/6 583/4/6
f 583/4/6 578/4/6 584/4/6
f 584/4/6 578/4/6 585/4/6
f 578/4/6 570/4/6 586/4/6
f 585/4/6 578/4/6 586/4/6
f 561/4/6 579/4/6 587/4/6
f 579/2/6 580/2/6 588/2/6
f 587/4/6 579/4/6 588/4/6
f 580/4/6 581/4/6 589/4/6
f 588/2/6 580/2/6 589/2/6
f 581/2/6 582/2/6 590/2/6
f 589/4/6 581/4/6 590/4/6
f 582/4/6 583/4/6 591/4/6
f 590/2/6 582/2/6 591/2/6
f 583/2/6 584/2/6 592/2/6
f 591/4/6 583/4/6 592/4/6
f 584/4/6 585/4/6 593/4/6
f 592/2/6 584/2/6 593/2/6
f 585/2/6 586/2/6 594/2/6
f 593/4/6 585/4/6 594/4/6
f 586/4/6 570/4/6 595/4/6
f 594/2/6 586/2/6 595/2/6
f 595/4/6 570/4/6 596/4/6
