# MagicaVoxel @ Ephtracy

# group
o 

# material
mtllib Robot.vox-35.mtl
usemtl palette

# normals
vn -1 0 0
vn 1 0 0
vn 0 0 1
vn 0 0 -1
vn 0 -1 0
vn 0 1 0

# texcoords
vt 0.978516 0.5

# verts
v -1.9 0.4 0.9
v -1.9 0.4 0.8
v -1.9 0.5 1.4
v -1.9 0.5 0.9
v -1.9 0.6 1.7
v -1.9 0.6 1.4
v -1.9 0.7 1.7
v -1.9 0.7 0.8
v -1.8 0.4 1.5
v -1.8 0.4 0.9
v -1.8 0.5 1.7
v -1.8 0.5 1.5
v -1.8 0.5 1.4
v -1.8 0.5 0.9
v -1.8 0.6 2
v -1.8 0.6 1.7
v -1.8 0.6 1.4
v -1.8 0.7 2
v -1.8 0.7 1.7
v -1.8 0.6 1.1
v -1.8 0.6 0.8
v -1.8 0.7 1.1
v -1.8 0.7 0.8
v -1.7 0.4 1.5
v -1.7 0.4 0.8
v -1.7 0.5 1.7
v -1.7 0.5 1.5
v -1.7 0.6 2
v -1.7 0.6 1.7
v -1.7 0.6 1.1
v -1.7 0.6 0.8
v -1.7 0.7 2
v -1.7 0.7 1.1
v -1.8 0.6 2
v -1.8 0.7 2
v -1.7 0.6 2
v -1.7 0.7 2
v -1.9 0.6 1.7
v -1.9 0.7 1.7
v -1.8 0.5 1.7
v -1.8 0.6 1.7
v -1.8 0.7 1.7
v -1.7 0.5 1.7
v -1.7 0.6 1.7
v -1.8 0.4 1.5
v -1.8 0.5 1.5
v -1.7 0.4 1.5
v -1.7 0.5 1.5
v -1.9 0.5 1.4
v -1.9 0.6 1.4
v -1.8 0.5 1.4
v -1.8 0.6 1.4
v -1.9 0.4 0.9
v -1.9 0.5 0.9
v -1.8 0.4 0.9
v -1.8 0.5 0.9
v -1.8 0.6 1.1
v -1.8 0.7 1.1
v -1.7 0.6 1.1
v -1.7 0.7 1.1
v -1.9 0.4 0.8
v -1.9 0.7 0.8
v -1.8 0.6 0.8
v -1.8 0.7 0.8
v -1.7 0.4 0.8
v -1.7 0.6 0.8
v -1.8 0.4 1.5
v -1.7 0.4 1.5
v -1.9 0.4 0.9
v -1.8 0.4 0.9
v -1.9 0.4 0.8
v -1.7 0.4 0.8
v -1.8 0.5 1.7
v -1.7 0.5 1.7
v -1.8 0.5 1.5
v -1.7 0.5 1.5
v -1.9 0.5 1.4
v -1.8 0.5 1.4
v -1.9 0.5 0.9
v -1.8 0.5 0.9
v -1.8 0.6 2
v -1.7 0.6 2
v -1.9 0.6 1.7
v -1.8 0.6 1.7
v -1.7 0.6 1.7
v -1.9 0.6 1.4
v -1.8 0.6 1.4
v -1.8 0.6 1.1
v -1.7 0.6 1.1
v -1.8 0.6 0.8
v -1.7 0.6 0.8
v -1.8 0.7 2
v -1.7 0.7 2
v -1.9 0.7 1.7
v -1.8 0.7 1.7
v -1.8 0.7 1.1
v -1.7 0.7 1.1
v -1.9 0.7 0.8
v -1.8 0.7 0.8

# faces
f 4/1/1 2/1/1 1/1/1
f 6/1/1 4/1/1 3/1/1
f 7/1/1 6/1/1 5/1/1
f 8/1/1 2/1/1 4/1/1
f 8/1/1 6/1/1 7/1/1
f 8/1/1 4/1/1 6/1/1
f 12/1/1 10/1/1 9/1/1
f 13/1/1 10/1/1 12/1/1
f 14/1/1 10/1/1 13/1/1
f 16/1/1 12/1/1 11/1/1
f 16/1/1 13/1/1 12/1/1
f 17/1/1 13/1/1 16/1/1
f 18/1/1 16/1/1 15/1/1
f 19/1/1 16/1/1 18/1/1
f 20/1/2 21/1/2 22/1/2
f 22/1/2 21/1/2 23/1/2
f 24/1/2 25/1/2 27/1/2
f 26/1/2 27/1/2 29/1/2
f 27/1/2 25/1/2 30/1/2
f 29/1/2 27/1/2 30/1/2
f 30/1/2 25/1/2 31/1/2
f 28/1/2 29/1/2 32/1/2
f 29/1/2 30/1/2 32/1/2
f 32/1/2 30/1/2 33/1/2
f 36/1/3 35/1/3 34/1/3
f 37/1/3 35/1/3 36/1/3
f 41/1/3 39/1/3 38/1/3
f 42/1/3 39/1/3 41/1/3
f 43/1/3 41/1/3 40/1/3
f 44/1/3 41/1/3 43/1/3
f 47/1/3 46/1/3 45/1/3
f 48/1/3 46/1/3 47/1/3
f 51/1/3 50/1/3 49/1/3
f 52/1/3 50/1/3 51/1/3
f 55/1/3 54/1/3 53/1/3
f 56/1/3 54/1/3 55/1/3
f 57/1/4 58/1/4 59/1/4
f 59/1/4 58/1/4 60/1/4
f 61/1/4 62/1/4 63/1/4
f 63/1/4 62/1/4 64/1/4
f 61/1/4 63/1/4 65/1/4
f 65/1/4 63/1/4 66/1/4
f 70/1/5 68/1/5 67/1/5
f 71/1/5 70/1/5 69/1/5
f 72/1/5 68/1/5 70/1/5
f 72/1/5 70/1/5 71/1/5
f 75/1/5 74/1/5 73/1/5
f 76/1/5 74/1/5 75/1/5
f 79/1/5 78/1/5 77/1/5
f 80/1/5 78/1/5 79/1/5
f 84/1/5 82/1/5 81/1/5
f 85/1/5 82/1/5 84/1/5
f 86/1/5 84/1/5 83/1/5
f 87/1/5 84/1/5 86/1/5
f 88/1/6 89/1/6 90/1/6
f 90/1/6 89/1/6 91/1/6
f 92/1/6 93/1/6 95/1/6
f 95/1/6 93/1/6 96/1/6
f 94/1/6 95/1/6 96/1/6
f 96/1/6 93/1/6 97/1/6
f 94/1/6 96/1/6 98/1/6
f 98/1/6 96/1/6 99/1/6
