# MagicaVoxel @ Ephtracy

# group
o 

# material
mtllib Robot.vox-70.mtl
usemtl palette

# normals
vn -1 0 0
vn 1 0 0
vn 0 0 1
vn 0 0 -1
vn 0 -1 0
vn 0 1 0

# texcoords
vt 0.916016 0.5
vt 0.970703 0.5

# verts
v 6.8 0.1 1.3
v 6.8 0.1 0.7
v 6.8 0.2 1.4
v 6.8 0.2 1.3
v 6.8 0.2 1.2
v 6.8 0.2 0.7
v 6.8 0.2 0.6
v 6.8 0.3 1.3
v 6.8 0.3 1.2
v 6.8 0.3 1.1
v 6.8 0.3 0.9
v 6.8 0.3 0.8
v 6.8 0.4 1.2
v 6.8 0.4 1.1
v 6.8 0.4 0.9
v 6.8 0.4 0.8
v 6.8 0.6 1.2
v 6.8 0.6 1.1
v 6.8 0.6 0.9
v 6.8 0.6 0.8
v 6.8 0.7 1.3
v 6.8 0.7 1.2
v 6.8 0.7 1.1
v 6.8 0.7 0.9
v 6.8 0.7 0.8
v 6.8 0.7 0.7
v 6.8 0.8 1.4
v 6.8 0.8 1.3
v 6.8 0.8 1.2
v 6.8 0.8 0.8
v 6.8 0.8 0.7
v 6.8 0.8 0.6
v 6.8 0.9 1.3
v 6.8 0.9 0.7
v 6.9 0.1 1.4
v 6.9 0.1 1.3
v 6.9 0.1 0.7
v 6.9 0.1 0.6
v 6.9 0.2 1.4
v 6.9 0.2 1.3
v 6.9 0.2 0.7
v 6.9 0.2 0.6
v 6.9 0.8 1.4
v 6.9 0.8 1.3
v 6.9 0.8 0.7
v 6.9 0.8 0.6
v 6.9 0.9 1.4
v 6.9 0.9 1.3
v 6.9 0.9 0.7
v 6.9 0.9 0.6
v 7.5 0.1 1.4
v 7.5 0.1 1.3
v 7.5 0.1 0.7
v 7.5 0.1 0.6
v 7.5 0.2 1.4
v 7.5 0.2 1.3
v 7.5 0.2 0.7
v 7.5 0.2 0.6
v 7.5 0.8 1.4
v 7.5 0.8 1.3
v 7.5 0.8 0.7
v 7.5 0.8 0.6
v 7.5 0.9 1.4
v 7.5 0.9 1.3
v 7.5 0.9 0.7
v 7.5 0.9 0.6
v 7.6 0.1 1.3
v 7.6 0.1 0.7
v 7.6 0.2 1.4
v 7.6 0.2 1.3
v 7.6 0.2 1.2
v 7.6 0.2 0.7
v 7.6 0.2 0.6
v 7.6 0.3 1.3
v 7.6 0.3 1.2
v 7.6 0.3 1.1
v 7.6 0.3 0.9
v 7.6 0.3 0.8
v 7.6 0.4 1.2
v 7.6 0.4 1.1
v 7.6 0.4 0.9
v 7.6 0.4 0.8
v 7.6 0.6 1.2
v 7.6 0.6 1.1
v 7.6 0.6 0.9
v 7.6 0.6 0.8
v 7.6 0.7 1.3
v 7.6 0.7 1.2
v 7.6 0.7 1.1
v 7.6 0.7 0.9
v 7.6 0.7 0.8
v 7.6 0.7 0.7
v 7.6 0.8 1.4
v 7.6 0.8 1.3
v 7.6 0.8 1.2
v 7.6 0.8 0.8
v 7.6 0.8 0.7
v 7.6 0.8 0.6
v 7.6 0.9 1.3
v 7.6 0.9 0.7
v 6.8 0.2 1.4
v 6.8 0.8 1.4
v 6.9 0.1 1.4
v 6.9 0.2 1.4
v 6.9 0.3 1.4
v 6.9 0.7 1.4
v 6.9 0.8 1.4
v 6.9 0.9 1.4
v 7 0.2 1.4
v 7 0.3 1.4
v 7 0.4 1.4
v 7 0.6 1.4
v 7 0.7 1.4
v 7 0.8 1.4
v 7.1 0.3 1.4
v 7.1 0.4 1.4
v 7.1 0.6 1.4
v 7.1 0.7 1.4
v 7.3 0.3 1.4
v 7.3 0.4 1.4
v 7.3 0.6 1.4
v 7.3 0.7 1.4
v 7.4 0.2 1.4
v 7.4 0.3 1.4
v 7.4 0.4 1.4
v 7.4 0.6 1.4
v 7.4 0.7 1.4
v 7.4 0.8 1.4
v 7.5 0.1 1.4
v 7.5 0.2 1.4
v 7.5 0.3 1.4
v 7.5 0.7 1.4
v 7.5 0.8 1.4
v 7.5 0.9 1.4
v 7.6 0.2 1.4
v 7.6 0.8 1.4
v 6.8 0.1 1.3
v 6.8 0.2 1.3
v 6.8 0.8 1.3
v 6.8 0.9 1.3
v 6.9 0.1 1.3
v 6.9 0.2 1.3
v 6.9 0.8 1.3
v 6.9 0.9 1.3
v 7.5 0.1 1.3
v 7.5 0.2 1.3
v 7.5 0.8 1.3
v 7.5 0.9 1.3
v 7.6 0.1 1.3
v 7.6 0.2 1.3
v 7.6 0.8 1.3
v 7.6 0.9 1.3
v 6.8 0.1 0.7
v 6.8 0.2 0.7
v 6.8 0.8 0.7
v 6.8 0.9 0.7
v 6.9 0.1 0.7
v 6.9 0.2 0.7
v 6.9 0.8 0.7
v 6.9 0.9 0.7
v 7.5 0.1 0.7
v 7.5 0.2 0.7
v 7.5 0.8 0.7
v 7.5 0.9 0.7
v 7.6 0.1 0.7
v 7.6 0.2 0.7
v 7.6 0.8 0.7
v 7.6 0.9 0.7
v 6.8 0.2 0.6
v 6.8 0.8 0.6
v 6.9 0.1 0.6
v 6.9 0.2 0.6
v 6.9 0.3 0.6
v 6.9 0.7 0.6
v 6.9 0.8 0.6
v 6.9 0.9 0.6
v 7 0.2 0.6
v 7 0.3 0.6
v 7 0.4 0.6
v 7 0.6 0.6
v 7 0.7 0.6
v 7 0.8 0.6
v 7.1 0.3 0.6
v 7.1 0.4 0.6
v 7.1 0.6 0.6
v 7.1 0.7 0.6
v 7.3 0.3 0.6
v 7.3 0.4 0.6
v 7.3 0.6 0.6
v 7.3 0.7 0.6
v 7.4 0.2 0.6
v 7.4 0.3 0.6
v 7.4 0.4 0.6
v 7.4 0.6 0.6
v 7.4 0.7 0.6
v 7.4 0.8 0.6
v 7.5 0.1 0.6
v 7.5 0.2 0.6
v 7.5 0.3 0.6
v 7.5 0.7 0.6
v 7.5 0.8 0.6
v 7.5 0.9 0.6
v 7.6 0.2 0.6
v 7.6 0.8 0.6
v 6.9 0.1 1.4
v 7.5 0.1 1.4
v 6.8 0.1 1.3
v 6.9 0.1 1.3
v 7 0.1 1.3
v 7.4 0.1 1.3
v 7.5 0.1 1.3
v 7.6 0.1 1.3
v 6.9 0.1 1.2
v 7 0.1 1.2
v 7.1 0.1 1.2
v 7.3 0.1 1.2
v 7.4 0.1 1.2
v 7.5 0.1 1.2
v 7 0.1 1.1
v 7.1 0.1 1.1
v 7.3 0.1 1.1
v 7.4 0.1 1.1
v 7 0.1 0.9
v 7.1 0.1 0.9
v 7.3 0.1 0.9
v 7.4 0.1 0.9
v 6.9 0.1 0.8
v 7 0.1 0.8
v 7.1 0.1 0.8
v 7.3 0.1 0.8
v 7.4 0.1 0.8
v 7.5 0.1 0.8
v 6.8 0.1 0.7
v 6.9 0.1 0.7
v 7 0.1 0.7
v 7.4 0.1 0.7
v 7.5 0.1 0.7
v 7.6 0.1 0.7
v 6.9 0.1 0.6
v 7.5 0.1 0.6
v 6.8 0.2 1.4
v 6.9 0.2 1.4
v 7.5 0.2 1.4
v 7.6 0.2 1.4
v 6.8 0.2 1.3
v 6.9 0.2 1.3
v 7.5 0.2 1.3
v 7.6 0.2 1.3
v 6.8 0.2 0.7
v 6.9 0.2 0.7
v 7.5 0.2 0.7
v 7.6 0.2 0.7
v 6.8 0.2 0.6
v 6.9 0.2 0.6
v 7.5 0.2 0.6
v 7.6 0.2 0.6
v 6.8 0.8 1.4
v 6.9 0.8 1.4
v 7.5 0.8 1.4
v 7.6 0.8 1.4
v 6.8 0.8 1.3
v 6.9 0.8 1.3
v 7.5 0.8 1.3
v 7.6 0.8 1.3
v 6.8 0.8 0.7
v 6.9 0.8 0.7
v 7.5 0.8 0.7
v 7.6 0.8 0.7
v 6.8 0.8 0.6
v 6.9 0.8 0.6
v 7.5 0.8 0.6
v 7.6 0.8 0.6
v 6.9 0.9 1.4
v 7.5 0.9 1.4
v 6.8 0.9 1.3
v 6.9 0.9 1.3
v 7 0.9 1.3
v 7.4 0.9 1.3
v 7.5 0.9 1.3
v 7.6 0.9 1.3
v 6.9 0.9 1.2
v 7 0.9 1.2
v 7.1 0.9 1.2
v 7.3 0.9 1.2
v 7.4 0.9 1.2
v 7.5 0.9 1.2
v 7 0.9 1.1
v 7.1 0.9 1.1
v 7.3 0.9 1.1
v 7.4 0.9 1.1
v 7 0.9 0.9
v 7.1 0.9 0.9
v 7.3 0.9 0.9
v 7.4 0.9 0.9
v 6.9 0.9 0.8
v 7 0.9 0.8
v 7.1 0.9 0.8
v 7.3 0.9 0.8
v 7.4 0.9 0.8
v 7.5 0.9 0.8
v 6.8 0.9 0.7
v 6.9 0.9 0.7
v 7 0.9 0.7
v 7.4 0.9 0.7
v 7.5 0.9 0.7
v 7.6 0.9 0.7
v 6.9 0.9 0.6
v 7.5 0.9 0.6

# faces
f 4/1/1 2/1/1 1/1/1
f 5/1/1 2/1/1 4/1/1
f 6/1/1 2/1/1 5/1/1
f 8/1/1 4/1/1 3/1/1
f 8/1/1 5/1/1 4/1/1
f 9/2/1 6/2/1 5/2/1
f 9/1/1 5/1/1 8/1/1
f 10/2/1 6/2/1 9/2/1
f 11/2/1 6/2/1 10/2/1
f 12/2/1 6/2/1 11/2/1
f 13/2/1 9/2/1 8/2/1
f 13/1/1 10/1/1 9/1/1
f 14/2/1 11/2/1 10/2/1
f 14/1/1 10/1/1 13/1/1
f 15/1/1 12/1/1 11/1/1
f 15/2/1 11/2/1 14/2/1
f 16/2/1 6/2/1 12/2/1
f 16/1/1 12/1/1 15/1/1
f 17/2/1 14/2/1 13/2/1
f 17/2/1 13/2/1 8/2/1
f 18/1/1 15/1/1 14/1/1
f 18/2/1 14/2/1 17/2/1
f 19/2/1 16/2/1 15/2/1
f 19/1/1 15/1/1 18/1/1
f 20/2/1 6/2/1 16/2/1
f 20/2/1 16/2/1 19/2/1
f 21/1/1 8/1/1 3/1/1
f 21/2/1 17/2/1 8/2/1
f 22/1/1 18/1/1 17/1/1
f 22/2/1 17/2/1 21/2/1
f 23/2/1 19/2/1 18/2/1
f 23/1/1 18/1/1 22/1/1
f 24/1/1 20/1/1 19/1/1
f 24/2/1 19/2/1 23/2/1
f 25/2/1 6/2/1 20/2/1
f 25/1/1 20/1/1 24/1/1
f 26/1/1 7/1/1 6/1/1
f 26/2/1 6/2/1 25/2/1
f 27/1/1 22/1/1 21/1/1
f 27/1/1 21/1/1 3/1/1
f 28/1/1 22/1/1 27/1/1
f 29/2/1 25/2/1 24/2/1
f 29/1/1 22/1/1 28/1/1
f 29/2/1 24/2/1 23/2/1
f 29/2/1 23/2/1 22/2/1
f 30/1/1 26/1/1 25/1/1
f 30/2/1 25/2/1 29/2/1
f 31/1/1 7/1/1 26/1/1
f 31/1/1 26/1/1 30/1/1
f 32/1/1 7/1/1 31/1/1
f 33/1/1 29/1/1 28/1/1
f 33/1/1 31/1/1 30/1/1
f 33/1/1 30/1/1 29/1/1
f 34/1/1 31/1/1 33/1/1
f 39/1/1 36/1/1 35/1/1
f 40/1/1 36/1/1 39/1/1
f 41/1/1 38/1/1 37/1/1
f 42/1/1 38/1/1 41/1/1
f 47/1/1 44/1/1 43/1/1
f 48/1/1 44/1/1 47/1/1
f 49/1/1 46/1/1 45/1/1
f 50/1/1 46/1/1 49/1/1
f 51/1/2 52/1/2 55/1/2
f 55/1/2 52/1/2 56/1/2
f 53/1/2 54/1/2 57/1/2
f 57/1/2 54/1/2 58/1/2
f 59/1/2 60/1/2 63/1/2
f 63/1/2 60/1/2 64/1/2
f 61/1/2 62/1/2 65/1/2
f 65/1/2 62/1/2 66/1/2
f 67/1/2 68/1/2 70/1/2
f 70/1/2 68/1/2 71/1/2
f 71/1/2 68/1/2 72/1/2
f 69/1/2 70/1/2 74/1/2
f 70/1/2 71/1/2 74/1/2
f 71/2/2 72/2/2 75/2/2
f 74/1/2 71/1/2 75/1/2
f 75/2/2 72/2/2 76/2/2
f 76/2/2 72/2/2 77/2/2
f 77/2/2 72/2/2 78/2/2
f 74/2/2 75/2/2 79/2/2
f 75/1/2 76/1/2 79/1/2
f 76/2/2 77/2/2 80/2/2
f 79/1/2 76/1/2 80/1/2
f 77/1/2 78/1/2 81/1/2
f 80/2/2 77/2/2 81/2/2
f 78/2/2 72/2/2 82/2/2
f 81/1/2 78/1/2 82/1/2
f 79/2/2 80/2/2 83/2/2
f 74/2/2 79/2/2 83/2/2
f 80/1/2 81/1/2 84/1/2
f 83/2/2 80/2/2 84/2/2
f 81/2/2 82/2/2 85/2/2
f 84/1/2 81/1/2 85/1/2
f 82/2/2 72/2/2 86/2/2
f 85/2/2 82/2/2 86/2/2
f 69/1/2 74/1/2 87/1/2
f 74/2/2 83/2/2 87/2/2
f 83/1/2 84/1/2 88/1/2
f 87/2/2 83/2/2 88/2/2
f 84/2/2 85/2/2 89/2/2
f 88/1/2 84/1/2 89/1/2
f 85/1/2 86/1/2 90/1/2
f 89/2/2 85/2/2 90/2/2
f 86/2/2 72/2/2 91/2/2
f 90/1/2 86/1/2 91/1/2
f 72/1/2 73/1/2 92/1/2
f 91/2/2 72/2/2 92/2/2
f 87/1/2 88/1/2 93/1/2
f 69/1/2 87/1/2 93/1/2
f 93/1/2 88/1/2 94/1/2
f 90/2/2 91/2/2 95/2/2
f 94/1/2 88/1/2 95/1/2
f 89/2/2 90/2/2 95/2/2
f 88/2/2 89/2/2 95/2/2
f 91/1/2 92/1/2 96/1/2
f 95/2/2 91/2/2 96/2/2
f 92/1/2 73/1/2 97/1/2
f 96/1/2 92/1/2 97/1/2
f 97/1/2 73/1/2 98/1/2
f 94/1/2 95/1/2 99/1/2
f 96/1/2 97/1/2 99/1/2
f 95/1/2 96/1/2 99/1/2
f 99/1/2 97/1/2 100/1/2
f 104/1/3 102/1/3 101/1/3
f 105/1/3 102/1/3 104/1/3
f 106/1/3 102/1/3 105/1/3
f 107/1/3 102/1/3 106/1/3
f 109/1/3 104/1/3 103/1/3
f 109/1/3 105/1/3 104/1/3
f 110/2/3 106/2/3 105/2/3
f 110/1/3 105/1/3 109/1/3
f 111/2/3 106/2/3 110/2/3
f 112/2/3 106/2/3 111/2/3
f 113/1/3 108/1/3 107/1/3
f 113/2/3 106/2/3 112/2/3
f 113/1/3 107/1/3 106/1/3
f 114/1/3 108/1/3 113/1/3
f 115/1/3 111/1/3 110/1/3
f 115/2/3 110/2/3 109/2/3
f 116/2/3 112/2/3 111/2/3
f 116/1/3 111/1/3 115/1/3
f 117/1/3 113/1/3 112/1/3
f 117/2/3 112/2/3 116/2/3
f 118/2/3 114/2/3 113/2/3
f 118/1/3 113/1/3 117/1/3
f 119/2/3 115/2/3 109/2/3
f 119/2/3 116/2/3 115/2/3
f 120/1/3 117/1/3 116/1/3
f 120/2/3 116/2/3 119/2/3
f 121/2/3 118/2/3 117/2/3
f 121/1/3 117/1/3 120/1/3
f 122/2/3 114/2/3 118/2/3
f 122/2/3 118/2/3 121/2/3
f 123/1/3 109/1/3 103/1/3
f 123/2/3 119/2/3 109/2/3
f 124/1/3 120/1/3 119/1/3
f 124/2/3 119/2/3 123/2/3
f 125/2/3 121/2/3 120/2/3
f 125/1/3 120/1/3 124/1/3
f 126/1/3 122/1/3 121/1/3
f 126/2/3 121/2/3 125/2/3
f 127/2/3 114/2/3 122/2/3
f 127/1/3 122/1/3 126/1/3
f 128/1/3 108/1/3 114/1/3
f 128/2/3 114/2/3 127/2/3
f 129/1/3 124/1/3 123/1/3
f 129/1/3 123/1/3 103/1/3
f 130/1/3 124/1/3 129/1/3
f 131/2/3 127/2/3 126/2/3
f 131/1/3 124/1/3 130/1/3
f 131/2/3 126/2/3 125/2/3
f 131/2/3 125/2/3 124/2/3
f 132/1/3 128/1/3 127/1/3
f 132/2/3 127/2/3 131/2/3
f 133/1/3 108/1/3 128/1/3
f 133/1/3 128/1/3 132/1/3
f 134/1/3 108/1/3 133/1/3
f 135/1/3 132/1/3 131/1/3
f 135/1/3 133/1/3 132/1/3
f 135/1/3 131/1/3 130/1/3
f 136/1/3 133/1/3 135/1/3
f 141/1/3 138/1/3 137/1/3
f 142/1/3 138/1/3 141/1/3
f 143/1/3 140/1/3 139/1/3
f 144/1/3 140/1/3 143/1/3
f 149/1/3 146/1/3 145/1/3
f 150/1/3 146/1/3 149/1/3
f 151/1/3 148/1/3 147/1/3
f 152/1/3 148/1/3 151/1/3
f 153/1/4 154/1/4 157/1/4
f 157/1/4 154/1/4 158/1/4
f 155/1/4 156/1/4 159/1/4
f 159/1/4 156/1/4 160/1/4
f 161/1/4 162/1/4 165/1/4
f 165/1/4 162/1/4 166/1/4
f 163/1/4 164/1/4 167/1/4
f 167/1/4 164/1/4 168/1/4
f 169/1/4 170/1/4 172/1/4
f 172/1/4 170/1/4 173/1/4
f 173/1/4 170/1/4 174/1/4
f 174/1/4 170/1/4 175/1/4
f 171/1/4 172/1/4 177/1/4
f 172/1/4 173/1/4 177/1/4
f 173/2/4 174/2/4 178/2/4
f 177/1/4 173/1/4 178/1/4
f 178/2/4 174/2/4 179/2/4
f 179/2/4 174/2/4 180/2/4
f 175/1/4 176/1/4 181/1/4
f 180/2/4 174/2/4 181/2/4
f 174/1/4 175/1/4 181/1/4
f 181/1/4 176/1/4 182/1/4
f 178/1/4 179/1/4 183/1/4
f 177/2/4 178/2/4 183/2/4
f 179/2/4 180/2/4 184/2/4
f 183/1/4 179/1/4 184/1/4
f 180/1/4 181/1/4 185/1/4
f 184/2/4 180/2/4 185/2/4
f 181/2/4 182/2/4 186/2/4
f 185/1/4 181/1/4 186/1/4
f 177/2/4 183/2/4 187/2/4
f 183/2/4 184/2/4 187/2/4
f 184/1/4 185/1/4 188/1/4
f 187/2/4 184/2/4 188/2/4
f 185/2/4 186/2/4 189/2/4
f 188/1/4 185/1/4 189/1/4
f 186/2/4 182/2/4 190/2/4
f 189/2/4 186/2/4 190/2/4
f 171/1/4 177/1/4 191/1/4
f 177/2/4 187/2/4 191/2/4
f 187/1/4 188/1/4 192/1/4
f 191/2/4 187/2/4 192/2/4
f 188/2/4 189/2/4 193/2/4
f 192/1/4 188/1/4 193/1/4
f 189/1/4 190/1/4 194/1/4
f 193/2/4 189/2/4 194/2/4
f 190/2/4 182/2/4 195/2/4
f 194/1/4 190/1/4 195/1/4
f 182/1/4 176/1/4 196/1/4
f 195/2/4 182/2/4 196/2/4
f 191/1/4 192/1/4 197/1/4
f 171/1/4 191/1/4 197/1/4
f 197/1/4 192/1/4 198/1/4
f 194/2/4 195/2/4 199/2/4
f 198/1/4 192/1/4 199/1/4
f 193/2/4 194/2/4 199/2/4
f 192/2/4 193/2/4 199/2/4
f 195/1/4 196/1/4 200/1/4
f 199/2/4 195/2/4 200/2/4
f 196/1/4 176/1/4 201/1/4
f 200/1/4 196/1/4 201/1/4
f 201/1/4 176/1/4 202/1/4
f 199/1/4 200/1/4 203/1/4
f 200/1/4 201/1/4 203/1/4
f 198/1/4 199/1/4 203/1/4
f 203/1/4 201/1/4 204/1/4
f 208/1/5 206/1/5 205/1/5
f 209/1/5 206/1/5 208/1/5
f 210/1/5 206/1/5 209/1/5
f 211/1/5 206/1/5 210/1/5
f 213/1/5 208/1/5 207/1/5
f 213/1/5 209/1/5 208/1/5
f 214/2/5 210/2/5 209/2/5
f 214/1/5 209/1/5 213/1/5
f 215/2/5 210/2/5 214/2/5
f 216/2/5 210/2/5 215/2/5
f 217/1/5 212/1/5 211/1/5
f 217/2/5 210/2/5 216/2/5
f 217/1/5 211/1/5 210/1/5
f 218/1/5 212/1/5 217/1/5
f 219/1/5 215/1/5 214/1/5
f 219/2/5 214/2/5 213/2/5
f 220/2/5 216/2/5 215/2/5
f 220/1/5 215/1/5 219/1/5
f 221/1/5 217/1/5 216/1/5
f 221/2/5 216/2/5 220/2/5
f 222/2/5 218/2/5 217/2/5
f 222/1/5 217/1/5 221/1/5
f 223/2/5 219/2/5 213/2/5
f 223/2/5 220/2/5 219/2/5
f 224/1/5 221/1/5 220/1/5
f 224/2/5 220/2/5 223/2/5
f 225/2/5 222/2/5 221/2/5
f 225/1/5 221/1/5 224/1/5
f 226/2/5 218/2/5 222/2/5
f 226/2/5 222/2/5 225/2/5
f 227/1/5 213/1/5 207/1/5
f 227/2/5 223/2/5 213/2/5
f 228/1/5 224/1/5 223/1/5
f 228/2/5 223/2/5 227/2/5
f 229/2/5 225/2/5 224/2/5
f 229/1/5 224/1/5 228/1/5
f 230/1/5 226/1/5 225/1/5
f 230/2/5 225/2/5 229/2/5
f 231/2/5 218/2/5 226/2/5
f 231/1/5 226/1/5 230/1/5
f 232/1/5 212/1/5 218/1/5
f 232/2/5 218/2/5 231/2/5
f 233/1/5 228/1/5 227/1/5
f 233/1/5 227/1/5 207/1/5
f 234/1/5 228/1/5 233/1/5
f 235/2/5 231/2/5 230/2/5
f 235/1/5 228/1/5 234/1/5
f 235/2/5 230/2/5 229/2/5
f 235/2/5 229/2/5 228/2/5
f 236/1/5 232/1/5 231/1/5
f 236/2/5 231/2/5 235/2/5
f 237/1/5 212/1/5 232/1/5
f 237/1/5 232/1/5 236/1/5
f 238/1/5 212/1/5 237/1/5
f 239/1/5 236/1/5 235/1/5
f 239/1/5 237/1/5 236/1/5
f 239/1/5 235/1/5 234/1/5
f 240/1/5 237/1/5 239/1/5
f 245/1/5 242/1/5 241/1/5
f 246/1/5 242/1/5 245/1/5
f 247/1/5 244/1/5 243/1/5
f 248/1/5 244/1/5 247/1/5
f 253/1/5 250/1/5 249/1/5
f 254/1/5 250/1/5 253/1/5
f 255/1/5 252/1/5 251/1/5
f 256/1/5 252/1/5 255/1/5
f 257/1/6 258/1/6 261/1/6
f 261/1/6 258/1/6 262/1/6
f 259/1/6 260/1/6 263/1/6
f 263/1/6 260/1/6 264/1/6
f 265/1/6 266/1/6 269/1/6
f 269/1/6 266/1/6 270/1/6
f 267/1/6 268/1/6 271/1/6
f 271/1/6 268/1/6 272/1/6
f 273/1/6 274/1/6 276/1/6
f 276/1/6 274/1/6 277/1/6
f 277/1/6 274/1/6 278/1/6
f 278/1/6 274/1/6 279/1/6
f 275/1/6 276/1/6 281/1/6
f 276/1/6 277/1/6 281/1/6
f 277/2/6 278/2/6 282/2/6
f 281/1/6 277/1/6 282/1/6
f 282/2/6 278/2/6 283/2/6
f 283/2/6 278/2/6 284/2/6
f 279/1/6 280/1/6 285/1/6
f 284/2/6 278/2/6 285/2/6
f 278/1/6 279/1/6 285/1/6
f 285/1/6 280/1/6 286/1/6
f 282/1/6 283/1/6 287/1/6
f 281/2/6 282/2/6 287/2/6
f 283/2/6 284/2/6 288/2/6
f 287/1/6 283/1/6 288/1/6
f 284/1/6 285/1/6 289/1/6
f 288/2/6 284/2/6 289/2/6
f 285/2/6 286/2/6 290/2/6
f 289/1/6 285/1/6 290/1/6
f 281/2/6 287/2/6 291/2/6
f 287/2/6 288/2/6 291/2/6
f 288/1/6 289/1/6 292/1/6
f 291/2/6 288/2/6 292/2/6
f 289/2/6 290/2/6 293/2/6
f 292/1/6 289/1/6 293/1/6
f 290/2/6 286/2/6 294/2/6
f 293/2/6 290/2/6 294/2/6
f 275/1/6 281/1/6 295/1/6
f 281/2/6 291/2/6 295/2/6
f 291/1/6 292/1/6 296/1/6
f 295/2/6 291/2/6 296/2/6
f 292/2/6 293/2/6 297/2/6
f 296/1/6 292/1/6 297/1/6
f 293/1/6 294/1/6 298/1/6
f 297/2/6 293/2/6 298/2/6
f 294/2/6 286/2/6 299/2/6
f 298/1/6 294/1/6 299/1/6
f 286/1/6 280/1/6 300/1/6
f 299/2/6 286/2/6 300/2/6
f 295/1/6 296/1/6 301/1/6
f 275/1/6 295/1/6 301/1/6
f 301/1/6 296/1/6 302/1/6
f 298/2/6 299/2/6 303/2/6
f 302/1/6 296/1/6 303/1/6
f 297/2/6 298/2/6 303/2/6
f 296/2/6 297/2/6 303/2/6
f 299/1/6 300/1/6 304/1/6
f 303/2/6 299/2/6 304/2/6
f 300/1/6 280/1/6 305/1/6
f 304/1/6 300/1/6 305/1/6
f 305/1/6 280/1/6 306/1/6
f 303/1/6 304/1/6 307/1/6
f 304/1/6 305/1/6 307/1/6
f 302/1/6 303/1/6 307/1/6
f 307/1/6 305/1/6 308/1/6
