# MagicaVoxel @ Ephtracy

# group
o 

# material
mtllib Robot.vox-48.mtl
usemtl palette

# normals
vn -1 0 0
vn 1 0 0
vn 0 0 1
vn 0 0 -1
vn 0 -1 0
vn 0 1 0

# texcoords
vt 0.904297 0.5
vt 0.916016 0.5
vt 0.939453 0.5
vt 0.970703 0.5
vt 0.982422 0.5

# verts
v -0.7 0.4 2.2
v -0.7 0.4 1.6
v -0.7 0.5 2.2
v -0.7 0.5 1.6
v -0.6 0.2 2.1
v -0.6 0.2 1.5
v -0.6 0.3 2
v -0.6 0.3 1.7
v -0.6 0.4 2.1
v -0.6 0.4 2
v -0.6 0.4 1.7
v -0.6 0.4 1.6
v -0.6 0.5 2.1
v -0.6 0.5 1.8
v -0.6 0.5 1.6
v -0.6 0.5 1.5
v -0.6 0.7 2.1
v -0.6 0.7 2
v -0.6 0.9 2
v -0.6 0.9 1.9
v -0.6 1 1.9
v -0.6 1 1.8
v -0.5 0.1 2
v -0.5 0.1 1.5
v -0.5 0.2 2
v -0.5 0.2 1.5
v -0.5 0.3 2.3
v -0.5 0.3 2.1
v -0.5 0.4 2.4
v -0.5 0.4 2.3
v -0.5 0.4 2.2
v -0.5 0.4 2.1
v -0.5 0.5 2.2
v -0.5 0.5 2.1
v -0.5 0.5 1.8
v -0.5 0.5 1.6
v -0.5 0.6 1.7
v -0.5 0.6 1.6
v -0.5 0.7 2.4
v -0.5 0.7 2.3
v -0.5 0.7 2.1
v -0.5 0.7 2
v -0.5 0.7 1.8
v -0.5 0.7 1.7
v -0.5 0.8 2.2
v -0.5 0.8 2.1
v -0.5 0.9 2
v -0.5 0.9 1.9
v -0.5 1 2.3
v -0.5 1 2.2
v -0.5 1 1.9
v -0.5 1 1.8
v -0.5 1.1 2.2
v -0.5 1.1 2.1
v -0.5 1.1 1.8
v -0.4 1.1 2.1
v -0.4 1.1 1.8
v -0.4 1.3 2.1
v -0.4 1.3 1.8
v -0.3 0.1 1.9
v -0.3 0.1 1.5
v -0.3 0.2 1.9
v -0.3 0.2 1.5
v -0.3 0.5 2.2
v -0.3 0.5 2.1
v -0.3 0.6 2.3
v -0.3 0.6 2.2
v -0.3 0.7 2.1
v -0.3 0.7 2
v -0.3 0.7 1.9
v -0.3 0.8 2.2
v -0.3 0.8 2.1
v -0.3 0.9 2
v -0.3 0.9 1.9
v -0.3 1 2.2
v -0.3 1 2.1
v -0.3 1.1 2.1
v -0.3 1.2 2.3
v -0.3 1.2 2.2
v -0.3 1.3 2.2
v -0.3 1.3 2.1
v -0.2 0.8 1.9
v -0.2 0.8 1.8
v -0.2 0.9 2
v -0.2 0.9 1.9
v -0.2 0.9 1.8
v -0.2 1 2
v -0.2 1 1.9
v -0.2 1.1 2
v -0.2 1.1 1.9
v -0.2 1.2 2
v -0.2 1.2 1.9
v -0.2 1.3 2.1
v -0.2 1.3 1.8
v -0.2 1.4 2.1
v -0.2 1.4 1.8
v -0.1 0.1 1.9
v -0.1 0.1 1.5
v -0.1 0.2 1.9
v -0.1 0.2 1.5
v -0.1 0.4 2.2
v -0.1 0.4 2.1
v -0.1 0.5 2.1
v -0.1 0.5 1.8
v -0.1 0.5 1.6
v -0.1 0.7 2
v -0.1 0.7 1.9
v -0.1 0.8 2.3
v -0.1 0.8 2.2
v -0.1 0.8 2.1
v -0.1 0.8 2
v -0.1 0.8 1.9
v -0.1 0.8 1.8
v -0.1 0.9 1.9
v -0.1 0.9 1.8
v -0.1 0.9 1.7
v -0.1 0.9 1.6
v -0.1 1 2.3
v -0.1 1 2.2
v -0.1 1 2.1
v -0.1 1 2
v -0.1 1 1.9
v -0.1 1 1.8
v -0.1 1 1.7
v -0.1 1.1 2
v -0.1 1.1 1.9
v -0.1 1.1 1.8
v -0.1 1.3 2.1
v -0.1 1.4 2.2
v -0.1 1.4 2.1
v 0 0.6 2
v 0 0.6 1.9
v 0 0.7 2
v 0 0.7 1.9
v 0 0.7 1.8
v 0 0.8 1.9
v 0 0.8 1.8
v 0.2 0.1 1.9
v 0.2 0.1 1.5
v 0.2 0.2 1.9
v 0.2 0.2 1.5
v 0.2 0.5 2.2
v 0.2 0.5 2.1
v 0.2 0.5 1.8
v 0.2 0.6 2.3
v 0.2 0.6 2.2
v 0.2 0.6 2.1
v 0.2 0.6 2
v 0.2 0.6 1.9
v 0.2 0.6 1.8
v 0.2 0.8 2.2
v 0.2 0.8 2.1
v 0.2 1 2.2
v 0.2 1 2.1
v 0.2 1 2
v 0.2 1 1.9
v 0.2 1.1 2
v 0.2 1.1 1.9
v 0.2 1.2 2.3
v 0.2 1.2 2.2
v 0.2 1.2 2.1
v 0.2 1.2 1.8
v 0.2 1.3 2.2
v 0.2 1.3 2.1
v 0.2 1.3 1.8
v 0.3 0.4 2.2
v 0.3 0.4 2.1
v 0.3 0.5 2.2
v 0.3 0.5 2.1
v 0.3 0.6 2.1
v 0.3 0.6 1.8
v 0.3 0.7 2.1
v 0.3 0.7 1.8
v 0.3 1.1 2.1
v 0.3 1.1 2
v 0.3 1.1 1.9
v 0.3 1.1 1.8
v 0.3 1.2 2.1
v 0.3 1.2 1.8
v 0.4 0.1 1.9
v 0.4 0.1 1.5
v 0.4 0.2 1.9
v 0.4 0.2 1.5
v 0.4 0.3 2.3
v 0.4 0.3 2.1
v 0.4 0.4 2.4
v 0.4 0.4 2.3
v 0.4 0.4 2.2
v 0.4 0.4 2.1
v 0.4 0.5 2.2
v 0.4 0.5 2.1
v 0.4 0.5 1.8
v 0.4 0.5 1.6
v 0.4 0.6 1.7
v 0.4 0.6 1.6
v 0.4 0.7 2.4
v 0.4 0.7 2.3
v 0.4 0.7 2.1
v 0.4 0.7 1.8
v 0.4 0.7 1.7
v 0.4 0.8 2.2
v 0.4 0.8 2.1
v 0.4 1 2.3
v 0.4 1 2.2
v 0.4 1 2.1
v 0.4 1.1 2.2
v 0.4 1.1 2.1
v 0.4 1.1 1.8
v 0.5 0.4 1.6
v 0.5 0.4 1.5
v 0.5 0.5 1.6
v 0.5 0.5 1.5
v -0.5 0.4 1.6
v -0.5 0.4 1.5
v -0.5 0.5 1.6
v -0.5 0.5 1.5
v -0.4 0.1 1.9
v -0.4 0.1 1.5
v -0.4 0.2 1.9
v -0.4 0.2 1.5
v -0.4 0.3 2.3
v -0.4 0.3 2.1
v -0.4 0.4 2.4
v -0.4 0.4 2.3
v -0.4 0.4 2.2
v -0.4 0.4 2.1
v -0.4 0.5 2.2
v -0.4 0.5 2.1
v -0.4 0.5 1.8
v -0.4 0.5 1.6
v -0.4 0.6 1.7
v -0.4 0.6 1.6
v -0.4 0.7 2.4
v -0.4 0.7 2.3
v -0.4 0.7 2.1
v -0.4 0.7 1.8
v -0.4 0.7 1.7
v -0.4 0.8 2.2
v -0.4 0.8 2.1
v -0.4 1 2.3
v -0.4 1 2.2
v -0.4 1 2.1
v -0.4 1.1 2.2
v -0.4 1.1 2.1
v -0.4 1.1 1.8
v -0.3 0.4 2.2
v -0.3 0.4 2.1
v -0.3 0.5 2.2
v -0.3 0.5 2.1
v -0.3 0.6 2.1
v -0.3 0.6 1.8
v -0.3 0.7 2.1
v -0.3 0.7 2
v -0.3 0.7 1.9
v -0.3 0.7 1.8
v -0.3 1.1 2.1
v -0.3 1.1 1.8
v -0.3 1.2 2.1
v -0.3 1.2 1.8
v -0.2 0.1 1.9
v -0.2 0.1 1.5
v -0.2 0.2 1.9
v -0.2 0.2 1.5
v -0.2 0.5 2.2
v -0.2 0.5 2.1
v -0.2 0.5 1.8
v -0.2 0.6 2.3
v -0.2 0.6 2.2
v -0.2 0.6 2.1
v -0.2 0.6 1.8
v -0.2 0.7 2
v -0.2 0.7 1.9
v -0.2 0.8 2.2
v -0.2 0.8 2.1
v -0.2 0.8 2
v -0.2 0.8 1.9
v -0.2 1 2.2
v -0.2 1 2.1
v -0.2 1.2 2.3
v -0.2 1.2 2.2
v -0.2 1.2 2.1
v -0.2 1.2 2
v -0.2 1.2 1.9
v -0.2 1.2 1.8
v -0.2 1.3 2.2
v -0.2 1.3 2.1
v -0.2 1.3 1.8
v 0 1 1.9
v 0 1 1.8
v 0 1.1 2
v 0 1.1 1.9
v 0 1.1 1.8
v 0 1.2 2
v 0 1.2 1.9
v 0.1 0.1 1.9
v 0.1 0.1 1.5
v 0.1 0.2 1.9
v 0.1 0.2 1.5
v 0.1 0.4 2.2
v 0.1 0.4 2.1
v 0.1 0.5 2.1
v 0.1 0.5 1.8
v 0.1 0.5 1.6
v 0.1 0.7 2
v 0.1 0.7 1.9
v 0.1 0.7 1.8
v 0.1 0.8 2.3
v 0.1 0.8 2.2
v 0.1 0.8 2.1
v 0.1 0.8 2
v 0.1 0.8 1.9
v 0.1 0.8 1.8
v 0.1 0.9 1.9
v 0.1 0.9 1.8
v 0.1 0.9 1.7
v 0.1 0.9 1.6
v 0.1 1 2.3
v 0.1 1 2.2
v 0.1 1 2.1
v 0.1 1 2
v 0.1 1 1.9
v 0.1 1 1.8
v 0.1 1 1.7
v 0.1 1.1 2
v 0.1 1.1 1.9
v 0.1 1.3 2.1
v 0.1 1.4 2.2
v 0.1 1.4 2.1
v 0.2 0.6 2
v 0.2 0.6 1.9
v 0.2 0.7 2
v 0.2 0.7 1.9
v 0.2 0.8 2
v 0.2 0.8 1.9
v 0.2 0.9 2
v 0.2 0.9 1.9
v 0.2 0.9 1.8
v 0.2 1 1.9
v 0.2 1 1.8
v 0.2 1.3 2.1
v 0.2 1.3 1.8
v 0.2 1.4 2.1
v 0.2 1.4 1.8
v 0.3 0.1 1.9
v 0.3 0.1 1.5
v 0.3 0.2 1.9
v 0.3 0.2 1.5
v 0.3 0.5 2.2
v 0.3 0.5 2.1
v 0.3 0.6 2.3
v 0.3 0.6 2.2
v 0.3 0.7 2.1
v 0.3 0.8 2.2
v 0.3 0.8 2.1
v 0.3 0.9 2
v 0.3 0.9 1.9
v 0.3 1 2.2
v 0.3 1 2.1
v 0.3 1.1 2.1
v 0.3 1.1 2
v 0.3 1.1 1.9
v 0.3 1.2 2.3
v 0.3 1.2 2.2
v 0.3 1.3 2.2
v 0.3 1.3 2.1
v 0.4 1.1 2.1
v 0.4 1.1 1.8
v 0.4 1.3 2.1
v 0.4 1.3 1.8
v 0.5 0.1 2
v 0.5 0.1 1.5
v 0.5 0.2 2
v 0.5 0.2 1.5
v 0.5 0.3 2.3
v 0.5 0.3 2.1
v 0.5 0.4 2.4
v 0.5 0.4 2.3
v 0.5 0.4 2.2
v 0.5 0.4 2.1
v 0.5 0.5 2.2
v 0.5 0.5 2.1
v 0.5 0.5 1.8
v 0.5 0.5 1.6
v 0.5 0.6 1.7
v 0.5 0.6 1.6
v 0.5 0.7 2.4
v 0.5 0.7 2.3
v 0.5 0.7 2.1
v 0.5 0.7 2
v 0.5 0.7 1.8
v 0.5 0.7 1.7
v 0.5 0.8 2.2
v 0.5 0.8 2.1
v 0.5 0.9 2
v 0.5 0.9 1.9
v 0.5 1 2.3
v 0.5 1 2.2
v 0.5 1 1.9
v 0.5 1 1.8
v 0.5 1.1 2.2
v 0.5 1.1 2.1
v 0.5 1.1 1.8
v 0.6 0.2 2.1
v 0.6 0.2 1.5
v 0.6 0.3 2
v 0.6 0.3 1.7
v 0.6 0.4 2.1
v 0.6 0.4 2
v 0.6 0.4 1.7
v 0.6 0.4 1.6
v 0.6 0.5 2.1
v 0.6 0.5 1.8
v 0.6 0.5 1.6
v 0.6 0.5 1.5
v 0.6 0.7 2.1
v 0.6 0.7 2
v 0.6 0.9 2
v 0.6 0.9 1.9
v 0.6 1 1.9
v 0.6 1 1.8
v 0.7 0.4 2.2
v 0.7 0.4 1.6
v 0.7 0.5 2.2
v 0.7 0.5 1.6
v -0.5 0.4 2.4
v -0.5 0.7 2.4
v -0.4 0.4 2.4
v -0.4 0.7 2.4
v 0.4 0.4 2.4
v 0.4 0.7 2.4
v 0.5 0.4 2.4
v 0.5 0.7 2.4
v -0.5 0.3 2.3
v -0.5 0.4 2.3
v -0.5 0.7 2.3
v -0.5 1 2.3
v -0.4 0.3 2.3
v -0.4 0.4 2.3
v -0.4 0.7 2.3
v -0.4 1 2.3
v -0.3 0.6 2.3
v -0.3 1.2 2.3
v -0.2 0.6 2.3
v -0.2 1.2 2.3
v -0.1 0.8 2.3
v -0.1 1 2.3
v 0.1 0.8 2.3
v 0.1 1 2.3
v 0.2 0.6 2.3
v 0.2 1.2 2.3
v 0.3 0.6 2.3
v 0.3 1.2 2.3
v 0.4 0.3 2.3
v 0.4 0.4 2.3
v 0.4 0.7 2.3
v 0.4 1 2.3
v 0.5 0.3 2.3
v 0.5 0.4 2.3
v 0.5 0.7 2.3
v 0.5 1 2.3
v -0.7 0.4 2.2
v -0.7 0.5 2.2
v -0.5 0.4 2.2
v -0.5 0.5 2.2
v -0.5 1 2.2
v -0.5 1.1 2.2
v -0.4 0.4 2.2
v -0.4 0.5 2.2
v -0.4 0.8 2.2
v -0.4 1 2.2
v -0.4 1.1 2.2
v -0.3 0.4 2.2
v -0.3 0.5 2.2
v -0.3 0.6 2.2
v -0.3 0.8 2.2
v -0.3 1 2.2
v -0.3 1.2 2.2
v -0.3 1.3 2.2
v -0.2 0.5 2.2
v -0.2 0.6 2.2
v -0.2 0.8 2.2
v -0.2 1 2.2
v -0.2 1.2 2.2
v -0.2 1.3 2.2
v -0.1 0.4 2.2
v -0.1 0.8 2.2
v -0.1 1 2.2
v -0.1 1.4 2.2
v 0.1 0.4 2.2
v 0.1 0.8 2.2
v 0.1 1 2.2
v 0.1 1.4 2.2
v 0.2 0.5 2.2
v 0.2 0.6 2.2
v 0.2 0.8 2.2
v 0.2 1 2.2
v 0.2 1.2 2.2
v 0.2 1.3 2.2
v 0.3 0.4 2.2
v 0.3 0.5 2.2
v 0.3 0.6 2.2
v 0.3 0.8 2.2
v 0.3 1 2.2
v 0.3 1.2 2.2
v 0.3 1.3 2.2
v 0.4 0.4 2.2
v 0.4 0.5 2.2
v 0.4 0.8 2.2
v 0.4 1 2.2
v 0.4 1.1 2.2
v 0.5 0.4 2.2
v 0.5 0.5 2.2
v 0.5 1 2.2
v 0.5 1.1 2.2
v 0.7 0.4 2.2
v 0.7 0.5 2.2
v -0.6 0.2 2.1
v -0.6 0.4 2.1
v -0.6 0.5 2.1
v -0.6 0.7 2.1
v -0.5 0.3 2.1
v -0.5 0.4 2.1
v -0.5 0.5 2.1
v -0.5 0.7 2.1
v -0.4 0.3 2.1
v -0.4 0.4 2.1
v -0.4 0.5 2.1
v -0.4 0.7 2.1
v -0.4 1.1 2.1
v -0.4 1.3 2.1
v -0.3 0.4 2.1
v -0.3 0.5 2.1
v -0.3 0.7 2.1
v -0.3 1.1 2.1
v -0.3 1.3 2.1
v -0.2 0.4 2.1
v -0.2 0.5 2.1
v -0.2 1.3 2.1
v -0.2 1.4 2.1
v -0.1 0.4 2.1
v -0.1 0.5 2.1
v -0.1 1.3 2.1
v -0.1 1.4 2.1
v 0.1 0.4 2.1
v 0.1 0.5 2.1
v 0.1 1.3 2.1
v 0.1 1.4 2.1
v 0.2 0.4 2.1
v 0.2 0.5 2.1
v 0.2 1.3 2.1
v 0.2 1.4 2.1
v 0.3 0.4 2.1
v 0.3 0.5 2.1
v 0.3 0.7 2.1
v 0.3 1.1 2.1
v 0.3 1.3 2.1
v 0.4 0.3 2.1
v 0.4 0.4 2.1
v 0.4 0.5 2.1
v 0.4 0.7 2.1
v 0.4 1.1 2.1
v 0.4 1.3 2.1
v 0.5 0.3 2.1
v 0.5 0.4 2.1
v 0.5 0.5 2.1
v 0.5 0.7 2.1
v 0.6 0.2 2.1
v 0.6 0.4 2.1
v 0.6 0.5 2.1
v 0.6 0.7 2.1
v -0.6 0.7 2
v -0.6 0.9 2
v -0.5 0.1 2
v -0.5 0.2 2
v -0.5 0.7 2
v -0.5 0.9 2
v -0.3 0.7 2
v -0.3 0.9 2
v -0.2 0.7 2
v -0.2 0.8 2
v -0.2 0.9 2
v -0.2 1 2
v -0.2 1.1 2
v -0.2 1.2 2
v -0.1 0.7 2
v -0.1 0.8 2
v -0.1 1 2
v -0.1 1.1 2
v 0 0.6 2
v 0 0.7 2
v 0 1.1 2
v 0 1.2 2
v 0.1 0.7 2
v 0.1 0.8 2
v 0.1 1 2
v 0.1 1.1 2
v 0.2 0.6 2
v 0.2 0.7 2
v 0.2 0.8 2
v 0.2 0.9 2
v 0.2 1 2
v 0.2 1.1 2
v 0.3 0.9 2
v 0.3 1.1 2
v 0.5 0.1 2
v 0.5 0.2 2
v 0.5 0.7 2
v 0.5 0.9 2
v 0.6 0.7 2
v 0.6 0.9 2
v -0.6 0.9 1.9
v -0.6 1 1.9
v -0.5 0.9 1.9
v -0.5 1 1.9
v 0.5 0.9 1.9
v 0.5 1 1.9
v 0.6 0.9 1.9
v 0.6 1 1.9
v -0.1 0.5 1.8
v -0.1 0.8 1.8
v 0 0.7 1.8
v 0 0.8 1.8
v 0.1 0.5 1.8
v 0.1 0.7 1.8
v -0.4 0.8 2.1
v -0.4 1 2.1
v -0.3 0.6 2.1
v -0.3 0.7 2.1
v -0.3 0.8 2.1
v -0.3 1 2.1
v -0.3 1.1 2.1
v -0.3 1.2 2.1
v -0.2 0.6 2.1
v -0.2 0.8 2.1
v -0.2 1 2.1
v -0.2 1.2 2.1
v -0.1 0.5 2.1
v -0.1 0.8 2.1
v -0.1 1 2.1
v -0.1 1.3 2.1
v 0.1 0.5 2.1
v 0.1 0.8 2.1
v 0.1 1 2.1
v 0.1 1.3 2.1
v 0.2 0.6 2.1
v 0.2 0.8 2.1
v 0.2 1 2.1
v 0.2 1.2 2.1
v 0.3 0.6 2.1
v 0.3 0.7 2.1
v 0.3 0.8 2.1
v 0.3 1 2.1
v 0.3 1.1 2.1
v 0.3 1.2 2.1
v 0.4 0.8 2.1
v 0.4 1 2.1
v -0.4 0.1 1.9
v -0.4 0.2 1.9
v -0.3 0.1 1.9
v -0.3 0.2 1.9
v -0.3 0.7 1.9
v -0.3 0.9 1.9
v -0.2 0.1 1.9
v -0.2 0.2 1.9
v -0.2 0.7 1.9
v -0.2 0.8 1.9
v -0.2 0.9 1.9
v -0.2 1 1.9
v -0.2 1.1 1.9
v -0.2 1.2 1.9
v -0.1 0.1 1.9
v -0.1 0.2 1.9
v -0.1 0.7 1.9
v -0.1 0.8 1.9
v -0.1 0.9 1.9
v -0.1 1 1.9
v -0.1 1.1 1.9
v 0 0.6 1.9
v 0 0.7 1.9
v 0 0.8 1.9
v 0 1 1.9
v 0 1.1 1.9
v 0 1.2 1.9
v 0.1 0.1 1.9
v 0.1 0.2 1.9
v 0.1 0.7 1.9
v 0.1 0.8 1.9
v 0.1 0.9 1.9
v 0.1 1 1.9
v 0.1 1.1 1.9
v 0.2 0.1 1.9
v 0.2 0.2 1.9
v 0.2 0.6 1.9
v 0.2 0.7 1.9
v 0.2 0.8 1.9
v 0.2 0.9 1.9
v 0.2 1 1.9
v 0.2 1.1 1.9
v 0.3 0.1 1.9
v 0.3 0.2 1.9
v 0.3 0.9 1.9
v 0.3 1.1 1.9
v 0.4 0.1 1.9
v 0.4 0.2 1.9
v -0.6 0.5 1.8
v -0.6 1 1.8
v -0.5 0.5 1.8
v -0.5 0.7 1.8
v -0.5 1 1.8
v -0.5 1.1 1.8
v -0.4 0.5 1.8
v -0.4 0.7 1.8
v -0.4 1.1 1.8
v -0.4 1.3 1.8
v -0.3 0.6 1.8
v -0.3 0.7 1.8
v -0.3 1.1 1.8
v -0.3 1.2 1.8
v -0.2 0.5 1.8
v -0.2 0.6 1.8
v -0.2 0.8 1.8
v -0.2 0.9 1.8
v -0.2 1.2 1.8
v -0.2 1.3 1.8
v -0.2 1.4 1.8
v -0.1 0.8 1.8
v -0.1 0.9 1.8
v -0.1 1 1.8
v -0.1 1.1 1.8
v 0 1 1.8
v 0 1.1 1.8
v 0.1 0.9 1.8
v 0.1 1 1.8
v 0.2 0.5 1.8
v 0.2 0.6 1.8
v 0.2 0.9 1.8
v 0.2 1 1.8
v 0.2 1.2 1.8
v 0.2 1.3 1.8
v 0.2 1.4 1.8
v 0.3 0.6 1.8
v 0.3 0.7 1.8
v 0.3 1.1 1.8
v 0.3 1.2 1.8
v 0.4 0.5 1.8
v 0.4 0.7 1.8
v 0.4 1.1 1.8
v 0.4 1.3 1.8
v 0.5 0.5 1.8
v 0.5 0.7 1.8
v 0.5 1 1.8
v 0.5 1.1 1.8
v 0.6 0.5 1.8
v 0.6 1 1.8
v -0.5 0.6 1.7
v -0.5 0.7 1.7
v -0.4 0.6 1.7
v -0.4 0.7 1.7
v -0.1 0.9 1.7
v -0.1 1 1.7
v 0.1 0.9 1.7
v 0.1 1 1.7
v 0.4 0.6 1.7
v 0.4 0.7 1.7
v 0.5 0.6 1.7
v 0.5 0.7 1.7
v -0.7 0.4 1.6
v -0.7 0.5 1.6
v -0.6 0.4 1.6
v -0.6 0.5 1.6
v -0.5 0.4 1.6
v -0.5 0.5 1.6
v -0.5 0.6 1.6
v -0.4 0.5 1.6
v -0.4 0.6 1.6
v -0.1 0.4 1.6
v -0.1 0.5 1.6
v -0.1 0.9 1.6
v 0.1 0.4 1.6
v 0.1 0.5 1.6
v 0.1 0.9 1.6
v 0.4 0.5 1.6
v 0.4 0.6 1.6
v 0.5 0.4 1.6
v 0.5 0.5 1.6
v 0.5 0.6 1.6
v 0.6 0.4 1.6
v 0.6 0.5 1.6
v 0.7 0.4 1.6
v 0.7 0.5 1.6
v -0.6 0.2 1.5
v -0.6 0.5 1.5
v -0.5 0.1 1.5
v -0.5 0.2 1.5
v -0.5 0.4 1.5
v -0.5 0.5 1.5
v -0.4 0.1 1.5
v -0.4 0.2 1.5
v -0.3 0.1 1.5
v -0.3 0.2 1.5
v -0.2 0.1 1.5
v -0.2 0.2 1.5
v -0.1 0.1 1.5
v -0.1 0.2 1.5
v 0.1 0.1 1.5
v 0.1 0.2 1.5
v 0.2 0.1 1.5
v 0.2 0.2 1.5
v 0.3 0.1 1.5
v 0.3 0.2 1.5
v 0.4 0.1 1.5
v 0.4 0.2 1.5
v 0.5 0.1 1.5
v 0.5 0.2 1.5
v 0.5 0.4 1.5
v 0.5 0.5 1.5
v 0.6 0.2 1.5
v 0.6 0.5 1.5
v -0.5 0.1 2
v 0.5 0.1 2
v -0.4 0.1 1.9
v -0.3 0.1 1.9
v -0.2 0.1 1.9
v -0.1 0.1 1.9
v 0.1 0.1 1.9
v 0.2 0.1 1.9
v 0.3 0.1 1.9
v 0.4 0.1 1.9
v -0.5 0.1 1.5
v -0.4 0.1 1.5
v -0.3 0.1 1.5
v -0.2 0.1 1.5
v -0.1 0.1 1.5
v 0.1 0.1 1.5
v 0.2 0.1 1.5
v 0.3 0.1 1.5
v 0.4 0.1 1.5
v 0.5 0.1 1.5
v -0.6 0.2 2.1
v 0.6 0.2 2.1
v -0.5 0.2 2
v 0.5 0.2 2
v -0.4 0.2 1.9
v -0.3 0.2 1.9
v -0.2 0.2 1.9
v -0.1 0.2 1.9
v 0.1 0.2 1.9
v 0.2 0.2 1.9
v 0.3 0.2 1.9
v 0.4 0.2 1.9
v -0.6 0.2 1.5
v -0.5 0.2 1.5
v -0.4 0.2 1.5
v -0.3 0.2 1.5
v -0.2 0.2 1.5
v -0.1 0.2 1.5
v 0.1 0.2 1.5
v 0.2 0.2 1.5
v 0.3 0.2 1.5
v 0.4 0.2 1.5
v 0.5 0.2 1.5
v 0.6 0.2 1.5
v -0.5 0.3 2.3
v -0.4 0.3 2.3
v 0.4 0.3 2.3
v 0.5 0.3 2.3
v -0.5 0.3 2.1
v -0.4 0.3 2.1
v 0.4 0.3 2.1
v 0.5 0.3 2.1
v -0.5 0.4 2.4
v -0.4 0.4 2.4
v 0.4 0.4 2.4
v 0.5 0.4 2.4
v -0.5 0.4 2.3
v -0.4 0.4 2.3
v 0.4 0.4 2.3
v 0.5 0.4 2.3
v -0.7 0.4 2.2
v -0.5 0.4 2.2
v -0.4 0.4 2.2
v -0.3 0.4 2.2
v -0.1 0.4 2.2
v 0.1 0.4 2.2
v 0.3 0.4 2.2
v 0.4 0.4 2.2
v 0.5 0.4 2.2
v 0.7 0.4 2.2
v -0.6 0.4 2.1
v -0.5 0.4 2.1
v -0.4 0.4 2.1
v -0.3 0.4 2.1
v -0.1 0.4 2.1
v 0.1 0.4 2.1
v 0.3 0.4 2.1
v 0.4 0.4 2.1
v 0.5 0.4 2.1
v 0.6 0.4 2.1
v -0.6 0.4 2
v 0.6 0.4 2
v -0.6 0.4 1.7
v 0.6 0.4 1.7
v -0.7 0.4 1.6
v -0.6 0.4 1.6
v 0.6 0.4 1.6
v 0.7 0.4 1.6
v -0.3 0.5 2.2
v -0.2 0.5 2.2
v 0.2 0.5 2.2
v 0.3 0.5 2.2
v -0.3 0.5 2.1
v -0.2 0.5 2.1
v 0.2 0.5 2.1
v 0.3 0.5 2.1
v -0.3 0.6 2.3
v -0.2 0.6 2.3
v 0.2 0.6 2.3
v 0.3 0.6 2.3
v -0.3 0.6 2.2
v -0.2 0.6 2.2
v 0.2 0.6 2.2
v 0.3 0.6 2.2
v 0 0.6 2
v 0.2 0.6 2
v 0 0.6 1.9
v 0.2 0.6 1.9
v -0.3 0.7 2
v -0.2 0.7 2
v -0.1 0.7 2
v 0 0.7 2
v -0.3 0.7 1.9
v -0.2 0.7 1.9
v -0.1 0.7 1.9
v 0 0.7 1.9
v 0.1 0.7 1.9
v 0 0.7 1.8
v 0.1 0.7 1.8
v -0.1 0.8 2.3
v 0.1 0.8 2.3
v -0.4 0.8 2.2
v -0.3 0.8 2.2
v -0.2 0.8 2.2
v -0.1 0.8 2.2
v 0.1 0.8 2.2
v 0.2 0.8 2.2
v 0.3 0.8 2.2
v 0.4 0.8 2.2
v -0.4 0.8 2.1
v -0.3 0.8 2.1
v -0.2 0.8 2.1
v -0.1 0.8 2.1
v 0.1 0.8 2.1
v 0.2 0.8 2.1
v 0.3 0.8 2.1
v 0.4 0.8 2.1
v -0.2 0.8 2
v -0.1 0.8 2
v 0.1 0.8 2
v 0.2 0.8 2
v -0.2 0.8 1.9
v -0.1 0.8 1.9
v 0 0.8 1.9
v 0.1 0.8 1.9
v 0.2 0.8 1.9
v -0.2 0.8 1.8
v -0.1 0.8 1.8
v 0 0.8 1.8
v 0.2 0.9 2
v 0.3 0.9 2
v 0.1 0.9 1.9
v 0.2 0.9 1.9
v 0.3 0.9 1.9
v 0.1 0.9 1.8
v 0.2 0.9 1.8
v -0.4 1.1 2.1
v -0.3 1.1 2.1
v 0.3 1.1 2.1
v 0.4 1.1 2.1
v -0.2 1.1 2
v -0.1 1.1 2
v 0.3 1.1 2
v -0.2 1.1 1.9
v -0.1 1.1 1.9
v 0.3 1.1 1.9
v -0.4 1.1 1.8
v -0.3 1.1 1.8
v 0.3 1.1 1.8
v 0.4 1.1 1.8
v -0.3 1.2 2.1
v -0.2 1.2 2.1
v 0.2 1.2 2.1
v 0.3 1.2 2.1
v -0.2 1.2 2
v -0.2 1.2 1.9
v -0.3 1.2 1.8
v -0.2 1.2 1.8
v 0.2 1.2 1.8
v 0.3 1.2 1.8
v -0.2 1.3 2.1
v -0.1 1.3 2.1
v 0.1 1.3 2.1
v 0.2 1.3 2.1
v -0.2 1.3 1.8
v 0.2 1.3 1.8
v -0.5 0.4 1.6
v -0.1 0.4 1.6
v 0.1 0.4 1.6
v 0.5 0.4 1.6
v -0.5 0.4 1.5
v 0.5 0.4 1.5
v -0.7 0.5 2.2
v -0.5 0.5 2.2
v -0.4 0.5 2.2
v -0.3 0.5 2.2
v 0.3 0.5 2.2
v 0.4 0.5 2.2
v 0.5 0.5 2.2
v 0.7 0.5 2.2
v -0.6 0.5 2.1
v -0.5 0.5 2.1
v -0.4 0.5 2.1
v -0.3 0.5 2.1
v -0.2 0.5 2.1
v -0.1 0.5 2.1
v 0.1 0.5 2.1
v 0.2 0.5 2.1
v 0.3 0.5 2.1
v 0.4 0.5 2.1
v 0.5 0.5 2.1
v 0.6 0.5 2.1
v -0.6 0.5 1.8
v -0.5 0.5 1.8
v -0.4 0.5 1.8
v -0.2 0.5 1.8
v -0.1 0.5 1.8
v 0.1 0.5 1.8
v 0.2 0.5 1.8
v 0.4 0.5 1.8
v 0.5 0.5 1.8
v 0.6 0.5 1.8
v -0.7 0.5 1.6
v -0.6 0.5 1.6
v -0.5 0.5 1.6
v -0.4 0.5 1.6
v -0.1 0.5 1.6
v 0.1 0.5 1.6
v 0.4 0.5 1.6
v 0.5 0.5 1.6
v 0.6 0.5 1.6
v 0.7 0.5 1.6
v -0.6 0.5 1.5
v -0.5 0.5 1.5
v 0.5 0.5 1.5
v 0.6 0.5 1.5
v -0.3 0.6 2.1
v -0.2 0.6 2.1
v 0.2 0.6 2.1
v 0.3 0.6 2.1
v 0.2 0.6 2
v 0.2 0.6 1.9
v -0.3 0.6 1.8
v -0.2 0.6 1.8
v 0.2 0.6 1.8
v 0.3 0.6 1.8
v -0.5 0.6 1.7
v -0.4 0.6 1.7
v 0.4 0.6 1.7
v 0.5 0.6 1.7
v -0.5 0.6 1.6
v -0.4 0.6 1.6
v 0.4 0.6 1.6
v 0.5 0.6 1.6
v -0.5 0.7 2.4
v -0.4 0.7 2.4
v 0.4 0.7 2.4
v 0.5 0.7 2.4
v -0.5 0.7 2.3
v -0.4 0.7 2.3
v 0.4 0.7 2.3
v 0.5 0.7 2.3
v -0.6 0.7 2.1
v -0.5 0.7 2.1
v -0.4 0.7 2.1
v -0.3 0.7 2.1
v 0.3 0.7 2.1
v 0.4 0.7 2.1
v 0.5 0.7 2.1
v 0.6 0.7 2.1
v -0.6 0.7 2
v -0.5 0.7 2
v -0.3 0.7 2
v 0.1 0.7 2
v 0.2 0.7 2
v 0.5 0.7 2
v 0.6 0.7 2
v -0.3 0.7 1.9
v 0.1 0.7 1.9
v 0.2 0.7 1.9
v -0.5 0.7 1.8
v -0.4 0.7 1.8
v -0.3 0.7 1.8
v 0.3 0.7 1.8
v 0.4 0.7 1.8
v 0.5 0.7 1.8
v -0.5 0.7 1.7
v -0.4 0.7 1.7
v 0.4 0.7 1.7
v 0.5 0.7 1.7
v -0.6 0.9 2
v -0.5 0.9 2
v -0.3 0.9 2
v -0.2 0.9 2
v 0.5 0.9 2
v 0.6 0.9 2
v -0.6 0.9 1.9
v -0.5 0.9 1.9
v -0.3 0.9 1.9
v -0.2 0.9 1.9
v -0.1 0.9 1.9
v 0.5 0.9 1.9
v 0.6 0.9 1.9
v -0.2 0.9 1.8
v -0.1 0.9 1.8
v -0.1 0.9 1.7
v 0.1 0.9 1.7
v -0.1 0.9 1.6
v 0.1 0.9 1.6
v -0.5 1 2.3
v -0.4 1 2.3
v -0.1 1 2.3
v 0.1 1 2.3
v 0.4 1 2.3
v 0.5 1 2.3
v -0.5 1 2.2
v -0.4 1 2.2
v -0.3 1 2.2
v -0.2 1 2.2
v -0.1 1 2.2
v 0.1 1 2.2
v 0.2 1 2.2
v 0.3 1 2.2
v 0.4 1 2.2
v 0.5 1 2.2
v -0.4 1 2.1
v -0.3 1 2.1
v -0.2 1 2.1
v -0.1 1 2.1
v 0.1 1 2.1
v 0.2 1 2.1
v 0.3 1 2.1
v 0.4 1 2.1
v -0.2 1 2
v -0.1 1 2
v 0.1 1 2
v 0.2 1 2
v -0.6 1 1.9
v -0.5 1 1.9
v -0.2 1 1.9
v -0.1 1 1.9
v 0 1 1.9
v 0.1 1 1.9
v 0.2 1 1.9
v 0.5 1 1.9
v 0.6 1 1.9
v -0.6 1 1.8
v -0.5 1 1.8
v -0.1 1 1.8
v 0 1 1.8
v 0.1 1 1.8
v 0.2 1 1.8
v 0.5 1 1.8
v 0.6 1 1.8
v -0.1 1 1.7
v 0.1 1 1.7
v -0.5 1.1 2.2
v -0.4 1.1 2.2
v 0.4 1.1 2.2
v 0.5 1.1 2.2
v -0.5 1.1 2.1
v -0.4 1.1 2.1
v 0.4 1.1 2.1
v 0.5 1.1 2.1
v 0 1.1 2
v 0.1 1.1 2
v 0.2 1.1 2
v 0.3 1.1 2
v -0.1 1.1 1.9
v 0 1.1 1.9
v 0.1 1.1 1.9
v 0.2 1.1 1.9
v 0.3 1.1 1.9
v -0.5 1.1 1.8
v -0.4 1.1 1.8
v -0.1 1.1 1.8
v 0 1.1 1.8
v 0.4 1.1 1.8
v 0.5 1.1 1.8
v -0.3 1.2 2.3
v -0.2 1.2 2.3
v 0.2 1.2 2.3
v 0.3 1.2 2.3
v -0.3 1.2 2.2
v -0.2 1.2 2.2
v 0.2 1.2 2.2
v 0.3 1.2 2.2
v -0.2 1.2 2
v 0 1.2 2
v -0.2 1.2 1.9
v 0 1.2 1.9
v -0.3 1.3 2.2
v -0.2 1.3 2.2
v 0.2 1.3 2.2
v 0.3 1.3 2.2
v -0.4 1.3 2.1
v -0.3 1.3 2.1
v -0.2 1.3 2.1
v 0.2 1.3 2.1
v 0.3 1.3 2.1
v 0.4 1.3 2.1
v -0.4 1.3 1.8
v -0.2 1.3 1.8
v 0.2 1.3 1.8
v 0.4 1.3 1.8
v -0.1 1.4 2.2
v 0.1 1.4 2.2
v -0.2 1.4 2.1
v -0.1 1.4 2.1
v 0.1 1.4 2.1
v 0.2 1.4 2.1
v -0.2 1.4 1.8
v 0.2 1.4 1.8

# faces
f 3/5/1 2/5/1 1/5/1
f 4/5/1 2/5/1 3/5/1
f 7/5/1 6/5/1 5/5/1
f 8/5/1 6/5/1 7/5/1
f 9/5/1 7/5/1 5/5/1
f 10/4/1 8/4/1 7/4/1
f 10/5/1 7/5/1 9/5/1
f 11/5/1 6/5/1 8/5/1
f 11/4/1 8/4/1 10/4/1
f 12/5/1 6/5/1 11/5/1
f 15/5/1 6/5/1 12/5/1
f 16/5/1 6/5/1 15/5/1
f 17/5/1 14/5/1 13/5/1
f 18/5/1 14/5/1 17/5/1
f 19/5/1 14/5/1 18/5/1
f 20/5/1 14/5/1 19/5/1
f 21/5/1 14/5/1 20/5/1
f 22/5/1 14/5/1 21/5/1
f 25/4/1 24/4/1 23/4/1
f 26/4/1 24/4/1 25/4/1
f 30/5/1 28/5/1 27/5/1
f 31/5/1 28/5/1 30/5/1
f 32/5/1 28/5/1 31/5/1
f 33/5/1 30/5/1 29/5/1
f 33/5/1 31/5/1 30/5/1
f 37/5/1 36/5/1 35/5/1
f 38/5/1 36/5/1 37/5/1
f 39/5/1 33/5/1 29/5/1
f 40/5/1 33/5/1 39/5/1
f 41/4/1 34/4/1 33/4/1
f 43/5/1 37/5/1 35/5/1
f 44/5/1 37/5/1 43/5/1
f 45/5/1 33/5/1 40/5/1
f 45/4/1 42/4/1 41/4/1
f 45/4/1 41/4/1 33/4/1
f 46/4/1 42/4/1 45/4/1
f 47/4/1 42/4/1 46/4/1
f 49/5/1 45/5/1 40/5/1
f 49/5/1 46/5/1 45/5/1
f 50/5/1 46/5/1 49/5/1
f 51/4/1 48/4/1 47/4/1
f 53/5/1 46/5/1 50/5/1
f 54/4/1 52/4/1 51/4/1
f 54/5/1 46/5/1 53/5/1
f 54/4/1 47/4/1 46/4/1
f 54/4/1 51/4/1 47/4/1
f 55/4/1 52/4/1 54/4/1
f 58/4/1 57/4/1 56/4/1
f 59/4/1 57/4/1 58/4/1
f 62/4/1 61/4/1 60/4/1
f 63/4/1 61/4/1 62/4/1
f 67/3/1 65/3/1 64/3/1
f 68/3/1 65/3/1 67/3/1
f 68/3/1 67/3/1 66/3/1
f 71/3/1 68/3/1 66/3/1
f 72/3/1 68/3/1 71/3/1
f 73/1/1 70/1/1 69/1/1
f 74/1/1 70/1/1 73/1/1
f 75/3/1 71/3/1 66/3/1
f 77/3/1 76/3/1 75/3/1
f 78/3/1 75/3/1 66/3/1
f 78/3/1 77/3/1 75/3/1
f 79/3/1 77/3/1 78/3/1
f 80/3/1 77/3/1 79/3/1
f 81/3/1 77/3/1 80/3/1
f 85/2/1 83/2/1 82/2/1
f 86/2/1 83/2/1 85/2/1
f 87/1/1 85/1/1 84/1/1
f 88/1/1 85/1/1 87/1/1
f 91/1/1 90/1/1 89/1/1
f 92/1/1 90/1/1 91/1/1
f 95/4/1 94/4/1 93/4/1
f 96/4/1 94/4/1 95/4/1
f 99/4/1 98/4/1 97/4/1
f 100/4/1 98/4/1 99/4/1
f 103/5/1 102/5/1 101/5/1
f 109/5/1 103/5/1 101/5/1
f 110/5/1 103/5/1 109/5/1
f 111/1/1 107/1/1 106/1/1
f 112/1/1 107/1/1 111/1/1
f 113/3/1 105/3/1 104/3/1
f 115/3/1 105/3/1 113/3/1
f 116/3/1 105/3/1 115/3/1
f 117/3/1 105/3/1 116/3/1
f 118/3/1 109/3/1 108/3/1
f 119/3/1 109/3/1 118/3/1
f 120/2/1 111/2/1 110/2/1
f 121/2/1 111/2/1 120/2/1
f 122/3/1 115/3/1 114/3/1
f 122/3/1 116/3/1 115/3/1
f 123/3/1 116/3/1 122/3/1
f 124/3/1 116/3/1 123/3/1
f 125/1/1 122/1/1 121/1/1
f 126/2/1 123/2/1 122/2/1
f 126/1/1 122/1/1 125/1/1
f 127/2/1 123/2/1 126/2/1
f 128/5/1 120/5/1 119/5/1
f 129/5/1 128/5/1 119/5/1
f 130/5/1 128/5/1 129/5/1
f 133/1/1 132/1/1 131/1/1
f 134/1/1 132/1/1 133/1/1
f 136/2/1 135/2/1 134/2/1
f 137/2/1 135/2/1 136/2/1
f 140/4/1 139/4/1 138/4/1
f 141/4/1 139/4/1 140/4/1
f 146/3/1 143/3/1 142/3/1
f 147/4/1 144/4/1 143/4/1
f 147/3/1 143/3/1 146/3/1
f 148/4/1 144/4/1 147/4/1
f 149/4/1 144/4/1 148/4/1
f 150/4/1 144/4/1 149/4/1
f 151/3/1 146/3/1 145/3/1
f 151/3/1 147/3/1 146/3/1
f 152/3/1 147/3/1 151/3/1
f 153/3/1 151/3/1 145/3/1
f 157/1/1 156/1/1 155/1/1
f 158/1/1 156/1/1 157/1/1
f 159/3/1 154/3/1 153/3/1
f 159/3/1 153/3/1 145/3/1
f 160/3/1 154/3/1 159/3/1
f 161/3/1 154/3/1 160/3/1
f 163/3/1 161/3/1 160/3/1
f 164/4/1 162/4/1 161/4/1
f 164/3/1 161/3/1 163/3/1
f 165/4/1 162/4/1 164/4/1
f 168/5/1 167/5/1 166/5/1
f 169/5/1 167/5/1 168/5/1
f 172/4/1 171/4/1 170/4/1
f 173/4/1 171/4/1 172/4/1
f 178/4/1 175/4/1 174/4/1
f 178/4/1 177/4/1 176/4/1
f 178/4/1 176/4/1 175/4/1
f 179/4/1 177/4/1 178/4/1
f 182/4/1 181/4/1 180/4/1
f 183/4/1 181/4/1 182/4/1
f 187/5/1 185/5/1 184/5/1
f 188/5/1 185/5/1 187/5/1
f 189/5/1 185/5/1 188/5/1
f 190/5/1 187/5/1 186/5/1
f 190/5/1 188/5/1 187/5/1
f 194/5/1 193/5/1 192/5/1
f 195/5/1 193/5/1 194/5/1
f 196/5/1 190/5/1 186/5/1
f 197/5/1 190/5/1 196/5/1
f 198/4/1 191/4/1 190/4/1
f 199/5/1 194/5/1 192/5/1
f 200/5/1 194/5/1 199/5/1
f 201/5/1 190/5/1 197/5/1
f 201/4/1 198/4/1 190/4/1
f 201/4/1 199/4/1 198/4/1
f 202/4/1 199/4/1 201/4/1
f 203/5/1 201/5/1 197/5/1
f 204/5/1 201/5/1 203/5/1
f 205/4/1 199/4/1 202/4/1
f 206/5/1 205/5/1 204/5/1
f 207/4/1 199/4/1 205/4/1
f 207/5/1 205/5/1 206/5/1
f 208/4/1 199/4/1 207/4/1
f 211/5/1 210/5/1 209/5/1
f 212/5/1 210/5/1 211/5/1
f 213/5/2 214/5/2 215/5/2
f 215/5/2 214/5/2 216/5/2
f 217/4/2 218/4/2 219/4/2
f 219/4/2 218/4/2 220/4/2
f 221/5/2 222/5/2 224/5/2
f 224/5/2 222/5/2 225/5/2
f 225/5/2 222/5/2 226/5/2
f 223/5/2 224/5/2 227/5/2
f 224/5/2 225/5/2 227/5/2
f 229/5/2 230/5/2 231/5/2
f 231/5/2 230/5/2 232/5/2
f 223/5/2 227/5/2 233/5/2
f 233/5/2 227/5/2 234/5/2
f 227/4/2 228/4/2 235/4/2
f 229/5/2 231/5/2 236/5/2
f 236/5/2 231/5/2 237/5/2
f 234/5/2 227/5/2 238/5/2
f 227/4/2 235/4/2 238/4/2
f 235/4/2 236/4/2 238/4/2
f 238/4/2 236/4/2 239/4/2
f 234/5/2 238/5/2 240/5/2
f 240/5/2 238/5/2 241/5/2
f 239/4/2 236/4/2 242/4/2
f 241/5/2 242/5/2 243/5/2
f 242/4/2 236/4/2 244/4/2
f 243/5/2 242/5/2 244/5/2
f 244/4/2 236/4/2 245/4/2
f 246/5/2 247/5/2 248/5/2
f 248/5/2 247/5/2 249/5/2
f 250/4/2 251/4/2 252/4/2
f 252/4/2 251/4/2 253/4/2
f 253/4/2 251/4/2 254/4/2
f 254/4/2 251/4/2 255/4/2
f 256/4/2 257/4/2 258/4/2
f 258/4/2 257/4/2 259/4/2
f 260/4/2 261/4/2 262/4/2
f 262/4/2 261/4/2 263/4/2
f 264/3/2 265/3/2 268/3/2
f 265/4/2 266/4/2 269/4/2
f 268/3/2 265/3/2 269/3/2
f 269/4/2 266/4/2 270/4/2
f 267/3/2 268/3/2 273/3/2
f 268/3/2 269/3/2 273/3/2
f 273/3/2 269/3/2 274/3/2
f 271/1/2 272/1/2 275/1/2
f 275/1/2 272/1/2 276/1/2
f 267/3/2 273/3/2 277/3/2
f 267/3/2 277/3/2 279/3/2
f 277/3/2 278/3/2 279/3/2
f 279/3/2 278/3/2 280/3/2
f 280/3/2 278/3/2 281/3/2
f 280/3/2 281/3/2 285/3/2
f 282/4/2 283/4/2 286/4/2
f 285/3/2 281/3/2 286/3/2
f 283/4/2 284/4/2 286/4/2
f 281/4/2 282/4/2 286/4/2
f 286/4/2 284/4/2 287/4/2
f 288/2/2 289/2/2 291/2/2
f 291/2/2 289/2/2 292/2/2
f 290/1/2 291/1/2 293/1/2
f 293/1/2 291/1/2 294/1/2
f 295/4/2 296/4/2 297/4/2
f 297/4/2 296/4/2 298/4/2
f 299/5/2 300/5/2 301/5/2
f 302/3/2 303/3/2 306/3/2
f 299/5/2 301/5/2 308/5/2
f 308/5/2 301/5/2 309/5/2
f 304/1/2 305/1/2 310/1/2
f 305/2/2 306/2/2 311/2/2
f 310/1/2 305/1/2 311/1/2
f 306/3/2 303/3/2 312/3/2
f 311/2/2 306/2/2 312/2/2
f 311/3/2 312/3/2 313/3/2
f 312/3/2 303/3/2 314/3/2
f 313/3/2 312/3/2 314/3/2
f 314/3/2 303/3/2 315/3/2
f 315/3/2 303/3/2 316/3/2
f 307/3/2 308/3/2 317/3/2
f 317/3/2 308/3/2 318/3/2
f 309/2/2 310/2/2 319/2/2
f 319/2/2 310/2/2 320/2/2
f 314/3/2 315/3/2 322/3/2
f 322/3/2 315/3/2 323/3/2
f 320/1/2 321/1/2 324/1/2
f 324/1/2 321/1/2 325/1/2
f 318/5/2 319/5/2 326/5/2
f 318/5/2 326/5/2 327/5/2
f 327/5/2 326/5/2 328/5/2
f 329/1/2 330/1/2 331/1/2
f 331/1/2 330/1/2 332/1/2
f 333/1/2 334/1/2 335/1/2
f 335/1/2 334/1/2 336/1/2
f 336/2/2 337/2/2 338/2/2
f 338/2/2 337/2/2 339/2/2
f 340/4/2 341/4/2 342/4/2
f 342/4/2 341/4/2 343/4/2
f 344/4/2 345/4/2 346/4/2
f 346/4/2 345/4/2 347/4/2
f 348/3/2 349/3/2 351/3/2
f 351/3/2 349/3/2 352/3/2
f 350/3/2 351/3/2 352/3/2
f 350/3/2 352/3/2 353/3/2
f 353/3/2 352/3/2 354/3/2
f 350/3/2 353/3/2 357/3/2
f 357/3/2 358/3/2 359/3/2
f 355/1/2 356/1/2 360/1/2
f 360/1/2 356/1/2 361/1/2
f 357/3/2 359/3/2 362/3/2
f 350/3/2 357/3/2 362/3/2
f 362/3/2 359/3/2 363/3/2
f 363/3/2 359/3/2 364/3/2
f 364/3/2 359/3/2 365/3/2
f 366/4/2 367/4/2 368/4/2
f 368/4/2 367/4/2 369/4/2
f 370/4/2 371/4/2 372/4/2
f 372/4/2 371/4/2 373/4/2
f 374/5/2 375/5/2 377/5/2
f 377/5/2 375/5/2 378/5/2
f 378/5/2 375/5/2 379/5/2
f 376/5/2 377/5/2 380/5/2
f 377/5/2 378/5/2 380/5/2
f 382/5/2 383/5/2 384/5/2
f 384/5/2 383/5/2 385/5/2
f 376/5/2 380/5/2 386/5/2
f 386/5/2 380/5/2 387/5/2
f 380/4/2 381/4/2 388/4/2
f 382/5/2 384/5/2 390/5/2
f 390/5/2 384/5/2 391/5/2
f 387/5/2 380/5/2 392/5/2
f 388/4/2 389/4/2 392/4/2
f 380/4/2 388/4/2 392/4/2
f 392/4/2 389/4/2 393/4/2
f 393/4/2 389/4/2 394/4/2
f 387/5/2 392/5/2 396/5/2
f 392/5/2 393/5/2 396/5/2
f 396/5/2 393/5/2 397/5/2
f 394/4/2 395/4/2 398/4/2
f 397/5/2 393/5/2 400/5/2
f 398/4/2 399/4/2 401/4/2
f 400/5/2 393/5/2 401/5/2
f 393/4/2 394/4/2 401/4/2
f 394/4/2 398/4/2 401/4/2
f 401/4/2 399/4/2 402/4/2
f 403/5/2 404/5/2 405/5/2
f 405/5/2 404/5/2 406/5/2
f 403/5/2 405/5/2 407/5/2
f 405/4/2 406/4/2 408/4/2
f 407/5/2 405/5/2 408/5/2
f 406/5/2 404/5/2 409/5/2
f 408/4/2 406/4/2 409/4/2
f 409/5/2 404/5/2 410/5/2
f 410/5/2 404/5/2 413/5/2
f 413/5/2 404/5/2 414/5/2
f 411/5/2 412/5/2 415/5/2
f 415/5/2 412/5/2 416/5/2
f 416/5/2 412/5/2 417/5/2
f 417/5/2 412/5/2 418/5/2
f 418/5/2 412/5/2 419/5/2
f 419/5/2 412/5/2 420/5/2
f 421/5/2 422/5/2 423/5/2
f 423/5/2 422/5/2 424/5/2
f 427/5/3 426/5/3 425/5/3
f 428/5/3 426/5/3 427/5/3
f 431/5/3 430/5/3 429/5/3
f 432/5/3 430/5/3 431/5/3
f 437/5/3 434/5/3 433/5/3
f 438/5/3 434/5/3 437/5/3
f 439/5/3 436/5/3 435/5/3
f 440/5/3 436/5/3 439/5/3
f 443/3/3 442/3/3 441/3/3
f 444/3/3 442/3/3 443/3/3
f 447/3/3 446/3/3 445/3/3
f 448/3/3 446/3/3 447/3/3
f 451/3/3 450/3/3 449/3/3
f 452/3/3 450/3/3 451/3/3
f 457/5/3 454/5/3 453/5/3
f 458/5/3 454/5/3 457/5/3
f 459/5/3 456/5/3 455/5/3
f 460/5/3 456/5/3 459/5/3
f 463/5/3 462/5/3 461/5/3
f 464/5/3 462/5/3 463/5/3
f 470/5/3 466/5/3 465/5/3
f 471/5/3 466/5/3 470/5/3
f 472/5/3 468/5/3 467/5/3
f 473/5/3 468/5/3 472/5/3
f 475/2/3 470/2/3 469/2/3
f 476/2/3 470/2/3 475/2/3
f 479/3/3 474/3/3 473/3/3
f 480/3/3 474/3/3 479/3/3
f 483/3/3 478/3/3 477/3/3
f 484/3/3 478/3/3 483/3/3
f 486/2/3 482/2/3 481/2/3
f 487/2/3 482/2/3 486/2/3
f 489/5/3 486/5/3 485/5/3
f 490/5/3 486/5/3 489/5/3
f 491/5/3 488/5/3 487/5/3
f 492/5/3 488/5/3 491/5/3
f 495/2/3 491/2/3 490/2/3
f 496/2/3 491/2/3 495/2/3
f 500/3/3 494/3/3 493/3/3
f 501/3/3 494/3/3 500/3/3
f 504/3/3 498/3/3 497/3/3
f 505/3/3 498/3/3 504/3/3
f 506/5/3 500/5/3 499/5/3
f 507/5/3 500/5/3 506/5/3
f 508/2/3 503/2/3 502/2/3
f 509/2/3 503/2/3 508/2/3
f 513/5/3 510/5/3 509/5/3
f 514/5/3 510/5/3 513/5/3
f 515/5/3 512/5/3 511/5/3
f 516/5/3 512/5/3 515/5/3
f 521/5/3 518/5/3 517/5/3
f 522/5/3 518/5/3 521/5/3
f 523/5/3 520/5/3 519/5/3
f 524/5/3 520/5/3 523/5/3
f 525/5/3 521/5/3 517/5/3
f 531/4/3 526/4/3 525/4/3
f 532/4/3 528/4/3 527/4/3
f 533/4/3 528/4/3 532/4/3
f 534/4/3 530/4/3 529/4/3
f 535/4/3 530/4/3 534/4/3
f 536/4/3 531/4/3 525/4/3
f 536/5/3 532/5/3 531/5/3
f 537/5/3 532/5/3 536/5/3
f 540/4/3 537/4/3 536/4/3
f 540/4/3 536/4/3 525/4/3
f 541/4/3 537/4/3 540/4/3
f 542/4/3 539/4/3 538/4/3
f 543/4/3 539/4/3 542/4/3
f 544/4/3 540/4/3 525/4/3
f 548/4/3 544/4/3 525/4/3
f 548/4/3 545/4/3 544/4/3
f 549/4/3 545/4/3 548/4/3
f 550/4/3 547/4/3 546/4/3
f 551/4/3 547/4/3 550/4/3
f 552/5/3 549/5/3 548/5/3
f 552/4/3 548/4/3 525/4/3
f 553/5/3 549/5/3 552/5/3
f 557/5/3 525/5/3 517/5/3
f 557/4/3 552/4/3 525/4/3
f 558/4/3 552/4/3 557/4/3
f 559/4/3 554/4/3 553/4/3
f 560/4/3 554/4/3 559/4/3
f 561/4/3 556/4/3 555/4/3
f 562/4/3 556/4/3 561/4/3
f 563/5/3 557/5/3 517/5/3
f 567/5/3 563/5/3 517/5/3
f 567/5/3 564/5/3 563/5/3
f 568/5/3 564/5/3 567/5/3
f 569/5/3 566/5/3 565/5/3
f 570/5/3 566/5/3 569/5/3
f 575/5/3 572/5/3 571/5/3
f 576/5/3 572/5/3 575/5/3
f 579/1/3 578/1/3 577/1/3
f 580/1/3 578/1/3 579/1/3
f 581/1/3 578/1/3 580/1/3
f 586/1/3 581/1/3 580/1/3
f 586/1/3 582/1/3 581/1/3
f 587/1/3 582/1/3 586/1/3
f 588/1/3 584/1/3 583/1/3
f 590/1/3 586/1/3 585/1/3
f 591/1/3 588/1/3 587/1/3
f 591/1/3 584/1/3 588/1/3
f 592/1/3 584/1/3 591/1/3
f 593/1/3 590/1/3 589/1/3
f 593/1/3 586/1/3 590/1/3
f 594/1/3 586/1/3 593/1/3
f 595/1/3 591/1/3 587/1/3
f 596/1/3 591/1/3 595/1/3
f 597/1/3 593/1/3 589/1/3
f 598/1/3 593/1/3 597/1/3
f 599/1/3 595/1/3 594/1/3
f 600/1/3 595/1/3 599/1/3
f 601/1/3 595/1/3 600/1/3
f 603/1/3 602/1/3 601/1/3
f 603/1/3 601/1/3 600/1/3
f 604/1/3 602/1/3 603/1/3
f 605/4/3 574/4/3 573/4/3
f 606/4/3 574/4/3 605/4/3
f 609/5/3 608/5/3 607/5/3
f 610/5/3 608/5/3 609/5/3
f 613/5/3 612/5/3 611/5/3
f 614/5/3 612/5/3 613/5/3
f 617/5/3 616/5/3 615/5/3
f 618/5/3 616/5/3 617/5/3
f 621/3/3 620/3/3 619/3/3
f 622/3/3 620/3/3 621/3/3
f 623/3/3 621/3/3 619/3/3
f 624/3/3 621/3/3 623/3/3
f 625/2/4 626/2/4 629/2/4
f 629/2/4 626/2/4 630/2/4
f 627/3/4 628/3/4 633/3/4
f 631/3/4 632/3/4 633/3/4
f 630/3/4 631/3/4 633/3/4
f 629/3/4 630/3/4 633/3/4
f 628/3/4 629/3/4 633/3/4
f 633/3/4 632/3/4 634/3/4
f 634/3/4 632/3/4 635/3/4
f 635/3/4 632/3/4 636/3/4
f 634/2/4 635/2/4 638/2/4
f 638/2/4 635/2/4 639/2/4
f 637/5/4 638/5/4 641/5/4
f 641/5/4 638/5/4 642/5/4
f 639/5/4 640/5/4 643/5/4
f 643/5/4 640/5/4 644/5/4
f 642/2/4 643/2/4 646/2/4
f 646/2/4 643/2/4 647/2/4
f 645/3/4 646/3/4 649/3/4
f 647/3/4 648/3/4 649/3/4
f 646/3/4 647/3/4 649/3/4
f 649/3/4 648/3/4 650/3/4
f 650/3/4 648/3/4 651/3/4
f 651/3/4 648/3/4 652/3/4
f 652/3/4 648/3/4 653/3/4
f 653/3/4 648/3/4 654/3/4
f 651/2/4 652/2/4 655/2/4
f 655/2/4 652/2/4 656/2/4
f 657/4/4 658/4/4 659/4/4
f 659/4/4 658/4/4 660/4/4
f 661/1/4 662/1/4 665/1/4
f 665/1/4 662/1/4 666/1/4
f 666/1/4 662/1/4 667/1/4
f 663/4/4 664/4/4 671/4/4
f 671/4/4 664/4/4 672/4/4
f 667/1/4 668/1/4 675/1/4
f 675/1/4 668/1/4 676/1/4
f 669/1/4 670/1/4 677/1/4
f 673/1/4 674/1/4 679/1/4
f 679/1/4 674/1/4 680/1/4
f 677/1/4 670/1/4 682/1/4
f 682/1/4 670/1/4 683/1/4
f 678/1/4 679/1/4 686/1/4
f 681/1/4 682/1/4 689/1/4
f 689/1/4 682/1/4 690/1/4
f 684/4/4 685/4/4 691/4/4
f 691/4/4 685/4/4 692/4/4
f 678/1/4 686/1/4 693/1/4
f 693/1/4 686/1/4 694/1/4
f 687/1/4 688/1/4 695/1/4
f 695/1/4 688/1/4 696/1/4
f 697/1/4 698/1/4 701/1/4
f 696/1/4 697/1/4 701/1/4
f 701/1/4 698/1/4 702/1/4
f 699/4/4 700/4/4 703/4/4
f 703/4/4 700/4/4 704/4/4
f 705/5/4 706/5/4 707/5/4
f 707/5/4 706/5/4 708/5/4
f 708/5/4 706/5/4 709/5/4
f 709/4/4 710/4/4 712/4/4
f 708/4/4 709/4/4 712/4/4
f 712/4/4 710/4/4 713/4/4
f 711/4/4 712/4/4 715/4/4
f 715/4/4 712/4/4 716/4/4
f 713/4/4 714/4/4 717/4/4
f 717/4/4 714/4/4 718/4/4
f 711/4/4 715/4/4 719/4/4
f 719/4/4 715/4/4 720/4/4
f 718/4/4 714/4/4 723/4/4
f 723/4/4 714/4/4 724/4/4
f 721/2/4 722/2/4 726/2/4
f 726/2/4 722/2/4 727/2/4
f 728/2/4 729/2/4 730/2/4
f 730/2/4 729/2/4 731/2/4
f 732/2/4 733/2/4 736/2/4
f 736/2/4 733/2/4 737/2/4
f 724/4/4 725/4/4 739/4/4
f 739/4/4 725/4/4 740/4/4
f 734/4/4 735/4/4 741/4/4
f 738/4/4 739/4/4 744/4/4
f 741/4/4 742/4/4 745/4/4
f 734/4/4 741/4/4 745/4/4
f 745/4/4 742/4/4 746/4/4
f 743/4/4 744/4/4 747/4/4
f 744/4/4 739/4/4 748/4/4
f 747/4/4 744/4/4 748/4/4
f 746/4/4 747/4/4 750/4/4
f 750/4/4 747/4/4 751/4/4
f 751/4/4 747/4/4 752/4/4
f 749/5/4 750/5/4 753/5/4
f 750/5/4 751/5/4 753/5/4
f 753/5/4 751/5/4 754/5/4
f 755/5/4 756/5/4 757/5/4
f 757/5/4 756/5/4 758/5/4
f 759/3/4 760/3/4 761/3/4
f 761/3/4 760/3/4 762/3/4
f 763/5/4 764/5/4 765/5/4
f 765/5/4 764/5/4 766/5/4
f 767/5/4 768/5/4 769/5/4
f 769/5/4 768/5/4 770/5/4
f 771/5/4 772/5/4 774/5/4
f 772/5/4 773/5/4 774/5/4
f 774/5/4 773/5/4 775/5/4
f 771/5/4 774/5/4 776/5/4
f 776/5/4 774/5/4 777/5/4
f 776/3/4 777/3/4 779/3/4
f 777/3/4 778/3/4 779/3/4
f 779/3/4 778/3/4 780/3/4
f 780/3/4 778/3/4 781/3/4
f 779/5/4 780/5/4 782/5/4
f 779/5/4 782/5/4 784/5/4
f 782/5/4 783/5/4 784/5/4
f 784/5/4 783/5/4 785/5/4
f 785/5/4 783/5/4 786/5/4
f 787/5/4 788/5/4 789/5/4
f 789/5/4 788/5/4 790/5/4
f 791/5/4 792/5/4 794/5/4
f 794/5/4 792/5/4 795/5/4
f 795/5/4 792/5/4 796/5/4
f 793/4/4 794/4/4 797/4/4
f 794/5/4 795/5/4 798/5/4
f 797/4/4 794/4/4 798/4/4
f 798/5/4 795/5/4 800/5/4
f 799/4/4 800/4/4 801/4/4
f 800/5/4 795/5/4 802/5/4
f 801/4/4 800/4/4 802/4/4
f 802/5/4 795/5/4 804/5/4
f 803/4/4 804/4/4 805/4/4
f 804/5/4 795/5/4 806/5/4
f 805/4/4 804/4/4 806/4/4
f 806/5/4 795/5/4 808/5/4
f 807/4/4 808/4/4 809/4/4
f 808/5/4 795/5/4 810/5/4
f 809/4/4 808/4/4 810/4/4
f 810/5/4 795/5/4 812/5/4
f 811/4/4 812/4/4 813/4/4
f 812/5/4 795/5/4 814/5/4
f 813/4/4 812/4/4 814/4/4
f 814/5/4 795/5/4 815/5/4
f 815/5/4 816/5/4 817/5/4
f 814/5/4 815/5/4 817/5/4
f 817/5/4 816/5/4 818/5/4
f 821/4/5 820/4/5 819/4/5
f 822/4/5 820/4/5 821/4/5
f 823/4/5 820/4/5 822/4/5
f 824/4/5 820/4/5 823/4/5
f 825/4/5 820/4/5 824/4/5
f 826/4/5 820/4/5 825/4/5
f 827/4/5 820/4/5 826/4/5
f 828/4/5 820/4/5 827/4/5
f 829/4/5 821/4/5 819/4/5
f 830/4/5 821/4/5 829/4/5
f 831/4/5 823/4/5 822/4/5
f 832/4/5 823/4/5 831/4/5
f 833/4/5 825/4/5 824/4/5
f 834/4/5 825/4/5 833/4/5
f 835/4/5 827/4/5 826/4/5
f 836/4/5 827/4/5 835/4/5
f 837/4/5 820/4/5 828/4/5
f 838/4/5 820/4/5 837/4/5
f 841/5/5 840/5/5 839/5/5
f 842/5/5 840/5/5 841/5/5
f 851/5/5 841/5/5 839/5/5
f 852/5/5 841/5/5 851/5/5
f 853/5/5 844/5/5 843/5/5
f 854/5/5 844/5/5 853/5/5
f 855/5/5 846/5/5 845/5/5
f 856/5/5 846/5/5 855/5/5
f 857/5/5 848/5/5 847/5/5
f 858/5/5 848/5/5 857/5/5
f 859/5/5 850/5/5 849/5/5
f 860/5/5 850/5/5 859/5/5
f 861/5/5 840/5/5 842/5/5
f 862/5/5 840/5/5 861/5/5
f 867/5/5 864/5/5 863/5/5
f 868/5/5 864/5/5 867/5/5
f 869/5/5 866/5/5 865/5/5
f 870/5/5 866/5/5 869/5/5
f 875/5/5 872/5/5 871/5/5
f 876/5/5 872/5/5 875/5/5
f 877/5/5 874/5/5 873/5/5
f 878/5/5 874/5/5 877/5/5
f 889/5/5 880/5/5 879/5/5
f 890/5/5 880/5/5 889/5/5
f 891/5/5 882/5/5 881/5/5
f 892/5/5 882/5/5 891/5/5
f 893/5/5 884/5/5 883/5/5
f 894/5/5 884/5/5 893/5/5
f 895/5/5 886/5/5 885/5/5
f 896/5/5 886/5/5 895/5/5
f 897/5/5 888/5/5 887/5/5
f 898/5/5 888/5/5 897/5/5
f 899/5/5 889/5/5 879/5/5
f 900/5/5 888/5/5 898/5/5
f 901/5/5 899/5/5 879/5/5
f 902/5/5 888/5/5 900/5/5
f 903/5/5 901/5/5 879/5/5
f 904/5/5 901/5/5 903/5/5
f 905/5/5 888/5/5 902/5/5
f 906/5/5 888/5/5 905/5/5
f 911/3/5 908/3/5 907/3/5
f 912/3/5 908/3/5 911/3/5
f 913/3/5 910/3/5 909/3/5
f 914/3/5 910/3/5 913/3/5
f 919/3/5 916/3/5 915/3/5
f 920/3/5 916/3/5 919/3/5
f 921/3/5 918/3/5 917/3/5
f 922/3/5 918/3/5 921/3/5
f 925/1/5 924/1/5 923/1/5
f 926/1/5 924/1/5 925/1/5
f 931/1/5 928/1/5 927/1/5
f 932/1/5 928/1/5 931/1/5
f 933/1/5 930/1/5 929/1/5
f 934/1/5 930/1/5 933/1/5
f 936/2/5 935/2/5 934/2/5
f 937/2/5 935/2/5 936/2/5
f 943/3/5 939/3/5 938/3/5
f 944/3/5 939/3/5 943/3/5
f 948/2/5 941/2/5 940/2/5
f 949/2/5 941/2/5 948/2/5
f 950/2/5 943/2/5 942/2/5
f 951/2/5 943/2/5 950/2/5
f 952/2/5 945/2/5 944/2/5
f 953/2/5 945/2/5 952/2/5
f 954/2/5 947/2/5 946/2/5
f 955/2/5 947/2/5 954/2/5
f 957/2/5 952/2/5 951/2/5
f 958/2/5 952/2/5 957/2/5
f 960/1/5 957/1/5 956/1/5
f 961/1/5 957/1/5 960/1/5
f 963/1/5 959/1/5 958/1/5
f 964/1/5 959/1/5 963/1/5
f 965/2/5 961/2/5 960/2/5
f 966/3/5 962/3/5 961/3/5
f 966/2/5 961/2/5 965/2/5
f 967/3/5 962/3/5 966/3/5
f 971/1/5 969/1/5 968/1/5
f 972/1/5 969/1/5 971/1/5
f 973/2/5 971/2/5 970/2/5
f 974/2/5 971/2/5 973/2/5
f 981/4/5 978/4/5 977/4/5
f 982/1/5 980/1/5 979/1/5
f 983/1/5 980/1/5 982/1/5
f 984/4/5 978/4/5 981/4/5
f 985/4/5 976/4/5 975/4/5
f 986/4/5 976/4/5 985/4/5
f 987/4/5 978/4/5 984/4/5
f 988/4/5 978/4/5 987/4/5
f 993/4/5 990/4/5 989/4/5
f 994/4/5 993/4/5 989/4/5
f 995/4/5 994/4/5 989/4/5
f 996/4/5 994/4/5 995/4/5
f 997/4/5 992/4/5 991/4/5
f 998/4/5 992/4/5 997/4/5
f 1003/4/5 1000/4/5 999/4/5
f 1003/4/5 1002/4/5 1001/4/5
f 1003/4/5 1001/4/5 1000/4/5
f 1004/4/5 1002/4/5 1003/4/5
f 1005/5/6 1006/5/6 1009/5/6
f 1007/5/6 1008/5/6 1009/5/6
f 1006/5/6 1007/5/6 1009/5/6
f 1009/5/6 1008/5/6 1010/5/6
f 1011/5/6 1012/5/6 1019/5/6
f 1019/5/6 1012/5/6 1020/5/6
f 1013/5/6 1014/5/6 1021/5/6
f 1021/5/6 1014/5/6 1022/5/6
f 1015/5/6 1016/5/6 1027/5/6
f 1027/5/6 1016/5/6 1028/5/6
f 1017/5/6 1018/5/6 1029/5/6
f 1029/5/6 1018/5/6 1030/5/6
f 1011/5/6 1019/5/6 1031/5/6
f 1025/4/6 1026/4/6 1034/4/6
f 1024/4/6 1025/4/6 1034/4/6
f 1023/4/6 1024/4/6 1034/4/6
f 1034/4/6 1026/4/6 1035/4/6
f 1035/4/6 1026/4/6 1036/4/6
f 1036/4/6 1026/4/6 1037/4/6
f 1030/5/6 1018/5/6 1040/5/6
f 1031/5/6 1032/5/6 1041/5/6
f 1011/5/6 1031/5/6 1041/5/6
f 1041/5/6 1032/5/6 1042/5/6
f 1042/5/6 1032/5/6 1043/5/6
f 1033/5/6 1034/5/6 1044/5/6
f 1034/5/6 1035/5/6 1044/5/6
f 1044/5/6 1035/5/6 1045/5/6
f 1037/5/6 1038/5/6 1046/5/6
f 1036/5/6 1037/5/6 1046/5/6
f 1046/5/6 1038/5/6 1047/5/6
f 1039/5/6 1040/5/6 1048/5/6
f 1040/5/6 1018/5/6 1049/5/6
f 1048/5/6 1040/5/6 1049/5/6
f 1049/5/6 1018/5/6 1050/5/6
f 1042/5/6 1043/5/6 1051/5/6
f 1051/5/6 1043/5/6 1052/5/6
f 1048/5/6 1049/5/6 1053/5/6
f 1053/5/6 1049/5/6 1054/5/6
f 1057/4/6 1058/4/6 1059/4/6
f 1059/4/6 1058/4/6 1060/4/6
f 1055/4/6 1056/4/6 1061/4/6
f 1061/4/6 1056/4/6 1062/4/6
f 1060/4/6 1058/4/6 1063/4/6
f 1063/4/6 1058/4/6 1064/4/6
f 1065/5/6 1066/5/6 1069/5/6
f 1069/5/6 1066/5/6 1070/5/6
f 1067/5/6 1068/5/6 1071/5/6
f 1071/5/6 1068/5/6 1072/5/6
f 1073/5/6 1074/5/6 1077/5/6
f 1077/5/6 1074/5/6 1078/5/6
f 1075/5/6 1076/5/6 1079/5/6
f 1079/5/6 1076/5/6 1080/5/6
f 1081/5/6 1082/5/6 1089/5/6
f 1089/5/6 1082/5/6 1090/5/6
f 1083/4/6 1084/4/6 1091/4/6
f 1087/5/6 1088/5/6 1094/5/6
f 1094/5/6 1088/5/6 1095/5/6
f 1083/4/6 1091/4/6 1096/4/6
f 1092/1/6 1093/1/6 1097/1/6
f 1097/1/6 1093/1/6 1098/1/6
f 1083/4/6 1096/4/6 1100/4/6
f 1100/4/6 1096/4/6 1101/4/6
f 1085/4/6 1086/4/6 1102/4/6
f 1102/4/6 1086/4/6 1103/4/6
f 1099/5/6 1100/5/6 1105/5/6
f 1105/5/6 1100/5/6 1106/5/6
f 1103/5/6 1104/5/6 1107/5/6
f 1107/5/6 1104/5/6 1108/5/6
f 1109/5/6 1110/5/6 1115/5/6
f 1115/5/6 1110/5/6 1116/5/6
f 1111/1/6 1112/1/6 1117/1/6
f 1117/1/6 1112/1/6 1118/1/6
f 1113/5/6 1114/5/6 1120/5/6
f 1120/5/6 1114/5/6 1121/5/6
f 1118/2/6 1119/2/6 1122/2/6
f 1122/2/6 1119/2/6 1123/2/6
f 1124/3/6 1125/3/6 1126/3/6
f 1126/3/6 1125/3/6 1127/3/6
f 1128/5/6 1129/5/6 1134/5/6
f 1134/5/6 1129/5/6 1135/5/6
f 1130/3/6 1131/3/6 1138/3/6
f 1138/3/6 1131/3/6 1139/3/6
f 1132/5/6 1133/5/6 1142/5/6
f 1142/5/6 1133/5/6 1143/5/6
f 1135/2/6 1136/2/6 1144/2/6
f 1144/2/6 1136/2/6 1145/2/6
f 1137/2/6 1138/2/6 1146/2/6
f 1146/2/6 1138/2/6 1147/2/6
f 1139/2/6 1140/2/6 1148/2/6
f 1148/2/6 1140/2/6 1149/2/6
f 1141/2/6 1142/2/6 1150/2/6
f 1150/2/6 1142/2/6 1151/2/6
f 1147/2/6 1148/2/6 1153/2/6
f 1153/2/6 1148/2/6 1154/2/6
f 1152/1/6 1153/1/6 1158/1/6
f 1158/1/6 1153/1/6 1159/1/6
f 1154/1/6 1155/1/6 1161/1/6
f 1161/1/6 1155/1/6 1162/1/6
f 1156/5/6 1157/5/6 1165/5/6
f 1165/5/6 1157/5/6 1166/5/6
f 1160/3/6 1161/3/6 1168/3/6
f 1161/2/6 1162/2/6 1169/2/6
f 1168/3/6 1161/3/6 1169/3/6
f 1169/2/6 1162/2/6 1170/2/6
f 1163/5/6 1164/5/6 1171/5/6
f 1171/5/6 1164/5/6 1172/5/6
f 1167/3/6 1168/3/6 1173/3/6
f 1168/3/6 1169/3/6 1173/3/6
f 1173/3/6 1169/3/6 1174/3/6
f 1175/5/6 1176/5/6 1179/5/6
f 1179/5/6 1176/5/6 1180/5/6
f 1177/5/6 1178/5/6 1181/5/6
f 1181/5/6 1178/5/6 1182/5/6
f 1183/1/6 1184/1/6 1188/1/6
f 1188/1/6 1184/1/6 1189/1/6
f 1185/1/6 1186/1/6 1190/1/6
f 1190/1/6 1186/1/6 1191/1/6
f 1179/4/6 1180/4/6 1192/4/6
f 1192/4/6 1180/4/6 1193/4/6
f 1187/2/6 1188/2/6 1194/2/6
f 1194/2/6 1188/2/6 1195/2/6
f 1181/4/6 1182/4/6 1196/4/6
f 1196/4/6 1182/4/6 1197/4/6
f 1198/3/6 1199/3/6 1202/3/6
f 1202/3/6 1199/3/6 1203/3/6
f 1200/3/6 1201/3/6 1204/3/6
f 1204/3/6 1201/3/6 1205/3/6
f 1206/1/6 1207/1/6 1208/1/6
f 1208/1/6 1207/1/6 1209/1/6
f 1210/3/6 1211/3/6 1215/3/6
f 1215/3/6 1211/3/6 1216/3/6
f 1212/3/6 1213/3/6 1217/3/6
f 1217/3/6 1213/3/6 1218/3/6
f 1215/4/6 1216/4/6 1220/4/6
f 1214/4/6 1215/4/6 1220/4/6
f 1220/4/6 1216/4/6 1221/4/6
f 1218/4/6 1219/4/6 1222/4/6
f 1217/4/6 1218/4/6 1222/4/6
f 1222/4/6 1219/4/6 1223/4/6
f 1224/5/6 1225/5/6 1227/5/6
f 1227/5/6 1225/5/6 1228/5/6
f 1226/4/6 1227/4/6 1230/4/6
f 1228/4/6 1229/4/6 1230/4/6
f 1227/4/6 1228/4/6 1230/4/6
f 1230/4/6 1229/4/6 1231/4/6
