# MagicaVoxel @ Ephtracy

# group
o 

# material
mtllib Robot.vox-18.mtl
usemtl palette

# normals
vn -1 0 0
vn 1 0 0
vn 0 0 1
vn 0 0 -1
vn 0 -1 0
vn 0 1 0

# texcoords
vt 0.916016 0.5
vt 0.939453 0.5
vt 0.970703 0.5

# verts
v 6.8 0.1 2.1
v 6.8 0.1 1.7
v 6.8 0.2 2.1
v 6.8 0.2 1.7
v 6.8 0.3 2
v 6.8 0.3 1.9
v 6.8 0.7 2
v 6.8 0.7 1.9
v 6.8 0.8 2.1
v 6.8 0.8 1.7
v 6.8 0.9 2.1
v 6.8 0.9 1.7
v 6.9 0.1 2.2
v 6.9 0.1 2.1
v 6.9 0.1 1.7
v 6.9 0.1 1.6
v 6.9 0.2 2.1
v 6.9 0.2 1.7
v 6.9 0.3 2.2
v 6.9 0.3 2.1
v 6.9 0.3 1.7
v 6.9 0.3 1.6
v 6.9 0.7 2.2
v 6.9 0.7 2.1
v 6.9 0.7 1.7
v 6.9 0.7 1.6
v 6.9 0.8 2.1
v 6.9 0.8 1.7
v 6.9 0.9 2.2
v 6.9 0.9 2.1
v 6.9 0.9 1.7
v 6.9 0.9 1.6
v 7 0.1 2.3
v 7 0.1 2.2
v 7 0.1 1.6
v 7 0.1 1.5
v 7 0.2 2.3
v 7 0.2 2.2
v 7 0.2 1.6
v 7 0.2 1.5
v 7 0.3 2.2
v 7 0.3 1.6
v 7 0.7 2.2
v 7 0.7 1.6
v 7 0.8 2.3
v 7 0.8 2.2
v 7 0.8 1.6
v 7 0.8 1.5
v 7 0.9 2.3
v 7 0.9 2.2
v 7 0.9 1.6
v 7 0.9 1.5
v 7.4 0.1 2.3
v 7.4 0.1 2.2
v 7.4 0.1 1.6
v 7.4 0.1 1.5
v 7.4 0.2 2.3
v 7.4 0.2 2.2
v 7.4 0.2 1.6
v 7.4 0.2 1.5
v 7.4 0.3 2.2
v 7.4 0.3 1.6
v 7.4 0.7 2.2
v 7.4 0.7 1.6
v 7.4 0.8 2.3
v 7.4 0.8 2.2
v 7.4 0.8 1.6
v 7.4 0.8 1.5
v 7.4 0.9 2.3
v 7.4 0.9 2.2
v 7.4 0.9 1.6
v 7.4 0.9 1.5
v 7.5 0.1 2.2
v 7.5 0.1 2.1
v 7.5 0.1 1.7
v 7.5 0.1 1.6
v 7.5 0.2 2.1
v 7.5 0.2 1.7
v 7.5 0.3 2.2
v 7.5 0.3 2.1
v 7.5 0.3 1.7
v 7.5 0.3 1.6
v 7.5 0.7 2.2
v 7.5 0.7 2.1
v 7.5 0.7 1.7
v 7.5 0.7 1.6
v 7.5 0.8 2.1
v 7.5 0.8 1.7
v 7.5 0.9 2.2
v 7.5 0.9 2.1
v 7.5 0.9 1.7
v 7.5 0.9 1.6
v 7.6 0.1 2.1
v 7.6 0.1 1.7
v 7.6 0.2 2.1
v 7.6 0.2 1.7
v 7.6 0.3 2
v 7.6 0.3 1.9
v 7.6 0.7 2
v 7.6 0.7 1.9
v 7.6 0.8 2.1
v 7.6 0.8 1.7
v 7.6 0.9 2.1
v 7.6 0.9 1.7
v 7 0.1 2.3
v 7 0.2 2.3
v 7 0.8 2.3
v 7 0.9 2.3
v 7.1 0.3 2.3
v 7.1 0.7 2.3
v 7.2 0.3 2.3
v 7.2 0.7 2.3
v 7.4 0.1 2.3
v 7.4 0.2 2.3
v 7.4 0.8 2.3
v 7.4 0.9 2.3
v 6.9 0.1 2.2
v 6.9 0.3 2.2
v 6.9 0.7 2.2
v 6.9 0.9 2.2
v 7 0.1 2.2
v 7 0.2 2.2
v 7 0.3 2.2
v 7 0.7 2.2
v 7 0.8 2.2
v 7 0.9 2.2
v 7.4 0.1 2.2
v 7.4 0.2 2.2
v 7.4 0.3 2.2
v 7.4 0.7 2.2
v 7.4 0.8 2.2
v 7.4 0.9 2.2
v 7.5 0.1 2.2
v 7.5 0.3 2.2
v 7.5 0.7 2.2
v 7.5 0.9 2.2
v 6.8 0.1 2.1
v 6.8 0.2 2.1
v 6.8 0.8 2.1
v 6.8 0.9 2.1
v 6.9 0.1 2.1
v 6.9 0.2 2.1
v 6.9 0.3 2.1
v 6.9 0.7 2.1
v 6.9 0.8 2.1
v 6.9 0.9 2.1
v 7.5 0.1 2.1
v 7.5 0.2 2.1
v 7.5 0.3 2.1
v 7.5 0.7 2.1
v 7.5 0.8 2.1
v 7.5 0.9 2.1
v 7.6 0.1 2.1
v 7.6 0.2 2.1
v 7.6 0.8 2.1
v 7.6 0.9 2.1
v 6.8 0.1 1.7
v 6.8 0.2 1.7
v 6.8 0.8 1.7
v 6.8 0.9 1.7
v 6.9 0.1 1.7
v 6.9 0.2 1.7
v 6.9 0.3 1.7
v 6.9 0.7 1.7
v 6.9 0.8 1.7
v 6.9 0.9 1.7
v 7.5 0.1 1.7
v 7.5 0.2 1.7
v 7.5 0.3 1.7
v 7.5 0.7 1.7
v 7.5 0.8 1.7
v 7.5 0.9 1.7
v 7.6 0.1 1.7
v 7.6 0.2 1.7
v 7.6 0.8 1.7
v 7.6 0.9 1.7
v 6.9 0.1 1.6
v 6.9 0.3 1.6
v 6.9 0.7 1.6
v 6.9 0.9 1.6
v 7 0.1 1.6
v 7 0.2 1.6
v 7 0.3 1.6
v 7 0.7 1.6
v 7 0.8 1.6
v 7 0.9 1.6
v 7.4 0.1 1.6
v 7.4 0.2 1.6
v 7.4 0.3 1.6
v 7.4 0.7 1.6
v 7.4 0.8 1.6
v 7.4 0.9 1.6
v 7.5 0.1 1.6
v 7.5 0.3 1.6
v 7.5 0.7 1.6
v 7.5 0.9 1.6
v 7 0.1 1.5
v 7 0.2 1.5
v 7 0.8 1.5
v 7 0.9 1.5
v 7.1 0.3 1.5
v 7.1 0.7 1.5
v 7.2 0.3 1.5
v 7.2 0.7 1.5
v 7.4 0.1 1.5
v 7.4 0.2 1.5
v 7.4 0.8 1.5
v 7.4 0.9 1.5
v 7 0.1 2.3
v 7.4 0.1 2.3
v 6.9 0.1 2.2
v 7 0.1 2.2
v 7.4 0.1 2.2
v 7.5 0.1 2.2
v 6.8 0.1 2.1
v 6.9 0.1 2.1
v 7.5 0.1 2.1
v 7.6 0.1 2.1
v 6.8 0.1 1.7
v 6.9 0.1 1.7
v 7.5 0.1 1.7
v 7.6 0.1 1.7
v 6.9 0.1 1.6
v 7 0.1 1.6
v 7.4 0.1 1.6
v 7.5 0.1 1.6
v 7 0.1 1.5
v 7.4 0.1 1.5
v 7 0.9 2.3
v 7.4 0.9 2.3
v 6.9 0.9 2.2
v 7 0.9 2.2
v 7.1 0.9 2.2
v 7.3 0.9 2.2
v 7.4 0.9 2.2
v 7.5 0.9 2.2
v 6.8 0.9 2.1
v 6.9 0.9 2.1
v 7 0.9 2.1
v 7.1 0.9 2.1
v 7.3 0.9 2.1
v 7.4 0.9 2.1
v 7.5 0.9 2.1
v 7.6 0.9 2.1
v 6.9 0.9 2
v 7 0.9 2
v 7.2 0.9 2
v 7.3 0.9 2
v 7.4 0.9 2
v 7.5 0.9 2
v 7.1 0.9 1.9
v 7.2 0.9 1.9
v 7.3 0.9 1.9
v 6.9 0.9 1.8
v 7 0.9 1.8
v 7.1 0.9 1.8
v 7.2 0.9 1.8
v 7.4 0.9 1.8
v 7.5 0.9 1.8
v 6.8 0.9 1.7
v 6.9 0.9 1.7
v 7 0.9 1.7
v 7.1 0.9 1.7
v 7.3 0.9 1.7
v 7.4 0.9 1.7
v 7.5 0.9 1.7
v 7.6 0.9 1.7
v 6.9 0.9 1.6
v 7 0.9 1.6
v 7.1 0.9 1.6
v 7.3 0.9 1.6
v 7.4 0.9 1.6
v 7.5 0.9 1.6
v 7 0.9 1.5
v 7.4 0.9 1.5

# faces
f 3/1/1 2/1/1 1/1/1
f 4/1/1 2/1/1 3/1/1
f 5/3/1 4/3/1 3/3/1
f 6/3/1 4/3/1 5/3/1
f 7/3/1 5/3/1 3/3/1
f 7/2/1 6/2/1 5/2/1
f 8/3/1 4/3/1 6/3/1
f 8/2/1 6/2/1 7/2/1
f 9/3/1 7/3/1 3/3/1
f 9/3/1 8/3/1 7/3/1
f 10/3/1 4/3/1 8/3/1
f 10/3/1 8/3/1 9/3/1
f 11/1/1 10/1/1 9/1/1
f 12/1/1 10/1/1 11/1/1
f 17/1/1 14/1/1 13/1/1
f 18/1/1 16/1/1 15/1/1
f 19/1/1 17/1/1 13/1/1
f 20/1/1 17/1/1 19/1/1
f 21/1/1 16/1/1 18/1/1
f 22/1/1 16/1/1 21/1/1
f 23/3/1 20/3/1 19/3/1
f 24/3/1 20/3/1 23/3/1
f 25/3/1 22/3/1 21/3/1
f 26/3/1 22/3/1 25/3/1
f 27/1/1 24/1/1 23/1/1
f 28/1/1 26/1/1 25/1/1
f 29/1/1 27/1/1 23/1/1
f 30/1/1 27/1/1 29/1/1
f 31/1/1 26/1/1 28/1/1
f 32/1/1 26/1/1 31/1/1
f 37/1/1 34/1/1 33/1/1
f 38/1/1 34/1/1 37/1/1
f 39/1/1 36/1/1 35/1/1
f 40/1/1 36/1/1 39/1/1
f 41/3/1 38/3/1 37/3/1
f 42/3/1 40/3/1 39/3/1
f 43/3/1 41/3/1 37/3/1
f 44/3/1 40/3/1 42/3/1
f 45/3/1 43/3/1 37/3/1
f 46/3/1 43/3/1 45/3/1
f 47/3/1 40/3/1 44/3/1
f 48/3/1 40/3/1 47/3/1
f 49/1/1 46/1/1 45/1/1
f 50/1/1 46/1/1 49/1/1
f 51/1/1 48/1/1 47/1/1
f 52/1/1 48/1/1 51/1/1
f 53/1/2 54/1/2 57/1/2
f 57/1/2 54/1/2 58/1/2
f 55/1/2 56/1/2 59/1/2
f 59/1/2 56/1/2 60/1/2
f 57/3/2 58/3/2 61/3/2
f 59/3/2 60/3/2 62/3/2
f 57/3/2 61/3/2 63/3/2
f 62/3/2 60/3/2 64/3/2
f 57/3/2 63/3/2 65/3/2
f 65/3/2 63/3/2 66/3/2
f 64/3/2 60/3/2 67/3/2
f 67/3/2 60/3/2 68/3/2
f 65/1/2 66/1/2 69/1/2
f 69/1/2 66/1/2 70/1/2
f 67/1/2 68/1/2 71/1/2
f 71/1/2 68/1/2 72/1/2
f 73/1/2 74/1/2 77/1/2
f 75/1/2 76/1/2 78/1/2
f 73/1/2 77/1/2 79/1/2
f 79/1/2 77/1/2 80/1/2
f 78/1/2 76/1/2 81/1/2
f 81/1/2 76/1/2 82/1/2
f 79/3/2 80/3/2 83/3/2
f 83/3/2 80/3/2 84/3/2
f 81/3/2 82/3/2 85/3/2
f 85/3/2 82/3/2 86/3/2
f 83/1/2 84/1/2 87/1/2
f 85/1/2 86/1/2 88/1/2
f 83/1/2 87/1/2 89/1/2
f 89/1/2 87/1/2 90/1/2
f 88/1/2 86/1/2 91/1/2
f 91/1/2 86/1/2 92/1/2
f 93/1/2 94/1/2 95/1/2
f 95/1/2 94/1/2 96/1/2
f 95/3/2 96/3/2 97/3/2
f 97/3/2 96/3/2 98/3/2
f 95/3/2 97/3/2 99/3/2
f 97/2/2 98/2/2 99/2/2
f 98/3/2 96/3/2 100/3/2
f 99/2/2 98/2/2 100/2/2
f 95/3/2 99/3/2 101/3/2
f 99/3/2 100/3/2 101/3/2
f 100/3/2 96/3/2 102/3/2
f 101/3/2 100/3/2 102/3/2
f 101/1/2 102/1/2 103/1/2
f 103/1/2 102/1/2 104/1/2
f 109/3/3 107/3/3 106/3/3
f 110/3/3 107/3/3 109/3/3
f 111/3/3 109/3/3 106/3/3
f 111/2/3 110/2/3 109/2/3
f 112/3/3 107/3/3 110/3/3
f 112/2/3 110/2/3 111/2/3
f 113/1/3 106/1/3 105/1/3
f 114/3/3 111/3/3 106/3/3
f 114/1/3 106/1/3 113/1/3
f 114/3/3 112/3/3 111/3/3
f 115/3/3 107/3/3 112/3/3
f 115/3/3 112/3/3 114/3/3
f 115/1/3 108/1/3 107/1/3
f 116/1/3 108/1/3 115/1/3
f 121/1/3 118/1/3 117/1/3
f 122/1/3 118/1/3 121/1/3
f 123/3/3 119/3/3 118/3/3
f 123/1/3 118/1/3 122/1/3
f 124/1/3 120/1/3 119/1/3
f 124/3/3 119/3/3 123/3/3
f 125/1/3 120/1/3 124/1/3
f 126/1/3 120/1/3 125/1/3
f 133/1/3 128/1/3 127/1/3
f 133/1/3 129/1/3 128/1/3
f 134/3/3 130/3/3 129/3/3
f 134/1/3 129/1/3 133/1/3
f 135/1/3 132/1/3 131/1/3
f 135/3/3 130/3/3 134/3/3
f 135/1/3 131/1/3 130/1/3
f 136/1/3 132/1/3 135/1/3
f 141/1/3 138/1/3 137/1/3
f 142/3/3 139/3/3 138/3/3
f 142/1/3 138/1/3 141/1/3
f 143/3/3 139/3/3 142/3/3
f 144/3/3 139/3/3 143/3/3
f 145/1/3 140/1/3 139/1/3
f 145/3/3 139/3/3 144/3/3
f 146/1/3 140/1/3 145/1/3
f 153/1/3 148/1/3 147/1/3
f 154/3/3 149/3/3 148/3/3
f 154/1/3 148/1/3 153/1/3
f 154/3/3 150/3/3 149/3/3
f 154/3/3 151/3/3 150/3/3
f 155/1/3 152/1/3 151/1/3
f 155/3/3 151/3/3 154/3/3
f 156/1/3 152/1/3 155/1/3
f 157/1/4 158/1/4 161/1/4
f 158/3/4 159/3/4 162/3/4
f 161/1/4 158/1/4 162/1/4
f 162/3/4 159/3/4 163/3/4
f 163/3/4 159/3/4 164/3/4
f 159/1/4 160/1/4 165/1/4
f 164/3/4 159/3/4 165/3/4
f 165/1/4 160/1/4 166/1/4
f 167/1/4 168/1/4 173/1/4
f 168/3/4 169/3/4 174/3/4
f 173/1/4 168/1/4 174/1/4
f 169/3/4 170/3/4 174/3/4
f 170/3/4 171/3/4 174/3/4
f 171/1/4 172/1/4 175/1/4
f 174/3/4 171/3/4 175/3/4
f 175/1/4 172/1/4 176/1/4
f 177/1/4 178/1/4 181/1/4
f 181/1/4 178/1/4 182/1/4
f 178/3/4 179/3/4 183/3/4
f 182/1/4 178/1/4 183/1/4
f 179/1/4 180/1/4 184/1/4
f 183/3/4 179/3/4 184/3/4
f 184/1/4 180/1/4 185/1/4
f 185/1/4 180/1/4 186/1/4
f 187/1/4 188/1/4 193/1/4
f 188/1/4 189/1/4 193/1/4
f 189/3/4 190/3/4 194/3/4
f 193/1/4 189/1/4 194/1/4
f 191/1/4 192/1/4 195/1/4
f 194/3/4 190/3/4 195/3/4
f 190/1/4 191/1/4 195/1/4
f 195/1/4 192/1/4 196/1/4
f 198/3/4 199/3/4 201/3/4
f 201/3/4 199/3/4 202/3/4
f 198/3/4 201/3/4 203/3/4
f 201/2/4 202/2/4 203/2/4
f 202/3/4 199/3/4 204/3/4
f 203/2/4 202/2/4 204/2/4
f 197/1/4 198/1/4 205/1/4
f 198/3/4 203/3/4 206/3/4
f 205/1/4 198/1/4 206/1/4
f 203/3/4 204/3/4 206/3/4
f 204/3/4 199/3/4 207/3/4
f 206/3/4 204/3/4 207/3/4
f 199/1/4 200/1/4 207/1/4
f 207/1/4 200/1/4 208/1/4
f 212/1/5 210/1/5 209/1/5
f 213/1/5 210/1/5 212/1/5
f 216/1/5 212/1/5 211/1/5
f 216/1/5 214/1/5 213/1/5
f 216/1/5 213/1/5 212/1/5
f 217/1/5 214/1/5 216/1/5
f 219/1/5 216/1/5 215/1/5
f 219/1/5 218/1/5 217/1/5
f 219/1/5 217/1/5 216/1/5
f 220/1/5 218/1/5 219/1/5
f 221/1/5 218/1/5 220/1/5
f 222/1/5 218/1/5 221/1/5
f 223/1/5 221/1/5 220/1/5
f 224/1/5 221/1/5 223/1/5
f 225/1/5 221/1/5 224/1/5
f 226/1/5 221/1/5 225/1/5
f 227/1/5 225/1/5 224/1/5
f 228/1/5 225/1/5 227/1/5
f 229/1/6 230/1/6 232/1/6
f 232/1/6 230/1/6 233/1/6
f 233/1/6 230/1/6 234/1/6
f 234/1/6 230/1/6 235/1/6
f 231/1/6 232/1/6 238/1/6
f 232/1/6 233/1/6 238/1/6
f 238/1/6 233/1/6 239/1/6
f 233/3/6 234/3/6 240/3/6
f 239/1/6 233/1/6 240/1/6
f 235/1/6 236/1/6 241/1/6
f 240/3/6 234/3/6 241/3/6
f 234/1/6 235/1/6 241/1/6
f 241/1/6 236/1/6 242/1/6
f 242/1/6 236/1/6 243/1/6
f 237/1/6 238/1/6 245/1/6
f 238/1/6 239/1/6 245/1/6
f 239/3/6 240/3/6 246/3/6
f 245/1/6 239/1/6 246/1/6
f 240/3/6 241/3/6 246/3/6
f 241/3/6 242/3/6 246/3/6
f 246/3/6 242/3/6 247/3/6
f 247/3/6 242/3/6 248/3/6
f 243/1/6 244/1/6 249/1/6
f 248/3/6 242/3/6 249/3/6
f 242/1/6 243/1/6 249/1/6
f 249/1/6 244/1/6 250/1/6
f 246/3/6 247/3/6 251/3/6
f 245/3/6 246/3/6 251/3/6
f 247/1/6 248/1/6 252/1/6
f 251/3/6 247/3/6 252/3/6
f 249/3/6 250/3/6 253/3/6
f 252/1/6 248/1/6 253/1/6
f 248/3/6 249/3/6 253/3/6
f 237/1/6 245/1/6 254/1/6
f 245/3/6 251/3/6 254/3/6
f 254/3/6 251/3/6 255/3/6
f 251/1/6 252/1/6 256/1/6
f 255/3/6 251/3/6 256/3/6
f 252/3/6 253/3/6 257/3/6
f 256/1/6 252/1/6 257/1/6
f 253/3/6 250/3/6 258/3/6
f 257/3/6 253/3/6 258/3/6
f 250/1/6 244/1/6 259/1/6
f 258/3/6 250/3/6 259/3/6
f 254/1/6 255/1/6 260/1/6
f 237/1/6 254/1/6 260/1/6
f 260/1/6 255/1/6 261/1/6
f 256/3/6 257/3/6 262/3/6
f 261/1/6 255/1/6 262/1/6
f 255/3/6 256/3/6 262/3/6
f 257/3/6 258/3/6 262/3/6
f 262/3/6 258/3/6 263/3/6
f 263/3/6 258/3/6 264/3/6
f 258/1/6 259/1/6 265/1/6
f 264/3/6 258/3/6 265/3/6
f 259/1/6 244/1/6 266/1/6
f 265/1/6 259/1/6 266/1/6
f 266/1/6 244/1/6 267/1/6
f 261/1/6 262/1/6 268/1/6
f 262/1/6 263/1/6 268/1/6
f 268/1/6 263/1/6 269/1/6
f 263/3/6 264/3/6 270/3/6
f 269/1/6 263/1/6 270/1/6
f 264/1/6 265/1/6 271/1/6
f 270/3/6 264/3/6 271/3/6
f 265/1/6 266/1/6 271/1/6
f 271/1/6 266/1/6 272/1/6
f 272/1/6 266/1/6 273/1/6
f 269/1/6 270/1/6 274/1/6
f 271/1/6 272/1/6 274/1/6
f 270/1/6 271/1/6 274/1/6
f 274/1/6 272/1/6 275/1/6
