# MagicaVoxel @ Ephtracy

# group
o 

# material
mtllib Robot.vox-11.mtl
usemtl palette

# normals
vn -1 0 0
vn 1 0 0
vn 0 0 1
vn 0 0 -1
vn 0 -1 0
vn 0 1 0

# texcoords
vt 0.939453 0.5
vt 0.970703 0.5

# verts
v -8.2 0 0.7
v -8.2 0 0.6
v -8.2 0.4 0.7
v -8.2 0.4 0.6
v -8.2 1.2 0.7
v -8.2 1.2 0.6
v -8.2 1.6 0.7
v -8.2 1.6 0.6
v -8.1 0.1 0.8
v -8.1 0.1 0.7
v -8.1 0.3 0.8
v -8.1 0.3 0.7
v -8.1 0.4 0.7
v -8.1 1.2 0.7
v -8.1 1.3 0.8
v -8.1 1.3 0.7
v -8.1 1.5 0.8
v -8.1 1.5 0.7
v -6.7 0.1 0.8
v -6.7 0.1 0.7
v -6.7 0.3 0.8
v -6.7 0.3 0.7
v -6.7 0.4 0.7
v -6.7 1.2 0.7
v -6.7 1.3 0.8
v -6.7 1.3 0.7
v -6.7 1.5 0.8
v -6.7 1.5 0.7
v -6.6 0 0.7
v -6.6 0 0.6
v -6.6 0.4 0.7
v -6.6 0.4 0.6
v -6.6 1.2 0.7
v -6.6 1.2 0.6
v -6.6 1.6 0.7
v -6.6 1.6 0.6
v -8.1 0.1 0.8
v -8.1 0.3 0.8
v -8.1 1.3 0.8
v -8.1 1.5 0.8
v -8 0.2 0.8
v -8 0.3 0.8
v -8 1.3 0.8
v -8 1.4 0.8
v -7.9 0.1 0.8
v -7.9 0.2 0.8
v -7.9 1.4 0.8
v -7.9 1.5 0.8
v -6.9 0.1 0.8
v -6.9 0.2 0.8
v -6.9 1.4 0.8
v -6.9 1.5 0.8
v -6.8 0.2 0.8
v -6.8 0.3 0.8
v -6.8 1.3 0.8
v -6.8 1.4 0.8
v -6.7 0.1 0.8
v -6.7 0.3 0.8
v -6.7 1.3 0.8
v -6.7 1.5 0.8
v -8.2 0 0.7
v -8.2 0.4 0.7
v -8.2 1.2 0.7
v -8.2 1.6 0.7
v -8.1 0.1 0.7
v -8.1 0.3 0.7
v -8.1 0.4 0.7
v -8.1 1.2 0.7
v -8.1 1.3 0.7
v -8.1 1.5 0.7
v -7.9 0.1 0.7
v -7.9 1.5 0.7
v -7.8 0 0.7
v -7.8 0.1 0.7
v -7.8 1.5 0.7
v -7.8 1.6 0.7
v -7 0 0.7
v -7 0.1 0.7
v -7 1.5 0.7
v -7 1.6 0.7
v -6.9 0.1 0.7
v -6.9 1.5 0.7
v -6.7 0.1 0.7
v -6.7 0.3 0.7
v -6.7 0.4 0.7
v -6.7 1.2 0.7
v -6.7 1.3 0.7
v -6.7 1.5 0.7
v -6.6 0 0.7
v -6.6 0.4 0.7
v -6.6 1.2 0.7
v -6.6 1.6 0.7
v -8.2 0 0.6
v -8.2 0.4 0.6
v -8.2 1.2 0.6
v -8.2 1.6 0.6
v -8.1 0.1 0.6
v -8.1 0.4 0.6
v -8.1 1.2 0.6
v -8.1 1.5 0.6
v -7.8 0 0.6
v -7.8 0.1 0.6
v -7.8 1.5 0.6
v -7.8 1.6 0.6
v -7 0 0.6
v -7 0.1 0.6
v -7 1.5 0.6
v -7 1.6 0.6
v -6.7 0.1 0.6
v -6.7 0.4 0.6
v -6.7 1.2 0.6
v -6.7 1.5 0.6
v -6.6 0 0.6
v -6.6 0.4 0.6
v -6.6 1.2 0.6
v -6.6 1.6 0.6
v -8.2 0 0.7
v -7.8 0 0.7
v -7 0 0.7
v -6.6 0 0.7
v -8.2 0 0.6
v -7.8 0 0.6
v -7 0 0.6
v -6.6 0 0.6
v -8.1 0.1 0.8
v -7.9 0.1 0.8
v -6.9 0.1 0.8
v -6.7 0.1 0.8
v -8.1 0.1 0.7
v -7.9 0.1 0.7
v -7.8 0.1 0.7
v -7 0.1 0.7
v -6.9 0.1 0.7
v -6.7 0.1 0.7
v -8.1 1.5 0.8
v -7.9 1.5 0.8
v -6.9 1.5 0.8
v -6.7 1.5 0.8
v -8.1 1.5 0.7
v -7.9 1.5 0.7
v -7.8 1.5 0.7
v -7 1.5 0.7
v -6.9 1.5 0.7
v -6.7 1.5 0.7
v -8.2 1.6 0.7
v -7.8 1.6 0.7
v -7 1.6 0.7
v -6.6 1.6 0.7
v -8.2 1.6 0.6
v -7.8 1.6 0.6
v -7 1.6 0.6
v -6.6 1.6 0.6

# faces
f 3/1/1 2/1/1 1/1/1
f 4/1/1 2/1/1 3/1/1
f 5/2/1 4/2/1 3/2/1
f 6/2/1 4/2/1 5/2/1
f 7/1/1 6/1/1 5/1/1
f 8/1/1 6/1/1 7/1/1
f 11/1/1 10/1/1 9/1/1
f 12/1/1 10/1/1 11/1/1
f 13/2/1 12/2/1 11/2/1
f 14/2/1 13/2/1 11/2/1
f 15/2/1 14/2/1 11/2/1
f 16/2/1 14/2/1 15/2/1
f 17/1/1 16/1/1 15/1/1
f 18/1/1 16/1/1 17/1/1
f 19/1/2 20/1/2 21/1/2
f 21/1/2 20/1/2 22/1/2
f 21/2/2 22/2/2 23/2/2
f 21/2/2 23/2/2 24/2/2
f 21/2/2 24/2/2 25/2/2
f 25/2/2 24/2/2 26/2/2
f 25/1/2 26/1/2 27/1/2
f 27/1/2 26/1/2 28/1/2
f 29/1/2 30/1/2 31/1/2
f 31/1/2 30/1/2 32/1/2
f 31/2/2 32/2/2 33/2/2
f 33/2/2 32/2/2 34/2/2
f 33/1/2 34/1/2 35/1/2
f 35/1/2 34/1/2 36/1/2
f 41/1/3 38/1/3 37/1/3
f 42/2/3 39/2/3 38/2/3
f 42/1/3 38/1/3 41/1/3
f 43/1/3 40/1/3 39/1/3
f 43/2/3 39/2/3 42/2/3
f 44/1/3 40/1/3 43/1/3
f 45/1/3 41/1/3 37/1/3
f 46/2/3 42/2/3 41/2/3
f 46/1/3 41/1/3 45/1/3
f 46/2/3 43/2/3 42/2/3
f 46/2/3 44/2/3 43/2/3
f 47/1/3 40/1/3 44/1/3
f 47/2/3 44/2/3 46/2/3
f 48/1/3 40/1/3 47/1/3
f 49/2/3 46/2/3 45/2/3
f 49/2/3 47/2/3 46/2/3
f 49/2/3 48/2/3 47/2/3
f 50/2/3 48/2/3 49/2/3
f 51/2/3 48/2/3 50/2/3
f 52/2/3 48/2/3 51/2/3
f 53/1/3 50/1/3 49/1/3
f 53/2/3 51/2/3 50/2/3
f 54/2/3 51/2/3 53/2/3
f 55/2/3 51/2/3 54/2/3
f 56/1/3 52/1/3 51/1/3
f 56/2/3 51/2/3 55/2/3
f 57/1/3 53/1/3 49/1/3
f 57/1/3 54/1/3 53/1/3
f 58/2/3 55/2/3 54/2/3
f 58/1/3 54/1/3 57/1/3
f 59/1/3 56/1/3 55/1/3
f 59/2/3 55/2/3 58/2/3
f 60/1/3 52/1/3 56/1/3
f 60/1/3 56/1/3 59/1/3
f 65/1/3 62/1/3 61/1/3
f 66/1/3 62/1/3 65/1/3
f 67/2/3 63/2/3 62/2/3
f 67/1/3 62/1/3 66/1/3
f 68/1/3 64/1/3 63/1/3
f 68/2/3 63/2/3 67/2/3
f 69/1/3 64/1/3 68/1/3
f 70/1/3 64/1/3 69/1/3
f 71/1/3 65/1/3 61/1/3
f 72/1/3 64/1/3 70/1/3
f 73/1/3 71/1/3 61/1/3
f 74/1/3 71/1/3 73/1/3
f 75/1/3 64/1/3 72/1/3
f 76/1/3 64/1/3 75/1/3
f 77/2/3 74/2/3 73/2/3
f 78/2/3 74/2/3 77/2/3
f 79/2/3 76/2/3 75/2/3
f 80/2/3 76/2/3 79/2/3
f 81/1/3 78/1/3 77/1/3
f 82/1/3 80/1/3 79/1/3
f 83/1/3 81/1/3 77/1/3
f 88/1/3 80/1/3 82/1/3
f 89/1/3 83/1/3 77/1/3
f 89/1/3 84/1/3 83/1/3
f 89/1/3 85/1/3 84/1/3
f 90/2/3 86/2/3 85/2/3
f 90/1/3 85/1/3 89/1/3
f 91/1/3 87/1/3 86/1/3
f 91/2/3 86/2/3 90/2/3
f 91/1/3 88/1/3 87/1/3
f 92/1/3 80/1/3 88/1/3
f 92/1/3 88/1/3 91/1/3
f 93/1/4 94/1/4 97/1/4
f 94/2/4 95/2/4 98/2/4
f 97/1/4 94/1/4 98/1/4
f 95/1/4 96/1/4 99/1/4
f 98/2/4 95/2/4 99/2/4
f 99/1/4 96/1/4 100/1/4
f 93/1/4 97/1/4 101/1/4
f 97/2/4 98/2/4 102/2/4
f 101/1/4 97/1/4 102/1/4
f 98/2/4 99/2/4 102/2/4
f 99/2/4 100/2/4 102/2/4
f 100/1/4 96/1/4 103/1/4
f 102/2/4 100/2/4 103/2/4
f 103/1/4 96/1/4 104/1/4
f 101/2/4 102/2/4 105/2/4
f 102/2/4 103/2/4 105/2/4
f 103/2/4 104/2/4 105/2/4
f 105/2/4 104/2/4 106/2/4
f 106/2/4 104/2/4 107/2/4
f 107/2/4 104/2/4 108/2/4
f 105/1/4 106/1/4 109/1/4
f 106/2/4 107/2/4 109/2/4
f 109/2/4 107/2/4 110/2/4
f 110/2/4 107/2/4 111/2/4
f 107/1/4 108/1/4 112/1/4
f 111/2/4 107/2/4 112/2/4
f 105/1/4 109/1/4 113/1/4
f 109/1/4 110/1/4 113/1/4
f 110/2/4 111/2/4 114/2/4
f 113/1/4 110/1/4 114/1/4
f 111/1/4 112/1/4 115/1/4
f 114/2/4 111/2/4 115/2/4
f 112/1/4 108/1/4 116/1/4
f 115/1/4 112/1/4 116/1/4
f 121/1/5 118/1/5 117/1/5
f 122/2/5 119/2/5 118/2/5
f 122/1/5 118/1/5 121/1/5
f 123/1/5 120/1/5 119/1/5
f 123/2/5 119/2/5 122/2/5
f 124/1/5 120/1/5 123/1/5
f 129/1/5 126/1/5 125/1/5
f 130/2/5 127/2/5 126/2/5
f 130/1/5 126/1/5 129/1/5
f 131/2/5 127/2/5 130/2/5
f 132/2/5 127/2/5 131/2/5
f 133/1/5 128/1/5 127/1/5
f 133/2/5 127/2/5 132/2/5
f 134/1/5 128/1/5 133/1/5
f 135/1/6 136/1/6 139/1/6
f 136/2/6 137/2/6 140/2/6
f 139/1/6 136/1/6 140/1/6
f 140/2/6 137/2/6 141/2/6
f 141/2/6 137/2/6 142/2/6
f 137/1/6 138/1/6 143/1/6
f 142/2/6 137/2/6 143/2/6
f 143/1/6 138/1/6 144/1/6
f 145/1/6 146/1/6 149/1/6
f 146/2/6 147/2/6 150/2/6
f 149/1/6 146/1/6 150/1/6
f 147/1/6 148/1/6 151/1/6
f 150/2/6 147/2/6 151/2/6
f 151/1/6 148/1/6 152/1/6
