# MagicaVoxel @ Ephtracy

# group
o 

# material
mtllib Robot.vox-6.mtl
usemtl palette

# normals
vn -1 0 0
vn 1 0 0
vn 0 0 1
vn 0 0 -1
vn 0 -1 0
vn 0 1 0

# texcoords
vt 0.939453 0.5
vt 0.970703 0.5
vt 0.982422 0.5

# verts
v -7.8 0 1.7
v -7.8 0 1.6
v -7.8 0.1 1.8
v -7.8 0.1 1.7
v -7.8 0.1 1.6
v -7.8 1.5 1.8
v -7.8 1.5 1.7
v -7.8 1.5 1.6
v -7.8 1.6 1.7
v -7.8 1.6 1.6
v -7 0 1.7
v -7 0 1.6
v -7 0.1 1.8
v -7 0.1 1.7
v -7 0.1 1.6
v -7 1.5 1.8
v -7 1.5 1.7
v -7 1.5 1.6
v -7 1.6 1.7
v -7 1.6 1.6
v -7.8 0.1 1.8
v -7.8 1.5 1.8
v -7.6 0.3 1.8
v -7.6 1.3 1.8
v -7.5 0.3 1.8
v -7.5 1.3 1.8
v -7.3 0.3 1.8
v -7.3 1.3 1.8
v -7.2 0.3 1.8
v -7.2 1.3 1.8
v -7 0.1 1.8
v -7 1.5 1.8
v -7.8 0 1.7
v -7.8 0.1 1.7
v -7.8 1.5 1.7
v -7.8 1.6 1.7
v -7 0 1.7
v -7 0.1 1.7
v -7 1.5 1.7
v -7 1.6 1.7
v -7.8 0 1.6
v -7.8 0.1 1.6
v -7.8 1.5 1.6
v -7.8 1.6 1.6
v -7 0 1.6
v -7 0.1 1.6
v -7 1.5 1.6
v -7 1.6 1.6
v -7.8 0 1.7
v -7 0 1.7
v -7.8 0 1.6
v -7 0 1.6
v -7.8 0.1 1.8
v -7 0.1 1.8
v -7.8 0.1 1.7
v -7 0.1 1.7
v -7.8 1.5 1.8
v -7 1.5 1.8
v -7.8 1.5 1.7
v -7 1.5 1.7
v -7.8 1.6 1.7
v -7 1.6 1.7
v -7.8 1.6 1.6
v -7 1.6 1.6

# faces
f 4/1/1 2/1/1 1/1/1
f 5/1/1 2/1/1 4/1/1
f 6/2/1 4/2/1 3/2/1
f 6/2/1 5/2/1 4/2/1
f 7/2/1 5/2/1 6/2/1
f 8/2/1 5/2/1 7/2/1
f 9/1/1 8/1/1 7/1/1
f 10/1/1 8/1/1 9/1/1
f 11/1/2 12/1/2 14/1/2
f 14/1/2 12/1/2 15/1/2
f 13/2/2 14/2/2 16/2/2
f 14/2/2 15/2/2 16/2/2
f 16/2/2 15/2/2 17/2/2
f 17/2/2 15/2/2 18/2/2
f 17/1/2 18/1/2 19/1/2
f 19/1/2 18/1/2 20/1/2
f 23/2/3 22/2/3 21/2/3
f 24/2/3 22/2/3 23/2/3
f 25/2/3 23/2/3 21/2/3
f 25/3/3 24/3/3 23/3/3
f 26/2/3 22/2/3 24/2/3
f 26/3/3 24/3/3 25/3/3
f 27/2/3 25/2/3 21/2/3
f 27/2/3 26/2/3 25/2/3
f 28/2/3 22/2/3 26/2/3
f 28/2/3 26/2/3 27/2/3
f 29/2/3 27/2/3 21/2/3
f 29/3/3 28/3/3 27/3/3
f 30/2/3 22/2/3 28/2/3
f 30/3/3 28/3/3 29/3/3
f 31/2/3 29/2/3 21/2/3
f 31/2/3 30/2/3 29/2/3
f 32/2/3 22/2/3 30/2/3
f 32/2/3 30/2/3 31/2/3
f 37/1/3 34/1/3 33/1/3
f 38/1/3 34/1/3 37/1/3
f 39/1/3 36/1/3 35/1/3
f 40/1/3 36/1/3 39/1/3
f 41/1/4 42/1/4 45/1/4
f 42/2/4 43/2/4 46/2/4
f 45/1/4 42/1/4 46/1/4
f 43/1/4 44/1/4 47/1/4
f 46/2/4 43/2/4 47/2/4
f 47/1/4 44/1/4 48/1/4
f 51/1/5 50/1/5 49/1/5
f 52/1/5 50/1/5 51/1/5
f 55/2/5 54/2/5 53/2/5
f 56/2/5 54/2/5 55/2/5
f 57/2/6 58/2/6 59/2/6
f 59/2/6 58/2/6 60/2/6
f 61/1/6 62/1/6 63/1/6
f 63/1/6 62/1/6 64/1/6
