# MagicaVoxel @ Ephtracy

# group
o 

# material
mtllib Robot.vox-19.mtl
usemtl palette

# normals
vn -1 0 0
vn 1 0 0
vn 0 0 1
vn 0 0 -1
vn 0 -1 0
vn 0 1 0

# texcoords
vt 0.939453 0.5
vt 0.970703 0.5
vt 0.982422 0.5

# verts
v -0.8 0.2 -7.2
v -0.8 0.2 -7.8
v -0.8 0.3 -7.3
v -0.8 0.3 -7.4
v -0.8 0.3 -7.6
v -0.8 0.3 -7.7
v -0.8 0.4 -7.2
v -0.8 0.4 -7.3
v -0.8 0.4 -7.4
v -0.8 0.4 -7.6
v -0.8 0.4 -7.7
v -0.8 0.4 -7.8
v -0.8 0.5 -7.2
v -0.8 0.5 -7.3
v -0.8 0.5 -7.7
v -0.8 0.5 -7.8
v -0.8 0.6 -7.3
v -0.8 0.6 -7.7
v -0.8 0.7 -7.2
v -0.8 0.7 -7.8
v -0.7 0.2 -7
v -0.7 0.2 -7.2
v -0.7 0.2 -7.8
v -0.7 0.2 -8
v -0.7 0.4 -7
v -0.7 0.4 -7.2
v -0.7 0.4 -7.8
v -0.7 0.4 -8
v -0.7 0.5 -7
v -0.7 0.5 -7.2
v -0.7 0.5 -7.8
v -0.7 0.5 -8
v -0.7 0.7 -7
v -0.7 0.7 -7.2
v -0.7 0.7 -7.8
v -0.7 0.7 -8
v -0.6 0.1 -7.3
v -0.6 0.1 -7.7
v -0.6 0.2 -6.9
v -0.6 0.2 -7
v -0.6 0.2 -7.3
v -0.6 0.2 -7.7
v -0.6 0.2 -8
v -0.6 0.2 -8.1
v -0.6 0.4 -6.9
v -0.6 0.4 -7
v -0.6 0.4 -8
v -0.6 0.4 -8.1
v -0.6 0.5 -6.9
v -0.6 0.5 -7
v -0.6 0.5 -8
v -0.6 0.5 -8.1
v -0.6 0.7 -6.9
v -0.6 0.7 -7
v -0.6 0.7 -8
v -0.6 0.7 -8.1
v -0.5 0.1 -7.1
v -0.5 0.1 -7.3
v -0.5 0.1 -7.7
v -0.5 0.1 -7.9
v -0.5 0.2 -6.8
v -0.5 0.2 -6.9
v -0.5 0.2 -7.1
v -0.5 0.2 -7.3
v -0.5 0.2 -7.7
v -0.5 0.2 -7.9
v -0.5 0.2 -8.1
v -0.5 0.2 -8.2
v -0.5 0.4 -6.8
v -0.5 0.4 -6.9
v -0.5 0.4 -8.1
v -0.5 0.4 -8.2
v -0.5 0.5 -6.8
v -0.5 0.5 -6.9
v -0.5 0.5 -8.1
v -0.5 0.5 -8.2
v -0.5 0.7 -6.8
v -0.5 0.7 -6.9
v -0.5 0.7 -8.1
v -0.5 0.7 -8.2
v -0.4 0.1 -7
v -0.4 0.1 -7.1
v -0.4 0.1 -7.4
v -0.4 0.1 -7.6
v -0.4 0.1 -7.9
v -0.4 0.1 -8
v -0.4 0.2 -7
v -0.4 0.2 -7.1
v -0.4 0.2 -7.4
v -0.4 0.2 -7.6
v -0.4 0.2 -7.9
v -0.4 0.2 -8
v -0.3 0.2 -6.7
v -0.3 0.2 -6.8
v -0.3 0.2 -8.2
v -0.3 0.2 -8.3
v -0.3 0.4 -6.7
v -0.3 0.4 -6.8
v -0.3 0.4 -8.2
v -0.3 0.4 -8.3
v -0.3 0.5 -6.7
v -0.3 0.5 -6.8
v -0.3 0.5 -8.2
v -0.3 0.5 -8.3
v -0.3 0.7 -6.7
v -0.3 0.7 -6.8
v -0.3 0.7 -8.2
v -0.3 0.7 -8.3
v -0.2 0.1 -6.9
v -0.2 0.1 -7
v -0.2 0.1 -7.1
v -0.2 0.1 -7.3
v -0.2 0.1 -7.4
v -0.2 0.1 -7.6
v -0.2 0.1 -7.7
v -0.2 0.1 -7.9
v -0.2 0.1 -8
v -0.2 0.1 -8.1
v -0.2 0.2 -6.9
v -0.2 0.2 -7
v -0.2 0.2 -7.1
v -0.2 0.2 -7.3
v -0.2 0.2 -7.4
v -0.2 0.2 -7.6
v -0.2 0.2 -7.7
v -0.2 0.2 -7.9
v -0.2 0.2 -8
v -0.2 0.2 -8.1
v 0.1 0.1 -7
v 0.1 0.1 -7.1
v 0.1 0.1 -7.2
v 0.1 0.1 -7.3
v 0.1 0.1 -7.4
v 0.1 0.1 -7.6
v 0.1 0.1 -7.7
v 0.1 0.1 -7.8
v 0.1 0.1 -7.9
v 0.1 0.1 -8
v 0.1 0.2 -7
v 0.1 0.2 -7.1
v 0.1 0.2 -7.2
v 0.1 0.2 -7.3
v 0.1 0.2 -7.4
v 0.1 0.2 -7.6
v 0.1 0.2 -7.7
v 0.1 0.2 -7.8
v 0.1 0.2 -7.9
v 0.1 0.2 -8
v 0.3 0.1 -7.4
v 0.3 0.1 -7.6
v 0.3 0.2 -7.4
v 0.3 0.2 -7.6
v 0.4 0.1 -7.1
v 0.4 0.1 -7.3
v 0.4 0.1 -7.7
v 0.4 0.1 -7.9
v 0.4 0.2 -7.1
v 0.4 0.2 -7.3
v 0.4 0.2 -7.7
v 0.4 0.2 -7.9
v 0.5 0.1 -7.4
v 0.5 0.1 -7.6
v 0.5 0.2 -7.4
v 0.5 0.2 -7.6
v -0.5 0.1 -7.4
v -0.5 0.1 -7.6
v -0.5 0.2 -7.4
v -0.5 0.2 -7.6
v -0.4 0.1 -7.1
v -0.4 0.1 -7.3
v -0.4 0.1 -7.7
v -0.4 0.1 -7.9
v -0.4 0.2 -7.1
v -0.4 0.2 -7.3
v -0.4 0.2 -7.7
v -0.4 0.2 -7.9
v -0.3 0.1 -7.4
v -0.3 0.1 -7.6
v -0.3 0.2 -7.4
v -0.3 0.2 -7.6
v -0.1 0.1 -7
v -0.1 0.1 -7.1
v -0.1 0.1 -7.2
v -0.1 0.1 -7.3
v -0.1 0.1 -7.4
v -0.1 0.1 -7.6
v -0.1 0.1 -7.7
v -0.1 0.1 -7.8
v -0.1 0.1 -7.9
v -0.1 0.1 -8
v -0.1 0.2 -7
v -0.1 0.2 -7.1
v -0.1 0.2 -7.2
v -0.1 0.2 -7.3
v -0.1 0.2 -7.4
v -0.1 0.2 -7.6
v -0.1 0.2 -7.7
v -0.1 0.2 -7.8
v -0.1 0.2 -7.9
v -0.1 0.2 -8
v 0.2 0.1 -6.9
v 0.2 0.1 -7
v 0.2 0.1 -7.1
v 0.2 0.1 -7.3
v 0.2 0.1 -7.4
v 0.2 0.1 -7.6
v 0.2 0.1 -7.7
v 0.2 0.1 -7.9
v 0.2 0.1 -8
v 0.2 0.1 -8.1
v 0.2 0.2 -6.9
v 0.2 0.2 -7
v 0.2 0.2 -7.1
v 0.2 0.2 -7.3
v 0.2 0.2 -7.4
v 0.2 0.2 -7.6
v 0.2 0.2 -7.7
v 0.2 0.2 -7.9
v 0.2 0.2 -8
v 0.2 0.2 -8.1
v 0.3 0.2 -6.7
v 0.3 0.2 -6.8
v 0.3 0.2 -8.2
v 0.3 0.2 -8.3
v 0.3 0.4 -6.7
v 0.3 0.4 -6.8
v 0.3 0.4 -8.2
v 0.3 0.4 -8.3
v 0.3 0.5 -6.7
v 0.3 0.5 -6.8
v 0.3 0.5 -8.2
v 0.3 0.5 -8.3
v 0.3 0.7 -6.7
v 0.3 0.7 -6.8
v 0.3 0.7 -8.2
v 0.3 0.7 -8.3
v 0.4 0.1 -7
v 0.4 0.1 -7.1
v 0.4 0.1 -7.4
v 0.4 0.1 -7.6
v 0.4 0.1 -7.9
v 0.4 0.1 -8
v 0.4 0.2 -7
v 0.4 0.2 -7.1
v 0.4 0.2 -7.4
v 0.4 0.2 -7.6
v 0.4 0.2 -7.9
v 0.4 0.2 -8
v 0.5 0.1 -7.1
v 0.5 0.1 -7.3
v 0.5 0.1 -7.7
v 0.5 0.1 -7.9
v 0.5 0.2 -6.8
v 0.5 0.2 -6.9
v 0.5 0.2 -7.1
v 0.5 0.2 -7.3
v 0.5 0.2 -7.7
v 0.5 0.2 -7.9
v 0.5 0.2 -8.1
v 0.5 0.2 -8.2
v 0.5 0.4 -6.8
v 0.5 0.4 -6.9
v 0.5 0.4 -8.1
v 0.5 0.4 -8.2
v 0.5 0.5 -6.8
v 0.5 0.5 -6.9
v 0.5 0.5 -8.1
v 0.5 0.5 -8.2
v 0.5 0.7 -6.8
v 0.5 0.7 -6.9
v 0.5 0.7 -8.1
v 0.5 0.7 -8.2
v 0.6 0.1 -7.3
v 0.6 0.1 -7.7
v 0.6 0.2 -6.9
v 0.6 0.2 -7
v 0.6 0.2 -7.3
v 0.6 0.2 -7.7
v 0.6 0.2 -8
v 0.6 0.2 -8.1
v 0.6 0.4 -6.9
v 0.6 0.4 -7
v 0.6 0.4 -8
v 0.6 0.4 -8.1
v 0.6 0.5 -6.9
v 0.6 0.5 -7
v 0.6 0.5 -8
v 0.6 0.5 -8.1
v 0.6 0.7 -6.9
v 0.6 0.7 -7
v 0.6 0.7 -8
v 0.6 0.7 -8.1
v 0.7 0.2 -7
v 0.7 0.2 -7.2
v 0.7 0.2 -7.8
v 0.7 0.2 -8
v 0.7 0.4 -7
v 0.7 0.4 -7.2
v 0.7 0.4 -7.8
v 0.7 0.4 -8
v 0.7 0.5 -7
v 0.7 0.5 -7.2
v 0.7 0.5 -7.8
v 0.7 0.5 -8
v 0.7 0.7 -7
v 0.7 0.7 -7.2
v 0.7 0.7 -7.8
v 0.7 0.7 -8
v 0.8 0.2 -7.2
v 0.8 0.2 -7.8
v 0.8 0.3 -7.3
v 0.8 0.3 -7.4
v 0.8 0.3 -7.6
v 0.8 0.3 -7.7
v 0.8 0.4 -7.2
v 0.8 0.4 -7.3
v 0.8 0.4 -7.4
v 0.8 0.4 -7.6
v 0.8 0.4 -7.7
v 0.8 0.4 -7.8
v 0.8 0.5 -7.2
v 0.8 0.5 -7.3
v 0.8 0.5 -7.7
v 0.8 0.5 -7.8
v 0.8 0.6 -7.3
v 0.8 0.6 -7.7
v 0.8 0.7 -7.2
v 0.8 0.7 -7.8
v -0.3 0.2 -6.7
v -0.3 0.4 -6.7
v -0.3 0.5 -6.7
v -0.3 0.7 -6.7
v -0.2 0.3 -6.7
v -0.2 0.4 -6.7
v -0.2 0.5 -6.7
v -0.2 0.6 -6.7
v -0.1 0.3 -6.7
v -0.1 0.4 -6.7
v 0.1 0.3 -6.7
v 0.1 0.4 -6.7
v 0.2 0.3 -6.7
v 0.2 0.4 -6.7
v 0.2 0.5 -6.7
v 0.2 0.6 -6.7
v 0.3 0.2 -6.7
v 0.3 0.4 -6.7
v 0.3 0.5 -6.7
v 0.3 0.7 -6.7
v -0.5 0.2 -6.8
v -0.5 0.4 -6.8
v -0.5 0.5 -6.8
v -0.5 0.7 -6.8
v -0.3 0.2 -6.8
v -0.3 0.4 -6.8
v -0.3 0.5 -6.8
v -0.3 0.7 -6.8
v 0.3 0.2 -6.8
v 0.3 0.4 -6.8
v 0.3 0.5 -6.8
v 0.3 0.7 -6.8
v 0.5 0.2 -6.8
v 0.5 0.4 -6.8
v 0.5 0.5 -6.8
v 0.5 0.7 -6.8
v -0.6 0.2 -6.9
v -0.6 0.4 -6.9
v -0.6 0.5 -6.9
v -0.6 0.7 -6.9
v -0.5 0.2 -6.9
v -0.5 0.4 -6.9
v -0.5 0.5 -6.9
v -0.5 0.7 -6.9
v -0.2 0.1 -6.9
v -0.2 0.2 -6.9
v 0.2 0.1 -6.9
v 0.2 0.2 -6.9
v 0.5 0.2 -6.9
v 0.5 0.4 -6.9
v 0.5 0.5 -6.9
v 0.5 0.7 -6.9
v 0.6 0.2 -6.9
v 0.6 0.4 -6.9
v 0.6 0.5 -6.9
v 0.6 0.7 -6.9
v -0.7 0.2 -7
v -0.7 0.4 -7
v -0.7 0.5 -7
v -0.7 0.7 -7
v -0.6 0.2 -7
v -0.6 0.4 -7
v -0.6 0.5 -7
v -0.6 0.7 -7
v -0.4 0.1 -7
v -0.4 0.2 -7
v -0.2 0.1 -7
v -0.2 0.2 -7
v 0.2 0.1 -7
v 0.2 0.2 -7
v 0.4 0.1 -7
v 0.4 0.2 -7
v 0.6 0.2 -7
v 0.6 0.4 -7
v 0.6 0.5 -7
v 0.6 0.7 -7
v 0.7 0.2 -7
v 0.7 0.4 -7
v 0.7 0.5 -7
v 0.7 0.7 -7
v -0.5 0.1 -7.1
v -0.5 0.2 -7.1
v -0.4 0.1 -7.1
v -0.4 0.2 -7.1
v -0.1 0.1 -7.1
v -0.1 0.2 -7.1
v 0.1 0.1 -7.1
v 0.1 0.2 -7.1
v 0.4 0.1 -7.1
v 0.4 0.2 -7.1
v 0.5 0.1 -7.1
v 0.5 0.2 -7.1
v -0.8 0.2 -7.2
v -0.8 0.4 -7.2
v -0.8 0.5 -7.2
v -0.8 0.7 -7.2
v -0.7 0.2 -7.2
v -0.7 0.4 -7.2
v -0.7 0.5 -7.2
v -0.7 0.7 -7.2
v 0.7 0.2 -7.2
v 0.7 0.4 -7.2
v 0.7 0.5 -7.2
v 0.7 0.7 -7.2
v 0.8 0.2 -7.2
v 0.8 0.4 -7.2
v 0.8 0.5 -7.2
v 0.8 0.7 -7.2
v -0.6 0.1 -7.3
v -0.6 0.2 -7.3
v -0.5 0.1 -7.3
v -0.5 0.2 -7.3
v -0.4 0.1 -7.3
v -0.4 0.2 -7.3
v -0.2 0.1 -7.3
v -0.2 0.2 -7.3
v -0.1 0.1 -7.3
v -0.1 0.2 -7.3
v 0.1 0.1 -7.3
v 0.1 0.2 -7.3
v 0.2 0.1 -7.3
v 0.2 0.2 -7.3
v 0.4 0.1 -7.3
v 0.4 0.2 -7.3
v 0.5 0.1 -7.3
v 0.5 0.2 -7.3
v 0.6 0.1 -7.3
v 0.6 0.2 -7.3
v -0.5 0.1 -7.6
v -0.5 0.2 -7.6
v -0.4 0.1 -7.6
v -0.4 0.2 -7.6
v -0.3 0.1 -7.6
v -0.3 0.2 -7.6
v -0.2 0.1 -7.6
v -0.2 0.2 -7.6
v -0.1 0.1 -7.6
v -0.1 0.2 -7.6
v 0.1 0.1 -7.6
v 0.1 0.2 -7.6
v 0.2 0.1 -7.6
v 0.2 0.2 -7.6
v 0.3 0.1 -7.6
v 0.3 0.2 -7.6
v 0.4 0.1 -7.6
v 0.4 0.2 -7.6
v 0.5 0.1 -7.6
v 0.5 0.2 -7.6
v -0.1 0.1 -7.8
v -0.1 0.2 -7.8
v 0.1 0.1 -7.8
v 0.1 0.2 -7.8
v -0.4 0.1 -7.9
v -0.4 0.2 -7.9
v -0.2 0.1 -7.9
v -0.2 0.2 -7.9
v 0.2 0.1 -7.9
v 0.2 0.2 -7.9
v 0.4 0.1 -7.9
v 0.4 0.2 -7.9
v -0.1 0.1 -8
v -0.1 0.2 -8
v 0.1 0.1 -8
v 0.1 0.2 -8
v -0.1 0.1 -7
v -0.1 0.2 -7
v 0.1 0.1 -7
v 0.1 0.2 -7
v -0.4 0.1 -7.1
v -0.4 0.2 -7.1
v -0.2 0.1 -7.1
v -0.2 0.2 -7.1
v 0.2 0.1 -7.1
v 0.2 0.2 -7.1
v 0.4 0.1 -7.1
v 0.4 0.2 -7.1
v -0.1 0.1 -7.2
v -0.1 0.2 -7.2
v 0.1 0.1 -7.2
v 0.1 0.2 -7.2
v -0.5 0.1 -7.4
v -0.5 0.2 -7.4
v -0.4 0.1 -7.4
v -0.4 0.2 -7.4
v -0.3 0.1 -7.4
v -0.3 0.2 -7.4
v -0.2 0.1 -7.4
v -0.2 0.2 -7.4
v -0.1 0.1 -7.4
v -0.1 0.2 -7.4
v 0.1 0.1 -7.4
v 0.1 0.2 -7.4
v 0.2 0.1 -7.4
v 0.2 0.2 -7.4
v 0.3 0.1 -7.4
v 0.3 0.2 -7.4
v 0.4 0.1 -7.4
v 0.4 0.2 -7.4
v 0.5 0.1 -7.4
v 0.5 0.2 -7.4
v -0.6 0.1 -7.7
v -0.6 0.2 -7.7
v -0.5 0.1 -7.7
v -0.5 0.2 -7.7
v -0.4 0.1 -7.7
v -0.4 0.2 -7.7
v -0.2 0.1 -7.7
v -0.2 0.2 -7.7
v -0.1 0.1 -7.7
v -0.1 0.2 -7.7
v 0.1 0.1 -7.7
v 0.1 0.2 -7.7
v 0.2 0.1 -7.7
v 0.2 0.2 -7.7
v 0.4 0.1 -7.7
v 0.4 0.2 -7.7
v 0.5 0.1 -7.7
v 0.5 0.2 -7.7
v 0.6 0.1 -7.7
v 0.6 0.2 -7.7
v -0.8 0.2 -7.8
v -0.8 0.4 -7.8
v -0.8 0.5 -7.8
v -0.8 0.7 -7.8
v -0.7 0.2 -7.8
v -0.7 0.4 -7.8
v -0.7 0.5 -7.8
v -0.7 0.7 -7.8
v 0.7 0.2 -7.8
v 0.7 0.4 -7.8
v 0.7 0.5 -7.8
v 0.7 0.7 -7.8
v 0.8 0.2 -7.8
v 0.8 0.4 -7.8
v 0.8 0.5 -7.8
v 0.8 0.7 -7.8
v -0.5 0.1 -7.9
v -0.5 0.2 -7.9
v -0.4 0.1 -7.9
v -0.4 0.2 -7.9
v -0.1 0.1 -7.9
v -0.1 0.2 -7.9
v 0.1 0.1 -7.9
v 0.1 0.2 -7.9
v 0.4 0.1 -7.9
v 0.4 0.2 -7.9
v 0.5 0.1 -7.9
v 0.5 0.2 -7.9
v -0.7 0.2 -8
v -0.7 0.4 -8
v -0.7 0.5 -8
v -0.7 0.7 -8
v -0.6 0.2 -8
v -0.6 0.4 -8
v -0.6 0.5 -8
v -0.6 0.7 -8
v -0.4 0.1 -8
v -0.4 0.2 -8
v -0.2 0.1 -8
v -0.2 0.2 -8
v 0.2 0.1 -8
v 0.2 0.2 -8
v 0.4 0.1 -8
v 0.4 0.2 -8
v 0.6 0.2 -8
v 0.6 0.4 -8
v 0.6 0.5 -8
v 0.6 0.7 -8
v 0.7 0.2 -8
v 0.7 0.4 -8
v 0.7 0.5 -8
v 0.7 0.7 -8
v -0.6 0.2 -8.1
v -0.6 0.4 -8.1
v -0.6 0.5 -8.1
v -0.6 0.7 -8.1
v -0.5 0.2 -8.1
v -0.5 0.4 -8.1
v -0.5 0.5 -8.1
v -0.5 0.7 -8.1
v -0.2 0.1 -8.1
v -0.2 0.2 -8.1
v 0.2 0.1 -8.1
v 0.2 0.2 -8.1
v 0.5 0.2 -8.1
v 0.5 0.4 -8.1
v 0.5 0.5 -8.1
v 0.5 0.7 -8.1
v 0.6 0.2 -8.1
v 0.6 0.4 -8.1
v 0.6 0.5 -8.1
v 0.6 0.7 -8.1
v -0.5 0.2 -8.2
v -0.5 0.4 -8.2
v -0.5 0.5 -8.2
v -0.5 0.7 -8.2
v -0.3 0.2 -8.2
v -0.3 0.4 -8.2
v -0.3 0.5 -8.2
v -0.3 0.7 -8.2
v 0.3 0.2 -8.2
v 0.3 0.4 -8.2
v 0.3 0.5 -8.2
v 0.3 0.7 -8.2
v 0.5 0.2 -8.2
v 0.5 0.4 -8.2
v 0.5 0.5 -8.2
v 0.5 0.7 -8.2
v -0.3 0.2 -8.3
v -0.3 0.4 -8.3
v -0.3 0.5 -8.3
v -0.3 0.7 -8.3
v -0.2 0.3 -8.3
v -0.2 0.4 -8.3
v -0.2 0.5 -8.3
v -0.2 0.6 -8.3
v -0.1 0.3 -8.3
v -0.1 0.4 -8.3
v 0.1 0.3 -8.3
v 0.1 0.4 -8.3
v 0.2 0.3 -8.3
v 0.2 0.4 -8.3
v 0.2 0.5 -8.3
v 0.2 0.6 -8.3
v 0.3 0.2 -8.3
v 0.3 0.4 -8.3
v 0.3 0.5 -8.3
v 0.3 0.7 -8.3
v -0.2 0.1 -6.9
v 0.2 0.1 -6.9
v -0.4 0.1 -7
v -0.2 0.1 -7
v -0.1 0.1 -7
v 0.1 0.1 -7
v 0.2 0.1 -7
v 0.4 0.1 -7
v -0.5 0.1 -7.1
v -0.4 0.1 -7.1
v -0.2 0.1 -7.1
v -0.1 0.1 -7.1
v 0.1 0.1 -7.1
v 0.2 0.1 -7.1
v 0.4 0.1 -7.1
v 0.5 0.1 -7.1
v -0.1 0.1 -7.2
v 0.1 0.1 -7.2
v -0.6 0.1 -7.3
v -0.5 0.1 -7.3
v -0.4 0.1 -7.3
v -0.2 0.1 -7.3
v -0.1 0.1 -7.3
v 0.1 0.1 -7.3
v 0.2 0.1 -7.3
v 0.4 0.1 -7.3
v 0.5 0.1 -7.3
v 0.6 0.1 -7.3
v -0.5 0.1 -7.4
v -0.4 0.1 -7.4
v -0.3 0.1 -7.4
v -0.2 0.1 -7.4
v -0.1 0.1 -7.4
v 0.1 0.1 -7.4
v 0.2 0.1 -7.4
v 0.3 0.1 -7.4
v 0.4 0.1 -7.4
v 0.5 0.1 -7.4
v -0.5 0.1 -7.6
v -0.4 0.1 -7.6
v -0.3 0.1 -7.6
v -0.2 0.1 -7.6
v -0.1 0.1 -7.6
v 0.1 0.1 -7.6
v 0.2 0.1 -7.6
v 0.3 0.1 -7.6
v 0.4 0.1 -7.6
v 0.5 0.1 -7.6
v -0.6 0.1 -7.7
v -0.5 0.1 -7.7
v -0.4 0.1 -7.7
v -0.2 0.1 -7.7
v -0.1 0.1 -7.7
v 0.1 0.1 -7.7
v 0.2 0.1 -7.7
v 0.4 0.1 -7.7
v 0.5 0.1 -7.7
v 0.6 0.1 -7.7
v -0.1 0.1 -7.8
v 0.1 0.1 -7.8
v -0.5 0.1 -7.9
v -0.4 0.1 -7.9
v -0.2 0.1 -7.9
v -0.1 0.1 -7.9
v 0.1 0.1 -7.9
v 0.2 0.1 -7.9
v 0.4 0.1 -7.9
v 0.5 0.1 -7.9
v -0.4 0.1 -8
v -0.2 0.1 -8
v -0.1 0.1 -8
v 0.1 0.1 -8
v 0.2 0.1 -8
v 0.4 0.1 -8
v -0.2 0.1 -8.1
v 0.2 0.1 -8.1
v -0.3 0.2 -6.7
v 0.3 0.2 -6.7
v -0.5 0.2 -6.8
v -0.3 0.2 -6.8
v 0.3 0.2 -6.8
v 0.5 0.2 -6.8
v -0.6 0.2 -6.9
v -0.5 0.2 -6.9
v -0.2 0.2 -6.9
v 0.2 0.2 -6.9
v 0.5 0.2 -6.9
v 0.6 0.2 -6.9
v -0.7 0.2 -7
v -0.6 0.2 -7
v -0.4 0.2 -7
v -0.2 0.2 -7
v -0.1 0.2 -7
v 0.1 0.2 -7
v 0.2 0.2 -7
v 0.4 0.2 -7
v 0.6 0.2 -7
v 0.7 0.2 -7
v -0.5 0.2 -7.1
v -0.4 0.2 -7.1
v -0.2 0.2 -7.1
v -0.1 0.2 -7.1
v 0.1 0.2 -7.1
v 0.2 0.2 -7.1
v 0.4 0.2 -7.1
v 0.5 0.2 -7.1
v -0.8 0.2 -7.2
v -0.7 0.2 -7.2
v -0.1 0.2 -7.2
v 0.1 0.2 -7.2
v 0.7 0.2 -7.2
v 0.8 0.2 -7.2
v -0.6 0.2 -7.3
v -0.5 0.2 -7.3
v -0.4 0.2 -7.3
v -0.2 0.2 -7.3
v -0.1 0.2 -7.3
v 0.1 0.2 -7.3
v 0.2 0.2 -7.3
v 0.4 0.2 -7.3
v 0.5 0.2 -7.3
v 0.6 0.2 -7.3
v -0.5 0.2 -7.4
v -0.4 0.2 -7.4
v -0.3 0.2 -7.4
v -0.2 0.2 -7.4
v -0.1 0.2 -7.4
v 0.1 0.2 -7.4
v 0.2 0.2 -7.4
v 0.3 0.2 -7.4
v 0.4 0.2 -7.4
v 0.5 0.2 -7.4
v -0.5 0.2 -7.6
v -0.4 0.2 -7.6
v -0.3 0.2 -7.6
v -0.2 0.2 -7.6
v -0.1 0.2 -7.6
v 0.1 0.2 -7.6
v 0.2 0.2 -7.6
v 0.3 0.2 -7.6
v 0.4 0.2 -7.6
v 0.5 0.2 -7.6
v -0.6 0.2 -7.7
v -0.5 0.2 -7.7
v -0.4 0.2 -7.7
v -0.2 0.2 -7.7
v -0.1 0.2 -7.7
v 0.1 0.2 -7.7
v 0.2 0.2 -7.7
v 0.4 0.2 -7.7
v 0.5 0.2 -7.7
v 0.6 0.2 -7.7
v -0.8 0.2 -7.8
v -0.7 0.2 -7.8
v -0.1 0.2 -7.8
v 0.1 0.2 -7.8
v 0.7 0.2 -7.8
v 0.8 0.2 -7.8
v -0.5 0.2 -7.9
v -0.4 0.2 -7.9
v -0.2 0.2 -7.9
v -0.1 0.2 -7.9
v 0.1 0.2 -7.9
v 0.2 0.2 -7.9
v 0.4 0.2 -7.9
v 0.5 0.2 -7.9
v -0.7 0.2 -8
v -0.6 0.2 -8
v -0.4 0.2 -8
v -0.2 0.2 -8
v -0.1 0.2 -8
v 0.1 0.2 -8
v 0.2 0.2 -8
v 0.4 0.2 -8
v 0.6 0.2 -8
v 0.7 0.2 -8
v -0.6 0.2 -8.1
v -0.5 0.2 -8.1
v -0.2 0.2 -8.1
v 0.2 0.2 -8.1
v 0.5 0.2 -8.1
v 0.6 0.2 -8.1
v -0.5 0.2 -8.2
v -0.3 0.2 -8.2
v 0.3 0.2 -8.2
v 0.5 0.2 -8.2
v -0.3 0.2 -8.3
v 0.3 0.2 -8.3
v -0.3 0.7 -6.7
v 0.3 0.7 -6.7
v -0.5 0.7 -6.8
v -0.3 0.7 -6.8
v -0.1 0.7 -6.8
v 0.1 0.7 -6.8
v 0.3 0.7 -6.8
v 0.5 0.7 -6.8
v -0.6 0.7 -6.9
v -0.5 0.7 -6.9
v 0.5 0.7 -6.9
v 0.6 0.7 -6.9
v -0.7 0.7 -7
v -0.6 0.7 -7
v -0.4 0.7 -7
v -0.2 0.7 -7
v 0.2 0.7 -7
v 0.4 0.7 -7
v 0.6 0.7 -7
v 0.7 0.7 -7
v -0.4 0.7 -7.1
v -0.2 0.7 -7.1
v -0.1 0.7 -7.1
v 0.1 0.7 -7.1
v 0.2 0.7 -7.1
v 0.4 0.7 -7.1
v -0.8 0.7 -7.2
v -0.7 0.7 -7.2
v -0.4 0.7 -7.2
v 0.4 0.7 -7.2
v 0.7 0.7 -7.2
v 0.8 0.7 -7.2
v -0.4 0.7 -7.3
v 0.4 0.7 -7.3
v -0.7 0.7 -7.4
v -0.2 0.7 -7.4
v -0.1 0.7 -7.4
v 0.1 0.7 -7.4
v 0.2 0.7 -7.4
v 0.7 0.7 -7.4
v -0.7 0.7 -7.6
v -0.2 0.7 -7.6
v -0.1 0.7 -7.6
v 0.1 0.7 -7.6
v 0.2 0.7 -7.6
v 0.7 0.7 -7.6
v -0.4 0.7 -7.7
v 0.4 0.7 -7.7
v -0.8 0.7 -7.8
v -0.7 0.7 -7.8
v -0.4 0.7 -7.8
v 0.4 0.7 -7.8
v 0.7 0.7 -7.8
v 0.8 0.7 -7.8
v -0.4 0.7 -7.9
v -0.2 0.7 -7.9
v -0.1 0.7 -7.9
v 0.1 0.7 -7.9
v 0.2 0.7 -7.9
v 0.4 0.7 -7.9
v -0.7 0.7 -8
v -0.6 0.7 -8
v -0.4 0.7 -8
v -0.2 0.7 -8
v 0.2 0.7 -8
v 0.4 0.7 -8
v 0.6 0.7 -8
v 0.7 0.7 -8
v -0.6 0.7 -8.1
v -0.5 0.7 -8.1
v 0.5 0.7 -8.1
v 0.6 0.7 -8.1
v -0.5 0.7 -8.2
v -0.3 0.7 -8.2
v -0.1 0.7 -8.2
v 0.1 0.7 -8.2
v 0.3 0.7 -8.2
v 0.5 0.7 -8.2
v -0.3 0.7 -8.3
v 0.3 0.7 -8.3

# faces
f 3/2/1 2/2/1 1/2/1
f 4/2/1 2/2/1 3/2/1
f 5/2/1 2/2/1 4/2/1
f 6/2/1 2/2/1 5/2/1
f 7/2/1 3/2/1 1/2/1
f 8/3/1 4/3/1 3/3/1
f 8/2/1 3/2/1 7/2/1
f 9/2/1 5/2/1 4/2/1
f 9/3/1 4/3/1 8/3/1
f 10/3/1 6/3/1 5/3/1
f 10/2/1 5/2/1 9/2/1
f 11/2/1 2/2/1 6/2/1
f 11/3/1 6/3/1 10/3/1
f 12/2/1 2/2/1 11/2/1
f 13/3/1 10/3/1 9/3/1
f 13/3/1 8/3/1 7/3/1
f 13/3/1 12/3/1 11/3/1
f 13/3/1 11/3/1 10/3/1
f 13/3/1 9/3/1 8/3/1
f 14/3/1 12/3/1 13/3/1
f 15/3/1 12/3/1 14/3/1
f 16/3/1 12/3/1 15/3/1
f 17/2/1 14/2/1 13/2/1
f 17/3/1 15/3/1 14/3/1
f 18/2/1 16/2/1 15/2/1
f 18/3/1 15/3/1 17/3/1
f 19/2/1 17/2/1 13/2/1
f 19/2/1 18/2/1 17/2/1
f 20/2/1 16/2/1 18/2/1
f 20/2/1 18/2/1 19/2/1
f 25/2/1 22/2/1 21/2/1
f 26/2/1 22/2/1 25/2/1
f 27/2/1 24/2/1 23/2/1
f 28/2/1 24/2/1 27/2/1
f 29/3/1 26/3/1 25/3/1
f 30/3/1 26/3/1 29/3/1
f 31/3/1 28/3/1 27/3/1
f 32/3/1 28/3/1 31/3/1
f 33/2/1 30/2/1 29/2/1
f 34/2/1 30/2/1 33/2/1
f 35/2/1 32/2/1 31/2/1
f 36/2/1 32/2/1 35/2/1
f 41/1/1 38/1/1 37/1/1
f 42/1/1 38/1/1 41/1/1
f 45/2/1 40/2/1 39/2/1
f 46/2/1 40/2/1 45/2/1
f 47/2/1 44/2/1 43/2/1
f 48/2/1 44/2/1 47/2/1
f 49/3/1 46/3/1 45/3/1
f 50/3/1 46/3/1 49/3/1
f 51/3/1 48/3/1 47/3/1
f 52/3/1 48/3/1 51/3/1
f 53/2/1 50/2/1 49/2/1
f 54/2/1 50/2/1 53/2/1
f 55/2/1 52/2/1 51/2/1
f 56/2/1 52/2/1 55/2/1
f 63/1/1 58/1/1 57/1/1
f 64/1/1 58/1/1 63/1/1
f 65/1/1 60/1/1 59/1/1
f 66/1/1 60/1/1 65/1/1
f 69/2/1 62/2/1 61/2/1
f 70/2/1 62/2/1 69/2/1
f 71/2/1 68/2/1 67/2/1
f 72/2/1 68/2/1 71/2/1
f 73/3/1 70/3/1 69/3/1
f 74/3/1 70/3/1 73/3/1
f 75/3/1 72/3/1 71/3/1
f 76/3/1 72/3/1 75/3/1
f 77/2/1 74/2/1 73/2/1
f 78/2/1 74/2/1 77/2/1
f 79/2/1 76/2/1 75/2/1
f 80/2/1 76/2/1 79/2/1
f 87/1/1 82/1/1 81/1/1
f 88/1/1 82/1/1 87/1/1
f 89/1/1 84/1/1 83/1/1
f 90/1/1 84/1/1 89/1/1
f 91/1/1 86/1/1 85/1/1
f 92/1/1 86/1/1 91/1/1
f 97/2/1 94/2/1 93/2/1
f 98/2/1 94/2/1 97/2/1
f 99/2/1 96/2/1 95/2/1
f 100/2/1 96/2/1 99/2/1
f 101/3/1 98/3/1 97/3/1
f 102/3/1 98/3/1 101/3/1
f 103/3/1 100/3/1 99/3/1
f 104/3/1 100/3/1 103/3/1
f 105/2/1 102/2/1 101/2/1
f 106/2/1 102/2/1 105/2/1
f 107/2/1 104/2/1 103/2/1
f 108/2/1 104/2/1 107/2/1
f 119/1/1 110/1/1 109/1/1
f 120/1/1 110/1/1 119/1/1
f 121/1/1 112/1/1 111/1/1
f 122/1/1 112/1/1 121/1/1
f 123/1/1 114/1/1 113/1/1
f 124/1/1 114/1/1 123/1/1
f 125/1/1 116/1/1 115/1/1
f 126/1/1 116/1/1 125/1/1
f 127/1/1 118/1/1 117/1/1
f 128/1/1 118/1/1 127/1/1
f 139/1/1 130/1/1 129/1/1
f 140/1/1 130/1/1 139/1/1
f 141/1/1 132/1/1 131/1/1
f 142/1/1 132/1/1 141/1/1
f 143/1/1 134/1/1 133/1/1
f 144/1/1 134/1/1 143/1/1
f 145/1/1 136/1/1 135/1/1
f 146/1/1 136/1/1 145/1/1
f 147/1/1 138/1/1 137/1/1
f 148/1/1 138/1/1 147/1/1
f 151/1/1 150/1/1 149/1/1
f 152/1/1 150/1/1 151/1/1
f 157/1/1 154/1/1 153/1/1
f 158/1/1 154/1/1 157/1/1
f 159/1/1 156/1/1 155/1/1
f 160/1/1 156/1/1 159/1/1
f 163/1/1 162/1/1 161/1/1
f 164/1/1 162/1/1 163/1/1
f 165/1/2 166/1/2 167/1/2
f 167/1/2 166/1/2 168/1/2
f 169/1/2 170/1/2 173/1/2
f 173/1/2 170/1/2 174/1/2
f 171/1/2 172/1/2 175/1/2
f 175/1/2 172/1/2 176/1/2
f 177/1/2 178/1/2 179/1/2
f 179/1/2 178/1/2 180/1/2
f 181/1/2 182/1/2 191/1/2
f 191/1/2 182/1/2 192/1/2
f 183/1/2 184/1/2 193/1/2
f 193/1/2 184/1/2 194/1/2
f 185/1/2 186/1/2 195/1/2
f 195/1/2 186/1/2 196/1/2
f 187/1/2 188/1/2 197/1/2
f 197/1/2 188/1/2 198/1/2
f 189/1/2 190/1/2 199/1/2
f 199/1/2 190/1/2 200/1/2
f 201/1/2 202/1/2 211/1/2
f 211/1/2 202/1/2 212/1/2
f 203/1/2 204/1/2 213/1/2
f 213/1/2 204/1/2 214/1/2
f 205/1/2 206/1/2 215/1/2
f 215/1/2 206/1/2 216/1/2
f 207/1/2 208/1/2 217/1/2
f 217/1/2 208/1/2 218/1/2
f 209/1/2 210/1/2 219/1/2
f 219/1/2 210/1/2 220/1/2
f 221/2/2 222/2/2 225/2/2
f 225/2/2 222/2/2 226/2/2
f 223/2/2 224/2/2 227/2/2
f 227/2/2 224/2/2 228/2/2
f 225/3/2 226/3/2 229/3/2
f 229/3/2 226/3/2 230/3/2
f 227/3/2 228/3/2 231/3/2
f 231/3/2 228/3/2 232/3/2
f 229/2/2 230/2/2 233/2/2
f 233/2/2 230/2/2 234/2/2
f 231/2/2 232/2/2 235/2/2
f 235/2/2 232/2/2 236/2/2
f 237/1/2 238/1/2 243/1/2
f 243/1/2 238/1/2 244/1/2
f 239/1/2 240/1/2 245/1/2
f 245/1/2 240/1/2 246/1/2
f 241/1/2 242/1/2 247/1/2
f 247/1/2 242/1/2 248/1/2
f 249/1/2 250/1/2 255/1/2
f 255/1/2 250/1/2 256/1/2
f 251/1/2 252/1/2 257/1/2
f 257/1/2 252/1/2 258/1/2
f 253/2/2 254/2/2 261/2/2
f 261/2/2 254/2/2 262/2/2
f 259/2/2 260/2/2 263/2/2
f 263/2/2 260/2/2 264/2/2
f 261/3/2 262/3/2 265/3/2
f 265/3/2 262/3/2 266/3/2
f 263/3/2 264/3/2 267/3/2
f 267/3/2 264/3/2 268/3/2
f 265/2/2 266/2/2 269/2/2
f 269/2/2 266/2/2 270/2/2
f 267/2/2 268/2/2 271/2/2
f 271/2/2 268/2/2 272/2/2
f 273/1/2 274/1/2 277/1/2
f 277/1/2 274/1/2 278/1/2
f 275/2/2 276/2/2 281/2/2
f 281/2/2 276/2/2 282/2/2
f 279/2/2 280/2/2 283/2/2
f 283/2/2 280/2/2 284/2/2
f 281/3/2 282/3/2 285/3/2
f 285/3/2 282/3/2 286/3/2
f 283/3/2 284/3/2 287/3/2
f 287/3/2 284/3/2 288/3/2
f 285/2/2 286/2/2 289/2/2
f 289/2/2 286/2/2 290/2/2
f 287/2/2 288/2/2 291/2/2
f 291/2/2 288/2/2 292/2/2
f 293/2/2 294/2/2 297/2/2
f 297/2/2 294/2/2 298/2/2
f 295/2/2 296/2/2 299/2/2
f 299/2/2 296/2/2 300/2/2
f 297/3/2 298/3/2 301/3/2
f 301/3/2 298/3/2 302/3/2
f 299/3/2 300/3/2 303/3/2
f 303/3/2 300/3/2 304/3/2
f 301/2/2 302/2/2 305/2/2
f 305/2/2 302/2/2 306/2/2
f 303/2/2 304/2/2 307/2/2
f 307/2/2 304/2/2 308/2/2
f 309/2/2 310/2/2 311/2/2
f 311/2/2 310/2/2 312/2/2
f 312/2/2 310/2/2 313/2/2
f 313/2/2 310/2/2 314/2/2
f 309/2/2 311/2/2 315/2/2
f 311/3/2 312/3/2 316/3/2
f 315/2/2 311/2/2 316/2/2
f 312/2/2 313/2/2 317/2/2
f 316/3/2 312/3/2 317/3/2
f 313/3/2 314/3/2 318/3/2
f 317/2/2 313/2/2 318/2/2
f 314/2/2 310/2/2 319/2/2
f 318/3/2 314/3/2 319/3/2
f 319/2/2 310/2/2 320/2/2
f 317/3/2 318/3/2 321/3/2
f 315/3/2 316/3/2 321/3/2
f 319/3/2 320/3/2 321/3/2
f 318/3/2 319/3/2 321/3/2
f 316/3/2 317/3/2 321/3/2
f 321/3/2 320/3/2 322/3/2
f 322/3/2 320/3/2 323/3/2
f 323/3/2 320/3/2 324/3/2
f 321/2/2 322/2/2 325/2/2
f 322/3/2 323/3/2 325/3/2
f 323/2/2 324/2/2 326/2/2
f 325/3/2 323/3/2 326/3/2
f 321/2/2 325/2/2 327/2/2
f 325/2/2 326/2/2 327/2/2
f 326/2/2 324/2/2 328/2/2
f 327/2/2 326/2/2 328/2/2
f 333/2/3 330/2/3 329/2/3
f 334/3/3 331/3/3 330/3/3
f 334/2/3 330/2/3 333/2/3
f 335/2/3 332/2/3 331/2/3
f 335/3/3 331/3/3 334/3/3
f 336/2/3 332/2/3 335/2/3
f 337/3/3 334/3/3 333/3/3
f 337/2/3 333/2/3 329/2/3
f 337/3/3 336/3/3 335/3/3
f 337/3/3 335/3/3 334/3/3
f 338/3/3 336/3/3 337/3/3
f 339/2/3 337/2/3 329/2/3
f 339/2/3 338/2/3 337/2/3
f 340/3/3 336/3/3 338/3/3
f 340/2/3 338/2/3 339/2/3
f 341/2/3 339/2/3 329/2/3
f 341/3/3 340/3/3 339/3/3
f 342/3/3 336/3/3 340/3/3
f 342/3/3 340/3/3 341/3/3
f 343/3/3 336/3/3 342/3/3
f 344/2/3 332/2/3 336/2/3
f 344/3/3 336/3/3 343/3/3
f 345/2/3 341/2/3 329/2/3
f 345/2/3 342/2/3 341/2/3
f 346/3/3 343/3/3 342/3/3
f 346/2/3 342/2/3 345/2/3
f 347/2/3 344/2/3 343/2/3
f 347/3/3 343/3/3 346/3/3
f 348/2/3 332/2/3 344/2/3
f 348/2/3 344/2/3 347/2/3
f 353/2/3 350/2/3 349/2/3
f 354/3/3 351/3/3 350/3/3
f 354/2/3 350/2/3 353/2/3
f 355/2/3 352/2/3 351/2/3
f 355/3/3 351/3/3 354/3/3
f 356/2/3 352/2/3 355/2/3
f 361/2/3 358/2/3 357/2/3
f 362/3/3 359/3/3 358/3/3
f 362/2/3 358/2/3 361/2/3
f 363/2/3 360/2/3 359/2/3
f 363/3/3 359/3/3 362/3/3
f 364/2/3 360/2/3 363/2/3
f 369/2/3 366/2/3 365/2/3
f 370/3/3 367/3/3 366/3/3
f 370/2/3 366/2/3 369/2/3
f 371/2/3 368/2/3 367/2/3
f 371/3/3 367/3/3 370/3/3
f 372/2/3 368/2/3 371/2/3
f 375/1/3 374/1/3 373/1/3
f 376/1/3 374/1/3 375/1/3
f 381/2/3 378/2/3 377/2/3
f 382/3/3 379/3/3 378/3/3
f 382/2/3 378/2/3 381/2/3
f 383/2/3 380/2/3 379/2/3
f 383/3/3 379/3/3 382/3/3
f 384/2/3 380/2/3 383/2/3
f 389/2/3 386/2/3 385/2/3
f 390/3/3 387/3/3 386/3/3
f 390/2/3 386/2/3 389/2/3
f 391/2/3 388/2/3 387/2/3
f 391/3/3 387/3/3 390/3/3
f 392/2/3 388/2/3 391/2/3
f 395/1/3 394/1/3 393/1/3
f 396/1/3 394/1/3 395/1/3
f 399/1/3 398/1/3 397/1/3
f 400/1/3 398/1/3 399/1/3
f 405/2/3 402/2/3 401/2/3
f 406/3/3 403/3/3 402/3/3
f 406/2/3 402/2/3 405/2/3
f 407/2/3 404/2/3 403/2/3
f 407/3/3 403/3/3 406/3/3
f 408/2/3 404/2/3 407/2/3
f 411/1/3 410/1/3 409/1/3
f 412/1/3 410/1/3 411/1/3
f 415/1/3 414/1/3 413/1/3
f 416/1/3 414/1/3 415/1/3
f 419/1/3 418/1/3 417/1/3
f 420/1/3 418/1/3 419/1/3
f 425/2/3 422/2/3 421/2/3
f 426/3/3 423/3/3 422/3/3
f 426/2/3 422/2/3 425/2/3
f 427/2/3 424/2/3 423/2/3
f 427/3/3 423/3/3 426/3/3
f 428/2/3 424/2/3 427/2/3
f 433/2/3 430/2/3 429/2/3
f 434/3/3 431/3/3 430/3/3
f 434/2/3 430/2/3 433/2/3
f 435/2/3 432/2/3 431/2/3
f 435/3/3 431/3/3 434/3/3
f 436/2/3 432/2/3 435/2/3
f 439/1/3 438/1/3 437/1/3
f 440/1/3 438/1/3 439/1/3
f 443/1/3 442/1/3 441/1/3
f 444/1/3 442/1/3 443/1/3
f 447/1/3 446/1/3 445/1/3
f 448/1/3 446/1/3 447/1/3
f 451/1/3 450/1/3 449/1/3
f 452/1/3 450/1/3 451/1/3
f 455/1/3 454/1/3 453/1/3
f 456/1/3 454/1/3 455/1/3
f 459/1/3 458/1/3 457/1/3
f 460/1/3 458/1/3 459/1/3
f 463/1/3 462/1/3 461/1/3
f 464/1/3 462/1/3 463/1/3
f 467/1/3 466/1/3 465/1/3
f 468/1/3 466/1/3 467/1/3
f 471/1/3 470/1/3 469/1/3
f 472/1/3 470/1/3 471/1/3
f 475/1/3 474/1/3 473/1/3
f 476/1/3 474/1/3 475/1/3
f 479/1/3 478/1/3 477/1/3
f 480/1/3 478/1/3 479/1/3
f 483/1/3 482/1/3 481/1/3
f 484/1/3 482/1/3 483/1/3
f 487/1/3 486/1/3 485/1/3
f 488/1/3 486/1/3 487/1/3
f 491/1/3 490/1/3 489/1/3
f 492/1/3 490/1/3 491/1/3
f 493/1/4 494/1/4 495/1/4
f 495/1/4 494/1/4 496/1/4
f 497/1/4 498/1/4 499/1/4
f 499/1/4 498/1/4 500/1/4
f 501/1/4 502/1/4 503/1/4
f 503/1/4 502/1/4 504/1/4
f 505/1/4 506/1/4 507/1/4
f 507/1/4 506/1/4 508/1/4
f 509/1/4 510/1/4 511/1/4
f 511/1/4 510/1/4 512/1/4
f 513/1/4 514/1/4 515/1/4
f 515/1/4 514/1/4 516/1/4
f 517/1/4 518/1/4 519/1/4
f 519/1/4 518/1/4 520/1/4
f 521/1/4 522/1/4 523/1/4
f 523/1/4 522/1/4 524/1/4
f 525/1/4 526/1/4 527/1/4
f 527/1/4 526/1/4 528/1/4
f 529/1/4 530/1/4 531/1/4
f 531/1/4 530/1/4 532/1/4
f 533/1/4 534/1/4 535/1/4
f 535/1/4 534/1/4 536/1/4
f 537/1/4 538/1/4 539/1/4
f 539/1/4 538/1/4 540/1/4
f 541/1/4 542/1/4 543/1/4
f 543/1/4 542/1/4 544/1/4
f 545/1/4 546/1/4 547/1/4
f 547/1/4 546/1/4 548/1/4
f 549/2/4 550/2/4 553/2/4
f 550/3/4 551/3/4 554/3/4
f 553/2/4 550/2/4 554/2/4
f 551/2/4 552/2/4 555/2/4
f 554/3/4 551/3/4 555/3/4
f 555/2/4 552/2/4 556/2/4
f 557/2/4 558/2/4 561/2/4
f 558/3/4 559/3/4 562/3/4
f 561/2/4 558/2/4 562/2/4
f 559/2/4 560/2/4 563/2/4
f 562/3/4 559/3/4 563/3/4
f 563/2/4 560/2/4 564/2/4
f 565/1/4 566/1/4 567/1/4
f 567/1/4 566/1/4 568/1/4
f 569/1/4 570/1/4 571/1/4
f 571/1/4 570/1/4 572/1/4
f 573/1/4 574/1/4 575/1/4
f 575/1/4 574/1/4 576/1/4
f 577/2/4 578/2/4 581/2/4
f 578/3/4 579/3/4 582/3/4
f 581/2/4 578/2/4 582/2/4
f 579/2/4 580/2/4 583/2/4
f 582/3/4 579/3/4 583/3/4
f 583/2/4 580/2/4 584/2/4
f 585/1/4 586/1/4 587/1/4
f 587/1/4 586/1/4 588/1/4
f 589/1/4 590/1/4 591/1/4
f 591/1/4 590/1/4 592/1/4
f 593/2/4 594/2/4 597/2/4
f 594/3/4 595/3/4 598/3/4
f 597/2/4 594/2/4 598/2/4
f 595/2/4 596/2/4 599/2/4
f 598/3/4 595/3/4 599/3/4
f 599/2/4 596/2/4 600/2/4
f 601/2/4 602/2/4 605/2/4
f 602/3/4 603/3/4 606/3/4
f 605/2/4 602/2/4 606/2/4
f 603/2/4 604/2/4 607/2/4
f 606/3/4 603/3/4 607/3/4
f 607/2/4 604/2/4 608/2/4
f 609/1/4 610/1/4 611/1/4
f 611/1/4 610/1/4 612/1/4
f 613/2/4 614/2/4 617/2/4
f 614/3/4 615/3/4 618/3/4
f 617/2/4 614/2/4 618/2/4
f 615/2/4 616/2/4 619/2/4
f 618/3/4 615/3/4 619/3/4
f 619/2/4 616/2/4 620/2/4
f 621/2/4 622/2/4 625/2/4
f 622/3/4 623/3/4 626/3/4
f 625/2/4 622/2/4 626/2/4
f 623/2/4 624/2/4 627/2/4
f 626/3/4 623/3/4 627/3/4
f 627/2/4 624/2/4 628/2/4
f 629/2/4 630/2/4 633/2/4
f 630/3/4 631/3/4 634/3/4
f 633/2/4 630/2/4 634/2/4
f 631/2/4 632/2/4 635/2/4
f 634/3/4 631/3/4 635/3/4
f 635/2/4 632/2/4 636/2/4
f 637/2/4 638/2/4 641/2/4
f 638/3/4 639/3/4 642/3/4
f 641/2/4 638/2/4 642/2/4
f 639/2/4 640/2/4 643/2/4
f 642/3/4 639/3/4 643/3/4
f 643/2/4 640/2/4 644/2/4
f 641/3/4 642/3/4 645/3/4
f 637/2/4 641/2/4 645/2/4
f 643/3/4 644/3/4 645/3/4
f 642/3/4 643/3/4 645/3/4
f 645/3/4 644/3/4 646/3/4
f 637/2/4 645/2/4 647/2/4
f 645/2/4 646/2/4 647/2/4
f 646/3/4 644/3/4 648/3/4
f 647/2/4 646/2/4 648/2/4
f 637/2/4 647/2/4 649/2/4
f 647/3/4 648/3/4 649/3/4
f 648/3/4 644/3/4 650/3/4
f 649/3/4 648/3/4 650/3/4
f 650/3/4 644/3/4 651/3/4
f 644/2/4 640/2/4 652/2/4
f 651/3/4 644/3/4 652/3/4
f 637/2/4 649/2/4 653/2/4
f 649/2/4 650/2/4 653/2/4
f 650/3/4 651/3/4 654/3/4
f 653/2/4 650/2/4 654/2/4
f 651/2/4 652/2/4 655/2/4
f 654/3/4 651/3/4 655/3/4
f 652/2/4 640/2/4 656/2/4
f 655/2/4 652/2/4 656/2/4
f 660/1/5 658/1/5 657/1/5
f 661/1/5 658/1/5 660/1/5
f 662/1/5 658/1/5 661/1/5
f 663/1/5 658/1/5 662/1/5
f 666/1/5 660/1/5 659/1/5
f 666/1/5 661/1/5 660/1/5
f 667/1/5 661/1/5 666/1/5
f 668/1/5 661/1/5 667/1/5
f 669/1/5 663/1/5 662/1/5
f 669/1/5 664/1/5 663/1/5
f 670/1/5 664/1/5 669/1/5
f 671/1/5 664/1/5 670/1/5
f 673/1/5 668/1/5 667/1/5
f 673/1/5 670/1/5 669/1/5
f 673/1/5 669/1/5 668/1/5
f 674/1/5 670/1/5 673/1/5
f 676/1/5 666/1/5 665/1/5
f 677/1/5 666/1/5 676/1/5
f 678/1/5 673/1/5 667/1/5
f 679/1/5 673/1/5 678/1/5
f 680/1/5 670/1/5 674/1/5
f 681/1/5 670/1/5 680/1/5
f 682/1/5 672/1/5 671/1/5
f 683/1/5 672/1/5 682/1/5
f 685/1/5 681/1/5 680/1/5
f 685/1/5 684/1/5 683/1/5
f 685/1/5 683/1/5 682/1/5
f 685/1/5 682/1/5 681/1/5
f 685/1/5 679/1/5 678/1/5
f 685/1/5 680/1/5 679/1/5
f 685/1/5 677/1/5 676/1/5
f 685/1/5 678/1/5 677/1/5
f 685/1/5 676/1/5 675/1/5
f 686/1/5 684/1/5 685/1/5
f 687/1/5 684/1/5 686/1/5
f 688/1/5 684/1/5 687/1/5
f 689/1/5 684/1/5 688/1/5
f 690/1/5 684/1/5 689/1/5
f 691/1/5 684/1/5 690/1/5
f 692/1/5 684/1/5 691/1/5
f 693/1/5 684/1/5 692/1/5
f 694/1/5 684/1/5 693/1/5
f 695/1/5 685/1/5 675/1/5
f 696/1/5 687/1/5 686/1/5
f 697/1/5 687/1/5 696/1/5
f 698/1/5 689/1/5 688/1/5
f 699/1/5 689/1/5 698/1/5
f 700/1/5 691/1/5 690/1/5
f 701/1/5 691/1/5 700/1/5
f 702/1/5 693/1/5 692/1/5
f 703/1/5 693/1/5 702/1/5
f 704/1/5 684/1/5 694/1/5
f 705/1/5 703/1/5 702/1/5
f 705/1/5 704/1/5 703/1/5
f 705/1/5 701/1/5 700/1/5
f 705/1/5 695/1/5 675/1/5
f 705/1/5 702/1/5 701/1/5
f 705/1/5 699/1/5 698/1/5
f 705/1/5 700/1/5 699/1/5
f 705/1/5 697/1/5 696/1/5
f 705/1/5 698/1/5 697/1/5
f 705/1/5 696/1/5 695/1/5
f 706/1/5 704/1/5 705/1/5
f 707/1/5 704/1/5 706/1/5
f 708/1/5 704/1/5 707/1/5
f 709/1/5 704/1/5 708/1/5
f 710/1/5 704/1/5 709/1/5
f 711/1/5 704/1/5 710/1/5
f 712/1/5 704/1/5 711/1/5
f 713/1/5 684/1/5 704/1/5
f 713/1/5 704/1/5 712/1/5
f 714/1/5 684/1/5 713/1/5
f 715/1/5 709/1/5 708/1/5
f 716/1/5 711/1/5 710/1/5
f 717/1/5 707/1/5 706/1/5
f 718/1/5 707/1/5 717/1/5
f 719/1/5 716/1/5 715/1/5
f 719/1/5 715/1/5 708/1/5
f 720/1/5 716/1/5 719/1/5
f 721/1/5 711/1/5 716/1/5
f 721/1/5 716/1/5 720/1/5
f 722/1/5 711/1/5 721/1/5
f 723/1/5 713/1/5 712/1/5
f 724/1/5 713/1/5 723/1/5
f 725/1/5 720/1/5 719/1/5
f 725/1/5 719/1/5 718/1/5
f 726/1/5 720/1/5 725/1/5
f 727/1/5 720/1/5 726/1/5
f 728/1/5 722/1/5 721/1/5
f 728/1/5 723/1/5 722/1/5
f 729/1/5 723/1/5 728/1/5
f 730/1/5 723/1/5 729/1/5
f 731/1/5 727/1/5 726/1/5
f 731/1/5 729/1/5 728/1/5
f 731/1/5 728/1/5 727/1/5
f 732/1/5 729/1/5 731/1/5
f 736/2/5 734/2/5 733/2/5
f 737/2/5 734/2/5 736/2/5
f 740/2/5 736/2/5 735/2/5
f 740/2/5 738/2/5 737/2/5
f 740/2/5 737/2/5 736/2/5
f 741/2/5 738/2/5 740/2/5
f 742/2/5 738/2/5 741/2/5
f 743/2/5 738/2/5 742/2/5
f 746/2/5 740/2/5 739/2/5
f 746/2/5 741/2/5 740/2/5
f 747/2/5 741/2/5 746/2/5
f 748/2/5 741/2/5 747/2/5
f 751/2/5 743/2/5 742/2/5
f 751/2/5 744/2/5 743/2/5
f 752/2/5 744/2/5 751/2/5
f 753/2/5 744/2/5 752/2/5
f 755/2/5 746/2/5 745/2/5
f 755/2/5 747/2/5 746/2/5
f 756/2/5 747/2/5 755/2/5
f 758/2/5 750/2/5 749/2/5
f 759/2/5 750/2/5 758/2/5
f 761/2/5 754/2/5 753/2/5
f 761/2/5 753/2/5 752/2/5
f 762/2/5 754/2/5 761/2/5
f 764/2/5 755/2/5 745/2/5
f 767/2/5 754/2/5 762/2/5
f 769/2/5 755/2/5 764/2/5
f 769/2/5 764/2/5 763/2/5
f 770/2/5 755/2/5 769/2/5
f 771/2/5 757/2/5 756/2/5
f 772/2/5 757/2/5 771/2/5
f 773/2/5 766/2/5 765/2/5
f 774/2/5 766/2/5 773/2/5
f 775/2/5 761/2/5 760/2/5
f 776/2/5 761/2/5 775/2/5
f 777/2/5 768/2/5 767/2/5
f 777/2/5 767/2/5 762/2/5
f 778/2/5 768/2/5 777/2/5
f 789/2/5 780/2/5 779/2/5
f 790/2/5 780/2/5 789/2/5
f 791/2/5 782/2/5 781/2/5
f 792/2/5 782/2/5 791/2/5
f 793/2/5 784/2/5 783/2/5
f 794/2/5 784/2/5 793/2/5
f 795/2/5 786/2/5 785/2/5
f 796/2/5 786/2/5 795/2/5
f 797/2/5 788/2/5 787/2/5
f 798/2/5 788/2/5 797/2/5
f 799/2/5 769/2/5 763/2/5
f 808/2/5 768/2/5 778/2/5
f 809/2/5 799/2/5 763/2/5
f 809/2/5 800/2/5 799/2/5
f 810/2/5 800/2/5 809/2/5
f 811/2/5 804/2/5 803/2/5
f 812/2/5 804/2/5 811/2/5
f 813/2/5 808/2/5 807/2/5
f 813/2/5 768/2/5 808/2/5
f 814/2/5 768/2/5 813/2/5
f 815/2/5 800/2/5 810/2/5
f 816/2/5 802/2/5 801/2/5
f 817/2/5 802/2/5 816/2/5
f 820/2/5 806/2/5 805/2/5
f 821/2/5 806/2/5 820/2/5
f 822/2/5 813/2/5 807/2/5
f 823/2/5 815/2/5 810/2/5
f 823/2/5 816/2/5 815/2/5
f 824/2/5 816/2/5 823/2/5
f 825/2/5 816/2/5 824/2/5
f 827/2/5 819/2/5 818/2/5
f 828/2/5 819/2/5 827/2/5
f 830/2/5 822/2/5 821/2/5
f 831/2/5 813/2/5 822/2/5
f 831/2/5 822/2/5 830/2/5
f 832/2/5 813/2/5 831/2/5
f 833/2/5 826/2/5 825/2/5
f 833/2/5 825/2/5 824/2/5
f 834/2/5 826/2/5 833/2/5
f 835/2/5 826/2/5 834/2/5
f 836/2/5 831/2/5 830/2/5
f 836/2/5 830/2/5 829/2/5
f 837/2/5 831/2/5 836/2/5
f 838/2/5 831/2/5 837/2/5
f 839/2/5 835/2/5 834/2/5
f 839/2/5 837/2/5 836/2/5
f 839/2/5 836/2/5 835/2/5
f 840/2/5 837/2/5 839/2/5
f 841/2/5 837/2/5 840/2/5
f 842/2/5 837/2/5 841/2/5
f 843/2/5 841/2/5 840/2/5
f 844/2/5 841/2/5 843/2/5
f 845/2/6 846/2/6 848/2/6
f 848/2/6 846/2/6 849/2/6
f 849/2/6 846/2/6 850/2/6
f 850/2/6 846/2/6 851/2/6
f 847/2/6 848/2/6 854/2/6
f 848/2/6 849/2/6 854/2/6
f 851/2/6 852/2/6 855/2/6
f 850/2/6 851/2/6 855/2/6
f 853/2/6 854/2/6 858/2/6
f 854/2/6 849/2/6 859/2/6
f 858/2/6 854/2/6 859/2/6
f 859/2/6 849/2/6 860/2/6
f 855/2/6 856/2/6 861/2/6
f 850/2/6 855/2/6 861/2/6
f 861/2/6 856/2/6 862/2/6
f 862/2/6 856/2/6 863/2/6
f 857/2/6 858/2/6 865/2/6
f 859/3/6 860/3/6 865/3/6
f 858/2/6 859/2/6 865/2/6
f 860/2/6 849/2/6 866/2/6
f 865/3/6 860/3/6 866/3/6
f 849/3/6 850/3/6 867/3/6
f 866/2/6 849/2/6 867/2/6
f 850/2/6 861/2/6 868/2/6
f 867/3/6 850/3/6 868/3/6
f 861/3/6 862/3/6 869/3/6
f 868/2/6 861/2/6 869/2/6
f 863/2/6 864/2/6 870/2/6
f 869/3/6 862/3/6 870/3/6
f 862/2/6 863/2/6 870/2/6
f 857/2/6 865/2/6 872/2/6
f 868/2/6 869/2/6 872/2/6
f 869/2/6 870/2/6 872/2/6
f 867/2/6 868/2/6 872/2/6
f 865/2/6 866/2/6 872/2/6
f 866/2/6 867/2/6 872/2/6
f 872/2/6 870/2/6 873/2/6
f 870/2/6 864/2/6 874/2/6
f 873/2/6 870/2/6 874/2/6
f 874/2/6 864/2/6 875/2/6
f 872/2/6 873/2/6 877/2/6
f 871/2/6 872/2/6 877/2/6
f 873/3/6 874/3/6 877/3/6
f 875/2/6 876/2/6 878/2/6
f 877/3/6 874/3/6 878/3/6
f 874/2/6 875/2/6 878/2/6
f 871/2/6 877/2/6 879/2/6
f 877/2/6 878/2/6 879/2/6
f 879/2/6 878/2/6 880/2/6
f 880/2/6 878/2/6 881/2/6
f 881/2/6 878/2/6 882/2/6
f 882/2/6 878/2/6 883/2/6
f 878/2/6 876/2/6 884/2/6
f 883/2/6 878/2/6 884/2/6
f 871/2/6 879/2/6 885/2/6
f 879/3/6 880/3/6 885/3/6
f 880/2/6 881/2/6 886/2/6
f 885/3/6 880/3/6 886/3/6
f 881/3/6 882/3/6 887/3/6
f 886/2/6 881/2/6 887/2/6
f 882/2/6 883/2/6 888/2/6
f 887/3/6 882/3/6 888/3/6
f 883/3/6 884/3/6 889/3/6
f 888/2/6 883/2/6 889/2/6
f 884/2/6 876/2/6 890/2/6
f 889/3/6 884/3/6 890/3/6
f 886/2/6 887/2/6 891/2/6
f 888/2/6 889/2/6 891/2/6
f 889/2/6 890/2/6 891/2/6
f 885/2/6 886/2/6 891/2/6
f 887/2/6 888/2/6 891/2/6
f 891/2/6 890/2/6 892/2/6
f 871/2/6 885/2/6 893/2/6
f 885/2/6 891/2/6 893/2/6
f 893/2/6 891/2/6 894/2/6
f 891/3/6 892/3/6 895/3/6
f 894/2/6 891/2/6 895/2/6
f 892/2/6 890/2/6 896/2/6
f 895/3/6 892/3/6 896/3/6
f 890/2/6 876/2/6 897/2/6
f 896/2/6 890/2/6 897/2/6
f 897/2/6 876/2/6 898/2/6
f 895/2/6 896/2/6 899/2/6
f 894/2/6 895/2/6 899/2/6
f 896/2/6 897/2/6 899/2/6
f 899/2/6 897/2/6 900/2/6
f 900/2/6 897/2/6 901/2/6
f 901/2/6 897/2/6 902/2/6
f 902/2/6 897/2/6 903/2/6
f 903/2/6 897/2/6 904/2/6
f 894/2/6 899/2/6 905/2/6
f 905/2/6 899/2/6 906/2/6
f 899/3/6 900/3/6 907/3/6
f 906/2/6 899/2/6 907/2/6
f 900/2/6 901/2/6 908/2/6
f 907/3/6 900/3/6 908/3/6
f 902/2/6 903/2/6 909/2/6
f 903/3/6 904/3/6 909/3/6
f 904/2/6 897/2/6 910/2/6
f 909/3/6 904/3/6 910/3/6
f 910/2/6 897/2/6 911/2/6
f 911/2/6 897/2/6 912/2/6
f 906/2/6 907/2/6 913/2/6
f 907/2/6 908/2/6 913/2/6
f 913/2/6 908/2/6 914/2/6
f 910/2/6 911/2/6 915/2/6
f 909/2/6 910/2/6 915/2/6
f 915/2/6 911/2/6 916/2/6
f 914/2/6 908/2/6 917/2/6
f 917/2/6 908/2/6 918/2/6
f 901/3/6 902/3/6 919/3/6
f 918/2/6 908/2/6 919/2/6
f 908/2/6 901/2/6 919/2/6
f 902/2/6 909/2/6 920/2/6
f 919/3/6 902/3/6 920/3/6
f 909/2/6 915/2/6 920/2/6
f 920/2/6 915/2/6 921/2/6
f 921/2/6 915/2/6 922/2/6
f 918/2/6 919/2/6 923/2/6
f 920/2/6 921/2/6 923/2/6
f 919/2/6 920/2/6 923/2/6
f 923/2/6 921/2/6 924/2/6
