# MagicaVoxel @ Ephtracy

# group
o 

# material
mtllib Robot.vox-13.mtl
usemtl palette

# normals
vn -1 0 0
vn 1 0 0
vn 0 0 1
vn 0 0 -1
vn 0 -1 0
vn 0 1 0

# texcoords
vt 0.939453 0.5
vt 0.978516 0.5

# verts
v -8.2 0 1.1
v -8.2 0 0.9
v -8.2 1.6 1.1
v -8.2 1.6 0.9
v -6.6 0 1.1
v -6.6 0 0.9
v -6.6 1.6 1.1
v -6.6 1.6 0.9
v -8.2 0 1.1
v -8.2 1.6 1.1
v -8 0.2 1.1
v -8 0.3 1.1
v -8 0.4 1.1
v -8 0.5 1.1
v -8 0.6 1.1
v -8 0.7 1.1
v -8 0.9 1.1
v -8 1 1.1
v -8 1.1 1.1
v -8 1.2 1.1
v -8 1.3 1.1
v -8 1.4 1.1
v -6.8 0.2 1.1
v -6.8 0.3 1.1
v -6.8 0.4 1.1
v -6.8 0.5 1.1
v -6.8 0.6 1.1
v -6.8 0.7 1.1
v -6.8 0.9 1.1
v -6.8 1 1.1
v -6.8 1.1 1.1
v -6.8 1.2 1.1
v -6.8 1.3 1.1
v -6.8 1.4 1.1
v -6.6 0 1.1
v -6.6 1.6 1.1
v -8.2 0 0.9
v -8.2 1.6 0.9
v -6.6 0 0.9
v -6.6 1.6 0.9
v -8.2 0 1.1
v -6.6 0 1.1
v -8.2 0 0.9
v -6.6 0 0.9
v -8.2 1.6 1.1
v -6.6 1.6 1.1
v -8.2 1.6 0.9
v -6.6 1.6 0.9

# faces
f 3/2/1 2/2/1 1/2/1
f 4/2/1 2/2/1 3/2/1
f 5/2/2 6/2/2 7/2/2
f 7/2/2 6/2/2 8/2/2
f 11/2/3 10/2/3 9/2/3
f 12/2/3 10/2/3 11/2/3
f 13/2/3 10/2/3 12/2/3
f 14/2/3 10/2/3 13/2/3
f 15/2/3 10/2/3 14/2/3
f 16/2/3 10/2/3 15/2/3
f 17/2/3 10/2/3 16/2/3
f 18/2/3 10/2/3 17/2/3
f 19/2/3 10/2/3 18/2/3
f 20/2/3 10/2/3 19/2/3
f 21/2/3 10/2/3 20/2/3
f 22/2/3 10/2/3 21/2/3
f 23/2/3 11/2/3 9/2/3
f 23/1/3 12/1/3 11/1/3
f 24/2/3 13/2/3 12/2/3
f 24/1/3 12/1/3 23/1/3
f 25/1/3 14/1/3 13/1/3
f 25/2/3 13/2/3 24/2/3
f 26/2/3 15/2/3 14/2/3
f 26/1/3 14/1/3 25/1/3
f 27/1/3 16/1/3 15/1/3
f 27/2/3 15/2/3 26/2/3
f 28/2/3 17/2/3 16/2/3
f 28/1/3 16/1/3 27/1/3
f 29/1/3 18/1/3 17/1/3
f 29/2/3 17/2/3 28/2/3
f 30/2/3 19/2/3 18/2/3
f 30/1/3 18/1/3 29/1/3
f 31/1/3 20/1/3 19/1/3
f 31/2/3 19/2/3 30/2/3
f 32/2/3 21/2/3 20/2/3
f 32/1/3 20/1/3 31/1/3
f 33/1/3 22/1/3 21/1/3
f 33/2/3 21/2/3 32/2/3
f 34/2/3 10/2/3 22/2/3
f 34/1/3 22/1/3 33/1/3
f 35/2/3 33/2/3 32/2/3
f 35/2/3 32/2/3 31/2/3
f 35/2/3 34/2/3 33/2/3
f 35/2/3 31/2/3 30/2/3
f 35/2/3 30/2/3 29/2/3
f 35/2/3 29/2/3 28/2/3
f 35/2/3 28/2/3 27/2/3
f 35/2/3 27/2/3 26/2/3
f 35/2/3 26/2/3 25/2/3
f 35/2/3 25/2/3 24/2/3
f 35/2/3 24/2/3 23/2/3
f 35/2/3 23/2/3 9/2/3
f 36/2/3 10/2/3 34/2/3
f 36/2/3 34/2/3 35/2/3
f 37/2/4 38/2/4 39/2/4
f 39/2/4 38/2/4 40/2/4
f 43/2/5 42/2/5 41/2/5
f 44/2/5 42/2/5 43/2/5
f 45/2/6 46/2/6 47/2/6
f 47/2/6 46/2/6 48/2/6
