# MagicaVoxel @ Ephtracy

# group
o 

# material
mtllib Robot.vox-41.mtl
usemtl palette

# normals
vn -1 0 0
vn 1 0 0
vn 0 0 1
vn 0 0 -1
vn 0 -1 0
vn 0 1 0

# texcoords
vt 0.916016 0.5
vt 0.947266 0.5
vt 0.978516 0.5

# verts
v 3.9 0 2.2
v 3.9 0 1.8
v 3.9 0.1 1.8
v 3.9 0.1 1.6
v 3.9 0.2 2.2
v 3.9 0.2 2.1
v 3.9 0.2 1.6
v 3.9 0.2 1.5
v 3.9 0.4 2.1
v 3.9 0.4 2
v 3.9 0.5 2
v 3.9 0.5 1.9
v 3.9 0.5 1.6
v 3.9 0.5 1.5
v 3.9 0.6 1.9
v 3.9 0.6 1.6
v 4 0 1.8
v 4 0 1.6
v 4 0.1 1.8
v 4 0.1 1.6
v 4 0.1 1.5
v 4 0.2 1.6
v 4 0.2 1.5
v 4 0.5 1.6
v 4 0.5 1.5
v 4 0.6 1.6
v 4 0.6 1.5
v 4.4 0.1 1.5
v 4.4 0.1 1.4
v 4.4 0.5 1.5
v 4.4 0.5 1.4
v 4.8 0.1 1.5
v 4.8 0.1 1.4
v 4.8 0.5 1.5
v 4.8 0.5 1.4
v 5.4 0.1 2.2
v 5.4 0.1 1.7
v 5.4 0.2 2.2
v 5.4 0.2 2.1
v 5.4 0.2 1.7
v 5.4 0.2 1.6
v 5.4 0.4 2.1
v 5.4 0.4 2
v 5.4 0.5 2
v 5.4 0.5 1.9
v 5.4 0.6 1.9
v 5.4 0.6 1.6
v 4 0.1 2.2
v 4 0.1 1.7
v 4 0.2 2.2
v 4 0.2 2.1
v 4 0.2 1.7
v 4 0.2 1.6
v 4 0.4 2.1
v 4 0.4 2
v 4 0.5 2
v 4 0.5 1.9
v 4 0.6 1.9
v 4 0.6 1.6
v 4.6 0.1 1.5
v 4.6 0.1 1.4
v 4.6 0.5 1.5
v 4.6 0.5 1.4
v 5 0.1 1.5
v 5 0.1 1.4
v 5 0.5 1.5
v 5 0.5 1.4
v 5.4 0 1.8
v 5.4 0 1.6
v 5.4 0.1 1.8
v 5.4 0.1 1.6
v 5.4 0.1 1.5
v 5.4 0.2 1.6
v 5.4 0.2 1.5
v 5.4 0.5 1.6
v 5.4 0.5 1.5
v 5.4 0.6 1.6
v 5.4 0.6 1.5
v 5.5 0 2.2
v 5.5 0 1.8
v 5.5 0.1 1.8
v 5.5 0.1 1.6
v 5.5 0.2 2.2
v 5.5 0.2 2.1
v 5.5 0.2 1.6
v 5.5 0.2 1.5
v 5.5 0.4 2.1
v 5.5 0.4 2
v 5.5 0.5 2
v 5.5 0.5 1.9
v 5.5 0.5 1.6
v 5.5 0.5 1.5
v 5.5 0.6 1.9
v 5.5 0.6 1.6
v 3.9 0 2.2
v 3.9 0.2 2.2
v 4 0.1 2.2
v 4 0.2 2.2
v 5.4 0.1 2.2
v 5.4 0.2 2.2
v 5.5 0 2.2
v 5.5 0.2 2.2
v 3.9 0.2 2.1
v 3.9 0.4 2.1
v 4 0.2 2.1
v 4 0.4 2.1
v 5.4 0.2 2.1
v 5.4 0.4 2.1
v 5.5 0.2 2.1
v 5.5 0.4 2.1
v 3.9 0.4 2
v 3.9 0.5 2
v 4 0.4 2
v 4 0.5 2
v 5.4 0.4 2
v 5.4 0.5 2
v 5.5 0.4 2
v 5.5 0.5 2
v 3.9 0.5 1.9
v 3.9 0.6 1.9
v 4 0.5 1.9
v 4 0.6 1.9
v 5.4 0.5 1.9
v 5.4 0.6 1.9
v 5.5 0.5 1.9
v 5.5 0.6 1.9
v 4 0.1 1.7
v 4 0.2 1.7
v 4.5 0.1 1.7
v 4.5 0.2 1.7
v 4.6 0.1 1.7
v 4.6 0.2 1.7
v 4.8 0.1 1.7
v 4.8 0.2 1.7
v 4.9 0.1 1.7
v 4.9 0.2 1.7
v 5.4 0.1 1.7
v 5.4 0.2 1.7
v 4 0.2 1.6
v 4 0.6 1.6
v 4.5 0.2 1.6
v 4.5 0.5 1.6
v 4.6 0.2 1.6
v 4.6 0.5 1.6
v 4.8 0.2 1.6
v 4.8 0.5 1.6
v 4.9 0.2 1.6
v 4.9 0.5 1.6
v 5.4 0.2 1.6
v 5.4 0.6 1.6
v 3.9 0 1.8
v 3.9 0.1 1.8
v 4 0 1.8
v 4 0.1 1.8
v 5.4 0 1.8
v 5.4 0.1 1.8
v 5.5 0 1.8
v 5.5 0.1 1.8
v 3.9 0.1 1.6
v 3.9 0.2 1.6
v 3.9 0.5 1.6
v 3.9 0.6 1.6
v 4 0 1.6
v 4 0.1 1.6
v 4 0.2 1.6
v 4 0.5 1.6
v 4 0.6 1.6
v 5.4 0 1.6
v 5.4 0.1 1.6
v 5.4 0.2 1.6
v 5.4 0.5 1.6
v 5.4 0.6 1.6
v 5.5 0.1 1.6
v 5.5 0.2 1.6
v 5.5 0.5 1.6
v 5.5 0.6 1.6
v 3.9 0.2 1.5
v 3.9 0.5 1.5
v 4 0.1 1.5
v 4 0.2 1.5
v 4 0.5 1.5
v 4 0.6 1.5
v 4.4 0.1 1.5
v 4.4 0.5 1.5
v 4.6 0.1 1.5
v 4.6 0.5 1.5
v 4.8 0.1 1.5
v 4.8 0.5 1.5
v 5 0.1 1.5
v 5 0.5 1.5
v 5.4 0.1 1.5
v 5.4 0.2 1.5
v 5.4 0.5 1.5
v 5.4 0.6 1.5
v 5.5 0.2 1.5
v 5.5 0.5 1.5
v 4.4 0.1 1.4
v 4.4 0.5 1.4
v 4.6 0.1 1.4
v 4.6 0.5 1.4
v 4.8 0.1 1.4
v 4.8 0.5 1.4
v 5 0.1 1.4
v 5 0.5 1.4
v 3.9 0 2.2
v 5.5 0 2.2
v 4.5 0 2
v 4.6 0 2
v 4.8 0 2
v 4.9 0 2
v 3.9 0 1.8
v 4 0 1.8
v 5.4 0 1.8
v 5.5 0 1.8
v 4.5 0 1.7
v 4.6 0 1.7
v 4.8 0 1.7
v 4.9 0 1.7
v 4 0 1.6
v 5.4 0 1.6
v 3.9 0.1 1.8
v 4 0.1 1.8
v 5.4 0.1 1.8
v 5.5 0.1 1.8
v 3.9 0.1 1.6
v 4 0.1 1.6
v 5.4 0.1 1.6
v 5.5 0.1 1.6
v 4 0.1 1.5
v 4.4 0.1 1.5
v 4.6 0.1 1.5
v 4.8 0.1 1.5
v 5 0.1 1.5
v 5.4 0.1 1.5
v 4.4 0.1 1.4
v 4.6 0.1 1.4
v 4.8 0.1 1.4
v 5 0.1 1.4
v 3.9 0.2 1.6
v 4 0.2 1.6
v 5.4 0.2 1.6
v 5.5 0.2 1.6
v 3.9 0.2 1.5
v 4 0.2 1.5
v 5.4 0.2 1.5
v 5.5 0.2 1.5
v 4 0.1 2.2
v 5.4 0.1 2.2
v 4.5 0.1 2
v 4.6 0.1 2
v 4.8 0.1 2
v 4.9 0.1 2
v 4 0.1 1.7
v 4.5 0.1 1.7
v 4.6 0.1 1.7
v 4.8 0.1 1.7
v 4.9 0.1 1.7
v 5.4 0.1 1.7
v 3.9 0.2 2.2
v 4 0.2 2.2
v 5.4 0.2 2.2
v 5.5 0.2 2.2
v 3.9 0.2 2.1
v 4 0.2 2.1
v 5.4 0.2 2.1
v 5.5 0.2 2.1
v 4 0.2 1.7
v 4.5 0.2 1.7
v 4.6 0.2 1.7
v 4.8 0.2 1.7
v 4.9 0.2 1.7
v 5.4 0.2 1.7
v 4 0.2 1.6
v 4.5 0.2 1.6
v 4.6 0.2 1.6
v 4.8 0.2 1.6
v 4.9 0.2 1.6
v 5.4 0.2 1.6
v 3.9 0.4 2.1
v 4 0.4 2.1
v 5.4 0.4 2.1
v 5.5 0.4 2.1
v 3.9 0.4 2
v 4 0.4 2
v 5.4 0.4 2
v 5.5 0.4 2
v 3.9 0.5 2
v 4 0.5 2
v 5.4 0.5 2
v 5.5 0.5 2
v 3.9 0.5 1.9
v 4 0.5 1.9
v 5.4 0.5 1.9
v 5.5 0.5 1.9
v 3.9 0.5 1.6
v 4 0.5 1.6
v 5.4 0.5 1.6
v 5.5 0.5 1.6
v 3.9 0.5 1.5
v 4 0.5 1.5
v 4.4 0.5 1.5
v 4.6 0.5 1.5
v 4.8 0.5 1.5
v 5 0.5 1.5
v 5.4 0.5 1.5
v 5.5 0.5 1.5
v 4.4 0.5 1.4
v 4.6 0.5 1.4
v 4.8 0.5 1.4
v 5 0.5 1.4
v 3.9 0.6 1.9
v 4 0.6 1.9
v 5.4 0.6 1.9
v 5.5 0.6 1.9
v 3.9 0.6 1.6
v 4 0.6 1.6
v 5.4 0.6 1.6
v 5.5 0.6 1.6
v 4 0.6 1.5
v 5.4 0.6 1.5

# faces
f 3/3/1 2/3/1 1/3/1
f 5/3/1 3/3/1 1/3/1
f 5/3/1 4/3/1 3/3/1
f 6/3/1 4/3/1 5/3/1
f 7/3/1 4/3/1 6/3/1
f 9/3/1 8/3/1 7/3/1
f 9/3/1 7/3/1 6/3/1
f 10/3/1 8/3/1 9/3/1
f 11/3/1 8/3/1 10/3/1
f 12/3/1 8/3/1 11/3/1
f 13/3/1 8/3/1 12/3/1
f 14/3/1 8/3/1 13/3/1
f 15/3/1 13/3/1 12/3/1
f 16/3/1 13/3/1 15/3/1
f 19/3/1 18/3/1 17/3/1
f 20/3/1 18/3/1 19/3/1
f 22/3/1 21/3/1 20/3/1
f 23/3/1 21/3/1 22/3/1
f 26/3/1 25/3/1 24/3/1
f 27/3/1 25/3/1 26/3/1
f 30/1/1 29/1/1 28/1/1
f 31/1/1 29/1/1 30/1/1
f 34/1/1 33/1/1 32/1/1
f 35/1/1 33/1/1 34/1/1
f 38/3/1 37/3/1 36/3/1
f 39/3/1 37/3/1 38/3/1
f 40/3/1 37/3/1 39/3/1
f 42/3/1 41/3/1 40/3/1
f 42/3/1 40/3/1 39/3/1
f 43/3/1 41/3/1 42/3/1
f 44/3/1 41/3/1 43/3/1
f 45/3/1 41/3/1 44/3/1
f 46/3/1 41/3/1 45/3/1
f 47/3/1 41/3/1 46/3/1
f 48/3/2 49/3/2 50/3/2
f 50/3/2 49/3/2 51/3/2
f 51/3/2 49/3/2 52/3/2
f 52/3/2 53/3/2 54/3/2
f 51/3/2 52/3/2 54/3/2
f 54/3/2 53/3/2 55/3/2
f 55/3/2 53/3/2 56/3/2
f 56/3/2 53/3/2 57/3/2
f 57/3/2 53/3/2 58/3/2
f 58/3/2 53/3/2 59/3/2
f 60/1/2 61/1/2 62/1/2
f 62/1/2 61/1/2 63/1/2
f 64/1/2 65/1/2 66/1/2
f 66/1/2 65/1/2 67/1/2
f 68/3/2 69/3/2 70/3/2
f 70/3/2 69/3/2 71/3/2
f 71/3/2 72/3/2 73/3/2
f 73/3/2 72/3/2 74/3/2
f 75/3/2 76/3/2 77/3/2
f 77/3/2 76/3/2 78/3/2
f 79/3/2 80/3/2 81/3/2
f 79/3/2 81/3/2 83/3/2
f 81/3/2 82/3/2 83/3/2
f 83/3/2 82/3/2 84/3/2
f 84/3/2 82/3/2 85/3/2
f 85/3/2 86/3/2 87/3/2
f 84/3/2 85/3/2 87/3/2
f 87/3/2 86/3/2 88/3/2
f 88/3/2 86/3/2 89/3/2
f 89/3/2 86/3/2 90/3/2
f 90/3/2 86/3/2 91/3/2
f 91/3/2 86/3/2 92/3/2
f 90/3/2 91/3/2 93/3/2
f 93/3/2 91/3/2 94/3/2
f 97/3/3 96/3/3 95/3/3
f 98/3/3 96/3/3 97/3/3
f 99/3/3 97/3/3 95/3/3
f 101/3/3 99/3/3 95/3/3
f 101/3/3 100/3/3 99/3/3
f 102/3/3 100/3/3 101/3/3
f 105/3/3 104/3/3 103/3/3
f 106/3/3 104/3/3 105/3/3
f 109/3/3 108/3/3 107/3/3
f 110/3/3 108/3/3 109/3/3
f 113/3/3 112/3/3 111/3/3
f 114/3/3 112/3/3 113/3/3
f 117/3/3 116/3/3 115/3/3
f 118/3/3 116/3/3 117/3/3
f 121/3/3 120/3/3 119/3/3
f 122/3/3 120/3/3 121/3/3
f 125/3/3 124/3/3 123/3/3
f 126/3/3 124/3/3 125/3/3
f 129/3/3 128/3/3 127/3/3
f 130/3/3 128/3/3 129/3/3
f 131/2/3 130/2/3 129/2/3
f 132/2/3 130/2/3 131/2/3
f 133/3/3 132/3/3 131/3/3
f 134/3/3 132/3/3 133/3/3
f 135/2/3 134/2/3 133/2/3
f 136/2/3 134/2/3 135/2/3
f 137/3/3 136/3/3 135/3/3
f 138/3/3 136/3/3 137/3/3
f 141/3/3 140/3/3 139/3/3
f 142/3/3 140/3/3 141/3/3
f 143/2/3 142/2/3 141/2/3
f 144/3/3 140/3/3 142/3/3
f 144/2/3 142/2/3 143/2/3
f 145/3/3 144/3/3 143/3/3
f 146/3/3 140/3/3 144/3/3
f 146/3/3 144/3/3 145/3/3
f 147/2/3 146/2/3 145/2/3
f 148/3/3 140/3/3 146/3/3
f 148/2/3 146/2/3 147/2/3
f 149/3/3 148/3/3 147/3/3
f 150/3/3 140/3/3 148/3/3
f 150/3/3 148/3/3 149/3/3
f 151/3/4 152/3/4 153/3/4
f 153/3/4 152/3/4 154/3/4
f 155/3/4 156/3/4 157/3/4
f 157/3/4 156/3/4 158/3/4
f 159/3/4 160/3/4 164/3/4
f 164/3/4 160/3/4 165/3/4
f 161/3/4 162/3/4 166/3/4
f 166/3/4 162/3/4 167/3/4
f 163/3/4 164/3/4 168/3/4
f 168/3/4 164/3/4 169/3/4
f 169/3/4 170/3/4 173/3/4
f 173/3/4 170/3/4 174/3/4
f 171/3/4 172/3/4 175/3/4
f 175/3/4 172/3/4 176/3/4
f 177/3/4 178/3/4 180/3/4
f 180/3/4 178/3/4 181/3/4
f 179/3/4 180/3/4 183/3/4
f 181/3/4 182/3/4 183/3/4
f 180/3/4 181/3/4 183/3/4
f 183/3/4 182/3/4 184/3/4
f 184/3/4 182/3/4 186/3/4
f 185/3/4 186/3/4 187/3/4
f 186/3/4 182/3/4 188/3/4
f 187/3/4 186/3/4 188/3/4
f 188/3/4 182/3/4 190/3/4
f 189/3/4 190/3/4 191/3/4
f 191/3/4 190/3/4 192/3/4
f 190/3/4 182/3/4 193/3/4
f 192/3/4 190/3/4 193/3/4
f 193/3/4 182/3/4 194/3/4
f 192/3/4 193/3/4 195/3/4
f 195/3/4 193/3/4 196/3/4
f 197/1/4 198/1/4 199/1/4
f 199/1/4 198/1/4 200/1/4
f 201/1/4 202/1/4 203/1/4
f 203/1/4 202/1/4 204/1/4
f 207/3/5 206/3/5 205/3/5
f 208/3/5 206/3/5 207/3/5
f 209/3/5 206/3/5 208/3/5
f 210/3/5 206/3/5 209/3/5
f 211/3/5 207/3/5 205/3/5
f 212/3/5 207/3/5 211/3/5
f 213/3/5 206/3/5 210/3/5
f 214/3/5 206/3/5 213/3/5
f 215/3/5 207/3/5 212/3/5
f 215/2/5 208/2/5 207/2/5
f 216/3/5 209/3/5 208/3/5
f 216/2/5 208/2/5 215/2/5
f 217/2/5 210/2/5 209/2/5
f 217/3/5 209/3/5 216/3/5
f 218/3/5 213/3/5 210/3/5
f 218/2/5 210/2/5 217/2/5
f 219/3/5 217/3/5 216/3/5
f 219/3/5 215/3/5 212/3/5
f 219/3/5 218/3/5 217/3/5
f 219/3/5 216/3/5 215/3/5
f 220/3/5 213/3/5 218/3/5
f 220/3/5 218/3/5 219/3/5
f 225/3/5 222/3/5 221/3/5
f 226/3/5 222/3/5 225/3/5
f 227/3/5 224/3/5 223/3/5
f 228/3/5 224/3/5 227/3/5
f 229/3/5 227/3/5 226/3/5
f 230/3/5 227/3/5 229/3/5
f 231/3/5 227/3/5 230/3/5
f 232/3/5 227/3/5 231/3/5
f 233/3/5 227/3/5 232/3/5
f 234/3/5 227/3/5 233/3/5
f 235/1/5 231/1/5 230/1/5
f 236/1/5 231/1/5 235/1/5
f 237/1/5 233/1/5 232/1/5
f 238/1/5 233/1/5 237/1/5
f 243/3/5 240/3/5 239/3/5
f 244/3/5 240/3/5 243/3/5
f 245/3/5 242/3/5 241/3/5
f 246/3/5 242/3/5 245/3/5
f 247/3/6 248/3/6 249/3/6
f 249/3/6 248/3/6 250/3/6
f 250/3/6 248/3/6 251/3/6
f 251/3/6 248/3/6 252/3/6
f 247/3/6 249/3/6 253/3/6
f 249/2/6 250/2/6 254/2/6
f 253/3/6 249/3/6 254/3/6
f 250/3/6 251/3/6 255/3/6
f 254/2/6 250/2/6 255/2/6
f 251/2/6 252/2/6 256/2/6
f 255/3/6 251/3/6 256/3/6
f 252/3/6 248/3/6 257/3/6
f 256/2/6 252/2/6 257/2/6
f 257/3/6 248/3/6 258/3/6
f 259/3/6 260/3/6 263/3/6
f 263/3/6 260/3/6 264/3/6
f 261/3/6 262/3/6 265/3/6
f 265/3/6 262/3/6 266/3/6
f 267/3/6 268/3/6 273/3/6
f 268/2/6 269/2/6 274/2/6
f 273/3/6 268/3/6 274/3/6
f 269/3/6 270/3/6 275/3/6
f 274/2/6 269/2/6 275/2/6
f 270/2/6 271/2/6 276/2/6
f 275/3/6 270/3/6 276/3/6
f 271/3/6 272/3/6 277/3/6
f 276/2/6 271/2/6 277/2/6
f 277/3/6 272/3/6 278/3/6
f 279/3/6 280/3/6 283/3/6
f 283/3/6 280/3/6 284/3/6
f 281/3/6 282/3/6 285/3/6
f 285/3/6 282/3/6 286/3/6
f 287/3/6 288/3/6 291/3/6
f 291/3/6 288/3/6 292/3/6
f 289/3/6 290/3/6 293/3/6
f 293/3/6 290/3/6 294/3/6
f 295/3/6 296/3/6 299/3/6
f 299/3/6 296/3/6 300/3/6
f 297/3/6 298/3/6 305/3/6
f 305/3/6 298/3/6 306/3/6
f 301/1/6 302/1/6 307/1/6
f 307/1/6 302/1/6 308/1/6
f 303/1/6 304/1/6 309/1/6
f 309/1/6 304/1/6 310/1/6
f 311/3/6 312/3/6 315/3/6
f 315/3/6 312/3/6 316/3/6
f 313/3/6 314/3/6 317/3/6
f 317/3/6 314/3/6 318/3/6
f 316/3/6 317/3/6 319/3/6
f 319/3/6 317/3/6 320/3/6
