# MagicaVoxel @ Ephtracy

# group
o 

# material
mtllib Robot.vox-42.mtl
usemtl palette

# normals
vn -1 0 0
vn 1 0 0
vn 0 0 1
vn 0 0 -1
vn 0 -1 0
vn 0 1 0

# texcoords
vt 0.791016 0.5
vt 0.794922 0.5
vt 0.798828 0.5
vt 0.916016 0.5
vt 0.939453 0.5
vt 0.947266 0.5
vt 0.970703 0.5
vt 0.978516 0.5

# verts
v -0.4 7.8 0.8
v -0.4 7.8 0.7
v -0.4 7.8 0.6
v -0.4 7.8 0.5
v -0.4 7.8 0.4
v -0.4 7.8 0.3
v -0.4 7.8 -0.7
v -0.4 7.8 -0.8
v -0.4 7.9 0.8
v -0.4 7.9 0.7
v -0.4 7.9 0.6
v -0.4 7.9 0.5
v -0.4 7.9 0.4
v -0.4 7.9 0.3
v -0.4 7.9 -0.7
v -0.4 7.9 -0.8
v -0.4 8.1 0.3
v -0.4 8.1 -0.8
v -0.4 8.2 0.4
v -0.4 8.2 0.3
v -0.4 8.2 0.2
v -0.4 8.2 0.1
v -0.4 8.2 0
v -0.4 8.2 -0.2
v -0.4 8.2 -0.3
v -0.4 8.2 -0.6
v -0.4 8.3 0.2
v -0.4 8.3 0.1
v -0.4 8.3 -0.1
v -0.4 8.3 -0.2
v -0.4 8.3 -0.3
v -0.4 8.4 0.4
v -0.4 8.4 0.3
v -0.4 8.4 0.2
v -0.4 8.4 0.1
v -0.4 8.4 0
v -0.4 8.4 -0.1
v -0.4 8.4 -0.2
v -0.4 8.4 -0.6
v -0.4 8.5 0.3
v -0.4 8.5 -0.8
v -0.3 8 0.4
v -0.3 8 -0.8
v -0.3 8.1 0.5
v -0.3 8.1 0.4
v -0.3 8.1 0.3
v -0.3 8.1 -0.8
v -0.3 8.2 0.4
v -0.3 8.2 0.3
v -0.3 8.4 0.4
v -0.3 8.4 0.3
v -0.3 8.5 0.5
v -0.3 8.5 0.4
v -0.3 8.5 0.3
v -0.3 8.5 -0.8
v -0.3 8.6 0.4
v -0.3 8.6 -0.8
v -0.2 7.9 0.3
v -0.2 7.9 -0.8
v -0.2 8 0.5
v -0.2 8 0.4
v -0.2 8 0.3
v -0.2 8 -0.8
v -0.2 8.1 0.5
v -0.2 8.1 0.4
v -0.2 8.2 0.6
v -0.2 8.2 0.5
v -0.2 8.4 0.6
v -0.2 8.4 0.5
v -0.2 8.5 0.5
v -0.2 8.5 0.4
v -0.2 8.6 0.5
v -0.2 8.6 0.4
v -0.2 8.6 0.3
v -0.2 8.6 -0.8
v -0.2 8.7 0.3
v -0.2 8.7 -0.8
v -0.1 7.9 0.7
v -0.1 7.9 0.6
v -0.1 7.9 0.5
v -0.1 7.9 0.4
v -0.1 7.9 0.3
v -0.1 8 0.8
v -0.1 8 0.7
v -0.1 8 0.5
v -0.1 8 0.4
v -0.1 8 0.3
v -0.1 8.1 0.6
v -0.1 8.1 0.5
v -0.1 8.2 0.6
v -0.1 8.2 0.5
v -0.1 8.3 0.8
v -0.1 8.3 0.7
v -0.1 8.4 0.7
v -0.1 8.4 0.6
v -0.1 8.4 0.5
v -0.1 8.5 0.6
v -0.1 8.5 0.5
v -0.1 8.6 0.4
v -0.1 8.6 0.3
v -0.1 8.7 0.4
v -0.1 8.7 0.3
v 0.1 8 -0.6
v 0.1 8 -0.7
v 0.1 8.1 -0.6
v 0.1 8.1 -0.7
v 0.1 8.5 -0.6
v 0.1 8.5 -0.7
v 0.1 8.6 -0.6
v 0.1 8.6 -0.7
v 0.2 8 -0.7
v 0.2 8 -0.8
v 0.2 8.1 -0.6
v 0.2 8.1 -0.7
v 0.2 8.1 -0.8
v 0.2 8.2 -0.6
v 0.2 8.2 -0.7
v 0.2 8.4 -0.6
v 0.2 8.4 -0.7
v 0.2 8.5 -0.6
v 0.2 8.5 -0.7
v 0.2 8.5 -0.8
v 0.2 8.6 -0.7
v 0.2 8.6 -0.8
v 0.3 8.1 -0.7
v 0.3 8.1 -0.8
v 0.3 8.2 -0.6
v 0.3 8.2 -0.7
v 0.3 8.4 -0.6
v 0.3 8.4 -0.7
v 0.3 8.5 -0.7
v 0.3 8.5 -0.8
v -0.3 8.1 -0.7
v -0.3 8.1 -0.8
v -0.3 8.2 -0.6
v -0.3 8.2 -0.7
v -0.3 8.4 -0.6
v -0.3 8.4 -0.7
v -0.3 8.5 -0.7
v -0.3 8.5 -0.8
v -0.2 8 -0.7
v -0.2 8 -0.8
v -0.2 8.1 -0.6
v -0.2 8.1 -0.7
v -0.2 8.1 -0.8
v -0.2 8.2 -0.6
v -0.2 8.2 -0.7
v -0.2 8.4 -0.6
v -0.2 8.4 -0.7
v -0.2 8.5 -0.6
v -0.2 8.5 -0.7
v -0.2 8.5 -0.8
v -0.2 8.6 -0.7
v -0.2 8.6 -0.8
v -0.1 8 -0.6
v -0.1 8 -0.7
v -0.1 8.1 -0.6
v -0.1 8.1 -0.7
v -0.1 8.5 -0.6
v -0.1 8.5 -0.7
v -0.1 8.6 -0.6
v -0.1 8.6 -0.7
v 0.1 7.9 0.7
v 0.1 7.9 0.6
v 0.1 7.9 0.5
v 0.1 7.9 0.4
v 0.1 7.9 0.3
v 0.1 8 0.8
v 0.1 8 0.7
v 0.1 8 0.5
v 0.1 8 0.4
v 0.1 8 0.3
v 0.1 8.1 0.6
v 0.1 8.1 0.5
v 0.1 8.2 0.6
v 0.1 8.2 0.5
v 0.1 8.3 0.8
v 0.1 8.3 0.7
v 0.1 8.4 0.7
v 0.1 8.4 0.6
v 0.1 8.4 0.5
v 0.1 8.5 0.6
v 0.1 8.5 0.5
v 0.1 8.6 0.4
v 0.1 8.6 0.3
v 0.1 8.7 0.4
v 0.1 8.7 0.3
v 0.2 7.9 0.3
v 0.2 7.9 -0.8
v 0.2 8 0.5
v 0.2 8 0.4
v 0.2 8 0.3
v 0.2 8 -0.8
v 0.2 8.1 0.5
v 0.2 8.1 0.4
v 0.2 8.2 0.6
v 0.2 8.2 0.5
v 0.2 8.4 0.6
v 0.2 8.4 0.5
v 0.2 8.5 0.5
v 0.2 8.5 0.4
v 0.2 8.6 0.5
v 0.2 8.6 0.4
v 0.2 8.6 0.3
v 0.2 8.6 -0.8
v 0.2 8.7 0.3
v 0.2 8.7 -0.8
v 0.3 8 0.4
v 0.3 8 -0.8
v 0.3 8.1 0.5
v 0.3 8.1 0.4
v 0.3 8.1 0.3
v 0.3 8.1 -0.8
v 0.3 8.2 0.4
v 0.3 8.2 0.3
v 0.3 8.4 0.4
v 0.3 8.4 0.3
v 0.3 8.5 0.5
v 0.3 8.5 0.4
v 0.3 8.5 0.3
v 0.3 8.5 -0.8
v 0.3 8.6 0.4
v 0.3 8.6 -0.8
v 0.4 7.8 0.8
v 0.4 7.8 0.7
v 0.4 7.8 0.6
v 0.4 7.8 0.5
v 0.4 7.8 0.4
v 0.4 7.8 0.3
v 0.4 7.8 -0.7
v 0.4 7.8 -0.8
v 0.4 7.9 0.8
v 0.4 7.9 0.7
v 0.4 7.9 0.6
v 0.4 7.9 0.5
v 0.4 7.9 0.4
v 0.4 7.9 0.3
v 0.4 7.9 -0.7
v 0.4 7.9 -0.8
v 0.4 8.1 0.3
v 0.4 8.1 -0.8
v 0.4 8.2 0.4
v 0.4 8.2 0.3
v 0.4 8.2 0.2
v 0.4 8.2 0.1
v 0.4 8.2 0
v 0.4 8.2 -0.6
v 0.4 8.3 0.2
v 0.4 8.3 0.1
v 0.4 8.4 0.4
v 0.4 8.4 0.3
v 0.4 8.4 0.2
v 0.4 8.4 0.1
v 0.4 8.4 0
v 0.4 8.4 -0.6
v 0.4 8.5 0.3
v 0.4 8.5 -0.8
v -0.4 7.8 0.8
v -0.4 7.9 0.8
v -0.1 8 0.8
v -0.1 8.3 0.8
v 0.1 8 0.8
v 0.1 8.3 0.8
v 0.4 7.8 0.8
v 0.4 7.9 0.8
v -0.1 7.9 0.7
v -0.1 8 0.7
v -0.1 8.3 0.7
v -0.1 8.4 0.7
v 0.1 7.9 0.7
v 0.1 8 0.7
v 0.1 8.3 0.7
v 0.1 8.4 0.7
v -0.2 8.2 0.6
v -0.2 8.4 0.6
v -0.1 8.2 0.6
v -0.1 8.4 0.6
v -0.1 8.5 0.6
v 0.1 8.2 0.6
v 0.1 8.4 0.6
v 0.1 8.5 0.6
v 0.2 8.2 0.6
v 0.2 8.4 0.6
v -0.3 8.1 0.5
v -0.3 8.5 0.5
v -0.2 8 0.5
v -0.2 8.1 0.5
v -0.2 8.2 0.5
v -0.2 8.4 0.5
v -0.2 8.5 0.5
v -0.2 8.6 0.5
v -0.1 8 0.5
v -0.1 8.1 0.5
v -0.1 8.2 0.5
v -0.1 8.4 0.5
v -0.1 8.5 0.5
v 0.1 8 0.5
v 0.1 8.1 0.5
v 0.1 8.2 0.5
v 0.1 8.4 0.5
v 0.1 8.5 0.5
v 0.2 8 0.5
v 0.2 8.1 0.5
v 0.2 8.2 0.5
v 0.2 8.4 0.5
v 0.2 8.5 0.5
v 0.2 8.6 0.5
v 0.3 8.1 0.5
v 0.3 8.5 0.5
v -0.4 8.2 0.4
v -0.4 8.4 0.4
v -0.3 8 0.4
v -0.3 8.1 0.4
v -0.3 8.2 0.4
v -0.3 8.4 0.4
v -0.3 8.5 0.4
v -0.3 8.6 0.4
v -0.2 8 0.4
v -0.2 8.1 0.4
v -0.2 8.5 0.4
v -0.2 8.6 0.4
v -0.1 8.6 0.4
v -0.1 8.7 0.4
v 0.1 8.6 0.4
v 0.1 8.7 0.4
v 0.2 8 0.4
v 0.2 8.1 0.4
v 0.2 8.5 0.4
v 0.2 8.6 0.4
v 0.3 8 0.4
v 0.3 8.1 0.4
v 0.3 8.2 0.4
v 0.3 8.4 0.4
v 0.3 8.5 0.4
v 0.3 8.6 0.4
v 0.4 8.2 0.4
v 0.4 8.4 0.4
v -0.4 8.1 0.3
v -0.4 8.2 0.3
v -0.4 8.4 0.3
v -0.4 8.5 0.3
v -0.3 8.1 0.3
v -0.3 8.2 0.3
v -0.3 8.4 0.3
v -0.3 8.5 0.3
v -0.2 7.9 0.3
v -0.2 8 0.3
v -0.2 8.6 0.3
v -0.2 8.7 0.3
v -0.1 7.9 0.3
v -0.1 8 0.3
v -0.1 8.6 0.3
v -0.1 8.7 0.3
v 0.1 7.9 0.3
v 0.1 8 0.3
v 0.1 8.6 0.3
v 0.1 8.7 0.3
v 0.2 7.9 0.3
v 0.2 8 0.3
v 0.2 8.6 0.3
v 0.2 8.7 0.3
v 0.3 8.1 0.3
v 0.3 8.2 0.3
v 0.3 8.4 0.3
v 0.3 8.5 0.3
v 0.4 8.1 0.3
v 0.4 8.2 0.3
v 0.4 8.4 0.3
v 0.4 8.5 0.3
v -0.3 8.2 -0.6
v -0.3 8.4 -0.6
v -0.2 8.1 -0.6
v -0.2 8.2 -0.6
v -0.2 8.4 -0.6
v -0.2 8.5 -0.6
v -0.1 8 -0.6
v -0.1 8.1 -0.6
v -0.1 8.2 -0.6
v -0.1 8.4 -0.6
v -0.1 8.5 -0.6
v -0.1 8.6 -0.6
v 0.1 8 -0.6
v 0.1 8.1 -0.6
v 0.1 8.2 -0.6
v 0.1 8.4 -0.6
v 0.1 8.5 -0.6
v 0.1 8.6 -0.6
v 0.2 8.1 -0.6
v 0.2 8.2 -0.6
v 0.2 8.4 -0.6
v 0.2 8.5 -0.6
v 0.3 8.2 -0.6
v 0.3 8.4 -0.6
v -0.3 8.1 -0.7
v -0.3 8.2 -0.7
v -0.3 8.4 -0.7
v -0.3 8.5 -0.7
v -0.2 8 -0.7
v -0.2 8.1 -0.7
v -0.2 8.2 -0.7
v -0.2 8.4 -0.7
v -0.2 8.5 -0.7
v -0.2 8.6 -0.7
v -0.1 8 -0.7
v -0.1 8.1 -0.7
v -0.1 8.5 -0.7
v -0.1 8.6 -0.7
v 0.1 8 -0.7
v 0.1 8.1 -0.7
v 0.1 8.5 -0.7
v 0.1 8.6 -0.7
v 0.2 8 -0.7
v 0.2 8.1 -0.7
v 0.2 8.2 -0.7
v 0.2 8.4 -0.7
v 0.2 8.5 -0.7
v 0.2 8.6 -0.7
v 0.3 8.1 -0.7
v 0.3 8.2 -0.7
v 0.3 8.4 -0.7
v 0.3 8.5 -0.7
v -0.4 7.8 -0.8
v -0.4 7.9 -0.8
v -0.4 8.1 -0.8
v -0.4 8.5 -0.8
v -0.3 8 -0.8
v -0.3 8.1 -0.8
v -0.3 8.5 -0.8
v -0.3 8.6 -0.8
v -0.2 7.9 -0.8
v -0.2 8 -0.8
v -0.2 8.1 -0.8
v -0.2 8.5 -0.8
v -0.2 8.6 -0.8
v -0.2 8.7 -0.8
v 0.2 7.9 -0.8
v 0.2 8 -0.8
v 0.2 8.1 -0.8
v 0.2 8.5 -0.8
v 0.2 8.6 -0.8
v 0.2 8.7 -0.8
v 0.3 8 -0.8
v 0.3 8.1 -0.8
v 0.3 8.5 -0.8
v 0.3 8.6 -0.8
v 0.4 7.8 -0.8
v 0.4 7.9 -0.8
v 0.4 8.1 -0.8
v 0.4 8.5 -0.8
v -0.4 7.8 0.8
v 0.4 7.8 0.8
v -0.4 7.8 0.7
v -0.3 7.8 0.7
v -0.1 7.8 0.7
v 0.1 7.8 0.7
v 0.3 7.8 0.7
v 0.4 7.8 0.7
v -0.4 7.8 0.6
v -0.3 7.8 0.6
v -0.1 7.8 0.6
v 0.1 7.8 0.6
v 0.3 7.8 0.6
v 0.4 7.8 0.6
v -0.4 7.8 0.5
v -0.3 7.8 0.5
v -0.1 7.8 0.5
v 0.1 7.8 0.5
v 0.3 7.8 0.5
v 0.4 7.8 0.5
v -0.4 7.8 0.4
v -0.3 7.8 0.4
v -0.1 7.8 0.4
v 0.1 7.8 0.4
v 0.3 7.8 0.4
v 0.4 7.8 0.4
v -0.4 7.8 0.3
v -0.3 7.8 0.3
v 0.3 7.8 0.3
v 0.4 7.8 0.3
v -0.4 7.8 -0.7
v -0.3 7.8 -0.7
v 0.3 7.8 -0.7
v 0.4 7.8 -0.7
v -0.4 7.8 -0.8
v 0.4 7.8 -0.8
v -0.1 8 0.8
v 0.1 8 0.8
v -0.1 8 0.7
v 0.1 8 0.7
v -0.2 8 0.5
v -0.1 8 0.5
v 0.1 8 0.5
v 0.2 8 0.5
v -0.3 8 0.4
v -0.2 8 0.4
v -0.1 8 0.4
v 0.1 8 0.4
v 0.2 8 0.4
v 0.3 8 0.4
v -0.2 8 0.3
v -0.1 8 0.3
v 0.1 8 0.3
v 0.2 8 0.3
v -0.3 8 -0.8
v -0.2 8 -0.8
v 0.2 8 -0.8
v 0.3 8 -0.8
v -0.3 8.1 0.5
v -0.2 8.1 0.5
v 0.2 8.1 0.5
v 0.3 8.1 0.5
v -0.3 8.1 0.4
v -0.2 8.1 0.4
v 0.2 8.1 0.4
v 0.3 8.1 0.4
v -0.4 8.1 0.3
v -0.3 8.1 0.3
v 0.3 8.1 0.3
v 0.4 8.1 0.3
v -0.4 8.1 -0.8
v -0.3 8.1 -0.8
v 0.3 8.1 -0.8
v 0.4 8.1 -0.8
v -0.2 8.2 0.6
v -0.1 8.2 0.6
v 0.1 8.2 0.6
v 0.2 8.2 0.6
v -0.2 8.2 0.5
v -0.1 8.2 0.5
v 0.1 8.2 0.5
v 0.2 8.2 0.5
v -0.4 8.2 0.4
v -0.3 8.2 0.4
v 0.3 8.2 0.4
v 0.4 8.2 0.4
v -0.4 8.2 0.3
v -0.3 8.2 0.3
v 0.3 8.2 0.3
v 0.4 8.2 0.3
v -0.3 8.4 -0.6
v -0.2 8.4 -0.6
v 0.2 8.4 -0.6
v 0.3 8.4 -0.6
v -0.3 8.4 -0.7
v -0.2 8.4 -0.7
v 0.2 8.4 -0.7
v 0.3 8.4 -0.7
v -0.2 8.5 -0.6
v -0.1 8.5 -0.6
v 0.1 8.5 -0.6
v 0.2 8.5 -0.6
v -0.3 8.5 -0.7
v -0.2 8.5 -0.7
v -0.1 8.5 -0.7
v 0.1 8.5 -0.7
v 0.2 8.5 -0.7
v 0.3 8.5 -0.7
v -0.3 8.5 -0.8
v -0.2 8.5 -0.8
v 0.2 8.5 -0.8
v 0.3 8.5 -0.8
v -0.1 8.6 -0.6
v 0.1 8.6 -0.6
v -0.2 8.6 -0.7
v -0.1 8.6 -0.7
v 0.1 8.6 -0.7
v 0.2 8.6 -0.7
v -0.2 8.6 -0.8
v 0.2 8.6 -0.8
v -0.4 7.9 0.8
v 0.4 7.9 0.8
v -0.4 7.9 0.7
v -0.3 7.9 0.7
v -0.1 7.9 0.7
v 0.1 7.9 0.7
v 0.3 7.9 0.7
v 0.4 7.9 0.7
v -0.4 7.9 0.6
v -0.3 7.9 0.6
v -0.1 7.9 0.6
v 0.1 7.9 0.6
v 0.3 7.9 0.6
v 0.4 7.9 0.6
v -0.4 7.9 0.5
v -0.3 7.9 0.5
v -0.1 7.9 0.5
v 0.1 7.9 0.5
v 0.3 7.9 0.5
v 0.4 7.9 0.5
v -0.4 7.9 0.4
v -0.3 7.9 0.4
v -0.1 7.9 0.4
v 0.1 7.9 0.4
v 0.3 7.9 0.4
v 0.4 7.9 0.4
v -0.4 7.9 0.3
v -0.3 7.9 0.3
v -0.2 7.9 0.3
v -0.1 7.9 0.3
v 0.1 7.9 0.3
v 0.2 7.9 0.3
v 0.3 7.9 0.3
v 0.4 7.9 0.3
v -0.4 7.9 -0.7
v -0.3 7.9 -0.7
v 0.3 7.9 -0.7
v 0.4 7.9 -0.7
v -0.4 7.9 -0.8
v -0.2 7.9 -0.8
v 0.2 7.9 -0.8
v 0.4 7.9 -0.8
v -0.1 8 -0.6
v 0.1 8 -0.6
v -0.2 8 -0.7
v -0.1 8 -0.7
v 0.1 8 -0.7
v 0.2 8 -0.7
v -0.2 8 -0.8
v 0.2 8 -0.8
v -0.2 8.1 -0.6
v -0.1 8.1 -0.6
v 0.1 8.1 -0.6
v 0.2 8.1 -0.6
v -0.3 8.1 -0.7
v -0.2 8.1 -0.7
v -0.1 8.1 -0.7
v 0.1 8.1 -0.7
v 0.2 8.1 -0.7
v 0.3 8.1 -0.7
v -0.3 8.1 -0.8
v -0.2 8.1 -0.8
v 0.2 8.1 -0.8
v 0.3 8.1 -0.8
v -0.3 8.2 -0.6
v -0.2 8.2 -0.6
v 0.2 8.2 -0.6
v 0.3 8.2 -0.6
v -0.3 8.2 -0.7
v -0.2 8.2 -0.7
v 0.2 8.2 -0.7
v 0.3 8.2 -0.7
v -0.1 8.3 0.8
v 0.1 8.3 0.8
v -0.1 8.3 0.7
v 0.1 8.3 0.7
v -0.1 8.4 0.7
v 0.1 8.4 0.7
v -0.2 8.4 0.6
v -0.1 8.4 0.6
v 0.1 8.4 0.6
v 0.2 8.4 0.6
v -0.2 8.4 0.5
v -0.1 8.4 0.5
v 0.1 8.4 0.5
v 0.2 8.4 0.5
v -0.4 8.4 0.4
v -0.3 8.4 0.4
v 0.3 8.4 0.4
v 0.4 8.4 0.4
v -0.4 8.4 0.3
v -0.3 8.4 0.3
v 0.3 8.4 0.3
v 0.4 8.4 0.3
v -0.1 8.5 0.6
v 0.1 8.5 0.6
v -0.3 8.5 0.5
v -0.2 8.5 0.5
v -0.1 8.5 0.5
v 0.1 8.5 0.5
v 0.2 8.5 0.5
v 0.3 8.5 0.5
v -0.3 8.5 0.4
v -0.2 8.5 0.4
v 0.2 8.5 0.4
v 0.3 8.5 0.4
v -0.4 8.5 0.3
v -0.3 8.5 0.3
v 0.3 8.5 0.3
v 0.4 8.5 0.3
v -0.4 8.5 -0.8
v -0.3 8.5 -0.8
v 0.3 8.5 -0.8
v 0.4 8.5 -0.8
v -0.2 8.6 0.5
v 0.2 8.6 0.5
v -0.3 8.6 0.4
v -0.2 8.6 0.4
v -0.1 8.6 0.4
v 0.1 8.6 0.4
v 0.2 8.6 0.4
v 0.3 8.6 0.4
v -0.2 8.6 0.3
v -0.1 8.6 0.3
v 0.1 8.6 0.3
v 0.2 8.6 0.3
v -0.3 8.6 -0.8
v -0.2 8.6 -0.8
v 0.2 8.6 -0.8
v 0.3 8.6 -0.8
v -0.1 8.7 0.4
v 0.1 8.7 0.4
v -0.2 8.7 0.3
v -0.1 8.7 0.3
v 0.1 8.7 0.3
v 0.2 8.7 0.3
v -0.1 8.7 0.1
v 0 8.7 0.1
v 0.1 8.7 0.1
v -0.1 8.7 0
v 0 8.7 0
v 0.1 8.7 0
v -0.1 8.7 -0.1
v 0 8.7 -0.1
v -0.1 8.7 -0.6
v 0.1 8.7 -0.6
v -0.2 8.7 -0.8
v 0.2 8.7 -0.8

# faces
f 9/7/1 2/7/1 1/7/1
f 10/6/1 3/6/1 2/6/1
f 10/7/1 2/7/1 9/7/1
f 11/7/1 4/7/1 3/7/1
f 11/6/1 3/6/1 10/6/1
f 12/6/1 5/6/1 4/6/1
f 12/7/1 4/7/1 11/7/1
f 13/7/1 6/7/1 5/7/1
f 13/6/1 5/6/1 12/6/1
f 14/5/1 7/5/1 6/5/1
f 14/7/1 6/7/1 13/7/1
f 15/7/1 8/7/1 7/7/1
f 15/5/1 7/5/1 14/5/1
f 16/7/1 8/7/1 15/7/1
f 20/8/1 18/8/1 17/8/1
f 21/8/1 18/8/1 20/8/1
f 22/8/1 18/8/1 21/8/1
f 23/8/1 18/8/1 22/8/1
f 24/8/1 18/8/1 23/8/1
f 25/8/1 18/8/1 24/8/1
f 26/8/1 18/8/1 25/8/1
f 27/8/1 20/8/1 19/8/1
f 27/8/1 21/8/1 20/8/1
f 27/3/1 22/3/1 21/3/1
f 28/8/1 23/8/1 22/8/1
f 28/3/1 22/3/1 27/3/1
f 29/4/1 24/4/1 23/4/1
f 30/7/1 25/7/1 24/7/1
f 30/4/1 24/4/1 29/4/1
f 31/4/1 26/4/1 25/4/1
f 31/7/1 25/7/1 30/7/1
f 32/8/1 27/8/1 19/8/1
f 33/8/1 27/8/1 32/8/1
f 34/2/1 28/2/1 27/2/1
f 34/8/1 27/8/1 33/8/1
f 35/8/1 23/8/1 28/8/1
f 35/2/1 28/2/1 34/2/1
f 36/4/1 29/4/1 23/4/1
f 36/8/1 23/8/1 35/8/1
f 37/7/1 30/7/1 29/7/1
f 37/4/1 29/4/1 36/4/1
f 38/4/1 31/4/1 30/4/1
f 38/7/1 30/7/1 37/7/1
f 39/8/1 18/8/1 26/8/1
f 39/4/1 31/4/1 38/4/1
f 39/4/1 26/4/1 31/4/1
f 40/8/1 38/8/1 37/8/1
f 40/8/1 36/8/1 35/8/1
f 40/8/1 39/8/1 38/8/1
f 40/8/1 37/8/1 36/8/1
f 40/8/1 34/8/1 33/8/1
f 40/8/1 35/8/1 34/8/1
f 41/8/1 18/8/1 39/8/1
f 41/8/1 39/8/1 40/8/1
f 45/8/1 43/8/1 42/8/1
f 46/8/1 43/8/1 45/8/1
f 47/8/1 43/8/1 46/8/1
f 48/8/1 45/8/1 44/8/1
f 48/8/1 46/8/1 45/8/1
f 49/8/1 46/8/1 48/8/1
f 50/8/1 48/8/1 44/8/1
f 52/8/1 50/8/1 44/8/1
f 52/8/1 51/8/1 50/8/1
f 53/8/1 51/8/1 52/8/1
f 54/8/1 51/8/1 53/8/1
f 56/8/1 54/8/1 53/8/1
f 56/8/1 55/8/1 54/8/1
f 57/8/1 55/8/1 56/8/1
f 62/8/1 59/8/1 58/8/1
f 63/8/1 59/8/1 62/8/1
f 64/8/1 61/8/1 60/8/1
f 65/8/1 61/8/1 64/8/1
f 68/8/1 67/8/1 66/8/1
f 69/8/1 67/8/1 68/8/1
f 72/8/1 71/8/1 70/8/1
f 73/8/1 71/8/1 72/8/1
f 76/8/1 75/8/1 74/8/1
f 77/8/1 75/8/1 76/8/1
f 84/5/1 79/5/1 78/5/1
f 84/5/1 80/5/1 79/5/1
f 84/5/1 81/5/1 80/5/1
f 85/5/1 81/5/1 84/5/1
f 86/8/1 82/8/1 81/8/1
f 86/5/1 81/5/1 85/5/1
f 87/8/1 82/8/1 86/8/1
f 88/5/1 85/5/1 84/5/1
f 88/5/1 84/5/1 83/5/1
f 89/5/1 85/5/1 88/5/1
f 90/5/1 88/5/1 83/5/1
f 90/8/1 89/8/1 88/8/1
f 91/8/1 89/8/1 90/8/1
f 92/5/1 90/5/1 83/5/1
f 93/5/1 90/5/1 92/5/1
f 94/5/1 90/5/1 93/5/1
f 95/5/1 90/5/1 94/5/1
f 97/8/1 96/8/1 95/8/1
f 98/8/1 96/8/1 97/8/1
f 101/8/1 100/8/1 99/8/1
f 102/8/1 100/8/1 101/8/1
f 105/1/1 104/1/1 103/1/1
f 106/1/1 104/1/1 105/1/1
f 109/1/1 108/1/1 107/1/1
f 110/1/1 108/1/1 109/1/1
f 114/8/1 112/8/1 111/8/1
f 115/8/1 112/8/1 114/8/1
f 116/1/1 114/1/1 113/1/1
f 117/1/1 114/1/1 116/1/1
f 120/1/1 119/1/1 118/1/1
f 121/1/1 119/1/1 120/1/1
f 123/8/1 122/8/1 121/8/1
f 124/8/1 122/8/1 123/8/1
f 128/8/1 126/8/1 125/8/1
f 129/8/1 128/8/1 127/8/1
f 130/8/1 126/8/1 128/8/1
f 130/8/1 128/8/1 129/8/1
f 131/8/1 126/8/1 130/8/1
f 132/8/1 126/8/1 131/8/1
f 133/8/2 134/8/2 136/8/2
f 135/8/2 136/8/2 137/8/2
f 136/8/2 134/8/2 138/8/2
f 137/8/2 136/8/2 138/8/2
f 138/8/2 134/8/2 139/8/2
f 139/8/2 134/8/2 140/8/2
f 141/8/2 142/8/2 144/8/2
f 144/8/2 142/8/2 145/8/2
f 143/1/2 144/1/2 146/1/2
f 146/1/2 144/1/2 147/1/2
f 148/1/2 149/1/2 150/1/2
f 150/1/2 149/1/2 151/1/2
f 151/8/2 152/8/2 153/8/2
f 153/8/2 152/8/2 154/8/2
f 155/1/2 156/1/2 157/1/2
f 157/1/2 156/1/2 158/1/2
f 159/1/2 160/1/2 161/1/2
f 161/1/2 160/1/2 162/1/2
f 163/5/2 164/5/2 169/5/2
f 164/5/2 165/5/2 169/5/2
f 165/5/2 166/5/2 169/5/2
f 169/5/2 166/5/2 170/5/2
f 166/8/2 167/8/2 171/8/2
f 170/5/2 166/5/2 171/5/2
f 171/8/2 167/8/2 172/8/2
f 169/5/2 170/5/2 173/5/2
f 168/5/2 169/5/2 173/5/2
f 173/5/2 170/5/2 174/5/2
f 168/5/2 173/5/2 175/5/2
f 173/8/2 174/8/2 175/8/2
f 175/8/2 174/8/2 176/8/2
f 168/5/2 175/5/2 177/5/2
f 177/5/2 175/5/2 178/5/2
f 178/5/2 175/5/2 179/5/2
f 179/5/2 175/5/2 180/5/2
f 180/8/2 181/8/2 182/8/2
f 182/8/2 181/8/2 183/8/2
f 184/8/2 185/8/2 186/8/2
f 186/8/2 185/8/2 187/8/2
f 188/8/2 189/8/2 192/8/2
f 192/8/2 189/8/2 193/8/2
f 190/8/2 191/8/2 194/8/2
f 194/8/2 191/8/2 195/8/2
f 196/8/2 197/8/2 198/8/2
f 198/8/2 197/8/2 199/8/2
f 200/8/2 201/8/2 202/8/2
f 202/8/2 201/8/2 203/8/2
f 204/8/2 205/8/2 206/8/2
f 206/8/2 205/8/2 207/8/2
f 208/8/2 209/8/2 211/8/2
f 211/8/2 209/8/2 212/8/2
f 212/8/2 209/8/2 213/8/2
f 210/8/2 211/8/2 214/8/2
f 211/8/2 212/8/2 214/8/2
f 214/8/2 212/8/2 215/8/2
f 210/8/2 214/8/2 216/8/2
f 210/8/2 216/8/2 218/8/2
f 216/8/2 217/8/2 218/8/2
f 218/8/2 217/8/2 219/8/2
f 219/8/2 217/8/2 220/8/2
f 219/8/2 220/8/2 222/8/2
f 220/8/2 221/8/2 222/8/2
f 222/8/2 221/8/2 223/8/2
f 224/7/2 225/7/2 232/7/2
f 225/6/2 226/6/2 233/6/2
f 232/7/2 225/7/2 233/7/2
f 226/7/2 227/7/2 234/7/2
f 233/6/2 226/6/2 234/6/2
f 227/6/2 228/6/2 235/6/2
f 234/7/2 227/7/2 235/7/2
f 228/7/2 229/7/2 236/7/2
f 235/6/2 228/6/2 236/6/2
f 229/5/2 230/5/2 237/5/2
f 236/7/2 229/7/2 237/7/2
f 230/7/2 231/7/2 238/7/2
f 237/5/2 230/5/2 238/5/2
f 238/7/2 231/7/2 239/7/2
f 240/8/2 241/8/2 243/8/2
f 243/8/2 241/8/2 244/8/2
f 244/8/2 241/8/2 245/8/2
f 245/8/2 241/8/2 246/8/2
f 246/8/2 241/8/2 247/8/2
f 242/8/2 243/8/2 248/8/2
f 243/8/2 244/8/2 248/8/2
f 244/3/2 245/3/2 248/3/2
f 245/8/2 246/8/2 249/8/2
f 248/3/2 245/3/2 249/3/2
f 242/8/2 248/8/2 250/8/2
f 250/8/2 248/8/2 251/8/2
f 248/2/2 249/2/2 252/2/2
f 251/8/2 248/8/2 252/8/2
f 249/8/2 246/8/2 253/8/2
f 252/2/2 249/2/2 253/2/2
f 246/4/2 247/4/2 254/4/2
f 253/8/2 246/8/2 254/8/2
f 247/8/2 241/8/2 255/8/2
f 254/4/2 247/4/2 255/4/2
f 253/8/2 254/8/2 256/8/2
f 252/8/2 253/8/2 256/8/2
f 254/8/2 255/8/2 256/8/2
f 251/8/2 252/8/2 256/8/2
f 255/8/2 241/8/2 257/8/2
f 256/8/2 255/8/2 257/8/2
f 262/5/3 261/5/3 260/5/3
f 263/5/3 261/5/3 262/5/3
f 264/7/3 259/7/3 258/7/3
f 265/7/3 259/7/3 264/7/3
f 270/5/3 267/5/3 266/5/3
f 271/5/3 267/5/3 270/5/3
f 272/5/3 269/5/3 268/5/3
f 273/5/3 269/5/3 272/5/3
f 276/8/3 275/8/3 274/8/3
f 277/8/3 275/8/3 276/8/3
f 280/8/3 278/8/3 277/8/3
f 281/8/3 278/8/3 280/8/3
f 282/8/3 280/8/3 279/8/3
f 283/8/3 280/8/3 282/8/3
f 287/8/3 285/8/3 284/8/3
f 288/8/3 285/8/3 287/8/3
f 289/8/3 285/8/3 288/8/3
f 290/8/3 285/8/3 289/8/3
f 292/8/3 287/8/3 286/8/3
f 292/8/3 288/8/3 287/8/3
f 293/8/3 288/8/3 292/8/3
f 294/8/3 288/8/3 293/8/3
f 295/8/3 291/8/3 290/8/3
f 295/8/3 290/8/3 289/8/3
f 296/8/3 291/8/3 295/8/3
f 301/8/3 291/8/3 296/8/3
f 302/8/3 299/8/3 298/8/3
f 302/8/3 298/8/3 297/8/3
f 303/8/3 299/8/3 302/8/3
f 304/8/3 299/8/3 303/8/3
f 305/8/3 301/8/3 300/8/3
f 306/8/3 291/8/3 301/8/3
f 306/8/3 301/8/3 305/8/3
f 307/8/3 291/8/3 306/8/3
f 308/8/3 304/8/3 303/8/3
f 308/8/3 305/8/3 304/8/3
f 308/8/3 306/8/3 305/8/3
f 309/8/3 306/8/3 308/8/3
f 314/8/3 311/8/3 310/8/3
f 315/8/3 311/8/3 314/8/3
f 318/8/3 313/8/3 312/8/3
f 319/8/3 313/8/3 318/8/3
f 320/8/3 317/8/3 316/8/3
f 321/8/3 317/8/3 320/8/3
f 324/8/3 323/8/3 322/8/3
f 325/8/3 323/8/3 324/8/3
f 330/8/3 327/8/3 326/8/3
f 331/8/3 327/8/3 330/8/3
f 334/8/3 329/8/3 328/8/3
f 335/8/3 329/8/3 334/8/3
f 336/8/3 333/8/3 332/8/3
f 337/8/3 333/8/3 336/8/3
f 342/8/3 339/8/3 338/8/3
f 343/8/3 339/8/3 342/8/3
f 344/8/3 341/8/3 340/8/3
f 345/8/3 341/8/3 344/8/3
f 350/8/3 347/8/3 346/8/3
f 351/8/3 347/8/3 350/8/3
f 352/8/3 349/8/3 348/8/3
f 353/8/3 349/8/3 352/8/3
f 358/8/3 355/8/3 354/8/3
f 359/8/3 355/8/3 358/8/3
f 360/8/3 357/8/3 356/8/3
f 361/8/3 357/8/3 360/8/3
f 366/8/3 363/8/3 362/8/3
f 367/8/3 363/8/3 366/8/3
f 368/8/3 365/8/3 364/8/3
f 369/8/3 365/8/3 368/8/3
f 370/1/4 371/1/4 373/1/4
f 373/1/4 371/1/4 374/1/4
f 372/1/4 373/1/4 377/1/4
f 373/2/4 374/2/4 378/2/4
f 377/1/4 373/1/4 378/1/4
f 374/1/4 375/1/4 379/1/4
f 378/2/4 374/2/4 379/2/4
f 379/1/4 375/1/4 380/1/4
f 376/1/4 377/1/4 382/1/4
f 377/2/4 378/2/4 383/2/4
f 382/1/4 377/1/4 383/1/4
f 378/3/4 379/3/4 384/3/4
f 383/2/4 378/2/4 384/2/4
f 379/2/4 380/2/4 385/2/4
f 384/3/4 379/3/4 385/3/4
f 380/1/4 381/1/4 386/1/4
f 385/2/4 380/2/4 386/2/4
f 386/1/4 381/1/4 387/1/4
f 383/1/4 384/1/4 388/1/4
f 384/2/4 385/2/4 389/2/4
f 388/1/4 384/1/4 389/1/4
f 385/1/4 386/1/4 390/1/4
f 389/2/4 385/2/4 390/2/4
f 390/1/4 386/1/4 391/1/4
f 389/1/4 390/1/4 392/1/4
f 392/1/4 390/1/4 393/1/4
f 394/1/4 395/1/4 399/1/4
f 399/1/4 395/1/4 400/1/4
f 396/1/4 397/1/4 401/1/4
f 401/1/4 397/1/4 402/1/4
f 398/1/4 399/1/4 404/1/4
f 404/1/4 399/1/4 405/1/4
f 402/1/4 403/1/4 406/1/4
f 406/1/4 403/1/4 407/1/4
f 408/1/4 409/1/4 412/1/4
f 412/1/4 409/1/4 413/1/4
f 410/1/4 411/1/4 416/1/4
f 416/1/4 411/1/4 417/1/4
f 413/1/4 414/1/4 418/1/4
f 418/1/4 414/1/4 419/1/4
f 415/1/4 416/1/4 420/1/4
f 420/1/4 416/1/4 421/1/4
f 424/8/4 425/8/4 427/8/4
f 427/8/4 425/8/4 428/8/4
f 422/7/4 423/7/4 430/7/4
f 426/8/4 427/8/4 431/8/4
f 431/8/4 427/8/4 432/8/4
f 428/8/4 429/8/4 433/8/4
f 433/8/4 429/8/4 434/8/4
f 422/7/4 430/7/4 436/7/4
f 430/8/4 431/8/4 436/8/4
f 436/8/4 431/8/4 437/8/4
f 434/8/4 435/8/4 440/8/4
f 440/8/4 435/8/4 441/8/4
f 437/8/4 438/8/4 442/8/4
f 442/8/4 438/8/4 443/8/4
f 439/8/4 440/8/4 444/8/4
f 444/8/4 440/8/4 445/8/4
f 422/7/4 436/7/4 446/7/4
f 446/7/4 436/7/4 447/7/4
f 443/8/4 444/8/4 448/8/4
f 448/8/4 444/8/4 449/8/4
f 452/7/5 451/7/5 450/7/5
f 453/7/5 451/7/5 452/7/5
f 454/7/5 451/7/5 453/7/5
f 455/7/5 451/7/5 454/7/5
f 456/7/5 451/7/5 455/7/5
f 457/7/5 451/7/5 456/7/5
f 458/6/5 453/6/5 452/6/5
f 459/5/5 454/5/5 453/5/5
f 459/6/5 453/6/5 458/6/5
f 460/7/5 455/7/5 454/7/5
f 460/5/5 454/5/5 459/5/5
f 461/5/5 456/5/5 455/5/5
f 461/7/5 455/7/5 460/7/5
f 462/6/5 457/6/5 456/6/5
f 462/5/5 456/5/5 461/5/5
f 463/6/5 457/6/5 462/6/5
f 464/7/5 459/7/5 458/7/5
f 464/7/5 460/7/5 459/7/5
f 464/7/5 463/7/5 462/7/5
f 464/7/5 462/7/5 461/7/5
f 464/7/5 461/7/5 460/7/5
f 465/7/5 463/7/5 464/7/5
f 466/7/5 463/7/5 465/7/5
f 467/7/5 463/7/5 466/7/5
f 468/7/5 463/7/5 467/7/5
f 469/7/5 463/7/5 468/7/5
f 470/6/5 465/6/5 464/6/5
f 471/5/5 466/5/5 465/5/5
f 471/6/5 465/6/5 470/6/5
f 472/7/5 467/7/5 466/7/5
f 472/5/5 466/5/5 471/5/5
f 473/5/5 468/5/5 467/5/5
f 473/7/5 467/7/5 472/7/5
f 474/6/5 469/6/5 468/6/5
f 474/5/5 468/5/5 473/5/5
f 475/6/5 469/6/5 474/6/5
f 476/7/5 471/7/5 470/7/5
f 476/7/5 472/7/5 471/7/5
f 476/7/5 475/7/5 474/7/5
f 476/7/5 474/7/5 473/7/5
f 476/7/5 473/7/5 472/7/5
f 477/7/5 475/7/5 476/7/5
f 478/7/5 475/7/5 477/7/5
f 479/7/5 475/7/5 478/7/5
f 480/5/5 477/5/5 476/5/5
f 481/7/5 478/7/5 477/7/5
f 481/5/5 477/5/5 480/5/5
f 482/5/5 479/5/5 478/5/5
f 482/7/5 478/7/5 481/7/5
f 483/5/5 479/5/5 482/5/5
f 484/7/5 481/7/5 480/7/5
f 484/7/5 482/7/5 481/7/5
f 484/7/5 483/7/5 482/7/5
f 485/7/5 483/7/5 484/7/5
f 488/5/5 487/5/5 486/5/5
f 489/5/5 487/5/5 488/5/5
f 495/8/5 491/8/5 490/8/5
f 496/8/5 491/8/5 495/8/5
f 497/8/5 493/8/5 492/8/5
f 498/8/5 493/8/5 497/8/5
f 500/8/5 496/8/5 495/8/5
f 500/8/5 495/8/5 494/8/5
f 501/8/5 496/8/5 500/8/5
f 502/8/5 499/8/5 498/8/5
f 502/8/5 498/8/5 497/8/5
f 503/8/5 499/8/5 502/8/5
f 504/8/5 500/8/5 494/8/5
f 505/8/5 500/8/5 504/8/5
f 506/8/5 499/8/5 503/8/5
f 507/8/5 499/8/5 506/8/5
f 512/8/5 509/8/5 508/8/5
f 513/8/5 509/8/5 512/8/5
f 514/8/5 511/8/5 510/8/5
f 515/8/5 511/8/5 514/8/5
f 520/8/5 517/8/5 516/8/5
f 521/8/5 517/8/5 520/8/5
f 522/8/5 519/8/5 518/8/5
f 523/8/5 519/8/5 522/8/5
f 528/8/5 525/8/5 524/8/5
f 529/8/5 525/8/5 528/8/5
f 530/8/5 527/8/5 526/8/5
f 531/8/5 527/8/5 530/8/5
f 536/8/5 533/8/5 532/8/5
f 537/8/5 533/8/5 536/8/5
f 538/8/5 535/8/5 534/8/5
f 539/8/5 535/8/5 538/8/5
f 544/1/5 541/1/5 540/1/5
f 545/1/5 541/1/5 544/1/5
f 546/1/5 543/1/5 542/1/5
f 547/1/5 543/1/5 546/1/5
f 553/1/5 549/1/5 548/1/5
f 554/1/5 549/1/5 553/1/5
f 555/1/5 551/1/5 550/1/5
f 556/1/5 551/1/5 555/1/5
f 558/8/5 553/8/5 552/8/5
f 559/8/5 553/8/5 558/8/5
f 560/8/5 557/8/5 556/8/5
f 561/8/5 557/8/5 560/8/5
f 565/8/5 563/8/5 562/8/5
f 566/8/5 563/8/5 565/8/5
f 568/8/5 565/8/5 564/8/5
f 568/8/5 567/8/5 566/8/5
f 568/8/5 566/8/5 565/8/5
f 569/8/5 567/8/5 568/8/5
f 570/7/6 571/7/6 572/7/6
f 572/7/6 571/7/6 573/7/6
f 573/7/6 571/7/6 574/7/6
f 574/7/6 571/7/6 575/7/6
f 575/7/6 571/7/6 576/7/6
f 576/7/6 571/7/6 577/7/6
f 572/6/6 573/6/6 578/6/6
f 573/5/6 574/5/6 579/5/6
f 578/6/6 573/6/6 579/6/6
f 579/5/6 574/5/6 580/5/6
f 575/5/6 576/5/6 581/5/6
f 576/6/6 577/6/6 582/6/6
f 581/5/6 576/5/6 582/5/6
f 582/6/6 577/6/6 583/6/6
f 579/7/6 580/7/6 584/7/6
f 578/7/6 579/7/6 584/7/6
f 584/7/6 580/7/6 585/7/6
f 585/7/6 580/7/6 586/7/6
f 582/7/6 583/7/6 587/7/6
f 581/7/6 582/7/6 587/7/6
f 587/7/6 583/7/6 588/7/6
f 588/7/6 583/7/6 589/7/6
f 584/6/6 585/6/6 590/6/6
f 585/5/6 586/5/6 591/5/6
f 590/6/6 585/6/6 591/6/6
f 591/5/6 586/5/6 592/5/6
f 587/5/6 588/5/6 593/5/6
f 588/6/6 589/6/6 594/6/6
f 593/5/6 588/5/6 594/5/6
f 594/6/6 589/6/6 595/6/6
f 591/7/6 592/7/6 596/7/6
f 590/7/6 591/7/6 596/7/6
f 596/7/6 592/7/6 597/7/6
f 597/7/6 592/7/6 598/7/6
f 598/7/6 592/7/6 599/7/6
f 594/7/6 595/7/6 600/7/6
f 593/7/6 594/7/6 600/7/6
f 600/7/6 595/7/6 601/7/6
f 601/7/6 595/7/6 602/7/6
f 602/7/6 595/7/6 603/7/6
f 596/5/6 597/5/6 604/5/6
f 597/7/6 598/7/6 605/7/6
f 604/5/6 597/5/6 605/5/6
f 602/5/6 603/5/6 606/5/6
f 601/7/6 602/7/6 606/7/6
f 606/5/6 603/5/6 607/5/6
f 604/7/6 605/7/6 608/7/6
f 605/7/6 598/7/6 609/7/6
f 608/7/6 605/7/6 609/7/6
f 601/7/6 606/7/6 610/7/6
f 606/7/6 607/7/6 610/7/6
f 610/7/6 607/7/6 611/7/6
f 612/8/6 613/8/6 615/8/6
f 615/8/6 613/8/6 616/8/6
f 614/8/6 615/8/6 618/8/6
f 616/8/6 617/8/6 618/8/6
f 615/8/6 616/8/6 618/8/6
f 618/8/6 617/8/6 619/8/6
f 620/1/6 621/1/6 625/1/6
f 625/1/6 621/1/6 626/1/6
f 622/1/6 623/1/6 627/1/6
f 627/1/6 623/1/6 628/1/6
f 624/8/6 625/8/6 630/8/6
f 630/8/6 625/8/6 631/8/6
f 628/8/6 629/8/6 632/8/6
f 632/8/6 629/8/6 633/8/6
f 634/1/6 635/1/6 638/1/6
f 638/1/6 635/1/6 639/1/6
f 636/1/6 637/1/6 640/1/6
f 640/1/6 637/1/6 641/1/6
f 642/5/6 643/5/6 644/5/6
f 644/5/6 643/5/6 645/5/6
f 646/5/6 647/5/6 649/5/6
f 649/5/6 647/5/6 650/5/6
f 648/8/6 649/8/6 652/8/6
f 652/8/6 649/8/6 653/8/6
f 650/8/6 651/8/6 654/8/6
f 654/8/6 651/8/6 655/8/6
f 656/8/6 657/8/6 660/8/6
f 660/8/6 657/8/6 661/8/6
f 658/8/6 659/8/6 662/8/6
f 662/8/6 659/8/6 663/8/6
f 664/8/6 665/8/6 668/8/6
f 668/8/6 665/8/6 669/8/6
f 666/8/6 667/8/6 672/8/6
f 672/8/6 667/8/6 673/8/6
f 670/8/6 671/8/6 674/8/6
f 674/8/6 671/8/6 675/8/6
f 676/8/6 677/8/6 680/8/6
f 680/8/6 677/8/6 681/8/6
f 678/8/6 679/8/6 682/8/6
f 682/8/6 679/8/6 683/8/6
f 684/8/6 685/8/6 687/8/6
f 687/8/6 685/8/6 688/8/6
f 688/8/6 685/8/6 689/8/6
f 689/8/6 685/8/6 690/8/6
f 686/8/6 687/8/6 692/8/6
f 687/8/6 688/8/6 692/8/6
f 692/8/6 688/8/6 693/8/6
f 690/8/6 691/8/6 694/8/6
f 689/8/6 690/8/6 694/8/6
f 694/8/6 691/8/6 695/8/6
f 686/8/6 692/8/6 696/8/6
f 696/8/6 692/8/6 697/8/6
f 695/8/6 691/8/6 698/8/6
f 698/8/6 691/8/6 699/8/6
f 700/8/6 701/8/6 703/8/6
f 703/8/6 701/8/6 704/8/6
f 702/8/6 703/8/6 706/8/6
f 704/8/6 705/8/6 706/8/6
f 703/8/6 704/8/6 706/8/6
f 706/8/6 705/8/6 707/8/6
f 707/8/6 705/8/6 708/8/6
f 702/8/6 706/8/6 709/8/6
f 706/4/6 707/4/6 709/4/6
f 707/7/6 708/7/6 710/7/6
f 709/4/6 707/4/6 710/4/6
f 708/8/6 705/8/6 711/8/6
f 710/7/6 708/7/6 711/7/6
f 709/7/6 710/7/6 712/7/6
f 702/8/6 709/8/6 712/8/6
f 710/4/6 711/4/6 713/4/6
f 712/7/6 710/7/6 713/7/6
f 702/8/6 712/8/6 714/8/6
f 712/4/6 713/4/6 714/4/6
f 711/8/6 705/8/6 715/8/6
f 714/4/6 713/4/6 715/4/6
f 713/4/6 711/4/6 715/4/6
f 702/8/6 714/8/6 716/8/6
f 714/8/6 715/8/6 716/8/6
f 715/8/6 705/8/6 717/8/6
f 716/8/6 715/8/6 717/8/6
