# MagicaVoxel @ Ephtracy

# group
o 

# material
mtllib Robot.vox-38.mtl
usemtl palette

# normals
vn -1 0 0
vn 1 0 0
vn 0 0 1
vn 0 0 -1
vn 0 -1 0
vn 0 1 0

# texcoords
vt 0.939453 0.5
vt 0.947266 0.5
vt 0.978516 0.5

# verts
v -3.5 0 0.3
v -3.5 0 0.2
v -3.5 0 -0.1
v -3.5 0.1 0.4
v -3.5 0.1 0.3
v -3.5 0.1 0.2
v -3.5 0.1 -0.1
v -3.5 0.1 -0.2
v -3.5 0.2 0.5
v -3.5 0.2 0.4
v -3.5 0.2 0.3
v -3.5 0.2 -0.1
v -3.5 0.2 -0.2
v -3.5 0.2 -0.3
v -3.5 0.4 0.5
v -3.5 0.4 0.4
v -3.5 0.5 0.5
v -3.5 0.5 0.4
v -3.5 0.5 -0.2
v -3.5 0.5 -0.3
v -3.5 0.6 0.5
v -3.5 0.6 0.4
v -3.5 0.6 0.3
v -3.5 0.6 -0.1
v -3.5 0.6 -0.2
v -3.5 0.6 -0.3
v -3.5 0.7 0.4
v -3.5 0.7 0.3
v -3.5 0.7 0.2
v -3.5 0.7 0.1
v -3.5 0.7 -0.1
v -3.5 0.7 -0.2
v -3.5 0.8 0.3
v -3.5 0.8 0.2
v -3.5 0.8 0.1
v -3.5 0.8 -0.1
v -3.4 0.3 0.2
v -3.4 0.3 0
v -3.4 0.5 0.2
v -3.4 0.5 0
v -3.3 0.1 0.3
v -3.3 0.1 0.1
v -3.3 0.1 0
v -3.3 0.1 -0.1
v -3.3 0.2 0.4
v -3.3 0.2 0.3
v -3.3 0.2 -0.1
v -3.3 0.2 -0.2
v -3.3 0.3 0.4
v -3.3 0.3 0.2
v -3.3 0.3 0.1
v -3.3 0.3 0
v -3.3 0.4 0.4
v -3.3 0.4 0.2
v -3.3 0.4 0
v -3.3 0.4 -0.2
v -3.3 0.5 0.4
v -3.3 0.5 0.2
v -3.3 0.5 0.1
v -3.3 0.5 0
v -3.3 0.5 -0.2
v -3.3 0.6 0.4
v -3.3 0.6 0.3
v -3.3 0.6 -0.1
v -3.3 0.6 -0.2
v -3.3 0.7 0.3
v -3.3 0.7 0.2
v -3.3 0.7 0.1
v -3.3 0.7 0
v -3.3 0.7 -0.1
v -3.1 0 0.3
v -3.1 0 0.2
v -3.1 0 0.1
v -3.1 0 -0.1
v -3.1 0.1 0.4
v -3.1 0.1 0.3
v -3.1 0.1 0.2
v -3.1 0.1 0.1
v -3.1 0.1 0
v -3.1 0.1 -0.1
v -3.1 0.1 -0.2
v -3.1 0.2 0.5
v -3.1 0.2 0.4
v -3.1 0.2 0.3
v -3.1 0.2 -0.1
v -3.1 0.2 -0.2
v -3.1 0.2 -0.3
v -3.1 0.3 0.5
v -3.1 0.3 0.4
v -3.1 0.3 0.2
v -3.1 0.3 0.1
v -3.1 0.3 0
v -3.1 0.3 -0.2
v -3.1 0.3 -0.3
v -3.1 0.4 0.5
v -3.1 0.4 0.4
v -3.1 0.4 0.2
v -3.1 0.4 0
v -3.1 0.4 -0.2
v -3.1 0.5 0.2
v -3.1 0.5 0.1
v -3.1 0.5 0
v -3.1 0.5 -0.2
v -3.1 0.6 0.5
v -3.1 0.6 0.4
v -3.1 0.6 0.3
v -3.1 0.6 -0.1
v -3.1 0.6 -0.2
v -3.1 0.6 -0.3
v -3.1 0.7 0.4
v -3.1 0.7 0.3
v -3.1 0.7 0.2
v -3.1 0.7 0.1
v -3.1 0.7 -0.1
v -3.1 0.7 -0.2
v -3.1 0.8 0.3
v -3.1 0.8 0.2
v -3.1 0.8 -0.1
v -3.5 0.2 0.5
v -3.5 0.4 0.5
v -3.5 0.5 0.5
v -3.5 0.6 0.5
v -3.4 0.4 0.5
v -3.4 0.5 0.5
v -3.4 0.6 0.5
v -3.3 0.2 0.5
v -3.3 0.3 0.5
v -3.3 0.5 0.5
v -3.3 0.6 0.5
v -3.2 0.2 0.5
v -3.2 0.3 0.5
v -3.2 0.4 0.5
v -3.1 0.2 0.5
v -3.1 0.3 0.5
v -3.1 0.4 0.5
v -3.1 0.6 0.5
v -3.5 0.1 0.4
v -3.5 0.2 0.4
v -3.5 0.6 0.4
v -3.5 0.7 0.4
v -3.4 0.1 0.4
v -3.4 0.2 0.4
v -3.4 0.6 0.4
v -3.3 0.1 0.4
v -3.3 0.2 0.4
v -3.3 0.6 0.4
v -3.3 0.7 0.4
v -3.2 0.2 0.4
v -3.2 0.6 0.4
v -3.2 0.7 0.4
v -3.1 0.1 0.4
v -3.1 0.2 0.4
v -3.1 0.6 0.4
v -3.1 0.7 0.4
v -3.5 0 0.3
v -3.5 0.1 0.3
v -3.5 0.7 0.3
v -3.5 0.8 0.3
v -3.4 0 0.3
v -3.4 0.1 0.3
v -3.3 0.1 0.3
v -3.3 0.7 0.3
v -3.2 0.7 0.3
v -3.2 0.8 0.3
v -3.1 0 0.3
v -3.1 0.1 0.3
v -3.1 0.7 0.3
v -3.1 0.8 0.3
v -3.4 0.3 0.2
v -3.4 0.5 0.2
v -3.3 0.3 0.2
v -3.3 0.4 0.2
v -3.3 0.5 0.2
v -3.5 0.1 -0.1
v -3.5 0.2 -0.1
v -3.5 0.6 -0.1
v -3.5 0.7 -0.1
v -3.4 0.1 -0.1
v -3.4 0.2 -0.1
v -3.3 0.1 -0.1
v -3.3 0.2 -0.1
v -3.3 0.6 -0.1
v -3.3 0.7 -0.1
v -3.5 0.2 -0.2
v -3.5 0.5 -0.2
v -3.5 0.6 -0.2
v -3.4 0.2 -0.2
v -3.4 0.4 -0.2
v -3.4 0.5 -0.2
v -3.4 0.6 -0.2
v -3.3 0.2 -0.2
v -3.3 0.4 -0.2
v -3.3 0.5 -0.2
v -3.3 0.6 -0.2
v -3.5 0.2 0.4
v -3.5 0.4 0.4
v -3.5 0.5 0.4
v -3.5 0.6 0.4
v -3.4 0.2 0.4
v -3.4 0.4 0.4
v -3.4 0.5 0.4
v -3.4 0.6 0.4
v -3.3 0.2 0.4
v -3.3 0.3 0.4
v -3.3 0.4 0.4
v -3.3 0.5 0.4
v -3.3 0.6 0.4
v -3.5 0.1 0.3
v -3.5 0.2 0.3
v -3.5 0.6 0.3
v -3.5 0.7 0.3
v -3.4 0.1 0.3
v -3.4 0.2 0.3
v -3.3 0.1 0.3
v -3.3 0.2 0.3
v -3.3 0.6 0.3
v -3.3 0.7 0.3
v -3.4 0.3 0
v -3.4 0.5 0
v -3.3 0.3 0
v -3.3 0.4 0
v -3.3 0.5 0
v -3.5 0 -0.1
v -3.5 0.1 -0.1
v -3.5 0.7 -0.1
v -3.5 0.8 -0.1
v -3.4 0 -0.1
v -3.4 0.1 -0.1
v -3.3 0 -0.1
v -3.3 0.1 -0.1
v -3.3 0.7 -0.1
v -3.3 0.8 -0.1
v -3.2 0.7 -0.1
v -3.2 0.8 -0.1
v -3.1 0 -0.1
v -3.1 0.1 -0.1
v -3.1 0.7 -0.1
v -3.1 0.8 -0.1
v -3.5 0.1 -0.2
v -3.5 0.2 -0.2
v -3.5 0.6 -0.2
v -3.5 0.7 -0.2
v -3.4 0.1 -0.2
v -3.4 0.2 -0.2
v -3.4 0.6 -0.2
v -3.2 0.2 -0.2
v -3.2 0.6 -0.2
v -3.2 0.7 -0.2
v -3.1 0.1 -0.2
v -3.1 0.2 -0.2
v -3.1 0.6 -0.2
v -3.1 0.7 -0.2
v -3.5 0.2 -0.3
v -3.5 0.5 -0.3
v -3.5 0.6 -0.3
v -3.4 0.4 -0.3
v -3.4 0.5 -0.3
v -3.4 0.6 -0.3
v -3.3 0.3 -0.3
v -3.3 0.4 -0.3
v -3.3 0.5 -0.3
v -3.2 0.2 -0.3
v -3.2 0.3 -0.3
v -3.2 0.4 -0.3
v -3.1 0.2 -0.3
v -3.1 0.3 -0.3
v -3.1 0.6 -0.3
v -3.5 0 0.3
v -3.4 0 0.3
v -3.1 0 0.3
v -3.5 0 0.2
v -3.4 0 0.2
v -3.2 0 0.2
v -3.1 0 0.2
v -3.3 0 0.1
v -3.2 0 0.1
v -3.1 0 0.1
v -3.4 0 0
v -3.3 0 0
v -3.2 0 0
v -3.5 0 -0.1
v -3.4 0 -0.1
v -3.3 0 -0.1
v -3.1 0 -0.1
v -3.5 0.1 0.4
v -3.4 0.1 0.4
v -3.3 0.1 0.4
v -3.1 0.1 0.4
v -3.5 0.1 0.3
v -3.4 0.1 0.3
v -3.3 0.1 0.3
v -3.1 0.1 0.3
v -3.5 0.1 -0.1
v -3.4 0.1 -0.1
v -3.3 0.1 -0.1
v -3.1 0.1 -0.1
v -3.5 0.1 -0.2
v -3.4 0.1 -0.2
v -3.1 0.1 -0.2
v -3.5 0.2 0.5
v -3.3 0.2 0.5
v -3.2 0.2 0.5
v -3.1 0.2 0.5
v -3.5 0.2 0.4
v -3.4 0.2 0.4
v -3.3 0.2 0.4
v -3.2 0.2 0.4
v -3.1 0.2 0.4
v -3.5 0.2 -0.2
v -3.4 0.2 -0.2
v -3.2 0.2 -0.2
v -3.1 0.2 -0.2
v -3.5 0.2 -0.3
v -3.2 0.2 -0.3
v -3.1 0.2 -0.3
v -3.4 0.3 0.2
v -3.3 0.3 0.2
v -3.3 0.3 0.1
v -3.4 0.3 0
v -3.3 0.3 0
v -3.5 0.6 0.4
v -3.4 0.6 0.4
v -3.3 0.6 0.4
v -3.5 0.6 0.3
v -3.3 0.6 0.3
v -3.5 0.6 -0.1
v -3.3 0.6 -0.1
v -3.5 0.6 -0.2
v -3.4 0.6 -0.2
v -3.3 0.6 -0.2
v -3.5 0.7 0.3
v -3.3 0.7 0.3
v -3.5 0.7 0.2
v -3.4 0.7 0.2
v -3.3 0.7 0.2
v -3.5 0.7 0.1
v -3.4 0.7 0.1
v -3.3 0.7 0.1
v -3.4 0.7 0
v -3.3 0.7 0
v -3.5 0.7 -0.1
v -3.3 0.7 -0.1
v -3.5 0.1 0.3
v -3.4 0.1 0.3
v -3.3 0.1 0.3
v -3.5 0.1 0.2
v -3.4 0.1 0.2
v -3.3 0.1 0.1
v -3.4 0.1 0
v -3.3 0.1 0
v -3.5 0.1 -0.1
v -3.4 0.1 -0.1
v -3.3 0.1 -0.1
v -3.5 0.2 0.4
v -3.4 0.2 0.4
v -3.3 0.2 0.4
v -3.5 0.2 0.3
v -3.4 0.2 0.3
v -3.3 0.2 0.3
v -3.5 0.2 -0.1
v -3.4 0.2 -0.1
v -3.3 0.2 -0.1
v -3.5 0.2 -0.2
v -3.4 0.2 -0.2
v -3.3 0.2 -0.2
v -3.4 0.5 0.2
v -3.3 0.5 0.2
v -3.3 0.5 0.1
v -3.4 0.5 0
v -3.3 0.5 0
v -3.5 0.6 0.5
v -3.4 0.6 0.5
v -3.3 0.6 0.5
v -3.1 0.6 0.5
v -3.5 0.6 0.4
v -3.4 0.6 0.4
v -3.3 0.6 0.4
v -3.2 0.6 0.4
v -3.1 0.6 0.4
v -3.5 0.6 -0.2
v -3.4 0.6 -0.2
v -3.2 0.6 -0.2
v -3.1 0.6 -0.2
v -3.5 0.6 -0.3
v -3.4 0.6 -0.3
v -3.1 0.6 -0.3
v -3.5 0.7 0.4
v -3.3 0.7 0.4
v -3.2 0.7 0.4
v -3.1 0.7 0.4
v -3.5 0.7 0.3
v -3.3 0.7 0.3
v -3.2 0.7 0.3
v -3.1 0.7 0.3
v -3.5 0.7 -0.1
v -3.3 0.7 -0.1
v -3.2 0.7 -0.1
v -3.1 0.7 -0.1
v -3.5 0.7 -0.2
v -3.2 0.7 -0.2
v -3.1 0.7 -0.2
v -3.5 0.8 0.3
v -3.2 0.8 0.3
v -3.1 0.8 0.3
v -3.5 0.8 0.2
v -3.4 0.8 0.2
v -3.2 0.8 0.2
v -3.1 0.8 0.2
v -3.5 0.8 0.1
v -3.4 0.8 0.1
v -3.3 0.8 0.1
v -3.4 0.8 0
v -3.3 0.8 0
v -3.2 0.8 0
v -3.5 0.8 -0.1
v -3.3 0.8 -0.1
v -3.2 0.8 -0.1
v -3.1 0.8 -0.1

# faces
f 5/2/1 2/2/1 1/2/1
f 6/3/1 3/3/1 2/3/1
f 6/2/1 2/2/1 5/2/1
f 7/3/1 3/3/1 6/3/1
f 10/3/1 5/3/1 4/3/1
f 11/3/1 5/3/1 10/3/1
f 12/2/1 8/2/1 7/2/1
f 13/2/1 8/2/1 12/2/1
f 15/3/1 10/3/1 9/3/1
f 16/3/1 10/3/1 15/3/1
f 17/2/1 16/2/1 15/2/1
f 18/2/1 16/2/1 17/2/1
f 19/3/1 14/3/1 13/3/1
f 20/3/1 14/3/1 19/3/1
f 21/3/1 18/3/1 17/3/1
f 22/3/1 18/3/1 21/3/1
f 25/2/1 20/2/1 19/2/1
f 26/2/1 20/2/1 25/2/1
f 27/3/1 23/3/1 22/3/1
f 28/3/1 23/3/1 27/3/1
f 31/3/1 25/3/1 24/3/1
f 32/3/1 25/3/1 31/3/1
f 33/3/1 29/3/1 28/3/1
f 34/2/1 30/2/1 29/2/1
f 34/3/1 29/3/1 33/3/1
f 35/3/1 31/3/1 30/3/1
f 35/2/1 30/2/1 34/2/1
f 36/3/1 31/3/1 35/3/1
f 39/3/1 38/3/1 37/3/1
f 40/3/1 38/3/1 39/3/1
f 46/1/1 42/1/1 41/1/1
f 47/1/1 44/1/1 43/1/1
f 49/1/1 46/1/1 45/1/1
f 50/1/1 42/1/1 46/1/1
f 50/1/1 46/1/1 49/1/1
f 51/2/1 43/2/1 42/2/1
f 51/1/1 42/1/1 50/1/1
f 52/1/1 48/1/1 47/1/1
f 52/2/1 43/2/1 51/2/1
f 52/1/1 47/1/1 43/1/1
f 53/2/1 50/2/1 49/2/1
f 54/2/1 50/2/1 53/2/1
f 55/1/1 48/1/1 52/1/1
f 56/1/1 48/1/1 55/1/1
f 57/1/1 54/1/1 53/1/1
f 58/1/1 54/1/1 57/1/1
f 60/2/1 56/2/1 55/2/1
f 61/2/1 56/2/1 60/2/1
f 62/1/1 58/1/1 57/1/1
f 63/1/1 58/1/1 62/1/1
f 64/1/1 60/1/1 59/1/1
f 64/1/1 61/1/1 60/1/1
f 65/1/1 61/1/1 64/1/1
f 66/1/1 58/1/1 63/1/1
f 67/2/1 59/2/1 58/2/1
f 67/1/1 58/1/1 66/1/1
f 68/1/1 64/1/1 59/1/1
f 68/2/1 59/2/1 67/2/1
f 69/1/1 64/1/1 68/1/1
f 70/1/1 64/1/1 69/1/1
f 71/3/2 72/3/2 76/3/2
f 72/2/2 73/2/2 77/2/2
f 76/3/2 72/3/2 77/3/2
f 73/3/2 74/3/2 78/3/2
f 77/2/2 73/2/2 78/2/2
f 78/3/2 74/3/2 79/3/2
f 79/3/2 74/3/2 80/3/2
f 75/3/2 76/3/2 83/3/2
f 76/1/2 77/1/2 84/1/2
f 77/1/2 78/1/2 84/1/2
f 83/3/2 76/3/2 84/3/2
f 80/3/2 81/3/2 85/3/2
f 79/1/2 80/1/2 85/1/2
f 85/3/2 81/3/2 86/3/2
f 82/3/2 83/3/2 88/3/2
f 83/1/2 84/1/2 89/1/2
f 88/3/2 83/3/2 89/3/2
f 84/1/2 78/1/2 90/1/2
f 89/1/2 84/1/2 90/1/2
f 78/2/2 79/2/2 91/2/2
f 90/1/2 78/1/2 91/1/2
f 79/1/2 85/1/2 92/1/2
f 91/2/2 79/2/2 92/2/2
f 85/1/2 86/1/2 92/1/2
f 86/2/2 87/2/2 93/2/2
f 92/1/2 86/1/2 93/1/2
f 93/2/2 87/2/2 94/2/2
f 88/2/2 89/2/2 95/2/2
f 89/2/2 90/2/2 95/2/2
f 95/2/2 90/2/2 96/2/2
f 91/1/2 92/1/2 97/1/2
f 96/2/2 90/2/2 97/2/2
f 90/1/2 91/1/2 97/1/2
f 92/1/2 93/1/2 97/1/2
f 97/1/2 93/1/2 98/1/2
f 93/3/2 94/3/2 99/3/2
f 98/1/2 93/1/2 99/1/2
f 97/1/2 98/1/2 100/1/2
f 96/1/2 97/1/2 100/1/2
f 100/1/2 98/1/2 101/1/2
f 98/2/2 99/2/2 102/2/2
f 101/1/2 98/1/2 102/1/2
f 99/3/2 94/3/2 103/3/2
f 102/2/2 99/2/2 103/2/2
f 95/3/2 96/3/2 104/3/2
f 96/1/2 100/1/2 105/1/2
f 104/3/2 96/3/2 105/3/2
f 105/1/2 100/1/2 106/1/2
f 101/1/2 102/1/2 107/1/2
f 102/1/2 103/1/2 107/1/2
f 103/3/2 94/3/2 108/3/2
f 107/1/2 103/1/2 108/1/2
f 108/3/2 94/3/2 109/3/2
f 105/3/2 106/3/2 110/3/2
f 106/1/2 100/1/2 111/1/2
f 110/3/2 106/3/2 111/3/2
f 100/2/2 101/2/2 112/2/2
f 111/1/2 100/1/2 112/1/2
f 101/1/2 107/1/2 113/1/2
f 112/2/2 101/2/2 113/2/2
f 107/2/2 108/2/2 114/2/2
f 113/1/2 107/1/2 114/1/2
f 114/2/2 108/2/2 115/2/2
f 111/2/2 112/2/2 116/2/2
f 113/3/2 114/3/2 117/3/2
f 116/2/2 112/2/2 117/2/2
f 112/3/2 113/3/2 117/3/2
f 117/3/2 114/3/2 118/3/2
f 123/3/3 120/3/3 119/3/3
f 123/2/3 121/2/3 120/2/3
f 124/3/3 122/3/3 121/3/3
f 124/2/3 121/2/3 123/2/3
f 125/3/3 122/3/3 124/3/3
f 126/3/3 123/3/3 119/3/3
f 126/3/3 124/3/3 123/3/3
f 127/3/3 124/3/3 126/3/3
f 128/2/3 125/2/3 124/2/3
f 128/3/3 124/3/3 127/3/3
f 129/2/3 125/2/3 128/2/3
f 130/2/3 127/2/3 126/2/3
f 131/3/3 128/3/3 127/3/3
f 131/2/3 127/2/3 130/2/3
f 131/3/3 129/3/3 128/3/3
f 132/3/3 129/3/3 131/3/3
f 133/3/3 131/3/3 130/3/3
f 134/2/3 132/2/3 131/2/3
f 134/3/3 131/3/3 133/3/3
f 135/3/3 129/3/3 132/3/3
f 135/2/3 132/2/3 134/2/3
f 136/3/3 129/3/3 135/3/3
f 141/3/3 138/3/3 137/3/3
f 142/3/3 138/3/3 141/3/3
f 143/3/3 140/3/3 139/3/3
f 144/2/3 142/2/3 141/2/3
f 145/2/3 142/2/3 144/2/3
f 146/3/3 140/3/3 143/3/3
f 147/3/3 140/3/3 146/3/3
f 148/3/3 145/3/3 144/3/3
f 149/2/3 147/2/3 146/2/3
f 150/2/3 147/2/3 149/2/3
f 151/3/3 148/3/3 144/3/3
f 152/3/3 148/3/3 151/3/3
f 153/3/3 150/3/3 149/3/3
f 154/3/3 150/3/3 153/3/3
f 159/2/3 156/2/3 155/2/3
f 160/2/3 156/2/3 159/2/3
f 161/3/3 160/3/3 159/3/3
f 162/3/3 158/3/3 157/3/3
f 163/3/3 158/3/3 162/3/3
f 164/3/3 158/3/3 163/3/3
f 165/3/3 161/3/3 159/3/3
f 166/3/3 161/3/3 165/3/3
f 167/2/3 164/2/3 163/2/3
f 168/2/3 164/2/3 167/2/3
f 171/3/3 170/3/3 169/3/3
f 172/3/3 170/3/3 171/3/3
f 173/3/3 170/3/3 172/3/3
f 178/2/3 175/2/3 174/2/3
f 179/2/3 175/2/3 178/2/3
f 180/3/3 179/3/3 178/3/3
f 181/3/3 179/3/3 180/3/3
f 182/3/3 177/3/3 176/3/3
f 183/3/3 177/3/3 182/3/3
f 187/3/3 185/3/3 184/3/3
f 188/3/3 185/3/3 187/3/3
f 189/2/3 186/2/3 185/2/3
f 189/3/3 185/3/3 188/3/3
f 190/2/3 186/2/3 189/2/3
f 191/3/3 188/3/3 187/3/3
f 192/2/3 189/2/3 188/2/3
f 192/3/3 188/3/3 191/3/3
f 193/3/3 190/3/3 189/3/3
f 193/2/3 189/2/3 192/2/3
f 194/3/3 190/3/3 193/3/3
f 195/3/4 196/3/4 199/3/4
f 196/2/4 197/2/4 200/2/4
f 199/3/4 196/3/4 200/3/4
f 197/3/4 198/3/4 201/3/4
f 200/2/4 197/2/4 201/2/4
f 201/3/4 198/3/4 202/3/4
f 199/3/4 200/3/4 203/3/4
f 200/3/4 201/3/4 203/3/4
f 203/3/4 201/3/4 204/3/4
f 204/3/4 201/3/4 205/3/4
f 201/2/4 202/2/4 206/2/4
f 205/3/4 201/3/4 206/3/4
f 206/2/4 202/2/4 207/2/4
f 208/3/4 209/3/4 212/3/4
f 212/3/4 209/3/4 213/3/4
f 212/2/4 213/2/4 214/2/4
f 214/2/4 213/2/4 215/2/4
f 210/3/4 211/3/4 216/3/4
f 216/3/4 211/3/4 217/3/4
f 218/3/4 219/3/4 220/3/4
f 220/3/4 219/3/4 221/3/4
f 221/3/4 219/3/4 222/3/4
f 223/3/4 224/3/4 227/3/4
f 227/3/4 224/3/4 228/3/4
f 227/2/4 228/2/4 229/2/4
f 229/2/4 228/2/4 230/2/4
f 225/3/4 226/3/4 231/3/4
f 231/3/4 226/3/4 232/3/4
f 231/2/4 232/2/4 233/2/4
f 233/2/4 232/2/4 234/2/4
f 229/3/4 230/3/4 235/3/4
f 235/3/4 230/3/4 236/3/4
f 233/3/4 234/3/4 237/3/4
f 237/3/4 234/3/4 238/3/4
f 239/2/4 240/2/4 243/2/4
f 243/2/4 240/2/4 244/2/4
f 241/3/4 242/3/4 245/3/4
f 243/3/4 244/3/4 246/3/4
f 245/3/4 242/3/4 247/3/4
f 247/3/4 242/3/4 248/3/4
f 243/3/4 246/3/4 249/3/4
f 249/3/4 246/3/4 250/3/4
f 247/2/4 248/2/4 251/2/4
f 251/2/4 248/2/4 252/2/4
f 253/3/4 254/3/4 256/3/4
f 254/2/4 255/2/4 257/2/4
f 256/3/4 254/3/4 257/3/4
f 257/2/4 255/2/4 258/2/4
f 253/3/4 256/3/4 259/3/4
f 256/2/4 257/2/4 260/2/4
f 259/3/4 256/3/4 260/3/4
f 257/3/4 258/3/4 261/3/4
f 260/2/4 257/2/4 261/2/4
f 253/3/4 259/3/4 262/3/4
f 259/2/4 260/2/4 263/2/4
f 262/3/4 259/3/4 263/3/4
f 260/3/4 261/3/4 264/3/4
f 263/2/4 260/2/4 264/2/4
f 262/2/4 263/2/4 265/2/4
f 263/3/4 264/3/4 266/3/4
f 265/2/4 263/2/4 266/2/4
f 261/3/4 258/3/4 267/3/4
f 266/3/4 264/3/4 267/3/4
f 264/3/4 261/3/4 267/3/4
f 271/2/5 269/2/5 268/2/5
f 272/3/5 270/3/5 269/3/5
f 272/2/5 269/2/5 271/2/5
f 273/3/5 270/3/5 272/3/5
f 274/3/5 270/3/5 273/3/5
f 275/3/5 272/3/5 271/3/5
f 275/3/5 273/3/5 272/3/5
f 276/2/5 274/2/5 273/2/5
f 276/3/5 273/3/5 275/3/5
f 277/2/5 274/2/5 276/2/5
f 278/3/5 275/3/5 271/3/5
f 279/2/5 276/2/5 275/2/5
f 279/3/5 275/3/5 278/3/5
f 280/3/5 277/3/5 276/3/5
f 280/2/5 276/2/5 279/2/5
f 281/3/5 278/3/5 271/3/5
f 282/2/5 279/2/5 278/2/5
f 282/3/5 278/3/5 281/3/5
f 283/3/5 280/3/5 279/3/5
f 283/2/5 279/2/5 282/2/5
f 284/3/5 277/3/5 280/3/5
f 284/3/5 280/3/5 283/3/5
f 289/3/5 286/3/5 285/3/5
f 290/2/5 287/2/5 286/2/5
f 290/3/5 286/3/5 289/3/5
f 291/3/5 288/3/5 287/3/5
f 291/2/5 287/2/5 290/2/5
f 292/3/5 288/3/5 291/3/5
f 297/2/5 294/2/5 293/2/5
f 298/3/5 296/3/5 295/3/5
f 298/2/5 294/2/5 297/2/5
f 298/3/5 295/3/5 294/3/5
f 299/3/5 296/3/5 298/3/5
f 304/3/5 301/3/5 300/3/5
f 305/3/5 301/3/5 304/3/5
f 306/2/5 302/2/5 301/2/5
f 306/3/5 301/3/5 305/3/5
f 307/3/5 303/3/5 302/3/5
f 307/2/5 302/2/5 306/2/5
f 308/3/5 303/3/5 307/3/5
f 313/3/5 310/3/5 309/3/5
f 313/3/5 311/3/5 310/3/5
f 314/2/5 312/2/5 311/2/5
f 314/3/5 311/3/5 313/3/5
f 315/2/5 312/2/5 314/2/5
f 318/3/5 317/3/5 316/3/5
f 319/3/5 318/3/5 316/3/5
f 320/3/5 318/3/5 319/3/5
f 324/3/5 322/3/5 321/3/5
f 324/3/5 323/3/5 322/3/5
f 325/3/5 323/3/5 324/3/5
f 328/3/5 327/3/5 326/3/5
f 329/3/5 327/3/5 328/3/5
f 330/3/5 327/3/5 329/3/5
f 333/3/5 332/3/5 331/3/5
f 334/3/5 332/3/5 333/3/5
f 335/3/5 332/3/5 334/3/5
f 336/2/5 334/2/5 333/2/5
f 337/3/5 335/3/5 334/3/5
f 337/2/5 334/2/5 336/2/5
f 338/3/5 335/3/5 337/3/5
f 339/3/5 337/3/5 336/3/5
f 339/2/5 338/2/5 337/2/5
f 340/2/5 338/2/5 339/2/5
f 341/3/5 339/3/5 336/3/5
f 341/3/5 340/3/5 339/3/5
f 342/3/5 340/3/5 341/3/5
f 343/2/6 344/2/6 346/2/6
f 344/3/6 345/3/6 347/3/6
f 346/2/6 344/2/6 347/2/6
f 346/3/6 347/3/6 348/3/6
f 347/3/6 345/3/6 348/3/6
f 346/3/6 348/3/6 349/3/6
f 349/3/6 348/3/6 350/3/6
f 346/3/6 349/3/6 351/3/6
f 349/2/6 350/2/6 352/2/6
f 351/3/6 349/3/6 352/3/6
f 352/2/6 350/2/6 353/2/6
f 354/3/6 355/3/6 357/3/6
f 355/2/6 356/2/6 358/2/6
f 357/3/6 355/3/6 358/3/6
f 358/2/6 356/2/6 359/2/6
f 360/2/6 361/2/6 363/2/6
f 361/3/6 362/3/6 364/3/6
f 363/2/6 361/2/6 364/2/6
f 364/3/6 362/3/6 365/3/6
f 366/3/6 367/3/6 368/3/6
f 366/3/6 368/3/6 369/3/6
f 369/3/6 368/3/6 370/3/6
f 371/3/6 372/3/6 375/3/6
f 372/2/6 373/2/6 376/2/6
f 375/3/6 372/3/6 376/3/6
f 373/3/6 374/3/6 377/3/6
f 376/2/6 373/2/6 377/2/6
f 377/3/6 374/3/6 378/3/6
f 378/3/6 374/3/6 379/3/6
f 380/2/6 381/2/6 384/2/6
f 382/3/6 383/3/6 385/3/6
f 384/2/6 381/2/6 385/2/6
f 381/3/6 382/3/6 385/3/6
f 385/3/6 383/3/6 386/3/6
f 387/3/6 388/3/6 391/3/6
f 388/2/6 389/2/6 392/2/6
f 391/3/6 388/3/6 392/3/6
f 389/3/6 390/3/6 393/3/6
f 392/2/6 389/2/6 393/2/6
f 393/3/6 390/3/6 394/3/6
f 395/3/6 396/3/6 399/3/6
f 396/3/6 397/3/6 399/3/6
f 397/2/6 398/2/6 400/2/6
f 399/3/6 397/3/6 400/3/6
f 400/2/6 398/2/6 401/2/6
f 402/3/6 403/3/6 405/3/6
f 405/3/6 403/3/6 406/3/6
f 403/2/6 404/2/6 407/2/6
f 406/3/6 403/3/6 407/3/6
f 407/2/6 404/2/6 408/2/6
f 405/2/6 406/2/6 409/2/6
f 406/3/6 407/3/6 410/3/6
f 409/2/6 406/2/6 410/2/6
f 407/3/6 408/3/6 410/3/6
f 410/3/6 408/3/6 411/3/6
f 409/3/6 410/3/6 412/3/6
f 410/2/6 411/2/6 412/2/6
f 411/3/6 408/3/6 413/3/6
f 412/2/6 411/2/6 413/2/6
f 413/3/6 408/3/6 414/3/6
f 409/3/6 412/3/6 415/3/6
f 412/3/6 413/3/6 415/3/6
f 413/2/6 414/2/6 416/2/6
f 415/3/6 413/3/6 416/3/6
f 414/3/6 408/3/6 417/3/6
f 416/2/6 414/2/6 417/2/6
f 417/3/6 408/3/6 418/3/6
