# MagicaVoxel @ Ephtracy

# group
o 

# material
mtllib Robot.vox-45.mtl
usemtl palette

# normals
vn -1 0 0
vn 1 0 0
vn 0 0 1
vn 0 0 -1
vn 0 -1 0
vn 0 1 0

# texcoords
vt 0.939453 0.5
vt 0.970703 0.5
vt 0.982422 0.5

# verts
v -0.6 0.2 -3.2
v -0.6 0.2 -3.3
v -0.6 0.3 -3.1
v -0.6 0.3 -3.2
v -0.6 0.4 -3.2
v -0.6 0.4 -3.3
v -0.6 0.5 -3.1
v -0.6 0.5 -3.2
v -0.6 0.5 -3.3
v -0.4 0.2 -3
v -0.4 0.2 -3.2
v -0.4 0.3 -3.1
v -0.4 0.3 -3.2
v -0.4 0.5 -3
v -0.4 0.5 -3.1
v -0.3 0.1 -3.2
v -0.3 0.1 -3.3
v -0.3 0.2 -2.9
v -0.3 0.2 -3
v -0.3 0.2 -3.2
v -0.3 0.2 -3.3
v -0.3 0.5 -2.9
v -0.3 0.5 -3
v -0.2 0.2 -2.6
v -0.2 0.2 -2.9
v -0.2 0.3 -2.7
v -0.2 0.3 -2.9
v -0.2 0.5 -2.6
v -0.2 0.5 -2.7
v -0.2 0.5 -2.9
v -0.1 0.1 -2.9
v -0.1 0.1 -3.2
v -0.1 0.2 -2.9
v -0.1 0.2 -3.2
v -0.1 0.3 -2.5
v -0.1 0.3 -2.6
v -0.1 0.5 -2.5
v -0.1 0.5 -2.6
v 0.1 0.1 -2.9
v 0.1 0.1 -3.2
v 0.1 0.2 -2.9
v 0.1 0.2 -3.2
v 0.1 0.3 -2.5
v 0.1 0.3 -2.6
v 0.1 0.5 -2.5
v 0.1 0.5 -2.6
v 0.2 0.2 -2.6
v 0.2 0.2 -2.9
v 0.2 0.3 -2.7
v 0.2 0.3 -2.9
v 0.2 0.5 -2.6
v 0.2 0.5 -2.7
v 0.2 0.5 -2.9
v 0.3 0.1 -3.2
v 0.3 0.1 -3.3
v 0.3 0.2 -2.9
v 0.3 0.2 -3
v 0.3 0.2 -3.2
v 0.3 0.2 -3.3
v 0.3 0.5 -2.9
v 0.3 0.5 -3
v 0.4 0.2 -3
v 0.4 0.2 -3.2
v 0.4 0.3 -3.1
v 0.4 0.3 -3.2
v 0.4 0.5 -3
v 0.4 0.5 -3.1
v 0.6 0.2 -3.2
v 0.6 0.2 -3.3
v 0.6 0.3 -3.1
v 0.6 0.3 -3.2
v 0.6 0.4 -3.2
v 0.6 0.4 -3.3
v 0.6 0.5 -3.1
v 0.6 0.5 -3.2
v 0.6 0.5 -3.3
v -0.1 0.3 -2.5
v -0.1 0.5 -2.5
v 0.1 0.3 -2.5
v 0.1 0.5 -2.5
v -0.2 0.2 -2.6
v -0.2 0.5 -2.6
v -0.1 0.2 -2.6
v -0.1 0.3 -2.6
v -0.1 0.5 -2.6
v 0.1 0.2 -2.6
v 0.1 0.3 -2.6
v 0.1 0.5 -2.6
v 0.2 0.2 -2.6
v 0.2 0.5 -2.6
v -0.3 0.2 -2.9
v -0.3 0.5 -2.9
v -0.2 0.2 -2.9
v -0.2 0.3 -2.9
v -0.2 0.5 -2.9
v -0.1 0.1 -2.9
v -0.1 0.2 -2.9
v 0.1 0.1 -2.9
v 0.1 0.2 -2.9
v 0.2 0.2 -2.9
v 0.2 0.3 -2.9
v 0.2 0.5 -2.9
v 0.3 0.2 -2.9
v 0.3 0.5 -2.9
v -0.4 0.2 -3
v -0.4 0.5 -3
v -0.3 0.2 -3
v -0.3 0.5 -3
v 0.3 0.2 -3
v 0.3 0.5 -3
v 0.4 0.2 -3
v 0.4 0.5 -3
v -0.6 0.3 -3.1
v -0.6 0.5 -3.1
v -0.4 0.3 -3.1
v -0.4 0.5 -3.1
v 0.4 0.3 -3.1
v 0.4 0.5 -3.1
v 0.6 0.3 -3.1
v 0.6 0.5 -3.1
v -0.6 0.2 -3.2
v -0.6 0.3 -3.2
v -0.4 0.2 -3.2
v -0.4 0.3 -3.2
v -0.3 0.1 -3.2
v -0.3 0.2 -3.2
v -0.1 0.1 -3.2
v -0.1 0.2 -3.2
v 0.1 0.1 -3.2
v 0.1 0.2 -3.2
v 0.3 0.1 -3.2
v 0.3 0.2 -3.2
v 0.4 0.2 -3.2
v 0.4 0.3 -3.2
v 0.6 0.2 -3.2
v 0.6 0.3 -3.2
v -0.6 0.2 -3.3
v -0.6 0.4 -3.3
v -0.6 0.5 -3.3
v -0.3 0.1 -3.3
v -0.3 0.2 -3.3
v 0.3 0.1 -3.3
v 0.3 0.2 -3.3
v 0.6 0.2 -3.3
v 0.6 0.4 -3.3
v 0.6 0.5 -3.3
v -0.1 0.1 -2.9
v 0.1 0.1 -2.9
v -0.3 0.1 -3.2
v -0.1 0.1 -3.2
v 0.1 0.1 -3.2
v 0.3 0.1 -3.2
v -0.3 0.1 -3.3
v 0.3 0.1 -3.3
v -0.2 0.2 -2.6
v -0.1 0.2 -2.6
v 0.1 0.2 -2.6
v 0.2 0.2 -2.6
v -0.1 0.2 -2.7
v 0.1 0.2 -2.7
v -0.3 0.2 -2.9
v -0.2 0.2 -2.9
v -0.1 0.2 -2.9
v 0.1 0.2 -2.9
v 0.2 0.2 -2.9
v 0.3 0.2 -2.9
v -0.4 0.2 -3
v -0.3 0.2 -3
v 0.3 0.2 -3
v 0.4 0.2 -3
v -0.6 0.2 -3.2
v -0.4 0.2 -3.2
v -0.3 0.2 -3.2
v -0.1 0.2 -3.2
v 0.1 0.2 -3.2
v 0.3 0.2 -3.2
v 0.4 0.2 -3.2
v 0.6 0.2 -3.2
v -0.6 0.2 -3.3
v -0.3 0.2 -3.3
v 0.3 0.2 -3.3
v 0.6 0.2 -3.3
v -0.1 0.3 -2.5
v 0.1 0.3 -2.5
v -0.1 0.3 -2.6
v 0.1 0.3 -2.6
v -0.6 0.3 -3.1
v -0.4 0.3 -3.1
v 0.4 0.3 -3.1
v 0.6 0.3 -3.1
v -0.6 0.3 -3.2
v -0.4 0.3 -3.2
v 0.4 0.3 -3.2
v 0.6 0.3 -3.2
v -0.1 0.5 -2.5
v 0.1 0.5 -2.5
v -0.2 0.5 -2.6
v -0.1 0.5 -2.6
v 0.1 0.5 -2.6
v 0.2 0.5 -2.6
v -0.2 0.5 -2.7
v -0.1 0.5 -2.7
v 0.1 0.5 -2.7
v 0.2 0.5 -2.7
v -0.3 0.5 -2.9
v -0.2 0.5 -2.9
v -0.1 0.5 -2.9
v 0.1 0.5 -2.9
v 0.2 0.5 -2.9
v 0.3 0.5 -2.9
v -0.4 0.5 -3
v -0.3 0.5 -3
v -0.1 0.5 -3
v 0.1 0.5 -3
v 0.3 0.5 -3
v 0.4 0.5 -3
v -0.6 0.5 -3.1
v -0.4 0.5 -3.1
v -0.1 0.5 -3.1
v 0.1 0.5 -3.1
v 0.4 0.5 -3.1
v 0.6 0.5 -3.1
v -0.6 0.5 -3.2
v -0.1 0.5 -3.2
v 0.1 0.5 -3.2
v 0.6 0.5 -3.2
v -0.6 0.5 -3.3
v 0.6 0.5 -3.3

# faces
f 4/3/1 2/3/1 1/3/1
f 5/3/1 2/3/1 4/3/1
f 5/3/1 4/3/1 3/3/1
f 6/3/1 2/3/1 5/3/1
f 7/3/1 5/3/1 3/3/1
f 8/2/1 6/2/1 5/2/1
f 8/3/1 5/3/1 7/3/1
f 9/2/1 6/2/1 8/2/1
f 12/2/1 11/2/1 10/2/1
f 13/2/1 11/2/1 12/2/1
f 14/2/1 12/2/1 10/2/1
f 15/2/1 12/2/1 14/2/1
f 20/1/1 17/1/1 16/1/1
f 21/1/1 17/1/1 20/1/1
f 22/3/1 19/3/1 18/3/1
f 23/3/1 19/3/1 22/3/1
f 26/3/1 25/3/1 24/3/1
f 27/3/1 25/3/1 26/3/1
f 28/3/1 26/3/1 24/3/1
f 29/2/1 27/2/1 26/2/1
f 29/3/1 26/3/1 28/3/1
f 30/2/1 27/2/1 29/2/1
f 33/1/1 32/1/1 31/1/1
f 34/1/1 32/1/1 33/1/1
f 37/3/1 36/3/1 35/3/1
f 38/3/1 36/3/1 37/3/1
f 39/1/2 40/1/2 41/1/2
f 41/1/2 40/1/2 42/1/2
f 43/3/2 44/3/2 45/3/2
f 45/3/2 44/3/2 46/3/2
f 47/3/2 48/3/2 49/3/2
f 49/3/2 48/3/2 50/3/2
f 47/3/2 49/3/2 51/3/2
f 49/2/2 50/2/2 52/2/2
f 51/3/2 49/3/2 52/3/2
f 52/2/2 50/2/2 53/2/2
f 54/1/2 55/1/2 58/1/2
f 58/1/2 55/1/2 59/1/2
f 56/3/2 57/3/2 60/3/2
f 60/3/2 57/3/2 61/3/2
f 62/2/2 63/2/2 64/2/2
f 64/2/2 63/2/2 65/2/2
f 62/2/2 64/2/2 66/2/2
f 66/2/2 64/2/2 67/2/2
f 68/3/2 69/3/2 71/3/2
f 71/3/2 69/3/2 72/3/2
f 70/3/2 71/3/2 72/3/2
f 72/3/2 69/3/2 73/3/2
f 70/3/2 72/3/2 74/3/2
f 72/2/2 73/2/2 75/2/2
f 74/3/2 72/3/2 75/3/2
f 75/2/2 73/2/2 76/2/2
f 79/3/3 78/3/3 77/3/3
f 80/3/3 78/3/3 79/3/3
f 83/3/3 82/3/3 81/3/3
f 84/3/3 82/3/3 83/3/3
f 85/3/3 82/3/3 84/3/3
f 86/2/3 84/2/3 83/2/3
f 87/2/3 84/2/3 86/2/3
f 89/3/3 87/3/3 86/3/3
f 89/3/3 88/3/3 87/3/3
f 90/3/3 88/3/3 89/3/3
f 93/3/3 92/3/3 91/3/3
f 94/3/3 92/3/3 93/3/3
f 95/3/3 92/3/3 94/3/3
f 98/1/3 97/1/3 96/1/3
f 99/1/3 97/1/3 98/1/3
f 103/3/3 101/3/3 100/3/3
f 103/3/3 102/3/3 101/3/3
f 104/3/3 102/3/3 103/3/3
f 107/2/3 106/2/3 105/2/3
f 108/2/3 106/2/3 107/2/3
f 111/2/3 110/2/3 109/2/3
f 112/2/3 110/2/3 111/2/3
f 115/3/3 114/3/3 113/3/3
f 116/3/3 114/3/3 115/3/3
f 119/3/3 118/3/3 117/3/3
f 120/3/3 118/3/3 119/3/3
f 123/3/3 122/3/3 121/3/3
f 124/3/3 122/3/3 123/3/3
f 127/1/3 126/1/3 125/1/3
f 128/1/3 126/1/3 127/1/3
f 131/1/3 130/1/3 129/1/3
f 132/1/3 130/1/3 131/1/3
f 135/3/3 134/3/3 133/3/3
f 136/3/3 134/3/3 135/3/3
f 137/3/4 138/3/4 141/3/4
f 140/1/4 141/1/4 142/1/4
f 141/3/4 138/3/4 143/3/4
f 142/1/4 141/1/4 143/1/4
f 143/3/4 138/3/4 144/3/4
f 138/2/4 139/2/4 145/2/4
f 144/3/4 138/3/4 145/3/4
f 145/2/4 139/2/4 146/2/4
f 150/1/5 148/1/5 147/1/5
f 151/1/5 148/1/5 150/1/5
f 153/1/5 150/1/5 149/1/5
f 153/1/5 152/1/5 151/1/5
f 153/1/5 151/1/5 150/1/5
f 154/1/5 152/1/5 153/1/5
f 159/3/5 156/3/5 155/3/5
f 159/2/5 157/2/5 156/2/5
f 160/3/5 158/3/5 157/3/5
f 160/2/5 157/2/5 159/2/5
f 162/3/5 159/3/5 155/3/5
f 162/3/5 160/3/5 159/3/5
f 163/3/5 160/3/5 162/3/5
f 164/3/5 158/3/5 160/3/5
f 164/3/5 160/3/5 163/3/5
f 165/3/5 158/3/5 164/3/5
f 168/3/5 163/3/5 162/3/5
f 168/3/5 162/3/5 161/3/5
f 169/3/5 165/3/5 164/3/5
f 169/3/5 166/3/5 165/3/5
f 172/2/5 168/2/5 167/2/5
f 173/3/5 163/3/5 168/3/5
f 173/2/5 168/2/5 172/2/5
f 174/3/5 163/3/5 173/3/5
f 175/3/5 169/3/5 164/3/5
f 176/2/5 170/2/5 169/2/5
f 176/3/5 169/3/5 175/3/5
f 177/2/5 170/2/5 176/2/5
f 179/3/5 172/3/5 171/3/5
f 179/3/5 173/3/5 172/3/5
f 180/3/5 173/3/5 179/3/5
f 181/3/5 178/3/5 177/3/5
f 181/3/5 177/3/5 176/3/5
f 182/3/5 178/3/5 181/3/5
f 185/3/5 184/3/5 183/3/5
f 186/3/5 184/3/5 185/3/5
f 191/3/5 188/3/5 187/3/5
f 192/3/5 188/3/5 191/3/5
f 193/3/5 190/3/5 189/3/5
f 194/3/5 190/3/5 193/3/5
f 195/3/6 196/3/6 198/3/6
f 198/3/6 196/3/6 199/3/6
f 197/3/6 198/3/6 201/3/6
f 198/2/6 199/2/6 202/2/6
f 201/3/6 198/3/6 202/3/6
f 199/3/6 200/3/6 203/3/6
f 202/2/6 199/2/6 203/2/6
f 203/3/6 200/3/6 204/3/6
f 201/2/6 202/2/6 206/2/6
f 202/2/6 203/2/6 206/2/6
f 203/2/6 204/2/6 206/2/6
f 206/2/6 204/2/6 207/2/6
f 207/2/6 204/2/6 208/2/6
f 208/2/6 204/2/6 209/2/6
f 205/3/6 206/3/6 212/3/6
f 206/3/6 207/3/6 212/3/6
f 207/2/6 208/2/6 213/2/6
f 212/3/6 207/3/6 213/3/6
f 208/3/6 209/3/6 214/3/6
f 213/2/6 208/2/6 214/2/6
f 209/3/6 210/3/6 214/3/6
f 214/3/6 210/3/6 215/3/6
f 212/2/6 213/2/6 218/2/6
f 215/2/6 216/2/6 218/2/6
f 214/2/6 215/2/6 218/2/6
f 213/2/6 214/2/6 218/2/6
f 211/2/6 212/2/6 218/2/6
f 218/2/6 216/2/6 219/2/6
f 219/2/6 216/2/6 220/2/6
f 220/2/6 216/2/6 221/2/6
f 217/3/6 218/3/6 223/3/6
f 218/3/6 219/3/6 223/3/6
f 219/2/6 220/2/6 224/2/6
f 223/3/6 219/3/6 224/3/6
f 221/3/6 222/3/6 225/3/6
f 224/2/6 220/2/6 225/2/6
f 220/3/6 221/3/6 225/3/6
f 225/3/6 222/3/6 226/3/6
f 223/2/6 224/2/6 227/2/6
f 224/2/6 225/2/6 227/2/6
f 225/2/6 226/2/6 227/2/6
f 227/2/6 226/2/6 228/2/6
