# MagicaVoxel @ Ephtracy

# group
o 

# material
mtllib Robot.vox-67.mtl
usemtl palette

# normals
vn -1 0 0
vn 1 0 0
vn 0 0 1
vn 0 0 -1
vn 0 -1 0
vn 0 1 0

# texcoords
vt 0.697266 0.5
vt 0.728516 0.5
vt 0.916016 0.5
vt 0.970703 0.5

# verts
v 5.4 0.1 -5.8
v 5.4 0.1 -6.8
v 5.4 0.2 -5.7
v 5.4 0.2 -5.8
v 5.4 0.2 -6.8
v 5.4 0.2 -6.9
v 5.4 0.6 -5.7
v 5.4 0.6 -5.8
v 5.4 0.6 -6.8
v 5.4 0.6 -6.9
v 5.4 0.7 -5.8
v 5.4 0.7 -6.8
v 5.5 0.1 -5.7
v 5.5 0.1 -5.8
v 5.5 0.1 -6.8
v 5.5 0.1 -6.9
v 5.5 0.2 -5.7
v 5.5 0.2 -5.8
v 5.5 0.2 -6.8
v 5.5 0.2 -6.9
v 5.5 0.6 -5.7
v 5.5 0.6 -5.8
v 5.5 0.6 -6.8
v 5.5 0.6 -6.9
v 5.5 0.7 -5.7
v 5.5 0.7 -5.8
v 5.5 0.7 -6
v 5.5 0.7 -6.1
v 5.5 0.7 -6.8
v 5.5 0.7 -6.9
v 5.5 0.8 -6
v 5.5 0.8 -6.1
v 5.6 0.6 -6.2
v 5.6 0.6 -6.3
v 5.6 0.7 -6.2
v 5.6 0.7 -6.3
v 5.7 0.6 -5.9
v 5.7 0.6 -6
v 5.7 0.6 -6.7
v 5.7 0.6 -6.8
v 5.7 0.7 -5.9
v 5.7 0.7 -6
v 5.7 0.7 -6.1
v 5.7 0.7 -6.3
v 5.7 0.7 -6.4
v 5.7 0.7 -6.5
v 5.7 0.7 -6.6
v 5.7 0.7 -6.7
v 5.7 0.7 -6.8
v 5.7 0.8 -6.1
v 5.7 0.8 -6.3
v 5.7 0.8 -6.4
v 5.7 0.8 -6.5
v 5.7 0.8 -6.6
v 5.7 0.8 -6.7
v 5.8 0.6 -5.8
v 5.8 0.6 -5.9
v 5.8 0.7 -5.8
v 5.8 0.7 -5.9
v 5.8 0.7 -6
v 5.8 0.8 -5.9
v 5.8 0.8 -6
v 5.9 0.6 -6.4
v 5.9 0.6 -6.5
v 5.9 0.6 -6.6
v 5.9 0.6 -6.7
v 5.9 0.7 -5.8
v 5.9 0.7 -5.9
v 5.9 0.7 -6.3
v 5.9 0.7 -6.4
v 5.9 0.7 -6.5
v 5.9 0.7 -6.6
v 5.9 0.7 -6.7
v 5.9 0.8 -5.8
v 5.9 0.8 -5.9
v 5.9 0.8 -6.3
v 5.9 0.8 -6.4
v 5.9 0.8 -6.6
v 5.9 0.8 -6.7
v 6 0.7 -6.1
v 6 0.7 -6.2
v 6 0.7 -6.4
v 6 0.7 -6.5
v 6 0.8 -6.1
v 6 0.8 -6.2
v 6 0.8 -6.4
v 6 0.8 -6.5
v 6.1 0.6 -6
v 6.1 0.6 -6.1
v 6.1 0.6 -6.6
v 6.1 0.6 -6.7
v 6.1 0.7 -6
v 6.1 0.7 -6.1
v 6.1 0.7 -6.6
v 6.1 0.7 -6.7
v 5.5 0.6 -5.9
v 5.5 0.6 -6
v 5.5 0.6 -6.2
v 5.5 0.6 -6.3
v 5.5 0.7 -5.9
v 5.5 0.7 -6
v 5.5 0.7 -6.2
v 5.5 0.7 -6.3
v 5.6 0.6 -6.7
v 5.6 0.6 -6.8
v 5.6 0.7 -6.7
v 5.6 0.7 -6.8
v 5.7 0.6 -5.8
v 5.7 0.6 -5.9
v 5.7 0.7 -5.8
v 5.7 0.7 -5.9
v 5.8 0.6 -6.4
v 5.8 0.6 -6.5
v 5.8 0.6 -6.6
v 5.8 0.6 -6.7
v 5.8 0.7 -6.1
v 5.8 0.7 -6.2
v 5.8 0.7 -6.4
v 5.8 0.7 -6.5
v 5.8 0.7 -6.6
v 5.8 0.7 -6.7
v 5.8 0.8 -6.1
v 5.8 0.8 -6.2
v 5.8 0.8 -6.4
v 5.8 0.8 -6.5
v 5.8 0.8 -6.6
v 5.8 0.8 -6.7
v 6 0.6 -6
v 6 0.6 -6.1
v 6 0.6 -6.6
v 6 0.6 -6.7
v 6 0.7 -5.9
v 6 0.7 -6
v 6 0.7 -6.1
v 6 0.7 -6.3
v 6 0.7 -6.4
v 6 0.7 -6.6
v 6 0.7 -6.7
v 6 0.8 -5.9
v 6 0.8 -6
v 6 0.8 -6.1
v 6 0.8 -6.3
v 6 0.8 -6.4
v 6 0.8 -6.6
v 6 0.8 -6.7
v 6.1 0.1 -5.7
v 6.1 0.1 -5.8
v 6.1 0.1 -6.8
v 6.1 0.1 -6.9
v 6.1 0.2 -5.7
v 6.1 0.2 -5.8
v 6.1 0.2 -6.8
v 6.1 0.2 -6.9
v 6.1 0.6 -5.7
v 6.1 0.6 -5.8
v 6.1 0.6 -6.8
v 6.1 0.6 -6.9
v 6.1 0.7 -5.7
v 6.1 0.7 -5.8
v 6.1 0.7 -6.1
v 6.1 0.7 -6.3
v 6.1 0.7 -6.4
v 6.1 0.7 -6.5
v 6.1 0.7 -6.8
v 6.1 0.7 -6.9
v 6.1 0.8 -6.1
v 6.1 0.8 -6.3
v 6.1 0.8 -6.4
v 6.1 0.8 -6.5
v 6.2 0.1 -5.8
v 6.2 0.1 -6.8
v 6.2 0.2 -5.7
v 6.2 0.2 -5.8
v 6.2 0.2 -6.8
v 6.2 0.2 -6.9
v 6.2 0.6 -5.7
v 6.2 0.6 -5.8
v 6.2 0.6 -6.8
v 6.2 0.6 -6.9
v 6.2 0.7 -5.8
v 6.2 0.7 -5.9
v 6.2 0.7 -6.8
v 6.2 0.8 -5.8
v 6.2 0.8 -5.9
v 5.4 0.2 -5.7
v 5.4 0.6 -5.7
v 5.5 0.1 -5.7
v 5.5 0.2 -5.7
v 5.5 0.6 -5.7
v 5.5 0.7 -5.7
v 6.1 0.1 -5.7
v 6.1 0.2 -5.7
v 6.1 0.6 -5.7
v 6.1 0.7 -5.7
v 6.2 0.2 -5.7
v 6.2 0.6 -5.7
v 5.4 0.1 -5.8
v 5.4 0.2 -5.8
v 5.4 0.6 -5.8
v 5.4 0.7 -5.8
v 5.5 0.1 -5.8
v 5.5 0.2 -5.8
v 5.5 0.6 -5.8
v 5.5 0.7 -5.8
v 5.9 0.7 -5.8
v 5.9 0.8 -5.8
v 6.1 0.1 -5.8
v 6.1 0.2 -5.8
v 6.1 0.6 -5.8
v 6.1 0.7 -5.8
v 6.2 0.1 -5.8
v 6.2 0.2 -5.8
v 6.2 0.6 -5.8
v 6.2 0.7 -5.8
v 6.2 0.8 -5.8
v 5.7 0.6 -5.9
v 5.7 0.7 -5.9
v 5.8 0.6 -5.9
v 5.8 0.7 -5.9
v 5.8 0.8 -5.9
v 5.9 0.7 -5.9
v 5.9 0.8 -5.9
v 5.5 0.6 -6
v 5.5 0.7 -6
v 5.5 0.8 -6
v 5.6 0.7 -6
v 5.6 0.8 -6
v 5.7 0.6 -6
v 5.7 0.7 -6
v 5.8 0.7 -6
v 5.8 0.8 -6
v 6 0.6 -6.1
v 6 0.7 -6.1
v 6 0.8 -6.1
v 6.1 0.6 -6.1
v 6.1 0.7 -6.1
v 6.1 0.8 -6.1
v 5.8 0.7 -6.2
v 5.8 0.8 -6.2
v 6 0.7 -6.2
v 6 0.8 -6.2
v 5.5 0.6 -6.3
v 5.5 0.7 -6.3
v 5.6 0.6 -6.3
v 5.6 0.7 -6.3
v 5.7 0.7 -6.4
v 5.7 0.8 -6.4
v 5.8 0.7 -6.4
v 5.8 0.8 -6.4
v 6 0.7 -6.4
v 6 0.8 -6.4
v 6.1 0.7 -6.4
v 6.1 0.8 -6.4
v 5.8 0.6 -6.5
v 5.8 0.7 -6.5
v 5.9 0.6 -6.5
v 5.9 0.7 -6.5
v 5.9 0.7 -6.6
v 5.9 0.8 -6.6
v 6 0.7 -6.6
v 6 0.8 -6.6
v 5.8 0.6 -6.7
v 5.8 0.7 -6.7
v 5.9 0.6 -6.7
v 5.9 0.7 -6.7
v 6 0.6 -6.7
v 6 0.7 -6.7
v 6.1 0.6 -6.7
v 6.1 0.7 -6.7
v 5.6 0.6 -6.8
v 5.6 0.7 -6.8
v 5.7 0.6 -6.8
v 5.7 0.7 -6.8
v 5.7 0.6 -5.8
v 5.7 0.7 -5.8
v 5.8 0.6 -5.8
v 5.8 0.7 -5.8
v 5.5 0.6 -5.9
v 5.5 0.7 -5.9
v 5.6 0.6 -5.9
v 5.6 0.7 -5.9
v 5.7 0.6 -5.9
v 5.7 0.7 -5.9
v 6 0.7 -5.9
v 6 0.8 -5.9
v 6.1 0.7 -5.9
v 6.2 0.7 -5.9
v 6.2 0.8 -5.9
v 6 0.6 -6
v 6 0.7 -6
v 6.1 0.6 -6
v 6.1 0.7 -6
v 5.5 0.7 -6.1
v 5.5 0.8 -6.1
v 5.6 0.7 -6.1
v 5.6 0.8 -6.1
v 5.7 0.7 -6.1
v 5.7 0.8 -6.1
v 5.8 0.7 -6.1
v 5.8 0.8 -6.1
v 6 0.7 -6.1
v 6 0.8 -6.1
v 5.5 0.6 -6.2
v 5.5 0.7 -6.2
v 5.6 0.6 -6.2
v 5.6 0.7 -6.2
v 5.7 0.7 -6.3
v 5.7 0.8 -6.3
v 5.8 0.7 -6.3
v 5.9 0.7 -6.3
v 5.9 0.8 -6.3
v 6 0.7 -6.3
v 6 0.8 -6.3
v 6.1 0.7 -6.3
v 6.1 0.8 -6.3
v 5.8 0.6 -6.4
v 5.8 0.7 -6.4
v 5.9 0.6 -6.4
v 5.9 0.7 -6.4
v 5.9 0.8 -6.4
v 6 0.7 -6.4
v 6 0.8 -6.4
v 6 0.7 -6.5
v 6 0.8 -6.5
v 6.1 0.7 -6.5
v 6.1 0.8 -6.5
v 5.8 0.6 -6.6
v 5.8 0.7 -6.6
v 5.9 0.6 -6.6
v 5.9 0.7 -6.6
v 6 0.6 -6.6
v 6 0.7 -6.6
v 6.1 0.6 -6.6
v 6.1 0.7 -6.6
v 5.6 0.6 -6.7
v 5.6 0.7 -6.7
v 5.7 0.6 -6.7
v 5.7 0.7 -6.7
v 5.7 0.8 -6.7
v 5.8 0.7 -6.7
v 5.8 0.8 -6.7
v 5.9 0.7 -6.7
v 5.9 0.8 -6.7
v 6 0.7 -6.7
v 6 0.8 -6.7
v 5.4 0.1 -6.8
v 5.4 0.2 -6.8
v 5.4 0.6 -6.8
v 5.4 0.7 -6.8
v 5.5 0.1 -6.8
v 5.5 0.2 -6.8
v 5.5 0.6 -6.8
v 5.5 0.7 -6.8
v 6.1 0.1 -6.8
v 6.1 0.2 -6.8
v 6.1 0.6 -6.8
v 6.1 0.7 -6.8
v 6.2 0.1 -6.8
v 6.2 0.2 -6.8
v 6.2 0.6 -6.8
v 6.2 0.7 -6.8
v 5.4 0.2 -6.9
v 5.4 0.6 -6.9
v 5.5 0.1 -6.9
v 5.5 0.2 -6.9
v 5.5 0.6 -6.9
v 5.5 0.7 -6.9
v 6.1 0.1 -6.9
v 6.1 0.2 -6.9
v 6.1 0.6 -6.9
v 6.1 0.7 -6.9
v 6.2 0.2 -6.9
v 6.2 0.6 -6.9
v 5.5 0.1 -5.7
v 6.1 0.1 -5.7
v 5.4 0.1 -5.8
v 5.5 0.1 -5.8
v 6.1 0.1 -5.8
v 6.2 0.1 -5.8
v 5.4 0.1 -6.8
v 5.5 0.1 -6.8
v 6.1 0.1 -6.8
v 6.2 0.1 -6.8
v 5.5 0.1 -6.9
v 6.1 0.1 -6.9
v 5.4 0.2 -5.7
v 5.5 0.2 -5.7
v 6.1 0.2 -5.7
v 6.2 0.2 -5.7
v 5.4 0.2 -5.8
v 5.5 0.2 -5.8
v 6.1 0.2 -5.8
v 6.2 0.2 -5.8
v 5.4 0.2 -6.8
v 5.5 0.2 -6.8
v 6.1 0.2 -6.8
v 6.2 0.2 -6.8
v 5.4 0.2 -6.9
v 5.5 0.2 -6.9
v 6.1 0.2 -6.9
v 6.2 0.2 -6.9
v 5.4 0.6 -5.7
v 5.5 0.6 -5.7
v 6.1 0.6 -5.7
v 6.2 0.6 -5.7
v 5.4 0.6 -5.8
v 5.5 0.6 -5.8
v 5.7 0.6 -5.8
v 5.8 0.6 -5.8
v 6.1 0.6 -5.8
v 6.2 0.6 -5.8
v 5.5 0.6 -5.9
v 5.6 0.6 -5.9
v 5.7 0.6 -5.9
v 5.8 0.6 -5.9
v 5.5 0.6 -6
v 5.7 0.6 -6
v 6 0.6 -6
v 6.1 0.6 -6
v 6 0.6 -6.1
v 6.1 0.6 -6.1
v 5.5 0.6 -6.2
v 5.6 0.6 -6.2
v 5.5 0.6 -6.3
v 5.6 0.6 -6.3
v 5.8 0.6 -6.4
v 5.9 0.6 -6.4
v 5.8 0.6 -6.5
v 5.9 0.6 -6.5
v 5.8 0.6 -6.6
v 5.9 0.6 -6.6
v 6 0.6 -6.6
v 6.1 0.6 -6.6
v 5.6 0.6 -6.7
v 5.7 0.6 -6.7
v 5.8 0.6 -6.7
v 5.9 0.6 -6.7
v 6 0.6 -6.7
v 6.1 0.6 -6.7
v 5.4 0.6 -6.8
v 5.5 0.6 -6.8
v 5.6 0.6 -6.8
v 5.7 0.6 -6.8
v 6.1 0.6 -6.8
v 6.2 0.6 -6.8
v 5.4 0.6 -6.9
v 5.5 0.6 -6.9
v 6.1 0.6 -6.9
v 6.2 0.6 -6.9
v 5.5 0.7 -5.7
v 6.1 0.7 -5.7
v 5.4 0.7 -5.8
v 5.5 0.7 -5.8
v 5.6 0.7 -5.8
v 5.7 0.7 -5.8
v 5.8 0.7 -5.8
v 5.9 0.7 -5.8
v 6.1 0.7 -5.8
v 5.5 0.7 -5.9
v 5.6 0.7 -5.9
v 5.7 0.7 -5.9
v 5.8 0.7 -5.9
v 5.9 0.7 -5.9
v 6 0.7 -5.9
v 6.1 0.7 -5.9
v 6.2 0.7 -5.9
v 5.5 0.7 -6
v 5.7 0.7 -6
v 5.8 0.7 -6
v 6 0.7 -6
v 6.1 0.7 -6
v 5.5 0.7 -6.1
v 5.6 0.7 -6.1
v 5.7 0.7 -6.1
v 5.8 0.7 -6.1
v 6 0.7 -6.1
v 6.1 0.7 -6.1
v 5.5 0.7 -6.2
v 5.6 0.7 -6.2
v 5.8 0.7 -6.2
v 6 0.7 -6.2
v 5.5 0.7 -6.3
v 5.6 0.7 -6.3
v 5.7 0.7 -6.3
v 5.8 0.7 -6.3
v 5.9 0.7 -6.3
v 6 0.7 -6.3
v 6.1 0.7 -6.3
v 5.5 0.7 -6.4
v 5.6 0.7 -6.4
v 5.7 0.7 -6.4
v 5.8 0.7 -6.4
v 5.9 0.7 -6.4
v 6 0.7 -6.4
v 6.1 0.7 -6.4
v 5.5 0.7 -6.5
v 5.7 0.7 -6.5
v 5.8 0.7 -6.5
v 5.9 0.7 -6.5
v 6 0.7 -6.5
v 6.1 0.7 -6.5
v 5.5 0.7 -6.6
v 5.7 0.7 -6.6
v 5.8 0.7 -6.6
v 5.9 0.7 -6.6
v 6 0.7 -6.6
v 6.1 0.7 -6.6
v 5.5 0.7 -6.7
v 5.6 0.7 -6.7
v 5.7 0.7 -6.7
v 5.8 0.7 -6.7
v 5.9 0.7 -6.7
v 6 0.7 -6.7
v 6.1 0.7 -6.7
v 5.4 0.7 -6.8
v 5.5 0.7 -6.8
v 5.6 0.7 -6.8
v 5.7 0.7 -6.8
v 5.8 0.7 -6.8
v 5.9 0.7 -6.8
v 6 0.7 -6.8
v 6.1 0.7 -6.8
v 6.2 0.7 -6.8
v 5.5 0.7 -6.9
v 6.1 0.7 -6.9
v 5.9 0.8 -5.8
v 6.2 0.8 -5.8
v 5.8 0.8 -5.9
v 5.9 0.8 -5.9
v 6 0.8 -5.9
v 6.2 0.8 -5.9
v 5.5 0.8 -6
v 5.6 0.8 -6
v 5.8 0.8 -6
v 6 0.8 -6
v 5.5 0.8 -6.1
v 5.6 0.8 -6.1
v 5.7 0.8 -6.1
v 5.8 0.8 -6.1
v 6 0.8 -6.1
v 6.1 0.8 -6.1
v 5.8 0.8 -6.2
v 6 0.8 -6.2
v 5.7 0.8 -6.3
v 5.9 0.8 -6.3
v 6 0.8 -6.3
v 6.1 0.8 -6.3
v 5.7 0.8 -6.4
v 5.8 0.8 -6.4
v 5.9 0.8 -6.4
v 6 0.8 -6.4
v 6.1 0.8 -6.4
v 5.7 0.8 -6.5
v 5.8 0.8 -6.5
v 6 0.8 -6.5
v 6.1 0.8 -6.5
v 5.7 0.8 -6.6
v 5.8 0.8 -6.6
v 5.9 0.8 -6.6
v 6 0.8 -6.6
v 5.7 0.8 -6.7
v 5.8 0.8 -6.7
v 5.9 0.8 -6.7
v 6 0.8 -6.7

# faces
f 4/4/1 2/4/1 1/4/1
f 5/4/1 2/4/1 4/4/1
f 7/4/1 4/4/1 3/4/1
f 7/4/1 6/4/1 5/4/1
f 7/4/1 5/4/1 4/4/1
f 8/4/1 6/4/1 7/4/1
f 9/4/1 6/4/1 8/4/1
f 10/4/1 6/4/1 9/4/1
f 11/4/1 9/4/1 8/4/1
f 12/4/1 9/4/1 11/4/1
f 17/4/1 14/4/1 13/4/1
f 18/4/1 14/4/1 17/4/1
f 19/4/1 16/4/1 15/4/1
f 20/4/1 16/4/1 19/4/1
f 25/4/1 22/4/1 21/4/1
f 26/4/1 22/4/1 25/4/1
f 29/4/1 24/4/1 23/4/1
f 30/4/1 24/4/1 29/4/1
f 31/2/1 28/2/1 27/2/1
f 32/2/1 28/2/1 31/2/1
f 35/1/1 34/1/1 33/1/1
f 36/1/1 34/1/1 35/1/1
f 41/2/1 38/2/1 37/2/1
f 42/2/1 38/2/1 41/2/1
f 48/2/1 40/2/1 39/2/1
f 49/2/1 40/2/1 48/2/1
f 50/1/1 44/1/1 43/1/1
f 51/1/1 44/1/1 50/1/1
f 52/2/1 46/2/1 45/2/1
f 53/1/1 47/1/1 46/1/1
f 53/2/1 46/2/1 52/2/1
f 54/2/1 48/2/1 47/2/1
f 54/1/1 47/1/1 53/1/1
f 55/2/1 48/2/1 54/2/1
f 58/1/1 57/1/1 56/1/1
f 59/1/1 57/1/1 58/1/1
f 61/2/1 60/2/1 59/2/1
f 62/2/1 60/2/1 61/2/1
f 70/1/1 64/1/1 63/1/1
f 71/1/1 64/1/1 70/1/1
f 72/2/1 66/2/1 65/2/1
f 73/2/1 66/2/1 72/2/1
f 74/2/1 68/2/1 67/2/1
f 75/2/1 68/2/1 74/2/1
f 76/2/1 70/2/1 69/2/1
f 77/2/1 70/2/1 76/2/1
f 78/2/1 73/2/1 72/2/1
f 79/2/1 73/2/1 78/2/1
f 84/2/1 81/2/1 80/2/1
f 85/2/1 81/2/1 84/2/1
f 86/2/1 83/2/1 82/2/1
f 87/2/1 83/2/1 86/2/1
f 92/4/1 89/4/1 88/4/1
f 93/4/1 89/4/1 92/4/1
f 94/4/1 91/4/1 90/4/1
f 95/4/1 91/4/1 94/4/1
f 96/4/2 97/4/2 100/4/2
f 100/4/2 97/4/2 101/4/2
f 98/4/2 99/4/2 102/4/2
f 102/4/2 99/4/2 103/4/2
f 104/4/2 105/4/2 106/4/2
f 106/4/2 105/4/2 107/4/2
f 108/1/2 109/1/2 110/1/2
f 110/1/2 109/1/2 111/1/2
f 112/2/2 113/2/2 118/2/2
f 118/2/2 113/2/2 119/2/2
f 114/2/2 115/2/2 120/2/2
f 120/2/2 115/2/2 121/2/2
f 116/1/2 117/1/2 122/1/2
f 122/1/2 117/1/2 123/1/2
f 118/2/2 119/2/2 124/2/2
f 119/1/2 120/1/2 125/1/2
f 124/2/2 119/2/2 125/2/2
f 120/2/2 121/2/2 126/2/2
f 125/1/2 120/1/2 126/1/2
f 126/2/2 121/2/2 127/2/2
f 128/2/2 129/2/2 133/2/2
f 133/2/2 129/2/2 134/2/2
f 130/2/2 131/2/2 137/2/2
f 137/2/2 131/2/2 138/2/2
f 132/2/2 133/2/2 139/2/2
f 133/1/2 134/1/2 140/1/2
f 139/2/2 133/2/2 140/2/2
f 140/1/2 134/1/2 141/1/2
f 135/2/2 136/2/2 142/2/2
f 142/2/2 136/2/2 143/2/2
f 137/2/2 138/2/2 144/2/2
f 144/2/2 138/2/2 145/2/2
f 146/4/2 147/4/2 150/4/2
f 150/4/2 147/4/2 151/4/2
f 148/4/2 149/4/2 152/4/2
f 152/4/2 149/4/2 153/4/2
f 154/4/2 155/4/2 158/4/2
f 158/4/2 155/4/2 159/4/2
f 156/4/2 157/4/2 164/4/2
f 164/4/2 157/4/2 165/4/2
f 160/2/2 161/2/2 166/2/2
f 166/2/2 161/2/2 167/2/2
f 162/2/2 163/2/2 168/2/2
f 168/2/2 163/2/2 169/2/2
f 170/4/2 171/4/2 173/4/2
f 173/4/2 171/4/2 174/4/2
f 172/4/2 173/4/2 176/4/2
f 174/4/2 175/4/2 176/4/2
f 173/4/2 174/4/2 176/4/2
f 176/4/2 175/4/2 177/4/2
f 177/4/2 175/4/2 178/4/2
f 178/4/2 175/4/2 179/4/2
f 177/4/2 178/4/2 180/4/2
f 180/4/2 178/4/2 181/4/2
f 181/4/2 178/4/2 182/4/2
f 180/2/2 181/2/2 183/2/2
f 183/2/2 181/2/2 184/2/2
f 188/4/3 186/4/3 185/4/3
f 189/4/3 186/4/3 188/4/3
f 191/4/3 188/4/3 187/4/3
f 191/4/3 190/4/3 189/4/3
f 191/4/3 189/4/3 188/4/3
f 192/4/3 190/4/3 191/4/3
f 193/4/3 190/4/3 192/4/3
f 194/4/3 190/4/3 193/4/3
f 195/4/3 193/4/3 192/4/3
f 196/4/3 193/4/3 195/4/3
f 201/4/3 198/4/3 197/4/3
f 202/4/3 198/4/3 201/4/3
f 203/4/3 200/4/3 199/4/3
f 204/4/3 200/4/3 203/4/3
f 210/2/3 206/2/3 205/2/3
f 211/4/3 208/4/3 207/4/3
f 212/4/3 208/4/3 211/4/3
f 213/4/3 210/4/3 209/4/3
f 214/2/3 206/2/3 210/2/3
f 214/4/3 210/4/3 213/4/3
f 215/2/3 206/2/3 214/2/3
f 218/2/3 217/2/3 216/2/3
f 219/2/3 217/2/3 218/2/3
f 221/2/3 220/2/3 219/2/3
f 222/2/3 220/2/3 221/2/3
f 226/2/3 224/2/3 223/2/3
f 226/2/3 225/2/3 224/2/3
f 227/2/3 225/2/3 226/2/3
f 228/2/3 226/2/3 223/2/3
f 229/1/3 227/1/3 226/1/3
f 229/2/3 226/2/3 228/2/3
f 230/1/3 227/1/3 229/1/3
f 231/1/3 227/1/3 230/1/3
f 235/2/3 233/2/3 232/2/3
f 235/2/3 234/2/3 233/2/3
f 236/2/3 234/2/3 235/2/3
f 237/2/3 234/2/3 236/2/3
f 240/1/3 239/1/3 238/1/3
f 241/1/3 239/1/3 240/1/3
f 244/1/3 243/1/3 242/1/3
f 245/1/3 243/1/3 244/1/3
f 248/2/3 247/2/3 246/2/3
f 249/2/3 247/2/3 248/2/3
f 252/2/3 251/2/3 250/2/3
f 253/2/3 251/2/3 252/2/3
f 256/1/3 255/1/3 254/1/3
f 257/1/3 255/1/3 256/1/3
f 260/2/3 259/2/3 258/2/3
f 261/2/3 259/2/3 260/2/3
f 264/1/3 263/1/3 262/1/3
f 265/1/3 263/1/3 264/1/3
f 268/4/3 267/4/3 266/4/3
f 269/4/3 267/4/3 268/4/3
f 272/4/3 271/4/3 270/4/3
f 273/4/3 271/4/3 272/4/3
f 274/4/4 275/4/4 276/4/4
f 276/4/4 275/4/4 277/4/4
f 278/4/4 279/4/4 280/4/4
f 280/4/4 279/4/4 281/4/4
f 280/1/4 281/1/4 282/1/4
f 282/1/4 281/1/4 283/1/4
f 284/2/4 285/2/4 286/2/4
f 286/2/4 285/2/4 287/2/4
f 287/2/4 285/2/4 288/2/4
f 289/1/4 290/1/4 291/1/4
f 291/1/4 290/1/4 292/1/4
f 293/2/4 294/2/4 295/2/4
f 295/2/4 294/2/4 296/2/4
f 295/1/4 296/1/4 297/1/4
f 297/1/4 296/1/4 298/1/4
f 299/1/4 300/1/4 301/1/4
f 301/1/4 300/1/4 302/1/4
f 303/1/4 304/1/4 305/1/4
f 305/1/4 304/1/4 306/1/4
f 307/1/4 308/1/4 309/1/4
f 309/1/4 308/1/4 310/1/4
f 310/1/4 308/1/4 311/1/4
f 312/2/4 313/2/4 314/2/4
f 314/2/4 313/2/4 315/2/4
f 316/2/4 317/2/4 318/2/4
f 318/2/4 317/2/4 319/2/4
f 319/2/4 320/2/4 321/2/4
f 321/2/4 320/2/4 322/2/4
f 323/2/4 324/2/4 325/2/4
f 325/2/4 324/2/4 326/2/4
f 327/1/4 328/1/4 329/1/4
f 329/1/4 328/1/4 330/1/4
f 331/1/4 332/1/4 333/1/4
f 333/1/4 332/1/4 334/1/4
f 335/2/4 336/2/4 337/2/4
f 337/2/4 336/2/4 338/2/4
f 338/2/4 339/2/4 340/2/4
f 340/2/4 339/2/4 341/2/4
f 342/2/4 343/2/4 344/2/4
f 344/2/4 343/2/4 345/2/4
f 346/4/4 347/4/4 350/4/4
f 350/4/4 347/4/4 351/4/4
f 348/4/4 349/4/4 352/4/4
f 352/4/4 349/4/4 353/4/4
f 354/4/4 355/4/4 358/4/4
f 358/4/4 355/4/4 359/4/4
f 356/4/4 357/4/4 360/4/4
f 360/4/4 357/4/4 361/4/4
f 362/4/4 363/4/4 365/4/4
f 365/4/4 363/4/4 366/4/4
f 364/4/4 365/4/4 368/4/4
f 366/4/4 367/4/4 368/4/4
f 365/4/4 366/4/4 368/4/4
f 368/4/4 367/4/4 369/4/4
f 369/4/4 367/4/4 370/4/4
f 370/4/4 367/4/4 371/4/4
f 369/4/4 370/4/4 372/4/4
f 372/4/4 370/4/4 373/4/4
f 377/4/5 375/4/5 374/4/5
f 378/4/5 375/4/5 377/4/5
f 380/4/5 377/4/5 376/4/5
f 380/4/5 379/4/5 378/4/5
f 380/4/5 378/4/5 377/4/5
f 381/4/5 379/4/5 380/4/5
f 382/4/5 379/4/5 381/4/5
f 383/4/5 379/4/5 382/4/5
f 384/4/5 382/4/5 381/4/5
f 385/4/5 382/4/5 384/4/5
f 390/4/5 387/4/5 386/4/5
f 391/4/5 387/4/5 390/4/5
f 392/4/5 389/4/5 388/4/5
f 393/4/5 389/4/5 392/4/5
f 398/4/5 395/4/5 394/4/5
f 399/4/5 395/4/5 398/4/5
f 400/4/5 397/4/5 396/4/5
f 401/4/5 397/4/5 400/4/5
f 402/4/6 403/4/6 406/4/6
f 406/4/6 403/4/6 407/4/6
f 404/4/6 405/4/6 410/4/6
f 410/4/6 405/4/6 411/4/6
f 408/1/6 409/1/6 414/1/6
f 414/1/6 409/1/6 415/1/6
f 412/1/6 413/1/6 416/1/6
f 413/1/6 414/1/6 416/1/6
f 416/1/6 414/1/6 417/1/6
f 418/1/6 419/1/6 420/1/6
f 420/1/6 419/1/6 421/1/6
f 422/1/6 423/1/6 424/1/6
f 424/1/6 423/1/6 425/1/6
f 426/1/6 427/1/6 428/1/6
f 428/1/6 427/1/6 429/1/6
f 430/1/6 431/1/6 436/1/6
f 436/1/6 431/1/6 437/1/6
f 432/1/6 433/1/6 438/1/6
f 438/1/6 433/1/6 439/1/6
f 434/1/6 435/1/6 442/1/6
f 442/1/6 435/1/6 443/1/6
f 440/4/6 441/4/6 446/4/6
f 446/4/6 441/4/6 447/4/6
f 444/4/6 445/4/6 448/4/6
f 448/4/6 445/4/6 449/4/6
f 450/4/6 451/4/6 453/4/6
f 453/4/6 451/4/6 454/4/6
f 454/4/6 451/4/6 455/4/6
f 455/4/6 451/4/6 456/4/6
f 456/4/6 451/4/6 457/4/6
f 457/4/6 451/4/6 458/4/6
f 452/4/6 453/4/6 459/4/6
f 453/4/6 454/4/6 459/4/6
f 454/1/6 455/1/6 460/1/6
f 459/4/6 454/4/6 460/4/6
f 460/1/6 455/1/6 461/1/6
f 456/1/6 457/1/6 462/1/6
f 462/1/6 457/1/6 463/1/6
f 452/4/6 459/4/6 467/4/6
f 461/2/6 462/2/6 468/2/6
f 468/2/6 462/2/6 469/2/6
f 464/1/6 465/1/6 470/1/6
f 465/4/6 466/4/6 471/4/6
f 470/1/6 465/1/6 471/1/6
f 452/4/6 467/4/6 472/4/6
f 471/4/6 466/4/6 477/4/6
f 452/4/6 472/4/6 478/4/6
f 472/1/6 473/1/6 478/1/6
f 473/1/6 474/1/6 478/1/6
f 478/1/6 474/1/6 479/1/6
f 475/1/6 476/1/6 480/1/6
f 480/1/6 476/1/6 481/1/6
f 452/4/6 478/4/6 482/4/6
f 479/1/6 474/1/6 483/1/6
f 483/1/6 474/1/6 484/1/6
f 477/4/6 466/4/6 488/4/6
f 452/4/6 482/4/6 489/4/6
f 482/1/6 483/1/6 489/1/6
f 483/2/6 484/2/6 490/2/6
f 489/1/6 483/1/6 490/1/6
f 484/1/6 485/1/6 491/1/6
f 490/2/6 484/2/6 491/2/6
f 485/2/6 486/2/6 492/2/6
f 491/1/6 485/1/6 492/1/6
f 492/2/6 486/2/6 493/2/6
f 487/1/6 488/1/6 494/1/6
f 488/4/6 466/4/6 495/4/6
f 494/1/6 488/1/6 495/1/6
f 490/2/6 491/2/6 496/2/6
f 489/2/6 490/2/6 496/2/6
f 452/4/6 489/4/6 496/4/6
f 496/2/6 491/2/6 497/2/6
f 493/1/6 494/1/6 499/1/6
f 499/1/6 494/1/6 500/1/6
f 495/4/6 466/4/6 501/4/6
f 496/1/6 497/1/6 502/1/6
f 452/4/6 496/4/6 502/4/6
f 502/1/6 497/1/6 503/1/6
f 498/1/6 499/1/6 504/1/6
f 499/2/6 500/2/6 505/2/6
f 504/1/6 499/1/6 505/1/6
f 500/1/6 501/1/6 506/1/6
f 505/2/6 500/2/6 506/2/6
f 501/4/6 466/4/6 507/4/6
f 506/1/6 501/1/6 507/1/6
f 452/4/6 502/4/6 508/4/6
f 502/2/6 503/2/6 508/2/6
f 508/2/6 503/2/6 509/2/6
f 509/2/6 503/2/6 510/2/6
f 507/4/6 466/4/6 514/4/6
f 452/4/6 508/4/6 515/4/6
f 508/4/6 509/4/6 515/4/6
f 515/4/6 509/4/6 516/4/6
f 516/4/6 509/4/6 517/4/6
f 510/2/6 511/2/6 518/2/6
f 511/1/6 512/1/6 519/1/6
f 518/2/6 511/2/6 519/2/6
f 512/2/6 513/2/6 520/2/6
f 519/1/6 512/1/6 520/1/6
f 513/4/6 514/4/6 521/4/6
f 520/2/6 513/2/6 521/2/6
f 514/4/6 466/4/6 522/4/6
f 521/4/6 514/4/6 522/4/6
f 522/4/6 466/4/6 523/4/6
f 518/4/6 519/4/6 524/4/6
f 519/4/6 520/4/6 524/4/6
f 521/4/6 522/4/6 524/4/6
f 520/4/6 521/4/6 524/4/6
f 516/4/6 517/4/6 524/4/6
f 517/4/6 518/4/6 524/4/6
f 524/4/6 522/4/6 525/4/6
f 526/2/6 527/2/6 529/2/6
f 529/2/6 527/2/6 530/2/6
f 530/2/6 527/2/6 531/2/6
f 528/2/6 529/2/6 534/2/6
f 529/2/6 530/2/6 534/2/6
f 534/2/6 530/2/6 535/2/6
f 532/2/6 533/2/6 536/2/6
f 533/1/6 534/1/6 537/1/6
f 536/2/6 533/2/6 537/2/6
f 534/1/6 535/1/6 537/1/6
f 537/1/6 535/1/6 538/1/6
f 538/1/6 535/1/6 539/1/6
f 539/1/6 535/1/6 540/1/6
f 538/1/6 539/1/6 542/1/6
f 540/2/6 541/2/6 543/2/6
f 538/1/6 542/1/6 544/1/6
f 542/1/6 543/1/6 544/1/6
f 544/1/6 543/1/6 545/1/6
f 543/2/6 541/2/6 546/2/6
f 545/1/6 543/1/6 546/1/6
f 546/2/6 541/2/6 547/2/6
f 545/2/6 546/2/6 550/2/6
f 550/2/6 546/2/6 551/2/6
f 548/2/6 549/2/6 553/2/6
f 553/2/6 549/2/6 554/2/6
f 551/2/6 552/2/6 555/2/6
f 555/2/6 552/2/6 556/2/6
f 553/1/6 554/1/6 557/1/6
f 557/1/6 554/1/6 558/1/6
f 557/2/6 558/2/6 561/2/6
f 561/2/6 558/2/6 562/2/6
f 559/2/6 560/2/6 563/2/6
f 563/2/6 560/2/6 564/2/6
