# MagicaVoxel @ Ephtracy

# group
o 

# material
mtllib Robot.vox-37.mtl
usemtl palette

# normals
vn -1 0 0
vn 1 0 0
vn 0 0 1
vn 0 0 -1
vn 0 -1 0
vn 0 1 0

# texcoords
vt 0.794922 0.5
vt 0.939453 0.5
vt 0.970703 0.5
vt 0.978516 0.5
vt 0.982422 0.5

# verts
v -0.6 0.1 -3.5
v -0.6 0.1 -5
v -0.6 0.2 -3.4
v -0.6 0.2 -3.5
v -0.6 0.2 -4.9
v -0.6 0.4 -3.4
v -0.6 0.4 -4.9
v -0.6 0.5 -3.5
v -0.6 0.5 -4.4
v -0.6 0.5 -4.5
v -0.6 0.5 -4.7
v -0.6 0.7 -3.5
v -0.6 0.7 -4.4
v -0.6 0.7 -4.5
v -0.6 0.7 -4.7
v -0.6 0.7 -4.8
v -0.6 0.7 -5
v -0.6 0.8 -3.4
v -0.6 0.8 -3.5
v -0.6 0.8 -4.5
v -0.6 0.8 -4.8
v -0.6 0.9 -3.5
v -0.6 0.9 -4.5
v -0.5 0.8 -3.4
v -0.5 0.8 -3.5
v -0.5 0.9 -3.4
v -0.5 0.9 -3.5
v 0.5 0.2 -3.5
v 0.5 0.2 -4.9
v 0.5 0.4 -3.5
v 0.5 0.4 -4.9
v 0.5 0.5 -3.5
v 0.5 0.5 -4.4
v 0.5 0.5 -4.5
v 0.5 0.5 -4.7
v 0.5 0.6 -3.5
v 0.5 0.6 -4.9
v 0.5 0.6 -5
v 0.5 0.7 -3.5
v 0.5 0.7 -4.4
v 0.5 0.7 -4.5
v 0.5 0.7 -4.7
v 0.5 0.7 -4.8
v 0.5 0.7 -5
v 0.5 0.8 -4.5
v 0.5 0.8 -4.8
v 0.5 0.9 -3.5
v 0.5 0.9 -4.5
v -0.5 0.2 -3.5
v -0.5 0.2 -4.9
v -0.5 0.4 -3.5
v -0.5 0.4 -4.9
v -0.5 0.5 -3.5
v -0.5 0.5 -4.4
v -0.5 0.5 -4.5
v -0.5 0.5 -4.7
v -0.5 0.6 -3.5
v -0.5 0.6 -4.9
v -0.5 0.6 -5
v -0.5 0.7 -3.5
v -0.5 0.7 -4.4
v -0.5 0.7 -4.5
v -0.5 0.7 -4.7
v -0.5 0.7 -4.8
v -0.5 0.7 -5
v -0.5 0.8 -4.5
v -0.5 0.8 -4.8
v -0.5 0.9 -3.5
v -0.5 0.9 -4.5
v 0.5 0.8 -3.4
v 0.5 0.8 -3.5
v 0.5 0.9 -3.4
v 0.5 0.9 -3.5
v 0.6 0.1 -3.5
v 0.6 0.1 -5
v 0.6 0.2 -3.4
v 0.6 0.2 -3.5
v 0.6 0.2 -4.9
v 0.6 0.4 -3.4
v 0.6 0.4 -4.9
v 0.6 0.5 -3.5
v 0.6 0.5 -4.4
v 0.6 0.5 -4.5
v 0.6 0.5 -4.7
v 0.6 0.7 -3.5
v 0.6 0.7 -4.4
v 0.6 0.7 -4.5
v 0.6 0.7 -4.7
v 0.6 0.7 -4.8
v 0.6 0.7 -5
v 0.6 0.8 -3.4
v 0.6 0.8 -3.5
v 0.6 0.8 -4.5
v 0.6 0.8 -4.8
v 0.6 0.9 -3.5
v 0.6 0.9 -4.5
v -0.6 0.2 -3.4
v -0.6 0.4 -3.4
v -0.6 0.8 -3.4
v -0.5 0.5 -3.4
v -0.5 0.6 -3.4
v -0.5 0.8 -3.4
v -0.5 0.9 -3.4
v -0.3 0.7 -3.4
v -0.3 0.8 -3.4
v 0.3 0.7 -3.4
v 0.3 0.8 -3.4
v 0.5 0.5 -3.4
v 0.5 0.6 -3.4
v 0.5 0.8 -3.4
v 0.5 0.9 -3.4
v 0.6 0.2 -3.4
v 0.6 0.4 -3.4
v 0.6 0.8 -3.4
v -0.6 0.1 -3.5
v -0.6 0.2 -3.5
v -0.6 0.8 -3.5
v -0.6 0.9 -3.5
v -0.5 0.8 -3.5
v -0.5 0.9 -3.5
v 0.5 0.8 -3.5
v 0.5 0.9 -3.5
v 0.6 0.1 -3.5
v 0.6 0.2 -3.5
v 0.6 0.8 -3.5
v 0.6 0.9 -3.5
v -0.5 0.2 -4.9
v -0.5 0.4 -4.9
v -0.5 0.6 -4.9
v -0.3 0.2 -4.9
v -0.3 0.4 -4.9
v -0.2 0.2 -4.9
v -0.2 0.4 -4.9
v 0.2 0.2 -4.9
v 0.2 0.4 -4.9
v 0.3 0.2 -4.9
v 0.3 0.4 -4.9
v 0.5 0.2 -4.9
v 0.5 0.4 -4.9
v 0.5 0.6 -4.9
v -0.5 0.2 -3.5
v -0.5 0.4 -3.5
v -0.5 0.5 -3.5
v -0.5 0.6 -3.5
v -0.5 0.7 -3.5
v -0.5 0.9 -3.5
v -0.3 0.7 -3.5
v -0.3 0.8 -3.5
v 0.3 0.7 -3.5
v 0.3 0.8 -3.5
v 0.5 0.2 -3.5
v 0.5 0.4 -3.5
v 0.5 0.5 -3.5
v 0.5 0.6 -3.5
v 0.5 0.7 -3.5
v 0.5 0.9 -3.5
v -0.6 0.8 -4.5
v -0.6 0.9 -4.5
v -0.5 0.8 -4.5
v -0.5 0.9 -4.5
v 0.5 0.8 -4.5
v 0.5 0.9 -4.5
v 0.6 0.8 -4.5
v 0.6 0.9 -4.5
v -0.6 0.7 -4.8
v -0.6 0.8 -4.8
v -0.5 0.7 -4.8
v -0.5 0.8 -4.8
v 0.5 0.7 -4.8
v 0.5 0.8 -4.8
v 0.6 0.7 -4.8
v 0.6 0.8 -4.8
v -0.6 0.1 -5
v -0.6 0.7 -5
v -0.5 0.1 -5
v -0.5 0.2 -5
v -0.5 0.4 -5
v -0.5 0.6 -5
v -0.5 0.7 -5
v -0.3 0.1 -5
v -0.3 0.2 -5
v -0.3 0.4 -5
v -0.2 0.1 -5
v -0.2 0.4 -5
v 0.2 0.1 -5
v 0.2 0.4 -5
v 0.3 0.1 -5
v 0.3 0.2 -5
v 0.3 0.4 -5
v 0.5 0.1 -5
v 0.5 0.2 -5
v 0.5 0.4 -5
v 0.5 0.6 -5
v 0.5 0.7 -5
v 0.6 0.1 -5
v 0.6 0.7 -5
v -0.6 0.1 -3.5
v 0.6 0.1 -3.5
v -0.4 0.1 -3.6
v -0.3 0.1 -3.6
v -0.2 0.1 -3.6
v -0.1 0.1 -3.6
v 0.1 0.1 -3.6
v 0.2 0.1 -3.6
v 0.3 0.1 -3.6
v 0.4 0.1 -3.6
v -0.4 0.1 -4.8
v -0.3 0.1 -4.8
v -0.2 0.1 -4.8
v -0.1 0.1 -4.8
v 0.1 0.1 -4.8
v 0.2 0.1 -4.8
v 0.3 0.1 -4.8
v 0.4 0.1 -4.8
v -0.5 0.1 -4.9
v -0.3 0.1 -4.9
v -0.2 0.1 -4.9
v 0.2 0.1 -4.9
v 0.3 0.1 -4.9
v 0.5 0.1 -4.9
v -0.6 0.1 -5
v -0.5 0.1 -5
v -0.3 0.1 -5
v -0.2 0.1 -5
v 0.2 0.1 -5
v 0.3 0.1 -5
v 0.5 0.1 -5
v 0.6 0.1 -5
v -0.6 0.2 -3.4
v 0.6 0.2 -3.4
v -0.6 0.2 -3.5
v 0.6 0.2 -3.5
v -0.5 0.2 -3.5
v 0.5 0.2 -3.5
v -0.4 0.2 -3.6
v -0.3 0.2 -3.6
v -0.2 0.2 -3.6
v -0.1 0.2 -3.6
v 0.1 0.2 -3.6
v 0.2 0.2 -3.6
v 0.3 0.2 -3.6
v 0.4 0.2 -3.6
v -0.4 0.2 -4.8
v -0.3 0.2 -4.8
v -0.2 0.2 -4.8
v -0.1 0.2 -4.8
v 0.1 0.2 -4.8
v 0.2 0.2 -4.8
v 0.3 0.2 -4.8
v 0.4 0.2 -4.8
v -0.5 0.2 -4.9
v -0.3 0.2 -4.9
v -0.2 0.2 -4.9
v 0.2 0.2 -4.9
v 0.3 0.2 -4.9
v 0.5 0.2 -4.9
v -0.5 0.6 -4.9
v 0.5 0.6 -4.9
v -0.5 0.6 -5
v 0.5 0.6 -5
v -0.6 0.7 -4.8
v -0.5 0.7 -4.8
v 0.5 0.7 -4.8
v 0.6 0.7 -4.8
v -0.6 0.7 -5
v -0.5 0.7 -5
v 0.5 0.7 -5
v 0.6 0.7 -5
v -0.6 0.8 -3.4
v -0.5 0.8 -3.4
v 0.5 0.8 -3.4
v 0.6 0.8 -3.4
v -0.6 0.8 -3.5
v -0.5 0.8 -3.5
v 0.5 0.8 -3.5
v 0.6 0.8 -3.5
v -0.6 0.8 -4.5
v -0.5 0.8 -4.5
v 0.5 0.8 -4.5
v 0.6 0.8 -4.5
v -0.6 0.8 -4.8
v -0.5 0.8 -4.8
v 0.5 0.8 -4.8
v 0.6 0.8 -4.8
v -0.5 0.9 -3.4
v 0.5 0.9 -3.4
v -0.6 0.9 -3.5
v -0.5 0.9 -3.5
v 0.5 0.9 -3.5
v 0.6 0.9 -3.5
v -0.6 0.9 -4.5
v -0.5 0.9 -4.5
v 0.5 0.9 -4.5
v 0.6 0.9 -4.5

# faces
f 4/3/1 2/3/1 1/3/1
f 5/3/1 2/3/1 4/3/1
f 6/5/1 4/5/1 3/5/1
f 6/5/1 5/5/1 4/5/1
f 7/3/1 2/3/1 5/3/1
f 7/5/1 5/5/1 6/5/1
f 8/3/1 7/3/1 6/3/1
f 9/3/1 7/3/1 8/3/1
f 10/3/1 7/3/1 9/3/1
f 11/3/1 7/3/1 10/3/1
f 12/3/1 8/3/1 6/3/1
f 12/2/1 9/2/1 8/2/1
f 13/3/1 10/3/1 9/3/1
f 13/2/1 9/2/1 12/2/1
f 14/2/1 11/2/1 10/2/1
f 14/3/1 10/3/1 13/3/1
f 15/3/1 7/3/1 11/3/1
f 15/2/1 11/2/1 14/2/1
f 16/3/1 7/3/1 15/3/1
f 17/3/1 2/3/1 7/3/1
f 17/3/1 7/3/1 16/3/1
f 18/3/1 16/3/1 15/3/1
f 18/3/1 14/3/1 13/3/1
f 18/3/1 15/3/1 14/3/1
f 18/3/1 12/3/1 6/3/1
f 18/3/1 13/3/1 12/3/1
f 19/3/1 16/3/1 18/3/1
f 20/3/1 16/3/1 19/3/1
f 21/3/1 16/3/1 20/3/1
f 22/3/1 20/3/1 19/3/1
f 23/3/1 20/3/1 22/3/1
f 26/3/1 25/3/1 24/3/1
f 27/3/1 25/3/1 26/3/1
f 30/5/1 29/5/1 28/5/1
f 31/5/1 29/5/1 30/5/1
f 32/3/1 31/3/1 30/3/1
f 33/3/1 31/3/1 32/3/1
f 34/3/1 31/3/1 33/3/1
f 35/3/1 31/3/1 34/3/1
f 36/2/1 33/2/1 32/2/1
f 37/3/1 31/3/1 35/3/1
f 39/2/1 33/2/1 36/2/1
f 40/3/1 34/3/1 33/3/1
f 40/2/1 33/2/1 39/2/1
f 41/2/1 35/2/1 34/2/1
f 41/3/1 34/3/1 40/3/1
f 42/3/1 37/3/1 35/3/1
f 42/2/1 35/2/1 41/2/1
f 42/3/1 38/3/1 37/3/1
f 43/3/1 38/3/1 42/3/1
f 44/3/1 38/3/1 43/3/1
f 45/3/1 41/3/1 40/3/1
f 45/3/1 40/3/1 39/3/1
f 45/3/1 43/3/1 42/3/1
f 45/3/1 42/3/1 41/3/1
f 46/3/1 43/3/1 45/3/1
f 47/3/1 45/3/1 39/3/1
f 48/3/1 45/3/1 47/3/1
f 49/5/2 50/5/2 51/5/2
f 51/5/2 50/5/2 52/5/2
f 51/3/2 52/3/2 53/3/2
f 53/3/2 52/3/2 54/3/2
f 54/3/2 52/3/2 55/3/2
f 55/3/2 52/3/2 56/3/2
f 53/2/2 54/2/2 57/2/2
f 56/3/2 52/3/2 58/3/2
f 57/2/2 54/2/2 60/2/2
f 54/3/2 55/3/2 61/3/2
f 60/2/2 54/2/2 61/2/2
f 55/2/2 56/2/2 62/2/2
f 61/3/2 55/3/2 62/3/2
f 56/3/2 58/3/2 63/3/2
f 62/2/2 56/2/2 63/2/2
f 58/3/2 59/3/2 63/3/2
f 63/3/2 59/3/2 64/3/2
f 64/3/2 59/3/2 65/3/2
f 61/3/2 62/3/2 66/3/2
f 60/3/2 61/3/2 66/3/2
f 63/3/2 64/3/2 66/3/2
f 62/3/2 63/3/2 66/3/2
f 66/3/2 64/3/2 67/3/2
f 60/3/2 66/3/2 68/3/2
f 68/3/2 66/3/2 69/3/2
f 70/3/2 71/3/2 72/3/2
f 72/3/2 71/3/2 73/3/2
f 74/3/2 75/3/2 77/3/2
f 77/3/2 75/3/2 78/3/2
f 76/5/2 77/5/2 79/5/2
f 77/5/2 78/5/2 79/5/2
f 78/3/2 75/3/2 80/3/2
f 79/5/2 78/5/2 80/5/2
f 79/3/2 80/3/2 81/3/2
f 81/3/2 80/3/2 82/3/2
f 82/3/2 80/3/2 83/3/2
f 83/3/2 80/3/2 84/3/2
f 79/3/2 81/3/2 85/3/2
f 81/2/2 82/2/2 85/2/2
f 82/3/2 83/3/2 86/3/2
f 85/2/2 82/2/2 86/2/2
f 83/2/2 84/2/2 87/2/2
f 86/3/2 83/3/2 87/3/2
f 84/3/2 80/3/2 88/3/2
f 87/2/2 84/2/2 88/2/2
f 88/3/2 80/3/2 89/3/2
f 80/3/2 75/3/2 90/3/2
f 89/3/2 80/3/2 90/3/2
f 88/3/2 89/3/2 91/3/2
f 86/3/2 87/3/2 91/3/2
f 87/3/2 88/3/2 91/3/2
f 79/3/2 85/3/2 91/3/2
f 85/3/2 86/3/2 91/3/2
f 91/3/2 89/3/2 92/3/2
f 92/3/2 89/3/2 93/3/2
f 93/3/2 89/3/2 94/3/2
f 92/3/2 93/3/2 95/3/2
f 95/3/2 93/3/2 96/3/2
f 100/3/3 99/3/3 98/3/3
f 101/3/3 99/3/3 100/3/3
f 102/3/3 99/3/3 101/3/3
f 104/3/3 102/3/3 101/3/3
f 104/3/3 103/3/3 102/3/3
f 105/3/3 103/3/3 104/3/3
f 106/3/3 104/3/3 101/3/3
f 106/5/3 105/5/3 104/5/3
f 107/3/3 103/3/3 105/3/3
f 107/5/3 105/5/3 106/5/3
f 108/3/3 100/3/3 98/3/3
f 108/5/3 101/5/3 100/5/3
f 109/3/3 107/3/3 106/3/3
f 109/5/3 101/5/3 108/5/3
f 109/3/3 106/3/3 101/3/3
f 110/3/3 103/3/3 107/3/3
f 110/3/3 107/3/3 109/3/3
f 111/3/3 103/3/3 110/3/3
f 112/5/3 98/5/3 97/5/3
f 113/3/3 109/3/3 108/3/3
f 113/5/3 98/5/3 112/5/3
f 113/3/3 108/3/3 98/3/3
f 113/3/3 110/3/3 109/3/3
f 114/3/3 110/3/3 113/3/3
f 119/3/3 118/3/3 117/3/3
f 120/3/3 118/3/3 119/3/3
f 123/3/3 116/3/3 115/3/3
f 124/3/3 116/3/3 123/3/3
f 125/3/3 122/3/3 121/3/3
f 126/3/3 122/3/3 125/3/3
f 130/5/3 128/5/3 127/5/3
f 131/3/3 129/3/3 128/3/3
f 131/5/3 128/5/3 130/5/3
f 132/3/3 131/3/3 130/3/3
f 133/3/3 129/3/3 131/3/3
f 133/3/3 131/3/3 132/3/3
f 134/4/3 133/4/3 132/4/3
f 135/3/3 129/3/3 133/3/3
f 135/4/3 133/4/3 134/4/3
f 136/3/3 135/3/3 134/3/3
f 137/3/3 129/3/3 135/3/3
f 137/3/3 135/3/3 136/3/3
f 138/5/3 137/5/3 136/5/3
f 139/3/3 129/3/3 137/3/3
f 139/5/3 137/5/3 138/5/3
f 140/3/3 129/3/3 139/3/3
f 144/3/4 145/3/4 147/3/4
f 145/3/4 146/3/4 147/3/4
f 147/3/4 146/3/4 148/3/4
f 144/3/4 147/3/4 149/3/4
f 147/5/4 148/5/4 149/5/4
f 148/3/4 146/3/4 150/3/4
f 149/5/4 148/5/4 150/5/4
f 141/5/4 142/5/4 151/5/4
f 142/3/4 143/3/4 152/3/4
f 151/5/4 142/5/4 152/5/4
f 143/5/4 144/5/4 153/5/4
f 152/3/4 143/3/4 153/3/4
f 144/3/4 149/3/4 154/3/4
f 153/5/4 144/5/4 154/5/4
f 149/3/4 150/3/4 154/3/4
f 154/3/4 150/3/4 155/3/4
f 150/3/4 146/3/4 156/3/4
f 155/3/4 150/3/4 156/3/4
f 157/3/4 158/3/4 159/3/4
f 159/3/4 158/3/4 160/3/4
f 161/3/4 162/3/4 163/3/4
f 163/3/4 162/3/4 164/3/4
f 165/3/4 166/3/4 167/3/4
f 167/3/4 166/3/4 168/3/4
f 169/3/4 170/3/4 171/3/4
f 171/3/4 170/3/4 172/3/4
f 173/3/4 174/3/4 175/3/4
f 175/3/4 174/3/4 176/3/4
f 176/3/4 174/3/4 177/3/4
f 177/3/4 174/3/4 178/3/4
f 178/3/4 174/3/4 179/3/4
f 175/1/4 176/1/4 180/1/4
f 176/5/4 177/5/4 181/5/4
f 180/1/4 176/1/4 181/1/4
f 177/3/4 178/3/4 182/3/4
f 181/5/4 177/5/4 182/5/4
f 180/3/4 181/3/4 183/3/4
f 181/3/4 182/3/4 183/3/4
f 182/3/4 178/3/4 184/3/4
f 183/3/4 182/3/4 184/3/4
f 183/4/4 184/4/4 185/4/4
f 184/3/4 178/3/4 186/3/4
f 185/4/4 184/4/4 186/4/4
f 185/3/4 186/3/4 187/3/4
f 187/3/4 186/3/4 188/3/4
f 186/3/4 178/3/4 189/3/4
f 188/3/4 186/3/4 189/3/4
f 187/1/4 188/1/4 190/1/4
f 188/5/4 189/5/4 191/5/4
f 190/1/4 188/1/4 191/1/4
f 189/3/4 178/3/4 192/3/4
f 191/5/4 189/5/4 192/5/4
f 192/3/4 178/3/4 193/3/4
f 190/3/4 191/3/4 195/3/4
f 193/3/4 194/3/4 195/3/4
f 192/3/4 193/3/4 195/3/4
f 191/3/4 192/3/4 195/3/4
f 195/3/4 194/3/4 196/3/4
f 199/3/5 198/3/5 197/3/5
f 200/3/5 198/3/5 199/3/5
f 201/3/5 198/3/5 200/3/5
f 202/3/5 198/3/5 201/3/5
f 203/3/5 198/3/5 202/3/5
f 204/3/5 198/3/5 203/3/5
f 205/3/5 198/3/5 204/3/5
f 206/3/5 198/3/5 205/3/5
f 207/3/5 199/3/5 197/3/5
f 207/2/5 200/2/5 199/2/5
f 208/3/5 201/3/5 200/3/5
f 208/2/5 200/2/5 207/2/5
f 209/2/5 202/2/5 201/2/5
f 209/3/5 201/3/5 208/3/5
f 210/3/5 203/3/5 202/3/5
f 210/2/5 202/2/5 209/2/5
f 211/2/5 204/2/5 203/2/5
f 211/3/5 203/3/5 210/3/5
f 212/3/5 205/3/5 204/3/5
f 212/2/5 204/2/5 211/2/5
f 213/2/5 206/2/5 205/2/5
f 213/3/5 205/3/5 212/3/5
f 214/3/5 198/3/5 206/3/5
f 214/2/5 206/2/5 213/2/5
f 215/3/5 213/3/5 212/3/5
f 215/3/5 212/3/5 211/3/5
f 215/3/5 214/3/5 213/3/5
f 215/3/5 211/3/5 210/3/5
f 215/3/5 210/3/5 209/3/5
f 215/3/5 209/3/5 208/3/5
f 215/3/5 208/3/5 207/3/5
f 215/3/5 207/3/5 197/3/5
f 216/3/5 214/3/5 215/3/5
f 217/3/5 214/3/5 216/3/5
f 218/3/5 214/3/5 217/3/5
f 219/3/5 214/3/5 218/3/5
f 220/3/5 198/3/5 214/3/5
f 220/3/5 214/3/5 219/3/5
f 221/3/5 215/3/5 197/3/5
f 222/1/5 216/1/5 215/1/5
f 222/3/5 215/3/5 221/3/5
f 223/3/5 217/3/5 216/3/5
f 223/1/5 216/1/5 222/1/5
f 224/4/5 218/4/5 217/4/5
f 224/3/5 217/3/5 223/3/5
f 225/3/5 219/3/5 218/3/5
f 225/4/5 218/4/5 224/4/5
f 226/1/5 220/1/5 219/1/5
f 226/3/5 219/3/5 225/3/5
f 227/3/5 198/3/5 220/3/5
f 227/1/5 220/1/5 226/1/5
f 228/3/5 198/3/5 227/3/5
f 231/5/5 230/5/5 229/5/5
f 232/5/5 230/5/5 231/5/5
f 233/3/6 234/3/6 235/3/6
f 235/3/6 234/3/6 236/3/6
f 236/3/6 234/3/6 237/3/6
f 237/3/6 234/3/6 238/3/6
f 238/3/6 234/3/6 239/3/6
f 239/3/6 234/3/6 240/3/6
f 240/3/6 234/3/6 241/3/6
f 241/3/6 234/3/6 242/3/6
f 233/3/6 235/3/6 243/3/6
f 235/2/6 236/2/6 243/2/6
f 236/3/6 237/3/6 244/3/6
f 243/2/6 236/2/6 244/2/6
f 237/2/6 238/2/6 245/2/6
f 244/3/6 237/3/6 245/3/6
f 238/3/6 239/3/6 246/3/6
f 245/2/6 238/2/6 246/2/6
f 239/2/6 240/2/6 247/2/6
f 246/3/6 239/3/6 247/3/6
f 240/3/6 241/3/6 248/3/6
f 247/2/6 240/2/6 248/2/6
f 241/2/6 242/2/6 249/2/6
f 248/3/6 241/3/6 249/3/6
f 242/3/6 234/3/6 250/3/6
f 249/2/6 242/2/6 250/2/6
f 248/3/6 249/3/6 251/3/6
f 247/3/6 248/3/6 251/3/6
f 249/3/6 250/3/6 251/3/6
f 246/3/6 247/3/6 251/3/6
f 245/3/6 246/3/6 251/3/6
f 244/3/6 245/3/6 251/3/6
f 243/3/6 244/3/6 251/3/6
f 233/3/6 243/3/6 251/3/6
f 251/3/6 250/3/6 252/3/6
f 252/3/6 250/3/6 253/3/6
f 253/3/6 250/3/6 254/3/6
f 254/3/6 250/3/6 255/3/6
f 250/3/6 234/3/6 256/3/6
f 255/3/6 250/3/6 256/3/6
f 257/3/6 258/3/6 259/3/6
f 259/3/6 258/3/6 260/3/6
f 261/3/6 262/3/6 265/3/6
f 265/3/6 262/3/6 266/3/6
f 263/3/6 264/3/6 267/3/6
f 267/3/6 264/3/6 268/3/6
f 269/3/6 270/3/6 273/3/6
f 273/3/6 270/3/6 274/3/6
f 271/3/6 272/3/6 275/3/6
f 275/3/6 272/3/6 276/3/6
f 277/3/6 278/3/6 281/3/6
f 281/3/6 278/3/6 282/3/6
f 279/3/6 280/3/6 283/3/6
f 283/3/6 280/3/6 284/3/6
f 285/3/6 286/3/6 288/3/6
f 288/3/6 286/3/6 289/3/6
f 287/3/6 288/3/6 291/3/6
f 291/3/6 288/3/6 292/3/6
f 289/3/6 290/3/6 293/3/6
f 293/3/6 290/3/6 294/3/6
