# MagicaVoxel @ Ephtracy

# group
o 

# material
mtllib Robot.vox-5.mtl
usemtl palette

# normals
vn -1 0 0
vn 1 0 0
vn 0 0 1
vn 0 0 -1
vn 0 -1 0
vn 0 1 0

# texcoords
vt 0.939453 0.5
vt 0.970703 0.5
vt 0.978516 0.5
vt 0.982422 0.5

# verts
v -7.8 0 2
v -7.8 0 1.9
v -7.8 0.1 2.1
v -7.8 0.1 2
v -7.8 0.1 1.9
v -7.8 1.5 2.1
v -7.8 1.5 2
v -7.8 1.5 1.9
v -7.8 1.6 2
v -7.8 1.6 1.9
v -7 0 2
v -7 0 1.9
v -7 0.1 2.1
v -7 0.1 2
v -7 0.1 1.9
v -7 1.5 2.1
v -7 1.5 2
v -7 1.5 1.9
v -7 1.6 2
v -7 1.6 1.9
v -7.8 0.1 2.1
v -7.8 1.5 2.1
v -7.7 0.8 2.1
v -7.7 1.3 2.1
v -7.6 0.3 2.1
v -7.6 0.7 2.1
v -7.5 0.3 2.1
v -7.5 0.7 2.1
v -7.3 0.3 2.1
v -7.3 0.7 2.1
v -7.2 0.3 2.1
v -7.2 0.7 2.1
v -7.1 0.8 2.1
v -7.1 1.3 2.1
v -7 0.1 2.1
v -7 1.5 2.1
v -7.8 0 2
v -7.8 0.1 2
v -7.8 1.5 2
v -7.8 1.6 2
v -7 0 2
v -7 0.1 2
v -7 1.5 2
v -7 1.6 2
v -7.8 0 1.9
v -7.8 0.1 1.9
v -7.8 1.5 1.9
v -7.8 1.6 1.9
v -7 0 1.9
v -7 0.1 1.9
v -7 1.5 1.9
v -7 1.6 1.9
v -7.8 0 2
v -7 0 2
v -7.8 0 1.9
v -7 0 1.9
v -7.8 0.1 2.1
v -7 0.1 2.1
v -7.8 0.1 2
v -7 0.1 2
v -7.8 1.5 2.1
v -7 1.5 2.1
v -7.8 1.5 2
v -7 1.5 2
v -7.8 1.6 2
v -7 1.6 2
v -7.8 1.6 1.9
v -7 1.6 1.9

# faces
f 4/1/1 2/1/1 1/1/1
f 5/1/1 2/1/1 4/1/1
f 6/2/1 4/2/1 3/2/1
f 6/2/1 5/2/1 4/2/1
f 7/2/1 5/2/1 6/2/1
f 8/2/1 5/2/1 7/2/1
f 9/1/1 8/1/1 7/1/1
f 10/1/1 8/1/1 9/1/1
f 11/1/2 12/1/2 14/1/2
f 14/1/2 12/1/2 15/1/2
f 13/2/2 14/2/2 16/2/2
f 14/2/2 15/2/2 16/2/2
f 16/2/2 15/2/2 17/2/2
f 17/2/2 15/2/2 18/2/2
f 17/1/2 18/1/2 19/1/2
f 19/1/2 18/1/2 20/1/2
f 23/2/3 22/2/3 21/2/3
f 24/2/3 22/2/3 23/2/3
f 25/2/3 23/2/3 21/2/3
f 26/2/3 23/2/3 25/2/3
f 27/2/3 25/2/3 21/2/3
f 27/4/3 26/4/3 25/4/3
f 28/2/3 23/2/3 26/2/3
f 28/4/3 26/4/3 27/4/3
f 29/2/3 27/2/3 21/2/3
f 29/2/3 28/2/3 27/2/3
f 30/2/3 23/2/3 28/2/3
f 30/2/3 28/2/3 29/2/3
f 31/2/3 29/2/3 21/2/3
f 31/4/3 30/4/3 29/4/3
f 32/2/3 23/2/3 30/2/3
f 32/4/3 30/4/3 31/4/3
f 33/3/3 24/3/3 23/3/3
f 33/2/3 23/2/3 32/2/3
f 33/2/3 32/2/3 31/2/3
f 34/2/3 22/2/3 24/2/3
f 34/3/3 24/3/3 33/3/3
f 35/2/3 33/2/3 31/2/3
f 35/2/3 31/2/3 21/2/3
f 35/2/3 34/2/3 33/2/3
f 36/2/3 22/2/3 34/2/3
f 36/2/3 34/2/3 35/2/3
f 41/1/3 38/1/3 37/1/3
f 42/1/3 38/1/3 41/1/3
f 43/1/3 40/1/3 39/1/3
f 44/1/3 40/1/3 43/1/3
f 45/1/4 46/1/4 49/1/4
f 46/2/4 47/2/4 50/2/4
f 49/1/4 46/1/4 50/1/4
f 47/1/4 48/1/4 51/1/4
f 50/2/4 47/2/4 51/2/4
f 51/1/4 48/1/4 52/1/4
f 55/1/5 54/1/5 53/1/5
f 56/1/5 54/1/5 55/1/5
f 59/2/5 58/2/5 57/2/5
f 60/2/5 58/2/5 59/2/5
f 61/2/6 62/2/6 63/2/6
f 63/2/6 62/2/6 64/2/6
f 65/1/6 66/1/6 67/1/6
f 67/1/6 66/1/6 68/1/6
