# MagicaVoxel @ Ephtracy

# group
o 

# material
mtllib Robot.vox-47.mtl
usemtl palette

# normals
vn -1 0 0
vn 1 0 0
vn 0 0 1
vn 0 0 -1
vn 0 -1 0
vn 0 1 0

# texcoords
vt 0.939453 0.5
vt 0.943359 0.5
vt 0.958984 0.5
vt 0.970703 0.5
vt 0.978516 0.5
vt 0.982422 0.5

# verts
v -0.6 0.2 1.1
v -0.6 0.2 1
v -0.6 0.4 1.1
v -0.6 0.4 1
v -0.5 0.4 1.1
v -0.5 0.4 1
v -0.5 0.5 1.1
v -0.5 0.5 1
v -0.3 0.1 1.1
v -0.3 0.1 0.9
v -0.3 0.2 1.1
v -0.3 0.2 1
v -0.3 0.2 0.9
v -0.2 0 1.3
v -0.2 0 1.2
v -0.2 0.1 1.3
v -0.2 0.1 1.2
v -0.2 0.3 1.3
v -0.2 0.3 1.1
v -0.2 0.4 1.4
v -0.2 0.4 1.3
v -0.2 0.4 1.1
v -0.2 0.5 1.3
v -0.2 0.5 1.2
v -0.2 0.5 1.1
v -0.2 0.5 1
v -0.2 0.6 1.3
v -0.2 0.6 1.2
v -0.2 0.7 1.3
v -0.2 0.7 1.2
v -0.2 0.7 1.1
v -0.2 0.7 1
v -0.2 0.8 1.4
v -0.2 0.8 1.1
v -0.1 -0.1 1.3
v -0.1 -0.1 1.2
v -0.1 0 1.3
v -0.1 0 1.2
v -0.1 0.1 1.3
v -0.1 0.1 1.2
v -0.1 0.1 1.1
v -0.1 0.2 1.3
v -0.1 0.2 1.2
v -0.1 0.3 1.4
v -0.1 0.3 1.3
v -0.1 0.3 1.2
v -0.1 0.3 1.1
v -0.1 0.4 1.4
v -0.1 0.4 1.3
v 0.1 -0.1 1.3
v 0.1 -0.1 1.2
v 0.1 0 1.3
v 0.1 0 1.2
v 0.1 0.1 1.3
v 0.1 0.1 1.2
v 0.1 0.1 1.1
v 0.1 0.2 1.3
v 0.1 0.2 1.2
v 0.1 0.3 1.4
v 0.1 0.3 1.3
v 0.1 0.3 1.2
v 0.1 0.3 1.1
v 0.1 0.4 1.4
v 0.1 0.4 1.3
v 0.2 0 1.3
v 0.2 0 1.2
v 0.2 0.1 1.3
v 0.2 0.1 1.2
v 0.2 0.3 1.3
v 0.2 0.3 1.1
v 0.2 0.4 1.4
v 0.2 0.4 1.3
v 0.2 0.4 1.1
v 0.2 0.5 1.3
v 0.2 0.5 1.2
v 0.2 0.5 1.1
v 0.2 0.5 1
v 0.2 0.6 1.3
v 0.2 0.6 1.2
v 0.2 0.7 1.3
v 0.2 0.7 1.2
v 0.2 0.7 1.1
v 0.2 0.7 1
v 0.2 0.8 1.4
v 0.2 0.8 1.1
v 0.3 0.1 1.1
v 0.3 0.1 0.9
v 0.3 0.2 1.1
v 0.3 0.2 1
v 0.3 0.2 0.9
v 0.5 0.4 1.1
v 0.5 0.4 1
v 0.5 0.5 1.1
v 0.5 0.5 1
v 0.6 0.2 1.1
v 0.6 0.2 1
v 0.6 0.4 1.1
v 0.6 0.4 1
v -0.2 0.4 1.4
v -0.2 0.8 1.4
v -0.1 0.3 1.4
v -0.1 0.4 1.4
v 0.1 0.3 1.4
v 0.1 0.4 1.4
v 0.2 0.4 1.4
v 0.2 0.8 1.4
v -0.2 0 1.3
v -0.2 0.1 1.3
v -0.2 0.3 1.3
v -0.2 0.4 1.3
v -0.1 -0.1 1.3
v -0.1 0 1.3
v -0.1 0.1 1.3
v -0.1 0.2 1.3
v -0.1 0.3 1.3
v -0.1 0.4 1.3
v 0.1 -0.1 1.3
v 0.1 0 1.3
v 0.1 0.1 1.3
v 0.1 0.2 1.3
v 0.1 0.3 1.3
v 0.1 0.4 1.3
v 0.2 0 1.3
v 0.2 0.1 1.3
v 0.2 0.3 1.3
v 0.2 0.4 1.3
v -0.1 0.2 1.2
v -0.1 0.3 1.2
v 0.1 0.2 1.2
v 0.1 0.3 1.2
v -0.6 0.2 1.1
v -0.6 0.4 1.1
v -0.5 0.3 1.1
v -0.5 0.4 1.1
v -0.5 0.5 1.1
v -0.3 0.1 1.1
v -0.3 0.2 1.1
v -0.2 0.3 1.1
v -0.2 0.4 1.1
v -0.2 0.5 1.1
v -0.1 0.1 1.1
v -0.1 0.3 1.1
v 0.1 0.1 1.1
v 0.1 0.3 1.1
v 0.2 0.3 1.1
v 0.2 0.4 1.1
v 0.2 0.5 1.1
v 0.3 0.1 1.1
v 0.3 0.2 1.1
v 0.5 0.3 1.1
v 0.5 0.4 1.1
v 0.5 0.5 1.1
v 0.6 0.2 1.1
v 0.6 0.4 1.1
v -0.2 0 1.2
v -0.2 0.1 1.2
v -0.1 -0.1 1.2
v -0.1 0 1.2
v -0.1 0.1 1.2
v 0.1 -0.1 1.2
v 0.1 0 1.2
v 0.1 0.1 1.2
v 0.2 0 1.2
v 0.2 0.1 1.2
v -0.2 0.7 1.1
v -0.2 0.8 1.1
v 0.2 0.7 1.1
v 0.2 0.8 1.1
v -0.6 0.2 1
v -0.6 0.4 1
v -0.5 0.3 1
v -0.5 0.4 1
v -0.5 0.5 1
v -0.3 0.2 1
v -0.2 0.3 1
v -0.2 0.4 1
v -0.2 0.5 1
v -0.2 0.7 1
v 0.2 0.3 1
v 0.2 0.4 1
v 0.2 0.5 1
v 0.2 0.7 1
v 0.3 0.2 1
v 0.5 0.3 1
v 0.5 0.4 1
v 0.5 0.5 1
v 0.6 0.2 1
v 0.6 0.4 1
v -0.3 0.1 0.9
v -0.3 0.2 0.9
v 0.3 0.1 0.9
v 0.3 0.2 0.9
v -0.1 -0.1 1.3
v 0.1 -0.1 1.3
v -0.1 -0.1 1.2
v 0.1 -0.1 1.2
v -0.2 0 1.3
v -0.1 0 1.3
v 0.1 0 1.3
v 0.2 0 1.3
v -0.2 0 1.2
v -0.1 0 1.2
v 0.1 0 1.2
v 0.2 0 1.2
v -0.1 0.1 1.2
v 0.1 0.1 1.2
v -0.3 0.1 1.1
v -0.1 0.1 1.1
v 0.1 0.1 1.1
v 0.3 0.1 1.1
v -0.3 0.1 0.9
v 0.3 0.1 0.9
v -0.6 0.2 1.1
v -0.3 0.2 1.1
v 0.3 0.2 1.1
v 0.6 0.2 1.1
v -0.6 0.2 1
v -0.3 0.2 1
v 0.3 0.2 1
v 0.6 0.2 1
v -0.1 0.3 1.4
v 0.1 0.3 1.4
v -0.2 0.3 1.3
v -0.1 0.3 1.3
v 0.1 0.3 1.3
v 0.2 0.3 1.3
v -0.1 0.3 1.2
v 0.1 0.3 1.2
v -0.2 0.3 1.1
v -0.1 0.3 1.1
v 0.1 0.3 1.1
v 0.2 0.3 1.1
v -0.2 0.4 1.4
v -0.1 0.4 1.4
v 0.1 0.4 1.4
v 0.2 0.4 1.4
v -0.2 0.4 1.3
v -0.1 0.4 1.3
v 0.1 0.4 1.3
v 0.2 0.4 1.3
v -0.2 0.1 1.3
v -0.1 0.1 1.3
v 0.1 0.1 1.3
v 0.2 0.1 1.3
v -0.2 0.1 1.2
v -0.1 0.1 1.2
v 0.1 0.1 1.2
v 0.2 0.1 1.2
v -0.1 0.2 1.3
v 0.1 0.2 1.3
v -0.1 0.2 1.2
v 0.1 0.2 1.2
v -0.3 0.2 1
v 0.3 0.2 1
v -0.3 0.2 0.9
v 0.3 0.2 0.9
v -0.6 0.4 1.1
v -0.5 0.4 1.1
v 0.5 0.4 1.1
v 0.6 0.4 1.1
v -0.6 0.4 1
v -0.5 0.4 1
v 0.5 0.4 1
v 0.6 0.4 1
v -0.5 0.5 1.1
v -0.2 0.5 1.1
v 0.2 0.5 1.1
v 0.5 0.5 1.1
v -0.5 0.5 1
v -0.2 0.5 1
v 0.2 0.5 1
v 0.5 0.5 1
v -0.2 0.7 1.1
v 0.2 0.7 1.1
v -0.2 0.7 1
v 0.2 0.7 1
v -0.2 0.8 1.4
v 0.2 0.8 1.4
v -0.2 0.8 1.1
v 0.2 0.8 1.1

# faces
f 3/6/1 2/6/1 1/6/1
f 4/6/1 2/6/1 3/6/1
f 7/6/1 6/6/1 5/6/1
f 8/6/1 6/6/1 7/6/1
f 11/6/1 10/6/1 9/6/1
f 12/6/1 10/6/1 11/6/1
f 13/6/1 10/6/1 12/6/1
f 16/1/1 15/1/1 14/1/1
f 17/1/1 15/1/1 16/1/1
f 21/5/1 19/5/1 18/5/1
f 22/5/1 19/5/1 21/5/1
f 23/5/1 21/5/1 20/5/1
f 23/5/1 22/5/1 21/5/1
f 24/5/1 22/5/1 23/5/1
f 25/5/1 22/5/1 24/5/1
f 27/5/1 23/5/1 20/5/1
f 27/4/1 24/4/1 23/4/1
f 28/5/1 25/5/1 24/5/1
f 28/4/1 24/4/1 27/4/1
f 28/5/1 26/5/1 25/5/1
f 29/5/1 27/5/1 20/5/1
f 29/2/1 28/2/1 27/2/1
f 30/5/1 26/5/1 28/5/1
f 30/2/1 28/2/1 29/2/1
f 31/5/1 26/5/1 30/5/1
f 32/5/1 26/5/1 31/5/1
f 33/5/1 29/5/1 20/5/1
f 33/5/1 30/5/1 29/5/1
f 33/5/1 31/5/1 30/5/1
f 34/5/1 31/5/1 33/5/1
f 37/1/1 36/1/1 35/1/1
f 38/1/1 36/1/1 37/1/1
f 42/1/1 40/1/1 39/1/1
f 42/1/1 41/1/1 40/1/1
f 43/1/1 41/1/1 42/1/1
f 46/1/1 41/1/1 43/1/1
f 47/1/1 41/1/1 46/1/1
f 48/5/1 45/5/1 44/5/1
f 49/5/1 45/5/1 48/5/1
f 50/1/2 51/1/2 52/1/2
f 52/1/2 51/1/2 53/1/2
f 54/1/2 55/1/2 57/1/2
f 55/1/2 56/1/2 57/1/2
f 57/1/2 56/1/2 58/1/2
f 58/1/2 56/1/2 61/1/2
f 61/1/2 56/1/2 62/1/2
f 59/5/2 60/5/2 63/5/2
f 63/5/2 60/5/2 64/5/2
f 65/1/2 66/1/2 67/1/2
f 67/1/2 66/1/2 68/1/2
f 69/5/2 70/5/2 72/5/2
f 72/5/2 70/5/2 73/5/2
f 71/5/2 72/5/2 74/5/2
f 72/5/2 73/5/2 74/5/2
f 74/5/2 73/5/2 75/5/2
f 75/5/2 73/5/2 76/5/2
f 71/5/2 74/5/2 78/5/2
f 74/4/2 75/4/2 78/4/2
f 75/5/2 76/5/2 79/5/2
f 78/4/2 75/4/2 79/4/2
f 76/5/2 77/5/2 79/5/2
f 71/5/2 78/5/2 80/5/2
f 78/3/2 79/3/2 80/3/2
f 79/5/2 77/5/2 81/5/2
f 80/3/2 79/3/2 81/3/2
f 81/5/2 77/5/2 82/5/2
f 82/5/2 77/5/2 83/5/2
f 71/5/2 80/5/2 84/5/2
f 80/5/2 81/5/2 84/5/2
f 81/5/2 82/5/2 84/5/2
f 84/5/2 82/5/2 85/5/2
f 86/6/2 87/6/2 88/6/2
f 88/6/2 87/6/2 89/6/2
f 89/6/2 87/6/2 90/6/2
f 91/6/2 92/6/2 93/6/2
f 93/6/2 92/6/2 94/6/2
f 95/6/2 96/6/2 97/6/2
f 97/6/2 96/6/2 98/6/2
f 102/5/3 100/5/3 99/5/3
f 103/5/3 102/5/3 101/5/3
f 104/5/3 100/5/3 102/5/3
f 104/5/3 102/5/3 103/5/3
f 105/5/3 100/5/3 104/5/3
f 106/5/3 100/5/3 105/5/3
f 112/1/3 108/1/3 107/1/3
f 113/1/3 108/1/3 112/1/3
f 115/5/3 110/5/3 109/5/3
f 116/5/3 110/5/3 115/5/3
f 117/1/3 114/1/3 113/1/3
f 117/1/3 112/1/3 111/1/3
f 117/1/3 113/1/3 112/1/3
f 118/1/3 114/1/3 117/1/3
f 119/1/3 114/1/3 118/1/3
f 120/1/3 114/1/3 119/1/3
f 123/1/3 119/1/3 118/1/3
f 124/1/3 119/1/3 123/1/3
f 125/5/3 122/5/3 121/5/3
f 126/5/3 122/5/3 125/5/3
f 129/1/3 128/1/3 127/1/3
f 130/1/3 128/1/3 129/1/3
f 133/6/3 132/6/3 131/6/3
f 134/6/3 132/6/3 133/6/3
f 137/6/3 133/6/3 131/6/3
f 138/4/3 134/4/3 133/4/3
f 138/6/3 137/6/3 136/6/3
f 138/6/3 133/6/3 137/6/3
f 139/6/3 135/6/3 134/6/3
f 139/4/3 134/4/3 138/4/3
f 140/6/3 135/6/3 139/6/3
f 141/6/3 138/6/3 136/6/3
f 142/6/3 138/6/3 141/6/3
f 145/6/3 144/6/3 143/6/3
f 148/6/3 145/6/3 143/6/3
f 149/6/3 145/6/3 148/6/3
f 150/4/3 146/4/3 145/4/3
f 150/6/3 145/6/3 149/6/3
f 151/6/3 147/6/3 146/6/3
f 151/4/3 146/4/3 150/4/3
f 152/6/3 147/6/3 151/6/3
f 153/6/3 150/6/3 149/6/3
f 153/6/3 151/6/3 150/6/3
f 154/6/3 151/6/3 153/6/3
f 155/1/4 156/1/4 158/1/4
f 158/1/4 156/1/4 159/1/4
f 157/1/4 158/1/4 160/1/4
f 158/1/4 159/1/4 160/1/4
f 160/1/4 159/1/4 161/1/4
f 161/1/4 159/1/4 162/1/4
f 161/1/4 162/1/4 163/1/4
f 163/1/4 162/1/4 164/1/4
f 165/5/4 166/5/4 167/5/4
f 167/5/4 166/5/4 168/5/4
f 169/6/4 170/6/4 171/6/4
f 171/6/4 170/6/4 172/6/4
f 169/6/4 171/6/4 174/6/4
f 171/4/4 172/4/4 175/4/4
f 174/6/4 171/6/4 175/6/4
f 172/6/4 173/6/4 176/6/4
f 175/4/4 172/4/4 176/4/4
f 176/6/4 173/6/4 177/6/4
f 174/6/4 175/6/4 179/6/4
f 177/5/4 178/5/4 179/5/4
f 176/5/4 177/5/4 179/5/4
f 175/5/4 176/5/4 179/5/4
f 179/5/4 178/5/4 180/5/4
f 180/5/4 178/5/4 181/5/4
f 181/5/4 178/5/4 182/5/4
f 174/6/4 179/6/4 183/6/4
f 179/4/4 180/4/4 184/4/4
f 183/6/4 179/6/4 184/6/4
f 180/6/4 181/6/4 185/6/4
f 184/4/4 180/4/4 185/4/4
f 185/6/4 181/6/4 186/6/4
f 183/6/4 184/6/4 187/6/4
f 184/6/4 185/6/4 187/6/4
f 187/6/4 185/6/4 188/6/4
f 189/6/4 190/6/4 191/6/4
f 191/6/4 190/6/4 192/6/4
f 195/1/5 194/1/5 193/1/5
f 196/1/5 194/1/5 195/1/5
f 201/1/5 198/1/5 197/1/5
f 202/1/5 198/1/5 201/1/5
f 203/1/5 200/1/5 199/1/5
f 204/1/5 200/1/5 203/1/5
f 208/1/5 206/1/5 205/1/5
f 209/1/5 206/1/5 208/1/5
f 211/6/5 208/6/5 207/6/5
f 211/6/5 210/6/5 209/6/5
f 211/6/5 209/6/5 208/6/5
f 212/6/5 210/6/5 211/6/5
f 217/6/5 214/6/5 213/6/5
f 218/6/5 214/6/5 217/6/5
f 219/6/5 216/6/5 215/6/5
f 220/6/5 216/6/5 219/6/5
f 224/5/5 222/5/5 221/5/5
f 225/5/5 222/5/5 224/5/5
f 227/5/5 224/5/5 223/5/5
f 227/5/5 226/5/5 225/5/5
f 227/5/5 225/5/5 224/5/5
f 228/5/5 226/5/5 227/5/5
f 229/5/5 227/5/5 223/5/5
f 230/5/5 227/5/5 229/5/5
f 231/5/5 226/5/5 228/5/5
f 232/5/5 226/5/5 231/5/5
f 237/5/5 234/5/5 233/5/5
f 238/5/5 234/5/5 237/5/5
f 239/5/5 236/5/5 235/5/5
f 240/5/5 236/5/5 239/5/5
f 241/1/6 242/1/6 245/1/6
f 245/1/6 242/1/6 246/1/6
f 243/1/6 244/1/6 247/1/6
f 247/1/6 244/1/6 248/1/6
f 249/1/6 250/1/6 251/1/6
f 251/1/6 250/1/6 252/1/6
f 253/6/6 254/6/6 255/6/6
f 255/6/6 254/6/6 256/6/6
f 257/6/6 258/6/6 261/6/6
f 261/6/6 258/6/6 262/6/6
f 259/6/6 260/6/6 263/6/6
f 263/6/6 260/6/6 264/6/6
f 265/6/6 266/6/6 269/6/6
f 269/6/6 266/6/6 270/6/6
f 267/6/6 268/6/6 271/6/6
f 271/6/6 268/6/6 272/6/6
f 273/5/6 274/5/6 275/5/6
f 275/5/6 274/5/6 276/5/6
f 277/5/6 278/5/6 279/5/6
f 279/5/6 278/5/6 280/5/6
