# MagicaVoxel @ Ephtracy

# group
o 

# material
mtllib Robot.vox-0.mtl
usemtl palette

# normals
vn -1 0 0
vn 1 0 0
vn 0 0 1
vn 0 0 -1
vn 0 -1 0
vn 0 1 0

# texcoords
vt 0.720703 0.5
vt 0.794922 0.5
vt 0.798828 0.5
vt 0.939453 0.5
vt 0.970703 0.5
vt 0.974609 0.5
vt 0.982422 0.5

# verts
v -10.3 0.3 1.3
v -10.3 0.3 1.1
v -10.3 0.4 1.3
v -10.3 0.4 1.1
v -10.3 0.5 1.3
v -10.3 0.5 1.1
v -10.3 0.6 1.3
v -10.3 0.6 1.1
v -10.3 0.7 1.3
v -10.3 0.7 1.1
v -10.3 0.8 1.3
v -10.3 0.8 1.1
v -10.2 0 1.3
v -10.2 0 1.1
v -10.2 0.3 1.4
v -10.2 0.3 1.3
v -10.2 0.3 1.1
v -10.2 0.3 1
v -10.2 0.4 1.4
v -10.2 0.4 1.3
v -10.2 0.4 1.1
v -10.2 0.4 1
v -10.2 0.5 1.4
v -10.2 0.5 1.3
v -10.2 0.5 1.1
v -10.2 0.5 1
v -10.2 0.6 1.4
v -10.2 0.6 1.3
v -10.2 0.6 1.1
v -10.2 0.6 1
v -10.2 0.7 1.4
v -10.2 0.7 1.3
v -10.2 0.7 1.1
v -10.2 0.7 1
v -10.2 0.8 1.4
v -10.2 0.8 1.3
v -10.2 0.8 1.1
v -10.2 0.8 1
v -10 0 1.3
v -10 0 1.1
v -10 0.3 1.4
v -10 0.3 1.3
v -10 0.3 1.1
v -10 0.3 1
v -10 0.4 1.4
v -10 0.4 1.3
v -10 0.4 1.1
v -10 0.4 1
v -10 0.5 1.4
v -10 0.5 1.3
v -10 0.5 1.1
v -10 0.5 1
v -10 0.6 1.4
v -10 0.6 1.3
v -10 0.6 1.1
v -10 0.6 1
v -10 0.7 1.4
v -10 0.7 1.3
v -10 0.7 1.1
v -10 0.7 1
v -10 0.8 1.4
v -10 0.8 1.3
v -10 0.8 1.1
v -10 0.8 1
v -9.9 0.3 1.3
v -9.9 0.3 1.1
v -9.9 0.4 1.3
v -9.9 0.4 1.1
v -9.9 0.5 1.3
v -9.9 0.5 1.1
v -9.9 0.6 1.3
v -9.9 0.6 1.1
v -9.9 0.7 1.3
v -9.9 0.7 1.1
v -9.9 0.8 1.3
v -9.9 0.8 1.1
v -10.2 0.3 1.4
v -10.2 0.4 1.4
v -10.2 0.5 1.4
v -10.2 0.6 1.4
v -10.2 0.7 1.4
v -10.2 0.8 1.4
v -10 0.3 1.4
v -10 0.4 1.4
v -10 0.5 1.4
v -10 0.6 1.4
v -10 0.7 1.4
v -10 0.8 1.4
v -10.3 0.3 1.3
v -10.3 0.4 1.3
v -10.3 0.5 1.3
v -10.3 0.6 1.3
v -10.3 0.7 1.3
v -10.3 0.8 1.3
v -10.2 0 1.3
v -10.2 0.3 1.3
v -10.2 0.4 1.3
v -10.2 0.5 1.3
v -10.2 0.6 1.3
v -10.2 0.7 1.3
v -10.2 0.8 1.3
v -10 0 1.3
v -10 0.3 1.3
v -10 0.4 1.3
v -10 0.5 1.3
v -10 0.6 1.3
v -10 0.7 1.3
v -10 0.8 1.3
v -9.9 0.3 1.3
v -9.9 0.4 1.3
v -9.9 0.5 1.3
v -9.9 0.6 1.3
v -9.9 0.7 1.3
v -9.9 0.8 1.3
v -10.3 0.3 1.1
v -10.3 0.4 1.1
v -10.3 0.5 1.1
v -10.3 0.6 1.1
v -10.3 0.7 1.1
v -10.3 0.8 1.1
v -10.2 0 1.1
v -10.2 0.3 1.1
v -10.2 0.4 1.1
v -10.2 0.5 1.1
v -10.2 0.6 1.1
v -10.2 0.7 1.1
v -10.2 0.8 1.1
v -10 0 1.1
v -10 0.3 1.1
v -10 0.4 1.1
v -10 0.5 1.1
v -10 0.6 1.1
v -10 0.7 1.1
v -10 0.8 1.1
v -9.9 0.3 1.1
v -9.9 0.4 1.1
v -9.9 0.5 1.1
v -9.9 0.6 1.1
v -9.9 0.7 1.1
v -9.9 0.8 1.1
v -10.2 0.3 1
v -10.2 0.4 1
v -10.2 0.5 1
v -10.2 0.6 1
v -10.2 0.7 1
v -10.2 0.8 1
v -10 0.3 1
v -10 0.4 1
v -10 0.5 1
v -10 0.6 1
v -10 0.7 1
v -10 0.8 1
v -10.2 0 1.3
v -10 0 1.3
v -10.2 0 1.1
v -10 0 1.1
v -10.2 0.3 1.4
v -10 0.3 1.4
v -10.3 0.3 1.3
v -10.2 0.3 1.3
v -10 0.3 1.3
v -9.9 0.3 1.3
v -10.3 0.3 1.1
v -10.2 0.3 1.1
v -10 0.3 1.1
v -9.9 0.3 1.1
v -10.2 0.3 1
v -10 0.3 1
v -10.2 0.8 1.4
v -10 0.8 1.4
v -10.3 0.8 1.3
v -10.2 0.8 1.3
v -10 0.8 1.3
v -9.9 0.8 1.3
v -10.3 0.8 1.1
v -10.2 0.8 1.1
v -10 0.8 1.1
v -9.9 0.8 1.1
v -10.2 0.8 1
v -10 0.8 1

# faces
f 3/5/1 2/5/1 1/5/1
f 4/5/1 2/5/1 3/5/1
f 5/2/1 4/2/1 3/2/1
f 6/2/1 4/2/1 5/2/1
f 7/6/1 6/6/1 5/6/1
f 8/6/1 6/6/1 7/6/1
f 9/7/1 8/7/1 7/7/1
f 10/7/1 8/7/1 9/7/1
f 11/5/1 10/5/1 9/5/1
f 12/5/1 10/5/1 11/5/1
f 16/4/1 14/4/1 13/4/1
f 17/4/1 14/4/1 16/4/1
f 19/5/1 16/5/1 15/5/1
f 20/5/1 16/5/1 19/5/1
f 21/5/1 18/5/1 17/5/1
f 22/5/1 18/5/1 21/5/1
f 23/2/1 20/2/1 19/2/1
f 24/2/1 20/2/1 23/2/1
f 25/2/1 22/2/1 21/2/1
f 26/2/1 22/2/1 25/2/1
f 27/6/1 24/6/1 23/6/1
f 28/6/1 24/6/1 27/6/1
f 29/6/1 26/6/1 25/6/1
f 30/6/1 26/6/1 29/6/1
f 31/7/1 28/7/1 27/7/1
f 32/7/1 28/7/1 31/7/1
f 33/7/1 30/7/1 29/7/1
f 34/7/1 30/7/1 33/7/1
f 35/5/1 32/5/1 31/5/1
f 36/5/1 32/5/1 35/5/1
f 37/5/1 34/5/1 33/5/1
f 38/5/1 34/5/1 37/5/1
f 39/4/2 40/4/2 42/4/2
f 42/4/2 40/4/2 43/4/2
f 41/5/2 42/5/2 45/5/2
f 45/5/2 42/5/2 46/5/2
f 43/5/2 44/5/2 47/5/2
f 47/5/2 44/5/2 48/5/2
f 45/2/2 46/2/2 49/2/2
f 49/2/2 46/2/2 50/2/2
f 47/2/2 48/2/2 51/2/2
f 51/2/2 48/2/2 52/2/2
f 49/6/2 50/6/2 53/6/2
f 53/6/2 50/6/2 54/6/2
f 51/6/2 52/6/2 55/6/2
f 55/6/2 52/6/2 56/6/2
f 53/7/2 54/7/2 57/7/2
f 57/7/2 54/7/2 58/7/2
f 55/7/2 56/7/2 59/7/2
f 59/7/2 56/7/2 60/7/2
f 57/5/2 58/5/2 61/5/2
f 61/5/2 58/5/2 62/5/2
f 59/5/2 60/5/2 63/5/2
f 63/5/2 60/5/2 64/5/2
f 65/5/2 66/5/2 67/5/2
f 67/5/2 66/5/2 68/5/2
f 67/2/2 68/2/2 69/2/2
f 69/2/2 68/2/2 70/2/2
f 69/6/2 70/6/2 71/6/2
f 71/6/2 70/6/2 72/6/2
f 71/7/2 72/7/2 73/7/2
f 73/7/2 72/7/2 74/7/2
f 73/5/2 74/5/2 75/5/2
f 75/5/2 74/5/2 76/5/2
f 83/5/3 78/5/3 77/5/3
f 84/2/3 79/2/3 78/2/3
f 84/5/3 78/5/3 83/5/3
f 85/6/3 80/6/3 79/6/3
f 85/2/3 79/2/3 84/2/3
f 86/7/3 81/7/3 80/7/3
f 86/6/3 80/6/3 85/6/3
f 87/5/3 82/5/3 81/5/3
f 87/7/3 81/7/3 86/7/3
f 88/5/3 82/5/3 87/5/3
f 96/5/3 90/5/3 89/5/3
f 97/2/3 91/2/3 90/2/3
f 97/5/3 90/5/3 96/5/3
f 98/6/3 92/6/3 91/6/3
f 98/2/3 91/2/3 97/2/3
f 99/7/3 93/7/3 92/7/3
f 99/6/3 92/6/3 98/6/3
f 100/5/3 94/5/3 93/5/3
f 100/7/3 93/7/3 99/7/3
f 101/5/3 94/5/3 100/5/3
f 102/4/3 96/4/3 95/4/3
f 103/4/3 96/4/3 102/4/3
f 109/5/3 104/5/3 103/5/3
f 110/2/3 105/2/3 104/2/3
f 110/5/3 104/5/3 109/5/3
f 111/6/3 106/6/3 105/6/3
f 111/2/3 105/2/3 110/2/3
f 112/7/3 107/7/3 106/7/3
f 112/6/3 106/6/3 111/6/3
f 113/5/3 108/5/3 107/5/3
f 113/7/3 107/7/3 112/7/3
f 114/5/3 108/5/3 113/5/3
f 115/5/4 116/5/4 122/5/4
f 116/2/4 117/2/4 123/2/4
f 122/5/4 116/5/4 123/5/4
f 117/6/4 118/6/4 124/6/4
f 123/2/4 117/2/4 124/2/4
f 118/7/4 119/7/4 125/7/4
f 124/6/4 118/6/4 125/6/4
f 119/5/4 120/5/4 126/5/4
f 125/7/4 119/7/4 126/7/4
f 126/5/4 120/5/4 127/5/4
f 121/4/4 122/4/4 128/4/4
f 128/4/4 122/4/4 129/4/4
f 129/5/4 130/5/4 135/5/4
f 130/2/4 131/2/4 136/2/4
f 135/5/4 130/5/4 136/5/4
f 131/6/4 132/6/4 137/6/4
f 136/2/4 131/2/4 137/2/4
f 132/7/4 133/7/4 138/7/4
f 137/6/4 132/6/4 138/6/4
f 133/5/4 134/5/4 139/5/4
f 138/7/4 133/7/4 139/7/4
f 139/5/4 134/5/4 140/5/4
f 141/5/4 142/5/4 147/5/4
f 142/2/4 143/2/4 148/2/4
f 147/5/4 142/5/4 148/5/4
f 143/6/4 144/6/4 149/6/4
f 148/2/4 143/2/4 149/2/4
f 144/7/4 145/7/4 150/7/4
f 149/6/4 144/6/4 150/6/4
f 145/5/4 146/5/4 151/5/4
f 150/7/4 145/7/4 151/7/4
f 151/5/4 146/5/4 152/5/4
f 155/4/5 154/4/5 153/4/5
f 156/4/5 154/4/5 155/4/5
f 160/5/5 158/5/5 157/5/5
f 161/5/5 158/5/5 160/5/5
f 163/5/5 160/5/5 159/5/5
f 164/5/5 160/5/5 163/5/5
f 165/5/5 162/5/5 161/5/5
f 166/5/5 162/5/5 165/5/5
f 167/5/5 165/5/5 164/5/5
f 168/5/5 165/5/5 167/5/5
f 169/5/6 170/5/6 172/5/6
f 172/5/6 170/5/6 173/5/6
f 171/5/6 172/5/6 175/5/6
f 173/5/6 174/5/6 175/5/6
f 172/5/6 173/5/6 175/5/6
f 175/5/6 174/5/6 176/5/6
f 176/5/6 174/5/6 177/5/6
f 177/5/6 174/5/6 178/5/6
f 176/5/6 177/5/6 179/5/6
f 179/5/6 177/5/6 180/5/6
