# MagicaVoxel @ Ephtracy

# group
o 

# material
mtllib Robot.vox-9.mtl
usemtl palette

# normals
vn -1 0 0
vn 1 0 0
vn 0 0 1
vn 0 0 -1
vn 0 -1 0
vn 0 1 0

# texcoords
vt 0.939453 0.5
vt 0.970703 0.5
vt 0.982422 0.5

# verts
v -6.5 0 1.1
v -6.5 0 0.9
v -6.5 0.1 1.1
v -6.5 0.1 0.9
v -6.5 0.4 1.1
v -6.5 0.4 0.9
v -6.5 0.5 1.1
v -6.5 0.5 1
v -6.5 1.1 1.1
v -6.5 1.1 1
v -6.5 1.2 1.1
v -6.5 1.2 0.9
v -6.5 1.5 1.1
v -6.5 1.5 0.9
v -6.5 1.6 1.1
v -6.5 1.6 0.9
v -6.4 0 1.2
v -6.4 0 1.1
v -6.4 0 0.9
v -6.4 0 0.8
v -6.4 0.1 1.2
v -6.4 0.1 1.1
v -6.4 0.1 0.9
v -6.4 0.1 0.8
v -6.4 0.3 1.2
v -6.4 0.3 1.1
v -6.4 0.3 0.9
v -6.4 0.3 0.8
v -6.4 0.4 1.1
v -6.4 0.4 0.9
v -6.4 0.5 1.1
v -6.4 0.5 0.9
v -6.4 0.5 0.8
v -6.4 1.1 1.1
v -6.4 1.1 0.9
v -6.4 1.1 0.8
v -6.4 1.2 1.1
v -6.4 1.2 0.9
v -6.4 1.3 1.2
v -6.4 1.3 1.1
v -6.4 1.3 0.9
v -6.4 1.3 0.8
v -6.4 1.5 1.2
v -6.4 1.5 1.1
v -6.4 1.5 0.9
v -6.4 1.5 0.8
v -6.4 1.6 1.2
v -6.4 1.6 1.1
v -6.4 1.6 0.9
v -6.4 1.6 0.8
v -6.2 0 1.2
v -6.2 0 1.1
v -6.2 0 0.9
v -6.2 0 0.8
v -6.2 0.1 1.2
v -6.2 0.1 1.1
v -6.2 0.1 0.9
v -6.2 0.1 0.8
v -6.2 0.3 1.2
v -6.2 0.3 1.1
v -6.2 0.3 0.9
v -6.2 0.3 0.8
v -6.2 0.4 1.1
v -6.2 0.4 0.9
v -6.2 0.5 1.2
v -6.2 0.5 1.1
v -6.2 0.5 0.9
v -6.2 1.1 1.2
v -6.2 1.1 1.1
v -6.2 1.1 0.9
v -6.2 1.2 1.1
v -6.2 1.2 0.9
v -6.2 1.3 1.2
v -6.2 1.3 1.1
v -6.2 1.3 0.9
v -6.2 1.3 0.8
v -6.2 1.5 1.2
v -6.2 1.5 1.1
v -6.2 1.5 0.9
v -6.2 1.5 0.8
v -6.2 1.6 1.2
v -6.2 1.6 1.1
v -6.2 1.6 0.9
v -6.2 1.6 0.8
v -6.1 0 1.1
v -6.1 0 0.9
v -6.1 0.1 1.1
v -6.1 0.1 0.9
v -6.1 0.4 1.1
v -6.1 0.4 0.9
v -6.1 0.5 1
v -6.1 0.5 0.9
v -6.1 1.1 1
v -6.1 1.1 0.9
v -6.1 1.2 1.1
v -6.1 1.2 0.9
v -6.1 1.5 1.1
v -6.1 1.5 0.9
v -6.1 1.6 1.1
v -6.1 1.6 0.9
v -6.4 0 1.2
v -6.4 0.1 1.2
v -6.4 0.3 1.2
v -6.4 1.3 1.2
v -6.4 1.5 1.2
v -6.4 1.6 1.2
v -6.3 0.5 1.2
v -6.3 1.1 1.2
v -6.2 0 1.2
v -6.2 0.1 1.2
v -6.2 0.3 1.2
v -6.2 0.5 1.2
v -6.2 1.1 1.2
v -6.2 1.3 1.2
v -6.2 1.5 1.2
v -6.2 1.6 1.2
v -6.5 0 1.1
v -6.5 0.1 1.1
v -6.5 0.4 1.1
v -6.5 0.5 1.1
v -6.5 1.1 1.1
v -6.5 1.2 1.1
v -6.5 1.5 1.1
v -6.5 1.6 1.1
v -6.4 0 1.1
v -6.4 0.1 1.1
v -6.4 0.3 1.1
v -6.4 0.4 1.1
v -6.4 0.5 1.1
v -6.4 1.1 1.1
v -6.4 1.2 1.1
v -6.4 1.3 1.1
v -6.4 1.5 1.1
v -6.4 1.6 1.1
v -6.2 0 1.1
v -6.2 0.1 1.1
v -6.2 0.3 1.1
v -6.2 0.4 1.1
v -6.2 0.5 1.1
v -6.2 1.1 1.1
v -6.2 1.2 1.1
v -6.2 1.3 1.1
v -6.2 1.5 1.1
v -6.2 1.6 1.1
v -6.1 0 1.1
v -6.1 0.1 1.1
v -6.1 0.4 1.1
v -6.1 1.2 1.1
v -6.1 1.5 1.1
v -6.1 1.6 1.1
v -6.5 0 0.9
v -6.5 0.1 0.9
v -6.5 0.4 0.9
v -6.5 1.2 0.9
v -6.5 1.5 0.9
v -6.5 1.6 0.9
v -6.4 0 0.9
v -6.4 0.1 0.9
v -6.4 0.3 0.9
v -6.4 0.4 0.9
v -6.4 0.5 0.9
v -6.4 1.1 0.9
v -6.4 1.2 0.9
v -6.4 1.3 0.9
v -6.4 1.5 0.9
v -6.4 1.6 0.9
v -6.2 0 0.9
v -6.2 0.1 0.9
v -6.2 0.3 0.9
v -6.2 0.4 0.9
v -6.2 0.5 0.9
v -6.2 1.1 0.9
v -6.2 1.2 0.9
v -6.2 1.3 0.9
v -6.2 1.5 0.9
v -6.2 1.6 0.9
v -6.1 0 0.9
v -6.1 0.1 0.9
v -6.1 0.4 0.9
v -6.1 0.5 0.9
v -6.1 1.1 0.9
v -6.1 1.2 0.9
v -6.1 1.5 0.9
v -6.1 1.6 0.9
v -6.4 0 0.8
v -6.4 0.1 0.8
v -6.4 0.3 0.8
v -6.4 0.5 0.8
v -6.4 1.1 0.8
v -6.4 1.3 0.8
v -6.4 1.5 0.8
v -6.4 1.6 0.8
v -6.3 0.5 0.8
v -6.3 1.1 0.8
v -6.2 0 0.8
v -6.2 0.1 0.8
v -6.2 0.3 0.8
v -6.2 1.3 0.8
v -6.2 1.5 0.8
v -6.2 1.6 0.8
v -6.4 0 1.2
v -6.2 0 1.2
v -6.5 0 1.1
v -6.4 0 1.1
v -6.2 0 1.1
v -6.1 0 1.1
v -6.5 0 0.9
v -6.4 0 0.9
v -6.2 0 0.9
v -6.1 0 0.9
v -6.4 0 0.8
v -6.2 0 0.8
v -6.4 1.6 1.2
v -6.2 1.6 1.2
v -6.5 1.6 1.1
v -6.4 1.6 1.1
v -6.2 1.6 1.1
v -6.1 1.6 1.1
v -6.5 1.6 0.9
v -6.4 1.6 0.9
v -6.2 1.6 0.9
v -6.1 1.6 0.9
v -6.4 1.6 0.8
v -6.2 1.6 0.8

# faces
f 3/1/1 2/1/1 1/1/1
f 4/1/1 2/1/1 3/1/1
f 5/2/1 4/2/1 3/2/1
f 6/2/1 4/2/1 5/2/1
f 7/3/1 6/3/1 5/3/1
f 8/3/1 6/3/1 7/3/1
f 9/2/1 8/2/1 7/2/1
f 10/3/1 6/3/1 8/3/1
f 10/2/1 8/2/1 9/2/1
f 11/3/1 10/3/1 9/3/1
f 12/3/1 6/3/1 10/3/1
f 12/3/1 10/3/1 11/3/1
f 13/2/1 12/2/1 11/2/1
f 14/2/1 12/2/1 13/2/1
f 15/1/1 14/1/1 13/1/1
f 16/1/1 14/1/1 15/1/1
f 21/1/1 18/1/1 17/1/1
f 22/1/1 18/1/1 21/1/1
f 23/1/1 20/1/1 19/1/1
f 24/1/1 20/1/1 23/1/1
f 25/2/1 22/2/1 21/2/1
f 26/2/1 22/2/1 25/2/1
f 27/2/1 24/2/1 23/2/1
f 28/2/1 24/2/1 27/2/1
f 29/3/1 26/3/1 25/3/1
f 30/3/1 28/3/1 27/3/1
f 31/3/1 29/3/1 25/3/1
f 32/3/1 28/3/1 30/3/1
f 33/3/1 28/3/1 32/3/1
f 34/3/1 31/3/1 25/3/1
f 35/2/1 33/2/1 32/2/1
f 36/2/1 33/2/1 35/2/1
f 37/3/1 34/3/1 25/3/1
f 38/3/1 36/3/1 35/3/1
f 39/3/1 37/3/1 25/3/1
f 40/3/1 37/3/1 39/3/1
f 41/3/1 36/3/1 38/3/1
f 42/3/1 36/3/1 41/3/1
f 43/2/1 40/2/1 39/2/1
f 44/2/1 40/2/1 43/2/1
f 45/2/1 42/2/1 41/2/1
f 46/2/1 42/2/1 45/2/1
f 47/1/1 44/1/1 43/1/1
f 48/1/1 44/1/1 47/1/1
f 49/1/1 46/1/1 45/1/1
f 50/1/1 46/1/1 49/1/1
f 51/1/2 52/1/2 55/1/2
f 55/1/2 52/1/2 56/1/2
f 53/1/2 54/1/2 57/1/2
f 57/1/2 54/1/2 58/1/2
f 55/2/2 56/2/2 59/2/2
f 59/2/2 56/2/2 60/2/2
f 57/2/2 58/2/2 61/2/2
f 61/2/2 58/2/2 62/2/2
f 59/3/2 60/3/2 63/3/2
f 61/3/2 62/3/2 64/3/2
f 59/3/2 63/3/2 65/3/2
f 65/3/2 63/3/2 66/3/2
f 64/3/2 62/3/2 67/3/2
f 65/2/2 66/2/2 68/2/2
f 68/2/2 66/2/2 69/2/2
f 67/3/2 62/3/2 70/3/2
f 68/3/2 69/3/2 71/3/2
f 70/3/2 62/3/2 72/3/2
f 68/3/2 71/3/2 73/3/2
f 73/3/2 71/3/2 74/3/2
f 72/3/2 62/3/2 75/3/2
f 75/3/2 62/3/2 76/3/2
f 73/2/2 74/2/2 77/2/2
f 77/2/2 74/2/2 78/2/2
f 75/2/2 76/2/2 79/2/2
f 79/2/2 76/2/2 80/2/2
f 77/1/2 78/1/2 81/1/2
f 81/1/2 78/1/2 82/1/2
f 79/1/2 80/1/2 83/1/2
f 83/1/2 80/1/2 84/1/2
f 85/1/2 86/1/2 87/1/2
f 87/1/2 86/1/2 88/1/2
f 87/2/2 88/2/2 89/2/2
f 89/2/2 88/2/2 90/2/2
f 89/3/2 90/3/2 91/3/2
f 91/3/2 90/3/2 92/3/2
f 89/3/2 91/3/2 93/3/2
f 91/2/2 92/2/2 93/2/2
f 93/2/2 92/2/2 94/2/2
f 89/3/2 93/3/2 95/3/2
f 93/3/2 94/3/2 95/3/2
f 95/3/2 94/3/2 96/3/2
f 95/2/2 96/2/2 97/2/2
f 97/2/2 96/2/2 98/2/2
f 97/1/2 98/1/2 99/1/2
f 99/1/2 98/1/2 100/1/2
f 107/3/3 104/3/3 103/3/3
f 108/3/3 104/3/3 107/3/3
f 109/1/3 102/1/3 101/1/3
f 110/2/3 103/2/3 102/2/3
f 110/1/3 102/1/3 109/1/3
f 111/3/3 107/3/3 103/3/3
f 111/2/3 103/2/3 110/2/3
f 112/2/3 108/2/3 107/2/3
f 112/3/3 107/3/3 111/3/3
f 113/3/3 104/3/3 108/3/3
f 113/2/3 108/2/3 112/2/3
f 114/2/3 105/2/3 104/2/3
f 114/3/3 104/3/3 113/3/3
f 115/1/3 106/1/3 105/1/3
f 115/2/3 105/2/3 114/2/3
f 116/1/3 106/1/3 115/1/3
f 125/1/3 118/1/3 117/1/3
f 126/2/3 119/2/3 118/2/3
f 126/1/3 118/1/3 125/1/3
f 127/2/3 119/2/3 126/2/3
f 128/3/3 120/3/3 119/3/3
f 128/2/3 119/2/3 127/2/3
f 129/2/3 121/2/3 120/2/3
f 129/3/3 120/3/3 128/3/3
f 130/3/3 122/3/3 121/3/3
f 130/2/3 121/2/3 129/2/3
f 131/2/3 123/2/3 122/2/3
f 131/3/3 122/3/3 130/3/3
f 132/2/3 123/2/3 131/2/3
f 133/1/3 124/1/3 123/1/3
f 133/2/3 123/2/3 132/2/3
f 134/1/3 124/1/3 133/1/3
f 145/1/3 136/1/3 135/1/3
f 146/2/3 137/2/3 136/2/3
f 146/1/3 136/1/3 145/1/3
f 146/2/3 138/2/3 137/2/3
f 147/3/3 139/3/3 138/3/3
f 147/2/3 138/2/3 146/2/3
f 147/3/3 140/3/3 139/3/3
f 147/3/3 141/3/3 140/3/3
f 148/2/3 143/2/3 142/2/3
f 148/3/3 141/3/3 147/3/3
f 148/2/3 142/2/3 141/2/3
f 149/1/3 144/1/3 143/1/3
f 149/2/3 143/2/3 148/2/3
f 150/1/3 144/1/3 149/1/3
f 151/1/4 152/1/4 157/1/4
f 152/2/4 153/2/4 158/2/4
f 157/1/4 152/1/4 158/1/4
f 158/2/4 153/2/4 159/2/4
f 153/3/4 154/3/4 160/3/4
f 159/2/4 153/2/4 160/2/4
f 160/3/4 154/3/4 161/3/4
f 161/3/4 154/3/4 162/3/4
f 154/2/4 155/2/4 163/2/4
f 162/3/4 154/3/4 163/3/4
f 163/2/4 155/2/4 164/2/4
f 155/1/4 156/1/4 165/1/4
f 164/2/4 155/2/4 165/2/4
f 165/1/4 156/1/4 166/1/4
f 167/1/4 168/1/4 177/1/4
f 168/2/4 169/2/4 178/2/4
f 177/1/4 168/1/4 178/1/4
f 169/2/4 170/2/4 178/2/4
f 170/3/4 171/3/4 179/3/4
f 178/2/4 170/2/4 179/2/4
f 171/2/4 172/2/4 180/2/4
f 179/3/4 171/3/4 180/3/4
f 172/3/4 173/3/4 181/3/4
f 180/2/4 172/2/4 181/2/4
f 174/2/4 175/2/4 182/2/4
f 181/3/4 173/3/4 182/3/4
f 173/2/4 174/2/4 182/2/4
f 175/1/4 176/1/4 183/1/4
f 182/2/4 175/2/4 183/2/4
f 183/1/4 176/1/4 184/1/4
f 187/3/4 188/3/4 193/3/4
f 188/2/4 189/2/4 193/2/4
f 189/3/4 190/3/4 194/3/4
f 193/2/4 189/2/4 194/2/4
f 185/1/4 186/1/4 195/1/4
f 186/2/4 187/2/4 196/2/4
f 195/1/4 186/1/4 196/1/4
f 187/3/4 193/3/4 197/3/4
f 196/2/4 187/2/4 197/2/4
f 193/3/4 194/3/4 197/3/4
f 194/3/4 190/3/4 198/3/4
f 197/3/4 194/3/4 198/3/4
f 190/2/4 191/2/4 198/2/4
f 191/1/4 192/1/4 199/1/4
f 198/2/4 191/2/4 199/2/4
f 199/1/4 192/1/4 200/1/4
f 204/1/5 202/1/5 201/1/5
f 205/1/5 202/1/5 204/1/5
f 207/1/5 204/1/5 203/1/5
f 207/1/5 206/1/5 205/1/5
f 207/1/5 205/1/5 204/1/5
f 208/1/5 206/1/5 207/1/5
f 209/1/5 206/1/5 208/1/5
f 210/1/5 206/1/5 209/1/5
f 211/1/5 209/1/5 208/1/5
f 212/1/5 209/1/5 211/1/5
f 213/1/6 214/1/6 216/1/6
f 216/1/6 214/1/6 217/1/6
f 215/1/6 216/1/6 219/1/6
f 217/1/6 218/1/6 219/1/6
f 216/1/6 217/1/6 219/1/6
f 219/1/6 218/1/6 220/1/6
f 220/1/6 218/1/6 221/1/6
f 221/1/6 218/1/6 222/1/6
f 220/1/6 221/1/6 223/1/6
f 223/1/6 221/1/6 224/1/6
