# MagicaVoxel @ Ephtracy

# group
o 

# material
mtllib Robot.vox-16.mtl
usemtl palette

# normals
vn -1 0 0
vn 1 0 0
vn 0 0 1
vn 0 0 -1
vn 0 -1 0
vn 0 1 0

# texcoords
vt 0.912109 0.5
vt 0.943359 0.5
vt 0.974609 0.5
vt 0.978516 0.5

# verts
v -6.5 0 0.1
v -6.5 0 -0.1
v -6.5 0.6 0.1
v -6.5 0.6 -0.1
v -6.5 0.7 0.1
v -6.5 0.7 -0.1
v -6.5 0.9 0.1
v -6.5 0.9 -0.1
v -6.5 1 0.1
v -6.5 1 -0.1
v -6.5 1.2 0.1
v -6.5 1.2 -0.1
v -6.5 1.3 0.1
v -6.5 1.3 -0.1
v -6.5 1.4 0.1
v -6.5 1.4 -0.1
v -6.5 1.5 0.1
v -6.5 1.5 -0.1
v -6.5 1.6 0.1
v -6.5 1.6 -0.1
v -6.4 0 0.2
v -6.4 0 0.1
v -6.4 0 -0.1
v -6.4 0 -0.2
v -6.4 0.6 0.2
v -6.4 0.6 0.1
v -6.4 0.6 0
v -6.4 0.6 -0.1
v -6.4 0.6 -0.2
v -6.4 0.7 0.2
v -6.4 0.7 0.1
v -6.4 0.7 0
v -6.4 0.7 -0.1
v -6.4 0.7 -0.2
v -6.4 0.9 0.2
v -6.4 0.9 0.1
v -6.4 0.9 0
v -6.4 0.9 -0.1
v -6.4 0.9 -0.2
v -6.4 1 0.2
v -6.4 1 0.1
v -6.4 1 0
v -6.4 1 -0.1
v -6.4 1 -0.2
v -6.4 1.2 0.2
v -6.4 1.2 0.1
v -6.4 1.2 0
v -6.4 1.2 -0.1
v -6.4 1.2 -0.2
v -6.4 1.3 0.2
v -6.4 1.3 0.1
v -6.4 1.3 0
v -6.4 1.3 -0.1
v -6.4 1.3 -0.2
v -6.4 1.4 0.2
v -6.4 1.4 0.1
v -6.4 1.4 0
v -6.4 1.4 -0.1
v -6.4 1.4 -0.2
v -6.4 1.5 0.2
v -6.4 1.5 0.1
v -6.4 1.5 0
v -6.4 1.5 -0.1
v -6.4 1.5 -0.2
v -6.4 1.6 0.2
v -6.4 1.6 0.1
v -6.4 1.6 -0.1
v -6.4 1.6 -0.2
v -6.2 0 0.2
v -6.2 0 0.1
v -6.2 0 -0.1
v -6.2 0 -0.2
v -6.2 0.6 0.2
v -6.2 0.6 0.1
v -6.2 0.6 0
v -6.2 0.6 -0.1
v -6.2 0.6 -0.2
v -6.2 0.7 0.2
v -6.2 0.7 0.1
v -6.2 0.7 0
v -6.2 0.7 -0.1
v -6.2 0.7 -0.2
v -6.2 0.9 0.2
v -6.2 0.9 0.1
v -6.2 0.9 -0.1
v -6.2 0.9 -0.2
v -6.2 1 0.2
v -6.2 1 0.1
v -6.2 1 -0.1
v -6.2 1 -0.2
v -6.2 1.2 0.2
v -6.2 1.2 0.1
v -6.2 1.2 0
v -6.2 1.2 -0.1
v -6.2 1.2 -0.2
v -6.2 1.3 0.2
v -6.2 1.3 0.1
v -6.2 1.3 0
v -6.2 1.3 -0.1
v -6.2 1.3 -0.2
v -6.2 1.4 0.2
v -6.2 1.4 0.1
v -6.2 1.4 -0.1
v -6.2 1.4 -0.2
v -6.2 1.5 0.2
v -6.2 1.5 0.1
v -6.2 1.5 -0.1
v -6.2 1.5 -0.2
v -6.2 1.6 0.2
v -6.2 1.6 0.1
v -6.2 1.6 -0.1
v -6.2 1.6 -0.2
v -6.1 0 0.1
v -6.1 0 -0.1
v -6.1 0.6 0.1
v -6.1 0.6 -0.1
v -6.1 0.7 0.1
v -6.1 0.7 -0.1
v -6.1 0.9 0.1
v -6.1 0.9 -0.1
v -6.1 1 0.1
v -6.1 1 -0.1
v -6.1 1.2 0.1
v -6.1 1.2 -0.1
v -6.1 1.3 0.1
v -6.1 1.3 -0.1
v -6.1 1.4 0.1
v -6.1 1.4 -0.1
v -6.1 1.5 0.1
v -6.1 1.5 -0.1
v -6.1 1.6 0.1
v -6.1 1.6 -0.1
v -6.4 0 0.2
v -6.4 0.6 0.2
v -6.4 0.7 0.2
v -6.4 0.9 0.2
v -6.4 1 0.2
v -6.4 1.2 0.2
v -6.4 1.3 0.2
v -6.4 1.4 0.2
v -6.4 1.5 0.2
v -6.4 1.6 0.2
v -6.2 0 0.2
v -6.2 0.6 0.2
v -6.2 0.7 0.2
v -6.2 0.9 0.2
v -6.2 1 0.2
v -6.2 1.2 0.2
v -6.2 1.3 0.2
v -6.2 1.4 0.2
v -6.2 1.5 0.2
v -6.2 1.6 0.2
v -6.5 0 0.1
v -6.5 0.6 0.1
v -6.5 0.7 0.1
v -6.5 0.9 0.1
v -6.5 1 0.1
v -6.5 1.2 0.1
v -6.5 1.3 0.1
v -6.5 1.4 0.1
v -6.5 1.5 0.1
v -6.5 1.6 0.1
v -6.4 0 0.1
v -6.4 0.6 0.1
v -6.4 0.7 0.1
v -6.4 0.9 0.1
v -6.4 1 0.1
v -6.4 1.2 0.1
v -6.4 1.3 0.1
v -6.4 1.4 0.1
v -6.4 1.5 0.1
v -6.4 1.6 0.1
v -6.3 0.6 0.1
v -6.3 0.7 0.1
v -6.3 0.9 0.1
v -6.3 1 0.1
v -6.3 1.2 0.1
v -6.3 1.3 0.1
v -6.3 1.4 0.1
v -6.3 1.5 0.1
v -6.2 0 0.1
v -6.2 0.6 0.1
v -6.2 0.7 0.1
v -6.2 0.9 0.1
v -6.2 1 0.1
v -6.2 1.2 0.1
v -6.2 1.3 0.1
v -6.2 1.4 0.1
v -6.2 1.5 0.1
v -6.2 1.6 0.1
v -6.1 0 0.1
v -6.1 0.6 0.1
v -6.1 0.7 0.1
v -6.1 0.9 0.1
v -6.1 1 0.1
v -6.1 1.2 0.1
v -6.1 1.3 0.1
v -6.1 1.4 0.1
v -6.1 1.5 0.1
v -6.1 1.6 0.1
v -6.5 0 -0.1
v -6.5 0.6 -0.1
v -6.5 0.7 -0.1
v -6.5 0.9 -0.1
v -6.5 1 -0.1
v -6.5 1.2 -0.1
v -6.5 1.3 -0.1
v -6.5 1.4 -0.1
v -6.5 1.5 -0.1
v -6.5 1.6 -0.1
v -6.4 0 -0.1
v -6.4 0.6 -0.1
v -6.4 0.7 -0.1
v -6.4 0.9 -0.1
v -6.4 1 -0.1
v -6.4 1.2 -0.1
v -6.4 1.3 -0.1
v -6.4 1.4 -0.1
v -6.4 1.5 -0.1
v -6.4 1.6 -0.1
v -6.3 0.6 -0.1
v -6.3 0.7 -0.1
v -6.2 0 -0.1
v -6.2 0.6 -0.1
v -6.2 0.7 -0.1
v -6.2 0.9 -0.1
v -6.2 1 -0.1
v -6.2 1.2 -0.1
v -6.2 1.3 -0.1
v -6.2 1.4 -0.1
v -6.2 1.5 -0.1
v -6.2 1.6 -0.1
v -6.1 0 -0.1
v -6.1 0.6 -0.1
v -6.1 0.7 -0.1
v -6.1 0.9 -0.1
v -6.1 1 -0.1
v -6.1 1.2 -0.1
v -6.1 1.3 -0.1
v -6.1 1.4 -0.1
v -6.1 1.5 -0.1
v -6.1 1.6 -0.1
v -6.4 0 -0.2
v -6.4 0.6 -0.2
v -6.4 0.7 -0.2
v -6.4 0.9 -0.2
v -6.4 1 -0.2
v -6.4 1.2 -0.2
v -6.4 1.3 -0.2
v -6.4 1.4 -0.2
v -6.4 1.5 -0.2
v -6.4 1.6 -0.2
v -6.2 0 -0.2
v -6.2 0.6 -0.2
v -6.2 0.7 -0.2
v -6.2 0.9 -0.2
v -6.2 1 -0.2
v -6.2 1.2 -0.2
v -6.2 1.3 -0.2
v -6.2 1.4 -0.2
v -6.2 1.5 -0.2
v -6.2 1.6 -0.2
v -6.4 0 0.2
v -6.2 0 0.2
v -6.5 0 0.1
v -6.4 0 0.1
v -6.2 0 0.1
v -6.1 0 0.1
v -6.5 0 -0.1
v -6.4 0 -0.1
v -6.2 0 -0.1
v -6.1 0 -0.1
v -6.4 0 -0.2
v -6.2 0 -0.2
v -6.4 0.7 0.2
v -6.2 0.7 0.2
v -6.5 0.7 0.1
v -6.4 0.7 0.1
v -6.3 0.7 0.1
v -6.2 0.7 0.1
v -6.1 0.7 0.1
v -6.4 0.7 0
v -6.2 0.7 0
v -6.5 0.7 -0.1
v -6.4 0.7 -0.1
v -6.3 0.7 -0.1
v -6.2 0.7 -0.1
v -6.1 0.7 -0.1
v -6.4 0.7 -0.2
v -6.2 0.7 -0.2
v -6.4 1 0.2
v -6.2 1 0.2
v -6.5 1 0.1
v -6.4 1 0.1
v -6.3 1 0.1
v -6.2 1 0.1
v -6.1 1 0.1
v -6.4 1 0
v -6.5 1 -0.1
v -6.4 1 -0.1
v -6.2 1 -0.1
v -6.1 1 -0.1
v -6.4 1 -0.2
v -6.2 1 -0.2
v -6.4 1.3 0.2
v -6.2 1.3 0.2
v -6.5 1.3 0.1
v -6.4 1.3 0.1
v -6.3 1.3 0.1
v -6.2 1.3 0.1
v -6.1 1.3 0.1
v -6.4 1.3 0
v -6.2 1.3 0
v -6.5 1.3 -0.1
v -6.4 1.3 -0.1
v -6.2 1.3 -0.1
v -6.1 1.3 -0.1
v -6.4 1.3 -0.2
v -6.2 1.3 -0.2
v -6.4 1.5 0.2
v -6.2 1.5 0.2
v -6.5 1.5 0.1
v -6.4 1.5 0.1
v -6.3 1.5 0.1
v -6.2 1.5 0.1
v -6.1 1.5 0.1
v -6.4 1.5 0
v -6.5 1.5 -0.1
v -6.4 1.5 -0.1
v -6.2 1.5 -0.1
v -6.1 1.5 -0.1
v -6.4 1.5 -0.2
v -6.2 1.5 -0.2
v -6.4 0.6 0.2
v -6.2 0.6 0.2
v -6.5 0.6 0.1
v -6.4 0.6 0.1
v -6.3 0.6 0.1
v -6.2 0.6 0.1
v -6.1 0.6 0.1
v -6.4 0.6 0
v -6.2 0.6 0
v -6.5 0.6 -0.1
v -6.4 0.6 -0.1
v -6.3 0.6 -0.1
v -6.2 0.6 -0.1
v -6.1 0.6 -0.1
v -6.4 0.6 -0.2
v -6.2 0.6 -0.2
v -6.4 0.9 0.2
v -6.2 0.9 0.2
v -6.5 0.9 0.1
v -6.4 0.9 0.1
v -6.3 0.9 0.1
v -6.2 0.9 0.1
v -6.1 0.9 0.1
v -6.4 0.9 0
v -6.5 0.9 -0.1
v -6.4 0.9 -0.1
v -6.2 0.9 -0.1
v -6.1 0.9 -0.1
v -6.4 0.9 -0.2
v -6.2 0.9 -0.2
v -6.4 1.2 0.2
v -6.2 1.2 0.2
v -6.5 1.2 0.1
v -6.4 1.2 0.1
v -6.3 1.2 0.1
v -6.2 1.2 0.1
v -6.1 1.2 0.1
v -6.4 1.2 0
v -6.2 1.2 0
v -6.5 1.2 -0.1
v -6.4 1.2 -0.1
v -6.2 1.2 -0.1
v -6.1 1.2 -0.1
v -6.4 1.2 -0.2
v -6.2 1.2 -0.2
v -6.4 1.4 0.2
v -6.2 1.4 0.2
v -6.5 1.4 0.1
v -6.4 1.4 0.1
v -6.3 1.4 0.1
v -6.2 1.4 0.1
v -6.1 1.4 0.1
v -6.4 1.4 0
v -6.5 1.4 -0.1
v -6.4 1.4 -0.1
v -6.2 1.4 -0.1
v -6.1 1.4 -0.1
v -6.4 1.4 -0.2
v -6.2 1.4 -0.2
v -6.4 1.6 0.2
v -6.2 1.6 0.2
v -6.5 1.6 0.1
v -6.4 1.6 0.1
v -6.2 1.6 0.1
v -6.1 1.6 0.1
v -6.5 1.6 -0.1
v -6.4 1.6 -0.1
v -6.2 1.6 -0.1
v -6.1 1.6 -0.1
v -6.4 1.6 -0.2
v -6.2 1.6 -0.2

# faces
f 3/4/1 2/4/1 1/4/1
f 4/4/1 2/4/1 3/4/1
f 7/4/1 6/4/1 5/4/1
f 8/4/1 6/4/1 7/4/1
f 11/4/1 10/4/1 9/4/1
f 12/4/1 10/4/1 11/4/1
f 15/4/1 14/4/1 13/4/1
f 16/4/1 14/4/1 15/4/1
f 19/4/1 18/4/1 17/4/1
f 20/4/1 18/4/1 19/4/1
f 25/4/1 22/4/1 21/4/1
f 26/4/1 22/4/1 25/4/1
f 28/4/1 24/4/1 23/4/1
f 29/4/1 24/4/1 28/4/1
f 31/3/1 27/3/1 26/3/1
f 32/2/1 28/2/1 27/2/1
f 32/3/1 27/3/1 31/3/1
f 33/2/1 28/2/1 32/2/1
f 35/4/1 31/4/1 30/4/1
f 36/4/1 31/4/1 35/4/1
f 38/4/1 34/4/1 33/4/1
f 39/4/1 34/4/1 38/4/1
f 41/1/1 37/1/1 36/1/1
f 42/3/1 38/3/1 37/3/1
f 42/1/1 37/1/1 41/1/1
f 43/3/1 38/3/1 42/3/1
f 45/4/1 41/4/1 40/4/1
f 46/4/1 41/4/1 45/4/1
f 48/4/1 44/4/1 43/4/1
f 49/4/1 44/4/1 48/4/1
f 51/1/1 47/1/1 46/1/1
f 52/3/1 48/3/1 47/3/1
f 52/1/1 47/1/1 51/1/1
f 53/3/1 48/3/1 52/3/1
f 55/4/1 51/4/1 50/4/1
f 56/4/1 51/4/1 55/4/1
f 58/4/1 54/4/1 53/4/1
f 59/4/1 54/4/1 58/4/1
f 61/2/1 57/2/1 56/2/1
f 62/3/1 58/3/1 57/3/1
f 62/2/1 57/2/1 61/2/1
f 63/3/1 58/3/1 62/3/1
f 65/4/1 61/4/1 60/4/1
f 66/4/1 61/4/1 65/4/1
f 67/4/1 64/4/1 63/4/1
f 68/4/1 64/4/1 67/4/1
f 69/4/2 70/4/2 73/4/2
f 73/4/2 70/4/2 74/4/2
f 71/4/2 72/4/2 76/4/2
f 76/4/2 72/4/2 77/4/2
f 74/1/2 75/1/2 79/1/2
f 75/3/2 76/3/2 80/3/2
f 79/1/2 75/1/2 80/1/2
f 80/3/2 76/3/2 81/3/2
f 78/4/2 79/4/2 83/4/2
f 83/4/2 79/4/2 84/4/2
f 81/4/2 82/4/2 85/4/2
f 85/4/2 82/4/2 86/4/2
f 84/3/2 85/3/2 88/3/2
f 88/3/2 85/3/2 89/3/2
f 87/4/2 88/4/2 91/4/2
f 91/4/2 88/4/2 92/4/2
f 89/4/2 90/4/2 94/4/2
f 94/4/2 90/4/2 95/4/2
f 92/2/2 93/2/2 97/2/2
f 93/3/2 94/3/2 98/3/2
f 97/2/2 93/2/2 98/2/2
f 98/3/2 94/3/2 99/3/2
f 96/4/2 97/4/2 101/4/2
f 101/4/2 97/4/2 102/4/2
f 99/4/2 100/4/2 103/4/2
f 103/4/2 100/4/2 104/4/2
f 102/3/2 103/3/2 106/3/2
f 106/3/2 103/3/2 107/3/2
f 105/4/2 106/4/2 109/4/2
f 109/4/2 106/4/2 110/4/2
f 107/4/2 108/4/2 111/4/2
f 111/4/2 108/4/2 112/4/2
f 113/4/2 114/4/2 115/4/2
f 115/4/2 114/4/2 116/4/2
f 117/4/2 118/4/2 119/4/2
f 119/4/2 118/4/2 120/4/2
f 121/4/2 122/4/2 123/4/2
f 123/4/2 122/4/2 124/4/2
f 125/4/2 126/4/2 127/4/2
f 127/4/2 126/4/2 128/4/2
f 129/4/2 130/4/2 131/4/2
f 131/4/2 130/4/2 132/4/2
f 143/4/3 134/4/3 133/4/3
f 144/4/3 134/4/3 143/4/3
f 145/4/3 136/4/3 135/4/3
f 146/4/3 136/4/3 145/4/3
f 147/4/3 138/4/3 137/4/3
f 148/4/3 138/4/3 147/4/3
f 149/4/3 140/4/3 139/4/3
f 150/4/3 140/4/3 149/4/3
f 151/4/3 142/4/3 141/4/3
f 152/4/3 142/4/3 151/4/3
f 163/4/3 154/4/3 153/4/3
f 164/4/3 154/4/3 163/4/3
f 165/4/3 156/4/3 155/4/3
f 166/4/3 156/4/3 165/4/3
f 167/4/3 158/4/3 157/4/3
f 168/4/3 158/4/3 167/4/3
f 169/4/3 160/4/3 159/4/3
f 170/4/3 160/4/3 169/4/3
f 171/4/3 162/4/3 161/4/3
f 172/4/3 162/4/3 171/4/3
f 173/3/3 165/3/3 164/3/3
f 174/3/3 165/3/3 173/3/3
f 175/1/3 167/1/3 166/1/3
f 176/1/3 167/1/3 175/1/3
f 177/1/3 169/1/3 168/1/3
f 178/1/3 169/1/3 177/1/3
f 179/2/3 171/2/3 170/2/3
f 180/2/3 171/2/3 179/2/3
f 182/1/3 174/1/3 173/1/3
f 183/1/3 174/1/3 182/1/3
f 184/3/3 176/3/3 175/3/3
f 185/3/3 176/3/3 184/3/3
f 186/2/3 178/2/3 177/2/3
f 187/2/3 178/2/3 186/2/3
f 188/3/3 180/3/3 179/3/3
f 189/3/3 180/3/3 188/3/3
f 191/4/3 182/4/3 181/4/3
f 192/4/3 182/4/3 191/4/3
f 193/4/3 184/4/3 183/4/3
f 194/4/3 184/4/3 193/4/3
f 195/4/3 186/4/3 185/4/3
f 196/4/3 186/4/3 195/4/3
f 197/4/3 188/4/3 187/4/3
f 198/4/3 188/4/3 197/4/3
f 199/4/3 190/4/3 189/4/3
f 200/4/3 190/4/3 199/4/3
f 201/4/4 202/4/4 211/4/4
f 211/4/4 202/4/4 212/4/4
f 203/4/4 204/4/4 213/4/4
f 213/4/4 204/4/4 214/4/4
f 205/4/4 206/4/4 215/4/4
f 215/4/4 206/4/4 216/4/4
f 207/4/4 208/4/4 217/4/4
f 217/4/4 208/4/4 218/4/4
f 209/4/4 210/4/4 219/4/4
f 219/4/4 210/4/4 220/4/4
f 212/2/4 213/2/4 221/2/4
f 221/2/4 213/2/4 222/2/4
f 221/3/4 222/3/4 224/3/4
f 224/3/4 222/3/4 225/3/4
f 214/3/4 215/3/4 226/3/4
f 226/3/4 215/3/4 227/3/4
f 216/3/4 217/3/4 228/3/4
f 228/3/4 217/3/4 229/3/4
f 218/3/4 219/3/4 230/3/4
f 230/3/4 219/3/4 231/3/4
f 223/4/4 224/4/4 233/4/4
f 233/4/4 224/4/4 234/4/4
f 225/4/4 226/4/4 235/4/4
f 235/4/4 226/4/4 236/4/4
f 227/4/4 228/4/4 237/4/4
f 237/4/4 228/4/4 238/4/4
f 229/4/4 230/4/4 239/4/4
f 239/4/4 230/4/4 240/4/4
f 231/4/4 232/4/4 241/4/4
f 241/4/4 232/4/4 242/4/4
f 243/4/4 244/4/4 253/4/4
f 253/4/4 244/4/4 254/4/4
f 245/4/4 246/4/4 255/4/4
f 255/4/4 246/4/4 256/4/4
f 247/4/4 248/4/4 257/4/4
f 257/4/4 248/4/4 258/4/4
f 249/4/4 250/4/4 259/4/4
f 259/4/4 250/4/4 260/4/4
f 251/4/4 252/4/4 261/4/4
f 261/4/4 252/4/4 262/4/4
f 266/4/5 264/4/5 263/4/5
f 267/4/5 264/4/5 266/4/5
f 269/4/5 266/4/5 265/4/5
f 269/4/5 268/4/5 267/4/5
f 269/4/5 267/4/5 266/4/5
f 270/4/5 268/4/5 269/4/5
f 271/4/5 268/4/5 270/4/5
f 272/4/5 268/4/5 271/4/5
f 273/4/5 271/4/5 270/4/5
f 274/4/5 271/4/5 273/4/5
f 278/4/5 276/4/5 275/4/5
f 279/4/5 276/4/5 278/4/5
f 280/4/5 276/4/5 279/4/5
f 282/4/5 278/4/5 277/4/5
f 283/4/5 281/4/5 280/4/5
f 284/4/5 282/4/5 277/4/5
f 285/4/5 282/4/5 284/4/5
f 287/4/5 281/4/5 283/4/5
f 288/4/5 281/4/5 287/4/5
f 289/4/5 286/4/5 285/4/5
f 289/4/5 287/4/5 286/4/5
f 290/4/5 287/4/5 289/4/5
f 294/4/5 292/4/5 291/4/5
f 295/4/5 292/4/5 294/4/5
f 296/4/5 292/4/5 295/4/5
f 298/4/5 294/4/5 293/4/5
f 299/4/5 298/4/5 293/4/5
f 300/4/5 298/4/5 299/4/5
f 301/4/5 297/4/5 296/4/5
f 302/4/5 297/4/5 301/4/5
f 303/4/5 301/4/5 300/4/5
f 304/4/5 301/4/5 303/4/5
f 308/4/5 306/4/5 305/4/5
f 309/4/5 306/4/5 308/4/5
f 310/4/5 306/4/5 309/4/5
f 312/4/5 308/4/5 307/4/5
f 313/4/5 311/4/5 310/4/5
f 314/4/5 312/4/5 307/4/5
f 315/4/5 312/4/5 314/4/5
f 316/4/5 311/4/5 313/4/5
f 317/4/5 311/4/5 316/4/5
f 318/4/5 316/4/5 315/4/5
f 319/4/5 316/4/5 318/4/5
f 323/4/5 321/4/5 320/4/5
f 324/4/5 321/4/5 323/4/5
f 325/4/5 321/4/5 324/4/5
f 327/4/5 323/4/5 322/4/5
f 328/4/5 327/4/5 322/4/5
f 329/4/5 327/4/5 328/4/5
f 330/4/5 326/4/5 325/4/5
f 331/4/5 326/4/5 330/4/5
f 332/4/5 330/4/5 329/4/5
f 333/4/5 330/4/5 332/4/5
f 334/4/6 335/4/6 337/4/6
f 337/4/6 335/4/6 338/4/6
f 338/4/6 335/4/6 339/4/6
f 336/4/6 337/4/6 341/4/6
f 339/4/6 340/4/6 342/4/6
f 336/4/6 341/4/6 343/4/6
f 343/4/6 341/4/6 344/4/6
f 342/4/6 340/4/6 346/4/6
f 346/4/6 340/4/6 347/4/6
f 344/4/6 345/4/6 348/4/6
f 345/4/6 346/4/6 348/4/6
f 348/4/6 346/4/6 349/4/6
f 350/4/6 351/4/6 353/4/6
f 353/4/6 351/4/6 354/4/6
f 354/4/6 351/4/6 355/4/6
f 352/4/6 353/4/6 357/4/6
f 352/4/6 357/4/6 358/4/6
f 358/4/6 357/4/6 359/4/6
f 355/4/6 356/4/6 360/4/6
f 360/4/6 356/4/6 361/4/6
f 359/4/6 360/4/6 362/4/6
f 362/4/6 360/4/6 363/4/6
f 364/4/6 365/4/6 367/4/6
f 367/4/6 365/4/6 368/4/6
f 368/4/6 365/4/6 369/4/6
f 366/4/6 367/4/6 371/4/6
f 369/4/6 370/4/6 372/4/6
f 366/4/6 371/4/6 373/4/6
f 373/4/6 371/4/6 374/4/6
f 372/4/6 370/4/6 375/4/6
f 375/4/6 370/4/6 376/4/6
f 374/4/6 375/4/6 377/4/6
f 377/4/6 375/4/6 378/4/6
f 379/4/6 380/4/6 382/4/6
f 382/4/6 380/4/6 383/4/6
f 383/4/6 380/4/6 384/4/6
f 381/4/6 382/4/6 386/4/6
f 381/4/6 386/4/6 387/4/6
f 387/4/6 386/4/6 388/4/6
f 384/4/6 385/4/6 389/4/6
f 389/4/6 385/4/6 390/4/6
f 388/4/6 389/4/6 391/4/6
f 391/4/6 389/4/6 392/4/6
f 393/4/6 394/4/6 396/4/6
f 396/4/6 394/4/6 397/4/6
f 395/4/6 396/4/6 399/4/6
f 397/4/6 398/4/6 399/4/6
f 396/4/6 397/4/6 399/4/6
f 399/4/6 398/4/6 400/4/6
f 400/4/6 398/4/6 401/4/6
f 401/4/6 398/4/6 402/4/6
f 400/4/6 401/4/6 403/4/6
f 403/4/6 401/4/6 404/4/6
