# MagicaVoxel @ Ephtracy

# group
o 

# material
mtllib Robot.vox-15.mtl
usemtl palette

# normals
vn -1 0 0
vn 1 0 0
vn 0 0 1
vn 0 0 -1
vn 0 -1 0
vn 0 1 0

# texcoords
vt 0.912109 0.5
vt 0.916016 0.5
vt 0.943359 0.5
vt 0.947266 0.5
vt 0.978516 0.5

# verts
v -5.7 0 0.4
v -5.7 0 -0.4
v -5.7 0.1 0.3
v -5.7 0.1 -0.3
v -5.7 0.2 0.3
v -5.7 0.2 -0.3
v -5.7 0.4 0.3
v -5.7 0.4 -0.3
v -5.7 0.5 0.3
v -5.7 0.5 -0.3
v -5.7 0.6 0.4
v -5.7 0.6 -0.4
v -5.3 0.1 0.4
v -5.3 0.1 0.3
v -5.3 0.1 -0.3
v -5.3 0.1 -0.4
v -5.3 0.6 0.4
v -5.3 0.6 0.3
v -5.3 0.6 -0.3
v -5.3 0.6 -0.4
v -5 0.1 0.4
v -5 0.1 0.3
v -5 0.1 -0.3
v -5 0.1 -0.4
v -5 0.6 0.4
v -5 0.6 0.3
v -5 0.6 -0.3
v -5 0.6 -0.4
v -4.6 0.1 0.4
v -4.6 0.1 0.3
v -4.6 0.1 -0.3
v -4.6 0.1 -0.4
v -4.6 0.6 0.4
v -4.6 0.6 0.3
v -4.6 0.6 -0.3
v -4.6 0.6 -0.4
v -4.3 0.1 0.4
v -4.3 0.1 0.3
v -4.3 0.1 -0.3
v -4.3 0.1 -0.4
v -4.3 0.6 0.4
v -4.3 0.6 0.3
v -4.3 0.6 -0.3
v -4.3 0.6 -0.4
v -5.5 0.1 0.4
v -5.5 0.1 0.3
v -5.5 0.1 -0.3
v -5.5 0.1 -0.4
v -5.5 0.6 0.4
v -5.5 0.6 0.3
v -5.5 0.6 -0.3
v -5.5 0.6 -0.4
v -5.2 0.1 0.4
v -5.2 0.1 0.3
v -5.2 0.1 -0.3
v -5.2 0.1 -0.4
v -5.2 0.6 0.4
v -5.2 0.6 0.3
v -5.2 0.6 -0.3
v -5.2 0.6 -0.4
v -4.8 0.1 0.4
v -4.8 0.1 0.3
v -4.8 0.1 -0.3
v -4.8 0.1 -0.4
v -4.8 0.6 0.4
v -4.8 0.6 0.3
v -4.8 0.6 -0.3
v -4.8 0.6 -0.4
v -4.5 0.1 0.4
v -4.5 0.1 0.3
v -4.5 0.1 -0.3
v -4.5 0.1 -0.4
v -4.5 0.6 0.4
v -4.5 0.6 0.3
v -4.5 0.6 -0.3
v -4.5 0.6 -0.4
v -4.1 0 0.4
v -4.1 0 -0.4
v -4.1 0.1 0.3
v -4.1 0.1 -0.3
v -4.1 0.2 0.3
v -4.1 0.2 -0.3
v -4.1 0.4 0.3
v -4.1 0.4 -0.3
v -4.1 0.5 0.3
v -4.1 0.5 -0.3
v -4.1 0.6 0.4
v -4.1 0.6 -0.4
v -5.7 0 0.4
v -5.7 0.6 0.4
v -5.5 0.1 0.4
v -5.5 0.6 0.4
v -5.3 0.1 0.4
v -5.3 0.6 0.4
v -5.2 0.1 0.4
v -5.2 0.6 0.4
v -5 0.1 0.4
v -5 0.6 0.4
v -4.8 0.1 0.4
v -4.8 0.6 0.4
v -4.6 0.1 0.4
v -4.6 0.6 0.4
v -4.5 0.1 0.4
v -4.5 0.6 0.4
v -4.3 0.1 0.4
v -4.3 0.6 0.4
v -4.1 0 0.4
v -4.1 0.6 0.4
v -5.5 0.1 0.3
v -5.5 0.6 0.3
v -5.3 0.1 0.3
v -5.3 0.6 0.3
v -5.2 0.1 0.3
v -5.2 0.6 0.3
v -5 0.1 0.3
v -5 0.6 0.3
v -4.8 0.1 0.3
v -4.8 0.6 0.3
v -4.6 0.1 0.3
v -4.6 0.6 0.3
v -4.5 0.1 0.3
v -4.5 0.6 0.3
v -4.3 0.1 0.3
v -4.3 0.6 0.3
v -5.5 0.1 -0.3
v -5.5 0.6 -0.3
v -5.3 0.1 -0.3
v -5.3 0.6 -0.3
v -5.2 0.1 -0.3
v -5.2 0.6 -0.3
v -5 0.1 -0.3
v -5 0.6 -0.3
v -4.8 0.1 -0.3
v -4.8 0.6 -0.3
v -4.6 0.1 -0.3
v -4.6 0.6 -0.3
v -4.5 0.1 -0.3
v -4.5 0.6 -0.3
v -4.3 0.1 -0.3
v -4.3 0.6 -0.3
v -5.7 0 -0.4
v -5.7 0.6 -0.4
v -5.5 0.1 -0.4
v -5.5 0.6 -0.4
v -5.3 0.1 -0.4
v -5.3 0.6 -0.4
v -5.2 0.1 -0.4
v -5.2 0.6 -0.4
v -5 0.1 -0.4
v -5 0.6 -0.4
v -4.8 0.1 -0.4
v -4.8 0.6 -0.4
v -4.6 0.1 -0.4
v -4.6 0.6 -0.4
v -4.5 0.1 -0.4
v -4.5 0.6 -0.4
v -4.3 0.1 -0.4
v -4.3 0.6 -0.4
v -4.1 0 -0.4
v -4.1 0.6 -0.4
v -5.7 0 0.4
v -4.1 0 0.4
v -5.7 0 -0.4
v -4.1 0 -0.4
v -5.5 0.1 0.4
v -5.3 0.1 0.4
v -5.2 0.1 0.4
v -5 0.1 0.4
v -4.8 0.1 0.4
v -4.6 0.1 0.4
v -4.5 0.1 0.4
v -4.3 0.1 0.4
v -5.5 0.1 0.3
v -5.3 0.1 0.3
v -5.2 0.1 0.3
v -5 0.1 0.3
v -4.8 0.1 0.3
v -4.6 0.1 0.3
v -4.5 0.1 0.3
v -4.3 0.1 0.3
v -5.5 0.1 -0.3
v -5.3 0.1 -0.3
v -5.2 0.1 -0.3
v -5 0.1 -0.3
v -4.8 0.1 -0.3
v -4.6 0.1 -0.3
v -4.5 0.1 -0.3
v -4.3 0.1 -0.3
v -5.5 0.1 -0.4
v -5.3 0.1 -0.4
v -5.2 0.1 -0.4
v -5 0.1 -0.4
v -4.8 0.1 -0.4
v -4.6 0.1 -0.4
v -4.5 0.1 -0.4
v -4.3 0.1 -0.4
v -5.7 0.6 0.4
v -5.5 0.6 0.4
v -5.3 0.6 0.4
v -5.2 0.6 0.4
v -5 0.6 0.4
v -4.8 0.6 0.4
v -4.6 0.6 0.4
v -4.5 0.6 0.4
v -4.3 0.6 0.4
v -4.1 0.6 0.4
v -5.5 0.6 0.3
v -5.3 0.6 0.3
v -5.2 0.6 0.3
v -5 0.6 0.3
v -4.8 0.6 0.3
v -4.6 0.6 0.3
v -4.5 0.6 0.3
v -4.3 0.6 0.3
v -5.5 0.6 0.2
v -5.3 0.6 0.2
v -5.2 0.6 0.2
v -5 0.6 0.2
v -4.8 0.6 0.2
v -4.6 0.6 0.2
v -4.5 0.6 0.2
v -4.3 0.6 0.2
v -5.5 0.6 -0.2
v -5.3 0.6 -0.2
v -5.2 0.6 -0.2
v -5 0.6 -0.2
v -4.8 0.6 -0.2
v -4.6 0.6 -0.2
v -4.5 0.6 -0.2
v -4.3 0.6 -0.2
v -5.5 0.6 -0.3
v -5.3 0.6 -0.3
v -5.2 0.6 -0.3
v -5 0.6 -0.3
v -4.8 0.6 -0.3
v -4.6 0.6 -0.3
v -4.5 0.6 -0.3
v -4.3 0.6 -0.3
v -5.7 0.6 -0.4
v -5.5 0.6 -0.4
v -5.3 0.6 -0.4
v -5.2 0.6 -0.4
v -5 0.6 -0.4
v -4.8 0.6 -0.4
v -4.6 0.6 -0.4
v -4.5 0.6 -0.4
v -4.3 0.6 -0.4
v -4.1 0.6 -0.4

# faces
f 3/5/1 2/5/1 1/5/1
f 4/5/1 2/5/1 3/5/1
f 5/5/1 3/5/1 1/5/1
f 5/2/1 4/2/1 3/2/1
f 6/5/1 2/5/1 4/5/1
f 6/2/1 4/2/1 5/2/1
f 7/5/1 5/5/1 1/5/1
f 7/5/1 6/5/1 5/5/1
f 8/5/1 2/5/1 6/5/1
f 8/5/1 6/5/1 7/5/1
f 9/5/1 7/5/1 1/5/1
f 9/2/1 8/2/1 7/2/1
f 10/5/1 2/5/1 8/5/1
f 10/2/1 8/2/1 9/2/1
f 11/5/1 9/5/1 1/5/1
f 11/5/1 10/5/1 9/5/1
f 12/5/1 2/5/1 10/5/1
f 12/5/1 10/5/1 11/5/1
f 17/5/1 14/5/1 13/5/1
f 18/5/1 14/5/1 17/5/1
f 19/5/1 16/5/1 15/5/1
f 20/5/1 16/5/1 19/5/1
f 25/5/1 22/5/1 21/5/1
f 26/5/1 22/5/1 25/5/1
f 27/5/1 24/5/1 23/5/1
f 28/5/1 24/5/1 27/5/1
f 33/5/1 30/5/1 29/5/1
f 34/5/1 30/5/1 33/5/1
f 35/5/1 32/5/1 31/5/1
f 36/5/1 32/5/1 35/5/1
f 41/5/1 38/5/1 37/5/1
f 42/5/1 38/5/1 41/5/1
f 43/5/1 40/5/1 39/5/1
f 44/5/1 40/5/1 43/5/1
f 45/5/2 46/5/2 49/5/2
f 49/5/2 46/5/2 50/5/2
f 47/5/2 48/5/2 51/5/2
f 51/5/2 48/5/2 52/5/2
f 53/5/2 54/5/2 57/5/2
f 57/5/2 54/5/2 58/5/2
f 55/5/2 56/5/2 59/5/2
f 59/5/2 56/5/2 60/5/2
f 61/5/2 62/5/2 65/5/2
f 65/5/2 62/5/2 66/5/2
f 63/5/2 64/5/2 67/5/2
f 67/5/2 64/5/2 68/5/2
f 69/5/2 70/5/2 73/5/2
f 73/5/2 70/5/2 74/5/2
f 71/5/2 72/5/2 75/5/2
f 75/5/2 72/5/2 76/5/2
f 77/5/2 78/5/2 79/5/2
f 79/5/2 78/5/2 80/5/2
f 77/5/2 79/5/2 81/5/2
f 79/2/2 80/2/2 81/2/2
f 80/5/2 78/5/2 82/5/2
f 81/2/2 80/2/2 82/2/2
f 77/5/2 81/5/2 83/5/2
f 81/5/2 82/5/2 83/5/2
f 82/5/2 78/5/2 84/5/2
f 83/5/2 82/5/2 84/5/2
f 77/5/2 83/5/2 85/5/2
f 83/2/2 84/2/2 85/2/2
f 84/5/2 78/5/2 86/5/2
f 85/2/2 84/2/2 86/2/2
f 77/5/2 85/5/2 87/5/2
f 85/5/2 86/5/2 87/5/2
f 86/5/2 78/5/2 88/5/2
f 87/5/2 86/5/2 88/5/2
f 91/5/3 90/5/3 89/5/3
f 92/5/3 90/5/3 91/5/3
f 93/5/3 91/5/3 89/5/3
f 95/5/3 93/5/3 89/5/3
f 95/5/3 94/5/3 93/5/3
f 96/5/3 94/5/3 95/5/3
f 97/5/3 95/5/3 89/5/3
f 99/5/3 97/5/3 89/5/3
f 99/5/3 98/5/3 97/5/3
f 100/5/3 98/5/3 99/5/3
f 101/5/3 99/5/3 89/5/3
f 103/5/3 101/5/3 89/5/3
f 103/5/3 102/5/3 101/5/3
f 104/5/3 102/5/3 103/5/3
f 105/5/3 103/5/3 89/5/3
f 107/5/3 105/5/3 89/5/3
f 107/5/3 106/5/3 105/5/3
f 108/5/3 106/5/3 107/5/3
f 111/4/3 110/4/3 109/4/3
f 112/4/3 110/4/3 111/4/3
f 115/4/3 114/4/3 113/4/3
f 116/4/3 114/4/3 115/4/3
f 119/4/3 118/4/3 117/4/3
f 120/4/3 118/4/3 119/4/3
f 123/4/3 122/4/3 121/4/3
f 124/4/3 122/4/3 123/4/3
f 125/4/4 126/4/4 127/4/4
f 127/4/4 126/4/4 128/4/4
f 129/4/4 130/4/4 131/4/4
f 131/4/4 130/4/4 132/4/4
f 133/4/4 134/4/4 135/4/4
f 135/4/4 134/4/4 136/4/4
f 137/4/4 138/4/4 139/4/4
f 139/4/4 138/4/4 140/4/4
f 141/5/4 142/5/4 143/5/4
f 143/5/4 142/5/4 144/5/4
f 141/5/4 143/5/4 145/5/4
f 141/5/4 145/5/4 147/5/4
f 145/5/4 146/5/4 147/5/4
f 147/5/4 146/5/4 148/5/4
f 141/5/4 147/5/4 149/5/4
f 141/5/4 149/5/4 151/5/4
f 149/5/4 150/5/4 151/5/4
f 151/5/4 150/5/4 152/5/4
f 141/5/4 151/5/4 153/5/4
f 141/5/4 153/5/4 155/5/4
f 153/5/4 154/5/4 155/5/4
f 155/5/4 154/5/4 156/5/4
f 141/5/4 155/5/4 157/5/4
f 141/5/4 157/5/4 159/5/4
f 157/5/4 158/5/4 159/5/4
f 159/5/4 158/5/4 160/5/4
f 163/5/5 162/5/5 161/5/5
f 164/5/5 162/5/5 163/5/5
f 165/5/6 166/5/6 173/5/6
f 173/5/6 166/5/6 174/5/6
f 167/5/6 168/5/6 175/5/6
f 175/5/6 168/5/6 176/5/6
f 169/5/6 170/5/6 177/5/6
f 177/5/6 170/5/6 178/5/6
f 171/5/6 172/5/6 179/5/6
f 179/5/6 172/5/6 180/5/6
f 181/5/6 182/5/6 189/5/6
f 189/5/6 182/5/6 190/5/6
f 183/5/6 184/5/6 191/5/6
f 191/5/6 184/5/6 192/5/6
f 185/5/6 186/5/6 193/5/6
f 193/5/6 186/5/6 194/5/6
f 187/5/6 188/5/6 195/5/6
f 195/5/6 188/5/6 196/5/6
f 197/5/6 198/5/6 207/5/6
f 199/5/6 200/5/6 208/5/6
f 208/5/6 200/5/6 209/5/6
f 201/5/6 202/5/6 210/5/6
f 210/5/6 202/5/6 211/5/6
f 203/5/6 204/5/6 212/5/6
f 212/5/6 204/5/6 213/5/6
f 205/5/6 206/5/6 214/5/6
f 197/5/6 207/5/6 215/5/6
f 207/4/6 208/4/6 215/4/6
f 208/5/6 209/5/6 216/5/6
f 215/4/6 208/4/6 216/4/6
f 209/4/6 210/4/6 217/4/6
f 216/5/6 209/5/6 217/5/6
f 210/5/6 211/5/6 218/5/6
f 217/4/6 210/4/6 218/4/6
f 211/4/6 212/4/6 219/4/6
f 218/5/6 211/5/6 219/5/6
f 212/5/6 213/5/6 220/5/6
f 219/4/6 212/4/6 220/4/6
f 213/4/6 214/4/6 221/4/6
f 220/5/6 213/5/6 221/5/6
f 214/5/6 206/5/6 222/5/6
f 221/4/6 214/4/6 222/4/6
f 218/5/6 219/5/6 223/5/6
f 219/5/6 220/5/6 223/5/6
f 221/5/6 222/5/6 223/5/6
f 197/5/6 215/5/6 223/5/6
f 217/5/6 218/5/6 223/5/6
f 216/5/6 217/5/6 223/5/6
f 215/5/6 216/5/6 223/5/6
f 220/5/6 221/5/6 223/5/6
f 223/5/6 222/5/6 224/5/6
f 224/5/6 222/5/6 225/5/6
f 225/5/6 222/5/6 226/5/6
f 226/5/6 222/5/6 227/5/6
f 227/5/6 222/5/6 228/5/6
f 228/5/6 222/5/6 229/5/6
f 222/5/6 206/5/6 230/5/6
f 229/5/6 222/5/6 230/5/6
f 197/5/6 223/5/6 231/5/6
f 223/4/6 224/4/6 231/4/6
f 224/5/6 225/5/6 232/5/6
f 231/4/6 224/4/6 232/4/6
f 225/4/6 226/4/6 233/4/6
f 232/5/6 225/5/6 233/5/6
f 226/5/6 227/5/6 234/5/6
f 233/4/6 226/4/6 234/4/6
f 227/4/6 228/4/6 235/4/6
f 234/5/6 227/5/6 235/5/6
f 228/5/6 229/5/6 236/5/6
f 235/4/6 228/4/6 236/4/6
f 229/4/6 230/4/6 237/4/6
f 236/5/6 229/5/6 237/5/6
f 230/5/6 206/5/6 238/5/6
f 237/4/6 230/4/6 238/4/6
f 197/5/6 231/5/6 239/5/6
f 239/5/6 231/5/6 240/5/6
f 232/5/6 233/5/6 241/5/6
f 241/5/6 233/5/6 242/5/6
f 234/5/6 235/5/6 243/5/6
f 243/5/6 235/5/6 244/5/6
f 236/5/6 237/5/6 245/5/6
f 245/5/6 237/5/6 246/5/6
f 238/5/6 206/5/6 247/5/6
f 247/5/6 206/5/6 248/5/6
