# Blender 4.2.3 LTS
# www.blender.org
mtllib SM_Door_Single_V1.mtl
o SM_Door_Single_V1
v -0.044514 1.674129 0.305530
v -0.044514 1.589764 0.389895
v -0.044514 1.733784 0.449550
v -0.044514 0.085666 -0.305530
v -0.044514 0.170031 -0.389895
v -0.044514 0.026011 -0.449550
v -0.044514 1.589764 -0.389895
v -0.044514 1.674129 -0.305530
v -0.044514 1.733784 -0.449550
v 0.044514 0.085666 0.305530
v 0.044514 0.170031 0.389895
v 0.044514 0.026011 0.449550
v 0.044514 1.674129 -0.305530
v 0.044514 1.589764 -0.389895
v 0.044514 1.733784 -0.449550
v -0.044514 0.170031 0.389895
v -0.044514 0.085666 0.305530
v -0.044514 0.026011 0.449550
v 0.044514 1.589764 0.389895
v 0.044514 1.674129 0.305530
v 0.044514 1.733784 0.449550
v 0.044514 0.170031 -0.389895
v 0.044514 0.085666 -0.305530
v 0.044514 0.026011 -0.449550
v -0.019321 1.584715 0.377706
v -0.019321 1.661940 0.300481
v -0.019321 1.661940 -0.300481
v -0.019321 1.584715 -0.377706
v -0.019321 0.175080 -0.377706
v -0.019321 0.097855 -0.300481
v -0.019321 0.097855 0.300481
v -0.019321 0.175080 0.377706
v 0.019321 1.584715 -0.377706
v 0.019321 1.661940 -0.300481
v 0.019321 0.097855 -0.300481
v 0.019321 0.175080 -0.377706
v 0.019321 0.175080 0.377706
v 0.019321 0.097855 0.300481
v 0.019321 1.661940 0.300481
v 0.019321 1.584715 0.377706
v -0.019321 0.170031 0.389895
v -0.019321 0.085666 0.305530
v -0.019321 0.085666 -0.305530
v -0.019321 0.170031 -0.389895
v -0.019321 1.589764 -0.389895
v -0.019321 1.674129 -0.305530
v -0.019321 1.674129 0.305530
v -0.019321 1.589764 0.389895
v 0.019321 0.085666 0.305530
v 0.019321 0.170031 0.389895
v 0.019321 1.589764 0.389895
v 0.019321 1.674129 0.305530
v 0.019321 0.170031 -0.389895
v 0.019321 0.085666 -0.305530
v 0.019321 1.674129 -0.305530
v 0.019321 1.589764 -0.389895
v -0.045074 0.214748 0.338038
v -0.045074 0.097855 0.300481
v -0.045074 0.097855 -0.300481
v -0.045074 1.545047 -0.338038
v -0.045074 1.661940 -0.300481
v -0.045074 1.661940 0.300481
v -0.045074 1.545047 0.338038
v 0.045074 0.097855 0.300481
v 0.045074 1.661940 0.300481
v 0.045074 0.097855 -0.300481
v 0.045074 1.661940 -0.300481
v 0.044514 0.372850 0.389895
v 0.044514 0.575669 0.389895
v 0.044514 0.778488 0.389895
v 0.044514 0.981307 0.389895
v 0.044514 1.184126 0.389895
v 0.044514 1.386945 0.389895
v 0.019321 0.372850 0.389895
v 0.019321 0.575669 0.389895
v 0.019321 0.778488 0.389895
v 0.019321 0.981307 0.389895
v 0.019321 1.184126 0.389895
v 0.019321 1.386945 0.389895
v 0.044514 0.372850 -0.389895
v 0.044514 0.575669 -0.389895
v 0.044514 0.778488 -0.389895
v 0.044514 0.981307 -0.389895
v 0.044514 1.184126 -0.389895
v 0.044514 1.386945 -0.389895
v 0.019321 1.386945 -0.389895
v 0.019321 1.184126 -0.389895
v 0.019321 0.981307 -0.389895
v 0.019321 0.778488 -0.389895
v 0.019321 0.575669 -0.389895
v 0.019321 0.372850 -0.389895
v 0.019321 0.376456 0.377706
v 0.019321 0.577833 0.377706
v 0.019321 0.779209 0.377706
v 0.019321 0.980586 0.377706
v 0.019321 1.181962 0.377706
v 0.019321 1.383339 0.377706
v 0.019321 1.383339 -0.377706
v 0.019321 1.181962 -0.377706
v 0.019321 1.128144 -0.377706
v 0.019321 0.631651 -0.377706
v 0.019321 0.577833 -0.377706
v 0.019321 0.376456 -0.377706
v 0.045074 0.376456 0.338038
v 0.045074 0.779209 0.377706
v 0.045074 0.980586 0.377706
v 0.045074 1.383339 0.338038
v 0.045074 1.128144 -0.377706
v 0.045074 0.631651 -0.377706
v -0.044514 0.372850 0.389895
v -0.044514 0.575669 0.389895
v -0.044514 0.778488 0.389895
v -0.044514 0.981307 0.389895
v -0.044514 1.184126 0.389895
v -0.044514 1.386945 0.389895
v -0.019321 1.386945 0.389895
v -0.019321 1.184126 0.389895
v -0.019321 0.981307 0.389895
v -0.019321 0.778488 0.389895
v -0.019321 0.575669 0.389895
v -0.019321 0.372850 0.389895
v -0.044514 1.386945 -0.389895
v -0.044514 1.184126 -0.389895
v -0.044514 0.981307 -0.389895
v -0.044514 0.778488 -0.389895
v -0.044514 0.575669 -0.389895
v -0.044514 0.372850 -0.389895
v -0.019321 0.372850 -0.389895
v -0.019321 0.575669 -0.389895
v -0.019321 0.778488 -0.389895
v -0.019321 0.981307 -0.389895
v -0.019321 1.184126 -0.389895
v -0.019321 1.386945 -0.389895
v -0.019321 1.383339 0.377706
v -0.019321 1.181962 0.377706
v -0.019321 0.980586 0.377706
v -0.019321 0.779209 0.377706
v -0.019321 0.577833 0.377706
v -0.019321 0.376456 0.377706
v -0.019321 0.376456 -0.377706
v -0.019321 0.577833 -0.377706
v -0.019321 0.631651 -0.377706
v -0.019321 1.128144 -0.377706
v -0.019321 1.181962 -0.377706
v -0.019321 1.383339 -0.377706
v -0.045074 0.980586 0.377706
v -0.045074 0.779209 0.377706
v -0.045074 0.376456 0.338038
v -0.045074 0.376456 -0.338038
v -0.045074 0.538164 -0.338038
v -0.045074 0.631651 -0.377706
v -0.045074 1.128144 -0.377706
v -0.044514 1.674129 -0.183318
v -0.044514 1.674129 -0.061106
v -0.044514 1.674129 0.061106
v -0.044514 1.674129 0.183318
v -0.019321 1.674129 -0.183318
v -0.019321 1.674129 -0.061106
v -0.019321 1.674129 0.061106
v -0.019321 1.674129 0.183318
v -0.044514 0.085666 -0.183318
v -0.044514 0.085666 -0.061106
v -0.044514 0.085666 0.061106
v -0.044514 0.085666 0.183318
v -0.019321 0.085666 0.183318
v -0.019321 0.085666 0.061106
v -0.019321 0.085666 -0.061106
v -0.019321 0.085666 -0.183318
v -0.019321 1.661940 -0.180289
v -0.019321 1.661940 -0.060096
v -0.019321 1.661940 0.060096
v -0.019321 1.661940 0.180289
v -0.019321 0.097855 0.180289
v -0.019321 0.097855 0.060096
v -0.019321 0.097855 -0.060096
v -0.019321 0.097855 -0.180289
v -0.045074 1.661940 -0.180289
v -0.045074 1.661940 -0.060096
v -0.045074 1.661940 0.060096
v -0.045074 1.661940 0.180289
v -0.045074 0.097855 0.180289
v -0.045074 0.097855 0.060096
v -0.045074 0.097855 -0.060096
v -0.045074 0.097855 -0.180289
v -0.045074 1.545047 -0.226623
v -0.045074 0.214748 0.075541
v -0.045074 0.214748 -0.075541
v -0.045074 0.214748 -0.226623
v -0.034538 0.376456 0.061464
v -0.034538 0.376456 -0.061464
v -0.034538 0.376456 -0.184391
v -0.034538 0.376456 -0.275042
v -0.045074 1.221630 -0.075541
v -0.045074 1.221630 0.075541
v -0.045074 0.980586 -0.226623
v -0.045074 0.980586 -0.075541
v -0.045074 0.980586 0.075541
v -0.045074 0.980586 0.226623
v -0.045074 0.779209 -0.226623
v -0.045074 0.779209 -0.075541
v -0.045074 0.779209 0.075541
v -0.045074 0.779209 0.226623
v -0.045074 0.538164 0.226623
v -0.034538 1.383339 0.061464
v -0.034538 1.383339 -0.061464
v -0.034538 1.383339 -0.184391
v -0.034538 1.383339 -0.275042
v 0.044514 0.085666 0.183318
v 0.044514 0.085666 0.061106
v 0.044514 0.085666 -0.061106
v 0.044514 0.085666 -0.183318
v 0.019321 0.085666 -0.183318
v 0.019321 0.085666 -0.061106
v 0.019321 0.085666 0.061106
v 0.019321 0.085666 0.183318
v 0.044514 1.674129 -0.183318
v 0.044514 1.674129 -0.061106
v 0.044514 1.674129 0.061106
v 0.044514 1.674129 0.183318
v 0.019321 1.674129 0.183318
v 0.019321 1.674129 0.061106
v 0.019321 1.674129 -0.061106
v 0.019321 1.674129 -0.183318
v 0.019321 0.097855 -0.180289
v 0.019321 0.097855 -0.060096
v 0.019321 0.097855 0.060096
v 0.019321 0.097855 0.180289
v 0.019321 1.661940 0.180289
v 0.019321 1.661940 0.060096
v 0.019321 1.661940 -0.060096
v 0.019321 1.661940 -0.180289
v 0.045074 0.097855 -0.180289
v 0.045074 0.097855 -0.060096
v 0.045074 0.097855 0.060096
v 0.045074 0.097855 0.180289
v 0.045074 1.661940 0.180289
v 0.045074 1.661940 0.060096
v 0.045074 1.661940 -0.060096
v 0.045074 1.661940 -0.180289
v 0.045074 0.214748 -0.075541
v -0.034538 0.376456 0.275042
v -0.034538 0.376456 0.184391
v -0.034538 1.383339 0.275042
v -0.034538 1.383339 0.184391
v 0.045074 0.538164 -0.226623
v 0.045074 0.538164 -0.075541
v 0.045074 0.779209 -0.226623
v 0.045074 0.779209 -0.075541
v 0.045074 0.779209 0.075541
v 0.045074 0.779209 0.226623
v 0.045074 0.980586 -0.226623
v 0.045074 0.980586 -0.075541
v 0.045074 0.980586 0.075541
v 0.045074 0.980586 0.226623
v 0.045074 1.221630 -0.226623
v 0.045074 1.221630 -0.075541
v 0.045074 1.221630 0.075541
v 0.034538 1.383339 0.275042
v 0.034538 1.383339 0.184391
v 0.034538 0.376456 0.275042
v 0.034538 0.376456 0.184391
v 0.026538 0.790392 0.366523
v 0.026538 0.969403 0.366523
v 0.026538 1.101590 -0.366523
v 0.026538 0.658205 -0.366523
v 0.026538 0.790392 0.226623
v 0.026538 0.969403 0.226623
v -0.026538 0.969403 0.366523
v -0.026538 0.790392 0.366523
v -0.026538 0.658205 -0.366523
v -0.026538 1.101590 -0.366523
v -0.026538 0.969403 0.226623
v -0.026538 0.790392 0.226623
v -0.026538 0.969403 -0.231179
v -0.026538 0.969403 -0.075541
v -0.026538 0.969403 0.075541
v -0.026538 0.790392 -0.231179
v -0.026538 0.790392 -0.075541
v -0.026538 0.790392 0.075541
v 0.026538 0.790392 -0.231179
v 0.026538 0.790392 -0.075541
v 0.026538 0.790392 0.075541
v 0.026538 0.969403 -0.231179
v 0.026538 0.969403 -0.075541
v 0.026538 0.969403 0.075541
v 0.026538 0.779209 0.377706
v 0.026538 0.980586 0.377706
v 0.026538 1.128144 -0.377706
v 0.026538 0.631651 -0.377706
v 0.026538 0.779209 0.226623
v 0.026538 0.980586 0.226623
v -0.026538 0.980586 0.377706
v -0.026538 0.779209 0.377706
v -0.026538 0.631651 -0.377706
v -0.026538 1.128144 -0.377706
v -0.026538 0.980586 0.226623
v -0.026538 0.779209 0.226623
v -0.026538 0.980586 -0.226623
v -0.026538 0.980586 -0.075541
v -0.026538 0.980586 0.075541
v -0.026538 0.779209 -0.226623
v -0.026538 0.779209 -0.075541
v -0.026538 0.779209 0.075541
v 0.026538 0.779209 -0.226623
v 0.026538 0.779209 -0.075541
v 0.026538 0.779209 0.075541
v 0.026538 0.980586 -0.226623
v 0.026538 0.980586 -0.075541
v 0.026538 0.980586 0.075541
v -0.047609 0.969403 0.226623
v -0.047609 0.865644 0.226623
v -0.047609 0.969403 0.075541
v -0.047609 0.865644 0.075541
v -0.047609 0.969403 -0.075541
v -0.047609 0.865644 -0.075541
v -0.047609 0.962454 -0.247677
v -0.047609 0.797340 -0.247677
v 0.047609 0.790392 0.226623
v 0.047609 0.969403 0.226623
v 0.047609 0.790392 0.075541
v 0.047609 0.894151 0.075541
v 0.047609 0.790392 -0.075541
v 0.047609 0.894151 -0.075541
v 0.047609 0.797340 -0.247677
v 0.047609 0.962454 -0.247677
v 0.047609 0.865644 0.340888
v 0.047609 0.894151 0.340888
v 0.047609 1.062415 -0.350024
v 0.047609 0.697380 -0.350024
v -0.047609 0.894151 0.340888
v -0.047609 0.865644 0.340888
v -0.047609 0.697380 -0.350024
v -0.047609 1.062415 -0.350024
v -0.047609 0.894151 -0.205544
v -0.047609 0.865644 -0.205544
v 0.047609 0.865644 -0.205544
v 0.047609 0.894151 -0.205544
v 0.047609 1.101590 -0.366523
v 0.047609 0.658205 -0.366523
v -0.047609 0.658205 -0.366523
v -0.047609 1.101590 -0.366523
v -0.031955 0.797340 -0.247677
v 0.031955 0.797340 -0.247677
v 0.031955 0.962454 -0.247677
v -0.031955 0.697380 -0.350024
v -0.031955 0.959904 -0.253732
v -0.031955 0.799890 -0.253732
v 0.031955 0.799890 -0.253732
v 0.031955 0.959904 -0.253732
v 0.031955 1.048037 -0.343969
v 0.031955 0.711758 -0.343969
v -0.031955 0.711758 -0.343969
v -0.031955 1.048037 -0.343969
v -0.031955 0.962454 -0.247677
v 0.031955 1.062415 -0.350024
v 0.031955 0.697380 -0.350024
v -0.031955 1.062415 -0.350024
v -0.044837 0.950939 -0.275020
v -0.044837 0.808856 -0.275020
v 0.044837 0.808856 -0.275020
v 0.044837 0.950939 -0.275020
v 0.044837 0.997488 -0.322681
v 0.044837 0.762307 -0.322681
v -0.044837 0.762307 -0.322681
v -0.044837 0.997488 -0.322681
v -0.044837 0.959904 -0.253732
v -0.044837 0.799890 -0.253732
v 0.044837 0.799890 -0.253732
v 0.044837 0.959904 -0.253732
v 0.044837 1.048037 -0.343969
v 0.044837 0.711758 -0.343969
v -0.044837 0.711758 -0.343969
v -0.044837 1.048037 -0.343969
v -0.033387 0.945337 -0.288322
v -0.033387 0.814458 -0.288322
v 0.033387 0.814458 -0.288322
v 0.033387 0.945337 -0.288322
v 0.033387 0.965902 -0.309379
v 0.033387 0.793893 -0.309379
v -0.033387 0.793893 -0.309379
v -0.033387 0.965902 -0.309379
v -0.033387 0.950939 -0.275020
v -0.033387 0.808856 -0.275020
v 0.033387 0.808856 -0.275020
v 0.033387 0.950939 -0.275020
v 0.033387 0.997488 -0.322681
v 0.033387 0.762307 -0.322681
v -0.033387 0.762307 -0.322681
v -0.033387 0.997488 -0.322681
v -0.029125 0.945337 -0.288322
v -0.029125 0.814458 -0.288322
v 0.029125 0.814458 -0.288322
v 0.029125 0.945337 -0.288322
v 0.029125 0.965902 -0.309379
v 0.029125 0.793893 -0.309379
v -0.029125 0.793893 -0.309379
v -0.029125 0.965902 -0.309379
v -0.045074 0.376456 0.377706
v -0.045074 0.175080 0.377706
v -0.045074 1.383339 -0.377706
v -0.045074 1.584715 -0.377706
v 0.045074 1.383339 0.377706
v 0.045074 1.584715 0.377706
v 0.045074 0.376456 -0.377706
v 0.045074 0.175080 -0.377706
v -0.045074 1.584715 0.226623
v -0.045074 1.584715 0.377706
v 0.045074 1.584715 -0.226623
v 0.045074 1.584715 -0.377706
v -0.045074 0.175080 -0.226623
v -0.045074 0.175080 -0.377706
v 0.045074 0.175080 -0.226623
v 0.045074 0.175080 0.377706
v 0.045074 0.376456 0.377706
v 0.045074 0.577833 0.377706
v 0.045074 1.181962 0.377706
v 0.045074 1.383339 -0.377706
v 0.045074 1.181962 -0.377706
v 0.045074 0.577833 -0.377706
v 0.045074 0.577833 0.226623
v 0.045074 1.181962 0.226623
v -0.045074 1.383339 0.377706
v -0.045074 1.181962 0.377706
v -0.045074 0.577833 0.377706
v -0.045074 0.376456 -0.377706
v -0.045074 0.577833 -0.377706
v -0.045074 1.181962 -0.377706
v -0.045074 1.181962 0.226623
v -0.045074 0.577833 0.226623
v -0.045074 1.584715 -0.226623
v -0.045074 1.584715 -0.075541
v -0.045074 1.584715 0.075541
v -0.045074 0.175080 0.226623
v -0.045074 0.175080 0.075541
v -0.045074 0.175080 -0.075541
v -0.045074 1.181962 -0.226623
v -0.045074 1.181962 -0.075541
v -0.045074 1.181962 0.075541
v -0.045074 0.577833 -0.226623
v -0.045074 0.577833 -0.075541
v -0.045074 0.577833 0.075541
v 0.045074 1.584715 0.226623
v 0.045074 1.584715 0.075541
v 0.045074 1.584715 -0.075541
v 0.045074 0.175080 0.226623
v 0.045074 0.175080 0.075541
v 0.045074 0.175080 -0.075541
v 0.045074 0.577833 -0.226623
v 0.045074 0.577833 -0.075541
v 0.045074 0.577833 0.075541
v 0.045074 1.181962 -0.226623
v 0.045074 1.181962 -0.075541
v 0.045074 1.181962 0.075541
v -0.045074 1.383339 0.338038
v -0.045074 1.383339 -0.338038
v -0.045074 0.538164 0.075541
v -0.045074 0.538164 -0.075541
v -0.045074 0.538164 -0.226623
v -0.045074 1.221630 0.226623
v -0.045074 1.221630 -0.226623
v -0.045074 1.545047 0.226623
v -0.045074 1.545047 0.075541
v -0.045074 1.545047 -0.075541
v -0.045074 0.214748 0.226623
v 0.045074 0.376456 -0.338038
v 0.045074 1.383339 -0.338038
v 0.045074 1.221630 0.226623
v 0.045074 0.538164 0.226623
v 0.045074 0.538164 0.075541
v 0.045074 0.214748 0.226623
v 0.045074 0.214748 0.075541
v 0.045074 0.214748 -0.226623
v 0.045074 1.545047 0.226623
v 0.045074 1.545047 0.075541
v 0.045074 1.545047 -0.075541
v 0.045074 1.545047 -0.226623
v 0.045074 1.545047 0.338038
v 0.045074 0.214748 -0.338038
v 0.045074 1.545047 -0.338038
v -0.045074 0.214748 -0.338038
v 0.045074 0.214748 0.338038
v 0.045074 0.538164 0.338038
v 0.045074 1.221630 0.338038
v 0.045074 1.221630 -0.338038
v 0.045074 0.538164 -0.338038
v -0.045074 1.221630 0.338038
v -0.045074 0.538164 0.338038
v -0.045074 1.221630 -0.338038
v -0.034538 0.508029 0.184391
v -0.034538 0.508029 0.061464
v -0.034538 0.508029 -0.061464
v -0.034538 0.508029 -0.184391
v -0.034538 1.251766 0.184391
v -0.034538 1.251766 0.061464
v -0.034538 1.251766 -0.061464
v -0.034538 1.251766 -0.184391
v -0.034538 1.514912 0.184391
v -0.034538 1.514912 0.061464
v -0.034538 1.514912 -0.061464
v -0.034538 1.514912 -0.184391
v -0.034538 0.244883 0.184391
v -0.034538 0.244883 0.061464
v -0.034538 0.244883 -0.061464
v -0.034538 0.244883 -0.184391
v 0.034538 0.376456 -0.275042
v 0.034538 0.376456 -0.184391
v 0.034538 0.376456 -0.061464
v 0.034538 0.376456 0.061464
v 0.034538 1.383339 -0.275042
v 0.034538 1.383339 -0.184391
v 0.034538 1.383339 -0.061464
v 0.034538 1.383339 0.061464
v 0.034538 1.251766 0.184391
v 0.034538 1.251766 0.061464
v 0.034538 1.251766 -0.061464
v 0.034538 1.251766 -0.184391
v 0.034538 0.508029 0.184391
v 0.034538 0.508029 0.061464
v 0.034538 0.508029 -0.061463
v 0.034538 0.508029 -0.184391
v 0.034538 0.244883 0.184391
v 0.034538 0.244883 0.061464
v 0.034538 0.244883 -0.061464
v 0.034538 0.244883 -0.184391
v 0.034538 1.514912 0.184391
v 0.034538 1.514912 0.061464
v 0.034538 1.514912 -0.061464
v 0.034538 1.514912 -0.184391
v -0.034538 0.244883 0.275042
v -0.034538 1.514912 -0.275042
v 0.034538 1.514912 0.275042
v 0.034538 0.244883 -0.275042
v -0.034538 1.514912 0.275042
v 0.034538 1.514912 -0.275042
v -0.034538 0.244883 -0.275042
v 0.034538 0.244883 0.275042
v 0.034538 0.508029 0.275042
v 0.034538 1.251766 0.275042
v 0.034538 1.251766 -0.275042
v 0.034538 0.508029 -0.275042
v -0.034538 1.251766 0.275042
v -0.034538 0.508029 0.275042
v -0.034538 0.508029 -0.275042
v -0.034538 1.251766 -0.275042
v -0.047609 0.969403 -0.231179
v -0.047609 0.790392 -0.231179
v 0.047609 0.790392 -0.231179
v 0.047609 0.969403 -0.231179
v 0.047609 0.790392 0.366523
v 0.047609 0.969403 0.366523
v 0.047609 0.865644 0.226623
v 0.047609 0.894151 0.226623
v -0.047609 0.969403 0.366523
v -0.047609 0.790392 0.366523
v -0.047609 0.894151 0.226623
v -0.047609 0.790392 0.226623
v -0.047609 0.894151 -0.075541
v -0.047609 0.894151 0.075541
v -0.047609 0.790392 -0.075541
v -0.047609 0.790392 0.075541
v 0.047609 0.865644 -0.075541
v 0.047609 0.865644 0.075541
v 0.047609 0.969403 -0.075541
v 0.047609 0.969403 0.075541
v -0.044744 0.891051 0.226623
v -0.044744 0.865644 0.226623
v -0.044744 0.891051 0.075541
v -0.044744 0.865644 0.075541
v -0.044744 0.894151 -0.075541
v -0.044744 0.865644 -0.075541
v 0.044744 0.868744 0.226623
v 0.044744 0.894151 0.226623
v 0.044744 0.865644 0.075541
v 0.044744 0.894151 0.075541
v 0.044744 0.865644 -0.075541
v 0.044744 0.891051 -0.075541
v -0.044744 0.891051 -0.202445
v -0.044744 0.868744 -0.202445
v 0.044744 0.868744 -0.202445
v 0.044744 0.891051 -0.202445
v 0.044744 0.868744 0.337789
v 0.044744 0.891051 0.337789
v -0.044744 0.891051 0.337789
v -0.044744 0.868744 0.337789
v -0.044744 0.894151 -0.205544
v -0.044744 0.865644 -0.205544
v 0.044744 0.865644 -0.205544
v 0.044744 0.894151 -0.205544
v 0.044744 0.865644 0.340888
v 0.044744 0.894151 0.340888
v 0.044744 0.865644 0.226623
v 0.044744 0.891051 0.226623
v -0.044744 0.894151 0.340888
v -0.044744 0.865644 0.340888
v -0.044744 0.894151 0.226623
v -0.044744 0.868744 0.226623
v -0.044744 0.891051 -0.075541
v -0.044744 0.894151 0.075541
v -0.044744 0.868744 -0.075541
v -0.044744 0.868744 0.075541
v 0.044744 0.868744 -0.075541
v 0.044744 0.868744 0.075541
v 0.044744 0.894151 -0.075541
v 0.044744 0.891051 0.075541
v -0.043051 0.891051 0.226623
v -0.043051 0.868744 0.226623
v -0.043051 0.891051 0.075541
v -0.043051 0.868744 0.075541
v -0.043051 0.891051 -0.075541
v -0.043051 0.868744 -0.075541
v 0.043051 0.868744 0.226623
v 0.043051 0.891051 0.226623
v 0.043051 0.868744 0.075541
v 0.043051 0.891051 0.075541
v 0.043051 0.868744 -0.075541
v 0.043051 0.891051 -0.075541
v -0.043051 0.891051 -0.202445
v -0.043051 0.868744 -0.202445
v 0.043051 0.868744 -0.202445
v 0.043051 0.891051 -0.202445
v 0.043051 0.868744 0.337789
v 0.043051 0.891051 0.337789
v -0.043051 0.891051 0.337789
v -0.043051 0.868744 0.337789
v -0.044514 1.753897 0.469663
v -0.038616 1.753897 0.475561
v -0.038616 1.759795 0.469663
v -0.038616 1.759795 -0.469663
v -0.038616 1.753897 -0.475561
v -0.044514 1.753897 -0.469663
v -0.038616 0.005898 -0.475561
v -0.038616 0.000000 -0.469663
v -0.044514 0.005898 -0.469663
v -0.038616 0.000000 0.469663
v -0.038616 0.005898 0.475561
v -0.044514 0.005898 0.469663
v 0.038616 1.759795 -0.469663
v 0.044514 1.753897 -0.469663
v 0.038616 1.753897 -0.475561
v 0.038616 0.000000 -0.469663
v 0.038616 0.005898 -0.475561
v 0.044514 0.005898 -0.469663
v 0.044514 0.005898 0.469663
v 0.038616 0.005898 0.475561
v 0.038616 0.000000 0.469663
v 0.038616 1.759795 0.469663
v 0.038616 1.753897 0.475561
v 0.044514 1.753897 0.469663
vn -1.0000 -0.0000 -0.0000
vn -0.0000 -1.0000 -0.0000
vn 1.0000 -0.0000 -0.0000
vn -0.0000 1.0000 -0.0000
vn -0.0000 -0.0000 -1.0000
vn -0.0000 -0.0000 1.0000
vn -0.0000 0.7071 0.7071
vn -0.0000 0.7071 -0.7071
vn -0.0000 -0.7071 0.7071
vn -0.0000 -0.7071 -0.7071
vn -0.0000 0.7154 -0.6987
vn -0.0000 -0.7154 0.6987
vn -0.0000 0.7154 0.6987
vn -0.0000 -0.7154 -0.6987
vn -0.9440 -0.3300 -0.0000
vn 0.9440 -0.3300 -0.0000
vn -0.9440 0.3300 -0.0000
vn -0.9863 -0.0000 0.1650
vn 0.9440 0.3300 -0.0000
vn -0.9863 -0.0000 -0.1650
vn 0.9863 -0.0000 0.1650
vn 0.9863 -0.0000 -0.1650
vn -0.5774 0.5773 0.5773
vn -0.5774 0.5773 -0.5773
vn -0.5774 -0.5773 -0.5774
vn -0.5774 -0.5773 0.5774
vn 0.5774 0.5773 -0.5773
vn 0.5774 -0.5773 -0.5774
vn 0.5774 -0.5773 0.5774
vn 0.5774 0.5773 0.5773
vn -0.7071 0.7071 -0.0000
vn -0.7071 -0.0000 -0.7071
vn -0.7071 -0.7071 -0.0000
vn -0.7071 -0.0000 0.7071
vn 0.7071 -0.0000 -0.7071
vn 0.7071 -0.7071 -0.0000
vn 0.7071 0.7071 -0.0000
vn 0.7071 -0.0000 0.7071
vt 0.378695 0.243163
vt 0.399155 0.227483
vt 0.427968 0.227483
vt 0.456781 0.227483
vt 0.485593 0.227483
vt 0.514406 0.227483
vt 0.543219 0.227483
vt 0.572032 0.227483
vt 0.600845 0.227483
vt 0.621305 0.243163
vt 0.624162 0.248450
vt 0.375838 0.248450
vt 0.141562 0.501550
vt 0.358438 0.501550
vt 0.358438 0.748450
vt 0.141562 0.748450
vt 0.621305 0.506837
vt 0.600845 0.522517
vt 0.572032 0.522517
vt 0.543219 0.522517
vt 0.514406 0.522517
vt 0.485594 0.522517
vt 0.456781 0.522517
vt 0.427968 0.522517
vt 0.399155 0.522517
vt 0.378695 0.506837
vt 0.375838 0.501550
vt 0.624162 0.501550
vt 0.641562 0.501550
vt 0.858438 0.501550
vt 0.858438 0.748450
vt 0.641562 0.748450
vt 0.378695 0.006837
vt 0.387170 0.044692
vt 0.387170 0.076815
vt 0.387170 0.108938
vt 0.387170 0.141062
vt 0.387170 0.173185
vt 0.387170 0.205308
vt 0.378695 0.243163
vt 0.375838 0.001550
vt 0.621305 0.006837
vt 0.600845 0.022517
vt 0.572032 0.022517
vt 0.543219 0.022517
vt 0.514406 0.022517
vt 0.485593 0.022517
vt 0.456781 0.022517
vt 0.427968 0.022517
vt 0.399155 0.022517
vt 0.378695 0.006837
vt 0.375838 0.001550
vt 0.624162 0.001550
vt 0.572032 0.022517
vt 0.387170 0.044692
vt 0.387170 0.076815
vt 0.387170 0.576815
vt 0.387170 0.544692
vt 0.387170 0.544692
vt 0.387170 0.576815
vt 0.427968 0.227483
vt 0.612830 0.673185
vt 0.612830 0.705308
vt 0.612830 0.673185
vt 0.427968 0.727483
vt 0.399155 0.727483
vt 0.427968 0.727483
vt 0.600128 0.025721
vt 0.611099 0.046019
vt 0.378695 0.743163
vt 0.456781 0.727483
vt 0.485594 0.727483
vt 0.514406 0.727483
vt 0.543219 0.727483
vt 0.572032 0.727483
vt 0.600845 0.727483
vt 0.621305 0.743163
vt 0.624162 0.748450
vt 0.375838 0.748450
vt 0.428480 0.224279
vt 0.399872 0.224279
vt 0.572032 0.522517
vt 0.612830 0.173185
vt 0.612830 0.205308
vt 0.612830 0.173185
vt 0.375838 0.266562
vt 0.624162 0.266562
vt 0.624162 0.483438
vt 0.375838 0.483438
vt 0.378695 0.506837
vt 0.387170 0.608938
vt 0.387170 0.641062
vt 0.387170 0.673185
vt 0.387170 0.705308
vt 0.378695 0.743163
vt 0.621305 0.743163
vt 0.612830 0.641062
vt 0.612830 0.608938
vt 0.612830 0.576815
vt 0.612830 0.544692
vt 0.621305 0.506837
vt 0.612830 0.044692
vt 0.612830 0.022517
vt 0.387170 0.227483
vt 0.612830 0.227483
vt 0.621305 0.243163
vt 0.387170 0.727483
vt 0.612830 0.544692
vt 0.612830 0.522517
vt 0.387170 0.022517
vt 0.600845 0.727483
vt 0.612830 0.727483
vt 0.387170 0.522517
vt 0.612830 0.044692
vt 0.375838 0.766562
vt 0.624162 0.766562
vt 0.624162 0.983438
vt 0.375838 0.983438
vt 0.399872 0.025721
vt 0.388902 0.046019
vt 0.388902 0.203981
vt 0.600128 0.224279
vt 0.611099 0.203981
vt 0.388902 0.703981
vt 0.399872 0.724279
vt 0.600128 0.724279
vt 0.611099 0.703981
vt 0.399872 0.525721
vt 0.388902 0.546019
vt 0.611099 0.546019
vt 0.600128 0.525721
vt 0.428480 0.025721
vt 0.427968 0.022517
vt 0.611099 0.077612
vt 0.612830 0.076815
vt 0.571520 0.224279
vt 0.572032 0.227483
vt 0.388902 0.172388
vt 0.387170 0.173185
vt 0.388902 0.672388
vt 0.387170 0.673185
vt 0.571520 0.724279
vt 0.428480 0.525721
vt 0.611099 0.577612
vt 0.600128 0.565433
vt 0.600128 0.065433
vt 0.388902 0.077612
vt 0.388901 0.077612
vt 0.388902 0.577612
vt 0.388901 0.577612
vt 0.428480 0.724279
vt 0.571520 0.525721
vt 0.571520 0.525721
vt 0.611099 0.672389
vt 0.611099 0.672388
vt 0.571520 0.025721
vt 0.611099 0.172388
vt 0.399872 0.184567
vt 0.388902 0.172388
vt 0.399872 0.565433
vt 0.457088 0.565433
vt 0.457088 0.525721
vt 0.485696 0.525721
vt 0.485696 0.565433
vt 0.514304 0.565433
vt 0.514304 0.525721
vt 0.542912 0.525721
vt 0.542912 0.565433
vt 0.485696 0.525721
vt 0.542912 0.525721
vt 0.571520 0.724279
vt 0.542912 0.724279
vt 0.542912 0.724279
vt 0.514304 0.724279
vt 0.514304 0.724279
vt 0.485696 0.724279
vt 0.485696 0.724279
vt 0.457088 0.724279
vt 0.457088 0.724279
vt 0.543219 0.522517
vt 0.514406 0.522517
vt 0.485594 0.522517
vt 0.456781 0.522517
vt 0.456781 0.727483
vt 0.485594 0.727483
vt 0.542912 0.184567
vt 0.542912 0.224279
vt 0.514304 0.224279
vt 0.514304 0.184567
vt 0.514304 0.644856
vt 0.514304 0.684567
vt 0.485696 0.184567
vt 0.485696 0.224279
vt 0.457088 0.224279
vt 0.457088 0.184567
vt 0.457088 0.025721
vt 0.485696 0.025721
vt 0.485696 0.025721
vt 0.514304 0.025721
vt 0.514304 0.025721
vt 0.542912 0.025721
vt 0.542912 0.025721
vt 0.457088 0.224279
vt 0.456781 0.227483
vt 0.485593 0.227483
vt 0.514304 0.224279
vt 0.543219 0.227483
vt 0.543219 0.022517
vt 0.514406 0.022517
vt 0.485594 0.022517
vt 0.456781 0.022517
vt 0.571520 0.224279
vt 0.485696 0.065433
vt 0.457088 0.065433
vt 0.485696 0.105144
vt 0.457088 0.105144
vt 0.485696 0.144856
vt 0.457088 0.144856
vt 0.514304 0.605144
vt 0.542912 0.065433
vt 0.514304 0.065433
vt 0.542912 0.105144
vt 0.514304 0.105144
vt 0.542912 0.144856
vt 0.514304 0.144856
vt 0.399872 0.065433
vt 0.399872 0.105144
vt 0.388902 0.109204
vt 0.399872 0.144856
vt 0.388902 0.140796
vt 0.611099 0.109204
vt 0.611099 0.140796
vt 0.611099 0.140796
vt 0.388902 0.109204
vt 0.600128 0.184567
vt 0.600128 0.144856
vt 0.600128 0.105144
vt 0.387170 0.108938
vt 0.387170 0.141062
vt 0.612830 0.141062
vt 0.612830 0.108938
vt 0.612830 0.108938
vt 0.612830 0.141062
vt 0.542912 0.684567
vt 0.542912 0.644856
vt 0.542912 0.605144
vt 0.457088 0.684567
vt 0.485696 0.684567
vt 0.457088 0.644856
vt 0.485696 0.644856
vt 0.457088 0.605144
vt 0.485696 0.605144
vt 0.399872 0.684567
vt 0.388901 0.640796
vt 0.399872 0.644856
vt 0.388902 0.609204
vt 0.399872 0.605144
vt 0.611099 0.609204
vt 0.611099 0.609204
vt 0.611099 0.640796
vt 0.611099 0.640796
vt 0.388902 0.640796
vt 0.388902 0.609204
vt 0.600128 0.684567
vt 0.600128 0.644856
vt 0.600128 0.605144
vt 0.612830 0.641062
vt 0.612830 0.608938
vt 0.387170 0.608938
vt 0.487285 0.564235
vt 0.486659 0.528660
vt 0.513341 0.528660
vt 0.512715 0.644856
vt 0.512715 0.684567
vt 0.512715 0.185765
vt 0.513341 0.221340
vt 0.487285 0.105144
vt 0.487285 0.065433
vt 0.512715 0.721339
vt 0.487285 0.721339
vt 0.512715 0.605144
vt 0.487285 0.028660
vt 0.487285 0.144856
vt 0.512715 0.564235
vt 0.487285 0.684567
vt 0.512715 0.028660
vt 0.486659 0.221340
vt 0.512715 0.065433
vt 0.512715 0.144856
vt 0.512715 0.105144
vt 0.487285 0.185765
vt 0.487285 0.605144
vt 0.487285 0.644856
vt 0.510667 0.190101
vt 0.511776 0.217003
vt 0.489333 0.559899
vt 0.488224 0.532997
vt 0.490926 0.144856
vt 0.490926 0.105144
vt 0.509074 0.644856
vt 0.509074 0.684567
vt 0.509074 0.714601
vt 0.490926 0.179027
vt 0.509074 0.605144
vt 0.490926 0.714601
vt 0.490926 0.684567
vt 0.509074 0.065433
vt 0.509074 0.105144
vt 0.509074 0.570973
vt 0.489333 0.190101
vt 0.510667 0.559899
vt 0.511776 0.532997
vt 0.488224 0.217003
vt 0.511137 0.215412
vt 0.488863 0.215412
vt 0.490039 0.191693
vt 0.509961 0.191693
vt 0.490039 0.558307
vt 0.509961 0.558307
vt 0.511137 0.534588
vt 0.488863 0.534588
vt 0.507679 0.197288
vt 0.508747 0.209816
vt 0.492321 0.552712
vt 0.491253 0.540184
vt 0.492321 0.197288
vt 0.507679 0.552712
vt 0.508747 0.540184
vt 0.491253 0.209816
vt 0.507002 0.543681
vt 0.506394 0.549215
vt 0.493606 0.200785
vt 0.506394 0.200785
vt 0.493606 0.549215
vt 0.492998 0.543681
vt 0.492998 0.206319
vt 0.507002 0.206319
vt 0.428480 0.036148
vt 0.405507 0.036148
vt 0.571520 0.213852
vt 0.594492 0.213852
vt 0.571520 0.713852
vt 0.594492 0.713852
vt 0.428480 0.536148
vt 0.405507 0.536148
vt 0.594492 0.065433
vt 0.594492 0.036148
vt 0.594492 0.565433
vt 0.594492 0.536148
vt 0.405507 0.184567
vt 0.405507 0.213852
vt 0.405507 0.565433
vt 0.405507 0.713852
vt 0.428480 0.713852
vt 0.451453 0.713852
vt 0.548547 0.713852
vt 0.571520 0.536148
vt 0.548547 0.536148
vt 0.451453 0.536148
vt 0.451453 0.684567
vt 0.548547 0.684567
vt 0.571520 0.036148
vt 0.548547 0.036148
vt 0.451453 0.036148
vt 0.428480 0.213852
vt 0.451453 0.213852
vt 0.548547 0.213852
vt 0.548547 0.065433
vt 0.451453 0.065433
vt 0.594493 0.184567
vt 0.594492 0.144856
vt 0.594492 0.105144
vt 0.405508 0.065433
vt 0.405508 0.105144
vt 0.405508 0.144856
vt 0.548547 0.184567
vt 0.548547 0.144856
vt 0.548547 0.105144
vt 0.451453 0.184567
vt 0.451453 0.144856
vt 0.451453 0.105144
vt 0.594493 0.684567
vt 0.594492 0.644856
vt 0.594492 0.605144
vt 0.405508 0.684567
vt 0.405507 0.644856
vt 0.405508 0.605144
vt 0.451453 0.565433
vt 0.451453 0.605144
vt 0.451453 0.644856
vt 0.548547 0.565433
vt 0.548547 0.605144
vt 0.548547 0.644856
vt 0.571520 0.565433
vt 0.428480 0.184567
vt 0.428480 0.565433
vt 0.571520 0.184567
vt 0.428480 0.065433
vt 0.428480 0.105144
vt 0.428480 0.144856
vt 0.571520 0.065433
vt 0.571520 0.105144
vt 0.571520 0.144856
vt 0.571520 0.684567
vt 0.571520 0.644856
vt 0.571520 0.605144
vt 0.428480 0.684567
vt 0.428480 0.644856
vt 0.428480 0.605144
vt 0.509074 0.179027
vt 0.490926 0.570973
vt 0.509074 0.035398
vt 0.490926 0.035398
vt 0.490926 0.065433
vt 0.509074 0.144856
vt 0.490926 0.605144
vt 0.490926 0.644856
vt 0.492900 0.571788
vt 0.507100 0.571788
vt 0.507100 0.144856
vt 0.507100 0.178212
vt 0.492900 0.644856
vt 0.492900 0.605144
vt 0.492900 0.178212
vt 0.492900 0.065433
vt 0.492900 0.036213
vt 0.507100 0.036213
vt 0.507100 0.065433
vt 0.492900 0.105144
vt 0.492900 0.713787
vt 0.507100 0.713787
vt 0.492900 0.684567
vt 0.507100 0.684567
vt 0.507100 0.105144
vt 0.492900 0.144856
vt 0.507100 0.605144
vt 0.507100 0.644856
vt 0.624162 1.000000
vt 0.625000 0.983438
vt 0.858438 0.500000
vt 0.875000 0.501550
vt 0.375000 0.266562
vt 0.375838 0.250000
vt 0.141562 0.750000
vt 0.125000 0.748450
vt 0.625000 0.501550
vt 0.641562 0.500000
vt 0.358438 0.500000
vt 0.375000 0.501550
vt 0.375838 0.750000
vt 0.375000 0.766562
vt 0.641562 0.750000
vt 0.625000 0.748450
vt 0.875000 0.748450
vt 0.625000 0.266562
vt 0.625000 0.483438
vt 0.125000 0.501550
vt 0.375838 1.000000
vt 0.141562 0.500000
vt 0.358438 0.750000
vt 0.625000 0.766562
vt 0.625000 0.983438
vt 0.621305 0.006837
vt 0.624162 0.001550
s 0
usemtl M_Noir_Bleuté
f 6/1/1 5/2/1 127/3/1 126/4/1 125/5/1 124/6/1 123/7/1 122/8/1 7/9/1 9/10/1 630/11/1 633/12/1
f 632/13/2 640/14/2 645/15/2 634/16/2
f 15/17/3 14/18/3 85/19/3 84/20/3 83/21/3 82/22/3 81/23/3 80/24/3 22/25/3 24/26/3 642/27/3 638/28/3
f 637/29/4 628/30/4 627/31/4 646/32/4
f 18/33/1 17/34/1 164/35/1 163/36/1 162/37/1 161/38/1 4/39/1 6/40/1 633/12/1 636/41/1
f 3/42/1 2/43/1 115/44/1 114/45/1 113/46/1 112/47/1 111/48/1 110/49/1 16/50/1 18/51/1 636/52/1 625/53/1
f 115/44/5 2/43/5 48/43/5 116/54/5
f 164/35/4 17/55/4 42/34/4 165/56/4
f 211/57/4 23/58/4 54/59/4 212/60/4
f 127/3/6 5/2/6 44/2/6 128/61/6
f 219/62/2 20/63/2 52/63/2 220/64/2
f 68/65/5 11/66/5 50/66/5 74/67/5
f 12/70/3 11/66/3 68/65/3 69/71/3 70/72/3 71/73/3 72/74/3 73/75/3 19/76/3 21/77/3 648/78/3 643/79/3
f 85/19/6 14/18/6 56/18/6 86/82/6
f 153/83/2 8/84/2 46/84/2 157/85/2
f 631/86/5 629/87/5 639/88/5 641/89/5
f 24/90/3 23/59/3 211/57/3 210/91/3 209/92/3 208/93/3 10/94/3 12/95/3 643/79/3 642/27/3
f 21/96/3 20/63/3 219/62/3 218/97/3 217/98/3 216/99/3 13/100/3 15/101/3 638/28/3 648/78/3
f 1/102/1 2/103/1 3/42/1
f 4/39/1 5/104/1 6/1/1
f 7/9/1 8/105/1 9/106/1
f 10/94/3 11/107/3 12/70/3
f 13/108/3 14/109/3 15/17/3
f 16/50/1 17/110/1 18/33/1
f 19/111/3 20/112/3 21/96/3
f 22/25/3 23/113/3 24/90/3
f 16/50/8 41/50/8 42/34/8 17/55/8
f 44/2/7 5/2/7 4/39/7 43/39/7
f 7/9/9 45/9/9 46/84/9 8/84/9
f 48/43/10 2/43/10 1/102/10 47/114/10
f 10/94/8 49/94/8 50/66/8 11/66/8
f 52/63/10 20/63/10 19/111/10 51/76/10
f 22/25/7 53/25/7 54/59/7 23/58/7
f 56/18/9 14/18/9 13/108/9 55/100/9
f 644/115/6 647/116/6 626/117/6 635/118/6
f 22/25/6 80/24/6 91/24/6 53/25/6
f 80/24/6 81/23/6 90/183/6 91/24/6
f 81/23/6 82/22/6 89/182/6 90/183/6
f 82/22/6 83/21/6 88/181/6 89/182/6
f 83/21/6 84/20/6 87/180/6 88/181/6
f 84/20/6 85/19/6 86/82/6 87/180/6
f 19/111/5 73/75/5 79/75/5 51/76/5
f 73/75/5 72/74/5 78/74/5 79/75/5
f 72/74/5 71/73/5 77/73/5 78/74/5
f 71/73/5 70/72/5 76/185/5 77/73/5
f 70/72/5 69/71/5 75/184/5 76/185/5
f 69/71/5 68/65/5 74/67/5 75/184/5
f 7/9/6 122/8/6 133/137/6 45/9/6
f 122/8/6 123/7/6 132/207/6 133/137/6
f 123/7/6 124/6/6 131/6/6 132/207/6
f 124/6/6 125/5/6 130/205/6 131/6/6
f 125/5/6 126/4/6 129/204/6 130/205/6
f 126/4/6 127/3/6 128/61/6 129/204/6
f 16/50/5 110/49/5 121/133/5 41/50/5
f 110/49/5 111/48/5 120/211/5 121/133/5
f 111/48/5 112/47/5 119/210/5 120/211/5
f 112/47/5 113/46/5 118/209/5 119/210/5
f 113/46/5 114/45/5 117/208/5 118/209/5
f 114/45/5 115/44/5 116/54/5 117/208/5
f 1/102/2 156/135/2 160/135/2 47/114/2
f 156/135/2 155/242/2 159/241/2 160/135/2
f 155/242/2 154/243/2 158/240/2 159/241/2
f 154/243/2 153/83/2 157/85/2 158/240/2
f 4/39/4 161/38/4 168/139/4 43/39/4
f 161/38/4 162/37/4 167/239/4 168/139/4
f 162/37/4 163/36/4 166/238/4 167/239/4
f 163/36/4 164/35/4 165/56/4 166/238/4
f 13/108/2 216/99/2 223/99/2 55/100/2
f 216/99/2 217/98/2 222/268/2 223/99/2
f 217/98/2 218/97/2 221/267/2 222/268/2
f 218/97/2 219/62/2 220/64/2 221/267/2
f 10/94/4 208/93/4 215/141/4 49/94/4
f 208/93/4 209/92/4 214/92/4 215/141/4
f 209/92/4 210/91/4 213/269/4 214/92/4
f 210/91/4 211/57/4 212/60/4 213/269/4
f 316/294/14 333/295/14 357/295/14 354/294/14
f 324/296/11 329/297/11 356/297/11 343/296/11
f 315/298/4 313/299/4 568/299/4 570/298/4
f 321/300/2 552/301/2 572/301/2 574/300/2
f 552/301/2 327/302/2 590/302/2 572/301/2
f 335/303/4 315/298/4 570/298/4 586/303/4
f 323/304/2 321/300/2 574/300/2 603/304/2
f 326/305/4 551/306/4 591/306/4 589/305/4
f 555/307/2 558/308/2 598/308/2 595/307/2
f 337/309/2 323/304/2 603/304/2 588/309/2
f 316/294/1 317/310/1 546/291/1 545/275/1
f 324/296/3 325/311/3 548/284/3 547/270/3
f 328/312/3 329/297/3 339/271/3 338/272/3
f 332/313/1 333/295/1 341/276/1 340/287/1
f 333/295/1 316/294/1 545/275/1 341/276/1
f 317/310/1 332/313/1 340/287/1 546/291/1
f 329/297/3 324/296/3 547/270/3 339/271/3
f 325/311/3 328/312/3 338/272/3 548/284/3
f 329/297/6 328/312/6 355/312/6 356/297/6
f 317/310/5 316/294/5 354/294/5 342/310/5
f 328/312/14 325/311/14 344/311/14 355/312/14
f 332/313/11 317/310/11 342/310/11 345/313/11
f 333/295/6 332/313/6 345/313/6 357/295/6
f 325/311/5 324/296/5 343/296/5 344/311/5
f 358/322/14 365/323/14 389/323/14 382/322/14
f 360/324/11 363/325/11 387/325/11 384/324/11
f 358/322/1 359/326/1 367/316/1 366/317/1
f 360/324/3 361/327/3 369/319/3 368/318/3
f 362/328/3 363/325/3 371/321/3 370/320/3
f 364/329/1 365/323/1 373/314/1 372/315/1
f 365/323/1 358/322/1 366/317/1 373/314/1
f 359/326/1 364/329/1 372/315/1 367/316/1
f 363/325/3 360/324/3 368/318/3 371/321/3
f 361/327/3 362/328/3 370/320/3 369/319/3
f 378/330/14 377/331/14 393/331/14 394/330/14
f 375/332/5 374/333/5 390/333/5 391/332/5
f 363/325/6 362/328/6 386/328/6 387/325/6
f 359/326/5 358/322/5 382/322/5 383/326/5
f 362/328/14 361/327/14 385/327/14 386/328/14
f 364/329/11 359/326/11 383/326/11 388/329/11
f 365/323/6 364/329/6 388/329/6 389/323/6
f 361/327/5 360/324/5 384/324/5 385/327/5
f 374/333/1 375/332/1 383/326/1 382/322/1
f 376/334/3 377/331/3 385/327/3 384/324/3
f 378/330/3 379/335/3 387/325/3 386/328/3
f 380/336/1 381/337/1 389/323/1 388/329/1
f 381/337/1 374/333/1 382/322/1 389/323/1
f 375/332/1 380/336/1 388/329/1 383/326/1
f 379/335/3 376/334/3 384/324/3 387/325/3
f 377/331/3 378/330/3 386/328/3 385/327/3
f 380/336/11 375/332/11 391/332/11 396/336/11
f 381/337/6 380/336/6 396/336/6 397/337/6
f 377/331/5 376/334/5 392/334/5 393/331/5
f 376/334/11 379/335/11 395/335/11 392/334/11
f 374/333/14 381/337/14 397/337/14 390/333/14
f 379/335/6 378/330/6 394/330/6 395/335/6
f 335/303/1 334/410/1 545/275/1 546/291/1
f 337/309/3 336/411/3 547/270/3 548/284/3
f 326/305/3 327/302/3 550/279/3 549/280/3
f 551/306/3 326/305/3 549/280/3 318/285/3
f 327/302/3 552/301/3 319/274/3 550/279/3
f 330/412/1 331/413/1 554/282/1 553/286/1
f 555/307/1 330/412/1 553/286/1 310/288/1
f 331/413/1 311/414/1 556/278/1 554/282/1
f 334/410/1 557/415/1 314/289/1 545/275/1
f 557/415/1 558/308/1 312/290/1 314/289/1
f 558/308/1 555/307/1 310/288/1 312/290/1
f 315/298/1 335/303/1 546/291/1 559/283/1
f 313/299/1 315/298/1 559/283/1 560/277/1
f 311/414/1 313/299/1 560/277/1 556/278/1
f 336/411/3 561/416/3 322/292/3 547/270/3
f 561/416/3 562/417/3 320/293/3 322/292/3
f 562/417/3 551/306/3 318/285/3 320/293/3
f 323/304/3 337/309/3 548/284/3 563/281/3
f 321/300/3 323/304/3 563/281/3 564/273/3
f 552/301/3 321/300/3 564/273/3 319/274/3
f 331/413/5 330/412/5 593/412/5 594/413/5
f 313/299/4 311/414/4 566/414/4 568/299/4
f 330/412/2 555/307/2 595/307/2 593/412/2
f 561/416/4 336/411/4 587/411/4 575/416/4
f 311/414/4 331/413/4 594/413/4 566/414/4
f 334/410/6 335/303/6 586/303/6 585/410/6
f 562/417/4 561/416/4 575/416/4 573/417/4
f 557/415/2 334/410/2 585/410/2 569/415/2
f 336/411/6 337/309/6 588/309/6 587/411/6
f 551/306/4 562/417/4 573/417/4 591/306/4
f 558/308/2 557/415/2 569/415/2 598/308/2
f 327/302/5 326/305/5 589/305/5 590/302/5
f 625/438/23 626/117/23 627/439/23
f 628/30/24 629/440/24 630/441/24
f 631/86/25 632/442/25 633/443/25
f 634/16/26 635/444/26 636/445/26
f 637/29/27 638/446/27 639/447/27
f 640/14/28 641/448/28 642/449/28
f 643/450/29 644/115/29 645/451/29
f 646/32/30 647/452/30 648/453/30
f 627/31/31 628/30/31 630/441/31 625/454/31
f 629/87/32 631/86/32 633/12/32 630/11/32
f 628/455/8 637/456/8 639/88/8 629/87/8
f 632/13/33 634/16/33 636/445/33 633/457/33
f 635/118/34 626/117/34 625/438/34 636/458/34
f 640/14/10 632/13/10 631/459/10 641/448/10
f 638/28/35 642/27/35 641/89/35 639/88/35
f 645/15/36 640/14/36 642/27/36 643/79/36
f 637/29/37 646/32/37 648/78/37 638/28/37
f 647/116/38 644/115/38 643/79/38 648/78/38
f 634/16/9 645/15/9 644/460/9 635/444/9
f 646/461/7 627/462/7 626/117/7 647/116/7
f 9/106/1 8/84/1 153/83/1 154/243/1 155/242/1 156/135/1 1/114/1 3/463/1 625/464/1 630/11/1
usemtl M_Noir_Profond
f 25/68/7 26/69/7 62/69/7 407/68/7
f 140/80/5 29/81/5 411/81/5 425/80/5
f 32/119/1 31/120/1 42/55/1 41/50/1
f 30/121/1 29/81/1 44/2/1 43/39/1
f 28/122/1 27/123/1 46/84/1 45/9/1
f 26/69/1 25/68/1 48/43/1 47/102/1
f 38/124/3 37/125/3 50/66/3 49/94/3
f 40/126/3 39/127/3 52/63/3 51/111/3
f 36/128/3 35/129/3 54/58/3 53/25/3
f 34/130/3 33/131/3 56/18/3 55/108/3
f 139/132/1 32/119/1 41/50/1 121/133/1
f 172/134/1 26/69/1 47/102/1 160/135/1
f 145/136/1 28/122/1 45/9/1 133/137/1
f 176/138/1 30/121/1 43/39/1 168/139/1
f 227/140/3 38/124/3 49/94/3 215/141/3
f 97/142/3 40/126/3 51/111/3 79/75/3
f 103/143/3 36/128/3 53/25/3 91/24/3
f 231/144/3 34/130/3 55/108/3 223/99/3
f 173/147/2 31/120/2 58/120/2 181/148/2
f 37/125/9 38/124/9 64/124/9 413/125/9
f 224/149/2 35/129/2 66/129/2 232/150/2
f 39/127/7 40/126/7 403/126/7 65/127/7
f 92/151/6 37/125/6 413/125/6 414/151/6
f 35/129/10 36/128/10 405/128/10 66/129/10
f 98/152/5 33/131/5 409/131/5 417/153/5
f 33/131/8 34/130/8 67/130/8 409/131/8
f 31/120/9 32/119/9 399/119/9 58/120/9
f 228/154/4 39/127/4 65/127/4 236/155/4
f 134/156/6 25/68/6 407/68/6 422/156/6
f 29/81/10 30/121/10 59/121/10 411/81/10
f 169/157/4 27/123/4 61/123/4 177/157/4
f 27/123/8 28/122/8 401/122/8 61/123/8
f 36/128/5 103/143/5 404/143/5 405/128/5
f 103/143/5 102/162/5 419/162/5 404/143/5
f 102/162/5 101/169/5 109/163/5 419/162/5
f 101/169/5 100/166/5 288/166/5 289/163/5
f 100/166/5 99/170/5 418/167/5 108/166/5
f 99/170/5 98/152/5 417/153/5 418/167/5
f 40/126/6 97/142/6 402/171/6 403/126/6
f 97/142/6 96/172/6 416/173/6 402/171/6
f 96/172/6 95/174/6 106/175/6 416/173/6
f 95/174/6 94/176/6 286/177/6 287/175/6
f 94/176/6 93/178/6 415/179/6 105/177/6
f 93/178/6 92/151/6 414/151/6 415/179/6
f 33/131/3 98/152/3 86/82/3 56/18/3
f 98/152/3 99/170/3 87/180/3 86/82/3
f 99/170/3 100/166/3 88/181/3 87/180/3
f 100/166/3 101/169/3 89/182/3 88/181/3
f 101/169/3 102/162/3 90/183/3 89/182/3
f 102/162/3 103/143/3 91/24/3 90/183/3
f 37/125/3 92/151/3 74/67/3 50/66/3
f 92/151/3 93/178/3 75/184/3 74/67/3
f 93/178/3 94/176/3 76/185/3 75/184/3
f 94/176/3 95/174/3 77/73/3 76/185/3
f 95/174/3 96/172/3 78/74/3 77/73/3
f 96/172/3 97/142/3 79/75/3 78/74/3
f 32/119/6 139/132/6 398/132/6 399/119/6
f 139/132/6 138/196/6 424/196/6 398/132/6
f 138/196/6 137/197/6 147/198/6 424/196/6
f 137/197/6 136/199/6 146/200/6 147/198/6
f 136/199/6 135/201/6 423/202/6 146/200/6
f 135/201/6 134/156/6 422/156/6 423/202/6
f 29/81/1 140/80/1 128/61/1 44/2/1
f 140/80/1 141/203/1 129/204/1 128/61/1
f 141/203/1 142/193/1 130/205/1 129/204/1
f 142/193/1 143/206/1 131/6/1 130/205/1
f 143/206/1 144/187/1 132/207/1 131/6/1
f 144/187/1 145/136/1 133/137/1 132/207/1
f 25/68/1 134/156/1 116/54/1 48/43/1
f 134/156/1 135/201/1 117/208/1 116/54/1
f 135/201/1 136/199/1 118/209/1 117/208/1
f 136/199/1 137/197/1 119/210/1 118/209/1
f 137/197/1 138/196/1 120/211/1 119/210/1
f 138/196/1 139/132/1 121/133/1 120/211/1
f 28/122/5 145/136/5 400/212/5 401/122/5
f 145/136/5 144/187/5 427/187/5 400/212/5
f 144/187/5 143/206/5 152/188/5 427/187/5
f 143/206/5 142/193/5 151/193/5 152/188/5
f 142/193/5 141/203/5 426/194/5 151/193/5
f 141/203/5 140/80/5 425/80/5 426/194/5
f 147/198/5 146/200/5 292/200/5 293/198/5
f 26/69/4 172/134/4 180/134/4 62/69/4
f 172/134/4 171/231/4 179/231/4 180/134/4
f 171/231/4 170/232/4 178/233/4 179/231/4
f 170/232/4 169/157/4 177/157/4 178/233/4
f 30/121/2 176/138/2 184/159/2 59/121/2
f 176/138/2 175/230/2 183/230/2 184/159/2
f 175/230/2 174/234/2 182/228/2 183/230/2
f 174/234/2 173/147/2 181/148/2 182/228/2
f 31/120/1 173/147/1 165/56/1 42/55/1
f 173/147/1 174/234/1 166/238/1 165/56/1
f 174/234/1 175/230/1 167/239/1 166/238/1
f 175/230/1 176/138/1 168/139/1 167/239/1
f 27/123/1 169/157/1 157/85/1 46/84/1
f 169/157/1 170/232/1 158/240/1 157/85/1
f 170/232/1 171/231/1 159/241/1 158/240/1
f 171/231/1 172/134/1 160/135/1 159/241/1
f 152/188/6 151/193/6 294/193/6 295/188/6
f 34/130/4 231/144/4 239/144/4 67/130/4
f 231/144/4 230/258/4 238/259/4 239/144/4
f 230/258/4 229/260/4 237/261/4 238/259/4
f 229/260/4 228/154/4 236/155/4 237/261/4
f 38/124/2 227/140/2 235/140/2 64/124/2
f 227/140/2 226/262/2 234/254/2 235/140/2
f 226/262/2 225/263/2 233/256/2 234/254/2
f 225/263/2 224/149/2 232/150/2 233/256/2
f 39/127/3 228/154/3 220/64/3 52/63/3
f 228/154/3 229/260/3 221/267/3 220/64/3
f 229/260/3 230/258/3 222/268/3 221/267/3
f 230/258/3 231/144/3 223/99/3 222/268/3
f 35/129/3 224/149/3 212/60/3 54/58/3
f 224/149/3 225/263/3 213/269/3 212/60/3
f 225/263/3 226/262/3 214/92/3 213/269/3
f 226/262/3 227/140/3 215/141/3 214/92/3
f 280/270/12 265/271/12 339/271/12 547/270/12
f 265/271/5 264/272/5 338/272/5 339/271/5
f 285/273/4 267/274/4 319/274/4 564/273/4
f 274/275/13 271/276/13 341/276/13 545/275/13
f 279/277/2 273/278/2 556/278/2 560/277/2
f 263/279/6 262/280/6 549/280/6 550/279/6
f 284/281/4 285/273/4 564/273/4 563/281/4
f 273/278/2 269/282/2 554/282/2 556/278/2
f 278/283/2 279/277/2 560/277/2 559/283/2
f 283/284/4 284/281/4 563/281/4 548/284/4
f 262/280/3 263/279/3 287/175/3 286/177/3
f 264/272/3 265/271/3 289/163/3 288/166/3
f 266/285/3 262/280/3 286/177/3 290/248/3
f 263/279/3 267/274/3 291/191/3 287/175/3
f 268/286/1 269/282/1 293/198/1 292/200/1
f 270/287/1 271/276/1 295/188/1 294/193/1
f 272/288/1 268/286/1 292/200/1 296/221/1
f 269/282/1 273/278/1 297/213/1 293/198/1
f 271/276/1 274/275/1 298/189/1 295/188/1
f 274/275/1 275/289/1 299/225/1 298/189/1
f 275/289/1 276/290/1 300/223/1 299/225/1
f 276/290/1 272/288/1 296/221/1 300/223/1
f 277/291/1 270/287/1 294/193/1 301/192/1
f 278/283/1 277/291/1 301/192/1 302/217/1
f 279/277/1 278/283/1 302/217/1 303/215/1
f 273/278/1 279/277/1 303/215/1 297/213/1
f 265/271/3 280/270/3 304/164/3 289/163/3
f 280/270/3 281/292/3 305/252/3 304/164/3
f 281/292/3 282/293/3 306/250/3 305/252/3
f 282/293/3 266/285/3 290/248/3 306/250/3
f 283/284/3 264/272/3 288/166/3 307/165/3
f 284/281/3 283/284/3 307/165/3 308/219/3
f 285/273/3 284/281/3 308/219/3 309/190/3
f 267/274/3 285/273/3 309/190/3 291/191/3
f 275/289/4 274/275/4 545/275/4 314/289/4
f 262/280/2 266/285/2 318/285/2 549/280/2
f 281/292/2 280/270/2 547/270/2 322/292/2
f 276/290/4 275/289/4 314/289/4 312/290/4
f 267/274/4 263/279/4 550/279/4 319/274/4
f 282/293/2 281/292/2 322/292/2 320/293/2
f 272/288/4 276/290/4 312/290/4 310/288/4
f 269/282/6 268/286/6 553/286/6 554/282/6
f 266/285/2 282/293/2 320/293/2 318/285/2
f 270/287/12 277/291/12 546/291/12 340/287/12
f 271/276/5 270/287/5 340/287/5 341/276/5
f 264/272/13 283/284/13 548/284/13 338/272/13
f 277/291/2 278/283/2 559/283/2 546/291/2
f 268/286/4 272/288/4 310/288/4 553/286/4
f 353/314/5 352/315/5 372/315/5 373/314/5
f 352/315/12 347/316/12 367/316/12 372/315/12
f 346/317/1 347/316/1 342/310/1 354/294/1
f 348/318/3 349/319/3 344/311/3 343/296/3
f 350/320/3 351/321/3 356/297/3 355/312/3
f 352/315/1 353/314/1 357/295/1 345/313/1
f 353/314/1 346/317/1 354/294/1 357/295/1
f 347/316/1 352/315/1 345/313/1 342/310/1
f 351/321/3 348/318/3 343/296/3 356/297/3
f 349/319/3 350/320/3 355/312/3 344/311/3
f 349/319/6 348/318/6 368/318/6 369/319/6
f 348/318/12 351/321/12 371/321/12 368/318/12
f 346/317/13 353/314/13 373/314/13 366/317/13
f 351/321/5 350/320/5 370/320/5 371/321/5
f 347/316/6 346/317/6 366/317/6 367/316/6
f 350/320/13 349/319/13 369/319/13 370/320/13
f 579/418/6 580/419/6 620/419/6 619/418/6
f 597/420/2 577/421/2 617/421/2 609/420/2
f 602/422/4 601/423/4 615/423/4 613/422/4
f 577/421/6 578/424/6 618/424/6 617/421/6
f 596/425/4 584/426/4 624/426/4 606/425/4
f 601/423/4 579/418/4 619/418/4 615/423/4
f 583/427/2 565/428/2 605/428/2 623/427/2
f 600/429/4 596/425/4 606/425/4 608/429/4
f 578/424/1 577/421/1 585/410/1 586/303/1
f 580/419/3 579/418/3 587/411/3 588/309/3
f 581/430/3 582/431/3 590/302/3 589/305/3
f 571/432/3 581/430/3 589/305/3 591/306/3
f 582/431/3 592/433/3 572/301/3 590/302/3
f 583/427/1 584/426/1 594/413/1 593/412/1
f 565/428/1 583/427/1 593/412/1 595/307/1
f 584/426/1 596/425/1 566/414/1 594/413/1
f 577/421/1 597/420/1 569/415/1 585/410/1
f 597/420/1 567/434/1 598/308/1 569/415/1
f 567/434/1 565/428/1 595/307/1 598/308/1
f 599/435/1 578/424/1 586/303/1 570/298/1
f 600/429/1 599/435/1 570/298/1 568/299/1
f 596/425/1 600/429/1 568/299/1 566/414/1
f 579/418/3 601/423/3 575/416/3 587/411/3
f 601/423/3 602/422/3 573/417/3 575/416/3
f 602/422/3 571/432/3 591/306/3 573/417/3
f 576/436/3 580/419/3 588/309/3 603/304/3
f 604/437/3 576/436/3 603/304/3 574/300/3
f 592/433/3 604/437/3 574/300/3 572/301/3
f 571/432/4 602/422/4 613/422/4 611/432/4
f 567/434/2 597/420/2 609/420/2 607/434/2
f 582/431/5 581/430/5 621/430/5 622/431/5
f 580/419/2 576/436/2 616/436/2 620/419/2
f 565/428/2 567/434/2 607/434/2 605/428/2
f 581/430/4 571/432/4 611/432/4 621/430/4
f 576/436/2 604/437/2 614/437/2 616/436/2
f 578/424/4 599/435/4 610/435/4 618/424/4
f 592/433/2 582/431/2 622/431/2 612/433/2
f 604/437/2 592/433/2 612/433/2 614/437/2
f 599/435/4 600/429/4 608/429/4 610/435/4
f 584/426/5 583/427/5 623/427/5 624/426/5
usemtl M_Gris_Metal
f 408/145/3 409/131/3 67/130/3 239/144/3
f 406/146/1 407/68/1 62/69/1 180/134/1
f 410/158/1 411/81/1 59/121/1 184/159/1
f 232/150/3 66/129/3 405/128/3 412/160/3
f 448/161/3 419/162/3 109/163/3 247/164/3
f 247/164/11 109/163/11 289/163/11 304/164/11
f 251/165/3 108/166/3 418/167/3 451/168/3
f 436/186/1 427/187/1 152/188/1 195/189/1
f 253/190/2 254/191/2 291/191/2 309/190/2
f 199/192/1 151/193/1 426/194/1 439/195/1
f 147/198/1 202/213/1 429/214/1 424/196/1
f 202/213/1 201/215/1 441/216/1 429/214/1
f 201/215/1 200/217/1 440/218/1 441/216/1
f 200/217/1 199/192/1 439/195/1 440/218/1
f 199/192/4 200/217/4 302/217/4 301/192/4
f 252/219/2 253/190/2 309/190/2 308/219/2
f 151/193/11 199/192/11 301/192/11 294/193/11
f 423/202/1 428/220/1 198/221/1 146/200/1
f 428/220/1 438/222/1 197/223/1 198/221/1
f 438/222/1 437/224/1 196/225/1 197/223/1
f 437/224/1 436/186/1 195/189/1 196/225/1
f 399/119/1 433/226/1 181/148/1 58/120/1
f 433/226/1 434/227/1 182/228/1 181/148/1
f 434/227/1 435/229/1 183/230/1 182/228/1
f 435/229/1 410/158/1 184/159/1 183/230/1
f 401/122/1 430/235/1 177/157/1 61/123/1
f 430/235/1 431/236/1 178/233/1 177/157/1
f 431/236/1 432/237/1 179/231/1 178/233/1
f 432/237/1 406/146/1 180/134/1 179/231/1
f 106/175/3 254/191/3 421/244/3 416/173/3
f 254/191/3 253/190/3 453/245/3 421/244/3
f 253/190/3 252/219/3 452/246/3 453/245/3
f 252/219/3 251/165/3 451/168/3 452/246/3
f 251/165/2 252/219/2 308/219/2 307/165/2
f 198/221/2 197/223/2 300/223/2 296/221/2
f 415/179/3 420/247/3 250/248/3 105/177/3
f 420/247/3 450/249/3 249/250/3 250/248/3
f 450/249/3 449/251/3 248/252/3 249/250/3
f 449/251/3 448/161/3 247/164/3 248/252/3
f 64/124/3 235/140/3 445/253/3 413/125/3
f 235/140/3 234/254/3 446/255/3 445/253/3
f 234/254/3 233/256/3 447/257/3 446/255/3
f 233/256/3 232/150/3 412/160/3 447/257/3
f 403/126/3 442/264/3 236/155/3 65/127/3
f 442/264/3 443/265/3 237/261/3 236/155/3
f 443/265/3 444/266/3 238/259/3 237/261/3
f 444/266/3 408/145/3 239/144/3 238/259/3
f 200/217/4 201/215/4 303/215/4 302/217/4
f 248/252/4 247/164/4 304/164/4 305/252/4
f 201/215/4 202/213/4 297/213/4 303/215/4
f 105/177/4 250/248/4 290/248/4 286/177/4
f 195/189/14 152/188/14 295/188/14 298/189/14
f 249/250/4 248/252/4 305/252/4 306/250/4
f 254/191/2 106/175/2 287/175/2 291/191/2
f 146/200/2 198/221/2 296/221/2 292/200/2
f 196/225/2 195/189/2 298/189/2 299/225/2
f 250/248/4 249/250/4 306/250/4 290/248/4
f 202/213/4 147/198/4 293/198/4 297/213/4
f 197/223/2 196/225/2 299/225/2 300/223/2
f 108/166/14 251/165/14 307/165/14 288/166/14
f 148/338/1 57/339/1 399/119/1 398/132/1
f 455/340/1 60/341/1 401/122/1 400/212/1
f 107/342/3 477/343/3 403/126/3 402/171/3
f 465/344/3 478/345/3 405/128/3 404/143/3
f 461/346/1 63/347/1 407/68/1 406/146/1
f 476/348/3 479/349/3 409/131/3 408/145/3
f 188/350/1 480/351/1 411/81/1 410/158/1
f 478/345/3 472/352/3 412/160/3 405/128/3
f 481/353/3 104/354/3 414/151/3 413/125/3
f 104/354/3 482/355/3 415/179/3 414/151/3
f 483/356/3 107/342/3 402/171/3 416/173/3
f 479/349/3 466/357/3 417/153/3 409/131/3
f 466/357/3 484/358/3 418/167/3 417/153/3
f 485/359/3 465/344/3 404/143/3 419/162/3
f 482/355/3 468/360/3 420/247/3 415/179/3
f 467/361/3 483/356/3 416/173/3 421/244/3
f 63/347/1 454/362/1 422/156/1 407/68/1
f 454/362/1 486/363/1 423/202/1 422/156/1
f 487/364/1 148/338/1 398/132/1 424/196/1
f 480/351/1 149/365/1 425/80/1 411/81/1
f 149/365/1 150/366/1 426/194/1 425/80/1
f 488/367/1 455/340/1 400/212/1 427/187/1
f 486/363/1 459/368/1 428/220/1 423/202/1
f 203/369/1 487/364/1 424/196/1 429/214/1
f 60/341/1 185/370/1 430/235/1 401/122/1
f 185/370/1 463/371/1 431/236/1 430/235/1
f 463/371/1 462/372/1 432/237/1 431/236/1
f 462/372/1 461/346/1 406/146/1 432/237/1
f 57/339/1 464/373/1 433/226/1 399/119/1
f 464/373/1 186/374/1 434/227/1 433/226/1
f 186/374/1 187/375/1 435/229/1 434/227/1
f 187/375/1 188/350/1 410/158/1 435/229/1
f 460/376/1 488/367/1 427/187/1 436/186/1
f 193/377/1 460/376/1 436/186/1 437/224/1
f 194/378/1 193/377/1 437/224/1 438/222/1
f 459/368/1 194/378/1 438/222/1 428/220/1
f 150/366/1 458/379/1 439/195/1 426/194/1
f 458/379/1 457/380/1 440/218/1 439/195/1
f 457/380/1 456/381/1 441/216/1 440/218/1
f 456/381/1 203/369/1 429/214/1 441/216/1
f 477/343/3 473/382/3 442/264/3 403/126/3
f 473/382/3 474/383/3 443/265/3 442/264/3
f 474/383/3 475/384/3 444/266/3 443/265/3
f 475/384/3 476/348/3 408/145/3 444/266/3
f 470/385/3 481/353/3 413/125/3 445/253/3
f 471/386/3 470/385/3 445/253/3 446/255/3
f 240/387/3 471/386/3 446/255/3 447/257/3
f 472/352/3 240/387/3 447/257/3 412/160/3
f 245/388/3 485/359/3 419/162/3 448/161/3
f 246/389/3 245/388/3 448/161/3 449/251/3
f 469/390/3 246/389/3 449/251/3 450/249/3
f 468/360/3 469/390/3 450/249/3 420/247/3
f 484/358/3 255/391/3 451/168/3 418/167/3
f 255/391/3 256/392/3 452/246/3 451/168/3
f 256/392/3 257/393/3 453/245/3 452/246/3
f 257/393/3 467/361/3 421/244/3 453/245/3
f 185/370/15 60/341/15 530/341/15 500/370/15
f 246/389/16 469/390/16 518/390/16 519/389/16
f 487/364/15 203/369/15 489/369/15 542/364/15
f 245/388/16 246/389/16 519/389/16 520/388/16
f 459/368/17 486/363/17 541/363/17 493/368/17
f 485/359/16 245/388/16 520/388/16 540/359/16
f 455/340/18 488/367/18 544/367/18 207/340/18
f 240/387/19 472/352/19 524/352/19 523/387/19
f 150/366/18 149/365/18 192/365/18 543/366/18
f 471/386/19 240/387/19 523/387/19 522/386/19
f 149/365/18 480/351/18 535/351/18 192/365/18
f 470/385/19 471/386/19 522/386/19 521/385/19
f 148/338/20 487/364/20 542/364/20 241/338/20
f 481/353/19 470/385/19 521/385/19 536/353/19
f 486/363/20 454/362/20 243/362/20 541/363/20
f 476/348/16 475/384/16 527/384/16 528/348/16
f 454/362/20 63/347/20 533/347/20 243/362/20
f 475/384/16 474/383/16 526/383/16 527/384/16
f 483/356/19 467/361/19 513/361/19 538/356/19
f 474/383/16 473/382/16 525/382/16 526/383/16
f 468/360/16 482/355/16 537/355/16 517/360/16
f 473/382/16 477/343/16 531/343/16 525/382/16
f 465/344/21 485/359/21 540/359/21 505/344/21
f 203/369/15 456/381/15 490/381/15 489/369/15
f 484/358/21 466/357/21 509/357/21 539/358/21
f 456/381/15 457/380/15 491/380/15 490/381/15
f 466/357/21 479/349/21 534/349/21 509/357/21
f 457/380/15 458/379/15 492/379/15 491/380/15
f 107/342/22 483/356/22 538/356/22 258/342/22
f 458/379/15 150/366/15 543/366/15 492/379/15
f 482/355/22 104/354/22 260/354/22 537/355/22
f 194/378/17 459/368/17 493/368/17 494/378/17
f 104/354/22 481/353/22 536/353/22 260/354/22
f 193/377/17 194/378/17 494/378/17 495/377/17
f 472/352/19 478/345/19 532/345/19 524/352/19
f 460/376/17 193/377/17 495/377/17 496/376/17
f 480/351/17 188/350/17 504/350/17 535/351/17
f 488/367/17 460/376/17 496/376/17 544/367/17
f 479/349/16 476/348/16 528/348/16 534/349/16
f 188/350/17 187/375/17 503/375/17 504/350/17
f 510/394/3 509/357/3 534/349/3 528/348/3
f 191/395/1 192/365/1 535/351/1 504/350/1
f 524/352/3 532/345/3 505/344/3 506/396/3
f 506/396/3 505/344/3 540/359/3 520/388/3
f 516/391/3 539/358/3 509/357/3 510/394/3
f 500/370/1 530/341/1 207/340/1 206/397/1
f 206/397/1 207/340/1 544/367/1 496/376/1
f 492/379/1 543/366/1 192/365/1 191/395/1
f 542/364/1 489/369/1 242/398/1 241/338/1
f 489/369/1 490/381/1 189/399/1 242/398/1
f 490/381/1 491/380/1 190/400/1 189/399/1
f 491/380/1 492/379/1 191/395/1 190/400/1
f 243/362/1 244/401/1 493/368/1 541/363/1
f 244/401/1 204/402/1 494/378/1 493/368/1
f 204/402/1 205/403/1 495/377/1 494/378/1
f 205/403/1 206/397/1 496/376/1 495/377/1
f 533/347/1 497/346/1 244/401/1 243/362/1
f 497/346/1 498/372/1 204/402/1 244/401/1
f 498/372/1 499/371/1 205/403/1 204/402/1
f 499/371/1 500/370/1 206/397/1 205/403/1
f 241/338/1 242/398/1 501/373/1 529/339/1
f 242/398/1 189/399/1 502/374/1 501/373/1
f 189/399/1 190/400/1 503/375/1 502/374/1
f 190/400/1 191/395/1 504/350/1 503/375/1
f 538/356/3 513/361/3 259/404/3 258/342/3
f 513/361/3 514/393/3 512/405/3 259/404/3
f 514/393/3 515/392/3 511/406/3 512/405/3
f 515/392/3 516/391/3 510/394/3 511/406/3
f 260/354/3 261/407/3 517/360/3 537/355/3
f 261/407/3 508/408/3 518/390/3 517/360/3
f 508/408/3 507/409/3 519/389/3 518/390/3
f 507/409/3 506/396/3 520/388/3 519/389/3
f 536/353/3 521/385/3 261/407/3 260/354/3
f 521/385/3 522/386/3 508/408/3 261/407/3
f 522/386/3 523/387/3 507/409/3 508/408/3
f 523/387/3 524/352/3 506/396/3 507/409/3
f 258/342/3 259/404/3 525/382/3 531/343/3
f 259/404/3 512/405/3 526/383/3 525/382/3
f 512/405/3 511/406/3 527/384/3 526/383/3
f 511/406/3 510/394/3 528/348/3 527/384/3
f 469/390/16 468/360/16 517/360/16 518/390/16
f 463/371/15 185/370/15 500/370/15 499/371/15
f 255/391/19 484/358/19 539/358/19 516/391/19
f 462/372/15 463/371/15 499/371/15 498/372/15
f 57/339/20 148/338/20 241/338/20 529/339/20
f 256/392/19 255/391/19 516/391/19 515/392/19
f 461/346/15 462/372/15 498/372/15 497/346/15
f 60/341/18 455/340/18 207/340/18 530/341/18
f 257/393/19 256/392/19 515/392/19 514/393/19
f 464/373/17 57/339/17 529/339/17 501/373/17
f 477/343/22 107/342/22 258/342/22 531/343/22
f 467/361/19 257/393/19 514/393/19 513/361/19
f 186/374/17 464/373/17 501/373/17 502/374/17
f 478/345/21 465/344/21 505/344/21 532/345/21
f 187/375/17 186/374/17 502/374/17 503/375/17
f 63/347/15 461/346/15 497/346/15 533/347/15
usemtl M_Orange
f 392/334/3 395/335/3 394/330/3 393/331/3
f 390/333/1 397/337/1 396/336/1 391/332/1
usemtl M_Cyan
f 623/427/1 605/428/1 606/425/1 624/426/1
f 605/428/1 607/434/1 608/429/1 606/425/1
f 607/434/1 609/420/1 610/435/1 608/429/1
f 609/420/1 617/421/1 618/424/1 610/435/1
f 621/430/3 611/432/3 612/433/3 622/431/3
f 611/432/3 613/422/3 614/437/3 612/433/3
f 613/422/3 615/423/3 616/436/3 614/437/3
f 615/423/3 619/418/3 620/419/3 616/436/3
