# Blender 4.2.3 LTS
# www.blender.org
mtllib SM_Door_Single_V2.mtl
o SM_Door_Single_V2
v -0.044514 1.674129 0.305530
v -0.044514 1.589764 0.389895
v -0.044514 1.733784 0.449550
v -0.044514 0.085666 -0.305530
v -0.044514 0.170031 -0.389895
v -0.044514 0.026011 -0.449550
v -0.044514 1.589764 -0.389895
v -0.044514 1.674129 -0.305530
v -0.044514 1.733784 -0.449550
v 0.044514 0.085666 0.305530
v 0.044514 0.170031 0.389895
v 0.044514 0.026011 0.449550
v 0.044514 1.674129 -0.305530
v 0.044514 1.589764 -0.389895
v 0.044514 1.733784 -0.449550
v -0.044514 0.170031 0.389895
v -0.044514 0.085666 0.305530
v -0.044514 0.026011 0.449550
v 0.044514 1.589764 0.389895
v 0.044514 1.674129 0.305530
v 0.044514 1.733784 0.449550
v 0.044514 0.170031 -0.389895
v 0.044514 0.085666 -0.305530
v 0.044514 0.026011 -0.449550
v -0.019321 1.584715 0.377706
v -0.019321 1.661940 0.300481
v -0.019321 1.661940 -0.300481
v -0.019321 1.584715 -0.377706
v -0.019321 0.175080 -0.377706
v -0.019321 0.097855 -0.300481
v -0.019321 0.097855 0.300481
v -0.019321 0.175080 0.377706
v 0.019321 1.584715 -0.377706
v 0.019321 1.661940 -0.300481
v 0.019321 0.097855 -0.300481
v 0.019321 0.175080 -0.377706
v 0.019321 0.175080 0.377706
v 0.019321 0.097855 0.300481
v 0.019321 1.661940 0.300481
v 0.019321 1.584715 0.377706
v -0.019321 0.170031 0.389895
v -0.019321 0.085666 0.305530
v -0.019321 0.085666 -0.305530
v -0.019321 0.170031 -0.389895
v -0.019321 1.589764 -0.389895
v -0.019321 1.674129 -0.305530
v -0.019321 1.674129 0.305530
v -0.019321 1.589764 0.389895
v 0.019321 0.085666 0.305530
v 0.019321 0.170031 0.389895
v 0.019321 1.589764 0.389895
v 0.019321 1.674129 0.305530
v 0.019321 0.170031 -0.389895
v 0.019321 0.085666 -0.305530
v 0.019321 1.674129 -0.305530
v 0.019321 1.589764 -0.389895
v -0.045074 0.097855 0.300481
v -0.045074 0.097855 -0.300481
v -0.045074 0.218228 -0.334557
v -0.045074 1.541567 -0.334557
v -0.045074 1.661940 -0.300481
v -0.045074 1.661940 0.300481
v -0.045074 1.541567 0.334557
v 0.045074 0.097855 0.300481
v 0.045074 1.661940 0.300481
v 0.045074 0.218228 -0.334557
v 0.045074 0.097855 -0.300481
v 0.045074 1.661940 -0.300481
v 0.044514 0.372850 0.389895
v 0.044514 0.575669 0.389895
v 0.044514 0.778488 0.389895
v 0.044514 0.981307 0.389895
v 0.044514 1.184126 0.389895
v 0.044514 1.386945 0.389895
v 0.019321 0.372850 0.389895
v 0.019321 0.575669 0.389895
v 0.019321 0.778488 0.389895
v 0.019321 0.981307 0.389895
v 0.019321 1.184126 0.389895
v 0.019321 1.386945 0.389895
v 0.044514 0.372850 -0.389895
v 0.044514 0.575669 -0.389895
v 0.044514 0.778488 -0.389895
v 0.044514 0.981307 -0.389895
v 0.044514 1.184126 -0.389895
v 0.044514 1.386945 -0.389895
v 0.019321 1.386945 -0.389895
v 0.019321 1.184126 -0.389895
v 0.019321 0.981307 -0.389895
v 0.019321 0.778488 -0.389895
v 0.019321 0.575669 -0.389895
v 0.019321 0.372850 -0.389895
v 0.019321 0.376456 0.377706
v 0.019321 0.577833 0.377706
v 0.019321 0.779209 0.377706
v 0.019321 0.980586 0.377706
v 0.019321 1.181962 0.377706
v 0.019321 1.383339 0.377706
v 0.019321 1.383339 -0.377706
v 0.019321 1.181962 -0.377706
v 0.019321 0.980586 -0.377706
v 0.019321 0.779209 -0.377706
v 0.019321 0.577833 -0.377706
v 0.019321 0.376456 -0.377706
v 0.045074 0.376456 0.334557
v 0.045074 0.577833 0.334557
v 0.045074 0.980586 0.377706
v 0.045074 1.181962 0.377706
v 0.045074 1.383339 -0.377706
v 0.045074 0.965415 -0.362535
v 0.045074 0.376456 -0.334557
v -0.044514 0.372850 0.389895
v -0.044514 0.575669 0.389895
v -0.044514 0.778488 0.389895
v -0.044514 0.981307 0.389895
v -0.044514 1.184126 0.389895
v -0.044514 1.386945 0.389895
v -0.019321 1.386945 0.389895
v -0.019321 1.184126 0.389895
v -0.019321 0.981307 0.389895
v -0.019321 0.778488 0.389895
v -0.019321 0.575669 0.389895
v -0.019321 0.372850 0.389895
v -0.044514 1.386945 -0.389895
v -0.044514 1.184126 -0.389895
v -0.044514 0.981307 -0.389895
v -0.044514 0.778488 -0.389895
v -0.044514 0.575669 -0.389895
v -0.044514 0.372850 -0.389895
v -0.019321 0.372850 -0.389895
v -0.019321 0.575669 -0.389895
v -0.019321 0.778488 -0.389895
v -0.019321 0.981307 -0.389895
v -0.019321 1.184126 -0.389895
v -0.019321 1.386945 -0.389895
v -0.019321 1.383339 0.377706
v -0.019321 1.181962 0.377706
v -0.019321 0.980586 0.377706
v -0.019321 0.779209 0.377706
v -0.019321 0.577833 0.377706
v -0.019321 0.376456 0.377706
v -0.019321 0.376456 -0.377706
v -0.019321 0.577833 -0.377706
v -0.019321 0.779209 -0.377706
v -0.019321 0.980586 -0.377706
v -0.019321 1.181962 -0.377706
v -0.019321 1.383339 -0.377706
v -0.045074 1.383339 0.334557
v -0.045074 1.181962 0.334557
v -0.045074 1.023734 0.334557
v -0.045074 0.376456 0.334557
v -0.045074 0.376456 -0.334557
v -0.045074 0.577833 -0.334557
v -0.045074 0.965415 -0.362535
v -0.045074 1.181962 -0.334557
v -0.045074 1.383339 -0.334557
v -0.044514 1.674129 -0.183318
v -0.044514 1.674129 -0.061106
v -0.044514 1.674129 0.061106
v -0.044514 1.674129 0.183318
v -0.019321 1.674129 -0.183318
v -0.019321 1.674129 -0.061106
v -0.019321 1.674129 0.061106
v -0.019321 1.674129 0.183318
v -0.044514 0.085666 -0.183318
v -0.044514 0.085666 -0.061106
v -0.044514 0.085666 0.061106
v -0.044514 0.085666 0.183318
v -0.019321 0.085666 0.183318
v -0.019321 0.085666 0.061106
v -0.019321 0.085666 -0.061106
v -0.019321 0.085666 -0.183318
v -0.019321 1.661940 -0.180289
v -0.019321 1.661940 -0.060096
v -0.019321 1.661940 0.060096
v -0.019321 1.661940 0.180289
v -0.019321 0.097855 0.180289
v -0.019321 0.097855 0.060096
v -0.019321 0.097855 -0.060096
v -0.019321 0.097855 -0.180289
v -0.045074 1.661940 -0.180289
v -0.045074 1.661940 -0.060096
v -0.045074 1.661940 0.060096
v -0.045074 1.661940 0.180289
v -0.045074 0.097855 0.180289
v -0.045074 0.097855 0.060096
v -0.045074 0.097855 -0.060096
v -0.045074 0.097855 -0.180289
v -0.045074 1.541567 -0.226623
v -0.045074 1.541567 -0.075541
v -0.045074 1.541567 0.226623
v -0.045074 0.218228 0.075541
v -0.045074 0.965415 -0.226623
v -0.045074 0.965415 -0.090712
v -0.045074 0.794380 -0.226623
v -0.045074 0.794380 -0.090712
v -0.045074 0.736061 0.226623
v 0.044514 0.085666 0.183318
v 0.044514 0.085666 0.061106
v 0.044514 0.085666 -0.061106
v 0.044514 0.085666 -0.183318
v 0.019321 0.085666 -0.183318
v 0.019321 0.085666 -0.061106
v 0.019321 0.085666 0.061106
v 0.019321 0.085666 0.183318
v 0.044514 1.674129 -0.183318
v 0.044514 1.674129 -0.061106
v 0.044514 1.674129 0.061106
v 0.044514 1.674129 0.183318
v 0.019321 1.674129 0.183318
v 0.019321 1.674129 0.061106
v 0.019321 1.674129 -0.061106
v 0.019321 1.674129 -0.183318
v 0.019321 0.097855 -0.180289
v 0.019321 0.097855 -0.060096
v 0.019321 0.097855 0.060096
v 0.019321 0.097855 0.180289
v 0.019321 1.661940 0.180289
v 0.019321 1.661940 0.060096
v 0.019321 1.661940 -0.060096
v 0.019321 1.661940 -0.180289
v 0.045074 0.097855 -0.180289
v 0.045074 0.097855 -0.060096
v 0.045074 0.097855 0.060096
v 0.045074 0.097855 0.180289
v 0.045074 1.661940 0.180289
v 0.045074 1.661940 0.060096
v 0.045074 1.661940 -0.060096
v 0.045074 1.661940 -0.180289
v 0.045074 1.584715 0.226623
v 0.045074 0.218228 -0.075541
v 0.045074 0.965415 -0.226623
v 0.045074 0.965415 -0.090712
v 0.045074 0.980586 0.226623
v 0.045074 0.736061 -0.334557
v -0.045074 0.736061 -0.075541
v 0.045074 0.736061 -0.075541
v 0.045074 0.980586 -0.226623
v 0.045074 0.980586 -0.075541
v -0.023835 0.965415 -0.226623
v -0.023835 0.794380 -0.226623
v 0.023835 0.794380 -0.226623
v 0.023835 0.965415 -0.226623
v 0.023835 0.958896 -0.356017
v 0.023835 0.800898 -0.356017
v -0.023835 0.800898 -0.356017
v -0.023835 0.958897 -0.356017
v -0.023835 0.958897 -0.220875
v -0.023835 0.800898 -0.220875
v 0.023835 0.800898 -0.220875
v 0.023835 0.958896 -0.220875
v 0.023835 0.965415 -0.362535
v 0.023835 0.794380 -0.362535
v -0.023835 0.794380 -0.362535
v -0.023835 0.965415 -0.362535
v -0.023835 0.958897 -0.226623
v -0.023835 0.965415 -0.214356
v -0.023835 0.800898 -0.226623
v -0.023835 0.794380 -0.214356
v 0.023835 0.800898 -0.226623
v 0.023835 0.794380 -0.214356
v 0.023835 0.958896 -0.226623
v 0.023835 0.965415 -0.214356
v 0.017123 0.952187 -0.349307
v 0.017123 0.807608 -0.349307
v -0.017123 0.807608 -0.349307
v -0.017123 0.952187 -0.349307
v -0.017123 0.952187 -0.227585
v -0.017123 0.807608 -0.227585
v 0.017123 0.807608 -0.227585
v 0.017123 0.952187 -0.227585
v 0.017123 0.958896 -0.356017
v 0.017123 0.800898 -0.356017
v -0.017123 0.800898 -0.356017
v -0.017123 0.958897 -0.356017
v -0.017123 0.958897 -0.220875
v -0.017123 0.800898 -0.220875
v 0.017123 0.800898 -0.220875
v 0.017123 0.958896 -0.220875
v 0.024652 0.940228 -0.337348
v 0.024652 0.819567 -0.337348
v -0.024652 0.819567 -0.337348
v -0.024652 0.940228 -0.337348
v -0.024652 0.940228 -0.239543
v -0.024652 0.819567 -0.239543
v 0.024652 0.819567 -0.239543
v 0.024652 0.940228 -0.239543
v 0.024652 0.952187 -0.349307
v 0.024652 0.807608 -0.349307
v -0.024652 0.807608 -0.349307
v -0.024652 0.952187 -0.349307
v -0.024652 0.952187 -0.227585
v -0.024652 0.807608 -0.227585
v 0.024652 0.807608 -0.227585
v 0.024652 0.952187 -0.227585
v 0.019933 0.921862 -0.321188
v 0.019933 0.837933 -0.321188
v -0.019933 0.837933 -0.321188
v -0.019933 0.921862 -0.321188
v -0.019933 0.921862 -0.297732
v -0.019933 0.837933 -0.297732
v 0.019933 0.837933 -0.297732
v 0.019933 0.921862 -0.297732
v 0.019933 0.925939 -0.325765
v 0.019933 0.833856 -0.325765
v -0.019933 0.833856 -0.325765
v -0.019933 0.925939 -0.325765
v -0.019933 0.925939 -0.251126
v -0.019933 0.833856 -0.251126
v 0.019933 0.833856 -0.251126
v 0.019933 0.925939 -0.251126
v 0.017482 0.921862 -0.321188
v 0.017482 0.837933 -0.321188
v -0.017482 0.837933 -0.321188
v -0.017482 0.921862 -0.321188
v -0.017482 0.921862 -0.297732
v -0.017482 0.837933 -0.297732
v 0.017482 0.837933 -0.297732
v 0.017482 0.921862 -0.297732
v 0.045074 0.977995 -0.375116
v 0.045074 0.781799 -0.375116
v -0.045074 0.781799 -0.375116
v -0.045074 0.977996 -0.375116
v -0.045074 0.977996 -0.226623
v -0.045074 0.977996 -0.078131
v -0.045074 0.781799 -0.226623
v -0.045074 0.781799 -0.078131
v 0.045074 0.781799 -0.226623
v 0.045074 0.781799 -0.078131
v 0.045074 0.977995 -0.226623
v 0.045074 0.977996 -0.078131
v 0.045074 0.968005 -0.365125
v 0.045074 0.791790 -0.365125
v -0.045074 0.791790 -0.365125
v -0.045074 0.968005 -0.365125
v -0.045074 0.968005 -0.226623
v -0.045074 0.968005 -0.088122
v -0.045074 0.791790 -0.226623
v -0.045074 0.791790 -0.088122
v 0.045074 0.791790 -0.226623
v 0.045074 0.791790 -0.088122
v 0.045074 0.968005 -0.226623
v 0.045074 0.968005 -0.088122
v 0.045074 0.980586 -0.377706
v -0.045074 0.779209 -0.377706
v -0.045074 0.980586 -0.377706
v -0.045074 0.980586 -0.226623
v -0.045074 0.779209 -0.075541
v 0.045074 0.779209 -0.226623
v 0.045074 0.794380 -0.362535
v -0.045074 0.794380 -0.362535
v 0.045074 0.794380 -0.226623
v 0.045074 0.794380 -0.090712
v 0.044190 0.977995 -0.375116
v 0.044190 0.968005 -0.365125
v 0.044190 0.791790 -0.365125
v 0.044190 0.781799 -0.375116
v -0.044190 0.781799 -0.375116
v -0.044190 0.791790 -0.365125
v -0.044190 0.968005 -0.365125
v -0.044190 0.977996 -0.375116
v -0.044190 0.968005 -0.226623
v -0.044190 0.977996 -0.226623
v -0.044190 0.968005 -0.088122
v -0.044190 0.977996 -0.078131
v -0.044190 0.781799 -0.226623
v -0.044190 0.791790 -0.226623
v -0.044190 0.781799 -0.078131
v -0.044190 0.791790 -0.088122
v 0.044190 0.791790 -0.226623
v 0.044190 0.781799 -0.226623
v 0.044190 0.791790 -0.088122
v 0.044190 0.781799 -0.078131
v 0.044190 0.977995 -0.226623
v 0.044190 0.968005 -0.226623
v 0.044190 0.977996 -0.078131
v 0.044190 0.968005 -0.088122
v 0.045074 1.541567 0.334557
v 0.045074 1.181962 0.334557
v 0.045074 1.181962 -0.334557
v 0.045074 1.023734 -0.334557
v 0.045074 1.541567 -0.075541
v 0.045074 1.023734 0.075541
v -0.045074 0.376456 0.377706
v -0.045074 0.175080 0.377706
v -0.045074 1.383339 -0.377706
v -0.045074 1.584715 -0.377706
v 0.045074 0.376456 -0.377706
v 0.045074 0.175080 -0.377706
v -0.045074 1.584715 0.226623
v -0.045074 1.584715 0.377706
v -0.045074 0.175080 -0.226623
v -0.045074 0.175080 -0.377706
v 0.045074 0.175080 -0.226623
v 0.045074 0.175080 0.377706
v 0.045074 0.376456 0.377706
v 0.045074 0.577833 0.377706
v 0.045074 0.779209 0.377706
v 0.045074 0.779209 -0.377706
v 0.045074 0.577833 -0.377706
v 0.045074 0.779209 0.226623
v -0.045074 1.383339 0.377706
v -0.045074 1.181962 0.377706
v -0.045074 0.980586 0.377706
v -0.045074 0.779209 0.377706
v -0.045074 0.577833 0.377706
v -0.045074 0.376456 -0.377706
v -0.045074 0.577833 -0.377706
v -0.045074 1.181962 -0.377706
v -0.045074 0.980586 0.226623
v -0.045074 0.779209 0.226623
v -0.045074 1.584715 -0.226623
v -0.045074 1.584715 -0.075541
v -0.045074 1.584715 0.075541
v -0.045074 0.175080 0.226623
v -0.045074 0.175080 0.075541
v -0.045074 0.175080 -0.075541
v -0.045074 0.980586 -0.075541
v -0.045074 0.980586 0.075541
v -0.045074 0.779209 -0.226623
v -0.045074 0.779209 0.075541
v 0.045074 0.175080 0.226623
v 0.045074 0.175080 0.075541
v 0.045074 0.175080 -0.075541
v 0.045074 0.779209 -0.075541
v 0.045074 0.779209 0.075541
v 0.045074 1.383339 0.377706
v 0.045074 1.584715 0.377706
v 0.045074 1.584715 -0.226623
v 0.045074 1.584715 -0.377706
v 0.045074 1.181962 -0.377706
v 0.045074 1.584715 0.075541
v 0.045074 1.584715 -0.075541
v 0.045074 0.980586 0.075541
v 0.045074 0.376456 -0.356131
v 0.045074 0.196654 -0.356131
v 0.045074 0.196654 -0.226623
v 0.045074 0.196654 0.356131
v 0.045074 0.376456 0.356131
v 0.045074 0.577833 0.356131
v 0.045074 0.757635 0.356131
v 0.045074 0.757635 -0.356131
v 0.045074 0.577833 -0.356131
v 0.045074 0.757635 0.226623
v 0.045074 0.196654 0.226623
v 0.045074 0.196654 0.075541
v 0.045074 0.196654 -0.075541
v 0.045074 0.757635 -0.226623
v 0.045074 0.757635 -0.075541
v 0.045074 0.757635 0.075541
v 0.045074 1.383339 0.356131
v 0.045074 1.563141 0.356131
v 0.045074 1.563141 -0.226623
v 0.045074 1.563141 -0.356131
v 0.045074 1.002160 0.356131
v 0.045074 1.181962 0.356131
v 0.045074 1.383339 -0.356131
v 0.045074 1.181962 -0.356131
v 0.045074 1.002160 -0.356131
v 0.045074 1.002160 0.226623
v 0.045074 1.563141 0.226623
v 0.045074 1.563141 0.075541
v 0.045074 1.563141 -0.075541
v 0.045074 1.002160 -0.226623
v 0.045074 1.002160 -0.075541
v 0.045074 1.002160 0.075541
v -0.045074 0.376456 0.356131
v -0.045074 0.196654 0.356131
v -0.045074 0.196654 -0.226623
v -0.045074 0.196654 -0.356131
v -0.045074 0.757635 0.356131
v -0.045074 0.577833 0.356131
v -0.045074 0.376456 -0.356131
v -0.045074 0.577833 -0.356131
v -0.045074 0.757635 -0.356131
v -0.045074 0.757635 0.226623
v -0.045074 0.196654 0.226623
v -0.045074 0.196654 0.075541
v -0.045074 0.196654 -0.075541
v -0.045074 0.757635 -0.226623
v -0.045074 0.757635 -0.075541
v -0.045074 0.757635 0.075541
v -0.045074 1.383339 -0.356131
v -0.045074 1.563141 -0.356131
v -0.045074 1.563141 0.226623
v -0.045074 1.563141 0.356131
v -0.045074 1.383339 0.356131
v -0.045074 1.181962 0.356131
v -0.045074 1.002160 0.356131
v -0.045074 1.002160 -0.356131
v -0.045074 1.181962 -0.356131
v -0.045074 1.002160 0.226623
v -0.045074 1.563141 -0.226623
v -0.045074 1.563141 -0.075541
v -0.045074 1.563141 0.075541
v -0.045074 1.002160 -0.226623
v -0.045074 1.002160 -0.075541
v -0.045074 1.002160 0.075541
v -0.024039 0.376456 0.334557
v -0.024039 0.736061 0.334557
v 0.024039 0.736061 -0.075541
v -0.024039 0.577833 -0.334557
v 0.024039 0.218228 -0.334557
v 0.024039 0.218228 -0.226623
v -0.024039 0.218228 -0.226623
v 0.024039 0.218228 -0.075541
v -0.024039 0.218228 -0.075541
v -0.024039 0.218228 0.075541
v 0.024039 0.218228 0.226623
v -0.024039 0.218228 0.226623
v 0.024039 0.218228 0.334557
v 0.024039 1.181962 -0.334557
v -0.024039 1.181962 -0.334557
v 0.024039 1.023734 -0.334557
v -0.024039 1.023734 -0.334557
v 0.024039 1.023734 -0.226623
v -0.024039 1.023734 -0.226623
v -0.024039 1.023734 0.075541
v 0.024039 1.023734 0.226623
v -0.024039 1.023734 0.226623
v 0.024039 1.181962 0.334557
v 0.024039 1.541567 0.334557
v -0.024039 1.541567 0.226623
v -0.024039 1.541567 0.075541
v 0.024039 1.541567 -0.075541
v 0.024039 1.541567 -0.226623
v -0.024039 1.541567 -0.334557
v 0.024039 1.541567 -0.334557
v -0.024039 0.577833 0.334557
v -0.045074 0.577833 0.334557
v -0.045074 0.736061 0.334557
v -0.024039 0.736061 0.226623
v -0.024039 0.736061 0.075541
v -0.045074 0.736061 0.075541
v -0.024039 0.736061 -0.075541
v -0.024039 0.736061 -0.226623
v -0.045074 0.736061 -0.226623
v -0.024039 0.736061 -0.334557
v -0.045074 0.736061 -0.334557
v -0.024039 0.376456 -0.334557
v -0.024039 0.218228 -0.334557
v -0.045074 0.218228 -0.226623
v -0.045074 0.218228 -0.075541
v -0.045074 0.218228 0.226623
v 0.045074 0.218228 0.334557
v -0.024039 1.383339 -0.334557
v -0.045074 1.023734 -0.334557
v -0.045074 1.023734 -0.226623
v -0.024039 1.023734 -0.075541
v -0.045074 1.023734 -0.075541
v -0.045074 1.023734 0.075541
v -0.045074 1.023734 0.226623
v -0.024039 1.023734 0.334557
v -0.024039 1.181962 0.334557
v -0.024039 1.383339 0.334557
v -0.024039 1.541567 0.334557
v -0.045074 1.541567 0.075541
v -0.024039 1.541567 -0.075541
v -0.024039 1.541567 -0.226623
v 0.045074 1.541567 -0.334557
v -0.045074 0.218228 0.334557
v 0.045074 0.218228 -0.226623
v 0.045074 0.736061 0.334557
v 0.045074 0.577833 -0.334557
v 0.045074 0.736061 0.226623
v 0.045074 0.218228 0.226623
v 0.045074 0.218228 0.075541
v 0.045074 0.736061 -0.226623
v 0.045074 0.736061 0.075541
v 0.045074 1.383339 0.334557
v 0.045074 1.541567 -0.226623
v 0.045074 1.023734 0.334557
v 0.045074 1.383339 -0.334557
v 0.045074 1.023734 0.226623
v 0.045074 1.541567 0.226623
v 0.045074 1.541567 0.075541
v 0.045074 1.023734 -0.226623
v 0.045074 1.023734 -0.075541
v 0.024039 0.376456 0.334557
v 0.024039 0.577833 0.334557
v 0.024039 0.736061 0.334557
v 0.024039 0.736061 0.226623
v 0.024039 0.736061 0.075541
v 0.024039 0.736061 -0.226623
v 0.024039 0.736061 -0.334557
v 0.024039 0.577833 -0.334557
v 0.024039 0.376456 -0.334557
v 0.024039 0.218228 0.075541
v -0.024039 0.218228 0.334557
v 0.024039 1.383339 -0.334557
v 0.024039 1.023734 -0.075541
v 0.024039 1.023734 0.075541
v 0.024039 1.023734 0.334557
v 0.024039 1.383339 0.334557
v 0.024039 1.541567 0.226623
v 0.024039 1.541567 0.075541
v -0.024039 0.376456 0.319003
v -0.024039 0.577833 0.319003
v -0.024039 0.720506 0.319003
v -0.024039 0.720506 0.226623
v -0.024039 0.720506 0.075541
v -0.024039 0.720506 -0.075541
v -0.024039 0.720506 -0.226623
v -0.024039 0.720506 -0.319003
v -0.024039 0.577833 -0.319003
v -0.024039 0.376456 -0.319003
v -0.024039 0.233782 -0.319003
v -0.024039 0.233782 -0.226623
v -0.024039 0.233782 -0.075541
v -0.024039 0.233782 0.075541
v -0.024039 0.233782 0.226623
v 0.024039 0.233782 0.319003
v -0.024039 1.383339 -0.319003
v -0.024039 1.181962 -0.319003
v -0.024039 1.039288 -0.319003
v -0.024039 1.039288 -0.226623
v -0.024039 1.039288 -0.075541
v -0.024039 1.039288 0.075541
v -0.024039 1.039288 0.226623
v -0.024039 1.039288 0.319003
v -0.024039 1.181962 0.319003
v -0.024039 1.383339 0.319003
v -0.024039 1.526013 0.319003
v -0.024039 1.526013 0.226623
v -0.024039 1.526013 0.075541
v -0.024039 1.526013 -0.075541
v -0.024039 1.526013 -0.226623
v 0.024039 1.526013 -0.319003
v 0.024039 0.376456 0.319003
v 0.024039 0.577833 0.319003
v 0.024039 0.720506 0.319003
v 0.024039 0.720506 0.226623
v 0.024039 0.720506 0.075541
v 0.024039 0.720506 -0.075541
v 0.024039 0.720506 -0.226623
v 0.024039 0.720506 -0.319003
v 0.024039 0.577833 -0.319003
v 0.024039 0.376456 -0.319003
v 0.024039 0.233782 -0.319003
v 0.024039 0.233782 -0.226623
v 0.024039 0.233782 -0.075541
v 0.024039 0.233782 0.075541
v 0.024039 0.233782 0.226623
v -0.024039 0.233782 0.319003
v 0.024039 1.383339 -0.319003
v 0.024039 1.181962 -0.319003
v 0.024039 1.039288 -0.319003
v 0.024039 1.039288 -0.226623
v 0.024039 1.039288 -0.075541
v 0.024039 1.039288 0.075541
v 0.024039 1.039288 0.226623
v 0.024039 1.039288 0.319003
v 0.024039 1.181962 0.319003
v 0.024039 1.383339 0.319003
v 0.024039 1.526013 0.319003
v 0.024039 1.526013 0.226623
v 0.024039 1.526013 0.075541
v 0.024039 1.526013 -0.075541
v 0.024039 1.526013 -0.226623
v -0.024039 1.526013 -0.319003
v -0.045074 0.376456 0.327714
v -0.036363 0.376456 0.319003
v -0.036363 0.577833 0.319003
v -0.045074 0.577833 0.327714
v -0.045074 0.729217 0.327714
v -0.036363 0.720506 0.319003
v -0.045074 0.729217 0.226623
v -0.036363 0.720506 0.226623
v -0.036363 0.720506 0.075541
v -0.045074 0.729217 0.075541
v -0.036363 0.720506 -0.075541
v -0.045074 0.729217 -0.075541
v -0.036363 0.720506 -0.226623
v -0.045074 0.729217 -0.226623
v -0.036363 0.720506 -0.319003
v -0.045074 0.729217 -0.327714
v -0.036363 0.577833 -0.319003
v -0.045074 0.577833 -0.327714
v -0.036363 0.376456 -0.319003
v -0.045074 0.376456 -0.327714
v -0.036363 0.233782 -0.319003
v -0.045074 0.225072 -0.327714
v -0.045074 0.225072 -0.226623
v -0.036363 0.233782 -0.226623
v -0.036363 0.233782 -0.075541
v -0.045074 0.225072 -0.075541
v -0.036363 0.233782 0.075541
v -0.045074 0.225072 0.075541
v -0.036363 0.233782 0.226623
v -0.045074 0.225072 0.226623
v 0.045074 0.225072 0.327714
v 0.036363 0.233782 0.319003
v -0.045074 1.383339 -0.327714
v -0.036363 1.383339 -0.319003
v -0.036363 1.181962 -0.319003
v -0.045074 1.181962 -0.327714
v -0.045074 1.030578 -0.327714
v -0.036363 1.039288 -0.319003
v -0.045074 1.030578 -0.226623
v -0.036363 1.039288 -0.226623
v -0.045074 1.030578 -0.075541
v -0.036363 1.039288 -0.075541
v -0.045074 1.030578 0.075541
v -0.036363 1.039288 0.075541
v -0.036363 1.039288 0.226623
v -0.045074 1.030578 0.226623
v -0.036363 1.039288 0.319003
v -0.045074 1.030578 0.327714
v -0.036363 1.181962 0.319003
v -0.045074 1.181962 0.327714
v -0.036363 1.383339 0.319003
v -0.045074 1.383339 0.327714
v -0.036363 1.526013 0.319003
v -0.045074 1.534723 0.327714
v -0.045074 1.534723 0.226623
v -0.036363 1.526013 0.226623
v -0.036363 1.526013 0.075541
v -0.045074 1.534723 0.075541
v -0.036363 1.526013 -0.075541
v -0.045074 1.534723 -0.075541
v -0.036363 1.526013 -0.226623
v -0.045074 1.534723 -0.226623
v 0.036363 1.526013 -0.319003
v 0.045074 1.534723 -0.327714
v -0.036363 0.233782 0.319003
v -0.045074 0.225072 0.327714
v -0.036363 1.526013 -0.319003
v -0.045074 1.534723 -0.327714
v 0.045074 0.376456 -0.327714
v 0.036363 0.376456 -0.319003
v 0.036363 0.233782 -0.319003
v 0.045074 0.225072 -0.327714
v 0.036363 0.233782 -0.226623
v 0.045074 0.225072 -0.226623
v 0.036363 0.376456 0.319003
v 0.045074 0.376456 0.327714
v 0.036363 0.577833 0.319003
v 0.045074 0.577833 0.327714
v 0.036363 0.720506 0.319003
v 0.045074 0.729217 0.327714
v 0.045074 0.729217 -0.327714
v 0.036363 0.720506 -0.319003
v 0.036363 0.577833 -0.319003
v 0.045074 0.577833 -0.327714
v 0.036363 0.720506 0.226623
v 0.045074 0.729217 0.226623
v 0.045074 0.225072 0.226623
v 0.036363 0.233782 0.226623
v 0.045074 0.225072 0.075541
v 0.036363 0.233782 0.075541
v 0.045074 0.225072 -0.075541
v 0.036363 0.233782 -0.075541
v 0.045074 0.729217 -0.226623
v 0.036363 0.720506 -0.226623
v 0.045074 0.729217 -0.075541
v 0.036363 0.720506 -0.075541
v 0.045074 0.729217 0.075541
v 0.036363 0.720506 0.075541
v 0.045074 1.383339 0.327714
v 0.036363 1.383339 0.319003
v 0.036363 1.526013 0.319003
v 0.045074 1.534723 0.327714
v 0.045074 1.534723 -0.226623
v 0.036363 1.526013 -0.226623
v 0.045074 1.030578 0.327714
v 0.036363 1.039288 0.319003
v 0.036363 1.181962 0.319003
v 0.045074 1.181962 0.327714
v 0.036363 1.383339 -0.319003
v 0.045074 1.383339 -0.327714
v 0.036363 1.181962 -0.319003
v 0.045074 1.181962 -0.327714
v 0.036363 1.039288 -0.319003
v 0.045074 1.030578 -0.327714
v 0.045074 1.030578 0.226623
v 0.036363 1.039288 0.226623
v 0.036363 1.526013 0.226623
v 0.045074 1.534723 0.226623
v 0.036363 1.526013 0.075541
v 0.045074 1.534723 0.075541
v 0.036363 1.526013 -0.075541
v 0.045074 1.534723 -0.075541
v 0.036363 1.039288 -0.226623
v 0.045074 1.030578 -0.226623
v 0.036363 1.039288 -0.075541
v 0.045074 1.030578 -0.075541
v 0.036363 1.039288 0.075541
v 0.045074 1.030578 0.075541
v -0.044514 1.753897 0.469663
v -0.038616 1.753897 0.475561
v -0.038616 1.759795 0.469663
v -0.038616 1.759795 -0.469663
v -0.038616 1.753897 -0.475561
v -0.044514 1.753897 -0.469663
v -0.038616 0.005898 -0.475561
v -0.038616 0.000000 -0.469663
v -0.044514 0.005898 -0.469663
v -0.038616 0.000000 0.469663
v -0.038616 0.005898 0.475561
v -0.044514 0.005898 0.469663
v 0.038616 1.759795 -0.469663
v 0.044514 1.753897 -0.469663
v 0.038616 1.753897 -0.475561
v 0.038616 0.000000 -0.469663
v 0.038616 0.005898 -0.475561
v 0.044514 0.005898 -0.469663
v 0.044514 0.005898 0.469663
v 0.038616 0.005898 0.475561
v 0.038616 0.000000 0.469663
v 0.038616 1.759795 0.469663
v 0.038616 1.753897 0.475561
v 0.044514 1.753897 0.469663
vn -1.0000 -0.0000 -0.0000
vn -0.0000 -1.0000 -0.0000
vn 1.0000 -0.0000 -0.0000
vn -0.0000 1.0000 -0.0000
vn -0.0000 -0.0000 -1.0000
vn -0.0000 -0.0000 1.0000
vn -0.0000 0.7071 0.7071
vn -0.0000 0.7071 -0.7071
vn -0.0000 -0.7071 0.7071
vn -0.0000 -0.7071 -0.7071
vn 0.9856 -0.0000 -0.1693
vn -0.9856 -0.0000 -0.1693
vn -0.9496 0.3136 -0.0000
vn 0.9496 0.3136 -0.0000
vn -0.9261 -0.0000 0.3773
vn 0.9496 -0.3136 -0.0000
vn -0.9261 -0.0000 -0.3773
vn -0.9496 -0.3136 -0.0000
vn 0.9261 -0.0000 0.3773
vn 0.9261 -0.0000 -0.3773
vn -0.7071 -0.0000 -0.7071
vn -0.7071 -0.0000 0.7071
vn 0.7071 -0.0000 0.7071
vn -0.7071 -0.7071 -0.0000
vn -0.7071 0.7071 -0.0000
vn 0.7071 0.7071 -0.0000
vn 0.7071 -0.0000 -0.7071
vn 0.7071 -0.7071 -0.0000
vn -0.5774 0.5773 0.5773
vn -0.5774 0.5773 -0.5773
vn -0.5774 -0.5773 -0.5774
vn -0.5774 -0.5773 0.5774
vn 0.5774 0.5773 -0.5773
vn 0.5774 -0.5773 -0.5774
vn 0.5774 -0.5773 0.5774
vn 0.5774 0.5773 0.5773
vt 0.378695 0.243163
vt 0.399155 0.227483
vt 0.427968 0.227483
vt 0.456781 0.227483
vt 0.485593 0.227483
vt 0.514406 0.227483
vt 0.543219 0.227483
vt 0.572032 0.227483
vt 0.600845 0.227483
vt 0.621305 0.243163
vt 0.624162 0.248450
vt 0.375838 0.248450
vt 0.141562 0.501550
vt 0.358438 0.501550
vt 0.358438 0.748450
vt 0.141562 0.748450
vt 0.621305 0.506837
vt 0.600845 0.522517
vt 0.572032 0.522517
vt 0.543219 0.522517
vt 0.514406 0.522517
vt 0.485594 0.522517
vt 0.456781 0.522517
vt 0.427968 0.522517
vt 0.399155 0.522517
vt 0.378695 0.506837
vt 0.375838 0.501550
vt 0.624162 0.501550
vt 0.641562 0.501550
vt 0.858438 0.501550
vt 0.858438 0.748450
vt 0.641562 0.748450
vt 0.378695 0.006837
vt 0.387170 0.044692
vt 0.387170 0.076815
vt 0.387170 0.108938
vt 0.387170 0.141062
vt 0.387170 0.173185
vt 0.387170 0.205308
vt 0.378695 0.243163
vt 0.375838 0.001550
vt 0.621305 0.006837
vt 0.600845 0.022517
vt 0.572032 0.022517
vt 0.543219 0.022517
vt 0.514406 0.022517
vt 0.485593 0.022517
vt 0.456781 0.022517
vt 0.427968 0.022517
vt 0.399155 0.022517
vt 0.378695 0.006837
vt 0.375838 0.001550
vt 0.624162 0.001550
vt 0.572032 0.022517
vt 0.387170 0.044692
vt 0.387170 0.076815
vt 0.387170 0.576815
vt 0.387170 0.544692
vt 0.387170 0.544692
vt 0.387170 0.576815
vt 0.427968 0.227483
vt 0.612830 0.673185
vt 0.612830 0.705308
vt 0.612830 0.673185
vt 0.427968 0.727483
vt 0.399155 0.727483
vt 0.427968 0.727483
vt 0.600128 0.025721
vt 0.611099 0.046019
vt 0.378695 0.743163
vt 0.456781 0.727483
vt 0.485594 0.727483
vt 0.514406 0.727483
vt 0.543219 0.727483
vt 0.572032 0.727483
vt 0.600845 0.727483
vt 0.621305 0.743163
vt 0.624162 0.748450
vt 0.375838 0.748450
vt 0.428480 0.224279
vt 0.399872 0.224279
vt 0.572032 0.522517
vt 0.612830 0.173185
vt 0.612830 0.205308
vt 0.612830 0.173185
vt 0.375838 0.266562
vt 0.624162 0.266562
vt 0.624162 0.483438
vt 0.375838 0.483438
vt 0.378695 0.506837
vt 0.387170 0.608938
vt 0.387170 0.641062
vt 0.387170 0.673185
vt 0.387170 0.705308
vt 0.378695 0.743163
vt 0.621305 0.743163
vt 0.612830 0.641062
vt 0.612830 0.608938
vt 0.612830 0.576815
vt 0.612830 0.544692
vt 0.621305 0.506837
vt 0.612830 0.044692
vt 0.612830 0.022517
vt 0.387170 0.227483
vt 0.612830 0.227483
vt 0.621305 0.243163
vt 0.387170 0.727483
vt 0.612830 0.544692
vt 0.612830 0.522517
vt 0.387170 0.022517
vt 0.600845 0.727483
vt 0.612830 0.727483
vt 0.387170 0.522517
vt 0.612830 0.044692
vt 0.375838 0.766562
vt 0.624162 0.766562
vt 0.624162 0.983438
vt 0.375838 0.983438
vt 0.399872 0.025721
vt 0.388902 0.046019
vt 0.388902 0.203981
vt 0.600128 0.224279
vt 0.611099 0.203981
vt 0.388902 0.703981
vt 0.399872 0.724279
vt 0.600128 0.724279
vt 0.611099 0.703981
vt 0.399872 0.525721
vt 0.388902 0.546019
vt 0.611099 0.546019
vt 0.600128 0.525721
vt 0.428480 0.025721
vt 0.427968 0.022517
vt 0.611099 0.077612
vt 0.612830 0.076815
vt 0.571520 0.224279
vt 0.572032 0.227483
vt 0.388902 0.172388
vt 0.387170 0.173185
vt 0.388902 0.672388
vt 0.387170 0.673185
vt 0.571520 0.724279
vt 0.428480 0.525721
vt 0.611099 0.577612
vt 0.600128 0.565433
vt 0.600128 0.065433
vt 0.388902 0.077612
vt 0.388901 0.077612
vt 0.388902 0.577612
vt 0.388901 0.577612
vt 0.428480 0.724279
vt 0.571520 0.525721
vt 0.571520 0.525721
vt 0.611099 0.672389
vt 0.611099 0.672388
vt 0.571520 0.025721
vt 0.611099 0.172388
vt 0.399872 0.184567
vt 0.388902 0.172388
vt 0.399872 0.565433
vt 0.487851 0.184567
vt 0.487851 0.148843
vt 0.457088 0.525721
vt 0.485696 0.525721
vt 0.485696 0.525721
vt 0.514304 0.525721
vt 0.542912 0.525721
vt 0.542912 0.525721
vt 0.571520 0.724279
vt 0.542912 0.724279
vt 0.542912 0.724279
vt 0.514304 0.724279
vt 0.514304 0.724279
vt 0.485696 0.724279
vt 0.485696 0.724279
vt 0.457088 0.724279
vt 0.457088 0.724279
vt 0.543219 0.522517
vt 0.514406 0.522517
vt 0.485594 0.522517
vt 0.456781 0.522517
vt 0.456781 0.727483
vt 0.485594 0.727483
vt 0.487851 0.601157
vt 0.487851 0.565433
vt 0.457088 0.025721
vt 0.485696 0.025721
vt 0.485696 0.025721
vt 0.514304 0.025721
vt 0.514304 0.025721
vt 0.542912 0.025721
vt 0.542912 0.025721
vt 0.457088 0.224279
vt 0.456781 0.227483
vt 0.485696 0.224279
vt 0.485593 0.227483
vt 0.514304 0.224279
vt 0.542912 0.224279
vt 0.543219 0.227483
vt 0.543219 0.022517
vt 0.514406 0.022517
vt 0.485594 0.022517
vt 0.456781 0.022517
vt 0.571520 0.224279
vt 0.514304 0.224279
vt 0.457088 0.224279
vt 0.514304 0.065433
vt 0.485696 0.065433
vt 0.514304 0.105144
vt 0.485696 0.105144
vt 0.514304 0.144856
vt 0.485696 0.144856
vt 0.512149 0.220291
vt 0.487851 0.220291
vt 0.399872 0.065433
vt 0.399872 0.105144
vt 0.388902 0.109204
vt 0.399872 0.144856
vt 0.388902 0.140796
vt 0.611099 0.109204
vt 0.611099 0.140796
vt 0.611099 0.140796
vt 0.388902 0.109204
vt 0.600128 0.184567
vt 0.600128 0.144856
vt 0.600128 0.105144
vt 0.387170 0.108938
vt 0.387170 0.141062
vt 0.612830 0.141062
vt 0.612830 0.108938
vt 0.612830 0.108938
vt 0.612830 0.141062
vt 0.485696 0.684567
vt 0.514304 0.684567
vt 0.485696 0.644856
vt 0.514304 0.644856
vt 0.485696 0.605144
vt 0.514304 0.605144
vt 0.512149 0.601157
vt 0.399872 0.684567
vt 0.388901 0.640796
vt 0.399872 0.644856
vt 0.388902 0.609204
vt 0.399872 0.605144
vt 0.611099 0.609204
vt 0.611099 0.609204
vt 0.611099 0.640796
vt 0.611099 0.640796
vt 0.388902 0.640796
vt 0.388902 0.609204
vt 0.600128 0.684567
vt 0.600128 0.644856
vt 0.600128 0.605144
vt 0.612830 0.641062
vt 0.612830 0.608938
vt 0.387170 0.608938
vt 0.511223 0.218578
vt 0.488777 0.218578
vt 0.511223 0.582174
vt 0.488777 0.582174
vt 0.511223 0.167826
vt 0.511223 0.184567
vt 0.489730 0.216058
vt 0.489730 0.170346
vt 0.512149 0.184567
vt 0.512149 0.529709
vt 0.512149 0.565433
vt 0.512149 0.148843
vt 0.487851 0.529709
vt 0.511223 0.531422
vt 0.488777 0.531422
vt 0.488777 0.184567
vt 0.488777 0.167826
vt 0.488777 0.565433
vt 0.511223 0.565433
vt 0.489730 0.579654
vt 0.489731 0.533942
vt 0.510270 0.533942
vt 0.510270 0.216058
vt 0.510269 0.170346
vt 0.510270 0.579654
vt 0.491429 0.211567
vt 0.491429 0.174837
vt 0.491429 0.575163
vt 0.491429 0.538433
vt 0.508571 0.538433
vt 0.508571 0.211567
vt 0.508570 0.174837
vt 0.508571 0.575163
vt 0.507812 0.540439
vt 0.507812 0.573157
vt 0.507812 0.209561
vt 0.492188 0.209561
vt 0.492188 0.540439
vt 0.507812 0.176843
vt 0.492188 0.176843
vt 0.492188 0.573157
vt 0.487483 0.601837
vt 0.512517 0.601838
vt 0.486064 0.604463
vt 0.486064 0.565433
vt 0.512517 0.184567
vt 0.512517 0.148163
vt 0.486064 0.526402
vt 0.513936 0.526402
vt 0.512517 0.565433
vt 0.512517 0.220972
vt 0.512517 0.529028
vt 0.486064 0.145537
vt 0.513936 0.145537
vt 0.487483 0.220972
vt 0.487483 0.565433
vt 0.486064 0.184567
vt 0.486064 0.223598
vt 0.513936 0.223598
vt 0.513936 0.184567
vt 0.514304 0.184567
vt 0.485696 0.184567
vt 0.485696 0.565433
vt 0.513936 0.565433
vt 0.514304 0.565433
vt 0.513936 0.604463
vt 0.487483 0.529028
vt 0.487483 0.184567
vt 0.487483 0.148163
vt 0.428480 0.031392
vt 0.402937 0.031392
vt 0.571520 0.218608
vt 0.597063 0.218608
vt 0.428480 0.531392
vt 0.402937 0.531392
vt 0.597063 0.065433
vt 0.597063 0.031392
vt 0.402937 0.184567
vt 0.402937 0.218608
vt 0.402937 0.565433
vt 0.402937 0.718608
vt 0.428480 0.718608
vt 0.457088 0.718608
vt 0.482631 0.718608
vt 0.482631 0.531392
vt 0.457088 0.531392
vt 0.482631 0.684567
vt 0.571520 0.031392
vt 0.542912 0.031392
vt 0.517369 0.031392
vt 0.482631 0.031392
vt 0.457088 0.031392
vt 0.428480 0.218608
vt 0.457088 0.218608
vt 0.482631 0.218608
vt 0.517369 0.218608
vt 0.542912 0.218608
vt 0.517369 0.065433
vt 0.482631 0.065433
vt 0.597063 0.184567
vt 0.597063 0.144856
vt 0.597063 0.105144
vt 0.402937 0.065433
vt 0.402937 0.105144
vt 0.402937 0.144856
vt 0.517369 0.184567
vt 0.517369 0.144856
vt 0.517369 0.105144
vt 0.482631 0.184567
vt 0.482631 0.144856
vt 0.482631 0.105144
vt 0.402937 0.684567
vt 0.402937 0.644856
vt 0.402937 0.605144
vt 0.482631 0.565433
vt 0.482631 0.605144
vt 0.482631 0.644856
vt 0.571520 0.718608
vt 0.597063 0.718608
vt 0.597063 0.565433
vt 0.597063 0.531392
vt 0.517369 0.718608
vt 0.542912 0.718608
vt 0.571520 0.531392
vt 0.542912 0.531392
vt 0.517369 0.531392
vt 0.517369 0.684567
vt 0.597063 0.684567
vt 0.597063 0.644856
vt 0.597063 0.605144
vt 0.517369 0.565433
vt 0.517369 0.605144
vt 0.517369 0.644856
vt 0.479566 0.684567
vt 0.479566 0.644856
vt 0.479566 0.605144
vt 0.479566 0.565433
vt 0.479566 0.537062
vt 0.406002 0.565433
vt 0.406002 0.605144
vt 0.406002 0.644856
vt 0.406002 0.684567
vt 0.406002 0.712937
vt 0.479566 0.712937
vt 0.457088 0.537062
vt 0.428480 0.537062
vt 0.457088 0.712937
vt 0.428480 0.712937
vt 0.406002 0.537062
vt 0.520434 0.644856
vt 0.520434 0.684567
vt 0.520434 0.605144
vt 0.520434 0.565433
vt 0.520434 0.537062
vt 0.593998 0.605144
vt 0.593998 0.565433
vt 0.593998 0.644856
vt 0.593998 0.684567
vt 0.593998 0.712937
vt 0.520434 0.712937
vt 0.542912 0.537062
vt 0.571520 0.537063
vt 0.593998 0.537062
vt 0.542912 0.712937
vt 0.571520 0.712937
vt 0.479566 0.105144
vt 0.479566 0.065433
vt 0.479566 0.144856
vt 0.479566 0.184567
vt 0.479566 0.212938
vt 0.406002 0.144856
vt 0.406002 0.184567
vt 0.406002 0.105144
vt 0.406002 0.065433
vt 0.406002 0.037062
vt 0.479566 0.037062
vt 0.457088 0.212938
vt 0.428480 0.212938
vt 0.406002 0.212938
vt 0.457088 0.037062
vt 0.428480 0.037062
vt 0.520434 0.065433
vt 0.520434 0.105144
vt 0.520434 0.144856
vt 0.520434 0.184567
vt 0.520434 0.212938
vt 0.593998 0.105144
vt 0.593998 0.065433
vt 0.593998 0.144856
vt 0.593998 0.184567
vt 0.593998 0.212938
vt 0.520434 0.037062
vt 0.542912 0.212938
vt 0.571520 0.212938
vt 0.542912 0.037062
vt 0.571520 0.037062
vt 0.593998 0.037062
vt 0.406002 0.487646
vt 0.406002 0.478189
vt 0.406002 0.271811
vt 0.406002 0.262354
vt 0.406002 0.464952
vt 0.406002 0.285048
vt 0.406002 0.451715
vt 0.406002 0.298285
vt 0.406002 0.438477
vt 0.406002 0.311522
vt 0.406002 0.429021
vt 0.406002 0.320979
vt 0.428480 0.429021
vt 0.428480 0.320979
vt 0.457088 0.429021
vt 0.457088 0.320979
vt 0.479566 0.429021
vt 0.479566 0.320979
vt 0.479566 0.438477
vt 0.479566 0.311522
vt 0.479566 0.451715
vt 0.479566 0.298285
vt 0.479566 0.464952
vt 0.479566 0.285048
vt 0.479566 0.478189
vt 0.479566 0.271811
vt 0.479566 0.487646
vt 0.479566 0.262354
vt 0.457088 0.487646
vt 0.457088 0.262354
vt 0.428480 0.487646
vt 0.428480 0.262354
vt 0.593998 0.429021
vt 0.593998 0.438477
vt 0.593998 0.311522
vt 0.593998 0.320979
vt 0.593998 0.451715
vt 0.593998 0.298285
vt 0.593998 0.464952
vt 0.593998 0.285048
vt 0.593998 0.478189
vt 0.593998 0.271811
vt 0.593998 0.487646
vt 0.593998 0.262354
vt 0.571520 0.487646
vt 0.571520 0.262354
vt 0.542912 0.487646
vt 0.542912 0.262354
vt 0.520434 0.487646
vt 0.520434 0.262354
vt 0.520434 0.478189
vt 0.520434 0.271811
vt 0.520434 0.464952
vt 0.520434 0.285048
vt 0.520434 0.451715
vt 0.520434 0.298285
vt 0.520434 0.438477
vt 0.520434 0.311522
vt 0.520434 0.429021
vt 0.520434 0.320979
vt 0.542912 0.429021
vt 0.542912 0.320979
vt 0.571520 0.429021
vt 0.571520 0.320979
vt 0.428480 0.712937
vt 0.479566 0.565433
vt 0.406002 0.599102
vt 0.406002 0.570354
vt 0.428480 0.619640
vt 0.406002 0.619640
vt 0.479566 0.150898
vt 0.479566 0.179646
vt 0.479566 0.179646
vt 0.479566 0.208394
vt 0.479566 0.208394
vt 0.479566 0.237142
vt 0.479566 0.237142
vt 0.479566 0.257680
vt 0.520434 0.179646
vt 0.520434 0.150898
vt 0.520434 0.208394
vt 0.520434 0.237142
vt 0.520434 0.257680
vt 0.520434 0.237142
vt 0.406002 0.237142
vt 0.406002 0.208394
vt 0.406002 0.208394
vt 0.406002 0.179646
vt 0.406002 0.150898
vt 0.406002 0.150898
vt 0.406002 0.130360
vt 0.593998 0.150898
vt 0.593998 0.179646
vt 0.593998 0.179646
vt 0.593998 0.208394
vt 0.593998 0.208394
vt 0.593998 0.237142
vt 0.593998 0.237142
vt 0.593998 0.257680
vt 0.479566 0.130360
vt 0.520434 0.150898
vt 0.520434 0.130360
vt 0.593998 0.257680
vt 0.571520 0.257680
vt 0.542912 0.257680
vt 0.479566 0.257680
vt 0.457088 0.257680
vt 0.428480 0.257680
vt 0.406002 0.257680
vt 0.428480 0.130360
vt 0.457088 0.130360
vt 0.542912 0.130360
vt 0.542912 0.130360
vt 0.571520 0.130360
vt 0.479566 0.065433
vt 0.479566 0.144856
vt 0.457088 0.212938
vt 0.542912 0.212938
vt 0.593998 0.130360
vt 0.593998 0.150898
vt 0.571520 0.492320
vt 0.593998 0.492320
vt 0.406002 0.541606
vt 0.406002 0.512858
vt 0.406002 0.492320
vt 0.428480 0.492320
vt 0.457088 0.492320
vt 0.479566 0.492320
vt 0.479566 0.712937
vt 0.571520 0.212938
vt 0.542912 0.712937
vt 0.593998 0.619640
vt 0.571520 0.619640
vt 0.542912 0.619640
vt 0.520434 0.619640
vt 0.000000 0.000000
vt 0.593998 0.512858
vt 0.479566 0.512858
vt 0.479566 0.541606
vt 0.479566 0.570354
vt 0.479566 0.599102
vt 0.571520 0.619640
vt 0.542912 0.619640
vt 0.520434 0.599102
vt 0.428480 0.130360
vt 0.457088 0.130360
vt 0.571520 0.257680
vt 0.542912 0.257680
vt 0.542912 0.492320
vt 0.571520 0.492320
vt 0.428480 0.492320
vt 0.457088 0.492320
vt 0.520434 0.492320
vt 0.542912 0.492320
vt 0.406002 0.237142
vt 0.593998 0.599102
vt 0.593998 0.570354
vt 0.593998 0.599102
vt 0.406002 0.599102
vt 0.593998 0.541606
vt 0.593998 0.570354
vt 0.457088 0.619640
vt 0.593998 0.541606
vt 0.479566 0.619640
vt 0.457088 0.619640
vt 0.520434 0.512858
vt 0.479566 0.492320
vt 0.520434 0.541606
vt 0.520434 0.570354
vt 0.479566 0.599102
vt 0.479566 0.619640
vt 0.593998 0.130360
vt 0.624162 1.000000
vt 0.625000 0.983438
vt 0.858438 0.500000
vt 0.875000 0.501550
vt 0.375000 0.266562
vt 0.375838 0.250000
vt 0.141562 0.750000
vt 0.125000 0.748450
vt 0.625000 0.501550
vt 0.641562 0.500000
vt 0.358438 0.500000
vt 0.375000 0.501550
vt 0.375838 0.750000
vt 0.375000 0.766562
vt 0.641562 0.750000
vt 0.625000 0.748450
vt 0.875000 0.748450
vt 0.625000 0.266562
vt 0.625000 0.483438
vt 0.125000 0.501550
vt 0.375838 1.000000
vt 0.141562 0.500000
vt 0.358438 0.750000
vt 0.625000 0.766562
vt 0.625000 0.983438
vt 0.621305 0.006837
vt 0.624162 0.001550
s 0
usemtl M_Noir_Bleuté
f 6/1/1 5/2/1 129/3/1 128/4/1 127/5/1 126/6/1 125/7/1 124/8/1 7/9/1 9/10/1 794/11/1 797/12/1
f 796/13/2 804/14/2 809/15/2 798/16/2
f 15/17/3 14/18/3 86/19/3 85/20/3 84/21/3 83/22/3 82/23/3 81/24/3 22/25/3 24/26/3 806/27/3 802/28/3
f 801/29/4 792/30/4 791/31/4 810/32/4
f 18/33/1 17/34/1 168/35/1 167/36/1 166/37/1 165/38/1 4/39/1 6/40/1 797/12/1 800/41/1
f 3/42/1 2/43/1 117/44/1 116/45/1 115/46/1 114/47/1 113/48/1 112/49/1 16/50/1 18/51/1 800/52/1 789/53/1
f 117/44/5 2/43/5 48/43/5 118/54/5
f 168/35/4 17/55/4 42/34/4 169/56/4
f 201/57/4 23/58/4 54/59/4 202/60/4
f 129/3/6 5/2/6 44/2/6 130/61/6
f 209/62/2 20/63/2 52/63/2 210/64/2
f 69/65/5 11/66/5 50/66/5 75/67/5
f 12/70/3 11/66/3 69/65/3 70/71/3 71/72/3 72/73/3 73/74/3 74/75/3 19/76/3 21/77/3 812/78/3 807/79/3
f 86/19/6 14/18/6 56/18/6 87/82/6
f 157/83/2 8/84/2 46/84/2 161/85/2
f 795/86/5 793/87/5 803/88/5 805/89/5
f 24/90/3 23/59/3 201/57/3 200/91/3 199/92/3 198/93/3 10/94/3 12/95/3 807/79/3 806/27/3
f 21/96/3 20/63/3 209/62/3 208/97/3 207/98/3 206/99/3 13/100/3 15/101/3 802/28/3 812/78/3
f 1/102/1 2/103/1 3/42/1
f 4/39/1 5/104/1 6/1/1
f 7/9/1 8/105/1 9/106/1
f 10/94/3 11/107/3 12/70/3
f 13/108/3 14/109/3 15/17/3
f 16/50/1 17/110/1 18/33/1
f 19/111/3 20/112/3 21/96/3
f 22/25/3 23/113/3 24/90/3
f 16/50/8 41/50/8 42/34/8 17/55/8
f 44/2/7 5/2/7 4/39/7 43/39/7
f 7/9/9 45/9/9 46/84/9 8/84/9
f 48/43/10 2/43/10 1/102/10 47/114/10
f 10/94/8 49/94/8 50/66/8 11/66/8
f 52/63/10 20/63/10 19/111/10 51/76/10
f 22/25/7 53/25/7 54/59/7 23/58/7
f 56/18/9 14/18/9 13/108/9 55/100/9
f 808/115/6 811/116/6 790/117/6 799/118/6
f 22/25/6 81/24/6 92/24/6 53/25/6
f 81/24/6 82/23/6 91/181/6 92/24/6
f 82/23/6 83/22/6 90/180/6 91/181/6
f 83/22/6 84/21/6 89/179/6 90/180/6
f 84/21/6 85/20/6 88/178/6 89/179/6
f 85/20/6 86/19/6 87/82/6 88/178/6
f 19/111/5 74/75/5 80/75/5 51/76/5
f 74/75/5 73/74/5 79/74/5 80/75/5
f 73/74/5 72/73/5 78/73/5 79/74/5
f 72/73/5 71/72/5 77/183/5 78/73/5
f 71/72/5 70/71/5 76/182/5 77/183/5
f 70/71/5 69/65/5 75/67/5 76/182/5
f 7/9/6 124/8/6 135/137/6 45/9/6
f 124/8/6 125/7/6 134/199/6 135/137/6
f 125/7/6 126/6/6 133/6/6 134/199/6
f 126/6/6 127/5/6 132/196/6 133/6/6
f 127/5/6 128/4/6 131/194/6 132/196/6
f 128/4/6 129/3/6 130/61/6 131/194/6
f 16/50/5 112/49/5 123/133/5 41/50/5
f 112/49/5 113/48/5 122/203/5 123/133/5
f 113/48/5 114/47/5 121/202/5 122/203/5
f 114/47/5 115/46/5 120/201/5 121/202/5
f 115/46/5 116/45/5 119/200/5 120/201/5
f 116/45/5 117/44/5 118/54/5 119/200/5
f 1/102/2 160/135/2 164/135/2 47/114/2
f 160/135/2 159/231/2 163/230/2 164/135/2
f 159/231/2 158/232/2 162/229/2 163/230/2
f 158/232/2 157/83/2 161/85/2 162/229/2
f 4/39/4 165/38/4 172/139/4 43/39/4
f 165/38/4 166/37/4 171/228/4 172/139/4
f 166/37/4 167/36/4 170/227/4 171/228/4
f 167/36/4 168/35/4 169/56/4 170/227/4
f 13/108/2 206/99/2 213/99/2 55/100/2
f 206/99/2 207/98/2 212/255/2 213/99/2
f 207/98/2 208/97/2 211/254/2 212/255/2
f 208/97/2 209/62/2 210/64/2 211/254/2
f 10/94/4 198/93/4 205/141/4 49/94/4
f 198/93/4 199/92/4 204/92/4 205/141/4
f 199/92/4 200/91/4 203/256/4 204/92/4
f 200/91/4 201/57/4 202/60/4 203/256/4
f 282/282/13 285/283/13 309/283/13 306/282/13
f 286/284/14 281/285/14 305/285/14 310/284/14
f 280/286/3 281/285/3 289/277/3 288/278/3
f 282/282/1 283/287/1 291/279/1 290/263/1
f 283/287/1 284/288/1 292/280/1 291/279/1
f 285/283/1 282/282/1 290/263/1 293/264/1
f 284/288/1 285/283/1 293/264/1 292/280/1
f 281/285/3 286/284/3 294/276/3 289/277/3
f 287/289/3 280/286/3 288/278/3 295/281/3
f 286/284/3 287/289/3 295/281/3 294/276/3
f 296/290/2 303/291/2 319/291/2 312/290/2
f 299/292/6 298/293/6 314/293/6 315/292/6
f 283/287/15 282/282/15 306/282/15 307/287/15
f 280/286/16 287/289/16 311/289/16 304/286/16
f 285/283/17 284/288/17 308/288/17 309/283/17
f 284/288/18 283/287/18 307/287/18 308/288/18
f 281/285/19 280/286/19 304/286/19 305/285/19
f 287/289/20 286/284/20 310/284/20 311/289/20
f 296/290/3 297/294/3 305/285/3 304/286/3
f 298/293/1 299/292/1 307/287/1 306/282/1
f 299/292/1 300/295/1 308/288/1 307/287/1
f 301/296/1 298/293/1 306/282/1 309/283/1
f 300/295/1 301/296/1 309/283/1 308/288/1
f 297/294/3 302/297/3 310/284/3 305/285/3
f 303/291/3 296/290/3 304/286/3 311/289/3
f 302/297/3 303/291/3 311/289/3 310/284/3
f 301/296/5 300/295/5 316/295/5 317/296/5
f 300/295/2 299/292/2 315/292/2 316/295/2
f 297/294/6 296/290/6 312/290/6 313/294/6
f 303/291/5 302/297/5 318/297/5 319/291/5
f 302/297/4 297/294/4 313/294/4 318/297/4
f 298/293/4 301/296/4 317/296/4 314/293/4
f 355/308/3 356/323/3 357/304/3 354/305/3
f 359/311/1 360/307/1 361/315/1 358/314/1
f 360/307/1 362/302/1 363/316/1 361/315/1
f 362/302/1 364/303/1 365/310/1 363/316/1
f 367/324/1 359/311/1 358/314/1 366/313/1
f 369/325/1 367/324/1 366/313/1 368/309/1
f 364/303/1 369/325/1 368/309/1 365/310/1
f 356/323/3 370/312/3 371/301/3 357/304/3
f 370/312/3 372/298/3 373/300/3 371/301/3
f 375/306/3 355/308/3 354/305/3 374/320/3
f 377/299/3 375/306/3 374/320/3 376/322/3
f 372/298/3 377/299/3 376/322/3 373/300/3
f 565/390/3 569/391/3 450/373/3 444/343/3
f 569/391/3 237/392/3 449/372/3 450/373/3
f 237/392/3 568/393/3 448/371/3 449/372/3
f 568/393/3 235/394/3 442/341/3 448/371/3
f 562/395/3 231/396/3 447/370/3 437/336/3
f 231/396/3 567/397/3 446/369/3 447/370/3
f 567/397/3 566/398/3 445/368/3 446/369/3
f 566/398/3 545/399/3 438/337/3 445/368/3
f 563/400/3 565/390/3 444/343/3 441/340/3
f 564/401/3 111/402/3 435/330/3 443/342/3
f 235/394/3 564/401/3 443/342/3 442/341/3
f 106/403/3 563/400/3 441/340/3 440/339/3
f 105/404/3 106/403/3 440/339/3 439/338/3
f 545/399/3 105/404/3 439/338/3 438/337/3
f 66/405/3 562/395/3 437/336/3 436/331/3
f 111/402/3 66/405/3 436/331/3 435/330/3
f 383/406/3 574/407/3 460/383/3 466/389/3
f 578/408/3 383/406/3 466/389/3 465/388/3
f 577/409/3 578/408/3 465/388/3 464/387/3
f 381/410/3 577/409/3 464/387/3 459/382/3
f 382/411/3 571/412/3 453/376/3 463/386/3
f 576/413/3 382/411/3 463/386/3 462/385/3
f 575/414/3 576/413/3 462/385/3 461/384/3
f 378/415/3 575/414/3 461/384/3 452/375/3
f 574/407/3 572/416/3 455/378/3 460/383/3
f 380/417/3 381/410/3 459/382/3 458/381/3
f 573/418/3 380/417/3 458/381/3 457/380/3
f 560/419/3 573/418/3 457/380/3 454/377/3
f 379/420/3 570/421/3 451/374/3 456/379/3
f 572/416/3 379/420/3 456/379/3 455/378/3
f 571/412/3 560/419/3 454/377/3 453/376/3
f 570/421/3 378/415/3 452/375/3 451/374/3
f 534/422/1 197/423/1 476/355/1 482/367/1
f 236/424/1 534/422/1 482/367/1 481/366/1
f 537/425/1 236/424/1 481/366/1 480/365/1
f 539/426/1 537/425/1 480/365/1 475/351/1
f 543/427/1 542/428/1 469/334/1 479/361/1
f 192/429/1 543/427/1 479/361/1 478/360/1
f 544/430/1 192/429/1 478/360/1 477/359/1
f 561/431/1 544/430/1 477/359/1 468/327/1
f 197/423/1 531/432/1 471/347/1 476/355/1
f 153/433/1 539/426/1 475/351/1 474/350/1
f 152/434/1 153/433/1 474/350/1 473/349/1
f 59/435/1 152/434/1 473/349/1 470/335/1
f 530/436/1 151/437/1 467/326/1 472/348/1
f 531/432/1 530/436/1 472/348/1 471/347/1
f 542/428/1 59/435/1 470/335/1 469/334/1
f 151/437/1 561/431/1 468/327/1 467/326/1
f 552/438/1 551/439/1 498/364/1 492/354/1
f 551/439/1 550/440/1 497/363/1 498/364/1
f 550/440/1 548/441/1 496/362/1 497/363/1
f 548/441/1 547/442/1 490/352/1 496/362/1
f 557/443/1 191/444/1 485/332/1 495/358/1
f 190/445/1 557/443/1 495/358/1 494/357/1
f 189/446/1 190/445/1 494/357/1 493/356/1
f 60/447/1 189/446/1 493/356/1 484/329/1
f 150/448/1 552/438/1 492/354/1 489/346/1
f 155/449/1 156/450/1 483/328/1 491/353/1
f 547/442/1 155/449/1 491/353/1 490/352/1
f 149/451/1 150/448/1 489/346/1 488/345/1
f 148/452/1 149/451/1 488/345/1 487/344/1
f 63/453/1 148/452/1 487/344/1 486/333/1
f 191/444/1 63/453/1 486/333/1 485/332/1
f 156/450/1 60/447/1 484/329/1 483/328/1
f 106/403/3 105/404/3 736/518/3 738/403/3
f 585/470/1 586/468/1 637/468/1 636/470/1
f 553/503/3 520/505/3 619/505/3 620/503/3
f 568/393/3 237/392/3 755/392/3 753/519/3
f 540/467/3 502/469/3 605/469/3 606/467/3
f 519/504/1 593/502/1 652/502/1 651/504/1
f 748/520/4 750/521/4 642/458/4 643/455/4
f 586/468/1 587/466/1 638/466/1 637/468/1
f 554/501/3 553/503/3 620/503/3 621/501/3
f 735/522/5 692/523/5 612/454/5 629/484/5
f 541/465/3 540/467/3 606/467/3 607/465/3
f 593/502/1 521/500/1 653/500/1 652/502/1
f 601/477/2 600/479/2 668/524/2 669/525/2
f 587/466/1 503/464/1 639/464/1 638/466/1
f 555/499/3 554/501/3 621/501/3 622/499/3
f 602/475/2 601/477/2 669/526/2 671/527/2
f 505/463/3 541/465/3 607/465/3 608/463/3
f 521/500/1 594/498/1 654/498/1 653/500/1
f 603/473/2 602/475/2 671/528/2 673/529/2
f 503/464/1 504/462/1 640/462/1 639/464/1
f 556/497/3 555/499/3 622/499/3 623/497/3
f 604/471/2 603/473/2 673/530/2 675/531/2
f 507/461/3 505/463/3 608/463/3 609/461/3
f 594/498/1 522/496/1 655/496/1 654/498/1
f 619/505/4 618/507/4 704/532/4 705/533/4
f 504/462/1 506/460/1 641/460/1 640/462/1
f 523/495/3 556/497/3 623/497/3 624/495/3
f 618/507/4 617/509/4 702/534/4 704/532/4
f 508/459/3 507/461/3 609/461/3 610/459/3
f 522/496/1 595/494/1 656/494/1 655/496/1
f 617/509/4 616/511/4 700/535/4 702/534/4
f 506/460/1 588/458/1 642/458/1 641/460/1
f 524/493/3 523/495/3 624/495/3 625/493/3
f 616/511/4 615/513/4 698/536/4 700/537/4
f 510/456/3 508/459/3 610/459/3 611/456/3
f 595/494/1 596/492/1 657/492/1 656/494/1
f 609/461/4 608/463/4 684/538/4 685/539/4
f 588/458/1 509/455/1 643/455/1 642/458/1
f 558/491/3 524/493/3 625/493/3 626/491/3
f 610/459/4 609/461/4 685/540/4 687/541/4
f 589/457/3 510/456/3 611/456/3 644/457/3
f 596/492/1 525/490/1 658/490/1 657/492/1
f 611/456/4 610/459/4 687/541/4 689/542/4
f 509/455/1 511/454/1 612/454/1 643/455/1
f 559/488/3 558/491/3 626/491/3 627/488/3
f 644/457/4 611/456/4 689/543/4 725/544/4
f 525/490/1 526/487/1 659/487/1 658/490/1
f 625/493/2 624/495/2 716/545/2 717/546/2
f 527/489/3 559/488/3 627/488/3 660/489/3
f 626/491/2 625/493/2 717/547/2 719/548/2
f 526/487/1 528/486/1 628/486/1 659/487/1
f 627/488/2 626/491/2 719/549/2 721/550/2
f 660/489/2 627/488/2 721/551/2 727/552/2
f 600/479/2 599/481/2 666/553/2 668/524/2
f 620/503/4 619/505/4 705/554/4 707/555/4
f 613/517/6 660/489/6 727/556/6 694/557/6
f 615/513/6 614/515/6 695/558/6 698/536/6
f 605/469/6 604/471/6 675/559/6 677/560/6
f 606/467/6 605/469/6 677/560/6 679/561/6
f 607/465/6 606/467/6 679/561/6 681/562/6
f 597/485/5 644/457/5 725/544/5 662/563/5
f 599/481/5 598/483/5 663/564/5 666/553/5
f 621/501/5 620/503/5 707/555/5 709/565/5
f 622/499/5 621/501/5 709/566/5 711/567/5
f 155/449/1 547/442/1 697/442/1 696/449/1
f 530/436/1 531/432/1 665/432/1 664/436/1
f 151/437/1 530/436/1 664/436/1 661/437/1
f 531/432/1 197/423/1 667/568/1 665/432/1
f 197/423/1 534/422/1 670/422/1 667/568/1
f 534/422/1 236/424/1 672/569/1 670/422/1
f 236/424/1 537/425/1 674/425/1 672/569/1
f 537/425/1 539/426/1 676/426/1 674/425/1
f 539/426/1 153/433/1 678/570/1 676/426/1
f 153/433/1 152/434/1 680/434/1 678/433/1
f 152/434/1 59/435/1 682/435/1 680/434/1
f 59/435/1 542/428/1 683/428/1 682/435/1
f 542/428/1 543/427/1 686/427/1 683/428/1
f 543/427/1 192/429/1 688/429/1 686/427/1
f 192/429/1 544/430/1 690/430/1 688/429/1
f 544/430/1 561/431/1 726/431/1 690/430/1
f 105/404/3 545/399/3 691/399/3 736/404/3
f 156/450/1 155/449/1 696/571/1 693/450/1
f 547/442/1 548/441/1 699/441/1 697/442/1
f 548/441/1 550/440/1 701/440/1 699/441/1
f 550/440/1 551/439/1 703/439/1 701/440/1
f 551/439/1 552/438/1 706/438/1 703/439/1
f 552/438/1 150/448/1 708/448/1 706/438/1
f 150/448/1 149/451/1 710/451/1 708/448/1
f 149/451/1 148/452/1 712/452/1 710/451/1
f 148/452/1 63/453/1 714/453/1 712/452/1
f 624/495/2 623/497/2 713/572/2 716/573/2
f 63/453/1 191/444/1 715/444/1 714/453/1
f 557/443/1 190/445/1 720/445/1 718/443/1
f 190/445/1 189/446/1 722/446/1 720/445/1
f 189/446/1 60/447/1 728/447/1 722/446/1
f 769/574/6 723/575/6 628/486/6 645/516/6
f 545/399/3 566/398/3 747/398/3 691/399/3
f 750/521/4 752/576/4 641/460/4 642/458/4
f 567/397/3 231/396/3 751/396/3 749/397/3
f 231/396/3 562/395/3 734/395/3 751/396/3
f 752/576/4 733/577/4 640/462/4 641/460/4
f 111/402/3 564/401/3 744/401/3 729/402/3
f 731/578/6 730/579/6 638/466/6 639/464/6
f 235/394/3 568/393/3 753/519/3 741/394/3
f 743/580/6 742/581/6 636/470/6 637/468/6
f 237/392/3 569/391/3 757/391/3 755/392/3
f 378/415/3 570/421/3 759/421/3 762/415/3
f 566/398/3 567/397/3 749/397/3 747/398/3
f 564/401/3 235/394/3 741/394/3 744/401/3
f 565/390/3 563/400/3 740/582/3 746/390/3
f 563/400/3 106/403/3 738/403/3 740/400/3
f 60/447/1 156/450/1 693/583/1 728/447/1
f 573/418/3 560/419/3 724/419/3 770/418/3
f 379/420/3 572/416/3 765/416/3 768/420/3
f 578/408/3 577/409/3 784/409/3 786/408/3
f 382/411/3 576/413/3 780/413/3 782/411/3
f 571/412/3 382/411/3 782/411/3 763/412/3
f 570/421/3 379/420/3 768/584/3 759/421/3
f 761/585/5 760/586/5 654/498/5 655/496/5
f 572/416/3 574/407/3 775/407/3 765/416/3
f 767/587/5 766/588/5 652/502/5 653/500/5
f 576/413/3 575/414/3 778/414/3 780/413/3
f 383/406/3 578/408/3 786/408/3 788/406/3
f 574/407/3 383/406/3 788/406/3 775/407/3
f 577/409/3 381/410/3 774/410/3 784/409/3
f 381/410/3 380/417/3 772/417/3 774/410/3
f 723/575/2 764/590/2 659/487/2 628/486/2
f 592/506/1 519/504/1 651/504/1 650/506/1
f 502/469/3 538/471/3 604/471/3 605/469/3
f 569/391/3 565/390/3 746/390/3 757/391/3
f 520/505/3 518/507/3 618/507/3 619/505/3
f 584/472/1 585/470/1 636/470/1 635/472/1
f 754/591/2 756/592/2 634/474/2 635/472/2
f 591/508/1 592/506/1 650/506/1 649/508/1
f 538/471/3 536/473/3 603/473/3 604/471/3
f 756/592/2 758/593/2 633/476/2 634/474/2
f 518/507/3 549/509/3 617/509/3 618/507/3
f 501/474/1 584/472/1 635/472/1 634/474/1
f 758/593/2 745/594/2 632/478/2 633/476/2
f 516/510/1 591/508/1 649/508/1 648/510/1
f 536/473/3 535/475/3 602/475/3 603/473/3
f 760/595/5 767/596/5 653/500/5 654/498/5
f 549/509/3 517/511/3 616/511/3 617/509/3
f 583/476/1 501/474/1 634/474/1 633/476/1
f 66/405/3 111/402/3 729/402/3 732/405/3
f 514/512/1 516/510/1 648/510/1 647/512/1
f 535/475/3 533/477/3 601/477/3 602/475/3
f 766/588/4 776/597/4 651/504/4 652/502/4
f 517/511/3 515/513/3 615/513/3 616/511/3
f 582/478/1 583/476/1 633/476/1 632/478/1
f 575/414/3 378/415/3 762/415/3 778/414/3
f 512/514/1 514/512/1 647/512/1 646/514/1
f 598/483/5 597/485/5 662/598/5 663/599/5
f 533/477/3 532/479/3 600/479/3 601/477/3
f 560/419/3 571/412/3 763/412/3 724/419/3
f 515/513/3 513/515/3 614/515/3 615/513/3
f 614/515/6 613/517/6 694/600/6 695/601/6
f 581/480/1 582/478/1 632/478/1 631/480/1
f 771/602/6 769/603/6 645/516/6 646/514/6
f 590/516/1 512/514/1 646/514/1 645/516/1
f 730/604/6 743/605/6 637/468/6 638/466/6
f 532/479/3 500/481/3 599/481/3 600/479/3
f 773/606/6 771/607/6 646/514/6 647/512/6
f 513/515/3 546/517/3 613/517/3 614/515/3
f 191/444/1 557/443/1 718/443/1 715/444/1
f 580/482/1 581/480/1 631/480/1 630/482/1
f 380/417/3 573/418/3 770/418/3 772/417/3
f 528/486/1 590/516/1 645/516/1 628/486/1
f 608/463/4 607/465/4 681/562/4 684/608/4
f 500/481/3 529/483/3 598/483/3 599/481/3
f 777/609/2 761/585/2 655/496/2 656/494/2
f 546/517/3 527/489/3 660/489/3 613/517/3
f 733/577/4 731/578/4 639/464/4 640/462/4
f 579/484/1 580/482/1 630/482/1 629/484/1
f 779/610/2 777/611/2 656/494/2 657/492/2
f 692/523/4 748/612/4 643/455/4 612/454/4
f 529/483/3 499/485/3 597/485/3 598/483/3
f 781/613/2 779/614/2 657/492/2 658/490/2
f 737/615/5 735/522/5 629/484/5 630/482/5
f 511/454/1 579/484/1 629/484/1 612/454/1
f 764/590/2 781/616/2 658/490/2 659/487/2
f 739/617/5 737/618/5 630/482/5 631/480/5
f 499/485/3 589/457/3 644/457/3 597/485/3
f 783/619/4 773/606/4 647/512/4 648/510/4
f 742/620/2 754/591/2 635/472/2 636/470/2
f 785/621/4 783/619/4 648/510/4 649/508/4
f 562/395/3 66/405/3 732/405/3 734/395/3
f 787/622/4 785/621/4 649/508/4 650/506/4
f 745/623/2 739/624/2 631/480/2 632/478/2
f 776/597/4 787/622/4 650/506/4 651/504/4
f 623/497/5 622/499/5 711/567/5 713/625/5
f 662/563/21 725/544/21 726/431/21 661/437/21
f 694/557/22 727/556/22 728/447/22 693/583/22
f 730/579/23 731/578/23 732/405/23 729/402/23
f 716/573/24 713/572/24 714/453/24 715/444/24
f 684/608/25 681/562/25 682/435/25 683/428/25
f 734/395/26 732/405/26 731/578/26 733/577/26
f 692/523/27 735/522/27 736/404/27 691/399/27
f 735/522/27 737/615/27 738/403/27 736/518/27
f 737/618/27 739/617/27 740/400/27 738/403/27
f 742/581/23 743/580/23 744/401/23 741/394/23
f 743/605/23 730/604/23 729/402/23 744/401/23
f 746/390/28 740/582/28 739/624/28 745/623/28
f 713/625/21 711/567/21 712/452/21 714/453/21
f 711/567/21 709/566/21 710/451/21 712/452/21
f 709/565/21 707/555/21 708/448/21 710/451/21
f 666/553/21 663/564/21 664/436/21 665/432/21
f 663/599/21 662/598/21 661/437/21 664/436/21
f 681/562/22 679/561/22 680/434/22 682/435/22
f 679/561/22 677/560/22 678/433/22 680/434/22
f 677/560/22 675/559/22 676/426/22 678/570/22
f 698/536/22 695/558/22 696/449/22 697/442/22
f 695/601/22 694/600/22 693/450/22 696/571/22
f 706/438/25 708/448/25 707/555/25 705/554/25
f 668/524/24 666/553/24 665/432/24 667/568/24
f 727/552/24 721/551/24 722/446/24 728/447/24
f 721/550/24 719/549/24 720/445/24 722/446/24
f 719/548/24 717/547/24 718/443/24 720/445/24
f 717/546/24 716/545/24 715/444/24 718/443/24
f 725/544/25 689/543/25 690/430/25 726/431/25
f 689/542/25 687/541/25 688/429/25 690/430/25
f 687/541/25 685/540/25 686/427/25 688/429/25
f 685/539/25 684/538/25 683/428/25 686/427/25
f 697/442/25 699/441/25 700/537/25 698/536/25
f 699/441/25 701/440/25 702/534/25 700/535/25
f 701/440/25 703/439/25 704/532/25 702/534/25
f 703/439/25 706/438/25 705/533/25 704/532/25
f 675/531/24 673/530/24 674/425/24 676/426/24
f 673/529/24 671/528/24 672/569/24 674/425/24
f 671/527/24 669/526/24 670/422/24 672/569/24
f 669/525/24 668/524/24 667/568/24 670/422/24
f 691/399/26 747/398/26 748/612/26 692/523/26
f 747/398/26 749/397/26 750/521/26 748/520/26
f 749/397/26 751/396/26 752/576/26 750/521/26
f 751/396/26 734/395/26 733/577/26 752/576/26
f 741/394/28 753/519/28 754/591/28 742/620/28
f 753/519/28 755/392/28 756/592/28 754/591/28
f 755/392/28 757/391/28 758/593/28 756/592/28
f 757/391/28 746/390/28 745/594/28 758/593/28
f 760/586/27 761/585/27 762/415/27 759/421/27
f 764/590/28 723/575/28 724/419/28 763/412/28
f 766/588/27 767/587/27 768/420/27 765/416/27
f 767/596/27 760/595/27 759/421/27 768/584/27
f 723/575/23 769/574/23 770/418/23 724/419/23
f 769/603/23 771/602/23 772/417/23 770/418/23
f 771/607/23 773/606/23 774/410/23 772/417/23
f 776/597/26 766/588/26 765/416/26 775/407/26
f 761/585/28 777/609/28 778/414/28 762/415/28
f 777/611/28 779/610/28 780/413/28 778/414/28
f 779/614/28 781/613/28 782/411/28 780/413/28
f 781/616/28 764/590/28 763/412/28 782/411/28
f 773/606/26 783/619/26 784/409/26 774/410/26
f 783/619/26 785/621/26 786/408/26 784/409/26
f 785/621/26 787/622/26 788/406/26 786/408/26
f 787/622/26 776/597/26 775/407/26 788/406/26
f 561/431/1 151/437/1 661/437/1 726/431/1
f 789/626/29 790/117/29 791/627/29
f 792/30/30 793/628/30 794/629/30
f 795/86/31 796/630/31 797/631/31
f 798/16/32 799/632/32 800/633/32
f 801/29/33 802/634/33 803/635/33
f 804/14/34 805/636/34 806/637/34
f 807/638/35 808/115/35 809/639/35
f 810/32/36 811/640/36 812/641/36
f 791/31/25 792/30/25 794/629/25 789/642/25
f 793/87/21 795/86/21 797/12/21 794/11/21
f 792/643/8 801/644/8 803/88/8 793/87/8
f 796/13/24 798/16/24 800/633/24 797/645/24
f 799/118/22 790/117/22 789/626/22 800/646/22
f 804/14/10 796/13/10 795/647/10 805/636/10
f 802/28/27 806/27/27 805/89/27 803/88/27
f 809/15/28 804/14/28 806/27/28 807/79/28
f 801/29/26 810/32/26 812/78/26 802/28/26
f 811/116/23 808/115/23 807/79/23 812/78/23
f 798/16/9 809/15/9 808/648/9 799/632/9
f 810/649/7 791/650/7 790/117/7 811/116/7
f 9/106/1 8/84/1 157/83/1 158/232/1 159/231/1 160/135/1 1/114/1 3/651/1 789/652/1 794/11/1
usemtl M_Noir_Profond
f 25/68/7 26/69/7 62/69/7 391/68/7
f 142/80/5 29/81/5 393/81/5 407/80/5
f 32/119/1 31/120/1 42/55/1 41/50/1
f 30/121/1 29/81/1 44/2/1 43/39/1
f 28/122/1 27/123/1 46/84/1 45/9/1
f 26/69/1 25/68/1 48/43/1 47/102/1
f 38/124/3 37/125/3 50/66/3 49/94/3
f 40/126/3 39/127/3 52/63/3 51/111/3
f 36/128/3 35/129/3 54/58/3 53/25/3
f 34/130/3 33/131/3 56/18/3 55/108/3
f 141/132/1 32/119/1 41/50/1 123/133/1
f 176/134/1 26/69/1 47/102/1 164/135/1
f 147/136/1 28/122/1 45/9/1 135/137/1
f 180/138/1 30/121/1 43/39/1 172/139/1
f 217/140/3 38/124/3 49/94/3 205/141/3
f 98/142/3 40/126/3 51/111/3 80/75/3
f 104/143/3 36/128/3 53/25/3 92/24/3
f 221/144/3 34/130/3 55/108/3 213/99/3
f 177/147/2 31/120/2 57/120/2 185/148/2
f 37/125/9 38/124/9 64/124/9 395/125/9
f 214/149/2 35/129/2 67/129/2 222/150/2
f 39/127/7 40/126/7 428/126/7 65/127/7
f 93/151/6 37/125/6 395/125/6 396/151/6
f 35/129/10 36/128/10 389/128/10 67/129/10
f 99/152/5 33/131/5 430/131/5 109/153/5
f 33/131/8 34/130/8 68/130/8 430/131/8
f 31/120/9 32/119/9 385/119/9 57/120/9
f 218/154/4 39/127/4 65/127/4 226/155/4
f 136/156/6 25/68/6 391/68/6 402/156/6
f 29/81/10 30/121/10 58/121/10 393/81/10
f 173/157/4 27/123/4 61/123/4 181/157/4
f 27/123/8 28/122/8 387/122/8 61/123/8
f 36/128/5 104/143/5 388/143/5 389/128/5
f 104/143/5 103/163/5 400/163/5 388/143/5
f 103/163/5 102/164/5 399/165/5 400/163/5
f 102/164/5 101/166/5 344/166/5 399/165/5
f 101/166/5 100/167/5 431/168/5 344/166/5
f 100/167/5 99/152/5 109/153/5 431/168/5
f 40/126/6 98/142/6 427/169/6 428/126/6
f 98/142/6 97/170/6 108/171/6 427/169/6
f 97/170/6 96/172/6 107/173/6 108/171/6
f 96/172/6 95/174/6 398/175/6 107/173/6
f 95/174/6 94/176/6 397/177/6 398/175/6
f 94/176/6 93/151/6 396/151/6 397/177/6
f 33/131/3 99/152/3 87/82/3 56/18/3
f 99/152/3 100/167/3 88/178/3 87/82/3
f 100/167/3 101/166/3 89/179/3 88/178/3
f 101/166/3 102/164/3 90/180/3 89/179/3
f 102/164/3 103/163/3 91/181/3 90/180/3
f 103/163/3 104/143/3 92/24/3 91/181/3
f 37/125/3 93/151/3 75/67/3 50/66/3
f 93/151/3 94/176/3 76/182/3 75/67/3
f 94/176/3 95/174/3 77/183/3 76/182/3
f 95/174/3 96/172/3 78/73/3 77/183/3
f 96/172/3 97/170/3 79/74/3 78/73/3
f 97/170/3 98/142/3 80/75/3 79/74/3
f 32/119/6 141/132/6 384/132/6 385/119/6
f 141/132/6 140/186/6 406/186/6 384/132/6
f 140/186/6 139/187/6 405/188/6 406/186/6
f 139/187/6 138/189/6 404/190/6 405/188/6
f 138/189/6 137/191/6 403/192/6 404/190/6
f 137/191/6 136/156/6 402/156/6 403/192/6
f 29/81/1 142/80/1 130/61/1 44/2/1
f 142/80/1 143/193/1 131/194/1 130/61/1
f 143/193/1 144/195/1 132/196/1 131/194/1
f 144/195/1 145/197/1 133/6/1 132/196/1
f 145/197/1 146/198/1 134/199/1 133/6/1
f 146/198/1 147/136/1 135/137/1 134/199/1
f 25/68/1 136/156/1 118/54/1 48/43/1
f 136/156/1 137/191/1 119/200/1 118/54/1
f 137/191/1 138/189/1 120/201/1 119/200/1
f 138/189/1 139/187/1 121/202/1 120/201/1
f 139/187/1 140/186/1 122/203/1 121/202/1
f 140/186/1 141/132/1 123/133/1 122/203/1
f 28/122/5 147/136/5 386/204/5 387/122/5
f 147/136/5 146/198/5 409/198/5 386/204/5
f 146/198/5 145/197/5 346/205/5 409/198/5
f 145/197/5 144/195/5 345/195/5 346/205/5
f 144/195/5 143/193/5 408/206/5 345/195/5
f 143/193/5 142/80/5 407/80/5 408/206/5
f 26/69/4 176/134/4 184/134/4 62/69/4
f 176/134/4 175/220/4 183/220/4 184/134/4
f 175/220/4 174/221/4 182/222/4 183/220/4
f 174/221/4 173/157/4 181/157/4 182/222/4
f 30/121/2 180/138/2 188/159/2 58/121/2
f 180/138/2 179/219/2 187/219/2 188/159/2
f 179/219/2 178/223/2 186/217/2 187/219/2
f 178/223/2 177/147/2 185/148/2 186/217/2
f 31/120/1 177/147/1 169/56/1 42/55/1
f 177/147/1 178/223/1 170/227/1 169/56/1
f 178/223/1 179/219/1 171/228/1 170/227/1
f 179/219/1 180/138/1 172/139/1 171/228/1
f 27/123/1 173/157/1 161/85/1 46/84/1
f 173/157/1 174/221/1 162/229/1 161/85/1
f 174/221/1 175/220/1 163/230/1 162/229/1
f 175/220/1 176/134/1 164/135/1 163/230/1
f 34/130/4 221/144/4 229/144/4 68/130/4
f 221/144/4 220/245/4 228/246/4 229/144/4
f 220/245/4 219/247/4 227/248/4 228/246/4
f 219/247/4 218/154/4 226/155/4 227/248/4
f 38/124/2 217/140/2 225/140/2 64/124/2
f 217/140/2 216/249/2 224/241/2 225/140/2
f 216/249/2 215/250/2 223/243/2 224/241/2
f 215/250/2 214/149/2 222/150/2 223/243/2
f 39/127/3 218/154/3 210/64/3 52/63/3
f 218/154/3 219/247/3 211/254/3 210/64/3
f 219/247/3 220/245/3 212/255/3 211/254/3
f 220/245/3 221/144/3 213/99/3 212/255/3
f 35/129/3 214/149/3 202/60/3 54/58/3
f 214/149/3 215/250/3 203/256/3 202/60/3
f 215/250/3 216/249/3 204/92/3 203/256/3
f 216/249/3 217/140/3 205/141/3 204/92/3
f 266/263/2 269/264/2 293/264/2 290/263/2
f 270/276/2 265/277/2 289/277/2 294/276/2
f 264/278/3 265/277/3 273/271/3 272/270/3
f 266/263/1 267/279/1 275/257/1 274/258/1
f 267/279/1 268/280/1 276/261/1 275/257/1
f 269/264/1 266/263/1 274/258/1 277/273/1
f 268/280/1 269/264/1 277/273/1 276/261/1
f 265/277/3 270/276/3 278/260/3 273/271/3
f 271/281/3 264/278/3 272/270/3 279/259/3
f 270/276/3 271/281/3 279/259/3 278/260/3
f 267/279/5 266/263/5 290/263/5 291/279/5
f 264/278/4 271/281/4 295/281/4 288/278/4
f 269/264/6 268/280/6 292/280/6 293/264/6
f 268/280/4 267/279/4 291/279/4 292/280/4
f 265/277/5 264/278/5 288/278/5 289/277/5
f 271/281/6 270/276/6 294/276/6 295/281/6
f 511/454/4 509/455/4 510/456/4 589/457/4
f 509/455/4 588/458/4 508/459/4 510/456/4
f 588/458/4 506/460/4 507/461/4 508/459/4
f 506/460/4 504/462/4 505/463/4 507/461/4
f 504/462/4 503/464/4 541/465/4 505/463/4
f 503/464/6 587/466/6 540/467/6 541/465/6
f 587/466/6 586/468/6 502/469/6 540/467/6
f 586/468/6 585/470/6 538/471/6 502/469/6
f 585/470/2 584/472/2 536/473/2 538/471/2
f 584/472/2 501/474/2 535/475/2 536/473/2
f 501/474/2 583/476/2 533/477/2 535/475/2
f 583/476/2 582/478/2 532/479/2 533/477/2
f 582/478/2 581/480/2 500/481/2 532/479/2
f 581/480/5 580/482/5 529/483/5 500/481/5
f 580/482/5 579/484/5 499/485/5 529/483/5
f 579/484/5 511/454/5 589/457/5 499/485/5
f 528/486/2 526/487/2 559/488/2 527/489/2
f 526/487/2 525/490/2 558/491/2 559/488/2
f 525/490/2 596/492/2 524/493/2 558/491/2
f 596/492/2 595/494/2 523/495/2 524/493/2
f 595/494/2 522/496/2 556/497/2 523/495/2
f 522/496/5 594/498/5 555/499/5 556/497/5
f 594/498/5 521/500/5 554/501/5 555/499/5
f 521/500/5 593/502/5 553/503/5 554/501/5
f 593/502/4 519/504/4 520/505/4 553/503/4
f 519/504/4 592/506/4 518/507/4 520/505/4
f 592/506/4 591/508/4 549/509/4 518/507/4
f 591/508/4 516/510/4 517/511/4 549/509/4
f 516/510/4 514/512/4 515/513/4 517/511/4
f 514/512/6 512/514/6 513/515/6 515/513/6
f 512/514/6 590/516/6 546/517/6 513/515/6
f 590/516/6 528/486/6 527/489/6 546/517/6
usemtl M_Gris_Metal
f 429/145/3 430/131/3 68/130/3 229/144/3
f 390/146/1 391/68/1 62/69/1 184/134/1
f 392/158/1 393/81/1 58/121/1 188/159/1
f 222/150/3 67/129/3 389/128/3 394/160/3
f 195/161/4 196/162/4 259/162/4 241/161/4
f 353/184/4 352/185/4 242/185/4 261/184/4
f 404/190/1 410/207/1 411/208/1 405/188/1
f 410/207/1 419/209/1 421/210/1 411/208/1
f 419/209/1 418/211/1 348/212/1 421/210/1
f 154/213/6 351/214/6 254/214/6 255/213/6
f 385/119/1 415/215/1 185/148/1 57/120/1
f 415/215/1 416/216/1 186/217/1 185/148/1
f 416/216/1 417/218/1 187/219/1 186/217/1
f 417/218/1 392/158/1 188/159/1 187/219/1
f 387/122/1 412/224/1 181/157/1 61/123/1
f 412/224/1 413/225/1 182/222/1 181/157/1
f 413/225/1 414/226/1 183/220/1 182/222/1
f 414/226/1 390/146/1 184/134/1 183/220/1
f 398/175/3 401/233/3 234/234/3 107/173/3
f 401/233/3 426/235/3 434/236/3 234/234/3
f 426/235/3 425/237/3 239/238/3 434/236/3
f 233/239/11 353/184/11 261/184/11 263/239/11
f 64/124/3 225/140/3 422/240/3 395/125/3
f 225/140/3 224/241/3 423/242/3 422/240/3
f 224/241/3 223/243/3 424/244/3 423/242/3
f 223/243/3 222/150/3 394/160/3 424/244/3
f 428/126/3 230/251/3 226/155/3 65/127/3
f 230/251/3 432/252/3 227/248/3 226/155/3
f 432/252/3 433/253/3 228/246/3 227/248/3
f 433/253/3 429/145/3 229/144/3 228/246/3
f 247/257/6 246/258/6 274/258/6 275/257/6
f 251/259/5 250/260/5 278/260/5 279/259/5
f 248/261/2 256/262/2 247/257/2 275/257/2 276/261/2
f 193/265/2 154/213/2 255/213/2 240/265/2
f 110/266/2 232/267/2 243/267/2 252/266/2
f 196/162/12 194/268/12 257/268/12 259/162/12
f 194/268/2 193/265/2 240/265/2 257/268/2
f 232/267/2 233/239/2 263/239/2 243/267/2
f 350/269/6 110/266/6 252/266/6 253/269/6
f 352/185/4 350/269/4 253/269/4 242/185/4
f 351/214/4 195/161/4 241/161/4 254/214/4
f 244/270/3 245/271/3 253/269/3 252/266/3
f 246/258/1 247/257/1 255/213/1 254/214/1
f 247/257/1 256/262/1 240/265/1 255/213/1
f 256/262/1 248/261/1 257/268/1 240/265/1
f 258/272/1 246/258/1 254/214/1 241/161/1
f 249/273/1 258/272/1 241/161/1 259/162/1
f 248/261/1 249/273/1 259/162/1 257/268/1
f 245/271/3 260/274/3 242/185/3 253/269/3
f 260/274/3 250/260/3 261/184/3 242/185/3
f 262/275/3 244/270/3 252/266/3 243/267/3
f 251/259/3 262/275/3 243/267/3 263/239/3
f 250/260/3 251/259/3 263/239/3 261/184/3
f 258/272/4 249/273/4 277/273/4 274/258/4 246/258/4
f 262/275/2 251/259/2 279/259/2 272/270/2 244/270/2
f 249/273/5 248/261/5 276/261/5 277/273/5
f 245/271/6 244/270/6 272/270/6 273/271/6
f 250/260/4 260/274/4 245/271/4 273/271/4 278/260/4
f 341/298/6 343/299/6 377/299/6 372/298/6
f 329/300/4 328/301/4 371/301/4 373/300/4
f 336/302/4 337/303/4 364/303/4 362/302/4
f 321/304/6 320/305/6 354/305/6 357/304/6
f 343/299/4 342/306/4 375/306/4 377/299/4
f 328/301/4 321/304/4 357/304/4 371/301/4
f 335/307/4 336/302/4 362/302/4 360/307/4
f 342/306/4 332/308/4 355/308/4 375/306/4
f 327/309/5 325/310/5 365/310/5 368/309/5
f 334/311/5 335/307/5 360/307/5 359/311/5
f 340/312/2 341/298/2 372/298/2 370/312/2
f 326/313/4 327/309/4 368/309/4 366/313/4
f 320/305/3 321/304/3 399/165/3 344/166/3
f 322/314/1 323/315/1 346/205/1 345/195/1
f 323/315/1 324/316/1 347/317/1 346/205/1
f 324/316/1 325/310/1 418/211/1 347/317/1
f 326/313/1 322/314/1 345/195/1 420/318/1
f 327/309/1 326/313/1 420/318/1 348/212/1
f 325/310/1 327/309/1 348/212/1 418/211/1
f 321/304/3 328/301/3 349/319/3 399/165/3
f 328/301/3 329/300/3 425/237/3 349/319/3
f 330/320/3 320/305/3 344/166/3 238/321/3
f 331/322/3 330/320/3 238/321/3 239/238/3
f 329/300/3 331/322/3 239/238/3 425/237/3
f 333/323/3 332/308/3 110/266/3 350/269/3
f 335/307/1 334/311/1 351/214/1 154/213/1
f 336/302/1 335/307/1 154/213/1 193/265/1
f 337/303/1 336/302/1 193/265/1 194/268/1
f 334/311/1 338/324/1 195/161/1 351/214/1
f 338/324/1 339/325/1 196/162/1 195/161/1
f 339/325/1 337/303/1 194/268/1 196/162/1
f 340/312/3 333/323/3 350/269/3 352/185/3
f 341/298/3 340/312/3 352/185/3 353/184/3
f 332/308/3 342/306/3 232/267/3 110/266/3
f 342/306/3 343/299/3 233/239/3 232/267/3
f 343/299/3 341/298/3 353/184/3 233/239/3
f 323/315/6 322/314/6 358/314/6 361/315/6
f 338/324/2 334/311/2 359/311/2 367/324/2
f 320/305/2 330/320/2 374/320/2 354/305/2
f 324/316/2 323/315/2 361/315/2 363/316/2
f 339/325/2 338/324/2 367/324/2 369/325/2
f 330/320/2 331/322/2 376/322/2 374/320/2
f 325/310/2 324/316/2 363/316/2 365/310/2
f 337/303/6 339/325/6 369/325/6 364/303/6
f 331/322/5 329/300/5 373/300/5 376/322/5
f 322/314/4 326/313/4 366/313/4 358/314/4
f 333/323/2 340/312/2 370/312/2 356/323/2
f 332/308/5 333/323/5 356/323/5 355/308/5
f 467/326/1 468/327/1 385/119/1 384/132/1
f 483/328/1 484/329/1 387/122/1 386/204/1
f 435/330/3 436/331/3 389/128/3 388/143/3
f 485/332/1 486/333/1 391/68/1 390/146/1
f 469/334/1 470/335/1 393/81/1 392/158/1
f 436/331/3 437/336/3 394/160/3 389/128/3
f 438/337/3 439/338/3 396/151/3 395/125/3
f 439/338/3 440/339/3 397/177/3 396/151/3
f 440/339/3 441/340/3 398/175/3 397/177/3
f 442/341/3 443/342/3 400/163/3 399/165/3
f 443/342/3 435/330/3 388/143/3 400/163/3
f 441/340/3 444/343/3 401/233/3 398/175/3
f 486/333/1 487/344/1 402/156/1 391/68/1
f 487/344/1 488/345/1 403/192/1 402/156/1
f 488/345/1 489/346/1 404/190/1 403/192/1
f 471/347/1 472/348/1 406/186/1 405/188/1
f 472/348/1 467/326/1 384/132/1 406/186/1
f 470/335/1 473/349/1 407/80/1 393/81/1
f 473/349/1 474/350/1 408/206/1 407/80/1
f 474/350/1 475/351/1 345/195/1 408/206/1
f 490/352/1 491/353/1 409/198/1 346/205/1
f 491/353/1 483/328/1 386/204/1 409/198/1
f 489/346/1 492/354/1 410/207/1 404/190/1
f 476/355/1 471/347/1 405/188/1 411/208/1
f 484/329/1 493/356/1 412/224/1 387/122/1
f 493/356/1 494/357/1 413/225/1 412/224/1
f 494/357/1 495/358/1 414/226/1 413/225/1
f 495/358/1 485/332/1 390/146/1 414/226/1
f 468/327/1 477/359/1 415/215/1 385/119/1
f 477/359/1 478/360/1 416/216/1 415/215/1
f 478/360/1 479/361/1 417/218/1 416/216/1
f 479/361/1 469/334/1 392/158/1 417/218/1
f 496/362/1 490/352/1 346/205/1 347/317/1
f 497/363/1 496/362/1 347/317/1 418/211/1
f 498/364/1 497/363/1 418/211/1 419/209/1
f 492/354/1 498/364/1 419/209/1 410/207/1
f 475/351/1 480/365/1 420/318/1 345/195/1
f 480/365/1 481/366/1 348/212/1 420/318/1
f 481/366/1 482/367/1 421/210/1 348/212/1
f 482/367/1 476/355/1 411/208/1 421/210/1
f 445/368/3 438/337/3 395/125/3 422/240/3
f 446/369/3 445/368/3 422/240/3 423/242/3
f 447/370/3 446/369/3 423/242/3 424/244/3
f 437/336/3 447/370/3 424/244/3 394/160/3
f 448/371/3 442/341/3 399/165/3 349/319/3
f 449/372/3 448/371/3 349/319/3 425/237/3
f 450/373/3 449/372/3 425/237/3 426/235/3
f 444/343/3 450/373/3 426/235/3 401/233/3
f 451/374/3 452/375/3 428/126/3 427/169/3
f 453/376/3 454/377/3 430/131/3 429/145/3
f 455/378/3 456/379/3 108/171/3 107/173/3
f 456/379/3 451/374/3 427/169/3 108/171/3
f 454/377/3 457/380/3 109/153/3 430/131/3
f 457/380/3 458/381/3 431/168/3 109/153/3
f 458/381/3 459/382/3 344/166/3 431/168/3
f 460/383/3 455/378/3 107/173/3 234/234/3
f 452/375/3 461/384/3 230/251/3 428/126/3
f 461/384/3 462/385/3 432/252/3 230/251/3
f 462/385/3 463/386/3 433/253/3 432/252/3
f 463/386/3 453/376/3 429/145/3 433/253/3
f 459/382/3 464/387/3 238/321/3 344/166/3
f 464/387/3 465/388/3 239/238/3 238/321/3
f 465/388/3 466/389/3 434/236/3 239/238/3
f 466/389/3 460/383/3 234/234/3 434/236/3
usemtl M_Orange
f 316/295/1 315/292/1 314/293/1 317/296/1
f 318/297/3 313/294/3 312/290/3 319/291/3
usemtl M_Plexiglas
f 643/589/3 642/589/3 641/589/3 640/589/3 639/589/3 638/589/3 637/589/3 636/589/3 635/589/3 634/589/3 633/589/3 632/589/3 631/589/3 630/589/3 629/589/3 612/589/3
f 610/589/1 611/589/1 644/589/1 597/589/1 598/589/1 599/589/1 600/589/1 601/589/1 602/589/1 603/589/1 604/589/1 605/589/1 606/589/1 607/589/1 608/589/1 609/589/1
f 659/589/3 658/589/3 657/589/3 656/589/3 655/589/3 654/589/3 653/589/3 652/589/3 651/589/3 650/589/3 649/589/3 648/589/3 647/589/3 646/589/3 645/589/3 628/589/3
f 626/589/1 627/589/1 660/589/1 613/589/1 614/589/1 615/589/1 616/589/1 617/589/1 618/589/1 619/589/1 620/589/1 621/589/1 622/589/1 623/589/1 624/589/1 625/589/1
