# Blender 4.2.3 LTS
# www.blender.org
mtllib SM_Door_Double_V2R.mtl
o SM_Door_Double_V2R
v -0.044252 0.000000 -1.000000
v -0.044252 1.850000 -1.000000
v 0.044252 0.000000 -1.000000
v 0.044252 1.850000 -1.000000
v -0.044252 1.233333 -1.000000
v -0.044252 0.616667 -1.000000
v 0.044252 1.233333 -1.000000
v 0.044252 0.616667 -1.000000
v -0.044252 0.000000 -0.175529
v -0.044252 1.850000 -0.175529
v 0.044252 0.000000 -0.175529
v 0.044252 1.850000 -0.175529
v -0.044252 0.616667 -0.175529
v -0.044252 1.233333 -0.175529
v -0.026982 1.361390 -0.010455
v 0.026982 1.361390 -0.010455
v 0.026982 0.621468 -0.165074
v 0.026982 1.228532 -0.165074
v -0.026982 0.465842 0.000000
v -0.026982 1.384158 0.000000
v 0.026982 1.384158 0.000000
v 0.026982 0.465842 0.000000
v 0.026982 0.616667 -0.175529
v 0.026982 1.233333 -0.175529
v -0.026982 0.616667 -0.175529
v -0.026982 1.233333 -0.175529
v -0.026982 0.488610 -0.010455
v 0.026982 0.488610 -0.010455
v -0.026982 0.621468 -0.165074
v -0.026982 1.228532 -0.165074
v -0.046825 0.583245 -0.053911
v -0.046825 1.266755 -0.053911
v -0.046825 0.641423 -0.121618
v -0.046825 1.208578 -0.121618
v -0.046825 0.488610 -0.010455
v -0.046825 1.361390 -0.010455
v -0.046825 0.621468 -0.165074
v -0.046825 1.228532 -0.165074
v -0.039590 0.583245 -0.053911
v -0.039590 1.266755 -0.053911
v 0.039590 1.266755 -0.053911
v 0.039590 0.583245 -0.053911
v 0.039590 0.641423 -0.121618
v 0.039590 1.208578 -0.121618
v -0.039590 0.641423 -0.121618
v -0.039590 1.208578 -0.121618
v -0.044252 1.253210 -0.195406
v -0.044252 1.830123 -0.195406
v -0.044252 1.830123 -0.980123
v -0.044252 1.253210 -0.980123
v -0.044252 0.019877 -0.195406
v -0.044252 0.596790 -0.195406
v -0.044252 0.596790 -0.980123
v -0.044252 0.019877 -0.980123
v -0.044252 0.636543 -0.195406
v -0.044252 1.213457 -0.195406
v -0.044252 1.213457 -0.980123
v -0.044252 0.636543 -0.980123
v -0.030118 1.830123 -0.195406
v -0.030118 1.253210 -0.195406
v -0.030118 1.253210 -0.980123
v -0.030118 1.830123 -0.980123
v -0.030118 0.596790 -0.195406
v -0.030118 0.019877 -0.195406
v -0.030118 0.019877 -0.980123
v -0.030118 0.596790 -0.980123
v -0.030118 1.213457 -0.195406
v -0.030118 0.636543 -0.195406
v -0.030118 0.636543 -0.980123
v -0.030118 1.213457 -0.980123
v 0.030118 1.213457 -0.980123
v 0.030118 0.636543 -0.980123
v 0.030118 0.636543 -0.195406
v 0.030118 1.213457 -0.195406
v 0.030118 0.596790 -0.980123
v 0.030118 0.019877 -0.980123
v 0.030118 0.019877 -0.195406
v 0.030118 0.596790 -0.195406
v 0.030118 1.830123 -0.980123
v 0.030118 1.253210 -0.980123
v 0.030118 1.253210 -0.195406
v 0.030118 1.830123 -0.195406
v -0.030118 1.261371 -0.203567
v -0.030118 1.821962 -0.203567
v -0.030118 1.821962 -0.971962
v -0.030118 1.261371 -0.971962
v -0.030118 0.028038 -0.203567
v -0.030118 0.588629 -0.203567
v -0.030118 0.588629 -0.971962
v -0.030118 0.028038 -0.971962
v -0.030118 0.644704 -0.203567
v -0.030118 1.205296 -0.203567
v -0.030118 1.205296 -0.971962
v -0.030118 0.644704 -0.971962
v 0.030118 0.644704 -0.971962
v 0.030118 1.205296 -0.971962
v 0.030118 1.205296 -0.203567
v 0.030118 0.644704 -0.203567
v 0.030118 0.028038 -0.971962
v 0.030118 0.588629 -0.971962
v 0.030118 0.588629 -0.203567
v 0.030118 0.028038 -0.203567
v 0.030118 1.261371 -0.971962
v 0.030118 1.821962 -0.971962
v 0.030118 1.821962 -0.203567
v 0.030118 1.261371 -0.203567
v -0.042380 1.821962 -0.203567
v -0.042380 1.261371 -0.203567
v -0.042380 1.261371 -0.971962
v -0.042380 1.821962 -0.971962
v -0.042380 0.588629 -0.203567
v -0.042380 0.028038 -0.203567
v -0.042380 0.028038 -0.971962
v -0.042380 0.588629 -0.971962
v -0.042380 0.958074 -0.237793
v -0.042380 0.891926 -0.237793
v -0.042380 0.891926 -0.937736
v -0.042380 0.958074 -0.937736
v 0.007983 0.484841 0.000000
v 0.007983 1.365159 0.000000
v -0.007983 1.365159 0.000000
v -0.007983 0.484841 0.000000
v -0.007983 0.484841 -0.002012
v 0.007983 0.484841 -0.002012
v -0.007983 1.365159 -0.002012
v 0.007983 1.365159 -0.002012
v -0.042252 0.000000 0.000000
v -0.044252 0.000000 -0.002000
v -0.044252 1.850000 -0.002000
v -0.042252 1.850000 0.000000
v 0.044252 0.000000 -0.002000
v 0.042252 0.000000 0.000000
v 0.042252 1.850000 0.000000
v 0.044252 1.850000 -0.002000
v -0.044252 0.467560 -0.002000
v -0.042252 0.465842 0.000000
v -0.044252 1.382440 -0.002000
v -0.042252 1.384158 0.000000
v 0.042252 0.465842 0.000000
v 0.042252 0.616667 -0.175529
v 0.044252 0.615748 -0.177529
v 0.044252 1.234092 -0.177529
v 0.042252 1.233333 -0.175529
v 0.044825 1.266755 -0.053911
v 0.046825 1.271111 -0.051911
v 0.046825 0.578889 -0.051911
v 0.044825 0.583245 -0.053911
v 0.046825 0.640504 -0.123618
v 0.044825 0.641423 -0.121618
v 0.044825 1.208578 -0.121618
v 0.046825 1.209496 -0.123618
v 0.046825 1.357034 -0.012455
v 0.044825 1.361390 -0.010455
v 0.044825 0.488610 -0.010455
v 0.046825 0.492966 -0.012455
v 0.044825 0.621468 -0.165074
v 0.046825 0.622386 -0.163074
v 0.046825 1.227614 -0.163074
v 0.044825 1.228532 -0.165074
v 0.042252 0.636543 -0.980123
v 0.044252 0.634543 -0.982123
v 0.044252 1.215457 -0.982123
v 0.042252 1.213457 -0.980123
v 0.044252 1.215457 -0.193406
v 0.042252 1.213457 -0.195406
v 0.042252 0.636543 -0.195406
v 0.044252 0.634543 -0.193406
v 0.042252 0.019877 -0.980123
v 0.044252 0.017877 -0.982123
v 0.044252 0.598790 -0.982123
v 0.042252 0.596790 -0.980123
v 0.044252 0.598790 -0.193406
v 0.042252 0.596790 -0.195406
v 0.042252 0.019877 -0.195406
v 0.044252 0.017877 -0.193406
v 0.042252 1.253210 -0.980123
v 0.044252 1.251210 -0.982123
v 0.044252 1.832123 -0.982123
v 0.042252 1.830123 -0.980123
v 0.044252 1.832123 -0.193406
v 0.042252 1.830123 -0.195406
v 0.042252 1.253210 -0.195406
v 0.044252 1.251210 -0.193406
v 0.040380 1.205296 -0.971962
v 0.042380 0.957806 -0.935736
v 0.042380 0.892195 -0.935736
v 0.040380 0.644704 -0.971962
v 0.042380 0.892195 -0.239793
v 0.040380 0.644704 -0.203567
v 0.040380 1.205296 -0.203567
v 0.042380 0.957806 -0.239793
v 0.040380 0.588629 -0.971962
v 0.042380 0.586629 -0.969962
v 0.042380 0.030038 -0.969962
v 0.040380 0.028038 -0.971962
v 0.042380 0.030038 -0.205567
v 0.040380 0.028038 -0.203567
v 0.040380 0.588629 -0.203567
v 0.042380 0.586629 -0.205567
v 0.040380 1.821962 -0.971962
v 0.042380 1.819963 -0.969962
v 0.042380 1.263371 -0.969962
v 0.040380 1.261371 -0.971962
v 0.042380 1.263371 -0.205567
v 0.040380 1.261371 -0.203567
v 0.040380 1.821962 -0.203567
v 0.042380 1.819963 -0.205567
v 0.042252 1.384158 0.000000
v 0.044252 1.384911 -0.002000
v 0.042252 1.386624 -0.000000
v 0.040252 1.384158 0.000000
v 0.044252 0.464923 -0.002000
v 0.043043 0.466522 -0.000791
v -0.042380 1.205296 -0.203567
v -0.042380 0.644704 -0.203567
v -0.042380 0.644704 -0.971962
v -0.042380 1.205296 -0.971962
v 0.042380 1.203296 -0.969962
v 0.042380 0.646704 -0.969962
v 0.042380 0.646704 -0.205567
v 0.042380 1.203296 -0.205567
v -0.027451 0.953238 -0.242629
v -0.027451 0.896762 -0.242629
v -0.027451 0.896762 -0.932900
v -0.027451 0.953238 -0.932900
v 0.027451 0.952969 -0.930900
v 0.027451 0.897031 -0.930900
v 0.027451 0.897031 -0.244629
v 0.027451 0.952969 -0.244629
v -0.027451 0.958074 -0.237793
v -0.027451 0.891926 -0.237793
v -0.027451 0.891926 -0.937736
v -0.027451 0.958074 -0.937736
v 0.027451 0.957806 -0.935736
v 0.027451 0.892195 -0.935736
v 0.027451 0.892195 -0.239793
v 0.027451 0.957806 -0.239793
v -0.023085 0.953238 -0.242629
v -0.023085 0.896762 -0.242629
v -0.023085 0.896762 -0.932900
v -0.023085 0.953238 -0.932900
v 0.023085 0.952969 -0.930900
v 0.023085 0.897031 -0.930900
v 0.023085 0.897031 -0.244629
v 0.023085 0.952969 -0.244629
vn -0.0000 -1.0000 -0.0000
vn -0.0000 -0.0000 -1.0000
vn -0.0000 0.7585 0.6517
vn -0.0000 1.0000 -0.0000
vn -0.0000 -0.0000 1.0000
vn 1.0000 -0.0000 -0.0000
vn -1.0000 -0.0000 -0.0000
vn -0.0000 -0.7585 0.6517
vn 0.7071 -0.0000 0.7071
vn -0.0000 0.7585 -0.6517
vn -0.0000 -0.7585 -0.6517
vn -0.7071 -0.0000 0.7071
vn -0.7071 -0.0000 -0.7071
vn 0.7071 -0.5363 -0.4608
vn 0.7071 0.5363 -0.4608
vn 0.7071 -0.0000 -0.7071
vn 0.7071 0.5363 0.4608
vn 0.7071 -0.5363 0.4608
vn 0.7071 0.7071 -0.0000
vn 0.7071 -0.7071 -0.0000
vn 0.6842 -0.5531 0.4753
vt 0.538981 0.504969
vt 0.538981 0.701149
vt 0.541667 0.250000
vt 0.625000 0.250000
vt 0.625000 0.500000
vt 0.541667 0.500000
vt 0.458333 0.043882
vt 0.458333 0.000500
vt 0.458333 0.000000
vt 0.625000 0.706118
vt 0.875000 0.706118
vt 0.875000 0.749500
vt 0.869350 0.750000
vt 0.630650 0.750000
vt 0.625000 0.749500
vt 0.375000 0.755649
vt 0.458333 0.755649
vt 0.458333 0.994351
vt 0.375000 0.994351
vt 0.458209 0.705618
vt 0.458333 0.500000
vt 0.460749 0.504469
vt 0.460749 0.701649
vt 0.541667 0.000500
vt 0.625000 0.000500
vt 0.625000 0.043882
vt 0.541667 0.043882
vt 0.541769 0.705618
vt 0.539251 0.701649
vt 0.539251 0.504469
vt 0.541769 0.705618
vt 0.458209 0.705618
vt 0.460749 0.701649
vt 0.539251 0.701649
vt 0.375000 0.250000
vt 0.458333 0.250000
vt 0.375000 0.500000
vt 0.377686 0.245031
vt 0.377686 0.048851
vt 0.461019 0.048851
vt 0.538981 0.048851
vt 0.541667 0.000000
vt 0.541667 0.000500
vt 0.125000 0.706118
vt 0.375000 0.706118
vt 0.375000 0.749500
vt 0.369351 0.750000
vt 0.130649 0.750000
vt 0.125000 0.749500
vt 0.544353 0.245031
vt 0.544353 0.048851
vt 0.455647 0.048851
vt 0.875000 0.500000
vt 0.125000 0.500000
vt 0.622314 0.048851
vt 0.375000 0.749500
vt 0.457863 0.749500
vt 0.458333 0.753216
vt 0.534727 0.736522
vt 0.465273 0.736522
vt 0.539943 0.264053
vt 0.460057 0.264053
vt 0.458209 0.705618
vt 0.377416 0.701649
vt 0.455918 0.701649
vt 0.540369 0.002614
vt 0.459631 0.002614
vt 0.459631 0.747386
vt 0.540369 0.747386
vt 0.541667 0.750000
vt 0.458333 0.750000
vt 0.459846 0.708732
vt 0.458333 0.706118
vt 0.540154 0.708732
vt 0.541667 0.706118
vt 0.459846 0.041268
vt 0.540154 0.041268
vt 0.539251 0.504469
vt 0.460749 0.504469
vt 0.465872 0.030404
vt 0.465273 0.013478
vt 0.534128 0.030404
vt 0.534727 0.013478
vt 0.534128 0.719596
vt 0.465872 0.719596
vt 0.465872 0.719596
vt 0.465013 0.737022
vt 0.534987 0.737022
vt 0.540110 0.746886
vt 0.459890 0.746886
vt 0.465595 0.719096
vt 0.459890 0.746886
vt 0.460123 0.709232
vt 0.534406 0.719096
vt 0.465595 0.719096
vt 0.460123 0.709232
vt 0.539877 0.709232
vt 0.534406 0.719096
vt 0.539877 0.709232
vt 0.540110 0.746886
vt 0.622314 0.245031
vt 0.375000 0.043882
vt 0.455647 0.245031
vt 0.538981 0.245031
vt 0.461019 0.245031
vt 0.461019 0.701149
vt 0.461019 0.504969
vt 0.541769 0.705618
vt 0.544082 0.701649
vt 0.622584 0.701649
vt 0.544082 0.504469
vt 0.544082 0.701648
vt 0.377686 0.701149
vt 0.377686 0.504969
vt 0.458011 0.705618
vt 0.455918 0.504469
vt 0.377416 0.504469
vt 0.544353 0.701149
vt 0.544353 0.504969
vt 0.622314 0.701149
vt 0.541966 0.705618
vt 0.542107 0.749500
vt 0.462122 0.699108
vt 0.462122 0.507009
vt 0.462122 0.699108
vt 0.378789 0.242991
vt 0.378789 0.050892
vt 0.462122 0.050892
vt 0.537878 0.050892
vt 0.545456 0.242991
vt 0.545455 0.050892
vt 0.454545 0.050892
vt 0.621211 0.050892
vt 0.377416 0.504469
vt 0.377416 0.701649
vt 0.622584 0.504469
vt 0.544082 0.504469
vt 0.455647 0.504969
vt 0.455647 0.701149
vt 0.455647 0.701149
vt 0.455647 0.504969
vt 0.622314 0.504969
vt 0.622584 0.701649
vt 0.622584 0.504469
vt 0.467018 0.690052
vt 0.467018 0.516066
vt 0.621211 0.242991
vt 0.454544 0.242991
vt 0.537878 0.242991
vt 0.462122 0.242991
vt 0.537878 0.507009
vt 0.537878 0.699108
vt 0.454544 0.507009
vt 0.378789 0.507009
vt 0.454544 0.699108
vt 0.378789 0.699108
vt 0.621211 0.507009
vt 0.545455 0.507009
vt 0.621211 0.699108
vt 0.545456 0.699108
vt 0.532982 0.690052
vt 0.454545 0.507009
vt 0.621211 0.699108
vt 0.379059 0.507509
vt 0.454274 0.507509
vt 0.454274 0.698608
vt 0.379059 0.698609
vt 0.537878 0.699108
vt 0.545726 0.507509
vt 0.620941 0.507509
vt 0.620941 0.698608
vt 0.545726 0.698608
vt 0.454544 0.699108
vt 0.462122 0.507009
vt 0.621211 0.699108
vt 0.378789 0.699109
vt 0.378789 0.507009
vt 0.621211 0.507009
vt 0.539943 0.485947
vt 0.460057 0.485947
vt 0.625000 0.755649
vt 0.542108 0.755649
vt 0.625000 0.000000
vt 0.458333 1.000000
vt 0.375000 1.000000
vt 0.541667 0.761299
vt 0.542108 0.755649
vt 0.625000 0.994351
vt 0.541667 0.994351
vt 0.375000 0.000500
vt 0.458333 0.000500
vt 0.458027 0.749500
vt 0.458148 0.749500
vt 0.455918 0.504469
vt 0.537608 0.507509
vt 0.462392 0.507509
vt 0.462392 0.698608
vt 0.537607 0.698608
vt 0.541667 0.749694
vt 0.458209 0.705618
vt 0.533253 0.059448
vt 0.466747 0.059448
vt 0.466747 0.234434
vt 0.533253 0.234434
vt 0.532982 0.516066
vt 0.471880 0.688843
vt 0.471880 0.517275
vt 0.528120 0.688843
vt 0.528390 0.060657
vt 0.471610 0.060657
vt 0.471610 0.233225
vt 0.528390 0.233225
vt 0.528120 0.517275
s 0
usemtl M_Noir_Bleuté
f 163/1/1 165/2/1 74/2/1 71/1/1
f 5/3/2 2/4/2 4/5/2 7/6/2
f 13/7/3 135/8/3 136/9/3 19/9/3 25/7/3
f 12/10/4 10/11/4 129/12/4 130/13/4 133/14/4 134/15/4
f 132/16/5 139/17/5 136/18/5 127/19/5
f 141/20/6 8/21/6 161/22/6 167/23/6
f 137/24/7 129/25/7 10/26/7 14/27/7
f 7/6/6 142/28/6 164/29/6 162/30/6
f 142/31/6 141/32/6 167/33/6 164/34/6
f 1/35/2 6/36/2 8/21/2 3/37/2
f 6/36/2 5/3/2 7/6/2 8/21/2
f 54/38/4 51/39/4 64/39/4 65/38/4
f 55/40/2 56/41/2 67/41/2 68/40/2
f 138/42/8 137/43/8 14/27/8 26/27/8 20/42/8
f 9/44/1 11/45/1 131/46/1 132/47/1 127/48/1 128/49/1
f 50/50/4 47/51/4 60/51/4 61/50/4
f 51/39/2 52/52/2 63/52/2 64/39/2
f 4/5/4 2/53/4 10/11/4 12/10/4
f 1/54/1 3/37/1 11/45/1 9/44/1
f 47/51/2 48/55/2 59/55/2 60/51/2
f 139/17/9 132/16/9 131/56/9 212/57/9 213/58/9
f 144/59/2 147/60/2 42/60/2 41/59/2
f 141/63/6 11/45/6 175/64/6 172/65/6
f 14/27/5 13/7/5 25/7/5 26/27/5
f 8/21/6 7/6/6 162/78/6 161/79/6
f 33/80/3 31/81/3 39/81/3 45/80/3
f 34/82/5 33/80/5 45/80/5 46/82/5
f 32/83/7 31/81/7 35/67/7 36/66/7
f 150/84/8 144/59/8 41/59/8 44/84/8
f 149/85/5 150/84/5 44/84/5 43/86/5
f 146/87/6 145/88/6 152/89/6 155/90/6
f 31/81/7 33/80/7 37/76/7 35/67/7
f 34/82/7 32/83/7 36/66/7 38/77/7
f 33/80/7 34/82/7 38/77/7 37/76/7
f 148/91/6 146/87/6 155/92/6 157/93/6
f 31/81/2 32/83/2 40/83/2 39/81/2
f 151/94/6 148/95/6 157/96/6 158/97/6
f 32/83/8 34/82/8 46/82/8 40/83/8
f 147/60/3 149/85/3 43/86/3 42/60/3
f 145/88/6 151/98/6 158/99/6 152/100/6
f 14/27/7 10/26/7 48/55/7 47/51/7
f 10/26/7 2/4/7 49/101/7 48/55/7
f 2/4/7 5/3/7 50/50/7 49/101/7
f 5/3/7 14/27/7 47/51/7 50/50/7
f 9/102/7 13/7/7 52/52/7 51/39/7
f 13/7/7 6/36/7 53/103/7 52/52/7
f 6/36/7 1/35/7 54/38/7 53/103/7
f 1/35/7 9/102/7 51/39/7 54/38/7
f 13/7/7 14/27/7 56/41/7 55/40/7
f 14/27/7 5/3/7 57/104/7 56/41/7
f 5/3/7 6/36/7 58/105/7 57/104/7
f 6/36/7 13/7/7 55/40/7 58/105/7
f 166/106/4 160/107/4 72/107/4 73/106/4
f 12/10/6 142/108/6 183/109/6 180/110/6
f 142/28/6 7/6/6 177/111/6 183/112/6
f 140/73/5 143/75/5 24/75/5 23/73/5
f 174/113/4 168/114/4 76/114/4 77/113/4
f 11/45/6 141/115/6 212/57/6 131/56/6
f 139/71/3 140/73/3 23/73/3 22/71/3
f 3/37/6 8/21/6 170/116/6 169/117/6
f 182/118/4 176/119/4 80/119/4 81/118/4
f 181/120/2 182/118/2 81/118/2 82/120/2
f 143/75/8 208/70/8 21/70/8 24/75/8
f 142/121/6 12/10/6 134/15/6 209/122/6
f 48/55/1 49/101/1 62/101/1 59/55/1
f 58/105/4 55/40/4 68/40/4 69/105/4
f 11/45/6 3/37/6 169/134/6 175/135/6
f 52/52/1 53/103/1 66/103/1 63/52/1
f 160/107/5 163/1/5 71/1/5 72/107/5
f 7/6/6 4/5/6 178/136/6 177/137/6
f 49/101/5 50/50/5 61/50/5 62/101/5
f 56/41/1 57/104/1 70/104/1 67/41/1
f 171/138/1 173/139/1 78/140/1 75/141/1
f 53/103/5 54/38/5 65/38/5 66/103/5
f 165/2/2 166/106/2 73/106/2 74/2/2
f 179/142/1 181/120/1 82/120/1 79/142/1
f 57/104/5 58/105/5 69/105/5 70/104/5
f 173/140/2 174/113/2 77/113/2 78/140/2
f 168/114/5 171/141/5 75/141/5 76/114/5
f 4/5/6 12/10/6 180/143/6 178/144/6
f 176/119/5 179/142/5 79/142/5 80/119/5
f 188/145/4 186/146/4 235/146/4 236/145/4
f 108/131/7 107/133/7 110/147/7 109/130/7
f 112/127/7 111/132/7 114/148/7 113/126/7
f 191/161/2 188/145/2 236/145/2 237/161/2
f 194/164/6 193/165/6 199/166/6 196/167/6
f 202/169/6 201/170/6 207/171/6 204/172/6
f 133/181/9 210/182/9 209/122/9 134/15/9
f 138/42/12 130/183/12 129/25/12 137/24/12
f 127/19/12 136/18/12 135/184/12 128/185/12
f 211/186/5 210/187/5 133/181/5 130/188/5 138/189/5
f 128/190/7 135/191/7 13/7/7 9/102/7
f 208/70/5 210/70/5 211/70/5
f 212/57/13 139/192/13 213/193/13
f 143/75/9 140/73/9 141/32/9 142/31/9
f 157/93/14 155/92/14 154/68/14 156/72/14
f 158/97/16 157/96/16 156/72/16 159/74/16
f 145/88/16 146/87/16 147/60/16 144/59/16
f 149/85/17 147/60/17 146/87/17 148/91/17
f 151/98/18 145/88/18 144/59/18 150/84/18
f 150/84/9 149/85/9 148/95/9 151/94/9
f 163/1/9 160/107/9 161/79/9 162/78/9
f 160/107/19 166/106/19 167/23/19 161/22/19
f 162/30/20 164/29/20 165/2/20 163/1/20
f 164/34/16 167/33/16 166/106/16 165/2/16
f 171/141/9 168/114/9 169/117/9 170/116/9
f 175/135/19 169/134/19 168/114/19 174/113/19
f 170/194/20 172/65/20 173/139/20 171/138/20
f 172/65/16 175/64/16 174/113/16 173/140/16
f 179/142/9 176/119/9 177/137/9 178/136/9
f 176/119/19 182/118/19 183/112/19 177/111/19
f 178/144/20 180/143/20 181/120/20 179/142/20
f 180/110/16 183/109/16 182/118/16 181/120/16
f 218/195/16 219/196/16 187/174/16 184/151/16
f 219/196/20 220/197/20 189/125/20 187/124/20
f 193/165/16 194/164/16 195/177/16 192/153/16
f 201/170/16 202/169/16 203/158/16 200/178/16
f 202/169/20 204/172/20 205/160/20 203/158/20
f 209/199/9 210/70/9 208/70/9
f 140/73/17 139/71/17 212/57/17 141/115/17
f 208/70/21 143/75/21 142/121/21 209/122/21
f 8/21/6 141/200/6 172/65/6 170/194/6
f 115/201/7 116/202/7 215/128/7 214/129/7
f 116/202/7 117/203/7 216/150/7 215/128/7
f 118/204/7 115/201/7 214/129/7 217/149/7
f 117/203/7 118/204/7 217/149/7 216/150/7
f 185/205/6 186/146/6 219/196/6 218/195/6
f 186/146/6 188/145/6 220/197/6 219/196/6
f 191/161/6 185/205/6 218/195/6 221/198/6
f 188/145/6 191/161/6 221/198/6 220/197/6
f 118/204/5 117/203/5 232/203/5 233/204/5
f 117/203/4 116/202/4 231/202/4 232/203/4
f 185/205/1 191/161/1 237/161/1 234/205/1
f 186/146/5 185/205/5 234/205/5 235/146/5
f 115/201/1 118/204/1 233/204/1 230/201/1
f 116/202/2 115/201/2 230/201/2 231/202/2
usemtl M_Noir_Profond
f 121/61/6 122/62/6 123/62/6 125/61/6
f 15/66/7 27/67/7 19/9/7 20/42/7
f 28/68/6 16/69/6 21/70/6 22/71/6
f 17/72/6 28/68/6 22/71/6 23/73/6
f 16/69/6 18/74/6 24/75/6 21/70/6
f 27/67/7 29/76/7 25/7/7 19/9/7
f 30/77/7 15/66/7 20/42/7 26/27/7
f 29/76/7 30/77/7 26/27/7 25/7/7
f 18/74/6 17/72/6 23/73/6 24/75/6
f 15/66/10 30/77/10 38/77/10 36/66/10
f 28/68/11 17/72/11 156/72/11 154/68/11
f 18/74/10 16/69/10 153/69/10 159/74/10
f 30/77/2 29/76/2 37/76/2 38/77/2
f 29/76/11 27/67/11 35/67/11 37/76/11
f 17/72/2 18/74/2 159/74/2 156/72/2
f 27/67/5 15/66/5 36/66/5 35/67/5
f 16/69/5 28/68/5 154/68/5 153/69/5
f 98/123/1 95/124/1 187/124/1 189/125/1
f 90/126/1 87/127/1 112/127/1 113/126/1
f 91/128/5 92/129/5 214/129/5 215/128/5
f 86/130/1 83/131/1 108/131/1 109/130/1
f 87/127/5 88/132/5 111/132/5 112/127/5
f 83/131/5 84/133/5 107/133/5 108/131/5
f 60/51/7 59/55/7 84/133/7 83/131/7
f 59/55/7 62/101/7 85/147/7 84/133/7
f 62/101/7 61/50/7 86/130/7 85/147/7
f 61/50/7 60/51/7 83/131/7 86/130/7
f 64/39/7 63/52/7 88/132/7 87/127/7
f 63/52/7 66/103/7 89/148/7 88/132/7
f 66/103/7 65/38/7 90/126/7 89/148/7
f 65/38/7 64/39/7 87/127/7 90/126/7
f 68/40/7 67/41/7 92/129/7 91/128/7
f 67/41/7 70/104/7 93/149/7 92/129/7
f 70/104/7 69/105/7 94/150/7 93/149/7
f 69/105/7 68/40/7 91/128/7 94/150/7
f 72/107/6 71/1/6 96/151/6 95/124/6
f 71/1/6 74/2/6 97/152/6 96/151/6
f 74/2/6 73/106/6 98/123/6 97/152/6
f 73/106/6 72/107/6 95/124/6 98/123/6
f 76/114/6 75/141/6 100/153/6 99/154/6
f 75/141/6 78/140/6 101/155/6 100/153/6
f 78/140/6 77/113/6 102/156/6 101/155/6
f 77/113/6 76/114/6 99/154/6 102/156/6
f 80/119/6 79/142/6 104/157/6 103/158/6
f 79/142/6 82/120/6 105/159/6 104/157/6
f 82/120/6 81/118/6 106/160/6 105/159/6
f 81/118/6 80/119/6 103/158/6 106/160/6
f 96/151/4 97/152/4 190/152/4 184/151/4
f 100/153/4 101/155/4 198/155/4 192/162/4
f 104/157/4 105/159/4 206/163/4 200/157/4
f 84/133/4 85/147/4 110/147/4 107/133/4
f 94/150/1 91/128/1 215/128/1 216/150/1
f 88/132/4 89/148/4 114/148/4 111/132/4
f 97/152/5 98/123/5 189/123/5 190/168/5
f 85/147/2 86/130/2 109/130/2 110/147/2
f 92/129/4 93/149/4 217/149/4 214/129/4
f 101/155/5 102/156/5 197/156/5 198/173/5
f 89/148/2 90/126/2 113/126/2 114/148/2
f 95/124/2 96/151/2 184/151/2 187/174/2
f 105/159/5 106/160/5 205/160/5 206/175/5
f 93/149/2 94/150/2 216/150/2 217/149/2
f 102/156/1 99/154/1 195/154/1 197/176/1
f 99/154/2 100/153/2 192/153/2 195/177/2
f 106/160/1 103/158/1 203/158/1 205/160/1
f 103/158/2 104/157/2 200/178/2 203/158/2
f 22/71/5 21/70/5 120/179/5 119/180/5
f 21/70/5 20/42/5 121/61/5 120/179/5
f 20/42/5 19/9/5 122/62/5 121/61/5
f 19/9/5 22/71/5 119/180/5 122/62/5
f 120/179/1 121/61/1 125/61/1 126/179/1
f 122/62/4 119/180/4 124/180/4 123/62/4
f 119/180/7 120/179/7 126/179/7 124/180/7
f 153/69/9 154/68/9 155/90/9 152/89/9
f 159/74/15 153/69/15 152/100/15 158/99/15
f 184/151/19 190/152/19 221/198/19 218/195/19
f 190/168/9 189/123/9 220/197/9 221/198/9
f 197/176/20 195/154/20 194/164/20 196/167/20
f 192/162/19 198/155/19 199/166/19 193/165/19
f 198/173/9 197/156/9 196/167/9 199/166/9
f 200/157/19 206/163/19 207/171/19 201/170/19
f 206/175/9 205/160/9 204/172/9 207/171/9
f 228/206/4 227/207/4 243/207/4 244/206/4
f 229/208/2 228/206/2 244/206/2 245/208/2
f 222/209/7 223/210/7 231/202/7 230/201/7
f 223/210/7 224/211/7 232/203/7 231/202/7
f 225/212/7 222/209/7 230/201/7 233/204/7
f 224/211/7 225/212/7 233/204/7 232/203/7
f 226/213/6 227/207/6 235/146/6 234/205/6
f 227/207/6 228/206/6 236/145/6 235/146/6
f 229/208/6 226/213/6 234/205/6 237/161/6
f 228/206/6 229/208/6 237/161/6 236/145/6
f 225/212/5 224/211/5 240/211/5 241/212/5
f 224/211/4 223/210/4 239/210/4 240/211/4
f 226/213/1 229/208/1 245/208/1 242/213/1
f 227/207/5 226/213/5 242/213/5 243/207/5
f 222/209/1 225/212/1 241/212/1 238/209/1
f 223/210/2 222/209/2 238/209/2 239/210/2
usemtl M_Orange
f 43/86/6 44/84/6 41/59/6 42/60/6
f 39/81/7 40/83/7 46/82/7 45/80/7
usemtl M_Cyan
f 124/180/5 126/179/5 125/61/5 123/62/5
f 243/207/6 242/213/6 245/208/6 244/206/6
f 239/210/7 238/209/7 241/212/7 240/211/7
