# Blender 4.2.3 LTS
# www.blender.org
mtllib SM_DoorFrame_Single.mtl
o SM_DoorFrame_Single
v -0.200000 0.000000 1.000000
v -0.200000 2.000000 1.000000
v -0.200000 0.000000 -1.000000
v -0.200000 2.000000 -1.000000
v 0.200000 0.000000 1.000000
v 0.200000 2.000000 1.000000
v 0.200000 0.000000 -1.000000
v 0.200000 2.000000 -1.000000
v -0.200000 0.000000 -0.504499
v -0.200000 0.000000 0.504498
v -0.200000 2.000000 0.504498
v -0.200000 2.000000 -0.504499
v 0.200000 0.000000 0.504498
v 0.200000 0.000000 -0.504499
v 0.200000 2.000000 -0.504499
v 0.200000 2.000000 0.504498
v -0.200000 1.860049 1.000000
v -0.200000 1.860049 -1.000000
v 0.200000 1.860049 -1.000000
v 0.200000 1.860049 1.000000
v 0.185235 1.760109 -0.504499
v 0.185235 1.760109 0.504498
v -0.185235 1.760109 0.504498
v -0.185235 1.760109 -0.504499
v 0.066667 0.000000 -1.000000
v -0.066667 0.000000 -1.000000
v -0.066667 2.000000 -1.000000
v 0.066667 2.000000 -1.000000
v -0.066667 0.000000 1.000000
v 0.066667 0.000000 1.000000
v 0.066667 2.000000 1.000000
v -0.066667 2.000000 1.000000
v -0.066667 2.000000 -0.504499
v 0.066667 2.000000 -0.504499
v -0.066667 2.000000 0.504498
v 0.066667 2.000000 0.504498
v 0.066667 1.860049 1.000000
v -0.066667 1.860049 1.000000
v -0.066667 1.860049 -1.000000
v 0.066667 1.860049 -1.000000
v 0.066667 0.000000 -0.433333
v -0.066667 0.000000 -0.433333
v 0.066667 0.000000 0.433333
v -0.066667 0.000000 0.433333
v 0.066667 1.704704 -0.433333
v -0.066667 1.704704 -0.433333
v 0.066667 1.704704 0.433333
v -0.066667 1.704704 0.433333
v 0.133333 0.000000 -0.504499
v 0.133333 0.000000 0.504498
v 0.148099 1.760109 -0.504499
v 0.148099 1.760109 0.504498
v -0.133333 0.000000 -0.504499
v -0.133333 0.000000 0.504498
v -0.148099 1.760109 -0.504499
v -0.148099 1.760109 0.504498
v 0.050583 0.000000 -0.458895
v -0.050583 0.000000 -0.458895
v 0.050583 0.000000 0.458895
v -0.050583 0.000000 0.458895
v 0.050583 1.704704 -0.458895
v -0.050583 1.704704 -0.458895
v 0.050583 1.704704 0.458895
v -0.050583 1.704704 0.458895
v 0.050583 1.720537 -0.433333
v -0.050583 1.720537 -0.433333
v 0.050583 1.720537 0.433333
v -0.050583 1.720537 0.433333
v 0.050583 1.720537 -0.458895
v -0.050583 1.720537 -0.458895
v 0.050583 1.720537 0.458895
v -0.050583 1.720537 0.458895
v -0.200000 0.368778 -1.000000
v 0.200000 0.325045 -1.000000
v 0.185235 1.565077 -0.504499
v 0.185235 0.339810 -0.504499
v -0.185235 1.565077 -0.504499
v -0.185235 0.339810 -0.504499
v -0.066667 1.565077 -1.000000
v -0.066667 0.325045 -1.000000
v 0.066667 1.565077 -1.000000
v 0.066667 0.325045 -1.000000
v 0.066667 1.471517 -0.433333
v 0.066667 0.278264 -0.433333
v -0.066667 1.471517 -0.433333
v -0.066667 0.278264 -0.433333
v 0.148099 1.565077 -0.504499
v 0.148099 0.339810 -0.504499
v -0.148099 1.565077 -0.504499
v -0.148099 0.339810 -0.504499
v 0.050583 1.471517 -0.458895
v 0.050583 0.278264 -0.458895
v -0.050583 1.471517 -0.458895
v -0.050583 0.278264 -0.458895
v 0.200000 0.368778 1.000000
v 0.185235 1.565077 0.504498
v 0.185235 0.339810 0.504498
v -0.185235 1.565077 0.504498
v -0.185235 0.339810 0.504498
v -0.200000 0.368778 1.000000
v -0.200000 1.608811 1.000000
v 0.066667 1.565077 1.000000
v 0.066667 0.325045 1.000000
v -0.066667 1.565077 1.000000
v -0.066667 0.325045 1.000000
v 0.066667 0.278264 0.433333
v 0.066667 1.471517 0.433333
v -0.066667 0.278264 0.433333
v -0.066667 1.471517 0.433333
v 0.148099 0.339810 0.504498
v 0.148099 1.565077 0.504498
v -0.148099 0.339810 0.504498
v -0.148099 1.565077 0.504498
v 0.050583 0.278264 0.458895
v 0.050583 1.471517 0.458895
v -0.050583 0.278264 0.458895
v -0.050583 1.471517 0.458895
v -0.200000 0.000000 0.752249
v 0.200000 2.000000 0.752249
v -0.200000 2.000000 0.752249
v 0.200000 0.000000 0.752249
v 0.066667 2.000000 0.752249
v -0.066667 2.000000 0.752249
v 0.200000 0.368778 0.752249
v 0.200000 1.608811 0.690953
v -0.200000 0.368778 0.752249
v -0.200000 1.608811 0.690953
v -0.200000 2.000000 -0.752249
v 0.200000 0.000000 -0.752249
v -0.200000 0.000000 -0.752249
v 0.200000 2.000000 -0.752249
v 0.066667 2.000000 -0.752249
v -0.066667 2.000000 -0.752249
v -0.200000 0.368778 -0.752249
v -0.200000 1.608811 -0.690953
v 0.200000 0.368778 -0.752249
v 0.200000 1.608811 -0.690953
v -0.200000 1.668829 1.000000
v 0.066667 1.630698 0.433333
v -0.066667 1.630698 0.433333
v 0.148099 1.712563 0.504498
v -0.148099 1.712563 0.504498
v 0.050583 1.630698 0.458895
v -0.050583 1.630698 0.458895
v 0.200000 1.712563 1.000000
v 0.185235 1.712563 0.504498
v -0.185235 1.712563 0.504498
v 0.066667 1.712563 1.000000
v -0.066667 1.712563 1.000000
v 0.200000 1.712563 0.752249
v -0.200000 1.712563 0.752249
v -0.200000 1.712563 -1.000000
v 0.200000 1.712563 -1.000000
v 0.185235 1.712563 -0.504499
v -0.185235 1.712563 -0.504499
v -0.066667 1.712563 -1.000000
v 0.066667 1.712563 -1.000000
v 0.066667 1.630698 -0.433333
v -0.066667 1.630698 -0.433333
v 0.148099 1.712563 -0.504499
v -0.148099 1.712563 -0.504499
v 0.050583 1.630698 -0.458895
v -0.050583 1.630698 -0.458895
v -0.200000 1.712563 -0.752249
v 0.200000 1.712563 -0.752249
v -0.200000 0.000000 -0.628374
v 0.200000 2.000000 -0.628374
v 0.200000 1.860049 -0.628374
v 0.066667 2.000000 -0.628374
v -0.066667 2.000000 -0.628374
v 0.200000 0.368778 -0.628374
v 0.200000 1.565077 -0.628374
v -0.200000 2.000000 -0.628374
v 0.200000 0.000000 -0.628374
v -0.200000 1.860049 -0.628374
v -0.200000 0.368778 -0.628374
v -0.200000 1.608811 -0.584641
v -0.200000 1.668829 -0.628374
v 0.200000 1.668829 -0.628374
v -0.200000 2.000000 0.628374
v 0.200000 0.000000 0.628374
v -0.200000 1.860049 0.628374
v -0.200000 0.368778 0.628374
v -0.200000 1.565077 0.628374
v -0.200000 0.000000 0.628374
v 0.200000 2.000000 0.628374
v 0.200000 1.860049 0.628374
v 0.066667 2.000000 0.628374
v -0.066667 2.000000 0.628374
v 0.200000 0.368778 0.628374
v 0.200000 1.608811 0.584640
v 0.200000 1.668829 0.628374
v -0.200000 1.668829 0.628374
v 0.225909 1.860049 0.752249
v -0.225909 1.860049 -0.752249
v -0.225909 1.860049 0.752249
v 0.225909 1.860049 -0.752249
v -0.225909 1.860049 0.983748
v -0.209656 1.860049 1.000000
v -0.225909 1.983748 0.983748
v -0.209656 2.000000 1.000000
v -0.225909 1.983748 -0.752249
v -0.209656 2.000000 -0.752249
v -0.225909 1.983748 -0.983748
v -0.209656 2.000000 -1.000000
v 0.225909 1.983748 0.752249
v 0.209656 2.000000 0.752249
v 0.209656 2.000000 1.000000
v 0.225909 1.983748 0.983748
v -0.225909 1.728815 0.983748
v -0.209656 1.712563 1.000000
v -0.209656 1.860049 -1.000000
v -0.225909 1.860049 -0.983748
v 0.225909 1.983748 -0.983748
v 0.209656 2.000000 -1.000000
v 0.225909 1.860049 -0.983748
v 0.209656 1.860049 -1.000000
v 0.209656 1.860049 1.000000
v 0.225909 1.860049 0.983748
v 0.225909 1.983748 0.644626
v 0.209656 2.000000 0.628374
v -0.209656 2.000000 0.752249
v -0.225909 1.983748 0.752249
v 0.225909 1.860049 0.644626
v 0.209656 1.860049 0.628374
v -0.225909 1.983748 -0.644626
v -0.209656 2.000000 -0.628374
v 0.209656 2.000000 -0.752249
v 0.225909 1.983748 -0.752249
v -0.225909 1.860049 -0.644626
v -0.209656 1.860049 -0.628374
v 0.225909 1.728815 0.983748
v 0.209656 1.712563 1.000000
v 0.225909 1.728815 0.752249
v 0.209656 1.712563 0.752249
v -0.225909 1.728815 0.752249
v -0.209656 1.712563 0.752249
v 0.225909 1.728815 0.644626
v 0.209656 1.712563 0.628374
v -0.209656 1.712563 -1.000000
v -0.225909 1.728815 -0.983748
v 0.225909 1.728815 -0.983748
v 0.209656 1.712563 -1.000000
v -0.225909 1.728815 -0.752249
v -0.209656 1.712563 -0.752249
v 0.225909 1.728815 -0.752249
v 0.209656 1.712563 -0.752249
v -0.209656 1.712563 -0.628374
v -0.225909 1.728815 -0.644626
v 0.209656 2.000000 -0.628374
v 0.225909 1.983748 -0.644626
v 0.225909 1.860049 -0.644626
v 0.209656 1.860049 -0.628374
v 0.225909 1.728815 -0.644626
v 0.209656 1.712563 -0.628374
v -0.209656 2.000000 0.628374
v -0.225909 1.983748 0.644626
v -0.225909 1.860049 0.644626
v -0.209656 1.860049 0.628374
v -0.225909 1.728815 0.644626
v -0.209656 1.712563 0.628374
v -0.229037 0.000000 0.752249
v -0.229037 0.000000 1.029037
v -0.229037 0.278670 -1.029037
v -0.229037 0.000000 -1.029037
v -0.066667 0.000000 -1.029037
v 0.229037 0.278670 -1.029037
v 0.229037 0.000000 -1.029037
v 0.229037 0.000000 -0.752249
v 0.229037 0.278670 1.029037
v 0.229037 0.000000 1.029037
v 0.066667 0.000000 1.029037
v -0.229037 0.000000 -0.628374
v -0.229037 0.000000 -0.504499
v 0.229037 0.000000 0.628374
v 0.229037 0.000000 0.504498
v 0.229037 0.278670 -0.504499
v 0.229037 0.000000 -0.504499
v 0.229037 0.278670 0.504498
v -0.229037 0.278670 0.504498
v -0.229037 0.000000 0.504498
v -0.229037 0.278670 -0.504499
v 0.066667 0.000000 -1.029037
v -0.066667 0.000000 1.029037
v -0.066667 0.278670 -1.029037
v 0.066667 0.278670 -1.029037
v 0.066667 0.278670 1.029037
v -0.066667 0.278670 1.029037
v -0.229037 0.278670 -0.752249
v 0.229037 0.278670 -0.628374
v -0.229037 0.278670 1.029037
v 0.229037 0.278670 0.752249
v -0.229037 0.278670 0.628374
v -0.229037 0.000000 0.628374
v 0.229037 0.000000 0.752249
v 0.229037 0.278670 0.628374
v -0.229037 0.278670 0.752249
v 0.229037 0.000000 -0.628374
v -0.229037 0.000000 -0.752249
v -0.229037 0.278670 -0.628374
v 0.229037 0.278670 -0.752249
v 0.185235 0.445061 0.504498
v -0.185235 0.445061 0.504498
v 0.066667 0.445061 1.000000
v -0.066667 0.445061 1.000000
v 0.066667 0.374891 0.433333
v -0.066667 0.374891 0.433333
v 0.148099 0.445061 0.504498
v -0.148099 0.445061 0.504498
v 0.050583 0.374891 0.458895
v -0.050583 0.374891 0.458895
v -0.200000 0.445061 0.690953
v 0.200000 0.445061 0.690953
v 0.200000 0.445061 0.628374
v -0.200000 0.445061 0.628374
v 0.185235 0.445061 -0.504499
v -0.185235 0.445061 -0.504499
v -0.066667 0.445061 -1.000000
v 0.066667 0.445061 -1.000000
v 0.066667 0.374891 -0.433333
v -0.066667 0.374891 -0.433333
v 0.148099 0.445061 -0.504499
v -0.148099 0.445061 -0.504499
v 0.050583 0.374891 -0.458895
v -0.050583 0.374891 -0.458895
v 0.200000 0.445061 -0.690953
v -0.200000 0.445061 -0.690953
v -0.200000 0.445061 -0.628374
v 0.200000 0.445061 -0.628374
v -0.066667 1.482911 -0.985723
v 0.066667 1.482911 -0.985723
v -0.185723 1.482911 -0.752249
v 0.066667 1.482911 0.985723
v -0.066667 1.482911 0.985723
v 0.185723 1.482911 0.752249
v -0.185723 1.482911 0.752249
v 0.185723 1.482911 -0.752249
v 0.066667 0.527227 0.985723
v -0.066667 0.527227 0.985723
v -0.185723 0.527227 0.752249
v 0.185723 0.527227 0.752249
v -0.066667 0.527227 -0.985723
v 0.066667 0.527227 -0.985723
v 0.185723 0.527227 -0.752249
v -0.185723 0.527227 -0.752249
v -0.200000 2.000000 0.327536
v -0.200000 2.000000 -0.327537
v 0.200000 2.000000 -0.327537
v 0.200000 2.000000 0.327536
v -0.200000 1.774875 0.327536
v -0.200000 1.774875 -0.327537
v 0.200000 1.774875 -0.327537
v 0.200000 1.774875 0.327536
v 0.066667 2.000000 -0.327537
v 0.066667 2.000000 0.327536
v -0.066667 2.000000 -0.327537
v -0.066667 2.000000 0.327536
v 0.066667 1.704704 0.281334
v 0.066667 1.704704 -0.281334
v -0.066667 1.704704 0.281334
v -0.066667 1.704704 -0.281334
v 0.133333 1.774875 0.327536
v 0.133333 1.774875 -0.327537
v -0.133333 1.774875 0.327536
v -0.133333 1.774875 -0.327537
v 0.050583 1.720537 0.281334
v 0.050583 1.720537 -0.281334
v -0.050583 1.720537 0.281334
v -0.050583 1.720537 -0.281334
v -0.212251 2.012251 0.327536
v -0.212251 2.012251 -0.327537
v 0.212251 2.012251 -0.327537
v 0.212251 2.012251 0.327536
v -0.212251 1.762624 0.327536
v -0.212251 1.762624 -0.327537
v 0.212251 1.762624 -0.327537
v 0.212251 1.762624 0.327536
v 0.066667 2.012251 -0.327537
v 0.066667 2.012251 0.327536
v -0.066667 2.012251 -0.327537
v -0.066667 2.012251 0.327536
v 0.133333 1.762624 0.327536
v 0.133333 1.762624 -0.327537
v -0.133333 1.762624 0.327536
v -0.133333 1.762624 -0.327537
v -0.133333 1.774875 -0.504499
v -0.200000 1.774875 -0.504499
v -0.133333 1.774875 0.504498
v -0.200000 1.774875 0.504498
v 0.200000 1.774875 -0.504499
v 0.133333 1.774875 -0.504499
v 0.200000 1.774875 0.504498
v 0.133333 1.774875 0.504498
v 0.133333 1.712563 0.504498
v -0.133333 1.712563 0.504498
v 0.200000 1.668829 -0.548233
v 0.200000 1.565077 -0.548233
v 0.200000 0.445061 -0.548233
v 0.200000 0.368778 -0.548233
v -0.200000 1.668829 -0.548233
v -0.200000 1.565077 -0.548233
v -0.200000 0.445061 -0.548233
v -0.200000 0.368778 -0.548233
v 0.133333 1.712563 -0.504499
v 0.133333 1.565077 -0.504499
v 0.133333 0.445061 -0.504499
v 0.133333 0.325045 -0.504499
v -0.133333 1.712563 -0.504499
v -0.133333 1.565077 -0.504499
v -0.133333 0.445061 -0.504499
v -0.133333 0.325045 -0.504499
v 0.200000 1.668829 0.548232
v 0.200000 1.565077 0.548232
v 0.200000 0.445061 0.548232
v 0.200000 0.368778 0.548232
v -0.200000 1.668829 0.548232
v -0.200000 1.565077 0.548232
v -0.200000 0.445061 0.548232
v -0.200000 0.368778 0.548232
v 0.133333 0.445061 0.504498
v 0.133333 1.565077 0.504498
v -0.133333 0.445061 0.504498
v -0.133333 1.565077 0.504498
v 0.133333 0.325045 0.504498
v -0.133333 0.325045 0.504498
v 0.148099 1.565077 -0.508006
v -0.185235 1.565077 -0.508006
v 0.148099 1.565077 0.508006
v -0.148099 1.565077 0.508006
v -0.185235 1.565077 0.508006
v 0.185235 1.712563 0.508006
v 0.148099 1.712563 0.508006
v 0.185235 1.712563 -0.508006
v 0.148099 1.712563 -0.508006
v -0.148099 1.712563 -0.508006
v -0.185235 1.712563 -0.508006
v -0.148099 0.445061 0.508006
v 0.148099 0.445061 0.508006
v 0.148099 0.445061 -0.508006
v -0.148099 1.760109 0.508006
v -0.185235 1.760109 0.508006
v 0.185235 1.760109 -0.508006
v 0.148099 1.760109 -0.508006
v 0.148099 1.760109 0.508006
v -0.185235 0.339810 -0.508006
v -0.148099 0.339810 -0.508006
v 0.185235 0.339810 0.508006
v 0.182052 1.565077 -0.508006
v -0.148099 1.565077 -0.508006
v -0.182052 1.565077 -0.508006
v 0.185235 1.565077 0.508006
v 0.151281 1.565077 0.508006
v -0.151281 1.565077 0.508006
v -0.182052 1.565077 0.508006
v -0.148099 1.712563 0.508006
v -0.185235 1.712563 0.508006
v 0.182052 1.712563 -0.508006
v -0.151281 0.445061 0.508006
v -0.182052 0.445061 0.508006
v 0.185235 0.445061 0.508006
v 0.151281 0.445061 0.508006
v -0.148099 0.445061 -0.508006
v -0.185235 0.445061 -0.508006
v 0.182052 0.445061 -0.508006
v -0.151281 1.756927 -0.508006
v -0.182052 1.756927 -0.508006
v -0.151281 1.756927 0.508006
v -0.182052 1.756927 0.508006
v 0.182052 1.756927 -0.508006
v 0.151281 1.756927 -0.508006
v 0.182052 1.756927 0.508006
v 0.151281 1.756927 0.508006
v 0.182052 0.342992 -0.508006
v -0.182052 0.342992 -0.508006
v 0.151281 0.342992 -0.508006
v -0.151281 0.342992 -0.508006
v 0.182052 0.342992 0.508006
v -0.182052 0.342992 0.508006
v 0.151281 0.342992 0.508006
v -0.151281 0.342992 0.508006
v -0.148099 1.760109 -0.508006
v -0.185235 1.760109 -0.508006
v 0.185235 1.760109 0.508006
v 0.151281 1.712563 0.508006
v -0.151281 1.712563 0.508006
v 0.185235 1.565077 -0.508006
v 0.185235 0.445061 -0.508006
v 0.185235 0.339810 -0.508006
v -0.182052 1.712563 -0.508006
v -0.182052 0.445061 -0.508006
v 0.151281 1.712563 -0.508006
v 0.151281 1.565077 -0.508006
v 0.151281 0.445061 -0.508006
v 0.148099 0.339810 -0.508006
v -0.151281 1.712563 -0.508006
v -0.151281 1.565077 -0.508006
v -0.151281 0.445061 -0.508006
v 0.182052 1.712563 0.508006
v 0.182052 1.565077 0.508006
v 0.182052 0.445061 0.508006
v -0.182052 1.712563 0.508006
v -0.185235 0.445061 0.508006
v -0.185235 0.339810 0.508006
v 0.148099 0.339810 0.508006
v -0.148099 0.339810 0.508006
v 0.182052 1.565077 -0.509908
v 0.151281 1.565077 -0.509908
v -0.151281 1.565077 -0.509908
v -0.182052 1.565077 -0.509908
v 0.182052 1.565077 0.509908
v 0.151281 1.565077 0.509908
v -0.151281 1.565077 0.509908
v -0.182052 1.565077 0.509908
v -0.151281 1.712563 0.509908
v -0.182052 1.712563 0.509908
v 0.182052 1.712563 0.509908
v 0.151281 1.712563 0.509908
v 0.182052 1.712563 -0.509908
v 0.151281 1.712563 -0.509908
v -0.151281 1.712563 -0.509908
v -0.182052 1.712563 -0.509908
v -0.151281 0.445061 0.509908
v -0.182052 0.445061 0.509908
v 0.182052 0.445061 0.509908
v 0.151281 0.445061 0.509908
v -0.151281 0.445061 -0.509908
v -0.182052 0.445061 -0.509908
v 0.182052 0.445061 -0.509908
v 0.151281 0.445061 -0.509908
v -0.151281 1.756927 -0.509908
v -0.182052 1.756927 -0.509908
v -0.151281 1.756927 0.509908
v -0.182052 1.756927 0.509908
v 0.182052 1.756927 -0.509908
v 0.151281 1.756927 -0.509908
v 0.182052 1.756927 0.509908
v 0.151281 1.756927 0.509908
v 0.182052 0.342992 -0.509908
v -0.182052 0.342992 -0.509908
v 0.151281 0.342992 -0.509908
v -0.151281 0.342992 -0.509908
v 0.182052 0.342992 0.509908
v -0.182052 0.342992 0.509908
v 0.151281 0.342992 0.509908
v -0.151281 0.342992 0.509908
v 0.133333 2.000000 -1.000000
v 0.133333 0.000000 1.000000
v 0.133333 2.000000 -0.504499
v 0.133333 2.000000 0.504498
v 0.133333 1.860049 -1.000000
v 0.133333 0.000000 -1.000000
v 0.133333 2.000000 1.000000
v 0.133333 1.860049 1.000000
v 0.177067 0.368778 -1.000000
v 0.177067 1.608811 -1.000000
v 0.177067 0.368778 1.000000
v 0.177067 1.608811 1.000000
v 0.133333 2.000000 0.752249
v 0.133333 2.000000 -0.752249
v 0.177067 1.668829 1.000000
v 0.177067 1.668829 -1.000000
v 0.133333 2.000000 -0.628374
v 0.133333 2.000000 0.628374
v 0.147852 0.000000 1.029037
v 0.147852 0.000000 -1.029037
v 0.147852 0.278670 -1.029037
v 0.147852 0.278670 1.029037
v 0.177067 0.401327 1.000000
v 0.177067 0.401327 -1.000000
v 0.126195 1.482911 -0.985723
v 0.126195 1.482911 0.985723
v 0.126195 0.527227 0.985723
v 0.126195 0.527227 -0.985723
v 0.133333 2.000000 -0.327537
v 0.133333 2.000000 0.327536
v 0.139459 2.012251 -0.327537
v 0.139459 2.012251 0.327536
v -0.133333 0.000000 -1.000000
v -0.133333 2.000000 1.000000
v -0.133333 1.860049 1.000000
v -0.133333 2.000000 -1.000000
v -0.133333 0.000000 1.000000
v -0.133333 2.000000 -0.504499
v -0.133333 2.000000 0.504498
v -0.133333 1.860049 -1.000000
v -0.177067 0.368778 -1.000000
v -0.177067 1.608811 -1.000000
v -0.177067 0.368778 1.000000
v -0.177067 1.608811 1.000000
v -0.133333 2.000000 0.752249
v -0.133333 2.000000 -0.752249
v -0.177067 1.668829 1.000000
v -0.177067 1.668829 -1.000000
v -0.133333 2.000000 -0.628374
v -0.133333 2.000000 0.628374
v -0.147852 0.000000 -1.029037
v -0.147852 0.000000 1.029037
v -0.147852 0.278670 -1.029037
v -0.147852 0.278670 1.029037
v -0.177067 0.401327 1.000000
v -0.177067 0.401327 -1.000000
v -0.126195 1.482911 -0.985723
v -0.126195 1.482911 0.985723
v -0.126195 0.527227 0.985723
v -0.126195 0.527227 -0.985723
v -0.133333 2.000000 -0.327537
v -0.133333 2.000000 0.327536
v -0.139459 2.012251 -0.327537
v -0.139459 2.012251 0.327536
v 0.200000 1.712563 -0.504499
v 0.200000 1.565077 -0.504499
v 0.200000 0.445061 -0.504499
v 0.200000 0.325045 -0.504499
v -0.200000 1.712563 -0.504499
v -0.200000 1.565077 -0.504499
v -0.200000 0.445061 -0.504499
v -0.200000 0.325045 -0.504499
v -0.200000 0.325045 -0.752249
v -0.200000 0.325045 -1.000000
v -0.200000 1.565077 -0.690953
v -0.200000 1.608811 -1.000000
v 0.133333 0.325045 -1.000000
v 0.200000 0.368778 -1.000000
v 0.133333 1.565077 -1.000000
v 0.200000 1.608811 -1.000000
v 0.200000 0.325045 -0.628374
v 0.200000 1.712563 0.504498
v 0.200000 1.565077 0.504498
v 0.200000 0.445061 0.504498
v 0.200000 0.325045 0.504498
v -0.200000 1.712563 0.504498
v -0.200000 1.565077 0.504498
v -0.200000 0.445061 0.504498
v -0.200000 0.325045 0.504498
v 0.200000 0.325045 0.752249
v 0.200000 0.325045 1.000000
v 0.200000 1.565077 0.690953
v 0.200000 1.608811 1.000000
v -0.133333 0.325045 1.000000
v -0.200000 0.325045 1.000000
v -0.133333 1.565077 1.000000
v -0.200000 0.325045 0.628374
v 0.200000 0.325045 0.628374
v 0.200000 1.565077 0.628374
v -0.200000 0.325045 0.752249
v -0.200000 1.565077 0.690953
v -0.200000 0.325045 -0.628374
v -0.200000 1.565077 -0.628374
v 0.200000 0.325045 -0.752249
v 0.200000 1.565077 -0.690953
v -0.200000 1.712563 1.000000
v -0.200000 1.668829 0.752249
v 0.200000 1.712563 0.628374
v 0.200000 1.668829 0.752249
v 0.200000 1.668829 1.000000
v -0.133333 1.712563 1.000000
v -0.200000 1.712563 0.628374
v 0.200000 1.668829 -1.000000
v 0.200000 1.668829 -0.752249
v -0.200000 1.712563 -0.628374
v -0.200000 1.668829 -0.752249
v -0.200000 1.668829 -1.000000
v 0.133333 1.712563 -1.000000
v 0.200000 1.712563 -0.628374
v 0.200000 1.608811 -0.584641
v -0.200000 1.608811 0.584640
v 0.200000 0.401327 0.584640
v -0.200000 0.401327 0.584640
v -0.200000 0.401327 0.690953
v 0.200000 0.401327 0.690953
v -0.200000 0.401327 1.000000
v -0.133333 0.445061 1.000000
v 0.200000 0.401327 1.000000
v -0.200000 0.401327 -0.584641
v 0.200000 0.401327 -0.584641
v 0.200000 0.401327 -0.690953
v -0.200000 0.401327 -0.690953
v 0.200000 0.401327 -1.000000
v 0.133333 0.445061 -1.000000
v -0.200000 0.401327 -1.000000
v 0.133333 0.325045 1.000000
v 0.133333 1.565077 1.000000
v 0.133333 1.712563 1.000000
v 0.133333 0.445061 1.000000
v -0.133333 0.325045 -1.000000
v -0.133333 1.565077 -1.000000
v -0.133333 1.712563 -1.000000
v -0.133333 0.445061 -1.000000
v -0.196768 1.668829 -0.996768
v -0.196768 1.608811 -0.996768
v -0.196768 0.401327 -0.996768
v -0.196768 0.368778 -0.996768
v 0.196768 1.668829 -0.996768
v 0.196768 1.608811 -0.996768
v 0.196768 0.401327 -0.996768
v 0.196768 0.368778 -0.996768
v 0.195429 1.608811 -0.584641
v 0.195429 1.565077 -0.548233
v 0.196768 1.668829 0.996768
v 0.196768 1.608811 0.996768
v 0.196768 0.401327 0.996768
v 0.196768 0.368778 0.996768
v -0.195429 1.608811 0.584640
v -0.195429 1.565077 0.548232
v -0.195429 0.401327 0.690953
v -0.195429 0.368778 0.752249
v 0.195429 0.401327 0.690953
v 0.195429 0.368778 0.752249
v 0.195429 1.668829 0.752249
v 0.195429 1.608811 0.690953
v -0.195429 1.668829 0.752249
v -0.195429 1.608811 0.690953
v 0.195429 0.401327 -0.690953
v 0.195429 0.368778 -0.752249
v -0.195429 0.401327 -0.690953
v -0.195429 0.368778 -0.752249
v -0.195429 1.668829 -0.752249
v -0.195429 1.608811 -0.690953
v 0.195429 1.668829 -0.752249
v 0.195429 1.608811 -0.690953
v -0.196768 1.608811 0.996768
v -0.196768 1.668829 0.996768
v -0.195429 1.565077 -0.548233
v -0.195429 1.608811 -0.584641
v 0.195429 1.668829 -0.628374
v -0.195429 1.668829 -0.628374
v -0.195429 0.401327 -0.584641
v -0.195429 0.368778 -0.628374
v 0.195429 0.401327 -0.584641
v 0.195429 0.368778 -0.628374
v 0.195429 1.565077 0.548232
v 0.195429 1.608811 0.584640
v -0.195429 1.668829 0.628374
v 0.195429 1.668829 0.628374
v 0.195429 0.401327 0.584640
v 0.195429 0.368778 0.628374
v -0.195429 0.401327 0.584640
v -0.195429 0.368778 0.628374
v -0.196768 0.368778 0.996768
v -0.196768 0.401327 0.996768
v 0.195429 0.445061 0.548232
v -0.195429 0.445061 0.548232
v -0.195429 0.445061 -0.548233
v 0.195429 0.445061 -0.548233
v 0.195429 1.668829 -0.548233
v 0.195429 0.368778 -0.548233
v -0.195429 1.668829 -0.548233
v -0.195429 0.368778 -0.548233
v 0.177067 0.368778 -0.995429
v 0.177067 1.608811 -0.995429
v 0.195429 1.668829 0.548232
v 0.195429 0.368778 0.548232
v -0.195429 1.668829 0.548232
v -0.195429 0.368778 0.548232
v -0.177067 0.368778 0.995429
v -0.177067 1.608811 0.995429
v -0.177067 1.668829 0.995429
v 0.177067 1.668829 -0.995429
v -0.177067 0.401327 0.995429
v 0.177067 0.401327 -0.995429
v 0.177067 0.368778 0.995429
v 0.177067 1.608811 0.995429
v 0.177067 1.668829 0.995429
v 0.177067 0.401327 0.995429
v -0.177067 0.368778 -0.995429
v -0.177067 1.608811 -0.995429
v -0.177067 1.668829 -0.995429
v -0.177067 0.401327 -0.995429
v -0.195924 1.565077 -1.000000
v -0.200000 1.565077 -0.995924
v -0.200000 1.569114 -1.000000
v 0.200000 1.565077 -0.995924
v 0.195924 1.565077 -1.000000
v 0.200000 1.569114 -1.000000
v 0.195924 1.565077 1.000000
v 0.200000 1.565077 0.995924
v 0.200000 1.569114 1.000000
v 0.200000 0.445061 0.995924
v 0.195924 0.445061 1.000000
v 0.200000 0.441024 1.000000
v -0.195924 0.445061 1.000000
v -0.200000 0.445061 0.995924
v -0.200000 0.441024 1.000000
v -0.200000 0.445061 -0.995924
v -0.195924 0.445061 -1.000000
v -0.200000 0.441024 -1.000000
v 0.195924 0.445061 -1.000000
v 0.200000 0.445061 -0.995924
v 0.200000 0.441024 -1.000000
v -0.181648 1.482911 -0.985723
v -0.185723 1.482911 -0.981648
v 0.181648 1.482911 -0.985723
v 0.185723 1.482911 -0.981648
v -0.185723 0.527227 0.981648
v -0.181648 0.527227 0.985723
v -0.181648 1.482912 0.985723
v -0.185723 1.482912 0.981648
v 0.181648 1.482911 0.985723
v 0.185723 1.482911 0.981648
v 0.185723 0.527227 0.981648
v 0.181648 0.527227 0.985723
v -0.185723 0.527227 -0.981648
v -0.181648 0.527227 -0.985723
v 0.185723 0.527227 -0.981648
v 0.181648 0.527227 -0.985723
v -0.200000 1.565077 0.995924
v -0.195924 1.565077 1.000000
v -0.200000 1.569114 1.000000
v 0.054336 0.000000 -0.433333
v 0.050583 0.000000 -0.437086
v -0.050583 0.000000 -0.437086
v -0.054336 0.000000 -0.433333
v 0.050583 0.000000 0.437086
v 0.054336 0.000000 0.433333
v -0.054336 0.000000 0.433333
v -0.050583 0.000000 0.437086
v 0.050583 1.708457 -0.437086
v 0.054336 1.704704 -0.433333
v -0.054336 1.704704 -0.433333
v -0.050583 1.708457 -0.437086
v 0.050583 1.708457 0.437086
v 0.054336 1.704704 0.433333
v -0.054336 1.704704 0.433333
v -0.050583 1.708457 0.437086
v 0.050583 1.471517 -0.437086
v 0.054336 1.471517 -0.433333
v 0.054336 0.278264 -0.433333
v 0.050583 0.278264 -0.437086
v -0.054336 1.471517 -0.433333
v -0.050583 1.471517 -0.437086
v -0.050583 0.278264 -0.437086
v -0.054336 0.278264 -0.433333
v 0.050583 0.278264 0.437086
v 0.054336 0.278264 0.433333
v 0.050583 1.471517 0.437086
v 0.054336 1.471517 0.433333
v -0.054336 0.278264 0.433333
v -0.050583 0.278264 0.437086
v -0.054336 1.471517 0.433333
v -0.050583 1.471517 0.437086
v 0.054336 1.630698 0.433333
v 0.050583 1.630698 0.437086
v -0.050583 1.630698 0.437086
v -0.054336 1.630698 0.433333
v 0.054336 1.630698 -0.433333
v 0.050583 1.630698 -0.437086
v -0.050583 1.630698 -0.437086
v -0.054336 1.630698 -0.433333
v 0.054336 0.374891 0.433333
v 0.050583 0.374891 0.437086
v -0.050583 0.374891 0.437086
v -0.054336 0.374891 0.433333
v 0.054336 0.374891 -0.433333
v 0.050583 0.374891 -0.437086
v -0.050583 0.374891 -0.437086
v -0.054336 0.374891 -0.433333
v 0.050583 1.708457 0.281334
v 0.054336 1.704704 0.281334
v 0.054336 1.704704 -0.281334
v 0.050583 1.708457 -0.281334
v -0.054336 1.704704 0.281334
v -0.050583 1.708457 0.281334
v -0.050583 1.708457 -0.281334
v -0.054336 1.704704 -0.281334
vn -0.0000 -1.0000 -0.0000
vn -0.0000 -0.0000 -1.0000
vn 1.0000 -0.0000 -0.0000
vn -0.0000 -0.0000 1.0000
vn -0.0000 1.0000 -0.0000
vn -1.0000 -0.0000 -0.0000
vn 0.7298 -0.0000 -0.6837
vn 0.7298 -0.0000 0.6837
vn 0.7250 -0.6888 -0.0000
vn -0.7298 -0.0000 -0.6837
vn -0.7298 -0.0000 0.6837
vn -0.7250 -0.6888 -0.0000
vn 0.8476 0.5307 -0.0000
vn -0.0000 0.1712 0.9852
vn -0.9852 -0.1712 -0.0000
vn -0.0000 0.1712 -0.9852
vn -0.0000 -0.1712 0.9852
vn -0.0000 -0.1712 -0.9852
vn -0.0000 0.5307 -0.8476
vn -0.0000 0.5307 0.8476
vn -0.8476 0.5307 -0.0000
vn -0.7071 -0.0000 0.7071
vn -0.7071 0.7071 -0.0000
vn 0.7071 0.7071 -0.0000
vn -0.7071 -0.0000 -0.7071
vn 0.7071 -0.0000 -0.7071
vn 0.7071 -0.0000 0.7071
vn -0.7071 -0.7071 -0.0000
vn 0.7071 -0.7071 -0.0000
vn 0.9739 -0.0000 -0.2268
vn -0.9739 -0.0000 -0.2268
vn -0.9739 -0.0000 0.2268
vn 0.9739 -0.0000 0.2268
vn 0.9852 0.1712 -0.0000
vn -0.9852 0.1712 -0.0000
vn 0.9852 -0.1712 -0.0000
vn -1.0000 0.0025 -0.0049
vn 1.0000 0.0025 -0.0049
vn 0.0678 -0.0000 0.9977
vn 1.0000 0.0025 0.0049
vn -1.0000 0.0025 0.0049
vn -0.0678 -0.0000 -0.9977
vn -1.0000 -0.0046 -0.0049
vn 1.0000 -0.0046 -0.0049
vn 1.0000 -0.0046 0.0049
vn -1.0000 -0.0046 0.0049
vn -0.0678 -0.0000 0.9977
vn 0.0678 -0.0000 -0.9977
vn -0.5755 -0.5811 -0.5755
vn 0.5755 -0.5811 -0.5755
vn 0.5755 -0.5811 0.5755
vn 0.5755 0.5811 0.5755
vn -0.5755 0.5811 0.5755
vn -0.5755 0.5811 -0.5755
vn 0.5755 0.5811 -0.5755
vn -0.5755 -0.5811 0.5755
vn -0.6867 -0.2386 -0.6867
vn 0.6867 -0.2386 0.6867
vn 0.6867 0.2386 0.6867
vn -0.6867 0.2386 -0.6867
vn -0.6867 -0.2386 0.6867
vn 0.6867 -0.2386 -0.6867
vn 0.6867 0.2386 -0.6867
vn -0.6867 0.2386 0.6867
vt 0.561446 0.541667
vt 0.561446 0.500000
vt 0.598735 0.458333
vt 0.625000 0.458333
vt 0.625000 0.500000
vt 0.598735 0.500000
vt 0.565555 0.502733
vt 0.598735 0.502733
vt 0.598735 0.541667
vt 0.565555 0.541667
vt 0.598735 0.958333
vt 0.625000 0.958333
vt 0.625000 1.000000
vt 0.598735 1.000000
vt 0.375000 0.341049
vt 0.449578 0.341049
vt 0.449578 0.305556
vt 0.375000 0.305556
vt 0.833333 0.708333
vt 0.875000 0.708333
vt 0.875000 0.750000
vt 0.833333 0.750000
vt 0.833333 0.562500
vt 0.875000 0.562500
vt 0.875000 0.583333
vt 0.833333 0.583333
vt 0.833333 0.638889
vt 0.875000 0.638889
vt 0.875000 0.666667
vt 0.833333 0.666667
vt 0.375000 0.541667
vt 0.375000 0.708333
vt 0.375000 0.750000
vt 0.375000 0.791667
vt 0.375000 0.833333
vt 0.375000 0.916667
vt 0.375000 0.958333
vt 0.375000 1.000000
vt 0.598735 0.562500
vt 0.625000 0.562500
vt 0.625000 0.583333
vt 0.598735 0.583333
vt 0.598735 0.638889
vt 0.625000 0.638889
vt 0.625000 0.666667
vt 0.598735 0.666667
vt 0.598735 0.062500
vt 0.625000 0.062500
vt 0.625000 0.083333
vt 0.598735 0.083333
vt 0.598735 0.138889
vt 0.625000 0.138889
vt 0.625000 0.166667
vt 0.598735 0.166667
vt 0.598735 0.199074
vt 0.598735 0.180556
vt 0.598735 0.111111
vt 0.561446 0.062500
vt 0.561446 0.083333
vt 0.486867 0.182047
vt 0.454166 0.182047
vt 0.561446 0.562500
vt 0.561446 0.583333
vt 0.561446 0.958333
vt 0.561446 1.000000
vt 0.598735 0.500000
vt 0.561446 0.458333
vt 0.565555 0.208333
vt 0.598735 0.208333
vt 0.598735 0.247267
vt 0.565555 0.247267
vt 0.449578 0.180556
vt 0.375000 0.180556
vt 0.375000 0.083333
vt 0.449578 0.083333
vt 0.561446 0.291667
vt 0.598735 0.291667
vt 0.598735 0.333333
vt 0.561446 0.333333
vt 0.598735 0.416667
vt 0.561446 0.416667
vt 0.561446 0.791667
vt 0.598735 0.791667
vt 0.598735 0.833333
vt 0.561446 0.833333
vt 0.598735 0.916667
vt 0.561446 0.916667
vt 0.666667 0.638889
vt 0.708333 0.638889
vt 0.708333 0.666667
vt 0.666667 0.666667
vt 0.791667 0.638889
vt 0.791667 0.666667
vt 0.666667 0.562500
vt 0.708333 0.562500
vt 0.708333 0.583333
vt 0.666667 0.583333
vt 0.791667 0.562500
vt 0.791667 0.583333
vt 0.666667 0.708333
vt 0.708333 0.708333
vt 0.708333 0.750000
vt 0.666667 0.750000
vt 0.791667 0.708333
vt 0.791667 0.750000
vt 0.625000 0.791667
vt 0.625000 0.833333
vt 0.625000 0.916667
vt 0.625000 0.291667
vt 0.625000 0.333333
vt 0.625000 0.416667
vt 0.449578 0.569444
vt 0.375000 0.569444
vt 0.375000 0.472222
vt 0.449578 0.472222
vt 0.375000 0.342593
vt 0.449578 0.342593
vt 0.561446 0.513889
vt 0.598735 0.513889
vt 0.598735 0.444444
vt 0.561446 0.444444
vt 0.598735 0.472222
vt 0.561446 0.472222
vt 0.561446 0.422532
vt 0.598735 0.422532
vt 0.598735 0.550926
vt 0.598735 0.569444
vt 0.598735 0.462963
vt 0.524157 0.444444
vt 0.561446 0.408951
vt 0.524157 0.408951
vt 0.454166 0.645134
vt 0.454166 0.590977
vt 0.449578 0.666667
vt 0.375000 0.666667
vt 0.449578 0.277778
vt 0.375000 0.277778
vt 0.561446 0.305556
vt 0.598735 0.305556
vt 0.598735 0.236111
vt 0.561446 0.236111
vt 0.598735 0.287037
vt 0.598735 0.277778
vt 0.598735 0.327468
vt 0.561446 0.327468
vt 0.561446 0.277778
vt 0.598735 0.407407
vt 0.598735 0.342593
vt 0.598735 0.341049
vt 0.598735 0.336522
vt 0.598735 0.296296
vt 0.375000 0.422532
vt 0.449578 0.422532
vt 0.449578 0.327468
vt 0.375000 0.327468
vt 0.561446 0.398148
vt 0.598735 0.398148
vt 0.598735 0.351852
vt 0.561446 0.351852
vt 0.449578 0.407407
vt 0.375000 0.407407
vt 0.598735 0.408951
vt 0.598735 0.342593
vt 0.375000 0.687500
vt 0.375000 0.312500
vt 0.598735 0.342516
vt 0.598735 0.345679
vt 0.600626 0.407407
vt 0.561446 0.407407
vt 0.561446 0.407407
vt 0.598735 0.404321
vt 0.598735 0.422532
vt 0.598735 0.418005
vt 0.600626 0.351852
vt 0.561446 0.351852
vt 0.598735 0.348765
vt 0.598735 0.351928
vt 0.598735 0.398072
vt 0.598735 0.401235
vt 0.486867 0.341049
vt 0.524157 0.341049
vt 0.524157 0.305556
vt 0.486867 0.305556
vt 0.486867 0.472222
vt 0.486867 0.422532
vt 0.375000 0.187500
vt 0.375000 0.562500
vt 0.375000 0.583333
vt 0.375000 0.513889
vt 0.375000 0.444444
vt 0.375000 0.408951
vt 0.375000 0.398148
vt 0.375000 0.398148
vt 0.375000 0.351852
vt 0.375000 0.236111
vt 0.375000 0.166667
vt 0.449578 0.398148
vt 0.486867 0.398148
vt 0.486867 0.398148
vt 0.449578 0.351852
vt 0.524157 0.398148
vt 0.524157 0.351852
vt 0.486867 0.351852
vt 0.449578 0.398148
vt 0.561446 0.398148
vt 0.449578 0.236111
vt 0.524157 0.236111
vt 0.486867 0.236111
vt 0.449578 0.583333
vt 0.449578 0.513889
vt 0.486867 0.159023
vt 0.454166 0.159023
vt 0.375000 0.351852
vt 0.486867 0.351852
vt 0.449578 0.444444
vt 0.486867 0.513889
vt 0.524157 0.513889
vt 0.486867 0.444444
vt 0.449578 0.708333
vt 0.449578 0.750000
vt 0.486867 0.916667
vt 0.486867 0.833333
vt 0.524157 0.000550
vt 0.524157 0.041667
vt 0.524157 0.000727
vt 0.473279 0.764333
vt 0.473279 0.750000
vt 0.485613 0.750000
vt 0.486867 0.752548
vt 0.486867 0.791667
vt 0.449578 0.562500
vt 0.486867 0.416667
vt 0.486867 0.333333
vt 0.375000 0.208333
vt 0.463166 0.712826
vt 0.463166 0.687500
vt 0.449578 0.166667
vt 0.561446 0.182047
vt 0.524157 0.182047
vt 0.598735 0.453704
vt 0.598735 0.413478
vt 0.524157 0.327468
vt 0.524157 0.277778
vt 0.524157 0.407407
vt 0.524157 0.342593
vt 0.561446 0.342593
vt 0.486867 0.407407
vt 0.486867 0.342593
vt 0.486867 0.407407
vt 0.449578 0.407407
vt 0.524157 0.472222
vt 0.524157 0.422532
vt 0.524157 0.180556
vt 0.561446 0.180556
vt 0.486867 0.277778
vt 0.486867 0.180556
vt 0.524157 0.159023
vt 0.486867 0.590977
vt 0.486867 0.327468
vt 0.561446 0.569444
vt 0.524157 0.569444
vt 0.486867 0.569444
vt 0.449578 0.687500
vt 0.524157 0.833333
vt 0.524157 0.916667
vt 0.375000 0.541667
vt 0.375000 0.500000
vt 0.524157 0.252548
vt 0.524157 0.291667
vt 0.524157 0.252853
vt 0.454166 0.567953
vt 0.486867 0.567953
vt 0.524157 0.590977
vt 0.473279 0.544888
vt 0.473279 0.500000
vt 0.485613 0.500000
vt 0.486867 0.500550
vt 0.486867 0.541667
vt 0.449578 0.458333
vt 0.449578 0.500000
vt 0.449578 0.458333
vt 0.524157 0.752548
vt 0.524157 0.791667
vt 0.524157 0.791667
vt 0.524157 0.752853
vt 0.375000 0.958333
vt 0.550388 0.674022
vt 0.550388 0.687500
vt 0.486867 0.752853
vt 0.486867 0.791667
vt 0.449578 0.791667
vt 0.449578 0.833333
vt 0.486867 0.687500
vt 0.524157 0.687500
vt 0.524157 0.708333
vt 0.486867 0.708333
vt 0.449578 0.208333
vt 0.449578 0.250000
vt 0.708333 0.687500
vt 0.791667 0.687500
vt 0.666667 0.687500
vt 0.561446 0.041667
vt 0.561446 0.000000
vt 0.621950 0.208333
vt 0.621950 0.247267
vt 0.565555 0.690233
vt 0.598735 0.690233
vt 0.598735 0.708333
vt 0.565555 0.708333
vt 0.833333 0.687500
vt 0.875000 0.687500
vt 0.561446 0.062500
vt 0.473279 0.264333
vt 0.473279 0.250000
vt 0.485613 0.250000
vt 0.486867 0.252548
vt 0.486867 0.291667
vt 0.486867 0.187500
vt 0.524157 0.187500
vt 0.524157 0.208333
vt 0.486867 0.208333
vt 0.375000 0.291667
vt 0.375000 0.250000
vt 0.375000 0.291667
vt 0.708333 0.500000
vt 0.791667 0.500000
vt 0.791667 0.541667
vt 0.708333 0.541667
vt 0.666667 0.500000
vt 0.666667 0.541667
vt 0.621950 0.502733
vt 0.621950 0.541667
vt 0.598735 0.002733
vt 0.621950 0.002733
vt 0.621950 0.041667
vt 0.598735 0.041667
vt 0.598735 0.190233
vt 0.621950 0.190233
vt 0.621950 0.208333
vt 0.833333 0.500000
vt 0.875000 0.500000
vt 0.875000 0.541667
vt 0.833333 0.541667
vt 0.375000 0.333333
vt 0.375000 0.416667
vt 0.375000 0.458333
vt 0.598735 0.250000
vt 0.561446 0.250000
vt 0.598735 0.250000
vt 0.535214 0.485667
vt 0.550388 0.485667
vt 0.463166 0.075978
vt 0.463166 0.062500
vt 0.486867 0.104866
vt 0.524157 0.104866
vt 0.600626 0.342593
vt 0.524157 0.567953
vt 0.561446 0.567953
vt 0.598735 0.407484
vt 0.598735 0.418005
vt 0.463166 0.674022
vt 0.463166 0.764333
vt 0.535214 1.000000
vt 0.535214 0.985667
vt 0.525613 0.069855
vt 0.535214 0.046022
vt 0.463166 0.485667
vt 0.473279 0.485667
vt 0.561446 0.341049
vt 0.524157 0.398148
vt 0.486867 0.408951
vt 0.454166 0.104866
vt 0.524157 0.351852
vt 0.524157 0.333333
vt 0.524157 0.416667
vt 0.463166 1.000000
vt 0.463166 0.985667
vt 0.463166 0.037173
vt 0.524157 0.645134
vt 0.486867 0.645134
vt 0.535214 0.750000
vt 0.535214 0.703979
vt 0.550388 0.538033
vt 0.550388 0.562500
vt 0.625000 0.187500
vt 0.598735 0.187500
vt 0.561446 0.166667
vt 0.561446 0.187500
vt 0.550388 0.750000
vt 0.550388 0.764333
vt 0.524157 0.541667
vt 0.524157 0.562500
vt 0.486867 0.562500
vt 0.449578 0.187500
vt 0.625000 0.708333
vt 0.625000 0.750000
vt 0.561446 0.708333
vt 0.561446 0.687500
vt 0.463166 0.750000
vt 0.550388 0.174022
vt 0.550388 0.187500
vt 0.625000 0.687500
vt 0.598735 0.687500
vt 0.375000 0.407407
vt 0.561446 0.666667
vt 0.535214 0.764333
vt 0.486867 0.041667
vt 0.524156 0.062500
vt 0.486867 0.062500
vt 0.449578 0.916667
vt 0.565555 0.002733
vt 0.598735 0.002733
vt 0.565555 0.041667
vt 0.621950 0.041667
vt 0.621950 0.059767
vt 0.598735 0.059767
vt 0.625000 0.250000
vt 0.598735 0.750000
vt 0.561446 0.750000
vt 0.625000 0.541667
vt 0.561446 0.208333
vt 0.561446 0.208333
vt 0.621950 0.690233
vt 0.621950 0.708333
vt 0.598735 0.559767
vt 0.565555 0.559767
vt 0.565555 0.708333
vt 0.598735 0.747267
vt 0.565555 0.747267
vt 0.621950 0.708333
vt 0.621950 0.747267
vt 0.598735 0.747267
vt 0.598735 0.059767
vt 0.565555 0.059767
vt 0.565555 0.190233
vt 0.621950 0.541667
vt 0.621950 0.559767
vt 0.598735 0.000000
vt 0.625000 0.000000
vt 0.625000 0.208333
vt 0.625000 0.041667
vt 0.449578 0.333333
vt 0.449578 0.416667
vt 0.449578 0.291667
vt 0.375000 0.458333
vt 0.375000 0.791667
vt 0.449578 0.958333
vt 0.449578 1.000000
vt 0.375000 0.062500
vt 0.449578 0.062500
vt 0.375000 0.000000
vt 0.449578 0.000000
vt 0.449578 0.041667
vt 0.375000 0.041667
vt 0.449578 0.541667
vt 0.449578 0.958333
vt 0.486867 0.075978
vt 0.463166 0.187500
vt 0.463166 0.174022
vt 0.550388 0.075978
vt 0.524156 0.075978
vt 0.525613 0.569855
vt 0.535214 0.546021
vt 0.473279 0.205112
vt 0.486867 0.674022
vt 0.595002 0.159023
vt 0.561446 0.159023
vt 0.561446 0.104866
vt 0.524157 0.407407
vt 0.463166 0.562500
vt 0.463166 0.537173
vt 0.524157 0.674022
vt 0.550388 0.575978
vt 0.561446 0.220731
vt 0.595002 0.220731
vt 0.463166 0.575978
vt 0.550388 0.500000
vt 0.449578 0.351852
vt 0.561446 0.590977
vt 0.595002 0.590977
vt 0.449578 0.408951
vt 0.486867 0.291667
vt 0.486867 0.252853
vt 0.486867 0.500727
vt 0.524157 0.500727
vt 0.524157 0.958333
vt 0.524157 0.997452
vt 0.524157 0.997147
vt 0.524157 0.958333
vt 0.486867 0.958333
vt 0.486867 0.997147
vt 0.486867 0.000727
vt 0.524157 0.000727
vt 0.535214 0.500000
vt 0.524157 0.500550
vt 0.525177 0.500000
vt 0.486867 0.458333
vt 0.486867 0.497452
vt 0.524157 0.458333
vt 0.524157 0.497452
vt 0.524157 0.497147
vt 0.524157 0.458333
vt 0.473279 1.000000
vt 0.473279 0.985667
vt 0.486867 0.958333
vt 0.486867 0.997452
vt 0.485613 1.000000
vt 0.524157 0.749273
vt 0.486867 0.749273
vt 0.598735 0.331995
vt 0.600626 0.398148
vt 0.598735 0.398148
vt 0.598735 0.217593
vt 0.598735 0.611111
vt 0.598735 0.532407
vt 0.791667 0.611111
vt 0.708333 0.611111
vt 0.666667 0.611111
vt 0.833333 0.638889
vt 0.666667 0.638889
vt 0.625000 0.111111
vt 0.625000 0.611111
vt 0.833333 0.611111
vt 0.875000 0.611111
vt 0.833333 0.611111
vt 0.595002 0.182047
vt 0.595002 0.104866
vt 0.595002 0.529269
vt 0.595002 0.567953
vt 0.595002 0.645134
vt 0.524157 0.583333
vt 0.486867 0.583333
vt 0.524157 0.166667
vt 0.486867 0.166667
vt 0.524157 0.529269
vt 0.561446 0.529269
vt 0.454166 0.529269
vt 0.486867 0.529269
vt 0.524157 0.220731
vt 0.486867 0.220731
vt 0.454166 0.220731
vt 0.561446 0.645134
vt 0.524157 0.666667
vt 0.486867 0.666667
vt 0.524157 0.083333
vt 0.486867 0.083333
vt 0.524157 0.154382
vt 0.486867 0.154382
vt 0.455155 0.595618
vt 0.486867 0.595618
vt 0.455155 0.564638
vt 0.486867 0.564638
vt 0.524157 0.595618
vt 0.486867 0.109507
vt 0.524157 0.109507
vt 0.524157 0.564638
vt 0.561446 0.564638
vt 0.455155 0.109507
vt 0.524157 0.640493
vt 0.486867 0.640493
vt 0.594197 0.154382
vt 0.561446 0.154382
vt 0.561446 0.109507
vt 0.561446 0.217415
vt 0.594197 0.217415
vt 0.561446 0.595618
vt 0.594197 0.595618
vt 0.455155 0.640493
vt 0.594197 0.532584
vt 0.561446 0.532584
vt 0.594197 0.640493
vt 0.561446 0.640493
vt 0.594197 0.185362
vt 0.594197 0.109507
vt 0.594197 0.564638
vt 0.524157 0.185362
vt 0.561446 0.185362
vt 0.455155 0.185362
vt 0.486867 0.185362
vt 0.524157 0.532584
vt 0.455155 0.532584
vt 0.486867 0.532584
vt 0.524157 0.217415
vt 0.486867 0.217415
vt 0.455155 0.217415
vt 0.455155 0.154382
vt 0.486867 0.500550
vt 0.525177 0.750000
vt 0.525177 1.000000
vt 0.473279 0.177232
vt 0.535214 0.250000
vt 0.535214 0.264333
vt 0.524157 0.252548
vt 0.525177 0.250000
vt 0.486867 0.000550
vt 0.486867 0.000727
vt 0.524157 0.497147
vt 0.486867 0.497147
vt 0.550388 0.211028
vt 0.550388 0.250000
vt 0.473279 0.572768
vt 0.524157 0.575978
vt 0.486867 0.575978
vt 0.524157 0.174022
vt 0.486867 0.174022
vt 0.463166 0.212826
vt 0.463166 0.250000
vt 0.524157 0.249450
vt 0.524157 0.249273
vt 0.463166 0.500000
vt 0.524157 0.749450
vt 0.535214 0.000000
vt 0.524157 0.000550
vt 0.525177 0.000000
vt 0.525613 0.680145
vt 0.463166 0.000000
vt 0.525613 0.180145
vt 0.535214 0.203978
vt 0.524157 0.749450
vt 0.550388 0.038033
vt 0.550388 0.000000
vt 0.550388 0.711028
vt 0.550388 1.000000
vt 0.550388 0.985667
vt 0.550388 0.062500
vt 0.473279 0.677232
vt 0.473279 0.072768
vt 0.473279 0.044888
vt 0.473279 0.705112
vt 0.486867 0.997452
vt 0.486867 0.249450
vt 0.486867 0.249273
vt 0.486867 0.749450
vt 0.486867 0.749273
vt 0.486867 0.497452
vt 0.486867 0.497147
vt 0.486867 0.749450
vt 0.473279 0.000000
vt 0.485613 0.000000
vt 0.486867 0.000550
vt 0.463166 0.264333
vt 0.550388 0.264333
vt 0.486867 0.249450
vt 0.524157 0.249923
vt 0.524157 0.499982
vt 0.524157 0.749923
vt 0.486867 0.750018
vt 0.486867 0.000000
vt 0.486867 0.000000
vt 0.486867 0.250018
vt 0.486867 0.500077
vt 0.524157 0.000000
s 0
usemtl M_Gris_Metal
f 165/1/1 153/2/1 243/2/1 247/1/1
f 550/3/2 546/4/2 8/5/2 19/6/2
f 242/7/3 216/8/3 197/9/3 246/10/3
f 580/11/4 579/12/4 2/13/4 17/14/4
f 590/19/5 120/20/5 2/21/5 579/22/5
f 594/23/5 173/24/5 12/25/5 583/26/5
f 607/27/5 346/28/5 11/29/5 584/30/5
f 118/31/1 121/32/1 5/33/1 547/34/1 30/35/1 29/36/1 582/37/1 1/38/1
f 168/39/3 167/40/3 15/41/3 390/42/3
f 353/43/3 349/44/3 16/45/3 392/46/3
f 182/47/6 180/48/6 11/49/6 389/50/6
f 351/51/6 347/52/6 12/53/6 387/54/6
f 364/55/1 388/56/1 389/50/1 350/57/1
f 657/58/6 182/47/6 389/50/6 631/59/6
f 317/60/3 78/61/3 445/61/3 463/60/3
f 664/62/3 168/39/3 390/42/3 610/63/3
f 656/64/4 580/11/4 17/14/4 651/65/4
f 153/2/2 19/6/2 217/66/2 243/2/2
f 663/67/2 550/3/2 19/6/2 153/2/2
f 244/68/6 195/69/6 213/70/6 241/71/6
f 353/43/1 392/46/1 393/127/1 362/126/1
f 97/132/5 110/133/5 504/133/5 447/132/5
f 10/74/1 54/73/1 44/137/1 815/155/1 816/116/1 60/116/1 59/161/1 813/161/1 814/152/1 43/114/1 50/113/1 13/135/1 181/164/1 185/165/1
f 166/186/1 174/187/1 14/188/1 49/189/1 41/190/1 809/191/1 810/192/1 57/193/1 58/194/1 811/194/1 812/15/1 42/18/1 53/195/1 9/196/1
f 309/211/6 112/212/6 505/212/6 437/211/6
f 121/32/1 181/164/1 275/164/1 295/32/1
f 806/223/15 646/224/15 336/224/15 797/225/15
f 568/226/4 673/227/4 780/228/4 779/229/4 684/230/4
f 130/234/1 166/186/1 273/186/1 299/234/1
f 124/235/5 190/236/5 736/236/5 708/235/5
f 155/238/3 77/239/3 427/239/3 436/238/3
f 113/257/6 309/211/6 437/211/6 429/257/6
f 110/133/3 308/258/3 438/258/3 504/133/3
f 129/266/1 7/267/1 268/267/1 269/266/1
f 769/268/18 686/269/18 602/269/18 790/270/18
f 76/271/6 316/272/6 487/272/6 488/271/6
f 308/258/3 111/273/3 428/273/3 438/258/3
f 29/36/1 30/35/1 272/35/1 284/36/1
f 676/274/3 678/275/3 789/276/3 788/277/3 326/278/3
f 775/282/17 682/283/17 571/284/17 798/285/17
f 582/37/1 29/36/1 284/36/1 597/286/1
f 412/287/1 192/288/1 734/288/1 751/287/1
f 684/230/14 779/229/14 801/289/14 572/290/14
f 314/293/3 644/294/3 637/295/3 313/296/3
f 151/302/1 651/303/1 211/303/1 237/302/1
f 195/69/6 202/304/6 204/305/6 213/70/6
f 238/306/3 224/307/3 194/308/3 234/309/3
f 185/165/1 181/164/1 121/32/1 118/31/1
f 595/310/5 180/311/5 120/20/5 590/19/5
f 657/58/1 151/302/1 237/302/1 261/312/1
f 601/313/2 680/314/2 786/315/2 785/316/2 688/317/2
f 5/33/1 121/32/1 295/32/1 271/33/1
f 328/318/6 648/319/6 620/320/6 327/321/6
f 578/322/1 3/323/1 265/323/1 596/324/1
f 216/8/3 214/331/3 229/332/3 197/9/3
f 198/333/6 200/334/6 223/335/6 196/336/6
f 230/337/6 226/338/6 202/339/6 195/69/6
f 581/340/5 4/341/5 128/342/5 591/343/5
f 3/323/1 578/322/1 26/344/1 25/345/1 551/346/1 7/267/1 129/266/1 130/234/1
f 18/347/2 152/348/2 240/348/2 212/349/2
f 555/350/3 561/351/3 758/351/3 750/350/3
f 419/352/5 183/353/5 738/353/5 754/352/5
f 303/354/3 98/355/3 430/355/3 502/354/3
f 75/357/6 154/358/6 433/358/6 486/357/6
f 190/236/5 415/361/5 752/361/5 736/236/5
f 568/226/3 556/362/3 761/362/3 764/226/3
f 101/363/5 589/364/5 756/364/5 721/363/5
f 666/365/5 127/366/5 712/366/5 703/365/5
f 554/367/3 569/368/3 760/368/3 749/367/3
f 99/372/3 303/354/3 502/354/3 503/372/3
f 100/376/5 588/377/5 755/377/5 739/376/5
f 183/353/5 126/378/5 706/378/5 738/353/5
f 673/227/1 568/226/1 764/226/1 701/227/1
f 96/379/6 302/380/6 460/380/6 451/379/6
f 638/381/5 125/382/5 710/382/5 700/381/5
f 659/383/1 179/384/1 725/384/1 719/383/1
f 387/54/6 12/53/6 173/385/6 175/386/6
f 614/387/6 387/54/6 175/386/6 660/388/6
f 655/389/1 560/390/1 763/390/1 699/389/1
f 326/278/3 650/391/3 172/392/3 329/393/3
f 119/395/5 6/396/5 208/396/5 207/395/5
f 150/397/1 653/398/1 239/398/1 235/397/1
f 591/343/5 128/342/5 173/24/5 594/23/5
f 130/234/1 129/266/1 174/187/1 166/186/1
f 95/399/5 124/235/5 708/235/5 702/399/5
f 400/400/1 178/401/1 726/401/1 747/400/1
f 392/46/3 16/45/3 186/402/3 187/403/3
f 584/30/5 11/29/5 180/311/5 595/310/5
f 627/405/3 392/46/3 187/403/3 653/398/3
f 25/345/1 26/344/1 266/344/1 283/345/1
f 557/406/5 638/381/5 700/381/5 762/406/5
f 312/407/6 646/224/6 184/408/6 315/409/6
f 210/411/6 198/412/6 196/336/6 236/413/6
f 196/336/6 223/414/6 257/415/6 258/416/6
f 4/417/2 18/347/2 212/349/2 205/417/2
f 186/402/5 119/395/5 207/395/5 221/402/5
f 187/403/2 186/402/2 221/402/2 225/403/2
f 19/6/2 8/5/2 215/5/2 217/66/2
f 175/386/4 173/385/4 227/385/4 231/386/4
f 17/14/4 2/13/4 201/13/4 199/14/4
f 2/21/5 120/20/5 222/20/5 201/21/5
f 6/396/4 20/418/4 218/418/4 208/396/4
f 660/388/4 175/386/4 231/386/4 248/388/4
f 20/418/4 145/419/4 233/419/4 218/418/4
f 8/5/5 131/420/5 228/420/5 215/5/5
f 128/342/5 4/341/5 205/341/5 203/342/5
f 664/62/1 165/1/1 247/1/1 255/62/1
f 131/420/5 167/40/5 250/40/5 228/420/5
f 152/348/1 164/421/1 245/422/1 240/348/1
f 120/20/5 180/311/5 256/311/5 222/20/5
f 224/307/3 220/423/3 206/424/3 194/308/3
f 180/48/2 182/47/2 259/47/2 256/48/2
f 173/24/5 128/342/5 203/342/5 227/24/5
f 164/421/1 660/388/1 248/388/1 245/421/1
f 168/39/4 664/62/4 255/62/4 253/39/4
f 246/10/3 197/9/3 252/425/3 254/426/3
f 234/427/3 194/308/3 219/428/3 232/429/3
f 167/40/4 168/39/4 253/39/4 250/40/4
f 194/308/3 206/430/3 209/431/3 219/432/3
f 236/413/6 196/336/6 258/433/6 260/434/6
f 249/435/6 230/337/6 195/69/6 244/68/6
f 653/398/2 187/403/2 225/403/2 239/398/2
f 182/47/2 657/58/2 261/312/2 259/47/2
f 197/9/3 229/436/3 251/437/3 252/425/3
f 145/419/1 150/397/1 235/397/1 233/419/1
f 199/438/22 201/439/22 200/334/22 198/333/22
f 203/440/23 205/417/23 204/305/23 202/304/23
f 207/395/24 208/396/24 209/431/24 206/430/24
f 211/303/22 199/438/22 198/412/22 210/411/22
f 205/417/25 212/349/25 213/70/25 204/305/25
f 214/331/26 216/8/26 217/66/26 215/5/26
f 208/396/27 218/418/27 219/432/27 209/431/27
f 221/402/24 207/395/24 206/424/24 220/423/24
f 201/439/23 222/441/23 223/335/23 200/334/23
f 227/385/23 203/440/23 202/339/23 226/338/23
f 215/5/24 228/420/24 229/332/24 214/331/24
f 218/418/27 233/419/27 232/429/27 219/428/27
f 210/411/28 236/413/28 237/302/28 211/303/28
f 238/306/29 234/309/29 235/397/29 239/398/29
f 234/427/29 232/429/29 233/419/29 235/397/29
f 212/349/25 240/348/25 241/71/25 213/70/25
f 216/8/26 242/7/26 243/2/26 217/66/26
f 242/7/29 246/10/29 247/1/29 243/2/29
f 249/435/28 244/68/28 245/421/28 248/388/28
f 244/68/28 241/71/28 240/348/28 245/422/28
f 228/420/24 250/40/24 251/437/24 229/436/24
f 246/10/29 254/426/29 255/62/29 247/1/29
f 226/338/22 230/337/22 231/386/22 227/385/22
f 230/337/22 249/435/22 248/388/22 231/386/22
f 253/39/27 255/62/27 254/426/27 252/425/27
f 250/40/27 253/39/27 252/425/27 251/437/27
f 222/441/23 256/48/23 257/415/23 223/414/23
f 236/413/28 260/434/28 261/312/28 237/302/28
f 220/423/26 224/307/26 225/403/26 221/402/26
f 224/307/26 238/306/26 239/398/26 225/403/26
f 259/47/25 261/312/25 260/434/25 258/433/25
f 256/48/25 259/47/25 258/416/25 257/415/25
f 651/65/4 17/14/4 199/14/4 211/65/4
f 174/187/1 129/266/1 269/266/1 298/187/1
f 3/323/1 130/234/1 299/234/1 265/323/1
f 547/34/1 5/33/1 271/33/1 564/446/1
f 10/74/1 185/165/1 294/165/1 281/74/1
f 166/186/1 9/196/1 274/196/1 273/186/1
f 118/31/1 1/38/1 263/38/1 262/31/1
f 14/188/1 174/187/1 298/187/1 278/188/1
f 185/165/1 118/31/1 262/31/1 294/165/1
f 181/164/1 13/135/1 276/135/1 275/164/1
f 551/346/1 25/345/1 283/345/1 565/445/1
f 418/457/4 419/352/4 754/352/4 742/457/4
f 176/458/5 403/459/5 748/459/5 728/458/5
f 556/362/5 95/399/5 702/399/5 761/362/5
f 416/460/4 417/461/4 704/461/4 753/460/4
f 665/462/5 137/463/5 720/463/5 697/462/5
f 677/464/1 680/314/1 691/314/1 715/464/1
f 415/361/4 414/465/4 741/465/4 752/361/4
f 56/466/6 142/467/6 455/467/6 440/466/6
f 98/355/3 147/468/3 456/468/3 430/355/3
f 171/470/5 136/471/5 714/471/5 730/470/5
f 569/368/1 678/275/1 695/275/1 760/368/1
f 413/472/4 412/287/4 751/287/4 731/472/4
f 179/384/1 396/473/1 745/473/1 725/384/1
f 161/474/6 55/475/6 481/475/6 435/474/6
f 678/275/1 676/274/1 713/274/1 695/275/1
f 399/476/5 171/470/5 730/470/5 746/476/5
f 561/351/1 658/477/1 693/477/1 758/351/1
f 141/479/3 52/480/3 444/480/3 432/479/3
f 803/483/2 790/270/2 602/269/2 605/482/2
f 804/484/3 793/485/3 337/391/3 344/278/3
f 801/289/4 798/285/4 571/284/4 572/290/4
f 641/486/17 807/487/17 796/488/17 603/489/17
f 604/490/4 603/489/4 796/488/4 795/491/4
f 794/492/6 797/493/6 336/224/6 340/407/6
f 625/494/3 137/463/3 650/391/3 772/495/3 774/496/3
f 678/275/2 569/368/2 679/497/2 787/498/2 789/276/2
f 650/391/30 326/278/30 344/278/30 337/391/30
f 624/499/18 773/500/18 792/501/18 570/502/18
f 671/503/4 600/504/4 672/505/4 781/506/4 783/507/4
f 327/321/31 620/320/31 332/320/31 345/321/31
f 646/224/32 312/407/32 340/407/32 336/224/32
f 313/296/33 637/295/33 335/295/33 341/296/33
f 341/296/3 335/295/3 799/508/3 800/509/3
f 390/42/1 352/514/1 363/515/1 391/119/1
f 386/140/1 365/513/1 351/51/1 387/54/1
f 389/50/6 11/49/6 346/521/6 350/57/6
f 390/42/3 15/41/3 348/522/3 352/514/3
f 583/26/5 12/25/5 347/524/5 606/523/5
f 24/526/4 55/475/4 386/140/4 387/54/4
f 56/466/2 23/527/2 389/50/2 388/56/2
f 51/528/4 21/529/4 390/42/4 391/119/4
f 22/530/2 52/480/2 393/127/2 392/46/2
f 52/480/2 141/479/2 394/260/2 393/127/2
f 142/467/2 56/466/2 388/56/2 395/254/2
f 154/358/4 75/357/4 611/531/4 610/63/4
f 316/272/4 76/271/4 613/209/4 612/532/4
f 77/239/4 155/238/4 614/387/4 615/533/4
f 78/61/4 317/60/4 616/534/4 617/237/4
f 87/535/4 160/536/4 404/118/4 405/217/4
f 88/537/4 322/538/4 406/216/4 407/210/4
f 161/474/4 89/539/4 409/207/4 408/141/4
f 323/540/4 90/541/4 411/206/4 410/208/4
f 76/271/4 88/537/4 407/210/4 613/209/4
f 90/541/4 78/61/4 617/237/4 411/206/4
f 96/379/2 146/542/2 627/405/2 628/543/2
f 97/132/2 302/380/2 629/544/2 630/134/2
f 147/468/2 98/355/2 632/545/2 631/59/2
f 303/354/2 99/372/2 634/75/2 633/546/2
f 111/273/2 308/258/2 420/262/2 421/261/2
f 309/211/2 113/257/2 423/253/2 422/256/2
f 110/133/2 97/132/2 630/134/2 424/112/2
f 99/372/2 112/212/2 425/72/2 634/75/2
f 141/479/2 111/273/2 421/261/2 394/260/2
f 113/257/2 142/467/2 395/254/2 423/253/2
f 146/542/2 22/530/2 392/46/2 627/405/2
f 23/527/2 147/468/2 631/59/2 389/50/2
f 21/529/4 154/358/4 610/63/4 390/42/4
f 155/238/4 24/526/4 387/54/4 614/387/4
f 160/536/4 51/528/4 391/119/4 404/118/4
f 55/475/4 161/474/4 408/141/4 386/140/4
f 302/380/2 96/379/2 628/543/2 629/544/2
f 98/355/2 303/354/2 633/546/2 632/545/2
f 308/258/2 110/133/2 424/112/2 420/262/2
f 112/212/2 309/211/2 422/256/2 425/72/2
f 75/357/4 316/272/4 612/532/4 611/531/4
f 317/60/4 77/239/4 615/533/4 616/534/4
f 322/538/4 87/535/4 405/217/4 406/216/4
f 89/539/4 323/540/4 410/208/4 409/207/4
f 316/272/6 75/357/6 486/357/6 487/272/6
f 112/212/5 99/372/5 503/372/5 505/212/5
f 160/536/3 87/535/3 426/535/3 434/536/3
f 77/239/3 317/60/3 463/60/3 427/239/3
f 111/273/3 141/479/3 432/479/3 428/273/3
f 322/538/3 88/537/3 494/537/3 439/538/3
f 87/535/3 322/538/3 439/538/3 426/535/3
f 142/467/6 113/257/6 429/257/6 455/467/6
f 89/539/6 161/474/6 435/474/6 449/539/6
f 323/540/6 89/539/6 449/539/6 462/540/6
f 22/530/6 146/542/6 431/542/6 483/530/6
f 90/541/6 323/540/6 462/540/6 446/541/6
f 55/475/1 24/526/1 482/526/1 481/475/1
f 147/468/3 23/527/3 441/527/3 456/468/3
f 88/537/5 76/271/5 488/271/5 494/537/5
f 23/527/1 56/466/1 440/466/1 441/527/1
f 154/358/6 21/529/6 442/529/6 433/358/6
f 78/61/5 90/541/5 446/541/5 445/61/5
f 21/529/1 51/528/1 443/528/1 442/529/1
f 24/526/3 155/238/3 436/238/3 482/526/3
f 146/542/6 96/379/6 451/379/6 431/542/6
f 52/480/1 22/530/1 483/530/1 444/480/1
f 51/528/3 160/536/3 434/536/3 443/528/3
f 302/380/6 97/132/6 447/132/6 460/380/6
f 15/41/5 548/97/5 574/518/5 348/522/5
f 326/278/34 788/587/34 804/484/34 344/278/34
f 638/381/4 557/406/4 682/283/4 775/282/4 777/588/4
f 589/364/4 101/363/4 808/589/4 807/487/4 641/486/4
f 674/590/1 677/464/1 715/464/1 727/590/1
f 7/267/1 551/346/1 565/445/1 268/267/1
f 30/35/1 547/34/1 564/446/1 272/35/1
f 16/45/5 549/91/5 563/301/5 186/402/5
f 131/420/5 559/330/5 562/94/5 167/40/5
f 625/494/5 555/350/5 750/350/5 694/494/5
f 8/5/5 546/329/5 559/330/5 131/420/5
f 186/402/5 563/301/5 558/100/5 119/395/5
f 20/418/4 6/396/4 552/106/4 553/83/4
f 119/395/5 558/100/5 552/103/5 6/396/5
f 167/40/5 562/94/5 548/97/5 15/41/5
f 349/44/5 575/88/5 549/91/5 16/45/5
f 145/419/4 20/418/4 553/83/4 683/82/4
f 621/591/2 587/592/2 686/269/2 769/593/2 771/594/2
f 312/407/35 782/595/35 794/596/35 340/407/35
f 573/497/2 570/502/2 792/597/2 805/598/2
f 661/599/1 662/600/1 689/600/1 717/599/1
f 676/274/1 675/601/1 729/601/1 713/274/1
f 26/344/1 578/322/1 596/324/1 266/344/1
f 1/38/1 582/37/1 597/286/1 263/38/1
f 18/347/2 4/417/2 581/109/2 585/77/2
f 152/348/2 18/347/2 585/77/2 687/76/2
f 397/602/3 396/473/3 610/63/3 611/531/3
f 399/476/3 398/603/3 612/532/3 613/209/3
f 400/400/6 401/604/6 615/533/6 614/387/6
f 402/605/6 403/459/6 617/237/6 616/534/6
f 134/606/6 73/607/6 619/298/6 618/297/6
f 620/320/15 770/608/15 791/609/15 332/320/15
f 554/367/2 623/610/2 74/280/2 622/279/2
f 772/495/36 650/391/36 337/391/36 793/485/36
f 171/470/3 399/476/3 613/209/3 626/231/3
f 412/287/3 413/472/3 628/543/3 627/405/3
f 414/465/3 415/361/3 630/134/3 629/544/3
f 417/461/6 416/460/6 631/59/6 632/545/6
f 419/352/6 418/457/6 633/546/6 634/75/6
f 124/235/3 95/399/3 636/220/3 635/219/3
f 637/295/36 776/611/36 799/508/36 335/295/36
f 588/377/4 100/376/4 640/448/4 639/456/4
f 101/612/6 127/366/6 646/224/6 806/613/6 808/614/6
f 183/353/6 419/352/6 634/75/6 642/450/6
f 190/236/3 124/235/3 635/219/3 643/263/3
f 191/615/3 125/382/3 637/295/3 644/294/3
f 100/616/6 126/378/6 645/453/6 640/452/6
f 176/458/6 134/606/6 618/297/6 647/394/6
f 177/617/6 135/618/6 620/320/6 648/319/6
f 623/610/3 136/471/3 649/455/3 74/280/3
f 125/382/3 638/381/3 777/588/3 776/619/3 637/295/3
f 652/620/6 138/621/6 651/303/6 151/302/6
f 654/622/3 192/288/3 653/398/3 150/397/3
f 655/389/3 654/622/3 150/397/3 145/419/3
f 138/623/4 592/624/4 656/64/4 651/65/4
f 416/460/6 193/625/6 657/58/6 631/59/6
f 659/383/3 658/477/3 153/2/3 165/1/3
f 661/599/6 178/401/6 660/388/6 164/421/6
f 662/600/6 661/599/6 164/421/6 152/348/6
f 658/477/2 561/351/2 663/67/2 153/2/2
f 396/473/3 179/384/3 664/62/3 610/63/3
f 136/471/3 171/470/3 626/231/3 649/455/3
f 137/463/3 665/462/3 172/392/3 650/391/3
f 403/459/6 176/458/6 647/394/6 617/237/6
f 178/401/6 400/400/6 614/387/6 660/388/6
f 179/384/3 659/383/3 165/1/3 664/62/3
f 126/378/6 183/353/6 642/450/6 645/453/6
f 127/366/6 666/365/6 184/408/6 646/224/6
f 415/361/3 190/236/3 643/263/3 630/134/3
f 192/288/3 412/287/3 627/405/3 653/398/3
f 193/625/6 652/620/6 151/302/6 657/58/6
f 413/472/3 414/465/3 629/544/3 628/543/3
f 418/457/6 417/461/6 632/545/6 633/546/6
f 667/626/3 191/615/3 644/294/3 314/293/3
f 666/365/6 668/627/6 315/409/6 184/408/6
f 668/627/6 669/628/6 312/407/6 315/409/6
f 670/629/3 667/626/3 314/293/3 313/296/3
f 781/630/14 672/505/14 604/490/14 795/491/14
f 784/631/35 327/321/35 345/321/35 802/632/35
f 778/633/34 313/296/34 341/296/34 800/634/34
f 398/603/3 397/602/3 611/531/3 612/532/3
f 401/604/6 402/605/6 616/534/6 615/533/6
f 674/590/6 177/617/6 648/319/6 328/318/6
f 665/462/3 675/601/3 329/393/3 172/392/3
f 675/601/3 676/274/3 326/278/3 329/393/3
f 677/464/6 674/590/6 328/318/6 327/321/6
f 787/635/16 679/497/16 573/497/16 805/636/16
f 345/321/6 332/320/6 791/609/6 802/632/6
f 688/317/16 785/316/16 803/483/16 605/482/16
f 95/399/4 556/362/4 681/291/4 636/220/4
f 673/227/3 670/629/3 313/296/3 778/637/3 780/228/3
f 560/390/4 655/389/4 145/419/4 683/82/4
f 669/628/6 671/638/6 783/639/6 782/640/6 312/407/6
f 569/368/2 554/367/2 622/279/2 679/497/2
f 556/362/4 568/226/4 684/230/4 681/291/4
f 561/351/2 555/350/2 624/499/2 663/67/2
f 557/406/4 560/390/4 683/82/4 682/283/4
f 73/607/2 586/641/2 685/444/2 619/298/2
f 555/350/2 625/494/2 774/496/2 773/500/2 624/499/2
f 593/642/2 662/600/2 152/348/2 687/76/2
f 680/314/6 677/464/6 327/321/6 784/643/6 786/315/6
f 586/641/2 601/313/2 688/317/2 685/444/2
f 600/504/4 588/377/4 639/456/4 672/505/4
f 587/592/2 593/642/2 687/76/2 686/269/2
f 592/624/4 589/364/4 641/486/4 656/64/4
f 560/390/3 557/406/3 762/406/3 763/390/3
f 652/620/1 193/625/1 733/625/1 711/620/1
f 125/382/5 191/615/5 732/615/5 710/382/5
f 586/641/5 73/607/5 692/607/5 765/641/5
f 414/465/4 413/472/4 731/472/4 741/465/4
f 126/378/5 100/616/5 739/616/5 706/378/5
f 587/592/5 621/591/5 690/591/5 766/592/5
f 417/461/4 418/457/4 742/457/4 704/461/4
f 127/366/5 101/612/5 721/612/5 712/366/5
f 662/600/1 593/642/1 767/642/1 689/600/1
f 191/615/2 667/626/2 735/626/2 732/615/2
f 134/606/5 176/458/5 728/458/5 716/606/5
f 680/314/1 601/313/1 768/313/1 691/314/1
f 668/627/2 666/365/2 703/365/2 737/627/2
f 135/618/5 177/617/5 724/617/5 718/618/5
f 601/313/6 586/641/6 765/641/6 768/313/6
f 669/628/1 668/627/1 737/627/1 705/628/1
f 136/471/5 623/610/5 696/610/5 714/471/5
f 588/377/6 600/504/6 759/504/6 755/377/6
f 667/626/1 670/629/1 707/629/1 735/626/1
f 137/463/5 625/494/5 694/494/5 720/463/5
f 593/642/6 587/592/6 766/592/6 767/642/6
f 671/638/1 669/628/1 705/628/1 740/638/1
f 138/621/1 652/620/1 711/620/1 722/621/1
f 396/473/2 397/602/2 698/602/2 745/473/2
f 589/364/6 592/624/6 757/624/6 756/364/6
f 600/504/1 671/503/1 740/503/1 759/504/1
f 192/288/1 654/622/1 709/622/1 734/288/1
f 398/603/2 399/476/2 746/476/2 744/603/2
f 670/629/1 673/227/1 701/227/1 707/629/1
f 654/622/1 655/389/1 699/389/1 709/622/1
f 401/604/2 400/400/2 747/400/2 723/604/2
f 397/602/2 398/603/2 744/603/2 698/602/2
f 592/624/1 138/623/1 722/623/1 757/624/1
f 403/459/2 402/605/2 743/605/2 748/459/2
f 402/605/2 401/604/2 723/604/2 743/605/2
f 193/625/1 416/460/1 753/460/1 733/625/1
f 73/607/5 134/606/5 716/606/5 692/607/5
f 177/617/4 674/590/4 727/590/4 724/617/4
f 658/477/1 659/383/1 719/383/1 693/477/1
f 621/591/5 135/618/5 718/618/5 690/591/5
f 675/601/4 665/462/4 697/462/4 729/601/4
f 178/401/1 661/599/1 717/599/1 726/401/1
f 623/610/5 554/367/5 749/367/5 696/610/5
f 769/268/49 770/644/49 771/594/49
f 772/495/50 773/645/50 774/496/50
f 775/282/51 776/646/51 777/588/51
f 778/633/52 779/647/52 780/228/52
f 781/648/53 782/595/53 783/649/53
f 784/631/54 785/650/54 786/315/54
f 787/635/55 788/651/55 789/276/55
f 806/223/56 807/652/56 808/652/56
f 769/268/57 790/270/57 791/609/57 770/608/57
f 775/282/58 798/285/58 799/508/58 776/611/58
f 801/289/59 779/229/59 778/633/59 800/634/59
f 803/483/60 785/316/60 784/631/60 802/632/60
f 795/649/22 796/652/22 797/493/22 794/492/22
f 798/285/27 801/289/27 800/509/27 799/508/27
f 790/270/25 803/483/25 802/632/25 791/609/25
f 793/485/26 804/484/26 805/598/26 792/597/26
f 806/223/61 797/225/61 796/652/61 807/652/61
f 772/495/62 793/485/62 792/501/62 773/500/62
f 787/635/63 805/636/63 804/484/63 788/587/63
f 781/648/64 795/649/64 794/596/64 782/595/64
f 135/618/6 621/591/6 771/594/6 770/608/6 620/320/6
usemtl M_Noir_Bleuté
f 812/15/4 832/16/4 86/17/4 42/18/4
f 425/72/2 54/73/2 10/74/2 634/75/2
f 687/76/2 585/77/2 39/78/2 156/79/2
f 156/79/2 39/78/2 40/80/2 157/81/2
f 683/82/4 553/83/4 37/84/4 148/85/4
f 148/85/4 37/84/4 38/86/4 149/87/4
f 575/88/5 355/89/5 36/90/5 549/91/5
f 355/89/5 357/92/5 35/93/5 36/90/5
f 562/94/5 169/95/5 34/96/5 548/97/5
f 169/95/5 170/98/5 33/99/5 34/96/5
f 558/100/5 122/101/5 31/102/5 552/103/5
f 122/101/5 123/104/5 32/105/5 31/102/5
f 553/83/4 552/106/4 31/107/4 37/84/4
f 37/84/4 31/107/4 32/108/4 38/86/4
f 585/77/2 581/109/2 27/110/2 39/78/2
f 39/78/2 27/110/2 28/111/2 40/80/2
f 424/112/7 50/113/7 43/114/7 106/115/7
f 816/116/3 838/117/3 116/117/3 60/116/3
f 404/118/8 391/119/8 45/120/8 158/121/8
f 47/122/2 139/123/2 841/124/2 822/125/2
f 362/126/9 393/127/9 47/122/9 358/128/9
f 83/129/4 158/121/4 845/130/4 826/131/4
f 630/134/2 13/135/2 50/113/2 424/112/2
f 108/136/10 44/137/10 54/73/10 425/72/10
f 159/138/11 46/139/11 386/140/11 408/141/11
f 360/142/12 48/143/12 388/56/12 364/55/12
f 823/144/2 844/145/2 140/146/2 48/143/2
f 819/149/1 864/150/1 361/151/1 46/139/1
f 106/115/2 43/114/2 814/152/2 834/153/2
f 837/154/2 815/155/2 44/137/2 108/136/2
f 158/121/4 45/120/4 818/162/4 845/130/4
f 64/148/3 824/163/3 68/148/3 72/148/3
f 824/166/3 862/167/3 368/167/3 68/148/3
f 821/168/6 842/169/6 143/170/6 63/147/6
f 358/128/1 47/122/1 822/172/1 858/173/1
f 820/174/3 847/175/3 163/159/3 62/158/3
f 863/176/3 820/177/3 66/158/3 369/176/3
f 817/178/6 860/179/6 367/179/6 65/157/6
f 856/180/4 829/181/4 85/182/4 321/183/4
f 306/184/2 106/115/2 834/153/2 849/185/2
f 828/197/6 854/198/6 324/199/6 92/197/6
f 810/193/6 828/204/6 92/197/6 57/193/6
f 825/201/6 846/205/6 162/156/6 91/201/6
f 42/18/11 86/17/11 411/206/11 53/195/11
f 321/183/11 85/182/11 409/207/11 410/208/11
f 14/188/4 613/209/4 407/210/4 49/189/4
f 831/200/3 811/213/3 58/194/3 94/200/3
f 830/202/3 855/214/3 325/203/3 93/202/3
f 49/189/8 407/210/8 84/215/8 41/190/8
f 406/216/8 405/217/8 83/129/8 320/218/8
f 635/219/13 636/220/13 270/220/13 292/219/13
f 305/221/14 304/222/14 338/222/14 339/221/14
f 613/209/4 14/188/4 278/188/4 277/209/4
f 626/231/13 613/209/13 277/209/13 290/231/13
f 319/232/16 318/233/16 342/233/16 343/232/16
f 53/195/4 411/206/4 617/237/4 9/196/4
f 45/120/1 359/240/1 859/241/1 818/162/1
f 844/145/2 839/242/2 109/243/2 140/146/2
f 835/244/6 850/249/6 310/247/6 115/244/6
f 850/247/6 833/250/6 114/160/6 310/247/6
f 139/123/2 107/251/2 836/252/2 841/124/2
f 107/251/2 306/184/2 849/185/2 836/252/2
f 140/146/10 109/243/10 423/253/10 395/254/10
f 307/255/10 108/136/10 425/72/10 422/256/10
f 840/245/3 843/246/3 144/246/3 117/245/3
f 839/242/2 852/259/2 307/255/2 109/243/2
f 394/260/7 421/261/7 107/251/7 139/123/7
f 420/262/7 424/112/7 106/115/7 306/184/7
f 643/263/13 635/219/13 292/219/13 296/263/13
f 102/264/17 104/265/17 334/265/17 333/264/17
f 622/279/19 74/280/19 267/280/19 566/281/19
f 681/291/20 103/292/20 287/292/20 567/291/20
f 618/297/21 619/298/21 264/298/21 289/297/21
f 188/299/5 189/300/5 123/104/5 122/101/5
f 563/301/5 188/299/5 122/101/5 558/100/5
f 28/325/5 27/326/5 133/327/5 132/328/5
f 546/329/5 28/325/5 132/328/5 559/330/5
f 393/127/7 394/260/7 139/123/7 47/122/7
f 843/246/3 824/356/3 64/148/3 144/246/3
f 48/143/10 140/146/10 395/254/10 388/56/10
f 821/147/6 63/147/6 71/147/6 67/147/6
f 857/171/6 821/359/6 67/147/6 366/171/6
f 359/240/1 358/128/1 858/360/1 859/241/1
f 102/264/4 148/85/4 149/87/4 104/265/4
f 682/283/4 683/82/4 148/85/4 102/264/4
f 848/369/4 819/149/4 46/139/4 159/138/4
f 854/199/6 825/370/6 91/201/6 324/199/6
f 320/218/4 83/129/4 826/131/4 853/371/4
f 85/182/11 159/138/11 408/141/11 409/207/11
f 847/159/3 830/373/3 93/202/3 163/159/3
f 405/217/8 404/118/8 158/121/8 83/129/8
f 79/374/2 156/79/2 157/81/2 81/375/2
f 686/269/2 687/76/2 156/79/2 79/374/2
f 630/134/13 643/263/13 296/263/13 279/134/13
f 617/237/21 647/394/21 300/394/21 282/237/21
f 132/328/5 133/327/5 170/98/5 169/95/5
f 559/330/5 132/328/5 169/95/5 562/94/5
f 833/160/6 813/404/6 59/161/6 114/160/6
f 549/91/5 36/90/5 188/299/5 563/301/5
f 36/90/5 35/93/5 189/300/5 188/299/5
f 103/292/20 105/410/20 288/410/20 287/292/20
f 266/344/2 285/442/2 286/443/2 283/345/2
f 596/324/2 598/444/2 285/442/2 266/344/2
f 299/234/6 289/297/6 264/298/6 265/323/6
f 565/445/2 566/281/2 267/280/2 268/267/2
f 298/187/3 290/231/3 277/209/3 278/188/3
f 272/35/4 287/292/4 288/410/4 284/36/4
f 564/446/4 567/291/4 287/292/4 272/35/4
f 295/32/3 292/219/3 270/220/3 271/33/3
f 597/286/4 599/447/4 291/448/4 263/38/4
f 294/449/6 293/450/6 280/75/6 281/74/6
f 263/451/6 291/452/6 297/453/6 262/454/6
f 275/164/3 296/263/3 292/219/3 295/32/3
f 268/267/3 267/280/3 301/455/3 269/266/3
f 273/186/6 300/394/6 289/297/6 299/234/6
f 274/196/6 282/237/6 300/394/6 273/186/6
f 269/266/3 301/455/3 290/231/3 298/187/3
f 276/135/3 279/134/3 296/263/3 275/164/3
f 262/454/6 297/453/6 293/450/6 294/449/6
f 640/452/21 645/453/21 297/453/21 291/452/21
f 13/135/2 630/134/2 279/134/2 276/135/2
f 645/453/21 642/450/21 293/450/21 297/453/21
f 634/75/2 10/74/2 281/74/2 280/75/2
f 639/456/20 640/448/20 291/448/20 599/447/20
f 649/455/13 626/231/13 290/231/13 301/455/13
f 9/196/4 617/237/4 282/237/4 274/196/4
f 642/450/21 634/75/21 280/75/21 293/450/21
f 80/442/19 82/443/19 286/443/19 285/442/19
f 647/394/21 618/297/21 289/297/21 300/394/21
f 685/444/19 80/442/19 285/442/19 598/444/19
f 74/280/13 649/455/13 301/455/13 267/280/13
f 681/291/4 684/230/4 304/222/4 103/292/4
f 103/292/4 304/222/4 305/221/4 105/410/4
f 421/261/7 420/262/7 306/184/7 107/251/7
f 851/248/3 840/245/3 117/245/3 311/248/3
f 109/243/10 307/255/10 422/256/10 423/253/10
f 838/117/3 851/248/3 311/248/3 116/117/3
f 842/170/6 835/469/6 115/244/6 143/170/6
f 852/259/2 837/154/2 108/136/2 307/255/2
f 685/444/2 688/317/2 318/233/2 80/442/2
f 80/442/2 318/233/2 319/232/2 82/443/2
f 407/210/8 406/216/8 320/218/8 84/215/8
f 855/203/3 831/478/3 94/200/3 325/203/3
f 86/17/11 321/183/11 410/208/11 411/206/11
f 829/181/4 848/369/4 159/138/4 85/182/4
f 84/215/4 320/218/4 853/371/4 827/481/4
f 832/16/4 856/180/4 321/183/4 86/17/4
f 342/233/2 330/374/2 331/375/2 343/232/2
f 605/482/2 602/269/2 330/374/2 342/233/2
f 338/222/4 333/264/4 334/265/4 339/221/4
f 572/290/4 571/284/4 333/264/4 338/222/4
f 682/283/17 102/264/17 333/264/17 571/284/17
f 79/374/18 81/375/18 331/375/18 330/374/18
f 679/497/16 319/232/16 343/232/16 573/497/16
f 672/505/14 305/221/14 339/221/14 604/490/14
f 686/269/18 79/374/18 330/374/18 602/269/18
f 861/510/1 823/144/1 48/143/1 360/142/1
f 846/156/6 817/511/6 61/157/6 162/156/6
f 864/150/1 861/510/1 360/142/1 361/151/1
f 61/157/6 817/512/6 65/157/6 69/157/6
f 860/179/6 857/171/6 366/171/6 367/179/6
f 46/139/12 361/151/12 365/513/12 386/140/12
f 361/151/12 360/142/12 364/55/12 365/513/12
f 365/513/3 364/55/3 384/55/3 385/513/3
f 820/158/3 62/158/3 70/158/3 66/158/3
f 862/167/3 863/176/3 369/176/3 368/167/3
f 391/119/9 363/515/9 359/240/9 45/120/9
f 363/515/9 362/126/9 358/128/9 359/240/9
f 34/96/5 33/99/5 356/516/5 354/517/5
f 351/51/2 365/513/2 385/513/2 375/51/2
f 548/97/5 34/96/5 354/517/5 574/518/5
f 607/27/4 357/92/4 381/92/4 609/519/4
f 575/88/4 349/44/4 373/44/4 577/520/4
f 362/126/6 363/515/6 383/515/6 382/126/6
f 606/523/2 347/524/2 371/524/2 608/525/2
f 353/43/4 362/126/4 382/126/4 377/43/4
f 376/514/1 377/43/1 382/126/1 383/515/1
f 378/517/5 380/516/5 381/92/5 379/89/5
f 576/518/5 378/517/5 379/89/5 577/520/5
f 385/513/1 384/55/1 374/57/1 375/51/1
f 374/57/6 370/521/6 371/52/6 375/51/6
f 376/514/3 372/522/3 373/44/3 377/43/3
f 608/525/5 371/524/5 370/28/5 609/519/5
f 364/55/4 350/57/4 374/57/4 384/55/4
f 350/57/4 346/521/4 370/521/4 374/57/4
f 347/52/2 351/51/2 375/51/2 371/52/2
f 354/517/2 356/516/2 380/516/2 378/517/2
f 352/514/2 348/522/2 372/522/2 376/514/2
f 357/92/4 355/89/4 379/89/4 381/92/4
f 363/515/2 352/514/2 376/514/2 383/515/2
f 349/44/4 353/43/4 377/43/4 373/44/4
f 574/518/2 354/517/2 378/517/2 576/518/2
f 348/522/2 574/518/2 576/518/2 372/522/2
f 372/522/5 576/518/5 577/520/5 373/44/5
f 355/89/4 575/88/4 577/520/4 379/89/4
f 81/375/18 624/499/18 570/502/18 331/375/18
f 343/232/2 331/375/2 570/502/2 573/497/2
f 82/443/2 319/232/2 679/497/2 622/279/2
f 271/33/4 270/220/4 567/291/4 564/446/4
f 283/345/2 286/443/2 566/281/2 565/445/2
f 81/375/2 157/81/2 663/67/2 624/499/2
f 636/220/20 681/291/20 567/291/20 270/220/20
f 82/443/19 622/279/19 566/281/19 286/443/19
f 304/222/14 684/230/14 572/290/14 338/222/14
f 157/81/2 40/80/2 550/3/2 663/67/2
f 40/80/2 28/111/2 546/4/2 550/3/2
f 380/516/5 608/525/5 609/519/5 381/92/5
f 33/99/5 583/26/5 606/523/5 356/516/5
f 356/516/2 606/523/2 608/525/2 380/516/2
f 346/28/4 607/27/4 609/519/4 370/28/4
f 339/221/4 334/265/4 603/489/4 604/490/4
f 105/410/4 305/221/4 672/505/4 639/456/4
f 619/298/19 685/444/19 598/444/19 264/298/19
f 105/410/20 639/456/20 599/447/20 288/410/20
f 284/36/4 288/410/4 599/447/4 597/286/4
f 265/323/2 264/298/2 598/444/2 596/324/2
f 35/93/5 584/30/5 595/310/5 189/300/5
f 133/327/5 591/343/5 594/23/5 170/98/5
f 104/265/4 149/87/4 656/64/4 641/486/4
f 27/326/5 581/340/5 591/343/5 133/327/5
f 189/300/5 595/310/5 590/19/5 123/104/5
f 318/233/16 688/317/16 605/482/16 342/233/16
f 104/265/17 641/486/17 603/489/17 334/265/17
f 149/87/4 38/86/4 580/11/4 656/64/4
f 357/92/5 607/27/5 584/30/5 35/93/5
f 170/98/5 594/23/5 583/26/5 33/99/5
f 123/104/5 590/19/5 579/22/5 32/105/5
f 38/86/4 32/108/4 579/12/4 580/11/4
f 860/179/28 817/178/28 818/162/28 859/241/28
f 864/150/29 819/149/29 820/177/29 863/176/29
f 828/204/22 810/193/22 809/191/22 827/481/22
f 832/16/27 812/15/27 811/213/27 831/200/27
f 842/169/25 821/168/25 822/125/25 841/124/25
f 844/145/26 823/144/26 824/356/26 843/246/26
f 846/205/22 825/201/22 826/131/22 845/130/22
f 854/198/22 828/197/22 827/481/22 853/371/22
f 848/369/27 829/181/27 830/373/27 847/159/27
f 856/180/27 832/16/27 831/478/27 855/203/27
f 813/404/25 833/160/25 834/153/25 814/152/25
f 850/249/25 835/244/25 836/252/25 849/185/25
f 815/155/26 837/154/26 838/117/26 816/116/26
f 852/259/26 839/242/26 840/245/26 851/248/26
f 835/469/25 842/170/25 841/124/25 836/252/25
f 839/242/26 844/145/26 843/246/26 840/245/26
f 817/511/22 846/156/22 845/130/22 818/162/22
f 819/149/27 848/369/27 847/175/27 820/174/27
f 833/250/25 850/247/25 849/185/25 834/153/25
f 837/154/26 852/259/26 851/248/26 838/117/26
f 825/370/22 854/199/22 853/371/22 826/131/22
f 829/181/27 856/180/27 855/214/27 830/202/27
f 821/359/28 857/171/28 858/173/28 822/172/28
f 857/171/28 860/179/28 859/241/28 858/360/28
f 823/144/29 861/510/29 862/167/29 824/166/29
f 861/510/29 864/150/29 863/176/29 862/167/29
f 41/190/4 84/215/4 827/481/4 809/191/4
usemtl M_Noir_Profond
f 63/147/2 64/148/2 72/148/2 71/147/2
f 162/156/4 61/157/4 62/158/4 163/159/4
f 114/160/2 59/161/2 60/116/2 116/117/2
f 366/171/1 67/147/1 68/148/1 368/167/1
f 68/148/1 67/147/1 71/147/1 72/148/1
f 65/157/1 66/158/1 70/158/1 69/157/1
f 62/158/4 61/157/4 69/157/4 70/158/4
f 57/193/4 92/197/4 94/200/4 58/194/4
f 324/199/4 91/201/4 93/202/4 325/203/4
f 143/170/2 115/244/2 117/245/2 144/246/2
f 310/247/2 114/160/2 116/117/2 311/248/2
f 63/147/2 143/170/2 144/246/2 64/148/2
f 91/201/4 162/156/4 163/159/4 93/202/4
f 115/244/2 310/247/2 311/248/2 117/245/2
f 92/197/4 324/199/4 325/203/4 94/200/4
f 65/157/1 367/179/1 369/176/1 66/158/1
f 367/179/1 366/171/1 368/167/1 369/176/1
f 453/547/6 458/548/6 522/548/6 512/547/6
f 479/549/3 461/550/3 525/550/3 544/549/3
f 473/551/6 464/552/6 528/552/6 538/551/6
f 461/550/3 452/553/3 511/553/3 525/550/3
f 459/554/3 454/555/3 513/555/3 523/554/3
f 448/556/6 457/557/6 518/557/6 506/556/6
f 478/558/3 459/554/3 523/554/3 543/558/3
f 499/559/6 500/560/6 524/560/6 510/559/6
f 467/561/6 485/562/6 514/562/6 532/561/6
f 454/555/3 501/563/3 515/563/3 513/555/3
f 495/564/6 465/565/6 530/565/6 520/564/6
f 484/566/3 472/567/3 537/567/3 517/566/3
f 500/560/6 477/568/6 542/568/6 524/560/6
f 470/569/3 491/570/3 519/570/3 535/569/3
f 472/567/1 471/571/1 536/571/1 537/567/1
f 498/572/6 499/559/6 510/559/6 516/572/6
f 466/573/4 465/565/4 481/475/4 482/526/4
f 467/561/2 468/574/2 441/527/2 440/466/2
f 470/569/4 469/575/4 442/529/4 443/528/4
f 471/571/2 472/567/2 444/480/2 483/530/2
f 472/567/2 484/566/2 432/479/2 444/480/2
f 485/562/2 467/561/2 440/466/2 455/467/2
f 457/557/4 448/556/4 486/357/4 433/358/4
f 464/552/4 473/551/4 488/271/4 487/272/4
f 450/576/4 489/577/4 436/238/4 427/239/4
f 474/578/4 490/579/4 463/60/4 445/61/4
f 492/580/4 491/570/4 434/536/4 426/535/4
f 475/581/4 493/582/4 439/538/4 494/537/4
f 495/564/4 496/583/4 449/539/4 435/474/4
f 497/584/4 476/585/4 446/541/4 462/540/4
f 473/551/4 475/581/4 494/537/4 488/271/4
f 476/585/4 474/578/4 445/61/4 446/541/4
f 499/559/2 498/572/2 431/542/2 451/379/2
f 477/568/2 500/560/2 460/380/2 447/132/2
f 501/563/2 454/555/2 430/355/2 456/468/2
f 459/554/2 478/558/2 503/372/2 502/354/2
f 452/553/2 461/550/2 438/258/2 428/273/2
f 458/548/2 453/547/2 429/257/2 437/211/2
f 479/549/2 477/568/2 447/132/2 504/133/2
f 478/558/2 480/586/2 505/212/2 503/372/2
f 484/566/2 452/553/2 428/273/2 432/479/2
f 453/547/2 485/562/2 455/467/2 429/257/2
f 498/572/2 471/571/2 483/530/2 431/542/2
f 468/574/2 501/563/2 456/468/2 441/527/2
f 469/575/4 457/557/4 433/358/4 442/529/4
f 489/577/4 466/573/4 482/526/4 436/238/4
f 491/570/4 470/569/4 443/528/4 434/536/4
f 465/565/4 495/564/4 435/474/4 481/475/4
f 500/560/2 499/559/2 451/379/2 460/380/2
f 454/555/2 459/554/2 502/354/2 430/355/2
f 461/550/2 479/549/2 504/133/2 438/258/2
f 480/586/2 458/548/2 437/211/2 505/212/2
f 448/556/4 464/552/4 487/272/4 486/357/4
f 490/579/4 450/576/4 427/239/4 463/60/4
f 493/582/4 492/580/4 426/535/4 439/538/4
f 496/583/4 497/584/4 462/540/4 449/539/4
f 489/577/3 450/576/3 509/576/3 521/577/3
f 458/548/6 480/586/6 545/586/6 522/548/6
f 477/568/5 479/549/5 544/549/5 542/568/5
f 490/579/3 474/578/3 539/578/3 527/579/3
f 464/552/6 448/556/6 506/556/6 528/552/6
f 480/586/5 478/558/5 543/558/5 545/586/5
f 491/570/3 492/580/3 507/580/3 519/570/3
f 450/576/3 490/579/3 527/579/3 509/576/3
f 452/553/3 484/566/3 517/566/3 511/553/3
f 493/582/3 475/581/3 540/581/3 529/582/3
f 492/580/3 493/582/3 529/582/3 507/580/3
f 485/562/6 453/547/6 512/547/6 514/562/6
f 496/583/6 495/564/6 520/564/6 508/583/6
f 497/584/6 496/583/6 508/583/6 526/584/6
f 471/571/6 498/572/6 516/572/6 536/571/6
f 476/585/6 497/584/6 526/584/6 541/585/6
f 465/565/1 466/573/1 531/573/1 530/565/1
f 501/563/3 468/574/3 533/574/3 515/563/3
f 475/581/5 473/551/5 538/551/5 540/581/5
f 468/574/1 467/561/1 532/561/1 533/574/1
f 457/557/6 469/575/6 534/575/6 518/557/6
f 474/578/5 476/585/5 541/585/5 539/578/5
f 469/575/1 470/569/1 535/569/1 534/575/1
f 466/573/3 489/577/3 521/577/3 531/573/3
usemtl M_Orange
f 729/601/3 697/462/3 698/602/3 744/603/3
f 737/627/6 703/365/6 704/461/6 742/457/6
f 721/612/37 722/621/37 711/620/37 712/366/37
f 732/615/3 734/288/3 709/622/3 710/382/3
f 710/382/38 709/622/38 699/389/38 700/381/38
f 756/364/39 757/624/39 722/623/39 721/363/39
f 703/365/6 733/625/6 753/460/6 704/461/6
f 694/494/40 693/477/40 719/383/40 720/463/40
f 724/617/6 726/401/6 717/599/6 718/618/6
f 718/618/41 717/599/41 689/600/41 690/591/41
f 750/350/42 758/351/42 693/477/42 694/494/42
f 697/462/3 725/384/3 745/473/3 698/602/3
f 720/463/3 719/383/3 725/384/3 697/462/3
f 723/604/6 747/400/6 726/401/6 724/617/6
f 743/605/6 723/604/6 724/617/6 727/590/6
f 712/366/6 711/620/6 733/625/6 703/365/6
f 731/472/3 751/287/3 734/288/3 732/615/3
f 741/465/3 731/472/3 732/615/3 735/626/3
f 706/378/6 705/628/6 737/627/6 738/353/6
f 752/361/3 741/465/3 735/626/3 736/236/3
f 736/236/3 735/626/3 707/629/3 708/235/3
f 739/616/43 740/638/43 705/628/43 706/378/43
f 738/353/6 737/627/6 742/457/6 754/352/6
f 755/377/39 759/504/39 740/503/39 739/376/39
f 708/235/44 707/629/44 701/227/44 702/399/44
f 714/471/3 713/274/3 729/601/3 730/470/3
f 748/459/6 743/605/6 727/590/6 728/458/6
f 728/458/6 727/590/6 715/464/6 716/606/6
f 696/610/45 695/275/45 713/274/45 714/471/45
f 730/470/3 729/601/3 744/603/3 746/476/3
f 749/367/42 760/368/42 695/275/42 696/610/42
f 716/606/46 715/464/46 691/314/46 692/607/46
f 702/399/47 701/227/47 764/226/47 761/362/47
f 700/381/47 699/389/47 763/390/47 762/406/47
f 692/607/48 691/314/48 768/313/48 765/641/48
f 690/591/48 689/600/48 767/642/48 766/592/48
usemtl M_Cyan
f 520/564/4 530/565/4 531/573/4 521/577/4
f 518/557/4 534/575/4 535/569/4 519/570/4
f 528/552/4 506/556/4 507/580/4 529/582/4
f 526/584/4 508/583/4 509/576/4 527/579/4
f 516/572/2 510/559/2 511/553/2 517/566/2
f 524/560/2 542/568/2 544/549/2 525/550/2
f 514/562/2 512/547/2 513/555/2 515/563/2
f 522/548/2 545/586/2 543/558/2 523/554/2
f 532/561/2 514/562/2 515/563/2 533/574/2
f 536/571/2 516/572/2 517/566/2 537/567/2
f 506/556/4 518/557/4 519/570/4 507/580/4
f 508/583/4 520/564/4 521/577/4 509/576/4
f 512/547/2 522/548/2 523/554/2 513/555/2
f 510/559/2 524/560/2 525/550/2 511/553/2
f 541/585/4 526/584/4 527/579/4 539/578/4
f 538/551/4 528/552/4 529/582/4 540/581/4
