# Blender 4.2.3 LTS
# www.blender.org
mtllib SM_Door_Double_V1L.mtl
o SM_Door_Double_V1L
v 0.044251 0.126517 0.062522
v 0.044251 0.062522 0.126517
v 0.044251 0.017271 0.017271
v 0.044251 1.787479 0.126517
v 0.044251 1.723484 0.062522
v 0.044251 1.832730 0.017271
v 0.044251 1.723484 0.937478
v 0.044251 1.787479 0.873483
v 0.044251 1.832730 0.982729
v 0.044251 0.062522 0.873483
v 0.044251 0.126517 0.937478
v 0.044251 0.017271 0.982729
v -0.044251 0.126517 0.937478
v -0.044251 0.062522 0.873483
v -0.044251 0.017271 0.982729
v -0.044251 1.787479 0.873483
v -0.044251 1.723484 0.937478
v -0.044251 1.832730 0.982729
v -0.044251 1.723484 0.062522
v -0.044251 1.787479 0.126517
v -0.044251 1.832730 0.017271
v -0.044251 0.062522 0.126517
v -0.044251 0.126517 0.062522
v -0.044251 0.017271 0.017271
v 0.033051 0.062522 0.126517
v 0.033051 0.126517 0.062522
v 0.033051 1.723484 0.062522
v 0.033051 1.787479 0.126517
v 0.033051 0.126517 0.937478
v 0.033051 0.062522 0.873483
v 0.033051 1.787479 0.873483
v 0.033051 1.723484 0.937478
v -0.033051 1.723484 0.937478
v -0.033051 1.787479 0.873483
v -0.033051 0.062522 0.873483
v -0.033051 0.126517 0.937478
v -0.033051 0.126517 0.062522
v -0.033051 0.062522 0.126517
v -0.033051 1.787479 0.126517
v -0.033051 1.723484 0.062522
v 0.033051 0.078539 0.133152
v 0.033051 0.133152 0.078539
v 0.033051 1.716850 0.078539
v 0.033051 1.771462 0.133152
v 0.033051 1.771462 0.866848
v 0.033051 1.716850 0.921461
v 0.033051 0.133152 0.921461
v 0.033051 0.078539 0.866848
v -0.033051 0.078539 0.866848
v -0.033051 0.133152 0.921461
v -0.033051 1.716850 0.921461
v -0.033051 1.771462 0.866848
v -0.033051 1.771462 0.133152
v -0.033051 1.716850 0.078539
v -0.033051 0.133152 0.078539
v -0.033051 0.078539 0.133152
v 0.044050 0.133152 0.078539
v 0.044050 0.078539 0.133152
v 0.044050 0.078539 0.866848
v 0.044050 1.716850 0.078539
v 0.044050 1.771462 0.133152
v 0.044050 1.771462 0.866848
v 0.044050 1.702154 0.906765
v 0.044050 0.147848 0.906765
v -0.044050 0.147848 0.906765
v -0.044050 0.078539 0.866848
v -0.044050 0.078539 0.133152
v -0.044050 1.702154 0.906765
v -0.044050 1.771462 0.866848
v -0.044050 1.771462 0.133152
v -0.044050 1.716850 0.078539
v -0.044050 0.133152 0.078539
v 0.044251 0.062522 0.275910
v 0.044251 0.062522 0.425303
v 0.044251 0.062522 0.574697
v 0.044251 0.062522 0.724090
v 0.033051 0.062522 0.275910
v 0.033051 0.062522 0.425303
v 0.033051 0.062522 0.574697
v 0.033051 0.062522 0.724090
v 0.044251 1.787479 0.275910
v 0.044251 1.787479 0.425303
v 0.044251 1.787479 0.574697
v 0.044251 1.787479 0.724090
v 0.033051 1.787479 0.724090
v 0.033051 1.787479 0.574697
v 0.033051 1.787479 0.425303
v 0.033051 1.787479 0.275910
v 0.033051 0.078539 0.279891
v 0.033051 0.078539 0.426630
v 0.033051 0.078539 0.573370
v 0.033051 0.078539 0.720109
v 0.033051 1.771462 0.720109
v 0.033051 1.771462 0.573370
v 0.033051 1.771462 0.426630
v 0.033051 1.771462 0.279891
v 0.044050 0.078539 0.279891
v 0.044050 0.078539 0.426630
v 0.044050 0.078539 0.573370
v 0.044050 0.078539 0.720109
v 0.044050 1.771462 0.720109
v 0.044050 1.771462 0.573370
v 0.044050 1.771462 0.426630
v 0.044050 1.771462 0.279891
v 0.044050 0.133152 0.247123
v 0.044050 0.159816 0.322690
v 0.044050 0.147848 0.525646
v 0.044050 0.147848 0.725876
v 0.044050 1.716850 0.247123
v 0.044050 1.690185 0.322690
v 0.044050 1.702154 0.525646
v 0.044050 1.702154 0.725876
v 0.044251 0.354655 0.062522
v 0.044251 0.582793 0.062522
v 0.044251 0.810932 0.062522
v 0.044251 1.039070 0.062522
v 0.044251 1.267208 0.062522
v 0.044251 1.495346 0.062522
v 0.033051 1.495346 0.062522
v 0.033051 1.267208 0.062522
v 0.033051 1.039070 0.062522
v 0.033051 0.810932 0.062522
v 0.033051 0.582793 0.062522
v 0.033051 0.354655 0.062522
v 0.044251 1.495346 0.937478
v 0.044251 1.267208 0.937478
v 0.044251 1.039070 0.937478
v 0.044251 0.810932 0.937478
v 0.044251 0.582793 0.937478
v 0.044251 0.354655 0.937478
v 0.033051 0.354655 0.937478
v 0.033051 0.582793 0.937478
v 0.033051 0.810932 0.937478
v 0.033051 1.039070 0.937478
v 0.033051 1.267208 0.937478
v 0.033051 1.495346 0.937478
v 0.033051 1.490607 0.078539
v 0.033051 1.264364 0.078539
v 0.033051 1.038122 0.078539
v 0.033051 0.811879 0.078539
v 0.033051 0.585637 0.078539
v 0.033051 0.359394 0.078539
v 0.033051 0.359394 0.921461
v 0.033051 0.585637 0.921461
v 0.033051 0.811879 0.921461
v 0.033051 1.038122 0.921461
v 0.033051 1.264364 0.921461
v 0.033051 1.490607 0.921461
v 0.038509 1.408868 0.106688
v 0.044050 1.264364 0.104241
v 0.038509 1.038122 0.106688
v 0.038509 0.811879 0.106688
v 0.038509 0.585637 0.106688
v 0.038509 0.441133 0.106688
v 0.044050 0.359394 0.906765
v 0.044050 0.585637 0.906765
v 0.044050 0.811879 0.906765
v 0.044050 1.038122 0.906765
v 0.044050 1.264364 0.906765
v 0.044050 1.490607 0.906765
v 0.038509 1.369580 0.218974
v 0.038509 1.264364 0.218974
v 0.038509 1.038122 0.218974
v 0.044050 0.811879 0.221421
v 0.044050 0.585637 0.221421
v 0.038509 0.480421 0.218974
v 0.044050 1.490607 0.322690
v 0.044050 1.264364 0.322690
v 0.044050 1.038122 0.322690
v 0.044050 0.811879 0.322690
v 0.044050 0.585637 0.322690
v 0.044050 0.359394 0.322690
v 0.044050 1.490607 0.525646
v 0.044050 1.264364 0.525646
v 0.044050 1.038122 0.525646
v 0.044050 0.811879 0.525646
v 0.044050 0.585637 0.525646
v 0.044050 0.359394 0.525646
v -0.044251 0.062522 0.275910
v -0.044251 0.062522 0.425303
v -0.044251 0.062522 0.574697
v -0.044251 0.062522 0.724090
v -0.033051 0.062522 0.724090
v -0.033051 0.062522 0.574697
v -0.033051 0.062522 0.425303
v -0.033051 0.062522 0.275910
v -0.044251 1.787479 0.275910
v -0.044251 1.787479 0.425303
v -0.044251 1.787479 0.574697
v -0.044251 1.787479 0.724090
v -0.033051 1.787479 0.275910
v -0.033051 1.787479 0.425303
v -0.033051 1.787479 0.574697
v -0.033051 1.787479 0.724090
v -0.033051 0.078539 0.720109
v -0.033051 0.078539 0.573370
v -0.033051 0.078539 0.426630
v -0.033051 0.078539 0.279891
v -0.033051 1.771462 0.279891
v -0.033051 1.771462 0.426630
v -0.033051 1.771462 0.573370
v -0.033051 1.771462 0.720109
v -0.044050 0.078539 0.720109
v -0.044050 0.078539 0.573370
v -0.044050 0.078539 0.426630
v -0.044050 0.078539 0.279891
v -0.044050 1.771462 0.279891
v -0.044050 1.771462 0.426630
v -0.044050 1.771462 0.573370
v -0.044050 1.771462 0.720109
v -0.044050 0.147848 0.725876
v -0.044050 0.147848 0.525646
v -0.044050 0.159816 0.322690
v -0.044050 0.133152 0.247123
v -0.044050 1.702154 0.725876
v -0.044050 1.702154 0.525646
v -0.044050 1.690185 0.322690
v -0.044050 1.716850 0.247123
v -0.044251 1.495346 0.937478
v -0.044251 1.267208 0.937478
v -0.044251 1.039070 0.937478
v -0.044251 0.810932 0.937478
v -0.044251 0.582793 0.937478
v -0.044251 0.354655 0.937478
v -0.033051 1.495346 0.937478
v -0.033051 1.267208 0.937478
v -0.033051 1.039070 0.937478
v -0.033051 0.810932 0.937478
v -0.033051 0.582793 0.937478
v -0.033051 0.354655 0.937478
v -0.044251 1.495346 0.062522
v -0.044251 1.267208 0.062522
v -0.044251 1.039070 0.062522
v -0.044251 0.810932 0.062522
v -0.044251 0.582793 0.062522
v -0.044251 0.354655 0.062522
v -0.033051 0.354655 0.062522
v -0.033051 0.582793 0.062522
v -0.033051 0.810932 0.062522
v -0.033051 1.039070 0.062522
v -0.033051 1.267208 0.062522
v -0.033051 1.495346 0.062522
v -0.033051 1.490607 0.921461
v -0.033051 1.264364 0.921461
v -0.033051 1.038122 0.921461
v -0.033051 0.811879 0.921461
v -0.033051 0.585637 0.921461
v -0.033051 0.359394 0.921461
v -0.033051 0.359394 0.078539
v -0.033051 0.585637 0.078539
v -0.033051 0.811879 0.078539
v -0.033051 1.038122 0.078539
v -0.033051 1.264364 0.078539
v -0.033051 1.490607 0.078539
v -0.044050 1.490607 0.906765
v -0.044050 1.264364 0.906765
v -0.044050 1.038122 0.906765
v -0.044050 0.811879 0.906765
v -0.044050 0.585637 0.906765
v -0.044050 0.359394 0.906765
v -0.038509 0.441133 0.106688
v -0.038509 0.585637 0.106688
v -0.038509 0.811879 0.106688
v -0.044050 1.038122 0.104241
v -0.044050 1.264364 0.104241
v -0.038509 1.408868 0.106688
v -0.044050 1.490607 0.525646
v -0.044050 1.264364 0.525646
v -0.044050 1.038122 0.525646
v -0.044050 0.811879 0.525646
v -0.044050 0.585637 0.525646
v -0.044050 0.359394 0.525646
v -0.044050 1.490607 0.322690
v -0.044050 1.264364 0.322690
v -0.044050 1.038122 0.322690
v -0.044050 0.811879 0.322690
v -0.044050 0.585637 0.322690
v -0.044050 0.359394 0.322690
v -0.038509 1.369580 0.218974
v -0.038509 1.264364 0.218974
v -0.038509 1.038122 0.218974
v -0.038509 0.811879 0.218974
v -0.038509 0.585637 0.218974
v -0.038509 0.480421 0.218974
v 0.044050 1.490607 0.078539
v 0.044050 1.264364 0.078539
v 0.044050 1.038122 0.078539
v 0.044050 0.811879 0.078539
v 0.044050 0.585637 0.078539
v 0.044050 0.359394 0.078539
v 0.044050 1.429041 0.247123
v 0.044050 1.264364 0.247123
v 0.044050 1.038122 0.247123
v 0.044050 0.811879 0.247123
v 0.044050 0.585637 0.247123
v 0.044050 0.420960 0.247123
v -0.044050 0.359394 0.078539
v -0.044050 0.585637 0.078539
v -0.044050 0.811879 0.078539
v -0.044050 1.038122 0.078539
v -0.044050 1.264364 0.078539
v -0.044050 1.490607 0.078539
v -0.044050 1.429041 0.247123
v -0.044050 1.264364 0.247123
v -0.044050 1.038122 0.247123
v -0.044050 0.811879 0.247123
v -0.044050 0.585637 0.247123
v -0.044050 0.420960 0.247123
v 0.024724 1.308766 0.200979
v 0.024724 1.308766 0.124684
v 0.030265 1.058401 0.215333
v 0.030265 1.058401 0.110329
v 0.024724 0.791600 0.200979
v 0.030265 0.791600 0.110329
v 0.024724 0.541235 0.200979
v 0.024724 0.541235 0.124684
v -0.024725 1.308766 0.124684
v -0.024725 1.308766 0.200979
v -0.024725 1.058401 0.124684
v -0.030265 1.058401 0.215333
v -0.030265 0.791600 0.110329
v -0.030265 0.791600 0.215333
v -0.024725 0.541235 0.124684
v -0.024725 0.541235 0.200979
v 0.030265 1.376004 0.110329
v 0.030265 0.473997 0.110329
v 0.030265 1.339375 0.215333
v 0.030265 0.510626 0.215333
v -0.030265 0.473997 0.110329
v -0.030265 1.376004 0.110329
v -0.030265 1.339375 0.215333
v -0.030265 0.510626 0.215333
v 0.030265 1.325202 0.215333
v 0.024724 1.325202 0.112776
v 0.024724 0.524798 0.212886
v 0.030265 0.524798 0.110329
v -0.024725 1.325202 0.112776
v -0.030265 1.325202 0.215333
v -0.030265 0.524798 0.110329
v -0.030265 0.524798 0.215333
v 0.024724 1.058401 0.124684
v 0.024724 0.791600 0.124684
v 0.024724 1.058401 0.200979
v 0.024724 0.791600 0.212886
v -0.024725 0.791600 0.124684
v -0.024725 1.058401 0.112776
v -0.024725 1.058401 0.200979
v -0.024725 0.791600 0.200979
v 0.034044 1.058401 0.192407
v 0.034044 1.058401 0.138702
v 0.034044 0.791600 0.192407
v 0.034044 0.791600 0.138702
v -0.034044 1.058401 0.133255
v -0.034044 1.058401 0.148203
v -0.034044 0.791600 0.133255
v -0.034044 0.791600 0.192407
v 0.034044 1.285848 0.148203
v 0.034044 1.285848 0.138702
v 0.034044 0.564153 0.148203
v 0.034044 0.564153 0.138702
v -0.034044 1.285848 0.138702
v -0.034044 1.285848 0.148203
v -0.034044 0.564153 0.138702
v -0.034044 0.564153 0.148203
v 0.034044 1.296934 0.192407
v 0.034044 1.296934 0.133255
v 0.034044 0.553067 0.192407
v 0.034044 0.553067 0.133255
v -0.034044 1.296934 0.133255
v -0.034044 1.296934 0.192407
v -0.034044 0.553067 0.133255
v -0.034044 0.553067 0.192407
v 0.034044 1.058401 0.133255
v 0.034044 0.791600 0.133255
v 0.034044 1.058401 0.148203
v 0.034044 0.791600 0.148203
v -0.034044 0.791600 0.138702
v -0.034044 1.058401 0.138702
v -0.034044 1.058401 0.192407
v -0.034044 0.791600 0.148203
v 0.033111 1.058401 0.148203
v 0.033111 1.058401 0.138702
v 0.033111 0.791600 0.148203
v 0.033111 0.791600 0.138702
v -0.033111 1.058401 0.138702
v -0.033111 1.058401 0.148203
v -0.033111 0.791600 0.138702
v -0.033111 0.791600 0.148203
v 0.033111 1.285848 0.148203
v 0.033111 1.285848 0.138702
v 0.033111 0.564153 0.148203
v 0.033111 0.564153 0.138702
v -0.033111 1.285848 0.138702
v -0.033111 1.285848 0.148203
v -0.033111 0.564153 0.138702
v -0.033111 0.564153 0.148203
v 0.042421 1.058401 0.194663
v 0.040166 1.058401 0.192407
v 0.042421 1.058401 0.126939
v 0.040166 1.058401 0.124684
v 0.040166 0.791600 0.200979
v 0.042421 0.791600 0.198724
v 0.042421 0.791600 0.126939
v 0.040166 0.791600 0.124684
v -0.042422 1.058401 0.126939
v -0.040167 1.058401 0.124684
v -0.040167 1.058401 0.192407
v -0.042422 1.058401 0.194663
v -0.042422 0.791600 0.126939
v -0.040167 0.791600 0.124684
v -0.040167 0.791600 0.192407
v -0.042422 0.791600 0.194663
v 0.042421 1.300047 0.194663
v 0.040166 1.296934 0.192407
v 0.040166 1.296934 0.133255
v 0.042421 1.300047 0.131000
v 0.040166 0.553067 0.192407
v 0.042421 0.549954 0.194663
v 0.042421 0.549954 0.131000
v 0.040166 0.553067 0.133255
v -0.042422 1.300047 0.131000
v -0.040167 1.296934 0.133255
v -0.040167 1.296934 0.192407
v -0.042422 1.300047 0.194663
v -0.040167 0.553067 0.133255
v -0.042422 0.549954 0.131000
v -0.042422 0.549954 0.194663
v -0.040167 0.553067 0.192407
v 0.040166 1.308766 0.200979
v 0.042421 1.305653 0.198724
v 0.042421 1.305653 0.126939
v 0.040166 1.308766 0.124684
v 0.042421 0.544348 0.198724
v 0.040166 0.541235 0.200979
v 0.040166 0.541235 0.124684
v 0.042421 0.544348 0.126939
v -0.040167 1.308766 0.124684
v -0.042422 1.305653 0.126939
v -0.042422 1.305653 0.198724
v -0.040167 1.308766 0.200979
v -0.042422 0.544348 0.126939
v -0.040167 0.541235 0.124684
v -0.040167 0.541235 0.200979
v -0.042422 0.544348 0.198724
v 0.040166 1.058401 0.133255
v 0.042421 1.058401 0.131000
v 0.040166 0.791600 0.133255
v 0.042421 0.791600 0.131000
v 0.040166 1.058401 0.200979
v 0.042421 1.058401 0.198724
v 0.042421 0.791600 0.194663
v 0.040166 0.791600 0.192407
v -0.040167 0.791600 0.133255
v -0.042422 0.791600 0.131000
v -0.040167 1.058401 0.133255
v -0.042422 1.058401 0.131000
v -0.042422 1.058401 0.198724
v -0.040167 1.058401 0.200979
v -0.042422 0.791600 0.198724
v -0.040167 0.791600 0.200979
v 0.044050 1.490607 0.921461
v 0.044050 1.716850 0.921461
v -0.044050 0.359394 0.921461
v -0.044050 0.133152 0.921461
v 0.044050 0.133152 0.725876
v 0.044050 0.133152 0.921461
v 0.044050 1.716850 0.725876
v 0.044050 0.159816 0.484286
v 0.044050 1.690185 0.484286
v 0.044050 0.359394 0.484286
v 0.044050 0.359394 0.921461
v 0.044050 0.585637 0.921461
v 0.044050 0.811879 0.921461
v 0.044050 1.038122 0.921461
v 0.044050 1.264364 0.921461
v 0.044050 1.490607 0.484286
v 0.044050 1.264364 0.484286
v 0.044050 1.038122 0.484286
v 0.044050 0.811879 0.484286
v 0.044050 0.585637 0.484286
v -0.044050 0.133152 0.725876
v -0.044050 0.159816 0.484286
v -0.044050 1.716850 0.921461
v -0.044050 1.716850 0.725876
v -0.044050 1.690185 0.484286
v -0.044050 0.359394 0.484286
v -0.044050 1.490607 0.921461
v -0.044050 1.264364 0.921461
v -0.044050 1.038122 0.921461
v -0.044050 0.811879 0.921461
v -0.044050 0.585637 0.921461
v -0.044050 1.490607 0.484286
v -0.044050 1.264364 0.484286
v -0.044050 1.038122 0.484286
v -0.044050 0.811879 0.484286
v -0.044050 0.585637 0.484286
v 0.025756 0.156303 0.725876
v 0.025756 1.693698 0.725876
v 0.025756 1.490607 0.534102
v 0.025756 1.264364 0.534102
v 0.025756 1.038122 0.534102
v 0.025756 0.811879 0.534102
v 0.025756 0.585637 0.534102
v 0.025756 0.359394 0.534102
v 0.025756 1.490607 0.898309
v 0.025756 1.264364 0.898309
v 0.025756 1.038122 0.898309
v 0.025756 0.811879 0.898309
v 0.025756 0.585637 0.898309
v 0.025756 0.359394 0.898309
v -0.025756 0.156303 0.725876
v -0.025756 1.693698 0.725876
v -0.025756 1.490607 0.534102
v -0.025756 1.264364 0.534102
v -0.025756 1.038122 0.534102
v -0.025756 0.811879 0.534102
v -0.025756 0.585637 0.534102
v -0.025756 0.359394 0.534102
v -0.025756 1.490607 0.898309
v -0.025756 1.264364 0.898309
v -0.025756 1.038122 0.898309
v -0.025756 0.811879 0.898309
v -0.025756 0.585637 0.898309
v -0.025756 0.359394 0.898309
v 0.025756 1.693698 0.898309
v -0.025756 0.156303 0.898309
v 0.025756 0.156303 0.898309
v 0.025756 0.156303 0.534102
v 0.025756 1.693698 0.534102
v -0.025756 0.156303 0.534102
v -0.025756 1.693698 0.898309
v -0.025756 1.693698 0.534102
v 0.025756 1.490607 0.906765
v 0.025756 1.702154 0.906765
v -0.025756 0.359394 0.906765
v -0.025756 0.147848 0.906765
v 0.025756 0.147848 0.725876
v 0.025756 0.147848 0.906765
v 0.025756 1.702154 0.725876
v 0.025756 0.147848 0.525646
v 0.025756 1.702154 0.525646
v 0.025756 0.359394 0.525646
v 0.025756 0.359394 0.906765
v 0.025756 0.585637 0.906765
v 0.025756 0.811879 0.906765
v 0.025756 1.038122 0.906765
v 0.025756 1.264364 0.906765
v 0.025756 1.490607 0.525646
v 0.025756 1.264364 0.525646
v 0.025756 1.038122 0.525646
v 0.025756 0.811879 0.525646
v 0.025756 0.585637 0.525646
v -0.025756 0.147848 0.725876
v -0.025756 0.147848 0.525646
v -0.025756 1.702154 0.906765
v -0.025756 1.702154 0.725876
v -0.025756 1.702154 0.525646
v -0.025756 0.359394 0.525646
v -0.025756 1.490607 0.906765
v -0.025756 1.264364 0.906765
v -0.025756 1.038122 0.906765
v -0.025756 0.811879 0.906765
v -0.025756 0.585637 0.906765
v -0.025756 1.490607 0.525646
v -0.025756 1.264364 0.525646
v -0.025756 1.038122 0.525646
v -0.025756 0.811879 0.525646
v -0.025756 0.585637 0.525646
v 0.043792 0.381251 0.725876
v 0.043792 0.291438 0.725876
v 0.043792 1.558563 0.725876
v 0.043792 1.468750 0.725876
v 0.043792 1.468750 0.555959
v 0.043792 1.264364 0.555959
v 0.043792 1.038122 0.555959
v 0.043792 0.811879 0.555959
v 0.043792 0.585637 0.555959
v 0.043792 0.381251 0.555959
v 0.043792 1.468750 0.876452
v 0.043792 1.264364 0.876452
v 0.043792 1.038122 0.876452
v 0.043792 0.811879 0.876452
v 0.043792 0.585637 0.876452
v 0.043792 0.381251 0.876452
v -0.043792 0.381251 0.725876
v -0.043792 0.291438 0.725876
v -0.043792 1.558563 0.725876
v -0.043792 1.468750 0.725876
v -0.043792 1.468750 0.555959
v -0.043792 1.264364 0.555959
v -0.043792 1.038122 0.555959
v -0.043792 0.811879 0.555959
v -0.043792 0.585637 0.555959
v -0.043792 0.381251 0.555959
v -0.043792 1.468750 0.876452
v -0.043792 1.264364 0.876452
v -0.043792 1.038122 0.876452
v -0.043792 0.811879 0.876452
v -0.043792 0.585637 0.876452
v -0.043792 0.381251 0.876452
v 0.043792 1.558563 0.898309
v -0.043792 0.291438 0.898309
v 0.043792 0.291438 0.898309
v 0.043792 0.291438 0.534102
v 0.043792 1.558563 0.534102
v -0.043792 0.291438 0.534102
v -0.043792 1.558563 0.898309
v -0.043792 1.558563 0.534102
v 0.044050 0.133152 0.296025
v 0.044050 0.133152 0.510950
v 0.044050 1.716850 0.296025
v 0.044050 1.716850 0.510950
v 0.044050 0.359394 0.296025
v 0.044050 0.359394 0.510950
v 0.044050 1.490607 0.296025
v 0.044050 1.264364 0.296025
v 0.044050 1.038122 0.296025
v 0.044050 0.811879 0.296025
v 0.044050 0.585637 0.296025
v 0.044050 1.490607 0.510950
v 0.044050 1.264364 0.510950
v 0.044050 1.038122 0.510950
v 0.044050 0.811879 0.510950
v 0.044050 0.585637 0.510950
v -0.044050 0.133152 0.510950
v -0.044050 0.133152 0.296025
v -0.044050 1.716850 0.510950
v -0.044050 1.716850 0.296025
v -0.044050 0.359394 0.510950
v -0.044050 0.359394 0.296025
v -0.044050 1.490607 0.510950
v -0.044050 1.264364 0.510950
v -0.044050 1.038122 0.510950
v -0.044050 0.811879 0.510950
v -0.044050 0.585637 0.510950
v -0.044050 1.490607 0.296025
v -0.044050 1.264364 0.296025
v -0.044050 1.038122 0.296025
v -0.044050 0.811879 0.296025
v -0.044050 0.585637 0.296025
v -0.026073 1.038122 0.322690
v 0.026068 1.038122 0.322690
v -0.026073 1.264364 0.322690
v 0.026068 1.264364 0.322690
v -0.026073 1.490607 0.322690
v 0.026068 1.490607 0.322690
v -0.026073 1.690185 0.322690
v 0.026068 1.690185 0.322690
v -0.026073 1.690185 0.484286
v 0.026068 1.690185 0.484286
v -0.026073 1.490607 0.484286
v 0.026068 1.490607 0.484286
v -0.026073 1.264364 0.484286
v 0.026068 1.264364 0.484286
v -0.026073 1.038122 0.484286
v 0.026068 1.038122 0.484286
v -0.026073 0.811879 0.484286
v 0.026068 0.811879 0.484286
v -0.026073 0.585637 0.484286
v 0.026068 0.585637 0.484286
v -0.026073 0.359394 0.484286
v 0.026068 0.359394 0.484286
v 0.026068 0.159816 0.484286
v -0.026073 0.159816 0.484286
v -0.026073 0.811879 0.322690
v 0.026068 0.811879 0.322690
v -0.026073 0.585637 0.322690
v 0.026068 0.585637 0.322690
v -0.026073 0.359394 0.322690
v 0.026068 0.359394 0.322690
v -0.026073 0.159816 0.322690
v 0.026068 0.159816 0.322690
v 0.026068 1.038122 0.335808
v 0.026068 1.264364 0.335808
v 0.026068 1.490607 0.335808
v 0.026068 1.677067 0.335808
v 0.026068 1.677067 0.471168
v 0.026068 1.490607 0.471168
v 0.026068 1.264364 0.471168
v 0.026068 1.038122 0.471168
v 0.026068 0.811879 0.471168
v 0.026068 0.585637 0.471168
v 0.026068 0.359394 0.471168
v -0.026073 0.172934 0.471168
v 0.026068 0.811879 0.335808
v 0.026068 0.585637 0.335808
v 0.026068 0.359394 0.335808
v 0.026068 0.172934 0.335808
v -0.026073 1.038122 0.335808
v -0.026073 1.264364 0.335808
v -0.026073 1.490607 0.335808
v -0.026073 1.677067 0.335808
v -0.026073 1.677067 0.471168
v -0.026073 1.490607 0.471168
v -0.026073 1.264364 0.471168
v -0.026073 1.038122 0.471168
v -0.026073 0.811879 0.471168
v -0.026073 0.585637 0.471168
v -0.026073 0.359394 0.471168
v 0.026068 0.172934 0.471168
v -0.026073 0.811879 0.335808
v -0.026073 0.585637 0.335808
v -0.026073 0.359394 0.335808
v -0.026073 0.172934 0.335808
v 0.036926 1.038122 0.335808
v 0.044050 1.038122 0.328684
v 0.036926 1.264364 0.335808
v 0.044050 1.264364 0.328684
v 0.036926 1.490607 0.335808
v 0.044050 1.490607 0.328684
v 0.036926 1.677067 0.335808
v 0.044050 1.684191 0.328684
v 0.044050 1.684191 0.478292
v 0.036926 1.677067 0.471168
v 0.044050 1.490607 0.478292
v 0.036926 1.490607 0.471168
v 0.044050 1.264364 0.478292
v 0.036926 1.264364 0.471168
v 0.044050 1.038122 0.478292
v 0.036926 1.038122 0.471168
v 0.044050 0.811879 0.478292
v 0.036926 0.811879 0.471168
v 0.044050 0.585637 0.478292
v 0.036926 0.585637 0.471168
v 0.036926 0.359394 0.471168
v 0.044050 0.359394 0.478292
v -0.044050 0.165810 0.478292
v -0.036926 0.172934 0.471168
v 0.044050 0.165810 0.328684
v 0.036926 0.172934 0.335808
v 0.036926 0.172934 0.471168
v 0.044050 0.165810 0.478292
v 0.044050 0.359394 0.328684
v 0.036926 0.359394 0.335808
v 0.036926 0.811879 0.335808
v 0.044050 0.811879 0.328684
v 0.036926 0.585637 0.335808
v 0.044050 0.585637 0.328684
v -0.036926 0.172934 0.335808
v -0.044050 0.165810 0.328684
v -0.036926 1.677067 0.471168
v -0.044050 1.684191 0.478292
v -0.044050 1.684191 0.328684
v -0.036926 1.677067 0.335808
v -0.044050 0.359394 0.478292
v -0.036926 0.359394 0.471168
v -0.036926 0.359394 0.335808
v -0.044050 0.359394 0.328684
v -0.036926 1.490607 0.471168
v -0.044050 1.490607 0.478292
v -0.036926 1.264364 0.471168
v -0.044050 1.264364 0.478292
v -0.036926 1.038122 0.471168
v -0.044050 1.038122 0.478292
v -0.036926 0.811879 0.471168
v -0.044050 0.811879 0.478292
v -0.036926 0.585637 0.471168
v -0.044050 0.585637 0.478292
v -0.044050 1.490607 0.328684
v -0.036926 1.490607 0.335808
v -0.044050 1.264364 0.328684
v -0.036926 1.264364 0.335808
v -0.044050 1.038122 0.328684
v -0.036926 1.038122 0.335808
v -0.044050 0.811879 0.328684
v -0.036926 0.811879 0.335808
v -0.044050 0.585637 0.328684
v -0.036926 0.585637 0.335808
v -0.024725 0.473182 0.112776
v -0.044050 0.396143 0.104241
v -0.044050 0.438936 0.221421
v -0.024725 0.509741 0.212886
v 0.044050 1.453858 0.104241
v 0.024724 1.376819 0.112776
v 0.038509 1.264364 0.106688
v 0.044050 1.038122 0.104241
v 0.044050 0.811879 0.104241
v 0.044050 0.585637 0.104241
v 0.044050 0.396143 0.104241
v 0.044050 1.411065 0.221421
v 0.044050 1.264364 0.221421
v 0.044050 1.038122 0.221421
v 0.038509 0.811879 0.218974
v 0.038509 0.585637 0.218974
v 0.044050 0.438936 0.221421
v -0.044050 0.585637 0.104241
v -0.044050 0.811879 0.104241
v -0.038509 1.038122 0.106688
v -0.038509 1.264364 0.106688
v -0.044050 1.453858 0.104241
v -0.044050 1.411065 0.221421
v -0.044050 1.264364 0.221421
v -0.044050 1.038122 0.221421
v -0.044050 0.811879 0.221421
v -0.044050 0.585637 0.221421
v 0.030265 1.325202 0.110329
v 0.024724 1.058401 0.112776
v 0.024724 0.791600 0.112776
v 0.024724 0.524798 0.112776
v 0.024724 0.473182 0.112776
v 0.024724 1.340260 0.212886
v 0.024724 1.325202 0.212886
v 0.024724 1.058401 0.212886
v 0.030265 0.791600 0.215333
v 0.030265 0.524798 0.215333
v 0.024724 0.509741 0.212886
v -0.024725 0.524798 0.112776
v -0.024725 0.791600 0.112776
v -0.030265 1.058401 0.110329
v -0.030265 1.325202 0.110329
v -0.024725 1.376819 0.112776
v -0.024725 1.340260 0.212886
v -0.024725 1.325202 0.212886
v -0.024725 1.058401 0.212886
v -0.024725 0.791600 0.212886
v -0.024725 0.524798 0.212886
v 0.027310 0.791600 0.222024
v 0.035554 0.811879 0.225665
v 0.035554 0.585637 0.225665
v 0.027310 0.524798 0.222024
v -0.027310 1.325202 0.103638
v -0.035555 1.264364 0.099998
v -0.035555 1.038122 0.099998
v -0.027310 1.058401 0.103638
v 0.027310 1.325202 0.103638
v 0.035554 1.264364 0.099998
v 0.027310 1.058401 0.103638
v 0.035554 1.038122 0.099998
v 0.027310 0.791600 0.103638
v 0.035554 0.811879 0.099998
v -0.027310 1.325202 0.222024
v -0.035555 1.264364 0.225665
v 0.027310 0.524798 0.103638
v 0.035554 0.585637 0.099998
v -0.027310 1.058401 0.222024
v -0.035555 1.038122 0.225665
v -0.027310 0.791600 0.222024
v -0.035555 0.811879 0.225665
v -0.027310 0.524798 0.103638
v -0.035555 0.585637 0.099998
v 0.035554 1.264364 0.225665
v 0.027310 1.325202 0.222024
v -0.027310 0.524798 0.222024
v -0.035555 0.585637 0.225665
v -0.027310 0.791600 0.103638
v -0.035555 0.811879 0.099998
v 0.035554 1.038122 0.225665
v 0.027310 1.058401 0.222024
v -0.027310 0.473997 0.103638
v -0.035555 0.441133 0.099998
v -0.035555 0.480421 0.225665
v -0.027310 0.510626 0.222024
v 0.035554 1.408868 0.099998
v 0.027310 1.376004 0.103638
v 0.035554 0.441133 0.099998
v 0.035554 1.369580 0.225665
v 0.035554 0.480421 0.225665
v -0.035555 1.408868 0.099998
v -0.035555 1.369580 0.225665
v 0.027310 0.473997 0.103638
v 0.027310 1.339375 0.222024
v 0.027310 0.510626 0.222024
v -0.027310 1.376004 0.103638
v -0.027310 1.339375 0.222024
v 0.043792 1.490607 0.725876
v 0.043792 1.490607 0.534102
v 0.043792 0.359394 0.725876
v 0.043792 0.359394 0.534102
v 0.043792 1.490607 0.898309
v 0.043792 0.359394 0.898309
v -0.043792 1.490607 0.534102
v -0.043792 1.490607 0.725876
v -0.043792 0.359394 0.534102
v -0.043792 0.359394 0.725876
v -0.043792 1.490607 0.898309
v -0.043792 0.359394 0.898309
v 0.043792 0.585637 0.898309
v 0.043792 0.811879 0.898309
v 0.043792 1.038122 0.898309
v 0.043792 1.264364 0.898309
v 0.043792 1.264364 0.534102
v 0.043792 1.038122 0.534102
v 0.043792 0.811879 0.534102
v 0.043792 0.585637 0.534102
v -0.043792 1.264364 0.898309
v -0.043792 1.038122 0.898309
v -0.043792 0.811879 0.898309
v -0.043792 0.585637 0.898309
v -0.043792 1.264364 0.534102
v -0.043792 1.038122 0.534102
v -0.043792 0.811879 0.534102
v -0.043792 0.585637 0.534102
v 0.042115 0.000000 -0.000000
v 0.044251 0.002136 0.002136
v 0.042115 1.850001 -0.000000
v 0.044251 1.847865 0.002136
v 0.044251 0.002136 0.997864
v 0.042115 0.000000 1.000000
v 0.042115 1.850001 1.000000
v 0.044251 1.847865 0.997864
v -0.044251 0.002136 0.002136
v -0.042115 0.000000 0.000000
v -0.042115 1.850001 0.000000
v -0.044251 1.847865 0.002136
v -0.044251 0.002136 0.997864
v -0.042115 0.000000 1.000000
v -0.042115 1.850001 1.000000
v -0.044251 1.847865 0.997864
v 0.020217 1.449872 0.727813
v 0.020217 1.449872 0.723541
v 0.022162 1.453389 0.725694
v 0.020217 1.256051 0.727813
v 0.020217 1.251779 0.727813
v 0.020217 1.251779 0.723541
v 0.020217 1.256051 0.723541
v 0.020217 1.036775 0.727813
v 0.020217 1.032503 0.727813
v 0.020217 1.032503 0.723541
v 0.020217 1.036775 0.723541
v 0.020217 0.817498 0.727813
v 0.020217 0.813226 0.727813
v 0.020217 0.813226 0.723541
v 0.020217 0.817498 0.723541
v 0.020217 0.598222 0.727813
v 0.020217 0.593950 0.727813
v 0.020217 0.593950 0.723541
v 0.020217 0.598222 0.723541
v 0.020217 0.400129 0.727813
v 0.022162 0.396612 0.725694
v 0.020217 0.400129 0.723541
v 0.020217 1.251779 0.563128
v 0.022188 1.254789 0.560572
v 0.020217 1.256051 0.563128
v 0.020217 1.032503 0.563128
v 0.022197 1.034931 0.560570
v 0.020217 1.036775 0.563128
v 0.020217 0.813226 0.563128
v 0.022197 0.815070 0.560570
v 0.020217 0.817498 0.563128
v 0.020217 0.593950 0.563128
v 0.022188 0.595212 0.560572
v 0.020217 0.598222 0.563128
v 0.020217 1.256051 0.869482
v 0.022189 1.254789 0.872022
v 0.020217 1.251779 0.869482
v 0.020217 1.036775 0.869482
v 0.022198 1.034932 0.872024
v 0.020217 1.032503 0.869482
v 0.020217 0.817498 0.869482
v 0.022198 0.815070 0.872024
v 0.020217 0.813226 0.869482
v 0.020217 0.598222 0.869482
v 0.022189 0.595212 0.872022
v 0.020217 0.593950 0.869482
v -0.020218 1.449872 0.727813
v -0.022162 1.453389 0.725694
v -0.020218 1.449872 0.723541
v -0.020218 1.256051 0.727813
v -0.020218 1.256051 0.723541
v -0.020218 1.251779 0.723541
v -0.020218 1.251779 0.727813
v -0.020218 1.036775 0.727813
v -0.020218 1.036775 0.723541
v -0.020218 1.032503 0.723541
v -0.020218 1.032503 0.727813
v -0.020218 0.817498 0.727813
v -0.020218 0.817498 0.723541
v -0.020218 0.813226 0.723541
v -0.020218 0.813226 0.727813
v -0.020218 0.598222 0.727813
v -0.020218 0.598222 0.723541
v -0.020218 0.593950 0.723541
v -0.020218 0.593950 0.727813
v -0.020218 0.400129 0.727813
v -0.020218 0.400129 0.723541
v -0.022162 0.396612 0.725694
v -0.020218 1.251779 0.563128
v -0.020218 1.256051 0.563128
v -0.022188 1.254789 0.560572
v -0.020218 1.032503 0.563128
v -0.020218 1.036775 0.563128
v -0.022197 1.034931 0.560570
v -0.020218 0.813226 0.563128
v -0.020218 0.817498 0.563128
v -0.022197 0.815070 0.560570
v -0.020218 0.593950 0.563128
v -0.020218 0.598222 0.563128
v -0.022188 0.595212 0.560572
v -0.020218 1.251779 0.869482
v -0.022189 1.254789 0.872022
v -0.020218 1.256051 0.869482
v -0.020218 1.032503 0.869482
v -0.022198 1.034932 0.872024
v -0.020218 1.036775 0.869482
v -0.020218 0.813226 0.869482
v -0.022198 0.815070 0.872024
v -0.020218 0.817498 0.869482
v -0.020218 0.593950 0.869482
v -0.022189 0.595212 0.872022
v -0.020218 0.598222 0.869482
v 0.020217 1.449872 0.563128
v 0.022170 1.453395 0.560575
v 0.020217 0.400129 0.563128
v 0.022170 0.396607 0.560575
v 0.020217 1.449872 0.869482
v 0.022170 1.453395 0.872018
v 0.020217 0.400129 0.869482
v 0.022170 0.396606 0.872018
v -0.020218 1.449872 0.563128
v -0.022170 1.453395 0.560575
v -0.020218 0.400129 0.563128
v -0.022170 0.396607 0.560575
v -0.020218 1.449872 0.869482
v -0.022171 1.453395 0.872018
v -0.020218 0.400129 0.869482
v -0.022171 0.396606 0.872018
vn -1.0000 -0.0000 -0.0000
vn -0.0000 -0.0000 1.0000
vn 1.0000 -0.0000 -0.0000
vn -0.0000 1.0000 -0.0000
vn -0.0000 -0.0000 -1.0000
vn 0.5790 -0.8153 -0.0000
vn -0.0000 -1.0000 -0.0000
vn -0.0000 -0.7071 0.7071
vn -0.0000 -0.7071 -0.7071
vn -0.0000 0.7071 -0.7071
vn -0.0000 0.7071 0.7071
vn 0.9634 -0.2519 -0.0920
vn -0.9148 -0.0000 0.4040
vn 0.8766 0.2859 0.3871
vn 0.9148 -0.0000 0.4040
vn -0.9634 0.2519 -0.0920
vn -0.8822 -0.2645 -0.3896
vn 0.8822 -0.2645 -0.3896
vn 0.9634 0.2519 -0.0920
vn -0.8766 0.2859 0.3871
vn 0.9148 -0.0000 -0.4040
vn -0.8822 0.2645 -0.3896
vn -0.9634 -0.2519 -0.0920
vn 0.8098 0.5867 -0.0000
vn 0.8098 -0.5867 -0.0000
vn -0.8098 0.5867 -0.0000
vn -0.8098 -0.5867 -0.0000
vn 0.7071 -0.0000 -0.7071
vn 0.7071 -0.0000 0.7071
vn -0.7071 -0.0000 -0.7071
vn -0.7071 -0.0000 0.7071
vn -0.9912 -0.1323 -0.0000
vn 0.9912 0.1323 -0.0000
vn 0.9912 -0.1323 -0.0000
vn 0.2009 -0.0000 -0.9796
vn -0.2088 -0.0000 0.9780
vn -0.5790 -0.8153 -0.0000
vn -0.2009 -0.0000 -0.9796
vn -0.5790 0.8153 -0.0000
vn 0.2088 -0.0000 0.9780
vn -0.9912 0.1323 -0.0000
vn 0.7071 0.7071 -0.0000
vn 0.7071 -0.7071 -0.0000
vn -0.7071 0.7071 -0.0000
vn -0.7071 -0.7071 -0.0000
vn -0.4040 -0.0000 0.9148
vn -0.4040 -0.0000 -0.9148
vn 0.4040 -0.0000 0.9148
vn 0.4040 -0.0000 -0.9148
vn -0.8766 -0.2859 0.3871
vn 0.8766 -0.2859 0.3871
vn -0.9148 -0.0000 -0.4040
vn 0.8822 0.2645 -0.3896
vn 0.5790 0.8153 -0.0000
vn 0.8751 -0.4839 -0.0000
vn 0.8751 0.4839 -0.0000
vn 0.7920 -0.0000 0.6105
vn 0.7909 -0.0000 0.6119
vn 0.7900 -0.0000 -0.6131
vn 0.7888 -0.0000 -0.6146
vn 0.7889 -0.0000 -0.6146
vn -0.8751 -0.4839 -0.0000
vn -0.8751 0.4839 -0.0000
vn -0.7920 -0.0000 0.6105
vn -0.7909 -0.0000 0.6119
vn -0.7900 -0.0000 -0.6131
vn -0.7888 -0.0000 -0.6146
vn -0.7889 -0.0000 -0.6146
vn 0.8749 -0.4844 -0.0000
vn 0.8749 0.4844 -0.0000
vn -0.8749 -0.4844 -0.0000
vn -0.8749 0.4844 -0.0000
vn 0.7912 -0.0000 -0.6116
vn 0.7894 -0.0000 -0.6139
vn 0.7931 -0.0000 0.6090
vn 0.7915 -0.0000 0.6112
vn -0.7912 -0.0000 -0.6116
vn -0.7894 -0.0000 -0.6139
vn -0.7931 -0.0000 0.6090
vn -0.7915 -0.0000 0.6112
vt 0.624711 0.749466
vt 0.375289 0.749466
vt 0.377334 0.745682
vt 0.392097 0.734369
vt 0.422926 0.734370
vt 0.453756 0.734370
vt 0.484585 0.734370
vt 0.515415 0.734370
vt 0.546244 0.734370
vt 0.577074 0.734370
vt 0.607903 0.734369
vt 0.622666 0.745682
vt 0.375289 0.500534
vt 0.377334 0.504318
vt 0.383449 0.531629
vt 0.383449 0.568978
vt 0.383449 0.606326
vt 0.383449 0.643674
vt 0.383449 0.681023
vt 0.383449 0.718371
vt 0.392097 0.734370
vt 0.422926 0.734369
vt 0.624711 0.000534
vt 0.624711 0.249466
vt 0.622666 0.245682
vt 0.616551 0.218371
vt 0.616551 0.181022
vt 0.616551 0.143674
vt 0.616551 0.106326
vt 0.616551 0.068978
vt 0.616551 0.031629
vt 0.622666 0.004318
vt 0.375289 0.000534
vt 0.624711 0.000534
vt 0.607903 0.015631
vt 0.577074 0.015631
vt 0.546244 0.015631
vt 0.515415 0.015631
vt 0.484585 0.015631
vt 0.453756 0.015631
vt 0.422926 0.015631
vt 0.392097 0.015631
vt 0.377334 0.004318
vt 0.375289 0.249466
vt 0.377334 0.245682
vt 0.392097 0.234369
vt 0.422926 0.234369
vt 0.453756 0.234369
vt 0.484585 0.234369
vt 0.515415 0.234369
vt 0.546244 0.234369
vt 0.577074 0.234369
vt 0.607903 0.234369
vt 0.383449 0.068978
vt 0.383449 0.031629
vt 0.383449 0.068978
vt 0.392097 0.234369
vt 0.573480 0.154899
vt 0.573480 0.188219
vt 0.375000 0.756034
vt 0.625000 0.756034
vt 0.625000 0.993966
vt 0.375000 0.993966
vt 0.383449 0.568978
vt 0.616551 0.681022
vt 0.616551 0.718371
vt 0.616551 0.681022
vt 0.614387 0.180027
vt 0.614387 0.216712
vt 0.624711 0.500534
vt 0.622666 0.504318
vt 0.607903 0.515631
vt 0.577074 0.515631
vt 0.546244 0.515631
vt 0.515415 0.515631
vt 0.484585 0.515631
vt 0.453756 0.515630
vt 0.422926 0.515630
vt 0.392097 0.515630
vt 0.576433 0.519635
vt 0.607007 0.519635
vt 0.631034 0.500000
vt 0.868966 0.500000
vt 0.868966 0.750000
vt 0.631034 0.750000
vt 0.624711 0.749466
vt 0.616551 0.643674
vt 0.616551 0.606326
vt 0.616551 0.568978
vt 0.616551 0.531629
vt 0.131034 0.500000
vt 0.368966 0.500000
vt 0.368966 0.750000
vt 0.131034 0.750000
vt 0.607903 0.515631
vt 0.577074 0.515631
vt 0.375000 0.256034
vt 0.625000 0.256034
vt 0.625000 0.493966
vt 0.375000 0.493966
vt 0.616551 0.218371
vt 0.616551 0.181022
vt 0.392097 0.015631
vt 0.383449 0.015631
vt 0.616551 0.015631
vt 0.607903 0.234369
vt 0.616551 0.234369
vt 0.383449 0.218371
vt 0.383449 0.234369
vt 0.392097 0.515630
vt 0.383449 0.515630
vt 0.616551 0.515631
vt 0.607903 0.734369
vt 0.616551 0.734369
vt 0.383449 0.734370
vt 0.607903 0.015631
vt 0.383449 0.218371
vt 0.392993 0.019635
vt 0.385613 0.033288
vt 0.607007 0.019635
vt 0.576433 0.019635
vt 0.614387 0.033288
vt 0.607903 0.234369
vt 0.607007 0.230365
vt 0.392993 0.230365
vt 0.423567 0.230365
vt 0.385613 0.216712
vt 0.385613 0.069973
vt 0.392993 0.519635
vt 0.385613 0.533288
vt 0.614387 0.533288
vt 0.614387 0.716712
vt 0.614387 0.680027
vt 0.607007 0.730365
vt 0.392993 0.730365
vt 0.423567 0.730365
vt 0.385613 0.716712
vt 0.385613 0.569973
vt 0.392993 0.688219
vt 0.385613 0.680027
vt 0.392993 0.188219
vt 0.385613 0.180027
vt 0.614387 0.680027
vt 0.423567 0.230365
vt 0.385613 0.069973
vt 0.607007 0.188219
vt 0.607007 0.688219
vt 0.454140 0.601045
vt 0.423567 0.601045
vt 0.423567 0.688219
vt 0.423567 0.019635
vt 0.423567 0.061781
vt 0.392993 0.061781
vt 0.423567 0.103927
vt 0.392993 0.103927
vt 0.484713 0.609156
vt 0.515287 0.609156
vt 0.454140 0.227198
vt 0.423567 0.227198
vt 0.614387 0.069973
vt 0.607007 0.061781
vt 0.614387 0.106658
vt 0.607007 0.103927
vt 0.614387 0.143342
vt 0.607007 0.146073
vt 0.385613 0.143342
vt 0.385613 0.106658
vt 0.385613 0.106658
vt 0.392993 0.146073
vt 0.383449 0.181022
vt 0.383449 0.143674
vt 0.383449 0.106326
vt 0.614387 0.069973
vt 0.616551 0.106326
vt 0.614387 0.106658
vt 0.616551 0.143674
vt 0.614387 0.143342
vt 0.383449 0.106326
vt 0.605021 0.522802
vt 0.605021 0.561781
vt 0.484713 0.601045
vt 0.394979 0.227198
vt 0.394979 0.601045
vt 0.394979 0.561781
vt 0.515287 0.601045
vt 0.394979 0.148955
vt 0.423567 0.148955
vt 0.396597 0.453052
vt 0.396597 0.463615
vt 0.484713 0.463615
vt 0.515287 0.463615
vt 0.515287 0.547293
vt 0.545860 0.547293
vt 0.545860 0.453052
vt 0.515287 0.453052
vt 0.545860 0.286385
vt 0.515287 0.286385
vt 0.576433 0.547293
vt 0.603403 0.547293
vt 0.603403 0.453052
vt 0.576433 0.453052
vt 0.545860 0.463615
vt 0.576433 0.103927
vt 0.576433 0.061781
vt 0.545860 0.103927
vt 0.545860 0.061781
vt 0.515287 0.103927
vt 0.515287 0.061781
vt 0.484713 0.103927
vt 0.484713 0.061781
vt 0.454140 0.103927
vt 0.454140 0.061781
vt 0.572546 0.026060
vt 0.571879 0.055355
vt 0.514590 0.026060
vt 0.543821 0.026060
vt 0.432080 0.055355
vt 0.435036 0.055355
vt 0.569237 0.723940
vt 0.543035 0.723940
vt 0.483958 0.055355
vt 0.515981 0.055355
vt 0.394979 0.522802
vt 0.545860 0.601045
vt 0.605021 0.148955
vt 0.605021 0.188219
vt 0.454140 0.148955
vt 0.576433 0.601045
vt 0.394979 0.188219
vt 0.423567 0.019635
vt 0.454140 0.019635
vt 0.454140 0.019635
vt 0.484713 0.019635
vt 0.515287 0.019635
vt 0.545860 0.019635
vt 0.576433 0.230365
vt 0.576433 0.230365
vt 0.545860 0.230365
vt 0.545860 0.230365
vt 0.515287 0.230365
vt 0.484713 0.230365
vt 0.454140 0.230365
vt 0.454140 0.230365
vt 0.577074 0.234369
vt 0.546244 0.234369
vt 0.515415 0.234369
vt 0.484585 0.234369
vt 0.453756 0.234369
vt 0.422926 0.015631
vt 0.453756 0.015631
vt 0.484585 0.015631
vt 0.515415 0.015631
vt 0.546244 0.015631
vt 0.484713 0.148955
vt 0.605021 0.601045
vt 0.423567 0.570610
vt 0.396597 0.570610
vt 0.423567 0.463615
vt 0.423567 0.646073
vt 0.392993 0.646073
vt 0.614387 0.569973
vt 0.607007 0.561781
vt 0.614387 0.606658
vt 0.607007 0.603927
vt 0.614387 0.643343
vt 0.607007 0.646073
vt 0.385613 0.680027
vt 0.385613 0.643342
vt 0.385613 0.606658
vt 0.385613 0.606658
vt 0.614387 0.606658
vt 0.614387 0.643343
vt 0.392993 0.561781
vt 0.392993 0.603927
vt 0.383449 0.681022
vt 0.383449 0.643674
vt 0.383449 0.606326
vt 0.616551 0.606326
vt 0.616551 0.643674
vt 0.576433 0.688219
vt 0.576433 0.646073
vt 0.545860 0.688219
vt 0.545860 0.646073
vt 0.515287 0.688219
vt 0.515287 0.646073
vt 0.484713 0.688219
vt 0.484713 0.646073
vt 0.454140 0.688219
vt 0.454140 0.646073
vt 0.576433 0.286385
vt 0.396597 0.570610
vt 0.396597 0.547293
vt 0.576433 0.463615
vt 0.603403 0.547293
vt 0.603403 0.570610
vt 0.603403 0.463615
vt 0.603403 0.286385
vt 0.423567 0.547293
vt 0.423567 0.453052
vt 0.605021 0.227198
vt 0.515287 0.148955
vt 0.423567 0.522802
vt 0.454140 0.522802
vt 0.545860 0.148955
vt 0.484713 0.522802
vt 0.576433 0.148955
vt 0.515287 0.522802
vt 0.576433 0.227198
vt 0.545860 0.522802
vt 0.576433 0.730365
vt 0.569237 0.026060
vt 0.427454 0.723940
vt 0.428122 0.694645
vt 0.568465 0.723940
vt 0.514530 0.723940
vt 0.547892 0.055355
vt 0.545860 0.730365
vt 0.515287 0.730365
vt 0.515287 0.730365
vt 0.484713 0.730365
vt 0.484713 0.730365
vt 0.454140 0.730365
vt 0.454140 0.730365
vt 0.577074 0.734369
vt 0.546244 0.734370
vt 0.515415 0.734370
vt 0.453756 0.734370
vt 0.422926 0.515630
vt 0.423567 0.519635
vt 0.453756 0.515630
vt 0.454140 0.519635
vt 0.484713 0.519635
vt 0.515415 0.515630
vt 0.515287 0.519635
vt 0.545860 0.519635
vt 0.545860 0.519635
vt 0.545860 0.026060
vt 0.515287 0.026060
vt 0.484713 0.026060
vt 0.454140 0.026060
vt 0.427454 0.026060
vt 0.545860 0.055355
vt 0.515287 0.055355
vt 0.484713 0.055355
vt 0.454140 0.055355
vt 0.428121 0.055355
vt 0.454140 0.723940
vt 0.484713 0.723940
vt 0.515287 0.723940
vt 0.545860 0.723940
vt 0.572546 0.723940
vt 0.571878 0.694645
vt 0.545860 0.694645
vt 0.515287 0.694645
vt 0.484713 0.694645
vt 0.454140 0.694645
vt 0.543976 0.698129
vt 0.543977 0.720455
vt 0.457023 0.050023
vt 0.484713 0.050023
vt 0.484713 0.051211
vt 0.456380 0.051211
vt 0.484713 0.032053
vt 0.515287 0.032053
vt 0.456024 0.051871
vt 0.456024 0.029545
vt 0.456024 0.051871
vt 0.543977 0.029545
vt 0.543977 0.051871
vt 0.568465 0.026060
vt 0.448463 0.694645
vt 0.435036 0.694645
vt 0.485410 0.723940
vt 0.564964 0.055355
vt 0.432080 0.694645
vt 0.483958 0.694645
vt 0.456179 0.723940
vt 0.450972 0.026060
vt 0.431535 0.026060
vt 0.430763 0.723940
vt 0.431535 0.723940
vt 0.515981 0.694645
vt 0.483958 0.026060
vt 0.456023 0.698129
vt 0.456024 0.720455
vt 0.515287 0.029545
vt 0.484713 0.029545
vt 0.515287 0.051871
vt 0.484713 0.051871
vt 0.484713 0.720455
vt 0.515287 0.720455
vt 0.515287 0.698129
vt 0.484713 0.698129
vt 0.542621 0.032053
vt 0.542977 0.031393
vt 0.515287 0.031393
vt 0.515287 0.030205
vt 0.543620 0.030205
vt 0.457023 0.718607
vt 0.484713 0.718607
vt 0.484713 0.719795
vt 0.456380 0.719795
vt 0.542621 0.700637
vt 0.542621 0.717947
vt 0.542621 0.717947
vt 0.542621 0.700637
vt 0.515287 0.699978
vt 0.484713 0.699978
vt 0.484713 0.698789
vt 0.515287 0.698789
vt 0.515287 0.717947
vt 0.484713 0.717947
vt 0.484713 0.031393
vt 0.457023 0.031393
vt 0.456380 0.030205
vt 0.484713 0.030205
vt 0.457379 0.700637
vt 0.484713 0.700638
vt 0.457379 0.700637
vt 0.515287 0.718607
vt 0.542977 0.718607
vt 0.543620 0.719795
vt 0.515287 0.719795
vt 0.484713 0.031393
vt 0.484713 0.030205
vt 0.484713 0.718607
vt 0.515287 0.718607
vt 0.484713 0.719795
vt 0.542621 0.049363
vt 0.542621 0.049363
vt 0.484713 0.049363
vt 0.457379 0.049363
vt 0.484713 0.049363
vt 0.457379 0.717947
vt 0.515287 0.029545
vt 0.484713 0.029545
vt 0.456023 0.029545
vt 0.515287 0.049363
vt 0.484713 0.049363
vt 0.515287 0.049363
vt 0.542621 0.049363
vt 0.515287 0.049363
vt 0.515287 0.700638
vt 0.542977 0.699977
vt 0.515287 0.698789
vt 0.543620 0.698789
vt 0.542977 0.050023
vt 0.543620 0.051211
vt 0.484713 0.047012
vt 0.458650 0.047012
vt 0.458650 0.034403
vt 0.515287 0.047012
vt 0.458650 0.702988
vt 0.484713 0.702988
vt 0.541350 0.034403
vt 0.541350 0.047012
vt 0.457023 0.699977
vt 0.456380 0.698789
vt 0.484713 0.698789
vt 0.515287 0.050023
vt 0.515287 0.051211
vt 0.457379 0.032053
vt 0.542977 0.718607
vt 0.542977 0.699977
vt 0.543620 0.698789
vt 0.541350 0.715597
vt 0.541350 0.702988
vt 0.458650 0.715597
vt 0.515287 0.034403
vt 0.484713 0.034403
vt 0.484713 0.715597
vt 0.515287 0.715597
vt 0.515287 0.702988
vt 0.543620 0.051211
vt 0.542977 0.050023
vt 0.423567 0.146073
vt 0.484713 0.227198
vt 0.515287 0.227198
vt 0.545860 0.227198
vt 0.576433 0.146073
vt 0.545860 0.146073
vt 0.515287 0.146073
vt 0.484713 0.146073
vt 0.454140 0.146073
vt 0.423567 0.603927
vt 0.576433 0.522802
vt 0.576433 0.603927
vt 0.545860 0.603927
vt 0.515287 0.603927
vt 0.484713 0.603927
vt 0.454140 0.603927
vt 0.423567 0.225376
vt 0.396122 0.225376
vt 0.396122 0.599387
vt 0.396122 0.561781
vt 0.515287 0.599387
vt 0.484713 0.599387
vt 0.396122 0.150613
vt 0.423567 0.150613
vt 0.396122 0.524624
vt 0.545860 0.599387
vt 0.603878 0.150613
vt 0.603878 0.188219
vt 0.454140 0.150613
vt 0.576433 0.599387
vt 0.396122 0.188219
vt 0.484713 0.150613
vt 0.603878 0.599387
vt 0.603878 0.225376
vt 0.515287 0.150613
vt 0.423567 0.524624
vt 0.454140 0.524624
vt 0.545860 0.150613
vt 0.484713 0.524624
vt 0.576433 0.150613
vt 0.515287 0.524624
vt 0.576433 0.225376
vt 0.545860 0.524624
vt 0.545860 0.225376
vt 0.576433 0.524624
vt 0.515287 0.225376
vt 0.603878 0.524624
vt 0.454140 0.225376
vt 0.484713 0.225376
vt 0.603878 0.561781
vt 0.423567 0.599387
vt 0.454140 0.599387
vt 0.423567 0.188219
vt 0.576433 0.188219
vt 0.515287 0.220666
vt 0.484713 0.220666
vt 0.515287 0.220666
vt 0.515287 0.595101
vt 0.484713 0.595101
vt 0.454140 0.220666
vt 0.545860 0.595101
vt 0.426520 0.220666
vt 0.454140 0.220666
vt 0.573480 0.561781
vt 0.573480 0.595101
vt 0.573480 0.561781
vt 0.426520 0.529334
vt 0.454140 0.529334
vt 0.484713 0.529334
vt 0.423567 0.561781
vt 0.576433 0.561781
vt 0.545562 0.529808
vt 0.545562 0.561306
vt 0.515584 0.561306
vt 0.515584 0.529808
vt 0.515287 0.529334
vt 0.484713 0.529334
vt 0.426520 0.561781
vt 0.545860 0.529334
vt 0.573182 0.529808
vt 0.573182 0.561306
vt 0.546158 0.561306
vt 0.546158 0.529808
vt 0.573480 0.220666
vt 0.545860 0.220666
vt 0.573480 0.220666
vt 0.545860 0.154899
vt 0.426520 0.154899
vt 0.454140 0.154899
vt 0.454140 0.154899
vt 0.426520 0.154899
vt 0.573182 0.155331
vt 0.573182 0.187787
vt 0.546158 0.187787
vt 0.546158 0.155331
vt 0.484713 0.154899
vt 0.396597 0.109156
vt 0.396597 0.140844
vt 0.603403 0.140844
vt 0.603403 0.109156
vt 0.423567 0.109156
vt 0.423567 0.140844
vt 0.576433 0.109156
vt 0.545860 0.109156
vt 0.515287 0.109156
vt 0.484713 0.109156
vt 0.454140 0.109156
vt 0.576433 0.140844
vt 0.545860 0.140844
vt 0.515287 0.140844
vt 0.484713 0.140844
vt 0.454140 0.140844
vt 0.396597 0.609156
vt 0.396597 0.640844
vt 0.603403 0.640844
vt 0.603403 0.609156
vt 0.423567 0.609156
vt 0.423567 0.640844
vt 0.576433 0.609156
vt 0.545860 0.609156
vt 0.454140 0.609156
vt 0.576433 0.640844
vt 0.545860 0.640844
vt 0.515287 0.640844
vt 0.484713 0.640844
vt 0.454140 0.640844
vt 0.423567 0.296948
vt 0.454140 0.296948
vt 0.454140 0.202691
vt 0.423567 0.202691
vt 0.603403 0.296948
vt 0.396597 0.296948
vt 0.396597 0.286385
vt 0.484713 0.296948
vt 0.484713 0.202691
vt 0.423567 0.286385
vt 0.515287 0.296948
vt 0.515287 0.202691
vt 0.454140 0.453052
vt 0.576433 0.296948
vt 0.484713 0.453052
vt 0.545860 0.296948
vt 0.545860 0.202691
vt 0.576433 0.202691
vt 0.545860 0.202691
vt 0.603403 0.202691
vt 0.454140 0.286385
vt 0.423567 0.179372
vt 0.454140 0.179372
vt 0.484713 0.286385
vt 0.454140 0.179372
vt 0.484713 0.179372
vt 0.454140 0.463615
vt 0.545860 0.179372
vt 0.576433 0.179372
vt 0.515287 0.179372
vt 0.545860 0.179372
vt 0.603403 0.109156
vt 0.396597 0.202691
vt 0.396597 0.179372
vt 0.603403 0.609156
vt 0.000000 0.000000
vt 0.576433 0.547293
vt 0.484713 0.547293
vt 0.454140 0.547293
vt 0.576433 0.570610
vt 0.396597 0.179372
vt 0.423567 0.179372
vt 0.576433 0.570610
vt 0.545860 0.570610
vt 0.515287 0.570610
vt 0.515287 0.570610
vt 0.484713 0.570610
vt 0.484713 0.570610
vt 0.454140 0.570610
vt 0.603403 0.179372
vt 0.603403 0.179372
vt 0.485471 0.026060
vt 0.456965 0.026060
vt 0.430763 0.026060
vt 0.543821 0.055355
vt 0.567920 0.055355
vt 0.514590 0.055355
vt 0.485471 0.055355
vt 0.457913 0.055355
vt 0.567919 0.694645
vt 0.543821 0.694645
vt 0.514590 0.694645
vt 0.485471 0.694645
vt 0.457912 0.694645
vt 0.547892 0.026060
vt 0.515981 0.026060
vt 0.448463 0.055355
vt 0.452108 0.723940
vt 0.484019 0.723940
vt 0.516042 0.723940
vt 0.549028 0.723940
vt 0.547892 0.694645
vt 0.564964 0.694645
vt 0.426520 0.188219
vt 0.426520 0.595101
vt 0.573480 0.529334
vt 0.515287 0.154899
vt 0.454140 0.595101
vt 0.545562 0.188694
vt 0.545562 0.220192
vt 0.515584 0.220192
vt 0.515584 0.188694
vt 0.514989 0.188694
vt 0.514989 0.220192
vt 0.485011 0.220192
vt 0.485011 0.188694
vt 0.484416 0.188694
vt 0.484416 0.220192
vt 0.454438 0.220192
vt 0.454438 0.188694
vt 0.453842 0.188694
vt 0.453842 0.220192
vt 0.426818 0.220192
vt 0.426818 0.188694
vt 0.426520 0.188219
vt 0.573480 0.188219
vt 0.545562 0.155331
vt 0.545562 0.187787
vt 0.515584 0.187787
vt 0.515584 0.155331
vt 0.514989 0.155331
vt 0.514989 0.187787
vt 0.485011 0.187787
vt 0.485011 0.155331
vt 0.484416 0.155331
vt 0.484416 0.187787
vt 0.454438 0.187787
vt 0.454438 0.155331
vt 0.453842 0.155331
vt 0.453842 0.187787
vt 0.426818 0.187787
vt 0.426818 0.155331
vt 0.514989 0.529808
vt 0.514989 0.561306
vt 0.485011 0.561306
vt 0.485011 0.529808
vt 0.484416 0.529809
vt 0.484416 0.561306
vt 0.454438 0.561306
vt 0.454438 0.529808
vt 0.453842 0.529808
vt 0.453842 0.561306
vt 0.426818 0.561306
vt 0.426818 0.529808
vt 0.426520 0.595101
vt 0.573182 0.562213
vt 0.573182 0.594669
vt 0.546158 0.594669
vt 0.546158 0.562213
vt 0.545562 0.562213
vt 0.545562 0.594669
vt 0.515584 0.594669
vt 0.515584 0.562213
vt 0.514989 0.562213
vt 0.514989 0.594669
vt 0.485011 0.594669
vt 0.485011 0.562213
vt 0.484416 0.562213
vt 0.484416 0.594669
vt 0.454438 0.594669
vt 0.454438 0.562213
vt 0.453842 0.562213
vt 0.453842 0.594669
vt 0.426818 0.594669
vt 0.426818 0.562213
vt 0.484713 0.595101
vt 0.573182 0.188694
vt 0.573182 0.220192
vt 0.546158 0.220192
vt 0.546158 0.188694
vt 0.125000 0.749466
vt 0.125000 0.500534
vt 0.375000 0.000000
vt 0.625000 0.000000
vt 0.625000 0.250000
s 0
usemtl M_Noir_Bleuté
f 904/1/1 901/2/1 24/3/1 23/4/1 236/5/1 235/6/1 234/7/1 233/8/1 232/9/1 231/10/1 19/11/1 21/12/1
f 901/2/1 905/13/1 15/14/1 14/15/1 182/16/1 181/17/1 180/18/1 179/19/1 22/20/1 24/3/1
f 236/5/2 23/21/2 37/4/2 237/22/2
f 896/23/3 900/24/3 9/25/3 8/26/3 84/27/3 83/28/3 82/29/3 81/30/3 4/31/3 6/32/3
f 894/33/3 896/34/3 6/32/3 5/35/3 118/36/3 117/37/3 116/38/3 115/39/3 114/40/3 113/41/3 1/42/3 3/43/3
f 900/24/3 897/44/3 12/45/3 11/46/3 130/47/3 129/48/3 128/49/3 127/50/3 126/51/3 125/52/3 7/53/3 9/25/3
f 73/54/4 2/55/4 25/55/4 77/56/4
f 130/47/5 11/57/5 29/46/5 131/47/5
f 902/60/5 903/61/5 895/62/5 893/63/5
f 182/16/4 14/15/4 35/15/4 183/64/4
f 187/65/7 20/66/7 39/66/7 191/67/7
f 905/13/1 908/70/1 18/71/1 17/72/1 219/73/1 220/74/1 221/75/1 222/76/1 223/77/1 224/78/1 13/79/1 15/14/1
f 907/82/4 899/83/4 895/84/4 903/85/4
f 908/70/1 904/86/1 21/12/1 20/66/1 187/65/1 188/87/1 189/88/1 190/89/1 16/90/1 18/71/1
f 898/91/7 906/92/7 902/93/7 893/94/7
f 219/73/5 17/95/5 33/72/5 225/96/5
f 898/97/2 899/98/2 907/99/2 906/100/2
f 84/27/7 8/101/7 31/26/7 85/102/7
f 1/103/3 2/104/3 3/43/3
f 4/31/3 5/105/3 6/32/3
f 7/106/3 8/107/3 9/25/3
f 10/108/3 11/109/3 12/45/3
f 13/110/1 14/111/1 15/14/1
f 16/90/1 17/112/1 18/71/1
f 19/113/1 20/114/1 21/12/1
f 22/20/1 23/115/1 24/3/1
f 19/113/8 40/11/8 39/66/8 20/66/8
f 33/72/9 17/95/9 16/90/9 34/90/9
f 35/15/10 14/15/10 13/110/10 36/79/10
f 7/106/9 32/53/9 31/26/9 8/101/9
f 27/35/8 5/116/8 4/31/8 28/31/8
f 22/20/11 38/20/11 37/4/11 23/21/11
f 25/55/11 2/55/11 1/103/11 26/42/11
f 10/108/10 30/117/10 29/46/10 11/57/10
f 118/36/2 5/116/2 27/35/2 119/36/2
f 495/156/1 494/157/1 754/157/1 756/156/1
f 4/31/7 81/30/7 88/30/7 28/31/7
f 81/30/7 82/29/7 87/174/7 88/30/7
f 82/29/7 83/28/7 86/176/7 87/174/7
f 83/28/7 84/27/7 85/102/7 86/176/7
f 10/108/4 76/170/4 80/170/4 30/117/4
f 76/170/4 75/171/4 79/171/4 80/170/4
f 75/171/4 74/178/4 78/172/4 79/171/4
f 74/178/4 73/54/4 77/56/4 78/172/4
f 753/192/5 751/193/5 695/194/5 696/195/5
f 749/198/5 741/199/5 693/200/5 694/201/5
f 1/103/2 113/41/2 124/249/2 26/42/2
f 113/41/2 114/40/2 123/250/2 124/249/2
f 114/40/2 115/39/2 122/251/2 123/250/2
f 115/39/2 116/38/2 121/252/2 122/251/2
f 116/38/2 117/37/2 120/253/2 121/252/2
f 117/37/2 118/36/2 119/36/2 120/253/2
f 7/106/5 125/52/5 136/244/5 32/53/5
f 125/52/5 126/51/5 135/245/5 136/244/5
f 126/51/5 127/50/5 134/246/5 135/245/5
f 127/50/5 128/49/5 133/247/5 134/246/5
f 128/49/5 129/48/5 132/248/5 133/247/5
f 129/48/5 130/47/5 131/47/5 132/248/5
f 747/256/2 739/257/2 704/189/2 703/258/2
f 16/90/7 190/89/7 194/89/7 34/90/7
f 190/89/7 189/88/7 193/278/7 194/89/7
f 189/88/7 188/87/7 192/279/7 193/278/7
f 188/87/7 187/65/7 191/67/7 192/279/7
f 22/20/4 179/19/4 186/275/4 38/20/4
f 179/19/4 180/18/4 185/276/4 186/275/4
f 180/18/4 181/17/4 184/277/4 185/276/4
f 181/17/4 182/16/4 183/64/4 184/277/4
f 739/291/4 728/292/4 684/188/4 704/189/4
f 741/294/7 744/295/7 692/296/7 693/200/7
f 728/292/5 746/298/5 699/299/5 684/188/5
f 13/110/5 224/78/5 230/328/5 36/79/5
f 224/78/5 223/77/5 229/330/5 230/328/5
f 223/77/5 222/76/5 228/76/5 229/330/5
f 222/76/5 221/75/5 227/333/5 228/76/5
f 221/75/5 220/74/5 226/74/5 227/333/5
f 220/74/5 219/73/5 225/96/5 226/74/5
f 19/113/2 231/10/2 242/324/2 40/11/2
f 231/10/2 232/9/2 241/325/2 242/324/2
f 232/9/2 233/8/2 240/326/2 241/325/2
f 233/8/2 234/7/2 239/7/2 240/326/2
f 234/7/2 235/6/2 238/327/2 239/7/2
f 235/6/2 236/5/2 237/22/2 238/327/2
f 318/357/4 317/358/4 437/358/4 440/357/4
f 418/359/3 451/360/3 402/361/3 433/362/3
f 447/363/2 445/364/2 373/364/2 374/363/2
f 315/365/7 316/366/7 435/366/7 434/367/7
f 310/368/4 309/369/4 429/369/4 432/368/4
f 445/364/2 415/394/2 366/394/2 373/364/2
f 416/395/3 446/396/3 399/397/3 431/398/3
f 426/399/1 454/400/1 409/401/1 441/402/1
f 423/403/7 422/404/7 369/405/7 370/406/7
f 408/407/1 412/408/1 459/409/1 457/410/1
f 455/411/2 453/412/2 355/412/2 353/411/2
f 448/413/3 419/414/3 436/415/3 403/416/3
f 347/392/2 318/357/2 440/357/2 458/392/2
f 428/417/5 411/418/5 356/418/5 372/419/5
f 324/384/2 348/393/2 460/393/2 443/384/2
f 456/420/1 421/421/1 438/422/1 405/423/1
f 446/396/3 448/424/3 403/425/3 399/397/3
f 319/391/5 345/390/5 410/390/5 406/391/5
f 341/386/5 310/368/5 432/368/5 400/386/5
f 323/385/7 324/384/7 443/384/7 442/385/7
f 454/426/1 456/427/1 405/423/1 409/428/1
f 452/431/5 417/432/5 367/432/5 351/433/5
f 422/405/2 455/411/2 353/411/2 369/405/2
f 453/412/2 425/434/2 371/434/2 355/412/2
f 342/387/5 341/386/5 400/435/5 404/387/5
f 343/388/2 313/389/2 401/389/2 449/388/2
f 316/366/5 342/387/5 404/436/5 435/437/5
f 398/438/5 452/439/5 351/433/5 349/440/5
f 414/441/5 398/442/5 349/440/5 365/430/5
f 313/389/2 315/365/2 434/365/2 401/389/2
f 345/390/5 323/385/5 442/385/5 410/390/5
f 317/358/5 319/391/5 406/391/5 437/358/5
f 407/443/5 423/406/5 370/406/5 379/443/5
f 411/418/5 407/443/5 379/443/5 356/418/5
f 424/444/1 408/407/1 457/445/1 439/446/1
f 413/447/3 416/395/3 431/398/3 430/448/3
f 376/449/5 359/450/5 391/450/5 383/449/5
f 359/450/4 360/451/4 392/451/4 391/450/4
f 375/452/5 376/449/5 383/449/5 381/452/5
f 364/453/5 380/454/5 388/454/5 396/453/5
f 358/455/7 357/456/7 389/456/7 390/455/7
f 357/456/5 375/452/5 381/452/5 389/456/5
f 412/408/1 427/457/1 444/458/1 459/459/1
f 451/360/3 397/460/3 450/461/3 402/361/3
f 419/414/3 418/359/3 433/362/3 436/415/3
f 420/462/2 447/363/2 374/363/2 368/462/2
f 421/463/1 424/464/1 439/465/1 438/422/1
f 309/369/2 343/388/2 449/388/2 429/369/2
f 427/457/1 426/399/1 441/402/1 444/458/1
f 348/393/2 347/392/2 458/392/2 460/393/2
f 417/432/4 420/462/4 368/462/4 367/432/4
f 425/434/4 428/419/4 372/419/4 371/434/4
f 357/456/3 358/455/3 366/394/3 365/430/3
f 360/451/3 359/450/3 367/432/3 368/462/3
f 361/466/1 362/467/1 370/406/1 369/405/1
f 364/453/1 363/468/1 371/434/1 372/419/1
f 358/455/3 350/469/3 373/364/3 366/394/3
f 350/469/3 352/470/3 374/363/3 373/364/3
f 352/470/3 360/451/3 368/462/3 374/363/3
f 375/452/3 357/456/3 365/430/3 349/440/3
f 376/449/3 375/452/3 349/440/3 351/433/3
f 359/450/3 376/449/3 351/433/3 367/432/3
f 363/468/1 377/471/1 355/412/1 371/434/1
f 377/471/1 378/472/1 353/411/1 355/412/1
f 378/472/1 361/466/1 369/405/1 353/411/1
f 362/467/1 354/473/1 379/443/1 370/406/1
f 354/473/1 380/454/1 356/418/1 379/443/1
f 380/454/1 364/453/1 372/419/1 356/418/1
f 362/467/7 361/466/7 393/466/7 394/467/7
f 377/471/2 363/468/2 395/468/2 387/471/2
f 363/468/4 364/453/4 396/453/4 395/468/4
f 378/472/2 377/471/2 387/471/2 385/472/2
f 350/469/2 358/455/2 390/455/2 382/469/2
f 361/466/2 378/472/2 385/472/2 393/466/2
f 352/470/2 350/469/2 382/469/2 384/470/2
f 354/473/5 362/467/5 394/467/5 386/473/5
f 360/451/2 352/470/2 384/470/2 392/451/2
f 380/454/5 354/473/5 386/473/5 388/454/5
f 430/448/24 431/398/24 432/368/24 429/369/24
f 434/367/25 435/366/25 436/415/25 433/362/25
f 438/422/26 439/465/26 440/357/26 437/358/26
f 442/385/27 443/384/27 444/458/27 441/402/27
f 431/398/28 399/397/28 400/386/28 432/368/28
f 399/397/28 403/425/28 404/387/28 400/435/28
f 403/416/28 436/415/28 435/437/28 404/436/28
f 429/369/29 449/388/29 450/461/29 430/474/29
f 449/388/29 401/389/29 402/361/29 450/461/29
f 401/389/29 434/365/29 433/362/29 402/361/29
f 441/402/30 409/401/30 410/390/30 442/385/30
f 409/428/30 405/423/30 406/391/30 410/390/30
f 405/423/30 438/422/30 437/358/30 406/391/30
f 439/446/31 457/445/31 458/392/31 440/357/31
f 457/410/31 459/409/31 460/393/31 458/392/31
f 459/459/31 444/458/31 443/384/31 460/393/31
f 418/359/24 419/414/24 420/462/24 417/432/24
f 422/404/27 423/403/27 424/464/27 421/463/27
f 426/399/26 427/457/26 428/419/26 425/434/26
f 415/394/29 445/364/29 446/396/29 416/395/29
f 445/364/29 447/363/29 448/424/29 446/396/29
f 447/363/29 420/462/29 419/414/29 448/413/29
f 413/475/28 397/460/28 398/442/28 414/441/28
f 397/460/28 451/360/28 452/439/28 398/438/28
f 451/360/28 418/359/28 417/432/28 452/431/28
f 425/434/31 453/412/31 454/400/31 426/399/31
f 453/412/31 455/411/31 456/427/31 454/426/31
f 455/411/31 422/405/31 421/421/31 456/420/31
f 423/406/30 407/443/30 408/407/30 424/444/30
f 407/443/30 411/418/30 412/408/30 408/407/30
f 411/418/30 428/417/30 427/457/30 412/408/30
f 397/460/3 413/475/3 430/474/3 450/461/3
f 683/602/5 682/603/5 724/604/5 725/605/5
f 682/603/5 681/609/5 722/610/5 724/604/5
f 681/609/5 680/612/5 720/613/5 722/610/5
f 680/612/5 679/617/5 718/618/5 720/613/5
f 679/617/5 678/615/5 716/619/5 718/620/5
f 678/615/5 677/606/5 714/621/5 716/619/5
f 686/622/2 687/611/2 734/623/2 737/624/2
f 685/625/2 686/622/2 737/626/2 735/627/2
f 675/290/2 674/196/2 707/629/2 709/630/2
f 171/582/3 170/581/3 736/581/3 738/582/3
f 278/593/1 213/589/1 740/589/1 748/593/1
f 674/196/2 673/197/2 705/631/2 707/632/2
f 170/581/3 169/580/3 706/580/3 736/581/3
f 168/579/3 167/578/3 710/578/3 708/579/3
f 167/578/3 110/575/3 712/633/3 710/578/3
f 110/575/3 469/574/3 713/574/3 712/575/3
f 476/583/3 477/584/3 717/584/3 715/583/3
f 477/584/3 478/585/3 719/585/3 717/584/3
f 478/585/3 479/586/3 721/586/3 719/585/3
f 479/586/3 480/587/3 723/587/3 721/586/3
f 480/587/3 470/577/3 726/577/3 723/587/3
f 470/577/3 468/573/3 732/573/3 726/577/3
f 213/589/1 482/588/1 727/588/1 740/589/1
f 688/608/4 700/607/4 731/634/4 730/635/4
f 106/572/3 172/576/3 733/576/3 729/572/3
f 468/573/3 106/572/3 729/572/3 732/573/3
f 485/591/1 217/590/1 743/590/1 742/591/1
f 482/588/1 486/592/1 745/592/1 727/588/1
f 277/601/1 278/593/1 748/593/1 767/601/1
f 273/597/1 274/598/1 761/598/1 759/597/1
f 496/596/1 495/156/1 756/156/1 758/596/1
f 494/157/1 493/595/1 752/595/1 754/157/1
f 493/595/1 492/594/1 750/594/1 752/595/1
f 217/590/1 273/597/1 759/597/1 743/590/1
f 492/594/1 485/591/1 742/636/1 750/594/1
f 486/592/1 496/596/1 758/596/1 745/592/1
f 274/598/1 275/599/1 763/599/1 761/598/1
f 275/599/1 276/600/1 765/600/1 763/599/1
f 276/600/1 277/601/1 767/601/1 765/600/1
f 751/193/5 749/638/5 694/201/5 695/194/5
f 755/639/5 753/192/5 696/195/5 697/616/5
f 757/640/5 755/639/5 697/616/5 698/614/5
f 746/298/5 757/640/5 698/614/5 699/299/5
f 744/295/2 760/641/2 691/293/2 692/296/2
f 687/611/2 688/608/2 730/642/2 734/643/2
f 760/644/2 762/645/2 690/202/2 691/293/2
f 469/574/3 476/583/3 715/583/3 713/574/3
f 762/645/2 764/646/2 689/191/2 690/202/2
f 172/576/3 171/582/3 738/582/3 733/576/3
f 764/647/2 766/648/2 701/190/2 689/191/2
f 700/607/5 683/602/5 725/605/5 731/634/5
f 766/649/2 768/650/2 702/628/2 701/190/2
f 677/606/7 676/297/7 711/651/7 714/621/7
f 768/650/2 747/256/2 703/258/2 702/628/2
f 676/297/2 675/290/2 709/630/2 711/652/2
f 673/197/2 685/625/2 735/627/2 705/631/2
f 730/635/42 731/634/42 732/573/42 729/572/42
f 712/575/43 713/574/43 714/621/43 711/651/43
f 734/643/29 730/642/29 729/572/29 733/576/29
f 726/577/28 732/573/28 731/634/28 725/605/28
f 711/652/29 709/630/29 710/578/29 712/633/29
f 709/630/29 707/629/29 708/579/29 710/578/29
f 707/632/29 705/631/29 706/580/29 708/579/29
f 705/631/29 735/627/29 736/581/29 706/580/29
f 735/627/29 737/626/29 738/582/29 736/581/29
f 737/624/29 734/623/29 733/576/29 738/582/29
f 713/574/28 715/583/28 716/619/28 714/621/28
f 715/583/28 717/584/28 718/620/28 716/619/28
f 717/584/28 719/585/28 720/613/28 718/618/28
f 719/585/28 721/586/28 722/610/28 720/613/28
f 721/586/28 723/587/28 724/604/28 722/610/28
f 723/587/28 726/577/28 725/605/28 724/604/28
f 728/292/44 739/291/44 740/589/44 727/588/44
f 742/591/45 743/590/45 744/295/45 741/294/45
f 746/298/30 728/292/30 727/588/30 745/592/30
f 748/593/31 740/589/31 739/257/31 747/256/31
f 741/199/30 749/198/30 750/594/30 742/636/30
f 749/638/30 751/193/30 752/595/30 750/594/30
f 751/193/30 753/192/30 754/157/30 752/595/30
f 753/192/30 755/639/30 756/156/30 754/157/30
f 755/639/30 757/640/30 758/596/30 756/156/30
f 757/640/30 746/298/30 745/592/30 758/596/30
f 743/590/31 759/597/31 760/641/31 744/295/31
f 759/597/31 761/598/31 762/645/31 760/644/31
f 761/598/31 763/599/31 764/646/31 762/645/31
f 763/599/31 765/600/31 766/648/31 764/647/31
f 765/600/31 767/601/31 768/650/31 766/649/31
f 767/601/31 748/593/31 747/256/31 768/650/31
f 169/580/3 168/579/3 708/579/3 706/580/3
f 898/91/43 893/94/43 894/752/43 897/753/43
f 893/754/28 895/755/28 896/34/28 894/33/28
f 895/755/42 899/756/42 900/24/42 896/23/42
f 899/98/29 898/97/29 897/44/29 900/24/29
f 908/70/31 905/13/31 906/100/31 907/99/31
f 902/93/45 906/92/45 905/13/45 901/2/45
f 907/82/44 903/85/44 904/86/44 908/70/44
f 903/61/30 902/60/30 901/2/30 904/1/30
f 897/44/3 894/33/3 3/43/3 2/55/3 73/54/3 74/178/3 75/171/3 76/170/3 10/117/3 12/45/3
usemtl M_Noir_Profond
f 93/68/4 45/69/4 62/69/4 101/68/4
f 243/80/2 51/81/2 483/81/2 487/80/2
f 25/55/3 26/103/3 42/118/3 41/119/3
f 119/36/3 27/116/3 43/120/3 137/121/3
f 27/116/3 28/31/3 44/122/3 43/120/3
f 85/102/3 31/101/3 45/69/3 93/68/3
f 31/101/3 32/123/3 46/124/3 45/69/3
f 131/47/3 29/57/3 47/125/3 143/126/3
f 29/57/3 30/108/3 48/127/3 47/125/3
f 77/56/3 25/55/3 41/119/3 89/128/3
f 35/15/1 36/110/1 50/129/1 49/130/1
f 225/96/1 33/95/1 51/81/1 243/80/1
f 33/95/1 34/90/1 52/131/1 51/81/1
f 191/67/1 39/66/1 53/132/1 199/133/1
f 39/66/1 40/113/1 54/134/1 53/132/1
f 237/22/1 37/21/1 55/135/1 249/136/1
f 37/21/1 38/20/1 56/137/1 55/135/1
f 183/64/1 35/15/1 49/130/1 195/138/1
f 51/81/11 52/131/11 69/131/11 483/81/11
f 45/69/11 46/124/11 462/124/11 62/69/11
f 199/133/4 53/132/4 70/132/4 207/143/4
f 143/126/2 47/125/2 466/125/2 471/144/2
f 53/132/10 54/134/10 71/134/10 70/132/10
f 47/125/8 48/127/8 59/127/8 466/125/8
f 249/136/5 55/135/5 72/135/5 297/136/5
f 41/119/9 42/118/9 57/118/9 58/119/9
f 55/135/9 56/137/9 67/137/9 72/135/9
f 89/128/7 41/119/7 58/119/7 97/145/7
f 49/130/8 50/129/8 464/129/8 66/130/8
f 137/121/5 43/120/5 60/120/5 285/121/5
f 195/138/7 49/130/7 66/130/7 203/138/7
f 43/120/10 44/122/10 61/122/10 60/120/10
f 48/127/7 92/142/7 100/142/7 59/127/7
f 92/142/7 91/166/7 99/166/7 100/142/7
f 91/166/7 90/167/7 98/168/7 99/166/7
f 90/167/7 89/128/7 97/145/7 98/168/7
f 30/108/3 80/170/3 92/142/3 48/127/3
f 80/170/3 79/171/3 91/166/3 92/142/3
f 79/171/3 78/172/3 90/167/3 91/166/3
f 78/172/3 77/56/3 89/128/3 90/167/3
f 28/31/3 88/30/3 96/173/3 44/122/3
f 88/30/3 87/174/3 95/175/3 96/173/3
f 87/174/3 86/176/3 94/177/3 95/175/3
f 86/176/3 85/102/3 93/68/3 94/177/3
f 44/122/4 96/173/4 104/160/4 61/122/4
f 96/173/4 95/175/4 103/162/4 104/160/4
f 95/175/4 94/177/4 102/164/4 103/162/4
f 94/177/4 93/68/4 101/68/4 102/164/4
f 42/118/5 142/230/5 290/151/5 57/118/5
f 142/230/5 141/231/5 289/232/5 290/151/5
f 141/231/5 140/233/5 288/233/5 289/232/5
f 140/233/5 139/234/5 287/234/5 288/233/5
f 139/234/5 138/235/5 286/235/5 287/234/5
f 138/235/5 137/121/5 285/121/5 286/235/5
f 46/124/2 148/236/2 461/237/2 462/124/2
f 148/236/2 147/238/2 475/239/2 461/237/2
f 147/238/2 146/240/2 474/240/2 475/239/2
f 146/240/2 145/241/2 473/241/2 474/240/2
f 145/241/2 144/242/2 472/243/2 473/241/2
f 144/242/2 143/126/2 471/144/2 472/243/2
f 32/123/3 136/244/3 148/236/3 46/124/3
f 136/244/3 135/245/3 147/238/3 148/236/3
f 135/245/3 134/246/3 146/240/3 147/238/3
f 134/246/3 133/247/3 145/241/3 146/240/3
f 133/247/3 132/248/3 144/242/3 145/241/3
f 132/248/3 131/47/3 143/126/3 144/242/3
f 26/103/3 124/249/3 142/230/3 42/118/3
f 124/249/3 123/250/3 141/231/3 142/230/3
f 123/250/3 122/251/3 140/233/3 141/231/3
f 122/251/3 121/252/3 139/234/3 140/233/3
f 121/252/3 120/253/3 138/235/3 139/234/3
f 120/253/3 119/36/3 137/121/3 138/235/3
f 56/137/7 198/267/7 206/140/7 67/137/7
f 198/267/7 197/268/7 205/268/7 206/140/7
f 197/268/7 196/269/7 204/270/7 205/268/7
f 196/269/7 195/138/7 203/138/7 204/270/7
f 52/131/4 202/261/4 210/261/4 69/131/4
f 202/261/4 201/271/4 209/263/4 210/261/4
f 201/271/4 200/272/4 208/265/4 209/263/4
f 200/272/4 199/133/4 207/143/4 208/265/4
f 38/20/1 186/275/1 198/267/1 56/137/1
f 186/275/1 185/276/1 197/268/1 198/267/1
f 185/276/1 184/277/1 196/269/1 197/268/1
f 184/277/1 183/64/1 195/138/1 196/269/1
f 34/90/1 194/89/1 202/261/1 52/131/1
f 194/89/1 193/278/1 201/271/1 202/261/1
f 193/278/1 192/279/1 200/272/1 201/271/1
f 192/279/1 191/67/1 199/133/1 200/272/1
f 54/134/5 254/310/5 302/310/5 71/134/5
f 254/310/5 253/317/5 301/317/5 302/310/5
f 253/317/5 252/318/5 300/319/5 301/317/5
f 252/318/5 251/320/5 299/321/5 300/319/5
f 251/320/5 250/322/5 298/323/5 299/321/5
f 250/322/5 249/136/5 297/136/5 298/323/5
f 40/113/1 242/324/1 254/310/1 54/134/1
f 242/324/1 241/325/1 253/317/1 254/310/1
f 241/325/1 240/326/1 252/318/1 253/317/1
f 240/326/1 239/7/1 251/320/1 252/318/1
f 239/7/1 238/327/1 250/322/1 251/320/1
f 238/327/1 237/22/1 249/136/1 250/322/1
f 36/110/1 230/328/1 248/329/1 50/129/1
f 230/328/1 229/330/1 247/331/1 248/329/1
f 229/330/1 228/76/1 246/332/1 247/331/1
f 228/76/1 227/333/1 245/334/1 246/332/1
f 227/333/1 226/74/1 244/335/1 245/334/1
f 226/74/1 225/96/1 243/80/1 244/335/1
f 50/129/2 248/329/2 463/329/2 464/129/2
f 248/329/2 247/331/2 491/331/2 463/329/2
f 247/331/2 246/332/2 490/332/2 491/331/2
f 246/332/2 245/334/2 489/334/2 490/332/2
f 245/334/2 244/335/2 488/336/2 489/334/2
f 244/335/2 243/80/2 487/80/2 488/336/2
f 510/492/2 527/493/2 603/493/2 870/492/2
f 528/498/5 504/499/5 868/499/5 604/498/5
f 504/499/5 503/504/5 884/504/5 868/499/5
f 503/504/5 502/507/5 883/507/5 884/504/5
f 502/507/5 501/510/5 882/510/5 883/507/5
f 501/510/5 500/513/5 881/513/5 882/510/5
f 500/513/5 499/515/5 866/515/5 881/513/5
f 525/509/2 505/517/2 869/517/2 601/509/2
f 499/515/5 529/502/5 605/502/5 866/515/5
f 505/517/2 506/519/2 880/519/2 869/517/2
f 506/519/2 507/521/2 879/521/2 880/519/2
f 505/517/3 525/509/3 534/300/3 533/308/3
f 524/511/1 526/500/1 536/223/1 535/302/1
f 497/506/3 527/493/3 538/182/3 537/229/3
f 525/509/3 498/503/3 539/226/3 534/300/3
f 528/498/3 497/506/3 537/229/3 540/186/3
f 498/503/3 529/502/3 541/225/3 539/226/3
f 504/499/3 528/498/3 540/186/3 542/187/3
f 527/493/3 510/492/3 543/159/3 538/182/3
f 510/492/3 509/523/3 544/158/3 543/159/3
f 509/523/3 508/524/3 545/477/3 544/158/3
f 508/524/3 507/521/3 546/478/3 545/477/3
f 507/521/3 506/519/3 547/479/3 546/478/3
f 506/519/3 505/517/3 533/308/3 547/479/3
f 529/502/3 499/515/3 548/306/3 541/225/3
f 499/515/3 500/513/3 549/304/3 548/306/3
f 500/513/3 501/510/3 550/301/3 549/304/3
f 501/510/3 502/507/3 551/254/3 550/301/3
f 502/507/3 503/504/3 552/227/3 551/254/3
f 503/504/3 504/499/3 542/187/3 552/227/3
f 526/500/1 511/495/1 553/184/1 536/223/1
f 511/495/1 530/494/1 554/183/1 553/184/1
f 512/525/1 531/522/1 555/179/1 556/180/1
f 532/508/1 512/525/1 556/180/1 557/255/1
f 530/494/1 518/526/1 558/149/1 554/183/1
f 531/522/1 519/520/1 559/486/1 555/179/1
f 519/520/1 520/518/1 560/309/1 559/486/1
f 520/518/1 521/516/1 561/307/1 560/309/1
f 521/516/1 522/514/1 562/305/1 561/307/1
f 522/514/1 523/512/1 563/303/1 562/305/1
f 523/512/1 524/511/1 535/302/1 563/303/1
f 513/505/1 532/508/1 557/255/1 564/228/1
f 514/501/1 513/505/1 564/228/1 565/224/1
f 515/496/1 514/501/1 565/224/1 566/185/1
f 516/497/1 515/496/1 566/185/1 567/181/1
f 517/527/1 516/497/1 567/181/1 568/148/1
f 518/526/1 517/527/1 568/148/1 558/149/1
f 509/523/2 510/492/2 870/492/2 877/523/2
f 508/524/2 509/523/2 877/523/2 878/524/2
f 507/521/2 508/524/2 878/524/2 879/521/2
f 671/189/4 664/188/4 663/607/4 672/608/4
f 669/258/2 671/189/2 672/608/2 670/611/2
f 664/188/5 661/299/5 662/602/5 663/607/5
f 661/299/5 659/614/5 660/603/5 662/602/5
f 659/614/5 657/616/5 658/609/5 660/603/5
f 657/616/5 655/195/5 656/612/5 658/609/5
f 655/195/5 653/194/5 654/617/5 656/612/5
f 653/194/5 651/201/5 652/615/5 654/617/5
f 651/201/5 649/200/5 650/606/5 652/615/5
f 649/200/7 647/296/7 648/297/7 650/606/7
f 647/296/2 645/293/2 646/290/2 648/297/2
f 645/293/2 643/202/2 644/196/2 646/290/2
f 643/202/2 641/191/2 642/197/2 644/196/2
f 641/191/2 665/190/2 666/625/2 642/197/2
f 665/190/2 667/628/2 668/622/2 666/625/2
f 667/628/2 669/258/2 670/611/2 668/622/2
usemtl M_Gris_Metal
f 573/58/6 572/59/6 911/59/6 1002/58/6
f 214/139/1 72/135/1 67/137/1 206/140/1
f 465/141/3 466/125/3 59/127/3 100/142/3
f 101/68/3 62/69/3 462/124/3 467/146/3
f 207/143/1 70/132/1 71/134/1 218/147/1
f 271/148/2 272/149/2 558/149/2 568/148/2
f 308/150/1 297/136/1 72/135/1 214/139/1
f 290/151/3 296/152/3 105/153/3 57/118/3
f 296/152/3 613/154/3 609/155/3 105/153/3
f 156/158/5 155/159/5 543/159/5 544/158/5
f 61/122/3 104/160/3 109/161/3 60/120/3
f 104/160/3 103/162/3 611/163/3 109/161/3
f 103/162/3 102/164/3 612/165/3 611/163/3
f 102/164/3 101/68/3 467/146/3 612/165/3
f 57/118/3 105/153/3 97/145/3 58/119/3
f 105/153/3 609/155/3 98/168/3 97/145/3
f 609/155/3 610/169/3 99/166/3 98/168/3
f 610/169/3 465/141/3 100/142/3 99/166/3
f 68/179/7 215/180/7 556/180/7 555/179/7
f 270/181/2 271/148/2 568/148/2 567/181/2
f 155/159/5 64/182/5 538/182/5 543/159/5
f 212/183/4 211/184/4 553/184/4 554/183/4
f 269/185/2 270/181/2 567/181/2 566/185/2
f 107/186/2 178/187/2 542/187/2 540/186/2
f 664/188/3 671/189/3 704/189/3 684/188/3
f 665/190/3 641/191/3 689/191/3 701/190/3
f 644/196/1 642/197/1 673/197/1 674/196/1
f 641/191/3 643/202/3 690/202/3 689/191/3
f 109/161/3 611/163/3 615/203/3 291/204/3
f 291/204/3 615/203/3 616/205/3 292/206/3
f 292/206/3 616/205/3 617/207/3 293/208/3
f 293/208/3 617/207/3 618/209/3 294/210/3
f 294/210/3 618/209/3 619/211/3 295/212/3
f 295/212/3 619/211/3 613/154/3 296/152/3
f 60/120/3 109/161/3 291/204/3 285/121/3
f 773/213/12 780/214/12 801/214/12 774/213/12
f 151/215/13 775/216/13 826/216/13 828/215/13
f 166/217/14 328/218/14 862/218/14 857/217/14
f 266/219/15 789/220/15 822/220/15 858/219/15
f 804/221/15 311/222/15 848/222/15 817/221/15
f 211/184/4 65/223/4 536/223/4 553/184/4
f 268/224/2 269/185/2 566/185/2 565/224/2
f 111/225/7 112/226/7 539/226/7 541/225/7
f 178/187/2 177/227/2 552/227/2 542/187/2
f 267/228/2 268/224/2 565/224/2 564/228/2
f 108/229/4 107/186/4 540/186/4 537/229/4
f 177/227/2 176/254/2 551/254/2 552/227/2
f 216/255/2 267/228/2 564/228/2 557/255/2
f 630/259/1 308/150/1 214/139/1 626/260/1
f 69/131/1 210/261/1 484/262/1 483/81/1
f 210/261/1 209/263/1 627/264/1 484/262/1
f 209/263/1 208/265/1 628/266/1 627/264/1
f 208/265/1 207/143/1 218/147/1 628/266/1
f 464/129/1 481/273/1 203/138/1 66/130/1
f 481/273/1 625/274/1 204/270/1 203/138/1
f 625/274/1 626/260/1 205/268/1 204/270/1
f 626/260/1 214/139/1 206/140/1 205/268/1
f 628/266/1 218/147/1 303/280/1 636/281/1
f 636/281/1 303/280/1 304/282/1 637/283/1
f 637/283/1 304/282/1 305/284/1 638/285/1
f 638/285/1 305/284/1 306/286/1 639/287/1
f 639/287/1 306/286/1 307/288/1 640/289/1
f 640/289/1 307/288/1 308/150/1 630/259/1
f 646/290/1 644/196/1 674/196/1 675/290/1
f 643/202/3 645/293/3 691/293/3 690/202/3
f 648/297/1 646/290/1 675/290/1 676/297/1
f 112/226/7 63/300/7 534/300/7 539/226/7
f 176/254/2 175/301/2 550/301/2 551/254/2
f 260/302/5 259/303/5 563/303/5 535/302/5
f 64/182/4 108/229/4 537/229/4 538/182/4
f 175/301/2 174/304/2 549/304/2 550/301/2
f 259/303/5 258/305/5 562/305/5 563/303/5
f 65/223/5 260/302/5 535/302/5 536/223/5
f 174/304/2 173/306/2 548/306/2 549/304/2
f 258/305/5 257/307/5 561/307/5 562/305/5
f 63/300/5 160/308/5 533/308/5 534/300/5
f 173/306/2 111/225/2 541/225/2 548/306/2
f 257/307/5 256/309/5 560/309/5 561/307/5
f 218/147/1 71/134/1 302/310/1 303/280/1
f 775/216/13 149/311/13 853/311/13 826/216/13
f 770/312/16 771/313/16 772/313/16 769/312/16
f 330/314/17 266/219/17 858/219/17 863/314/17
f 789/220/15 788/315/15 823/315/15 822/220/15
f 311/222/15 333/316/15 842/316/15 848/222/15
f 773/213/3 150/337/3 286/235/3 285/121/3
f 150/337/3 776/338/3 287/234/3 286/235/3
f 776/338/3 777/339/3 288/233/3 287/234/3
f 777/339/3 778/340/3 289/232/3 288/233/3
f 778/340/3 779/341/3 290/151/3 289/232/3
f 781/342/3 780/214/3 291/204/3 292/206/3
f 782/343/3 781/342/3 292/206/3 293/208/3
f 164/344/3 782/343/3 293/208/3 294/210/3
f 165/345/3 164/344/3 294/210/3 295/212/3
f 785/346/3 165/345/3 295/212/3 296/152/3
f 780/214/3 773/213/3 285/121/3 291/204/3
f 779/341/3 785/346/3 296/152/3 290/151/3
f 770/312/1 786/347/1 298/323/1 297/136/1
f 786/347/1 787/348/1 299/321/1 298/323/1
f 787/348/1 264/349/1 300/319/1 299/321/1
f 264/349/1 265/350/1 301/317/1 300/319/1
f 265/350/1 790/351/1 302/310/1 301/317/1
f 791/352/1 792/353/1 304/282/1 303/280/1
f 792/353/1 793/354/1 305/284/1 304/282/1
f 793/354/1 794/355/1 306/286/1 305/284/1
f 794/355/1 795/356/1 307/288/1 306/286/1
f 795/356/1 771/313/1 308/150/1 307/288/1
f 790/351/1 791/352/1 303/280/1 302/310/1
f 771/313/1 770/312/1 297/136/1 308/150/1
f 774/213/3 801/214/3 802/342/3 334/337/3
f 799/340/3 335/345/3 806/346/3 800/341/3
f 812/352/1 811/351/1 337/350/1 813/353/1
f 816/356/1 807/347/1 769/312/1 772/313/1
f 149/311/18 325/370/18 854/370/18 853/311/18
f 340/371/13 332/372/13 852/372/13 843/371/13
f 785/346/19 779/341/19 800/341/19 806/346/19
f 788/315/15 263/373/15 846/373/15 823/315/15
f 333/316/15 327/374/15 861/374/15 842/316/15
f 332/372/20 284/375/20 851/375/20 852/372/20
f 322/376/13 340/371/13 843/371/13 837/376/13
f 263/373/15 262/377/15 840/377/15 846/373/15
f 336/378/21 326/379/21 860/379/21 833/378/21
f 261/380/22 329/381/22 849/381/22 850/380/22
f 320/382/13 322/376/13 837/376/13 835/382/13
f 262/377/15 261/380/15 850/380/15 840/377/15
f 314/383/21 336/378/21 833/378/21 829/383/21
f 791/352/23 790/351/23 811/351/23 812/352/23
f 309/369/3 310/368/3 334/337/3 802/342/3
f 316/366/3 315/365/3 335/345/3 799/340/3
f 317/358/1 318/357/1 813/353/1 337/350/1
f 324/384/1 323/385/1 807/347/1 816/356/1
f 310/368/3 341/386/3 797/338/3 334/337/3
f 341/386/3 342/387/3 798/339/3 797/338/3
f 342/387/3 316/366/3 799/340/3 798/339/3
f 343/388/3 309/369/3 802/342/3 803/343/3
f 313/389/3 343/388/3 803/343/3 344/344/3
f 315/365/3 313/389/3 344/344/3 335/345/3
f 323/385/1 345/390/1 808/348/1 807/347/1
f 345/390/1 319/391/1 346/349/1 808/348/1
f 319/391/1 317/358/1 337/350/1 346/349/1
f 318/357/1 347/392/1 814/354/1 813/353/1
f 347/392/1 348/393/1 815/355/1 814/354/1
f 348/393/1 324/384/1 816/356/1 815/355/1
f 415/394/7 414/429/7 365/430/7 366/394/7
f 414/429/25 415/394/25 416/395/25 413/447/25
f 160/308/3 63/300/3 462/124/3 461/237/3
f 260/302/1 65/223/1 464/129/1 463/329/1
f 108/229/3 64/182/3 466/125/3 465/141/3
f 63/300/3 112/226/3 467/146/3 462/124/3
f 107/186/3 108/229/3 465/141/3 610/169/3
f 112/226/3 111/225/3 612/165/3 467/146/3
f 178/187/3 107/186/3 610/169/3 614/476/3
f 64/182/3 155/159/3 471/144/3 466/125/3
f 155/159/3 156/158/3 472/243/3 471/144/3
f 156/158/3 157/477/3 473/241/3 472/243/3
f 157/477/3 158/478/3 474/240/3 473/241/3
f 158/478/3 159/479/3 475/239/3 474/240/3
f 159/479/3 160/308/3 461/237/3 475/239/3
f 111/225/3 173/306/3 620/480/3 612/165/3
f 173/306/3 174/304/3 621/481/3 620/480/3
f 174/304/3 175/301/3 622/482/3 621/481/3
f 175/301/3 176/254/3 623/483/3 622/482/3
f 176/254/3 177/227/3 624/484/3 623/483/3
f 177/227/3 178/187/3 614/476/3 624/484/3
f 65/223/1 211/184/1 481/273/1 464/129/1
f 211/184/1 212/183/1 625/274/1 481/273/1
f 215/180/1 68/179/1 483/81/1 484/262/1
f 216/255/1 215/180/1 484/262/1 627/264/1
f 212/183/1 272/149/1 629/485/1 625/274/1
f 68/179/1 255/486/1 487/80/1 483/81/1
f 255/486/1 256/309/1 488/336/1 487/80/1
f 256/309/1 257/307/1 489/334/1 488/336/1
f 257/307/1 258/305/1 490/332/1 489/334/1
f 258/305/1 259/303/1 491/331/1 490/332/1
f 259/303/1 260/302/1 463/329/1 491/331/1
f 267/228/1 216/255/1 627/264/1 631/487/1
f 268/224/1 267/228/1 631/487/1 632/488/1
f 269/185/1 268/224/1 632/488/1 633/489/1
f 270/181/1 269/185/1 633/489/1 634/490/1
f 271/148/1 270/181/1 634/490/1 635/491/1
f 272/149/1 271/148/1 635/491/1 629/485/1
f 530/494/32 511/495/32 586/495/32 606/494/32
f 515/496/5 516/497/5 891/497/5 890/496/5
f 511/495/32 526/500/32 602/500/32 586/495/32
f 514/501/5 515/496/5 890/496/5 889/501/5
f 529/502/33 498/503/33 571/503/33 605/502/33
f 513/505/5 514/501/5 889/501/5 871/505/5
f 497/506/34 528/498/34 604/498/34 570/506/34
f 532/508/5 513/505/5 871/505/5 608/508/5
f 498/503/33 525/509/33 601/509/33 571/503/33
f 524/511/2 523/512/2 888/512/2 876/511/2
f 527/493/34 497/506/34 570/506/34 603/493/34
f 523/512/2 522/514/2 887/514/2 888/512/2
f 526/500/2 524/511/2 876/511/2 602/500/2
f 522/514/2 521/516/2 886/516/2 887/514/2
f 521/516/2 520/518/2 885/518/2 886/516/2
f 520/518/2 519/520/2 875/520/2 885/518/2
f 519/520/2 531/522/2 607/522/2 875/520/2
f 215/180/7 216/255/7 557/255/7 556/180/7
f 157/477/5 156/158/5 544/158/5 545/477/5
f 272/149/2 212/183/2 554/183/2 558/149/2
f 158/478/5 157/477/5 545/477/5 546/478/5
f 255/486/5 68/179/5 555/179/5 559/486/5
f 159/479/5 158/478/5 546/478/5 547/479/5
f 256/309/5 255/486/5 559/486/5 560/309/5
f 160/308/5 159/479/5 547/479/5 533/308/5
f 867/528/3 870/492/3 603/493/3 570/506/3
f 868/499/3 867/528/3 570/506/3 604/498/3
f 605/502/3 571/503/3 865/529/3 866/515/3
f 581/530/35 582/531/35 950/531/35 947/532/35
f 591/533/36 592/534/36 985/534/36 982/533/36
f 582/531/35 583/535/35 953/535/35 950/531/35
f 590/536/36 591/533/36 982/533/36 979/536/36
f 583/535/35 584/537/35 1008/537/35 953/538/35
f 571/503/3 601/509/3 869/517/3 865/529/3
f 588/539/37 589/540/37 1010/540/37 956/541/37
f 600/542/38 599/543/38 999/543/38 1016/542/38
f 589/540/36 590/536/36 979/536/36 1010/540/36
f 599/543/38 598/544/38 996/544/38 999/543/38
f 876/511/1 874/545/1 586/495/1 602/500/1
f 874/545/1 873/526/1 606/494/1 586/495/1
f 587/525/1 608/508/1 871/505/1 872/546/1
f 989/547/1 961/548/1 962/549/1 994/550/1
f 598/544/38 597/551/38 993/551/38 996/552/38
f 585/553/39 600/542/39 1016/542/39 976/553/39
f 597/551/38 596/554/38 990/554/38 993/551/38
f 1013/555/1 955/556/1 958/557/1 991/558/1
f 607/522/1 587/525/1 872/546/1 875/520/1
f 579/559/35 580/560/35 944/560/35 1006/561/35
f 574/562/40 573/58/40 1002/58/40 932/562/40
f 578/563/40 577/564/40 941/565/40 1004/566/40
f 1001/567/3 910/568/3 915/569/3 933/570/3
f 577/564/40 576/571/40 938/571/40 941/565/40
f 516/497/5 517/527/5 892/527/5 891/497/5
f 531/522/41 512/525/41 587/525/41 607/522/41
f 517/527/5 518/526/5 873/526/5 892/527/5
f 512/525/41 532/508/41 608/508/41 587/525/41
f 518/526/5 530/494/5 606/494/5 873/526/5
f 106/572/3 468/573/3 610/169/3 609/155/3
f 469/574/3 110/575/3 611/163/3 612/165/3
f 172/576/3 106/572/3 609/155/3 613/154/3
f 468/573/3 470/577/3 614/476/3 610/169/3
f 110/575/3 167/578/3 615/203/3 611/163/3
f 167/578/3 168/579/3 616/205/3 615/203/3
f 168/579/3 169/580/3 617/207/3 616/205/3
f 169/580/3 170/581/3 618/209/3 617/207/3
f 170/581/3 171/582/3 619/211/3 618/209/3
f 171/582/3 172/576/3 613/154/3 619/211/3
f 476/583/3 469/574/3 612/165/3 620/480/3
f 477/584/3 476/583/3 620/480/3 621/481/3
f 478/585/3 477/584/3 621/481/3 622/482/3
f 479/586/3 478/585/3 622/482/3 623/483/3
f 480/587/3 479/586/3 623/483/3 624/484/3
f 470/577/3 480/587/3 624/484/3 614/476/3
f 482/588/1 213/589/1 626/260/1 625/274/1
f 217/590/1 485/591/1 627/264/1 628/266/1
f 486/592/1 482/588/1 625/274/1 629/485/1
f 213/589/1 278/593/1 630/259/1 626/260/1
f 485/591/1 492/594/1 631/487/1 627/264/1
f 492/594/1 493/595/1 632/488/1 631/487/1
f 493/595/1 494/157/1 633/489/1 632/488/1
f 494/157/1 495/156/1 634/490/1 633/489/1
f 495/156/1 496/596/1 635/491/1 634/490/1
f 496/596/1 486/592/1 629/485/1 635/491/1
f 273/597/1 217/590/1 628/266/1 636/281/1
f 274/598/1 273/597/1 636/281/1 637/283/1
f 275/599/1 274/598/1 637/283/1 638/285/1
f 276/600/1 275/599/1 638/285/1 639/287/1
f 277/601/1 276/600/1 639/287/1 640/289/1
f 278/593/1 277/601/1 640/289/1 630/259/1
f 645/293/3 647/296/3 692/296/3 691/293/3
f 650/606/1 648/297/1 676/297/1 677/606/1
f 647/296/3 649/200/3 693/200/3 692/296/3
f 652/615/1 650/606/1 677/606/1 678/615/1
f 649/200/3 651/201/3 694/201/3 693/200/3
f 654/617/1 652/615/1 678/615/1 679/617/1
f 651/201/3 653/194/3 695/194/3 694/201/3
f 656/612/1 654/617/1 679/617/1 680/612/1
f 653/194/3 655/195/3 696/195/3 695/194/3
f 642/197/1 666/625/1 685/625/1 673/197/1
f 672/608/1 663/607/1 700/607/1 688/608/1
f 667/628/3 665/190/3 701/190/3 702/628/3
f 671/189/3 669/258/3 703/258/3 704/189/3
f 666/625/1 668/622/1 686/622/1 685/625/1
f 670/611/1 672/608/1 688/608/1 687/611/1
f 669/258/3 667/628/3 702/628/3 703/258/3
f 661/299/3 664/188/3 684/188/3 699/299/3
f 668/622/1 670/611/1 687/611/1 686/622/1
f 663/607/1 662/602/1 683/602/1 700/607/1
f 659/614/3 661/299/3 699/299/3 698/614/3
f 662/602/1 660/603/1 682/603/1 683/602/1
f 657/616/3 659/614/3 698/614/3 697/616/3
f 660/603/1 658/609/1 681/609/1 682/603/1
f 655/195/3 657/616/3 697/616/3 696/195/3
f 658/609/1 656/612/1 680/612/1 681/609/1
f 329/381/46 261/380/46 770/312/46 769/312/46
f 284/375/47 332/372/47 772/313/47 771/313/47
f 325/370/48 149/311/48 773/213/48 774/213/48
f 149/311/48 775/216/48 150/337/48 773/213/48
f 775/216/48 151/215/48 776/338/48 150/337/48
f 151/215/48 152/653/48 777/339/48 776/338/48
f 152/653/48 153/654/48 778/340/48 777/339/48
f 153/654/48 154/655/48 779/341/48 778/340/48
f 162/656/49 161/657/49 780/214/49 781/342/49
f 163/658/49 162/656/49 781/342/49 782/343/49
f 783/659/49 163/658/49 782/343/49 164/344/49
f 784/660/49 783/659/49 164/344/49 165/345/49
f 166/217/49 784/660/49 165/345/49 785/346/49
f 261/380/46 262/377/46 786/347/46 770/312/46
f 262/377/46 263/373/46 787/348/46 786/347/46
f 263/373/46 788/315/46 264/349/46 787/348/46
f 788/315/46 789/220/46 265/350/46 264/349/46
f 789/220/46 266/219/46 790/351/46 265/350/46
f 279/661/47 280/662/47 792/353/47 791/352/47
f 280/662/47 281/663/47 793/354/47 792/353/47
f 281/663/47 282/664/47 794/355/47 793/354/47
f 282/664/47 283/665/47 795/356/47 794/355/47
f 283/665/47 284/375/47 771/313/47 795/356/47
f 796/666/48 325/370/48 774/213/48 334/337/48
f 312/667/48 796/666/48 334/337/48 797/338/48
f 314/383/48 312/667/48 797/338/48 798/339/48
f 336/378/48 314/383/48 798/339/48 799/340/48
f 326/379/48 336/378/48 799/340/48 800/341/48
f 327/374/49 333/316/49 802/342/49 801/214/49
f 333/316/49 311/222/49 803/343/49 802/342/49
f 311/222/49 804/221/49 344/344/49 803/343/49
f 804/221/49 805/668/49 335/345/49 344/344/49
f 805/668/49 328/218/49 806/346/49 335/345/49
f 339/669/46 329/381/46 769/312/46 807/347/46
f 321/670/46 339/669/46 807/347/46 808/348/46
f 809/671/46 321/670/46 808/348/46 346/349/46
f 810/672/46 809/671/46 346/349/46 337/350/46
f 330/314/46 810/672/46 337/350/46 811/351/46
f 338/673/47 331/674/47 812/352/47 813/353/47
f 320/382/47 338/673/47 813/353/47 814/354/47
f 322/376/47 320/382/47 814/354/47 815/355/47
f 340/371/47 322/376/47 815/355/47 816/356/47
f 332/372/47 340/371/47 816/356/47 772/313/47
f 266/219/46 330/314/46 811/351/46 790/351/46
f 328/218/49 166/217/49 785/346/49 806/346/49
f 331/674/47 279/661/47 791/352/47 812/352/47
f 161/657/49 327/374/49 801/214/49 780/214/49
f 154/655/48 326/379/48 800/341/48 779/341/48
f 805/668/15 804/221/15 817/221/15 820/668/15
f 280/662/21 279/661/21 859/661/21 832/662/21
f 279/661/50 331/674/50 864/674/50 859/661/50
f 152/653/13 151/215/13 828/215/13 830/653/13
f 328/218/15 805/668/15 820/668/15 862/218/15
f 281/663/21 280/662/21 832/662/21 836/663/21
f 327/374/51 161/657/51 856/657/51 861/374/51
f 153/654/13 152/653/13 830/653/13 834/654/13
f 329/381/52 339/669/52 839/669/52 849/381/52
f 282/664/21 281/663/21 836/663/21 838/664/21
f 326/379/53 154/655/53 855/655/53 860/379/53
f 154/655/13 153/654/13 834/654/13 855/655/13
f 339/669/52 321/670/52 845/670/52 839/669/52
f 283/665/21 282/664/21 838/664/21 844/665/21
f 161/657/52 162/656/52 841/656/52 856/657/52
f 321/670/52 809/671/52 824/671/52 845/670/52
f 284/375/21 283/665/21 844/665/21 851/375/21
f 162/656/52 163/658/52 847/658/52 841/656/52
f 809/671/52 810/672/52 821/672/52 824/671/52
f 325/370/21 796/666/21 825/666/21 854/370/21
f 163/658/52 783/659/52 818/659/52 847/658/52
f 810/672/52 330/314/52 863/314/52 821/672/52
f 796/666/21 312/667/21 827/667/21 825/666/21
f 783/659/52 784/660/52 819/660/52 818/659/52
f 331/674/13 338/673/13 831/673/13 864/674/13
f 312/667/21 314/383/21 829/383/21 827/667/21
f 784/660/52 166/217/52 857/217/52 819/660/52
f 338/673/13 320/382/13 835/382/13 831/673/13
f 572/59/3 573/58/3 866/515/3 865/529/3
f 578/563/3 569/675/3 867/528/3 868/499/3
f 579/559/3 572/59/3 865/529/3 869/517/3
f 569/675/3 584/537/3 870/492/3 867/528/3
f 589/540/1 588/539/1 872/546/1 871/505/1
f 585/553/1 594/676/1 873/526/1 874/545/1
f 588/539/1 595/677/1 875/520/1 872/546/1
f 600/542/1 585/553/1 874/545/1 876/511/1
f 584/537/3 583/535/3 877/523/3 870/492/3
f 583/535/3 582/531/3 878/524/3 877/523/3
f 582/531/3 581/530/3 879/521/3 878/524/3
f 581/530/3 580/560/3 880/519/3 879/521/3
f 580/560/3 579/559/3 869/517/3 880/519/3
f 573/58/3 574/562/3 881/513/3 866/515/3
f 574/562/3 575/678/3 882/510/3 881/513/3
f 575/678/3 576/571/3 883/507/3 882/510/3
f 576/571/3 577/564/3 884/504/3 883/507/3
f 577/564/3 578/563/3 868/499/3 884/504/3
f 595/677/1 596/554/1 885/518/1 875/520/1
f 596/554/1 597/551/1 886/516/1 885/518/1
f 597/551/1 598/544/1 887/514/1 886/516/1
f 598/544/1 599/543/1 888/512/1 887/514/1
f 599/543/1 600/542/1 876/511/1 888/512/1
f 590/536/1 589/540/1 871/505/1 889/501/1
f 591/533/1 590/536/1 889/501/1 890/496/1
f 592/534/1 591/533/1 890/496/1 891/497/1
f 593/679/1 592/534/1 891/497/1 892/527/1
f 594/676/1 593/679/1 892/527/1 873/526/1
f 913/680/3 945/681/3 946/682/3 916/683/3
f 917/684/3 948/685/3 949/686/3 920/687/3
f 921/688/3 951/689/3 952/690/3 924/691/3
f 925/692/3 954/693/3 1007/694/3 928/695/3
f 569/675/54 578/563/54 1004/563/54 929/696/54
f 572/59/6 579/559/6 1006/559/6 911/697/6
f 931/698/3 914/699/3 919/700/3 936/701/3
f 934/702/3 918/703/3 923/704/3 939/705/3
f 937/706/3 922/707/3 927/708/3 942/709/3
f 940/710/3 926/711/3 930/712/3 1003/713/3
f 595/677/37 588/539/37 956/539/37 1014/677/37
f 992/714/1 965/715/1 966/716/1 997/717/1
f 995/718/1 969/719/1 970/720/1 1000/721/1
f 998/722/1 973/723/1 974/724/1 1015/725/1
f 594/676/39 585/553/39 976/553/39 1012/726/39
f 957/727/1 1009/728/1 978/729/1 959/730/1
f 960/731/1 977/732/1 981/733/1 963/734/1
f 964/735/1 980/736/1 984/737/1 967/738/1
f 968/739/1 983/740/1 987/741/1 971/742/1
f 972/743/1 986/744/1 1011/745/1 975/746/1
f 592/534/36 593/679/36 988/679/36 985/747/36
f 580/560/35 581/530/35 947/530/35 944/560/35
f 593/679/36 594/676/36 1012/676/36 988/679/36
f 575/678/40 574/562/40 932/562/40 935/678/40
f 909/748/3 1005/749/3 943/750/3 912/751/3
f 596/554/38 595/677/38 1014/677/38 990/554/38
f 576/571/40 575/678/40 935/678/40 938/571/40
f 584/537/54 569/675/54 929/675/54 1008/537/54
f 909/748/55 910/568/55 911/697/55
f 912/751/3 913/680/3 914/699/3 915/569/3
f 916/683/3 917/684/3 918/703/3 919/700/3
f 920/687/3 921/688/3 922/707/3 923/704/3
f 924/691/3 925/692/3 926/711/3 927/708/3
f 928/695/56 929/696/56 930/712/56
f 931/698/57 932/562/57 933/570/57
f 934/702/58 935/678/58 936/701/58
f 937/706/58 938/571/58 939/705/58
f 940/710/57 941/565/57 942/709/57
f 943/750/59 944/560/59 945/681/59
f 946/682/60 947/532/60 948/685/60
f 949/686/61 950/531/61 951/689/61
f 952/690/59 953/538/59 954/693/59
f 955/556/62 956/541/62 957/727/62
f 958/557/1 959/730/1 960/731/1 961/548/1
f 962/549/1 963/734/1 964/735/1 965/715/1
f 966/716/1 967/738/1 968/739/1 969/719/1
f 970/720/1 971/742/1 972/743/1 973/723/1
f 974/724/63 975/746/63 976/553/63
f 977/732/64 978/729/64 979/536/64
f 980/736/65 981/733/65 982/533/65
f 983/740/65 984/737/65 985/747/65
f 986/744/64 987/741/64 988/679/64
f 989/547/66 990/554/66 991/558/66
f 992/714/67 993/551/67 994/550/67
f 995/718/68 996/552/68 997/717/68
f 998/722/66 999/543/66 1000/721/66
f 909/748/3 912/751/3 915/569/3 910/568/3
f 913/680/3 916/683/3 919/700/3 914/699/3
f 917/684/3 920/687/3 923/704/3 918/703/3
f 921/688/3 924/691/3 927/708/3 922/707/3
f 925/692/3 928/695/3 930/712/3 926/711/3
f 914/699/3 931/698/3 933/570/3 915/569/3
f 918/703/3 934/702/3 936/701/3 919/700/3
f 922/707/3 937/706/3 939/705/3 923/704/3
f 926/711/3 940/710/3 942/709/3 927/708/3
f 945/681/3 913/680/3 912/751/3 943/750/3
f 948/685/3 917/684/3 916/683/3 946/682/3
f 951/689/3 921/688/3 920/687/3 949/686/3
f 954/693/3 925/692/3 924/691/3 952/690/3
f 957/727/1 959/730/1 958/557/1 955/556/1
f 960/731/1 963/734/1 962/549/1 961/548/1
f 964/735/1 967/738/1 966/716/1 965/715/1
f 968/739/1 971/742/1 970/720/1 969/719/1
f 972/743/1 975/746/1 974/724/1 973/723/1
f 977/732/1 960/731/1 959/730/1 978/729/1
f 980/736/1 964/735/1 963/734/1 981/733/1
f 983/740/1 968/739/1 967/738/1 984/737/1
f 986/744/1 972/743/1 971/742/1 987/741/1
f 961/548/1 989/547/1 991/558/1 958/557/1
f 965/715/1 992/714/1 994/550/1 962/549/1
f 969/719/1 995/718/1 997/717/1 966/716/1
f 973/723/1 998/722/1 1000/721/1 970/720/1
f 910/568/69 1001/567/69 1002/58/69 911/59/69
f 929/696/70 1004/563/70 1003/713/70 930/712/70
f 1005/749/69 909/748/69 911/697/69 1006/559/69
f 1008/537/70 929/675/70 928/695/70 1007/694/70
f 1009/728/71 957/727/71 956/541/71 1010/540/71
f 1012/726/72 976/553/72 975/746/72 1011/745/72
f 955/556/71 1013/555/71 1014/677/71 956/539/71
f 976/553/72 1016/542/72 1015/725/72 974/724/72
f 1007/694/73 954/693/73 953/538/73 1008/537/73
f 952/690/74 951/689/74 950/531/74 953/535/74
f 949/686/60 948/685/60 947/532/60 950/531/60
f 946/682/74 945/681/74 944/560/74 947/530/74
f 943/750/73 1005/749/73 1006/561/73 944/560/73
f 1001/567/75 933/570/75 932/562/75 1002/58/75
f 931/698/76 936/701/76 935/678/76 932/562/76
f 934/702/58 939/705/58 938/571/58 935/678/58
f 937/706/76 942/709/76 941/565/76 938/571/76
f 940/710/75 1003/713/75 1004/566/75 941/565/75
f 1013/555/77 991/558/77 990/554/77 1014/677/77
f 989/547/78 994/550/78 993/551/78 990/554/78
f 992/714/67 997/717/67 996/552/67 993/551/67
f 995/718/78 1000/721/78 999/543/78 996/544/78
f 998/722/77 1015/725/77 1016/542/77 999/543/77
f 1010/540/79 979/536/79 978/729/79 1009/728/79
f 979/536/80 982/533/80 981/733/80 977/732/80
f 982/533/65 985/534/65 984/737/65 980/736/65
f 985/747/80 988/679/80 987/741/80 983/740/80
f 988/679/79 1012/676/79 1011/745/79 986/744/79
usemtl M_Orange
f 390/455/3 389/456/3 381/452/3 382/469/3
f 382/469/3 381/452/3 383/449/3 384/470/3
f 384/470/3 383/449/3 391/450/3 392/451/3
f 394/467/1 393/466/1 385/472/1 386/473/1
f 386/473/1 385/472/1 387/471/1 388/454/1
f 388/454/1 387/471/1 395/468/1 396/453/1
usemtl M_Plexiglas
f 683/637/3 700/637/3 688/637/3 687/637/3 686/637/3 685/637/3 673/637/3 674/637/3 675/637/3 676/637/3 677/637/3 678/637/3 679/637/3 680/637/3 681/637/3 682/637/3
f 684/637/1 699/637/1 698/637/1 697/637/1 696/637/1 695/637/1 694/637/1 693/637/1 692/637/1 691/637/1 690/637/1 689/637/1 701/637/1 702/637/1 703/637/1 704/637/1
usemtl M_Cyan
f 832/662/47 859/661/47 864/674/47 831/673/47
f 830/653/48 828/215/48 827/667/48 829/383/48
f 819/660/49 857/217/49 862/218/49 820/668/49
f 858/219/46 822/220/46 821/672/46 863/314/46
f 828/215/48 826/216/48 825/666/48 827/667/48
f 818/659/49 819/660/49 820/668/49 817/221/49
f 822/220/46 823/315/46 824/671/46 821/672/46
f 826/216/48 853/311/48 854/370/48 825/666/48
f 834/654/48 830/653/48 829/383/48 833/378/48
f 836/663/47 832/662/47 831/673/47 835/382/47
f 855/655/48 834/654/48 833/378/48 860/379/48
f 838/664/47 836/663/47 835/382/47 837/376/47
f 840/377/46 850/380/46 849/381/46 839/669/46
f 856/657/49 841/656/49 842/316/49 861/374/49
f 844/665/47 838/664/47 837/376/47 843/371/47
f 846/373/46 840/377/46 839/669/46 845/670/46
f 841/656/49 847/658/49 848/222/49 842/316/49
f 851/375/47 844/665/47 843/371/47 852/372/47
f 823/315/46 846/373/46 845/670/46 824/671/46
f 847/658/49 818/659/49 817/221/49 848/222/49
